<?xml version="1.0" standalone="no"?>
<!DOCTYPE svg PUBLIC "-//W3C//DTD SVG 20010904//EN"
 "http://www.w3.org/TR/2001/REC-SVG-20010904/DTD/svg10.dtd">
<svg version="1.0" xmlns="http://www.w3.org/2000/svg"
 width="1100.000000pt" height="2850.000000pt" viewBox="0 0 1100.000000 2850.000000"
 preserveAspectRatio="xMidYMid meet">
<metadata>
Created by potrace 1.15, written by Peter Selinger 2001-2017
</metadata>
<g transform="translate(0.000000,2850.000000) scale(0.500000,-0.500000)"
fill="#000000" stroke="none">
<path d="M1172 3846 c-15 -3 -36 -13 -44 -21 -6 -6 -7 -8 -8 -21 -1 -16 0 -16
16 -37 6 -7 13 -16 15 -20 10 -17 29 -57 34 -73 3 -9 7 -21 9 -25 2 -5 4 -14
4 -21 0 -7 1 -12 2 -12 1 0 -1 -3 -4 -6 l-6 -6 -91 0 c-110 0 -101 -1 -167 23
-33 12 -42 14 -54 11 -10 -3 -22 -14 -23 -24 -1 -4 -2 -9 -3 -12 -1 -2 -2 -7
-2 -10 0 -13 -17 -17 -33 -7 -20 11 -33 17 -45 20 -18 4 -21 8 -21 26 0 11 1
16 3 17 4 2 5 23 2 33 -2 7 -10 15 -17 16 -11 3 -33 -6 -33 -12 0 -2 -1 -3 -2
-3 -1 0 -2 -3 -3 -6 -1 -6 -14 -21 -15 -18 -1 1 -25 9 -54 19 -44 15 -54 19
-59 24 -3 3 -4 6 -3 8 16 21 19 25 26 46 3 7 3 11 2 16 -1 3 -3 8 -3 10 -1 2
-2 4 -3 5 -1 0 -2 2 -2 3 0 2 -2 4 -4 5 -3 2 -5 3 -6 4 -3 5 -38 9 -169 22
-111 11 -143 14 -149 12 -11 -3 -20 -10 -25 -19 -4 -8 -4 -11 -4 -112 -1 -113
-1 -116 10 -124 7 -5 26 -7 34 -4 23 10 38 -9 22 -28 -3 -4 -7 -10 -9 -12 -2
-5 -3 -33 0 -33 3 0 7 -12 7 -22 -1 -18 -10 -27 -28 -27 -19 0 -25 6 -29 31
-3 20 -8 31 -19 48 -12 17 -14 19 -31 18 -11 -1 -15 -3 -22 -8 -8 -5 -10 -6
-24 -6 -8 0 -20 1 -27 2 -10 2 -14 2 -20 0 -5 -2 -8 -3 -9 -3 -17 -3 -31 -19
-36 -40 -2 -8 0 -23 7 -67 0 -3 1 -9 2 -15 5 -53 6 -55 13 -72 12 -28 13 -32
3 -58 -5 -13 -8 -25 -8 -33 -1 -7 -1 -18 -2 -24 -1 -12 3 -30 8 -38 4 -6 22
-14 37 -16 17 -3 23 -5 28 -13 8 -11 22 -23 26 -23 2 0 4 -1 5 -2 6 -6 44 1
48 8 1 1 4 -1 7 -4 4 -6 5 -9 6 -26 l1 -19 -6 -6 c-6 -5 -7 -6 -17 -5 -12 0
-33 -7 -42 -14 -17 -16 -31 -16 -48 -1 -21 19 -68 20 -81 2 -10 -12 -10 -22
-2 -50 8 -29 12 -38 21 -46 12 -13 17 -14 64 -15 l43 0 5 -5 c5 -4 6 -7 5 -11
-2 -8 -5 -28 -6 -36 -1 -11 -13 -80 -15 -91 -1 -5 -7 -36 -13 -67 -6 -31 -13
-63 -15 -71 -2 -8 -4 -18 -5 -22 -2 -11 -2 -9 -9 -36 -4 -16 -6 -26 -5 -31 2
-8 10 -23 15 -26 2 -2 4 -6 6 -10 3 -8 0 -13 -12 -16 -4 -1 -8 -4 -10 -5 -1
-1 -3 -2 -3 -1 -2 2 -15 -11 -19 -18 -2 -4 -7 -19 -12 -33 -4 -14 -9 -30 -11
-35 -5 -13 -2 -28 9 -45 14 -22 11 -28 -16 -37 -20 -6 -32 -16 -35 -27 -1 -4
-12 -27 -15 -33 -3 -5 -2 -19 0 -29 3 -10 26 -33 37 -38 9 -4 21 -4 30 0 3 1
17 14 31 28 l24 25 0 13 c0 9 -1 16 -5 25 -5 12 -5 12 -2 17 4 5 7 6 13 3 7
-4 24 -6 33 -4 10 2 14 5 28 22 21 26 27 33 27 35 1 4 10 -9 11 -15 0 -2 1
-19 1 -37 0 -41 4 -53 21 -69 16 -15 16 -39 0 -54 -8 -8 -13 -15 -17 -26 -4
-10 -4 -19 -4 -152 0 -158 -1 -152 14 -165 10 -8 20 -9 62 -10 44 0 60 2 100
14 67 20 71 24 68 75 -1 14 3 21 14 27 6 3 14 8 18 11 l8 5 1 15 0 14 -14 7
c-8 4 -16 7 -18 7 -2 0 -6 3 -9 6 -5 5 -6 7 -6 17 0 10 1 12 6 17 3 3 7 6 9 6
6 0 28 12 33 18 10 11 10 16 9 91 -1 81 -1 68 0 203 l1 105 6 8 c3 4 6 7 6 5
0 -3 30 -18 44 -21 9 -2 19 -3 31 -3 19 1 20 2 42 13 21 10 26 12 37 11 4 0
10 -13 10 -20 0 -8 -4 -16 -14 -28 -11 -13 -15 -25 -18 -44 -1 -9 -2 -20 -3
-24 -2 -19 -10 -66 -14 -92 -4 -25 -8 -44 -21 -103 -2 -8 -3 -14 -5 -21 -1 -2
-1 -6 -2 -7 -4 -16 -19 -70 -21 -73 -4 -7 2 -32 10 -40 2 -2 6 -6 9 -9 10 -12
11 -35 0 -44 -2 -3 -9 -5 -14 -6 -32 -4 -45 -14 -58 -45 -4 -9 -9 -20 -10 -24
-5 -9 -3 -28 4 -38 6 -10 30 -24 42 -25 18 -3 26 3 89 68 20 20 59 65 65 75 1
2 3 5 5 7 3 2 8 9 11 15 4 6 8 11 9 12 2 1 35 52 37 56 1 2 2 5 4 7 14 23 25
43 37 69 5 10 10 18 12 19 5 2 12 -3 18 -11 7 -9 27 -20 53 -29 l20 -7 84 0
84 1 6 -6 6 -6 0 -54 c0 -42 0 -55 2 -60 l3 -7 15 0 c11 0 15 1 15 3 0 1 1 -2
2 -6 l1 -8 1 10 c0 17 9 25 27 26 15 1 25 -7 29 -20 3 -14 0 -25 -12 -35 -16
-14 -25 -23 -29 -33 -2 -6 -15 -19 -15 -16 0 0 -5 -2 -12 -6 -7 -4 -13 -7 -14
-7 0 0 -1 -7 0 -16 0 -15 1 -16 5 -17 3 -1 5 -2 5 -3 0 -2 1 -2 31 -3 25 -1
57 1 77 5 5 1 11 3 14 3 30 6 41 18 44 49 1 14 2 17 6 20 5 5 17 5 24 1 6 -3
24 -2 33 2 12 7 11 -15 11 367 0 193 1 353 2 356 1 3 2 4 2 3 0 -1 1 -2 3 -2
2 0 3 1 3 2 0 1 1 0 2 -2 1 -2 2 -15 2 -29 0 -41 3 -46 30 -49 3 0 7 -1 8 -2
0 0 2 0 3 2 1 2 5 3 12 3 10 0 18 -5 20 -13 0 -2 3 -10 5 -18 3 -12 6 -31 11
-75 0 -6 -1 -9 -4 -12 l-5 -4 -6 4 c-3 3 -7 7 -8 11 -2 3 -6 12 -11 20 -10 17
-15 31 -15 42 -1 6 -1 7 -1 3 -1 -6 -1 -6 -17 -6 -10 0 -16 1 -17 3 -4 5 -5
-23 -5 -182 0 -127 1 -170 2 -176 4 -11 15 -21 29 -27 17 -7 21 -11 21 -23 0
-12 -4 -16 -21 -23 -14 -6 -25 -16 -29 -27 -4 -14 -3 -190 1 -200 4 -9 14 -21
18 -21 2 0 3 -1 3 -2 0 -2 1 -2 31 -3 81 -4 178 27 201 64 9 15 10 24 10 99 0
68 0 71 -4 79 -3 7 -6 9 -9 9 -3 0 -3 0 -1 2 5 3 -1 6 -12 6 -6 -1 -11 0 -11
1 -1 0 -3 0 -4 -1 -4 -4 -29 -8 -44 -7 -14 1 -16 1 -22 7 -5 5 -6 7 -5 19 0
17 -4 34 -12 48 -5 8 -7 12 -7 21 0 19 8 27 27 27 13 0 21 -4 24 -13 11 -26
16 -33 36 -46 13 -9 27 -27 32 -43 3 -9 6 -11 10 -10 1 1 62 1 135 1 144 0
145 0 168 11 24 11 38 30 39 50 1 19 -10 35 -49 69 -6 5 -16 14 -23 20 -7 7
-17 16 -23 21 -5 5 -16 13 -24 18 -9 6 -16 12 -19 17 -2 4 -6 8 -7 8 -5 0 10
15 16 17 4 2 41 25 51 33 15 12 18 26 9 43 -6 11 -38 44 -75 77 -8 7 -18 16
-22 20 -4 3 -9 7 -11 8 -3 1 -3 2 0 2 1 0 3 1 3 2 0 4 14 8 26 8 19 0 29 6 37
21 3 6 5 15 6 19 0 5 1 11 1 14 0 3 4 9 12 15 7 7 11 12 11 13 -1 1 0 2 1 3 1
0 2 7 2 13 -1 12 -1 13 -8 20 -13 13 -43 39 -51 46 -14 12 -22 22 -25 29 -1 6
-1 8 5 20 4 7 6 16 7 21 0 6 1 12 1 14 1 6 -3 24 -5 25 -1 1 -4 2 -6 2 -3 1
-5 2 -6 3 -1 2 -3 3 -3 3 -1 0 -3 1 -5 2 -1 2 -2 3 -1 3 1 0 0 2 -1 4 -1 2 -2
6 -3 9 -1 8 5 13 20 18 24 8 30 29 13 49 -10 13 -14 22 -14 34 0 21 17 28 44
17 13 -6 27 -6 35 -1 4 1 13 11 21 22 4 4 12 28 12 34 0 13 -11 34 -22 39 -3
1 -16 6 -30 11 -52 17 -76 32 -115 70 l-18 17 6 7 c6 6 17 11 35 17 l10 3 19
-6 c24 -8 31 -8 48 1 25 12 42 36 41 55 -2 17 -7 23 -54 70 -63 63 -83 82 -94
87 -6 3 -10 6 -10 7 0 0 -1 3 -1 6 -1 2 1 9 3 15 2 6 3 11 2 13 -1 2 0 4 6 8
l7 6 78 0 c73 1 79 1 89 5 31 12 54 37 54 58 0 17 -15 36 -59 73 -2 3 -8 8
-12 12 -5 4 -14 12 -21 18 -7 6 -19 16 -26 23 -7 6 -18 16 -24 21 -10 8 -20
16 -56 47 -31 26 -36 29 -48 29 -13 0 -22 -4 -28 -12 -7 -8 -48 -65 -54 -74
-2 -2 -7 -10 -12 -17 -25 -33 -32 -43 -33 -46 -1 -1 -5 -5 -11 -7 -9 -5 -11
-5 -58 -6 -27 0 -52 0 -55 1 -7 1 -20 11 -15 11 1 0 4 8 8 18 16 43 4 92 -33
130 -33 35 -92 63 -153 73 -4 0 -10 1 -13 2 -38 7 -119 10 -143 7z m-692 -99
c8 -4 12 -10 14 -21 5 -20 -4 -32 -23 -35 -8 -1 -28 -10 -32 -14 -6 -6 -7 -24
-1 -31 2 -2 5 -6 7 -9 5 -7 11 -13 14 -13 1 0 1 -1 0 -1 -2 -3 12 -7 24 -7 12
0 12 0 22 11 6 6 12 11 14 11 7 0 15 -14 16 -29 2 -14 0 -19 -6 -26 -9 -8 -19
-7 -30 3 -5 4 -8 8 -7 8 0 0 -2 2 -6 3 -10 4 -31 4 -36 -1 -4 -4 -10 -5 -20
-4 -9 1 -13 5 -18 20 -5 17 -14 30 -23 36 -16 10 -23 25 -19 41 3 12 14 21 22
19 3 0 27 10 34 15 4 3 9 8 12 12 9 13 27 18 42 12z m783 -75 c7 -6 7 -19 1
-25 -7 -7 -20 -7 -26 0 -5 7 -5 18 0 24 6 7 19 7 25 1z m-23 -99 c17 -4 23
-11 23 -28 0 -19 -9 -28 -28 -28 -19 0 -28 10 -28 29 1 9 7 25 12 28 3 1 12 1
21 -1z m-328 -15 c16 -6 20 -31 8 -48 -9 -12 -36 -17 -45 -8 -9 9 -11 25 -4
44 2 8 5 10 16 13 9 3 17 3 25 -1z m781 -9 c3 -3 3 -3 0 -6 -3 -3 -3 -3 -6 0
-3 2 -3 3 -1 6 4 4 4 4 7 0z m-1275 -53 c2 0 8 -3 15 -7 13 -8 31 -15 44 -16
10 -2 15 -6 25 -22 3 -6 7 -11 8 -11 1 0 2 -1 1 -2 -2 -3 3 -5 12 -5 37 -3 43
-7 43 -26 0 -16 -7 -23 -22 -23 -14 0 -17 2 -30 23 -5 9 -12 17 -14 18 -2 0
-10 1 -18 1 -8 0 -17 1 -19 3 -8 5 -33 11 -49 12 -9 0 -19 2 -22 4 -15 8 -14
43 1 49 9 3 14 4 18 3 2 -1 5 -1 7 -1z m641 -21 c3 -3 6 -7 6 -7 -1 -1 -1 -35
-1 -76 l0 -75 5 -18 c11 -37 4 -54 -22 -54 -13 0 -22 5 -25 13 -2 6 -3 11 -2
31 1 6 -2 18 -4 24 -2 5 -4 5 -9 5 -4 -1 -7 0 -8 1 0 1 -3 2 -7 2 -9 0 -14 -5
-15 -15 -1 -5 -3 -11 -4 -15 -7 -12 -2 -45 8 -58 3 -4 5 -7 5 -8 0 0 2 -3 4
-5 3 -5 20 -17 20 -15 0 2 15 -5 19 -10 3 -3 4 -5 3 -9 -1 -3 -3 -12 -5 -20
-5 -23 -9 -39 -17 -69 -5 -15 -8 -29 -8 -32 0 -4 -1 -4 -2 1 -1 3 -2 4 -2 2 0
-2 -2 -1 -4 3 -3 5 -4 10 -4 49 0 44 -1 52 -8 62 -5 7 -29 21 -34 19 -2 0 -5
1 -7 2 -7 4 -23 0 -22 -6 0 -2 -2 -9 -5 -15 -2 -6 -5 -13 -5 -15 -2 -10 -18
-17 -33 -13 -19 4 -24 23 -14 45 5 12 7 26 7 43 -1 8 0 16 1 18 2 3 23 16 28
17 4 1 13 10 21 21 8 13 16 20 27 23 10 3 14 12 17 33 2 12 6 21 11 25 6 5 6
6 8 21 1 12 0 13 -20 21 -17 7 -22 11 -16 16 2 2 9 5 16 8 7 3 15 7 17 9 4 4
9 13 8 15 -1 0 0 1 2 1 1 0 5 2 7 6 5 5 5 5 31 5 l26 0 6 -6z m416 -72 l0 -66
-6 -6 c-6 -6 -7 -6 -15 -5 -16 3 -28 9 -38 20 -5 6 -19 21 -31 34 -12 12 -23
24 -24 27 -4 7 -3 19 2 31 11 23 14 30 11 30 -2 0 1 3 5 6 l8 6 38 0 38 1 6
-6 6 -6 0 -66z m-696 51 c10 -9 3 -26 -10 -26 -8 0 -15 7 -15 15 0 13 16 20
25 11z m493 -7 c7 -4 15 -23 13 -33 -1 -7 -6 -14 -11 -15 -2 0 -4 -1 -6 -2 -4
-2 -21 -2 -28 1 -17 7 -17 43 -1 50 12 4 23 4 33 -1z m-1107 -11 c5 -5 6 -7 6
-16 0 -15 -8 -23 -23 -23 -9 0 -11 1 -16 7 -9 8 -9 23 -1 32 9 9 24 9 34 0z
m547 -45 c4 -4 9 -7 11 -9 8 -6 15 -15 15 -19 1 -9 0 -17 -2 -21 -5 -10 -1
-34 9 -45 5 -7 6 -9 6 -22 0 -15 -3 -22 -11 -24 -4 0 -20 -9 -26 -13 -3 -2 -8
-9 -11 -15 -5 -10 -5 -12 -5 -54 0 -45 -1 -48 -9 -56 -2 -2 -2 -2 -18 -4 -17
-1 -18 0 -17 25 0 12 -1 21 -3 26 -3 6 -38 42 -42 42 0 0 -3 4 -5 9 -5 10 -4
25 1 29 2 1 3 3 3 4 0 1 2 5 5 10 2 4 7 11 9 16 3 5 8 13 11 18 3 5 8 15 12
23 4 8 9 17 12 21 4 7 14 25 26 47 5 10 13 17 19 17 2 0 7 -2 10 -5z m-252 -5
c0 -1 1 -2 3 -2 6 0 12 -20 9 -33 -5 -17 -24 -25 -42 -18 -12 5 -18 21 -14 36
4 13 9 17 25 20 3 1 6 2 7 2 1 1 12 -3 12 -5z m-192 -32 c5 -5 5 -15 0 -20 -9
-9 -24 -2 -24 10 0 8 6 14 14 14 3 0 8 -2 10 -4z m6 -86 c9 -6 30 -26 33 -34
5 -11 3 -29 -4 -35 -8 -8 -27 -7 -39 1 -11 8 -32 9 -45 2 -17 -9 -31 -3 -31
13 0 10 5 15 22 23 8 3 16 9 33 28 8 8 20 9 31 2z m1325 0 c6 -4 10 -12 10
-24 0 -7 -1 -13 -2 -14 -3 -2 -2 -18 1 -27 1 -3 7 -11 13 -17 10 -9 11 -11 11
-19 0 -11 -6 -17 -17 -17 -5 0 -9 1 -10 2 -2 3 -28 9 -42 9 -11 0 -15 1 -17 4
-5 5 -5 5 2 20 10 20 11 29 8 45 -3 24 2 36 16 40 8 2 21 1 27 -2z m-1121 -42
c5 -6 5 -12 0 -18 -7 -8 -22 -2 -22 9 0 11 15 17 22 9z m785 -19 c12 -12 3
-31 -13 -31 -11 0 -18 7 -18 18 0 11 7 18 18 18 6 0 9 -1 13 -5z m173 -11 c3
-3 5 -6 4 -6 -1 0 -2 -3 -3 -7 -4 -21 -10 -33 -17 -32 -2 0 -10 6 -18 14 -19
17 -25 23 -31 25 -3 1 -3 2 0 2 2 0 3 1 2 2 -2 4 14 8 35 8 21 0 21 0 28 -6z
m-630 -35 c15 -7 18 -36 5 -46 -12 -11 -34 -11 -43 0 -9 10 -9 32 0 42 8 9 25
11 38 4z m517 -68 c-2 -32 -3 -39 -9 -45 -6 -6 -7 -6 -18 -6 -11 0 -12 0 -18
6 -5 5 -6 7 -6 18 0 10 1 13 7 21 4 6 9 11 11 13 2 2 5 6 7 8 2 3 7 6 11 8 7
3 7 3 11 -1 5 -3 5 -5 4 -22z m316 -13 c4 -6 4 -24 -1 -30 -7 -9 -27 -9 -34 0
-5 6 -5 24 0 30 7 9 27 9 35 0z m-415 -17 c5 -5 5 -5 2 -24 -1 -11 -1 -28 -1
-38 l1 -19 -6 -6 c-5 -5 -7 -6 -17 -6 -10 0 -12 1 -17 6 -8 8 -8 19 1 42 4 9
8 22 9 29 2 7 4 14 7 17 5 6 15 5 21 -1z m-748 -20 c21 -9 20 -45 -2 -54 -10
-5 -28 -1 -34 6 -9 10 -9 32 0 42 7 8 24 11 36 6z m-153 -6 c3 -3 3 -3 0 -6
-3 -3 -3 -3 -6 0 -3 2 -3 3 -1 6 4 4 4 4 7 0z m1058 -10 c5 -8 1 -16 -8 -16
-9 0 -13 8 -8 16 2 3 5 5 8 5 3 0 6 -2 8 -5z m-51 -60 c6 -2 14 -6 16 -8 l4
-5 -4 -8 c-13 -20 -17 -28 -22 -34 -3 -4 -6 -9 -7 -11 0 -3 -1 -3 -1 0 0 2 -1
3 -2 2 -4 -3 -8 13 -8 33 0 20 0 22 5 30 3 4 6 7 7 6 0 -1 6 -3 12 -5z m-488
-1 c5 -5 5 -15 0 -20 -9 -9 -24 -2 -24 10 0 8 6 14 14 14 3 0 8 -2 10 -4z
m-148 -16 c4 -5 4 -6 4 -50 -1 -47 0 -52 6 -65 6 -11 24 -28 32 -30 10 -3 27
-2 34 2 8 4 27 25 32 36 8 16 19 21 25 12 3 -4 3 -6 0 -16 -2 -7 -4 -14 -5
-16 -3 -8 -8 -22 -9 -30 -2 -10 -6 -18 -11 -21 -6 -3 -21 -3 -28 1 -13 7 -38
3 -50 -8 -7 -8 -24 -9 -35 -4 -8 4 -12 11 -16 32 -1 9 -5 20 -7 26 -6 12 -42
50 -70 71 -16 13 -44 33 -50 36 -4 3 -9 8 -11 11 -2 4 -5 7 -5 7 -1 0 0 2 3 5
3 3 5 6 5 7 0 0 34 1 76 0 l76 -1 4 -5z m-341 -14 c6 -8 4 -22 -5 -41 -4 -9
-10 -22 -12 -30 -5 -14 -9 -18 -18 -19 -14 -1 -17 0 -28 12 -10 10 -28 22 -28
19 0 0 -3 1 -7 2 -4 2 -9 3 -12 3 -12 0 -19 23 -9 33 8 8 23 7 32 -1 6 -7 7
-7 21 -6 17 0 23 5 27 19 1 5 3 10 5 11 8 7 27 6 34 -2z m1384 -14 c4 -1 14
-1 22 -1 14 1 15 1 20 -4 6 -6 7 -14 2 -27 -5 -13 -4 -26 3 -32 6 -7 13 -8 19
-3 5 4 7 4 7 0 0 -2 1 -3 2 -2 3 2 6 -9 4 -13 -1 -2 -4 -11 -6 -20 -3 -9 -7
-20 -9 -23 -3 -4 -5 -8 -5 -11 0 -2 -1 -4 -2 -5 -1 0 -3 -6 -4 -13 -4 -17 -8
-20 -29 -21 -24 0 -27 4 -19 26 3 9 3 11 1 19 -3 10 -8 20 -11 20 -1 0 -3 1
-5 3 -1 1 -9 5 -16 7 -8 2 -16 6 -18 8 l-5 4 10 10 c11 11 16 23 18 47 1 17 9
39 12 35 1 -1 5 -3 9 -4z m-1306 -3 c3 -2 10 -8 14 -13 4 -5 11 -12 16 -15 9
-6 15 -16 15 -23 0 -2 3 -11 6 -20 6 -16 10 -21 32 -40 17 -15 26 -24 26 -27
0 -1 1 -4 1 -6 3 -15 -44 -21 -70 -8 -15 8 -33 7 -47 -3 -17 -11 -18 -12 -22
-8 -11 11 -15 30 -10 40 3 5 30 21 32 19 1 -3 7 -4 5 -1 -1 1 0 2 1 3 2 0 2 2
0 6 -3 6 -7 22 -9 38 -1 5 -3 18 -5 30 -4 20 -4 22 -1 26 4 6 8 6 16 2z m1002
-25 c11 -5 33 -8 33 -4 0 7 10 -16 11 -24 1 -8 1 -10 -4 -15 -5 -6 -6 -6 -17
-4 -13 2 -23 0 -34 -7 -13 -9 -19 -7 -21 6 -1 4 -3 12 -5 17 -10 28 9 44 37
31z m-277 -7 c4 -2 11 -8 16 -13 5 -4 10 -8 10 -8 1 0 3 -4 5 -8 4 -8 3 -8 0
-12 -4 -4 -6 -4 -29 -4 -28 1 -34 2 -40 9 -5 7 -6 26 -1 33 8 10 26 12 39 3z
m-96 -14 c0 1 2 -1 4 -5 3 -5 4 -12 4 -26 0 -13 1 -23 3 -27 4 -9 14 -21 18
-21 2 0 3 -1 3 -2 0 -1 7 -3 18 -3 5 0 9 -2 13 -6 l6 -6 0 -34 0 -34 -6 -6 -6
-6 -63 1 -64 0 -6 6 c-5 5 -5 6 -4 15 3 13 2 33 -1 37 -1 2 -1 2 1 1 3 -2 3 1
0 5 -2 1 -2 2 -1 2 2 0 2 2 2 4 0 2 0 4 1 4 0 0 1 4 1 9 1 11 8 29 15 36 3 3
17 17 32 31 14 13 26 26 26 28 0 2 1 2 2 -1 1 -2 2 -3 2 -2z m-847 -80 c3 -5
3 -5 0 -10 -2 -3 -5 -5 -7 -5 -2 0 -5 2 -7 5 -3 5 -3 5 0 10 2 3 5 5 7 5 2 0
5 -2 7 -5z m727 -10 c5 -6 5 -19 -1 -25 -5 -6 -18 -5 -24 0 -7 6 -7 19 -1 25
7 7 20 7 26 0z m493 -11 c2 -3 3 -6 3 -7 0 -4 -7 -11 -11 -11 -4 0 -11 7 -11
11 0 5 6 11 11 11 3 0 6 -2 8 -4z m-1033 -46 c0 -2 0 -4 0 -4 0 -1 1 -3 3 -4
7 -6 0 -20 -10 -20 -6 0 -13 7 -13 13 0 9 20 24 20 15z m-98 -11 c-4 -4 -5 -4
-11 -3 -4 1 -8 2 -9 1 -1 0 -7 -1 -14 -1 -7 0 -15 -1 -18 -2 -4 -1 -6 0 -10 3
l-4 4 4 4 c4 4 5 4 11 3 4 -1 8 -2 9 -1 1 0 7 1 14 1 7 0 15 1 18 2 4 1 6 0
10 -3 l4 -4 -4 -4z m475 -38 c12 -7 14 -33 3 -43 -8 -9 -32 -9 -40 0 -9 8 -9
32 0 41 7 7 27 8 37 2z m132 -28 c4 -4 5 -7 5 -15 0 -14 -6 -20 -20 -20 -14 0
-20 6 -20 20 0 14 6 20 20 20 8 0 11 -1 15 -5z m255 -24 c11 -6 15 -23 8 -33
-2 -3 -8 -7 -13 -10 -13 -6 -20 -13 -26 -25 -5 -10 -5 -13 -5 -29 1 -18 1 -19
-5 -25 l-6 -6 -77 1 -77 0 -5 6 c-4 4 -5 6 -4 11 2 6 2 9 6 34 2 10 4 15 8 19
l6 6 57 0 c59 0 65 1 76 9 6 5 19 27 19 32 0 3 10 12 15 13 6 2 17 0 23 -3z
m-728 -6 c3 -3 4 -7 4 -14 0 -13 -6 -19 -19 -19 -13 0 -19 6 -19 19 0 7 1 11
4 14 7 8 23 8 30 0z m1300 -43 c3 -3 5 -6 4 -6 -1 0 -1 -1 -1 -2 0 -6 -7 -33
-10 -36 -4 -5 -19 -13 -32 -17 -7 -2 -13 -5 -13 -6 -1 -1 -2 -1 -2 1 0 1 -2 4
-5 6 l-6 3 0 26 0 26 6 6 6 6 23 -1 c23 0 24 0 30 -6z m-482 -28 c5 -5 6 -7 6
-17 0 -10 -1 -12 -6 -17 -5 -5 -7 -6 -17 -6 -10 0 -12 1 -17 6 -5 5 -6 7 -6
17 0 10 1 12 6 17 5 5 7 6 17 6 10 0 12 -1 17 -6z m339 -3 c3 -5 3 -5 0 -10
-2 -3 -5 -5 -7 -5 -2 0 -5 2 -7 5 -3 5 -3 5 0 10 2 3 5 5 7 5 2 0 5 -2 7 -5z
m-716 -69 c4 -6 4 -24 -1 -30 -7 -9 -27 -9 -34 0 -5 6 -5 24 0 30 7 9 27 9 35
0z m-506 -47 c13 -9 27 -13 42 -13 7 0 10 -1 13 -4 15 -17 -14 -33 -41 -23 -6
2 -13 6 -16 9 -3 2 -7 4 -8 4 -1 0 -6 3 -11 7 -9 8 -10 15 -4 23 5 6 13 5 25
-3z m423 -21 c5 -6 5 -7 -2 -35 -4 -17 -7 -24 -10 -27 -5 -4 -5 -4 -9 0 -4 3
-4 5 -3 23 1 11 2 23 2 27 0 14 14 21 22 12z m479 -3 c12 -7 14 -33 3 -43 -8
-9 -32 -9 -40 0 -9 8 -9 32 0 41 7 7 27 8 37 2z m451 -21 l55 0 8 -6 c4 -3 7
-6 5 -6 -1 0 -8 -9 -16 -20 -8 -11 -18 -25 -23 -31 -4 -5 -10 -14 -14 -19 -8
-13 -19 -18 -40 -20 -16 -1 -16 -1 -22 5 -6 6 -6 7 -5 23 0 25 -7 36 -25 39
-11 2 -15 2 -24 -2 -18 -6 -39 -5 -45 3 -5 6 -5 22 -1 30 5 8 21 16 35 18 12
1 15 0 35 -6 l22 -8 55 0z m-779 3 c17 -13 20 -13 100 -13 l72 1 6 -6 6 -6 0
-35 0 -35 -6 -6 -6 -6 -109 1 -109 1 -7 5 c-3 3 -5 6 -5 6 0 1 -1 7 -2 14 -6
26 -4 30 19 49 6 5 12 12 15 18 5 9 13 19 16 19 1 0 5 -3 10 -7z m913 -62 c5
-4 5 -9 1 -15 -4 -6 -13 -5 -17 2 -6 11 7 21 16 13z m-1451 -14 c6 -4 6 -6 6
-20 0 -14 0 -16 -6 -20 -4 -4 -7 -5 -18 -5 -11 0 -14 1 -18 5 -6 4 -6 6 -6 20
0 14 0 16 6 20 4 4 7 5 18 5 11 0 14 -1 18 -5z m5 -349 c5 -5 5 -15 0 -20 -9
-9 -24 -2 -24 10 0 8 6 14 14 14 3 0 8 -2 10 -4z"/>
<path d="M65 3664 c-13 -3 -27 -10 -33 -16 -20 -25 -10 -57 25 -78 14 -8 36
-11 46 -5 35 20 38 23 39 44 l0 14 -16 15 c-9 8 -19 16 -23 19 -5 3 -26 9 -29
9 -1 0 -5 -1 -9 -2z"/>
</g>
</svg>
