<?xml version="1.0" standalone="no"?>
<!DOCTYPE svg PUBLIC "-//W3C//DTD SVG 20010904//EN"
 "http://www.w3.org/TR/2001/REC-SVG-20010904/DTD/svg10.dtd">
<svg version="1.0" xmlns="http://www.w3.org/2000/svg"
 width="1100.000000pt" height="2850.000000pt" viewBox="0 0 1100.000000 2850.000000"
 preserveAspectRatio="xMidYMid meet">
<metadata>
Created by potrace 1.15, written by Peter Selinger 2001-2017
</metadata>
<g transform="translate(0.000000,2850.000000) scale(0.500000,-0.500000)"
fill="#000000" stroke="none">
<path d="M932 3808 c-34 -3 -41 -13 -41 -53 0 -26 3 -35 13 -40 8 -4 11 -4 80
-3 27 1 59 1 71 0 34 -3 52 -4 53 -5 3 -2 31 -4 52 -3 l26 0 20 -10 c12 -5 30
-13 41 -16 63 -20 114 -41 160 -66 38 -21 92 -56 110 -71 3 -2 7 -6 10 -8 3
-2 7 -5 8 -6 1 -1 11 -10 22 -19 11 -10 26 -23 33 -30 7 -7 16 -15 19 -17 10
-7 25 -24 34 -37 5 -7 10 -15 12 -17 8 -8 49 -64 51 -69 3 -6 7 -8 22 -8 15
-1 15 0 24 9 10 9 15 13 21 16 17 10 17 38 1 55 -2 2 -6 8 -10 14 -4 6 -9 13
-11 15 -2 2 -9 10 -15 18 -39 51 -135 144 -165 160 -2 1 -8 5 -12 8 -5 3 -10
5 -11 5 -1 0 -2 1 -2 2 0 1 -1 2 -2 2 -2 0 -6 3 -18 14 -4 3 -12 9 -18 13 -6
4 -13 9 -16 11 -3 2 -6 4 -7 4 0 0 -6 3 -11 7 -6 3 -15 8 -19 10 -4 3 -17 9
-29 15 -12 6 -25 13 -31 15 -5 3 -19 9 -30 14 -26 11 -33 12 -57 7 -28 -7 -27
-7 -50 18 -7 9 -24 19 -33 21 -6 1 -24 -3 -37 -10 -22 -12 -29 -11 -46 8 -16
17 -26 22 -46 24 -7 1 -15 2 -18 2 -9 2 -131 3 -148 1z"/>
<path d="M735 3773 c-36 -10 -82 -27 -110 -40 -9 -4 -20 -9 -24 -11 -28 -11
-92 -47 -136 -76 -8 -6 -42 -31 -43 -32 -1 0 -5 -5 -11 -9 -5 -4 -14 -11 -18
-15 -4 -4 -13 -11 -19 -16 -19 -16 -22 -19 -25 -26 -4 -10 -4 -25 0 -39 6 -24
-4 -40 -25 -39 -17 1 -41 1 -44 0 -7 -3 -14 -7 -18 -13 -3 -4 -8 -10 -12 -15
-13 -15 -25 -34 -48 -68 -6 -9 -12 -19 -14 -22 -2 -3 -4 -6 -4 -7 0 0 -4 -8
-10 -18 -34 -59 -70 -146 -90 -219 -7 -26 -8 -37 -2 -49 2 -4 5 -13 6 -18 2
-10 2 -11 -2 -20 -4 -8 -4 -12 -4 -25 1 -8 2 -15 3 -16 5 -3 9 -11 9 -18 0
-11 6 -34 13 -48 6 -10 6 -14 3 -24 -3 -11 -10 -18 -28 -30 -18 -13 -18 -13
-25 -24 -6 -9 -6 -10 -6 -32 1 -28 4 -64 7 -74 5 -15 26 -27 45 -26 8 0 15 -7
15 -15 0 -7 -5 -12 -19 -19 -22 -10 -28 -23 -22 -48 1 -8 3 -16 4 -18 0 -2 2
-9 4 -16 5 -21 24 -77 36 -106 21 -50 63 -131 74 -143 9 -9 27 -12 43 -8 18 4
34 2 39 -4 3 -3 5 -6 5 -7 0 -7 -6 -33 -9 -36 -5 -5 -9 -17 -10 -26 -1 -8 2
-20 5 -22 1 -1 3 -3 4 -6 7 -10 29 -33 60 -64 36 -36 39 -38 64 -59 9 -8 17
-14 18 -15 2 -3 41 -31 46 -34 3 -2 6 -4 6 -4 0 -1 1 -2 2 -2 1 0 8 -4 15 -9
27 -19 99 -58 111 -60 4 -1 14 0 25 3 9 2 19 4 21 4 5 0 12 -7 17 -16 6 -12
16 -24 23 -28 10 -6 65 -23 92 -29 28 -6 71 -15 80 -16 6 -1 13 -1 16 -2 8 -1
40 -5 53 -6 35 -3 105 -3 129 0 13 2 33 3 44 3 10 0 25 1 32 2 7 1 17 3 21 3
15 2 52 9 64 12 13 4 17 5 25 6 5 1 16 5 55 16 9 3 25 9 37 13 12 4 26 10 32
12 20 8 29 22 31 50 1 7 2 15 3 17 3 7 12 11 25 11 9 0 12 -1 22 -8 10 -8 13
-9 26 -10 12 0 15 0 20 4 10 8 12 16 12 44 0 25 0 26 5 30 8 6 23 5 38 -2 14
-7 27 -9 36 -6 7 2 9 5 24 27 4 5 10 12 15 15 10 7 17 18 22 34 5 15 9 19 20
19 22 1 33 5 45 18 20 21 61 72 75 95 3 5 6 9 7 10 1 1 8 11 15 23 13 21 14
22 14 34 0 7 -2 16 -5 23 -5 13 -5 25 -1 31 2 3 9 6 17 9 34 10 38 14 60 70 3
8 10 28 15 44 10 29 10 29 10 55 0 25 0 27 -6 37 -3 5 -5 10 -4 10 1 0 0 2 -2
5 -2 3 -3 5 -2 5 1 0 0 1 -2 3 -4 5 -20 4 -23 -1 -1 -2 -2 -5 -1 -6 1 -2 1 -2
-1 -1 -2 1 -3 -11 -2 -25 0 -6 -6 -34 -11 -44 -3 -9 -9 -13 -19 -14 -3 0 -10
-1 -15 -3 -4 -2 -9 -3 -11 -3 -2 -1 -7 -6 -14 -15 0 -1 -6 -14 -12 -29 -6 -15
-16 -39 -23 -54 -7 -15 -13 -29 -13 -31 0 -3 -2 -11 -4 -18 -4 -12 -6 -15 -19
-28 -8 -8 -18 -20 -23 -26 -8 -13 -42 -59 -49 -66 -2 -2 -7 -9 -12 -15 -5 -7
-10 -12 -11 -12 -2 0 -12 -19 -19 -37 -7 -17 -7 -17 -22 -23 -29 -11 -36 -16
-54 -31 -3 -2 -7 -6 -11 -9 -4 -3 -8 -6 -9 -7 -1 -1 -5 -4 -9 -7 -4 -3 -11 -8
-16 -12 -12 -10 -94 -58 -120 -70 -46 -22 -124 -50 -161 -58 -16 -4 -55 -11
-73 -15 -23 -4 -32 -9 -47 -26 -15 -17 -25 -21 -47 -21 -19 0 -27 3 -40 15
-10 10 -23 18 -33 20 -2 1 -14 2 -27 3 -86 6 -161 22 -241 51 -55 20 -134 60
-177 90 -5 4 -13 8 -17 9 -7 2 -43 3 -47 1 -2 -1 -14 5 -17 9 -1 3 -3 10 -4
15 -2 13 -6 29 -9 35 -2 3 -17 20 -34 37 -32 34 -41 43 -51 56 -3 4 -7 9 -8
10 -1 1 -4 5 -7 9 -9 12 -14 16 -20 17 -10 3 -18 15 -23 34 -1 9 -7 20 -16 35
-17 28 -41 76 -55 110 -11 26 -14 32 -27 45 -16 16 -16 17 -14 51 1 15 1 25
-1 31 -1 6 -3 12 -3 15 -1 3 -3 16 -6 29 -3 13 -5 28 -6 33 -1 5 -2 15 -3 23
-4 28 -6 59 -7 97 -1 36 -2 57 -4 60 0 1 1 6 2 13 2 7 5 28 7 48 5 41 5 39 11
72 3 13 5 27 6 29 3 17 20 76 30 102 17 48 44 107 65 142 15 24 29 46 35 55 3
5 9 13 13 18 4 6 11 15 16 21 5 6 11 15 15 19 3 4 11 13 16 19 6 6 12 13 14
16 3 3 13 13 22 23 10 9 20 20 21 23 3 8 0 35 -6 41 -3 3 -2 12 2 17 5 6 12 5
26 -3 11 -6 15 -8 25 -8 11 0 13 1 24 9 17 13 40 29 66 45 12 7 25 16 28 19 7
5 17 21 17 24 0 1 1 2 2 2 1 0 2 1 2 3 0 1 3 4 6 7 6 4 7 4 22 3 25 -3 32 -2
58 8 43 16 91 31 129 38 40 8 43 10 44 33 l1 13 -10 9 c-12 9 -30 15 -45 16
-5 0 -11 1 -13 2 -8 5 -30 10 -38 10 -5 0 -16 -2 -25 -5z"/>
<path d="M1237 3417 c-11 -2 -21 -4 -23 -5 -2 -1 -4 -2 -4 -1 0 1 -18 -5 -27
-9 -25 -10 -55 -27 -67 -38 -2 -2 -5 -4 -6 -4 -2 0 -36 -34 -45 -45 -14 -17
-16 -19 -24 -34 -4 -8 -9 -17 -12 -21 -2 -4 -5 -10 -7 -13 -1 -3 -4 -7 -6 -9
-8 -9 -31 -64 -42 -106 -7 -27 -19 -79 -21 -97 -6 -54 -6 -56 -8 -85 -2 -29
-2 -141 0 -173 1 -28 3 -37 6 -41 1 -1 2 -13 2 -26 0 -21 8 -69 15 -93 1 -3 4
-13 6 -22 7 -26 17 -54 26 -74 22 -51 37 -75 48 -80 8 -3 22 -17 22 -21 0 -1
2 -7 4 -13 9 -24 61 -64 107 -82 53 -21 99 -24 163 -10 10 2 23 12 28 21 4 9
6 27 2 29 -2 2 -8 25 -8 34 0 11 7 17 18 17 11 0 21 -5 35 -20 5 -5 10 -9 11
-9 1 1 2 0 3 -1 2 -3 21 -3 28 0 6 2 19 15 29 28 3 4 7 10 10 13 3 3 7 8 8 11
2 3 3 5 4 6 1 1 5 8 10 16 49 80 79 188 87 318 2 30 2 135 0 169 -5 98 -25
192 -54 257 -8 18 -23 46 -28 55 -3 4 -6 11 -8 15 -2 3 -4 6 -5 6 -1 0 -2 1
-2 3 0 4 -16 21 -23 24 -7 4 -32 11 -38 11 -9 0 -14 8 -21 29 -8 26 -13 33
-36 44 -30 15 -41 18 -52 15 -11 -3 -17 -8 -22 -19 -3 -4 -7 -10 -9 -13 -5 -4
-5 -4 -7 0 -1 2 -2 6 -3 8 -4 21 -12 32 -25 36 -9 2 -16 2 -39 -1z m64 -92
c21 -31 26 -43 28 -70 1 -9 3 -24 4 -34 4 -24 8 -66 10 -87 1 -9 2 -21 2 -27
1 -5 2 -21 2 -34 1 -13 2 -32 2 -42 1 -10 2 -26 3 -35 1 -9 1 -21 1 -27 -1 -5
-1 -67 -2 -137 -1 -70 -2 -131 -2 -136 0 -5 -1 -22 -2 -39 -1 -16 -2 -34 -2
-38 0 -4 -1 -16 -2 -26 -1 -10 -2 -21 -2 -24 0 -3 -2 -16 -3 -28 -3 -25 -2
-24 -8 -54 -8 -44 -19 -78 -30 -90 -8 -9 -25 -12 -38 -6 -7 2 -22 21 -22 27 0
2 -19 21 -31 32 -15 13 -16 27 -3 55 9 20 10 28 8 50 -1 10 -2 23 -3 29 -1 12
-5 25 -8 27 -1 0 -9 1 -18 1 -16 1 -16 1 -17 -4 -2 -13 -18 -24 -33 -24 -19 0
-24 10 -24 44 0 32 6 41 28 41 15 0 22 -5 27 -17 2 -6 4 -10 4 -8 0 2 3 3 15
2 21 -1 21 1 20 37 -1 37 -4 45 -24 60 -9 7 -10 7 -21 6 -10 -1 -34 -12 -36
-17 -1 -3 -12 -2 -15 1 -2 2 -6 9 -8 17 -8 25 -12 30 -30 39 -16 8 -21 19 -13
29 4 5 13 5 36 0 9 -2 22 -5 28 -6 7 -1 18 -5 26 -9 25 -13 40 -9 50 13 3 8 4
13 4 54 0 31 -1 49 -3 58 -4 17 -4 30 0 44 4 14 5 25 6 59 3 73 4 86 10 154 1
6 2 13 2 14 1 1 2 17 2 35 0 37 -1 32 18 68 17 30 17 30 39 37 12 3 15 1 25
-14z m103 -342 c-4 -5 -5 -5 -8 -2 -5 4 -5 7 -1 11 4 4 4 4 8 0 l5 -5 -4 -4z
m-370 -8 c14 -9 22 -27 15 -34 -6 -6 -9 -6 -17 -2 -6 3 -9 7 -13 14 -11 21 -2
34 15 22z m491 -48 c12 -12 3 -31 -13 -31 -11 0 -18 7 -18 18 0 11 7 18 18 18
6 0 9 -1 13 -5z m-512 -177 c10 -9 3 -26 -10 -26 -8 0 -15 7 -15 15 0 13 16
20 25 11z m415 -242 c5 -5 5 -11 0 -16 -10 -10 -27 5 -16 16 4 4 12 4 16 0z
m-315 -39 c7 -7 7 -19 0 -26 -3 -3 -6 -5 -7 -5 -12 -1 -18 -1 -18 0 0 1 -2 2
-5 4 -4 2 -4 3 -3 11 3 16 8 21 21 21 5 0 9 -1 12 -5z"/>
<path d="M752 3415 c-1 -1 -5 -2 -10 -3 -5 -1 -18 -4 -29 -7 -11 -3 -22 -6
-25 -6 -3 -1 -8 -2 -11 -3 -7 -2 -60 -16 -67 -17 -3 -1 -9 -4 -14 -7 -13 -7
-17 -16 -17 -39 0 -11 -2 -22 -4 -28 -4 -11 -3 -30 2 -44 3 -7 3 -9 0 -14 -3
-6 -1 -29 2 -38 4 -8 20 -8 46 1 17 5 23 6 32 5 17 -1 17 -1 17 -4 0 -3 6 -7
11 -7 3 0 12 -4 21 -8 24 -12 34 -11 68 6 17 8 27 20 27 32 0 5 -9 18 -12 18
-2 0 -3 1 -3 2 0 2 -23 8 -28 8 -1 0 -7 0 -11 1 -11 2 -31 -2 -43 -9 -9 -6
-13 -7 -24 -7 l-13 0 -4 8 c-7 11 -6 31 1 38 4 4 6 4 33 4 28 0 28 0 41 7 8 4
16 6 20 6 9 0 27 5 34 10 19 14 18 67 -2 85 -8 7 -35 14 -38 10z"/>
<path d="M470 3343 c-3 -2 -9 -4 -14 -6 -10 -4 -21 -13 -27 -21 -2 -4 -3 -6
-2 -6 0 0 -1 -4 -2 -9 -2 -6 -2 -9 -1 -10 1 -1 2 -2 1 -3 -2 -2 0 -3 20 -2 13
0 15 0 15 -3 0 -2 1 -1 2 4 3 7 9 14 19 16 3 1 6 3 6 4 1 2 2 2 3 2 1 -1 2 6
2 17 l0 19 -9 0 c-4 1 -10 -1 -13 -2z"/>
<path d="M1804 3308 c-3 -1 -8 -3 -10 -5 -3 -2 -7 -3 -10 -3 -8 0 -25 -11 -29
-19 -3 -4 -4 -24 -1 -25 0 -1 4 -7 7 -14 8 -18 8 -18 24 -18 17 0 19 0 26 10
3 4 10 11 16 14 13 8 19 19 20 33 0 5 0 9 -1 9 -1 0 -2 3 -4 7 -1 4 -4 7 -8 9
-7 3 -24 4 -30 2z"/>
<path d="M1849 3203 c-1 -2 -33 -5 -33 -3 0 2 -9 1 -14 -2 -8 -5 -11 -26 -6
-39 13 -32 30 -98 39 -144 2 -12 7 -49 10 -72 4 -38 6 -42 27 -47 9 -2 16 -3
17 -2 3 3 16 2 19 -1 1 -2 3 -3 4 -2 0 0 5 1 11 2 13 2 16 4 21 12 3 7 3 8 0
18 -3 11 -11 22 -21 29 -6 5 -11 13 -11 20 0 6 7 21 13 28 13 16 9 55 -8 68
-6 5 -24 12 -32 13 -11 2 -19 10 -19 19 -1 14 0 16 14 30 12 12 14 15 16 25 4
20 -8 43 -24 46 -17 3 -21 3 -23 2z"/>
<path d="M660 3142 c-9 -4 -17 -11 -24 -22 -7 -11 -14 -15 -27 -15 -15 0 -27
8 -27 18 0 3 -1 3 -2 2 0 -2 -7 -3 -16 -3 -12 -1 -16 -1 -18 -5 -3 -4 -4 -30
-4 -316 -1 -309 -1 -312 3 -321 2 -4 5 -8 6 -7 2 0 3 0 3 -1 1 -1 6 -3 13 -4
9 -2 12 -2 14 1 2 2 23 10 35 12 3 0 6 1 7 1 15 3 25 -5 25 -19 0 -18 -7 -22
-32 -22 -20 0 -36 3 -37 6 -1 3 -21 0 -29 -5 -4 -2 -10 -11 -10 -16 0 -2 -3
-5 -7 -8 -6 -5 -8 -6 -45 -9 -33 -3 -40 -4 -49 -8 -19 -9 -28 -27 -21 -43 3
-8 13 -20 17 -20 2 0 3 -1 3 -2 0 -2 10 -3 45 -3 l34 0 10 6 c5 3 12 9 15 13
3 4 6 8 8 9 2 0 5 2 7 3 2 2 4 2 7 0 1 -1 4 -3 6 -3 2 -1 5 -5 8 -9 3 -4 10
-10 15 -13 9 -5 12 -6 33 -7 35 -1 42 4 46 29 1 6 1 12 0 12 -1 1 -2 6 -2 12
0 17 7 23 26 21 9 -1 12 -4 19 -18 14 -29 24 -40 43 -49 l11 -6 57 0 c35 0 61
1 67 2 19 5 32 25 26 42 -4 15 -23 29 -42 30 -64 5 -61 5 -67 12 l-7 6 -1 293
c0 292 0 293 -5 301 -2 4 -5 7 -6 7 -2 0 -3 1 -3 2 0 3 -16 6 -33 6 -23 0 -26
3 -30 27 -2 10 -3 19 -4 20 -4 15 -6 20 -13 31 -12 19 -27 32 -36 32 -4 0 -9
-1 -12 -2z m-19 -546 c11 -10 3 -28 -11 -28 -9 0 -16 6 -16 16 0 14 17 22 27
12z m80 -67 c3 -5 3 -5 -2 -11 l-5 -5 -5 5 c-5 6 -5 6 -2 11 2 3 5 5 7 5 2 0
5 -2 7 -5z m5 -62 c4 -5 4 -5 1 -10 -2 -3 -5 -5 -7 -5 -2 0 -5 2 -7 5 -3 5 -3
5 1 10 3 3 5 5 6 5 1 0 3 -2 6 -5z"/>
<path d="M763 3121 c0 -11 0 -18 0 -14 1 5 1 5 18 5 l16 1 -16 0 -17 1 -1 14
c0 9 0 7 0 -7z"/>
<path d="M766 3119 c0 -2 4 -3 17 -3 15 -1 16 -1 15 3 -3 4 -32 5 -32 0z"/>
<path d="M1882 2865 c-1 0 -4 -1 -8 -2 -18 -3 -24 -14 -25 -46 0 -13 -2 -35
-3 -49 -4 -40 -4 -42 6 -64 4 -7 9 -19 12 -27 l5 -14 15 1 c13 0 16 1 20 5 2
3 7 6 11 8 9 5 17 13 21 22 8 17 7 27 -5 57 -5 15 -5 15 -3 30 4 23 2 42 -4
46 -1 1 -4 5 -8 11 -3 5 -6 9 -6 8 0 -1 -9 4 -16 10 -5 5 -10 6 -12 4z"/>
</g>
</svg>
