<?xml version="1.0" standalone="no"?>
<!DOCTYPE svg PUBLIC "-//W3C//DTD SVG 20010904//EN"
 "http://www.w3.org/TR/2001/REC-SVG-20010904/DTD/svg10.dtd">
<svg version="1.0" xmlns="http://www.w3.org/2000/svg"
 width="1100.000000pt" height="2850.000000pt" viewBox="0 0 1100.000000 2850.000000"
 preserveAspectRatio="xMidYMid meet">
<metadata>
Created by potrace 1.15, written by Peter Selinger 2001-2017
</metadata>
<g transform="translate(0.000000,2850.000000) scale(0.500000,-0.500000)"
fill="#000000" stroke="none">
<path d="M1273 3240 c-15 -2 -35 -11 -56 -26 -30 -21 -52 -28 -111 -37 -4 -1
-29 -5 -56 -10 -56 -10 -64 -13 -82 -31 -14 -14 -18 -17 -31 -17 -7 0 -14 2
-25 8 -18 8 -32 12 -38 9 -10 -3 -20 -15 -21 -24 0 -1 -1 -2 -2 -3 0 -2 -2 -7
-2 -12 -2 -13 -7 -19 -17 -19 -9 0 -13 4 -21 20 -7 13 -14 21 -25 24 -9 2 -24
2 -25 0 -1 -1 -3 -2 -5 -2 -7 0 -17 -12 -22 -27 -6 -18 -9 -21 -14 -16 -2 2
-6 9 -9 15 -8 18 -17 23 -44 25 -33 2 -60 9 -83 21 -11 5 -28 17 -32 22 -5 6
-17 10 -28 10 -14 -1 -18 -5 -25 -19 -15 -32 -12 -92 7 -132 15 -31 44 -67 73
-90 6 -4 10 -9 11 -9 1 -1 9 -6 18 -12 27 -18 66 -35 88 -39 40 -6 61 -1 115
30 29 16 46 24 85 37 39 12 141 42 163 47 2 1 17 4 33 8 15 4 30 8 33 8 4 1
18 4 29 6 3 1 9 2 14 2 5 1 19 4 31 7 28 8 43 8 50 1 6 -4 6 -6 6 -20 0 -14 0
-16 -6 -20 -4 -4 -8 -5 -15 -5 -24 0 -46 -11 -53 -28 -1 -4 -9 -21 -16 -39 -7
-18 -22 -50 -33 -71 l-19 -39 0 -28 c-1 -33 -1 -33 -22 -45 -9 -4 -19 -10 -22
-13 -3 -3 -10 -6 -16 -8 -10 -4 -11 -4 -49 8 -13 4 -26 8 -34 10 -2 1 -11 3
-21 6 -10 3 -20 5 -22 6 -2 0 -16 4 -30 8 -47 12 -78 19 -153 34 -47 10 -66
13 -73 13 -10 0 -23 -6 -31 -13 -6 -5 -6 -7 -6 -17 1 -19 7 -26 36 -41 8 -5
20 -12 27 -15 7 -4 16 -10 21 -12 23 -14 107 -68 131 -86 6 -4 19 -14 30 -22
11 -8 20 -15 21 -16 1 -1 6 -5 13 -10 19 -15 23 -24 13 -38 -11 -17 -93 -101
-134 -138 -22 -20 -25 -23 -34 -31 -8 -7 -51 -43 -64 -53 -5 -4 -9 -8 -11 -9
-2 -3 -56 -43 -67 -51 -29 -21 -97 -67 -125 -85 -7 -4 -19 -12 -27 -17 -8 -5
-19 -12 -24 -15 -10 -5 -22 -12 -29 -17 -2 -1 -5 -3 -7 -3 -2 -1 -10 -6 -19
-11 -8 -4 -22 -12 -30 -16 -30 -16 -34 -18 -39 -23 -10 -10 -13 -25 -8 -36 5
-10 31 -17 48 -13 23 7 82 25 113 35 21 7 39 13 41 14 13 4 85 31 105 40 81
35 131 58 174 82 9 4 22 12 30 16 8 4 19 11 26 15 7 4 15 9 19 11 4 2 10 6 14
8 6 4 66 43 73 47 14 10 50 37 51 38 1 1 4 3 8 6 4 3 8 6 9 7 2 1 5 4 8 6 3 3
8 6 10 8 3 2 12 10 20 17 9 7 19 16 24 20 14 14 28 12 41 -3 4 -4 8 -9 10 -11
2 -2 8 -9 14 -16 6 -7 12 -14 13 -16 2 -1 7 -8 12 -15 6 -6 11 -13 12 -15 9
-10 22 -29 36 -49 9 -13 17 -25 18 -26 1 -1 5 -6 9 -12 4 -5 7 -10 8 -11 1 -1
6 -7 12 -15 6 -7 14 -15 18 -17 11 -5 29 -9 41 -7 5 1 19 1 31 1 22 0 30 -3
32 -11 0 -2 1 -4 2 -5 1 -1 3 -5 5 -9 5 -11 10 -17 20 -21 15 -7 21 -6 50 8
33 16 57 45 69 84 7 21 7 65 0 96 -5 24 -17 56 -29 79 -8 16 -30 50 -35 55 -2
2 -7 9 -12 15 -11 14 -49 54 -65 67 -17 15 -29 25 -33 27 -2 1 -5 3 -7 6 -2 2
-16 11 -30 21 -14 9 -27 19 -28 21 -5 7 -3 19 5 29 4 5 14 18 21 29 8 11 14
20 15 21 4 3 81 121 99 151 4 7 9 16 12 20 3 4 6 11 8 14 2 3 8 11 13 18 9 11
12 17 15 23 2 4 11 12 13 12 1 0 2 1 2 2 1 0 5 4 11 7 11 6 34 29 42 41 22 32
22 58 3 95 -16 31 -32 45 -63 54 -5 2 -13 11 -13 15 0 2 -2 6 -5 9 -4 5 -6 5
-21 5 -15 0 -16 0 -20 -6 -11 -15 -42 -14 -49 1 -5 8 -5 25 0 32 8 12 6 41 -3
48 -8 6 -53 25 -67 29 -21 5 -26 6 -40 4z m110 -186 c2 0 5 -2 8 -4 4 -4 6
-10 11 -29 3 -13 7 -24 8 -25 1 0 2 -2 2 -4 3 -7 33 -21 48 -22 1 0 5 -3 8 -6
5 -5 6 -7 6 -18 0 -19 -6 -26 -24 -25 -12 1 -13 1 -28 16 -11 11 -36 27 -40
25 -3 0 -11 12 -17 25 -14 31 -15 33 -15 44 0 11 4 18 12 22 5 2 9 2 21 1z
m-191 -341 c21 -9 20 -45 -2 -54 -10 -5 -28 -1 -34 6 -9 10 -9 32 0 42 7 8 24
11 36 6z m234 -367 c12 -12 -4 -32 -19 -23 -11 7 -4 27 9 27 3 0 8 -2 10 -4z
m-490 -14 c5 -6 5 -12 0 -18 -7 -8 -22 -2 -22 9 0 11 15 17 22 9z"/>
</g>
</svg>
