<?xml version="1.0" standalone="no"?>
<!DOCTYPE svg PUBLIC "-//W3C//DTD SVG 20010904//EN"
 "http://www.w3.org/TR/2001/REC-SVG-20010904/DTD/svg10.dtd">
<svg version="1.0" xmlns="http://www.w3.org/2000/svg"
 width="1100.000000pt" height="2850.000000pt" viewBox="0 0 1100.000000 2850.000000"
 preserveAspectRatio="xMidYMid meet">
<metadata>
Created by potrace 1.15, written by Peter Selinger 2001-2017
</metadata>
<g transform="translate(0.000000,2850.000000) scale(0.500000,-0.500000)"
fill="#000000" stroke="none">
<path d="M1458 3844 c-7 -1 -13 -15 -16 -32 -2 -16 -5 -19 -27 -25 -25 -7 -31
-11 -48 -33 -19 -22 -21 -29 -21 -50 1 -13 0 -17 -3 -20 -3 -4 -4 -4 -9 0 -4
2 -9 8 -13 13 -4 7 -9 12 -17 16 -11 5 -11 5 -49 5 -42 0 -48 -1 -57 -11 -6
-7 -14 -26 -14 -35 0 -12 -13 -19 -28 -16 -8 2 -14 8 -14 16 0 9 -8 29 -14 35
-4 4 -10 8 -14 9 -5 2 -90 2 -349 2 l-342 -1 -19 -9 c-10 -6 -21 -10 -24 -10
-3 0 -14 4 -24 9 -37 18 -63 12 -70 -17 -2 -9 -2 -11 5 -35 9 -31 15 -44 26
-51 14 -10 19 -10 85 -10 l61 1 10 5 c6 3 14 9 18 14 11 11 18 15 30 15 12 0
19 -4 30 -15 4 -5 13 -11 18 -14 l10 -5 81 -1 c55 0 85 0 93 2 18 3 36 4 52 1
21 -4 261 -4 279 0 7 2 19 3 27 3 8 0 20 -1 27 -3 9 -2 27 -3 63 -3 45 0 50 0
59 4 7 3 10 6 13 12 1 4 3 9 3 10 0 2 15 8 20 8 2 0 10 -6 18 -14 17 -17 27
-21 44 -19 6 0 15 2 18 4 30 13 39 16 57 16 16 0 19 -1 30 -7 25 -13 31 -14
64 -14 24 0 30 -1 35 -3 7 -5 11 -9 8 -9 -1 0 -4 -2 -7 -5 -2 -4 -7 -10 -12
-14 -7 -9 -7 -9 -7 -22 1 -11 2 -14 7 -19 3 -3 7 -6 8 -6 1 0 4 -1 5 -3 1 -2
3 -3 4 -2 1 1 4 -1 7 -4 10 -8 9 -37 -1 -41 -3 -1 -4 -2 -2 -2 1 0 2 -4 2 -13
-1 -23 6 -26 53 -25 32 1 32 1 42 7 9 5 11 8 19 25 11 21 15 25 31 25 16 0 20
-4 31 -25 8 -17 10 -20 19 -25 l10 -6 42 0 c45 -1 55 0 75 8 17 6 35 23 42 38
8 16 2 36 -14 50 -20 16 -22 18 -38 22 -11 3 -13 3 -22 -1 -6 -2 -14 -7 -19
-10 -18 -15 -27 -18 -35 -10 -8 8 -5 17 9 35 5 6 6 10 7 20 0 9 0 13 -2 13 -1
0 -2 1 -2 3 0 4 -18 19 -42 36 -21 15 -38 27 -43 31 -1 0 -11 7 -22 15 -18 13
-21 14 -31 15 -11 0 -14 0 -27 -7 -22 -11 -38 -10 -46 2 -2 2 -3 12 -3 27 -1
28 -5 36 -21 47 -5 5 -12 10 -13 11 -2 2 -9 8 -16 13 -7 5 -13 10 -14 11 -1 1
-5 4 -9 7 -4 3 -8 6 -9 7 -1 1 -8 6 -17 13 -9 7 -16 13 -17 13 -6 8 -22 12
-34 8z m82 -126 c5 -5 5 -11 0 -16 -10 -10 -27 5 -16 16 4 4 12 4 16 0z m-282
-50 c1 -1 4 -6 6 -9 2 -6 2 -6 -3 -10 -6 -6 -16 -5 -21 2 -11 12 6 29 18 17z
m402 -109 c3 -3 4 -7 4 -14 0 -13 -6 -19 -19 -19 -13 0 -19 6 -19 19 0 7 1 11
4 14 7 8 23 8 30 0z"/>
<path d="M97 3546 c-11 -4 -16 -11 -19 -24 -2 -9 -2 -11 5 -35 9 -31 15 -44
26 -51 15 -10 15 -10 124 -10 111 0 111 0 123 11 4 4 16 26 16 30 0 5 10 11
17 11 8 0 17 -6 17 -11 0 -4 12 -27 16 -30 10 -10 18 -11 54 -11 35 0 48 -2
48 -7 0 -2 2 -3 4 -3 2 0 2 -1 0 -1 -4 -2 -15 -6 -31 -14 -8 -4 -16 -7 -18 -8
-3 -1 -8 -4 -11 -7 -6 -5 -6 -6 -6 -20 0 -14 1 -16 6 -22 19 -23 7 -55 -21
-53 -17 1 -24 7 -27 24 -4 20 -12 35 -20 37 -13 2 -19 2 -41 -5 -13 -4 -25 -8
-27 -8 -2 0 -9 -2 -16 -4 -22 -5 -66 -13 -94 -16 -14 -2 -27 -10 -32 -20 -4
-9 -7 -23 -4 -23 1 0 2 -1 1 -2 -1 -1 0 -2 1 -3 1 0 2 -3 3 -6 2 -9 17 -39 26
-52 12 -17 13 -23 11 -46 -1 -10 -2 -21 -1 -25 1 -6 13 -48 29 -100 11 -35 12
-45 12 -135 0 -88 0 -93 10 -101 6 -5 24 -11 33 -10 10 0 17 -6 17 -15 0 -9
-7 -15 -17 -15 -9 1 -27 -5 -33 -10 -10 -9 -10 -10 -10 -131 0 -80 1 -114 2
-120 3 -10 3 -54 0 -64 -3 -12 -3 -51 1 -60 4 -9 14 -21 18 -21 2 0 3 -1 3 -2
0 -2 10 -3 49 -3 40 0 57 2 95 10 65 15 137 47 160 72 9 10 21 31 21 40 1 10
-7 26 -17 37 -6 6 -8 20 -4 28 3 6 13 10 22 8 14 -3 15 -5 15 -30 0 -18 1 -22
4 -28 9 -14 22 -20 55 -22 19 -1 23 -2 27 -6 3 -3 4 -5 4 -6 -1 0 -6 -9 -11
-18 -7 -15 -13 -26 -26 -49 -2 -4 -5 -9 -6 -10 -1 -2 -9 -25 -11 -35 -1 -5
-12 -18 -15 -18 -1 0 -3 -1 -4 -3 -2 -1 -7 -5 -12 -9 -6 -3 -10 -7 -10 -8 0 0
-2 -3 -4 -6 -3 -3 -9 -10 -15 -17 -15 -18 -76 -78 -94 -93 -9 -7 -17 -14 -18
-15 -5 -4 -10 -8 -24 -19 -17 -12 -23 -21 -32 -44 -4 -9 -9 -19 -12 -22 -11
-11 -16 -33 -11 -50 2 -6 1 -11 -1 -21 -5 -20 -4 -31 4 -40 3 -4 7 -7 9 -7 2
0 7 -2 11 -4 7 -4 12 -5 29 -5 22 0 31 3 76 22 4 2 9 4 11 5 2 1 11 5 19 9 9
4 16 7 17 7 0 0 12 5 26 12 29 14 37 21 48 43 4 9 10 20 14 25 4 7 6 12 6 19
1 10 2 13 7 21 1 1 5 3 9 3 8 1 17 -3 34 -14 8 -5 14 -8 22 -8 12 -2 11 -2 41
19 34 25 114 96 114 102 0 1 1 2 2 1 3 -2 8 4 9 12 2 12 11 34 16 39 8 7 24 6
31 -2 9 -8 9 -23 1 -32 -3 -3 -6 -5 -7 -5 -1 1 -2 0 -3 -1 -1 -1 -6 -4 -12 -7
-6 -3 -11 -6 -11 -7 0 -1 -1 -2 -2 -1 -3 0 -7 -7 -10 -18 -3 -12 -1 -123 2
-141 4 -16 10 -28 17 -33 6 -4 29 -13 35 -13 7 0 12 -9 12 -19 -2 -46 3 -54
53 -71 27 -9 38 -11 55 -7 27 6 27 6 46 -1 21 -8 27 -7 47 2 19 9 27 8 51 -3
l19 -10 182 0 c162 0 256 1 289 4 91 8 113 12 125 24 7 7 14 24 16 36 2 11 11
18 22 17 6 0 13 -1 16 -3 9 -4 30 -4 38 1 15 9 29 55 23 73 -5 15 -7 17 -24
17 l-15 0 -9 -17 c-11 -22 -20 -27 -39 -23 -10 2 -15 7 -17 18 -4 15 0 23 17
39 8 8 15 17 16 19 1 2 2 4 3 4 8 0 4 40 -5 43 -4 2 -12 17 -14 26 -1 4 -2 9
-2 11 -1 2 -2 4 -2 6 -1 3 -7 12 -9 12 0 0 -7 0 -13 0 -10 0 -13 1 -13 3 0 3
2 3 13 3 11 -1 13 0 17 4 2 2 4 4 3 4 0 0 1 5 2 12 1 7 2 20 2 29 -1 10 -1 34
-2 53 -1 39 -3 50 -14 60 -13 13 -32 15 -51 6 -17 -9 -20 -13 -44 -71 -8 -20
-11 -24 -17 -25 -6 0 -8 1 -12 7 -16 21 -54 56 -72 66 -3 2 -9 5 -13 7 -9 6
-45 24 -47 24 -1 0 -6 3 -12 7 -5 4 -13 9 -16 12 -8 5 -9 9 -3 15 4 4 7 5 26
10 25 6 60 18 78 26 20 10 32 21 38 35 5 10 5 11 5 77 0 65 0 67 -5 77 -2 6
-6 12 -8 14 -5 4 -19 9 -31 10 -18 2 -24 9 -24 27 0 18 7 25 24 27 13 1 29 7
34 12 10 12 11 20 10 57 0 34 -2 46 -5 52 -1 2 -2 9 -3 15 -1 11 -1 13 3 18 6
7 18 9 31 4 18 -6 39 -3 45 8 4 7 5 21 2 30 -3 8 -7 11 -42 37 -44 33 -45 34
-43 45 1 10 10 23 32 47 23 24 33 49 34 85 0 23 -5 53 -11 65 -1 2 -6 12 -11
23 -6 10 -11 19 -11 19 -1 0 -2 1 -2 2 0 6 -37 46 -47 51 -7 4 -31 5 -36 1 -2
-1 -10 -3 -29 -7 -14 -3 -21 -6 -29 -14 -4 -3 -7 -7 -7 -8 0 -5 -17 -21 -23
-21 -12 -1 -16 0 -26 7 -18 11 -23 12 -55 11 -19 -1 -29 8 -29 27 0 19 9 28
28 28 12 0 18 -3 26 -12 16 -17 36 -20 49 -9 4 4 12 9 17 11 16 8 17 10 17 29
l0 17 -17 7 c-15 5 -21 7 -38 7 -23 1 -23 1 -47 13 -22 10 -46 16 -85 18 -23
1 -24 1 -13 2 l13 1 -5 4 -4 5 56 0 c72 0 75 1 74 25 0 7 1 12 3 13 1 1 1 2
-1 2 -4 0 -30 25 -36 34 -2 3 -4 7 -4 9 0 5 -10 25 -15 30 -10 10 -14 11 -82
11 -57 0 -64 0 -78 -4 -21 -6 -34 -6 -55 0 -17 4 -21 4 -101 4 -67 -1 -85 -2
-90 -4 -3 -1 -7 -3 -7 -2 -1 0 -1 -7 -1 -16 l0 -16 -9 0 -9 0 0 16 c0 9 0 16
-1 16 0 -1 -4 1 -7 2 -8 4 -217 6 -236 2 -18 -3 -36 -4 -52 -1 -17 3 -176 4
-187 1 -13 -4 -15 -6 -15 -21 0 -8 -1 -15 -2 -15 -1 -1 0 -2 2 -2 3 0 6 -1 7
-3 1 -2 4 -3 6 -3 4 0 21 -11 23 -15 1 -4 -3 -17 -7 -19 -3 -1 -5 0 -8 4 -2 3
-8 7 -12 8 -4 1 -9 3 -11 4 -6 3 -26 6 -28 5 -1 -1 -6 -2 -11 -2 -12 0 -20 5
-23 14 -4 15 -10 28 -12 30 -2 1 -3 3 -3 4 0 1 -4 4 -8 7 -11 6 -27 7 -51 4
-21 -3 -35 -3 -53 0 -17 3 -98 3 -105 0 -9 -4 -15 -10 -16 -19 -2 -13 -3 -15
-4 -17 0 0 0 -2 2 -3 2 -2 3 -7 3 -14 0 -10 -1 -12 -6 -17 -5 -5 -7 -6 -17 -6
-10 0 -12 1 -17 6 -5 5 -6 7 -6 17 0 7 1 12 3 14 2 1 2 3 2 3 -1 2 -2 4 -4 17
-3 18 -11 21 -59 21 -32 0 -38 -1 -45 -4z m980 -39 c8 -11 0 -27 -13 -27 -13
0 -21 15 -14 26 4 5 23 6 27 1z m-471 -45 c4 -2 8 -3 8 -3 0 2 9 -11 12 -17 4
-8 4 -40 0 -46 -8 -12 -36 -14 -45 -4 -14 19 -17 22 -23 22 -5 0 -5 0 0 2 2 1
4 3 3 4 0 1 3 4 8 7 11 7 15 12 15 21 1 3 2 6 2 6 1 0 2 2 2 4 0 8 6 10 18 4z
m577 -40 c3 -1 6 -3 7 -3 1 0 2 -1 4 -2 2 0 5 -1 8 -2 4 0 4 0 -1 -1 -13 0
-19 -14 -20 -43 -1 -10 -1 -25 -2 -33 -1 -19 2 -26 13 -33 l9 -6 -5 -4 c-2 -3
-7 -5 -11 -6 -3 -1 -45 -1 -93 -1 l-88 1 -4 5 c-4 4 -4 4 -1 5 19 6 45 28 48
40 3 10 0 24 -5 31 -6 8 -66 44 -73 44 -3 0 -3 1 -1 1 2 1 5 3 7 6 1 2 3 3 3
2 0 -1 1 -1 2 1 4 3 195 2 203 -2z m-324 -69 c3 -3 3 -3 0 -6 -3 -3 -3 -3 -6
0 -3 2 -3 3 -1 6 4 4 4 4 7 0z m-77 -5 c5 -5 5 -15 0 -20 -9 -9 -24 -2 -24 10
0 8 6 14 14 14 3 0 8 -2 10 -4z m-124 -6 c5 -5 5 -15 0 -20 -9 -9 -24 -2 -24
10 0 8 6 14 14 14 3 0 8 -2 10 -4z m-267 -90 c11 -5 16 -27 8 -41 -7 -15 -39
-16 -47 -1 -6 9 -7 17 -3 28 5 16 21 21 42 14z m136 -29 c3 -3 3 -3 0 -6 -3
-3 -3 -3 -6 0 -3 2 -3 3 -1 6 4 4 4 4 7 0z m1018 -20 c3 -3 3 -3 0 -6 -3 -3
-3 -3 -6 0 -3 2 -3 3 -1 6 4 4 4 4 7 0z m-407 -23 c4 -2 8 -7 12 -13 9 -16 15
-23 25 -27 11 -5 19 -5 47 -1 12 2 25 4 30 4 5 1 11 2 13 2 14 2 69 9 74 10 3
1 12 2 20 3 15 3 25 2 36 -4 10 -4 48 -40 51 -48 3 -6 1 -16 -5 -31 -2 -5 -3
-15 -3 -31 0 -22 0 -22 -6 -28 -3 -3 -7 -6 -9 -6 -10 -1 -28 0 -30 2 -1 0 -62
1 -136 2 l-134 1 -7 6 c-6 5 -6 5 -2 5 12 0 45 25 53 40 5 9 6 23 2 29 -3 5
-27 16 -30 14 -8 -4 -41 23 -45 36 -2 7 -1 9 5 26 4 11 22 15 39 9z m556 -6
c5 -5 5 -15 0 -20 -9 -9 -24 -2 -24 10 0 8 6 14 14 14 3 0 8 -2 10 -4z m-813
-54 c4 -6 4 -24 -1 -30 -7 -9 -27 -9 -34 0 -5 6 -5 24 0 30 7 9 27 9 35 0z
m695 -25 c3 -3 4 -7 4 -14 0 -13 -6 -19 -19 -19 -13 0 -19 6 -19 19 0 7 1 11
4 14 7 8 23 8 30 0z m-825 -50 c-1 -13 -4 -24 -6 -28 -13 -24 -16 -32 -15 -44
1 -22 1 -39 -1 -41 -3 -3 0 -22 4 -30 4 -8 14 -12 31 -12 20 0 35 7 48 23 10
12 22 19 32 18 62 -5 66 -6 66 -19 0 -4 -10 -16 -14 -16 -1 0 -6 -4 -11 -9 -6
-6 -12 -9 -16 -10 -4 -1 -7 -3 -8 -4 0 -2 -2 -2 -3 -2 -4 1 -12 -11 -13 -18 0
-3 -1 -6 -1 -7 0 -1 0 -2 0 -2 0 -1 -1 -2 -2 -2 -1 0 -2 -1 -2 -1 1 -5 0 -9
-2 -8 -1 1 -2 0 -2 -1 0 -1 4 -2 10 -2 8 0 10 1 11 5 0 2 4 7 7 11 l6 7 15 -2
c22 -2 29 -8 23 -20 -8 -15 -49 -32 -53 -22 -1 2 -4 3 -15 2 -22 -2 -27 -3
-33 -7 -4 -4 -9 -4 -92 -4 l-88 -1 -6 6 -6 6 0 34 0 34 6 6 6 6 20 -1 c31 -1
39 4 43 29 1 7 1 12 -1 13 -2 2 -2 19 -1 41 1 11 0 14 -5 22 -9 15 -19 19 -43
19 -16 0 -30 1 -47 5 -3 0 -18 6 -34 12 -16 6 -30 11 -30 11 0 0 -1 1 -2 3 -2
5 4 11 18 17 19 8 30 10 45 7 27 -5 28 -5 84 1 30 3 58 7 62 8 6 1 7 0 12 -5
l5 -5 -2 -23z m145 -23 c5 -6 5 -8 -1 -15 -5 -6 -19 -7 -30 -3 -4 2 -9 1 -26
-5 -27 -10 -34 -11 -40 -5 -15 14 3 35 21 26 8 -4 36 -3 46 2 12 5 25 5 30 0z
m774 -17 c1 -2 4 -3 5 -3 2 0 3 -2 2 -4 0 -2 -1 -4 -2 -4 -1 0 -4 -1 -5 -3 -4
-4 -8 -4 -13 2 -3 5 -3 5 0 10 5 6 9 6 13 2z m-491 -56 c2 -3 3 -6 1 -12 0 -4
0 -12 1 -18 1 -5 1 -12 1 -15 -1 -3 -1 -5 0 -5 1 1 2 0 2 -1 1 -1 3 -3 5 -3 2
0 8 -1 12 -3 6 -2 28 -2 88 -2 l80 1 6 -6 6 -6 0 -34 0 -34 -6 -6 c-6 -6 -7
-6 -21 -6 -14 0 -17 -1 -35 -10 -25 -12 -29 -12 -54 0 l-20 10 -31 1 c-30 0
-31 1 -36 5 l-5 5 3 25 c3 26 3 26 -1 37 -2 6 -4 12 -3 12 0 2 -5 6 -8 7 -7 1
-28 13 -30 17 -8 15 4 35 26 43 12 4 15 4 19 -2z m-133 -121 c2 -1 7 -6 10
-11 9 -13 20 -18 43 -18 19 0 23 -2 23 -14 0 -8 -5 -13 -17 -20 -6 -3 -10 -6
-11 -7 -2 -3 -22 -12 -27 -12 -6 0 -21 9 -21 12 0 2 -24 26 -26 26 -4 0 -10
14 -10 24 0 15 7 22 22 22 6 0 12 -1 14 -2z m563 -63 c7 -7 7 -21 0 -32 -3 -4
-6 -7 -7 -7 -1 0 -8 -6 -16 -14 -13 -13 -14 -15 -15 -25 -1 -7 -1 -16 1 -23 5
-21 5 -23 0 -28 -10 -10 -24 -2 -24 13 1 13 -7 35 -16 45 -10 11 -13 23 -10
35 3 12 7 15 37 29 30 14 42 16 50 7z m-235 -25 c2 0 9 -6 16 -13 11 -10 16
-13 29 -18 8 -3 16 -5 17 -5 6 0 12 -9 12 -17 0 -11 -6 -30 -15 -43 -5 -9 -9
-13 -18 -17 -6 -3 -16 -10 -21 -14 -5 -5 -12 -11 -16 -14 -5 -2 -8 -4 -8 -5 0
0 -35 -1 -77 0 -77 0 -77 0 -86 -4 -12 -6 -18 -13 -26 -32 -4 -8 -8 -17 -9
-19 -1 -2 -3 -9 -5 -17 -2 -13 -2 -14 2 -22 3 -5 7 -10 8 -12 6 -7 -14 -17
-33 -16 -15 0 -24 4 -29 12 -3 6 -3 7 -1 12 4 7 17 25 20 27 1 1 5 7 8 15 8
16 7 23 -1 37 -6 9 -11 24 -11 30 0 1 3 15 8 30 4 15 7 28 7 29 0 0 2 3 5 6 6
4 9 5 28 6 24 2 33 5 45 18 12 11 18 14 28 14 10 0 16 -3 28 -14 16 -16 31
-20 45 -13 11 7 17 19 19 40 2 13 11 21 24 20 2 0 5 -1 7 -1z m-393 -10 c9 -7
12 -32 6 -54 -2 -6 -4 -20 -4 -31 -2 -34 -5 -43 -19 -48 -10 -5 -28 -1 -34 6
-4 4 -10 22 -13 38 0 2 -2 9 -4 17 -4 20 -3 26 14 47 4 6 10 13 13 17 7 9 13
12 25 12 8 0 12 -1 16 -4z m-122 -10 c8 -7 7 -16 -4 -32 -5 -7 -12 -20 -15
-30 -7 -18 -8 -19 -23 -21 -18 -2 -36 -13 -38 -23 0 -2 -1 -5 -2 -8 0 -3 -1
-12 -2 -21 0 -9 -2 -18 -4 -20 -2 -3 -12 -9 -22 -14 -11 -5 -24 -13 -30 -16
-21 -14 -41 -8 -41 12 0 10 -5 27 -9 34 -2 3 -7 7 -13 9 -8 4 -12 5 -44 5 -33
0 -35 0 -42 -4 -5 -4 -7 -4 -11 -3 -6 3 -11 14 -7 16 1 0 2 2 2 4 0 2 2 6 5
10 5 5 7 6 14 6 9 -1 27 5 33 10 5 4 11 19 10 26 -1 4 1 7 5 11 9 8 12 9 97 7
34 -1 40 1 54 18 12 14 14 16 18 18 4 2 22 6 34 7 5 1 9 2 10 2 0 1 5 1 11 1
7 0 11 -1 14 -4z m-431 -12 c34 -12 45 -19 55 -37 3 -5 10 -15 15 -20 8 -9 15
-24 14 -30 -2 -11 4 -20 10 -18 2 0 5 0 5 -1 1 -1 2 -2 3 -1 1 1 2 0 2 -1 0
-1 1 -2 3 -1 3 1 6 -4 11 -19 3 -10 3 -11 0 -26 -3 -11 -5 -16 -9 -19 -6 -6
-22 -8 -45 -6 -24 1 -25 2 -25 33 0 21 -1 24 -6 36 -4 7 -8 18 -9 24 -5 23
-15 31 -43 35 -12 2 -19 8 -21 19 -4 17 3 31 16 34 10 2 11 2 24 -2z m611
-129 c3 -5 3 -5 0 -10 -2 -3 -5 -5 -7 -5 -2 0 -5 2 -7 5 -3 5 -3 5 0 10 2 3 5
5 7 5 2 0 5 -2 7 -5z m460 -84 c5 -4 6 -6 7 -18 0 -12 0 -13 -7 -25 -10 -15
-13 -26 -16 -43 -3 -14 -18 -20 -28 -11 -6 6 -6 14 -2 26 2 6 3 17 4 38 l0 28
6 5 c8 7 28 7 36 0z m-203 -13 c5 -5 5 -10 0 -16 -6 -11 -29 -4 -29 8 0 5 0 6
9 9 11 3 16 3 20 -1z m-415 -32 c11 -10 3 -28 -11 -28 -9 0 -16 6 -16 16 0 14
17 22 27 12z m308 -58 c2 -4 3 -11 3 -24 0 -10 0 -25 1 -32 1 -12 1 -14 -4
-19 -2 -3 -9 -9 -15 -11 -6 -3 -16 -10 -22 -15 -13 -12 -17 -13 -26 -13 -13 0
-14 0 -20 6 -5 5 -6 7 -6 18 0 16 4 20 22 26 20 6 34 14 39 21 1 4 5 14 7 24
2 9 5 18 6 20 4 4 11 4 15 -1z m-138 -11 c3 -5 3 -5 0 -10 -2 -3 -5 -5 -7 -5
-2 0 -5 2 -7 5 -3 5 -3 5 0 10 2 3 5 5 7 5 2 0 5 -2 7 -5z m-180 -19 c7 -6 7
-19 1 -25 -6 -7 -19 -7 -25 -1 -7 6 -7 19 -1 25 6 7 19 7 25 1z m453 -2 c5 -5
6 -7 6 -17 0 -10 -1 -12 -6 -17 -5 -5 -7 -6 -17 -6 -14 0 -20 5 -24 20 -4 19
2 26 24 26 10 0 12 -1 17 -6z m83 2 c11 -10 3 -28 -11 -28 -9 0 -16 6 -16 16
0 14 17 22 27 12z m102 -28 c3 -2 2 -7 -2 -9 -5 -2 -18 1 -15 3 3 2 3 2 0 4
-2 1 -2 2 1 3 6 1 14 1 16 -1z m-778 -35 c3 -3 3 -3 0 -6 -3 -3 -3 -3 -6 0 -3
2 -3 3 -1 6 4 4 4 4 7 0z m984 -49 c5 -5 6 -7 6 -16 0 -15 -8 -23 -23 -23 -9
0 -11 1 -16 7 -9 8 -9 23 -1 32 9 9 24 9 34 0z m130 -21 c4 -6 3 -17 -3 -28
-14 -27 -24 -43 -32 -51 -9 -10 -9 -10 -23 -10 -11 0 -14 1 -18 5 -6 4 -6 6
-6 20 0 18 2 20 27 31 15 6 31 18 33 26 1 3 11 9 17 10 1 0 4 -2 5 -3z m-299
-54 c3 -4 -9 -13 -19 -13 -11 0 -25 4 -24 7 1 2 -1 3 -3 4 -4 0 -4 1 1 1 4 0
10 1 13 3 18 7 25 7 32 -2z m-866 -13 c3 -4 7 -9 8 -12 2 -5 3 -16 1 -16 -20
-3 -37 6 -37 19 0 15 16 20 28 9z m420 -40 c8 -10 3 -19 -13 -25 -12 -4 -19
-9 -32 -22 -10 -9 -10 -9 -21 -9 -12 1 -16 4 -17 15 -3 14 3 22 16 24 16 2 22
4 35 10 7 4 14 8 15 9 4 4 13 2 17 -2z m529 -5 c3 -5 3 -5 0 -15 -2 -6 -5 -11
-5 -12 -1 -1 -5 -9 -9 -19 -9 -23 -14 -27 -28 -27 -16 0 -23 7 -23 23 0 13 3
18 19 28 6 4 14 10 18 14 15 13 22 16 28 8z m-270 -40 c5 -8 1 -16 -8 -16 -9
0 -13 8 -8 16 2 3 5 5 8 5 3 0 6 -2 8 -5z m-856 -34 c3 -5 3 -5 0 -10 -2 -3
-5 -5 -7 -5 -2 0 -5 2 -7 5 -3 5 -3 5 0 10 2 3 5 5 7 5 2 0 5 -2 7 -5z m978
-16 c12 -7 14 -33 3 -43 -8 -9 -32 -9 -40 0 -9 8 -9 32 0 41 7 7 27 8 37 2z
m276 -4 c4 -4 5 -7 5 -15 0 -14 -6 -20 -20 -20 -8 0 -11 1 -15 5 -4 4 -5 7 -5
15 0 14 6 20 20 20 8 0 11 -1 15 -5z m-670 -21 c7 -6 7 -19 1 -25 -6 -7 -19
-7 -25 -1 -7 6 -7 19 -1 25 6 7 19 7 25 1z"/>
<path d="M333 2066 c-5 -1 -76 -35 -98 -47 -7 -3 -44 -19 -118 -48 -2 -1 -5
-2 -6 -2 -8 -2 -35 -14 -40 -17 -28 -20 -16 -72 18 -82 11 -3 11 -3 23 -1 51
7 180 35 238 52 2 0 7 2 13 3 13 3 16 8 16 27 0 14 -1 16 -5 21 -6 6 -8 13 -9
48 -2 41 -3 43 -12 45 -2 0 -4 1 -4 1 0 1 -11 1 -16 0z"/>
</g>
</svg>
