<?xml version="1.0" standalone="no"?>
<!DOCTYPE svg PUBLIC "-//W3C//DTD SVG 20010904//EN"
 "http://www.w3.org/TR/2001/REC-SVG-20010904/DTD/svg10.dtd">
<svg version="1.0" xmlns="http://www.w3.org/2000/svg"
 width="1100.000000pt" height="2850.000000pt" viewBox="0 0 1100.000000 2850.000000"
 preserveAspectRatio="xMidYMid meet">
<metadata>
Created by potrace 1.15, written by Peter Selinger 2001-2017
</metadata>
<g transform="translate(0.000000,2850.000000) scale(0.500000,-0.500000)"
fill="#000000" stroke="none">
<path d="M1250 3818 c-12 -4 -23 -15 -26 -27 -1 -5 -2 -22 -2 -38 0 -34 2 -41
21 -61 22 -22 19 -40 -9 -66 -2 -2 -2 -21 0 -26 5 -13 33 -19 51 -10 9 4 17
11 17 14 0 1 1 2 2 1 0 0 4 7 8 16 8 21 13 25 27 25 16 0 23 -7 23 -22 0 -14
-1 -15 -17 -27 -13 -10 -23 -19 -20 -19 1 0 -1 -3 -3 -8 -2 -4 -5 -11 -6 -16
-2 -7 -6 -13 -16 -23 -7 -8 -14 -17 -15 -19 -1 -3 -2 -5 -3 -6 -2 -2 -6 -8 -9
-16 -2 -3 -5 -8 -8 -11 -2 -2 -5 -6 -6 -9 0 -3 -6 -13 -12 -23 -12 -20 -14
-27 -18 -51 -3 -17 -9 -28 -17 -31 -2 -1 -10 2 -18 6 -17 8 -21 13 -21 29 1
11 3 16 12 26 7 9 13 21 14 32 0 8 -2 14 -13 43 -8 19 -16 37 -18 41 -17 32
-19 40 -15 69 2 17 -2 28 -12 38 -10 11 -88 77 -116 100 -6 5 -16 13 -21 17
-10 8 -22 18 -32 26 -7 5 -24 10 -32 8 -6 -1 -12 -7 -14 -15 -3 -10 -8 -15
-16 -14 -4 0 -7 2 -8 3 0 1 -2 2 -3 2 -2 0 -4 2 -5 4 -4 7 -13 11 -26 10 -14
-1 -15 -2 -36 -30 -9 -13 -17 -23 -18 -24 -1 -1 -5 -6 -10 -13 -5 -7 -9 -12
-10 -13 -1 -1 -4 -5 -8 -11 -10 -14 -18 -17 -48 -19 -20 -1 -30 -3 -46 -8 -20
-6 -22 -6 -46 -5 -14 0 -30 2 -36 3 -7 1 -17 1 -29 0 -18 -2 -19 -2 -40 4
l-22 6 -227 0 c-217 0 -227 0 -235 -4 -11 -4 -16 -11 -19 -24 -2 -9 -2 -11 5
-35 8 -29 12 -38 21 -46 13 -13 16 -14 70 -14 l49 0 6 -6 6 -6 -1 -354 0 -353
-6 -7 c-3 -4 -7 -6 -11 -6 -3 -1 -27 -4 -53 -7 -26 -3 -52 -6 -59 -7 -24 -3
-36 -12 -38 -30 -1 -10 -1 -11 21 -53 12 -24 32 -64 45 -90 28 -54 29 -57 38
-62 14 -9 30 -12 58 -12 31 0 35 -2 35 -15 0 -8 -6 -14 -25 -26 -16 -10 -22
-17 -22 -31 0 -13 3 -19 12 -23 19 -9 42 0 68 26 24 24 28 26 51 35 39 15 167
66 173 69 3 2 15 7 27 11 12 5 24 10 27 11 6 3 39 17 63 26 l12 5 5 -6 c4 -4
5 -7 5 -13 0 -13 9 -26 20 -28 1 0 7 -2 11 -3 6 -1 9 -1 10 1 0 1 6 2 12 2 20
0 28 -8 28 -27 0 -21 -10 -28 -37 -29 -32 -1 -44 -13 -44 -43 0 -13 4 -23 12
-29 5 -4 23 -9 34 -10 7 0 16 -3 24 -7 25 -11 25 -11 90 -5 14 2 24 -4 24 -12
0 -11 21 -38 34 -45 13 -7 22 -7 41 0 25 9 37 16 47 26 16 16 28 19 42 12 5
-2 6 -10 2 -10 -3 0 -7 -16 -5 -26 1 -10 3 -14 20 -41 4 -6 7 -11 7 -12 0 0 3
-6 7 -12 18 -31 43 -85 57 -122 30 -82 44 -142 51 -224 2 -24 13 -42 37 -60 4
-3 9 -5 10 -5 1 0 2 -1 2 -2 0 -1 32 -18 48 -25 20 -8 58 -12 82 -8 40 5 83
30 109 64 2 3 6 8 9 11 7 9 26 48 30 66 4 15 5 22 5 52 0 32 -1 37 -6 56 -3
12 -8 27 -12 34 -13 30 -13 30 -25 49 -3 4 -5 8 -6 9 -1 1 -4 5 -7 9 -15 24
-32 35 -55 33 -29 -2 -32 -1 -37 5 -4 4 -5 7 -5 21 1 17 -1 32 -4 32 -1 0 -2
1 -2 3 0 5 -23 21 -54 37 -20 11 -26 12 -46 8 -15 -3 -27 -3 -33 1 -2 1 -9 9
-14 16 -16 26 -23 29 -85 48 -17 5 -25 10 -24 15 1 1 16 10 34 19 57 30 129
74 164 102 1 1 2 12 2 20 0 12 0 14 -1 13 -1 -1 -4 1 -7 4 -4 3 -8 6 -9 6 -1
0 -5 3 -8 6 -7 7 -8 20 -2 31 5 10 6 34 3 46 -5 20 -3 36 6 43 6 5 9 5 15 0 3
-4 4 -7 4 -20 0 -10 -1 -17 -3 -19 -4 -5 1 -28 9 -43 3 -6 7 -15 9 -19 1 -4 4
-11 5 -15 4 -7 4 -7 14 -7 19 1 22 3 32 14 8 8 12 15 17 28 7 20 10 22 32 33
21 11 25 16 23 34 0 8 -2 17 -4 21 -5 10 -4 23 2 28 4 5 6 5 19 5 19 1 33 5
41 12 9 9 42 72 58 112 4 8 8 11 13 6 2 -4 5 -15 9 -33 4 -21 9 -30 27 -47 15
-15 16 -16 16 -25 0 -5 -2 -16 -5 -24 -3 -9 -5 -20 -5 -25 -1 -8 8 -36 18 -63
2 -5 6 -17 9 -25 19 -53 61 -133 91 -173 7 -9 14 -18 16 -21 8 -11 24 -29 45
-49 38 -37 37 -37 49 -37 21 0 30 11 33 39 1 9 2 18 2 21 6 32 14 60 23 82 7
16 8 30 3 45 -10 32 1 44 33 37 23 -5 30 -3 33 10 4 15 3 20 -12 35 -15 15
-16 19 -14 45 2 30 -6 62 -20 77 l-9 10 -13 0 c-15 0 -19 -2 -31 -11 -10 -7
-16 -10 -25 -9 -16 1 -23 6 -27 20 -2 10 -1 16 6 31 10 22 7 35 -15 59 -8 9
-19 21 -23 27 -4 5 -8 10 -10 12 -1 1 -5 6 -7 11 -3 4 -6 8 -7 9 -2 2 -22 33
-30 48 -24 42 -32 64 -28 78 0 2 29 33 64 68 35 34 71 72 81 83 10 11 19 20
20 22 10 11 26 28 35 39 6 7 14 15 17 19 3 3 9 10 13 15 4 5 9 11 10 13 9 9 6
31 -4 43 -10 11 -12 15 -12 26 0 15 7 22 22 22 13 0 16 -2 33 -19 15 -16 27
-19 43 -14 6 2 12 5 14 6 2 2 4 3 6 3 3 0 23 20 29 29 9 15 6 34 -6 45 -5 5
-29 17 -63 33 -12 5 -35 16 -58 26 -26 13 -43 20 -58 28 -8 3 -21 9 -29 13
-19 9 -21 10 -41 14 -20 4 -30 9 -40 18 -17 15 -33 20 -43 13 -2 -1 -3 -1 -3
0 0 1 -2 -1 -6 -3 -9 -6 -15 -23 -23 -62 -1 -6 -10 -46 -22 -94 -5 -20 -10
-38 -10 -39 0 -1 -1 -6 -3 -10 -1 -4 -2 -11 -3 -14 0 -3 -2 -10 -3 -15 -1 -5
-3 -10 -3 -11 -1 -4 -5 -20 -7 -24 -2 -5 -9 -8 -12 -4 -1 1 -4 9 -6 16 -4 15
-4 29 0 38 12 22 12 29 15 163 2 97 3 107 8 116 3 4 7 8 10 9 22 7 51 44 53
68 0 12 -6 26 -15 31 -3 1 -6 4 -7 4 -1 1 -4 2 -8 3 -12 2 -28 -5 -41 -18 -8
-8 -15 -11 -24 -11 -11 0 -15 2 -22 11 -16 21 -30 30 -55 32 -18 2 -34 3 -43
4 -4 0 -14 1 -21 2 -7 1 -43 4 -79 7 -36 3 -65 6 -66 6 0 0 -5 -2 -11 -4z
m125 -111 c3 -3 3 -3 0 -6 -3 -3 -3 -3 -6 0 -3 2 -3 3 -1 6 4 4 4 4 7 0z
m-846 -116 c4 -3 7 -6 7 -8 0 -3 12 -16 21 -21 7 -5 10 -5 30 -5 22 0 22 0 28
-6 l6 -6 0 -71 0 -71 -6 -6 -6 -6 -40 0 -40 0 -6 6 -6 6 1 28 c0 26 0 30 -5
47 -4 15 -5 21 -4 31 3 30 3 39 1 42 -3 4 -10 24 -10 30 0 14 16 20 29 10z
m526 -41 l6 -6 0 -35 c1 -41 3 -49 16 -61 4 -4 10 -8 11 -9 4 -2 10 -13 10
-17 0 -3 -7 -9 -10 -10 -2 0 -9 -2 -16 -5 -20 -8 -24 -13 -35 -43 -15 -40 -36
-76 -57 -93 -7 -7 -15 -14 -17 -16 l-4 -4 -5 7 -5 7 -1 140 -1 140 6 6 6 6 45
-1 45 0 6 -6z m-623 -48 c5 -5 6 -7 6 -17 0 -10 -1 -12 -6 -17 -5 -5 -7 -6
-17 -6 -10 0 -12 1 -17 6 -5 5 -6 7 -6 17 0 10 1 12 6 17 5 5 7 6 17 6 10 0
12 -1 17 -6z m1396 -12 c4 -8 1 -13 -17 -27 -8 -7 -14 -12 -15 -13 -10 -12
-30 -14 -40 -5 -8 8 -9 25 -1 33 3 3 7 6 9 6 2 0 14 3 27 6 28 7 33 7 37 0z
m-137 -25 c14 -6 20 -22 11 -31 -4 -4 -18 -7 -24 -5 -2 0 -6 1 -11 2 -16 3
-23 23 -12 34 5 5 7 5 17 5 6 -1 15 -3 19 -5z m-981 -3 c5 -5 5 -15 0 -20 -9
-9 -24 -2 -24 10 0 8 6 14 14 14 3 0 8 -2 10 -4z m-337 -42 c2 -1 3 -2 3 -1 0
1 2 -1 4 -4 2 -3 4 -8 4 -9 0 -2 4 -15 8 -27 11 -32 12 -39 5 -46 -10 -10 -22
-6 -39 10 -9 10 -13 13 -16 13 -1 0 -2 1 -2 2 0 1 -3 3 -7 4 -18 6 -28 23 -23
41 5 16 13 21 40 20 13 0 20 -1 23 -3z m1099 -13 c21 -9 20 -45 -2 -54 -10 -5
-28 -1 -34 6 -9 10 -9 32 0 42 7 8 24 11 36 6z m-162 -36 l-5 -5 -4 4 -5 5 4
4 5 5 4 -4 5 -5 -4 -4z m-499 -43 c6 -6 7 -20 1 -28 -5 -7 -13 -6 -23 1 -9 6
-10 19 -3 26 6 7 19 7 25 1z m927 -2 c5 -5 5 -11 0 -16 -10 -10 -27 5 -16 16
4 4 12 4 16 0z m-299 -27 c6 -4 6 -6 6 -20 0 -14 0 -16 -6 -20 -4 -4 -7 -5
-18 -5 -11 0 -14 1 -18 5 -6 4 -6 6 -6 20 0 14 0 16 6 20 4 4 7 5 18 5 11 0
14 -1 18 -5z m-824 -36 l6 -6 0 -66 0 -66 -6 -6 -6 -6 -42 1 c-51 1 -54 2 -59
21 -3 10 -3 12 2 27 2 10 5 19 6 22 1 3 2 20 2 39 l-1 34 6 6 6 6 40 0 40 0 6
-6z m233 -2 c9 -8 2 -25 -11 -25 -13 0 -18 14 -11 28 2 5 3 5 10 4 4 -1 9 -4
12 -7z m-398 0 c10 -7 13 -26 6 -33 -8 -9 -32 -7 -38 4 -4 7 -2 22 3 27 6 6
21 7 29 2z m674 -16 l15 -8 25 0 c24 1 24 1 30 -5 3 -3 6 -5 6 -5 8 0 4 -35
-3 -35 -2 0 -9 -6 -25 -26 -9 -11 -16 -15 -29 -15 -17 0 -25 7 -28 24 -2 17
-7 29 -20 49 -6 8 -6 17 -1 23 6 7 13 6 30 -2z m400 -31 c3 -5 3 -5 0 -10 -5
-5 -8 -5 -13 1 -3 5 -3 5 0 10 5 6 9 6 13 -1z m-1185 -15 c14 -7 21 -19 21
-35 0 -15 -7 -22 -23 -22 -18 0 -25 10 -25 33 -1 23 10 32 27 24z m567 -39 c5
-5 5 -15 0 -20 -9 -9 -24 -2 -24 10 0 8 6 14 14 14 3 0 8 -2 10 -4z m79 -59
c6 -4 6 -6 6 -20 0 -18 -3 -22 -20 -26 -21 -4 -30 6 -29 30 2 16 7 21 25 21
11 0 14 -1 18 -5z m406 -35 c11 -5 33 -21 36 -26 2 -3 3 -10 3 -15 0 -13 -6
-19 -19 -19 -12 0 -40 13 -51 24 -7 7 -8 8 -8 18 0 22 15 28 39 18z m-1098
-12 c18 -9 22 -10 54 -7 18 1 18 1 24 -4 6 -4 6 -6 6 -20 0 -14 0 -15 -7 -22
-7 -8 -10 -10 -28 -18 -16 -8 -31 -7 -42 5 -6 6 -23 17 -33 21 -23 8 -26 11
-24 31 0 11 1 13 6 17 9 8 24 7 44 -3z m893 4 c0 -2 2 -4 3 -6 2 -3 6 -7 8
-11 3 -5 6 -8 12 -10 11 -4 12 -4 30 4 18 8 24 9 34 9 12 0 13 0 19 -6 5 -5 6
-7 6 -17 0 -14 -2 -18 -15 -27 -12 -8 -29 -14 -43 -14 -10 0 -13 1 -19 6 -6 5
-8 6 -18 6 -14 0 -24 -4 -27 -11 -1 -3 -5 -17 -9 -31 -4 -14 -10 -33 -13 -42
-3 -9 -8 -21 -9 -26 -11 -32 -34 -83 -53 -118 -9 -16 -28 -46 -30 -48 -1 -1
-5 -7 -10 -14 -5 -7 -11 -16 -13 -19 -3 -3 -6 -7 -7 -8 -11 -16 -27 -34 -59
-68 -7 -8 -13 -15 -13 -16 0 -3 -6 5 -9 12 -2 4 -3 14 -3 28 0 16 -1 23 -4 29
-5 12 -11 18 -16 19 -2 0 -4 0 -4 1 0 1 -5 3 -11 4 -14 3 -19 8 -19 16 0 7 6
14 12 14 4 0 23 7 29 11 11 7 16 28 10 42 -2 4 -2 7 -2 7 3 0 -9 8 -15 10 -2
1 -7 2 -11 3 -3 1 -7 2 -7 4 -1 1 -2 1 -2 -1 0 -6 -5 -5 -12 2 -6 5 -6 6 -4
10 4 5 12 8 15 4 2 -4 18 -8 31 -9 9 -1 20 3 20 7 0 1 1 2 2 2 2 0 12 4 23 10
11 5 30 15 43 21 63 30 94 46 100 52 6 8 13 26 13 36 -1 16 -13 34 -28 40 -10
5 -18 4 -53 -2 -35 -6 -45 -9 -52 -16 -6 -6 -10 -27 -9 -40 2 -12 -4 -19 -16
-19 -10 0 -16 6 -18 18 -1 4 -2 8 -3 8 0 0 -2 5 -3 12 -4 16 -4 18 -7 25 -1 3
-2 14 -2 24 0 17 0 19 6 26 5 6 6 6 8 4 3 -3 20 -12 35 -17 15 -6 49 -8 62 -4
55 14 98 40 118 71 4 5 9 7 9 3z m-682 -8 c9 -9 0 -28 -11 -25 -18 4 -17 29 1
29 3 0 8 -2 10 -4z m111 -65 l6 -6 -1 -39 c0 -38 0 -39 -5 -45 -3 -3 -7 -6 -9
-6 -2 0 -6 -1 -10 -2 -4 0 -11 -1 -17 -2 -5 -1 -11 -2 -13 -2 -2 0 -7 -1 -13
-2 -5 -1 -13 -2 -17 -3 -6 -1 -8 -1 -12 4 l-6 5 0 46 -1 46 6 6 6 6 40 0 40 0
6 -6z m942 -7 c11 -10 3 -28 -11 -28 -9 0 -16 6 -16 16 0 14 17 22 27 12z
m-755 -18 c5 -5 5 -11 0 -16 -10 -10 -27 5 -16 16 4 4 12 4 16 0z m-340 -71
c8 -9 5 -40 -6 -49 -5 -4 -22 -5 -27 -2 -1 0 -2 1 -3 1 -9 2 -10 5 -4 17 2 5
5 10 5 13 3 16 11 25 23 25 5 0 9 -1 12 -5z m385 -15 c20 -3 24 -7 28 -24 4
-18 4 -23 -1 -28 -5 -4 -6 -4 -26 -3 -16 1 -25 0 -37 -2 -28 -6 -29 -6 -34 -1
-5 4 -5 6 -4 14 1 19 18 43 31 45 14 1 28 1 43 -1z m809 -16 c5 -5 6 -7 6 -17
0 -10 -1 -12 -6 -17 -5 -5 -7 -6 -17 -6 -10 0 -12 1 -17 6 -5 5 -6 7 -6 17 0
10 1 12 6 17 5 5 7 6 17 6 10 0 12 -1 17 -6z m-1271 -19 c1 2 17 -5 17 -8 0
-5 -9 -22 -14 -26 -2 -2 -7 -3 -13 -3 -13 0 -19 6 -19 19 0 15 10 23 23 19 3
-1 5 -1 6 -1z m-139 -50 c10 -11 4 -31 -11 -34 -3 0 -8 -1 -10 -2 -2 0 -8 -1
-13 -1 -7 0 -8 -1 -10 -5 -2 -6 -19 -23 -25 -25 -14 -6 -26 15 -14 26 3 3 5 4
5 3 0 -1 2 0 4 2 3 2 8 3 12 3 8 0 14 4 15 9 0 1 2 4 4 6 1 2 3 4 3 5 0 1 3 4
6 8 3 3 6 7 6 8 0 2 10 3 18 2 3 0 8 -2 10 -5z m1411 -28 c12 -7 14 -33 3 -43
-8 -9 -32 -9 -40 0 -9 8 -9 32 0 41 7 7 27 8 37 2z m-1210 -50 c4 -4 5 -7 5
-15 0 -14 -6 -20 -20 -20 -14 0 -20 6 -20 20 0 14 6 20 20 20 8 0 11 -1 15 -5z
m-95 -15 c5 -5 5 -11 0 -16 -10 -10 -27 5 -16 16 4 4 12 4 16 0z m-193 -17 c6
-7 6 -13 1 -19 -7 -8 -22 -2 -22 9 0 6 2 8 9 12 7 4 6 4 12 -2z m1580 -143 c7
-6 7 -19 1 -25 -6 -7 -19 -7 -25 -1 -7 6 -7 19 -1 25 6 7 19 7 25 1z m-508
-399 c12 -7 14 -33 3 -43 -8 -9 -32 -9 -40 0 -9 8 -9 32 0 41 7 7 27 8 37 2z"/>
<path d="M1916 2729 c-5 -2 -12 -6 -15 -9 -7 -6 -7 -7 -7 -21 0 -14 0 -15 9
-27 5 -6 9 -13 9 -14 0 -9 21 -23 32 -22 12 1 32 19 32 28 0 2 1 4 2 5 3 2 4
15 1 26 -8 29 -33 43 -63 34z"/>
<path d="M368 2462 c-15 -7 -27 -23 -26 -38 0 -9 6 -22 14 -30 4 -4 9 -9 11
-13 5 -8 0 -14 -16 -17 -22 -4 -28 -9 -42 -32 -5 -9 -11 -18 -12 -20 -2 -1 -3
-3 -3 -4 0 -1 -9 -11 -23 -26 -9 -9 -18 -18 -40 -37 -15 -13 -22 -63 -13 -105
6 -30 2 -42 -16 -46 -10 -2 -23 0 -28 6 -7 7 -9 18 -4 37 7 28 3 44 -15 51
-17 7 -30 4 -53 -14 -8 -7 -12 -28 -8 -42 6 -21 0 -32 -17 -32 -24 0 -43 -12
-49 -29 -4 -12 -4 -32 1 -37 5 -5 33 -6 35 -2 7 12 35 11 42 -1 4 -10 4 -20
-1 -30 -3 -6 -7 -11 -8 -12 -4 -3 -13 -23 -18 -38 -3 -10 -3 -13 -1 -24 2 -12
9 -27 12 -27 1 0 4 -2 7 -5 8 -7 42 -23 55 -26 4 -1 7 -2 8 -2 43 -10 91 -3
139 20 36 18 83 57 94 79 5 10 18 27 22 27 3 0 31 59 39 79 14 42 16 56 11 83
-3 20 -3 19 7 54 6 20 4 63 -3 76 -5 10 -15 15 -34 16 -17 1 -23 5 -17 12 1 2
8 6 14 9 17 6 26 18 26 34 0 8 -18 66 -25 80 -13 26 -41 37 -65 26z m-17 -240
c11 -10 3 -28 -11 -28 -9 0 -16 6 -16 16 0 14 17 22 27 12z m37 -169 c4 -4 4
-6 1 -15 -5 -19 -11 -31 -18 -35 -6 -3 -7 -2 -10 1 -5 5 -4 8 1 27 3 9 7 16
11 21 8 7 11 8 15 1z m-85 -15 c10 -8 10 -34 0 -42 -8 -6 -29 -6 -36 1 -6 4
-6 6 -6 20 0 14 0 16 6 20 7 7 28 7 36 1z m-138 -55 c3 -5 3 -6 1 -11 -5 -9
-16 -7 -19 3 -3 11 12 17 18 8z"/>
<path d="M1448 2461 c-10 -3 -14 -28 -6 -38 5 -6 5 -18 1 -25 -4 -5 -5 -6 -11
-13 -2 -2 -3 -9 -4 -17 l0 -14 10 -14 c14 -18 16 -20 32 -20 15 0 18 1 33 17
7 7 17 15 22 19 18 13 17 12 17 28 0 14 0 14 -11 31 -13 19 -16 23 -22 29 -6
7 -24 14 -36 15 -5 1 -13 1 -16 2 -3 0 -8 0 -9 0z"/>
<path d="M634 2433 c-12 -5 -16 -8 -20 -16 -5 -11 -5 -21 -1 -52 1 -14 4 -36
5 -48 3 -28 4 -131 2 -153 -1 -9 -3 -29 -4 -43 -1 -15 -3 -34 -5 -43 -2 -9 -3
-20 -4 -23 0 -3 -3 -16 -5 -29 -7 -35 -3 -47 23 -75 82 -85 188 -90 264 -14
27 26 48 65 57 102 8 30 7 79 -2 112 -2 7 -5 17 -5 20 -1 3 -4 8 -7 11 -3 3
-6 6 -6 6 0 1 -1 5 -3 8 -1 4 -3 7 -3 8 -1 12 -25 55 -42 74 -3 4 -6 8 -6 8 0
2 -10 8 -15 9 -2 1 -6 2 -8 2 -9 2 -19 -1 -26 -8 -6 -7 -7 -8 -7 -20 0 -12 3
-19 9 -24 1 -1 7 -11 12 -21 6 -10 11 -19 13 -20 6 -4 21 -10 29 -12 11 -3 15
-8 16 -17 3 -19 -8 -32 -25 -32 -13 0 -20 5 -24 18 -4 10 -14 25 -17 26 -1 0
-7 2 -13 4 -6 2 -13 3 -15 3 -8 0 -12 6 -14 21 -2 17 -6 28 -15 37 -11 11 -14
16 -14 27 0 13 2 15 22 34 l16 15 0 12 c0 6 -1 14 -2 17 -2 6 -14 18 -27 27
-6 4 -14 10 -20 14 -5 3 -15 9 -21 13 -6 3 -15 8 -20 11 -6 4 -13 6 -20 7 -6
1 -17 2 -24 3 -14 2 -23 2 -28 1z m59 -53 c7 -6 7 -19 1 -25 -6 -7 -19 -7 -25
-1 -7 6 -7 19 -1 25 6 7 19 7 25 1z m-4 -230 c11 -10 3 -28 -11 -28 -9 0 -16
6 -16 16 0 14 17 22 27 12z m56 -68 c11 -10 3 -28 -11 -28 -9 0 -16 6 -16 16
0 14 17 22 27 12z"/>
<path d="M1606 2412 c-3 -2 -6 -5 -5 -6 1 -1 0 -2 -1 -3 -2 0 -3 -6 -3 -22 1
-12 0 -23 -1 -25 -1 -2 -9 -7 -17 -11 -23 -10 -28 -17 -34 -45 -3 -14 -4 -15
-16 -24 -7 -6 -12 -11 -12 -12 1 -1 0 -2 -1 -2 -2 -1 -3 -7 -4 -15 0 -15 0
-16 16 -39 2 -3 4 -6 4 -7 0 -1 14 -24 16 -25 2 -2 8 -13 16 -30 5 -9 14 -23
20 -31 14 -18 15 -19 24 -46 5 -12 9 -26 11 -30 2 -4 5 -16 7 -25 6 -25 21
-71 27 -81 12 -20 30 -32 69 -48 25 -10 37 -8 56 8 12 10 15 11 25 11 6 0 12
-1 19 -5 24 -15 35 -16 56 -2 74 48 104 141 75 233 -9 29 -14 35 -47 56 -4 2
-10 8 -14 13 -7 9 -21 20 -35 26 -11 5 -13 9 -12 33 0 25 -4 36 -16 45 -5 3
-8 6 -9 7 -4 4 -30 23 -59 41 -19 12 -78 42 -105 53 -31 12 -40 14 -50 8z"/>
</g>
</svg>
