<?xml version="1.0" standalone="no"?>
<!DOCTYPE svg PUBLIC "-//W3C//DTD SVG 20010904//EN"
 "http://www.w3.org/TR/2001/REC-SVG-20010904/DTD/svg10.dtd">
<svg version="1.0" xmlns="http://www.w3.org/2000/svg"
 width="1103.000000pt" height="2850.000000pt" viewBox="0 0 1103.000000 2850.000000"
 preserveAspectRatio="xMidYMid meet">
<metadata>
Created by potrace 1.15, written by Peter Selinger 2001-2017
</metadata>
<g transform="translate(0.000000,2850.000000) scale(0.500000,-0.500000)"
fill="#000000" stroke="none">
<path d="M305 3835 c-12 -5 -24 -18 -27 -31 -1 -6 -2 -28 -2 -56 l0 -46 7 -21
c4 -12 7 -24 7 -26 0 -2 -3 -14 -7 -26 -9 -27 -10 -52 -3 -69 2 -6 5 -11 6
-12 1 -1 4 -5 7 -11 3 -5 8 -14 12 -19 7 -11 7 -11 -4 -17 -4 -2 -9 -7 -10
-10 -2 -3 -4 -6 -5 -7 -1 -1 -4 -6 -6 -12 -3 -9 -4 -14 -4 -42 0 -19 1 -36 2
-40 4 -11 14 -21 27 -25 10 -4 12 -4 18 -5 2 0 6 -3 9 -6 5 -5 6 -7 6 -18 0
-16 -4 -21 -26 -27 -29 -8 -38 -8 -52 -2 -6 3 -11 6 -12 7 -1 1 -5 3 -9 5 -12
6 -165 7 -178 2 -11 -4 -18 -12 -21 -25 -2 -9 -2 -11 5 -35 9 -31 15 -44 26
-51 14 -10 17 -10 96 -10 l73 0 7 -6 c5 -4 6 -7 6 -14 1 -6 3 -16 6 -23 12
-32 11 -45 -7 -63 -18 -18 -21 -25 -30 -67 -4 -21 -10 -46 -12 -56 -2 -10 -4
-20 -5 -22 -3 -16 -23 -93 -36 -138 -21 -75 -72 -213 -90 -249 -7 -13 0 -37
11 -38 1 0 3 0 4 -1 2 -1 8 -1 13 0 41 5 44 4 52 -16 6 -15 14 -26 20 -28 16
-6 32 0 41 15 3 4 8 11 11 15 6 10 14 33 16 49 1 8 3 12 7 16 6 6 7 6 18 6 11
0 12 0 18 -6 9 -8 8 -23 0 -41 -15 -29 -14 -20 -14 -161 0 -121 0 -127 4 -136
8 -17 17 -22 41 -23 14 -1 16 -1 19 -5 6 -7 2 -21 -7 -36 -3 -4 -7 -16 -10
-26 -7 -30 -8 -30 -21 -40 -10 -7 -17 -16 -21 -24 -4 -7 -5 -26 -2 -37 1 -5 9
-17 9 -14 0 1 6 2 12 2 l13 -1 0 -7 0 -7 -13 -1 c-6 0 -12 1 -12 2 0 3 -8 -9
-9 -14 -1 -3 -2 -27 -2 -54 -1 -40 -1 -49 2 -56 6 -16 20 -24 39 -23 17 1 31
0 43 -2 18 -3 82 3 101 10 3 1 11 3 19 5 16 4 36 14 41 20 3 5 5 7 16 24 4 7
10 14 12 16 15 12 23 17 39 26 35 18 36 20 35 89 -1 42 -1 50 -5 55 -4 9 -12
16 -24 23 -18 10 -20 14 -19 37 0 8 8 18 17 20 3 1 5 2 5 3 0 1 1 1 3 1 4 -2
14 6 18 13 4 6 4 14 4 98 0 111 3 100 -34 131 -11 9 -10 34 0 43 5 4 5 6 6 19
0 8 0 16 -1 16 -1 1 -1 2 -1 4 0 1 -23 10 -28 11 -3 0 -8 15 -8 23 0 17 7 25
24 28 20 3 36 13 40 27 1 3 2 22 3 43 1 37 1 39 6 46 3 4 5 6 6 4 0 -1 4 -5 9
-8 13 -8 28 -7 46 5 11 7 15 9 24 9 20 0 25 -7 34 -41 7 -27 23 -74 29 -83 5
-6 9 -10 18 -14 l11 -6 124 -1 125 -1 5 -5 c2 -3 4 -6 4 -7 -1 0 -4 -13 -7
-27 -3 -15 -7 -30 -7 -33 -3 -10 -1 -24 4 -40 9 -26 7 -34 -9 -52 -4 -5 -10
-14 -13 -20 -3 -7 -7 -13 -8 -15 -2 -1 -3 -3 -3 -4 0 -1 -5 -7 -12 -13 -16
-16 -38 -57 -37 -71 1 -12 2 -18 5 -20 2 -1 2 -2 1 -2 -1 0 0 -1 1 -3 1 -2 4
-3 5 -2 2 0 4 -2 6 -6 4 -11 1 -15 -11 -11 -9 3 -28 3 -35 0 -4 -2 -9 -7 -14
-15 -13 -21 -49 -66 -68 -87 -6 -6 -12 -14 -14 -18 -4 -10 -2 -26 4 -37 5 -10
7 -21 4 -32 0 -3 -1 -7 -1 -7 0 -1 -2 -3 -4 -5 -6 -7 -29 -6 -45 1 -15 7 -23
9 -32 6 -10 -2 -11 -5 -12 -22 l0 -14 9 -4 c4 -2 10 -4 12 -4 4 0 19 -5 31
-11 5 -3 13 -5 16 -5 7 0 23 6 26 10 1 1 5 5 10 8 10 6 14 6 40 -2 14 -4 19
-4 22 2 2 3 1 18 -1 20 -8 5 -7 28 2 37 5 5 7 6 16 6 12 0 16 -3 23 -17 9 -17
16 -22 31 -22 9 0 12 1 27 10 9 6 17 12 18 12 1 1 9 7 17 13 21 15 30 22 37
28 3 3 16 14 29 25 13 10 36 32 51 47 33 34 36 39 35 67 -2 27 4 38 24 41 18
2 35 10 45 21 21 24 70 123 95 192 7 19 22 69 23 75 0 1 3 4 7 7 l7 6 69 0 69
0 6 -6 c4 -3 7 -6 6 -6 0 -1 -1 -10 -2 -21 -1 -11 -2 -27 -2 -36 -2 -27 -7
-101 -8 -111 -1 -12 -7 -63 -8 -73 -1 -4 -1 -10 -2 -12 0 -2 -2 -12 -4 -21 -2
-9 -3 -19 -4 -21 -9 -39 -15 -44 -46 -46 -10 0 -21 -2 -24 -3 -3 -1 -6 -2 -7
-2 -3 -1 -12 -5 -17 -9 -12 -9 -20 -11 -42 -12 -12 0 -27 -1 -32 -2 -8 -1 -11
-1 -13 2 -1 2 -4 3 -5 3 -1 0 -5 4 -8 9 -9 13 -21 19 -36 20 -27 3 -45 -9 -52
-32 -8 -28 8 -50 44 -60 32 -9 69 -26 93 -42 7 -5 26 -25 30 -31 8 -12 25 -30
28 -30 1 0 5 -3 8 -6 7 -7 7 -12 4 -28 -2 -10 0 -32 4 -34 1 0 2 -1 2 -3 0 -6
12 -15 45 -31 14 -7 18 -10 25 -20 16 -22 29 -28 58 -23 53 9 115 33 150 58 6
5 13 10 16 12 11 8 42 41 53 57 12 19 34 61 36 71 0 1 1 3 2 5 3 7 14 44 16
54 10 48 11 55 9 71 -1 9 -3 20 -5 25 -5 15 -6 33 -2 42 2 4 5 8 5 8 3 0 15
20 18 28 3 9 3 15 7 65 3 43 4 60 6 111 2 39 3 41 28 53 29 15 41 27 41 44 0
12 -12 20 -30 21 -11 0 -18 6 -18 16 0 10 -6 34 -9 39 -5 9 -12 13 -30 22 -21
11 -23 12 -35 29 -10 14 -14 18 -31 31 -5 4 -10 8 -11 9 -1 1 -5 5 -11 9 -5 4
-12 10 -14 12 -2 2 -9 8 -16 13 -7 5 -13 10 -14 11 -5 6 -22 17 -25 17 -2 0
-4 1 -4 2 0 2 -1 2 -1 1 -2 -1 -7 5 -7 9 0 2 2 6 4 8 6 8 12 25 13 37 2 19 8
25 24 26 15 0 20 -2 27 -13 13 -18 23 -25 37 -26 9 -1 11 0 33 10 35 17 46 28
53 51 7 25 0 37 -25 41 -8 1 -12 1 -14 -1 -1 -2 -7 -3 -15 -3 -11 0 -14 1 -18
5 -6 4 -6 6 -6 20 0 14 0 16 6 20 4 4 7 5 18 5 8 0 14 -1 15 -3 4 -3 25 0 32
5 9 6 10 16 10 54 -1 29 -2 34 -5 42 -6 12 -15 18 -27 18 -15 0 -25 -10 -39
-37 -8 -15 -17 -21 -33 -21 -17 0 -22 5 -24 22 -1 23 8 37 33 51 6 3 14 9 19
14 15 14 18 16 34 19 15 2 27 7 32 13 10 11 10 14 10 182 0 130 1 159 3 163 1
3 4 8 6 11 2 3 3 5 3 4 0 -1 2 1 4 3 4 5 18 32 18 36 0 1 3 7 6 13 6 10 6 13
5 24 0 6 -1 13 -1 13 0 2 -6 7 -35 29 -3 2 -8 6 -11 8 -3 2 -12 9 -20 15 -12
9 -20 13 -36 19 -20 7 -29 12 -31 19 -1 4 -12 16 -14 16 0 0 -6 5 -12 11 -6 6
-10 11 -10 11 2 0 -9 10 -16 15 -5 3 -8 6 -9 7 -4 4 -34 26 -40 29 -8 4 -27 3
-34 -2 -11 -7 -53 -53 -53 -59 -2 -11 1 -22 7 -28 4 -3 7 -6 8 -6 1 0 4 -2 7
-5 7 -8 7 -19 1 -24 -10 -9 -52 -11 -80 -5 -16 4 -24 4 -162 5 l-145 1 -22 -7
c-28 -10 -34 -10 -57 -2 -16 6 -23 8 -44 9 -29 2 -41 5 -86 22 -18 7 -41 15
-51 19 -10 3 -27 10 -37 14 -10 3 -31 11 -45 16 -14 5 -29 10 -33 12 -7 3 -32
12 -53 19 -7 3 -12 5 -13 6 0 1 -5 0 -11 -1 -14 -3 -23 -11 -27 -22 -3 -13 -3
-48 2 -67 5 -21 5 -33 0 -54 -4 -15 -4 -23 -4 -97 0 -80 0 -85 7 -101 11 -24
10 -40 -4 -43 -7 -1 -15 3 -26 15 -24 25 -26 27 -38 27 -10 1 -14 0 -25 -5
-15 -7 -15 -7 -23 0 -4 5 -5 6 -3 8 4 2 -10 8 -15 6 -3 -1 -5 -1 -5 -1 -1 1
-6 0 -12 -2 -9 -3 -10 -4 -10 -9 0 -3 -1 -4 -1 -2 -1 2 -3 5 -6 8 -4 4 -4 5
-5 112 l0 108 6 11 c3 5 6 9 6 8 0 -3 24 12 34 23 12 12 18 22 24 39 3 10 3
11 -1 27 -1 5 -7 14 -9 14 -1 0 -3 1 -5 3 -6 6 -31 9 -166 22 -76 7 -141 13
-144 14 -19 3 -56 3 -64 0z m1470 -117 c8 -15 0 -30 -15 -30 -11 0 -18 7 -18
18 0 12 7 18 20 18 9 0 10 -1 13 -6z m-1305 -6 c5 -5 6 -7 6 -17 0 -10 -1 -12
-6 -17 -5 -5 -7 -6 -17 -6 -10 0 -12 1 -17 6 -5 5 -6 7 -6 17 0 10 1 12 6 17
5 5 7 6 17 6 10 0 12 -1 17 -6z m1156 -88 c5 -5 9 -11 9 -13 1 -3 2 -5 4 -5 1
0 1 -1 -1 -2 -2 -2 -2 -2 2 -2 2 0 4 -1 4 -2 0 -1 1 -1 3 -1 4 0 29 -13 31
-17 4 -7 2 -22 -3 -27 -5 -5 -20 -7 -27 -3 -4 2 -12 16 -12 21 0 1 -2 3 -4 5
-2 2 -4 4 -4 5 0 2 -2 2 -4 2 -3 -1 -10 -1 -15 -1 -10 0 -11 0 -17 -8 -6 -8
-12 -16 -18 -28 -3 -6 -3 -16 -3 -94 l0 -87 -6 -6 c-6 -6 -7 -6 -27 -6 -20 0
-21 0 -27 6 l-6 6 1 103 c1 75 2 106 4 112 4 14 10 19 30 24 14 4 27 8 47 18
21 10 30 10 39 0z m-522 -30 c3 -1 9 -7 14 -12 10 -12 29 -21 41 -20 7 1 9 0
14 -5 l6 -6 0 -92 0 -92 -6 -6 c-6 -6 -7 -6 -22 -6 -15 0 -16 0 -21 6 -4 4 -6
8 -6 9 0 2 -2 7 -5 13 l-4 9 -16 0 c-15 0 -16 0 -21 -6 -13 -17 -17 -20 -31
-20 -11 0 -14 1 -18 5 l-6 5 0 31 c0 24 -1 32 -4 37 -2 4 -3 7 -3 8 0 1 -2 5
-4 9 -6 8 -21 13 -39 14 -8 0 -11 1 -14 4 -3 5 -3 5 0 10 3 3 6 4 14 5 12 0
33 5 42 9 7 4 22 4 28 0 3 -2 7 -10 12 -22 8 -21 13 -28 23 -32 13 -5 23 -4
31 4 11 11 15 22 15 45 0 21 -3 31 -12 39 -5 5 -26 15 -31 15 -2 0 -6 3 -9 6
-5 5 -6 7 -6 17 0 10 1 12 6 17 5 5 7 6 16 6 7 0 13 -1 16 -4z m332 2 c1 0 5
-3 8 -6 5 -5 6 -7 6 -18 0 -11 -1 -13 -6 -18 -6 -6 -7 -6 -18 -6 -11 0 -12 0
-18 6 -5 5 -6 7 -6 17 0 14 3 20 12 24 5 2 8 2 22 1z m-1037 -19 c15 -3 28 -4
42 0 19 4 25 2 56 -18 20 -13 21 -15 23 -28 0 -9 -1 -13 -6 -26 -4 -11 -6 -19
-7 -27 0 -12 0 -13 8 -19 11 -10 21 -12 51 -13 8 0 14 -8 14 -21 0 -17 -7 -22
-26 -21 -8 0 -28 -5 -41 -11 -14 -6 -21 -6 -31 -1 -7 4 -24 20 -28 28 -6 11
-1 34 11 51 5 7 5 9 4 19 -1 17 -5 21 -29 30 -4 1 -10 4 -14 6 -9 4 -30 5 -34
1 -7 -6 -11 -20 -6 -27 1 -1 1 -7 0 -14 -2 -16 -8 -20 -25 -20 -15 0 -20 3
-28 20 -3 6 -7 12 -8 12 -3 0 -4 2 -2 6 0 0 1 1 2 0 1 0 2 1 4 2 1 1 4 2 7 3
7 1 22 16 27 25 2 4 4 14 4 22 2 23 8 28 32 21z m1453 -44 l-5 -5 -4 4 -5 5 4
4 5 5 4 -4 5 -5 -4 -4z m-946 -66 c3 -3 4 -7 4 -14 0 -13 -6 -19 -19 -19 -13
0 -19 6 -19 19 0 7 1 11 4 14 7 8 23 8 30 0z m453 -93 c10 -9 3 -26 -10 -26
-8 0 -15 7 -15 15 0 13 16 20 25 11z m264 -9 c3 -2 3 -4 1 -7 -2 -2 -4 -4 -5
-4 -2 0 -4 9 -2 11 3 4 3 4 6 0z m-15 -45 c0 -2 1 -5 3 -7 4 -6 4 -19 -1 -24
-6 -7 -19 -7 -25 -1 -7 7 -7 20 1 26 3 3 6 7 8 10 2 3 3 3 7 2 4 -3 4 -2 1 1
-3 4 -3 4 2 0 2 -2 4 -5 4 -7z m-230 -21 c3 -3 4 -7 4 -14 0 -13 -6 -19 -19
-19 -13 0 -19 6 -19 19 0 14 5 19 19 19 8 0 11 -1 15 -5z m-924 0 c21 -9 20
-45 -2 -54 -10 -5 -28 -1 -34 6 -9 10 -9 32 0 42 7 8 24 11 36 6z m641 -13 c3
-2 5 -5 5 -6 0 -1 2 -8 5 -15 9 -22 3 -28 -26 -25 -23 2 -26 4 -26 25 0 14 0
16 6 20 7 7 28 7 36 1z m758 -19 c3 -3 3 -3 0 -6 -3 -3 -3 -3 -6 0 -3 2 -3 3
-1 6 4 4 4 4 7 0z m-149 -15 c0 0 -2 -3 -5 -5 -5 -3 -5 -3 -10 1 l-5 5 4 4 4
5 6 -4 c3 -3 6 -5 6 -6z m-827 -18 c10 -9 3 -26 -10 -26 -8 0 -15 7 -15 15 0
13 16 20 25 11z m296 -7 l6 -6 0 -95 0 -95 -6 -6 c-6 -6 -7 -6 -22 -6 -15 0
-16 0 -22 6 -4 4 -6 7 -5 10 1 8 -13 37 -17 34 0 -1 -1 0 -2 2 -1 2 -4 3 -10
3 -14 0 -18 -2 -37 -23 -6 -6 -8 -7 -15 -7 -18 0 -22 15 -10 41 3 7 7 15 8 18
7 15 18 22 39 24 20 2 37 12 41 25 4 10 4 57 0 64 -2 4 -2 6 2 9 7 7 10 8 27
8 16 0 17 0 23 -6z m392 0 l6 -6 -1 -34 c0 -37 1 -45 9 -55 6 -7 23 -15 35
-17 13 -3 19 -11 19 -27 0 -16 -6 -24 -19 -27 -21 -3 -42 -19 -40 -29 0 -1 -1
-2 -3 -2 -1 0 -5 -2 -7 -5 -5 -6 -6 -6 -26 -6 -20 0 -21 0 -27 6 l-6 6 0 95 0
95 6 6 c6 6 6 6 27 6 20 0 21 0 27 -6z m188 -2 c8 -11 -7 -22 -16 -13 -5 6 -6
10 0 14 6 5 12 5 16 -1z m-368 -26 c12 -7 14 -33 3 -43 -8 -9 -32 -9 -40 0 -9
8 -9 32 0 41 7 7 27 8 37 2z m-600 -4 l6 -6 -1 -75 c-1 -78 -1 -76 -9 -85 -2
-2 -3 -2 -3 -1 -3 8 -93 55 -134 70 -22 9 -25 13 -23 38 1 10 2 25 2 35 0 17
0 18 6 24 l6 6 72 0 72 0 6 -6z m481 -59 c5 -5 5 -15 0 -20 -9 -9 -24 -2 -24
10 0 8 6 14 14 14 3 0 8 -2 10 -4z m-897 -38 c7 -6 7 -20 1 -25 -5 -4 -15 -9
-27 -11 -5 -1 -9 -4 -12 -7 -9 -13 -21 -23 -27 -23 -9 0 -16 7 -16 15 0 8 4
12 18 18 12 6 13 6 11 3 -1 -1 1 -1 4 1 3 2 5 4 5 6 0 2 7 11 17 22 7 7 19 7
26 1z m127 -13 c9 -7 9 -12 2 -20 -12 -13 -30 -7 -30 9 0 14 17 21 28 11z
m481 -1 c4 -4 5 -7 5 -13 0 -10 -5 -16 -17 -19 -7 -2 -8 -2 -12 3 -7 7 -7 22
-1 28 6 7 19 7 25 1z m-406 -7 c4 -4 5 -7 5 -13 0 -18 -19 -25 -33 -11 -9 8
-9 14 0 23 9 8 21 9 28 1z m366 -53 c2 -3 3 -9 3 -17 0 -15 -5 -21 -20 -21
-14 0 -20 6 -20 19 0 16 7 22 26 23 6 0 9 -1 11 -4z m-290 -29 c5 -5 6 -6 4
-22 -1 -15 -7 -39 -13 -48 -6 -10 -32 -10 -40 0 -8 11 -2 41 12 62 8 11 11 13
23 13 7 0 10 -1 14 -5z m973 -12 c6 -4 8 -12 8 -26 -2 -16 -7 -21 -25 -21 -11
0 -14 1 -18 5 -6 4 -6 6 -6 20 0 13 1 16 4 18 2 2 4 4 3 4 -4 6 25 5 34 0z
m149 -13 c7 -6 7 -18 1 -23 -6 -6 -28 -10 -38 -8 -15 3 -18 11 -7 22 12 12 36
17 44 9z m-400 -15 c6 -4 6 -6 6 -20 0 -14 0 -16 -6 -20 -4 -4 -7 -5 -18 -5
-11 0 -14 1 -18 5 -6 4 -6 6 -6 20 0 14 0 16 6 20 4 4 7 5 18 5 11 0 14 -1 18
-5z m-892 -7 c8 -4 11 -12 12 -31 1 -20 8 -35 19 -43 11 -7 15 -13 15 -24 0
-9 -1 -11 -7 -16 -5 -6 -7 -7 -17 -6 -7 0 -13 0 -15 1 -5 1 -9 12 -7 17 1 5
-2 21 -5 26 -1 2 -3 4 -3 6 -3 5 -12 13 -22 19 -10 6 -14 13 -14 27 1 23 19
33 44 24z m300 -6 c7 -3 12 -13 12 -25 0 -19 -9 -28 -28 -28 -19 0 -28 9 -28
28 0 24 19 34 44 25z m707 -8 c7 -9 8 -19 2 -25 -2 -1 -4 -2 -4 -2 0 1 -2 0
-4 -1 -8 -4 -20 -3 -26 3 -10 10 -4 32 10 33 11 2 16 0 22 -8z m-606 -37 c11
-6 34 -6 45 -1 12 5 19 5 24 0 7 -6 7 -17 0 -23 -7 -7 -17 -7 -34 2 -14 7 -35
11 -38 7 -2 -3 -6 -2 -10 3 -3 5 -3 5 0 10 5 6 5 6 13 2z m692 -28 c-1 -28 8
-41 28 -43 7 -1 13 -1 14 0 0 1 7 3 14 6 15 4 23 4 33 -4 3 -2 9 -4 13 -5 12
-2 30 -9 30 -11 0 -1 -2 -3 -4 -4 -2 -1 -8 -6 -13 -11 -8 -8 -55 -52 -70 -66
-4 -4 -14 -13 -21 -19 -20 -19 -24 -21 -71 -22 -41 -1 -46 -2 -53 -11 -5 -5
-11 -23 -10 -32 1 -21 -26 -23 -31 -2 -1 3 -2 5 -3 5 0 0 -3 2 -6 5 -3 3 -6 4
-7 3 -1 0 -1 0 0 1 0 2 0 3 -2 4 -1 1 -3 4 -4 6 -1 2 -3 3 -10 3 -11 0 -14 -6
-12 -24 2 -28 -8 -42 -30 -41 -9 0 -64 22 -70 27 -11 11 -10 33 3 48 4 5 10
13 13 17 16 21 21 24 36 23 8 0 13 -1 24 -7 12 -6 14 -7 25 -6 13 1 16 2 31
15 15 14 21 27 22 46 2 20 8 30 21 36 14 7 21 15 36 45 8 15 14 29 14 31 -2 7
10 12 32 14 17 1 17 1 23 -5 6 -6 6 -6 5 -22z m110 19 c7 -7 3 -18 -8 -21 -5
-1 -6 0 -9 6 -4 8 -4 10 1 15 4 4 12 4 16 0z m-597 -49 c2 -5 0 -128 -2 -135
0 -2 -2 -6 -5 -9 l-5 -5 -99 -1 -99 0 -17 -7 c-27 -10 -40 -7 -41 10 0 11 6
17 20 19 15 1 33 8 40 15 6 6 23 41 27 55 3 10 15 26 18 24 5 -3 68 10 95 20
19 6 57 25 57 27 0 4 10 -8 11 -13z m249 5 c5 -3 11 -7 13 -9 2 -2 9 -7 14
-11 17 -10 21 -16 21 -30 0 -11 -1 -13 -6 -18 -6 -6 -7 -6 -21 -6 -8 0 -16 4
-30 17 -4 4 -12 10 -17 14 -12 8 -16 14 -16 27 0 9 1 11 6 16 8 8 23 9 36 0z
m-877 -45 c0 -1 -2 -4 -4 -5 -4 -4 -5 -4 -9 1 l-4 4 5 6 5 5 4 -4 c2 -3 3 -6
3 -7z m721 -33 c5 -6 5 -12 0 -18 -7 -8 -22 -2 -22 9 0 11 15 17 22 9z m-940
-38 c5 -6 5 -12 0 -18 -7 -8 -22 -2 -22 9 0 11 15 17 22 9z m1542 -24 c14 -14
4 -43 -14 -41 -2 0 -6 1 -9 1 -3 0 -8 2 -11 6 -5 5 -6 7 -6 17 0 10 1 12 6 17
5 5 7 6 17 6 10 0 12 -1 17 -6z m-1297 -73 c2 -2 3 -7 3 -13 0 -11 5 -35 8
-39 7 -9 6 -31 -2 -40 -9 -11 -31 -11 -43 0 -10 8 -10 33 0 43 9 10 15 19 20
33 5 12 9 19 11 19 0 0 2 -1 3 -3z m1337 -10 c6 -6 6 -19 0 -30 -14 -25 -21
-32 -36 -39 -8 -4 -8 -4 -13 1 -6 5 -6 9 -2 16 1 2 3 7 4 11 1 9 10 31 16 40
5 5 6 6 16 6 8 0 11 -1 15 -5z m-159 -36 c6 -4 6 -6 6 -20 0 -14 0 -16 -6 -20
-4 -4 -7 -5 -18 -5 -11 0 -14 1 -18 5 -6 4 -6 6 -6 20 0 14 0 16 6 20 4 4 7 5
18 5 11 0 14 -1 18 -5z m-388 -12 c12 -12 3 -31 -13 -31 -11 0 -18 7 -18 18 0
11 7 18 18 18 6 0 9 -1 13 -5z m485 -41 c4 -7 -2 -36 -9 -41 -8 -7 -28 -7 -36
0 -6 4 -6 6 -6 20 0 21 2 22 32 28 3 1 6 2 7 2 1 1 10 -5 12 -9z m-565 -85 c8
-5 12 -19 9 -31 -2 -6 -1 -10 3 -30 1 -3 7 -10 13 -16 12 -11 12 -12 12 -22 0
-14 -6 -20 -19 -20 -11 0 -16 3 -28 16 -4 5 -9 9 -10 10 -1 1 -4 4 -6 6 -3 2
-14 5 -24 8 -24 5 -29 9 -29 20 0 10 2 13 18 30 7 7 16 17 20 22 10 12 29 15
41 7z m549 -35 c7 -7 3 -18 -6 -20 -5 -1 -14 6 -14 11 0 11 13 16 20 9z m-57
-34 c4 -5 4 -7 3 -23 0 -3 -3 -8 -6 -11 -5 -5 -7 -6 -17 -6 -10 0 -12 1 -17 6
-5 5 -6 7 -6 17 0 10 1 12 6 17 6 6 7 6 19 6 11 -1 14 -2 18 -6z m-1126 -1 c3
-5 3 -5 0 -10 -2 -3 -5 -5 -7 -5 -2 0 -5 2 -7 5 -3 5 -3 5 0 10 2 3 5 5 7 5 2
0 5 -2 7 -5z m-156 -47 c10 -9 3 -26 -10 -26 -8 0 -15 7 -15 15 0 13 16 20 25
11z m77 -10 c5 -6 5 -12 0 -18 -7 -8 -22 -2 -22 9 0 11 15 17 22 9z m90 -68
c5 -5 6 -7 6 -19 0 -17 -4 -27 -11 -27 -8 0 -26 8 -30 13 -8 8 -7 25 1 33 5 5
7 6 17 6 10 0 12 -1 17 -6z m1223 -27 c6 -4 6 -6 6 -20 0 -14 0 -16 -6 -20 -4
-4 -7 -5 -18 -5 -11 0 -14 1 -18 5 -6 4 -6 6 -6 20 0 14 0 16 6 20 4 4 7 5 18
5 11 0 14 -1 18 -5z m-180 -44 c9 -9 6 -28 -8 -43 -5 -5 -8 -19 -6 -26 1 -3 2
-6 1 -6 0 -1 3 -3 7 -4 4 -2 7 -3 7 -4 0 -1 3 -1 7 -2 6 0 13 -6 13 -11 0 -5
-6 -11 -12 -11 -3 0 -10 -2 -15 -5 -14 -6 -18 -14 -18 -36 1 -14 0 -17 -3 -20
-6 -7 -15 -6 -29 0 -13 6 -38 13 -40 12 -2 -3 -23 4 -27 8 -4 4 -4 6 -3 18 1
17 3 20 21 32 8 5 15 10 17 12 1 1 5 4 9 7 20 12 33 30 39 55 5 23 10 29 26
29 7 0 10 -1 14 -5z m162 -89 c7 -6 6 -16 0 -31 -3 -6 -7 -17 -10 -26 -8 -24
-12 -28 -19 -18 -3 3 -3 6 -1 25 2 11 2 26 2 32 -1 11 -1 13 3 17 6 7 19 7 25
1z m-1434 -56 c14 -13 -6 -35 -19 -23 -5 5 -5 18 -1 23 5 5 15 5 20 0z"/>
<path d="M94 2476 c-23 -5 -27 -42 -5 -49 15 -6 31 -5 45 0 16 7 18 9 16 21
-1 6 -1 11 0 11 3 2 2 5 -1 5 -2 0 -3 1 -2 2 2 3 -20 10 -32 11 -7 0 -16 0
-21 -1z"/>
<path d="M2 2401 c-3 -2 -2 -27 0 -28 1 -1 2 -2 1 -3 -1 -1 0 -2 2 -2 2 0 3
-1 3 -2 0 -2 10 -6 19 -7 8 0 9 0 12 6 5 9 1 27 -6 32 -5 3 -29 6 -31 4z"/>
<path d="M688 1983 c-2 -1 -14 -9 -27 -17 -28 -18 -33 -23 -33 -41 0 -11 1
-13 8 -23 10 -15 21 -23 35 -26 l11 -2 39 13 c44 15 55 20 63 28 10 11 13 29
6 36 -6 5 -22 9 -35 9 -12 0 -13 0 -22 10 -6 6 -13 12 -16 13 -9 3 -25 4 -29
0z"/>
</g>
</svg>
