<?xml version="1.0" standalone="no"?>
<!DOCTYPE svg PUBLIC "-//W3C//DTD SVG 20010904//EN"
 "http://www.w3.org/TR/2001/REC-SVG-20010904/DTD/svg10.dtd">
<svg version="1.0" xmlns="http://www.w3.org/2000/svg"
 width="699.000000pt" height="2850.000000pt" viewBox="0 0 699.000000 2850.000000"
 preserveAspectRatio="xMidYMid meet">
<metadata>
Created by potrace 1.15, written by Peter Selinger 2001-2017
</metadata>
<g transform="translate(0.000000,2850.000000) scale(0.500000,-0.500000)"
fill="#000000" stroke="none">
<path d="M958 3970 c-7 -2 -16 -6 -20 -9 -1 -2 -3 -3 -4 -3 -2 0 -8 -14 -9
-22 -1 -4 0 -15 2 -24 4 -25 0 -37 -15 -43 -8 -4 -20 -2 -37 5 -21 7 -31 8
-49 5 -29 -5 -69 -1 -105 12 -12 4 -59 23 -67 27 -29 15 -81 35 -107 41 -67
16 -128 10 -183 -16 -63 -30 -113 -92 -138 -172 -11 -36 -11 -50 2 -62 9 -9
22 -13 33 -11 16 4 24 9 40 31 20 27 35 39 63 49 41 15 86 14 134 -1 8 -3 17
-6 19 -7 2 -1 12 -5 21 -10 9 -4 31 -14 47 -22 40 -20 50 -20 76 -1 6 4 11 5
18 6 17 0 20 -2 30 -17 18 -27 29 -33 60 -31 50 3 90 17 129 45 33 23 67 66
77 96 6 18 17 47 20 51 3 4 7 16 11 31 5 19 -6 40 -25 50 -9 4 -12 5 -23 2z"/>
<path d="M547 3678 c-16 -5 -22 -10 -51 -39 -34 -33 -37 -40 -29 -67 4 -14 4
-27 -1 -41 -6 -17 -11 -22 -27 -24 -8 -2 -18 -5 -28 -9 -14 -6 -22 -8 -40 -9
-10 0 -21 -2 -25 -4 -4 -1 -21 -17 -39 -35 -37 -38 -38 -40 -39 -70 0 -10 -1
-22 -2 -26 -3 -9 -1 -25 3 -31 6 -8 20 -9 34 -2 16 7 35 16 49 23 15 7 35 15
58 26 9 5 17 8 17 8 2 0 5 4 10 11 5 7 9 26 7 36 -1 12 5 19 16 19 5 0 8 -1 8
-2 0 -2 24 -14 33 -15 4 -1 10 -2 12 -2 2 0 6 1 8 2 2 2 5 3 7 3 6 0 27 7 43
15 36 17 46 17 82 0 13 -6 28 -13 32 -15 4 -2 16 -7 25 -12 9 -4 22 -10 27
-12 10 -4 18 -8 51 -23 35 -17 46 -22 56 -26 6 -3 16 -8 23 -11 28 -13 27 -13
41 -11 8 0 17 2 22 3 6 2 11 2 23 0 32 -6 44 -1 43 20 0 15 -4 19 -55 71 l-46
45 -12 0 c-13 0 -21 -3 -32 -14 -7 -8 -10 -9 -23 -8 -9 0 -18 9 -18 18 -1 13
0 15 10 26 5 6 9 11 9 12 -1 1 0 2 1 3 1 1 2 7 2 13 l0 12 -44 44 c-87 86 -90
89 -103 95 l-12 6 -58 0 c-52 1 -59 1 -68 -3z"/>
<path d="M552 3229 c-4 -1 -18 -2 -32 -3 -14 -1 -34 -4 -44 -5 -10 -2 -22 -3
-26 -4 -69 -10 -151 -41 -202 -74 -38 -26 -37 -23 -37 -58 0 -29 -1 -31 -23
-31 -28 1 -38 -4 -50 -24 -26 -44 -41 -104 -33 -133 9 -35 42 -74 75 -88 6 -3
12 -6 14 -7 2 -1 10 -3 17 -5 17 -4 30 -3 38 3 5 5 12 24 11 35 0 13 9 20 21
16 2 -1 6 -8 10 -16 8 -17 14 -21 27 -21 11 0 19 5 36 22 34 32 56 84 61 143
4 54 13 136 15 139 4 8 9 10 31 12 50 4 106 -1 136 -13 25 -10 38 -20 58 -47
5 -7 11 -12 22 -17 19 -10 22 -15 17 -27 -2 -5 -5 -11 -6 -14 -6 -8 -9 -28 -8
-38 4 -19 5 -62 6 -129 l0 -70 -5 -7 c-3 -4 -8 -7 -10 -8 -8 -1 -136 -35 -153
-40 -4 -1 -9 -3 -11 -3 -6 -1 -65 -20 -94 -30 -45 -15 -75 -27 -109 -43 -18
-9 -37 -18 -42 -20 -10 -5 -46 -26 -50 -29 -1 -2 -3 -3 -4 -3 -4 0 -42 -32
-59 -49 -19 -19 -21 -21 -29 -33 -3 -4 -5 -7 -6 -8 -6 -4 -26 -45 -34 -68 -10
-31 -10 -44 2 -55 5 -6 19 -13 29 -14 8 -2 14 -6 16 -11 1 -5 12 -8 24 -7 4 0
10 1 12 1 2 0 6 3 9 6 9 10 29 11 36 2 5 -6 5 -24 1 -30 -7 -8 -28 -9 -35 -1
-9 10 -26 12 -39 4 -4 -3 -7 -5 -6 -5 4 0 -11 -12 -16 -12 -7 0 -6 0 -19 -6
-27 -11 -30 -28 -15 -73 32 -97 115 -165 224 -185 25 -5 87 -7 114 -4 9 1 21
2 28 3 7 1 15 3 18 4 3 1 10 3 14 4 21 3 76 26 104 44 27 17 53 39 89 74 18
17 22 21 28 21 5 0 14 -7 14 -12 0 -6 7 -9 20 -10 13 0 14 0 19 5 12 14 14 15
22 15 11 0 17 -6 17 -17 0 -13 -12 -21 -29 -20 -5 0 -7 -1 -8 -3 -1 -4 -2 -14
-1 -17 1 -5 2 -6 2 -11 0 -8 18 -26 42 -42 37 -24 81 -37 136 -39 37 -2 47 1
61 18 20 23 20 23 30 23 7 0 13 -2 23 -7 19 -10 32 -11 47 -2 6 3 12 7 15 9 3
1 9 5 13 9 4 3 11 9 15 13 10 8 22 20 28 28 3 3 7 8 9 11 6 6 26 41 29 49 5
12 -4 35 -16 44 -7 5 -28 4 -36 -1 -4 -4 -20 -23 -33 -40 -5 -7 -9 -27 -9 -42
1 -17 -4 -23 -19 -23 -10 0 -15 3 -23 13 -4 5 -24 18 -28 18 -1 0 -2 1 -3 2
-2 0 -6 1 -10 2 -19 3 -26 10 -26 28 0 9 5 22 9 25 1 1 4 6 8 11 14 23 6 39
-28 56 -11 5 -14 11 -15 27 -1 17 7 39 17 45 24 16 32 26 33 40 0 10 -3 18
-12 26 -11 11 -18 22 -22 32 -4 10 -11 18 -32 36 -9 8 -9 9 -9 19 0 19 10 26
30 21 17 -4 44 4 44 13 0 2 1 4 2 5 3 2 1 317 -2 345 -2 20 -7 38 -13 47 -5 9
-9 25 -10 46 -1 20 -2 23 -11 45 -6 13 -13 27 -16 33 -3 5 -6 9 -6 10 0 1 -17
26 -23 33 -11 13 -30 31 -43 42 -8 6 -15 11 -16 12 -4 4 -42 24 -57 31 -61 25
-112 33 -207 34 -34 0 -64 0 -68 0z m308 -158 l-5 -5 -4 4 -5 5 4 4 5 5 4 -4
5 -5 -4 -4z m-25 -126 c4 -4 5 -7 5 -15 0 -14 -6 -20 -20 -20 -14 0 -20 6 -20
20 0 14 6 20 20 20 8 0 11 -1 15 -5z m19 -100 l-5 -5 -4 4 -5 5 4 4 5 5 4 -4
5 -5 -4 -4z m-168 -362 l-1 -186 -5 -11 c-3 -6 -6 -10 -6 -9 0 1 -1 0 -2 -1
-2 -2 -11 -10 -21 -17 -10 -7 -19 -14 -21 -16 -30 -23 -74 -37 -111 -36 -47 2
-84 19 -102 48 -2 3 -9 12 -14 20 -6 8 -12 17 -14 21 -4 7 -4 26 -1 42 1 6 2
21 2 34 1 31 -4 41 -23 55 -15 11 -17 14 -17 27 0 11 6 20 13 20 7 0 30 7 37
11 8 4 14 11 23 29 38 71 107 120 219 155 l33 10 6 -5 5 -5 0 -186z m91 169
c7 -6 7 -19 1 -25 -6 -7 -19 -7 -25 -1 -7 6 -7 19 -1 25 6 7 19 7 25 1z m-498
-112 c7 -3 12 -13 12 -25 0 -19 -9 -28 -28 -28 -19 0 -28 9 -28 28 0 24 19 34
44 25z m646 -144 c6 -6 7 -20 2 -24 -2 -1 -3 -4 -3 -5 0 -1 -2 -5 -4 -7 -5 -7
-11 -31 -8 -36 2 -3 1 -5 -1 -9 -5 -6 -9 -6 -14 0 -3 5 -3 5 0 12 4 10 5 42 2
45 -5 4 -4 18 1 23 6 7 19 7 25 1z m-87 -12 c1 0 5 -3 8 -6 5 -5 6 -7 6 -18 0
-11 -1 -13 -6 -18 -6 -6 -7 -6 -18 -6 -11 0 -12 0 -18 6 -5 5 -6 7 -6 17 0 14
3 20 12 24 5 2 8 2 22 1z m-532 -107 c3 -3 4 -7 4 -14 0 -13 -6 -19 -19 -19
-13 0 -19 6 -19 19 0 7 1 11 4 14 7 8 23 8 30 0z m97 -97 c5 -5 6 -7 6 -16 0
-17 -8 -23 -27 -22 -17 1 -26 25 -13 38 9 9 24 9 34 0z m55 -64 c9 -9 2 -24
-10 -24 -18 0 -19 28 0 28 3 0 8 -2 10 -4z"/>
</g>
</svg>
