<?xml version="1.0" standalone="no"?>
<!DOCTYPE svg PUBLIC "-//W3C//DTD SVG 20010904//EN"
 "http://www.w3.org/TR/2001/REC-SVG-20010904/DTD/svg10.dtd">
<svg version="1.0" xmlns="http://www.w3.org/2000/svg"
 width="1100.000000pt" height="2850.000000pt" viewBox="0 0 1100.000000 2850.000000"
 preserveAspectRatio="xMidYMid meet">
<metadata>
Created by potrace 1.15, written by Peter Selinger 2001-2017
</metadata>
<g transform="translate(0.000000,2850.000000) scale(0.500000,-0.500000)"
fill="#000000" stroke="none">
<path d="M289 3829 c-20 -7 -26 -17 -27 -48 0 -12 1 -25 2 -29 2 -7 11 -19 15
-19 1 0 7 -2 12 -4 6 -1 11 -2 12 -1 1 2 17 1 23 -1 18 -8 20 -36 4 -52 -9 -9
-13 -13 -11 -13 1 0 0 -1 -1 -3 -4 -5 -5 -25 -1 -33 5 -9 6 -35 3 -47 -2 -9
-9 -19 -12 -19 -4 0 -28 -12 -33 -17 -11 -10 -12 -16 -13 -68 -1 -46 -1 -49
-5 -52 -2 -2 -5 -5 -6 -7 0 -2 -1 -1 -1 2 0 2 -2 7 -3 10 -17 26 -61 33 -81
12 -10 -11 -12 -18 -11 -52 2 -48 -4 -97 -19 -154 -7 -26 -8 -41 -2 -61 2 -8
4 -20 4 -27 0 -17 -3 -22 -22 -28 -25 -7 -34 -13 -48 -27 -26 -27 -38 -41 -38
-44 0 -2 -1 -3 -2 -3 -1 0 -2 -2 -3 -3 0 -2 -3 -8 -6 -13 -27 -45 -23 -105 9
-149 9 -13 32 -33 41 -38 24 -11 41 -1 43 26 0 6 2 11 3 13 2 2 3 4 3 5 0 1 1
3 7 10 7 8 11 28 7 35 -2 3 -2 5 1 9 3 5 3 5 31 5 15 1 30 1 33 0 13 -2 18
-24 9 -33 -6 -5 -11 -6 -27 -4 -28 4 -43 -11 -29 -30 3 -4 8 -12 11 -18 13
-23 36 -33 56 -23 13 7 33 22 33 25 0 6 10 -11 16 -27 3 -7 14 -19 23 -23 10
-6 17 -12 29 -29 17 -23 19 -26 18 -41 -2 -16 -8 -21 -24 -21 -23 1 -40 -5
-46 -18 -4 -8 -4 -11 -4 -143 0 -131 0 -137 4 -150 2 -8 5 -18 6 -22 1 -5 3
-9 4 -9 3 0 2 -13 -1 -17 -2 -1 -5 -10 -8 -20 -4 -15 -5 -21 -5 -49 0 -24 1
-34 3 -41 3 -8 11 -23 15 -25 1 -1 4 -5 7 -9 9 -14 6 -38 -7 -58 -6 -9 -12
-22 -16 -33 -2 -8 -2 -175 1 -177 0 -1 1 -3 1 -6 0 -4 17 -21 21 -21 3 0 18
-14 16 -15 0 -1 0 -4 2 -7 1 -3 5 -9 7 -15 9 -17 29 -23 50 -16 6 2 16 8 24
16 18 16 21 16 41 6 24 -12 31 -12 60 -2 23 8 39 15 62 26 8 4 16 8 18 8 5 1
15 -8 20 -17 11 -23 24 -31 48 -31 15 0 85 13 120 22 7 2 14 4 17 4 12 2 98
25 106 28 12 5 16 9 39 33 9 10 12 10 37 4 23 -6 31 -5 63 8 3 2 7 3 8 3 6 2
55 22 74 31 13 5 23 10 24 10 1 0 20 9 44 21 36 18 53 27 89 48 19 10 24 13
29 14 11 2 22 -2 36 -14 8 -6 15 -12 16 -13 1 0 10 -7 19 -14 9 -6 18 -13 19
-13 23 -18 41 -26 67 -28 17 -1 21 -4 29 -15 15 -21 23 -28 51 -41 15 -8 29
-14 31 -15 10 -6 46 2 42 8 -1 1 0 2 1 2 2 -1 3 1 3 5 0 9 6 14 10 10 2 -2 3
-4 1 -8 -3 -8 -2 -29 1 -36 4 -7 6 -9 28 -16 9 -3 17 -6 18 -7 1 -1 10 -4 19
-7 30 -9 51 -4 53 13 0 3 -1 8 -2 9 -7 9 0 23 10 23 6 0 13 -7 13 -12 0 -5
-10 -18 -12 -17 -1 0 -2 -6 -2 -15 0 -14 0 -16 5 -20 3 -4 7 -5 10 -5 5 1 11
2 15 3 2 1 4 2 5 4 2 2 3 2 3 1 0 -2 11 10 11 13 0 0 2 5 4 10 9 19 10 33 5
57 -4 20 -4 21 -1 27 2 4 8 8 13 11 14 7 25 18 35 34 5 8 15 20 21 28 14 16
17 22 21 44 4 24 6 26 32 19 3 0 12 -1 19 -1 15 0 37 9 47 20 8 8 19 28 20 38
2 10 -2 29 -6 29 -1 0 -1 1 0 1 2 2 -11 11 -21 14 -5 1 -20 4 -34 5 -21 2 -92
10 -111 13 -3 0 -10 1 -15 2 -23 3 -85 14 -121 21 -38 8 -40 8 -50 5 -12 -3
-20 -12 -25 -27 -4 -13 -9 -18 -19 -18 -14 0 -17 5 -16 26 1 28 -4 38 -23 48
-11 6 -13 13 -4 22 7 7 30 33 34 39 3 3 7 9 10 12 8 8 9 17 5 35 0 2 -2 5 -4
7 -2 2 -3 4 -3 5 0 2 -1 4 -3 6 -3 3 -5 20 -2 24 1 1 1 2 0 2 -3 0 7 13 13 17
8 6 22 7 29 3 11 -5 41 3 46 12 1 2 9 16 18 30 9 15 20 33 23 40 9 16 15 21
33 26 27 8 46 20 62 40 4 6 5 8 4 16 0 5 -1 11 -2 13 -2 6 -13 10 -29 10 -20
1 -26 5 -32 18 -5 11 -8 12 -27 14 -7 1 -11 0 -12 -1 -2 -4 -13 -2 -27 5 -16
8 -26 11 -43 12 -31 2 -38 16 -26 52 5 17 6 36 3 50 -2 8 0 14 6 17 5 2 27 -2
32 -7 4 -4 6 -17 6 -36 0 -26 12 -45 38 -59 6 -3 13 -7 14 -9 1 -2 3 -3 4 -3
1 0 4 -2 6 -4 3 -2 6 -4 7 -4 2 0 3 -1 3 -2 0 -1 1 -2 3 -2 2 0 3 -1 3 -2 0
-2 4 -2 12 -1 15 1 19 2 42 1 33 -1 54 9 68 31 7 11 7 13 7 27 -1 10 -2 18 -4
22 -3 6 -4 6 -16 6 -15 0 -19 -2 -29 -12 -9 -9 -16 -10 -22 -4 -5 6 -5 9 0 23
2 7 4 17 4 23 0 12 0 12 -16 29 -11 12 -16 33 -9 40 2 1 3 4 3 5 0 7 26 11 37
6 12 -5 15 -12 14 -33 -2 -31 5 -41 26 -41 15 0 42 9 50 18 8 8 9 10 10 18 2
14 -7 25 -29 34 -16 7 -19 10 -32 37 l-12 24 0 19 c1 20 -3 33 -10 40 -7 6
-24 21 -35 29 -7 4 -12 9 -13 9 0 1 -1 2 -2 2 -1 0 -5 2 -9 5 -7 5 -22 14 -49
27 -18 10 -20 10 -32 9 -12 0 -13 -1 -19 -8 -4 -4 -7 -8 -7 -9 1 -3 -8 -20
-11 -21 -11 -4 -21 2 -21 14 0 3 1 7 2 9 6 5 1 35 -6 37 -2 0 -2 1 1 1 2 0 7
1 10 3 9 5 24 7 55 7 36 0 45 2 60 15 12 10 10 30 -6 47 -5 6 -10 12 -10 14
-3 6 -2 21 2 34 3 8 5 21 5 35 2 24 4 28 15 31 10 2 20 -1 25 -6 3 -4 3 -7 2
-20 -2 -22 -3 -83 -1 -95 3 -16 23 -40 40 -49 8 -5 12 -5 34 -5 35 0 44 5 54
30 5 13 11 21 15 21 4 0 21 10 23 14 2 4 3 30 1 30 -1 0 -8 6 -16 14 -8 7 -19
17 -24 22 -6 5 -17 15 -26 23 -18 16 -72 63 -96 83 -8 7 -18 16 -22 19 -3 3
-8 7 -11 8 l-6 4 5 4 c6 5 9 6 29 8 24 3 42 11 58 27 17 17 22 34 14 52 -6 14
-33 38 -52 47 -20 10 -27 15 -33 27 -3 5 -6 9 -7 10 -1 1 -4 5 -7 9 -7 10 -8
10 -21 13 -8 2 -15 2 -27 0 -15 -2 -15 -2 -19 2 -3 4 -4 8 -4 18 -1 30 -4 36
-41 65 -11 8 -13 9 -24 9 -19 0 -20 -1 -52 -44 -16 -22 -42 -58 -45 -62 -2 -2
-9 -12 -16 -22 -16 -22 -23 -26 -45 -28 -13 0 -16 0 -24 5 -5 3 -11 5 -12 5
-2 0 -3 1 -2 2 0 3 -24 18 -29 18 -2 0 -6 2 -9 5 -5 4 -6 6 -6 17 -1 15 1 22
9 25 39 18 46 26 46 54 0 18 5 25 22 34 14 8 31 23 37 35 2 4 5 13 7 21 3 13
3 15 0 17 -3 3 -31 3 -35 0 -6 -5 -17 -6 -24 -1 -6 4 -8 6 -12 22 -4 15 -18
20 -62 24 -34 2 -37 2 -47 -1 -13 -5 -20 -12 -27 -31 -8 -20 -12 -24 -27 -25
-7 0 -15 1 -21 3 -14 4 -34 9 -44 10 -12 1 -25 8 -25 13 0 3 -12 27 -16 33 -7
9 -30 18 -35 14 -1 -1 -2 -2 -3 -2 -10 -1 -19 -9 -24 -22 -6 -13 -6 -95 0
-108 6 -13 18 -20 40 -22 21 -2 29 -9 29 -29 -1 -14 -5 -21 -19 -30 -10 -6
-30 -29 -36 -40 -7 -15 -7 -21 -1 -40 5 -19 5 -27 -3 -35 -6 -6 -10 -7 -45 -3
-13 1 -27 2 -30 2 -7 -1 -11 1 -23 11 -5 4 -10 8 -11 9 -1 0 -6 3 -10 5 -8 4
-13 4 -98 5 -99 0 -102 0 -112 -12 -10 -12 -10 -22 -2 -51 15 -53 27 -62 74
-60 29 1 28 1 33 6 3 3 4 8 5 17 0 7 1 13 2 14 0 0 -1 2 -3 3 -2 2 -4 5 -4 6
0 4 9 13 14 13 1 0 5 1 6 1 15 3 34 -11 25 -19 -2 -1 -2 -5 -1 -13 3 -16 5
-20 14 -25 8 -4 11 -4 74 -3 l67 0 6 -6 6 -6 0 -67 0 -67 -6 -6 c-6 -6 -7 -6
-21 -5 -14 0 -32 -3 -32 -6 0 -1 -1 -2 -3 -2 -10 0 -14 -26 -5 -37 2 -3 4 -5
5 -5 0 0 6 -3 12 -7 6 -4 13 -8 15 -8 1 -1 10 -9 19 -18 12 -12 19 -18 28 -22
29 -12 33 -16 30 -30 -2 -11 -9 -17 -20 -17 -13 0 -15 2 -27 20 -12 18 -17 21
-43 24 -20 2 -27 6 -33 18 -3 5 -12 16 -20 24 -8 8 -15 17 -15 20 -8 33 -22
48 -47 45 -13 -1 -16 -1 -19 -4 -1 -1 -5 -3 -8 -5 -4 -2 -10 -9 -15 -16 -10
-15 -13 -17 -31 -16 -31 2 -49 -1 -49 -6 0 -1 -1 -1 -3 -1 -1 1 -6 -2 -10 -8
-8 -10 -23 -20 -28 -19 -6 1 -11 8 -11 13 2 8 11 17 20 18 3 1 12 7 12 9 0 1
3 4 8 6 10 7 18 24 18 38 0 11 -1 12 -16 36 -11 16 -47 55 -67 72 -13 11 -58
41 -65 45 -2 0 -7 4 -13 7 -5 3 -20 11 -31 16 -16 8 -23 13 -26 18 l-5 7 0
106 0 106 5 8 c3 4 9 8 14 11 14 6 28 18 37 33 22 36 19 62 -10 73 -7 3 -8 3
-44 6 -32 3 -31 3 -44 -2 -10 -4 -14 -9 -25 -34 -5 -12 -10 -16 -24 -16 -9 0
-11 1 -16 6 -4 3 -6 8 -6 11 0 8 -6 26 -11 33 -8 13 -17 16 -61 20 -125 13
-125 13 -135 9z m1143 -85 c0 -6 -8 -20 -12 -22 -6 -3 -16 -2 -21 2 -7 6 -7
20 0 26 9 8 33 4 33 -6z m-119 -38 c10 -10 10 -35 0 -43 -9 -8 -23 -10 -35 -6
-19 9 -20 45 -1 53 2 1 10 2 17 1 11 0 15 -1 19 -5z m-67 -102 c5 -5 5 -11 0
-16 -10 -10 -27 5 -16 16 4 4 12 4 16 0z m90 -30 c5 -5 6 -7 6 -17 0 -10 -1
-12 -6 -17 -5 -5 -7 -6 -17 -6 -10 0 -12 1 -17 6 -5 5 -6 7 -6 17 0 10 1 12 6
17 5 5 7 6 17 6 10 0 12 -1 17 -6z m-946 -43 l-5 -5 -4 4 -5 5 4 4 5 5 4 -4 5
-5 -4 -4z m1198 5 c5 -5 5 -15 0 -20 -9 -9 -24 -2 -24 10 0 8 6 14 14 14 3 0
8 -2 10 -4z m83 -7 c5 -8 1 -16 -8 -16 -9 0 -13 8 -8 16 2 3 5 5 8 5 3 0 6 -2
8 -5z m-152 -51 c3 -4 3 -7 3 -18 -1 -7 -2 -13 -3 -13 -2 -1 -2 -6 -1 -15 2
-12 3 -14 9 -20 7 -5 9 -6 16 -5 17 3 31 19 34 41 2 12 11 19 23 19 12 0 21
-7 23 -19 1 -10 8 -24 14 -31 7 -8 17 -11 33 -11 12 0 17 -1 24 -5 6 -3 11 -5
13 -5 3 0 3 0 1 -2 -2 -1 -2 -3 0 -12 3 -13 0 -16 -13 -16 -24 0 -36 -6 -48
-24 -4 -6 -13 -19 -20 -29 -24 -32 -31 -42 -35 -47 -4 -7 -15 -13 -30 -17 -16
-4 -26 -11 -34 -24 -13 -21 -18 -24 -34 -21 -7 2 -7 2 -21 22 -5 7 -9 13 -11
13 -1 -1 -2 0 -2 1 0 1 -2 6 -4 11 -5 8 -5 10 -6 76 -1 51 0 69 1 70 3 1 9 12
9 16 0 2 1 3 2 2 4 -2 13 21 13 35 1 14 5 26 10 30 8 7 27 6 34 -2z m-1127
-32 c1 0 5 -3 8 -6 5 -5 6 -7 6 -18 0 -11 -1 -13 -6 -18 -6 -6 -7 -6 -18 -6
-11 0 -12 0 -18 6 -5 5 -6 7 -6 17 0 14 3 20 12 24 5 2 8 2 22 1z m965 -5 c5
-8 1 -16 -8 -16 -9 0 -13 8 -8 16 2 3 5 5 8 5 3 0 6 -2 8 -5z m-161 -17 c5 -5
5 -11 0 -16 -10 -10 -27 5 -16 16 4 4 12 4 16 0z m-626 -42 c5 -5 5 -11 0 -16
-10 -10 -27 5 -16 16 4 4 12 4 16 0z m743 -18 c11 -10 3 -25 -18 -33 -5 -2 -9
-5 -10 -7 -2 -5 -8 -11 -16 -16 -5 -4 -6 -3 -19 1 -17 6 -22 12 -22 26 0 16 6
22 23 24 7 1 20 3 29 5 23 5 28 5 33 0z m-1051 -15 c6 -5 10 -10 10 -11 0 -3
18 -21 23 -24 5 -2 5 -7 2 -12 -1 -1 2 -2 8 -2 13 -1 15 -1 22 -4 14 -7 17
-17 7 -27 -13 -14 -36 -31 -42 -31 -2 0 -5 2 -7 5 -3 5 -3 6 0 12 1 3 3 12 4
20 0 7 2 15 3 17 1 3 1 4 0 5 -2 1 -2 2 0 3 2 2 1 2 -3 1 -4 0 -8 1 -12 4 -4
3 -7 5 -9 5 -1 0 -5 3 -9 6 -3 3 -7 6 -9 6 -3 0 -16 14 -16 18 0 4 17 22 18
19 0 0 5 -5 10 -10z m383 -23 c4 -4 5 -7 5 -19 0 -8 -1 -19 -3 -25 -6 -22 -13
-56 -13 -67 0 -1 -3 -6 -7 -9 -6 -7 -8 -7 -16 -7 -10 1 -19 7 -19 12 0 2 -1 5
-2 7 -1 1 -4 9 -8 16 -3 7 -9 17 -13 23 -8 9 -8 10 -8 24 0 18 2 20 23 29 9 3
21 9 28 13 16 8 26 9 33 3z m-208 -5 c12 -7 14 -33 3 -43 -8 -9 -32 -9 -40 0
-9 8 -9 32 0 41 7 7 27 8 37 2z m733 -32 l-5 -5 -4 4 -5 5 4 4 5 5 4 -4 5 -5
-4 -4z m144 -12 c9 -11 5 -31 -10 -47 -9 -10 -18 -14 -29 -14 -22 0 -25 18 -9
50 12 26 13 27 30 21 7 -3 15 -7 18 -10z m-779 -68 c6 -4 6 -6 6 -22 1 -25 -7
-52 -15 -58 -8 -5 -28 -4 -35 2 -6 4 -6 6 -6 22 -1 25 7 52 15 58 8 5 28 4 35
-2z m179 -26 c5 -5 19 -42 21 -55 2 -13 -2 -18 -21 -31 -7 -5 -16 -12 -19 -15
-3 -4 -12 -9 -19 -12 -7 -4 -14 -7 -16 -8 -2 -1 -4 0 -8 6 -3 7 -4 10 -3 22 1
17 3 23 17 53 6 12 12 26 14 30 2 5 6 10 8 11 5 3 21 2 26 -1z m149 -98 c-17
-36 -34 -68 -57 -110 -5 -7 -8 -14 -8 -14 0 -1 -3 -6 -7 -12 -4 -6 -7 -11 -7
-12 0 0 -5 -8 -11 -18 -6 -10 -15 -25 -21 -34 -5 -9 -20 -31 -32 -49 -20 -30
-27 -44 -29 -57 -1 -6 -10 -15 -19 -19 -6 -3 -10 -5 -10 -6 0 -1 -2 -4 -4 -6
-3 -3 -7 -8 -10 -12 -3 -4 -7 -9 -8 -11 -15 -18 -20 -24 -20 -26 0 0 -2 1 -5
4 l-6 6 -1 164 0 165 5 11 c3 6 5 12 5 14 0 1 1 1 2 0 2 -3 22 -9 25 -8 1 1 1
0 0 -2 0 -2 0 -3 1 -2 3 2 13 -9 14 -15 1 -9 8 -13 35 -20 10 -3 37 -3 49 0
23 5 53 22 63 34 5 7 10 20 12 29 5 26 13 35 40 44 8 2 8 2 13 -3 l5 -5 -14
-30z m445 37 c0 -1 2 -3 3 -5 4 -4 -13 -8 -20 -5 -3 1 -8 2 -11 2 l-5 0 5 2
c3 1 5 2 5 3 -2 3 0 5 6 6 8 1 16 -1 17 -3z m-304 -9 c3 -3 4 -7 4 -14 0 -13
-6 -19 -19 -19 -13 0 -19 6 -19 19 0 7 1 11 4 14 7 8 23 8 30 0z m336 -51 c6
-4 13 -8 16 -10 17 -11 37 -24 50 -31 9 -5 21 -14 30 -23 9 -8 21 -18 27 -23
14 -11 36 -29 44 -36 4 -3 13 -12 22 -20 8 -8 17 -16 18 -19 3 -5 3 -6 -3 -12
-4 -3 -7 -6 -9 -6 -1 0 -7 -4 -12 -9 -11 -11 -51 -47 -63 -59 -4 -4 -18 -16
-30 -28 -12 -12 -24 -23 -26 -24 -2 -2 -7 -6 -13 -8 -26 -12 -35 -23 -36 -49
-1 -16 -3 -23 -8 -27 -12 -10 -34 -9 -43 1 -5 5 -8 20 -7 25 1 3 0 10 -2 16
-6 22 -7 39 -3 44 2 2 5 6 6 8 1 3 3 6 4 7 1 1 7 9 12 17 12 17 19 23 36 27
31 8 53 24 65 48 6 12 6 19 1 30 -7 17 -15 20 -78 30 -4 0 -21 3 -39 7 -32 5
-35 5 -64 3 -17 -2 -27 1 -39 8 -4 3 -9 6 -12 6 -8 2 -18 9 -19 13 -1 3 3 8
18 23 22 23 30 27 57 29 14 2 22 4 31 8 11 5 30 20 34 28 3 5 13 12 19 12 2 0
10 -3 16 -6z m-907 -9 c12 -7 14 -33 3 -43 -9 -10 -33 -9 -41 1 -8 10 -8 31 1
40 7 7 27 8 37 2z m1104 -14 c5 -8 1 -16 -8 -16 -9 0 -13 8 -8 16 2 3 5 5 8 5
3 0 6 -2 8 -5z m-1214 -43 c30 -11 33 -14 33 -27 0 -16 -11 -23 -31 -18 -3 0
-19 2 -34 4 -32 3 -41 6 -46 16 -3 6 -3 7 0 16 3 8 5 10 15 14 16 7 30 6 63
-5z m672 -30 c3 0 8 -3 11 -6 5 -5 6 -7 6 -17 0 -16 -7 -23 -22 -23 -19 0 -32
10 -35 26 -2 12 13 22 29 21 3 0 8 0 11 -1z m744 -50 c8 -8 7 -24 -2 -32 -5
-4 -21 -3 -26 3 -7 6 -7 21 -1 28 7 7 21 8 29 1z m-641 -12 c8 -8 2 -20 -9
-19 -5 0 -8 3 -10 10 -3 10 12 16 19 9z m-262 -12 c5 -5 5 -11 0 -16 -10 -10
-27 5 -16 16 4 4 12 4 16 0z m216 -44 c8 -8 2 -22 -9 -22 -3 0 -7 2 -9 4 -11
13 6 30 18 18z m499 -61 c5 -8 1 -16 -8 -16 -9 0 -13 8 -8 16 2 3 5 5 8 5 3 0
6 -2 8 -5z m-705 -10 c3 -2 9 -6 14 -10 4 -4 12 -8 16 -9 6 -1 10 -2 23 0 1 0
4 2 7 4 3 2 5 4 6 4 1 0 3 2 6 4 6 6 15 7 19 3 1 -2 4 -8 6 -14 2 -6 7 -16 11
-22 6 -9 8 -15 8 -20 0 -9 -6 -17 -13 -17 -5 0 -32 -8 -33 -10 -1 -1 -3 -2 -4
-3 -5 -1 -14 -15 -16 -25 -2 -6 -1 -12 3 -28 3 -10 5 -25 6 -32 1 -7 3 -18 4
-24 6 -22 7 -25 6 -31 -2 -9 -4 -13 -14 -22 -5 -5 -10 -13 -12 -18 -6 -17 -7
-22 -7 -28 0 -9 -7 -15 -17 -15 -16 0 -22 15 -14 33 4 10 5 24 0 28 -2 2 -3 2
-3 1 0 -1 -3 -1 -6 -1 -3 0 -6 1 -6 2 0 3 -12 -8 -17 -16 -3 -5 -7 -10 -10
-13 -3 -2 -5 -4 -5 -5 0 -1 -22 -36 -24 -37 -1 -1 -5 -6 -9 -13 -4 -7 -8 -12
-9 -13 -2 -1 -9 -22 -8 -24 0 -1 -1 -2 -2 -2 -1 0 -3 -3 -4 -6 -2 -5 -16 -14
-21 -14 -1 0 -4 -3 -7 -7 -2 -3 -8 -11 -13 -17 -8 -10 -9 -11 -9 -22 0 -15 3
-22 16 -32 14 -11 25 -15 38 -13 15 1 40 14 46 23 2 3 6 6 7 6 1 0 2 4 2 12
l0 12 -7 2 c-4 1 -10 2 -14 3 -11 2 -18 8 -19 18 -2 11 3 18 13 19 3 0 9 1 14
3 13 5 38 8 42 6 1 -1 7 -8 11 -15 9 -14 19 -19 33 -17 7 1 18 7 22 11 1 1 7
5 15 10 8 5 17 12 21 15 4 3 10 7 12 9 2 2 6 4 7 5 1 1 8 6 15 12 18 14 36 28
59 48 4 4 10 7 12 7 5 0 14 -7 16 -13 5 -22 50 -121 66 -147 12 -20 9 -32 -16
-55 l-18 -18 -1 -12 c0 -14 1 -17 11 -30 13 -17 7 -35 -10 -35 -9 0 -14 3 -25
14 -10 12 -32 16 -41 7 -5 -5 -40 -31 -60 -45 -8 -5 -15 -11 -16 -11 -1 -1 -7
-5 -13 -9 -17 -11 -19 -15 -18 -32 1 -14 1 -15 10 -23 5 -5 11 -9 12 -9 5 0
19 -13 17 -16 -1 -1 0 -2 1 -2 1 0 1 -2 1 -4 -1 -3 -2 -8 -2 -11 -2 -13 -8
-16 -27 -14 -18 1 -40 7 -47 13 -1 1 -5 6 -7 11 -5 10 -8 13 -15 18 -6 5 -26
9 -30 6 -15 -13 -116 -60 -179 -86 -37 -14 -36 -14 -41 -10 -3 2 -3 9 -3 112
0 123 0 123 -15 137 -4 5 -8 8 -9 8 -1 0 -6 3 -11 6 -8 5 -9 8 -12 17 -6 22
-2 35 13 41 17 6 26 13 31 25 3 6 3 27 3 153 0 98 1 148 2 151 2 6 10 15 10
11 0 -4 17 -9 30 -9 12 0 15 1 45 16 18 9 37 19 42 22 6 3 15 8 20 11 6 3 14
7 18 10 4 3 10 6 13 7 16 8 22 28 17 52 -6 24 6 41 28 40 4 0 10 -1 13 -2z
m-375 -13 c3 -6 37 -11 37 -6 0 1 3 2 6 2 4 0 7 1 7 3 2 5 11 4 14 -2 3 -5 3
-6 1 -11 -4 -6 -11 -8 -15 -3 -2 3 -5 3 -17 2 -8 0 -15 -2 -16 -3 0 -1 -2 -2
-3 -2 -1 0 -3 -1 -4 -3 0 -2 -2 -3 -4 -3 -1 0 -4 -1 -5 -3 -4 -5 -18 -4 -23 1
-7 6 -7 19 -1 25 5 5 20 7 23 3z m254 -8 c6 -4 6 -11 1 -16 -10 -10 -28 6 -18
17 5 5 9 5 17 -1z m382 -2 c4 -6 4 -24 -1 -30 -7 -9 -27 -9 -34 0 -5 6 -5 24
0 30 7 9 27 9 35 0z m568 -105 c6 -4 6 -6 6 -20 0 -14 0 -16 -6 -20 -4 -4 -7
-5 -18 -5 -11 0 -14 1 -18 5 -6 4 -6 6 -6 20 0 14 0 16 6 20 4 4 7 5 18 5 11
0 14 -1 18 -5z m-1210 -25 c14 -6 22 -9 35 -12 8 -2 17 -4 19 -4 3 0 7 -2 10
-5 6 -4 6 -6 6 -22 1 -27 -2 -50 -6 -54 -10 -10 -19 -4 -31 20 -8 17 -14 23
-26 29 -11 6 -27 13 -28 12 -5 0 -10 10 -10 19 0 17 13 25 31 17z m884 -6 c3
-3 4 -6 3 -6 -3 -2 -16 -35 -16 -43 0 -9 7 -24 12 -26 1 0 7 -2 11 -4 5 -2 13
-3 17 -4 10 -1 17 -5 34 -17 15 -12 20 -19 20 -30 0 -10 -4 -18 -15 -26 -4 -4
-7 -8 -7 -9 0 -2 -1 -3 -2 -3 -3 0 -8 -27 -6 -34 1 -6 1 -8 -4 -12 -3 -3 -6
-5 -7 -5 0 1 -4 2 -7 2 -9 2 -15 7 -21 20 -8 17 -11 27 -12 43 -2 28 -11 40
-30 40 -14 0 -27 -9 -40 -29 -9 -15 -13 -17 -22 -16 -5 0 -11 2 -14 5 -7 5
-22 7 -38 3 -15 -3 -16 -3 -22 2 -4 4 -4 4 0 16 6 25 4 38 -10 53 -13 14 -23
32 -22 41 1 10 15 33 23 36 2 1 7 3 12 5 8 4 14 4 83 3 l75 0 5 -5z m123 -8
c5 -6 5 -12 0 -18 -7 -8 -22 -2 -22 9 0 11 15 17 22 9z m-416 -60 c0 -1 2 -2
5 -3 3 -1 5 -3 5 -4 0 -2 1 -3 2 -3 4 0 -5 -8 -9 -8 -7 -1 -10 0 -14 5 -3 5
-3 5 0 10 4 5 11 7 11 3z m-81 -11 c3 -3 3 -3 0 -6 -3 -3 -3 -3 -6 0 -3 2 -3
3 -1 6 4 4 4 4 7 0z m-616 -8 c8 -5 10 -10 9 -24 -1 -10 -2 -14 -6 -17 -5 -4
-6 -4 -18 -4 -11 0 -12 0 -18 6 -5 5 -6 7 -6 17 0 14 3 20 12 24 7 3 21 2 27
-2z m772 -7 c2 -3 3 -8 3 -15 0 -17 -7 -23 -26 -21 -8 1 -12 3 -15 11 -2 4 -4
7 -5 7 -1 0 -2 1 -1 2 1 2 -12 7 -15 6 -3 0 -2 1 2 6 2 2 4 3 5 3 0 -1 4 0 7
2 14 8 38 7 45 -1z m422 -18 c6 -6 9 -17 7 -27 -2 -10 -4 -12 -23 -18 -9 -2
-23 -7 -31 -10 -8 -3 -17 -5 -19 -5 -11 0 -17 16 -9 25 1 2 8 8 15 12 7 5 13
10 15 12 12 15 34 20 45 11z m-1096 -3 c1 -2 4 -3 5 -3 1 0 3 -3 5 -7 2 -4 5
-8 7 -9 2 -1 5 -3 6 -5 2 -1 6 -4 10 -7 11 -8 14 -12 14 -21 0 -11 -6 -17 -17
-17 -8 0 -9 1 -14 7 -2 3 -5 7 -5 9 -1 2 -4 4 -7 6 -3 1 -7 3 -9 4 -4 2 -9 13
-11 22 0 5 -1 9 -1 10 -1 3 7 14 10 14 2 0 5 -1 7 -3z m-36 -44 c6 -7 5 -21
-2 -28 -5 -7 -18 -7 -24 -1 -6 6 -7 17 -2 24 2 3 14 8 23 10 0 0 3 -2 5 -5z
m1021 -73 c9 -3 14 -9 14 -18 0 -5 -6 -19 -10 -22 -3 -3 -10 -14 -9 -15 1 0 1
-1 -1 -1 -1 0 -2 -1 -1 -2 1 -1 0 -2 -1 -2 -1 -1 -3 -5 -3 -10 -3 -16 -11 -22
-17 -13 -4 5 -4 5 2 24 6 18 7 32 3 39 -4 6 -3 14 2 18 6 4 11 5 21 2z m-1086
-10 c3 -1 8 -7 12 -13 4 -5 9 -13 12 -16 5 -5 21 -17 24 -17 2 0 8 -12 8 -16
0 -5 -7 -12 -12 -12 -3 0 -12 4 -21 8 -10 6 -20 9 -32 11 -9 2 -19 4 -22 5 -5
3 -11 11 -11 17 0 2 -1 3 -2 3 -3 0 -2 13 1 15 1 0 1 1 0 1 -5 0 11 14 17 15
3 1 6 2 7 2 3 1 13 -1 19 -3z m912 -25 c24 -16 38 -49 25 -62 -7 -7 -22 -7
-30 -1 -11 9 -25 37 -25 51 0 13 17 20 30 12z m-853 -224 c3 -5 3 -5 0 -10 -2
-3 -5 -5 -7 -5 -2 0 -5 2 -7 5 -3 5 -3 5 0 10 2 3 5 5 7 5 2 0 5 -2 7 -5z
m1255 -24 c8 -6 14 -22 15 -43 2 -21 -6 -27 -26 -18 -19 8 -35 27 -35 41 0 8
6 19 10 21 8 3 31 2 36 -1z m-663 -11 c7 -6 7 -18 1 -23 -8 -7 -20 -8 -27 -3
-4 5 -5 6 -3 13 4 16 19 23 29 13z m550 -37 c12 -12 3 -31 -13 -31 -16 0 -25
19 -13 31 4 4 7 5 13 5 6 0 9 -1 13 -5z"/>
</g>
</svg>
