<?xml version="1.0" standalone="no"?>
<!DOCTYPE svg PUBLIC "-//W3C//DTD SVG 20010904//EN"
 "http://www.w3.org/TR/2001/REC-SVG-20010904/DTD/svg10.dtd">
<svg version="1.0" xmlns="http://www.w3.org/2000/svg"
 width="1100.000000pt" height="2850.000000pt" viewBox="0 0 1100.000000 2850.000000"
 preserveAspectRatio="xMidYMid meet">
<metadata>
Created by potrace 1.15, written by Peter Selinger 2001-2017
</metadata>
<g transform="translate(0.000000,2850.000000) scale(0.500000,-0.500000)"
fill="#000000" stroke="none">
<path d="M982 3773 c-3 -2 -10 -11 -15 -19 -5 -8 -10 -15 -11 -16 -1 -1 -6 -8
-12 -17 -6 -9 -20 -29 -32 -44 -12 -16 -23 -31 -24 -33 -2 -3 -6 -8 -9 -11 -2
-3 -9 -11 -14 -18 -15 -18 -25 -31 -32 -39 -3 -4 -10 -12 -15 -18 -5 -6 -11
-13 -13 -15 -2 -3 -10 -11 -17 -19 -7 -8 -15 -17 -18 -20 -5 -5 -6 -8 -6 -18
0 -14 5 -21 21 -29 13 -7 17 -12 17 -23 1 -25 -11 -35 -35 -30 -9 2 -12 5 -17
15 -6 15 -13 19 -29 19 l-14 0 -5 -16 c-3 -10 -7 -22 -8 -28 -3 -16 -12 -23
-31 -24 -20 -1 -33 -7 -55 -25 -12 -10 -22 -19 -23 -20 -5 -4 -30 -24 -44 -35
-8 -6 -18 -18 -19 -21 -3 -23 -2 -25 22 -55 25 -30 31 -34 52 -32 16 2 36 20
50 46 11 18 10 18 36 28 12 4 24 11 28 14 4 4 12 11 19 17 12 10 62 60 111
110 41 42 74 80 78 90 3 8 3 21 1 41 -1 15 -1 16 4 21 7 7 23 7 30 0 8 -8 7
-19 -4 -42 -6 -10 -10 -19 -11 -21 -1 -2 -1 -287 -1 -634 0 -649 0 -640 -7
-640 -1 0 -2 -2 -2 -3 0 -3 -1 -3 -1 -1 -2 5 -17 22 -55 65 -57 63 -157 158
-207 197 -1 0 -7 6 -13 11 -12 11 -21 18 -28 23 -2 2 -7 5 -10 8 -7 6 -13 8
-25 8 -16 0 -19 -3 -48 -36 -16 -19 -19 -25 -20 -35 -2 -12 3 -24 12 -31 3 -2
7 -5 8 -6 4 -3 24 -3 27 0 1 2 2 2 2 1 0 -3 9 6 12 13 10 18 22 23 43 17 13
-4 18 -10 18 -26 0 -13 -3 -17 -15 -29 l-10 -9 0 -15 c0 -15 0 -16 7 -21 3 -2
12 -11 20 -18 l14 -13 14 0 c8 1 14 2 15 4 0 1 1 2 3 2 1 0 6 5 10 10 4 6 10
11 13 11 3 1 6 2 8 2 6 2 20 -2 24 -7 6 -5 8 -18 6 -28 -1 -6 -5 -11 -14 -20
l-12 -11 0 -14 0 -15 12 -12 c21 -21 58 -62 77 -85 7 -8 13 -15 14 -16 3 -4
10 -12 18 -22 4 -5 9 -12 11 -14 2 -2 4 -5 6 -7 2 -2 5 -6 7 -9 2 -3 5 -7 7
-9 2 -2 5 -6 8 -10 6 -7 14 -19 19 -25 2 -2 14 -18 26 -36 13 -18 28 -37 34
-44 6 -7 13 -15 16 -18 3 -4 8 -8 10 -9 9 -4 37 -1 37 4 0 4 81 119 90 128 1
1 4 5 7 9 3 4 7 9 8 10 1 1 4 5 7 9 3 4 8 9 11 13 5 5 5 7 4 17 -1 14 -2 18
-5 22 -13 14 -15 25 -8 32 5 5 14 5 24 -1 12 -6 44 -7 44 -1 0 1 2 4 5 7 2 2
13 14 23 25 10 11 24 25 29 31 6 6 20 21 32 34 12 13 29 29 38 37 37 30 43 41
43 74 0 18 10 26 28 22 9 -2 31 -2 39 1 6 1 16 9 23 18 4 5 8 19 8 27 0 19
-36 68 -53 71 -10 2 -28 0 -29 -3 0 -1 -2 -2 -3 -2 -1 0 -3 -1 -3 -2 -1 0 -5
-4 -10 -8 -5 -4 -10 -8 -11 -9 -1 -1 -6 -5 -10 -8 -43 -33 -105 -89 -160 -144
-63 -64 -65 -66 -73 -88 -7 -21 -11 -26 -26 -32 -13 -6 -28 -17 -28 -20 0 -4
-14 -12 -20 -13 -5 0 -6 1 -9 6 -3 7 -2 13 8 24 10 13 11 15 13 24 2 8 2 11
-1 16 -4 10 -12 20 -20 23 -11 4 -19 14 -18 21 1 8 1 9 17 21 8 6 15 13 15 15
1 2 2 3 3 4 6 5 6 18 6 278 0 255 0 264 -4 273 -4 10 -10 16 -20 21 -29 13
-29 23 0 36 10 5 16 11 20 21 4 9 4 16 4 135 0 83 -1 127 -2 132 -4 11 -4 45
-1 59 2 9 3 33 3 97 l0 85 5 6 c2 2 5 6 6 7 0 2 1 2 1 0 0 -2 17 -24 35 -44
76 -85 175 -179 246 -235 4 -3 10 -8 13 -11 6 -5 22 -13 29 -15 16 -4 38 4 52
19 28 30 32 38 30 53 -1 12 -5 17 -22 30 -9 7 -17 13 -19 15 -2 2 -7 6 -11 9
-26 21 -58 49 -90 79 -16 15 -19 17 -38 23 -18 6 -24 11 -27 25 -5 18 -7 22
-27 44 -20 21 -24 25 -38 41 -6 8 -16 18 -20 23 -5 5 -12 13 -15 17 -12 14
-41 50 -43 52 -1 1 -4 5 -6 8 -2 3 -5 6 -6 8 -1 1 -12 15 -24 31 -12 16 -27
34 -33 41 -12 12 -19 23 -30 44 -4 7 -10 17 -13 20 -6 7 -7 7 -20 7 -12 0 -15
-1 -19 -5z m35 -1233 c11 -10 3 -28 -11 -28 -9 0 -16 6 -16 16 0 14 17 22 27
12z m40 -401 c9 -4 11 -8 11 -18 0 -13 -6 -19 -19 -19 -13 0 -19 6 -19 19 0
10 2 14 11 18 8 4 8 4 16 0z"/>
</g>
</svg>
