<?xml version="1.0" standalone="no"?>
<!DOCTYPE svg PUBLIC "-//W3C//DTD SVG 20010904//EN"
 "http://www.w3.org/TR/2001/REC-SVG-20010904/DTD/svg10.dtd">
<svg version="1.0" xmlns="http://www.w3.org/2000/svg"
 width="1100.000000pt" height="2850.000000pt" viewBox="0 0 1100.000000 2850.000000"
 preserveAspectRatio="xMidYMid meet">
<metadata>
Created by potrace 1.15, written by Peter Selinger 2001-2017
</metadata>
<g transform="translate(0.000000,2850.000000) scale(0.500000,-0.500000)"
fill="#000000" stroke="none">
<path d="M1645 3839 c-4 -1 -17 -13 -31 -27 -71 -69 -93 -89 -101 -94 l-10 -5
-316 -1 c-324 -1 -320 -1 -329 -8 -5 -4 -9 -14 -11 -23 -1 -6 1 -13 8 -35 10
-31 16 -42 26 -48 15 -9 20 -10 75 -10 42 0 54 -1 58 -3 3 -2 6 -4 6 -5 0 -1
2 -2 4 -2 2 0 2 -1 1 -1 -2 -1 -3 -6 -3 -15 0 -14 0 -14 9 -23 4 -4 12 -11 16
-14 24 -18 57 -48 87 -76 22 -22 29 -25 55 -25 17 0 19 -1 23 -5 4 -4 4 -6 3
-18 -2 -19 -3 -25 -1 -30 1 -3 0 -5 -6 -9 l-7 -5 -195 -1 c-142 -1 -198 -2
-205 -4 -5 -1 -12 -2 -15 -1 -8 1 -17 4 -18 5 -1 1 -8 6 -16 11 -8 5 -16 11
-18 12 -1 2 -7 3 -14 3 -16 0 -22 -4 -30 -21 -7 -16 -12 -19 -26 -19 -15 0
-22 7 -22 23 0 10 1 12 10 22 l10 11 0 16 0 15 -10 7 c-6 4 -11 7 -12 8 -10
11 -30 15 -43 9 -10 -5 -13 -11 -25 -40 -6 -14 -18 -43 -28 -63 -17 -34 -18
-37 -18 -47 1 -13 7 -21 23 -30 11 -7 13 -10 13 -23 0 -16 -7 -21 -26 -20 -6
0 -10 3 -23 15 -20 18 -18 18 -100 17 l-71 0 -7 5 c-5 4 -6 6 -5 8 1 1 4 5 7
9 3 5 7 8 23 13 10 4 19 7 19 7 6 0 114 105 155 150 10 11 21 23 24 26 8 8 47
52 52 59 18 23 25 29 49 41 28 14 52 30 60 40 10 13 6 34 -9 45 -7 6 -96 50
-103 52 -8 2 -23 -2 -36 -8 -7 -3 -14 -5 -21 -5 -16 0 -21 4 -24 20 -4 17 -10
32 -15 35 -8 5 -21 6 -34 1 -22 -8 -29 -4 -35 14 -8 26 -16 36 -39 47 -11 6
-15 7 -25 7 -7 -1 -12 -2 -12 -2 0 -1 -1 -2 -1 -2 -6 2 -18 -16 -20 -30 -2
-11 -18 -70 -25 -90 -3 -10 -7 -25 -9 -34 -3 -16 -8 -28 -11 -28 -1 0 -3 -3
-4 -7 -4 -12 -30 -77 -35 -89 -3 -5 -5 -11 -5 -11 0 -4 -44 -96 -59 -122 -5
-9 -10 -18 -11 -21 -5 -8 -33 -52 -44 -68 -21 -30 -31 -37 -59 -47 -9 -3 -17
-6 -19 -6 -2 -1 -3 -2 -4 -1 -3 0 -17 -12 -21 -17 -7 -14 -6 -24 5 -49 5 -13
18 -43 29 -68 26 -63 31 -70 52 -80 17 -9 19 -16 14 -40 -5 -20 -3 -31 8 -53
8 -16 10 -20 18 -24 21 -12 42 -4 77 30 8 8 15 15 16 15 4 0 7 9 7 21 0 13 -1
19 -8 28 -7 8 -7 25 0 32 6 7 22 7 30 2 5 -3 6 -6 8 -17 2 -11 8 -23 15 -28
12 -7 14 -14 8 -24 -2 -4 -23 -31 -26 -34 -1 -1 -9 -10 -18 -21 -26 -31 -28
-34 -67 -72 -59 -59 -81 -73 -134 -88 -27 -8 -36 -17 -38 -37 -1 -7 0 -13 3
-21 2 -5 7 -20 11 -32 4 -12 10 -31 14 -42 4 -11 8 -24 10 -29 1 -5 9 -26 16
-47 7 -21 14 -42 16 -47 6 -19 21 -62 24 -67 5 -10 15 -19 25 -21 11 -2 17 -1
28 4 l8 5 4 -5 c16 -20 -29 -127 -71 -169 -7 -7 -21 -21 -32 -31 -23 -21 -28
-27 -39 -46 -28 -47 -32 -102 -11 -148 2 -3 6 -7 9 -9 8 -4 28 -4 37 1 23 12
38 -4 26 -28 -4 -10 -5 -30 -1 -38 2 -5 18 -12 37 -18 18 -6 60 -8 79 -3 49
12 83 40 107 89 19 38 20 41 25 42 3 2 6 0 16 -9 28 -22 49 -34 75 -41 34 -10
81 -1 90 17 4 9 4 27 0 36 -4 8 -5 24 0 32 5 11 24 15 39 9 7 -3 25 -2 34 2 4
1 8 6 12 13 11 18 14 19 30 8 17 -12 48 -27 64 -30 7 -2 18 -10 18 -14 0 -2
-1 -3 -2 -3 -1 0 -5 -3 -10 -7 -16 -15 -23 -22 -34 -31 -6 -5 -12 -10 -13 -11
-1 -1 -5 -4 -9 -7 -46 -34 -49 -38 -48 -57 1 -9 2 -14 8 -23 21 -32 36 -35 79
-17 35 14 78 34 99 43 9 5 22 11 29 14 46 22 160 88 178 104 2 1 3 2 4 2 1 0
2 1 4 2 5 4 29 22 39 28 6 5 13 9 15 11 2 2 9 8 15 12 6 5 14 11 17 14 12 10
16 13 24 20 5 3 9 7 9 9 0 2 0 2 3 0 9 -10 9 -11 9 -74 0 -57 0 -61 4 -68 6
-12 17 -16 40 -16 18 0 19 0 24 -6 l7 -6 -2 -26 c-2 -42 -3 -47 -12 -49 -12
-3 -21 5 -21 19 0 4 -1 5 -1 3 -1 -3 -2 -4 -7 -4 -19 2 -31 2 -32 -1 0 -2 0
-21 0 -42 0 -32 1 -41 3 -47 4 -9 14 -21 18 -21 2 0 3 -1 3 -2 0 -2 1 -2 39
-3 61 -2 118 6 180 27 26 9 34 14 37 26 3 9 3 24 0 32 -2 5 -2 7 1 11 3 5 13
7 13 3 0 -1 2 -1 5 0 2 1 8 3 13 4 8 2 21 13 19 16 -1 1 0 2 1 3 1 1 2 44 2
128 0 107 0 128 3 134 1 4 4 7 5 7 1 0 2 2 3 4 0 2 1 2 1 -1 0 -3 8 -21 19
-41 16 -33 25 -48 39 -71 8 -13 31 -46 35 -52 3 -3 6 -7 7 -8 20 -28 28 -37
68 -77 36 -36 39 -38 70 -39 47 -3 57 2 68 37 6 21 4 16 13 39 12 28 23 48 41
71 13 17 18 29 18 44 0 6 1 11 4 14 3 5 4 5 16 2 22 -4 33 -3 49 4 35 15 51
44 39 71 -6 12 -16 20 -36 26 -25 9 -34 8 -55 -1 -9 -4 -18 -8 -19 -8 -4 0
-10 8 -16 21 -8 18 -16 26 -31 32 -7 3 -19 8 -27 12 -8 4 -15 7 -15 7 -1 0
-45 24 -68 37 -10 5 -42 26 -46 29 -1 1 -11 9 -22 17 -11 8 -23 16 -25 19 -3
2 -11 9 -19 15 -8 7 -19 17 -26 23 -7 7 -13 12 -14 12 -1 0 2 2 5 6 l7 5 153
1 c119 1 155 2 161 4 35 11 61 39 59 62 -2 14 -9 23 -24 33 -8 5 -17 13 -21
18 -10 12 -25 19 -45 21 -24 3 -30 7 -33 24 -8 40 -20 52 -60 65 -16 5 -18 7
-27 25 -9 18 -15 25 -31 37 -11 8 -13 9 -23 9 -13 0 -22 -4 -29 -13 -26 -34
-31 -41 -31 -49 0 -14 2 -20 13 -32 11 -11 12 -14 11 -26 -1 -14 -19 -19 -36
-9 -10 5 -27 7 -37 3 -3 -1 -10 -10 -17 -20 -16 -22 -23 -26 -47 -28 -16 -1
-16 -1 -22 5 -12 12 -5 33 14 45 20 13 33 29 41 52 4 13 2 24 -6 35 -5 8 -21
15 -34 16 -49 4 -48 4 -54 10 l-5 5 6 4 c34 26 60 72 66 115 4 34 5 38 10 43
5 5 6 5 8 3 3 -4 14 -7 24 -7 9 0 35 12 43 19 4 4 14 9 34 20 34 18 128 80
143 95 9 8 9 27 1 43 -11 22 -2 40 18 40 9 0 11 -2 20 -9 21 -15 34 -16 50 -4
13 11 23 15 44 20 27 6 34 9 47 23 16 16 16 17 16 24 0 9 -17 15 -27 10 -3 -2
-10 -3 -16 -3 -19 0 -25 15 -15 38 5 12 6 29 3 36 -3 6 -15 17 -107 105 -17
16 -38 36 -47 45 -17 16 -21 19 -35 21 -9 1 -18 10 -16 15 0 1 3 9 6 17 2 8 6
20 8 28 1 7 4 15 6 16 2 2 3 4 3 5 0 2 12 8 17 8 8 0 11 -3 19 -20 5 -9 9 -14
14 -16 7 -4 21 -5 28 -4 2 1 12 3 23 5 22 4 39 11 56 23 18 12 23 19 23 34 0
14 -5 20 -31 45 -14 13 -29 28 -34 32 -7 7 -36 34 -66 62 -34 32 -66 62 -100
94 -5 5 -13 11 -17 12 -7 4 -21 3 -29 0z m74 -149 c10 -9 3 -26 -10 -26 -8 0
-15 7 -15 15 0 13 16 20 25 11z m-1306 -4 c9 -8 7 -19 -9 -42 -4 -6 -9 -15
-11 -18 -1 -4 -5 -10 -9 -14 -5 -6 -7 -6 -19 -6 -17 0 -22 4 -25 20 -4 16 -2
19 16 33 8 6 17 13 20 16 14 15 28 19 37 11z m1017 -31 l-5 -5 -4 4 -5 5 4 4
5 5 4 -4 5 -5 -4 -4z m198 -19 c5 -5 5 -15 0 -20 -9 -9 -24 -2 -24 10 0 8 6
14 14 14 3 0 8 -2 10 -4z m-201 -50 c10 -5 15 -9 13 -12 -2 -1 -3 -14 -4 -28
-1 -26 -1 -27 -7 -31 -8 -7 -28 -7 -36 0 -5 4 -6 6 -7 22 -1 10 -3 20 -4 23
-1 2 -2 4 -1 4 3 0 -5 12 -8 13 -3 0 -3 1 0 1 2 0 5 1 6 2 7 7 37 10 48 6z
m281 -105 c4 -2 4 -5 0 -17 -2 -6 -2 -15 -1 -30 l1 -22 -7 -6 c-4 -4 -12 -11
-18 -17 -6 -5 -11 -11 -11 -12 0 -3 -10 -21 -13 -24 -3 -3 -15 -4 -15 -1 0 5
-34 9 -40 3 -2 -1 -4 -3 -4 -2 -1 0 -1 -5 -1 -11 0 -7 0 -12 2 -12 1 0 1 -1 1
-1 -1 -1 -1 -4 0 -7 2 -7 -2 -16 -8 -16 -4 0 -9 7 -9 13 -2 14 -14 30 -24 34
-4 2 -14 3 -24 3 -17 0 -18 0 -25 6 -3 3 -5 6 -4 6 2 0 6 22 6 37 0 16 6 23
23 28 20 6 31 14 45 32 8 12 27 17 40 13 18 -7 39 -7 57 -1 8 2 16 5 19 6 3 0
5 1 6 1 1 0 2 -1 4 -3z m-1318 -49 c5 -6 5 -12 0 -18 -7 -8 -22 -2 -22 9 0 11
15 17 22 9z m1008 -123 c3 -3 4 -7 4 -14 0 -13 -6 -19 -19 -19 -13 0 -19 6
-19 19 0 7 1 11 4 14 7 8 23 8 30 0z m-84 -39 c5 -5 6 -7 6 -17 0 -10 -1 -12
-6 -17 -5 -5 -7 -6 -17 -6 -10 0 -12 1 -17 6 -5 5 -6 7 -6 17 0 10 1 12 6 17
5 5 7 6 17 6 10 0 12 -1 17 -6z m-446 -18 c5 -5 5 -15 0 -20 -9 -9 -24 -2 -24
10 0 8 6 14 14 14 3 0 8 -2 10 -4z m-630 -8 c1 0 5 -3 8 -6 5 -5 6 -7 6 -18 0
-11 -1 -13 -6 -18 -6 -6 -7 -6 -18 -6 -11 0 -12 0 -18 6 -5 5 -6 7 -6 17 0 14
3 20 12 24 5 2 8 2 22 1z m1329 -18 c5 -5 4 -9 -18 -88 -5 -20 -10 -41 -11
-46 -1 -7 -2 -8 -2 -3 0 3 -1 5 -2 4 -1 -2 -7 2 -7 5 0 1 0 2 0 3 -1 1 -1 28
-1 61 l-1 59 6 6 c6 6 6 6 19 5 11 -1 14 -2 17 -6z m-536 0 c3 -3 4 -6 3 -7
-1 -1 -6 -10 -11 -19 -11 -23 -28 -53 -36 -65 -23 -37 -48 -73 -59 -88 -8 -10
-16 -21 -19 -24 -2 -3 -7 -10 -12 -15 -9 -10 -10 -14 -11 -25 0 -5 0 -10 -1
-11 0 -1 2 -4 6 -8 4 -3 7 -5 7 -5 0 2 18 -11 19 -14 8 -22 -16 -37 -32 -20
-20 23 -18 21 -32 20 -12 -1 -12 -1 -27 -15 -8 -8 -22 -21 -30 -28 -8 -7 -15
-14 -16 -14 -1 -2 -10 -4 -15 -5 -8 -1 -18 5 -50 30 -4 3 -25 17 -45 29 -4 2
-11 6 -17 9 -17 9 -23 14 -23 21 0 7 0 7 31 35 31 28 44 42 50 50 7 9 17 18
33 32 11 8 25 22 36 35 2 3 4 7 4 9 0 8 6 22 11 26 3 3 4 5 4 6 -1 0 5 1 12 2
8 1 17 3 21 4 4 2 11 4 17 4 14 2 34 8 44 15 10 7 27 25 27 28 0 2 4 5 9 9 l8
5 44 0 45 -1 5 -5z m366 -19 c3 -5 3 -5 0 -10 -2 -3 -5 -5 -7 -5 -2 0 -5 2 -7
5 -3 5 -3 5 0 10 2 3 5 5 7 5 2 0 5 -2 7 -5z m-620 -15 c3 -1 6 -6 8 -10 2 -7
2 -8 -3 -13 -6 -5 -9 -5 -18 -1 -15 6 -12 28 4 28 3 0 7 -2 9 -4z m-237 -40
c5 -5 5 -15 0 -20 -9 -9 -24 -2 -24 10 0 8 6 14 14 14 3 0 8 -2 10 -4z m-62
-122 c5 -5 6 -7 6 -17 0 -10 -1 -12 -6 -17 -5 -5 -7 -6 -17 -6 -10 0 -12 1
-17 6 -5 5 -6 7 -6 17 0 10 1 12 6 17 5 5 7 6 17 6 10 0 12 -1 17 -6z m831 -5
c12 -12 3 -31 -13 -31 -11 0 -18 7 -18 18 0 11 7 18 18 18 6 0 9 -1 13 -5z
m-149 -12 c2 0 7 -2 12 -4 6 -1 10 -2 11 -1 1 0 1 0 1 -1 0 -4 -15 -18 -24
-24 -19 -12 -36 -5 -36 14 0 16 9 22 26 18 3 -1 8 -2 10 -2z m-595 -27 c2 -3
4 -7 3 -10 0 -6 -9 -33 -13 -39 -1 -2 -4 -13 -7 -24 -5 -21 -5 -21 1 -43 1 -6
4 -18 6 -27 2 -9 4 -19 5 -23 2 -9 -1 -54 -4 -56 -2 -1 -2 -2 -1 -2 1 0 0 -2
-3 -5 -10 -10 -20 -6 -30 13 -9 15 -18 23 -27 25 -2 0 -5 1 -6 2 -2 1 -4 1 -4
0 -1 0 -15 -1 -31 -2 -29 -1 -30 -1 -37 3 l-7 4 6 5 c4 3 10 7 14 10 11 7 22
17 24 21 4 8 8 27 8 39 -1 18 5 24 23 26 13 2 21 5 28 12 4 5 4 5 8 21 2 11 5
16 20 37 6 8 15 16 19 17 1 0 3 -2 5 -4z m535 -73 c43 -11 54 -20 69 -62 2 -5
6 -12 9 -15 5 -6 30 -16 37 -16 9 1 12 0 17 -6 5 -5 6 -7 6 -18 0 -15 -4 -20
-19 -25 -16 -6 -25 -3 -25 8 0 2 -1 3 -2 2 0 -2 -6 -2 -13 -2 -9 1 -11 0 -8
-2 3 -3 18 -32 20 -39 1 -4 2 -6 3 -6 1 0 1 -4 2 -9 0 -11 -3 -15 -13 -22 -3
-2 -7 -4 -8 -5 -1 -1 -4 -4 -6 -6 -8 -6 -11 -13 -12 -24 0 -8 1 -11 3 -12 2
-1 5 -3 7 -5 1 -2 4 -3 5 -3 2 0 4 -1 6 -2 1 -2 3 -3 4 -3 7 -1 9 -2 10 -4 1
-1 2 -1 2 1 0 2 2 1 5 -2 l5 -5 -4 -4 c-4 -4 -5 -5 -14 -2 -16 5 -20 7 -19 9
2 3 -12 4 -19 2 -4 -1 -59 -2 -145 -2 l-138 0 -7 6 c-3 3 -5 6 -4 6 5 0 8 55
3 77 -4 18 -19 57 -23 60 -1 1 -3 4 -4 7 -3 8 4 13 51 35 18 8 65 32 90 45 9
5 19 11 22 13 3 3 7 6 8 7 9 7 28 18 37 21 24 8 38 8 62 2z m-788 -65 c5 -5 5
-15 0 -20 -9 -9 -24 -2 -24 10 0 8 6 14 14 14 3 0 8 -2 10 -4z m467 -15 c6 -6
11 -11 11 -12 0 -1 3 -6 7 -10 8 -9 7 -10 -1 -12 -3 -1 -6 -2 -7 -3 -2 -3 -12
2 -19 9 -12 13 -16 26 -9 34 2 3 4 5 5 5 1 0 7 -5 13 -11z m581 -24 c6 -6 6
-22 -1 -29 -7 -6 -22 -6 -28 1 -7 6 -7 21 -1 28 7 8 21 8 30 0z m-1003 -45 c4
-4 2 -20 -3 -27 -6 -7 -19 -7 -25 -1 -6 6 -7 20 -1 25 8 7 23 9 29 3z m372
-49 c5 -8 1 -16 -8 -16 -9 0 -13 8 -8 16 2 3 5 5 8 5 3 0 6 -2 8 -5z m-314
-19 c5 -5 6 -7 6 -16 0 -15 -8 -23 -23 -23 -18 0 -26 14 -21 34 3 12 27 16 38
5z m174 -66 c8 -3 13 -12 14 -26 1 -20 7 -32 19 -44 10 -10 12 -12 12 -19 0
-4 -1 -7 -2 -7 -2 0 -2 -1 -1 -1 2 -2 -15 -9 -22 -9 -8 0 -12 3 -22 18 -8 12
-14 16 -27 17 -9 1 -11 1 -17 -4 -15 -12 -18 -32 -7 -51 10 -16 38 -76 39 -84
0 -1 1 -4 3 -7 1 -3 2 -6 2 -7 0 -2 7 -9 15 -17 19 -18 21 -22 21 -36 0 -13
-3 -20 -12 -24 -5 -3 -6 -2 -15 2 -13 7 -14 11 -16 35 -1 28 -4 35 -22 53 -10
9 -12 10 -24 16 -10 5 -25 19 -25 24 0 4 -14 23 -21 27 -7 5 -8 6 -15 12 -5 4
-25 19 -32 23 -1 1 -4 3 -6 5 -1 1 -8 5 -16 8 -19 9 -22 11 -22 12 0 3 4 5 17
11 8 4 23 10 33 15 10 5 29 13 42 19 12 6 23 11 23 11 1 0 9 4 20 9 19 9 38
18 43 20 5 1 15 1 21 -1z m422 -53 c6 -4 6 -5 6 -21 0 -24 -12 -55 -49 -132
-17 -36 -62 -112 -65 -112 -5 0 -11 9 -16 25 -7 21 -8 22 -26 23 l-15 0 -10
-9 c-9 -9 -11 -10 -20 -10 -15 0 -23 8 -22 22 0 14 4 22 14 30 14 10 17 16 18
30 l0 12 -16 15 c-16 15 -33 25 -45 27 -20 4 -28 8 -38 22 -4 5 -9 11 -11 13
l-4 3 8 6 c4 2 11 6 15 7 4 1 11 3 15 4 4 2 12 5 19 8 15 8 17 7 35 -13 14
-16 16 -16 79 -17 55 0 56 0 65 4 12 7 18 19 20 42 2 22 6 26 25 26 11 0 14
-1 18 -5z m-671 -58 c3 -3 3 -8 0 -17 -1 -4 -1 -12 0 -17 9 -55 17 -139 12
-139 -1 0 -2 -1 -1 -2 1 -2 1 -2 -2 -1 -2 1 -3 0 -3 -4 0 -4 -1 -2 -6 19 -6
25 -40 120 -46 129 -3 4 -2 12 2 18 7 11 38 21 44 14z m955 -13 c11 -10 3 -28
-11 -28 -9 0 -16 6 -16 16 0 14 17 22 27 12z m-203 -78 c1 0 5 -3 8 -6 5 -5 6
-7 6 -18 0 -11 -1 -13 -6 -18 -6 -6 -7 -6 -18 -6 -11 0 -12 0 -18 6 -5 5 -6 7
-6 17 0 14 3 20 12 24 5 2 8 2 22 1z m249 -26 c6 -5 13 -13 17 -17 12 -13 19
-16 47 -16 23 -1 24 -1 30 -7 5 -5 6 -7 6 -16 0 -15 -8 -23 -23 -23 -8 0 -11
2 -22 10 -7 5 -22 12 -32 16 -19 8 -27 14 -45 33 -10 10 -12 19 -5 26 7 7 16
5 27 -6z m-229 -99 c10 -8 14 -31 7 -39 -10 -11 -32 -12 -43 -3 -5 4 -5 6 -5
20 0 14 0 16 6 20 7 6 27 7 35 2z m145 -11 c5 -5 6 -7 6 -16 0 -15 -8 -23 -23
-23 -9 0 -11 1 -16 7 -9 8 -9 23 -1 32 9 9 24 9 34 0z m-1004 -34 c4 -6 4 -24
-1 -30 -7 -9 -27 -9 -34 0 -5 6 -5 24 0 30 7 9 27 9 35 0z m324 -5 c4 -4 5 -7
5 -15 0 -14 -6 -20 -20 -20 -14 0 -20 6 -20 20 0 14 6 20 20 20 8 0 11 -1 15
-5z m247 -25 c1 0 5 -3 8 -6 5 -5 6 -7 6 -18 0 -11 -1 -13 -6 -18 -6 -6 -7 -6
-18 -6 -11 0 -12 0 -18 6 -5 5 -6 7 -6 17 0 14 3 20 12 24 5 2 8 2 22 1z m167
-15 c5 -8 1 -16 -8 -16 -9 0 -13 8 -8 16 2 3 5 5 8 5 3 0 6 -2 8 -5z m413
-135 c28 -14 36 -25 26 -36 -4 -5 -6 -5 -31 -5 -40 -1 -47 3 -47 25 0 26 19
32 52 16z"/>
</g>
</svg>
