<?xml version="1.0" standalone="no"?>
<!DOCTYPE svg PUBLIC "-//W3C//DTD SVG 20010904//EN"
 "http://www.w3.org/TR/2001/REC-SVG-20010904/DTD/svg10.dtd">
<svg version="1.0" xmlns="http://www.w3.org/2000/svg"
 width="1100.000000pt" height="2850.000000pt" viewBox="0 0 1100.000000 2850.000000"
 preserveAspectRatio="xMidYMid meet">
<metadata>
Created by potrace 1.15, written by Peter Selinger 2001-2017
</metadata>
<g transform="translate(0.000000,2850.000000) scale(0.500000,-0.500000)"
fill="#000000" stroke="none">
<path d="M947 3829 c-5 -1 -10 -4 -11 -5 -1 -2 -2 -2 -2 -1 0 3 -8 -7 -12 -16
-2 -4 -5 -18 -7 -29 -2 -12 -6 -38 -10 -58 -4 -20 -7 -39 -8 -42 -1 -7 -2 -12
-8 -36 -3 -12 -5 -23 -6 -26 -1 -5 -3 -13 -4 -17 0 -1 -1 -5 -2 -8 -1 -3 -4
-14 -6 -24 -3 -9 -6 -18 -6 -20 -1 -5 -12 -40 -24 -75 -6 -20 -12 -37 -12 -38
0 -1 -1 -3 -2 -5 -27 -71 -27 -67 -13 -94 9 -19 10 -28 3 -35 -2 -2 -6 -4 -9
-4 -6 0 -32 -8 -35 -11 -8 -6 -15 -14 -15 -18 0 -3 -1 -3 -1 -1 -1 2 -4 4 -6
6 -4 4 -4 5 -5 83 l0 79 5 8 c4 5 10 9 20 14 15 7 20 10 36 25 14 12 17 18 17
30 0 13 -4 21 -15 30 -6 4 -11 9 -12 10 -4 3 -6 5 -17 13 -5 4 -10 8 -11 9 -9
7 -40 31 -52 40 l-11 8 -28 1 c-28 1 -28 1 -33 6 -3 3 -5 10 -6 15 -4 30 -10
39 -35 59 -13 10 -14 11 -17 13 -15 13 -39 12 -52 -4 -6 -6 -7 -8 -7 -19 0 -7
1 -12 2 -12 1 0 2 -1 2 -1 -1 -4 0 -7 2 -7 1 0 4 -2 6 -3 17 -15 19 -21 12
-29 -6 -7 -14 -5 -25 5 -13 11 -16 12 -29 11 -13 0 -18 -5 -44 -34 -18 -19
-27 -22 -58 -21 -19 0 -28 2 -37 5 -12 4 -69 27 -84 34 -5 2 -19 8 -31 13 -13
5 -27 11 -31 13 -5 2 -19 8 -31 13 -13 5 -27 11 -31 13 -31 13 -33 14 -45 10
-10 -3 -17 -11 -20 -20 -3 -12 -3 -926 1 -938 1 -5 6 -15 10 -23 9 -18 9 -22
0 -40 -14 -27 -13 -10 -13 -250 0 -195 0 -219 3 -226 4 -9 14 -21 18 -21 2 0
3 -1 3 -2 0 -2 1 -2 33 -3 88 -4 185 30 230 79 20 23 21 30 21 125 l-1 78 6 6
c5 5 8 6 15 6 7 0 10 -1 15 -6 l6 -6 -1 -61 c0 -52 0 -62 3 -69 4 -9 14 -21
18 -21 2 0 3 -1 3 -2 0 -2 1 -2 32 -3 65 -3 134 16 203 54 35 20 55 47 55 74
0 12 2 20 6 25 2 2 4 5 5 7 0 3 1 3 1 -1 0 -11 15 -25 31 -30 6 -2 47 -2 145
-2 l137 1 6 -6 6 -6 0 -50 0 -50 -6 -6 -6 -6 -204 1 c-225 0 -215 1 -226 -12
-10 -12 -10 -22 -2 -51 9 -31 15 -44 26 -51 15 -10 11 -10 215 -10 l191 1 6
-6 6 -6 -1 -140 c0 -124 0 -141 3 -148 4 -9 14 -21 18 -21 2 0 3 -1 3 -2 0 -2
2 -2 45 -3 35 0 68 2 86 6 3 0 8 1 11 2 26 4 74 19 104 32 35 15 53 31 62 54
4 11 4 15 4 115 l-1 105 6 6 6 6 186 -1 c195 0 193 0 203 9 4 4 11 15 9 15 0
0 0 4 2 8 2 4 2 9 2 11 -2 4 3 19 7 24 6 7 24 11 34 6 10 -4 14 -9 17 -24 5
-24 12 -31 28 -31 9 0 14 3 23 12 9 10 16 24 16 33 0 11 -9 28 -20 36 -5 5
-10 9 -12 11 -2 2 -9 9 -17 15 -8 7 -17 15 -21 18 -4 4 -11 10 -15 13 -19 15
-50 41 -52 43 -1 1 -6 6 -12 10 -5 4 -11 9 -12 10 -1 1 -7 6 -13 10 -5 4 -10
9 -10 10 0 5 9 13 20 19 21 10 40 34 40 51 0 11 -7 25 -17 34 -10 9 -31 28
-41 36 -4 3 -9 8 -12 11 -3 2 -9 8 -14 12 -5 4 -11 9 -14 12 -5 5 -38 32 -53
44 -4 3 -11 9 -15 12 -3 3 -8 6 -10 6 -2 0 0 2 5 6 l8 5 52 1 c55 2 60 2 79
12 22 11 40 34 40 49 0 22 -7 29 -43 42 -10 4 -16 11 -22 26 -2 3 -5 10 -9 14
-11 16 -10 17 10 24 19 7 25 15 33 48 19 78 51 132 96 162 7 4 12 9 13 9 1 1
12 6 25 12 30 13 35 18 42 31 10 20 9 37 -4 52 -11 14 -25 17 -56 13 -14 -2
-17 -2 -44 5 -15 4 -35 7 -44 8 -19 1 -24 2 -55 6 -13 2 -28 3 -34 4 -16 2
-16 2 -47 7 -15 2 -31 5 -35 5 -4 1 -8 1 -10 2 -2 0 -7 1 -11 2 -16 2 -48 9
-53 11 -3 1 -6 4 -8 7 -2 4 -1 6 15 22 29 29 54 58 74 83 7 8 12 15 13 16 3 3
31 42 33 46 1 2 2 4 3 4 1 0 2 1 2 3 0 2 1 3 2 3 1 0 3 4 6 9 3 4 6 9 8 10 3
3 21 12 21 11 0 -1 24 8 36 14 16 8 34 25 37 36 3 7 1 21 -3 30 -1 3 -8 10
-14 15 -7 6 -24 21 -39 34 -39 35 -37 33 -50 33 -11 -1 -23 -6 -28 -11 -4 -5
-8 -24 -6 -35 0 -6 1 -17 1 -24 0 -18 -3 -21 -28 -27 -28 -7 -40 -8 -45 -3 -8
8 -3 18 23 45 17 17 24 26 28 37 0 1 1 2 2 4 7 19 12 39 12 46 0 12 -3 20 -6
20 -1 0 -4 1 -5 3 -3 3 -37 34 -63 56 -6 6 -13 12 -15 14 -8 7 -17 11 -27 11
-16 0 -18 -1 -64 -45 -6 -5 -19 -17 -28 -26 -10 -9 -26 -24 -36 -34 -11 -10
-22 -19 -29 -23 l-11 -5 -78 -1 -78 0 -8 6 c-4 3 -7 6 -6 6 1 0 9 13 17 29 16
32 19 35 39 41 28 9 40 18 44 33 4 14 4 25 -2 38 -6 14 -13 22 -25 27 -10 5
-9 5 -32 8 -37 5 -51 7 -76 11 -29 5 -42 7 -52 8 -13 2 -17 3 -37 6 -10 1 -22
3 -27 4 -5 0 -14 2 -21 3 -7 1 -16 2 -20 3 -4 1 -17 2 -27 4 -24 4 -41 7 -50
8 -4 0 -11 0 -17 -2z m-240 -269 c10 -9 3 -26 -10 -26 -8 0 -15 7 -15 15 0 13
16 20 25 11z m765 -72 c5 -5 5 -15 0 -20 -9 -9 -24 -2 -24 10 0 8 6 14 14 14
3 0 8 -2 10 -4z m-1045 -17 l6 -6 0 -429 0 -429 -6 -6 c-5 -5 -8 -6 -15 -6 -7
0 -10 1 -15 6 l-6 6 0 224 c0 123 -1 226 -1 229 -1 2 -4 8 -6 13 -8 17 -9 26
-5 38 2 7 5 14 6 16 5 8 6 16 6 55 0 45 -2 51 -17 65 -21 19 -21 29 0 48 17
15 17 16 17 98 l0 72 6 6 c8 9 21 9 30 0z m932 -3 c6 -5 6 -5 3 -9 -2 -1 -5
-5 -6 -8 -6 -11 -41 -65 -46 -71 -5 -6 -16 -25 -16 -29 -1 -2 -4 -8 -6 -13 -5
-8 -7 -10 -13 -11 -15 -2 -30 -1 -36 3 -3 2 -13 7 -22 12 -34 18 -73 42 -81
49 -1 2 -5 4 -8 6 -3 2 -7 6 -9 9 -6 10 -4 16 12 38 23 32 14 30 128 30 l94
-1 6 -5z m-730 -31 c3 -5 3 -5 0 -10 -2 -3 -5 -5 -7 -5 -2 0 -5 2 -7 5 -3 5
-3 5 0 10 2 3 5 5 7 5 2 0 5 -2 7 -5z m790 -95 c5 -7 4 -25 -2 -31 -6 -6 -21
-7 -29 -3 -10 5 -12 24 -4 34 7 9 28 8 35 0z m-88 -24 c10 -5 9 -15 0 -34 -7
-14 -7 -16 -6 -34 1 -34 -5 -44 -28 -45 -21 -1 -34 16 -29 38 2 7 5 11 12 18
6 4 12 11 14 14 6 9 12 29 10 33 -2 10 14 16 27 10z m-315 -26 c4 -2 10 -8 20
-22 8 -11 15 -21 16 -22 2 -2 6 -7 10 -12 4 -5 8 -10 9 -11 1 -1 6 -7 10 -12
4 -5 10 -12 13 -15 12 -12 15 -23 10 -32 -2 -4 -41 -34 -67 -52 -9 -6 -17 -12
-18 -13 -2 -1 -11 -8 -21 -14 -11 -7 -25 -16 -32 -20 -7 -5 -19 -12 -27 -16
-8 -4 -15 -8 -16 -9 -1 -1 -6 -4 -11 -6 -5 -3 -15 -9 -23 -13 -27 -15 -72 -36
-110 -53 -11 -5 -20 -10 -21 -10 0 -2 -7 4 -10 9 -1 3 -2 22 -2 59 l0 53 6 16
c6 19 18 43 23 48 4 2 9 3 28 4 28 0 31 1 61 24 17 12 44 33 49 38 1 1 7 6 12
10 10 8 29 25 36 32 14 14 42 38 45 39 1 1 3 2 3 2 0 0 3 -1 7 -2z m-849 -100
c11 -10 3 -28 -11 -28 -9 0 -16 6 -16 16 0 14 17 22 27 12z m478 -44 c5 -5 6
-7 6 -16 0 -15 -8 -23 -23 -23 -9 0 -11 1 -16 7 -9 8 -9 23 -1 32 9 9 24 9 34
0z m675 -136 c4 -2 10 -5 14 -7 4 -2 8 -5 10 -6 2 -1 17 -10 34 -19 17 -8 31
-17 30 -18 0 -1 -7 -5 -15 -9 -8 -4 -16 -9 -18 -11 -5 -6 -11 -21 -12 -30 -2
-15 -10 -21 -27 -21 -19 0 -26 7 -27 27 -1 20 -4 30 -13 38 -7 8 -12 9 -54 13
-15 1 -23 5 -25 10 -1 3 52 30 70 36 10 3 23 2 33 -3z m209 -61 c6 -6 10 -19
8 -31 -2 -17 -9 -31 -30 -55 -11 -13 -11 -32 1 -51 9 -14 8 -30 0 -38 -3 -3
-7 -6 -9 -6 -18 -1 -25 1 -36 11 -10 9 -18 12 -26 12 -6 0 -9 1 -13 5 -9 10
-10 12 -8 13 1 1 2 5 2 9 0 8 5 22 8 22 1 0 2 2 2 3 0 2 1 3 1 3 1 -1 3 -1 6
1 26 14 47 45 44 67 -1 9 -1 10 7 19 14 16 35 23 43 16z m-1283 -11 c5 -5 5
-11 0 -16 -10 -10 -27 5 -16 16 4 4 12 4 16 0z m836 -79 l1 -52 -6 -6 -6 -6
-157 0 -157 0 -6 6 c-5 6 -6 7 -5 16 2 16 5 17 54 28 45 10 60 13 73 17 4 1
13 3 20 5 20 4 58 15 86 23 41 13 86 28 89 30 2 1 4 0 8 -3 l5 -5 1 -53z m87
-36 c9 -9 6 -35 -5 -42 -8 -4 -13 -4 -19 2 -10 8 -10 34 -1 42 7 5 19 4 25 -2z
m233 -48 c5 -4 5 -10 0 -18 -5 -8 -12 -9 -17 -3 -4 7 -4 10 3 18 7 7 7 7 14 3z
m-667 -36 c6 -6 7 -20 1 -30 -6 -10 -13 -10 -24 1 -7 6 -8 9 -8 16 0 11 7 18
18 18 6 0 9 -1 13 -5z m180 -66 l156 0 6 -6 6 -6 0 -48 0 -48 -6 -6 -6 -6 -57
0 c-62 0 -64 0 -75 -12 -6 -6 -13 -16 -13 -19 0 -1 -3 -3 -7 -5 -7 -3 -7 -3
-14 0 -4 2 -7 4 -7 5 0 3 -7 13 -13 19 -11 11 -15 12 -64 13 -49 0 -57 0 -62
-5 -3 -3 -3 -3 -3 0 0 2 -1 3 -2 3 -1 0 -3 3 -5 7 -2 6 -3 14 -3 54 l0 48 5 8
c4 6 6 8 7 6 2 -1 39 -2 157 -2z m-239 -3 c5 -6 4 -21 -1 -32 -8 -16 -33 -22
-45 -10 -12 11 -7 34 8 41 11 4 12 5 24 5 9 0 11 -1 14 -4z m851 0 c0 0 3 -2
6 -5 3 -3 4 -5 4 -5 -1 0 -4 -2 -5 -5 -2 -4 -5 -8 -7 -10 -5 -5 -58 -76 -59
-78 -2 -4 -17 -11 -27 -12 -10 -2 -10 -2 -16 4 -4 4 -6 7 -5 7 0 0 1 21 0 47
l-1 48 6 6 6 6 49 -1 c27 -1 49 -1 49 -2z m-1256 -45 c5 -8 1 -16 -8 -16 -9 0
-13 8 -8 16 2 3 5 5 8 5 3 0 6 -2 8 -5z m1097 -31 c11 -7 13 -31 3 -41 -8 -10
-32 -11 -41 -1 -9 8 -9 32 0 41 7 7 28 8 38 1z m-1063 -93 c12 -7 14 -33 3
-43 -8 -9 -32 -9 -40 0 -9 8 -9 32 0 41 7 7 27 8 37 2z m1314 -74 c4 -1 7 -4
7 -5 0 -1 2 -2 4 -3 2 0 2 -1 0 -1 -2 0 -5 -3 -8 -8 -3 -4 -5 -7 -6 -8 -1 -1
-6 -7 -11 -14 -6 -7 -10 -13 -11 -14 -1 -1 -5 -6 -10 -13 -5 -7 -9 -12 -10
-13 -1 -1 -3 -4 -6 -8 -3 -4 -7 -9 -9 -12 -3 -3 -5 -6 -5 -7 0 -2 -1 -3 -2 -3
-1 0 -5 -2 -8 -4 -3 -2 -6 -4 -6 -3 0 1 -1 1 -3 -1 -1 -1 -18 -2 -42 -2 -22 0
-40 -1 -41 -1 -1 0 -7 -1 -14 -1 -17 -1 -23 4 -22 17 0 4 1 28 1 53 l0 44 6 5
6 5 91 0 c76 0 93 -1 99 -3z m78 -118 c3 -3 3 -3 0 -6 -3 -3 -3 -3 -6 0 -3 2
-3 3 -1 6 4 4 4 4 7 0z m-449 -29 c5 -5 5 -15 0 -20 -9 -9 -24 -2 -24 10 0 8
6 14 14 14 3 0 8 -2 10 -4z m-77 -65 c3 -3 3 -3 0 -6 -3 -3 -3 -3 -6 0 -3 2
-3 3 -1 6 4 4 4 4 7 0z m79 -119 c5 -5 5 -15 0 -20 -9 -9 -24 -2 -24 10 0 8 6
14 14 14 3 0 8 -2 10 -4z"/>
</g>
</svg>
