<?xml version="1.0" standalone="no"?>
<!DOCTYPE svg PUBLIC "-//W3C//DTD SVG 20010904//EN"
 "http://www.w3.org/TR/2001/REC-SVG-20010904/DTD/svg10.dtd">
<svg version="1.0" xmlns="http://www.w3.org/2000/svg"
 width="1100.000000pt" height="2850.000000pt" viewBox="0 0 1100.000000 2850.000000"
 preserveAspectRatio="xMidYMid meet">
<metadata>
Created by potrace 1.15, written by Peter Selinger 2001-2017
</metadata>
<g transform="translate(0.000000,2850.000000) scale(0.500000,-0.500000)"
fill="#000000" stroke="none">
<path d="M281 3829 c-19 -5 -27 -17 -31 -43 -1 -8 -3 -18 -3 -22 -2 -11 -3
-21 -4 -26 -1 -3 -4 -23 -8 -45 -4 -22 -7 -42 -8 -45 0 -3 -5 -23 -9 -45 -9
-44 -10 -50 -4 -62 4 -7 6 -10 21 -17 22 -11 31 -13 56 -12 20 0 22 0 26 -5 7
-7 7 -23 0 -30 -8 -8 -20 -7 -35 2 -27 16 -57 20 -79 10 -9 -4 -14 -14 -20
-39 -3 -12 -6 -22 -6 -23 -1 -6 -6 -24 -17 -62 -14 -49 -16 -58 -17 -82 -1
-22 -2 -24 -12 -31 -6 -4 -9 -8 -11 -13 -4 -15 -26 -76 -43 -117 -23 -57 -28
-68 -34 -79 -11 -22 -5 -42 14 -56 19 -13 33 -16 49 -9 4 1 25 17 33 25 1 1 6
5 10 8 7 5 19 15 27 23 2 2 10 9 18 16 19 17 80 77 94 94 15 18 22 24 26 24 2
0 4 1 6 1 6 1 15 -5 35 -22 11 -10 27 -24 35 -31 14 -12 30 -28 56 -52 14 -14
18 -22 18 -35 0 -6 0 -11 0 -12 -1 -4 2 -11 4 -10 1 1 1 -1 1 -3 0 -4 23 -6
27 -1 1 2 4 3 5 3 1 0 4 1 5 3 4 5 26 4 32 -2 4 -4 7 -27 4 -27 -1 0 -2 -1 -2
-3 0 -10 -20 -8 -39 5 -15 10 -27 11 -32 3 -2 -3 -3 -6 -1 -7 1 0 1 -5 1 -10
-1 -5 1 -19 3 -30 4 -20 4 -22 1 -32 -5 -19 -13 -26 -30 -27 -15 -1 -25 7 -29
20 -3 12 0 25 8 32 13 13 22 32 22 46 0 5 -12 11 -22 11 -14 -1 -17 -2 -31
-20 -8 -9 -14 -17 -15 -18 -3 -3 -26 -30 -28 -34 -3 -6 -6 -22 -7 -38 -1 -26
-7 -32 -33 -33 -27 -2 -40 -8 -56 -25 -1 -1 -10 -9 -20 -18 -10 -9 -22 -19
-26 -23 -4 -3 -11 -10 -17 -14 -5 -4 -11 -9 -12 -10 -5 -4 -10 -8 -18 -14 -4
-3 -8 -6 -9 -7 -1 -1 -5 -4 -11 -8 -5 -4 -12 -10 -17 -13 -4 -3 -13 -9 -20
-14 -12 -8 -14 -10 -18 -21 -5 -14 -8 -16 -17 -17 -3 0 -7 -1 -9 -2 -2 0 -8
-2 -14 -3 -31 -6 -43 -33 -28 -60 12 -20 23 -29 37 -29 9 1 17 4 17 7 0 4 0 5
2 9 3 5 4 17 1 27 -3 10 -2 34 1 34 1 0 2 1 1 2 -1 1 0 2 1 2 1 0 2 1 2 3 0 5
4 5 15 2 26 -8 27 -9 32 -20 10 -20 19 -27 35 -30 8 -1 12 0 53 19 7 3 13 6
14 6 2 0 31 14 72 34 44 22 49 23 60 20 10 -2 49 -41 75 -72 5 -6 9 -11 10
-12 1 -1 33 -44 38 -51 20 -30 36 -59 49 -89 24 -55 31 -63 73 -81 64 -27 136
-12 187 38 35 34 52 71 54 114 2 28 -4 56 -14 67 -6 7 -7 7 -22 8 -11 0 -16 0
-20 -3 -8 -5 -27 -4 -34 2 -6 4 -6 6 -6 19 0 13 1 16 5 23 3 4 6 12 7 17 1 4
2 8 3 8 0 0 3 1 4 1 2 0 9 -5 17 -12 27 -26 68 -41 110 -41 31 0 49 7 71 28 2
2 9 7 17 12 24 15 29 18 30 22 0 3 1 3 1 0 0 -2 1 -4 2 -4 4 0 8 -15 8 -32 0
-24 6 -37 21 -47 2 -2 8 -6 14 -9 12 -8 16 -15 16 -28 0 -16 -3 -20 -30 -37
-11 -7 -14 -13 -14 -24 0 -6 0 -11 1 -11 0 0 4 -6 8 -14 4 -8 8 -14 9 -14 1 0
1 -1 -1 -2 -2 -1 -3 -5 -2 -13 1 -48 -27 -126 -62 -172 -6 -8 -25 -26 -40 -37
-8 -6 -14 -12 -14 -13 0 -2 -1 -3 -2 -3 -1 0 -2 -1 -2 -1 1 -3 -2 -10 -5 -13
-2 -3 -5 -3 -11 -3 -11 2 -13 3 -33 23 -34 33 -67 54 -123 78 -44 20 -115 39
-166 45 -6 1 -12 2 -12 2 -1 1 -5 0 -9 -1 -4 -2 -9 -3 -10 -2 -2 0 -21 -19
-21 -23 0 -1 -3 -6 -7 -10 -6 -6 -8 -7 -17 -7 -11 0 -13 1 -23 16 -3 3 -8 7
-12 9 -8 3 -25 4 -31 1 -12 -6 -30 -1 -45 12 -5 5 -19 12 -26 13 -7 1 -29 1
-44 0 -5 0 -19 -1 -31 -2 -41 -2 -107 -9 -117 -12 -12 -4 -25 -16 -31 -29 -5
-12 -5 -19 -2 -31 5 -16 16 -26 44 -36 7 -3 15 -6 17 -7 36 -17 51 -13 64 14
3 6 5 12 5 13 0 3 8 10 14 12 6 3 19 2 26 0 17 -7 20 -29 7 -52 -9 -16 -5 -37
9 -44 3 -2 19 -11 35 -20 42 -23 45 -25 73 -41 14 -8 27 -16 30 -17 3 -2 9 -6
14 -10 5 -5 11 -9 13 -10 20 -13 76 -54 89 -65 14 -12 22 -13 56 -11 19 2 19
1 25 -4 6 -4 6 -5 7 -30 1 -14 2 -28 4 -31 7 -17 37 -33 69 -37 63 -8 118 14
160 63 8 11 9 12 9 23 0 6 -1 11 -2 11 -1 0 -2 1 -1 2 1 2 -11 13 -19 16 -19
7 -37 20 -45 32 -5 8 -4 20 2 26 6 5 15 5 31 0 23 -8 29 -13 37 -29 6 -14 8
-20 9 -26 0 -5 22 -17 39 -23 27 -10 55 -10 84 -1 38 12 73 44 95 86 14 27 21
31 34 19 13 -12 30 -22 51 -30 20 -8 47 -6 71 3 16 7 33 7 47 1 6 -2 20 -6 31
-9 25 -7 62 -22 75 -31 6 -4 16 -13 22 -20 13 -14 25 -21 44 -25 6 -2 17 -5
22 -7 6 -2 11 -3 11 -3 1 0 5 1 11 1 11 1 20 8 22 18 3 11 11 26 16 29 4 3 11
4 24 3 2 0 6 -3 9 -6 5 -5 6 -7 6 -17 0 -13 -1 -16 -17 -34 -26 -30 -30 -33
-47 -27 -10 4 -30 1 -40 -6 -13 -9 -28 -23 -31 -28 -2 -3 -3 -10 -3 -16 0 -8
1 -10 7 -16 11 -11 20 -12 57 -11 48 1 72 5 106 13 8 3 18 5 22 6 17 4 51 21
77 37 17 10 37 28 57 52 8 10 19 29 32 55 16 31 16 36 4 62 -9 19 -8 27 7 36
13 8 24 20 28 28 3 8 6 24 10 46 6 38 1 54 -21 76 -6 5 -10 10 -10 11 0 5 -10
8 -22 6 -12 -1 -13 -2 -23 -11 -10 -10 -11 -10 -22 -10 -10 0 -12 1 -17 6 -5
5 -6 7 -6 17 0 10 1 12 6 17 6 6 7 6 19 6 9 -1 13 -2 17 -6 8 -7 40 -4 37 3 0
2 1 8 4 14 5 11 12 15 14 10 1 -2 2 -3 4 -2 1 1 4 2 8 2 3 0 5 1 5 2 0 1 1 1
2 0 5 -5 17 6 22 21 2 6 4 32 7 86 1 21 -1 35 -9 46 -6 8 -11 23 -9 28 1 6 29
36 36 40 3 1 7 1 12 0 12 -3 30 -2 38 1 7 3 7 3 7 16 0 17 -2 21 -18 39 -14
14 -23 22 -55 48 -7 6 -23 18 -34 28 -21 17 -21 17 -36 29 -5 4 -12 10 -16 13
-3 3 -8 7 -12 9 -4 2 -5 3 -2 3 2 0 4 1 4 3 2 4 12 7 35 8 32 1 49 8 68 27 18
18 23 39 12 55 -4 6 -7 7 -18 10 -8 2 -18 3 -24 3 -11 0 -17 5 -19 15 0 3 -1
7 -2 8 -7 25 -8 26 -17 35 -5 5 -12 11 -15 14 -22 16 -33 26 -37 31 -9 13 -16
16 -30 16 -11 0 -15 -1 -21 -5 -15 -10 -27 -12 -39 -7 -12 5 -18 21 -14 36 4
13 11 19 27 20 23 2 40 9 48 21 5 8 15 14 22 14 5 0 15 6 21 12 7 8 9 21 6 36
-4 17 -3 25 6 52 l9 25 1 117 1 117 5 9 c3 5 6 8 6 7 0 -4 27 14 40 27 10 10
12 14 12 26 0 15 -4 21 -23 35 -14 11 -31 24 -41 32 -11 8 -25 17 -32 19 -5 2
-52 4 -87 4 -3 0 -7 2 -10 5 -6 6 -7 21 -2 32 2 4 3 12 3 17 0 9 -4 24 -6 24
0 0 -6 4 -12 9 -17 14 -25 18 -38 16 -15 -1 -17 -3 -48 -35 -14 -15 -29 -31
-34 -36 -5 -5 -12 -13 -16 -17 -14 -16 -22 -18 -64 -18 -37 0 -37 0 -43 5 l-6
5 5 3 c3 1 9 5 13 10 5 4 11 9 14 12 9 7 14 16 20 37 8 24 13 27 43 20 18 -4
28 -3 43 6 19 11 31 26 42 52 11 27 -11 53 -47 54 -8 0 -17 -1 -19 -1 -10 -4
-15 -6 -21 -11 -12 -11 -18 -14 -28 -14 -11 0 -18 5 -26 17 -12 19 -32 31 -45
28 -12 -4 -19 -8 -26 -16 -3 -3 -7 -8 -9 -9 -1 -1 -3 -3 -5 -4 -1 -2 -5 -3 -8
-3 -6 0 -10 4 -20 23 -11 20 -20 25 -55 30 -12 2 -30 4 -42 6 -18 3 -22 3 -31
0 -11 -3 -22 -13 -24 -21 0 -3 -1 -7 -2 -7 0 -1 -1 -33 -2 -71 -2 -96 -2 -104
-8 -110 l-5 -5 -22 8 c-35 14 -88 33 -95 34 -3 1 -14 5 -23 10 -35 16 -61 6
-55 -22 2 -7 3 -8 14 -13 6 -2 15 -4 21 -5 21 -1 26 -7 26 -26 0 -16 -8 -25
-23 -23 -6 1 -31 -8 -35 -13 -8 -7 -9 -13 -10 -48 -1 -33 -1 -34 -6 -42 -4 -4
-6 -6 -6 -5 -1 2 -6 3 -19 3 -11 0 -18 1 -19 3 -2 1 -3 9 -3 23 0 25 -3 33
-14 42 -4 4 -12 10 -16 14 -4 4 -15 11 -23 16 -16 9 -40 31 -40 37 0 2 -37 34
-44 39 -7 4 -24 6 -32 3 -10 -3 -27 -20 -32 -31 -5 -10 -15 -22 -18 -20 -1 1
-2 0 -2 -1 0 -1 -1 -2 -1 -2 -5 2 -13 -5 -42 -33 -44 -42 -38 -40 -103 -40
l-53 0 -7 6 c-3 3 -5 5 -4 5 1 0 3 2 4 5 1 2 6 14 12 26 9 19 11 24 11 35 1
10 0 15 -2 16 -2 3 -2 4 3 7 4 4 8 6 23 8 9 2 34 14 45 22 22 16 37 41 35 57
-3 19 -14 29 -40 35 -8 2 -19 5 -25 7 -19 5 -32 1 -49 -14 -15 -14 -15 -14
-26 -14 -14 0 -18 3 -24 23 -3 9 -6 17 -7 17 -1 0 -2 1 -2 3 0 6 -15 15 -32
20 -26 8 -38 8 -58 3 -28 -8 -33 -6 -53 14 -13 12 -23 17 -43 22 -9 2 -17 4
-18 5 -2 0 -7 0 -13 -2z m262 -164 c3 -1 13 -15 18 -25 3 -5 1 -12 -4 -12 -2
0 -4 -1 -10 -2 -1 0 -7 0 -14 0 -15 0 -21 5 -21 20 0 14 6 20 19 20 5 0 10 -1
12 -1z m255 -83 c5 -5 5 -8 1 -14 -4 -5 -11 -5 -16 0 -9 11 4 24 15 14z m886
-69 c3 -3 4 -7 4 -14 0 -13 -6 -19 -19 -19 -13 0 -19 6 -19 19 0 7 1 11 4 14
7 8 23 8 30 0z m-624 -57 c13 -7 17 -10 40 -28 4 -4 11 -8 15 -9 3 -1 7 -2 9
-2 5 -2 23 -1 33 0 8 1 10 1 14 -3 7 -6 7 -19 1 -25 -5 -5 -19 -7 -23 -3 -1 1
-8 3 -15 6 -11 4 -14 4 -30 3 -14 -1 -19 0 -32 3 -19 5 -35 13 -40 20 -6 7 -6
30 0 40 5 8 10 8 28 -2z m351 0 c6 -1 35 -2 74 -2 l64 1 6 -6 6 -6 0 -44 0
-44 -6 -6 -6 -6 -108 1 -108 1 -13 5 c-7 3 -14 6 -15 8 0 1 -2 2 -4 2 -3 0
-15 13 -15 16 0 3 10 18 12 18 1 0 14 23 12 23 -1 0 0 2 2 4 1 2 2 3 1 3 -1 0
-1 1 0 3 1 1 2 5 3 9 1 14 8 20 29 22 15 2 53 1 66 -2z m-906 -5 c3 -2 7 -7 8
-11 8 -19 17 -34 22 -34 2 0 3 -1 3 -2 0 -4 17 -6 49 -6 49 0 50 -1 38 -33
-11 -27 -31 -72 -41 -95 -5 -9 -10 -22 -13 -29 -9 -25 -13 -28 -36 -27 -17 2
-25 6 -32 20 -2 5 -5 10 -5 11 -1 1 -2 3 -2 4 -1 1 -4 5 -6 8 -6 7 -19 13 -47
22 -24 7 -33 13 -33 20 0 2 5 10 11 19 5 8 15 24 22 34 6 10 12 20 13 22 7 11
9 18 10 43 1 28 2 32 12 36 8 3 21 2 27 -2z m-152 -35 c5 -4 19 -25 23 -33 7
-16 -6 -22 -22 -9 -17 13 -26 24 -26 31 0 13 15 20 25 11z m465 -47 c15 -8 14
-41 -1 -48 -11 -6 -34 -13 -45 -14 -13 -2 -20 3 -20 12 0 5 6 21 9 24 3 4 5 7
12 16 11 14 29 18 45 10z m204 -8 c4 -1 9 -5 12 -7 8 -7 27 -15 36 -16 1 0 5
-3 8 -6 5 -5 6 -7 6 -18 0 -11 -1 -13 -6 -18 -3 -3 -7 -6 -8 -6 -10 -1 -30
-10 -36 -17 -10 -11 -10 -11 -10 -147 0 -144 -1 -137 14 -162 12 -21 12 -31
-1 -53 -8 -15 -9 -16 -17 -17 -5 -1 -8 0 -8 1 0 1 -3 6 -7 12 -3 5 -10 15 -14
22 -7 10 -19 22 -22 22 -1 0 -5 1 -9 3 -4 1 -11 2 -17 3 -7 1 -12 3 -16 7 -5
5 -5 6 -6 25 -1 22 -2 33 -5 33 -1 0 -2 1 -1 2 1 2 -19 21 -28 27 -8 5 -25 11
-41 14 -9 2 -16 11 -17 20 0 7 5 24 9 27 3 3 22 41 22 44 0 1 6 7 14 14 11 10
14 15 16 22 5 18 2 26 -18 47 -18 18 -19 20 -18 36 2 16 7 21 25 21 13 0 13 0
23 -10 l10 -10 14 0 c7 0 15 1 17 1 2 1 11 18 21 38 20 41 26 48 44 50 1 0 2
1 3 2 1 0 2 0 3 -1 0 -1 4 -3 8 -5z m-709 -78 c3 -5 3 -5 0 -10 -2 -3 -5 -5
-7 -5 -2 0 -5 2 -7 5 -3 5 -3 5 0 10 2 3 5 5 7 5 2 0 5 -2 7 -5z m-119 -21 c8
0 14 -8 14 -21 0 -17 -7 -23 -26 -21 -11 1 -15 6 -17 23 -2 14 4 20 17 20 4
-1 9 -1 12 -1z m1374 -46 c10 -3 14 -5 18 -12 5 -9 2 -18 -10 -30 -12 -12 -16
-23 -16 -46 1 -18 1 -19 -5 -25 l-6 -6 -107 1 c-106 1 -107 1 -117 6 -5 2 -11
4 -13 4 -2 0 -4 1 -3 2 0 1 -10 6 -23 13 -25 12 -30 13 -64 10 -14 -1 -16 -1
-21 4 -6 4 -6 6 -6 20 0 14 0 16 6 20 4 4 7 5 18 5 12 0 13 -1 22 -8 14 -11
19 -14 32 -15 7 -1 12 -2 13 -2 4 0 27 14 31 19 5 8 10 21 9 28 -1 3 1 7 5 11
l6 6 111 -1 c78 -1 114 -2 120 -4z m-986 -44 c12 -3 16 -10 16 -24 0 -11 -1
-13 -6 -18 -3 -3 -7 -6 -9 -6 -12 -1 -19 0 -23 2 -6 3 -32 8 -45 8 -12 0 -19
5 -19 16 0 13 6 16 27 16 19 0 41 3 41 6 0 3 9 2 18 0z m137 -117 c5 -3 12 -7
15 -9 3 -3 8 -7 12 -10 8 -6 13 -15 13 -27 0 -19 -10 -28 -29 -28 -19 1 -24 6
-29 32 -5 27 -6 36 -2 42 5 6 7 6 20 0z m649 -34 c2 -2 5 -5 5 -7 1 -1 4 -7 7
-11 3 -5 6 -9 6 -10 0 -2 13 -13 16 -13 1 0 2 -1 2 -2 0 -2 0 -1 20 -3 20 -2
31 2 52 15 22 14 28 14 50 0 8 -5 17 -10 20 -11 2 -1 4 -2 4 -3 0 -1 3 -4 6
-8 4 -3 6 -6 5 -6 0 0 1 -3 2 -7 4 -9 14 -21 18 -21 2 0 3 -1 3 -2 0 -1 1 -1
3 -1 4 -1 22 -3 26 -4 5 -1 17 -11 13 -11 -1 0 -3 -3 -5 -6 -2 -3 -8 -8 -13
-10 -8 -4 -12 -5 -55 -6 -25 -1 -47 -2 -49 -3 -3 -2 -34 -2 -48 1 -25 5 -34
-2 -36 -24 l-1 -14 18 -10 c11 -6 19 -11 19 -12 0 -1 2 -3 4 -5 4 -5 4 -7 -1
-13 -5 -4 -5 -4 -17 -2 -7 1 -15 3 -17 3 -7 2 -24 7 -30 10 -4 3 -9 3 -19 2
-18 -2 -18 -2 -17 -3 2 -1 -11 -14 -15 -14 -2 0 -2 -1 0 -1 1 -1 2 -5 2 -11 0
-17 4 -23 18 -26 14 -3 99 -1 103 2 2 1 3 2 3 1 0 -1 2 1 4 4 3 3 7 8 10 11 3
3 6 7 7 10 1 2 3 5 6 6 3 1 5 3 4 4 -2 2 11 10 16 10 6 0 17 -8 16 -12 -1 -3
12 -26 17 -30 10 -7 13 -7 89 -8 l76 -1 7 -5 c3 -4 5 -6 4 -6 -2 0 -15 -12
-50 -46 -6 -6 -16 -13 -21 -16 l-10 -5 -150 -1 c-151 0 -166 0 -201 7 -3 1 -8
2 -11 2 -17 3 -24 27 -12 39 4 3 9 6 14 7 4 0 9 2 11 3 1 1 6 3 10 5 4 2 7 4
7 5 -1 1 2 2 6 3 4 1 8 2 9 4 2 3 3 13 2 19 -1 2 -2 6 -3 10 -1 3 -2 6 -3 6
-2 0 -2 1 -1 1 0 1 -1 4 -4 8 -9 12 -8 24 5 36 8 8 10 11 10 18 0 4 1 11 1 14
0 3 -2 11 -4 17 -4 11 -5 15 -5 40 0 16 -1 36 -2 44 -4 28 1 42 16 46 9 2 22
1 28 -3z m-130 -42 c14 -5 28 -13 33 -19 9 -11 6 -32 -6 -46 -4 -4 -11 -12
-19 -23 -7 -9 -14 -13 -26 -13 -9 0 -11 1 -16 6 l-6 6 0 22 c1 11 0 30 -1 41
-1 18 -1 20 2 25 7 8 20 8 39 1z m-625 -5 c5 -3 10 -7 12 -9 2 -2 9 -8 16 -12
6 -4 13 -10 15 -13 8 -10 3 -29 -10 -32 -10 -3 -15 1 -24 15 -7 13 -16 19 -23
16 -1 0 -4 0 -7 1 -4 1 -6 1 -6 -1 0 -1 -1 0 -3 2 -3 4 -3 4 -3 -1 0 -3 -2 -5
-8 -8 l-9 -4 -5 5 -5 5 4 9 4 10 12 0 c10 -1 11 0 11 4 0 4 5 10 13 14 6 4 8
4 16 -1z m311 -101 c3 -3 4 -7 4 -14 0 -13 -6 -19 -19 -19 -13 0 -19 6 -19 19
0 7 1 11 4 14 7 8 23 8 30 0z m-276 -23 c14 -15 27 -30 36 -44 2 -2 8 -12 15
-21 7 -9 13 -18 15 -20 2 -3 10 -14 18 -26 17 -25 22 -33 22 -39 0 -7 -7 -5
-33 8 -34 16 -51 24 -61 25 -8 2 -20 6 -20 7 0 1 -34 10 -59 15 -24 4 -37 -2
-51 -23 -9 -14 -22 -18 -29 -9 -7 7 -16 30 -14 37 2 9 9 19 16 23 4 2 9 5 11
7 2 2 7 6 11 9 5 2 10 6 11 7 2 2 8 6 13 10 10 7 15 11 20 15 1 1 8 7 16 13 8
6 14 11 15 12 5 6 14 10 23 10 10 0 10 0 25 -16z m343 -62 c11 -10 3 -28 -11
-28 -9 0 -16 6 -16 16 0 14 17 22 27 12z m178 -76 c7 -6 7 -19 1 -25 -6 -7
-19 -7 -25 -1 -7 6 -7 19 -1 25 6 7 19 7 25 1z m-536 -15 c3 -2 8 -10 13 -18
4 -8 10 -18 13 -22 6 -10 6 -17 1 -23 -8 -10 -18 -4 -31 18 -4 7 -9 17 -12 21
-6 10 -6 17 -1 23 4 5 10 5 17 1z m1126 -19 c11 -10 3 -28 -11 -28 -9 0 -16 6
-16 16 0 14 17 22 27 12z m-179 -47 c7 -7 8 -14 2 -16 -2 -1 -4 -2 -4 -3 0 -4
-15 -2 -19 2 -13 14 7 31 21 17z m85 -9 c7 -3 12 -13 12 -25 0 -12 -2 -15 -13
-28 -4 -6 -10 -15 -13 -20 -5 -11 -17 -21 -19 -17 -2 3 -44 22 -49 22 l-6 0 5
2 c3 1 4 2 2 2 -1 0 3 5 8 11 6 6 13 15 15 19 12 23 22 33 31 35 3 1 6 2 7 2
3 1 13 -1 20 -3z m216 -42 c7 -7 8 -18 3 -23 -11 -10 -30 -4 -30 11 0 14 18
22 27 12z m-484 -19 c4 -3 8 -5 9 -5 2 0 1 -1 -1 -3 -3 -2 -4 -5 -4 -18 0 -9
1 -16 3 -18 1 -2 2 -3 1 -3 -1 0 0 -1 1 -3 6 -7 -9 -5 -37 5 -20 8 -24 8 -39
8 -10 0 -18 1 -18 1 0 1 0 2 0 3 -2 4 -1 8 1 8 1 0 1 1 0 1 0 1 1 4 3 7 2 3 4
7 4 8 0 2 4 5 9 8 8 6 9 6 34 6 25 0 27 0 34 -5z m271 -59 l4 -9 -5 -5 -5 -5
-5 6 c-4 4 -4 6 -3 11 5 12 8 13 14 2z m-391 -2 c2 -2 3 -9 2 -16 0 -7 1 -15
3 -17 3 -6 25 -14 45 -16 17 -2 25 -20 16 -38 -5 -11 -7 -13 -17 -14 -8 -1 -8
-1 -18 10 -6 6 -15 18 -20 25 -6 8 -13 16 -16 18 -13 8 -33 28 -33 33 0 10 32
22 38 15z m205 -34 c21 -5 27 -11 27 -29 0 -19 -9 -28 -28 -28 -20 0 -27 8
-28 33 -2 28 2 31 29 24z m-323 -5 c0 -1 -4 -2 -9 -2 -10 -1 -10 3 0 5 6 1 11
-1 9 -3z m469 -7 c5 -5 6 -26 1 -32 -8 -9 -28 -9 -35 0 -5 6 -5 24 0 30 6 8
27 9 34 2z m247 -55 c5 -4 6 -13 5 -25 0 -2 0 -6 0 -10 -1 -7 -1 -8 -6 -7 -8
1 -23 11 -27 17 -8 14 0 30 15 30 6 0 9 -1 13 -5z m-593 -41 c6 -6 9 -12 11
-21 1 -3 2 -5 3 -4 1 0 2 0 3 -2 0 -2 2 -3 3 -3 4 2 20 -16 20 -22 0 -13 -14
-18 -24 -8 -9 10 -9 11 -11 18 -1 5 -3 7 -5 6 -1 -1 -7 4 -18 14 -6 5 -8 8 -8
13 0 15 15 20 26 9z m260 -35 c4 -2 9 -9 12 -14 l4 -9 -4 -4 c-4 -5 -5 -5 -20
-4 -19 1 -24 5 -24 18 0 17 17 23 32 13z m-373 -8 c14 -9 11 -38 -3 -42 -8 -2
-10 -2 -17 2 -9 4 -11 8 -11 20 0 8 1 10 7 17 9 8 15 9 24 3z m428 -30 c10 -3
14 -5 17 -9 4 -6 4 -6 0 -27 -2 -12 -5 -23 -5 -25 0 -2 -1 -5 -2 -7 -2 -9 -11
-34 -16 -41 -5 -8 -6 -39 -1 -44 7 -9 -2 -42 -14 -54 -10 -10 -22 -11 -30 -3
-4 4 -4 6 -3 18 0 7 3 17 5 23 5 13 5 17 1 27 -7 17 -16 22 -46 24 -10 0 -15
2 -16 4 -4 6 -4 6 9 11 14 5 33 17 42 27 22 24 35 53 30 66 -2 6 0 9 7 11 8 2
8 2 22 -1z m-329 -74 c3 -3 4 -7 4 -14 0 -13 -6 -19 -19 -19 -13 0 -19 6 -19
19 0 7 1 11 4 14 7 8 23 8 30 0z m426 -9 c5 -5 6 -7 6 -17 0 -10 -1 -12 -6
-17 -5 -5 -7 -6 -17 -6 -10 0 -12 1 -17 6 -5 5 -6 7 -6 17 0 10 1 12 6 17 5 5
7 6 17 6 10 0 12 -1 17 -6z m-683 -3 c3 -5 3 -5 -2 -11 -6 -6 -7 -6 -16 -5 -7
1 -11 1 -12 -1 -1 -1 -2 -2 -3 -1 -1 1 -1 0 -1 -2 3 -6 -18 -22 -27 -21 -4 1
-10 9 -10 14 0 4 6 9 11 10 2 0 9 0 14 1 6 0 12 1 14 1 1 0 3 2 3 4 0 4 5 10
8 10 2 0 5 1 7 3 6 4 9 4 14 -2z m377 -5 c5 -2 11 -4 13 -5 2 0 7 -2 10 -4 4
-1 8 -3 10 -3 3 0 3 0 0 -4 -2 -2 -4 -4 -5 -4 0 1 -4 0 -8 -1 -5 -1 -14 0 -25
2 -23 4 -28 6 -32 12 -8 13 15 17 37 7z m-593 -15 c4 -6 2 -12 -5 -16 -5 -3
-6 -3 -10 3 -5 7 -5 8 -1 14 4 6 12 5 16 -1z m-270 -10 c8 -7 9 -23 2 -30 -5
-5 -18 -7 -25 -3 -10 5 -13 27 -6 34 6 6 22 6 29 -1z m239 -49 c7 -7 3 -19 -8
-19 -11 0 -16 12 -7 19 5 5 10 5 15 0z m1007 -11 c7 -2 14 -4 16 -4 3 -1 8 -4
12 -7 9 -8 10 -17 2 -24 -6 -5 -20 -5 -42 0 -19 5 -24 9 -25 20 -1 17 11 22
37 15z"/>
</g>
</svg>
