<?xml version="1.0" standalone="no"?>
<!DOCTYPE svg PUBLIC "-//W3C//DTD SVG 20010904//EN"
 "http://www.w3.org/TR/2001/REC-SVG-20010904/DTD/svg10.dtd">
<svg version="1.0" xmlns="http://www.w3.org/2000/svg"
 width="1100.000000pt" height="2850.000000pt" viewBox="0 0 1100.000000 2850.000000"
 preserveAspectRatio="xMidYMid meet">
<metadata>
Created by potrace 1.15, written by Peter Selinger 2001-2017
</metadata>
<g transform="translate(0.000000,2850.000000) scale(0.500000,-0.500000)"
fill="#000000" stroke="none">
<path d="M974 3838 c-5 -1 -13 -4 -17 -6 -5 -2 -10 -4 -10 -4 -3 0 -16 -11
-19 -17 -4 -7 -5 -23 -2 -31 1 -3 5 -9 9 -13 4 -4 10 -11 13 -15 3 -4 5 -7 6
-8 13 -12 43 -61 60 -96 16 -33 23 -49 34 -88 l5 -19 -5 -6 -5 -5 -169 0
c-174 0 -182 0 -204 8 -10 4 -61 25 -76 32 -9 4 -42 17 -55 22 -5 3 -14 6 -18
8 -7 3 -22 9 -82 34 -13 6 -26 11 -28 12 -28 13 -33 14 -45 10 -10 -4 -17 -11
-20 -21 -1 -5 -2 -54 -3 -155 0 -100 -1 -147 -2 -148 -1 0 -4 -3 -6 -6 -2 -4
-3 -4 -3 -2 0 6 -14 16 -29 21 -22 8 -30 13 -34 20 -3 4 -5 8 -5 9 0 6 -47 55
-60 62 -60 36 -67 38 -83 36 -64 -10 -75 -21 -58 -60 6 -15 15 -41 26 -71 8
-24 26 -103 30 -133 1 -13 3 -24 4 -32 1 -4 2 -34 2 -67 1 -65 1 -70 7 -82 8
-16 40 -41 68 -55 39 -18 82 -17 118 2 6 4 12 8 13 9 2 2 3 1 8 -6 7 -11 7
-37 0 -51 -5 -9 -8 -11 -32 -25 -5 -3 -11 -6 -12 -7 -1 -1 -5 -3 -9 -6 -4 -2
-10 -5 -14 -7 -87 -50 -118 -68 -131 -75 -18 -10 -29 -16 -52 -28 -9 -5 -32
-17 -52 -27 l-36 -18 -1 -23 0 -23 34 -68 c19 -37 52 -103 73 -145 22 -43 41
-78 42 -79 8 -3 30 -1 37 3 4 3 7 5 8 6 1 1 7 4 15 8 24 11 28 16 40 53 4 14
12 30 19 43 7 12 14 24 16 27 2 3 6 12 11 18 4 7 7 13 7 14 0 1 2 3 4 4 3 3 4
2 6 -1 2 -4 2 -23 0 -31 -1 -3 -2 -9 -3 -13 -1 -7 -4 -24 -10 -52 -3 -14 -18
-76 -23 -92 -3 -10 -3 -22 1 -43 4 -21 4 -23 -13 -37 -14 -12 -21 -21 -30 -43
-19 -47 -53 -116 -70 -143 -4 -7 -9 -16 -11 -19 -4 -7 -29 -45 -31 -47 -1 -1
-7 -9 -13 -18 -6 -9 -12 -17 -13 -18 -1 -1 -4 -5 -7 -9 -7 -9 -11 -15 -14 -18
-1 -1 -7 -7 -12 -14 -8 -10 -19 -22 -28 -32 -7 -7 -10 -20 -7 -39 0 -4 20 -24
27 -27 3 -2 11 -4 17 -4 10 -1 13 -1 24 5 14 7 59 33 75 43 22 14 58 38 61 40
1 1 3 3 5 4 1 1 7 5 12 9 6 4 10 7 11 8 1 1 8 6 16 12 8 7 17 13 19 15 2 2 7
6 10 9 7 5 30 25 38 33 15 15 23 14 27 0 3 -13 19 -36 27 -41 5 -3 12 -5 20
-5 l12 -1 35 17 c43 23 62 33 83 45 8 6 16 10 16 10 1 0 34 22 50 32 15 11 56
40 57 42 1 1 5 4 10 8 17 13 61 51 71 61 7 6 13 16 18 26 8 18 13 23 32 32 15
7 26 17 50 46 14 17 15 18 25 31 4 5 8 9 8 10 1 1 8 10 16 22 8 12 15 21 16
22 3 2 10 14 10 16 0 1 1 2 2 2 2 0 44 68 60 100 6 10 11 20 12 22 10 18 30
61 30 65 0 3 1 3 1 1 1 -2 2 -4 3 -4 1 0 4 -3 5 -7 3 -6 3 -31 3 -160 0 -132
0 -154 3 -160 2 -4 2 -7 2 -7 -1 0 1 -2 3 -4 5 -4 9 -5 23 -7 3 -1 7 -3 7 -4
1 -1 2 -1 2 1 0 5 10 4 14 0 5 -5 5 -11 0 -15 -4 -5 -14 -6 -14 -1 0 2 -1 2
-2 1 0 -1 -4 -3 -7 -4 -15 -2 -18 -3 -21 -7 -2 -2 -5 -4 -6 -4 -2 0 -12 -6
-14 -9 -1 -1 -18 -1 -76 2 -45 2 -86 5 -103 6 -33 3 -53 -14 -53 -44 0 -20 10
-38 25 -45 5 -2 19 -7 32 -10 83 -21 114 -57 126 -152 3 -20 5 -39 6 -52 3
-39 5 -44 18 -55 14 -13 30 -13 99 -1 69 12 134 36 165 59 1 1 5 4 8 6 17 11
53 48 53 55 0 1 1 2 2 2 1 0 9 15 23 45 9 19 18 61 21 96 2 35 -4 47 -32 60
-8 4 -15 9 -17 12 -8 13 -3 40 9 42 5 1 23 11 28 16 12 11 16 27 12 43 -3 9
-10 23 -14 25 -6 4 -14 18 -14 25 0 7 8 21 14 25 3 2 11 15 13 21 1 3 2 37 3
76 l1 72 6 5 5 5 0 -5 c0 -3 2 -10 5 -16 3 -7 8 -21 12 -31 4 -10 9 -23 11
-28 3 -5 6 -12 7 -17 2 -4 4 -9 5 -10 1 -1 5 -10 9 -20 10 -24 47 -97 63 -124
2 -4 7 -12 10 -17 6 -11 33 -54 48 -77 7 -10 39 -54 44 -59 2 -2 5 -6 8 -10
13 -17 34 -42 57 -65 18 -18 23 -20 63 -21 7 0 14 -9 14 -17 0 -13 1 -14 22
-13 19 0 19 1 21 13 2 14 8 37 13 55 7 20 25 63 28 64 1 0 2 1 2 3 0 5 30 43
48 60 22 22 44 39 67 52 9 5 19 12 23 16 10 10 20 31 21 43 0 10 -8 29 -15 35
-4 4 -27 17 -55 31 -4 2 -11 6 -15 9 -4 2 -15 8 -24 14 -9 5 -20 12 -24 15 -8
5 -24 6 -34 1 -6 -3 -16 -15 -19 -21 -2 -6 -10 -10 -18 -10 -14 0 -15 0 -21 6
-5 5 -6 7 -6 18 0 10 1 13 6 20 10 13 11 16 12 26 0 9 -3 22 -6 22 -1 0 -35
27 -51 42 -11 9 -70 69 -79 79 -42 47 -106 132 -106 141 0 9 18 16 58 23 4 1
43 10 60 14 3 1 7 2 9 2 6 1 59 15 66 17 3 1 17 5 31 9 14 4 39 11 56 17 l31
11 31 0 c40 0 55 5 74 25 10 10 12 15 12 26 0 14 -6 23 -25 36 -9 7 -31 23
-48 36 -17 13 -45 33 -62 46 -36 27 -60 45 -66 49 -5 3 -21 16 -64 48 -16 12
-35 26 -42 30 -7 4 -16 11 -21 15 -12 11 -19 15 -30 13 -13 -2 -20 -5 -20 -9
-1 -15 0 -21 3 -25 4 -6 16 -13 25 -16 8 -3 11 -7 12 -20 0 -12 0 -13 -6 -19
-9 -9 -24 -9 -37 1 -9 6 -11 7 -24 7 -8 0 -15 -1 -17 -2 -2 -1 -12 -17 -27
-42 -3 -5 -9 -14 -13 -21 -5 -7 -8 -13 -8 -15 0 -7 -9 -22 -16 -27 -4 -3 -8
-6 -8 -7 0 -2 -16 -26 -20 -31 -9 -9 -17 -1 -29 30 -11 29 -22 52 -31 61 -13
16 -15 20 -14 33 2 114 2 138 0 144 -5 12 -7 16 -13 22 -4 4 -8 10 -11 14 l-4
7 4 8 c3 4 10 11 17 16 7 5 15 10 17 12 2 2 8 6 13 8 20 9 42 39 44 60 2 10
-2 24 -7 24 -1 0 2 3 8 6 l11 5 134 1 c133 1 134 1 142 5 9 5 19 16 28 29 9
14 39 14 48 0 9 -13 19 -24 28 -29 10 -5 49 -7 71 -3 28 5 55 23 66 44 9 19 3
36 -18 55 -7 7 -17 16 -23 21 -11 10 -28 24 -61 52 -11 9 -22 19 -25 21 -2 2
-8 7 -13 11 -5 4 -12 10 -16 13 -10 8 -12 10 -46 36 -16 13 -33 27 -37 30 -12
10 -13 11 -19 14 -7 4 -22 4 -31 0 -3 -1 -9 -6 -12 -10 -3 -5 -7 -8 -7 -9 -1
-1 -6 -7 -11 -14 -23 -31 -34 -45 -35 -46 -1 0 -2 -2 -2 -3 0 -1 -1 -3 -2 -3
-1 -1 -5 -6 -10 -13 -5 -7 -9 -12 -10 -13 -1 -1 -10 -13 -22 -28 -14 -19 -22
-28 -27 -31 -8 -4 -13 -4 -93 -5 -90 0 -96 0 -102 6 -2 2 -5 4 -6 5 -2 0 -2 1
0 1 5 0 25 41 30 61 15 59 -12 122 -69 165 -32 24 -82 47 -120 55 -2 0 -10 2
-17 4 -7 1 -17 3 -22 4 -5 1 -10 2 -12 2 -2 0 -9 1 -17 2 -8 1 -17 2 -20 2
-12 2 -116 3 -125 1z m234 -80 c5 -5 5 -15 0 -20 -9 -9 -24 -2 -24 10 0 8 6
14 14 14 3 0 8 -2 10 -4z m532 -138 c5 -6 5 -12 0 -18 -7 -8 -22 -2 -22 9 0
11 15 17 22 9z m-534 -169 c3 -3 4 -5 3 -5 -1 0 -1 -1 1 -2 3 -4 1 -14 -4 -18
-7 -5 -19 -5 -25 0 -7 6 -7 19 -1 25 7 7 20 7 26 0z m-169 -50 l6 -6 -1 -158
-1 -158 -5 -6 -4 -7 -5 5 c-2 2 -8 7 -13 11 -5 4 -16 14 -25 21 -26 22 -33 28
-38 29 -7 3 -21 2 -28 -1 -3 -1 -26 -23 -53 -51 -26 -27 -50 -52 -54 -56 -14
-14 -19 -15 -76 -16 l-51 -1 -6 6 c-6 6 -6 7 -5 25 0 11 -1 23 -2 27 -2 8 -14
21 -19 21 -2 0 -3 1 -3 2 0 2 -1 2 -1 1 -1 0 -3 0 -5 1 -2 1 -8 3 -12 3 -16 2
-22 9 -22 26 0 17 6 24 22 26 4 0 10 2 12 3 2 1 4 1 5 1 0 -1 1 -1 1 1 0 1 1
2 3 2 5 0 17 13 19 21 2 6 2 40 2 115 l-1 107 6 6 6 6 171 0 171 0 6 -6z
m-534 -99 c13 -6 19 -16 19 -30 0 -20 -11 -28 -35 -25 -20 2 -29 8 -33 23 -2
9 0 22 6 29 8 9 27 11 43 3z m-97 -124 c5 -5 5 -15 0 -20 -9 -9 -24 -2 -24 10
0 8 6 14 14 14 3 0 8 -2 10 -4z m541 -118 c10 -9 3 -26 -10 -26 -8 0 -15 7
-15 15 0 13 16 20 25 11z m-404 -20 c5 -5 6 -7 6 -16 0 -15 -8 -23 -23 -23 -9
0 -11 1 -16 7 -9 8 -9 23 -1 32 9 9 24 9 34 0z m445 -58 c5 -5 5 -15 0 -20 -9
-9 -24 -2 -24 10 0 8 6 14 14 14 3 0 8 -2 10 -4z m539 -1 c2 -1 3 -3 3 -4 0
-1 1 -4 3 -8 1 -3 5 -14 7 -24 4 -16 4 -18 1 -22 -4 -6 -12 -7 -16 0 -1 2 -3
9 -4 16 -4 38 -4 39 -1 42 4 4 4 4 7 0z m-983 -63 c5 -5 5 -15 0 -20 -9 -9
-24 -2 -24 10 0 8 6 14 14 14 3 0 8 -2 10 -4z m236 -40 c4 -4 5 -6 4 -10 -1
-3 -4 -20 -8 -39 -7 -37 -7 -43 1 -70 7 -26 6 -32 -14 -52 -19 -19 -20 -22
-32 -61 -16 -52 -36 -109 -55 -154 -2 -5 -5 -11 -6 -13 -13 -32 -45 -95 -65
-128 -5 -8 -9 -16 -9 -16 0 -1 -2 -4 -5 -8 -22 -30 -25 -45 -13 -70 10 -20 3
-36 -15 -35 -36 2 -47 -1 -56 -13 -7 -9 -47 -50 -47 -48 0 1 -1 0 -3 -2 -2 -2
-3 -2 -4 -1 -1 1 0 3 1 5 1 1 1 3 0 4 0 1 0 1 2 0 1 -1 2 0 2 3 0 2 1 5 3 5 2
1 3 2 3 3 0 2 5 10 11 19 15 23 38 59 43 67 2 4 7 14 12 22 16 28 49 96 60
124 6 18 32 92 33 98 0 3 3 12 5 20 20 74 37 175 43 257 2 24 5 77 5 84 0 2 2
7 5 10 l5 5 45 0 44 0 5 -6z m399 -28 c10 -9 3 -26 -10 -26 -8 0 -15 7 -15 15
0 13 16 20 25 11z m-578 -116 c5 -5 6 -7 6 -16 0 -15 -8 -23 -23 -23 -9 0 -11
1 -16 7 -9 8 -9 23 -1 32 9 9 24 9 34 0z m243 -216 c15 -9 28 -30 28 -43 0
-10 -7 -17 -17 -17 -19 0 -45 26 -45 45 0 18 17 26 34 15z m-410 -62 c5 -5 5
-11 0 -16 -10 -10 -27 5 -16 16 4 4 12 4 16 0z m696 -72 c1 0 5 -3 8 -6 5 -5
6 -7 6 -18 0 -11 -1 -13 -6 -18 -6 -6 -7 -6 -18 -6 -11 0 -12 0 -18 6 -5 5 -6
7 -6 17 0 14 3 20 12 24 5 2 8 2 22 1z m570 -2 c5 -5 5 -11 0 -16 -10 -10 -27
5 -16 16 4 4 12 4 16 0z m-1280 -26 c5 -6 5 -12 0 -18 -7 -8 -22 -2 -22 9 0
11 15 17 22 9z m265 -67 c20 -3 28 -24 17 -46 -5 -10 -26 -15 -38 -10 -14 5
-20 20 -16 36 5 16 17 23 37 20z m574 -73 c10 -9 3 -26 -10 -26 -8 0 -15 7
-15 15 0 13 16 20 25 11z m-194 -122 c5 -5 6 -7 6 -16 0 -15 -8 -23 -23 -23
-9 0 -11 1 -16 7 -9 8 -9 23 -1 32 9 9 24 9 34 0z m249 -22 c5 -5 5 -15 0 -20
-9 -9 -24 -2 -24 10 0 8 6 14 14 14 3 0 8 -2 10 -4z"/>
</g>
</svg>
