<?xml version="1.0" standalone="no"?>
<!DOCTYPE svg PUBLIC "-//W3C//DTD SVG 20010904//EN"
 "http://www.w3.org/TR/2001/REC-SVG-20010904/DTD/svg10.dtd">
<svg version="1.0" xmlns="http://www.w3.org/2000/svg"
 width="1100.000000pt" height="2850.000000pt" viewBox="0 0 1100.000000 2850.000000"
 preserveAspectRatio="xMidYMid meet">
<metadata>
Created by potrace 1.15, written by Peter Selinger 2001-2017
</metadata>
<g transform="translate(0.000000,2850.000000) scale(0.500000,-0.500000)"
fill="#000000" stroke="none">
<path d="M932 3831 c-26 -9 -37 -23 -36 -44 1 -9 3 -12 13 -25 15 -19 15 -19
26 -33 5 -6 12 -15 16 -20 8 -8 19 -24 19 -26 0 -1 2 -5 4 -10 2 -4 6 -12 8
-18 7 -17 12 -21 29 -21 l14 0 4 8 c2 4 4 14 5 23 4 39 23 64 38 49 7 -7 9
-18 14 -55 2 -19 5 -37 5 -40 1 -9 -3 -14 -18 -19 -19 -8 -26 -13 -30 -22 -5
-14 -5 -24 0 -28 6 -5 29 -9 32 -6 1 1 5 2 8 2 8 0 14 -6 16 -16 2 -11 11 -28
15 -29 2 -1 4 -2 4 -3 0 -1 3 -3 8 -5 17 -7 20 -15 10 -25 -6 -6 -7 -6 -9 -3
-2 3 -29 12 -36 12 -2 0 -6 -1 -8 -1 -8 0 -24 -15 -33 -29 -7 -12 -16 -19 -22
-19 -5 0 -10 9 -9 15 2 10 5 23 7 23 2 0 -1 21 -4 26 -2 2 -7 6 -10 9 -7 4 -9
4 -139 5 l-132 1 -14 5 c-8 3 -17 7 -21 9 -27 11 -43 0 -50 -33 -3 -14 -9 -18
-25 -18 -11 0 -14 1 -18 5 -6 4 -6 6 -6 19 0 14 1 16 6 22 5 6 5 8 5 22 0 16
-1 16 -7 21 -3 2 -9 6 -13 7 -4 1 -11 4 -16 6 -4 2 -15 7 -24 10 -8 4 -19 8
-23 10 -25 12 -59 25 -65 25 -4 1 -14 0 -23 -2 -9 -1 -20 -3 -24 -3 -18 1 -34
-8 -39 -20 -2 -4 -2 -33 -2 -109 l1 -104 5 -9 c4 -7 10 -12 17 -17 24 -14 26
-22 14 -42 -21 -33 -22 -42 -8 -56 4 -5 24 -13 32 -13 7 0 12 -8 14 -20 1 -6
3 -19 5 -30 5 -24 5 -29 -1 -35 -4 -4 -7 -5 -13 -5 -9 0 -18 7 -18 13 0 6 -6
18 -12 22 -7 7 -19 9 -43 6 -10 -1 -11 -1 -16 4 -7 6 -7 16 0 40 5 17 7 30 5
37 -1 2 -2 7 -4 11 -3 11 -15 30 -28 43 -9 10 -9 10 -21 10 -12 0 -19 -3 -22
-7 0 -2 -2 -3 -3 -3 -2 0 -4 -1 -6 -3 -3 -3 -5 -3 -21 1 -18 5 -25 5 -45 3
-19 -1 -26 4 -36 26 -9 20 -18 30 -31 36 -10 5 -14 9 -35 31 -8 8 -13 11 -18
13 -1 0 -3 1 -6 2 -2 1 -5 1 -6 0 0 -1 -3 -3 -6 -4 -11 -5 -12 -24 -2 -49 8
-23 12 -29 29 -46 9 -10 15 -18 15 -20 0 -3 1 -6 1 -8 0 -2 -2 -9 -3 -16 -7
-24 -5 -36 8 -50 8 -8 21 -32 25 -42 1 -2 16 -16 19 -17 4 -1 11 -11 11 -16 0
-4 -5 -32 -7 -41 -4 -12 -7 -16 -20 -24 -10 -7 -13 -10 -15 -19 -3 -13 -3 -18
1 -27 2 -5 5 -15 6 -22 3 -22 7 -30 16 -39 13 -13 45 -29 68 -35 23 -6 50 -5
66 2 12 6 25 18 35 32 4 7 8 10 22 16 9 4 18 9 18 11 1 3 2 3 4 0 2 -2 5 -3 6
-3 2 0 4 -1 5 -1 1 0 3 -1 4 -1 0 0 5 -4 11 -9 5 -5 10 -9 11 -9 3 0 10 -14
10 -20 0 -12 -10 -22 -34 -33 -9 -4 -13 -7 -16 -14 -4 -8 -8 -24 -8 -35 -1
-17 -12 -21 -39 -10 -16 6 -24 7 -26 4 -1 -1 0 -2 1 -2 1 0 2 -5 2 -13 0 -13
1 -20 4 -18 2 1 13 -4 17 -9 3 -3 3 -4 3 -20 0 -17 -14 -25 -48 -25 -18 0 -27
3 -34 12 -3 3 -31 8 -29 5 1 -1 0 -3 -2 -4 -3 -3 -2 -12 1 -14 4 -2 4 -13 1
-21 -4 -12 -11 -17 -23 -17 -12 0 -19 4 -27 15 -12 16 -34 21 -49 11 -4 -4
-10 -8 -11 -11 -5 -7 -5 -30 0 -38 5 -11 3 -33 -5 -39 -2 -1 -10 -18 -9 -18 0
0 0 -4 -2 -9 -2 -6 -3 -14 -3 -18 0 -12 -3 -18 -12 -24 -5 -3 -8 -5 -8 -4 0 1
-3 -2 -7 -7 -6 -7 -8 -12 -10 -29 0 -5 13 -27 20 -33 4 -3 12 -9 19 -12 13 -7
19 -13 21 -21 2 -11 9 -26 15 -31 9 -8 11 -9 20 -14 5 -3 19 -11 30 -18 19
-12 23 -16 33 -29 3 -5 4 -5 17 -5 18 0 23 4 31 28 7 20 12 33 15 35 3 2 9 24
11 36 3 22 4 26 13 33 11 8 30 27 35 34 2 4 3 7 2 15 0 5 -1 11 -1 13 0 1 -4
7 -9 12 -9 9 -10 10 -18 10 -12 0 -25 -4 -35 -12 -16 -11 -39 -8 -53 8 -27 30
-35 50 -25 62 4 5 4 5 40 5 33 0 37 0 40 -3 2 -2 4 -5 4 -6 0 -5 11 -18 15
-17 0 0 2 -1 3 -3 2 -3 34 -6 56 -6 l12 0 3 -7 c4 -9 4 -18 0 -49 -4 -27 -16
-97 -20 -117 -2 -8 -3 -18 -4 -21 -1 -4 -2 -10 -3 -13 -1 -3 -2 -8 -3 -11 0
-3 -2 -10 -4 -16 -3 -11 -1 -25 6 -35 5 -7 18 -17 28 -19 26 -7 45 -17 45 -24
0 -3 3 -13 8 -24 11 -28 12 -32 8 -38 -2 -2 -5 -4 -6 -4 -4 0 -18 12 -18 15 0
7 -22 25 -42 35 -22 11 -24 11 -42 5 l-8 -4 0 -11 c0 -15 4 -22 20 -30 7 -3
13 -8 15 -11 1 -2 4 -15 7 -28 3 -20 5 -27 12 -40 14 -26 14 -27 27 -27 15 1
20 3 28 16 8 13 14 16 29 17 16 1 25 -7 27 -27 1 -5 2 -11 2 -14 0 -2 0 -5 -2
-6 -11 -9 -11 -9 -25 -9 -8 0 -16 2 -20 4 -7 4 -24 4 -31 0 -2 -1 -8 -5 -12
-10 -10 -9 -18 -13 -29 -13 -16 0 -23 3 -31 14 -9 11 -11 12 -31 13 -11 1 -14
1 -16 -2 -1 -2 -5 -3 -7 -3 -6 0 -29 -10 -32 -14 -2 -2 -4 -8 -6 -14 -3 -10
-3 -11 0 -16 10 -15 15 -17 43 -19 21 -1 29 -9 29 -28 0 -19 -9 -28 -28 -28
-15 0 -21 4 -27 18 -3 7 -9 16 -14 21 -7 8 -8 9 -18 8 -17 -1 -30 -11 -49 -38
-17 -24 -49 -68 -53 -72 -1 -1 -8 -9 -16 -19 -15 -18 -24 -28 -39 -44 -8 -8
-8 -9 -8 -20 0 -14 5 -21 19 -27 5 -2 11 -5 13 -6 8 -5 22 -8 32 -8 9 -1 14 1
31 10 29 16 30 16 35 27 4 8 6 15 7 30 1 17 2 20 6 23 7 6 18 5 33 -2 17 -8
41 -8 47 0 1 1 10 8 22 16 12 8 23 16 25 18 2 2 5 4 7 6 2 2 7 6 11 9 31 24
97 87 123 116 8 10 13 19 15 29 2 10 24 32 33 32 2 0 7 6 11 13 4 6 8 12 9 13
1 1 27 39 29 43 2 5 5 30 3 36 -1 5 -2 6 -9 6 -4 -1 -9 -2 -11 -4 -2 -1 -5 -3
-8 -3 -3 -1 -10 -4 -16 -8 -23 -14 -35 -17 -44 -10 -10 8 -7 27 6 36 7 5 16
12 22 18 9 9 17 13 26 13 11 0 16 -4 22 -14 3 -6 3 -7 4 -11 0 -5 7 -8 17 -8
17 1 20 4 32 28 15 32 15 31 13 38 -1 3 -1 6 -1 6 3 0 -7 8 -11 9 -7 2 -20 1
-26 -2 -10 -5 -25 -4 -31 2 -4 4 -5 7 -5 16 0 11 1 12 8 19 8 8 8 9 8 22 0 18
-2 22 -15 28 -13 6 -15 11 -14 28 1 16 4 23 15 28 16 8 27 4 34 -13 11 -28 19
-38 34 -38 6 0 10 1 10 1 0 1 2 2 5 4 6 2 12 15 16 33 4 16 5 18 17 27 29 22
36 40 30 80 l-3 23 6 12 c3 7 7 13 8 15 4 5 9 20 11 33 6 39 12 113 13 161 0
16 1 40 2 53 1 21 1 26 -3 37 -2 7 -5 14 -6 15 -8 10 -13 23 -13 39 0 9 -1 18
-1 19 0 6 -15 13 -21 11 -3 0 -8 -1 -10 -1 -2 0 -7 1 -11 1 -10 0 -16 8 -16
20 0 15 5 19 24 21 34 2 46 10 54 33 4 13 4 15 4 133 l-1 120 6 6 c5 5 8 6 17
6 21 1 32 14 39 47 1 8 9 12 20 12 11 0 19 -4 20 -12 5 -23 12 -36 23 -43 7
-4 10 -4 106 -4 98 0 99 0 107 4 9 5 19 15 27 28 3 5 9 9 17 13 14 6 14 7 24
-3 2 -2 3 -3 4 -3 1 0 4 -3 7 -7 17 -26 28 -32 55 -32 13 0 21 1 23 2 2 2 9 3
16 3 7 0 14 -1 16 -3 2 -1 22 -2 62 -3 57 -1 59 -1 68 -6 9 -4 9 -5 8 -9 -1
-3 -1 -5 0 -6 1 -2 3 -13 4 -27 1 -13 2 -25 3 -26 1 -1 2 -9 4 -21 1 -7 0 -10
-5 -20 -17 -30 -15 -15 -15 -133 0 -58 1 -118 1 -135 l1 -30 10 -19 c13 -24
13 -31 1 -56 -15 -30 -14 -25 -14 -93 1 -69 1 -71 16 -87 14 -14 16 -21 10
-28 -4 -4 -5 -4 -24 -4 -12 0 -26 -1 -33 -3 -7 -2 -21 -5 -33 -7 -109 -22
-106 -21 -122 -52 -9 -19 -14 -23 -28 -23 -11 0 -18 4 -26 13 -2 4 -5 6 -6 5
-2 -2 -12 26 -12 35 0 21 -12 40 -30 47 -25 11 -28 13 -32 27 -3 11 0 22 10
36 5 5 12 17 17 26 4 9 12 20 16 25 19 22 19 24 19 116 0 73 0 79 -4 87 -6 15
-16 22 -38 26 -5 1 -11 3 -14 3 -8 2 -26 -3 -39 -10 -6 -4 -14 -7 -17 -7 -6 0
-28 7 -28 10 0 0 -3 3 -6 5 -13 8 -18 15 -18 29 0 9 1 11 6 16 11 11 33 7 44
-8 10 -13 11 -14 25 -14 18 0 23 5 29 29 5 22 8 26 27 36 8 4 18 11 21 14 12
10 21 15 28 16 14 2 28 8 35 15 8 7 8 7 7 19 -3 21 -17 28 -45 24 -18 -3 -22
-3 -42 5 -20 8 -28 9 -77 14 -27 3 -43 3 -47 2 -16 -4 -24 -12 -33 -30 -3 -7
-7 -13 -8 -15 -11 -13 -45 -9 -50 6 -1 4 -2 8 -2 9 1 2 -1 7 -3 11 -4 10 -11
14 -27 16 -11 1 -13 1 -19 -4 -5 -3 -9 -5 -10 -5 -3 0 -4 -31 -1 -35 0 -1 6
-4 13 -7 18 -7 20 -8 20 -21 -1 -15 -4 -19 -19 -25 -15 -5 -26 -14 -31 -23 -4
-8 -4 -16 -5 -224 0 -211 0 -216 4 -234 5 -22 5 -33 0 -48 -2 -7 -5 -21 -7
-31 -5 -28 -8 -31 -29 -33 -24 -2 -31 -5 -37 -16 -5 -11 -4 -20 4 -37 11 -25
21 -46 21 -47 0 0 5 -12 12 -26 16 -33 22 -38 57 -41 24 -2 29 -7 26 -25 -2
-10 -5 -16 -13 -25 -6 -6 -12 -21 -12 -32 0 -2 4 -12 8 -21 4 -9 8 -17 8 -18
0 -3 11 -18 16 -20 6 -3 23 -4 28 -2 4 1 7 8 9 19 1 3 1 12 1 22 0 15 0 16 6
22 8 8 21 8 37 1 10 -5 15 -6 27 -6 14 0 16 1 27 7 7 4 17 10 22 13 10 5 39
22 61 35 6 3 14 7 17 9 6 2 10 12 9 26 l-1 10 -14 7 c-17 9 -19 13 -18 30 0
17 6 22 24 22 18 0 22 -4 25 -23 2 -10 2 -16 0 -23 -2 -7 -2 -9 1 -12 6 -5 32
-2 47 6 6 4 13 8 17 10 3 1 5 3 5 4 0 1 1 2 3 2 1 0 3 1 3 2 1 1 7 5 15 9 7 4
15 9 17 10 1 1 8 5 15 9 27 15 35 22 41 35 8 16 10 23 11 41 3 45 4 46 25 51
30 6 54 2 61 -11 5 -10 6 -13 6 -45 1 -32 3 -44 10 -49 4 -3 31 -10 31 -8 0 1
2 2 5 4 2 1 7 4 10 6 3 3 7 6 10 8 4 3 6 14 8 35 2 20 10 28 28 28 14 0 20 -4
27 -17 14 -26 33 -39 62 -42 10 -1 19 -3 20 -4 5 -5 12 -31 12 -43 0 -12 0
-13 -6 -17 l-6 -4 -14 5 c-8 3 -23 8 -34 11 -22 7 -22 8 -28 20 -8 14 -16 21
-26 22 -5 0 -11 0 -13 1 -4 0 -11 -5 -10 -7 1 -1 0 -2 -1 -2 -1 0 -2 -4 -3 -8
-4 -33 -8 -38 -26 -38 -6 0 -12 1 -13 3 -2 2 -5 2 -16 -1 -24 -6 -26 -10 -26
-53 0 -42 4 -49 28 -56 21 -6 40 -2 62 12 14 10 22 11 28 5 5 -5 5 -8 1 -24
-4 -18 -5 -23 -6 -38 -2 -17 -6 -22 -20 -22 -4 0 -10 1 -12 2 -26 14 -42 16
-48 6 -4 -7 -4 -29 0 -36 6 -11 3 -20 -11 -34 -17 -17 -22 -27 -19 -40 1 -6
13 -24 13 -19 0 0 3 -1 7 -2 4 -2 13 -3 21 -4 25 -1 29 -7 31 -43 1 -15 1 -19
-5 -35 -3 -10 -6 -21 -7 -23 -5 -24 -12 -36 -20 -36 -6 0 -28 -11 -33 -16 -10
-11 -7 -36 5 -46 5 -5 21 -13 34 -17 7 -2 14 -6 21 -14 10 -9 11 -10 23 -11
10 -1 14 0 18 2 11 7 22 9 38 6 23 -4 34 -3 56 5 29 10 85 38 91 45 1 1 5 4
10 7 20 14 37 36 41 52 4 16 3 38 -1 47 -5 12 -8 15 -25 27 -8 5 -15 10 -15
11 0 1 -2 4 -5 7 -2 3 -6 9 -7 14 -1 4 -5 12 -8 16 l-5 8 -14 0 c-8 0 -15 -1
-17 -2 -7 -3 -4 -20 9 -45 12 -23 -12 -38 -29 -19 -5 4 -8 8 -8 9 0 1 -2 4 -5
7 -19 21 -19 22 -48 34 -6 3 -14 7 -16 9 -5 6 -9 21 -9 36 0 16 4 22 16 22 7
0 10 -2 22 -14 14 -14 15 -15 26 -16 10 -1 11 -1 18 5 18 17 31 67 22 89 -8
17 2 33 20 33 14 0 23 -8 22 -21 -1 -30 -1 -46 3 -49 0 -1 1 -3 1 -4 0 -2 3
-8 6 -13 4 -6 8 -15 9 -19 2 -4 3 -7 3 -5 0 1 5 2 16 2 l15 0 4 7 c3 6 3 14 3
59 0 63 -1 66 -21 88 -22 24 -29 59 -14 71 33 28 34 31 33 62 -1 34 0 67 1
107 1 27 1 39 -1 46 -3 11 -9 21 -14 24 -6 3 -22 2 -36 -2 l-14 -4 -4 5 c-4 4
-4 4 0 10 2 4 7 9 12 12 10 6 46 41 51 50 6 12 7 20 7 58 0 31 -1 43 -4 59 -2
12 -5 23 -5 26 -2 8 -8 12 -19 12 -10 0 -22 -4 -22 -8 0 -3 -18 -22 -27 -27
-8 -5 -14 -6 -28 -5 -2 0 -6 2 -8 5 -5 5 -7 5 -20 5 -15 1 -23 -1 -23 -4 0 -1
-1 -2 -3 -2 -2 0 -5 -2 -6 -3 -2 -3 -3 -4 -11 -1 -5 2 -10 5 -13 7 -10 11 -15
36 -7 45 3 4 32 14 33 12 1 -2 11 -2 14 0 1 0 2 3 2 6 -2 15 -1 18 4 26 9 14
19 13 35 -1 5 -5 6 -6 25 -5 10 0 12 1 21 7 5 4 12 10 15 14 l6 7 1 -7 1 -8 1
9 c0 5 -1 10 -2 11 -1 1 -3 5 -3 9 -4 26 -4 30 2 37 12 12 13 15 13 28 0 6 -1
13 -3 15 -4 5 -19 16 -26 19 -21 9 -25 11 -30 16 -6 4 -16 22 -16 25 1 1 0 3
-1 5 -2 2 -4 8 -5 13 -2 9 -2 10 2 15 3 5 7 7 13 8 4 0 8 2 8 3 0 2 10 12 18
17 10 6 17 6 22 1 7 -8 3 -20 -8 -23 -5 -1 -6 -3 -7 -12 -2 -19 -1 -26 3 -29
5 -2 24 -3 28 -1 2 1 4 2 6 2 1 1 3 2 4 3 1 2 2 2 2 1 0 0 2 1 4 3 3 2 6 4 6
4 1 0 2 1 1 2 -1 1 0 2 0 2 5 0 7 20 8 87 0 59 1 72 4 81 3 11 11 20 17 20 9
0 32 9 38 15 8 9 14 24 12 33 -1 4 -2 8 -3 9 -1 6 -12 17 -20 21 -12 6 -12 6
-39 6 -13 1 -18 1 -12 1 6 1 10 2 9 3 -1 1 -2 2 -3 1 -1 0 -1 1 -1 3 0 3 3 5
10 8 6 2 16 6 23 9 16 6 18 6 36 -1 33 -14 38 -14 54 -7 8 4 12 8 18 18 5 6
10 13 12 15 6 6 16 5 23 -2 15 -13 17 -14 31 -14 12 0 13 0 20 8 21 22 20 46
-1 67 -9 9 -47 42 -55 49 -8 6 -27 13 -38 15 -14 2 -26 7 -44 17 -17 9 -19 10
-31 10 -8 0 -19 -1 -25 -3 -22 -5 -32 2 -32 20 0 11 0 12 10 21 l11 10 1 15 0
16 -15 12 c-8 7 -17 14 -20 16 -14 12 -39 9 -50 -6 -3 -5 -6 -8 -7 -9 -7 -7
-17 -23 -22 -33 -10 -21 -19 -33 -30 -42 -5 -4 -15 -14 -22 -22 -13 -16 -16
-26 -16 -47 -1 -14 -4 -22 -11 -22 -3 0 -12 2 -22 5 -15 4 -21 5 -51 5 -32 0
-35 0 -47 -5 -6 -3 -14 -7 -17 -10 -7 -6 -17 -11 -21 -11 -9 0 -29 -8 -43 -17
-16 -10 -21 -11 -25 -4 -5 7 -1 18 10 30 14 16 33 57 33 72 0 3 -1 8 -3 13 -3
7 -5 8 -13 11 -11 3 -18 4 -23 2 -14 -6 -52 8 -71 26 -12 13 -14 17 -14 31 0
15 7 22 22 22 13 0 21 -4 32 -16 5 -5 14 -13 19 -17 6 -4 10 -9 11 -9 1 -1 6
-1 11 -2 23 -1 23 13 -1 59 -18 35 -26 45 -56 67 -28 21 -71 43 -107 55 -12 4
-30 2 -36 -3 -14 -12 -15 -14 -14 -25 1 -5 4 -17 7 -25 6 -15 7 -16 3 -21 -2
-3 -5 -5 -7 -5 -5 0 -18 13 -18 18 0 4 -14 19 -25 27 -4 3 -19 16 -32 29 -35
34 -40 36 -88 37 -32 1 -35 1 -47 -4z m329 -333 c3 -3 5 -7 5 -10 0 -7 -7 -19
-11 -21 -2 0 -3 -2 -3 -4 0 -1 -1 -3 -2 -3 -5 -2 -8 0 -8 6 0 3 -1 8 -3 11 -9
17 9 34 22 21z m517 -26 c5 -6 5 -12 0 -18 -7 -8 -22 -2 -22 9 0 11 15 17 22
9z m-258 -14 c5 -6 5 -12 0 -18 -7 -8 -22 -2 -22 9 0 11 15 17 22 9z m-1007
-10 c5 -5 6 -7 6 -16 0 -15 -8 -23 -23 -23 -9 0 -11 1 -16 7 -9 8 -9 23 -1 32
9 9 24 9 34 0z m728 -24 c-3 -2 -3 -2 -6 0 -2 3 -2 5 1 14 l3 11 2 -11 c2 -8
1 -12 0 -14z m-597 -11 c7 -3 11 -13 11 -24 0 -16 -5 -23 -24 -33 -4 -2 -10
-6 -13 -8 -3 -3 -11 -10 -18 -16 -14 -12 -18 -20 -19 -37 -1 -11 -1 -12 4 -17
4 -4 4 -5 2 -7 -9 -10 -44 -7 -51 3 -6 8 -6 61 0 71 3 7 15 17 26 23 8 4 32
27 40 37 8 12 27 15 42 8z m863 -42 c-6 -1 -6 -2 -6 -10 l0 -8 17 -4 c9 -3 19
-6 21 -7 2 -1 9 -2 16 -2 31 -1 43 -8 33 -19 -6 -7 -22 -10 -60 -10 -51 0 -56
2 -56 22 0 12 6 21 14 21 2 0 4 1 5 2 1 2 1 2 -1 1 -1 -1 -2 1 -2 6 0 5 -1 7
-3 8 -2 0 3 0 12 0 9 0 13 0 10 0z m-1282 -105 c6 -5 11 -21 10 -33 -3 -32
-41 -15 -41 18 0 17 17 25 31 15z m400 -13 c5 -5 5 -6 2 -9 -4 -5 -7 -5 -15
-1 -7 4 -6 8 2 12 3 2 5 3 5 3 1 0 3 -2 6 -5z m950 -37 c10 -9 3 -26 -10 -26
-8 0 -15 7 -15 15 0 13 16 20 25 11z m-1298 -42 c5 -4 37 -14 53 -17 19 -3 25
-26 9 -32 -2 0 -9 1 -17 2 -13 3 -16 3 -58 0 -17 -2 -24 3 -25 17 -3 23 4 32
25 32 6 0 12 -1 13 -2z m307 -8 c8 0 14 -9 14 -21 0 -13 -4 -19 -14 -21 -14
-3 -51 5 -59 13 -6 5 -6 15 0 20 5 6 30 11 48 10 3 -1 8 -1 11 -1z m317 -73
c3 -5 3 -5 0 -10 -2 -3 -5 -5 -7 -5 -2 0 -5 2 -7 5 -3 5 -3 5 0 10 2 3 5 5 7
5 2 0 5 -2 7 -5z m-373 -34 c3 -2 8 -5 11 -8 3 -3 14 -9 24 -14 12 -6 21 -12
25 -16 3 -5 8 -10 10 -12 2 -3 6 -8 8 -13 l4 -9 -4 -4 -5 -5 -12 7 c-16 9 -32
11 -46 6 -9 -3 -10 -3 -23 0 -18 5 -42 16 -48 22 -4 5 -10 22 -10 28 0 5 10
13 18 15 4 1 11 3 15 4 12 3 27 2 33 -1z m-240 -13 c5 -6 5 -12 0 -18 -7 -8
-22 -2 -22 9 0 11 15 17 22 9z m1262 -6 c1 0 5 -3 8 -6 5 -5 6 -7 6 -18 0 -11
-1 -13 -6 -18 -6 -6 -7 -6 -18 -6 -11 0 -12 0 -18 6 -5 5 -6 7 -6 17 0 14 3
20 12 24 5 2 8 2 22 1z m-92 -36 c5 -5 5 -15 0 -20 -9 -9 -24 -2 -24 10 0 8 6
14 14 14 3 0 8 -2 10 -4z m-535 -26 c26 -10 34 -14 37 -22 4 -10 3 -24 -2 -34
-6 -12 -8 -35 -3 -44 5 -9 23 -27 32 -32 13 -6 17 -12 17 -23 0 -15 -7 -20
-24 -19 -5 0 -8 2 -24 20 -7 8 -9 9 -20 10 -11 0 -12 0 -25 -10 -13 -10 -14
-10 -26 -10 -11 0 -14 1 -18 5 -6 4 -6 6 -6 20 0 16 4 23 11 23 2 0 4 1 4 2 0
1 1 2 2 1 1 -1 2 0 2 1 0 2 16 10 23 10 1 0 3 1 3 3 2 3 3 27 1 28 -2 3 -28 1
-31 -2 -3 -3 -4 -2 -11 1 -11 5 -13 8 -13 15 -1 12 11 46 21 58 8 10 21 10 50
-1z m-462 -59 c5 -2 11 -6 14 -9 3 -4 7 -6 7 -6 3 0 12 -16 12 -21 0 -6 -6
-13 -13 -13 -11 0 -34 21 -39 35 -2 6 -2 8 1 12 4 6 8 6 18 2z m609 -7 c5 -5
6 -7 6 -17 0 -10 -1 -12 -6 -17 -5 -5 -7 -6 -17 -6 -10 0 -12 1 -17 6 -5 5 -6
7 -6 17 0 10 1 12 6 17 5 5 7 6 17 6 10 0 12 -1 17 -6z m-387 -15 c3 -5 3 -5
0 -10 -2 -3 -5 -5 -7 -5 -2 0 -5 2 -7 5 -3 5 -3 5 0 10 2 3 5 5 7 5 2 0 5 -2
7 -5z m-117 -78 c3 -3 4 -7 4 -14 0 -13 -6 -19 -19 -19 -13 0 -19 6 -19 19 0
7 1 11 4 14 7 8 23 8 30 0z m925 -33 c4 -6 4 -24 -1 -30 -7 -9 -27 -9 -34 0
-5 6 -5 24 0 30 7 9 27 9 35 0z m-1027 -1 c4 -3 6 -7 6 -9 0 -6 12 -37 16 -40
4 -3 10 -19 10 -25 0 -10 -7 -17 -17 -17 -11 0 -14 3 -23 20 -7 14 -18 28 -19
24 0 -1 -2 0 -4 2 -3 2 -8 3 -20 3 -14 -1 -17 0 -20 4 -10 8 -3 25 12 30 3 2
8 3 10 4 29 11 41 12 49 4z m1157 -31 c2 -3 3 -8 3 -15 0 -10 -1 -12 -6 -17
-4 -3 -11 -10 -17 -15 l-11 -11 0 -19 c0 -18 -3 -29 -8 -33 -2 -2 -12 -23 -12
-26 0 -6 -10 -24 -14 -24 -6 0 -8 8 -9 33 0 13 -1 29 -2 34 -2 16 0 20 13 29
12 9 25 22 22 22 -1 0 -2 1 -1 3 1 1 2 4 2 7 1 24 1 28 5 32 7 9 27 9 35 0z
m-631 -14 c5 -5 5 -15 0 -20 -5 -5 -17 -5 -19 -1 0 2 -2 3 -4 3 -3 0 -3 1 -2
8 2 13 16 19 25 10z m-76 -16 c4 0 15 -10 16 -14 3 -8 -16 -56 -24 -63 -6 -6
-11 -6 -19 1 -7 6 -14 23 -16 38 -2 11 3 26 10 30 7 5 21 9 26 9 2 0 5 -1 7
-1z m574 -46 c5 -5 5 -15 0 -20 -9 -9 -24 -2 -24 10 0 8 6 14 14 14 3 0 8 -2
10 -4z m193 -105 c7 -7 7 -23 0 -30 -3 -3 -6 -5 -7 -5 -5 0 -11 -1 -17 -3 -9
-2 -19 3 -19 9 0 6 11 29 16 32 7 4 22 2 27 -3z m-626 -9 c4 -6 4 -24 -1 -30
-7 -9 -27 -9 -34 0 -5 6 -5 24 0 30 7 9 27 9 35 0z m150 -27 c12 -7 14 -33 3
-43 -8 -9 -32 -9 -40 0 -9 8 -9 32 0 41 7 7 27 8 37 2z m425 -12 c0 -2 1 -4 1
-5 0 -5 -23 -27 -26 -24 -3 3 -7 15 -7 18 0 6 1 8 11 15 7 5 8 5 14 1 4 -1 7
-4 7 -5z m-711 -96 c12 -7 14 -33 3 -43 -9 -10 -34 -9 -43 1 -8 7 -6 31 3 40
7 7 27 8 37 2z m660 -420 c7 -6 3 -34 -6 -40 -11 -7 -18 1 -16 19 3 20 11 29
22 21z"/>
<path d="M244 3387 c-2 -1 -1 -8 2 -10 2 -2 3 -5 3 -6 -1 -1 -1 -1 0 -1 2 3 7
-4 6 -6 -1 -2 0 -2 2 0 3 2 5 3 8 2 6 -2 7 -1 7 7 0 10 -3 12 -16 13 -7 1 -12
1 -12 1z"/>
<path d="M12 2740 c-11 -4 -12 -7 -12 -32 0 -25 2 -31 13 -35 9 -4 29 -4 34 0
4 3 13 29 13 38 0 8 -7 19 -15 24 -7 4 -27 7 -33 5z"/>
</g>
</svg>
