<?xml version="1.0" standalone="no"?>
<!DOCTYPE svg PUBLIC "-//W3C//DTD SVG 20010904//EN"
 "http://www.w3.org/TR/2001/REC-SVG-20010904/DTD/svg10.dtd">
<svg version="1.0" xmlns="http://www.w3.org/2000/svg"
 width="1100.000000pt" height="2850.000000pt" viewBox="0 0 1100.000000 2850.000000"
 preserveAspectRatio="xMidYMid meet">
<metadata>
Created by potrace 1.15, written by Peter Selinger 2001-2017
</metadata>
<g transform="translate(0.000000,2850.000000) scale(0.500000,-0.500000)"
fill="#000000" stroke="none">
<path d="M1174 3831 c-9 -5 -12 -8 -16 -17 -6 -10 -6 -12 -6 -40 0 -31 2 -38
9 -47 5 -6 16 -13 19 -13 3 0 10 -8 10 -12 0 -4 -7 -12 -10 -12 -1 0 -5 -2 -9
-4 -15 -11 -20 -21 -18 -42 1 -18 1 -20 3 -20 2 0 6 -10 6 -15 0 -1 1 -4 2 -6
1 -3 1 -5 -1 -7 -4 -4 -12 -1 -14 5 0 2 -3 6 -5 8 -2 3 -4 6 -4 6 0 3 -13 13
-20 15 -7 2 -230 1 -257 -1 -20 -2 -30 3 -43 20 l-10 14 7 4 c4 3 8 5 9 5 1 0
2 1 3 3 0 1 8 7 16 12 9 5 16 10 17 11 1 0 6 3 11 6 28 14 52 53 45 76 -5 17
-19 27 -40 29 -6 1 -15 1 -19 2 -20 2 -48 4 -65 4 -17 0 -21 -1 -25 -4 -8 -6
-15 -20 -16 -35 -1 -7 -3 -17 -4 -22 -3 -11 -1 -27 5 -34 2 -3 8 -8 13 -12 17
-12 30 -32 23 -36 -2 -1 -5 -2 -7 -2 -3 0 -5 -1 -5 -2 0 -1 -4 -1 -10 -2 -8 0
-11 1 -19 7 -6 4 -10 8 -11 9 -3 4 -16 11 -28 15 -11 4 -17 5 -38 5 -23 0 -25
0 -31 5 -4 3 -7 7 -7 8 0 2 -1 3 -2 3 -1 0 -2 1 -2 3 0 3 -11 14 -20 21 -12 8
-16 13 -18 21 -2 10 -3 26 0 28 1 0 1 4 1 7 0 7 -1 7 -7 6 -9 -1 -13 -3 -22
-11 -4 -4 -8 -7 -10 -8 -4 -1 -13 -21 -20 -41 -4 -11 -4 -16 -4 -56 l1 -45 -6
-6 -6 -6 -102 1 c-100 0 -123 -1 -123 -6 0 -1 -1 -2 -3 -2 -1 0 -6 -3 -10 -7
-5 -4 -11 -8 -16 -10 -7 -3 -7 -3 -15 0 -4 2 -10 6 -13 9 -11 9 -16 11 -25 11
-15 -1 -22 -10 -22 -30 1 -33 1 -37 -3 -41 -9 -9 -29 -9 -41 0 -8 7 -9 12 -5
25 5 14 5 16 3 28 -4 19 -13 24 -48 23 -24 -1 -36 -5 -41 -13 -1 -2 -3 -5 -4
-5 -1 -1 -1 -2 0 -2 1 0 0 -1 -1 -3 -3 -4 -4 -23 -1 -25 1 0 3 -2 4 -4 2 -8
26 -20 39 -20 2 0 6 -1 7 -3 2 -1 4 -3 5 -3 2 -1 2 -2 0 -5 -1 -2 -2 -3 0 -3
1 0 2 -3 3 -6 3 -13 9 -23 17 -28 7 -4 10 -4 93 -4 l85 0 22 7 c26 8 30 8 58
-1 l21 -6 58 0 58 1 6 -6 6 -6 -1 -20 c-1 -18 -2 -21 -6 -27 -4 -3 -6 -5 -6
-4 0 2 -9 6 -18 7 -15 3 -28 8 -30 11 -1 2 -4 4 -6 4 -2 0 -13 2 -24 5 -34 8
-57 5 -66 -9 -6 -9 -8 -26 -3 -42 3 -10 3 -13 1 -20 -2 -9 -9 -18 -13 -18 -6
0 -28 -13 -33 -19 -8 -12 -9 -19 -4 -47 2 -14 5 -28 5 -31 2 -10 14 -33 20
-38 8 -5 12 -6 36 -6 29 0 32 -2 30 -21 0 -7 -2 -16 -4 -20 -7 -14 2 -39 23
-60 16 -17 22 -18 73 -18 l41 0 15 -6 c9 -4 16 -7 17 -8 1 -1 7 -4 13 -8 14
-7 17 -10 17 -22 0 -10 -6 -20 -14 -26 -7 -5 -19 -23 -21 -31 -1 -3 -1 -6 -1
-6 1 0 -2 -3 -6 -7 -7 -6 -8 -6 -27 -6 -18 0 -22 -1 -31 -5 -9 -5 -11 -7 -17
-20 -4 -8 -7 -17 -7 -19 0 -19 -13 -38 -25 -38 -12 0 -25 19 -25 38 0 2 -3 11
-7 19 -6 13 -8 15 -17 20 l-11 5 -60 0 c-83 0 -82 0 -97 -47 -4 -11 -9 -24
-11 -29 -5 -11 -5 -13 1 -26 8 -18 19 -23 46 -21 17 1 24 4 36 14 10 9 18 12
26 9 4 -1 10 -5 14 -9 4 -3 10 -8 14 -10 7 -4 11 -4 222 -4 l215 0 6 -6 c7 -7
6 -5 3 -35 -4 -36 -10 -47 -23 -47 -8 -1 -12 3 -20 18 -7 13 -17 22 -28 25 -5
2 -27 2 -71 2 l-63 -1 -23 -10 c-13 -6 -24 -10 -24 -9 0 0 -1 0 -2 -2 -1 -1
-3 -1 -9 3 -4 3 -14 8 -22 12 l-14 6 -62 0 -62 0 -18 -9 c-10 -5 -18 -9 -19
-10 -3 -3 -17 -13 -19 -12 -1 0 -1 -1 1 -3 1 -2 1 -3 0 -5 -2 -1 -2 -2 -1 -2
1 0 2 -3 3 -6 0 -4 3 -12 6 -18 3 -7 6 -13 6 -15 0 -7 13 -29 19 -34 11 -8 17
-9 79 -9 79 0 83 1 82 24 l-1 13 8 0 8 0 -1 -13 c-1 -24 -1 -24 112 -24 70 0
91 1 97 3 10 4 21 12 27 20 3 4 10 9 16 12 10 5 12 5 20 3 16 -4 18 -12 11
-33 -9 -25 -11 -33 -11 -38 1 -4 -1 -7 -5 -12 l-6 -6 -169 1 c-93 0 -171 0
-173 -1 -4 -1 -4 -2 -3 -19 1 -17 1 -18 -3 -19 -3 0 -2 -1 2 -1 3 0 10 -1 16
-3 15 -4 19 -10 19 -25 0 -13 -2 -17 -18 -32 -6 -6 -14 -15 -18 -20 -14 -19
-36 -23 -51 -9 -3 2 -5 5 -5 6 0 1 -3 8 -6 14 -6 14 -17 27 -27 32 -4 1 -9 5
-11 8 -8 10 -3 29 7 29 2 0 3 1 2 2 -2 0 -3 7 -3 16 -1 14 -1 15 -4 13 -2 -1
-2 -1 -1 0 1 3 -2 5 -9 7 -3 1 -47 1 -98 1 l-93 0 -19 -9 c-12 -6 -24 -10 -34
-12 -26 -4 -35 -13 -31 -33 1 -9 14 -13 35 -14 11 0 16 -1 18 -3 4 -4 5 -12 2
-12 -2 0 -2 -1 0 -2 1 -2 2 -6 3 -10 1 -5 2 -8 3 -8 1 0 2 -1 1 -2 -2 -3 8
-13 16 -16 6 -1 19 -2 42 -2 l34 1 6 -6 6 -6 -1 -67 c0 -44 1 -70 2 -75 3 -11
8 -23 10 -23 1 0 2 -1 2 -3 0 -2 1 -3 2 -3 3 0 14 -26 15 -37 2 -14 -1 -20
-13 -31 -14 -12 -18 -24 -18 -53 0 -25 0 -26 -6 -32 -3 -3 -6 -6 -8 -5 -4 1
-20 -6 -25 -12 -5 -7 -13 -26 -13 -33 0 -9 -9 -15 -33 -23 -19 -6 -23 -8 -31
-16 -9 -8 -10 -10 -11 -20 -1 -10 -1 -12 10 -33 6 -12 25 -51 42 -85 18 -37
33 -65 36 -67 2 -2 9 -3 17 -3 13 0 15 1 21 7 10 9 11 9 27 10 16 1 23 3 39 8
6 2 24 7 40 11 17 5 31 8 33 9 7 2 19 5 28 6 4 1 18 7 31 14 l25 13 24 0 c17
0 27 1 38 4 8 2 19 5 24 6 16 4 36 11 36 12 0 1 1 2 3 2 4 0 13 12 22 31 5 11
11 20 14 21 5 4 33 3 55 0 17 -3 26 -7 26 -14 0 -2 1 -5 3 -6 2 -1 5 -6 8 -11
7 -12 29 -23 45 -23 20 0 38 12 38 25 0 1 3 6 7 10 l7 8 5 -5 c3 -3 5 -9 8
-21 2 -10 5 -23 7 -30 6 -19 1 -34 -14 -40 -7 -3 -18 -2 -37 3 -37 9 -64 4
-74 -16 -6 -11 -7 -41 -2 -53 4 -9 14 -21 18 -21 2 0 3 -1 3 -2 0 -2 10 -3 59
-3 91 0 121 7 136 34 3 4 7 10 11 12 6 3 6 3 20 -2 8 -3 16 -6 17 -7 5 -4 15
-4 26 -1 7 2 14 4 16 4 2 0 6 1 9 2 8 3 15 2 33 -7 23 -12 26 -12 57 -3 46 12
118 37 159 53 43 17 42 17 84 37 40 19 41 20 54 19 12 0 17 -2 30 -11 7 -5 9
-5 21 -4 14 1 19 4 29 20 10 15 20 19 36 15 11 -3 16 -9 18 -23 3 -29 5 -41
10 -50 6 -12 17 -24 27 -30 8 -5 59 -27 62 -27 1 0 6 -2 11 -4 16 -7 53 -20
60 -20 3 0 10 1 15 3 8 3 10 5 12 11 4 14 2 24 -8 33 -7 7 -17 9 -39 10 -18 2
-20 2 -25 7 -5 5 -6 7 -6 16 0 10 5 22 8 22 1 0 3 3 6 7 5 9 4 33 -3 40 -9 9
-8 34 1 41 6 4 19 6 28 4 10 -2 11 -3 19 -15 10 -16 28 -38 32 -40 2 0 10 -1
18 -1 17 0 18 0 33 28 2 5 7 12 10 15 5 5 11 17 13 26 1 5 26 15 37 15 2 0 6
2 9 6 13 13 16 30 9 46 -2 5 -4 12 -5 15 0 3 -1 8 -2 11 -2 3 -4 8 -6 13 -6
14 -17 22 -35 24 -3 0 -10 1 -17 2 -24 2 -92 11 -103 13 -11 2 -21 7 -22 13 0
1 2 5 4 7 8 10 17 22 21 27 2 3 5 6 6 8 1 1 5 5 7 9 3 4 10 15 16 24 6 9 15
22 18 28 8 12 21 20 33 23 12 2 36 15 45 23 13 13 16 19 16 31 0 20 -2 23 -39
53 -31 26 -30 26 -42 35 -5 4 -14 12 -20 16 -5 5 -11 9 -12 9 -2 0 -1 2 3 6
l7 5 50 1 c39 0 50 1 54 3 2 2 5 2 6 2 0 -1 1 6 0 16 0 14 1 17 3 17 2 0 -1 2
-6 3 -12 4 -16 11 -17 25 0 14 4 21 15 27 15 8 19 13 18 25 0 11 -1 18 -2 19
-1 0 -7 4 -14 9 -7 5 -13 9 -14 10 -1 1 -6 4 -12 8 -10 7 -16 9 -44 17 -12 3
-17 8 -28 25 -4 6 -9 13 -12 15 -5 5 -21 28 -23 35 -1 4 -18 20 -31 29 -5 3
-13 9 -17 12 -13 11 -28 10 -50 -4 -11 -6 -21 -7 -27 0 -4 4 -4 6 -3 15 1 6 2
13 2 16 0 4 2 7 7 10 7 5 8 5 60 6 62 1 60 1 83 24 7 8 15 14 17 14 2 0 6 1 8
1 1 0 8 -1 14 -3 25 -6 44 4 45 24 2 20 -7 30 -50 61 -12 9 -10 9 -36 5 -3 -1
-12 -16 -10 -16 1 0 1 -1 -1 -2 -1 -2 -2 -7 -3 -12 -3 -18 -10 -25 -28 -25
-19 0 -28 9 -28 28 0 15 5 21 22 33 9 6 11 12 11 24 0 12 -4 19 -14 26 -4 3
-7 5 -8 6 -1 1 -8 6 -16 11 -8 6 -16 11 -18 13 -1 1 -3 2 -4 2 -1 0 -4 2 -7 5
-3 3 -6 4 -7 4 -1 0 -6 -1 -11 -1 -12 -1 -17 -4 -24 -15 -10 -14 -12 -15 -28
-14 -16 1 -42 9 -48 15 -6 5 -10 22 -8 30 5 23 21 26 61 13 l25 -9 53 1 c29 1
57 1 62 2 12 1 25 10 31 20 12 19 17 23 28 23 11 0 16 -4 28 -23 11 -18 33
-25 62 -18 28 6 48 20 60 41 14 27 8 40 -38 73 -10 8 -23 17 -29 21 -5 4 -18
14 -29 21 -11 8 -20 14 -21 15 -1 1 -9 7 -33 23 -7 4 -12 8 -13 9 -3 3 -30 20
-32 20 -4 0 -8 9 -11 25 -4 21 -10 29 -25 37 -11 5 -41 14 -65 19 -2 0 -12 3
-21 5 -19 5 -22 5 -37 7 -5 1 -11 2 -14 4 -3 2 -43 13 -64 16 -3 1 -8 4 -11 8
l-6 6 1 20 c1 23 5 33 12 38 7 4 11 3 25 -10 12 -10 13 -11 22 -11 14 0 16 2
26 17 l8 12 -2 12 c-2 13 -9 29 -16 38 -3 3 -7 8 -9 11 -6 10 -26 21 -42 24
-11 2 -15 4 -20 9 l-6 6 1 21 c1 18 2 22 6 29 3 4 5 6 6 6 1 -1 17 8 26 16 18
13 33 46 30 61 -7 25 -20 32 -64 35 -9 1 -19 1 -22 2 -3 0 -13 1 -22 2 -9 1
-21 2 -26 2 -9 1 -92 8 -119 10 -28 2 -57 5 -66 6 -3 0 -15 1 -25 2 -18 1 -19
1 -30 -4z m-689 -245 c10 -9 3 -26 -10 -26 -8 0 -15 7 -15 15 0 13 16 20 25
11z m892 -6 c11 -10 3 -28 -11 -28 -9 0 -16 6 -16 16 0 14 17 22 27 12z m-262
-41 c23 -5 33 -16 36 -39 1 -10 -1 -17 -8 -23 -7 -6 -26 -5 -50 2 -24 8 -41
10 -52 7 -6 -2 -32 -17 -38 -22 -2 -1 -3 -1 -3 0 0 3 -10 5 -42 7 -12 1 -23 2
-26 2 -18 2 -66 5 -67 4 -2 -1 -12 11 -13 16 -1 3 1 6 5 10 l6 6 80 0 80 0 11
6 c6 3 13 9 15 12 13 16 32 20 66 12z m134 -87 c6 -6 7 -16 1 -21 -5 -5 -18
-10 -21 -9 -7 2 -12 -3 -22 -25 -12 -25 -15 -28 -33 -28 -18 1 -27 10 -27 28
0 23 8 28 51 30 10 0 15 2 13 5 -1 1 0 2 2 3 2 0 3 2 3 3 0 1 4 6 8 10 10 9
18 10 25 4z m-776 -30 c11 -5 15 -26 8 -40 -5 -11 -7 -25 -8 -49 0 -21 0 -22
-6 -26 -8 -7 -28 -7 -36 0 -10 8 -16 65 -9 82 6 15 13 27 16 30 7 7 26 8 35 3z
m353 -17 c3 -3 4 -6 4 -13 -1 -8 -2 -10 -14 -18 -11 -9 -13 -10 -17 -8 -6 3
-8 12 -5 25 4 14 9 19 19 19 6 0 9 -1 13 -5z m736 -2 c3 -3 4 -7 4 -14 0 -13
-6 -19 -19 -19 -13 0 -19 6 -19 19 0 14 5 19 19 19 8 0 11 -1 15 -5z m-634 -5
c3 -1 9 -5 13 -10 12 -13 19 -16 33 -16 6 0 12 1 12 2 0 0 3 3 6 5 4 2 7 5 8
8 1 3 2 3 2 0 0 -2 1 -3 2 -2 5 3 18 -28 18 -44 0 -5 -2 -17 -5 -27 -4 -15 -5
-21 -5 -36 1 -19 1 -19 -5 -25 -6 -5 -8 -6 -20 -6 -13 0 -14 0 -19 6 -6 6 -6
7 -6 33 0 15 -1 30 -2 34 -5 15 -19 22 -43 23 -20 1 -27 5 -31 21 -2 9 0 22 6
29 7 8 24 11 36 5z m-286 -91 c1 -27 1 -49 0 -49 -1 0 -3 -2 -6 -5 l-5 -4 -5
5 c-3 3 -5 6 -4 6 6 0 6 23 0 33 -2 5 -6 13 -9 18 l-5 10 3 15 c2 8 3 16 2 17
0 1 4 5 9 8 l9 6 5 -5 6 -6 0 -49z m147 41 c0 -5 0 -7 -6 -9 -6 -3 -7 -3 -11
0 -4 3 -4 4 -1 10 6 11 7 11 12 8 4 -2 6 -4 6 -9z m558 -14 c-1 -8 -2 -18 -2
-21 -1 -3 -2 -14 -3 -23 -1 -9 -2 -14 -2 -10 0 7 -3 8 -7 3 -4 -6 -4 57 0 65
6 12 7 13 11 7 4 -5 4 -8 3 -21z m-250 13 c7 -6 16 -21 13 -21 -1 0 -1 -1 -1
-3 1 -2 -1 -3 -7 -4 -10 -1 -26 6 -29 12 -6 17 11 27 24 16z m599 -8 c3 -3 3
-10 -1 -32 -1 -8 -8 -19 -14 -24 -7 -5 -26 -5 -34 0 -10 6 -14 22 -9 35 8 21
44 34 58 21z m-557 -23 c10 -4 15 -10 15 -18 0 -9 -6 -16 -16 -16 -8 0 -13 4
-21 16 -7 12 -6 19 3 20 7 1 8 1 19 -2z m425 -27 c4 -2 10 -6 12 -9 l4 -6 -4
-14 c-5 -17 -6 -17 -35 -32 -13 -7 -29 -15 -35 -18 -6 -3 -17 -8 -26 -11 -25
-7 -38 -2 -38 16 0 22 17 39 63 62 37 18 42 19 59 12z m-294 -1 c5 -5 5 -11 0
-16 -10 -10 -27 5 -16 16 4 4 12 4 16 0z m-356 -20 c5 -5 5 -11 0 -16 -10 -10
-27 5 -16 16 4 4 12 4 16 0z m143 -82 c6 -5 7 -19 2 -21 -2 -1 -2 -3 -1 -7 1
-3 2 -8 3 -12 2 -17 12 -22 42 -22 18 0 19 0 24 -6 2 -3 4 -6 4 -6 0 -1 -1 -7
-2 -15 -1 -8 -2 -16 -2 -19 0 -3 -2 -12 -3 -20 -1 -8 -3 -19 -3 -25 -2 -16 -3
-17 -8 -23 l-6 -6 -73 0 c-92 0 -92 0 -105 -27 -9 -18 -11 -21 -18 -21 -7 0
-10 3 -17 19 -4 8 -7 14 -8 15 -1 1 -3 6 -5 12 -2 6 -5 12 -6 12 -1 1 -1 2 0
2 5 0 12 33 10 46 -3 18 -15 47 -20 49 -2 1 0 3 3 7 l7 5 70 1 c64 1 71 1 76
5 6 4 11 14 11 22 0 3 1 7 2 9 1 3 1 4 -1 5 -5 2 -4 15 1 20 6 6 17 7 23 1z
m-310 -22 c10 -9 3 -26 -10 -26 -8 0 -15 7 -15 15 0 13 16 20 25 11z m508 -85
c3 -3 3 -3 0 -6 -3 -3 -3 -3 -6 0 -3 2 -3 3 -1 6 4 4 4 4 7 0z m147 -21 c4 -3
7 -6 8 -6 0 -1 2 -2 3 -2 2 0 3 -1 3 -2 0 -1 6 -5 10 -5 1 0 5 -1 10 -3 7 -2
10 -2 20 0 14 3 17 3 29 -1 8 -2 11 -4 14 -10 4 -9 4 -12 -1 -16 -5 -5 -9 -6
-19 -2 -9 3 -24 3 -30 0 -3 -2 -4 -5 -4 -16 1 -8 1 -17 2 -22 2 -10 -4 -17
-14 -17 -6 0 -8 1 -13 8 -3 5 -6 10 -6 11 0 4 -11 17 -18 22 -5 3 -12 6 -17 6
-11 1 -10 0 -17 7 -3 3 -5 6 -4 6 1 1 3 9 4 19 1 16 2 18 7 22 7 7 23 7 33 1z
m-726 -12 c5 -2 16 -18 22 -32 8 -16 2 -30 -12 -30 -12 0 -20 13 -23 40 -1 6
-2 12 -2 14 -1 3 7 13 9 11 0 0 3 -1 6 -3z m142 -43 c10 -11 3 -34 -15 -44
-21 -13 -39 -7 -37 12 4 28 36 49 52 32z m526 -12 c8 -4 9 -10 5 -20 -2 -5 -3
-14 -3 -31 0 -24 1 -30 12 -45 3 -5 23 -20 32 -24 3 -2 4 -3 3 -3 -3 0 -2 -14
2 -22 1 -3 8 -13 14 -22 16 -24 20 -32 26 -55 6 -25 15 -40 28 -48 l10 -6 47
-1 47 -1 7 -5 c3 -4 5 -6 4 -6 -1 0 -6 -5 -12 -10 -13 -15 -18 -20 -20 -20 -5
0 -20 -18 -29 -36 -9 -17 -11 -19 -16 -19 -6 0 -7 1 -16 20 l-10 20 -13 -2
c-12 -1 -13 -1 -20 -9 -4 -5 -10 -10 -13 -12 -5 -3 -6 -3 -12 0 -4 2 -10 6
-12 7 -14 13 -22 17 -42 20 -22 4 -38 4 -48 -1 -20 -10 -25 -22 -19 -47 2 -8
4 -21 4 -29 0 -21 5 -32 16 -38 9 -5 10 -5 85 -6 73 -1 75 -1 79 -5 2 -2 4 -5
6 -6 2 0 2 -1 0 -1 -2 0 -5 -2 -7 -5 -2 -3 -8 -7 -14 -9 l-10 -5 -207 -1 -207
-1 -6 6 c-8 8 -8 14 0 22 l6 6 71 -1 c78 0 83 0 93 11 6 6 15 26 15 31 -1 6 1
11 11 21 15 17 17 21 17 31 0 9 -1 11 -7 17 -11 10 -21 13 -40 13 -16 -1 -16
-1 -22 5 -5 6 -6 8 -6 20 0 12 1 14 6 20 l6 6 86 0 86 0 9 6 c13 7 21 19 21
31 0 19 -3 26 -18 41 -5 6 -15 16 -21 23 -18 22 -16 21 -95 21 l-68 0 -6 6
c-9 9 -9 23 0 32 l6 6 52 -1 c44 0 53 0 60 3 14 5 25 19 25 31 0 2 -5 14 -10
26 -13 25 -14 35 -5 44 4 4 8 6 12 6 3 0 8 1 11 2 7 2 8 2 14 -1z m235 -13
c10 -9 3 -26 -10 -26 -8 0 -15 7 -15 15 0 13 16 20 25 11z m-379 -33 l-5 -5
-4 4 -5 5 4 4 5 5 4 -4 5 -5 -4 -4z m-617 7 c7 -6 7 -20 1 -26 -7 -6 -14 -6
-24 -2 -10 6 -13 19 -5 27 6 6 22 7 28 1z m394 -105 c7 -7 7 -23 0 -30 -4 -4
-7 -5 -18 -5 -21 0 -33 -2 -46 -8 -21 -10 -35 -6 -35 11 0 12 6 17 19 17 5 0
14 1 18 2 4 1 10 2 12 3 2 0 8 4 15 8 14 9 27 10 35 2z m-431 -66 c0 -1 1 -4
3 -5 4 -3 4 -14 0 -18 -5 -5 -18 -5 -23 -1 -6 6 -5 16 2 22 7 5 18 7 18 2z
m1125 -34 c5 -8 1 -16 -8 -16 -9 0 -13 8 -8 16 2 3 5 5 8 5 3 0 6 -2 8 -5z
m-607 -21 c10 -10 10 -31 -1 -40 -5 -5 -20 -5 -28 0 -8 5 -11 11 -11 24 0 9 1
11 6 16 5 5 7 6 17 6 10 0 12 -1 17 -6z m-118 -59 c12 -5 18 -21 14 -35 -1 -5
-3 -10 -5 -12 -2 -3 -3 -36 0 -50 2 -12 -1 -16 -16 -27 -6 -4 -11 -9 -11 -10
0 -2 -1 -3 -2 -3 -1 -1 -5 -9 -10 -18 -5 -10 -10 -18 -12 -19 -7 -2 -23 -20
-31 -33 -9 -15 -16 -21 -30 -21 -15 -1 -26 7 -29 21 -3 14 1 25 12 33 17 13
27 22 36 34 6 7 12 13 15 14 7 2 27 12 27 13 0 1 1 2 3 2 1 0 5 4 10 9 7 9 7
10 6 20 -1 12 -5 23 -12 32 -13 18 -9 43 8 50 7 3 20 3 27 0z m715 -60 c4 -4
5 -7 5 -15 0 -14 -6 -20 -20 -20 -14 0 -20 6 -20 20 0 14 6 20 20 20 8 0 11
-1 15 -5z m-969 -67 c0 -1 3 -4 7 -6 4 -2 7 -6 8 -9 0 -2 5 -11 11 -19 5 -8
10 -18 11 -22 1 -9 -2 -22 -7 -27 -3 -3 -30 -11 -47 -14 -11 -2 -23 -5 -19 -5
1 0 2 -5 2 -16 0 -21 2 -23 19 -22 12 0 13 0 21 -6 4 -4 7 -7 6 -8 -1 0 -4 -3
-7 -7 l-6 -6 -30 0 c-17 0 -42 0 -56 0 -32 -1 -31 -1 -38 6 l-6 6 6 16 c3 8 6
14 7 14 1 -1 2 0 3 1 4 6 35 20 42 18 1 0 6 1 11 3 5 1 8 3 6 3 -5 0 0 24 8
35 2 3 6 6 10 8 4 2 6 3 5 3 -2 0 -3 6 -3 18 -1 12 -2 17 -3 17 -2 -1 -3 0 -3
1 0 1 -13 2 -39 2 -40 -1 -44 0 -44 8 0 9 3 9 66 9 32 0 59 -1 59 -1z m293
-55 c5 -8 1 -16 -8 -16 -9 0 -13 8 -8 16 2 3 5 5 8 5 3 0 6 -2 8 -5z m-564
-36 c3 -3 3 -3 0 -6 -3 -3 -3 -3 -6 0 -3 2 -3 3 -1 6 4 4 4 4 7 0z m908 -3 c5
-5 7 -22 3 -22 -1 0 -1 -2 0 -4 1 -3 2 -8 3 -12 3 -19 14 -24 49 -24 25 0 26
0 32 -5 l6 -5 -7 -15 c-19 -38 -26 -45 -40 -42 -11 3 -50 24 -72 39 -12 8 -24
15 -26 16 -3 1 -3 2 -1 2 2 0 4 2 5 4 1 2 5 8 9 13 5 6 8 12 9 17 1 4 2 9 3
12 1 2 1 4 0 4 -4 0 -2 17 2 21 6 7 19 7 25 1z m-202 -1 c3 -3 3 -3 0 -6 -3
-3 -3 -3 -6 0 -3 2 -3 3 -1 6 4 4 4 4 7 0z m-344 -50 c3 -3 3 -3 0 -6 -3 -3
-3 -3 -6 0 -3 2 -3 3 -1 6 4 4 4 4 7 0z m319 -15 c7 -4 8 -5 19 -28 21 -47 25
-49 67 -46 8 1 15 -7 10 -13 -1 -2 -3 -6 -4 -8 -1 -3 -3 -5 -4 -5 -1 0 -4 -3
-6 -7 -5 -8 -7 -30 -4 -32 1 -1 5 -6 9 -13 7 -9 15 -20 23 -31 4 -7 15 -20 16
-21 1 -1 4 -5 7 -9 3 -4 6 -8 7 -9 1 -1 20 -41 20 -43 0 0 2 -5 5 -9 6 -9 8
-27 3 -36 -7 -13 -35 -15 -47 -3 -7 8 -16 11 -28 11 -14 0 -10 2 -49 -27 -13
-9 -54 -37 -63 -42 -3 -2 -7 -4 -9 -5 -2 -1 -10 -6 -18 -11 l-16 -9 -5 6 -5 6
0 62 0 61 5 10 c3 5 8 12 10 14 3 2 5 5 5 7 0 1 1 2 2 2 1 0 2 1 2 3 0 4 14
17 18 17 2 0 10 -2 18 -5 28 -10 39 -9 54 5 10 10 15 20 14 35 0 29 -18 50
-44 50 -12 0 -50 -3 -64 -5 -7 -1 -10 0 -14 3 -2 3 -6 5 -7 5 -2 0 -3 1 -3 3
0 6 -12 13 -30 18 -1 0 -3 1 -3 1 -1 0 -4 0 -7 0 -7 0 -14 6 -14 14 0 8 7 14
14 14 3 0 6 0 7 0 1 1 2 1 14 4 11 3 20 13 22 22 1 4 1 14 1 22 -1 14 -1 15 5
21 l6 6 28 -1 c19 -1 30 -2 33 -4z m-249 -57 c12 -12 3 -31 -13 -31 -11 0 -18
7 -18 18 0 11 7 18 18 18 6 0 9 -1 13 -5z m450 -17 c7 -3 12 -13 12 -25 0 -19
-9 -28 -28 -28 -19 0 -28 9 -28 28 0 24 19 34 44 25z m-974 -55 c4 -4 5 -7 5
-15 0 -14 -6 -20 -20 -20 -14 0 -20 6 -20 20 0 14 6 20 20 20 8 0 11 -1 15 -5z
m368 -6 l6 -6 0 -24 c0 -21 1 -26 7 -44 6 -18 6 -21 4 -29 -3 -14 -14 -22 -29
-21 -21 1 -31 16 -27 39 6 33 -2 50 -27 59 -8 3 -14 3 -33 2 -13 -1 -23 -2
-24 -2 0 0 -3 2 -6 5 -8 7 -8 13 -1 21 l6 6 59 0 59 0 6 -6z m834 3 c12 -12 0
-32 -19 -31 -8 0 -11 23 -4 30 6 6 17 7 23 1z m-735 -8 c5 -6 5 -12 0 -18 -7
-8 -22 -2 -22 9 0 11 15 17 22 9z m149 -17 c6 -4 6 -6 6 -20 0 -14 0 -16 -6
-20 -4 -4 -7 -5 -18 -5 -11 0 -14 1 -18 5 -6 4 -6 6 -6 20 0 14 0 16 6 20 4 4
7 5 18 5 11 0 14 -1 18 -5z m548 -35 c10 -18 -8 -37 -22 -24 -9 9 -5 22 9 28
8 3 9 2 13 -4z m-1117 -18 c15 -17 -13 -47 -28 -32 -4 4 -4 6 -3 15 2 12 2 12
10 17 8 5 17 5 21 0z m1446 -34 c2 -2 4 -9 5 -16 1 -11 1 -13 -3 -18 -4 -6 -5
-6 -12 -5 -24 3 -28 7 -28 25 0 6 1 11 4 14 6 8 27 9 34 0z m-201 -18 c13 -5
19 -14 19 -25 0 -14 -10 -18 -35 -17 -7 0 -23 -1 -36 -2 -23 -3 -23 -3 -27 2
-9 11 -3 20 26 35 29 14 33 15 53 7z m-1052 -31 c3 -5 3 -5 0 -10 -2 -3 -5 -5
-7 -5 -2 0 -5 2 -7 5 -3 5 -3 5 0 10 2 3 5 5 7 5 2 0 5 -2 7 -5z m-284 -82 c6
-6 7 -22 1 -29 -4 -6 -18 -8 -26 -5 -7 3 -10 8 -10 20 0 13 6 19 20 19 8 0 11
-1 15 -5z"/>
<path d="M660 3824 c-4 -1 -9 -4 -10 -7 -5 -6 -8 -24 -6 -31 1 -3 3 -9 4 -13
1 -5 4 -11 7 -15 4 -7 5 -7 19 -8 l15 0 6 12 c3 7 7 15 8 18 3 7 1 24 -5 32
-6 12 -25 18 -38 12z"/>
<path d="M1713 3779 c-7 -3 -9 -6 -33 -36 -3 -4 -8 -11 -11 -15 -26 -32 -33
-42 -34 -52 -1 -14 -1 -22 2 -22 4 -1 6 -1 9 -3 2 0 8 -2 15 -4 16 -4 21 -9
21 -25 0 -14 -3 -18 -18 -29 -20 -13 -28 -23 -33 -37 -4 -16 4 -38 16 -41 3
-1 5 -2 5 -3 0 -2 3 -3 121 -3 80 -1 120 0 129 1 36 6 70 36 70 61 0 11 -7 25
-17 34 -22 20 -39 35 -50 44 -6 6 -16 14 -21 18 -5 5 -16 14 -24 20 -8 7 -15
13 -16 13 -1 1 -69 56 -82 66 -3 3 -8 7 -11 9 -9 7 -26 9 -38 4z m53 -163 c5
-6 5 -12 0 -18 -7 -8 -22 -2 -22 9 0 11 15 17 22 9z"/>
<path d="M123 3244 c-11 -5 -16 -12 -19 -24 -2 -9 -2 -11 5 -35 11 -40 20 -52
42 -59 12 -3 169 -2 174 2 2 1 3 2 3 1 0 -1 1 0 3 2 1 2 2 8 1 17 l0 14 15 1
16 0 -17 1 c-16 0 -17 1 -21 5 -4 6 -4 15 -2 29 3 20 -4 36 -20 44 l-10 5 -81
1 c-76 0 -82 0 -89 -4z"/>
<path d="M1905 2619 c-2 -5 -5 -14 -6 -18 -1 -4 -3 -11 -5 -15 -4 -7 -5 -18
-2 -24 3 -5 7 -4 24 4 7 3 13 6 14 7 3 1 12 13 14 18 3 7 3 17 0 25 -3 10 -3
10 -19 12 l-15 1 -5 -10z"/>
</g>
</svg>
