<?xml version="1.0" standalone="no"?>
<!DOCTYPE svg PUBLIC "-//W3C//DTD SVG 20010904//EN"
 "http://www.w3.org/TR/2001/REC-SVG-20010904/DTD/svg10.dtd">
<svg version="1.0" xmlns="http://www.w3.org/2000/svg"
 width="1100.000000pt" height="2850.000000pt" viewBox="0 0 1100.000000 2850.000000"
 preserveAspectRatio="xMidYMid meet">
<metadata>
Created by potrace 1.15, written by Peter Selinger 2001-2017
</metadata>
<g transform="translate(0.000000,2850.000000) scale(0.500000,-0.500000)"
fill="#000000" stroke="none">
<path d="M243 3843 c-21 -6 -29 -18 -32 -50 -1 -7 -2 -14 -2 -15 -1 -3 -4 -26
-4 -37 0 -15 5 -24 17 -32 21 -15 22 -17 22 -28 0 -13 -4 -17 -20 -20 -15 -3
-29 -10 -34 -17 -5 -6 -9 -16 -16 -47 -3 -14 -7 -27 -7 -29 0 -2 -1 -5 -2 -8
-2 -7 -2 -7 -12 -45 -5 -19 -10 -35 -10 -37 -2 -7 -12 -41 -19 -64 -4 -14 -8
-29 -9 -35 0 -5 -1 -10 -1 -11 0 -1 0 -2 0 -3 0 -2 -6 -13 -8 -13 -2 0 -5 -8
-12 -30 -6 -18 -21 -57 -33 -87 -16 -39 -24 -56 -37 -83 -16 -33 -17 -42 -10
-57 11 -21 32 -25 48 -11 10 9 12 15 14 36 4 40 6 46 20 51 11 5 29 1 40 -9 6
-6 12 -8 26 -7 l13 0 12 12 c15 15 23 20 40 22 3 1 6 1 6 2 1 0 4 -2 8 -6 l6
-6 -1 -40 c0 -50 1 -55 18 -78 15 -19 17 -24 20 -40 3 -15 -2 -31 -13 -48 -11
-16 -30 -22 -45 -14 -10 5 -34 4 -48 -1 -7 -3 -16 0 -26 9 -21 18 -44 20 -78
4 -16 -7 -27 -24 -28 -40 -1 -13 12 -50 18 -54 3 -2 2 -8 -2 -12 -7 -8 -18
-28 -20 -36 -1 -5 -1 -12 0 -16 1 -5 2 -11 3 -15 1 -4 3 -14 4 -23 2 -9 4 -22
5 -29 1 -7 2 -15 3 -18 0 -3 2 -19 4 -36 2 -17 4 -38 5 -46 2 -20 2 -134 0
-149 -5 -38 -5 -49 -1 -62 9 -27 53 -62 91 -72 16 -4 47 -3 57 2 13 7 20 24
19 44 -1 15 14 23 24 13 6 -6 5 -12 -3 -35 -7 -19 -7 -21 -7 -47 l0 -26 -6 -7
c-3 -4 -6 -6 -6 -6 -1 0 -8 -1 -16 -2 -47 -9 -143 -25 -168 -28 -29 -3 -43
-27 -32 -56 2 -7 7 -20 10 -29 18 -53 24 -66 34 -77 5 -5 8 -6 17 -7 13 0 18
3 33 22 8 10 13 11 31 10 1 0 5 -2 8 -5 5 -3 8 -4 16 -4 6 0 11 -1 11 -2 0 -1
1 -1 3 1 2 3 3 4 7 4 1 0 2 1 2 2 0 5 13 22 18 24 8 3 22 3 30 0 13 -5 16 -26
8 -44 -7 -15 -8 -27 -4 -32 5 -6 19 -8 30 -3 12 6 23 5 36 -1 19 -10 21 -11
31 -11 14 -2 34 8 66 31 9 6 24 15 33 20 16 8 45 24 58 32 3 2 6 5 8 5 2 1 6
4 9 6 7 5 10 7 21 12 12 7 16 14 16 29 0 15 -3 18 -23 26 -18 8 -32 8 -53 -1
-16 -6 -24 -6 -30 0 -10 11 -2 27 13 27 14 0 36 7 47 15 14 10 25 10 38 1 5
-3 14 -9 20 -13 6 -4 13 -9 16 -11 16 -11 36 -16 49 -13 2 0 10 4 16 9 7 4 18
11 26 16 41 26 48 33 54 53 6 19 19 27 29 17 5 -5 5 -12 -2 -35 l-6 -20 0 -90
c0 -85 0 -89 4 -97 6 -12 21 -19 40 -18 11 0 18 -6 18 -16 0 -10 -7 -16 -18
-16 -19 1 -34 -6 -40 -18 -4 -7 -4 -12 -4 -61 0 -43 1 -54 3 -60 4 -9 14 -21
18 -21 2 0 3 -1 3 -2 0 -1 1 -1 3 -1 1 -1 6 -1 11 -2 7 -1 11 -1 18 3 14 6 18
12 30 43 3 7 11 11 19 12 15 0 18 -2 30 -18 15 -20 29 -26 46 -19 38 15 76 44
87 67 8 15 9 20 10 67 1 46 1 47 6 58 3 6 6 10 6 8 0 -2 3 -5 6 -6 3 -2 6 -3
6 -4 0 -5 64 -4 90 2 58 12 114 41 123 63 4 9 4 20 -1 35 -5 15 -5 18 0 24 4
4 5 5 22 3 11 -1 41 -2 67 -2 l48 0 6 -6 c6 -6 6 -7 5 -18 -1 -15 3 -27 10
-36 6 -7 7 -7 18 -7 11 1 13 1 19 8 4 4 9 11 11 16 5 10 11 14 22 14 11 0 15
-2 20 -13 3 -4 6 -10 8 -12 4 -4 4 -4 -6 -10 -5 -4 -13 -8 -18 -10 -14 -5 -24
-17 -25 -28 0 -6 1 -13 2 -16 7 -17 9 -20 12 -25 16 -20 24 -26 47 -35 43 -16
58 -32 65 -74 1 -4 2 -8 2 -9 0 -1 1 -8 2 -17 3 -34 12 -50 32 -56 11 -3 17
-3 56 2 42 6 45 6 57 15 14 10 17 23 11 46 -5 18 -4 29 3 36 6 6 7 6 20 6 21
-1 29 -9 23 -23 -5 -10 4 -33 14 -36 12 -3 26 1 39 11 4 3 4 5 4 18 -1 14 -1
15 -9 21 -4 4 -10 7 -11 7 -2 0 -6 2 -9 4 -6 3 -8 11 -3 20 1 2 2 6 2 8 0 11
12 15 33 14 2 0 6 -3 11 -7 6 -6 8 -7 20 -7 16 -1 25 4 27 12 1 3 2 7 3 10 1
3 2 8 3 11 0 3 1 9 2 12 4 20 5 57 5 233 0 171 0 195 -3 204 -4 11 -11 19 -23
28 -12 8 -16 13 -16 22 0 9 4 14 16 22 13 9 19 17 23 29 3 9 3 26 3 129 -1
113 -1 119 -5 127 -5 9 -16 18 -31 23 -13 5 -20 12 -20 19 0 11 -11 36 -23 51
-6 7 -7 10 -7 20 0 11 1 13 6 18 3 3 7 6 9 6 21 1 29 -3 31 -14 1 -5 2 -6 2
-2 0 4 1 4 14 4 24 -1 23 -8 24 106 0 98 0 111 -8 122 -18 28 -18 42 0 70 7
11 8 22 8 100 0 92 1 87 -26 90 -11 1 -14 1 -17 -2 -5 -5 -14 -5 -20 1 -10 9
-15 49 -8 62 4 10 11 11 42 12 l28 0 21 10 c27 14 51 32 57 43 4 7 4 25 0 32
-2 3 -7 9 -12 13 -6 5 -11 9 -12 10 -2 1 -6 4 -9 7 -4 3 -12 9 -18 14 -6 5
-15 12 -19 15 -4 3 -11 9 -16 13 -4 3 -9 7 -10 8 -6 4 -20 15 -22 17 -2 1 -5
4 -8 6 -5 4 -54 43 -63 50 -19 14 -30 23 -31 23 -1 0 -3 1 -4 3 -4 4 -18 4
-26 1 -3 -2 -7 -3 -8 -3 -1 0 -6 -5 -13 -12 -6 -7 -16 -17 -22 -22 -10 -9 -29
-31 -48 -54 -12 -15 -24 -19 -57 -19 -15 0 -29 -1 -32 -2 -2 -1 -5 -2 -6 -2
-5 -1 -7 -3 -11 -11 -3 -7 -3 -10 -2 -22 3 -28 -5 -40 -27 -40 -19 0 -28 9
-28 28 0 13 4 20 14 26 9 5 10 7 11 24 0 11 -3 21 -8 21 -1 0 -70 28 -87 35
-32 14 -36 15 -47 13 -12 -2 -16 -5 -28 -19 -4 -6 -11 -13 -14 -17 -6 -7 -14
-21 -14 -25 0 -1 -3 -5 -7 -10 -5 -8 -7 -9 -8 -6 -1 4 -10 11 -21 16 -7 4 -17
7 -32 8 -7 1 -14 2 -16 3 -2 1 -7 10 -11 20 -9 21 -22 36 -37 44 -17 8 -39 2
-49 -13 -5 -7 -6 -27 -2 -40 2 -6 3 -13 3 -17 0 -7 -8 -16 -14 -16 -11 0 -23
-2 -24 -4 0 -1 -1 -2 -2 -2 -7 0 -14 -14 -15 -29 -1 -13 -7 -19 -18 -19 -10 0
-15 5 -19 19 -6 25 -17 34 -44 38 -16 2 -46 13 -66 23 -14 7 -34 4 -46 -8 -7
-7 -14 -12 -20 -12 -20 -2 -24 2 -26 23 -4 35 -11 44 -50 60 -19 8 -24 9 -32
8 -12 -2 -19 -6 -24 -17 -4 -9 -4 -14 -4 -73 0 -65 -1 -72 -8 -80 -2 -2 -3 -2
-7 2 -8 11 -56 42 -89 59 -19 10 -24 13 -27 19 -3 8 -3 9 4 23 6 13 6 16 3 27
-3 9 -18 25 -24 25 -2 0 -4 1 -5 2 -1 1 -5 2 -10 3 -4 1 -11 2 -14 3 -3 1 -8
2 -11 3 -3 0 -13 3 -23 5 -40 10 -66 16 -71 17 -5 1 -32 7 -49 11 -4 1 -10 2
-12 3 -2 0 -9 2 -16 4 -7 1 -15 3 -19 4 -4 1 -7 2 -8 2 -1 1 -6 2 -11 2 -20 2
-26 3 -32 7 -3 2 -8 4 -10 4 -2 0 -15 3 -28 6 -13 3 -24 6 -24 6 0 0 -4 -1
-10 -3z m77 -57 c9 -11 2 -28 -12 -28 -14 0 -22 17 -12 27 6 7 19 7 24 1z
m1132 -133 l-5 -5 -4 4 -5 5 4 4 5 5 4 -4 5 -5 -4 -4z m229 -5 c12 -3 17 -10
17 -24 0 -11 -1 -13 -6 -18 -5 -5 -7 -6 -18 -6 -11 0 -13 1 -18 6 -5 5 -6 7
-6 17 0 14 1 16 10 22 8 6 9 6 21 3z m-1089 -29 c3 -3 4 -7 4 -14 0 -13 -6
-19 -19 -19 -13 0 -19 6 -19 19 0 7 1 11 4 14 7 8 23 8 30 0z m754 -10 c5 -5
5 -14 1 -32 -7 -28 -4 -40 17 -77 8 -13 9 -27 3 -34 -2 -3 -9 -9 -16 -13 l-12
-8 -1 -15 c0 -19 -1 -18 36 -32 16 -6 18 -41 2 -49 -3 -2 -7 -3 -8 -3 -5 0
-28 -13 -30 -17 -1 -2 -2 -3 -2 -1 0 2 -2 8 -5 13 -7 15 -7 49 0 64 4 8 5 13
5 24 0 8 -1 15 -2 15 -3 2 -9 19 -11 28 -1 9 -3 15 -18 41 -6 12 -7 20 -4 30
6 16 9 30 10 46 1 12 2 17 5 20 7 8 23 8 30 0z m-94 3 c18 -5 15 -28 -4 -28
-13 0 -19 2 -23 8 -4 7 -4 8 2 14 6 8 12 10 25 6z m556 -14 c5 -5 6 -7 6 -17
0 -10 -1 -12 -6 -17 -5 -5 -7 -6 -17 -6 -10 0 -12 1 -17 6 -5 5 -6 7 -6 17 0
10 1 12 6 17 5 5 7 6 17 6 10 0 12 -1 17 -6z m-739 -43 l6 -6 0 -45 0 -45 -6
-6 c-6 -6 -7 -6 -21 -6 -14 0 -15 0 -21 6 l-6 6 0 45 0 45 6 6 c6 6 7 6 21 6
14 0 15 0 21 -6z m572 -1 c4 -3 6 -6 6 -6 0 -1 -1 -26 -1 -57 -1 -57 0 -60 7
-86 4 -11 1 -21 -9 -37 -4 -7 -5 -36 -2 -42 2 -4 3 -19 4 -56 l1 -51 -6 -6
c-6 -6 -7 -6 -21 -5 -8 1 -14 0 -14 -1 0 -1 -3 1 -6 5 -3 3 -6 6 -7 6 -1 0 -2
3 -2 6 0 7 -6 15 -13 18 -3 2 -9 5 -14 8 -5 3 -11 5 -14 6 -3 0 -11 2 -17 4
-15 4 -28 2 -50 -9 -3 -2 -9 -4 -13 -4 -11 -1 -29 -9 -44 -18 -11 -8 -14 -9
-24 -9 -9 0 -11 1 -16 6 -5 5 -6 7 -6 17 0 10 1 12 6 17 6 6 6 6 29 5 l24 0
17 9 c10 4 19 8 21 8 4 0 25 12 28 15 2 2 5 10 8 17 7 15 11 20 19 20 5 0 13
-4 13 -7 0 -1 2 -5 5 -9 2 -4 4 -7 4 -8 0 -1 8 -1 17 0 l18 1 2 9 c2 5 4 16 5
24 1 8 2 18 3 22 2 9 11 38 13 41 2 2 -4 28 -6 26 -1 0 -1 1 -2 4 0 6 -7 21
-10 21 0 0 -1 20 -1 45 l0 46 6 6 c6 6 6 6 21 5 13 0 16 -1 21 -6z m-114 -1
c12 -7 14 -33 3 -43 -8 -9 -32 -9 -40 0 -9 8 -9 32 0 41 7 7 27 8 37 2z m-629
-19 c2 -2 4 -10 5 -21 2 -10 3 -20 4 -22 4 -21 2 -28 -9 -28 -8 0 -11 5 -13
24 -2 10 -3 20 -4 22 -3 17 -3 21 0 24 5 5 13 5 17 1z m-422 -18 c3 -3 10 -27
15 -52 1 -7 2 -21 0 -27 0 -2 -1 -5 -1 -5 0 -2 -12 -20 -15 -23 -1 -1 -4 -5
-7 -9 -3 -4 -6 -8 -7 -9 -2 -2 -3 -3 -3 -4 0 0 -1 -3 -3 -4 -7 -9 -30 -39 -34
-44 -18 -26 -49 -42 -69 -37 -5 1 -9 2 -10 1 0 0 -4 -1 -9 -2 -4 -1 -10 -3
-13 -4 -7 -5 -16 -19 -17 -28 -4 -36 -7 -45 -17 -47 -6 0 -9 3 -11 11 -2 11
-11 26 -16 30 -6 4 -18 5 -23 2 -1 -1 -2 -1 -2 0 0 3 -12 -6 -13 -10 -2 -7 -9
-19 -13 -20 -2 -1 -4 -2 -4 -3 0 -4 -14 -2 -18 2 -9 9 1 27 18 32 8 3 17 8 12
8 -3 0 -1 7 2 8 2 1 11 5 20 10 23 10 30 19 35 42 2 10 8 12 35 13 28 0 29 1
47 16 10 9 35 39 41 51 1 2 3 5 5 6 3 4 43 64 50 77 13 23 19 27 25 19z m125
-16 c4 -6 4 -24 -1 -30 -7 -9 -27 -9 -34 0 -5 6 -5 24 0 30 7 9 27 9 35 0z
m122 -5 c3 -3 3 -3 0 -6 -3 -3 -3 -3 -6 0 -3 2 -3 3 -1 6 4 4 4 4 7 0z m807
-76 c3 -3 4 -7 4 -14 0 -13 -6 -19 -19 -19 -13 0 -19 6 -19 19 0 7 1 11 4 14
7 8 23 8 30 0z m-340 2 c5 -4 12 -17 12 -23 0 -2 -3 -8 -8 -12 -7 -7 -8 -8
-19 -8 -10 0 -12 1 -17 6 -5 5 -6 7 -6 17 0 10 1 12 6 17 5 5 7 6 16 6 7 0 13
-1 16 -3z m-352 -17 c4 -3 12 -9 19 -14 11 -9 12 -9 25 -9 8 0 18 2 26 5 24 9
36 4 36 -15 0 -11 -6 -19 -14 -19 -19 0 -50 -11 -57 -21 -2 -3 -5 -6 -6 -8 -1
-1 -5 -7 -9 -14 -5 -9 -6 -12 -5 -18 3 -13 19 -21 38 -18 18 3 28 -1 39 -15
20 -26 15 -53 -10 -53 -10 0 -17 4 -28 14 -4 5 -25 10 -39 9 -19 0 -22 3 -24
23 0 8 -3 21 -6 29 -6 18 -8 31 -5 35 3 3 1 27 -3 34 -1 2 -6 8 -10 13 -8 9
-9 11 -9 21 0 14 3 20 12 24 8 3 21 2 30 -3z m435 -9 c4 -4 5 -7 5 -15 0 -14
-6 -20 -19 -20 -15 0 -19 4 -23 21 -3 15 25 26 37 14z m-534 -38 c8 -7 6 -65
-3 -65 -1 0 -2 -2 -2 -3 0 -3 -1 -3 -1 -1 -1 2 -2 3 -3 4 -3 2 -27 23 -33 29
-5 5 -7 8 -6 11 2 5 10 14 13 14 5 0 28 15 28 18 0 3 0 3 1 0 1 -2 4 -5 6 -7z
m-215 -2 c17 -7 20 -36 7 -50 -6 -6 -5 -5 -18 -6 -17 -1 -27 6 -31 20 -2 10 0
23 6 30 7 8 24 11 36 6z m-359 -5 c17 -6 33 -19 33 -28 0 -2 -2 -5 -4 -7 -4
-3 -4 -3 -15 0 -24 7 -40 25 -32 35 5 5 6 5 18 0z m967 -29 l-5 -5 -4 4 -5 5
4 4 5 5 4 -4 5 -5 -4 -4z m-64 -2 l6 -6 0 -47 1 -47 -6 -6 c-6 -6 -7 -6 -21
-6 -14 0 -15 0 -21 6 l-6 6 0 47 0 47 6 6 c6 6 7 6 21 6 14 0 15 0 20 -6z
m-504 -55 c2 0 7 -3 10 -6 6 -5 6 -6 6 -23 -1 -38 12 -47 46 -32 14 7 25 7 44
0 22 -7 34 -7 50 3 7 5 12 9 12 11 0 3 1 3 2 1 0 -2 3 -5 5 -8 2 -3 4 -8 4
-11 3 -18 5 -23 14 -27 5 -2 11 -5 14 -5 3 -1 7 -2 9 -3 3 -1 4 -1 4 0 0 4 13
2 17 -2 10 -9 3 -26 -10 -26 -4 0 -7 1 -7 2 0 1 -1 1 -4 0 -2 -1 -6 -2 -9 -3
-3 0 -9 -3 -14 -5 -13 -6 -13 -9 -13 -84 0 -63 -1 -78 -6 -78 -1 0 -3 -2 -4
-4 -1 -4 -2 -4 -2 -1 0 2 -3 6 -6 10 -4 3 -16 16 -27 27 l-20 21 -14 -1 c-8 0
-14 -1 -16 -3 -11 -11 -21 -17 -27 -17 -11 0 -15 6 -16 23 -1 8 -2 16 -4 17
-2 3 -2 4 -2 8 0 4 -11 12 -21 16 -16 6 -21 12 -20 24 1 7 1 11 1 17 -1 4 -12
6 -20 4 -4 -1 -6 -3 -6 -6 0 -3 -1 -3 -2 2 -1 3 -3 11 -6 17 -5 12 -6 54 -1
61 5 8 10 36 9 55 -1 18 8 28 21 27 2 0 6 -1 9 -1z m754 -44 c3 -2 8 -18 8
-26 0 -8 -6 -26 -8 -26 -1 0 -2 -2 -2 -4 0 -4 -1 -4 -2 -2 -1 4 -15 14 -18 14
-4 0 -14 12 -14 18 0 6 10 18 14 18 4 0 18 11 18 14 0 2 1 2 1 -1 1 -2 2 -4 3
-5z m250 -39 c5 -5 5 -5 2 -14 -3 -9 -10 -13 -19 -10 -12 4 -12 21 0 26 9 4
12 4 17 -2z m-1217 -36 c3 -5 3 -5 0 -10 -2 -3 -5 -5 -7 -5 -2 0 -5 2 -7 5 -3
5 -3 5 0 10 2 3 5 5 7 5 2 0 5 -2 7 -5z m1106 -1 c10 -9 3 -26 -10 -26 -8 0
-15 7 -15 15 0 13 16 20 25 11z m-1014 -5 c6 -4 6 -6 6 -20 0 -14 0 -16 -6
-20 -7 -7 -28 -7 -36 -1 -10 8 -10 34 0 42 8 6 29 6 36 -1z m1355 -13 c5 -5 5
-11 0 -16 -10 -10 -27 5 -16 16 4 4 12 4 16 0z m-264 -37 c2 -2 6 -9 9 -16 l6
-12 15 0 c8 0 15 1 15 2 1 0 2 1 3 0 1 -1 2 1 3 5 1 3 4 7 9 11 10 6 28 7 60
2 34 -5 44 -11 44 -30 0 -13 -3 -18 -19 -25 -6 -4 -14 -8 -17 -10 -7 -5 -16
-24 -16 -33 0 -5 -2 -11 -5 -15 -5 -8 -5 -8 -9 -4 -2 1 -12 9 -22 17 -10 8
-19 15 -21 16 -1 1 -7 6 -14 11 -17 12 -25 20 -30 29 -3 4 -7 7 -8 7 -5 0 -22
11 -27 18 -5 8 -5 19 0 25 6 6 20 7 24 2z m-466 -10 l4 -5 0 -97 c0 -93 0 -98
4 -118 6 -28 13 -45 23 -59 6 -7 10 -16 11 -20 3 -10 -1 -24 -6 -28 -3 -3 -4
-6 -4 -17 0 -18 5 -27 16 -29 7 0 14 -6 19 -15 8 -15 4 -44 -6 -48 -16 -6 -27
-5 -52 7 -14 7 -18 8 -25 7 -12 -2 -18 -5 -18 -10 -1 -4 -1 -4 -1 0 -1 2 -3 9
-6 14 -4 9 -5 13 -5 42 0 18 -1 35 -2 39 -4 12 -13 23 -26 29 -14 7 -18 13
-18 26 0 17 4 27 15 36 17 14 25 23 28 33 3 8 3 23 3 108 l-1 99 6 6 c6 6 7 6
21 6 14 0 15 0 20 -6z m150 -18 c2 -2 4 -5 4 -6 0 -2 2 -7 4 -12 6 -11 5 -14
-6 -17 -10 -3 -26 0 -32 7 -6 6 -6 22 0 28 7 8 21 8 30 0z m100 -5 c3 -2 8
-18 8 -25 0 -8 5 -21 9 -21 2 0 -2 -2 -16 -10 -6 -3 -23 -2 -41 3 -11 3 -15 5
-17 11 0 3 5 10 9 10 3 0 30 17 37 24 4 4 7 9 7 11 0 3 1 3 1 1 1 -2 2 -3 3
-4z m-456 -46 c5 -6 5 -12 0 -18 -7 -8 -22 -2 -22 9 0 11 15 17 22 9z m-553
-77 c3 -3 3 -3 0 -6 -3 -3 -3 -3 -6 0 -3 2 -3 3 -1 6 4 4 4 4 7 0z m944 -18
c3 -5 3 -5 0 -10 -2 -3 -5 -5 -7 -5 -2 0 -5 2 -7 5 -3 5 -3 5 0 10 2 3 5 5 7
5 2 0 5 -2 7 -5z m-544 -18 c10 -3 20 -3 22 0 3 2 11 -14 13 -25 4 -19 7 -22
24 -22 9 0 14 -1 15 -2 0 -2 1 -1 1 1 0 5 11 18 20 23 8 6 27 6 35 1 3 -2 9
-8 13 -14 30 -40 26 -61 -11 -61 -11 0 -17 -3 -17 -9 0 -2 -1 -3 -1 -3 -1 0
-2 -5 -1 -11 1 -23 11 -25 76 -20 12 1 14 1 19 -4 6 -4 6 -6 6 -20 0 -14 0
-16 -6 -20 -5 -5 -6 -5 -32 -5 -21 1 -28 0 -37 -3 -13 -4 -27 -5 -35 0 -12 6
-14 19 -8 54 1 8 1 9 -5 13 -3 2 -6 4 -6 3 0 0 -2 1 -5 3 -3 3 -5 6 -5 7 0 1
-2 2 -4 2 -2 1 -9 4 -14 7 -13 8 -30 14 -31 12 -1 -1 -2 -1 -4 0 -1 1 -6 3
-10 4 -4 1 -10 3 -12 4 -2 1 -13 5 -25 9 -12 4 -23 8 -25 9 -23 9 -43 16 -48
16 -4 0 -5 1 -2 1 3 1 5 3 6 5 0 3 2 4 6 4 4 0 7 1 8 1 0 1 3 2 5 2 12 2 26
13 38 28 5 7 10 10 24 13 1 0 6 -1 13 -3z m813 -3 c2 -1 4 -3 6 -5 4 -4 12
-35 13 -50 1 -13 1 -15 -3 -19 -10 -10 -26 -2 -52 29 -9 11 -9 33 0 42 6 6 26
8 36 3z m124 -51 c2 -28 3 -38 8 -47 4 -8 5 -28 1 -42 -3 -13 -3 -21 2 -42 l4
-13 -7 -20 c-7 -19 -7 -21 -8 -60 -1 -39 -1 -41 -6 -47 -4 -6 -5 -7 -7 -5 -1
1 -9 5 -16 8 -27 11 -37 24 -30 40 3 6 5 10 15 22 1 2 4 8 6 15 4 13 4 15 3
77 -1 69 -2 73 -13 94 -9 17 -9 31 1 40 4 3 12 8 19 11 6 2 13 5 14 7 2 2 3 2
8 -3 5 -6 5 -8 6 -35z m-271 26 l6 -6 0 -44 0 -44 -6 -6 -6 -6 -27 1 c-34 1
-41 4 -47 20 -4 13 -4 23 2 38 8 19 11 32 11 36 -1 3 1 7 5 11 l6 6 25 0 25 0
6 -6z m-1128 -43 c0 -32 7 -42 37 -53 19 -6 21 -10 21 -36 -1 -47 -12 -63 -45
-63 -11 0 -13 1 -18 6 -5 5 -6 7 -6 16 0 5 1 12 2 15 3 8 3 24 0 34 -3 13 -66
78 -80 83 -3 2 -17 1 -25 0 -4 -1 -13 -18 -14 -26 0 -6 -5 -12 -9 -12 -6 0 -8
6 -9 23 -1 19 -4 29 -10 33 -3 1 -1 2 6 6 10 5 11 5 74 6 l64 1 6 -6 c6 -6 6
-6 6 -27z m963 24 c5 -5 5 -11 0 -16 -10 -10 -27 5 -16 16 4 4 12 4 16 0z
m278 -96 c6 -16 4 -44 -5 -51 -8 -8 -25 -7 -33 1 -14 14 -2 46 20 58 8 4 14 2
18 -8z m-754 -40 c6 -4 10 -20 10 -38 0 -6 1 -16 2 -21 3 -13 10 -17 26 -17 6
0 10 -1 11 -2 0 -2 1 -2 1 0 0 10 21 12 29 3 7 -6 7 -22 0 -28 -8 -9 -29 -7
-29 3 0 2 -1 2 -1 1 -1 -2 -5 -3 -11 -3 -6 0 -13 -1 -17 -3 -10 -5 -11 -12
-11 -111 l0 -87 -6 -8 c-3 -4 -6 -6 -6 -6 -2 1 -55 -10 -66 -14 -4 -2 -16 -8
-25 -14 -19 -13 -22 -13 -46 -8 -8 2 -17 3 -21 3 -8 0 -36 -5 -39 -7 -1 0 -4
2 -5 5 -3 5 -3 6 0 13 2 4 4 6 5 6 3 -3 40 42 62 74 29 43 39 60 61 102 9 18
17 33 18 34 2 2 0 18 -3 26 -2 3 -5 8 -8 10 -12 9 -19 18 -19 23 0 11 6 19 17
24 15 6 22 12 43 36 9 9 20 11 28 4z m-344 -36 c5 -5 6 -7 6 -17 0 -10 -1 -12
-6 -17 -5 -5 -7 -6 -17 -6 -10 0 -12 1 -17 6 -5 5 -6 7 -6 17 0 10 1 12 6 17
5 5 7 6 17 6 10 0 12 -1 17 -6z m538 -39 c4 -3 4 -7 4 -30 0 -32 1 -30 -28
-45 -27 -13 -36 -15 -43 -8 -11 10 -4 25 16 35 16 7 23 14 28 27 8 18 9 19 14
22 5 2 5 2 9 -1z m452 -19 c0 -8 4 -24 9 -26 1 -1 1 -2 -1 -2 -2 0 -4 -1 -4
-2 0 -1 -4 -3 -8 -5 -7 -2 -17 -3 -62 -3 -55 0 -61 1 -68 8 -4 4 -4 4 1 8 3 2
7 4 8 4 4 0 28 17 34 23 10 11 20 14 51 15 l29 1 6 -6 c5 -5 6 -7 5 -15z
m-1158 10 c5 -6 5 -12 0 -18 -7 -8 -22 -2 -22 9 0 11 15 17 22 9z m370 -11
c17 -4 22 -9 22 -23 0 -12 -4 -20 -13 -25 -14 -8 -34 -24 -38 -31 -2 -4 -7
-15 -11 -25 -3 -9 -7 -19 -9 -21 -5 -6 -15 -5 -21 1 -5 5 -5 9 2 34 2 9 5 22
6 30 1 8 3 19 5 26 2 7 4 16 4 21 4 24 6 24 53 13z m422 -27 c3 -2 8 -19 8
-28 0 -9 -6 -28 -8 -28 -1 0 -2 -2 -2 -4 0 -4 -1 -4 -1 -2 -1 2 -7 7 -14 11
-18 11 -21 14 -21 23 0 9 3 12 22 23 6 4 12 9 12 11 0 2 1 2 1 -1 1 -2 2 -4 3
-5z m-677 -26 c8 -8 8 -22 1 -33 -9 -14 -34 -20 -43 -11 -10 9 -4 36 8 45 11
8 25 8 34 -1z m89 -104 c5 -5 6 -7 6 -17 0 -10 -1 -12 -6 -17 -5 -5 -7 -6 -17
-6 -10 0 -12 1 -17 6 -5 5 -6 7 -6 17 0 10 1 12 6 17 5 5 7 6 17 6 10 0 12 -1
17 -6z m975 -9 l6 -6 -1 -23 c-1 -35 5 -47 26 -62 12 -8 16 -13 16 -22 0 -10
-3 -13 -22 -23 -16 -8 -19 -11 -27 -22 -12 -17 -16 -19 -28 -19 -12 0 -17 3
-23 14 -10 19 -14 23 -23 29 -8 5 -12 6 -33 7 -37 2 -62 10 -69 21 -8 12 -3
37 8 41 2 1 7 4 12 7 4 3 8 5 8 5 1 0 3 2 6 6 8 8 13 22 13 32 -1 7 0 10 5 15
l6 6 57 0 57 0 6 -6z m-361 -27 c3 -1 8 -1 12 0 4 0 7 -1 8 -2 2 -2 2 -2 2 0
0 5 10 9 21 9 19 0 28 -9 28 -28 0 -19 -9 -28 -28 -28 -11 0 -21 4 -21 9 0 2
0 2 -2 0 -1 -1 -4 -2 -8 -2 -14 1 -18 0 -18 -4 0 -4 -1 -5 -1 -1 -1 2 -2 9 -4
15 -3 10 -3 12 0 21 2 6 3 12 3 15 1 5 1 5 1 1 1 -4 3 -5 7 -5z m-694 -48 c5
-5 5 -11 0 -16 -10 -10 -27 5 -16 16 4 4 12 4 16 0z m666 -17 c0 -9 -1 -14 -1
-11 -1 5 -1 6 -14 5 l-13 -1 0 7 0 7 13 -1 c13 -1 13 0 13 4 0 3 0 5 1 5 1 0
1 -7 1 -15z m-33 10 c4 -4 4 -16 0 -20 -7 -7 -21 0 -21 10 0 10 14 17 21 10z
m125 -43 c5 -6 4 -19 -2 -41 -4 -15 -2 -25 9 -48 4 -8 7 -16 7 -18 0 -5 -7
-13 -15 -17 -5 -3 -6 -2 -10 2 -3 4 -4 7 -4 14 1 10 -4 24 -16 43 -3 4 -5 10
-5 13 0 6 8 37 12 44 7 12 17 16 24 8z m-651 -19 c3 -3 3 -3 0 -6 -3 -3 -3 -3
-6 0 -3 2 -3 3 -1 6 4 4 4 4 7 0z m1412 -2 c6 -4 6 -6 6 -20 0 -13 -1 -16 -4
-19 -9 -9 -31 -9 -40 0 -3 3 -4 6 -4 19 0 14 0 16 6 20 4 4 7 5 18 5 11 0 14
-1 18 -5z m-992 -59 c11 -10 3 -28 -11 -28 -9 0 -16 6 -16 16 0 14 17 22 27
12z m1001 -36 c5 -5 5 -11 0 -16 -10 -10 -27 5 -16 16 4 4 12 4 16 0z m-126
-11 c3 -3 4 -7 4 -14 0 -13 -6 -19 -19 -19 -13 0 -19 6 -19 19 0 7 1 11 4 14
7 8 23 8 30 0z m-704 -8 c10 -4 13 -5 24 -2 10 2 17 -11 14 -23 -1 -3 -2 -7
-3 -10 -1 -7 -7 -11 -17 -13 -13 -2 -28 -10 -29 -15 0 -5 0 -4 -1 1 0 3 -1 5
-2 5 -1 0 -2 1 -2 2 0 8 -22 24 -37 27 -3 1 -7 2 -7 4 -1 1 -2 1 -2 -1 0 -5
-2 -5 -7 0 l-5 5 4 4 c6 6 8 6 8 2 0 -3 1 -3 2 -2 0 2 3 3 6 4 3 0 9 2 13 4 4
2 10 3 13 3 6 0 16 8 16 14 l1 5 0 -5 c1 -3 4 -6 11 -9z m594 -19 c4 -2 7 -14
8 -24 0 -10 0 -12 -5 -16 -3 -3 -9 -7 -13 -8 -10 -3 -21 -13 -26 -22 -10 -19
-22 -26 -30 -16 -11 11 -19 35 -18 49 0 4 12 9 29 12 17 3 25 7 42 18 6 5 9 8
9 11 0 5 1 5 1 1 1 -2 2 -4 3 -5z m151 -95 c9 -5 12 -18 9 -32 -3 -11 -5 -14
-14 -16 -4 -1 -7 -2 -8 -2 -3 -2 -19 2 -23 6 -10 8 -11 32 -1 42 7 7 27 8 37
2z"/>
<path d="M154 2087 c-2 -2 -7 -2 -24 -2 -24 1 -32 -2 -43 -13 -4 -5 -5 -8 -6
-20 -1 -14 -1 -17 6 -36 4 -12 10 -30 14 -42 6 -19 20 -44 25 -43 0 0 3 0 5
-1 12 -5 19 -4 28 1 8 5 21 21 21 26 0 2 1 3 2 3 0 0 1 2 1 6 0 3 1 6 2 6 1 1
2 3 2 5 1 6 10 12 14 9 7 -6 35 8 43 21 4 7 7 24 4 22 -1 -1 -2 0 -2 2 0 6
-18 8 -29 2 -4 -3 -12 -6 -16 -9 -5 -2 -8 -6 -8 -8 -1 -7 -11 -16 -18 -17 -11
-2 -25 8 -25 19 0 5 6 15 12 22 3 3 6 8 7 12 0 4 2 11 4 15 1 5 3 11 2 15 0 7
0 7 -9 8 -6 0 -10 -1 -12 -3z"/>
</g>
</svg>
