<?xml version="1.0" standalone="no"?>
<!DOCTYPE svg PUBLIC "-//W3C//DTD SVG 20010904//EN"
 "http://www.w3.org/TR/2001/REC-SVG-20010904/DTD/svg10.dtd">
<svg version="1.0" xmlns="http://www.w3.org/2000/svg"
 width="1100.000000pt" height="2850.000000pt" viewBox="0 0 1100.000000 2850.000000"
 preserveAspectRatio="xMidYMid meet">
<metadata>
Created by potrace 1.15, written by Peter Selinger 2001-2017
</metadata>
<g transform="translate(0.000000,2850.000000) scale(0.500000,-0.500000)"
fill="#000000" stroke="none">
<path d="M392 3832 c-15 -5 -24 -17 -27 -34 -4 -20 -17 -93 -19 -99 -1 -4 -2
-10 -3 -13 -6 -33 -40 -169 -60 -239 -17 -56 -56 -176 -74 -225 -5 -14 -10
-27 -11 -30 -5 -15 -49 -123 -59 -146 -4 -8 -7 -15 -7 -15 0 -1 -4 -10 -8 -20
-32 -70 -84 -173 -117 -229 -7 -12 -7 -13 -7 -33 0 -23 1 -24 12 -30 4 -2 10
-5 13 -7 13 -8 34 -7 47 3 4 3 21 16 38 28 17 13 32 24 33 26 1 1 5 4 8 6 6 4
17 13 19 15 1 1 7 6 15 12 8 7 18 16 23 20 l10 9 4 -7 5 -7 1 -459 c1 -373 1
-460 4 -465 3 -7 14 -19 17 -19 2 0 3 -1 3 -2 0 -2 11 -3 58 -3 34 0 52 1 67
4 39 6 88 21 116 34 6 3 14 6 18 6 7 1 9 0 22 -16 8 -10 26 -20 38 -20 17 -1
18 0 65 30 8 4 16 10 18 11 3 2 14 10 24 17 25 18 49 36 80 63 44 38 98 94
132 136 5 7 11 14 12 15 3 5 19 26 22 30 19 29 35 53 43 65 3 6 4 8 18 31 16
28 48 98 61 132 2 7 6 15 7 19 5 10 6 28 2 37 -3 10 -13 14 -22 11 -3 -1 -10
-2 -16 -2 -13 0 -19 6 -19 19 0 13 6 19 19 19 9 0 11 0 17 -8 7 -8 7 -8 21 -8
8 0 15 1 16 2 1 1 2 2 3 1 1 0 3 2 4 5 2 5 15 55 17 64 0 3 2 13 5 22 5 22 16
83 19 105 0 3 2 17 4 30 6 48 12 115 12 143 0 12 0 13 6 18 7 6 7 6 36 6 30 0
30 0 36 -5 3 -4 6 -7 6 -8 1 -1 1 -7 2 -14 2 -21 8 -36 20 -47 18 -19 19 -32
7 -59 -3 -7 -6 -20 -6 -29 0 -19 22 -125 43 -206 0 -2 2 -9 4 -16 3 -14 9 -26
12 -26 0 0 1 -1 0 -2 -1 -1 0 -2 1 -3 2 0 2 -1 0 -1 -1 0 -2 -1 0 -3 1 -2 2
-8 3 -13 2 -17 31 -100 46 -134 3 -5 5 -11 5 -12 0 -6 54 -112 72 -141 2 -3 5
-9 7 -12 4 -7 29 -45 31 -47 1 -1 3 -4 5 -7 3 -5 18 -26 27 -38 46 -59 109
-126 168 -177 9 -8 19 -17 22 -19 5 -4 8 -5 19 -5 13 0 14 0 21 8 5 5 9 13 15
27 10 27 30 66 40 80 1 1 5 7 9 12 24 34 59 65 95 83 11 5 20 10 21 9 1 0 9 3
19 6 10 3 22 6 26 8 13 3 22 8 30 18 9 10 16 26 14 34 -3 24 -10 32 -40 45
-26 12 -137 67 -141 71 -2 1 -9 6 -17 10 -8 4 -19 11 -25 15 -26 16 -70 46
-82 55 -18 13 -32 24 -35 26 -1 1 -13 11 -26 22 -26 21 -76 70 -98 96 -8 9
-15 17 -17 19 -6 6 -34 44 -44 58 -1 3 -3 5 -4 6 -2 2 -24 36 -34 52 -42 72
-73 145 -101 239 -2 7 -5 12 -5 13 -2 0 4 7 10 10 2 1 9 2 16 2 8 0 19 2 34 7
27 9 31 9 59 0 19 -6 24 -7 38 -7 10 1 17 0 17 0 0 -1 3 -4 7 -6 3 -3 6 -6 7
-8 1 -7 11 -18 20 -25 21 -14 22 -33 1 -46 -14 -9 -25 -26 -25 -39 0 -12 14
-34 21 -34 2 0 3 -1 3 -2 0 -2 10 -3 53 -3 46 0 75 4 120 15 13 3 25 6 27 7
19 5 64 21 80 29 27 14 38 25 45 47 4 14 4 366 0 376 -3 7 -11 16 -14 16 -1 0
-7 2 -12 4 -6 1 -11 2 -12 1 -1 -2 -17 -1 -23 1 -20 9 -20 45 0 54 6 2 22 3
23 1 1 -1 6 0 12 1 5 2 11 4 12 4 4 0 13 12 15 19 1 4 2 30 2 68 l-1 61 -6 11
c-3 6 -7 14 -10 16 -13 15 -17 31 -11 46 4 10 11 12 36 13 26 0 36 4 52 20 13
12 16 18 16 30 0 17 -3 21 -32 43 -27 21 -32 23 -58 30 -13 3 -18 8 -25 21 -7
15 -20 27 -50 50 -53 40 -78 59 -81 62 -24 19 -30 22 -44 20 -14 -1 -19 -4
-37 -24 -8 -9 -19 -21 -26 -29 -7 -7 -14 -15 -17 -18 -19 -21 -38 -41 -42 -46
-3 -3 -10 -8 -16 -11 l-11 -5 -173 1 c-95 0 -175 1 -177 1 -2 1 -7 3 -10 4 -6
2 -35 13 -42 16 -2 1 -12 5 -21 9 -9 4 -29 12 -44 18 -28 12 -34 13 -57 10
-30 -4 -34 -3 -48 16 -18 24 -21 26 -67 45 -30 12 -35 13 -46 10 -15 -5 -22
-19 -22 -44 0 -14 0 -16 -6 -21 -3 -3 -6 -5 -6 -4 -1 0 -12 4 -25 8 -13 4 -29
9 -36 11 -7 2 -21 7 -33 10 -12 3 -26 8 -33 10 -7 2 -21 7 -33 10 -12 3 -31 9
-43 13 -12 4 -31 10 -42 13 -22 6 -55 16 -91 27 -34 11 -35 11 -39 12 -3 0 -9
-1 -15 -3z m399 -218 c3 -6 3 -28 2 -367 0 -198 -1 -367 -2 -376 0 -9 -1 -30
-2 -47 -1 -17 -2 -36 -2 -42 0 -6 -1 -20 -2 -30 -1 -17 -6 -72 -8 -98 -4 -39
-19 -145 -26 -181 -9 -46 -24 -110 -36 -150 -9 -32 -23 -75 -25 -79 -1 -2 -2
-4 -2 -5 -1 -5 -13 -37 -23 -61 -8 -19 -9 -24 -12 -37 -4 -20 -9 -32 -22 -46
-5 -5 -13 -17 -17 -26 -5 -9 -11 -20 -14 -25 -3 -5 -6 -11 -6 -13 0 -3 -1 -3
-1 -1 -1 2 -4 5 -6 7 -4 3 -4 6 -5 37 0 36 -2 47 -10 53 -6 6 -24 11 -38 11
-15 0 -22 7 -22 23 0 10 1 12 6 17 5 5 7 6 17 6 12 0 38 7 36 10 -1 1 0 2 1 2
1 0 3 4 5 9 4 8 4 25 5 462 l0 454 5 9 c3 6 7 10 10 11 8 2 27 19 34 30 9 14
11 19 9 32 -2 8 -3 11 -11 18 -5 5 -12 9 -15 11 -4 1 -11 4 -17 6 -5 2 -11 4
-12 4 -4 0 -12 8 -14 14 -1 5 -1 5 18 39 27 45 58 108 89 174 10 21 36 82 45
104 5 14 12 26 15 29 3 3 13 8 23 12 10 3 19 7 20 9 2 3 5 1 10 -9z m716 -83
l6 -6 0 -250 0 -250 -6 -6 -6 -6 -175 0 -175 0 -6 6 -6 6 0 250 0 250 6 6 6 6
175 0 175 0 6 -6z m-1030 -169 c4 -3 5 -5 13 -21 14 -26 15 -35 8 -42 -6 -7
-18 -7 -24 0 -4 4 -15 35 -17 49 -1 8 -1 10 2 13 5 5 13 6 18 1z m-22 -130 c5
-5 6 -7 6 -16 0 -15 -8 -23 -23 -23 -9 0 -11 1 -16 7 -9 8 -9 23 -1 32 9 9 24
9 34 0z m524 -212 c5 -4 5 -4 1 -11 -5 -8 -17 -9 -20 -1 -2 6 -1 6 6 11 8 6 8
6 13 1z m631 -13 c3 -3 4 -7 4 -14 0 -13 -6 -19 -19 -19 -13 0 -19 6 -19 19 0
7 1 11 4 14 7 8 23 8 30 0z m-659 -14 c1 -6 0 -9 -7 -18 -8 -11 -10 -12 -18
-13 -7 0 -10 1 -13 4 -10 9 -4 30 8 30 3 0 5 1 6 2 0 1 6 1 12 1 11 0 11 0 12
-6z m-60 -273 c5 -5 6 -7 6 -16 0 -15 -8 -23 -23 -23 -9 0 -11 1 -16 7 -9 8
-9 23 -1 32 9 9 24 9 34 0z m-566 -57 c20 -9 30 -39 18 -50 -6 -7 -21 -7 -28
-1 -10 9 -12 40 -4 49 5 6 5 6 14 2z m1028 -166 c3 -5 3 -5 0 -10 -5 -6 -8 -6
-13 -1 -4 4 -4 7 0 12 4 5 8 5 13 -1z m-1020 -151 c10 -9 3 -26 -10 -26 -8 0
-15 7 -15 15 0 13 16 20 25 11z m88 -99 c3 -3 3 -3 0 -6 -3 -3 -3 -3 -6 0 -3
2 -3 3 -1 6 4 4 4 4 7 0z m394 -14 c12 -7 14 -33 3 -43 -8 -9 -32 -9 -40 0 -9
8 -9 32 0 41 7 7 27 8 37 2z m-282 -217 c11 -10 3 -28 -11 -28 -9 0 -16 6 -16
16 0 14 17 22 27 12z"/>
</g>
</svg>
