<?xml version="1.0" standalone="no"?>
<!DOCTYPE svg PUBLIC "-//W3C//DTD SVG 20010904//EN"
 "http://www.w3.org/TR/2001/REC-SVG-20010904/DTD/svg10.dtd">
<svg version="1.0" xmlns="http://www.w3.org/2000/svg"
 width="1100.000000pt" height="2850.000000pt" viewBox="0 0 1100.000000 2850.000000"
 preserveAspectRatio="xMidYMid meet">
<metadata>
Created by potrace 1.15, written by Peter Selinger 2001-2017
</metadata>
<g transform="translate(0.000000,2850.000000) scale(0.500000,-0.500000)"
fill="#000000" stroke="none">
<path d="M268 3836 c-24 -5 -31 -17 -36 -65 -1 -13 -4 -42 -7 -64 -3 -29 -4
-43 -3 -52 4 -27 2 -41 -8 -62 -5 -10 -8 -24 -12 -51 -2 -16 -4 -31 -5 -34 0
-3 -1 -9 -2 -13 -1 -4 -2 -15 -4 -24 -2 -9 -3 -19 -4 -22 0 -3 -2 -14 -4 -24
-1 -10 -3 -21 -4 -25 -4 -26 -7 -36 -12 -45 -5 -9 -6 -10 -17 -14 -16 -5 -17
-5 -43 5 -20 8 -22 8 -44 8 -28 0 -38 -4 -45 -17 -7 -13 -7 -19 3 -49 12 -35
17 -44 32 -51 12 -6 13 -6 48 -7 l36 0 6 -6 c4 -3 6 -6 5 -6 -1 -1 -7 -33 -19
-98 -3 -16 -22 -108 -31 -154 -12 -56 -14 -74 -9 -79 10 -10 20 -12 33 -8 18
7 36 3 41 -8 7 -12 3 -36 -6 -40 -9 -4 -18 -5 -27 -3 -9 2 -13 5 -20 13 -2 3
-5 3 -17 3 -15 -1 -23 -6 -26 -15 -1 -4 -6 -27 -8 -34 0 -2 -1 -6 -2 -8 0 -2
-1 -6 -2 -8 -1 -7 -2 -9 -10 -39 -12 -43 -12 -42 -9 -53 2 -10 12 -29 15 -29
1 0 5 -3 8 -6 4 -3 10 -8 15 -12 5 -4 14 -11 20 -17 6 -5 18 -16 27 -24 19
-16 76 -73 104 -103 22 -25 28 -29 52 -32 26 -4 25 -2 24 -52 -1 -22 -1 -45
-1 -51 -1 -6 1 -11 3 -15 5 -5 22 -16 27 -16 11 0 17 -24 8 -33 -7 -7 -24 -11
-24 -5 0 3 -18 10 -28 10 -18 0 -23 -4 -30 -22 -4 -9 -10 -21 -13 -26 -4 -6
-7 -14 -9 -24 -3 -17 -9 -30 -14 -34 -12 -8 -27 -24 -35 -38 -5 -8 -10 -15
-11 -16 -1 -1 -3 -4 -5 -7 -4 -7 -45 -63 -47 -65 0 -1 -5 -7 -11 -14 -5 -7
-10 -13 -11 -14 -4 -3 -20 -24 -22 -28 -5 -9 -3 -23 4 -38 6 -14 8 -23 6 -35
-2 -8 -8 -17 -12 -17 -8 -1 -12 -2 -20 -5 -9 -4 -17 -10 -14 -12 1 -1 2 0 3 1
0 2 0 0 0 -3 1 -10 2 -16 4 -18 1 -2 1 -4 0 -5 -1 -1 4 -2 13 -2 7 0 14 1 14
2 1 1 6 5 12 10 10 7 13 9 29 16 7 3 63 40 81 54 7 6 16 13 20 16 7 5 17 14
31 30 7 8 29 24 32 24 5 0 89 82 119 116 26 30 29 32 34 31 7 -2 11 -7 17 -22
11 -30 26 -46 54 -60 l17 -9 24 0 c21 0 24 0 40 -6 19 -7 28 -8 38 -3 11 5 14
9 17 24 l2 13 -6 5 c-8 7 -24 11 -41 12 -17 0 -22 4 -22 16 0 11 6 17 17 17 5
0 9 -1 10 -2 3 -3 23 -8 33 -8 5 0 14 2 18 4 10 4 22 4 30 1 19 -8 20 -38 2
-57 -15 -15 -19 -22 -31 -49 -14 -31 -34 -73 -49 -99 -10 -17 -10 -19 -9 -30
1 -18 8 -27 30 -41 11 -7 34 -5 43 3 2 1 11 8 22 16 43 33 107 91 139 128 5 6
12 13 14 16 2 3 10 13 18 22 7 9 14 18 15 19 14 18 15 28 7 52 -3 8 -5 18 -5
21 0 7 8 16 13 16 26 0 42 5 51 14 2 2 7 11 11 18 8 15 14 19 25 17 34 -6 40
-3 80 43 3 3 9 10 15 17 5 6 11 14 13 16 1 2 3 4 4 5 1 1 8 9 16 19 7 10 15
19 16 20 9 12 12 18 12 29 -1 15 -5 20 -22 29 -7 4 -16 10 -19 13 -14 15 -21
21 -36 28 -21 10 -24 14 -23 30 2 17 9 23 27 22 9 0 15 -5 23 -18 12 -21 23
-28 48 -29 9 -1 20 -2 23 -3 8 -2 21 -1 31 2 12 4 21 16 47 61 3 5 6 8 7 9 3
1 8 -4 10 -10 3 -8 14 -101 14 -126 1 -18 9 -38 20 -50 21 -22 60 -45 88 -53
29 -7 71 0 89 15 11 9 43 44 48 52 2 2 5 4 7 4 7 0 10 -8 18 -43 11 -52 27
-110 37 -134 1 -3 2 -6 2 -7 -1 -1 1 -5 4 -10 l4 -9 16 -1 17 0 7 11 c17 25
32 37 47 37 6 0 9 -1 12 -5 9 -12 2 -31 -17 -52 -11 -11 -11 -11 -11 -23 0
-13 3 -22 10 -26 7 -6 10 -13 10 -23 0 -10 -1 -12 -14 -36 -3 -6 -4 -20 -2
-27 3 -11 39 -52 61 -70 48 -39 107 -57 153 -47 3 0 8 1 11 2 30 6 61 25 77
47 20 27 29 61 27 108 -2 46 -7 69 -20 84 -12 14 -15 30 -11 61 1 9 2 26 3 38
0 12 3 55 6 96 6 78 6 83 -3 94 -5 6 -19 14 -28 16 -7 1 -18 9 -23 14 -1 2 -6
4 -10 7 -16 9 -33 1 -45 -21 -7 -14 -13 -16 -17 -5 -5 12 -16 69 -24 121 0 2
-1 9 -2 14 -2 16 -6 27 -15 44 -7 15 -8 18 -8 30 0 13 0 18 -3 28 -3 8 -7 17
-10 18 -2 1 -3 3 -3 4 0 1 -1 4 -3 5 -7 6 -3 19 10 35 4 4 8 12 10 18 4 11 4
11 1 65 -2 41 -4 80 -5 131 -1 19 -2 37 -3 40 -3 8 -10 11 -24 10 -7 0 -12 1
-13 2 0 1 -1 1 -1 -1 0 -5 -11 -10 -22 -10 -9 0 -11 1 -16 6 -3 3 -6 7 -6 9 0
2 -1 6 -3 10 -1 3 -4 9 -5 12 -3 8 -12 16 -28 24 -14 8 -16 12 -15 29 0 17 6
22 24 22 15 0 22 -4 24 -16 4 -20 15 -39 27 -45 13 -7 35 0 47 13 12 16 14 38
14 184 0 25 -3 35 -13 46 -14 16 -15 30 -3 41 14 13 21 30 22 55 1 10 1 24 2
31 0 7 1 22 2 34 1 12 2 23 2 24 1 6 10 15 17 18 58 24 79 48 66 76 -4 8 -44
44 -98 87 -5 4 -20 17 -35 29 -27 23 -74 63 -88 74 -4 3 -9 7 -10 8 -13 12
-24 19 -32 19 -18 0 -23 -5 -29 -27 -4 -15 -6 -17 -17 -21 -19 -6 -33 -14 -42
-26 -6 -6 -16 -18 -24 -26 -7 -8 -16 -18 -18 -22 -3 -4 -10 -9 -16 -12 l-9 -5
-183 0 c-202 0 -183 -1 -223 13 -23 9 -30 9 -56 3 -17 -4 -33 0 -41 10 -13 18
-28 31 -42 36 -6 2 -12 4 -14 5 -2 1 -11 4 -19 7 -8 3 -24 8 -35 12 -11 4 -21
8 -22 8 -1 0 -5 1 -9 3 -8 3 -26 0 -34 -8 -10 -9 -10 -13 -10 -100 0 -75 0
-82 4 -89 4 -10 11 -15 21 -16 5 -1 10 -2 11 -3 2 -1 4 -1 5 0 1 1 4 2 8 2 22
0 18 -27 -4 -31 -11 -2 -31 -11 -35 -16 -8 -9 -10 -18 -10 -44 0 -25 -3 -37
-8 -37 -1 0 -2 -2 -2 -3 0 -3 -1 -3 -2 0 -1 2 -5 6 -8 9 -4 3 -15 12 -25 21
-46 40 -47 41 -62 41 -13 -1 -21 -6 -26 -15 -1 -3 -5 -10 -7 -16 -5 -10 -11
-17 -16 -17 -4 0 -13 4 -22 8 -2 1 -10 2 -17 2 l-13 0 -12 -12 c-6 -6 -17 -18
-25 -26 -15 -15 -24 -22 -30 -22 -4 0 -13 7 -12 8 1 1 20 97 24 117 0 3 2 13
4 21 5 24 5 35 -4 55 -11 28 -10 34 9 53 13 13 20 26 23 41 1 11 10 20 28 29
10 5 19 9 20 10 34 26 44 62 22 81 -4 4 -15 9 -22 10 -2 1 -25 4 -50 9 -25 4
-64 11 -87 15 -23 4 -70 12 -105 18 -79 14 -73 13 -81 11z m1160 -273 c4 -2 7
-6 10 -14 7 -19 16 -33 21 -33 2 0 3 -1 3 -2 0 -1 2 -5 4 -9 4 -6 4 -10 4 -28
0 -20 0 -22 -5 -26 l-4 -5 -32 8 c-41 10 -51 9 -70 -9 -4 -5 -15 -12 -24 -17
-8 -4 -16 -10 -16 -11 -1 -2 -3 -3 -4 -3 -3 0 -6 -6 -5 -8 0 -2 -16 -14 -18
-14 -3 0 -10 8 -10 11 0 1 3 8 8 17 10 21 12 31 5 44 -8 17 -14 22 -28 22 -13
1 -19 -3 -25 -17 -5 -10 -11 -67 -9 -82 2 -16 11 -27 31 -37 19 -10 23 -15 23
-31 0 -18 -7 -26 -26 -28 -20 -2 -43 -17 -43 -27 0 -2 -1 -4 -2 -5 -1 0 -2 -4
-3 -8 -1 -8 -6 -17 -10 -17 -2 0 -21 18 -43 40 -21 21 -44 44 -50 49 -21 19
-21 17 -22 101 l-1 73 6 6 6 6 77 0 77 0 20 10 c25 12 31 12 53 1 31 -15 44
-9 58 29 7 17 26 23 44 14z m-1078 -91 c5 -5 5 -15 0 -20 -9 -9 -24 -2 -24 10
0 8 6 14 14 14 3 0 8 -2 10 -4z m679 -52 c7 -10 2 -36 -10 -43 -8 -6 -18 -7
-22 -3 -9 7 -11 36 -3 46 7 9 28 8 35 0z m689 4 c5 -6 5 -12 0 -18 -7 -8 -22
-2 -22 9 0 11 15 17 22 9z m-218 -35 c12 -5 18 -21 14 -36 -5 -17 -14 -21 -50
-20 -26 0 -28 0 -33 5 -6 6 -7 19 -1 25 5 7 21 17 36 23 13 6 24 6 34 3z
m-638 -9 c5 -5 5 -11 0 -16 -10 -10 -27 5 -16 16 4 4 12 4 16 0z m-148 -82
c31 -15 34 -18 34 -29 0 -18 -18 -23 -34 -10 -5 4 -14 10 -20 14 -22 15 -26
23 -18 33 5 6 11 5 38 -8z m820 -33 c7 -4 20 -10 28 -13 21 -7 27 -15 18 -26
-4 -5 -4 -5 -30 1 -9 2 -22 3 -32 3 -18 -1 -18 -1 -24 5 -9 9 -9 24 -1 33 10
10 22 9 41 -3z m-520 2 c6 -7 6 -22 -1 -28 -6 -7 -19 -7 -29 -1 -6 3 -11 3
-19 3 -14 -1 -19 -4 -26 -16 -3 -5 -7 -10 -10 -12 -5 -3 -5 -3 -11 1 -7 6 -9
13 -7 32 1 16 6 22 17 22 4 0 8 -1 10 -2 4 -5 33 -3 43 1 16 8 26 7 33 0z
m-522 -42 c5 -5 5 -6 4 -20 -1 -7 -2 -19 -3 -26 -1 -15 -8 -75 -12 -104 -2
-12 -3 -25 -4 -29 0 -4 -1 -10 -2 -14 0 -4 -1 -11 -2 -16 -1 -11 -14 -85 -19
-114 -6 -31 -6 -34 -3 -44 4 -12 11 -19 28 -26 17 -7 21 -12 21 -22 0 -14 -4
-17 -29 -17 -34 0 -40 -5 -48 -42 -7 -27 -7 -31 -5 -42 1 -6 3 -15 4 -21 4
-16 2 -21 -13 -35 -19 -18 -24 -19 -51 -5 -24 12 -29 18 -27 32 3 20 -1 32
-14 37 -4 2 -9 4 -9 4 -1 -1 -2 0 -2 1 0 1 -1 2 -1 2 -1 0 -5 0 -10 0 -23 0
-23 36 1 36 4 0 9 -1 11 -3 5 -3 24 -4 32 -1 17 6 18 15 9 44 -8 24 -8 26 3
36 26 25 27 26 35 61 8 34 6 45 -12 62 -17 15 -24 32 -23 55 1 21 4 23 29 25
34 2 42 10 51 54 4 20 7 37 9 49 1 8 5 27 9 41 4 14 7 28 7 31 2 14 26 21 36
11z m583 -49 c4 -3 11 -7 14 -9 6 -5 16 -8 32 -10 14 -2 18 -6 15 -16 -1 -4
-5 -9 -8 -11 -16 -11 -28 -25 -28 -35 0 -4 -1 -5 -2 -3 -1 1 -2 1 -5 -2 -4 -4
-4 -4 -8 0 -2 2 -3 5 -3 5 0 3 -16 25 -22 29 -4 3 -10 10 -14 16 -20 27 -1 51
29 36z m-814 -18 c5 -5 6 -7 6 -16 0 -15 -8 -23 -23 -23 -9 0 -11 1 -16 7 -9
8 -9 23 -1 32 9 9 24 9 34 0z m1006 -21 c6 -4 6 -6 6 -20 0 -14 0 -16 -6 -20
-4 -4 -7 -5 -18 -5 -11 0 -14 1 -18 5 -6 4 -6 6 -6 20 0 14 0 16 6 20 4 4 7 5
18 5 11 0 14 -1 18 -5z m-284 -63 c5 -5 6 -7 6 -16 0 -15 -8 -23 -23 -23 -9 0
-11 1 -16 7 -9 8 -9 23 -1 32 9 9 24 9 34 0z m487 -43 c2 -28 3 -37 7 -49 9
-30 9 -31 2 -59 -4 -16 -5 -25 -5 -39 1 -28 0 -29 -5 -35 -4 -5 -5 -5 -5 -2 0
2 -7 18 -16 36 -22 43 -23 48 -8 91 12 36 12 38 0 64 -7 16 -7 21 2 29 3 4 9
8 11 8 3 1 5 3 5 5 0 2 2 -1 5 -6 6 -9 6 -11 7 -43z m-346 -34 c8 -23 15 -28
39 -33 14 -3 19 -5 19 -11 0 -5 -5 -14 -13 -22 -7 -8 -20 -30 -23 -42 -5 -14
-28 -108 -28 -112 0 -11 5 -20 18 -33 11 -12 14 -15 14 -20 0 -8 -7 -16 -14
-16 -15 0 -34 -10 -41 -21 -3 -4 -6 -8 -6 -9 -1 0 -2 0 -4 2 -2 2 -1 2 1 1 2
-1 1 0 -1 2 -4 3 -5 17 -3 42 3 26 5 95 5 146 l0 48 -6 10 c-5 9 -8 11 -23 18
-21 11 -24 14 -24 29 0 15 3 18 21 27 8 4 17 10 20 12 7 7 13 20 13 29 0 9 6
24 8 23 1 -1 2 0 2 1 0 2 5 -11 11 -28 6 -17 13 -36 15 -43z m209 52 c3 -5 3
-5 0 -10 -2 -3 -5 -5 -7 -5 -2 0 -5 2 -7 5 -3 5 -3 5 0 10 2 3 5 5 7 5 2 0 5
-2 7 -5z m-560 -179 c-1 -123 -1 -122 9 -133 5 -5 27 -17 32 -17 7 0 12 -9 12
-19 0 -11 -5 -18 -16 -20 -19 -3 -36 -15 -40 -30 -4 -13 4 -36 15 -47 9 -10
13 -31 7 -42 -1 -3 -7 -10 -13 -16 -14 -14 -20 -29 -22 -48 -1 -8 -2 -22 -3
-30 -1 -8 -2 -20 -3 -26 -1 -6 -2 -13 -2 -16 -1 -3 -2 -9 -2 -13 -2 -15 -3
-24 -4 -29 -1 -3 -1 -8 -2 -12 -1 -10 -7 -22 -11 -23 -3 -1 -8 2 -8 5 0 4 -31
48 -46 65 -18 21 -38 39 -49 46 -7 4 -14 10 -16 13 -3 6 -3 7 0 14 2 4 7 10
11 13 13 11 15 15 24 34 14 30 47 115 52 134 1 3 3 10 5 15 2 5 4 18 5 28 2
20 6 33 12 42 7 9 13 27 18 46 2 10 7 31 10 45 l7 26 -5 18 c-3 13 -5 23 -4
33 0 17 -3 41 -6 43 -1 1 -2 4 -2 8 0 7 7 15 18 19 3 1 6 4 6 5 0 1 3 -2 6 -7
l6 -9 -1 -115z m112 115 c5 -8 1 -16 -8 -16 -9 0 -13 8 -8 16 2 3 5 5 8 5 3 0
6 -2 8 -5z m428 -4 c12 -12 3 -31 -13 -31 -11 0 -18 7 -18 18 0 11 7 18 18 18
6 0 9 -1 13 -5z m-669 -22 c3 -3 4 -7 4 -14 0 -13 -6 -19 -19 -19 -13 0 -19 6
-19 19 0 7 1 11 4 14 7 8 23 8 30 0z m293 -55 c10 -9 3 -26 -10 -26 -8 0 -15
7 -15 15 0 13 16 20 25 11z m393 -22 c5 -5 5 -11 0 -16 -10 -10 -27 5 -16 16
4 4 12 4 16 0z m364 -50 c5 -5 6 -7 6 -17 0 -10 -1 -12 -6 -17 -5 -5 -7 -6
-17 -6 -10 0 -12 1 -17 6 -5 5 -6 7 -6 17 0 10 1 12 6 17 5 5 7 6 17 6 10 0
12 -1 17 -6z m-831 -1 c3 -5 3 -5 0 -10 -2 -3 -5 -5 -7 -5 -2 0 -5 2 -7 5 -3
5 -3 5 0 10 2 3 5 5 7 5 2 0 5 -2 7 -5z m407 -16 l-5 -5 -4 4 -5 5 4 4 5 5 4
-4 5 -5 -4 -4z m-317 -30 c3 -5 3 -5 0 -10 -2 -3 -5 -5 -7 -5 -2 0 -5 2 -7 5
-3 5 -3 5 0 10 2 3 5 5 7 5 2 0 5 -2 7 -5z m340 -75 c2 -1 9 -10 14 -18 5 -8
12 -16 16 -19 9 -7 13 -15 13 -28 0 -10 -1 -12 -6 -17 -6 -6 -7 -6 -21 -6 -9
0 -17 5 -19 12 -8 24 -12 39 -17 49 -6 14 -6 20 -1 26 6 6 15 6 21 1z m-264
-6 c7 -6 7 -19 1 -25 -6 -7 -19 -7 -25 -1 -7 6 -7 19 -1 25 6 7 19 7 25 1z
m616 -17 c3 -3 3 -3 0 -6 -3 -3 -3 -3 -6 0 -3 2 -3 3 -1 6 4 4 4 4 7 0z
m-1160 -24 c3 -3 3 -3 0 -6 -3 -3 -3 -3 -6 0 -3 2 -3 3 -1 6 4 4 4 4 7 0z
m956 -26 c4 -3 6 -7 7 -14 1 -11 -1 -17 -8 -26 -4 -3 -6 -7 -6 -8 0 -2 -1 -3
-2 -3 -2 0 -14 -30 -14 -35 0 -7 -9 -13 -20 -13 -20 0 -27 18 -14 39 10 17 18
38 18 50 0 2 3 6 6 9 8 8 25 9 33 1z m-1258 -14 c3 -3 3 -3 0 -6 -3 -3 -3 -3
-6 0 -3 2 -3 3 -1 6 4 4 4 4 7 0z m804 -9 c5 -5 6 -7 6 -16 0 -15 -8 -23 -23
-23 -9 0 -11 1 -16 7 -9 8 -9 23 -1 32 9 9 24 9 34 0z m689 -20 c5 -5 5 -11 0
-16 -10 -10 -27 5 -16 16 4 4 12 4 16 0z m-150 -4 c4 -2 16 -18 20 -26 6 -12
12 -23 19 -31 11 -11 24 -27 25 -30 5 -9 3 -29 -4 -35 -5 -6 -18 -8 -28 -6 -9
2 -14 6 -32 28 -4 5 -8 10 -9 11 -4 4 -17 22 -20 28 -2 3 -4 7 -5 9 -14 22
-12 48 5 54 7 2 24 1 29 -2z m-383 -42 c2 -3 3 -8 3 -15 0 -13 -6 -21 -15 -21
-22 -1 -27 3 -27 20 0 8 1 13 4 16 7 9 27 9 35 0z m-603 -25 c0 1 2 -1 4 -3 3
-3 4 -6 3 -17 -1 -14 0 -25 8 -54 5 -23 6 -26 12 -38 5 -11 6 -15 8 -40 0 -5
1 -11 2 -13 2 -5 22 -9 45 -8 18 0 20 0 25 -5 6 -4 6 -5 7 -28 1 -13 3 -29 5
-35 6 -19 6 -28 1 -33 -9 -9 -30 -4 -30 7 0 5 -7 27 -12 35 -5 10 -10 15 -22
22 -7 4 -12 8 -12 9 0 1 -2 4 -5 7 -3 3 -6 7 -6 9 -1 7 -4 11 -10 12 -22 1
-25 1 -39 -5 -27 -14 -46 -7 -46 15 0 12 2 17 14 28 10 8 12 12 13 22 1 4 2 9
2 11 0 2 -1 8 -2 12 -2 4 -4 15 -4 23 0 14 -6 32 -10 34 -4 2 -13 16 -13 21 0
10 5 13 28 13 12 1 24 0 28 0 3 -1 6 -1 6 -1z m1109 -150 c22 -12 23 -50 2
-51 -23 -1 -35 9 -37 33 0 12 0 13 5 18 6 7 19 7 30 0z m-709 -29 c8 -8 15
-14 16 -14 1 0 2 -1 2 -1 0 -1 3 -4 6 -6 12 -8 16 -29 8 -40 -9 -10 -20 -10
-43 0 -22 10 -24 11 -33 13 -12 4 -16 10 -16 21 0 13 13 32 26 38 14 6 18 4
34 -11z m797 -8 c5 -5 7 -20 3 -23 -3 -2 3 -21 7 -21 1 0 4 -1 5 -3 1 -1 6 -4
12 -6 18 -7 23 -18 14 -34 -5 -7 -25 -25 -29 -25 -2 0 -4 -2 -5 -3 -4 -8 -32
0 -35 10 0 2 -1 9 -1 15 0 11 0 11 16 25 3 2 4 6 4 15 0 13 -3 20 -11 28 -6 6
-7 15 -1 21 6 6 15 6 21 1z m-1179 -51 c3 -4 4 -8 4 -15 0 -14 -6 -20 -20 -20
-14 0 -20 6 -20 20 0 14 6 20 21 20 9 0 11 -1 15 -5z m-86 -13 c5 -5 6 -7 6
-17 0 -13 -5 -20 -16 -23 -17 -5 -30 5 -30 24 0 15 7 22 23 22 10 0 12 -1 17
-6z m-152 -25 c5 -6 6 -8 6 -18 0 -10 -1 -12 -6 -17 -5 -5 -7 -6 -17 -6 -10 0
-12 1 -17 6 -3 3 -6 8 -6 10 0 3 -1 7 -1 10 -1 8 5 16 17 21 12 5 12 5 24 -6z
m1579 2 c6 -4 6 -6 6 -20 0 -14 0 -16 -6 -20 -4 -4 -7 -5 -18 -5 -11 0 -14 1
-18 5 -6 4 -6 6 -6 20 0 14 0 16 6 20 4 4 7 5 18 5 11 0 14 -1 18 -5z m-135
-73 c8 -10 2 -24 -10 -24 -13 0 -19 15 -9 25 6 6 13 6 19 -1z"/>
<path d="M1899 2591 c-6 -8 -8 -15 -14 -38 -6 -23 -6 -27 -2 -44 5 -21 17 -32
34 -31 13 1 17 2 17 4 0 1 4 9 8 18 15 30 15 47 -4 89 l-4 9 -15 0 c-16 0 -16
0 -20 -7z"/>
<path d="M1614 2130 c0 -2 -1 -2 -3 -1 -2 0 -3 0 -2 -1 1 -1 0 -2 -1 -2 -1 0
-2 -1 0 -4 2 -5 16 -11 18 -9 2 3 0 15 -2 14 -1 -1 -2 0 -2 1 -1 3 -8 4 -8 2z"/>
</g>
</svg>
