<?xml version="1.0" standalone="no"?>
<!DOCTYPE svg PUBLIC "-//W3C//DTD SVG 20010904//EN"
 "http://www.w3.org/TR/2001/REC-SVG-20010904/DTD/svg10.dtd">
<svg version="1.0" xmlns="http://www.w3.org/2000/svg"
 width="1100.000000pt" height="2850.000000pt" viewBox="0 0 1100.000000 2850.000000"
 preserveAspectRatio="xMidYMid meet">
<metadata>
Created by potrace 1.15, written by Peter Selinger 2001-2017
</metadata>
<g transform="translate(0.000000,2850.000000) scale(0.500000,-0.500000)"
fill="#000000" stroke="none">
<path d="M1164 3831 c-18 -6 -26 -20 -27 -47 -2 -38 -3 -72 -4 -81 -1 -5 -2
-24 -3 -41 -3 -42 -3 -46 -8 -97 l-4 -43 4 -21 c5 -25 5 -29 -7 -54 -7 -15
-10 -23 -11 -35 -3 -26 -4 -28 -12 -35 -3 -3 -4 -3 -10 3 -4 3 -15 9 -24 14
-20 9 -27 14 -32 25 -10 21 -22 35 -59 69 l-16 14 -14 0 c-12 -1 -16 -2 -20
-6 -2 -2 -5 -4 -6 -4 -2 0 -4 -1 -5 -3 -3 -4 -14 -4 -19 0 -4 3 -9 18 -7 20 1
1 4 6 7 12 3 5 5 8 5 7 1 -2 1 2 2 8 1 14 0 16 -11 16 -13 0 -16 -2 -21 -10
-2 -4 -6 -8 -8 -9 -2 -1 -5 -3 -6 -6 -1 -3 -4 -5 -6 -5 -2 0 -5 -1 -6 -3 -2
-1 -6 -4 -10 -7 -8 -4 -24 -24 -24 -29 0 -4 -8 4 -10 11 -1 2 -2 38 -2 80 0
76 -1 81 -8 91 -4 5 -25 17 -33 18 -8 2 -15 6 -17 12 -2 5 -6 27 -6 32 0 3 -2
7 -5 9 -5 5 -25 16 -31 17 -4 1 -12 10 -12 15 0 9 -10 30 -18 37 -9 8 -17 10
-37 12 -17 1 -27 -1 -37 -8 -6 -5 -24 -30 -24 -34 0 -2 -1 -3 -2 -3 -4 0 -10
-21 -11 -37 -2 -20 -4 -25 -16 -29 -6 -2 -9 -2 -15 0 -12 4 -16 10 -16 24 0
11 0 12 25 33 5 4 8 8 8 9 -1 1 0 2 1 2 3 1 6 21 4 24 -1 1 -4 4 -6 8 -5 12
-17 18 -37 20 -20 3 -31 1 -42 -9 -12 -10 -13 -17 -13 -71 l0 -49 -6 -5 c-5
-5 -6 -5 -15 -3 -17 5 -35 -4 -44 -21 -3 -5 -12 -14 -15 -14 -4 0 -14 8 -18
14 -16 30 -44 47 -86 53 -5 0 -12 2 -16 3 -5 1 -12 2 -16 3 -3 1 -12 2 -20 4
-20 4 -33 1 -43 -9 -9 -9 -11 -18 -12 -48 -1 -16 -1 -35 -2 -42 0 -7 -1 -24
-2 -37 -1 -13 -2 -25 -2 -26 -1 -4 5 -25 7 -25 1 0 2 -1 2 -3 0 -3 9 -11 22
-19 20 -12 20 -31 0 -71 -5 -10 -10 -17 -17 -23 -10 -8 -27 -31 -27 -36 0 -1
-3 -10 -6 -20 -3 -10 -6 -22 -7 -28 -1 -5 -2 -11 -2 -13 -1 -2 -3 -14 -5 -26
-9 -48 -21 -108 -28 -136 -2 -9 -4 -18 -5 -20 -5 -25 -29 -107 -43 -147 -12
-33 -9 -49 9 -58 7 -4 17 -13 17 -17 0 -4 -9 -13 -15 -16 -9 -4 -17 -12 -19
-19 -3 -7 -4 -20 -2 -20 1 0 2 -1 2 -3 0 -4 10 -18 15 -23 9 -8 20 -10 51 -10
33 -1 32 -1 42 9 5 4 13 27 12 32 0 6 7 13 14 13 7 0 14 -7 14 -13 -1 -4 7
-26 11 -31 6 -8 14 -11 33 -12 11 0 20 0 20 0 0 1 3 -1 7 -5 3 -3 6 -7 5 -8 0
0 -1 -36 -1 -78 -1 -42 -2 -80 -3 -86 -6 -31 -9 -83 -6 -103 3 -27 3 -32 -7
-56 -5 -15 -10 -30 -12 -45 -4 -27 -14 -76 -19 -98 -2 -9 -4 -18 -5 -21 0 -3
-1 -6 -2 -8 0 -2 -1 -5 -2 -8 -1 -8 -16 -59 -24 -83 -31 -98 -73 -185 -123
-261 -22 -32 -24 -36 -23 -50 0 -14 9 -30 22 -40 9 -8 27 -11 37 -6 7 4 59 40
72 51 2 1 10 7 18 14 8 6 19 15 24 20 5 4 15 14 23 20 19 17 66 65 81 83 7 8
15 17 17 19 2 2 8 9 13 16 5 7 9 12 10 13 1 1 28 38 36 50 33 48 88 148 102
186 2 6 6 14 8 19 7 16 28 73 31 85 0 1 1 4 3 7 26 62 70 266 77 356 0 8 8 16
13 13 10 -6 11 -7 11 -25 0 -9 -2 -22 -4 -28 -2 -9 -3 -21 -3 -40 0 -40 3 -46
28 -55 6 -2 14 -4 17 -4 12 0 20 -8 25 -26 2 -8 2 -9 -2 -13 -4 -4 -6 -5 -22
-5 -13 0 -20 -1 -24 -3 -15 -8 -25 -26 -20 -40 2 -7 11 -18 16 -19 15 -4 19
-5 20 -7 1 -1 2 -1 2 0 0 4 16 0 20 -5 8 -10 4 -27 -8 -38 -5 -4 -15 -21 -20
-35 -5 -16 -8 -31 -8 -51 0 -23 -1 -26 -13 -43 -3 -3 -8 -16 -12 -28 -5 -13
-10 -25 -13 -29 -7 -8 -26 -23 -33 -27 -7 -3 -7 -3 -7 -19 0 -17 -1 -15 16
-31 6 -6 7 -8 6 -21 0 -5 -6 -15 -14 -24 -7 -7 -11 -36 -6 -39 2 -1 29 -46 33
-53 0 -2 3 -5 5 -8 3 -6 10 -18 43 -72 25 -43 28 -47 43 -54 13 -6 26 -6 36
-1 15 8 35 15 42 15 9 0 23 3 31 7 10 5 17 14 28 38 10 22 22 42 28 50 2 2 3
5 3 6 0 4 17 19 25 23 3 2 10 6 14 8 12 8 93 90 166 167 16 17 17 21 19 43 1
22 3 27 13 29 14 2 28 11 39 24 6 8 13 14 22 19 l13 7 -1 14 c0 17 -2 19 -20
28 -14 6 -15 8 -21 26 -4 10 -14 22 -20 23 -18 1 -15 2 -66 -22 -14 -7 -26
-12 -26 -12 0 0 -11 -5 -24 -11 -25 -12 -43 -15 -60 -12 -14 3 -13 17 3 25 9
5 18 14 21 22 2 5 3 27 3 68 0 60 0 61 -4 70 -6 11 -21 19 -40 22 -17 2 -22 7
-22 23 0 14 4 19 20 25 31 11 36 15 43 37 3 7 3 16 3 42 l-1 32 6 6 c4 4 7 6
8 6 0 -1 7 0 14 1 18 3 38 3 55 0 18 -3 64 -2 80 1 25 5 50 22 59 39 6 11 7
12 13 6 4 -5 6 -14 13 -57 10 -58 19 -104 25 -133 2 -10 6 -25 7 -32 6 -27 21
-84 25 -93 3 -5 11 -16 18 -23 17 -17 18 -19 18 -31 0 -10 -5 -26 -10 -32 -3
-3 -14 -20 -22 -34 -4 -7 -8 -13 -9 -15 -1 -2 -4 -7 -6 -11 -5 -8 -44 -68 -57
-85 -8 -12 -10 -25 -5 -44 6 -24 3 -28 -22 -28 -22 -1 -34 -5 -44 -18 -15 -17
-16 -21 -25 -59 -3 -9 -8 -14 -18 -17 -16 -4 -35 -10 -39 -13 -3 -1 -13 -9
-22 -18 -10 -9 -26 -23 -36 -32 -16 -14 -23 -20 -42 -35 -2 -2 -4 -4 -6 -5 -4
-4 -66 -50 -78 -58 -7 -4 -12 -8 -13 -9 -1 -1 -22 -15 -51 -34 -35 -22 -37
-24 -37 -45 0 -8 1 -12 5 -18 17 -25 35 -33 58 -25 7 2 17 6 22 7 6 2 11 4 12
5 1 1 3 2 4 2 2 0 11 3 22 7 10 4 24 10 31 12 7 3 26 11 42 18 51 21 53 24 53
59 -1 27 1 31 13 34 12 2 19 -1 31 -13 6 -6 14 -12 17 -13 9 -4 23 -3 30 2 3
2 6 4 7 4 1 0 12 6 24 13 12 7 22 13 22 13 2 0 42 26 73 46 38 25 50 35 61 51
5 5 9 11 11 13 4 3 27 14 30 14 3 0 28 19 46 36 22 20 22 20 42 19 9 -1 24 -1
34 -2 20 -1 30 -6 34 -19 3 -11 3 -16 -3 -26 -15 -27 -15 -35 -2 -55 5 -8 10
-15 12 -16 1 -1 5 -6 8 -10 11 -14 35 -42 45 -53 35 -38 36 -38 52 -38 7 0 14
2 23 6 19 10 35 9 42 -3 4 -6 3 -24 -2 -37 -2 -7 -3 -10 -1 -20 3 -20 16 -30
45 -36 7 -1 16 -3 21 -4 8 -2 12 -2 22 1 22 5 23 7 37 46 9 26 24 55 35 70 15
20 44 48 66 62 10 7 21 15 22 17 4 6 12 32 12 39 0 8 8 15 17 15 9 0 17 -4 27
-14 7 -8 8 -8 21 -8 12 0 13 0 19 7 9 11 14 24 13 34 -1 11 -5 21 -7 21 -1 0
-2 2 -3 4 -1 2 -3 4 -4 4 -2 0 -3 1 -3 2 0 1 -27 14 -40 19 -13 5 -92 44 -118
59 -32 18 -43 25 -76 48 -24 16 -37 25 -74 54 -4 3 -13 10 -21 17 -8 7 -16 13
-18 15 -7 3 -29 3 -39 -1 -13 -4 -21 -4 -27 2 -9 9 -6 23 6 36 4 4 8 9 9 11 3
6 2 25 -1 30 -13 17 -15 34 -6 43 3 3 7 5 10 5 3 0 11 0 18 0 18 0 30 5 38 14
6 7 38 69 50 97 3 7 7 16 9 20 9 18 45 110 47 118 0 1 2 7 5 14 3 7 4 14 3 17
-1 3 -2 7 -2 10 -1 6 -6 12 -12 17 -10 7 -19 18 -19 22 0 8 6 13 15 13 11 -1
31 5 37 11 7 7 11 17 23 65 15 61 36 163 40 198 1 6 2 12 2 15 1 4 6 36 8 54
1 7 3 12 7 16 5 5 5 5 32 5 33 0 47 2 65 11 24 11 41 33 41 52 0 17 -12 33
-49 64 -4 3 -10 8 -13 11 -4 4 -12 11 -19 17 -7 5 -17 14 -22 19 -6 5 -13 11
-15 13 -6 4 -18 15 -42 35 -8 7 -24 21 -36 30 -12 9 -21 17 -22 18 -1 1 -5 5
-11 9 -5 4 -10 9 -11 9 -1 1 -6 5 -12 10 -10 7 -11 8 -23 8 -15 0 -22 -4 -34
-21 -6 -7 -20 -27 -33 -44 -13 -17 -32 -43 -42 -57 -17 -22 -28 -40 -25 -40 1
0 0 -3 -2 -6 -5 -10 -10 -12 -35 -13 -31 -2 -39 -2 -42 -4 -2 -1 -4 -2 -5 -2
-3 0 -4 -29 -1 -31 2 -1 -1 -2 -6 -2 -5 0 -8 1 -6 2 1 1 2 6 2 16 -1 8 -2 15
-2 14 -1 -1 -3 0 -5 2 -4 3 -5 3 -47 4 l-35 0 -7 6 c-3 3 -5 6 -4 6 1 0 4 8 8
18 4 9 9 21 11 25 4 7 5 12 5 23 0 9 -1 14 -2 12 -1 -1 -5 -2 -11 -2 -7 1 -10
0 -14 -4 -2 -2 -5 -4 -5 -3 -1 1 -2 -1 -3 -3 -1 -2 -2 -4 -3 -4 -1 0 -2 -2 -3
-4 -2 -6 -13 -12 -22 -12 -20 0 -25 15 -13 39 4 8 7 14 8 15 0 1 3 6 6 12 6
12 12 17 20 18 14 1 17 0 26 -10 6 -6 10 -10 10 -8 0 3 15 3 20 0 3 -1 5 -1 9
3 6 6 7 21 2 35 -8 27 -8 33 2 54 3 6 8 19 10 30 6 22 8 24 26 29 35 9 59 21
73 37 12 13 12 13 19 26 9 18 4 37 -13 47 -8 4 -58 16 -126 30 -15 3 -154 33
-213 46 -51 11 -52 11 -63 8z m186 -140 c12 -5 18 -21 14 -35 -4 -14 -11 -20
-25 -21 -18 -1 -40 -13 -48 -26 -8 -11 -30 -16 -45 -9 -8 4 -13 22 -10 34 4
14 11 20 25 21 18 1 40 13 48 26 8 11 27 15 41 10z m-744 -20 c3 -2 7 -7 10
-10 8 -9 25 -25 28 -26 5 -1 10 -12 10 -19 0 -17 -16 -21 -34 -9 -6 4 -21 12
-34 18 -21 11 -24 12 -36 12 -18 0 -22 -4 -26 -23 -3 -16 -1 -21 11 -38 16
-23 19 -36 10 -45 -10 -10 -23 -6 -41 12 -15 16 -21 21 -45 32 -27 13 -29 16
-29 28 0 14 6 20 19 19 35 -2 42 1 50 17 3 6 5 12 5 14 0 1 2 4 4 6 3 3 8 4
29 4 22 0 25 0 34 5 12 7 28 8 35 3z m618 -110 c3 -3 4 -7 4 -14 0 -13 -6 -19
-19 -19 -13 0 -19 6 -19 19 0 14 5 19 19 19 8 0 11 -1 15 -5z m-859 -69 c4 -6
4 -24 -1 -30 -7 -9 -27 -9 -34 0 -5 6 -5 24 0 30 7 9 27 9 35 0z m376 -1 c3
-5 3 -5 0 -10 -2 -3 -5 -5 -7 -5 -2 0 -5 2 -7 5 -3 5 -3 5 0 10 2 3 5 5 7 5 2
0 5 -2 7 -5z m-306 -75 c4 0 5 -2 6 -10 1 -4 2 -7 2 -8 1 -1 0 -2 0 -2 -1 0
-4 -2 -7 -5 l-5 -4 -4 5 c-5 5 -5 5 -1 13 2 4 4 10 4 14 0 5 1 5 1 2 1 -3 3
-5 4 -5z m500 -18 c10 -9 3 -26 -10 -26 -8 0 -15 7 -15 15 0 13 16 20 25 11z
m-385 -3 c8 -1 11 -8 14 -22 2 -13 0 -33 -4 -44 -7 -15 -41 -16 -49 0 -8 14 0
50 13 62 4 3 15 7 19 6 1 0 4 -1 7 -2z m673 -16 c3 -5 3 -5 0 -10 -2 -3 -5 -5
-7 -5 -2 0 -5 2 -7 5 -3 5 -3 5 0 10 2 3 5 5 7 5 2 0 5 -2 7 -5z m-446 -31
c10 -9 3 -26 -10 -26 -8 0 -15 7 -15 15 0 13 16 20 25 11z m843 1 c8 -5 9 -10
5 -16 -4 -6 -10 -6 -16 0 -6 5 -6 8 -1 14 6 6 5 6 12 2z m-96 -32 c3 -4 8 -12
11 -21 3 -9 7 -16 7 -16 1 0 2 -1 2 -2 0 -1 6 -9 14 -16 8 -8 14 -16 14 -19 0
-2 1 -5 1 -7 0 -4 -3 -15 -6 -17 -10 -10 -35 -6 -38 7 -1 3 -2 4 -4 2 -1 -1
-9 -2 -17 -2 -8 0 -16 -1 -17 -2 -4 -2 -5 -24 -2 -56 2 -19 1 -20 -7 -45 -5
-18 -9 -35 -12 -57 -4 -32 -6 -42 -7 -49 -1 -2 -2 -12 -4 -22 -5 -26 -16 -82
-23 -110 -3 -13 -6 -28 -7 -33 -1 -5 -2 -10 -3 -11 -1 -1 -3 -8 -5 -15 -2 -7
-4 -16 -5 -19 -1 -3 -5 -15 -8 -26 -6 -20 -8 -23 -14 -26 -5 -1 -13 15 -31 60
-6 15 -12 30 -13 32 -1 2 -5 15 -10 28 -11 30 -16 40 -24 43 -8 2 -27 3 -28 0
-1 -1 -5 -4 -10 -7 -13 -8 -26 -8 -34 1 -13 12 -6 35 10 39 9 2 31 13 36 18 5
5 10 19 10 27 0 5 -4 26 -8 39 -5 18 -16 75 -17 86 -2 15 1 31 8 54 5 14 7 17
20 30 8 8 20 20 27 27 l12 13 0 16 c-1 9 0 15 1 15 4 1 -28 8 -34 8 -13 0 -20
15 -11 24 5 5 8 5 24 1 14 -4 26 -4 48 -2 16 2 16 2 22 -5 5 -5 6 -7 6 -16 0
-23 9 -41 23 -46 7 -3 36 -2 42 1 5 2 11 9 12 16 4 13 4 21 1 28 -3 11 0 25 8
32 5 4 8 5 20 5 12 0 15 -1 20 -5z m186 -27 c5 -5 6 -7 6 -17 0 -10 -1 -12 -6
-17 -5 -5 -7 -6 -17 -6 -10 0 -12 1 -17 6 -5 5 -6 7 -6 17 0 10 1 12 6 17 5 5
7 6 17 6 10 0 12 -1 17 -6z m-590 -17 c6 -5 9 -8 13 -16 3 -6 15 -21 15 -18 0
0 2 0 5 -2 4 -3 8 -3 16 -2 16 1 39 5 51 7 20 5 23 5 27 0 2 -3 3 -6 3 -8 0
-3 -12 -18 -15 -18 -1 0 -6 -4 -12 -9 -22 -21 -22 -21 -35 -21 -15 0 -18 1
-27 15 -10 16 -17 19 -33 18 -31 -1 -53 -12 -62 -29 -2 -4 -9 -32 -13 -51 -1
-4 -2 -8 -9 -36 -2 -9 -4 -18 -5 -21 -1 -7 -10 -18 -14 -18 -3 0 -7 3 -37 30
-6 6 -15 13 -18 15 -3 2 -10 8 -17 14 -10 9 -12 10 -23 11 -12 0 -27 -3 -25
-6 1 -1 0 -2 -2 -3 -1 0 -13 -15 -25 -33 -13 -18 -25 -35 -27 -38 -2 -3 -7 -9
-10 -14 -3 -5 -6 -9 -7 -10 -3 -2 -30 -42 -32 -46 -1 -3 -2 -4 -2 -2 0 1 -2 4
-4 6 -4 3 -5 6 -6 28 -1 22 -2 27 -9 44 -9 24 -9 31 0 54 l8 19 0 59 0 59 6 6
6 6 119 -1 c129 0 126 0 161 11 18 6 29 5 39 0z m-894 -12 c14 -6 19 -25 9
-35 -10 -12 -41 -13 -51 -2 -5 5 -6 7 -6 17 0 14 3 20 12 24 7 3 26 1 36 -4z
m224 -2 c4 -4 5 -10 2 -21 -10 -34 -10 -32 -10 -106 0 -68 0 -69 5 -78 5 -12
20 -19 39 -21 14 -1 19 -3 23 -10 3 -5 6 -19 3 -23 -1 -1 -1 -5 0 -9 1 -3 3
-9 4 -14 3 -11 5 -12 20 -11 12 1 15 2 21 8 13 12 17 14 29 14 15 0 22 -7 22
-22 0 -13 -4 -21 -12 -24 -22 -8 -37 -15 -42 -20 -18 -17 -19 -18 -33 -18 -19
0 -23 4 -25 27 -2 19 -5 28 -11 38 -3 5 -4 6 -10 6 -14 -2 -19 -3 -18 -5 1 -1
0 -2 -2 -2 -4 0 -23 -8 -23 -10 0 -1 -229 -1 -251 1 -10 0 -14 2 -19 6 -4 3
-5 5 -4 5 2 0 7 4 11 9 4 5 15 16 24 26 14 15 42 49 54 66 2 3 9 11 14 19 6 7
11 15 13 17 35 54 55 87 79 133 8 17 17 22 39 22 9 0 22 1 28 2 15 2 24 0 30
-5z m206 -35 c4 -1 10 -3 13 -4 15 -6 16 -41 0 -49 -8 -5 -25 -4 -33 0 -8 5
-18 22 -19 35 -1 8 -1 10 4 15 4 4 7 5 17 5 6 0 14 -1 18 -2z m978 -28 c1 0 5
-3 8 -6 5 -5 6 -7 6 -18 0 -11 -1 -13 -6 -18 -6 -6 -7 -6 -18 -6 -11 0 -12 0
-18 6 -5 5 -6 7 -6 17 0 14 3 20 12 24 5 2 8 2 22 1z m71 -73 c3 -5 3 -5 0
-10 -2 -3 -5 -5 -7 -5 -2 0 -5 2 -7 5 -3 5 -3 5 0 10 2 3 5 5 7 5 2 0 5 -2 7
-5z m-989 -39 c5 -5 6 -7 6 -17 0 -10 -1 -12 -6 -17 -5 -5 -7 -6 -17 -6 -10 0
-12 1 -17 6 -5 5 -6 7 -6 17 0 10 1 12 6 17 5 5 7 6 17 6 10 0 12 -1 17 -6z
m462 -85 c1 -4 3 -21 5 -36 3 -26 3 -29 0 -35 -2 -5 -3 -8 -4 -8 0 0 -10 10
-22 21 -29 29 -29 32 -5 58 14 14 15 15 19 12 3 -2 5 -7 7 -12z m572 -5 c5 -6
5 -12 0 -18 -7 -8 -22 -2 -22 9 0 11 15 17 22 9z m-803 -72 c7 -6 7 -19 1 -25
-6 -7 -19 -7 -25 -1 -7 6 -7 19 -1 25 6 7 19 7 25 1z m-693 -26 c5 -5 5 -11 0
-16 -10 -10 -27 5 -16 16 4 4 12 4 16 0z m444 2 c1 0 5 -3 8 -6 9 -8 8 -24 -1
-49 -6 -16 -25 -22 -37 -11 -6 4 -7 7 -7 18 -2 23 4 42 15 47 5 2 8 2 22 1z
m793 -72 c6 -6 16 -17 24 -24 13 -13 13 -13 13 -24 0 -10 -2 -15 -13 -38 -15
-30 -18 -33 -35 -33 -19 0 -27 8 -27 27 0 12 4 20 14 30 11 12 12 23 4 47 -6
16 -6 16 -2 21 6 7 12 5 22 -6z m-673 -28 c5 -5 5 -15 0 -20 -9 -9 -24 -2 -24
10 0 8 6 14 14 14 3 0 8 -2 10 -4z m-368 -34 c13 -13 -12 -50 -35 -50 -16 0
-22 16 -12 32 11 17 38 27 47 18z m1118 -94 c5 -5 6 -7 6 -17 0 -10 -1 -12 -6
-17 -5 -5 -7 -6 -17 -6 -10 0 -12 1 -17 6 -5 5 -6 7 -6 17 0 10 1 12 6 17 5 5
7 6 17 6 10 0 12 -1 17 -6z m-771 -71 c12 -12 3 -31 -13 -31 -11 0 -18 7 -18
18 0 11 7 18 18 18 6 0 9 -1 13 -5z m-439 -45 c5 -6 5 -12 0 -18 -7 -8 -22 -2
-22 9 0 11 15 17 22 9z m1096 -34 c1 0 5 -3 8 -6 7 -7 8 -18 3 -36 -3 -14 -1
-27 7 -43 3 -6 6 -13 6 -15 0 -6 -10 -23 -18 -31 -14 -15 -17 -17 -31 -17 -14
0 -19 3 -24 13 -3 6 -9 33 -9 39 0 1 4 6 10 11 14 14 18 27 15 56 -2 17 1 23
11 28 5 2 8 2 22 1z m-1051 -55 c6 -4 6 -6 6 -20 0 -14 0 -16 -6 -20 -4 -4 -7
-5 -17 -5 -7 0 -14 1 -17 2 -2 2 -13 3 -26 2 -19 0 -23 1 -25 3 -2 3 -2 4 0 4
1 1 2 2 2 4 0 1 3 3 7 5 17 7 23 11 34 20 11 10 12 10 24 10 11 0 14 -1 18 -5z
m955 0 c4 -3 10 -19 9 -24 -3 -11 -28 -15 -37 -6 -6 6 -6 21 0 28 6 7 21 8 28
2z m-506 -15 c1 0 5 -3 8 -6 5 -5 6 -7 6 -18 0 -11 -1 -13 -6 -18 -6 -6 -7 -6
-18 -6 -11 0 -12 0 -18 6 -5 5 -6 7 -6 17 0 14 3 20 12 24 5 2 8 2 22 1z m484
-66 c18 -5 22 -15 14 -33 -4 -9 -12 -16 -22 -18 -12 -3 -28 14 -37 36 -3 8 -3
9 0 14 4 5 4 5 20 4 9 0 21 -2 25 -3z m-520 -66 c5 -5 6 -7 6 -16 0 -14 -4
-20 -20 -29 -35 -21 -49 -24 -61 -13 -7 7 -8 22 -1 32 4 6 23 19 40 27 14 7
28 7 36 -1z m101 -3 c6 -4 6 -6 6 -20 0 -14 0 -16 -6 -20 -4 -4 -7 -5 -18 -5
-11 0 -14 1 -18 5 -6 4 -6 6 -6 20 0 14 0 16 6 20 4 4 7 5 18 5 11 0 14 -1 18
-5z m-654 -200 c3 -5 3 -5 0 -10 -2 -3 -5 -5 -7 -5 -2 0 -5 2 -7 5 -3 5 -3 5
0 10 2 3 5 5 7 5 2 0 5 -2 7 -5z m444 -3 c7 -6 7 -19 1 -25 -6 -7 -19 -7 -25
-1 -7 6 -7 19 -1 25 6 7 19 7 25 1z"/>
<path d="M746 3784 c0 -1 -1 -2 -3 -2 -6 0 -9 -8 -9 -21 2 -15 8 -21 26 -25
13 -2 16 -5 20 -18 3 -8 13 -20 19 -21 16 -3 21 -2 31 6 9 8 13 13 15 22 0 2
1 6 3 9 5 15 -13 24 -37 19 -13 -3 -14 -2 -18 2 -3 2 -8 9 -10 15 -3 5 -6 10
-7 10 -1 0 -2 1 -2 3 0 2 -3 3 -14 3 -8 0 -14 -1 -14 -2z"/>
<path d="M1169 2552 c-6 -6 -7 -28 -2 -37 4 -8 15 -13 31 -14 l11 -1 4 7 c6
13 6 19 -2 30 -8 13 -15 17 -27 19 -9 0 -12 0 -15 -4z"/>
</g>
</svg>
