<?xml version="1.0" standalone="no"?>
<!DOCTYPE svg PUBLIC "-//W3C//DTD SVG 20010904//EN"
 "http://www.w3.org/TR/2001/REC-SVG-20010904/DTD/svg10.dtd">
<svg version="1.0" xmlns="http://www.w3.org/2000/svg"
 width="1100.000000pt" height="2850.000000pt" viewBox="0 0 1100.000000 2850.000000"
 preserveAspectRatio="xMidYMid meet">
<metadata>
Created by potrace 1.15, written by Peter Selinger 2001-2017
</metadata>
<g transform="translate(0.000000,2850.000000) scale(0.500000,-0.500000)"
fill="#000000" stroke="none">
<path d="M1631 3864 c-6 -1 -71 -26 -78 -30 -8 -4 -10 -7 -13 -18 -3 -12 -3
-20 -1 -28 1 -6 1 -9 -2 -11 -8 -8 -17 -4 -26 11 -4 8 -10 14 -12 13 0 -1 -1
-1 -1 1 0 3 -14 6 -21 5 -8 -2 -26 -14 -33 -23 -11 -14 -22 -17 -47 -13 -22 3
-32 2 -51 -4 -5 -2 -19 -6 -32 -10 -21 -6 -24 -8 -33 -16 -6 -6 -13 -15 -17
-22 -12 -20 -22 -22 -46 -10 -26 12 -33 13 -61 4 -13 -3 -36 -9 -50 -13 -26
-6 -47 -16 -53 -23 -2 -2 -7 -9 -11 -16 -11 -17 -31 -32 -45 -33 -7 -1 -17 5
-21 13 -2 4 -6 8 -7 8 -2 1 -4 2 -4 3 0 3 -13 7 -22 7 -11 0 -30 -9 -36 -16
-3 -5 -10 -21 -15 -38 -4 -11 -12 -14 -32 -13 -3 0 -14 10 -24 22 -5 6 -11 10
-22 13 -9 2 -12 2 -49 -5 -40 -8 -54 -11 -54 -14 0 -1 -1 -2 -2 -2 -3 0 -16
-14 -16 -17 0 -5 -13 -17 -25 -23 -15 -7 -21 -14 -21 -22 0 -3 -1 -6 -2 -7 -1
-1 -2 -2 -1 -3 1 -1 0 -2 -1 -2 -1 0 -2 -1 -2 -3 0 -5 -6 -8 -18 -9 -19 -2
-26 -10 -36 -38 -11 -31 -22 -39 -29 -21 -3 8 -3 10 0 26 3 15 4 29 5 76 0 61
0 61 -11 89 -6 15 -7 30 -1 36 2 2 10 6 21 9 10 3 21 7 24 8 13 7 26 25 35 48
6 15 -1 34 -15 42 -11 7 -18 8 -59 12 -31 3 -160 15 -168 16 -66 7 -118 10
-128 7 -25 -7 -35 -49 -17 -70 4 -5 27 -16 33 -16 6 0 12 -8 12 -16 0 -8 -7
-16 -13 -16 -5 0 -26 -10 -31 -15 -9 -9 -10 -17 -10 -73 1 -56 2 -59 15 -74
13 -15 13 -25 0 -40 -14 -15 -14 -16 -14 -84 l0 -61 -6 -6 -6 -6 -90 1 c-99 0
-102 0 -112 -12 -10 -12 -10 -22 -2 -51 10 -34 15 -44 28 -52 6 -4 20 -5 27
-1 7 4 13 18 15 37 2 12 10 20 23 20 13 0 21 -8 23 -20 2 -19 8 -32 16 -38 6
-4 18 -4 26 0 30 16 37 18 48 11 6 -4 17 -16 17 -18 0 -1 1 -3 3 -4 11 -12 12
-31 2 -50 -13 -25 -13 -25 -13 -96 l0 -64 5 -11 c3 -6 8 -13 11 -15 6 -4 22
-13 26 -13 8 -2 11 -9 11 -24 0 -14 0 -16 -6 -20 -6 -6 -14 -6 -43 -3 -18 3
-20 2 -41 -3 -12 -3 -24 -6 -26 -6 -9 -2 -30 -7 -37 -9 -4 -1 -17 -4 -29 -7
-12 -3 -26 -6 -30 -7 -4 -1 -18 -4 -31 -7 -41 -9 -46 -14 -46 -44 0 -18 1 -23
10 -54 6 -19 11 -35 11 -37 4 -17 48 -165 51 -170 4 -7 16 -18 16 -15 0 1 1 1
3 -1 3 -2 18 -5 26 -4 6 0 13 -4 21 -13 6 -7 7 -7 18 -7 14 0 23 4 25 11 2 8
15 23 27 31 7 4 14 8 14 8 1 0 2 2 2 4 0 2 1 2 1 0 1 -2 4 -4 6 -6 4 -4 4 -5
5 -104 l1 -101 6 -11 c3 -6 7 -15 9 -19 6 -10 6 -18 0 -28 -16 -31 -18 -42
-18 -103 0 -25 0 -26 -5 -31 -7 -7 -19 -7 -26 0 -4 4 -5 7 -5 14 0 11 -6 30
-12 36 -8 8 -10 9 -74 12 -48 3 -54 3 -65 -4 l-9 -5 0 -15 1 -14 9 -6 c14 -11
19 -16 25 -28 2 -5 7 -13 10 -16 3 -3 5 -7 5 -7 0 -1 9 -6 20 -11 53 -27 72
-69 82 -185 5 -65 5 -65 65 -79 27 -6 35 -6 59 -1 61 12 101 28 143 56 17 11
40 33 53 51 12 16 13 28 5 53 -5 15 -5 18 -3 26 2 9 13 22 18 22 4 0 21 18 26
28 6 13 6 5 7 252 1 137 1 179 -1 185 -3 9 -12 16 -22 18 -4 1 -9 2 -11 3 -3
1 -5 1 -5 0 0 -4 -17 -2 -22 3 -6 6 -6 19 1 25 4 4 21 6 21 2 0 -1 2 -1 5 0 2
1 7 2 11 3 10 1 17 8 21 16 4 9 4 78 1 89 -3 10 -4 30 -1 40 2 5 3 19 3 35 0
35 -1 39 -22 67 -5 7 -6 10 -6 19 0 15 5 20 18 19 12 0 13 -1 22 -9 13 -12 16
-13 30 -13 l12 0 27 21 c34 26 33 25 39 31 6 5 6 5 13 -4 3 -4 3 -14 3 -107 0
-89 0 -104 3 -110 4 -9 14 -21 18 -21 2 0 3 -1 3 -2 0 -4 70 -4 99 1 39 7 90
23 115 37 5 2 12 6 15 8 12 6 22 13 29 20 12 11 24 14 58 14 l30 0 21 8 c27
10 33 10 57 1 l19 -8 74 -1 c74 -1 74 -1 84 -6 8 -4 11 -7 16 -16 8 -16 7 -24
-4 -43 -8 -14 -16 -33 -14 -33 0 0 -2 -3 -6 -6 l-6 -7 -73 0 c-68 1 -73 1 -79
-3 -10 -5 -13 -9 -14 -21 -1 -6 -2 -11 -3 -12 -2 -2 -2 -3 1 -3 4 0 6 -7 2
-13 -4 -7 -12 -7 -16 0 -4 6 -2 13 2 13 3 0 3 1 1 3 -1 1 -2 6 -3 12 -1 12 -4
16 -14 21 -7 4 -14 4 -238 4 -208 0 -232 0 -239 -3 -10 -4 -17 -12 -20 -25 -2
-9 -2 -11 3 -26 8 -28 20 -40 59 -60 l16 -9 72 -1 c87 -1 79 1 93 -34 5 -13 9
-24 9 -25 0 -3 7 -20 10 -24 8 -10 12 -13 21 -18 22 -12 24 -26 9 -43 -12 -12
-15 -28 -15 -61 1 -33 3 -43 12 -57 12 -21 29 -30 60 -31 27 -2 31 -5 43 -28
7 -14 7 -20 4 -28 -3 -8 -3 -25 1 -35 3 -10 12 -22 15 -22 1 0 4 -1 5 -3 3 -3
12 -6 25 -8 11 -2 56 -13 65 -16 61 -20 96 -54 110 -105 2 -7 8 -23 13 -35 9
-19 11 -23 11 -35 0 -8 1 -14 1 -14 1 0 1 -2 1 -4 -3 -9 23 -16 35 -9 7 4 12
3 22 -4 11 -8 21 -14 24 -15 8 -2 17 -1 21 1 11 7 24 9 47 9 28 0 53 6 90 22
40 18 56 28 84 56 22 21 30 33 42 60 23 47 27 80 28 197 0 88 0 96 -10 110 -2
3 -7 10 -10 15 -8 12 -8 24 0 36 3 5 8 12 10 15 9 13 10 24 10 75 l-1 47 6 6
c6 5 8 6 19 6 15 0 24 5 37 17 14 14 16 15 37 15 18 0 36 5 38 10 1 1 4 4 8 7
7 5 24 6 32 2 9 -5 28 -1 39 8 11 10 16 11 27 8 11 -3 25 -17 36 -35 7 -13 17
-19 31 -19 8 0 10 1 20 12 13 12 21 26 21 35 0 21 -8 32 -85 110 -20 21 -38
40 -40 44 -5 10 -5 23 1 28 11 8 18 16 19 21 0 4 1 71 1 151 l0 144 5 8 c3 5
9 10 13 12 10 4 30 20 38 31 6 8 6 10 6 20 -1 17 -6 24 -30 40 -7 5 -21 16
-25 19 -2 1 -6 4 -9 7 -4 2 -16 11 -26 19 -11 8 -25 18 -31 22 -6 4 -13 9 -14
11 -6 5 -25 5 -36 0 -5 -3 -9 -5 -9 -6 0 -4 -14 -9 -24 -9 -13 0 -20 4 -24 11
-3 6 -3 26 0 31 1 3 2 7 3 11 2 15 13 32 26 42 23 18 23 18 23 35 0 9 -1 18
-3 23 -3 7 -3 8 0 13 2 3 5 5 7 5 3 0 12 -6 20 -14 8 -8 22 -14 31 -14 15 0
39 12 57 27 10 10 10 11 10 21 0 14 -4 21 -19 28 -20 10 -31 22 -27 31 2 4 18
13 31 17 11 3 27 12 31 18 5 6 6 20 4 29 -1 4 -9 14 -22 27 -10 11 -29 30 -41
43 -14 14 -24 23 -28 24 -9 2 -23 0 -34 -5 -16 -8 -29 -9 -36 -1 -8 7 -7 23 1
35 7 10 9 24 7 35 -1 4 -7 13 -22 28 -12 12 -36 37 -54 56 -27 28 -39 39 -45
40 -1 0 -3 1 -5 1 -7 3 -14 3 -18 2z m-1165 -100 c15 -10 30 -28 34 -41 7 -28
-18 -47 -44 -34 -8 3 -23 24 -29 38 -4 9 -4 27 0 33 7 10 25 12 39 4z m1126
-20 c5 -6 5 -12 0 -18 -7 -8 -22 -2 -22 9 0 11 15 17 22 9z m62 -62 c5 -5 5
-11 0 -16 -10 -10 -27 5 -16 16 4 4 12 4 16 0z m-155 -56 c7 -6 7 -19 1 -25
-6 -7 -19 -7 -25 -1 -7 6 -7 19 -1 25 6 7 19 7 25 1z m-273 -21 c6 -7 6 -24 0
-30 -6 -6 -23 -5 -30 2 -6 6 -6 21 0 28 7 8 23 8 30 0z m456 -8 c12 -8 28 -12
46 -10 10 1 12 1 15 -3 6 -7 11 -23 12 -42 1 -17 1 -18 -4 -27 -6 -10 -13 -14
-27 -14 -15 1 -21 5 -27 21 -5 13 -16 28 -21 28 -1 0 -2 1 -2 2 0 1 -17 8 -22
8 -2 0 -6 3 -9 6 -8 8 -8 24 0 32 9 10 22 9 39 -1z m-606 -3 c5 -6 5 -12 0
-18 -7 -8 -22 -2 -22 9 0 11 15 17 22 9z m348 -22 c3 -3 6 -8 7 -13 1 -9 9
-27 11 -27 1 0 2 -2 3 -4 2 -5 19 -10 33 -10 10 1 12 0 17 -4 3 -2 4 -6 4 -7
-1 -1 -3 -6 -4 -12 -2 -5 -5 -18 -8 -28 -3 -10 -7 -24 -9 -31 -6 -20 -14 -23
-21 -7 -7 16 -25 40 -45 61 -19 18 -27 29 -29 37 -2 7 -2 11 0 17 1 4 3 11 3
15 0 18 25 27 38 13z m-133 -22 c11 -5 16 -27 8 -41 -8 -16 -40 -16 -48 0 -7
13 -2 40 8 42 14 3 21 3 32 -1z m-614 -39 c2 0 4 -1 4 -1 0 0 30 -2 69 -3 44
-1 46 -4 66 -63 10 -29 15 -56 18 -88 3 -28 1 -37 -6 -42 -4 -2 -4 -2 -9 4 -4
3 -7 7 -8 8 -9 12 -28 35 -41 50 -8 9 -19 22 -24 28 -5 6 -13 16 -19 22 -5 6
-13 13 -16 17 -3 4 -12 14 -20 22 -8 9 -18 20 -23 25 -8 8 -9 10 -8 16 0 8 2
8 17 5z m451 -11 c9 -2 20 -5 24 -6 4 -1 10 -2 13 -3 15 -2 21 -7 25 -20 3
-11 -1 -25 -7 -32 -7 -5 -19 -23 -20 -27 0 -2 -2 -6 -3 -9 -1 -5 -1 -11 1 -22
2 -9 3 -27 4 -41 1 -14 1 -29 2 -35 1 -12 10 -30 19 -38 7 -5 9 -6 18 -5 17 1
21 4 30 23 10 19 14 23 25 23 14 0 15 0 21 -6 10 -10 9 -21 -6 -54 -11 -26
-11 -28 -10 -37 2 -15 6 -21 19 -32 11 -9 17 -21 20 -41 1 -4 2 -12 3 -18 1
-6 2 -28 2 -49 0 -38 2 -52 8 -59 16 -20 19 -27 16 -34 -2 -5 -9 -15 -16 -24
-5 -6 -9 -23 -8 -38 1 -16 0 -19 -7 -19 -8 0 -8 2 -7 46 0 27 -1 44 -2 47 -2
3 -4 4 -19 3 -14 0 -17 1 -18 3 0 2 -1 1 -1 -2 0 -5 -3 -12 -8 -17 -7 -6 -10
0 -11 19 -1 9 -3 22 -5 29 -8 21 -5 38 6 44 3 1 10 3 15 4 11 1 31 10 31 13 0
1 1 2 3 2 3 0 2 21 -2 27 -1 2 -8 7 -14 12 -17 12 -19 15 -19 35 -1 10 -2 18
-2 18 -1 0 -2 2 -2 4 0 4 -10 15 -20 22 -7 5 -22 20 -22 22 0 1 -5 5 -11 9
l-12 8 -25 0 c-22 0 -26 -1 -33 -4 -7 -4 -25 -22 -25 -25 0 -4 -13 -11 -22
-11 -15 0 -23 8 -23 23 0 14 4 17 28 27 19 8 27 13 36 26 42 62 35 124 -23
182 -12 13 -32 29 -36 29 -5 0 5 9 12 11 13 3 39 2 58 -3z m-754 -46 c5 -5 6
-7 6 -17 0 -10 -1 -12 -6 -17 -5 -5 -7 -6 -17 -6 -10 0 -12 1 -17 6 -5 5 -6 7
-6 17 0 10 1 12 6 17 5 5 7 6 17 6 10 0 12 -1 17 -6z m938 -25 l-5 -5 -4 4 -5
5 4 4 5 5 4 -4 5 -5 -4 -4z m-907 -64 c3 -3 3 -3 0 -6 -3 -3 -3 -3 -6 0 -3 2
-3 3 -1 6 4 4 4 4 7 0z m187 -47 c5 -5 5 -11 0 -16 -10 -10 -27 5 -16 16 4 4
12 4 16 0z m-137 -3 c3 -5 3 -7 1 -19 -3 -18 -9 -36 -15 -41 -8 -7 -28 -7 -36
0 -6 4 -6 6 -6 20 0 14 0 15 6 21 7 8 28 21 35 22 3 0 5 1 6 1 2 2 5 1 9 -4z
m993 -59 c1 -1 3 -2 4 -2 1 0 3 0 6 -1 3 0 10 -1 17 -2 14 -1 19 -5 19 -16 0
-18 -44 -35 -62 -24 -3 2 -6 4 -6 5 0 1 -2 4 -5 7 -13 15 -12 34 3 36 9 1 19
0 24 -3z m-753 -31 c6 -6 6 -6 5 -22 0 -14 3 -32 8 -40 3 -5 6 -17 6 -23 0 -7
-1 -11 -6 -23 -5 -12 -8 -23 -8 -33 0 -20 -2 -21 -65 -39 -30 -8 -56 -16 -57
-17 -2 -1 -4 -1 -4 0 0 0 -3 3 -8 5 -4 1 -9 6 -12 9 -2 4 -10 9 -18 13 -19 9
-22 12 -22 21 0 9 3 12 21 21 27 13 29 18 29 77 l-1 45 6 6 6 6 57 0 57 0 6
-6z m-180 -49 c5 -5 6 -7 6 -16 0 -15 -8 -23 -23 -23 -9 0 -11 1 -16 7 -9 8
-9 23 -1 32 9 9 24 9 34 0z m376 -40 c10 -9 3 -26 -10 -26 -8 0 -15 7 -15 15
0 13 16 20 25 11z m710 -83 c1 -83 1 -98 0 -128 l-1 -26 -6 0 -6 0 -1 26 c-1
30 -1 46 0 127 1 32 1 59 1 60 0 1 3 1 6 1 l6 0 1 -60z m-585 -4 l1 -62 5 -8
c4 -4 11 -9 17 -12 6 -3 11 -6 12 -7 1 -1 2 -2 3 -1 2 1 14 -12 16 -18 3 -8
18 -25 21 -24 2 1 3 0 3 -1 0 -1 1 -2 3 -2 1 0 5 -3 10 -6 8 -7 10 -16 3 -23
-8 -9 -16 -7 -29 6 -6 6 -11 12 -11 13 0 1 -2 2 -5 3 -4 1 -8 2 -9 3 -2 1 -6
2 -8 2 -5 0 -20 -8 -20 -10 0 -1 -3 -2 -6 -3 -3 -1 -6 -2 -6 -3 0 -1 -1 -1 -3
1 -2 2 -5 3 -7 3 -3 0 -4 1 -4 4 0 8 -9 19 -17 21 -1 0 -3 1 -5 2 -10 3 -16 5
-17 3 -1 -1 -4 -1 -17 0 -1 0 -5 3 -8 6 -5 5 -6 7 -6 18 0 11 1 13 6 18 3 3 7
6 8 6 13 1 16 1 17 0 1 -2 7 0 17 3 2 1 4 2 5 2 5 1 13 8 15 13 1 3 2 25 2 60
l0 56 7 0 7 0 0 -63z m423 54 c3 -3 3 -3 0 -6 -3 -3 -3 -3 -6 0 -3 2 -3 3 -1
6 4 4 4 4 7 0z m-1116 -32 c12 -12 3 -31 -13 -31 -11 0 -18 7 -18 18 0 11 7
18 18 18 6 0 9 -1 13 -5z m131 -25 c11 -8 18 -27 14 -40 -5 -19 -17 -24 -41
-19 -8 1 -22 3 -33 3 -15 0 -19 1 -22 4 -7 7 -2 19 10 25 10 5 19 12 29 23 12
13 29 14 43 4z m1072 -47 c3 -3 4 -7 4 -14 0 -13 -6 -19 -19 -19 -13 0 -19 6
-19 19 0 7 1 11 4 14 7 8 23 8 30 0z m-1013 -47 c4 -3 5 -7 5 -12 0 -8 -4 -13
-13 -15 -20 -3 -31 -9 -44 -23 -8 -10 -12 -13 -19 -14 -22 -5 -39 9 -43 36 -1
8 -1 10 3 14 4 5 6 5 21 5 9 -1 18 -2 21 -3 8 -2 29 2 42 10 13 7 21 8 27 2z
m1191 -21 c-2 -1 -3 -4 -4 -7 0 -3 -1 -6 -2 -7 -1 -1 -1 -5 -1 -8 1 -4 0 -7
-1 -7 -3 0 1 -10 7 -18 9 -10 12 -21 9 -32 -2 -11 -7 -16 -18 -18 -10 -2 -23
0 -28 6 -9 9 -9 33 0 41 14 10 24 20 23 22 -1 1 -1 1 1 0 1 0 2 0 3 1 1 1 0 2
-1 2 -2 0 -2 1 -1 3 4 4 3 21 -1 22 -2 1 -2 2 2 6 l5 5 4 -4 c4 -4 5 -5 3 -7z
m-1500 -65 c5 -5 6 -7 6 -17 0 -10 -1 -12 -6 -17 -5 -5 -7 -6 -17 -6 -10 0
-12 1 -17 6 -5 5 -6 7 -6 17 0 10 1 12 6 17 5 5 7 6 17 6 10 0 12 -1 17 -6z
m1636 -35 c10 -4 17 -18 15 -31 0 -3 -1 -8 -1 -11 0 -11 -6 -15 -24 -17 -5 0
-28 -16 -29 -20 -2 -5 -14 -11 -25 -13 -9 -2 -25 -15 -32 -27 -5 -9 -5 -9 -35
-21 -27 -11 -34 -15 -40 -20 l-4 -4 -5 5 c-8 7 -10 12 -9 22 1 9 6 20 9 20 2
0 2 2 3 20 1 13 1 16 -4 24 -3 5 -5 11 -5 13 0 3 6 10 10 11 3 0 22 -8 22 -10
0 -1 1 -2 3 -2 2 0 3 -1 3 -2 0 -1 3 -3 7 -4 3 -1 9 -4 13 -5 4 -2 8 -3 10 -4
2 0 6 -2 10 -4 15 -6 50 2 50 12 0 1 2 5 5 8 3 3 5 8 5 10 0 3 1 7 2 9 1 2 2
8 3 13 1 17 5 23 17 28 6 3 19 2 26 0z m-1607 -64 c5 -8 1 -16 -8 -16 -9 0
-13 8 -8 16 2 3 5 5 8 5 3 0 6 -2 8 -5z m291 -26 c0 -1 -2 -3 -3 -5 -4 -4 -4
-4 -8 0 l-5 5 4 4 c4 5 5 5 8 2 2 -2 4 -5 4 -6z m24 2 c7 -1 7 -2 2 -3 -6 -3
-24 -2 -24 1 0 2 13 3 22 2z m733 -176 c13 -7 27 -10 40 -10 7 0 13 -6 13 -13
0 -8 7 -26 12 -31 3 -3 9 -7 15 -10 5 -3 13 -7 16 -9 9 -6 30 -6 38 1 20 18
56 25 77 16 41 -19 50 -40 19 -48 -56 -14 -76 -14 -91 -2 -8 6 -10 7 -20 7
-12 0 -20 -3 -27 -8 -2 -2 -7 -5 -11 -6 -18 -6 -36 -20 -36 -28 0 -2 -1 -4 -2
-5 -1 -1 -2 -39 -2 -107 l0 -105 -6 -6 -5 -5 -25 1 c-112 5 -126 6 -138 9 -10
2 -15 1 -36 -5 -22 -6 -28 -7 -37 -4 -20 7 -22 26 -4 40 10 7 28 4 40 -8 6 -6
19 -11 29 -11 15 0 44 21 70 51 6 7 18 27 25 42 22 48 13 108 -23 156 -11 15
-45 49 -50 51 -3 1 -3 2 3 6 7 4 11 5 27 6 24 2 34 7 45 23 15 22 21 23 44 12z
m-797 -33 c5 -5 5 -11 0 -16 -10 -10 -27 5 -16 16 4 4 12 4 16 0z m-108 -40
c5 -6 5 -12 0 -18 -7 -8 -22 -2 -22 9 0 11 15 17 22 9z m110 -82 c5 -6 5 -12
0 -18 -7 -8 -22 -2 -22 9 0 11 15 17 22 9z m-59 -80 c13 -12 1 -30 -23 -35 -3
-1 -8 -3 -11 -6 -3 -2 -8 -5 -13 -7 -7 -2 -8 -2 -11 1 -3 3 -3 4 0 10 2 4 5 7
8 8 3 1 6 3 8 6 5 10 14 21 17 21 1 0 3 1 3 3 2 4 17 4 22 -1z m610 -25 c10
-10 4 -31 -9 -31 -15 -1 -22 5 -22 18 0 11 7 18 18 18 6 0 9 -1 13 -5z m-516
-110 c3 -5 3 -5 0 -10 -2 -3 -5 -5 -7 -5 -2 0 -5 2 -7 5 -3 5 -3 5 0 10 2 3 5
5 7 5 2 0 5 -2 7 -5z m1006 -40 c37 0 38 -8 5 -41 l-13 -14 -13 0 c-10 0 -14
1 -23 6 -13 8 -29 10 -45 5 -21 -5 -32 2 -32 20 0 9 1 12 5 16 5 5 6 5 29 5 7
0 20 1 28 3 9 2 20 2 26 2 6 -1 21 -2 33 -2z"/>
<path d="M1004 3056 c0 -50 0 -55 4 -57 1 -2 4 -3 5 -3 0 0 1 26 1 57 l0 57
-5 0 -5 0 0 -54z"/>
</g>
</svg>
