<?xml version="1.0" standalone="no"?>
<!DOCTYPE svg PUBLIC "-//W3C//DTD SVG 20010904//EN"
 "http://www.w3.org/TR/2001/REC-SVG-20010904/DTD/svg10.dtd">
<svg version="1.0" xmlns="http://www.w3.org/2000/svg"
 width="1100.000000pt" height="2850.000000pt" viewBox="0 0 1100.000000 2850.000000"
 preserveAspectRatio="xMidYMid meet">
<metadata>
Created by potrace 1.15, written by Peter Selinger 2001-2017
</metadata>
<g transform="translate(0.000000,2850.000000) scale(0.500000,-0.500000)"
fill="#000000" stroke="none">
<path d="M366 3826 c0 -1 -1 -2 -1 -2 -6 2 -18 -16 -20 -30 -3 -17 -21 -76
-33 -113 -7 -22 -17 -49 -21 -61 -4 -12 -8 -27 -10 -35 -3 -14 -10 -32 -15
-37 -6 -6 -14 -30 -14 -41 0 -7 -8 -22 -15 -30 -13 -13 -25 -33 -43 -70 -5
-11 -8 -16 -27 -45 -8 -13 -16 -27 -16 -29 -2 -7 -3 -26 -1 -28 1 -3 2 -7 3
-19 1 -11 1 -12 -4 -17 -6 -7 -17 -7 -35 0 -23 8 -32 8 -50 2 -2 -1 -3 -2 -4
-1 -3 0 -17 -12 -21 -17 -5 -10 -6 -25 -1 -35 6 -14 21 -49 35 -83 13 -30 18
-42 24 -56 8 -18 24 -54 25 -59 3 -6 18 -28 20 -28 2 0 7 -15 13 -34 5 -18 12
-24 28 -24 17 0 32 9 59 36 15 14 26 21 49 30 5 2 20 9 31 14 25 12 36 14 49
9 5 -2 9 -5 9 -6 0 -2 1 -4 3 -4 1 -1 5 -6 8 -12 7 -13 12 -20 21 -30 11 -12
11 -12 10 -47 0 -30 -1 -33 -4 -37 -6 -6 -15 -6 -21 -1 -3 1 -9 12 -15 23 -9
19 -15 26 -27 37 -10 9 -30 17 -43 17 -18 -1 -25 -5 -40 -23 -20 -24 -27 -31
-67 -71 -22 -21 -41 -39 -43 -40 -5 -2 -9 -13 -7 -28 0 -6 1 -12 2 -13 4 -3 9
-15 9 -22 0 -10 -6 -16 -17 -16 -9 0 -16 5 -22 17 -3 6 -11 15 -11 12 0 -1 -1
-1 -2 1 -5 3 -24 4 -32 1 -4 -2 -10 -4 -13 -4 -27 -5 -41 -26 -32 -49 2 -5 4
-12 5 -15 1 -3 8 -24 16 -47 8 -23 15 -44 16 -47 1 -3 8 -23 15 -44 7 -21 14
-42 16 -47 6 -19 21 -62 24 -67 5 -10 15 -19 25 -21 11 -2 17 -1 28 4 l8 5 4
-5 c9 -11 0 -50 -23 -98 -21 -42 -33 -58 -81 -103 -18 -17 -30 -30 -32 -36 0
-1 -1 -2 -2 -3 -3 -2 -16 -28 -21 -43 -12 -34 -9 -52 12 -74 14 -14 15 -18 12
-34 -4 -28 2 -42 31 -65 12 -10 13 -10 25 -10 11 0 29 7 29 12 0 3 26 27 34
30 12 6 28 6 36 1 5 -4 9 -12 10 -22 1 -6 8 -9 23 -9 10 0 15 1 17 3 3 4 1 24
-5 43 -8 27 12 39 37 24 7 -5 13 -7 20 -7 10 0 22 2 22 5 0 1 1 3 3 4 1 2 4 6
6 10 5 10 11 16 15 16 3 0 10 -5 18 -12 25 -21 49 -34 75 -41 18 -4 50 -3 67
3 12 4 37 16 41 21 1 1 6 4 9 7 15 11 31 30 39 44 2 4 4 7 5 8 1 1 5 9 9 18 4
9 9 19 11 21 4 5 12 4 21 -3 26 -22 69 -38 98 -38 23 1 57 11 67 19 9 9 25 4
32 -10 4 -8 81 -158 106 -209 15 -30 20 -36 29 -41 20 -10 44 1 78 36 14 15
15 16 24 29 9 12 18 21 34 33 6 4 11 9 12 10 2 1 6 4 9 7 11 8 79 63 80 64 1
1 9 7 18 15 9 8 17 14 18 15 1 1 6 5 13 11 7 5 17 14 22 19 6 5 16 14 23 20 7
6 16 14 21 18 4 4 10 9 12 11 9 8 44 40 59 55 22 21 26 20 43 -12 17 -33 30
-57 49 -88 9 -13 43 -62 49 -69 2 -3 6 -7 8 -10 18 -25 90 -101 124 -130 7 -7
18 -16 24 -21 12 -11 16 -12 32 -8 12 3 17 10 28 42 22 61 44 100 76 133 29
32 54 47 99 63 30 11 38 16 46 34 10 20 2 46 -16 57 -5 3 -29 14 -53 23 -46
19 -144 66 -165 80 -63 41 -85 57 -115 82 -23 20 -26 23 -24 29 3 6 8 8 34 14
58 14 117 33 166 53 43 18 51 20 75 21 11 1 26 2 31 3 21 5 50 25 58 41 5 8 3
26 -3 35 -2 3 -20 17 -40 30 -36 24 -36 24 -47 23 -6 -1 -15 -3 -24 -8 l-14
-7 -4 4 c-4 4 -4 5 -3 14 1 5 1 11 1 14 -1 3 -1 8 -2 11 -1 8 -5 15 -9 15 -4
0 8 9 14 11 3 0 17 1 32 1 31 0 42 2 60 9 24 9 46 35 46 54 0 9 -8 27 -16 33
-9 8 -51 44 -67 58 -8 7 -16 14 -18 15 -13 12 -38 31 -43 32 -3 1 -6 2 -7 3
-1 1 -9 4 -18 7 -21 7 -23 8 -25 16 -3 11 1 15 16 21 28 10 41 23 48 46 4 12
4 23 4 263 0 228 0 252 3 258 5 8 6 9 20 16 48 23 67 50 55 78 -2 3 -3 5 -4 5
-1 0 -2 1 -2 3 0 3 -15 17 -40 36 -12 9 -23 18 -25 20 -6 5 -20 11 -27 11 -9
0 -28 -5 -31 -8 -1 -1 -7 -2 -14 -2 -11 0 -14 1 -18 5 -6 5 -6 5 -6 29 0 38
-1 39 -46 73 -33 25 -36 27 -49 27 -17 -1 -18 -2 -64 -52 -23 -25 -25 -27 -40
-44 -8 -8 -14 -15 -14 -16 0 -1 -1 -2 -3 -2 -4 0 -7 -7 -7 -19 0 -11 6 -21 17
-28 13 -9 13 -36 1 -49 -4 -4 -8 -9 -10 -11 -9 -11 -18 -37 -12 -37 3 0 3 -15
3 -87 l0 -88 -6 -6 c-6 -6 -7 -6 -21 -6 -14 0 -15 0 -21 6 l-6 6 0 85 c0 76 0
85 -3 87 -3 2 -3 2 1 5 3 2 6 4 7 4 1 0 3 2 4 4 2 3 4 3 6 2 3 -1 4 -1 4 0 0
1 2 2 5 3 3 1 5 2 5 3 -1 0 0 4 2 7 1 3 2 9 2 14 0 5 1 9 3 10 1 0 0 1 -2 1
-2 0 -7 2 -10 4 -6 4 -9 4 -19 3 -6 0 -11 -1 -11 -1 -5 -3 -8 -9 -9 -17 0 -5
-1 -12 -2 -15 -2 -6 -12 -12 -18 -12 -1 0 -4 0 -6 0 -5 -2 -51 -16 -55 -17 -3
0 -6 1 -9 4 l-4 4 6 12 c3 6 7 13 9 14 2 2 7 9 11 17 7 12 9 14 20 19 14 6 39
12 43 10 2 -1 4 -2 5 -2 22 3 34 8 42 17 2 2 5 4 7 4 3 0 3 1 1 1 -2 1 -3 4
-3 10 0 6 0 12 -2 15 -1 3 -2 6 -1 6 0 1 -2 2 -5 3 -3 1 -5 2 -5 3 0 2 -123 2
-245 0 -9 0 -18 0 -19 1 -1 0 -26 1 -57 1 -61 0 -64 1 -101 15 -17 7 -21 8
-41 8 -26 1 -32 4 -45 17 -8 10 -25 19 -53 30 -10 4 -12 4 -22 2 -11 -2 -23
-10 -28 -18 -2 -3 -10 -9 -22 -15 -20 -10 -27 -16 -31 -29 -3 -9 -3 -251 0
-263 3 -10 10 -15 23 -16 5 -1 11 -1 12 -2 2 0 3 0 3 1 3 7 27 5 33 -2 4 -6 4
-24 -1 -30 -5 -7 -29 -9 -32 -2 0 1 -1 1 -3 1 -1 -1 -7 -1 -12 -2 -20 -1 -25
-10 -25 -40 0 -12 -1 -17 -3 -21 -5 -7 -9 -11 -9 -9 0 1 -3 4 -8 7 -4 3 -7 5
-8 6 -1 1 -8 6 -16 11 -8 5 -15 10 -16 11 -1 1 -6 5 -13 9 -7 4 -13 9 -15 11
-1 1 -3 2 -4 2 -1 0 -3 1 -4 3 -2 1 -7 5 -12 8 -5 3 -9 6 -10 7 -1 1 -8 6 -16
11 -8 5 -15 10 -16 11 -1 1 -6 5 -13 9 -7 4 -13 9 -15 11 -1 1 -3 2 -4 2 -1 0
-3 1 -4 3 -2 1 -7 5 -12 8 -5 3 -9 6 -10 7 -7 7 -18 12 -26 12 -22 0 -27 -6
-44 -48 l-12 -30 3 -15 c2 -8 3 -15 4 -16 4 -12 3 -17 -1 -21 -3 -2 -8 -5 -12
-6 -10 -4 -28 -14 -32 -18 -3 -4 -15 -25 -15 -26 0 -1 -3 -3 -7 -6 -6 -5 -9
-5 -34 -6 -53 -2 -111 -1 -111 2 -1 1 -2 2 -3 2 -1 0 -3 1 -5 3 -2 2 -2 3 3 6
13 8 15 26 6 47 -8 15 -8 33 -1 40 4 4 29 14 35 14 6 0 22 -17 20 -22 0 -1 6
-2 12 -2 12 -1 13 -1 18 5 3 4 6 8 7 9 2 4 16 14 18 14 2 0 69 69 93 95 20 23
50 57 57 66 4 6 9 11 10 11 1 1 1 3 2 4 0 2 1 4 1 5 3 4 0 26 -4 39 -9 26 4
45 28 43 12 -1 20 -6 25 -14 6 -12 12 -15 27 -15 7 0 14 1 15 2 8 5 9 25 2 37
-4 7 -8 10 -25 19 -12 6 -21 11 -22 12 0 1 -1 2 -2 2 -1 0 -29 13 -61 29 -32
17 -67 34 -78 40 -23 12 -38 13 -53 5 -4 -2 -8 -3 -9 -3 0 1 0 -2 0 -6 1 -7 0
-8 -3 -11 -7 -4 -11 1 -8 9 3 9 4 33 2 34 -1 1 -2 3 -1 4 1 3 -1 4 -39 23 -29
16 -31 16 -42 16 -7 -1 -12 -2 -12 -2z m1333 -107 c6 -4 6 -6 6 -20 0 -14 0
-16 -6 -20 -4 -4 -7 -5 -18 -5 -11 0 -14 1 -18 5 -6 4 -6 6 -6 20 0 14 0 16 6
20 4 4 7 5 18 5 11 0 14 -1 18 -5z m-673 -81 c10 -5 24 -11 31 -13 17 -5 24
-12 24 -25 0 -9 -1 -11 -6 -16 -8 -8 -16 -8 -37 -2 -8 2 -20 4 -27 5 -24 3
-30 4 -35 10 -9 10 -9 32 0 42 10 11 25 11 50 -1z m-528 -15 c3 -3 4 -6 4 -13
0 -5 1 -13 2 -19 1 -6 1 -10 -1 -13 -2 -2 -2 -4 -1 -5 0 -1 0 -1 -1 0 -1 0 -5
-1 -8 -2 -3 -2 -6 -3 -7 -2 -1 0 -7 1 -14 2 -7 0 -15 2 -18 4 -15 8 -14 42 1
49 16 6 35 6 43 -1z m1163 -40 c5 -8 1 -16 -8 -16 -9 0 -13 8 -8 16 2 3 5 5 8
5 3 0 6 -2 8 -5z m-1121 -25 c8 -8 2 -22 -9 -22 -6 0 -19 13 -18 18 0 2 1 4 1
6 0 1 1 2 2 1 1 -1 2 0 2 1 0 5 14 3 22 -4z m659 -5 l6 -6 -1 -70 c0 -61 0
-71 3 -81 4 -11 13 -22 25 -28 12 -6 16 -13 16 -23 0 -15 -7 -20 -24 -19 -4 0
-8 3 -13 8 -24 25 -27 27 -68 29 -22 1 -36 5 -42 11 -7 6 -10 20 -7 31 3 10 6
14 20 21 6 3 14 8 19 13 13 11 15 20 15 68 l-1 40 6 6 c6 6 7 6 23 6 16 0 17
0 23 -6z m-853 -40 c4 -4 8 -11 9 -15 2 -4 9 -13 17 -21 7 -7 16 -19 19 -25 4
-7 11 -16 16 -22 16 -15 21 -25 15 -29 -1 -1 -3 -4 -4 -6 -1 -3 -3 -5 -4 -4
-1 1 -2 0 -2 0 0 -1 -3 -2 -7 -1 -4 0 -7 1 -7 2 0 1 -1 2 -2 1 -1 -1 -2 0 -2
1 0 1 -1 2 -2 1 -2 -1 -8 9 -8 14 0 3 -4 5 -14 9 -7 2 -15 4 -16 4 -6 0 -14 8
-15 14 -1 4 -3 9 -4 12 -2 3 -3 6 -3 7 0 3 -9 22 -12 25 -15 16 -13 40 4 42
11 2 16 0 22 -9z m996 -31 l5 -5 0 -39 c0 -36 -1 -40 -4 -44 -6 -7 -14 -5 -36
7 -20 11 -31 21 -31 27 0 4 8 20 16 32 3 5 7 12 9 15 4 9 12 13 25 13 9 0 11
-1 16 -6z m379 -44 c11 -10 3 -28 -11 -28 -9 0 -16 6 -16 16 0 14 17 22 27 12z
m-1431 -87 l-5 -5 -4 4 -5 5 4 4 5 5 4 -4 5 -5 -4 -4z m1434 -70 c18 -8 20
-33 4 -55 -8 -9 -18 -34 -18 -42 0 -5 -8 -12 -15 -12 -10 0 -16 8 -14 17 5 33
5 34 2 50 -4 24 0 36 14 42 7 3 20 3 27 0z m-215 -6 c3 -2 7 -7 9 -12 8 -18
22 -24 42 -20 25 6 36 2 36 -14 0 -10 -4 -14 -22 -23 -10 -5 -22 -17 -22 -22
0 -2 -1 -4 -2 -5 -1 -2 -2 -24 -2 -66 l1 -64 -6 -6 c-6 -6 -7 -6 -21 -6 -14 0
-15 0 -21 6 l-6 6 0 34 c0 18 0 45 -1 59 0 14 0 28 0 31 1 6 -2 14 -6 19 -4 7
-23 16 -34 17 -13 2 -18 8 -18 20 0 11 6 19 14 19 9 0 27 9 36 17 8 7 15 13
18 13 1 0 3 -1 5 -3z m-242 -31 c2 -3 3 -8 3 -15 0 -16 -8 -23 -23 -21 -4 0
-26 -6 -30 -9 -3 -2 -7 -7 -9 -12 -4 -8 -4 -11 -4 -74 1 -36 0 -65 0 -65 -1 0
-4 -3 -7 -7 -3 -5 -5 -7 -5 -6 0 1 -19 -8 -21 -11 -2 -3 -19 -10 -23 -10 -7 2
-10 8 -9 17 1 9 6 29 8 30 1 2 -3 18 -7 23 -2 4 -11 10 -20 15 -17 10 -20 13
-20 23 0 10 3 13 20 23 25 14 29 23 28 59 l-1 23 6 6 c6 6 6 6 27 5 18 0 23 1
41 6 11 3 22 6 24 6 7 2 18 -2 22 -6z m-419 -152 c0 -80 0 -83 11 -94 5 -5 20
-13 27 -15 3 0 9 -1 13 -2 13 -2 33 -14 45 -26 5 -6 13 -13 17 -14 8 -4 32 -4
37 -1 11 6 24 3 36 -8 7 -6 12 -8 24 -8 7 1 13 2 18 5 9 5 24 5 37 -1 17 -8
28 -8 46 2 20 11 28 11 50 -3 2 -1 4 -3 5 -3 1 -1 5 -3 9 -5 7 -3 15 -4 60 -5
59 0 67 0 74 7 4 4 5 7 4 18 0 7 1 13 2 14 1 0 1 1 -1 1 -6 0 -18 15 -20 24
-2 10 0 23 6 28 5 6 18 8 29 6 11 -2 16 -9 18 -23 4 -34 8 -46 21 -59 15 -15
15 -15 71 -15 28 0 51 -1 51 -1 0 -1 3 -4 7 -6 6 -5 7 -6 7 -10 0 -3 14 -18
17 -18 2 0 3 -1 3 -2 0 -1 1 -2 2 -2 1 1 16 -1 26 -3 7 -1 17 -9 15 -11 -3 -2
-21 -25 -21 -27 0 -3 -9 -8 -17 -11 -6 -1 -64 -2 -189 -2 l-181 0 -12 -6 c-16
-7 -24 -17 -30 -37 -3 -9 -7 -18 -10 -20 -11 -11 -23 -3 -31 20 -3 8 -5 15 -6
16 -1 1 -4 5 -7 9 -3 4 -11 9 -18 12 -12 6 -13 6 -41 6 -29 0 -30 0 -33 5 -3
2 -6 5 -8 6 -3 0 -2 1 3 1 14 0 44 14 50 22 2 3 5 10 6 17 3 14 -1 21 -12 27
-8 4 -28 5 -34 2 -6 -3 -20 -3 -29 1 -11 5 -32 5 -43 0 -13 -6 -19 -7 -28 -5
-9 2 -11 3 -29 25 -8 9 -8 9 -19 9 -24 0 -28 -8 -28 -52 0 -28 0 -30 6 -40 3
-6 6 -11 8 -12 21 -12 37 -20 39 -21 4 0 4 -1 1 -1 -4 0 -10 -12 -13 -23 -5
-21 -31 -20 -36 0 -5 21 -15 32 -37 42 -8 3 -15 8 -22 16 -22 24 -38 39 -54
51 -4 3 -9 8 -12 10 -3 2 -15 11 -28 19 -13 9 -25 17 -28 19 -3 2 -8 5 -10 6
-31 13 -40 27 -24 40 19 16 81 75 91 86 3 4 19 20 35 36 16 16 35 35 41 43 8
9 15 15 22 18 l10 5 5 -5 6 -4 0 -73z m-142 68 c1 0 5 -3 8 -6 5 -5 6 -7 6
-18 0 -16 -5 -21 -19 -24 -20 -3 -29 5 -29 24 0 13 3 19 12 23 5 2 8 2 22 1z
m230 -7 c2 -2 8 -13 13 -23 10 -19 13 -23 26 -38 8 -8 14 -23 14 -35 0 -19 -9
-28 -28 -28 -19 0 -27 9 -30 31 -2 17 -9 29 -23 43 l-13 13 0 15 c0 14 0 16 6
20 7 6 28 7 35 2z m-411 -251 c32 -3 39 -4 47 -12 9 -10 9 -20 -1 -43 -4 -10
-8 -21 -8 -27 -2 -17 -5 -19 -36 -21 -25 -1 -45 -7 -45 -11 0 -1 -1 -2 -2 -2
-2 0 -5 -2 -7 -4 -8 -7 -23 -14 -32 -13 -11 0 -30 10 -34 17 -6 11 -5 15 6 27
6 5 14 12 18 14 33 15 37 17 39 23 4 10 4 24 1 35 -3 10 -3 11 0 16 4 6 2 6
54 1z m156 -58 c5 -5 6 -7 6 -16 0 -15 -8 -23 -23 -23 -9 0 -11 1 -16 7 -9 8
-9 23 -1 32 9 9 24 9 34 0z m942 -55 c3 -5 3 -5 0 -10 -5 -6 -8 -6 -13 0 -5 5
-5 7 -1 11 5 5 9 5 14 -1z m-1270 -2 c8 -3 15 -10 15 -14 0 -5 -12 -25 -17
-28 -4 -3 -12 -4 -24 -3 -2 0 -6 3 -9 6 -5 5 -6 7 -6 17 0 14 3 20 12 24 7 3
19 2 29 -2z m1002 -16 c7 -4 9 -10 10 -21 0 -15 -2 -19 -17 -31 -8 -6 -17 -13
-19 -15 -5 -7 -7 -21 -4 -43 4 -28 10 -40 33 -63 17 -17 20 -20 34 -25 8 -3
15 -5 16 -5 10 2 18 -7 18 -20 0 -14 -6 -20 -20 -20 -5 0 -11 1 -13 3 -8 6
-38 1 -39 -7 -1 -10 0 -24 4 -39 13 -55 26 -102 37 -132 10 -28 7 -31 -46 -40
-77 -13 -76 -13 -74 -35 1 -9 1 -14 -1 -14 -1 0 1 -3 5 -7 14 -13 7 -33 -11
-33 -15 0 -23 15 -15 30 2 3 3 9 2 12 0 3 -1 7 -1 9 0 1 -1 3 -3 3 -2 0 -3 2
-3 6 0 3 -2 9 -5 14 -3 5 -5 12 -5 17 0 15 -6 28 -19 43 -10 12 -13 16 -16 27
-2 7 -4 14 -5 14 -1 1 -2 3 -2 6 0 3 -1 5 -2 6 -1 0 -3 7 -5 14 -4 17 -2 22
15 29 6 3 14 7 17 11 6 5 9 9 14 23 2 3 3 15 3 26 1 39 -8 49 -44 51 -14 1
-21 3 -25 8 -3 4 -17 7 -24 6 -9 -1 -22 -7 -26 -13 -4 -4 -21 -3 -26 3 -7 6
-7 22 0 28 6 6 22 7 26 2 2 -3 6 -3 19 -3 16 1 16 1 23 8 4 4 7 8 7 8 0 4 13
8 25 9 35 2 46 13 45 48 -1 17 -1 18 5 24 6 6 6 6 24 5 19 0 28 2 35 10 6 5
12 28 10 34 -3 6 0 20 5 25 7 9 28 11 38 4z m-443 -172 c0 -95 0 -101 10 -104
9 -4 29 -4 33 0 6 4 15 4 19 -1 5 -6 5 -13 -1 -23 -2 -5 -7 -15 -11 -22 -9
-16 -13 -22 -27 -32 -14 -10 -16 -12 -16 -25 0 -12 2 -15 15 -24 7 -5 14 -6
21 -3 2 1 5 2 6 2 5 0 16 13 21 24 4 7 9 14 11 16 6 4 21 5 30 2 10 -2 24 -30
17 -34 -1 -1 -4 -6 -7 -12 -8 -18 -20 -24 -58 -28 -22 -3 -30 -4 -36 -8 -10
-6 -23 -18 -23 -22 0 -5 -6 -8 -9 -4 -2 2 -4 3 -5 2 -1 -1 -2 1 -2 5 0 13 -14
50 -27 71 -3 4 -6 9 -6 11 -3 5 -26 35 -35 45 -5 6 -17 15 -27 22 -9 6 -17 12
-17 13 0 3 -19 20 -29 26 -7 4 -12 7 -13 7 0 0 -1 4 -1 8 0 5 -1 9 -1 10 0 2
-2 3 -4 4 -5 2 -10 6 -10 8 0 1 -1 3 -3 4 -3 4 -4 13 -1 13 1 0 2 1 2 2 0 1
-2 2 -4 2 -2 0 -6 2 -9 5 -5 4 -5 6 -5 22 0 24 -1 31 -8 47 -12 25 -6 40 14
40 11 0 13 -1 26 -17 8 -11 20 -17 42 -20 14 -2 20 -11 20 -29 0 -6 -7 -16
-12 -16 -5 0 -25 -11 -32 -18 -5 -5 -11 -10 -14 -12 -2 -2 -3 -4 -2 -4 2 0 2
-2 1 -6 -3 -16 5 -20 27 -14 19 4 28 11 35 24 3 7 5 13 5 14 0 1 1 2 2 2 1 0
3 3 5 6 4 6 21 20 24 20 2 0 12 25 16 41 2 7 4 20 4 30 0 16 0 18 5 23 5 5 7
6 19 6 13 1 14 1 20 -5 l6 -6 -1 -88z m686 93 c3 -3 5 -6 4 -6 -1 -1 -13 -15
-27 -33 -67 -86 -69 -87 -83 -80 -7 3 -22 31 -43 81 l-15 33 6 6 6 5 73 0 73
0 6 -6z m-1331 -14 c5 -5 6 -7 6 -16 0 -15 -8 -23 -23 -23 -9 0 -11 1 -16 7
-9 8 -9 23 -1 32 9 9 24 9 34 0z m307 -51 c2 -4 4 -11 5 -18 0 -6 2 -15 4 -19
7 -16 4 -26 -10 -29 -10 -2 -22 -14 -24 -26 -3 -13 -3 -17 6 -35 25 -51 42
-97 44 -121 2 -14 -2 -16 -10 -5 -9 11 -22 16 -40 17 -19 2 -21 4 -20 23 1 8
1 18 -1 24 -3 12 -6 15 -39 44 -20 17 -34 20 -60 13 -14 -4 -26 -1 -33 6 -14
17 -19 23 -22 21 -2 -1 -4 -1 -6 1 -1 1 -3 2 -4 2 -4 -2 0 5 7 12 7 7 18 28
16 31 -2 2 10 9 18 10 5 1 12 3 16 5 3 2 7 3 9 3 1 0 4 1 6 3 6 5 21 9 37 9 9
0 20 1 25 2 8 2 50 21 64 29 7 4 7 4 12 -2z m-189 -3 c3 -2 8 -17 10 -26 1 -8
-8 -15 -20 -14 -14 0 -22 4 -25 10 -3 6 -2 23 2 28 6 7 25 9 33 2z m268 -65
c15 -7 22 -25 14 -41 -10 -22 -49 -20 -54 3 -1 3 -2 8 -2 10 0 2 -2 7 -4 11
-3 9 -1 15 8 18 8 2 31 2 38 -1z m-328 -19 c25 -13 25 -12 18 -35 -2 -7 -2
-13 -1 -20 6 -34 14 -111 14 -131 1 -16 0 -20 -4 -20 -2 0 -4 -2 -5 -4 0 -5 0
-4 -1 0 0 12 -24 91 -28 94 0 1 -2 3 -4 7 -4 8 -21 15 -40 17 -20 2 -26 6 -30
17 -4 14 -1 24 11 36 12 12 21 23 21 25 0 3 8 14 13 18 7 6 18 5 36 -4z m446
-101 c7 -4 9 -10 10 -23 0 -20 -9 -29 -28 -29 -19 0 -28 9 -28 28 0 17 6 24
22 28 6 1 19 -1 24 -4z m-337 -21 c5 -5 5 -15 0 -20 -9 -9 -24 -2 -24 10 0 8
6 14 14 14 3 0 8 -2 10 -4z m662 -36 c5 -5 5 -11 0 -16 -4 -4 -12 -4 -15 -1 0
2 -3 3 -4 3 -2 0 -3 1 -2 2 1 1 0 2 -1 2 -3 0 -1 6 3 8 3 1 5 3 5 4 0 3 11 1
14 -2z m-263 -29 c5 -8 1 -16 -8 -16 -9 0 -13 8 -8 16 2 3 5 5 8 5 3 0 6 -2 8
-5z m68 -75 c0 -2 1 -6 2 -10 3 -12 2 -21 -3 -26 -5 -5 -8 -5 -13 1 -3 5 -3 6
0 14 2 8 12 23 14 23 0 0 0 -1 0 -2z m843 -8 c5 -4 7 -14 7 -22 -2 -18 -26
-26 -39 -12 -12 11 -6 36 9 38 7 1 20 -1 23 -4z m-1227 -111 c3 -5 3 -5 0 -10
-2 -3 -5 -5 -7 -5 -2 0 -5 2 -7 5 -3 5 -3 5 0 10 2 3 5 5 7 5 2 0 5 -2 7 -5z
m1250 -61 c7 -6 7 -19 1 -25 -6 -7 -19 -7 -25 -1 -7 6 -7 19 -1 25 6 7 19 7
25 1z m-714 -78 c10 -9 3 -26 -10 -26 -8 0 -15 7 -15 15 0 13 16 20 25 11z"/>
</g>
</svg>
