<?xml version="1.0" standalone="no"?>
<!DOCTYPE svg PUBLIC "-//W3C//DTD SVG 20010904//EN"
 "http://www.w3.org/TR/2001/REC-SVG-20010904/DTD/svg10.dtd">
<svg version="1.0" xmlns="http://www.w3.org/2000/svg"
 width="686.000000pt" height="2850.000000pt" viewBox="0 0 686.000000 2850.000000"
 preserveAspectRatio="xMidYMid meet">
<metadata>
Created by potrace 1.15, written by Peter Selinger 2001-2017
</metadata>
<g transform="translate(0.000000,2850.000000) scale(0.500000,-0.500000)"
fill="#000000" stroke="none">
<path d="M389 3726 c-3 -1 -13 -5 -22 -9 l-16 -7 -15 3 c-25 5 -31 4 -48 -6
-31 -16 -53 -38 -67 -65 -13 -25 -19 -49 -18 -73 0 -18 6 -23 24 -25 10 0 14
0 18 3 13 9 25 10 37 6 12 -5 18 -21 14 -36 -3 -11 -8 -16 -23 -20 -7 -2 -12
-4 -13 -5 -1 0 -3 -2 -5 -3 -5 -3 -8 -14 -6 -25 1 -8 3 -10 15 -20 21 -17 55
-31 81 -35 13 -2 43 -2 57 0 54 8 104 44 125 90 3 7 6 14 7 15 9 16 12 69 5
94 -15 56 -65 103 -125 117 -15 3 -16 3 -25 1z"/>
<path d="M932 3723 c-5 -1 -11 -4 -14 -5 -30 -17 -30 -17 -54 -8 -21 7 -27 7
-42 1 -42 -20 -76 -61 -87 -105 -7 -28 -1 -45 21 -56 14 -8 17 -13 17 -25 0
-5 0 -11 1 -12 0 -1 1 -4 2 -7 1 -8 6 -16 12 -18 9 -4 12 -9 16 -25 6 -22 16
-39 23 -39 2 0 3 -1 3 -2 0 -2 14 -6 23 -6 4 0 15 2 23 4 14 4 29 4 35 1 5 -4
17 -7 27 -8 23 -3 65 19 90 47 69 74 54 191 -33 243 -15 9 -48 23 -53 23 0 0
-5 -1 -10 -3z m29 -84 c5 -8 1 -16 -8 -16 -9 0 -13 8 -8 16 2 3 5 5 8 5 3 0 6
-2 8 -5z"/>
<path d="M601 3229 c0 0 -8 -1 -18 -2 -10 -1 -18 -1 -19 -2 0 0 -5 -1 -11 -2
-26 -3 -54 -9 -93 -20 -15 -5 -76 -29 -79 -32 -5 -4 -6 -10 -6 -22 0 -6 1 -12
2 -12 0 -1 1 -3 1 -5 0 -2 2 -5 4 -7 2 -2 4 -5 4 -7 0 -2 1 -4 3 -5 1 0 1 -1
-1 -1 -2 0 -5 -1 -6 -3 -3 -4 -14 -3 -17 0 -3 2 -9 13 -8 15 0 2 -6 9 -12 12
-10 4 -23 3 -36 -5 -36 -23 -98 -77 -107 -96 -4 -6 -5 -12 -5 -29 -1 -26 -3
-28 -21 -34 -31 -9 -36 -14 -54 -50 -11 -22 -12 -29 -5 -53 8 -28 5 -36 -17
-51 -17 -12 -28 -27 -31 -43 0 -3 -2 -13 -4 -22 -11 -57 -11 -172 -1 -226 1
-7 3 -16 3 -20 1 -4 4 -18 6 -30 3 -12 6 -25 6 -28 1 -4 4 -9 7 -12 3 -3 6 -7
6 -8 0 -2 1 -3 2 -3 0 0 1 -5 1 -12 1 -14 6 -31 20 -60 14 -28 37 -68 45 -77
1 -2 6 -8 10 -14 9 -14 42 -52 55 -64 16 -15 24 -22 32 -28 4 -3 10 -8 13 -11
10 -9 50 -34 70 -45 99 -52 192 -74 310 -72 53 1 85 4 126 14 28 7 70 21 81
27 2 1 13 6 25 12 12 6 29 15 39 21 l18 11 1 13 c0 15 -3 22 -11 27 -14 9 -15
12 -15 32 0 20 -1 24 -14 28 -9 3 -19 3 -31 -1 -39 -12 -105 -17 -151 -12 -85
10 -148 43 -198 106 -9 11 -18 21 -19 22 -2 0 -4 2 -6 4 -1 1 -10 6 -19 11
-22 11 -23 13 -17 46 3 20 4 17 -9 63 -6 25 -17 72 -19 84 -1 5 -3 10 -4 11
-2 1 -3 4 -3 5 0 5 -12 11 -23 11 -10 0 -11 -1 -17 -8 -3 -4 -6 -9 -6 -10 0
-1 -1 -2 -2 -2 -1 0 -2 -1 -2 -3 0 -6 -14 -28 -19 -31 -8 -4 -25 -3 -32 1 -8
4 -12 13 -12 26 1 8 2 12 12 26 6 9 14 23 18 31 4 9 9 17 11 18 8 8 20 9 36 4
4 -1 11 -3 15 -4 12 -3 666 -3 675 0 18 7 29 19 34 39 8 36 8 137 0 176 -1 6
-4 13 -8 17 -6 7 -24 14 -37 14 -11 0 -17 5 -17 14 0 7 4 11 18 20 6 4 10 7
10 8 0 1 2 3 4 5 2 3 3 7 3 17 0 11 -1 16 -9 32 -15 33 -35 66 -44 77 -2 2 -4
4 -4 5 0 1 -1 3 -3 4 -1 2 -5 7 -9 12 -59 76 -154 132 -258 153 -23 5 -39 2
-48 -7 -5 -5 -13 -21 -15 -30 -1 -7 -8 -11 -15 -12 -17 -1 -24 3 -26 17 -2 12
-12 31 -17 34 -2 1 -4 3 -5 3 -2 4 -28 7 -31 5z m29 -99 c31 -1 59 -11 84 -30
10 -8 31 -34 37 -46 8 -16 11 -18 28 -18 14 0 15 0 20 6 3 4 5 7 5 9 0 1 4 6
8 10 7 7 9 7 21 7 11 0 14 -1 18 -5 12 -10 7 -46 -8 -61 -6 -5 -9 -7 -19 -8
-34 -5 -45 -19 -40 -53 4 -23 4 -94 1 -117 -4 -29 -4 -42 2 -59 7 -21 7 -32 0
-38 -4 -4 -13 -7 -20 -5 -31 7 -46 7 -52 1 -1 -2 -3 -3 -4 -3 -1 0 -6 -5 -11
-10 -17 -20 -20 -22 -30 -22 -8 0 -9 1 -22 14 -23 24 -18 23 -122 24 l-89 0
-5 5 c-3 3 -5 6 -5 8 0 1 1 13 2 26 1 26 6 78 9 94 3 19 -3 32 -21 48 -11 10
-14 14 -15 21 -4 16 5 34 17 34 2 0 10 2 17 4 20 7 29 18 40 44 13 31 28 57
40 71 21 22 34 32 55 40 11 5 38 11 41 10 1 0 9 -1 18 -1z m-200 -39 l4 -4 -5
-5 -4 -4 -6 5 -6 5 5 4 c6 5 6 5 12 -1z m-76 -57 c5 -5 6 -7 6 -17 0 -10 -1
-12 -6 -17 -5 -5 -7 -6 -17 -6 -10 0 -12 1 -17 6 -5 5 -6 7 -6 17 0 10 1 12 6
17 5 5 7 6 17 6 10 0 12 -1 17 -6z m-82 -139 c6 -8 -3 -41 -13 -48 -4 -3 -5
-3 -9 2 -3 3 -3 5 -2 12 3 17 7 26 12 31 6 7 8 7 12 3z m633 -52 c3 -5 3 -5 0
-10 -2 -3 -5 -5 -7 -5 -2 0 -5 2 -7 5 -3 5 -3 5 0 10 2 3 5 5 7 5 2 0 5 -2 7
-5z m-717 -44 l-5 -5 -4 4 -5 5 4 4 5 5 4 -4 5 -5 -4 -4z m810 -12 c8 -8 7
-28 -2 -39 -7 -9 -27 -9 -34 0 -5 6 -5 21 -1 31 6 12 28 17 37 8z m-735 -13
c11 -10 3 -28 -11 -28 -9 0 -16 6 -16 16 0 14 17 22 27 12z m92 -23 c5 -8 1
-16 -8 -16 -9 0 -13 8 -8 16 2 3 5 5 8 5 3 0 6 -2 8 -5z m-154 -36 c5 -8 1
-16 -8 -16 -9 0 -13 8 -8 16 4 6 11 6 16 0z m-43 -256 c6 -7 6 -22 -1 -28 -9
-10 -31 -5 -34 7 -2 7 1 17 6 22 7 7 22 6 29 -1z m177 -64 c5 -8 1 -16 -8 -16
-9 0 -13 8 -8 16 2 3 5 5 8 5 3 0 6 -2 8 -5z m195 -229 c5 -5 5 -15 0 -20 -9
-9 -24 -2 -24 10 0 8 6 14 14 14 3 0 8 -2 10 -4z"/>
<path d="M1019 2326 c-2 -1 -6 -6 -10 -10 -15 -16 -31 -31 -42 -39 -17 -13
-26 -19 -28 -19 -4 0 -5 -5 -5 -21 l0 -15 10 -7 c7 -5 12 -10 14 -16 7 -16 14
-22 25 -21 6 0 12 0 14 0 2 0 6 3 10 7 3 4 9 10 12 14 3 3 10 11 14 16 4 5 9
11 10 12 4 4 14 18 24 33 10 15 11 17 10 26 0 6 -2 13 -3 16 -3 8 -14 20 -22
23 -9 3 -27 4 -33 1z"/>
</g>
</svg>
