<?xml version="1.0" standalone="no"?>
<!DOCTYPE svg PUBLIC "-//W3C//DTD SVG 20010904//EN"
 "http://www.w3.org/TR/2001/REC-SVG-20010904/DTD/svg10.dtd">
<svg version="1.0" xmlns="http://www.w3.org/2000/svg"
 width="1100.000000pt" height="2850.000000pt" viewBox="0 0 1100.000000 2850.000000"
 preserveAspectRatio="xMidYMid meet">
<metadata>
Created by potrace 1.15, written by Peter Selinger 2001-2017
</metadata>
<g transform="translate(0.000000,2850.000000) scale(0.500000,-0.500000)"
fill="#000000" stroke="none">
<path d="M1642 3820 c-3 -1 -13 -10 -22 -20 -8 -9 -18 -20 -22 -24 -3 -4 -7
-9 -9 -12 -1 -3 -3 -7 -5 -9 -1 -2 -4 -10 -8 -17 -6 -14 -11 -19 -31 -29 -6
-3 -11 -7 -11 -7 0 -1 -1 -2 -3 -2 -1 0 -6 -2 -11 -4 -8 -5 -12 -5 -51 -5
-127 -2 -126 -2 -134 -6 -8 -3 -19 -13 -19 -17 -1 -3 -1 -4 -2 -8 -4 -9 -6
-17 -6 -21 0 -8 -8 -15 -18 -15 -9 0 -11 2 -26 20 l-5 6 5 1 c3 0 -1 1 -9 0
-14 0 -22 -2 -27 -8 -8 -9 -33 -12 -43 -5 -2 2 -6 7 -7 12 -7 21 -18 33 -32
38 -7 2 -133 4 -135 2 -1 0 -2 -1 -4 -1 -5 -1 -15 -9 -15 -12 0 -2 -1 -3 -2
-3 -1 0 -2 -1 -2 -1 2 -6 -10 -18 -16 -18 -8 0 -11 5 -11 20 0 24 -6 31 -34
39 -22 7 -32 11 -37 16 -5 4 -40 2 -49 -3 -6 -3 -6 -3 -10 2 -3 2 -6 10 -8 17
-7 24 -15 31 -51 42 -8 3 -16 6 -18 7 -7 6 -21 9 -32 7 -12 -3 -14 -6 -14 -23
l0 -11 11 -5 c6 -3 14 -6 18 -6 5 -1 10 -4 13 -6 9 -10 3 -33 -9 -33 -10 0
-30 -9 -36 -16 -9 -10 -9 -13 -9 -140 l0 -121 -6 -9 c-3 -4 -6 -7 -7 -7 -4 5
-41 -13 -56 -28 -9 -8 -13 -15 -44 -82 -3 -7 -10 -21 -14 -31 -5 -10 -12 -24
-14 -30 -3 -6 -9 -19 -14 -29 -27 -57 -28 -58 -30 -90 0 -9 -2 -21 -4 -27 -1
-6 -2 -12 -1 -13 1 -1 1 -4 1 -5 -1 -3 5 -11 6 -8 0 0 3 -1 6 -2 3 -1 8 -2 11
-2 7 0 14 -6 14 -13 0 -2 -1 -9 -3 -15 -4 -15 -12 -22 -24 -22 -9 0 -12 2 -21
16 -3 4 -5 7 -6 6 -2 -2 -10 -1 -10 1 0 1 -1 3 -3 4 -3 1 -11 18 -16 32 -2 8
-2 16 -2 28 1 18 -3 35 -7 35 -1 0 -2 1 -2 3 0 2 -14 12 -25 18 -10 5 -11 8
-10 33 1 19 0 23 -3 30 -3 7 -6 10 -20 21 -2 1 -6 4 -10 6 -3 2 -6 5 -6 5 0 1
-1 2 -3 2 -2 0 -3 1 -3 2 0 3 -49 28 -57 28 -15 0 -24 -5 -31 -18 -9 -18 -16
-22 -25 -13 -3 3 -3 5 -2 12 3 10 1 28 -4 37 -9 15 -51 20 -75 8 -9 -4 -22
-17 -27 -26 -5 -11 -7 -14 -17 -25 -8 -8 -11 -14 -14 -25 l-5 -15 6 -21 c3
-12 7 -25 8 -31 3 -8 3 -12 0 -26 -2 -8 -3 -19 -3 -22 0 -15 14 -43 25 -50 6
-4 28 -7 31 -4 3 4 8 28 7 34 -2 8 4 14 11 14 7 0 11 -5 14 -19 4 -13 7 -20
20 -36 7 -9 9 -25 3 -35 -4 -9 -6 -10 -17 -9 -18 1 -36 -11 -39 -26 -3 -12 1
-23 8 -29 10 -8 30 -7 39 3 4 6 11 21 10 25 0 1 2 7 4 12 5 10 6 10 21 3 6 -2
12 -5 14 -5 10 -2 17 -19 13 -33 -2 -8 0 -24 4 -32 5 -9 10 -11 28 -11 23 0
45 8 81 29 2 1 6 2 8 2 6 -1 6 -9 -2 -27 -6 -13 -2 -30 9 -43 10 -10 11 -15 7
-21 -3 -3 -5 -5 -8 -4 -5 1 -33 -3 -33 -6 0 0 -1 -1 -2 0 -3 2 -14 -12 -20
-26 -4 -8 -9 -19 -12 -26 -6 -12 -8 -23 -8 -47 0 -12 -1 -14 -25 -35 -13 -11
-16 -20 -14 -37 2 -19 18 -36 39 -41 4 -1 8 -2 9 -1 1 0 8 -1 16 -2 8 -2 16
-3 20 -3 3 0 6 -1 7 -1 0 0 2 0 3 0 0 0 1 -1 1 -2 0 -1 1 -2 2 -1 1 1 1 -1 0
-5 -8 -27 -3 -38 19 -53 6 -4 11 -9 12 -11 1 -2 2 -4 4 -5 3 -1 2 -6 -3 -11
-4 -4 -18 -3 -31 2 -8 3 -23 3 -33 -1 -18 -6 -42 -11 -46 -9 -3 1 -4 2 -3 2 1
0 0 2 -2 4 -3 3 -4 9 -4 34 -1 30 -2 36 -9 46 -4 5 -5 6 -18 6 -13 1 -13 1
-21 -7 -4 -4 -8 -9 -9 -12 -1 -2 -4 -7 -6 -10 -2 -3 -5 -7 -5 -9 -1 -2 -3 -5
-5 -8 -2 -3 -7 -10 -11 -16 -12 -20 -16 -21 -80 -22 -58 -2 -59 -2 -59 -4 0
-1 -1 -2 -3 -2 -4 0 -14 -12 -18 -21 -5 -13 -4 -39 2 -52 8 -16 19 -24 40 -27
19 -3 33 5 53 30 6 7 16 8 22 2 4 -4 4 -6 3 -15 -4 -21 -2 -39 4 -52 7 -15 14
-44 16 -62 1 -8 2 -14 2 -15 0 -1 1 -12 2 -25 1 -13 3 -27 4 -30 6 -15 9 -35
7 -44 -3 -12 -1 -30 4 -39 10 -17 12 -22 12 -31 0 -10 -2 -16 -8 -22 -10 -11
-12 -22 -10 -57 0 -8 -10 -28 -14 -28 -1 0 -2 -1 -2 -3 0 -2 -1 -3 -2 -3 -1 0
-4 -6 -7 -13 -8 -21 -9 -43 -2 -64 23 -66 79 -111 147 -116 24 -2 64 3 69 8 3
3 5 4 5 4 1 0 1 6 1 15 0 9 -1 15 -1 15 -1 -1 -3 1 -4 2 -1 2 -2 3 -2 2 0 -3
-14 9 -20 17 -3 4 -10 13 -16 20 -14 14 -16 17 -16 30 0 15 7 22 23 22 14 0
19 -4 27 -22 4 -8 8 -14 9 -14 0 0 1 -1 1 -2 0 -1 3 -7 7 -13 8 -13 9 -27 4
-34 -2 -2 -3 -8 -3 -12 0 -11 3 -13 18 -13 20 0 44 13 70 38 11 10 30 33 30
35 0 0 2 4 5 8 15 21 31 69 31 90 0 5 -2 16 -5 25 -7 26 -7 28 -5 37 4 14 11
19 27 20 15 1 25 -7 29 -20 1 -5 2 -10 1 -10 0 -1 1 -5 2 -10 11 -31 17 -34
62 -34 30 0 33 0 49 6 17 5 42 18 52 26 24 20 51 53 55 67 1 4 6 13 12 21 4 5
7 12 7 15 0 5 0 5 2 1 1 -2 2 -3 2 -2 0 3 4 -3 6 -11 1 -4 2 -25 2 -46 1 -42
1 -46 11 -56 9 -9 20 -12 43 -13 14 0 21 -2 29 -5 11 -5 12 -6 22 -23 4 -7 11
-16 16 -20 18 -16 21 -19 21 -28 0 -18 -19 -24 -32 -10 -22 24 -25 26 -35 29
-8 2 -13 2 -18 0 -8 -2 -19 -10 -19 -14 -1 -2 -1 -5 -2 -7 -2 -7 1 -19 6 -25
11 -15 20 -22 46 -35 15 -7 32 -16 37 -19 13 -8 27 -11 68 -16 18 -3 64 -4 69
-2 7 2 10 8 9 22 -1 9 0 14 1 14 1 0 0 2 -2 4 -6 6 -7 13 -3 17 5 5 8 5 16 1
7 -2 16 -16 14 -20 -1 -2 11 -5 15 -4 2 1 7 0 11 -2 6 -2 9 -3 10 -2 2 2 15
-10 15 -14 0 -1 2 -3 6 -4 3 -2 5 -4 6 -4 1 -1 5 -3 9 -5 12 -6 121 -7 134 -2
13 5 22 17 28 38 5 17 10 20 31 18 9 0 20 -2 23 -3 6 -3 17 -14 17 -17 0 0 3
-5 6 -11 13 -21 25 -22 82 -12 6 1 14 3 18 3 11 2 53 14 64 19 12 6 20 14 25
27 8 26 14 55 14 72 1 20 4 37 9 51 2 5 6 19 9 31 6 23 11 33 23 39 7 4 24 4
37 0 9 -3 17 -4 33 -4 12 1 30 0 40 -1 32 -3 41 3 55 31 7 13 8 17 8 29 0 16
-1 24 -5 32 -2 3 -6 15 -9 26 -3 11 -7 22 -8 25 -7 14 -25 23 -46 25 -10 0
-14 12 -7 19 5 5 9 5 20 -1 17 -8 30 -11 38 -9 20 5 31 2 36 -11 25 -58 23
-56 45 -57 l16 0 4 7 c12 22 19 65 15 101 -2 25 -3 27 -9 48 -12 42 -24 58
-48 61 -8 1 -11 1 -26 -7 -9 -5 -18 -11 -21 -14 -6 -5 -16 -25 -16 -30 2 -22
-3 -32 -18 -32 -11 0 -18 7 -18 17 0 9 2 13 15 28 5 5 8 10 8 11 -1 1 0 2 1 2
1 0 2 7 3 16 2 20 5 28 18 43 14 16 17 22 17 37 0 10 0 13 -5 19 -13 18 -64
60 -103 86 -15 10 -15 10 -31 10 -21 0 -43 -3 -48 -6 -4 -3 -5 -3 -9 -3 -1 0
-9 -6 -16 -14 l-14 -14 -13 0 c-18 0 -23 5 -25 21 -1 23 6 30 31 30 19 0 21 1
21 12 0 4 -1 9 -2 13 -2 6 -4 9 -13 16 -1 0 -5 2 -9 4 -4 1 -10 4 -14 6 -14 6
-30 1 -47 -14 -10 -8 -10 -8 -20 -7 -18 1 -31 -4 -35 -14 -3 -7 2 -22 18 -61
16 -39 26 -64 34 -92 24 -75 22 -72 44 -73 11 0 15 1 21 5 15 10 27 12 39 7
12 -5 18 -21 14 -36 -3 -11 -8 -15 -27 -22 -8 -3 -22 -10 -30 -15 -19 -13 -24
-13 -36 -2 l-8 8 -17 0 c-9 0 -16 0 -17 0 0 -1 -6 -15 -12 -32 -6 -17 -12 -33
-13 -35 -1 -2 -8 -20 -16 -40 -26 -66 -34 -79 -49 -85 -11 -4 -39 -5 -133 -6
-61 0 -94 -1 -98 -2 -13 -5 -20 -12 -28 -29 -9 -19 -12 -21 -25 -21 -7 0 -10
1 -14 5 -6 6 -7 10 -4 41 1 13 1 22 -1 26 -2 8 -11 19 -16 20 -15 4 -19 5 -20
7 -1 1 -2 1 -2 0 0 -4 -16 0 -20 5 -3 4 -4 8 -4 22 0 9 0 19 -1 22 -1 3 -1 6
-2 7 0 1 -2 5 -4 8 -17 24 -14 43 7 43 13 0 18 -6 18 -24 0 -16 1 -20 3 -26 2
-4 2 -5 3 -9 0 -3 1 -3 1 -1 1 1 6 2 13 2 8 0 12 1 12 3 0 1 1 1 1 0 2 -4 8 3
11 11 3 9 3 217 0 226 -4 13 -12 20 -28 28 -17 9 -20 12 -20 22 0 14 8 19 30
20 8 0 16 1 20 2 12 3 19 -4 24 -24 15 -59 24 -118 29 -189 2 -26 12 -48 26
-57 3 -3 6 -5 7 -6 1 -1 4 -3 8 -6 4 -3 9 -6 10 -8 5 -4 40 -23 40 -21 0 1 2
0 4 -1 2 -1 10 -2 17 -2 22 0 20 -1 21 15 0 10 -1 15 -3 18 -7 9 -1 23 10 23
2 0 11 -2 18 -5 23 -9 31 -11 43 -12 6 -1 16 -3 23 -4 7 -2 15 -3 19 -3 8 0
25 5 29 8 14 12 31 37 42 62 5 12 5 16 4 28 -1 14 -7 32 -11 32 -1 0 -2 1 -2
3 0 1 -1 4 -3 5 -1 2 -2 5 -2 8 0 4 1 5 6 6 9 2 13 5 12 11 -1 2 -2 7 -2 10 0
3 -1 6 -3 8 -1 1 -2 3 -2 4 0 1 -2 3 -3 3 -3 1 -5 6 -8 13 -3 10 -3 12 -1 28
3 20 2 29 -5 40 -12 20 -29 24 -53 12 -10 -5 -17 -7 -28 -8 -7 0 -16 -2 -18
-3 -3 -2 -5 -3 -6 -2 -2 0 -9 -3 -18 -8 -19 -11 -34 -6 -34 11 0 9 6 17 13 17
11 0 36 10 44 18 2 2 8 6 13 9 18 11 20 14 20 30 l0 15 -16 15 c-10 8 -20 17
-23 19 -3 3 -7 6 -8 7 -1 1 -5 3 -7 5 -2 2 -8 6 -13 9 -8 7 -24 12 -31 10 -2
0 -4 0 -4 1 0 2 -6 -2 -14 -7 0 -1 0 -2 2 -4 1 -1 2 -3 1 -3 0 -1 -1 -8 -2
-16 -2 -23 -8 -31 -28 -31 -18 0 -27 9 -28 27 0 15 4 21 16 27 16 8 17 10 17
25 0 16 -1 17 -14 24 -34 19 -48 22 -65 14 -14 -6 -24 -10 -27 -9 -3 0 -10 6
-10 9 -1 5 -7 16 -9 16 -1 0 -1 1 0 2 1 0 3 4 5 7 1 3 3 5 4 4 1 -1 2 0 2 1 0
1 4 2 9 3 4 1 11 2 15 2 5 1 10 5 20 15 l13 14 12 0 12 0 12 -13 c7 -7 16 -15
21 -17 l9 -5 79 0 79 0 6 -5 c3 -4 7 -6 8 -6 1 0 2 -1 2 -3 0 -10 19 -20 41
-22 5 -1 12 -3 18 -7 12 -7 28 -9 42 -5 6 2 11 3 13 2 3 0 9 -8 14 -19 13 -24
22 -26 64 -16 37 9 55 15 63 22 8 6 16 21 16 28 0 2 1 4 2 6 2 1 2 2 2 2 -3 0
3 18 9 29 11 17 14 20 30 29 28 15 33 24 33 62 0 21 -1 28 -4 36 -2 6 -5 11
-6 12 -5 3 -14 25 -14 32 0 7 9 29 14 32 1 1 4 6 6 12 4 10 4 12 4 143 -1 146
-1 141 -13 147 -8 3 -27 6 -28 4 -1 -1 -4 -2 -7 -2 -24 -2 -31 10 -23 39 6 25
14 36 25 36 9 0 30 7 35 11 8 7 11 17 11 41 0 28 4 39 15 44 8 4 18 10 19 12
0 0 1 1 3 1 4 0 31 25 34 32 4 7 4 24 0 31 -4 10 -27 27 -40 31 -4 1 -16 3
-26 4 -24 3 -26 5 -36 29 -9 22 -18 33 -36 46 -7 5 -13 10 -15 12 -2 1 -11 9
-22 17 -17 13 -19 14 -28 14 -13 -1 -22 -5 -32 -16 -8 -10 -10 -10 -19 -10
-13 0 -19 6 -19 19 0 6 1 11 3 13 2 2 3 4 3 6 0 1 1 2 2 2 5 0 8 25 4 35 -4 9
-25 12 -38 5z m117 -124 c7 -7 7 -16 -1 -23 -12 -10 -24 -4 -24 11 0 14 15 21
25 12z m-876 -33 c6 -6 7 -23 2 -28 -2 -1 -3 -3 -3 -4 0 -5 -8 -9 -13 -7 -1 0
-2 0 -2 0 -1 0 -3 1 -3 2 -2 3 -10 4 -38 5 -29 0 -32 1 -32 13 0 9 6 14 17 14
11 0 31 3 40 7 13 4 26 4 32 -2z m837 -23 c5 -7 6 -27 0 -34 -7 -9 -27 -9 -34
0 -5 6 -5 24 0 30 3 4 18 10 25 9 3 0 7 -2 9 -5z m-267 -12 c4 -3 5 -7 5 -12
0 -7 6 -24 10 -32 5 -8 34 -2 37 7 1 1 5 4 9 6 9 4 17 2 27 -8 4 -4 12 -10 18
-14 6 -4 13 -10 15 -12 8 -10 4 -37 -8 -54 -4 -7 -5 -9 -5 -25 0 -9 1 -21 2
-27 2 -12 -1 -15 -18 -24 -24 -13 -34 -38 -23 -60 7 -15 18 -19 52 -21 1 0 5
-3 8 -6 6 -6 6 -6 6 -25 0 -10 0 -20 1 -21 1 -1 0 -2 -1 -2 -1 0 0 -2 2 -4 3
-2 4 -4 3 -4 -2 0 15 -14 22 -17 27 -14 40 -36 28 -47 -8 -8 -44 -14 -55 -9
-14 6 -21 21 -15 37 9 27 2 39 -34 57 l-22 11 -28 0 -28 0 -5 6 -6 7 0 73 c0
41 -1 76 -2 78 -1 1 -3 6 -5 11 -2 4 -6 11 -10 15 -19 21 -22 26 -29 53 -5 19
-4 28 2 40 10 22 35 34 47 23z m379 -24 c5 -5 5 -15 0 -20 -9 -9 -24 -2 -24
10 0 8 6 14 14 14 3 0 8 -2 10 -4z m-708 -3 c4 -4 7 -12 9 -29 3 -20 11 -28
41 -39 16 -6 21 -12 21 -28 0 -13 -5 -22 -13 -25 -8 -3 -25 -3 -28 -1 -3 3
-21 0 -30 -5 -12 -7 -12 -24 -2 -36 5 -5 27 -16 32 -16 11 0 17 -24 8 -33 -3
-3 -6 -5 -8 -5 -5 0 -27 -11 -31 -16 -6 -6 -11 -18 -11 -26 0 -7 -10 -26 -13
-26 -2 0 -7 -5 -12 -11 -20 -24 -19 -23 -34 -23 -26 0 -31 14 -18 54 l7 23 0
57 c0 61 -1 67 -10 76 -6 6 -28 14 -36 14 -8 -1 -18 6 -28 18 -5 6 -16 15 -24
21 -13 10 -15 11 -25 11 -14 0 -20 -3 -29 -15 -12 -14 -17 -18 -28 -18 -9 0
-11 1 -16 7 -8 7 -9 22 -2 31 5 7 26 23 29 23 2 0 5 2 8 5 3 3 7 4 9 4 1 -1 6
-2 10 -3 8 -2 33 -1 54 1 17 2 26 0 55 -12 24 -9 40 -13 53 -10 5 0 24 14 23
15 -1 1 0 2 1 2 1 0 3 2 4 5 6 12 25 17 34 10z m-347 -137 c8 -8 8 -22 -1 -36
-4 -6 -8 -13 -9 -16 -1 -3 -4 -9 -7 -15 -2 -5 -4 -10 -4 -12 0 -10 -27 -12
-29 -1 -2 6 -2 10 2 24 3 7 4 9 5 8 1 -2 2 2 2 9 1 31 1 33 7 39 9 9 24 9 34
0z m469 -13 l-5 -5 -4 4 -5 5 4 4 5 5 4 -4 5 -5 -4 -4z m-351 4 c12 -12 3 -31
-13 -31 -11 0 -18 7 -18 18 0 11 7 18 18 18 6 0 9 -1 13 -5z m836 -80 c3 -5 3
-5 0 -10 -2 -3 -5 -5 -7 -5 -2 0 -5 2 -7 5 -3 5 -3 5 0 10 2 3 5 5 7 5 2 0 5
-2 7 -5z m-452 -30 c3 -3 3 -3 0 -6 -3 -3 -3 -3 -6 0 -3 2 -3 3 -1 6 4 4 4 4
7 0z m-61 -30 c13 -6 17 -20 13 -40 -4 -18 -4 -42 -1 -50 3 -7 3 -7 -3 -12 -3
-2 -5 -4 -5 -6 0 -4 -14 -10 -23 -10 -15 -1 -23 5 -36 27 -12 21 -14 29 -10
40 2 5 4 9 5 10 2 2 14 20 14 21 0 4 13 17 19 20 7 3 19 3 27 0z m-528 -57 c5
0 6 -4 6 -58 0 -56 1 -61 18 -81 15 -18 15 -16 15 -57 1 -43 2 -50 14 -68 8
-11 9 -15 10 -23 0 -18 -3 -22 -24 -32 -34 -16 -33 -14 -33 -121 0 -96 -1 -86
15 -116 6 -12 7 -15 8 -32 0 -22 4 -31 18 -45 11 -12 12 -15 15 -25 4 -14 -4
-32 -15 -35 -9 -2 -31 -13 -38 -19 -9 -8 -13 -21 -13 -40 0 -18 -3 -26 -13
-41 -12 -17 -15 -31 -10 -48 4 -16 4 -14 -3 -21 -7 -7 -12 -7 -28 -1 -16 6
-34 7 -43 1 -11 -7 -38 -36 -53 -56 -8 -11 -17 -5 -25 15 -10 25 -9 24 -24 23
-19 0 -20 -1 -25 -10 -6 -11 -11 -14 -24 -14 -9 0 -11 1 -16 6 -5 5 -6 7 -6
17 0 16 7 23 22 23 6 0 13 -1 17 -3 10 -5 25 -3 30 4 4 5 4 8 4 49 0 24 2 52
3 63 3 19 3 20 -1 32 -5 13 -15 30 -19 31 -2 1 -3 7 -3 16 -1 19 -2 23 -7 30
-6 8 -12 13 -21 16 -4 1 -9 3 -11 4 -2 0 -4 1 -5 1 -1 0 -5 1 -8 3 -3 1 -7 2
-8 2 -2 0 -3 1 -2 2 1 1 0 2 -1 2 -2 1 2 4 9 7 11 6 20 6 39 1 7 -2 23 -14 23
-18 0 -1 1 -3 1 -4 0 -1 2 -2 5 -1 2 1 9 1 15 1 6 0 12 1 13 1 5 4 10 18 20
59 20 78 31 120 61 231 29 105 30 110 28 119 -2 10 -8 21 -17 31 -6 8 -12 27
-12 44 0 24 5 31 21 31 5 0 13 1 17 3 11 2 11 2 13 3 8 1 22 22 25 36 0 3 2 7
3 11 1 3 2 7 3 10 0 2 3 12 6 21 3 9 5 20 5 23 0 5 1 5 1 2 1 -3 3 -5 5 -5z
m628 -13 c4 -4 4 -6 3 -24 0 -13 0 -22 2 -24 1 -2 2 -5 2 -7 1 -3 4 -6 7 -7 2
0 7 -2 12 -5 5 -2 10 -4 12 -4 2 0 6 -3 9 -6 5 -5 5 -7 5 -22 0 -33 -8 -50
-22 -50 -5 0 -9 1 -11 5 -5 5 -11 25 -11 36 0 9 -12 33 -18 34 -2 1 -6 3 -9 4
-3 2 -10 4 -15 6 -11 4 -14 6 -19 17 -4 9 -4 18 0 18 1 0 4 3 6 8 10 22 35 34
47 21z m181 -5 c-1 -1 0 -2 2 -2 3 0 6 -8 10 -25 2 -8 4 -17 5 -20 1 -3 2 -33
2 -72 0 -60 1 -68 4 -77 2 -6 5 -12 7 -14 9 -10 11 -22 6 -35 -6 -13 -19 -18
-50 -19 l-24 -1 -5 6 -6 7 0 87 c0 84 0 88 -4 97 -4 9 -19 24 -24 24 -1 0 -4
3 -6 7 -4 7 -4 7 -1 12 2 3 5 5 6 5 3 0 20 -7 24 -10 1 -1 3 -2 3 -1 0 1 1 0
3 -1 3 -3 20 -1 24 2 1 1 5 8 8 15 3 7 7 13 9 13 1 0 2 1 2 2 -1 3 0 4 3 3 1
0 2 -2 2 -3z m-412 -28 c26 -12 24 -3 25 -123 l1 -102 -6 -6 -6 -6 -24 1 c-22
0 -24 0 -30 6 l-6 5 0 50 c1 58 0 64 -16 79 -15 16 -26 39 -28 61 -2 17 0 20
35 33 25 10 36 10 55 2z m-756 -13 c4 -4 5 -7 5 -15 0 -14 -6 -20 -20 -20 -14
0 -20 6 -20 20 0 14 6 20 20 20 8 0 11 -1 15 -5z m1478 -21 c10 -9 3 -26 -10
-26 -8 0 -15 7 -15 15 0 13 16 20 25 11z m-860 -100 c7 -6 7 -19 1 -25 -6 -7
-19 -7 -25 -1 -7 6 -7 19 -1 25 6 7 19 7 25 1z m329 -11 c3 -3 4 -7 4 -14 0
-13 -6 -19 -19 -19 -13 0 -19 6 -19 19 0 7 1 11 4 14 7 8 23 8 30 0z m-912
-19 c5 -6 5 -12 0 -18 -7 -8 -22 -2 -22 9 0 11 15 17 22 9z m456 -6 c5 -6 5
-12 0 -18 -7 -8 -22 -2 -22 9 0 11 15 17 22 9z m566 -10 c11 -6 18 -16 18 -25
0 -6 -2 -9 -12 -20 l-13 -14 0 -12 c0 -7 0 -12 1 -13 1 -1 3 -6 6 -11 2 -6 5
-10 6 -10 1 1 2 -1 2 -3 -1 -3 -2 -5 -3 -5 -2 0 -5 -1 -7 -3 -5 -5 -15 -3 -32
4 -11 4 -19 7 -28 9 -1 0 -5 1 -9 2 -18 3 -24 11 -24 29 1 22 9 27 40 26 4 0
9 0 11 1 5 1 16 7 16 9 0 0 1 3 1 5 1 2 2 10 2 17 1 7 2 14 4 15 3 4 11 4 21
-1z m339 -19 c4 -4 2 -14 -7 -30 -3 -6 -6 -12 -6 -13 0 -1 -1 -4 -3 -6 -3 -3
-9 -17 -14 -34 -2 -5 -3 -13 -3 -19 0 -7 -1 -11 -4 -14 -10 -10 -28 -4 -28 10
0 4 3 13 7 21 4 8 8 15 8 16 0 1 1 4 2 7 2 4 3 11 3 15 0 8 1 11 10 20 5 7 10
12 12 13 2 1 4 3 5 6 0 3 3 6 7 8 7 4 8 4 11 0z m-528 -32 c13 -5 14 -11 18
-79 1 -9 2 -20 3 -24 1 -4 1 -8 0 -8 -1 0 -2 -3 -3 -6 0 -4 -2 -6 -3 -5 -1 1
-2 0 -2 -1 0 -1 -1 -1 -2 -2 -2 0 -5 0 -8 -1 -3 0 -9 1 -14 3 -5 2 -10 3 -11
3 -2 -2 -3 9 -3 20 l1 11 -21 10 c-25 12 -28 15 -28 22 0 6 4 19 9 28 3 6 12
11 15 9 1 -1 2 0 2 2 0 4 14 17 21 19 9 3 18 2 26 -1z m-373 -38 l-5 -5 -4 4
-5 5 4 4 5 5 4 -4 5 -5 -4 -4z m183 9 c0 -1 1 -2 3 -4 2 -3 1 -4 -3 -9 -6 -6
-9 -6 -14 0 -3 5 -3 5 0 10 3 3 5 5 9 4 2 0 5 -1 5 -1z m430 -31 c3 -3 3 -3 0
-6 -3 -3 -4 -3 -5 -1 0 1 -3 2 -6 2 -3 0 -6 1 -6 2 0 1 3 2 6 2 3 0 6 1 6 2 0
3 2 2 5 -1z m-337 -45 c4 -3 8 -7 8 -8 0 -3 18 -12 32 -16 15 -5 28 -12 21
-12 -2 0 -3 -1 -3 -1 1 -1 0 -4 -1 -6 -7 -12 -6 -21 6 -50 14 -38 14 -38 7
-42 -4 -3 -9 -4 -26 -4 -14 0 -23 -1 -27 -3 -8 -4 -17 -22 -18 -35 -2 -14 -9
-22 -23 -22 -13 0 -19 5 -27 22 -8 15 -14 19 -34 18 -9 0 -14 -1 -15 -2 -1 -4
-14 -3 -19 1 -7 5 -11 13 -11 20 0 6 2 9 11 17 21 19 47 45 50 51 5 10 9 23 9
30 0 9 9 28 15 33 3 2 6 4 8 6 11 11 24 12 37 3z m-310 -14 c11 -8 13 -36 4
-45 -11 -11 -37 -5 -43 9 -5 12 -3 29 4 35 7 7 28 7 35 1z m185 -9 c8 -8 6
-24 -5 -32 -2 -2 -8 -5 -13 -8 -11 -5 -18 -11 -30 -26 -14 -17 -17 -19 -30
-20 -23 -2 -36 15 -31 38 3 12 8 16 34 24 18 5 25 8 31 14 17 15 35 19 44 10z
m-101 -160 c0 -4 1 -10 3 -15 3 -8 5 -12 13 -30 5 -12 3 -28 -6 -45 -4 -7 -10
-31 -10 -41 0 -11 -6 -36 -8 -36 -1 0 -2 -2 -2 -4 0 -3 -1 -4 -2 -3 -3 5 -27
6 -33 2 -10 -6 -26 -2 -32 7 -7 13 -2 34 9 34 6 0 25 9 30 15 7 8 8 24 1 36
-6 10 -12 26 -14 39 -1 4 -4 14 -7 22 -9 21 -5 27 16 29 5 1 15 3 20 4 11 2
11 2 17 -3 3 -3 5 -7 5 -11z m889 -84 c7 -4 10 -11 10 -23 0 -13 -4 -21 -12
-24 -13 -6 -57 -18 -63 -18 -10 0 -16 7 -16 17 0 9 4 14 21 28 7 5 15 12 19
15 4 3 9 7 12 7 3 1 6 2 7 2 4 1 18 -1 22 -4z m-354 -77 c7 -6 7 -19 1 -25 -6
-7 -19 -7 -25 -1 -7 6 -7 19 -1 25 6 7 19 7 25 1z m-1110 -2 c6 -3 7 -10 4
-17 -5 -8 -13 -9 -18 -3 -4 7 -4 8 3 16 6 6 8 7 11 4z m615 -31 c16 -3 21 -17
11 -35 -6 -11 -12 -23 -19 -39 -8 -17 -19 -22 -34 -15 -13 5 -16 26 -6 44 3 6
6 15 8 20 1 5 3 12 4 15 1 4 2 8 2 11 0 2 1 6 2 8 2 3 3 3 13 -2 6 -3 15 -6
19 -7z m618 1 c3 -2 8 -4 11 -4 3 0 5 -1 5 -2 0 -1 -3 -1 -6 0 -3 0 -6 0 -6
-2 0 -1 -3 -2 -7 -3 -6 -1 -9 0 -12 3 l-5 5 4 4 c5 5 8 5 16 -1z m-1171 -71
c3 -3 3 -3 0 -6 -3 -3 -3 -3 -6 0 -3 2 -3 3 -1 6 4 4 4 4 7 0z m390 -18 c2 -4
3 -7 2 -8 -1 -2 -2 -10 -1 -17 1 -14 1 -15 10 -22 5 -5 10 -8 11 -7 4 1 15 -7
17 -13 1 -3 2 -10 2 -17 -2 -16 -7 -21 -25 -21 -10 0 -14 1 -18 5 -5 4 -11 22
-12 38 -1 8 -7 15 -13 15 -7 0 -26 17 -26 23 0 9 14 21 31 26 12 4 18 4 22 -2z
m230 -34 c6 -4 6 -6 6 -20 0 -14 0 -16 -6 -20 -4 -4 -7 -5 -18 -5 -11 0 -14 1
-18 5 -6 4 -6 6 -6 20 0 14 0 16 6 20 4 4 7 5 18 5 11 0 14 -1 18 -5z m86 -63
c15 -5 19 -36 6 -47 -12 -11 -34 -11 -43 0 -9 10 -9 32 0 42 7 8 23 10 37 5z
m609 -39 c19 -10 11 -65 -11 -76 -12 -7 -32 -3 -37 6 -8 16 1 63 13 69 10 6
24 6 35 1z m-1058 -10 c12 -5 18 -21 14 -36 -4 -16 -14 -21 -40 -20 -18 1 -39
-3 -48 -10 -1 -1 -7 -2 -12 -2 -9 0 -11 1 -16 7 -9 8 -9 23 -1 32 3 3 7 6 10
6 8 0 39 9 45 13 19 12 35 15 48 10z m195 -52 c6 -9 -2 -24 -17 -30 -12 -5
-18 -6 -22 -1 -5 6 -5 7 -1 16 4 8 9 12 21 16 12 5 15 5 19 -1z m-460 -10 c4
-4 5 -7 5 -15 0 -14 -6 -20 -20 -20 -14 0 -20 6 -20 20 0 14 6 20 20 20 8 0
11 -1 15 -5z m1177 -34 c3 -3 6 -13 9 -28 2 -12 9 -22 19 -31 18 -14 23 -28
14 -37 -8 -9 -24 -5 -39 8 -3 3 -8 6 -11 8 -12 6 -18 19 -24 48 -4 18 -3 27 2
32 7 8 23 8 30 0z m-539 -19 c2 -3 3 -8 3 -15 0 -16 -5 -21 -21 -21 -16 0 -21
5 -21 21 0 7 1 12 4 15 7 9 27 9 35 0z m128 -25 c3 -5 3 -5 0 -10 -2 -3 -5 -5
-7 -5 -2 0 -5 2 -7 5 -3 5 -3 5 0 10 2 3 5 5 7 5 2 0 5 -2 7 -5z m166 -9 c7
-6 7 -19 1 -25 -6 -7 -19 -7 -25 -1 -7 6 -7 19 -1 25 6 7 19 7 25 1z m-772
-18 c10 -9 3 -26 -10 -26 -8 0 -15 7 -15 15 0 13 16 20 25 11z m677 -16 c5 -5
5 -15 0 -20 -9 -9 -24 -2 -24 10 0 8 6 14 14 14 3 0 8 -2 10 -4z m71 -80 c13
-4 20 -11 20 -24 0 -16 -7 -21 -32 -24 -11 -1 -22 -2 -24 -1 -10 2 -17 30 -11
41 5 9 27 13 47 8z"/>
<path d="M236 3806 c-16 -3 -33 -13 -40 -22 -6 -8 -6 -10 -6 -21 1 -13 1 -14
18 -38 9 -14 24 -38 33 -53 9 -15 18 -30 20 -34 22 -36 59 -126 72 -176 8 -29
18 -46 34 -58 10 -6 36 -19 51 -25 29 -10 45 2 47 35 1 17 5 24 16 32 31 24
61 21 61 -6 0 -5 -1 -13 -3 -17 -2 -4 -3 -12 -3 -18 0 -22 13 -25 40 -11 17 9
27 21 37 43 8 17 11 22 22 32 16 14 24 29 27 52 3 19 1 33 -4 39 -3 4 -6 5
-18 5 -14 1 -15 0 -19 -4 -7 -9 -28 -10 -35 -1 -6 7 -5 25 1 31 2 2 10 9 17
15 15 13 20 27 16 40 -2 4 -3 8 -3 9 -3 16 -35 47 -76 72 -10 7 -63 32 -79 38
-48 18 -124 34 -187 40 -8 1 -18 1 -22 2 -4 0 -12 0 -17 -1z m129 -85 c5 -5 5
-8 0 -23 -3 -11 -5 -21 -6 -32 -1 -7 -2 -15 -3 -18 -3 -6 -2 -34 0 -45 2 -7 2
-9 -1 -12 -9 -9 -21 -3 -20 9 2 17 2 35 0 41 -1 3 -5 11 -10 16 -18 22 -25 37
-21 52 3 15 12 19 40 18 15 0 17 0 21 -6z m83 -26 c21 -9 20 -45 -2 -54 -6 -3
-19 -2 -26 0 -14 6 -19 24 -12 43 4 11 26 16 40 11z"/>
<path d="M42 3339 c-21 -8 -28 -18 -26 -38 1 -13 5 -18 18 -22 21 -7 35 0 50
23 7 10 7 16 3 25 -9 17 -21 21 -45 12z"/>
</g>
</svg>
