<?xml version="1.0" standalone="no"?>
<!DOCTYPE svg PUBLIC "-//W3C//DTD SVG 20010904//EN"
 "http://www.w3.org/TR/2001/REC-SVG-20010904/DTD/svg10.dtd">
<svg version="1.0" xmlns="http://www.w3.org/2000/svg"
 width="1100.000000pt" height="2850.000000pt" viewBox="0 0 1100.000000 2850.000000"
 preserveAspectRatio="xMidYMid meet">
<metadata>
Created by potrace 1.15, written by Peter Selinger 2001-2017
</metadata>
<g transform="translate(0.000000,2850.000000) scale(0.500000,-0.500000)"
fill="#000000" stroke="none">
<path d="M473 3805 c-5 -1 -14 -2 -18 -2 -4 1 -12 0 -17 -2 -9 -3 -19 -11 -17
-14 1 0 1 -1 -1 -1 -1 0 -2 -3 -3 -6 -1 -4 -2 -8 -2 -8 0 -1 -1 -4 -1 -7 -1
-18 -29 -21 -43 -4 -5 8 -15 11 -28 11 l-13 0 -16 -16 c-29 -28 -49 -62 -58
-98 -6 -20 -7 -60 -2 -69 2 -4 3 -7 2 -7 -4 0 7 -39 13 -49 6 -9 23 -14 42
-14 8 1 11 0 12 -2 0 -2 2 -3 4 -3 4 0 5 -8 1 -15 -2 -4 -3 -7 -3 -8 1 0 1 -1
-1 -1 -1 0 -2 -3 -2 -7 1 -11 6 -15 20 -15 9 0 10 0 10 4 0 2 1 4 3 4 2 0 3 1
2 2 -1 1 0 6 2 10 7 16 33 22 45 10 10 -9 8 -30 -3 -39 -4 -3 -4 -28 -1 -35 3
-7 9 -9 32 -12 59 -8 125 14 168 56 15 15 28 30 28 34 0 1 1 2 2 2 2 0 21 39
26 54 7 24 9 65 5 87 -7 40 -26 76 -53 106 -18 18 -31 25 -52 28 -15 2 -22 5
-31 13 -6 5 -12 10 -15 11 -8 4 -25 5 -37 2z m-157 -195 c9 -9 2 -24 -10 -24
-12 0 -19 18 -10 25 7 4 15 4 20 -1z"/>
<path d="M1533 3242 c-13 -3 -20 -10 -26 -27 -3 -10 -4 -15 -2 -17 2 -2 -6
-12 -9 -12 -2 0 -14 12 -24 24 l-6 8 -14 -1 c-9 0 -16 -2 -23 -6 -6 -3 -17 -7
-24 -10 -19 -7 -36 -19 -41 -29 -3 -5 -10 -28 -10 -31 0 -4 -7 -15 -9 -15 -3
0 -11 -9 -11 -12 0 -1 -1 -2 -2 -2 -2 0 -2 0 -1 -2 2 -1 3 -5 2 -13 0 -8 1
-12 2 -12 2 -1 10 -6 18 -12 8 -6 15 -11 16 -11 1 0 4 -2 7 -4 6 -5 28 -6 32
-1 7 9 12 21 13 37 2 17 9 23 27 23 19 0 27 -8 27 -27 0 -10 -1 -13 -7 -22
-10 -15 -10 -32 -2 -48 9 -14 11 -16 25 -16 12 0 19 2 19 6 0 6 14 16 21 16
22 0 47 -18 47 -33 0 -18 -25 -19 -56 -3 -14 7 -23 7 -30 -1 -2 -3 -3 -5 -2
-5 2 0 6 -9 7 -17 2 -10 9 -18 24 -28 8 -5 10 -8 16 -24 4 -10 9 -19 10 -21 2
-2 3 -4 3 -6 0 -1 1 -3 3 -3 7 -3 14 -17 14 -29 0 -20 -7 -26 -31 -27 -24 -1
-37 -8 -41 -22 -2 -6 -3 -74 -4 -256 0 -137 -1 -250 -2 -251 0 -1 -1 -22 -1
-48 0 -36 0 -47 3 -51 3 -7 10 -14 14 -14 1 0 6 -2 11 -3 6 -2 11 -3 15 -2 11
3 26 -2 30 -11 5 -8 4 -25 -1 -41 -7 -21 -7 -32 2 -43 11 -11 6 -11 179 -10
87 0 159 1 161 1 1 0 2 1 2 2 0 1 1 2 3 2 4 0 14 12 18 21 6 15 1 45 -10 54
-9 9 -25 15 -41 15 -14 1 -15 1 -20 7 l-6 6 -1 87 c-2 94 -2 97 -13 108 -5 4
-28 13 -33 12 -8 -1 -12 0 -17 6 -5 5 -6 7 -6 18 0 11 1 13 6 18 3 3 7 6 8 6
27 2 41 8 48 22 l4 9 0 206 c0 113 -1 212 -1 219 -2 36 -3 47 -4 53 -1 3 -2 7
-2 10 -2 18 -4 26 -6 38 -2 8 -4 16 -4 19 -6 29 -25 77 -42 107 -39 64 -102
108 -171 118 -15 2 -70 3 -81 1z m30 -80 c8 -8 8 -24 -1 -32 -8 -9 -24 -9 -32
-1 -9 9 -11 29 -4 36 5 5 6 5 18 4 11 -1 14 -2 19 -7z m182 -97 c6 -4 6 -6 6
-20 0 -14 0 -16 -6 -20 -4 -4 -7 -5 -18 -5 -11 0 -14 1 -18 5 -6 4 -6 6 -6 20
0 14 0 16 6 20 4 4 7 5 18 5 11 0 14 -1 18 -5z m-66 -96 c7 -4 24 -21 31 -31
6 -11 6 -28 -1 -35 -8 -10 -30 -10 -39 0 -8 9 -20 35 -21 47 -1 11 -1 12 4 17
6 6 16 7 26 2z m55 -128 l-5 -5 -4 4 -5 5 4 4 5 5 4 -4 5 -5 -4 -4z m-61 -31
c10 -9 15 -35 10 -43 -5 -6 -8 -6 -16 0 -7 6 -10 11 -13 29 -4 19 7 26 19 14z
m111 -48 c5 -5 5 -11 0 -16 -10 -10 -27 5 -16 16 4 4 12 4 16 0z m-205 -335
c3 -5 3 -5 0 -10 -2 -3 -5 -5 -7 -5 -2 0 -5 2 -7 5 -3 5 -3 5 0 10 2 3 5 5 7
5 2 0 5 -2 7 -5z m45 -156 l-5 -5 -4 4 -5 5 4 4 5 5 4 -4 5 -5 -4 -4z m49
-109 c7 -6 7 -19 1 -25 -6 -7 -19 -7 -25 -1 -7 6 -7 19 -1 25 6 7 19 7 25 1z"/>
<path d="M1197 3233 c-4 -2 -11 -4 -14 -5 -8 -2 -102 -35 -110 -38 -3 -1 -9
-3 -12 -4 -3 -1 -23 -8 -44 -15 -21 -7 -53 -18 -71 -24 -39 -13 -68 -24 -78
-28 -15 -7 -28 -24 -28 -37 0 -23 20 -33 49 -24 23 7 37 2 41 -15 2 -7 1 -13
-3 -30 -6 -25 -6 -24 -4 -83 2 -85 3 -90 15 -101 7 -6 19 -9 33 -10 20 -1 28
-10 28 -28 0 -19 -8 -26 -29 -28 -13 -1 -27 -6 -33 -12 -11 -9 -11 -4 -12
-229 0 -115 -1 -217 -2 -226 -1 -9 -1 -38 -2 -64 l-1 -47 -5 -5 c-3 -2 -7 -5
-10 -5 -42 -3 -44 -3 -56 -9 -14 -7 -21 -15 -25 -27 -3 -11 -3 -27 1 -36 4 -9
14 -21 18 -21 2 0 3 -1 3 -2 0 -2 1 -2 43 -3 31 -1 39 -1 47 2 10 3 20 9 25
14 1 1 6 5 10 8 14 9 34 6 46 -8 5 -5 15 -11 24 -14 9 -3 26 -3 151 -2 78 0
142 1 144 1 1 0 2 1 2 2 0 1 1 2 3 2 8 0 22 25 20 37 -3 25 -10 36 -28 45 -11
6 -34 11 -37 9 -1 -1 -4 2 -7 5 -5 6 -5 7 -6 39 -1 27 -2 36 -5 43 -2 4 -5 8
-6 7 -1 -1 -2 -1 -2 0 0 1 -6 2 -14 2 -13 -1 -14 -1 -20 -7 -7 -8 -17 -9 -23
-3 -4 4 -4 5 6 48 4 19 6 23 13 30 11 12 14 17 14 19 0 1 1 2 2 2 0 1 3 5 5 9
2 4 5 9 6 11 2 2 3 3 3 4 -1 1 3 9 8 19 l9 18 -1 71 c0 39 -1 77 -2 85 -1 8
-2 20 -1 27 1 7 2 63 2 123 l1 111 -5 11 c-5 10 -13 18 -26 26 -11 6 -14 13
-13 30 0 3 1 6 3 7 4 4 7 16 7 25 0 9 -4 20 -6 17 -1 -1 -6 0 -14 3 -17 5 -21
11 -19 29 0 17 6 22 24 22 11 0 13 -1 22 -7 16 -13 32 -15 46 -6 7 5 7 5 7 19
0 17 -3 23 -14 30 -5 3 -10 8 -11 10 -4 6 -7 24 -8 56 -1 16 -2 32 -2 35 0 3
-1 15 -2 26 -1 18 -7 40 -11 46 -1 1 -4 4 -6 7 -9 13 -35 18 -53 11z m-22
-303 c12 -5 15 -34 4 -43 -8 -7 -28 -7 -36 0 -6 4 -6 6 -6 20 0 14 0 16 6 20
6 5 22 7 32 3z m45 -264 c1 0 5 -3 8 -6 5 -5 6 -7 6 -18 0 -15 -3 -19 -28 -32
-13 -7 -22 -13 -29 -20 -20 -21 -31 -23 -46 -9 -8 8 -15 23 -15 33 0 5 9 10
24 13 18 4 24 7 39 23 7 6 15 13 18 15 6 2 9 2 23 1z m-37 -152 c11 -10 3 -28
-11 -28 -9 0 -16 6 -16 16 0 14 17 22 27 12z m-175 -21 c3 -3 4 -7 4 -14 0
-13 -6 -19 -19 -19 -13 0 -19 6 -19 19 0 7 1 11 4 14 7 8 23 8 30 0z m117 -82
c7 -5 9 -19 5 -35 -1 -6 -3 -20 -3 -31 -2 -23 -4 -27 -17 -27 -19 0 -39 12
-40 24 -2 13 12 63 19 70 8 6 28 6 36 -1z"/>
<path d="M477 3209 c-6 -6 -11 -12 -11 -13 0 0 -3 -3 -6 -5 -9 -5 -25 -4 -42
3 -15 7 -32 9 -45 6 -3 -1 -11 -3 -17 -4 -6 -1 -12 -3 -14 -3 -4 -2 -5 -2 -8
-3 -1 0 -2 -1 -1 -2 1 -1 0 -2 -1 -2 -1 0 -2 -7 -2 -16 l0 -16 7 -7 c7 -5 7
-7 7 -16 0 -13 -6 -19 -19 -19 -13 0 -19 6 -19 19 0 5 1 11 2 13 3 5 4 16 2
16 -1 0 -1 1 -1 3 1 1 0 3 -1 4 -1 1 -1 2 -1 4 1 1 0 1 -2 -1 -2 -2 -3 -2 -2
0 2 3 -25 3 -48 -2 -20 -4 -25 -6 -46 -20 -8 -5 -19 -12 -24 -16 -6 -3 -13 -9
-16 -13 -7 -9 -10 -12 -17 -18 -4 -3 -4 -5 -4 -17 1 -19 5 -23 28 -25 26 -3
45 -5 46 -4 0 0 3 -2 6 -5 5 -5 7 -10 11 -25 3 -11 6 -21 8 -24 2 -3 3 -5 2
-5 -3 0 12 -14 17 -15 2 0 6 -2 7 -3 2 -2 4 -2 7 1 2 2 4 2 8 0 8 -4 9 -8 5
-14 -5 -6 -9 -6 -13 -2 -4 4 -28 3 -35 -2 -5 -3 -8 -14 -7 -28 0 -4 0 -77 1
-162 1 -142 2 -155 5 -171 5 -22 5 -33 0 -53 -3 -14 -4 -26 -4 -107 l-1 -91 5
-15 c6 -19 6 -31 -1 -50 -5 -14 -5 -18 -6 -55 -2 -54 3 -49 -57 -54 -25 -2
-46 -4 -47 -5 -2 -2 -3 -2 -3 -1 0 2 -7 -6 -10 -11 -3 -6 -6 -26 -4 -29 1 -1
2 -7 3 -13 1 -16 8 -30 18 -35 l8 -5 259 0 c163 0 262 1 266 2 7 2 10 4 37 22
7 4 16 9 20 10 10 3 18 7 25 14 6 5 6 5 6 20 l-1 15 -11 5 c-8 4 -15 6 -26 7
-8 0 -29 2 -46 3 -42 3 -47 3 -69 -8 -10 -5 -20 -10 -23 -10 -19 -2 -26 4 -26
21 0 11 0 12 7 18 21 18 29 26 31 35 3 9 3 139 1 142 -1 1 -2 4 -2 6 -3 14
-12 25 -30 34 -12 5 -17 12 -17 22 0 10 4 15 20 23 15 8 22 16 26 27 1 5 2 98
3 276 1 148 2 277 2 287 2 41 1 102 -1 107 -1 3 -4 7 -7 10 -7 4 -30 8 -32 4
-1 -1 -6 -2 -11 -2 -13 0 -19 5 -21 19 -1 10 -8 27 -13 31 -2 2 -7 3 -14 3
-10 0 -11 0 -21 -10z m58 -156 c12 -7 14 -33 3 -43 -8 -9 -32 -9 -40 0 -9 8
-9 32 0 41 7 7 27 8 37 2z m-207 -19 c7 -7 2 -18 -9 -21 -5 -1 -9 3 -10 12 -2
10 12 16 19 9z m121 -98 c4 -3 7 -5 7 -6 0 -2 15 -18 22 -23 9 -7 12 -13 12
-24 0 -13 -6 -19 -19 -19 -13 0 -17 3 -22 15 -2 6 -7 17 -11 25 -10 20 -11 25
-7 31 4 6 9 6 18 1z m-29 -170 c3 -2 10 -7 14 -13 5 -5 9 -9 10 -9 1 0 9 -4
16 -8 12 -6 16 -10 19 -16 5 -11 21 -27 32 -32 16 -8 23 -22 19 -38 -4 -15
-11 -20 -27 -21 -15 -1 -26 7 -29 21 -3 15 -11 31 -20 41 -5 5 -11 12 -14 16
-2 5 -5 8 -6 9 -1 0 -2 2 -2 3 0 2 -1 3 -2 3 0 0 -2 2 -3 4 -1 3 -5 6 -8 8 -8
4 -21 17 -21 23 0 11 12 16 22 9z m36 -210 c31 -8 36 -11 36 -24 0 -9 -7 -18
-14 -18 -11 -1 -32 0 -49 1 -16 1 -18 2 -23 7 -9 8 -9 26 0 34 8 8 15 8 50 0z
m22 -117 c5 -6 5 -8 -3 -40 -3 -13 -7 -24 -10 -27 -4 -4 -4 -4 -8 0 -6 6 -6
61 0 68 5 6 15 5 21 -1z m28 -252 c3 -3 4 -7 4 -14 0 -13 -6 -19 -19 -19 -13
0 -19 6 -19 19 0 7 1 11 4 14 7 8 23 8 30 0z m-128 3 c1 0 5 -3 8 -6 5 -5 6
-7 6 -18 0 -11 -1 -13 -6 -18 -6 -6 -7 -6 -18 -6 -11 0 -12 0 -18 6 -5 5 -6 7
-6 17 0 14 3 20 12 24 5 2 8 2 22 1z"/>
<path d="M108 3118 c0 -2 -4 -2 -15 -2 -16 1 -18 0 -20 -10 -5 -16 13 -36 34
-37 7 0 16 6 14 9 -1 1 0 2 1 2 1 0 2 4 1 10 0 6 1 10 2 10 1 0 -2 3 -7 8 -4
4 -8 8 -9 10 0 2 -1 2 -1 0z"/>
<path d="M1437 2166 c-14 -6 -21 -15 -25 -27 -3 -11 -3 -27 1 -36 4 -9 14 -21
18 -21 2 0 3 -1 3 -2 0 -1 1 -1 3 -2 32 -3 41 -1 51 9 13 16 13 62 -1 79 -4 5
-6 5 -21 6 -15 0 -18 0 -29 -6z"/>
</g>
</svg>
