<?xml version="1.0" standalone="no"?>
<!DOCTYPE svg PUBLIC "-//W3C//DTD SVG 20010904//EN"
 "http://www.w3.org/TR/2001/REC-SVG-20010904/DTD/svg10.dtd">
<svg version="1.0" xmlns="http://www.w3.org/2000/svg"
 width="1100.000000pt" height="2850.000000pt" viewBox="0 0 1100.000000 2850.000000"
 preserveAspectRatio="xMidYMid meet">
<metadata>
Created by potrace 1.15, written by Peter Selinger 2001-2017
</metadata>
<g transform="translate(0.000000,2850.000000) scale(0.500000,-0.500000)"
fill="#000000" stroke="none">
<path d="M336 3831 c-19 -6 -28 -20 -28 -42 0 -30 15 -43 48 -43 10 0 13 -1
17 -5 6 -4 6 -6 6 -20 0 -14 0 -16 -6 -20 -4 -4 -7 -5 -17 -5 -14 0 -31 -5
-38 -12 -10 -8 -10 -11 -10 -170 l1 -149 -6 -6 -6 -6 -120 1 c-132 0 -131 0
-142 -12 -10 -12 -10 -22 -2 -51 9 -31 15 -44 26 -51 15 -10 16 -10 101 -10
87 0 89 0 101 13 5 6 15 24 16 29 3 14 35 18 46 5 9 -10 7 -33 -5 -52 -10 -16
-10 -15 -10 -151 l0 -127 -5 -7 -5 -7 -84 -19 c-47 -10 -87 -19 -90 -19 -49
-10 -93 -20 -99 -22 -5 -3 -19 -16 -19 -19 0 0 -1 -3 -1 -5 -2 -12 1 -25 26
-105 15 -48 31 -99 35 -113 5 -14 10 -33 13 -41 3 -8 9 -30 15 -47 6 -18 12
-35 14 -37 2 -3 4 -5 4 -6 0 -1 4 -3 8 -6 20 -11 43 -3 70 24 8 8 16 17 18 20
8 12 20 22 45 35 10 5 19 11 21 12 2 1 7 5 13 7 5 3 9 5 9 6 0 4 8 -5 10 -11
1 -3 2 -54 2 -155 l0 -149 -6 -6 -5 -5 -32 1 c-18 1 -34 2 -37 2 -20 3 -56 0
-56 -5 0 -1 -1 -2 -2 -1 -6 1 -13 -30 -7 -32 8 -3 0 -18 -9 -18 -9 0 -17 15
-9 18 3 1 3 4 3 16 -1 14 -1 16 -6 20 -11 9 -59 14 -77 8 -27 -9 -36 -45 -18
-75 6 -10 18 -17 36 -21 27 -6 65 -20 79 -29 3 -2 11 -5 18 -6 17 -3 23 -9 25
-27 1 -5 4 -16 8 -23 19 -37 28 -81 35 -168 2 -27 2 -27 6 -36 4 -10 13 -18
25 -21 9 -3 30 -2 62 4 3 1 12 2 19 3 77 13 149 42 190 76 15 12 35 33 43 44
3 5 6 9 7 10 3 2 20 35 25 50 21 53 24 86 25 257 0 111 0 128 3 137 2 5 4 10
5 10 1 0 2 2 2 3 0 4 0 4 3 0 3 -4 16 -9 25 -8 4 0 14 4 23 8 47 22 48 23 60
45 12 21 13 21 40 16 7 -1 15 -2 19 -1 8 1 40 17 40 19 0 1 2 -1 6 -4 l5 -7 1
-192 c1 -184 1 -192 5 -200 5 -9 16 -18 31 -23 15 -6 18 -10 18 -23 0 -13 -3
-17 -18 -23 -15 -5 -26 -14 -31 -23 -6 -11 -7 -141 -2 -154 4 -9 14 -21 18
-21 2 0 3 -1 3 -2 0 -2 10 -3 58 -3 81 0 138 13 193 43 22 12 26 15 40 29 16
16 18 23 15 46 -3 22 -3 26 3 31 3 3 7 4 13 4 89 0 245 -4 252 -6 5 -1 12 -3
16 -4 14 -4 15 -21 2 -26 -3 -1 -6 -3 -6 -4 0 -1 -2 -2 -3 -2 -14 -1 -25 -46
-16 -67 4 -9 14 -21 18 -21 2 0 3 -1 3 -2 0 -2 10 -3 50 -3 49 0 72 3 91 13 6
3 36 10 45 10 13 0 19 2 53 15 19 7 43 19 45 22 1 1 2 9 2 17 0 15 0 16 -6 21
-16 12 -17 14 -16 29 0 7 8 18 13 18 6 0 27 12 31 18 9 12 10 18 10 71 0 54
-1 58 -12 80 -12 24 -12 34 0 58 13 24 12 13 12 219 l0 189 5 8 c3 5 7 9 11
11 15 5 52 34 57 44 4 8 4 26 -1 33 -2 4 -9 11 -15 15 -7 5 -17 13 -22 17 -6
4 -13 10 -17 13 -3 2 -9 7 -13 10 -4 3 -22 17 -41 31 -75 58 -74 57 -88 61
-22 7 -33 13 -37 22 -2 4 -4 8 -5 8 -1 0 -2 1 -2 3 0 4 -14 18 -22 22 -8 4
-27 3 -34 -2 -5 -3 -25 -24 -44 -45 -3 -5 -10 -12 -15 -17 -4 -4 -14 -15 -22
-24 -7 -8 -20 -22 -29 -30 -12 -13 -16 -19 -21 -31 -4 -8 -8 -15 -9 -16 -2 0
-4 -2 -5 -4 -2 -3 -3 -3 -4 1 -1 1 -3 3 -4 3 -1 0 -4 5 -7 10 -11 23 -17 26
-53 28 -25 1 -28 1 -31 6 -2 2 -5 4 -6 4 -2 0 -2 1 0 2 5 2 88 71 107 89 1 1
10 9 19 17 9 8 18 17 21 19 2 3 8 7 14 9 10 5 13 5 68 6 71 1 72 1 72 27 -1 6
0 11 2 11 1 1 1 2 -1 2 -8 0 -11 23 -6 36 7 18 43 18 50 0 5 -13 2 -36 -6 -36
-2 0 -2 -1 -1 -2 1 0 2 -5 2 -10 0 -5 2 -12 3 -15 3 -6 3 -6 9 -4 4 2 7 3 7 2
0 -3 15 7 26 18 11 12 13 13 21 13 10 0 13 -3 24 -19 5 -6 11 -13 17 -17 l9
-5 65 0 c64 0 65 0 78 5 32 11 54 35 54 56 0 20 -12 34 -78 92 -8 7 -17 15
-19 17 -3 2 -10 9 -16 14 -6 6 -13 11 -15 13 -4 4 -45 39 -64 55 -28 23 -30
27 -26 40 2 6 11 19 26 37 6 6 56 73 68 90 7 10 14 20 16 22 2 2 6 7 8 11 7
10 17 15 35 17 21 3 24 4 40 11 15 8 24 15 36 29 6 8 7 11 7 21 0 12 -3 20 -9
25 -5 5 -18 12 -106 58 -11 6 -24 13 -30 16 -5 3 -20 11 -32 17 -12 6 -26 14
-31 16 -5 3 -13 6 -19 8 -6 2 -12 3 -13 4 -2 1 -2 1 -1 -1 3 -5 -19 9 -23 15
-3 4 -10 9 -16 13 -6 3 -20 10 -31 16 -11 6 -23 12 -26 14 -8 5 -17 6 -27 4
-17 -4 -19 -7 -51 -71 -18 -35 -32 -61 -35 -63 -9 -8 -15 -6 -35 14 -17 16
-45 42 -61 56 -11 10 -15 12 -25 13 -16 1 -23 -3 -34 -20 -6 -8 -11 -17 -11
-18 0 -6 -9 7 -12 17 -1 5 -6 17 -10 27 -9 22 -10 30 -3 37 5 4 15 6 34 4 19
-2 39 13 40 29 2 20 -14 37 -38 40 -17 2 -154 13 -165 13 -10 1 -24 -4 -24 -7
0 -1 -1 -1 -1 0 -2 1 -19 -17 -19 -19 0 -3 -14 -10 -20 -10 -10 0 -13 3 -23
19 -11 16 -13 18 -26 24 -11 5 -18 5 -33 -3 -12 -7 -42 -35 -47 -46 l-4 -9 0
-117 0 -117 -6 -6 c-6 -6 -6 -6 -23 -5 -10 0 -26 -1 -39 -3 -22 -4 -24 -4 -45
0 -19 3 -31 3 -73 2 -27 0 -55 -1 -61 -2 -12 -1 -23 3 -31 11 -11 10 -13 10
-24 11 -18 2 -25 -4 -42 -32 -7 -12 -19 -30 -25 -41 -7 -10 -12 -20 -12 -22 0
-2 -1 -2 -1 0 -1 2 -4 4 -6 6 -4 4 -4 4 -4 118 l0 115 5 7 c3 5 10 10 17 14
27 14 53 52 49 74 -2 11 -9 21 -16 24 -3 2 -6 4 -6 4 0 2 -22 6 -48 8 -14 1
-29 3 -33 3 -4 0 -14 1 -21 2 -17 1 -162 15 -175 16 -82 8 -78 8 -87 4z m938
-84 c21 -9 20 -45 -2 -54 -10 -5 -28 -1 -34 6 -9 10 -9 32 0 42 7 8 24 11 36
6z m-689 -19 c7 -6 7 -19 1 -25 -6 -7 -19 -7 -25 -1 -7 6 -7 19 -1 25 6 7 19
7 25 1z m1162 -78 c5 -3 8 -12 9 -25 0 -12 0 -13 -6 -19 -6 -6 -7 -6 -18 -6
-11 0 -12 0 -18 6 -5 5 -6 7 -6 18 0 9 1 13 4 17 6 7 29 14 35 9z m-111 -100
c5 -5 6 -7 6 -17 0 -10 -1 -12 -6 -17 -5 -5 -7 -6 -17 -6 -10 0 -12 1 -17 6
-5 5 -6 7 -6 17 0 10 1 12 6 17 5 5 7 6 17 6 10 0 12 -1 17 -6z m-1105 -38
c11 -10 3 -28 -11 -28 -9 0 -16 6 -16 16 0 14 17 22 27 12z m831 -15 c21 -9
20 -45 -2 -54 -10 -5 -28 -1 -34 6 -9 10 -9 32 0 42 7 8 24 11 36 6z m451 -11
c4 -6 4 -24 -1 -30 -7 -9 -27 -9 -34 0 -5 6 -5 24 0 30 7 9 27 9 35 0z m-164
-63 c12 -12 3 -31 -13 -31 -11 0 -18 7 -18 18 0 11 7 18 18 18 6 0 9 -1 13 -5z
m98 -7 c4 -6 4 -24 -1 -30 -7 -9 -27 -9 -34 0 -5 6 -5 24 0 30 7 9 27 9 35 0z
m-973 -9 c2 -1 7 -5 11 -11 7 -8 11 -12 20 -20 4 -3 24 -13 27 -13 13 -3 18
-34 6 -45 -9 -10 -33 -9 -42 1 -6 8 -19 21 -23 24 -4 4 -23 14 -27 14 -13 3
-18 34 -6 46 6 6 21 8 34 4z m269 -154 l0 -124 -6 -6 -6 -6 -107 0 c-121 0
-112 1 -128 -16 -19 -20 -20 -21 -27 -21 -6 0 -9 2 -16 9 -5 6 -9 10 -9 11 0
1 -8 2 -17 2 l-16 0 -3 -11 c-2 -9 -2 -12 3 -28 4 -14 5 -18 3 -22 -3 -5 -10
-11 -13 -11 -4 -1 -3 0 -22 -5 -10 -2 -17 -5 -17 -5 0 -1 -2 1 -5 4 l-6 5 -1
95 -1 95 6 6 6 6 109 0 109 0 13 7 c7 3 18 10 24 15 6 4 15 11 20 13 17 10 24
21 24 38 0 12 -9 23 -46 62 -8 8 -10 12 -9 14 8 6 12 7 69 8 l57 1 6 -6 6 -6
0 -124z m367 135 c14 -1 16 -1 22 -6 3 -3 5 -6 4 -6 0 -1 -3 -5 -6 -9 -3 -4
-12 -19 -21 -31 -8 -13 -15 -26 -15 -27 0 -4 -1 -4 -1 0 -1 1 -2 3 -3 3 -5 0
-7 12 -8 37 0 14 -1 26 -1 27 -1 0 12 13 13 13 1 -1 8 -1 16 -1z m-296 -53
l-5 -5 -4 4 -5 5 4 4 5 5 4 -4 5 -5 -4 -4z m-693 3 c4 -6 4 -24 -1 -30 -7 -9
-27 -9 -34 0 -5 6 -5 24 0 30 7 9 27 9 35 0z m98 -93 c3 -5 3 -5 0 -10 -2 -3
-5 -5 -7 -5 -2 0 -5 2 -7 5 -3 5 -3 5 0 10 2 3 5 5 7 5 2 0 5 -2 7 -5z m860
-7 c15 -5 19 -27 7 -38 -5 -6 -7 -7 -16 -7 -15 0 -23 8 -23 23 0 18 15 28 32
22z m-128 -17 c20 -10 24 -38 7 -48 -12 -7 -20 -22 -20 -42 0 -12 4 -38 9 -52
9 -25 10 -30 5 -44 -6 -15 -41 -16 -49 -1 -2 3 -4 14 -5 24 -2 23 -6 38 -11
44 -1 1 -2 7 -2 14 0 10 1 13 8 22 12 16 13 22 14 49 0 22 1 25 4 29 9 10 26
12 40 5z m-851 -4 c3 -2 6 -4 7 -5 4 -7 36 -14 48 -10 10 2 18 -1 33 -16 8 -8
15 -14 16 -14 1 0 3 -3 6 -7 5 -9 4 -27 -2 -46 -5 -15 -9 -19 -22 -19 -12 0
-17 5 -17 20 0 6 -1 12 -1 14 -1 2 -2 7 -4 11 -2 10 -16 24 -24 27 -10 2 -33
1 -40 -3 -14 -8 -37 -3 -42 8 -5 15 -2 35 7 39 10 6 24 6 35 1z m748 -3 c1 0
5 -3 8 -6 5 -5 6 -7 6 -18 0 -11 -1 -13 -6 -18 -6 -6 -7 -6 -18 -6 -11 0 -12
0 -18 6 -5 5 -6 7 -6 17 0 14 3 20 12 24 5 2 8 2 22 1z m-711 -131 c10 -10 1
-27 -13 -27 -4 0 -8 1 -9 2 -1 1 -17 7 -27 9 -11 3 -22 3 -23 1 -1 -2 -3 -1
-6 2 l-5 5 4 4 c4 4 5 4 7 3 4 -4 42 -1 48 3 7 5 19 4 24 -2z m157 -55 c5 -5
6 -7 6 -17 0 -10 -1 -12 -6 -17 -5 -5 -7 -6 -17 -6 -10 0 -12 1 -17 6 -5 5 -6
7 -6 17 0 10 1 12 6 17 5 5 7 6 17 6 10 0 12 -1 17 -6z m514 -5 c3 -2 8 -7 12
-11 4 -4 10 -9 13 -12 3 -2 6 -7 6 -10 1 -3 2 -6 3 -6 1 0 -2 -3 -6 -8 -7 -7
-22 -23 -45 -49 -22 -24 -30 -27 -59 -16 -60 21 -109 40 -110 41 0 2 -21 -3
-27 -7 -2 -1 -6 -6 -8 -10 -4 -7 -4 -15 -5 -104 -1 -107 -1 -105 -16 -119 -7
-7 -46 -39 -61 -51 -4 -3 -9 -7 -10 -8 -1 -1 -8 -6 -15 -12 -7 -5 -13 -10 -14
-11 -1 -1 -10 -8 -22 -17 -12 -9 -22 -17 -23 -17 -3 -3 -30 -23 -46 -35 -23
-16 -40 -19 -61 -8 -13 7 -16 11 -16 25 0 14 3 18 20 27 16 8 23 15 28 26 4 9
4 15 4 87 0 70 1 78 4 86 4 10 3 9 40 33 40 26 91 60 92 61 1 1 5 3 9 6 4 3 8
5 9 6 1 1 5 4 10 7 5 3 12 10 17 15 19 21 27 27 43 31 6 1 12 5 23 12 24 17
26 18 93 19 l59 1 11 6 c6 3 13 9 15 12 11 13 22 16 33 10z m202 -82 c3 -3 4
-7 4 -14 0 -13 -6 -19 -19 -19 -13 0 -19 6 -19 19 0 7 1 11 4 14 7 8 23 8 30
0z m-742 -26 c3 -3 4 -7 4 -14 0 -13 -6 -19 -19 -19 -13 0 -19 6 -19 19 0 7 1
11 4 14 7 8 23 8 30 0z m-107 -63 c11 -10 3 -28 -11 -28 -9 0 -16 6 -16 16 0
14 17 22 27 12z m-104 -50 c4 -6 4 -24 -1 -30 -7 -9 -27 -9 -34 0 -5 6 -5 24
0 30 7 9 27 9 35 0z m217 -12 c5 -5 6 -7 6 -17 0 -10 -1 -12 -6 -17 -5 -5 -7
-6 -17 -6 -10 0 -12 1 -17 6 -5 5 -6 7 -6 17 0 10 1 12 6 17 5 5 7 6 17 6 10
0 12 -1 17 -6z m1188 -5 c19 -9 25 -17 19 -26 -2 -3 -5 -5 -7 -5 -10 0 -40 18
-46 28 -4 5 -4 5 0 9 5 6 11 5 34 -6z m-494 -1 c3 -4 4 -8 4 -23 -1 -18 2 -27
8 -35 7 -8 9 -8 95 -7 l84 0 6 -6 6 -6 -1 -89 -1 -89 -5 -6 -5 -6 -24 1 c-13
0 -64 1 -114 1 l-90 0 -6 6 -6 6 1 89 c1 61 2 90 3 93 4 7 8 28 7 47 0 16 1
21 4 24 7 9 28 9 34 0z m-1150 -2 c5 -6 5 -12 0 -18 -7 -8 -22 -2 -22 9 0 11
15 17 22 9z m175 -55 c4 -4 5 -7 5 -15 0 -14 -6 -20 -20 -20 -14 0 -20 6 -20
20 0 14 6 20 20 20 8 0 11 -1 15 -5z m699 -63 c5 -5 5 -15 0 -20 -9 -9 -24 -2
-24 10 0 8 6 14 14 14 3 0 8 -2 10 -4z m581 -28 c4 -6 4 -24 -1 -30 -7 -9 -27
-9 -34 0 -5 6 -5 24 0 30 7 9 27 9 35 0z m-503 -158 c13 -9 14 -47 2 -59 -5
-4 -12 -3 -27 2 -13 5 -35 6 -41 2 -8 -5 -28 -4 -35 2 -6 4 -6 6 -6 20 0 14 0
16 6 20 4 4 7 5 21 5 15 0 38 5 51 10 9 4 23 3 29 -2z m395 -87 l6 -6 0 -113
0 -113 -6 -6 -6 -6 -114 0 -114 0 -6 6 -6 6 0 113 0 113 6 6 6 6 114 0 114 0
6 -6z m277 3 c5 -5 5 -11 0 -16 -10 -10 -27 5 -16 16 4 4 12 4 16 0z m-1452
-201 c-4 -5 -5 -5 -9 -1 -6 4 -6 5 0 10 4 4 4 4 9 -1 l4 -4 -4 -4z m-55 -16
c5 -4 5 -5 3 -12 -3 -8 -4 -9 -15 -14 -7 -3 -7 -3 -13 3 -6 6 -6 6 -3 13 6 15
18 19 28 10z m312 -31 c6 -5 6 -13 2 -21 -8 -17 -11 -42 -5 -48 1 -1 2 -5 2
-9 0 -10 -6 -15 -21 -19 -24 -5 -39 1 -35 13 2 6 13 16 18 16 3 0 16 14 15 16
-1 1 0 2 1 3 3 2 3 28 0 30 -4 2 -2 14 2 18 6 6 15 6 21 1z m576 -27 c6 -4 6
-6 6 -20 0 -14 0 -16 -6 -20 -4 -4 -7 -5 -18 -5 -11 0 -14 1 -18 5 -6 4 -6 6
-6 20 0 14 0 16 6 20 4 4 7 5 18 5 11 0 14 -1 18 -5z"/>
</g>
</svg>
