<?xml version="1.0" standalone="no"?>
<!DOCTYPE svg PUBLIC "-//W3C//DTD SVG 20010904//EN"
 "http://www.w3.org/TR/2001/REC-SVG-20010904/DTD/svg10.dtd">
<svg version="1.0" xmlns="http://www.w3.org/2000/svg"
 width="1100.000000pt" height="2850.000000pt" viewBox="0 0 1100.000000 2850.000000"
 preserveAspectRatio="xMidYMid meet">
<metadata>
Created by potrace 1.15, written by Peter Selinger 2001-2017
</metadata>
<g transform="translate(0.000000,2850.000000) scale(0.500000,-0.500000)"
fill="#000000" stroke="none">
<path d="M872 3836 c-8 -1 -24 -6 -32 -11 -15 -8 -21 -16 -22 -32 0 -12 2 -18
9 -26 3 -3 8 -9 11 -13 3 -4 6 -8 7 -9 1 -1 7 -8 12 -16 5 -8 10 -14 11 -15 2
-2 15 -23 31 -49 16 -25 40 -80 52 -115 l8 -25 -5 -6 -5 -5 -196 0 -196 0 -24
-6 c-22 -6 -25 -6 -39 -4 -22 3 -38 11 -56 29 -32 31 -36 33 -101 54 -9 2 -34
11 -57 19 -23 8 -44 14 -48 14 -11 0 -25 -6 -30 -14 -6 -8 -6 -7 -7 -240 -1
-164 -1 -169 3 -187 5 -22 5 -29 0 -50 -4 -15 -4 -26 -4 -156 -1 -154 -4 -284
-7 -331 0 -6 -1 -19 -2 -29 -1 -17 -4 -55 -6 -79 -1 -6 -3 -33 -6 -59 -6 -55
-6 -59 8 -82 14 -24 14 -39 -1 -51 -17 -13 -26 -24 -31 -36 -6 -11 -6 -12 -6
-46 l0 -35 -7 -11 c-17 -26 -18 -30 -15 -43 2 -9 14 -19 27 -24 11 -4 14 -7
14 -16 0 -9 -7 -14 -17 -12 -15 3 -34 2 -41 -2 -7 -4 -9 -6 -28 -57 -16 -39
-17 -48 -11 -63 8 -20 9 -23 8 -29 -7 -46 -6 -50 3 -61 12 -13 30 -14 44 -1
12 11 15 20 14 46 0 23 9 31 31 25 12 -3 28 -3 36 0 15 6 71 63 113 114 7 9
26 35 33 46 4 7 8 12 9 13 1 0 2 1 2 2 0 1 4 8 10 17 5 8 10 15 10 16 0 0 4 7
10 16 8 14 34 65 47 94 8 17 22 53 29 73 3 10 7 21 8 22 3 6 2 19 -1 27 -4 10
-11 14 -30 14 -20 1 -25 5 -25 20 0 8 1 11 5 14 10 8 20 13 26 14 8 0 8 1 10
15 0 4 1 8 2 9 0 1 1 6 2 11 2 12 6 17 22 26 28 14 35 27 35 62 0 23 3 43 7
55 2 4 3 7 2 7 0 0 0 3 2 8 4 13 4 32 -1 42 -5 9 -8 10 -28 20 -13 5 -15 9
-10 12 3 3 14 7 21 9 12 2 21 9 25 20 1 4 3 32 5 72 1 56 1 66 -1 73 -3 10
-10 16 -20 17 -4 1 -9 2 -12 3 -4 1 -6 1 -6 0 -1 -3 -16 -6 -22 -5 -17 4 -23
11 -23 28 0 19 10 28 29 28 5 0 11 -2 14 -3 7 -4 28 1 34 7 7 9 8 14 8 48 0
46 -4 54 -35 70 -11 5 -14 11 -12 25 2 23 17 53 29 57 1 1 5 4 8 8 10 17 10
16 10 99 l0 78 6 7 c3 4 6 6 6 5 0 -1 14 -2 34 -2 28 -1 34 -2 41 -5 4 -2 11
-4 15 -5 l7 -1 -6 -1 c-7 0 -13 -6 -17 -16 -3 -10 -3 -333 0 -346 2 -7 6 -12
19 -26 10 -9 17 -18 17 -20 1 -5 1 -11 0 -16 0 -2 -5 -9 -11 -14 l-11 -11 0
-15 c-1 -13 0 -15 4 -19 3 -2 7 -6 9 -9 3 -6 3 -6 0 -12 -2 -3 -7 -8 -12 -12
-8 -7 -15 -21 -15 -28 0 -11 11 -24 25 -29 5 -2 10 -6 13 -9 l4 -6 -4 -6 c-3
-3 -8 -7 -13 -9 -11 -4 -19 -12 -23 -22 -4 -9 -4 -17 -4 -212 0 -219 0 -213
10 -220 8 -4 29 -7 33 -4 6 5 16 4 21 -2 8 -8 4 -22 -12 -39 -9 -9 -9 -10 -8
-21 2 -12 8 -21 19 -25 11 -4 68 0 99 7 7 2 16 4 19 4 15 3 62 20 87 32 34 17
65 38 66 46 0 1 0 7 1 12 1 6 1 15 1 20 -1 7 -1 13 2 19 2 9 4 10 14 15 7 3
15 5 24 5 7 1 18 2 24 3 14 4 30 4 45 0 19 -4 146 -4 157 0 13 5 23 21 25 40
2 13 10 20 23 20 13 0 21 -7 23 -20 1 -11 7 -25 13 -32 8 -9 18 -11 46 -11
l25 1 6 -6 6 -6 -1 -39 c0 -32 0 -40 3 -47 4 -9 14 -21 18 -21 2 0 3 -1 3 -2
0 -2 10 -3 53 -3 39 0 43 0 49 4 13 8 16 17 14 51 0 12 6 18 19 18 11 0 19 -6
19 -14 0 -3 2 -11 4 -17 8 -20 23 -27 45 -20 18 5 27 5 29 1 1 -2 2 -5 1 -7
-2 -3 -28 -36 -29 -37 -1 -1 -4 -5 -7 -9 -3 -4 -6 -8 -7 -9 -1 -1 -11 -13 -22
-28 -12 -15 -22 -27 -22 -28 -1 0 -2 -1 -2 -3 0 -1 -4 -4 -10 -7 l-9 -5 -88
-1 c-91 -2 -93 -2 -93 -4 0 -1 -2 -2 -5 -3 -3 -1 -8 -6 -14 -13 -15 -23 -19
-26 -32 -26 -13 0 -17 3 -32 26 -6 7 -11 12 -14 13 -3 1 -5 2 -5 3 0 1 -1 2
-2 2 -5 1 -303 2 -307 1 -14 -3 -24 -20 -26 -43 -1 -22 -8 -29 -27 -29 -19 0
-25 6 -31 30 -6 24 -15 36 -32 41 -12 3 -414 2 -417 -1 -2 -2 -4 -3 -6 -3 -7
0 -20 -15 -22 -27 -2 -10 -2 -12 3 -27 9 -30 23 -48 47 -57 13 -6 15 -6 57 -7
l43 0 11 5 c10 5 11 6 18 20 3 8 7 17 8 21 2 12 9 16 24 16 15 0 22 -4 24 -16
1 -4 5 -13 8 -21 7 -14 8 -15 18 -20 l11 -5 133 1 c74 0 143 0 153 0 10 0 55
0 98 0 l79 0 9 6 c9 6 19 21 21 32 2 10 9 15 20 15 11 0 18 -5 20 -15 2 -11
12 -26 21 -32 l9 -6 249 0 c137 0 262 0 277 0 15 0 35 0 44 0 24 0 38 9 40 28
1 3 2 7 2 9 0 1 0 2 -1 2 -1 0 0 2 3 5 7 8 12 6 19 -5 3 -6 6 -11 6 -12 0 -6
10 -19 18 -23 15 -8 43 -6 67 5 17 7 19 10 19 26 0 12 -1 14 -8 24 -7 9 -8 12
-8 21 0 6 -1 18 -3 26 -4 17 -10 23 -46 52 -5 4 -10 8 -11 9 -1 1 -14 12 -30
25 l-30 23 -11 0 c-6 0 -16 -2 -25 -5 -15 -6 -17 -6 -23 0 -3 3 -3 4 -1 15 4
21 0 37 -13 47 -15 12 -21 19 -21 24 -1 10 0 14 5 21 9 13 9 20 9 134 l0 108
-5 11 c-6 12 -10 15 -28 25 -13 6 -21 15 -21 23 0 6 4 14 4 10 0 -1 1 0 2 2 1
3 7 8 14 11 19 10 23 13 29 25 l5 11 0 165 c0 158 0 165 -4 173 -5 10 -9 13
-24 19 -8 3 -15 7 -17 9 -3 3 -3 4 2 7 3 3 14 7 24 10 11 3 22 7 25 9 3 2 12
7 19 11 25 13 53 39 56 50 2 8 0 24 -4 30 -1 3 -16 14 -31 26 -24 19 -44 34
-56 44 -2 1 -8 6 -15 11 -7 5 -12 9 -13 10 -1 1 -6 5 -13 10 -7 5 -12 9 -13
10 -1 1 -4 3 -8 6 -8 5 -11 8 -21 17 -10 8 -31 7 -41 -2 -16 -16 -26 -19 -34
-10 -5 5 -5 10 0 27 5 15 5 34 0 36 -1 0 -1 1 -1 3 0 1 1 4 2 7 2 12 24 15 54
6 13 -3 21 -3 120 -4 116 0 123 1 145 12 23 12 41 36 39 53 -1 10 -2 13 -5 20
-4 7 -40 40 -48 45 -8 4 -25 3 -38 -3 -6 -2 -14 -6 -18 -7 -4 -1 -10 -3 -14
-4 -5 -1 -7 -1 -10 2 -1 2 -3 5 -3 6 0 0 -1 2 -2 4 0 2 -1 8 0 13 0 10 -2 21
-7 35 -2 4 -5 7 -11 9 -11 4 -20 15 -19 23 0 7 -6 28 -12 37 -4 7 -18 19 -50
45 -22 18 -23 18 -33 18 -14 0 -23 -4 -29 -14 -3 -4 -6 -8 -7 -10 -2 -1 -3 -3
-3 -4 0 0 -4 -5 -9 -11 -20 -21 -21 -28 -19 -69 1 -13 -4 -19 -17 -21 -4 -1
-8 -1 -8 -1 0 0 -3 -1 -6 -2 -3 -1 -8 -3 -10 -3 -8 -2 -19 -12 -28 -25 -7 -10
-13 -15 -19 -18 l-9 -5 -114 -1 -114 0 -8 6 c-4 3 -7 6 -5 6 5 0 19 39 22 64
11 85 -54 167 -168 211 -9 3 -14 4 -31 4 -20 -1 -37 2 -42 8 -6 7 -25 14 -44
16 -5 0 -19 2 -29 3 -19 2 -95 5 -104 4z m279 -112 c11 -10 3 -28 -11 -28 -9
0 -16 6 -16 16 0 14 17 22 27 12z m599 -156 c3 -3 5 -7 5 -10 -1 -9 -5 -23 -8
-25 -7 -8 -27 -7 -33 1 -5 6 -5 24 0 30 6 8 29 10 36 4z m-134 -57 c6 -3 10
-6 10 -7 0 -1 1 -2 3 -2 1 0 4 -1 5 -3 2 -2 6 -5 11 -7 4 -3 10 -7 12 -10 10
-11 4 -28 -10 -28 -7 0 -21 6 -23 9 0 0 -2 1 -3 1 -2 0 -3 1 -3 2 0 2 -14 6
-30 8 -21 3 -27 12 -18 28 9 14 29 18 46 9z m183 -21 c3 -4 4 -8 4 -11 -1 -2
-2 -7 -2 -11 -2 -10 -8 -15 -29 -27 -22 -11 -30 -13 -36 -7 -2 2 -4 5 -4 7 0
14 32 47 53 55 8 2 9 2 14 -6z m-1357 -32 c2 0 8 -3 14 -7 13 -9 36 -13 46 -7
6 3 15 2 20 -3 5 -6 6 -19 1 -25 -4 -6 -6 -6 -18 0 -14 7 -35 5 -48 -4 -13
-10 -24 -11 -40 -6 -16 7 -16 43 0 50 9 3 14 4 18 3 2 -1 5 -1 7 -1z m563 -20
c3 -3 5 -6 5 -7 0 -4 12 -26 16 -30 12 -11 2 -11 234 -11 118 0 217 -1 219 -2
8 -2 15 -9 12 -11 -2 -2 -22 -23 -44 -49 -3 -4 -8 -9 -11 -12 -2 -3 -9 -11
-16 -18 -17 -20 -19 -21 -31 -26 -8 -3 -17 -4 -38 -5 -31 -1 -32 -1 -40 -6 -5
-3 -5 -4 -5 -17 0 -9 -1 -14 -2 -15 -2 0 -2 -1 0 -1 2 0 4 -2 6 -4 2 -3 2 -5
-1 -9 -5 -7 -9 -6 -14 1 -4 6 -4 7 -2 9 1 2 4 3 5 3 1 0 0 2 -2 4 -2 2 -4 5
-3 6 1 1 0 2 -1 2 -1 0 -2 1 -1 2 1 2 -7 6 -12 7 -1 0 -3 1 -5 2 -2 0 -9 1
-16 2 -8 1 -19 3 -25 5 -28 10 -25 10 -147 10 -107 0 -117 0 -130 4 -12 3 -57
20 -134 51 -27 10 -35 11 -48 4 -8 -4 -10 -7 -18 -22 -5 -10 -11 -19 -13 -20
-3 -2 -3 -5 -3 -18 0 -8 2 -16 3 -18 11 -12 14 -23 7 -30 -13 -14 -34 5 -23
20 6 7 2 37 -5 37 -1 0 -5 4 -10 8 l-9 8 0 15 c0 11 1 16 3 17 2 1 3 6 3 19 0
15 0 17 -5 22 -6 6 -20 13 -28 13 -3 0 -4 1 -2 1 2 1 4 3 5 4 2 5 15 7 41 7
23 0 40 3 40 6 0 1 1 2 2 2 3 0 12 8 12 10 0 2 0 3 10 15 9 11 12 10 28 -10 1
-2 2 -3 2 -4 0 -3 9 -11 11 -11 2 0 3 -1 3 -2 0 -4 18 -6 64 -6 51 0 57 1 68
11 4 3 16 26 16 30 0 1 2 4 4 6 6 7 19 7 25 1z m-714 -234 c11 -10 3 -28 -11
-28 -9 0 -16 6 -16 16 0 14 17 22 27 12z m103 -42 c5 -5 6 -7 6 -17 0 -10 -1
-12 -6 -17 -5 -5 -7 -6 -17 -6 -10 0 -12 1 -17 6 -5 5 -6 7 -6 17 0 10 1 12 6
17 5 5 7 6 17 6 10 0 12 -1 17 -6z m995 -23 l6 -6 0 -120 0 -120 -6 -6 -6 -6
-170 0 c-162 0 -170 0 -177 -4 -8 -4 -14 -10 -19 -19 -3 -4 -7 -9 -11 -11 -6
-3 -6 -3 -12 0 -4 3 -6 6 -8 12 -1 4 -2 10 -3 13 -1 3 -2 63 -3 133 l-1 128 6
6 6 6 196 0 196 0 6 -6z m243 -6 c4 -4 4 -6 3 -16 -1 -12 -9 -39 -11 -39 -1 0
-3 -1 -5 -3 -3 -3 -3 -3 -8 0 -6 5 -7 10 -7 35 0 17 1 19 4 23 6 7 18 7 24 0z
m-1316 -47 c1 0 5 -3 8 -6 5 -5 6 -7 6 -16 0 -15 4 -34 11 -50 4 -10 6 -16 6
-25 -1 -17 3 -33 12 -46 9 -15 10 -28 2 -36 -11 -11 -35 -4 -35 9 0 6 -6 24
-11 33 -1 3 -7 10 -13 15 -11 11 -16 24 -12 35 2 8 1 26 -3 39 -8 26 -6 41 7
47 5 2 8 2 22 1z m559 -9 c12 -12 3 -31 -13 -31 -11 0 -18 7 -18 18 0 11 7 18
18 18 6 0 9 -1 13 -5z m-27 -115 c4 -3 6 -6 8 -12 4 -14 4 -15 0 -21 -4 -4
-16 -13 -16 -10 0 0 -7 -2 -16 -5 -31 -12 -49 -8 -54 13 -4 16 2 30 15 36 10
4 55 4 63 -1z m707 -31 c-6 -10 -9 -12 -15 -11 -3 0 -6 1 -6 2 0 1 -1 2 -2 1
-2 -1 -2 -1 -1 2 0 2 1 5 1 6 0 1 3 4 8 7 7 4 7 4 11 -1 3 -2 4 -5 4 -6z
m-655 -18 c15 -1 22 -7 26 -20 6 -22 -8 -39 -29 -38 -16 1 -23 6 -27 20 -6 24
1 41 16 40 4 -1 10 -1 14 -2z m624 -2 c8 -6 -7 -31 -20 -31 -12 0 -18 15 -10
23 9 11 22 14 30 8z m85 -79 c10 -8 14 -19 14 -39 0 -17 0 -18 -6 -22 -7 -7
-28 -7 -36 -1 -11 9 -11 47 1 60 7 7 19 8 27 2z m-351 -9 c9 -4 12 -10 15 -23
0 -3 3 -12 7 -19 5 -11 7 -13 17 -18 10 -5 11 -5 48 -5 l38 1 6 -6 6 -6 -1
-113 c-1 -113 -1 -113 -6 -129 -6 -19 -16 -31 -26 -31 -7 0 -12 4 -22 18 -6 9
-11 13 -18 17 l-11 5 -82 0 c-79 0 -87 0 -100 -6 -10 -4 -23 -7 -28 -7 -6 0
-23 5 -26 7 -7 4 -22 6 -53 6 -17 -1 -32 0 -32 0 0 2 -14 10 -17 10 -2 0 -3 1
-2 2 1 2 -11 7 -22 10 -7 1 -10 1 -24 -6 -9 -4 -20 -11 -24 -15 -12 -11 -19
-15 -29 -13 -4 1 -10 3 -12 4 -1 2 -6 4 -9 6 -3 2 -9 6 -14 10 l-8 8 0 15 c0
14 0 16 6 20 6 6 24 7 35 2 8 -3 31 -1 40 4 4 3 7 6 8 10 2 8 6 9 11 5 2 -2 4
-3 5 -3 1 0 2 -1 4 -3 2 -3 4 -3 9 -2 3 1 8 2 12 3 8 2 18 13 20 22 1 4 1 18
1 32 -1 30 -3 32 -24 33 -7 0 -14 1 -14 3 -1 1 -2 0 -2 -3 0 -8 0 -8 -2 -14
-1 -3 -3 -9 -3 -15 -1 -6 -3 -13 -6 -17 -2 -4 -5 -10 -6 -13 -1 -4 -2 -5 -3
-3 -2 3 -2 3 -2 0 0 -3 0 -3 -2 0 -1 2 -3 3 -3 3 -4 -1 -7 1 -6 3 1 1 0 2 -1
2 -2 0 -6 2 -10 6 -6 5 -8 10 -13 34 -1 5 -8 18 -16 30 -10 14 -8 36 4 43 10
7 24 5 48 -7 24 -12 28 -13 42 -5 10 5 21 22 19 29 -1 1 2 5 5 9 l6 6 95 -1
95 0 10 5 c6 3 11 6 11 8 0 1 1 3 3 4 2 0 3 2 3 4 0 1 1 5 3 9 2 3 4 8 4 10 2
13 4 16 7 19 9 8 24 10 36 6z m-855 -22 c5 -8 1 -16 -8 -16 -9 0 -13 8 -8 16
2 3 5 5 8 5 3 0 6 -2 8 -5z m358 -2 c6 -4 6 -6 6 -20 0 -14 0 -16 -6 -20 -4
-4 -7 -5 -18 -5 -11 0 -14 1 -18 5 -6 4 -6 6 -6 20 0 14 0 16 6 20 4 4 7 5 18
5 11 0 14 -1 18 -5z m692 1 c6 -6 6 -15 1 -21 -6 -6 -13 -6 -22 -2 -5 4 -6 5
-5 11 3 15 17 21 26 12z m56 -75 c3 -3 3 -3 0 -6 -3 -3 -3 -3 -6 0 -3 2 -3 3
-1 6 4 4 4 4 7 0z m108 -42 c11 -4 23 -8 29 -10 14 -3 26 -17 15 -17 -1 0 -3
-1 -4 -3 -1 -3 -3 -3 -9 -2 -17 2 -21 3 -42 3 -19 0 -21 0 -25 5 -11 11 -4 31
11 31 4 0 15 -3 25 -7z m-830 -43 c11 -10 3 -28 -11 -28 -9 0 -16 6 -16 16 0
14 17 22 27 12z m793 -101 c3 -2 8 -7 12 -10 4 -3 11 -9 15 -12 15 -12 17 -14
19 -22 3 -13 -3 -32 -12 -39 -2 -2 -10 -19 -14 -33 -5 -14 -9 -18 -18 -19 -19
-1 -26 4 -26 20 0 6 1 13 3 17 7 14 12 33 12 39 -1 3 -4 13 -8 21 -9 20 -11
31 -5 37 5 5 14 5 22 1z m-1294 -76 l-5 -5 -4 4 -5 5 4 4 5 5 4 -4 5 -5 -4 -4z
m568 -2 c5 -6 5 -17 0 -22 -10 -11 -28 -3 -28 11 0 15 19 23 28 11z m611 -16
c3 -5 3 -5 0 -10 -2 -3 -5 -5 -7 -5 -2 0 -5 2 -7 5 -3 5 -3 5 0 10 2 3 5 5 7
5 2 0 5 -2 7 -5z m-1106 -26 c5 -8 1 -16 -8 -16 -9 0 -13 8 -8 16 2 3 5 5 8 5
3 0 6 -2 8 -5z m388 -66 c3 -3 3 -3 0 -6 -3 -3 -3 -3 -6 0 -3 2 -3 3 -1 6 4 4
4 4 7 0z m-406 -34 c4 -4 5 -7 5 -15 0 -14 -6 -20 -20 -20 -14 0 -20 6 -20 20
0 14 6 20 20 20 8 0 11 -1 15 -5z m1463 -174 c8 -4 11 -9 15 -23 5 -18 6 -26
3 -26 -1 0 -3 -2 -5 -3 -3 -3 -7 -4 -19 -4 -23 -1 -32 5 -36 20 -2 10 0 23 6
30 7 8 24 11 36 6z m-743 -46 c5 -8 1 -16 -8 -16 -9 0 -13 8 -8 16 2 3 5 5 8
5 3 0 6 -2 8 -5z m-840 -19 c6 -6 7 -17 1 -25 -6 -7 -18 -7 -25 -1 -7 6 -7 19
-1 25 6 7 19 7 25 1z"/>
</g>
</svg>
