<?xml version="1.0" standalone="no"?>
<!DOCTYPE svg PUBLIC "-//W3C//DTD SVG 20010904//EN"
 "http://www.w3.org/TR/2001/REC-SVG-20010904/DTD/svg10.dtd">
<svg version="1.0" xmlns="http://www.w3.org/2000/svg"
 width="1100.000000pt" height="2850.000000pt" viewBox="0 0 1100.000000 2850.000000"
 preserveAspectRatio="xMidYMid meet">
<metadata>
Created by potrace 1.15, written by Peter Selinger 2001-2017
</metadata>
<g transform="translate(0.000000,2850.000000) scale(0.500000,-0.500000)"
fill="#000000" stroke="none">
<path d="M359 3823 c-2 -1 -11 -5 -19 -8 -22 -11 -24 -11 -33 -2 l-7 7 -16 0
c-18 -1 -22 -4 -22 -14 0 -7 -21 -115 -24 -120 -3 -7 -1 -20 5 -25 2 -3 6 -5
7 -5 1 0 2 -1 2 -2 0 -1 1 -2 2 -1 1 0 1 -1 1 -4 -1 -2 0 -6 1 -9 1 -2 1 -4 1
-4 -1 0 -2 -3 -2 -6 -1 -9 -10 -27 -17 -31 -7 -5 -23 -22 -27 -28 -1 -4 -8
-23 -14 -43 -14 -44 -34 -107 -38 -115 -2 -4 -3 -14 -3 -23 -1 -10 -2 -17 -2
-17 -1 1 -2 0 -2 -2 0 -1 -4 -5 -8 -9 -4 -3 -8 -8 -8 -9 0 -2 -2 -7 -4 -12
-10 -22 -16 -40 -16 -47 0 -9 5 -23 10 -29 4 -5 25 -14 38 -17 14 -3 21 -11
21 -24 0 -8 -1 -11 -6 -16 -3 -3 -6 -6 -7 -5 -3 3 -38 -22 -38 -27 0 -2 -1 -4
-11 -15 -6 -7 -7 -8 -16 -8 -7 0 -12 2 -17 5 -5 3 -11 4 -19 4 -17 0 -25 -4
-31 -15 -2 -3 -7 -13 -13 -22 -9 -15 -9 -16 -9 -29 1 -16 6 -24 23 -34 14 -9
24 -12 37 -11 8 1 25 9 28 13 1 1 4 0 7 -2 l5 -3 0 -109 c0 -120 0 -123 11
-138 17 -22 17 -32 1 -55 -12 -17 -12 -12 -12 -197 0 -150 0 -170 3 -177 4 -9
14 -21 18 -21 2 0 3 -1 3 -2 0 -1 1 -1 3 -2 24 -2 31 -2 47 2 22 5 30 5 34 0
8 -9 4 -18 -13 -27 -10 -4 -16 -9 -24 -16 -3 -4 -13 -23 -13 -26 0 -1 -1 -5
-3 -9 -2 -4 -3 -11 -3 -22 0 -12 -1 -16 -4 -21 -2 -3 -4 -5 -4 -4 0 5 -10 -6
-14 -14 -8 -19 -21 -34 -43 -51 -29 -24 -39 -34 -52 -53 -19 -29 -26 -51 -24
-81 2 -53 37 -97 90 -115 48 -16 104 -2 142 36 9 9 19 20 22 25 10 16 22 19
35 8 9 -8 33 -20 40 -20 14 0 37 15 44 29 1 4 3 7 4 7 1 0 5 5 8 12 9 17 18
21 29 15 10 -6 39 -1 46 7 5 6 12 5 27 -3 34 -18 63 -21 90 -9 8 4 18 7 22 7
11 0 20 -2 20 -4 0 0 1 -1 2 0 1 1 2 0 3 -1 2 -3 14 -8 19 -9 8 -2 15 -6 24
-14 11 -10 15 -12 26 -14 13 -2 15 -2 30 5 17 8 27 16 32 26 3 4 5 7 6 8 2 1
38 56 43 65 8 14 19 13 35 -2 14 -13 18 -15 30 -15 12 0 20 3 26 12 7 9 22 7
34 -3 7 -7 23 -12 32 -10 7 0 28 10 30 13 3 5 17 10 25 10 10 0 14 -2 31 -16
5 -4 16 -11 24 -15 17 -9 21 -14 21 -29 0 -17 -6 -24 -21 -27 -10 -1 -28 -11
-33 -18 -8 -11 -10 -22 -6 -34 7 -22 23 -36 41 -35 9 0 26 7 33 14 12 10 23
13 44 9 23 -5 35 -3 55 7 47 24 78 62 89 106 5 19 4 24 -1 35 -6 12 -19 20
-34 19 -14 0 -19 6 -19 26 0 10 1 17 2 21 4 8 3 23 -2 27 -4 4 -13 6 -13 4 0
-1 -5 -2 -12 -4 -15 -3 -28 -12 -37 -25 -10 -15 -13 -17 -34 -18 -29 -3 -39
-2 -44 4 -3 5 -3 6 0 12 5 10 30 33 38 34 5 1 23 11 30 17 3 3 10 11 14 18 8
13 15 17 29 17 12 -1 20 -5 26 -14 7 -12 15 -17 29 -18 10 -1 11 0 19 7 5 4
11 10 13 14 4 6 5 7 11 6 4 0 7 0 8 2 2 2 2 2 2 0 0 -7 26 -20 39 -20 11 0 33
-31 33 -45 0 -6 -7 -13 -13 -13 -2 0 -5 0 -5 0 -1 0 -3 0 -3 0 -6 -1 -22 -9
-26 -12 -9 -8 -4 -29 9 -38 15 -11 26 -11 54 0 12 4 24 5 30 2 2 -1 7 -7 11
-13 12 -21 20 -26 56 -36 29 -8 41 -16 38 -26 -1 -5 -14 -19 -17 -19 -3 0 -12
-17 -12 -24 0 -8 3 -13 14 -24 14 -14 18 -23 12 -29 -3 -2 -2 -28 0 -37 2 -8
6 -11 28 -17 8 -3 14 -3 26 -2 26 2 83 15 103 23 3 2 6 3 7 3 1 0 5 2 9 4 22
9 31 14 34 19 5 9 6 28 2 36 -7 19 -2 37 10 35 4 -1 10 -3 15 -5 10 -5 28 -5
38 0 14 6 33 57 31 81 -1 13 -11 39 -15 39 -3 0 -12 21 -12 28 0 7 6 18 9 18
1 0 5 4 10 9 16 16 16 15 16 98 1 73 1 74 -4 82 -4 7 -15 14 -25 16 -3 1 -6 2
-7 3 -1 1 -3 1 -5 0 -2 -1 -9 -5 -17 -8 -8 -4 -14 -7 -15 -8 -14 -17 -40 -23
-52 -10 -9 8 -9 32 0 40 6 7 17 8 34 5 12 -3 16 -3 30 -1 8 1 17 3 19 3 2 0 7
1 10 3 3 1 7 2 9 2 5 0 8 7 8 21 0 7 -1 13 -2 12 0 -1 -2 1 -3 3 -2 2 -5 4 -7
4 -2 0 -5 1 -7 3 -3 2 -5 3 -5 2 -1 -1 -41 -4 -49 -3 -3 0 -10 1 -14 3 -23 9
-31 12 -46 14 -4 0 -11 2 -15 3 -10 3 -27 3 -39 -1 -23 -5 -35 2 -35 21 0 10
1 12 6 17 5 5 7 5 26 6 17 0 24 1 36 6 26 9 37 8 55 -8 10 -9 39 -24 58 -29 8
-3 16 -5 16 -6 1 -2 14 1 21 6 19 12 24 29 15 49 -5 11 -11 17 -27 28 -9 6
-12 11 -12 24 0 13 3 18 12 24 16 11 22 17 27 28 l5 11 0 93 c0 88 0 93 -4
101 -2 5 -5 11 -7 13 -5 5 -27 13 -38 13 -15 0 -21 13 -16 36 2 8 10 14 18 14
9 0 31 8 36 13 8 9 11 21 10 35 0 7 -1 20 0 28 0 8 0 51 0 95 l0 80 6 6 c6 6
6 6 24 6 29 -1 35 3 39 27 1 9 1 12 -1 13 -6 2 -3 14 4 25 9 12 8 11 11 27 2
9 2 13 -1 19 -1 4 -2 9 -2 12 1 3 1 12 2 20 0 20 -4 28 -27 54 -33 37 -37 41
-45 42 -11 1 -22 0 -23 -2 0 -1 -3 -2 -5 -4 -2 -1 -7 -8 -11 -15 -15 -32 -22
-38 -40 -38 -8 1 -12 2 -21 8 -17 12 -35 9 -49 -6 -9 -11 -19 -14 -32 -11 -15
3 -21 15 -19 33 3 16 6 19 28 20 27 2 37 7 53 28 6 8 7 28 2 32 -2 2 -2 3 0 2
2 -1 0 1 -4 5 -4 3 -7 6 -8 6 -3 0 -8 12 -8 19 0 10 7 17 18 17 16 0 22 -12
15 -32 -4 -11 -3 -24 3 -28 3 -2 6 -5 7 -6 5 -3 14 -6 23 -7 5 -1 13 -2 18 -3
6 -2 9 -2 11 0 1 1 4 2 7 2 4 0 14 6 19 11 6 6 7 17 7 107 l0 90 6 11 c3 7 7
14 9 16 2 2 7 7 10 11 3 4 10 10 15 14 25 20 33 31 31 46 -1 10 -8 21 -13 23
-2 1 -4 2 -4 3 0 1 -4 2 -8 4 -20 6 -40 -12 -47 -41 -2 -9 -10 -16 -21 -18
-24 -4 -31 -9 -39 -25 -4 -7 -7 -15 -7 -17 0 -2 -2 -6 -5 -9 -4 -4 -6 -4 -21
-3 -34 3 -35 2 -38 -17 -2 -10 -2 -13 1 -17 3 -4 3 -4 -1 -8 -4 -3 -5 -3 -11
0 -4 2 -7 4 -7 4 1 5 -3 12 -10 15 -26 13 -29 33 -6 40 5 1 13 4 17 6 5 2 9 4
10 4 3 0 11 11 12 17 0 3 2 8 2 11 1 3 2 8 2 12 3 14 11 19 22 12 3 -2 24 0
31 3 8 3 8 4 8 13 0 14 -6 23 -18 29 -7 3 -16 5 -46 8 -43 4 -45 4 -59 -1 -11
-4 -19 -10 -34 -28 -4 -5 -14 -11 -26 -17 -29 -14 -33 -22 -33 -61 0 -40 4
-49 31 -67 8 -5 17 -12 19 -14 4 -6 23 -19 27 -19 4 0 17 -13 19 -19 4 -10 8
-28 8 -37 0 -11 -7 -18 -18 -18 -11 0 -17 6 -20 21 -5 24 -14 36 -28 38 -11 2
-18 0 -25 -8 -13 -14 -13 -15 -13 -139 l1 -111 -6 -6 -6 -6 -44 0 -44 0 -6 6
-6 6 0 71 c0 84 1 79 -22 79 -8 0 -15 1 -15 2 -1 1 -2 1 -2 -1 0 -2 -3 -6 -6
-9 -15 -13 -33 -7 -32 10 1 7 2 9 11 15 6 3 13 7 16 7 7 2 32 26 40 40 12 18
19 24 36 33 16 8 42 28 48 37 4 6 6 19 4 28 -1 8 -12 20 -27 30 -5 3 -16 11
-25 18 -17 12 -29 21 -50 34 -6 4 -17 12 -23 18 -20 18 -31 26 -41 28 -8 1
-23 13 -26 20 -5 10 -27 25 -39 27 -19 1 -28 -5 -61 -43 -9 -10 -33 -36 -38
-42 -7 -7 -19 -13 -25 -13 -2 0 -6 -1 -8 -2 -1 -1 -8 -4 -14 -7 -10 -4 -15 -8
-28 -23 -7 -8 -13 -11 -25 -11 -12 0 -20 4 -26 12 -12 17 -27 27 -50 32 -8 2
-30 9 -49 16 -33 13 -36 13 -49 12 -8 0 -17 -2 -21 -4 -7 -4 -26 -22 -26 -26
0 -1 -1 -4 -3 -5 -1 -2 -4 -6 -6 -11 -4 -9 -13 -13 -25 -14 -19 0 -29 9 -29
28 0 13 4 19 15 27 l9 7 1 15 c0 10 -1 16 -2 18 -3 3 -32 16 -45 19 -3 1 -5 2
-5 3 0 1 -5 0 -11 -1 -23 -5 -30 -18 -28 -55 2 -47 3 -72 1 -77 -1 -3 -2 -21
-2 -40 -1 -34 -1 -34 -6 -41 -4 -4 -6 -5 -6 -3 0 1 -3 5 -6 8 -4 2 -10 8 -14
11 -4 4 -14 13 -22 20 -8 7 -16 15 -19 17 -35 32 -45 40 -45 38 0 -1 -2 0 -4
2 -9 5 -21 7 -24 3 -7 -6 -9 -13 -8 -26 0 -19 -4 -23 -37 -30 -9 -2 -18 -3
-21 -2 -3 0 -12 0 -21 1 -9 0 -18 1 -20 3 -3 1 -7 2 -9 2 -4 0 -16 -6 -22 -12
-2 -1 -5 -2 -6 -1 -1 1 -2 -1 -2 -3 0 -2 -1 -5 -1 -6 0 -2 -1 -4 -2 -5 -2 -1
-3 -4 -3 -6 -1 -5 -15 -12 -26 -12 -17 1 -24 13 -18 38 1 5 1 12 0 16 -1 4 -1
7 -1 7 1 0 1 1 0 3 -1 1 -2 2 -2 3 -1 5 -5 9 -15 15 -16 10 -20 15 -20 28 0
17 10 24 30 21 15 -3 17 -4 31 -8 15 -5 23 -9 32 -17 3 -3 7 -5 9 -5 1 0 2 -1
2 -2 0 -3 28 -14 43 -16 16 -2 17 -2 26 2 6 3 11 7 12 10 4 9 5 25 2 33 -2 4
-3 11 -3 16 -1 9 -6 29 -11 36 -5 8 -20 14 -64 27 -91 27 -120 36 -128 38 -11
2 -25 4 -30 3z m1011 -85 c9 -11 2 -28 -11 -28 -13 0 -20 17 -10 25 3 4 6 5
16 7 1 0 3 -2 5 -4z m-1050 -56 c5 -5 6 -7 6 -17 0 -10 -1 -12 -6 -17 -6 -6
-7 -6 -20 -6 -24 2 -28 7 -22 26 6 16 11 20 25 20 10 0 12 -1 17 -6z m980 -11
c7 -4 14 -19 17 -36 1 -11 1 -13 -2 -18 -3 -5 -4 -5 -11 -4 -8 1 -19 6 -32 13
-6 4 -9 4 -31 3 -22 -1 -24 -1 -28 3 -4 3 -5 7 -5 12 0 11 6 15 23 17 7 1 20
4 29 7 18 6 32 7 40 3z m158 -21 c15 -11 32 -30 33 -37 3 -16 -11 -18 -47 -7
-24 7 -28 11 -28 27 0 10 1 12 6 17 8 9 24 9 36 0z m-410 -38 c5 -5 5 -11 0
-15 -7 -4 -9 -4 -14 4 -4 7 -4 8 -1 11 4 5 9 5 15 0z m100 -34 l65 1 6 -6 c5
-5 6 -8 5 -13 -1 -16 8 -32 24 -40 5 -2 9 -6 11 -9 3 -5 3 -5 0 -10 -2 -3 -6
-7 -11 -9 -11 -5 -19 -15 -22 -25 -1 -5 -2 -23 -2 -51 l1 -43 -6 -6 -6 -6 -70
0 -70 0 -6 6 -6 6 1 29 c0 18 -1 29 -2 31 -1 1 -2 4 -2 6 0 4 -17 21 -21 21
-3 0 -15 13 -15 16 0 3 12 16 15 16 4 0 21 17 21 22 0 2 1 4 2 5 2 2 3 41 0
45 -2 4 7 19 10 17 1 -1 2 0 2 1 0 1 3 0 6 -1 5 -3 17 -3 70 -3z m-843 -38 c7
-6 7 -19 1 -25 -6 -7 -19 -7 -25 -1 -7 6 -7 19 -1 25 6 7 19 7 25 1z m240 -20
c11 -10 3 -28 -11 -28 -9 0 -16 6 -16 16 0 14 17 22 27 12z m128 -39 c3 -5 3
-5 0 -10 -2 -3 -5 -5 -7 -5 -2 0 -5 2 -7 5 -3 5 -3 5 0 10 2 3 5 5 7 5 2 0 5
-2 7 -5z m-202 -27 c4 -3 6 -7 5 -8 -1 -2 -2 -8 -4 -15 -3 -13 -6 -24 -12 -42
-3 -9 -5 -18 -5 -35 -1 -26 -1 -26 -19 -43 -8 -9 -16 -14 -26 -18 -19 -8 -21
-10 -22 -27 -1 -8 0 -14 0 -14 3 0 12 -10 15 -16 4 -8 4 -18 -1 -23 -6 -6 -22
-7 -41 -1 -19 6 -25 12 -25 27 0 6 1 14 3 17 4 7 9 26 9 34 0 7 -2 12 -9 19
-3 3 -5 6 -5 7 0 1 -2 6 -5 10 -12 19 -4 40 15 40 21 0 25 0 32 3 7 3 20 16
20 19 0 6 10 23 20 33 6 7 14 16 18 21 5 4 9 8 9 8 1 0 3 1 5 3 2 1 6 4 10 5
4 1 7 2 7 2 0 0 3 -3 6 -6z m1195 -6 c8 -9 3 -22 -9 -22 -6 0 -13 6 -13 13 0
11 15 17 22 9z m-863 -21 c17 -7 23 -30 13 -43 -3 -4 -8 -9 -10 -12 -12 -11
-17 -25 -18 -46 l0 -19 7 -4 c5 -1 10 -5 13 -7 3 -2 10 -8 17 -12 7 -4 14 -10
17 -12 3 -2 7 -4 9 -5 2 0 8 -2 12 -3 4 -1 13 -2 19 -2 14 0 20 -5 20 -17 0
-13 -10 -25 -25 -30 -9 -3 -12 -4 -17 -1 -40 16 -70 20 -98 15 -16 -3 -17 -3
-22 2 -8 7 -4 15 14 24 22 11 31 22 31 38 -1 13 -1 15 -3 15 -2 -1 -4 -2 -4
-3 -1 -1 -2 1 -3 4 -2 8 -13 12 -37 12 -24 0 -27 1 -28 13 0 4 -1 11 -2 16 -3
11 -2 26 1 34 5 10 41 40 55 45 10 3 28 3 39 -2z m582 -56 c5 -8 1 -16 -8 -16
-9 0 -13 8 -8 16 2 3 5 5 8 5 3 0 6 -2 8 -5z m-1135 -10 c-3 -3 -5 -4 -7 -3
-3 2 -21 4 -20 1 1 -1 0 -1 -2 0 -1 0 -3 0 -4 -1 -1 -1 -2 -2 -3 -1 -1 1 -2 0
-3 -1 -1 -1 -3 -2 -5 -2 -1 0 -6 -1 -9 -3 -7 -4 -8 -4 -13 2 -6 5 -6 7 -1 12
5 3 11 4 11 1 0 -1 1 -1 3 -2 1 0 4 0 6 0 2 0 7 0 10 1 3 1 11 2 17 3 6 1 12
3 13 4 1 1 3 1 6 -2 l5 -5 -4 -4z m287 -36 c5 -3 8 -7 9 -12 0 -1 1 -4 2 -5 0
-2 1 -4 2 -4 2 0 0 -8 -4 -16 -2 -5 -10 -10 -21 -13 -7 -2 -22 2 -26 8 -7 7
-8 20 -3 31 2 5 5 10 6 11 8 5 27 5 35 0z m118 2 c5 -1 11 -11 11 -18 0 -6 -6
-13 -12 -13 -7 0 -21 7 -23 11 -2 6 -1 9 5 15 7 6 11 7 19 5z m675 -7 c4 -4 7
-10 9 -13 1 -4 5 -8 8 -10 8 -3 27 -4 36 -1 6 2 7 2 10 0 5 -5 -1 -16 -8 -15
-6 0 -13 -4 -13 -8 0 -2 -1 -3 -2 -3 -1 0 -2 -1 -2 -3 0 -1 -1 -3 -2 -3 -6 -3
-18 -30 -17 -38 3 -18 5 -22 16 -26 14 -6 29 -6 52 3 11 4 21 8 23 8 2 1 15
-1 29 -3 15 -2 27 -3 29 -2 7 4 33 -2 41 -8 3 -3 19 -1 28 3 4 2 10 8 15 14 9
13 14 15 24 15 13 0 14 0 20 -6 5 -5 6 -7 6 -17 0 -13 -1 -14 -15 -32 -5 -6
-10 -16 -12 -21 -4 -14 -4 -51 0 -61 3 -8 10 -15 16 -16 1 0 3 -1 5 -2 10 -3
16 -5 17 -3 1 1 4 1 17 0 1 0 5 -3 8 -6 5 -5 6 -7 6 -18 0 -11 -1 -13 -6 -18
-3 -3 -7 -6 -8 -6 -13 -1 -16 -1 -17 0 -1 2 -7 0 -17 -3 -2 -1 -4 -2 -5 -2 -5
-1 -13 -8 -15 -13 -2 -3 -3 -17 -4 -31 -1 -22 -2 -26 -5 -29 -3 -2 -5 -4 -6
-6 -1 -3 -1 -3 -1 0 0 4 -34 37 -40 40 -6 2 -27 2 -44 -1 -11 -1 -12 -1 -17 3
-4 5 -5 8 -6 25 0 13 -2 22 -5 28 -4 8 -50 56 -77 81 -16 14 -42 38 -51 46
-16 14 -32 13 -57 -3 -4 -3 -10 -4 -25 -3 -31 0 -39 -4 -57 -30 -15 -21 -19
-23 -69 -24 -28 -1 -45 -2 -53 -5 -31 -9 -48 -3 -53 16 -3 12 0 22 11 39 8 12
10 16 13 26 0 2 1 14 2 28 1 28 6 41 17 46 9 4 27 19 42 34 14 14 16 15 29 14
8 -1 14 -8 15 -19 3 -30 16 -44 39 -43 8 1 10 0 15 -5 3 -4 6 -8 6 -9 0 -5 5
-13 9 -16 7 -4 29 -8 32 -5 3 2 22 1 27 -2 9 -6 39 -1 35 6 0 1 -1 6 -1 12 0
8 -2 12 -7 20 -8 11 -19 46 -21 65 -1 11 -1 12 4 17 7 8 19 7 27 -1z m-676
-76 c1 0 5 -3 8 -6 5 -5 6 -7 6 -18 0 -11 -1 -13 -6 -18 -6 -6 -7 -6 -18 -6
-11 0 -12 0 -18 6 -5 5 -6 7 -6 17 0 14 3 20 12 24 5 2 8 2 22 1z m1191 -13
c3 -3 3 -3 0 -6 -3 -3 -3 -3 -6 0 -3 2 -3 3 -1 6 4 4 4 4 7 0z m-1622 -120 c3
-3 3 -3 0 -6 -3 -3 -3 -3 -6 0 -3 2 -3 3 -1 6 4 4 4 4 7 0z m-70 -10 c3 -5 3
-5 -1 -12 -5 -8 -12 -11 -18 -6 -3 2 -4 3 -3 3 0 0 0 2 -1 4 -1 3 -1 4 0 4 1
0 2 1 2 3 0 2 9 9 14 9 2 0 5 -2 7 -5z m769 -37 c20 -6 40 -19 40 -25 0 -1 3
-8 7 -16 6 -13 10 -18 21 -25 7 -5 12 -14 11 -18 -1 -2 -2 -4 -3 -4 -1 0 -2
-1 -2 -1 1 -4 0 -7 -7 -14 -4 -4 -7 -9 -7 -9 0 -1 -3 -7 -7 -13 -6 -9 -10 -12
-21 -17 -7 -4 -20 -10 -29 -14 -20 -10 -35 -11 -44 -3 -6 4 -6 6 -6 20 0 19 2
21 24 28 23 7 27 11 29 25 1 14 -1 18 -10 29 -26 26 -30 33 -30 44 0 16 12 21
34 13z m-609 -27 c6 -4 6 -6 6 -20 0 -14 0 -16 -6 -20 -4 -4 -7 -5 -18 -5 -11
0 -14 1 -18 5 -6 4 -6 6 -6 20 0 14 0 16 6 20 4 4 7 5 18 5 11 0 14 -1 18 -5z
m867 -3 c5 -5 5 -13 0 -15 -3 -1 -4 -2 -3 -3 2 -1 3 -3 4 -15 1 -11 6 -18 17
-21 5 -1 36 -2 98 -2 106 0 99 1 108 -24 5 -16 13 -30 21 -41 7 -9 14 -28 12
-37 -1 -11 3 -28 9 -40 13 -23 9 -40 -9 -40 -8 0 -17 6 -17 12 0 2 -2 9 -5 17
-5 11 -8 16 -19 27 -14 13 -20 27 -17 35 1 4 -2 24 -7 33 -3 9 -15 21 -33 34
-7 5 -25 6 -35 1 -4 -2 -6 -3 -5 -3 1 0 0 -1 -3 -3 -5 -4 -18 -26 -25 -44 -5
-15 -12 -23 -25 -33 -7 -5 -18 -16 -18 -18 0 -1 -4 -3 -9 -6 -10 -5 -11 -5
-77 -6 -43 -1 -70 -2 -74 -4 -14 -4 -28 -12 -32 -17 -2 -3 -5 -7 -5 -8 -3 -3
-11 -28 -11 -32 0 -7 -8 -13 -16 -13 -14 0 -19 11 -13 29 4 14 5 25 4 36 -3
34 0 39 24 50 29 15 36 27 37 63 1 21 1 21 7 26 l7 6 34 0 c48 0 57 3 59 23 1
12 2 14 4 15 1 1 0 2 -3 3 -3 1 -4 3 -4 6 0 11 13 16 20 9z m656 -32 c5 -5 5
-11 0 -16 -10 -10 -27 5 -16 16 4 4 12 4 16 0z m-1331 -5 c3 -2 7 -3 8 -3 1 0
6 -3 11 -6 8 -5 10 -5 19 -4 5 1 10 3 11 4 0 1 2 -2 5 -7 4 -8 4 -13 4 -25 0
-9 -1 -17 -2 -18 -1 -2 4 -7 6 -5 2 2 9 -6 9 -11 1 -3 2 -6 4 -7 2 -2 2 -3 -1
-8 -5 -6 -8 -6 -13 -1 -4 4 -7 10 -4 10 1 0 1 6 0 15 0 0 -2 1 -4 1 -2 0 -4 1
-4 2 0 3 -17 8 -29 9 -18 2 -49 17 -55 29 -6 9 -5 19 1 25 5 5 6 5 17 4 6 0
14 -2 17 -4z m254 -38 c3 -1 5 -2 5 -3 0 -1 3 -1 6 0 12 1 17 -27 7 -42 -4 -7
-6 -8 -9 -6 -2 1 -4 1 -4 0 0 -2 -9 -5 -13 -4 -2 0 -33 -12 -36 -16 -23 -21
-47 -14 -63 18 -9 18 -11 38 -4 45 6 6 15 7 22 1 2 -2 4 -4 4 -5 0 -5 8 -7 25
-7 l17 0 3 7 c6 12 23 17 40 12z m966 -22 c5 -8 1 -16 -8 -16 -9 0 -13 8 -8
16 2 3 5 5 8 5 3 0 6 -2 8 -5z m-1375 -59 c2 -3 5 -9 6 -15 4 -16 9 -32 10
-34 3 -5 8 -22 8 -30 0 -11 -5 -24 -10 -26 -2 -1 -4 -2 -4 -3 0 -4 -11 -1 -16
4 -9 9 -12 14 -14 37 -1 12 -4 26 -6 32 -5 14 -5 28 0 34 6 7 20 7 26 1z
m-101 -18 c4 -6 4 -24 -1 -30 -7 -9 -27 -9 -34 0 -5 6 -5 24 0 30 7 9 27 9 35
0z m1538 -10 c4 -2 4 -4 3 -12 -1 -11 -3 -17 -13 -27 -11 -13 -12 -14 -17 -22
-6 -8 -12 -29 -15 -47 -2 -13 -8 -18 -21 -18 -14 0 -20 6 -20 19 0 11 2 14 12
25 21 22 25 28 34 58 3 11 7 22 8 23 6 7 20 7 29 1z m-1226 -28 c3 0 5 -1 5
-2 0 -1 5 -3 12 -6 35 -12 40 -15 40 -25 0 -6 -7 -15 -11 -15 -5 0 -23 -9 -23
-11 0 -1 -1 0 -2 1 -2 4 -17 13 -23 14 -2 1 -4 2 -5 2 -1 2 -20 10 -21 10 -3
0 -9 9 -9 13 0 6 5 11 16 16 5 2 10 4 12 5 2 1 3 1 4 0 0 -1 3 -2 5 -2z m537
-43 c6 -7 5 -17 -3 -39 -4 -11 -8 -25 -9 -32 -1 -11 -3 -15 -7 -19 -2 -3 -5
-4 -5 -3 -1 1 -7 4 -15 7 -23 10 -25 16 -10 30 11 11 16 25 15 43 0 7 1 10 4
13 8 8 23 8 30 0z m458 -1 c16 -8 18 -9 34 -9 18 0 22 -2 22 -13 0 -12 -17
-19 -24 -11 -1 2 -4 3 -5 3 -2 0 -6 2 -9 4 -8 4 -23 7 -30 5 -8 -2 -12 -11
-12 -27 0 -14 0 -14 8 -21 13 -12 14 -25 4 -47 -3 -8 -5 -15 -5 -28 -1 -16 -4
-26 -7 -26 -2 0 -5 6 -11 23 -3 9 -8 17 -13 22 -8 9 -8 9 -18 8 -15 -1 -22 -4
-23 -11 -4 -18 8 -62 21 -76 9 -10 34 -25 52 -30 13 -4 43 -6 48 -2 5 3 12 -7
14 -22 1 -7 1 -14 1 -14 -1 -1 0 -2 1 -2 0 0 1 -5 1 -12 0 -7 0 -12 -1 -12 -1
0 -2 -18 -2 -41 0 -55 2 -63 28 -79 16 -11 19 -14 19 -26 0 -12 -5 -18 -21
-27 -16 -10 -22 -19 -25 -41 -2 -14 9 -41 15 -37 1 1 2 0 2 -1 0 -2 1 -2 2 -1
3 3 14 1 19 -3 3 -3 8 2 8 8 -1 3 0 8 1 11 1 3 2 10 3 14 2 10 10 19 20 19 11
1 14 0 20 -6 8 -8 8 -25 0 -32 -8 -6 -29 -18 -32 -18 -4 0 -7 -4 -8 -14 -2
-12 -8 -25 -13 -28 -6 -3 -16 -2 -30 4 -13 5 -34 6 -42 2 -7 -4 -20 -3 -31 3
-14 7 -16 9 -18 18 -1 7 0 9 3 13 18 19 33 49 32 66 0 12 -9 20 -23 20 -4 0
-7 1 -7 2 0 1 -1 1 -3 -1 -5 -5 -22 -4 -28 2 -7 7 -7 23 0 30 6 6 23 7 27 2 3
-2 5 -2 24 3 13 4 15 21 7 48 -7 22 -19 49 -31 68 -2 4 -5 10 -7 13 -3 6 -17
25 -19 27 -1 1 -5 6 -9 12 -13 17 -29 22 -50 14 -37 -13 -57 3 -47 38 4 18 3
33 -3 42 -5 6 -30 25 -37 28 -7 3 -25 3 -26 0 0 -1 -1 -1 -3 -1 -1 1 -1 1 -1
0 1 -1 1 -3 0 -4 -4 -5 -2 -25 3 -34 6 -11 7 -26 2 -33 -5 -5 -16 -8 -25 -6
-11 3 -13 6 -14 29 -2 22 -3 27 -14 42 -12 16 -11 36 3 51 4 4 20 12 23 12 2
-1 24 10 29 14 2 2 3 4 2 4 -1 0 2 2 8 5 5 3 10 6 11 7 1 0 22 1 47 1 33 0 47
1 49 2 2 2 5 2 8 2 5 -2 11 3 15 13 5 8 15 18 27 25 8 5 21 14 24 17 3 3 14 8
18 8 3 0 13 -4 22 -8z m-729 -1 c9 -4 13 -16 7 -24 -5 -7 -21 -7 -29 0 -9 8
-6 23 5 28 3 1 8 0 17 -4z m-537 -17 c5 -5 6 -7 6 -17 0 -10 -1 -12 -6 -17 -5
-5 -7 -6 -17 -6 -10 0 -12 1 -17 6 -5 5 -6 7 -6 17 0 10 1 12 6 17 5 5 7 6 17
6 10 0 12 -1 17 -6z m202 -18 c3 -2 5 -5 6 -7 1 -9 19 -31 24 -31 2 0 5 -1 7
-3 2 -2 6 -3 8 -3 7 0 17 5 17 9 0 1 1 0 3 -3 1 -3 4 -8 6 -11 5 -10 4 -38 -2
-53 -3 -7 -5 -15 -5 -17 0 -3 -1 -4 -1 0 -1 3 -3 3 -11 3 -6 -1 -10 0 -10 1 0
1 -1 1 -1 -1 -3 -7 -19 -28 -23 -29 -10 -3 -15 -3 -22 -1 -11 2 -16 7 -18 18
-3 11 0 23 8 30 3 3 7 6 7 6 1 0 2 8 2 17 0 16 -1 18 -5 21 -3 2 -6 4 -7 4 -2
0 -4 1 -5 1 -1 0 -4 1 -6 1 -16 1 -23 34 -10 47 7 7 28 8 38 1z m246 -68 c4
-3 7 -6 8 -6 0 -1 2 -2 3 -2 2 0 3 -1 3 -2 0 -1 1 -2 2 -2 0 1 6 -1 12 -3 6
-2 14 -3 18 -2 12 1 18 -11 10 -19 -4 -4 -10 -4 -19 0 -18 7 -36 10 -43 6 -8
-4 -20 -3 -26 3 -6 6 -6 21 0 28 8 8 21 8 32 -1z m-379 -16 c3 -8 3 -12 -2
-19 -3 -3 -3 -3 -6 0 -3 3 -4 24 -1 22 1 -1 2 0 2 2 0 5 3 3 7 -5z m556 -9 c3
-3 3 -3 0 -6 -3 -3 -3 -3 -6 0 -3 2 -3 3 -1 6 4 4 4 4 7 0z m114 -26 c6 -6 1
-19 -8 -19 -6 0 -13 7 -13 12 0 10 13 15 21 7z m-729 0 c3 -2 6 -5 6 -5 0 -2
2 -5 13 -17 6 -7 16 -10 22 -6 2 2 4 2 5 2 1 -1 2 0 2 2 0 3 0 4 2 1 1 -2 2
-2 2 0 0 1 1 2 2 1 1 -1 2 0 3 1 0 2 1 2 1 1 0 -2 1 -3 3 -3 1 0 11 -8 21 -17
11 -10 20 -18 22 -19 8 -3 32 -19 35 -22 3 -4 4 -8 4 -20 0 -17 -3 -22 -11
-22 -5 -1 -5 -1 -1 -1 5 -1 5 -2 4 -12 0 -14 2 -16 22 -19 8 -1 21 -3 30 -5
19 -4 22 -3 34 4 8 6 21 26 21 34 0 7 9 13 20 13 20 0 25 -14 15 -40 -7 -18
-11 -30 -11 -36 0 -3 -1 -9 -3 -14 -4 -11 -7 -32 -5 -32 1 0 2 -1 1 -2 -1 -1
0 -4 1 -6 3 -3 6 -4 16 -4 12 0 14 1 19 6 3 3 7 6 8 6 0 0 3 1 4 3 2 2 7 3 13
3 14 0 20 -6 20 -19 0 -12 -2 -16 -13 -21 -6 -3 -13 -8 -16 -11 -8 -8 -16 -11
-22 -10 -6 0 -26 16 -29 21 -1 2 -3 4 -5 4 -1 0 -4 1 -5 3 -14 13 -35 12 -57
-3 -9 -7 -19 -8 -35 -3 -11 3 -19 3 -30 -1 -20 -9 -20 -9 -43 15 -35 35 -54
39 -88 20 l-12 -7 -6 4 c-4 2 -8 8 -11 14 -10 24 -12 28 -12 30 0 0 -4 8 -8
16 -13 25 -10 40 9 40 9 0 15 -4 29 -22 3 -4 10 -11 16 -14 5 -4 12 -10 16
-13 6 -7 7 -7 21 -7 16 0 23 4 23 12 0 5 12 15 18 14 6 -1 21 4 24 7 2 2 3 8
2 17 l0 14 6 1 c6 0 6 0 -1 1 -8 0 -10 1 -18 12 -5 6 -10 13 -11 16 -1 2 -9
11 -17 18 -8 8 -15 15 -15 15 -5 6 -21 22 -22 22 0 0 -3 1 -5 2 -2 1 -8 0 -15
-1 -6 -1 -16 -3 -22 -3 -11 -1 -12 -1 -18 5 -5 5 -6 7 -6 17 0 16 7 23 22 23
6 0 13 -1 16 -3z m558 -31 c5 -5 6 -7 6 -16 0 -15 -3 -18 -23 -28 -21 -11 -24
-12 -28 -16 -6 -7 -17 -12 -25 -12 -13 0 -14 0 -20 6 -11 11 -7 37 7 41 9 3
36 17 46 24 13 10 28 10 37 1z m228 -17 c21 -9 20 -45 -2 -54 -10 -5 -28 -1
-34 6 -11 12 -8 43 5 49 5 2 24 1 31 -1z m194 -118 c10 -5 13 -18 9 -40 -3
-13 -2 -33 1 -45 3 -9 0 -23 -6 -28 -11 -12 -38 -8 -49 7 -7 9 -15 12 -29 12
-9 0 -15 -1 -19 -4 -10 -5 -29 -4 -36 2 -6 4 -6 6 -6 20 0 14 0 16 6 20 7 7
24 7 38 0 13 -6 33 -6 38 0 4 5 7 19 8 33 1 5 2 13 4 16 6 11 26 14 41 7z
m-401 -18 c6 -4 6 -6 6 -20 0 -14 0 -16 -6 -20 -4 -4 -7 -5 -18 -5 -11 0 -14
1 -18 5 -6 4 -6 6 -6 20 0 14 0 16 6 20 4 4 7 5 18 5 11 0 14 -1 18 -5z m494
-28 c3 -3 3 -3 0 -6 -3 -3 -3 -3 -6 0 -3 2 -3 3 -1 6 4 4 4 4 7 0z m-623 -15
c1 -1 4 -5 9 -10 4 -5 7 -12 7 -14 0 -7 -6 -14 -13 -14 -6 0 -17 10 -18 18 -1
3 -2 7 -3 9 0 2 -1 5 0 6 0 0 -1 1 -2 1 -4 0 -2 3 3 6 4 2 15 1 17 -2z m-455
-59 c13 -10 18 -19 17 -33 -1 -11 -2 -13 -7 -17 -7 -5 -14 -7 -22 -5 -23 6
-23 44 0 57 5 4 5 4 12 -2z m549 0 c13 -6 18 -22 12 -41 -7 -21 -5 -49 5 -54
7 -4 29 -3 36 2 3 3 7 6 8 7 2 5 16 4 21 -1 6 -7 25 -46 27 -54 2 -9 -3 -19
-9 -22 -6 -3 -21 -3 -27 1 -4 2 -10 15 -12 27 -1 3 -3 6 -4 8 -2 2 -5 5 -7 8
-2 3 -6 5 -13 5 -9 2 -9 1 -21 -11 -7 -6 -14 -12 -18 -13 -3 -1 -10 -6 -17
-13 l-11 -12 0 -14 c-1 -19 -3 -22 -19 -22 -15 0 -29 -4 -43 -11 -29 -16 -55
2 -48 32 5 20 25 26 49 14 14 -8 29 -11 38 -9 6 2 13 8 13 12 0 1 1 2 3 2 2 0
3 1 2 2 -1 1 0 2 1 2 2 0 1 9 -1 38 0 7 -4 19 -7 29 -6 17 -7 29 -3 54 3 21 7
28 15 33 9 4 21 4 30 1z m234 -31 c0 0 3 -3 4 -6 3 -4 4 -13 4 -61 0 -31 1
-56 1 -57 1 -1 0 -2 -1 -2 -1 0 -4 -2 -6 -5 -3 -4 -5 -4 -19 -4 -42 2 -51 3
-59 10 -4 3 -3 4 2 10 15 21 70 112 70 118 0 4 1 4 1 1 1 -2 2 -4 3 -4z m-580
-36 c11 -11 -6 -26 -17 -16 -7 5 -6 13 2 17 7 3 11 3 15 -1z m-75 -6 c5 -5 5
-4 1 -32 -1 -9 -1 -24 -1 -34 2 -25 0 -27 -27 -28 -20 -1 -22 -2 -32 -9 -6 -4
-12 -7 -13 -7 -2 0 -3 -1 -3 -3 0 -1 -2 -3 -5 -4 -7 -2 -17 8 -17 17 0 9 5 13
20 15 13 2 21 5 30 14 10 10 12 15 13 41 2 26 4 31 14 34 8 2 14 0 20 -4z
m-204 -26 c8 -7 8 -16 2 -21 -9 -7 -17 -7 -25 2 -3 5 -6 10 -6 12 0 10 21 14
29 7z m68 -27 c1 -2 3 -6 4 -11 1 -4 2 -9 2 -12 2 -9 1 -13 -5 -21 -3 -5 -6
-9 -6 -10 0 -3 -8 -9 -12 -9 -8 0 -10 7 -10 34 0 24 0 26 4 27 2 1 4 2 4 3 0
3 15 2 19 -1z m327 -7 c7 -9 0 -39 -11 -48 -5 -5 -9 -5 -13 1 -7 8 0 38 11 47
5 5 9 5 13 0z m-253 -98 c14 -16 -7 -38 -22 -24 -6 5 -7 18 -2 23 2 1 3 4 3 5
0 1 1 2 2 1 1 0 3 0 4 2 3 4 9 1 15 -7z m1454 -3 c7 -11 -6 -22 -18 -16 -7 5
-8 7 -3 12 2 2 5 5 7 6 4 5 11 3 14 -2z m-551 -21 c5 -9 5 -20 1 -26 -3 -3
-10 -5 -21 -8 -9 -3 -23 -8 -31 -12 -8 -4 -16 -8 -19 -8 -19 -2 -26 4 -26 21
0 12 6 21 14 21 9 0 21 2 26 3 3 1 5 1 5 1 0 0 6 2 14 5 29 11 32 11 37 3z
m-986 -11 l-5 -5 -4 4 -5 5 4 4 5 5 4 -4 5 -5 -4 -4z m1488 8 c5 -2 10 -6 10
-8 0 -1 -2 -5 -4 -10 -2 -4 -4 -10 -5 -13 0 -3 -3 -7 -4 -9 l-4 -5 -12 4 c-7
2 -14 6 -15 8 -5 6 -5 22 0 28 5 6 23 9 34 5z"/>
<path d="M608 1972 c-5 -1 -7 -5 -16 -24 -14 -29 -10 -47 14 -63 17 -11 24
-14 36 -12 13 1 17 3 34 21 18 18 21 23 20 37 0 14 -7 21 -24 27 -7 2 -18 7
-25 10 -11 6 -29 8 -39 4z"/>
</g>
</svg>
