<?xml version="1.0" standalone="no"?>
<!DOCTYPE svg PUBLIC "-//W3C//DTD SVG 20010904//EN"
 "http://www.w3.org/TR/2001/REC-SVG-20010904/DTD/svg10.dtd">
<svg version="1.0" xmlns="http://www.w3.org/2000/svg"
 width="1100.000000pt" height="2850.000000pt" viewBox="0 0 1100.000000 2850.000000"
 preserveAspectRatio="xMidYMid meet">
<metadata>
Created by potrace 1.15, written by Peter Selinger 2001-2017
</metadata>
<g transform="translate(0.000000,2850.000000) scale(0.500000,-0.500000)"
fill="#000000" stroke="none">
<path d="M373 3799 c-35 -7 -93 -36 -111 -56 -7 -8 -7 -8 -6 -22 0 -12 4 -18
15 -24 29 -17 49 -12 69 17 7 10 9 12 17 14 4 1 9 3 10 4 1 1 6 3 12 5 5 2 9
4 9 5 0 1 1 2 3 2 2 0 3 1 3 2 0 0 4 3 9 4 8 4 9 4 13 -1 4 -5 3 -10 -9 -28
-4 -5 -8 -14 -11 -20 -7 -17 -11 -23 -12 -23 -1 0 -5 -5 -9 -11 -11 -19 -11
-35 2 -60 6 -14 14 -20 33 -30 20 -9 23 -14 23 -31 -1 -24 -13 -52 -25 -55 -8
-3 -24 -2 -29 2 -7 4 -9 9 -10 25 -1 18 -6 31 -14 35 -12 7 -17 7 -68 -3 -68
-13 -90 -13 -126 3 -22 9 -44 7 -52 -6 -4 -7 -9 -22 -9 -30 0 -22 14 -63 28
-80 19 -24 17 -23 43 -34 12 -5 26 -16 24 -19 -1 -1 0 -2 1 -2 1 0 3 -3 5 -7
7 -12 31 -17 43 -7 7 5 8 37 1 36 -1 0 -3 0 -5 1 -8 2 -16 4 -28 3 -12 0 -13
1 -18 6 -5 5 -6 6 -5 18 1 21 7 29 25 29 14 0 18 -4 30 -28 10 -21 15 -26 22
-24 1 1 2 1 2 -1 0 -1 3 -5 7 -9 3 -4 8 -9 10 -12 6 -9 12 -12 24 -11 12 0 19
6 31 27 5 7 10 15 13 16 7 5 24 5 33 0 4 -1 7 -3 8 -3 9 0 25 -7 29 -13 5 -7
15 -48 15 -62 0 -11 -5 -14 -67 -30 -63 -16 -69 -17 -73 -18 -1 0 -6 -2 -12
-3 -40 -10 -68 -13 -102 -14 -38 0 -48 1 -63 11 -13 9 -32 7 -40 -6 -6 -9 -8
-17 -9 -38 -1 -44 14 -74 52 -105 5 -4 11 -9 14 -12 9 -8 23 -10 45 -6 14 2
19 0 26 -14 9 -15 20 -22 36 -22 16 0 40 9 83 34 14 7 63 28 88 37 10 4 24 9
30 11 26 9 30 5 37 -37 1 -3 2 -13 4 -22 2 -9 3 -21 4 -27 2 -14 6 -30 11 -39
2 -4 6 -12 8 -18 3 -11 3 -12 0 -29 -6 -22 -4 -35 5 -55 23 -50 58 -75 104
-76 12 0 21 1 27 4 5 2 10 3 11 4 1 0 7 3 13 6 14 8 26 21 35 37 18 35 17 67
-8 147 -8 25 -18 62 -20 74 -1 2 -2 8 -3 13 -7 28 -14 63 -14 67 0 11 19 21
52 26 10 2 19 6 26 12 5 5 12 28 10 33 -1 2 -4 8 -7 14 -3 6 -7 13 -9 15 -10
12 -12 24 -6 31 7 8 14 5 31 -10 15 -14 24 -20 30 -20 7 0 24 8 31 14 12 12
16 14 28 14 15 0 22 -7 22 -22 0 -7 -1 -13 -4 -17 -4 -6 -4 -27 0 -32 7 -8 22
-11 52 -8 19 2 19 2 37 9 20 8 32 21 41 41 24 58 -16 111 -99 128 -34 7 -48 4
-68 -17 -14 -14 -22 -17 -38 -13 -18 5 -36 4 -56 -3 -22 -8 -30 -12 -39 -20
-16 -14 -25 -16 -54 -12 -9 1 -13 2 -17 7 -3 3 -5 6 -5 7 0 0 -2 11 -5 23 -10
43 -10 43 24 51 22 6 65 15 80 17 26 5 36 11 43 25 8 15 10 22 10 26 0 2 2 5
5 8 7 7 20 6 32 -2 8 -6 10 -6 22 -6 18 2 23 6 27 29 4 23 -6 52 -25 70 -17
16 -50 31 -78 34 -7 1 -14 2 -16 2 -12 3 -68 -13 -83 -23 -9 -7 -13 -33 -7
-44 2 -3 3 -10 3 -16 0 -14 -7 -22 -20 -22 -16 -1 -29 0 -39 2 -15 3 -18 8
-18 31 -1 10 -2 21 -2 25 -3 13 -3 15 -3 35 0 11 1 26 3 35 4 19 4 30 -1 43
-5 13 -19 29 -30 33 -3 2 -6 4 -6 4 0 1 -1 2 -2 2 -1 0 -8 3 -14 6 -18 8 -18
8 -52 15 -29 6 -70 8 -93 4z m247 -518 c3 -3 6 -21 4 -26 -5 -12 -28 -16 -37
-6 -6 6 -7 24 -1 31 6 8 26 9 34 1z"/>
<path d="M1689 3668 c-9 -3 -22 -10 -32 -17 -18 -13 -36 -18 -72 -22 -45 -5
-53 -8 -68 -34 -9 -16 -14 -20 -27 -20 -12 0 -16 3 -24 13 -15 20 -24 26 -36
26 -15 0 -26 -16 -27 -42 -1 -21 -9 -29 -29 -29 -18 1 -22 5 -32 34 -9 25 -25
33 -62 33 -21 0 -36 2 -47 7 -8 4 -36 15 -47 18 -13 5 -28 3 -46 -5 -24 -11
-31 -10 -54 5 -12 8 -15 9 -25 9 -19 0 -30 -11 -31 -31 0 -8 5 -18 12 -29 5
-6 8 -12 8 -13 0 -2 1 -3 2 -3 2 -1 14 -25 22 -44 6 -15 15 -44 17 -60 1 -5 2
-11 2 -14 0 -3 1 -11 2 -19 1 -8 2 -16 2 -19 2 -14 8 -98 10 -150 1 -15 2 -34
2 -43 1 -19 3 -68 4 -139 1 -59 2 -60 7 -75 11 -32 35 -57 66 -67 24 -8 42 -1
56 20 8 13 13 17 33 20 8 1 18 4 22 6 9 4 17 14 17 20 0 4 13 15 19 15 2 0 16
1 31 2 18 1 33 3 47 6 20 5 39 6 55 2 7 -2 28 -1 66 0 43 2 136 2 179 0 59 -3
84 -3 96 2 24 9 40 36 40 68 -1 28 -16 57 -41 76 -18 14 -20 21 -11 59 10 46
13 61 16 74 2 7 4 18 6 24 8 32 25 91 31 104 4 8 13 21 16 24 1 1 5 6 10 13 5
7 10 12 10 13 5 4 13 26 13 37 0 27 -16 41 -49 44 -12 1 -20 7 -20 13 0 7 -7
27 -10 31 -7 7 -22 9 -38 5 -10 -2 -14 2 -20 19 -6 14 -10 20 -19 26 -11 8
-37 11 -52 7z m-32 -121 c5 -4 6 -6 7 -16 1 -18 -1 -21 -23 -35 -11 -6 -20
-12 -21 -12 -2 -1 -4 -18 -5 -34 0 -15 7 -27 20 -36 5 -3 11 -9 13 -12 3 -5 3
-5 0 -10 -2 -2 -9 -7 -16 -11 -22 -11 -23 -13 -31 -75 -7 -57 -7 -55 -12 -84
-4 -23 -9 -30 -24 -30 -4 0 -11 -1 -15 -1 -4 0 -16 -1 -26 -2 -10 -1 -31 -2
-45 -3 -14 -1 -33 -2 -41 -3 -8 -1 -19 -2 -25 -2 -5 -1 -17 -1 -26 -2 -9 -1
-26 -2 -39 -3 -23 -2 -36 -1 -54 4 -9 3 -22 14 -22 21 -1 17 1 23 15 33 11 8
17 15 21 27 4 10 4 46 1 160 0 18 0 20 4 25 4 5 7 6 20 7 29 2 67 11 77 17 9
5 18 20 24 37 4 14 12 19 27 20 12 1 21 -4 28 -16 15 -23 18 -26 29 -31 11 -4
23 -4 61 -1 11 1 23 7 24 11 1 2 2 4 3 3 4 -2 5 3 8 33 2 22 6 26 25 26 11 0
14 -1 18 -5z m85 -137 c5 -5 5 -15 0 -20 -9 -9 -24 -2 -24 10 0 8 6 14 14 14
3 0 8 -2 10 -4z m13 -114 c4 -6 4 -24 -1 -30 -7 -9 -27 -9 -34 0 -5 6 -5 24 0
30 7 9 27 9 35 0z m-429 -187 l-5 -5 -4 4 -5 5 4 4 5 5 4 -4 5 -5 -4 -4z m216
6 c3 -3 4 -7 4 -14 0 -13 -6 -19 -19 -19 -13 0 -19 6 -19 19 0 7 1 11 4 14 7
8 23 8 30 0z m-345 -64 c8 -5 19 -24 19 -35 0 -9 -7 -16 -15 -16 -16 0 -29 32
-20 48 4 7 6 7 16 3z"/>
<path d="M1521 2812 c-13 -2 -32 -9 -46 -16 -28 -15 -44 -25 -50 -33 -6 -7 -7
-9 -7 -20 0 -12 0 -13 7 -20 4 -4 12 -9 17 -11 35 -16 37 -17 44 -30 3 -7 6
-14 6 -16 0 -2 1 -4 3 -5 2 0 3 -2 3 -4 0 -3 7 -5 23 -4 l12 0 2 9 c2 5 3 18
3 29 0 19 0 20 6 25 5 5 7 6 17 6 23 0 30 -18 16 -46 -4 -8 -8 -19 -9 -25 -2
-9 -2 -11 3 -21 3 -6 8 -15 12 -20 l8 -8 13 0 c11 1 21 4 24 8 6 7 25 10 33 5
7 -5 32 -3 39 1 4 3 10 13 18 29 12 25 13 27 13 40 0 8 -1 17 -3 20 -1 3 -4 9
-6 13 -9 17 -41 44 -77 63 -51 26 -90 36 -124 31z"/>
<path d="M586 2758 c-13 -2 -23 -8 -36 -19 -6 -6 -12 -11 -13 -12 -10 -5 -12
-29 -3 -46 8 -16 8 -31 0 -39 -6 -6 -7 -6 -18 -6 -11 0 -12 0 -18 6 -5 5 -6 7
-6 15 0 12 -7 30 -14 36 -10 8 -18 9 -46 6 -14 -2 -39 -4 -57 -6 -29 -3 -43
-5 -54 -11 -2 -1 -9 -4 -16 -6 -11 -3 -13 -3 -23 -1 -10 3 -49 20 -52 23 -1 1
-6 4 -12 8 -52 33 -106 49 -138 41 -8 -2 -18 -11 -21 -19 -6 -12 -3 -26 10
-52 34 -71 44 -115 48 -220 1 -14 1 -27 2 -29 0 -2 1 -5 1 -5 0 -1 2 -4 5 -7
6 -7 12 -9 22 -10 4 0 8 -1 9 -2 1 -1 2 0 2 1 0 3 22 2 31 -1 10 -3 25 -3 40
2 12 3 14 3 19 -1 8 -8 2 -18 -10 -20 -17 -1 -31 -8 -47 -21 -6 -6 -8 -7 -20
-7 -9 0 -14 1 -16 3 -3 4 -7 4 -21 1 -15 -3 -19 -10 -18 -26 2 -21 26 -63 47
-80 3 -3 7 -6 8 -7 8 -7 34 -19 46 -20 46 -7 87 26 95 74 2 10 1 88 -1 99 0 2
-1 20 -2 40 -1 20 -2 38 -2 40 0 2 -1 14 -1 26 -1 21 0 22 4 27 3 3 7 5 10 5
3 0 14 2 24 4 10 2 34 7 53 10 43 7 46 8 60 9 7 1 12 2 13 2 1 0 8 1 16 2 8 1
16 2 16 2 1 1 4 -2 7 -5 5 -6 5 -6 4 -22 -1 -10 -3 -25 -4 -35 -2 -9 -3 -27
-3 -39 0 -24 -1 -28 -12 -50 -4 -8 -9 -22 -12 -30 -2 -8 -8 -27 -13 -41 -4
-14 -8 -26 -8 -27 0 -3 -16 -42 -24 -61 -10 -22 -27 -57 -37 -74 -4 -8 -9 -15
-9 -17 -1 -2 -5 -7 -8 -13 -4 -5 -13 -20 -21 -33 -15 -23 -17 -26 -24 -51 -4
-15 -7 -19 -22 -28 -6 -3 -14 -10 -18 -15 -14 -17 -20 -23 -30 -30 -13 -9 -24
-20 -24 -23 0 -6 -7 -25 -8 -25 -1 0 -2 -1 -1 -2 1 -1 0 -2 -1 -2 -3 0 -4 -8
-2 -11 2 -2 3 -2 6 2 6 7 9 6 29 -3 10 -5 18 -9 19 -9 1 0 2 -1 3 -1 1 -1 7
-2 13 -1 9 0 14 2 27 10 8 5 16 9 16 9 2 0 41 25 60 39 42 29 102 84 130 117
6 7 12 15 15 18 2 3 5 6 6 7 0 1 6 9 13 18 20 27 21 29 21 38 0 12 -5 21 -19
31 -14 12 -16 15 -15 31 2 16 7 21 25 21 7 0 13 -1 14 -2 3 -4 17 -6 29 -4 14
3 19 8 28 28 3 8 8 19 10 23 17 38 21 50 25 67 4 20 9 34 17 49 7 14 8 18 9
26 2 9 13 43 15 44 1 1 5 6 8 13 3 6 8 14 11 17 7 8 7 9 15 22 14 22 16 28 16
38 0 13 -5 19 -19 20 -6 1 -10 2 -11 2 0 1 -2 0 -3 -1 -5 -4 -21 -3 -26 3 -9
8 -6 29 5 37 5 4 8 28 3 35 -1 3 -7 9 -14 14 -7 6 -13 11 -15 13 -15 14 -84
53 -92 52 -1 0 -3 1 -6 1 -3 1 -9 2 -14 1z m71 -261 c3 -5 3 -5 0 -10 -2 -3
-5 -5 -7 -5 -2 0 -5 2 -7 5 -3 5 -3 5 0 10 2 3 5 5 7 5 2 0 5 -2 7 -5z m-224
-416 c5 -8 1 -16 -8 -16 -9 0 -13 8 -8 16 2 3 5 5 8 5 3 0 6 -2 8 -5z"/>
<path d="M1524 2616 c-8 0 -12 -1 -15 -5 -9 -9 -9 -11 -7 -55 1 -19 2 -48 3
-64 1 -29 2 -38 5 -38 1 0 2 -1 2 -1 -1 -5 1 -7 8 -10 4 -1 10 -3 14 -3 4 -1
8 -2 9 -2 2 -1 3 -1 4 2 1 5 5 5 33 -2 9 -2 21 -4 27 -5 17 -3 25 -16 21 -35
-2 -11 -7 -16 -18 -18 -15 -4 -21 -1 -44 22 -11 12 -20 22 -20 24 0 1 -1 2 -2
1 -1 0 -5 -1 -11 -1 -5 -1 -9 -2 -9 -3 0 -1 -1 -1 -1 0 -3 2 -10 -4 -13 -12
-4 -9 -4 -14 -5 -58 0 -34 1 -50 2 -53 7 -13 13 -32 13 -39 0 -4 -3 -13 -9
-23 -11 -23 -12 -26 -16 -64 -3 -35 -4 -36 -7 -53 -1 -5 -2 -13 -3 -16 0 -3
-2 -11 -3 -17 -5 -18 -3 -77 1 -100 8 -36 22 -63 43 -84 48 -48 126 -39 154
17 14 28 18 69 10 105 -4 19 -6 52 -3 56 2 3 0 110 -2 170 -3 51 -1 100 3 108
2 4 10 11 10 9 0 -1 3 -5 7 -9 6 -7 19 -23 29 -36 3 -4 10 -13 15 -20 6 -7 12
-16 15 -21 2 -4 5 -8 7 -10 1 -1 7 -10 14 -19 18 -26 41 -50 49 -53 2 -1 4 -2
4 -3 0 -2 12 -6 19 -5 3 0 8 1 10 1 2 0 11 4 19 9 l15 10 16 -1 c32 0 43 5 53
26 9 19 11 29 11 50 0 36 -18 72 -52 104 -16 16 -25 22 -52 40 -6 3 -48 24
-60 28 -32 13 -87 26 -110 26 -12 0 -17 8 -17 25 0 8 -1 17 -2 21 -2 7 -10 16
-15 16 -1 0 -6 1 -12 2 -5 1 -10 1 -10 0 -2 -3 -19 -2 -34 1 -8 1 -22 3 -33 4
-24 2 -27 4 -32 26 -4 17 -12 35 -15 35 -1 1 -7 1 -13 0z m337 -258 c7 -6 7
-19 1 -25 -6 -7 -19 -7 -25 -1 -7 6 -7 19 -1 25 6 7 19 7 25 1z m-230 -281 c3
-3 3 -3 0 -6 -3 -3 -3 -3 -6 0 -3 2 -3 3 -1 6 4 4 4 4 7 0z"/>
<path d="M1202 2600 c-10 -3 -16 -7 -23 -13 -9 -8 -10 -9 -11 -20 0 -10 0 -12
7 -22 4 -5 10 -12 13 -13 8 -4 26 -8 32 -7 34 6 42 -6 31 -41 -11 -34 -13 -39
-29 -46 -6 -3 -10 -5 -10 -6 0 -1 -1 -2 -3 -2 -4 0 -14 -12 -20 -25 -12 -25
-9 -38 13 -56 13 -11 15 -13 16 -20 0 -6 -1 -9 -4 -12 -5 -6 -9 -6 -28 -2 -3
1 -11 1 -17 0 -14 -2 -20 -7 -32 -30 -15 -28 -44 -73 -63 -98 -9 -12 -15 -21
-25 -37 -7 -11 -10 -15 -21 -25 -5 -4 -13 -12 -18 -18 -5 -5 -24 -25 -42 -43
-30 -30 -45 -44 -64 -59 -4 -3 -7 -6 -8 -7 -1 -1 -11 -8 -23 -17 -25 -18 -29
-24 -29 -39 0 -13 2 -18 13 -22 26 -12 63 3 74 28 2 5 4 11 5 12 1 2 2 5 2 7
0 1 2 4 5 7 5 5 21 6 26 2 1 -1 9 -4 17 -7 18 -7 24 -6 48 7 42 23 44 26 45
57 0 10 2 18 3 20 3 4 10 4 14 1 1 -2 2 -2 2 -1 0 1 1 1 3 0 4 -4 21 -8 30 -7
12 2 22 9 62 49 25 25 40 41 57 63 4 5 9 11 11 14 3 3 5 5 5 6 0 1 3 6 8 11 4
6 8 12 9 14 2 2 5 8 8 12 16 24 51 87 60 110 19 43 42 91 49 99 2 2 4 5 4 6 0
1 1 2 2 2 4 0 11 21 11 35 0 12 -1 16 -7 29 -8 16 -26 39 -37 47 -10 6 -79 29
-91 29 -5 0 -14 6 -22 14 -14 16 -33 21 -58 14z m-3 -380 c7 -6 7 -19 1 -25
-6 -7 -19 -7 -25 -1 -7 6 -7 19 -1 25 6 7 19 7 25 1z"/>
<path d="M957 2594 c-9 -4 -13 -10 -14 -23 -1 -7 0 -11 10 -31 20 -42 23 -52
43 -113 12 -36 22 -57 36 -71 17 -17 25 -21 46 -21 16 0 18 1 32 8 41 20 60
65 47 108 -4 12 -20 44 -24 48 -2 2 -4 6 -6 9 -2 3 -5 6 -8 7 -11 1 -15 3 -21
6 -7 4 -16 16 -19 26 0 0 -1 1 -1 2 0 0 -1 2 -1 5 -1 3 -1 5 -2 5 -23 13 -35
20 -47 25 -38 15 -56 17 -71 10z m122 -75 c2 -1 2 -2 2 -3 -1 -1 0 -2 1 -2 6
0 3 -17 -5 -25 -9 -11 -27 -3 -27 11 0 12 17 23 29 19z"/>
<path d="M802 2534 c-26 -5 -32 -27 -16 -62 8 -19 24 -60 29 -79 5 -17 15 -31
23 -33 13 -3 20 -4 27 -4 23 1 29 -3 29 -21 0 -9 -1 -12 -6 -19 -6 -8 -7 -11
-7 -21 0 -17 3 -22 16 -26 22 -8 49 0 70 19 24 23 33 55 25 89 -4 13 -20 48
-26 55 -2 1 -6 7 -9 11 -23 33 -77 71 -121 86 -20 6 -23 7 -34 5z"/>
</g>
</svg>
