<?xml version="1.0" standalone="no"?>
<!DOCTYPE svg PUBLIC "-//W3C//DTD SVG 20010904//EN"
 "http://www.w3.org/TR/2001/REC-SVG-20010904/DTD/svg10.dtd">
<svg version="1.0" xmlns="http://www.w3.org/2000/svg"
 width="1100.000000pt" height="2850.000000pt" viewBox="0 0 1100.000000 2850.000000"
 preserveAspectRatio="xMidYMid meet">
<metadata>
Created by potrace 1.15, written by Peter Selinger 2001-2017
</metadata>
<g transform="translate(0.000000,2850.000000) scale(0.500000,-0.500000)"
fill="#000000" stroke="none">
<path d="M1684 3715 c-6 -3 -6 -4 -6 -16 0 -11 1 -13 7 -19 3 -4 9 -9 13 -12
7 -3 9 -6 11 -15 7 -23 -6 -41 -28 -40 -12 1 -17 3 -27 15 -11 11 -18 13 -33
11 -6 0 -10 -2 -12 -5 -4 -6 -18 -21 -29 -32 -15 -15 -22 -16 -75 -16 -60 0
-67 -3 -71 -30 -1 -7 -1 -10 1 -10 1 0 3 -2 5 -4 3 -6 17 -12 27 -12 5 0 14 2
20 4 23 8 35 5 50 -13 7 -9 19 -16 27 -17 3 -1 7 -4 11 -7 6 -6 6 -7 5 -20 -1
-20 7 -35 19 -38 1 0 3 -1 5 -2 10 -3 16 -5 17 -3 0 0 4 1 8 0 10 -1 23 0 28
1 2 0 5 1 6 1 1 0 6 3 11 6 10 6 13 12 23 40 3 8 7 19 10 23 3 4 7 12 10 17
11 20 25 28 35 17 7 -8 4 -20 -9 -34 -19 -19 -20 -24 -16 -49 5 -31 3 -39 -13
-50 -5 -4 -10 -11 -15 -20 -4 -8 -8 -15 -7 -15 0 0 0 -2 -3 -12 -3 -9 -11 -14
-25 -14 -13 0 -15 1 -25 11 -15 14 -19 16 -30 16 -19 0 -29 -15 -29 -44 0 -20
7 -46 12 -46 1 0 2 -1 2 -3 0 -2 1 -3 2 -3 3 0 11 -19 11 -28 0 -9 -8 -28 -11
-28 -1 0 -2 -1 -2 -3 0 -2 -1 -3 -2 -3 -2 0 -7 -12 -10 -23 -3 -9 -2 -244 1
-255 1 -4 2 -9 2 -11 0 -3 1 -5 1 -5 1 0 1 -2 0 -4 -1 -2 -2 -4 -1 -4 1 0 1
-1 0 -2 -2 -2 -4 -12 -5 -24 -2 -21 -2 -21 3 -32 6 -15 17 -25 28 -29 3 -1 8
-4 11 -7 5 -5 6 -7 6 -16 0 -9 -1 -11 -6 -16 -3 -3 -8 -6 -11 -7 -11 -4 -22
-14 -27 -27 -3 -7 -4 -13 -4 -44 0 -47 3 -55 26 -68 15 -9 20 -15 20 -24 0
-10 -5 -15 -22 -26 -13 -7 -18 -15 -19 -29 -2 -11 5 -17 22 -20 11 -2 13 -2
14 0 2 5 8 3 12 -2 3 -5 3 -5 0 -10 -4 -5 -10 -7 -12 -2 -1 4 -26 -1 -32 -7
-8 -8 -9 -14 -9 -113 0 -84 1 -96 4 -112 5 -24 5 -31 -1 -37 -6 -6 -18 -5 -30
2 -5 3 -14 8 -19 10 l-9 5 -118 0 c-65 1 -120 1 -123 1 -13 0 -22 17 -18 35 1
7 5 11 28 33 33 32 35 35 36 69 0 14 0 27 -1 29 -1 1 -2 4 -2 6 -1 2 -14 16
-14 14 0 -1 -20 3 -21 5 -1 1 -2 1 -2 -1 0 -6 -13 -5 -18 0 -5 5 -5 15 0 20 5
5 18 6 18 1 0 -3 1 -3 2 -2 0 1 5 3 10 4 5 0 10 1 11 1 3 1 13 11 14 14 0 2 1
4 2 6 0 2 1 79 1 172 l-1 169 -5 11 c-3 7 -7 13 -9 15 -13 14 -14 28 -4 38 8
8 18 9 18 2 0 -3 1 -5 2 -5 1 0 5 -7 10 -15 14 -29 16 -29 102 -29 73 0 76 0
85 10 4 4 10 21 10 28 1 10 -12 32 -22 39 -9 6 -10 6 -32 6 -28 0 -36 -3 -53
-18 -12 -10 -30 -15 -41 -10 -3 1 -9 4 -14 8 -7 4 -19 9 -24 9 -1 0 -3 1 -5 2
-3 1 -5 1 -6 -1 -1 -2 -2 4 -1 8 0 0 -1 1 -2 1 -1 0 -2 2 -2 4 0 2 -2 5 -4 6
-2 2 -3 4 -2 8 1 7 -3 21 -7 25 -6 7 -29 16 -33 14 -6 -4 -15 -3 -19 2 -3 5
-4 8 -3 24 0 3 4 8 9 13 5 5 15 14 22 21 6 6 15 16 18 22 13 20 13 16 13 175
0 159 1 152 -12 176 -5 10 -22 26 -35 32 -20 10 -28 23 -23 41 4 14 11 19 27
20 9 1 15 -2 26 -9 7 -5 10 -6 20 -6 18 0 22 2 30 15 4 7 8 12 9 13 2 0 -1 23
-4 27 -1 3 -6 7 -11 9 -10 4 -10 4 -26 1 -32 -6 -38 -5 -57 16 -13 14 -20 18
-54 32 -37 15 -62 25 -69 28 -37 16 -68 27 -75 26 -4 0 -8 -1 -9 -1 -5 0 -17
-13 -19 -20 -4 -12 -3 -89 2 -108 5 -21 5 -29 0 -50 -4 -16 -4 -23 -4 -232 0
-227 0 -234 9 -238 2 -1 3 -3 3 -5 0 -1 4 -8 9 -15 12 -16 15 -26 16 -43 0
-17 -4 -26 -16 -37 -9 -9 -14 -19 -14 -28 1 -16 16 -48 27 -56 6 -4 21 -10 27
-10 12 0 17 -23 8 -32 -4 -4 -6 -4 -16 -3 -41 6 -53 -3 -53 -39 0 -24 5 -36
21 -45 8 -5 13 -6 33 -7 21 -2 23 -2 28 -7 7 -8 8 -15 4 -36 -6 -29 -12 -37
-24 -37 -9 0 -20 9 -21 19 -1 3 -2 4 -3 3 -1 -1 -9 -2 -18 -2 -16 -1 -17 -1
-18 -6 -1 -3 -2 -45 -2 -94 0 -78 0 -91 3 -99 2 -6 4 -10 5 -11 0 -1 4 -5 7
-9 3 -5 9 -10 14 -13 8 -4 38 -11 42 -10 8 2 20 -6 20 -13 0 -3 5 -19 11 -38
6 -17 6 -17 3 -22 -5 -7 -9 -6 -17 2 -25 27 -36 37 -42 39 -3 1 -6 3 -6 4 0 3
-25 0 -29 -4 -11 -11 -14 -36 -6 -53 4 -9 22 -27 27 -27 4 0 11 -13 11 -22 0
-9 -7 -22 -11 -22 -5 0 -23 -18 -27 -27 -5 -11 -5 -11 -5 -67 0 -50 0 -57 4
-65 4 -10 10 -16 20 -21 29 -13 29 -23 0 -36 -4 -2 -9 -6 -12 -8 -5 -5 -12
-20 -12 -26 0 -10 15 -32 21 -32 2 0 3 -1 3 -2 0 -4 61 -4 83 0 41 7 77 19 87
29 4 4 8 6 9 6 0 -1 1 -1 1 1 0 1 4 4 10 5 1 0 3 1 6 3 12 5 21 9 22 8 1 0 9
7 17 15 23 23 24 26 24 89 l0 51 6 6 6 6 114 0 114 0 6 -6 6 -6 -1 -80 c0 -88
0 -91 13 -103 5 -5 8 -6 16 -6 13 -1 18 3 29 24 10 20 11 21 45 21 25 0 29 -1
37 -5 4 -2 9 -5 10 -7 2 -3 11 -9 17 -10 17 -5 21 -4 69 18 26 13 43 27 51 43
l4 9 1 242 c0 241 0 242 -4 250 -6 12 -19 20 -39 22 -12 2 -17 8 -17 20 0 12
5 18 17 20 20 2 33 10 39 22 4 8 4 12 4 107 0 104 0 106 -9 126 -6 12 -7 26
-3 34 4 7 3 29 -1 35 -1 3 -8 8 -14 12 -6 4 -12 9 -14 11 -5 5 -6 18 -3 27 3
9 3 8 7 26 2 8 3 17 3 21 0 7 2 10 13 21 22 22 21 19 21 105 -1 84 -1 83 -19
98 -23 20 -23 20 -23 33 0 13 3 19 16 35 20 24 24 35 26 68 1 28 3 32 17 41
15 10 18 41 5 53 -1 1 -3 4 -5 7 -2 3 -4 5 -4 4 -1 0 -3 1 -5 3 -3 3 -5 4 -6
3 -1 -2 -9 -3 -27 -3 -12 -1 -13 0 -19 6 -5 5 -6 7 -6 17 0 13 3 18 12 27 6 4
6 5 6 19 0 20 -3 22 -32 21 -20 0 -20 0 -26 6 -4 3 -6 8 -7 15 -4 27 -9 37
-28 54 -26 22 -32 25 -46 25 -7 0 -14 -1 -17 -3z m-541 -139 c10 -9 3 -26 -10
-26 -8 0 -15 7 -15 15 0 13 16 20 25 11z m-27 -105 l-5 -5 -4 4 -5 5 4 4 5 5
4 -4 5 -5 -4 -4z m99 -56 c16 -1 18 -2 23 -7 5 -5 6 -7 6 -16 0 -13 -4 -20
-15 -27 -5 -3 -13 -10 -19 -16 -22 -25 -27 -34 -26 -50 1 -11 2 -14 7 -18 4
-4 8 -9 10 -13 4 -9 15 -55 15 -64 0 -10 -7 -16 -19 -16 -12 0 -15 3 -24 22
-4 8 -9 16 -10 17 -2 2 -3 4 -3 5 0 1 -6 5 -12 10 -22 15 -25 19 -25 35 0 11
4 19 14 30 5 6 9 13 12 24 l5 17 -3 25 c-4 31 -4 37 1 42 6 6 11 7 30 4 8 -2
23 -3 33 -4z m555 -74 c10 -10 4 -44 -9 -54 -4 -2 -9 -4 -15 -4 -20 0 -27 16
-19 40 4 11 6 15 13 19 10 7 23 6 30 -1z m14 -106 c21 -9 20 -45 -2 -54 -10
-5 -28 -1 -34 6 -9 10 -9 32 0 42 7 8 24 11 36 6z m-676 -178 l-5 -5 -4 4 -5
5 4 4 5 5 4 -4 5 -5 -4 -4z m568 -66 c1 -1 4 -6 6 -11 9 -19 16 -33 23 -43 10
-13 10 -25 0 -42 -3 -7 -8 -19 -10 -27 -5 -18 -8 -22 -16 -17 -3 2 -9 7 -12
12 -3 5 -12 13 -21 19 -10 6 -17 13 -18 16 -3 6 -4 16 -2 20 3 6 6 13 7 18 2
6 2 5 4 16 1 5 2 10 2 11 0 0 1 5 1 11 0 12 4 18 14 20 7 1 17 0 22 -3z m-423
-12 c3 -5 3 -5 0 -12 -5 -8 -13 -9 -18 -3 -4 7 -4 9 2 15 6 6 11 6 16 0z m-82
-16 c5 -3 6 -6 7 -16 0 -11 0 -12 -13 -38 -14 -27 -18 -32 -28 -34 -10 -1 -14
7 -12 29 4 56 4 54 10 59 8 7 28 7 36 0z m642 -157 c10 -9 3 -26 -10 -26 -8 0
-15 7 -15 15 0 13 16 20 25 11z m-584 -16 c3 -3 7 -11 9 -19 3 -8 7 -20 10
-27 8 -18 8 -32 0 -40 -6 -6 -7 -6 -18 -6 -11 0 -12 0 -18 6 -6 5 -6 7 -6 20
0 8 -1 25 -2 38 -2 22 -2 22 2 27 6 7 18 7 23 1z m524 -73 c6 -4 6 -6 6 -20 0
-14 0 -16 -6 -20 -4 -4 -7 -5 -18 -5 -11 0 -14 1 -18 5 -6 4 -6 6 -6 20 0 14
0 16 6 20 4 4 7 5 18 5 11 0 14 -1 18 -5z m-571 -130 c10 -5 15 -31 8 -38 -4
-6 -13 -6 -18 -1 -9 9 -10 35 -2 40 4 3 5 2 12 -1z m482 -150 c8 -9 7 -50 -3
-60 -5 -7 -17 -7 -23 0 -8 9 -7 50 3 61 5 6 17 6 23 -1z m21 -152 c4 -2 9 -8
13 -17 4 -7 10 -17 14 -21 7 -8 28 -19 35 -19 8 0 18 -5 22 -9 3 -5 3 -6 1
-13 -3 -10 -8 -15 -22 -20 -14 -4 -15 -4 -37 3 -33 10 -42 13 -45 16 -7 7 -18
46 -18 64 0 17 19 25 37 16z m-486 -15 c31 -14 44 -72 16 -72 -7 0 -13 5 -17
16 -2 4 -7 15 -12 26 -11 21 -12 24 -6 30 4 4 9 5 19 0z m45 -197 c6 -6 6 -22
1 -30 -4 -5 -5 -5 -15 -4 -15 1 -20 7 -20 20 0 7 1 11 4 14 7 8 23 8 30 0z"/>
<path d="M122 3612 c-7 -4 -10 -7 -14 -16 -3 -5 -5 -11 -6 -13 -1 -16 -3 -22
-11 -35 -15 -27 -15 -25 -15 -104 0 -66 0 -72 4 -81 5 -11 11 -18 27 -28 7 -4
15 -11 19 -16 14 -19 34 -23 48 -11 14 12 16 19 13 51 -1 16 2 31 9 44 7 14
13 18 27 18 20 0 28 -8 28 -27 0 -7 -1 -13 -3 -15 -5 -6 -9 -26 -7 -37 2 -10
22 -28 41 -38 l15 -7 127 -1 c120 0 127 0 142 4 21 5 39 17 48 30 3 5 9 13 20
26 2 3 9 13 14 22 11 18 15 23 34 32 7 4 16 8 19 10 7 3 9 7 9 18 0 3 1 6 2 5
2 -1 -1 15 -4 17 -1 1 -10 3 -20 3 -21 1 -28 4 -32 13 -6 14 -1 35 7 39 11 4
19 5 31 2 7 -2 17 -3 22 -3 9 1 10 1 15 11 6 10 7 24 3 27 -2 1 -2 2 -2 2 4 0
-5 18 -8 19 -7 2 -18 2 -21 -1 -4 -4 -9 -2 -17 6 -4 5 -8 9 -8 10 0 5 -11 16
-20 21 l-11 6 -45 0 c-56 0 -56 0 -81 -32 -12 -16 -37 -17 -50 -1 -14 18 -20
24 -28 28 l-8 5 -152 1 -152 0 -9 -4z m206 -51 c3 -3 4 -7 4 -14 0 -13 -6 -19
-19 -19 -13 0 -19 6 -19 19 0 7 1 11 4 14 7 8 23 8 30 0z m234 -37 c5 -2 10
-5 12 -6 4 -4 10 -16 10 -21 0 -10 -13 -17 -33 -18 -22 -1 -31 6 -31 25 0 7 1
13 3 16 7 10 23 11 39 4z m-91 -1 c3 -3 3 -3 0 -6 -3 -3 -3 -3 -6 0 -3 2 -3 3
-1 6 4 4 4 4 7 0z m-28 -67 c9 -3 16 -7 21 -12 7 -7 8 -8 8 -18 0 -19 -15 -25
-37 -16 -19 8 -29 20 -29 33 0 17 12 21 37 13z"/>
<path d="M856 3611 c-9 -3 -15 -9 -21 -22 -4 -9 -13 -18 -22 -21 -12 -5 -23
-10 -27 -14 -5 -6 -17 -36 -16 -43 1 -23 24 -31 44 -14 10 8 21 10 29 6 8 -4
10 -8 13 -25 3 -15 0 -25 -9 -38 -7 -10 -11 -17 -17 -35 -5 -14 -8 -17 -15
-17 -6 0 -13 6 -13 11 0 2 -1 5 -2 8 -2 3 -3 7 -2 7 0 1 -3 4 -6 8 -11 11 -31
12 -45 3 -3 -2 -6 -3 -6 -2 -3 1 -11 -5 -12 -9 0 -2 -2 -6 -5 -10 -2 -4 -5
-12 -7 -18 -6 -20 -15 -33 -28 -42 -7 -4 -13 -8 -14 -8 -2 0 -2 -32 -1 -33 11
-8 59 -10 89 -3 33 7 43 4 43 -13 0 -10 -5 -16 -16 -18 -10 -2 -14 -9 -14 -26
0 -11 1 -15 4 -19 6 -7 5 -23 -1 -29 -5 -5 -6 -5 -19 -4 -39 4 -45 0 -66 -42
-8 -15 -27 -53 -43 -83 l-28 -55 1 -17 c1 -24 1 -37 0 -55 -1 -21 4 -32 24
-52 13 -14 20 -24 20 -30 0 -3 -6 -10 -10 -11 -6 -1 -35 10 -59 21 -18 9 -35
10 -44 2 -8 -6 -44 -79 -46 -90 -2 -14 -2 -21 0 -20 0 1 0 -2 -2 -6 -1 -4 -2
-7 -2 -7 0 -1 -2 -1 -4 -1 -3 0 -6 -2 -7 -3 -1 -2 -2 -2 -2 -1 0 0 -2 0 -4 -1
-2 -1 -12 -20 -24 -41 -11 -22 -24 -49 -30 -60 -10 -19 -19 -47 -17 -52 0 -2
0 -3 -1 -3 0 0 -1 -2 -1 -4 -1 -6 -3 -8 -14 -15 -7 -5 -9 -7 -11 -16 -3 -14
-1 -32 5 -43 10 -18 12 -22 17 -24 6 -2 15 -11 17 -16 2 -5 -4 -14 -9 -14 -5
0 -25 13 -28 17 -1 2 -6 4 -14 4 l-13 1 -12 -9 -12 -10 0 -11 c0 -12 2 -20 5
-20 1 0 2 -1 2 -3 0 -2 1 -3 2 -3 3 0 10 -14 10 -20 0 -10 -7 -14 -22 -14 -22
0 -36 -6 -44 -20 -26 -49 -29 -62 -17 -74 5 -6 5 -6 23 -8 18 -3 24 -5 27 -13
4 -8 4 -24 0 -32 -8 -16 -39 -16 -49 0 -6 11 -12 13 -28 13 l-15 -1 -30 -61
c-17 -33 -31 -63 -31 -65 0 -19 10 -33 29 -39 11 -4 17 -4 59 -4 47 0 47 0 58
5 8 4 12 8 17 17 4 6 10 14 12 17 2 4 5 7 5 7 1 0 4 2 7 5 3 3 7 6 8 7 6 4 12
0 12 -8 1 -14 2 -17 9 -28 15 -22 30 -25 58 -9 13 7 25 11 35 11 4 0 13 6 17
10 5 6 8 15 9 31 2 17 3 20 16 29 25 19 28 23 57 114 12 38 25 76 28 85 6 18
42 125 48 145 2 7 6 18 8 24 19 53 19 58 5 83 -14 24 -12 29 8 38 21 9 31 16
35 27 6 15 14 39 32 94 11 34 22 67 24 74 2 7 7 22 10 32 4 10 7 21 8 23 4 7
1 26 -4 32 -6 6 -15 11 -18 9 -1 -1 -8 -1 -16 0 -8 1 -27 2 -41 2 -25 0 -25 0
-31 6 -6 6 -7 9 -6 24 0 2 3 7 6 10 7 7 20 8 33 3 9 -3 41 -11 46 -11 2 0 7
-3 11 -6 6 -5 9 -6 18 -6 11 0 24 3 24 6 -1 0 0 6 2 12 2 10 2 13 -2 23 -2 6
-6 13 -8 16 -8 10 -12 23 -12 36 1 14 5 18 22 22 26 6 39 16 46 35 5 15 2 33
-8 44 -11 11 -15 18 -14 27 0 19 6 28 19 30 2 0 9 3 16 5 7 2 13 5 15 5 7 3
14 17 23 44 7 20 9 29 8 34 -1 3 -2 8 -2 11 -1 5 -4 11 -7 14 -6 6 -10 18 -10
26 0 14 7 24 24 33 21 12 31 22 34 35 4 17 3 79 -2 88 -5 11 -19 18 -34 16
-23 -1 -26 -1 -32 6 -5 5 -6 7 -6 17 0 7 1 13 2 14 3 3 -3 27 -8 32 -6 6 -10
7 -20 4z m-295 -862 c7 -7 7 -23 0 -30 -5 -5 -20 -7 -27 -3 -4 2 -14 22 -14
28 0 5 11 10 25 10 9 0 12 -1 16 -5z m-26 -102 c3 -5 3 -5 0 -10 -2 -3 -5 -5
-7 -5 -2 0 -5 2 -7 5 -3 5 -3 5 0 10 2 3 5 5 7 5 2 0 5 -2 7 -5z m-55 -70 c10
-5 14 -25 8 -39 -7 -17 -43 -17 -50 -1 -11 30 -9 37 13 42 11 3 21 2 29 -2z
m19 -155 c7 -6 7 -20 1 -25 -8 -7 -19 -8 -25 -3 -6 6 -7 21 -1 27 6 7 19 7 25
1z m-43 -65 c5 -7 5 -22 1 -29 -4 -6 -26 -23 -39 -30 -28 -14 -53 4 -46 33 3
13 8 16 30 23 37 11 49 12 54 3z m-57 -186 c3 -5 3 -6 0 -13 -6 -10 -10 -14
-14 -12 -2 1 -3 3 -2 4 1 1 1 2 0 2 -4 0 -2 13 2 18 5 7 9 7 14 1z"/>
</g>
</svg>
