<?xml version="1.0" standalone="no"?>
<!DOCTYPE svg PUBLIC "-//W3C//DTD SVG 20010904//EN"
 "http://www.w3.org/TR/2001/REC-SVG-20010904/DTD/svg10.dtd">
<svg version="1.0" xmlns="http://www.w3.org/2000/svg"
 width="1100.000000pt" height="2850.000000pt" viewBox="0 0 1100.000000 2850.000000"
 preserveAspectRatio="xMidYMid meet">
<metadata>
Created by potrace 1.15, written by Peter Selinger 2001-2017
</metadata>
<g transform="translate(0.000000,2850.000000) scale(0.500000,-0.500000)"
fill="#000000" stroke="none">
<path d="M1410 3838 c-6 -1 -13 -4 -17 -6 l-8 -4 1 -14 c1 -14 3 -17 15 -25 3
-2 6 -6 8 -9 4 -7 0 -11 -21 -21 -23 -11 -22 -8 -37 -85 -5 -26 -11 -57 -14
-69 -3 -12 -5 -24 -6 -27 0 -3 -4 -18 -8 -35 -4 -16 -8 -32 -8 -37 -1 -5 -3
-9 -9 -13 l-7 -5 -31 0 c-30 1 -32 1 -39 6 -4 3 -6 5 -5 6 3 1 10 8 10 11 0 1
1 3 3 5 5 6 17 32 21 47 8 28 7 41 -8 84 -14 41 -24 58 -36 63 -8 2 -27 1 -37
-3 -14 -6 -20 -1 -21 15 0 21 -4 32 -12 41 -8 8 -9 9 -19 9 -16 0 -26 -9 -35
-29 -4 -11 -26 -13 -35 -4 -5 5 -5 6 -4 27 0 17 -1 22 -3 25 -2 2 -3 4 -3 5 2
8 -18 17 -49 21 -5 1 -9 2 -10 2 -2 1 -16 3 -27 3 -5 0 -14 2 -19 3 -13 4 -51
5 -63 2 -21 -5 -37 -16 -41 -28 -1 -3 -2 -10 -2 -16 0 -9 1 -12 7 -19 3 -5 9
-13 12 -18 11 -18 26 -37 35 -47 6 -6 14 -18 20 -31 11 -21 11 -21 24 -27 7
-4 15 -7 18 -7 2 0 6 -2 9 -5 6 -6 7 -22 1 -32 -2 -3 -4 -11 -4 -17 0 -6 -1
-12 -1 -12 -1 -1 0 -2 1 -2 1 0 2 -1 2 -3 0 -4 14 -11 22 -11 7 0 16 -4 26
-12 4 -3 13 -9 20 -13 7 -4 14 -10 15 -12 4 -6 5 -26 1 -33 -8 -14 -36 -15
-52 0 -6 6 -25 11 -36 9 -5 -1 -43 -2 -85 -3 -70 -1 -77 -1 -82 -5 -8 -5 -15
-13 -15 -16 0 -4 -18 -14 -24 -12 -9 1 -28 -6 -39 -16 -14 -13 -18 -15 -27
-15 -12 -1 -15 2 -27 17 -13 17 -24 24 -46 27 -16 2 -31 1 -31 -3 0 -1 -3 2
-6 8 l-6 9 0 46 c0 39 -1 46 -4 53 -5 12 -9 15 -23 15 -10 1 -13 0 -17 -4 -5
-5 -19 -12 -24 -12 -2 0 -5 2 -7 5 -5 7 -1 20 14 50 6 12 11 17 19 21 10 5 25
17 34 26 5 5 12 12 16 15 8 6 20 26 20 34 0 6 -7 21 -13 27 -8 9 -19 12 -42
11 -23 0 -29 0 -56 7 -4 1 -14 2 -21 3 -7 0 -27 2 -44 4 -20 2 -34 2 -38 1 -4
-1 -14 -4 -22 -6 -8 -2 -15 -4 -16 -3 -5 1 -26 -16 -26 -21 0 -2 -1 -6 -1 -11
-1 -4 0 -10 1 -13 4 -9 3 -22 -2 -35 -2 -7 -5 -14 -6 -16 -7 -17 -7 -25 -4
-38 6 -20 19 -30 46 -33 20 -3 26 -7 26 -18 0 -12 -4 -15 -34 -29 -16 -7 -29
-18 -35 -31 -3 -5 -4 -14 -5 -39 -1 -31 -1 -32 -6 -37 -5 -4 -6 -5 -12 -3 -15
3 -38 -9 -47 -26 -8 -15 -25 -18 -36 -6 -4 4 -7 8 -7 9 0 5 -21 9 -37 8 -6 0
-15 -50 -9 -50 1 0 1 -3 1 -6 0 -4 -1 -9 -1 -12 0 -2 -3 -7 -6 -10 -8 -8 -24
-9 -31 -1 -7 7 -7 22 0 30 9 10 13 21 13 36 0 7 -1 13 -2 13 -1 0 -6 6 -11 13
l-10 12 -12 0 c-24 -1 -27 -9 -27 -67 0 -45 1 -51 16 -66 16 -17 17 -18 18
-42 2 -21 2 -24 10 -39 5 -9 8 -18 7 -20 0 -1 0 -3 1 -4 1 -1 3 -5 3 -8 2 -11
14 -27 23 -32 22 -11 23 -47 2 -56 -19 -7 -40 2 -40 18 -1 6 -1 7 -1 2 -1 -6
-1 -6 -13 -5 -14 0 -20 -3 -23 -12 -4 -11 -4 -522 0 -540 7 -28 7 -29 4 -44
-4 -18 -14 -46 -19 -51 -2 -2 -8 -8 -14 -12 -18 -14 -24 -35 -13 -53 8 -14 17
-19 31 -18 10 0 12 1 19 9 4 4 9 11 11 15 2 4 9 12 15 16 6 5 12 11 14 14 1 3
5 7 7 10 2 2 3 5 3 6 -2 3 12 16 17 16 2 0 4 -1 4 -2 0 -1 2 -2 4 -3 4 -1 4
-4 -1 -16 -9 -20 -13 -36 -13 -50 0 -11 -5 -21 -11 -21 -3 0 -18 -14 -20 -18
-2 -8 -3 -26 -1 -29 1 -1 3 -6 4 -11 2 -9 2 -11 -3 -24 -11 -32 -11 -36 8 -74
15 -31 20 -38 30 -42 8 -3 25 -2 31 1 15 11 29 22 43 36 18 17 22 20 59 34 65
25 152 60 161 65 17 9 32 30 34 46 1 17 3 19 12 24 5 3 9 6 9 6 0 1 4 5 8 9 4
5 12 15 18 24 12 18 14 19 30 19 17 0 23 -5 24 -22 0 -12 0 -14 -9 -31 -16
-31 -14 -35 24 -53 6 -4 11 -4 39 -5 28 -1 35 -2 40 -8 6 -7 8 -20 6 -29 -3
-11 -5 -14 -14 -19 -9 -5 -20 -16 -21 -22 -6 -22 17 -45 44 -46 13 0 70 20 87
31 2 1 6 3 10 5 13 7 29 24 35 37 7 17 9 40 4 63 -4 19 -4 31 0 50 2 8 3 21 3
28 -1 13 -1 14 5 20 l6 6 83 -1 83 0 13 6 c6 4 14 9 15 11 5 7 4 20 -2 38 l-5
14 4 8 c3 6 4 12 3 21 0 6 1 12 2 12 3 0 -10 9 -16 12 -4 1 -30 2 -93 2 l-87
-1 -6 6 -6 6 0 80 0 80 6 6 6 6 60 -1 60 0 10 5 c10 5 12 6 19 22 9 18 11 29
6 41 -3 10 -10 13 -32 13 -20 -1 -21 0 -35 21 -5 9 -9 13 -18 17 -14 7 -25 6
-48 -3 -22 -9 -40 -10 -48 -3 -5 4 -6 6 -7 17 0 11 0 13 9 28 11 22 14 33 9
42 -5 10 -26 15 -45 11 -6 -1 -8 -1 -11 3 -9 10 -4 18 18 31 18 11 26 19 34
36 8 17 9 23 3 35 -5 10 -13 16 -30 25 -10 6 -18 13 -24 24 -5 9 -6 12 -6 26
0 14 0 16 6 20 3 3 8 5 12 5 9 0 31 8 36 13 9 11 10 15 11 74 1 49 1 57 4 60
2 2 4 5 5 7 1 2 2 4 2 3 1 0 3 0 4 1 4 4 26 8 40 8 17 0 32 6 38 15 6 8 15 27
15 30 0 2 2 5 5 7 6 5 25 6 34 2 9 -4 29 -3 43 2 22 7 37 4 39 -8 5 -25 12
-37 25 -44 8 -4 11 -4 27 -3 33 2 45 -4 45 -24 0 -6 -1 -14 -3 -17 -4 -8 -3
-36 2 -43 1 -2 6 -8 10 -14 4 -5 6 -11 6 -11 -1 -2 7 -5 9 -4 3 0 30 -14 30
-16 0 -5 -16 -16 -22 -16 -4 0 -19 14 -21 19 -2 6 -5 9 -11 9 -6 1 -18 8 -18
10 0 2 -19 -3 -27 -7 -9 -4 -13 -16 -13 -34 1 -13 1 -14 -6 -20 -3 -4 -8 -7
-10 -7 -4 0 -10 -4 -11 -8 0 -2 -1 -4 -2 -6 -3 -10 -4 -24 -1 -27 3 -3 2 -3
-2 -8 l-5 -5 -8 4 c-4 2 -10 6 -14 8 -3 3 -6 5 -8 5 -13 3 -40 15 -46 22 -12
12 -29 18 -55 17 -28 -1 -35 -6 -54 -31 -5 -7 -12 -14 -16 -17 -7 -5 -13 -18
-15 -30 -3 -18 13 -38 34 -44 6 -2 37 -2 108 -2 l100 1 6 -6 6 -6 -1 -87 c-1
-48 -2 -91 -3 -96 -2 -12 -7 -18 -26 -27 -20 -10 -32 -23 -33 -35 -1 -15 1
-19 13 -25 7 -4 13 -5 21 -5 12 0 33 -8 37 -13 2 -4 20 -10 33 -12 6 -1 13 -2
16 -4 14 -7 14 -41 0 -48 -5 -2 -8 -3 -29 -6 -13 -2 -24 -8 -30 -16 -7 -11 -8
-20 -10 -49 -1 -23 -2 -25 -7 -32 -3 -4 -8 -8 -11 -9 -19 -5 -32 -25 -24 -39
2 -3 5 -6 5 -6 1 0 2 -1 2 -3 0 -2 1 -3 2 -3 1 0 2 -1 2 -3 0 -3 21 -24 26
-26 6 -2 11 -13 10 -23 0 -12 -2 -16 -14 -29 -12 -12 -21 -29 -25 -45 -2 -7
-4 -14 -5 -15 -3 -4 0 -24 6 -40 7 -17 8 -27 2 -32 -2 -1 -10 -6 -19 -10 -19
-8 -29 -16 -34 -26 -4 -9 -29 -47 -31 -49 -1 -1 -3 -8 -5 -16 -2 -8 -4 -17 -6
-20 -3 -5 -14 -12 -25 -15 -3 0 -15 -11 -27 -22 -29 -29 -41 -39 -59 -53 -4
-3 -8 -7 -11 -9 -2 -2 -8 -6 -12 -9 -4 -2 -9 -6 -10 -7 -17 -16 -34 -27 -56
-38 -10 -5 -25 -13 -34 -18 -9 -5 -33 -18 -53 -28 -20 -11 -39 -21 -41 -23 -4
-3 -14 -22 -12 -22 1 0 0 -3 -2 -6 -2 -3 -3 -7 -3 -9 0 -6 -7 -11 -14 -9 -10
1 -24 1 -30 0 -6 -1 -9 -3 -11 -9 -4 -9 -4 -7 7 -32 6 -15 19 -25 35 -28 12
-2 20 2 41 22 l18 19 14 -1 c7 0 18 -3 26 -5 21 -9 27 -9 55 -1 29 8 40 13 44
20 4 6 10 26 9 33 -1 13 0 17 5 22 7 7 17 6 37 -3 41 -17 64 -20 88 -11 33 13
42 18 46 24 4 5 4 7 7 23 1 4 0 11 -1 16 -2 8 -2 10 0 11 2 1 2 2 1 2 -1 0 0
2 3 6 19 18 21 28 14 52 -6 19 -16 41 -23 49 -10 11 -15 18 -16 24 -1 3 -2 7
-3 8 -3 6 -2 13 4 17 6 4 8 4 20 3 15 -1 20 -5 29 -22 4 -8 11 -17 21 -27 20
-20 21 -23 10 -57 -4 -13 -10 -28 -12 -32 -6 -10 -8 -30 -3 -36 5 -6 18 -7 26
-2 3 2 7 4 10 5 3 1 10 5 16 9 12 8 20 22 26 45 5 21 13 26 36 20 12 -3 28 -1
36 4 13 7 35 28 35 33 0 2 1 3 2 3 1 0 1 1 2 3 0 1 1 6 2 10 1 5 2 14 3 20 1
15 7 22 20 24 4 1 10 2 12 2 8 2 26 12 31 17 13 14 31 45 50 83 10 20 16 30
22 36 5 5 11 11 13 14 4 4 7 5 12 5 7 0 17 4 17 6 0 6 21 -3 27 -11 3 -5 14
-9 24 -9 3 0 12 3 20 7 13 7 16 7 26 7 14 -2 18 -5 19 -21 0 -12 0 -13 -6 -19
-5 -5 -7 -6 -16 -6 -6 0 -13 1 -18 3 -5 3 -13 3 -30 3 -25 -1 -25 -1 -44 12
-10 6 -20 8 -26 3 -6 -4 -5 -24 2 -42 23 -58 43 -98 56 -116 6 -7 15 -24 21
-36 6 -13 15 -29 20 -36 15 -22 24 -34 25 -35 0 -1 4 -5 8 -10 24 -32 72 -80
101 -103 4 -3 9 -7 10 -8 1 -2 10 -8 18 -14 9 -6 18 -13 21 -15 18 -13 84 -48
91 -48 8 0 19 4 25 10 9 8 11 17 11 55 1 36 1 41 13 66 4 7 7 18 8 29 5 37 7
41 31 52 7 3 23 12 34 19 12 7 29 15 37 19 25 10 37 14 42 15 7 1 24 10 28 15
8 8 10 13 10 23 0 12 -5 18 -21 29 -17 10 -17 11 -22 15 -21 19 -25 21 -35 21
-5 0 -15 -1 -22 -3 -23 -6 -30 -4 -47 11 -4 5 -10 9 -13 10 -3 2 -6 4 -6 4 0
1 -8 4 -17 7 -10 3 -38 12 -63 20 -25 8 -52 16 -60 18 -18 4 -22 6 -40 19 -7
5 -21 14 -31 19 -16 9 -51 30 -68 42 -12 8 -44 36 -60 53 -25 26 -27 28 -25
28 1 0 2 1 2 2 -1 0 0 4 2 8 2 6 4 19 4 28 0 4 15 13 18 11 1 -1 3 0 5 1 2 1
4 1 7 -3 3 -3 6 -5 7 -5 1 0 4 -2 6 -5 6 -5 23 -11 37 -12 6 0 19 -1 28 -2 19
-2 48 1 61 6 5 1 14 6 20 10 6 4 12 7 13 7 3 0 10 -6 23 -20 14 -16 13 -16
105 -16 89 0 96 1 118 12 13 7 27 19 31 27 2 3 4 7 6 11 6 11 2 31 -10 42 -10
9 -42 17 -47 10 -1 0 -4 -3 -8 -5 -4 -2 -11 -6 -16 -8 -11 -6 -19 -6 -24 -1
-7 7 -3 21 7 25 10 3 14 10 14 26 0 11 -1 16 -3 17 -1 0 -3 1 -5 3 -1 1 -6 5
-11 9 -13 10 -13 10 -17 14 -3 1 -7 5 -11 8 -16 12 -21 16 -23 18 -1 0 -8 6
-16 12 -8 6 -15 11 -17 13 -2 1 -8 6 -15 11 -7 5 -17 13 -24 19 -25 20 -39 24
-58 16 -9 -4 -29 -24 -50 -50 -9 -11 -18 -22 -21 -25 -2 -3 -5 -7 -5 -8 -1 -2
-2 -4 -3 -4 -3 0 -6 -10 -6 -19 0 -5 1 -9 2 -9 1 0 2 -1 2 -3 0 -3 15 -6 25
-4 26 4 25 4 30 -1 9 -9 19 -35 19 -53 0 -18 -21 -20 -39 -4 -6 5 -17 8 -29 6
-35 -4 -33 -4 -43 2 -28 14 -32 16 -44 16 -14 0 -23 -1 -23 -3 0 -1 -3 -3 -6
-4 -14 -6 -20 -32 -12 -48 8 -15 6 -21 -6 -22 -12 -1 -27 2 -33 8 -9 6 -22 26
-26 39 -4 13 -2 24 9 43 8 15 11 29 13 51 2 23 2 24 7 32 3 4 9 9 17 13 21 12
44 40 47 59 1 2 4 6 7 9 6 5 7 5 43 6 37 1 37 1 58 9 28 10 37 10 72 -1 29 -9
40 -10 56 -5 11 3 23 13 21 17 -1 1 0 2 1 2 1 0 2 1 1 2 -1 1 0 2 1 2 1 0 3 3
4 6 1 3 4 6 7 7 3 1 5 2 5 3 0 1 1 2 2 2 3 0 12 7 35 31 24 25 34 31 48 31 23
0 26 -23 5 -52 -3 -6 -8 -11 -9 -12 -3 -1 -4 -4 -4 -15 1 -13 1 -14 7 -19 20
-17 75 -6 101 19 27 27 25 52 -7 78 -3 2 -12 10 -21 17 -9 7 -17 14 -18 15 -1
1 -9 8 -17 14 -20 16 -22 18 -25 20 -20 17 -30 23 -54 28 -12 3 -20 6 -31 13
-15 10 -38 20 -44 20 -6 0 -14 8 -16 17 -1 5 -5 11 -8 15 -5 5 -6 6 -20 6
l-14 1 -6 -9 c-3 -5 -8 -13 -10 -20 -7 -17 -14 -27 -25 -34 -11 -6 -20 -15
-32 -31 -3 -4 -12 -15 -18 -24 -7 -8 -13 -16 -13 -17 -1 0 -5 -3 -10 -6 -9 -5
-10 -5 -63 -6 -29 -1 -53 0 -53 0 0 2 -16 10 -20 10 -2 0 -4 1 -3 2 0 1 -3 3
-8 4 -4 1 -10 3 -13 4 -4 1 -6 1 -8 -1 -1 -1 -7 -4 -12 -6 l-9 -4 -1 -11 c0
-13 -2 -18 -5 -20 -1 -1 0 -2 2 -2 7 0 33 -13 35 -18 4 -7 2 -22 -3 -27 -5 -5
-20 -7 -27 -3 -4 2 -16 25 -19 35 -1 3 -4 6 -7 7 -15 5 -27 15 -34 29 -4 7
-11 18 -16 23 -15 16 -16 18 -16 25 0 8 7 15 15 15 9 0 23 -15 24 -25 0 -1 7
-2 17 -2 18 -1 18 -1 24 13 3 6 3 4 2 33 0 20 0 22 5 26 3 4 6 5 14 5 29 0 45
8 50 27 2 5 3 10 2 11 -1 0 1 2 3 3 9 7 2 36 -10 42 -3 2 -6 4 -5 5 1 1 -2 2
-6 2 -16 0 -31 10 -31 22 0 16 12 19 44 13 21 -4 28 -10 28 -22 0 -7 -1 -9 -4
-12 -3 -2 -4 -3 -3 -3 1 0 2 -5 2 -12 1 -13 3 -18 12 -23 3 -1 34 -2 104 -3
82 -1 101 -2 104 -4 2 -2 8 -2 20 -2 17 0 18 1 37 15 23 18 31 19 55 8 20 -9
31 -9 43 -1 45 28 42 72 -8 96 -7 3 -14 6 -16 6 -2 0 -4 1 -5 2 -2 2 -15 7
-44 17 -15 6 -23 13 -23 20 0 5 -5 24 -8 31 -11 23 -33 35 -67 36 -17 0 -25 4
-25 12 0 6 -9 20 -14 23 -9 5 -28 3 -32 -2 -2 -2 -17 -22 -35 -44 -34 -43 -39
-50 -44 -68 -6 -18 -10 -21 -38 -21 -33 0 -38 3 -44 30 -3 12 -2 15 7 47 4 12
4 18 4 49 l-1 35 6 6 6 6 31 0 30 0 20 11 c15 7 23 10 29 10 6 0 14 -3 29 -10
l20 -11 51 -1 c48 0 51 0 60 4 l10 4 -1 14 c0 11 0 15 2 16 2 2 2 2 -1 2 -4 0
-21 9 -26 15 -11 11 -4 25 13 25 12 0 22 4 25 9 1 2 2 4 3 5 3 3 2 20 -1 25
-6 12 -2 37 10 52 7 9 9 18 8 30 -2 15 -5 18 -31 38 -14 10 -25 20 -26 22 -4
6 4 12 21 16 15 4 24 9 27 15 4 7 6 27 4 35 -2 6 -2 8 1 11 4 4 6 31 3 35 -1
2 -2 3 -1 3 1 0 0 2 -3 5 -7 5 -112 34 -133 36 -17 1 -31 5 -48 13 -19 8 -20
9 -84 26 -33 9 -62 17 -64 18 -2 1 -8 1 -13 0z m-458 -61 c7 -8 6 -25 -2 -33
-5 -5 -7 -6 -17 -6 -10 0 -12 1 -17 6 -8 8 -9 25 -1 33 8 10 28 10 37 0z m689
-66 c3 -3 3 -3 0 -6 -3 -3 -3 -3 -6 0 -3 2 -3 3 -1 6 4 4 4 4 7 0z m-67 -4
c15 -7 14 -41 0 -48 -9 -5 -37 -8 -53 -6 -19 2 -25 8 -25 25 0 15 4 20 21 26
23 8 45 9 57 3z m-1133 -19 c7 -3 12 -13 12 -25 0 -19 -9 -28 -28 -28 -19 0
-28 9 -28 28 0 24 19 34 44 25z m624 -6 c7 -4 18 -18 22 -26 7 -14 2 -22 -12
-22 -16 0 -37 6 -43 12 -9 8 -9 26 0 34 7 8 23 8 33 2z m445 -77 c6 -7 6 -22
0 -28 -6 -6 -13 -7 -28 -3 -11 2 -25 2 -52 -1 -9 -1 -10 -1 -15 4 -7 7 -7 19
0 26 5 5 6 5 17 4 26 -3 35 -3 45 0 16 4 27 4 33 -2z m39 -93 c-5 -10 -7 -13
-14 -17 -10 -5 -25 -5 -25 0 0 1 -2 3 -3 4 -4 0 -4 1 0 1 2 0 5 2 7 4 2 2 7 5
10 6 3 2 5 4 6 4 2 3 14 8 16 7 1 -1 2 0 2 1 0 2 1 2 2 0 2 -3 1 -6 -1 -10z
m-1067 -11 c16 -2 22 -9 22 -24 0 -16 -7 -23 -22 -23 -18 0 -39 11 -45 23 -4
9 -4 10 1 15 7 7 26 11 44 9z m952 -57 c5 -5 5 -15 0 -20 -9 -9 -24 -2 -24 10
0 8 6 14 14 14 3 0 8 -2 10 -4z m81 0 c10 -15 -9 -32 -21 -20 -9 9 -3 24 10
24 6 0 9 -1 11 -4z m-179 -41 c5 -5 6 -14 2 -27 -1 -5 -3 -18 -3 -30 0 -23 -1
-26 -11 -28 -8 0 -15 8 -22 26 -9 23 -10 34 -4 47 2 6 6 12 9 14 9 6 23 5 29
-2z m-949 -6 c2 -3 3 -7 2 -9 -4 -12 -7 -30 -8 -45 -1 -8 -3 -19 -4 -25 -4
-11 -3 -27 2 -36 4 -7 23 -14 45 -15 9 0 18 -2 20 -3 13 -7 15 -28 3 -47 -11
-21 -16 -26 -31 -34 -11 -6 -20 -13 -31 -25 -16 -16 -17 -16 -26 -16 -14 0
-17 4 -17 19 0 13 1 16 12 23 l8 5 0 18 c0 9 -1 17 -2 17 -1 0 -6 3 -10 6 -9
6 -21 6 -24 1 -1 -1 -2 -1 -2 1 0 2 -2 7 -4 10 -5 9 -5 22 0 32 4 8 6 41 2 53
-1 6 2 20 4 18 1 -1 4 0 7 1 3 2 7 3 8 2 0 0 1 1 1 2 0 1 3 5 7 9 4 5 10 14
13 21 11 22 18 26 25 17z m-205 -109 c5 -5 5 -11 0 -16 -10 -10 -27 5 -16 16
4 4 12 4 16 0z m1100 -2 c4 -4 4 -4 1 -11 -2 -4 -7 -9 -11 -12 -4 -3 -8 -7
-10 -8 -12 -12 -38 -14 -50 -4 -1 1 10 18 16 22 6 4 25 11 43 16 3 1 6 0 11
-3z m-726 -26 c11 -9 12 -40 1 -52 -8 -9 -15 -10 -25 -5 -5 3 -10 5 -11 5 -4
0 -11 9 -13 18 -3 13 4 34 13 34 1 0 6 2 11 5 10 5 15 4 24 -5z m763 -47 c3
-3 4 -10 4 -42 0 -37 0 -38 -4 -42 -7 -7 -23 -7 -30 0 -6 5 -7 20 -3 28 4 6
12 39 12 45 0 11 14 19 21 11z m-979 -52 l0 -11 -8 0 -8 -1 0 12 0 12 8 -1 8
0 0 -11z m1265 9 c7 -3 12 -13 12 -25 0 -19 -9 -28 -28 -28 -19 0 -28 9 -28
28 0 24 19 34 44 25z m-379 -22 c6 -3 11 -13 16 -27 8 -25 2 -37 -16 -37 -16
0 -29 13 -35 35 -7 23 13 40 35 29z m-737 -3 c6 -4 6 -6 6 -20 0 -14 0 -16 -6
-20 -8 -7 -28 -7 -36 0 -10 9 -10 32 0 40 8 7 28 7 36 0z m-94 -63 c27 -13 31
-17 31 -29 0 -5 -1 -12 -3 -16 -5 -11 -3 -30 3 -42 4 -8 6 -14 7 -31 0 -14 2
-26 5 -34 7 -21 4 -41 -7 -50 -2 -1 -3 -4 -3 -5 0 -2 -1 -3 -2 -3 0 0 -5 -8
-10 -17 -5 -9 -9 -17 -10 -17 -7 0 -12 -35 -6 -41 1 -1 2 -3 2 -5 0 -1 1 -4 3
-5 2 -1 3 -5 3 -12 0 -13 -6 -19 -19 -19 -13 0 -19 6 -19 19 0 7 1 11 3 12 2
2 3 7 4 17 2 16 0 22 -10 31 -13 12 -12 41 2 53 2 1 3 4 3 5 0 2 1 3 2 3 0 0
5 7 9 15 8 16 11 37 7 49 -3 10 -14 22 -29 34 -17 14 -22 23 -17 35 2 7 6 36
6 48 0 6 1 10 4 13 6 6 16 4 41 -8z m-99 -40 c6 -8 5 -29 0 -36 -2 -3 -4 -6
-4 -8 0 -2 0 -2 -2 0 -1 2 -9 3 -26 2 -12 -1 -14 0 -20 6 -5 5 -6 7 -6 18 0
11 1 13 6 18 6 6 8 7 20 6 18 -1 25 0 26 2 0 2 1 2 2 0 0 -2 2 -5 4 -8z m-125
-32 c3 -4 5 -10 7 -22 1 -9 4 -24 6 -32 8 -28 2 -41 -18 -41 -14 0 -22 8 -22
20 0 4 1 22 1 39 0 28 0 32 4 36 5 6 17 6 22 0z m80 -63 c4 -3 9 -10 12 -17
11 -19 11 -19 19 -18 4 0 8 1 8 3 0 3 5 -11 9 -24 3 -9 3 -10 -3 -18 l-5 -8
-5 4 c-2 3 -9 6 -14 8 -6 2 -10 4 -10 5 0 1 -2 2 -4 3 -9 3 -24 30 -26 47 -2
19 5 25 19 15z m299 3 c3 0 11 -10 11 -14 1 -5 9 -18 14 -24 3 -2 10 -6 17 -8
10 -3 11 -3 25 1 25 6 43 2 43 -9 0 -12 -20 -21 -53 -24 -11 -1 -28 -4 -37 -7
-27 -8 -30 -5 -41 36 -8 28 -7 34 3 43 4 4 10 7 12 7 1 0 4 -1 6 -1z m659 -46
c7 -6 7 -19 1 -25 -6 -7 -19 -7 -25 -1 -7 6 -7 19 -1 25 6 7 19 7 25 1z m512
-57 c3 -3 3 -3 0 -6 -3 -3 -3 -3 -6 0 -3 2 -3 3 -1 6 4 4 4 4 7 0z m-462 -16
c12 -12 3 -31 -13 -31 -11 0 -18 7 -18 18 0 11 7 18 18 18 6 0 9 -1 13 -5z
m-605 -54 c11 -6 26 -6 42 -1 23 7 30 1 32 -29 0 -16 0 -17 -5 -22 -7 -8 -18
-7 -38 1 -16 7 -31 7 -36 1 -5 -7 -7 -19 -8 -41 0 -20 0 -21 -6 -25 -4 -4 -7
-5 -18 -5 -18 0 -23 5 -25 21 0 12 4 27 8 27 3 0 12 15 14 25 1 6 2 17 2 25 0
13 0 15 6 20 5 5 7 6 16 6 6 0 13 -1 16 -3z m689 -6 c18 -11 25 -34 16 -50 -8
-16 -40 -16 -48 0 -8 14 -6 43 4 51 5 5 20 4 28 -1z m-1180 -13 c5 -4 9 -16 9
-28 1 -11 0 -13 -6 -18 -5 -6 -7 -7 -16 -7 -21 0 -29 19 -18 42 6 13 22 19 31
11z m1106 -93 c5 -8 1 -16 -8 -16 -9 0 -13 8 -8 16 2 3 5 5 8 5 3 0 6 -2 8 -5z
m-1045 -23 c5 -5 5 -13 -1 -16 -9 -6 -18 -2 -18 8 0 10 12 15 19 8z m263 -21
c21 -13 42 -18 49 -13 9 6 21 -2 25 -15 0 -2 4 -12 7 -21 9 -26 11 -34 7 -39
-6 -9 -13 -6 -40 13 -21 15 -27 19 -39 22 -12 3 -17 2 -40 -8 -36 -16 -57 -9
-57 19 0 18 9 27 41 40 24 10 32 10 47 2z m-334 1 c12 -5 17 -17 13 -34 -3
-14 -14 -22 -29 -21 -17 1 -27 10 -28 26 -1 6 3 20 7 24 7 8 24 11 37 5z m142
-2 c4 0 13 -9 15 -15 3 -7 3 -25 0 -32 -2 -6 -11 -15 -15 -15 -2 0 -3 -1 -3
-2 0 -2 0 -2 -2 0 -1 1 -6 5 -12 8 -13 6 -16 11 -16 27 0 15 0 15 16 23 6 4
12 8 12 9 0 1 1 1 1 0 1 -2 3 -3 4 -3z m354 -33 c5 -8 1 -16 -8 -16 -9 0 -13
8 -8 16 2 3 5 5 8 5 3 0 6 -2 8 -5z m259 -32 c3 -4 4 -8 4 -15 0 -14 -6 -20
-20 -20 -14 0 -20 6 -20 20 0 15 5 20 20 20 10 0 12 -1 16 -5z m241 -10 c3 -3
5 -7 5 -9 0 -9 7 -31 13 -44 14 -28 5 -61 -17 -57 -14 2 -22 16 -22 39 0 16
-4 38 -8 46 -1 2 -2 7 -2 12 0 11 7 18 18 18 6 0 9 -1 13 -5z m-926 -20 c7 -7
7 -23 0 -30 -6 -6 -23 -7 -28 -2 -1 2 -3 3 -4 3 -3 0 -7 7 -7 11 0 5 7 18 11
21 8 4 23 2 28 -3z m472 -4 c12 -12 3 -31 -13 -31 -11 0 -18 7 -18 18 0 11 7
18 18 18 6 0 9 -1 13 -5z m-275 -25 c3 -2 7 -9 11 -20 3 -9 8 -24 11 -33 7
-17 7 -23 3 -23 -1 0 -3 -1 -4 -3 0 -2 -4 -3 -9 -3 -7 0 -10 2 -28 19 -12 11
-22 21 -24 22 -7 7 -6 32 2 40 7 7 28 8 38 1z m-131 -48 c7 -6 7 -19 1 -25 -6
-7 -19 -7 -25 -1 -7 6 -7 19 -1 25 6 7 19 7 25 1z m420 -14 c7 -6 7 -19 1 -25
-6 -7 -19 -7 -25 -1 -7 6 -7 19 -1 25 6 7 19 7 25 1z m568 -12 c7 -3 12 -13
12 -25 0 -19 -9 -28 -28 -28 -19 0 -28 9 -28 28 0 24 19 34 44 25z m-110 -153
c12 -7 14 -33 3 -43 -8 -9 -32 -9 -40 0 -9 8 -9 32 0 41 7 7 27 8 37 2z m403
-55 c5 -5 6 -7 6 -17 0 -19 -9 -25 -38 -25 -18 0 -24 2 -29 7 -5 7 -2 14 9 24
11 11 22 17 36 17 9 0 11 -1 16 -6z m95 -34 c7 -6 7 -19 1 -25 -6 -7 -19 -7
-25 -1 -7 6 -7 19 -1 25 6 7 19 7 25 1z m129 -34 c5 -6 5 -12 0 -18 -7 -8 -22
-2 -22 9 0 11 15 17 22 9z m-853 -68 c4 -3 9 -16 9 -22 0 -2 -15 -8 -22 -8
-15 0 -22 19 -12 29 6 6 19 7 25 1z m727 -61 c3 -4 8 -11 12 -17 3 -6 11 -15
17 -21 6 -6 11 -12 11 -14 0 -6 -6 -13 -10 -13 -5 0 -17 8 -25 16 -3 3 -7 6
-8 6 -3 0 -8 4 -17 13 -4 4 -6 8 -6 13 -1 11 0 13 5 18 5 6 15 5 21 -1z"/>
<path d="M340 3320 c0 -3 -1 -3 -7 -2 l-7 2 0 -15 0 -15 7 0 c6 1 7 0 8 -3 0
-2 1 5 1 17 0 11 0 20 -1 20 -1 0 -1 -2 -1 -4z"/>
<path d="M1800 3524 c-5 -3 -12 -16 -13 -26 -1 -5 -3 -12 -5 -16 -4 -10 -5
-27 -2 -35 3 -8 13 -11 39 -11 26 0 32 -3 34 -15 1 -3 1 -7 2 -9 4 -22 13 -31
30 -30 14 2 17 5 24 27 5 14 5 17 3 25 -7 25 -11 29 -52 63 -14 11 -27 22 -28
24 -5 4 -25 6 -32 3z"/>
<path d="M100 3183 l0 -8 -13 1 c-9 0 -13 0 -13 -2 0 -1 -2 -2 -4 -2 -2 1 -3
0 -3 -1 0 -1 1 -2 2 -2 2 1 3 0 3 -1 0 -1 1 -2 2 -2 0 0 7 0 13 0 12 0 13 0
14 -5 0 -4 1 2 1 12 0 9 0 17 -1 17 -1 0 -1 -3 -1 -7z"/>
<path d="M564 2335 c-20 -22 -14 -64 11 -68 4 -1 10 -2 12 -2 6 -1 22 8 28 15
4 5 5 8 5 18 0 11 -1 13 -8 21 -14 18 -20 22 -31 22 -9 0 -12 -1 -17 -6z"/>
</g>
</svg>
