<?xml version="1.0" standalone="no"?>
<!DOCTYPE svg PUBLIC "-//W3C//DTD SVG 20010904//EN"
 "http://www.w3.org/TR/2001/REC-SVG-20010904/DTD/svg10.dtd">
<svg version="1.0" xmlns="http://www.w3.org/2000/svg"
 width="1100.000000pt" height="2850.000000pt" viewBox="0 0 1100.000000 2850.000000"
 preserveAspectRatio="xMidYMid meet">
<metadata>
Created by potrace 1.15, written by Peter Selinger 2001-2017
</metadata>
<g transform="translate(0.000000,2850.000000) scale(0.500000,-0.500000)"
fill="#000000" stroke="none">
<path d="M352 3825 c-1 0 -4 -1 -8 -2 -13 -2 -17 -5 -36 -30 -5 -6 -22 -11
-22 -6 0 1 -1 1 -2 0 -1 -2 -5 -3 -20 -7 -5 -1 -12 -10 -15 -17 -2 -6 -3 -32
-3 -140 0 -141 0 -141 9 -151 6 -5 29 -12 35 -10 2 1 6 2 9 1 3 -1 12 0 26 4
2 0 9 3 16 6 22 9 35 5 35 -12 0 -10 -5 -15 -19 -20 -17 -6 -25 -11 -34 -20
-4 -5 -10 -10 -13 -11 -4 -2 -19 -3 -23 -2 -1 0 -7 0 -13 -2 -15 -3 -20 -1
-32 17 -13 19 -21 26 -34 31 -10 4 -14 4 -27 1 -17 -4 -31 -17 -35 -32 -1 -6
-2 -30 -3 -55 0 -25 -1 -48 -2 -52 -1 -8 -9 -49 -10 -56 -5 -27 -24 -82 -39
-113 -13 -27 -21 -39 -42 -61 -21 -22 -26 -31 -26 -45 1 -7 2 -10 7 -15 3 -3
7 -5 9 -6 2 0 9 -2 16 -3 18 -4 21 -7 21 -26 0 -14 0 -16 -6 -20 -4 -4 -7 -5
-18 -5 -7 0 -13 1 -14 2 -1 1 -6 1 -14 0 -16 -3 -23 -10 -23 -24 0 -21 24 -61
44 -72 4 -3 16 -10 27 -18 10 -7 24 -14 30 -16 15 -6 42 -7 63 -3 33 7 42 15
43 44 1 16 5 22 17 24 4 0 8 2 8 4 1 5 10 -10 12 -21 1 -6 4 -13 6 -17 6 -10
11 -27 9 -35 0 -4 -3 -14 -7 -23 -7 -18 -7 -26 0 -48 2 -8 4 -19 4 -32 1 -27
5 -35 35 -58 7 -6 8 -7 9 -18 1 -15 -3 -23 -28 -60 -4 -5 -10 -14 -14 -19 -13
-16 -14 -20 -14 -98 0 -37 1 -70 2 -72 1 -1 3 -6 4 -10 1 -3 6 -10 9 -14 4 -4
11 -13 16 -21 14 -20 23 -28 45 -35 21 -7 18 -36 -4 -36 -5 0 -15 1 -22 2 -24
4 -40 -5 -47 -26 -5 -15 -5 -361 0 -373 4 -9 14 -21 18 -21 2 0 3 -1 3 -2 0
-2 2 -2 46 -3 63 -1 85 3 102 18 13 12 18 13 41 11 23 -3 32 -1 59 13 21 12
25 11 33 -6 11 -23 23 -34 41 -36 7 -1 16 1 40 8 17 5 37 11 44 13 15 4 53 17
59 20 2 1 14 5 26 9 29 10 33 14 33 33 0 9 -1 16 -4 21 -7 14 -5 22 14 38 26
24 37 23 44 -2 9 -28 17 -36 37 -35 8 0 16 3 49 20 46 23 79 41 101 54 3 2 7
5 9 5 13 6 101 67 118 81 14 12 18 31 9 49 -5 10 -5 27 0 34 8 12 26 13 45 3
11 -6 14 -6 26 -6 8 1 15 2 16 3 4 6 24 14 41 16 38 5 77 28 83 48 3 12 3 27
0 33 -5 10 7 18 17 11 8 -5 35 -10 51 -8 13 1 15 1 19 -3 7 -6 6 -14 -1 -36
-7 -20 -7 -27 -1 -39 7 -14 19 -21 34 -21 5 0 11 -1 13 -2 5 -3 10 -12 9 -17
-3 -12 1 -38 8 -52 2 -4 9 -14 14 -23 23 -38 54 -102 62 -128 3 -8 5 -9 21 -8
18 0 21 3 23 15 2 12 9 17 21 17 8 0 11 -1 15 -5 5 -5 5 -6 4 -27 -3 -60 -1
-80 10 -91 32 -32 140 -24 171 13 13 15 18 20 29 27 15 10 33 29 33 35 0 1 1
2 2 2 1 0 2 1 2 2 0 1 2 4 4 7 12 12 23 35 25 53 0 5 1 13 2 18 3 25 -10 78
-20 85 -8 5 -29 6 -40 2 -9 -3 -9 -3 -24 2 -21 7 -30 9 -42 8 -14 -1 -19 4
-17 17 1 12 6 18 17 18 6 0 18 -4 21 -8 4 -5 19 -10 28 -10 12 1 15 5 16 24
l0 12 -12 12 c-30 30 -64 54 -81 59 -6 2 -11 4 -11 5 0 1 -2 2 -3 3 -8 3 -12
6 -17 12 -3 4 -6 7 -8 7 -1 0 -5 2 -8 4 -4 3 -20 10 -64 30 -15 6 -78 29 -92
33 -7 2 -15 4 -18 5 -7 3 -24 -1 -34 -7 -17 -11 -22 -13 -32 -13 -9 0 -11 1
-17 7 -3 3 -8 10 -11 15 -5 11 -8 15 -12 17 -2 0 -2 1 1 1 1 0 3 1 3 2 0 0 4
3 10 5 8 3 18 3 73 3 66 0 74 1 81 8 5 5 13 30 10 33 -1 1 -2 7 -2 13 0 9 1
11 6 16 5 5 7 6 17 6 10 0 12 -1 17 -6 5 -5 6 -7 6 -16 0 -6 -1 -12 -2 -13 -2
-3 5 -28 9 -33 9 -8 13 -8 80 -8 70 0 72 0 82 10 4 5 12 25 11 32 0 4 5 11 10
12 3 0 14 -6 19 -11 3 -4 6 -4 19 -5 17 0 18 0 23 10 7 16 1 35 -15 50 -20 19
-58 53 -68 61 -10 7 -25 9 -40 4 -7 -2 -14 -3 -16 -3 -5 0 -14 7 -14 11 0 7
-9 19 -13 19 -3 0 -4 3 -3 7 0 1 0 1 -1 1 -2 -3 -9 2 -9 5 0 3 0 3 -2 1 -2 -2
-3 -3 -3 -2 1 0 -1 2 -3 4 -5 5 -12 17 -13 25 -4 25 -7 33 -19 43 -18 17 -16
16 -37 16 -19 1 -20 1 -25 6 -8 8 -8 24 -1 31 8 8 24 7 31 -1 3 -4 7 -9 10
-12 3 -3 5 -6 5 -7 -1 0 0 -1 3 -1 2 0 4 -1 4 -2 0 -1 5 -2 12 -2 11 0 12 1
19 8 16 18 16 18 17 98 0 77 0 83 -10 93 -7 8 -14 11 -32 12 -6 0 -17 2 -24 2
-7 1 -14 2 -15 2 -1 0 -5 3 -8 6 -3 3 -8 6 -10 7 -2 1 -7 4 -10 6 -3 2 -8 5
-11 7 -7 4 -28 9 -38 9 -12 0 -18 7 -18 20 0 14 6 20 20 20 7 0 11 -1 17 -6
22 -15 38 -16 49 -3 10 11 12 21 12 44 0 30 1 31 30 31 23 -1 30 1 38 11 8 11
9 17 10 98 l1 78 5 7 c3 5 6 8 7 8 4 0 30 17 39 26 13 11 16 17 16 30 0 16 -4
21 -31 41 -25 19 -43 33 -44 36 -2 6 -1 12 4 16 6 6 17 13 18 13 1 0 5 2 8 5
4 3 8 5 9 5 2 0 15 14 18 19 3 6 6 19 7 33 2 24 13 27 49 14 20 -7 25 -7 49
-2 29 6 61 25 69 39 3 7 3 25 -2 32 -3 5 -38 40 -110 108 -22 22 -28 25 -40
24 -10 -1 -14 -3 -24 -9 -7 -5 -12 -6 -19 -6 -9 0 -10 0 -22 13 -14 14 -16 16
-29 18 -13 2 -20 -2 -38 -21 -14 -14 -16 -15 -27 -18 -16 -3 -21 -3 -38 2 -18
5 -35 4 -49 -3 -8 -3 -14 -4 -55 -5 -49 -2 -51 -2 -51 -4 0 -1 -3 -3 -7 -5 -5
-2 -10 -8 -17 -18 -12 -18 -17 -22 -31 -22 -13 0 -20 4 -39 23 -13 12 -27 20
-42 24 -6 1 -49 2 -126 2 l-117 -1 -10 -6 c-8 -5 -11 -9 -18 -22 -11 -20 -14
-23 -28 -23 -14 0 -17 3 -28 23 -7 13 -10 17 -18 22 -20 12 -48 8 -61 -10 -3
-4 -6 -9 -6 -10 0 -1 -2 -4 -4 -7 -2 -3 -3 -6 -3 -6 1 -1 -2 -4 -5 -7 -13 -13
-38 -4 -38 13 -1 13 0 15 11 27 11 13 15 20 16 33 1 7 0 11 -5 25 -1 2 -6 15
-11 28 -11 29 -18 38 -37 45 -27 10 -55 -4 -62 -30 -5 -21 -9 -44 -9 -53 0
-15 8 -29 18 -32 2 0 7 -4 10 -8 5 -7 5 -8 3 -12 -6 -11 -10 -12 -24 -5 -13 7
-23 9 -28 5 -4 -3 -11 -11 -11 -13 -1 -9 -8 -13 -27 -17 -26 -5 -67 -32 -77
-50 -6 -12 -23 -42 -25 -44 -4 -4 -14 -26 -15 -33 -1 -4 -2 -7 -2 -8 -2 -8 -5
-25 -5 -34 0 -8 -9 -20 -12 -17 0 1 -4 3 -7 5 -3 1 -8 6 -12 11 l-5 9 0 100
c1 116 0 109 21 119 27 13 52 50 51 74 0 3 -1 7 -1 8 -1 1 -2 3 -2 4 -3 15
-34 28 -55 23 -37 -10 -36 -10 -45 -7 -4 2 -11 6 -15 8 -13 8 -27 11 -102 18
-41 4 -77 7 -80 8 -3 0 -6 0 -6 0z m26 -68 c16 -3 28 -3 37 1 9 3 16 2 22 -3
5 -4 6 -6 5 -16 0 -20 -9 -25 -35 -18 -7 2 -20 3 -34 3 -20 0 -21 0 -26 5 -11
10 -4 31 10 31 3 0 13 -1 21 -3z m164 -22 c3 -3 4 -7 4 -14 0 -13 -6 -19 -19
-19 -13 0 -19 6 -19 19 0 7 1 11 4 14 7 8 23 8 30 0z m-216 -75 c8 -3 12 -10
12 -21 0 -13 -6 -19 -19 -19 -14 0 -19 6 -20 21 0 18 10 25 27 19z m480 -38
c9 -17 3 -32 -12 -32 -9 0 -15 6 -18 17 -1 8 -1 9 3 14 3 3 5 6 5 7 0 2 13 4
17 2 0 0 3 -4 5 -8z m358 -15 c3 -2 8 -9 13 -21 12 -23 17 -28 37 -36 2 0 86
-1 188 -2 l185 -1 6 -5 c3 -3 6 -7 6 -10 1 -8 8 -17 17 -22 8 -4 11 -4 22 -3
25 2 28 2 35 -5 5 -5 6 -7 6 -16 0 -15 -8 -23 -23 -23 -9 0 -11 1 -21 10 -13
10 -17 12 -32 11 -8 -1 -12 -2 -15 -6 -9 -10 -15 -28 -17 -46 -2 -28 -12 -33
-57 -24 -17 3 -26 3 -51 3 -69 -3 -350 -2 -360 1 -11 2 -31 10 -74 26 -65 26
-66 26 -65 43 0 6 1 20 1 33 0 23 0 23 6 29 l5 5 55 0 c37 0 58 1 63 2 15 5
26 20 29 41 3 18 24 26 41 16z m-656 -13 c5 -5 6 -7 6 -16 0 -6 -1 -13 -3 -17
-1 -4 -5 -16 -8 -26 -6 -21 -9 -25 -31 -44 -19 -16 -29 -19 -37 -11 -10 9 -5
22 15 37 15 12 19 21 18 49 0 22 0 22 6 28 5 5 7 6 17 6 10 0 12 -1 17 -6z
m1319 -9 c3 -5 3 -5 0 -11 -2 -3 -7 -7 -10 -8 -3 -1 -13 -7 -22 -12 -10 -6
-19 -10 -23 -10 -12 0 -18 15 -10 23 1 3 9 6 17 9 8 3 19 7 26 9 15 6 17 6 22
0z m92 -6 c5 -8 1 -16 -8 -16 -9 0 -13 8 -8 16 2 3 5 5 8 5 3 0 6 -2 8 -5z
m-1070 -102 c4 -2 4 -4 0 -7 -5 -4 -10 -4 -13 0 -3 5 1 11 6 9 2 -1 5 -2 7 -2z
m42 -28 c6 -7 6 -7 1 -12 -4 -5 -10 -7 -10 -3 0 1 -2 2 -5 4 -7 3 -7 11 1 14
7 3 7 3 13 -3z m-152 -66 c5 -5 7 -16 3 -23 -3 -6 -12 -10 -20 -8 -21 5 -18
36 4 36 6 0 9 -1 13 -5z m111 -9 c5 -5 5 -11 0 -16 -10 -10 -27 5 -16 16 4 4
12 4 16 0z m626 -19 l-5 -5 -4 4 -5 5 4 4 5 5 4 -4 5 -5 -4 -4z m116 -1 c1 0
5 -3 8 -6 5 -5 6 -7 6 -18 0 -10 -1 -13 -6 -19 -5 -6 -6 -8 -6 -20 0 -16 3
-23 13 -28 17 -8 19 -42 2 -50 -8 -4 -24 -4 -32 0 -12 6 -14 17 -10 47 1 9 -3
26 -8 32 -7 8 -9 17 -8 28 2 16 10 29 20 33 4 2 8 2 21 1z m-788 -51 c4 -2 11
-8 17 -14 10 -12 23 -19 43 -24 16 -4 20 -8 20 -22 0 -18 -11 -25 -31 -20 -6
2 -14 4 -19 5 -5 1 -11 2 -13 3 -5 1 -30 9 -37 11 -15 6 -22 22 -17 43 1 7 2
13 2 14 -1 0 1 3 4 5 7 5 20 5 31 -1z m588 -10 c16 -5 28 -7 33 -7 5 1 9 0 9
0 0 -1 3 -4 8 -6 4 -3 9 -7 10 -10 3 -5 27 -20 33 -20 1 0 5 -2 8 -5 l6 -5 0
-29 c-1 -20 0 -32 2 -40 3 -10 3 -12 0 -16 -4 -6 -11 -7 -16 -2 -1 2 -3 2 -3
2 -1 -1 -5 -2 -10 -2 -14 -2 -21 -6 -25 -13 -2 -4 -3 -7 -2 -7 0 -1 -2 -4 -6
-8 l-6 -6 -58 1 c-56 0 -58 0 -70 -4 -12 -5 -23 -14 -30 -25 -4 -6 -5 -26 -1
-42 2 -8 2 -10 -1 -12 -2 -2 -2 -3 -1 -3 1 -1 2 -5 3 -9 2 -10 6 -18 14 -24 5
-4 7 -4 74 -4 l70 0 6 -6 6 -6 0 -32 c0 -30 0 -33 4 -38 2 -3 5 -5 6 -5 0 1 2
0 3 -1 2 -5 23 -5 32 -1 7 4 20 4 28 1 20 -9 20 -45 0 -54 -9 -3 -21 -3 -29 1
-12 6 -55 5 -55 -2 0 0 -66 -1 -147 -1 l-148 0 -6 6 -6 6 1 41 c0 54 -1 57
-21 81 -11 11 -12 15 -11 27 1 13 20 19 33 11 3 -2 8 -3 18 -2 14 1 23 5 28
12 5 8 20 12 32 9 10 -3 24 -1 30 3 5 4 6 24 1 33 -5 10 -24 30 -33 35 -7 4
-11 4 -37 4 l-29 0 -6 6 -6 6 0 72 0 72 6 6 6 6 88 -1 89 0 23 7 c13 4 25 7
26 7 2 0 14 -3 27 -7z m-333 -26 c3 -5 3 -5 -1 -10 -6 -6 -10 -6 -14 -1 -4 3
-3 7 2 13 4 4 8 4 13 -2z m-746 -26 c12 -7 14 -33 3 -43 -8 -9 -32 -9 -40 0
-9 8 -9 32 0 41 7 7 27 8 37 2z m702 -8 c2 -2 4 -6 4 -7 0 -2 -1 -7 -2 -12 -2
-13 -6 -18 -20 -28 -6 -4 -13 -10 -16 -12 -19 -19 -50 -20 -57 -2 -7 17 -2 33
13 42 33 19 46 24 59 24 11 0 14 -1 19 -5z m-453 -26 c2 -3 2 -4 -1 -7 -3 -3
-3 -3 -6 0 -3 3 -3 4 -1 7 1 2 3 3 4 3 1 0 3 -1 4 -3z m245 -12 c10 -4 13 -10
13 -23 0 -12 -2 -17 -13 -27 -13 -13 -22 -33 -19 -45 1 -4 3 -40 3 -80 1 -40
2 -76 3 -80 3 -11 8 -22 10 -22 1 0 2 -1 2 -2 0 -4 15 -19 22 -22 3 -1 5 -2 5
-2 0 0 2 0 5 -2 2 -1 13 -3 24 -4 25 -2 28 -4 28 -22 0 -11 -1 -13 -6 -18 -7
-8 -23 -8 -34 -2 -6 4 -9 4 -20 4 -19 -1 -26 -8 -31 -29 -2 -7 -4 -15 -5 -17
0 -2 -1 -43 -1 -92 -1 -78 -1 -90 2 -97 4 -9 14 -21 18 -21 2 0 3 -1 3 -2 0
-2 2 -2 38 -3 42 -1 66 2 102 10 27 7 51 14 70 22 16 7 36 18 36 19 0 1 1 2 3
2 2 0 3 1 3 2 0 4 26 28 36 32 18 9 29 11 39 7 5 -2 10 -3 12 -3 7 0 29 -9 32
-13 3 -4 2 -5 -1 -8 -3 -2 -7 -4 -10 -4 -14 -1 -32 -10 -32 -16 0 -2 -1 -3 -2
-3 -3 0 -2 -14 4 -37 3 -13 7 -32 9 -42 2 -18 2 -18 -3 -23 l-5 -6 -98 0 c-68
0 -100 -1 -105 -2 -13 -5 -20 -11 -28 -29 -8 -17 -10 -19 -35 -32 -3 -1 -7 -6
-9 -11 -3 -6 -6 -10 -6 -10 -2 0 0 -8 5 -19 8 -17 19 -21 49 -21 23 0 24 0 31
-6 4 -3 6 -6 6 -6 -1 -1 0 -6 2 -12 2 -9 5 -12 22 -30 21 -20 23 -24 35 -53 3
-8 7 -17 9 -18 2 -2 3 -4 3 -5 0 0 2 -3 5 -6 17 -19 14 -40 -6 -40 -9 0 -16 5
-28 21 -5 6 -6 7 -19 7 -13 1 -15 0 -26 -10 -13 -13 -31 -14 -47 -5 -11 6 -28
8 -38 3 -2 -2 -11 -12 -19 -22 -24 -33 -41 -54 -61 -76 -13 -14 -23 -35 -29
-55 -2 -8 -10 -17 -15 -17 -8 0 -41 -16 -49 -24 -8 -7 -33 -29 -38 -33 -3 -2
-7 -7 -8 -10 -3 -7 -1 -30 3 -39 3 -7 3 -8 0 -13 -5 -6 -7 -6 -17 0 -5 4 -11
8 -14 9 -3 3 -9 4 -15 4 -6 0 -11 1 -12 2 -1 1 -2 2 -3 1 -5 -3 -6 11 -6 147
l0 141 -7 22 c-4 11 -7 23 -7 25 0 2 3 14 7 25 l7 22 0 79 c0 94 0 93 -19 114
-22 24 -22 40 0 64 8 9 13 17 16 24 3 11 4 39 1 41 -1 1 -2 3 -2 5 0 5 -17 22
-21 22 -3 0 -15 13 -15 16 0 1 4 7 10 13 5 6 9 11 9 12 -1 0 -1 1 0 1 4 0 5
22 2 36 -2 7 2 16 10 30 11 18 11 43 -1 60 -16 24 -16 24 -16 33 0 9 3 16 11
25 3 3 5 6 5 7 1 2 0 2 6 17 3 10 3 17 3 55 0 27 0 46 2 49 1 3 2 20 2 38 0
28 1 34 4 39 3 5 4 6 7 5 2 -1 4 -1 4 0 1 1 5 2 11 2 13 0 19 -6 19 -19 0 -10
0 -11 -18 -25 -6 -4 -6 -5 -6 -19 1 -15 1 -15 8 -20 9 -5 24 -12 37 -16 12 -3
25 -1 35 6 7 6 9 26 2 34 -15 22 -12 34 9 34 19 1 29 4 38 14 15 16 23 29 30
46 9 23 20 29 38 22z m-304 -29 c8 -8 8 -23 0 -34 -4 -4 -8 -7 -9 -7 -20 1
-31 9 -31 25 0 8 1 11 6 16 9 9 24 9 34 0z m-126 -52 c2 -2 3 -6 3 -10 -1 -9
2 -24 4 -24 1 0 2 -1 1 -2 -3 -5 17 -14 41 -19 13 -3 32 -10 39 -14 11 -7 21
-44 17 -61 -2 -11 -4 -12 -21 -21 -8 -4 -14 -8 -15 -9 -1 -1 -3 -3 -6 -4 -3
-2 -7 -7 -10 -11 -5 -8 -13 -12 -20 -13 -19 -2 -26 4 -26 21 0 12 1 14 18 27
6 5 6 6 6 20 l1 16 -11 10 c-17 16 -35 23 -58 24 -8 0 -14 9 -14 20 0 14 4 21
18 36 18 18 26 22 33 14z m149 -40 c-1 -5 -1 -8 1 -9 1 0 -1 -1 -4 -1 -5 -1
-6 -1 -10 9 l-5 10 5 5 4 6 5 -6 c5 -6 5 -8 4 -14z m15 -28 c4 -8 4 -9 2 -12
-3 -3 -14 0 -14 3 1 2 1 6 1 11 1 10 6 9 11 -2z m-243 -84 c16 -6 24 -14 24
-23 0 -8 -15 -17 -33 -20 -4 0 -8 -1 -10 -3 -2 -1 -8 -2 -12 -3 -4 -1 -9 -2
-11 -2 -3 -1 -10 6 -11 12 -1 3 -1 13 0 21 2 12 4 16 8 19 8 7 25 7 45 -1z
m646 -46 c7 -7 3 -18 -6 -20 -5 -1 -14 7 -14 12 2 11 13 15 20 8z m742 -32 c5
-6 5 -16 0 -21 -10 -9 -26 -3 -26 10 0 13 17 20 26 11z m-1292 -32 c5 -5 5
-11 0 -16 -10 -10 -27 5 -16 16 4 4 12 4 16 0z m1286 -39 c10 -6 6 -20 -6 -20
-11 0 -16 14 -6 19 6 5 5 5 12 1z m-234 -14 c5 -5 6 -21 2 -26 -9 -11 -13 -47
-6 -51 5 -4 2 -31 -5 -42 -3 -5 -5 -7 -5 -6 0 4 -15 10 -35 15 -14 3 -15 4
-23 19 l-6 12 6 5 c4 3 9 6 12 6 16 4 20 5 23 10 4 5 5 6 7 19 1 7 1 10 -1 13
-5 4 -4 21 1 26 7 8 23 8 30 0z m106 -8 c3 -3 4 -7 4 -14 0 -13 -6 -19 -19
-19 -13 0 -19 6 -19 19 0 7 1 11 4 14 7 8 23 8 30 0z m-360 -21 c5 -5 6 -7 6
-17 0 -10 -1 -12 -6 -17 -5 -5 -7 -6 -17 -6 -10 0 -12 1 -17 6 -5 5 -6 7 -6
17 0 10 1 12 6 17 5 5 7 6 17 6 10 0 12 -1 17 -6z m-768 -27 c5 -2 11 -4 14
-6 5 -2 13 -17 10 -20 -2 -2 1 -22 5 -30 3 -8 11 -14 24 -21 11 -5 13 -9 13
-21 0 -24 -30 -26 -51 -3 -8 9 -12 21 -9 28 2 6 -1 25 -6 32 -1 4 -7 9 -13 12
-14 9 -17 20 -9 28 5 5 10 5 22 1z m528 -34 c7 -9 7 -46 0 -55 -7 -9 -28 -8
-34 0 -6 6 -5 23 1 33 14 26 24 33 33 22z m658 -51 c9 -3 16 -7 19 -10 l4 -6
-8 -11 c-9 -13 -18 -25 -34 -47 -6 -8 -16 -22 -22 -31 -18 -25 -20 -26 -73
-27 -42 0 -43 0 -53 5 -6 3 -10 6 -10 8 -1 2 -2 9 -3 14 -5 15 -3 19 10 32 15
15 18 20 19 34 0 1 1 3 1 3 1 0 3 2 4 5 l3 6 34 0 c33 0 34 0 44 5 6 3 12 8
14 10 15 17 27 19 51 10z m-371 -57 c12 -12 3 -31 -13 -31 -11 0 -18 7 -18 18
0 11 7 18 18 18 6 0 9 -1 13 -5z m112 -14 c4 -4 5 -7 5 -15 0 -14 -6 -20 -20
-20 -14 0 -20 6 -20 20 0 14 6 20 20 20 8 0 11 -1 15 -5z m411 -8 c4 -11 4
-16 0 -21 -7 -8 -22 -2 -22 8 0 7 12 20 18 20 1 0 2 -3 4 -7z m-1386 -71 c5
-6 5 -12 0 -18 -7 -8 -22 -2 -22 9 0 11 15 17 22 9z m840 -8 c6 -12 -10 -22
-17 -11 -3 4 -3 9 2 15 3 4 12 2 15 -4z m-701 -34 c5 -5 6 -7 6 -16 0 -15 -8
-23 -23 -23 -9 0 -11 1 -16 7 -9 8 -9 23 -1 32 9 9 24 9 34 0z m695 -46 c18
-18 18 -18 108 -18 l75 0 8 -5 c8 -5 8 -6 5 -9 -2 -2 -4 -5 -4 -6 0 -3 -11
-12 -16 -13 -6 -1 -7 -2 -7 -11 0 -5 -3 -6 -21 -6 -19 0 -26 2 -95 25 -21 7
-40 13 -41 13 -1 0 -4 1 -5 3 -2 1 -9 4 -16 6 -29 6 -36 23 -14 35 5 2 10 0
23 -14z m-782 -39 c3 -3 4 -7 4 -14 0 -13 -6 -19 -19 -19 -13 0 -19 6 -19 19
0 7 1 11 4 14 7 8 23 8 30 0z m-19 -79 c2 0 6 -3 9 -6 5 -5 6 -7 6 -17 0 -10
-1 -12 -6 -17 -8 -8 -25 -9 -33 -1 -9 8 -10 25 -1 36 3 3 13 7 18 6 2 0 5 -1
7 -1z m1378 -48 c6 -7 10 -24 7 -35 -3 -12 -9 -17 -35 -30 -20 -10 -25 -12
-34 -12 -18 1 -26 8 -26 28 0 14 3 18 25 33 29 20 52 26 63 16z m-237 -2 c5
-6 5 -12 -1 -18 -7 -9 -14 -12 -18 -9 -1 1 -2 3 -2 4 1 0 1 1 0 1 -6 0 -3 15
3 23 4 4 14 4 18 -1z m97 -115 c3 -5 3 -5 0 -10 -2 -3 -5 -5 -7 -5 -2 0 -5 2
-7 5 -3 5 -3 5 0 10 2 3 5 5 7 5 2 0 5 -2 7 -5z m-653 -3 c8 -9 4 -19 -12 -33
-18 -17 -31 -21 -38 -13 -8 9 -4 19 12 33 18 17 31 21 38 13z m-105 -11 c5 -8
1 -16 -8 -16 -9 0 -13 8 -8 16 2 3 5 5 8 5 3 0 6 -2 8 -5z m923 -2 c3 -4 3
-24 0 -28 -4 -5 -13 -9 -21 -9 -4 0 -7 1 -6 1 0 1 -2 3 -4 6 -4 3 -5 6 -5 14
0 12 4 17 18 20 9 2 13 1 18 -4z m-1491 -67 c11 -10 3 -28 -11 -28 -9 0 -16 6
-16 16 0 14 17 22 27 12z m1549 -4 c1 0 5 -3 8 -6 5 -5 6 -7 6 -18 0 -11 -1
-13 -6 -18 -6 -6 -7 -6 -18 -6 -3 0 -7 0 -9 0 -2 0 -6 3 -10 7 -7 7 -7 7 -22
7 l-16 0 -9 -10 -10 -10 -13 0 c-18 0 -24 5 -24 22 -1 16 1 22 11 26 16 8 22
7 36 -8 10 -10 37 -7 45 5 2 3 6 6 9 8 5 2 8 2 22 1z"/>
<path d="M815 2524 c-14 -4 -22 -10 -38 -31 -12 -17 -37 -16 -53 1 -8 9 -18
13 -30 13 -10 0 -12 -1 -15 -4 -2 -3 -4 -6 -6 -7 -3 -4 -11 -21 -11 -25 0 -1
-1 -3 -2 -4 -1 -1 -2 -10 -2 -19 -1 -21 3 -29 14 -36 13 -9 18 -10 63 -10 41
0 42 0 53 5 9 5 11 7 17 20 3 8 7 17 8 21 1 8 9 16 15 16 1 0 9 3 17 7 16 8
19 13 19 27 0 9 -1 10 -8 17 -12 10 -26 13 -41 9z"/>
<path d="M1740 2984 c0 -8 1 -13 1 -11 1 3 3 3 13 3 l12 -1 0 10 c0 6 0 11 -1
11 0 1 -6 1 -12 0 -7 -1 -11 0 -12 1 0 1 -1 -5 -1 -13z"/>
</g>
</svg>
