<?xml version="1.0" standalone="no"?>
<!DOCTYPE svg PUBLIC "-//W3C//DTD SVG 20010904//EN"
 "http://www.w3.org/TR/2001/REC-SVG-20010904/DTD/svg10.dtd">
<svg version="1.0" xmlns="http://www.w3.org/2000/svg"
 width="1100.000000pt" height="2850.000000pt" viewBox="0 0 1100.000000 2850.000000"
 preserveAspectRatio="xMidYMid meet">
<metadata>
Created by potrace 1.15, written by Peter Selinger 2001-2017
</metadata>
<g transform="translate(0.000000,2850.000000) scale(0.500000,-0.500000)"
fill="#000000" stroke="none">
<path d="M1164 3837 c-9 -5 -12 -8 -17 -17 l-5 -11 0 -145 c0 -169 -2 -155 23
-181 23 -25 28 -40 16 -48 -4 -2 -8 -4 -9 -4 -2 0 -5 -1 -6 -2 -5 -2 -18 5
-24 13 -3 4 -11 17 -18 29 -20 35 -42 63 -71 89 -5 5 -12 11 -15 14 -3 2 -8 7
-12 10 -4 3 -7 6 -8 6 -3 3 -32 24 -34 24 -1 0 -2 1 -2 2 -1 1 -37 23 -50 30
-8 4 -31 10 -38 10 -7 0 -23 9 -32 17 -13 12 -16 13 -37 12 -21 0 -24 1 -36
11 -10 10 -19 13 -30 11 -14 -1 -37 -14 -34 -19 1 -1 0 -2 -1 -2 -2 0 -5 -11
-4 -21 0 -6 2 -13 6 -19 3 -6 10 -20 16 -31 6 -12 12 -22 16 -26 8 -6 22 -9
40 -9 11 0 13 0 17 -4 6 -6 7 -22 3 -28 -7 -8 -9 -14 -7 -30 0 -12 2 -17 4
-20 3 -4 4 -5 1 -19 -1 -8 -3 -18 -4 -24 -1 -7 -1 -14 0 -21 7 -31 2 -36 -14
-15 -13 19 -44 49 -72 71 -39 31 -114 70 -138 73 -27 4 -54 15 -63 26 -8 9 -7
27 1 35 3 3 7 6 9 6 15 1 25 -1 25 -4 0 -1 1 -2 2 -1 0 0 5 1 10 2 20 3 28 11
28 31 0 9 1 13 6 21 3 6 6 9 6 8 0 -2 17 7 25 13 15 12 24 25 33 47 3 10 3 11
-1 27 -1 7 -7 14 -13 16 -3 2 -6 4 -6 4 0 3 -21 6 -88 12 l-67 7 -10 -5 c-11
-6 -20 -20 -22 -36 -2 -14 -10 -20 -24 -20 -10 0 -12 1 -17 6 -5 5 -6 7 -6 16
1 22 -7 39 -21 46 -18 9 -36 5 -65 -13 -8 -5 -21 -8 -23 -5 -1 2 -27 -7 -32
-12 -7 -6 -9 -17 -9 -45 0 -21 1 -27 5 -41 6 -18 6 -25 4 -42 -2 -13 1 -27 7
-32 12 -10 20 -19 20 -23 0 -4 -10 -16 -18 -22 -3 -1 -8 -7 -11 -12 l-6 -10
-1 -69 -1 -69 -5 -10 c-3 -5 -6 -9 -6 -8 0 1 -1 2 -2 3 -27 2 -30 3 -39 17
l-7 11 -14 0 c-21 0 -24 -5 -24 -46 -1 -60 -8 -105 -28 -165 -10 -32 -36 -91
-42 -97 -1 -1 -2 -4 -4 -7 -1 -3 -12 -15 -24 -28 -29 -30 -33 -36 -48 -66 -25
-51 -17 -114 21 -161 39 -49 110 -70 170 -52 16 5 41 17 41 21 0 3 8 -7 10
-13 1 -2 2 -127 2 -289 0 -220 1 -287 2 -294 4 -11 15 -21 29 -27 17 -7 21
-11 21 -23 0 -12 -4 -16 -21 -23 -14 -6 -25 -16 -29 -27 -1 -6 -2 -34 -2 -102
0 -86 0 -94 4 -107 2 -8 4 -18 5 -22 0 -4 2 -9 3 -11 1 -2 4 -8 6 -13 9 -18
12 -19 65 -19 45 0 64 3 100 12 14 3 35 9 45 13 6 2 14 5 18 7 13 5 37 18 50
27 17 12 27 23 33 36 l4 11 0 178 0 178 -6 11 c-3 6 -7 14 -10 16 -19 21 -19
41 0 62 3 2 7 10 10 16 l6 11 0 48 c0 43 0 49 -4 56 -4 8 -12 13 -21 13 -3 0
-8 1 -10 2 -3 2 -4 1 -4 0 0 -2 -1 -2 -3 0 -1 2 -3 3 -4 3 -2 -3 -5 15 -3 21
1 3 2 9 3 13 1 10 5 19 7 18 1 -1 2 1 2 3 0 3 1 9 1 14 1 14 -1 15 -6 4 -2 -6
-5 -11 -7 -12 -2 0 -2 0 -1 2 1 2 1 2 -2 1 -2 0 -3 0 -3 1 0 1 -1 2 -2 1 -1
-1 -2 0 -2 1 -1 1 -7 4 -14 8 -12 5 -14 7 -17 15 -6 17 0 35 14 40 14 5 37 -1
37 -10 0 -3 1 -3 2 -1 1 1 5 2 14 2 11 -1 13 0 18 5 l5 5 0 123 c1 69 0 125
-1 127 -4 7 -7 15 -6 17 0 1 -1 1 -2 0 -1 -1 -8 -1 -15 -2 -13 0 -13 0 -13 5
0 5 0 5 13 5 7 -1 14 -1 15 -2 1 -1 2 -1 2 0 -1 2 2 10 6 17 3 5 2 172 0 172
-1 0 1 4 5 10 l8 9 4 -4 c7 -8 33 -21 51 -27 9 -3 17 -6 17 -5 2 1 17 -14 18
-18 3 -10 19 -18 39 -20 14 -2 17 -4 28 -19 5 -6 12 -13 15 -16 16 -11 25 -24
25 -36 0 -3 1 -6 2 -7 0 -1 1 -2 1 -3 1 -6 5 -13 17 -25 16 -17 20 -27 16 -42
-5 -18 -20 -24 -45 -17 -10 2 -21 3 -21 0 0 -1 -1 -2 -1 -2 -3 1 -13 -5 -13
-6 0 -1 -3 -3 -6 -4 -3 -1 -6 -3 -6 -4 0 -1 -3 -2 -7 -2 -5 0 -7 1 -8 4 -1 3
-2 4 -3 3 0 -2 -6 -3 -13 -4 -21 -2 -25 -11 -25 -57 0 -26 1 -32 4 -38 4 -9
14 -15 25 -17 4 -1 9 -3 9 -4 2 -1 2 -1 2 1 0 4 10 2 14 -2 5 -6 5 -12 0 -18
-4 -4 -14 -6 -14 -1 0 1 0 1 -2 0 0 -1 -5 -3 -9 -4 -11 -2 -21 -8 -25 -17 -4
-7 -4 -32 -4 -440 0 -392 0 -434 3 -441 4 -9 14 -21 18 -21 2 0 3 -1 3 -2 0
-2 2 -2 39 -3 32 -1 61 2 83 7 5 1 12 2 16 3 4 1 7 2 8 2 1 1 4 2 7 2 9 2 46
16 64 26 44 22 68 44 78 70 4 11 5 17 5 44 0 19 -1 34 -2 39 -3 10 -10 22 -15
26 -8 7 -15 19 -15 26 0 7 7 19 15 26 14 11 17 26 18 80 0 40 1 46 4 52 2 4 5
10 5 13 1 5 1 5 2 -2 0 -8 1 -10 24 -33 34 -34 37 -36 72 -31 13 2 23 4 24 4
1 1 5 1 9 2 19 3 82 29 92 38 1 1 6 5 11 8 4 3 10 8 13 12 2 3 5 7 6 8 1 2 3
5 4 8 6 15 7 23 7 38 -1 16 -1 16 5 22 5 5 8 6 14 6 6 0 9 -1 14 -6 6 -6 6 -6
5 -22 0 -12 0 -17 4 -24 l4 -9 16 0 c13 -1 16 0 17 2 4 13 13 35 16 38 3 3 6
4 12 4 10 0 17 -6 17 -16 0 -9 7 -25 13 -31 9 -10 19 -10 46 -3 38 10 42 11
48 16 3 3 15 9 26 14 20 8 29 13 29 18 0 1 6 -5 14 -12 13 -13 21 -18 34 -18
14 -1 39 2 55 6 19 5 22 4 25 -3 3 -7 -3 -15 -17 -22 -6 -3 -15 -10 -20 -15
-15 -13 -18 -14 -28 -14 -17 0 -19 0 -27 -2 -16 -4 -24 -16 -24 -33 0 -8 -1
-10 -6 -15 l-6 -6 -29 1 c-17 1 -36 1 -44 2 -8 0 -24 1 -36 2 -12 1 -27 2 -33
2 -6 0 -20 1 -31 2 -11 1 -27 2 -35 2 -33 2 -52 -14 -52 -44 0 -6 1 -14 3 -18
2 -9 12 -23 16 -23 2 0 3 -1 3 -2 0 -1 2 -3 6 -3 3 -1 6 -2 7 -3 1 -1 5 -2 9
-3 4 0 9 -1 11 -2 2 0 15 -3 28 -6 38 -8 50 -15 80 -44 26 -26 39 -64 46 -136
2 -21 3 -26 4 -30 3 -14 15 -26 28 -30 9 -3 13 -3 37 0 15 2 31 4 37 4 8 1 67
13 78 16 36 10 73 25 82 35 9 9 13 15 16 21 5 11 14 18 33 25 24 10 32 17 43
38 7 13 10 22 12 36 1 14 5 28 9 37 9 18 12 36 13 65 0 16 -1 31 -1 34 -4 12
-15 22 -35 33 -10 5 -13 10 -13 23 0 13 3 18 15 24 16 9 25 16 31 27 3 5 3 26
4 236 0 226 0 231 -4 239 -5 12 -11 18 -16 19 -2 0 -4 0 -4 1 0 1 -17 6 -22 6
-10 0 -15 12 -19 41 -1 4 -2 13 -3 19 -2 7 -2 19 -2 28 2 20 6 26 19 26 5 0 9
0 10 -1 1 0 7 0 13 2 25 5 28 12 28 51 0 35 -7 62 -17 62 -1 0 -4 2 -6 4 -2 2
-7 6 -12 8 -12 6 -17 14 -19 26 -1 12 6 20 17 20 12 0 18 -5 23 -20 7 -20 14
-29 23 -31 19 -3 29 1 50 22 15 13 18 19 16 31 -1 14 -5 19 -20 26 -18 8 -21
11 -32 25 -8 12 -18 21 -30 30 -16 13 -36 28 -39 30 -2 1 -10 7 -18 14 -8 6
-16 12 -17 13 -1 0 -6 4 -10 7 -4 3 -10 8 -13 11 -3 2 -6 4 -6 4 -1 0 -3 1 -4
3 -2 1 -7 5 -11 8 -4 3 -8 6 -9 7 -1 1 -8 7 -17 13 -9 7 -16 12 -17 13 -4 5
-16 12 -23 13 -10 2 -16 7 -14 13 0 3 8 13 17 22 10 10 24 25 32 34 8 9 17 19
20 22 3 3 10 11 16 18 6 6 13 15 16 18 4 4 13 15 22 25 16 19 27 26 42 28 25
4 45 12 60 27 14 14 19 24 18 37 -2 16 -9 25 -32 37 -10 6 -22 13 -26 15 -12
8 -38 4 -45 -7 -1 -2 -3 -4 -4 -4 -1 0 -4 -1 -5 -3 -4 -5 -11 -4 -15 2 -3 4
-3 6 -1 14 1 5 2 12 1 16 -1 3 -1 8 -2 11 -2 11 -12 22 -20 22 -2 0 -5 1 -7 2
-3 2 -9 3 -15 3 -5 1 -11 2 -12 3 -2 2 -3 2 -3 1 0 -1 -1 -2 -3 -2 -2 0 -2 0
-2 1 1 1 0 3 -2 4 -1 1 -4 6 -7 12 -3 5 -5 10 -6 10 -1 0 -9 4 -17 9 -26 14
-54 30 -60 33 -21 12 -40 23 -43 24 -2 1 -7 4 -11 7 -12 8 -28 6 -38 -4 -8 -7
-10 -16 -14 -45 -2 -15 -4 -30 -4 -33 -6 -37 -12 -76 -17 -102 -3 -18 -6 -36
-7 -41 -1 -5 -2 -13 -4 -19 -2 -5 -6 -26 -10 -46 -4 -20 -8 -41 -10 -46 -1 -6
-2 -12 -2 -13 0 -2 1 -14 2 -27 1 -23 1 -25 -3 -33 -2 -5 -5 -10 -6 -11 -10
-11 -20 -34 -20 -46 0 -3 -1 -4 -1 -2 -1 2 -3 3 -5 3 -1 -1 -3 0 -2 2 0 1 -1
2 -2 2 -1 0 -2 1 -1 2 1 1 0 2 -1 2 -1 0 -2 3 -3 6 0 3 -3 8 -6 11 -6 5 -27
12 -37 11 -9 -1 -16 6 -16 17 0 11 6 17 17 17 9 0 26 5 32 9 12 8 12 1 13 171
l1 155 4 6 c3 4 10 9 16 12 21 10 37 29 46 53 5 16 4 27 -6 39 -10 13 -17 15
-93 21 -38 3 -74 6 -81 7 -20 2 -87 7 -102 8 -16 1 -26 2 -56 5 -30 3 -31 3
-43 -3z m109 -114 c7 -4 10 -11 10 -23 0 -13 -4 -20 -11 -24 -14 -7 -49 1 -56
14 -4 6 -4 7 -1 14 8 18 42 29 58 19z m-786 -21 c11 -10 3 -28 -11 -28 -9 0
-16 6 -16 16 0 14 17 22 27 12z m885 -39 c3 -3 5 -15 7 -40 1 -18 1 -21 -2
-26 -8 -10 -17 -4 -32 21 -10 16 -11 20 -11 29 0 13 4 19 14 21 8 2 19 -1 24
-5z m398 -33 c7 -17 7 -36 -2 -44 -8 -9 -32 -9 -40 0 -12 11 -7 42 7 45 2 0 8
2 12 4 14 5 18 4 23 -5z m-495 -17 c12 -12 3 -31 -13 -31 -11 0 -18 7 -18 18
0 11 7 18 18 18 6 0 9 -1 13 -5z m-826 -48 c3 -5 3 -6 0 -15 -2 -5 -6 -13 -8
-18 -6 -11 -6 -23 -1 -40 11 -32 2 -51 -23 -51 -21 0 -28 9 -27 33 0 28 6 45
19 59 9 10 15 18 15 21 0 4 4 8 10 12 7 5 11 5 15 -1z m517 -7 c5 -5 5 -11 0
-16 -10 -10 -27 5 -16 16 4 4 12 4 16 0z m327 -54 c4 -6 4 -24 -1 -30 -7 -9
-27 -9 -34 0 -5 6 -5 24 0 30 7 9 27 9 35 0z m306 -7 c3 -5 3 -13 -1 -13 -1 0
-2 -2 -2 -4 -1 -3 -8 -5 -8 -2 0 1 -2 3 -4 6 -5 6 -5 8 -1 14 4 6 12 5 16 -1z
m-648 -44 c5 -4 6 -6 7 -26 2 -27 5 -34 19 -41 16 -9 20 -14 25 -29 9 -29 4
-43 -15 -43 -6 0 -13 2 -17 5 -23 13 -37 22 -40 27 -4 6 -5 17 -2 19 2 1 2 15
-1 25 -1 7 -6 15 -12 22 -6 6 -6 7 -6 21 0 14 0 16 6 20 8 7 28 7 36 0z m656
-10 c4 -3 8 -5 9 -5 4 0 10 -8 12 -17 5 -22 -8 -39 -29 -38 -16 1 -23 6 -27
21 -3 11 3 32 9 32 1 0 6 3 10 7 4 4 8 6 9 5 1 0 4 -3 7 -5z m-270 -18 c12
-12 3 -31 -13 -31 -11 0 -18 7 -18 18 0 11 7 18 18 18 6 0 9 -1 13 -5z m-811
-26 c3 -3 4 -7 4 -14 0 -13 -6 -19 -19 -19 -13 0 -19 6 -19 19 0 7 1 11 4 14
7 8 23 8 30 0z m182 -8 c3 -3 4 -7 4 -14 0 -13 -6 -19 -19 -19 -13 0 -19 6
-19 19 0 7 1 11 4 14 7 8 23 8 30 0z m471 -18 c12 -6 15 -9 15 -21 0 -11 -3
-16 -13 -20 -17 -7 -27 1 -27 22 0 10 1 12 6 18 7 7 6 7 19 1z m-325 -46 c19
-18 19 -27 3 -59 -9 -17 -13 -23 -16 -23 -1 0 -3 0 -2 -1 0 -1 0 -2 -1 -4 -1
-2 -2 1 -2 8 0 11 -2 20 -10 39 -4 12 -4 18 3 32 4 8 7 11 12 13 3 1 6 2 6 2
0 0 3 -3 7 -7z m515 -15 c10 -9 10 -25 1 -35 -8 -8 -24 -8 -32 1 -12 11 -6 36
9 38 8 2 18 0 22 -4z m212 -45 c12 -9 15 -10 26 -11 7 0 14 1 17 2 5 3 7 3 23
5 15 2 13 2 18 1 5 0 10 -12 7 -19 -1 -3 -2 -7 -3 -10 -2 -15 -10 -29 -15 -29
-1 0 -7 -2 -13 -5 -6 -3 -11 -5 -12 -5 -3 0 -21 -10 -24 -14 -6 -5 -19 -9 -22
-6 -1 1 -4 2 -6 2 -3 0 -3 1 2 3 16 8 21 16 20 34 0 18 -7 22 -38 21 -17 0
-23 4 -23 20 0 22 19 27 43 11z m-1202 3 c7 -6 7 -19 1 -25 -6 -7 -19 -7 -25
-1 -7 6 -7 19 -1 25 6 7 19 7 25 1z m796 -14 c17 -10 17 -22 2 -31 -15 -8 -28
-20 -31 -30 -2 -4 -3 -7 -4 -7 -1 0 -2 -2 -1 -4 0 -2 0 -4 1 -4 1 0 -1 -3 -5
-6 l-6 -7 -22 1 c-17 1 -24 2 -31 6 -5 2 -11 4 -12 4 -3 0 -3 0 0 2 2 1 3 6 3
20 0 24 1 26 16 21 12 -4 33 -4 37 0 2 1 7 7 11 14 10 15 22 27 27 27 3 0 9
-3 15 -6z m-473 -24 c5 -5 5 -15 0 -20 -9 -9 -24 -2 -24 10 0 8 6 14 14 14 3
0 8 -2 10 -4z m113 -13 c4 -5 4 -6 -2 -19 -6 -11 -10 -14 -20 -14 -15 0 -23
18 -13 30 6 8 27 9 35 3z m-265 -17 c7 -4 10 -11 10 -24 0 -11 -1 -15 -4 -19
-9 -10 -33 -11 -42 -1 -9 8 -9 32 0 41 7 6 26 8 36 3z m851 -5 c5 -4 6 -6 7
-16 1 -22 -2 -25 -37 -36 -32 -10 -36 -13 -36 -34 0 -14 0 -15 6 -19 3 -3 7
-8 10 -12 3 -4 7 -10 10 -15 3 -4 8 -9 12 -10 4 -2 7 -4 7 -5 0 -2 12 -3 55
-3 42 0 45 0 50 4 11 8 17 27 13 41 -3 10 0 22 7 32 3 3 5 6 4 6 -1 0 0 2 1 4
1 2 3 4 5 4 1 0 5 2 9 5 13 8 22 5 24 -9 1 -5 3 -15 5 -21 2 -10 3 -15 1 -21
-5 -19 6 -42 22 -44 2 -1 7 -4 11 -7 l6 -6 -1 -52 c-1 -54 -1 -54 -9 -63 -2
-1 -3 -2 -3 -1 0 1 -9 9 -20 17 -11 8 -21 15 -22 17 -5 5 -77 57 -83 60 -8 5
-27 3 -34 -3 -3 -2 -13 -11 -22 -21 -9 -10 -23 -25 -32 -34 -9 -10 -17 -19
-19 -22 -9 -15 -49 -19 -84 -10 -22 6 -22 6 -34 4 -6 -1 -12 -3 -15 -6 -3 -3
-9 -8 -14 -11 -15 -12 -33 -5 -33 12 0 10 -7 32 -12 39 -5 6 -14 10 -45 23
-15 6 -30 12 -34 14 -5 2 -11 4 -13 4 -16 0 -32 -11 -32 -23 l-1 -6 -1 7 c-1
4 -2 6 -2 5 -1 -4 -6 19 -7 33 -1 8 -2 15 -2 16 0 0 2 3 6 7 l6 6 113 0 113
-1 8 5 c11 5 17 19 18 37 1 13 1 13 13 24 18 18 18 18 18 40 0 29 1 30 36 42
28 10 43 11 51 3z m-825 -15 c0 -1 1 -2 3 -1 3 1 4 -1 3 -4 -1 -1 0 -2 2 -3 1
-1 -3 -1 -10 -1 -11 0 -12 0 -12 5 0 4 1 5 7 5 4 1 7 0 7 -1z m622 -15 l-5 -5
-4 4 -5 5 4 4 5 5 4 -4 5 -5 -4 -4z m490 -107 c1 0 5 -3 8 -6 5 -5 6 -7 6 -18
0 -11 -1 -13 -6 -18 -6 -6 -7 -6 -18 -6 -11 0 -12 0 -18 6 -5 5 -6 7 -6 17 0
14 3 20 12 24 5 2 8 2 22 1z m-1344 -8 c5 -5 5 -15 0 -20 -9 -9 -24 -2 -24 10
0 8 6 14 14 14 3 0 8 -2 10 -4z m-223 -19 c14 -7 25 -9 45 -9 16 0 17 0 22 -6
5 -5 6 -7 6 -17 0 -10 -1 -12 -6 -17 -8 -9 -24 -9 -36 0 -4 3 -8 7 -9 8 -2 4
-26 14 -36 15 -16 3 -22 16 -13 26 6 6 13 6 27 0z m161 -37 c5 -5 6 -7 6 -17
0 -14 -5 -20 -19 -24 -20 -6 -27 0 -27 22 0 12 1 14 6 19 5 5 7 6 17 6 10 0
12 -1 17 -6z m275 -20 c4 -4 4 -12 0 -16 -5 -7 -19 -1 -19 8 0 9 14 15 19 8z
m-184 -32 c3 -3 5 -10 7 -19 1 -7 5 -22 9 -32 9 -22 9 -37 0 -44 -8 -7 -28 -7
-36 0 l-6 5 0 27 c0 16 -1 35 -2 43 -1 13 -1 15 3 19 6 7 20 7 25 1z m-141
-20 c4 0 2 -13 -2 -18 -7 -8 -22 -2 -22 9 0 10 17 20 21 13 1 -2 2 -4 3 -4z
m249 -31 c5 -8 1 -16 -8 -16 -9 0 -13 8 -8 16 2 3 5 5 8 5 3 0 6 -2 8 -5z
m1250 -87 c11 -10 3 -28 -11 -28 -9 0 -16 6 -16 16 0 14 17 22 27 12z m-226
-7 c3 -5 3 -5 0 -10 -2 -3 -5 -5 -7 -5 -2 0 -5 2 -7 5 -3 5 -3 5 0 10 2 3 5 5
7 5 2 0 5 -2 7 -5z m-171 -13 c1 0 2 -1 2 -2 0 -2 3 -7 6 -12 3 -5 6 -8 6 -7
0 1 4 -2 9 -8 5 -5 9 -12 9 -14 0 -2 -4 -9 -9 -14 -5 -6 -9 -9 -9 -8 0 1 -2
-2 -5 -6 -11 -16 -11 -16 -11 -124 l1 -100 -6 -6 c-5 -5 -8 -6 -14 -6 -6 0 -9
1 -14 6 l-6 6 1 84 c0 57 -1 87 -2 92 -3 10 -9 15 -23 17 -6 1 -12 2 -13 3 -1
0 -2 0 -3 -2 0 -2 -4 -3 -9 -3 -12 0 -18 6 -18 17 0 8 1 10 12 21 7 7 14 13
15 12 1 0 1 1 0 2 -1 1 0 2 1 2 1 0 2 2 2 5 0 6 12 26 21 35 4 4 6 7 6 8 -1 1
0 2 2 2 1 0 6 2 10 4 4 3 12 5 17 6 8 1 10 0 15 -4 3 -4 6 -6 7 -6z m-300 -8
c1 0 3 -2 5 -3 5 -5 28 -13 30 -11 3 3 21 8 34 10 10 2 12 2 15 -2 2 -3 4 -7
4 -10 0 -7 6 -21 15 -36 12 -20 8 -36 -10 -36 -11 0 -17 6 -18 19 -3 19 -12
28 -33 31 -10 1 -30 -4 -37 -10 -2 -2 -4 -4 -5 -4 -1 0 -2 -4 -2 -8 0 -6 -1
-7 -1 -4 -1 3 -3 10 -5 16 -5 15 -5 30 0 44 2 6 4 13 4 16 1 3 1 1 1 -3 1 -5
2 -9 3 -9z m584 -80 c7 -3 14 -6 15 -6 2 0 5 -1 8 -3 6 -3 9 -4 17 -7 2 0 14
-1 28 -2 24 -1 25 -1 29 -7 4 -4 5 -7 5 -16 0 -22 -16 -29 -42 -19 -8 4 -16 5
-28 5 -15 0 -18 -1 -31 -7 -8 -4 -13 -7 -13 -10 0 -1 -3 3 -6 10 -8 18 -9 42
0 61 3 7 5 12 6 10 0 -2 6 -6 12 -9z m-171 3 c3 -5 3 -5 -1 -11 -2 -3 -7 -6
-10 -7 -10 -2 -15 -6 -16 -12 -3 -11 -2 -28 1 -38 3 -8 3 -9 0 -14 -7 -11 -17
-4 -29 22 -13 28 -14 31 -7 38 5 4 17 9 22 7 0 0 1 1 1 2 0 1 1 2 3 2 2 0 5 2
8 5 4 4 16 11 21 11 2 0 5 -2 7 -5z m-496 -44 c3 -3 3 -5 1 -36 -3 -44 -6 -47
-35 -45 -2 0 -6 3 -9 6 -5 5 -6 7 -6 17 0 13 0 13 22 48 9 15 18 19 27 10z
m-591 -39 c5 -6 5 -12 0 -18 -7 -8 -22 -2 -22 9 0 11 15 17 22 9z m1493 -11
c3 -5 3 -5 0 -10 -2 -3 -5 -5 -7 -5 -2 0 -5 2 -7 5 -3 5 -3 5 0 10 2 3 5 5 7
5 2 0 5 -2 7 -5z m-1305 -52 c2 2 1 -16 -2 -28 -6 -31 -15 -43 -32 -43 -8 0
-11 1 -15 5 -12 12 -1 47 20 59 21 13 22 14 25 10 2 -2 4 -4 4 -3z m491 -55
c8 -15 8 -27 -1 -44 -3 -6 -6 -15 -6 -19 0 -4 -1 -5 -1 -2 -1 2 -2 4 -3 5 -1
1 -6 11 -7 16 -2 4 -2 42 0 46 2 8 6 16 7 16 1 0 2 2 2 5 0 2 1 0 2 -4 1 -4 4
-13 7 -19z m141 12 c5 -6 5 -12 0 -18 -7 -8 -22 -2 -22 9 0 11 15 17 22 9z
m-293 -102 c11 -6 23 -13 26 -16 8 -8 12 -21 9 -32 -3 -11 -5 -14 -18 -23 -14
-9 -22 -19 -30 -42 -5 -13 -12 -18 -27 -18 -19 0 -28 10 -28 29 1 8 2 12 7 20
8 13 11 37 5 48 -8 15 -3 37 8 42 15 5 23 4 48 -8z m-382 6 c10 -9 3 -26 -10
-26 -8 0 -15 7 -15 15 0 13 16 20 25 11z m1023 -21 c16 -8 13 -46 -3 -51 -8
-3 -23 -1 -31 3 -10 5 -14 27 -7 40 6 12 26 16 41 8z m-599 -148 c3 -3 3 -3 0
-6 -3 -3 -3 -3 -6 0 -3 2 -3 3 -1 6 4 4 4 4 7 0z m-543 -138 c24 -6 44 -12 63
-18 33 -12 36 -14 44 -25 10 -14 11 -15 15 -20 9 -9 14 -19 14 -26 0 -14 -15
-21 -28 -12 -2 1 -11 9 -18 16 -16 16 -20 18 -47 27 -18 6 -30 11 -33 15 -2 3
-20 14 -22 14 -1 0 -4 3 -8 6 -7 8 -8 15 -2 22 4 5 7 5 22 1z m491 -14 c12
-12 3 -31 -13 -31 -11 0 -18 7 -18 18 0 11 7 18 18 18 6 0 9 -1 13 -5z m925
-38 c6 -7 6 -22 -1 -28 -6 -6 -21 -7 -27 -2 -11 11 -6 34 8 35 9 1 16 0 20 -5z
m-81 -2 c5 -3 5 -19 0 -22 -9 -7 -23 0 -23 11 0 11 14 18 23 11z"/>
<path d="M707 3041 c-9 -8 -11 -18 -11 -46 0 -38 5 -49 25 -50 7 -1 13 -2 13
-4 1 -1 2 0 3 3 1 3 3 4 6 4 3 0 5 1 6 2 0 1 3 1 5 0 4 0 4 0 3 2 -1 2 -1 3 1
1 5 -5 5 29 0 39 -2 4 -4 10 -5 14 -1 10 -7 26 -13 34 -5 7 -6 7 -16 7 -10 0
-12 -1 -17 -6z"/>
</g>
</svg>
