<?xml version="1.0" standalone="no"?>
<!DOCTYPE svg PUBLIC "-//W3C//DTD SVG 20010904//EN"
 "http://www.w3.org/TR/2001/REC-SVG-20010904/DTD/svg10.dtd">
<svg version="1.0" xmlns="http://www.w3.org/2000/svg"
 width="1100.000000pt" height="2850.000000pt" viewBox="0 0 1100.000000 2850.000000"
 preserveAspectRatio="xMidYMid meet">
<metadata>
Created by potrace 1.15, written by Peter Selinger 2001-2017
</metadata>
<g transform="translate(0.000000,2850.000000) scale(0.500000,-0.500000)"
fill="#000000" stroke="none">
<path d="M1521 3781 c-7 -3 -16 -13 -20 -23 -2 -4 -6 -13 -10 -20 l-6 -13 -17
-6 c-20 -8 -32 -14 -36 -19 -2 -2 -8 -7 -13 -12 -6 -5 -13 -13 -17 -18 -5 -5
-12 -12 -16 -15 -27 -19 -40 -39 -40 -67 0 -4 -1 -15 -3 -25 -3 -20 -7 -26
-18 -28 -10 -1 -15 5 -14 19 1 15 5 36 7 37 2 1 -1 14 -7 24 -8 15 -12 16 -62
17 -59 0 -64 -1 -84 -25 -5 -7 -12 -13 -14 -15 -10 -5 -24 -3 -39 4 -14 6 -36
12 -48 12 -5 0 -12 3 -23 9 -23 14 -29 15 -64 15 -31 0 -42 -2 -49 -11 -3 -4
-4 -29 0 -29 1 0 2 -1 2 -2 0 0 5 -5 11 -9 13 -10 15 -13 17 -27 4 -34 13 -44
40 -46 20 -1 33 2 46 11 26 17 29 17 53 1 16 -11 23 -12 72 -12 42 0 45 0 67
6 25 6 40 6 47 0 4 -3 8 -15 6 -23 0 -3 0 -9 1 -12 3 -12 -9 -29 -15 -23 -6 5
-18 6 -30 3 -25 -6 -39 -19 -39 -35 0 -13 3 -19 13 -30 8 -9 9 -11 9 -20 0
-14 -8 -23 -27 -34 -9 -4 -19 -11 -22 -14 -7 -6 -7 -7 -7 -19 0 -11 1 -13 5
-17 19 -18 18 -33 -4 -38 -36 -8 -47 -1 -54 36 -3 15 -8 23 -17 25 -3 0 -5 1
-6 1 -3 1 -18 0 -24 -2 -3 -2 -17 -3 -30 -3 -26 0 -38 -4 -38 -12 0 -2 -1 -8
-1 -14 -1 -7 0 -11 2 -14 5 -5 0 -14 -8 -14 -3 -1 -10 -1 -15 -2 -7 0 -10 -2
-19 -11 -13 -15 -18 -18 -28 -18 -11 0 -17 7 -17 20 1 9 8 20 12 17 1 0 9 -1
19 -2 16 -1 19 0 20 2 0 2 2 3 3 2 1 0 3 1 5 3 2 2 6 5 9 5 6 1 6 2 6 14 0 6
0 14 0 16 0 4 -8 12 -13 12 -1 1 -5 2 -8 3 -4 1 -13 1 -21 1 -18 0 -27 -4 -38
-15 -12 -12 -16 -14 -26 -14 -11 -1 -20 4 -26 14 l-5 7 -16 -1 -17 0 -3 -7
c-4 -9 -4 -73 -1 -83 4 -11 12 -20 23 -25 18 -10 23 -14 23 -23 0 -9 -5 -13
-23 -23 -17 -8 -25 -22 -25 -42 0 -12 4 -23 11 -31 4 -5 26 -16 31 -16 2 0 7
-2 12 -5 13 -8 32 -7 40 1 3 3 6 7 6 9 0 2 1 3 2 3 1 0 2 1 2 3 0 4 11 11 17
11 7 0 15 -7 15 -14 0 -2 -3 -15 -7 -28 -11 -33 -10 -50 4 -75 10 -17 4 -33
-12 -33 -10 0 -15 5 -19 17 -6 19 -11 28 -23 40 -22 21 -48 31 -56 21 -1 -3
-3 -10 -3 -20 l0 -15 12 -7 c21 -12 23 -32 5 -35 -17 -2 -37 7 -37 17 0 3 -1
7 -2 11 -1 3 -2 8 -3 12 -1 3 -2 5 -4 5 -1 0 -3 1 -4 3 -2 7 -17 11 -37 10
-32 -2 -50 -6 -62 -16 -13 -11 -17 -26 -10 -41 6 -15 10 -26 10 -30 0 -5 -7
-12 -13 -12 -9 0 -14 7 -34 46 -12 22 -23 35 -36 38 -6 2 -21 1 -75 -3 l-67
-5 -14 -7 c-31 -15 -29 -15 -58 -6 -20 7 -39 7 -74 0 -24 -5 -29 -5 -47 -3
-11 1 -31 1 -46 0 -14 -1 -34 -2 -45 -3 -21 -1 -31 -4 -52 -15 -6 -3 -14 -6
-18 -7 -19 -3 -37 -16 -43 -32 -4 -9 -2 -34 2 -45 15 -39 31 -57 53 -61 11 -2
12 -2 32 5 29 9 33 9 46 -4 l11 -9 14 1 c9 1 15 2 16 4 3 5 6 21 6 32 0 9 1
11 6 16 6 6 7 6 18 6 11 0 12 0 18 -6 9 -8 8 -23 -1 -42 -4 -7 -9 -21 -12 -30
-3 -9 -6 -18 -8 -20 -2 -4 -31 -22 -34 -22 -1 0 -5 -3 -10 -6 -11 -7 -33 -18
-38 -18 -5 0 -26 -16 -29 -22 -5 -13 -5 -19 1 -29 10 -15 35 -24 46 -16 8 5
32 13 41 13 8 1 22 -5 22 -8 0 -2 13 -15 19 -19 3 -2 10 -5 16 -6 9 -2 11 -2
26 3 9 3 21 8 26 11 24 15 27 15 58 11 l20 -3 70 15 c39 8 73 15 77 16 9 3 10
6 10 26 l-1 14 -8 2 c-8 2 -16 4 -21 4 -6 0 -12 10 -12 19 0 9 5 22 10 25 5 4
11 22 11 39 2 25 7 32 25 32 12 0 18 -4 24 -15 9 -18 17 -28 24 -32 4 -3 8 -6
8 -7 0 -1 1 -4 3 -5 3 -2 3 -12 0 -16 -1 -2 -3 -17 -3 -22 -1 -15 4 -20 24
-26 14 -5 15 -5 37 -2 12 1 35 3 50 4 16 1 28 2 29 4 0 1 3 -1 6 -4 5 -6 6 -8
6 -18 0 -7 1 -15 3 -19 3 -7 12 -16 15 -14 1 1 2 0 2 -1 0 -1 4 -2 9 -3 5 -1
9 -2 9 -4 0 -1 1 -1 2 1 3 5 16 -2 16 -10 0 -8 -13 -15 -16 -10 -1 2 -2 2 -2
1 0 -2 -4 -3 -9 -4 -5 -1 -9 -2 -9 -3 0 -1 -1 -2 -2 -1 -2 1 -10 -5 -14 -11
-7 -12 3 -35 17 -41 8 -3 24 -3 34 1 18 7 35 0 44 -19 3 -6 11 -15 34 -37 l8
-6 -2 -14 c-3 -19 -2 -47 0 -47 2 -1 5 -3 7 -5 3 -2 9 -6 14 -9 13 -7 16 -12
11 -18 -4 -6 -22 -16 -37 -22 l-10 -4 -23 9 c-28 9 -53 17 -56 17 -2 0 -3 0
-3 1 0 0 -1 3 -1 5 0 1 0 3 1 3 1 0 5 5 10 12 7 10 9 12 17 14 13 3 23 9 29
14 4 5 5 7 4 18 l0 13 -13 10 c-41 31 -65 35 -79 13 -8 -13 -11 -25 -10 -49 1
-28 6 -40 19 -47 11 -7 13 -13 4 -21 -4 -3 -6 -6 -6 -7 1 -1 0 -2 -1 -2 -4 0
-7 -23 -4 -33 1 -4 5 -9 9 -11 7 -5 23 -22 23 -24 0 -3 18 -10 27 -10 8 -1 13
1 23 7 16 8 33 14 42 13 5 -1 9 -3 15 -11 14 -18 28 -22 47 -13 10 4 22 4 30
1 21 -9 20 -45 -2 -54 -11 -5 -34 1 -37 9 -1 2 -5 8 -10 13 -8 10 -9 10 -20
10 -11 1 -12 1 -23 -10 -17 -17 -34 -22 -47 -15 -8 4 -44 4 -52 0 -7 -4 -20
-4 -42 0 -7 1 -20 2 -30 2 -23 0 -32 -3 -51 -21 l-14 -13 -13 0 -14 0 -14 15
c-15 17 -29 25 -45 26 -49 4 -61 3 -71 -7 -5 -5 -12 -25 -13 -36 0 -8 -1 -10
-13 -17 l-8 -5 1 -16 c1 -17 4 -22 12 -22 7 0 45 -14 62 -23 33 -16 54 -34 77
-63 14 -17 21 -23 47 -37 10 -5 12 -7 21 -32 3 -8 6 -16 7 -18 14 -25 15 -29
6 -39 -4 -3 -7 -6 -8 -6 -5 0 -22 -20 -23 -27 -2 -10 1 -18 6 -23 8 -6 26 -11
35 -9 4 0 15 -1 27 -4 29 -6 42 -4 62 9 17 12 23 13 47 10 22 -2 25 -2 59 6
19 5 29 8 55 20 45 21 49 25 48 47 -1 8 -3 17 -5 21 -5 10 -3 29 4 35 7 7 24
7 36 1 17 -8 43 -5 46 6 1 1 2 3 3 4 2 1 10 20 16 34 10 24 11 30 9 54 -2 32
-2 35 4 51 11 29 11 29 11 74 0 42 0 43 -5 54 -5 10 -20 25 -26 25 -2 0 -9 11
-9 15 0 4 7 15 9 15 6 0 21 15 26 25 l5 11 0 59 -1 58 -6 10 c-3 6 -8 11 -15
14 -5 3 -18 10 -29 16 -50 27 -83 27 -95 -3 -1 -3 -5 -8 -9 -11 l-6 -5 -4 4
c-3 3 -4 6 -4 9 1 2 2 17 2 33 1 28 1 29 6 34 3 3 7 6 8 6 2 0 9 2 16 5 19 8
37 15 41 15 5 0 16 -6 20 -11 5 -7 15 -16 20 -18 12 -6 17 -7 21 -7 9 0 22 9
28 20 6 8 6 11 7 37 0 25 0 29 -4 37 -7 18 -25 32 -46 38 -30 7 -38 8 -54 3
-9 -3 -26 -17 -26 -21 0 -4 -13 -9 -23 -9 -19 0 -28 9 -28 28 0 15 4 20 19 28
8 4 16 9 19 12 2 3 5 4 6 4 0 -1 1 -1 1 0 0 1 1 11 1 22 1 17 2 21 7 28 10 18
12 22 12 32 0 13 -6 21 -24 33 -5 4 -11 10 -13 13 -3 7 -3 7 0 11 2 3 4 5 4 6
1 0 10 -1 22 -4 12 -2 26 -4 32 -5 23 -3 28 -23 13 -47 -13 -19 -13 -31 -3
-57 4 -10 8 -18 9 -19 1 -1 4 -5 7 -10 8 -12 27 -21 40 -19 8 1 11 2 19 11 5
5 10 10 11 10 1 0 4 2 6 4 4 3 9 4 31 9 11 2 23 10 27 18 3 7 4 12 4 33 0 24
0 24 5 29 6 5 23 8 30 5 7 -2 11 -7 17 -23 6 -16 12 -24 21 -27 9 -3 19 -4 21
-2 1 0 2 1 4 1 4 1 71 19 92 25 11 4 22 7 25 7 11 2 35 11 42 16 4 2 10 6 15
8 14 7 22 23 18 42 -1 6 -2 7 -12 9 -6 1 -17 2 -25 2 -22 -1 -22 -1 -28 6 -5
5 -6 7 -6 18 0 11 1 13 6 18 6 6 7 6 18 6 3 0 7 0 9 0 2 0 9 -5 15 -12 13 -12
25 -21 35 -23 6 -2 11 -5 18 -13 17 -20 24 -26 35 -28 15 -3 17 -2 64 12 56
18 59 20 64 44 l2 12 -9 13 c-4 7 -9 13 -10 13 -1 0 -7 3 -14 6 -7 3 -14 6
-17 6 -5 0 -17 11 -15 14 1 1 0 2 0 2 -1 0 -3 3 -5 7 -8 22 -37 35 -53 24 -4
-2 -6 -4 -7 -4 -1 1 -1 -7 0 -16 0 -15 1 -16 7 -22 7 -6 8 -7 8 -17 0 -9 -1
-11 -6 -16 -6 -6 -8 -6 -18 -7 -10 0 -12 1 -16 6 -3 3 -5 7 -5 10 -1 11 0 18
4 22 3 3 4 7 4 16 -1 15 -2 18 -12 21 -10 4 -20 3 -54 -1 -4 0 -21 -2 -39 -4
-18 -2 -34 -3 -36 -4 -2 0 -10 -1 -18 -2 -15 -2 -33 -7 -38 -12 -1 -2 -4 -3
-5 -3 -1 0 -2 -1 -2 -2 0 -2 -18 -10 -23 -10 -3 0 -10 2 -15 4 -12 5 -27 5
-34 1 -3 -1 -7 -7 -11 -13 -11 -22 -15 -25 -28 -19 -8 4 -34 6 -40 2 -3 -1 -7
-4 -11 -6 -14 -8 -37 -3 -42 8 -4 12 -4 16 0 34 4 15 5 27 6 76 1 57 1 58 6
65 2 4 8 9 12 11 9 4 28 24 28 28 0 2 1 3 2 3 6 0 8 24 5 52 -1 11 -1 13 3 17
7 8 20 7 27 -1 3 -4 5 -7 5 -8 0 -1 1 -3 3 -4 1 -2 3 -5 4 -7 3 -6 13 -11 23
-12 8 -1 12 0 31 9 24 11 31 17 37 29 4 9 5 12 7 31 2 13 7 20 18 22 12 3 22
0 32 -7 4 -3 12 -8 16 -9 16 -6 21 -5 54 10 34 17 102 51 139 71 72 38 80 41
115 48 10 2 12 3 20 6 10 3 29 13 34 17 10 9 19 18 21 22 3 5 2 23 -1 30 -3 7
-28 29 -35 31 -8 2 -23 -1 -32 -6 -10 -7 -24 -32 -24 -45 0 -6 -6 -14 -10 -14
-2 0 -5 2 -6 5 -4 4 -4 6 1 25 3 12 5 23 4 26 -3 11 -12 27 -19 34 -6 6 -27
16 -33 16 -1 0 -5 2 -8 6 -19 17 -26 19 -55 18 -5 0 -11 1 -15 3 -4 2 -10 3
-18 2 -15 -2 -21 -5 -29 -15 -8 -10 -19 -13 -32 -10 -11 2 -16 7 -18 17 -4 18
1 28 18 38 7 4 16 10 20 13 16 13 24 14 41 9 6 -2 15 -3 21 -3 15 0 19 4 20
22 0 6 -1 12 -2 12 -1 0 -2 2 -4 5 -1 2 -9 10 -16 16 -14 12 -17 15 -32 28
-15 14 -33 18 -47 12z m-83 -151 c7 -7 2 -19 -8 -19 -5 0 -12 5 -12 9 0 1 2 5
3 8 4 7 11 7 17 2z m-27 -85 c3 -3 3 -3 0 -6 -3 -3 -3 -3 -6 0 -3 2 -3 3 -1 6
4 4 4 4 7 0z m254 -35 c7 -7 8 -23 2 -30 -10 -11 -26 -12 -36 -2 -8 8 -8 24 0
32 9 9 24 9 34 0z m-298 -50 c11 -5 16 -27 8 -41 -5 -10 -31 -19 -58 -19 -18
-1 -24 5 -26 22 -1 6 -2 11 -2 12 -2 3 4 15 8 18 2 2 10 4 18 4 8 1 19 3 24 5
10 3 17 2 28 -1z m-411 -301 c3 -3 4 -7 4 -14 0 -13 -6 -19 -19 -19 -13 0 -19
6 -19 19 0 7 1 11 4 14 7 8 23 8 30 0z m136 -57 c8 -4 12 -12 12 -25 0 -10 -1
-12 -6 -17 -3 -3 -7 -6 -9 -6 -23 -2 -31 2 -34 16 -4 18 1 32 12 35 6 1 19 0
25 -3z m-68 -72 c5 -4 5 -6 0 -11 -5 -6 -8 -6 -13 0 -3 5 -3 5 0 10 5 6 7 6
13 1z m378 -65 c20 -9 20 -45 0 -54 -9 -3 -21 -3 -32 2 -12 6 -34 11 -45 11
-8 0 -14 8 -11 15 2 6 2 5 20 10 8 1 21 6 30 11 17 8 27 9 38 5z m-1023 -63
c7 -6 7 -19 1 -25 -6 -7 -19 -7 -25 -1 -7 6 -7 19 -1 25 6 7 19 7 25 1z m134
-70 c6 -5 6 -15 2 -25 -3 -8 -21 -17 -50 -26 -27 -8 -32 -8 -38 -1 -10 10 -11
35 -1 44 4 5 15 8 33 8 8 0 18 1 23 2 17 3 26 2 31 -2z m490 -1 c3 -5 3 -5 0
-10 -2 -3 -5 -5 -7 -5 -2 0 -5 2 -7 5 -3 5 -3 5 0 10 2 3 5 5 7 5 2 0 5 -2 7
-5z m-134 -6 c9 -3 13 -10 16 -24 2 -8 3 -17 2 -19 -1 -7 -11 -12 -25 -13 -20
-1 -30 5 -34 20 -2 10 0 23 6 30 7 7 24 11 35 6z m61 -69 c2 -5 2 -6 -1 -11
-4 -6 -9 -6 -16 0 -6 5 -6 8 -1 14 5 6 14 4 18 -3z m-515 -13 c6 -10 1 -23
-10 -23 -12 0 -17 14 -8 23 7 6 14 6 18 0z m622 -626 c3 -3 3 -3 0 -6 -3 -3
-3 -3 -6 0 -3 2 -3 3 -1 6 4 4 4 4 7 0z m-117 -42 c6 -6 10 -38 7 -57 -4 -18
-8 -22 -26 -22 -11 0 -14 1 -18 5 -6 4 -6 5 -6 22 0 20 6 42 13 52 6 8 22 8
30 0z m78 -91 c8 -8 2 -19 -9 -19 -5 0 -11 6 -11 11 0 10 13 15 20 8z"/>
<path d="M265 3629 c-13 -4 -19 -13 -22 -28 -1 -6 1 -13 8 -35 12 -35 17 -44
33 -51 11 -6 12 -6 43 -6 31 0 32 0 43 6 6 3 12 7 14 8 7 7 18 13 25 13 8 0
13 -3 27 -14 16 -13 23 -14 85 -14 62 0 63 0 89 14 17 9 30 8 50 -2 24 -13 22
-12 129 -12 98 1 98 1 105 6 7 4 13 14 15 22 0 2 1 4 1 5 2 3 1 5 -6 21 -4 8
-9 18 -10 22 -5 14 -14 33 -18 37 -1 2 -7 5 -11 7 -8 4 -16 4 -142 4 l-134 0
-10 -5 c-13 -6 -20 -15 -27 -38 -4 -11 -11 -16 -26 -16 -15 0 -22 5 -26 16 -7
23 -14 32 -27 38 l-10 5 -96 0 c-68 0 -98 -1 -102 -3z m446 -58 c5 -8 1 -16
-8 -16 -9 0 -13 8 -8 16 2 3 5 5 8 5 3 0 6 -2 8 -5z"/>
<path d="M1897 3081 c-10 -4 -13 -6 -17 -17 -4 -9 -4 -33 -1 -39 2 -1 3 -4 4
-6 2 -5 16 -11 25 -10 16 2 32 18 35 35 3 13 -9 28 -30 37 -4 2 -8 3 -8 3 0 0
-3 -1 -8 -3z"/>
<path d="M1740 3059 c-1 -3 0 -20 2 -21 1 0 1 -1 1 -3 -1 -1 0 -1 2 1 3 2 3 2
3 -1 0 -2 1 -3 1 -1 1 1 5 2 12 2 7 0 11 -1 12 -2 0 -2 1 3 1 11 l0 15 -16 0
c-9 1 -17 0 -18 -1z"/>
<path d="M1805 3020 c-12 -5 -13 -7 -13 -23 0 -10 0 -11 7 -14 4 -2 11 -4 15
-4 8 -2 26 2 26 5 0 0 0 2 0 3 2 11 1 28 -2 32 -5 5 -21 6 -33 1z"/>
<path d="M451 2235 c0 -1 -3 -1 -7 -2 -14 -1 -17 -4 -17 -14 1 -17 11 -29 31
-35 16 -5 27 -6 40 -4 17 3 18 3 18 18 l0 9 -15 9 c-8 4 -15 8 -15 8 -1 0 -7
2 -13 5 -11 5 -20 7 -22 6z"/>
</g>
</svg>
