<?xml version="1.0" standalone="no"?>
<!DOCTYPE svg PUBLIC "-//W3C//DTD SVG 20010904//EN"
 "http://www.w3.org/TR/2001/REC-SVG-20010904/DTD/svg10.dtd">
<svg version="1.0" xmlns="http://www.w3.org/2000/svg"
 width="1100.000000pt" height="2850.000000pt" viewBox="0 0 1100.000000 2850.000000"
 preserveAspectRatio="xMidYMid meet">
<metadata>
Created by potrace 1.15, written by Peter Selinger 2001-2017
</metadata>
<g transform="translate(0.000000,2850.000000) scale(0.500000,-0.500000)"
fill="#000000" stroke="none">
<path d="M263 3831 c-22 -8 -26 -16 -27 -59 0 -33 0 -34 5 -44 6 -12 9 -15 25
-25 12 -9 14 -12 14 -24 0 -12 -2 -15 -14 -24 -6 -3 -13 -8 -15 -10 -6 -6 -15
-23 -15 -30 0 -14 11 -35 19 -35 1 0 3 -1 3 -2 0 -1 3 -3 6 -4 12 -5 12 -21 0
-26 -3 -1 -6 -3 -6 -4 0 -1 -2 -2 -3 -2 -8 0 -19 -21 -19 -34 0 -12 11 -34 19
-38 6 -3 13 -16 11 -20 -4 -7 -8 -26 -8 -36 1 -9 3 -14 12 -28 7 -10 14 -20
17 -22 7 -6 8 -9 19 -30 5 -8 10 -17 12 -20 6 -7 9 -12 12 -18 1 -3 3 -7 4 -9
1 -2 2 -6 3 -9 1 -3 6 -11 13 -18 7 -7 12 -13 12 -15 0 -4 -8 -11 -12 -11 -3
0 -9 -2 -13 -3 -4 -2 -9 -3 -10 -4 -6 -2 -13 -6 -19 -11 -9 -8 -15 -10 -26
-11 -15 -1 -28 -5 -34 -10 -2 -3 -5 -5 -6 -5 -4 0 -6 -19 -5 -50 0 -30 1 -35
7 -56 8 -29 8 -35 -1 -69 -8 -32 -8 -39 -4 -54 4 -13 17 -27 32 -35 5 -2 10
-7 12 -10 2 -3 5 -6 6 -6 30 -2 35 0 43 14 3 5 5 8 6 8 2 0 18 17 25 26 8 11
16 15 27 15 17 0 24 -8 28 -35 1 -6 6 -18 10 -28 9 -20 12 -32 10 -42 -3 -11
-4 -14 -11 -17 -10 -5 -22 -4 -44 4 -11 4 -26 8 -34 10 -9 2 -15 4 -17 7 -9
11 -11 14 -15 16 -3 1 -10 2 -16 2 -11 0 -12 -1 -18 -7 -14 -16 -40 -13 -49 5
-13 26 -30 33 -61 25 -38 -9 -48 -11 -52 -12 -27 -5 -82 -18 -89 -20 -17 -7
-25 -15 -27 -30 -2 -11 -3 -8 18 -77 11 -35 21 -69 23 -77 4 -14 10 -25 14
-31 5 -5 20 -10 36 -11 l15 -2 13 -12 c11 -11 16 -15 44 -28 5 -2 5 -2 12 -17
7 -15 8 -22 6 -26 -1 -2 -3 -4 -4 -4 -1 0 -4 -1 -7 -2 -3 -1 -6 -2 -7 -2 0 1
-1 0 -2 -1 0 -1 -4 -4 -8 -7 -4 -3 -7 -6 -7 -6 1 -1 0 -2 -1 -2 -2 0 -2 -1 -1
-2 2 -1 3 -18 1 -18 -1 0 -2 -1 -1 -2 0 -1 5 -1 11 0 6 0 10 0 10 -2 0 -7 6 4
9 18 0 1 1 4 3 7 1 3 2 6 2 8 -1 3 4 11 6 10 1 -1 2 0 2 1 0 1 7 3 14 6 17 5
23 9 39 24 16 15 36 24 40 18 1 -1 3 -2 5 -2 6 0 11 -10 11 -20 0 -12 -8 -21
-18 -23 -8 -1 -15 -3 -28 -9 -13 -7 -17 -17 -19 -47 0 -23 0 -25 5 -36 5 -10
13 -18 26 -26 19 -11 19 -35 0 -46 -13 -8 -21 -16 -26 -26 -5 -11 -5 -11 -5
-63 l0 -51 -6 -6 -6 -5 -31 2 c-34 1 -53 1 -61 -1 -9 -2 -22 -11 -28 -20 -4
-5 -9 -11 -12 -12 -8 -4 -23 -4 -30 0 -5 3 -14 15 -14 19 0 1 -1 2 -2 1 -1 0
-9 -1 -18 -1 -11 0 -17 -1 -18 -3 -3 -25 -1 -39 7 -53 6 -10 18 -16 44 -24 66
-20 86 -39 108 -105 5 -14 10 -26 15 -33 21 -29 22 -32 16 -49 -6 -18 -6 -36
1 -49 2 -3 3 -9 4 -13 1 -15 9 -25 19 -25 12 -1 20 1 27 4 11 6 23 6 41 -1 21
-7 32 -8 51 -3 58 15 108 40 141 71 9 8 10 9 10 20 1 15 -2 22 -12 31 -11 11
-13 23 -8 41 2 7 4 15 3 17 0 1 -1 6 -2 11 -1 10 -3 12 -18 24 -6 5 -11 11
-11 13 0 2 -1 4 -2 5 -3 2 -4 11 -1 15 1 2 3 5 3 8 2 13 27 17 43 8 10 -6 27
-17 33 -21 5 -4 22 -4 24 -1 0 1 1 3 3 5 2 2 3 15 1 15 -1 0 -2 4 -2 12 -1 1
-1 2 -2 1 0 0 -3 4 -7 11 -5 9 -6 14 -6 26 -1 17 -2 27 -6 47 -5 23 -3 32 11
38 9 4 21 15 25 23 6 10 7 241 2 253 -2 4 -5 7 -6 7 -2 0 -3 1 -3 2 -1 3 -27
10 -31 7 -7 -3 -40 6 -48 14 -5 4 -9 24 -10 50 -2 20 -1 21 3 26 9 10 39 5 52
-8 3 -3 6 -7 6 -9 0 -2 1 -2 1 -1 1 1 8 2 17 2 15 0 17 0 19 4 3 6 4 81 1 91
-4 13 -20 24 -38 27 -4 1 -8 2 -10 3 -8 4 -26 1 -34 -6 -6 -6 -18 -12 -24 -12
-12 0 -19 17 -10 25 4 3 8 4 21 4 21 0 23 1 37 16 8 9 17 13 28 13 4 0 8 1 10
3 2 2 2 1 1 -1 -1 -2 -1 -2 2 0 3 1 5 1 6 0 1 0 1 0 1 1 -1 1 -1 7 0 14 1 11
-1 13 -3 2 0 -3 0 -2 0 2 0 8 -1 10 -7 17 -4 5 -8 10 -8 11 0 0 -3 8 -7 16 -9
19 -12 33 -9 43 2 7 18 29 30 41 5 5 15 23 13 23 -1 0 0 1 1 3 2 2 2 28 2 114
0 62 0 112 -1 113 0 0 3 4 6 7 l6 6 81 0 c88 0 92 0 110 12 8 6 24 29 28 41 1
6 1 18 0 20 -1 0 -1 4 -2 7 0 2 -2 5 -4 7 -24 21 -24 21 -24 29 0 11 6 17 16
17 8 0 13 -4 23 -18 4 -7 10 -13 13 -15 2 -2 5 -5 7 -6 19 -16 49 -27 57 -22
6 4 5 27 0 37 -9 15 -13 47 -6 55 9 11 20 1 30 -26 7 -20 16 -27 34 -27 9 1
13 2 16 5 5 6 22 21 23 21 1 0 -1 -8 -5 -16 0 -2 -1 -3 -1 -4 0 -1 -1 -4 -3
-7 -1 -3 -2 -6 -2 -7 0 0 -7 -14 -15 -31 -20 -39 -22 -53 -11 -65 2 -3 3 -3
10 -1 4 2 10 3 16 2 16 -2 67 -15 71 -18 4 -3 3 -5 -10 -15 -3 -2 -17 -5 -36
-7 -5 -1 -10 -2 -11 -2 -4 -2 -20 -1 -24 1 -2 1 -6 6 -8 10 -7 13 -13 18 -20
18 l-7 -1 7 -1 c6 -2 6 -2 -3 -1 -15 1 -18 -1 -26 -16 -4 -8 -13 -24 -20 -36
-12 -21 -13 -23 -13 -33 1 -21 11 -29 38 -28 34 0 38 -4 38 -35 0 -12 0 -25 1
-28 1 -7 -3 -14 -9 -16 -8 -2 -23 5 -37 17 -6 6 -15 13 -18 15 -3 2 -8 6 -11
10 -4 3 -7 5 -8 5 0 0 -7 0 -15 1 -17 0 -19 -2 -26 -15 -9 -18 -14 -19 -38 -8
-22 10 -24 10 -75 -4 -47 -13 -60 -18 -68 -27 -5 -6 -18 -31 -18 -34 0 -1 -5
-7 -10 -13 -8 -8 -24 -35 -25 -42 0 -1 -1 -2 -1 -3 -7 -10 -8 -37 -3 -53 2 -6
4 -15 4 -21 0 -8 1 -11 4 -12 2 -2 4 -2 5 -2 1 0 7 1 14 2 13 1 17 3 28 11 6
5 31 15 38 16 13 2 14 1 14 -13 1 -10 0 -13 -2 -13 -2 0 3 -2 10 -3 18 -3 21
-7 21 -26 -1 -30 -1 -34 3 -41 1 -4 6 -9 10 -12 7 -4 8 -4 30 -3 27 1 32 3 47
17 12 13 18 16 26 16 8 0 14 -3 26 -16 17 -16 18 -17 72 -18 l49 -1 5 -5 c3
-4 4 -6 3 -6 -2 0 -5 -11 -9 -34 -3 -19 -7 -29 -15 -40 -7 -9 -13 -22 -29 -57
-14 -34 -15 -41 -4 -64 4 -8 7 -16 7 -18 0 -5 -6 -13 -11 -13 -3 0 -22 -5 -29
-8 -6 -2 -18 -13 -18 -15 0 -2 -16 -34 -18 -35 -1 -1 -5 -9 -10 -18 -15 -27
-20 -37 -24 -42 -2 -3 -4 -6 -4 -7 0 -1 -3 -6 -7 -12 -12 -19 -13 -21 -13 -29
0 -12 5 -21 16 -32 11 -10 13 -19 6 -26 -5 -5 -15 -5 -20 -1 -4 4 -30 6 -39 4
-3 -1 -11 -9 -26 -31 -21 -29 -21 -30 -21 -41 0 -6 1 -11 2 -12 1 -1 2 -2 1
-3 -2 -3 15 -10 28 -13 16 -3 21 -8 21 -18 0 -8 -13 -40 -27 -70 -5 -10 -9
-20 -9 -22 0 -2 -2 -6 -4 -9 l-4 -6 7 -2 c12 -4 33 -2 41 4 4 3 16 11 28 19
12 8 21 14 22 15 1 1 5 3 9 6 7 4 83 61 92 68 2 2 10 9 18 15 51 42 105 92
155 145 12 11 13 12 23 13 8 1 12 0 25 -5 20 -9 24 -13 24 -22 0 -9 -3 -12
-21 -21 -25 -11 -30 -22 -29 -56 1 -28 5 -36 26 -50 27 -18 38 -33 39 -51 0
-14 -4 -21 -17 -29 -17 -10 -21 -17 -32 -52 -1 -4 -5 -14 -9 -21 l-6 -13 -1
-70 c0 -60 0 -71 3 -78 8 -20 21 -25 46 -17 15 4 19 4 36 -1 13 -4 17 -5 25
-6 11 -2 49 4 75 13 10 3 17 8 37 31 l8 10 26 0 c28 0 31 1 44 9 12 7 20 20
26 36 4 12 4 15 3 104 0 50 0 98 -1 106 0 8 1 19 1 23 1 9 -2 23 -8 35 -12 24
-12 35 -1 57 8 15 9 19 10 87 l1 67 6 10 c3 5 5 8 5 7 0 -6 22 -14 36 -14 12
0 15 -6 18 -27 1 -10 4 -22 5 -27 5 -15 3 -29 -5 -45 -2 -2 -3 -9 -3 -16 l-1
-12 22 -44 c12 -24 23 -45 25 -47 1 -2 4 -7 7 -12 2 -5 6 -10 7 -12 2 -2 3 -4
3 -5 0 -8 84 -122 106 -143 2 -2 6 -7 10 -12 l7 -8 14 0 c11 0 15 1 17 3 2 2
6 6 11 8 7 5 7 5 11 2 3 -3 4 -7 4 -23 0 -10 0 -19 0 -19 0 -1 1 -2 1 -3 0 -4
4 -5 19 -4 17 0 24 3 24 8 0 16 29 85 45 108 7 11 8 28 1 40 -10 16 -12 22
-12 29 0 11 10 19 21 17 4 -1 26 5 32 8 3 1 9 5 13 8 8 7 23 12 33 12 8 0 19
-5 19 -8 0 -3 12 -6 20 -6 3 1 6 1 5 2 0 0 2 2 4 5 4 4 5 7 5 19 0 8 -1 14 -2
13 -1 -1 -2 0 -2 1 -1 2 -9 2 -28 1 -8 0 -9 1 -13 7 -5 7 -8 16 -10 28 -1 11
-5 15 -13 17 -10 1 -22 0 -27 -4 -3 -2 -8 -3 -13 -3 -14 0 -20 12 -13 31 3 10
3 26 -1 34 -3 5 -11 12 -49 37 -10 7 -31 3 -40 -6 -3 -2 -5 -4 -6 -4 -1 0 -3
-1 -5 -3 -6 -6 -23 -5 -30 2 -7 6 -10 22 -6 30 3 5 4 23 2 22 -1 -1 -2 0 -3 1
-1 2 -4 3 -8 3 -4 1 -7 0 -6 -1 1 -1 0 -1 -2 -1 -2 1 -5 0 -9 -2 -9 -7 -25
-12 -33 -12 -16 1 -23 7 -27 20 -3 14 0 24 13 38 7 6 11 12 11 15 1 13 0 25
-1 26 -4 4 -26 7 -34 6 -4 -1 -13 -3 -19 -3 -11 -1 -12 -1 -17 4 -6 6 -7 17
-1 33 7 20 4 36 -9 51 -7 8 -17 20 -21 26 -2 2 -7 10 -11 16 -4 7 -9 12 -9 13
-1 1 -7 10 -15 22 -7 11 -14 20 -15 20 -4 0 -13 10 -16 18 -5 11 -5 13 0 17 3
3 17 4 146 3 l143 0 22 8 c27 10 34 10 57 1 24 -9 39 -9 60 1 35 17 51 45 40
69 -4 9 -12 18 -41 45 -23 21 -60 54 -69 61 -4 3 -7 6 -8 7 -1 2 -15 14 -29
25 -5 4 -11 9 -12 10 -1 1 -6 5 -11 10 -6 4 -11 8 -12 10 -7 6 -19 13 -34 21
-21 10 -23 11 -28 23 -11 23 -4 47 17 56 15 7 22 7 29 -3 l5 -8 16 0 c18 0 21
2 25 18 2 9 4 14 16 37 5 8 5 25 1 30 -6 8 -11 25 -12 38 -1 17 -9 34 -17 37
-3 1 -9 2 -13 1 -5 0 -9 -1 -11 -1 -2 0 -6 -2 -8 -5 -21 -22 -26 -25 -44 -25
-12 0 -18 6 -18 16 0 9 7 16 16 16 4 0 11 1 15 2 4 2 10 3 13 3 3 0 6 1 6 1 1
0 3 2 4 5 2 2 5 8 8 12 13 18 9 40 -10 61 -12 13 -12 13 -11 23 0 8 2 10 11
20 6 6 14 14 18 19 4 5 16 14 26 21 27 18 43 32 48 42 4 8 10 32 9 37 -1 6 6
9 20 9 18 0 25 2 40 9 9 4 16 6 27 7 16 1 31 6 36 12 4 4 5 21 2 30 -2 5 -12
17 -39 42 -55 53 -51 50 -64 54 -14 4 -57 5 -83 2 -17 -1 -18 -1 -23 4 -4 4
-5 7 -5 14 0 13 3 17 16 23 13 6 16 12 16 28 l0 13 -19 18 c-11 11 -22 20 -25
22 -7 3 -22 4 -29 1 -8 -4 -44 -38 -50 -47 -5 -9 -6 -30 0 -38 8 -11 11 -16
12 -23 2 -7 2 -9 1 -18 0 -2 -7 -10 -15 -19 -8 -8 -14 -16 -14 -17 1 -1 0 -2
-1 -2 -2 -1 -3 -8 -4 -18 -2 -19 -6 -25 -18 -27 -13 -3 -17 11 -9 31 2 4 4 11
4 16 1 13 -4 16 -26 15 -17 0 -22 2 -34 13 -13 12 -28 16 -59 16 -39 0 -49 -5
-57 -31 -2 -7 -8 -20 -12 -31 -5 -10 -9 -21 -10 -25 0 -7 3 -15 5 -15 1 0 2
-1 2 -3 0 -4 8 -10 18 -15 8 -4 13 -4 70 -4 l60 0 8 -5 c4 -4 8 -8 9 -10 0 -2
3 -11 7 -19 7 -16 7 -21 3 -31 -6 -13 -3 -34 5 -47 11 -19 6 -34 -11 -34 -9 0
-17 6 -17 13 0 5 -7 24 -11 32 -3 6 -12 15 -15 15 -1 0 -4 1 -7 3 -3 2 -5 3
-5 2 0 -1 -1 -1 -2 0 -3 2 -7 4 -44 16 -39 12 -119 31 -159 36 -5 1 -13 2 -19
3 -26 5 -47 1 -66 -12 -11 -8 -15 -14 -17 -26 -2 -12 -7 -28 -9 -28 -3 0 -18
-15 -18 -17 0 -2 -3 -6 -6 -9 -10 -10 -17 -6 -29 13 -8 14 -22 28 -32 32 -9 4
-26 2 -33 -3 -15 -12 -21 -15 -33 -15 -9 0 -12 1 -17 5 -9 7 -18 11 -28 9 -15
-1 -19 -4 -25 -18 -3 -6 -7 -16 -10 -21 -5 -13 -17 -30 -19 -29 -1 1 -2 2 -1
3 1 1 2 6 2 11 1 6 2 11 2 11 3 5 9 60 9 85 0 30 4 58 12 68 5 9 -5 40 -18 56
-2 2 -5 8 -7 13 -3 5 -7 14 -11 21 -3 7 -7 16 -8 20 -4 14 -14 32 -21 40 -9
10 -14 20 -16 29 0 4 -3 13 -7 20 -5 12 -7 14 -16 19 -13 6 -22 6 -35 1 -19
-8 -31 -28 -27 -45 2 -9 10 -21 18 -27 4 -3 9 -8 12 -11 12 -11 5 -29 -10 -29
-15 0 -36 -7 -43 -15 -2 -2 -6 -9 -9 -16 -4 -7 -10 -16 -14 -22 -6 -9 -7 -11
-7 -21 0 -14 4 -20 17 -27 14 -8 18 -13 18 -26 0 -16 -7 -23 -23 -23 -14 0
-19 4 -25 19 -7 19 -11 24 -25 24 -8 1 -14 0 -17 -2 -15 -10 -33 -33 -49 -65
-9 -17 -9 -19 -8 -29 1 -9 3 -14 7 -19 3 -4 7 -10 9 -14 4 -7 4 -8 0 -13 -2
-3 -5 -5 -7 -5 -6 0 -17 7 -21 14 -2 4 -15 18 -29 32 l-24 25 -13 0 c-16 0
-22 -3 -28 -14 -2 -4 -5 -7 -5 -7 -1 0 -2 -2 -2 -5 0 -4 -1 -5 -1 -2 -1 1 -2
3 -3 3 -1 0 -3 3 -5 7 -5 10 -5 178 0 188 2 4 4 7 5 7 1 0 2 1 2 3 0 1 2 3 4
4 8 3 14 17 15 33 2 34 2 51 -2 57 -10 21 -45 31 -66 20 -5 -4 -16 -19 -14
-21 0 0 0 -3 -2 -6 -2 -3 -2 -6 -2 -7 2 -1 -3 -18 -7 -22 -7 -8 -23 -10 -38
-5 -17 7 -32 4 -50 -7 -7 -5 -13 -6 -27 -5 -2 0 -6 3 -9 6 -5 5 -6 7 -6 18 0
11 1 13 6 18 3 3 7 6 9 6 2 0 6 1 8 1 2 0 8 -1 13 -3 9 -2 32 0 35 3 2 1 2 25
1 25 -1 0 -2 1 -2 3 0 4 -17 13 -27 14 -5 0 -18 1 -27 2 -9 1 -18 2 -20 2 -2
0 -10 1 -19 2 -9 1 -29 3 -45 4 -35 4 -33 4 -43 0z m120 -169 c16 -7 17 -22 3
-37 -6 -5 -22 -11 -30 -11 -13 0 -14 0 -20 6 -5 5 -6 7 -6 18 0 13 4 21 15 24
9 2 32 2 38 0z m108 -22 c7 -7 8 -22 2 -30 -7 -11 -31 -15 -40 -6 -6 6 -7 21
-1 31 8 14 28 16 39 5z m390 -1 c3 -3 3 -3 0 -6 -3 -3 -3 -3 -6 0 -3 2 -3 3
-1 6 4 4 4 4 7 0z m52 -84 c7 -4 17 -18 20 -31 l4 -11 -8 -14 c-7 -14 -12 -38
-9 -44 3 -3 2 -14 -1 -18 -6 -8 -33 -7 -43 2 -3 3 -6 5 -7 5 -1 0 -4 2 -7 5
-7 7 -8 24 -2 41 2 7 5 22 6 33 1 10 3 22 5 25 6 11 26 14 42 7z m838 -4 c12
-12 3 -31 -13 -31 -11 0 -18 7 -18 18 0 11 7 18 18 18 6 0 9 -1 13 -5z m-1388
-34 c0 -2 2 -3 4 -3 1 0 4 -2 5 -3 1 -3 0 -4 -5 -7 -9 -5 -11 -5 -16 1 -3 5
-3 5 0 10 4 5 10 7 12 2z m81 -10 c20 -9 20 -45 0 -54 -7 -2 -20 -3 -26 0 -6
2 -14 9 -14 12 0 1 -3 8 -6 15 l-6 13 5 4 c14 10 35 15 47 10z m-98 -45 c0 -1
1 -2 3 -2 2 0 3 -1 2 -2 -1 -1 1 -2 2 -3 3 -1 7 -8 12 -20 7 -18 15 -28 20
-27 0 1 2 0 3 -2 1 -1 8 -3 19 -3 22 -2 27 -5 27 -18 0 -19 -21 -23 -38 -8 -1
2 -6 5 -10 7 -4 3 -8 5 -8 6 0 1 -3 2 -6 3 -21 4 -33 10 -44 21 -12 12 -13 13
-12 28 0 9 8 17 18 19 9 3 12 3 12 1z m198 -72 c10 -12 2 -30 -13 -30 -15 0
-23 16 -13 29 4 7 21 7 26 1z m1134 -24 c9 -6 11 -14 8 -27 -3 -15 -9 -19 -25
-19 -11 0 -14 1 -18 5 -6 4 -6 6 -6 20 0 14 0 16 6 20 7 7 28 7 35 1z m-342
-27 c4 -2 10 -6 13 -10 4 -3 9 -7 12 -9 22 -11 35 -23 52 -48 13 -20 17 -22
33 -24 10 0 17 0 25 3 20 6 44 0 49 -13 2 -5 3 -5 17 -6 l15 0 11 11 c10 11
11 12 21 12 13 0 21 -7 23 -20 0 -4 2 -10 3 -13 1 -3 1 -7 1 -10 0 -3 3 -7 11
-14 18 -15 20 -18 20 -27 0 -11 -6 -17 -17 -17 -8 0 -17 6 -17 11 0 2 -1 6 -3
9 -2 3 -3 8 -4 11 -1 6 -7 12 -22 22 -6 4 -12 9 -14 12 -4 5 -5 5 -17 5 -8 0
-14 -1 -14 -2 0 -1 -1 -2 -2 -1 -2 0 -6 -4 -9 -10 -4 -5 -11 -12 -15 -15 -9
-6 -19 -17 -19 -22 0 -11 -1 -14 -8 -21 -5 -4 -10 -7 -13 -7 -9 0 -16 -8 -21
-24 -2 -9 -2 -10 2 -16 8 -14 11 -16 25 -16 12 1 13 1 18 8 7 9 20 13 27 9 2
-2 5 -3 6 -3 1 0 6 -1 10 -2 7 -2 58 -3 83 -2 19 1 26 -6 27 -25 0 -7 -2 -13
-5 -20 -4 -8 -5 -13 -5 -27 0 -12 1 -19 3 -20 3 -4 3 -21 -1 -25 -2 -3 -12 -8
-22 -12 -20 -9 -31 -18 -44 -38 -32 -46 -31 -45 -73 -47 -39 -2 -42 -3 -51
-27 -2 -5 -3 -13 -3 -18 0 -10 -7 -17 -18 -17 -16 0 -23 16 -14 31 3 6 6 10
19 27 5 5 5 6 4 44 0 42 -1 46 -13 57 -5 5 -23 15 -28 16 -4 1 -10 7 -10 11 0
2 -1 5 -3 8 -2 4 -1 8 5 27 7 21 8 23 7 39 -2 22 -2 26 -1 34 2 7 -2 23 -6 30
-5 8 -17 12 -45 14 -14 1 -30 3 -34 3 -7 1 -20 2 -41 4 -8 1 -14 1 -47 4 -27
2 -50 11 -49 18 0 7 -5 17 -11 19 -3 2 -5 4 -5 5 0 1 -2 7 -5 12 -7 14 -7 20
1 24 12 6 36 2 39 -7 1 -2 4 -6 8 -10 7 -7 8 -7 23 -7 10 0 17 1 18 2 1 3 20
24 30 35 12 13 17 24 23 52 3 16 7 21 17 25 7 3 20 2 28 -2z m-225 -57 c13
-15 13 -32 1 -36 -2 -1 -6 -6 -9 -10 -9 -13 -15 -17 -27 -17 -11 0 -30 6 -36
11 -3 2 -4 3 -1 8 2 3 2 6 2 7 -1 0 -1 1 0 1 2 0 3 2 4 4 0 1 2 4 3 6 1 2 2 5
3 7 3 6 17 15 30 19 16 5 25 5 30 0z m-620 -63 c6 -4 6 -6 6 -20 0 -14 0 -16
-6 -20 -4 -4 -7 -5 -18 -5 -11 0 -14 1 -18 5 -6 4 -6 6 -6 20 0 14 0 16 6 20
4 4 7 5 18 5 11 0 14 -1 18 -5z m653 -57 c6 -5 5 -10 -2 -16 -7 -5 -11 -4 -16
4 -2 5 -2 6 1 11 4 6 10 6 17 1z m-747 -16 c10 -6 14 -30 6 -41 -8 -12 -28
-14 -44 -3 -23 14 -30 15 -51 5 -20 -10 -30 -11 -37 -5 -6 6 -7 17 -1 25 2 3
10 8 18 11 l13 7 29 -1 c21 0 31 1 38 3 9 3 22 2 29 -1z m919 -41 l-5 -5 -4 4
-5 5 4 4 5 5 4 -4 5 -5 -4 -4z m-269 -6 c5 -2 7 -4 6 -4 -1 -1 -2 -3 -1 -6 l0
-5 19 1 c15 1 19 2 24 6 5 5 6 5 13 5 7 0 7 0 10 -5 2 -5 0 -15 -8 -36 -4 -11
-4 -15 -4 -84 0 -68 0 -73 -4 -84 -6 -17 -10 -39 -7 -43 1 -1 9 -9 17 -17 8
-8 17 -19 20 -25 7 -11 13 -16 29 -28 15 -10 17 -12 17 -27 0 -10 -1 -12 -6
-17 -3 -3 -7 -6 -9 -6 -21 -1 -29 2 -36 17 -4 6 -7 11 -7 11 -1 0 -2 1 -2 3 0
1 -5 6 -10 12 -14 14 -24 14 -55 5 -8 -2 -9 -2 -13 2 -2 3 -3 7 -3 10 1 3 2 5
2 6 0 1 -1 6 -2 13 -2 15 -9 23 -26 29 -15 5 -16 6 -21 18 -3 6 -5 10 -6 10
-1 0 -2 1 -2 3 0 3 -10 13 -18 18 -5 3 -12 4 -28 5 -20 0 -22 0 -34 -5 -7 -3
-15 -9 -19 -13 -17 -19 -31 -19 -52 1 -9 9 -11 12 -8 22 0 2 1 5 1 6 0 0 1 1
3 1 1 0 12 6 23 14 12 7 24 15 28 17 8 5 9 6 29 19 25 15 30 22 34 45 0 4 -1
9 -3 14 -2 5 -3 8 -2 9 1 0 2 1 1 2 -1 1 1 3 4 5 5 4 6 4 18 0 19 -7 35 -4 50
9 7 5 15 11 20 13 4 2 8 6 9 9 3 7 2 28 -2 35 -2 6 -2 7 0 10 3 4 2 4 11 0z
m154 -52 c5 -4 5 -6 5 -23 0 -16 1 -18 5 -23 4 -5 5 -6 17 -5 7 0 14 1 16 3 2
1 10 2 26 2 18 0 24 1 29 4 7 3 17 15 17 19 0 3 10 12 14 12 5 0 14 -14 14
-20 0 -6 -6 -24 -11 -33 -7 -14 -24 -36 -30 -40 -9 -6 -25 0 -49 16 -14 9 -29
8 -49 -4 -16 -9 -28 -10 -36 -2 -5 5 -5 6 -4 20 1 8 2 27 2 43 0 27 0 28 5 32
7 6 23 5 29 -1z m-498 -145 l7 -6 -8 -4 c-10 -5 -19 -5 -26 1 -4 3 -5 5 -4 5
1 0 6 2 10 5 9 6 13 6 21 -1z m1000 -3 c3 -5 3 -5 0 -10 -2 -3 -5 -5 -7 -5 -2
0 -5 2 -7 5 -3 5 -3 5 0 10 2 3 5 5 7 5 2 0 5 -2 7 -5z m66 -66 c3 -3 3 -3 0
-6 -3 -3 -3 -3 -6 0 -3 2 -3 3 -1 6 4 4 4 4 7 0z m-1674 -94 c3 -5 3 -5 0 -10
-2 -3 -5 -5 -7 -5 -2 0 -5 2 -7 5 -3 5 -3 5 0 10 2 3 5 5 7 5 2 0 5 -2 7 -5z
m1258 -9 c11 -10 3 -28 -11 -28 -9 0 -16 6 -16 16 0 14 17 22 27 12z m-1011
-5 c12 -5 18 -21 14 -35 -4 -14 -10 -19 -25 -21 -3 -1 -14 -4 -24 -6 -10 -3
-19 -6 -20 -6 -1 0 -4 -1 -6 -2 -5 -1 -17 3 -21 8 -1 1 -2 7 -2 12 0 11 4 16
18 24 5 3 14 9 20 14 18 14 32 17 46 12z m1114 -15 c4 -3 5 -7 6 -17 0 -12 0
-13 -6 -19 -5 -5 -7 -6 -16 -6 -23 0 -34 14 -27 36 3 10 34 14 43 6z m-364
-26 c2 0 10 -6 17 -14 11 -10 18 -15 32 -22 19 -9 21 -12 21 -26 0 -12 -4 -18
-14 -20 -12 -2 -20 1 -32 13 -13 14 -24 20 -37 22 -13 2 -17 7 -17 26 -1 14 9
23 23 22 2 0 5 -1 7 -1z m139 -9 c3 -5 3 -5 0 -10 -2 -3 -5 -5 -7 -5 -2 0 -5
2 -7 5 -3 5 -3 5 0 10 2 3 5 5 7 5 2 0 5 -2 7 -5z m85 -61 c5 -5 5 -15 0 -20
-9 -9 -24 -2 -24 10 0 8 6 14 14 14 3 0 8 -2 10 -4z m-265 -4 c2 -2 4 -6 4 -8
1 -3 6 -15 13 -27 13 -26 15 -35 8 -42 -10 -11 -26 -5 -39 14 -3 5 -8 11 -11
14 -11 12 -15 19 -15 29 0 11 7 21 16 23 11 2 20 1 24 -3z m460 -18 c6 -6 7
-22 1 -28 -11 -11 -28 1 -27 18 1 15 15 20 26 10z m-1080 -39 c13 -6 16 -34 5
-46 -2 -2 -7 -6 -12 -9 -5 -2 -9 -5 -10 -6 -1 -1 -4 -3 -8 -6 -7 -4 -7 -5 -8
-17 0 -14 5 -22 20 -30 5 -2 10 -6 12 -8 6 -6 8 -20 6 -28 -1 -6 -1 -12 1 -22
3 -14 4 -16 18 -30 7 -7 8 -10 7 -23 0 -17 -25 -26 -38 -13 -5 6 -6 8 -7 23
-2 34 -14 46 -53 51 -22 3 -27 4 -31 8 -6 5 -10 18 -8 27 1 3 4 11 7 17 8 16
10 27 10 44 0 17 4 24 14 31 10 6 20 15 30 27 12 14 30 18 45 10z m739 -26
c40 -8 50 -29 21 -41 -14 -5 -27 -7 -42 -6 -2 0 -6 3 -9 6 -5 5 -6 7 -6 17 0
21 12 29 36 24z m191 -8 c7 -4 10 -11 10 -23 0 -19 -8 -27 -27 -27 -21 0 -30
11 -27 31 2 12 7 20 17 22 9 2 22 1 27 -3z m-430 -54 c12 -7 14 -33 3 -43 -8
-9 -32 -9 -40 0 -14 13 -6 44 12 47 8 1 20 -1 25 -4z m349 -8 c7 -4 7 -6 2
-14 -6 -11 -29 -23 -43 -23 -14 0 -21 21 -9 30 12 9 40 13 50 7z m-231 -47 c7
-6 7 -19 1 -25 -7 -7 -20 -7 -26 0 -5 7 -5 18 0 24 6 7 19 7 25 1z m-70 -46
c4 -6 4 -24 -1 -30 -7 -9 -27 -9 -34 0 -5 6 -5 24 0 30 7 9 27 9 35 0z m376 1
c13 -6 19 -15 19 -28 0 -14 -6 -19 -21 -20 -15 -2 -32 3 -38 9 -3 4 -4 7 -4
19 0 14 0 16 6 20 7 7 24 7 38 0z m-100 -20 c6 -4 6 -6 6 -20 l0 -15 -17 -17
c-9 -10 -20 -19 -24 -21 -7 -3 -8 -3 -11 0 -5 5 -4 16 2 53 4 21 8 25 26 25
11 0 14 -1 18 -5z m-927 -20 c3 -3 4 -7 4 -14 0 -13 -6 -19 -19 -19 -13 0 -19
6 -19 19 0 7 1 11 4 14 7 8 23 8 30 0z m569 -43 c5 -5 6 -7 6 -16 0 -15 -8
-23 -23 -23 -9 0 -11 1 -16 7 -9 8 -9 23 -1 32 9 9 24 9 34 0z m495 -96 c7 -7
4 -14 -9 -23 -3 -1 -5 -3 -5 -2 0 2 -12 -5 -18 -11 -10 -10 -21 -16 -27 -16
-13 0 -20 17 -10 26 2 2 4 4 5 4 1 0 4 1 7 2 3 1 8 3 11 3 2 0 7 3 12 7 17 13
28 16 34 10z m-1020 -19 c9 -4 17 -26 11 -31 -1 -2 -3 -5 -4 -8 -4 -16 -40
-17 -48 -1 -4 8 -4 24 0 32 6 12 26 16 41 8z m-129 -24 c25 -15 33 -29 29 -47
-5 -23 -33 -26 -57 -6 -19 15 -23 23 -20 42 1 13 7 18 24 18 10 0 14 -1 24 -7z
m1014 -14 c7 -4 10 -11 10 -23 0 -14 -2 -18 -19 -35 -17 -18 -22 -20 -39 -19
-15 0 -20 20 -10 41 5 11 19 34 23 36 9 5 27 5 35 0z m-891 -62 c9 -5 13 -19
13 -43 0 -25 -3 -31 -19 -47 -16 -15 -21 -18 -40 -16 -15 1 -41 -4 -47 -9 -3
-3 -14 -2 -20 1 -11 6 -23 28 -23 41 0 6 7 14 14 14 5 0 21 4 38 8 5 1 10 4
13 7 9 8 13 11 13 10 0 -2 13 14 18 22 6 10 9 12 17 15 7 2 16 1 23 -3z"/>
<path d="M1581 3061 c-7 -2 -9 -6 -9 -21 0 -15 11 -24 29 -24 13 0 17 4 19 18
1 15 -1 19 -11 24 -12 5 -20 6 -28 3z"/>
<path d="M1066 3671 c-26 -13 -27 -40 -1 -62 11 -10 19 -25 16 -33 -1 -3 -2
-6 -2 -7 0 -1 -2 -5 -4 -10 -3 -8 -4 -27 0 -27 1 0 1 -1 0 -1 0 -1 2 -3 5 -6
7 -5 21 -5 29 0 6 5 8 13 5 15 -2 1 -2 2 1 2 3 0 5 1 6 2 2 4 12 7 30 8 39 3
46 7 56 26 6 11 3 19 -9 32 -5 7 -12 12 -14 13 -3 1 -14 19 -17 27 -1 3 -5 8
-10 13 -11 11 -20 13 -53 13 -25 0 -28 0 -38 -5z"/>
<path d="M1240 3674 c-2 -1 -5 -2 -8 -2 -3 0 -4 -1 -2 -1 3 -2 3 -33 0 -33 -2
0 2 -2 9 -5 7 -3 14 -6 16 -7 25 -14 34 -17 54 -19 8 -1 19 -9 19 -14 0 -5 13
-27 19 -32 10 -8 23 -10 34 -6 10 4 21 12 21 16 0 2 1 3 2 3 0 0 3 4 6 9 2 4
7 14 11 21 4 7 8 18 10 23 3 10 3 11 -1 21 -5 13 -12 21 -22 25 -8 4 -163 4
-168 1z"/>
<path d="M25 3350 c-11 -4 -16 -11 -19 -24 -4 -15 6 -46 19 -59 3 -3 33 -20
39 -22 3 -1 6 -3 8 -4 7 -6 21 -10 38 -10 16 0 18 0 35 9 18 8 19 9 39 9 40 1
50 11 42 43 -1 7 -3 14 -4 15 -1 1 -2 3 -2 5 0 6 -10 26 -15 31 -10 11 -13 11
-95 11 -71 0 -78 0 -85 -4z"/>
<path d="M256 3310 c-3 -5 -3 -24 1 -28 2 -4 27 -5 27 -2 0 1 1 2 2 1 3 -2 6
6 6 17 -1 9 -1 10 -6 13 -9 5 -26 4 -30 -1z"/>
<path d="M661 2163 c-9 -8 -5 -34 5 -39 11 -6 27 0 35 13 4 6 1 21 -7 27 -7 6
-27 6 -33 -1z"/>
<path d="M596 2096 c-3 -3 -6 -8 -7 -10 0 -2 -1 -4 -1 -4 -1 0 -2 -2 -2 -5 0
-4 0 -8 0 -11 0 -7 8 -13 22 -16 17 -3 20 -5 29 -15 8 -10 21 -17 33 -17 5 0
12 3 24 10 8 5 17 10 19 11 6 2 10 23 6 35 -2 7 -15 10 -35 9 -30 -2 -29 -2
-38 8 -9 10 -16 13 -31 13 -11 0 -13 -1 -19 -8z"/>
</g>
</svg>
