<?xml version="1.0" standalone="no"?>
<!DOCTYPE svg PUBLIC "-//W3C//DTD SVG 20010904//EN"
 "http://www.w3.org/TR/2001/REC-SVG-20010904/DTD/svg10.dtd">
<svg version="1.0" xmlns="http://www.w3.org/2000/svg"
 width="1100.000000pt" height="2850.000000pt" viewBox="0 0 1100.000000 2850.000000"
 preserveAspectRatio="xMidYMid meet">
<metadata>
Created by potrace 1.15, written by Peter Selinger 2001-2017
</metadata>
<g transform="translate(0.000000,2850.000000) scale(0.500000,-0.500000)"
fill="#000000" stroke="none">
<path d="M242 3827 c-23 -6 -38 -23 -48 -56 -3 -9 -7 -55 -7 -75 0 -19 6 -36
13 -38 2 0 4 -1 4 -2 0 -3 10 -6 18 -6 4 0 8 1 8 2 0 1 1 2 2 2 2 0 7 4 21 18
10 9 12 10 20 10 11 0 17 -6 17 -18 0 -7 -1 -9 -15 -23 -16 -16 -19 -20 -23
-29 -4 -6 2 -27 10 -40 8 -13 8 -22 0 -29 -6 -5 -6 -5 -6 -20 0 -13 1 -15 5
-19 3 -2 6 -4 7 -4 1 0 4 -3 7 -6 8 -9 8 -24 -1 -32 -5 -6 -7 -7 -18 -6 -19 0
-22 4 -21 20 1 12 1 14 8 19 7 6 7 7 8 22 0 14 0 16 -4 19 -3 1 -5 4 -5 5 0 1
-1 3 -3 4 -2 0 -3 3 -3 5 1 13 -6 32 -16 43 -7 7 -7 7 -16 6 -11 -2 -26 -9
-25 -11 1 -1 0 -2 -1 -2 -6 0 -8 -33 -4 -68 2 -16 2 -22 0 -31 -3 -12 -2 -29
2 -31 1 0 2 -1 1 -2 -2 -3 13 -13 21 -13 14 0 18 -7 12 -22 -5 -13 -10 -35
-11 -48 -3 -24 -10 -28 -45 -19 -31 8 -55 8 -81 -2 -9 -3 -19 -6 -22 -6 -2 0
-10 -2 -17 -4 -11 -4 -13 -6 -16 -13 -5 -11 -5 -17 3 -41 10 -29 16 -38 31
-45 11 -6 12 -6 37 -5 26 0 26 0 31 -5 4 -4 5 -7 4 -18 0 -17 3 -28 15 -45 15
-22 13 -40 -6 -54 -25 -18 -31 -27 -38 -67 -20 -109 -45 -233 -62 -307 -6 -23
-6 -25 -2 -37 3 -10 5 -14 15 -24 20 -19 28 -21 68 -16 23 3 27 -2 31 -35 5
-34 6 -36 56 -86 l35 -36 15 0 14 -1 6 11 c4 6 7 13 8 16 1 7 8 11 15 12 19 2
26 -4 26 -20 0 -14 -3 -18 -15 -23 -5 -2 -9 -5 -11 -8 -4 -7 -3 -34 1 -35 1 0
5 -4 10 -8 6 -7 7 -8 7 -19 0 -16 -4 -21 -20 -27 -7 -2 -17 -7 -22 -10 l-9 -6
-1 -13 c0 -14 2 -17 17 -24 8 -4 8 -4 20 0 14 5 27 12 27 15 0 1 1 2 2 2 1 0
4 2 6 4 8 7 31 4 37 -5 5 -7 4 -24 -2 -30 -3 -3 -7 -5 -9 -5 -18 0 -25 -2 -42
-10 -7 -3 -26 -20 -26 -24 0 -1 -1 -2 -1 -2 -3 -1 -13 -18 -15 -24 -2 -6 2
-28 6 -39 3 -9 3 -20 -1 -26 -3 -4 -4 -10 -4 -20 -1 -12 0 -15 5 -25 6 -11 9
-29 7 -36 -3 -10 -34 -14 -44 -5 -6 4 -6 6 -6 19 0 13 1 16 6 24 7 11 9 31 4
43 -1 3 -4 11 -6 17 -5 17 -6 18 -24 17 l-16 0 -4 -7 c-2 -4 -6 -14 -10 -22
-10 -24 -41 -87 -56 -113 -7 -12 -13 -23 -13 -24 0 0 -3 -5 -6 -10 -3 -5 -6
-9 -6 -10 0 -1 -5 -9 -11 -18 -5 -9 -14 -22 -18 -29 -4 -6 -8 -13 -10 -15 -1
-1 -6 -9 -12 -17 -11 -17 -14 -20 -23 -32 -5 -8 -6 -10 -6 -21 1 -11 7 -28 10
-26 1 1 2 0 2 -1 1 -3 20 -16 27 -19 9 -4 27 -2 34 2 13 8 32 25 35 30 4 8 4
30 -1 39 -6 11 -6 31 -1 47 5 19 15 27 31 26 12 -1 17 -3 28 -15 l11 -10 14 0
15 0 10 11 c51 54 59 65 65 82 5 14 6 15 19 25 20 15 21 17 21 29 0 9 -3 20
-6 23 -2 2 -8 16 -8 19 0 5 7 10 12 10 3 0 10 -1 15 -2 16 -2 31 2 36 9 2 3 5
6 6 6 0 0 1 1 1 2 0 5 17 26 21 27 10 3 14 -3 30 -41 10 -23 21 -40 32 -49 27
-22 84 -41 105 -35 16 4 25 19 27 44 1 13 5 21 13 24 13 5 33 2 40 -7 4 -5 16
-9 23 -9 7 1 7 1 12 -9 2 -5 5 -13 7 -17 3 -11 11 -17 25 -19 9 -2 14 -2 16 0
2 1 9 2 16 2 11 1 13 1 18 -4 10 -10 11 -35 1 -46 -6 -7 -25 -11 -34 -6 -8 4
-28 0 -35 -7 -8 -8 -8 -22 1 -31 8 -8 25 -16 36 -17 1 0 5 -3 8 -6 10 -10 7
-32 -7 -50 -5 -7 -7 -13 -7 -23 0 -18 9 -26 35 -29 16 -2 27 -6 34 -12 7 -6
23 -12 33 -12 36 -1 115 44 136 75 15 22 15 20 15 98 0 39 -1 73 -1 78 -1 7 0
8 6 13 4 3 9 6 11 6 8 0 83 48 93 59 8 9 12 22 13 40 1 14 2 17 7 22 6 6 11 7
34 4 7 -1 19 -2 26 -2 13 -1 20 -6 20 -13 0 -4 -10 -26 -12 -26 -1 0 -4 -5 -6
-12 -4 -11 -4 -14 -3 -28 2 -17 2 -58 0 -66 -2 -9 -2 -23 1 -28 1 -3 6 -8 11
-13 24 -23 33 -33 36 -38 2 -6 3 -6 39 -5 1 0 2 1 1 2 -1 1 0 2 2 2 2 0 3 2 3
5 0 6 9 12 20 12 8 0 11 -2 19 -8 5 -4 10 -9 11 -11 6 -11 26 -16 42 -11 10 3
28 19 28 24 0 2 1 3 2 3 1 0 2 1 2 2 0 1 3 6 6 12 3 5 9 17 12 25 14 38 14 38
26 31 5 -2 12 -5 15 -5 8 -2 15 -7 24 -17 14 -17 22 -20 49 -20 13 0 18 -1 20
-3 1 -2 3 -3 4 -3 1 0 5 -3 9 -6 3 -3 9 -7 14 -9 4 -2 10 -4 12 -5 2 -1 8 -3
12 -4 5 -1 10 -3 11 -5 3 -4 7 -21 6 -33 l0 -10 21 -11 c12 -6 25 -15 29 -19
4 -4 10 -9 12 -11 8 -6 12 -16 12 -29 0 -10 1 -14 4 -28 2 -8 21 -18 34 -18
15 0 82 29 99 42 4 3 8 6 9 6 3 0 33 31 41 42 5 6 11 17 15 25 4 8 8 14 8 15
2 1 -2 24 -5 29 -1 2 -5 7 -8 10 -3 3 -5 7 -5 7 0 1 -2 2 -4 3 -3 1 -13 10
-22 19 -16 17 -18 19 -18 26 0 14 17 21 27 12 4 -3 15 -19 15 -21 0 -1 7 -2
16 -2 l17 1 4 10 c5 11 5 11 5 147 l0 136 -6 20 c-7 25 -7 31 0 56 5 17 6 23
6 43 0 27 -2 36 -12 46 -7 8 -28 19 -39 21 -12 2 -43 9 -58 13 -9 2 -22 6 -29
7 -7 1 -14 4 -16 6 -10 10 -9 34 1 42 10 9 40 8 76 -2 8 -3 37 -23 37 -27 0 0
6 -1 13 -1 12 1 14 1 18 6 9 11 9 16 9 120 0 88 0 101 -3 108 -5 12 -10 18
-23 27 -6 4 -13 9 -14 10 -6 6 -26 22 -28 22 -1 0 -4 3 -6 7 l-4 8 4 4 c5 5 5
5 22 2 27 -5 39 0 48 23 8 19 2 50 -13 66 -18 21 -18 41 0 61 7 8 15 25 15 32
0 4 -4 15 -8 26 -4 10 -8 20 -8 21 0 1 4 11 9 22 l8 19 1 126 c0 91 0 128 -2
134 -3 10 -11 20 -22 25 -5 2 -9 6 -11 9 -3 5 -3 6 0 10 2 3 11 9 19 13 8 5
18 10 21 13 3 2 10 6 15 9 10 4 13 6 28 17 13 9 25 20 28 26 3 6 3 24 -1 31
-2 5 -11 12 -29 27 -18 14 -21 17 -33 26 -7 5 -19 13 -27 16 -22 11 -23 11
-27 15 -2 2 -8 9 -13 16 -8 11 -13 16 -25 25 -3 2 -6 5 -8 6 -4 4 -24 20 -30
24 -3 2 -6 5 -8 6 -31 28 -53 37 -70 27 -10 -6 -33 -29 -37 -37 -2 -3 -4 -8
-6 -11 -7 -9 -4 -28 7 -41 2 -3 6 -9 7 -12 5 -8 1 -14 -14 -20 -6 -3 -14 -7
-17 -8 -3 -2 -8 -5 -10 -7 -4 -5 -9 -25 -10 -39 0 -13 -3 -18 -11 -18 -7 0
-13 6 -11 13 1 7 -2 23 -6 31 -5 8 -13 14 -32 21 -31 12 -40 10 -58 -15 -10
-14 -12 -15 -24 -15 -7 0 -10 1 -14 5 -5 4 -5 6 -5 24 1 17 0 21 -4 30 -7 13
-17 20 -30 18 -14 -2 -19 -6 -26 -21 -4 -7 -9 -18 -13 -25 -6 -11 -6 -13 -6
-36 0 -31 0 -32 -26 -35 -36 -4 -46 -2 -41 9 2 3 7 7 12 10 13 7 20 12 19 14
-1 0 -1 1 1 1 1 0 2 4 2 10 0 9 -5 18 -12 18 -1 0 -2 1 -2 2 0 0 -9 1 -21 1
-23 1 -36 4 -56 17 -7 4 -20 11 -30 16 -18 9 -29 18 -40 33 -6 7 -25 23 -49
39 -13 8 -13 8 -26 7 -15 -1 -18 -3 -42 -29 -45 -49 -56 -59 -68 -63 -6 -1
-13 -3 -16 -3 -12 0 -25 -9 -29 -19 -2 -7 -5 -21 -3 -21 2 0 11 -29 13 -39 2
-18 15 -39 23 -39 2 0 5 -3 8 -7 2 -4 5 -7 6 -7 0 0 1 -7 0 -16 0 -8 1 -23 3
-32 7 -39 1 -50 -26 -50 -9 0 -12 1 -16 5 -6 4 -6 6 -6 20 0 9 2 23 4 31 5 22
4 30 -3 50 -1 2 -3 4 -3 3 -1 0 -4 2 -6 4 -3 3 -8 6 -10 6 -2 1 -9 7 -15 13
-21 24 -27 29 -39 33 -33 12 -30 10 -39 27 -5 10 -13 20 -22 29 l-14 14 1 18
c0 25 -8 41 -23 44 -13 3 -26 8 -32 12 -8 6 -24 13 -31 12 -20 -2 -27 -5 -36
-16 -13 -13 -14 -16 -16 -27 -1 -15 3 -19 22 -20 10 -1 16 0 17 1 4 7 16 13
27 14 l11 1 5 -8 c10 -15 6 -34 -8 -37 -10 -2 -20 -1 -24 2 -5 3 -25 3 -33 -1
-8 -4 -13 -12 -17 -26 -3 -10 -3 -31 -3 -153 0 -148 0 -147 -8 -155 -2 -3 -4
-1 -11 5 -8 8 -21 19 -37 33 -4 3 -12 10 -17 15 -6 5 -12 10 -15 11 -4 1 -6 3
-6 4 0 1 -1 2 -2 2 -2 0 -7 4 -11 9 -7 9 -14 15 -31 31 -17 16 -44 12 -57 -7
-9 -13 3 -43 18 -46 15 -3 35 -7 39 -7 5 0 14 -5 18 -11 1 -2 9 -11 18 -19 17
-18 22 -27 18 -42 -4 -15 -14 -22 -30 -21 -22 2 -38 2 -48 1 -6 -1 -20 -3 -31
-3 -22 0 -31 -3 -47 -16 -7 -6 -10 -7 -20 -7 -8 0 -14 1 -18 4 -12 7 -27 21
-31 30 -6 11 -6 13 -3 17 2 2 15 23 26 41 4 6 9 14 12 17 7 8 18 24 18 27 0 2
1 4 2 5 1 1 7 29 12 61 11 67 11 64 -4 97 -4 8 -5 14 -4 24 0 4 19 27 37 45 5
5 12 10 17 12 12 4 30 16 38 26 13 13 16 35 8 52 -11 22 -21 29 -49 34 -23 5
-35 2 -45 -8 -5 -5 -13 -22 -15 -30 -4 -16 -16 -28 -31 -28 -13 0 -14 0 -20 6
-5 5 -6 7 -6 17 0 9 1 14 4 18 3 4 4 9 4 18 0 16 -4 24 -14 27 -16 5 -33 -5
-41 -26 -2 -6 -5 -12 -7 -14 -6 -7 -19 -4 -21 5 -3 13 -12 35 -17 40 -11 11
-45 22 -60 18z m930 -120 c7 -7 6 -26 -1 -32 -4 -4 -6 -4 -15 -2 -14 3 -18 8
-18 20 0 7 1 11 4 14 7 8 23 8 30 0z m611 -15 c2 -3 3 -9 3 -14 0 -5 2 -16 3
-25 6 -29 6 -29 1 -34 -6 -6 -16 -7 -21 0 -4 4 -4 7 -4 38 0 23 1 34 3 36 4 4
11 4 15 -1z m-1396 -41 c3 -4 3 -6 1 -9 -1 -2 -3 -5 -3 -6 -1 -2 -2 -4 -3 -4
-1 0 -3 -1 -5 -1 -2 -1 -4 0 -5 4 -4 9 -4 12 -1 17 4 6 12 5 16 -1z m439 -4
c6 -4 8 -11 8 -24 0 -11 -4 -25 -8 -27 -4 -2 -33 6 -37 10 -5 5 -7 26 -3 34 3
4 5 6 14 10 4 2 20 0 26 -3z m391 -3 c6 -6 7 -19 2 -26 -8 -11 -34 -38 -47
-48 -4 -3 -8 -7 -8 -8 1 0 0 -2 -1 -4 -1 -4 0 -19 2 -25 1 -2 0 -5 -2 -8 -4
-7 -12 -7 -16 0 -3 5 -3 6 0 11 2 4 3 10 3 20 -1 18 -5 22 -22 27 -16 4 -20 8
-20 21 0 8 1 11 5 15 5 5 6 5 18 4 33 -3 41 -2 48 7 15 20 15 21 25 19 5 0 11
-3 13 -5z m663 -37 c3 -3 4 -7 4 -14 0 -13 -6 -19 -19 -19 -13 0 -19 6 -19 19
0 7 1 11 4 14 7 8 23 8 30 0z m-1515 -8 c2 -5 4 -11 5 -15 3 -14 4 -16 6 -19
1 -1 1 -3 1 -4 -3 -2 15 -16 27 -21 14 -5 17 -9 15 -21 -2 -11 -8 -21 -22 -35
-20 -20 -41 -28 -54 -19 -10 6 -9 25 1 44 4 10 6 15 5 22 0 9 -5 22 -9 25 -5
4 -10 17 -10 25 0 11 6 19 18 22 12 4 14 4 17 -4z m492 -25 c13 -4 17 -9 17
-21 0 -14 -5 -19 -19 -19 -14 0 -19 6 -19 20 0 11 5 22 10 22 2 0 7 -1 11 -2z
m768 -9 c6 -6 6 -6 6 -25 0 -19 0 -19 -6 -25 -5 -5 -8 -6 -17 -6 -9 0 -12 1
-17 6 l-6 6 1 19 c1 26 5 31 22 31 10 0 12 -1 17 -6z m-336 -1 c5 -2 11 -5 14
-8 4 -6 6 -21 4 -29 -1 -5 -13 -19 -13 -15 0 3 -13 6 -19 5 -3 -1 -14 -5 -23
-8 -27 -11 -40 -8 -40 10 0 10 4 16 20 30 23 22 31 24 57 15z m-340 -13 c4 -7
4 -19 -1 -24 -6 -7 -19 -7 -25 -1 -7 6 -7 19 -1 25 7 7 22 7 27 0z m511 -31
c5 -5 5 -15 0 -20 -9 -9 -24 -2 -24 10 0 8 6 14 14 14 3 0 8 -2 10 -4z m-120
-37 c7 -4 16 -10 20 -14 4 -3 10 -8 13 -11 12 -9 24 -29 27 -47 2 -8 1 -11 -3
-19 -4 -9 -6 -11 -23 -31 -5 -6 -16 -21 -22 -32 -7 -12 -15 -22 -17 -23 -3 -1
-5 -3 -5 -4 0 -5 -20 8 -21 14 0 1 -1 17 -2 36 -1 29 -1 37 2 47 4 16 4 26 0
38 -4 14 -4 29 1 41 7 15 11 15 30 5z m325 -33 c6 -4 10 -12 10 -24 0 -13 -2
-17 -13 -25 -17 -12 -22 -17 -27 -28 -5 -11 -5 -13 -5 -40 1 -27 1 -28 -3 -33
l-5 -5 -11 4 c-14 5 -13 4 -19 15 -4 8 -5 12 -6 35 l-1 26 6 6 c3 3 5 7 5 8 0
2 1 3 2 2 3 -2 13 9 18 21 4 10 5 13 6 23 1 15 26 23 43 15z m-422 -5 c5 -8 1
-16 -8 -16 -9 0 -13 8 -8 16 2 3 5 5 8 5 3 0 6 -2 8 -5z m-383 -22 c3 -3 4 -7
4 -14 0 -13 -6 -19 -19 -19 -13 0 -19 6 -19 19 0 7 1 11 4 14 7 8 23 8 30 0z
m289 1 c5 -5 14 -27 18 -46 5 -19 0 -33 -13 -39 -9 -3 -21 -3 -31 2 -10 5 -31
25 -37 34 -5 8 -5 27 -1 36 7 15 52 24 64 13z m335 -2 c9 -9 1 -40 -10 -47 -9
-5 -18 -4 -24 2 -6 6 -5 19 2 33 7 15 23 21 32 12z m392 2 c1 0 5 -3 8 -6 5
-5 6 -7 6 -18 0 -11 -1 -13 -6 -18 -6 -6 -7 -6 -18 -6 -11 0 -12 0 -18 6 -5 5
-6 7 -6 17 0 14 3 20 12 24 5 2 8 2 22 1z m-870 -20 c13 -9 23 -14 25 -13 0 1
1 1 1 -1 0 -4 9 -14 12 -14 2 0 2 0 0 -2 -2 -1 -2 -7 -2 -22 l1 -21 -6 -6 c-5
-5 -8 -6 -14 -6 -9 0 -20 9 -19 16 1 11 -6 26 -19 40 -14 14 -14 15 -11 24 5
13 18 15 32 5z m-719 -11 c3 -3 3 -3 0 -6 -3 -3 -3 -3 -6 0 -3 2 -3 3 -1 6 4
4 4 4 7 0z m652 -28 c4 -3 4 -9 -1 -14 -5 -4 -8 -4 -13 2 -3 5 -3 5 0 10 4 5
8 6 14 2z m-585 -4 c6 -5 7 -15 3 -15 -2 0 -4 -1 -4 -3 -2 -5 -13 -4 -17 1
-11 13 6 30 18 17z m533 -46 c8 -5 17 -9 20 -10 3 -1 7 -2 8 -3 1 -1 6 -2 11
-3 5 -1 11 -4 14 -6 5 -4 5 -6 5 -20 0 -14 0 -16 -6 -20 -3 -3 -7 -5 -9 -5 -2
0 -12 -3 -22 -8 -25 -10 -31 -11 -35 -7 -3 3 -3 4 -1 10 4 12 -2 43 -8 43 -1
0 -5 3 -9 6 -9 8 -10 20 -3 27 7 8 17 7 35 -4z m548 -10 c3 -3 7 -9 9 -13 8
-14 17 -21 38 -28 18 -5 20 -8 20 -28 -1 -19 1 -28 8 -50 7 -22 8 -47 3 -55
-4 -5 -25 -17 -31 -17 -4 0 -36 -16 -41 -20 -2 -2 -5 -4 -6 -4 -1 0 -1 -1 0
-1 1 -2 -5 -15 -9 -20 -4 -3 -7 -4 -14 -3 -12 1 -27 -4 -35 -11 -17 -15 -29
-19 -37 -10 -5 6 -7 22 -4 34 3 11 12 17 26 17 9 0 20 4 19 6 -1 1 0 2 1 2 2
0 3 4 3 14 0 8 -1 15 -2 14 0 -1 -2 1 -5 3 -4 3 -6 3 -30 2 -26 -1 -26 -1 -39
5 -7 3 -15 6 -17 6 -1 0 -6 0 -9 1 -5 1 -7 0 -20 -14 l-15 -16 -16 -1 c-10 -1
-19 -3 -25 -6 l-10 -5 0 -14 c-1 -13 -1 -13 8 -22 4 -4 12 -12 18 -16 11 -9
15 -16 15 -28 0 -23 -24 -25 -58 -7 -12 7 -18 14 -18 23 0 17 -15 39 -30 43
-11 3 -55 2 -73 -1 -14 -3 -28 -4 -42 -3 -7 1 -13 14 -13 30 0 25 -5 35 -20
37 -4 1 -10 2 -13 3 -5 1 -7 1 -8 -1 -2 -5 -17 -4 -22 1 -7 6 -7 19 -1 25 5 6
21 7 23 2 1 -2 3 -2 8 -1 3 1 9 2 14 3 4 1 7 2 6 3 -1 1 1 2 3 2 5 0 17 5 19
8 4 5 17 3 24 -3 6 -6 6 -7 5 -21 0 -10 1 -17 3 -23 4 -9 14 -21 18 -21 2 0 3
-1 3 -2 0 -2 1 -2 31 -3 30 -2 50 1 62 7 7 4 25 21 25 24 0 0 3 3 7 5 8 4 14
4 58 3 12 -1 18 0 19 2 1 1 5 4 10 7 5 2 10 6 11 8 1 3 3 6 5 8 1 1 3 5 3 8 1
3 2 7 3 8 1 2 4 11 5 17 0 1 1 3 2 5 3 4 3 4 6 0 1 -2 2 -6 3 -10 0 -3 1 -7 2
-8 1 -1 2 -3 2 -5 0 -4 6 -16 9 -19 4 -4 24 -4 38 1 7 1 13 3 15 3 2 0 5 -1 7
-1 2 0 7 -3 11 -7 4 -4 10 -8 13 -9 8 -3 32 -3 34 1 1 1 6 5 11 9 l8 6 1 15 0
16 -13 9 c-9 6 -15 12 -19 20 -8 13 -14 21 -20 27 -3 3 -5 5 -5 6 0 2 -1 4 -3
5 -5 4 -4 18 1 23 7 7 19 7 27 0z m414 -37 c8 -8 8 -24 -1 -33 -5 -5 -6 -6
-21 -5 -16 0 -31 -3 -46 -10 -12 -5 -28 -6 -36 -1 -8 3 -12 12 -12 24 0 19 10
28 28 27 36 -2 51 -1 63 4 8 3 18 0 25 -6z m-1553 2 c7 -7 2 -19 -8 -19 -6 0
-12 5 -12 10 0 10 13 16 20 9z m-70 -9 c6 -3 14 -17 13 -22 -2 -9 -1 -21 3
-29 3 -8 6 -11 17 -18 15 -9 17 -13 17 -23 0 -10 -7 -17 -18 -17 -6 0 -10 2
-22 10 -12 9 -30 18 -30 15 0 0 -4 1 -9 3 -13 4 -15 11 -16 43 0 19 1 25 3 30
7 12 27 16 42 8z m1439 -12 c5 -8 1 -16 -8 -16 -9 0 -13 8 -8 16 2 3 5 5 8 5
3 0 6 -2 8 -5z m-1273 -17 c14 -1 17 -6 17 -27 -1 -18 -3 -28 -9 -39 -4 -6 -5
-6 -8 -3 -4 3 -21 12 -26 12 -17 2 -27 19 -22 38 4 14 14 21 30 20 5 -1 13 -1
18 -1z m223 -2 c17 -7 27 -23 20 -33 -3 -5 -4 -5 -15 -4 -23 2 -36 11 -36 25
0 15 13 20 31 12z m516 -28 c10 -9 3 -26 -10 -26 -8 0 -15 7 -15 15 0 13 16
20 25 11z m-333 -1 c12 -5 18 -21 14 -36 -5 -21 -26 -26 -55 -13 -7 3 -7 3 -7
12 1 5 2 12 4 16 2 4 4 8 4 9 0 3 7 9 14 12 6 3 19 2 26 0z m833 -26 c0 -3 1
-7 3 -10 2 -2 3 -5 3 -5 -1 -1 0 -1 2 -1 2 0 3 0 3 1 0 0 6 1 12 1 11 0 13 -1
14 -4 1 -3 2 -3 2 1 0 5 6 12 11 12 1 0 6 -2 10 -3 18 -8 30 -45 19 -58 -6 -6
-29 -14 -44 -16 -10 -1 -13 0 -19 4 -4 3 -7 5 -6 5 0 0 -1 4 -4 9 -3 4 -7 10
-8 12 -1 2 -4 4 -6 4 -6 0 -52 44 -52 50 -1 9 7 14 28 15 l20 1 6 -6 c4 -4 6
-8 6 -12z m-910 -8 c2 -1 3 -2 2 -3 0 0 5 -1 12 0 12 1 13 1 13 -2 0 -3 -2 -4
-6 -4 -6 0 -8 -1 -9 -8 -1 -3 -4 -10 -7 -17 -10 -18 -11 -39 -2 -49 17 -19 18
-29 5 -48 -12 -19 -17 -36 -16 -60 0 -20 4 -29 15 -40 12 -12 15 -18 15 -28 0
-10 -3 -16 -15 -28 -6 -6 -13 -17 -16 -27 -2 -6 -2 -11 1 -27 4 -19 4 -21 0
-39 -4 -25 -4 -63 0 -75 4 -12 8 -17 19 -23 27 -18 47 -25 64 -25 20 1 24 0
29 -5 5 -5 6 -8 5 -21 0 -9 -9 -18 -18 -19 -4 0 -13 2 -20 4 -15 5 -39 7 -47
3 -34 -18 -35 -22 -35 -102 l1 -59 6 -11 c5 -11 16 -20 22 -18 1 0 3 -1 4 -2
2 -1 3 -2 3 -1 0 3 12 -4 14 -9 6 -15 3 -22 -18 -35 -29 -18 -44 -13 -54 15
-7 21 -16 37 -26 48 -14 16 -24 26 -26 26 -1 0 -12 11 -25 25 -2 2 -8 8 -14
12 -19 16 -21 18 -24 27 -2 7 -2 11 0 21 1 7 2 13 2 13 -1 0 2 4 5 10 12 19
68 216 68 238 0 10 -7 24 -13 26 -3 2 -5 3 -5 4 0 1 -1 2 -2 2 -2 0 -8 3 -14
6 -13 6 -17 13 -19 30 -3 20 0 28 15 41 7 7 15 14 17 14 3 1 3 3 3 12 0 5 0
11 0 12 0 1 0 3 0 3 0 2 9 10 20 18 19 12 23 16 32 34 8 18 13 36 15 66 1 8 2
16 3 16 2 1 3 9 3 17 1 13 2 19 8 29 3 8 6 14 6 14 1 0 2 -1 4 -1z m-330 -100
c1 -4 2 -8 2 -9 0 -2 1 -4 1 -4 0 -1 1 -3 1 -6 1 -3 3 -11 4 -18 6 -23 5 -35
-4 -52 -21 -41 -19 -66 6 -84 6 -4 13 -8 15 -10 5 -4 10 -18 11 -32 1 -11 9
-29 19 -43 7 -10 8 -20 4 -31 -3 -10 -2 -28 2 -36 1 -3 6 -8 11 -11 10 -8 12
-10 15 -20 5 -22 -7 -38 -31 -39 -11 0 -34 -7 -39 -10 -7 -6 -31 -19 -44 -23
-18 -6 -55 -4 -72 5 -13 6 -19 31 -10 45 2 4 5 7 6 7 2 0 14 12 20 20 5 7 9
16 11 23 0 2 4 15 7 29 3 14 7 31 9 39 2 7 4 14 4 15 3 4 1 17 -3 28 -4 10 -5
12 -12 14 -9 2 -22 3 -31 1 -5 -1 -7 0 -11 4 -4 4 -4 4 0 10 6 12 33 30 55 37
19 6 31 27 32 54 0 16 -1 18 -9 35 -10 20 -12 34 -7 40 2 2 9 8 16 12 6 4 12
9 14 11 3 6 6 5 8 -1z m217 -17 c5 -5 5 -11 0 -16 -10 -10 -27 5 -16 16 4 4
12 4 16 0z m848 -4 c5 -2 29 -2 45 0 15 2 15 2 19 -2 8 -9 3 -20 -10 -23 -5
-1 -9 -2 -11 -4 -1 -2 -4 -3 -5 -3 -5 0 -9 -13 -9 -32 1 -10 0 -20 -1 -22 -3
-6 -15 -11 -31 -14 -14 -3 -15 -3 -17 0 -2 2 -5 5 -7 5 -2 1 -3 2 -1 4 9 12
14 43 9 58 -5 18 -6 27 -1 33 5 6 10 6 20 0z m-370 -22 c2 -2 4 -9 5 -17 0 -8
3 -19 5 -25 3 -10 3 -11 0 -12 -1 -1 -2 -2 -1 -2 3 0 3 -8 0 -8 -1 0 0 -2 3
-4 3 -3 4 -4 2 -4 -4 0 -13 -9 -11 -10 1 -1 -2 -4 -5 -8 -7 -7 -7 -7 -25 -7
-17 0 -34 -4 -40 -9 -7 -6 -23 -3 -45 7 -12 6 -25 12 -30 13 -5 1 -13 4 -18 7
-7 3 -13 4 -30 4 -14 0 -22 1 -24 3 -1 1 -4 2 -7 2 -3 0 -5 1 -6 3 0 1 -1 1
-1 0 0 -1 -3 -2 -8 -1 -11 1 -26 -2 -26 -5 0 -5 -13 5 -16 12 -13 33 -15 44
-7 52 11 11 31 4 31 -12 0 -10 4 -27 6 -27 2 0 2 -1 1 -1 0 -1 1 -4 4 -7 5 -5
6 -5 9 -3 2 1 2 1 1 0 -1 -2 2 -2 9 -2 6 0 11 1 12 3 1 1 3 2 5 2 2 -1 7 0 10
2 3 1 6 2 6 2 0 -2 17 5 27 12 17 12 26 12 54 -2 12 -5 26 -11 32 -12 6 -2 15
-4 19 -6 4 -2 10 -4 13 -5 3 0 7 -1 8 -2 1 -1 2 0 3 1 1 1 2 2 4 1 6 -2 2 29
-4 34 -5 4 -4 25 1 31 6 8 27 9 34 0z m558 -19 c3 -2 6 -5 6 -6 0 -1 2 -5 6
-10 8 -12 10 -15 14 -22 7 -11 27 -36 32 -38 10 -6 21 -4 38 6 13 8 16 10 26
10 12 0 19 -3 23 -10 3 -4 3 -11 3 -45 0 -44 0 -51 -6 -69 -2 -7 -4 -13 -4
-14 -1 -4 -22 -13 -22 -9 0 0 -3 2 -6 4 -3 1 -6 3 -6 4 1 0 -2 9 -5 20 -8 26
-22 42 -45 48 -10 3 -32 0 -32 -4 0 -1 -2 -1 -4 0 -2 1 -4 1 -4 1 -1 -1 -1 0
-1 2 -1 6 -6 23 -11 34 -3 7 -6 13 -6 14 0 3 -18 29 -25 36 -18 18 -19 36 -2
47 8 5 23 5 31 1z m-1127 -29 c5 -5 6 -7 6 -16 0 -15 -8 -23 -23 -23 -9 0 -11
1 -16 7 -9 8 -9 23 -1 32 9 9 24 9 34 0z m666 -28 l-6 -6 -15 4 c-8 2 -18 5
-22 6 -4 1 -5 2 -3 2 1 0 3 1 3 2 -1 0 0 1 1 2 1 0 3 1 3 2 1 2 8 3 16 4 8 0
15 1 16 1 0 0 3 -2 7 -6 l6 -6 -6 -5z m-1024 0 c9 -12 14 -23 14 -40 0 -29
-13 -42 -42 -40 -2 0 -6 3 -9 6 -5 5 -6 7 -6 16 0 17 13 54 21 60 6 6 16 5 22
-2z m1352 -49 c3 -3 3 -3 0 -6 -3 -3 -3 -3 -6 0 -3 2 -3 3 -1 6 4 4 4 4 7 0z
m-1025 -30 l-5 -5 -4 4 -5 5 4 4 5 5 4 -4 5 -5 -4 -4z m399 -3 c4 -6 4 -24 -1
-30 -7 -9 -27 -9 -34 0 -5 6 -5 24 0 30 7 9 27 9 35 0z m766 -5 c3 -3 6 -9 7
-14 2 -4 4 -13 6 -19 10 -32 -1 -46 -30 -38 -26 8 -36 18 -34 36 1 12 12 26
20 26 1 0 7 3 13 7 7 4 12 7 12 7 1 0 3 -2 6 -5z m-115 -41 c23 -14 35 -49 23
-63 -4 -6 -15 -9 -30 -9 -14 0 -29 -6 -38 -15 -8 -8 -21 -15 -26 -15 -4 0 -8
9 -8 16 0 7 -5 28 -10 43 -5 12 0 18 15 20 19 2 26 5 38 16 11 10 13 11 21 11
6 0 12 -1 15 -4z m-967 -14 c15 -10 19 -17 19 -29 0 -17 -7 -23 -26 -21 -11 1
-20 12 -26 35 -4 15 -4 18 1 23 3 3 4 4 13 1 6 -2 14 -6 19 -9z m470 -1 c8 -5
12 -10 17 -23 5 -13 5 -19 0 -24 -10 -10 -29 -1 -39 18 -6 13 -6 21 -1 27 6 6
14 6 23 2z m837 -15 c5 -5 6 -7 6 -17 0 -10 -1 -12 -6 -17 -5 -5 -7 -6 -17 -6
-10 0 -12 1 -17 6 -5 5 -6 7 -6 17 0 10 1 12 6 17 5 5 7 6 17 6 10 0 12 -1 17
-6z m-1078 -16 c2 0 9 -5 15 -11 16 -15 26 -21 47 -26 7 -1 12 -8 13 -19 3
-20 -17 -24 -39 -7 -16 12 -32 19 -48 19 -17 0 -26 25 -13 38 5 6 10 7 18 7 2
0 5 -1 7 -1z m534 -4 c6 -6 6 -6 5 -28 0 -22 0 -24 5 -32 3 -5 9 -11 13 -14
18 -12 17 -36 -2 -36 -13 0 -61 11 -65 15 -7 7 -9 19 -5 33 3 12 4 16 7 40 4
23 8 28 26 28 9 0 11 -1 16 -6z m-149 -5 c5 -4 5 -6 4 -26 0 -22 0 -22 8 -37
4 -8 7 -17 7 -21 0 -8 -7 -15 -16 -15 -11 0 -16 6 -16 19 0 6 0 12 -1 14 -3
14 -7 23 -14 32 -9 12 -10 26 -2 34 7 7 23 7 30 0z m602 -15 c3 -4 3 -4 0 -9
-2 -3 -5 -5 -7 -5 -2 0 -5 2 -7 5 -3 5 -3 5 0 9 2 2 5 4 7 4 2 0 5 -2 7 -4z
m-865 -64 c13 0 18 -21 10 -39 -6 -11 -9 -11 -24 -4 -12 6 -13 9 -15 24 -1 10
-1 12 3 16 4 5 6 5 14 4 5 0 10 -1 12 -1z m777 -25 c4 -4 5 -7 5 -14 0 -5 1
-12 3 -17 2 -5 3 -9 3 -9 0 -1 0 -1 0 -1 0 -1 1 -2 1 -4 0 -2 4 -8 8 -15 8
-14 8 -13 3 -26 -7 -19 -23 -43 -31 -47 -3 -1 -11 -3 -17 -3 -11 -1 -18 2 -30
13 -11 11 -24 18 -39 22 -9 3 -26 8 -38 13 -12 5 -27 10 -34 12 -15 4 -20 9
-23 20 -5 22 8 39 29 38 12 -1 18 -4 31 -16 22 -20 35 -26 50 -24 17 2 28 13
36 35 6 17 8 19 13 24 8 6 24 6 30 -1z m-632 -27 c7 -3 12 -13 12 -25 0 -19
-9 -28 -28 -28 -19 0 -28 9 -28 28 0 24 19 34 44 25z m-824 -5 c12 -12 3 -31
-13 -31 -11 0 -18 7 -18 18 0 11 7 18 18 18 6 0 9 -1 13 -5z m710 -23 c13 -11
9 -29 -8 -33 -4 -1 -7 -2 -8 -3 -1 -1 -4 -2 -8 -2 -4 0 -7 -1 -9 -3 -8 -13
-12 -19 -12 -21 0 -1 -1 -2 -2 -2 -1 0 -2 -1 -2 -3 0 -1 -4 -8 -9 -15 -22 -33
-24 -36 -23 -48 0 -18 5 -26 19 -33 22 -13 32 -22 37 -37 2 -5 4 -11 4 -12 0
-3 -7 -10 -10 -10 -5 0 -15 7 -23 14 -7 8 -26 18 -32 18 -4 0 -10 4 -17 9 -3
3 -4 6 -4 18 0 17 0 21 -4 23 -3 2 -3 2 0 2 2 0 2 1 -1 2 -2 1 -9 2 -16 2 -11
0 -14 0 -26 -8 -15 -9 -24 -10 -26 -4 -1 1 -3 5 -4 6 -6 6 -4 21 3 30 6 8 10
10 36 16 28 7 30 9 42 33 11 23 15 27 27 28 28 3 27 2 39 16 7 6 13 14 14 17
3 8 13 8 23 0z m-414 -3 c3 -3 3 -3 0 -6 -3 -3 -3 -3 -6 0 -3 2 -3 3 -1 6 4 4
4 4 7 0z m671 -49 c1 0 5 -3 8 -6 5 -5 6 -7 6 -17 0 -7 -1 -14 -3 -18 -5 -8
-5 -34 0 -43 2 -4 3 -11 3 -16 0 -8 -1 -10 -14 -23 -14 -15 -19 -26 -21 -44
-2 -16 -10 -22 -27 -22 -23 0 -27 6 -26 41 0 14 1 30 2 34 2 8 8 16 13 16 0 0
5 2 9 4 5 2 10 4 12 4 2 0 6 3 9 6 7 9 7 27 0 41 -9 17 -6 36 7 42 5 2 8 2 22
1z m-781 -10 c4 -6 4 -24 -1 -30 -7 -9 -27 -9 -34 0 -5 6 -5 24 0 30 7 9 27 9
35 0z m1418 -2 c7 -3 12 -13 12 -25 0 -14 -5 -22 -14 -25 -5 -1 -9 -3 -10 -4
-2 -2 -13 1 -21 5 -15 8 -14 43 1 49 12 4 20 4 32 0z m-788 -20 c7 -6 7 -19 1
-25 -6 -7 -19 -7 -25 -1 -7 6 -7 19 -1 25 6 7 19 7 25 1z m251 -33 c10 -5 16
-17 16 -34 0 -7 4 -24 15 -70 5 -19 9 -22 25 -23 13 0 14 0 27 9 7 5 16 9 19
9 16 2 27 -2 31 -10 8 -15 2 -39 -11 -57 -3 -3 -7 -8 -10 -11 -4 -6 -7 -6 -21
-2 -13 3 -63 -16 -63 -26 0 -1 -1 -2 -3 -3 -1 0 -4 -4 -6 -9 -2 -4 -5 -8 -5
-8 -1 0 -3 -2 -4 -5 -6 -15 -27 -19 -38 -7 -12 11 -8 27 7 43 9 9 11 28 6 43
-6 18 -6 20 2 44 10 30 9 36 -12 57 -16 17 -18 22 -17 39 2 11 6 17 15 21 7 3
20 3 27 0z m320 -15 c1 -3 2 -15 2 -37 0 -31 -1 -33 -5 -40 -3 -4 -5 -8 -5
-10 0 -1 -1 1 -3 4 -3 8 -26 31 -46 46 -8 7 -15 13 -15 14 0 5 8 11 20 16 7 2
16 6 20 8 4 1 10 4 15 6 4 1 7 4 7 5 0 3 6 -4 10 -12z m135 -14 c5 -5 6 -7 6
-16 0 -15 -8 -23 -23 -23 -9 0 -11 1 -16 7 -9 8 -9 23 -1 32 9 9 24 9 34 0z
m-1166 -1 c6 -5 7 -19 2 -27 -2 -3 -4 -6 -5 -6 -1 0 -1 -6 -1 -14 1 -21 3 -23
35 -38 25 -11 38 -21 38 -29 1 -13 0 -18 -6 -24 -5 -5 -7 -6 -19 -6 -17 0 -28
5 -35 16 -3 5 -7 11 -10 15 -5 8 -11 13 -30 22 -13 7 -17 7 -60 3 -16 -2 -22
4 -22 19 0 20 15 26 38 15 12 -5 26 -7 35 -3 7 4 10 13 10 33 -1 16 0 18 4 22
6 6 19 7 26 2z m886 -3 c7 -6 13 -13 14 -18 0 -3 6 -10 11 -16 15 -14 18 -20
18 -29 0 -21 -30 -23 -41 -3 -2 4 -10 12 -18 19 -9 7 -17 14 -18 16 -4 6 -4
24 1 29 6 8 25 9 33 2z m-1084 -9 c12 -12 3 -31 -13 -31 -11 0 -18 7 -18 18 0
11 7 18 18 18 6 0 9 -1 13 -5z m1456 1 c9 -6 11 -8 11 -17 0 -29 -12 -46 -32
-46 -20 0 -28 18 -19 39 6 12 10 17 20 22 10 4 14 5 20 2z m-774 -28 c4 -3 4
-8 -1 -14 -2 -3 -4 -6 -3 -6 1 0 1 -1 -1 -3 -1 -1 -2 -5 -3 -9 -1 -4 -2 -7 -2
-8 -1 -1 -2 -4 -2 -6 -2 -12 -8 -20 -28 -34 -4 -4 -16 -18 -27 -33 l-20 -27 0
-11 c1 -12 4 -22 9 -24 1 -1 5 -5 8 -9 9 -12 6 -23 -9 -40 -9 -10 -13 -18 -13
-31 -1 -13 0 -12 -6 -15 -11 -7 -43 -2 -49 6 -1 1 -10 6 -20 12 l-20 10 -11
-2 c-15 -3 -25 -8 -31 -17 -7 -10 -15 -14 -30 -14 -12 0 -14 1 -18 4 -2 3 -4
6 -4 7 0 7 -20 36 -24 35 -1 -1 -2 0 -2 1 0 2 0 2 -1 2 -1 -1 -6 1 -12 4 -5 3
-12 7 -14 8 -3 1 -7 5 -9 10 -4 8 -5 15 -2 13 1 -1 2 -1 2 0 -1 6 1 7 8 7 14
0 24 -4 38 -17 8 -7 15 -13 17 -13 4 0 4 0 13 -3 5 -2 9 -2 20 1 28 8 36 12
40 20 5 11 11 15 22 18 16 3 29 10 33 17 5 9 6 25 2 37 -4 13 -3 17 12 33 10
10 13 15 17 27 4 13 6 16 21 31 10 9 17 18 16 19 -1 1 0 2 1 2 1 0 5 2 9 5 6
4 10 5 20 5 7 0 19 1 27 3 16 2 23 2 27 -1z m797 -90 c5 -5 5 -11 0 -16 -10
-10 -27 5 -16 16 4 4 12 4 16 0z m-1431 -8 c11 -10 3 -28 -12 -28 -9 0 -15 6
-15 16 0 14 17 22 27 12z m113 -24 c16 -11 23 -52 10 -64 -8 -9 -31 -9 -41 0
-14 13 -19 51 -7 63 7 7 28 8 38 1z m996 -8 c5 -6 5 -12 0 -18 -7 -8 -22 -2
-22 9 0 11 15 17 22 9z m-685 -20 c3 -4 3 -4 -1 -6 -6 -3 -12 2 -8 7 4 4 5 4
9 -1z m-154 -6 c14 -12 17 -17 14 -23 -1 -2 -2 -5 -2 -5 1 -1 -12 0 -18 1 -7
1 -15 10 -15 16 0 10 13 17 21 11z m732 -35 c1 -4 5 -10 8 -13 6 -7 5 -9 -10
-22 -9 -7 -13 -13 -22 -30 -5 -12 -10 -20 -11 -18 0 2 -5 5 -12 8 -15 7 -20
12 -20 21 0 11 3 14 20 23 14 7 26 18 26 23 0 3 9 20 12 23 3 3 3 3 4 -2 1 -3
3 -8 5 -13z m93 -13 c9 -4 20 -13 25 -21 12 -19 -29 -33 -57 -18 -13 7 -18 12
-18 20 0 6 3 13 6 13 1 0 5 2 9 5 9 6 24 7 35 1z m94 -16 l9 -1 -10 0 c-6 -1
-11 -3 -13 -5 -3 -4 -4 -4 -9 1 l-5 4 6 5 5 5 4 -4 c2 -4 6 -5 13 -5z m49 -1
c3 -5 3 -5 0 -10 -5 -6 -10 -6 -13 0 -2 4 -2 6 0 10 3 6 8 6 13 0z m-433 -81
c7 -7 4 -15 -8 -20 -4 -2 -12 6 -12 12 0 10 13 15 20 8z m-328 -9 c9 -10 2
-27 -12 -27 -20 0 -22 29 -2 32 7 1 10 0 14 -5z m925 -58 c4 -6 4 -10 -1 -15
-10 -10 -27 5 -16 16 4 4 12 4 17 -1z"/>
<path d="M1394 3124 c0 -7 1 -12 2 -12 2 0 2 2 2 5 -1 3 -1 5 0 5 2 0 1 13 -1
13 -2 1 -3 -2 -3 -11z"/>
<path d="M372 2825 c-6 -2 -11 -16 -15 -38 -5 -27 -5 -27 -6 -34 -1 -3 0 -10
1 -15 l2 -10 16 0 c18 -1 18 -1 24 13 5 12 4 9 7 25 8 35 7 35 5 47 l-3 12
-14 0 c-8 0 -16 0 -17 0z"/>
<path d="M1616 2003 c-2 -2 -3 -4 -3 -5 1 -1 -3 -1 -7 -1 -13 -1 -16 -2 -17
-5 -1 -2 -2 -4 -4 -3 -1 0 -2 -4 -3 -10 0 -9 1 -11 4 -14 11 -10 15 -14 17
-19 0 -4 2 -6 3 -6 1 0 2 -1 2 -3 0 -2 2 -6 5 -10 2 -3 5 -9 7 -13 3 -12 9
-15 22 -15 6 0 14 1 17 3 6 2 6 3 6 12 0 5 -1 11 -2 14 -2 7 -13 16 -22 18
-15 4 -17 7 -17 30 0 24 0 27 -3 30 -1 1 -3 0 -5 -3z"/>
</g>
</svg>
