<?xml version="1.0" standalone="no"?>
<!DOCTYPE svg PUBLIC "-//W3C//DTD SVG 20010904//EN"
 "http://www.w3.org/TR/2001/REC-SVG-20010904/DTD/svg10.dtd">
<svg version="1.0" xmlns="http://www.w3.org/2000/svg"
 width="1100.000000pt" height="2850.000000pt" viewBox="0 0 1100.000000 2850.000000"
 preserveAspectRatio="xMidYMid meet">
<metadata>
Created by potrace 1.15, written by Peter Selinger 2001-2017
</metadata>
<g transform="translate(0.000000,2850.000000) scale(0.500000,-0.500000)"
fill="#000000" stroke="none">
<path d="M315 3831 c0 -2 -2 -3 -3 -2 0 0 -1 -6 -2 -15 0 -15 0 -15 6 -22 9
-9 9 -22 -1 -35 -12 -16 -15 -33 -8 -48 13 -27 9 -54 -9 -58 -3 -1 -11 -4 -19
-8 -20 -10 -27 -20 -31 -48 -4 -29 -5 -33 -1 -46 4 -16 11 -23 31 -37 14 -10
18 -13 27 -26 3 -5 8 -12 12 -16 3 -4 8 -10 11 -14 10 -13 25 -27 37 -33 14
-8 18 -14 18 -28 0 -15 -4 -20 -21 -29 -12 -7 -19 -12 -29 -23 -17 -20 -36
-37 -39 -37 -6 0 -7 -27 -1 -44 2 -6 2 -9 -1 -16 -3 -9 -18 -32 -29 -44 -14
-16 -16 -24 -15 -57 0 -8 0 -10 -6 -16 -5 -5 -7 -6 -16 -6 -15 0 -22 7 -23 23
0 6 -1 13 -2 15 0 2 -1 4 -1 5 0 1 -35 -1 -37 -2 0 -1 -5 -20 -10 -42 -5 -23
-12 -53 -15 -68 -4 -15 -9 -36 -11 -48 -3 -12 -6 -24 -7 -28 -1 -4 -6 -25 -12
-47 -18 -75 -32 -127 -53 -201 -15 -52 -15 -53 -13 -64 4 -18 9 -23 31 -28 17
-5 31 -12 31 -17 0 -5 16 -24 29 -33 47 -35 105 -80 120 -94 4 -4 13 -9 18
-11 6 -2 11 -5 13 -6 2 -2 4 -3 6 -3 1 0 2 -1 2 -2 0 -1 2 -4 4 -6 2 -2 5 -7
7 -11 2 -4 6 -10 8 -12 3 -2 9 -8 15 -13 10 -9 16 -20 16 -29 0 -2 1 -5 1 -6
1 0 2 -2 2 -4 2 -15 8 -22 26 -31 13 -7 19 -12 19 -19 0 -2 1 -6 3 -10 1 -3 4
-10 6 -15 2 -4 6 -11 9 -14 10 -12 14 -19 15 -32 2 -23 7 -32 27 -46 19 -12
30 -15 50 -9 10 3 10 2 20 -2 5 -3 9 -6 10 -7 2 -2 12 -7 24 -11 15 -4 22 -8
32 -18 21 -20 24 -30 16 -54 -5 -13 -5 -28 0 -37 3 -6 23 -20 41 -28 45 -21
96 -25 139 -11 24 9 34 17 47 40 9 16 10 17 25 24 31 16 35 22 35 54 0 12 2
29 3 38 5 34 3 56 -7 79 -25 61 -84 129 -165 187 -26 19 -28 21 -31 28 -3 7
-1 19 5 31 7 13 3 34 -6 44 -11 12 -14 29 -6 37 3 3 7 5 9 5 6 0 26 7 33 12 7
5 12 14 12 22 0 7 -8 23 -18 33 -10 10 -11 14 -13 27 -1 6 -2 12 -2 12 -1 1
-3 10 -3 16 -1 4 0 12 1 11 1 0 4 0 7 2 3 2 8 3 10 4 3 0 8 2 12 4 4 2 8 4 10
4 9 1 27 8 34 15 10 10 13 17 20 45 8 31 13 40 27 46 l11 5 0 16 c0 12 -1 16
-3 18 -2 2 -4 5 -5 7 -1 2 -3 5 -4 7 -2 3 -2 5 1 9 4 5 8 5 30 -1 21 -5 28 -4
53 8 11 5 115 110 139 140 3 4 9 11 14 16 4 5 10 12 12 15 8 9 18 7 36 -8 12
-10 16 -17 16 -30 0 -13 -3 -17 -19 -33 -20 -20 -20 -17 -20 -112 0 -86 0 -91
10 -99 6 -5 28 -14 32 -14 2 0 5 -2 7 -4 5 -5 4 -11 -14 -44 -6 -12 -7 -15 -6
-23 1 -5 2 -10 3 -11 2 -2 2 -3 1 -3 -4 0 11 -14 20 -19 14 -8 16 -12 19 -36
1 -11 3 -23 4 -26 2 -7 11 -22 18 -30 3 -2 5 -6 5 -9 1 -3 3 -6 5 -7 6 -5 -2
-17 -17 -26 -24 -14 -29 -16 -40 -17 -15 -2 -23 -4 -27 -6 -2 -1 -4 -2 -4 -1
0 1 -2 -1 -5 -4 -10 -10 -11 -16 -11 -53 0 -38 2 -47 14 -53 9 -5 24 -7 31 -5
8 3 20 0 26 -5 11 -9 10 -32 -1 -44 -11 -11 -15 -33 -9 -46 5 -10 5 -27 0 -34
-4 -6 -8 -8 -17 -10 -4 0 -13 -3 -20 -7 -13 -6 -14 -7 -19 -18 -5 -10 -5 -12
-4 -32 2 -24 2 -37 0 -124 -2 -81 -1 -83 27 -99 9 -5 17 -11 18 -13 5 -9 1
-21 -8 -30 -6 -6 -9 -13 -10 -26 l-1 -14 9 -7 c11 -11 17 -13 28 -14 15 -2 27
7 39 28 13 23 19 25 50 17 9 -2 19 -4 22 -3 3 0 7 1 8 1 3 0 24 20 30 28 5 8
18 8 25 1 4 -4 4 -6 4 -29 0 -29 3 -38 16 -47 14 -9 20 -9 44 3 11 6 22 12 24
14 2 2 5 4 7 5 7 4 9 11 8 26 0 8 -1 16 -2 17 -2 4 -2 2 -8 33 -9 44 -9 42 12
57 5 3 11 10 14 16 l6 9 1 62 c0 67 0 72 -12 84 -10 10 -19 14 -44 15 -32 2
-35 5 -35 35 1 19 6 36 14 42 6 4 27 5 32 1 4 -3 21 -3 30 1 13 5 15 14 15 62
0 26 1 43 2 45 3 6 3 41 0 49 -3 7 -3 21 0 28 3 9 10 11 30 12 29 1 33 1 29 3
-3 1 -3 2 2 3 8 2 9 4 9 16 0 11 -6 19 -15 19 -28 2 -45 1 -45 -2 0 -2 -1 -1
-2 1 -1 3 -4 6 -6 8 -3 2 -5 6 -6 8 -2 15 -16 27 -39 35 -13 4 -27 13 -36 21
-4 4 -6 5 -15 5 -18 -1 -27 -7 -33 -20 -4 -10 -6 -12 -22 -15 -8 -2 -15 -4
-17 -5 -2 0 -3 -1 -4 -1 -13 -3 -21 -29 -13 -43 5 -11 5 -22 -2 -29 -4 -4 -6
-5 -14 -5 -13 0 -19 6 -19 17 2 39 0 63 -7 63 -2 0 -2 7 -3 26 0 32 2 36 20
44 15 8 24 8 45 2 9 -3 19 -6 23 -7 4 0 9 -2 12 -3 6 -3 33 -4 40 -2 6 2 18
19 25 33 2 5 7 10 10 12 5 3 6 3 8 0 2 -2 3 -8 3 -12 0 -5 1 -6 1 -3 1 4 3 4
14 4 6 0 14 0 17 0 3 0 4 1 4 3 -1 2 -2 4 -4 4 -8 1 -9 1 -7 2 2 1 1 3 -2 6
-7 8 -11 14 -12 19 -1 2 -2 4 -3 4 -1 0 -2 1 -2 2 1 5 -8 15 -17 20 -10 5 -12
11 -10 44 1 16 2 33 2 37 1 9 9 19 16 19 7 0 24 11 28 17 2 4 3 11 4 15 0 8
-1 10 -7 16 -12 11 -24 15 -61 21 -39 6 -43 8 -43 25 0 20 13 42 25 42 3 0 14
-4 25 -9 22 -11 23 -12 30 -9 4 1 10 0 19 -2 11 -3 13 -3 13 -1 0 2 1 3 2 2 1
-1 2 -2 1 -3 -1 -1 0 -2 1 -2 5 0 0 8 -5 9 -8 1 -9 10 -2 21 3 4 5 8 4 8 -1 0
1 6 7 25 0 2 1 64 2 138 l1 135 5 5 c4 4 6 5 17 5 7 0 17 -1 24 -3 10 -2 27
-3 86 -2 l74 0 22 9 c25 11 26 11 52 0 18 -8 22 -9 36 -9 20 0 29 4 45 22 18
21 31 21 50 1 l11 -12 14 0 c12 0 14 1 17 4 1 2 6 7 10 10 10 7 19 8 36 2 22
-7 36 -3 47 14 9 15 9 24 2 40 -8 15 -16 18 -40 17 -44 -3 -50 0 -50 29 1 15
-1 24 -6 26 -1 1 -8 2 -15 2 -11 0 -14 -1 -22 -6 -11 -7 -16 -7 -20 0 -2 5 -2
6 4 20 5 12 6 16 6 26 -2 12 -4 15 -44 47 -14 11 -25 20 -26 21 -1 1 -5 4 -9
7 -4 3 -9 7 -10 8 -2 4 -23 3 -31 -1 -14 -9 -16 -22 -7 -55 9 -33 0 -51 -27
-51 -13 0 -13 0 -21 9 -5 5 -9 9 -11 9 -1 0 -2 1 -2 2 0 2 -6 4 -17 5 -4 1 -8
2 -9 2 0 1 -2 0 -5 -1 -2 -1 -11 -4 -20 -6 -22 -6 -29 -11 -37 -26 -7 -14 -13
-22 -27 -32 -25 -18 -33 -19 -66 -13 -12 2 -32 3 -97 3 -45 0 -84 1 -86 2 -8
3 -14 9 -12 12 5 8 0 28 -8 32 -6 3 -28 4 -33 1 -7 -4 -16 -5 -29 -2 -8 2 -19
2 -31 2 -10 -1 -21 -1 -24 -1 -7 0 -14 6 -16 14 -2 11 -7 27 -9 28 -4 3 -18
26 -18 31 0 7 19 43 26 50 7 6 13 6 19 0 5 -5 3 -12 -6 -30 -6 -12 -7 -15 -6
-25 1 -6 2 -11 3 -12 1 0 5 -3 9 -7 12 -12 16 -12 72 6 37 13 46 14 57 7 10
-6 29 -5 39 1 14 9 25 47 19 63 -5 15 -6 37 0 43 4 4 4 4 10 1 13 -9 23 -13
33 -13 12 1 15 1 18 4 4 3 9 25 9 35 0 4 1 11 3 15 4 10 3 30 -2 37 -9 11 -40
22 -56 18 -12 -3 -22 -8 -25 -15 -3 -7 -3 -31 0 -44 2 -7 1 -10 -1 -15 -2 -3
-2 -6 -2 -7 2 -2 -2 -1 -8 1 -9 4 -16 12 -22 30 -3 9 -7 21 -10 27 -3 5 -5 11
-5 13 0 2 -1 4 -2 5 -1 1 -2 2 -1 3 0 1 0 3 -2 5 -2 2 -3 5 -3 7 0 5 -14 19
-23 24 -7 3 -24 8 -37 11 -1 0 -24 7 -49 14 -50 15 -49 14 -76 5 -25 -9 -26
-9 -44 16 -5 8 -6 8 -19 8 -8 1 -14 1 -14 0 0 -1 -2 -4 -5 -7 -6 -7 -6 -5 -6
-35 0 -13 -1 -26 -1 -30 0 -19 7 -29 26 -39 14 -6 14 -7 16 -17 3 -11 0 -17
-13 -32 -7 -8 -13 -17 -15 -22 -5 -15 -13 -26 -25 -33 -13 -8 -25 -20 -25 -24
0 -1 -1 -5 -3 -10 -3 -9 -1 -16 5 -19 6 -3 21 -3 28 1 7 3 23 6 30 4 14 -3 19
-30 10 -47 -7 -13 -7 -37 0 -50 3 -8 4 -13 4 -26 0 -25 6 -36 23 -44 7 -3 14
-6 15 -6 5 0 14 -6 16 -12 4 -9 3 -24 -1 -31 -8 -17 -54 -30 -67 -19 -4 3 -10
24 -15 51 -1 4 -2 9 -3 10 -1 1 -4 8 -7 16 -5 12 -18 27 -24 27 -1 0 -5 2 -8
5 -7 5 -9 5 -20 4 -21 -1 -26 -7 -36 -41 -4 -14 -6 -24 -6 -39 -1 -11 -1 -26
-2 -34 -1 -21 5 -35 17 -40 3 -1 13 -2 22 -2 30 -1 37 -7 36 -31 0 -23 8 -44
16 -44 2 0 4 -1 5 -2 0 -1 11 -2 23 -2 22 1 24 0 35 -6 13 -6 29 -10 40 -10
22 1 29 -4 29 -19 0 -13 -4 -18 -16 -22 -12 -4 -17 -4 -31 0 -8 2 -13 2 -16 1
-3 -1 -5 -1 -6 0 -2 3 -26 1 -37 -3 -11 -4 -22 -12 -22 -16 0 -2 -1 -3 -2 -3
-1 0 -3 -4 -6 -10 -5 -13 -11 -17 -26 -17 -19 0 -26 8 -27 26 0 8 2 14 13 36
7 14 12 26 11 27 0 1 -1 4 -2 7 -3 17 -16 33 -33 40 -7 3 -23 5 -32 3 -8 -2
-44 -20 -44 -22 -1 -4 -1 -5 -4 -10 -5 -9 -16 -22 -19 -22 -2 0 -3 -1 -3 -2 0
0 -3 -1 -8 0 -4 0 -11 -1 -15 -3 -11 -4 -19 -4 -25 2 -9 8 -9 13 -1 40 13 43
6 57 -30 60 -9 1 -12 2 -15 6 -5 5 -5 5 0 11 3 4 6 4 31 5 26 2 27 2 31 -3 2
-3 4 -6 4 -8 0 -1 2 -8 3 -14 3 -10 5 -13 10 -15 17 -8 39 1 52 20 3 4 4 9 3
19 0 14 1 12 -20 30 -13 10 -28 24 -39 34 -4 4 -10 9 -13 12 -3 2 -8 7 -11 10
-3 3 -24 20 -45 39 -21 18 -40 35 -41 36 -5 6 -17 11 -28 11 -17 0 -24 -10
-26 -38 -2 -21 -2 -23 -8 -29 -7 -6 -17 -11 -34 -17 -25 -7 -39 -15 -51 -27
-15 -16 -25 -20 -40 -18 -26 2 -38 9 -38 22 0 9 7 14 20 16 15 2 17 5 18 26 1
6 0 9 -1 9 -2 0 -3 1 -3 3 0 3 -10 6 -20 7 -6 0 -14 5 -15 11 0 2 -1 12 -2 21
-1 17 -6 33 -12 40 -10 11 -35 23 -51 24 -1 0 -5 3 -8 6 -5 5 -6 7 -6 18 0 11
1 13 9 23 5 7 9 15 10 18 3 14 3 16 4 17 1 1 -1 6 -2 12 -2 6 -4 12 -4 14 0 1
-3 10 -6 19 -6 19 -6 29 1 61 5 23 9 28 17 23 3 -2 6 -6 8 -11 4 -8 10 -20 18
-33 3 -5 6 -11 6 -14 2 -14 4 -19 9 -40 7 -24 8 -33 3 -40 -9 -13 -11 -36 -5
-46 4 -6 43 -44 49 -48 7 -4 21 -4 29 0 13 8 18 20 27 65 9 50 17 80 20 85 2
3 10 8 18 12 11 5 17 10 23 17 4 5 12 14 19 21 24 23 27 30 20 45 -6 15 -15
20 -41 25 -24 4 -30 4 -53 -4 -20 -7 -20 -7 -60 -8 -45 -1 -43 -1 -57 20 -8
13 -18 21 -29 25 -6 2 -75 15 -95 17 -23 3 -24 3 -25 0z m829 -97 c3 -3 5 -11
8 -27 5 -31 5 -36 -1 -42 -11 -11 -31 -4 -31 12 0 3 2 17 4 30 5 29 11 36 20
27z m-76 -127 c-6 -6 -7 -6 -11 0 -3 5 -3 5 1 9 5 4 5 4 10 -1 l4 -4 -4 -4z
m702 -176 c21 -9 20 -45 -2 -54 -10 -5 -28 -1 -34 6 -9 10 -9 32 0 42 7 8 24
11 36 6z m-1052 -54 c6 -7 6 -22 0 -28 -4 -4 -7 -5 -15 -5 -8 0 -11 1 -15 5
-6 6 -6 21 0 28 7 8 23 8 30 0z m558 1 c4 -3 8 -12 21 -41 9 -20 7 -42 -5 -54
-6 -6 -10 -6 -21 1 -12 7 -15 19 -18 66 -1 22 -1 24 3 28 5 5 14 5 20 0z m-84
-21 l-5 -5 -4 4 -5 5 4 4 5 5 4 -4 5 -5 -4 -4z m178 1 c5 -6 5 -12 0 -18 -7
-8 -22 -2 -22 9 0 11 15 17 22 9z m-855 -101 c8 -4 15 -13 15 -19 0 -2 1 -4 2
-4 1 0 7 -18 13 -40 1 -6 3 -16 4 -23 1 -11 12 -35 17 -38 1 -1 5 -5 8 -9 9
-12 9 -28 0 -36 -3 -4 -8 -6 -11 -6 -2 0 -7 -1 -10 -2 -3 -2 -7 -3 -8 -3 -21
-5 -29 -20 -34 -63 0 -6 -1 -12 -2 -14 0 -3 -1 -9 -2 -14 -1 -5 -2 -16 -4 -24
-3 -22 1 -44 10 -44 9 -1 22 1 26 3 7 4 17 5 31 1 7 -2 22 -5 34 -6 11 -1 23
-3 26 -5 15 -8 14 -42 -2 -49 -11 -5 -22 -3 -46 7 -13 5 -27 9 -32 10 -6 1
-10 3 -14 9 l-7 8 -17 0 -17 0 -3 -7 c-2 -6 -2 -9 1 -22 5 -24 3 -37 -7 -47
-6 -7 -13 -21 -16 -34 -1 -6 -4 -17 -5 -24 -2 -7 -4 -14 -4 -15 0 -1 -1 -4 -2
-6 0 -2 -1 -6 -2 -9 0 -3 -2 -9 -3 -14 -2 -8 -2 -13 2 -30 5 -27 6 -41 0 -62
-5 -20 -4 -31 4 -48 11 -24 26 -39 48 -50 12 -5 15 -9 18 -19 5 -20 -5 -35
-24 -38 -4 -1 -15 -4 -32 -9 -3 -1 -5 -3 -5 -5 0 -8 -15 -23 -22 -23 -6 0 -13
7 -13 13 0 7 15 21 22 21 6 0 9 3 10 13 1 3 2 9 4 13 3 6 3 7 -1 19 -3 11 -11
24 -15 27 -1 1 -5 7 -9 15 -5 8 -9 14 -12 15 -6 2 -31 3 -31 1 0 -3 -15 -18
-22 -23 -14 -8 -20 -16 -32 -45 -2 -5 -5 -10 -7 -11 -6 -3 -20 -4 -25 -3 -5 2
-10 12 -9 20 0 3 1 7 1 8 0 4 21 24 32 31 2 1 16 30 16 33 0 5 16 15 24 15 6
0 14 12 14 19 -1 4 0 6 0 6 1 -1 2 0 2 1 0 1 -1 2 -2 2 -1 0 -2 3 -3 6 -1 4
-2 6 -5 6 -2 0 -4 1 -5 2 -4 6 -31 0 -34 -7 -2 -5 -17 -11 -29 -12 -20 0 -29
9 -29 29 1 18 7 25 36 36 25 10 37 19 44 34 4 8 18 56 37 128 l14 53 0 41 c-1
45 -1 47 12 59 13 12 15 26 9 49 -4 13 -2 18 14 35 12 12 18 23 22 41 1 7 5
20 7 30 5 21 5 28 -1 45 -11 29 -11 31 -9 41 5 19 24 27 45 17z m169 -11 c4
-2 24 -30 25 -35 0 -1 1 -3 2 -3 1 -1 0 -2 -2 -2 l-4 0 4 -2 c3 -1 1 -2 -7 -2
-6 0 -14 0 -18 -1 -14 -2 -21 -2 -31 2 -6 1 -11 2 -11 2 -1 0 -6 -1 -12 -2 -5
-1 -13 -3 -17 -4 -6 -3 -7 -3 -12 2 l-5 4 4 4 c3 3 8 5 11 6 10 2 20 8 32 20
6 5 13 11 16 12 6 3 19 2 25 -1z m625 -9 c5 -10 1 -34 -9 -44 -5 -6 -17 -6
-34 0 -26 8 -26 26 -1 36 6 2 11 4 12 5 1 1 4 2 6 2 3 0 5 1 5 2 0 1 1 2 2 1
1 -1 2 0 3 1 1 2 4 3 7 4 4 0 6 -1 9 -7z m-569 -38 c4 -5 4 -5 1 -10 -5 -6 -7
-6 -16 -1 -12 7 -13 9 -10 13 5 6 18 5 25 -2z m-398 -25 c5 -5 6 -7 6 -17 0
-10 -1 -12 -6 -17 -5 -5 -7 -6 -17 -6 -10 0 -12 1 -17 6 -5 5 -6 7 -6 17 0 10
1 12 6 17 5 5 7 6 17 6 10 0 12 -1 17 -6z m519 0 c-1 -1 0 -2 1 -2 3 0 10 -8
15 -15 4 -9 4 -21 0 -25 -8 -7 -17 -10 -22 -8 -10 6 -12 17 -5 36 2 6 3 12 2
13 -1 1 0 2 4 3 4 0 6 -1 5 -2z m-168 -29 c5 -3 12 -21 11 -27 -2 -12 -32 -15
-40 -4 -6 7 -5 23 1 29 6 6 21 7 28 2z m595 -26 c28 -14 30 -15 60 -3 17 7 19
7 24 2 8 -8 3 -18 -13 -26 -9 -4 -26 -20 -30 -28 -4 -8 -14 -13 -26 -13 -15 0
-20 3 -32 20 -3 4 -9 12 -14 16 -5 5 -10 11 -12 13 -4 7 -4 20 1 25 8 8 17 7
42 -6z m-517 -16 c17 -5 30 -12 37 -20 5 -5 6 -8 7 -24 3 -34 -1 -48 -15 -51
-13 -2 -20 1 -34 16 -8 8 -19 17 -27 22 -8 4 -16 10 -17 12 -3 6 -6 36 -4 40
6 10 31 13 53 5z m449 -53 c2 0 6 -2 9 -5 8 -8 6 -31 -4 -40 -10 -9 -13 -24
-8 -36 2 -6 5 -8 14 -12 16 -7 23 -14 23 -22 0 -8 -7 -15 -15 -15 -7 0 -9 1
-18 9 -12 12 -34 23 -46 23 -7 0 -13 9 -13 19 0 10 11 46 21 66 4 8 22 16 31
14 1 -1 4 -1 6 -1z m-937 -26 c8 -8 8 -24 0 -32 -3 -3 -8 -6 -10 -6 -6 0 -27
-7 -38 -12 -8 -4 -18 -14 -14 -14 1 0 0 -1 -1 -3 -2 -3 -3 -11 -3 -29 -1 -28
-4 -67 -7 -72 -4 -7 -11 -10 -22 -10 -15 0 -22 7 -22 22 0 10 1 13 18 44 15
26 15 25 15 51 0 28 0 28 17 37 5 2 17 10 24 17 8 7 17 13 19 13 9 2 18 0 24
-6z m367 -15 c3 -3 4 -7 4 -14 0 -13 -6 -19 -19 -19 -13 0 -19 6 -19 19 0 7 1
11 4 14 7 8 23 8 30 0z m-341 -90 c4 -4 5 -7 5 -15 0 -14 -6 -20 -20 -20 -14
0 -20 6 -20 20 0 14 6 20 20 20 8 0 11 -1 15 -5z m418 -25 c11 -10 3 -28 -11
-28 -9 0 -16 6 -16 16 0 14 17 22 27 12z m608 -83 c12 -12 3 -31 -13 -31 -11
0 -18 7 -18 18 0 11 7 18 18 18 6 0 9 -1 13 -5z m-673 -29 c13 -3 19 -7 23
-19 2 -5 5 -9 6 -9 0 0 1 -1 1 -2 0 -1 -1 -2 -3 -2 -2 0 -6 -2 -9 -5 -3 -3 -7
-6 -10 -6 -3 -1 -8 -3 -11 -4 -25 -11 -47 -10 -54 4 -8 14 -3 36 8 41 13 4 33
5 49 2z m-444 -11 c16 -7 20 -37 7 -48 -9 -9 -26 -11 -39 -4 -12 6 -15 34 -4
46 7 8 24 11 36 6z m1218 -70 c0 -1 -6 -1 -14 -1 -10 0 -14 1 -12 2 2 1 24 1
26 -1z m-1278 -22 c4 -4 4 -4 0 -8 l-5 -5 -4 4 c-5 4 -5 5 -2 8 4 5 7 5 11 1z
m399 -70 c5 -8 1 -16 -8 -16 -9 0 -13 8 -8 16 2 3 5 5 8 5 3 0 6 -2 8 -5z m63
-50 l-5 -5 -4 4 -5 5 4 4 5 5 4 -4 5 -5 -4 -4z m760 -31 c7 -7 8 -21 2 -36 -6
-14 -5 -31 0 -40 12 -19 15 -29 12 -40 -4 -15 -11 -20 -27 -21 -15 -1 -26 7
-29 21 -1 5 -2 12 -1 14 2 5 -2 25 -6 32 -2 3 -7 8 -12 11 -10 6 -15 14 -15
24 0 10 4 16 17 23 30 20 48 23 59 12z m-98 -81 c5 -5 5 -17 0 -22 -9 -10 -26
-3 -26 10 0 12 17 20 26 12z m-588 -29 c1 0 5 -3 8 -6 5 -5 6 -7 6 -18 0 -11
-1 -13 -6 -18 -6 -6 -8 -7 -21 -6 -36 2 -45 -2 -55 -28 -11 -30 -14 -32 -31
-25 -14 6 -16 10 -14 30 2 29 12 51 24 51 3 0 10 0 16 0 13 1 30 5 35 9 7 6
21 12 28 12 4 -1 8 -1 10 -1z m557 -67 c12 -7 14 -33 3 -43 -8 -9 -32 -9 -40
0 -9 8 -9 32 0 41 7 7 27 8 37 2z m-748 -2 c12 -7 14 -33 3 -43 -8 -9 -33 -9
-40 0 -9 11 -9 32 0 41 7 7 27 8 37 2z m133 -65 c11 -4 20 -8 22 -10 3 -4 23
-9 32 -9 2 0 12 2 23 4 11 2 27 4 35 4 l16 2 5 -7 c7 -7 17 -32 17 -41 0 -15
-5 -21 -30 -33 -10 -5 -25 -6 -33 -1 -3 1 -10 7 -16 13 -16 16 -29 20 -50 13
-13 -4 -22 -4 -31 1 -21 11 -26 34 -14 57 4 8 6 10 12 11 1 0 6 -2 12 -4z
m651 -84 c7 -2 21 -5 31 -6 21 -3 26 -7 26 -19 0 -9 -4 -14 -16 -20 -12 -6
-18 -13 -23 -28 -1 -2 -1 -12 -1 -22 0 -33 -5 -50 -22 -70 -15 -17 -15 -17
-26 -19 -21 -3 -30 5 -30 24 0 9 1 14 6 23 8 14 12 30 12 42 0 4 1 13 3 20 4
15 4 31 0 44 -3 14 -2 23 4 29 8 9 14 9 36 2z"/>
<path d="M1642 3551 c-1 -1 -1 -6 -1 -11 l0 -10 14 0 c8 -1 14 0 14 0 -1 1 0
2 1 2 2 1 3 5 3 9 0 4 0 7 -1 6 -1 -1 -2 0 -2 2 -1 4 -25 6 -28 2z"/>
<path d="M244 3460 c-19 -4 -22 -11 -30 -50 -8 -41 -7 -54 7 -66 11 -9 29 -8
40 2 2 2 12 7 21 12 31 15 30 14 38 30 6 11 7 16 6 18 -1 2 -2 6 -2 8 0 3 -3
10 -6 16 -6 12 -14 17 -42 27 -16 5 -20 6 -32 3z"/>
<path d="M35 3347 c-13 -4 -19 -13 -22 -28 -1 -6 1 -13 8 -35 12 -35 17 -44
33 -51 11 -6 12 -6 48 -6 35 0 38 0 46 5 l10 4 0 15 1 16 -8 5 c-10 6 -19 14
-19 17 0 5 8 11 23 17 9 3 15 6 13 6 -2 0 -2 4 -2 15 l1 14 -9 5 c-9 4 -11 4
-63 4 -36 0 -56 -1 -60 -3z"/>
<path d="M1632 3176 c-5 -2 -15 -12 -22 -22 -3 -4 -5 -7 -6 -8 -1 -1 -8 -10
-17 -22 -9 -12 -16 -21 -17 -22 -1 -1 -3 -4 -6 -8 -3 -4 -7 -9 -9 -12 -3 -3
-5 -6 -5 -6 0 -1 -3 -5 -6 -8 -13 -15 -16 -33 -8 -52 5 -13 5 -33 0 -39 -5 -5
-16 -5 -35 -1 -17 5 -49 5 -53 1 -1 -2 -2 -7 -2 -11 -1 -27 1 -29 16 -31 12
-1 20 -5 21 -11 7 -21 18 -36 30 -41 10 -5 11 -5 76 -4 65 0 70 0 74 4 1 1 5
3 8 5 4 2 10 8 13 14 8 11 15 16 24 16 9 0 16 -5 24 -16 3 -6 9 -12 13 -14 3
-2 7 -4 8 -5 4 -3 12 -4 54 -4 47 0 52 1 63 13 5 6 6 8 6 19 0 7 -1 13 -2 13
-5 0 -13 19 -17 45 -6 33 -16 62 -23 69 -3 3 -6 6 -7 6 -2 0 -22 15 -27 21 -3
4 -9 10 -15 14 -5 4 -11 9 -12 10 -1 1 -5 4 -9 7 -4 3 -8 6 -9 7 -1 1 -8 7
-16 13 -8 6 -14 11 -15 12 -1 1 -9 7 -18 14 -21 16 -19 15 -29 23 -14 12 -30
16 -45 11z m-1 -122 c10 -9 3 -26 -10 -26 -8 0 -15 7 -15 15 0 13 16 20 25 11z
m157 -30 c4 -3 5 -6 6 -16 1 -17 -4 -31 -14 -37 l-8 -6 -33 2 c-22 0 -35 2
-40 4 -17 7 -13 33 5 33 4 0 10 1 14 2 4 1 7 2 8 2 1 -1 19 8 20 10 7 10 33
14 42 6z m-163 -54 c6 -6 7 -19 1 -25 -5 -6 -44 -25 -54 -26 -21 -3 -25 29 -4
35 4 1 14 6 22 11 17 11 28 12 35 5z"/>
<path d="M1648 2751 c-4 -2 -10 -9 -14 -14 -4 -6 -7 -10 -8 -11 -1 -1 -7 -9
-14 -18 -7 -9 -14 -18 -15 -19 -1 -1 -2 -6 -1 -15 1 -13 7 -24 14 -27 14 -5
19 -27 10 -36 -4 -4 -7 -5 -14 -5 -12 1 -28 0 -32 -1 -6 -1 -14 -6 -14 -7 0
-1 -1 -3 -2 -5 -6 -6 -12 -18 -12 -21 0 -2 -1 -4 -2 -4 -2 0 -2 -5 -2 -16 1
-15 4 -22 10 -22 2 0 4 -1 6 -3 4 -4 26 -11 40 -13 17 -2 21 -6 21 -23 1 -27
7 -41 20 -47 7 -3 15 -4 88 -3 l80 0 20 10 c12 6 21 9 24 8 7 -1 18 -6 23 -9
3 -2 10 -4 15 -6 24 -5 56 13 71 39 10 17 7 35 -8 51 -7 7 -44 39 -61 54 -5 3
-11 8 -13 10 -3 3 -8 7 -12 10 -4 3 -8 6 -10 8 -2 2 -10 9 -18 15 -8 7 -16 13
-17 14 -1 1 -5 4 -9 7 -4 3 -9 7 -12 10 -3 2 -9 7 -15 11 -12 8 -25 9 -45 4
-11 -3 -13 -3 -18 0 -6 4 -9 11 -11 24 -3 22 -19 49 -31 53 -8 3 -24 2 -32 -3z
m70 -128 c12 -5 19 -13 24 -29 3 -8 5 -16 5 -17 0 -1 2 -8 4 -14 7 -24 2 -35
-16 -35 -12 0 -17 4 -21 17 -2 10 -9 26 -13 31 -1 1 -6 7 -11 12 -6 7 -10 12
-10 16 -1 24 12 31 38 19z m122 -61 c5 -5 5 -11 0 -16 -10 -10 -27 5 -16 16 4
4 12 4 16 0z"/>
<path d="M1516 2499 c-5 -3 -12 -8 -16 -12 -6 -6 -7 -7 -5 -17 2 -20 14 -30
36 -30 23 0 34 10 37 30 1 11 0 13 -17 25 -13 10 -21 11 -35 4z"/>
<path d="M335 2299 c-7 -4 -9 -8 -16 -26 -2 -7 -3 -11 -1 -20 2 -11 9 -25 12
-25 1 0 3 -4 6 -8 4 -8 4 -8 0 -15 -6 -15 -38 -21 -63 -13 -15 5 -33 5 -41 -2
-3 -2 -14 -15 -24 -30 -11 -15 -22 -30 -25 -34 -35 -43 -47 -58 -75 -87 -9 -9
-20 -22 -25 -29 -9 -11 -18 -19 -42 -37 -3 -2 -10 -8 -15 -12 -8 -8 -9 -10
-10 -20 -2 -23 4 -27 38 -24 15 1 24 1 36 -2 11 -2 21 -3 27 -2 19 2 42 13 47
23 4 7 5 29 2 37 -2 6 -2 8 1 12 5 6 7 6 17 0 5 -4 11 -8 14 -9 5 -4 29 -6 30
-2 1 0 5 4 9 7 4 3 11 8 14 11 8 7 20 35 22 51 0 4 1 15 2 24 2 16 5 25 10 25
3 0 17 -6 19 -8 2 -2 13 -7 23 -11 8 -3 11 -3 17 -1 12 4 27 11 32 16 3 3 12
11 20 19 l16 13 0 15 c0 13 -1 14 -6 19 -4 3 -8 6 -9 6 -4 0 -13 11 -13 16 0
8 7 22 14 30 11 12 10 29 -5 45 -5 5 -12 15 -15 22 -8 17 -16 26 -24 27 -4 0
-8 1 -10 2 -2 1 -5 0 -9 -3z"/>
</g>
</svg>
