<?xml version="1.0" standalone="no"?>
<!DOCTYPE svg PUBLIC "-//W3C//DTD SVG 20010904//EN"
 "http://www.w3.org/TR/2001/REC-SVG-20010904/DTD/svg10.dtd">
<svg version="1.0" xmlns="http://www.w3.org/2000/svg"
 width="1100.000000pt" height="2850.000000pt" viewBox="0 0 1100.000000 2850.000000"
 preserveAspectRatio="xMidYMid meet">
<metadata>
Created by potrace 1.15, written by Peter Selinger 2001-2017
</metadata>
<g transform="translate(0.000000,2850.000000) scale(0.500000,-0.500000)"
fill="#000000" stroke="none">
<path d="M1648 3836 c-12 -3 -25 -13 -23 -16 1 -1 0 -2 -1 -2 -5 0 -6 -18 -6
-114 l0 -99 -6 -6 c-3 -2 -6 -4 -6 -4 -1 0 -22 3 -47 5 -41 4 -47 4 -60 2 -23
-5 -33 -3 -61 7 -5 2 -20 5 -34 6 -23 3 -25 3 -37 -1 -7 -2 -13 -5 -13 -6 0
-1 -1 -2 -2 -2 -3 0 -17 -15 -26 -26 -8 -11 -9 -18 -9 -90 -1 -89 -3 -82 29
-113 8 -8 8 -14 0 -22 -32 -30 -30 -25 -30 -107 0 -46 1 -67 2 -72 6 -15 19
-23 43 -25 15 -1 22 -9 22 -23 0 -16 -7 -22 -27 -23 -21 -2 -23 -2 -33 3 -9 4
-18 12 -31 28 -29 35 -32 37 -45 36 -5 -1 -9 0 -9 1 0 1 -2 4 -4 8 -5 6 -5 7
-6 82 -1 68 -2 77 -5 85 -2 4 -4 8 -5 8 -1 0 -2 1 -2 2 0 1 -3 6 -6 10 -7 8
-7 10 -7 23 0 13 0 15 7 23 3 4 6 9 6 10 0 1 1 2 2 2 1 0 3 5 6 11 4 10 4 15
4 49 0 37 0 37 5 43 3 3 5 7 5 8 0 0 1 1 3 1 3 0 33 15 35 18 1 1 4 3 8 6 9 6
20 16 20 19 0 1 1 3 3 4 3 4 4 15 1 25 -2 7 -20 28 -24 28 -1 0 -4 2 -6 4 -3
3 -10 8 -16 13 -6 4 -11 8 -12 9 -1 1 -5 4 -9 7 -4 3 -9 7 -10 8 -1 1 -5 4 -8
6 -3 2 -7 5 -9 7 -9 7 -11 9 -19 15 -4 3 -9 7 -11 8 -2 2 -19 15 -38 30 -19
15 -38 29 -42 32 -13 11 -18 13 -31 13 -16 -1 -20 -4 -38 -27 -43 -52 -60 -69
-68 -72 -14 -5 -5 -8 -140 42 -29 11 -62 23 -74 28 -12 4 -22 8 -23 8 -1 0 -3
1 -5 2 -5 2 -19 0 -26 -5 -11 -6 -14 -16 -15 -44 -1 -25 -1 -27 -9 -35 -1 -2
-3 -2 -5 1 -2 2 -7 6 -12 10 -5 4 -10 8 -12 9 -6 6 -27 17 -39 20 -21 6 -35 2
-60 -17 -7 -5 -11 -7 -19 -7 -13 0 -20 5 -25 18 -2 6 -4 10 -5 11 -1 0 -2 1
-1 2 0 1 -1 3 -4 6 -4 4 -5 4 -18 2 -9 -2 -15 -3 -16 -6 -2 -2 -10 -12 -18
-21 -8 -10 -15 -18 -15 -19 0 -3 -17 -9 -26 -8 -7 0 -41 11 -124 41 -63 23
-115 42 -116 43 0 1 -5 0 -11 -1 -14 -3 -23 -11 -27 -23 -2 -7 -2 -91 -2 -355
l1 -346 -6 -6 -6 -6 -30 1 c-42 0 -53 -5 -59 -28 -2 -9 -2 -11 5 -35 15 -52
27 -62 72 -61 21 1 23 2 41 10 23 10 38 11 47 3 6 -4 6 -6 6 -20 0 -21 -3 -24
-28 -25 -13 -1 -19 -3 -26 -7 -17 -9 -17 -11 -18 -86 0 -72 -2 -64 17 -92 12
-19 11 -24 -7 -49 -10 -13 -13 -22 -14 -40 -3 -59 -5 -91 -6 -109 -6 -79 -9
-110 -18 -185 -2 -14 -5 -36 -9 -60 -2 -14 -5 -33 -5 -43 -1 -19 -2 -24 -7
-29 -1 -2 -2 -4 -1 -4 1 0 1 -1 0 -2 -2 -2 -3 -7 -4 -12 -1 -11 -12 -57 -16
-71 -2 -5 -6 -20 -9 -32 -8 -29 -22 -73 -32 -99 -8 -20 -8 -21 -8 -48 0 -28 1
-32 8 -32 2 0 8 -3 15 -7 14 -9 29 -11 42 -5 10 4 31 26 65 67 4 4 9 11 12 14
4 3 6 7 6 7 0 1 1 3 3 4 10 11 61 86 66 96 0 2 3 7 6 11 3 4 8 13 11 19 9 17
14 21 25 21 18 0 55 -12 73 -24 6 -4 13 -8 16 -9 3 -2 5 -3 6 -4 1 -1 4 -3 8
-5 11 -5 13 -13 11 -36 -2 -15 -2 -26 0 -41 2 -12 3 -25 3 -31 2 -31 23 -52
51 -48 25 3 65 9 72 11 19 5 43 13 57 19 18 8 24 8 24 -2 0 -3 -1 -9 -2 -13
-4 -10 1 -27 10 -37 8 -9 32 -21 42 -21 17 0 22 3 47 29 13 13 29 30 35 38 6
8 12 15 14 17 2 2 5 6 7 9 2 3 5 7 6 8 1 1 7 8 12 16 5 8 10 14 11 15 5 4 36
58 36 62 0 2 14 25 26 43 12 19 15 21 34 22 12 1 22 5 36 16 11 10 22 21 21
23 -1 1 0 2 1 2 1 1 3 6 4 12 1 10 0 11 -8 19 -5 5 -12 11 -16 13 -4 1 -10 6
-13 9 -3 4 -8 7 -10 9 -2 1 -3 2 -2 2 3 0 2 2 -2 15 -1 1 -3 3 -6 3 -2 0 -6 1
-8 1 -2 1 -7 -1 -11 -2 -12 -6 -25 -5 -32 3 -6 5 -7 7 -7 16 0 15 8 23 23 23
9 0 20 -5 20 -10 0 -1 2 -4 4 -7 4 -6 5 -6 19 -6 15 0 23 3 23 10 0 2 3 14 6
26 3 11 6 23 7 26 0 3 3 15 6 27 5 20 13 67 16 83 0 4 2 16 4 27 6 41 14 120
16 172 4 80 4 79 -6 93 -3 4 -10 11 -15 14 -18 12 -21 22 -9 33 4 4 9 7 10 7
4 0 18 15 21 24 4 8 4 14 4 52 l0 43 6 0 6 0 0 -340 0 -339 -5 -12 c-4 -7 -8
-13 -14 -18 -12 -9 -13 -11 -13 -28 0 -12 0 -15 5 -22 7 -10 8 -25 3 -36 -12
-25 -14 -36 -9 -55 3 -15 6 -42 8 -72 2 -32 14 -48 38 -50 11 -1 42 4 48 8 2
2 3 3 2 3 -1 0 -1 1 1 2 3 1 3 5 4 16 0 13 0 14 -7 21 -6 6 -7 8 -7 18 0 10 1
12 6 17 5 5 7 6 16 6 7 0 13 -1 16 -3 8 -6 27 -5 42 3 19 9 23 8 36 -5 l12
-11 14 0 15 0 9 13 c23 31 35 66 40 114 1 10 1 187 1 393 l0 375 6 6 6 6 33 0
33 0 6 -6 6 -6 -1 -166 c0 -164 0 -166 4 -182 3 -9 6 -20 9 -25 2 -5 4 -11 4
-13 1 -5 1 -5 11 -6 5 -1 10 -3 10 -4 1 -1 2 -1 2 1 0 7 34 22 49 22 8 0 16
-6 21 -16 1 -4 6 -10 11 -14 26 -25 26 -24 20 -32 -4 -4 -4 -4 -22 -1 -10 1
-24 2 -31 2 -28 -3 -38 0 -42 11 -1 4 -3 9 -4 10 -1 2 -2 6 -2 9 0 4 -1 5 -1
3 -1 -3 -4 -4 -18 -4 -15 0 -16 0 -18 -5 -5 -9 -4 -120 0 -130 4 -9 14 -21 18
-21 2 0 3 -1 3 -2 0 -5 77 -4 108 2 23 4 60 15 75 22 4 2 12 5 16 7 16 7 39
24 41 31 4 12 0 33 -6 29 -1 -1 -2 0 -2 1 0 1 -14 7 -17 6 -5 -1 -10 0 -14 5
-6 6 -7 22 -1 29 4 5 20 9 20 5 0 -1 1 -1 2 0 1 2 5 3 20 7 5 2 14 12 16 20 2
5 2 21 1 49 -1 23 -1 51 -1 63 0 12 1 158 1 326 1 266 1 308 -2 326 -3 19 -3
23 0 41 2 14 3 38 3 88 0 63 0 69 4 76 2 4 4 7 4 5 0 -2 1 -2 1 0 1 1 3 0 5
-5 4 -6 4 -12 4 -64 0 -68 2 -75 21 -93 16 -15 16 -39 0 -54 -8 -8 -13 -15
-17 -26 -4 -10 -4 -19 -4 -152 0 -155 0 -154 12 -167 3 -4 10 -10 16 -14 14
-8 16 -12 16 -23 0 -11 -2 -15 -16 -23 -26 -17 -28 -23 -28 -86 0 -53 1 -61
12 -76 14 -20 15 -27 5 -48 -10 -21 -15 -34 -15 -40 0 -4 -1 -93 -1 -199 l-1
-192 -5 -6 -6 -6 -27 1 c-39 1 -62 3 -140 8 -47 3 -52 3 -65 -5 -11 -7 -18
-23 -17 -41 1 -16 7 -31 15 -35 11 -4 23 -2 36 6 11 8 16 9 27 8 9 -1 13 -5
21 -21 8 -17 20 -31 35 -39 13 -8 32 -27 38 -42 13 -26 22 -63 26 -103 1 -12
2 -25 3 -28 2 -18 14 -34 30 -38 10 -3 13 -3 42 1 32 4 62 10 83 15 6 2 13 4
15 4 19 4 42 16 44 22 3 10 1 30 -3 36 -5 8 -5 25 0 31 6 8 28 9 34 0 2 -2 6
-7 9 -12 3 -4 8 -9 12 -10 7 -2 27 -2 27 0 0 0 3 4 7 8 17 19 23 30 35 54 13
29 20 58 24 99 3 32 3 360 0 370 -3 10 -9 18 -23 32 -6 6 -11 13 -11 15 -1 5
-1 11 0 16 0 2 5 9 11 15 14 14 20 22 23 32 2 7 2 121 2 483 0 468 0 475 -4
490 -2 8 -5 18 -5 24 -1 20 -9 41 -17 47 -8 5 -12 13 -12 25 0 18 7 25 30 26
21 1 36 7 51 20 7 7 13 14 13 15 0 2 1 3 2 3 1 1 5 8 9 17 5 14 6 17 5 25 -5
24 -17 31 -70 36 -44 5 -51 4 -61 -9 -5 -5 -14 -22 -13 -24 1 -3 -8 -8 -12 -8
-6 0 -13 6 -11 10 0 2 0 3 -1 4 -1 1 -2 3 -2 6 0 6 -8 21 -13 25 -10 8 -16 9
-82 15 -74 8 -72 7 -79 5z m-1371 -216 c14 -6 16 -36 3 -48 -16 -15 -45 -23
-57 -15 -10 6 -9 27 1 42 16 22 32 28 53 21z m651 1 c3 -2 7 -7 9 -12 2 -4 4
-10 5 -12 2 -3 1 -4 -7 -7 -19 -8 -37 0 -37 16 0 15 16 23 30 15z m62 -29 c7
-7 4 -15 -10 -32 -15 -18 -14 -9 -14 -184 0 -112 1 -159 2 -164 2 -4 8 -15 15
-24 17 -20 17 -22 0 -42 -15 -20 -17 -25 -17 -56 0 -24 4 -42 8 -42 1 0 1 -2
1 -4 -2 -6 2 -11 9 -11 7 -1 11 -4 15 -11 3 -5 2 -6 -2 -10 l-4 -4 -9 5 c-8 4
-9 5 -10 15 -1 2 -2 3 -5 3 -4 0 -5 1 -5 3 0 2 -2 5 -5 7 l-5 4 0 261 c0 259
0 272 -6 276 -5 3 4 9 17 11 17 3 21 3 25 -1z m-579 -39 c4 -4 4 -7 4 -255 l0
-251 -5 -5 c-3 -3 -5 -5 -5 -5 0 0 -2 2 -5 5 l-5 5 0 251 c0 248 0 251 4 255
2 2 5 4 6 4 1 0 4 -2 6 -4z m1033 -21 c1 0 5 -3 8 -6 5 -5 6 -7 6 -18 0 -11
-1 -13 -6 -18 -6 -6 -7 -6 -18 -6 -11 0 -12 0 -18 6 -5 5 -6 7 -6 17 0 14 3
20 12 24 5 2 8 2 22 1z m-762 -91 c2 -14 4 -29 4 -33 0 -8 -6 -21 -10 -20 -1
0 -2 -2 -2 -3 0 -2 -2 1 -4 7 -2 6 -5 14 -7 18 -2 3 -3 6 -2 6 1 0 0 3 -2 8
-3 8 -17 22 -17 17 0 -2 -1 -2 -5 -1 -4 1 -6 2 -7 2 -4 0 -14 6 -16 10 -4 7
-2 18 3 23 6 6 19 7 24 2 1 -2 3 -2 4 -2 0 1 3 2 6 2 18 2 21 3 21 9 0 6 6
-18 10 -45z m-482 35 c1 0 5 -3 8 -6 5 -5 6 -7 6 -18 0 -11 -1 -13 -6 -18 -6
-6 -7 -6 -18 -6 -11 0 -12 0 -18 6 -5 5 -6 7 -6 17 0 14 3 20 12 24 5 2 8 2
22 1z m633 -3 c12 -7 14 -33 3 -43 -8 -9 -32 -9 -40 0 -9 8 -9 32 0 41 7 7 27
8 37 2z m-512 -69 c11 -10 3 -28 -11 -28 -9 0 -16 6 -16 16 0 14 17 22 27 12z
m286 -55 c5 -8 1 -16 -8 -16 -9 0 -13 8 -8 16 2 3 5 5 8 5 3 0 6 -2 8 -5z
m198 -14 c6 -4 6 -6 6 -20 0 -14 0 -16 -6 -20 -4 -4 -7 -5 -18 -5 -11 0 -14 1
-18 5 -6 4 -6 6 -6 20 0 14 0 16 6 20 4 4 7 5 18 5 11 0 14 -1 18 -5z m725 -4
c3 -3 4 -7 4 -14 0 -13 -6 -19 -19 -19 -13 0 -19 6 -19 19 0 7 1 11 4 14 7 8
23 8 30 0z m226 -46 l-5 -5 -4 4 -5 5 4 4 5 5 4 -4 5 -5 -4 -4z m67 -68 c5 -8
1 -16 -8 -16 -9 0 -13 8 -8 16 2 3 5 5 8 5 3 0 6 -2 8 -5z m50 -60 c3 -5 3 -5
0 -10 -2 -3 -5 -5 -7 -5 -2 0 -5 2 -7 5 -3 5 -3 5 0 10 2 3 5 5 7 5 2 0 5 -2
7 -5z m-648 -66 c12 -12 3 -31 -13 -31 -11 0 -18 7 -18 18 0 11 7 18 18 18 6
0 9 -1 13 -5z m569 -43 c5 -6 5 -12 0 -18 -7 -8 -22 -2 -22 9 0 11 15 17 22 9z
m-679 -23 c12 -12 3 -31 -13 -31 -11 0 -18 7 -18 18 0 11 7 18 18 18 6 0 9 -1
13 -5z m415 -9 c5 -5 6 -7 6 -17 0 -10 -1 -12 -6 -17 -5 -5 -7 -6 -17 -6 -10
0 -12 1 -17 6 -5 5 -6 7 -6 17 0 10 1 12 6 17 5 5 7 6 17 6 10 0 12 -1 17 -6z
m-1272 -57 l-5 -5 -4 4 -5 5 4 4 5 5 4 -4 5 -5 -4 -4z m153 -54 l4 -4 -1 -205
c0 -220 0 -218 10 -228 4 -5 23 -15 29 -16 5 -1 11 -9 11 -15 0 -7 -6 -19 -10
-21 -16 -5 -34 -24 -38 -39 -1 -5 -2 -45 -2 -105 0 -85 0 -98 3 -108 6 -19 7
-25 6 -30 -4 -17 -11 -23 -28 -23 -19 0 -28 9 -28 28 0 5 1 11 3 15 3 8 1 26
-4 32 -2 3 -4 5 -4 6 0 2 -14 6 -29 7 -8 1 -17 2 -22 2 -9 1 -18 8 -16 14 1 2
1 5 2 6 0 1 1 4 2 7 4 9 21 59 23 66 1 4 4 15 7 24 3 9 8 28 11 41 6 24 6 23
2 53 -1 12 2 26 7 31 10 10 18 40 24 84 0 4 2 19 4 33 4 31 8 81 10 106 1 10
2 24 2 29 0 6 1 15 2 21 1 14 4 105 4 146 0 18 1 31 1 31 1 -1 1 1 0 3 -1 3 0
6 3 9 5 5 6 5 12 0z m-61 -17 c5 -5 5 -11 0 -16 -7 -7 -21 -1 -20 9 2 10 13
14 20 7z m1057 -3 c12 -7 14 -33 3 -43 -8 -9 -32 -9 -40 0 -9 8 -9 32 0 41 7
7 27 8 37 2z m-1119 -23 c6 -6 10 -12 10 -13 0 -3 11 -16 22 -27 10 -10 12
-12 13 -21 1 -9 7 -33 10 -41 1 -2 2 -4 2 -4 0 -1 1 -2 2 -3 3 -3 1 -22 -3
-27 -6 -8 -27 -9 -34 0 -2 2 -4 8 -5 13 -2 16 -11 43 -16 51 -8 10 -21 24 -23
24 -1 0 -3 1 -5 2 -1 1 -6 5 -10 8 -10 7 -12 14 -10 30 1 13 7 18 24 18 l13 0
10 -10z m1231 -10 c5 -5 6 -7 6 -16 0 -15 -8 -23 -23 -23 -9 0 -11 1 -16 7 -9
8 -9 23 -1 32 9 9 24 9 34 0z m-816 -47 c19 -17 18 -16 22 -35 2 -9 3 -22 3
-28 0 -14 -4 -19 -19 -26 -11 -6 -14 -8 -16 -14 0 -5 0 -5 -1 1 0 3 -1 5 -2 5
-4 0 -8 24 -8 56 0 31 0 32 5 41 3 5 5 11 5 13 0 2 1 1 1 -1 1 -3 5 -8 10 -12z
m1068 -31 c6 -8 4 -24 -3 -34 -15 -20 -15 -19 -15 -45 l1 -23 -6 -6 c-5 -5 -7
-6 -17 -6 -16 0 -23 7 -23 22 0 11 5 22 11 25 1 0 5 6 8 12 5 11 6 14 5 31 0
16 1 20 4 24 7 9 27 9 35 0z m-1184 -186 c7 -6 7 -19 1 -25 -6 -7 -19 -7 -25
-1 -7 6 -7 19 -1 25 6 7 19 7 25 1z m518 -96 c5 -5 6 -7 6 -16 0 -15 -8 -23
-23 -23 -9 0 -11 1 -16 7 -9 8 -9 23 -1 32 9 9 24 9 34 0z m-878 -87 c3 -3 3
-3 0 -6 -3 -3 -3 -3 -6 0 -3 2 -3 3 -1 6 4 4 4 4 7 0z m1639 -77 c5 -6 5 -12
0 -18 -7 -8 -22 -2 -22 9 0 11 15 17 22 9z m-1717 -104 c4 -5 4 -7 4 -28 0
-13 -1 -25 -2 -28 -3 -15 -32 -17 -39 -4 -5 10 -5 18 4 35 9 18 11 21 18 26 6
4 9 4 15 -1z m574 -54 c4 -6 4 -24 -1 -30 -7 -9 -27 -9 -34 0 -5 6 -5 24 0 30
7 9 27 9 35 0z m-200 -46 c7 -6 7 -19 1 -25 -6 -7 -19 -7 -25 -1 -7 6 -7 19
-1 25 6 7 19 7 25 1z m1300 -32 c7 -6 7 -19 1 -25 -6 -7 -19 -7 -25 -1 -7 6
-7 19 -1 25 6 7 19 7 25 1z m-114 -87 c6 -4 6 -6 6 -20 0 -14 0 -16 -6 -20 -4
-4 -7 -5 -18 -5 -11 0 -14 1 -18 5 -6 4 -6 6 -6 20 0 14 0 16 6 20 4 4 7 5 18
5 11 0 14 -1 18 -5z"/>
<path d="M517 3780 c1 -1 0 -3 -2 -3 -2 -1 -2 -2 -2 -3 1 -1 0 -2 -1 -2 -1 0
-2 -1 -1 -2 0 -1 -2 -3 -4 -5 -4 -3 -4 -4 -2 -7 2 -1 3 -1 3 0 0 1 1 2 2 1 1
-1 2 0 2 1 0 1 1 2 2 2 5 -2 8 3 8 12 0 5 -1 7 -3 7 -2 0 -2 0 -2 -1z"/>
<path d="M1091 1998 c-14 -2 -19 -5 -24 -13 -5 -8 -4 -19 3 -26 5 -5 20 -6 27
-3 9 4 15 19 12 33 -2 9 -5 11 -18 9z"/>
</g>
</svg>
