<?xml version="1.0" standalone="no"?>
<!DOCTYPE svg PUBLIC "-//W3C//DTD SVG 20010904//EN"
 "http://www.w3.org/TR/2001/REC-SVG-20010904/DTD/svg10.dtd">
<svg version="1.0" xmlns="http://www.w3.org/2000/svg"
 width="1100.000000pt" height="2850.000000pt" viewBox="0 0 1100.000000 2850.000000"
 preserveAspectRatio="xMidYMid meet">
<metadata>
Created by potrace 1.15, written by Peter Selinger 2001-2017
</metadata>
<g transform="translate(0.000000,2850.000000) scale(0.500000,-0.500000)"
fill="#000000" stroke="none">
<path d="M843 3838 c-12 -1 -22 -6 -25 -13 -5 -7 -8 -24 -6 -35 1 -13 -5 -20
-19 -20 -13 0 -25 -3 -31 -9 -5 -3 -5 -6 -6 -17 0 -13 0 -13 8 -22 11 -12 25
-30 35 -44 5 -8 9 -13 15 -15 9 -3 27 -3 36 2 6 3 13 4 25 3 2 0 6 -3 9 -6 5
-5 6 -7 6 -18 0 -14 -2 -17 -20 -29 -11 -8 -15 -15 -17 -29 -1 -7 0 -11 2 -16
2 -3 3 -8 3 -10 0 -2 1 -4 2 -4 1 0 0 -2 -3 -5 l-5 -6 -60 -1 c-55 -1 -64 -2
-66 -4 -1 -1 -4 -2 -7 -4 -3 -2 -9 -9 -14 -16 -14 -21 -18 -24 -29 -23 -14 1
-18 4 -29 21 -6 8 -13 16 -16 18 -3 2 -6 3 -7 4 -3 3 -24 3 -251 4 -269 0
-255 1 -266 -12 -10 -12 -10 -22 -2 -51 9 -31 15 -44 26 -51 14 -10 18 -10 82
-10 69 0 70 0 83 15 7 7 16 25 16 32 0 6 12 13 22 13 14 0 20 -6 20 -19 0 -11
-4 -18 -13 -25 -13 -10 -16 -18 -16 -44 1 -17 0 -27 -3 -40 -4 -17 -4 -25 -4
-120 0 -56 1 -102 2 -103 1 -1 1 -25 -1 -28 0 -1 -1 -59 -1 -127 1 -115 1
-126 4 -132 5 -9 9 -12 22 -13 5 -1 10 -2 11 -3 2 -1 3 -1 4 2 1 6 11 5 15 -2
2 -5 2 -6 -1 -11 -4 -6 -13 -7 -14 -1 -1 3 -2 3 -4 2 -1 -1 -6 -2 -11 -3 -13
-1 -17 -4 -22 -13 -4 -7 -4 -13 -4 -87 l0 -79 -4 -6 c-4 -5 -5 -11 -7 -25 -2
-19 -2 -19 2 -20 9 -2 17 -14 17 -23 0 -7 -1 -10 -7 -15 -4 -4 -8 -7 -9 -7 -3
0 -18 -10 -22 -14 -6 -6 -12 -18 -18 -36 -17 -47 -41 -81 -76 -108 -27 -22
-29 -24 -30 -26 -2 -15 -2 -31 1 -36 5 -10 4 -25 -2 -31 -8 -8 -22 -7 -36 2
-9 6 -12 7 -22 7 -18 0 -20 -1 -29 -16 -23 -38 -30 -76 -22 -115 4 -23 17 -50
26 -57 14 -13 39 -13 76 -1 28 9 36 10 45 1 8 -8 8 -23 0 -32 -5 -5 -5 -7 -5
-18 0 -9 2 -15 4 -18 4 -5 15 -9 21 -9 26 2 52 7 56 11 1 1 3 2 5 2 1 0 9 3
17 7 12 6 16 9 20 17 3 5 8 11 10 13 3 2 6 4 8 6 1 1 8 5 15 8 12 5 15 8 26
23 18 25 22 31 34 56 18 38 17 46 -11 72 -11 10 -8 23 5 27 7 2 20 9 26 14 15
13 16 46 5 122 -1 4 -3 16 -5 26 -2 10 -5 20 -5 23 -2 7 -15 52 -17 58 -2 3
-3 7 -4 9 -8 21 -22 54 -25 60 -5 9 -4 12 6 17 4 2 42 5 63 5 15 0 22 -5 22
-14 0 -4 -6 -22 -12 -33 -4 -10 -6 -198 -1 -209 3 -7 9 -12 16 -14 2 0 8 -2
12 -3 6 -1 9 -1 9 0 1 1 5 2 11 2 13 0 19 -6 19 -19 0 -13 -6 -19 -19 -19 -6
0 -10 1 -11 2 0 1 -3 1 -9 0 -4 -1 -10 -3 -12 -3 -7 -1 -13 -7 -16 -14 -4 -8
-4 -89 -1 -98 2 -5 13 -18 16 -18 1 0 3 0 6 -1 2 -1 6 -3 9 -3 3 -1 5 -2 5 -3
0 -1 1 -1 3 -1 1 1 4 -1 6 -3 3 -3 3 -4 -2 -8 -3 -3 -5 -4 -5 -3 0 0 -2 0 -5
-2 -3 -2 -5 -3 -5 -2 0 2 -12 -5 -17 -10 -3 -3 -6 -7 -6 -10 -1 -2 -2 -6 -2
-9 -4 -16 16 -75 34 -101 19 -26 23 -28 43 -26 13 1 18 3 25 9 10 9 40 22 49
22 19 0 24 -16 12 -38 -7 -13 -8 -22 -3 -34 4 -9 15 -15 33 -17 6 -1 12 -2 12
-2 6 -3 40 -1 40 3 0 1 1 2 3 2 3 0 7 8 8 19 1 4 2 8 2 9 1 1 0 3 -2 3 -8 3 0
18 9 18 9 0 17 -15 9 -18 -3 -1 -3 -8 0 -26 1 -6 10 -12 19 -15 9 -3 85 -3 95
0 9 3 20 12 25 23 4 8 12 17 16 17 4 0 12 -9 16 -17 9 -18 24 -26 49 -25 13 1
17 2 37 12 29 15 32 15 61 0 l22 -11 37 -1 c46 0 62 3 60 13 0 0 1 1 2 1 3 0
2 27 -1 30 -8 7 0 24 12 24 12 0 20 -17 12 -24 -5 -4 -4 -27 1 -33 6 -7 19
-10 49 -9 31 2 40 5 56 19 2 2 7 6 11 8 8 4 8 4 16 0 5 -2 9 -4 10 -5 2 -2 18
-10 27 -12 9 -2 82 7 104 14 45 13 74 26 92 39 7 5 10 9 12 17 4 15 3 23 -8
41 -12 20 -13 21 -27 21 -16 0 -20 -3 -31 -24 -11 -24 -18 -30 -34 -29 -16 1
-23 6 -27 21 -3 10 0 23 13 50 13 26 17 30 34 31 11 1 16 -2 29 -15 11 -12 31
-24 40 -24 5 0 16 -5 16 -8 0 -1 7 -2 19 -2 l18 0 3 10 c4 13 4 50 0 64 -2 6
-4 13 -5 16 -1 7 -5 14 -7 14 -1 0 -3 2 -5 6 -8 14 -33 36 -59 51 -18 9 -20
13 -23 39 -2 17 -4 24 -11 40 -4 10 -8 20 -8 23 0 5 7 26 10 30 6 9 8 82 2 99
-6 18 -26 32 -42 29 -24 -3 -36 -12 -47 -35 -27 -58 -30 -68 -28 -86 2 -11 8
-16 17 -14 3 1 10 2 17 2 16 0 21 -5 21 -19 0 -13 -6 -19 -19 -19 -9 0 -11 0
-15 6 -4 4 -6 8 -6 9 0 1 -2 3 -4 5 -4 4 -7 4 -18 4 -7 -1 -14 -2 -16 -3 -1
-2 -6 -11 -11 -21 -25 -50 -44 -76 -58 -82 -15 -7 -29 -8 -102 -9 -74 -1 -81
-2 -90 -12 -6 -6 -13 -22 -14 -33 -2 -17 -9 -23 -27 -23 -17 0 -25 7 -27 24
-1 11 -8 27 -15 33 -7 8 -18 10 -52 10 -30 0 -32 0 -42 -5 -9 -5 -11 -7 -17
-20 -4 -8 -7 -17 -7 -19 0 -2 -3 -7 -6 -10 -5 -5 -7 -6 -17 -6 -10 0 -12 1
-17 6 -3 3 -6 7 -6 9 0 11 -15 39 -21 39 -2 0 -3 1 -3 2 0 1 -9 4 -15 5 -1 0
-4 3 -7 6 -6 6 -6 7 -6 31 0 37 -8 55 -29 70 -15 10 -23 19 -23 27 0 5 6 13
11 13 5 0 25 10 31 15 10 11 13 28 6 42 -6 13 -16 19 -40 20 -23 1 -31 9 -31
28 0 19 8 27 31 28 30 2 46 13 49 36 2 15 9 29 15 29 2 0 7 2 11 3 5 2 9 4 10
4 11 2 22 18 20 29 -3 24 -22 34 -64 34 -22 0 -38 -4 -36 -9 0 -2 0 -3 -1 -2
-1 1 -2 -1 -1 -3 0 -2 0 -8 -1 -13 -1 -7 -1 -9 2 -12 9 -7 2 -23 -10 -23 -12
0 -19 16 -10 23 8 8 4 41 -5 43 -5 0 -18 3 -22 3 -2 1 -27 2 -56 2 -46 1 -52
1 -58 4 -9 5 -13 14 -7 18 2 1 9 7 15 12 17 15 22 19 34 24 10 4 13 4 109 5
l98 0 12 -5 c10 -5 11 -6 10 -10 0 -3 1 -8 4 -13 2 -4 5 -14 8 -22 6 -21 22
-55 29 -60 8 -5 25 -10 35 -10 6 0 9 -1 11 -4 4 -7 4 -10 -5 -20 -18 -22 -21
-32 -13 -57 10 -36 19 -88 22 -130 2 -22 7 -36 21 -49 19 -19 55 -40 85 -48
21 -6 66 -7 82 -1 17 5 28 18 32 34 2 8 10 14 20 15 19 0 45 10 45 17 0 1 2 5
5 8 7 10 18 32 23 47 11 38 6 56 -20 75 -14 10 -15 12 -18 23 -2 7 -2 10 3 26
9 31 5 42 -28 75 -28 29 -29 29 -68 55 -22 15 -25 16 -35 16 -13 0 -19 -3 -31
-17 -11 -12 -19 -15 -31 -13 -12 3 -14 7 -14 30 0 25 0 26 -4 26 -2 0 2 2 7 5
9 5 12 6 39 7 29 1 34 2 40 9 4 4 9 24 7 27 -1 1 0 2 1 2 3 0 3 0 0 2 -3 2 -6
18 -5 27 2 14 7 17 24 17 26 0 32 -7 31 -34 0 -24 5 -37 19 -45 7 -3 12 -4 41
-5 35 0 52 2 56 7 2 2 3 8 2 17 0 13 0 14 4 15 5 0 5 0 0 1 -13 0 -17 22 -7
31 6 7 22 7 28 0 10 -9 6 -31 -7 -31 -5 -1 -5 -1 0 -1 4 -1 4 -2 4 -15 -1 -14
3 -23 6 -18 1 2 2 2 2 -2 0 -2 2 -7 6 -10 5 -5 5 -6 4 -25 0 -15 1 -22 3 -28
4 -9 14 -21 18 -21 2 0 3 -1 3 -2 0 -1 1 -1 3 -2 28 -2 37 -4 44 -8 8 -4 8 -5
7 -13 0 -9 5 -17 28 -41 12 -13 16 -15 42 -26 9 -4 17 -12 23 -24 2 -5 6 -11
8 -14 4 -5 9 -25 9 -36 0 -16 2 -25 15 -51 32 -65 58 -144 66 -206 1 -4 2 -10
2 -13 1 -3 2 -6 2 -8 3 -15 19 -31 39 -41 8 -4 18 -10 22 -13 7 -5 29 -15 43
-18 16 -4 33 5 41 21 7 15 14 21 31 27 9 3 22 9 28 13 25 16 35 19 52 14 5 -2
9 -2 9 -2 1 0 5 1 10 2 18 3 22 7 39 45 14 32 13 98 -1 137 -21 57 -63 112
-112 149 -3 3 -9 7 -12 9 -3 2 -11 8 -19 13 -8 5 -19 12 -25 16 -6 4 -19 11
-28 16 -15 8 -23 12 -53 25 -13 6 -62 23 -85 29 -12 4 -22 7 -24 9 -5 5 2 11
17 14 22 5 35 19 35 38 0 9 0 10 -11 21 -17 16 -37 23 -56 19 -13 -2 -31 -24
-34 -42 -2 -15 -14 -19 -28 -11 -5 3 -15 19 -15 24 0 3 -13 30 -22 45 -7 12
-8 23 -1 28 2 3 11 8 19 12 8 4 20 10 26 13 12 7 23 8 29 2 2 -1 8 -9 13 -15
10 -16 15 -19 27 -19 10 0 18 3 31 12 7 4 11 6 18 6 12 0 17 -4 21 -17 3 -10
17 -40 17 -36 0 1 5 2 12 2 20 -1 26 10 26 47 0 31 -5 44 -19 51 -5 2 -10 4
-11 5 -2 1 -7 2 -10 3 -6 1 -26 9 -34 13 -2 1 -10 5 -18 8 -17 8 -21 13 -21
29 0 19 10 28 29 28 10 -1 19 -5 31 -15 4 -3 8 -6 10 -8 3 -2 7 -3 15 -2 12 0
21 8 26 22 2 8 2 150 -1 267 0 18 1 21 5 30 7 14 12 17 25 17 7 0 15 1 20 2 4
1 10 2 11 3 12 3 16 9 16 22 0 12 -4 21 -13 28 -4 3 -8 7 -10 9 -1 1 -4 2 -5
2 -1 0 -2 1 -2 2 -1 1 -28 22 -61 46 -33 25 -61 46 -62 46 -1 1 -5 4 -8 7 -3
3 -10 8 -14 11 -4 3 -10 7 -12 9 -2 3 -5 5 -7 6 -13 4 -26 18 -26 27 0 11 14
52 20 58 5 5 14 5 18 0 5 -6 5 -7 -1 -29 -2 -10 -4 -20 -4 -24 2 -11 11 -21
24 -27 7 -4 14 -4 96 -4 l88 0 10 5 c10 4 18 14 27 31 4 7 6 9 19 15 13 6 17
13 17 29 0 8 -1 12 -5 18 -4 6 -5 10 -5 18 0 14 -4 36 -7 42 -3 6 -8 11 -19
20 -5 4 -10 8 -11 9 -5 5 -55 45 -66 52 -7 5 -17 13 -22 19 -6 5 -14 12 -18
15 -7 6 -10 8 -19 16 -8 7 -15 9 -25 9 -19 0 -18 1 -69 -66 -9 -12 -17 -22
-18 -23 0 -1 -4 -6 -7 -10 -3 -4 -8 -10 -10 -13 -3 -3 -5 -6 -5 -6 0 -1 -1 -3
-3 -4 -1 -2 -5 -7 -8 -11 -3 -4 -6 -8 -7 -9 -1 -1 -4 -5 -7 -9 -9 -12 -15 -17
-25 -20 -7 -3 -31 -3 -171 -3 l-162 0 -6 5 c-3 3 -7 5 -9 5 -3 0 -3 0 1 2 6 2
24 38 28 54 5 25 5 31 4 47 -2 43 -22 79 -61 114 -21 18 -77 46 -103 52 -2 0
-12 3 -22 5 -31 8 -58 10 -107 11 -26 0 -51 0 -57 -1z m215 -73 c13 -4 17 -26
7 -37 -3 -3 -7 -6 -8 -6 -2 0 -14 -4 -27 -10 -14 -5 -27 -10 -29 -10 -17 -2
-25 4 -25 20 0 14 3 18 15 23 6 2 15 6 20 8 29 14 35 15 47 12z m681 -188 c3
-3 3 -3 0 -6 -3 -3 -3 -3 -6 0 -3 2 -3 3 -1 6 4 4 4 4 7 0z m-621 -19 c7 -3
12 -12 12 -18 0 -3 -4 -9 -9 -15 -13 -14 -18 -20 -24 -32 -12 -22 -22 -28 -49
-27 -20 1 -25 9 -20 26 3 8 9 15 27 31 6 6 14 15 18 20 4 6 8 12 11 14 8 7 21
7 34 1z m646 -48 c5 -5 6 -7 6 -17 0 -10 -1 -12 -6 -17 -5 -5 -7 -6 -17 -6
-10 0 -12 1 -17 6 -5 5 -6 7 -6 17 0 10 1 12 6 17 5 5 7 6 17 6 10 0 12 -1 17
-6z m-469 -12 c7 -3 12 -13 11 -26 0 -15 0 -22 1 -27 0 -2 1 -5 1 -6 0 -4 11
-15 17 -17 3 -1 18 -2 33 -2 29 0 42 -2 42 -7 0 -2 2 -3 4 -3 2 0 2 -1 0 -1
-1 -1 -6 -6 -11 -11 -4 -5 -13 -14 -20 -21 -6 -7 -13 -15 -15 -17 -2 -2 -8 -6
-14 -9 l-11 -5 -95 0 c-148 0 -177 -1 -187 -6 -5 -2 -11 -6 -13 -9 -3 -3 -9
-6 -14 -8 -7 -3 -8 -3 -17 0 -5 2 -10 5 -11 6 -2 3 -12 10 -20 13 -5 2 -46 3
-165 4 -173 2 -163 1 -196 14 -9 4 -23 9 -31 12 -30 11 -81 30 -88 33 -3 2 -9
3 -12 3 -4 0 -5 0 -1 2 2 1 3 2 2 2 -5 0 -3 10 4 16 5 5 17 26 18 33 1 5 7 9
12 9 5 0 11 -4 12 -9 0 -1 3 -7 6 -14 12 -26 14 -27 79 -27 65 0 71 2 84 25
15 26 23 26 38 0 7 -12 15 -19 26 -23 4 -1 33 -2 92 -2 l86 0 20 7 c12 4 24 7
27 7 3 0 16 -3 27 -7 l21 -7 95 0 c62 0 98 1 101 2 6 2 17 13 17 17 0 1 1 4 1
6 1 5 1 12 1 27 -1 18 5 25 21 29 5 1 14 -1 22 -3z m-900 -124 c10 -9 3 -26
-10 -26 -8 0 -15 7 -15 15 0 13 16 20 25 11z m1116 -30 c10 -9 3 -26 -10 -26
-8 0 -15 7 -15 15 0 13 16 20 25 11z m-394 -50 c6 -3 9 -10 11 -29 3 -20 9
-33 19 -38 l8 -5 89 1 c83 0 90 0 92 -3 2 -2 5 -5 8 -6 3 -1 6 -3 6 -4 0 -9
29 -30 44 -34 14 -3 28 -2 36 2 l7 4 8 -6 c5 -5 7 -8 7 -13 0 -11 -6 -14 -26
-14 -22 0 -30 -3 -48 -15 -20 -13 -30 -24 -30 -33 0 -2 -4 -6 -8 -9 l-8 -6
-130 0 -131 0 -19 -5 c-21 -6 -39 -6 -45 -2 -10 7 -25 7 -179 7 l-151 -1 -6 6
-6 6 1 33 c1 49 -3 55 -26 54 -11 -1 -12 -1 -13 3 0 3 -1 2 -1 -1 0 -11 -25
-17 -39 -9 -16 8 -16 40 0 48 14 8 39 2 39 -9 0 -3 1 -4 1 -2 1 3 3 3 9 2 16
-2 34 -1 38 3 3 4 6 4 111 3 l108 0 21 6 c25 8 26 8 51 0 19 -6 20 -6 61 -6
55 0 58 1 67 26 3 10 4 14 2 19 -1 3 -1 8 1 14 3 14 10 18 21 13z m317 -54 c2
-3 4 -7 4 -9 0 -5 -9 -15 -14 -15 -4 0 -12 10 -12 15 0 11 15 17 22 9z m-977
-69 c2 -1 3 -3 4 -5 0 -2 3 -9 7 -17 3 -7 6 -14 6 -14 0 -1 4 -5 9 -10 13 -13
15 -17 15 -28 0 -15 -4 -19 -24 -26 -16 -5 -26 -5 -26 2 -1 3 -1 7 -2 8 -1 1
-1 7 0 7 3 0 6 10 6 19 0 8 -1 10 -8 17 -11 10 -17 27 -12 36 6 13 16 18 25
11z m-50 -35 c4 -2 7 -6 8 -8 1 -4 -3 -14 -5 -14 -1 0 -2 -2 -2 -4 0 -8 -7
-18 -14 -20 -10 -2 -25 1 -31 6 -3 3 -4 6 -4 19 0 14 0 16 6 20 7 7 32 7 42 1z
m1150 -22 c7 -3 12 -13 12 -25 0 -19 -9 -28 -28 -28 -19 0 -28 9 -28 28 0 24
19 34 44 25z m-96 -40 c14 -6 16 -27 4 -49 -4 -8 -10 -23 -12 -33 -6 -23 -9
-26 -23 -26 -8 0 -11 1 -15 5 -5 5 -6 13 -2 31 4 21 5 28 5 42 -1 22 4 29 21
33 5 1 14 -1 22 -3z m-1019 -20 c2 -6 1 -6 -6 -11 l-7 -5 -4 4 c-5 4 -5 5 -2
11 6 10 7 11 12 9 3 -2 6 -5 7 -8z m221 -18 c10 -9 3 -26 -10 -26 -8 0 -15 7
-15 15 0 13 16 20 25 11z m337 -2 c5 -6 5 -12 0 -18 -7 -8 -22 -2 -22 9 0 12
15 17 22 9z m292 -41 c2 -2 8 -7 12 -11 10 -10 12 -11 21 -15 4 -2 11 -6 14
-10 l6 -6 0 -54 0 -54 -6 -6 -6 -6 -81 0 c-55 1 -82 0 -82 -1 0 -1 -1 -2 -3
-1 -2 0 -2 -3 -2 -17 l0 -18 -9 0 -9 0 0 18 c0 17 0 17 -5 18 -3 0 -32 1 -64
1 -58 0 -59 0 -66 -5 -9 -5 -16 -19 -17 -36 -2 -17 -7 -22 -21 -22 -14 0 -19
5 -21 22 -3 31 -13 40 -43 42 -27 1 -38 -4 -41 -20 -4 -15 -4 -20 -3 -20 1 -1
2 -5 2 -11 0 -13 -6 -19 -19 -19 -13 0 -19 6 -19 19 0 6 1 10 2 11 1 0 1 5 -3
20 -2 8 -7 14 -14 17 -6 3 -19 3 -73 3 l-65 -1 -6 6 -6 6 0 54 0 54 6 6 6 6
24 0 c27 0 30 1 46 15 15 14 19 16 29 16 10 0 14 -2 29 -16 19 -16 -1 -15 215
-16 226 0 205 -2 230 22 5 5 11 10 14 11 8 3 21 2 28 -2z m-796 -19 c5 -5 5
-15 0 -20 -9 -9 -24 -2 -24 10 0 8 6 14 14 14 3 0 8 -2 10 -4z m-16 -210 c2 0
6 -3 9 -6 3 -5 3 -6 0 -12 -4 -7 -13 -12 -28 -13 -10 -1 -12 -1 -16 3 -9 9 -5
24 7 29 4 1 22 1 28 -1z m103 -27 c5 -8 1 -16 -8 -16 -9 0 -13 8 -8 16 2 3 5
5 8 5 3 0 6 -2 8 -5z m16 -198 c6 -4 6 -6 6 -20 0 -14 0 -16 -6 -20 -4 -4 -7
-5 -18 -5 -11 0 -14 1 -18 5 -6 4 -6 6 -6 20 0 14 0 16 6 20 4 4 7 5 18 5 11
0 14 -1 18 -5z m1034 -38 c3 -3 3 -3 0 -6 -3 -3 -3 -3 -6 0 -3 2 -3 3 -1 6 4
4 4 4 7 0z m-565 -5 c5 -5 6 -7 6 -17 0 -10 -1 -12 -6 -17 -5 -5 -7 -6 -17 -6
-10 0 -12 1 -17 6 -5 5 -6 7 -6 17 0 10 1 12 6 17 5 5 7 6 17 6 10 0 12 -1 17
-6z m97 -2 c10 -9 3 -26 -10 -26 -8 0 -15 7 -15 15 0 13 16 20 25 11z m475
-56 c5 -5 5 -11 0 -16 -10 -10 -27 5 -16 16 4 4 12 4 16 0z m-467 -52 c3 -4 4
-15 4 -30 -1 -11 -11 -16 -27 -12 -10 3 -14 10 -15 25 -1 10 -1 13 2 17 8 9
28 9 36 0z m-858 -2 c5 -5 6 -7 6 -16 0 -15 -8 -23 -23 -23 -9 0 -11 1 -16 7
-9 8 -9 23 -1 32 9 9 24 9 34 0z m46 -173 c5 -8 1 -16 -8 -16 -9 0 -13 8 -8
16 4 6 11 6 16 0z m1357 -3 c5 -5 6 -7 6 -17 0 -19 -13 -27 -35 -22 -7 1 -11
11 -11 23 0 15 7 22 23 22 10 0 12 -1 17 -6z m-717 -57 c12 -12 3 -31 -13 -31
-11 0 -18 7 -18 18 0 11 7 18 18 18 6 0 9 -1 13 -5z m-683 -13 c7 -8 7 -25 -1
-34 -5 -7 -28 -4 -34 5 -4 6 -4 23 1 29 6 8 27 9 34 0z m267 -10 c7 -6 7 -19
1 -25 -6 -7 -19 -7 -25 -1 -7 6 -7 19 -1 25 6 7 19 7 25 1z m648 -60 c10 -9 3
-26 -10 -26 -8 0 -15 7 -15 15 0 13 16 20 25 11z m-110 -26 c10 -9 3 -26 -10
-26 -8 0 -15 7 -15 15 0 13 16 20 25 11z m-151 -47 l-5 -5 -4 4 -5 5 4 4 5 5
4 -4 5 -5 -4 -4z"/>
</g>
</svg>
