<?xml version="1.0" standalone="no"?>
<!DOCTYPE svg PUBLIC "-//W3C//DTD SVG 20010904//EN"
 "http://www.w3.org/TR/2001/REC-SVG-20010904/DTD/svg10.dtd">
<svg version="1.0" xmlns="http://www.w3.org/2000/svg"
 width="1100.000000pt" height="2850.000000pt" viewBox="0 0 1100.000000 2850.000000"
 preserveAspectRatio="xMidYMid meet">
<metadata>
Created by potrace 1.15, written by Peter Selinger 2001-2017
</metadata>
<g transform="translate(0.000000,2850.000000) scale(0.500000,-0.500000)"
fill="#000000" stroke="none">
<path d="M416 3831 c-9 -5 -12 -8 -17 -17 l-5 -11 0 -125 1 -125 -6 -6 -6 -6
-116 1 -116 0 -10 -5 c-10 -5 -17 -11 -24 -25 -8 -13 -10 -17 -16 -27 -3 -5
-6 -13 -6 -20 -2 -19 12 -37 33 -45 10 -3 126 -3 135 1 7 3 12 9 14 17 4 15 4
20 3 20 -1 1 -2 5 -2 11 0 13 6 19 19 19 15 0 23 -12 18 -27 -2 -6 2 -25 7
-32 6 -9 16 -11 41 -11 20 1 20 1 26 -5 l6 -6 -1 -36 c0 -27 1 -41 3 -53 7
-35 3 -46 -16 -46 -9 0 -17 3 -21 8 -17 22 -26 27 -51 27 -17 0 -50 -2 -77 -4
-15 -1 -65 -4 -113 -6 -29 -1 -40 -5 -47 -16 -8 -14 -7 -23 12 -70 9 -23 18
-46 20 -51 2 -5 15 -40 30 -78 27 -71 36 -93 38 -91 2 1 12 -33 12 -38 0 -9 7
-24 14 -31 8 -8 16 -11 43 -18 59 -14 89 -42 100 -91 4 -23 4 -21 7 -49 3 -40
4 -44 7 -52 8 -17 26 -27 47 -25 92 9 148 22 196 45 8 4 15 7 16 8 0 1 1 2 2
2 8 0 50 36 67 56 11 14 31 59 34 78 1 3 2 5 2 6 1 1 3 11 4 21 3 16 4 42 5
143 l1 123 5 6 c3 3 6 6 7 6 11 3 116 43 124 48 12 7 18 19 18 40 0 9 1 18 1
20 0 7 8 15 18 17 13 3 24 0 33 -10 13 -16 18 -33 15 -60 -8 -74 -22 -129 -46
-187 -10 -23 -33 -68 -40 -75 -1 -2 -7 -10 -13 -19 -7 -9 -12 -16 -13 -17 -1
-1 -6 -7 -13 -15 -14 -16 -48 -50 -61 -61 -23 -18 -25 -23 -26 -50 0 -27 -1
-27 -13 -48 -17 -28 -32 -53 -37 -60 -3 -4 -13 -19 -22 -34 -15 -23 -18 -26
-27 -31 l-10 -5 -273 0 c-190 0 -275 -1 -280 -2 l-6 -2 0 -18 c-1 -16 -1 -18
2 -18 3 0 10 -11 10 -16 0 -1 -2 -10 -5 -18 -8 -24 -4 -35 16 -45 8 -4 17 -4
223 -4 202 -1 216 -1 237 3 37 6 50 0 50 -25 0 -23 -18 -33 -43 -25 -11 4 -31
0 -39 -6 -3 -2 -11 -12 -18 -21 -7 -10 -15 -20 -18 -23 -2 -3 -6 -8 -8 -11 -2
-3 -5 -6 -6 -8 -1 -1 -5 -6 -8 -10 -3 -4 -6 -8 -7 -9 -1 -1 -7 -9 -14 -18 -8
-9 -21 -24 -29 -33 l-15 -16 1 -12 c0 -21 7 -27 38 -32 15 -3 91 -16 101 -18
3 0 25 -5 50 -10 25 -5 47 -9 50 -10 3 0 14 -3 24 -5 22 -5 28 -4 51 4 16 7
28 8 35 4 2 -1 8 -7 13 -13 12 -14 23 -22 37 -26 22 -7 28 -9 29 -13 1 -4 -3
-10 -6 -10 0 0 -7 -3 -15 -7 -33 -15 -78 -33 -114 -46 -62 -23 -181 -59 -192
-59 -2 0 -4 -1 -4 -2 0 -1 -1 -2 -2 -1 -4 2 -5 -5 -4 -21 l1 -17 7 -3 c11 -5
14 -11 14 -24 0 -9 -1 -11 -6 -16 -5 -5 -7 -6 -17 -6 -10 0 -12 1 -17 6 -5 5
-6 7 -6 16 0 6 1 14 3 17 6 11 5 34 -1 30 -1 -1 -2 0 -2 1 -2 4 -26 4 -38 1
-15 -4 -13 -4 -27 -7 -7 -1 -16 -4 -22 -5 -5 -2 -14 -3 -18 -4 -4 -1 -9 -2 -9
-2 -1 -1 -4 -1 -7 -2 -3 0 -15 -3 -25 -5 -15 -3 -88 -18 -105 -21 -2 0 -27 -5
-56 -10 -61 -11 -70 -13 -79 -21 -7 -6 -10 -12 -11 -22 -1 -5 -2 -9 -2 -10 0
-3 10 -26 15 -33 11 -16 26 -20 70 -17 15 1 36 2 48 3 12 1 26 2 32 2 6 0 19
1 28 2 87 5 93 6 104 19 7 6 14 22 17 34 1 8 9 12 20 12 12 0 16 -2 23 -17 8
-15 19 -26 30 -29 8 -2 15 -2 54 3 25 3 48 5 52 6 4 1 11 1 17 2 5 0 12 1 16
2 3 1 9 1 12 2 13 1 52 7 56 8 2 0 11 2 20 3 9 1 18 3 20 3 2 1 7 1 12 2 19 3
85 15 115 22 18 4 37 8 41 9 10 2 56 14 64 16 3 1 20 6 38 11 55 16 171 59
182 67 4 3 19 6 30 6 9 0 17 -2 44 -13 19 -7 38 -15 42 -17 16 -7 46 -20 54
-24 15 -6 102 -49 124 -62 12 -7 26 -15 31 -17 5 -3 10 -7 12 -8 2 -1 9 -6 17
-10 35 -17 63 -24 108 -24 47 0 78 7 120 27 35 16 61 38 81 65 28 39 30 61 9
87 -11 13 -10 9 -10 40 0 30 -1 32 -25 56 -19 19 -48 40 -74 55 -24 14 -75 37
-86 40 -1 0 -3 1 -6 2 -18 8 -76 26 -119 37 -10 2 -17 8 -17 13 0 2 2 7 5 13
2 5 7 16 10 25 6 19 7 20 23 32 7 5 15 12 18 15 7 8 40 65 54 92 3 6 7 11 13
15 l8 5 147 0 c161 0 163 0 186 12 22 11 40 34 40 51 0 11 -9 28 -19 35 -4 4
-8 7 -9 8 -1 1 -13 11 -28 23 -15 12 -29 23 -31 25 -8 6 -66 51 -78 60 -13 10
-15 11 -21 16 -4 4 -9 7 -17 11 -3 2 -9 6 -13 10 -4 4 -11 10 -15 13 -4 3 -13
9 -20 14 -14 10 -29 13 -41 7 -4 -2 -8 -3 -9 -3 -2 0 -4 -2 -6 -5 -2 -4 -4 -6
-5 -7 -1 -1 -2 -3 -4 -6 -1 -3 -4 -8 -7 -10 -2 -3 -7 -9 -10 -13 -3 -4 -7 -9
-9 -11 -2 -2 -6 -7 -9 -11 -6 -8 -16 -20 -24 -29 -2 -3 -7 -9 -10 -13 -3 -4
-12 -15 -18 -23 -7 -8 -13 -16 -13 -16 0 -1 -5 -4 -10 -7 l-11 -6 -210 0
c-213 -1 -217 -1 -214 6 1 2 -2 3 -9 4 -8 0 -7 0 4 1 35 1 69 22 84 53 6 12 6
13 4 24 -3 14 -11 23 -27 29 -21 8 -36 3 -47 -13 -9 -15 -13 -19 -16 -19 -6 0
-9 8 -9 25 -1 29 -4 32 -62 50 -51 16 -85 27 -89 29 -6 3 -7 10 -2 14 2 2 4 4
5 4 2 0 30 16 48 28 22 13 44 28 45 30 1 1 5 4 10 8 16 13 19 15 29 25 12 11
15 19 20 38 6 23 10 28 28 32 6 1 23 9 25 11 1 1 3 2 5 4 13 6 57 84 73 128
10 29 23 76 23 89 0 1 3 4 6 7 6 6 7 6 35 6 l29 1 6 -6 6 -6 -1 -237 c0 -212
0 -238 3 -245 4 -9 14 -21 18 -21 2 0 3 -1 3 -2 0 -2 11 -3 60 -3 73 0 134 11
178 30 44 20 57 29 64 49 l5 11 0 209 0 209 6 6 6 6 99 -1 c57 0 104 1 112 2
26 4 53 22 63 43 10 20 5 36 -18 58 -13 13 -46 44 -56 52 -3 2 -10 9 -16 14
-6 6 -13 11 -15 13 -2 2 -7 7 -11 10 -4 3 -12 10 -16 14 -4 4 -13 11 -20 17
-7 5 -12 10 -13 11 -2 2 -17 15 -26 22 -5 4 -12 10 -16 13 -18 15 -21 17 -33
17 -19 0 -20 -1 -53 -47 -12 -15 -30 -40 -34 -45 -5 -7 -11 -19 -16 -35 -7
-21 -11 -25 -33 -31 -6 -2 -53 -3 -154 -4 l-146 -1 -6 6 -6 6 1 56 1 56 5 5
c4 4 7 5 23 6 16 0 106 7 128 9 4 0 14 1 22 2 15 1 68 7 78 8 3 0 13 1 21 2 8
1 16 2 18 2 2 0 8 1 14 2 6 1 29 4 50 6 21 3 47 6 56 6 16 0 27 2 30 4 1 1 6
2 12 2 5 1 10 2 11 2 2 0 13 -1 26 -2 21 -3 24 -3 36 0 18 4 33 12 44 22 9 9
9 9 9 21 0 7 -1 15 -3 18 -3 5 -24 24 -62 56 -10 8 -30 25 -44 38 -14 12 -44
38 -67 57 -23 19 -43 36 -45 38 -43 40 -57 45 -85 28 -16 -9 -19 -11 -44 -25
-10 -6 -20 -12 -22 -13 -2 -1 -13 -8 -25 -14 -12 -6 -25 -13 -29 -15 -32 -19
-118 -61 -168 -84 -30 -14 -44 -15 -76 -3 -38 13 -151 51 -160 54 -5 1 -17 5
-26 9 -16 6 -20 6 -34 3 -6 -1 -14 -9 -18 -18 -4 -7 -4 -14 -4 -71 0 -54 -1
-65 -3 -72 -2 -4 -4 -7 -5 -7 -1 1 -2 0 -2 -2 0 -3 -1 -3 -2 -1 -1 3 -14 15
-41 40 -5 6 -14 13 -19 18 -5 5 -14 13 -21 19 -11 9 -15 13 -33 30 -24 21 -36
31 -44 34 -4 1 -8 2 -8 1 0 -2 -5 7 -5 10 -1 2 1 6 3 9 8 11 18 34 18 42 0 22
-19 37 -48 39 -8 0 -15 1 -16 1 -3 2 -22 -5 -36 -12 -21 -11 -35 -9 -51 5 -2
2 -9 7 -16 10 -12 6 -15 7 -34 7 -11 1 -26 2 -34 3 -16 2 -119 12 -127 12 -3
0 -10 -2 -16 -5z m194 -89 c5 -5 5 -15 0 -20 -9 -9 -24 -2 -24 10 0 8 6 14 14
14 3 0 8 -2 10 -4z m134 -52 c0 -2 -1 -6 -3 -8 -2 -4 -3 -5 -5 -3 -5 6 0 21 5
17 2 -2 3 -4 3 -6z m996 -49 c3 -3 4 -7 4 -14 0 -13 -6 -19 -19 -19 -13 0 -19
6 -19 19 0 7 1 11 4 14 7 8 23 8 30 0z m-324 0 c15 -8 26 -33 18 -42 -4 -6 -6
-6 -14 -2 -17 9 -29 34 -21 42 5 5 10 6 17 2z m-356 -152 l-5 -5 -4 4 -5 5 4
4 5 5 4 -4 5 -5 -4 -4z m-453 -19 c5 -5 6 -7 6 -16 0 -15 -8 -23 -23 -23 -9 0
-11 1 -16 7 -9 8 -9 23 -1 32 9 9 24 9 34 0z m357 -41 c17 -4 22 -9 22 -20 0
-8 -3 -14 -13 -24 -3 -3 -7 -8 -8 -11 -2 -3 -6 -8 -10 -10 -5 -3 -8 -5 -9 -6
-1 -1 -5 -1 -10 -1 -5 -1 -39 -4 -76 -7 -37 -3 -75 -6 -84 -7 -9 -1 -22 -2
-27 -3 -9 -1 -11 -1 -15 4 -6 5 -6 5 -6 34 l-1 29 6 6 6 6 76 0 76 0 9 5 c22
12 38 13 64 5z m-437 -29 c11 -4 15 -22 7 -29 -15 -13 -40 -3 -40 15 0 15 15
21 33 14z m1258 -32 c10 -9 3 -26 -10 -26 -8 0 -15 7 -15 15 0 13 16 20 25 11z
m-672 -12 c5 -5 6 -7 6 -16 0 -15 -8 -23 -23 -23 -9 0 -11 1 -16 7 -9 8 -9 23
-1 32 9 9 24 9 34 0z m-532 -112 c10 -9 3 -26 -10 -26 -8 0 -15 7 -15 15 0 13
16 20 25 11z m985 -22 c8 -9 9 -10 18 -28 14 -30 10 -46 -12 -46 -9 0 -11 1
-16 6 -8 9 -9 10 -18 28 -14 30 -10 46 12 46 9 0 11 -1 16 -6z m-533 -5 c3 -3
3 -3 0 -6 -3 -3 -3 -3 -6 0 -3 2 -3 3 -1 6 4 4 4 4 7 0z m-623 -4 c12 -5 18
-21 14 -36 -3 -9 -6 -14 -16 -19 -10 -4 -12 -11 -12 -27 0 -10 2 -16 4 -19 4
-5 4 -8 3 -17 -1 -7 -2 -13 -3 -15 -5 -9 -7 -25 -6 -50 0 -26 0 -27 -5 -32 -4
-4 -7 -5 -12 -5 -4 0 -23 1 -41 2 -18 1 -34 2 -34 2 -1 0 -6 1 -11 1 -8 1 -12
2 -17 6 -4 4 -6 6 -6 7 1 0 4 2 8 5 10 7 17 10 47 20 44 14 46 16 51 33 5 18
-1 28 -26 44 -13 9 -18 15 -18 24 0 6 2 9 13 21 12 11 27 36 27 44 0 2 7 9 14
11 6 3 19 2 26 0z m265 -44 c12 -7 14 -33 3 -43 -8 -9 -32 -9 -40 0 -9 8 -9
32 0 41 7 7 27 8 37 2z m-179 -49 c5 -5 6 -7 6 -17 0 -10 -1 -12 -6 -17 -5 -5
-7 -6 -17 -6 -10 0 -12 1 -17 6 -5 5 -6 7 -6 17 0 10 1 12 6 17 5 5 7 6 17 6
10 0 12 -1 17 -6z m642 -4 c5 -5 5 -11 0 -16 -10 -10 -27 5 -16 16 4 4 12 4
16 0z m325 -121 c3 -5 3 -5 0 -10 -2 -3 -5 -5 -7 -5 -2 0 -5 2 -7 5 -3 5 -3 5
0 10 2 3 5 5 7 5 2 0 5 -2 7 -5z m135 -184 l-5 -5 -4 4 -5 5 4 4 5 5 4 -4 5
-5 -4 -4z m-740 -7 c5 -5 6 -7 6 -17 0 -10 -1 -12 -6 -17 -5 -5 -7 -6 -17 -6
-10 0 -12 1 -17 6 -5 5 -6 7 -6 17 0 10 1 12 6 17 5 5 7 6 17 6 10 0 12 -1 17
-6z m-298 -14 c5 -5 5 -11 0 -16 -10 -10 -27 5 -16 16 4 4 12 4 16 0z m1195
-68 c12 -5 15 -34 4 -43 -8 -7 -28 -7 -36 0 -6 4 -6 6 -6 20 0 14 0 16 6 20 6
5 22 7 32 3z m-954 -29 c5 -8 1 -16 -8 -16 -9 0 -13 8 -8 16 2 3 5 5 8 5 3 0
6 -2 8 -5z m196 -25 c7 -3 12 -13 12 -25 0 -19 -9 -28 -28 -28 -19 0 -28 9
-28 28 0 24 19 34 44 25z m853 -28 c5 -5 6 -7 6 -17 0 -10 -1 -12 -6 -17 -5
-5 -7 -6 -17 -6 -10 0 -12 1 -17 6 -5 5 -6 7 -6 17 0 10 1 12 6 17 5 5 7 6 17
6 10 0 12 -1 17 -6z m-1106 -26 c5 -5 6 -7 6 -17 0 -10 -1 -12 -6 -17 -5 -5
-7 -6 -17 -6 -10 0 -12 1 -17 6 -5 5 -6 7 -6 17 0 10 1 12 6 17 5 5 7 6 17 6
10 0 12 -1 17 -6z m709 -62 c10 -9 3 -26 -10 -26 -8 0 -15 7 -15 15 0 13 16
20 25 11z m-265 -48 c3 -4 5 -6 4 -6 -1 0 -3 -2 -5 -5 -12 -25 -33 -59 -46
-75 -2 -3 -6 -8 -8 -11 -2 -3 -5 -7 -7 -9 -2 -2 -6 -7 -9 -11 -15 -20 -24 -25
-39 -26 -8 0 -54 2 -70 4 -4 0 -22 1 -40 2 -44 1 -74 3 -81 4 -6 1 -20 11 -15
11 1 0 10 9 19 21 10 11 19 21 20 22 1 2 3 4 5 6 3 4 30 36 47 56 12 14 13 15
22 19 7 4 14 4 102 3 l94 0 7 -5z m-479 -166 c7 -3 12 -13 12 -25 0 -19 -9
-28 -28 -28 -19 0 -28 9 -28 28 0 24 19 34 44 25z m583 -52 c5 -5 6 -7 6 -17
0 -10 -1 -12 -6 -17 -5 -5 -7 -6 -17 -6 -10 0 -12 1 -17 6 -5 5 -6 7 -6 17 0
10 1 12 6 17 5 5 7 6 17 6 10 0 12 -1 17 -6z m-382 -28 c5 -5 5 -11 0 -16 -10
-10 -27 5 -16 16 4 4 12 4 16 0z m671 -105 c6 -5 7 -22 3 -27 -5 -5 -3 -38 3
-48 2 -2 3 -8 3 -13 0 -13 -6 -19 -19 -19 -17 0 -24 14 -17 33 4 11 3 27 -4
42 -9 22 -3 37 16 37 8 0 11 -1 15 -5z m-595 -94 l-5 -5 -4 4 -5 5 4 4 5 5 4
-4 5 -5 -4 -4z"/>
</g>
</svg>
