<?xml version="1.0" standalone="no"?>
<!DOCTYPE svg PUBLIC "-//W3C//DTD SVG 20010904//EN"
 "http://www.w3.org/TR/2001/REC-SVG-20010904/DTD/svg10.dtd">
<svg version="1.0" xmlns="http://www.w3.org/2000/svg"
 width="1100.000000pt" height="2850.000000pt" viewBox="0 0 1100.000000 2850.000000"
 preserveAspectRatio="xMidYMid meet">
<metadata>
Created by potrace 1.15, written by Peter Selinger 2001-2017
</metadata>
<g transform="translate(0.000000,2850.000000) scale(0.500000,-0.500000)"
fill="#000000" stroke="none">
<path d="M1580 3840 c-5 -2 -13 -10 -22 -22 -3 -4 -9 -11 -12 -15 -4 -4 -9
-13 -12 -20 -8 -15 -17 -26 -29 -37 -6 -5 -15 -15 -21 -23 -6 -8 -11 -14 -12
-15 -1 -1 -4 -5 -7 -9 -3 -4 -6 -8 -7 -9 -3 -3 -18 -23 -18 -24 0 -1 -4 -3 -9
-6 l-10 -5 -195 -1 -195 -1 -10 -5 c-11 -5 -17 -15 -23 -36 -4 -14 -12 -26
-18 -26 -14 0 -27 11 -29 23 -2 21 -8 33 -18 39 l-8 5 -228 1 -228 1 -14 5
c-8 2 -16 6 -19 7 -3 2 -13 7 -23 11 -10 5 -26 12 -35 16 -39 19 -54 26 -81
38 -10 5 -24 11 -32 15 -19 9 -23 9 -45 5 -10 -2 -19 -4 -21 -3 -4 1 -11 9
-18 22 -4 9 -10 17 -13 20 -9 7 -25 13 -33 13 -7 0 -23 -7 -23 -11 0 -2 -1 -3
-2 -3 -7 0 -8 -50 -2 -64 11 -24 11 -37 0 -60 -3 -6 -3 -16 -4 -70 0 -73 1
-83 11 -89 8 -5 26 -6 30 -2 5 5 17 4 26 -3 19 -13 26 -48 13 -60 -9 -10 -40
-9 -40 2 0 2 -1 2 -1 1 -1 -2 -6 -3 -13 -3 -12 0 -13 0 -19 -7 l-7 -7 0 -631
0 -632 -5 -11 c-3 -7 -6 -12 -7 -12 -1 0 -4 -2 -6 -4 -3 -2 -6 -5 -7 -5 -23
-19 -55 -49 -61 -60 -7 -11 -4 -31 7 -40 2 -1 18 -10 35 -19 70 -35 213 -108
242 -122 26 -14 32 -16 41 -16 14 0 25 6 35 19 13 20 34 50 36 52 1 1 3 4 4 7
1 3 3 5 4 6 1 1 5 6 9 13 4 7 10 15 14 20 3 4 5 7 4 7 -1 0 3 3 9 6 11 6 11 6
43 6 28 0 33 0 41 4 10 5 18 17 22 31 4 15 7 20 16 23 22 9 50 0 50 -14 0 -7
12 -30 19 -35 12 -9 16 -9 92 -9 72 0 73 0 86 5 21 7 22 9 40 50 6 16 8 19 15
27 2 2 3 6 2 15 0 12 -2 15 -13 22 -6 4 -11 4 -200 4 l-194 0 -6 6 -6 6 1 68
c0 74 0 79 -11 90 -6 7 -25 17 -31 17 -2 0 -6 3 -9 6 -7 7 -7 15 -2 33 2 6 5
22 7 34 4 26 4 26 19 36 12 8 19 16 24 28 3 7 3 22 3 130 0 147 3 132 -32 164
-9 9 -9 23 0 32 31 29 33 33 31 65 -2 41 -2 59 -1 66 1 6 1 12 -2 23 -10 35
-9 33 -2 57 5 19 6 25 6 45 0 21 -3 39 -6 39 -1 0 -4 2 -6 5 -6 5 -24 11 -37
11 -9 0 -10 1 -22 13 -16 17 -24 21 -47 22 -7 1 -14 2 -18 4 -15 8 -14 43 1
48 3 2 12 5 20 8 17 6 20 5 25 -12 2 -7 4 -13 4 -14 0 -3 19 -14 26 -16 14 -3
20 -3 31 0 7 2 14 6 17 8 2 3 5 5 6 5 3 0 6 19 5 31 -1 19 -6 24 -23 24 -8 -1
-13 0 -14 2 -1 1 -2 0 -2 -2 0 -4 -10 -11 -15 -11 -1 0 -7 -2 -14 -5 -12 -5
-13 -5 -19 -2 -5 3 -5 4 -6 19 0 27 4 38 18 43 12 5 36 -1 36 -10 0 -2 1 -3 2
-2 1 2 6 3 14 2 11 0 13 1 18 6 l5 5 1 61 c0 63 0 70 -8 81 -2 3 -7 7 -12 9
-4 2 -9 4 -10 5 -2 1 -7 3 -11 3 -13 2 -20 10 -20 23 0 13 7 21 20 23 4 0 9 2
11 3 1 1 6 3 10 5 13 6 21 23 20 37 -1 6 0 8 5 13 4 4 7 5 8 4 6 -5 11 -9 14
-9 1 0 1 -1 -1 -2 -4 -3 -6 -155 -1 -166 3 -9 11 -21 14 -21 0 0 6 -4 11 -10
9 -8 10 -10 10 -18 0 -8 -1 -10 -10 -18 -5 -6 -10 -10 -11 -9 -1 1 -10 -13
-14 -21 -5 -11 -4 -179 0 -190 4 -9 14 -21 18 -21 2 0 3 -1 3 -2 0 -1 1 -1 3
-1 11 -1 24 -4 32 -9 6 -3 11 -6 10 -6 0 -1 2 -4 5 -8 8 -8 14 -19 14 -25 0
-6 -6 -17 -14 -25 -3 -4 -8 -11 -10 -17 -4 -10 -4 -18 -4 -234 0 -223 0 -225
4 -238 6 -18 11 -28 17 -33 l5 -3 -4 -5 c-2 -3 -4 -5 -4 -6 0 -3 -15 -8 -24
-8 -5 0 -14 1 -20 2 -12 2 -25 1 -33 -5 -9 -6 -29 -52 -29 -68 0 -3 2 -10 4
-16 2 -9 4 -11 7 -10 2 1 9 1 15 1 13 0 16 1 25 15 7 12 16 17 28 16 13 0 19
-5 31 -24 8 -10 14 -18 18 -20 3 -1 5 -2 6 -3 3 -3 16 -3 142 -3 116 -1 136 0
143 2 10 4 13 9 12 24 -1 9 -1 11 2 12 3 0 3 1 0 1 -16 1 -16 43 0 44 3 0 3 1
0 1 -3 1 -3 3 -2 12 2 26 0 27 -88 27 -69 0 -80 1 -78 7 0 2 -1 3 -4 4 -3 0
-3 1 2 1 6 0 10 1 32 8 25 9 33 20 35 50 0 9 1 19 2 21 5 9 25 13 38 6 8 -4
26 -3 34 1 4 3 14 20 14 25 0 6 9 11 19 11 11 0 12 -1 25 -21 8 -14 10 -17 20
-22 10 -5 12 -5 28 -5 17 1 17 1 23 -5 l6 -6 0 -32 0 -32 -6 -6 -6 -6 -21 1
c-34 1 -43 -5 -41 -27 1 -9 1 -11 -2 -12 -3 0 -3 -1 0 -1 16 -1 16 -43 0 -44
-3 0 -3 -1 0 -1 3 -1 3 -3 2 -12 -2 -22 7 -28 41 -27 21 1 21 1 27 -5 l6 -6
-1 -29 c0 -19 1 -32 2 -38 3 -10 13 -21 22 -23 2 -1 7 -3 10 -4 3 -2 6 -3 7
-3 1 0 4 -2 7 -5 9 -10 6 -51 -6 -77 -12 -28 -20 -35 -38 -35 -13 1 -19 5 -26
16 l-5 10 -17 1 c-9 0 -18 -1 -19 -1 -2 -1 -3 -7 -4 -14 -2 -17 -5 -37 -7 -41
-1 -1 -1 -5 0 -8 1 -3 3 -6 3 -8 3 -13 10 -21 24 -24 4 -1 23 -2 46 -2 37 1
38 1 47 6 9 6 17 16 26 33 9 19 41 19 50 0 9 -17 17 -27 26 -33 l9 -5 237 0
c219 0 237 0 243 3 8 5 17 14 21 20 5 7 16 13 22 11 3 0 8 -4 11 -7 26 -27 26
-27 51 -27 27 0 35 5 47 28 11 20 14 23 28 23 15 0 17 -1 27 -21 10 -21 16
-26 31 -25 5 0 11 1 13 3 11 9 22 13 38 14 22 1 33 6 42 20 12 19 7 40 -16 58
-7 5 -14 11 -16 13 -1 1 -7 4 -12 6 -17 7 -24 11 -24 13 0 1 -1 1 -2 0 -1 -1
-2 0 -2 1 0 1 -1 1 -3 1 -2 -1 -3 -1 -3 1 0 3 -13 15 -21 19 -5 3 -11 9 -17
17 -13 17 -31 35 -44 43 -2 1 -4 3 -5 4 -1 1 -5 4 -9 7 -4 3 -8 6 -9 7 -1 1
-10 8 -19 15 -26 20 -41 31 -44 34 -1 1 -3 2 -4 2 0 0 -3 3 -6 7 -4 6 -4 10
-1 20 2 5 14 11 22 11 5 0 19 -7 25 -14 3 -3 13 -8 21 -10 2 0 18 -1 35 -1 27
0 33 1 45 5 26 9 50 33 53 53 2 21 -9 34 -71 87 -4 4 -9 8 -11 10 -2 2 -6 5
-9 8 -16 14 -54 47 -69 59 -21 18 -21 21 -9 45 l8 17 1 147 c1 164 0 155 15
164 27 16 45 32 49 43 3 9 2 21 -2 30 -3 5 -5 8 -6 8 -1 -1 -2 0 -2 1 -1 2
-20 16 -72 54 -18 14 -34 26 -34 28 -2 7 3 12 21 19 55 22 78 38 89 61 l5 11
1 74 1 74 5 9 c3 5 6 8 6 7 0 -5 29 22 32 31 5 13 -2 33 -15 42 -4 3 -9 6 -10
6 -2 0 -29 2 -46 2 -6 0 -12 9 -15 20 -5 25 -11 34 -39 55 -14 10 -32 23 -39
29 -8 5 -15 10 -16 10 -5 0 9 10 16 11 4 0 34 1 66 1 65 0 75 1 96 12 19 10
39 35 39 50 -1 19 -7 28 -34 50 -8 7 -16 13 -17 14 -2 2 -14 12 -27 23 -13 10
-25 20 -27 22 -2 1 -12 9 -22 17 -11 8 -20 16 -21 17 -2 1 -6 4 -9 7 -10 8
-57 44 -60 47 -2 1 -8 6 -15 11 -7 5 -12 9 -13 10 -1 1 -4 3 -8 6 -4 3 -7 5
-8 6 -1 1 -6 5 -13 10 -10 8 -13 9 -24 9 -6 1 -14 0 -17 -1z m111 -146 c7 -3
12 -13 12 -25 0 -19 -9 -28 -28 -28 -19 0 -28 9 -28 28 0 24 19 34 44 25z
m-518 -103 c19 -4 23 -8 23 -20 0 -5 0 -10 1 -13 1 -5 0 -13 -3 -11 -1 1 -2 0
-3 -2 -1 -4 -17 -4 -17 0 0 1 -1 1 -1 0 -1 -1 -2 0 -10 7 -4 3 -5 14 -2 16 1
1 0 2 -3 2 -5 0 -20 8 -20 10 0 1 -1 3 -3 5 -3 3 -3 4 1 8 5 5 11 5 37 -2z
m-856 -14 c12 -12 3 -31 -13 -31 -11 0 -18 7 -18 18 0 11 7 18 18 18 6 0 9 -1
13 -5z m279 -8 c3 -4 9 -11 13 -17 5 -9 9 -13 17 -17 l11 -5 70 0 c85 0 83 0
95 23 4 8 8 15 10 15 1 0 2 1 2 3 -1 1 0 2 2 2 2 0 3 -1 3 -2 -1 -2 0 -3 2 -3
1 0 5 -7 9 -15 11 -21 12 -22 60 -23 39 -1 40 -1 44 -6 l5 -5 -31 -31 c-41
-41 -36 -39 -95 -39 -55 -1 -52 -1 -115 22 -106 41 -130 50 -138 58 -8 6 -8
12 0 24 10 16 16 21 24 21 5 0 9 -1 12 -5z m431 -29 c16 -9 21 -10 70 -10 l47
0 8 -6 c5 -3 7 -6 6 -6 -5 -2 -4 -29 1 -38 2 -5 4 -8 5 -8 0 1 4 0 7 -2 3 -1
9 -3 13 -3 4 -1 8 -2 8 -4 1 -1 2 -1 2 2 0 5 12 4 16 -1 5 -6 5 -12 0 -18 -4
-5 -16 -6 -16 0 0 2 -1 2 -2 1 0 -2 -4 -3 -8 -4 -10 -1 -40 -13 -40 -16 0 -1
0 -1 -2 0 0 1 -9 8 -19 16 -21 15 -17 12 -42 31 -36 27 -53 38 -69 44 -32 12
-37 18 -23 31 l7 7 12 -5 c6 -3 14 -8 19 -11z m565 -16 l5 -5 -17 -17 c-25
-25 -29 -34 -29 -64 0 -27 -2 -34 -8 -39 -13 -12 -35 -11 -44 2 -15 21 -19 25
-34 32 -7 3 -17 7 -21 8 -4 0 -11 2 -16 5 -5 2 -13 5 -18 8 -18 8 -33 10 -46
8 -12 -2 -18 -4 -37 -12 -31 -13 -44 -16 -56 -9 -10 5 -14 19 -10 36 2 13 -12
41 -22 41 -3 0 -3 1 -1 1 2 1 4 3 5 4 1 2 5 4 8 5 3 1 77 2 171 1 l166 0 4 -5z
m-1017 -78 c7 -3 12 -13 12 -25 0 -19 -9 -28 -28 -28 -19 0 -28 9 -28 28 0 24
19 34 44 25z m813 -40 c3 -3 4 -8 4 -14 0 -14 -6 -20 -20 -20 -14 0 -20 6 -20
19 0 12 3 17 10 20 8 3 22 1 26 -5z m-1097 -59 c12 -12 3 -31 -13 -31 -11 0
-18 7 -18 18 0 11 7 18 18 18 6 0 9 -1 13 -5z m642 -12 c3 -5 3 -5 0 -10 -2
-3 -5 -5 -7 -5 -2 0 -5 2 -7 5 -3 5 -3 5 0 10 2 3 5 5 7 5 2 0 5 -2 7 -5z
m-219 -4 c6 -6 11 -18 15 -41 0 -2 1 -6 2 -8 2 -5 -2 -20 -7 -24 -5 -6 -18 -8
-28 -6 -21 5 -24 25 -10 63 7 17 18 24 28 16z m913 -3 c2 -3 6 -11 9 -18 3 -7
8 -18 12 -24 10 -19 6 -34 -10 -34 -10 0 -14 5 -17 21 -1 6 -5 20 -8 31 -5 17
-5 19 -2 23 4 6 11 6 16 1z m-772 -9 l6 -6 0 -29 0 -29 -6 -6 -6 -6 -29 0 -29
0 -6 6 -6 6 0 29 0 29 6 6 6 6 29 0 29 0 6 -6z m658 0 l6 -6 0 -29 0 -29 -6
-6 -6 -6 -25 0 -25 0 -6 6 -6 6 0 29 0 29 6 6 6 6 25 0 25 0 6 -6z m252 -29
c11 -10 3 -28 -11 -28 -9 0 -16 6 -16 16 0 14 17 22 27 12z m-417 -79 c28 -6
32 -9 32 -26 0 -16 -7 -23 -22 -23 -7 0 -13 1 -16 4 -13 8 -36 29 -39 35 -3 6
-3 7 0 12 5 6 6 6 45 -2z m-235 -27 c1 -1 3 -4 3 -6 0 -2 0 -2 2 0 1 1 5 2 10
2 13 -1 14 0 14 4 0 1 2 -4 5 -12 3 -9 5 -21 6 -35 2 -38 8 -46 40 -63 11 -5
19 -16 19 -25 0 -26 -38 -37 -61 -17 -3 3 -8 6 -19 11 -6 4 -17 4 -139 5 -143
1 -135 1 -167 13 -70 26 -74 29 -67 42 2 4 4 7 5 7 3 0 20 16 20 19 0 2 1 3 2
3 0 0 3 4 6 9 7 12 14 16 22 12 3 -2 6 -5 7 -7 3 -9 23 -26 27 -23 1 1 2 0 2
-2 0 -1 2 -5 6 -7 4 -4 5 -6 4 -12 -1 -12 13 -36 21 -36 2 0 3 -1 3 -2 0 -2 2
-2 35 -3 21 -1 36 0 51 2 25 4 27 4 38 7 5 2 11 3 13 3 1 1 14 5 28 9 31 11
35 14 35 33 0 17 -4 23 -15 28 -10 4 -11 6 -5 17 11 22 12 24 23 26 7 2 20 1
26 -2z m-198 -5 c3 -3 3 -3 0 -6 -3 -3 -3 -3 -6 0 -3 2 -3 3 -1 6 4 4 4 4 7 0z
m117 -34 c9 -3 10 -4 8 -7 -1 -2 -4 -5 -7 -6 -3 -1 -5 -3 -5 -4 0 -4 -11 -1
-14 4 -2 5 -2 6 1 11 4 6 4 6 17 2z m443 -31 l6 -5 -15 -15 c-8 -8 -19 -20
-24 -25 -17 -19 -22 -20 -61 -20 -24 0 -35 1 -37 2 -2 2 -4 2 -5 2 0 -1 -1 0
-1 2 0 1 -2 3 -3 4 -2 0 -1 1 2 1 8 0 24 6 49 19 19 10 27 15 41 27 17 14 37
17 48 8z m-1223 -45 l-5 -5 -4 4 -5 5 4 4 5 5 4 -4 5 -5 -4 -4z m91 -14 c3 -5
3 -5 0 -10 -2 -3 -5 -5 -7 -5 -2 0 -5 2 -7 5 -3 5 -3 5 0 10 2 3 5 5 7 5 2 0
5 -2 7 -5z m1295 -5 c5 -6 5 -8 1 -14 -4 -6 -13 -5 -17 2 -6 11 8 21 16 12z
m-645 -131 l6 -6 -1 -34 c-1 -31 -1 -35 -6 -42 -2 -5 -5 -8 -6 -8 -1 1 -2 0
-3 -1 -2 -3 -22 -3 -27 0 -16 9 -29 13 -49 13 -20 0 -20 0 -26 6 l-6 6 0 30 0
30 6 6 6 6 50 0 50 0 6 -6z m422 0 l6 -6 0 -30 0 -30 -6 -6 -6 -6 -35 0 -35 0
-6 6 -6 6 0 30 0 30 6 6 6 6 35 0 35 0 6 -6z m202 4 c3 -3 3 -3 0 -6 -3 -3 -3
-3 -6 0 -3 2 -3 3 -1 6 4 4 4 4 7 0z m-912 -24 c3 -5 3 -5 0 -10 -2 -3 -5 -5
-7 -5 -2 0 -5 2 -7 5 -3 5 -3 5 0 10 2 3 5 5 7 5 2 0 5 -2 7 -5z m-406 -44 c4
-4 5 -7 5 -15 0 -14 -6 -20 -20 -20 -14 0 -20 6 -20 20 0 14 6 20 20 20 8 0
11 -1 15 -5z m1395 -30 l-5 -5 -4 4 -5 5 4 4 5 5 4 -4 5 -5 -4 -4z m-435 -35
c7 -6 7 -19 1 -25 -6 -7 -19 -7 -25 -1 -7 6 -7 19 -1 25 6 7 19 7 25 1z m-264
-77 c5 -6 5 -7 5 -33 l-1 -27 -6 -6 -6 -6 -50 0 -50 0 -6 6 -6 6 0 27 0 27 6
6 6 6 52 0 51 -1 5 -5z m426 -33 l0 -27 -6 -6 -6 -6 -35 0 -35 0 -6 6 c-3 3
-6 5 -7 5 -1 0 -1 2 -1 5 0 2 -1 8 -3 12 -1 4 -3 15 -3 23 l-1 15 8 5 c6 5 8
5 45 6 l38 1 6 -6 6 -6 0 -27z m263 -8 c5 -6 5 -12 0 -18 -7 -8 -22 -2 -22 9
0 11 15 17 22 9z m-1444 -71 l-5 -5 -4 4 -5 5 4 4 5 5 4 -4 5 -5 -4 -4z m1391
-29 c14 -8 13 -42 -2 -48 -35 -14 -44 -10 -42 19 1 22 4 28 18 31 7 2 20 1 26
-2z m-209 -60 c6 -3 10 -6 9 -6 -2 0 8 -8 11 -8 1 0 2 -1 2 -2 0 0 2 -2 6 -2
9 -2 72 -1 91 1 16 1 19 1 23 -2 l4 -4 -4 -5 c-2 -3 -5 -12 -7 -23 -3 -18 -6
-23 -13 -23 -2 0 -8 -1 -15 -2 -7 -2 -52 -3 -101 -4 l-89 -1 -6 6 -6 6 0 32 0
32 6 6 6 6 36 -1 c34 -1 37 -1 47 -6z m-152 -27 l-5 -5 -4 4 -5 5 4 4 5 5 4
-4 5 -5 -4 -4z m-83 -10 c3 -5 3 -5 0 -10 -2 -3 -5 -5 -7 -5 -2 0 -5 2 -7 5
-3 5 -3 5 0 10 2 3 5 5 7 5 2 0 5 -2 7 -5z m396 -39 c11 -5 12 -8 9 -25 -2
-15 0 -32 6 -42 2 -5 4 -12 5 -17 0 -5 3 -14 5 -20 7 -17 8 -34 3 -40 -3 -3
-22 -27 -43 -53 -21 -26 -40 -50 -41 -52 -2 -2 -3 -7 -3 -19 1 -14 1 -16 5
-17 6 -2 17 -15 17 -21 0 -3 -7 -10 -10 -10 -2 0 -24 11 -31 16 -2 2 -12 3
-20 2 -3 0 -29 -1 -57 -2 -57 -1 -61 -2 -74 -18 -4 -4 -9 -9 -12 -10 -6 -4 -6
-4 -13 0 -4 3 -7 6 -8 9 -1 6 0 30 1 31 4 3 5 18 5 81 0 66 0 68 4 72 2 2 5 5
6 7 1 2 6 6 11 9 4 3 9 8 10 10 4 7 16 17 21 17 3 0 8 -3 13 -8 27 -29 24 -28
79 -28 47 0 55 1 63 11 6 6 12 22 13 32 1 6 4 14 8 21 10 16 15 42 10 46 -2 1
-3 4 -3 5 0 2 -1 3 -2 3 -4 0 -2 4 5 9 9 6 7 6 18 1z m-1222 -49 c4 -4 5 -7 5
-15 0 -14 -6 -20 -20 -20 -14 0 -20 6 -20 20 0 14 6 20 20 20 8 0 11 -1 15 -5z
m270 -2 c3 -5 3 -5 0 -10 -2 -3 -5 -5 -7 -5 -2 0 -5 2 -7 5 -3 5 -3 5 0 10 2
3 5 5 7 5 2 0 5 -2 7 -5z m-244 -208 c12 -12 3 -31 -13 -31 -11 0 -18 7 -18
18 0 11 7 18 18 18 6 0 9 -1 13 -5z m779 0 c4 -2 11 -18 13 -30 7 -30 2 -43
-16 -43 -5 0 -11 1 -13 2 -14 8 -26 56 -16 68 5 7 23 9 32 3z m454 -47 c1 0 5
-3 8 -6 5 -5 6 -7 6 -18 0 -11 -1 -13 -6 -18 -3 -3 -7 -6 -9 -6 -20 -1 -27 2
-32 13 -3 7 -4 21 -1 21 0 0 2 2 3 5 1 2 5 5 8 7 5 3 9 3 23 2z m265 -11 c9
-10 1 -29 -13 -29 -10 0 -16 5 -16 15 0 16 19 25 29 14z m-1585 -82 l-5 -5 -4
4 -5 5 4 4 5 5 4 -4 5 -5 -4 -4z"/>
</g>
</svg>
