<?xml version="1.0" standalone="no"?>
<!DOCTYPE svg PUBLIC "-//W3C//DTD SVG 20010904//EN"
 "http://www.w3.org/TR/2001/REC-SVG-20010904/DTD/svg10.dtd">
<svg version="1.0" xmlns="http://www.w3.org/2000/svg"
 width="1100.000000pt" height="2850.000000pt" viewBox="0 0 1100.000000 2850.000000"
 preserveAspectRatio="xMidYMid meet">
<metadata>
Created by potrace 1.15, written by Peter Selinger 2001-2017
</metadata>
<g transform="translate(0.000000,2850.000000) scale(0.500000,-0.500000)"
fill="#000000" stroke="none">
<path d="M485 3810 c-2 -3 -4 -9 -5 -19 0 -14 0 -14 5 -18 2 -1 5 -6 6 -9 3
-14 14 -33 23 -42 5 -4 11 -11 14 -13 4 -4 6 -9 8 -19 8 -46 8 -53 1 -60 -6
-6 -22 -6 -28 0 -5 5 -19 48 -19 58 0 4 -1 4 -1 1 -1 -3 -3 -3 -19 -3 -15 1
-17 0 -17 -3 0 -1 0 -3 -1 -3 -2 0 -2 -81 0 -90 3 -11 12 -23 21 -30 18 -13
18 -35 0 -48 -10 -7 -18 -20 -21 -30 -1 -6 -2 -82 -2 -251 l1 -242 -6 -6 -6
-6 -200 0 c-134 1 -203 0 -208 -1 -9 -3 -15 -7 -19 -15 -7 -13 -7 -19 3 -49
12 -35 17 -44 32 -51 l12 -6 190 0 190 0 6 -6 c4 -4 6 -7 5 -7 0 0 -1 -80 0
-177 l1 -178 8 -17 c7 -15 19 -31 31 -45 10 -10 14 -30 8 -42 -2 -3 -8 -9 -13
-13 -17 -10 -17 -11 -21 -14 -2 -2 -6 -8 -9 -13 l-5 -11 0 -215 c0 -192 0
-215 3 -222 4 -9 14 -21 18 -21 2 0 3 -1 3 -2 0 -2 11 -3 56 -3 47 0 68 3 104
13 32 9 41 16 61 48 13 23 17 35 17 57 0 8 1 10 6 16 12 12 36 5 39 -12 1 -4
3 -9 5 -13 4 -7 4 -7 17 -5 18 1 20 3 25 18 4 13 4 18 4 443 0 377 0 431 -3
438 -3 9 -5 13 -12 29 -5 10 -5 24 0 34 15 34 15 32 15 84 0 28 -1 48 -2 53
-4 12 -20 19 -41 18 -12 0 -19 5 -19 16 0 8 6 15 24 26 12 7 24 19 24 22 0 1
1 3 3 5 8 7 11 22 11 48 0 33 -4 41 -20 47 -18 5 -19 6 -23 3 -8 -6 -32 1 -37
11 -1 3 -7 12 -12 21 -5 8 -11 18 -12 21 -16 26 -3 52 23 51 13 0 22 -6 28
-18 3 -5 7 -14 10 -18 l4 -8 14 0 c14 0 15 0 19 7 l5 7 1 110 c0 113 0 124 -8
138 -4 8 -4 40 0 48 2 3 4 10 5 14 1 7 15 33 15 28 0 -4 25 12 34 23 16 16 27
39 26 54 -1 24 -19 36 -56 39 -8 1 -29 2 -46 4 -17 2 -36 3 -43 4 -14 1 -50 5
-63 6 -5 0 -25 2 -44 4 -50 5 -52 5 -86 8 -39 4 -53 4 -57 -1z m252 -104 c4
-4 5 -7 5 -13 0 -10 -4 -14 -23 -23 -8 -4 -19 -10 -24 -14 -16 -10 -26 -11
-42 -6 -15 6 -16 41 -1 49 4 2 16 4 29 5 12 1 25 3 29 4 13 3 22 2 27 -2z m19
-237 c3 -3 4 -7 4 -14 0 -13 -6 -19 -19 -19 -13 0 -19 6 -19 19 0 7 1 11 4 14
7 8 23 8 30 0z m-189 -101 c7 -4 16 -11 21 -14 14 -8 20 -16 20 -24 0 -17 -17
-21 -32 -9 -17 14 -27 16 -56 15 -14 -1 -20 5 -20 19 0 17 11 23 39 22 16 0
17 -1 28 -9z m44 -209 c3 -5 3 -5 0 -10 -2 -3 -5 -5 -7 -5 -2 0 -5 2 -7 5 -3
5 -3 5 0 10 2 3 5 5 7 5 2 0 5 -2 7 -5z m34 -62 c12 -7 14 -33 3 -43 -8 -9
-32 -9 -40 0 -9 8 -9 32 0 41 7 7 27 8 37 2z m-101 -61 c5 -5 5 -11 0 -16 -10
-10 -27 5 -16 16 4 4 12 4 16 0z m218 -31 l-5 -5 -4 4 -5 5 4 4 5 5 4 -4 5 -5
-4 -4z m-600 -71 c4 -5 4 -5 -1 -10 l-4 -4 -4 4 c-5 4 -5 5 -1 9 4 6 5 6 10 1z
m365 -40 c5 -7 4 -25 -2 -31 -6 -6 -21 -7 -29 -3 -10 5 -12 25 -4 34 7 9 28 8
35 0z m211 -22 c2 -3 4 -6 4 -9 0 -4 -7 -17 -10 -17 -2 0 -26 -23 -26 -26 0
-4 -12 -14 -18 -16 -18 -4 -28 4 -28 21 0 13 3 17 17 23 12 5 25 12 27 14 1 1
5 4 10 8 11 7 19 8 24 2z m-51 -185 c12 -7 14 -33 3 -43 -8 -9 -32 -9 -40 0
-9 8 -9 32 0 41 7 7 27 8 37 2z m-128 -94 c12 -12 3 -31 -13 -31 -11 0 -18 7
-18 18 0 11 7 18 18 18 6 0 9 -1 13 -5z m127 -93 c1 0 5 -3 8 -6 5 -5 6 -7 6
-18 0 -11 -1 -13 -6 -18 -6 -6 -7 -6 -20 -6 -9 0 -21 6 -23 12 -5 11 2 30 13
35 5 2 8 2 22 1z m-82 -39 c4 -2 9 -5 10 -6 3 -4 6 -19 4 -20 -1 0 -1 -5 0
-11 0 -8 0 -10 -6 -14 -6 -6 -6 -6 -27 -3 -15 2 -21 7 -25 21 -2 9 0 22 6 29
8 9 25 11 38 4z m48 -74 c14 -6 23 -14 27 -23 2 -7 2 -7 -1 -11 -4 -4 -5 -5
-14 -2 -14 4 -24 12 -30 22 -5 8 -5 9 -1 14 4 6 6 6 19 0z m-82 -251 c2 -2 6
-10 9 -18 3 -8 9 -20 13 -26 13 -21 7 -38 -13 -38 -16 0 -19 4 -20 35 0 14 -2
30 -3 34 -3 13 6 21 14 13z"/>
<path d="M1153 3810 c-11 -5 -20 -17 -23 -31 -4 -16 -2 -607 2 -628 2 -13 2
-18 0 -33 -6 -41 -5 -66 5 -77 7 -7 27 -16 37 -17 1 0 5 -3 8 -6 5 -5 6 -7 6
-18 0 -11 -1 -13 -6 -18 -3 -3 -7 -6 -8 -6 -10 -1 -30 -10 -36 -17 -10 -11
-10 -11 -10 -140 l0 -122 5 -13 c2 -7 6 -17 9 -22 5 -11 5 -21 0 -32 -14 -30
-14 -29 -14 -100 0 -75 -1 -70 16 -106 9 -18 7 -39 -6 -58 -10 -15 -10 -17
-10 -139 l0 -114 8 -23 c8 -27 8 -30 0 -66 -7 -32 -8 -41 -8 -81 0 -32 1 -42
3 -48 4 -9 14 -21 18 -21 2 0 3 -1 3 -2 0 -2 10 -3 55 -3 27 0 50 1 58 3 8 1
17 3 20 3 3 1 16 4 28 7 73 19 149 63 169 96 7 13 7 23 -4 43 -4 9 -8 19 -8
22 0 3 5 14 10 25 15 28 14 35 -11 63 -30 34 -26 31 -47 35 -23 4 -26 7 -26
22 0 14 6 20 20 20 9 0 11 -1 15 -5 3 -4 9 -10 13 -15 4 -5 8 -10 8 -12 0 -2
1 -2 3 0 1 1 7 2 13 3 10 1 11 1 15 7 9 15 9 16 9 191 l-1 166 -6 14 c-8 19
-8 33 0 52 l6 14 0 110 c0 61 1 111 2 111 0 1 3 4 6 8 3 4 5 7 6 6 1 -3 17 6
28 17 11 10 15 12 27 12 12 0 18 -3 26 -11 12 -12 46 -21 73 -20 7 0 24 7 29
12 6 6 19 12 25 12 6 0 19 -6 25 -12 1 -1 7 -5 13 -8 l10 -5 58 -1 c32 0 63 1
70 2 27 4 54 22 64 43 6 12 6 25 -1 38 -5 11 -29 36 -37 39 -8 3 -20 15 -24
24 -2 7 -22 26 -98 98 -21 20 -27 23 -44 28 -9 2 -17 4 -18 4 -5 0 -10 7 -13
15 -1 5 -4 11 -7 15 -4 7 -5 7 -18 8 -16 0 -19 -2 -25 -12 -3 -5 -46 -72 -62
-95 -5 -8 -12 -19 -15 -25 -7 -15 -21 -36 -29 -44 -11 -11 -16 -13 -52 -14
-18 -1 -37 -3 -41 -4 -4 -1 -14 -2 -21 -2 -18 0 -24 5 -25 18 -2 17 0 23 15
37 40 38 47 46 51 56 3 9 3 34 3 289 l0 279 6 9 c3 5 7 9 9 10 4 0 15 7 23 14
21 15 37 46 34 64 -4 23 -17 31 -59 35 -40 4 -51 1 -64 -20 -11 -16 -15 -19
-24 -19 -9 0 -15 5 -18 14 -8 27 -23 39 -55 41 -10 1 -22 2 -26 2 -40 5 -133
13 -143 13 -9 0 -17 -1 -22 -4z m167 -59 c10 -5 13 -18 9 -40 -2 -10 -3 -21
-2 -30 2 -25 2 -29 -5 -36 -8 -8 -24 -8 -32 0 -6 6 -6 7 -7 29 0 14 -2 28 -5
38 -4 15 -4 22 1 32 6 11 27 14 41 7z m-9 -512 c12 -7 14 -33 3 -43 -8 -9 -32
-9 -40 0 -9 8 -9 32 0 41 7 7 27 8 37 2z m-84 -119 c11 -10 3 -28 -11 -28 -9
0 -16 6 -16 16 0 14 17 22 27 12z m506 -78 c7 -6 7 -19 0 -26 -6 -7 -15 -13
-20 -14 -4 -1 -5 0 -7 7 -4 12 -3 27 2 33 6 6 19 6 25 0z m-478 -49 c3 -3 3
-3 0 -6 -3 -3 -3 -3 -6 0 -3 2 -3 3 -1 6 4 4 4 4 7 0z m455 -19 c7 -33 0 -46
-24 -47 -19 0 -29 9 -29 28 0 16 4 20 25 31 11 5 20 9 21 9 1 -1 4 -10 7 -21z
m165 -15 c3 -3 3 -3 0 -6 -3 -3 -3 -3 -6 0 -3 2 -3 3 -1 6 4 4 4 4 7 0z m-643
-99 c5 -3 10 -10 10 -15 0 -2 3 -10 7 -18 6 -13 9 -16 20 -24 7 -5 14 -11 15
-13 3 -6 2 -17 -2 -22 -4 -5 -28 -11 -54 -13 -20 -2 -23 1 -25 23 -1 14 -7 38
-11 43 -5 7 -3 29 4 36 7 6 26 8 36 3z m149 -166 c5 -4 5 -6 4 -12 -1 -4 -2
-15 -3 -24 -1 -15 -1 -17 3 -19 2 -1 5 -6 8 -11 l5 -8 -5 -6 -5 -5 -9 6 c-5 3
-9 7 -9 9 -1 2 -33 16 -36 16 0 -1 -3 0 -6 1 -13 3 -20 20 -16 36 5 16 12 20
42 21 19 0 22 0 27 -4z m-198 -123 c3 -3 3 -3 0 -6 -3 -3 -3 -3 -6 0 -3 2 -3
3 -1 6 4 4 4 4 7 0z m168 -15 c5 -5 10 -34 6 -34 -1 0 -1 -1 1 -2 1 -1 2 -2 1
-3 0 -1 2 -4 5 -7 3 -2 8 -8 10 -13 l4 -8 -5 -9 c-5 -11 -9 -13 -9 -4 0 4 -1
7 -3 7 -3 1 -6 7 -6 14 -1 11 -1 14 -2 12 -1 -3 -11 5 -24 19 -9 8 -10 20 -3
27 6 7 20 7 25 1z m-142 -41 c22 -4 24 -45 3 -54 -11 -4 -26 -2 -35 5 -11 10
-11 34 0 44 4 4 18 8 23 7 2 0 6 -1 9 -2z m155 -66 c0 -10 26 -29 53 -38 6 -2
12 -5 14 -7 8 -9 8 -32 -1 -40 -5 -6 -18 -8 -28 -6 -7 1 -12 5 -23 16 -8 8
-19 18 -26 22 -14 8 -17 12 -17 25 0 9 1 10 10 18 5 5 10 10 12 12 4 4 6 4 6
-2z m-114 -276 c3 -3 4 -7 4 -14 0 -13 -6 -19 -19 -19 -13 0 -19 6 -19 19 0 7
1 11 4 14 7 8 23 8 30 0z m-17 -115 c7 -3 12 -13 12 -25 0 -19 -9 -28 -28 -28
-19 0 -28 9 -28 28 0 24 19 34 44 25z"/>
</g>
</svg>
