<?xml version="1.0" standalone="no"?>
<!DOCTYPE svg PUBLIC "-//W3C//DTD SVG 20010904//EN"
 "http://www.w3.org/TR/2001/REC-SVG-20010904/DTD/svg10.dtd">
<svg version="1.0" xmlns="http://www.w3.org/2000/svg"
 width="1100.000000pt" height="2850.000000pt" viewBox="0 0 1100.000000 2850.000000"
 preserveAspectRatio="xMidYMid meet">
<metadata>
Created by potrace 1.15, written by Peter Selinger 2001-2017
</metadata>
<g transform="translate(0.000000,2850.000000) scale(0.500000,-0.500000)"
fill="#000000" stroke="none">
<path d="M921 3840 c-39 -3 -58 -9 -74 -25 -9 -8 -9 -8 -9 -23 0 -15 2 -18 20
-36 2 -2 7 -8 12 -14 5 -6 10 -12 11 -14 2 -1 6 -7 10 -14 11 -16 10 -15 28
-33 17 -17 21 -24 21 -38 0 -3 1 -9 2 -13 1 -7 1 -8 -5 -14 -7 -6 -9 -7 -12
-5 -1 0 -2 -1 -3 -2 0 -1 -4 -3 -7 -5 -6 -3 -33 -41 -41 -57 -8 -17 -21 -24
-27 -14 -3 4 -3 7 -1 17 4 24 3 33 -5 42 -3 5 -10 11 -16 14 l-10 5 -74 1
c-67 0 -75 0 -81 -3 -8 -5 -14 -12 -15 -19 0 -3 -1 -5 -1 -6 0 -1 0 -9 0 -19
l0 -17 -10 -10 c-5 -5 -10 -9 -11 -8 -1 0 -1 -7 -1 -17 0 -11 1 -17 2 -15 1 2
2 2 3 -1 4 -6 22 -7 149 -8 137 -1 141 -1 153 -13 12 -10 26 -30 38 -51 3 -5
7 -11 8 -11 1 -1 1 -2 -1 -2 -4 0 -3 -9 3 -17 2 -3 3 -5 2 -5 -1 0 9 -18 13
-22 1 -2 2 -4 1 -4 -1 0 0 -1 2 -3 3 -2 8 -17 6 -23 0 -2 -1 -6 -2 -9 -1 -3
-4 -7 -8 -9 -3 -2 -5 -4 -3 -4 2 0 2 -3 2 -11 -3 -27 -1 -28 82 -26 36 0 69 1
73 2 11 1 31 8 44 15 16 9 26 8 46 -5 2 -1 4 -3 5 -3 1 -1 5 -3 9 -5 7 -4 15
-4 109 -5 l102 0 5 -5 c2 -2 6 -5 7 -6 2 0 2 -1 0 -1 -2 0 -7 -2 -11 -4 l-8
-5 -136 -1 c-120 -1 -137 -2 -147 -5 -14 -4 -24 -4 -44 1 -10 2 -26 4 -37 4
l-20 1 -11 -11 c-6 -7 -13 -12 -16 -12 -3 -1 -6 -2 -6 -3 -2 -3 -30 -2 -38 1
-4 1 -15 6 -24 10 -10 5 -24 9 -32 11 -12 2 -60 5 -101 5 -8 0 -25 -5 -30 -9
-2 -2 -9 -8 -15 -12 -19 -14 -30 -30 -35 -53 -1 -7 -8 -11 -15 -12 -19 -2 -26
4 -26 21 0 11 0 11 12 24 13 14 21 34 18 45 -3 11 5 23 20 26 8 2 13 1 33 -4
21 -5 27 -6 55 -6 35 0 43 2 50 9 6 7 13 25 12 35 0 3 1 9 3 12 6 8 28 28 32
28 3 0 3 1 2 2 -2 1 -3 5 -3 11 1 12 -2 17 -10 23 -6 4 -7 4 -121 3 l-116 0
-17 -8 c-22 -9 -26 -9 -48 0 l-17 8 -52 1 c-58 0 -65 -1 -81 -14 -16 -13 -28
-15 -36 -7 -7 8 -5 16 8 36 10 14 13 28 9 38 -2 5 -5 10 -8 13 -6 5 -27 12
-31 10 -7 -4 -21 -2 -27 2 -9 7 -6 31 6 43 6 7 7 7 19 7 15 0 18 -1 27 -14 11
-15 18 -20 32 -21 11 -1 13 -1 20 5 5 3 12 10 15 15 17 24 17 24 30 29 28 10
45 27 40 40 0 1 -1 3 -1 6 -1 7 -7 15 -15 18 -6 3 -13 4 -43 4 -20 0 -42 1
-49 2 -12 2 -53 15 -79 24 -13 5 -80 28 -88 30 -3 1 -28 9 -55 19 -27 9 -50
17 -51 17 -1 0 -9 3 -18 6 -15 6 -18 6 -33 3 -6 -1 -14 -9 -18 -18 -4 -8 -4
-16 -4 -147 0 -172 -1 -166 27 -168 l13 -1 13 13 c32 33 56 41 87 27 17 -8 19
-12 19 -39 0 -24 -3 -30 -15 -30 -3 0 -11 -2 -17 -5 -12 -6 -18 -14 -20 -32
-2 -13 -10 -20 -23 -20 -7 0 -11 2 -14 4 -4 4 -11 14 -11 18 0 4 -12 10 -23
11 -11 0 -13 0 -17 -5 -3 -2 -5 -6 -5 -7 0 -1 -1 -2 -2 -2 -2 0 -7 -11 -10
-23 -2 -5 -2 -25 -1 -61 1 -57 1 -62 6 -93 3 -19 3 -38 -1 -45 -4 -8 -5 -22
-6 -111 -1 -98 0 -115 5 -121 3 -3 35 -5 35 -1 0 0 2 3 6 6 18 18 46 12 52
-10 4 -17 -4 -35 -23 -55 -6 -7 -14 -16 -17 -19 -3 -3 -10 -9 -15 -13 -22 -16
-34 -31 -40 -52 -2 -6 -4 -14 -5 -18 -1 -3 -3 -12 -3 -20 0 -7 -1 -25 -2 -39
-1 -36 -3 -60 -4 -70 -2 -16 -4 -56 -4 -71 0 -16 6 -32 17 -41 9 -8 12 -14 12
-27 0 -7 1 -21 2 -30 2 -21 1 -24 -15 -28 -16 -6 -25 -12 -31 -23 -5 -10 -5
-10 -8 -35 -1 -10 -3 -21 -3 -23 -1 -2 -2 -10 -3 -18 -5 -29 5 -43 34 -53 19
-6 23 -33 8 -45 -5 -3 -8 -3 -26 -3 -13 1 -28 -5 -36 -14 -5 -5 -5 -7 -4 -17
1 -6 3 -13 5 -16 7 -10 17 -25 17 -26 0 -6 -20 -19 -27 -19 -6 0 -20 -17 -25
-29 -9 -23 1 -42 27 -51 15 -6 19 -11 19 -25 0 -6 -1 -13 -2 -16 -3 -8 -4 -13
-4 -22 0 -6 -2 -10 -4 -13 -3 -3 -3 -4 -1 -5 1 -1 0 -1 -3 0 -2 0 -4 0 -4 -1
0 -2 -1 -2 -3 -1 -2 0 -3 0 -3 -1 0 -4 -9 10 -15 22 -6 12 -9 14 -25 14 -14 0
-18 -2 -23 -15 -3 -7 -1 -23 2 -30 9 -14 26 -25 44 -26 11 -1 16 4 18 16 1 5
2 9 3 9 1 0 2 2 4 5 1 3 3 5 5 4 2 -1 3 0 3 1 0 1 2 2 4 2 1 0 8 1 14 2 6 1
11 2 11 1 2 -1 14 10 45 42 32 31 36 38 37 67 2 20 5 25 17 27 4 1 8 2 11 3 2
2 4 3 5 3 9 -1 25 11 36 26 18 27 42 66 58 96 7 14 17 42 15 45 -1 1 0 2 1 2
1 0 2 1 2 2 -1 2 2 10 4 10 2 0 14 11 14 13 0 0 5 13 11 27 6 14 14 34 18 46
11 30 17 34 32 22 13 -10 19 -10 76 -10 29 1 54 2 57 3 15 4 40 4 54 0 3 -1
28 -2 56 -2 49 -1 51 -1 67 4 22 7 25 7 31 3 8 -5 3 -15 -12 -26 -5 -3 -16
-13 -24 -21 -25 -25 -60 -58 -89 -83 -19 -16 -30 -28 -34 -36 -1 -3 -1 -15 -1
-28 0 -21 0 -22 -5 -27 -7 -7 -16 -6 -32 1 -10 6 -14 7 -25 7 -17 0 -18 -1
-20 -16 -1 -14 2 -21 13 -28 11 -7 13 -10 13 -23 0 -16 -11 -23 -28 -20 -10 2
-12 4 -19 32 0 2 -1 5 -1 7 0 9 -26 11 -41 3 -21 -11 -29 -25 -29 -52 0 -17
-5 -24 -17 -24 -6 0 -27 9 -34 14 -1 1 -6 2 -11 3 -12 3 -22 -1 -70 -23 -9 -5
-18 -16 -20 -26 -3 -14 -3 -15 9 -38 l4 -9 15 -1 c16 -1 19 0 23 9 4 6 4 7 5
12 0 5 7 11 13 11 6 0 8 -1 20 -14 10 -10 20 -16 31 -16 10 -1 99 24 161 45
29 10 53 18 55 18 2 0 7 2 12 4 14 5 23 9 32 12 4 1 15 6 24 9 24 9 88 36 115
49 13 6 24 11 24 11 2 0 31 18 35 22 6 5 20 12 40 20 21 8 46 22 83 48 l9 6 4
-5 c3 -3 5 -8 6 -17 2 -24 8 -29 28 -28 6 1 10 0 10 -1 0 -3 14 38 14 42 0 2
3 6 6 9 5 5 7 6 17 6 10 0 12 -1 17 -6 8 -8 8 -22 0 -37 -5 -10 -9 -19 -18
-43 -2 -8 -16 -24 -19 -24 -1 0 -2 -3 -2 -8 0 -9 -5 -18 -11 -21 -2 -2 -6 -5
-8 -9 -2 -3 -5 -6 -7 -6 -2 0 -3 -1 -2 -1 0 -1 -2 -2 -6 -2 -9 1 -16 -4 -18
-11 -2 -9 -1 -20 1 -28 l2 -8 17 0 c15 0 17 0 17 -3 0 -2 1 0 2 4 1 4 2 12 4
18 1 7 1 12 -1 17 -2 6 -2 9 0 14 2 4 2 8 2 8 -3 4 13 1 21 -3 16 -8 32 -13
53 -16 11 -1 21 -4 22 -5 2 -2 5 -10 7 -18 5 -19 5 -19 10 -33 3 -9 4 -17 3
-29 0 -27 4 -33 26 -35 8 -1 35 7 42 12 11 8 16 29 10 46 -7 22 6 41 28 40 10
-1 18 -4 23 -10 4 -4 6 -5 18 -4 17 1 20 2 22 5 2 4 1 15 -4 35 -4 16 -4 17
-1 28 10 36 10 45 -1 51 -5 3 -30 6 -30 4 0 -3 -10 -6 -18 -6 -19 1 -29 9 -29
28 0 20 6 26 30 27 14 2 15 1 16 -3 1 -3 2 -4 4 -1 2 2 4 3 5 2 1 0 4 1 6 4 4
5 5 7 5 23 1 17 1 19 10 37 8 16 10 21 11 38 2 23 7 34 16 34 4 1 9 2 11 4 8
5 28 4 34 -2 6 -4 6 -6 6 -20 0 -14 0 -15 -7 -22 -12 -13 -14 -17 -14 -30 0
-10 1 -14 5 -18 5 -8 35 -40 55 -61 l15 -16 13 0 c15 -1 21 3 28 19 6 12 13
18 22 17 15 0 44 12 51 22 7 11 26 14 38 6 8 -5 25 -25 31 -36 6 -11 6 -24 1
-34 -3 -7 -6 -9 -25 -18 -37 -18 -49 -21 -68 -17 -4 1 -8 2 -9 2 -1 0 -2 -4
-3 -8 -1 -7 -1 -9 1 -9 2 0 3 -1 3 -2 0 -1 1 -2 2 -1 1 1 3 -2 5 -5 2 -3 5 -6
5 -6 1 0 2 -2 2 -4 0 -2 1 -4 2 -6 2 -1 2 -2 1 -2 -4 0 11 -6 19 -7 7 -1 13 0
26 4 10 4 20 6 24 6 9 -1 18 -10 18 -18 0 -3 1 -10 2 -14 8 -31 9 -33 53 -54
19 -9 36 -17 39 -18 3 -1 10 -4 15 -6 18 -8 35 -15 36 -14 0 1 4 1 8 2 4 0 9
1 9 1 1 0 5 2 8 5 8 7 13 18 17 34 2 8 4 19 6 24 2 6 4 19 4 33 l1 22 -7 0
c-4 0 -9 -2 -12 -5 -3 -3 -6 -4 -7 -4 -1 1 -2 0 -2 -1 0 -6 -31 -6 -50 0 -20
8 -27 20 -19 33 5 8 30 19 44 20 4 0 10 2 14 3 8 3 10 3 13 4 4 0 18 32 18 40
0 4 1 8 2 8 1 0 1 1 1 3 -1 2 -1 3 0 3 1 0 2 4 1 8 0 5 0 13 -1 18 -1 10 4 25
10 31 12 14 45 8 54 -10 5 -9 7 -24 3 -31 -1 -3 -2 -9 -2 -15 0 -23 20 -28 39
-11 6 6 14 23 18 43 1 4 3 6 9 8 4 2 12 6 18 8 l10 5 0 12 c0 6 -1 13 -1 15
-2 6 -18 13 -31 14 -5 1 -17 2 -27 3 -10 1 -27 3 -37 3 -10 1 -22 3 -26 4 -3
2 -9 3 -12 3 -4 0 -16 2 -29 4 -12 2 -25 4 -28 5 -13 2 -65 13 -76 16 -7 2
-14 3 -16 4 -2 0 -8 1 -12 3 -4 1 -10 2 -13 3 -8 1 -67 19 -94 27 -32 11 -31
11 -52 7 -21 -4 -30 -4 -36 1 -9 7 -10 25 -1 32 9 7 20 5 43 -6 l21 -11 21 0
c20 0 21 0 30 6 9 6 19 21 21 32 2 10 9 15 20 15 9 0 19 -5 19 -11 0 -6 12
-29 18 -34 11 -9 16 -9 101 -9 93 1 88 0 110 23 9 10 14 13 18 13 9 0 31 8 37
14 5 5 6 7 6 16 0 14 -6 24 -23 39 -8 7 -16 14 -20 17 -11 10 -19 11 -54 7
-14 -2 -18 3 -20 22 -3 38 -5 41 -56 83 -14 11 -25 22 -25 22 0 1 -6 2 -14 1
-16 0 -20 -3 -29 -21 -3 -7 -7 -13 -9 -14 -2 -1 -5 -2 -8 -4 -6 -3 -20 -1 -27
4 -2 2 -9 12 -14 23 -9 17 -13 23 -34 45 -14 14 -25 26 -25 26 0 5 8 9 41 17
20 5 40 11 44 13 8 4 16 6 21 7 2 0 9 3 17 6 41 17 57 34 59 68 1 15 -3 31 -9
34 -3 2 -31 4 -31 3 0 -1 -5 -4 -10 -7 -9 -4 -12 -4 -15 -3 -6 4 -9 7 -9 13 0
2 -2 11 -5 19 -2 8 -7 25 -10 38 -3 13 -6 25 -7 27 -2 2 -3 10 -4 18 0 12 0
14 4 18 3 3 7 5 10 5 14 -1 33 7 41 16 3 3 10 10 15 14 19 15 22 19 24 32 1
10 1 12 -2 13 -2 1 -4 2 -5 4 -1 3 -21 11 -32 12 -16 2 -22 10 -22 27 0 18 6
25 22 27 19 2 25 6 23 16 -1 7 2 12 12 17 4 2 10 6 14 9 4 3 9 5 14 5 6 0 9 2
21 12 7 7 13 14 14 16 6 18 2 31 -14 47 -11 11 -52 44 -79 62 l-10 7 7 5 8 5
65 0 c37 0 70 1 76 2 18 4 25 12 32 34 2 8 7 20 10 27 5 9 6 14 6 23 -1 10 -4
22 -8 22 0 0 -3 2 -6 5 -16 14 -18 15 -31 15 -11 0 -15 -1 -28 -8 -16 -8 -16
-8 -42 -9 -14 -1 -30 -1 -34 -2 -32 -4 -43 11 -35 44 4 14 4 19 3 36 -1 11 -2
23 -2 27 0 3 -1 6 -2 6 -1 0 -1 1 0 2 1 2 -1 8 -3 7 -1 0 -3 1 -4 4 -1 3 -3 5
-4 5 -3 0 -12 16 -12 22 0 8 6 14 14 14 10 0 12 -4 15 -23 3 -16 4 -18 10 -24
16 -16 30 -19 92 -19 52 0 61 1 81 9 24 9 46 35 46 53 0 9 -6 23 -12 31 -6 6
-22 10 -33 7 -10 -2 -12 -4 -21 -17 -13 -19 -26 -21 -53 -10 -18 7 -24 12 -34
27 -5 7 -12 16 -16 20 -14 15 -16 23 -9 44 2 7 4 13 4 14 0 1 1 4 3 8 4 10 4
21 0 37 -4 13 -11 21 -34 40 -10 9 -10 9 -25 8 -13 0 -16 -1 -25 -6 -9 -6 -12
-7 -23 -7 -7 0 -17 -1 -21 -2 -4 -1 -10 -3 -12 -3 -7 -2 -14 -8 -24 -22 -10
-12 -10 -13 -9 -24 1 -18 10 -25 37 -30 6 -1 13 -3 24 -8 3 -1 12 -5 19 -7 23
-8 28 -14 21 -29 -5 -10 -15 -14 -42 -15 -22 0 -48 3 -79 11 -12 3 -27 4 -39
1 -8 -2 -18 -9 -16 -12 1 -1 0 -2 -1 -2 -3 0 -2 -31 2 -33 2 -2 3 -6 3 -18 0
-14 0 -16 -6 -20 -4 -4 -7 -5 -18 -5 -11 0 -14 1 -18 5 -6 4 -6 6 -6 20 0 12
1 16 3 17 3 2 3 5 2 16 -1 14 -5 22 -11 22 -2 0 -3 1 -3 2 0 1 -34 2 -91 2
-111 0 -108 1 -119 -27 -3 -7 -5 -12 -5 -13 0 -1 -2 -3 -4 -6 -3 -4 -4 -5 -16
-5 -12 0 -14 1 -18 6 -3 3 -5 5 -4 5 1 0 0 3 -2 7 -1 4 -2 7 -2 7 1 0 1 1 -1
3 -1 1 -2 7 -3 12 -2 16 -3 21 -6 21 -1 0 -1 1 0 2 4 2 7 25 6 53 0 25 -1 27
-7 40 -18 40 -46 67 -90 89 -32 15 -40 17 -58 14 -19 -2 -38 -12 -53 -27 -14
-13 -19 -15 -31 -16 -16 0 -28 8 -28 20 0 5 -8 24 -13 29 -11 13 -21 16 -50
14z m57 -114 c6 -6 8 -11 7 -17 -1 -3 -1 -6 1 -7 2 -1 2 -2 1 -2 -2 0 -3 0 -3
0 -1 1 -3 0 -5 -2 -4 -1 -5 -1 -10 4 -3 4 -5 8 -5 9 0 2 -1 3 -2 3 -3 0 -2 7
1 12 4 5 11 5 15 0z m20 -32 c1 -1 6 -4 11 -8 12 -7 33 -10 48 -6 20 5 27 4
80 -18 12 -5 16 -24 6 -33 -4 -5 -5 -5 -28 -5 -43 1 -48 1 -54 4 -12 5 -28 8
-46 8 -28 0 -31 4 -32 35 -1 22 1 27 9 25 3 0 5 -1 6 -2z m-763 -154 c10 -9 3
-26 -10 -26 -8 0 -15 7 -15 15 0 13 16 20 25 11z m829 -13 c3 -3 4 -7 4 -14 0
-13 -6 -19 -19 -19 -13 0 -19 6 -19 19 0 7 1 11 4 14 7 8 23 8 30 0z m352 -3
c3 -3 6 -8 7 -10 1 -2 2 -4 3 -4 1 0 2 -1 2 -3 0 -4 8 -10 19 -15 8 -4 12 -4
48 -4 22 0 39 1 41 2 1 2 2 2 2 1 0 -1 2 0 3 1 3 2 3 2 2 1 -1 -2 1 -3 6 -3 5
0 7 1 6 3 -1 1 -1 1 2 -1 2 -2 7 -2 23 -1 10 1 26 2 34 2 13 0 15 -1 21 -7 5
-5 6 -7 5 -14 0 -12 -4 -24 -8 -29 -3 -3 -13 -9 -16 -9 -5 0 -32 -14 -38 -20
-11 -10 -22 -12 -60 -12 -32 0 -33 0 -45 -6 -11 -5 -21 -14 -21 -18 0 -1 -1
-2 -1 -2 -1 -1 -5 -7 -9 -15 -8 -16 -15 -21 -30 -22 -16 0 -28 8 -28 20 0 5
-11 28 -16 32 -11 10 -13 10 -60 11 -44 1 -46 1 -51 6 -4 4 -4 5 -2 12 4 11 4
41 -1 50 l-3 7 7 6 7 5 39 0 c48 0 56 2 71 18 22 22 24 24 29 24 4 0 8 -2 12
-6z m-253 -73 c3 -2 9 -12 14 -23 9 -17 10 -20 10 -33 0 -18 -3 -22 -21 -26
-7 -2 -21 -6 -31 -9 -10 -3 -21 -6 -24 -6 -8 0 -15 7 -15 16 0 9 5 15 19 23
17 10 22 16 27 36 6 23 11 29 21 22z m-566 -99 c8 -4 11 -9 17 -27 2 -4 4 -10
5 -12 2 -2 3 -5 3 -7 0 -1 3 -7 8 -12 12 -14 14 -19 14 -27 0 -10 -7 -17 -18
-17 -11 0 -14 3 -31 36 -1 2 -3 3 -3 2 -3 -8 -29 14 -29 25 0 2 -1 5 -2 5 -1
1 -2 8 -2 16 -1 14 -1 15 3 19 8 8 20 7 35 -1z m1063 -30 c3 -4 4 -7 4 -13 -1
-10 2 -21 4 -21 1 0 2 -1 1 -2 -1 -2 14 -18 17 -18 1 0 2 -1 1 -2 -1 -1 0 -3
1 -5 2 -2 3 -11 2 -24 0 -9 -8 -18 -21 -24 -4 -2 -7 -4 -7 -5 0 0 -3 -3 -6 -4
l-6 -4 1 -21 c1 -20 1 -22 -2 -27 -5 -5 -15 -8 -24 -6 -7 2 -31 15 -43 24 -15
12 -35 15 -53 9 -9 -3 -14 -4 -26 -3 -2 0 -6 3 -9 6 -5 5 -6 7 -6 18 0 11 1
13 6 18 3 3 7 6 9 6 15 1 20 0 31 -7 12 -7 14 -8 26 -8 8 0 16 1 21 4 7 3 10
3 25 0 3 -1 12 -2 19 -1 7 1 14 0 14 0 1 -1 3 -3 5 -4 3 -2 4 -2 3 1 -1 2 -2
3 -3 3 -1 0 -2 4 -2 10 1 5 0 10 -1 12 -2 3 1 17 4 25 5 8 1 40 -5 46 -3 3 -2
12 2 17 4 5 13 5 18 0z m-1282 0 c1 0 5 -3 8 -6 5 -5 6 -7 6 -18 0 -11 -1 -13
-6 -18 -6 -6 -7 -6 -18 -6 -11 0 -12 0 -18 6 -5 5 -6 7 -6 17 0 14 3 20 12 24
5 2 8 2 22 1z m176 -69 c-1 -27 8 -50 23 -57 10 -6 29 -12 34 -12 13 0 18 -23
8 -33 -3 -4 -7 -5 -14 -5 -6 0 -10 1 -11 2 0 1 -3 1 -9 0 -4 -1 -10 -3 -12 -3
-11 -2 -19 -14 -19 -29 0 -13 8 -38 12 -38 1 0 2 -1 2 -3 0 -1 1 -3 2 -3 3 -2
8 -15 8 -23 0 -8 -5 -21 -8 -23 -1 0 -2 -2 -2 -3 0 -2 -1 -3 -2 -3 -2 0 -5 -8
-9 -20 -2 -7 -3 -33 -3 -128 0 -110 0 -121 4 -136 2 -10 4 -23 5 -31 1 -15 7
-30 13 -33 6 -3 24 -3 31 0 36 19 43 22 50 22 9 0 18 -7 25 -23 8 -14 23 -30
33 -32 3 -1 8 -2 11 -4 3 -1 5 -1 6 0 0 1 9 5 18 8 32 10 45 19 58 38 11 17
23 19 116 21 50 1 74 2 76 3 4 3 28 3 31 1 2 -2 9 -3 15 -3 16 -2 32 4 44 15
5 4 14 10 19 14 11 8 26 22 32 30 2 3 6 9 9 15 4 5 7 9 9 9 1 0 1 1 -1 2 -2 1
-2 4 -1 11 2 18 -7 25 -32 25 l-16 1 13 1 c7 1 16 3 20 5 4 2 13 4 30 4 23 1
23 1 30 -4 7 -7 8 -17 2 -38 -2 -8 -5 -22 -6 -31 -4 -36 -3 -34 -23 -47 -10
-6 -21 -15 -25 -19 -15 -16 -23 -17 -52 -10 -22 6 -34 5 -85 -7 -23 -5 -60
-13 -83 -17 -42 -8 -51 -12 -60 -21 -5 -5 -17 -28 -16 -31 0 -4 -10 -10 -18
-11 -12 -1 -43 -11 -47 -15 -2 -2 -11 -3 -16 -1 -2 1 -6 7 -10 14 -8 14 -16
22 -23 24 -7 2 -10 5 -9 7 1 1 -2 1 -6 -1 -4 -2 -9 -3 -12 -4 -2 0 -6 -1 -8
-2 -2 0 -8 -1 -13 -2 -5 -1 -10 -2 -12 -2 -2 0 -7 -1 -13 -2 -9 -1 -20 -3 -54
-8 -20 -3 -37 -5 -46 -6 -14 -2 -26 -5 -33 -8 -6 -3 -16 -15 -17 -19 0 -2 -1
-4 -1 -5 -1 -1 -3 -8 -5 -16 -3 -14 -9 -23 -14 -23 -3 0 -1 -34 3 -36 6 -4 24
-6 55 -6 31 -1 33 -1 48 5 9 3 18 6 20 7 1 1 12 2 24 3 15 0 24 2 35 6 23 8
29 7 45 -9 21 -20 55 -24 85 -10 26 13 27 13 37 9 6 -2 12 -5 15 -7 14 -9 47
-13 64 -7 10 4 20 12 26 23 7 11 13 16 20 16 12 0 16 -7 18 -33 1 -16 1 -16
-5 -22 l-6 -6 -64 0 c-61 0 -65 0 -81 -4 -21 -6 -31 -6 -53 0 -17 5 -20 5 -58
5 l-40 -1 -18 -8 c-24 -10 -32 -10 -57 0 l-19 8 -34 1 c-46 1 -54 -3 -59 -23
-1 -5 -2 -11 -2 -14 0 -3 0 -11 0 -16 1 -18 -7 -26 -26 -26 -10 0 -13 1 -23 8
-6 4 -14 9 -17 11 -8 4 -10 8 -10 18 1 20 -7 36 -22 46 -11 8 -14 12 -14 26 0
9 1 11 6 16 3 3 7 6 9 6 3 0 5 1 6 2 1 1 5 3 10 4 17 5 30 24 28 39 -1 9 -5
17 -11 24 -6 5 -23 17 -26 17 -3 0 -10 12 -10 19 0 7 3 12 12 21 5 6 9 12 13
24 5 13 8 18 13 23 24 19 26 22 30 33 3 9 6 40 7 71 0 2 -3 12 -6 25 -6 21 -6
22 -3 34 1 7 3 16 4 19 0 3 1 12 1 19 0 8 0 14 1 14 1 0 1 2 2 6 0 3 1 12 3
20 3 13 3 39 3 176 l-1 161 7 6 c3 4 6 6 6 5 0 -2 51 0 53 2 1 1 4 -1 8 -5 5
-6 6 -8 5 -22z m-301 -39 c10 -4 29 -8 41 -7 10 0 13 0 16 -4 4 -4 4 -4 0 -8
-2 -2 -3 -4 -3 -5 1 -1 0 -2 -1 -3 -2 -1 -3 -21 -1 -28 1 -3 4 -5 7 -6 3 -1 6
-2 5 -3 0 -1 1 -2 4 -4 10 -4 11 -18 5 -44 -2 -10 -4 -24 -5 -33 -2 -21 -7
-27 -24 -27 -20 0 -27 13 -21 39 4 17 4 36 1 48 -2 10 -2 13 0 16 3 5 1 12 -4
14 -2 0 -7 0 -11 -1 -5 -1 -11 -2 -15 -1 -3 1 -9 2 -12 2 -14 1 -21 7 -25 21
-2 9 0 22 6 29 7 8 24 11 37 5z m831 -1 c10 -3 15 -11 15 -25 0 -6 -1 -13 -2
-14 -3 -4 -3 -5 0 -20 3 -14 1 -16 -12 -16 -17 0 -34 14 -36 27 0 4 -1 7 -2 9
-1 1 -2 9 -2 17 -1 14 -1 15 4 20 4 4 7 5 16 5 7 0 15 -1 19 -3z m356 -46 c3
-2 7 -8 8 -12 5 -12 9 -40 7 -52 -1 -12 -8 -26 -13 -26 -1 -1 -7 -1 -11 -2
-12 -2 -17 3 -17 19 0 9 -3 27 -9 51 -4 18 22 34 35 22z m318 -5 c4 -2 15 -23
14 -26 0 -1 1 -2 2 -2 3 0 -1 -8 -5 -11 -5 -3 -11 -3 -24 0 -2 0 -5 1 -7 1 -1
0 -4 2 -7 5 -7 7 -7 23 0 30 5 5 20 7 27 3z m-1346 -21 l-5 -5 -4 4 -5 5 4 4
5 5 4 -4 5 -5 -4 -4z m870 -7 c21 -5 38 -8 54 -9 20 -1 24 -4 24 -18 0 -17
-12 -23 -32 -16 -23 8 -34 9 -51 5 -25 -5 -33 -4 -47 11 -6 7 -12 13 -14 14
-2 0 -2 1 0 1 1 0 4 2 7 4 8 8 40 13 59 8z m-396 -82 c0 -73 1 -80 10 -94 5
-8 10 -23 9 -27 -1 -3 0 -11 1 -18 2 -11 4 -15 12 -25 15 -17 15 -17 -11 -62
-3 -5 -6 -11 -7 -14 -5 -11 -9 -19 -9 -20 0 -1 -1 -2 -1 -3 -1 -1 -2 -4 -2 -6
0 -3 -1 -5 -2 -6 -1 0 -1 -3 0 -6 2 -12 -13 -20 -19 -10 -3 4 -3 6 0 16 4 15
4 38 1 46 -2 4 -3 20 -4 46 l-1 40 -7 14 c-4 7 -9 15 -12 17 -7 5 -27 4 -39
-3 -15 -7 -29 -7 -37 1 -5 5 -6 7 -6 17 0 10 1 12 6 17 6 6 7 6 18 5 6 0 15
-2 20 -4 5 -2 14 -4 20 -4 15 0 21 4 30 22 7 13 7 14 7 37 -1 97 -1 92 6 99
l6 6 6 -6 6 -6 -1 -69z m281 77 c6 -2 11 -4 11 -5 0 -1 2 -2 5 -2 4 0 4 0 0
-2 -5 -2 -17 -25 -17 -32 0 -11 -18 -20 -34 -16 -10 2 -18 10 -18 16 0 7 -13
32 -16 32 -3 0 -3 0 0 1 2 1 4 3 5 4 5 7 45 9 64 4z m-347 -53 c5 -5 5 -11 0
-16 -10 -10 -27 5 -16 16 4 4 12 4 16 0z m515 -35 c9 -4 13 -28 6 -41 -4 -8
-5 -26 -2 -51 1 -15 1 -16 -3 -21 -8 -11 -29 -12 -50 -5 -19 6 -22 23 -9 44 8
15 13 31 13 48 -1 19 5 27 21 29 5 1 18 -1 24 -3z m137 -25 c9 -3 24 -7 33 -8
21 -4 27 -9 27 -25 0 -10 -1 -12 -6 -17 -6 -6 -6 -6 -24 -6 -33 1 -48 -10 -42
-32 3 -10 26 -20 45 -20 6 0 10 -1 14 -5 6 -4 6 -6 6 -20 l0 -15 -19 -18 c-24
-23 -25 -24 -41 -26 -14 -2 -18 -4 -24 -10 -4 -4 -12 -28 -9 -28 4 0 2 -13 -2
-17 -9 -10 -26 -3 -26 10 0 4 1 7 2 7 1 0 1 2 0 6 -2 4 -3 7 -5 17 0 1 -1 3
-2 3 -1 1 -1 3 1 5 1 1 2 6 2 10 -1 6 -2 8 -6 9 l-5 2 5 0 c7 0 24 10 24 13 0
2 1 3 2 3 1 0 4 6 6 12 6 18 6 70 0 91 -3 8 -5 15 -6 16 -3 4 -6 22 -4 29 1 6
5 16 7 16 0 0 4 1 8 3 10 4 18 3 39 -5z m-321 -2 c14 -4 24 -6 31 -6 8 1 10 0
15 -5 5 -6 6 -8 6 -19 0 -11 -1 -13 -6 -19 l-6 -6 -27 0 c-23 1 -27 0 -34 -3
-9 -5 -9 -5 -8 -22 l0 -12 -8 0 c-6 0 -8 1 -7 3 1 2 2 3 3 3 1 0 2 1 1 2 -1 1
0 2 1 2 1 0 2 1 1 2 -1 1 0 2 1 2 1 0 2 5 2 12 0 12 -1 13 -8 18 -7 5 -8 6 -9
26 -2 16 1 23 11 27 8 3 16 2 41 -5z m-491 -34 c5 -6 5 -12 0 -18 -7 -8 -22
-2 -22 9 0 11 15 17 22 9z m-241 -49 c10 -7 10 -27 0 -34 -7 -5 -22 -4 -28 2
-7 7 -7 23 0 30 6 6 21 7 28 2z m707 -14 c6 -5 5 -18 0 -24 -6 -7 -19 -7 -25
-1 -6 6 -7 19 -2 24 5 5 22 5 27 1z m-130 -3 c5 -6 5 -12 -1 -19 -3 -4 -6 -5
-8 -4 -3 1 -3 1 -1 -2 1 -2 -1 -1 -5 4 -8 8 -9 14 -3 21 4 5 13 5 18 0z m377
-49 c-2 -2 -3 -8 -3 -15 0 -9 1 -10 5 -12 4 -2 4 -2 -2 -2 -8 0 -13 -3 -13 -9
0 -5 9 -16 12 -14 1 1 2 -1 2 -3 0 -2 -1 -4 -2 -3 -1 1 -6 -4 -11 -10 -11 -12
-19 -15 -31 -13 -10 2 -14 8 -14 21 0 13 5 19 18 23 5 2 9 3 10 4 1 1 2 1 4 1
7 1 8 1 7 4 -1 1 -1 1 1 0 3 -3 4 -3 4 7 1 2 1 4 2 4 2 0 2 7 0 14 -2 7 -2 9
1 12 l4 4 4 -4 c4 -4 5 -5 2 -9z m-389 -10 c0 1 14 -14 14 -16 0 -1 5 -11 11
-24 14 -30 15 -31 15 -52 1 -16 -3 -21 -14 -21 -8 0 -15 3 -25 9 -15 10 -17
15 -18 42 -1 12 -2 28 -3 36 -2 14 -2 14 4 19 9 8 13 10 14 7 1 -1 2 -1 2 0z
m154 -18 c-5 -1 -14 -1 -20 0 -5 0 0 0 11 0 11 0 15 0 9 0z m-722 -39 c5 -5 6
-7 6 -17 0 -15 -5 -20 -22 -24 -13 -3 -29 -10 -34 -14 -19 -17 -42 -13 -42 6
0 10 4 14 24 24 6 3 16 9 21 15 15 14 19 16 31 16 9 0 11 -1 16 -6z m1159 2
c1 -1 4 -4 6 -7 5 -7 5 -14 -1 -75 -1 -10 -1 -23 -1 -27 2 -13 -2 -16 -18 -16
-16 0 -22 5 -24 19 -2 15 -3 21 -6 24 -4 6 -18 12 -27 12 -25 0 -24 23 1 35 8
4 20 15 30 28 8 10 27 13 40 7z m120 -25 c5 -4 5 -5 3 -18 -4 -25 -10 -31 -28
-32 -20 0 -29 9 -29 28 0 22 10 29 38 28 9 -1 13 -2 16 -6z m-960 -14 c12 -12
3 -31 -13 -31 -11 0 -18 7 -18 18 0 11 7 18 18 18 6 0 9 -1 13 -5z m281 -25
c1 -3 0 -9 0 -15 -1 -10 -1 -10 -2 3 0 11 -1 14 -3 15 -3 0 -3 1 0 1 3 0 5 -1
5 -4z m-773 -11 c12 -12 3 -31 -13 -31 -11 0 -18 7 -18 18 0 11 7 18 18 18 6
0 9 -1 13 -5z m1054 -8 c12 -12 3 -31 -13 -31 -11 0 -18 7 -18 18 0 11 7 18
18 18 6 0 9 -1 13 -5z m169 -32 c14 -10 19 -21 19 -43 0 -20 -5 -38 -12 -45
-7 -7 -23 -7 -30 0 -5 4 -5 6 -5 28 0 13 0 31 -1 39 -1 13 -1 15 3 19 6 6 17
7 26 2z m-96 -74 c9 -6 24 -42 24 -58 0 -12 6 -31 12 -37 10 -9 17 -10 60 -6
53 6 67 6 91 -1 19 -5 29 -11 29 -17 0 -6 -11 -18 -21 -23 l-10 -5 -109 0
-109 -1 -6 6 c-4 4 -6 7 -6 7 0 1 1 9 2 18 1 9 3 22 5 29 3 13 4 37 1 62 l-2
17 7 6 c5 5 7 6 16 6 6 0 13 -1 16 -3z m-252 -59 c1 0 5 -3 8 -6 5 -5 6 -7 6
-17 0 -13 -3 -18 -13 -27 -10 -9 -13 -13 -22 -29 -11 -20 -12 -21 -24 -21 -23
0 -27 23 -8 44 5 5 13 21 17 33 4 13 7 18 13 21 5 3 9 3 23 2z m-832 -32 c5
-5 5 -11 0 -16 -10 -10 -27 5 -16 16 4 4 12 4 16 0z m1443 -8 c11 -10 3 -28
-11 -28 -10 0 -16 6 -16 16 0 14 17 21 27 12z m-540 -46 c7 -6 7 -19 1 -25 -6
-7 -19 -7 -25 -1 -7 6 -7 19 -1 25 6 7 19 7 25 1z m622 -32 c7 -6 7 -19 1 -25
-6 -7 -19 -7 -25 -1 -7 6 -7 19 -1 25 6 7 19 7 25 1z m-892 -15 c12 -12 3 -31
-13 -31 -11 0 -18 7 -18 18 0 11 7 18 18 18 6 0 9 -1 13 -5z m487 0 c3 -4 4
-8 4 -15 0 -14 -6 -20 -20 -20 -14 0 -20 6 -20 20 0 15 5 20 20 20 10 0 12 -1
16 -5z m-807 -23 c-4 -5 -7 -5 -11 -1 -4 4 -4 4 0 8 l5 5 4 -4 c5 -4 5 -5 2
-8z m712 -3 c4 -4 5 -7 5 -14 0 -12 -2 -15 -14 -23 -6 -3 -14 -10 -18 -14 -6
-6 -18 -28 -18 -33 0 -7 -16 -15 -27 -14 -24 1 -31 14 -26 46 1 10 3 24 4 30
2 19 3 20 30 20 16 0 27 1 32 3 13 5 26 5 32 -1z m-334 -67 c5 -5 6 -7 6 -16
0 -15 -8 -23 -23 -23 -9 0 -11 1 -16 7 -9 8 -9 23 -1 32 9 9 24 9 34 0z m-100
-40 c6 -6 7 -17 1 -23 -6 -6 -15 -6 -38 -1 -27 6 -36 15 -26 26 3 3 6 4 30 3
26 0 28 -1 33 -5z m-574 -7 c7 -4 11 -15 12 -28 1 -9 1 -9 -8 -13 -7 -3 -17
-5 -28 -4 -2 0 -6 3 -9 6 -5 5 -6 7 -6 17 0 14 3 20 12 24 8 3 21 2 27 -2z
m820 -25 c10 -9 3 -26 -10 -26 -8 0 -15 7 -15 15 0 13 16 20 25 11z m-919 -43
c-4 -5 -5 -5 -8 -2 -5 4 -5 7 -1 11 4 4 4 4 8 0 l5 -5 -4 -4z m689 -18 c3 -3
3 -3 0 -6 -3 -3 -3 -3 -6 0 -3 2 -3 3 -1 6 4 4 4 4 7 0z m-133 -22 c3 -3 4 -7
4 -14 0 -13 -6 -19 -19 -19 -13 0 -19 6 -19 19 0 7 1 11 4 14 7 8 23 8 30 0z
m1030 -13 c10 -4 15 -14 7 -14 -2 0 -5 -1 -6 -3 -7 -6 -21 0 -21 9 0 5 6 11
10 11 2 0 6 -1 10 -3z"/>
<path d="M1862 3658 c-3 0 -4 -3 -4 -15 0 -14 0 -15 7 -21 3 -3 7 -6 9 -6 2 0
5 -1 8 -1 2 0 7 2 11 4 7 4 9 14 6 29 -2 10 -18 15 -37 10z"/>
<path d="M1739 2890 c-6 -9 -5 -20 1 -27 4 -4 7 -5 15 -5 15 0 23 8 23 22 0
13 -5 17 -22 17 -12 0 -13 0 -17 -7z"/>
<path d="M1088 1968 c-9 0 -16 -2 -17 -3 -1 -1 -2 -11 -1 -22 1 -34 10 -47 34
-52 5 -1 10 3 14 10 3 6 3 29 -1 32 -1 1 -4 9 -5 17 -2 11 -4 15 -6 16 -2 0
-3 1 -3 2 1 1 1 2 1 2 -1 -1 -8 -1 -16 -2z"/>
</g>
</svg>
