<?xml version="1.0" standalone="no"?>
<!DOCTYPE svg PUBLIC "-//W3C//DTD SVG 20010904//EN"
 "http://www.w3.org/TR/2001/REC-SVG-20010904/DTD/svg10.dtd">
<svg version="1.0" xmlns="http://www.w3.org/2000/svg"
 width="1100.000000pt" height="2850.000000pt" viewBox="0 0 1100.000000 2850.000000"
 preserveAspectRatio="xMidYMid meet">
<metadata>
Created by potrace 1.15, written by Peter Selinger 2001-2017
</metadata>
<g transform="translate(0.000000,2850.000000) scale(0.500000,-0.500000)"
fill="#000000" stroke="none">
<path d="M549 3841 c-29 -7 -43 -21 -43 -43 0 -10 1 -13 7 -21 4 -4 8 -10 9
-13 7 -13 34 -18 50 -10 4 2 12 4 17 4 8 0 9 -1 14 -8 4 -5 5 -10 5 -17 0 -12
-3 -17 -18 -27 -19 -13 -23 -29 -14 -62 3 -10 6 -23 7 -27 2 -13 2 -13 3 -14
1 -1 -1 -4 -5 -7 l-7 -6 -109 0 c-121 0 -117 0 -131 -12 -15 -14 -18 -21 -15
-38 1 -5 2 -12 2 -15 1 -3 1 -8 2 -12 1 -4 0 -5 -2 -6 -2 -1 -3 -2 -1 -3 1 -1
2 -5 3 -9 2 -10 6 -18 14 -24 5 -4 8 -4 60 -5 53 -1 54 -1 62 -6 4 -3 8 -5 9
-6 0 -1 4 -7 9 -14 5 -6 9 -13 9 -14 0 -1 2 -4 4 -6 2 -2 7 -12 12 -21 13 -24
11 -42 -4 -50 -11 -5 -23 -4 -29 1 -4 4 -5 8 -6 22 -1 19 -2 25 -10 33 -5 5
-6 5 -15 4 -17 -3 -26 -8 -48 -31 -31 -31 -29 -31 -93 -32 -55 -1 -60 -2 -66
-11 -3 -5 -7 -23 -5 -25 1 0 0 -1 -2 -2 -3 -2 -3 -2 0 -2 4 0 12 -11 12 -16
-2 -9 -26 -11 -34 -3 -5 5 -5 16 0 19 1 1 2 2 1 2 -1 0 -2 2 -2 5 -2 19 -7 28
-20 31 -12 3 -114 3 -122 -1 -13 -5 -19 -13 -22 -28 -1 -10 15 -60 24 -73 9
-13 23 -19 52 -20 13 -1 33 -3 45 -5 26 -4 30 -5 36 -5 8 0 14 -8 14 -21 0
-17 -7 -23 -25 -21 -3 0 -9 -1 -13 -2 -5 -2 -10 -3 -11 -3 -4 0 -15 -12 -18
-20 -6 -15 -4 -31 7 -41 5 -5 23 -12 31 -12 10 0 14 -17 7 -24 -4 -4 -6 -4
-18 -3 -10 1 -17 0 -23 -2 -15 -5 -19 -11 -24 -34 -2 -9 -6 -25 -10 -37 -6
-23 -6 -22 -4 -33 1 -8 10 -23 13 -23 2 0 19 -17 20 -22 2 -5 -8 -8 -28 -9
-27 -1 -33 -5 -46 -33 -10 -20 -22 -40 -39 -65 -11 -16 -12 -19 -12 -29 -1
-16 3 -23 22 -41 13 -13 19 -17 26 -19 14 -4 30 0 41 11 3 2 8 7 12 10 23 18
64 58 77 75 3 4 8 9 10 11 11 12 7 43 -6 43 -1 0 -3 1 -3 2 -1 0 -5 3 -9 4 -6
3 -10 6 -15 15 -9 14 -8 16 2 19 4 1 8 3 9 4 1 1 6 2 11 2 10 0 11 -1 18 -8 7
-8 13 -15 16 -19 2 -4 22 -15 29 -16 21 -4 39 -21 46 -44 l5 -13 -5 -5 c-4 -4
-6 -5 -12 -4 -4 1 -14 2 -23 2 -23 0 -32 -5 -40 -21 l-6 -11 0 -52 c0 -32 1
-55 2 -59 3 -9 10 -22 14 -26 6 -6 12 -18 12 -25 0 -7 -6 -18 -12 -25 -11 -12
-17 -30 -16 -55 1 -25 6 -32 29 -49 17 -13 23 -21 26 -36 2 -11 -9 -20 -16
-14 -2 1 -3 2 -3 1 0 -2 -4 -3 -9 -4 -20 -2 -28 -11 -30 -33 -1 -8 -2 -26 -3
-39 -3 -32 -9 -78 -15 -109 -5 -25 -5 -35 -1 -55 3 -14 2 -21 -6 -37 -4 -10
-10 -23 -13 -31 -4 -12 -8 -17 -19 -28 -7 -8 -16 -20 -20 -27 -3 -7 -8 -17
-11 -21 -13 -25 -48 -74 -73 -101 -17 -18 -20 -23 -20 -36 0 -11 5 -21 16 -32
15 -16 34 -20 51 -14 20 8 42 20 50 28 10 11 23 17 39 20 17 3 34 11 62 30 20
13 43 29 46 32 1 1 7 6 14 12 26 20 32 32 29 59 -2 19 2 23 22 23 19 0 31 2
36 7 2 1 4 3 5 4 2 1 5 4 7 7 1 3 7 10 12 17 8 11 18 29 18 31 -1 1 0 3 1 5 1
1 3 11 4 20 3 23 3 23 21 38 12 10 23 27 29 44 6 16 15 23 28 23 13 0 24 4 48
16 53 28 77 50 76 72 0 11 -18 28 -28 28 -2 0 -4 1 -5 2 -1 2 -17 3 -50 5 -19
1 -21 2 -26 7 -5 4 -6 6 -5 10 3 7 5 46 5 70 0 21 0 21 6 27 l6 6 87 0 87 0 9
6 c14 10 19 20 19 41 0 20 -1 24 -8 39 -5 11 -23 29 -29 29 -1 0 -2 1 -2 2 -1
2 -20 4 -20 2 0 -1 -3 -3 -7 -5 -4 -1 -9 -6 -12 -11 -3 -4 -8 -11 -13 -16 -7
-8 -8 -8 -19 -8 -11 0 -12 0 -19 8 -5 5 -10 12 -13 16 -3 5 -8 10 -12 11 -4 2
-7 4 -7 5 0 2 -9 3 -26 3 -13 0 -15 0 -21 6 l-6 6 3 17 c3 25 7 31 20 38 12 6
27 7 72 5 50 -3 112 14 137 37 5 5 10 10 11 11 20 17 28 35 28 61 0 18 4 33 8
31 1 -1 2 0 2 2 0 2 2 0 3 -5 6 -16 16 -29 30 -37 14 -8 16 -13 16 -36 0 -22
2 -29 13 -34 7 -3 20 -5 20 -3 0 2 2 0 4 -3 2 -3 6 -5 7 -5 2 0 5 -3 8 -7 5
-6 30 -22 33 -22 1 1 3 -1 6 -4 6 -7 6 -22 0 -28 -3 -3 -5 -5 -6 -4 0 0 -5 -2
-10 -5 -5 -3 -10 -6 -12 -6 -1 0 -2 -1 -2 -2 -1 0 -6 -3 -13 -6 -11 -5 -15 -5
-62 -6 -64 -1 -67 -3 -67 -28 -1 -9 0 -13 3 -17 8 -8 11 -15 11 -24 0 -4 0
-12 0 -18 0 -14 7 -26 18 -32 9 -5 10 -5 46 -5 l37 1 6 -6 6 -6 0 -46 c0 -51
1 -56 16 -71 10 -11 13 -16 13 -25 0 -11 -6 -17 -17 -17 -8 0 -10 1 -22 14
-17 17 -31 25 -55 32 -18 6 -20 6 -61 6 -44 0 -51 -1 -62 -9 -6 -5 -17 -24
-20 -36 -1 -6 -8 -15 -12 -15 -7 0 -40 -19 -38 -22 1 -1 0 -2 -1 -2 -1 0 -2
-5 -2 -11 0 -10 1 -12 7 -18 11 -11 13 -11 133 -11 l109 1 6 -6 6 -6 0 -53
c-1 -41 0 -54 2 -60 3 -9 15 -25 21 -30 13 -9 13 -37 0 -46 -6 -5 -18 -21 -21
-30 -4 -12 -4 -132 0 -143 4 -9 14 -21 18 -21 2 0 3 -1 3 -2 0 -2 10 -3 54 -3
47 0 68 3 112 13 28 7 36 11 55 31 l14 15 12 0 c10 0 15 1 30 5 11 2 17 9 22
24 5 13 5 15 5 73 0 74 -1 79 -26 91 -19 10 -22 12 -27 24 -4 8 -6 15 -6 24 0
17 4 22 21 28 17 6 28 14 33 24 4 8 4 10 5 212 0 152 -1 206 -2 212 -3 9 -9
15 -18 16 -11 2 -19 2 -20 0 -4 -5 -31 -6 -66 -2 -22 2 -26 14 -19 47 2 8 4
16 4 17 1 8 12 32 15 33 3 2 3 6 2 25 0 4 -11 15 -16 17 -5 2 -22 3 -67 7 -24
2 -31 3 -35 7 -2 2 -4 3 -5 3 0 -1 -1 -1 -1 1 0 1 -1 2 -2 1 -1 -1 -2 0 -3 1
-1 1 -3 2 -4 1 -1 0 -4 0 -5 1 -2 1 0 2 7 2 10 -1 11 0 46 23 20 13 36 25 37
25 0 1 1 1 3 0 4 -3 22 -8 34 -9 11 -1 14 -1 18 3 8 6 29 6 36 -1 6 -5 6 -5 6
-27 0 -14 1 -25 3 -27 2 -4 1 -5 -3 -8 -9 -4 -14 -10 -21 -25 -7 -16 -7 -18
-1 -33 6 -14 14 -23 29 -31 5 -4 13 -10 16 -14 9 -12 15 -18 17 -18 2 0 3 -1
3 -2 0 -1 4 -2 9 -2 12 0 24 9 25 19 0 1 1 3 2 5 2 1 2 8 2 16 0 19 0 21 0 34
1 21 -7 32 -32 44 -11 5 -15 10 -10 10 2 0 7 13 9 23 3 12 8 14 27 9 12 -3 17
-12 20 -33 3 -17 11 -29 29 -42 8 -6 12 -14 12 -26 0 -15 -4 -20 -21 -33 -25
-19 -25 -52 0 -60 18 -6 16 -6 46 9 32 16 42 18 52 8 6 -6 7 -11 6 -24 0 -3
-6 -11 -13 -18 -8 -8 -15 -19 -18 -25 -13 -28 -11 -27 -28 -20 -8 3 -15 6 -16
6 -1 0 -4 2 -6 4 -3 2 -6 3 -13 2 -23 -3 -30 -13 -30 -39 0 -23 8 -33 28 -38
12 -3 12 -3 38 8 9 4 18 12 22 21 5 13 8 14 20 10 6 -2 14 -6 17 -9 7 -6 8 -7
8 -17 0 -12 -7 -21 -18 -23 -9 -2 -12 -7 -13 -25 0 -14 0 -14 7 -21 9 -8 10
-17 2 -24 -7 -6 -15 -8 -36 -11 -9 -1 -17 -3 -17 -3 -3 -2 -12 9 -13 16 -1 4
-2 8 -3 8 -1 1 -2 4 -2 8 0 3 -1 4 -1 3 -1 -3 -4 -4 -17 -4 -11 0 -16 1 -17 3
0 1 -1 0 -1 -3 0 -3 -1 -6 -2 -7 -1 0 0 -6 1 -12 1 -6 2 -10 3 -10 2 1 14 -7
23 -16 4 -5 10 -9 12 -11 8 -4 8 -5 10 -10 4 -8 19 -11 43 -9 21 1 52 6 67 10
5 2 12 4 15 4 14 3 31 17 33 27 0 1 2 8 5 16 5 18 9 20 24 16 9 -3 10 -3 27
-2 l11 0 -1 15 c0 14 0 14 -7 21 -5 5 -11 9 -14 11 -9 5 -14 19 -8 26 1 2 8 7
15 10 16 8 23 15 26 27 5 15 1 25 -17 45 -8 9 -14 17 -14 19 -1 5 -1 11 0 16
0 2 5 9 12 17 7 7 12 14 12 16 0 6 13 -11 17 -22 5 -18 15 -38 21 -44 6 -6 14
-10 29 -15 12 -5 17 -8 29 -24 10 -13 13 -14 24 -18 15 -3 16 -4 21 -4 2 0 6
-3 9 -6 5 -5 6 -7 6 -17 0 -10 -1 -12 -6 -17 -5 -5 -7 -6 -17 -6 -13 0 -17 3
-31 26 -5 8 -9 14 -10 14 -17 3 -42 2 -49 -2 -3 -1 -5 -1 -6 -1 0 1 -1 1 -1
-1 0 -1 -1 -2 -3 -2 -5 0 -17 -13 -19 -21 -11 -42 -12 -56 -6 -67 2 -6 3 -15
4 -60 1 -51 1 -53 6 -60 5 -8 22 -18 32 -18 3 -1 8 -3 10 -5 l4 -5 -4 -8 c-3
-4 -5 -7 -6 -7 -1 1 -4 0 -7 -2 -4 -1 -10 -5 -16 -7 -10 -5 -17 -14 -18 -25
-1 -5 -4 -10 -7 -13 l-5 -6 -24 1 c-13 1 -37 1 -52 2 -15 1 -33 1 -39 2 -6 0
-21 1 -33 2 -12 1 -30 2 -40 2 -10 1 -19 1 -20 2 -13 0 -31 -13 -39 -28 -4 -8
-4 -10 -2 -19 4 -17 13 -34 18 -34 1 0 2 -1 3 -3 0 -2 2 -3 4 -3 2 0 3 -1 3
-2 0 -3 19 -12 46 -21 35 -12 52 -23 74 -45 14 -16 28 -45 34 -74 4 -18 6 -31
7 -38 1 -4 2 -10 2 -13 1 -3 2 -14 2 -23 1 -9 2 -19 2 -22 1 -3 1 -5 1 -6 1
-3 9 -17 14 -21 10 -10 22 -12 51 -8 14 2 28 3 30 4 2 0 9 1 15 2 34 4 81 17
101 26 29 14 48 22 53 24 6 1 27 15 37 23 20 17 40 41 50 60 6 10 13 23 15 29
1 3 3 7 4 10 4 10 6 21 6 32 -1 10 -2 12 -6 16 -8 5 -21 7 -30 4 -4 -1 -9 -2
-12 -2 -3 0 -7 1 -9 1 -2 0 -6 3 -9 6 -5 5 -6 7 -6 18 0 11 1 13 6 18 6 6 7 6
21 6 7 0 17 -4 17 -8 0 -1 1 -2 3 -1 1 0 7 1 14 2 25 2 24 -3 24 115 0 110 1
102 -23 127 -20 21 -26 30 -30 42 -4 10 -4 11 -2 15 3 4 5 5 17 5 19 0 33 8
37 19 2 9 3 147 0 149 -1 1 -1 25 1 28 0 1 1 42 0 91 0 88 0 89 -5 98 -2 4 -7
11 -10 15 -3 3 -7 9 -9 13 -3 8 -3 8 0 16 2 4 6 10 9 13 8 9 10 14 10 24 0 7
-1 10 -4 13 -6 5 -25 14 -32 15 -13 1 -20 8 -24 21 -5 19 5 35 24 37 3 0 11 3
18 7 13 6 14 7 19 17 l5 11 0 68 c0 82 -1 88 -20 105 -13 11 -16 17 -16 28 0
11 3 17 15 27 18 16 21 28 21 77 -1 37 -1 39 -6 46 -5 6 -9 10 -12 8 -1 0 -3
1 -4 2 -3 3 -16 6 -19 5 -10 -3 -24 3 -26 10 -2 7 -8 22 -12 29 -17 31 -18 35
-11 67 2 10 5 21 5 24 3 16 27 23 39 11 l6 -6 0 -30 c-1 -24 1 -63 2 -45 0 4
1 4 18 4 9 0 18 0 19 0 1 0 1 22 -2 63 0 5 0 9 1 9 1 0 2 24 2 53 0 52 0 52 5
63 4 8 8 13 15 17 30 19 48 38 51 55 2 10 -4 26 -11 33 -5 5 -7 5 -17 5 -7 0
-13 -1 -14 -2 -5 -4 -21 -8 -27 -8 -5 0 -11 2 -15 5 -5 3 -12 8 -17 11 -17 11
-16 11 -218 30 l-44 4 -11 -5 c-11 -5 -17 -11 -21 -23 -1 -4 -2 -31 -2 -83 0
-73 0 -76 -4 -81 -5 -6 -1 -6 -117 5 -89 9 -116 11 -125 8 -3 -1 -5 0 -6 1 -1
2 -2 -5 -2 -16 l-1 -18 7 -4 c5 -2 9 -6 10 -8 5 -10 4 -29 -4 -36 -8 -9 -32
-9 -40 -1 -4 4 -11 24 -13 38 -1 3 -2 5 -3 5 -1 0 -2 1 -1 2 0 1 0 2 -2 3 -2
0 -3 2 -3 3 0 2 -2 4 -3 6 -2 2 -11 9 -19 16 -8 7 -15 13 -16 14 -1 1 -9 7
-18 15 -9 8 -17 14 -18 15 -1 1 -5 5 -11 9 -5 4 -12 10 -15 12 -3 3 -15 13
-28 23 -13 10 -25 20 -27 21 -7 7 -14 9 -24 9 -15 0 -21 -4 -36 -23 -24 -31
-26 -35 -25 -50 2 -19 3 -20 34 -20 23 0 29 -2 39 -13 10 -10 13 -18 13 -31 0
-10 -1 -12 -6 -17 -3 -3 -7 -6 -9 -6 -20 -1 -30 3 -41 16 -9 11 -22 17 -36 17
-12 0 -13 0 -30 -17 -14 -14 -20 -18 -28 -18 -16 0 -66 -18 -66 -24 0 -1 -1
-2 -3 -2 -2 0 -3 -1 -3 -1 0 -3 -2 -18 -3 -24 -1 -4 -2 -7 -3 -7 -1 0 -1 -3
-1 -7 0 -6 -1 -7 -5 -9 -3 -1 -5 -3 -5 -5 1 -1 1 -1 -1 0 -9 5 -18 -19 -12
-31 1 -3 2 -8 2 -13 0 -7 -1 -9 -9 -17 -6 -5 -12 -10 -15 -11 -4 -2 -4 -3 -1
-3 1 0 3 -1 3 -2 0 -1 -1 -2 -2 -1 -1 1 -2 -1 -2 -5 0 -7 1 -7 2 -2 1 4 1 2 1
-5 1 -6 2 -13 4 -15 5 -8 4 -19 -3 -26 -4 -3 -7 -6 -8 -6 0 1 -4 0 -7 -1 -12
-3 -20 19 -12 33 2 3 4 6 5 6 3 0 17 14 15 16 -1 0 -2 7 -2 14 -1 9 -2 13 -4
15 -4 3 -5 20 0 25 2 2 3 4 3 6 0 1 1 2 2 2 1 0 4 6 7 13 5 12 5 16 4 26 -1
12 2 23 7 27 9 6 14 23 17 51 0 6 3 15 6 21 9 20 12 37 11 60 -2 25 -7 40 -23
65 -12 18 -19 24 -42 36 -8 4 -19 11 -24 16 -16 15 -18 16 -27 22 -19 10 -45
18 -68 18 -12 1 -24 2 -26 3 -6 2 -29 -3 -36 -7 -3 -3 -7 -7 -9 -11 -4 -8 -11
-14 -19 -15 -7 -2 -12 3 -20 20 -12 25 -26 33 -47 28z m1120 -114 c3 -3 3 -3
0 -6 -3 -3 -3 -3 -6 0 -3 2 -3 3 -1 6 4 4 4 4 7 0z m-976 -93 c12 -5 17 -12
17 -27 0 -17 -6 -24 -22 -26 -18 -3 -35 6 -38 21 -6 27 14 43 43 32z m854 -79
c5 -8 1 -16 -8 -16 -9 0 -13 8 -8 16 2 3 5 5 8 5 3 0 6 -2 8 -5z m-378 -6 c3
-3 3 -3 0 -6 -3 -3 -3 -3 -6 0 -3 2 -3 3 -1 6 4 4 4 4 7 0z m-647 -9 c5 -5 6
-7 6 -17 0 -16 -7 -23 -21 -23 -19 0 -25 6 -25 24 0 15 7 22 23 22 10 0 12 -1
17 -6z m1212 -42 c5 -6 5 -12 0 -18 -7 -8 -22 -2 -22 9 0 11 15 17 22 9z
m-808 -4 c5 -4 5 -7 0 -12 -6 -5 -11 -5 -14 -1 -1 2 -5 3 -7 3 -3 0 -6 1 -6 3
-1 2 -2 2 -3 2 -1 -1 -2 0 -2 0 0 3 8 8 15 9 7 1 10 1 17 -4z m357 -94 l0 -63
-5 -5 -5 -5 -9 9 c-5 5 -14 13 -20 19 -6 5 -19 17 -29 26 -9 9 -20 18 -23 21
-3 3 -13 12 -23 21 -10 9 -22 20 -26 24 -4 4 -9 7 -11 7 -2 0 -1 1 2 2 2 1 4
3 4 4 0 4 12 6 60 6 49 0 72 3 74 8 0 1 3 -1 6 -4 l5 -7 0 -63z m-541 61 l5
-6 -3 -13 c-6 -24 -14 -30 -23 -19 -7 8 -30 9 -46 2 -13 -6 -25 -7 -30 -1 -4
2 -4 5 -4 17 0 23 4 25 57 25 l39 0 5 -5z m342 2 c4 -2 8 -4 8 -5 0 -1 2 -2 5
-2 l4 -1 -4 0 c-3 -1 -8 -5 -11 -9 -4 -5 -8 -9 -9 -11 -1 -1 -6 -7 -12 -14 -9
-11 -9 -11 -8 -23 1 -9 3 -15 8 -24 8 -14 8 -15 4 -22 -3 -4 -11 -5 -14 -2 -7
6 -38 10 -59 7 -8 -1 -9 -1 -12 3 -2 4 -2 4 3 6 4 1 8 3 10 3 2 1 5 2 6 3 2 1
3 2 3 1 0 -1 7 6 16 15 9 8 16 16 16 17 0 1 2 3 4 5 9 5 1 41 -10 44 -4 1 -4
2 -1 2 2 0 5 1 6 2 8 7 34 10 47 5z m274 -16 l-5 -5 -4 4 -5 5 4 4 5 5 4 -4 5
-5 -4 -4z m210 -83 c2 -2 8 -22 8 -28 0 -6 -6 -28 -8 -28 -1 0 -2 -2 -2 -5 0
-5 -1 -5 -1 -2 -2 5 -8 11 -15 12 -3 1 -6 2 -7 3 -1 1 -4 2 -7 3 -19 6 -19 28
0 34 3 1 6 2 7 3 1 1 4 2 7 3 7 1 14 8 14 12 0 3 1 2 1 -1 1 -3 2 -5 3 -6z
m141 -16 c10 -9 3 -26 -10 -26 -8 0 -15 7 -15 15 0 13 16 20 25 11z m-1025 -6
c5 -5 5 -11 0 -16 -10 -10 -27 5 -16 16 4 4 12 4 16 0z m-130 -20 c5 -5 5 -11
-1 -17 -7 -6 -7 -6 -13 0 -7 6 -7 9 -2 16 5 6 9 6 16 1z m256 -4 c6 -10 5 -25
-1 -31 -4 -4 -7 -5 -15 -5 -14 0 -20 6 -20 19 0 13 4 18 16 22 13 4 16 3 20
-5z m209 -11 c6 -4 6 -6 6 -20 0 -14 0 -16 -6 -20 -4 -4 -7 -5 -18 -5 -11 0
-14 1 -18 5 -6 4 -6 6 -6 20 0 14 0 16 6 20 4 4 7 5 18 5 11 0 14 -1 18 -5z
m-544 -16 c4 -4 5 -7 5 -15 0 -14 -6 -20 -20 -20 -14 0 -20 6 -20 20 0 14 6
20 20 20 8 0 11 -1 15 -5z m-174 -5 c7 -3 12 -13 12 -25 0 -19 -9 -28 -28 -28
-16 0 -21 4 -30 23 -10 23 -10 23 -1 26 20 7 34 8 47 4z m252 -18 c-1 -1 0 -2
1 -2 6 0 20 -19 25 -35 2 -7 4 -14 5 -17 1 -2 2 -99 2 -214 l0 -210 -6 -7 c-4
-5 -6 -6 -9 -5 -2 1 -12 2 -22 3 -38 3 -53 5 -59 8 -3 1 -7 4 -9 7 -3 4 -3 4
4 17 4 7 9 13 9 13 1 0 2 1 2 3 0 3 18 19 21 19 1 0 5 6 8 14 3 7 6 15 7 17 7
16 17 62 21 96 1 4 2 14 3 21 3 23 3 32 -3 42 -3 4 -6 7 -7 7 0 0 -3 1 -7 2
-3 2 -13 4 -22 5 -21 1 -27 6 -27 23 0 10 1 12 6 17 6 6 6 6 25 6 34 -1 44 7
46 36 2 23 2 47 1 51 -5 15 -12 24 -28 34 -10 6 -12 10 -12 23 0 9 1 11 7 16
3 4 9 8 12 9 7 3 8 3 6 1z m113 -23 l-5 -5 -4 4 -5 5 4 4 5 5 4 -4 5 -5 -4 -4z
m737 -1 c5 -5 6 -7 6 -16 0 -15 -8 -23 -23 -23 -9 0 -11 1 -16 7 -9 8 -9 23
-1 32 9 9 24 9 34 0z m256 1 c5 -8 1 -16 -8 -16 -9 0 -13 8 -8 16 2 3 5 5 8 5
3 0 6 -2 8 -5z m-381 -14 c6 -6 6 -8 6 -70 -1 -57 -1 -59 -5 -62 -2 -2 -5 -5
-6 -7 0 -2 -1 -2 -1 0 0 5 -13 15 -31 24 -16 8 -18 10 -28 25 -7 9 -14 19 -18
22 -9 8 -35 25 -59 38 -19 10 -12 15 30 25 34 8 48 10 74 7 16 -1 30 1 32 5 0
2 1 2 2 0 0 -2 2 -5 4 -7z m501 -3 c11 -10 3 -28 -11 -28 -9 0 -16 6 -16 16 0
14 17 22 27 12z m-930 -15 c10 -8 11 -11 11 -37 0 -12 2 -27 3 -33 2 -5 3 -14
3 -20 0 -9 -1 -10 -11 -20 -19 -19 -28 -36 -23 -48 1 -3 1 -5 1 -5 -1 0 0 -2
3 -3 8 -6 32 -7 36 -2 7 8 32 8 40 -1 9 -8 9 -32 0 -40 -4 -5 -15 -8 -26 -8
-10 0 -28 -6 -34 -12 -18 -17 -19 -18 -33 -18 -18 0 -23 5 -25 21 0 11 0 14 8
32 l9 20 1 34 c1 46 -2 53 -29 71 -15 10 -17 12 -17 27 0 16 6 21 42 36 6 3
14 7 16 9 6 5 16 4 25 -3z m191 -16 c5 -5 5 -7 0 -12 -5 -6 -6 -6 -11 0 -3 5
-3 5 1 10 6 6 5 6 10 2z m485 -41 c11 -10 3 -28 -11 -28 -9 0 -16 6 -16 16 0
14 17 22 27 12z m-142 -17 c6 -7 11 -13 11 -13 0 -1 9 -6 19 -11 21 -10 23
-12 23 -26 0 -17 -8 -25 -23 -22 -11 2 -14 4 -20 14 -9 17 -15 23 -27 31 -14
9 -18 13 -18 22 0 10 6 16 16 16 7 0 9 -2 19 -11z m-221 -16 c4 -2 9 -6 12 -8
25 -23 27 -28 26 -46 -1 -8 -3 -13 -6 -17 -13 -14 -15 -18 -15 -35 1 -73 1
-86 -3 -90 -12 -13 -39 0 -48 22 -10 23 -7 53 7 68 12 12 13 15 13 28 0 12 -2
15 -20 29 -9 6 -13 15 -13 27 0 17 6 24 22 28 7 1 18 -1 25 -6z m575 1 c3 -3
5 -8 8 -18 7 -29 10 -34 21 -34 4 1 9 2 11 3 8 5 25 4 30 -2 7 -6 7 -22 0 -28
-9 -10 -33 -5 -33 7 0 2 -2 6 -4 8 -2 2 -4 3 -4 2 0 0 -5 -1 -12 0 -7 1 -12 0
-12 -1 0 -1 -1 -1 -1 0 -3 2 -9 -3 -11 -9 -1 -3 -4 -7 -7 -8 -6 -5 -27 -9 -34
-7 -8 2 -18 13 -19 20 0 3 -2 8 -5 10 -15 13 -13 25 5 34 5 3 12 7 15 10 16
15 21 17 34 17 9 0 14 -1 18 -4z m-1029 -5 c3 -3 4 -7 4 -14 0 -13 -6 -19 -19
-19 -13 0 -19 6 -19 19 0 7 1 11 4 14 7 8 23 8 30 0z m362 -53 c7 -20 7 -26
-4 -32 -5 -3 -5 -3 -11 2 -4 5 -5 8 -5 21 0 16 3 34 6 32 1 -1 3 0 3 2 2 3 2
3 3 -2 1 -3 5 -14 8 -23z m-731 6 c2 -7 1 -52 0 -54 -2 -3 -3 -24 -1 -30 1 -4
1 -9 0 -11 -2 -5 2 -9 8 -9 2 0 7 -1 12 -3 8 -3 10 -3 19 0 14 5 24 12 30 21
3 4 5 9 5 10 0 3 12 14 17 16 13 5 27 4 36 -5 6 -4 10 -20 7 -28 -1 -3 -2 -7
-2 -8 0 -1 -1 -6 -3 -12 -5 -15 -4 -27 4 -58 4 -15 7 -31 8 -34 0 -3 1 -8 2
-11 2 -12 -7 -21 -23 -23 -16 -2 -37 -8 -41 -13 -2 -2 -4 -8 -4 -15 -1 -14 3
-22 14 -30 11 -6 13 -9 13 -19 0 -5 0 -13 0 -18 1 -24 -32 -28 -51 -6 -5 7
-13 25 -12 31 0 2 2 10 4 17 3 12 3 26 0 45 -2 10 1 15 17 27 8 6 15 13 17 17
11 23 2 45 -19 48 -9 2 -13 2 -31 1 -5 0 -11 1 -13 2 -5 3 -16 26 -18 37 -1 8
-1 8 -11 9 -5 0 -11 1 -12 3 -1 1 -5 4 -8 7 l-6 5 3 7 c2 4 4 10 5 13 1 7 9
28 18 50 4 9 7 19 8 21 0 3 1 5 1 6 0 0 1 0 3 0 1 0 3 -3 4 -6z m1115 -46 c2
-2 4 -7 5 -10 2 -10 10 -29 16 -39 4 -8 6 -12 6 -21 0 -19 -8 -27 -27 -27 -13
0 -20 4 -24 11 -4 7 -3 26 1 35 2 4 4 16 4 27 2 26 8 34 19 24z m222 -5 c7 -9
5 -38 -4 -48 -6 -7 -24 -11 -34 -6 -14 5 -20 20 -16 36 4 13 10 18 26 20 4 1
7 2 8 2 0 1 4 1 8 1 6 0 9 -1 12 -5z m-741 -85 c4 -6 4 -22 -1 -32 l-5 -8 -9
1 c-11 2 -19 6 -22 11 -3 6 -2 23 2 28 7 9 27 9 35 0z m880 -47 c5 -8 1 -16
-8 -16 -9 0 -13 8 -8 16 2 3 5 5 8 5 3 0 6 -2 8 -5z m-224 -9 c9 -4 23 -6 30
-4 15 5 30 -3 33 -17 5 -24 -11 -41 -33 -35 -7 2 -27 -3 -33 -7 -11 -9 -22
-20 -23 -24 0 -4 -1 -4 -1 0 0 3 -5 9 -14 16 -17 14 -18 16 -18 29 0 13 1 16
17 28 7 6 13 12 14 14 1 3 2 4 4 2 1 -1 4 -1 7 -1 3 1 6 1 8 1 1 1 2 2 2 4 0
3 1 3 1 0 1 -2 4 -5 6 -6z m-627 -14 c8 -4 14 -11 14 -16 0 -7 10 -24 15 -27
4 -2 5 -3 3 -3 -11 -1 -18 -2 -21 -4 -8 -4 -32 3 -39 11 -4 6 -6 26 -2 28 1 1
2 2 1 3 -1 1 0 2 1 2 2 0 2 1 1 1 0 1 0 3 1 5 2 4 15 4 26 0z m-261 -6 c7 -6
7 -20 1 -25 -5 -5 -22 -8 -49 -10 -14 -1 -15 -1 -19 3 -8 10 -4 18 14 25 27
11 46 14 53 7z m1100 -153 c5 -3 8 -8 9 -12 0 -1 3 -7 6 -13 6 -12 12 -18 29
-30 14 -9 16 -14 14 -32 -1 -13 -7 -18 -24 -18 -14 0 -19 3 -25 15 -11 22 -16
28 -33 38 -7 4 -15 10 -16 12 -6 10 -5 30 3 38 7 7 27 8 37 2z m-1386 -62 c3
-3 3 -3 0 -6 -3 -3 -3 -3 -6 0 -3 2 -3 3 -1 6 4 4 4 4 7 0z m1344 -43 c11 -11
4 -30 -11 -30 -16 0 -24 18 -14 29 6 7 19 7 25 1z m-668 -20 c9 -4 12 -12 11
-33 0 -19 3 -34 8 -36 11 -5 17 -5 21 -1 5 4 7 5 28 5 39 0 41 -3 38 -51 -1
-10 -1 -24 1 -29 1 -9 1 -11 -2 -15 -4 -3 -4 -3 -12 1 -4 2 -8 5 -8 6 0 2 -1
3 -2 3 -1 0 -2 2 -2 4 0 10 -16 34 -23 34 -4 0 -16 13 -19 20 -2 5 -4 7 -8 6
-1 0 -2 1 -2 2 0 1 -6 2 -13 2 -10 0 -13 -1 -12 -2 1 -2 1 -2 -1 -1 -1 1 -5
-2 -11 -8 -8 -9 -9 -10 -19 -10 -18 0 -26 13 -22 34 1 4 3 18 4 31 2 26 5 34
13 38 12 4 20 4 32 0z m80 -11 c3 -3 3 -3 0 -6 -3 -3 -3 -3 -6 0 -3 2 -3 3 -1
6 4 4 4 4 7 0z m-798 -65 c10 -9 3 -26 -10 -26 -8 0 -15 7 -15 15 0 13 16 20
25 11z m85 -67 c3 -3 9 -26 11 -45 1 -12 -2 -22 -8 -22 -6 0 -16 7 -22 14 -3
5 -7 9 -8 11 -11 13 -15 32 -7 41 6 8 26 9 34 1z m684 -24 c10 -7 10 -8 5 -23
-4 -12 -11 -20 -17 -20 -10 0 -27 -9 -41 -23 -14 -13 -14 -13 -23 -12 -13 1
-29 9 -34 18 -7 11 -6 28 2 35 3 3 7 6 8 6 24 1 38 6 56 18 10 7 12 8 23 8 11
0 14 -1 21 -7z m535 -68 c4 -4 5 -7 5 -13 0 -11 -6 -17 -19 -19 -9 -1 -10 0
-15 4 -4 4 -4 6 -3 14 2 13 8 19 19 19 6 0 9 -1 13 -5z m-636 -95 c11 -10 3
-28 -11 -28 -9 0 -16 6 -16 16 0 14 17 22 27 12z m-654 -29 c11 -11 4 -35 -10
-35 -29 -1 -42 -5 -55 -20 -12 -13 -19 -26 -24 -45 -2 -8 -5 -18 -7 -21 -2 -4
-7 -16 -10 -27 -7 -22 -11 -27 -20 -27 -13 0 -15 4 -15 26 0 11 -1 26 -3 35
-2 9 -2 17 -1 21 2 8 7 19 10 21 4 2 12 21 16 36 2 8 4 16 5 18 2 6 13 10 25
9 32 -2 37 -1 51 7 18 9 31 10 38 2z m1124 -52 c12 -2 19 -11 25 -32 10 -32 1
-46 -27 -40 -3 1 -8 5 -11 11 -8 12 -19 22 -30 29 -17 11 -20 21 -11 31 4 4 5
4 26 3 12 0 25 -1 28 -2z m-448 -53 c2 -2 6 -13 8 -24 6 -24 10 -31 26 -40 6
-4 13 -9 16 -12 10 -10 4 -26 -8 -26 -11 0 -36 7 -48 14 -10 5 -12 7 -14 17
-1 4 -4 18 -7 30 -7 26 -8 34 -2 40 7 7 23 8 29 1z m-853 -101 l-5 -5 -5 4 -4
5 5 4 5 5 4 -4 4 -4 -4 -5z m1435 7 c7 -4 13 -15 13 -24 0 -21 -30 -22 -36 0
-7 25 3 35 23 24z m-645 -41 c21 -9 20 -45 -2 -54 -10 -5 -28 -1 -34 6 -9 10
-9 32 0 42 7 8 24 11 36 6z"/>
<path d="M49 3586 c-22 -10 -26 -36 -10 -63 6 -10 13 -15 32 -22 16 -6 21 -9
25 -14 7 -9 30 -15 47 -11 7 2 12 1 33 -4 24 -6 25 -6 66 -6 39 1 42 1 47 5 8
6 12 14 14 24 1 4 2 8 3 9 2 1 2 2 0 2 -2 1 -3 8 -3 23 0 25 -3 32 -16 45 -16
17 -11 16 -127 16 -96 0 -104 0 -111 -4z"/>
</g>
</svg>
