<?xml version="1.0" standalone="no"?>
<!DOCTYPE svg PUBLIC "-//W3C//DTD SVG 20010904//EN"
 "http://www.w3.org/TR/2001/REC-SVG-20010904/DTD/svg10.dtd">
<svg version="1.0" xmlns="http://www.w3.org/2000/svg"
 width="1108.000000pt" height="2850.000000pt" viewBox="0 0 1108.000000 2850.000000"
 preserveAspectRatio="xMidYMid meet">
<metadata>
Created by potrace 1.15, written by Peter Selinger 2001-2017
</metadata>
<g transform="translate(0.000000,2850.000000) scale(0.500000,-0.500000)"
fill="#000000" stroke="none">
<path d="M418 3835 c-1 0 -4 -1 -9 -2 -23 -3 -28 -12 -37 -61 -21 -105 -50
-222 -82 -328 -6 -18 -11 -36 -12 -39 -3 -13 -47 -138 -57 -165 -2 -4 -5 -13
-8 -21 -12 -32 -37 -94 -45 -112 -2 -4 -6 -14 -9 -21 -6 -14 -8 -18 -23 -53
-20 -44 -57 -119 -75 -153 -23 -43 -34 -61 -42 -74 -3 -4 -5 -8 -5 -9 0 -1 -3
-6 -7 -12 -7 -11 -7 -12 -7 -32 0 -23 1 -27 6 -27 2 0 8 -3 15 -7 18 -11 40
-11 52 -1 1 2 6 5 10 8 9 6 42 30 43 32 1 1 10 8 21 17 36 29 39 33 47 64 6
24 12 30 34 31 6 0 13 1 15 2 7 3 21 -14 35 -42 6 -12 6 -24 0 -36 -4 -9 -6
-12 -12 -22 -7 -11 -8 -22 -8 -105 0 -79 0 -81 5 -101 6 -25 6 -27 0 -52 l-5
-21 0 -294 c0 -265 0 -295 3 -302 4 -9 14 -21 18 -21 2 0 3 -1 3 -2 0 -2 10
-3 56 -3 57 0 78 3 131 18 25 8 48 16 72 28 18 9 23 8 29 -4 11 -24 24 -37 41
-41 11 -3 12 -2 42 6 36 10 115 37 118 40 1 1 2 9 3 17 l0 16 -10 9 c-10 9
-10 9 -10 22 0 11 1 13 6 18 6 6 7 6 18 6 11 0 12 0 18 -6 6 -5 6 -7 6 -23 0
-26 6 -33 25 -33 9 0 20 4 53 19 22 11 67 33 80 40 43 24 77 44 99 58 28 18
58 38 59 39 1 1 8 6 17 12 16 11 49 36 51 38 4 4 26 20 31 22 3 2 20 3 36 4
44 2 62 10 84 38 6 8 7 11 7 19 0 19 -4 25 -31 42 -44 28 -58 38 -65 42 -4 2
-16 10 -27 17 -11 8 -28 19 -38 25 -10 6 -26 17 -35 23 -9 6 -18 11 -19 12 -5
2 -13 15 -14 22 -1 6 0 10 6 22 8 15 11 18 22 18 9 0 13 -4 22 -22 14 -28 16
-28 103 -28 73 0 72 0 88 -9 3 -2 4 -3 2 -3 -7 0 -10 -20 -6 -33 0 -3 11 -16
24 -29 39 -42 56 -61 75 -84 8 -9 15 -18 16 -19 1 -1 4 -5 7 -9 3 -3 6 -7 7
-9 20 -21 97 -133 115 -166 23 -41 25 -45 36 -51 8 -4 26 -8 37 -8 19 0 27
-20 17 -41 -9 -17 -7 -38 5 -45 8 -5 29 -13 47 -17 23 -6 74 -6 94 1 17 5 43
17 46 21 1 2 4 3 5 3 4 0 34 29 44 43 10 14 25 45 29 58 12 45 7 94 -12 139
-10 21 -32 58 -38 64 -1 1 -3 4 -6 7 -10 13 -41 44 -56 55 -5 4 -10 8 -11 9
-32 24 -79 51 -126 70 -39 16 -110 38 -135 41 -8 1 -9 1 -4 2 6 0 6 0 4 3 -1
2 -2 3 -1 3 0 0 2 1 3 1 1 0 2 1 3 1 1 1 85 2 187 2 201 0 198 0 220 11 6 3
12 6 13 8 1 1 6 5 10 8 4 3 8 8 10 11 1 3 4 8 6 11 4 9 4 21 -2 32 -5 10 -8
13 -22 24 -4 3 -9 7 -11 9 -2 2 -7 7 -13 11 -5 4 -10 8 -11 9 -1 1 -12 10 -26
21 -14 11 -25 20 -26 21 -1 1 -5 4 -9 7 -4 3 -8 6 -9 7 -1 1 -5 4 -9 7 -4 3
-8 6 -9 7 -1 1 -5 4 -10 8 -5 4 -10 8 -12 9 -2 2 -12 10 -23 19 -12 9 -22 18
-23 20 -2 4 -2 34 -2 123 0 113 0 119 -4 135 -5 21 -5 31 0 52 4 16 4 23 4
278 0 244 0 263 3 270 5 9 8 12 26 21 3 1 5 3 5 4 0 0 1 1 3 1 4 0 31 25 34
32 4 7 4 24 0 31 -2 6 -12 14 -30 28 -4 3 -9 7 -10 8 -1 1 -5 4 -9 7 -4 3 -18
14 -31 24 -14 10 -27 21 -30 23 -3 2 -7 5 -9 7 -2 2 -6 5 -10 8 -4 3 -18 14
-31 24 -14 10 -27 21 -30 23 -3 2 -7 5 -8 6 -1 1 -6 5 -10 8 -4 3 -9 7 -10 8
-1 1 -5 4 -9 7 -4 3 -13 10 -21 16 -21 17 -25 19 -39 17 -13 -1 -19 -4 -32
-18 -9 -11 -37 -41 -48 -53 -4 -4 -14 -15 -22 -24 -25 -27 -29 -31 -37 -36
l-8 -5 -169 0 c-164 -1 -170 -1 -184 3 -12 3 -73 27 -171 65 -12 5 -31 12 -41
16 -10 4 -31 12 -47 18 -34 14 -35 14 -47 11 -17 -4 -24 -16 -24 -42 0 -14 0
-16 -5 -21 l-5 -5 -13 4 c-12 4 -38 7 -61 7 -20 0 -28 -5 -46 -27 -7 -8 -23
-9 -31 -1 -5 5 -5 6 -5 22 1 17 -1 32 -4 33 -1 0 -2 2 -2 3 0 7 -11 11 -105
39 -26 8 -52 15 -56 17 -5 1 -9 2 -9 2z m342 -616 c0 -409 0 -399 9 -409 1 -2
5 -8 9 -15 l7 -11 -4 -8 c-2 -4 -6 -11 -9 -16 -12 -17 -12 -19 -12 -112 0 -81
0 -86 4 -95 2 -5 6 -10 8 -11 4 -1 4 -2 2 -2 -2 0 -7 -2 -11 -4 -8 -5 -10 -5
-70 -6 -34 0 -63 -1 -64 -2 -1 -1 -4 1 -7 6 l-6 7 0 281 0 280 5 10 c3 6 7 10
10 11 8 2 27 19 35 32 7 10 8 14 8 23 0 14 -8 27 -21 34 -5 2 -58 22 -60 22
-4 0 -23 11 -26 14 -5 7 -4 9 11 35 28 47 74 134 95 182 3 7 9 21 14 32 5 11
12 26 15 32 3 7 6 13 6 14 0 1 2 6 5 12 2 5 8 19 12 30 7 17 9 20 16 25 4 2 7
5 7 6 0 1 3 -1 6 -5 l6 -7 0 -385z m683 342 l6 -6 0 -75 0 -75 -6 -6 -6 -6
-156 0 -156 0 -6 6 -6 6 0 75 0 75 6 6 6 6 156 0 156 0 6 -6z m-938 -36 c4 -4
5 -7 5 -15 0 -14 -6 -20 -20 -20 -14 0 -20 6 -20 20 0 14 6 20 20 20 8 0 11
-1 15 -5z m439 -70 l-5 -5 -4 4 -5 5 4 4 5 5 4 -4 5 -5 -4 -4z m757 -181 c10
-9 3 -26 -10 -26 -8 0 -15 7 -15 15 0 13 16 20 25 11z m-258 -9 l6 -6 0 -81 0
-81 -6 -6 -6 -6 -108 1 -108 0 -11 -5 c-8 -5 -12 -8 -18 -17 -13 -23 -18 -27
-30 -27 -12 0 -16 4 -27 22 -4 7 -8 12 -9 12 -1 -1 -2 0 -2 2 0 2 -2 7 -4 12
-5 8 -5 10 -6 91 l-1 83 6 6 6 6 156 0 156 0 6 -6z m-1023 0 c21 -9 20 -45 -2
-54 -10 -5 -28 -1 -34 6 -9 10 -9 32 0 42 7 8 24 11 36 6z m-97 -87 c5 -5 6
-7 6 -16 0 -15 -8 -23 -23 -23 -9 0 -11 1 -16 7 -9 8 -9 23 -1 32 9 9 24 9 34
0z m527 2 c5 -6 5 -12 0 -18 -7 -8 -22 -2 -22 9 0 11 15 17 22 9z m901 -53
c12 -7 14 -33 3 -43 -8 -9 -32 -9 -40 0 -9 8 -9 32 0 41 7 7 27 8 37 2z m-122
-78 c12 -7 14 -33 3 -43 -8 -9 -32 -9 -40 0 -9 8 -9 32 0 41 7 7 27 8 37 2z
m-677 -7 c5 -5 6 -7 6 -17 0 -10 -1 -12 -6 -17 -5 -5 -7 -6 -17 -6 -10 0 -12
1 -17 6 -5 5 -6 7 -6 17 0 10 1 12 6 17 5 5 7 6 17 6 10 0 12 -1 17 -6z m101
-33 c12 -12 3 -31 -13 -31 -11 0 -18 7 -18 18 0 11 7 18 18 18 6 0 9 -1 13 -5z
m390 -52 l6 -6 -1 -69 c0 -48 1 -72 2 -77 3 -12 13 -22 30 -30 16 -8 18 -11
18 -24 0 -13 -6 -19 -19 -19 -12 0 -16 2 -22 14 -10 16 -17 24 -27 28 -10 4
-12 4 -157 4 l-148 -1 -6 6 -6 6 0 81 0 81 6 6 6 6 156 0 156 0 6 -6z m-542
-6 c3 -5 3 -5 0 -10 -2 -3 -5 -5 -7 -5 -2 0 -5 2 -7 5 -3 5 -3 5 0 10 2 3 5 5
7 5 2 0 5 -2 7 -5z m669 -44 c6 -6 6 -19 0 -37 -6 -19 -17 -25 -26 -15 -6 6
-8 16 -8 33 0 12 1 15 4 19 7 8 23 8 30 0z m-1219 -23 c10 -9 3 -26 -10 -26
-8 0 -15 7 -15 15 0 13 16 20 25 11z m504 -91 c5 -8 1 -16 -8 -16 -9 0 -13 8
-8 16 2 3 5 5 8 5 3 0 6 -2 8 -5z m158 -17 c11 -10 3 -28 -11 -28 -9 0 -16 6
-16 16 0 14 17 22 27 12z m731 -36 c1 0 5 -3 8 -6 5 -5 6 -7 6 -18 0 -11 -1
-13 -6 -18 -6 -6 -7 -6 -18 -6 -11 0 -12 0 -18 6 -5 5 -6 7 -6 17 0 14 3 20
12 24 5 2 8 2 22 1z m-296 -91 c7 -3 14 -7 15 -8 2 -2 8 -5 13 -9 15 -9 18
-11 19 -17 6 -22 16 -35 32 -41 13 -5 14 -5 45 -1 36 5 44 1 30 -15 -4 -4 -8
-9 -10 -12 -1 -3 -4 -6 -5 -6 -2 0 -3 -1 -3 -2 0 -1 -5 -3 -10 -5 -9 -2 -19
-3 -57 -3 -51 0 -55 -1 -65 -11 -8 -8 -15 -28 -13 -37 1 -4 1 -10 1 -13 0 -5
1 -8 4 -10 3 -2 7 -7 11 -10 3 -3 9 -7 12 -9 3 -3 8 -7 11 -11 3 -4 6 -7 7 -7
6 0 -1 -9 -10 -14 -16 -8 -37 -5 -43 7 -1 3 -2 6 -1 7 1 1 0 3 -1 5 -1 2 -1 5
1 11 2 4 2 8 1 8 -1 0 -2 1 -1 2 0 2 -12 13 -23 19 -9 6 -12 10 -12 18 0 8 -8
28 -14 34 -11 12 0 11 -227 11 -115 0 -210 1 -212 1 -2 1 -3 3 -3 5 0 3 -2 4
-5 5 -5 0 -4 0 2 1 16 0 68 20 102 37 30 17 56 38 65 56 3 5 8 11 13 14 l8 5
155 0 155 0 13 -5z m423 -164 c3 -3 3 -3 0 -6 -3 -3 -3 -3 -6 0 -3 2 -3 3 -1
6 4 4 4 4 7 0z m-1235 -69 c14 -10 13 -10 150 -10 l129 0 8 -6 c4 -3 7 -6 6
-6 -2 0 -4 -3 -15 -24 -4 -6 -9 -15 -13 -21 -3 -5 -11 -18 -17 -27 -12 -20
-48 -74 -51 -77 0 -1 -9 -14 -20 -28 -28 -40 -73 -99 -94 -123 -21 -25 -29
-34 -38 -44 -6 -6 -13 -14 -17 -18 -37 -40 -41 -43 -46 -29 -1 3 -2 69 -2 205
l1 199 5 8 c2 4 4 9 4 11 0 2 1 2 1 -1 1 -3 5 -7 9 -9z m-273 -314 c10 -9 3
-26 -10 -26 -8 0 -15 7 -15 15 0 13 16 20 25 11z m1416 -126 c11 -10 3 -28
-11 -28 -9 0 -16 6 -16 16 0 14 17 22 27 12z"/>
</g>
</svg>
