<?xml version="1.0" standalone="no"?>
<!DOCTYPE svg PUBLIC "-//W3C//DTD SVG 20010904//EN"
 "http://www.w3.org/TR/2001/REC-SVG-20010904/DTD/svg10.dtd">
<svg version="1.0" xmlns="http://www.w3.org/2000/svg"
 width="1100.000000pt" height="2850.000000pt" viewBox="0 0 1100.000000 2850.000000"
 preserveAspectRatio="xMidYMid meet">
<metadata>
Created by potrace 1.15, written by Peter Selinger 2001-2017
</metadata>
<g transform="translate(0.000000,2850.000000) scale(0.500000,-0.500000)"
fill="#000000" stroke="none">
<path d="M1657 3795 c-7 -3 -14 -9 -24 -20 -8 -9 -19 -22 -26 -29 -11 -12 -11
-13 -11 -24 1 -14 2 -17 11 -29 19 -22 14 -55 -7 -55 -13 -1 -15 0 -22 7 -31
34 -21 31 -125 31 l-85 0 -20 -6 c-26 -8 -28 -8 -54 0 l-21 6 -84 0 -84 0 -10
-5 c-13 -6 -20 -15 -27 -38 -4 -12 -11 -16 -29 -16 -17 0 -23 4 -23 14 0 8
-11 30 -18 37 -9 8 -35 18 -75 30 -3 1 -26 9 -50 17 -24 8 -48 16 -53 18 -5 1
-26 9 -46 16 -27 9 -43 13 -56 15 -9 1 -21 3 -25 5 -9 4 -31 4 -38 1 -2 -1 -5
-6 -7 -11 -4 -7 -4 -14 -4 -75 0 -76 1 -80 13 -96 19 -22 19 -24 0 -46 -10
-13 -13 -24 -13 -54 0 -25 0 -26 -5 -32 -4 -4 -7 -7 -8 -8 -9 -1 -14 -3 -20
-9 -9 -7 -6 -1 -99 -189 -25 -51 -64 -130 -87 -176 -22 -46 -47 -97 -56 -114
-8 -17 -16 -36 -18 -44 -4 -17 -10 -31 -17 -38 -11 -11 -17 -23 -53 -95 -20
-40 -39 -76 -42 -82 -7 -13 -8 -23 -4 -32 5 -10 9 -12 30 -12 15 0 18 0 22 -4
10 -11 -3 -25 -18 -19 -5 2 -15 4 -29 5 -9 1 -11 0 -27 -9 -27 -16 -29 -20
-25 -45 3 -12 4 -14 10 -13 1 0 3 -3 5 -7 4 -10 1 -15 -8 -15 -14 1 -25 -12
-22 -27 2 -12 -1 -27 -7 -33 -8 -9 -26 -9 -34 0 -6 5 -6 7 -6 19 0 15 -4 31
-10 37 -9 9 -14 10 -52 9 -39 -1 -40 -1 -40 -3 0 -1 -1 -2 -3 -2 -4 0 -15 -13
-18 -22 -2 -5 -3 -15 -3 -23 0 -29 14 -47 41 -52 31 -6 51 -12 71 -22 16 -8
29 -9 49 -4 15 4 22 2 24 -6 3 -10 -1 -15 -15 -22 -26 -14 -30 -22 -26 -58 2
-27 3 -95 1 -120 -3 -33 -8 -88 -10 -97 0 -3 -1 -10 -2 -16 -1 -6 -2 -11 -2
-12 -1 -2 -9 -51 -9 -58 0 -26 26 -72 52 -93 4 -3 9 -8 11 -10 10 -9 43 -24
62 -29 19 -4 22 -4 45 -5 27 -1 37 1 50 12 9 8 13 16 16 34 3 13 8 21 15 21
20 0 49 -21 59 -41 6 -11 8 -14 19 -20 6 -3 11 -7 11 -8 2 -2 32 2 32 5 0 1 1
2 3 2 4 0 10 11 14 25 7 29 11 40 15 44 7 5 21 4 33 -3 18 -11 26 -14 33 -14
8 0 23 6 28 10 2 2 5 4 7 6 19 13 80 73 110 109 26 30 61 77 61 81 0 1 1 2 2
2 4 2 39 61 57 97 10 20 23 49 23 50 0 0 2 6 6 12 6 14 7 36 1 51 -7 18 -3 33
9 41 10 7 24 19 24 22 0 2 1 3 2 3 4 0 22 66 22 82 0 14 -10 25 -25 30 -12 4
-12 3 -18 4 -9 0 -15 8 -15 21 0 17 10 25 29 20 19 -4 43 6 43 19 0 5 0 5 2 1
0 -3 3 -7 5 -10 5 -5 5 -5 5 -101 0 -65 1 -100 2 -106 3 -10 15 -22 27 -29 20
-10 19 -25 -3 -34 -8 -4 -20 -15 -23 -24 -4 -10 -4 -70 0 -80 8 -20 18 -24 80
-27 28 -2 96 18 131 39 36 21 44 37 44 90 1 48 5 56 32 52 8 -1 12 -7 13 -21
1 -7 2 -17 2 -21 1 -4 1 -18 1 -29 0 -12 1 -22 2 -22 1 0 2 -1 2 -3 0 -5 9
-10 22 -10 6 0 12 -1 12 -2 1 -1 2 -1 2 1 0 6 13 9 34 9 18 0 20 1 37 8 21 10
40 18 54 22 10 2 10 2 15 -1 3 -3 5 -5 5 -7 0 -3 5 -12 5 -11 0 1 2 0 5 -3 15
-14 40 -5 54 19 l6 11 1 48 1 48 1 -44 c0 -38 0 -43 3 -41 2 1 3 2 3 2 2 -4 2
-17 3 -51 l1 -41 -6 -6 -6 -6 -24 1 c-14 0 -41 2 -61 2 -56 3 -66 2 -84 -3
-20 -6 -30 -6 -41 -2 -5 2 -12 3 -16 3 -4 -1 -9 -1 -12 -2 -16 -1 -25 -30 -17
-53 7 -20 18 -27 51 -35 18 -4 34 -8 44 -12 5 -2 18 -1 25 2 8 3 15 12 22 27
2 6 6 12 8 13 15 6 28 5 44 -5 6 -3 13 -5 16 -6 3 0 8 -2 12 -3 4 -2 8 -3 9
-2 2 1 0 -14 -3 -17 -2 -2 -5 -8 -8 -13 -6 -15 -8 -16 -20 -20 -19 -6 -29 -18
-26 -34 2 -9 5 -12 22 -22 16 -9 18 -12 21 -33 5 -38 5 -36 -1 -52 -3 -8 -6
-18 -7 -21 -2 -6 -3 -33 -1 -41 1 -3 2 -7 2 -10 2 -8 10 -13 26 -14 l13 -1 3
11 c2 6 4 12 4 13 0 2 2 5 4 7 l4 4 6 -6 c5 -6 5 -6 20 -6 18 0 23 3 24 12 2
14 10 21 25 21 13 0 17 -3 25 -17 11 -17 18 -22 31 -24 11 -1 11 -1 30 10 14
8 24 13 37 16 20 5 39 14 54 26 11 10 17 19 22 34 6 18 11 27 16 30 8 3 22 16
28 24 7 11 14 32 19 55 9 40 10 63 10 213 0 134 0 144 -4 155 -8 27 -26 48
-53 60 -11 6 -17 14 -17 25 0 14 6 20 20 20 5 0 11 -1 12 -3 2 -2 5 -2 14 0
29 6 28 4 28 92 0 84 -1 89 -20 106 -13 11 -16 17 -16 28 0 11 3 17 16 28 9 8
13 15 17 28 4 10 4 84 1 93 -3 8 -8 14 -10 13 -1 -1 -2 0 -2 1 0 2 -7 4 -17 4
-4 1 -7 2 -7 3 0 0 -2 -1 -4 -3 -2 -2 -9 -6 -15 -8 -12 -6 -16 -9 -27 -24 -10
-14 -13 -16 -26 -16 -15 0 -22 7 -22 23 0 10 1 12 6 17 3 3 8 6 10 6 7 0 27 7
35 12 10 6 16 18 20 41 4 21 8 29 17 29 7 0 28 9 34 15 10 11 10 14 10 130 0
103 -1 123 -6 123 -1 0 -4 2 -6 5 -6 5 -24 11 -37 11 -6 0 -10 1 -14 5 -6 4
-6 6 -6 20 0 14 0 16 6 20 4 4 8 5 14 5 13 0 31 6 37 11 2 3 5 5 6 5 4 0 6 19
6 66 l0 50 6 11 c3 5 6 11 7 12 2 2 3 7 4 13 1 5 2 11 2 13 0 2 0 7 -1 12 -2
7 -2 9 1 12 5 5 12 6 16 3 7 -6 36 -3 34 4 0 1 -1 7 -1 11 -1 6 -3 10 -14 21
-7 7 -17 16 -22 20 -11 8 -13 10 -17 13 -1 1 -7 6 -14 11 -7 5 -12 9 -13 10
-1 1 -7 6 -15 12 -8 6 -14 11 -15 12 -1 1 -5 4 -10 8 -11 9 -13 10 -17 13 -1
1 -6 5 -11 9 -5 4 -10 8 -11 9 -1 1 -5 3 -7 5 -2 2 -6 4 -7 5 -13 12 -23 17
-46 22 -18 4 -20 6 -34 18 -17 17 -29 20 -46 12z m91 -125 c1 0 5 -3 8 -6 5
-5 6 -7 6 -18 0 -11 -1 -13 -6 -18 -6 -6 -7 -6 -18 -6 -11 0 -12 0 -18 6 -5 5
-6 7 -6 17 0 14 3 20 12 24 5 2 8 2 22 1z m-902 -7 c3 -3 4 -7 4 -14 0 -13 -6
-19 -19 -19 -13 0 -19 6 -19 19 0 7 1 11 4 14 7 8 23 8 30 0z m81 -32 c5 -8 1
-16 -8 -16 -9 0 -13 8 -8 16 2 3 5 5 8 5 3 0 6 -2 8 -5z m270 -2 c3 -3 3 -3 0
-6 -3 -3 -3 -3 -6 0 -3 2 -3 3 -1 6 4 4 4 4 7 0z m-195 -47 c12 -26 21 -30 56
-30 l25 1 6 -6 6 -6 -1 -105 c-1 -92 -1 -106 2 -114 2 -9 7 -13 13 -12 0 0 1
-1 1 -2 0 -2 2 -2 24 -6 14 -2 18 -7 18 -20 0 -10 -6 -20 -12 -20 -2 0 -6 -1
-10 -1 -4 0 -8 1 -11 4 -2 2 -8 7 -13 12 -12 11 -21 13 -42 12 -17 -1 -38 -6
-38 -9 0 -1 -1 -2 -2 -2 -8 0 -16 -21 -10 -28 2 -1 2 -2 1 -2 -1 0 0 -3 2 -6
6 -10 20 -14 45 -14 l21 1 6 -6 6 -6 0 -78 c0 -56 -1 -77 -2 -77 -5 0 -4 -12
1 -28 4 -10 6 -18 6 -19 1 -2 2 -3 3 -3 5 0 9 -9 9 -17 0 -9 -2 -13 -14 -22
-8 -5 -8 -5 -8 -20 0 -17 3 -22 16 -24 12 -2 154 -1 162 1 4 1 10 4 12 7 6 7
13 25 12 34 0 9 6 15 14 15 9 0 14 -6 14 -16 0 -4 0 -9 1 -11 3 -5 5 -18 6
-32 0 -9 -1 -11 -10 -20 -25 -26 -28 -34 -24 -59 2 -8 3 -20 2 -27 0 -19 2
-27 9 -40 11 -20 8 -34 -12 -50 -13 -10 -16 -25 -16 -72 0 -38 0 -40 5 -49 6
-12 6 -13 21 -23 15 -11 16 -13 16 -24 0 -11 -1 -13 -16 -24 -13 -9 -16 -13
-15 -16 0 -2 0 -3 -1 -4 -1 0 -1 -5 -2 -10 0 -8 0 -9 5 -12 8 -4 27 -9 27 -7
0 0 5 4 11 7 5 3 16 12 24 19 8 8 16 14 18 14 12 1 17 0 27 -3 12 -4 32 -4 40
-1 7 3 21 2 36 -3 25 -7 42 -1 54 19 6 9 6 9 6 40 l1 31 1 -30 c1 -16 1 -29 2
-28 0 4 5 -6 6 -13 0 -4 1 -8 2 -9 1 -1 2 -5 3 -9 2 -10 15 -32 24 -40 5 -4
14 -11 22 -15 18 -9 23 -14 23 -22 0 -16 -23 -20 -32 -6 -1 1 -2 1 -2 0 0 -2
-3 -2 -10 -2 -8 1 -23 -2 -24 -4 -1 0 -1 -22 -2 -50 l-1 -50 -1 48 c0 32 -1
47 -2 45 -2 -3 -2 -3 -4 0 -2 2 -2 3 -4 0 -1 -1 -2 0 -3 5 -2 16 -17 30 -44
44 -26 13 -75 17 -93 8 -3 -2 -9 -3 -13 -4 -10 -1 -33 -9 -37 -12 -2 -2 -4 -3
-5 -3 -10 0 -22 -36 -17 -48 5 -12 -9 -21 -17 -12 -4 4 -4 5 0 14 2 6 3 14 3
21 -1 22 -17 30 -53 27 -16 -1 -16 -1 -22 5 l-6 6 0 126 0 126 6 6 c3 3 5 7 5
9 0 1 1 2 2 1 1 0 6 2 11 6 6 4 9 7 8 7 0 0 1 2 3 5 14 14 12 33 -5 73 -9 20
-16 24 -45 30 -14 3 -31 9 -62 21 l-43 18 -24 0 c-20 1 -25 2 -31 6 -5 2 -8 5
-7 5 1 2 -6 17 -12 25 -2 3 -4 9 -4 15 0 6 -2 11 -3 13 -4 4 -3 21 1 27 4 6
18 14 26 14 5 1 5 1 1 1 -4 1 -4 2 -4 18 0 9 0 18 -1 18 -1 1 -19 2 -42 3 -54
2 -63 6 -63 25 0 9 2 12 17 27 15 16 17 24 17 61 0 16 -1 31 -2 33 -1 3 -2 7
-3 10 -1 7 -5 8 -21 10 -11 1 -14 0 -17 -3 -13 -13 -17 -15 -30 -15 -11 0 -13
1 -23 7 -12 8 -27 13 -42 13 -16 0 -23 11 -14 22 4 5 4 5 18 2 15 -3 34 -2 44
3 4 1 12 3 18 5 16 3 17 3 26 8 14 7 20 15 19 26 -1 18 -7 24 -25 33 -6 3 -13
7 -15 9 -8 9 -8 41 0 50 4 4 6 4 18 3 23 -2 41 10 47 30 3 9 2 133 -1 144 -8
33 -7 40 8 43 10 2 12 0 19 -16z m827 -3 c3 -3 3 -3 0 -6 -3 -3 -3 -3 -6 0 -3
2 -3 3 -1 6 4 4 4 4 7 0z m-167 -16 c10 -2 19 -6 22 -7 3 -1 9 -3 15 -5 11 -4
15 -11 16 -25 0 -12 -4 -22 -12 -25 -7 -4 -24 -5 -31 -1 -6 3 -37 33 -42 40
-8 11 -2 28 10 28 3 0 13 -2 22 -5z m-91 -2 c4 -4 0 -14 -10 -22 -4 -3 -9 -9
-11 -14 -5 -8 -5 -10 -5 -57 -1 -40 0 -51 2 -58 3 -9 15 -25 21 -30 12 -8 13
-37 2 -46 -4 -3 -9 -16 -10 -26 l-1 -12 12 -11 c6 -6 13 -11 15 -11 3 -1 6 -4
8 -7 4 -6 4 -7 -1 -11 -2 -2 -5 -3 -7 -2 -1 1 -5 1 -9 0 -6 -1 -17 0 -23 2 -4
2 -10 7 -12 11 -1 3 -4 5 -6 5 -4 0 -12 10 -12 17 0 3 2 11 4 17 7 21 7 36 1
52 -10 24 -15 33 -33 52 -10 10 -18 18 -18 17 0 -1 -1 0 -3 1 -1 1 -5 3 -7 3
-3 1 -5 2 -6 3 0 1 -1 2 -3 2 -2 0 -11 12 -18 23 -4 7 -10 9 -24 10 -7 1 -8 1
-11 7 -4 5 -4 5 2 14 3 5 9 12 13 16 l8 6 -1 14 c0 13 -1 14 -5 14 -2 0 -1 1
4 2 4 2 7 3 7 4 0 3 11 5 54 6 31 1 46 2 49 4 5 3 20 8 27 8 2 0 6 -1 7 -3z
m-676 -135 c1 -2 4 -7 6 -11 2 -8 2 -8 -3 -15 l-5 -6 -7 3 c-9 5 -14 10 -14
17 0 11 14 18 23 12z m540 -7 c5 -6 5 -6 1 -12 -5 -7 -11 -8 -18 -3 -6 4 -4 9
4 16 8 5 8 5 13 -1z m-53 -33 c8 -8 0 -26 -13 -26 -13 0 -20 17 -10 25 8 8 16
8 23 1z m-769 -108 c5 -3 17 -3 19 0 1 2 2 2 2 -1 0 -3 1 -5 2 -5 4 -2 5 -26
1 -39 -4 -14 -4 -26 0 -24 4 1 7 -13 7 -29 0 -12 3 -27 7 -31 1 -2 7 -3 16 -3
l15 0 1 -6 c0 -6 0 -6 1 1 0 7 1 10 4 12 10 6 32 2 35 -7 1 -2 2 -4 3 -3 1 1
2 0 2 -1 0 -1 2 -2 5 -3 10 -3 13 -11 10 -26 -2 -8 -2 -11 0 -23 1 -6 0 -8 -3
-12 -5 -4 -13 -7 -16 -5 -1 1 -8 2 -15 3 -10 1 -14 3 -16 5 -5 9 -9 25 -9 36
-1 10 -1 11 -1 3 l-1 -9 -18 1 c-10 0 -18 1 -18 3 -1 1 -2 -5 -2 -13 0 -19 5
-29 19 -40 10 -7 17 -20 17 -29 0 -6 -6 -14 -18 -23 -5 -4 -10 -10 -13 -16
l-4 -11 -2 -98 c-1 -109 -1 -109 14 -126 18 -22 18 -31 -3 -55 -6 -6 -11 -15
-13 -20 -3 -10 -4 -14 -6 -55 -1 -13 -2 -25 -2 -25 -1 -1 -1 -14 -2 -30 -1
-26 -1 -30 2 -36 4 -8 16 -20 19 -20 2 0 7 -3 11 -7 7 -6 9 -9 9 -14 0 -7 -7
-15 -13 -15 -3 0 -5 -1 -6 -2 0 -1 -4 -2 -7 -3 -19 -3 -29 -18 -33 -46 -3 -20
-10 -57 -14 -78 -2 -8 -3 -16 -4 -18 -6 -32 -41 -152 -49 -168 -2 -3 -3 -3 -6
-1 -3 2 -5 5 -5 6 -2 10 -8 28 -12 37 -7 15 -11 30 -12 45 -2 13 -14 48 -17
48 -1 0 -2 1 -2 2 0 7 -33 26 -45 26 -1 0 -5 2 -8 6 -7 7 -8 17 -1 34 7 17 7
31 1 38 -3 4 -30 14 -35 13 -4 0 -9 5 -10 11 0 5 5 11 19 17 19 9 28 21 30 45
3 31 14 96 23 130 1 4 2 9 3 12 3 18 48 181 66 243 4 13 8 25 8 26 0 1 3 10 5
19 22 69 37 124 36 131 -1 16 -6 24 -25 36 -13 8 -14 10 -17 20 -6 22 8 40 30
38 10 -1 30 3 37 8 17 11 29 60 19 77 -2 3 -5 6 -7 6 -1 0 -3 1 -3 2 -1 1 -6
4 -11 6 -14 4 -19 9 -19 17 0 12 13 19 25 13z m926 -51 l5 -6 0 -46 c0 -47 -1
-52 -9 -61 -2 -2 -3 -2 -3 0 0 2 -16 19 -36 39 l-35 35 -12 1 c-17 2 -24 -4
-40 -29 -7 -10 -12 -20 -13 -22 -1 -3 -2 -3 -6 3 -5 7 -5 10 -6 42 l-1 34 6 6
6 6 63 0 c65 0 74 1 74 7 0 3 1 3 1 -1 1 -2 4 -6 6 -8z m-261 -37 c5 -5 5 -11
0 -16 -10 -10 -27 5 -16 16 4 4 12 4 16 0z m-500 -43 c1 0 3 -1 6 -3 l5 -2 -5
0 c-3 0 -6 -1 -8 -3 -3 -2 -4 -3 -4 -1 0 1 -1 2 -2 1 -1 -1 -2 -1 -2 0 0 0 -1
2 -1 4 -1 2 0 3 2 3 2 0 3 1 3 2 0 1 1 2 3 1 1 -1 2 -2 3 -2z m73 -9 c3 -3 5
-8 6 -15 1 -10 1 -12 -4 -16 -2 -3 -6 -4 -9 -4 -3 0 -8 1 -11 1 -12 0 -29 28
-19 31 1 1 6 2 9 4 12 5 21 5 28 -1z m43 -61 c3 -4 3 -6 1 -20 -2 -9 -3 -20
-4 -24 -3 -20 -4 -24 -6 -29 -3 -7 -13 -11 -24 -11 -19 0 -28 9 -28 28 0 15 2
18 23 35 4 3 9 9 10 13 4 12 22 17 28 8z m-124 -11 c14 -5 18 -10 18 -20 0
-11 -7 -18 -17 -18 -10 0 -14 3 -20 14 -5 12 -5 20 1 25 6 4 6 4 18 -1z m933
-24 c7 -6 7 -19 1 -25 -6 -7 -19 -7 -25 -1 -7 6 -7 19 -1 25 6 7 19 7 25 1z
m-130 -3 c3 -5 3 -5 0 -10 -2 -3 -5 -5 -7 -5 -2 0 -5 2 -7 5 -3 5 -3 5 0 10 2
3 5 5 7 5 2 0 5 -2 7 -5z m-1088 -8 c5 -8 1 -16 -8 -16 -9 0 -13 8 -8 16 2 3
5 5 8 5 3 0 6 -2 8 -5z m999 -15 c6 -3 16 -24 14 -29 -3 -9 -11 -11 -24 -7
-14 5 -18 10 -18 20 0 14 15 23 28 16z m51 -43 c21 -5 23 -14 14 -48 -3 -14
-5 -26 -5 -38 0 -17 -1 -19 -6 -26 -3 -4 -6 -7 -6 -6 0 2 -9 9 -20 18 -12 8
-23 16 -26 19 -3 2 -6 5 -7 5 -1 1 -6 5 -10 9 -5 3 -11 7 -14 9 l-5 2 7 5 c3
2 8 4 10 5 2 0 6 2 10 3 3 1 5 1 5 0 0 0 1 0 2 1 0 1 3 3 7 5 5 3 7 6 8 17 0
3 0 6 1 7 1 1 3 4 6 8 2 3 5 6 6 5 1 -1 2 0 2 1 0 3 8 3 21 -1z m112 -57 c7
-6 7 -19 1 -25 -6 -7 -19 -7 -25 -1 -7 6 -7 19 -1 25 6 7 19 7 25 1z m-817
-44 c5 -5 6 -7 6 -17 0 -10 -1 -12 -6 -17 -5 -5 -7 -6 -17 -6 -10 0 -12 1 -17
6 -5 5 -6 7 -6 17 0 10 1 12 6 17 5 5 7 6 17 6 10 0 12 -1 17 -6z m-419 -46
c14 -9 25 -45 21 -64 -3 -13 -9 -18 -23 -18 -13 0 -18 4 -28 20 -16 28 -20 54
-8 63 8 7 27 7 38 -1z m999 -16 c14 -7 17 -12 14 -28 -1 -7 -2 -14 -3 -15 -6
-19 -15 -27 -30 -27 -8 0 -12 1 -16 4 -12 10 -18 57 -9 67 7 8 25 7 44 -1z
m233 -57 c12 -12 3 -31 -13 -31 -11 0 -18 7 -18 18 0 11 7 18 18 18 6 0 9 -1
13 -5z m-665 -8 c15 -10 21 -33 12 -51 -2 -6 -4 -11 -4 -12 0 -1 -1 -2 -2 -2
0 0 -3 -4 -5 -9 -2 -5 -4 -8 -5 -7 -1 2 -13 2 -14 -1 -1 -1 -2 0 -2 2 0 3 -5
15 -8 17 -4 4 -10 15 -12 22 -3 13 1 24 12 36 11 11 18 12 28 5z m574 -62 c7
-8 27 -17 37 -17 2 0 6 -2 9 -5 9 -10 3 -33 -9 -33 -10 0 -30 -9 -37 -17 -5
-5 -5 -7 -6 -36 l-1 -30 -1 26 c0 19 -1 26 -3 30 -2 3 -3 5 -2 5 1 0 0 1 -1 3
-4 5 -4 71 0 76 1 2 2 3 1 3 -1 0 0 2 2 5 2 3 3 8 3 11 0 5 1 3 2 -5 1 -8 3
-13 6 -16z m-498 -27 c5 -5 6 -7 6 -17 0 -10 -1 -12 -6 -17 -5 -5 -7 -6 -17
-6 -10 0 -12 1 -17 6 -6 6 -6 7 -6 19 1 17 5 21 24 21 9 0 11 -1 16 -6z m-299
-8 c2 -3 3 -6 3 -8 0 -4 -8 -14 -14 -17 -3 -2 -10 -7 -16 -13 -5 -5 -12 -11
-15 -12 -19 -13 -38 10 -20 25 5 5 17 11 21 12 1 0 3 2 6 3 21 15 30 17 35 10z
m-352 -34 c11 -10 3 -28 -11 -28 -9 0 -16 6 -16 16 0 14 17 22 27 12z m1337
-54 c34 -4 34 -17 2 -37 -17 -10 -19 -11 -30 -11 -10 0 -13 1 -17 5 -6 4 -6 6
-6 20 0 14 0 16 6 20 6 6 18 6 45 3z m-1452 -26 c6 -4 10 -14 11 -28 1 -9 0
-10 -5 -14 -12 -9 -36 -9 -44 0 -5 4 -9 19 -7 24 1 2 2 6 2 8 3 14 29 20 43
10z m555 -3 c3 -3 3 -3 0 -6 -3 -3 -3 -3 -6 0 -3 2 -3 3 -1 6 4 4 4 4 7 0z
m295 -30 l-5 -5 -4 4 -5 5 4 4 5 5 4 -4 5 -5 -4 -4z m-785 -19 c10 -10 4 -26
-10 -26 -13 0 -22 18 -13 26 6 5 17 5 23 0z m1447 -30 c5 -5 6 -7 6 -17 0 -10
-1 -12 -6 -17 -5 -5 -7 -6 -17 -6 -10 0 -12 1 -17 6 -5 5 -6 7 -6 17 0 10 1
12 6 17 5 5 7 6 17 6 10 0 12 -1 17 -6z m-952 -4 c5 -6 5 -7 0 -12 -5 -5 -8
-5 -13 1 -3 5 -3 5 0 10 5 6 8 6 13 1z m254 -4 c31 -9 34 -11 25 -28 -22 -44
-35 -54 -51 -36 -5 5 -8 9 -8 10 0 2 -2 5 -5 9 -3 3 -6 7 -7 8 -11 16 -14 32
-5 40 7 7 16 6 51 -3z m-297 -72 c8 -8 8 -24 -1 -32 -7 -8 -12 -8 -49 -4 -18
2 -22 3 -25 6 -5 6 -5 13 0 18 4 3 31 13 53 19 6 1 17 -2 22 -7z m-127 -76 c5
-5 5 -15 0 -20 -9 -9 -24 -2 -24 10 0 8 6 14 14 14 3 0 8 -2 10 -4z m1156 -60
c5 -5 5 -15 0 -20 -9 -9 -24 -2 -24 10 0 8 6 14 14 14 3 0 8 -2 10 -4z m-1423
-13 c6 -6 7 -22 1 -29 -4 -5 -15 -8 -23 -5 -9 2 -13 8 -13 19 0 14 6 20 20 20
8 0 11 -1 15 -5z m-179 -13 c1 0 5 -3 8 -6 5 -5 6 -7 6 -18 0 -11 -1 -13 -6
-18 -6 -6 -7 -6 -18 -6 -11 0 -12 0 -18 6 -5 5 -6 7 -6 17 0 14 3 20 12 24 5
2 8 2 22 1z m1314 -22 c5 -5 5 -14 2 -19 -4 -4 -19 -9 -24 -8 -14 3 -16 6 -9
17 9 13 23 18 31 10z m163 -18 c10 -9 3 -26 -10 -26 -8 0 -15 7 -15 15 0 13
16 20 25 11z m-1016 -11 c3 -5 3 -5 0 -10 -2 -3 -5 -5 -7 -5 -2 0 -5 2 -7 5
-3 5 -3 5 0 10 2 3 5 5 7 5 2 0 5 -2 7 -5z m-302 -19 c2 -3 3 -8 3 -14 0 -14
-6 -20 -20 -20 -14 0 -20 6 -20 20 0 6 1 11 4 14 7 9 25 8 33 0z m1390 -14
c10 -8 11 -32 1 -41 -13 -12 -37 -4 -39 13 -1 11 5 24 12 28 8 5 21 5 26 0z
m-226 -53 c3 -3 3 -3 0 -6 -3 -3 -3 -3 -6 0 -3 2 -3 3 -1 6 4 4 4 4 7 0z"/>
<path d="M93 3744 c-9 -2 -23 -10 -30 -17 -6 -6 -9 -13 -9 -26 0 -9 1 -12 10
-25 6 -8 12 -16 13 -18 2 -2 24 -35 30 -46 1 -1 6 -9 10 -17 31 -54 70 -150
80 -197 2 -10 9 -22 14 -25 8 -6 25 -6 36 -1 19 8 33 3 33 -14 0 -13 -6 -17
-24 -19 -16 -1 -25 -4 -33 -12 -11 -9 -4 -34 13 -47 3 -3 7 -6 9 -7 1 -2 3 -3
4 -3 1 0 3 -1 5 -3 5 -4 33 -19 48 -24 28 -11 58 -15 62 -9 1 2 2 2 2 1 0 -1
1 -1 2 0 2 2 2 9 2 19 l0 16 -8 7 c-10 9 -13 21 -11 43 1 23 10 28 32 19 23
-10 33 -39 20 -58 -4 -6 -4 -26 1 -29 1 -1 2 -2 1 -2 -6 0 8 -6 16 -7 8 -1 12
1 24 6 8 4 15 9 17 10 2 2 4 3 5 3 3 0 21 17 24 22 5 10 8 33 5 40 -2 3 -3 6
-2 6 0 1 -3 6 -7 11 -6 9 -10 13 -28 26 -6 4 -6 5 -6 20 0 14 0 16 6 20 4 4 7
5 18 5 18 0 24 -5 26 -26 2 -15 3 -16 18 -16 21 0 24 3 27 21 5 35 0 75 -14
106 -12 27 -23 46 -39 67 -11 14 -30 34 -38 39 -6 4 -26 9 -37 9 -10 0 -15 5
-22 21 -3 7 -9 17 -13 21 -7 7 -35 22 -60 33 -14 6 -21 9 -29 12 -5 2 -11 4
-13 5 -25 10 -85 26 -133 36 -33 6 -43 7 -57 4z m141 -162 c1 0 5 -3 8 -6 5
-5 6 -7 6 -18 0 -11 -1 -13 -6 -18 -6 -6 -7 -6 -18 -6 -11 0 -12 0 -18 6 -5 5
-6 7 -6 17 0 14 3 20 12 24 5 2 8 2 22 1z m196 -76 c5 -5 5 -15 0 -20 -9 -9
-24 -2 -24 10 0 8 6 14 14 14 3 0 8 -2 10 -4z"/>
</g>
</svg>
