<?xml version="1.0" standalone="no"?>
<!DOCTYPE svg PUBLIC "-//W3C//DTD SVG 20010904//EN"
 "http://www.w3.org/TR/2001/REC-SVG-20010904/DTD/svg10.dtd">
<svg version="1.0" xmlns="http://www.w3.org/2000/svg"
 width="1100.000000pt" height="2850.000000pt" viewBox="0 0 1100.000000 2850.000000"
 preserveAspectRatio="xMidYMid meet">
<metadata>
Created by potrace 1.15, written by Peter Selinger 2001-2017
</metadata>
<g transform="translate(0.000000,2850.000000) scale(0.500000,-0.500000)"
fill="#000000" stroke="none">
<path d="M1131 3831 c-25 -9 -32 -17 -30 -36 0 -10 1 -12 9 -21 12 -11 13 -14
17 -33 3 -16 7 -27 12 -33 3 -4 11 -24 12 -30 0 -3 1 -6 1 -8 1 -2 4 -12 7
-24 3 -12 6 -23 6 -25 1 -2 2 -6 2 -9 5 -25 9 -41 12 -46 5 -10 19 -22 32 -29
13 -7 17 -12 18 -24 0 -16 -2 -20 -15 -29 -11 -7 -17 -14 -15 -16 0 -1 -5 -4
-13 -7 l-14 -5 -81 0 c-101 0 -95 -2 -106 31 -7 21 -19 29 -46 30 -14 1 -19 2
-22 6 -6 5 -7 18 -2 25 5 7 3 31 -3 37 -8 6 -22 6 -35 0 -17 -8 -20 -21 -16
-56 4 -24 9 -35 26 -50 20 -17 25 -25 29 -46 3 -11 1 -18 -8 -31 -3 -3 -4 -8
-4 -17 0 -13 0 -13 11 -24 5 -6 11 -13 12 -15 4 -8 10 -10 25 -10 7 0 14 1 14
2 0 1 2 2 4 3 4 1 6 7 12 30 3 9 10 19 14 19 3 0 12 -9 13 -12 0 -4 4 -12 8
-22 4 -7 15 -15 30 -20 10 -4 23 -4 272 -4 l261 0 6 -6 c3 -3 5 -6 4 -6 -1 0
-1 -4 -2 -8 0 -5 -1 -12 -2 -17 -5 -20 -1 -41 7 -38 2 0 3 0 2 -1 0 -1 2 -3 5
-4 3 -1 6 -3 6 -4 0 -1 1 -3 3 -4 6 -6 11 -20 10 -26 -1 -3 -2 -10 -2 -15 -1
-5 -3 -13 -5 -17 -8 -12 -6 -45 3 -50 1 -2 2 -14 0 -34 0 -7 5 -14 13 -17 9
-4 11 -9 7 -15 -3 -6 -4 -33 -1 -45 6 -21 2 -28 -14 -26 -13 2 -16 2 -25 5 -5
1 -29 2 -61 2 -59 0 -62 0 -79 -12 -4 -3 -11 -7 -15 -9 l-8 -4 -13 8 c-27 16
-27 16 -49 17 -24 0 -31 -1 -59 -14 -16 -8 -15 -8 -42 -5 -14 2 -27 -3 -40
-13 -8 -7 -11 -8 -19 -8 -10 0 -11 1 -18 8 -21 23 -24 26 -35 29 -9 3 -34 3
-204 3 l-194 -1 -13 -7 c-15 -8 -21 -15 -25 -33 -4 -12 -4 -14 0 -27 7 -31 19
-47 39 -54 5 -1 36 -2 108 -2 115 0 111 0 136 16 8 5 16 10 17 10 2 0 6 0 9 0
3 0 7 0 9 0 1 0 9 -5 18 -10 21 -14 30 -17 46 -12 14 4 25 10 33 17 3 3 10 7
16 10 23 11 41 4 41 -17 0 -10 -4 -16 -15 -28 -3 -3 -8 -10 -11 -16 l-6 -11 0
-144 c-1 -79 0 -144 1 -145 0 -1 2 -3 3 -5 4 -6 11 -9 22 -8 8 0 11 -1 12 -3
0 -2 1 -1 1 1 0 5 19 24 29 29 19 11 37 3 37 -16 0 -20 -12 -38 -38 -59 -16
-12 -19 -18 -19 -41 -1 -24 -4 -31 -16 -38 -15 -8 -23 -16 -28 -27 l-5 -11 0
-56 c0 -31 1 -56 2 -56 1 0 2 -1 2 -3 0 -2 3 -3 7 -4 4 0 4 0 -4 -1 -7 0 -10
-1 -13 -5 l-4 -5 -30 1 c-58 2 -81 3 -97 4 -9 1 -26 1 -38 2 -12 0 -29 1 -38
2 -60 4 -67 3 -80 -10 -15 -16 -15 -46 1 -65 6 -8 24 -9 35 -2 4 2 7 5 7 6 0
1 4 3 8 5 10 4 24 3 45 -2 15 -4 20 -10 24 -25 6 -20 13 -29 28 -39 4 -2 15
-12 26 -22 10 -10 21 -19 23 -20 6 -5 12 -16 13 -27 2 -18 9 -35 15 -40 7 -5
20 -8 35 -9 18 -1 23 -6 23 -20 0 -10 -3 -15 -12 -20 -5 -3 -5 -3 -4 -18 1
-15 2 -17 7 -23 3 -3 7 -9 8 -12 4 -21 11 -30 23 -35 9 -4 12 -4 41 1 31 5 44
12 60 29 15 17 20 18 44 14 11 -2 21 -3 27 -2 28 4 90 53 114 90 22 34 45 87
44 105 0 15 -12 31 -30 40 -14 7 -20 20 -16 37 2 8 8 17 12 17 5 0 29 13 35
19 10 11 11 17 11 68 0 45 0 45 -5 56 -5 11 -8 13 -30 29 -10 7 -13 16 -14 37
0 21 4 32 14 39 22 16 25 18 30 29 l5 11 0 75 c-1 83 -1 81 -17 98 -14 14 -15
17 -15 37 1 19 2 23 8 30 3 2 7 9 10 14 14 27 13 20 13 74 l0 49 6 6 6 6 40
-1 c49 0 59 1 64 11 2 4 3 11 3 17 0 6 1 10 3 11 1 0 1 1 -1 1 -6 0 -8 5 -8
15 0 11 2 14 16 21 13 6 18 6 23 -1 2 -2 3 -3 3 -2 0 1 1 0 2 -3 1 -4 0 -8 -4
-15 -2 -5 -4 -10 -4 -11 0 -1 -1 -2 -4 -3 -3 -2 -4 -3 -2 -3 1 0 2 -3 2 -10 0
-16 4 -23 16 -26 16 -3 242 -3 258 1 43 9 75 45 64 72 -2 3 -3 7 -2 8 0 0 -1
1 -2 1 -1 0 -2 2 -3 4 -1 2 -10 11 -21 19 -10 9 -19 16 -20 17 -8 8 -25 21
-33 24 -11 5 -29 21 -29 25 0 2 -1 3 -2 3 -1 0 -13 9 -32 24 -3 3 -8 6 -10 7
-2 1 -3 2 -4 3 -1 1 -5 4 -9 7 -4 3 -8 7 -9 7 -1 1 -10 8 -21 16 -27 20 -31
24 -31 33 0 7 7 14 19 21 3 1 6 3 7 5 2 1 8 6 14 9 17 12 83 60 89 65 12 11
26 18 53 24 29 7 31 9 31 30 0 12 -1 17 -4 22 -3 6 -3 7 0 18 5 19 4 33 -2 43
l-6 8 -14 0 c-14 0 -19 -2 -26 -9 -8 -7 -10 -8 -18 -9 -15 -1 -22 14 -13 29 2
4 5 7 6 7 3 0 6 13 6 26 0 8 -1 14 -2 14 -1 0 -15 13 -31 29 -17 16 -32 30
-35 32 -7 3 -23 4 -31 1 -3 -1 -6 -2 -7 -2 -2 0 -26 -21 -31 -28 -3 -4 -7 -13
-10 -20 -3 -8 -8 -16 -11 -18 -6 -5 -22 -5 -28 0 -6 4 -9 19 -7 34 1 10 10 33
13 36 3 2 15 21 15 24 0 1 0 2 1 2 4 0 7 13 5 19 -1 6 -2 7 -9 7 -5 0 -12 -2
-18 -5 -5 -2 -10 -5 -11 -5 -1 -1 -4 -4 -7 -7 -3 -3 -11 -12 -19 -20 -8 -7
-16 -16 -17 -19 -2 -7 -2 -30 0 -37 2 -9 -4 -15 -13 -13 -18 4 -32 2 -57 -8
-4 -2 -13 -4 -20 -4 -18 0 -25 -2 -37 -7 -25 -11 -27 -12 -38 -11 -12 1 -16 4
-19 16 -3 12 1 21 17 37 18 17 22 26 25 50 7 51 -16 110 -60 156 -10 10 -32
30 -39 35 -1 1 -5 4 -8 7 -4 3 -7 5 -9 5 -1 0 -2 1 -2 2 -3 5 -66 38 -72 37
-3 0 -7 -1 -9 -1 -5 0 -19 -11 -19 -14 1 0 0 -3 -1 -5 -2 -2 -4 -10 -5 -18 -3
-23 -7 -26 -30 -20 -14 4 -17 7 -21 24 -5 18 -5 17 -1 21 2 3 2 4 -2 8 -6 5
-3 4 -27 5 -24 0 -25 1 -37 22 -9 15 -17 24 -27 28 -9 4 -14 4 -28 -2z m207
-135 c6 -3 8 -9 8 -20 0 -15 -4 -19 -30 -23 -42 -6 -44 -6 -49 -1 -10 9 -3 25
12 30 4 1 7 4 8 6 1 2 2 4 3 4 1 0 2 1 1 2 -2 3 6 8 15 8 9 1 25 -2 32 -6z
m-122 0 c4 -5 4 -14 -1 -19 -7 -7 -21 0 -21 10 0 11 15 17 22 9z m121 -106
c12 -5 17 -12 17 -23 0 -15 -15 -21 -34 -14 -22 9 -32 27 -21 39 4 4 5 4 16 3
7 0 17 -2 22 -5z m-43 -136 c8 -8 4 -20 -7 -25 -7 -3 -25 -4 -25 -1 0 0 -1 3
-1 6 -1 4 1 7 8 15 10 10 18 12 25 5z m-42 -30 c6 -5 6 -9 -1 -18 -8 -12 -13
-16 -21 -16 -19 0 -22 30 -3 33 3 1 6 2 7 2 2 2 15 1 18 -1z m538 -60 c5 -6 5
-12 0 -18 -7 -8 -22 -2 -22 9 0 11 15 17 22 9z m-118 -67 c14 -7 14 -41 0 -48
-8 -4 -33 -8 -37 -5 -10 5 -12 9 -9 25 1 9 4 18 5 21 6 11 27 14 41 7z m44
-101 c2 -2 4 -8 5 -13 2 -11 -5 -24 -21 -40 -17 -19 -25 -19 -39 -2 -8 10 -9
13 -8 21 1 11 3 18 5 18 1 0 2 1 2 3 0 4 12 11 24 16 14 5 27 4 32 -3z m18
-131 c3 -3 6 -11 9 -24 3 -11 6 -21 7 -22 3 -3 8 -21 8 -27 0 -11 -24 -25 -47
-27 -4 0 -12 -1 -17 -2 -9 -1 -10 -1 -16 5 -3 3 -6 8 -6 10 0 4 6 23 12 37 1
2 6 13 10 25 10 25 13 28 26 28 6 0 11 -1 14 -3z m145 -55 c5 -6 4 -20 -1 -25
-6 -7 -19 -7 -25 -1 -7 6 -7 19 -1 25 6 7 21 7 27 1z m-566 -128 c7 -6 7 -20
0 -26 -7 -6 -20 -6 -25 0 -5 7 -5 19 0 25 6 7 19 7 25 1z m-44 -69 c4 -4 5 -7
5 -15 0 -14 -6 -20 -20 -20 -14 0 -20 6 -20 20 0 14 6 20 20 20 8 0 11 -1 15
-5z m161 -29 c8 -5 17 -18 19 -27 1 -4 2 -8 3 -8 7 -4 -5 -17 -16 -17 -11 0
-26 20 -29 39 -2 15 9 22 23 13z m-65 -124 c17 -3 25 -8 33 -20 5 -6 10 -12
12 -14 2 -1 4 -3 4 -5 0 -1 4 -4 9 -5 11 -3 21 -12 21 -19 0 -6 -6 -13 -13
-13 -5 0 -21 9 -21 12 0 1 -1 2 -2 2 -1 0 -4 2 -6 4 -3 2 -6 4 -8 4 -3 0 -15
3 -35 9 -28 9 -42 30 -28 42 7 7 11 7 34 3z m48 -122 c18 -17 -7 -56 -36 -56
-14 0 -15 0 -21 6 -5 5 -6 7 -6 17 0 21 15 35 40 39 13 2 15 1 23 -6z m-181
-176 c5 -6 5 -12 0 -18 -7 -8 -22 -2 -22 9 0 11 15 17 22 9z m132 -6 c10 -10
8 -32 -4 -38 -2 -1 -19 -3 -37 -3 -33 -2 -33 -2 -38 3 -7 6 -7 18 0 23 6 7 50
21 63 21 9 0 11 -1 16 -6z m-119 -84 c9 -6 13 -14 14 -29 1 -10 1 -13 -2 -17
-10 -12 -44 -8 -54 6 -5 8 -4 30 2 37 8 10 27 11 40 3z m196 -9 c3 -5 3 -5 0
-10 -2 -3 -5 -5 -7 -5 -2 0 -5 2 -7 5 -3 5 -3 5 0 10 2 3 5 5 7 5 2 0 5 -2 7
-5z m-36 -62 c5 -8 1 -16 -8 -16 -9 0 -13 8 -8 16 2 3 5 5 8 5 3 0 6 -2 8 -5z
m-127 -108 c13 -7 35 -10 40 -5 7 7 20 1 20 -8 0 -8 -14 -15 -18 -9 -5 6 -33
5 -46 -2 -16 -9 -54 -7 -62 3 -9 10 -3 22 12 26 21 5 39 3 54 -5z m97 -84 c3
-3 3 -3 0 -6 -3 -3 -3 -3 -6 0 -3 2 -3 3 -1 6 4 4 4 4 7 0z m-82 -7 c4 -6 4
-24 -1 -30 -7 -9 -27 -9 -34 0 -5 6 -5 24 0 30 7 9 27 9 35 0z"/>
<path d="M257 3795 c-26 -12 -29 -42 -8 -60 5 -5 15 -11 23 -15 19 -9 25 -15
30 -29 7 -20 3 -31 -19 -44 -20 -12 -36 -32 -45 -57 -7 -21 -2 -37 18 -57 7
-7 17 -18 21 -24 10 -14 28 -24 40 -22 14 2 20 5 33 17 8 7 26 16 32 16 2 0 4
1 4 3 0 3 5 4 18 6 17 3 17 -12 1 -21 -5 -3 -11 -7 -14 -9 -2 -3 -5 -5 -6 -5
-1 0 -8 -6 -16 -14 -15 -14 -31 -38 -42 -65 -3 -7 -8 -14 -10 -17 -5 -4 -6 -4
-22 -2 -23 3 -29 3 -39 -3 -20 -11 -22 -19 -22 -77 l1 -45 -6 -6 -6 -6 -66 1
c-66 0 -67 0 -87 -5 -12 -3 -23 -6 -26 -6 -3 -1 -10 -3 -15 -6 -18 -9 -21 -22
-12 -54 7 -24 14 -36 24 -43 14 -10 20 -10 73 -10 l49 1 19 10 c23 10 39 12
48 5 l4 -3 0 -46 c0 -35 0 -46 3 -52 3 -7 9 -12 16 -14 2 0 8 -2 12 -3 6 -1 9
-1 9 0 1 1 5 2 11 2 13 0 19 -6 19 -19 0 -13 -6 -19 -19 -19 -6 0 -10 1 -11 2
0 1 -3 1 -9 0 -4 -1 -10 -3 -12 -3 -2 -1 -6 -2 -8 -4 -11 -7 -11 -1 -11 -208
l0 -191 -6 -7 c-3 -3 -7 -6 -10 -6 -7 0 -33 -3 -36 -4 -2 -1 -11 -2 -21 -3
-31 -4 -39 -7 -59 -28 -9 -9 -16 -14 -18 -14 -14 -1 -19 0 -33 10 -9 5 -17 10
-18 10 -32 3 -41 -18 -25 -57 4 -11 26 -67 49 -124 44 -113 47 -120 58 -132 8
-9 16 -20 18 -26 12 -39 19 -48 42 -48 13 0 12 0 36 27 2 2 14 11 27 20 25 16
27 17 46 27 15 8 26 18 32 29 2 4 7 11 10 15 l6 7 19 0 c27 0 27 0 87 35 4 2
10 5 14 8 4 2 12 6 18 10 6 3 19 10 29 16 9 6 18 11 18 11 1 0 6 3 12 7 5 3
11 7 13 8 2 0 7 3 11 6 4 3 11 7 16 9 24 15 29 20 32 32 1 2 2 7 3 11 1 4 2
12 2 16 0 11 4 16 20 23 7 4 19 10 27 15 17 10 26 12 41 6 17 -6 41 -3 50 7 1
1 7 5 14 9 7 4 13 8 14 9 1 1 10 7 22 15 11 7 21 14 23 15 4 3 20 15 30 22 6
4 11 9 12 13 5 11 4 32 -1 46 -6 18 -8 22 -15 27 -11 7 -18 8 -43 4 -26 -5
-32 -6 -48 -8 -19 -3 -33 -11 -35 -21 0 -2 -2 -8 -3 -13 -2 -6 -2 -10 0 -15 6
-16 11 -40 11 -49 0 -9 -1 -11 -5 -14 -7 -5 -18 -6 -24 -1 -9 9 -25 43 -27 57
-1 4 -3 12 -6 18 -5 9 -7 11 -16 15 -10 5 -10 5 -31 2 -12 -2 -22 -3 -23 -4
-2 0 -5 2 -8 5 -5 5 -5 6 -5 27 0 12 -1 25 -2 29 l-3 8 -16 0 c-11 0 -17 1
-18 3 0 1 -1 1 -1 -2 0 -1 -2 -7 -4 -12 -2 -4 -4 -10 -6 -13 -1 -3 -5 -7 -8
-9 -4 -2 -6 -5 -6 -7 0 -2 -1 -4 -2 -3 -1 1 -2 -4 -2 -12 0 -13 0 -14 12 -26
3 -4 4 -8 4 -15 0 -14 -6 -20 -20 -20 -14 0 -20 6 -20 20 0 7 1 11 6 17 6 8 6
10 6 22 0 17 -3 21 -22 27 -29 10 -36 16 -36 34 0 14 3 18 20 26 16 8 19 11
22 21 1 9 -1 18 -9 32 -10 15 -28 19 -49 10 -11 -5 -12 -5 -37 -2 -18 2 -32
-4 -45 -21 -7 -7 -28 -4 -36 6 -4 5 -4 6 -3 33 2 45 6 53 25 53 10 0 24 -5 27
-10 2 -4 26 -2 31 2 5 3 13 22 14 29 0 1 2 4 4 7 6 5 16 5 26 1 5 -3 9 -3 20
-2 14 1 21 5 27 14 7 11 15 14 34 13 2 0 6 -3 9 -6 11 -11 7 -36 -8 -45 -4 -2
-5 -4 -4 -17 0 -19 1 -21 9 -24 8 -4 15 -11 16 -20 1 -3 2 -7 3 -7 1 -1 2 -4
2 -8 0 -4 1 -5 2 -3 1 2 5 3 18 3 16 0 17 0 18 5 1 3 2 45 2 95 l0 89 -5 11
c-6 12 -17 22 -33 28 -20 8 -21 9 -25 29 -1 6 -14 21 -39 46 -19 18 -20 20
-25 34 -3 8 -6 22 -7 29 -2 13 -2 15 1 20 5 7 15 10 28 8 15 -1 20 -5 26 -19
15 -32 18 -37 34 -49 6 -5 8 -5 16 -4 11 2 19 5 18 7 -1 1 0 2 2 2 2 0 7 2 12
5 6 3 12 5 23 5 16 2 20 2 22 4 1 1 3 2 6 3 4 2 11 10 18 21 9 13 13 18 18 19
3 1 8 2 12 3 3 1 15 2 26 1 31 0 38 -8 33 -38 -5 -23 -2 -36 10 -48 20 -20 55
-40 83 -46 20 -5 59 -5 75 0 33 9 47 22 53 46 3 10 10 18 20 21 24 7 42 46 24
55 -12 6 -21 5 -32 -3 -13 -9 -22 -19 -23 -28 0 -3 -1 -7 -1 -7 -1 0 -4 -2 -8
-5 l-7 -4 -4 6 c-2 3 -4 6 -4 6 3 9 9 36 10 41 0 3 0 9 -1 13 -3 14 1 25 16
41 21 22 27 33 27 48 0 30 -5 35 -26 35 -14 -1 -15 -1 -20 -6 -3 -3 -5 -7 -5
-8 0 -4 -17 -10 -27 -9 -17 1 -24 7 -26 24 -1 6 -2 12 -2 15 -4 32 -4 37 4 53
5 10 8 20 9 26 0 10 0 11 -6 16 -6 5 -8 5 -20 5 -15 -1 -16 -1 -27 -21 -13
-22 -21 -31 -50 -54 -19 -15 -22 -17 -30 -17 -9 0 -10 0 -31 25 -7 9 -15 19
-18 22 -12 13 -21 23 -32 35 -15 18 -21 22 -34 22 -16 0 -22 -4 -32 -22 -8
-13 -9 -16 -9 -27 0 -12 3 -21 9 -27 12 -12 13 -27 4 -35 -3 -2 -8 -5 -10 -6
-2 -1 -4 -2 -4 -3 0 -5 -9 0 -12 6 -3 5 -4 21 -4 153 0 125 -1 148 -3 155 -4
10 -9 17 -17 21 -8 4 -54 16 -72 19 -18 3 -24 6 -31 15 -2 5 -11 14 -19 22
-13 12 -14 13 -20 12 -3 0 -8 0 -10 1 -5 2 -14 -1 -14 -4 0 -2 -2 -5 -4 -8
-11 -12 -4 -30 20 -48 5 -4 13 -10 17 -15 8 -7 27 -18 38 -20 18 -4 23 -11 24
-27 0 -19 -9 -29 -28 -29 -13 0 -21 5 -28 16 l-6 9 -16 0 c-14 0 -17 -1 -19
-4 -3 -5 -8 -21 -8 -24 0 -6 -8 -14 -15 -14 -21 -1 -27 4 -27 21 0 11 0 12 11
23 27 28 29 63 6 85 -10 10 -13 15 -13 23 0 9 4 15 14 18 4 1 8 3 9 4 2 2 6 2
10 2 7 0 15 7 12 11 0 1 -1 7 -1 13 -1 18 -5 20 -58 29 -46 8 -63 8 -75 2z
m454 -483 c10 -9 3 -26 -10 -26 -8 0 -15 7 -15 15 0 13 16 20 25 11z m-132 -3
c0 1 1 0 0 0 0 -1 0 -4 1 -7 1 -2 2 -10 2 -16 0 -14 -5 -20 -19 -20 -13 0 -19
6 -19 19 0 11 2 14 18 23 9 5 11 5 13 3 1 -2 3 -3 4 -2z m257 -23 c12 -3 16
-8 16 -21 0 -8 -5 -20 -10 -25 -4 -3 -17 -25 -23 -37 -8 -16 -24 -22 -33 -13
-5 6 -5 13 0 31 2 8 4 23 5 34 1 11 2 21 4 23 8 9 22 12 41 8z m-473 -7 c19
-3 23 -5 23 -15 0 -7 -6 -14 -12 -14 -14 0 -52 13 -57 19 -3 5 -3 5 0 10 4 6
10 6 46 0z m-69 -66 c20 -9 20 -45 0 -54 -13 -5 -38 -2 -43 5 -5 6 0 35 7 43
7 8 24 11 36 6z m101 -150 c5 -8 1 -16 -8 -16 -9 0 -13 8 -8 16 2 3 5 5 8 5 3
0 6 -2 8 -5z m114 -49 c5 -4 4 -10 -3 -19 -7 -8 -16 -10 -23 -3 -10 10 -4 25
11 26 8 1 9 1 15 -4z m-88 -23 c5 -8 1 -16 -8 -16 -9 0 -13 8 -8 16 2 3 5 5 8
5 3 0 6 -2 8 -5z m-95 -47 c5 -5 5 -15 0 -20 -9 -9 -24 -2 -24 10 0 8 6 14 14
14 3 0 8 -2 10 -4z m51 -208 c15 -14 -8 -36 -24 -24 -5 4 -5 8 1 21 4 8 5 9
12 8 4 -1 9 -3 11 -5z m-50 -49 c1 -4 -6 -13 -11 -13 -2 0 -5 2 -7 5 -3 5 -3
5 0 10 6 8 15 7 18 -2z m100 -109 c10 -9 6 -22 -9 -32 -10 -5 -11 -5 -14 3 -5
12 -5 23 0 28 6 6 17 7 23 1z m-24 -61 c2 -4 3 -10 3 -11 0 -7 7 -11 23 -10 9
0 16 0 17 0 1 0 2 0 3 0 0 0 1 1 1 2 0 5 10 12 18 12 11 0 18 -7 18 -18 0 -15
-15 -23 -30 -15 -7 4 -26 2 -29 -3 -5 -5 -8 -12 -10 -22 -2 -11 -9 -16 -20
-16 -11 0 -15 3 -21 17 -9 20 -13 46 -8 55 2 3 26 18 30 18 1 0 3 -4 5 -9z
m-234 -65 c5 -5 6 -7 6 -16 0 -15 -8 -23 -23 -23 -9 0 -11 1 -16 7 -9 8 -9 23
-1 32 9 9 24 9 34 0z m226 -68 c11 -10 3 -28 -11 -28 -9 0 -16 6 -16 16 0 14
17 22 27 12z m-204 -96 c11 -10 3 -28 -11 -28 -9 0 -16 6 -16 16 0 14 17 22
27 12z"/>
<path d="M536 3773 c-27 -10 -50 -30 -51 -43 0 -3 1 -6 2 -6 1 0 1 -3 0 -6 -1
-5 0 -6 5 -7 10 -2 26 -1 31 1 9 6 27 7 47 4 17 -2 18 -3 28 -12 l11 -10 13 0
c19 1 18 1 25 19 7 18 7 28 -1 40 -5 8 -22 17 -34 18 -5 1 -14 1 -21 2 -36 3
-48 3 -55 0z"/>
</g>
</svg>
