<?xml version="1.0" standalone="no"?>
<!DOCTYPE svg PUBLIC "-//W3C//DTD SVG 20010904//EN"
 "http://www.w3.org/TR/2001/REC-SVG-20010904/DTD/svg10.dtd">
<svg version="1.0" xmlns="http://www.w3.org/2000/svg"
 width="1100.000000pt" height="2850.000000pt" viewBox="0 0 1100.000000 2850.000000"
 preserveAspectRatio="xMidYMid meet">
<metadata>
Created by potrace 1.15, written by Peter Selinger 2001-2017
</metadata>
<g transform="translate(0.000000,2850.000000) scale(0.500000,-0.500000)"
fill="#000000" stroke="none">
<path d="M916 3857 c-1 0 -10 -1 -20 -2 -19 -1 -22 -2 -49 -5 -40 -6 -48 -10
-55 -35 -4 -12 -4 -15 -3 -29 4 -26 7 -32 25 -52 3 -3 11 -13 18 -22 6 -9 13
-18 14 -19 3 -5 16 -25 16 -26 0 0 3 -6 7 -11 3 -6 8 -15 10 -19 2 -5 5 -9 5
-9 3 0 -4 -7 -9 -10 -3 -1 -14 -2 -24 -2 -31 0 -44 -6 -53 -25 -5 -11 -12 -18
-18 -18 -6 0 -13 7 -18 18 -5 11 -16 20 -25 23 -6 1 -110 2 -325 2 -304 0
-317 0 -325 -4 -11 -4 -16 -11 -19 -24 -2 -9 -2 -11 5 -35 9 -31 15 -44 26
-51 12 -8 20 -10 39 -10 26 0 37 6 46 26 11 24 23 24 34 0 11 -24 17 -26 73
-26 l44 0 22 7 c25 9 25 9 48 1 14 -5 23 -7 41 -8 23 -1 38 -6 43 -13 0 -2 2
-4 4 -5 1 -2 4 -6 6 -9 20 -25 103 -108 122 -121 2 -2 5 -4 6 -5 1 -1 6 -6 11
-10 9 -6 11 -7 21 -8 6 0 11 1 11 2 0 0 1 1 2 1 3 -1 9 0 8 1 -1 1 6 9 15 16
6 5 19 0 19 -9 0 -4 -6 -17 -8 -18 -1 0 -2 -8 -2 -17 l0 -17 26 -17 c15 -10
27 -19 27 -21 4 -9 -8 -16 -82 -46 -63 -25 -170 -62 -218 -76 -4 -1 -10 -3
-12 -4 -2 -1 -8 -3 -13 -4 -5 -1 -11 -3 -14 -5 -3 -1 -6 -1 -7 -1 -3 0 -20
-20 -24 -29 -7 -20 -17 -24 -35 -14 -5 3 -12 7 -15 8 -3 2 -7 4 -9 5 -5 2 -17
2 -26 0 -5 -2 -10 -3 -11 -3 -2 -1 -84 -20 -100 -24 -7 -2 -38 -9 -69 -15 -71
-15 -72 -15 -82 -22 -27 -20 -13 -69 23 -80 8 -2 67 3 164 13 15 2 33 3 39 4
14 1 78 9 83 10 2 0 6 -2 10 -5 l5 -5 0 -346 c0 -312 0 -347 3 -354 4 -9 14
-21 18 -21 2 0 3 -1 3 -2 0 -2 10 -3 49 -3 37 0 38 0 49 6 10 4 24 17 24 21 0
1 2 6 5 11 15 22 17 33 12 61 -1 6 -1 8 3 12 10 10 26 2 23 -12 -4 -21 -3 -32
1 -43 3 -6 6 -11 8 -12 5 -2 10 -14 9 -23 -1 -16 -39 -63 -76 -97 -18 -15 -22
-19 -41 -33 -45 -34 -126 -78 -196 -105 -32 -13 -71 -27 -77 -29 -45 -14 -77
-26 -77 -30 0 -1 -1 -2 -2 -1 -2 1 -8 -13 -9 -23 -1 -7 -1 -11 2 -15 1 -3 4
-9 6 -14 9 -18 26 -29 44 -29 9 0 60 6 73 9 3 1 9 1 14 2 5 1 14 2 21 3 7 1
15 3 18 3 43 7 144 27 176 36 20 5 24 8 36 21 10 10 19 16 24 15 2 0 10 -2 17
-4 7 -2 17 -3 21 -3 13 0 78 23 115 40 8 3 17 7 21 9 16 7 27 37 18 53 -1 3
-2 6 -2 7 2 8 3 15 1 14 -2 -1 -2 -1 -2 0 1 1 0 3 -1 5 -2 1 -3 1 -3 0 0 -5
-17 5 -24 14 -12 17 8 36 22 21 3 -3 4 -5 3 -5 0 0 0 -2 2 -5 3 -5 4 -16 2
-22 -1 -3 -1 -3 1 -2 1 1 2 0 2 -1 -1 -2 0 -3 2 -3 2 0 4 -1 6 -1 2 0 8 -4 13
-8 5 -4 10 -8 11 -8 1 0 2 -1 2 -2 0 -3 18 -10 27 -10 7 0 12 2 21 7 13 9 47
33 48 35 1 0 8 7 16 14 20 17 48 46 60 61 5 7 9 12 10 13 1 1 9 12 22 31 19
28 22 38 25 71 2 17 3 19 16 33 7 7 14 16 16 20 5 10 7 12 16 16 l8 4 6 -6 6
-6 -1 -100 c0 -142 3 -170 25 -214 13 -28 36 -52 63 -67 11 -6 40 -18 46 -19
2 0 7 -2 11 -3 13 -3 45 -8 66 -10 27 -2 353 -1 396 1 79 3 155 14 170 23 12
7 16 26 10 47 -5 17 0 32 13 38 16 6 31 1 42 -15 4 -6 10 -12 12 -13 6 -3 32
-4 32 -1 0 1 2 4 5 7 7 8 18 31 22 46 3 8 4 19 4 34 0 30 -2 36 -14 62 -10 20
-36 47 -54 56 -4 2 -9 7 -12 11 l-5 8 -2 84 c-2 91 -3 95 -14 107 -7 7 -21 13
-30 13 -9 0 -28 -8 -35 -15 -4 -4 -12 -17 -17 -29 -6 -11 -12 -24 -13 -27 -6
-12 -3 -29 8 -46 6 -9 7 -13 7 -20 0 -14 -5 -19 -24 -20 -26 -1 -39 -8 -50
-27 -8 -15 -14 -22 -24 -27 l-9 -6 -132 0 c-73 0 -133 -1 -133 -2 0 0 -3 2 -6
6 -5 6 -6 8 -6 21 -1 14 -1 15 5 21 6 6 7 6 20 6 18 -1 44 2 73 7 29 6 30 7
30 29 0 17 0 17 -6 19 -8 3 -12 12 -13 24 0 19 9 29 28 29 12 0 17 -3 42 -20
36 -24 58 -30 82 -19 12 5 18 11 22 21 4 8 4 23 5 266 l1 258 6 8 c3 4 5 7 5
7 0 -3 22 11 34 22 15 13 20 21 20 31 0 8 0 9 9 12 7 3 13 3 26 2 10 0 20 0
23 1 26 8 31 16 39 54 9 43 24 80 42 107 8 12 32 37 42 44 3 2 8 6 11 8 3 1
11 6 18 9 7 4 17 8 22 11 14 6 22 17 25 32 1 9 -4 15 -14 15 -4 0 -9 1 -11 1
-3 0 -7 -1 -10 -3 -5 -3 -21 -4 -30 0 -4 2 -8 7 -14 16 -4 7 -11 16 -15 20
-13 11 -19 12 -102 12 -41 0 -83 0 -93 1 -10 0 -37 1 -59 2 -23 1 -43 2 -45 2
-3 0 -19 1 -37 2 -35 2 -40 2 -70 4 -19 1 -35 6 -38 10 0 1 10 10 22 19 13 9
24 18 26 19 1 1 9 7 17 14 8 6 19 15 24 20 5 4 15 13 23 20 13 11 58 55 73 72
14 15 15 15 123 15 103 0 110 1 133 12 15 7 32 22 38 35 5 11 5 22 -1 34 -5
10 -7 12 -19 21 -3 3 -7 6 -9 7 -11 10 -14 11 -25 11 -13 0 -16 -1 -31 -13
-10 -7 -10 -7 -23 -6 -26 1 -61 15 -62 23 0 4 9 11 18 14 24 8 28 12 28 28 0
12 -5 21 -17 29 -6 4 -20 14 -31 22 -33 25 -75 56 -90 66 -44 31 -42 30 -55
29 -15 -2 -20 -5 -36 -24 -10 -13 -18 -23 -37 -45 -2 -3 -9 -12 -16 -20 -7 -9
-14 -17 -16 -19 -5 -6 -23 -29 -26 -33 -3 -7 -3 -29 1 -38 4 -10 4 -25 -1 -31
-8 -11 -24 -9 -43 6 -22 16 -19 16 -138 16 l-104 0 -7 6 c-6 4 -7 6 -5 7 8 8
17 46 16 68 -1 20 -4 31 -15 53 -8 16 -11 21 -27 37 -22 21 -20 20 -39 31 -43
26 -93 38 -164 39 -24 0 -44 1 -44 0z m-37 -62 c3 -3 3 -3 0 -6 -3 -3 -3 -3
-6 0 -3 2 -3 3 -1 6 4 4 4 4 7 0z m236 -57 c22 -4 28 -11 28 -30 -1 -22 -13
-29 -45 -26 -40 5 -49 8 -52 24 -4 17 3 31 16 34 8 2 35 1 53 -2z m-172 -65
c5 -8 1 -16 -8 -16 -9 0 -13 8 -8 16 2 3 5 5 8 5 3 0 6 -2 8 -5z m348 -112 c4
-4 5 -7 5 -15 0 -14 -6 -20 -20 -20 -14 0 -20 6 -20 20 0 14 6 20 20 20 8 0
11 -1 15 -5z m-382 -22 c3 -2 6 -4 7 -5 2 -2 24 -14 36 -18 5 -2 15 -7 21 -11
19 -13 22 -13 94 -13 65 0 72 -1 79 -7 3 -3 2 -5 -12 -18 -8 -8 -17 -16 -19
-18 -12 -12 -65 -54 -82 -65 -11 -8 -24 -11 -37 -9 -11 1 -70 17 -110 29 -28
9 -37 7 -57 -13 -10 -10 -12 -11 -20 -11 -11 0 -17 6 -17 17 0 12 -5 31 -11
38 -5 7 -12 11 -41 23 -8 4 -22 10 -30 14 -8 4 -17 8 -20 8 -3 1 -4 2 -1 2 1
0 3 1 3 3 0 6 10 7 75 7 85 0 85 0 101 34 7 15 8 16 17 18 8 2 16 0 24 -5z
m424 -203 c9 -4 17 -8 18 -8 2 0 6 -1 10 -3 19 -10 16 -18 -9 -20 -8 0 -19 -2
-25 -4 -26 -8 -41 -1 -41 20 0 24 19 30 47 15z m-57 -90 c1 -3 3 -12 3 -21 0
-9 2 -21 4 -28 3 -10 3 -12 0 -16 -9 -11 -15 -3 -16 20 0 9 -2 21 -4 28 -3 10
-3 12 0 16 5 6 9 6 13 1z m-374 -29 c3 -3 4 -7 4 -14 0 -13 -6 -19 -19 -19
-13 0 -19 6 -19 19 0 7 1 11 4 14 7 8 23 8 30 0z m509 -3 c7 -6 7 -19 1 -25
-6 -7 -19 -7 -25 -1 -7 6 -7 19 -1 25 6 7 19 7 25 1z m145 -17 c4 -2 9 -5 11
-6 8 -3 26 -7 39 -7 22 1 31 -7 31 -27 0 -19 -9 -28 -28 -28 -13 0 -19 4 -30
18 -7 10 -12 14 -24 20 -23 12 -28 18 -19 29 4 5 11 5 20 1z m-494 -95 c7 -2
23 -7 36 -11 13 -4 28 -9 35 -11 32 -10 68 -20 72 -21 2 0 4 -1 5 -1 1 -1 4
-2 12 -2 4 0 5 -1 3 -1 -3 -1 -5 -3 -6 -5 0 -2 -3 -4 -7 -5 -8 -1 -339 -1
-345 0 -3 1 -5 3 -5 4 0 2 -2 4 -4 5 -5 2 -5 2 1 2 9 0 27 7 41 15 18 11 30
14 48 15 18 0 26 2 49 10 31 11 44 12 65 6z m-520 -47 c21 -9 20 -45 -2 -54
-10 -5 -28 -1 -34 6 -9 10 -9 32 0 42 7 8 24 11 36 6z m-96 -21 c5 -5 6 -7 6
-17 0 -10 -1 -12 -6 -17 -5 -5 -7 -6 -17 -6 -10 0 -12 1 -17 6 -5 5 -6 7 -6
19 0 17 3 20 21 21 12 0 13 0 19 -6z m854 -69 c10 -7 16 -29 18 -68 l1 -28 -6
-6 -6 -6 -63 1 c-58 0 -63 0 -70 -4 -4 -2 -9 -5 -10 -7 -4 -5 -6 -29 -3 -29 2
0 3 -1 3 -2 0 -2 28 -15 35 -15 5 0 12 -4 16 -7 4 -4 6 -7 8 -19 1 -8 11 -26
15 -31 7 -6 18 -7 29 -2 21 9 25 10 34 8 12 -4 16 -14 17 -45 l1 -24 -6 -6 -6
-6 -293 0 -293 0 -6 6 c-6 6 -6 7 -6 27 0 20 0 21 6 27 l6 6 30 -1 c43 -1 53
3 65 25 8 15 13 19 19 19 6 0 11 -4 19 -19 7 -13 15 -20 27 -23 6 -2 40 -2
122 -2 124 1 118 0 131 12 5 4 6 7 6 16 1 13 0 15 -15 31 -5 5 -9 12 -9 14 -1
25 -7 40 -19 46 l-8 5 -184 -1 -184 0 -6 6 c-6 6 -6 7 -6 26 0 19 0 20 6 26
l6 6 144 0 c162 0 147 -1 166 15 15 14 19 16 29 16 10 0 14 -2 29 -16 18 -15
16 -15 75 -15 50 0 62 1 64 3 1 1 4 2 7 4 3 2 9 9 14 16 13 20 16 22 23 24 9
2 22 1 28 -3z m90 1 c5 -5 5 -15 0 -20 -9 -9 -24 -2 -24 10 0 8 6 14 14 14 3
0 8 -2 10 -4z m93 -10 c7 -6 7 -19 1 -25 -6 -7 -19 -7 -25 -1 -7 6 -7 19 -1
25 6 7 19 7 25 1z m129 -165 c21 -9 20 -45 -2 -54 -10 -5 -28 -1 -34 6 -9 10
-9 32 0 42 7 8 24 11 36 6z m-121 -43 c7 -6 7 -19 1 -25 -6 -7 -19 -7 -25 -1
-7 6 -7 19 -1 25 6 7 19 7 25 1z m-521 -127 c11 -5 14 -12 15 -32 1 -20 7 -33
19 -39 l9 -4 147 0 147 1 6 -6 6 -6 0 -25 0 -25 -6 -6 -6 -6 -293 0 -293 0 -6
6 -6 6 0 25 0 25 6 6 6 6 89 -1 89 0 9 4 c12 6 18 19 19 39 1 21 4 27 17 32 6
3 19 2 26 0z m576 -38 c3 -3 4 -7 4 -14 0 -13 -6 -19 -19 -19 -13 0 -19 6 -19
19 0 7 1 11 4 14 7 8 23 8 30 0z m-973 -6 c5 -8 1 -16 -8 -16 -9 0 -13 8 -8
16 2 3 5 5 8 5 3 0 6 -2 8 -5z m965 -125 c5 -5 5 -11 0 -16 -10 -10 -27 5 -16
16 4 4 12 4 16 0z m-1044 -56 c5 -5 5 -11 0 -16 -10 -10 -27 5 -16 16 4 4 12
4 16 0z m306 -39 c3 -3 4 -7 4 -14 0 -13 -6 -19 -19 -19 -13 0 -19 6 -19 19 0
7 1 11 4 14 7 8 23 8 30 0z m403 -139 c11 -10 3 -28 -11 -28 -9 0 -16 6 -16
16 0 14 17 22 27 12z m301 -90 c7 -3 12 -13 12 -23 0 -23 -33 -23 -37 0 -4 23
6 32 25 23z m-302 -88 c9 -9 2 -24 -10 -24 -12 0 -19 15 -10 24 2 2 7 4 10 4
3 0 8 -2 10 -4z"/>
</g>
</svg>
