<?xml version="1.0" standalone="no"?>
<!DOCTYPE svg PUBLIC "-//W3C//DTD SVG 20010904//EN"
 "http://www.w3.org/TR/2001/REC-SVG-20010904/DTD/svg10.dtd">
<svg version="1.0" xmlns="http://www.w3.org/2000/svg"
 width="1100.000000pt" height="2850.000000pt" viewBox="0 0 1100.000000 2850.000000"
 preserveAspectRatio="xMidYMid meet">
<metadata>
Created by potrace 1.15, written by Peter Selinger 2001-2017
</metadata>
<g transform="translate(0.000000,2850.000000) scale(0.500000,-0.500000)"
fill="#000000" stroke="none">
<path d="M982 3835 c-16 -3 -19 -4 -26 -11 -10 -10 -11 -13 -18 -59 -2 -14 -6
-35 -8 -47 -2 -12 -4 -28 -5 -37 -1 -9 -2 -19 -3 -22 -2 -8 0 -25 6 -41 5 -15
5 -21 -3 -28 -19 -17 -25 -23 -27 -33 -6 -18 -8 -26 -9 -35 -1 -11 -2 -15 -5
-26 -1 -5 -3 -10 -3 -11 0 -1 -3 -8 -5 -16 -3 -8 -9 -26 -13 -40 -7 -24 -8
-28 -7 -50 0 -27 -2 -32 -14 -33 -9 0 -18 7 -24 19 -12 22 -24 29 -55 29 -17
0 -20 4 -22 25 -1 23 -5 31 -23 49 -25 25 -26 25 -42 24 -12 -1 -15 -2 -20 -7
-10 -10 -10 -24 -3 -49 6 -19 5 -30 -3 -39 -9 -11 -31 -11 -43 0 -10 8 -10 33
0 48 1 2 5 10 7 17 4 12 4 17 4 108 0 85 0 95 3 102 4 8 8 12 11 12 5 0 23 12
32 22 12 12 18 22 24 39 3 10 3 11 -1 27 -1 6 -7 14 -11 15 -2 1 -4 2 -4 3 0
2 -22 8 -39 9 -15 1 -20 2 -38 4 -10 1 -12 -3 -13 -23 l0 -16 9 -4 c12 -6 16
-11 16 -26 0 -22 -10 -30 -33 -27 -8 1 -11 3 -22 15 -12 13 -37 30 -44 30 -4
0 -10 8 -10 13 -1 11 -1 12 -9 29 -9 17 -19 21 -65 25 -8 0 -23 2 -34 3 -10 1
-23 2 -28 3 -5 0 -19 2 -31 3 -32 3 -47 -2 -56 -19 -4 -8 -4 -10 -5 -245 -1
-166 -2 -238 -3 -240 -3 -3 -1 -14 1 -13 1 1 4 0 6 -2 1 -2 8 -7 14 -11 15
-11 18 -16 18 -31 0 -10 -1 -12 -6 -17 -6 -6 -7 -6 -18 -6 -11 0 -12 0 -18 6
-5 5 -6 7 -6 18 0 7 1 13 3 14 1 2 2 7 1 15 0 8 -1 11 -2 8 -1 -3 -2 -3 -2 2
0 5 -2 8 -6 11 l-7 5 -104 1 c-90 0 -105 0 -112 -3 -13 -5 -18 -11 -19 -25 -1
-12 -1 -12 6 -18 4 -3 12 -8 18 -11 6 -3 13 -7 16 -9 5 -5 5 -15 1 -18 -2 -1
-3 -2 -1 -2 1 0 2 -3 2 -6 0 -11 4 -21 9 -26 l5 -5 85 -1 84 0 6 -6 c4 -4 5
-6 3 -14 -1 -5 -2 -13 -3 -18 0 -5 -2 -14 -3 -20 -1 -6 -2 -14 -3 -17 -7 -47
-39 -211 -46 -236 -3 -9 -3 -30 -1 -31 2 -2 2 -2 0 -2 -2 0 -2 -1 0 -3 8 -9
11 -11 13 -10 2 0 3 0 3 -1 0 -2 3 -1 19 1 12 2 20 -11 11 -21 -4 -5 -15 -6
-17 -1 0 2 -2 3 -4 3 -2 0 -3 1 -3 2 0 3 -29 2 -30 -1 -1 -1 -2 -1 -2 1 0 9
-9 -11 -16 -37 -17 -64 -51 -163 -68 -202 -2 -5 -4 -9 -4 -10 0 -2 -23 -53
-37 -84 -8 -16 -2 -30 17 -44 11 -9 13 -11 14 -17 1 -13 -14 -21 -26 -12 -7 4
-40 5 -44 0 -8 -8 -10 -28 -4 -41 4 -9 27 -32 35 -35 7 -3 19 -3 26 0 8 3 52
41 87 76 15 15 30 39 30 47 0 2 2 7 5 11 5 7 13 12 25 13 2 1 6 2 9 4 7 4 30
31 32 36 0 3 1 3 1 1 0 -2 1 -4 2 -4 1 0 3 -4 5 -8 2 -8 3 -28 3 -149 l1 -141
5 -4 c5 -5 7 -5 18 -6 3 -1 5 -1 5 -2 0 0 1 -2 4 -5 3 -2 5 -7 6 -10 0 -3 1 5
1 19 0 23 0 24 5 29 4 4 7 5 15 5 14 0 20 -6 20 -20 0 -10 -1 -11 -9 -19 -6
-5 -12 -9 -14 -10 -1 -1 -3 -2 -3 -3 0 -1 -2 -3 -4 -6 -3 -4 -3 -4 0 -21 5
-25 2 -37 -11 -43 -37 -19 -39 -23 -39 -92 0 -54 1 -61 12 -69 5 -4 18 -11 21
-11 1 0 5 -3 8 -6 l5 -5 -6 -6 c-3 -3 -6 -5 -7 -5 -1 0 -5 -2 -10 -4 -18 -8
-26 -22 -21 -39 3 -10 14 -25 19 -25 2 0 3 -1 3 -2 0 -2 11 -3 58 -3 50 0 75
3 110 13 8 2 18 5 23 6 21 6 29 13 29 30 1 12 1 13 -4 17 -3 3 -6 5 -7 5 -1 0
-6 2 -10 4 -4 2 -11 4 -14 4 -10 0 -41 6 -47 9 -3 1 -9 7 -14 13 -5 5 -13 13
-19 17 -13 10 -17 16 -17 28 0 20 18 25 42 12 24 -14 32 -18 52 -20 29 -5 33
-6 46 -18 6 -6 22 -16 34 -23 19 -10 24 -12 32 -12 16 1 21 5 26 20 4 13 4 18
4 218 -1 113 -2 207 -2 210 -4 12 -7 16 -8 14 -1 -2 -2 -2 -2 -1 0 2 -4 2 -13
2 l-13 -1 0 7 0 7 13 -1 c9 0 13 0 13 2 0 1 1 1 2 -1 1 -2 2 -1 4 3 4 11 5 16
5 51 1 33 1 35 -5 56 -3 12 -6 24 -6 28 0 11 8 38 13 43 9 8 10 9 13 5 1 -2
10 -9 20 -16 49 -33 102 -39 151 -17 15 7 37 21 37 25 0 2 1 2 1 0 1 -2 2 -4
3 -4 7 0 7 -8 8 -145 1 -135 1 -136 5 -144 3 -5 7 -11 9 -14 3 -3 7 -8 10 -12
4 -4 7 -10 8 -17 6 -29 7 -34 13 -47 8 -17 9 -24 3 -35 -5 -10 -6 -36 -2 -40
1 -1 3 -4 5 -7 7 -14 2 -28 -12 -35 -11 -5 -18 -15 -21 -28 -2 -10 -2 -10 7
-29 15 -31 34 -55 61 -73 16 -12 41 -6 51 12 7 11 27 17 39 11 11 -4 15 -11
17 -26 0 -2 2 -8 4 -13 13 -33 18 -34 208 -33 l126 0 9 5 c5 2 13 8 18 13 16
16 25 23 37 26 7 2 14 3 16 2 2 0 6 -8 11 -18 13 -27 19 -30 71 -28 97 3 97 3
120 14 8 4 16 7 19 9 8 3 22 1 44 -6 6 -2 28 -1 42 1 81 14 142 39 172 73 14
15 16 17 16 20 0 1 1 2 2 2 2 0 13 24 17 38 10 37 2 79 -20 108 -10 13 -35 35
-45 39 -5 2 -8 4 -8 5 0 1 -3 2 -7 4 -9 3 -17 13 -18 23 -1 7 -1 17 -4 71 -3
65 -4 68 -17 80 -5 5 -9 8 -10 8 -4 0 -24 9 -27 11 -3 3 -3 4 0 7 2 2 3 4 3 5
0 1 3 7 6 14 16 33 33 98 41 146 0 3 2 11 3 18 1 7 2 16 3 21 6 48 9 73 10 86
1 8 2 19 2 24 2 25 4 46 6 82 1 10 1 25 2 32 2 24 3 49 4 79 2 44 3 72 4 108
1 26 1 34 -2 43 -6 22 -15 32 -32 36 -31 8 -35 10 -35 20 0 10 6 14 22 14 41
0 52 16 52 79 0 49 2 74 7 79 2 2 12 8 22 13 19 9 22 11 38 25 11 10 15 18 15
30 0 14 -5 22 -28 41 -12 10 -32 27 -44 37 -23 20 -32 26 -53 31 -15 4 -21 9
-26 24 -6 16 -14 26 -33 42 -11 8 -20 17 -22 19 -8 8 -34 29 -39 31 -14 6 -29
3 -41 -8 -12 -11 -15 -30 -9 -48 6 -18 2 -26 -15 -31 -9 -3 -23 -9 -38 -17 -5
-3 -11 -5 -13 -5 -2 0 -9 -1 -16 -3 -11 -3 -15 -5 -30 -11 -2 -1 -11 -4 -19
-7 -8 -3 -15 -6 -16 -7 -4 -7 -9 -31 -6 -33 3 -2 4 -16 2 -24 -2 -10 -7 -15
-19 -18 -6 -2 -9 -3 -7 -3 2 0 3 -3 3 -18 0 -10 1 -18 1 -19 1 -1 12 -1 23 -1
21 0 22 0 27 -5 5 -5 5 -13 3 -125 -1 -55 -3 -67 -9 -76 -5 -8 -5 -38 0 -49 4
-10 4 -12 3 -61 -1 -28 -2 -54 -2 -58 -1 -11 8 -27 17 -33 4 -3 12 -6 18 -8
12 -5 17 -11 16 -23 0 -11 -5 -17 -20 -24 -30 -15 -38 -29 -41 -74 -1 -23 1
-31 8 -40 7 -7 23 -12 35 -12 16 0 26 -8 24 -20 0 -1 1 -2 2 -2 2 0 2 -1 1 -1
-1 -2 10 -19 15 -20 2 -1 9 1 17 3 16 3 33 2 42 -3 5 -3 11 -19 11 -28 0 -6 6
-23 8 -26 4 -5 20 -12 32 -15 15 -4 20 -8 20 -19 0 -11 -6 -17 -17 -17 -6 0
-21 7 -21 10 0 2 -21 16 -24 16 -2 0 -9 3 -15 8 -14 8 -33 28 -43 45 -3 6 -7
11 -8 11 -1 0 -2 1 -1 2 1 1 0 2 -2 2 -2 0 -3 1 -2 2 0 0 0 2 -1 4 -1 2 -6 1
-21 -3 -12 -3 -23 -5 -25 -4 -8 1 -21 -6 -26 -13 -3 -6 -4 -11 -1 -39 1 -13 1
-13 -5 -20 -9 -8 -27 -17 -32 -16 -9 3 -11 33 -5 61 4 19 5 260 0 273 -3 11
-11 25 -15 26 -6 2 -20 17 -21 23 0 3 -1 10 -2 16 -1 13 -6 33 -10 36 -5 6 -7
16 -8 35 0 17 -1 22 -6 32 -9 20 -7 40 5 46 11 6 28 6 38 1 10 -5 14 -5 19 0
7 5 4 17 -7 27 -5 4 -10 10 -12 13 -1 3 -5 7 -8 9 -4 2 -15 10 -25 17 -42 32
-43 33 -60 40 -7 3 -18 10 -19 13 0 0 -2 1 -3 1 -2 0 -3 1 -3 2 0 3 -26 28
-33 31 -7 3 -16 4 -27 2 -7 -2 -19 -12 -52 -49 -30 -32 -32 -35 -34 -40 -3 -9
-1 -28 4 -37 6 -13 6 -30 -2 -37 -6 -6 -8 -7 -21 -6 -11 0 -12 1 -14 3 -1 2
-5 3 -8 4 -3 0 -6 1 -7 1 -1 0 -2 0 -2 0 -1 0 -2 1 -2 2 0 1 -9 1 -15 -1 -2
-1 -7 -5 -11 -10 l-8 -9 -8 7 c-5 3 -11 8 -12 10 -4 5 -5 20 -2 22 4 2 1 32
-3 38 -2 3 -7 7 -12 9 -14 6 -20 17 -14 25 4 6 5 17 3 25 -2 8 -11 18 -17 18
-8 0 -19 4 -21 8 -3 6 1 24 7 30 8 7 22 6 31 -3 10 -9 14 -11 27 -11 12 0 19
2 19 7 0 3 9 12 17 16 3 2 14 4 24 5 26 2 32 5 53 31 5 5 10 8 16 9 13 3 24 0
32 -9 25 -30 25 -30 72 -30 l37 0 9 6 c12 7 19 17 19 28 -1 10 -3 15 -12 25
-8 9 -12 16 -15 29 -3 15 -7 22 -15 28 l-8 6 -44 0 c-49 0 -48 0 -76 -17 -20
-13 -37 -7 -37 13 0 9 3 16 14 27 12 13 27 40 45 84 6 15 11 19 30 25 29 10
47 23 62 46 8 11 9 13 8 23 0 6 -3 13 -5 17 -8 13 -9 13 -147 56 -26 8 -64 20
-83 26 -117 37 -165 52 -168 52z m-517 -97 c6 -5 5 -19 -2 -25 -5 -7 -18 -7
-24 -1 -7 6 -7 19 -1 25 6 7 21 7 27 1z m-75 -121 c14 -7 14 -33 1 -57 -6 -11
-14 -16 -26 -16 -9 0 -19 6 -19 12 0 2 -1 8 -2 13 -2 10 0 30 4 40 5 12 26 16
42 8z m798 -32 c3 -3 4 -7 4 -14 0 -13 -6 -19 -19 -19 -13 0 -19 6 -19 19 0 7
1 11 4 14 7 8 23 8 30 0z m-180 -104 c3 -3 4 -7 4 -14 0 -13 -6 -19 -19 -19
-13 0 -19 6 -19 19 0 7 1 11 4 14 7 8 23 8 30 0z m767 -5 c2 0 7 -3 12 -7 12
-9 25 -13 45 -14 21 -1 28 -4 32 -13 6 -14 1 -35 -7 -39 -24 -9 -39 -11 -43
-4 -1 1 -2 1 -2 0 0 -3 -12 7 -12 10 0 2 -1 3 -2 2 -1 0 -1 1 -1 3 0 1 -1 3
-2 4 -1 0 -3 1 -3 2 -1 1 -10 2 -20 3 -21 1 -26 2 -31 10 -6 10 -5 30 3 38 4
4 15 7 23 6 3 -1 7 -1 8 -1z m-1280 -77 c7 -4 9 -8 10 -24 1 -16 7 -34 14 -42
8 -10 12 -17 12 -28 0 -19 -9 -28 -28 -28 -19 0 -28 9 -27 30 0 19 -5 40 -12
47 -8 8 -11 31 -5 40 7 9 26 12 36 5z m481 -15 c1 0 5 -3 8 -6 5 -5 6 -7 6
-18 0 -11 -1 -13 -6 -18 -6 -6 -7 -6 -18 -6 -11 0 -12 0 -18 6 -5 5 -6 7 -6
17 0 14 3 20 12 24 5 2 8 2 22 1z m829 -4 c4 -5 4 -8 2 -20 -4 -22 -35 -22
-35 1 0 9 4 14 15 20 8 4 13 4 18 -1z m38 -78 c10 -9 3 -26 -10 -26 -8 0 -15
7 -15 15 0 13 16 20 25 11z m-794 -3 c6 -3 7 -8 5 -20 -3 -14 -9 -19 -21 -19
-13 0 -19 6 -19 19 0 12 4 17 18 20 10 2 11 2 17 0z m-236 -6 c3 -3 3 -3 0 -6
-3 -3 -3 -3 -6 0 -3 2 -3 3 -1 6 4 4 4 4 7 0z m-316 -68 c12 -7 14 -33 3 -43
-8 -9 -32 -9 -40 0 -9 8 -9 32 0 41 7 7 27 8 37 2z m282 -31 c4 -4 4 -5 2 -10
-3 -6 -3 -19 0 -27 3 -6 11 -13 20 -18 14 -7 17 -11 17 -20 0 -12 -8 -50 -11
-57 -5 -10 -27 -14 -41 -7 -5 3 -9 3 -19 2 -19 -2 -22 -5 -38 -37 -10 -19 -12
-23 -18 -25 -10 -4 -11 -4 -39 8 -17 7 -26 12 -29 16 -4 5 -4 9 -5 87 l-1 83
6 6 6 6 72 -1 c73 -1 73 -1 78 -6z m935 -35 c21 -9 20 -45 -2 -54 -10 -5 -28
-1 -34 6 -9 10 -9 32 0 42 7 8 24 11 36 6z m-667 -16 c3 -5 3 -5 0 -10 -2 -3
-5 -5 -7 -5 -2 0 -5 2 -7 5 -3 5 -3 5 0 10 2 3 5 5 7 5 2 0 5 -2 7 -5z m129
-3 c9 -5 29 -28 34 -38 l5 -11 1 -146 1 -146 -6 -6 c-6 -6 -6 -6 -20 -5 -15 2
-30 7 -40 17 -3 3 -7 5 -9 6 -4 1 -10 12 -10 18 0 7 7 18 16 28 5 6 12 15 15
21 l6 11 1 89 0 89 -6 22 c-5 16 -6 24 -5 31 2 19 8 26 17 20z m207 -6 c4 -3
5 -7 5 -12 0 -10 -6 -15 -21 -18 -7 -1 -20 -4 -29 -7 -17 -4 -18 -4 -21 -1 -2
2 -3 5 -3 7 0 3 9 11 12 11 1 0 7 3 13 8 28 18 36 20 44 12z m-814 -16 c10 -9
3 -26 -10 -26 -8 0 -15 7 -15 15 0 13 16 20 25 11z m327 -32 c12 -5 16 -12 16
-26 0 -9 -1 -11 -6 -16 -3 -3 -8 -6 -10 -6 -3 0 -7 -1 -8 -1 -8 -1 -19 7 -23
16 -5 13 -4 30 2 34 6 4 18 4 29 -1z m922 -63 c3 -3 4 -7 4 -14 0 -13 -6 -19
-19 -19 -13 0 -19 6 -19 19 0 7 1 11 4 14 7 8 23 8 30 0z m-151 0 c13 -8 14
-34 2 -44 -6 -6 -22 -8 -31 -5 -15 5 -20 35 -8 47 7 7 27 8 37 2z m-1140 -14
c6 -4 6 -6 6 -20 0 -20 -3 -23 -22 -25 -26 -3 -32 5 -27 31 3 15 8 19 25 19
11 0 14 -1 18 -5z m913 -8 l-5 -5 -4 4 -5 5 4 4 5 5 4 -4 5 -5 -4 -4z m-156
-9 c5 -6 5 -12 0 -18 -7 -8 -22 -2 -22 9 0 11 15 17 22 9z m-429 -13 c4 -2 13
-9 28 -22 14 -12 14 -34 0 -46 -16 -14 -18 -16 -24 -23 -3 -4 -8 -8 -11 -9 -3
-1 -6 -3 -6 -4 -1 -1 -2 -1 -2 1 0 3 -19 22 -46 47 -8 7 -14 18 -13 23 2 15 9
20 29 23 9 2 21 6 26 10 4 3 12 2 19 0z m240 -28 c12 -12 3 -31 -13 -31 -11 0
-18 7 -18 18 0 11 7 18 18 18 6 0 9 -1 13 -5z m-631 -2 c3 -2 4 -5 4 -11 0
-11 -4 -28 -7 -32 -7 -7 -32 -6 -40 2 -6 6 -6 32 1 38 7 8 31 9 42 3z m45 -75
c13 -3 16 -8 20 -33 2 -12 0 -21 -6 -24 -5 -2 -8 -2 -21 2 -9 2 -18 6 -21 8
-5 5 -10 19 -8 26 3 12 8 19 13 20 3 1 6 2 7 2 4 1 8 1 16 -1z m1211 -25 c13
-5 20 -20 16 -36 -3 -12 -10 -18 -23 -20 -9 -2 -61 -9 -63 -9 -3 0 -10 8 -10
13 0 9 6 25 12 32 16 18 50 28 68 20z m113 -34 c3 -3 3 -5 1 -14 -1 -5 -4 -13
-6 -17 -2 -4 -4 -8 -4 -9 0 -5 -11 -15 -16 -15 -2 0 -5 2 -7 5 -4 6 -1 17 12
37 11 16 14 19 20 13z m-1265 -4 c24 -2 28 -4 36 -20 4 -7 8 -13 8 -13 1 0 2
-1 2 -2 0 -2 7 -10 9 -10 2 0 16 -10 20 -15 7 -8 3 -20 -10 -31 -7 -6 -16 1
-25 21 -3 5 -6 9 -6 9 -1 0 -2 1 -1 2 1 1 0 2 -2 2 -2 0 -6 1 -8 1 -4 1 -17 2
-20 1 -1 0 -5 -3 -9 -6 -25 -22 -43 -12 -39 22 1 6 2 16 2 22 0 6 1 13 3 15 2
5 0 5 40 2z m-134 -3 c6 -3 11 -12 11 -21 0 -4 -6 -17 -12 -29 -14 -29 -23
-55 -25 -76 -2 -18 -6 -26 -12 -26 -12 0 -29 39 -29 68 0 16 5 29 16 45 2 3 5
8 6 10 17 32 25 37 45 29z m-184 -54 c1 0 5 -3 8 -6 5 -5 6 -7 6 -18 0 -11 -1
-13 -6 -18 -6 -6 -7 -6 -18 -6 -11 0 -12 0 -18 6 -5 5 -6 7 -6 17 0 14 3 20
12 24 5 2 8 2 22 1z m905 -18 c7 -6 7 -18 1 -23 -3 -3 -11 -6 -18 -8 -7 -3
-17 -7 -22 -10 -5 -3 -12 -7 -15 -9 -15 -8 -29 -2 -29 12 0 9 5 14 21 19 7 2
16 6 21 9 4 3 12 7 16 9 9 6 19 6 25 1z m-180 -6 c9 -7 21 -36 21 -50 0 -12
-15 -18 -27 -10 -24 15 -37 47 -24 59 6 7 22 7 30 1z m315 -47 c6 -7 6 -22 -1
-28 -6 -7 -21 -7 -28 -1 -7 7 -7 23 0 29 7 8 22 8 29 0z m-81 -23 c3 -4 6 -6
9 -6 4 0 4 0 1 -3 -4 -5 -4 -49 0 -60 4 -9 14 -21 18 -21 2 0 3 -1 3 -2 0 -1
1 -1 3 -2 1 0 7 0 13 -1 7 -1 16 0 28 2 34 7 43 4 45 -17 1 -25 10 -41 26 -49
28 -14 36 -21 62 -49 9 -9 11 -11 30 -14 9 -2 11 -1 19 3 4 2 8 5 8 5 0 1 1 2
2 2 4 0 12 9 19 20 10 16 13 18 24 18 9 0 11 0 17 -8 13 -15 14 -16 13 -17 -1
0 -1 -1 1 -1 1 0 2 -2 2 -6 -1 -4 -2 -5 -7 -5 -17 1 -37 -12 -47 -31 -8 -15
-9 -16 -13 -20 -2 -2 -5 -4 -6 -4 -3 0 -24 -9 -28 -12 -3 -3 -9 -12 -11 -18
-2 -8 0 -73 3 -82 4 -12 14 -21 26 -25 17 -6 86 0 123 10 28 7 36 15 39 35 1
8 0 12 -7 27 -4 10 -9 23 -11 28 -6 23 -15 37 -28 47 -7 6 -15 13 -16 17 -2 3
-6 9 -9 13 -3 4 -5 10 -6 13 0 6 0 6 6 6 4 0 11 1 16 2 23 3 34 0 38 -10 13
-33 19 -41 33 -49 8 -5 17 -7 43 -11 13 -2 17 -5 21 -18 5 -16 11 -23 23 -23
12 0 17 -3 18 -11 0 -7 0 -9 -14 -33 -31 -57 -38 -62 -106 -67 -38 -3 -405 -4
-430 -1 -20 2 -20 2 -26 9 l-5 6 -1 82 -1 82 -6 10 c-3 5 -7 10 -9 11 -11 6
-27 13 -36 15 -1 0 -3 1 -5 3 -3 1 -5 1 -5 1 0 -1 -1 -1 -2 1 -4 3 -22 3 -28
-1 -2 -2 -4 -3 -4 -2 0 1 -4 -1 -8 -5 -4 -3 -8 -6 -10 -6 -1 0 -1 -2 -1 -3 0
-2 -1 -6 -3 -9 -2 -3 -5 -10 -6 -16 -3 -16 -8 -20 -25 -20 -18 0 -24 5 -24 22
-1 17 1 21 15 29 7 3 14 7 17 10 3 3 7 5 8 5 2 0 3 1 2 1 0 1 0 4 1 7 4 10 4
16 -1 43 -1 3 -2 13 -2 21 -2 23 -2 28 -6 43 -6 26 3 41 26 42 13 1 24 -5 27
-15 1 -3 3 -15 3 -27 1 -51 12 -71 41 -76 11 -2 33 15 39 30 3 7 3 17 3 68
l-1 60 6 6 c5 5 7 6 18 6 12 0 13 0 16 -5z m434 -22 c11 -10 3 -28 -11 -28 -9
0 -16 6 -16 16 0 14 17 22 27 12z m-1258 -32 c11 -10 3 -28 -11 -28 -9 0 -16
6 -16 16 0 14 17 22 27 12z m-207 -57 c6 -5 8 -10 8 -27 1 -12 0 -15 -4 -19
-6 -7 -8 -7 -25 -2 -17 5 -20 8 -20 26 0 14 0 16 6 20 7 6 27 7 35 2z m397
-118 c4 -4 4 -16 0 -20 -7 -7 -21 0 -21 10 0 10 14 17 21 10z m534 -25 c4 -5
4 -6 -1 -11 -5 -6 -8 -6 -13 0 -3 5 -3 5 0 10 5 6 9 6 14 1z m-632 -23 c4 -5
4 -6 0 -12 -4 -8 -9 -8 -15 -1 -5 6 -5 8 -1 14 4 6 12 5 16 -1z m55 -52 c15
-8 14 -41 -1 -48 -9 -5 -24 -4 -36 1 -13 6 -32 6 -46 1 -5 -2 -12 -4 -15 -4
-3 0 -7 1 -9 1 -2 0 -6 3 -9 6 -5 5 -6 7 -6 18 0 9 1 13 4 17 6 8 28 12 34 7
1 -2 2 -2 2 -1 0 1 2 0 4 -2 7 -6 22 -5 40 4 12 6 27 6 38 0z m407 -2 c3 -3 3
-3 0 -6 -3 -3 -3 -3 -6 0 -3 2 -3 3 -1 6 4 4 4 4 7 0z m853 -82 c21 -9 20 -45
-2 -54 -6 -3 -19 -2 -26 0 -13 6 -18 21 -13 38 3 9 4 11 11 15 9 4 21 4 30 1z
m-1264 -31 c2 -1 7 -8 12 -16 4 -7 13 -19 20 -26 7 -6 12 -14 12 -16 0 -4 -5
-17 -9 -21 -4 -6 -6 -8 -11 -14 -5 -8 -16 -15 -21 -15 -10 2 -13 11 -8 20 4 7
4 31 0 38 -1 3 -7 7 -12 10 -12 6 -15 11 -15 23 0 13 6 19 19 19 5 0 11 -1 13
-2z m850 -42 c5 -6 5 -12 0 -18 -7 -8 -22 -2 -22 9 0 11 15 17 22 9z m233 0
c10 -9 3 -26 -10 -26 -8 0 -15 7 -15 15 0 13 16 20 25 11z m-332 -48 c7 -6 7
-19 1 -25 -6 -7 -19 -7 -25 -1 -7 6 -7 19 -1 25 6 7 19 7 25 1z m252 -23 c6
-4 6 -6 6 -20 0 -14 0 -16 -6 -20 -4 -4 -7 -5 -18 -5 -11 0 -14 1 -18 5 -6 4
-6 6 -6 20 0 14 0 16 6 20 4 4 7 5 18 5 11 0 14 -1 18 -5z m-515 -23 c5 -5 5
-11 0 -16 -10 -10 -27 5 -16 16 4 4 12 4 16 0z m419 -7 c3 -5 3 -5 0 -10 -2
-3 -5 -5 -7 -5 -2 0 -5 2 -7 5 -3 5 -3 5 0 10 2 3 5 5 7 5 2 0 5 -2 7 -5z
m-162 -52 c6 -4 6 -6 6 -20 0 -14 0 -16 -6 -20 -4 -4 -7 -5 -18 -5 -11 0 -14
1 -18 5 -6 4 -6 6 -6 20 0 14 0 16 6 20 4 4 7 5 18 5 11 0 14 -1 18 -5z"/>
<path d="M1450 3461 c-8 -7 -9 -11 -5 -24 4 -13 5 -14 23 -13 15 0 18 3 18 18
0 15 -5 21 -18 22 -5 0 -10 1 -10 1 -1 1 -4 -1 -8 -4z"/>
</g>
</svg>
