<?xml version="1.0" standalone="no"?>
<!DOCTYPE svg PUBLIC "-//W3C//DTD SVG 20010904//EN"
 "http://www.w3.org/TR/2001/REC-SVG-20010904/DTD/svg10.dtd">
<svg version="1.0" xmlns="http://www.w3.org/2000/svg"
 width="1102.000000pt" height="2850.000000pt" viewBox="0 0 1102.000000 2850.000000"
 preserveAspectRatio="xMidYMid meet">
<metadata>
Created by potrace 1.15, written by Peter Selinger 2001-2017
</metadata>
<g transform="translate(0.000000,2850.000000) scale(0.500000,-0.500000)"
fill="#000000" stroke="none">
<path d="M1486 3840 c-9 -4 -19 -18 -21 -28 -1 -3 -3 -12 -5 -21 -3 -9 -5 -17
-5 -19 -1 -2 -3 -10 -5 -18 -2 -8 -4 -17 -5 -19 -6 -30 -81 -281 -95 -320 -12
-30 -49 -40 -72 -18 -8 8 -8 15 0 27 7 10 23 24 27 24 3 0 18 13 21 18 4 5 7
14 9 26 1 4 4 18 8 30 4 13 7 28 7 34 0 9 -3 20 -6 22 0 1 -2 3 -3 5 -1 2 -7
7 -13 10 -6 4 -13 9 -16 12 l-6 5 4 13 c4 15 4 33 -1 40 -2 2 -6 8 -10 13 -5
9 -7 10 -16 11 -13 2 -22 0 -28 -6 -12 -12 -25 -15 -33 -6 -5 6 -5 14 1 26 4
6 5 12 6 19 0 19 -1 22 -18 32 -41 24 -98 48 -120 51 -6 1 -13 2 -16 2 -9 2
-32 8 -37 11 -9 5 -31 0 -40 -8 -4 -4 -14 -10 -22 -13 -18 -8 -29 -14 -32 -17
-10 -9 -14 -36 -6 -44 4 -5 32 -51 32 -54 0 -1 1 -2 2 -2 1 0 2 -2 3 -5 3 -14
33 -32 53 -33 29 -1 44 -8 44 -20 0 -7 -5 -13 -16 -16 -31 -11 -38 -27 -27
-62 5 -16 6 -19 8 -29 1 -2 3 -16 6 -31 3 -15 6 -30 7 -33 3 -9 2 -13 -3 -15
-6 -3 -2 -5 -92 29 -85 33 -101 38 -106 38 -7 -1 -15 -5 -16 -9 -3 -7 -3 -27
0 -31 6 -8 2 -28 -8 -39 -5 -5 -10 -23 -12 -34 0 -9 -2 -14 -6 -18 -3 -4 -5
-5 -5 -4 0 2 -6 8 -12 15 -14 13 -33 30 -90 85 -63 60 -65 62 -72 65 -4 2 -11
3 -17 3 -5 0 -11 0 -12 0 -4 0 -7 10 -7 21 0 13 -6 30 -13 37 -4 3 -12 9 -18
14 -17 11 -18 13 -16 33 4 35 2 42 -17 61 -14 14 -29 22 -41 22 -6 0 -26 -11
-36 -19 -4 -4 -9 -7 -11 -7 -2 0 -5 -1 -8 -3 -5 -2 -6 -2 -12 0 -12 5 -29 7
-48 4 -25 -3 -32 1 -32 18 0 16 4 19 29 20 31 1 41 6 41 23 0 17 -4 23 -18 30
-11 5 -23 5 -42 0 -7 -2 -19 -4 -24 -4 -11 0 -12 1 -32 24 -11 13 -27 21 -49
24 -14 3 -16 3 -30 -2 -26 -8 -37 -17 -43 -34 -6 -18 4 -40 27 -58 18 -15 18
-16 13 -53 -1 -12 0 -20 5 -39 4 -13 5 -17 6 -23 11 -54 16 -86 18 -124 1 -24
10 -44 20 -49 3 -1 6 -2 7 -1 0 0 2 0 4 -1 6 -3 17 -4 23 -2 5 2 5 2 2 7 -2 3
-3 7 -2 9 0 2 1 7 2 11 2 12 8 17 20 17 13 0 19 -6 19 -19 0 -9 -5 -19 -11
-19 -1 0 -5 -2 -9 -5 -6 -6 -6 -6 -6 -19 1 -8 3 -15 4 -17 6 -5 26 -11 45 -13
30 -3 31 -3 41 -15 4 -5 4 -8 -1 -19 -3 -5 -5 -11 -6 -14 -1 -8 -7 -13 -13
-13 -11 1 -42 12 -50 17 -5 3 -15 12 -22 20 -6 7 -16 16 -20 18 l-9 5 -105 1
c-122 0 -123 0 -132 -17 -7 -13 -7 -19 3 -49 12 -35 17 -44 33 -51 l11 -6 135
0 c133 0 146 0 146 3 0 1 1 2 3 2 4 0 21 18 21 22 0 2 3 6 6 10 5 5 7 6 13 5
28 -6 30 -30 9 -95 -15 -44 -15 -47 -6 -76 5 -16 4 -40 -2 -62 -3 -10 -8 -15
-19 -18 -13 -4 -33 -14 -34 -17 -1 -2 -2 -3 -4 -3 -3 0 -7 -10 -9 -25 -2 -15
-4 -19 -13 -24 -5 -4 -10 -12 -25 -40 -19 -38 -30 -60 -49 -92 -6 -11 -14 -24
-17 -29 -2 -5 -6 -10 -7 -12 -2 -2 -3 -4 -3 -5 0 -2 -68 -106 -70 -107 -1 0
-2 -2 -2 -3 0 -1 -1 -3 -2 -3 0 -1 -6 -7 -11 -15 -10 -15 -39 -52 -46 -61 -2
-3 -6 -8 -9 -12 -3 -4 -6 -8 -7 -9 -1 -1 -6 -7 -10 -12 -4 -6 -8 -10 -9 -11
-1 -1 -5 -6 -11 -13 -5 -7 -10 -12 -11 -13 -1 -1 -10 -10 -20 -22 -10 -12 -20
-22 -22 -23 -4 -1 -4 -4 -4 -25 0 -13 1 -24 2 -24 1 0 7 -4 13 -9 23 -20 36
-17 86 14 11 7 21 12 27 16 25 13 118 78 135 94 14 13 32 14 36 2 4 -10 -5
-47 -16 -66 -15 -27 -14 -22 -15 -83 0 -58 0 -61 11 -84 4 -10 6 -31 2 -36 -2
-2 -5 -10 -8 -18 l-5 -14 0 -187 c0 -166 0 -187 3 -194 4 -9 14 -21 18 -21 2
0 3 -1 3 -2 0 -2 1 -2 42 -3 32 -1 50 0 83 4 4 1 19 4 32 7 70 17 133 55 147
89 5 12 5 13 6 96 0 82 0 85 -4 93 -4 8 -9 12 -16 13 -1 0 -7 2 -11 3 -5 1 -9
1 -9 0 0 -3 -15 -4 -23 -2 -14 3 -21 17 -17 34 2 11 7 15 21 19 25 7 43 18 49
32 10 20 10 24 10 79 0 56 -1 61 -11 72 -4 5 -25 16 -30 16 -2 0 -5 2 -8 5
-10 10 -4 35 8 35 4 0 23 10 29 15 9 8 11 15 12 43 1 23 2 28 5 33 2 3 5 7 5
9 1 2 2 2 2 -1 0 -4 27 -25 32 -25 1 0 2 -1 2 -1 0 -3 30 -16 48 -20 15 -4 46
-4 61 0 13 4 45 18 45 21 0 3 5 -1 19 -15 7 -7 13 -13 15 -13 1 0 2 -1 2 -2 0
-2 10 -3 57 -3 71 0 124 10 165 30 8 4 15 7 16 7 3 0 29 20 34 26 10 14 14 24
15 37 0 4 2 8 6 12 6 6 7 6 24 6 17 0 18 0 24 -6 l6 -6 -1 -22 c-1 -32 2 -39
17 -58 15 -20 16 -24 6 -37 -6 -8 -11 -11 -21 -15 l-14 -5 -212 0 c-203 0
-213 0 -221 -4 -11 -4 -16 -11 -19 -24 -2 -9 -2 -11 5 -35 11 -40 20 -52 42
-59 8 -3 37 -2 41 1 2 2 2 1 1 -1 -1 -1 1 -1 4 1 3 2 5 3 4 2 -1 -2 0 -3 4 -3
4 0 5 1 4 3 -1 1 1 0 4 -2 3 -2 5 -2 4 -1 -1 2 -1 3 1 1 3 -2 41 -3 171 -2
l168 0 6 -6 6 -6 -1 -218 c0 -233 0 -229 10 -243 2 -3 8 -7 13 -10 10 -5 11
-5 58 -5 78 0 129 10 184 37 31 15 31 15 31 33 0 13 -1 15 -7 23 -20 27 -26
64 -8 56 5 -3 11 -12 11 -17 0 -2 1 -3 1 -2 1 1 8 2 18 1 l16 0 3 8 c2 7 2 46
2 173 l-1 164 6 6 6 6 142 -1 c98 0 145 0 152 2 9 2 34 16 28 16 0 0 3 4 7 9
8 8 10 9 17 9 8 0 9 -1 21 -14 7 -8 13 -14 14 -13 0 0 3 -1 6 -3 24 -13 80 19
83 48 2 19 -9 24 -48 21 -13 -1 -15 -1 -20 4 -6 4 -6 6 -6 18 0 8 1 20 2 27 3
24 -1 29 -44 66 -4 4 -8 8 -9 8 -1 1 -6 6 -12 11 -16 14 -17 16 -13 25 2 4 6
9 9 10 11 6 16 28 12 44 -3 11 -3 23 0 27 2 2 4 5 5 7 1 2 5 8 9 14 4 6 8 14
9 18 4 9 4 158 1 168 -5 13 -20 24 -38 27 -11 2 -16 6 -18 15 -4 16 -10 32
-14 37 -2 2 -5 5 -6 6 -9 11 -13 20 -13 30 0 9 4 20 9 25 6 6 12 28 12 46 0
10 1 13 5 17 5 5 6 5 18 5 14 -2 31 2 37 7 8 7 10 15 10 47 0 28 -1 32 -5 45
-11 29 -11 35 -1 61 6 16 12 23 31 32 18 9 41 28 46 38 4 8 4 23 -1 32 -2 5
-10 12 -19 19 -9 7 -18 14 -20 16 -3 2 -12 6 -20 9 -8 2 -16 5 -16 6 -1 1 -3
2 -5 2 -3 0 -14 16 -17 25 -1 2 -6 8 -12 12 -10 7 -27 20 -39 30 -2 1 -6 4
-10 7 -4 3 -9 6 -11 8 -5 5 -16 12 -32 22 -13 7 -20 13 -29 24 -2 4 -6 5 -16
5 -16 2 -22 6 -17 15 1 3 15 17 29 32 29 29 31 31 59 37 38 9 73 39 73 65 1
21 -9 30 -47 44 -25 10 -35 11 -53 6 -7 -2 -17 -4 -23 -4 -11 0 -16 5 -33 28
-11 16 -18 19 -77 42 -26 10 -54 21 -61 23 -7 3 -19 8 -26 10 -7 3 -17 7 -22
9 -12 5 -23 5 -34 0z m200 -164 c1 0 5 -3 8 -6 5 -5 6 -7 6 -18 0 -11 -1 -13
-6 -18 -6 -6 -7 -6 -18 -6 -11 0 -12 0 -18 6 -5 5 -6 7 -6 17 0 14 3 20 12 24
5 2 8 2 22 1z m-1241 -29 c3 -3 3 -3 0 -6 -3 -3 -3 -3 -6 0 -3 2 -3 3 -1 6 4
4 4 4 7 0z m1132 -1 c10 -9 3 -26 -10 -26 -8 0 -15 7 -15 15 0 13 16 20 25 11z
m-1072 -90 c4 -6 4 -24 -1 -30 -7 -9 -27 -9 -34 0 -5 6 -5 24 0 30 7 9 27 9
35 0z m-107 -2 c5 -5 5 -11 0 -16 -10 -10 -27 5 -16 16 4 4 12 4 16 0z m1294
-29 c3 -1 5 -2 5 -3 -1 -1 -1 -2 0 -2 1 0 2 -4 1 -9 0 -7 0 -10 3 -12 5 -4 21
-11 25 -11 8 0 11 -9 15 -37 1 -10 -5 -17 -18 -17 -26 -1 -38 2 -50 14 -8 8
-15 10 -27 10 -15 0 -16 -1 -35 -24 -18 -22 -26 -28 -41 -31 -6 -1 -9 0 -16 4
-5 4 -7 6 -5 7 3 1 15 11 31 25 5 4 18 15 28 24 10 9 23 20 29 26 36 35 41 38
55 36z m-1222 -55 c5 -5 5 -14 0 -19 -9 -10 -24 -4 -24 9 0 8 6 14 14 14 3 0
8 -2 10 -4z m427 -42 c11 -10 2 -48 -11 -48 -12 0 -13 33 0 47 6 6 6 6 11 1z
m894 -6 c1 -1 6 -8 10 -16 6 -13 7 -13 3 -16 -6 -5 -12 -7 -24 -6 -14 0 -19 4
-22 14 -4 14 -4 19 1 24 5 4 7 4 17 3 6 -1 13 -2 15 -3z m-1273 -12 c5 -6 5
-8 1 -14 -4 -5 -10 -5 -18 1 -6 5 -6 9 3 14 7 4 9 4 14 -1z m1361 -35 c2 -7 0
-26 -4 -33 -4 -7 -13 -11 -25 -11 -15 1 -21 5 -27 21 -3 8 -6 16 -7 17 -5 7 5
15 21 17 18 3 28 4 29 5 1 2 12 -11 13 -16z m-486 -44 c12 -12 3 -31 -13 -31
-11 0 -18 7 -18 18 0 11 7 18 18 18 6 0 9 -1 13 -5z m-487 -19 c5 -5 6 -7 6
-17 0 -10 -1 -12 -6 -17 -5 -5 -7 -6 -17 -6 -10 0 -12 1 -17 6 -5 5 -6 7 -6
17 0 10 1 12 6 17 5 5 7 6 17 6 10 0 12 -1 17 -6z m124 -2 c5 -5 6 -7 6 -17 0
-10 -1 -12 -6 -17 -5 -5 -7 -6 -17 -6 -10 0 -12 1 -17 6 -5 5 -6 7 -6 17 0 10
1 12 6 17 5 5 7 6 17 6 10 0 12 -1 17 -6z m751 -22 c7 -6 7 -19 1 -25 -6 -7
-19 -7 -25 -1 -7 6 -7 19 -1 25 6 7 19 7 25 1z m-602 -15 l6 -6 0 -90 0 -90
-6 -6 c-6 -6 -7 -6 -24 -6 -17 0 -18 0 -24 6 l-6 6 1 25 c0 21 -1 28 -5 44 -5
21 -5 29 1 52 3 12 4 20 4 37 l-1 22 6 6 c6 6 7 6 24 6 17 0 18 0 24 -6z m383
2 c4 -4 26 -6 38 -3 5 2 7 2 8 0 2 -2 2 -2 2 0 0 9 23 11 31 3 7 -7 7 -23 0
-30 -8 -8 -31 -6 -31 3 0 2 -1 2 -2 1 0 -2 -6 -3 -13 -3 -9 1 -12 0 -14 -3 -1
-1 -3 -2 -3 -2 -1 1 -3 -3 -5 -7 -3 -8 -3 -18 -3 -78 l1 -69 -6 -6 c-6 -6 -7
-6 -22 -6 -15 0 -16 0 -22 6 l-6 6 0 90 0 90 6 6 c6 6 7 6 22 6 13 0 17 -1 19
-4z m-748 -115 c1 -43 2 -48 6 -60 6 -16 6 -30 0 -46 -4 -11 -5 -18 -5 -41 -1
-37 1 -42 20 -63 11 -12 15 -17 16 -23 2 -14 -2 -23 -13 -34 l-10 -9 0 -16 1
-15 8 -5 c11 -5 16 -12 13 -18 -6 -11 -25 -16 -39 -10 -3 1 -6 2 -6 2 0 0 -5
5 -12 11 -19 18 -58 49 -71 55 -3 2 -6 4 -8 5 -3 3 -56 30 -70 36 -12 5 -16 8
-17 16 -1 6 0 9 8 20 5 8 10 14 11 15 1 1 12 17 25 37 26 39 28 44 32 75 1 9
6 15 19 24 15 11 19 16 20 27 1 5 0 9 -1 9 -1 0 -1 1 0 2 2 3 -7 12 -19 20
-11 7 -14 13 -11 22 3 8 11 9 24 5 17 -5 36 -3 49 7 3 2 8 5 12 6 6 3 7 3 12
-2 l6 -4 0 -48z m-251 27 c5 -8 1 -16 -8 -16 -9 0 -13 8 -8 16 2 3 5 5 8 5 3
0 6 -2 8 -5z m788 -22 c3 -3 5 -7 5 -9 0 -3 1 -8 1 -12 0 -7 -4 -24 -9 -34 -3
-7 -14 -13 -25 -13 -32 -1 -41 36 -14 62 13 12 33 15 42 6z m-350 -26 c5 -8 1
-16 -8 -16 -9 0 -13 8 -8 16 2 3 5 5 8 5 3 0 6 -2 8 -5z m-436 -43 c7 -3 12
-13 12 -25 0 -19 -9 -28 -28 -28 -19 0 -28 9 -28 28 0 24 19 34 44 25z m372
-8 c7 -6 7 -19 1 -25 -6 -7 -19 -7 -25 -1 -7 6 -7 19 -1 25 6 7 19 7 25 1z
m769 -52 c6 -6 9 -16 9 -36 0 -28 -6 -35 -27 -35 -19 0 -27 8 -27 27 1 28 31
58 45 44z m-484 -16 c1 0 5 -3 8 -6 5 -5 6 -7 6 -18 0 -15 -4 -19 -20 -27 -9
-4 -12 -6 -10 -8 3 -2 3 -27 0 -27 -5 0 1 -5 10 -10 14 -6 16 -10 16 -21 0
-11 -1 -12 -21 -25 -14 -8 -17 -10 -21 -20 l-6 -11 0 -42 1 -42 -6 -6 c-6 -6
-7 -6 -24 -6 -17 0 -18 0 -24 6 l-6 6 0 89 0 89 6 6 c5 5 7 6 15 5 8 0 26 5
26 8 0 1 2 2 5 2 9 0 11 1 10 3 -1 2 -2 3 -3 2 -1 0 -1 3 0 9 1 5 2 14 3 20 2
13 5 19 13 23 5 2 8 2 22 1z m-828 -22 c9 -9 2 -24 -10 -24 -7 0 -13 5 -16 14
-1 6 -1 7 4 10 7 5 17 5 22 0z m1171 -51 l6 -6 -1 -27 c0 -15 0 -63 -1 -108 0
-45 -1 -83 -2 -86 -2 -9 -9 -14 -18 -14 -13 0 -20 10 -27 35 -5 15 -5 21 -6
108 l-1 92 6 6 c6 6 7 6 22 6 15 0 16 0 22 -6z m132 -75 c6 -2 18 -8 28 -13
20 -10 24 -14 24 -30 0 -19 -9 -28 -28 -28 -14 0 -17 3 -37 23 -19 19 -22 25
-22 35 0 16 14 21 35 13z m-1350 -26 c10 -9 3 -26 -10 -26 -8 0 -15 7 -15 15
0 13 16 20 25 11z m684 -4 c4 -5 4 -4 0 -41 -1 -11 3 -28 8 -36 2 -2 3 -9 3
-16 0 -10 -1 -12 -6 -17 -6 -6 -7 -6 -18 -6 -11 0 -12 0 -18 6 -5 5 -6 7 -6
17 0 6 1 14 3 17 5 9 3 39 -2 47 -4 7 -4 23 1 29 7 9 27 9 35 0z m-453 -78 c5
-6 5 -12 0 -18 -7 -8 -22 -2 -22 9 0 11 15 17 22 9z m1249 -38 c11 -10 3 -28
-11 -28 -9 0 -16 6 -16 16 0 14 17 22 27 12z m-1084 -10 c4 -6 4 -24 -1 -30
-7 -9 -27 -9 -34 0 -5 6 -5 24 0 30 7 9 27 9 35 0z m537 -37 l-5 -5 -4 4 -5 5
4 4 5 5 4 -4 5 -5 -4 -4z m-900 -25 c5 -5 6 -7 6 -17 0 -10 -1 -12 -6 -17 -5
-5 -7 -6 -17 -6 -10 0 -12 1 -17 6 -5 5 -6 7 -6 17 0 10 1 12 6 17 5 5 7 6 17
6 10 0 12 -1 17 -6z m912 -27 c3 -2 7 -7 10 -11 3 -4 10 -12 16 -17 14 -14 18
-20 18 -30 0 -10 -7 -17 -17 -17 -9 0 -14 3 -30 18 -7 7 -16 16 -21 21 -9 8
-10 9 -10 19 0 14 6 20 19 20 5 0 12 -1 15 -3z m273 -4 c6 -6 6 -7 5 -20 0 -9
1 -16 3 -22 4 -9 14 -21 18 -21 2 0 3 -1 3 -2 0 -1 1 -1 3 -2 1 0 10 -1 20 -2
17 -1 27 -4 27 -8 0 -1 2 -2 4 -3 2 0 2 -1 0 -1 -2 0 -11 -12 -21 -26 -24 -34
-25 -35 -68 -36 l-32 -1 -6 6 -6 6 0 63 0 63 6 6 c6 6 7 6 22 6 15 0 16 0 22
-6z m-1100 -96 c5 -8 1 -16 -8 -16 -9 0 -13 8 -8 16 2 3 5 5 8 5 3 0 6 -2 8
-5z m371 -98 c6 -7 6 -22 0 -28 -4 -4 -7 -5 -15 -5 -8 0 -11 1 -15 5 -6 6 -6
21 0 28 7 8 23 8 30 0z m598 -41 c1 0 5 -3 8 -6 5 -5 6 -7 6 -18 0 -11 -1 -13
-6 -18 -6 -6 -7 -6 -18 -6 -11 0 -12 0 -18 6 -5 5 -6 7 -6 17 0 14 3 20 12 24
5 2 8 2 22 1z m-1070 -32 c2 -5 3 -10 5 -25 1 -4 3 -13 5 -19 9 -27 0 -44 -22
-44 -12 0 -19 17 -13 34 6 17 13 39 13 42 0 3 6 16 8 16 1 0 2 -2 4 -4z m1086
-84 c1 0 5 -3 8 -6 5 -5 6 -7 6 -18 0 -11 -1 -13 -6 -18 -5 -5 -7 -6 -18 -6
-11 0 -13 1 -18 6 -5 5 -6 7 -6 17 0 14 3 20 12 24 5 2 8 2 22 1z m-89 -35 c3
-3 3 -3 0 -6 -3 -3 -3 -3 -6 0 -3 2 -3 3 -1 6 4 4 4 4 7 0z m64 -62 c3 -5 3
-5 0 -10 -2 -3 -5 -5 -7 -5 -2 0 -5 2 -7 5 -3 5 -3 5 0 10 2 3 5 5 7 5 2 0 5
-2 7 -5z m-133 -82 c21 -9 20 -45 -2 -54 -10 -5 -28 -1 -34 6 -9 10 -9 32 0
42 7 8 24 11 36 6z m-815 -75 c11 -10 3 -28 -11 -28 -9 0 -16 6 -16 16 0 14
17 22 27 12z m864 -32 c7 -3 12 -13 12 -25 0 -19 -9 -28 -28 -28 -19 0 -28 9
-28 28 0 24 19 34 44 25z"/>
<path d="M1855 3024 c0 -13 0 -14 1 -6 1 5 2 7 2 5 0 -5 1 -5 14 -5 13 0 14 0
13 4 0 2 0 4 2 4 1 0 1 1 0 1 0 1 -8 1 -16 1 l-15 0 -1 5 c0 3 0 -1 0 -9z"/>
</g>
</svg>
