<?xml version="1.0" standalone="no"?>
<!DOCTYPE svg PUBLIC "-//W3C//DTD SVG 20010904//EN"
 "http://www.w3.org/TR/2001/REC-SVG-20010904/DTD/svg10.dtd">
<svg version="1.0" xmlns="http://www.w3.org/2000/svg"
 width="1100.000000pt" height="2850.000000pt" viewBox="0 0 1100.000000 2850.000000"
 preserveAspectRatio="xMidYMid meet">
<metadata>
Created by potrace 1.15, written by Peter Selinger 2001-2017
</metadata>
<g transform="translate(0.000000,2850.000000) scale(0.500000,-0.500000)"
fill="#000000" stroke="none">
<path d="M1356 3817 c-10 -4 -17 -18 -19 -35 -2 -22 -17 -27 -40 -13 -16 9
-35 11 -44 4 -12 -9 -14 -35 -5 -45 2 -3 5 -7 5 -10 3 -12 -4 -34 -17 -50 -3
-4 -6 -8 -6 -9 0 0 -2 -3 -4 -6 -3 -2 -7 -7 -10 -10 -3 -3 -9 -9 -13 -12 -4
-3 -8 -6 -9 -7 -1 -1 -7 -3 -15 -6 -12 -4 -20 -5 -54 -6 -29 -1 -43 -2 -51 -5
-15 -5 -30 -4 -51 1 -32 8 -52 3 -72 -17 -13 -14 -17 -16 -33 -15 -21 1 -32 0
-35 -2 -2 -1 -3 -2 -3 -1 0 3 -9 -4 -14 -12 -3 -4 -9 -10 -13 -11 -6 -4 -6 -4
-10 0 -3 3 -4 5 -4 6 1 1 1 9 1 17 0 20 -3 27 -15 33 -9 5 -13 5 -48 6 -44 1
-46 2 -65 20 -20 18 -31 26 -40 29 -2 1 -4 2 -4 3 0 1 -1 2 -3 2 -4 0 -11 9
-22 26 -5 8 -16 21 -24 28 -7 7 -18 18 -24 23 -19 18 -20 19 -36 19 -13 0 -14
0 -22 -9 -4 -4 -12 -15 -18 -24 -5 -9 -11 -17 -12 -18 -3 -5 1 -25 7 -32 8 -9
13 -9 37 -1 29 10 36 8 40 -12 2 -10 -1 -22 -5 -22 -1 0 -2 -1 -1 -2 1 -1 -1
-1 -4 1 -8 5 -20 5 -39 -1 -21 -7 -25 -7 -37 -1 -9 5 -12 5 -26 5 -17 -1 -18
-2 -20 -16 -1 -6 0 -14 3 -26 4 -14 4 -19 2 -23 -2 -5 -12 -9 -23 -9 -17 0
-28 -4 -47 -17 -23 -15 -27 -17 -37 -16 -12 1 -18 4 -26 13 -19 21 -18 20 -31
20 -18 0 -30 -9 -31 -23 0 -3 -1 -5 -1 -5 -1 0 -3 -1 -5 -3 -3 -3 -4 -2 -3 4
0 0 -1 1 -3 1 -1 0 -3 1 -4 3 -1 4 -28 3 -39 -2 -22 -10 -32 -8 -48 9 -7 9
-14 14 -23 18 l-12 6 -48 0 c-53 0 -59 -1 -68 -13 -10 -12 -10 -22 -2 -50 12
-41 19 -51 40 -50 5 0 15 2 22 5 13 4 19 3 35 -5 19 -9 28 -10 46 -5 17 5 33
5 39 0 6 -6 7 -16 7 -92 0 -58 1 -78 3 -91 4 -20 4 -32 0 -53 -3 -13 -3 -30
-3 -89 l1 -74 -6 -6 -6 -6 -67 1 c-74 0 -79 -1 -89 -12 -10 -12 -10 -22 -2
-51 9 -31 15 -44 26 -51 14 -10 20 -10 78 -10 l54 1 6 -5 c6 -6 7 -7 8 -27 1
-15 7 -34 14 -43 16 -19 15 -26 -3 -48 -15 -18 -15 -16 -12 -216 1 -29 -3 -78
-5 -80 -2 -1 -3 -3 -3 -5 0 -2 -8 -9 -10 -9 -3 0 -20 -18 -23 -24 -3 -6 -4
-11 -7 -36 -4 -28 -10 -31 -54 -22 -22 4 -30 8 -32 16 -9 30 -11 33 -16 38 -7
7 -22 11 -28 9 -14 -4 -24 -18 -24 -34 0 -11 45 -124 52 -129 10 -8 20 -32 23
-57 2 -13 22 -63 30 -72 6 -8 14 -12 31 -18 15 -5 20 -10 20 -19 0 -5 -2 -12
-4 -16 -4 -8 -5 -23 -3 -32 2 -6 7 -10 17 -11 16 -2 49 18 65 40 15 20 24 27
51 44 70 44 118 75 179 116 29 19 43 31 43 36 0 2 1 3 2 3 1 0 2 1 2 3 0 1 2
5 3 9 6 11 7 23 5 46 -2 20 -2 21 2 25 10 11 25 4 27 -13 1 -16 6 -24 14 -25
20 -4 29 6 31 34 1 24 10 30 32 22 13 -5 35 -5 42 0 18 14 25 9 33 -21 10 -36
27 -49 62 -48 14 1 18 2 35 11 21 10 28 11 39 6 7 -3 25 -23 30 -32 1 -2 6 -8
11 -13 28 -30 57 -68 73 -98 3 -6 7 -13 9 -16 2 -3 5 -9 8 -14 6 -13 17 -24
31 -33 12 -7 24 -10 59 -14 18 -2 27 -16 22 -35 -3 -15 -18 -23 -33 -18 -8 2
-27 -3 -33 -9 -8 -8 -8 -17 -1 -31 8 -17 20 -26 53 -41 24 -10 44 -14 72 -14
30 0 41 7 61 36 5 8 12 13 19 13 4 0 21 7 32 12 l8 4 0 17 c0 21 3 27 17 27
11 0 17 -6 17 -17 0 -8 -1 -9 -12 -19 -7 -6 -12 -12 -12 -14 0 -1 -1 -2 -2 -1
-1 1 -2 -1 -1 -4 7 -29 9 -32 31 -31 12 1 17 2 23 7 17 10 33 5 33 -12 0 -9
-6 -17 -13 -17 -5 0 -23 -8 -28 -12 -8 -7 -12 -22 -9 -34 1 -6 3 -21 4 -32 4
-29 8 -38 26 -49 26 -16 52 -19 97 -12 41 6 45 7 51 12 3 3 7 5 9 4 2 0 2 0 2
2 -1 1 0 1 3 0 8 -2 19 12 20 25 1 5 0 9 0 9 -1 -1 -2 0 -2 1 0 3 -19 1 -24
-3 -6 -4 -9 -3 -29 3 -8 2 -19 4 -26 5 -19 2 -22 2 -27 5 -13 5 -18 21 -12 40
6 16 8 34 6 47 -2 14 0 26 6 31 8 9 32 9 40 0 6 -5 9 -19 6 -29 -2 -4 -3 -9
-3 -11 -3 -11 -3 -26 0 -33 2 -4 4 -7 5 -7 1 0 3 -1 4 -3 2 -1 8 -5 14 -8 6
-3 13 -7 15 -9 8 -7 36 -2 49 8 14 11 30 9 56 -8 9 -6 12 -7 22 -7 18 0 27 7
49 36 15 20 19 29 20 52 1 19 6 33 16 48 5 6 4 21 -1 28 -5 6 -29 18 -33 16
-4 -1 -14 4 -26 16 -7 6 -16 13 -20 15 -18 10 -25 26 -14 36 6 6 15 5 32 -3
30 -14 31 -14 46 -9 11 4 13 6 16 12 4 11 4 20 -2 32 -6 15 -9 27 -7 28 1 0 0
2 -3 5 -8 5 -34 6 -40 1 -3 -4 -6 -5 -19 -4 -14 0 -22 14 -23 44 -1 15 -1 17
3 21 3 3 7 5 11 5 3 0 10 1 14 2 4 1 10 3 12 3 6 1 16 6 34 17 40 22 38 22 72
19 16 -1 25 2 37 13 7 5 10 10 12 16 2 9 2 29 -1 41 -1 5 4 13 10 13 2 0 8 -8
8 -12 0 -2 1 -6 3 -9 1 -3 2 -7 3 -9 2 -15 25 -43 43 -51 l13 -7 33 0 c38 0
54 3 71 12 23 11 41 33 41 50 0 20 -19 43 -42 50 -28 8 -56 10 -73 6 -17 -5
-21 -5 -26 0 -11 10 -6 20 18 37 14 10 52 51 57 62 3 4 5 8 6 9 3 3 13 28 16
42 3 15 3 15 -2 25 -2 5 -6 10 -8 10 -2 1 -4 2 -4 3 0 2 -18 7 -26 7 -14 1
-16 1 -21 6 -7 5 -10 18 -7 29 1 6 5 11 15 21 l13 12 0 14 0 14 -18 18 c-11
10 -23 21 -28 24 -5 3 -10 7 -11 8 -2 1 -7 5 -13 8 -25 14 -26 21 -7 30 23 11
37 24 44 42 1 4 2 59 3 175 l1 169 5 7 c3 4 8 9 12 11 3 2 10 7 13 12 l7 8 -1
17 c-1 9 -1 27 -2 39 0 25 -4 36 -15 43 -4 2 -12 8 -19 12 -7 5 -14 9 -16 10
-6 1 -26 1 -40 -1 -10 -1 -12 -1 -16 3 -3 3 -5 7 -5 11 0 8 -7 34 -11 40 -2 3
-8 9 -15 13 -6 5 -11 9 -12 10 -1 1 -6 5 -12 9 -11 8 -16 16 -16 28 0 9 9 17
18 17 8 0 13 -4 24 -20 16 -23 15 -23 69 -23 36 0 46 1 55 3 30 10 56 37 56
59 0 14 -8 27 -27 45 -10 9 -18 16 -19 16 -8 0 -40 30 -50 46 -3 5 -23 5 -33
0 -5 -2 -9 -5 -9 -6 0 -4 -14 -10 -22 -10 -9 0 -19 4 -24 8 -6 6 -21 12 -37
14 -11 2 -17 4 -19 7 -8 8 -3 19 10 22 25 4 36 13 37 29 0 7 -1 11 -2 12 -2 1
-3 4 -3 5 0 4 -13 18 -29 30 -13 10 -15 11 -26 11 -19 0 -26 -5 -40 -33 -5
-10 -10 -19 -11 -20 -6 -3 -1 -34 6 -41 11 -11 12 -19 4 -27 -7 -8 -19 -11
-37 -11 -16 0 -35 -4 -40 -8 -6 -7 -7 -22 -2 -40 3 -9 3 -10 0 -15 -2 -3 -5
-5 -7 -5 -3 0 -12 6 -21 15 -5 5 -11 9 -13 10 -2 1 -4 2 -4 3 0 2 -9 3 -27 3
-15 0 -16 0 -22 6 -5 5 -6 7 -5 16 0 5 -1 13 -2 18 -3 9 -14 23 -19 23 -2 0
-3 1 -3 2 0 1 -2 2 -4 3 -2 0 -5 3 -7 6 -3 5 -3 5 0 8 3 3 5 3 19 1 22 -4 26
-3 38 3 21 11 46 42 49 61 0 2 1 4 1 5 2 2 -2 19 -6 26 -5 8 -22 17 -33 18
-15 1 -41 3 -46 4 -9 2 -34 -7 -39 -13 -1 -1 -5 -4 -10 -8 -8 -5 -10 -6 -22
-6 l-13 0 -13 14 c-22 22 -34 27 -50 19z m35 -172 c6 -4 6 -6 6 -20 0 -14 0
-16 -6 -20 -4 -4 -7 -5 -18 -5 -11 0 -14 1 -18 5 -6 4 -6 6 -6 20 0 14 0 16 6
20 4 4 7 5 18 5 11 0 14 -1 18 -5z m-783 -11 c2 0 4 -1 4 -2 0 0 3 -2 7 -4 9
-4 15 -9 22 -20 4 -5 11 -13 17 -18 15 -13 17 -18 20 -42 1 -12 4 -27 5 -35 2
-7 3 -14 2 -15 -2 -3 7 -26 11 -31 5 -5 18 -11 27 -11 16 0 45 10 53 18 3 3 4
3 4 1 0 -2 1 -3 2 -3 1 0 3 -3 5 -6 2 -5 3 -14 3 -47 0 -46 0 -47 14 -74 4 -8
8 -17 8 -19 0 -2 2 -8 4 -13 2 -4 5 -11 6 -14 1 -4 5 -9 8 -13 8 -9 12 -17 12
-26 0 -12 -2 -15 -21 -24 -17 -8 -24 -15 -29 -28 -3 -10 -3 -164 1 -173 3 -7
8 -12 15 -14 17 -4 22 -4 24 -3 7 8 36 -2 48 -16 l8 -9 -1 -13 c-2 -19 -10
-45 -16 -50 -5 -3 -5 -5 -5 -19 0 -14 1 -17 5 -22 3 -3 7 -5 9 -5 2 0 6 -2 9
-5 6 -4 6 -6 6 -20 0 -14 0 -16 -6 -20 -4 -4 -7 -5 -18 -5 -12 0 -17 2 -26 11
-14 13 -15 14 -28 13 -12 0 -13 -1 -18 -7 -6 -8 -9 -18 -9 -31 0 -17 9 -36 17
-36 3 0 3 -1 -1 -3 -3 -1 -5 -3 -6 -3 -2 -3 -20 -6 -38 -6 -17 0 -32 -3 -38
-7 0 0 0 -8 0 -17 0 -21 0 -22 35 -24 19 -1 20 -1 23 -6 2 -5 3 -7 0 -9 -1 -2
-3 -6 -3 -7 -1 -2 -3 -4 -4 -5 -2 0 -3 -3 -3 -5 0 -3 -1 -4 -2 -3 -2 1 -2 1 0
-1 3 -3 3 -17 0 -19 -2 -1 -1 -3 3 -6 4 -4 7 -5 19 -5 14 0 16 -1 39 -12 16
-8 30 -17 37 -23 11 -10 24 -19 24 -16 0 1 2 0 4 -1 3 -2 15 -4 26 -4 13 0 20
-26 9 -37 -9 -9 -27 -7 -38 4 -6 5 -16 11 -27 13 -18 4 -52 -1 -52 -8 0 -4 -8
-2 -10 3 -2 3 -3 5 -4 5 -4 0 -10 -11 -9 -15 3 -7 10 -14 14 -14 1 0 3 0 2 -1
-1 -1 0 -2 0 -2 1 -1 8 -13 15 -27 7 -14 13 -26 14 -26 4 -2 -7 -11 -14 -12
-4 -1 -17 -4 -29 -7 -25 -6 -25 -6 -37 -2 -10 2 -20 10 -20 15 0 2 -1 3 -2 3
-2 0 -2 0 -1 2 2 0 4 8 6 16 1 8 4 17 5 20 2 7 1 27 -3 34 -5 10 -24 21 -37
20 -12 0 -25 -10 -31 -22 -5 -10 -20 -18 -24 -12 -3 5 -41 7 -51 3 -8 -4 -58
8 -58 13 0 1 -1 2 -3 2 -2 0 -3 1 -3 2 0 1 -1 2 -2 1 -1 -1 -2 0 -3 1 -1 2 -4
3 -14 2 -11 -1 -13 -1 -13 2 -1 4 -4 -11 -6 -26 -2 -17 -7 -22 -23 -22 -9 0
-12 1 -19 7 -5 3 -11 8 -14 10 -6 5 -28 10 -40 11 -7 0 -7 0 -31 26 -13 14
-19 18 -43 25 -13 4 -25 9 -28 12 l-4 4 1 35 c1 27 2 36 5 41 3 6 4 6 17 3 17
-5 20 -13 15 -37 -3 -16 0 -28 8 -35 8 -8 29 -22 32 -22 1 0 4 -1 6 -3 2 -1
10 -4 18 -7 8 -2 20 -7 25 -9 6 -3 15 -5 20 -5 14 -1 19 4 17 22 0 3 -1 18 -1
35 -1 31 -2 35 -15 56 -13 21 -15 27 -8 35 4 5 13 5 18 0 2 -2 11 -18 20 -37
22 -43 25 -47 38 -47 13 1 19 5 25 17 l5 11 0 73 c0 69 0 74 -4 81 -5 9 -12
12 -25 10 -5 0 -8 0 -9 2 -2 2 -2 2 -2 0 0 -5 -7 -8 -17 -8 -8 0 -12 1 -22 8
-14 10 -30 15 -44 14 -7 0 -10 1 -14 4 -10 10 -4 28 10 28 3 0 14 -3 23 -7 15
-6 18 -7 31 -6 26 2 33 0 33 -7 0 -2 0 -2 2 0 1 2 4 2 9 2 20 -3 29 7 28 31 0
13 0 14 6 20 5 5 7 6 13 5 5 0 15 2 26 6 23 8 29 8 51 0 17 -6 20 -6 45 -6 33
0 44 2 63 11 16 8 31 22 38 37 4 9 4 31 -1 34 -1 0 -3 4 -5 7 -1 3 -4 8 -6 10
-2 2 -7 8 -11 13 -7 8 -13 16 -45 51 -7 8 -14 16 -16 18 -8 9 -48 52 -56 59
-4 5 -15 12 -25 16 -15 8 -19 9 -29 9 -6 -1 -12 -2 -14 -3 -1 -1 -3 -2 -5 -2
-5 0 -12 -16 -14 -32 -2 -17 -4 -22 -12 -30 -6 -6 -8 -6 -15 -5 -10 1 -21 6
-26 11 -5 6 -7 25 -2 38 9 25 26 62 29 64 1 1 4 6 6 11 5 10 5 12 6 63 0 62
-1 69 -14 81 -8 6 -29 15 -38 15 -11 0 -19 16 -15 35 1 8 14 22 27 27 6 3 11
7 13 11 l3 7 11 -4 c10 -4 25 -5 57 -1 19 2 36 12 39 23 2 8 2 9 0 14 -4 11
-17 17 -36 19 -17 2 -23 8 -23 23 0 9 1 13 7 22 4 6 9 15 12 19 3 4 5 10 6 13
4 20 9 29 14 24 1 -1 3 -2 5 -2z m1118 -18 c3 0 7 -3 10 -6 5 -5 6 -7 6 -17 0
-10 -1 -12 -6 -17 -5 -5 -7 -6 -17 -6 -10 0 -12 1 -17 6 -8 7 -9 24 -2 33 4 5
15 9 20 8 1 -1 4 -1 6 -1z m-481 -23 c3 -5 3 -5 0 -10 -5 -6 -8 -6 -13 0 -5 5
-5 6 0 11 6 5 8 5 13 -1z m626 -29 c7 -6 7 -19 1 -25 -7 -7 -20 -7 -26 0 -5 7
-5 18 0 24 6 7 19 7 25 1z m-533 -4 c12 -15 -7 -35 -21 -22 -10 10 -3 26 11
26 4 0 8 -1 10 -4z m-1068 -22 c0 -1 1 -2 2 -1 1 1 2 0 2 -2 0 -1 1 -4 3 -4 1
-1 5 -6 10 -11 5 -7 7 -11 7 -17 0 -20 -28 -39 -39 -27 -5 5 -3 18 4 33 3 6 5
15 5 21 1 6 2 9 3 9 2 0 3 0 3 -1z m246 -4 c5 -5 5 -12 1 -17 -2 -2 -3 -6 -3
-8 0 -3 -1 -5 -2 -5 -4 0 -18 16 -18 21 0 11 15 17 22 9z m-441 -1 c3 -3 3 -3
0 -6 -3 -3 -3 -3 -6 0 -3 2 -3 3 -1 6 4 4 4 4 7 0z m1627 -14 c8 -10 5 -26 -9
-57 -7 -16 -11 -27 -10 -30 1 -3 1 -8 1 -12 1 -9 10 -18 22 -22 19 -5 21 -7
28 -21 7 -14 9 -25 6 -25 -1 0 -2 -1 -1 -2 2 -4 -19 -4 -26 0 -1 0 -7 1 -15 1
-36 2 -47 9 -46 27 2 28 1 32 -4 36 -7 6 -27 5 -39 -1 -10 -5 -11 -5 -46 -5
l-36 1 -6 6 c-3 3 -6 5 -7 5 -1 0 -2 1 -2 2 1 3 -5 16 -7 16 -2 0 -4 0 -4 0
-3 0 -15 14 -15 16 1 0 0 3 -1 5 -1 1 -1 8 0 14 3 22 11 25 49 18 10 -2 27 -2
55 -2 l39 1 11 7 c5 3 13 10 16 15 8 11 18 16 31 14 8 -1 12 -3 16 -7z m-532
-44 c-1 -5 5 -15 10 -16 11 -3 30 -4 30 -2 0 5 12 9 24 9 10 0 13 -1 18 -5 9
-8 10 -11 7 -26 -2 -12 -2 -20 2 -36 0 -3 3 -9 5 -14 8 -16 5 -34 -6 -46 -5
-6 -16 -22 -16 -23 0 -1 -3 -5 -8 -9 l-7 -8 -3 7 c-4 8 -7 20 -9 35 -1 6 -4
15 -6 22 -3 7 -5 13 -6 14 -1 7 -14 11 -34 11 -9 0 -19 1 -22 2 -3 1 -10 2
-16 2 -10 0 -12 -1 -17 -6 -3 -4 -6 -8 -6 -10 0 -2 -1 -4 -2 -5 -2 0 -2 -1 -1
-1 4 0 1 -14 -4 -18 -13 -12 -51 -3 -59 13 -5 13 -24 32 -33 36 -9 4 -34 9
-43 9 -12 0 -17 5 -21 22 -6 26 -17 44 -27 44 l-5 0 5 2 c3 1 5 2 4 4 0 1 1 2
2 1 1 -1 2 0 2 1 1 2 26 3 116 4 l115 1 6 -6 c3 -3 6 -7 5 -8z m145 2 c3 -5 3
-6 1 -11 -2 -3 -5 -5 -7 -6 -6 0 -15 7 -13 12 4 11 14 13 19 5z m147 -46 c4
-5 4 -8 -1 -14 -5 -6 -12 -6 -16 0 -4 6 -3 11 4 15 8 5 8 5 13 -1z m-1093 -29
c7 -3 12 -13 12 -25 0 -19 -9 -28 -28 -28 -19 0 -28 9 -28 28 0 24 19 34 44
25z m980 -31 c3 -5 3 -5 0 -10 -2 -3 -5 -5 -7 -5 -2 0 -5 2 -7 5 -3 5 -3 5 0
10 2 3 5 5 7 5 2 0 5 -2 7 -5z m416 -34 c4 -7 4 -10 -1 -34 -5 -22 -9 -29 -16
-33 -3 -2 -10 -10 -16 -18 -16 -24 -14 -23 -28 -21 -24 2 -35 11 -35 28 0 20
7 25 33 26 25 1 36 5 42 17 4 8 6 25 2 27 -1 1 -1 8 1 14 0 1 4 2 8 1 6 0 8
-2 10 -7z m-326 -16 c12 -7 14 -33 3 -43 -8 -9 -32 -9 -40 0 -9 8 -9 32 0 41
7 7 27 8 37 2z m161 -18 c20 -9 29 -27 23 -46 -2 -6 -4 -11 -6 -12 -2 0 -5 -4
-8 -9 -8 -11 -9 -24 -6 -47 1 -10 1 -11 -4 -16 -9 -9 -23 -6 -40 8 -7 6 -28
16 -31 14 0 0 -4 3 -7 6 l-6 6 0 34 0 34 6 6 c3 3 8 6 11 6 6 1 15 5 31 15 14
8 22 9 37 1z m-424 -21 c6 -1 15 -2 20 -1 5 1 10 0 11 -1 2 -2 3 -2 3 0 0 2 1
2 4 -1 7 -6 10 -31 6 -39 -1 -2 -9 -7 -17 -11 -9 -4 -16 -9 -18 -12 -5 -8 -6
-23 -2 -34 2 -5 3 -12 3 -16 0 -6 -6 -18 -9 -16 0 1 -1 1 -1 -1 0 -3 -10 -2
-17 2 -4 2 -8 7 -10 10 -6 12 -15 23 -20 26 -3 1 -6 6 -8 9 -2 4 -4 8 -6 8 -1
2 -2 11 -2 36 l0 34 6 6 6 6 20 -1 c11 -1 25 -3 31 -4z m-772 -44 c3 -2 6 -8
8 -12 7 -21 12 -31 26 -45 l13 -13 0 -15 c0 -14 0 -16 -6 -20 -4 -4 -7 -5 -18
-5 -12 0 -13 0 -24 9 -16 12 -31 20 -38 18 -18 -3 -27 -16 -30 -44 -2 -16 -8
-23 -23 -23 -9 0 -21 5 -26 10 -2 3 -16 11 -22 15 -21 10 -26 23 -13 35 20 19
38 31 54 34 22 4 24 4 32 9 7 3 10 7 18 23 12 25 16 28 32 28 9 0 14 -1 17 -4z
m579 -9 c7 -2 21 -5 31 -7 23 -5 26 -7 26 -23 0 -17 -7 -23 -26 -21 -2 0 -13
5 -24 10 -10 6 -20 10 -21 10 -2 0 -6 3 -10 6 -8 8 -9 16 -3 23 5 6 11 6 27 2z
m770 -37 c10 -9 3 -26 -10 -26 -13 0 -19 13 -11 26 3 6 4 6 10 5 4 0 9 -3 11
-5z m-883 -42 c5 -5 5 -11 0 -16 -10 -10 -27 5 -16 16 4 4 12 4 16 0z m594
-12 c23 -10 24 -32 1 -31 -28 2 -47 18 -35 33 3 4 4 4 14 3 6 -1 15 -3 20 -5z
m-373 -19 c2 -2 3 -5 2 -6 0 -2 0 -3 1 -4 3 -2 -6 -11 -10 -11 -5 0 -14 9 -14
14 0 10 13 15 21 7z m-90 -10 c4 -3 7 -7 7 -8 0 -2 1 -3 2 -3 3 0 11 -19 17
-44 2 -7 6 -20 9 -28 10 -23 7 -30 -13 -40 -9 -4 -14 -9 -24 -22 -14 -16 -15
-17 -29 -16 -13 1 -20 23 -10 33 3 3 6 5 7 5 2 0 7 2 11 4 4 2 9 4 11 4 8 2
11 9 11 23 0 16 -3 19 -34 33 -21 9 -26 12 -30 19 -8 10 -8 26 -2 34 11 13 53
17 67 6z m193 0 c7 -3 10 -6 12 -13 6 -17 6 -20 0 -24 -3 -1 -10 -8 -16 -15
-13 -14 -20 -30 -20 -45 0 -9 -1 -12 -5 -17 -6 -6 -6 -6 -23 -6 -16 0 -17 0
-23 6 l-6 6 0 31 c1 30 1 35 6 44 3 7 5 9 11 10 3 0 10 3 15 7 6 4 15 9 21 11
5 3 9 5 10 6 1 1 6 4 8 4 1 0 5 -2 10 -5z m657 -16 c5 -8 1 -16 -8 -16 -9 0
-13 8 -8 16 2 3 5 5 8 5 3 0 6 -2 8 -5z m-1291 -11 c9 -10 3 -20 -14 -24 -6
-1 -19 -5 -28 -8 -20 -7 -27 -7 -33 -2 -7 6 -7 20 0 25 3 4 8 5 23 6 24 2 23
2 26 4 8 6 20 6 26 -1z m827 2 c16 -7 16 -43 0 -50 -3 -1 -11 -3 -17 -4 -6 -1
-12 -3 -13 -4 -1 0 -3 -1 -4 -1 -1 0 -6 -2 -9 -4 -4 -1 -11 -4 -15 -6 -8 -3
-9 -2 -13 2 -4 4 -4 4 0 11 2 4 7 10 10 14 4 5 11 15 16 24 11 21 23 26 45 18z
m-120 -14 c8 -7 7 -16 -4 -27 -5 -5 -9 -8 -10 -7 -1 0 -1 -1 0 -2 0 -2 0 -4
-1 -4 -1 0 -3 4 -4 10 -1 5 -4 11 -6 14 -5 7 -4 12 3 16 8 5 17 5 22 0z m302
-3 l6 -6 0 -30 0 -30 -6 -6 c-4 -4 -8 -7 -9 -7 -5 0 -8 -5 -8 -9 0 -2 0 -6 -1
-7 -1 -2 -1 -8 -1 -12 1 -8 1 -8 -6 -8 -3 0 -6 1 -5 2 1 2 -5 4 -12 5 -6 1
-13 6 -19 13 -5 7 -5 12 3 38 3 7 4 18 4 31 0 19 0 20 6 26 6 6 7 6 24 6 17 0
18 0 24 -6z m-1253 -28 c3 -3 4 -7 4 -14 0 -13 -6 -19 -19 -19 -13 0 -19 6
-19 19 0 14 5 19 19 19 8 0 11 -1 15 -5z m355 -8 c3 -3 3 -3 0 -6 -3 -3 -3 -3
-6 0 -3 2 -3 3 -1 6 4 4 4 4 7 0z m-263 -2 c21 -9 20 -45 -2 -54 -10 -5 -28
-1 -34 6 -9 10 -9 32 0 42 7 8 24 11 36 6z m843 -17 c1 -4 3 -9 4 -12 2 -3 4
-9 4 -15 0 -14 -8 -22 -23 -22 -15 0 -23 8 -23 23 0 12 4 17 20 27 8 5 12 9
11 11 0 2 1 1 2 -1 2 -2 4 -7 5 -11z m172 -54 c5 -5 6 -7 6 -16 0 -15 -8 -23
-23 -23 -10 0 -11 1 -18 9 -10 11 -10 17 -1 28 10 11 25 12 36 2z m-79 -15 c0
-2 -1 -3 -2 -3 -1 0 -2 -4 -3 -8 -1 -4 -2 -8 -3 -8 -1 0 -3 -3 -5 -6 -5 -9 -3
-25 4 -35 2 -5 5 -10 6 -13 0 -3 6 -13 12 -23 8 -15 11 -18 15 -18 3 0 10 -3
17 -6 18 -9 30 -12 52 -10 17 1 19 1 24 -3 12 -10 12 -44 -1 -54 -3 -3 -8 -4
-18 -4 l-12 0 -14 14 c-10 11 -17 15 -31 22 -12 6 -19 11 -23 16 -3 4 -6 7 -6
8 -1 0 -2 1 -2 3 0 4 -5 7 -13 8 -5 1 -10 3 -12 4 -2 2 -6 3 -8 3 -6 0 -13 8
-20 22 -3 6 -8 16 -12 23 -12 22 -11 26 17 46 8 5 15 11 15 13 0 1 1 2 1 3 1
1 1 4 2 7 0 1 1 2 3 2 1 0 4 1 5 3 2 3 3 2 7 -1 3 -1 5 -4 5 -5z m220 0 c7 -6
8 -9 8 -15 0 -14 -18 -22 -27 -11 -5 5 -9 19 -8 24 1 2 2 5 2 7 2 5 16 2 25
-5z m-1268 -52 l-5 -5 -4 4 -5 5 4 4 5 5 4 -4 5 -5 -4 -4z m934 -2 c9 -10 5
-29 -9 -36 -16 -8 -29 -18 -34 -23 -3 -4 -6 -8 -7 -9 -3 -5 -10 -23 -10 -28 0
-3 -2 -8 -5 -12 -3 -3 -5 -7 -5 -8 0 -1 -2 -2 -4 -2 -6 -1 -13 -6 -23 -19 -20
-21 -28 -29 -36 -32 -7 -3 -8 -3 -11 2 -2 2 -4 6 -3 7 2 5 -3 27 -8 32 -2 3
-7 7 -11 9 -11 4 -36 5 -43 1 -7 -3 -15 -11 -16 -15 0 -2 -1 -4 -1 -5 -3 -4
-5 -16 -4 -23 1 -9 -6 -16 -16 -16 -10 0 -16 6 -16 16 0 9 -5 25 -10 33 -3 3
-10 8 -18 11 -7 4 -13 7 -14 8 -1 1 -3 2 -6 3 l-5 0 5 1 c6 0 22 16 22 21 0 4
10 13 15 14 3 1 10 -2 20 -6 19 -9 31 -11 42 -6 29 13 39 18 47 23 4 3 9 6 10
6 1 0 6 4 12 10 16 15 25 19 52 20 24 1 41 7 48 15 11 14 33 18 42 8z m393
-100 c4 -4 5 -7 5 -15 -1 -6 -1 -10 -2 -10 -1 0 -2 -2 -3 -4 -1 -2 -2 -4 -2
-3 -1 0 -3 0 -4 -1 -3 -3 -15 1 -20 7 -7 7 -7 20 0 26 7 7 19 7 26 0z m224
-28 c5 -8 1 -16 -8 -16 -9 0 -13 8 -8 16 2 3 5 5 8 5 3 0 6 -2 8 -5z m-1562
-3 c6 -6 7 -16 2 -24 -4 -7 -5 -7 -12 -4 -15 5 -19 18 -11 27 6 6 15 6 21 1z
m1412 -22 c12 -7 21 -25 21 -42 0 -14 -5 -19 -23 -23 -17 -4 -22 -7 -26 -16
-4 -9 -14 -12 -35 -11 -14 0 -49 1 -63 0 -6 0 -15 5 -15 9 0 7 7 10 20 10 23
-1 40 12 40 30 0 8 4 19 7 23 2 1 3 3 3 5 0 7 12 13 32 16 5 0 9 1 10 2 2 3
23 1 29 -3z m-456 -49 c6 -4 6 -6 6 -18 0 -10 -2 -17 -5 -25 -7 -18 -6 -35 3
-52 9 -16 17 -22 31 -25 8 -1 70 14 72 17 0 1 3 -1 6 -4 5 -6 6 -8 6 -18 0
-18 8 -31 27 -44 14 -9 17 -12 23 -24 8 -17 15 -24 31 -31 21 -9 22 -10 24
-15 4 -6 4 -24 0 -30 -1 -3 -8 -9 -15 -14 -8 -5 -19 -13 -26 -18 -10 -8 -13
-10 -24 -11 -18 -2 -25 5 -21 18 4 12 -2 38 -14 58 -9 16 -12 19 -27 27 l-11
5 -87 1 c-91 0 -94 0 -104 -9 -4 -4 -11 -15 -9 -15 0 0 0 -2 -1 -5 -1 -4 -3
-16 -3 -29 l-1 -22 6 -6 c3 -3 7 -6 8 -6 1 0 2 -1 2 -2 1 0 7 -5 15 -9 19 -12
28 -13 48 -6 8 3 16 5 17 5 1 0 11 -4 22 -9 l19 -10 44 -1 c30 0 45 0 45 2 0
1 4 -1 8 -6 5 -4 7 -8 6 -9 -1 -2 -2 -36 -2 -82 l1 -80 -6 -5 c-5 -5 -7 -5
-27 -4 -19 0 -21 0 -27 6 -4 3 -6 7 -7 12 -1 21 -16 45 -36 57 -7 4 -8 6 -18
31 -15 38 -29 47 -65 38 -15 -4 -19 -4 -37 -7 -4 -1 -11 -3 -17 -4 -21 -7 -33
-1 -33 16 0 5 1 11 3 14 2 2 3 6 3 7 -1 2 2 7 6 13 9 13 10 25 4 31 -3 3 -4 5
-2 7 2 2 2 3 -1 3 -2 0 -3 1 -3 2 0 1 -19 0 -21 -2 -1 0 -3 0 -6 0 -5 0 -5 -1
-2 -2 3 -1 2 -3 -7 -11 -5 -6 -11 -11 -13 -12 -8 -7 -21 0 -21 11 0 6 14 22
19 22 4 0 9 6 10 9 0 2 2 9 5 14 2 6 4 10 4 11 0 1 -1 5 -3 9 -3 8 -3 10 -3
13 0 4 -11 14 -17 17 -5 2 -15 3 -28 3 -14 0 -22 1 -24 3 -3 2 -3 3 -1 3 4 0
2 4 -3 5 -5 0 -4 0 2 1 20 1 49 11 53 19 3 6 4 28 1 43 -1 7 -1 9 3 13 9 10
28 4 28 -9 0 -8 7 -26 13 -32 9 -8 24 -7 60 3 1 0 8 2 15 3 10 2 13 4 16 8 5
9 5 31 0 40 -5 8 -3 12 10 21 15 11 20 29 13 47 -5 12 -3 29 4 35 8 7 28 7 36
0z m577 -55 c5 -5 6 -7 6 -16 0 -19 -8 -25 -33 -27 -13 -1 -15 -1 -19 3 -5 6
-5 16 1 28 7 13 15 18 29 18 9 0 11 -1 16 -6z m-212 -35 c3 -3 4 -7 4 -14 0
-13 -6 -19 -19 -19 -13 0 -19 6 -19 19 0 5 1 11 2 12 8 9 23 10 32 2z m100
-23 c7 -7 3 -26 -7 -29 -5 -2 -13 -15 -14 -26 -2 -13 1 -19 14 -26 11 -5 13
-6 30 -9 16 -3 21 -6 25 -14 2 -5 4 -8 3 -8 0 0 0 -2 2 -5 2 -3 2 -7 1 -8 0
-1 -3 -5 -6 -9 -6 -10 -13 -13 -35 -13 -29 1 -33 3 -52 22 -30 31 -30 31 -20
68 5 18 20 41 35 54 8 8 18 9 24 3z m-1133 -74 c7 -6 7 -19 1 -25 -6 -7 -19
-7 -25 -1 -7 6 -7 19 -1 25 6 7 19 7 25 1z m-160 -154 c10 -9 3 -26 -10 -26
-8 0 -15 7 -15 15 0 13 16 20 25 11z m1040 -36 c3 -5 8 -12 10 -16 2 -4 7 -13
11 -19 8 -14 11 -29 13 -59 l2 -24 -7 -6 c-5 -5 -7 -6 -16 -6 -27 0 -39 19
-40 60 0 8 -3 23 -5 34 -3 10 -5 22 -5 27 0 19 24 25 37 9z m-1186 -44 c10 -9
3 -26 -10 -26 -8 0 -15 7 -15 15 0 13 16 20 25 11z m928 -56 c11 -10 3 -28
-11 -28 -9 0 -16 6 -16 16 0 14 17 22 27 12z"/>
</g>
</svg>
