<?xml version="1.0" standalone="no"?>
<!DOCTYPE svg PUBLIC "-//W3C//DTD SVG 20010904//EN"
 "http://www.w3.org/TR/2001/REC-SVG-20010904/DTD/svg10.dtd">
<svg version="1.0" xmlns="http://www.w3.org/2000/svg"
 width="1108.000000pt" height="2850.000000pt" viewBox="0 0 1108.000000 2850.000000"
 preserveAspectRatio="xMidYMid meet">
<metadata>
Created by potrace 1.15, written by Peter Selinger 2001-2017
</metadata>
<g transform="translate(0.000000,2850.000000) scale(0.500000,-0.500000)"
fill="#000000" stroke="none">
<path d="M964 3830 c-15 -4 -24 -13 -28 -26 -2 -7 -2 -41 -2 -134 l1 -125 -6
-6 c-4 -4 -7 -6 -7 -6 -1 1 -37 1 -81 1 -67 0 -81 1 -83 3 -2 2 -2 3 0 3 1 0
2 1 1 3 -1 3 -1 3 26 9 30 6 52 21 64 42 7 11 6 25 -1 37 -4 6 -34 26 -45 31
-1 0 -3 2 -5 3 -2 1 -8 5 -15 9 -6 3 -14 8 -17 10 -3 2 -6 4 -7 4 0 0 -8 5
-17 10 -9 6 -17 10 -17 10 0 0 -10 6 -22 13 -12 7 -22 13 -22 13 0 0 -8 5 -17
10 -9 6 -17 10 -17 10 -1 0 -6 3 -12 7 -6 4 -11 7 -12 7 -1 0 -5 3 -10 6 -5 3
-9 6 -10 6 0 0 -8 5 -17 10 -9 6 -17 10 -17 10 -1 0 -3 1 -5 3 -2 1 -8 5 -15
9 -6 3 -14 8 -18 11 -10 6 -21 7 -34 1 -10 -4 -15 -11 -23 -35 -4 -10 -9 -26
-13 -36 -4 -10 -8 -19 -8 -20 0 -2 -1 -3 -23 -57 -20 -48 -30 -71 -35 -76 -7
-7 -16 -5 -31 7 -7 6 -17 13 -22 16 -5 3 -10 7 -12 8 -1 2 -4 4 -7 5 -2 2 -5
3 -6 4 -6 5 -53 35 -72 46 -3 2 -10 6 -14 8 -16 9 -27 15 -63 33 -39 20 -44
22 -61 17 -8 -3 -28 -19 -32 -28 -3 -7 -4 -25 -1 -30 1 -3 16 -18 32 -34 25
-25 47 -48 66 -70 3 -3 11 -14 20 -24 8 -10 15 -19 16 -20 1 -1 8 -10 16 -22
8 -12 15 -21 16 -22 1 -1 9 -12 17 -26 38 -58 38 -64 13 -104 -17 -27 -68
-105 -70 -106 -1 -1 -6 -8 -12 -16 -11 -17 -29 -42 -33 -46 -1 -2 -11 -15 -22
-29 -11 -14 -22 -28 -25 -31 -2 -3 -8 -10 -14 -16 -13 -16 -42 -48 -47 -53
-12 -11 -16 -30 -10 -43 8 -20 28 -36 45 -36 13 0 54 19 66 31 8 8 13 24 12
43 -1 18 14 23 34 12 8 -5 14 -7 24 -7 l13 -1 20 13 c11 7 21 13 22 14 1 1 6
5 11 8 5 3 9 7 10 7 1 1 6 5 12 9 13 8 22 15 45 33 10 6 18 12 19 12 4 0 9
-10 8 -17 0 -5 -7 -29 -15 -50 -23 -63 -22 -61 -24 -76 -2 -21 4 -32 35 -57
16 -13 14 -43 -4 -51 -12 -5 -24 -3 -38 6 -9 7 -31 7 -39 1 -2 -2 -12 -19 -21
-37 -16 -32 -24 -47 -33 -63 -3 -4 -6 -10 -9 -15 -21 -37 -55 -90 -89 -138 -9
-14 -57 -76 -62 -82 -2 -2 -7 -8 -11 -13 -4 -5 -10 -12 -14 -16 -38 -42 -49
-54 -52 -54 -1 0 -2 -9 -2 -24 0 -13 1 -24 2 -24 1 0 5 -4 10 -8 9 -9 18 -12
32 -12 7 0 17 4 53 22 24 12 51 26 60 31 45 25 53 29 68 38 58 35 157 101 167
113 1 1 5 4 10 8 17 14 20 0 17 -67 -3 -66 -3 -65 -6 -97 -2 -17 -7 -69 -8
-74 -1 -3 -2 -11 -3 -19 -8 -54 -23 -104 -38 -131 -5 -9 -16 -17 -25 -20 -8
-2 -94 0 -117 2 -52 5 -96 8 -104 6 -24 -7 -36 -32 -27 -59 5 -18 15 -26 45
-37 50 -19 84 -43 97 -71 7 -15 15 -44 18 -65 4 -29 5 -44 6 -76 1 -43 8 -56
30 -63 10 -4 55 -3 84 1 8 1 19 2 25 3 6 1 17 3 25 4 8 2 16 4 19 4 31 6 84
28 111 47 14 10 21 7 24 -10 4 -25 24 -44 48 -44 15 0 116 23 192 44 27 7 102
31 117 37 4 1 22 8 41 15 19 7 46 18 61 25 15 6 30 13 34 14 10 4 78 38 94 47
7 4 18 10 25 14 7 4 20 12 29 18 25 16 32 18 66 20 34 2 42 4 61 13 17 8 27
15 37 29 7 9 8 11 8 21 0 23 -1 24 -56 52 -27 13 -57 29 -67 34 -10 5 -32 17
-50 26 -18 9 -37 19 -44 23 -6 3 -12 6 -14 6 -4 0 2 6 10 10 9 4 152 3 163 -1
4 -2 8 -4 8 -5 0 -1 2 -2 4 -3 2 0 2 -1 -1 -1 -4 0 -17 -13 -21 -21 -2 -2 -3
-17 -2 -25 0 -7 11 -16 33 -31 13 -9 24 -17 25 -19 1 -2 2 -2 2 -1 0 1 3 -2 7
-6 4 -4 8 -8 9 -7 1 0 2 -1 2 -2 0 -1 3 -3 7 -4 3 -1 9 -4 12 -7 3 -3 17 -14
30 -24 22 -18 39 -32 50 -42 2 -2 12 -11 21 -19 21 -19 90 -88 109 -109 17
-19 25 -29 44 -54 18 -24 30 -35 45 -42 30 -15 84 -15 122 -1 23 9 52 28 64
43 4 4 10 12 14 16 1 2 2 4 2 5 0 1 1 2 2 2 1 0 9 15 16 30 9 22 13 59 8 86
-10 57 -53 118 -113 161 -18 12 -33 9 -50 -10 -8 -9 -11 -11 -16 -11 -8 0 -14
7 -12 16 1 4 2 11 2 17 2 14 11 22 37 31 25 8 53 27 64 41 10 16 10 6 10 279
l0 253 5 8 c4 6 8 9 16 13 6 2 12 6 14 7 1 1 6 5 11 8 17 13 26 26 26 40 0 18
-1 19 -83 81 -42 31 -78 58 -81 59 -4 2 -4 3 -1 3 1 0 3 1 3 2 0 6 9 7 102 8
88 1 94 1 104 5 32 12 56 39 53 60 -1 11 -2 15 -5 17 -1 2 -2 4 -2 5 0 2 -23
24 -47 46 -8 7 -15 13 -17 15 -2 2 -17 16 -35 31 -34 29 -37 32 -51 43 -5 4
-10 8 -11 10 -4 3 -24 3 -31 -1 -3 -1 -7 -6 -10 -9 -12 -16 -15 -18 -28 -18
-7 0 -15 1 -18 3 -8 4 -28 3 -37 -2 -6 -3 -47 -57 -49 -62 0 -2 -2 -1 -5 2 -5
5 -5 7 -6 26 -1 24 -3 31 -13 53 -11 21 -11 27 0 48 8 18 13 32 12 35 -1 1 2
5 5 8 l6 6 115 0 c103 0 116 0 126 3 30 10 56 37 56 59 0 15 -8 26 -34 52 -33
31 -57 54 -91 84 -2 2 -12 11 -21 19 -9 9 -20 18 -24 21 -4 3 -8 7 -9 8 -1 2
-9 9 -18 16 -15 13 -15 13 -28 13 -16 0 -23 -4 -35 -23 -6 -8 -11 -15 -11 -16
-1 -1 -6 -7 -10 -14 -4 -7 -9 -12 -9 -13 -1 -1 -3 -4 -5 -8 -1 -4 -3 -5 -3 -3
0 1 -1 3 -2 3 0 0 -3 2 -4 6 -3 4 -4 11 -4 33 0 34 3 41 22 54 15 9 21 17 30
37 11 23 5 42 -15 52 -15 7 -295 34 -308 30 -13 -3 -18 -10 -27 -31 -1 -2 -4
-14 -8 -27 l-6 -23 0 -99 1 -99 -6 -6 -6 -6 -48 0 -48 0 -6 6 -6 6 1 70 1 70
5 9 c3 5 6 8 6 7 0 -2 16 10 23 17 20 22 27 46 19 63 -4 6 -10 13 -12 12 -1
-1 -2 0 -2 1 0 1 -4 3 -8 4 -16 5 -31 -3 -39 -21 -3 -6 -5 -12 -5 -14 0 -5 -7
-10 -12 -10 -7 0 -12 6 -12 13 1 5 -2 18 -4 21 0 1 -1 3 -1 5 -1 4 -15 16 -17
15 -1 -1 -2 0 -2 0 0 1 -9 2 -21 1 -17 0 -24 0 -40 5 -11 2 -25 5 -31 6 -20 2
-31 3 -59 6 -16 2 -36 4 -46 5 -20 2 -22 2 -29 0z m827 -252 c4 -6 4 -24 -1
-30 -7 -9 -27 -9 -34 0 -5 6 -5 24 0 30 7 9 27 9 35 0z m-1434 -60 c10 -9 3
-26 -10 -26 -8 0 -15 7 -15 15 0 13 16 20 25 11z m373 -14 c0 -1 1 -2 2 -1 1
1 2 -1 2 -3 0 -3 1 -6 2 -7 1 -1 4 -12 8 -25 8 -28 14 -41 25 -48 14 -10 19
-10 89 -10 l65 1 6 -6 6 -6 0 -87 0 -87 -6 -6 -6 -6 -111 1 c-108 0 -110 0
-120 -4 -5 -2 -11 -4 -12 -4 -6 2 -17 16 -21 25 -4 13 -36 77 -48 98 -17 31
-17 31 32 84 15 16 37 41 42 47 3 4 9 11 14 16 4 5 12 14 17 20 8 9 14 13 14
8z m915 -21 c4 -4 5 -7 5 -15 0 -14 -6 -20 -20 -20 -14 0 -20 6 -20 20 0 14 6
20 20 20 8 0 11 -1 15 -5z m-282 -78 l6 -6 -1 -23 c0 -23 0 -23 8 -45 11 -28
11 -34 0 -62 -7 -18 -8 -24 -8 -33 1 -10 0 -12 -5 -17 l-6 -6 -48 0 -48 0 -6
6 -6 6 0 87 0 87 6 6 6 6 48 0 48 0 6 -6z m-597 -319 c3 -3 6 -6 8 -7 2 0 2
-1 1 -1 -2 0 -3 -22 -3 -103 l0 -103 5 -11 c4 -8 8 -13 16 -19 18 -14 18 -20
0 -34 -8 -6 -12 -11 -16 -19 l-5 -11 0 -253 c0 -226 0 -253 3 -260 4 -9 14
-21 18 -21 2 0 3 -1 3 -2 0 -2 5 -3 65 -3 32 0 59 -1 61 -2 6 -4 3 -8 -52 -63
-37 -37 -49 -48 -71 -67 -24 -21 -24 -21 -43 -36 -9 -7 -16 -14 -17 -18 -4 -9
-4 -27 0 -40 4 -12 2 -24 -4 -30 -9 -11 -31 -10 -43 0 -16 13 -35 16 -50 6
-13 -9 -30 -13 -30 -7 0 2 19 34 23 38 7 8 35 63 49 95 17 40 39 115 49 170
14 78 21 145 24 231 2 41 2 144 0 180 0 16 -2 39 -2 52 -3 56 -10 133 -16 178
-9 61 -25 141 -29 150 -1 2 0 5 2 9 l3 6 23 0 c22 0 23 0 28 -5z m397 -38 l0
-31 -6 -6 -6 -6 -37 1 c-24 1 -40 3 -46 5 -13 4 -72 25 -94 34 -10 4 -20 8
-21 8 -1 0 -3 1 -5 2 -16 6 -58 22 -63 22 -7 1 -7 2 2 9 3 3 22 3 134 4 l130
1 6 -6 6 -6 0 -31z m445 38 c2 -1 4 -3 4 -4 0 -1 2 -2 4 -2 3 0 2 -1 -1 -2 -2
-2 -8 -7 -13 -13 -5 -6 -15 -17 -23 -25 -12 -14 -25 -32 -25 -35 0 -5 -15 -25
-21 -27 -14 -6 -30 -2 -45 11 -2 3 -5 5 -6 5 -1 0 -4 5 -7 11 -6 9 -6 12 -7
42 l-1 32 6 6 6 6 62 -1 c45 -1 63 -2 67 -4z m-451 -209 l6 -6 0 -65 0 -65 -6
-6 -6 -6 -26 0 -26 0 -6 6 -6 6 0 65 0 65 6 6 6 6 26 0 26 0 6 -6z m374 0 l6
-6 0 -65 0 -65 -6 -6 c-6 -6 -7 -6 -29 -6 -22 0 -23 0 -29 6 l-6 6 0 65 0 65
6 6 6 6 23 0 c22 0 23 0 29 -6z m-374 -276 l6 -6 0 -66 0 -66 -6 -6 -6 -6 -26
0 -26 0 -6 6 -6 6 0 66 0 66 6 6 6 6 26 0 26 0 6 -6z m369 5 c0 -1 3 -4 7 -6
3 -3 6 -7 7 -9 1 -9 27 -25 40 -25 2 0 5 -2 8 -5 9 -10 3 -33 -8 -33 -7 0 -28
-10 -34 -15 -7 -8 -11 -21 -10 -37 1 -12 1 -13 -5 -19 -6 -6 -7 -6 -29 -6 -22
0 -23 0 -29 6 l-6 6 0 66 0 66 6 6 6 6 24 0 c12 0 23 -1 23 -1z m195 -62 c4
-6 4 -24 -1 -30 -7 -9 -27 -9 -34 0 -5 6 -5 24 0 30 7 9 27 9 35 0z m-1244
-475 c3 -3 3 -3 0 -6 -3 -3 -3 -3 -6 0 -3 2 -3 3 -1 6 4 4 4 4 7 0z"/>
</g>
</svg>
