<?xml version="1.0" standalone="no"?>
<!DOCTYPE svg PUBLIC "-//W3C//DTD SVG 20010904//EN"
 "http://www.w3.org/TR/2001/REC-SVG-20010904/DTD/svg10.dtd">
<svg version="1.0" xmlns="http://www.w3.org/2000/svg"
 width="1100.000000pt" height="2850.000000pt" viewBox="0 0 1100.000000 2850.000000"
 preserveAspectRatio="xMidYMid meet">
<metadata>
Created by potrace 1.15, written by Peter Selinger 2001-2017
</metadata>
<g transform="translate(0.000000,2850.000000) scale(0.500000,-0.500000)"
fill="#000000" stroke="none">
<path d="M1580 3830 c-3 -1 -15 -12 -25 -23 -11 -12 -24 -26 -30 -32 -16 -16
-35 -38 -42 -45 -8 -9 -20 -15 -42 -20 -23 -6 -28 -9 -36 -22 -5 -9 -6 -14 -6
-28 -1 -15 -2 -18 -6 -22 -6 -6 -22 -6 -28 0 -7 8 -7 23 0 30 3 4 4 6 3 19 0
13 -1 15 -6 20 l-5 5 -73 0 c-82 -1 -79 -1 -96 -17 -19 -17 -33 -17 -52 0 -16
16 -24 17 -65 15 -12 -1 -27 0 -47 2 l-28 4 -124 47 c-73 28 -127 47 -132 48
-5 0 -10 0 -13 -2 -8 -5 -11 -21 -8 -37 2 -9 -1 -17 -10 -32 -9 -15 -9 -12 -9
-300 0 -245 0 -274 3 -281 4 -9 14 -21 18 -21 2 0 3 -1 3 -2 0 -2 0 -2 32 -4
31 -1 35 -3 35 -16 0 -13 2 -22 8 -33 6 -14 7 -19 5 -29 -3 -13 -9 -17 -26
-20 -20 -3 -32 -8 -41 -17 -4 -4 -7 -8 -7 -9 0 -4 -62 -101 -86 -134 -4 -6
-10 -13 -11 -16 -4 -6 -26 -34 -38 -48 -8 -10 -14 -24 -16 -39 -2 -18 -3 -23
-8 -32 -4 -7 -5 -13 -5 -23 0 -20 7 -27 30 -29 11 -1 13 -1 33 8 32 14 88 43
91 47 3 3 5 3 12 1 2 -1 4 -1 5 -1 0 0 1 -1 1 -3 0 -2 1 -3 2 -3 0 0 1 -4 2
-8 0 -5 2 -12 5 -16 10 -16 11 -19 11 -27 0 -5 -1 -11 -3 -14 -2 -3 -7 -10
-10 -16 -11 -18 -11 -14 -11 -207 l0 -178 -5 -5 c-3 -3 -5 -7 -6 -9 0 -5 0 -5
-1 0 0 4 -2 5 -12 8 -51 15 -138 64 -150 85 l-5 8 -1 99 c-1 93 -1 100 -5 105
-4 6 -11 14 -11 12 0 -1 -2 0 -4 1 -4 2 -12 4 -27 6 -16 2 -21 8 -21 23 0 15
5 21 21 23 15 2 23 4 27 6 2 1 4 2 4 1 0 -3 11 10 13 16 2 4 3 13 3 21 0 7 1
16 2 19 3 8 3 17 -2 21 -2 2 -4 5 -6 7 -4 6 -24 29 -36 41 -4 5 -10 13 -12 17
-4 8 -4 8 0 12 3 4 7 5 12 5 13 0 26 4 31 10 10 10 11 19 11 71 0 59 0 58 26
68 22 8 36 16 45 23 7 6 7 7 7 19 0 10 -1 17 -6 27 -3 7 -7 17 -8 21 -7 21
-12 29 -28 42 -17 14 -26 18 -43 20 -16 1 -37 -9 -49 -23 -5 -6 -12 -15 -17
-20 -10 -12 -19 -34 -19 -47 0 -12 -19 -18 -28 -8 -5 6 -5 13 3 34 6 17 6 29
1 41 -10 20 -13 39 -9 45 3 5 4 5 12 4 4 -1 13 -4 19 -6 13 -6 22 -6 31 -1 11
7 12 24 4 37 -3 4 -6 7 -7 7 0 0 -3 2 -6 5 -3 2 -12 9 -20 16 -14 11 -15 12
-25 11 -15 0 -22 -4 -31 -17 -9 -13 -14 -14 -33 -13 -6 0 -13 9 -16 21 -4 15
-4 16 0 19 6 7 9 14 9 21 0 8 -1 9 -4 9 -5 0 -12 -4 -17 -10 -8 -10 -18 -19
-24 -22 -4 -1 -7 -3 -7 -4 0 -1 -5 -8 -12 -16 -7 -8 -19 -24 -27 -34 -7 -10
-15 -21 -17 -22 -2 -2 -7 -9 -11 -15 -6 -8 -11 -13 -18 -16 l-10 -5 -87 0 -87
0 -11 -5 c-5 -3 -10 -6 -10 -7 0 -1 -1 -3 -3 -5 -6 -6 -7 -20 -2 -44 5 -25 11
-41 13 -41 1 0 2 -2 3 -4 1 -4 12 -12 23 -16 4 -1 25 -2 64 -2 63 0 71 1 85
12 4 3 12 9 16 12 7 5 9 6 20 6 18 0 23 -5 25 -21 1 -13 0 -16 -11 -32 -20
-30 -19 -61 2 -84 9 -11 13 -19 13 -30 0 -10 -4 -22 -10 -26 -2 -1 -3 -5 -4
-14 0 -16 3 -24 15 -27 10 -3 10 -3 14 -4 2 0 6 -3 9 -6 5 -5 6 -7 6 -18 0
-11 -1 -13 -6 -18 -3 -3 -7 -6 -8 -6 -10 -1 -30 -10 -36 -17 -10 -11 -10 -9
-10 -184 l0 -166 -5 -10 c-4 -8 -7 -11 -16 -16 -13 -7 -23 -13 -59 -34 -13 -7
-27 -16 -32 -19 -5 -2 -12 -7 -16 -9 -4 -2 -13 -8 -21 -12 -8 -4 -15 -8 -16
-9 -2 -1 -6 -4 -9 -6 -66 -35 -68 -37 -68 -60 0 -11 1 -12 12 -30 11 -16 27
-32 32 -32 4 0 21 -9 26 -13 4 -3 4 -6 4 -24 0 -11 1 -23 3 -27 2 -6 20 -35
60 -94 7 -12 18 -25 23 -30 5 -5 12 -12 14 -16 9 -13 18 -20 25 -22 16 -4 19
-3 31 10 16 15 18 19 29 50 8 24 15 39 36 76 7 14 41 75 47 85 3 4 7 12 10 17
2 5 7 12 9 16 14 22 17 30 17 41 -1 11 -2 16 -9 23 -2 3 -6 8 -8 11 -3 6 -3 7
0 12 2 3 10 7 18 10 11 5 17 9 26 18 15 15 22 18 34 16 12 -2 17 -6 30 -28 6
-10 12 -18 13 -19 1 0 2 -1 2 -2 0 -5 38 -49 44 -52 10 -5 24 -6 38 -3 13 3
14 3 29 -2 9 -2 23 -6 31 -8 8 -2 17 -6 19 -8 7 -8 1 -20 -12 -22 -13 -2 -23
-9 -26 -17 -4 -16 2 -26 20 -40 1 0 10 -7 20 -14 20 -15 35 -25 62 -40 22 -13
62 -32 65 -32 2 0 4 -1 5 -2 3 -2 46 -18 65 -24 24 -7 59 -16 85 -21 26 -5 33
-7 56 -10 4 -1 13 -2 20 -3 21 -3 72 -8 89 -8 21 -1 40 14 46 37 6 21 28 26
45 10 3 -3 7 -5 9 -5 4 0 14 -8 11 -8 -2 0 19 -8 23 -8 1 -1 2 -1 2 -2 0 -1 1
-2 3 -2 2 0 3 2 3 5 0 5 1 5 10 5 l9 0 0 -14 c-1 -16 1 -18 14 -22 6 -1 86 -2
267 -2 256 0 259 0 268 4 17 8 25 21 30 49 3 18 3 19 10 40 7 23 19 47 31 63
9 12 28 32 31 32 2 0 6 11 7 21 1 4 0 14 -2 22 -2 8 -3 17 -2 20 3 12 19 19
26 12 2 -1 6 -8 9 -14 7 -14 10 -18 19 -21 31 -12 56 40 35 70 -11 15 -21 17
-87 13 -78 -3 -102 -4 -161 -6 -24 -1 -50 -2 -58 -2 -117 -5 -514 -5 -592 0
-6 0 -19 1 -29 2 -43 3 -53 3 -64 5 -14 3 -22 9 -16 13 2 2 5 3 5 3 3 0 30 18
37 24 7 6 19 21 19 23 0 1 5 4 12 8 l11 5 313 0 313 0 10 5 c6 2 11 6 12 7 4
5 11 19 15 29 5 13 12 18 27 18 15 0 22 -5 27 -18 4 -10 11 -24 15 -29 13 -16
62 -16 92 0 23 11 41 33 41 50 0 20 -8 29 -69 78 -25 21 -33 25 -46 23 -10 -2
-13 -3 -21 -12 -15 -17 -25 -21 -40 -17 -11 2 -16 7 -18 18 -3 13 0 23 11 34
7 8 9 11 9 16 -1 6 7 12 24 19 20 8 31 14 41 24 24 24 25 48 1 70 -19 18 -67
59 -101 86 -4 3 -9 8 -11 10 -2 1 -6 3 -7 3 -4 0 -3 0 0 2 2 2 5 4 6 5 0 2 3
3 6 3 3 0 5 1 6 2 1 1 5 2 9 2 4 0 8 1 10 3 2 1 2 1 1 0 -1 -2 0 -2 2 -2 3 0
4 3 3 16 0 10 -1 17 -3 17 -1 1 0 2 3 2 5 0 5 0 4 -14 0 -12 0 -14 2 -13 3 1
3 1 0 -1 -2 -3 -2 -4 0 -5 2 -1 2 -1 1 1 -1 2 -1 2 1 1 2 0 5 0 6 2 1 1 2 1 2
-1 0 -4 21 2 38 11 13 8 26 27 28 41 1 16 -7 29 -26 44 -8 6 -18 14 -22 19 -6
6 -22 20 -53 47 -3 2 -10 8 -16 13 -6 5 -11 9 -13 9 -4 0 5 7 12 10 4 1 16 2
28 2 24 0 32 2 40 10 5 6 11 25 10 36 0 13 2 17 15 23 5 3 11 7 11 8 1 1 2 1
2 -1 1 -9 3 9 3 20 -1 11 -2 13 -5 16 -34 27 -100 77 -149 112 -5 4 -13 10
-18 13 -4 3 -8 7 -8 8 -2 5 8 13 17 14 8 2 13 4 18 9 2 2 8 4 15 5 7 1 14 2
17 2 3 0 10 2 16 5 41 14 60 30 66 56 1 6 2 22 2 43 -1 41 -2 44 -23 64 l-15
14 0 11 0 11 15 14 c22 21 22 22 22 73 1 23 0 44 -1 45 -2 4 -2 23 1 24 2 1 5
5 8 9 2 4 4 8 5 8 5 0 12 5 20 12 4 4 9 8 10 8 1 0 2 1 2 2 0 1 1 2 2 2 4 0
14 9 18 15 5 8 5 24 0 33 -3 6 -6 8 -15 10 -18 6 -25 12 -31 24 -3 7 -10 13
-45 39 -50 37 -53 39 -56 42 -5 5 -97 73 -104 77 -8 5 -24 5 -33 0z m-35 -160
c3 -6 3 -6 0 -12 -6 -9 -21 -5 -21 6 0 11 15 15 21 6z m74 2 c7 -6 7 -19 1
-25 -9 -9 -24 -6 -29 6 -7 17 15 31 28 19z m-716 -27 c5 -4 6 -6 6 -17 1 -16
-1 -21 -13 -28 -21 -12 -27 -21 -29 -49 -1 -20 -9 -28 -28 -28 -19 0 -28 9
-28 28 0 15 4 20 19 28 14 8 24 17 23 19 -1 1 0 2 1 2 1 0 2 4 3 9 0 4 1 11 2
14 0 3 1 9 2 12 2 10 9 15 24 15 11 0 14 -1 18 -5z m912 -8 c6 -7 5 -15 -1
-21 -12 -12 -29 5 -18 17 2 3 10 8 14 9 0 0 2 -2 5 -5z m-724 -41 l14 -7 174
0 174 0 6 -6 c6 -6 6 -7 6 -27 0 -20 0 -21 -6 -27 -3 -3 -7 -6 -9 -5 -2 0 -11
-2 -21 -4 -22 -5 -28 -5 -50 0 -20 5 -50 5 -55 0 -1 -1 -4 -2 -7 -4 -3 -2 -9
-8 -14 -15 -10 -16 -15 -19 -26 -19 -11 0 -16 3 -26 19 -5 7 -11 13 -14 15 -3
2 -6 3 -7 4 -3 3 -17 3 -103 3 l-92 0 -6 6 -6 6 1 22 c1 22 1 23 11 37 0 0 6
3 12 5 16 7 26 6 44 -3z m662 -37 c6 -4 6 -6 6 -20 0 -14 0 -16 -6 -20 -4 -4
-7 -5 -18 -5 -11 0 -14 1 -18 5 -6 4 -6 6 -6 20 0 14 0 16 6 20 4 4 7 5 18 5
11 0 14 -1 18 -5z m-814 -90 c5 -4 9 -9 10 -11 1 -2 4 -5 8 -6 4 -1 7 -3 7 -4
0 -1 3 -3 6 -4 14 -5 22 -14 25 -29 1 -4 -2 -9 -6 -9 -2 0 -5 -1 -6 -3 -4 -4
-19 -4 -25 -1 -3 1 -8 11 -13 21 -5 11 -10 19 -12 19 -3 0 -17 18 -17 22 0 5
6 12 10 12 3 0 8 -3 13 -7z m370 -46 c3 -2 8 -6 11 -9 3 -2 11 -6 18 -9 13 -5
13 -5 64 -5 l51 1 6 -6 c6 -6 6 -7 6 -24 0 -17 0 -18 -6 -24 -5 -5 -8 -6 -16
-6 -6 0 -16 -3 -26 -7 -27 -11 -27 -11 -56 -3 -8 2 -21 3 -37 4 -15 0 -31 1
-40 4 -13 3 -27 3 -132 3 l-117 -1 -6 6 c-6 6 -6 7 -6 24 0 11 0 17 -2 17 -1
0 1 2 6 5 4 3 7 6 7 7 0 0 20 1 45 0 40 0 46 0 61 4 21 6 31 6 51 0 32 -8 65
-4 81 11 13 11 25 14 37 8z m317 -63 c9 -9 3 -23 -10 -23 -6 0 -9 1 -11 4 -7
9 -1 23 11 23 3 0 8 -2 10 -4z m31 -67 c14 -2 12 -2 19 -4 13 -4 20 -20 20
-42 0 -14 -6 -28 -13 -30 -11 -3 -28 4 -36 15 -9 12 -20 16 -42 18 -17 1 -18
1 -21 6 -6 12 9 27 34 35 7 3 16 4 20 4 4 0 12 -1 19 -2z m-234 -18 c3 -5 3
-5 0 -10 -5 -6 -7 -6 -13 0 -4 5 -4 5 -1 10 5 6 9 6 14 0z m101 -31 c2 -2 4
-6 4 -8 0 -5 -7 -12 -11 -12 -6 0 -13 7 -13 12 0 10 13 15 20 8z m-118 -22 c0
-5 28 -8 41 -4 5 1 7 0 12 -5 4 -4 6 -7 5 -7 -1 0 -1 -4 -1 -9 1 -8 -3 -18 -6
-18 -1 1 -3 0 -3 -2 -1 -1 -2 -1 -2 1 0 2 -3 7 -7 11 -6 6 -7 7 -18 7 -12 0
-14 -1 -31 -13 -12 -10 -27 -10 -36 -1 -5 5 -6 7 -6 17 0 13 5 20 16 23 9 2
36 2 36 0z m-277 -7 c13 -5 24 -18 23 -28 -1 -9 -8 -8 -42 6 -17 7 -32 13 -34
13 -4 0 -4 0 0 4 3 3 7 5 10 6 8 2 36 2 43 -1z m444 -39 c13 -6 25 -16 25 -21
0 -2 -2 -7 -4 -12 -4 -10 -5 -11 -30 -17 -10 -3 -18 -5 -18 -6 0 -1 -1 -2 -3
-2 -3 0 -12 -9 -29 -29 -7 -8 -17 -20 -22 -26 -6 -6 -10 -12 -10 -13 0 -4 -15
-6 -22 -3 -4 2 -6 3 -5 3 3 0 11 16 16 30 5 13 6 37 3 51 -6 30 -4 35 18 34
11 0 14 1 18 4 3 3 6 5 8 5 1 0 2 1 2 2 1 1 4 3 7 5 10 5 29 3 46 -5z m-674
-87 c3 -5 3 -5 0 -10 -2 -3 -5 -5 -7 -5 -2 0 -5 2 -7 5 -3 5 -3 5 0 10 2 3 5
5 7 5 2 0 5 -2 7 -5z m288 -15 c3 -4 5 -9 5 -12 0 -3 1 -7 2 -9 1 -2 0 -7 -1
-11 -1 -4 -3 -11 -4 -15 -2 -18 -9 -40 -13 -43 -10 -8 -30 -2 -30 10 0 13 -16
40 -23 40 -1 0 -7 4 -13 8 -6 4 -9 8 -8 8 2 0 7 2 12 5 5 2 13 5 18 6 11 1 26
7 38 14 11 6 11 6 17 -1z m-851 -50 c5 -6 5 -12 0 -18 -7 -8 -22 -2 -22 9 0
11 15 17 22 9z m1061 -62 c7 -6 6 -16 0 -24 -3 -3 -6 -6 -7 -6 -2 0 -7 -3 -12
-6 -11 -6 -25 -12 -32 -12 -7 0 -14 7 -14 15 0 7 8 19 12 19 1 0 6 2 12 6 21
12 34 15 41 8z m122 -7 c14 -16 33 -53 27 -53 0 0 -3 -3 -6 -7 -2 -4 -7 -10
-10 -14 -3 -3 -6 -7 -6 -7 0 -1 -1 -3 -2 -4 -7 -8 -18 -22 -18 -24 0 -1 -1 -2
-3 -2 -1 0 -4 -2 -7 -4 -2 -2 -4 -3 -4 -2 0 1 -2 2 -5 4 -5 2 -5 3 -5 40 -1
65 -1 67 5 74 9 10 25 10 34 -1z m-1158 -40 c6 -4 6 -6 6 -20 0 -14 0 -16 -6
-20 -4 -4 -7 -5 -18 -5 -11 0 -14 1 -18 5 -6 4 -6 6 -6 20 0 14 0 16 6 20 4 4
7 5 18 5 11 0 14 -1 18 -5z m842 -3 c4 -4 5 -7 6 -13 0 -15 -2 -18 -17 -27
-18 -11 -27 -20 -26 -26 0 -1 -1 -2 -3 -2 -1 0 -5 -2 -8 -5 l-6 -6 -37 1 c-20
1 -36 0 -36 0 0 -1 -3 1 -6 5 l-7 6 0 29 0 29 6 6 6 6 36 -1 c24 0 42 1 54 3
22 3 30 2 38 -5z m-246 -37 c6 -4 6 -6 6 -20 0 -14 0 -16 -6 -20 -5 -5 -7 -5
-20 -5 -20 1 -24 5 -23 26 1 13 2 15 7 19 8 7 28 7 36 0z m705 -7 c5 -6 5 -12
0 -18 -7 -8 -22 -2 -22 9 0 11 15 17 22 9z m-341 -20 c9 -8 4 -28 -7 -28 -8 0
-34 -10 -45 -18 -11 -7 -13 -8 -24 -8 -11 0 -14 1 -18 5 -10 9 -9 37 3 43 1 1
15 2 30 2 19 1 29 2 34 4 10 5 22 5 27 0z m-445 -31 c11 -3 13 -7 15 -20 1 -8
-2 -21 -7 -25 -5 -6 -18 -8 -28 -6 -11 2 -16 7 -18 18 -4 17 3 31 16 34 10 2
10 2 22 -1z m171 -21 c1 -1 3 -2 5 -2 10 0 14 -27 5 -37 -4 -5 -6 -6 -27 -8
-44 -5 -52 -3 -45 10 2 4 5 7 8 9 2 1 9 6 16 12 7 6 15 13 18 15 7 3 18 4 20
1z m727 -2 c3 -3 5 -7 6 -14 1 -20 -6 -30 -23 -30 -16 0 -22 5 -23 23 0 12 0
13 6 19 5 5 7 6 18 6 9 0 13 -1 16 -4z m-1017 -21 c3 -3 3 -4 1 -11 -2 -4 -4
-7 -5 -7 -1 1 -3 0 -4 -1 -2 -2 -3 -2 -3 0 0 1 -1 2 -2 1 0 0 -1 1 -1 3 -1 2
-1 4 -1 5 -1 5 0 8 5 10 6 3 7 3 10 0z m565 -51 c1 0 5 -3 8 -6 5 -5 6 -7 6
-18 0 -11 -1 -13 -6 -18 -6 -6 -7 -6 -18 -6 -11 0 -12 0 -18 6 -5 5 -6 7 -6
17 0 14 3 20 12 24 5 2 8 2 22 1z m-167 -17 l6 -6 0 -31 0 -31 -6 -6 c-6 -6
-6 -6 -21 -5 -26 1 -37 -6 -52 -33 -7 -12 -11 -15 -21 -15 -10 0 -17 7 -17 17
0 7 5 23 8 25 7 5 12 30 12 57 l-1 22 6 6 6 6 37 0 37 0 6 -6z m392 -1 c5 -4
7 -6 5 -6 -2 0 -5 -2 -6 -4 -2 -4 -4 -6 -12 -16 -2 -2 -5 -6 -8 -10 -3 -4 -9
-12 -13 -18 -5 -6 -9 -11 -9 -12 0 -1 -1 -2 -3 -2 -1 0 -4 -2 -7 -4 -2 -2 -4
-3 -4 -2 0 1 -2 2 -5 4 -5 2 -5 3 -5 33 0 16 0 30 -1 30 0 1 2 4 6 8 l6 6 24
-1 c22 -1 25 -1 32 -6z m-301 -79 c15 -7 20 -31 9 -48 -4 -7 -20 -12 -33 -12
-19 0 -25 7 -27 26 -1 9 -1 13 1 15 2 2 4 5 6 8 6 10 30 16 44 11z m-827 -37
c7 -6 7 -19 1 -25 -6 -7 -19 -7 -25 -1 -7 6 -7 19 -1 25 6 7 19 7 25 1z m530
-7 c4 -4 5 -7 5 -15 0 -14 -6 -20 -20 -20 -14 0 -20 6 -20 20 0 14 6 20 20 20
8 0 11 -1 15 -5z m701 -79 c12 -14 -4 -28 -35 -33 -44 -7 -50 -11 -66 -44 -14
-30 -22 -34 -47 -27 -20 5 -21 8 -22 55 l-1 38 6 6 6 6 55 -1 c31 0 60 1 66 2
21 3 34 2 38 -2z m-495 -5 l6 -6 0 -36 0 -36 -6 -6 -6 -6 -37 0 -37 0 -6 6 -6
6 0 36 0 36 6 6 6 6 37 0 37 0 6 -6z m-228 -25 c10 -9 3 -26 -10 -26 -8 0 -15
7 -15 15 0 13 16 20 25 11z m337 -104 c6 -7 5 -23 -1 -29 -6 -6 -20 -8 -31 -3
-10 5 -13 21 -5 31 6 9 30 10 37 1z m-767 -4 c7 -3 12 -13 12 -25 0 -19 -9
-28 -28 -28 -19 0 -28 9 -28 28 0 24 19 34 44 25z m512 -26 c7 -3 12 -13 12
-25 0 -19 -9 -28 -28 -28 -19 0 -28 9 -28 28 0 24 19 34 44 25z m-783 -114 c5
-5 5 -15 0 -20 -9 -9 -24 -2 -24 10 0 8 6 14 14 14 3 0 8 -2 10 -4z m503 -10
c6 -7 7 -25 1 -32 -7 -9 -27 -9 -34 0 -5 6 -5 23 -1 30 7 9 25 10 34 2z m380
-62 c11 -10 3 -28 -11 -28 -9 0 -16 6 -16 16 0 14 17 22 27 12z m128 -6 c10
-9 3 -26 -10 -26 -8 0 -15 7 -15 15 0 13 16 20 25 11z m-318 -19 l5 -5 -1 -34
c-2 -38 -3 -42 -17 -42 -14 0 -15 4 -17 42 l-1 34 5 5 c4 4 7 5 13 5 6 0 9 -1
13 -5z m338 -163 c6 -5 7 -17 2 -22 -4 -7 -39 -3 -39 3 1 3 8 14 14 18 7 6 17
6 23 1z"/>
<path d="M87 3768 c-8 -8 -10 -17 -9 -29 1 -8 4 -15 22 -42 12 -18 22 -34 23
-36 39 -63 74 -132 96 -190 6 -15 12 -30 13 -33 5 -11 21 -63 26 -85 7 -27 12
-37 20 -40 9 -4 27 -7 29 -5 2 1 7 2 12 2 9 0 11 0 17 -7 7 -8 7 -9 24 -9 12
-1 17 1 15 5 -1 1 -1 1 0 1 1 -1 4 0 7 3 10 10 26 3 26 -10 0 -7 -7 -15 -13
-15 -2 0 -3 -1 -2 -2 3 -1 5 -18 2 -18 -1 0 -1 -1 1 -2 3 -2 2 -2 -1 -2 -1 0
-4 2 -5 5 -2 4 -3 4 -4 3 -1 -2 -2 0 -2 6 0 6 1 8 4 8 2 0 2 1 0 1 -2 1 -5 4
-8 8 -5 5 -6 6 -18 5 -7 0 -13 1 -15 2 -1 1 -3 1 -5 -1 -1 -2 -1 -3 0 -3 1 0
2 -1 2 -2 -1 -1 1 -4 5 -7 3 -2 5 -6 5 -8 0 -1 2 -3 4 -4 3 -1 3 -1 0 -4 -4
-3 -5 -6 -1 -4 1 1 1 1 0 0 -1 -1 -2 -2 -4 -2 -2 0 -7 -12 -5 -14 2 -3 12 -9
15 -9 2 0 3 -1 2 -2 -1 -2 26 3 31 6 2 1 12 2 21 2 56 -1 113 38 140 95 10 21
16 40 18 56 1 7 2 15 2 18 2 15 -6 66 -13 84 -2 3 -3 6 -3 7 -4 13 -22 48 -28
54 -2 2 -3 4 -3 5 0 2 -30 40 -32 41 -1 0 -3 2 -5 3 -4 4 -21 9 -38 10 -22 2
-25 6 -32 35 -5 24 -23 37 -89 69 -44 21 -58 27 -104 42 -37 13 -39 13 -67 4
-14 -4 -17 -4 -33 4 -19 9 -35 10 -43 1z m265 -168 c5 -6 5 -12 0 -18 -7 -8
-22 -2 -22 9 0 11 15 17 22 9z"/>
</g>
</svg>
