<?xml version="1.0" standalone="no"?>
<!DOCTYPE svg PUBLIC "-//W3C//DTD SVG 20010904//EN"
 "http://www.w3.org/TR/2001/REC-SVG-20010904/DTD/svg10.dtd">
<svg version="1.0" xmlns="http://www.w3.org/2000/svg"
 width="1100.000000pt" height="2850.000000pt" viewBox="0 0 1100.000000 2850.000000"
 preserveAspectRatio="xMidYMid meet">
<metadata>
Created by potrace 1.15, written by Peter Selinger 2001-2017
</metadata>
<g transform="translate(0.000000,2850.000000) scale(0.500000,-0.500000)"
fill="#000000" stroke="none">
<path d="M1104 3823 c-3 -3 -6 -6 -5 -7 1 -1 0 -2 -1 -2 -5 0 -6 -18 -6 -84 1
-66 1 -67 6 -75 2 -5 8 -11 12 -14 12 -10 17 -17 19 -27 6 -22 11 -28 28 -37
9 -5 17 -10 19 -13 10 -12 -2 -53 -17 -61 l-7 -4 -6 6 c-3 3 -7 9 -8 15 -3 12
-8 26 -8 22 0 -2 -4 -2 -15 -2 -23 1 -23 1 -23 -46 l0 -37 -6 -8 c-3 -4 -6 -7
-6 -6 0 2 -30 -9 -39 -15 -9 -6 -19 -18 -24 -30 -5 -9 -12 -14 -22 -14 -13 0
-16 2 -28 21 -12 19 -20 25 -43 36 -8 3 -35 16 -59 28 -24 12 -54 26 -67 32
-13 6 -29 14 -35 17 -14 7 -25 7 -36 0 -6 -3 -15 -18 -15 -24 0 0 -2 -4 -5 -8
-5 -6 -7 -6 -18 -6 -7 0 -16 -1 -21 -3 -9 -2 -10 -2 -15 1 -9 5 -13 15 -13 29
0 11 1 13 9 26 15 21 18 34 12 48 -5 13 -19 23 -39 29 -24 7 -25 8 -24 47 0
11 -1 17 -3 23 -5 10 -17 22 -24 22 -2 0 -5 1 -7 1 -11 3 -17 3 -21 0 -4 -3
-5 -4 -4 -14 2 -15 -2 -32 -8 -37 -8 -6 -29 -6 -36 1 -5 4 -6 6 -6 17 -1 17 1
22 14 28 15 7 17 9 17 20 0 19 -1 21 -17 28 -16 8 -57 22 -61 23 -7 0 -20 -3
-25 -6 -6 -3 -8 -5 -18 -18 -7 -9 -20 -15 -34 -16 -19 0 -27 6 -30 25 -5 35
-17 46 -53 50 -37 4 -51 3 -70 -7 -15 -7 -20 -16 -20 -30 0 -16 4 -21 20 -27
19 -7 21 -11 22 -32 0 -18 2 -29 9 -39 2 -3 7 -11 10 -18 3 -6 10 -16 15 -22
l9 -10 13 -1 14 0 12 12 c8 8 15 12 18 12 17 1 24 -4 24 -19 0 -12 -1 -13 -20
-23 -35 -20 -39 -35 -21 -83 5 -12 13 -38 18 -55 15 -49 25 -62 65 -81 40 -20
92 -28 114 -19 21 10 29 24 31 53 0 11 2 24 4 29 2 6 4 15 4 25 0 15 0 17 -6
24 -3 3 -7 7 -8 7 -2 0 -3 1 -3 2 0 1 -9 6 -14 7 -2 0 -5 1 -8 2 -4 1 -8 0
-12 -2 -4 -2 -9 -4 -12 -3 -8 0 -11 -3 -11 -11 0 -10 -12 -26 -21 -27 -14 -1
-22 16 -10 26 8 8 15 12 21 13 3 0 6 1 6 3 -1 1 0 2 1 2 1 0 2 3 2 6 0 4 2 13
4 21 8 25 34 45 58 43 13 -2 20 -9 19 -19 -2 -9 2 -28 7 -34 3 -4 13 -8 21 -9
4 -1 9 -11 9 -18 0 -9 -3 -17 -9 -26 -6 -8 -11 -31 -10 -39 2 -9 13 -19 24
-21 14 -2 25 -18 25 -35 0 -11 -4 -17 -18 -24 -19 -9 -30 -23 -45 -57 l-14
-31 -1 -24 c-2 -29 -3 -32 -14 -42 -23 -20 -28 -27 -37 -50 -10 -25 -22 -34
-42 -31 l-13 1 -8 -9 c-5 -5 -13 -17 -18 -26 -9 -19 -13 -23 -23 -27 -8 -3
-22 -4 -24 -1 -2 3 -17 2 -28 -1 -5 -2 -13 -7 -19 -13 -5 -5 -12 -10 -15 -12
-3 -2 -7 -4 -9 -5 -5 -4 -24 -11 -30 -11 -3 0 -7 1 -8 3 -1 2 -4 3 -5 3 -1 0
-4 2 -6 4 -4 4 -18 11 -25 13 -11 2 -17 4 -21 7 -9 7 -17 24 -20 46 -2 11 -9
32 -12 34 -1 2 -4 8 -7 13 -11 23 -3 42 18 42 9 0 11 -1 16 -7 6 -5 7 -7 6
-17 -2 -31 0 -49 5 -54 1 -1 6 -9 11 -18 5 -9 10 -17 11 -17 1 -1 8 -2 16 -2
15 0 25 5 28 14 1 3 8 7 20 13 11 5 21 11 25 16 20 21 21 22 43 16 27 -7 43 1
48 24 0 2 3 7 7 11 3 3 6 7 6 8 0 1 4 3 8 4 7 2 8 3 9 13 2 17 1 21 -8 26 -10
5 -17 12 -25 25 -4 6 -7 10 -8 10 -1 0 -4 2 -7 5 -9 8 -18 11 -31 12 -13 0
-21 -5 -30 -20 -4 -6 -9 -14 -11 -16 -2 -2 -3 -5 -3 -5 0 -4 -13 -9 -23 -9
-13 0 -21 5 -32 18 -13 18 -19 37 -12 46 2 3 2 5 2 5 0 1 -1 5 -2 9 -3 26 -7
30 -40 38 -30 7 -29 6 -60 11 -58 8 -84 9 -101 2 -25 -9 -34 -20 -34 -39 0
-12 0 -13 16 -34 9 -12 17 -23 19 -25 3 -4 26 -39 35 -54 10 -16 11 -18 18
-32 4 -7 8 -13 9 -14 2 -2 3 -4 3 -5 0 -2 2 -3 4 -4 4 -1 15 -24 17 -36 1 -4
3 -12 6 -16 3 -5 6 -15 8 -22 2 -8 5 -17 6 -20 1 -3 5 -12 8 -20 5 -13 11 -23
19 -31 2 -2 9 -11 16 -21 15 -21 17 -23 33 -31 39 -19 91 -22 133 -6 24 9 23
9 27 5 4 -4 2 -11 -5 -26 -3 -7 -9 -19 -13 -28 -9 -18 -9 -26 -3 -51 6 -20 5
-22 -13 -35 -5 -4 -13 -9 -16 -11 -9 -8 -28 -34 -36 -50 -3 -8 -11 -24 -16
-36 -6 -11 -16 -34 -24 -49 -13 -25 -19 -37 -34 -63 -6 -10 -9 -24 -7 -34 1
-7 4 -11 12 -19 11 -10 11 -11 22 -11 9 0 14 1 24 6 16 8 31 9 44 2 10 -6 14
-13 14 -27 0 -10 -1 -12 -6 -17 -3 -3 -7 -6 -9 -6 -11 -1 -19 0 -23 2 -9 5
-24 8 -43 9 -14 0 -23 2 -31 5 -23 9 -32 12 -36 11 -6 -1 -9 3 -21 25 -2 3 -4
4 -19 4 -17 0 -17 0 -20 -5 -2 -4 -6 -9 -9 -12 -5 -5 -7 -5 -16 -4 -12 1 -30
-4 -36 -9 -22 -21 11 -66 40 -55 5 1 9 2 10 2 0 -1 2 0 3 2 1 2 4 3 5 3 2 0 5
3 8 7 3 3 9 8 12 10 7 4 7 4 11 -1 2 -2 4 -7 5 -12 4 -26 22 -49 44 -58 15 -5
24 -8 28 -8 7 0 13 -9 13 -21 0 -11 0 -12 -8 -19 -22 -19 -22 -18 -22 -32 0
-12 0 -12 11 -23 20 -20 19 -37 -2 -61 -12 -14 -22 -34 -21 -42 1 -6 -7 -96
-11 -119 -15 -84 -15 -90 4 -127 19 -36 51 -65 88 -80 37 -15 57 -7 66 28 4
17 6 19 16 23 15 5 31 0 37 -11 5 -10 16 -22 22 -25 12 -6 23 -4 41 7 10 6 19
12 21 13 7 6 39 39 43 44 2 3 5 6 6 8 1 1 2 7 1 15 -1 15 -4 20 -19 32 -9 6
-11 9 -13 17 -4 18 1 29 18 40 14 8 21 18 35 46 12 26 13 33 10 56 -5 27 -11
39 -27 49 -14 9 -16 13 -10 33 2 9 4 20 4 24 0 7 -7 27 -20 54 -12 25 -27 67
-29 81 -2 16 -3 22 -4 30 0 6 -3 15 -6 21 -4 10 -8 14 -26 30 -11 9 -12 21 -3
48 3 12 8 30 11 42 3 12 6 26 7 30 4 15 -2 30 -17 43 -16 16 -19 21 -19 34 0
9 1 11 6 16 l6 6 27 0 c29 0 39 3 51 15 11 11 14 17 29 71 5 18 8 26 14 32 4
3 9 3 10 -2 1 -4 7 -8 25 -18 7 -3 24 -12 38 -19 14 -8 41 -22 60 -32 19 -9
42 -21 50 -25 22 -12 39 -11 52 2 14 14 31 17 41 7 5 -4 5 -6 5 -20 -1 -26 5
-35 21 -35 11 0 18 4 25 13 4 5 10 12 13 16 3 4 7 9 8 11 1 2 3 4 4 6 4 3 9
22 9 31 1 35 12 43 51 34 12 -2 16 -4 23 -10 1 -2 3 -3 4 -3 1 0 0 -2 -3 -5
-5 -5 -5 -6 -4 -16 1 -6 5 -17 9 -25 13 -25 10 -33 -11 -41 -26 -9 -32 -16
-47 -51 -5 -10 -11 -24 -14 -31 -3 -7 -8 -18 -11 -25 -9 -20 -27 -54 -49 -94
-7 -14 -9 -22 -11 -45 0 -9 -2 -19 -3 -21 -1 -2 -9 -8 -18 -13 -21 -12 -25
-17 -45 -46 -21 -31 -26 -38 -38 -54 -5 -7 -12 -15 -14 -18 -2 -3 -5 -7 -7 -9
-9 -11 -15 -19 -17 -24 -4 -7 -2 -31 2 -41 4 -10 4 -21 0 -28 -3 -8 -9 -32
-10 -45 0 -6 -1 -11 -3 -12 -2 -3 0 -27 3 -34 2 -4 5 -6 8 -6 2 0 5 -1 7 -1 6
0 28 7 41 15 15 9 37 31 49 48 3 5 7 10 8 10 1 0 2 1 2 3 0 2 4 7 9 12 8 8 10
9 25 11 18 3 28 6 33 11 4 4 9 24 9 35 0 12 5 21 14 28 3 3 6 6 6 7 0 2 1 3 2
2 2 -1 2 6 1 24 l-1 25 6 6 c3 3 7 6 8 6 5 0 37 14 42 19 8 7 11 17 10 29 -1
13 -5 18 -19 27 -15 10 -20 26 -10 36 10 10 26 5 37 -11 3 -6 11 -14 17 -19
22 -16 23 -17 23 -26 0 -10 -2 -15 -12 -36 -4 -8 -8 -15 -8 -16 -1 -6 -8 -13
-23 -23 -11 -7 -16 -12 -24 -20 -4 -4 -13 -11 -19 -13 -8 -4 -12 -12 -11 -21
2 -18 1 -17 16 -18 l15 0 9 9 c6 6 16 14 24 19 7 5 16 12 20 17 7 10 18 19 26
23 7 4 22 18 24 22 1 3 1 2 1 0 0 -2 1 -5 3 -6 7 -6 7 -13 7 -132 0 -113 0
-120 4 -134 2 -8 5 -16 6 -17 0 -1 1 -10 1 -20 0 -10 1 -19 1 -21 1 -2 2 -5 3
-7 1 -5 17 -13 27 -14 8 0 14 -5 14 -11 0 -8 -13 -15 -16 -10 -1 2 -2 2 -2 1
0 -2 -4 -3 -9 -4 -5 -1 -9 -2 -9 -3 0 -1 -1 -2 -2 -1 -3 2 -12 -7 -15 -14 -4
-10 -4 -42 0 -52 4 -9 14 -21 18 -21 2 0 3 -1 3 -2 0 -2 1 -2 25 -3 19 -1 21
-1 33 4 7 3 15 9 20 14 17 19 30 20 53 4 4 -3 12 -6 18 -8 10 -3 13 -3 24 0
54 14 115 44 124 61 4 7 4 29 1 37 -4 12 -2 21 10 38 10 14 12 24 12 64 0 39
-2 48 -11 60 -4 5 -7 7 -12 7 -4 0 -8 2 -11 5 -3 3 -6 4 -6 4 -1 -1 -2 1 -3 3
-2 4 -1 8 4 21 5 13 8 18 20 30 17 18 19 23 19 62 0 40 -4 46 -28 48 -7 0 -12
0 -14 -2 -2 -3 -6 -4 -18 -3 -25 1 -25 43 0 44 12 1 16 0 18 -3 2 -1 5 -2 8
-2 9 0 26 -5 34 -10 8 -6 9 -6 11 -1 0 2 1 2 1 -1 0 -3 1 -5 2 -5 2 -1 12 -23
15 -36 3 -13 6 -35 8 -55 1 -8 2 -19 3 -25 1 -6 2 -20 2 -32 0 -12 1 -24 2
-27 4 -9 14 -19 25 -22 13 -5 58 -3 99 4 3 0 9 1 13 2 4 1 9 1 11 2 2 0 5 1 8
2 10 2 43 15 58 24 25 14 29 16 39 20 6 2 12 4 14 5 2 1 6 2 8 3 3 1 6 3 9 5
2 1 6 4 8 6 19 12 52 52 65 79 17 35 29 75 30 93 0 18 -10 33 -27 38 -8 2 -18
0 -23 -6 -4 -5 -9 -23 -9 -32 1 -13 -8 -21 -22 -21 -10 0 -20 6 -20 12 0 2 -1
3 -1 3 -1 1 -5 7 -8 14 -3 7 -11 17 -16 24 -12 12 -14 18 -12 34 1 13 7 18 25
18 8 0 17 -1 23 -4 13 -5 27 -3 46 8 8 4 16 8 17 8 5 0 22 8 30 14 7 5 14 19
15 31 1 11 4 59 4 66 0 14 -5 26 -17 38 -6 6 -12 11 -14 11 -3 0 -8 13 -8 23
0 13 2 17 17 28 23 18 28 31 25 59 -1 9 -2 24 -2 32 2 26 10 34 35 36 10 0 16
2 18 4 3 3 5 16 3 16 -1 0 -3 5 -6 11 -3 6 -6 11 -6 11 -1 0 -3 1 -4 3 -2 1
-7 6 -13 10 -5 4 -10 8 -11 9 -1 1 -5 5 -11 9 -16 13 -17 14 -22 19 -7 6 -13
8 -26 8 -13 0 -17 -3 -22 -18 -5 -14 -11 -18 -22 -18 -13 0 -19 6 -19 19 0 9
0 11 6 15 19 16 20 17 20 25 0 17 -1 21 -8 27 -7 5 -22 17 -42 34 -17 15 -29
17 -62 13 -29 -3 -42 -9 -62 -29 -5 -5 -14 -13 -19 -18 -10 -9 -10 -10 -11
-20 -1 -20 6 -29 26 -37 29 -11 37 -18 37 -33 0 -9 -1 -11 -6 -16 -8 -8 -17
-9 -36 -2 -23 9 -32 15 -48 31 -21 22 -28 24 -73 23 -37 -2 -44 -4 -51 -15 -4
-6 -7 -24 -5 -27 1 -2 2 -8 2 -15 0 -10 -1 -12 -6 -17 -6 -6 -7 -6 -21 -6 -16
0 -25 15 -26 46 -1 19 -1 20 16 32 7 5 12 10 15 16 l5 9 1 94 0 94 -7 21 c-4
12 -7 23 -7 25 0 2 3 13 7 24 7 21 7 22 7 55 l0 33 6 6 c4 5 7 6 15 7 26 1 88
7 128 11 62 7 63 7 71 10 19 8 25 10 55 10 17 0 32 1 35 2 3 0 8 1 13 2 4 1 9
2 10 2 1 0 6 2 10 5 9 5 15 14 21 29 5 16 9 19 21 19 16 0 20 -7 23 -37 0 -5
11 -14 18 -17 4 -1 8 -4 9 -5 2 -1 10 -2 19 -2 19 -2 29 1 41 12 8 7 8 7 9 22
l0 15 -142 143 c-126 126 -143 143 -152 146 -12 4 -29 5 -38 1 -7 -4 -14 -7
-16 -7 -2 0 -31 -16 -38 -20 -5 -3 -9 -5 -9 -5 -1 0 -5 -2 -10 -5 -4 -3 -7 -4
-7 -4 0 1 -3 -1 -6 -4 -7 -7 -12 -16 -17 -31 -5 -14 -9 -20 -19 -26 -8 -4 -16
-13 -27 -27 -8 -12 -10 -13 -25 -13 -16 0 -22 5 -24 20 -1 13 0 17 11 33 19
29 17 46 -6 67 -14 11 -18 18 -18 31 0 23 14 32 42 26 22 -5 35 -2 47 11 8 9
19 29 21 39 0 3 1 6 2 6 0 1 0 4 -1 8 -1 3 -3 8 -3 10 -1 2 -2 4 -3 5 -1 0 -2
2 -2 4 -1 2 -7 6 -13 9 -11 5 -34 8 -138 18 -7 0 -35 3 -64 6 -70 7 -72 7 -95
-2 -26 -10 -31 -9 -51 5 -11 8 -26 8 -35 1z m115 -104 c10 -9 8 -53 -2 -65 -5
-5 -18 -5 -24 0 -2 1 -4 3 -4 4 0 1 -2 6 -4 12 -4 15 -4 42 1 48 6 8 26 9 33
1z m65 -147 c1 0 5 -3 8 -6 5 -5 6 -7 6 -18 0 -11 -1 -13 -6 -18 -6 -6 -7 -6
-18 -6 -11 0 -12 0 -18 6 -5 5 -6 7 -6 17 0 14 3 20 12 24 5 2 8 2 22 1z m424
-32 c5 -5 5 -11 0 -16 -10 -10 -27 5 -16 16 4 4 12 4 16 0z m-129 -39 c7 -4
10 -11 10 -24 0 -15 -5 -21 -19 -25 -21 -7 -41 -5 -67 6 -11 5 -16 6 -20 6 -2
0 -6 2 -8 5 -3 5 -3 5 0 10 3 4 5 5 9 4 25 -6 41 -3 53 10 11 13 29 16 42 8z
m-290 -49 c6 -6 6 -12 2 -22 -5 -11 -14 -10 -23 1 -12 14 8 34 21 21z m-496
-8 c6 -6 16 -17 24 -25 18 -18 20 -22 20 -41 0 -14 0 -16 -5 -20 -6 -6 -20 -4
-32 2 -9 5 -10 7 -20 28 -3 7 -9 19 -14 27 -13 23 -10 39 9 39 8 0 10 -1 18
-10z m685 -51 c3 -3 4 -7 4 -14 0 -13 -6 -19 -19 -19 -13 0 -19 6 -19 19 0 7
1 11 4 14 7 8 23 8 30 0z m-754 -3 c8 -5 12 -12 13 -23 0 -16 -2 -20 -17 -32
-12 -10 -14 -11 -19 -9 -5 3 -13 17 -17 29 -7 26 16 46 40 35z m580 -3 c0 -1
1 -3 2 -3 2 -1 2 -2 0 -4 -3 -3 -4 -3 -9 -1 l-6 2 5 3 c2 1 4 4 4 5 0 2 1 3 2
2 1 -1 2 -2 2 -4z m-66 -6 c16 -6 25 -12 25 -16 1 -2 -2 -9 -5 -16 -5 -10 -8
-13 -19 -20 -27 -16 -40 -19 -55 -13 -13 5 -17 27 -7 45 12 24 31 30 61 20z
m-426 -80 c12 -5 18 -20 14 -36 -4 -19 -17 -39 -28 -45 -6 -3 -22 -3 -30 0
-17 7 -17 36 1 65 9 16 26 22 43 16z m280 -55 c0 -18 1 -37 2 -45 1 -8 3 -16
3 -18 1 -9 15 -34 23 -43 8 -9 24 -20 45 -30 11 -6 16 -13 16 -27 0 -19 -9
-28 -28 -28 -8 0 -21 4 -21 7 0 0 -6 1 -13 0 -12 0 -14 -1 -20 -7 l-7 -7 1
-59 0 -60 -6 -6 -6 -6 -39 1 -40 1 -5 5 c-2 3 -4 6 -3 6 1 1 3 15 6 32 2 17 5
33 5 36 2 11 7 44 9 57 1 8 3 23 5 33 3 21 2 30 -4 40 -5 8 -7 9 -21 16 -15 7
-26 8 -47 2 -14 -3 -15 -3 -19 0 -9 7 -5 54 5 54 1 0 8 -2 14 -5 7 -3 13 -6
14 -5 0 0 1 -1 1 -2 0 -2 13 -1 19 1 8 2 14 14 13 26 0 12 0 12 -18 30 -10 11
-12 19 -8 30 5 11 22 14 33 7 10 -6 38 -6 48 1 5 4 10 5 19 5 12 1 13 1 19 -5
l6 -6 -1 -31z m-408 -16 c0 -6 -1 -21 -3 -34 -1 -13 -3 -29 -4 -36 -1 -7 -2
-13 -2 -14 0 -1 -1 -8 -2 -16 -1 -8 -2 -15 -2 -16 0 -1 -1 -6 -2 -11 -1 -6 -2
-14 -2 -19 -4 -22 -2 -37 6 -54 15 -30 14 -37 -7 -60 -12 -12 -16 -18 -20 -28
-8 -24 -13 -32 -21 -39 -4 -3 -10 -7 -12 -9 -2 -2 -9 -8 -15 -13 -16 -15 -19
-13 -18 8 0 11 -5 24 -11 28 -6 4 -22 7 -32 6 -15 -1 -25 6 -29 20 -8 32 23
50 51 30 5 -4 9 -5 18 -5 14 0 20 2 25 10 10 17 -2 40 -25 47 -11 3 -15 10
-10 18 3 5 12 7 14 3 1 -2 4 -2 10 -1 4 1 10 2 13 2 8 1 18 6 20 11 2 3 20 67
23 80 0 2 6 21 12 43 6 22 13 46 14 52 3 11 4 12 7 11 3 -2 4 -5 4 -14z m-289
-34 l5 -6 -5 -5 c-7 -7 -8 -6 -16 2 -3 5 -3 5 0 10 5 7 10 6 16 -1z m873 -73
c21 -9 20 -45 -2 -54 -10 -5 -28 -1 -34 6 -9 10 -9 32 0 42 7 8 24 11 36 6z
m-381 -45 c7 -6 7 -19 1 -25 -7 -7 -20 -7 -26 0 -5 7 -5 18 0 24 6 7 19 7 25
1z m-73 -43 c0 -1 -2 -3 -3 -5 -4 -4 -4 -4 -8 0 l-5 5 4 4 c4 5 5 5 8 2 2 -2
4 -5 4 -6z m-36 -57 c12 -11 25 -19 41 -25 8 -3 14 -5 14 -5 1 0 2 -3 4 -6 4
-8 5 -25 1 -32 -1 -2 -3 -6 -3 -9 -3 -11 -5 -27 -5 -33 0 -7 -6 -16 -10 -16
-4 0 -11 11 -15 24 -2 6 -5 14 -7 17 -2 3 -8 14 -13 25 -6 13 -12 22 -20 29
-18 18 -21 27 -13 35 7 7 16 5 26 -4z m398 -21 l-5 -5 -4 4 -5 5 4 4 5 5 4 -4
5 -5 -4 -4z m80 -48 c21 -9 20 -45 -2 -54 -10 -5 -28 -1 -34 6 -9 10 -9 32 0
42 7 8 24 11 36 6z m-524 -15 c5 -5 5 -11 0 -16 -10 -10 -27 5 -16 16 4 4 12
4 16 0z m345 -44 c4 -5 4 -5 1 -15 -2 -6 -5 -13 -7 -16 -3 -4 -5 -8 -6 -10 0
-2 -4 -6 -7 -9 -5 -4 -7 -4 -14 -2 -11 3 -14 5 -10 8 2 1 2 2 2 2 -1 0 0 2 2
4 5 6 7 9 12 18 3 4 5 8 6 8 1 0 2 2 2 4 0 2 10 11 14 12 1 0 3 -2 5 -4z m472
-38 c7 -7 7 -10 4 -81 -2 -47 -1 -55 9 -75 3 -6 8 -18 10 -25 2 -8 6 -17 7
-20 6 -15 7 -17 7 -22 0 -6 -4 -9 -19 -17 -20 -9 -24 -17 -30 -54 -4 -28 -4
-37 2 -55 7 -21 7 -34 -1 -41 -6 -6 -7 -6 -18 -6 -11 0 -12 0 -17 5 -4 3 -6 7
-7 14 -1 6 -3 13 -4 16 -1 3 -3 7 -3 8 -2 10 -20 22 -34 22 -5 0 -10 1 -12 4
-2 2 -6 4 -9 5 -2 1 -4 3 -4 4 1 3 -12 12 -22 16 -11 3 -12 3 -24 0 -7 -2 -19
-7 -27 -11 -19 -9 -25 -9 -38 0 -9 7 -10 7 -25 6 -16 0 -20 -2 -20 -6 0 -1 -2
-4 -4 -6 -9 -12 -23 -14 -42 -8 -11 4 -31 3 -37 0 -1 -1 -6 -4 -11 -6 -13 -4
-19 -1 -21 12 -2 12 1 18 23 39 19 19 19 19 39 26 21 7 27 12 48 37 9 10 18
14 31 12 16 -3 20 -9 21 -31 1 -9 2 -18 3 -19 1 -2 2 -3 1 -3 -1 0 1 -4 3 -8
l5 -8 12 0 c11 1 21 5 25 10 2 3 20 12 23 11 4 0 11 7 11 11 0 1 1 2 2 1 0 0
1 5 1 11 0 7 -1 12 -2 11 -1 0 -2 1 -2 2 1 4 -6 7 -9 4 -3 -2 -10 -3 -10 -1 0
1 -3 2 -6 3 -10 2 -14 10 -14 23 0 11 1 13 6 18 3 3 7 6 8 6 13 1 16 1 17 0 1
-2 7 0 17 3 2 1 4 2 5 2 6 1 13 9 16 16 3 7 3 17 3 62 l-1 54 6 5 c5 5 8 6 23
6 18 1 26 4 48 18 16 9 27 9 37 0z m-338 -42 c6 -6 7 -14 3 -31 -4 -20 -9 -24
-17 -15 -2 2 -5 4 -6 4 -1 0 -6 3 -11 8 -8 7 -9 8 -9 18 0 8 1 11 6 16 9 9 24
9 34 0z m554 1 c15 -6 22 -10 24 -15 4 -7 4 -21 0 -33 -4 -12 -4 -30 0 -45 5
-18 0 -33 -13 -39 -7 -2 -20 -3 -26 0 -6 2 -14 9 -14 11 0 3 -11 19 -17 24 -3
2 -7 5 -10 5 -3 0 -8 1 -11 2 -4 1 -9 1 -12 1 -8 -1 -13 9 -14 25 0 18 5 23
32 28 5 1 16 14 19 23 6 15 10 19 22 17 5 0 14 -2 20 -4z m-545 -60 c1 -1 8
-5 15 -9 17 -8 20 -13 20 -28 0 -19 -8 -27 -27 -27 -12 0 -19 3 -23 10 -5 7
-5 23 0 36 1 6 3 12 4 15 0 3 1 5 1 6 0 1 8 0 10 -3z m-118 -51 c8 -8 11 -51
4 -58 -5 -5 -13 -5 -19 -1 -6 4 -8 20 -7 46 0 15 13 22 22 13z m570 -4 c9 -19
3 -36 -14 -36 -11 0 -18 7 -18 18 0 9 5 17 17 22 11 5 10 5 15 -4z m-1324 -23
c14 -7 33 -21 37 -27 4 -8 4 -22 -1 -28 -5 -6 -16 -8 -38 -4 -31 6 -42 12 -46
27 -4 15 1 29 13 35 11 5 22 4 35 -3z m1459 -76 c3 -3 3 -3 0 -6 -3 -3 -3 -3
-6 0 -3 2 -3 3 -1 6 4 4 4 4 7 0z m-156 -143 c5 -5 6 -7 6 -16 0 -15 -8 -23
-23 -23 -9 0 -11 1 -16 7 -9 8 -9 23 -1 32 9 9 24 9 34 0z m-399 -10 c4 -4 5
-9 4 -27 -1 -22 -7 -33 -18 -33 -8 0 -14 6 -14 15 -1 23 2 40 8 45 6 5 15 5
20 0z m-894 -45 c28 -6 44 -13 44 -20 0 -1 2 -7 5 -13 3 -6 5 -11 6 -12 1 -3
14 -14 16 -14 2 0 3 -1 3 -2 0 -1 2 -2 4 -3 9 -3 16 -11 16 -19 0 -8 -3 -12
-27 -29 -11 -8 -14 -11 -22 -27 -11 -22 -15 -26 -26 -26 -16 0 -18 7 -20 51
-1 29 -4 39 -11 45 -5 4 -24 11 -28 10 -27 -4 -33 28 -11 49 14 13 26 15 51
10z m1399 -59 c4 -6 4 -24 -1 -30 -7 -9 -27 -9 -34 0 -5 6 -5 24 0 30 7 9 27
9 35 0z m-108 -13 c8 -8 7 -20 -2 -28 -4 -4 -8 -7 -8 -6 -1 0 -4 0 -7 -1 -4
-1 -6 -1 -9 2 -2 2 -3 4 -2 4 1 0 1 1 -1 2 -1 2 -2 7 -2 12 0 13 6 20 18 20 6
0 9 -1 13 -5z m-400 -23 c10 -9 3 -26 -10 -26 -8 0 -15 7 -15 15 0 13 16 20
25 11z m307 -14 c6 -2 15 -4 19 -6 5 -2 15 -4 23 -4 14 -1 14 -1 17 -8 2 -4 4
-7 4 -8 3 -18 3 -20 -1 -24 -6 -6 -21 -4 -43 6 -5 2 -13 5 -18 6 -23 5 -33 12
-33 24 0 14 10 19 32 14z m-277 -74 c4 -6 4 -24 -1 -30 -7 -9 -27 -9 -34 0 -5
6 -5 24 0 30 7 9 27 9 35 0z m-981 -7 l-5 -5 -4 4 -5 5 4 4 5 5 4 -4 5 -5 -4
-4z m1085 -25 c1 -6 -12 -11 -17 -7 -2 2 -2 3 1 9 3 5 4 5 9 3 3 -1 6 -3 7 -5z
m-48 -59 c10 -9 6 -29 -10 -49 -11 -15 -17 -19 -29 -19 -9 0 -11 1 -16 7 -14
13 -4 40 23 60 10 8 25 8 32 1z m-914 -10 c4 -4 4 -12 -2 -28 -3 -8 -6 -20 -6
-28 -2 -28 -5 -32 -26 -40 -38 -16 -58 -13 -63 9 -3 12 0 22 10 35 5 7 12 18
16 24 8 16 10 17 35 24 11 3 21 6 22 6 5 2 12 1 14 -2z"/>
<path d="M606 2140 c-10 -9 -11 -10 -11 -21 0 -7 2 -18 5 -26 3 -10 4 -16 2
-19 -2 -5 3 -23 7 -28 6 -7 14 -7 26 -1 16 8 17 12 18 51 1 47 -2 54 -25 54
-12 0 -13 0 -22 -10z"/>
</g>
</svg>
