<?xml version="1.0" standalone="no"?>
<!DOCTYPE svg PUBLIC "-//W3C//DTD SVG 20010904//EN"
 "http://www.w3.org/TR/2001/REC-SVG-20010904/DTD/svg10.dtd">
<svg version="1.0" xmlns="http://www.w3.org/2000/svg"
 width="1100.000000pt" height="2850.000000pt" viewBox="0 0 1100.000000 2850.000000"
 preserveAspectRatio="xMidYMid meet">
<metadata>
Created by potrace 1.15, written by Peter Selinger 2001-2017
</metadata>
<g transform="translate(0.000000,2850.000000) scale(0.500000,-0.500000)"
fill="#000000" stroke="none">
<path d="M1076 3818 c-11 -13 -12 -16 -12 -83 l0 -61 6 -24 6 -24 -6 -25 c-4
-17 -6 -28 -6 -35 1 -10 0 -12 -5 -17 l-6 -6 -28 0 c-32 0 -39 -3 -52 -18 -12
-14 -18 -17 -33 -17 -7 0 -16 -1 -20 -2 -4 -1 -9 -2 -12 -3 -4 -1 -6 -2 -6 -3
0 0 0 -2 -1 -4 -3 -9 -5 -17 -5 -22 0 -5 1 -6 7 -7 8 -1 21 -13 31 -27 4 -7 9
-11 17 -15 l10 -5 46 0 46 1 6 -6 6 -6 0 -74 0 -74 -6 -6 c-3 -3 -6 -6 -7 -6
-3 1 -130 1 -134 0 -2 0 -12 -5 -21 -9 -21 -11 -33 -12 -40 -3 -3 3 -5 7 -5 9
0 5 -8 23 -13 32 -3 4 -9 10 -13 13 -16 8 -73 30 -90 34 -2 0 -7 2 -11 4 -9 3
-33 1 -45 -4 -4 -1 -14 -5 -23 -8 -9 -3 -17 -6 -18 -7 -3 -2 -17 -4 -23 -3 -8
2 -13 12 -11 23 3 22 0 34 -8 43 -7 8 -12 9 -25 5 -18 -6 -24 -16 -51 -79 -14
-34 -17 -41 -21 -49 -1 -3 -13 -31 -27 -63 -20 -47 -25 -58 -29 -59 -4 0 -7 5
-18 35 -13 35 -44 74 -82 102 -24 19 -69 43 -77 43 -10 0 -23 -4 -28 -9 -2 -3
-8 -6 -11 -8 -7 -3 -8 -3 -11 2 -3 2 -6 9 -8 15 -4 14 -12 25 -19 29 -6 3 -45
14 -51 13 -2 0 -9 -1 -15 -3 -11 -4 -14 -7 -28 -26 -3 -5 -9 -10 -12 -11 -6
-3 -34 -4 -35 -2 -2 3 -14 2 -18 -1 -2 -2 -2 -5 1 -19 4 -18 25 -58 33 -63 8
-5 31 -6 39 -2 8 4 26 4 35 0 3 -2 11 -7 18 -12 7 -4 21 -12 32 -18 22 -11 26
-15 26 -32 0 -31 -28 -36 -69 -13 -16 9 -34 3 -40 -14 -2 -8 -2 -10 1 -22 7
-25 11 -47 15 -74 7 -49 19 -63 71 -87 42 -20 95 -23 126 -9 13 6 24 22 31 45
4 12 8 15 25 18 l16 3 4 -5 c3 -3 5 -7 5 -9 0 -19 2 -55 4 -64 2 -10 2 -13 -2
-24 -5 -16 -18 -35 -25 -37 -4 -2 -11 -4 -17 -6 -26 -8 -35 -19 -49 -55 -8
-21 -8 -23 -5 -30 2 -5 16 -12 16 -8 0 1 3 1 7 0 3 0 10 1 14 3 24 10 36 -6
24 -30 -14 -28 -36 -40 -54 -29 -6 4 -10 4 -22 4 -20 -1 -20 -2 -41 -47 -21
-45 -43 -89 -53 -101 -2 -3 -7 -8 -12 -10 -8 -5 -10 -5 -60 -6 -56 -2 -57 -2
-57 -4 0 -1 -1 -2 -3 -2 -4 0 -14 -12 -18 -21 -5 -12 -4 -38 2 -52 8 -17 17
-23 50 -29 23 -4 48 -13 59 -22 14 -11 26 -14 59 -14 3 0 7 -2 10 -5 7 -7 6
-17 -2 -48 -5 -16 -7 -28 -8 -44 -1 -25 -3 -31 -15 -43 -10 -10 -17 -27 -17
-40 0 -12 -3 -51 -4 -62 0 -4 -2 -21 -4 -39 -5 -45 -2 -52 22 -54 6 -1 11 1
22 7 8 5 14 9 15 10 1 1 4 3 7 6 3 2 5 4 4 4 0 0 1 2 3 5 2 2 6 7 8 10 6 6 16
9 26 7 10 -2 14 -8 14 -21 0 -11 0 -11 -14 -26 -11 -10 -17 -19 -22 -29 -11
-21 -17 -26 -33 -25 -11 1 -17 4 -23 10 -4 6 -5 6 -20 5 -23 -1 -27 -7 -24
-35 7 -52 39 -97 89 -121 15 -7 18 -8 40 -10 14 -1 31 -3 39 -4 13 -2 36 -1
40 1 1 0 4 1 7 2 17 3 25 6 48 18 37 18 67 44 87 75 17 26 24 42 33 74 6 23 6
97 1 110 -5 11 -7 12 -25 12 -11 0 -13 -1 -18 -6 -6 -6 -8 -7 -21 -6 -17 0
-26 25 -13 38 7 7 16 8 29 4 22 -6 34 2 35 22 1 22 -10 40 -33 54 -20 12 -34
14 -57 8 -10 -3 -21 -5 -25 -4 -18 1 -26 25 -12 38 5 6 7 7 16 6 6 0 14 -1 17
-1 18 -5 35 1 40 12 4 8 5 21 4 24 -4 5 -18 47 -21 58 -1 4 -3 16 -4 25 -3 21
-8 31 -21 38 -6 2 -13 6 -16 7 -3 2 -6 3 -6 2 -1 0 -3 1 -5 3 -4 4 -4 5 -2 16
2 7 3 23 3 41 0 19 1 31 2 34 5 9 1 32 -8 44 -13 17 -9 43 7 50 8 3 20 3 30
-2 18 -7 38 -1 45 13 3 6 8 33 10 49 0 6 2 14 5 18 2 4 4 10 4 12 0 3 2 12 4
21 3 9 7 31 11 47 11 50 19 85 22 98 4 14 3 23 -5 43 -11 28 -10 33 13 51 17
14 29 46 25 66 -1 5 -4 13 -6 16 -17 23 -17 22 -15 36 1 13 8 38 11 42 4 5 7
31 4 43 -5 26 -1 38 15 42 15 4 21 7 21 10 0 3 1 2 8 -11 2 -4 4 -14 5 -29 1
-23 3 -34 7 -39 5 -7 10 -30 9 -43 -1 -18 -6 -37 -12 -45 -4 -5 -4 -8 -3 -13
1 -3 1 -7 0 -9 -3 -8 -2 -168 1 -176 4 -10 15 -17 31 -20 1 0 2 0 3 -1 3 -1
39 -1 44 1 9 2 15 8 21 20 8 14 14 19 25 19 9 0 17 -7 17 -15 0 -3 1 -8 1 -10
0 -3 -1 -11 -3 -19 -4 -16 -4 -30 0 -38 4 -7 13 -16 16 -16 2 0 4 -1 5 -1 2
-2 6 -3 17 -4 7 0 9 -1 12 -5 2 -5 2 -6 -1 -11 -4 -6 -6 -6 -30 3 -9 3 -21 6
-27 6 -11 1 -20 7 -20 13 0 1 -3 5 -7 9 -6 5 -8 6 -20 6 -9 0 -15 -1 -19 -4
-6 -3 -11 -4 -24 -4 -23 0 -34 -4 -40 -16 -4 -8 -4 -11 -4 -99 l0 -91 5 -11
c6 -12 15 -20 29 -27 13 -6 14 -8 14 -23 1 -18 -2 -22 -21 -35 -13 -9 -17 -13
-21 -22 l-6 -11 0 -103 1 -103 5 -11 c3 -6 7 -13 10 -15 16 -18 16 -40 0 -58
-3 -2 -7 -9 -10 -15 -5 -11 -5 -11 -6 -65 0 -47 0 -55 3 -61 4 -10 11 -13 24
-11 9 1 11 1 11 -1 0 -2 1 -1 3 1 5 7 17 12 32 12 16 1 23 3 42 13 25 12 42 9
52 -11 5 -11 16 -22 35 -40 12 -11 7 -34 -8 -35 -13 -1 -15 0 -29 13 -8 7 -18
16 -24 18 -9 5 -10 5 -22 3 -9 -2 -17 -5 -24 -10 -5 -4 -16 -11 -23 -15 -6 -5
-15 -10 -20 -11 -4 -1 -11 -3 -16 -4 -5 -2 -10 -3 -10 -2 -1 0 -2 -1 -2 -2 0
-1 -1 -2 -3 -2 -6 0 -17 -13 -19 -22 -1 -9 -1 -12 7 -22 6 -8 20 -15 35 -17 4
-1 12 -4 18 -6 6 -3 16 -6 21 -8 13 -2 25 3 41 19 13 14 18 16 30 17 15 0 21
-4 28 -17 11 -21 16 -26 37 -29 4 -1 7 0 7 1 0 1 1 2 3 2 9 0 60 31 66 41 6 8
3 26 -5 39 -11 18 -9 31 10 52 11 13 18 24 23 41 l5 17 0 96 c0 109 0 105 -15
131 -12 21 -12 31 -2 47 8 14 25 25 33 21 7 -4 26 -4 35 1 12 5 17 14 18 32 0
1 1 2 2 2 1 0 -1 2 -3 4 l-4 3 5 5 c3 3 10 6 14 8 12 3 18 8 21 18 4 15 3 19
-8 30 -15 15 -27 18 -59 18 l-26 -1 -6 6 c-3 4 -6 8 -5 10 0 3 -4 15 -13 36
-6 15 -6 19 0 34 12 27 13 32 13 48 0 13 1 16 5 23 3 4 5 9 5 10 0 2 1 1 3 -1
5 -8 17 -9 63 -9 l43 1 6 -6 c5 -5 6 -8 5 -13 0 -3 2 -10 5 -17 5 -11 10 -15
29 -29 15 -12 17 -32 6 -48 -9 -13 -10 -33 -1 -39 6 -4 22 -5 31 -2 11 4 21 2
32 -6 11 -7 12 -11 7 -21 -1 -3 -3 -6 -3 -7 -3 -13 -10 -18 -26 -18 -8 0 -13
2 -20 6 -12 7 -26 7 -33 0 -6 -5 -6 -5 -6 -25 1 -17 0 -22 -3 -30 -5 -10 -7
-27 -4 -34 2 -5 3 -5 12 -4 7 0 11 0 12 -2 2 -2 2 -2 2 1 0 4 25 29 30 30 3 0
9 1 14 2 12 2 33 9 36 12 4 5 18 11 25 11 9 0 15 -7 15 -16 0 -9 -3 -11 -20
-21 -8 -3 -16 -8 -18 -11 -3 -2 -5 -4 -6 -4 -3 0 -4 -17 -2 -22 4 -12 14 -17
33 -19 7 -1 15 -6 17 -12 2 -5 5 -26 4 -34 0 -7 3 -13 8 -13 2 0 10 -4 12 -6
1 -1 5 -4 10 -6 13 -5 16 -10 16 -25 0 -10 -1 -12 -6 -17 -3 -3 -7 -6 -9 -6
-19 -1 -27 2 -31 11 -2 5 -5 26 -4 34 0 7 -3 13 -8 13 -2 0 -10 4 -12 6 -1 1
-10 6 -21 10 -19 8 -22 9 -43 10 l-24 1 -8 8 c-4 4 -8 9 -8 10 0 2 -27 1 -32
-2 -7 -3 -8 -15 -8 -86 0 -74 1 -81 9 -89 6 -6 31 -11 32 -7 2 5 8 3 12 -2 3
-5 3 -5 0 -10 -4 -5 -10 -7 -12 -2 -1 2 -3 2 -14 0 -24 -4 -27 -11 -27 -62 0
-29 1 -38 3 -44 4 -9 14 -21 18 -21 2 0 3 -1 3 -2 0 -2 11 -3 59 -3 49 0 70 2
112 10 18 4 52 14 64 19 5 2 10 4 10 4 4 0 31 18 36 24 12 13 16 25 17 57 1
28 1 31 6 37 2 3 4 7 4 8 0 1 2 1 4 -2 6 -8 57 -23 89 -27 5 0 13 -5 24 -12
16 -11 17 -11 33 -12 l17 -2 1 8 c0 4 1 9 1 10 2 2 1 19 -1 22 0 1 -1 2 -1 3
-1 6 -4 10 -9 11 -17 4 -33 10 -36 13 -4 5 -5 23 -2 25 1 1 2 3 1 5 0 2 -1 7
-2 12 -2 12 -9 21 -19 24 -8 2 -46 5 -70 5 -16 0 -27 -3 -29 -9 0 -2 -1 -2 -1
1 0 2 -2 6 -4 9 -2 3 -5 10 -7 16 -2 6 -5 17 -8 24 -5 17 -5 28 2 48 4 14 6
21 6 36 0 18 0 19 6 25 l6 6 24 -1 c24 0 25 0 46 8 13 4 25 8 27 8 2 0 14 -4
27 -8 12 -5 24 -8 27 -8 4 1 7 -1 10 -5 l6 -6 0 -70 c0 -46 -1 -71 -2 -72 -4
-5 -7 -34 -3 -34 1 1 2 -1 2 -4 0 -3 1 -4 6 -3 3 0 5 -1 5 -2 0 -1 1 -1 3 1 2
2 4 3 5 2 1 -1 2 0 2 1 0 2 1 2 1 1 1 0 3 0 4 2 2 2 5 3 7 3 2 0 4 1 4 2 0 3
10 4 23 4 10 0 17 1 35 5 10 2 15 19 13 45 l-2 20 7 6 c5 5 7 6 17 6 10 0 12
-1 17 -6 9 -9 9 -23 -2 -39 -5 -8 -9 -17 -10 -23 -2 -11 -2 -13 -2 -29 0 -11
-5 -16 -22 -19 -35 -6 -41 -12 -51 -45 -6 -21 -8 -24 -23 -28 -6 -2 -12 -4
-13 -5 -1 -1 -6 -1 -10 -1 l-9 1 0 -7 c0 -15 -9 -33 -25 -48 -20 -19 -21 -22
-16 -72 1 -5 2 -19 3 -30 1 -12 3 -22 5 -26 4 -6 5 -6 21 -7 12 -1 16 0 16 1
0 4 8 9 16 9 8 0 19 -7 21 -12 2 -7 18 -18 29 -21 10 -2 13 -2 28 1 53 12 105
34 120 50 9 10 15 26 13 39 0 8 0 9 6 12 3 2 8 4 10 4 9 0 35 12 42 20 9 8 22
38 26 56 0 2 2 8 3 13 6 26 8 52 9 118 2 77 1 82 -10 92 -4 3 -9 6 -12 7 -10
2 -16 2 -19 -1 -10 -10 -30 -20 -39 -20 -14 0 -22 16 -15 28 3 5 25 16 50 24
30 10 39 16 44 30 3 9 3 457 0 459 -1 1 -2 3 -2 5 0 5 -17 22 -21 22 -4 0 -17
13 -17 18 0 5 13 18 17 18 4 0 21 17 21 22 0 2 1 4 2 5 1 1 2 32 2 86 0 103
-2 96 28 111 19 9 27 15 41 28 12 11 15 17 15 29 0 24 -20 41 -56 45 -9 1 -22
3 -29 5 -14 3 -25 2 -42 -6 -25 -12 -44 -6 -49 14 -3 14 0 25 11 34 11 10 14
15 14 27 -1 12 -2 20 -5 20 -1 0 -3 2 -5 4 -2 1 -9 7 -16 12 -7 5 -12 9 -13
10 -1 1 -6 5 -13 10 -7 5 -12 9 -13 10 -1 1 -9 7 -18 14 -9 7 -20 15 -25 19
-6 4 -10 6 -19 7 -16 1 -23 -3 -40 -23 -8 -9 -15 -16 -16 -17 -8 -8 -70 -81
-73 -86 -3 -4 -7 -15 -11 -26 -4 -11 -8 -19 -11 -21 -9 -6 -41 -5 -41 1 0 1
-2 2 -5 3 -3 1 -5 2 -5 3 1 0 0 4 -2 7 -1 3 -2 6 -2 8 0 1 -1 5 -2 8 -3 9 -18
12 -45 11 -21 -1 -31 -4 -31 -10 0 -3 0 -3 -2 0 -3 5 -7 -1 -9 -11 0 -4 -2
-10 -3 -13 -1 -3 -1 -6 -1 -7 3 -2 -3 -21 -8 -24 -14 -13 -34 -11 -49 6 -17
17 -22 31 -16 39 4 4 6 5 25 6 19 1 24 3 43 12 5 3 7 20 7 91 l0 70 6 6 6 6
46 -1 c49 0 56 1 65 9 6 4 20 28 23 37 1 3 4 7 6 9 3 3 5 7 6 13 0 5 1 11 2
13 1 1 1 4 0 6 -1 1 -4 6 -5 11 -2 5 -4 9 -5 9 -2 1 -3 3 -3 4 0 1 -5 5 -10 8
-11 5 -11 5 -58 5 -43 0 -48 0 -56 -4 -9 -4 -19 -14 -21 -21 -1 -2 -3 -6 -5
-9 -2 -3 -3 -6 -3 -6 1 -1 -2 -4 -5 -7 -9 -8 -24 -8 -32 1 -6 5 -7 7 -7 16 0
12 2 14 24 27 14 9 17 11 21 21 7 14 8 26 2 40 -6 15 -13 17 -42 16 l-22 0 -6
6 c-6 6 -6 7 -6 19 2 25 18 36 55 39 46 4 76 26 91 66 6 15 6 25 -2 37 -5 9
-23 17 -37 18 -169 14 -157 13 -170 9 l-13 -3 0 -16 0 -17 8 -5 c10 -7 14 -15
14 -24 0 -10 -7 -17 -17 -17 -11 0 -15 3 -22 20 -8 18 -14 23 -34 33 -8 4 -15
9 -16 11 -3 10 -44 8 -50 -2 -4 -7 -21 4 -28 17 -5 11 -10 13 -23 14 -10 0
-12 -1 -16 -5z m93 -150 c11 -10 3 -28 -11 -28 -9 0 -16 6 -16 16 0 14 17 22
27 12z m70 -129 l6 -5 1 -37 c0 -33 0 -39 -3 -45 -5 -8 -22 -17 -37 -18 -20
-1 -25 10 -14 39 4 10 5 17 5 37 0 24 0 24 6 29 8 7 28 7 36 0z m34 -163 c5
-5 6 -7 6 -16 0 -15 -8 -23 -23 -23 -9 0 -11 1 -16 7 -9 8 -9 23 -1 32 9 9 24
9 34 0z m-113 -56 c5 -5 5 -15 0 -20 -9 -9 -24 -2 -24 10 0 8 6 14 14 14 3 0
8 -2 10 -4z m598 -27 c14 -9 17 -39 4 -48 -3 -1 -18 -5 -33 -8 -40 -7 -45 -7
-53 1 -8 8 -9 27 -1 35 3 4 25 14 48 23 8 3 27 1 35 -3z m-487 -8 c12 -12 3
-31 -13 -31 -11 0 -18 7 -18 18 0 11 7 18 18 18 6 0 9 -1 13 -5z m236 -87 c2
-2 2 -4 1 -4 -1 0 -2 -1 -2 -3 0 -2 -3 -7 -7 -12 -4 -5 -7 -10 -7 -11 0 -1 -1
-2 -3 -2 -1 0 -2 -3 -1 -13 1 -16 -1 -18 -18 -19 -9 -1 -11 -1 -16 4 l-6 5 5
10 c3 5 7 16 10 23 7 16 14 26 20 26 2 0 5 1 7 2 3 2 11 -1 17 -6z m-327 -2
c5 -5 5 -11 0 -16 -10 -10 -27 5 -16 16 4 4 12 4 16 0z m-332 -3 c3 -2 7 -6 9
-10 8 -13 3 -50 -8 -60 -8 -7 -28 -7 -36 0 -6 4 -6 6 -6 21 -1 18 5 43 10 50
5 5 24 5 31 -1z m870 -10 c6 -5 7 -9 9 -42 0 -17 1 -35 2 -42 2 -16 0 -17 -32
-23 -41 -7 -41 -7 -46 -2 -9 8 -7 19 13 55 2 4 4 10 5 13 3 19 9 36 14 40 7 6
26 6 35 1z m-722 -23 c2 -2 9 -6 16 -9 4 -2 9 -4 11 -5 2 -1 13 -5 24 -9 21
-8 26 -9 55 -6 11 1 21 0 34 -2 14 -2 32 -3 69 -3 l51 0 6 -6 c3 -3 5 -6 5 -6
0 -1 -2 -12 -3 -26 -1 -23 -1 -26 2 -35 4 -10 5 -11 15 -16 6 -3 16 -6 21 -7
7 0 10 -2 13 -5 3 -5 3 -5 -1 -14 -2 -5 -5 -10 -7 -12 -1 -1 -4 -7 -7 -12 -3
-5 -9 -14 -14 -18 -13 -12 -20 -19 -26 -29 -4 -4 -9 -11 -13 -15 l-7 -6 -7 9
c-12 14 -13 16 -13 37 1 25 -2 32 -19 52 -12 14 -33 35 -47 46 -9 8 -30 9 -48
3 -22 -7 -33 -6 -68 12 -13 6 -28 13 -34 15 -10 3 -27 17 -24 20 0 1 -1 1 -3
1 -1 0 -3 1 -3 3 0 1 -2 7 -5 12 -7 15 -7 23 2 32 l7 7 9 -3 c4 -2 8 -4 9 -5z
m574 -51 c-2 -3 -4 -8 -4 -9 0 -2 -1 -4 -2 -3 -4 0 -12 -17 -14 -29 -1 -13 -7
-19 -20 -18 -12 0 -18 6 -18 19 0 5 1 10 2 12 1 2 2 6 1 12 -2 17 -3 21 -7 22
-2 0 -2 1 1 1 2 0 5 1 6 2 4 3 18 7 34 8 16 1 16 1 20 -5 5 -5 5 -5 1 -12z
m-898 -14 c-5 -5 -5 -5 -9 -2 -2 2 -4 4 -5 4 0 1 1 3 4 6 l5 5 4 -4 5 -5 -4
-4z m1094 -47 c3 -5 3 -5 0 -12 -4 -7 -5 -8 -12 -8 -7 0 -8 0 -8 6 0 3 -1 7
-1 8 0 2 12 10 16 10 1 0 3 -2 5 -4z m-802 -36 c2 -11 5 -24 5 -28 1 -4 2 -14
3 -23 3 -23 4 -72 2 -99 -5 -47 9 -63 46 -53 7 2 15 3 17 3 6 0 13 -8 13 -15
0 -10 -5 -14 -18 -16 -14 -1 -30 -7 -44 -15 -6 -4 -13 -7 -16 -6 -4 0 -9 -1
-11 -2 -4 -1 -6 -1 -11 4 -7 8 -8 13 -7 30 1 7 2 65 3 129 0 64 2 117 3 119 1
1 3 2 4 2 2 0 3 2 3 5 0 2 1 0 2 -5 1 -5 3 -18 6 -30z m-230 17 c2 -2 5 -8 5
-12 2 -15 -10 -22 -23 -14 -2 1 -6 14 -6 19 0 11 16 16 24 7z m115 1 c11 -10
3 -28 -11 -28 -9 0 -16 6 -16 16 0 14 17 22 27 12z m895 -14 c0 -5 -1 -10 -2
-11 -1 -1 -3 -6 -5 -12 -5 -12 -9 -15 -22 -15 -13 0 -19 6 -19 20 0 6 1 11 4
14 5 6 35 17 42 14 1 0 2 -4 2 -10z m-173 -8 c4 -4 4 -6 5 -70 1 -48 2 -66 3
-68 2 -2 3 -4 2 -4 -1 -2 7 -3 21 -3 6 0 12 -1 12 -2 0 -3 10 26 11 33 0 3 1
9 2 13 2 11 8 17 16 17 12 0 14 -6 16 -33 0 -13 2 -30 2 -37 2 -20 -5 -28 -34
-37 -7 -2 -14 -4 -17 -5 -8 -3 -28 -4 -37 -1 -6 2 -8 3 -11 12 -3 8 -7 13 -17
21 -8 6 -20 16 -27 23 -7 6 -19 16 -27 23 -26 20 -26 26 1 66 22 33 27 38 49
46 14 5 23 11 23 16 0 2 1 2 1 -1 1 -2 3 -6 6 -9z m-458 -42 c5 -5 6 -7 6 -16
0 -15 -8 -23 -23 -23 -9 0 -11 1 -16 7 -9 8 -9 23 -1 32 9 9 24 9 34 0z m265
2 c14 -7 16 -25 6 -46 -9 -17 -18 -30 -22 -31 -2 -1 -4 -2 -4 -3 0 -4 -15 -10
-17 -7 -1 1 -6 5 -10 8 -9 7 -13 18 -15 45 -2 16 -2 21 0 23 3 4 20 12 27 14
10 2 28 1 35 -3z m-184 -86 c5 -2 9 -6 11 -12 l5 -9 13 1 c10 0 13 0 13 -2 0
-2 1 -5 1 -7 1 -2 2 -15 2 -28 1 -24 1 -25 -4 -35 -3 -5 -6 -10 -7 -10 -7 0
-27 -36 -36 -65 -7 -19 -14 -27 -25 -27 -6 0 -9 1 -13 5 -4 4 -5 7 -6 33 -2
38 -1 40 16 63 15 19 15 25 1 63 -9 25 7 42 29 30z m-725 -13 c5 -8 1 -16 -8
-16 -9 0 -13 8 -8 16 2 3 5 5 8 5 3 0 6 -2 8 -5z m875 -18 c-1 -4 1 -9 3 -11
3 -4 3 -4 0 -9 -2 -3 -5 -5 -7 -5 -2 0 -5 2 -7 5 -3 5 -3 6 0 9 2 2 3 4 3 6 0
1 1 3 3 3 2 1 3 3 3 5 0 2 0 4 1 4 0 0 1 -3 1 -7z m217 -63 c3 -3 5 -7 4 -8
-1 -1 -2 -5 -2 -9 -2 -9 -8 -15 -18 -15 -11 0 -17 6 -17 17 0 12 7 17 26 21 1
0 4 -3 7 -6z m-1101 -39 c0 -1 -2 -3 -3 -5 -4 -4 -4 -4 -8 0 l-5 5 4 4 c4 5 5
5 8 2 2 -2 4 -5 4 -6z m636 -1 c6 -11 -10 -22 -17 -12 -4 6 -4 10 2 14 5 5 11
4 15 -2z m-376 -46 c8 -8 8 -23 0 -36 -10 -15 -14 -28 -15 -43 0 -15 -10 -12
-10 3 0 16 -2 25 -9 38 -13 26 -6 44 17 44 10 0 12 -1 17 -6z m868 -7 c2 -2 3
-6 3 -9 -1 -3 0 -13 2 -21 3 -13 5 -17 11 -24 14 -15 15 -35 2 -48 -5 -5 -7
-9 -8 -17 -1 -18 5 -26 23 -27 15 -2 22 -9 22 -23 0 -15 -8 -23 -23 -23 -6 0
-11 2 -14 4 -3 2 -6 3 -8 3 -2 0 -4 1 -4 2 0 1 -2 2 -5 4 -4 2 -11 12 -12 18
-1 2 -3 5 -7 8 -13 11 -18 15 -29 25 -7 5 -18 15 -25 21 -7 6 -21 18 -31 26
-17 14 -18 14 -29 14 -12 0 -21 -3 -27 -10 -7 -8 -19 -26 -19 -28 0 -2 -3 1
-6 5 -5 8 -6 9 -6 33 0 14 0 25 -1 26 0 0 2 3 6 7 l6 6 20 -1 c21 0 31 2 45
11 20 15 29 17 60 19 16 1 29 2 29 3 1 0 5 0 11 0 9 1 11 0 14 -4z m170 -23
c7 -6 7 -18 1 -26 -10 -11 -23 -5 -23 11 0 16 11 24 22 15z m-1464 -59 l-5 -5
-4 4 -5 5 4 4 5 5 4 -4 5 -5 -4 -4z m530 -69 c5 -5 5 -15 0 -20 -9 -9 -24 -2
-24 10 0 8 6 14 14 14 3 0 8 -2 10 -4z m967 -7 c3 -3 3 -3 0 -6 -3 -3 -3 -3
-6 0 -3 2 -3 3 -1 6 4 4 4 4 7 0z m-559 -26 c-4 -5 -5 -5 -11 -1 -8 4 -8 4 0
9 l6 5 5 -5 4 -4 -4 -4z m626 5 c5 -6 5 -12 0 -18 -7 -8 -22 -2 -22 9 0 11 15
17 22 9z m-300 -20 c3 -3 4 -7 4 -13 0 -12 -6 -19 -18 -19 -16 0 -25 19 -13
31 6 7 21 7 27 1z m-1216 -32 c1 0 5 -3 8 -6 5 -5 6 -7 6 -18 0 -11 -1 -13 -6
-18 -6 -6 -7 -6 -18 -6 -11 0 -12 0 -18 6 -5 5 -6 7 -6 17 0 14 3 20 12 24 5
2 8 2 22 1z m531 -6 c14 -4 18 -18 12 -34 -5 -11 -15 -17 -30 -17 -12 0 -25 5
-25 10 0 1 -1 4 -1 6 -2 8 1 25 6 30 7 9 21 10 38 5z m461 -8 c5 -5 6 -7 6
-17 0 -10 -1 -12 -6 -17 -5 -5 -7 -6 -17 -6 -10 0 -12 1 -17 6 -5 5 -6 7 -6
17 0 10 1 12 6 17 5 5 7 6 17 6 10 0 12 -1 17 -6z m510 -6 c5 -5 5 -11 0 -16
-10 -10 -27 5 -16 16 4 4 12 4 16 0z m-1111 -18 c10 -10 14 -15 13 -16 -3 -4
-5 -5 -7 -6 -25 -3 -27 -3 -32 2 -11 10 -4 28 11 28 6 0 9 -2 15 -8z m56 -26
c13 -3 18 -9 17 -21 -1 -15 -14 -22 -28 -14 -5 3 -12 15 -13 19 0 1 -2 4 -4 6
-3 4 -3 8 2 8 2 0 3 1 3 2 0 2 12 2 23 0z m881 -26 c5 -6 5 -12 0 -18 -7 -8
-22 -2 -22 9 0 11 15 17 22 9z m85 -4 c11 -10 3 -28 -11 -28 -9 0 -16 6 -16
16 0 14 17 22 27 12z m-959 -125 c2 -2 7 -10 10 -17 8 -14 14 -25 17 -26 4 -2
11 -17 11 -26 0 -12 -6 -18 -19 -18 -11 0 -16 4 -23 18 -5 11 -10 14 -26 14
-10 0 -13 -1 -18 -5 -8 -8 -16 -12 -27 -12 -19 0 -28 9 -28 28 0 18 7 25 26
28 12 2 37 10 47 15 9 5 24 5 30 1z m-494 -12 l-5 -5 -4 4 -5 5 4 4 5 5 4 -4
5 -5 -4 -4z m67 -101 c11 -10 3 -28 -11 -28 -9 0 -16 6 -16 16 0 14 17 22 27
12z m900 -7 c4 -6 2 -13 -6 -18 -6 -4 -41 -15 -47 -15 -7 0 -14 7 -14 15 0 10
6 14 29 18 30 6 34 6 38 0z m510 -97 c4 -4 10 -17 12 -28 1 -9 -8 -14 -26 -14
-12 0 -14 1 -19 6 -5 5 -6 7 -6 17 0 10 1 12 6 17 7 8 24 9 33 2z"/>
<path d="M167 3799 c-1 0 -7 -2 -13 -3 -7 -1 -12 -4 -12 -5 0 -1 -1 -1 -1 0
-1 0 -5 -3 -10 -7 -8 -8 -8 -9 -7 -19 1 -16 3 -17 28 -16 25 1 29 -1 35 -16 4
-14 4 -27 -2 -44 -7 -21 -8 -38 -2 -46 2 -3 8 -12 12 -20 4 -8 9 -15 10 -17
10 -13 47 -95 59 -133 11 -34 14 -42 21 -51 6 -9 11 -15 13 -15 1 0 5 -2 10
-5 5 -2 12 -5 16 -6 4 -1 8 -4 9 -5 6 -6 12 -9 30 -14 25 -7 67 -8 89 -2 54
14 101 57 121 108 4 10 8 19 9 20 1 2 2 3 1 3 -1 0 0 1 1 3 2 1 4 2 5 1 1 0 1
1 1 4 -1 2 -1 4 0 4 3 0 2 -9 0 -12 -2 -1 -2 -2 0 -2 2 0 5 -7 9 -22 8 -29 15
-45 26 -52 14 -9 19 -10 61 -10 37 0 40 0 48 5 12 6 18 18 20 41 2 21 4 23 24
27 14 3 46 13 41 13 -2 0 -3 4 -3 12 0 15 -1 17 -10 22 -7 4 -12 4 -96 4 -82
0 -90 0 -97 -4 -9 -4 -17 -12 -17 -17 0 -2 -1 -3 -3 -3 -2 0 -3 1 -3 2 0 1 -2
5 -4 7 -2 3 -4 5 -4 3 0 -1 -2 0 -4 1 -2 2 -4 5 -4 6 0 3 -25 11 -35 11 -16 0
-22 7 -21 22 0 12 3 15 17 23 15 8 19 14 21 28 1 12 -1 14 -15 32 -41 52 -108
91 -196 117 -38 11 -99 22 -142 25 -9 1 -20 2 -25 2 -5 0 -10 1 -11 0z m140
-89 c11 -10 3 -28 -11 -28 -9 0 -16 6 -16 16 0 14 17 22 27 12z m169 -170 c5
-5 5 -15 0 -20 -9 -9 -24 -2 -24 10 0 8 6 14 14 14 3 0 8 -2 10 -4z m-70 -26
c5 -5 5 -15 0 -20 -9 -9 -24 -2 -24 10 0 8 6 14 14 14 3 0 8 -2 10 -4z m-51
-73 c3 -5 3 -5 -1 -10 -6 -6 -7 -6 -12 -1 -5 5 -5 5 0 11 4 6 8 6 13 0z"/>
<path d="M1678 3725 c-22 -14 -36 -47 -40 -92 -2 -25 -5 -31 -17 -39 -9 -6
-18 -16 -23 -27 -6 -12 -5 -23 3 -41 3 -7 6 -17 6 -21 1 -8 1 -9 -11 -21 -6
-7 -13 -12 -15 -12 -2 0 -3 -1 -3 -1 -1 -6 -2 -10 -4 -11 -2 -1 -1 -2 1 -3 2
-1 3 -3 3 -7 -1 -6 4 -14 11 -21 10 -9 10 -9 134 -9 l116 0 11 5 c9 5 10 6 14
16 2 6 5 17 5 23 2 19 8 25 25 25 11 0 19 -5 22 -13 11 -27 15 -31 33 -30 12
1 17 5 25 20 11 23 4 38 -37 73 -7 6 -15 14 -20 18 -12 11 -25 13 -50 7 -18
-4 -20 -2 -20 25 0 28 -2 30 -34 56 -14 12 -26 22 -27 23 -1 1 -5 5 -11 9 -5
4 -12 10 -14 12 -2 2 -7 6 -11 9 -4 3 -7 5 -8 6 -1 1 -8 7 -17 14 -15 12 -15
12 -28 12 -10 0 -14 -1 -19 -5z"/>
<path d="M843 3463 c-6 -2 -13 -3 -17 -3 -4 0 -5 -1 -3 -1 3 -1 3 -4 3 -19 0
-12 1 -18 2 -17 1 1 2 0 2 -1 0 -3 34 -2 36 2 0 1 1 2 2 2 3 0 8 5 8 7 -1 4 9
21 13 23 3 1 5 4 4 6 0 2 -1 3 -1 3 -1 -1 -1 -2 -1 -4 1 -1 1 -1 -1 0 -2 2 -5
3 -7 3 -2 0 -10 0 -17 0 -7 1 -18 0 -23 -1z"/>
</g>
</svg>
