<?xml version="1.0" standalone="no"?>
<!DOCTYPE svg PUBLIC "-//W3C//DTD SVG 20010904//EN"
 "http://www.w3.org/TR/2001/REC-SVG-20010904/DTD/svg10.dtd">
<svg version="1.0" xmlns="http://www.w3.org/2000/svg"
 width="1100.000000pt" height="2850.000000pt" viewBox="0 0 1100.000000 2850.000000"
 preserveAspectRatio="xMidYMid meet">
<metadata>
Created by potrace 1.15, written by Peter Selinger 2001-2017
</metadata>
<g transform="translate(0.000000,2850.000000) scale(0.500000,-0.500000)"
fill="#000000" stroke="none">
<path d="M838 3834 c-12 -4 -25 -13 -23 -16 1 -1 0 -2 -1 -2 -4 0 -6 -17 -6
-49 0 -32 0 -34 5 -44 5 -8 7 -12 16 -18 1 -1 7 -5 13 -9 6 -4 13 -8 15 -10 5
-6 9 -19 9 -31 -1 -11 3 -25 7 -32 5 -8 19 -14 28 -11 22 5 41 5 49 1 16 -10
17 -54 3 -60 -12 -5 -19 -5 -42 0 -30 6 -33 7 -49 19 -7 5 -15 10 -18 11 -3 2
-11 5 -18 9 -13 6 -19 6 -36 3 -7 -1 -20 -10 -20 -13 0 -3 -15 -9 -23 -9 -10
-1 -24 6 -26 11 -1 2 -2 4 -3 4 0 0 -4 3 -7 6 -5 5 -13 7 -29 11 -4 1 -6 0 -7
-3 -2 -5 -4 -28 -3 -28 3 0 12 -26 13 -36 2 -15 12 -34 23 -41 l9 -6 40 0 40
0 6 -6 c4 -4 6 -7 5 -7 -2 0 0 -27 2 -28 1 0 2 -1 1 -2 -1 -1 0 -3 2 -3 2 -1
3 -2 3 -4 0 -1 5 -2 15 -1 13 0 15 0 15 -3 1 -8 4 16 4 30 0 29 15 31 35 5 2
-3 9 -9 16 -13 11 -8 12 -8 23 -7 8 1 13 2 15 5 1 1 3 3 4 3 1 0 6 5 12 11 10
11 11 11 21 11 14 0 20 -6 20 -20 0 -8 -1 -11 -5 -15 -4 -5 -6 -5 -23 -5 -24
0 -24 0 -54 -31 -16 -17 -25 -24 -35 -29 -17 -9 -27 -19 -35 -35 -9 -16 -9
-17 -21 -20 -17 -5 -42 -6 -53 -1 -11 5 -31 10 -40 9 -28 -3 -32 -1 -41 15 -9
19 -9 19 -26 20 l-15 1 -8 -10 c-11 -12 -18 -16 -31 -16 -13 0 -17 3 -30 16
-21 21 -15 20 -133 21 -98 0 -104 0 -115 -4 -23 -8 -30 -8 -43 -5 -22 5 -33 3
-40 -7 -7 -13 -7 -20 3 -50 17 -50 25 -57 72 -58 23 0 30 0 43 4 32 9 32 9 64
0 14 -4 20 -4 106 -4 l92 0 22 7 c26 8 30 8 58 -1 21 -6 22 -6 55 -6 l34 1 6
-6 6 -6 -1 -55 c-1 -30 -2 -56 -3 -58 0 -2 -2 -10 -3 -19 -1 -9 -2 -18 -3 -20
0 -2 -1 -6 -1 -8 -1 -17 -35 -25 -47 -11 -12 16 -16 20 -21 23 -7 3 -22 5 -35
3 -11 -1 -25 2 -31 7 -10 9 -30 12 -41 6 -8 -4 -9 -8 -9 -29 0 -20 -4 -26 -18
-26 -13 0 -19 7 -17 20 5 38 -1 46 -41 53 -15 3 -45 3 -210 3 -124 0 -192 -1
-192 -2 0 -1 -1 -2 -3 -2 -6 0 -10 -8 -11 -22 -1 -8 -1 -14 0 -14 1 0 6 -8 11
-19 5 -10 12 -21 14 -24 3 -3 9 -10 13 -16 13 -15 19 -19 31 -19 10 0 12 1 19
9 5 4 12 12 15 17 3 4 8 9 10 11 6 3 26 2 31 -2 7 -4 45 -5 39 0 -2 2 -3 3 -1
3 1 0 2 1 2 3 0 1 2 3 5 4 3 1 5 2 5 3 0 4 7 2 10 -3 4 -5 3 -11 0 -11 -1 0
-1 -2 0 -4 1 -3 2 -9 3 -14 2 -12 6 -17 16 -15 4 0 8 2 9 3 2 3 2 3 2 0 0 -1
3 1 7 5 3 5 7 8 8 9 0 0 1 1 0 2 -1 1 0 2 1 2 1 0 2 4 3 8 2 10 7 16 14 16 7
0 11 -4 14 -16 5 -16 11 -25 19 -31 l7 -4 124 -1 123 0 20 6 c26 7 30 7 55 0
13 -4 24 -6 33 -6 11 0 14 -1 21 -5 4 -4 7 -7 7 -8 0 -5 13 -26 20 -33 8 -9
22 -12 42 -9 21 3 30 -1 33 -13 0 -3 1 -8 2 -12 3 -14 -8 -21 -22 -14 -10 5
-38 8 -48 5 -3 0 -8 -4 -12 -9 -7 -7 -18 -26 -16 -26 1 0 -1 -2 -6 -5 -4 -3
-7 -6 -7 -7 0 0 -118 -1 -261 0 -187 0 -264 -1 -270 -2 -13 -4 -21 -13 -24
-29 -2 -9 14 -57 23 -71 9 -15 23 -21 52 -22 27 0 35 1 41 7 3 3 6 5 7 4 1 -1
1 0 1 1 -1 2 -1 8 -2 15 0 9 1 11 3 11 2 0 2 1 -1 2 -7 3 -10 8 -10 18 0 15 8
23 23 23 15 0 23 -8 23 -23 0 -10 -3 -15 -10 -18 -3 -1 -3 -2 -1 -2 2 0 3 -2
3 -10 -1 -10 -2 -12 -7 -16 -4 -3 -7 -5 -8 -5 0 1 -2 0 -4 -1 -6 -3 -5 -12 1
-14 4 -2 4 -3 1 -6 -5 -7 -2 -28 7 -36 4 -5 11 -19 10 -22 -1 -5 -6 -14 -7
-14 -3 0 -6 -11 -6 -25 0 -12 1 -14 4 -16 8 -5 10 -13 10 -37 0 -13 0 -27 1
-31 3 -15 11 -40 15 -43 6 -6 31 -4 36 2 4 5 17 10 25 10 10 0 19 -6 19 -13 0
-2 4 -16 9 -31 9 -26 12 -45 10 -56 -2 -6 -12 -12 -18 -10 -3 1 -8 2 -12 3
-18 2 -23 6 -29 25 -3 8 -6 15 -8 17 -6 5 -25 6 -33 2 -3 -1 -11 -4 -17 -5
-18 -4 -32 -10 -53 -27 -12 -9 -21 -16 -21 -17 0 0 -3 -4 -6 -8 -5 -6 -6 -8
-5 -14 2 -19 6 -24 25 -33 18 -8 20 -11 20 -24 0 -13 -6 -19 -18 -19 -5 0 -12
1 -15 3 -4 2 -10 3 -19 2 -19 -2 -24 -6 -32 -26 -4 -9 -16 -36 -28 -60 -12
-24 -22 -46 -23 -48 -1 -2 -1 -14 -1 -26 l0 -22 -7 -7 c-4 -3 -8 -6 -9 -6 -2
0 -9 -8 -12 -14 -3 -6 -6 -21 -6 -31 0 -11 -5 -16 -20 -19 -18 -3 -22 -4 -28
-7 -6 -3 -15 -11 -21 -19 -7 -10 -36 -43 -46 -53 -11 -12 -13 -16 -13 -28 0
-12 5 -18 18 -21 8 -2 10 -1 22 4 15 6 27 10 34 10 5 0 18 -6 24 -11 7 -6 30
-15 38 -15 17 0 35 12 39 25 5 18 14 37 21 45 2 3 6 8 8 11 2 4 5 7 6 7 5 0 9
27 5 31 0 1 -1 4 -1 6 0 3 -1 8 -3 11 -3 6 -3 6 0 11 2 3 5 5 7 5 4 0 11 -9 9
-12 -2 -4 -3 -14 -1 -14 1 0 1 -1 1 -3 -1 -1 0 -4 2 -5 1 -2 2 -4 2 -5 0 -1 3
-4 7 -6 6 -3 9 -3 22 -2 8 1 22 2 30 2 33 1 43 4 59 20 1 1 7 6 13 11 25 21
35 31 39 41 3 6 7 12 8 15 3 5 4 6 1 11 -4 8 -8 9 -17 7 -10 -3 -25 -1 -30 5
-6 5 -7 16 -2 29 5 14 12 21 29 30 10 5 22 12 29 16 21 15 34 18 49 11 9 -5
27 -5 36 -2 6 3 21 21 27 34 2 3 4 6 5 7 1 1 2 5 4 11 1 5 3 10 4 10 1 1 2 3
2 6 0 2 1 3 1 2 1 -2 2 -3 4 -3 1 0 7 -5 12 -11 14 -14 14 -20 4 -38 -9 -16
-9 -34 -1 -44 3 -4 7 -9 10 -13 3 -4 8 -10 11 -14 4 -4 8 -9 10 -11 3 -3 6 -5
12 -5 18 -1 20 0 31 8 11 9 19 10 24 4 4 -5 5 -13 2 -17 -1 -1 -4 -4 -6 -7 -7
-7 -10 -16 -10 -27 0 -9 1 -10 11 -20 15 -15 79 -61 84 -61 0 0 5 -3 11 -6 11
-7 45 -16 63 -17 18 -1 28 2 35 10 9 10 14 11 37 12 11 1 25 1 30 2 8 0 11 0
14 -3 5 -4 5 -5 1 -11 -1 -4 -7 -12 -12 -17 -9 -8 -10 -10 -10 -18 0 -26 21
-35 123 -52 41 -7 55 -8 86 -5 17 1 22 1 31 -2 6 -2 11 -4 12 -4 1 0 6 -2 12
-4 21 -6 87 -8 248 -8 l127 0 8 4 c5 3 14 9 20 15 16 14 20 13 37 -1 l13 -11
13 0 c12 1 13 1 18 9 4 4 8 12 11 17 6 13 13 17 25 17 12 0 19 -4 24 -15 14
-27 29 -38 49 -35 5 1 11 1 13 1 1 1 2 1 2 2 0 1 1 2 3 2 4 0 14 12 18 21 1 4
3 16 4 27 2 35 9 74 18 96 3 8 2 23 -1 28 -2 1 -2 2 -1 2 2 0 -2 4 -14 17 -9
9 -11 12 -11 18 0 12 14 19 25 12 4 -3 9 -3 21 -3 26 1 30 11 18 42 -3 10 -6
20 -7 23 -1 11 -7 27 -13 33 -9 9 -23 9 -33 0 -6 -7 -15 -25 -15 -32 0 -3 -3
-7 -6 -10 -6 -7 -18 -8 -33 -4 -4 1 -9 3 -11 3 -44 10 -40 8 -47 19 -7 14 -8
16 -13 21 -10 11 -19 13 -69 13 -63 0 -68 -1 -67 -25 1 -12 1 -13 -3 -14 -2 0
-1 -1 2 -1 9 0 13 -6 13 -19 0 -13 -6 -19 -20 -19 -14 0 -20 6 -20 19 0 13 4
19 13 19 3 0 4 1 2 1 -4 1 -4 3 -4 16 l1 14 -8 5 c-8 4 -9 4 -99 4 -98 0 -99
0 -108 -11 -6 -6 -11 -22 -12 -34 -1 -19 -8 -26 -28 -26 -15 0 -21 5 -26 21
-4 11 -7 16 -13 24 -3 3 -28 16 -31 16 -1 0 -10 3 -20 7 -16 6 -21 7 -42 7
-23 1 -24 1 -29 7 l-6 5 0 38 c0 39 -1 45 -8 53 -6 6 -26 10 -34 7 -14 -5 -26
-4 -39 6 -9 6 -12 7 -29 9 -11 1 -11 1 -21 -7 -6 -4 -10 -7 -11 -6 0 1 -1 2
-2 1 -1 0 -1 0 -1 2 -1 1 -1 8 -2 14 -1 11 -1 13 3 17 4 4 6 4 14 3 12 -2 22
-2 25 1 2 2 3 1 3 0 1 -2 3 1 5 5 4 9 3 18 -5 34 -11 22 -7 45 9 45 22 1 27
-3 28 -24 1 -20 6 -31 17 -43 5 -6 10 -10 10 -9 0 1 1 2 2 1 1 -1 6 0 12 1 16
3 26 17 24 31 -1 2 1 6 5 9 3 3 5 8 5 10 0 3 1 4 1 3 1 -2 2 -2 5 -1 2 2 3 5
2 17 0 13 0 15 3 16 3 0 2 1 -1 1 -19 1 -19 43 0 44 3 0 4 1 1 1 -3 1 -3 3 -3
16 1 15 1 15 -5 18 -3 2 -6 4 -7 5 -1 1 -8 3 -17 4 -9 2 -19 5 -22 6 -3 2 -6
3 -7 3 -5 1 -10 7 -10 11 0 2 -1 4 -2 3 -1 -1 -2 -1 -2 0 -2 10 -1 13 0 13 6
0 8 32 3 42 -2 3 -8 11 -13 16 -13 13 -18 24 -21 44 -5 25 -4 36 3 52 3 7 6
13 6 14 0 1 2 3 3 6 1 3 4 8 6 13 6 12 11 16 23 16 9 0 11 -1 16 -6 11 -11 9
-37 -3 -52 -4 -5 -5 -6 -7 -3 -2 3 -2 3 -2 0 0 -2 -2 -8 -5 -14 -9 -18 -9 -42
0 -51 2 -2 4 -7 5 -11 1 -5 2 -7 2 -5 0 4 1 4 10 3 20 -1 29 12 28 42 -1 18
-1 19 5 25 6 6 6 6 21 5 8 0 21 1 28 2 22 4 45 3 87 -4 27 -5 43 -12 55 -27
19 -22 32 -25 84 -19 23 3 30 3 34 -1 2 -2 2 -3 -3 -10 -3 -4 -6 -8 -8 -9 -1
-2 -8 -10 -15 -19 -7 -9 -14 -17 -16 -19 -1 -1 -10 -12 -19 -23 -29 -36 -33
-40 -45 -44 -19 -7 -30 -13 -36 -19 -24 -23 -40 -23 -64 0 -11 11 -26 17 -42
16 -7 -1 -16 -3 -19 -5 -6 -3 -6 -4 -5 -18 0 -13 0 -15 -3 -16 -3 0 -2 -1 1
-1 19 -1 19 -43 0 -44 -3 0 -4 -1 -1 -1 3 -1 3 -3 3 -16 -1 -22 -1 -22 58 -22
42 0 48 0 54 4 8 4 14 10 19 19 2 3 7 8 10 10 7 4 7 4 13 1 3 -2 8 -7 11 -11
12 -20 28 -27 48 -21 10 3 14 6 26 18 14 14 16 15 24 15 8 0 10 -1 23 -15 22
-22 18 -21 129 -21 79 0 94 0 100 3 9 4 16 10 14 13 -1 1 0 2 1 2 2 0 2 1 2 1
-1 1 0 6 1 11 2 7 2 10 1 10 -2 1 -3 6 -3 12 0 9 1 11 7 16 5 6 7 7 18 6 10 0
14 -1 20 -6 4 -3 7 -6 7 -7 -1 -1 0 -1 2 0 2 1 7 2 11 2 7 0 7 0 6 6 0 3 -3 9
-6 13 -6 8 -12 21 -12 25 0 5 -14 17 -55 48 -3 3 -10 8 -14 11 -31 23 -33 24
-45 25 -8 1 -14 0 -23 -3 -17 -6 -29 -5 -36 1 -6 4 -6 6 -7 25 -2 24 -6 37
-16 44 -16 13 -20 17 -21 23 0 3 0 7 0 9 2 3 14 8 37 16 21 8 28 13 36 27 10
16 6 31 -12 44 -12 9 -24 11 -43 7 -34 -7 -36 -5 -37 25 -1 14 -3 24 -6 33
-11 31 -2 49 24 49 11 0 22 -7 38 -21 6 -6 8 -7 18 -7 19 1 28 13 28 37 0 17
-3 28 -13 46 -5 7 -9 16 -10 20 -1 7 2 22 7 31 4 6 4 6 14 5 8 -2 24 -2 57 1
9 1 24 -5 27 -11 6 -10 16 -21 27 -27 8 -4 11 -4 84 -5 85 0 95 1 116 11 23
11 33 23 33 41 0 10 -15 18 -33 18 -14 0 -18 2 -28 17 -4 6 -11 15 -14 19 -13
16 -16 25 -12 44 2 7 2 16 2 19 -1 3 -1 9 -2 12 -2 9 -25 36 -37 42 -19 10
-29 20 -37 36 -2 4 -15 19 -28 33 -23 23 -25 24 -33 25 -12 2 -22 -2 -33 -10
-13 -10 -17 -12 -31 -15 -24 -4 -37 -2 -42 7 -1 2 -3 12 -4 22 -1 10 -3 19 -3
19 -1 1 -2 4 -2 6 -1 7 -9 16 -22 26 -7 5 -19 14 -28 21 -9 6 -16 12 -17 13
-1 1 -7 5 -14 10 -12 9 -18 12 -25 13 -7 1 -25 15 -25 19 0 1 -1 2 -2 2 -1 0
-2 1 -2 3 0 4 -10 13 -14 13 -1 0 1 3 5 6 l7 6 151 0 c120 0 153 1 163 3 44 9
76 45 66 71 -1 3 -2 6 -2 7 0 1 -1 2 -2 3 -1 1 -3 3 -4 5 -3 5 -42 37 -49 41
-11 6 -35 1 -48 -8 -13 -12 -16 -11 -19 1 0 1 -3 6 -5 11 -3 5 -6 14 -8 21 -4
12 -9 26 -15 40 -6 13 -16 22 -60 54 -19 14 -22 16 -27 20 -5 5 -27 21 -37 28
-9 6 -12 7 -22 7 -12 0 -20 -2 -27 -8 -9 -7 -27 -26 -38 -40 -7 -8 -13 -15
-13 -16 -1 -1 -6 -7 -11 -15 -13 -19 -18 -26 -32 -40 l-12 -12 1 -14 c2 -16 5
-20 23 -29 7 -3 14 -8 16 -10 4 -6 4 -26 0 -31 -5 -7 -36 -38 -42 -42 -11 -7
-27 -4 -40 7 -2 2 -6 4 -8 4 -6 0 -6 3 -1 8 3 2 4 4 3 4 -1 0 1 3 5 7 5 6 6 8
5 14 -2 11 -7 24 -10 25 -1 0 -5 1 -9 2 -4 0 -11 0 -17 -1 -5 -1 -16 -1 -24 0
-23 2 -34 1 -43 -3 -4 -2 -8 -5 -9 -6 -4 -6 -18 -13 -27 -13 -9 0 -23 7 -27
13 -1 2 -20 12 -26 14 -2 0 -18 1 -36 1 l-32 0 -6 6 -6 6 1 25 c1 23 2 26 6
33 3 4 5 6 6 6 1 -2 11 5 17 11 3 3 5 6 4 6 -1 0 0 1 1 3 3 4 3 18 0 46 -4 40
-12 48 -50 50 -35 3 -44 -1 -44 -21 0 -11 1 -12 6 -16 7 -5 11 -18 9 -30 -3
-15 -19 -24 -37 -18 -12 4 -16 10 -16 26 0 15 4 23 14 25 5 1 5 1 6 17 0 10
-1 16 -2 16 -1 0 -2 1 -1 2 2 4 -3 5 -33 9 -40 5 -55 4 -68 -5 -4 -3 -5 -5 -5
-16 0 -9 1 -14 3 -16 4 -4 24 -14 28 -14 2 0 6 -3 9 -6 4 -4 5 -7 5 -16 0 -15
-7 -23 -22 -23 -8 0 -12 2 -26 11 -9 7 -20 13 -23 15 -16 8 -21 20 -14 36 4 9
3 26 -2 35 -6 10 -26 15 -85 19 -7 0 -15 0 -18 -1z m818 -151 l-5 -5 -4 4 -5
5 4 4 5 5 4 -4 5 -5 -4 -4z m-11 -67 c7 -3 12 -13 12 -25 0 -17 -9 -28 -27
-34 -24 -7 -34 -2 -35 17 0 14 8 35 15 40 9 6 22 7 35 2z m139 -41 c0 -1 -1
-4 -3 -6 -4 -5 -10 1 -7 7 1 3 2 7 3 9 1 3 1 3 4 -2 2 -3 3 -6 3 -8z m-389
-24 c0 -2 2 -3 3 -3 2 0 4 0 6 0 5 0 3 -8 -2 -8 -2 0 -5 -1 -7 -3 -4 -4 -7 -4
-12 2 -3 5 -3 5 0 10 4 6 10 6 12 2z m-54 -39 c7 -6 13 -9 13 -9 0 1 1 1 2 0
2 -4 20 -13 28 -14 7 -1 26 -11 20 -11 -1 0 -5 -3 -8 -6 -3 -3 -13 -14 -23
-25 -10 -11 -20 -22 -23 -25 -3 -3 -10 -11 -16 -18 -17 -19 -22 -20 -65 -22
-31 -1 -37 -2 -42 -5 -8 -4 -14 -15 -16 -25 -1 -4 -2 -7 -3 -8 -1 0 -1 -2 0
-5 2 -13 -18 -20 -27 -10 -4 3 -5 9 -7 28 -3 26 -4 32 -9 34 -2 1 -3 3 -3 4 0
3 -3 4 -12 6 -17 4 -20 4 -23 2 -4 -4 -16 -4 -21 -1 -2 1 -6 7 -9 13 -5 9 -6
11 -5 17 0 1 3 3 6 5 8 3 27 -1 31 -6 1 -2 3 -3 3 -2 1 0 5 1 9 1 22 1 29 9
28 34 0 9 1 16 2 17 2 2 4 5 6 8 7 8 38 11 60 6 7 -2 14 -4 16 -4 7 -1 23 6
32 14 18 15 21 17 32 17 10 0 12 -1 24 -10z m-266 -50 c7 -9 7 -13 -3 -17 -13
-6 -28 11 -18 21 5 5 14 3 21 -4z m459 -35 c5 -8 6 -22 3 -35 -3 -14 -2 -25 2
-40 6 -20 6 -26 1 -31 -9 -10 -28 -4 -28 9 0 6 -4 23 -8 32 -1 3 -5 9 -9 13
-9 11 -12 16 -12 28 0 8 5 23 8 23 0 0 4 1 8 3 4 2 13 3 19 3 11 0 12 -1 16
-5z m-263 -150 c4 -3 10 -6 12 -6 1 -1 3 -2 3 -3 0 -2 11 -7 15 -7 1 0 4 -3 7
-6 2 -4 5 -7 6 -7 1 0 2 -1 2 -1 -1 -3 5 -16 9 -19 5 -4 25 -12 32 -12 6 0 13
-8 13 -14 0 -6 -7 -21 -10 -23 -1 -1 -6 -8 -12 -17 -16 -23 -18 -24 -75 -28
-21 -1 -32 -3 -43 -7 -25 -8 -47 -5 -55 9 -4 6 -4 11 -5 59 l-1 52 6 6 c6 6 8
6 21 6 8 0 17 1 19 1 9 3 17 6 17 8 0 1 2 2 4 3 1 0 7 3 11 6 4 3 10 5 12 5 2
0 8 -2 12 -5z m-189 -6 c21 -9 20 -45 -2 -54 -10 -5 -28 -1 -34 6 -9 10 -9 32
0 42 7 8 24 11 36 6z m605 -56 c2 -2 4 -7 4 -11 2 -8 6 -15 12 -21 8 -8 11
-14 11 -24 0 -18 -11 -25 -31 -20 -5 1 -9 2 -10 1 -1 0 -1 0 -1 2 0 1 -1 2 -1
2 -1 -1 -6 0 -12 1 -10 2 -15 7 -10 11 2 1 3 4 3 5 0 2 1 3 2 3 3 0 8 15 8 27
0 11 1 15 5 21 5 6 7 7 12 7 3 -1 7 -3 8 -4z m-108 -10 c5 -5 6 -8 5 -22 0 -7
-5 -13 -12 -13 -20 -2 -28 4 -28 20 0 14 6 20 20 20 8 0 11 -1 15 -5z m68 -59
c1 -2 0 -7 -2 -10 -4 -10 -6 -20 -5 -34 0 -10 -1 -15 -3 -20 -4 -6 -4 -6 -18
-5 -24 2 -26 3 -30 9 -5 9 -4 19 3 32 3 6 7 14 9 18 5 10 13 14 31 13 11 0 14
-1 15 -3z m-509 -38 c5 -2 9 -6 9 -8 1 -4 31 -24 36 -24 5 0 9 -8 11 -18 1 -6
3 -14 4 -17 2 -3 3 -7 3 -9 1 -5 10 -12 19 -16 8 -4 12 -4 57 -4 49 1 49 1 53
-4 4 -4 4 -4 1 -14 -2 -5 -5 -11 -7 -14 -8 -12 -10 -24 -10 -65 0 -40 1 -48 7
-55 4 -4 21 -9 28 -7 6 1 19 14 27 26 3 6 8 12 11 15 10 8 25 3 25 -10 0 -5
-5 -17 -8 -20 -4 -4 -15 -27 -19 -42 -2 -8 -9 -10 -34 -11 -23 0 -25 0 -37 -7
-15 -7 -29 -9 -39 -3 -10 4 -12 13 -11 35 1 17 -9 34 -22 38 -4 1 -18 2 -34 2
l-27 -1 -6 6 c-6 6 -6 7 -5 23 1 28 -3 37 -25 59 -11 11 -12 13 -11 29 1 19 0
24 -5 29 -2 2 -6 4 -7 5 -6 1 -20 0 -22 -1 -2 -1 -4 -2 -4 -2 -1 0 -4 -2 -6
-3 -2 -2 -5 -4 -6 -4 -3 0 -13 -13 -14 -19 -5 -19 -8 -28 -10 -30 -5 -6 -24
-10 -40 -8 -23 1 -29 8 -28 30 1 14 8 21 20 21 10 0 30 5 33 9 1 1 3 3 5 3 3
2 9 20 8 27 0 2 2 12 6 23 7 24 13 30 35 35 27 6 29 6 39 1z m-125 -9 c10 -10
4 -31 -9 -31 -19 -1 -25 4 -23 18 1 13 5 18 20 18 5 0 9 -1 12 -5z m561 -45
c1 0 3 -3 5 -7 4 -9 4 -25 -1 -31 -7 -9 -27 -9 -34 0 -5 6 -5 24 0 30 3 4 20
10 26 9 2 0 4 -1 4 -1z m-635 -153 c12 -5 15 -9 15 -20 0 -10 -7 -17 -17 -17
-11 0 -16 4 -20 16 -4 13 -3 16 2 22 5 5 7 5 20 -1z m142 -8 c5 -8 1 -16 -8
-16 -9 0 -13 8 -8 16 2 3 5 5 8 5 3 0 6 -2 8 -5z m-449 -85 c3 -2 7 -7 8 -10
1 -3 3 -6 4 -6 1 0 2 -2 3 -4 6 -20 51 -36 97 -36 37 0 46 5 59 34 8 17 13 21
27 21 13 0 20 -5 24 -16 3 -12 10 -25 14 -30 4 -5 22 -13 29 -13 7 0 16 -5 19
-10 5 -9 2 -17 -8 -31 -6 -7 -10 -14 -10 -15 0 -1 -1 -2 -2 -2 -1 0 -1 -1 -2
-2 -1 -13 -6 -31 -9 -33 -6 -5 -14 -3 -21 3 -8 8 -8 13 1 21 6 6 6 6 5 21 0
15 0 15 -5 15 -19 -3 -19 -3 -21 -11 -2 -4 -3 -8 -2 -9 0 -1 -1 -1 -2 0 -1 0
-2 -1 -3 -3 -2 -6 -6 -11 -16 -22 -9 -9 -25 -20 -25 -16 0 2 -15 8 -29 11 -7
1 -25 6 -40 10 -38 10 -46 10 -69 -6 -18 -12 -30 -8 -37 11 -4 10 -9 13 -25
12 -11 0 -14 -1 -23 -7 -9 -6 -13 -8 -22 -8 -16 0 -21 4 -30 23 -12 25 -27 37
-51 40 -6 1 -8 2 -5 2 3 0 5 1 4 2 0 0 0 2 1 4 2 2 11 3 47 4 57 1 59 2 70 25
4 8 7 17 7 19 0 2 3 7 6 10 7 8 24 9 32 2z m441 -173 c5 -4 11 -20 7 -18 -1 1
-2 0 -2 -2 0 -2 1 -3 3 -3 1 0 1 0 0 -2 -2 0 -3 -6 -4 -13 -1 -7 -2 -14 -4
-16 -7 -11 -20 -2 -18 11 0 4 1 11 2 15 2 13 5 24 9 27 4 5 4 5 7 1z m-567
-19 c5 -5 5 -11 0 -16 -10 -10 -27 5 -16 16 4 4 12 4 16 0z m297 -33 c4 -3 4
-4 5 -130 l0 -126 -6 -8 c-3 -4 -6 -7 -6 -6 0 1 -7 5 -14 8 -18 7 -48 22 -64
31 -7 4 -17 10 -23 13 -30 18 -32 27 -12 71 19 40 24 56 24 73 0 9 -1 20 -2
24 -3 16 -2 23 5 29 6 7 9 7 36 5 9 -1 18 -1 23 1 9 2 27 17 27 22 0 2 1 2 1
0 1 -2 4 -5 6 -7z m129 -8 c3 -2 7 -5 7 -7 4 -11 36 -30 51 -30 2 0 7 -3 10
-6 5 -5 6 -7 6 -17 0 -10 -1 -12 -6 -17 -10 -10 -31 -8 -39 4 -7 9 -13 14 -22
19 -10 5 -23 7 -23 3 0 -1 -1 -2 -2 -2 -3 0 -16 -11 -16 -14 -1 -3 -1 -5 -5
-13 -1 -4 -3 -8 -3 -9 0 -5 -10 -12 -18 -12 -11 0 -18 7 -18 18 0 8 1 9 15 23
16 16 18 19 23 43 1 6 3 11 4 13 7 9 25 10 36 4z m-360 -13 c5 -5 5 -15 0 -20
-9 -9 -24 -2 -24 10 0 8 6 14 14 14 3 0 8 -2 10 -4z m1073 -9 c3 -5 3 -7 2
-17 -5 -26 -15 -36 -33 -36 -15 0 -22 7 -22 22 0 14 5 22 17 28 19 9 31 10 36
3z m-152 -4 c5 -8 1 -16 -8 -16 -9 0 -13 8 -8 16 2 3 5 5 8 5 3 0 6 -2 8 -5z
m-939 -152 c1 -2 4 -9 5 -15 2 -13 2 -13 -3 -18 -5 -5 -6 -6 -11 -4 -3 1 -5 1
-5 1 0 -1 -1 -1 -2 1 -2 1 -4 2 -6 2 -5 0 -11 8 -13 17 -1 4 -2 10 -2 11 -1 2
1 6 5 10 l6 6 11 -4 c6 -2 13 -5 15 -7z m392 -29 c3 -1 9 -7 14 -13 5 -6 10
-11 11 -11 1 0 3 -1 3 -2 2 -5 26 -10 26 -6 0 2 1 2 1 1 1 0 3 1 5 4 3 3 5 5
6 4 0 0 2 0 3 1 4 3 7 -5 8 -20 2 -19 -10 -25 -29 -14 -17 10 -31 11 -46 5
-14 -7 -31 -4 -38 4 -9 10 -9 32 0 42 7 8 24 11 36 5z m-346 -31 c5 -4 5 -14
2 -33 -3 -13 -4 -13 -15 -4 -11 10 -17 16 -18 23 0 3 -1 7 -2 9 -1 2 1 6 4 10
l5 6 10 -4 c6 -2 12 -5 14 -7z m-214 -61 c5 -5 5 -15 0 -20 -9 -9 -24 -2 -24
10 0 12 15 19 24 10z m470 -25 c5 -6 6 -22 1 -26 -2 -1 -3 -3 -3 -5 0 -1 -1
-2 -2 -2 -8 0 -14 -34 -7 -43 8 -11 -4 -38 -21 -47 -10 -5 -16 -5 -20 0 -5 6
-5 8 1 28 4 11 7 17 10 19 6 4 9 9 10 20 1 7 0 10 -2 10 -4 2 -29 -3 -36 -6
-9 -5 -20 -4 -25 2 -9 9 -7 34 2 44 4 3 6 3 20 2 15 -1 39 2 45 7 6 5 21 3 27
-3z m132 -65 c10 -11 4 -26 -10 -26 -14 0 -21 15 -12 25 6 6 16 7 22 1z m-632
-14 c11 -4 16 -13 11 -22 -2 -3 -6 -7 -8 -8 -24 -9 -39 -3 -39 15 0 15 15 21
36 15z m1140 -20 c5 -5 6 -7 6 -16 0 -13 -3 -19 -16 -29 -5 -4 -12 -10 -16
-15 -12 -15 -23 -19 -30 -11 -6 5 -5 8 5 32 1 3 5 13 8 22 7 19 11 23 26 23
10 0 12 -1 17 -6z m-417 -2 c11 0 17 -5 17 -14 0 -14 -9 -16 -41 -11 -26 4
-36 12 -26 21 4 4 13 5 30 5 6 -1 14 -1 20 -1z m-165 -35 c3 -3 4 -7 4 -14 0
-13 -4 -17 -27 -26 -22 -9 -34 -10 -39 -5 -10 10 0 25 30 45 12 8 25 8 32 0z
m815 1 c10 -9 3 -26 -10 -26 -8 0 -15 7 -15 15 0 13 16 20 25 11z m-415 -5 c3
-2 9 -9 13 -15 4 -7 10 -15 13 -18 11 -13 15 -20 15 -32 0 -19 -8 -27 -27 -27
-10 0 -13 1 -20 6 -15 10 -20 13 -31 14 -5 1 -10 2 -11 2 -1 1 -20 -9 -39 -21
-12 -7 -15 -9 -25 -9 -19 0 -27 8 -27 27 0 13 4 21 13 24 5 2 7 3 31 14 7 3
14 6 14 6 1 0 7 4 14 8 7 4 14 8 15 8 0 0 2 1 4 3 14 12 36 17 48 10z m364
-89 c9 -9 2 -24 -10 -24 -12 0 -19 15 -10 24 2 2 7 4 10 4 3 0 8 -2 10 -4z"/>
<path d="M218 3612 c-3 -1 -6 -1 -7 0 0 0 -1 0 -1 -2 0 -1 -1 -2 -2 -2 -3 0
-16 -11 -16 -13 0 -1 -2 -5 -5 -10 -4 -4 -7 -10 -8 -12 -1 -2 -5 -5 -7 -6 -3
-2 -10 -5 -17 -8 -15 -8 -19 -13 -19 -26 0 -11 1 -12 9 -20 18 -18 34 -22 74
-19 10 1 21 1 30 -1 19 -4 252 -4 271 0 9 1 18 2 32 0 10 -1 28 -2 38 -2 18 0
20 0 28 6 14 9 19 21 17 39 -2 15 -1 36 2 37 1 1 2 6 1 14 -3 23 -12 28 -49
27 -23 -1 -30 -4 -51 -16 -15 -9 -30 -31 -33 -50 -3 -14 -24 -20 -34 -9 -6 5
-7 21 -2 27 2 2 3 4 3 6 0 1 1 2 2 2 3 0 3 23 0 29 -5 11 -4 11 -132 11 -66 0
-121 -1 -124 -2z"/>
<path d="M74 3120 c-3 -4 -3 -20 1 -20 1 0 -2 -1 -8 -2 -9 -1 -8 -1 6 -1 9 0
14 0 12 0 -4 1 -4 2 -3 12 1 8 1 11 -2 12 -3 1 -3 1 -6 -1z"/>
<path d="M52 1905 c-10 -2 -12 -7 -12 -22 0 -10 0 -12 4 -16 10 -7 32 -6 36 3
2 4 3 19 1 26 -1 4 -3 6 -8 8 -11 3 -14 3 -21 1z"/>
</g>
</svg>
