<?xml version="1.0" standalone="no"?>
<!DOCTYPE svg PUBLIC "-//W3C//DTD SVG 20010904//EN"
 "http://www.w3.org/TR/2001/REC-SVG-20010904/DTD/svg10.dtd">
<svg version="1.0" xmlns="http://www.w3.org/2000/svg"
 width="1100.000000pt" height="2850.000000pt" viewBox="0 0 1100.000000 2850.000000"
 preserveAspectRatio="xMidYMid meet">
<metadata>
Created by potrace 1.15, written by Peter Selinger 2001-2017
</metadata>
<g transform="translate(0.000000,2850.000000) scale(0.500000,-0.500000)"
fill="#000000" stroke="none">
<path d="M84 3816 c-13 -4 -30 -16 -35 -26 -6 -11 -2 -40 6 -40 1 0 4 -1 6 -1
12 -3 22 -3 32 -1 14 2 18 0 25 -14 2 -5 8 -13 12 -18 12 -15 13 -18 15 -38 1
-20 4 -32 12 -41 33 -41 75 -106 99 -154 16 -33 18 -43 9 -63 -6 -14 -8 -33
-3 -45 3 -8 3 -25 -1 -31 -3 -4 -10 -8 -18 -9 -15 -3 -33 -8 -39 -12 -3 -3
-11 -11 -16 -18 -6 -8 -12 -16 -14 -19 -2 -3 -11 -15 -20 -27 -9 -12 -18 -23
-19 -24 -1 -2 -4 -5 -6 -8 -2 -3 -5 -7 -6 -8 -1 -1 -6 -7 -11 -13 -5 -6 -13
-16 -19 -22 -5 -6 -11 -14 -13 -18 -2 -4 -7 -10 -11 -14 -28 -26 -54 -54 -57
-60 -5 -17 0 -33 16 -50 10 -11 19 -14 34 -14 11 0 27 8 32 16 6 7 8 34 4 39
-2 3 -3 9 -3 21 0 22 4 29 17 30 16 1 23 -4 25 -17 2 -12 9 -25 16 -29 8 -5
24 -7 27 -4 3 1 8 4 28 16 5 2 11 6 14 8 3 2 6 4 7 4 1 0 4 2 7 4 3 2 11 7 19
12 31 19 80 51 86 56 5 5 15 5 18 1 1 -2 2 -8 2 -14 0 -5 0 -14 1 -19 1 -5 3
-11 3 -13 2 -12 10 -74 10 -82 0 -19 -6 -37 -35 -106 -1 -2 -4 -10 -8 -17 -6
-12 -6 -15 -6 -27 2 -21 11 -30 36 -34 10 -2 18 -8 18 -13 0 -6 -5 -17 -11
-23 -3 -3 -5 -7 -5 -7 0 -1 -1 -2 -3 -2 -1 0 -4 -1 -5 -3 -1 -2 -4 -3 -6 -3
-5 0 -26 -11 -31 -17 -9 -10 -13 -20 -11 -26 1 -3 1 -9 1 -12 0 -4 0 -7 1 -8
1 -2 18 -12 30 -17 11 -6 15 -12 15 -26 0 -12 -3 -18 -10 -23 -7 -5 -24 -5
-33 -1 -13 6 -34 1 -46 -12 -10 -11 -30 -15 -40 -7 -4 3 -28 3 -35 -1 -7 -2
-18 -16 -33 -40 -7 -11 -7 -12 -8 -36 -1 -14 -3 -31 -5 -38 -1 -7 -3 -20 -4
-29 -1 -14 -2 -17 -7 -22 -8 -8 -19 -8 -36 1 -14 6 -28 8 -37 4 -2 -1 -13 -12
-24 -24 -21 -21 -25 -28 -25 -42 0 -15 17 -38 32 -42 18 -5 21 -4 86 29 58 29
91 46 95 49 1 1 7 5 14 8 7 4 13 8 15 9 2 2 4 3 5 3 1 0 5 3 10 6 5 3 10 6 10
6 2 0 40 25 44 29 4 3 5 6 5 17 0 13 -1 15 -7 25 -9 13 -10 26 -2 34 5 5 6 5
17 4 28 -3 40 0 55 15 4 4 9 8 12 8 21 1 30 -5 30 -22 0 -10 -1 -11 -8 -17
-10 -9 -27 -19 -27 -17 0 1 -2 0 -4 -2 -4 -4 -9 -16 -7 -18 0 0 0 -2 -1 -4 -1
-2 -2 -17 -3 -32 -1 -32 -2 -36 -7 -76 -2 -15 -4 -31 -5 -37 0 -5 -1 -12 -2
-15 -4 -21 -8 -41 -8 -50 -1 -11 -1 -12 5 -19 8 -8 20 -10 37 -7 11 1 52 -2
59 -6 6 -3 8 -8 8 -19 0 -17 -11 -22 -40 -17 -26 4 -29 4 -61 -12 -36 -16 -52
-23 -69 -28 -19 -6 -26 -10 -40 -25 l-13 -13 -16 -1 c-29 -2 -42 -5 -52 -11
-5 -3 -13 -8 -17 -10 -9 -5 -13 -14 -11 -26 1 -11 5 -16 18 -26 17 -13 30 -27
37 -41 14 -27 19 -35 20 -36 3 -2 16 -30 20 -44 6 -20 6 -24 0 -39 -12 -34
-12 -34 -12 -54 0 -23 3 -34 12 -43 11 -11 22 -14 57 -12 33 1 68 5 86 9 25 5
33 15 32 39 -1 8 -1 17 -1 21 0 11 5 17 21 25 37 19 53 21 65 5 8 -10 15 -18
18 -18 0 0 3 -1 5 -1 17 -3 20 -2 34 11 13 12 18 18 32 35 7 8 25 37 25 38 0
1 1 3 3 5 4 5 27 50 28 57 4 18 3 22 -1 27 -2 2 -6 4 -8 4 -1 0 -6 1 -10 1 -4
1 -8 0 -9 -1 -4 -7 -54 6 -63 17 -4 4 -4 5 0 20 2 9 7 21 11 28 4 6 7 12 7 12
0 3 11 15 18 19 10 6 21 6 34 0 14 -7 34 -9 42 -5 3 1 10 8 17 15 12 13 15 23
13 38 -1 5 -3 12 -3 16 -1 4 -2 8 -2 10 -2 5 3 20 11 32 8 14 13 26 15 35 1 8
7 55 8 72 1 8 1 19 2 24 1 11 3 40 4 70 1 31 -4 40 -25 41 -11 1 -14 0 -18 -3
-2 -3 -11 -8 -20 -11 -21 -9 -25 -11 -28 -17 -4 -9 -4 -24 0 -35 5 -11 5 -30
-1 -36 -3 -4 -19 -10 -29 -11 -10 -1 -14 7 -16 34 -2 27 -5 35 -18 48 -12 13
-14 16 -14 30 0 18 10 25 35 25 12 0 22 3 39 11 14 6 30 7 48 3 20 -5 36 1 44
16 4 9 4 11 4 50 0 41 -1 50 -8 60 -3 5 -23 16 -28 16 -1 0 -5 2 -7 5 l-6 5 6
5 c3 3 11 9 17 12 13 7 20 18 21 31 2 23 -11 151 -17 175 -6 20 -8 33 -8 47 0
25 -10 69 -17 74 -2 1 -3 4 -3 5 0 1 -2 4 -5 7 -10 9 -14 19 -12 32 4 41 4 39
-6 68 -8 25 -14 41 -23 65 -6 13 -17 27 -23 28 -3 1 -5 2 -5 3 0 1 -5 3 -11 5
-20 6 -25 14 -18 30 2 3 3 9 4 12 0 3 3 14 6 23 3 9 5 17 5 17 0 1 14 15 31
32 65 65 69 72 72 100 1 6 2 15 2 20 1 6 3 14 6 18 16 27 23 43 23 60 0 3 3
10 6 15 6 9 6 11 6 23 -1 17 -4 19 -29 27 -22 6 -27 9 -41 22 -21 20 -37 26
-68 26 -18 0 -20 0 -26 5 -3 3 -6 6 -6 7 0 1 -4 7 -8 14 -12 18 -19 23 -62 45
-11 6 -26 6 -36 0 -5 -3 -16 -18 -16 -22 0 -1 -23 -56 -28 -69 -10 -22 -11
-24 -8 -35 2 -11 11 -23 16 -23 1 0 5 -2 8 -5 3 -4 8 -8 11 -10 9 -7 10 -10 1
-11 -4 0 -8 -1 -9 -3 -3 -4 -12 -4 -18 0 -6 4 -21 5 -33 3 -11 -3 -11 -3 -18
-29 -2 -8 -6 -19 -9 -24 -2 -4 -5 -10 -7 -13 -3 -6 -8 -25 -8 -34 0 -10 -6
-16 -14 -16 -9 0 -15 7 -13 15 5 35 6 38 3 49 -5 23 -4 27 10 40 l13 12 0 15
1 15 -19 13 c-13 9 -24 15 -40 21 -22 9 -27 13 -42 31 -7 8 -28 25 -32 25 0 0
-6 3 -12 7 -6 4 -11 7 -12 7 -1 0 -4 2 -7 4 -6 4 -35 20 -61 33 -20 10 -32 12
-43 9z m502 -133 c14 -7 14 -41 0 -48 -3 -2 -8 -3 -10 -3 -7 0 -31 -10 -47
-20 -18 -12 -32 -9 -44 9 -3 5 -6 9 -7 9 -1 0 -1 2 0 5 2 3 4 5 6 5 2 0 5 2 7
4 2 1 10 6 17 9 15 7 21 11 34 22 5 5 12 9 15 10 3 1 7 2 8 2 3 1 16 -1 21 -4z
m-318 -77 c5 -6 5 -12 0 -18 -11 -12 -29 5 -18 18 4 5 13 5 18 0z m228 -126
c5 -5 5 -15 0 -20 -9 -9 -24 -2 -24 10 0 8 6 14 14 14 3 0 8 -2 10 -4z m-18
-100 c7 -7 3 -18 -7 -20 -6 0 -13 6 -13 12 0 10 13 15 20 8z m-74 -38 c6 -3
16 -8 21 -11 14 -6 19 -16 14 -24 -4 -6 -3 -6 -22 -2 -34 8 -47 15 -47 27 0
16 14 20 34 10z m-142 -53 c3 -5 3 -7 -1 -13 -6 -7 -19 -3 -19 7 0 9 14 13 20
6z m142 -35 c1 0 5 -3 8 -6 5 -5 6 -7 6 -18 0 -11 -1 -13 -6 -18 -3 -3 -7 -6
-8 -6 -6 0 -11 -2 -19 -5 -7 -3 -8 -3 -13 -1 -7 4 -9 14 -5 25 2 5 3 11 3 13
0 5 6 12 12 15 5 2 8 2 22 1z m94 -62 c5 -6 5 -7 -2 -14 l-6 -7 -4 6 c-5 7 -5
8 0 14 4 6 7 6 12 1z m-28 -45 c0 -1 1 -3 2 -3 4 -2 5 -27 2 -33 -3 -6 -2 -29
2 -31 1 0 2 -1 1 -2 -2 -4 5 -5 18 -4 12 2 14 2 22 11 5 6 9 11 9 12 0 0 8 5
19 10 10 5 21 11 25 14 24 20 30 17 36 -18 6 -31 6 -38 -1 -45 -7 -7 -28 -11
-56 -10 -24 1 -34 -2 -50 -15 -12 -11 -14 -12 -27 -11 -14 0 -23 16 -17 33 3
8 3 16 0 27 0 2 -6 10 -13 17 -12 12 -12 13 -12 24 0 14 5 20 21 25 13 4 19 3
19 -1z m184 -153 c5 -5 6 -7 6 -17 0 -10 -1 -12 -6 -17 -5 -5 -7 -6 -17 -6
-10 0 -12 1 -17 6 -5 5 -6 7 -6 17 0 10 1 12 6 17 5 5 7 6 17 6 10 0 12 -1 17
-6z m-119 -34 c3 -3 12 -13 20 -23 23 -29 33 -35 58 -38 17 -2 20 -5 38 -31
15 -22 16 -25 16 -34 0 -20 -9 -29 -29 -29 -14 1 -20 5 -53 38 -19 19 -31 29
-41 34 -15 9 -44 36 -49 46 -5 12 -3 30 4 36 7 7 28 7 36 1z m-29 -142 c8 -8
4 -16 -14 -29 -31 -23 -61 -24 -65 -2 -4 18 7 30 28 32 7 1 12 2 13 2 0 0 8 1
17 1 14 0 18 -1 21 -4z m161 -85 c6 -4 6 -7 2 -23 -4 -15 -10 -20 -24 -20 -10
0 -12 1 -17 6 -5 5 -6 7 -6 17 0 16 5 21 21 23 16 2 17 1 24 -3z m-123 -266
c3 -2 8 -7 11 -11 5 -6 15 -12 23 -13 4 -1 16 -8 16 -10 0 -1 1 -4 3 -5 4 -3
4 -20 0 -34 -3 -11 -15 -24 -20 -23 -4 0 -10 8 -12 14 -7 20 -22 33 -41 36
-15 2 -20 9 -20 25 0 13 3 19 12 23 8 3 21 2 28 -2z m53 -136 c1 -2 3 -3 5 -4
6 -2 10 -12 11 -27 1 -11 1 -13 -3 -17 -4 -4 -7 -5 -13 -5 -13 1 -20 12 -20
33 0 10 1 13 5 17 6 6 14 8 15 3z m-69 -209 c6 -6 6 -7 2 -27 -3 -13 -10 -17
-26 -17 -10 0 -13 1 -17 5 -6 4 -6 6 -6 20 0 14 0 16 6 20 5 5 7 5 20 5 13 -1
16 -1 21 -6z m-226 -26 c5 -5 5 -15 0 -20 -9 -9 -24 -2 -24 10 0 8 6 14 14 14
3 0 8 -2 10 -4z m103 -5 c12 -12 3 -31 -13 -31 -11 0 -18 7 -18 18 0 11 7 18
18 18 6 0 9 -1 13 -5z"/>
<path d="M1673 3813 c-4 -2 -13 -11 -21 -19 -8 -9 -18 -19 -21 -23 -6 -6 -6
-7 -5 -21 1 -12 2 -15 7 -21 10 -10 13 -15 13 -24 0 -15 -16 -22 -32 -13 -4 3
-7 5 -8 6 -5 6 -33 9 -39 3 -1 -2 -8 -5 -13 -8 l-11 -5 -196 1 -196 0 -20 6
c-11 4 -24 8 -28 10 -4 2 -11 4 -15 5 -4 1 -23 7 -42 14 l-35 12 -26 1 c-30 1
-29 1 -49 16 -12 11 -24 17 -43 23 -8 3 -21 7 -29 10 -22 8 -33 7 -44 -4 -12
-11 -12 -12 -11 -115 0 -56 2 -97 3 -101 1 -3 4 -10 7 -16 4 -5 8 -13 10 -17
8 -17 27 -31 45 -34 14 -2 20 -9 21 -25 1 -13 -3 -26 -11 -37 -12 -16 -14 -33
-8 -55 2 -8 2 -12 -1 -21 -4 -14 -4 -24 0 -33 3 -9 14 -14 34 -16 19 -2 22 -5
22 -25 0 -14 0 -16 -6 -20 -6 -6 -20 -7 -33 -3 -24 7 -44 10 -53 7 -6 -1 -11
-3 -13 -3 -5 -1 -12 -10 -15 -17 -2 -6 -3 -37 -3 -172 0 -161 0 -165 4 -182 6
-23 5 -26 -1 -50 -4 -14 -5 -22 -4 -28 1 -4 2 -11 2 -14 1 -3 2 -8 2 -11 1 -4
-1 -18 -7 -44 -1 -5 -2 -21 -3 -36 -1 -15 -2 -32 -2 -39 -1 -7 -1 -19 -2 -27
-2 -24 -3 -44 -4 -52 -11 -103 -11 -92 0 -138 1 -8 1 -11 -3 -19 -2 -5 -6 -10
-7 -11 -2 -1 -3 -3 -3 -4 0 -1 -1 -4 -3 -5 -6 -7 -22 -76 -22 -99 0 -11 1 -16
7 -28 12 -23 13 -29 9 -35 -2 -3 -9 -8 -15 -11 -16 -8 -29 -23 -31 -37 -4 -22
-47 -137 -66 -178 -16 -34 -31 -64 -47 -90 -14 -25 -10 -44 14 -61 13 -8 13
-8 26 -7 15 1 18 4 30 27 l8 15 17 8 c19 7 37 18 39 23 8 15 10 22 12 43 3 29
8 38 20 41 10 3 20 2 33 -4 5 -2 10 -4 11 -3 0 0 5 1 10 1 15 1 18 3 45 35 7
8 14 17 16 20 2 3 5 7 7 9 2 2 5 6 7 9 2 3 5 6 6 8 1 1 6 8 11 15 5 7 9 13 10
14 1 1 6 8 11 16 5 8 11 17 13 20 15 21 12 38 -7 55 -11 10 -13 15 -14 27 0
12 4 21 11 25 4 2 16 4 27 5 41 4 52 16 77 81 6 14 14 40 20 57 8 28 9 33 8
41 -3 14 -9 22 -25 31 -4 3 -7 5 -7 6 0 1 -1 2 -3 2 -1 0 -5 1 -8 3 -7 3 -29
3 -31 -1 0 -1 -1 -2 -2 -2 -1 0 -5 -2 -8 -4 -6 -4 -27 -7 -31 -4 -4 3 -7 8 -9
15 -1 5 -3 10 -3 12 -1 2 -2 11 -2 20 -1 15 -1 17 2 20 3 2 6 4 7 5 5 1 21 -7
25 -12 2 -2 6 -6 8 -9 2 -2 5 -6 6 -8 5 -8 15 -11 32 -10 11 0 16 2 18 4 1 2
6 3 12 4 23 2 36 9 43 23 2 4 6 21 9 38 5 28 5 32 3 49 -2 14 -2 23 0 34 1 8
2 23 3 34 1 15 3 25 8 38 13 36 12 57 -6 83 -8 13 -10 17 -11 26 -1 16 0 19
11 32 21 25 24 47 8 57 -6 4 -27 9 -28 7 -2 -3 -13 -2 -17 2 -5 5 -5 15 0 20
4 4 18 6 18 2 0 -1 1 -2 2 -1 1 0 5 1 9 2 12 2 17 4 18 9 1 2 2 4 3 4 4 0 -3
30 -14 58 -3 8 -15 14 -28 13 -7 0 -13 -1 -14 -2 -8 -7 -43 -10 -60 -5 -11 3
-16 10 -16 24 0 11 1 13 6 18 6 7 21 9 43 7 15 -1 23 1 44 10 16 7 41 25 36
25 -1 0 3 3 9 6 l11 5 140 1 140 1 8 6 c11 8 16 25 12 39 -1 6 -1 11 1 18 2
10 3 28 2 34 -3 8 -14 16 -26 17 -4 1 -8 1 -9 2 -3 1 -9 -11 -10 -22 -1 -4 -2
-9 -3 -9 -1 -1 -1 -2 1 -3 3 -1 3 -12 -2 -16 -4 -4 -13 -4 -17 1 -5 6 -5 14
-1 15 2 1 2 2 1 3 -1 0 -2 5 -3 10 -3 20 -10 26 -32 28 -18 1 -31 -4 -36 -14
-5 -9 -9 -25 -7 -28 3 -5 0 -17 -6 -23 -9 -9 -22 -8 -37 2 -10 7 -13 10 -21
25 -16 32 -23 36 -64 36 l-29 1 -6 6 -6 6 1 38 c0 22 -1 39 -2 41 -1 2 -6 3
-19 3 -10 0 -17 1 -17 2 0 1 -2 -2 -4 -6 -4 -10 -11 -15 -20 -15 -10 0 -15 4
-19 16 -3 10 -3 11 0 19 4 10 10 17 19 22 6 3 8 5 9 11 1 4 2 8 3 9 0 1 1 3 1
5 2 10 4 13 15 19 6 4 12 8 13 9 1 1 4 4 6 6 3 2 7 8 10 13 5 10 5 12 5 42 0
30 0 32 5 43 3 7 8 15 11 18 3 3 6 7 7 8 1 2 5 6 8 10 9 12 39 24 52 21 19 -5
37 -1 49 10 12 11 17 13 28 14 20 0 29 -9 28 -29 0 -15 0 -22 1 -27 0 -2 1 -5
1 -6 0 -4 11 -15 17 -17 3 -1 39 -2 99 -2 86 0 95 0 101 -3 3 -2 6 -5 7 -5 0
-1 2 -2 4 -2 1 0 2 -1 1 -1 0 -1 5 -8 11 -16 16 -19 16 -21 -1 -42 -10 -12
-13 -18 -15 -26 -2 -7 -2 -39 -2 -96 1 -81 1 -87 -2 -89 -2 -1 -4 -3 -4 -5 0
-2 -1 -3 -2 -3 -2 0 -2 -6 -2 -19 1 -18 1 -19 -3 -20 -3 0 -2 -1 2 -1 9 0 23
-8 26 -15 5 -9 4 -24 -2 -38 -13 -29 -13 -30 -13 -67 0 -26 1 -35 3 -41 4 -9
14 -21 18 -21 2 0 3 -1 3 -2 0 -2 1 -2 38 -3 53 -2 65 3 70 27 3 13 3 14 -1
17 -4 3 -1 11 4 11 2 0 3 1 3 2 0 1 1 1 3 1 2 -1 3 -3 3 -4 0 -1 1 -4 3 -5 2
-1 3 -4 2 -5 -1 -3 7 -17 12 -20 7 -5 20 -6 32 -2 6 2 18 4 27 4 26 2 32 3 39
7 7 4 13 14 14 21 1 2 1 7 2 10 0 3 -1 10 -2 16 -2 5 -2 12 -2 15 4 16 9 21
26 23 21 2 35 9 41 22 4 8 4 12 4 59 0 62 -1 66 -24 81 -26 17 -26 21 -5 59
26 46 30 58 29 85 -1 21 -6 33 -19 45 -12 11 -15 16 -15 25 0 17 15 22 36 11
23 -11 35 -9 55 8 15 14 19 21 19 34 0 17 -7 24 -31 29 -19 4 -22 7 -30 23 -8
16 -16 24 -42 43 -10 8 -27 20 -37 27 -22 16 -26 18 -54 18 -27 0 -30 2 -36
23 -7 26 -14 38 -32 51 -9 6 -28 7 -37 3z m-727 -157 c6 -7 6 -11 0 -15 -7 -4
-10 -4 -14 1 -5 6 -5 8 -1 14 4 5 11 5 15 0z m786 -9 l-5 -5 -4 4 -5 5 4 4 5
5 4 -4 5 -5 -4 -4z m-93 -9 c7 -6 10 -20 7 -31 -5 -18 -25 -26 -45 -16 -17 8
-16 43 2 51 2 1 10 2 17 1 11 0 15 -1 19 -5z m-626 -8 c11 -10 3 -28 -11 -28
-8 0 -12 3 -16 13 -4 8 -3 11 4 15 8 5 18 5 23 0z m-111 -32 c5 -5 6 -7 6 -17
0 -16 -7 -23 -22 -23 -18 0 -24 6 -24 25 0 14 7 21 23 21 10 0 12 -1 17 -6z
m778 -144 c5 -6 5 -12 0 -18 -7 -8 -22 -2 -22 9 0 11 15 17 22 9z m-646 -5 c7
-4 11 -14 13 -34 1 -7 1 -9 -4 -14 -5 -4 -7 -5 -19 -5 -14 0 -28 -4 -48 -14
-19 -8 -31 -9 -39 -1 -4 4 -5 7 -5 16 0 14 4 18 27 29 10 4 21 11 25 14 16 13
35 16 50 9z m674 -238 c12 -5 18 -21 14 -35 -3 -12 -6 -15 -23 -23 -8 -4 -15
-8 -15 -9 0 0 -1 -4 -1 -7 0 -7 -6 -16 -9 -14 -1 0 -2 0 -2 -1 -1 -1 -3 -2 -6
-3 -2 0 -4 0 -4 -1 0 -5 -27 3 -31 9 -7 9 -3 22 11 36 10 9 14 14 21 27 7 14
10 18 18 21 7 3 20 3 27 0z m-789 -56 c5 -8 1 -16 -8 -16 -9 0 -13 8 -8 16 2
3 5 5 8 5 3 0 6 -2 8 -5z m102 -169 c19 -8 14 -49 -6 -53 -8 -2 -20 0 -27 4
-15 8 -14 43 1 49 12 4 20 4 32 0z m33 -88 c6 0 12 -10 12 -19 0 -11 -2 -14
-17 -32 -17 -20 -23 -25 -30 -25 -6 0 -13 6 -13 12 0 4 6 23 10 29 1 2 4 9 7
16 7 17 13 21 24 20 2 0 5 -1 7 -1z m-15 -180 c4 -6 4 -22 0 -31 -6 -10 -6
-30 0 -42 13 -26 10 -44 -9 -52 -10 -4 -30 -1 -35 5 -8 10 -7 35 1 43 2 3 3 6
2 19 l-1 16 -11 9 c-11 11 -12 14 -7 23 5 7 9 9 28 14 16 4 26 3 32 -4z m-101
-255 c3 -2 4 -6 4 -11 0 -14 -15 -21 -25 -12 -14 14 7 36 21 23z"/>
<path d="M846 3446 c0 -1 -6 -2 -13 -2 -7 0 -13 -1 -14 -2 -1 -1 -2 -1 -3 -1
-2 1 -2 0 -1 -2 0 -2 0 -3 -2 -3 -1 0 0 -1 4 -2 3 -1 5 -3 5 -4 0 -1 5 -1 12
0 l12 1 1 -7 c0 -4 0 0 1 9 0 8 0 15 -1 15 -1 0 -1 -1 -1 -2z"/>
<path d="M1182 3120 c-12 -2 -17 -5 -22 -13 -6 -10 -5 -20 5 -39 12 -25 12
-32 -1 -57 -7 -15 -10 -22 -10 -29 0 -8 -1 -8 -2 -3 -2 8 -5 2 -3 -7 1 -9 1
-10 3 -4 2 5 2 5 2 -1 0 -7 6 -18 14 -25 14 -12 35 -17 59 -14 18 2 23 0 39
-14 7 -7 19 -16 27 -20 17 -9 19 -12 19 -23 0 -13 -3 -16 -24 -23 -9 -3 -23
-9 -30 -12 -13 -7 -19 -7 -39 -5 -8 1 -14 0 -25 -3 -12 -4 -15 -5 -25 -16 -16
-18 -21 -37 -12 -54 2 -4 3 -8 3 -9 0 -1 3 -6 6 -10 6 -8 21 -17 39 -23 12 -4
17 -9 17 -18 0 -13 -16 -21 -27 -13 -3 2 -5 2 -6 2 0 -1 -5 -2 -9 -2 -23 -1
-28 -9 -28 -44 0 -20 1 -24 6 -40 8 -22 8 -30 0 -52 l-6 -18 0 -55 c0 -61 1
-68 14 -82 14 -16 16 -20 16 -29 0 -9 -2 -13 -16 -29 -12 -14 -14 -21 -14 -78
0 -39 1 -54 3 -68 2 -11 3 -21 2 -31 -4 -44 -4 -44 2 -56 3 -6 7 -12 10 -14 7
-5 26 -11 33 -11 15 0 21 -21 12 -37 -3 -5 -5 -8 -6 -9 -4 -3 -6 -11 -6 -21 0
-6 1 -11 2 -11 0 0 2 0 3 0 21 -4 36 5 64 40 13 16 16 17 36 16 2 0 6 -3 9 -6
5 -5 6 -7 6 -18 0 -16 -4 -20 -24 -27 -9 -3 -20 -7 -25 -9 l-9 -4 0 -14 c0
-13 0 -15 7 -21 10 -10 36 -17 85 -21 23 -2 332 -2 342 1 3 0 14 1 24 2 10 1
25 2 33 3 8 1 18 3 22 3 16 2 51 9 67 14 18 6 66 28 66 31 0 1 2 2 4 3 4 1 21
18 30 28 9 12 17 27 22 44 7 21 7 58 -1 80 -9 28 -25 48 -52 67 -19 12 -22 21
-23 52 0 14 -1 29 -1 34 0 5 -1 28 -2 51 -1 23 -2 50 -2 59 -1 25 -6 37 -19
46 -13 9 -30 9 -47 1 -14 -7 -21 -17 -32 -48 -21 -59 -46 -125 -60 -154 -13
-28 -1 -26 -130 -27 l-111 0 -6 6 -6 6 0 140 1 141 4 6 c3 4 8 7 13 9 10 3 13
9 14 25 0 9 -1 13 -5 20 -6 11 -6 15 -1 20 3 4 5 4 26 4 13 0 29 1 37 2 13 1
15 1 27 -5 20 -9 28 -10 41 -7 13 4 23 15 30 32 7 18 11 23 20 24 10 1 17 5
21 12 4 7 4 8 0 25 -6 26 -6 35 1 49 6 13 14 19 27 19 12 0 16 -3 24 -20 4 -7
8 -14 9 -16 2 -2 6 -7 9 -12 13 -17 38 -23 53 -14 17 10 30 11 65 7 22 -3 49
7 67 24 11 10 15 18 15 30 0 16 -9 28 -37 50 -4 3 -12 10 -17 15 -11 10 -28
18 -49 24 -19 5 -21 6 -29 25 -10 22 -15 27 -37 45 -11 9 -21 18 -22 19 -2 2
-8 5 -14 7 -28 10 -36 15 -44 30 -5 7 -12 17 -16 21 l-7 8 -15 0 c-18 0 -18 0
-41 -32 -20 -28 -47 -64 -58 -77 -4 -5 -9 -12 -12 -16 -3 -4 -13 -17 -23 -30
-24 -30 -26 -34 -32 -66 -3 -16 -6 -21 -16 -24 -4 -1 -10 -4 -12 -5 -7 -3 -14
-1 -19 8 -5 8 -5 29 -1 49 2 10 3 31 3 89 0 72 0 77 5 100 3 13 6 24 7 25 6 2
-7 33 -17 41 -9 7 -14 12 -25 25 -6 7 -12 12 -19 15 -11 5 -14 6 -42 8 -8 1
-22 2 -31 3 -18 2 -27 1 -36 -4 -7 -4 -15 -24 -14 -36 0 -3 -1 -6 -3 -8 -2 -1
-3 -4 -3 -5 0 -1 -4 -6 -8 -10 -4 -4 -8 -11 -9 -14 -2 -6 -8 -18 -13 -23 -7
-9 -24 -1 -24 11 0 6 9 20 14 22 2 1 3 4 2 18 l0 16 -12 5 c-6 3 -13 6 -15 7
-3 1 -9 6 -14 11 -15 16 -24 21 -35 20z m209 -201 c4 -4 5 -7 5 -15 0 -14 -6
-20 -20 -20 -14 0 -20 6 -20 20 0 14 6 20 20 20 8 0 11 -1 15 -5z m332 -39
c11 -10 3 -28 -11 -28 -9 0 -16 6 -16 16 0 14 17 22 27 12z m-66 -77 c6 -4 6
-6 6 -20 0 -14 0 -16 -6 -20 -4 -4 -7 -5 -18 -5 -11 0 -14 1 -18 5 -6 4 -6 6
-6 20 0 14 0 16 6 20 4 4 7 5 18 5 11 0 14 -1 18 -5z m197 -9 c5 -5 6 -7 6
-17 0 -10 -1 -12 -6 -17 -5 -5 -7 -6 -17 -6 -10 0 -12 1 -17 6 -5 5 -6 7 -6
17 0 10 1 12 6 17 5 5 7 6 17 6 10 0 12 -1 17 -6z m-355 -102 c9 -8 0 -26 -13
-26 -18 0 -23 27 -5 34 4 1 10 -1 18 -8z m-174 -148 c4 -6 4 -24 -1 -30 -7 -9
-27 -9 -34 0 -5 6 -5 24 0 30 7 9 27 9 35 0z m49 -113 c17 -8 20 -33 6 -51 -3
-4 -7 -10 -8 -13 -2 -6 -3 -26 -1 -39 1 -9 1 -9 -7 -18 -5 -5 -12 -11 -16 -13
-5 -3 -6 -5 -5 -9 2 -6 -3 -24 -8 -29 -5 -6 -16 -7 -22 -1 -8 7 -7 17 3 27 10
11 15 15 19 15 3 1 4 3 5 12 1 6 3 15 5 20 5 12 3 39 -3 44 -3 3 -8 12 -10 20
-2 9 0 22 6 29 7 8 24 11 36 6z m374 -231 c21 -6 18 -36 -4 -36 -12 0 -18 7
-18 19 0 16 7 21 22 17z m-475 -67 c3 -5 3 -5 0 -10 -2 -3 -5 -5 -7 -5 -2 0
-5 2 -7 5 -3 5 -3 5 0 10 2 3 5 5 7 5 2 0 5 -2 7 -5z m346 -24 c3 -5 3 -5 0
-10 -2 -3 -5 -5 -7 -5 -2 0 -5 2 -7 5 -3 5 -3 5 0 10 2 3 5 5 7 5 2 0 5 -2 7
-5z m114 -8 c8 -8 6 -21 -5 -37 -2 -3 -4 -7 -5 -10 0 -2 -2 -7 -3 -11 -1 -3
-2 -12 -2 -20 1 -12 0 -14 -6 -20 -6 -6 -6 -6 -22 -6 -27 1 -42 9 -42 22 0 9
6 14 22 21 8 3 17 8 19 11 5 5 13 28 13 39 0 9 7 16 18 16 6 0 9 -1 13 -5z
m-295 -35 c5 -5 5 -11 0 -16 -8 -8 -18 -4 -19 7 -2 10 12 16 19 9z m-41 -56
c3 -4 3 -5 -1 -9 l-5 -5 -4 4 -5 5 4 4 c6 6 6 6 11 1z"/>
<path d="M261 2757 c-5 -4 -6 -6 -7 -16 0 -11 3 -24 6 -22 1 1 2 0 3 -1 1 -1
26 1 29 3 1 0 1 4 2 7 0 3 1 9 2 12 3 4 3 5 0 9 -2 1 -5 3 -5 3 -4 1 -13 6
-13 8 0 4 -11 2 -17 -3z"/>
<path d="M102 2250 c0 -1 -2 -2 -4 -3 -4 -1 -8 -9 -8 -15 0 -2 -1 -4 -2 -3 0
0 -1 -2 0 -6 0 -6 1 -7 11 -9 19 -4 24 -1 23 16 -1 18 -3 21 -12 21 -4 0 -8
-1 -8 -1z"/>
</g>
</svg>
