<?xml version="1.0" standalone="no"?>
<!DOCTYPE svg PUBLIC "-//W3C//DTD SVG 20010904//EN"
 "http://www.w3.org/TR/2001/REC-SVG-20010904/DTD/svg10.dtd">
<svg version="1.0" xmlns="http://www.w3.org/2000/svg"
 width="1100.000000pt" height="2850.000000pt" viewBox="0 0 1100.000000 2850.000000"
 preserveAspectRatio="xMidYMid meet">
<metadata>
Created by potrace 1.15, written by Peter Selinger 2001-2017
</metadata>
<g transform="translate(0.000000,2850.000000) scale(0.500000,-0.500000)"
fill="#000000" stroke="none">
<path d="M286 3812 c-4 -3 -8 -8 -11 -15 l-5 -10 0 -76 c0 -61 1 -80 3 -94 4
-19 3 -47 -1 -60 -1 -4 -1 -20 -1 -35 1 -36 1 -226 0 -231 -1 -8 -11 -15 -11
-8 0 2 -2 8 -4 13 -3 5 -7 14 -10 21 -16 35 -19 41 -24 48 -17 26 -59 29 -78
8 -11 -12 -12 -19 -11 -63 1 -56 -3 -97 -13 -146 -6 -28 -17 -69 -22 -78 -4
-7 -17 -35 -24 -51 -2 -5 -8 -13 -13 -18 -36 -32 -49 -53 -50 -81 0 -5 0 -8 1
-8 1 0 1 -2 1 -4 1 -6 1 -6 16 -7 10 -1 13 -1 16 2 7 7 21 1 21 -10 0 -13 -16
-17 -23 -6 -3 3 -5 5 -5 3 0 -3 -2 -3 -12 -2 -7 1 -14 1 -15 1 -5 -2 -9 -16
-8 -28 1 -18 14 -51 20 -51 2 0 3 -1 3 -2 0 -1 2 -2 5 -3 9 -2 21 -11 27 -21
2 -5 5 -9 6 -10 1 -1 1 -3 2 -5 0 -2 1 -4 2 -5 1 -1 1 -2 1 -2 0 -3 13 -10 29
-15 32 -12 88 -6 99 12 4 7 6 28 2 36 -10 25 7 39 32 25 6 -4 14 -6 18 -6 11
0 15 -10 15 -37 0 -29 4 -39 23 -50 24 -16 23 -23 -6 -38 -12 -6 -20 -14 -23
-23 -1 -4 -4 -28 -7 -53 -3 -25 -6 -51 -6 -56 -1 -8 -1 -12 3 -20 5 -12 16
-17 39 -18 21 -1 26 -4 30 -18 5 -17 0 -32 -13 -38 -9 -3 -21 -3 -29 1 -15 7
-37 3 -44 -8 -4 -7 -5 -11 -9 -36 -1 -6 -2 -13 -4 -16 -1 -3 -4 -14 -6 -26 -2
-12 -6 -27 -8 -34 -10 -29 2 -45 34 -47 26 -2 28 -5 28 -41 0 -14 2 -29 3 -34
6 -18 5 -29 -2 -50 -4 -10 -8 -25 -10 -32 -4 -19 -13 -26 -32 -25 -14 0 -20 5
-24 18 -3 9 -3 12 -1 20 3 10 8 15 26 26 10 6 14 13 15 26 1 11 1 13 -6 23 -4
6 -8 12 -9 13 -1 2 -2 4 -2 5 0 1 -2 4 -5 7 -4 5 -6 5 -20 5 -15 0 -16 0 -21
-6 -3 -4 -6 -9 -7 -12 -1 -5 -19 -52 -26 -70 -5 -10 -36 -73 -43 -85 -9 -17
-39 -66 -43 -70 -1 -2 -6 -9 -11 -16 -5 -7 -17 -23 -27 -36 -27 -35 -28 -47
-4 -79 17 -23 36 -26 60 -11 8 5 20 12 27 17 8 4 15 9 16 11 2 1 7 5 12 8 5 3
10 6 11 7 1 1 12 9 24 18 12 9 23 18 24 19 2 1 6 5 10 8 4 3 10 8 13 11 3 2
11 9 18 16 12 9 71 68 83 82 7 8 28 33 32 39 3 3 6 8 8 10 14 19 57 81 57 84
0 1 2 4 5 9 11 16 50 94 54 106 1 3 4 10 7 16 4 9 4 13 3 23 -1 13 -5 23 -10
23 -2 0 -3 1 -3 2 0 1 -4 2 -9 2 -10 -1 -17 4 -17 11 0 8 11 14 17 8 2 -2 8
-3 18 -3 15 0 15 0 21 -6 3 -4 7 -9 7 -11 1 -2 2 -4 3 -5 1 -1 2 -4 3 -7 1 -9
8 -20 13 -22 7 -3 28 -5 31 -3 9 7 57 11 64 4 10 -8 22 -44 21 -61 -2 -16 -8
-21 -24 -21 -9 0 -14 1 -25 7 -12 7 -34 16 -38 16 -3 0 -11 -3 -17 -7 -4 -3
-4 -5 -4 -18 1 -16 0 -14 25 -31 34 -22 62 -33 93 -36 14 -1 30 -8 30 -13 0
-2 4 -7 13 -17 12 -12 15 -31 6 -39 -5 -5 -7 -5 -23 -4 -22 0 -32 -2 -41 -11
-8 -8 -11 -13 -11 -14 0 -1 -2 -5 -5 -10 -3 -4 -7 -10 -9 -13 -6 -11 -23 -37
-24 -38 -3 -2 -6 -14 -5 -25 1 -34 5 -68 9 -80 2 -6 2 -8 -1 -13 -4 -6 -7 -6
-7 0 0 2 -1 5 -3 5 -1 1 -3 4 -4 8 -1 4 -2 8 -4 9 -2 1 -3 4 -3 5 0 2 -1 3 -2
3 -1 0 -2 1 -2 3 0 8 -23 12 -35 5 -7 -4 -25 -24 -27 -30 -3 -6 -2 -24 1 -30
4 -7 20 -21 31 -26 12 -5 24 -5 37 1 12 6 15 9 16 17 0 3 1 6 2 8 1 1 1 3 0 4
0 1 1 3 3 5 2 1 4 2 4 1 0 -1 1 -2 2 -1 1 1 10 2 19 2 11 0 18 1 21 4 3 1 14
9 25 16 11 8 20 14 21 15 1 1 6 5 12 9 7 4 13 9 15 11 2 2 6 4 8 6 2 2 9 7 14
11 5 4 16 13 24 20 33 28 81 76 106 106 4 5 10 11 12 14 9 10 11 23 8 50 -2
18 -1 22 7 31 11 11 14 21 14 36 -1 42 -1 40 5 45 5 5 7 5 20 4 35 -3 38 -3
46 1 8 4 10 6 16 19 13 28 19 40 26 60 4 11 8 22 9 23 1 2 2 6 2 9 0 5 0 5 2
3 1 -2 3 -4 5 -4 4 0 5 -9 5 -36 0 -27 5 -46 14 -56 4 -4 10 -17 10 -21 0 -1
-2 -7 -5 -12 -4 -8 -5 -13 -5 -23 1 -14 2 -16 16 -27 7 -5 14 -15 19 -26 2 -5
4 -9 5 -9 1 0 3 -3 4 -6 6 -8 21 -15 37 -16 36 -2 100 18 135 41 27 19 38 41
37 76 0 16 0 16 6 22 5 5 8 6 10 5 1 -1 8 -2 15 -2 15 0 23 -5 23 -13 1 -9 5
-22 8 -26 2 -1 3 -4 3 -5 0 -4 17 -16 27 -19 11 -4 32 -2 56 3 4 1 10 3 13 3
9 2 47 15 49 17 1 1 3 2 4 2 5 0 20 17 25 27 2 5 5 9 6 9 1 0 3 1 5 3 3 3 4 3
8 -1 6 -5 6 -14 0 -30 -6 -18 -1 -34 14 -46 19 -16 21 -19 21 -31 0 -23 -15
-28 -46 -18 -16 6 -19 6 -67 5 -15 -1 -37 -1 -47 0 -75 6 -95 6 -105 1 l-8 -4
0 -15 0 -15 12 -8 c14 -9 16 -13 18 -25 1 -9 5 -25 9 -33 3 -6 10 -12 26 -21
24 -14 34 -26 47 -52 8 -16 14 -26 23 -35 17 -19 18 -26 5 -45 -22 -36 -15
-73 16 -83 21 -7 109 2 151 16 5 2 10 4 12 4 8 2 48 20 61 28 43 25 83 62 101
92 5 9 6 23 3 47 -1 13 -1 13 4 20 3 3 8 8 12 9 15 8 25 21 30 37 4 12 12 45
14 56 1 5 2 11 2 13 6 26 19 127 22 171 2 23 -2 37 -12 49 -9 12 -13 20 -13
30 0 11 3 18 15 29 10 9 18 24 20 36 0 4 1 20 2 35 0 15 1 41 2 57 1 16 2 39
2 51 0 12 1 44 2 71 1 27 2 54 2 60 2 23 1 87 -1 95 -1 4 -5 13 -8 18 -16 24
-17 31 -9 39 4 4 15 6 18 2 1 -1 8 -4 15 -6 14 -5 31 -5 34 -1 0 1 5 5 10 9
18 12 24 21 24 35 0 12 -4 21 -14 29 -16 15 -31 27 -36 31 -3 2 -12 10 -19 17
-8 6 -17 14 -20 16 -3 3 -9 8 -13 12 -4 3 -11 9 -14 12 -4 3 -14 11 -22 18
-36 31 -35 30 -46 30 -14 -1 -21 -3 -28 -11 -10 -10 -16 -13 -30 -13 -12 0
-22 6 -22 13 0 4 -12 22 -16 24 -4 2 -3 2 -13 4 -9 2 -15 6 -15 11 0 2 -1 2
-1 1 -1 -2 -2 -3 -3 -3 -4 0 9 39 15 43 9 7 21 3 36 -11 8 -8 12 -9 28 -11 16
-2 74 28 86 45 12 17 12 20 12 72 0 10 0 65 1 122 1 119 0 112 20 123 14 7 31
21 38 32 6 8 8 17 5 31 -3 13 -23 16 -44 6 -16 -8 -32 -8 -40 -1 l-6 5 0 23
c1 35 -2 43 -23 58 -6 4 -26 19 -43 32 -109 82 -102 78 -119 76 -15 -1 -18 -3
-43 -30 -21 -22 -25 -27 -51 -55 -9 -9 -17 -18 -19 -21 -2 -2 -8 -6 -14 -9
l-10 -5 -144 -1 c-141 -1 -144 -1 -159 -6 -8 -2 -19 -4 -24 -4 -5 0 -17 -2
-27 -4 -35 -8 -34 -8 -57 9 -14 11 -40 22 -74 32 -2 1 -12 4 -23 8 -11 4 -26
9 -34 12 -8 3 -23 8 -34 12 -11 4 -26 8 -33 10 -7 2 -16 5 -19 7 -3 2 -16 7
-28 11 -12 4 -26 8 -31 10 -8 3 -11 3 -19 1 -11 -2 -23 -12 -23 -18 0 -2 -1
-4 -2 -5 -1 -1 -2 -65 -2 -175 l-1 -173 -5 -7 c-4 -3 -6 -5 -6 -4 0 1 -2 3 -4
4 -3 1 -11 6 -19 11 -8 5 -22 14 -32 19 -9 6 -20 13 -23 14 -3 2 -7 5 -9 6 -5
3 -11 6 -18 11 -4 3 -8 3 -18 2 -13 -1 -14 -1 -20 -8 -6 -6 -12 -21 -16 -39 0
-3 -2 -9 -3 -13 -2 -10 -2 -9 -2 -11 0 -1 -1 -1 -3 1 -2 2 -4 3 -5 2 -1 -1 -2
1 -2 2 -1 28 -2 36 -9 52 -4 10 -9 19 -10 21 -4 6 -2 24 6 40 10 19 13 32 13
50 0 20 -3 31 -11 38 -7 7 -27 16 -34 16 -9 0 -15 8 -15 21 0 17 3 19 33 24
22 3 25 4 43 13 24 14 37 27 48 49 9 18 10 28 4 41 -9 17 -18 20 -81 25 -9 1
-19 2 -22 2 -14 1 -28 -10 -37 -27 -7 -15 -11 -20 -19 -20 -7 0 -15 7 -15 12
0 6 -8 28 -10 28 -1 0 -2 1 -1 2 0 1 -1 3 -3 4 -3 2 -6 4 -7 5 -2 2 -8 4 -18
6 -2 0 -12 1 -23 2 -10 1 -19 2 -20 2 -3 2 -24 -5 -37 -12 -22 -11 -24 -10
-52 10 -11 8 -22 9 -33 3z m604 -95 c12 -8 17 -24 10 -33 -8 -9 -30 -1 -37 14
-6 11 -6 16 -1 22 4 5 16 4 28 -3z m-484 -13 c6 -7 2 -19 -11 -39 -10 -15 -15
-19 -29 -19 -9 0 -11 1 -16 6 -8 8 -9 25 -1 33 6 7 22 16 37 20 15 4 16 4 20
-1z m74 -4 c5 -5 5 -15 0 -20 -9 -9 -24 -2 -24 10 0 8 6 14 14 14 3 0 8 -2 10
-4z m1199 1 c3 -3 3 -3 0 -6 -3 -3 -3 -3 -6 0 -3 2 -3 3 -1 6 4 4 4 4 7 0z
m-63 -55 c5 -5 5 -15 0 -20 -9 -9 -24 -2 -24 10 0 8 6 14 14 14 3 0 8 -2 10
-4z m-432 -70 c6 -2 14 -6 18 -8 6 -3 20 -3 157 -3 l150 0 6 -6 6 -6 0 -49
c-1 -26 0 -50 1 -52 3 -7 7 -15 6 -16 0 -1 1 -1 3 -1 2 1 8 2 15 2 12 0 12 0
12 -5 0 -5 0 -5 -12 -5 -7 0 -13 1 -15 2 -2 0 -3 0 -3 -1 1 -1 -3 -9 -6 -16
-1 -2 -2 -17 -1 -34 l0 -31 -6 -6 -6 -6 -155 1 c-104 0 -157 -1 -162 -2 -4 -1
-10 -4 -13 -7 -6 -6 -12 -25 -11 -34 0 -7 -5 -15 -10 -15 -7 0 -15 8 -20 18
-3 6 -5 10 -6 10 -1 0 -2 1 -2 3 0 3 -12 14 -16 15 -2 1 -5 5 -8 10 l-5 9 -1
105 -1 105 6 6 c5 5 8 6 16 6 5 0 12 2 15 4 26 12 33 13 48 7z m627 -38 c4 -6
4 -24 -1 -30 -7 -9 -27 -9 -34 0 -5 6 -5 24 0 30 7 9 27 9 35 0z m-1412 2 c10
-9 3 -26 -10 -26 -8 0 -15 7 -15 15 0 13 16 20 25 11z m487 -18 c4 -2 8 -5 8
-6 0 0 3 -4 7 -8 16 -17 20 -36 10 -45 -6 -7 -20 -7 -29 -1 -8 7 -21 24 -25
33 -10 23 6 39 29 27z m730 -74 c8 -8 10 -25 5 -56 -2 -10 -7 -16 -14 -16 -8
0 -13 4 -21 18 -4 6 -11 14 -14 17 -10 8 -12 13 -12 22 0 13 14 21 38 21 11 0
13 -1 18 -6z m155 -53 c5 -8 1 -16 -8 -16 -9 0 -13 8 -8 16 2 3 5 5 8 5 3 0 6
-2 8 -5z m-1184 -47 c6 -30 12 -38 36 -46 4 -1 10 -4 12 -6 3 -4 3 -4 0 -8 -3
-2 -10 -4 -18 -6 -13 -2 -31 -10 -31 -14 0 -1 -10 -11 -20 -20 -14 -13 -34
-22 -48 -22 l-12 0 -13 13 c-7 7 -14 13 -15 12 -1 0 -3 1 -4 3 -2 3 -5 4 -12
4 -6 0 -10 1 -11 3 -2 5 -2 -26 0 -43 2 -14 -3 -20 -18 -20 -12 0 -18 5 -20
17 -2 19 -9 38 -15 43 -9 8 -13 32 -7 42 6 8 10 8 46 8 28 0 37 -1 47 -4 18
-5 27 -5 35 1 4 3 7 7 7 9 0 2 1 4 2 5 1 1 3 6 5 12 4 13 8 16 22 18 5 1 13 3
18 5 9 4 12 3 14 -6z m1128 -17 c12 0 26 1 30 1 11 0 17 -6 17 -19 0 -7 -1
-11 -4 -14 -5 -5 -7 -5 -38 -4 -15 1 -24 0 -32 -2 -21 -5 -32 2 -32 20 0 17
11 25 29 20 4 -1 18 -2 30 -2z m-767 -46 c8 -4 12 -10 16 -23 5 -17 5 -22 -2
-44 -3 -11 -7 -26 -8 -33 -3 -18 -8 -23 -19 -23 -9 0 -17 6 -17 14 0 2 1 10 2
16 3 14 0 30 -7 42 -17 27 -6 55 22 53 4 0 10 -1 13 -2z m313 -23 c3 -3 5 -6
5 -8 0 -7 8 -25 14 -31 11 -11 12 -11 125 -11 l104 1 5 -5 c3 -4 7 -6 9 -6 3
0 3 -1 2 -2 -2 -1 -2 -2 1 -5 4 -5 3 -5 19 -5 10 0 13 -1 14 -3 0 -2 1 -1 1 2
0 10 8 15 23 15 16 0 18 -2 29 -23 12 -24 25 -32 46 -27 21 4 21 4 21 -3 -1
-6 -4 -10 -22 -29 -23 -23 -24 -26 -32 -50 -6 -22 -11 -26 -26 -26 -7 0 -13 2
-19 5 -30 16 -30 16 -52 16 -29 0 -33 -2 -34 -22 0 -8 -1 -15 -3 -15 -1 -1 0
-2 2 -2 10 0 15 -26 8 -40 -2 -5 -3 -9 -2 -17 2 -14 3 -16 10 -21 6 -5 8 -5
43 -6 l38 0 4 -6 c4 -3 5 -7 5 -11 -1 -3 -1 -27 -1 -52 l-1 -46 -5 -3 c-5 -2
-6 -2 -12 3 -4 3 -10 8 -14 11 -7 5 -53 39 -86 64 -18 14 -25 17 -35 18 -16 1
-22 -4 -60 -42 -38 -39 -45 -44 -64 -45 -5 0 -16 1 -23 3 -21 6 -40 0 -50 -15
-9 -12 -17 -15 -41 -11 -2 1 -11 -1 -15 -3 -3 -1 -5 -4 -7 -11 -2 -5 -10 -20
-13 -23 -8 -7 -26 -3 -37 8 -23 25 -25 28 -25 42 0 13 5 21 19 29 12 7 13 10
13 26 0 9 -1 11 -7 17 -3 3 -11 8 -16 10 -10 3 -16 9 -19 20 -1 4 0 7 5 12 l6
6 25 -1 c31 0 36 1 59 15 24 16 30 16 53 1 25 -16 22 -16 105 -16 41 0 77 1
81 1 11 3 17 10 19 25 1 12 1 13 -3 16 -3 3 -7 6 -9 8 -6 4 -28 5 -37 1 -11
-6 -36 -2 -36 6 0 2 -12 18 -15 19 0 0 -2 2 -4 3 -1 1 -6 5 -11 7 -12 6 -19
11 -29 21 -5 5 -11 9 -13 10 -2 1 -4 2 -4 3 0 3 -12 3 -96 3 l-85 0 -6 6 -6 6
0 61 0 61 6 6 6 6 45 -1 c50 0 56 1 66 11 6 6 14 24 14 30 0 11 17 17 25 9z
m-394 -69 c6 -4 6 -6 6 -20 0 -14 0 -16 -6 -20 -4 -4 -7 -5 -21 -5 -26 0 -45
-6 -50 -16 -4 -8 -3 -30 2 -40 6 -14 5 -26 -3 -43 -13 -28 -13 -26 -13 -96 0
-73 0 -74 15 -97 9 -13 10 -16 10 -26 0 -10 -1 -13 -6 -20 -23 -32 -24 -34
-26 -91 -1 -14 -1 -30 -2 -34 0 -4 -1 -16 -2 -25 -3 -38 -9 -89 -12 -96 -4
-10 -7 -11 -19 -3 -12 8 -24 10 -44 8 -13 -1 -15 -1 -25 4 -6 3 -12 8 -15 12
-6 9 -16 13 -30 13 -14 -1 -16 -2 -24 -18 -3 -8 -9 -17 -13 -21 -6 -7 -7 -7
-20 -7 -17 0 -23 5 -24 18 -3 19 0 24 21 42 l10 9 0 15 c-1 8 -2 15 -3 16 -1
0 -4 6 -7 11 -4 10 -4 16 1 52 3 17 11 107 12 128 1 22 1 26 -4 46 -7 26 -7
29 7 60 3 6 4 11 5 23 1 15 8 28 16 34 4 3 10 7 14 10 4 3 9 6 11 8 3 2 7 5
11 8 3 3 9 7 13 10 4 3 7 5 8 6 1 1 4 3 8 6 4 3 9 7 11 9 3 2 8 6 11 9 17 13
48 38 56 45 8 7 20 28 20 34 0 6 14 17 26 21 12 4 31 14 34 18 7 9 32 11 41 3z
m-244 -56 c5 -8 1 -16 -8 -16 -9 0 -13 8 -8 16 2 3 5 5 8 5 3 0 6 -2 8 -5z
m-71 -4 l5 -5 -4 -22 c-1 -11 -3 -26 -4 -32 -2 -16 -7 -21 -19 -19 -18 2 -25
15 -20 36 4 14 15 39 20 43 7 6 16 5 22 -1z m-368 -23 c6 -6 5 -24 -1 -44 -6
-20 -10 -23 -29 -22 -13 0 -20 17 -14 33 3 9 16 31 19 31 1 0 3 1 4 3 5 4 16
4 21 -1z m730 -52 c5 -6 5 -12 0 -18 -7 -8 -22 -2 -22 9 0 11 15 17 22 9z
m-462 -23 c3 -3 4 -7 4 -14 0 -13 -6 -19 -19 -19 -13 0 -19 6 -19 19 0 7 1 11
4 14 7 8 23 8 30 0z m-89 -42 c7 -4 8 -8 13 -33 5 -29 5 -37 0 -42 -9 -9 -22
-3 -32 12 -2 2 -4 6 -6 9 -18 23 -19 49 -2 56 7 3 21 2 27 -2z m566 -17 c3 -4
5 -9 6 -20 1 -15 7 -34 12 -38 6 -4 11 -15 11 -23 0 -23 -23 -26 -55 -7 -18
11 -21 20 -13 46 12 39 16 46 28 46 5 0 9 -1 11 -4z m-691 -75 l-5 -5 -4 4 -5
5 4 4 5 5 4 -4 5 -5 -4 -4z m-145 -52 c3 -3 5 -7 5 -12 0 -13 -5 -18 -21 -21
-8 -1 -9 -1 -14 4 -2 3 -4 6 -4 7 0 1 1 5 2 10 3 16 21 23 32 12z m428 -6 c7
-4 10 -11 10 -23 0 -19 -8 -27 -28 -27 -14 0 -21 5 -24 17 -5 17 1 33 15 36 9
2 22 1 27 -3z m-159 -15 c5 -5 6 -7 6 -17 0 -10 -1 -12 -6 -17 -5 -5 -7 -6
-17 -6 -10 0 -12 1 -17 6 -5 5 -6 7 -6 17 0 10 1 12 6 17 5 5 7 6 17 6 10 0
12 -1 17 -6z m1260 -17 c16 -10 18 -13 18 -24 -1 -12 -6 -17 -18 -17 -9 0 -13
4 -18 18 -3 10 -2 27 2 25 1 -1 2 0 3 1 2 3 3 3 13 -3z m-257 -33 c4 -6 4 -22
0 -30 -5 -7 -26 -22 -30 -21 -3 2 -5 8 -6 17 0 3 -1 6 -2 7 -3 3 -1 22 3 27 7
9 27 9 35 0z m-910 -12 c7 -3 12 -13 12 -25 0 -19 -9 -28 -28 -28 -19 0 -28 9
-28 28 0 17 6 24 22 28 5 1 16 -1 22 -3z m1000 -3 c5 -8 1 -16 -8 -16 -9 0
-13 8 -8 16 2 3 5 5 8 5 3 0 6 -2 8 -5z m-356 -40 c7 -6 9 -19 5 -43 -2 -14
-3 -18 -8 -22 -6 -6 -6 -6 -12 -2 -9 4 -12 8 -20 23 -9 16 -10 22 -8 32 3 13
10 17 25 17 10 0 14 -1 18 -5z m230 -11 c-1 -1 0 -2 1 -2 2 0 2 -1 1 -1 0 -1
1 -7 4 -14 3 -7 4 -13 4 -13 -1 0 1 -2 3 -4 5 -4 9 -5 23 -7 3 -1 7 -3 7 -4 1
-1 2 -1 2 1 0 5 10 4 14 0 5 -5 5 -11 0 -15 -4 -5 -14 -6 -14 -1 0 2 -1 2 -2
1 0 -1 -4 -3 -7 -4 -14 -2 -18 -3 -23 -7 -2 -2 -4 -4 -3 -4 0 0 0 -3 -2 -8 -3
-6 -3 -20 -3 -87 l1 -80 -6 -6 c-6 -7 -33 -17 -44 -17 -19 0 -37 21 -37 42 0
9 1 11 6 16 3 3 8 6 10 6 3 0 11 3 19 7 14 7 15 8 20 18 l5 11 0 59 c0 64 -1
68 -11 77 -3 2 -6 3 -7 3 -1 -1 -2 0 -2 1 0 1 -4 2 -9 3 -5 1 -9 2 -9 4 0 1
-1 1 -2 -1 -3 -5 -16 2 -16 10 0 7 10 14 15 10 1 -1 3 -1 4 -1 0 1 10 2 20 1
17 0 19 0 22 4 8 8 9 10 9 13 0 3 1 1 4 -3 2 -4 3 -8 3 -8z m356 1 c9 -2 21
-3 32 -3 10 0 20 0 23 0 13 0 22 -17 18 -34 -2 -11 -7 -16 -18 -18 -13 -3 -23
0 -36 12 -6 6 -16 14 -23 17 -11 5 -21 14 -21 18 0 4 6 11 9 11 2 0 9 -1 16
-3z m-679 -11 c7 -4 11 -15 7 -23 -8 -19 -35 -13 -35 7 0 15 15 23 28 16z
m-110 -42 c5 -6 5 -12 0 -18 -7 -8 -22 -2 -22 9 0 11 15 17 22 9z m286 -17 c6
-6 6 -25 -1 -30 -9 -6 -23 -5 -30 3 -5 6 -4 21 1 27 7 8 21 8 30 0z m413 -10
c6 -7 6 -11 2 -18 -6 -9 -19 -3 -19 9 0 3 8 14 11 14 0 0 3 -2 6 -5z m-1259
-17 c6 -4 10 -16 10 -31 0 -8 -1 -11 -5 -14 -5 -3 -5 -3 -10 1 -7 5 -10 12
-12 27 -2 18 5 26 17 17z m121 -30 c10 -9 3 -26 -10 -26 -8 0 -15 7 -15 15 0
13 16 20 25 11z m1227 1 c4 -4 3 -8 -1 -12 -4 -4 -10 8 -7 12 4 4 3 4 8 0z
m-62 -26 c4 -5 5 -7 5 -20 0 -14 -1 -15 -5 -20 -12 -12 -37 -8 -42 7 -4 9 -1
27 4 33 10 10 28 10 38 0z m91 -26 c-3 -3 -3 -3 -7 0 -4 4 -3 8 1 12 1 2 3 1
6 -3 3 -5 3 -6 0 -9z m80 -36 c14 -14 21 -39 13 -47 -13 -13 -37 8 -41 37 -3
17 14 23 28 10z m-1150 -37 c10 -9 3 -26 -10 -26 -8 0 -15 7 -15 15 0 13 16
20 25 11z m1030 -32 c10 -9 3 -26 -10 -26 -8 0 -15 7 -15 15 0 13 16 20 25 11z
m-1393 -16 c5 -5 5 -11 0 -16 -7 -7 -19 -2 -19 8 0 10 12 15 19 8z m970 -45
l-5 -5 -4 4 -5 5 4 4 5 5 4 -4 5 -5 -4 -4z m144 -11 c8 -8 3 -21 -8 -25 -9 -3
-10 -3 -12 2 -1 2 -2 3 -2 2 0 0 -1 0 -3 1 -3 4 -1 15 5 20 6 5 15 5 20 0z
m426 -9 c11 -3 18 -11 18 -23 0 -13 -4 -17 -24 -28 -9 -4 -19 -10 -23 -13 -4
-3 -10 -6 -14 -7 -4 -1 -10 -4 -13 -5 -3 -2 -6 -3 -7 -3 -2 0 -7 -3 -13 -7
-17 -11 -21 -13 -32 -13 -15 0 -22 7 -22 23 0 14 4 18 22 28 7 4 18 11 23 16
21 18 38 27 58 32 10 3 14 3 27 0z m-642 -48 l-5 -5 -4 4 -5 5 4 4 5 5 4 -4 5
-5 -4 -4z m-443 0 c5 -3 23 -7 32 -7 4 0 11 2 17 4 28 11 51 -7 44 -35 -4 -13
-14 -21 -29 -20 -11 1 -17 3 -28 13 -10 11 -18 14 -39 15 -18 2 -24 6 -24 17
0 13 16 21 27 13z m1011 -103 c5 -6 5 -12 0 -18 -7 -8 -22 -2 -22 9 0 11 15
17 22 9z m-162 -80 c5 -5 5 -15 0 -20 -9 -9 -24 -2 -24 10 0 8 6 14 14 14 3 0
8 -2 10 -4z m-1391 -24 c7 -11 1 -24 -11 -24 -12 0 -18 13 -11 24 2 3 5 4 11
4 6 0 9 -1 11 -4z m520 -14 c11 -10 3 -28 -11 -28 -9 0 -16 6 -16 16 0 14 17
22 27 12z"/>
<path d="M1428 3066 c-4 -1 -13 -8 -11 -8 1 0 1 -1 -1 -2 -1 -1 -3 -7 -3 -13
-1 -7 -2 -12 -3 -13 -2 0 1 -2 5 -4 11 -4 29 -5 36 -1 3 2 7 3 9 3 2 0 2 0 1
2 -2 0 -3 7 -3 15 -1 12 -2 14 -6 18 -6 3 -18 6 -24 3z"/>
</g>
</svg>
