<?xml version="1.0" standalone="no"?>
<!DOCTYPE svg PUBLIC "-//W3C//DTD SVG 20010904//EN"
 "http://www.w3.org/TR/2001/REC-SVG-20010904/DTD/svg10.dtd">
<svg version="1.0" xmlns="http://www.w3.org/2000/svg"
 width="1100.000000pt" height="2850.000000pt" viewBox="0 0 1100.000000 2850.000000"
 preserveAspectRatio="xMidYMid meet">
<metadata>
Created by potrace 1.15, written by Peter Selinger 2001-2017
</metadata>
<g transform="translate(0.000000,2850.000000) scale(0.500000,-0.500000)"
fill="#000000" stroke="none">
<path d="M341 3817 c-12 -3 -26 -31 -21 -40 6 -13 -5 -29 -19 -29 -4 0 -12 0
-16 0 -17 0 -31 -8 -35 -21 -2 -5 -2 -48 -1 -149 1 -195 1 -257 0 -261 -1 -2
-3 -5 -5 -7 -3 -3 -4 -3 -7 5 -9 21 -22 49 -26 55 -5 8 -15 16 -19 16 -1 0 -2
1 -2 2 0 2 -20 6 -28 5 -29 -3 -44 -24 -41 -55 5 -56 -1 -129 -16 -199 -3 -13
-19 -63 -21 -66 -2 -2 -6 -20 -10 -41 -3 -16 -7 -20 -25 -30 -18 -10 -27 -19
-35 -36 -13 -27 -14 -34 -14 -69 0 -33 0 -33 7 -50 29 -72 104 -105 172 -76
17 7 43 23 51 31 3 4 4 4 6 2 6 -6 8 -15 7 -30 -3 -45 -3 -58 1 -66 5 -10 8
-11 22 -13 9 -1 12 0 14 2 7 8 24 0 24 -12 0 -12 -17 -20 -25 -11 -2 2 -6 3
-17 3 -23 -1 -28 -9 -29 -42 0 -8 2 -15 5 -22 10 -21 11 -28 6 -37 -2 -5 -6
-10 -8 -13 -8 -8 -14 -25 -18 -49 -8 -52 -26 -144 -32 -163 -1 -3 -5 -18 -9
-32 -12 -42 -30 -95 -43 -128 -3 -8 -3 -22 1 -30 4 -7 11 -16 11 -14 0 1 2 -2
4 -6 4 -9 4 -9 1 -14 -3 -4 -6 -4 -15 -4 -25 -1 -36 -8 -49 -31 -13 -25 -17
-33 -20 -36 -2 -2 -3 -4 -3 -5 0 -3 -33 -52 -47 -70 -17 -21 -17 -22 -17 -40
0 -14 0 -15 9 -28 16 -24 24 -29 42 -28 11 0 13 1 30 12 10 6 18 12 19 13 1 1
7 5 14 10 13 9 36 26 38 28 1 1 5 4 10 8 9 7 16 13 21 17 1 1 11 9 21 18 20
18 66 64 83 84 6 6 13 15 17 19 9 11 31 40 44 59 11 16 42 64 42 66 0 0 3 6 7
13 22 38 46 91 65 143 5 14 11 27 13 29 3 4 3 4 7 1 5 -5 20 -62 25 -96 1 -3
2 -11 3 -18 3 -15 3 -18 7 -52 5 -46 10 -56 46 -80 15 -10 40 -22 54 -26 12
-3 29 -2 57 2 32 5 37 11 37 39 0 23 3 27 16 24 12 -3 20 -3 22 1 0 1 1 1 1
-1 0 -2 1 -4 2 -4 0 -1 5 -5 9 -11 9 -12 15 -18 26 -25 11 -7 15 -12 15 -20 0
-8 -4 -13 -15 -20 -11 -7 -18 -14 -22 -23 -6 -9 -7 -193 -2 -206 4 -9 14 -21
18 -21 2 0 3 -1 3 -2 0 0 2 -2 6 -2 10 -2 103 0 118 2 19 2 36 6 42 7 1 0 8 2
17 4 55 12 101 39 110 65 4 10 5 11 13 17 4 3 11 3 53 3 51 0 58 1 65 9 5 5
12 21 13 28 0 8 5 15 9 15 4 0 9 -7 9 -15 1 -7 8 -23 13 -28 10 -11 24 -11 53
-1 27 9 31 9 59 -1 l22 -7 153 0 c85 0 153 1 153 2 0 1 2 2 5 3 3 1 5 2 5 3
-1 0 0 3 1 6 2 3 2 9 2 15 0 6 1 9 3 10 2 0 1 1 -1 1 -4 0 -5 2 -8 11 -7 23 6
41 28 40 16 -1 23 -6 27 -21 3 -12 -2 -30 -9 -30 -2 0 -3 -1 -1 -1 2 -1 3 -4
3 -10 0 -6 0 -12 2 -15 1 -3 2 -6 1 -6 0 -1 2 -2 5 -3 3 -1 5 -2 5 -3 0 -2
162 -2 173 0 20 4 36 12 49 24 25 25 26 49 2 72 -8 8 -81 70 -100 86 -18 15
-27 17 -62 13 -24 -2 -30 3 -30 30 0 8 -1 14 -2 15 -1 1 2 4 6 7 8 5 10 5 35
5 33 0 46 2 64 11 24 12 41 33 41 51 0 17 -8 28 -41 57 -24 21 -68 60 -73 64
-3 2 -18 15 -33 27 -42 35 -46 42 -44 71 1 22 4 25 19 27 15 1 19 -4 21 -22 1
-18 8 -32 18 -37 7 -4 11 -5 31 -5 30 0 43 2 59 10 33 16 50 44 40 67 -9 21
-19 27 -53 29 -28 1 -30 3 -34 29 -3 26 -8 35 -24 48 -4 3 -16 13 -25 21 -10
8 -20 17 -22 18 -9 6 -3 18 12 23 13 4 20 4 43 -3 18 -5 23 -6 42 -6 39 1 61
8 80 26 27 27 26 51 -4 77 -7 7 -15 14 -18 17 -3 2 -13 11 -22 19 -9 7 -17 14
-18 15 -1 1 -7 7 -15 13 -8 7 -15 13 -16 14 -1 1 -16 14 -34 28 -17 14 -32 27
-32 29 -2 7 6 12 30 20 13 5 29 11 34 14 14 7 48 42 55 56 l5 11 1 135 c0 139
0 148 -8 163 -4 8 -4 38 0 45 6 11 7 22 8 96 1 70 1 78 4 81 2 2 5 4 5 6 1 1
8 5 16 9 14 7 36 26 41 35 3 6 3 21 0 28 -2 7 -14 18 -28 28 -13 8 -30 12 -42
8 -8 -2 -21 -15 -34 -32 -11 -14 -13 -15 -28 -15 -10 0 -13 1 -17 5 -6 4 -6 6
-6 20 0 18 3 22 21 26 25 6 32 12 32 29 0 10 -4 18 -12 24 -4 3 -8 6 -10 7 -2
2 -8 6 -13 10 -12 9 -44 34 -68 52 -22 17 -27 20 -41 18 -14 -1 -18 -3 -37
-24 -20 -23 -23 -26 -40 -44 -25 -27 -27 -29 -37 -34 -10 -4 -13 -5 -36 -5
-35 1 -28 -2 -158 50 -55 22 -77 30 -83 30 -33 0 -55 -23 -55 -59 0 -6 -1 -13
-2 -15 -3 -6 -10 -12 -10 -10 -1 2 -119 90 -129 96 -6 4 -15 5 -27 3 -7 -2
-22 -16 -70 -66 -23 -24 -29 -27 -57 -29 -32 -1 -50 4 -107 28 -19 8 -31 7
-51 -2 -24 -11 -29 -8 -41 18 -9 23 -15 27 -53 43 -19 8 -40 -2 -45 -20 -1 -5
-2 -60 -2 -158 l0 -149 5 -11 c5 -10 14 -19 31 -30 15 -9 14 -41 -1 -48 -7 -4
-22 -5 -31 -1 -8 3 -11 10 -13 24 -3 23 -5 30 -10 37 -7 10 -9 12 -32 26 -20
11 -24 13 -33 13 -21 0 -32 -13 -38 -46 -2 -7 -3 -12 -3 -11 -1 2 -2 2 -4 2
-1 -1 -3 0 -4 2 -1 2 -1 58 -1 124 l0 120 5 8 c4 5 8 9 14 12 24 10 53 48 53
70 0 25 -16 37 -55 40 -8 0 -62 5 -122 11 -59 5 -109 10 -111 10 -2 0 -5 -1
-7 -1z m92 -67 c10 -9 3 -26 -10 -26 -8 0 -15 7 -15 15 0 13 16 20 25 11z
m-109 -57 c20 -8 31 -50 16 -66 -4 -5 -11 -8 -21 -8 -26 -1 -37 21 -27 60 4
16 15 21 32 14z m1127 -6 c3 -3 3 -3 0 -6 -3 -3 -3 -3 -6 0 -3 2 -3 3 -1 6 4
4 4 4 7 0z m-434 -110 c6 -6 6 -6 5 -24 0 -15 0 -19 2 -19 2 0 0 -2 -5 -5 -4
-3 -7 -6 -7 -7 0 0 -4 -1 -9 -1 -8 0 -11 1 -16 6 -6 6 -6 7 -6 25 0 18 0 19 6
25 8 9 21 9 30 0z m600 0 l6 -6 -1 -22 c-1 -19 -2 -24 -5 -28 -8 -11 -32 -13
-40 -3 -3 4 -3 7 -2 24 1 28 1 28 8 35 5 5 7 6 17 6 9 0 11 -1 17 -6z m-313
-11 c12 -12 7 -35 -11 -48 -6 -4 -10 -8 -11 -9 0 0 -1 0 -3 1 -3 3 -18 3 -29
0 -8 -2 -17 -1 -27 3 -13 5 -13 42 0 48 9 4 47 11 61 11 13 0 15 0 20 -6z
m188 -4 c5 -6 5 -22 -1 -45 -5 -21 -9 -25 -24 -25 -13 0 -19 6 -19 20 0 11 15
42 24 49 7 6 15 6 20 1z m258 -7 c7 -6 13 -11 14 -10 1 1 2 0 2 -1 0 -3 23 -2
27 1 15 11 33 -9 21 -22 -5 -6 -16 -7 -20 -2 -1 2 -3 3 -4 3 -2 0 -5 2 -8 4
-8 5 -27 4 -37 -3 -12 -8 -27 -7 -35 1 -5 5 -6 7 -6 17 0 10 1 12 6 17 5 5 7
6 17 6 11 0 11 0 23 -11z m-1391 -3 c13 -6 16 -9 18 -20 4 -25 -12 -37 -41
-31 -29 7 -40 16 -40 35 0 20 8 26 34 24 11 -1 20 -3 29 -8z m733 -33 c4 -4
12 -23 12 -30 0 -5 -7 -12 -10 -10 -1 1 -2 0 -2 -1 0 -2 -1 -2 -3 -1 -2 1 -5
2 -6 2 -13 3 -19 6 -22 10 -6 9 -8 25 -3 25 1 0 4 2 6 4 5 5 22 6 28 1z m48
-45 c23 -5 29 -10 29 -29 0 -19 -9 -28 -28 -28 -16 0 -27 9 -27 20 0 2 -2 9
-4 14 -3 9 -3 11 -1 16 2 3 3 5 3 4 0 -1 1 0 3 2 4 4 11 4 25 1z m390 -54 c5
-5 5 -11 0 -16 -10 -10 -27 5 -16 16 4 4 12 4 16 0z m-1190 -12 c5 -5 6 -7 6
-17 0 -10 -1 -12 -6 -17 -5 -5 -7 -6 -17 -6 -10 0 -12 1 -17 6 -5 5 -6 7 -6
17 0 10 1 12 6 17 5 5 7 6 17 6 10 0 12 -1 17 -6z m720 -13 c3 -3 4 -7 4 -14
0 -11 -2 -14 -19 -26 -6 -4 -11 -8 -10 -9 2 -2 -22 -11 -32 -12 -9 -1 -10 -1
-16 5 -6 6 -6 7 -6 27 0 20 0 21 6 27 5 5 7 6 13 5 4 0 14 1 22 2 20 2 32 1
38 -5z m557 -2 c6 -6 6 -6 6 -27 0 -21 0 -21 -6 -27 -5 -5 -8 -6 -17 -6 -9 0
-12 1 -17 6 l-6 6 1 21 c1 19 2 22 6 27 4 5 6 6 16 6 9 0 11 -1 17 -6z m-776
-22 c12 -7 14 -33 3 -43 -8 -9 -32 -9 -40 0 -9 8 -9 32 0 41 7 7 27 8 37 2z
m894 -16 c12 -12 3 -31 -13 -31 -11 0 -18 7 -18 18 0 11 7 18 18 18 6 0 9 -1
13 -5z m-417 -20 c8 -11 8 -25 0 -36 -6 -10 -13 -12 -22 -8 -19 8 -19 44 0 52
9 4 16 2 22 -8z m127 -5 c11 -10 3 -28 -11 -28 -9 0 -16 6 -16 16 0 14 17 22
27 12z m-1050 -35 c12 -7 14 -33 3 -43 -8 -9 -36 -9 -41 0 -8 12 -7 32 1 41 7
7 27 8 37 2z m525 -55 c20 -27 31 -32 67 -30 22 1 25 1 27 -2 1 -2 5 -5 9 -6
7 -2 7 -2 3 -6 -3 -3 -4 -7 -3 -22 0 -18 0 -19 -6 -25 -6 -6 -6 -6 -22 -5 -31
3 -49 11 -57 26 -6 11 -9 15 -14 20 -6 5 -27 16 -31 16 -2 0 -5 2 -8 5 -6 6
-7 24 -1 31 8 10 28 8 36 -2z m149 -19 c3 -3 3 -3 0 -6 -1 -2 -3 -3 -4 -3 -1
0 -3 6 -2 9 1 2 2 3 2 3 1 0 3 -1 4 -3z m-733 -6 c6 -2 13 -6 16 -8 3 -3 8 -6
12 -7 20 -7 24 -13 23 -32 0 -17 -6 -22 -24 -22 -11 0 -14 1 -19 6 -6 5 -9 6
-20 6 -7 1 -12 0 -12 -1 0 -1 -1 -1 -2 0 -1 2 -2 2 -5 0 -2 -2 -3 -3 -2 -3 1
0 1 -1 0 -2 -2 0 -4 -6 -6 -12 -2 -9 -5 -13 -16 -23 -16 -15 -20 -22 -22 -43
-2 -13 -8 -18 -20 -18 -15 0 -20 7 -19 24 0 3 4 9 9 15 5 5 10 12 12 15 4 7 7
24 7 36 0 5 1 11 3 14 3 4 31 18 38 19 1 0 3 1 3 2 0 0 1 1 2 0 0 0 1 2 2 6 0
7 6 19 13 27 5 5 12 5 27 1z m1287 -38 c0 -21 0 -22 -6 -28 -5 -5 -7 -6 -15
-5 -5 0 -17 -1 -25 -3 -24 -5 -39 -4 -46 2 -6 4 -6 6 -6 20 0 15 3 23 11 24 2
0 9 3 17 8 7 4 14 7 16 7 1 0 3 1 4 2 1 2 19 6 30 7 6 0 9 -1 14 -6 6 -6 6 -6
6 -28z m-326 -1 c6 -1 12 0 12 1 1 0 5 -1 8 -2 4 -2 11 -4 16 -4 17 -2 19 -6
24 -45 2 -16 2 -26 1 -31 -2 -9 -10 -17 -18 -17 -6 -1 -7 -1 -18 -4 -7 -2 -10
-4 -10 -6 0 -6 -12 21 -12 28 0 12 -5 23 -13 32 -5 4 -10 8 -12 8 -4 0 -17 14
-17 19 0 5 13 19 17 19 2 0 4 1 4 3 1 2 2 3 4 1 2 -1 8 -2 14 -2z m-654 -38
c8 -7 13 -13 12 -15 0 -2 1 -3 2 -4 5 -2 28 1 29 4 1 1 2 0 2 -2 0 -3 1 -5 2
-5 1 0 4 -3 5 -7 2 -6 3 -22 3 -91 0 -72 0 -85 3 -91 4 -9 14 -21 18 -21 2 0
3 -1 3 -2 0 0 2 -2 6 -2 6 -1 55 -1 75 0 15 1 21 -1 21 -7 0 -5 -50 -102 -73
-141 -8 -13 -16 -28 -20 -34 -3 -6 -8 -15 -11 -19 -3 -4 -7 -12 -9 -16 -6 -14
-18 -32 -24 -38 -8 -8 -22 -26 -35 -44 -14 -18 -21 -24 -31 -22 -6 0 -15 4
-17 7 -1 2 -24 17 -38 25 -16 9 -22 11 -30 10 -12 -2 -16 -3 -26 -8 -15 -7
-28 -7 -35 0 -11 11 -4 37 9 37 9 0 31 9 37 16 4 3 8 10 9 14 3 8 9 55 13 98
1 7 2 17 2 22 0 5 1 16 2 24 1 8 1 19 2 24 0 5 1 19 2 32 1 13 2 27 2 32 1 5
1 21 2 36 1 15 2 30 2 34 1 9 10 25 16 30 3 2 12 10 20 17 8 7 18 17 24 21 26
24 26 23 27 34 1 6 2 14 3 17 1 5 0 7 -2 6 -3 -1 -11 6 -16 14 -3 6 -3 7 0 12
3 5 9 6 14 3z m530 -7 c4 -4 5 -7 5 -15 0 -14 -6 -20 -20 -20 -14 0 -20 6 -20
20 0 14 6 20 20 20 8 0 11 -1 15 -5z m399 -57 c3 -3 6 -8 7 -13 0 -4 2 -10 4
-13 2 -3 3 -7 3 -8 0 -5 18 -19 23 -17 2 0 3 0 3 -2 0 -1 2 -5 6 -7 5 -5 5 -5
4 -27 0 -30 2 -36 23 -53 9 -7 17 -14 19 -14 2 -1 2 -2 1 -2 -8 0 6 -35 16
-38 3 -1 5 -3 5 -4 0 -2 25 -3 29 -1 1 1 2 2 3 2 1 0 4 2 7 4 7 5 24 5 32 0
16 -8 15 -42 -1 -49 -14 -6 -34 -2 -39 8 -4 7 -19 23 -24 25 -6 3 -20 3 -23 0
-1 -1 -5 -1 -11 1 -18 6 -44 2 -48 -8 -4 -10 -21 -28 -30 -33 -10 -5 -12 -5
-42 -5 -32 1 -32 1 -39 7 -3 3 -5 5 -4 5 1 0 4 6 6 14 6 17 6 44 1 64 -6 24
-4 29 22 42 12 6 14 8 19 18 2 6 6 13 8 15 2 2 4 4 4 5 0 1 2 2 4 2 1 0 2 1 1
2 -1 0 -2 2 -3 4 -1 4 -4 8 -6 7 -1 0 -4 0 -7 1 -4 1 -8 0 -12 -1 -6 -3 -7 -2
-10 1 -4 4 -3 12 3 30 5 13 6 18 7 27 3 17 27 24 39 11z m-457 -45 c7 -7 7
-23 0 -30 -5 -5 -6 -5 -15 -5 -9 0 -10 0 -15 5 -4 4 -5 7 -5 15 0 14 6 20 20
20 8 0 11 -1 15 -5z m340 -10 c6 -4 6 -6 6 -20 0 -14 0 -16 -6 -20 -4 -4 -7
-5 -18 -5 -11 0 -14 1 -18 5 -6 4 -6 6 -6 20 0 14 0 16 6 20 4 4 7 5 18 5 11
0 14 -1 18 -5z m-252 -22 c6 -6 6 -14 0 -35 -2 -6 -3 -16 -3 -23 -1 -19 -6
-19 -33 -6 -16 9 -19 11 -19 15 -1 8 0 10 6 16 3 3 9 12 13 19 4 7 10 15 12
16 7 5 18 4 24 -2z m-976 -11 c4 -6 4 -24 -1 -30 -7 -9 -27 -9 -34 0 -5 6 -5
24 0 30 7 9 27 9 35 0z m113 -18 c5 -3 13 -15 15 -23 3 -11 -30 -16 -39 -5 -6
7 -5 19 1 25 5 5 16 7 23 3z m963 -7 c6 -4 6 -6 6 -20 0 -14 0 -16 -6 -20 -4
-4 -7 -5 -18 -5 -11 0 -14 1 -18 5 -6 4 -6 6 -6 20 0 14 0 16 6 20 4 4 7 5 18
5 11 0 14 -1 18 -5z m-1208 -28 c24 -7 34 -18 34 -36 0 -19 -10 -28 -29 -28
-5 0 -12 2 -16 4 -8 4 -19 19 -23 31 -9 26 4 38 34 29z m309 -6 c9 -8 2 -25
-11 -25 -11 0 -26 19 -20 25 2 2 5 3 7 4 2 0 4 0 4 1 0 3 15 -1 20 -5z m85
-80 c3 -2 6 -8 8 -13 3 -10 3 -11 0 -15 -6 -10 -17 -4 -22 11 -3 10 -3 11 0
15 4 6 8 6 14 2z m743 -10 c7 -9 5 -30 -6 -56 -4 -11 -10 -21 -12 -24 -13 -15
-16 -33 -9 -56 3 -8 5 -18 5 -23 0 -9 4 -22 12 -37 12 -24 12 -32 0 -58 -3 -6
-6 -14 -7 -17 -2 -7 -14 -18 -20 -18 -8 0 -19 6 -29 15 -16 15 -30 20 -52 20
-19 0 -19 0 -25 6 l-6 6 0 45 0 45 6 5 c5 4 5 5 5 16 -1 7 -2 13 -2 13 -1 1
-1 2 -1 4 1 1 0 5 -1 7 -2 4 -2 4 6 4 7 0 8 0 8 -5 0 -4 0 -7 0 -7 -1 -7 41 4
56 14 8 6 20 20 25 28 0 2 3 6 5 10 3 5 3 9 1 21 -1 17 0 20 14 33 16 16 20
17 27 9z m-126 -78 c5 -5 7 -16 4 -20 -5 -7 -59 -2 -67 5 -3 4 -3 4 1 8 3 4 9
5 24 8 29 5 33 5 38 -1z m-179 -17 c10 -9 3 -26 -10 -26 -8 0 -15 7 -15 15 0
13 16 20 25 11z m773 -25 c6 -5 10 -14 10 -24 0 -7 -1 -10 -7 -16 -6 -7 -7 -7
-18 -7 -8 0 -15 1 -20 4 -9 4 -26 5 -36 2 -5 -2 -14 -12 -36 -42 -26 -35 -31
-41 -40 -45 l-10 -5 -6 6 -6 5 0 45 0 45 6 6 c3 3 6 6 7 6 1 -1 79 -1 84 -1 2
1 13 6 23 12 18 10 21 12 32 12 8 0 14 -1 17 -3z m-908 -33 c4 -3 8 -6 10 -8
3 -3 22 -12 35 -17 13 -5 18 -10 21 -20 4 -16 -2 -31 -16 -36 -12 -5 -34 1
-39 10 -1 3 -2 5 -3 5 -1 0 -3 3 -5 6 -2 3 -10 11 -19 17 -19 14 -21 17 -20
34 1 12 21 17 36 9z m598 -76 c5 -5 5 -11 0 -16 -10 -10 -27 5 -16 16 4 4 12
4 16 0z m365 -6 c4 -6 4 -23 0 -29 -7 -10 -28 -10 -35 -1 -5 6 -5 24 0 30 7 9
27 9 35 0z m-756 -33 c6 -4 6 -6 6 -20 0 -14 0 -16 -6 -20 -7 -7 -28 -7 -36
-1 -10 8 -10 34 0 42 8 6 29 6 36 -1z m-472 -12 c3 -3 3 -3 0 -6 -3 -3 -3 -3
-6 0 -3 2 -3 3 -1 6 4 4 4 4 7 0z m378 -20 c12 -12 3 -31 -13 -31 -11 0 -18 7
-18 18 0 11 7 18 18 18 6 0 9 -1 13 -5z m527 -5 c3 -5 3 -6 -1 -11 -9 -12 -44
-17 -51 -9 -13 15 9 29 39 26 8 -1 10 -2 13 -6z m-675 -12 c4 -6 5 -58 1 -67
-4 -8 -10 -14 -10 -10 0 2 -19 30 -30 43 -11 13 -7 22 15 33 8 4 14 8 15 9 0
2 4 -1 9 -8z m333 -2 c5 -5 5 -13 2 -16 -2 -2 -3 -6 -4 -9 0 -3 -1 -6 -1 -7
-1 -1 -13 8 -13 10 0 1 -1 4 -3 5 -7 7 -1 21 10 21 3 0 7 -2 9 -4z m-712 -9
c4 -4 4 -5 0 -20 -3 -9 -5 -18 -5 -20 -1 -2 -2 -9 -3 -14 -4 -24 -10 -31 -29
-32 -22 -1 -35 17 -28 39 2 9 3 10 26 27 6 4 16 14 17 16 1 3 13 9 16 9 2 0 5
-2 6 -5z m720 -42 c0 1 1 0 3 -2 4 -4 20 -5 61 -5 l37 1 6 -6 6 -6 0 -49 0
-49 -6 -6 -6 -6 -52 0 -52 0 -6 6 -6 6 0 49 c0 44 0 49 4 52 1 2 4 8 6 14 2 9
2 10 3 5 1 -3 2 -5 2 -4z m533 -12 c3 -3 6 -5 7 -5 2 0 1 -1 -1 -2 -1 -2 -19
-24 -38 -50 -31 -41 -36 -48 -45 -52 l-10 -6 -7 5 -6 6 0 49 0 49 6 6 6 6 41
-1 c41 0 42 0 47 -5z m-768 -4 c5 -8 1 -16 -8 -16 -9 0 -13 8 -8 16 2 3 5 5 8
5 3 0 6 -2 8 -5z m874 -77 c10 -9 3 -26 -10 -26 -8 0 -15 7 -15 15 0 13 16 20
25 11z m-760 -35 c6 -4 6 -6 6 -20 0 -14 0 -16 -6 -20 -4 -4 -7 -5 -18 -5 -11
0 -14 1 -18 5 -6 4 -6 6 -6 20 0 14 0 16 6 20 4 4 7 5 18 5 11 0 14 -1 18 -5z
m-227 -44 c12 -6 15 -31 6 -44 l-6 -8 -14 1 c-17 0 -24 4 -28 12 -4 9 -3 24 1
31 6 12 26 16 41 8z m872 -15 c5 -6 5 -12 0 -18 -7 -8 -22 -2 -22 9 0 11 15
17 22 9z m-139 -3 c3 -5 3 -5 0 -10 -2 -3 -5 -5 -7 -5 -2 0 -5 2 -7 5 -3 5 -3
5 0 10 2 3 5 5 7 5 2 0 5 -2 7 -5z m-1192 -59 c7 -3 12 -13 12 -25 0 -19 -9
-28 -28 -28 -19 0 -28 9 -28 28 0 24 19 34 44 25z m914 -7 l6 -6 0 -54 0 -54
-6 -6 c-5 -5 -7 -6 -13 -5 -10 1 -26 -8 -32 -18 -6 -10 -15 -20 -18 -20 -3 0
-12 10 -18 20 -5 8 -23 20 -27 18 -1 -1 -5 2 -8 5 l-6 6 0 54 0 54 6 6 6 6 52
0 52 0 6 -6z m468 1 c8 -6 8 -7 4 -11 -3 -3 -7 -9 -10 -13 -3 -5 -20 -28 -38
-51 -37 -49 -37 -49 -66 -51 l-20 -1 -6 6 -6 6 0 54 0 54 6 6 6 6 63 -1 c52
-1 64 -2 67 -4z m56 -84 c11 -10 3 -28 -11 -28 -9 0 -16 6 -16 16 0 14 17 22
27 12z m-1568 -56 c7 -6 7 -19 1 -25 -6 -7 -19 -7 -25 -1 -7 6 -7 19 -1 25 6
7 19 7 25 1z m1283 -27 l-5 -5 -4 4 -5 5 4 4 5 5 4 -4 5 -5 -4 -4z m377 -32
c3 -3 3 -3 0 -6 -3 -3 -3 -3 -6 0 -3 2 -3 3 -1 6 4 4 4 4 7 0z"/>
</g>
</svg>
