<?xml version="1.0" standalone="no"?>
<!DOCTYPE svg PUBLIC "-//W3C//DTD SVG 20010904//EN"
 "http://www.w3.org/TR/2001/REC-SVG-20010904/DTD/svg10.dtd">
<svg version="1.0" xmlns="http://www.w3.org/2000/svg"
 width="1100.000000pt" height="2850.000000pt" viewBox="0 0 1100.000000 2850.000000"
 preserveAspectRatio="xMidYMid meet">
<metadata>
Created by potrace 1.15, written by Peter Selinger 2001-2017
</metadata>
<g transform="translate(0.000000,2850.000000) scale(0.500000,-0.500000)"
fill="#000000" stroke="none">
<path d="M1383 3836 c-11 -3 -21 -11 -25 -21 -4 -10 -5 -16 -7 -100 -1 -22 -2
-44 -2 -50 0 -5 -1 -23 -2 -39 -1 -24 -2 -30 -5 -35 -2 -4 -5 -7 -6 -7 -1 -1
-7 4 -13 9 -17 16 -20 18 -47 18 -30 1 -33 3 -34 24 -1 8 -2 17 -3 20 -1 3 -2
7 -2 9 -1 5 -8 14 -18 22 -8 8 -11 9 -21 10 -18 2 -25 -3 -41 -27 -4 -7 -9
-13 -10 -14 -2 -2 -3 -5 -4 -7 -1 -3 -3 -3 -10 -3 -11 1 -13 2 -19 5 -6 2 -21
3 -26 1 -2 0 -6 -2 -9 -3 -3 -1 -15 -5 -25 -9 -27 -10 -30 -11 -39 -10 -16 3
-23 17 -19 37 5 20 12 26 41 31 21 4 34 9 37 17 3 6 4 32 1 32 -1 0 -6 3 -11
8 -28 23 -78 46 -131 59 -30 7 -32 7 -64 8 -28 1 -32 1 -44 -3 -12 -4 -24 -11
-34 -21 -2 -3 -5 -3 -13 -2 -20 3 -29 2 -35 -4 -6 -5 -7 -17 -2 -21 7 -7 12
-11 16 -12 2 0 5 -2 7 -3 2 -2 9 -4 15 -4 14 -2 21 -7 21 -15 0 -3 -4 -13 -8
-22 -11 -22 -12 -28 -4 -56 3 -13 7 -29 8 -36 1 -7 2 -15 3 -18 0 -3 1 -14 2
-25 1 -13 2 -20 4 -22 2 -2 3 -3 1 -3 -2 0 -5 -2 -8 -4 l-4 -5 -103 -1 -102
-1 -15 -7 c-16 -8 -38 -25 -38 -30 0 -2 -1 -2 -1 0 -1 1 -2 2 -4 2 -5 0 -15
20 -18 35 -1 8 0 14 7 40 3 13 4 20 3 36 -1 43 -10 90 -19 97 -4 4 -8 15 -8
24 0 15 7 22 23 22 13 0 19 -4 24 -15 6 -16 14 -19 33 -16 8 1 9 3 18 25 7 16
-2 35 -19 43 -10 5 -16 6 -72 11 -96 9 -99 9 -113 4 -7 -2 -12 -5 -12 -6 0 -1
-1 -2 -2 -2 -1 0 -6 -3 -11 -6 -15 -11 -35 -8 -46 6 -9 11 -23 20 -31 20 -16
0 -24 -8 -34 -29 -5 -12 -8 -16 -16 -21 -14 -10 -20 -16 -25 -26 -4 -9 -4 -12
-5 -89 0 -100 -1 -98 29 -103 6 -1 12 -1 12 0 1 1 4 2 7 2 19 2 26 -4 26 -21
0 -17 -7 -23 -26 -21 -3 0 -6 1 -7 2 -1 2 -20 -1 -28 -4 -3 -2 -7 -6 -9 -10
-4 -8 -4 -12 -4 -75 l1 -66 -6 -6 c-4 -3 -9 -6 -11 -7 -8 -1 -17 -5 -30 -15
-20 -16 -30 -16 -51 1 -19 13 -29 17 -57 16 -22 -1 -34 -5 -39 -13 -1 -2 -3
-4 -3 -5 -1 -1 -2 -2 -2 -3 0 -1 -1 -3 -1 -4 -3 -9 -2 -15 4 -39 7 -29 10 -38
13 -38 1 0 2 -1 2 -3 0 -1 3 -5 7 -8 14 -10 19 -11 107 -11 88 0 92 0 96 -12
6 -14 2 -25 -12 -40 -8 -8 -17 -25 -18 -36 -1 -14 7 -30 21 -40 12 -9 13 -11
14 -27 1 -14 4 -25 8 -30 16 -18 14 -36 -4 -40 -24 -5 -37 -19 -39 -41 -1 -14
-6 -23 -12 -25 -23 -8 -34 -17 -43 -35 -6 -11 -14 -18 -26 -20 -12 -2 -18 -8
-19 -18 0 -4 0 -8 -1 -10 -3 -13 -6 -23 -14 -39 -12 -25 -23 -33 -30 -22 -3 5
-8 33 -10 58 -1 17 -7 30 -17 35 -8 4 -21 4 -31 0 l-5 -2 0 -34 c0 -33 0 -35
7 -60 8 -28 18 -62 28 -100 10 -33 19 -66 30 -106 13 -47 18 -54 40 -58 10 -2
11 -2 24 5 19 9 36 25 50 46 6 9 12 17 14 19 2 1 3 4 3 6 0 1 3 -1 6 -5 l6 -7
0 -72 c0 -57 1 -72 3 -80 4 -11 11 -20 16 -20 1 0 3 -1 3 -2 0 -1 3 -3 6 -4 3
-1 8 -5 10 -8 4 -6 4 -7 2 -11 -2 -3 -6 -7 -9 -9 -3 -2 -7 -5 -8 -6 -2 -1 -4
-2 -5 -2 -6 0 -17 -19 -15 -27 1 -8 4 -16 5 -18 6 -7 8 -21 8 -40 0 -12 1 -24
2 -29 3 -9 16 -23 30 -28 5 -2 11 -5 12 -6 2 -1 5 -2 7 -2 12 0 18 -25 8 -35
-3 -3 -6 -5 -7 -5 -4 0 -10 -1 -16 -3 -4 -1 -8 0 -15 4 -9 6 -12 12 -12 21 0
9 -22 21 -35 19 -4 -1 -11 -2 -15 -2 -4 -1 -11 -2 -15 -3 -11 -4 -20 -3 -33 2
-7 3 -13 5 -14 6 -7 5 -27 10 -40 9 -33 -1 -51 -27 -41 -62 6 -19 24 -34 46
-38 5 -1 11 -3 14 -4 3 -1 9 -5 15 -7 29 -13 44 -47 56 -124 1 -7 5 -56 6 -81
1 -19 2 -24 7 -33 l5 -11 14 -1 c8 0 13 -1 13 -3 0 -1 1 0 3 2 18 32 24 38 42
40 3 1 7 2 9 2 13 5 22 2 32 -12 5 -7 16 -13 28 -16 7 -1 41 11 66 25 30 16
70 51 77 67 4 9 4 25 0 38 -4 18 0 30 11 36 3 2 7 4 8 5 2 2 5 5 8 6 8 5 17
26 20 45 4 24 5 621 2 632 -2 5 -3 9 -4 9 -1 0 -3 2 -6 4 -3 2 -6 4 -7 4 -1 0
-6 1 -11 2 -6 1 -10 1 -10 0 0 -1 -5 -2 -11 -2 -15 0 -21 5 -21 20 0 15 6 20
21 20 6 0 11 -1 11 -2 0 -1 4 -1 10 0 5 1 10 2 11 2 1 0 4 2 7 4 3 2 5 4 6 4
2 0 6 17 6 29 0 23 5 34 28 53 8 7 33 29 36 32 2 2 9 8 15 13 10 8 12 9 14 7
7 -6 9 -15 9 -42 0 -29 3 -42 13 -55 18 -24 18 -32 0 -56 -13 -17 -13 -12 -13
-187 l0 -158 5 -11 c6 -12 12 -16 32 -23 18 -6 20 -9 18 -31 -2 -25 -9 -45
-16 -47 -6 -1 -26 -12 -29 -15 -8 -9 -10 -18 -10 -44 0 -26 3 -44 11 -60 7
-13 23 -25 42 -29 20 -5 25 -18 13 -33 -7 -10 -23 -27 -25 -27 -1 0 -7 -6 -14
-13 -16 -17 -23 -34 -19 -49 2 -5 3 -10 3 -10 0 -1 1 -2 1 -2 0 -1 1 -2 1 -4
0 -2 4 -8 8 -15 4 -6 7 -13 7 -14 0 -5 -7 -17 -13 -23 -12 -13 -14 -21 -15
-50 0 -31 2 -43 12 -53 11 -12 22 -14 62 -12 52 1 88 10 138 32 45 20 70 41
78 65 4 13 4 19 5 68 l1 49 6 5 5 5 10 -6 c5 -3 11 -7 13 -9 11 -11 20 -34 24
-58 3 -22 4 -28 5 -60 2 -41 6 -50 24 -59 12 -6 29 -5 85 4 4 1 17 4 29 7 37
8 38 8 43 -19 5 -24 6 -25 9 -30 4 -7 13 -10 23 -10 8 0 13 2 33 16 24 15 58
38 67 46 3 2 8 5 10 7 2 2 6 4 7 5 2 2 11 9 22 17 2 2 25 21 49 41 20 16 26
32 22 56 -3 16 -11 38 -20 53 -5 9 -7 13 -7 22 0 14 1 15 25 40 19 20 26 24
34 16 4 -4 4 -5 2 -20 -3 -20 -2 -33 4 -50 7 -20 13 -23 31 -20 12 2 14 4 37
32 18 21 24 22 43 5 6 -5 11 -9 11 -9 4 0 10 -15 11 -28 2 -30 6 -37 17 -43 7
-3 25 -4 43 -3 8 1 12 1 22 -4 18 -9 38 -6 45 7 2 3 3 5 4 5 1 0 4 2 6 4 7 6
21 4 29 -4 5 -5 6 -7 6 -16 0 -15 -8 -23 -23 -23 -7 0 -11 2 -14 4 -3 2 -6 3
-13 2 -6 0 -10 -1 -10 -1 -1 0 -2 -1 -2 -1 -10 -2 -11 -3 -27 -25 -11 -15 -13
-33 -5 -42 6 -6 23 -7 37 -2 18 6 31 5 43 -1 8 -5 12 -5 23 -5 15 1 18 4 30
28 5 9 11 21 15 26 9 15 36 43 48 51 l11 8 0 16 0 15 -11 11 -11 10 0 13 c0
11 1 13 6 18 6 6 7 6 18 6 11 0 12 0 17 -5 4 -3 6 -7 8 -19 4 -18 6 -24 15
-29 20 -14 40 6 43 41 1 5 3 13 6 19 4 9 5 14 5 23 -1 14 -2 18 -13 25 -12 8
-30 22 -31 23 -1 1 -8 5 -16 10 -9 4 -19 12 -24 18 -5 5 -24 24 -43 43 l-33
34 -14 0 c-13 1 -15 0 -21 -5 -15 -13 -29 -16 -39 -9 -8 4 -26 8 -39 6 -7 0
-16 -1 -20 -2 -25 -2 -38 24 -24 49 1 3 5 10 10 16 4 6 7 12 7 13 0 1 3 5 6
10 5 7 10 11 22 17 30 15 38 27 34 48 -2 10 -4 16 -4 11 0 -1 -1 0 -3 2 -3 4
-5 5 -15 5 -10 -1 -13 0 -16 4 -5 6 -5 12 0 18 3 4 15 6 16 2 1 0 4 -3 8 -6
11 -6 30 -6 37 1 3 3 5 6 5 7 0 1 1 5 3 9 4 8 4 22 1 26 -1 1 -1 3 -1 4 1 0
-4 6 -11 13 -14 14 -16 18 -11 25 2 4 5 5 12 5 11 0 29 4 29 6 0 1 1 2 3 2 6
0 13 16 24 52 18 61 25 90 24 98 -1 4 -2 8 -2 10 -1 2 -4 9 -8 16 -11 21 -10
30 8 43 21 15 28 27 32 58 2 12 5 31 7 42 3 11 5 22 5 24 2 9 7 42 8 49 0 4 1
11 2 15 2 14 3 21 5 40 1 10 3 20 3 23 1 5 8 74 10 92 1 6 2 20 3 32 1 12 2
25 2 30 1 15 7 19 28 21 9 0 21 2 27 4 31 10 57 38 55 61 -2 17 -7 24 -56 74
l-18 19 -15 1 c-9 0 -18 -1 -25 -3 -9 -2 -10 -2 -14 1 -3 4 -3 5 -1 14 5 15 4
33 -2 42 -3 4 -6 7 -7 8 -2 1 -61 58 -76 73 -10 9 -10 9 -22 9 -16 0 -22 -3
-34 -20 l-10 -13 0 -15 c1 -14 2 -16 8 -23 7 -9 8 -19 2 -25 -4 -4 -9 -5 -22
-1 -7 2 -24 1 -28 -1 -2 -1 -4 -2 -4 -1 0 4 -9 -5 -15 -15 -4 -6 -13 -20 -20
-30 -7 -11 -13 -21 -14 -22 -1 -4 -16 -12 -21 -12 -2 0 -6 2 -8 4 l-5 5 8 22
c4 12 8 25 9 28 1 3 4 14 8 24 10 31 3 47 -26 62 -11 5 -15 13 -15 26 0 19 9
28 29 28 18 -1 35 5 41 12 4 6 0 27 -8 36 -10 11 -11 13 -13 21 -6 26 10 40
38 33 29 -7 39 -4 58 15 30 29 36 56 16 73 -9 10 -16 11 -127 30 -55 9 -118
20 -140 24 -22 4 -44 7 -48 8 -4 1 -9 1 -12 2 -4 1 -9 2 -21 4 -4 0 -11 0 -15
-1z m197 -87 c12 -6 14 -37 3 -47 -6 -4 -7 -5 -28 -3 -16 0 -24 0 -31 -2 -7
-3 -32 -18 -62 -39 -11 -7 -18 -10 -28 -10 -15 0 -22 7 -22 22 0 14 4 19 22
32 28 19 33 22 38 23 3 0 9 2 13 4 56 21 82 27 95 20z m-1255 -106 c5 -4 6 -6
7 -16 1 -21 -5 -28 -24 -29 -19 -2 -27 7 -26 29 2 16 7 21 25 21 11 0 14 -1
18 -5z m879 -46 c5 -4 6 -15 0 -21 -9 -9 -24 -2 -24 10 0 12 13 18 24 11z
m-215 -61 c8 -8 8 -24 -1 -33 -5 -5 -7 -6 -18 -5 -7 0 -16 1 -19 2 -3 1 -5 1
-5 0 0 0 -1 1 -3 4 -2 4 -1 6 4 18 9 19 14 22 29 21 4 -1 9 -3 13 -7z m-69
-42 c1 -1 3 -3 6 -4 l4 -3 -5 -5 c-11 -12 -17 -13 -22 -5 -3 4 -3 6 -1 10 3 7
14 11 18 7z m527 -7 c5 -5 5 -6 4 -20 -1 -15 -7 -33 -13 -40 -6 -6 -16 -7 -22
-1 -9 9 -8 52 1 61 7 7 23 7 30 0z m-600 -46 c-6 -15 -32 -49 -37 -49 -8 0
-11 -36 -4 -46 8 -11 2 -26 -11 -26 -14 0 -42 11 -47 19 -5 7 -7 24 -3 27 5 4
11 19 11 27 0 16 1 15 -14 14 -18 0 -20 -2 -26 -28 -2 -10 -3 -11 -11 -11 -3
-1 -5 -2 -5 -2 0 -1 -2 -2 -4 -2 -5 0 -9 4 -21 19 -4 5 -10 12 -13 16 -3 3 -6
7 -6 7 0 1 -2 2 -3 3 -4 0 -4 1 0 1 1 0 3 1 3 2 0 9 47 11 64 3 11 -5 23 -6
23 0 -1 5 10 15 21 21 6 3 11 4 20 4 17 -1 27 1 40 8 16 8 16 8 21 3 4 -3 5
-4 2 -10z m208 -19 c3 -3 25 -8 35 -8 5 0 13 1 19 3 8 2 27 3 109 3 l98 0 7
-6 c4 -3 6 -6 6 -7 -1 -1 -5 -28 -12 -82 -1 -10 -3 -26 -4 -31 -10 -58 -9 -75
6 -91 6 -7 23 -17 28 -17 7 0 24 -7 28 -11 6 -7 7 -18 1 -24 -6 -6 -20 -7 -37
-1 -15 6 -31 5 -48 -3 -15 -7 -33 -6 -48 1 -14 7 -19 14 -19 27 0 13 6 27 25
56 8 12 12 25 10 35 -2 8 -6 18 -9 18 0 0 -6 5 -12 10 -17 16 -32 18 -54 7
-22 -11 -35 -6 -38 14 -3 18 -3 20 -8 28 -5 6 -6 6 -17 7 -14 0 -13 0 -25 -14
-5 -6 -17 -19 -28 -29 -26 -25 -36 -35 -39 -41 -4 -8 -5 -21 -2 -29 1 -5 2 -9
1 -11 -1 -3 5 -19 9 -23 2 -2 12 -21 12 -23 0 -1 1 -2 2 -3 0 -1 1 -6 1 -11 0
-14 -6 -20 -20 -20 -14 0 -20 6 -20 20 0 5 1 10 2 11 2 1 -1 21 -4 26 -4 9
-10 11 -37 11 -14 0 -30 1 -34 2 -4 1 -18 2 -30 2 -19 1 -22 1 -27 5 -3 3 -7
5 -8 5 -2 0 -1 1 2 2 2 1 18 12 34 25 29 21 30 22 33 33 3 9 3 22 0 34 -1 6 5
15 11 13 22 -7 37 -15 42 -22 1 -1 5 -1 9 -1 5 0 12 0 16 0 13 0 15 3 23 34 5
21 4 35 -5 51 -6 11 -6 17 -1 23 3 4 14 6 17 2z m-134 -12 c7 -6 7 -19 1 -25
-6 -7 -19 -7 -25 -1 -7 6 -7 19 -1 25 6 7 19 7 25 1z m-538 -31 c3 -3 3 -3 0
-6 -3 -3 -3 -3 -6 0 -3 2 -3 3 -1 6 4 4 4 4 7 0z m1474 -7 c5 -7 7 -12 7 -23
0 -10 -1 -12 -6 -17 -3 -3 -7 -6 -9 -6 -9 -1 -15 0 -21 1 -11 2 -30 -2 -41
-10 -14 -9 -20 -11 -49 -13 -47 -5 -51 -4 -61 5 -10 8 -10 32 0 43 5 6 25 11
50 14 20 2 29 1 47 -3 15 -5 29 -3 46 5 12 7 15 7 25 6 6 -1 11 -2 12 -2z
m-421 -36 c5 -5 5 -11 0 -16 -10 -10 -27 5 -16 16 4 4 12 4 16 0z m-1087 -48
c7 -6 6 -16 0 -22 -8 -7 -50 -20 -63 -20 -15 1 -19 5 -20 21 0 11 0 13 4 18 7
7 14 8 49 7 23 0 26 -1 30 -4z m266 -5 c3 -3 3 -3 0 -6 -3 -3 -3 -3 -6 0 -3 2
-3 3 -1 6 4 4 4 4 7 0z m961 -35 c3 -3 5 -6 5 -6 -1 -1 -1 -13 -1 -28 0 -29 0
-33 12 -55 10 -20 9 -27 -8 -52 -3 -5 -6 -11 -6 -13 0 -2 -1 -4 -1 -5 -3 -2
-4 -13 -8 -59 -3 -33 -7 -79 -11 -110 -2 -18 -5 -37 -5 -43 -3 -20 -4 -24 -9
-26 -2 -1 -5 -1 -5 0 -1 0 -5 15 -8 28 0 2 -2 8 -3 12 -3 14 -16 73 -20 98 -6
33 -10 44 -20 56 -2 2 -5 8 -7 13 -3 9 -3 10 1 26 2 9 6 25 8 35 3 15 7 26 22
55 20 42 30 63 31 67 0 4 15 13 23 13 2 0 7 -3 10 -6z m-1126 -8 c5 -5 5 -15
0 -20 -9 -9 -24 -2 -24 10 0 8 6 14 14 14 3 0 8 -2 10 -4z m109 -13 c3 -2 8
-5 11 -6 l5 -3 -5 0 c-10 0 -21 -17 -22 -32 -1 -4 4 -20 10 -39 20 -58 28 -82
28 -87 0 -6 -10 -15 -19 -17 -5 -1 -20 -5 -35 -10 -14 -5 -29 -9 -32 -9 -6 1
-12 7 -12 12 0 13 16 48 24 53 5 3 4 3 -10 3 l-16 0 0 11 0 11 14 0 c14 -1 15
-1 19 5 4 5 4 8 4 52 l0 48 6 6 c5 5 7 6 15 5 5 0 12 -2 15 -3z m1264 -3 c6
-6 6 -14 2 -25 -4 -8 -5 -31 -2 -46 2 -12 -3 -19 -13 -19 -10 0 -15 7 -13 17
4 21 4 30 3 40 -5 28 -5 27 0 32 6 6 17 7 23 1z m-661 -11 l-5 -5 -4 4 -5 5 4
4 5 5 4 -4 5 -5 -4 -4z m549 -1 c10 -9 3 -26 -10 -26 -8 0 -15 7 -15 15 0 13
16 20 25 11z m-1363 -12 c5 -6 5 -12 0 -18 -7 -8 -22 -2 -22 9 0 11 15 17 22
9z m493 -14 c-1 -2 -1 -2 1 0 4 3 8 3 8 -2 0 -4 -1 -4 -10 -4 -6 0 -10 1 -8 1
2 1 4 3 6 4 3 4 5 4 3 1z m20 -13 c5 -6 5 -8 5 -17 0 -9 0 -12 -4 -16 -11 -13
-10 -45 3 -49 13 -4 33 -23 33 -32 0 -3 -6 -10 -10 -11 -8 -1 -42 13 -49 22
-6 6 -7 18 -2 19 2 1 3 3 2 7 0 3 -1 9 -2 14 -1 9 -5 15 -17 27 -8 7 -8 9 -8
19 0 9 0 11 5 17 5 5 6 5 22 5 16 0 17 0 22 -5z m310 -30 c5 -4 6 -6 6 -17 1
-17 -1 -21 -17 -29 -7 -4 -17 -10 -21 -13 -8 -6 -8 -7 -8 -19 1 -12 1 -12 12
-24 14 -15 15 -16 15 -25 0 -10 -5 -16 -16 -18 -5 -2 -9 -2 -9 -2 0 1 -4 -3
-9 -9 -7 -8 -8 -11 -8 -18 0 -12 3 -15 20 -16 22 -1 24 -4 27 -25 1 -10 2 -16
6 -36 2 -13 2 -14 -2 -18 -4 -4 -4 -4 -10 0 -3 2 -9 9 -14 17 -16 24 -30 35
-46 38 -12 2 -19 0 -26 -10 -6 -8 -13 -22 -13 -26 0 -4 -9 -15 -12 -15 -2 0
-5 2 -6 5 -4 4 -4 5 0 20 2 9 3 18 3 22 -4 21 -13 23 -86 24 -30 0 -56 1 -58
1 -19 6 -35 13 -37 17 -7 8 -1 12 50 32 22 9 30 18 37 42 6 19 9 25 16 32 22
19 43 23 59 11 15 -11 19 -13 31 -11 10 0 12 2 21 10 6 5 15 12 22 16 12 8 21
17 28 32 7 14 12 17 27 17 11 0 14 -1 18 -5z m-692 -23 c4 -3 5 -4 5 -20 0
-24 -5 -28 -25 -21 -12 4 -18 11 -18 23 0 8 1 11 6 16 8 8 23 9 32 2z m838
-40 c4 -6 4 -24 -1 -30 -7 -9 -27 -9 -34 0 -5 6 -5 24 0 30 7 9 27 9 35 0z
m356 -13 c12 -12 3 -31 -13 -31 -11 0 -18 7 -18 18 0 11 7 18 18 18 6 0 9 -1
13 -5z m-994 -20 c14 -4 21 -5 37 -5 23 1 31 -3 38 -16 11 -22 -2 -38 -29 -38
-13 -1 -16 1 -31 16 -6 6 -14 12 -18 14 -26 10 -33 18 -24 30 4 5 6 5 27 -1z
m1077 -36 c3 -3 6 -7 7 -9 1 -2 2 -4 3 -4 1 0 1 -2 1 -5 0 -4 -2 -5 -10 -8
-20 -6 -31 -2 -31 14 0 16 18 23 30 12z m-1312 -17 c5 -5 6 -7 6 -17 0 -10 -1
-12 -6 -17 -5 -5 -7 -6 -17 -6 -10 0 -12 1 -17 6 -5 5 -6 7 -6 17 0 10 1 12 6
17 5 5 7 6 17 6 10 0 12 -1 17 -6z m1369 -15 c3 -5 3 -6 1 -11 -4 -6 -12 -8
-14 -3 -1 2 -3 3 -5 3 -3 0 -8 8 -7 9 9 8 21 9 25 2z m-423 -36 c0 -4 1 -9 1
-11 0 -2 1 -12 2 -23 5 -88 6 -94 17 -105 4 -5 10 -8 16 -9 1 0 4 -1 8 -3 5
-1 9 -2 11 -2 8 1 12 0 17 -6 5 -5 6 -7 6 -18 0 -16 -4 -20 -22 -26 -23 -7
-33 -19 -34 -37 -1 -13 5 -55 8 -64 4 -11 15 -22 27 -28 21 -11 22 -24 3 -43
-16 -16 -18 -27 -9 -73 8 -39 8 -48 2 -73 -3 -13 -3 -15 -1 -34 4 -22 3 -24
-15 -35 -11 -8 -23 -20 -23 -25 0 -1 -2 -6 -4 -10 -2 -4 -12 -25 -23 -46 -10
-21 -23 -47 -28 -56 -18 -32 -28 -49 -30 -52 -1 -2 -3 -5 -3 -7 -1 -5 -10 4
-18 18 -3 6 -10 16 -15 21 -12 12 -13 14 -13 27 0 13 1 14 14 29 18 19 20 26
20 74 0 42 -1 48 -10 62 -3 4 -7 9 -9 10 -3 1 -7 5 -9 9 -4 8 -4 8 0 16 2 4 6
8 9 9 2 1 6 6 9 10 10 15 10 17 10 106 0 84 -1 96 -8 104 -1 2 -5 7 -10 13 -4
5 -9 12 -11 14 -3 3 -5 5 -5 7 0 3 -15 16 -24 21 -5 2 -17 6 -27 8 -16 3 -27
9 -32 16 -6 11 -29 12 -47 3 -16 -8 -31 -9 -40 -2 -12 9 -23 14 -35 17 -12 2
-14 1 -22 -2 -18 -10 -32 -28 -33 -48 -1 -6 -3 -9 -8 -14 -4 -3 -7 -6 -8 -6
-11 -1 -16 -10 -15 -26 0 -6 -1 -11 -1 -11 -1 0 1 -3 5 -7 3 -3 8 -13 11 -20
3 -8 7 -17 8 -21 2 -5 3 -23 3 -65 1 -32 1 -62 2 -66 0 -6 -1 -9 -6 -14 l-6
-6 -34 1 c-26 1 -36 2 -43 5 -10 4 -33 4 -49 -1 -7 -2 -10 -2 -13 0 -1 1 -4 3
-6 3 -2 1 -5 4 -7 7 -8 13 -20 27 -28 30 -7 3 -11 4 -34 3 -26 -1 -27 -1 -32
4 -6 4 -6 6 -6 20 0 14 0 16 6 20 9 8 25 7 42 -2 l13 -7 26 1 25 1 14 -7 c14
-8 24 -9 36 -6 4 2 12 14 14 23 1 4 2 8 3 9 1 1 4 8 6 16 3 8 6 15 7 15 1 1 2
14 3 29 1 16 2 28 3 29 3 3 3 18 1 26 -1 3 -7 11 -13 16 -13 12 -14 19 -10 50
2 13 3 31 3 53 l-1 32 6 6 6 6 31 0 31 0 6 -5 c3 -4 6 -6 7 -6 1 0 2 -1 2 -3
0 -11 30 -27 42 -23 4 1 8 3 10 3 8 2 18 7 24 13 11 10 16 13 26 13 12 0 16
-3 36 -23 18 -17 22 -19 44 -23 3 -1 5 -2 6 -2 1 -1 4 0 7 1 11 5 16 4 25 -1
5 -3 10 -8 12 -10 8 -11 11 -12 27 -12 9 1 16 2 18 4 5 4 11 18 15 34 6 21 9
26 25 36 26 18 33 26 33 43 0 12 -2 16 -11 26 -12 14 -12 22 2 38 4 5 10 12
13 16 3 3 7 8 9 11 3 4 5 7 5 8 0 1 3 -1 6 -5 4 -5 6 -9 6 -15z m287 5 c4 -6
4 -24 -1 -30 -7 -9 -27 -9 -34 0 -5 6 -5 24 0 30 7 9 27 9 35 0z m-832 -51 c3
-3 3 -3 0 -6 -3 -3 -3 -3 -6 0 -3 2 -3 3 -1 6 4 4 4 4 7 0z m375 -61 c7 -7 4
-22 -4 -22 -2 0 -4 -1 -4 -2 0 -1 -1 -2 -3 -2 -2 0 -3 1 -2 2 1 1 -1 2 -3 2
-8 0 -11 15 -5 22 5 5 16 5 21 0z m-818 -18 c5 -5 5 -15 0 -20 -9 -9 -24 -2
-24 10 0 8 6 14 14 14 3 0 8 -2 10 -4z m-222 -12 c5 -5 6 -7 6 -16 0 -7 -1
-13 -3 -15 -2 -2 -3 -6 -3 -7 0 -2 -1 -4 -2 -4 -1 0 -2 -1 -1 -2 1 -2 1 -2 -7
-3 -4 0 -6 0 -6 1 0 1 -4 3 -8 5 -12 6 -16 12 -16 24 0 10 1 12 6 17 5 5 7 6
17 6 10 0 12 -1 17 -6z m1544 -20 c5 -5 5 -15 0 -20 -9 -9 -24 -2 -24 10 0 8
6 14 14 14 3 0 8 -2 10 -4z m-1536 -50 c0 -1 1 -2 2 -1 1 1 2 0 2 -1 0 -2 34
-19 48 -23 14 -5 20 -10 20 -19 0 -9 -7 -16 -15 -16 -3 0 -12 2 -19 5 -7 3
-21 8 -30 10 -20 6 -25 10 -23 22 1 11 5 23 9 24 5 1 6 1 6 -1z m1458 -35 c5
-6 5 -18 1 -28 -3 -7 -7 -10 -15 -11 -19 -2 -26 4 -26 20 0 17 7 24 25 24 9 0
11 -1 15 -5z m-1281 -42 c6 -7 7 -8 4 -14 -1 -3 -3 -6 -4 -5 -1 1 -2 0 -3 -2
-2 -4 -10 2 -15 11 -4 6 -4 7 0 12 4 7 10 6 18 -2z m29 -39 c7 -9 7 -10 2 -15
-5 -6 -7 -6 -14 0 -4 4 -6 7 -6 12 1 4 1 6 2 6 1 -1 3 0 4 2 4 4 5 4 12 -5z
m439 3 c3 -5 3 -5 0 -10 -2 -3 -5 -5 -7 -5 -2 0 -5 2 -7 5 -3 5 -3 5 0 10 2 3
5 5 7 5 2 0 5 -2 7 -5z m284 -5 c5 -5 6 -10 5 -23 0 -2 -8 -12 -17 -22 -12
-12 -17 -18 -16 -20 1 -1 2 -5 2 -8 0 -3 0 -7 1 -8 3 -3 -4 -13 -8 -13 -2 0
-5 2 -6 5 -4 4 -4 5 -1 10 2 3 3 7 3 9 0 2 1 5 3 6 2 1 3 3 2 4 -1 1 0 2 1 3
3 2 -1 22 -6 27 -5 7 -3 23 3 30 9 9 24 9 34 0z m134 -10 c7 -7 6 -17 -3 -36
-11 -22 -21 -28 -28 -16 -4 8 2 44 8 51 6 6 17 7 23 1z m401 -4 c5 -5 6 -7 6
-16 0 -20 -5 -24 -39 -26 -19 -1 -26 -2 -31 -6 -4 -2 -12 -5 -18 -7 -6 -2 -11
-3 -11 -4 -2 -1 -10 10 -10 13 5 15 14 24 30 33 9 4 15 7 38 16 4 1 13 3 19 3
9 0 11 -1 16 -6z m-475 -138 c10 -9 3 -26 -10 -26 -8 0 -15 7 -15 15 0 13 16
20 25 11z m-721 -26 c11 -9 24 -28 27 -42 2 -8 -2 -19 -8 -24 -7 -5 -24 -6
-31 -1 -19 14 -33 52 -23 65 7 8 26 9 35 2z m1048 -29 l-5 -5 -4 4 -5 5 4 4 5
5 4 -4 5 -5 -4 -4z m-557 -21 c6 -4 9 -12 10 -26 2 -36 22 -51 51 -38 6 3 13
7 15 9 13 12 31 15 40 6 11 -11 4 -35 -10 -35 -7 0 -7 0 -15 -4 -7 -4 -14 -10
-11 -10 1 0 1 -1 -1 -2 -3 -2 -3 -12 -2 -37 0 -6 -2 -12 -6 -21 -3 -7 -6 -13
-6 -15 0 -4 -17 -12 -24 -12 -4 0 -18 1 -31 2 -22 1 -24 2 -29 7 l-6 5 0 46
c0 48 0 52 -9 71 -11 23 -12 27 -9 38 2 10 7 16 16 18 8 2 21 1 27 -2z m-170
-24 c10 -9 3 -26 -10 -26 -8 0 -15 7 -15 15 0 13 16 20 25 11z m385 -22 c1 0
5 -3 8 -6 5 -5 6 -7 6 -17 0 -14 -4 -22 -14 -26 -18 -7 -30 -3 -34 13 -4 15 1
30 12 35 5 2 8 2 22 1z m-867 -20 c6 -6 7 -17 1 -23 -5 -6 -17 -7 -23 -2 -6 4
-6 22 0 26 6 4 17 4 22 -1z m1273 -3 c21 -9 20 -45 -2 -54 -10 -5 -28 -1 -34
6 -9 10 -9 32 0 42 7 8 24 11 36 6z m-812 -29 c5 -5 5 -11 0 -16 -10 -10 -27
5 -16 16 4 4 12 4 16 0z m-324 -14 c24 -12 30 -18 29 -27 -4 -21 -16 -35 -32
-35 -10 0 -39 19 -48 32 -4 7 -4 25 0 32 9 12 24 12 51 -2z m1252 -72 c3 -2 8
-10 11 -19 4 -9 9 -20 12 -25 11 -19 14 -27 13 -37 0 -16 -8 -24 -23 -22 -12
2 -15 4 -20 17 -9 20 -15 31 -20 37 -13 13 -17 34 -10 45 7 9 27 12 37 4z
m-872 1 c21 -9 20 -45 -2 -54 -10 -5 -28 -1 -34 6 -9 10 -9 32 0 42 7 8 24 11
36 6z m295 -5 c11 -10 3 -28 -11 -28 -9 0 -16 6 -16 16 0 14 17 22 27 12z
m-879 -32 c3 -6 -9 -12 -13 -7 -3 3 -3 4 0 8 3 5 10 5 13 -1z m1031 -95 c4 -2
9 -5 12 -7 17 -16 19 -20 21 -37 0 -12 0 -13 -5 -18 -7 -7 -16 -7 -39 0 -12 4
-18 5 -25 4 -35 -4 -40 -4 -46 2 -6 4 -6 5 -6 20 0 15 0 16 6 21 11 9 35 20
48 22 5 1 23 -3 34 -7z m-925 -19 c1 0 5 -3 8 -6 5 -5 6 -7 6 -18 0 -18 -4
-21 -31 -27 -25 -6 -28 -7 -44 -24 -7 -6 -14 -13 -15 -14 -7 -5 -20 0 -20 9 0
7 11 27 22 42 13 16 51 39 64 39 4 -1 8 -1 10 -1z"/>
</g>
</svg>
