<?xml version="1.0" standalone="no"?>
<!DOCTYPE svg PUBLIC "-//W3C//DTD SVG 20010904//EN"
 "http://www.w3.org/TR/2001/REC-SVG-20010904/DTD/svg10.dtd">
<svg version="1.0" xmlns="http://www.w3.org/2000/svg"
 width="1100.000000pt" height="2850.000000pt" viewBox="0 0 1100.000000 2850.000000"
 preserveAspectRatio="xMidYMid meet">
<metadata>
Created by potrace 1.15, written by Peter Selinger 2001-2017
</metadata>
<g transform="translate(0.000000,2850.000000) scale(0.500000,-0.500000)"
fill="#000000" stroke="none">
<path d="M1209 3816 c-12 -5 -16 -9 -21 -21 -4 -9 -4 -12 -3 -42 2 -48 9 -62
30 -62 6 0 11 1 11 2 0 0 1 1 2 1 1 -1 6 3 10 8 15 16 18 17 39 14 18 -3 20
-2 28 1 10 4 13 9 22 33 3 8 7 17 10 18 3 3 3 6 3 14 -1 5 0 10 1 10 3 0 -7
16 -12 18 -5 2 -94 10 -108 10 -2 0 -8 -2 -12 -4z"/>
<path d="M1386 3802 c-3 -2 -6 -3 -6 -3 -1 1 -2 1 -2 0 1 -1 0 -4 -1 -6 -4 -6
-3 -22 0 -28 5 -11 4 -24 -5 -41 -4 -8 -10 -24 -13 -34 -7 -25 -12 -30 -30
-31 -9 -1 -15 1 -27 10 -5 3 -12 8 -16 10 -8 4 -28 6 -28 3 0 -1 -1 -2 -3 -2
-3 0 -8 -4 -22 -16 -5 -5 -14 -12 -19 -16 -16 -11 -19 -15 -18 -30 l0 -13 9
-4 c4 -2 11 -5 14 -6 3 -2 6 -3 6 -2 2 1 9 -7 9 -10 0 -4 -7 -18 -13 -26 -3
-3 -5 -9 -6 -12 -1 -3 -3 -9 -5 -12 -2 -4 -3 -7 -3 -7 2 0 -4 -10 -11 -20 -6
-9 -14 -32 -12 -32 1 0 -1 -3 -5 -6 l-6 -7 -57 0 c-56 0 -68 -1 -68 -3 0 -1
-2 -2 -5 -3 -10 -2 -23 -25 -23 -40 0 -8 -7 -17 -13 -17 -8 0 -27 15 -27 21 0
1 -3 5 -6 8 -3 3 -6 8 -7 10 -2 7 -19 21 -26 23 -3 0 -14 1 -23 1 -16 0 -17 0
-23 6 -6 6 -6 7 -5 18 1 8 3 16 7 22 3 5 5 9 5 8 0 -4 11 9 15 17 3 6 9 12 16
18 7 4 13 10 14 13 4 7 4 28 0 32 -6 4 -22 8 -32 6 -30 -3 -30 -3 -37 0 -4 2
-8 5 -10 6 -2 1 -9 6 -17 10 -21 12 -25 16 -21 29 3 9 3 31 -1 38 -1 3 -6 8
-10 11 -4 3 -11 9 -15 13 -4 3 -12 9 -18 12 -12 7 -28 20 -37 29 -8 8 -14 11
-25 11 -13 0 -20 -4 -38 -24 -9 -10 -19 -21 -22 -24 -3 -3 -11 -12 -19 -21
-25 -28 -27 -29 -37 -34 l-11 -5 -122 1 -122 0 -16 6 c-9 3 -19 7 -22 8 -17 8
-29 13 -39 17 -6 2 -16 7 -22 9 -6 3 -19 7 -29 9 -22 4 -30 7 -42 17 -6 4 -19
12 -31 18 -19 9 -21 9 -31 8 -12 -1 -19 -6 -25 -17 -4 -9 -4 -10 -4 -62 l1
-54 6 -8 c10 -14 31 -24 55 -25 14 -1 21 -1 27 2 20 6 35 1 48 -19 2 -4 8 -10
12 -14 11 -12 15 -20 15 -31 0 -13 -6 -19 -19 -19 -10 0 -14 2 -31 13 -12 8
-22 9 -42 5 -14 -3 -19 -3 -24 1 -2 1 -7 2 -10 2 -14 -2 -17 -5 -12 -13 2 -4
4 -6 3 -6 -1 0 -1 -1 0 -2 1 -2 2 -4 2 -6 1 -3 2 -6 8 -19 4 -8 4 -22 1 -26
-2 -2 -8 -7 -14 -12 -15 -10 -15 -11 -21 -23 -4 -8 -5 -13 -5 -25 1 -27 11
-43 37 -55 18 -8 20 -11 20 -29 0 -18 -3 -21 -18 -26 -15 -4 -29 -14 -34 -24
-4 -8 -4 -11 -5 -99 0 -99 0 -103 10 -108 6 -3 30 -8 30 -6 0 2 9 5 18 5 14 1
25 -7 28 -20 3 -11 1 -17 -6 -31 -5 -10 -6 -13 -5 -24 1 -14 4 -24 8 -24 5 0
9 -13 11 -33 1 -11 2 -22 3 -25 5 -23 5 -32 2 -35 -7 -7 -20 -4 -20 5 -2 11
-9 43 -11 46 -8 9 -13 30 -11 41 1 3 2 6 2 7 -1 1 -1 5 -2 10 -1 10 -4 15 -12
23 -3 3 -5 6 -5 7 0 2 -23 -2 -30 -6 -8 -4 -10 -14 -10 -43 0 -33 3 -41 18
-62 9 -11 12 -22 11 -34 -1 -10 4 -29 8 -37 2 -3 10 -10 17 -16 15 -12 17 -14
20 -26 2 -6 2 -10 0 -16 -4 -15 -11 -20 -28 -21 -15 -1 -28 -5 -34 -10 -2 -3
-5 -5 -6 -5 -6 0 -9 -85 -4 -106 3 -9 17 -26 30 -34 14 -9 14 -41 0 -50 -13
-8 -27 -25 -30 -34 -1 -7 -2 -45 -2 -130 0 -140 -1 -132 19 -153 7 -7 11 -9
27 -14 10 -4 23 -7 29 -8 39 -6 44 -25 12 -45 -14 -9 -14 -9 -15 -19 0 -15 3
-23 13 -27 4 -2 8 -3 9 -3 1 0 7 1 14 2 7 1 14 2 14 2 1 1 5 1 9 2 34 5 106
40 116 56 4 6 9 27 9 38 0 7 2 13 10 29 7 12 10 22 11 27 0 6 2 9 6 14 l6 6
33 0 c36 0 59 0 132 0 l49 0 6 -6 6 -6 -1 -38 c0 -31 0 -39 3 -46 4 -9 14 -21
18 -21 2 0 3 -1 3 -2 0 0 3 -1 6 -2 3 0 7 0 8 0 3 -1 12 3 12 4 0 1 1 2 3 2 1
0 9 6 17 14 8 8 20 17 28 21 8 4 14 9 14 9 0 1 1 2 3 2 3 0 4 2 3 7 0 0 1 1 2
1 1 0 2 2 3 4 3 8 22 11 38 6 5 -2 10 -6 16 -13 15 -19 34 -25 50 -16 9 6 18
16 20 22 1 2 3 8 5 13 4 8 4 10 2 23 -1 8 -4 19 -7 25 -8 23 -4 36 16 51 15
11 21 28 21 61 0 35 -5 46 -28 62 -6 4 -14 10 -18 14 -9 8 -23 12 -44 14 -24
2 -27 4 -27 25 l0 15 17 17 c29 30 38 31 39 3 0 -17 5 -29 12 -31 2 0 8 -1 13
-1 8 0 10 1 19 10 5 5 13 11 17 13 7 3 8 3 11 -2 3 -2 4 -5 4 -6 -4 -29 -2
-43 6 -49 16 -11 13 -11 85 -12 58 0 68 0 75 3 11 4 21 12 21 16 0 2 1 3 2 3
1 0 3 3 5 8 4 9 14 15 25 16 14 1 18 7 17 21 -2 12 -5 19 -16 36 -12 18 -24
20 -48 7 -20 -11 -28 -11 -47 -2 -12 6 -15 6 -24 5 -7 -1 -13 -3 -16 -5 -3 -3
-8 -6 -12 -8 -7 -4 -7 -4 -14 -1 -4 2 -9 6 -11 8 -13 12 -22 15 -37 16 -13 0
-15 1 -21 6 -4 4 -6 8 -6 12 0 7 -5 16 -11 19 -3 1 -9 3 -15 3 -5 1 -10 2 -11
2 0 0 -2 0 -3 -2 -5 -4 -21 -4 -28 1 -5 4 -19 18 -19 21 0 2 -28 1 -31 -1 -4
-4 -13 -13 -18 -20 -9 -10 -35 -9 -43 2 -7 10 -7 30 2 38 6 7 19 9 33 5 20 -5
38 -1 52 12 13 13 44 21 51 14 2 -1 4 -2 5 -2 0 1 3 2 6 2 21 3 26 5 29 18 6
24 1 44 -15 61 -5 5 -10 12 -12 16 -4 6 -4 6 0 13 2 3 7 10 12 15 29 30 21 66
-17 78 -17 5 -18 21 -2 25 4 1 63 2 131 2 l124 1 19 9 c10 5 21 10 22 11 6 3
16 2 22 -1 9 -6 12 -20 12 -60 0 -25 1 -35 3 -40 3 -7 9 -15 9 -12 0 1 1 1 3
-1 3 -3 24 -6 27 -4 2 1 8 2 14 2 9 0 11 -1 16 -6 5 -5 6 -7 6 -17 0 -16 -7
-23 -22 -23 -16 0 -42 -7 -42 -12 0 -1 -1 -2 -2 -1 -1 1 -2 0 -2 -2 0 -1 -1
-4 -3 -5 -5 -4 -8 -25 -5 -37 1 -7 2 -16 3 -20 3 -18 9 -31 23 -48 5 -6 10
-13 10 -15 0 -5 -7 -14 -17 -20 -12 -8 -21 -25 -27 -50 -2 -8 -6 -18 -9 -22
-13 -21 -11 -43 5 -43 8 -1 23 -8 27 -13 7 -10 1 -37 -11 -53 -1 -1 -2 -6 -2
-12 0 -5 -1 -10 -1 -11 -1 0 1 -3 4 -5 6 -5 16 -8 25 -7 3 1 6 0 7 -1 0 -1 1
-1 1 1 0 6 7 12 17 15 6 2 17 3 36 3 24 0 27 0 30 -4 2 -2 5 -3 6 -3 1 1 1 1
1 0 -1 -1 -1 -3 0 -6 3 -8 -4 -16 -22 -24 -6 -3 -18 -10 -26 -16 -8 -6 -16
-11 -17 -11 -15 -1 -25 1 -25 4 0 1 -1 2 -2 1 0 0 -5 -1 -10 -2 -19 -3 -28
-12 -28 -28 0 -24 14 -35 44 -36 24 -1 31 -7 31 -27 0 -20 -7 -26 -31 -27 -24
-1 -37 -8 -42 -22 -2 -6 -2 -24 -2 -70 l1 -62 -6 -6 c-4 -4 -7 -6 -7 -5 0 0
-73 1 -162 0 -173 -1 -170 -1 -176 -10 -1 -3 -2 -10 -2 -16 0 -6 -1 -11 -3
-12 -1 -1 -1 -2 1 -2 5 0 7 -3 8 -16 1 -6 2 -13 3 -16 1 -3 1 -6 1 -7 1 -2 3
-8 6 -13 6 -13 21 -24 37 -29 12 -4 128 -4 142 -1 12 3 14 6 13 22 0 13 0 14
4 15 5 0 5 0 0 1 -8 0 -12 6 -12 17 0 13 6 19 19 19 13 0 19 -6 19 -19 0 -11
-4 -17 -12 -17 -5 -1 -5 -1 0 -1 4 -1 4 -2 4 -15 -1 -16 1 -19 15 -22 9 -2
101 -2 270 0 11 0 33 0 48 -1 28 -1 29 -1 37 3 6 4 9 7 13 16 11 23 12 25 16
25 4 -1 5 -1 17 -21 7 -10 11 -13 20 -18 l11 -5 209 0 c115 0 211 1 213 1 6 2
16 6 19 8 2 1 13 7 25 13 24 12 28 15 35 24 10 16 0 38 -20 42 -3 1 -10 2 -17
3 -22 5 -30 12 -39 35 -11 29 -13 32 -19 39 -12 14 -33 18 -47 10 -23 -13 -37
-16 -45 -8 -5 4 -9 20 -13 51 -3 23 -10 29 -31 28 -9 -1 -13 -2 -22 -8 -5 -4
-10 -8 -11 -9 -1 -1 -2 -2 -3 -2 -7 -2 -10 -8 -10 -21 1 -4 1 -15 1 -23 1 -18
-4 -36 -12 -42 -6 -5 -25 -5 -43 2 -6 2 -16 4 -21 4 -10 0 -49 -9 -53 -12 -5
-4 -37 -12 -47 -12 -12 0 -52 9 -61 13 -3 2 -6 3 -6 2 -3 -2 -9 10 -10 18 -2
13 2 33 9 38 5 4 5 6 5 24 0 17 0 19 -4 23 -9 8 -6 12 11 21 26 13 30 22 21
49 -13 41 -19 46 -47 47 -18 0 -24 3 -24 11 0 6 5 9 19 14 22 7 30 12 40 23
17 19 21 31 21 62 l-1 24 6 6 6 6 162 -1 c177 0 170 -1 190 12 16 9 17 27 4
49 -8 11 -8 12 -6 27 3 32 1 43 -13 54 -5 4 -10 8 -11 9 -1 1 -6 5 -11 9 -4 3
-10 8 -12 10 -3 3 -9 8 -14 12 -5 4 -12 10 -16 13 -4 3 -9 7 -11 9 -2 2 -9 7
-15 12 -6 5 -14 11 -18 14 -4 3 -8 6 -9 7 -2 2 -18 14 -32 26 -1 0 -4 3 -7 5
-11 10 -29 15 -37 11 -2 -1 -5 -2 -6 -1 -1 0 -1 -1 0 -2 1 -1 0 -2 -1 -2 -1
-1 -3 -8 -3 -18 -2 -22 -5 -26 -21 -26 -25 1 -42 -5 -50 -16 -4 -6 -18 -25
-31 -40 -1 -2 -7 -10 -14 -19 -7 -9 -13 -16 -14 -17 0 0 -1 -1 0 -2 0 0 -1 -2
-2 -4 -2 -1 -3 -1 -3 0 0 1 -1 2 -3 2 -6 0 -7 15 -7 101 0 47 -1 95 -1 107 0
19 1 23 7 41 7 24 11 29 22 25 9 -3 36 -1 39 3 0 2 2 2 3 2 2 -1 2 0 1 2 0 1
0 3 1 4 1 1 2 3 1 5 0 2 -1 6 -2 9 -1 8 -9 19 -14 19 -4 0 -4 0 0 2 2 1 8 3
12 5 7 4 14 4 99 5 99 1 95 1 106 12 5 6 11 18 13 27 5 20 31 20 36 0 6 -24
21 -39 41 -39 43 0 88 32 88 63 0 10 -9 28 -18 35 -4 3 -8 6 -9 7 -1 1 -6 6
-12 10 -5 4 -10 8 -11 9 -1 1 -5 5 -11 9 -5 4 -10 9 -11 9 -5 7 -28 11 -47 8
-11 -1 -17 0 -22 2 -7 2 -26 7 -54 13 -3 1 -10 6 -15 11 -6 6 -12 10 -13 10
-1 0 -4 1 -6 1 -8 2 -25 3 -26 1 -2 -3 -39 -2 -42 1 -2 1 -3 1 -3 0 0 -1 -1 0
-2 2 -1 4 -2 4 -4 -1 -1 -3 -1 -5 0 -6 1 -1 1 -2 0 -4 -1 -2 -1 -4 0 -6 2 -3
3 -12 4 -22 0 -2 3 -6 6 -9 10 -11 12 -15 12 -27 0 -8 -1 -11 -5 -15 -6 -6
-22 -7 -30 -2 -8 5 -22 7 -31 6 -10 -2 -20 -6 -20 -9 0 0 -2 -3 -5 -6 -5 -6
-23 -37 -23 -40 0 -1 -2 -4 -5 -6 -4 -3 -9 -4 -20 -4 -8 0 -12 -1 -8 -1 5 -1
5 -2 5 -15 0 -15 -1 -16 -14 -16 -4 0 -10 -3 -26 -15 -9 -7 -18 -8 -29 -4 -8
3 -12 6 -27 21 l-8 9 4 10 c2 6 3 12 3 13 -1 4 4 11 9 12 2 0 9 -2 15 -4 7 -2
18 -4 25 -5 14 -1 13 -2 17 9 0 1 3 5 5 10 3 5 7 11 8 15 1 3 3 5 4 5 2 0 -1
26 -5 38 -1 5 -4 10 -6 11 -2 1 -4 3 -3 5 0 2 -2 5 -4 8 -3 4 -5 5 -18 4 -13
0 -14 0 -14 4 0 4 -1 3 -2 -2 -2 -11 -10 -15 -31 -14 -2 0 -6 3 -9 6 -5 5 -6
7 -6 18 0 11 1 13 6 18 3 3 7 6 9 6 21 1 29 -3 31 -14 1 -5 2 -6 2 -2 0 4 1 4
14 4 25 -1 23 -10 23 121 l0 112 6 6 6 6 102 0 c56 0 105 0 109 1 13 3 20 11
23 24 0 2 2 5 3 8 1 3 1 6 1 7 -1 0 0 5 1 11 3 14 14 22 29 21 8 0 23 -6 23
-9 0 0 3 -4 6 -8 29 -34 35 -38 52 -38 12 0 17 2 26 12 23 24 20 50 -8 74 -7
6 -21 17 -29 25 -28 24 -27 24 -38 25 -13 1 -19 0 -32 -9 -10 -7 -12 -8 -23
-8 -24 0 -29 9 -25 48 1 11 0 20 -1 25 -5 18 -34 37 -56 35 -20 -1 -20 -2 -35
-16 -4 -4 -7 -9 -7 -11 -1 -16 1 -24 7 -33 7 -12 10 -23 7 -33 -4 -15 -11 -20
-29 -21 -14 -1 -30 -7 -35 -12 -6 -6 -7 -23 -4 -38 6 -23 -1 -36 -20 -36 -15
0 -23 8 -23 23 0 5 1 11 3 12 1 2 4 10 7 19 8 24 15 38 22 42 6 4 21 23 21 28
0 2 1 3 2 3 1 0 2 1 2 3 0 2 3 7 7 11 6 6 7 10 8 18 1 6 2 13 2 15 0 2 0 3 0
2 -1 0 -3 0 -4 1 -4 3 -15 4 -15 1 0 -1 -1 -1 -1 0 -2 5 -15 -3 -21 -13 -3 -7
-12 -16 -14 -16 -1 0 -2 -1 -2 -2 0 -1 -3 -5 -7 -9 -4 -4 -9 -12 -12 -18 -5
-11 -20 -28 -23 -26 -1 1 -3 0 -3 -2 -1 -2 -2 -3 -4 -3 -3 0 -18 -14 -22 -20
-4 -8 -5 -27 -2 -33 4 -6 5 -22 1 -31 -1 -3 -5 -8 -9 -9 -7 -4 -24 -5 -30 -1
-10 5 -30 1 -37 -7 -14 -15 -16 -17 -20 -17 -8 0 -10 7 -9 40 0 28 0 32 4 36
4 5 13 5 27 1 15 -4 30 0 36 8 2 4 4 9 4 10 0 13 8 30 14 31 5 0 21 6 27 11
12 7 13 14 13 65 0 51 -1 59 -10 69 -6 5 -27 15 -34 15 -12 0 -17 24 -7 34 4
4 6 4 17 4 35 -2 40 -1 54 6 23 11 38 29 47 54 4 13 5 15 2 24 -5 15 -7 17
-23 18 l-14 1 -8 -8 c-4 -4 -9 -10 -10 -13 -3 -6 -18 -16 -23 -16 -5 0 -11 7
-11 13 1 10 -10 35 -15 35 -2 0 -3 1 -3 2 0 3 -18 6 -56 9 -46 3 -46 3 -52 -1z
m-895 -234 c11 -10 3 -28 -11 -28 -9 0 -16 6 -16 16 0 14 17 22 27 12z m-138
-25 c3 -2 4 -4 4 -8 -1 -2 -2 -8 -3 -12 -1 -6 -2 -7 -2 -3 0 4 -2 6 -5 7 -8 3
-13 12 -9 16 3 4 10 4 15 0z m431 -32 c7 -6 7 -7 1 -14 -7 -7 -22 -7 -31 0 -7
6 -7 7 -1 14 7 7 22 7 31 0z m-149 -21 c6 -1 11 -1 11 0 1 1 5 3 10 4 10 2 23
0 28 -6 10 -9 9 -33 -1 -41 -4 -4 -20 -8 -23 -6 -4 2 -22 1 -28 -2 -5 -3 -13
-13 -12 -16 1 -4 -5 -27 -6 -27 -1 0 -2 -1 -2 -3 0 -8 -15 -5 -20 5 -1 3 -6
11 -10 18 -9 15 -14 25 -15 32 -2 7 5 14 18 20 5 2 9 6 10 8 0 3 1 3 1 0 0 -2
1 -4 1 -4 4 0 19 13 21 18 2 3 3 5 4 4 1 -1 6 -3 13 -4z m296 -78 c6 -6 7 -23
1 -29 -7 -7 -23 -7 -30 0 -6 6 -6 21 0 28 7 7 21 8 29 1z m-115 -16 c5 -6 5
-12 0 -18 -7 -8 -22 -2 -22 9 0 11 15 17 22 9z m873 -1 c5 -8 1 -16 -8 -16 -9
0 -13 8 -8 16 2 3 5 5 8 5 3 0 6 -2 8 -5z m-989 -5 c5 -5 5 -15 0 -20 -9 -9
-24 -2 -24 10 0 8 6 14 14 14 3 0 8 -2 10 -4z m538 -11 c4 -5 8 -21 9 -43 2
-17 1 -18 -4 -23 -4 -4 -7 -5 -14 -5 -9 1 -28 -4 -33 -9 -2 -1 -5 -5 -8 -9 -4
-7 -4 -9 -4 -90 0 -85 0 -91 8 -102 6 -7 21 -15 35 -17 17 -3 24 -11 24 -28 0
-19 -10 -28 -29 -28 -9 1 -15 3 -38 14 -8 4 -13 4 -63 5 -45 0 -55 0 -63 -3
-10 -3 -20 -9 -25 -14 -1 -1 -6 -5 -10 -8 -14 -9 -34 -6 -46 8 -11 12 -29 17
-55 17 l-21 -1 -6 6 c-3 4 -6 8 -7 10 0 2 -3 10 -6 19 -9 21 -9 28 -3 45 3 8
6 19 6 24 0 10 0 12 -7 20 -7 7 -10 9 -14 9 -3 -1 -7 0 -9 1 -5 1 -16 -2 -14
-4 0 -1 -1 -3 -3 -4 -2 -2 -4 -5 -4 -6 0 -2 -1 -3 -2 -3 0 0 -3 -3 -5 -7 -6
-12 -12 -16 -23 -16 -17 0 -23 9 -22 30 0 5 9 15 13 15 12 1 33 5 35 6 3 2 5
21 3 31 -1 4 -4 10 -8 15 -6 7 -6 7 -19 7 -13 1 -24 -3 -24 -7 0 -1 -4 -6 -9
-11 -8 -8 -8 -8 -19 -7 -19 2 -21 11 -13 46 2 7 3 20 3 29 0 20 3 25 15 27 16
3 36 -7 54 -24 7 -7 18 -15 25 -19 13 -6 15 -7 28 -2 2 1 4 2 5 2 0 0 4 2 8 5
8 7 11 18 11 35 -1 11 -1 12 5 17 3 2 5 7 5 10 l0 5 2 -5 c1 -3 2 -4 2 -2 0 1
1 2 1 1 1 0 3 0 6 1 2 2 3 2 2 0 -1 -1 1 -2 4 -2 4 0 5 1 4 3 -1 1 1 0 4 -2 3
-2 5 -2 4 -1 -1 2 -1 3 1 1 2 -2 17 -3 47 -3 l44 0 22 8 c27 10 33 10 60 0
l21 -8 31 0 c25 0 33 1 38 3 8 4 17 14 20 23 8 19 18 24 25 15z m-873 -21 c2
-3 4 -6 5 -6 1 0 2 -2 3 -4 1 -6 32 -17 41 -15 5 2 11 -4 10 -11 0 -17 -12
-40 -20 -40 -2 0 -8 -3 -15 -6 -12 -6 -26 -19 -33 -32 -2 -4 -4 -5 -5 -3 -1 2
-12 6 -23 8 -13 3 -18 11 -18 32 0 14 1 19 10 24 5 3 6 3 9 0 2 -2 3 -2 3 -1
0 1 2 2 5 3 2 0 6 3 9 5 5 4 5 6 5 25 1 21 2 27 8 27 2 0 4 -3 6 -6z m187 -4
c6 -6 4 -18 -9 -39 -13 -24 -31 -34 -56 -33 -9 0 -15 8 -15 21 0 14 4 18 24
27 8 4 14 7 14 8 0 1 1 2 3 2 1 0 4 2 7 5 6 6 19 13 25 12 2 0 6 -2 7 -3z
m741 -101 c5 -8 1 -16 -8 -16 -9 0 -13 8 -8 16 2 3 5 5 8 5 3 0 6 -2 8 -5z
m-622 -3 c10 -9 3 -26 -10 -26 -8 0 -15 7 -15 15 0 13 16 20 25 11z m-401 -16
c8 -4 11 -12 10 -27 0 -16 4 -31 11 -40 13 -16 15 -20 15 -28 0 -21 -24 -23
-46 -4 -11 11 -19 23 -27 47 -8 23 -10 35 -4 45 6 12 27 16 41 7z m1194 -25
c16 -7 20 -35 7 -49 -8 -8 -26 -10 -39 -3 -12 6 -14 34 -4 46 7 8 24 11 36 6z
m-768 -45 c5 -5 5 -11 0 -16 -10 -10 -27 5 -16 16 4 4 12 4 16 0z m-268 -19
l-5 -5 -4 4 -5 5 4 4 5 5 4 -4 5 -5 -4 -4z m210 -51 c1 -10 -1 -15 -6 -23 -9
-12 -12 -21 -13 -33 l-1 -11 10 -11 c11 -10 28 -20 37 -20 3 0 9 -9 9 -13 0
-10 -15 -19 -32 -19 -9 0 -10 1 -25 16 -9 8 -21 17 -26 20 -5 3 -16 10 -23 16
-14 13 -22 16 -43 17 -22 1 -29 5 -33 20 -10 38 37 54 58 20 8 -14 9 -14 26
-13 l15 0 4 15 c3 8 5 17 6 21 1 11 5 17 13 20 l7 3 8 -10 c5 -5 9 -12 9 -15z
m179 -27 c3 -5 3 -5 0 -10 -2 -3 -5 -5 -7 -5 -2 0 -5 2 -7 5 -3 5 -3 5 0 10 2
3 5 5 7 5 2 0 5 -2 7 -5z m-407 -79 c16 -9 21 -26 12 -35 -12 -13 -36 -1 -47
22 -7 14 -7 16 3 26 2 3 15 -2 32 -13z m454 6 c5 -6 5 -12 0 -18 -7 -8 -22 -2
-22 9 0 11 15 17 22 9z m242 -10 c7 -7 2 -19 -8 -19 -6 0 -12 6 -12 11 0 10
13 15 20 8z m-866 -8 c5 -5 5 -15 1 -20 -8 -9 -25 -2 -25 11 0 12 15 18 24 9z
m1078 0 c3 -3 4 -6 3 -12 0 -4 0 -9 1 -11 3 -8 -16 -13 -24 -6 -5 5 -5 24 0
29 5 5 15 5 20 0z m247 -19 c-2 -1 -3 -6 -3 -13 0 -11 0 -12 5 -13 3 0 3 0 -1
-1 l-6 0 0 14 c0 12 0 14 4 14 2 0 2 -1 1 -1z m-177 -21 c6 -2 12 -10 11 -15
-2 -15 -22 -22 -35 -13 -5 4 -6 6 -6 13 0 8 1 10 7 13 7 5 14 5 23 2z m-1086
-18 c7 -8 5 -20 -4 -36 -8 -14 -12 -26 -16 -48 -2 -11 -3 -13 -5 -13 -2 1 -3
2 -2 2 0 1 -1 5 -2 9 -2 6 -2 14 -2 29 1 18 1 23 -2 28 -3 8 -4 21 -1 27 5 10
27 11 34 2z m257 -42 c10 -9 3 -26 -10 -26 -8 0 -15 7 -15 15 0 13 16 20 25
11z m858 -31 c17 -17 -10 -59 -38 -59 -15 0 -31 12 -38 28 -4 11 -4 12 2 19 6
7 37 17 56 17 11 0 14 -1 18 -5z m-1124 -48 c5 -11 5 -11 2 -16 -8 -10 -19 -1
-15 12 3 10 3 10 4 14 0 5 3 2 9 -10z m1194 -8 c3 -5 3 -5 0 -10 -2 -3 -5 -5
-7 -5 -2 0 -5 2 -7 5 -3 5 -3 5 0 10 2 3 5 5 7 5 2 0 5 -2 7 -5z m-853 -12 c5
-6 6 -9 6 -18 0 -11 -2 -15 -16 -29 -5 -5 -14 -2 -20 6 -4 6 -5 9 -5 23 0 18
5 28 16 31 6 1 7 1 19 -13z m841 -81 c12 -6 16 -19 10 -34 -9 -21 -45 -24 -53
-4 -4 9 -3 24 1 31 6 12 26 16 42 7z m-1008 -1 c2 -3 3 -6 2 -7 -1 -2 5 -23 8
-31 2 -3 6 -9 10 -13 10 -10 13 -17 14 -28 0 -18 -12 -22 -33 -11 -11 6 -28
11 -43 11 -7 0 -15 2 -17 3 -5 3 -24 0 -26 -3 -2 -2 -2 -2 -2 0 0 6 -26 15
-26 9 0 -1 -1 -1 -2 0 -1 2 -19 11 -24 12 -10 2 -10 24 0 26 5 1 23 10 24 12
1 1 2 0 2 -1 2 -5 22 -4 25 1 1 2 3 2 3 1 1 -1 6 -3 11 -4 10 -1 12 -1 25 6 8
5 16 9 17 10 4 4 22 12 25 12 2 0 5 -2 7 -5z m-255 -11 c5 -5 5 -11 0 -16 -10
-10 -27 5 -16 16 4 4 12 4 16 0z m1218 -80 c0 -1 1 -2 3 -2 1 0 5 -2 7 -4 5
-3 5 -4 2 -7 -2 -2 -7 -3 -11 -4 -7 -1 -9 0 -12 4 -3 5 -3 5 0 10 4 5 11 7 11
3z m57 -23 c3 -5 3 -5 0 -10 -5 -6 -10 -5 -19 1 -7 5 -7 8 -1 11 8 4 16 3 20
-2z m-1127 -14 c6 -13 6 -29 0 -42 -3 -6 -5 -12 -6 -14 -1 -3 -2 -3 -2 -1 0 4
-20 10 -23 8 -4 -3 -18 -1 -26 3 -10 5 -25 7 -34 5 -3 -1 -9 -5 -14 -9 -4 -4
-12 -10 -17 -13 -12 -8 -15 -13 -16 -26 0 -8 1 -12 4 -15 2 -3 4 -8 4 -10 0
-3 1 -5 2 -6 1 0 3 -5 4 -10 1 -5 3 -9 4 -9 1 0 2 -1 2 -3 0 -1 2 -4 4 -6 7
-6 20 -23 21 -25 1 -6 9 -34 14 -45 5 -16 5 -16 0 -21 -9 -8 -33 -7 -45 3 -5
3 -10 7 -12 8 -2 1 -3 3 -4 3 -2 3 -31 14 -35 14 -7 0 -15 8 -17 18 -2 7 -1
11 2 23 2 8 5 25 6 37 2 25 4 30 15 35 13 6 17 13 16 29 0 9 -2 15 -4 20 -5 8
-8 20 -7 39 0 17 4 23 17 23 8 0 10 -1 21 -13 3 -4 6 -4 20 -5 l17 0 7 8 c6 7
8 8 19 9 8 1 15 0 24 -2 15 -4 31 -2 31 5 0 2 1 2 2 -1 1 -2 3 -8 6 -14z m326
9 c4 -4 5 -5 3 -23 -2 -31 -3 -32 -23 -43 -14 -8 -18 -11 -27 -23 -3 -4 -11
-13 -17 -19 -6 -6 -12 -14 -13 -17 -3 -5 -6 -46 -3 -50 0 -1 1 -2 1 -3 0 -1 1
-4 3 -7 10 -25 12 -33 6 -39 -8 -9 -20 -4 -21 9 -2 19 -12 35 -28 45 -6 4 -9
8 -14 19 -13 27 -32 43 -65 55 -22 8 -26 12 -26 28 0 11 1 13 6 18 6 6 7 6 21
6 9 0 13 -2 30 -19 14 -14 33 -27 40 -28 2 0 8 -1 13 -1 6 0 8 -1 7 -2 -1 -2
-1 -2 1 -1 3 2 3 5 -1 5 -4 0 -5 4 -2 7 4 5 10 15 16 26 5 10 16 16 28 15 13
-1 25 -1 28 0 5 3 11 13 16 25 3 9 12 21 15 21 0 0 3 -2 6 -4z m682 -8 c5 -5
5 -11 0 -16 -10 -10 -27 5 -16 16 4 4 12 4 16 0z m293 -16 c13 -8 29 -32 29
-43 0 -4 -6 -10 -11 -11 -7 -1 -30 5 -41 11 -13 6 -16 11 -16 25 0 9 1 11 6
16 7 7 23 8 33 2z m-167 -54 c8 -8 3 -19 -8 -19 -6 0 -12 6 -12 11 0 10 13 15
20 8z m-791 -53 c3 -3 3 -3 0 -6 -3 -3 -3 -3 -6 0 -3 2 -3 3 -1 6 4 4 4 4 7 0z
m697 -20 c9 -6 22 -37 22 -54 0 -7 -1 -9 -6 -12 -13 -7 -24 -3 -34 15 -4 6
-11 15 -16 21 -6 5 -10 10 -10 11 0 2 -1 4 -3 6 -3 4 -3 4 3 9 11 9 31 11 44
4z m-1011 -15 c1 0 4 -1 6 -1 2 -1 9 -2 15 -3 7 -1 15 -4 22 -8 11 -6 27 -10
42 -11 12 0 18 -11 10 -18 -2 -3 -7 -4 -23 -4 l-20 0 -13 -8 c-13 -8 -17 -10
-29 -9 -7 0 -18 11 -21 22 -6 21 -6 26 0 39 2 6 3 6 6 4 1 -2 3 -3 5 -3z m395
-20 c5 -5 5 -11 0 -16 -10 -10 -27 5 -16 16 4 4 12 4 16 0z m-456 -79 c7 -10
0 -23 -12 -23 -6 0 -18 10 -18 15 -2 11 -2 11 3 11 1 0 2 1 4 3 3 2 4 2 12 0
4 -2 9 -5 11 -6z m361 -2 c3 -5 3 -11 -1 -17 -2 -4 -8 -1 -12 6 -4 6 -4 7 0
11 4 6 8 6 13 0z m26 -43 c1 0 4 -4 6 -7 3 -6 3 -7 0 -12 -4 -7 -7 -6 -13 1
-5 7 -5 8 -2 15 3 5 5 6 9 3z m624 -15 c4 -4 5 -7 5 -15 0 -14 -6 -20 -20 -20
-14 0 -20 6 -20 20 0 14 6 20 20 20 8 0 11 -1 15 -5z m73 -45 c5 -5 5 -15 0
-20 -9 -9 -24 -2 -24 10 0 8 6 14 14 14 3 0 8 -2 10 -4z m-50 -86 c5 -6 5 -12
0 -18 -7 -8 -22 -2 -22 9 0 11 15 17 22 9z m23 -77 c12 -12 3 -31 -13 -31 -6
0 -9 1 -13 5 -12 12 -3 31 13 31 6 0 9 -1 13 -5z m-203 -14 c3 -3 4 -7 4 -14
0 -13 -6 -19 -19 -19 -13 0 -19 6 -19 19 0 7 1 11 4 14 7 8 23 8 30 0z m-258
-30 l-5 -5 -4 4 -5 5 4 4 5 5 4 -4 5 -5 -4 -4z"/>
<path d="M1698 3199 c-5 -3 -8 -7 -13 -18 -4 -9 -10 -18 -14 -22 -15 -13 -18
-17 -19 -22 0 -9 3 -12 15 -13 7 0 13 -2 13 -3 1 -1 2 -1 2 1 0 5 7 16 15 25
5 5 6 6 18 6 11 0 14 -1 23 -8 9 -6 13 -7 21 -7 13 0 17 3 15 15 -1 4 -1 8 -1
9 1 1 -11 12 -13 12 -1 0 -8 5 -14 12 -7 7 -15 13 -17 14 -8 3 -23 2 -31 -1z"/>
<path d="M1692 2187 c-3 -2 -9 -3 -14 -4 -11 -2 -11 -3 -19 -18 -5 -11 -5 -11
-2 -17 2 -3 4 -6 5 -5 1 1 2 0 2 -1 0 -1 2 -2 5 -2 6 0 35 14 35 17 0 4 0 24
0 27 0 4 -7 5 -12 3z"/>
<path d="M731 2073 c-9 -3 -18 -11 -22 -21 -2 -4 -5 -9 -8 -11 -2 -3 -3 -5 -3
-5 1 0 0 -6 -2 -12 -5 -21 -5 -30 1 -40 3 -4 5 -9 5 -9 0 -3 11 -14 18 -18 14
-8 30 -3 49 13 16 15 24 30 30 59 1 3 3 6 6 7 2 1 3 2 2 2 -2 0 -3 4 -3 12 0
14 -2 19 -13 23 -9 4 -49 4 -60 0z"/>
<path d="M641 2068 c-3 -1 -4 -4 -3 -17 l0 -16 13 0 13 0 0 16 c0 8 0 16 -1
16 -1 2 -19 2 -22 1z"/>
</g>
</svg>
