<?xml version="1.0" standalone="no"?>
<!DOCTYPE svg PUBLIC "-//W3C//DTD SVG 20010904//EN"
 "http://www.w3.org/TR/2001/REC-SVG-20010904/DTD/svg10.dtd">
<svg version="1.0" xmlns="http://www.w3.org/2000/svg"
 width="1100.000000pt" height="2850.000000pt" viewBox="0 0 1100.000000 2850.000000"
 preserveAspectRatio="xMidYMid meet">
<metadata>
Created by potrace 1.15, written by Peter Selinger 2001-2017
</metadata>
<g transform="translate(0.000000,2850.000000) scale(0.500000,-0.500000)"
fill="#000000" stroke="none">
<path d="M299 3835 c-11 -4 -17 -9 -22 -18 -4 -8 -4 -10 -5 -196 l0 -189 5 -3
c4 -2 10 -4 15 -4 5 0 9 -1 9 -1 -1 -1 1 -3 4 -4 3 -2 5 -4 5 -8 0 -9 3 -2 3
10 3 42 5 46 34 46 19 0 46 -6 51 -12 6 -5 8 -18 6 -35 -3 -15 -4 -20 -11 -25
-6 -6 -19 -4 -30 4 -9 5 -11 6 -25 6 -17 0 -18 0 -19 -12 -3 -26 -4 -28 -26
-43 -5 -3 -9 -7 -9 -8 1 0 -5 -4 -12 -7 l-12 -6 -104 0 c-89 0 -105 0 -112 -3
-11 -5 -16 -11 -19 -23 -3 -10 -3 -11 1 -27 2 -9 6 -18 7 -21 2 -3 3 -7 3 -8
0 -4 11 -25 15 -29 12 -11 34 -11 50 0 7 4 8 4 19 2 14 -3 27 -2 31 1 2 1 4 2
5 1 1 -1 2 0 2 2 0 2 1 3 2 3 1 0 2 2 3 5 1 3 2 5 3 5 1 0 2 1 2 3 0 2 1 3 3
3 1 0 1 0 -1 2 -1 1 -1 2 3 6 l4 4 5 -5 c3 -3 4 -5 2 -5 -2 0 -2 -1 -1 -2 1 0
3 -5 5 -9 5 -19 17 -29 33 -29 9 0 17 -6 18 -14 2 -22 9 -32 31 -41 10 -5 18
-10 25 -18 6 -6 12 -11 14 -11 2 0 3 -1 3 -2 0 -2 23 -2 25 1 5 6 19 0 19 -9
0 -9 -13 -15 -20 -9 -1 2 -4 3 -5 3 -2 0 -3 1 -3 2 0 3 -30 3 -32 -1 -1 -1 -2
-1 -2 -1 0 1 -3 -1 -6 -4 -4 -4 -8 -6 -17 -7 -42 -5 -50 -15 -60 -68 -3 -16
-6 -31 -6 -33 -1 -2 -3 -12 -5 -22 -3 -17 -5 -26 -7 -45 -1 -7 -7 -31 -11 -40
-1 -3 -2 -7 -3 -10 -1 -6 -14 -57 -20 -79 -3 -10 -6 -20 -6 -22 -1 -4 -22 -74
-26 -85 -21 -64 -23 -70 -22 -77 1 -12 3 -16 8 -24 10 -15 11 -18 11 -26 0 -8
-6 -16 -12 -16 -5 0 -28 -8 -34 -11 -5 -4 -14 -13 -14 -15 0 -1 -6 -13 -12
-27 -12 -24 -12 -27 -11 -36 1 -10 4 -18 10 -24 1 -1 4 -5 6 -9 3 -7 3 -8 0
-12 -3 -4 -5 -5 -17 -5 -25 0 -31 -5 -30 -23 0 -11 4 -18 14 -26 5 -4 11 -9
13 -10 9 -9 32 -10 42 -3 3 2 13 11 22 20 21 20 23 26 22 54 -1 18 -1 19 4 24
4 4 6 5 25 5 31 -1 32 0 67 40 16 18 22 26 45 55 7 9 24 26 39 38 10 9 11 13
12 44 0 13 1 21 5 30 5 15 6 17 9 35 3 18 7 22 21 22 8 0 11 -1 15 -5 5 -5 6
-13 2 -31 -4 -21 -5 -28 -5 -42 0 -16 -1 -19 -11 -30 -5 -5 -8 -13 -13 -29 -3
-10 -1 -18 11 -50 7 -19 6 -35 -2 -42 -5 -5 -7 -5 -20 -4 -36 3 -48 -1 -53
-15 -1 -5 -2 -86 -2 -286 0 -251 0 -280 3 -287 4 -9 14 -21 18 -21 2 0 3 -1 3
-2 0 -6 112 -3 126 4 1 1 5 3 8 4 9 4 16 11 22 24 9 17 13 22 22 22 4 0 13 -2
19 -5 19 -8 33 -9 46 -1 35 22 48 36 55 58 4 13 4 18 4 104 -1 83 -1 92 -5 98
-4 8 -14 17 -22 21 -14 7 -19 13 -19 25 0 12 5 18 19 25 8 4 18 13 22 21 4 6
4 15 5 107 0 114 0 121 -11 126 -4 2 -11 3 -17 3 -7 0 -10 1 -10 3 0 1 -1 0
-2 -3 -4 -9 -41 -30 -54 -30 -22 0 -24 31 -3 41 3 2 9 6 13 9 20 15 44 17 44
4 0 -2 1 -2 1 0 1 1 5 2 11 2 14 0 23 5 25 13 1 3 2 59 3 124 l1 118 5 11 c3
6 6 10 6 9 0 -4 12 -5 14 -2 2 2 7 3 15 3 12 0 14 -1 20 -6 3 -4 8 -9 9 -12 2
-5 15 -22 18 -24 4 -3 10 -16 10 -21 0 -8 5 -24 11 -32 3 -5 7 -8 14 -10 10
-3 11 -3 24 0 22 5 46 19 66 37 9 9 17 18 18 20 1 2 6 6 12 9 l10 5 58 0 c74
0 73 0 75 26 1 7 1 14 0 14 -1 0 -6 12 -6 16 0 13 17 24 38 25 20 0 29 -9 28
-30 0 -13 0 -21 1 -26 0 -2 1 -5 1 -6 0 -5 13 -17 20 -18 4 -1 16 -1 26 -1 19
1 19 1 25 -5 l6 -6 0 -121 0 -121 -6 -6 -6 -6 -48 0 c-26 0 -50 -1 -53 -1 -16
-5 -23 -6 -34 -5 -7 0 -13 1 -14 2 -7 4 -27 4 -36 0 -18 -8 -30 -11 -37 -10
-17 4 -30 3 -40 -1 -5 -2 -10 -6 -12 -8 -3 -6 -13 -11 -23 -13 -5 -1 -11 -2
-13 -4 -2 -1 -4 -2 -5 -2 -4 -1 -11 -6 -14 -13 -9 -20 4 -52 27 -63 7 -4 13
-4 49 -4 40 0 41 0 49 5 9 5 21 18 21 21 0 4 14 13 20 13 6 0 20 -9 20 -13 0
-3 12 -16 21 -21 8 -5 8 -5 69 -6 55 -1 62 -1 67 -5 11 -7 12 -18 4 -43 l-6
-19 -1 -131 c-1 -142 -1 -141 -12 -149 -5 -3 -24 -4 -31 -2 -2 1 -9 10 -15 20
-9 12 -14 18 -18 20 -3 1 -6 2 -6 3 0 2 -13 3 -75 3 l-64 0 -18 -9 c-11 -5
-21 -9 -25 -9 -4 0 -14 4 -25 9 l-18 9 -59 1 c-65 0 -71 -1 -81 -12 -10 -12
-10 -22 -2 -51 11 -40 20 -53 42 -59 6 -2 74 -2 262 -2 l255 1 5 5 c7 7 11 30
6 36 -6 5 -4 23 3 31 13 13 38 4 38 -13 1 -12 0 -16 -3 -18 -5 -6 -1 -29 6
-36 l5 -5 64 0 63 -1 7 5 c6 5 6 6 6 19 0 12 1 14 4 14 1 0 0 1 -4 2 -6 1 -24
8 -45 16 -8 3 -12 11 -12 24 0 29 20 35 56 17 10 -5 19 -10 19 -11 0 -1 1 -2
3 -2 4 0 18 -9 21 -14 4 -8 2 -30 -3 -30 -2 0 -3 -1 -2 -2 1 -2 2 -6 2 -9 0
-3 1 -8 1 -11 0 -2 3 -8 7 -11 l7 -7 34 1 c32 0 33 0 49 7 22 9 38 9 60 0 22
-9 37 -10 60 -4 22 5 28 5 49 0 16 -4 24 -4 97 -4 84 0 92 1 113 9 24 9 46 35
46 54 0 18 -8 28 -53 68 -9 8 -17 16 -19 17 -5 5 -13 10 -17 11 -2 0 -9 2 -16
4 -6 2 -13 3 -14 3 -5 0 -11 8 -15 22 -8 24 -18 32 -48 35 -10 1 -18 6 -18 11
0 1 -3 9 -6 18 -7 18 -13 25 -37 44 -12 9 -37 4 -46 -8 -6 -9 -35 -49 -37 -51
-1 -2 -4 -6 -6 -10 -5 -9 -22 -33 -24 -35 -2 -2 -19 -23 -30 -39 -6 -8 -13
-17 -15 -19 -16 -14 -29 -25 -38 -28 l-10 -4 -11 5 c-6 3 -15 7 -19 9 -10 6
-13 7 -25 7 -7 0 -10 1 -15 6 l-6 6 1 36 c0 20 0 37 -1 39 -1 2 -2 4 -2 6 -1
3 -13 15 -15 14 -2 -1 -19 3 -20 5 -1 1 -2 1 -2 -1 0 -5 -14 -5 -19 0 -4 5 -4
15 1 20 5 5 18 6 18 1 0 -3 1 -3 2 -2 1 2 15 5 22 5 2 0 14 14 13 16 -1 1 0 2
1 3 3 2 2 97 -1 107 -4 10 -16 26 -25 32 -8 6 -32 8 -43 3 -9 -4 -16 -4 -27 0
-21 7 -34 20 -34 32 0 8 7 15 14 15 7 0 25 -6 33 -10 16 -10 19 -10 34 -8 7 1
17 4 22 7 15 9 31 6 45 -8 9 -9 21 -17 29 -19 5 -1 86 -2 181 -2 191 0 187 0
193 12 4 8 5 28 2 33 -2 2 -3 8 -3 15 0 9 1 11 7 17 12 12 13 15 13 29 0 16 0
16 -14 23 -13 6 -27 18 -37 34 -2 3 -10 10 -18 16 -8 7 -15 13 -17 14 -1 2
-11 10 -22 18 -10 9 -21 18 -23 19 -3 3 -7 4 -17 4 -14 0 -21 -3 -27 -12 -8
-13 -25 -16 -34 -7 -8 8 -6 21 6 37 4 6 5 32 0 36 -4 4 -23 5 -32 2 -8 -3 -12
-8 -33 -35 -8 -11 -17 -22 -19 -25 -3 -3 -5 -6 -5 -6 0 -1 -1 -3 -3 -4 -1 -2
-7 -9 -12 -16 -6 -7 -10 -13 -11 -14 -1 -1 -5 -6 -10 -13 -5 -7 -9 -12 -10
-13 -1 -1 -3 -4 -6 -8 -3 -4 -7 -9 -9 -12 -3 -3 -5 -6 -5 -7 0 -2 -1 -3 -2 -3
-1 0 -5 -2 -8 -4 -3 -2 -6 -4 -6 -3 0 1 -1 1 -2 -1 -2 -1 -13 -2 -26 -2 -13 0
-23 -1 -24 -1 0 0 -3 2 -7 6 -5 5 -6 7 -5 15 1 12 -5 26 -13 31 -7 5 -25 6
-33 2 -9 -4 -27 -5 -35 0 -15 7 -16 40 -1 48 8 4 22 5 34 3 21 -3 37 4 44 21
3 7 4 14 4 55 0 26 -1 56 -2 67 -4 32 0 35 36 23 20 -7 28 -7 39 -1 9 4 11 8
12 21 0 6 1 11 2 11 0 1 -1 3 -3 4 -10 7 -2 25 11 25 13 0 20 -18 11 -25 -2
-1 -3 -3 -3 -4 1 0 2 -5 2 -11 1 -13 3 -17 12 -21 25 -13 46 4 54 43 4 18 10
34 16 38 6 6 17 5 23 -1 4 -4 4 -6 3 -19 -5 -39 2 -53 28 -62 11 -4 15 -4 60
-4 l48 1 10 6 c6 3 15 7 21 9 10 4 11 4 17 1 4 -3 11 -4 24 -4 18 0 19 0 24 6
3 3 4 6 4 7 -1 1 -1 2 0 2 1 0 4 3 5 6 2 4 3 6 1 5 -1 -1 -1 -1 0 1 3 4 5 13
3 16 -2 3 -22 6 -26 4 -3 -1 -17 -4 -23 -5 -1 0 -4 2 -7 4 -2 3 -5 5 -6 5 -3
0 -12 16 -14 27 -2 7 -1 12 1 21 4 15 4 30 0 39 -5 13 -29 37 -61 63 -5 4 -15
13 -24 20 -8 7 -17 15 -21 18 -5 5 -6 6 -4 11 2 6 3 7 31 19 54 25 64 39 64
96 0 26 -1 31 -4 39 -2 6 -5 10 -6 11 0 1 -6 7 -12 13 -22 26 -22 51 1 74 19
19 22 28 21 62 -1 24 -1 27 -6 35 -6 10 -9 12 -25 21 -14 8 -17 12 -17 24 0
10 2 16 13 26 3 3 9 12 13 19 10 17 14 20 22 24 30 14 44 22 56 34 16 14 20
21 20 34 0 16 -5 22 -36 45 -10 7 -19 14 -20 15 -1 1 -10 8 -21 16 -11 8 -21
16 -22 17 -2 1 -30 22 -65 49 -13 9 -23 18 -24 18 0 1 -2 2 -3 2 -1 0 -3 1 -3
2 -1 1 -10 8 -21 16 -11 8 -20 15 -21 16 -1 1 -8 7 -17 13 -15 11 -17 12 -28
12 -8 1 -15 0 -19 -2 -5 -3 -22 -20 -46 -47 -4 -5 -10 -11 -13 -15 -3 -3 -13
-14 -22 -24 -27 -29 -28 -31 -39 -36 -11 -5 -12 -5 -71 -5 -58 0 -78 -2 -86
-8 -4 -3 -24 -9 -31 -9 -6 0 -19 3 -33 10 -13 6 -28 7 -58 7 -36 -1 -42 -3
-62 -22 -13 -13 -33 -24 -53 -29 -7 -2 -15 -4 -16 -4 -3 -1 -6 1 -10 5 l-6 6
5 15 c6 23 5 43 -2 52 -3 4 -6 7 -8 7 -1 0 -3 1 -3 2 -2 2 -29 12 -36 12 -8 0
-24 -5 -26 -8 -1 -1 -6 -4 -11 -8 -11 -7 -17 -7 -41 -5 -11 1 -18 1 -28 -2
-23 -6 -26 -6 -31 -1 -9 8 -7 18 6 29 l11 11 0 14 0 15 -9 5 c-5 3 -14 8 -21
10 -21 8 -40 1 -46 -18 -1 -4 -2 -35 -2 -98 l0 -92 5 -11 c4 -8 8 -13 14 -18
23 -16 28 -25 26 -45 -2 -20 -8 -32 -23 -45 -18 -17 -20 -22 -22 -51 -2 -25
-8 -44 -14 -44 -2 0 -7 -5 -11 -11 -8 -11 -15 -18 -30 -27 -12 -8 -20 -27 -22
-49 0 -3 -1 -7 -1 -8 -1 -4 2 -18 6 -26 6 -11 17 -15 41 -15 19 1 20 1 25 -4
l6 -5 0 -93 c1 -51 2 -95 3 -97 1 -3 1 -3 -2 -2 -2 0 -3 0 -2 -1 1 -2 0 -3 -6
-11 -1 -1 -3 -3 -4 -5 0 -2 -1 -2 -1 1 0 7 -34 43 -61 64 -13 11 -15 12 -21
17 -33 23 -111 65 -121 65 -2 0 -5 3 -7 8 -4 7 -5 12 -6 30 l-1 22 6 6 6 6 34
-1 c46 0 53 3 60 30 1 5 2 11 1 12 -2 3 0 16 2 19 5 6 11 31 11 49 0 15 1 19
4 24 5 5 22 12 42 16 17 4 23 10 23 28 l1 13 -24 24 c-73 72 -78 76 -94 74
-12 -1 -17 -4 -25 -16 -18 -25 -23 -36 -25 -55 0 -5 -1 -9 -1 -10 0 -1 0 -2 0
-2 0 -1 -2 -2 -4 -3 -2 -1 -4 -3 -4 -6 0 -3 -1 -3 -2 2 -1 3 -3 10 -5 15 -4 8
-4 18 -4 134 l0 125 5 7 c3 4 6 7 8 8 10 2 27 15 42 34 4 4 10 17 15 29 5 16
-3 35 -17 43 -11 6 -18 7 -58 11 -21 2 -158 15 -169 16 -37 4 -113 11 -115 11
-2 0 -7 -1 -11 -3z m1294 -190 c4 -4 5 -7 5 -15 0 -14 -6 -20 -20 -20 -14 0
-20 6 -20 20 0 14 6 20 20 20 8 0 11 -1 15 -5z m-574 -42 c11 -3 22 -5 28 -5
10 1 12 0 16 -5 4 -4 4 -6 3 -10 -1 -3 -1 -5 -1 -5 1 0 1 -1 -1 -2 -1 -2 -2
-6 -2 -9 0 -9 -9 -17 -19 -18 -8 0 -50 11 -59 16 -9 5 -13 10 -13 21 0 8 1 11
6 16 9 9 14 9 42 1z m-607 1 c5 -5 5 -15 0 -20 -9 -9 -24 -2 -24 10 0 8 6 14
14 14 3 0 8 -2 10 -4z m1072 -68 c0 -1 3 -4 7 -6 3 -3 6 -7 7 -9 1 -5 13 -17
20 -18 3 -1 6 -2 7 -3 1 -1 5 -3 9 -4 10 -3 14 -9 14 -18 0 -9 -4 -15 -14 -18
-4 -1 -8 -3 -9 -4 -1 -1 -4 -2 -7 -3 -8 -2 -19 -13 -22 -22 -3 -12 -3 -55 1
-63 3 -9 10 -13 20 -15 5 -1 10 -2 12 -2 2 0 5 0 7 2 1 1 7 2 12 2 15 0 23 -8
23 -23 0 -15 -8 -23 -23 -23 -5 0 -11 1 -12 2 -2 2 -5 2 -7 2 -2 0 -8 -1 -12
-2 -17 -3 -24 -14 -23 -39 2 -25 11 -37 36 -46 16 -6 20 -11 20 -25 0 -16 -7
-23 -22 -23 -12 0 -18 3 -28 13 -11 11 -23 19 -35 20 -5 1 -73 1 -151 1 l-141
-1 -6 6 -6 6 0 151 0 151 6 6 6 6 156 0 c85 0 155 -1 155 -1z m-944 -61 c21
-9 20 -45 -2 -54 -10 -5 -28 -1 -34 6 -9 10 -9 32 0 42 7 8 24 11 36 6z m1099
-22 c3 -2 7 -9 10 -20 5 -16 13 -31 21 -39 9 -10 8 -34 -1 -41 -4 -4 -8 -5
-18 -5 -17 0 -23 4 -25 21 -3 19 -8 37 -14 48 -12 21 -6 39 13 39 6 0 12 -1
14 -3z m-647 -37 c5 -6 5 -12 0 -18 -7 -8 -22 -2 -22 9 0 11 15 17 22 9z
m-344 -11 c8 -5 9 -10 5 -16 -4 -7 -10 -6 -17 1 -7 7 -7 9 0 14 6 5 5 5 12 1z
m-155 -34 c5 -8 1 -16 -8 -16 -9 0 -13 8 -8 16 2 3 5 5 8 5 3 0 6 -2 8 -5z
m73 -70 l-5 -5 -4 4 -5 5 4 4 5 5 4 -4 5 -5 -4 -4z m279 -6 c0 -2 3 -3 4 -3 2
0 6 -1 9 -3 2 -2 4 -3 4 -2 0 0 3 0 7 -1 4 -1 8 -1 8 0 1 1 2 2 3 1 2 -1 11 4
16 8 1 2 7 3 12 3 14 0 20 -6 20 -20 0 -14 -6 -20 -20 -20 -10 0 -11 1 -19 8
-4 5 -9 9 -9 8 -1 0 -2 1 -1 3 0 1 -1 2 -2 2 -2 -1 -3 0 -2 1 0 4 -29 5 -30 1
-2 -4 -7 -4 -11 2 -5 5 -5 6 -1 11 5 5 10 5 12 1z m-754 -22 c3 -5 3 -5 0 -10
-5 -6 -8 -6 -13 -1 -5 5 -5 5 0 11 4 6 8 6 13 0z m349 -15 c6 -7 14 -27 15
-43 2 -15 -2 -21 -14 -20 -4 1 -10 3 -13 5 -5 6 -11 25 -13 43 -1 11 -1 13 3
17 6 6 15 5 22 -2z m58 -95 c14 -5 20 -20 16 -36 -4 -13 -14 -21 -29 -20 -16
1 -23 6 -27 21 -2 7 -2 11 3 26 2 5 4 9 8 10 5 2 23 2 29 -1z m459 -27 c10 -4
16 -26 10 -39 -1 -3 -5 -15 -7 -25 -4 -20 -7 -24 -17 -31 -9 -6 -18 1 -17 14
0 3 -3 16 -6 27 -11 37 -8 52 15 57 5 1 14 -1 22 -3z m524 -5 c1 -1 3 -4 5 -5
3 -4 8 -45 8 -66 0 -9 1 -19 3 -23 4 -9 14 -21 18 -21 2 0 3 -1 3 -2 0 -2 4
-3 52 -3 55 0 54 0 47 -24 -4 -20 -8 -25 -22 -32 -12 -6 -23 -16 -29 -25 -10
-16 -16 -22 -24 -26 l-9 -5 -332 -1 -332 0 -6 5 c-4 4 -7 9 -8 12 -1 3 -3 9
-5 14 -2 4 -5 12 -5 17 -1 10 -2 17 -3 17 -1 0 -3 16 -2 23 0 1 4 2 12 2 11 0
12 0 13 -4 0 -3 1 1 1 9 0 15 4 24 11 27 11 4 31 8 35 7 6 -2 10 -13 9 -25 -1
-31 17 -51 44 -46 5 1 12 2 15 3 3 0 9 2 14 3 5 2 10 3 11 3 1 1 4 1 7 2 15 3
46 15 81 32 40 20 65 46 67 71 1 4 3 9 7 13 6 6 7 6 19 5 16 0 33 5 50 15 19
12 29 11 50 -4 13 -10 22 -11 83 -11 53 0 56 0 64 4 12 6 16 11 23 25 4 6 8
13 9 14 3 4 13 4 16 0z m-445 -34 c0 1 2 -1 4 -4 10 -12 2 -29 -13 -29 -11 0
-17 5 -18 17 -2 13 7 20 22 17 3 -1 5 -1 5 -1z m641 -24 c3 -2 6 -5 6 -7 1 -2
2 -4 3 -4 1 0 1 -4 1 -10 0 -5 0 -10 -1 -10 -1 0 -2 -1 -2 -3 0 -8 -35 -20
-45 -15 -6 3 -8 11 -5 19 1 3 3 9 3 13 2 14 11 22 27 21 5 -1 11 -2 13 -4z
m-1111 -21 c23 -16 37 -18 54 -10 4 2 12 5 17 7 10 3 11 3 15 -2 3 -3 3 -5 2
-9 -2 -5 -29 -31 -38 -37 -7 -5 -18 -3 -38 6 -16 8 -27 12 -30 11 -5 0 -22 7
-25 11 -5 7 -4 22 2 28 8 9 24 7 41 -5z m283 -54 c8 0 13 1 14 3 0 1 1 -1 1
-4 l0 -6 -14 0 c-13 0 -14 0 -14 4 0 3 0 3 -2 1 -1 -2 -2 -2 -1 2 0 2 1 3 2 2
1 -1 7 -2 14 -2z m916 -79 c3 -3 3 -3 0 -6 -3 -3 -3 -3 -6 0 -3 2 -3 3 -1 6 4
4 4 4 7 0z m-1323 -62 l-5 -5 -4 4 -5 5 4 4 5 5 4 -4 5 -5 -4 -4z m958 -12 c6
-6 6 -21 0 -28 -12 -17 -30 -32 -41 -34 -6 -1 -11 10 -9 20 2 12 12 32 19 40
8 10 23 11 31 2z m-102 -43 c7 -4 11 -15 7 -23 -8 -19 -35 -13 -35 7 0 15 15
23 28 16z m-107 -35 c3 -3 3 -3 0 -6 -3 -3 -3 -3 -6 0 -3 2 -3 3 -1 6 4 4 4 4
7 0z m184 -37 l-4 -4 -4 4 -5 5 5 5 4 5 4 -5 5 -5 -5 -5z m-906 -87 c3 -3 3
-3 0 -6 -3 -3 -3 -3 -6 0 -3 2 -3 3 -1 6 4 4 4 4 7 0z m1200 -124 c3 -3 3 -3
0 -6 -3 -3 -3 -3 -6 0 -3 2 -3 3 -1 6 4 4 4 4 7 0z m-1301 -162 c16 -8 12 -33
-5 -33 -9 0 -19 5 -21 11 -7 19 8 31 26 22z m83 -41 c11 -10 3 -28 -11 -28 -9
0 -16 6 -16 16 0 14 17 22 27 12z m899 -34 c5 -5 6 -7 6 -17 0 -10 -1 -12 -6
-17 -5 -5 -7 -6 -17 -6 -10 0 -12 1 -17 6 -5 5 -6 7 -6 17 0 10 1 12 6 17 5 5
7 6 17 6 10 0 12 -1 17 -6z m-966 -70 c1 0 5 -3 8 -6 5 -5 6 -7 6 -18 0 -14
-4 -20 -16 -24 -7 -2 -9 -2 -16 0 -12 4 -16 10 -16 24 0 13 3 19 12 23 5 2 8
2 22 1z m993 -50 c7 -9 1 -22 -11 -22 -4 0 -7 2 -10 5 -10 13 10 29 21 17z
m-1003 -44 c5 -6 5 -10 -2 -31 -3 -8 -4 -19 -4 -26 0 -7 0 -15 0 -19 0 -16 -9
-25 -27 -25 -14 0 -22 5 -26 15 -6 15 -2 29 12 41 8 7 19 21 20 27 1 5 8 17
11 19 5 4 12 3 16 -1z m946 -1 c5 -5 5 -8 0 -13 -5 -5 -8 -5 -13 1 -3 5 -3 5
0 10 5 6 8 6 13 2z m-881 -104 c12 -12 3 -31 -13 -31 -11 0 -18 7 -18 18 0 11
7 18 18 18 6 0 9 -1 13 -5z m98 -2 c3 -5 3 -5 0 -10 -2 -3 -5 -5 -7 -5 -2 0
-5 2 -7 5 -3 5 -3 5 0 10 2 3 5 5 7 5 2 0 5 -2 7 -5z"/>
</g>
</svg>
