<?xml version="1.0" standalone="no"?>
<!DOCTYPE svg PUBLIC "-//W3C//DTD SVG 20010904//EN"
 "http://www.w3.org/TR/2001/REC-SVG-20010904/DTD/svg10.dtd">
<svg version="1.0" xmlns="http://www.w3.org/2000/svg"
 width="1100.000000pt" height="2850.000000pt" viewBox="0 0 1100.000000 2850.000000"
 preserveAspectRatio="xMidYMid meet">
<metadata>
Created by potrace 1.15, written by Peter Selinger 2001-2017
</metadata>
<g transform="translate(0.000000,2850.000000) scale(0.500000,-0.500000)"
fill="#000000" stroke="none">
<path d="M1220 3830 c-10 -3 -22 -11 -23 -14 -1 -2 -2 -4 -3 -4 0 0 -3 -3 -5
-7 -2 -5 -9 -11 -18 -16 -8 -5 -16 -12 -19 -16 -6 -6 -12 -21 -12 -29 0 -7 12
-29 16 -32 6 -2 15 -14 15 -20 0 -5 -9 -18 -15 -20 -2 -2 -10 -13 -13 -21 -3
-6 -3 -19 -3 -84 l0 -76 -5 -15 c-3 -8 -6 -15 -7 -16 -1 -1 -3 -5 -4 -10 -2
-8 -3 -12 -4 -30 0 -8 -9 -14 -20 -14 -14 0 -20 6 -20 20 0 5 1 10 2 11 1 1 1
3 0 6 -1 2 -2 7 -3 11 -1 4 -3 10 -5 13 -9 11 -6 11 -133 11 l-117 0 -1 -6 c0
-3 -1 0 -1 7 0 9 1 11 3 11 11 0 53 33 60 46 4 8 4 21 -1 31 -3 6 -8 12 -27
27 -13 10 -24 19 -25 20 -1 1 -5 4 -9 7 -4 3 -9 7 -10 8 -1 1 -6 5 -10 8 -11
9 -71 57 -75 60 -2 1 -14 11 -27 21 -13 10 -27 21 -30 24 -12 9 -18 14 -20 14
0 0 -6 2 -12 5 -8 4 -12 5 -16 3 -2 -1 -5 -2 -5 -1 -1 0 -1 0 0 -1 0 0 -1 -3
-3 -5 -2 -3 -2 -8 -2 -17 1 -14 -1 -18 -15 -32 -6 -7 -18 -30 -18 -35 0 -2 -3
-6 -6 -9 -5 -6 -6 -6 -35 -9 -15 -2 -35 -5 -37 -6 -5 -3 -49 -7 -75 -7 -17 0
-32 0 -33 -1 0 0 -4 -1 -7 -2 -9 -1 -21 -11 -25 -19 -3 -8 -4 -52 -1 -84 1
-17 1 -21 -2 -27 -5 -11 -5 -35 -1 -45 3 -4 4 -11 4 -17 0 -13 -6 -20 -19 -22
-9 -1 -25 -7 -28 -11 -3 -3 -7 -14 -8 -22 -1 -2 1 -11 4 -19 6 -17 7 -19 8
-34 2 -15 -3 -21 -16 -21 -16 0 -45 27 -49 46 -2 7 -1 11 7 38 3 9 6 22 6 30
1 13 6 22 12 22 2 0 7 1 12 3 5 2 12 4 15 4 10 2 20 10 21 18 2 10 2 27 -1 32
-1 2 -4 9 -6 15 -2 6 -7 14 -10 17 -4 5 -8 8 -23 16 -14 8 -15 20 -1 30 5 4
10 8 11 9 2 1 4 2 4 2 3 0 12 11 17 23 5 10 5 12 4 20 -4 15 -10 25 -19 30 -9
5 -71 32 -120 51 -5 3 -15 7 -21 9 -5 3 -11 5 -11 5 -1 0 -5 2 -10 4 -30 13
-33 14 -45 10 -16 -5 -22 -17 -22 -40 0 -23 7 -35 28 -49 16 -11 19 -14 19
-29 0 -15 -3 -18 -19 -29 -24 -16 -29 -27 -27 -57 0 -12 1 -23 2 -25 0 -2 3
-12 5 -21 l4 -17 -4 -17 c-2 -9 -5 -19 -5 -21 -1 -2 -2 -12 -2 -22 -2 -32 4
-43 32 -56 11 -5 19 -10 19 -11 0 -3 16 -10 26 -11 8 -1 12 0 16 2 2 2 8 3 13
3 13 0 19 -6 19 -19 0 -21 -18 -26 -39 -11 -18 12 -29 12 -51 3 -19 -9 -30
-19 -33 -30 -1 -5 -2 -59 -3 -127 0 -115 0 -120 3 -128 5 -11 9 -14 22 -19 6
-2 11 -5 12 -7 2 -2 3 -2 3 0 0 1 1 1 4 -1 6 -6 2 -39 -5 -47 -2 -1 -3 -4 -3
-5 0 -2 -4 -5 -8 -7 -18 -9 -24 -14 -25 -21 -1 -4 -2 -7 -3 -7 0 0 -1 -128 0
-283 l0 -284 6 -20 c7 -24 7 -26 0 -50 l-6 -20 0 -116 c0 -102 1 -118 3 -124
4 -9 14 -21 18 -21 2 0 3 -1 3 -2 0 -5 85 -4 114 2 33 6 38 7 57 14 46 16 85
40 109 65 22 24 24 33 24 105 l0 58 6 11 c3 7 6 13 8 15 5 5 12 25 12 32 0 7
9 18 15 18 18 1 25 -1 30 -9 3 -4 4 -13 4 -57 l0 -51 9 -19 c9 -22 10 -32 4
-48 -7 -17 -4 -39 6 -41 2 -1 4 -2 4 -3 0 -5 79 -4 108 1 44 7 84 20 134 42
l8 4 0 17 c0 16 -1 18 -3 19 -2 1 -6 2 -7 3 -2 1 -6 2 -8 2 -6 0 -13 8 -17 20
-7 21 -15 36 -22 38 -7 2 -18 3 -20 1 -1 -1 -2 -2 -3 -2 0 0 -6 -3 -12 -6 -13
-6 -20 -6 -26 0 -10 10 -2 25 13 25 16 -1 30 6 44 18 7 7 15 12 17 12 22 2 27
-2 34 -22 7 -18 13 -26 25 -32 12 -5 22 -4 33 5 14 12 14 11 14 119 0 78 1 98
3 102 1 3 4 8 6 11 2 3 3 5 3 3 0 -7 13 -8 90 -8 81 0 85 1 95 11 5 6 11 25
11 35 0 14 18 22 27 12 4 -5 6 -8 15 -28 8 -19 24 -28 50 -29 16 0 17 0 23 -6
5 -5 6 -7 5 -16 -1 -27 10 -42 36 -50 25 -7 23 -20 -9 -53 -26 -27 -27 -30
-27 -72 0 -43 4 -52 29 -64 19 -10 23 -18 15 -26 -2 -2 -4 -4 -4 -4 -1 1 -7
-2 -14 -6 -23 -10 -27 -19 -26 -54 l1 -23 -6 -6 -6 -6 -81 0 c-85 1 -86 1 -94
-8 -2 -2 -4 -8 -5 -12 -1 -4 -2 -10 -2 -13 -1 -2 0 -5 2 -7 8 -8 0 -23 -11
-23 -11 0 -19 15 -11 23 2 2 3 5 2 7 0 3 -1 9 -2 13 -1 4 -3 10 -5 12 -8 9 -7
9 -120 8 l-106 0 -7 -6 c-5 -4 -9 -10 -12 -16 -2 -6 -4 -11 -4 -13 -1 -2 -2
-4 -1 -4 0 -1 0 -11 1 -22 2 -33 13 -52 37 -60 4 -1 27 -2 67 -2 l61 0 19 6
c23 7 27 7 51 0 l18 -6 82 1 c44 0 82 1 84 1 8 3 18 8 19 10 0 1 6 3 12 6 l10
4 11 -5 c6 -3 15 -7 19 -9 5 -3 10 -5 11 -6 2 -1 52 -1 113 -2 96 0 111 0 119
3 9 3 21 12 19 15 0 1 3 4 8 7 5 3 9 4 8 3 -1 -2 -1 -2 1 -1 4 4 20 -2 30 -13
9 -8 25 -15 34 -13 7 1 24 9 28 13 10 9 27 13 39 7 3 -2 8 -4 9 -5 6 -3 22 -2
28 1 3 2 4 3 3 3 -1 0 -1 1 0 2 3 2 6 17 5 22 -3 6 1 22 6 28 15 16 44 14 50
-4 2 -9 3 -22 0 -26 -2 -2 3 -21 8 -29 1 -3 6 -6 11 -9 9 -4 11 -4 126 -4 67
0 123 1 130 2 17 3 20 7 19 26 l0 14 -9 4 c-12 5 -16 14 -11 21 5 8 19 5 28
-5 4 -4 7 -9 6 -9 -1 -1 -2 -2 -1 -3 1 -1 -1 -3 -2 -4 -6 -3 -1 -2 6 1 3 2 6
2 7 2 1 -1 2 0 2 1 0 1 -2 2 -4 3 -4 0 -4 0 0 1 3 0 6 -1 7 -2 1 -1 3 -1 7 0
3 1 6 1 6 0 0 0 1 1 3 4 6 8 -2 27 -21 49 -6 7 -66 60 -118 104 -43 36 -77 63
-83 66 -14 7 -57 3 -75 -6 -9 -5 -17 -14 -38 -42 -37 -52 -64 -88 -68 -92 -6
-6 -22 -11 -38 -11 -28 0 -41 -13 -43 -44 -1 -13 -5 -23 -11 -26 -6 -3 -21 -4
-29 -2 -7 1 -16 9 -14 12 0 0 0 4 -1 8 -2 8 0 21 5 32 3 7 3 18 -1 28 -6 17
-27 19 -49 4 -8 -6 -16 -10 -19 -10 -19 -1 -26 4 -26 21 0 13 6 21 15 21 3 0
6 0 7 0 13 3 19 5 29 9 6 3 11 6 11 7 0 1 1 2 2 2 1 0 6 2 9 6 4 3 10 8 14 11
4 3 9 10 12 16 l5 11 0 125 c0 69 -1 129 -1 134 -1 5 -2 7 -5 7 -4 0 -4 0 -2
3 2 2 3 2 4 0 1 -1 2 0 2 2 0 5 7 12 10 10 1 -1 2 0 2 1 0 1 2 1 6 -1 6 -3 22
-4 32 -1 10 3 20 11 24 20 1 4 4 9 6 13 3 3 4 5 3 5 -1 0 0 2 3 5 4 4 7 5 13
5 6 0 9 -1 13 -5 3 -3 4 -5 3 -5 -1 0 0 -2 3 -5 2 -4 5 -10 7 -14 l4 -8 13 -1
c15 0 16 0 29 17 6 8 11 13 12 13 0 0 6 1 12 3 12 3 10 3 45 -7 8 -2 20 -5 28
-5 14 -1 18 -3 31 -15 15 -15 22 -17 55 -18 48 -1 74 7 95 27 27 26 25 51 -5
77 -8 6 -16 12 -19 13 -11 2 -18 3 -30 1 -28 -5 -32 -2 -34 27 -1 30 -3 34
-32 57 -13 10 -25 20 -27 22 -2 2 -7 7 -13 11 -5 4 -10 8 -11 9 -1 1 -5 5 -11
9 -5 4 -10 9 -11 9 -1 1 -8 7 -17 14 -14 11 -16 12 -26 12 -21 0 -20 1 -80
-79 -66 -88 -62 -85 -98 -85 -21 0 -23 0 -30 5 -4 3 -8 5 -9 5 -1 0 -2 1 -1 2
1 1 0 3 -1 5 -5 6 -14 26 -14 31 0 3 3 11 6 17 17 31 19 39 12 53 -6 12 -26
20 -41 16 -8 -3 -20 0 -26 5 -10 8 -11 32 -1 41 6 7 17 8 33 5 26 -5 35 -5 53
4 18 10 17 9 29 19 10 10 17 20 23 37 6 13 5 23 -1 36 -7 15 -20 21 -44 22 -9
0 -25 1 -35 2 -10 1 -20 2 -20 1 -1 0 -2 1 -2 2 0 1 -1 2 -3 2 -2 0 -5 1 -6 3
-2 2 -4 3 -5 2 -1 0 -1 1 -1 3 -1 2 1 4 4 5 3 1 9 4 13 7 20 14 23 16 30 16 4
0 12 0 18 -1 19 -2 30 4 28 17 -1 11 6 30 13 35 5 5 7 5 20 5 12 -1 16 -2 20
-6 6 -5 9 -18 9 -33 -1 -11 4 -22 11 -25 2 -2 12 -3 23 -3 10 -1 20 -2 22 -3
3 -1 12 -5 21 -8 l17 -6 106 0 c116 0 124 1 144 11 17 8 25 16 30 27 13 30 2
58 -29 74 -14 7 -21 13 -27 24 -3 4 -5 8 -6 8 -1 0 -2 1 -2 2 0 3 -11 14 -33
30 -10 7 -25 20 -33 27 -8 8 -18 16 -21 19 -3 2 -10 8 -15 12 -5 4 -12 10 -17
14 -5 4 -12 10 -16 13 -4 3 -12 9 -17 14 -8 6 -10 7 -21 7 -15 0 -23 -5 -31
-18 -5 -8 -9 -11 -18 -16 -22 -11 -33 -19 -41 -30 -4 -6 -9 -12 -10 -13 -2 -1
-15 -18 -29 -37 -25 -34 -31 -40 -38 -40 -2 0 -5 -1 -6 -3 -2 -2 -5 -3 -13 -2
-5 0 -23 1 -38 1 -27 1 -28 1 -38 -5 -10 -5 -21 -20 -24 -33 -1 -7 -8 -11 -15
-12 -19 -1 -26 4 -26 20 0 13 2 16 11 22 16 10 21 15 28 28 3 7 7 15 8 18 0 3
5 9 9 12 14 10 22 20 26 30 4 8 4 13 3 76 0 37 0 76 0 87 0 11 0 30 0 43 0 12
1 22 1 22 2 0 10 16 10 20 0 4 1 4 2 2 1 -2 2 0 4 4 3 6 6 14 7 19 0 0 1 2 1
3 0 0 0 3 0 4 0 2 3 6 6 9 5 5 6 8 7 19 2 19 0 25 -12 36 -5 6 -11 10 -12 10
-2 0 -3 1 -3 3 0 1 -1 3 -1 3 -1 1 -4 4 -5 7 -4 6 -4 15 -4 101 l0 95 5 8 c4
6 9 10 17 14 13 6 28 19 35 31 9 14 15 35 13 42 -5 17 -12 25 -25 31 -9 3 -13
4 -37 6 -8 0 -49 4 -90 7 -41 3 -81 6 -89 7 -8 1 -30 2 -49 4 -39 3 -41 3 -48
1z m103 -123 c7 -7 -7 -51 -21 -66 -5 -6 -14 -33 -14 -43 0 -5 -1 -11 -3 -13
-5 -8 -7 -22 -6 -44 1 -20 1 -22 -4 -26 -7 -7 -19 -7 -26 0 -5 5 -5 6 -4 16 3
25 3 34 0 45 -4 13 -6 28 -4 35 0 2 5 9 10 14 10 11 17 24 22 41 2 11 6 15 22
30 15 14 23 17 28 11z m-793 -109 c5 -5 5 -11 0 -16 -10 -10 -27 5 -16 16 4 4
12 4 16 0z m149 -2 c7 -6 7 -19 1 -25 -7 -7 -20 -7 -26 0 -5 7 -5 18 0 24 6 7
19 7 25 1z m-73 -55 l-5 -5 -4 4 -5 5 4 4 5 5 4 -4 5 -5 -4 -4z m-135 -28 l6
-6 0 -114 c0 -63 1 -123 2 -134 2 -23 0 -28 -13 -31 -7 -1 -10 -1 -43 8 -6 2
-12 5 -16 9 l-6 6 0 93 c1 50 0 92 -1 92 -1 0 -1 5 -1 12 0 7 0 12 1 12 1 0 1
9 2 21 0 17 0 21 -3 24 -3 3 -3 3 1 3 3 0 6 2 9 6 l3 5 26 0 27 0 6 -6z m1005
-85 c5 -6 9 -16 7 -20 -2 -4 -15 -10 -22 -10 -16 0 -23 20 -12 31 7 7 20 7 27
-1z m-789 -19 c6 -5 5 -11 -1 -16 -9 -7 -22 -7 -29 0 -6 6 -6 7 -1 12 7 9 24
11 31 4z m142 -35 c4 -7 16 -15 26 -18 6 -2 46 -2 141 -2 l133 1 6 -6 6 -6 0
-148 0 -148 -6 -6 -6 -6 -153 0 -153 0 -6 6 -6 6 1 163 c1 140 1 164 4 168 2
2 4 4 4 4 1 0 2 2 2 5 0 3 1 3 2 -2 1 -3 3 -8 5 -11z m-84 -57 c5 -8 1 -16 -8
-16 -9 0 -13 8 -8 16 2 3 5 5 8 5 3 0 6 -2 8 -5z m517 -7 c5 -6 5 -12 0 -18
-7 -8 -22 -2 -22 9 0 11 15 17 22 9z m-605 -6 c4 -6 4 -24 -1 -30 -7 -9 -27
-9 -34 0 -5 6 -5 24 0 30 7 9 27 9 35 0z m-519 -32 c8 -8 2 -24 -10 -24 -9 0
-14 5 -14 14 0 13 15 19 24 10z m125 -14 c8 -7 7 -19 -1 -28 -8 -8 -11 -8 -21
0 -14 12 -8 32 10 32 5 0 9 -1 12 -4z m478 -48 c5 -5 5 -5 13 -29 7 -18 7 -24
3 -28 -6 -6 -16 1 -34 26 -10 13 -12 23 -5 30 6 7 18 7 23 1z m-471 -19 c15
-8 19 -13 19 -25 0 -15 -8 -23 -23 -23 -15 0 -23 8 -23 23 0 10 1 11 9 18 4 4
9 8 11 8 1 0 1 1 -1 2 -6 4 0 2 8 -3z m1084 -1 c4 -3 8 -7 8 -8 0 0 2 -4 6 -7
7 -8 16 -21 19 -25 1 -1 2 -8 2 -14 0 -19 -8 -27 -27 -27 -13 0 -13 0 -38 20
-17 13 -22 18 -22 27 0 11 14 29 30 36 10 5 12 5 22 -2z m-883 -79 l6 -6 -1
-124 0 -123 5 -16 c3 -8 7 -18 9 -22 7 -12 9 -36 4 -46 -8 -14 -42 -15 -47 0
-3 5 -13 23 -18 28 -4 4 -12 9 -15 8 -1 0 -2 1 -2 3 0 1 -2 5 -5 8 l-6 6 0
139 0 139 6 6 6 6 26 0 26 0 6 -6z m231 1 c6 0 16 -12 31 -36 11 -19 11 -19
11 -32 -2 -17 -7 -22 -25 -22 -16 0 -21 4 -29 22 -3 6 -6 11 -6 12 -1 1 -3 4
-5 8 -1 4 -5 10 -7 13 -3 4 -3 7 -2 15 3 14 12 22 25 21 2 0 5 -1 7 -1z m1008
-14 c11 -6 14 -11 14 -25 0 -10 -1 -12 -6 -17 -6 -6 -7 -6 -20 -6 -9 0 -22 6
-28 13 -11 16 -7 36 7 40 7 2 25 -1 33 -5z m-1359 -8 c7 -6 7 -19 1 -25 -6 -7
-19 -7 -25 -1 -7 6 -7 19 -1 25 6 7 19 7 25 1z m279 -15 c10 -8 11 -10 12 -26
0 -14 0 -17 -4 -20 -11 -10 -38 12 -38 32 0 15 16 22 30 14z m654 -16 c6 -7 6
-22 -1 -28 -7 -8 -22 -7 -28 0 -10 12 -5 32 9 33 9 1 16 0 20 -5z m-76 -46 c6
-4 6 -5 6 -15 -1 -10 -4 -16 -9 -17 -12 -2 -17 -1 -22 4 -7 7 -7 19 0 26 6 6
17 7 25 2z m576 -9 c5 -5 6 -7 6 -17 0 -10 -1 -12 -6 -17 -5 -5 -7 -6 -17 -6
-10 0 -12 1 -17 6 -5 5 -6 7 -6 17 0 10 1 12 6 17 5 5 7 6 17 6 10 0 12 -1 17
-6z m-437 -20 c7 -3 11 -12 12 -28 1 -20 6 -33 13 -35 4 -1 4 -2 1 -5 -2 -2
-3 -4 -3 -5 0 -2 -1 -4 -3 -5 -3 -2 -3 -3 -1 -4 2 -2 2 -2 0 -2 -2 0 -9 -3
-15 -6 -18 -10 -27 -8 -44 9 -11 11 -25 18 -34 16 -11 -3 -31 -3 -36 0 -11 6
-14 12 -8 17 2 1 3 4 3 5 0 2 1 3 3 3 1 0 3 1 4 3 1 4 19 4 21 0 3 -3 28 -3
34 1 3 1 5 3 5 4 -2 3 10 28 14 31 10 5 21 5 34 1z m-1118 -21 c3 -2 9 -7 13
-10 3 -3 10 -9 15 -12 12 -8 17 -15 17 -24 0 -7 -1 -10 -6 -14 -7 -6 -18 -11
-20 -10 -1 0 -5 -2 -9 -6 -4 -4 -7 -7 -6 -7 6 0 -3 -34 -10 -39 -7 -7 -21 -6
-38 0 -8 3 -20 7 -27 9 -7 3 -16 7 -19 9 -9 7 -25 40 -24 49 0 1 1 3 1 5 0 1
3 5 6 8 5 6 6 7 12 5 9 -3 35 -16 38 -20 1 -1 2 -2 2 -1 0 0 4 -1 9 -3 5 -2
10 -4 11 -3 1 1 3 0 4 -1 1 -2 2 2 2 11 0 11 -1 15 -4 18 -5 5 -6 10 -6 22 -1
18 22 26 39 14z m340 -50 c3 -5 3 -5 0 -10 -2 -3 -5 -5 -7 -5 -2 0 -5 2 -7 5
-3 5 -3 5 0 10 2 3 5 5 7 5 2 0 5 -2 7 -5z m569 -6 c5 -3 13 -5 17 -5 5 0 6
-1 4 -1 -5 -1 -5 -3 -5 -14 0 -2 19 -9 22 -9 0 0 1 0 2 0 0 0 3 0 6 0 5 0 12
-7 12 -13 0 -9 -6 -15 -20 -21 -18 -9 -25 -14 -31 -27 l-5 -11 0 -74 c1 -71 1
-74 5 -79 4 -6 5 -6 19 -5 l14 0 0 -12 0 -12 -14 0 c-14 1 -15 1 -18 -4 -2 -3
-4 -7 -4 -10 -1 -2 -4 -7 -7 -11 l-6 -6 -73 0 c-92 1 -88 2 -102 -32 -1 -3 -3
-8 -3 -11 0 -2 -2 -6 -4 -7 -8 -6 -22 -2 -22 7 0 3 -2 8 -3 11 -12 29 -19 34
-46 32 -9 -1 -25 -1 -35 -1 -18 0 -18 0 -24 7 l-6 6 1 37 c0 22 -1 40 -2 44
-3 9 -11 17 -22 20 -8 2 -10 2 -26 2 -20 -1 -25 7 -23 33 1 20 1 21 7 37 4 13
10 17 22 19 4 0 12 3 18 5 l9 5 1 15 c0 13 0 15 -4 18 -12 10 -13 29 -2 42 2
3 6 8 9 11 6 8 11 12 18 16 5 3 25 3 159 3 l152 0 10 -5z m204 -75 c5 -5 5
-15 0 -20 -9 -9 -24 -2 -24 10 0 8 6 14 14 14 3 0 8 -2 10 -4z m-718 -52 c9
-3 15 -9 18 -17 4 -11 8 -42 8 -56 0 -12 -1 -14 -6 -19 -6 -6 -7 -6 -21 -6
-11 0 -17 5 -26 24 -5 9 -11 19 -14 22 -16 14 -19 20 -19 31 0 7 1 12 4 15 7
9 36 12 56 6z m617 -13 c5 -5 5 -6 4 -17 -1 -14 -6 -27 -16 -47 -13 -25 -16
-46 -9 -55 2 -1 3 -7 3 -12 0 -15 -8 -23 -23 -23 -16 0 -20 5 -20 22 0 9 1 15
4 21 8 16 10 38 4 46 -5 4 -3 20 3 32 8 15 12 20 14 24 2 1 4 3 4 5 7 10 24
12 32 4z m-1068 -47 c4 -6 4 -24 -1 -30 -7 -9 -27 -9 -34 0 -5 6 -5 24 0 30 7
9 27 9 35 0z m110 4 c10 -9 3 -26 -10 -26 -8 0 -15 7 -15 15 0 13 16 20 25 11z
m188 -37 l6 -6 -1 -43 c0 -48 2 -63 11 -68 4 -2 29 -4 29 -2 0 1 4 4 10 7 l9
6 38 0 c22 -1 40 -2 44 -3 7 -3 12 -13 12 -25 0 -28 -20 -35 -55 -20 -29 13
-31 14 -45 8 -9 -4 -11 -5 -28 -22 -23 -23 -24 -27 -24 -79 l0 -43 -6 -6 -6
-6 -26 0 -26 0 -6 6 -6 6 1 21 c0 17 0 23 -4 33 -6 18 -8 20 -16 23 -12 3 -18
2 -32 -4 -23 -12 -38 -7 -38 13 0 13 6 19 19 19 5 0 10 -1 12 -2 2 -2 16 -3
28 -1 11 2 19 12 26 30 l5 16 0 68 -1 68 6 6 6 6 26 0 26 0 6 -6z m879 -5 c7
-8 4 -17 -8 -24 -7 -5 -10 -4 -15 4 -3 5 -3 6 0 12 2 4 4 8 6 9 3 4 13 4 17
-1z m-1009 -29 c11 -7 11 -20 2 -52 -3 -10 -5 -22 -5 -26 0 -21 -26 -23 -26
-2 0 11 -2 24 -5 35 -5 17 -6 33 -2 39 6 10 26 13 36 6z m972 -22 c1 -4 0 -6
-5 -9 l-5 -4 -5 5 -4 4 5 8 c5 7 5 7 9 4 2 -2 4 -6 5 -8z m-1092 -20 c12 -7
14 -33 3 -43 -8 -9 -32 -9 -40 0 -9 8 -9 32 0 41 7 7 27 8 37 2z m1556 -2 c5
-8 1 -16 -8 -16 -9 0 -13 8 -8 16 2 3 5 5 8 5 3 0 6 -2 8 -5z m-357 -27 c5 -6
5 -12 1 -18 -6 -9 -23 -3 -23 9 0 11 15 17 22 9z m47 -59 c5 -3 13 -25 14 -36
0 -5 1 -9 2 -9 0 0 0 -2 -1 -4 -1 -2 -2 -5 -1 -6 1 -1 -3 -5 -6 -5 -1 -1 -7
-1 -13 -2 -8 -1 -11 -1 -12 1 -2 2 -2 2 -2 0 0 -4 -11 -16 -15 -16 -1 0 -4 -1
-6 -1 -3 -1 -5 0 -5 1 0 4 -34 -4 -48 -12 -11 -7 -25 -6 -32 2 -6 5 -7 7 -7
16 0 15 8 23 23 23 5 0 11 -1 12 -3 5 -3 21 -8 28 -8 15 0 25 9 29 29 4 20 10
32 15 34 5 1 21 -1 25 -4z m-208 -20 c3 -5 3 -5 0 -10 -2 -3 -5 -5 -7 -5 -2 0
-5 2 -7 5 -3 5 -3 5 0 10 2 3 5 5 7 5 2 0 5 -2 7 -5z m31 -86 c3 -1 9 -8 14
-14 18 -24 25 -27 52 -28 8 0 17 -1 20 -1 24 -1 25 -39 3 -87 -8 -16 -16 -20
-40 -18 -24 2 -24 2 -35 7 -14 6 -16 9 -16 27 0 25 -4 35 -20 51 -18 17 -23
26 -23 39 0 5 2 13 4 16 6 12 26 16 41 8z m-1050 -28 c2 -2 3 -5 3 -6 -1 0 -1
-2 0 -4 1 -2 2 -5 2 -6 2 -8 12 -31 16 -37 7 -11 6 -13 -4 -17 -16 -6 -25 -2
-25 12 0 15 -10 30 -25 36 -13 6 -16 10 -12 16 3 5 11 8 24 10 13 1 16 1 21
-4z m76 -73 c8 -7 2 -19 -8 -19 -4 0 -18 11 -18 15 0 2 16 8 20 7 2 0 4 -2 6
-3z m236 0 c5 -6 5 -12 0 -18 -7 -8 -22 -2 -22 9 0 11 15 17 22 9z m756 -85
c9 -8 2 -18 -30 -40 -5 -4 -11 -7 -15 -7 -12 0 -19 12 -13 22 3 6 33 25 46 29
5 1 7 0 12 -4z m-1025 -107 c4 -6 4 -10 -2 -16 -7 -10 -36 -27 -45 -28 -19 -2
-26 4 -26 21 0 18 3 20 44 26 16 2 26 1 29 -3z m1573 -3 c10 -5 14 -25 8 -39
-2 -5 -6 -8 -25 -17 -39 -19 -44 -20 -52 -13 -8 8 -5 21 7 34 2 3 9 11 14 19
14 20 29 25 48 16z m-439 -90 c3 -5 3 -6 0 -12 -4 -8 -7 -7 -13 1 -4 6 -4 6
-1 11 5 6 9 6 14 0z m-599 -10 l-5 -5 -4 4 -5 5 4 4 5 5 4 -4 5 -5 -4 -4z"/>
<path d="M1651 3643 c-4 -1 -9 -6 -13 -11 -4 -5 -8 -9 -8 -10 -1 0 -2 -2 -2
-3 0 -1 -1 -3 -2 -3 -4 -2 -30 -40 -34 -50 -2 -7 -10 -16 -22 -29 -13 -14 -15
-24 -6 -45 4 -10 6 -20 7 -29 0 -8 2 -16 3 -19 2 -5 2 -5 13 -4 14 2 27 7 27
11 0 1 2 4 4 6 6 8 13 11 24 11 9 0 11 -1 16 -6 5 -5 6 -7 6 -17 0 -11 -1 -12
-7 -18 -4 -4 -11 -9 -15 -11 -4 -2 -12 -8 -18 -13 -12 -11 -12 -11 -9 -29 2
-8 11 -18 21 -19 3 -1 21 -1 39 0 18 0 41 1 51 2 20 0 32 4 41 12 14 13 27 14
46 4 11 -6 15 -7 23 -7 6 1 12 2 13 3 3 2 8 23 7 26 -2 6 0 16 4 20 4 4 7 5
16 5 7 0 12 -1 12 -2 0 -2 4 -2 11 -2 18 2 19 3 18 14 -3 17 -16 32 -64 72 -8
7 -17 15 -21 19 -11 10 -56 47 -66 55 -5 4 -11 9 -14 11 -16 14 -23 20 -46 38
-24 20 -25 20 -37 20 -7 1 -14 0 -18 -2z m28 -86 c5 -8 1 -16 -8 -16 -9 0 -13
8 -8 16 2 3 5 5 8 5 3 0 6 -2 8 -5z m60 -118 c3 -3 3 -3 0 -6 -3 -3 -3 -3 -6
0 -3 2 -3 3 -1 6 4 4 4 4 7 0z"/>
</g>
</svg>
