<?xml version="1.0" standalone="no"?>
<!DOCTYPE svg PUBLIC "-//W3C//DTD SVG 20010904//EN"
 "http://www.w3.org/TR/2001/REC-SVG-20010904/DTD/svg10.dtd">
<svg version="1.0" xmlns="http://www.w3.org/2000/svg"
 width="1100.000000pt" height="2850.000000pt" viewBox="0 0 1100.000000 2850.000000"
 preserveAspectRatio="xMidYMid meet">
<metadata>
Created by potrace 1.15, written by Peter Selinger 2001-2017
</metadata>
<g transform="translate(0.000000,2850.000000) scale(0.500000,-0.500000)"
fill="#000000" stroke="none">
<path d="M1245 3825 c-1 0 -11 -4 -23 -7 -26 -8 -40 -15 -47 -21 -11 -11 -11
-7 -11 -160 0 -154 -1 -145 13 -169 12 -23 13 -40 3 -51 -11 -12 -37 -10 -53
5 -16 15 -18 16 -28 16 -17 0 -23 -6 -32 -31 -6 -16 -10 -19 -31 -20 -9 -1
-23 -3 -31 -5 -29 -9 -30 -9 -44 -4 -16 7 -16 43 1 50 3 1 16 2 30 3 28 0 31
2 31 20 0 20 -2 21 -42 35 -29 11 -39 10 -59 -3 -13 -9 -23 -12 -34 -9 -12 3
-15 7 -21 29 -7 24 -9 29 -22 42 -8 8 -103 86 -140 114 -3 2 -7 5 -9 7 -2 2
-6 5 -10 8 -4 3 -8 6 -10 8 -25 21 -30 24 -43 24 -12 0 -20 -4 -30 -14 -20
-22 -24 -30 -26 -58 -2 -22 -7 -28 -25 -28 -5 0 -45 0 -90 1 -56 1 -83 1 -88
-1 -10 -3 -19 -11 -25 -24 -5 -10 -10 -13 -17 -11 -4 1 -5 4 -12 21 l-4 10
-13 0 c-14 0 -18 -2 -27 -15 -11 -17 -17 -34 -17 -57 -1 -28 -3 -34 -17 -39
-6 -3 -19 -2 -26 0 -17 7 -20 30 -7 52 6 10 9 26 10 43 0 8 2 17 4 21 4 9 3
29 -3 37 -3 5 -19 14 -44 24 -8 3 -18 8 -22 10 -20 10 -40 16 -48 15 -13 -2
-19 -7 -24 -18 -4 -9 -4 -12 -4 -46 1 -47 4 -52 33 -66 17 -8 20 -11 23 -22 2
-10 0 -23 -6 -30 -1 -2 -9 -6 -17 -10 -15 -7 -23 -14 -28 -24 -4 -6 -4 -28 -5
-398 0 -453 -3 -401 22 -425 13 -12 14 -13 14 -21 0 -8 -1 -9 -14 -21 -24 -23
-22 3 -22 -260 0 -203 0 -228 3 -235 4 -9 14 -21 18 -21 2 0 3 -1 3 -2 0 -5
68 -4 94 2 46 9 85 28 113 54 10 9 14 17 14 28 0 16 -13 25 -36 27 -6 1 -13 2
-15 3 -10 5 -13 20 -9 37 2 7 4 13 4 15 2 9 12 34 15 37 2 2 7 5 11 7 3 1 15
5 27 9 24 8 32 9 55 3 15 -4 22 -4 77 -4 l61 1 6 -6 c5 -6 6 -8 6 -18 0 -7 0
-13 1 -14 1 -3 1 -27 0 -28 -3 -2 -2 -34 1 -42 4 -9 14 -21 18 -21 2 0 3 -1 3
-2 0 -2 10 -3 39 -3 48 0 83 10 138 37 43 22 54 38 55 82 0 24 -2 33 -11 41
-7 6 -23 13 -33 14 -13 1 -20 7 -24 20 -2 8 -1 11 3 27 3 11 6 26 7 35 3 21 5
23 21 29 23 8 33 17 33 29 0 4 3 9 8 16 4 5 8 8 8 7 0 -4 14 -4 16 0 0 1 2 -1
4 -6 2 -4 5 -9 7 -9 1 -1 2 -18 1 -71 l0 -69 7 -21 c9 -26 9 -32 0 -58 l-7
-21 0 -91 c0 -105 0 -105 16 -123 9 -9 11 -16 8 -28 -5 -24 -6 -37 -4 -47 2
-13 1 -17 -7 -34 -11 -23 -14 -33 -11 -44 3 -9 14 -24 19 -24 2 0 3 -1 3 -2 0
-2 1 -2 25 -3 19 -1 20 -1 31 4 8 4 13 9 17 16 4 5 9 11 12 13 6 4 7 4 13 1 3
-2 8 -6 10 -9 5 -7 15 -13 26 -16 21 -5 91 24 127 52 18 14 27 28 33 48 2 7 2
72 2 267 l-1 258 6 6 6 6 99 0 99 0 9 5 c10 6 15 12 22 26 4 7 4 11 3 24 0 8
-1 16 -2 18 0 2 -1 7 -3 11 -3 10 0 24 6 29 5 6 18 8 29 6 16 -4 22 -18 15
-40 -7 -22 -7 -38 -2 -48 12 -24 23 -31 48 -31 16 0 17 0 23 -6 l6 -6 0 -79
c-1 -85 -1 -87 10 -99 4 -5 27 -13 35 -13 10 0 15 -7 23 -30 10 -31 11 -41 5
-47 -8 -9 -27 -5 -32 7 -2 5 -2 5 -19 4 -9 -1 -18 -2 -19 -3 -2 -2 -3 -10 -4
-20 0 -15 -1 -19 -5 -23 -5 -5 -6 -5 -31 -5 -27 0 -26 0 -54 -15 -6 -3 -12 -6
-13 -6 -4 0 -18 8 -21 11 -5 6 -20 14 -31 16 -38 9 -65 -8 -65 -41 0 -30 15
-46 48 -54 29 -7 64 -21 74 -29 13 -13 19 -20 26 -31 7 -13 16 -38 16 -45 0
-4 9 -26 12 -30 2 -2 7 -7 11 -12 13 -13 15 -17 15 -26 0 -8 -6 -23 -10 -24
-1 -1 -1 -7 0 -15 1 -27 8 -29 82 -19 53 7 103 21 143 40 19 9 21 11 23 17 5
16 0 34 -10 39 -9 5 -37 1 -46 -7 -2 -1 -8 -3 -14 -3 -9 0 -11 1 -16 7 -6 5
-7 7 -6 19 0 8 0 18 1 22 0 4 1 14 2 22 2 25 11 28 51 17 24 -7 36 -12 39 -18
7 -12 9 -18 13 -29 7 -16 13 -20 32 -20 8 0 15 1 15 1 3 5 14 24 19 34 14 31
17 46 11 75 -3 17 -3 19 5 41 4 8 7 17 8 20 0 3 1 83 1 178 l0 173 6 6 6 6 25
0 c23 0 26 1 35 5 6 3 12 7 13 9 7 7 20 11 27 10 18 -2 33 -3 40 -2 13 2 27
23 27 40 0 10 -6 27 -12 33 -2 2 -6 7 -10 12 -10 13 -21 27 -31 38 -5 5 -11
12 -14 16 -5 6 -12 14 -40 45 -32 35 -52 55 -56 55 -3 0 -6 3 -9 10 l-5 9 -1
230 0 230 5 8 c4 6 9 10 21 16 26 13 53 33 59 45 5 10 4 26 -2 35 -3 4 -6 8
-7 9 -2 0 -13 8 -24 17 -3 4 -8 7 -10 8 -2 1 -3 2 -4 3 -3 5 -41 32 -49 36 -6
2 -14 6 -18 8 -10 5 -20 14 -30 28 -5 6 -12 14 -17 17 -5 3 -12 9 -16 12 -4 4
-9 7 -10 8 -2 1 -4 2 -4 3 0 3 -16 10 -26 11 -14 1 -29 -9 -37 -27 -5 -13 -12
-18 -21 -16 -4 1 -8 3 -9 5 -4 5 -4 16 0 19 2 1 3 3 3 4 0 1 4 6 10 11 14 15
16 31 6 42 -5 4 -16 6 -31 5 -3 0 -12 -10 -55 -60 -13 -15 -28 -32 -33 -38 -6
-6 -12 -13 -14 -16 -4 -6 -17 -13 -24 -14 -2 -1 -7 1 -10 4 -4 3 -9 4 -17 4
-10 1 -10 1 -3 1 8 1 9 2 10 8 1 4 2 8 3 8 1 1 2 24 2 53 0 52 0 52 -5 63 -5
10 -6 11 -19 17 -7 4 -15 7 -18 7 -14 1 -21 8 -24 21 -4 20 5 35 24 37 10 1
28 11 41 24 7 6 14 12 15 13 11 2 28 16 42 34 4 4 10 17 15 29 4 14 -3 37 -13
40 -2 1 -4 2 -4 3 0 1 -4 3 -8 4 -12 4 -10 3 -34 5 -12 1 -23 2 -25 2 -2 0
-12 1 -21 2 -9 1 -26 2 -36 3 -10 1 -26 2 -34 3 -8 1 -18 2 -21 2 -3 0 -13 1
-22 2 -21 2 -32 3 -57 5 -21 2 -24 2 -27 1z m127 -93 c5 -5 5 -11 0 -16 -10
-10 -27 5 -16 16 4 4 12 4 16 0z m-12 -117 c5 -5 6 -7 6 -17 0 -10 -1 -12 -6
-17 -9 -8 -24 -8 -32 1 -9 8 -9 23 -1 32 9 9 24 9 33 1z m-711 -27 c10 -9 3
-26 -10 -26 -8 0 -15 7 -15 15 0 13 16 20 25 11z m-192 -71 c3 -3 3 -3 0 -6
-3 -3 -3 -3 -6 0 -3 2 -3 3 -1 6 4 4 4 4 7 0z m831 -17 c5 -5 6 -7 6 -17 0
-10 -1 -12 -6 -17 -5 -5 -7 -6 -17 -6 -10 0 -12 1 -17 6 -5 5 -6 7 -6 17 0 10
1 12 6 17 5 5 7 6 17 6 10 0 12 -1 17 -6z m-471 -30 c2 -4 3 -12 3 -59 0 -41
1 -55 3 -61 3 -9 15 -25 21 -30 13 -9 13 -37 0 -46 -6 -5 -18 -21 -21 -30 -2
-7 -3 -42 -2 -248 0 -133 0 -251 0 -263 0 -12 0 -37 0 -55 l0 -33 -6 -5 c-9
-8 -19 -8 -36 -1 -11 5 -13 7 -16 14 -5 13 -3 25 6 35 7 8 11 23 11 46 0 20
-1 27 -6 41 -1 2 -3 8 -5 13 -6 15 -7 22 -5 33 4 18 2 29 -6 36 -12 10 -22 8
-48 -10 -19 -13 -23 -15 -33 -14 -12 1 -17 4 -27 14 -8 8 -24 18 -32 20 -11 2
-20 6 -22 9 -6 10 1 22 13 22 3 0 7 -1 8 -2 3 -3 26 -8 34 -8 7 0 10 1 18 11
16 16 22 29 24 46 2 18 -8 32 -34 44 -16 8 -20 13 -20 28 0 17 6 24 25 29 18
5 20 4 33 -25 7 -14 17 -25 32 -33 6 -4 11 -7 11 -8 0 -2 25 1 30 4 8 6 9 12
9 71 l0 56 -18 -1 c-17 0 -19 0 -19 3 0 2 -1 0 -2 -5 -5 -26 -8 -30 -28 -34
-15 -3 -19 -1 -23 11 -2 6 -5 14 -7 19 -2 5 -4 9 -4 10 0 3 -10 17 -16 24 -10
11 -10 24 -2 47 8 23 10 26 17 29 5 3 6 2 11 -4 3 -4 6 -8 6 -10 0 -5 8 -18
14 -22 4 -2 13 -5 20 -7 13 -3 13 -3 25 2 6 3 14 7 16 10 11 11 11 9 11 144
l0 126 5 8 c4 6 7 10 14 12 5 2 9 5 9 6 0 2 4 -3 9 -9z m-292 2 c0 0 1 -3 4
-5 7 -9 8 -25 1 -34 -4 -5 -18 -12 -18 -9 0 1 -2 3 -4 4 -22 10 -12 46 11 45
4 0 7 0 6 -1z m-112 -9 c3 -3 5 -6 5 -7 0 -4 15 -35 19 -39 14 -14 16 -31 5
-41 -5 -6 -7 -7 -16 -7 -13 0 -21 7 -23 20 -2 12 -7 27 -15 42 -11 22 -6 37
12 37 6 0 9 -1 13 -5z m1293 -20 c6 -5 6 -18 0 -24 -6 -7 -19 -7 -25 -1 -7 7
-7 22 0 27 6 5 18 4 25 -2z m-272 -4 c2 -4 2 -6 0 -10 -3 -6 -8 -6 -13 0 -3 5
-3 5 0 10 5 6 10 6 13 0z m-67 -71 c11 -10 3 -28 -11 -28 -9 0 -16 6 -16 16 0
14 17 22 27 12z m451 -17 l-5 -5 -4 4 -5 5 4 4 5 5 4 -4 5 -5 -4 -4z m-1612
-11 c10 -10 -2 -28 -25 -40 -11 -5 -19 -5 -24 0 -13 12 1 32 28 41 12 3 17 3
21 -1z m952 -41 l7 -6 0 -125 0 -125 -6 -6 -7 -7 -6 7 -7 6 0 125 0 125 6 6
c3 4 6 7 6 7 0 0 4 -3 7 -7z m339 0 c6 -6 6 -7 5 -19 0 -8 1 -16 3 -22 3 -10
6 -14 19 -32 9 -12 9 -24 0 -36 -23 -30 -22 -29 -22 -94 l1 -53 -6 -6 c-4 -3
-7 -6 -8 -6 -1 0 -4 3 -8 6 l-6 6 1 37 c0 29 -1 40 -3 47 -3 11 -17 38 -19 39
-1 0 -2 4 -2 9 0 9 4 14 13 19 8 4 11 21 11 62 l-1 37 6 6 c7 8 8 8 16 0z
m-1148 -29 c0 -6 -6 -15 -9 -14 -4 1 -8 5 -8 8 0 1 -1 2 -2 2 0 0 -1 2 -1 4 0
2 1 4 1 4 1 0 2 1 2 2 0 3 4 7 8 8 3 1 9 -8 9 -14z m-93 -23 l-5 -5 -4 4 -5 5
4 4 5 5 4 -4 5 -5 -4 -4z m1156 -14 c7 -3 11 -9 15 -21 2 -6 4 -12 5 -13 1 -1
1 -5 0 -8 -2 -5 -4 -7 -10 -9 -5 -1 -11 -3 -13 -4 -10 -4 -27 0 -33 7 -9 10
-9 32 0 42 7 8 24 11 36 6z m-456 -55 c5 -5 5 -15 0 -20 -9 -9 -24 -2 -24 10
0 8 6 14 14 14 3 0 8 -2 10 -4z m-813 -38 c1 0 5 -7 9 -15 4 -9 11 -18 18 -24
12 -12 15 -21 12 -35 -2 -11 -7 -16 -18 -18 -25 -6 -41 12 -33 37 3 9 3 16 2
33 0 12 0 22 0 23 2 1 8 1 10 -1z m289 -69 c5 0 18 -1 29 -2 25 -2 29 -5 29
-20 0 -13 -4 -18 -23 -21 -30 -5 -36 -11 -36 -34 0 -8 1 -15 3 -16 4 -5 3 -22
-3 -27 -7 -7 -23 -7 -30 0 -5 5 -5 6 -4 17 1 6 1 19 2 29 0 16 -1 19 -6 28
-14 25 -1 52 25 48 3 -1 9 -1 14 -2z m484 -81 c5 -5 5 -11 0 -16 -10 -10 -27
5 -16 16 4 4 12 4 16 0z m-667 -36 c11 -10 3 -28 -11 -28 -9 0 -16 6 -16 16 0
14 17 22 27 12z m1322 -21 c3 -2 8 -10 12 -18 4 -9 9 -17 11 -19 2 -2 4 -5 4
-6 0 -1 1 -2 2 -1 1 0 1 -1 0 -4 0 -3 -2 -5 -4 -5 -2 0 -5 -1 -6 -3 -3 -4 -13
1 -17 9 -1 3 -4 9 -8 14 -3 4 -7 12 -8 17 -3 8 -3 10 0 14 4 6 7 6 14 2z m94
-3 c2 0 5 -2 8 -4 11 -10 10 -35 -1 -44 -8 -7 -24 -5 -38 5 -6 4 -11 8 -11 10
0 1 3 8 7 15 9 17 14 20 35 18z m-1501 -9 c21 -9 20 -45 -2 -54 -10 -5 -28 -1
-34 6 -9 10 -9 32 0 42 7 8 24 11 36 6z m994 -18 l7 -6 0 -41 c-1 -46 1 -54
13 -68 14 -16 16 -20 16 -29 0 -9 -2 -13 -16 -29 -11 -13 -14 -23 -13 -56 l0
-29 -7 -6 -6 -7 -5 6 c-4 4 -6 5 -17 5 -13 0 -22 -2 -26 -4 -1 -1 -2 2 -2 8
l0 9 13 0 c14 0 20 4 22 13 1 3 2 56 2 117 l0 111 6 6 c3 4 6 7 6 7 0 0 4 -3
7 -7z m339 0 l6 -6 -1 -62 c0 -66 0 -70 9 -80 5 -6 16 -13 19 -13 3 0 10 -8
10 -12 0 -4 -7 -12 -10 -12 -4 0 -12 -7 -14 -12 -3 -8 -1 -25 4 -33 3 -5 4
-11 4 -16 0 -14 -5 -18 -25 -22 -12 -2 -12 -2 -18 4 l-6 6 0 126 0 126 6 6 c7
8 8 8 16 0z m-115 -12 c3 -3 4 -7 4 -14 0 -13 -6 -19 -19 -19 -13 0 -19 6 -19
19 0 7 1 11 4 14 7 8 23 8 30 0z m-311 -8 c12 -12 3 -31 -13 -31 -11 0 -18 7
-18 18 0 11 7 18 18 18 6 0 9 -1 13 -5z m-514 -55 c6 -3 19 -8 27 -12 18 -7
23 -12 26 -23 5 -21 -8 -39 -28 -38 -8 0 -18 3 -18 5 0 1 -4 1 -8 0 -4 0 -8
-1 -8 -2 0 -1 -2 0 -4 2 -4 4 -25 15 -28 14 -2 -1 -7 3 -11 7 -9 8 -9 9 -9 20
0 11 0 12 8 19 16 15 33 17 53 8z m-178 -10 c10 -9 3 -26 -10 -26 -4 0 -8 1
-9 4 -2 2 -4 3 -6 2 -1 -1 -4 -1 -6 -1 -1 1 -3 0 -4 -1 -1 -2 -2 0 -3 4 -2 9
1 22 3 18 1 -1 3 -2 4 -1 2 0 5 0 6 -1 2 -1 4 0 6 2 3 5 13 5 19 0z m1398
-101 c12 -12 3 -31 -13 -31 -11 0 -18 7 -18 18 0 11 7 18 18 18 6 0 9 -1 13
-5z m-1339 -5 c5 -5 5 -15 0 -20 -9 -9 -24 -2 -24 10 0 8 6 14 14 14 3 0 8 -2
10 -4z m94 -15 c9 -5 14 -14 14 -27 0 -12 -4 -21 -13 -26 -8 -5 -14 -5 -22 0
-9 7 -13 14 -13 26 0 12 4 19 13 26 7 5 13 5 21 1z m407 -21 c4 -6 4 -24 -1
-30 -7 -9 -27 -9 -34 0 -5 6 -5 24 0 30 7 9 27 9 35 0z m157 -13 c6 -5 6 -25
0 -30 -13 -9 -30 0 -30 15 0 15 17 24 30 15z m578 -5 c1 0 5 -3 8 -6 5 -5 6
-7 6 -18 0 -11 -1 -13 -6 -18 -6 -6 -7 -6 -18 -6 -11 0 -12 0 -18 6 -5 5 -6 7
-6 17 0 14 3 20 12 24 5 2 8 2 22 1z m-830 -71 c6 -4 34 -30 34 -32 0 -1 2 -3
4 -5 3 -4 7 -16 7 -24 -1 -11 -1 -14 -6 -17 -4 -2 -5 -2 -11 1 -4 2 -8 6 -10
10 -2 4 -4 6 -4 5 0 -2 -3 -2 -10 0 -12 3 -20 6 -20 9 0 1 -2 1 -4 0 -3 0 -4
0 -3 2 0 1 0 2 -1 2 -1 1 -2 2 -2 4 -1 2 -2 4 -3 4 -1 1 -1 2 1 2 1 0 0 2 -3
4 -4 4 -5 6 -5 16 0 10 1 12 6 16 7 8 22 9 30 3z m-86 -26 c2 -2 6 -9 8 -15 3
-10 4 -11 1 -16 -2 -3 -5 -6 -7 -6 -1 0 -4 -1 -6 -1 -5 0 -22 9 -24 13 -4 7
-2 18 3 23 6 6 18 7 25 2z m-236 -55 c0 -2 -2 -8 -5 -12 -3 -4 -5 -6 -5 -4 0
1 -1 2 -2 1 -2 -1 -19 12 -19 15 0 3 17 16 19 15 1 -1 2 0 2 1 0 2 2 0 5 -4 3
-4 5 -10 5 -12z m-65 -60 c5 -5 6 -7 6 -16 0 -15 -8 -23 -23 -23 -9 0 -11 1
-16 7 -9 8 -9 23 -1 32 9 9 24 9 34 0z m1110 -24 c10 -9 3 -26 -10 -26 -8 0
-15 7 -15 15 0 13 16 20 25 11z m211 -10 c5 -5 5 -15 0 -20 -9 -9 -24 -2 -24
10 0 8 6 14 14 14 3 0 8 -2 10 -4z m-710 -73 c24 -10 28 -13 28 -27 0 -20 -13
-25 -45 -15 -22 6 -34 12 -37 17 -3 6 -2 23 2 28 7 9 21 9 52 -3z m616 -33 c2
-3 3 -7 3 -9 1 -15 5 -34 8 -44 5 -12 3 -31 -2 -37 -5 -6 -12 -8 -22 -9 -28
-2 -39 27 -21 54 6 9 9 16 15 32 6 17 13 21 19 13z m-1080 -28 c5 -5 6 -7 6
-17 0 -10 -1 -12 -6 -17 -5 -5 -7 -6 -17 -6 -10 0 -12 1 -17 6 -5 5 -6 7 -6
17 0 10 1 12 6 17 5 5 7 6 17 6 10 0 12 -1 17 -6z m311 -4 c11 -10 3 -28 -11
-28 -9 0 -16 6 -16 16 0 14 17 22 27 12z m866 -18 c4 -6 4 -24 -1 -30 -7 -9
-27 -9 -34 0 -5 6 -5 24 0 30 7 9 27 9 35 0z m-782 -63 c5 -4 10 -10 11 -13 3
-5 2 -5 38 -6 11 0 13 -1 18 -6 5 -5 6 -7 6 -17 0 -10 -1 -12 -6 -17 -5 -5 -7
-6 -16 -6 -7 0 -13 1 -15 3 -4 2 -24 30 -24 33 -1 5 -4 10 -5 9 -3 -4 -20 0
-25 5 -6 5 -6 11 -2 18 5 6 10 5 20 -3z"/>
</g>
</svg>
