<?xml version="1.0" standalone="no"?>
<!DOCTYPE svg PUBLIC "-//W3C//DTD SVG 20010904//EN"
 "http://www.w3.org/TR/2001/REC-SVG-20010904/DTD/svg10.dtd">
<svg version="1.0" xmlns="http://www.w3.org/2000/svg"
 width="1100.000000pt" height="2850.000000pt" viewBox="0 0 1100.000000 2850.000000"
 preserveAspectRatio="xMidYMid meet">
<metadata>
Created by potrace 1.15, written by Peter Selinger 2001-2017
</metadata>
<g transform="translate(0.000000,2850.000000) scale(0.500000,-0.500000)"
fill="#000000" stroke="none">
<path d="M237 3806 c-12 -2 -25 -8 -29 -13 -4 -4 -12 -27 -12 -33 0 -5 9 -27
13 -31 1 -2 6 -7 11 -12 10 -9 13 -12 23 -24 8 -9 15 -12 31 -14 8 -1 9 0 11
6 4 8 3 35 -2 42 -5 8 -4 19 2 25 4 4 6 4 14 4 12 -2 48 -19 54 -27 8 -9 5
-32 -6 -43 -3 -4 -12 -24 -16 -37 -3 -8 -7 -15 -15 -24 -24 -28 -26 -47 -9
-84 9 -20 18 -29 36 -38 16 -9 21 -12 21 -17 0 -2 1 -8 2 -12 1 -5 2 -11 3
-14 2 -11 18 -23 35 -26 6 -1 13 -2 15 -3 2 0 9 -1 15 -2 14 -2 19 -7 21 -20
2 -17 11 -31 21 -37 8 -4 11 -4 25 -3 16 1 44 8 57 15 4 2 8 4 9 4 2 0 3 1 3
2 0 1 2 2 4 3 3 0 4 2 4 13 0 24 -1 25 -35 24 -15 0 -22 1 -29 3 -22 8 -24 30
-5 51 8 9 9 10 14 15 3 4 6 13 10 29 0 2 1 10 1 18 l0 15 11 11 11 11 0 13 c0
15 -2 18 -19 27 -6 3 -12 7 -14 10 -4 6 -3 22 3 43 6 22 6 31 -2 46 -8 16 -7
15 -21 19 l-13 3 -6 -6 c-4 -3 -7 -8 -7 -10 -1 -21 -7 -30 -19 -30 -15 0 -21
15 -11 30 4 6 5 10 5 20 -1 21 -2 22 -32 31 -56 16 -160 31 -183 27z"/>
<path d="M1599 3796 c-10 -1 -11 -2 -19 -20 -3 -6 -5 -10 -7 -10 -1 0 -6 -2
-11 -5 -5 -3 -11 -6 -13 -7 -5 -2 -5 -3 -5 -20 0 -10 1 -18 2 -18 1 0 5 -3 9
-7 6 -6 7 -9 7 -16 0 -5 -1 -10 -3 -11 -2 -1 -3 -3 -3 -5 0 -1 -2 -3 -3 -4 -5
-4 -12 0 -26 13 l-11 10 -15 0 c-14 0 -15 0 -23 -8 -12 -12 -22 -14 -66 -14
-39 0 -46 -1 -54 -9 -6 -5 -11 -23 -10 -38 0 -9 -1 -12 -5 -16 -6 -6 -21 -7
-28 -2 -6 4 -9 16 -7 22 2 4 -2 19 -7 29 -4 7 -15 13 -26 14 -12 1 -16 -4 -16
-22 0 -10 -1 -15 -3 -16 -3 -2 -2 -2 1 -2 1 0 4 -2 5 -5 3 -7 0 -16 -10 -30
-7 -9 -7 -11 -6 -20 2 -20 18 -30 44 -28 8 1 24 1 34 1 10 -1 44 -1 74 -1 l55
0 6 -6 c6 -6 6 -6 6 -26 l0 -21 11 -20 c13 -26 13 -32 1 -55 -10 -19 -12 -32
-7 -48 1 -4 3 -18 3 -31 0 -21 1 -24 7 -38 10 -21 9 -29 -3 -52 -15 -29 -12
-40 12 -51 7 -3 15 -6 19 -7 4 -1 12 -3 18 -5 6 -2 18 -3 26 -3 14 0 15 -1 19
-5 3 -5 3 -5 0 -10 -2 -3 -5 -5 -6 -5 -6 0 -35 -11 -43 -16 -5 -3 -11 -6 -14
-6 -2 0 -11 -3 -19 -7 -14 -7 -15 -8 -20 -18 l-5 -11 0 -52 1 -51 -6 -6 -6 -6
-58 0 c-56 0 -58 0 -66 -5 -5 -2 -10 -6 -13 -8 -10 -9 -33 -26 -53 -38 -9 -5
-23 -6 -30 -1 -2 1 -7 7 -10 12 -7 12 -19 25 -22 25 -2 0 -3 1 -3 2 0 2 -14 7
-32 11 -22 5 -86 4 -96 -1 -4 -2 -13 -6 -20 -9 l-13 -5 -10 4 c-18 8 -35 17
-42 22 -16 14 -13 39 9 65 10 12 12 20 7 35 -4 10 -5 11 -16 17 -6 3 -14 9
-18 12 -6 6 -7 7 -7 18 0 25 20 31 48 14 9 -5 17 -9 18 -9 1 0 2 -1 2 -1 0 -3
15 -2 19 1 3 1 5 3 6 5 2 7 4 27 2 29 -2 2 -3 7 -5 13 -3 13 0 25 11 35 4 4
12 12 18 17 5 5 13 10 17 12 7 3 8 3 15 0 4 -2 7 -4 7 -5 0 -6 15 -22 24 -27
9 -5 54 -7 67 -3 l9 3 0 16 c0 15 0 17 4 17 1 0 0 1 -4 2 -11 3 -30 16 -34 24
-2 4 -4 12 -5 19 -1 17 -8 31 -18 36 -7 5 -11 5 -42 5 -32 0 -35 0 -55 -6 -25
-7 -31 -7 -36 -2 -6 6 -5 15 2 22 4 3 8 6 9 6 5 0 20 14 24 21 4 8 4 11 4 76
l0 68 6 6 6 6 34 -1 c33 0 34 0 44 5 13 6 19 15 27 40 8 23 13 35 18 37 3 2 3
4 1 15 -5 27 -4 27 -82 27 -68 0 -70 0 -82 -11 -4 -3 -9 -10 -12 -15 -5 -11
-9 -13 -17 -14 -11 -1 -16 0 -21 5 -5 5 -6 6 -4 21 0 9 0 20 0 26 l-2 10 -15
0 c-9 0 -16 -1 -15 -2 0 0 -3 -5 -6 -10 -4 -7 -6 -12 -7 -24 -2 -20 -9 -33
-26 -47 -16 -14 -15 -14 -26 -24 -23 -21 -37 -23 -63 -10 -9 5 -18 9 -21 10
-6 2 -11 12 -8 17 3 4 6 5 27 12 11 4 16 6 22 13 14 15 21 34 17 47 -1 2 -3 8
-5 15 -5 17 -8 19 -25 19 -8 0 -14 -1 -14 -2 0 -1 -1 -2 -1 -2 -1 1 -6 -2 -10
-5 -21 -14 -48 0 -47 23 0 9 0 10 15 21 4 4 5 6 5 18 1 18 -1 20 -15 24 -22 6
-41 -4 -47 -22 -1 -6 -2 -26 -2 -60 0 -47 0 -52 4 -61 2 -6 5 -11 6 -12 2 -1
12 -22 12 -26 0 -4 -10 -25 -12 -26 -3 -2 -10 -22 -10 -31 0 -6 -1 -10 -5 -15
-3 -3 -5 -6 -5 -7 0 -1 -2 -2 -5 -2 -8 -1 -21 -12 -27 -25 -3 -7 -7 -12 -8
-12 -1 0 -2 -1 -2 -3 0 -2 -1 -3 -3 -3 -1 0 -3 -2 -4 -3 0 -3 -1 -2 -1 1 0 3
2 11 3 18 2 9 4 22 4 41 0 31 -3 44 -13 67 -7 15 -10 17 -26 16 -15 -1 -17 -3
-17 -28 0 -19 -2 -23 -16 -39 -5 -5 -9 -11 -9 -12 0 -1 -6 -7 -13 -15 -15 -15
-17 -19 -17 -29 0 -15 2 -17 18 -24 8 -4 16 -8 16 -8 1 0 5 -3 8 -6 10 -9 16
-11 33 -11 8 0 15 1 14 2 0 1 1 3 3 5 4 4 4 3 4 -1 0 -2 -1 -4 -2 -4 -1 0 -1
-1 -1 -3 1 -2 0 -4 -1 -6 -1 -2 -2 -3 -1 -3 1 0 0 -3 -2 -6 -2 -3 -3 -7 -3 -9
0 -2 -3 -10 -7 -17 -6 -13 -7 -15 -5 -26 1 -6 3 -11 4 -12 1 0 2 -1 1 -2 0 -1
5 -2 13 -2 13 0 14 0 38 13 14 7 28 14 32 17 55 32 84 33 92 5 3 -11 0 -24 -7
-31 -4 -4 -34 -20 -39 -20 -3 0 -20 -10 -22 -13 -1 -1 -5 -1 -11 1 -6 1 -11 3
-13 3 -2 0 -4 1 -5 1 -1 0 -7 0 -14 0 -10 0 -12 -1 -12 -4 -1 -2 -2 -4 -3 -4
-1 0 -1 -2 -1 -3 -1 -10 -7 -21 -12 -22 -2 -1 -5 -3 -7 -4 -3 -4 -30 -4 -36
-1 -12 6 -41 -1 -46 -11 -1 -2 -4 -9 -7 -15 -2 -6 -8 -18 -12 -27 -15 -32 -17
-36 -18 -42 -1 -8 2 -19 7 -25 3 -4 21 -10 30 -10 11 0 17 -24 8 -33 -9 -8
-22 -7 -33 2 -7 7 -8 7 -22 7 -14 0 -23 -3 -23 -8 0 -1 -3 -9 -7 -18 -4 -8 -9
-18 -10 -22 -2 -5 -4 -8 -5 -8 -5 0 -9 8 -11 24 -4 31 -18 65 -31 73 -12 8
-27 11 -43 8 -7 -1 -19 -2 -26 -1 -21 2 -25 11 -17 35 5 15 5 31 -1 40 -6 8
-45 28 -82 40 -57 19 -94 25 -106 16 -8 -6 -12 -23 -8 -30 2 -3 3 -7 3 -10 0
-5 -7 -19 -10 -19 -4 0 -7 -30 -3 -35 3 -4 14 -6 32 -7 23 0 29 -6 29 -26 0
-10 -1 -13 -12 -27 -5 -6 -10 -16 -13 -27 -7 -23 -7 -22 -20 -30 -20 -12 -25
-19 -25 -34 0 -12 19 -56 30 -68 4 -4 12 -17 18 -28 14 -29 18 -32 42 -41 17
-7 21 -7 42 -4 18 3 20 3 34 -1 26 -7 35 -7 51 -1 16 6 30 13 43 22 15 10 21
12 27 8 2 -2 3 -3 3 -3 -1 0 0 -3 1 -7 2 -4 3 -8 2 -9 -1 -2 13 -11 19 -11 13
-1 14 -1 18 -5 12 -12 -6 -32 -18 -21 -2 2 -9 4 -19 4 -22 1 -27 -1 -34 -18
-8 -20 -9 -26 -6 -45 1 -10 -2 -22 -8 -27 -9 -7 -12 -10 -17 -13 -12 -8 -21
-20 -32 -44 -7 -14 -16 -33 -21 -43 -5 -10 -9 -20 -9 -21 0 -1 -1 -2 -2 -2 -1
0 -2 -2 -1 -4 0 -3 1 -8 2 -13 3 -21 25 -30 43 -17 7 5 13 15 16 29 3 13 7 17
25 23 8 2 20 7 27 10 24 12 40 7 40 -13 0 -11 -6 -19 -14 -19 -3 0 -8 -1 -10
-2 -1 -1 -6 -3 -10 -4 -9 -4 -19 -13 -24 -22 -4 -7 -14 -15 -26 -21 -7 -3 -20
-14 -26 -23 -12 -18 -43 -35 -67 -37 -22 -2 -37 -8 -44 -19 -4 -4 -8 -9 -12
-12 -12 -10 -18 -28 -17 -50 0 -14 -5 -20 -17 -20 -11 0 -18 6 -17 17 1 11 -2
29 -4 28 -1 -1 -2 0 -2 1 0 3 -19 2 -24 0 -2 -1 -6 -6 -8 -10 -2 -4 -4 -8 -4
-7 -1 1 -1 -1 -1 -4 1 -12 -1 -20 -8 -24 -4 -4 -6 -4 -7 -2 -1 1 -2 -7 -2 -17
0 -11 1 -20 2 -20 3 1 6 0 5 -2 0 -1 0 -1 2 -1 2 0 6 -1 10 -3 5 -1 14 -3 21
-5 24 -5 52 -22 52 -31 0 -4 6 -11 13 -14 7 -3 27 -3 27 0 -1 2 1 4 4 5 4 2 6
4 6 5 0 2 2 2 5 1 3 0 11 0 19 2 12 3 15 4 22 12 12 13 16 15 28 15 21 0 28
-16 17 -44 -6 -15 -8 -32 -4 -46 3 -10 3 -17 -4 -30 -2 -5 -4 -15 -5 -22 -1
-18 4 -23 27 -32 24 -9 30 -14 30 -28 0 -15 -8 -23 -22 -22 -14 0 -61 16 -67
23 -5 6 -6 22 -1 31 3 5 3 10 2 21 0 13 -1 14 -8 20 -18 17 -48 11 -59 -11 -8
-17 -10 -25 -10 -55 -1 -29 -2 -59 -6 -92 -1 -11 -3 -25 -3 -31 -1 -6 -2 -12
-2 -14 -1 -2 -1 -7 -2 -13 -1 -5 -3 -18 -4 -27 -2 -9 -4 -26 -4 -36 0 -18 0
-20 4 -24 3 -2 5 -3 5 -3 0 1 6 2 13 2 12 0 14 1 16 4 1 3 7 9 12 14 6 6 14
17 19 25 12 21 15 25 28 25 15 0 23 -8 23 -23 0 -8 -2 -12 -10 -25 -7 -9 -13
-21 -16 -32 -6 -20 -9 -24 -18 -28 -7 -3 -30 -2 -36 1 -3 2 -6 2 -10 0 -6 -3
-6 -4 -6 -14 0 -6 1 -13 1 -15 1 -2 2 -5 2 -7 2 -9 27 -31 47 -43 31 -19 59
-26 98 -24 22 1 29 2 50 12 7 3 23 9 36 13 35 12 62 31 87 65 9 12 10 14 10
25 0 19 -5 29 -24 48 -6 6 -13 15 -15 19 -2 6 -2 7 2 11 4 4 4 4 15 0 6 -2 12
-5 13 -6 4 -3 28 -1 29 2 0 1 2 3 3 5 8 8 10 16 10 43 1 41 -5 83 -16 122 -7
24 -13 34 -21 38 -8 5 -28 5 -35 2 -11 -6 -53 -1 -62 7 -10 8 -11 32 -1 41 6
7 19 9 32 5 14 -5 21 -5 30 0 8 3 9 5 11 17 1 9 -21 58 -31 68 -8 8 -26 14
-43 14 -13 0 -15 1 -19 5 -4 4 -4 6 -3 11 3 12 7 16 20 20 7 2 14 5 16 7 2 2
5 3 7 3 6 0 22 20 25 31 7 22 7 24 16 81 2 10 4 24 5 30 3 17 2 26 -4 46 -8
27 -8 27 8 43 8 8 16 18 19 22 6 10 41 138 41 150 0 5 -1 9 -2 10 -1 1 -2 2
-1 3 2 4 -12 16 -26 22 -17 8 -19 12 -18 30 0 16 3 18 30 27 26 8 29 10 42 23
16 18 19 27 19 60 -1 32 -1 32 12 48 4 3 9 13 13 21 11 20 11 35 1 63 -6 19
-2 31 16 45 14 11 18 21 18 39 0 9 -2 18 -4 23 -2 4 -3 10 -3 12 1 5 13 17 19
18 2 0 4 1 4 1 0 1 1 2 3 1 1 0 5 -1 8 -2 3 -1 5 -2 4 -3 -1 -1 0 -2 1 -2 4 0
11 -15 11 -24 0 -4 -4 -16 -9 -27 -10 -23 -13 -46 -8 -65 3 -9 12 -27 17 -30
12 -8 12 -36 -1 -48 -2 -2 -6 -8 -9 -15 -7 -14 -9 -36 -9 -88 0 -36 1 -41 8
-50 6 -6 27 -11 34 -7 7 4 24 3 31 -1 16 -8 16 -40 0 -48 -7 -4 -24 -5 -31 -1
-3 2 -7 2 -17 0 -13 -2 -19 -7 -23 -17 -3 -8 -3 -229 0 -240 3 -13 12 -18 32
-20 2 0 4 -1 4 -2 0 -1 1 0 2 2 6 9 24 0 24 -12 0 -12 -18 -21 -24 -11 -1 1
-2 2 -2 1 0 -1 -2 -2 -4 -2 -25 -2 -34 -12 -34 -37 0 -15 12 -33 26 -39 10 -4
18 -12 18 -17 0 -5 -8 -13 -18 -17 -8 -4 -20 -15 -23 -24 -5 -11 -4 -32 2 -42
5 -9 8 -11 21 -12 6 0 11 -1 11 -2 1 0 3 1 4 3 7 10 25 2 25 -10 0 -14 -18
-22 -25 -12 -1 2 -3 3 -4 3 0 -1 -5 -2 -10 -2 -14 -1 -16 -2 -22 -11 -4 -8 -5
-10 -5 -43 0 -18 -1 -40 -2 -49 -3 -20 -1 -28 8 -46 4 -9 8 -18 8 -22 0 -7 -7
-14 -15 -14 -5 0 -16 5 -19 8 -3 4 -14 8 -24 9 -9 1 -12 1 -20 -4 -23 -12 -30
-22 -30 -40 -1 -8 1 -14 11 -35 7 -14 14 -27 17 -30 4 -5 23 -17 29 -19 7 -2
15 -11 15 -17 0 -3 -1 -11 -3 -18 -5 -20 -4 -30 3 -45 3 -7 6 -13 6 -14 0 -2
14 -23 16 -23 1 0 3 -2 5 -4 2 -2 8 -5 13 -8 16 -10 17 -12 14 -31 -3 -23 -3
-29 3 -41 7 -13 18 -20 33 -20 14 0 28 8 57 31 5 4 11 9 12 10 1 0 5 4 10 7 4
3 8 6 9 6 1 0 9 6 18 13 16 11 37 25 39 25 4 0 51 29 51 32 0 1 1 2 3 2 1 0 3
1 3 2 1 1 8 5 17 10 27 16 30 18 37 26 4 4 11 15 15 22 10 18 15 22 29 23 25
3 51 13 60 23 1 1 5 4 10 7 4 3 10 6 12 8 1 2 10 8 18 13 9 6 23 16 32 22 17
12 18 13 18 29 0 14 -4 19 -19 24 -15 5 -20 11 -20 27 0 15 5 21 17 25 12 4
21 2 34 -7 30 -20 38 -24 51 -24 18 0 22 2 36 14 9 9 14 12 17 11 5 -1 14 -8
14 -11 0 -2 8 -16 24 -39 5 -8 10 -15 11 -17 9 -15 17 -25 24 -29 8 -5 33 -12
38 -11 4 1 14 -2 17 -6 4 -5 5 -8 4 -18 -2 -28 0 -43 7 -49 4 -4 24 -12 31
-11 7 0 17 4 38 17 18 10 34 4 34 -13 0 -9 -7 -18 -14 -18 -8 -1 -16 -4 -16
-6 0 -1 -1 -2 -3 -2 -5 0 -8 -15 -5 -26 1 -5 3 -10 5 -11 2 0 4 -2 5 -4 2 -1
11 -9 21 -17 10 -8 19 -15 20 -16 2 -1 11 -7 20 -14 10 -7 18 -14 19 -14 0 -1
2 -2 3 -2 1 0 3 -1 3 -2 1 -1 14 -10 50 -32 18 -11 19 -11 29 -10 12 1 20 6
26 15 4 8 17 55 17 63 0 17 -14 30 -36 33 -13 2 -20 7 -22 19 -5 19 3 31 29
44 14 7 27 17 27 21 0 2 1 3 2 3 1 0 4 5 6 11 4 11 4 11 1 33 -4 27 -3 32 9
33 7 1 12 -4 21 -19 14 -26 22 -32 42 -32 12 0 13 1 21 7 17 15 34 25 51 33
37 17 43 20 50 28 20 22 20 51 0 68 -7 5 -9 6 -17 5 -11 -1 -21 -5 -31 -14 -4
-4 -11 -10 -15 -13 -4 -3 -7 -6 -8 -6 -3 -5 -26 -16 -31 -16 -12 0 -15 6 -15
31 0 14 -1 23 -3 27 -3 6 -11 14 -15 15 -2 0 -4 1 -6 2 -1 1 -9 2 -18 2 -8 1
-19 3 -25 4 -5 2 -15 4 -23 4 -12 0 -15 -1 -24 -6 -10 -7 -29 -14 -34 -13 -11
3 -12 15 -2 42 5 13 5 17 4 23 -1 5 -3 10 -3 12 -2 7 -10 17 -18 21 -4 3 -10
6 -13 8 -3 2 -9 6 -13 9 -5 3 -16 7 -24 10 -18 6 -25 11 -31 24 -1 3 -8 11
-17 17 -27 20 -29 22 -24 32 1 2 11 8 23 13 15 7 22 11 24 15 2 5 3 30 0 30
-5 0 -16 14 -16 20 0 11 14 18 23 11 5 -3 7 -15 3 -23 -3 -8 -5 -18 -3 -15 1
0 3 0 4 -1 5 -4 23 -5 36 -3 7 2 86 41 95 48 9 7 12 16 13 30 0 12 0 13 -10
25 -5 7 -11 14 -13 16 -17 17 -17 47 0 54 8 4 21 3 32 0 11 -4 28 -2 33 3 7 6
4 30 -5 36 -3 3 -27 11 -47 16 -12 3 -15 5 -30 20 -15 15 -44 34 -57 38 -11 3
-30 14 -33 18 -2 4 -9 55 -9 70 0 8 8 15 17 15 13 0 18 -6 22 -27 7 -36 15
-52 30 -59 13 -6 22 -5 49 9 38 18 54 33 61 56 5 15 4 437 0 449 -6 14 -27 21
-42 15 -11 -5 -17 -5 -36 -2 -21 3 -38 10 -46 20 -16 21 -21 42 -13 66 5 17
10 22 24 22 12 0 18 -5 25 -19 3 -6 8 -13 11 -15 11 -12 34 -15 52 -8 24 11
28 19 28 59 0 28 0 29 6 37 3 4 6 8 8 9 6 1 29 16 39 24 10 10 19 25 19 35 0
3 -2 10 -4 15 l-4 8 -13 0 c-18 -1 -18 -1 -27 -14 -10 -14 -13 -16 -26 -16 -9
0 -11 1 -16 6 -10 10 -8 31 5 40 8 6 12 27 7 38 -1 3 -6 8 -11 12 -6 4 -10 7
-11 8 -1 1 -6 5 -13 10 -7 5 -12 9 -13 10 -1 1 -6 5 -13 10 -7 5 -13 10 -14
11 -2 1 -9 7 -17 13 -8 6 -16 13 -18 14 -3 3 -7 4 -17 3 -12 0 -16 -2 -23 -10
-17 -19 -17 -19 -31 -19 -16 0 -20 4 -28 22 -5 14 -5 19 2 22 3 1 6 3 8 5 2 2
5 26 3 27 -1 1 -5 1 -11 0z m47 -133 c16 -7 19 -31 8 -66 -6 -18 -15 -25 -31
-24 -13 1 -67 20 -72 26 -11 12 -2 42 13 44 21 4 30 6 38 11 19 10 23 12 31
11 4 0 10 -1 13 -2z m-638 -163 c5 -6 5 -12 0 -18 -7 -8 -22 -2 -22 9 0 11 15
17 22 9z m-59 -107 c12 -7 14 -33 3 -43 -8 -9 -32 -9 -40 0 -9 8 -9 32 0 41 7
7 27 8 37 2z m770 -102 c4 -4 5 -7 5 -15 0 -14 -6 -20 -20 -20 -14 0 -20 6
-20 20 0 14 6 20 20 20 8 0 11 -1 15 -5z m-777 -27 c1 0 5 -3 8 -6 5 -5 6 -7
6 -17 0 -21 -9 -27 -36 -27 -15 0 -17 0 -21 5 -6 6 -6 7 -2 20 3 9 13 20 23
24 5 2 8 2 22 1z m-633 -79 c3 -3 3 -3 0 -6 -3 -3 -3 -3 -6 0 -3 2 -3 3 -1 6
4 4 4 4 7 0z m1397 -39 c-1 -6 -1 -9 1 -9 2 -1 3 -3 3 -5 0 -3 1 -4 4 -4 2 0
6 -1 8 -2 2 -1 7 -1 13 1 23 7 32 2 31 -17 -1 -18 -10 -42 -18 -46 -5 -3 -20
-3 -25 0 -3 1 -9 5 -14 10 -5 4 -14 10 -20 13 -10 5 -17 13 -16 19 1 6 9 29
11 30 1 1 2 5 3 10 1 5 3 10 6 12 4 3 4 3 9 0 5 -4 5 -5 4 -12z m-126 -54 c5
-5 6 -7 6 -17 0 -10 -1 -12 -6 -17 -5 -5 -7 -6 -17 -6 -10 0 -12 1 -17 6 -5 5
-6 7 -6 17 0 10 1 12 6 17 5 5 7 6 17 6 10 0 12 -1 17 -6z m-524 -156 c4 -6 4
-6 1 -11 -5 -6 -9 -6 -14 0 -3 5 -3 5 1 11 6 7 6 7 12 0z m465 3 c5 -4 1 -12
-11 -22 -7 -6 -10 -10 -12 -18 -1 -5 -3 -12 -3 -14 -2 -7 7 -21 9 -16 3 4 7 4
25 0 17 -3 20 -6 24 -23 5 -19 12 -33 23 -42 12 -11 15 -16 15 -29 0 -21 -11
-30 -37 -27 -17 1 -34 -7 -43 -22 -4 -6 -7 -12 -7 -14 0 -2 -5 -8 -13 -16 -9
-10 -16 -26 -17 -37 0 -18 4 -23 20 -24 11 -1 16 0 37 7 29 10 37 11 46 2 9
-9 8 -22 -4 -39 -11 -18 -13 -19 -20 -23 -8 -5 -22 -5 -42 -1 -20 4 -23 6 -30
19 l-6 9 -13 1 c-16 1 -21 1 -29 -1 -6 -1 -8 0 -14 6 -4 5 -9 10 -10 14 -2 4
-5 5 -10 5 -26 2 -25 2 -33 -15 -3 -6 -9 -15 -14 -20 -10 -10 -18 -32 -16 -47
0 -3 -2 -7 -5 -10 l-5 -5 -21 4 c-16 3 -22 3 -29 1 -10 -3 -19 -13 -22 -26 -4
-19 5 -33 30 -46 13 -8 20 -14 19 -19 0 -2 -3 -10 -6 -17 -10 -24 -9 -32 5
-66 16 -37 16 -37 9 -41 -4 -3 -34 -10 -71 -16 -4 -1 -14 -3 -23 -4 -8 -2 -16
-3 -17 -4 -1 -1 -6 -2 -12 -2 -20 -2 -36 -12 -45 -30 -5 -9 -5 -12 -5 -32 0
-23 -1 -29 -8 -29 -3 0 -13 7 -18 13 -13 16 -16 17 -29 18 -11 1 -12 1 -19 -5
-4 -3 -8 -6 -9 -6 -1 0 -5 -2 -8 -5 -3 -3 -7 -5 -9 -5 -5 0 -14 -7 -28 -20
-12 -12 -15 -13 -28 -12 -14 1 -20 23 -10 33 5 4 8 5 31 8 7 1 17 5 17 7 0 1
4 3 8 4 l8 3 0 13 c0 17 -4 24 -15 30 -12 6 -16 12 -16 26 1 17 6 25 19 27 11
1 28 9 33 15 9 9 11 18 11 42 0 29 -3 39 -18 59 -14 19 -14 35 0 54 18 24 18
25 18 104 -1 64 -1 68 -5 76 -5 10 -16 18 -33 24 -10 3 -14 6 -17 11 -2 4 -9
12 -14 17 -10 11 -11 11 -21 11 -9 0 -11 -1 -17 -7 -11 -11 -15 -22 -17 -41
-2 -21 -6 -28 -17 -28 -13 0 -20 9 -28 35 -4 14 -8 18 -16 22 -8 3 -27 5 -28
3 -1 -1 -4 -2 -7 -2 -8 0 -14 6 -14 14 0 9 20 26 38 32 9 3 9 3 16 -1 4 -2 7
-5 7 -7 0 -1 1 -3 1 -5 0 -3 1 -3 8 -2 4 1 12 2 18 3 10 1 11 2 13 7 1 3 3 7
4 9 2 2 3 4 2 4 -2 3 11 12 17 12 15 1 18 -1 30 -16 7 -9 18 -15 30 -17 9 -1
12 0 23 5 23 11 28 22 27 62 l-1 27 6 6 6 6 42 -1 c36 0 42 -1 46 -4 4 -3 7
-3 16 -2 17 3 19 3 20 5 1 0 4 1 6 1 3 0 6 1 6 3 2 3 12 3 35 -2 18 -3 35 -2
63 3 l21 5 22 -5 c46 -9 61 -3 76 33 1 2 2 7 3 10 2 12 14 19 32 18 7 -1 18 0
26 2 19 3 25 3 28 0z m-606 -35 c4 -6 4 -24 -1 -30 -7 -9 -27 -9 -34 0 -5 6
-5 24 0 30 7 9 27 9 35 0z m-429 -107 l-5 -5 -4 4 -5 5 4 4 5 5 4 -4 5 -5 -4
-4z m1191 -99 c7 -8 8 -26 3 -43 -4 -13 -11 -18 -25 -18 -20 0 -30 10 -30 31
0 19 18 36 38 36 7 0 10 -1 14 -6z m-707 -93 c10 -10 3 -38 -12 -45 -10 -5
-12 -5 -18 1 -4 5 -5 7 -5 22 0 15 1 17 5 22 7 8 23 8 30 0z m-524 -81 c5 -5
5 -15 0 -20 -9 -9 -24 -2 -24 10 0 8 6 14 14 14 3 0 8 -2 10 -4z m390 -35 c9
-7 24 -38 24 -49 0 -14 -6 -20 -20 -20 -12 0 -19 6 -21 17 -1 5 -2 11 -3 14
-1 3 -2 12 -3 20 -1 12 -1 15 2 18 5 6 14 6 21 0z m534 -6 l5 -5 -3 -27 c-2
-24 -3 -29 -7 -32 -4 -5 -4 -5 -8 -1 -4 3 -11 24 -11 34 0 3 -1 8 -3 11 -4 8
-4 12 2 19 7 8 18 8 25 1z m-388 -3 c1 0 5 -3 8 -6 5 -5 6 -7 6 -18 0 -11 -1
-13 -6 -18 -6 -6 -7 -6 -18 -6 -11 0 -12 0 -18 6 -5 5 -6 7 -6 17 0 14 3 20
12 24 5 2 8 2 22 1z m629 -94 c3 -4 4 -7 4 -16 -1 -17 -5 -23 -17 -24 -19 -2
-26 4 -26 20 0 16 5 21 19 23 3 1 6 2 7 2 2 2 9 0 13 -5z m-663 -17 c11 -5 17
-19 14 -35 -3 -14 -19 -32 -32 -38 -11 -5 -16 -5 -22 0 -9 7 -6 58 4 67 9 8
24 10 36 6z m527 -1 c9 -4 17 -33 10 -39 -5 -5 -14 -1 -18 9 -5 12 -6 25 -3
29 4 4 4 4 11 1z m-33 -120 c5 -5 5 -11 0 -16 -7 -7 -19 -2 -20 8 0 10 13 15
20 8z m104 -36 c5 -5 6 -7 6 -17 0 -10 -1 -12 -6 -17 -6 -6 -7 -6 -19 -6 -16
1 -20 5 -21 21 0 12 0 13 6 19 5 5 7 6 17 6 10 0 12 -1 17 -6z m65 -39 c3 -3
3 -3 0 -6 -3 -3 -3 -3 -6 0 -3 2 -3 3 -1 6 4 4 4 4 7 0z m-1219 -15 c1 0 5 -3
8 -6 5 -5 6 -7 6 -18 0 -11 -1 -13 -6 -18 -6 -6 -7 -6 -18 -6 -11 0 -12 0 -18
6 -5 5 -6 7 -6 17 0 14 3 20 12 24 5 2 8 2 22 1z m-101 -6 c11 -10 3 -28 -11
-28 -9 0 -16 6 -16 16 0 14 17 22 27 12z m679 -83 c6 -6 6 -19 1 -27 -6 -7
-24 -8 -31 -1 -6 6 -6 21 0 28 7 8 23 8 30 0z m-531 -50 c3 -5 3 -5 0 -10 -2
-3 -5 -5 -7 -5 -2 0 -5 2 -7 5 -3 5 -3 5 0 10 2 3 5 5 7 5 2 0 5 -2 7 -5z
m393 -21 c6 -6 7 -11 6 -25 -1 -15 -16 -20 -28 -9 -6 6 -7 11 -6 25 1 15 16
20 28 9z"/>
<path d="M1502 2839 l0 -7 -13 0 c-8 0 -15 0 -15 0 -1 0 -3 -2 -4 -5 -1 -3 -4
-5 -5 -5 -1 0 -1 -1 0 -2 2 0 3 -3 4 -6 1 -9 3 -14 5 -13 1 1 2 -1 3 -3 1 -2
3 -4 5 -5 2 -1 4 -2 4 -3 0 -1 2 -1 4 -1 2 1 4 0 4 -1 0 -1 1 -2 2 -1 1 1 3 0
5 -1 4 -3 9 12 8 25 0 5 1 9 2 9 1 0 0 1 -2 3 -4 2 -5 6 -6 13 0 6 0 7 -1 3z"/>
<path d="M1191 2829 c-9 -4 -9 -21 -1 -66 7 -38 10 -46 19 -54 8 -7 9 -7 33
-8 25 -1 28 -2 38 -20 5 -8 11 -17 13 -18 9 -6 26 -8 43 -7 8 1 17 2 20 1 5 0
6 1 9 7 6 11 3 24 -10 46 -6 10 -21 40 -34 65 -14 29 -25 48 -28 50 -8 5 -26
6 -36 1 -12 -5 -26 -5 -34 0 -8 5 -25 6 -32 3z"/>
<path d="M805 3758 c-3 -4 -2 -18 1 -24 2 -3 4 -4 11 -4 4 0 10 -1 11 -1 2 0
5 0 5 1 1 2 1 2 -1 1 -2 -1 -2 -1 -1 2 0 2 0 3 -1 3 -1 0 -3 4 -4 8 -4 13 -17
22 -21 14z"/>
<path d="M59 3347 c-30 -8 -43 -21 -43 -42 0 -13 2 -16 13 -30 1 -1 10 -13 19
-26 15 -21 19 -25 27 -28 12 -5 13 -6 16 -25 4 -21 13 -39 22 -44 9 -6 31 -6
36 1 6 6 9 14 10 28 1 10 1 13 -3 18 -6 8 -35 21 -40 18 -1 -1 -5 1 -9 4 l-7
4 6 12 c3 7 10 16 14 20 9 10 11 14 13 29 1 6 3 13 4 14 4 4 6 29 2 35 -3 7
-15 11 -41 13 -28 2 -27 2 -39 -1z"/>
<path d="M1386 3342 c-3 -1 -10 -6 -16 -10 -11 -10 -18 -12 -27 -10 -11 3 -33
2 -46 -2 -27 -10 -28 -10 -34 -7 -4 2 -5 2 -9 -1 -4 -4 -5 -6 -4 -23 0 -17 0
-19 -3 -19 -3 0 -3 -1 -2 -2 2 0 3 -5 4 -9 2 -10 6 -18 14 -24 5 -4 7 -4 76
-4 l71 0 7 6 c12 10 14 16 12 54 -1 24 -4 35 -12 44 -5 6 -8 8 -16 8 -6 1 -12
0 -15 -1z"/>
<path d="M1863 2685 c-27 -11 -28 -54 -3 -66 19 -10 33 -5 47 16 10 15 5 38
-11 48 -8 6 -23 7 -33 2z"/>
</g>
</svg>
