<?xml version="1.0" standalone="no"?>
<!DOCTYPE svg PUBLIC "-//W3C//DTD SVG 20010904//EN"
 "http://www.w3.org/TR/2001/REC-SVG-20010904/DTD/svg10.dtd">
<svg version="1.0" xmlns="http://www.w3.org/2000/svg"
 width="1100.000000pt" height="2850.000000pt" viewBox="0 0 1100.000000 2850.000000"
 preserveAspectRatio="xMidYMid meet">
<metadata>
Created by potrace 1.15, written by Peter Selinger 2001-2017
</metadata>
<g transform="translate(0.000000,2850.000000) scale(0.500000,-0.500000)"
fill="#000000" stroke="none">
<path d="M1330 3830 c-11 -4 -18 -10 -23 -21 l-5 -10 0 -78 1 -78 -6 -5 c-6
-5 -6 -5 -17 -3 -11 3 -37 11 -45 15 -5 2 -57 23 -72 28 -5 2 -17 6 -25 10
-80 31 -100 38 -105 38 -18 0 -39 9 -56 25 -18 17 -49 46 -55 51 -9 8 -18 11
-30 9 -6 0 -11 -1 -12 -1 0 0 -23 -22 -50 -49 -40 -40 -51 -49 -59 -52 -14 -5
-27 -3 -62 10 -17 6 -35 14 -42 16 -7 3 -44 17 -84 32 -49 19 -73 27 -77 26
-17 -3 -22 -6 -27 -16 -2 -3 -3 -6 -3 -6 0 0 0 -1 -1 -3 0 -2 -1 -26 -1 -55
-1 -52 -1 -52 -6 -60 -3 -4 -5 -6 -6 -4 -1 3 -26 33 -28 33 0 0 -5 4 -11 9
-20 19 -40 33 -77 54 -27 15 -79 38 -102 44 -5 2 -18 6 -29 9 -11 3 -22 7 -24
7 -2 1 -11 3 -20 5 -23 6 -32 7 -43 4 -23 -5 -39 -16 -43 -30 -4 -12 -1 -22
11 -45 13 -22 23 -43 37 -71 7 -14 37 -87 38 -91 0 -1 2 -6 3 -11 9 -25 23
-76 26 -99 1 -9 4 -21 6 -28 2 -7 4 -13 4 -14 1 -2 1 -3 2 -3 1 0 2 -1 2 -2 0
-11 34 -35 67 -49 46 -19 92 -18 133 2 8 5 15 8 16 9 2 3 10 6 14 6 8 0 8 -8
-2 -37 -4 -13 -10 -32 -12 -41 -2 -9 -9 -28 -14 -42 -5 -14 -17 -45 -25 -70
-9 -25 -17 -47 -19 -49 -4 -7 -11 -6 -16 1 -26 34 -42 49 -68 69 -9 7 -18 14
-19 15 -2 1 -3 2 -4 2 0 0 -6 3 -12 8 -14 9 -48 27 -65 34 -6 2 -15 6 -19 8
-29 13 -89 32 -106 33 -21 2 -49 -13 -55 -28 -5 -14 -3 -24 14 -55 8 -17 17
-35 19 -40 23 -57 36 -99 43 -137 3 -15 3 -16 7 -43 2 -14 4 -28 6 -32 1 -4 2
-8 1 -8 0 -3 15 -8 24 -7 5 0 10 -1 12 -2 1 -1 2 -1 2 2 0 8 23 10 31 2 6 -6
7 -23 2 -28 -2 -1 -3 -4 -3 -5 0 -1 -1 -2 -2 -2 -4 0 -7 -12 -5 -24 1 -13 5
-20 11 -20 2 0 4 -1 5 -2 1 -1 10 -4 20 -7 18 -5 21 -6 73 -4 11 0 14 -3 18
-16 2 -10 12 -19 28 -26 13 -7 17 -12 17 -27 0 -24 -10 -29 -44 -25 -21 3 -34
-3 -41 -19 -9 -19 -11 -31 -6 -47 4 -16 11 -21 50 -36 10 -4 14 -12 15 -25 0
-28 -21 -36 -54 -21 -20 9 -31 9 -42 1 -5 -3 -10 -8 -12 -11 -4 -6 -25 -48
-25 -51 0 0 -4 -3 -8 -6 -7 -5 -9 -5 -55 -6 -53 -2 -53 -2 -53 -4 0 -1 -1 -2
-3 -2 -4 0 -14 -12 -18 -21 -5 -12 -4 -40 2 -54 8 -18 17 -23 56 -30 25 -4 44
-13 51 -21 8 -10 13 -26 18 -53 5 -28 8 -36 25 -55 13 -15 14 -18 13 -30 0 -6
-7 -15 -13 -21 -8 -6 -18 -28 -18 -41 -2 -36 -7 -102 -10 -122 -1 -4 -2 -10
-2 -13 0 -3 -3 -22 -6 -41 -7 -43 -6 -58 3 -81 24 -63 75 -102 134 -104 61 -2
120 25 160 73 13 15 14 17 14 21 0 3 0 3 3 0 7 -7 8 -13 9 -39 0 -18 1 -28 3
-34 4 -8 14 -20 18 -20 2 0 3 -1 3 -2 0 -2 10 -3 47 -3 59 0 99 9 142 31 33
17 48 29 60 51 11 19 11 24 11 138 0 108 0 109 8 131 3 6 4 7 5 5 2 -3 19 -4
31 -2 6 1 10 0 23 -6 24 -11 31 -12 52 -6 26 7 56 20 76 34 19 13 49 41 49 46
0 3 1 3 2 0 1 -3 3 -5 4 -5 4 0 6 -15 6 -41 0 -37 5 -50 24 -59 7 -3 23 -16
20 -16 -1 0 -18 -16 -37 -36 -45 -45 -83 -78 -125 -109 -18 -14 -34 -26 -35
-27 -4 -3 -42 -28 -47 -30 -13 -7 -19 -17 -20 -33 0 -13 6 -26 19 -38 12 -12
18 -14 40 -14 27 0 130 18 191 33 4 1 13 3 21 5 103 25 247 79 271 101 16 14
31 19 66 21 35 1 57 11 77 33 9 10 9 12 9 23 0 18 -4 22 -32 41 -14 9 -27 17
-30 20 -10 8 -36 2 -43 -10 -9 -16 -24 -21 -33 -11 -5 6 -5 14 1 27 5 10 7 25
4 35 -3 9 -18 16 -47 19 -26 3 -33 9 -33 29 0 28 18 34 57 20 l22 -7 38 0 37
0 8 -6 c4 -3 7 -6 5 -6 -4 0 -8 -12 -8 -22 0 -15 6 -26 19 -35 22 -16 44 -32
45 -33 1 0 7 -6 14 -12 49 -41 97 -103 124 -159 15 -32 27 -49 39 -61 24 -23
32 -26 60 -26 17 0 17 0 36 -15 15 -11 28 -14 50 -11 24 3 41 8 67 21 26 12
29 16 27 36 0 8 -2 17 -4 21 -3 7 -3 8 0 13 5 6 6 6 16 2 8 -4 26 -4 35 -1 18
7 30 63 20 96 -16 52 -57 95 -121 128 -12 6 -24 12 -26 13 -5 3 -23 11 -26 12
-3 1 -10 3 -15 6 -11 5 -6 13 16 19 48 14 77 35 85 60 l5 13 0 239 c0 213 0
241 -3 255 -4 21 -3 42 3 52 3 4 9 9 19 14 23 12 47 31 53 42 3 6 3 24 -1 31
-3 6 -9 12 -25 23 -6 4 -13 10 -15 11 -2 2 -7 6 -12 9 -4 3 -8 7 -9 7 -3 4
-44 34 -46 34 -1 0 0 2 3 5 3 3 6 5 6 5 0 0 16 1 36 2 48 2 64 8 84 29 25 26
22 50 -10 76 -32 28 -35 29 -47 29 -9 -1 -14 -3 -24 -9 -14 -8 -19 -9 -23 -2
-3 4 -3 6 0 15 7 22 5 38 -6 47 -14 11 -17 15 -16 20 2 6 6 10 16 15 12 6 24
19 29 31 5 10 5 11 6 105 l1 95 5 7 c3 4 8 8 11 10 15 5 42 27 48 38 4 7 4 21
1 29 -3 8 -10 14 -52 45 -45 34 -130 97 -135 101 -33 25 -31 24 -44 24 -16 1
-23 -3 -37 -19 -6 -7 -16 -18 -22 -25 -6 -7 -15 -17 -20 -23 -5 -6 -12 -14
-15 -17 -3 -3 -9 -9 -12 -13 -13 -15 -29 -20 -38 -12 l-6 5 1 19 c1 16 2 20 6
26 3 4 6 7 7 7 6 2 27 16 35 25 15 15 27 42 24 53 -1 3 -3 8 -3 9 -2 8 -8 14
-18 19 -12 6 -13 6 -40 8 -11 1 -24 2 -28 2 -4 1 -30 3 -57 5 -27 2 -54 4 -60
5 -24 2 -129 11 -131 11 -1 0 -5 -1 -9 -2z m-368 -146 c5 -5 5 -15 0 -20 -9
-9 -24 -2 -24 10 0 8 6 14 14 14 3 0 8 -2 10 -4z m167 -144 c10 -9 3 -26 -10
-26 -8 0 -15 7 -15 15 0 13 16 20 25 11z m-774 -2 c10 -9 3 -26 -10 -26 -8 0
-15 7 -15 15 0 13 16 20 25 11z m899 -1 c3 -2 6 -6 7 -9 5 -17 8 -22 15 -25 4
-2 8 -3 9 -2 2 0 3 0 3 -2 0 -1 1 -1 2 1 1 2 2 2 2 1 0 -2 2 -3 4 -4 3 0 3 -1
0 -1 -4 0 -4 -4 -4 -44 l0 -44 5 0 5 0 0 45 c-1 25 0 45 1 45 0 0 1 -21 1 -46
l0 -46 -7 0 -7 0 0 42 0 42 -18 0 c-18 -1 -18 -1 -18 4 0 3 -1 -1 -2 -8 -3
-23 -10 -31 -29 -31 -19 0 -28 9 -28 28 0 10 7 25 12 29 1 0 6 6 10 12 14 18
26 23 37 13z m356 -31 l6 -6 0 -46 c0 -25 0 -47 0 -47 0 -1 -3 -2 -6 -2 l-6 0
0 22 0 21 -11 21 c-6 12 -11 24 -11 27 0 7 7 13 15 15 3 0 6 1 7 1 0 0 3 -3 6
-6z m-1041 -1 c4 -5 3 -18 -1 -47 -3 -19 -8 -24 -22 -24 -14 0 -20 6 -20 19 0
10 2 14 15 38 10 18 22 24 28 14z m949 -25 c1 0 5 -3 8 -6 5 -5 6 -7 6 -18 0
-11 -1 -13 -6 -18 -6 -6 -7 -6 -18 -6 -11 0 -12 0 -18 6 -5 5 -6 7 -6 17 0 14
3 20 12 24 5 2 8 2 22 1z m-129 -26 c4 -6 4 -24 -1 -30 -7 -9 -27 -9 -34 0 -5
6 -5 24 0 30 7 9 27 9 35 0z m319 -14 c5 -5 5 -11 0 -16 -10 -10 -27 5 -16 16
4 4 12 4 16 0z m-568 -6 c5 -5 5 -11 0 -16 -10 -10 -27 5 -16 16 4 4 12 4 16
0z m-142 -71 c1 -3 2 -26 2 -52 0 -48 1 -54 10 -74 15 -32 38 -48 57 -40 10 3
13 9 13 23 0 8 1 12 3 13 1 0 0 1 -2 1 -12 0 -16 33 -5 45 9 11 31 11 43 0 9
-8 10 -32 2 -41 -2 -2 -3 -7 -2 -16 0 -11 1 -13 6 -17 3 -3 7 -5 9 -5 2 0 6 0
10 -1 19 -1 71 14 100 28 17 8 41 29 39 33 -1 1 0 2 2 2 1 0 4 1 4 3 2 2 3 1
9 -1 4 -2 6 -4 5 -4 -1 0 -2 -14 -1 -41 l1 -42 -6 -6 -6 -6 -72 0 c-40 0 -74
-1 -76 -1 -10 -3 -17 -7 -17 -8 0 -1 -1 -2 -3 -2 -1 0 -5 -3 -9 -7 -4 -4 -10
-9 -13 -10 -8 -5 -25 -4 -32 0 -8 5 -26 3 -49 -5 -5 -2 -15 2 -17 8 -2 6 -15
19 -23 23 -8 3 -51 4 -62 1 -14 -4 -18 7 -9 26 9 18 22 46 27 58 2 5 5 12 7
15 4 7 4 19 0 40 -3 15 -2 16 2 21 2 3 5 6 6 6 2 0 16 9 23 15 5 5 14 21 14
27 l0 4 4 -4 c2 -2 5 -6 6 -9z m620 -110 c4 -10 15 -23 19 -23 2 0 3 -1 3 -2
0 -1 1 -1 3 -1 8 -1 26 -6 30 -10 5 -4 5 -5 2 -7 -2 -2 -9 -9 -15 -17 -19 -24
-42 -48 -49 -53 -5 -3 -11 -5 -18 -5 -19 0 -28 9 -28 29 1 12 3 16 19 32 16
16 20 26 20 49 0 9 0 16 0 17 0 1 2 1 5 1 5 0 6 -1 9 -10z m-1113 -28 c3 -5 3
-5 0 -10 -2 -3 -5 -5 -7 -5 -2 0 -5 2 -7 5 -3 5 -3 5 0 10 2 3 5 5 7 5 2 0 5
-2 7 -5z m-361 -26 c3 -3 4 -7 4 -14 0 -13 -6 -19 -19 -19 -13 0 -19 6 -19 19
0 7 1 11 4 14 7 8 23 8 30 0z m1692 -61 c1 0 5 -3 8 -6 5 -5 6 -7 6 -18 0 -11
-1 -13 -6 -18 -6 -6 -7 -6 -18 -6 -11 0 -12 0 -18 6 -5 5 -6 7 -6 17 0 14 3
20 12 24 5 2 8 2 22 1z m-947 -6 c3 -2 8 -15 14 -36 13 -45 26 -55 74 -54 l26
1 6 -6 6 -6 -1 -42 c0 -28 1 -44 2 -48 5 -12 7 -16 13 -22 4 -4 8 -10 11 -14
l4 -7 -4 -7 c-3 -4 -8 -10 -11 -14 -4 -3 -7 -7 -7 -8 0 -3 -9 -15 -11 -15 -2
0 -3 -1 -3 -2 0 -1 -1 -2 -2 -1 -1 1 -2 -1 -3 -2 0 -3 -1 -3 -1 1 0 8 -31 64
-52 96 -40 61 -46 66 -78 79 -14 6 -18 13 -18 31 0 18 4 31 14 52 13 25 16 28
21 24z m202 -52 c5 -7 4 -25 -2 -31 -9 -10 -35 -6 -35 5 0 2 -1 4 -2 3 -1 -1
-2 2 -2 6 0 10 6 21 13 22 3 1 7 2 8 2 5 1 16 -3 20 -7z m-589 2 c5 -5 5 -7 1
-14 -3 -4 -5 -6 -9 -6 -5 0 -12 8 -12 14 0 8 14 12 20 6z m149 -35 c9 -6 24
-32 29 -50 3 -10 0 -24 -6 -29 -7 -8 -26 -9 -36 -4 -2 1 -9 10 -15 21 -6 10
-12 19 -14 21 -5 4 -11 18 -11 25 0 14 14 22 36 20 7 0 15 -2 17 -4z m952 -8
c4 -1 7 -4 7 -5 0 -1 2 -2 4 -2 2 0 2 -1 0 -1 -1 -1 -5 -4 -8 -8 -10 -12 -14
-15 -25 -19 -11 -4 -14 -4 -127 -4 -75 0 -121 1 -130 2 -8 1 -30 8 -49 15 -18
7 -35 13 -38 13 -3 0 -3 1 -1 1 2 1 4 3 5 5 1 2 3 4 6 5 2 0 82 1 177 1 146 0
173 0 179 -3z m126 -92 c6 -4 6 -6 6 -20 0 -14 0 -16 -6 -20 -4 -4 -7 -5 -18
-5 -11 0 -14 1 -18 5 -6 4 -6 6 -6 20 0 14 0 16 6 20 4 4 7 5 18 5 11 0 14 -1
18 -5z m-957 -48 c1 -7 3 -14 3 -17 1 -3 2 -9 3 -15 2 -10 3 -14 5 -31 1 -5 1
-12 2 -14 0 -3 2 -15 3 -27 1 -12 3 -25 3 -28 0 -3 1 -17 2 -30 1 -13 2 -27 2
-31 2 -14 3 -123 1 -138 -3 -26 -8 -44 -13 -48 -9 -8 -13 -9 -20 -3 l-6 6 1
124 c0 90 -1 126 -2 133 -4 12 -10 16 -24 16 -7 0 -12 1 -13 3 0 1 -1 0 -1 -2
0 -3 -1 -6 -3 -7 -1 -2 -5 -8 -8 -13 -9 -19 -20 -27 -50 -37 -15 -5 -21 -5
-25 0 -6 7 -5 14 4 23 8 9 8 9 34 28 9 8 20 17 25 21 11 11 23 16 23 10 0 -2
0 -2 2 -1 0 1 6 4 12 6 23 6 26 13 26 52 0 30 1 35 6 35 3 0 4 2 4 6 1 4 1 3
1 -2 1 -4 2 -12 3 -19z m572 -16 l15 -6 101 0 101 0 6 -6 6 -6 0 -34 0 -34 -6
-6 -6 -6 -110 0 -110 0 -6 6 c-5 5 -6 8 -6 15 0 13 -6 22 -21 38 -14 13 -14
14 -14 25 0 23 14 27 50 14z m-451 2 c5 -8 1 -16 -8 -16 -9 0 -13 8 -8 16 2 3
5 5 8 5 3 0 6 -2 8 -5z m-427 -37 c1 1 3 2 5 1 3 -1 3 -21 3 -215 0 -232 0
-223 11 -232 8 -6 19 -9 37 -8 12 1 14 0 20 -6 5 -5 6 -7 6 -18 0 -11 -1 -13
-6 -18 -6 -6 -8 -7 -20 -6 -18 1 -29 -2 -37 -8 -6 -5 -11 -15 -11 -23 0 -8 -5
-20 -7 -19 -1 1 -2 -1 -3 -4 l-2 -5 0 5 c0 3 -6 21 -14 41 -12 33 -17 47 -27
79 -2 6 -5 14 -7 19 -12 25 -12 31 -4 59 4 15 6 30 8 53 1 18 3 33 3 35 0 2 1
9 2 16 3 31 8 63 10 72 0 3 1 9 2 13 1 8 21 132 24 147 1 4 2 14 3 22 1 12 1
13 2 6 0 -6 1 -8 2 -6z m473 -70 c10 -9 3 -26 -10 -26 -8 0 -15 7 -15 15 0 13
16 20 25 11z m270 -34 c11 -10 3 -28 -11 -28 -9 0 -16 6 -16 16 0 14 17 22 27
12z m-82 -35 c4 -4 5 -7 5 -15 0 -14 -6 -20 -20 -20 -14 0 -20 6 -20 20 0 14
6 20 20 20 8 0 11 -1 15 -5z m-231 0 c21 -9 20 -45 -2 -54 -10 -5 -28 -1 -34
6 -9 10 -9 32 0 42 7 8 24 11 36 6z m111 -49 c7 -3 12 -13 12 -25 0 -19 -9
-28 -28 -28 -19 0 -28 9 -28 28 0 24 19 34 44 25z m560 -3 l6 -6 0 -26 0 -26
-6 -6 -6 -6 -110 0 -110 0 -6 6 -6 6 0 26 0 26 6 6 6 6 110 0 110 0 6 -6z
m-1005 -27 c5 -5 5 -11 0 -16 -10 -10 -27 5 -16 16 4 4 12 4 16 0z m1187 -18
c11 -10 3 -28 -11 -28 -9 0 -16 6 -16 16 0 14 17 22 27 12z m-500 -6 c5 -5 6
-7 6 -16 0 -15 -8 -23 -23 -23 -9 0 -11 1 -16 7 -9 8 -9 23 -1 32 9 9 24 9 34
0z m-1002 -79 c4 -4 5 -7 5 -15 0 -14 -6 -20 -20 -20 -14 0 -20 6 -20 20 0 14
6 20 20 20 8 0 11 -1 15 -5z m616 -23 c7 -6 7 -19 1 -25 -6 -7 -19 -7 -25 -1
-7 6 -7 19 -1 25 6 7 19 7 25 1z m371 -19 l-5 -5 -4 4 -5 5 4 4 5 5 4 -4 5 -5
-4 -4z m333 -26 l6 -6 0 -29 0 -29 -6 -6 -6 -6 -110 0 -110 0 -6 6 -6 6 0 29
0 29 6 6 6 6 110 0 110 0 6 -6z m14 -169 c4 -3 5 -7 5 -12 0 -21 -34 -22 -35
0 -1 6 0 8 6 11 8 6 18 6 24 1z m253 -137 c6 -10 5 -30 -3 -36 -8 -7 -28 -7
-36 0 -6 4 -6 6 -6 20 0 19 4 23 20 25 13 1 20 -1 25 -9z m-91 -76 c5 -8 1
-16 -8 -16 -9 0 -13 8 -8 16 2 3 5 5 8 5 3 0 6 -2 8 -5z"/>
</g>
</svg>
