<?xml version="1.0" standalone="no"?>
<!DOCTYPE svg PUBLIC "-//W3C//DTD SVG 20010904//EN"
 "http://www.w3.org/TR/2001/REC-SVG-20010904/DTD/svg10.dtd">
<svg version="1.0" xmlns="http://www.w3.org/2000/svg"
 width="1102.000000pt" height="2850.000000pt" viewBox="0 0 1102.000000 2850.000000"
 preserveAspectRatio="xMidYMid meet">
<metadata>
Created by potrace 1.15, written by Peter Selinger 2001-2017
</metadata>
<g transform="translate(0.000000,2850.000000) scale(0.500000,-0.500000)"
fill="#000000" stroke="none">
<path d="M1182 3831 c-5 -1 -12 -4 -15 -7 -8 -5 -16 -23 -18 -38 -1 -6 -2 -14
-2 -16 -1 -3 -5 -28 -10 -57 -5 -29 -12 -69 -16 -90 -4 -21 -7 -39 -8 -41 0
-2 -3 -6 -7 -9 l-7 -5 -33 1 c-33 1 -47 3 -63 10 -4 2 -15 5 -25 6 -24 4 -28
6 -53 20 -13 7 -23 13 -24 13 -1 0 -12 4 -25 9 -13 5 -38 14 -55 20 -18 6 -37
13 -43 16 -9 4 -14 4 -26 4 -9 0 -18 0 -21 1 -3 1 -7 2 -9 2 -2 1 -11 8 -24
20 -2 2 -12 11 -23 20 -11 9 -20 17 -21 18 -1 1 -26 22 -30 26 -8 5 -26 7 -41
4 -14 -3 -24 -3 -28 0 -2 1 -8 3 -15 3 -18 2 -28 -2 -39 -17 -4 -7 -10 -15
-12 -18 -19 -25 -20 -27 -18 -38 1 -6 2 -12 3 -15 3 -5 17 -10 35 -13 25 -3
32 -10 32 -29 0 -19 -9 -28 -28 -28 -8 0 -13 2 -26 9 l-16 9 -212 1 c-234 0
-223 1 -234 -12 -10 -12 -10 -22 -2 -51 9 -31 15 -44 26 -51 14 -10 20 -10 74
-10 l50 1 9 6 c7 5 11 9 17 23 10 19 13 22 23 22 11 0 18 -7 18 -17 0 -7 -5
-23 -8 -25 -3 -2 -7 -11 -9 -21 -4 -13 -4 -309 -1 -318 4 -11 23 -23 37 -23 4
0 7 -2 10 -5 3 -5 3 -5 0 -10 -3 -3 -6 -5 -10 -5 -7 0 -27 -8 -27 -10 0 -1 -1
-2 -3 -2 -2 0 -3 -1 -3 -2 -1 -10 0 -21 2 -25 2 -2 6 -9 9 -15 11 -22 5 -40
-14 -43 -11 -1 -28 -6 -43 -12 -20 -8 -30 -6 -43 9 -3 4 -11 9 -18 12 -11 5
-14 6 -32 6 -30 0 -42 -7 -47 -28 -2 -9 -2 -11 5 -35 8 -29 12 -38 21 -46 13
-14 15 -14 82 -14 l61 0 6 -6 6 -6 -1 -147 c0 -158 0 -159 10 -169 8 -7 24
-14 36 -15 6 0 12 -10 12 -20 0 -10 -6 -20 -12 -20 -28 -2 -50 -23 -44 -43 4
-10 19 -25 26 -25 3 0 10 -8 10 -12 0 -4 -7 -12 -10 -12 -3 0 -11 -5 -21 -14
-16 -12 -21 -15 -56 -23 -2 0 -10 -3 -18 -5 -8 -2 -42 -10 -76 -18 -34 -8 -65
-16 -69 -18 l-7 -3 -1 -21 c0 -16 1 -22 3 -28 2 -4 7 -14 11 -23 8 -16 17 -36
29 -63 8 -16 19 -39 35 -73 5 -11 13 -27 17 -36 4 -9 11 -24 16 -33 4 -9 10
-22 13 -29 10 -22 23 -29 49 -26 11 1 18 0 26 -2 18 -5 43 0 43 8 0 2 1 3 2 3
1 0 3 3 6 8 5 8 17 20 32 31 6 4 11 8 12 9 1 1 10 7 21 15 28 19 42 30 46 36
5 8 6 27 1 37 -7 18 -7 34 2 42 10 11 32 9 45 -4 11 -10 15 -12 29 -12 11 0
20 3 26 10 1 1 6 5 13 10 17 13 21 16 23 22 4 8 4 24 1 34 -3 9 -3 10 0 15 5
6 7 6 19 0 13 -6 42 -7 42 0 0 2 19 16 32 23 6 3 12 8 15 14 7 10 14 16 32 24
11 5 14 8 16 13 4 9 3 22 -2 36 l-4 13 4 4 4 4 8 -4 c4 -3 10 -6 12 -8 3 -2 9
-4 18 -4 11 0 13 1 18 5 4 4 12 11 19 17 13 11 20 23 24 39 2 6 4 13 6 17 5 9
8 29 6 38 -1 7 -11 24 -15 24 -1 0 -1 1 0 1 0 1 0 3 -1 4 -3 4 2 8 10 10 3 1
6 2 7 3 4 3 23 3 37 -1 7 -2 15 -3 18 -3 3 0 11 -2 18 -5 l14 -5 -5 -5 c-7 -6
-10 -14 -16 -40 -8 -34 -31 -76 -58 -106 -6 -7 -11 -14 -25 -35 -6 -9 -12 -13
-35 -22 -14 -6 -38 -19 -45 -25 -1 -2 -3 -3 -4 -3 -3 0 -34 -32 -43 -44 -17
-23 -30 -55 -29 -70 0 -10 5 -20 13 -27 5 -4 9 -7 10 -7 0 0 4 -3 7 -6 8 -9 8
-17 -1 -33 -12 -22 -11 -35 3 -52 21 -24 39 -37 72 -51 17 -7 21 -8 80 -5 l33
1 18 9 c33 16 60 41 87 79 7 10 17 28 18 34 2 4 9 -4 12 -12 1 -4 2 -15 3 -24
0 -9 1 -19 2 -22 0 -3 1 -8 2 -13 2 -12 13 -42 20 -55 26 -49 77 -78 147 -86
46 -5 54 -5 74 2 24 8 30 8 53 0 l18 -6 44 0 c46 0 54 1 64 12 4 4 6 19 4 27
-1 6 -17 14 -39 20 -1 0 -3 1 -5 1 -2 0 -6 3 -9 6 -5 5 -6 7 -6 18 0 11 1 13
6 18 3 3 7 6 9 6 12 1 20 0 22 -2 5 -4 28 -2 35 3 6 4 6 4 5 22 0 10 -1 22 -2
26 -2 16 5 21 28 20 17 -1 32 -6 37 -12 10 -13 4 -34 -20 -70 -17 -26 -25 -49
-22 -63 5 -23 14 -29 40 -29 28 1 100 11 119 17 3 1 15 5 26 8 28 8 40 14 55
27 24 19 71 64 77 75 4 7 8 11 13 13 6 2 7 2 21 -5 52 -27 105 -26 151 4 16
10 29 21 39 34 5 6 10 12 11 14 6 6 18 33 24 49 19 59 7 133 -32 193 -2 3 -6
10 -9 15 -15 27 -61 76 -97 103 -4 3 -8 6 -9 7 -9 9 -31 21 -39 22 -15 2 -26
-7 -29 -24 -2 -12 -8 -17 -18 -17 -10 0 -15 5 -26 25 -4 8 -10 17 -12 19 -8 9
-9 12 -12 23 -4 16 -12 31 -18 37 -7 6 -26 16 -32 16 -6 0 -1 6 11 13 13 8 16
12 15 26 0 6 1 11 2 11 1 0 -1 2 -3 5 -5 4 -9 19 -7 23 2 3 -6 27 -13 40 -9
16 -10 25 -3 32 6 6 17 5 22 0 3 -3 7 -11 10 -19 6 -13 13 -22 28 -34 5 -4 8
-8 9 -14 2 -8 1 -20 -2 -24 -3 -3 -1 -19 3 -26 3 -7 11 -11 21 -11 10 0 47 10
63 16 42 17 58 27 70 43 5 6 6 9 5 18 -1 17 -5 21 -36 37 -3 1 -9 7 -12 12 -8
14 -19 25 -31 33 -13 9 -17 16 -17 28 0 13 6 19 20 19 11 0 11 0 23 -13 14
-15 20 -19 32 -19 11 0 21 10 26 26 4 10 4 11 0 19 -3 10 -12 22 -17 24 -18 7
-29 17 -32 28 -4 18 3 32 21 40 8 4 12 7 19 13 4 5 5 7 5 17 0 10 -1 12 -7 19
-4 5 -9 12 -11 16 -4 8 -4 8 0 16 2 4 6 10 9 13 10 11 15 22 13 32 -1 9 -7 23
-9 23 -1 0 -2 1 -2 3 0 2 -1 3 -2 3 -1 0 -3 4 -6 9 -8 17 -6 30 11 58 11 19
11 21 11 107 0 76 0 81 -4 88 -2 4 -7 9 -10 11 -8 4 -26 9 -26 7 0 0 -3 -2 -6
-4 -10 -4 -21 -13 -25 -21 -3 -4 -8 -14 -12 -21 -4 -7 -9 -15 -10 -18 -4 -8
-6 -28 -3 -38 2 -6 2 -10 0 -16 -4 -15 -11 -20 -27 -21 -29 -2 -40 31 -19 55
12 13 17 24 17 44 1 18 1 18 12 36 6 9 12 19 12 21 8 20 27 32 49 32 28 1 36
4 53 21 6 6 11 11 11 11 0 -1 7 3 16 7 12 6 21 13 31 23 l15 14 0 13 c0 7 -1
12 -2 12 -1 0 -2 1 -1 2 3 5 -27 8 -36 4 -12 -7 -42 2 -51 15 -11 15 -28 28
-35 26 -2 -1 -6 -2 -9 -1 -6 1 -11 -5 -23 -33 -1 -4 -3 -9 -3 -10 0 -2 -3 -6
-6 -9 -5 -5 -7 -6 -17 -6 -10 0 -12 1 -17 6 -5 5 -6 7 -6 16 0 12 2 16 14 28
8 8 16 22 20 36 1 5 5 14 8 20 11 21 7 40 -9 51 -8 6 -11 8 -20 16 -14 12 -21
14 -43 14 -39 -1 -50 -5 -70 -28 -3 -4 -16 -18 -28 -31 -23 -24 -27 -30 -26
-48 0 -9 1 -12 7 -13 30 -5 38 -11 38 -27 0 -15 -8 -23 -23 -23 -12 0 -15 3
-25 19 -4 5 -8 10 -9 9 -1 -1 -2 0 -2 1 -1 3 -17 6 -24 4 -6 -1 -24 -18 -23
-20 1 -2 1 -2 0 -1 -2 0 -3 -1 -4 -4 -2 -6 -1 -8 1 -5 2 2 2 1 1 -5 -1 -4 -1
-8 1 -10 5 -6 -8 -16 -13 -11 -2 1 -7 3 -12 3 -13 1 -13 2 0 8 6 3 12 7 12 9
1 1 4 6 6 10 10 15 0 32 -25 44 -27 12 -56 6 -74 -17 -20 -25 -44 -25 -64 0
-5 6 -12 13 -15 14 -6 4 -18 15 -16 15 1 0 0 1 -2 3 -3 3 -3 3 0 3 1 0 13 7
24 16 12 8 23 16 26 18 2 2 12 9 22 16 21 16 25 18 44 24 27 9 31 10 33 15 1
2 2 6 2 8 0 2 0 8 1 13 0 7 0 9 -5 12 -13 8 -17 18 -10 26 7 8 15 5 27 -11 3
-4 21 -5 31 -1 7 3 11 13 9 25 -4 23 -16 29 -70 39 -13 2 -36 6 -50 9 -14 3
-44 8 -66 12 -22 4 -40 7 -41 8 -4 0 -22 -3 -22 -5 0 -1 -1 -2 -3 -2 -6 0 -19
-22 -21 -37 -4 -22 -4 -25 0 -40 2 -9 5 -19 7 -22 11 -24 15 -45 10 -50 -6 -5
-10 -6 -17 -2 -8 4 -8 5 -21 21 -6 7 -11 13 -11 14 -1 1 -4 5 -8 10 -3 5 -12
15 -19 21 -14 13 -18 21 -16 35 2 11 6 15 16 20 6 2 14 6 19 8 l10 5 0 15 1
16 -8 5 c-5 2 -12 5 -15 6 -4 0 -14 2 -23 4 -9 2 -16 3 -16 3 0 0 -4 -1 -9 -3z
m203 -152 c5 -8 1 -16 -8 -16 -9 0 -13 8 -8 16 2 3 5 5 8 5 3 0 6 -2 8 -5z
m-943 -117 c1 0 5 -3 8 -6 5 -5 6 -7 6 -18 0 -11 -1 -13 -6 -18 -6 -6 -7 -6
-18 -6 -11 0 -12 0 -18 6 -5 5 -6 7 -6 17 0 14 3 20 12 24 5 2 8 2 22 1z m496
-30 c1 0 5 -3 8 -6 8 -8 8 -20 1 -43 -9 -29 -20 -39 -30 -28 -3 3 -5 6 -5 7 0
2 -2 8 -5 22 -6 27 -3 42 9 47 5 2 8 2 22 1z m189 -11 c5 -8 1 -16 -8 -16 -9
0 -13 8 -8 16 2 3 5 5 8 5 3 0 6 -2 8 -5z m-510 -13 l20 -9 41 0 41 0 6 -6 6
-6 0 -27 c0 -23 0 -26 4 -31 4 -5 5 -6 19 -5 13 0 14 0 14 -4 0 -4 1 -3 2 2 2
11 10 15 31 14 2 0 6 -3 9 -6 5 -5 6 -7 6 -18 0 -11 -1 -13 -6 -18 -3 -3 -7
-6 -9 -6 -21 -1 -29 3 -31 14 -1 5 -2 6 -2 2 0 -4 -1 -4 -14 -4 -25 1 -23 15
-24 -156 l-1 -146 -4 -4 c-3 -2 -5 -5 -5 -6 0 -2 -1 -2 -2 0 0 2 -6 10 -13 17
-7 8 -13 15 -15 17 -2 2 -12 13 -23 25 -11 12 -21 23 -22 24 -21 24 -27 28
-37 29 -15 1 -23 -4 -31 -17 -11 -17 -14 -19 -26 -20 -16 -2 -27 6 -31 23 -4
15 1 27 16 38 10 7 17 16 21 24 4 6 4 17 5 126 1 116 1 119 5 128 4 7 6 10 11
11 12 4 18 3 39 -5z m886 -17 c13 -1 14 -1 11 -3 -5 -3 -25 -5 -27 -2 -2 3 3
8 6 6 1 0 6 -1 10 -1z m-289 -14 c3 -4 4 -6 3 -23 0 -10 1 -23 3 -27 3 -12 25
-34 43 -43 22 -11 29 -23 19 -33 -6 -6 -12 -6 -26 -1 -25 10 -40 14 -54 14
-21 0 -22 1 -22 4 0 1 -1 2 -2 1 -3 -2 -6 14 -7 36 0 18 1 23 7 44 4 13 8 26
11 29 5 6 19 6 25 -1z m284 -1 c1 -4 2 -10 3 -13 1 -6 5 -16 5 -12 0 0 4 -1 8
-3 7 -4 12 -4 32 -4 12 0 23 0 23 1 1 0 4 -2 8 -6 l6 -6 -1 -28 c-1 -26 -1
-29 -6 -36 -3 -4 -5 -6 -6 -4 0 2 -1 3 -2 3 -1 0 -3 1 -4 3 -2 1 -8 6 -15 11
-7 5 -12 10 -13 10 -1 1 -6 5 -13 10 -7 5 -14 11 -17 14 -3 2 -6 4 -6 4 -1 0
-5 3 -8 6 -4 3 -8 6 -10 6 -1 0 -1 1 2 4 4 3 4 4 1 11 -2 4 -2 8 -2 9 1 1 2 5
2 8 2 9 6 18 8 18 2 0 4 -3 5 -6z m-410 -26 c5 0 14 -9 15 -16 1 -3 2 -10 4
-17 1 -7 3 -14 4 -17 2 -11 14 -23 28 -29 8 -3 16 -5 18 -5 6 0 15 -4 15 -7 0
-1 1 -3 3 -4 2 0 2 -3 2 -7 -1 -8 -3 -15 -3 -15 0 -1 -1 -2 -1 -2 0 -1 -1 -5
-2 -8 -2 -10 -11 -17 -23 -18 -2 0 -7 -1 -11 -2 -5 -1 -11 -1 -13 0 -4 1 -9
10 -10 17 0 1 -2 2 -3 2 -3 0 -3 0 -1 2 1 1 -2 1 -8 0 -5 0 -13 0 -16 2 -4 1
-6 1 -5 0 1 -1 3 -2 5 -2 2 0 2 -1 1 -1 -4 -2 -3 -7 1 -9 2 -2 4 -4 4 -5 0 -2
1 -4 3 -6 2 -1 5 -8 8 -14 6 -14 5 -22 -3 -35 -6 -9 -9 -11 -29 -24 -5 -3 -11
-7 -12 -8 -2 -1 -4 -2 -5 -2 -1 0 -2 -2 -2 -3 0 -2 -2 1 -5 6 l-6 10 -1 100 0
100 5 8 c3 5 6 8 7 8 1 0 6 0 11 1 6 1 13 1 16 1 3 -1 7 -1 9 -1z m-657 -38
c4 -6 4 -24 -1 -30 -7 -9 -27 -9 -34 0 -5 6 -5 24 0 30 7 9 27 9 35 0z m948
-76 l5 -5 -4 -4 c-5 -5 -8 -5 -15 1 -3 3 -3 3 2 7 7 6 7 6 12 1z m269 -36 c5
-5 5 -11 0 -16 -10 -10 -27 5 -16 16 4 4 12 4 16 0z m-394 -10 c3 -2 8 -11 12
-19 8 -18 9 -21 15 -22 6 -1 18 -6 23 -10 5 -5 5 -13 0 -28 -3 -8 -5 -19 -5
-34 -2 -31 -3 -33 -30 -34 -9 0 -22 -2 -30 -4 -18 -4 -26 -4 -46 2 -14 4 -21
5 -37 5 -30 -1 -38 4 -38 23 0 18 15 24 38 15 5 -2 10 -4 10 -3 0 0 3 0 7 -1
7 -2 9 -2 42 7 20 5 42 15 43 20 0 1 0 7 1 13 1 11 1 12 -5 18 -4 3 -7 6 -8 5
-4 -1 -23 8 -26 12 -7 9 -6 26 2 33 7 8 24 9 32 2z m-432 -30 c1 0 5 -3 8 -6
5 -5 6 -7 6 -18 0 -11 -1 -13 -6 -18 -5 -5 -7 -6 -18 -6 -11 0 -13 1 -18 6 -5
5 -6 7 -6 17 0 14 3 20 12 24 5 2 8 2 22 1z m755 -82 c4 -4 4 -5 5 -116 l0
-111 -5 -14 c-2 -8 -5 -16 -6 -18 0 -4 -1 -4 -1 0 0 6 -10 11 -19 12 -7 0 -21
-10 -21 -15 0 -1 -1 -2 -2 -1 -1 0 -2 -1 -3 -4 -3 -6 0 -19 6 -26 4 -6 5 -6
20 -6 l16 -1 2 7 c2 3 3 5 3 4 0 -2 2 -6 5 -10 4 -6 5 -9 5 -27 0 -12 0 -21 1
-22 0 -1 -13 -14 -14 -13 0 1 -10 1 -21 1 -20 0 -22 0 -32 -5 -9 -5 -10 -7
-14 -17 -2 -6 -5 -16 -5 -22 -2 -18 -8 -25 -25 -25 -17 0 -23 7 -25 25 -1 17
-8 33 -15 36 -3 2 -6 4 -8 6 -1 1 -3 2 -4 1 -1 -1 -2 -1 -2 0 0 1 -41 2 -91 2
-78 -1 -92 0 -97 2 -3 2 -6 4 -6 5 0 1 -2 2 -4 3 -4 0 -4 1 1 1 3 0 7 1 8 2 2
2 7 5 37 21 4 3 16 10 25 16 20 14 21 14 35 25 25 17 37 11 56 -27 4 -7 24
-29 27 -29 1 0 4 -2 7 -4 3 -2 8 -4 11 -4 5 0 5 -1 2 -2 -9 -3 11 -7 38 -6 25
0 36 2 34 6 -1 1 0 2 2 2 5 0 7 7 8 21 0 11 -1 14 -4 17 -6 5 -11 13 -11 19 0
5 14 29 18 31 1 0 2 1 1 2 -1 1 0 2 1 2 2 0 1 9 -3 25 -2 9 -3 15 -1 21 2 9
10 18 15 18 7 0 23 11 26 17 3 8 4 26 1 28 -1 1 -4 5 -7 9 -2 4 -10 13 -16 20
-15 17 -19 26 -21 44 -1 18 -1 18 16 27 19 10 44 40 44 54 0 3 1 3 1 1 1 -2 3
-5 6 -8z m-103 -4 c7 -5 11 -18 10 -34 -1 -5 -15 -11 -24 -10 -13 0 -14 0 -20
6 -5 5 -6 7 -6 17 0 14 3 20 12 24 8 3 22 2 28 -3z m-649 -9 c7 -4 18 -21 24
-35 5 -13 4 -31 -4 -37 -7 -7 -28 -7 -36 -1 -6 5 -11 26 -11 50 0 14 0 17 4
21 6 6 15 7 23 2z m139 -7 c4 -4 4 -6 3 -13 -1 -12 -5 -16 -14 -20 -10 -4 -14
-3 -20 2 -7 7 -1 26 10 32 9 4 16 4 21 -1z m223 -76 c26 -21 29 -25 26 -38 -1
-5 -10 -21 -13 -24 -1 -1 -4 -5 -7 -9 -7 -9 -11 -14 -14 -18 -13 -14 -25 -30
-27 -36 -2 -5 -3 -15 -3 -27 1 -17 0 -19 -3 -23 -5 -5 -6 -5 -24 -4 -12 0 -22
0 -28 -2 -6 -2 -33 -20 -41 -28 -3 -3 -11 5 -12 14 0 3 -1 24 -2 46 0 22 -1
45 -1 51 -1 12 3 22 11 27 2 2 9 6 15 11 18 11 30 31 32 53 0 5 9 9 21 9 6 0
16 1 20 2 32 9 36 8 50 -4z m589 -120 c5 -5 5 -15 0 -20 -9 -9 -24 -2 -24 10
0 8 6 14 14 14 3 0 8 -2 10 -4z m-964 -35 c16 -7 20 -37 7 -48 -13 -12 -35
-11 -45 2 -6 8 -6 30 0 38 8 10 25 13 38 8z m887 -2 c6 -2 17 -28 21 -49 1 -7
1 -8 -3 -12 -5 -4 -5 -4 -9 -1 -2 2 -4 3 -5 3 -2 0 -3 2 -4 4 0 1 -4 7 -7 12
-10 16 -14 24 -14 30 0 10 10 17 21 13z m-975 -9 c2 -2 6 -4 9 -6 3 -1 5 -2 3
-2 -1 0 -2 -1 -1 -2 2 -3 30 -3 32 1 0 1 1 -2 1 -7 0 -5 -1 -8 -1 -6 -1 1 -6
2 -16 2 l-15 0 -3 -6 c-3 -9 -4 -51 -1 -62 3 -10 13 -21 20 -23 3 -1 7 -2 9
-3 2 -1 7 -3 11 -5 7 -2 9 -5 16 -19 5 -10 12 -20 17 -25 12 -12 15 -17 15
-24 0 -9 -5 -13 -28 -23 -10 -5 -22 -12 -26 -15 -4 -4 -12 -10 -17 -14 -16
-11 -19 -19 -19 -53 0 -25 1 -29 5 -38 2 -6 4 -12 3 -14 -1 -4 -14 -9 -62 -23
-85 -25 -101 -30 -102 -31 0 -1 -3 0 -6 3 -5 5 -5 6 -6 34 -1 30 -1 29 -18 59
-8 14 -8 22 0 36 4 6 9 16 12 21 l5 10 0 114 0 114 6 6 6 6 74 0 c70 -1 74 -1
77 -5z m-297 -6 c5 -5 6 -7 6 -16 0 -15 -8 -23 -23 -23 -9 0 -11 1 -16 7 -9 8
-9 23 -1 32 9 9 24 9 34 0z m-132 -79 c5 -5 7 -14 5 -22 -3 -8 -9 -11 -13 -6
-2 2 -4 3 -5 3 -2 0 -8 12 -8 16 0 10 14 16 21 9z m21 -45 c2 -1 4 -2 4 -3 2
-3 15 -4 26 -3 36 5 39 5 45 -1 11 -11 4 -29 -13 -32 -5 -1 -18 -5 -30 -8 -26
-9 -36 -9 -44 -1 -6 5 -6 7 -6 18 0 7 2 17 4 23 3 10 3 10 14 7z m795 -23 c5
-4 6 -6 6 -17 1 -26 7 -41 18 -47 5 -3 13 -4 43 -5 48 -1 47 -1 63 -37 6 -14
12 -30 14 -35 l4 -9 -5 -4 c-5 -4 -7 -4 -24 -3 -16 0 -20 0 -27 -4 -11 -5 -18
-13 -23 -24 -4 -10 -4 -22 2 -71 5 -43 5 -41 0 -46 -6 -6 -16 -7 -21 0 -3 2
-6 12 -9 27 -4 22 -11 37 -28 69 -2 4 -4 11 -5 14 -1 11 -8 28 -15 34 -8 8
-20 12 -43 14 -15 1 -19 2 -25 6 -9 6 -9 6 -5 10 4 5 8 18 8 34 0 12 1 14 6
19 3 4 5 8 5 10 0 2 1 4 2 3 4 -3 12 11 15 24 1 4 1 14 2 21 0 17 5 22 24 22
11 0 14 -1 18 -5z m-103 -18 c4 -5 5 -16 0 -20 -6 -5 -46 -4 -52 2 -4 4 -4 5
-2 9 5 9 47 16 54 9z m345 -38 c2 -2 3 -3 3 -4 -1 0 -3 -1 -4 -3 -5 -4 -12 2
-8 7 4 4 4 4 9 0z m229 -48 c0 -32 4 -43 24 -55 4 -3 6 -6 6 -9 0 -3 1 -5 4
-6 2 0 2 -1 -2 -1 -5 0 -22 -11 -22 -14 0 -2 -10 -5 -15 -4 -4 0 -9 5 -21 20
-13 16 -37 39 -56 54 -6 4 -12 9 -13 10 -8 6 -40 25 -46 27 -5 2 -6 3 -5 3 2
0 5 1 5 3 4 5 12 6 70 7 l60 1 6 -6 6 -6 -1 -24z m-705 20 c12 -12 3 -31 -13
-31 -11 0 -18 7 -18 18 0 11 7 18 18 18 6 0 9 -1 13 -5z m-472 -16 c9 -7 9
-22 1 -45 -4 -13 -7 -24 -7 -36 -2 -24 -7 -31 -25 -31 -17 0 -29 12 -38 38 -4
12 -3 21 1 29 14 21 30 45 34 47 7 5 28 4 34 -2z m940 -4 c4 2 23 -9 26 -14 2
-3 4 -10 4 -17 1 -17 -3 -20 -21 -20 -24 0 -40 12 -40 30 0 7 6 16 10 16 1 0
4 1 7 3 3 2 6 3 7 2 1 -1 2 0 2 1 0 2 1 2 1 1 1 -2 2 -2 4 -2z m-547 -9 c5 -4
5 -11 0 -16 -10 -10 -27 5 -16 16 4 5 10 5 16 0z m626 -63 c10 -9 2 -27 -12
-27 -14 0 -23 20 -14 29 6 5 19 5 26 -2z m-457 -16 c10 -10 16 -18 23 -36 10
-23 18 -32 36 -41 16 -8 22 -15 22 -25 0 -11 -6 -17 -17 -17 -9 0 -14 3 -27
15 -5 5 -10 9 -11 9 -2 0 -3 1 -3 2 0 2 -19 3 -21 0 -3 -5 -15 6 -21 20 -2 3
-4 6 -4 6 -1 0 -2 1 -2 3 0 3 -16 21 -18 21 -2 0 -9 5 -17 12 -8 6 -17 12 -19
14 -11 8 10 21 42 25 4 1 7 2 8 2 1 1 25 -7 29 -10z m-476 -43 c5 -5 6 -7 6
-16 0 -15 -8 -23 -23 -23 -9 0 -11 1 -16 7 -9 8 -9 23 -1 32 9 9 24 9 34 0z
m-124 -32 c5 -5 6 -7 6 -16 0 -15 -8 -23 -23 -23 -9 0 -11 1 -16 7 -9 8 -9 23
-1 32 9 9 24 9 34 0z m927 -17 c0 -5 6 -50 7 -55 1 -3 4 -7 7 -10 4 -5 6 -5
20 -4 10 1 17 3 21 5 9 6 12 5 16 -2 6 -11 -2 -19 -19 -19 -7 0 -10 -1 -16 -7
-13 -13 -14 -20 -8 -38 8 -20 26 -28 53 -22 22 4 25 2 42 -18 15 -18 33 -22
62 -15 10 2 22 6 26 8 15 7 21 6 21 -3 0 -11 -18 -41 -30 -49 -18 -12 -28 -22
-33 -33 -5 -10 -5 -12 -4 -31 1 -19 1 -21 -3 -25 -4 -6 -7 -6 -11 -1 -5 5 -17
34 -17 42 0 2 -2 5 -4 7 -2 2 -4 4 -4 5 0 6 -13 20 -22 25 -11 5 -11 5 -62 5
l-51 0 -5 5 c-6 6 -6 6 -6 32 0 43 -6 57 -31 76 -18 13 -21 16 -21 26 0 8 6
17 11 17 6 0 27 13 32 19 7 10 9 15 9 40 0 21 1 23 5 29 l5 6 5 -6 c3 -4 5 -8
5 -9z m96 -1 c8 -9 2 -21 -9 -23 -5 -1 -7 0 -9 5 -5 8 -5 12 0 18 4 5 13 5 18
0z m221 -1 c12 -12 19 -70 10 -84 -5 -7 -16 -7 -22 0 -5 5 -17 44 -17 54 0 6
4 16 9 22 1 1 4 4 5 7 5 5 10 5 15 1z m-1175 -55 c2 -3 4 -7 4 -9 0 -6 -10
-16 -19 -20 -8 -4 -20 -19 -25 -36 -5 -12 -14 -18 -32 -19 -34 -1 -45 -3 -68
-13 -13 -5 -27 -9 -30 -9 -10 0 -16 7 -16 17 0 10 4 15 20 20 13 4 34 14 45
21 15 10 43 23 51 23 16 2 29 6 38 14 17 16 25 19 32 11z m100 -12 c6 -5 12
-10 12 -11 2 -3 21 -3 28 0 17 7 30 1 30 -16 0 -22 -19 -25 -39 -7 -10 11 -14
12 -26 12 -7 0 -13 -1 -14 -2 -2 -4 -17 -2 -22 2 -7 6 -7 19 -1 25 8 8 18 7
32 -3z m1309 -24 c6 -6 7 -19 1 -25 -1 -2 -9 -8 -17 -12 -8 -4 -14 -8 -15 -9
-2 -3 -19 -10 -24 -10 -6 0 -12 7 -12 14 0 6 7 15 15 20 2 2 9 7 13 11 14 12
18 15 27 15 5 0 9 -1 12 -4z m-709 -6 c5 -5 5 -15 0 -20 -9 -9 -24 -2 -24 10
0 8 6 14 14 14 3 0 8 -2 10 -4z m550 -22 c3 -4 6 -8 6 -9 0 -1 3 -7 6 -14 6
-12 12 -20 20 -25 3 -2 8 -6 12 -10 7 -7 8 -8 8 -18 0 -13 -3 -18 -15 -24 -4
-3 -9 -6 -11 -7 -1 -2 -3 -3 -4 -3 0 0 -5 -4 -10 -8 -11 -11 -18 -14 -31 -14
-24 -1 -29 17 -12 42 9 13 10 15 9 26 0 8 -2 13 -6 19 -11 18 -14 28 -8 40 6
13 25 15 36 5z m219 -53 c3 -3 3 -3 0 -6 -3 -3 -3 -3 -6 0 -3 2 -3 3 -1 6 4 4
4 4 7 0z m-818 -92 c5 -8 1 -16 -8 -16 -9 0 -13 8 -8 16 2 3 5 5 8 5 3 0 6 -2
8 -5z m-246 -67 c4 -6 4 -24 -1 -30 -7 -9 -27 -9 -34 0 -5 6 -5 24 0 30 7 9
27 9 35 0z m726 -25 c4 -4 5 -7 5 -15 0 -14 -6 -20 -20 -20 -14 0 -20 6 -20
20 0 14 6 20 20 20 8 0 11 -1 15 -5z m84 -9 c7 -6 7 -19 1 -25 -6 -7 -19 -7
-25 -1 -7 6 -7 19 -1 25 6 7 19 7 25 1z m-478 -48 c12 -7 21 -22 21 -35 0 -14
-26 -22 -48 -15 -9 3 -18 5 -24 5 -3 0 -5 1 -5 1 1 1 -1 2 -3 2 -2 0 -4 1 -5
2 -1 1 0 2 1 2 2 0 2 0 2 1 -1 1 1 4 4 7 3 3 8 11 12 18 9 18 27 23 45 12z
m-112 -6 c4 -3 7 -5 7 -6 0 -1 4 -5 8 -10 4 -5 8 -10 8 -11 0 0 1 -1 3 -1 3 1
23 -8 24 -11 0 -2 0 -3 -1 -3 0 1 -6 -4 -12 -10 -16 -15 -24 -14 -36 7 -2 4
-4 8 -4 10 0 1 -1 3 -2 3 -1 1 -4 7 -7 14 l-5 13 5 5 c5 5 3 5 12 0z"/>
</g>
</svg>
