<?xml version="1.0" standalone="no"?>
<!DOCTYPE svg PUBLIC "-//W3C//DTD SVG 20010904//EN"
 "http://www.w3.org/TR/2001/REC-SVG-20010904/DTD/svg10.dtd">
<svg version="1.0" xmlns="http://www.w3.org/2000/svg"
 width="1100.000000pt" height="2850.000000pt" viewBox="0 0 1100.000000 2850.000000"
 preserveAspectRatio="xMidYMid meet">
<metadata>
Created by potrace 1.15, written by Peter Selinger 2001-2017
</metadata>
<g transform="translate(0.000000,2850.000000) scale(0.500000,-0.500000)"
fill="#000000" stroke="none">
<path d="M846 3830 c-12 -4 -25 -13 -23 -16 1 -1 0 -2 -1 -2 -3 0 -6 -15 -6
-32 0 -17 2 -26 10 -43 7 -15 10 -28 9 -34 -1 -6 -3 -10 -10 -26 -9 -20 -9
-18 -9 -131 0 -122 0 -121 15 -137 19 -20 20 -29 2 -54 -14 -20 -16 -27 -17
-70 l0 -38 -6 -6 c-4 -4 -6 -6 -8 -5 -2 1 -5 3 -8 4 -6 2 -11 8 -22 30 -5 9
-11 16 -22 25 -8 6 -19 16 -24 20 -5 5 -12 10 -15 13 -4 3 -13 11 -21 18 -8 7
-18 15 -21 18 -3 2 -8 6 -9 7 -5 4 -24 6 -32 3 -9 -3 -41 -36 -48 -49 -13 -24
-8 -32 20 -33 21 0 26 -4 26 -19 0 -16 -11 -22 -35 -22 -3 1 -8 1 -11 1 -6 0
-26 14 -26 18 0 2 -4 3 -9 2 -1 0 -7 -1 -13 -1 -9 -1 -12 -3 -16 -8 -12 -14
-18 -19 -26 -23 l-9 -5 -166 -1 -166 -1 -9 -5 c-12 -6 -15 -10 -24 -29 -7 -16
-8 -17 -22 -26 -17 -11 -22 -18 -22 -31 0 -12 8 -22 25 -28 11 -4 13 -4 190
-4 l178 0 6 -6 c3 -3 5 -6 4 -6 -1 -1 -4 -16 -7 -34 -3 -19 -9 -46 -12 -61 -3
-16 -6 -30 -7 -33 -9 -46 -40 -157 -62 -222 -5 -15 -10 -28 -10 -29 -1 -3 -3
-9 -11 -31 -5 -12 -10 -26 -13 -32 -16 -44 -60 -139 -76 -167 -8 -14 -10 -26
-7 -50 3 -20 2 -21 -28 -33 -4 -2 -9 -4 -11 -6 -2 -2 -4 -4 -5 -4 -1 0 -8 -9
-15 -20 -8 -12 -14 -21 -15 -22 0 -1 -3 -5 -6 -9 -17 -26 -29 -43 -35 -50 -4
-4 -11 -12 -15 -17 -4 -5 -8 -10 -9 -12 -7 -6 -6 -28 1 -43 6 -15 6 -30 -2
-37 -3 -3 -7 -6 -9 -6 -12 -1 -17 0 -26 3 -11 4 -28 4 -35 0 -9 -3 -52 -45
-55 -52 -11 -26 12 -59 41 -59 3 0 12 2 19 5 8 2 19 6 26 8 15 4 34 13 58 27
10 6 20 12 23 13 3 2 7 5 10 7 3 1 10 6 15 9 11 6 61 39 63 41 1 1 4 3 7 5 7
4 51 37 53 39 1 1 7 6 14 11 23 18 30 31 30 59 0 8 1 11 5 15 4 4 6 5 24 5 31
0 32 1 61 29 29 30 30 33 31 59 0 21 2 25 13 26 18 1 34 6 42 14 6 6 31 38 48
61 9 14 6 33 -8 47 -12 12 -14 16 -15 28 0 19 9 29 28 29 6 0 13 -2 17 -4 7
-4 26 -4 34 -1 11 4 13 7 12 19 0 14 -2 17 -14 31 -6 6 -10 12 -10 14 -1 15 0
20 5 24 2 3 4 6 4 8 1 8 1 8 7 6 3 -1 8 -4 13 -6 7 -4 8 -4 21 -3 17 3 24 8
31 21 13 28 25 54 25 55 0 1 2 5 4 11 16 35 18 42 19 68 1 33 1 31 15 47 7 8
13 15 14 16 3 5 14 34 14 40 1 5 1 5 1 1 1 -3 2 -4 3 -2 1 2 2 1 5 -4 3 -5 3
-20 3 -129 0 -109 0 -123 3 -132 2 -5 4 -11 5 -12 8 -10 14 -18 14 -20 0 -5 7
-8 18 -7 7 0 12 -1 13 -2 2 -4 14 11 19 23 5 14 13 21 24 21 9 0 28 7 33 12 8
7 12 20 10 31 -2 14 -1 40 1 45 3 6 9 8 19 8 15 0 21 -6 24 -27 1 -2 2 -9 3
-15 3 -17 2 -29 -3 -51 -3 -11 -5 -24 -6 -30 -2 -13 -9 -20 -22 -22 -15 -2
-30 -7 -45 -13 -8 -4 -15 -6 -22 -6 -9 0 -11 1 -19 9 -4 4 -8 9 -7 11 0 1 -1
1 -6 0 -3 -1 -10 -2 -15 -2 -6 1 -9 0 -11 -2 -2 -2 -2 -2 -1 0 1 2 0 2 -3 -1
-2 -2 -4 -5 -4 -6 0 -1 -3 -6 -7 -11 -6 -8 -7 -10 -7 -21 0 -11 0 -12 9 -20 4
-4 12 -11 16 -14 l8 -6 0 -16 c0 -15 0 -16 -6 -20 -22 -18 -25 -22 -29 -31
-11 -24 -5 -57 13 -72 3 -2 5 -4 5 -5 0 -1 5 -7 12 -14 7 -6 12 -12 12 -13 0
-1 1 -2 2 -1 1 1 2 0 3 -1 1 -1 3 -2 6 -2 3 0 7 -2 10 -6 l5 -7 -4 -4 c-4 -5
-5 -5 -13 -1 -5 2 -11 5 -13 8 -4 5 -4 5 -11 3 -5 -2 -10 -3 -13 -3 -5 0 -7
-2 -11 -7 -8 -14 -9 -22 -9 -64 l0 -39 -6 -6 -6 -6 -37 1 c-21 1 -52 2 -70 3
-18 1 -42 2 -55 3 -13 1 -24 2 -25 2 -4 1 -23 -4 -33 -9 -4 -2 -16 -12 -26
-22 -10 -10 -19 -18 -21 -18 -1 0 -6 -2 -10 -3 -5 -2 -9 -4 -11 -3 -2 0 -2 0
-1 -1 2 -1 3 -8 3 -18 1 -18 -1 -17 36 -26 24 -6 58 -19 77 -29 14 -8 23 -9
41 -4 21 6 24 6 29 1 3 -3 3 -5 1 -12 -10 -38 -11 -31 6 -72 4 -11 8 -23 10
-27 4 -12 12 -64 15 -89 2 -19 5 -27 14 -36 15 -15 35 -21 66 -20 10 0 21 1
24 2 9 2 17 3 28 4 26 3 47 10 60 20 11 8 21 11 45 12 20 0 24 1 35 6 6 3 16
7 23 10 19 9 54 34 71 51 44 43 69 98 76 168 2 18 -6 30 -25 35 -9 2 -12 2
-21 0 -18 -5 -20 -4 -26 19 -5 18 0 33 13 39 6 2 22 3 23 1 1 -1 6 0 12 1 5 2
11 4 12 4 4 0 13 12 15 19 2 4 2 17 2 31 -1 29 -3 34 -21 54 -18 18 -18 24 0
42 22 24 20 10 21 164 l0 133 -7 21 c-9 26 -9 32 0 58 11 33 9 58 -6 72 -5 5
-29 17 -33 17 -3 0 -10 9 -12 18 -2 6 -2 10 0 17 2 8 9 17 12 17 4 0 27 12 31
16 7 6 10 5 15 -2 3 -4 5 -7 6 -8 1 -1 2 -4 4 -8 1 -4 8 -12 15 -19 18 -18 18
-20 13 -43 -3 -11 -4 -22 -4 -28 2 -16 46 -147 57 -167 4 -8 17 -22 24 -26 12
-6 14 -11 14 -40 l0 -26 10 -20 c13 -25 17 -29 35 -29 11 0 15 1 17 4 8 7 18
12 27 12 10 0 18 -4 18 -9 0 -2 1 -3 2 -2 2 1 2 0 3 -9 0 -6 -9 -19 -17 -24
-10 -6 -22 -16 -22 -19 0 -1 -1 -4 -3 -5 -4 -4 -3 -23 3 -35 10 -20 43 -32 55
-20 1 2 3 3 4 3 1 0 7 6 13 12 20 23 19 22 30 22 13 0 17 -4 22 -21 6 -24 1
-31 -17 -28 -8 1 -11 1 -24 -6 -18 -9 -23 -15 -24 -30 -2 -15 0 -24 8 -33 3
-4 10 -13 14 -19 9 -12 12 -16 24 -31 3 -4 9 -11 13 -16 4 -5 11 -13 16 -19 5
-6 14 -16 20 -23 21 -24 72 -76 105 -107 48 -45 43 -41 54 -41 28 0 39 20 39
69 0 34 1 37 22 50 8 6 18 14 22 19 3 5 8 12 11 15 14 20 21 28 38 44 9 9 21
20 26 23 4 3 8 6 9 6 3 4 42 23 61 29 26 9 27 9 39 19 17 14 26 32 22 49 -6
27 -28 31 -54 9 -6 -5 -11 -8 -15 -8 -7 0 -13 7 -13 15 1 10 -5 28 -11 33 -3
3 -11 9 -18 13 -6 4 -16 11 -21 16 -8 7 -40 29 -43 29 -3 0 -75 47 -102 66 -8
6 -20 13 -28 17 -18 10 -27 17 -37 28 -4 6 -11 13 -15 17 -5 4 -16 14 -25 22
-9 8 -22 20 -29 27 l-12 12 -13 -1 c-24 -1 -32 -10 -40 -47 -2 -11 -5 -20 -6
-21 -2 -3 -8 -4 -12 -2 -3 2 -9 17 -11 27 0 1 -1 3 -2 5 -1 1 -1 2 0 2 0 0 -2
6 -5 14 -11 23 -9 38 8 50 12 9 16 17 16 31 0 8 -1 12 -3 15 -9 9 -37 44 -54
66 -16 23 -28 30 -52 32 -18 1 -23 9 -15 24 4 7 5 8 30 22 16 9 84 49 94 54 3
2 8 6 12 8 15 9 22 13 45 28 31 19 123 80 127 83 1 2 3 3 4 3 1 0 4 2 7 5 3 3
7 5 7 5 1 0 3 1 4 3 2 1 10 7 19 13 8 5 16 11 18 12 1 1 11 9 22 17 11 7 23
16 26 19 21 16 53 39 59 42 10 5 29 10 37 10 4 0 13 2 20 4 12 4 16 6 28 19
20 20 22 24 23 39 0 8 -1 15 -2 18 -2 2 -15 12 -29 21 -48 32 -58 38 -79 52
-25 16 -48 31 -75 49 -39 25 -71 46 -98 63 -5 4 -19 12 -30 19 -28 19 -28 19
-40 17 -18 -2 -22 -7 -42 -50 -11 -23 -35 -73 -48 -97 -11 -20 -11 -22 -10
-32 0 -8 3 -16 7 -25 10 -21 9 -40 -4 -47 -3 -1 -29 -6 -39 -7 -2 0 -3 0 -3
-1 0 -1 0 -9 0 -17 0 -15 0 -16 5 -20 3 -3 7 -5 8 -5 1 0 5 -3 8 -6 6 -6 6
-12 4 -30 -2 -10 2 -30 7 -40 5 -10 5 -26 0 -32 -5 -6 -14 -7 -37 -4 -32 4
-45 -2 -59 -31 -4 -7 -9 -15 -11 -16 -5 -3 -25 -4 -29 -2 -1 1 -7 0 -13 -1
-28 -6 -32 -4 -45 27 -6 12 -11 24 -12 26 -1 2 -7 17 -13 33 -6 16 -12 31 -13
33 -13 30 -56 176 -63 219 -1 3 -2 9 -3 14 -14 63 -15 71 -15 182 l0 97 6 8
c3 4 5 8 6 7 0 0 5 2 11 5 19 11 33 29 42 53 3 9 3 10 -1 26 -2 7 -7 14 -18
19 -13 8 -30 8 -60 0 -11 -3 -24 -5 -27 -5 -3 1 -6 0 -6 -1 0 -1 -1 -1 -1 1
-1 1 -3 2 -4 2 -2 0 -3 1 -3 2 0 1 -3 5 -7 9 l-6 7 -57 6 c-31 3 -62 6 -68 7
-6 1 -33 3 -61 6 -67 7 -75 7 -81 5z m59 -64 c7 -6 7 -19 1 -25 -6 -7 -19 -7
-25 -1 -7 6 -7 19 -1 25 6 7 19 7 25 1z m228 -9 c2 -6 3 -13 3 -22 -1 -12 -2
-14 -7 -19 -5 -4 -7 -4 -20 -4 -23 2 -28 9 -23 32 3 12 7 16 20 19 20 5 23 4
27 -6z m-80 -55 c5 -4 5 -8 -1 -27 -2 -7 -4 -14 -5 -16 0 -2 -2 -8 -3 -13 -3
-13 -1 -43 4 -58 5 -16 5 -19 0 -24 -5 -5 -13 -5 -17 -1 -2 1 -6 11 -10 20 -3
10 -10 23 -15 30 -12 15 -12 25 -1 42 4 7 9 15 11 18 12 28 16 33 26 33 3 0 8
-2 11 -4z m30 -185 c2 -1 6 -8 8 -15 3 -7 8 -20 11 -28 7 -15 7 -15 3 -21 -2
-3 -5 -5 -7 -5 -4 0 -13 9 -15 15 0 2 -6 11 -12 20 -12 18 -14 25 -7 33 4 5
13 5 19 1z m-137 -31 c0 -1 2 -2 3 -2 2 0 4 -2 5 -4 3 -5 20 -18 29 -23 10 -5
15 -11 17 -21 1 -6 4 -15 7 -22 6 -11 7 -13 14 -20 1 -2 3 -5 3 -6 0 -1 1 -3
3 -4 4 -4 4 -15 -1 -20 -8 -8 -21 -3 -30 10 -7 9 -15 16 -32 25 -8 4 -15 9
-17 13 -10 14 -12 17 -20 20 -8 4 -18 5 -37 4 -12 0 -18 6 -18 19 0 7 1 11 4
13 3 4 33 15 53 21 5 1 16 -1 17 -3z m-4 -196 c5 -5 5 -11 0 -16 -10 -10 -27
5 -16 16 4 4 12 4 16 0z m899 -16 c10 -9 3 -26 -10 -26 -8 0 -15 7 -15 15 0
13 16 20 25 11z m-670 -27 c12 -7 14 -33 3 -43 -8 -9 -32 -9 -40 0 -9 8 -9 32
0 41 7 7 27 8 37 2z m-219 -49 c4 -4 5 -11 2 -13 -1 -1 -2 -4 -3 -7 -1 -4 -2
-6 -4 -5 -1 1 -4 2 -5 2 -2 1 -4 3 -4 4 0 2 -1 4 -3 4 -2 1 -3 4 -3 6 0 11 13
16 20 9z m128 -18 c5 -5 5 -15 0 -20 -9 -9 -24 -2 -24 10 0 8 6 14 14 14 3 0
8 -2 10 -4z m-115 -35 c10 -5 13 -12 12 -23 -1 -8 -1 -11 3 -18 5 -9 21 -26
24 -26 4 0 8 -13 9 -22 0 -17 -8 -28 -21 -28 -2 0 -10 -3 -18 -6 -12 -5 -17
-8 -28 -20 -14 -15 -19 -18 -31 -17 -16 1 -23 6 -27 21 -3 12 3 32 9 32 2 0 3
1 3 2 0 1 1 2 3 2 3 0 4 27 1 29 -1 1 -2 2 -1 3 1 2 -12 12 -16 12 -4 0 -9 9
-9 17 0 12 7 18 18 16 22 -3 40 -8 40 -11 0 -1 2 -2 5 -2 3 0 5 1 5 2 0 1 1 2
2 1 1 0 1 3 0 7 -1 6 0 9 5 19 7 14 6 14 12 10z m220 -8 c3 -5 3 -5 0 -10 -2
-3 -5 -5 -7 -5 -2 0 -5 2 -7 5 -3 5 -3 5 0 10 2 3 5 5 7 5 2 0 5 -2 7 -5z
m-580 -30 c3 -5 3 -5 0 -10 -2 -3 -5 -5 -7 -5 -2 0 -5 2 -7 5 -3 5 -3 5 0 10
2 3 5 5 7 5 2 0 5 -2 7 -5z m139 -2 c7 -1 14 -4 16 -7 9 -8 9 -32 0 -40 -4 -5
-19 -9 -25 -7 -23 7 -55 18 -58 22 -8 7 -5 26 5 34 4 3 8 3 27 2 12 -1 28 -2
35 -4z m-105 -211 c6 -5 6 -11 2 -24 -9 -32 -11 -49 -5 -67 2 -8 6 -16 8 -18
8 -10 12 -17 12 -23 1 -13 0 -16 -4 -20 -3 -3 -5 -6 -5 -7 -1 -9 -1 -9 -7 -7
-7 2 -20 10 -25 16 -3 4 -4 14 -2 26 2 8 -2 24 -9 39 -8 16 -7 17 1 42 4 11 7
24 8 29 3 17 16 23 26 14z m358 -34 c10 -9 3 -26 -10 -26 -8 0 -15 7 -15 15 0
13 16 20 25 11z m374 -135 c-1 -2 -3 -2 -4 -2 -1 1 -8 2 -19 3 l-7 0 6 2 c3 1
9 2 13 3 4 1 7 1 8 2 0 0 2 0 3 -2 3 -3 3 -3 0 -6z m-53 5 c0 -1 7 -3 15 -4
l16 -2 -7 -4 c-4 -1 -8 -2 -8 -2 -1 0 -2 -1 -2 -2 0 -2 -16 -10 -22 -10 -10 0
-15 13 -8 22 3 4 16 6 16 2z m-882 -84 c7 -8 7 -34 0 -34 -1 0 -2 -2 -2 -4 0
-2 -1 -4 -2 -3 -1 1 -10 -26 -11 -37 -2 -12 -10 -19 -23 -19 -9 0 -11 1 -16 6
-9 9 -9 20 1 39 7 15 15 38 15 44 0 14 29 20 38 8z m55 -51 c3 -5 3 -5 0 -10
-5 -6 -8 -6 -13 -1 -5 5 -5 8 0 12 4 5 8 5 13 -1z m1023 -29 c8 -8 2 -25 -14
-38 -17 -14 -30 -18 -37 -12 -4 3 -6 10 -3 10 1 0 2 2 3 5 0 2 6 9 12 15 6 7
11 13 12 15 3 3 13 9 18 9 2 0 6 -2 9 -4z m190 -120 c22 -7 21 -28 -2 -43 -5
-4 -11 -9 -12 -11 -1 -3 -5 -7 -7 -10 -3 -3 -5 -6 -5 -6 0 -1 -3 -4 -7 -6 l-7
-4 -5 4 c-5 5 -5 5 -5 36 1 30 1 32 5 36 8 8 27 9 45 4z m-169 -61 c2 0 8 -2
12 -3 13 -3 16 -8 16 -25 0 -14 0 -16 -6 -20 -7 -7 -28 -7 -36 -1 -4 4 -12 27
-12 36 0 1 1 4 1 7 0 8 10 10 25 6z m-516 -26 c6 -4 6 -6 6 -20 0 -14 0 -16
-6 -20 -4 -4 -7 -5 -18 -5 -11 0 -14 1 -18 5 -6 4 -6 6 -6 20 0 14 0 16 6 20
4 4 7 5 18 5 11 0 14 -1 18 -5z m78 0 c5 -8 1 -16 -8 -16 -9 0 -13 8 -8 16 2
3 5 5 8 5 3 0 6 -2 8 -5z m662 -21 c5 -7 4 -25 -2 -31 -5 -6 -22 -9 -29 -5 -8
4 -11 27 -4 36 7 9 27 9 35 0z m-122 -10 c7 0 13 -25 8 -32 -2 -3 -3 -4 -3 -3
0 1 -1 1 -2 -1 -2 -4 -20 -1 -25 5 -6 6 -7 18 -2 25 3 4 14 8 19 7 1 -1 3 -1
5 -1z m64 -53 c6 -2 9 -8 11 -22 1 -20 -6 -28 -24 -28 -17 0 -23 6 -25 26 -1
12 -1 13 5 19 5 5 7 6 17 6 7 0 14 -1 16 -1z m-788 -46 c7 -7 6 -19 -3 -38 -9
-18 -11 -38 -5 -53 2 -6 5 -11 5 -12 1 0 2 -1 2 -3 0 -1 6 -8 14 -15 l14 -13
0 -12 c0 -10 -1 -12 -6 -17 -5 -5 -7 -6 -17 -6 -10 0 -12 1 -17 6 -3 3 -6 8
-6 10 0 6 0 6 -4 16 -2 4 -3 8 -3 8 1 0 0 3 -2 6 -3 7 -12 16 -21 23 -8 6 -15
20 -16 33 -1 16 0 19 12 33 6 7 13 17 16 22 11 18 27 23 37 12z m191 -87 c0
-14 -15 -21 -25 -12 -10 9 -4 24 11 29 7 3 7 3 10 -4 2 -3 4 -9 4 -13z m-227
-140 c7 -6 7 -19 1 -25 -6 -7 -19 -7 -25 -1 -7 6 -7 19 -1 25 6 7 19 7 25 1z"/>
<path d="M930 3087 c-10 -1 -11 -6 -5 -11 7 -5 23 -6 28 -1 2 2 3 3 3 2 0 -1
1 -1 2 0 1 1 0 3 -3 6 -5 5 -8 5 -25 4z"/>
<path d="M504 2217 c0 -2 -1 -3 -1 -3 -5 1 -9 0 -9 -2 0 -1 1 -2 2 -1 0 0 1
-4 0 -9 0 -7 1 -10 5 -16 3 -4 5 -6 5 -4 0 1 1 2 3 2 3 -1 4 24 0 27 -1 1 -3
3 -4 5 0 2 -1 2 -1 1z"/>
</g>
</svg>
