<?xml version="1.0" standalone="no"?>
<!DOCTYPE svg PUBLIC "-//W3C//DTD SVG 20010904//EN"
 "http://www.w3.org/TR/2001/REC-SVG-20010904/DTD/svg10.dtd">
<svg version="1.0" xmlns="http://www.w3.org/2000/svg"
 width="1100.000000pt" height="2850.000000pt" viewBox="0 0 1100.000000 2850.000000"
 preserveAspectRatio="xMidYMid meet">
<metadata>
Created by potrace 1.15, written by Peter Selinger 2001-2017
</metadata>
<g transform="translate(0.000000,2850.000000) scale(0.500000,-0.500000)"
fill="#000000" stroke="none">
<path d="M430 3809 c-6 -2 -15 -20 -14 -26 0 0 -1 -5 -2 -10 -4 -15 -15 -21
-32 -20 -14 2 -14 2 -23 0 -17 -3 -26 -10 -39 -32 -12 -19 -24 -23 -45 -14 -5
2 -16 4 -28 5 -25 2 -41 -3 -59 -17 -11 -8 -18 -11 -25 -9 -17 4 -40 -7 -45
-21 -3 -8 -3 -230 0 -239 4 -12 9 -17 24 -25 7 -4 14 -8 14 -8 4 2 10 -9 10
-18 0 -9 -6 -20 -10 -18 0 0 -7 -4 -14 -8 -20 -11 -25 -19 -27 -45 -2 -26 -9
-36 -33 -50 -38 -21 -44 -29 -44 -48 0 -11 -1 -9 37 -79 2 -4 8 -15 13 -24 5
-9 11 -21 14 -26 9 -17 16 -29 24 -44 4 -8 8 -14 8 -15 2 -1 -4 -7 -9 -10 -3
-1 -14 -2 -27 -2 -34 0 -48 -8 -49 -30 -1 -8 0 -10 4 -14 6 -5 21 -12 31 -13
12 -2 17 -6 25 -18 6 -10 15 -17 34 -30 26 -18 25 -18 62 -19 29 0 35 0 50 4
23 6 33 6 55 0 10 -2 21 -4 24 -4 6 1 8 0 12 -4 2 -4 6 -6 7 -6 2 0 3 -1 2 -2
0 0 1 -3 2 -6 2 -3 3 -4 3 -3 0 1 1 0 3 -2 2 -2 7 -3 15 -3 7 0 12 -1 13 -2 0
-2 1 -1 1 1 0 7 8 11 24 12 l14 2 7 -8 c4 -4 9 -10 11 -12 3 -4 8 -6 39 -19 8
-3 11 -6 14 -12 5 -11 5 -17 3 -27 -6 -23 -37 -28 -54 -8 -15 16 -15 16 -52
34 -3 1 -5 4 -6 7 -1 3 -2 4 -2 3 0 -2 -4 -3 -12 -3 -8 0 -13 -1 -15 -3 -2 -2
-3 -3 -3 -2 0 1 -2 -1 -3 -4 -3 -4 -4 -13 -5 -28 -1 -15 -2 -22 -4 -23 -1 0
-3 -2 -5 -3 -2 -3 -3 -3 -40 15 -14 7 -34 16 -44 21 -18 8 -28 11 -51 14 -15
2 -20 5 -32 18 -12 13 -22 18 -38 21 -14 3 -25 -1 -34 -12 -5 -5 -12 -21 -14
-30 0 -4 -4 -19 -7 -33 -1 -2 -2 -13 -2 -23 -1 -16 -1 -21 3 -30 2 -6 5 -11 6
-12 5 -3 14 -25 14 -32 0 -7 -9 -29 -14 -32 -1 -1 -4 -6 -6 -12 -4 -10 -4 -14
-4 -34 1 -22 1 -24 9 -40 11 -23 12 -24 8 -34 -7 -17 -28 -52 -33 -55 -3 -1
-13 -11 -23 -22 l-19 -18 0 -14 c0 -13 1 -15 6 -21 3 -4 7 -8 10 -10 6 -2 36
-21 45 -27 4 -3 7 -5 8 -5 0 0 6 -4 13 -8 7 -4 17 -10 22 -13 5 -3 13 -8 18
-11 5 -3 13 -8 18 -11 5 -3 13 -8 18 -11 5 -3 13 -8 18 -11 8 -5 33 -20 50
-31 8 -4 24 -6 33 -2 8 3 17 13 19 22 2 9 2 40 0 40 -1 0 -2 -1 -2 -2 0 -2 -1
-2 -1 -1 -1 0 -3 0 -6 -1 -2 -2 -5 -3 -5 -2 -1 0 -2 -1 -2 -2 0 -1 -15 -1 -28
0 -1 0 -5 3 -8 6 -5 5 -6 7 -6 18 0 11 1 13 6 18 3 3 7 6 9 6 22 1 28 -2 35
-21 9 -20 9 -20 26 -15 11 3 15 6 16 9 1 3 3 5 4 6 1 1 2 3 2 5 0 4 0 4 4 0 6
-5 8 -15 8 -40 0 -25 2 -33 11 -50 3 -6 7 -13 8 -16 1 -3 3 -8 4 -12 2 -23 11
-36 31 -47 12 -6 45 -15 61 -15 7 0 13 -9 13 -21 0 -20 -10 -25 -40 -18 -10 3
-26 5 -35 6 -23 2 -25 4 -32 27 -3 10 -7 19 -9 20 -1 0 -4 2 -6 4 -2 2 -10 7
-17 10 -6 3 -16 9 -21 13 -22 18 -39 19 -55 4 -2 -1 -7 -5 -13 -9 -14 -9 -26
-9 -47 1 -15 7 -31 12 -37 10 -14 -2 -25 -13 -35 -33 -8 -15 -11 -18 -21 -18
-9 0 -14 4 -25 19 -11 16 -22 21 -38 21 -22 0 -36 -11 -38 -30 -1 -9 0 -12 29
-70 17 -33 33 -63 36 -67 6 -6 6 -6 21 -5 8 1 15 1 16 2 0 1 3 5 6 10 10 14
13 16 27 17 15 1 31 -4 37 -10 4 -5 3 -14 -2 -39 -5 -20 -8 -23 -29 -23 -26 1
-35 -5 -36 -26 0 -9 1 -13 15 -40 8 -17 17 -33 20 -37 6 -7 6 -7 19 -6 16 0
21 4 29 24 7 14 11 16 37 18 13 1 25 3 27 3 35 9 60 20 62 25 1 2 2 4 3 4 0 0
1 7 0 14 l-1 15 -9 5 c-8 5 -11 5 -33 4 -22 0 -24 0 -28 4 -7 6 -7 18 0 24 4
4 6 4 18 3 7 0 18 -3 24 -5 7 -2 18 -4 24 -5 32 -3 36 -4 41 -6 3 -2 7 -7 10
-12 6 -11 16 -18 28 -21 9 -1 14 0 81 22 40 13 79 28 87 32 9 4 22 10 30 12 8
2 20 6 26 8 8 2 15 6 24 14 22 19 21 19 50 18 28 0 28 0 81 19 14 5 29 10 32
11 9 4 10 5 9 21 0 19 -3 22 -15 24 -17 3 -25 17 -21 35 2 11 7 16 18 18 13 3
24 0 32 -10 15 -19 28 -26 49 -29 4 -1 14 -3 22 -6 21 -7 32 -7 50 2 8 3 16 9
19 13 6 6 15 23 18 36 4 16 20 19 44 7 8 -4 18 -8 23 -8 9 -2 17 -8 17 -14 0
-6 -17 -65 -28 -95 -18 -53 -36 -96 -58 -142 -14 -28 -14 -29 -13 -40 1 -14 5
-21 18 -34 15 -15 31 -20 46 -13 5 2 36 24 42 30 1 1 6 5 10 8 4 3 17 14 29
24 36 31 77 74 113 117 7 9 19 26 19 28 0 1 1 2 2 2 5 3 43 58 58 85 2 3 6 11
10 17 8 14 40 79 40 81 0 1 1 5 3 8 2 4 3 9 2 17 -1 12 -2 15 -10 30 -5 10 -6
21 -2 27 2 3 9 7 16 10 28 12 36 24 35 54 -1 15 -1 15 6 22 4 5 9 12 11 16 5
13 20 90 24 125 1 5 2 14 3 21 10 67 17 183 17 300 l0 64 7 6 6 7 7 -7 6 -6
-1 -239 c0 -217 0 -239 3 -244 4 -7 9 -13 9 -11 0 1 1 1 2 0 1 -3 26 -9 27 -7
2 3 14 2 22 -1 8 -4 12 -12 10 -19 0 -3 -1 -5 -1 -6 -1 -6 -26 -11 -30 -7 -3
3 -26 -2 -28 -6 -1 -1 -2 -1 -2 0 0 2 -5 -4 -9 -11 -3 -5 -3 -12 -3 -52 1 -50
3 -58 16 -68 3 -3 10 -8 14 -11 7 -7 19 -12 22 -10 1 1 2 0 2 -2 0 -2 -1 -3
-2 -3 -1 0 -2 -1 -1 -2 1 -1 0 -2 -1 -2 0 0 -5 -6 -10 -13 -5 -7 -9 -13 -10
-13 -3 0 -20 -17 -23 -23 -7 -17 -7 -24 0 -31 4 -4 7 -5 17 -4 8 0 13 -1 14
-3 1 -1 2 -1 2 1 0 11 29 14 39 5 6 -4 6 -6 6 -20 0 -14 0 -16 -6 -20 -10 -9
-39 -6 -39 5 0 2 -1 2 -2 1 -1 -2 -6 -3 -14 -3 -11 1 -13 0 -18 -5 l-5 -5 -1
-100 c0 -117 -1 -114 17 -133 4 -5 10 -8 20 -11 22 -6 57 -12 62 -11 2 1 5 2
6 2 5 1 15 9 22 19 18 23 27 24 49 5 14 -12 33 -14 53 -5 6 3 12 5 14 5 7 2
34 13 41 18 5 3 8 5 9 5 2 0 13 8 19 14 3 2 6 4 6 4 4 0 17 21 20 32 4 12 4
26 4 312 l0 300 -5 11 c-5 10 -13 18 -26 26 -19 11 -19 29 0 50 7 8 9 10 12
17 4 8 3 23 -3 31 -8 12 -14 26 -14 33 0 7 2 9 14 22 23 22 22 19 22 108 l-1
75 6 6 c6 6 6 6 27 5 20 0 22 0 32 6 10 4 12 7 21 21 12 21 15 23 24 23 23 0
28 0 34 2 4 1 8 4 9 5 3 4 4 27 2 27 -1 0 -2 1 -2 3 0 1 -8 10 -17 18 -39 36
-46 42 -63 57 -8 7 -20 17 -25 22 -17 15 -37 32 -45 39 -4 3 -13 10 -19 16
-10 9 -11 9 -22 9 -16 -1 -26 -7 -32 -21 -4 -10 -11 -14 -25 -14 -13 0 -21 4
-24 12 -2 6 -10 16 -10 14 0 -1 -1 -1 -2 1 -2 4 -32 4 -33 1 -1 -2 -8 -13 -35
-48 -15 -21 -24 -39 -24 -48 0 -9 -5 -18 -9 -20 -2 0 -15 -1 -28 -1 -32 0 -42
-3 -54 -18 -9 -10 -16 -16 -21 -17 -8 -2 -18 4 -23 16 -3 5 -7 11 -8 12 -2 2
-5 8 -8 14 -7 14 -6 25 2 45 7 16 9 41 5 58 -2 10 -4 12 -19 28 -9 9 -17 18
-17 20 -1 5 -1 11 0 16 0 2 7 11 17 20 13 14 17 19 19 26 1 7 2 32 2 79 l0 69
6 5 c3 3 7 6 9 6 8 1 70 9 74 10 2 0 9 1 15 2 6 1 12 2 14 2 1 1 8 2 14 2 6 1
13 2 16 2 7 2 10 2 32 6 10 2 21 3 24 4 3 0 13 2 24 4 10 2 40 8 67 13 56 11
58 11 85 6 29 -6 61 -7 79 -3 33 7 61 26 64 43 2 17 -2 25 -28 46 -6 4 -22 18
-47 40 -6 5 -13 11 -16 13 -3 2 -12 10 -19 17 -8 6 -17 14 -20 16 -3 3 -9 8
-13 12 -4 3 -10 8 -14 11 -3 2 -12 10 -19 17 -8 6 -17 14 -20 17 -3 2 -15 11
-25 21 -10 9 -22 18 -25 19 -10 4 -24 4 -38 -2 -17 -7 -27 -7 -37 -1 -12 8
-19 11 -32 10 -11 -1 -13 -2 -22 -11 -10 -9 -31 -27 -63 -53 -14 -12 -16 -13
-30 -24 -8 -6 -14 -11 -15 -12 -1 -1 -5 -4 -9 -7 -4 -3 -8 -6 -9 -7 -1 -1 -13
-10 -27 -20 -42 -32 -48 -36 -51 -38 -7 -6 -22 -10 -40 -10 -27 1 -41 -9 -46
-35 -2 -8 -4 -12 -8 -15 l-6 -4 -5 5 c-5 4 -6 6 -6 17 0 6 1 13 1 15 2 7 -4
30 -9 37 -7 8 -8 8 -68 27 -48 15 -49 16 -58 13 -23 -7 -37 -9 -41 -4 -2 2 -6
5 -10 8 -4 3 -8 6 -10 8 -2 2 -6 5 -10 8 -4 3 -8 6 -10 8 -2 2 -6 5 -10 8 -4
3 -8 6 -10 8 -2 2 -6 5 -10 8 -4 3 -8 6 -10 8 -2 2 -6 5 -10 8 -4 3 -9 7 -11
9 -5 5 -23 13 -30 13 -6 0 -16 -8 -17 -13 0 -2 0 -11 0 -19 0 -14 0 -16 -5
-21 -6 -6 -21 -7 -31 -2 -8 4 -24 6 -33 3 -6 -1 -13 -6 -21 -14 -9 -9 -15 -13
-26 -17 -21 -8 -32 -15 -37 -23 -2 -4 -8 -10 -12 -14 -6 -7 -7 -8 -17 -8 -10
0 -11 1 -17 8 -4 4 -10 10 -12 15 -3 4 -8 9 -12 10 -4 2 -7 4 -7 5 0 2 -25 4
-92 5 -34 0 -38 0 -46 5 -7 3 -53 39 -63 49 -1 1 -6 5 -10 8 -4 3 -9 7 -11 9
-2 2 -13 11 -25 21 -12 10 -22 18 -23 19 -1 1 -7 6 -13 12 -12 9 -13 10 -23
10 -6 0 -13 -1 -16 -3z m1343 -123 c7 -3 12 -13 12 -25 0 -19 -9 -28 -28 -28
-19 0 -28 9 -28 28 0 24 19 34 44 25z m-94 -36 c10 -9 3 -26 -10 -26 -8 0 -15
7 -15 15 0 13 16 20 25 11z m-549 -37 c5 -7 5 -18 0 -24 -6 -7 -19 -7 -25 -1
-7 6 -7 19 -1 25 7 7 20 7 26 0z m-267 -27 c6 -6 7 -19 2 -26 -6 -7 -12 -7
-21 0 -7 5 -8 7 -8 13 0 15 17 23 27 13z m-288 -12 c3 -1 5 -3 5 -4 0 -2 20
-14 24 -14 2 0 6 -3 9 -7 5 -5 6 -8 6 -15 -4 -83 -9 -147 -13 -156 -1 -3 -3
-7 -6 -9 -3 -3 -4 -3 -10 2 -12 10 -33 15 -44 9 -2 -1 -6 -2 -10 -2 -7 0 -24
-6 -43 -15 -9 -5 -20 -9 -24 -10 -4 0 -11 -2 -15 -4 -4 -1 -8 -3 -9 -3 -11 -1
-19 -20 -15 -40 4 -23 0 -31 -17 -33 -8 -1 -9 -1 -13 3 -2 3 -4 7 -4 10 0 3
-1 8 -2 12 -1 4 -3 10 -3 14 -1 4 -2 12 -4 18 -6 24 -6 29 0 36 4 5 7 6 13 6
13 0 17 3 36 25 8 10 12 11 44 11 26 0 26 0 32 6 5 5 6 7 6 16 0 6 -1 13 -3
16 -4 10 -44 37 -94 62 -34 18 -39 23 -31 31 4 4 12 6 42 13 20 4 55 12 76 18
52 13 48 13 67 4z m-288 -22 c7 -3 12 -13 12 -25 0 -19 -9 -28 -28 -28 -19 0
-28 9 -28 28 0 24 19 34 44 25z m1326 -5 c5 -8 1 -16 -8 -16 -9 0 -13 8 -8 16
2 3 5 5 8 5 3 0 6 -2 8 -5z m-861 -18 c7 -3 11 -13 11 -24 0 -12 -13 -47 -19
-53 -14 -14 -28 -2 -33 26 0 4 -2 11 -2 15 -2 11 -2 22 2 29 6 11 26 14 41 7z
m131 -47 c10 -7 12 -22 3 -34 -12 -16 -30 -6 -30 16 0 12 7 20 18 20 4 0 8 -1
9 -2z m272 -17 c7 -7 18 -11 34 -12 5 -1 11 -2 13 -4 2 -2 4 -3 5 -3 0 0 4 -3
8 -7 6 -6 36 -22 39 -22 4 2 10 -9 10 -18 0 -19 -18 -26 -36 -14 -17 12 -21
14 -33 18 -11 4 -13 4 -22 2 -5 -2 -12 -5 -16 -7 -6 -4 -6 -5 -6 -14 1 -6 1
-12 2 -14 1 -4 17 -16 20 -16 1 0 5 -3 8 -6 10 -9 10 -20 1 -29 -4 -4 -8 -7
-8 -7 -5 0 -19 -12 -24 -20 l-5 -9 -1 -139 c-1 -143 -1 -143 -9 -151 -1 -1 -5
1 -13 10 l-11 11 -16 0 -15 -1 -10 -11 c-12 -13 -21 -17 -33 -14 -11 2 -16 6
-18 14 -1 3 -2 7 -2 10 -1 2 -2 6 -2 9 -1 2 -1 9 -1 15 0 11 0 12 -6 13 -3 1
-7 1 -8 0 -1 0 -3 0 -4 2 -1 2 -4 3 -5 3 -2 0 -3 1 -3 3 0 2 -1 4 -3 4 -4 2
-4 10 1 15 4 4 12 4 15 1 0 -2 2 -3 3 -3 1 0 4 -1 5 -3 4 -3 26 -4 34 -1 2 1
6 5 8 9 3 5 9 14 15 22 12 16 29 51 37 75 10 31 20 94 24 143 1 9 2 20 2 24 0
4 1 18 2 31 2 49 3 67 5 77 1 5 1 11 1 12 -1 0 -1 1 0 1 1 0 4 4 6 8 4 8 4 8
5 4 0 -3 3 -8 7 -11z m-746 -10 c3 -3 5 -7 5 -9 1 -16 1 -17 -5 -23 -4 -4 -8
-7 -9 -7 -5 0 -15 -9 -15 -14 0 -3 -1 -6 -1 -6 0 -3 -14 -8 -21 -8 -7 0 -17 9
-17 15 0 4 6 18 9 19 0 0 1 2 1 3 0 2 1 3 2 3 0 0 5 6 10 13 11 17 14 19 27
19 7 0 10 -1 14 -5z m660 -25 c11 -10 3 -28 -11 -28 -9 0 -16 6 -16 16 0 14
17 22 27 12z m-340 -63 c3 -3 3 -3 0 -6 -3 -3 -3 -3 -6 0 -3 2 -3 3 -1 6 4 4
4 4 7 0z m125 -24 c3 -5 6 -10 6 -11 0 -5 6 -20 8 -20 1 0 2 -1 2 -3 0 -2 6
-9 13 -16 17 -17 19 -20 19 -34 0 -10 -1 -12 -6 -17 -6 -6 -7 -6 -20 -6 -11 0
-14 2 -27 18 -24 30 -27 35 -28 51 -1 8 -1 16 1 18 2 5 22 27 24 27 1 0 4 -3
8 -7z m465 -14 c2 -1 3 -4 3 -5 0 -2 -6 -14 -8 -14 0 0 -3 -2 -6 -5 -6 -5 -20
-11 -26 -11 -6 0 -12 7 -12 14 0 14 39 31 49 21z m-739 -8 c9 -4 11 -8 8 -21
-4 -21 -9 -26 -27 -26 -11 0 -14 1 -18 5 -6 4 -6 6 -6 20 0 14 0 16 6 20 6 6
24 7 37 2z m-199 -75 c3 -3 5 -8 6 -13 1 -4 2 -9 2 -10 2 -3 -3 -21 -8 -24
-12 -11 -34 -11 -43 0 -9 10 -9 32 0 42 8 9 34 12 43 5z m-138 -8 c7 -6 7 -19
1 -25 -6 -7 -19 -7 -25 -1 -7 6 -7 19 -1 25 6 7 19 7 25 1z m284 -45 c12 -12
3 -31 -13 -31 -11 0 -18 7 -18 18 0 11 7 18 18 18 6 0 9 -1 13 -5z m137 -27
c5 -5 5 -15 0 -20 -9 -9 -24 -2 -24 10 0 8 6 14 14 14 3 0 8 -2 10 -4z m123 1
c4 -1 7 -4 8 -6 6 -9 30 -20 51 -24 15 -2 20 -9 20 -25 0 -12 -4 -20 -12 -25
-20 -12 -32 -37 -23 -50 2 -3 3 -5 2 -5 -1 0 0 -1 1 -3 1 -2 2 -3 1 -3 0 0 0
-2 1 -5 1 -4 1 -5 -6 -9 -6 -5 -9 -5 -41 -6 -37 -2 -39 -2 -57 -15 -17 -12
-21 -18 -21 -33 -1 -19 3 -22 39 -29 15 -3 19 -7 23 -21 6 -22 8 -27 19 -38
13 -13 22 -17 41 -16 10 0 12 1 17 5 3 3 6 7 6 9 1 1 6 5 12 8 l11 6 71 0 c77
0 81 1 92 12 4 5 10 21 11 34 2 12 6 16 19 18 13 1 18 -4 22 -17 3 -14 9 -25
16 -28 7 -4 22 -4 22 0 0 2 4 -4 9 -15 3 -6 3 -13 2 -66 -1 -59 -1 -59 -6 -66
-5 -6 -5 -6 -9 -3 -4 5 -19 11 -38 17 -18 5 -19 6 -29 20 -16 22 -18 24 -39
39 -14 11 -15 11 -25 10 -11 -1 -18 -4 -25 -11 -12 -11 -12 -11 -34 -11 -27 0
-30 -2 -47 -24 -3 -4 -7 -9 -8 -11 -2 -1 -3 -4 -3 -5 0 -5 -9 7 -13 17 -7 17
-12 26 -19 32 -7 6 -7 6 -22 5 -9 0 -19 -2 -22 -4 -7 -3 -20 -4 -26 -1 -4 2
-11 15 -16 29 -1 3 -3 5 -4 5 -1 0 -2 2 -2 4 -1 2 -8 7 -15 13 -8 5 -17 13
-21 19 -4 5 -11 13 -15 17 -10 10 -16 21 -13 25 4 6 -2 36 -9 44 -4 5 -24 19
-31 22 -17 6 -33 16 -25 16 1 0 4 2 6 4 2 1 7 6 11 9 32 26 70 64 92 93 4 5 8
10 10 12 1 1 6 8 10 14 9 13 13 17 19 19 2 0 4 1 5 1 0 0 3 -1 7 -3z m427 -13
c10 -5 13 -27 6 -35 -10 -11 -27 -3 -30 13 -3 19 9 30 24 22z m-1001 -7 c7 -4
37 -5 52 -2 10 2 17 -3 17 -13 0 -11 -6 -15 -21 -13 -15 2 -29 -1 -44 -9 -14
-8 -29 -8 -37 0 -5 5 -6 7 -6 17 0 16 7 23 22 23 6 0 13 -1 17 -3z m211 -3 c3
-1 8 -5 12 -8 14 -11 37 -21 54 -25 10 -2 15 -5 18 -8 1 -2 4 -5 6 -6 3 -1 3
-1 0 -1 -2 0 -5 -3 -7 -6 -2 -4 -7 -11 -10 -15 -6 -8 -7 -10 -7 -21 0 -14 2
-20 10 -30 8 -10 11 -21 8 -33 -2 -9 -4 -10 -17 -21 -4 -4 -8 -9 -8 -12 -3 -9
-2 -28 2 -31 4 -5 4 -23 0 -29 -2 -2 -8 -5 -12 -6 -21 -5 -27 0 -27 19 0 13 0
14 9 23 8 9 8 9 9 23 0 13 0 15 -5 20 -4 4 -6 5 -18 5 -17 0 -20 -2 -30 -14
-6 -9 -8 -10 -15 -10 -5 0 -11 2 -15 3 -6 4 -27 5 -54 3 -10 0 -17 4 -22 14
-2 4 -8 10 -12 15 -9 9 -20 25 -17 25 1 0 2 2 4 5 4 10 12 18 66 69 19 18 37
36 40 39 13 14 26 19 38 13z m150 -44 c8 -7 2 -19 -8 -19 -5 0 -14 8 -14 12 0
2 -1 3 -2 3 -2 0 0 2 4 4 8 5 16 4 20 0z m1077 -28 c6 -8 4 -16 -10 -35 -7
-10 -15 -20 -16 -23 -7 -14 -29 -17 -39 -6 -12 11 -8 32 7 39 7 4 9 6 9 13 0
2 2 8 4 12 4 7 6 7 14 8 5 0 9 0 10 1 1 2 17 -6 21 -9z m-370 -18 c2 -3 3 -8
3 -17 0 -12 -1 -14 -6 -19 -6 -7 -9 -7 -20 -4 -14 4 -22 29 -12 40 7 9 27 9
35 0z m-392 -89 c8 -8 7 -25 -1 -33 -5 -5 -7 -6 -17 -6 -10 0 -12 1 -17 6 -11
10 -7 35 6 40 9 3 24 -1 29 -7z m508 -6 c4 -4 5 -7 5 -15 0 -14 -6 -20 -20
-20 -14 0 -20 6 -20 20 0 14 6 20 20 20 8 0 11 -1 15 -5z m280 -75 c7 -6 7
-19 1 -25 -6 -7 -19 -7 -25 -1 -7 6 -7 19 -1 25 6 7 19 7 25 1z m-1061 -72 c0
-55 -1 -66 -2 -51 -1 3 -3 8 -5 11 l-3 5 0 -5 c0 -3 -1 2 -2 11 -1 14 -3 20
-10 34 -10 21 -11 26 -3 42 8 17 12 19 20 15 l6 -3 -1 -59z m714 28 c8 -8 4
-30 -6 -35 -18 -9 -30 3 -24 25 3 12 22 18 30 10z m-82 -71 c6 -7 6 -22 0 -28
-8 -7 -21 -7 -29 0 -7 6 -8 21 -1 28 7 8 23 8 30 0z m342 -23 c5 -6 5 -12 0
-18 -7 -8 -22 -2 -22 9 0 11 15 17 22 9z m-922 -5 c3 -3 4 -6 4 -12 0 -11 -6
-17 -17 -17 -10 0 -15 5 -19 18 -2 9 -2 9 3 14 5 4 7 4 15 3 5 -1 11 -3 14 -6z
m369 -27 c4 -6 4 -24 -1 -30 -7 -9 -27 -9 -34 0 -5 6 -5 24 0 30 7 9 27 9 35
0z m-530 -3 c6 -4 6 -6 6 -20 0 -14 0 -16 -6 -20 -4 -4 -7 -5 -18 -5 -11 0
-14 1 -18 5 -6 4 -6 6 -6 20 0 14 0 16 6 20 4 4 7 5 18 5 11 0 14 -1 18 -5z
m672 -4 c13 -5 17 -11 17 -25 0 -14 -5 -21 -17 -24 -10 -3 -21 0 -27 7 -8 11
-4 34 6 42 6 4 9 4 21 0z m-903 -13 c5 -5 6 -7 6 -17 0 -17 -6 -22 -34 -28 -6
-1 -16 10 -15 16 0 1 1 7 2 13 2 16 9 22 24 22 10 0 12 -1 17 -6z m-51 -59 c3
-3 4 -8 4 -10 -3 -24 -4 -26 -9 -31 -6 -6 -7 -6 -18 -6 -11 0 -12 0 -18 6 -5
5 -6 7 -6 18 0 15 5 21 19 25 16 4 23 4 28 -2z m425 -24 c12 -7 32 -18 47 -26
14 -8 26 -15 26 -15 1 0 4 -2 7 -4 3 -2 13 -8 23 -13 17 -9 19 -9 29 -8 19 1
24 5 29 24 2 9 5 18 7 20 3 5 16 13 22 13 3 0 5 2 7 7 2 3 3 5 3 2 0 -2 1 -3
2 -2 1 0 3 -3 5 -7 4 -11 4 -93 0 -107 -3 -11 -4 -39 -1 -42 4 -4 6 -24 4 -32
-4 -14 -11 -19 -27 -20 -21 -1 -34 16 -29 38 2 8 8 17 12 17 1 0 5 2 8 6 5 5
5 6 4 21 -1 17 0 16 -18 23 -17 7 -31 4 -51 -9 -13 -9 -16 -9 -52 0 -31 8 -35
10 -35 23 0 12 -7 33 -13 40 -6 7 -7 7 -16 6 -6 -1 -13 -3 -16 -5 -12 -9 -13
-16 -13 -68 0 -63 -3 -69 -29 -69 -13 0 -23 5 -23 11 0 4 -11 24 -17 30 -2 3
-11 10 -18 15 l-14 9 -4 17 c-5 20 -7 25 -16 34 -11 11 -6 17 16 22 42 9 77
29 88 50 3 5 8 12 11 15 l6 5 8 -5 c4 -2 16 -10 28 -16z m148 12 c9 -10 11
-25 3 -25 -1 0 -3 -1 -4 -3 -1 -4 -16 0 -22 6 -6 5 -7 16 -1 22 6 7 18 7 24 0z
m432 -26 c7 -3 11 -9 14 -18 2 -10 1 -16 -5 -29 -6 -13 -5 -36 1 -48 4 -7 4
-11 4 -21 -2 -16 -7 -21 -25 -21 l-14 0 -14 14 c-21 22 -33 25 -48 14 -11 -7
-16 -19 -19 -44 -2 -23 -1 -34 6 -54 5 -13 5 -34 0 -36 -1 0 -2 -1 -2 -3 0 -1
-2 -4 -5 -7 -2 -3 -6 -8 -8 -11 -3 -5 -19 -18 -22 -18 -1 0 -9 -1 -17 -2 -8
-1 -19 -2 -25 -2 -5 0 -14 -1 -18 -3 -25 -6 -42 -9 -63 -9 -12 0 -22 -1 -22
-1 0 -1 -4 -2 -10 -2 -9 0 -56 -6 -58 -7 -1 -1 -10 9 -10 11 0 2 2 5 4 8 2 3
4 6 4 8 0 2 1 2 4 -1 4 -5 6 -5 28 -7 22 -1 35 2 49 12 21 14 25 14 48 7 24
-8 43 -6 60 5 8 6 16 21 20 40 1 7 4 17 6 21 8 18 1 55 -14 86 -9 16 -10 30
-4 40 3 7 6 8 25 14 7 2 14 4 17 6 9 4 31 27 31 32 0 2 1 3 1 2 1 -2 6 -3 14
-3 l12 0 9 11 c14 17 30 22 46 16z m-175 -10 c3 -3 3 -3 0 -6 -3 -3 -3 -3 -6
0 -3 2 -3 3 -1 6 4 4 4 4 7 0z m-685 -27 c3 -2 6 -4 6 -4 0 -1 1 -2 2 -2 1 1
10 0 27 -3 4 -1 9 -3 11 -5 l5 -5 -24 -23 c-30 -29 -32 -30 -39 -26 l-6 3 1
26 c0 23 1 27 5 37 3 5 5 9 6 7 0 -1 3 -4 6 -5z m1027 -4 c7 -9 3 -29 -8 -39
-2 -2 -6 -5 -9 -8 -20 -17 -32 -21 -40 -13 -5 5 -5 11 -1 22 3 9 16 31 22 38
8 9 28 9 36 0z m247 -65 c12 -5 18 -21 14 -35 -3 -12 -6 -15 -24 -23 -8 -4
-16 -8 -16 -8 -3 -1 -10 6 -10 10 0 7 -2 13 -5 13 -7 0 -8 10 -2 23 1 4 3 8 3
9 0 2 8 9 14 11 6 3 19 2 26 0z m-1338 -31 c5 -5 6 -7 6 -17 0 -10 -1 -12 -6
-17 -5 -5 -7 -6 -17 -6 -10 0 -12 1 -17 6 -5 5 -6 7 -6 17 0 10 1 12 6 17 5 5
7 6 17 6 10 0 12 -1 17 -6z m1449 -12 c11 -7 14 -23 7 -32 -12 -14 -34 16 -23
31 5 6 8 6 16 1z m-374 -10 c-1 -1 -1 -3 0 -4 3 -6 2 -8 -6 -17 -5 -5 -9 -10
-10 -11 -3 -5 -13 -10 -19 -10 -15 0 -21 16 -11 31 3 4 6 7 7 7 1 0 3 2 5 4 4
3 13 7 20 8 4 1 15 -6 14 -8z m-363 -5 l-5 -5 -4 4 -5 5 4 4 5 5 4 -4 5 -5 -4
-4z m-285 -2 c3 -5 3 -5 0 -10 -2 -3 -5 -5 -7 -5 -2 0 -5 2 -7 5 -3 5 -3 5 0
10 2 3 5 5 7 5 2 0 5 -2 7 -5z m-569 -20 l-5 -5 -4 4 -5 5 4 4 5 5 4 -4 5 -5
-4 -4z m1438 0 c0 -2 1 -6 3 -9 2 -5 2 -6 -1 -9 -4 -3 -4 -3 -8 0 -3 3 -3 4 0
12 3 9 6 12 6 6z m-1135 -13 c11 -10 3 -28 -11 -28 -9 0 -16 6 -16 16 0 14 17
22 27 12z m1224 -20 c11 -10 3 -28 -11 -28 -9 0 -16 6 -16 16 0 14 17 22 27
12z m-1151 -31 l-5 -5 -4 4 -5 5 4 4 5 5 4 -4 5 -5 -4 -4z m68 -50 c6 -5 7
-42 1 -58 -4 -13 -5 -34 -2 -49 6 -25 -4 -40 -26 -41 -28 -2 -39 27 -21 54 7
11 13 27 15 42 2 9 7 20 13 27 2 2 6 7 9 12 5 9 5 11 5 39 l1 30 0 -27 c1 -23
2 -27 5 -29z m7 9 c0 -10 0 -3 0 15 0 18 0 25 0 17 1 -9 1 -23 0 -32z m959 27
c3 -2 6 -6 8 -8 2 -2 10 -11 18 -20 15 -15 16 -16 22 -36 6 -20 13 -30 20 -31
2 0 12 0 24 -1 18 0 21 0 25 -4 4 -5 4 -11 -1 -17 l-4 -5 -19 4 c-10 2 -24 3
-31 4 -16 1 -24 4 -29 11 -6 8 -29 27 -36 29 -3 0 -7 1 -9 2 -2 0 -3 1 -4 1 0
0 1 1 2 3 2 3 2 3 -1 2 -4 -2 -4 -1 -1 2 2 3 2 3 -1 3 -2 0 -2 1 -2 4 1 3 -1
21 -4 32 -4 14 -4 18 1 23 6 6 14 6 22 2z m-1109 -69 c11 -10 3 -28 -11 -28
-9 0 -16 6 -16 16 0 14 17 22 27 12z m276 -19 c12 -12 3 -31 -13 -31 -11 0
-18 7 -18 18 0 11 7 18 18 18 6 0 9 -1 13 -5z m477 -97 c1 0 5 -3 8 -6 5 -5 6
-7 6 -16 0 -22 -7 -28 -33 -26 -2 0 -6 3 -9 6 -5 5 -6 7 -6 17 0 14 3 20 12
24 5 2 8 2 22 1z m564 -40 c5 -5 5 -15 0 -20 -9 -9 -24 -2 -24 10 0 8 6 14 14
14 3 0 8 -2 10 -4z m-65 -86 c5 -2 12 -7 16 -10 3 -4 9 -9 13 -12 11 -8 22
-20 22 -23 0 -5 -4 -8 -20 -14 -10 -4 -17 -8 -21 -13 -11 -12 -18 -18 -21 -18
-4 0 -11 11 -16 26 -2 7 -7 17 -10 23 -7 13 -8 29 -3 37 7 10 23 12 40 4z"/>
</g>
</svg>
