<?xml version="1.0" standalone="no"?>
<!DOCTYPE svg PUBLIC "-//W3C//DTD SVG 20010904//EN"
 "http://www.w3.org/TR/2001/REC-SVG-20010904/DTD/svg10.dtd">
<svg version="1.0" xmlns="http://www.w3.org/2000/svg"
 width="1100.000000pt" height="2850.000000pt" viewBox="0 0 1100.000000 2850.000000"
 preserveAspectRatio="xMidYMid meet">
<metadata>
Created by potrace 1.15, written by Peter Selinger 2001-2017
</metadata>
<g transform="translate(0.000000,2850.000000) scale(0.500000,-0.500000)"
fill="#000000" stroke="none">
<path d="M1628 3821 c-4 -2 -9 -7 -12 -11 -3 -4 -12 -17 -20 -28 -8 -11 -18
-24 -21 -29 -7 -10 -33 -46 -43 -59 -4 -6 -13 -19 -21 -30 -11 -15 -16 -21
-23 -24 l-9 -5 -204 -1 c-204 -1 -204 -1 -213 -5 -12 -6 -23 -16 -28 -25 -3
-5 -5 -8 -8 -8 -6 0 -26 12 -37 22 -17 15 -24 16 -86 16 -38 0 -60 -1 -74 -3
-18 -3 -22 -3 -40 0 -52 8 -73 1 -79 -25 -2 -9 -2 -11 4 -31 5 -18 6 -22 4
-26 -3 -6 -6 -6 -23 -2 -11 3 -14 3 -24 1 -24 -5 -29 -20 -16 -46 11 -22 8
-34 -8 -37 -3 0 -8 -1 -10 -2 -9 -2 -17 6 -20 19 -1 7 -8 15 -20 24 -13 10
-18 18 -15 31 2 12 4 14 21 22 12 5 25 16 25 21 0 0 1 3 1 5 5 21 -10 34 -40
37 -20 1 -21 3 -20 29 1 20 -1 33 -7 37 0 1 -3 3 -5 6 -6 11 -51 37 -87 52
-18 7 -21 8 -36 4 -3 -1 -20 -12 -22 -14 -4 -5 -12 -8 -23 -8 -15 0 -19 3 -27
19 -13 26 -24 33 -57 37 -37 4 -50 3 -71 -3 -12 -3 -24 -5 -33 -5 -8 0 -16 0
-19 -1 -3 -1 -7 -2 -8 -2 -12 -3 -22 -16 -22 -28 0 -16 2 -20 15 -34 19 -20
51 -59 65 -80 4 -5 7 -10 8 -11 3 -2 28 -42 38 -60 17 -30 29 -53 39 -78 5
-12 10 -24 12 -26 6 -11 30 -14 43 -5 14 9 26 11 38 6 11 -5 18 -21 14 -35 -3
-9 0 -28 6 -36 5 -8 16 -12 35 -12 35 0 65 10 98 31 18 12 20 12 21 -9 1 -9 3
-23 6 -30 2 -7 4 -14 4 -16 0 -4 -9 -10 -27 -18 -16 -7 -19 -12 -32 -39 -22
-47 -24 -52 -26 -73 -1 -8 -7 -21 -10 -21 -7 2 -10 -2 -11 -18 -2 -13 4 -24
14 -28 7 -4 28 -8 30 -6 3 2 9 -1 11 -5 0 -2 4 -5 8 -8 9 -4 13 -8 23 -24 8
-11 8 -12 15 -11 10 1 15 -3 21 -14 3 -7 4 -11 3 -16 -1 -7 10 -52 17 -65 5
-10 14 -19 23 -23 9 -4 128 -7 140 -3 13 4 25 22 28 40 3 19 24 25 44 12 5 -3
9 -6 8 -6 -2 0 -2 -2 -2 -3 1 -2 -2 -11 -7 -19 -21 -39 -21 -39 -23 -119 -1
-29 -2 -55 -2 -59 -1 -4 -2 -16 -2 -26 0 -20 1 -23 15 -48 10 -18 9 -29 -8
-47 -14 -14 -19 -28 -24 -61 -4 -29 -15 -88 -21 -115 -2 -8 -4 -15 -4 -17 -6
-27 -23 -84 -38 -125 -16 -46 -16 -55 0 -79 6 -9 7 -12 7 -22 0 -11 -1 -13 -6
-18 -5 -5 -9 -7 -15 -6 -3 0 -27 -6 -33 -9 -8 -4 -16 -13 -21 -22 -2 -5 -7
-12 -10 -18 -3 -5 -7 -12 -8 -14 -15 -27 -57 -87 -80 -115 -16 -19 -31 -36
-35 -36 -5 -2 -9 0 -17 8 -8 8 -23 16 -28 16 -2 0 -5 2 -8 5 -6 6 -7 22 -1 29
3 4 20 9 20 6 0 -2 24 7 29 11 10 10 12 21 8 50 0 3 -1 11 -2 16 -4 31 -19 83
-30 106 -3 6 -9 14 -12 16 -8 6 -31 15 -38 15 -2 0 -7 3 -10 6 -7 7 -8 22 -2
31 4 6 3 26 -2 34 -3 5 -18 15 -18 13 -1 -1 -3 1 -6 4 -6 6 -7 20 -2 42 2 13
3 24 0 30 -1 4 11 20 16 20 3 0 13 12 15 19 1 3 3 7 4 9 1 2 2 7 3 11 5 27 10
54 12 64 2 7 3 14 4 17 0 3 2 10 4 17 3 14 1 28 -7 36 -5 5 -24 15 -29 15 -2
0 -6 3 -9 6 -5 5 -6 7 -6 17 0 10 1 12 6 17 l6 6 19 -1 c10 0 22 0 25 1 4 1 8
2 9 2 9 3 14 13 23 47 6 25 18 70 28 103 8 29 7 42 -4 56 -6 8 -12 19 -12 21
0 4 11 14 19 18 11 6 13 11 13 24 -1 10 -2 13 -7 19 -4 4 -8 10 -10 14 -2 4
-7 14 -10 22 -5 9 -11 17 -15 22 -15 13 -19 17 -29 29 -10 11 -13 13 -23 13
-8 0 -17 14 -24 34 -8 21 -16 38 -31 58 -3 4 -33 34 -41 41 -12 10 -40 28 -58
37 -9 4 -19 9 -21 10 -13 8 -58 22 -68 22 -26 1 -30 -13 -17 -48 3 -9 7 -20 8
-23 1 -3 5 -9 9 -15 17 -24 19 -47 3 -61 -25 -21 -35 -26 -42 -20 -2 2 -4 6
-4 8 0 7 -9 34 -14 42 -9 15 -18 58 -17 79 1 12 -2 26 -5 26 -1 0 -3 2 -5 4
-7 6 -18 12 -22 12 -3 0 -19 5 -36 10 -35 11 -42 12 -58 4 -17 -9 -23 -18 -23
-36 0 -10 1 -12 7 -21 5 -6 9 -11 10 -13 2 -1 7 -8 12 -16 6 -7 11 -14 12 -16
2 -1 7 -9 11 -16 5 -8 11 -17 13 -20 30 -51 59 -125 68 -175 5 -25 16 -45 32
-57 8 -5 30 -16 43 -22 44 -17 93 -18 130 -2 11 5 16 6 19 3 4 -4 4 -13 0 -19
-5 -6 -6 -42 -1 -37 0 0 2 -1 3 -3 6 -8 54 -4 74 6 4 3 11 6 15 8 8 4 26 6 35
4 10 -3 14 -10 13 -24 -1 -14 -7 -22 -20 -29 -13 -6 -18 -7 -30 -5 -11 2 -32
-1 -47 -6 -14 -5 -21 -3 -32 9 l-10 11 -14 0 c-13 0 -21 -3 -21 -7 0 -1 -2 -6
-5 -12 -2 -5 -7 -15 -10 -21 -2 -6 -9 -20 -13 -30 -5 -10 -11 -22 -12 -26 -8
-20 -75 -151 -81 -158 -2 -2 -3 -4 -3 -5 0 0 -4 -7 -9 -15 -10 -16 -20 -23
-34 -25 -24 -3 -38 -11 -42 -23 -2 -8 -6 -16 -7 -16 -1 0 -1 -2 -1 -3 0 -2 -2
-11 -5 -20 -3 -10 -4 -19 -3 -23 2 -11 18 -29 33 -38 20 -12 27 -25 34 -60 1
-7 3 -14 3 -16 6 -33 6 -155 -1 -207 -1 -9 -2 -28 -2 -42 1 -26 0 -26 -8 -51
-10 -31 -11 -44 -1 -70 4 -11 17 -34 26 -45 24 -30 53 -49 91 -59 25 -8 71 -6
103 2 40 11 40 11 49 -10 5 -11 17 -23 26 -26 16 -6 31 -2 79 21 24 11 37 17
39 17 3 0 20 12 23 17 5 8 7 21 4 44 -1 10 -1 12 7 27 4 9 11 20 15 25 12 17
14 20 20 32 11 19 16 25 25 25 14 0 20 -14 12 -29 -1 -3 -4 -6 -4 -7 -3 -2
-13 -17 -19 -29 -7 -14 -8 -23 -3 -36 3 -6 6 -8 18 -10 9 -1 10 -1 34 15 14 9
26 17 27 18 1 1 4 2 6 4 3 1 6 3 7 5 2 1 7 5 12 8 17 10 21 27 14 52 -8 27 0
41 24 44 29 4 31 5 38 12 3 4 6 8 5 9 -1 1 2 3 6 6 6 3 7 3 13 1 8 -4 25 -5
34 -4 15 3 27 25 29 55 2 20 6 26 19 29 5 1 7 1 20 8 11 6 15 11 24 26 5 8 14
19 21 26 10 9 29 34 29 38 0 1 2 5 5 9 30 48 72 143 99 226 16 52 38 141 45
182 0 4 2 14 4 23 5 25 14 92 18 128 3 29 3 32 0 42 -4 12 -11 20 -27 30 -13
8 -15 10 -17 23 -1 5 -3 15 -6 22 -2 7 -4 13 -4 14 -4 14 -31 27 -55 25 -8 0
-13 1 -24 8 -9 6 -32 8 -40 4 -13 -8 -24 -11 -39 -13 -15 -2 -39 -8 -41 -12
-1 0 -4 -4 -9 -7 -15 -11 -33 -11 -47 2 -5 4 -10 7 -11 7 -2 0 -10 8 -10 11 0
1 -1 7 -2 13 -3 27 -27 48 -55 48 -16 0 -38 -17 -45 -34 -14 -31 -20 -38 -34
-38 -12 0 -17 6 -20 26 -5 22 -10 31 -22 39 -9 6 -11 6 -36 7 -16 0 -29 -1
-34 -2 -7 -2 -8 -2 -11 1 -5 6 -8 13 -6 13 1 1 5 14 10 30 4 16 10 35 12 43 4
14 4 14 1 26 -3 9 -6 14 -16 24 -13 13 -14 15 -13 29 0 10 8 17 20 19 20 3 37
13 43 26 3 4 13 37 18 54 0 2 6 21 12 41 6 20 15 49 19 64 13 42 17 48 30 44
11 -3 251 -3 262 0 11 3 16 10 17 21 1 12 2 14 4 15 1 1 0 2 -3 3 -5 2 -5 10
1 21 4 7 4 7 17 -7 4 -4 3 -13 -2 -14 -3 -1 -4 -2 -3 -3 2 -1 3 -3 4 -15 2
-18 14 -24 43 -23 14 1 19 3 33 9 22 10 31 10 52 0 l16 -8 134 -1 133 0 11 4
c5 3 13 7 16 9 11 8 19 11 26 11 7 0 15 -3 26 -11 3 -2 11 -6 16 -9 11 -4 12
-4 132 -4 118 0 139 1 139 6 0 1 1 2 3 2 1 0 6 4 12 9 16 15 18 16 34 14 21
-2 35 1 43 10 10 12 10 27 2 44 -3 5 -21 23 -45 44 -2 2 -9 8 -14 13 -6 5 -16
14 -23 20 -7 6 -17 15 -22 19 -5 5 -16 14 -23 21 -8 6 -21 17 -27 23 -37 32
-49 41 -60 45 -15 6 -24 13 -30 25 -9 19 -35 28 -52 16z m48 -54 c4 -5 3 -16
-2 -22 -9 -10 -26 -3 -26 10 0 13 19 21 28 12z m75 -101 c10 -9 3 -26 -10 -26
-8 0 -15 7 -15 15 0 13 16 20 25 11z m-1401 -49 l-5 -5 -4 4 -5 5 4 4 5 5 4
-4 5 -5 -4 -4z m181 -86 c12 -8 13 -31 2 -40 -5 -5 -6 -5 -17 -5 -11 0 -12 0
-18 6 -5 5 -6 7 -6 17 0 14 3 20 12 24 7 3 21 2 27 -2z m-206 -324 c3 -5 5 -9
5 -14 0 -4 1 -7 2 -6 1 1 2 0 2 -1 0 -7 26 -21 52 -28 26 -8 34 -13 34 -23 2
-32 -13 -39 -54 -24 -30 11 -44 11 -69 -2 -13 -7 -25 -7 -32 0 -10 10 -4 34 8
35 2 0 7 1 11 1 20 1 28 3 31 10 4 10 2 25 -5 35 -7 11 -7 13 -3 20 5 6 11 5
18 -3z m232 -3 c9 -9 4 -23 -10 -31 -7 -3 -9 -2 -9 3 0 2 -2 7 -4 10 -7 9 -7
15 -1 18 9 5 19 5 24 0z m480 -257 c5 -8 1 -16 -8 -16 -9 0 -13 8 -8 16 2 3 5
5 8 5 3 0 6 -2 8 -5z m-118 -119 c8 -8 8 -24 -1 -32 -8 -9 -23 -9 -32 -1 -5 5
-6 7 -6 17 0 10 1 12 6 16 9 9 24 9 33 0z m135 -41 c3 -3 4 -7 4 -14 0 -13 -6
-19 -19 -19 -13 0 -19 6 -19 19 0 7 1 11 4 14 7 8 23 8 30 0z m-90 -208 c4 -4
4 -7 4 -18 0 -8 1 -16 3 -21 2 -4 3 -7 3 -8 0 -5 28 -9 38 -6 6 3 20 0 25 -5
10 -8 11 -32 1 -41 -5 -6 -18 -8 -28 -6 -6 1 -11 5 -18 12 -7 6 -13 11 -19 12
-12 4 -13 4 -22 4 -4 0 -11 0 -14 0 -10 0 -15 7 -15 21 0 17 8 51 12 56 7 8
23 8 30 0z m-590 -9 c7 -7 7 -9 4 -18 -3 -9 -14 -6 -21 7 -3 6 -3 7 0 12 4 7
10 6 17 -1z m32 -40 c4 -4 9 -10 10 -13 2 -5 2 -6 -3 -10 -10 -7 -19 -4 -27 9
-3 5 -4 7 -2 11 5 13 10 14 22 3z m-61 -41 c3 -3 3 -3 0 -6 -3 -3 -3 -3 -6 0
-3 2 -3 3 -1 6 4 4 4 4 7 0z m514 -77 c7 -7 7 -20 0 -26 -7 -6 -19 -6 -25 0
-6 6 -6 19 0 25 6 7 19 7 25 1z m-589 -15 c13 -8 38 -14 43 -11 1 1 4 0 7 -3
l4 -4 -5 -5 c-2 -2 -5 -3 -6 -2 -1 2 -31 1 -36 -2 -3 -1 -7 -2 -9 -2 -2 0 -4
-1 -4 -2 -3 -7 -27 -5 -32 2 -5 6 -5 24 0 30 7 9 21 9 38 -1z m136 -18 c3 -3
4 -7 4 -14 0 -15 -6 -21 -20 -21 -14 0 -20 6 -20 20 0 12 4 18 15 20 9 1 16 0
21 -5z m-124 -204 c15 -3 42 -17 46 -23 1 -3 2 -10 1 -18 0 -17 -6 -22 -24
-22 -8 0 -14 1 -16 3 -6 4 -23 33 -26 45 -2 9 -2 10 2 14 2 2 5 4 7 3 2 0 6
-1 10 -2z m115 -34 c3 -1 8 -5 10 -8 2 -3 5 -5 6 -5 4 0 17 -16 17 -20 0 -5
-6 -12 -10 -12 -6 0 -24 12 -24 17 0 2 -8 10 -8 8 0 -2 -8 13 -8 15 0 3 5 8 8
8 1 0 5 -1 9 -3z m23 -104 c28 -19 31 -22 31 -35 0 -14 -8 -22 -20 -22 -49 1
-59 2 -64 5 -6 4 -10 20 -9 42 1 16 1 18 7 22 5 5 7 5 19 5 12 -1 14 -2 36
-17z"/>
<path d="M1704 3295 c-6 -2 -6 -2 -6 -15 0 -9 1 -15 4 -18 1 -3 5 -9 9 -14 6
-10 7 -18 0 -24 -5 -4 -15 -5 -18 -2 -3 3 -23 5 -34 3 -12 -2 -16 -8 -14 -23
2 -13 9 -21 27 -29 20 -9 21 -10 21 -47 0 -29 0 -31 -5 -39 -3 -4 -5 -8 -6 -9
-3 -2 -14 -17 -16 -22 -1 -3 -6 -8 -9 -11 -6 -6 -8 -7 -20 -7 -18 0 -23 4 -25
21 -1 9 0 16 1 21 6 20 5 44 -1 44 -1 0 -2 1 -1 2 0 1 -7 2 -16 2 l-16 0 -5
-8 c-3 -6 -8 -11 -13 -14 l-8 -5 -120 -1 c-135 -1 -125 0 -144 -17 -2 -2 -8
-6 -12 -8 -7 -4 -7 -4 -14 0 -4 2 -10 6 -12 8 -8 7 -10 8 -18 12 -10 5 -33 5
-38 1 -2 -1 -3 -2 -3 -1 0 1 -1 0 -3 -2 -1 -2 -2 -8 -1 -17 l0 -14 -7 -1 c-8
0 -8 0 1 -1 10 0 12 -2 19 -21 2 -7 6 -15 7 -18 2 -3 5 -9 7 -13 5 -10 18 -15
39 -15 25 -1 26 -3 18 -32 -6 -24 1 -37 24 -45 13 -4 13 -4 19 -4 9 0 15 -8
15 -21 0 -10 3 -22 10 -47 1 -4 3 -7 4 -8 2 -1 2 -3 0 -10 -1 -4 -2 -18 -2
-31 0 -23 0 -25 -5 -29 -6 -6 -15 -5 -21 1 l-5 5 4 27 c3 23 3 28 1 34 -1 3
-4 10 -5 15 -2 6 -4 10 -5 9 -1 0 -8 -1 -16 -1 l-14 -1 -4 -8 c-4 -8 -4 -15
-4 -56 0 -47 0 -47 5 -58 5 -11 20 -25 26 -25 3 0 13 -20 13 -24 0 -4 15 -24
19 -26 5 -3 11 -15 11 -23 0 -10 -7 -17 -17 -17 -12 0 -17 4 -17 15 l-1 8 -1
-8 -1 -8 -12 0 c-6 0 -11 1 -11 2 0 0 -2 -1 -4 -2 -2 -3 -2 -5 -1 -5 1 -1 1
-2 0 -2 -2 0 -5 -9 -6 -22 -1 -10 9 -26 17 -29 10 -4 22 -4 31 0 8 4 12 3 17
-1 8 -7 4 -16 -10 -26 -7 -5 -13 -11 -35 -34 -6 -6 -13 -16 -16 -22 l-6 -11 0
-47 c-1 -45 -1 -47 3 -53 3 -3 6 -7 8 -8 4 -4 22 -8 32 -7 4 0 13 -1 18 -3 13
-5 32 -3 44 4 16 10 38 7 44 -5 3 -6 3 -26 0 -32 -7 -13 -27 -15 -49 -3 -14 7
-14 7 -29 6 -8 -1 -20 -2 -27 -2 -24 -1 -33 -5 -41 -16 -4 -7 -4 -7 -4 -85 0
-44 1 -85 2 -91 3 -22 14 -33 39 -42 13 -4 17 -9 17 -21 0 -9 -3 -15 -11 -23
-12 -12 -16 -33 -8 -44 16 -23 40 -43 55 -47 7 -2 13 -2 29 0 22 3 19 4 54
-17 26 -16 15 -15 155 -14 69 0 128 1 132 2 4 0 14 1 22 2 22 2 62 8 80 13 8
2 17 5 20 5 9 2 25 10 30 15 10 11 15 29 10 38 -19 36 -21 44 -18 57 3 9 7 15
14 18 8 3 20 3 28 -1 24 -10 44 -10 60 -2 16 9 19 12 25 24 6 14 7 48 0 73 -8
36 -23 58 -51 81 -4 4 -11 11 -14 16 -17 27 -32 34 -66 30 -34 -4 -33 -4 -39
2 -3 3 -5 6 -4 6 1 0 3 3 5 6 1 3 3 6 5 6 5 0 25 15 27 21 4 11 1 26 -6 30 -3
2 -10 16 -10 21 0 10 14 16 22 9 3 -3 3 -6 4 -27 0 -3 3 -9 8 -14 8 -9 11 -10
26 -7 6 0 12 7 16 14 3 7 4 12 4 33 0 24 -1 27 -6 42 -3 9 -7 18 -8 19 -6 7
-5 26 3 48 8 25 10 39 4 55 -10 30 -52 45 -72 24 -8 -7 -12 -17 -20 -43 -8
-27 -8 -31 -3 -56 5 -23 5 -25 -11 -37 -29 -22 -37 -51 -23 -82 9 -18 11 -29
7 -33 -1 -1 -9 -5 -16 -8 -19 -8 -29 -17 -37 -32 -12 -21 -13 -22 -67 -23
l-44 -1 -6 6 -6 6 0 27 c1 31 -2 42 -13 54 -8 8 -14 19 -14 25 0 6 6 17 14 25
14 15 14 14 14 136 0 133 2 125 -26 124 l-12 0 0 9 0 9 12 0 c17 -1 18 -1 22
8 4 7 4 11 3 138 l0 131 6 6 6 6 33 -1 c32 0 33 0 43 5 11 5 16 11 26 27 6 12
10 14 21 14 11 0 15 -2 21 -14 10 -16 15 -22 26 -27 10 -5 11 -5 55 -5 45 0
45 0 56 5 9 5 11 7 17 20 4 8 7 17 7 19 0 8 8 14 22 15 7 1 13 2 13 3 1 1 2 1
4 1 2 -1 3 0 3 1 0 1 1 2 3 2 1 0 2 1 3 3 0 1 0 6 1 10 2 10 -3 22 -8 24 -2 1
-5 3 -7 4 -2 1 -9 5 -16 7 -19 7 -24 9 -24 10 0 1 -1 2 -3 2 -3 0 -4 4 -6 17
-2 11 -7 19 -19 29 -6 5 -13 11 -15 13 -2 2 -10 9 -17 15 -7 6 -16 14 -21 18
-4 4 -12 11 -18 16 -5 5 -26 23 -46 40 -20 17 -38 32 -41 35 -15 12 -16 13
-29 13 -6 0 -14 -1 -17 -3z m55 -146 c3 -3 3 -3 0 -6 -3 -3 -3 -3 -6 0 -3 2
-3 3 -1 6 4 4 4 4 7 0z m155 -68 c1 -2 -7 -16 -11 -19 -14 -13 -34 9 -20 22 7
7 19 6 31 -3z m-519 -68 c12 -12 3 -31 -13 -31 -11 0 -18 7 -18 18 0 11 7 18
18 18 6 0 9 -1 13 -5z m68 -83 c11 -10 4 -26 -11 -29 -10 -2 -16 4 -16 16 0
15 16 23 27 13z m-34 -64 c3 -4 4 -9 4 -21 0 -14 0 -16 -6 -20 -8 -8 -29 -7
-36 1 -3 3 -7 7 -9 9 -4 4 -3 11 2 21 5 10 8 12 22 15 14 3 19 2 23 -5z m62
-79 c12 -12 3 -31 -13 -31 -11 0 -18 7 -18 18 0 11 7 18 18 18 6 0 9 -1 13 -5z
m91 -94 c5 -5 5 -22 1 -27 -5 -6 -18 -5 -24 0 -7 6 -7 19 -1 25 6 6 19 7 24 2z
m-61 -316 c4 -4 5 -7 5 -15 0 -14 -6 -20 -20 -20 -14 0 -20 6 -20 20 0 14 6
20 20 20 8 0 11 -1 15 -5z m-138 -138 c5 -8 1 -16 -8 -16 -9 0 -13 8 -8 16 2
3 5 5 8 5 3 0 6 -2 8 -5z m418 -14 c3 -5 3 -5 0 -10 -2 -3 -5 -5 -7 -5 -2 0
-5 2 -7 5 -3 5 -3 5 0 10 2 3 5 5 7 5 2 0 5 -2 7 -5z m-259 -51 c4 -5 4 -4 -1
-39 -2 -11 -4 -22 -5 -24 -3 -5 -16 -13 -26 -15 -29 -7 -37 -2 -36 18 2 19 8
27 31 45 4 3 9 7 10 8 5 5 16 11 20 11 2 0 5 -2 7 -4z m263 -52 c10 -9 3 -26
-10 -26 -8 0 -15 7 -15 15 0 13 16 20 25 11z m-348 -64 c4 -6 4 -11 -1 -16 -7
-7 -20 -2 -20 8 0 10 15 16 21 8z m82 -59 c3 -5 3 -6 1 -11 -3 -4 -5 -5 -12
-5 -12 -1 -18 -3 -27 -7 -7 -4 -25 -10 -27 -10 -5 1 -9 7 -10 12 0 7 6 11 18
12 9 0 34 8 42 12 6 3 12 2 15 -3z"/>
<path d="M78 2559 c-1 -2 -7 -3 -16 -3 l-15 -1 -4 -10 c-3 -8 -3 -15 -3 -27 1
-16 1 -17 8 -22 5 -5 8 -6 19 -6 12 0 13 0 15 6 2 7 4 13 5 19 1 4 1 9 2 13 1
3 0 8 -2 12 -3 6 -6 14 -8 18 0 2 -1 2 -1 1z"/>
</g>
</svg>
