<?xml version="1.0" standalone="no"?>
<!DOCTYPE svg PUBLIC "-//W3C//DTD SVG 20010904//EN"
 "http://www.w3.org/TR/2001/REC-SVG-20010904/DTD/svg10.dtd">
<svg version="1.0" xmlns="http://www.w3.org/2000/svg"
 width="1100.000000pt" height="2850.000000pt" viewBox="0 0 1100.000000 2850.000000"
 preserveAspectRatio="xMidYMid meet">
<metadata>
Created by potrace 1.15, written by Peter Selinger 2001-2017
</metadata>
<g transform="translate(0.000000,2850.000000) scale(0.500000,-0.500000)"
fill="#000000" stroke="none">
<path d="M1145 3831 c-1 -1 -2 -2 -3 -2 -9 -1 -19 -10 -24 -22 -4 -9 -4 -15
-4 -107 l0 -98 -6 -7 c-3 -4 -6 -6 -6 -5 0 2 -28 2 -96 2 -92 -1 -97 -1 -104
-5 -9 -5 -11 -7 -18 -13 -3 -4 -6 -6 -7 -6 -2 0 -3 -1 -3 -2 -2 -4 -14 -4 -18
0 -5 5 -5 7 3 32 7 21 7 23 7 46 -1 22 -2 24 -10 43 -8 17 -8 21 -8 32 1 10 2
12 7 16 5 5 7 5 20 4 28 -2 32 -2 39 1 17 6 22 28 11 45 -5 9 -7 10 -19 14
-16 6 -38 6 -59 0 -15 -4 -27 -3 -46 6 -17 7 -20 8 -48 10 -10 1 -21 2 -24 2
-7 1 -22 2 -49 4 -9 1 -18 2 -20 2 -2 0 -12 1 -23 2 -11 1 -23 2 -26 2 -22 3
-49 3 -52 1 -2 -1 -3 -2 -3 -1 0 1 -3 -1 -6 -3 -6 -5 -15 -21 -19 -37 -2 -6
-5 -15 -8 -21 -12 -23 -8 -40 15 -62 13 -12 14 -13 14 -21 0 -8 -1 -9 -14 -21
-16 -16 -22 -27 -22 -44 0 -6 -1 -16 -2 -22 -1 -6 -2 -22 -3 -35 -1 -25 -2
-32 -8 -37 -12 -10 -34 -9 -43 1 -4 5 -9 20 -7 24 0 2 0 6 -2 10 -3 8 -3 10
-3 13 0 1 -2 4 -5 8 -10 12 -12 12 -95 12 -83 0 -82 0 -108 -14 -23 -12 -31
-12 -54 0 -26 14 -28 14 -87 14 -48 -1 -53 -1 -60 -5 -4 -2 -9 -6 -10 -8 -1
-2 -3 -4 -3 -5 -1 -1 -2 -2 -2 -3 0 -1 -1 -3 -1 -4 -2 -8 -2 -13 0 -26 4 -17
9 -29 11 -28 1 1 2 0 3 -1 1 -1 8 -2 16 -2 13 0 15 0 21 6 11 11 36 6 36 -7 0
-8 13 -28 22 -34 l9 -6 95 0 c90 0 106 0 106 3 0 1 3 3 7 5 4 2 9 6 11 10 20
26 34 26 54 0 2 -4 7 -8 11 -10 4 -2 7 -4 7 -5 0 -2 2 -2 33 -3 28 -1 29 -1
51 5 29 8 37 8 45 0 5 -5 6 -7 6 -16 0 -12 -3 -15 -20 -25 -25 -14 -30 -23
-32 -58 0 -17 -2 -27 -4 -34 -3 -8 -31 -51 -40 -62 0 -1 -8 -11 -16 -23 -8
-12 -17 -23 -19 -26 -4 -5 -7 -12 -10 -20 0 -2 -1 -12 -1 -22 -1 -16 -2 -20
-5 -23 -6 -7 -16 -6 -22 0 -4 4 -4 6 -3 19 3 27 -3 37 -28 53 -29 18 -63 16
-55 -4 3 -9 1 -26 -5 -31 -10 -10 -32 -3 -33 10 -1 13 0 16 9 22 16 12 15 11
15 26 -1 12 -4 20 -8 20 -1 0 -11 4 -21 9 -37 17 -51 23 -84 35 -28 11 -44 7
-65 -13 -10 -10 -10 -11 -10 -23 0 -17 1 -19 25 -40 43 -37 77 -71 102 -103
20 -26 32 -39 37 -42 9 -5 19 -9 30 -12 16 -4 20 -10 20 -25 0 -17 -6 -23 -22
-25 -10 -1 -33 -8 -38 -12 -2 -1 -17 -15 -33 -30 -33 -31 -50 -47 -62 -57 -4
-4 -9 -8 -10 -9 -1 -1 -11 -9 -22 -18 -26 -21 -33 -28 -40 -42 -7 -13 -16 -20
-27 -22 -22 -4 -45 -16 -52 -28 -17 -27 5 -69 38 -74 8 -1 23 2 58 12 9 3 19
6 21 6 2 1 18 5 34 10 17 5 39 12 50 15 36 11 48 21 57 45 9 23 11 41 7 62 -5
28 0 39 17 43 10 2 23 0 28 -5 6 -7 12 -24 14 -42 3 -22 8 -33 17 -39 4 -2 9
-7 11 -13 5 -9 5 -9 1 -20 -3 -11 -19 -42 -31 -64 -2 -4 -8 -14 -11 -21 -4 -7
-9 -17 -12 -21 -3 -4 -6 -9 -6 -11 -1 -2 -4 -6 -6 -9 -2 -3 -5 -8 -7 -11 -5
-9 -18 -29 -30 -48 -6 -9 -13 -19 -15 -23 -2 -3 -5 -6 -5 -7 -1 0 -2 -1 -2 -2
0 -1 -1 -4 -3 -5 -1 -2 -5 -7 -8 -11 -6 -9 -31 -43 -35 -47 0 -1 -4 -6 -8 -11
-4 -5 -7 -9 -8 -10 -1 -1 -5 -5 -9 -11 -4 -5 -11 -14 -16 -19 -4 -5 -14 -16
-21 -24 -7 -8 -16 -18 -19 -21 -3 -4 -8 -9 -10 -12 -2 -3 -7 -8 -10 -12 -11
-9 -14 -19 -14 -44 0 -32 -4 -36 -33 -27 -32 10 -49 0 -50 -28 0 -9 1 -13 8
-23 10 -16 18 -22 32 -25 13 -2 13 -2 93 28 18 7 27 18 32 35 1 8 3 17 3 21 0
9 8 16 17 16 8 0 13 -3 29 -14 3 -2 10 -5 16 -6 l11 -2 24 11 c24 12 47 24 71
38 7 4 16 10 19 13 8 9 14 25 12 34 -1 4 -2 13 -2 20 -1 11 -1 13 3 17 6 7 16
6 30 0 22 -12 26 -32 12 -56 -11 -17 -15 -31 -17 -46 -1 -11 -4 -34 -6 -52 -1
-4 -2 -9 -2 -11 0 -2 -1 -6 -2 -10 -4 -21 -13 -54 -21 -70 -5 -10 -8 -13 -16
-18 -9 -5 -10 -5 -35 -5 -14 0 -38 1 -53 2 -24 1 -29 1 -35 -2 -9 -4 -19 -13
-19 -16 0 -1 -2 -6 -4 -10 -2 -4 -4 -9 -4 -11 0 -8 -9 -12 -24 -12 -24 1 -24
1 -24 -19 0 -17 1 -18 22 -28 27 -13 51 -32 61 -47 8 -13 16 -40 22 -72 2 -11
10 -27 19 -36 14 -16 16 -20 16 -29 0 -9 -2 -14 -13 -27 -5 -7 -5 -9 -5 -20 2
-22 14 -27 57 -25 27 1 37 3 51 10 17 9 25 10 44 6 25 -5 39 -3 47 10 4 6 6
30 3 33 -1 2 -2 5 -2 8 -1 17 4 24 19 24 9 0 19 -5 19 -11 0 -10 15 -27 25
-28 1 0 5 -2 8 -4 3 -1 8 -4 11 -5 3 -1 9 -7 12 -12 8 -14 14 -20 22 -24 15
-7 21 -7 59 4 36 10 56 18 54 20 0 0 0 2 2 3 4 3 10 22 9 32 -2 27 1 37 15 56
5 7 13 25 11 25 0 0 0 1 1 2 1 0 5 4 8 8 l5 8 16 -5 c21 -6 22 -7 25 -14 7
-12 4 -31 -7 -44 -4 -3 -7 -32 -3 -30 0 1 1 0 1 -2 0 -2 4 -3 10 -5 10 -2 21
1 84 29 19 9 85 41 98 48 5 3 12 7 16 9 4 2 11 6 15 9 4 3 9 6 11 6 5 3 25 16
26 18 0 0 1 1 2 1 2 0 29 18 40 27 3 2 8 6 11 8 44 32 113 100 131 130 9 13
16 23 22 26 2 1 7 9 13 17 9 14 13 21 26 42 6 11 35 67 36 72 1 3 3 9 5 13 13
28 18 44 25 75 3 13 7 28 9 33 6 15 18 22 21 12 1 -2 3 -7 6 -10 12 -18 13
-23 9 -50 -4 -24 -4 -24 7 -68 5 -21 10 -39 10 -41 8 -34 20 -62 29 -71 6 -5
27 -17 31 -17 2 0 5 -2 8 -5 8 -7 6 -25 -6 -49 -4 -8 -3 -32 2 -41 3 -4 10
-19 17 -33 14 -27 34 -63 50 -86 20 -30 24 -35 28 -40 3 -3 8 -9 11 -13 3 -4
9 -12 13 -16 4 -4 9 -10 11 -13 13 -15 38 -15 58 0 24 18 28 25 36 52 4 14 10
19 17 13 4 -4 4 -5 3 -29 -1 -24 -2 -28 -11 -54 -15 -44 -13 -60 8 -76 8 -6 9
-6 20 -5 6 0 13 2 16 3 7 5 13 21 18 50 21 131 83 215 182 248 34 11 46 21 52
41 6 18 -4 43 -20 53 -5 3 -22 11 -38 17 -16 6 -34 14 -40 16 -5 3 -11 5 -11
5 -2 0 -53 26 -71 35 -10 6 -19 11 -19 11 -1 0 -5 3 -9 6 -5 3 -18 11 -28 18
-10 7 -23 16 -29 21 -20 15 -24 18 -32 25 -15 12 -53 50 -72 72 -3 4 -14 17
-23 29 -9 12 -17 24 -19 26 -2 2 -7 10 -12 18 -4 7 -9 15 -10 17 -1 2 -5 8 -8
13 l-5 10 -16 1 -16 0 -7 -8 c-4 -5 -7 -10 -7 -11 0 -10 -43 -16 -61 -8 -6 2
-7 4 -11 16 -2 7 -5 19 -6 26 -3 19 -1 21 27 28 12 3 24 7 27 9 3 2 11 7 17
10 7 3 14 8 16 10 5 4 19 27 19 30 0 1 2 4 6 6 5 5 6 6 28 6 22 1 23 1 36 9
13 7 36 21 55 34 5 3 17 11 27 18 11 6 19 12 20 13 1 1 9 7 31 22 11 8 63 48
67 52 1 1 5 4 10 9 6 4 11 8 12 10 22 20 34 26 59 30 35 5 60 20 79 46 5 8 6
23 1 34 -3 7 -12 15 -24 20 -4 2 -16 7 -26 12 -50 24 -65 31 -82 39 -23 11
-58 28 -83 40 -14 6 -21 9 -27 8 -11 -1 -16 -2 -17 -4 0 -1 -1 -2 -2 -2 -3 0
-14 -12 -14 -14 0 -5 -12 -12 -18 -12 -11 0 -17 7 -15 18 2 10 2 35 1 41 -1 4
-15 17 -18 17 -1 0 -9 3 -17 7 -15 7 -22 8 -33 4 -13 -4 -20 -13 -27 -34 -2
-6 -4 -12 -5 -14 -1 -2 -5 -13 -9 -24 -4 -11 -11 -31 -16 -44 -10 -25 -11 -33
-6 -44 3 -8 13 -19 17 -19 1 0 4 -3 6 -7 4 -7 4 -7 1 -12 -3 -4 -5 -5 -9 -4
-5 1 -25 -4 -30 -8 -5 -4 -10 -18 -10 -29 0 -10 -3 -18 -8 -22 -7 -5 -18 -14
-23 -19 -3 -4 -7 -7 -8 -7 -4 0 -13 9 -13 13 0 1 -1 3 -1 5 -2 9 -9 49 -10 60
-1 7 -2 13 -2 14 -1 1 -2 9 -9 62 -6 48 -9 58 -19 66 -3 2 -7 4 -9 4 -2 0 -4
1 -4 2 0 6 -25 -3 -37 -14 -8 -7 -16 -12 -20 -12 -9 0 -32 -10 -48 -20 -14
-10 -33 -11 -33 -3 0 2 -1 3 -1 3 -1 0 -2 7 -3 15 -1 26 -11 44 -27 46 -30 3
-35 7 -35 23 0 14 6 20 20 20 9 0 11 -1 16 -6 3 -4 9 -11 14 -16 4 -5 8 -9 8
-10 0 -1 1 -1 3 -1 30 -2 42 -3 53 -6 15 -3 27 -2 35 6 11 8 24 22 27 27 1 3
4 5 5 5 2 -1 3 -1 3 0 0 1 5 5 11 8 11 6 24 18 22 21 -1 1 0 2 2 3 2 0 3 3 3
5 0 6 9 17 15 20 21 8 52 52 50 71 -2 9 -9 23 -14 25 -3 2 -5 3 -5 4 0 2 -15
6 -24 7 -16 2 -43 14 -38 17 1 1 2 3 3 6 0 2 1 4 2 4 1 0 0 2 -1 4 -3 3 -3 3
0 1 4 -3 13 -3 20 1 3 1 10 4 16 5 11 4 11 4 15 17 10 26 3 52 -17 67 -13 10
-16 16 -16 29 0 16 6 23 20 25 20 2 37 7 40 11 2 2 5 4 7 4 3 0 3 1 0 2 -6 2
-6 7 0 11 6 4 10 4 14 -1 3 -3 3 -4 -1 -7 -2 -3 -3 -5 -3 -5 1 -1 2 -7 2 -13
2 -14 6 -21 14 -23 3 0 43 -1 88 -1 94 0 92 0 112 18 18 16 40 16 57 0 5 -4
13 -9 18 -12 11 -6 12 -6 52 -7 24 0 46 1 54 2 38 6 72 38 69 63 -2 20 -6 26
-48 62 -7 7 -16 14 -18 16 -13 12 -20 18 -40 35 -13 10 -26 22 -30 25 -18 15
-27 22 -38 32 -6 5 -16 13 -22 18 -5 4 -10 8 -11 9 -1 0 -10 8 -21 17 l-20 16
-14 0 c-10 0 -16 -1 -20 -3 -6 -5 -81 -103 -86 -115 -3 -4 -6 -15 -9 -23 -5
-18 -6 -20 -13 -25 -5 -4 -9 -4 -55 -5 l-49 -1 -6 6 c-3 3 -7 5 -9 5 -1 0 -2
1 -1 2 2 3 -11 18 -22 26 -15 9 -16 11 -19 21 -3 11 0 25 7 31 5 4 14 7 28 9
32 4 48 14 59 36 21 41 20 62 -3 73 -10 4 -42 7 -323 29 -8 1 -22 2 -30 2 -8
1 -16 1 -17 0z m-379 -91 c5 -5 6 -7 6 -17 0 -10 -1 -12 -6 -17 -3 -3 -8 -6
-10 -6 -11 0 -33 -8 -51 -19 -16 -10 -31 -4 -31 11 0 9 5 13 26 24 8 4 17 10
21 15 12 12 17 15 29 15 9 0 11 -1 16 -6z m26 -103 c3 -3 4 -7 4 -14 0 -13 -6
-19 -19 -19 -13 0 -19 6 -19 19 0 7 1 11 4 14 7 8 23 8 30 0z m505 -27 c14 -7
14 -7 40 -7 26 1 27 1 32 -4 6 -4 6 -6 6 -20 0 -14 0 -16 -6 -20 -4 -4 -7 -5
-18 -5 -12 0 -13 0 -23 9 -15 11 -24 15 -43 16 -19 2 -25 6 -25 19 0 18 14 23
37 12z m-652 -16 c5 -5 6 -7 6 -16 0 -15 -8 -23 -23 -23 -9 0 -11 1 -16 7 -9
8 -9 23 -1 32 9 9 24 9 34 0z m1038 -3 c11 -6 21 -16 25 -25 6 -12 3 -16 -16
-27 -7 -5 -18 -13 -24 -19 -10 -10 -13 -11 -26 -10 -7 0 -14 8 -14 16 -1 15
15 57 23 64 7 5 23 5 32 1z m-520 -22 c3 -2 5 -6 6 -7 3 -10 18 -28 28 -35 15
-10 18 -15 18 -29 0 -19 -6 -25 -26 -27 -7 -1 -19 -3 -28 -5 -15 -4 -17 -5
-28 -17 -17 -17 -19 -24 -19 -64 0 -29 0 -30 -5 -35 -3 -3 -5 -7 -5 -7 0 -1
-2 -2 -5 -2 -8 -1 -17 -9 -22 -20 -8 -16 -7 -50 1 -75 7 -23 8 -31 0 -53 l-6
-17 0 -156 c0 -86 0 -161 -1 -166 0 -5 -1 -26 -2 -47 -1 -21 -2 -47 -3 -59 -2
-33 -1 -46 4 -57 5 -12 7 -13 22 -13 10 0 18 3 21 9 3 5 4 7 11 15 4 4 9 12
11 18 3 6 6 13 7 14 1 2 2 5 2 7 0 1 3 5 6 8 l5 5 4 -4 c2 -2 4 -7 4 -11 2
-26 5 -37 12 -43 5 -5 30 -17 37 -19 7 -2 13 -8 15 -15 0 -3 1 -7 2 -10 1 -3
2 -13 4 -22 3 -15 3 -17 -1 -21 -6 -9 -16 -3 -26 16 -11 22 -24 28 -47 22 -3
0 -8 -4 -12 -8 -18 -17 -35 -22 -48 -14 -6 4 -26 3 -35 -2 -10 -6 -10 -16 0
-39 12 -24 11 -32 -7 -49 -14 -14 -21 -28 -26 -49 -3 -15 -3 -17 0 -27 2 -6 6
-14 9 -18 3 -3 6 -7 6 -7 0 -4 14 -9 25 -9 19 0 26 12 28 46 0 8 2 18 4 21 7
13 45 19 55 8 4 -4 4 -7 3 -17 -2 -16 -2 -41 0 -59 2 -18 -1 -24 -11 -29 -12
-5 -41 0 -56 10 -16 11 -33 11 -60 0 -24 -9 -31 -15 -39 -35 -9 -22 -6 -38 9
-51 5 -5 10 -9 10 -9 4 0 9 -14 9 -23 0 -23 -15 -32 -40 -26 -14 4 -33 3 -40
-2 -3 -2 -8 -7 -11 -12 -45 -61 -48 -66 -85 -102 -29 -29 -54 -52 -76 -68 -4
-3 -8 -7 -9 -7 0 -1 -2 -2 -3 -2 -2 0 -3 -1 -3 -2 0 -1 -2 -6 -4 -11 -3 -6 -5
-11 -4 -11 0 -1 -1 -2 -2 -2 -1 0 -2 -1 -1 -2 1 -2 1 -2 0 -2 -1 1 -4 1 -8 0
-3 -1 -12 -4 -20 -6 -9 -2 -19 -6 -26 -11 -21 -14 -34 -20 -39 -18 -7 1 -7 4
5 25 27 49 34 68 42 104 1 8 6 23 11 32 10 23 19 56 25 99 1 6 2 12 2 14 9 60
11 100 11 252 0 2 2 7 4 10 l4 7 9 -6 c23 -14 56 -24 83 -24 52 0 105 28 132
70 2 3 7 9 11 15 19 23 23 29 26 47 2 9 5 21 6 26 5 16 3 38 -4 44 -19 21 -19
41 1 51 7 4 8 5 8 9 1 4 0 34 -1 34 0 0 -13 1 -28 2 -37 2 -43 5 -44 25 0 24
12 33 38 29 14 -2 28 1 36 8 3 3 6 7 6 8 1 2 1 7 2 12 2 9 0 17 -10 53 -20 68
-41 117 -60 137 -7 7 -17 20 -22 29 -14 24 -20 28 -44 29 -15 0 -26 5 -31 15
-1 3 -23 19 -61 44 -33 22 -69 46 -81 53 -11 8 -21 14 -22 14 -4 2 0 11 5 13
2 2 10 4 16 5 22 4 30 9 33 18 4 9 6 27 4 33 -3 7 2 15 9 15 5 0 9 -5 16 -18
15 -31 60 -15 73 26 4 12 4 17 4 54 l-1 41 6 6 6 6 100 -1 100 0 12 4 c24 10
29 20 27 53 0 13 0 20 2 23 2 3 3 8 3 11 0 3 2 7 6 11 5 4 7 4 18 3 8 0 15 -2
18 -4z m-424 -55 c11 -10 3 -28 -11 -28 -9 0 -16 6 -16 16 0 14 17 22 27 12z
m504 -116 c2 -3 3 -9 3 -14 0 -12 4 -29 10 -42 6 -11 6 -27 1 -35 -10 -16 -16
-35 -17 -54 0 -11 -7 -17 -19 -17 -18 0 -24 12 -16 36 4 11 5 23 3 50 -1 9 0
13 6 24 7 15 10 27 10 39 0 10 5 17 11 17 3 0 6 -2 8 -4z m172 -23 c3 -5 3
-15 -1 -15 -1 0 -2 -2 -2 -4 0 -5 0 -5 -4 -1 -2 2 -5 7 -7 9 -3 6 -3 6 0 11 5
6 9 6 14 0z m-766 -29 c11 -10 3 -28 -11 -28 -9 0 -16 6 -16 16 0 14 17 22 27
12z m710 -124 c16 -6 23 -13 23 -23 0 -7 -5 -18 -8 -21 -2 -1 -39 10 -46 14
-12 7 -16 22 -7 32 3 4 5 4 15 3 6 0 16 -3 23 -5z m-740 -95 c4 -4 5 -7 5 -15
0 -14 -6 -20 -20 -20 -14 0 -20 6 -20 20 0 14 6 20 20 20 8 0 11 -1 15 -5z
m-123 -3 c1 0 5 -3 8 -6 5 -5 6 -7 6 -18 0 -13 -3 -18 -16 -27 -9 -6 -17 -19
-19 -28 0 -3 -1 -6 -1 -7 0 -1 0 -2 0 -3 0 -2 1 -3 6 -22 5 -18 5 -28 0 -36
-2 -4 -5 -7 -6 -7 0 0 -5 -3 -9 -7 -4 -4 -9 -8 -10 -8 -13 -10 -28 -12 -35 -4
-4 5 -4 6 -3 18 2 14 2 33 1 56 -1 16 2 21 17 31 7 4 14 10 16 13 4 7 11 28
11 36 0 8 5 15 12 18 5 2 8 2 22 1z m366 -28 c4 -6 5 -9 6 -33 0 -16 0 -34 -2
-46 -4 -33 -4 -37 1 -47 2 -5 6 -10 9 -11 2 -1 4 -3 4 -4 0 0 1 -1 2 0 1 1 2
0 2 -1 0 -1 3 -2 8 -2 9 0 15 -5 21 -18 17 -39 15 -56 -8 -56 -14 0 -18 5 -20
24 -1 19 -4 26 -9 27 -8 1 -26 2 -25 1 1 -2 -5 -5 -7 -4 -1 0 -2 -2 -2 -5 0
-4 -20 -46 -28 -57 -12 -17 -24 -29 -43 -44 -23 -18 -40 -35 -43 -42 -3 -7 -2
-23 2 -35 5 -15 5 -21 0 -26 -6 -6 -15 -6 -21 -1 -5 5 -6 12 -3 21 1 3 3 8 3
10 0 2 2 6 4 9 4 8 4 23 0 26 -1 2 -6 15 -10 29 -4 14 -9 29 -10 32 -1 3 -6
15 -10 26 -4 11 -8 21 -9 22 -1 1 -2 3 -2 4 0 3 -19 42 -31 64 -7 13 -7 23 1
34 9 13 11 22 9 45 l-2 20 7 6 c8 8 22 9 38 0 9 -5 13 -6 24 -6 13 0 14 1 23
7 19 15 29 18 55 20 24 1 34 3 48 12 9 6 12 6 18 -1z m386 -78 c5 -6 5 -6 -2
-11 l-5 -5 -5 4 -4 5 4 5 c5 7 7 7 12 2z m405 -26 c7 -6 7 -19 1 -25 -6 -7
-19 -7 -25 -1 -7 6 -7 19 -1 25 6 7 19 7 25 1z m-1076 -108 c7 -3 12 -13 12
-25 0 -19 -9 -28 -28 -28 -19 0 -28 9 -28 28 0 24 19 34 44 25z m1120 -21 c4
-4 5 -7 5 -13 0 -11 -6 -17 -19 -19 -12 -2 -17 3 -17 18 0 12 6 19 18 19 6 0
9 -1 13 -5z m-82 -25 c4 -2 7 -5 7 -6 1 0 6 -3 11 -6 11 -5 14 -9 16 -25 1 -8
0 -11 -3 -15 -4 -4 -4 -4 -17 -2 -23 4 -46 12 -50 17 -6 7 -7 25 -2 33 7 10
25 12 38 4z m-343 -13 c17 -8 20 -39 5 -54 -17 -17 -41 -7 -47 17 -5 24 7 40
29 39 4 0 10 -1 13 -2z m211 -15 c8 -14 1 -30 -14 -30 -11 0 -17 6 -17 17 0
20 21 29 31 13z m-121 -17 l-5 -5 -4 4 -5 5 4 4 5 5 4 -4 5 -5 -4 -4z m-516 3
c1 0 5 -3 8 -6 5 -5 6 -7 6 -18 0 -11 -1 -13 -6 -18 -6 -6 -7 -6 -18 -6 -11 0
-12 0 -18 6 -5 5 -6 7 -6 17 0 14 3 20 12 24 5 2 8 2 22 1z m-391 -23 c4 -4 5
-7 5 -15 0 -14 -6 -20 -20 -20 -14 0 -20 6 -20 20 0 14 6 20 20 20 8 0 11 -1
15 -5z m1006 -72 c3 -3 3 -3 0 -6 -3 -3 -3 -3 -6 0 -3 2 -3 3 -1 6 4 4 4 4 7
0z m-515 -9 c12 0 16 -17 6 -28 -9 -8 -38 -22 -47 -22 -14 0 -15 0 -21 6 -5 5
-6 7 -6 18 0 19 7 25 30 26 6 0 11 1 11 1 1 0 12 0 27 -1z m-327 -11 c6 -4 6
-6 6 -20 0 -14 0 -16 -6 -20 -4 -4 -7 -5 -18 -5 -11 0 -14 1 -18 5 -6 4 -6 6
-6 20 0 14 0 16 6 20 4 4 7 5 18 5 11 0 14 -1 18 -5z m-229 -24 c21 -8 28 -12
28 -20 0 -6 -7 -13 -13 -13 -7 0 -47 19 -51 25 -5 5 -5 6 0 12 4 6 6 6 36 -4z
m102 -11 c5 -5 5 -11 0 -16 -10 -10 -27 5 -16 16 4 4 12 4 16 0z m-149 -79 c5
-8 1 -16 -8 -16 -9 0 -13 8 -8 16 2 3 5 5 8 5 3 0 6 -2 8 -5z m899 -13 c1 0 5
-3 8 -6 12 -11 6 -40 -8 -43 -10 -2 -22 1 -28 7 -5 5 -6 7 -6 17 0 14 3 20 12
24 5 2 8 2 22 1z m-705 -8 c10 -9 3 -26 -10 -26 -8 0 -15 7 -15 15 0 13 16 20
25 11z m735 -78 c10 -3 14 -9 14 -21 0 -13 -6 -19 -20 -19 -14 0 -20 6 -20 20
0 6 1 11 3 13 2 1 3 4 3 5 0 4 9 5 20 2z m-741 -16 c11 -10 3 -28 -11 -28 -9
0 -16 6 -16 16 0 14 17 22 27 12z m1025 -41 l-5 -5 -4 4 -5 5 4 4 5 5 4 -4 5
-5 -4 -4z m100 -54 l-5 -5 -4 4 -5 5 4 4 5 5 4 -4 5 -5 -4 -4z m-538 -36 c3
-3 4 -7 4 -14 0 -13 -6 -19 -19 -19 -13 0 -19 6 -19 19 0 7 1 11 4 14 7 8 23
8 30 0z m436 -10 c15 -8 14 -41 -1 -48 -7 -4 -26 -5 -35 -1 -15 6 -12 44 3 50
12 4 23 4 33 -1z m-977 -6 c3 -5 3 -7 1 -18 -1 -6 -2 -13 -3 -15 -1 -4 -9 -12
-12 -12 -11 0 -11 34 -1 46 6 5 10 5 15 -1z m629 -26 c8 -8 5 -30 -6 -33 -17
-4 -28 4 -28 19 0 18 20 27 34 14z m497 -23 c7 -3 12 -13 12 -25 0 -19 -9 -28
-28 -28 -19 0 -28 9 -28 28 0 24 19 34 44 25z m139 -60 c5 -5 5 -15 0 -20 -9
-9 -24 -2 -24 10 0 8 6 14 14 14 3 0 8 -2 10 -4z m-779 -13 c9 -8 7 -16 -10
-50 -18 -35 -17 -34 -29 -39 -21 -10 -39 -2 -39 18 0 10 8 23 15 25 6 2 22 21
27 32 7 14 13 19 23 19 6 0 10 -1 13 -5z m-644 -68 c8 -3 22 -6 30 -7 8 -2 16
-4 19 -7 9 -8 2 -27 -10 -27 -3 0 -12 2 -21 4 -14 4 -26 5 -44 6 -12 0 -18 22
-8 31 6 6 14 6 34 0z m130 -67 c10 -9 3 -26 -10 -26 -8 0 -15 7 -15 15 0 13
16 20 25 11z m1080 -7 c3 -3 3 -3 0 -6 -3 -3 -3 -3 -6 0 -3 2 -3 3 -1 6 4 4 4
4 7 0z m-1192 -30 c12 -12 3 -31 -13 -31 -11 0 -18 7 -18 18 0 11 7 18 18 18
6 0 9 -1 13 -5z m179 -30 c5 -2 5 -5 -1 -15 -7 -11 -15 -16 -26 -16 -12 0 -15
3 -15 16 0 12 5 18 19 18 12 1 16 1 23 -3z"/>
</g>
</svg>
