<?xml version="1.0" standalone="no"?>
<!DOCTYPE svg PUBLIC "-//W3C//DTD SVG 20010904//EN"
 "http://www.w3.org/TR/2001/REC-SVG-20010904/DTD/svg10.dtd">
<svg version="1.0" xmlns="http://www.w3.org/2000/svg"
 width="1100.000000pt" height="2850.000000pt" viewBox="0 0 1100.000000 2850.000000"
 preserveAspectRatio="xMidYMid meet">
<metadata>
Created by potrace 1.15, written by Peter Selinger 2001-2017
</metadata>
<g transform="translate(0.000000,2850.000000) scale(0.500000,-0.500000)"
fill="#000000" stroke="none">
<path d="M542 3833 c-12 -4 -18 -8 -22 -17 -8 -17 -3 -29 19 -40 7 -4 13 -8
13 -9 0 -2 2 -3 4 -4 3 -1 3 -1 0 -4 -2 -1 -4 -3 -4 -4 0 -1 -5 -5 -12 -8 -25
-12 -26 -17 -26 -80 l1 -48 -6 -6 -6 -6 -227 0 -226 0 -8 -4 c-5 -2 -10 -6
-11 -8 -1 -2 -3 -4 -3 -5 -1 -1 -2 -1 -2 -2 0 -1 0 -2 -1 -4 -3 -9 -2 -14 2
-32 6 -24 7 -26 13 -32 7 -7 19 -11 34 -11 10 0 25 -5 26 -8 2 -4 14 -11 23
-14 23 -8 39 9 42 44 1 16 8 27 22 33 25 12 50 -8 43 -34 -4 -14 2 -33 13 -41
5 -4 7 -4 132 -4 l128 0 6 -6 6 -6 -1 -30 c-1 -30 -1 -31 -6 -36 -3 -3 -6 -4
-7 -3 -1 2 -36 16 -55 22 -18 6 -58 16 -82 20 -64 11 -86 10 -109 -3 -15 -9
-18 -13 -19 -31 0 -15 0 -15 7 -23 4 -4 12 -16 19 -25 19 -29 23 -33 41 -43
23 -13 25 -15 27 -25 2 -6 1 -12 -2 -24 -6 -26 -6 -30 -1 -50 3 -12 11 -53 12
-63 2 -16 3 -22 6 -23 1 -2 1 -2 0 -2 -2 0 -5 -2 -8 -5 l-6 -5 -49 0 c-54 0
-58 -1 -74 -11 -25 -17 -26 -18 -37 -18 -7 0 -14 2 -24 7 -12 6 -15 7 -25 6
-10 -1 -18 -6 -19 -12 0 -2 -1 -4 -1 -5 -5 -8 3 -46 14 -66 5 -10 16 -19 28
-23 5 -1 60 -2 206 -2 113 0 202 -1 204 -2 6 -2 15 -9 12 -10 -1 -1 -38 -51
-39 -55 -1 -3 -12 -9 -20 -11 -3 -1 -38 -2 -77 -2 -87 0 -86 0 -86 -26 0 -9
-1 -12 -3 -13 -3 0 -3 -1 0 -1 12 0 15 -26 6 -38 -5 -6 -6 -6 -19 -6 -13 0
-14 0 -19 6 -9 12 -6 38 6 38 3 0 3 1 1 1 -3 1 -4 4 -4 13 0 25 -1 26 -74 26
-66 0 -71 -1 -81 -12 -10 -12 -10 -22 -2 -51 9 -31 15 -44 26 -51 14 -10 19
-10 80 -9 31 1 61 1 67 1 102 -1 212 -2 217 -3 7 -1 18 -9 15 -11 -3 -2 -28
-39 -33 -48 -4 -8 -9 -24 -12 -38 -3 -18 -11 -24 -28 -25 -14 -1 -21 4 -33 24
-8 10 -14 18 -18 20 -3 1 -5 2 -6 3 -3 3 -15 3 -128 4 -83 0 -123 0 -128 -2
-12 -3 -20 -11 -23 -23 l-3 -11 7 -28 c5 -18 10 -31 15 -39 l8 -12 -6 -5 c-3
-3 -9 -8 -13 -11 -16 -13 -15 3 -15 -223 0 -132 1 -204 2 -208 4 -16 20 -26
43 -27 12 -1 20 -5 34 -17 13 -13 19 -23 19 -34 0 -10 -8 -28 -17 -38 -2 -1
-3 -3 -3 -4 0 -2 -14 -8 -20 -8 -7 0 -18 6 -18 9 0 2 -9 2 -29 1 -1 0 -4 -2
-7 -4 -4 -3 -4 -5 -3 -54 0 -57 -1 -54 18 -83 24 -37 35 -41 92 -34 28 4 74
15 88 21 2 1 9 4 15 6 59 23 89 52 89 84 0 10 1 12 6 17 l6 6 30 0 30 0 6 -6
6 -6 -1 -22 c0 -16 1 -23 3 -30 4 -9 14 -21 18 -21 2 0 3 -1 3 -2 0 -2 2 -2
36 -3 35 -1 58 1 91 8 56 12 62 16 71 54 5 17 8 22 16 26 8 3 20 3 26 0 3 -2
6 -2 6 -2 1 0 5 1 11 2 5 1 11 2 12 3 1 1 3 2 3 1 1 0 4 3 7 7 l5 9 0 148 0
148 6 8 c6 10 16 11 24 3 l5 -4 1 -214 c1 -170 2 -214 4 -219 3 -7 14 -19 17
-19 2 0 3 -1 3 -2 0 -4 78 -4 106 1 78 14 148 44 180 78 5 5 12 18 11 20 -1 0
0 1 1 1 2 0 6 3 10 6 6 6 7 6 35 6 24 0 29 1 33 4 7 5 11 13 13 23 1 4 2 8 3
9 1 0 1 2 -1 3 -6 4 0 14 8 14 8 0 14 -10 8 -14 -2 -1 -2 -3 -1 -3 1 -1 2 -5
3 -9 2 -10 6 -18 14 -24 5 -4 7 -4 66 -4 l62 0 6 -6 6 -6 -1 -26 c0 -20 0 -27
3 -34 4 -9 14 -21 18 -21 2 0 3 -1 3 -2 0 -2 1 -2 35 -3 40 -2 65 1 113 12 14
3 31 8 52 16 69 24 100 45 110 73 l4 13 0 240 0 240 5 8 c4 5 8 10 11 11 13 4
38 24 47 38 3 5 4 21 1 29 -3 8 -24 27 -39 35 -12 6 -31 5 -37 -2 -4 -6 -16
-29 -16 -33 0 -6 -9 -11 -19 -11 -20 0 -26 19 -13 37 4 4 8 8 8 9 3 2 12 23
12 28 0 7 -6 21 -12 29 -5 6 -20 19 -47 39 -7 5 -14 11 -17 14 -3 2 -6 4 -6 4
-1 0 -3 1 -4 3 -2 1 -9 7 -16 12 -7 6 -13 10 -14 11 -1 1 -4 3 -8 6 -4 3 -7 5
-8 6 -1 1 -4 4 -8 7 -7 4 -9 5 -24 5 l-17 0 -18 -19 c-10 -10 -28 -29 -40 -42
-46 -49 -51 -54 -63 -58 -6 -2 -16 -3 -23 -3 -13 0 -30 5 -28 8 1 1 0 2 -2 2
-3 0 -4 0 -1 2 2 0 9 6 17 11 11 9 13 11 15 20 5 18 -2 34 -16 40 -11 4 -31 4
-41 0 -18 -6 -34 3 -34 21 0 11 6 20 13 20 2 0 4 1 4 2 0 3 9 1 22 -4 14 -6
36 -7 46 -1 4 2 11 3 18 3 11 0 12 0 23 -10 11 -10 17 -12 31 -12 8 0 13 3 27
17 16 16 28 18 46 10 12 -5 37 -7 37 -3 0 1 3 3 7 5 6 3 27 3 143 3 146 0 147
0 169 11 21 10 39 34 39 51 0 19 -8 29 -56 72 -9 8 -18 16 -19 17 -8 7 -36 32
-46 40 -10 9 -13 10 -23 11 -8 0 -17 -1 -25 -3 -12 -3 -13 -3 -20 0 -9 4 -11
10 -11 28 0 14 1 17 9 34 8 16 17 30 30 46 3 3 7 10 9 14 5 10 19 17 35 20 5
1 14 4 21 8 12 6 14 7 24 23 5 9 11 19 12 22 4 8 2 29 -3 35 -3 5 -40 24 -143
76 -135 67 -139 69 -148 68 -19 -3 -27 -9 -37 -31 -18 -41 -19 -44 -24 -47 -7
-5 -17 -2 -25 6 -8 7 -30 26 -55 47 -14 12 -17 13 -27 14 -11 1 -11 1 -12 7 0
8 2 11 20 22 24 15 30 32 30 78 l-1 30 6 6 6 6 205 0 c132 -1 209 0 216 1 13
3 30 10 34 15 10 11 17 57 12 77 -2 9 -4 12 -24 29 -33 31 -59 53 -68 60 -3 2
-5 4 -6 5 -7 8 -26 21 -31 22 -9 2 -26 1 -34 -3 -16 -7 -20 -3 -20 22 0 28 -2
31 -21 46 -11 9 -14 10 -24 11 -14 1 -24 -3 -31 -13 -3 -5 -6 -8 -7 -9 -1 -1
-5 -6 -10 -13 -5 -7 -10 -13 -12 -15 -1 -1 -6 -8 -11 -16 -6 -7 -10 -13 -11
-14 -3 -2 -21 -27 -24 -32 -2 -3 -9 -14 -16 -23 -20 -25 -21 -26 -74 -27 l-43
-1 -6 6 -6 6 1 32 c1 39 3 42 19 50 21 11 38 29 44 48 6 20 2 36 -9 44 -7 4
-25 5 -34 2 -14 -5 -25 -4 -41 4 -8 4 -15 8 -16 9 -6 4 -19 7 -44 9 -9 1 -30
2 -48 4 -18 2 -38 3 -45 4 -7 1 -22 2 -33 3 -11 1 -26 2 -34 3 -8 1 -24 2 -35
3 -33 3 -47 -2 -55 -21 l-5 -11 0 -91 1 -92 -6 -6 c-6 -5 -8 -6 -18 -6 -22 0
-32 -8 -46 -37 -2 -3 -9 -11 -16 -17 -22 -19 -27 -30 -22 -46 7 -20 16 -23 62
-23 36 0 37 0 42 -5 l5 -5 -1 -40 c-2 -41 -2 -41 -7 -46 -5 -5 -6 -5 -18 -3
-51 6 -70 0 -79 -23 -3 -8 -3 -18 -3 -81 l1 -72 -6 -6 -6 -6 -75 1 c-53 0 -77
-1 -81 -2 -3 -1 -11 -3 -17 -4 -14 -2 -21 1 -39 16 -8 6 -17 13 -20 15 -3 2
-7 6 -10 8 -2 2 -7 5 -10 8 -3 2 -6 5 -8 6 -1 1 -6 5 -10 8 -4 3 -9 7 -11 9
-4 4 -11 6 -21 6 -15 0 -22 -4 -39 -27 -9 -11 -18 -22 -19 -24 -8 -9 -16 -25
-21 -38 -5 -16 -10 -22 -23 -30 -4 -3 -10 -7 -12 -10 -6 -7 -16 -10 -20 -7 -5
4 -3 13 5 23 21 24 40 51 43 59 2 7 2 27 -1 40 -2 11 -13 37 -17 42 -3 4 10
14 17 14 32 0 111 17 144 30 49 21 58 35 58 97 l0 36 6 6 5 6 48 -1 c40 0 49
0 56 3 15 6 21 18 22 42 1 18 4 23 19 30 7 3 12 6 12 7 0 1 2 2 4 2 3 0 3 2 3
16 l-1 17 -9 3 c-9 4 -15 4 -82 4 l-72 -1 -6 6 -6 6 0 28 c0 15 -1 34 -2 42
-2 18 2 22 20 24 20 2 29 8 38 26 10 19 13 30 9 42 -7 23 -17 26 -122 34 -9 1
-20 2 -25 2 -6 1 -15 1 -22 2 -7 1 -16 1 -21 2 -11 1 -18 2 -99 9 -75 7 -68 7
-77 3z m897 -100 c3 -5 3 -5 0 -10 -2 -3 -5 -5 -7 -5 -2 0 -5 2 -7 5 -3 5 -3
5 0 10 2 3 5 5 7 5 2 0 5 -2 7 -5z m-696 -146 c2 -3 6 -10 9 -14 l4 -8 -7 -4
c-13 -7 -30 -7 -37 0 -6 6 -6 21 0 28 8 9 24 8 31 -2z m78 -23 c3 -2 7 -5 8
-9 4 -7 5 -26 1 -29 -1 -2 -1 -4 -1 -5 1 -1 -1 -4 -3 -7 -4 -4 -6 -4 -18 -3
-20 1 -25 4 -30 18 -3 7 -5 13 -6 14 -2 2 -3 5 -3 8 0 4 7 10 17 12 2 1 6 2
10 3 8 2 16 1 25 -2z m464 -63 c5 -2 11 -6 13 -9 4 -6 4 -6 1 -11 -6 -8 -25
-9 -45 -3 -10 4 -14 16 -6 24 4 4 6 4 16 3 6 0 16 -2 21 -4z m107 -5 c5 -6 5
-12 0 -18 -7 -8 -22 -2 -22 9 0 11 15 17 22 9z m-667 -85 c5 -8 1 -16 -8 -16
-9 0 -13 8 -8 16 2 3 5 5 8 5 3 0 6 -2 8 -5z m637 -83 c4 -5 5 -11 1 -15 -11
-11 -28 4 -17 15 4 4 12 4 16 0z m-105 -51 c12 -7 14 -33 3 -43 -8 -9 -32 -9
-40 0 -9 8 -9 32 0 41 7 7 27 8 37 2z m317 -62 c8 -7 2 -20 -8 -20 -6 0 -12 6
-12 11 0 10 13 16 20 9z m-452 -82 c12 -5 18 -21 14 -35 -1 -5 -3 -10 -4 -11
-5 -7 -10 -29 -11 -48 -2 -30 -6 -35 -29 -30 -21 4 -39 -2 -46 -15 -4 -8 -4
-11 -4 -47 l1 -38 -6 -6 -6 -6 -99 0 c-55 0 -106 -1 -114 -2 -18 -1 -21 1 -22
19 -2 22 -6 30 -19 43 -21 21 -33 31 -35 31 -2 0 4 7 10 10 2 1 29 2 70 2 75
0 84 1 103 10 23 11 45 36 42 49 0 3 0 5 1 5 0 0 4 2 7 5 5 5 7 5 30 5 18 0
27 -1 32 -3 13 -6 33 1 39 12 2 3 3 10 2 16 0 11 3 22 8 28 7 8 24 11 36 6z
m147 -15 c10 -9 3 -26 -10 -26 -8 0 -15 7 -15 15 0 13 16 20 25 11z m-582 0
c4 -1 9 -3 11 -6 13 -12 6 -46 -10 -54 -10 -5 -12 -5 -21 -1 -9 4 -16 21 -16
36 0 13 3 18 14 23 9 4 11 5 22 2z m752 -50 l5 -4 -11 -16 c-5 -8 -14 -22 -20
-31 -5 -8 -11 -16 -12 -18 -5 -5 -19 -27 -19 -29 0 -3 -3 1 -8 8 -3 4 -4 11
-4 44 0 21 0 39 -1 39 0 1 2 4 6 8 l6 6 26 -1 c24 -1 27 -1 32 -6z m-606 -11
c3 -3 3 -3 0 -6 -3 -3 -3 -3 -6 0 -3 2 -3 3 -1 6 4 4 4 4 7 0z m385 -23 c5 -5
6 -7 6 -17 0 -10 -1 -12 -6 -17 -5 -6 -7 -6 -19 -6 -11 1 -14 2 -19 6 l-6 5 3
13 c4 17 9 22 24 22 10 0 12 -1 17 -6z m-71 -56 c1 0 0 -2 -3 -4 -4 -4 -4 -4
-8 -1 -4 3 -4 3 1 8 4 5 4 5 6 1 1 -2 3 -4 4 -4z m76 -39 c12 -12 3 -31 -13
-31 -11 0 -18 7 -18 18 0 11 7 18 18 18 6 0 9 -1 13 -5z m-490 -58 c6 -4 6 -6
6 -20 0 -14 0 -16 -6 -20 -4 -4 -7 -5 -18 -5 -11 0 -14 1 -18 5 -6 4 -6 6 -6
20 0 14 0 16 6 20 4 4 7 5 18 5 11 0 14 -1 18 -5z m447 -25 c8 -7 9 -24 2 -33
-9 -11 -29 -11 -38 0 -7 9 -6 26 2 33 5 5 7 6 17 6 10 0 12 -1 17 -6z m185 1
c7 -4 10 -11 10 -23 0 -12 -4 -21 -11 -23 -1 -1 -6 -2 -9 -4 -4 -2 -8 -2 -11
-1 -3 1 -7 3 -9 3 -14 3 -19 34 -7 46 7 7 27 8 37 2z m-1116 -4 c3 -5 3 -5 0
-10 -2 -3 -5 -5 -7 -5 -2 0 -5 2 -7 5 -3 5 -3 5 0 10 2 3 5 5 7 5 2 0 5 -2 7
-5z m1273 -15 c6 -6 7 -23 1 -30 -3 -4 -5 -5 -13 -4 -11 2 -16 7 -17 19 -1 8
-1 10 3 14 6 6 19 7 26 1z m-698 -40 c4 -3 9 -7 12 -10 14 -14 2 -13 196 -14
l176 -1 4 -4 c3 -3 6 -5 8 -5 1 0 0 -2 -2 -4 -2 -2 -7 -13 -10 -24 -7 -21 -10
-26 -24 -29 -12 -3 -30 -13 -40 -23 -12 -12 -24 -17 -35 -15 -5 1 -95 37 -180
70 -14 6 -19 7 -26 6 -11 -2 -20 -7 -24 -15 -4 -8 -8 -39 -7 -64 1 -73 4 -160
5 -165 2 -3 4 -10 6 -15 10 -22 7 -34 -7 -31 -7 1 -18 6 -20 9 -1 1 -5 4 -9 7
-10 6 -24 7 -40 1 -17 -6 -29 -5 -36 2 -5 6 -6 10 -5 29 0 4 0 10 -1 13 -2 9
-6 19 -8 22 -3 3 -63 49 -67 51 -2 0 -2 1 1 1 1 0 3 1 3 2 0 6 12 8 57 9 50 1
57 2 76 13 21 13 35 33 35 48 0 12 -7 27 -20 39 -9 8 -11 9 -21 10 -15 2 -19
-1 -29 -16 -9 -15 -10 -15 -21 -15 -13 0 -19 6 -19 19 0 9 0 11 6 15 4 3 10 8
15 13 7 7 7 7 6 20 -1 13 -1 13 -10 22 -5 4 -11 10 -13 12 -2 1 -4 3 -6 3 -2
0 -2 1 1 3 5 5 16 9 27 9 6 0 15 1 20 3 13 4 18 3 26 -1z m-216 -201 c12 -6
12 -6 -10 -29 -12 -12 -28 -29 -38 -39 -19 -20 -27 -24 -50 -27 -18 -2 -28 -6
-35 -13 -7 -7 -7 -25 0 -35 7 -12 11 -22 12 -32 1 -6 1 -11 2 -12 1 -1 2 -4 2
-6 2 -11 14 -24 23 -24 2 0 7 -3 10 -7 l7 -6 0 -115 0 -115 -6 -6 c-3 -3 -8
-6 -10 -6 -10 -1 -20 -14 -22 -28 -1 -4 -2 -8 -3 -9 -1 0 -1 -2 1 -3 6 -4 0
-14 -8 -14 -8 0 -14 10 -8 14 2 1 2 3 1 3 -1 1 -2 5 -3 9 -2 12 -12 28 -14 23
0 -2 -1 -1 -1 1 0 3 -2 7 -5 10 l-6 6 1 113 c0 115 0 122 -8 137 -5 11 -16 18
-38 23 -13 3 -17 7 -18 16 0 7 6 16 11 16 4 0 19 8 25 13 2 3 6 9 7 14 2 8 2
9 -2 17 -13 23 -8 20 -146 74 -29 11 -56 22 -61 24 -4 2 -10 4 -12 4 -5 0 -5
0 -1 4 2 2 6 5 10 6 3 1 91 2 197 2 161 0 192 0 196 -3z m668 -19 c6 -5 9 -19
6 -21 -2 -1 7 -26 11 -31 1 -1 6 -4 10 -6 7 -4 15 -4 76 -4 63 0 69 0 82 -4
29 -9 43 -20 43 -33 0 -8 -1 -10 -9 -16 -5 -5 -11 -10 -13 -11 -2 -2 -4 -3 -4
-2 0 0 -3 -3 -5 -9 -3 -5 -6 -11 -5 -11 0 -1 -1 -2 -2 -2 0 0 -1 -2 -1 -5 0
-4 1 -6 2 -5 0 1 2 -1 4 -3 2 -3 5 -4 14 -3 7 0 13 -1 13 -3 1 -1 2 -1 2 1 0
10 22 11 32 3 4 -3 7 -6 8 -7 6 -7 29 -14 39 -12 13 1 20 0 26 -6 13 -13 4
-38 -13 -38 -13 -1 -15 0 -26 10 -15 13 -22 17 -40 17 -21 2 -24 2 -26 8 -1 2
-2 3 -2 1 0 -1 -3 -2 -13 -1 -15 2 -25 -1 -31 -9 -3 -3 -6 -5 -8 -5 -2 0 -8
-1 -14 -2 -9 -1 -16 0 -31 3 -19 4 -25 4 -104 4 l-84 -1 -6 6 -6 6 1 54 c1 52
1 54 6 62 2 5 7 10 9 11 6 3 14 13 17 24 1 5 3 11 4 13 1 3 1 5 0 6 -3 2 0 16
5 21 9 9 25 9 33 0z m-304 -100 c5 -5 5 -15 0 -20 -9 -9 -24 -2 -24 10 0 8 6
14 14 14 3 0 8 -2 10 -4z m-188 -58 c5 -5 5 -11 0 -16 -10 -10 -27 5 -16 16 4
4 12 4 16 0z m-430 -32 c0 0 2 -2 4 -5 5 -8 5 -25 0 -31 -7 -9 -27 -9 -34 0
-5 6 -5 24 0 30 4 5 14 8 24 6 3 -1 6 -1 6 0z m887 -68 c10 -9 3 -26 -10 -26
-8 0 -15 7 -15 15 0 13 16 20 25 11z m-110 -40 c11 -10 3 -28 -11 -28 -9 0
-16 6 -16 16 0 14 17 22 27 12z m244 -11 c33 -19 46 -21 85 -11 58 15 83 2 89
-45 3 -21 14 -29 39 -32 21 -2 27 -8 27 -27 0 -21 -7 -26 -36 -27 -22 -1 -22
-1 -41 -6 -14 -3 -24 -2 -33 4 -5 3 -5 4 -5 21 0 10 1 18 2 19 1 1 2 6 1 13
-1 12 -5 25 -5 20 0 -3 -12 -4 -12 -1 0 1 -1 0 -3 -1 -2 -1 -3 -2 -3 -1 0 1
-1 0 -2 -2 -1 -3 -3 -5 -5 -5 -2 0 -3 0 -3 -1 1 -1 -1 -5 -3 -10 -5 -9 -5 -10
-1 -14 3 -3 6 -4 18 -3 l14 0 0 -13 0 -13 -14 0 c-14 1 -15 0 -18 -4 -2 -3 -4
-7 -4 -10 -1 -3 -4 -8 -7 -11 l-6 -6 -118 0 -118 0 -6 6 -6 6 0 63 0 63 7 6
c3 4 6 6 6 5 0 0 21 -1 46 0 52 1 49 1 77 17 7 4 15 7 19 7 4 0 12 -3 19 -7z
m-1167 -65 c5 -5 5 -11 0 -16 -10 -10 -27 5 -16 16 4 4 12 4 16 0z m399 -127
c7 -4 10 -11 10 -23 0 -19 -8 -27 -28 -27 -14 0 -21 5 -24 17 -5 17 1 33 15
36 9 2 22 1 27 -3z"/>
</g>
</svg>
