<?xml version="1.0" standalone="no"?>
<!DOCTYPE svg PUBLIC "-//W3C//DTD SVG 20010904//EN"
 "http://www.w3.org/TR/2001/REC-SVG-20010904/DTD/svg10.dtd">
<svg version="1.0" xmlns="http://www.w3.org/2000/svg"
 width="1100.000000pt" height="2850.000000pt" viewBox="0 0 1100.000000 2850.000000"
 preserveAspectRatio="xMidYMid meet">
<metadata>
Created by potrace 1.15, written by Peter Selinger 2001-2017
</metadata>
<g transform="translate(0.000000,2850.000000) scale(0.500000,-0.500000)"
fill="#000000" stroke="none">
<path d="M1022 3829 c-8 -5 -12 -8 -16 -14 -6 -12 -6 -17 0 -34 5 -16 5 -27 1
-50 -3 -13 -3 -22 -2 -48 0 -18 1 -52 2 -77 1 -43 2 -46 6 -56 5 -8 8 -12 17
-18 7 -4 13 -9 14 -11 4 -7 -1 -16 -9 -21 -23 -13 -24 -17 -25 -81 l-1 -52 -5
-5 c-5 -5 -7 -6 -24 -6 -21 -1 -33 -5 -46 -17 -17 -14 -52 -29 -67 -28 -16 1
-51 19 -58 30 -5 7 -5 27 0 34 1 2 7 7 12 9 14 7 17 12 17 28 0 10 -1 14 -4
16 -1 2 -12 10 -23 18 -22 17 -26 20 -30 24 -3 3 -20 2 -29 -1 -3 -1 -8 -4
-11 -7 -3 -3 -6 -6 -7 -6 -1 0 -3 -1 -4 -3 -1 -2 -6 -3 -11 -3 -16 0 -22 14
-12 33 7 13 7 36 1 42 -13 12 -35 14 -47 5 -8 -5 -49 -48 -49 -51 0 -1 -1 -1
-2 1 -2 1 -4 2 -6 2 -4 0 -4 5 -4 70 0 71 -1 76 -8 88 -7 10 -26 17 -46 18
-22 0 -39 -6 -54 -19 -12 -11 -26 -14 -44 -9 -16 4 -21 22 -12 40 5 11 5 29 0
36 -2 3 -7 9 -11 12 -11 7 -13 11 -13 23 0 7 1 10 5 14 10 10 35 4 35 -9 0 -2
1 -7 3 -11 2 -4 3 -10 4 -13 3 -15 34 -28 56 -24 17 3 27 10 39 26 12 17 20
22 32 22 8 0 20 -5 20 -8 0 -5 14 -10 26 -10 16 0 17 1 25 25 5 15 5 15 2 27
-2 6 -4 11 -5 12 -1 1 -2 2 -2 4 -2 4 -18 12 -27 13 -5 1 -31 3 -60 5 -58 5
-62 5 -96 8 -13 1 -30 2 -38 3 -8 1 -18 1 -24 2 -5 0 -15 1 -22 2 -7 0 -19 1
-28 2 -15 1 -17 1 -27 -4 -14 -8 -22 -21 -22 -39 0 -21 6 -31 25 -40 7 -3 14
-8 17 -11 l4 -5 -3 -9 c-2 -6 -5 -11 -5 -12 -3 -3 -22 -33 -22 -34 0 0 -3 -5
-6 -11 -13 -20 -9 -34 21 -67 10 -12 18 -28 18 -38 -1 -11 -5 -16 -20 -25 -22
-12 -28 -21 -28 -49 -1 -11 -2 -22 -2 -24 -1 -5 -10 -16 -11 -14 -1 1 -12 7
-25 12 -13 5 -28 11 -32 13 -26 12 -49 20 -55 20 -16 0 -26 -12 -29 -35 -3
-19 -7 -23 -30 -24 -22 -1 -38 -7 -44 -17 -11 -16 -11 -18 -11 -189 0 -151 0
-157 4 -165 2 -4 5 -8 7 -10 6 -4 24 -10 35 -10 12 0 18 -6 18 -19 0 -13 -6
-19 -18 -19 -11 0 -29 -6 -35 -10 -2 -2 -5 -6 -7 -10 -4 -7 -4 -13 -4 -93 0
-96 0 -96 15 -114 15 -18 17 -21 17 -32 0 -11 -2 -14 -17 -32 -12 -14 -15 -25
-15 -53 0 -17 1 -26 3 -31 4 -9 14 -21 18 -21 2 0 3 -1 3 -2 0 -2 2 -2 32 -3
46 -1 89 7 132 25 17 8 35 17 38 20 1 1 3 1 5 1 2 0 7 1 10 2 6 1 34 3 51 3
14 1 20 -6 36 -38 9 -18 10 -27 3 -34 -9 -9 -24 -4 -43 15 l-12 10 -10 -1
c-20 -3 -28 -14 -28 -40 0 -35 11 -44 56 -46 1 0 5 -3 8 -6 5 -5 6 -7 6 -18 0
-11 -1 -13 -6 -18 -3 -3 -7 -6 -8 -6 -34 -2 -45 -6 -52 -21 -5 -11 -6 -49 -1
-61 4 -8 14 -18 18 -18 2 0 3 -1 3 -2 0 -1 4 -3 9 -4 12 -3 17 -10 13 -17 -1
-3 -3 -6 -5 -6 -4 -2 -23 4 -35 11 -10 5 -9 5 -53 -2 -31 -4 -43 -11 -52 -26
-2 -3 -8 -10 -14 -16 -8 -10 -10 -12 -14 -10 -3 1 -5 1 -6 0 -1 0 -1 0 -1 1 1
2 -1 8 -4 14 -1 2 -2 4 -1 5 1 1 -5 5 -12 8 -19 9 -40 8 -60 -3 -6 -3 -8 -6
-11 -17 -2 -7 -4 -18 -4 -24 0 -14 -2 -19 -9 -27 -5 -6 -9 -17 -10 -30 -1 -7
0 -10 4 -13 7 -7 23 -12 35 -12 24 1 27 0 41 -7 36 -18 65 0 70 42 2 17 11 24
28 24 20 0 33 -12 40 -37 6 -19 7 -32 2 -41 -5 -10 -19 -14 -36 -10 -14 4 -18
3 -37 -1 -8 -3 -22 -5 -31 -5 -21 -1 -25 -2 -38 -10 -5 -4 -14 -7 -19 -8 -5
-1 -11 -2 -14 -3 -3 -1 -5 -2 -6 -2 -6 0 -15 -17 -14 -27 0 -8 38 -103 47
-120 8 -14 20 -22 35 -23 15 -1 47 16 61 33 15 18 28 30 39 37 6 3 12 7 14 8
2 1 20 12 42 25 21 13 40 25 42 27 8 6 12 20 13 40 1 18 1 19 7 25 8 8 19 8
39 -2 14 -7 17 -7 27 -7 16 2 18 4 18 23 l0 14 -10 10 c-12 12 -15 23 -12 36
5 18 9 20 59 21 4 0 5 2 6 5 1 3 2 5 3 5 1 0 4 5 7 12 8 16 13 20 26 20 10 0
12 -1 17 -6 3 -3 6 -7 6 -9 0 -2 1 -9 3 -15 1 -5 2 -10 1 -10 -1 0 -1 -2 0 -4
1 -2 3 -4 5 -4 2 0 5 -7 10 -33 5 -22 10 -32 25 -46 25 -23 29 -26 43 -25 12
0 16 2 25 10 9 8 4 28 -12 46 -10 11 -11 13 -10 26 0 9 9 18 18 19 13 1 43
-12 72 -32 10 -6 24 -14 31 -17 15 -7 19 -12 20 -27 1 -15 -4 -25 -16 -33 -6
-4 -11 -8 -11 -9 -5 -7 -7 -10 -9 -12 -2 -2 -3 -8 -3 -14 0 -14 6 -26 14 -31
6 -3 20 -1 27 3 5 4 13 22 13 31 0 10 6 20 12 21 3 0 14 1 25 1 22 -1 31 1 44
10 12 9 21 10 35 7 11 -2 34 -1 36 3 1 1 3 2 4 3 5 1 20 20 21 27 2 6 -2 25
-6 29 -3 3 -18 7 -24 6 -5 -1 -17 -3 -21 -5 -6 -1 -22 0 -26 2 -7 4 -11 11
-11 24 0 20 7 26 32 27 17 1 35 3 37 4 6 4 29 5 36 1 5 -3 24 -2 33 1 7 2 12
9 27 38 7 13 14 26 15 28 4 6 8 25 7 34 -1 4 0 7 0 7 1 0 1 2 0 4 -1 2 -1 4
-1 4 3 3 -10 1 -19 -3 -27 -12 -49 -6 -54 14 -5 22 8 39 29 38 10 0 17 -3 21
-8 3 -4 13 -29 13 -31 -1 -1 6 -1 14 0 14 1 23 5 23 9 0 2 3 9 6 15 14 29 43
105 63 164 14 40 17 41 28 10 3 -10 9 -23 12 -27 6 -10 13 -31 13 -39 0 -9 6
-22 11 -26 7 -5 17 -8 31 -9 15 -2 18 -4 28 -17 7 -11 20 -22 25 -22 3 0 8 -2
12 -4 4 -2 8 -3 9 -3 4 2 1 -11 -4 -17 -12 -16 -20 -18 -37 -7 -11 7 -25 10
-25 5 0 -2 -1 -2 -2 0 -3 4 -15 -9 -13 -14 1 -2 0 -9 -2 -16 -3 -13 -12 -26
-49 -76 -37 -48 -41 -53 -51 -63 -9 -9 -10 -10 -11 -22 0 -12 0 -14 7 -26 8
-14 9 -27 4 -34 -6 -9 -28 -12 -48 -7 -32 7 -61 -11 -61 -38 0 -16 4 -20 28
-32 12 -6 24 -13 25 -15 2 -2 4 -14 6 -25 2 -12 4 -23 4 -25 2 -7 11 -17 18
-20 7 -3 21 -4 24 -3 1 1 7 5 14 8 7 4 13 8 15 9 2 1 4 3 6 4 7 3 78 48 80 51
1 1 7 5 15 11 42 28 79 59 79 65 0 4 0 5 2 9 1 1 3 11 4 21 3 25 7 30 27 31
14 1 26 4 43 13 19 10 24 10 46 8 9 -1 22 -3 29 -3 9 -1 12 -2 16 -6 5 -5 5
-6 2 -14 -4 -9 -10 -15 -27 -29 -14 -12 -29 -16 -39 -11 -8 4 -32 4 -40 1 -3
-2 -6 -5 -6 -8 -3 -9 1 -28 6 -37 15 -24 63 -76 107 -117 30 -28 33 -30 42
-38 5 -4 9 -7 10 -8 1 -1 9 -7 18 -15 9 -7 18 -14 20 -15 19 -17 41 -28 49
-26 0 0 1 -1 1 -2 0 -1 3 -2 7 -3 4 -1 9 -4 12 -7 3 -4 5 -6 5 -5 0 1 2 -2 4
-7 l3 -9 14 -1 c10 0 13 1 11 2 -3 2 -3 2 0 2 5 0 2 24 -3 30 -2 2 -4 4 -5 4
0 -1 -3 0 -5 1 -1 1 -6 1 -10 1 -12 -2 -17 13 -12 35 3 12 22 15 37 6 8 -4 12
-4 22 -4 15 1 21 4 29 19 7 14 13 22 24 35 8 9 9 12 9 21 0 14 -3 20 -16 32
-12 11 -12 11 -12 23 0 10 1 12 6 17 5 5 7 6 16 6 14 0 18 -3 26 -16 9 -17 14
-20 29 -22 9 -1 14 0 16 2 2 1 8 4 14 7 5 2 9 4 9 5 0 1 1 2 3 2 2 0 8 5 14
11 9 11 18 16 41 26 4 1 11 6 16 10 7 7 8 8 8 17 0 12 -3 20 -12 27 -7 7 -52
25 -60 25 -11 0 -38 -13 -35 -17 1 0 1 -1 -1 -1 -1 0 -3 -1 -5 -3 -3 -4 -13 0
-13 4 0 2 -1 4 -3 4 -1 1 -2 3 -2 5 -1 5 -6 20 -11 30 -8 18 -29 24 -60 17
-17 -3 -28 -2 -34 4 -2 2 -6 10 -9 17 -8 17 -15 28 -24 35 -4 3 -7 5 -8 5 0 0
-6 3 -12 7 -6 4 -11 7 -12 7 0 0 -5 3 -9 6 -5 3 -20 13 -33 21 -43 28 -47 32
-48 44 -1 7 0 10 7 21 5 7 9 13 10 14 4 3 33 50 41 67 14 27 17 33 32 55 35
49 95 185 133 301 7 20 9 25 15 31 4 3 9 6 11 6 11 0 46 19 43 23 -2 1 6 12
13 18 2 3 4 6 4 7 0 1 1 2 2 1 1 -1 1 1 1 3 -1 4 -1 4 1 2 1 -2 2 -1 1 2 0 4
-1 5 -2 5 -2 -1 -3 0 -3 1 0 3 -22 3 -29 0 -9 -3 -12 2 -8 11 l4 7 6 -3 c4 -2
6 -4 6 -5 -1 -1 0 -1 2 -1 2 1 3 2 3 3 0 1 -1 2 -2 1 -1 -1 -2 0 -2 1 1 2 -1
7 -3 11 -4 9 -5 13 -5 22 -1 4 -1 7 -2 7 -1 0 -5 3 -9 8 -5 4 -14 12 -22 19
-7 7 -16 14 -18 16 -19 17 -35 31 -41 36 -4 3 -8 7 -9 8 -2 2 -10 10 -38 34
-20 18 -31 28 -35 31 -24 24 -35 29 -52 27 -10 -1 -14 -4 -57 -46 -34 -34 -45
-48 -45 -59 0 -2 -2 -7 -5 -11 -5 -7 -8 -10 -18 -13 -13 -5 -25 -15 -31 -28
-8 -15 -19 -18 -38 -12 -9 3 -15 7 -20 12 -10 10 -20 18 -23 18 -2 0 -3 1 -3
2 -2 5 -23 7 -43 4 -25 -3 -35 -3 -58 0 -15 2 -19 4 -25 8 -3 3 -5 6 -4 6 1 0
2 9 4 20 8 62 8 60 5 69 -4 13 -6 17 -20 30 -13 12 -13 13 -13 22 0 12 4 17
14 21 4 1 38 2 106 2 99 0 99 0 107 5 10 5 17 19 18 37 1 17 6 22 20 22 14 0
19 -5 20 -22 1 -18 8 -32 18 -38 l8 -4 166 0 166 1 12 5 c7 3 13 6 15 7 8 7
18 18 25 29 12 20 10 41 -5 55 -3 3 -6 6 -6 7 0 0 -6 1 -14 1 -17 0 -23 -5
-29 -21 -6 -17 -12 -22 -28 -23 -21 -1 -34 16 -29 38 3 9 11 19 17 19 2 0 7 3
11 7 8 7 8 8 8 22 0 8 -1 15 -1 15 -1 0 -7 4 -13 10 -6 5 -15 12 -20 16 -5 4
-12 9 -15 12 -3 3 -8 7 -11 9 -2 2 -5 5 -7 6 -4 5 -12 9 -18 10 -12 3 -34 3
-42 1 -4 -2 -10 -2 -12 -2 -6 0 -14 -4 -12 -6 2 -3 -8 -22 -14 -26 -6 -6 -17
-5 -23 1 -6 6 -5 17 1 22 5 5 20 13 21 12 1 -1 4 0 7 1 4 2 7 8 8 18 0 1 1 2
2 3 3 4 0 15 -10 38 -6 14 -11 26 -11 27 0 8 -21 49 -34 65 -12 15 -47 48 -58
54 -2 1 -3 2 -4 3 -6 8 -70 41 -85 44 -6 1 -19 2 -29 1 -13 0 -22 0 -27 2 -8
3 -27 4 -48 3 -13 0 -24 3 -26 9 -3 8 -3 29 0 41 3 15 1 24 -7 31 -7 5 -25 7
-33 4 -12 -5 -19 -4 -41 9 -16 10 -25 12 -70 13 -24 1 -43 2 -44 2 -1 0 -17 1
-37 2 -57 2 -86 3 -118 4 -30 1 -30 1 -41 -4z m159 -48 c3 -5 3 -5 0 -10 -2
-3 -5 -5 -7 -5 -2 0 -5 2 -7 5 -3 5 -3 5 0 10 2 3 5 5 7 5 2 0 5 -2 7 -5z m91
-13 c5 -6 5 -12 0 -18 -7 -8 -22 -2 -22 9 0 11 15 17 22 9z m90 -31 c8 -5 12
-14 13 -28 1 -12 1 -15 -4 -24 -3 -6 -6 -11 -7 -11 -3 0 -6 -12 -6 -21 0 -10
5 -18 16 -29 8 -8 15 -25 17 -45 1 -4 6 -21 12 -36 9 -24 17 -47 18 -54 0 -1
2 -8 4 -15 2 -7 5 -22 7 -33 6 -28 14 -42 33 -57 9 -7 28 -16 35 -16 6 -1 6
-1 1 -1 -3 -1 -7 -3 -9 -5 -3 -4 -7 -5 -25 -6 -25 -2 -37 -6 -46 -16 -3 -4
-10 -9 -14 -11 -7 -4 -7 -4 -14 0 -4 2 -11 8 -16 12 -8 8 -23 15 -34 15 -2 0
-6 3 -9 6 -5 5 -5 6 -4 19 1 8 2 26 3 40 0 14 2 31 2 36 1 6 1 24 2 42 1 18 2
37 2 43 0 6 1 29 2 51 1 22 2 42 2 45 3 13 3 39 0 45 -5 9 -11 31 -11 40 0 14
16 22 30 14z m-227 -9 c7 -6 6 -15 0 -28 -8 -16 -26 -23 -32 -13 -4 6 -3 18 2
30 5 14 21 19 30 11z m124 -45 c6 -6 7 -20 1 -31 -10 -19 -34 -28 -44 -17 -4
4 -4 6 -3 15 1 14 9 30 16 34 9 6 24 5 30 -1z m205 -37 c5 -5 5 -15 0 -20 -9
-9 -24 -2 -24 10 0 8 6 14 14 14 3 0 8 -2 10 -4z m-943 -52 c8 -8 8 -24 0 -32
-5 -5 -8 -6 -21 -7 -16 -1 -28 -6 -43 -17 -12 -10 -23 -11 -30 -4 -10 9 -4 30
8 30 15 0 36 12 48 28 l8 10 12 -1 c9 -1 13 -2 18 -7z m1081 -8 c7 -4 30 -29
33 -36 3 -7 3 -8 -2 -12 -5 -4 -6 -5 -34 -4 -32 0 -38 -1 -63 -11 -10 -5 -25
-5 -33 0 -15 7 -16 40 -1 48 3 2 14 4 23 4 15 1 41 7 46 11 5 4 24 4 31 0z
m-325 -55 c4 -4 5 -7 5 -15 0 -14 -6 -20 -20 -20 -14 0 -20 6 -20 20 0 14 6
20 20 20 8 0 11 -1 15 -5z m239 -66 c3 -4 6 -8 6 -9 0 -2 17 -20 30 -30 10 -9
11 -19 4 -27 -9 -10 -22 -6 -48 16 -6 5 -13 10 -16 12 -7 4 -12 17 -12 28 0
18 22 25 36 10z m-930 -2 c3 -4 2 -14 -4 -27 -6 -11 -6 -14 -5 -25 0 -6 2 -12
3 -14 1 -2 2 -3 1 -3 0 0 4 -5 9 -10 17 -17 15 -24 -17 -57 -8 -9 -15 -15 -15
-13 0 3 -12 13 -19 16 -3 1 -15 7 -27 12 -17 8 -23 10 -30 9 -10 0 -18 -5 -18
-10 0 -5 -10 -23 -14 -25 -6 -3 -20 -3 -26 0 -5 3 -7 7 -14 31 -14 44 -9 60
17 60 11 0 19 -5 22 -15 4 -12 7 -14 23 -13 9 1 14 1 15 -1 2 -3 7 1 7 5 0 2
1 5 3 8 4 6 3 27 -1 33 -2 2 -7 7 -12 11 -7 6 -8 8 -8 16 0 6 1 9 5 12 4 4 6
5 41 4 20 -1 37 -1 37 -2 1 0 5 1 11 2 9 3 12 2 16 -4z m661 -26 c12 -12 3
-31 -13 -31 -11 0 -18 7 -18 18 0 11 7 18 18 18 6 0 9 -1 13 -5z m-494 -44 c5
-8 1 -16 -8 -16 -9 0 -13 8 -8 16 2 3 5 5 8 5 3 0 6 -2 8 -5z m-438 -11 c5 -4
6 -7 8 -22 0 -5 1 -9 1 -9 1 -5 0 -15 -1 -15 -1 1 -4 0 -7 -2 -4 -2 -7 -2 -12
0 -4 1 -9 2 -12 2 -3 0 -9 1 -13 3 -9 4 -33 4 -42 1 -19 -7 -34 7 -24 24 4 6
6 7 29 9 13 1 37 8 41 11 4 4 26 2 32 -2z m1496 -19 c5 -8 1 -16 -8 -16 -9 0
-13 8 -8 16 2 3 5 5 8 5 3 0 6 -2 8 -5z m-1660 -66 c10 -10 4 -35 -10 -42 -12
-7 -16 -7 -22 -2 -4 3 -5 6 -5 15 -1 14 3 27 9 31 7 5 22 4 28 -2z m929 -7 c5
-6 5 -12 0 -18 -7 -8 -22 -2 -22 9 0 11 15 17 22 9z m584 -9 l-5 -5 -4 4 -5 5
4 4 5 5 4 -4 5 -5 -4 -4z m-1137 -21 c5 -5 6 -7 6 -16 0 -15 -8 -23 -23 -23
-9 0 -11 1 -16 7 -9 8 -9 23 -1 32 9 9 24 9 34 0z m210 -4 c11 -10 3 -28 -11
-28 -9 0 -16 6 -16 16 0 14 17 22 27 12z m208 2 c1 0 9 -5 19 -11 9 -6 19 -11
22 -12 4 -1 9 -4 12 -8 5 -5 5 -7 5 -18 -1 -20 -3 -51 -4 -60 0 -4 -1 -17 -2
-27 -3 -46 -16 -173 -21 -213 -1 -8 -2 -18 -3 -22 -1 -8 -12 -87 -14 -98 -4
-24 -15 -83 -21 -116 -2 -11 -4 -23 -5 -27 -3 -17 -8 -41 -13 -61 -3 -12 -8
-32 -11 -44 -3 -12 -9 -35 -13 -52 -5 -16 -9 -31 -9 -33 0 -2 -4 -14 -8 -27
-3 -13 -7 -29 -8 -35 -4 -28 -14 -39 -35 -36 -13 2 -18 7 -19 19 -2 17 0 22
14 32 23 17 26 32 13 59 -10 19 -22 33 -36 42 -6 4 -10 7 -10 8 0 1 -4 4 -8 6
-12 6 -35 8 -43 3 -4 -3 -11 -4 -24 -3 -2 0 -6 3 -9 6 -5 5 -6 7 -6 18 0 11 0
12 10 23 10 12 13 19 12 33 -1 7 -3 10 -13 18 -6 6 -13 12 -14 13 -2 0 -3 3
-3 6 0 4 3 6 17 13 9 4 18 10 21 13 5 6 16 28 16 32 0 4 11 13 18 14 4 0 11
-1 16 -3 15 -5 32 -3 40 5 10 10 10 12 10 149 0 105 0 129 -3 135 -3 7 -12 16
-15 14 -1 -1 -2 0 -2 1 0 1 -4 2 -8 3 -5 1 -10 3 -10 4 -2 1 -2 1 -2 0 0 -4
-17 -4 -24 0 -7 4 -9 9 -12 31 -1 11 -3 23 -5 28 -9 27 4 45 37 49 11 1 27 8
34 14 8 8 10 18 10 50 l-1 28 6 6 c6 5 7 6 17 5 16 -1 30 3 43 11 21 15 25 16
42 15z m203 -25 c11 -2 28 -10 30 -15 4 -7 4 -11 -3 -24 -7 -14 -13 -35 -13
-44 0 -14 -12 -21 -28 -18 -10 2 -13 8 -15 24 -1 8 -3 23 -4 32 -2 9 -3 21 -3
25 0 17 13 25 36 20z m-750 -23 c10 -5 14 -34 6 -41 -7 -6 -23 0 -28 10 -3 8
-3 27 2 30 4 3 15 4 20 1z m-37 -6 l11 0 0 -8 0 -8 -11 0 c-9 0 -11 -1 -12 -3
0 -2 -1 3 0 11 0 8 0 13 0 11 1 -4 2 -4 12 -3z m-203 -14 c5 -5 5 -15 0 -20
-9 -9 -24 -2 -24 10 0 8 6 14 14 14 3 0 8 -2 10 -4z m176 -74 c0 -7 1 -20 3
-28 4 -16 3 -27 -3 -34 l-3 -5 -8 13 c-10 16 -14 22 -25 36 -8 10 -10 14 -10
20 0 10 3 14 20 22 8 4 14 8 14 10 0 2 3 -3 6 -9 5 -10 6 -16 6 -25z m102 6
c5 -6 5 -12 0 -18 -7 -8 -22 -2 -22 9 0 11 15 17 22 9z m637 -23 c3 -3 3 -3 0
-6 -3 -3 -3 -3 -6 0 -3 2 -3 3 -1 6 4 4 4 4 7 0z m-496 -41 c8 2 8 1 19 -9 5
-6 10 -13 10 -16 1 -19 -2 -28 -13 -34 -3 -2 -7 -5 -7 -6 -1 -1 -7 2 -15 6 -8
4 -14 8 -15 8 -1 0 -6 2 -13 4 -6 2 -13 3 -16 3 -18 -2 -25 4 -25 21 0 17 10
25 27 21 7 -2 25 1 28 4 1 1 4 1 7 -1 3 -1 8 -2 13 -1z m1050 -26 c15 -5 29
-14 49 -32 6 -5 16 -13 23 -17 15 -10 17 -14 16 -31 0 -17 -6 -22 -24 -22 -13
0 -16 1 -31 15 -16 14 -29 20 -42 18 -6 -1 -13 -1 -15 -2 -3 0 -5 -1 -5 -2 0
-1 -1 -1 -3 0 -2 0 -3 0 -2 -1 3 -5 -8 -1 -17 5 -14 11 -13 10 -13 26 l0 15 8
8 c14 12 20 16 30 20 13 5 13 5 26 0z m-1405 -17 c21 -9 20 -45 -2 -54 -10 -5
-28 -1 -34 6 -9 10 -9 32 0 42 7 8 24 11 36 6z m426 -37 c5 -5 5 -11 0 -16 -7
-7 -19 -2 -20 8 -1 11 12 16 20 8z m671 -1 c2 -1 6 -7 9 -13 4 -6 9 -13 12
-17 7 -6 26 -13 38 -13 5 0 33 -1 63 -1 54 -1 54 -1 65 -7 7 -3 12 -7 13 -8 1
-2 5 -7 11 -11 8 -6 10 -6 21 -6 10 1 12 1 23 10 12 11 16 15 15 17 -1 2 7 2
10 0 1 -1 4 -4 6 -6 4 -3 11 -15 12 -22 1 -5 14 -20 17 -20 2 0 4 -1 5 -2 0
-1 3 -2 6 -3 3 -1 7 -3 9 -5 9 -9 19 -49 15 -59 -4 -11 -24 -16 -51 -12 -13 2
-19 7 -32 27 -13 20 -21 24 -44 26 -29 1 -52 -7 -61 -23 -2 -4 -10 -25 -17
-46 -13 -40 -14 -46 -6 -59 5 -8 20 -19 37 -25 25 -10 39 -17 41 -21 1 -2 2
-8 2 -14 0 -11 -6 -20 -14 -20 -20 -1 -26 1 -43 19 -18 18 -21 20 -34 18 -17
-2 -23 -7 -32 -28 -14 -32 -20 -34 -34 -13 l-5 8 -15 0 -15 -1 -6 -9 c-11 -17
-20 -18 -26 0 -4 8 -14 18 -17 15 -1 -1 -2 44 -2 64 1 7 3 18 7 29 6 18 8 34
4 42 -1 3 -5 13 -8 22 -8 22 -13 29 -23 35 -9 6 -26 13 -31 13 -5 0 -14 10
-23 25 -8 14 -13 17 -28 17 -5 0 -20 -7 -27 -13 -6 -5 -21 -4 -27 1 -4 4 -5 7
-5 15 0 15 2 19 10 25 6 4 8 4 18 3 6 -1 14 -2 18 -2 7 0 30 4 33 7 4 3 21 3
24 0 2 -3 23 -3 30 0 8 3 13 10 17 21 3 13 10 22 17 23 7 1 15 0 18 -3z m-961
-12 c21 -10 47 -14 64 -10 14 4 16 4 19 -2 5 -8 1 -16 -9 -16 -4 -1 -11 -2
-15 -4 -5 -1 -9 -2 -9 -2 0 2 -10 -4 -21 -11 -5 -3 -10 -6 -11 -6 -5 0 -26
-11 -27 -14 0 -2 -1 -2 -1 2 0 2 -1 4 -2 4 -3 0 -8 19 -8 30 0 11 5 30 8 30 1
0 2 2 2 5 0 2 1 3 1 1 1 -2 5 -5 9 -7z m1419 -32 c3 -5 3 -5 0 -10 -2 -3 -5
-5 -7 -5 -2 0 -5 2 -7 5 -3 5 -3 5 0 10 2 3 5 5 7 5 2 0 5 -2 7 -5z m-1213
-21 c4 -10 4 -10 0 -19 -2 -6 -4 -11 -5 -13 -1 -3 -1 -3 -1 0 0 3 -17 10 -26
11 -15 0 -15 22 0 22 9 1 26 8 26 11 0 3 0 3 1 0 1 -2 3 -7 5 -12z m513 -36
c3 -3 5 -7 5 -10 0 -5 -7 -33 -10 -41 -2 -4 -4 -10 -6 -15 -5 -14 -12 -17 -33
-16 -2 0 -6 3 -9 6 -5 5 -6 7 -6 17 0 8 1 14 4 18 3 6 6 9 15 20 2 2 5 6 6 9
8 15 25 21 34 12z m-810 -18 c7 -6 7 -19 1 -25 -6 -7 -19 -7 -25 -1 -7 6 -7
19 -1 25 6 7 19 7 25 1z m91 -16 c4 -2 14 -5 22 -7 23 -5 29 -9 29 -25 0 -15
-8 -23 -22 -23 -15 0 -35 15 -44 32 l-5 9 6 11 c3 6 5 10 6 9 0 -2 3 -5 8 -6z
m309 -3 c6 -4 6 -6 6 -20 0 -14 0 -16 -6 -20 -4 -4 -8 -5 -16 -5 -21 0 -35 -8
-39 -23 -5 -17 4 -32 26 -44 20 -10 22 -11 22 -17 0 -7 -5 -13 -19 -21 -7 -4
-14 -8 -16 -11 -4 -4 -12 -26 -14 -37 -2 -16 -9 -31 -16 -35 -8 -5 -21 -6 -34
-3 -9 2 -21 0 -23 -5 -1 -4 -8 -10 -11 -10 -2 0 -3 -1 -3 -2 0 -1 -4 -3 -8 -4
-6 -2 -9 -2 -17 0 -13 4 -17 9 -17 21 0 12 6 19 17 19 9 0 24 4 32 9 9 4 14
11 20 24 3 6 6 12 7 14 14 16 18 22 19 33 2 8 0 13 -19 73 -9 28 -7 47 7 57 6
4 18 4 21 1 0 -2 2 -3 3 -3 0 0 2 0 3 0 11 -1 22 1 33 7 16 9 34 10 42 2z
m-394 -63 c11 -10 3 -28 -11 -28 -11 0 -17 6 -16 15 1 16 17 23 27 13z m-81
-21 c3 -2 6 -5 7 -7 1 -1 3 -4 5 -6 7 -7 11 -14 10 -24 0 -21 -9 -31 -26 -31
-20 0 -24 7 -25 41 0 28 0 30 6 34 4 3 5 3 11 1 4 -2 9 -5 12 -8z m1377 -10
c3 -3 3 -3 0 -6 -3 -3 -3 -3 -6 0 -3 2 -3 3 -1 6 4 4 4 4 7 0z m95 -14 l-5 -5
-4 4 -5 5 4 4 5 5 4 -4 5 -5 -4 -4z m-519 -22 c4 -4 5 -7 5 -15 0 -14 -6 -20
-20 -20 -14 0 -20 6 -20 20 0 14 6 20 20 20 8 0 11 -1 15 -5z m-90 -5 c7 -6 7
-19 1 -25 -6 -7 -19 -7 -25 -1 -7 6 -7 19 -1 25 6 7 19 7 25 1z m213 -51 c0 2
4 -3 4 -5 0 -1 -1 -2 -3 -2 -1 0 -3 -1 -3 -2 -1 -2 -2 -2 -5 1 -3 3 -3 3 0 7
3 3 4 3 5 2 1 -2 2 -2 2 -1z m395 -40 c14 -9 14 -39 0 -46 -13 -6 -30 -5 -37
3 -9 8 -9 32 0 41 7 7 27 8 37 2z m-1115 -52 c5 -2 9 -5 10 -7 1 -1 2 -2 2 -1
0 4 8 1 9 -4 3 -11 -2 -18 -8 -13 -1 1 -3 1 -5 -2 -5 -9 -24 -2 -24 9 0 2 -1
5 -2 7 -1 2 -1 4 1 5 1 1 3 4 5 7 1 2 3 4 4 3 0 0 4 -2 8 -4z m814 -11 c6 -6
5 -13 -2 -17 -3 -2 -7 -3 -8 -3 -5 1 -10 8 -10 12 0 10 13 15 20 8z m-274 -17
c3 -3 4 -7 4 -14 0 -13 -6 -19 -19 -19 -13 0 -19 6 -19 19 0 7 1 11 4 14 7 8
23 8 30 0z m447 -18 c7 -4 10 -11 10 -23 0 -19 -8 -26 -26 -27 -11 0 -28 7
-37 15 -5 5 -7 16 -2 24 7 13 42 20 55 11z m-125 -25 c4 -2 12 -8 18 -14 6 -5
11 -10 12 -10 4 0 10 -14 10 -22 0 -11 -7 -18 -17 -18 -10 0 -18 5 -30 16 -5
4 -10 8 -12 8 -6 0 -19 7 -19 9 0 1 -1 3 -3 4 -2 1 -2 2 2 10 3 6 7 12 9 14 2
2 4 4 4 5 0 4 18 2 26 -2z m-688 -14 c1 0 5 -3 8 -6 5 -5 6 -7 6 -18 0 -11 -1
-13 -6 -18 -6 -6 -7 -6 -18 -6 -11 0 -12 0 -18 6 -5 5 -6 7 -6 17 0 14 3 20
12 24 5 2 8 2 22 1z m-203 -42 c10 -9 3 -26 -10 -26 -8 0 -15 7 -15 15 0 13
16 20 25 11z m106 -87 c3 -3 3 -3 0 -6 -3 -3 -3 -3 -6 0 -3 2 -3 3 -1 6 4 4 4
4 7 0z m732 -45 c10 -9 3 -26 -10 -26 -8 0 -15 7 -15 15 0 13 16 20 25 11z
m-1186 -11 c1 1 2 0 3 -1 0 -2 0 -6 1 -10 0 -5 -1 -8 -5 -11 l-5 -5 -4 4 c-5
4 -5 5 -2 10 2 3 3 7 3 8 0 3 5 8 6 6 0 -1 1 -1 3 -1z m160 -9 c10 -9 3 -26
-10 -26 -8 0 -15 7 -15 15 0 13 16 20 25 11z m1580 -124 c3 -6 3 -6 0 -9 -3
-3 -3 -3 -6 0 -3 5 -4 9 -1 9 1 0 2 1 2 3 0 5 2 4 5 -3z m-1697 -37 c9 -8 2
-25 -11 -25 -13 0 -20 16 -11 25 5 6 16 6 22 0z"/>
<path d="M91 3526 c-11 -4 -17 -12 -20 -27 -1 -5 -1 -7 1 -7 1 0 2 -1 2 -3 0
-6 8 -10 22 -11 14 -1 14 -1 19 5 4 5 5 7 5 22 0 15 0 17 -5 20 -5 3 -15 4
-24 1z"/>
<path d="M519 2257 c0 -7 -1 -11 -3 -10 -1 0 -1 -4 -1 -10 1 -15 5 -19 19 -21
20 -1 23 2 22 23 0 17 -3 19 -22 20 -10 0 -15 0 -15 -2z"/>
<path d="M869 2096 c-11 -10 -12 -32 -2 -40 2 -2 8 -2 17 -2 16 0 23 6 26 20
3 14 -1 25 -9 28 -13 4 -25 2 -32 -6z"/>
<path d="M995 2091 c-6 -3 -39 -26 -53 -38 -3 -2 -26 -17 -67 -44 -28 -18 -39
-19 -46 -5 -2 4 -6 10 -8 12 -13 12 -31 23 -45 28 l-16 6 -12 -3 c-22 -5 -26
-9 -45 -45 -2 -4 -9 -14 -14 -24 -6 -9 -11 -18 -13 -21 -2 -4 -1 -21 2 -28 4
-7 14 -15 26 -20 12 -6 23 -7 47 -4 13 2 15 1 30 -18 13 -17 30 -20 58 -11 63
20 129 44 161 58 4 3 15 7 24 10 25 10 45 21 51 28 12 14 12 33 -1 55 -5 7
-10 17 -12 20 -1 3 -4 9 -7 12 -2 3 -5 9 -7 12 -12 23 -31 30 -53 20z"/>
</g>
</svg>
