<?xml version="1.0" standalone="no"?>
<!DOCTYPE svg PUBLIC "-//W3C//DTD SVG 20010904//EN"
 "http://www.w3.org/TR/2001/REC-SVG-20010904/DTD/svg10.dtd">
<svg version="1.0" xmlns="http://www.w3.org/2000/svg"
 width="1100.000000pt" height="2850.000000pt" viewBox="0 0 1100.000000 2850.000000"
 preserveAspectRatio="xMidYMid meet">
<metadata>
Created by potrace 1.15, written by Peter Selinger 2001-2017
</metadata>
<g transform="translate(0.000000,2850.000000) scale(0.500000,-0.500000)"
fill="#000000" stroke="none">
<path d="M1137 3836 c-4 -2 -7 -5 -7 -6 0 -1 -1 -2 -2 -1 0 0 -1 -5 0 -12 1
-7 0 -14 -1 -15 -1 -1 2 -2 6 -3 5 -1 9 -2 11 -2 2 -1 8 -1 13 -2 14 -1 25 -4
31 -10 3 -3 5 -5 6 -5 1 0 6 -8 7 -12 0 -1 1 -4 3 -7 3 -8 3 -11 -3 -16 -5 -4
-6 -4 -14 -3 -14 4 -20 8 -29 20 -9 14 -19 18 -35 18 -13 0 -16 -3 -15 -20 0
-12 1 -16 6 -25 6 -11 6 -11 4 -30 -2 -20 -1 -25 3 -39 8 -26 14 -63 14 -90 0
-19 0 -20 -5 -25 -6 -6 -7 -6 -28 -6 -23 -1 -32 -3 -40 -12 -16 -15 -32 -15
-50 2 -15 15 -19 16 -62 17 -25 0 -41 0 -46 -2 -15 -4 -23 -20 -22 -45 0 -15
-2 -19 -14 -31 l-7 -7 1 -15 c1 -12 2 -15 5 -17 2 -1 5 -3 5 -4 1 -1 2 -1 2
-1 0 1 4 0 10 -1 10 -3 11 -2 42 4 14 2 15 2 19 -2 5 -3 5 -4 1 -9 -1 -4 -5
-7 -7 -9 -9 -4 -17 -14 -19 -23 -3 -10 -3 -12 3 -35 3 -15 9 -44 10 -53 1 -6
2 -18 3 -26 1 -8 2 -36 2 -61 0 -31 0 -46 2 -47 1 -1 -1 -3 -6 -6 l-9 -5 -5 7
c-3 3 -7 10 -8 14 -1 4 -5 11 -7 16 -3 5 -9 19 -15 30 -14 29 -19 36 -33 43
-9 4 -15 6 -27 6 -23 1 -31 5 -48 22 -8 7 -30 28 -48 45 -18 17 -38 36 -44 42
-79 76 -83 80 -93 80 -17 0 -24 -9 -22 -31 1 -15 -1 -18 -22 -28 -10 -5 -16
-9 -19 -14 -4 -6 -12 -32 -12 -38 0 -6 -8 -12 -16 -11 -14 0 -17 9 -11 29 8
28 2 41 -18 41 -12 0 -16 -2 -33 -20 -7 -7 -18 -16 -25 -19 -6 -3 -15 -9 -20
-13 -8 -7 -8 -7 -8 -20 0 -6 1 -12 2 -12 3 0 25 -24 25 -28 0 -2 -2 -6 -4 -8
l-3 -4 -16 3 c-12 3 -22 4 -41 3 -23 0 -25 0 -29 4 -5 5 -7 18 -3 27 2 5 -1
23 -6 29 -5 7 -17 14 -23 13 -12 -1 -24 -12 -28 -27 -5 -16 -4 -54 2 -66 5
-12 13 -22 16 -22 2 0 3 -1 3 -2 0 -4 18 -6 58 -6 l43 0 5 -5 c4 -5 5 -7 3
-11 -21 -66 -29 -92 -31 -95 -1 -2 -6 -15 -11 -28 -8 -22 -23 -58 -40 -98 -27
-61 -92 -182 -116 -218 -4 -6 -5 -9 -4 -17 1 -15 5 -26 9 -26 1 0 6 -3 9 -6 4
-3 8 -6 10 -6 2 0 6 -2 9 -4 3 -2 7 -4 9 -5 10 -2 25 -9 29 -12 2 -2 4 -7 5
-12 2 -12 -4 -17 -17 -17 -9 0 -11 1 -21 11 -7 5 -13 11 -14 13 0 1 -5 4 -9 6
-4 2 -9 5 -11 8 -4 4 -11 6 -25 7 -15 1 -19 -2 -28 -17 -5 -7 -10 -14 -11 -16
-2 -2 -11 -14 -21 -29 -10 -14 -22 -30 -26 -36 -5 -5 -11 -13 -14 -17 -3 -4
-8 -10 -12 -14 -6 -7 -6 -8 -6 -20 1 -13 1 -14 8 -21 4 -4 8 -7 9 -7 2 0 9 -6
17 -14 l14 -13 13 -1 13 0 26 17 c15 10 27 18 28 19 1 1 9 7 20 14 10 7 20 15
23 17 l4 4 4 -4 c6 -7 7 -10 7 -21 0 -12 4 -26 14 -45 8 -17 8 -29 0 -46 -11
-21 -14 -32 -14 -52 0 -22 3 -32 11 -39 4 -3 8 -5 8 -5 1 0 3 -1 4 -1 3 -2 13
-4 20 -5 12 -2 15 -3 24 -16 12 -16 23 -22 47 -26 19 -3 25 -11 25 -29 -1 -12
-5 -19 -23 -39 -15 -16 -22 -20 -34 -20 -14 0 -19 5 -28 23 -4 8 -9 16 -11 18
-2 1 -3 4 -3 5 0 4 -24 1 -29 -3 -11 -10 -11 -13 -10 -121 0 -55 1 -105 1
-111 1 -12 10 -32 18 -39 3 -3 9 -8 14 -13 9 -7 9 -8 9 -21 0 -10 -1 -16 -3
-18 -3 -4 -2 -28 3 -37 1 -3 7 -14 13 -25 13 -26 18 -30 36 -30 15 0 34 8 59
23 16 9 20 10 42 4 25 -6 35 -5 46 5 5 5 15 24 15 30 0 6 9 10 24 12 9 0 17 2
20 3 3 1 6 1 7 1 2 0 9 12 12 24 3 10 3 19 3 50 -1 37 -1 38 -7 48 -3 5 -8 11
-11 12 -3 2 -7 6 -9 8 -2 2 -6 5 -9 7 -3 2 -7 5 -9 8 -6 7 -25 21 -37 25 -20
9 -32 6 -46 -10 -4 -6 -8 -11 -8 -11 0 -3 -17 -10 -26 -10 -15 -1 -18 0 -23 5
-10 9 -5 26 9 31 23 8 38 19 50 37 10 14 29 25 58 33 9 3 11 3 17 1 5 -1 11
11 17 33 4 13 6 18 14 27 18 18 21 34 10 44 -9 7 -27 11 -39 9 -14 -3 -23 5
-23 20 0 13 2 17 14 24 11 7 24 19 24 23 0 1 3 6 7 11 4 5 7 9 7 11 0 1 3 5 6
9 4 4 8 10 9 14 3 7 17 24 17 20 0 -4 30 -19 51 -26 21 -7 60 -7 80 0 17 7 42
20 49 28 l5 5 5 -7 c5 -7 5 -8 6 -60 1 -44 2 -55 5 -68 5 -17 5 -26 -1 -48 -4
-13 -4 -18 -2 -25 1 -4 1 -18 1 -31 -1 -13 -2 -49 -2 -80 -1 -49 -1 -58 2 -65
4 -9 14 -21 18 -21 2 0 3 -1 3 -2 0 -2 0 -2 21 -3 15 -1 18 -1 27 3 13 6 17
12 26 31 7 15 9 16 28 18 18 1 35 5 42 8 3 2 13 4 22 6 10 1 21 4 25 6 7 3 21
15 30 28 8 11 23 17 34 13 5 -2 29 5 34 10 7 8 9 17 9 42 0 39 -4 48 -26 49
-7 1 -12 3 -12 4 0 1 -1 0 -3 -2 -4 -8 -19 -3 -19 7 0 10 15 15 19 7 2 -2 3
-3 3 -2 0 1 5 3 12 4 15 1 20 5 24 18 2 6 2 62 2 206 l-1 198 6 6 c4 3 8 6 10
6 2 0 6 -3 10 -6 l6 -6 -1 -117 0 -116 5 -11 c5 -10 6 -11 20 -18 8 -4 16 -7
19 -7 2 0 7 -3 10 -6 7 -7 8 -16 2 -43 -2 -10 -5 -19 -5 -21 -4 -18 -8 -26
-20 -31 -12 -7 -21 -15 -26 -26 l-5 -11 0 -58 c0 -75 1 -77 33 -93 18 -9 21
-13 21 -27 0 -14 -3 -18 -21 -27 -18 -9 -24 -14 -29 -25 -4 -8 -4 -14 -4 -92
0 -72 0 -85 3 -91 4 -9 14 -21 18 -21 2 0 3 -1 3 -2 0 -2 10 -3 55 -3 38 1 47
1 69 6 53 10 66 15 72 28 5 9 5 24 2 36 -3 10 0 24 6 29 9 10 33 9 42 -2 15
-19 17 -20 33 -20 l14 1 7 14 7 14 0 56 c1 45 0 57 -2 63 l-3 6 -16 0 c-16 -1
-16 -1 -16 4 0 5 0 5 16 4 l16 0 3 6 c2 5 3 16 2 44 0 47 0 47 -30 72 -12 12
-14 35 -2 45 7 7 9 12 9 25 0 13 -4 23 -10 25 -9 3 -14 25 -8 39 1 3 5 8 9 9
12 7 36 3 40 -6 4 -11 5 -19 2 -31 -3 -13 -2 -29 1 -27 1 1 2 0 2 -2 0 -4 7
-10 15 -13 12 -4 17 -9 17 -18 0 -7 -6 -19 -11 -21 -4 -1 -14 -17 -17 -26 -2
-7 -3 -27 -1 -31 1 -1 2 -28 4 -65 1 -19 2 -24 7 -33 5 -11 15 -19 29 -21 5
-1 28 1 45 4 3 0 10 1 15 2 49 6 105 26 143 50 42 27 77 78 89 128 10 42 10
43 11 247 l1 193 5 8 c3 5 6 9 7 9 4 0 18 12 21 19 1 3 3 10 3 15 1 13 -5 17
-26 19 -19 2 -22 5 -24 25 0 5 -2 13 -4 19 -1 5 -2 9 -1 9 0 0 0 1 -1 2 -1 0
-3 3 -5 6 -2 3 -11 11 -20 18 -15 11 -17 14 -18 20 0 5 1 7 5 11 7 7 44 31 47
31 1 0 2 1 2 2 0 0 8 6 17 12 19 12 20 15 18 35 0 9 -2 11 -8 17 -16 14 -18
29 -6 51 4 8 7 16 8 19 0 2 1 5 2 6 0 1 1 7 2 14 2 28 6 32 26 32 13 0 16 -1
30 -15 4 -4 13 -10 19 -14 12 -9 15 -13 17 -25 4 -27 24 -35 55 -21 9 5 15 9
15 11 1 2 2 4 3 3 1 0 2 5 2 13 l0 13 -29 28 c-16 15 -33 31 -37 35 -4 4 -17
16 -28 27 -43 41 -43 40 -54 42 -6 1 -13 2 -14 3 -3 2 -4 1 -4 0 0 -1 -1 -2
-2 -1 -2 1 -2 1 -2 0 1 -1 -1 -7 -3 -15 -3 -7 -5 -15 -5 -17 0 -6 -8 -17 -14
-20 -8 -4 -21 -4 -28 0 -8 5 -13 16 -13 30 0 17 5 23 23 28 3 1 10 4 15 6 l10
5 -3 15 c-2 13 -3 16 -9 22 -4 3 -13 11 -19 17 -19 19 -34 24 -50 17 -7 -3
-63 -58 -73 -72 -18 -25 -55 -51 -73 -51 -18 0 -32 -17 -33 -42 -2 -18 -6 -23
-23 -23 -11 0 -13 1 -17 6 -5 5 -6 12 -3 17 1 2 0 9 -3 24 -3 10 -2 28 1 30 2
2 13 11 24 20 12 10 23 19 24 21 2 1 9 7 17 14 12 10 40 34 46 40 1 1 5 6 8
12 3 5 8 12 10 14 4 4 21 13 24 13 2 0 4 2 5 4 3 3 19 14 21 14 3 0 26 17 29
22 3 4 9 9 14 11 14 9 16 13 16 31 0 9 -1 16 -2 16 -1 0 -5 4 -10 10 -6 8 -7
11 -7 16 1 8 6 15 11 18 7 3 18 14 17 16 -1 1 0 2 2 3 2 0 3 2 2 3 -1 1 0 2 1
2 1 0 2 1 1 2 -1 1 0 2 1 2 1 0 2 1 1 2 -1 1 0 2 1 2 1 0 2 1 1 2 0 0 3 4 7 7
4 3 8 7 7 8 0 2 4 7 6 7 1 0 6 2 10 4 6 4 11 5 21 4 7 0 22 1 32 2 17 2 21 2
27 -1 7 -3 7 -4 4 -18 -1 -6 -13 -13 -17 -11 -3 2 -4 1 -4 -2 0 -3 0 -6 0 -6
0 -1 -1 -2 -2 -2 -2 0 -1 -13 1 -18 1 -2 3 -4 5 -6 3 -1 4 -2 3 -1 0 1 5 2 13
1 13 0 14 0 16 5 3 7 3 17 0 27 -2 5 -1 7 4 12 3 3 9 7 12 9 9 4 8 4 9 12 2
11 -2 21 -10 26 -4 2 -12 9 -19 16 -30 28 -39 31 -66 23 -17 -5 -21 -5 -26 0
-4 4 -4 6 -3 18 1 12 1 15 -3 23 -5 10 -5 11 -16 12 -6 1 -15 0 -22 -1 -10 -3
-11 -3 -14 2 -3 3 -4 7 -4 12 1 9 -4 32 -6 32 -1 0 -2 2 -3 4 -1 5 -28 25 -36
27 -3 1 -8 1 -11 2 -9 2 -23 -4 -36 -15 -13 -11 -22 -19 -22 -22 -1 -5 -3 -12
-8 -27 -4 -10 -6 -12 -15 -17 -10 -5 -11 -5 -16 -6 -1 0 -5 -4 -9 -9 -7 -10
-9 -13 -17 -22 -2 -2 -7 -8 -12 -14 -9 -11 -10 -12 -19 -18 -7 -4 -7 -5 -8
-16 0 -15 1 -21 7 -23 3 -2 4 -3 4 -4 -1 -1 0 -2 3 -2 7 0 11 -7 11 -23 0 -14
0 -16 -6 -20 -4 -4 -7 -5 -18 -5 -11 0 -14 1 -18 5 -6 4 -6 6 -6 20 0 17 3 23
15 23 4 0 5 1 3 1 -5 1 -5 2 -5 14 0 7 0 13 1 14 0 2 -8 6 -15 9 -4 1 -13 2
-20 2 -11 1 -14 2 -21 6 -5 4 -6 6 -4 7 3 1 12 18 16 33 4 14 4 26 1 32 -1 2
-2 4 -1 4 1 0 0 1 -2 3 -5 5 -31 5 -35 0 -4 -5 -18 -7 -28 -5 -23 5 -26 32 -7
53 9 10 20 33 18 41 -4 25 -10 34 -30 44 -3 2 -6 3 -7 4 -1 1 -5 4 -10 7 -8 5
-10 6 -21 5 -7 -1 -12 -2 -11 -2 0 -1 0 -8 0 -15 0 -12 0 -13 10 -23 11 -12
13 -18 6 -26 -2 -2 -6 -4 -9 -4 -5 0 -17 7 -19 10 -1 4 -12 8 -23 8 -11 1 -12
1 -16 -6 -4 -6 -9 -21 -12 -34 -4 -18 -36 -23 -50 -9 -3 4 -9 27 -9 36 0 6 10
15 16 14 14 -1 32 13 42 32 9 19 7 37 -5 48 -7 7 -19 11 -53 16 -12 2 -27 4
-33 5 -29 5 -42 5 -48 0z m516 -205 c19 -1 25 -8 25 -26 0 -10 -1 -12 -6 -17
-3 -3 -7 -6 -9 -6 -22 -1 -28 2 -34 18 -2 6 -3 12 -4 14 0 2 -1 4 -2 5 0 2 2
4 5 7 4 3 7 5 8 6 0 1 2 1 4 1 1 0 8 -1 13 -2z m-408 -72 c3 -5 3 -5 0 -10 -2
-3 -5 -5 -7 -5 -2 0 -5 2 -7 5 -3 5 -3 5 0 10 2 3 5 5 7 5 2 0 5 -2 7 -5z
m509 -30 c4 -4 12 -18 13 -23 1 -4 -3 -9 -8 -10 -2 0 -6 -2 -9 -4 -8 -6 -29
-4 -35 3 -8 9 -4 28 8 36 9 6 23 5 31 -2z m-334 1 c3 -3 4 -5 3 -8 0 -3 -2
-12 -4 -21 -4 -23 -13 -41 -20 -41 -2 0 -3 -1 -3 -2 -2 -3 -21 -12 -22 -10 -1
2 -2 1 -3 0 -1 -4 -4 5 -5 13 -1 3 -2 7 -3 7 -3 2 -5 17 -4 24 3 13 18 31 32
39 8 4 23 4 29 -1z m-270 -46 c3 -3 4 -6 4 -13 -1 -32 15 -45 45 -38 19 4 33
4 53 -1 24 -6 87 -6 98 0 9 4 14 2 29 -14 6 -5 12 -10 13 -10 3 0 16 -14 16
-17 0 -5 -5 -9 -21 -17 -17 -8 -21 -12 -26 -22 -3 -8 -7 -36 -7 -49 0 -11 9
-29 20 -37 13 -9 16 -15 16 -27 0 -10 -3 -16 -10 -24 -3 -3 -4 -7 -4 -19 0
-14 0 -16 6 -21 10 -11 12 -16 12 -27 0 -10 -5 -22 -8 -22 -3 0 -20 -18 -23
-24 -4 -7 -7 -22 -5 -23 1 -1 2 -3 3 -6 1 -4 3 -9 4 -12 3 -6 4 -6 11 -5 4 1
10 2 13 2 3 0 9 2 14 4 22 10 28 11 55 5 14 -3 28 -6 31 -6 3 -1 12 -5 19 -11
24 -16 26 -17 59 -18 28 -1 62 -7 74 -12 9 -4 39 -8 56 -8 27 1 33 -4 33 -25
0 -10 -1 -12 -6 -17 -3 -3 -7 -6 -9 -6 -38 0 -90 -3 -98 -6 -3 -1 -6 -2 -6 -2
0 2 -14 -9 -18 -13 -4 -4 -4 -6 -4 -16 1 -14 5 -21 15 -32 7 -6 8 -9 8 -16 0
-17 -13 -21 -36 -12 -12 5 -36 5 -41 1 -14 -12 -20 -20 -27 -35 -4 -9 -9 -18
-12 -19 -8 -5 -26 0 -31 8 -7 11 -8 18 -8 64 l-1 48 5 10 c3 5 7 10 8 10 1 0
5 3 10 7 l9 6 0 13 c0 20 -7 28 -28 32 -11 2 -28 0 -33 -4 -1 -1 -8 -4 -16 -6
-23 -7 -37 -2 -41 14 -3 10 -9 22 -15 26 -3 3 -6 4 -23 3 -23 -1 -26 0 -32 20
-6 20 -9 23 -20 33 -15 13 -19 17 -26 30 -12 19 -14 23 -14 29 0 4 -1 7 -2 8
-1 1 0 3 2 7 2 3 7 13 10 23 15 42 8 92 -18 134 -11 19 -24 35 -29 37 -8 3
-30 2 -38 -1 -10 -4 -16 -4 -21 1 -4 4 -4 6 -3 16 2 13 1 27 -1 32 -1 3 -1 4
0 4 3 0 2 9 -1 11 -3 1 -13 16 -13 20 0 25 0 31 4 35 5 5 15 5 20 0z m368
-145 l-5 -5 -4 4 -5 5 4 4 5 5 4 -4 5 -5 -4 -4z m-898 6 c12 -5 18 -21 14 -36
-4 -15 -14 -21 -34 -20 -16 1 -23 5 -24 17 -1 12 3 29 8 33 9 8 24 10 36 6z
m1006 -4 c5 -5 6 -23 0 -30 -5 -6 -23 -5 -30 2 -6 6 -6 21 0 28 7 8 21 8 30 0z
m-1070 -64 c7 -6 4 -31 -5 -38 -8 -8 -25 -7 -33 1 -8 8 -9 25 -1 33 7 9 31 11
39 4z m618 -8 l-5 -5 -4 4 -5 5 4 4 5 5 4 -4 5 -5 -4 -4z m-148 -29 c8 -8 8
-21 1 -36 -3 -5 -5 -11 -4 -12 1 -1 0 -2 -1 -2 -1 0 -2 -2 -1 -4 2 -8 -6 -4
-20 11 l-15 15 0 11 c0 10 1 12 6 17 5 5 7 6 17 6 10 0 12 -1 17 -6z m-241
-37 c7 -10 2 -34 -11 -57 -9 -15 -14 -19 -47 -39 -18 -11 -27 -20 -37 -39 -5
-8 -10 -17 -13 -19 -7 -5 -25 -5 -29 0 -2 1 -5 3 -7 5 -10 5 -1 30 14 41 11 7
24 20 29 30 3 4 10 18 16 31 13 25 21 33 33 36 17 5 41 13 42 14 2 3 6 2 10
-3z m241 -34 c0 -4 1 -9 2 -11 1 -2 1 -4 -1 -5 -4 -5 -9 0 -7 7 2 7 2 7 2 12
0 7 3 4 4 -3z m-121 -49 c7 -14 1 -28 -13 -28 -19 0 -22 26 -4 33 8 3 14 1 17
-5z m-373 -10 c2 -1 7 -7 11 -13 12 -18 22 -26 43 -33 9 -3 20 -13 20 -18 0
-2 -1 -8 -3 -12 -4 -8 -3 -17 2 -33 3 -12 24 -32 38 -36 14 -5 29 -9 29 -8 0
1 2 -1 4 -3 9 -9 2 -20 -12 -18 -18 2 -39 1 -48 -3 -5 -2 -12 -4 -16 -4 -4 -1
-10 -2 -14 -4 -4 -1 -8 -2 -8 -1 -1 0 -2 -1 -2 -2 0 -2 -2 1 -5 6 -6 12 -6 18
-1 39 5 22 4 32 -8 50 -5 8 -13 18 -18 23 -8 8 -31 20 -38 20 -16 0 -23 34
-10 47 6 6 26 8 36 3z m588 -21 c10 -5 12 -17 9 -41 -2 -22 2 -35 14 -37 8 -2
19 -6 19 -7 0 -1 -11 -5 -19 -7 -14 -2 -19 -13 -19 -42 0 -12 1 -23 2 -24 2
-2 2 -3 0 -3 -1 0 -2 -1 0 -4 3 -5 3 -19 0 -24 -2 -3 -1 -4 0 -4 2 0 2 -1 0
-2 -1 -2 -2 -12 -2 -24 0 -27 -6 -42 -19 -47 -13 -6 -17 -6 -32 -3 -16 5 -26
11 -41 25 -20 19 -21 19 -86 17 -19 0 -29 0 -32 2 -8 4 -27 2 -42 -5 -16 -9
-28 -9 -35 -2 -5 5 -5 6 -4 21 0 8 1 17 2 19 1 6 -6 17 -12 18 -7 2 -21 -2
-41 -10 -21 -8 -39 -9 -47 -2 -6 4 -6 6 -6 20 0 15 0 16 7 21 4 4 13 10 21 14
8 5 19 13 25 17 31 24 61 24 67 1 1 -3 4 -11 8 -19 6 -13 9 -16 19 -22 23 -15
47 -14 60 1 9 13 13 27 13 58 l0 27 6 6 c3 3 8 6 10 6 2 1 11 4 20 8 19 9 24
9 40 2 11 -4 15 -5 22 -4 14 1 18 7 31 41 5 13 26 17 42 9z m122 -30 c5 -5 7
-23 3 -32 -3 -9 -8 -9 -20 -4 -3 2 -7 3 -8 3 -1 0 -4 2 -7 5 -9 10 -1 32 12
33 9 2 16 0 20 -5z m-70 -52 c2 -2 2 -4 -1 -6 -3 -4 -7 -2 -7 3 0 6 4 8 8 3z
m95 -2 c2 -1 7 -3 11 -4 10 -4 14 -8 16 -17 6 -22 -8 -34 -35 -31 -17 1 -22 6
-20 19 1 5 2 9 3 10 0 1 1 3 1 5 0 4 2 8 7 16 3 5 9 5 17 2z m-67 -70 c9 -1
12 -7 12 -21 0 -13 -1 -15 -6 -20 -6 -6 -7 -6 -18 -6 -11 0 -12 0 -18 6 -5 5
-6 7 -6 17 0 22 11 29 36 24z m207 -64 c12 -12 3 -31 -13 -31 -11 0 -18 7 -18
18 0 11 7 18 18 18 6 0 9 -1 13 -5z m-731 -13 c2 -1 7 -6 11 -12 10 -14 28
-22 51 -23 16 -1 22 -3 31 -10 11 -9 18 -26 21 -53 1 -10 3 -24 5 -31 2 -6 3
-14 3 -17 0 -9 -8 -16 -17 -16 -9 0 -16 7 -26 27 -10 20 -26 36 -40 40 -18 5
-42 3 -53 -5 -7 -5 -16 -23 -15 -29 1 -3 0 -6 -2 -8 -2 -1 -3 -4 -3 -5 0 -1
-3 -2 -6 -2 -7 0 -12 9 -7 14 5 5 3 36 -2 42 -2 3 -8 10 -12 17 -18 23 -24 27
-50 29 -18 1 -23 4 -23 14 0 17 24 32 38 24 3 -1 8 -4 12 -6 4 -3 10 -4 21 -4
13 0 14 0 22 7 4 4 10 8 13 8 3 1 6 2 7 2 3 1 17 -1 21 -3z m-254 -13 c1 -2 3
-3 4 -3 1 0 4 -2 7 -5 6 -6 26 -16 38 -19 13 -3 18 -10 19 -25 1 -15 -4 -22
-15 -24 -13 -2 -21 2 -32 14 -12 13 -16 15 -31 16 -12 1 -12 0 -21 -8 -28 -27
-62 -27 -69 0 -2 7 -2 11 0 18 4 14 11 19 30 20 15 1 30 5 43 13 11 6 23 8 27
3z m888 -7 c10 -11 8 -58 -2 -71 -10 -15 -18 -38 -15 -48 1 -6 -2 -21 -7 -26
-10 -12 -33 -11 -49 2 -6 5 -37 21 -40 21 -6 0 -11 10 -11 19 0 18 10 22 43
18 24 -2 41 17 41 46 -1 19 2 34 6 39 6 9 28 8 34 0z m-293 -50 c7 -3 12 -13
12 -25 0 -25 -18 -33 -47 -24 -14 4 -17 9 -13 19 1 4 4 11 6 17 6 15 22 20 42
13z m670 -18 c6 -6 7 -14 2 -33 -2 -8 -3 -16 -2 -19 0 -3 1 -7 1 -9 0 -2 3 -6
6 -9 5 -5 7 -6 18 -6 11 0 12 0 21 11 10 10 19 17 23 17 3 0 10 -8 10 -11 0
-2 -6 -15 -11 -22 -2 -3 -7 -12 -11 -19 -8 -16 -10 -18 -19 -20 -23 -5 -38
-10 -41 -14 -2 -2 -4 -3 -5 -3 0 1 -1 -2 -2 -6 -1 -9 1 -27 4 -32 2 -2 3 -8 3
-14 0 -13 -6 -19 -20 -19 -14 0 -20 6 -20 20 0 9 7 24 15 28 1 1 1 2 0 2 -1 0
-1 1 0 2 3 1 7 13 7 20 0 4 -13 21 -24 32 -2 2 -6 7 -9 12 l-7 8 -15 0 c-18 0
-23 -3 -27 -14 -3 -11 -10 -16 -23 -16 -24 0 -32 22 -16 43 4 5 7 10 7 11 0 1
1 2 2 2 2 0 9 17 13 34 4 14 7 19 15 23 7 2 20 3 24 1 9 -5 36 -3 49 3 14 6
24 5 32 -3z m-750 -29 c15 -5 15 -7 9 -24 -7 -20 -11 -23 -27 -23 -11 0 -14 1
-18 5 -6 4 -6 6 -6 20 0 14 0 16 6 20 6 6 23 7 36 2z m554 -30 c4 -4 6 -7 5
-7 -2 0 1 -104 3 -109 6 -15 20 -23 34 -22 40 4 44 4 50 -1 8 -7 9 -25 3 -39
-5 -11 -6 -28 -2 -38 4 -9 20 -12 40 -6 20 6 24 6 29 1 4 -3 5 -7 5 -12 0 -7
-1 -9 -10 -16 -6 -5 -15 -14 -21 -20 -14 -15 -15 -16 -24 -20 -8 -3 -9 -3 -16
0 -11 5 -18 14 -22 26 -4 14 -5 18 -5 25 0 5 1 9 2 10 5 3 -1 33 -7 38 -19 15
-44 12 -54 -8 -4 -7 -4 -12 -5 -52 l0 -44 -5 -5 c-5 -5 -7 -6 -14 -5 -5 1 -8
0 -9 -2 -2 -1 -2 -1 -2 1 0 1 -2 4 -5 6 l-5 4 0 89 c0 57 -1 91 -2 94 -4 11
-23 23 -37 23 -4 0 -7 2 -10 5 -3 5 -3 5 0 10 3 3 6 5 10 5 9 0 24 7 31 14 7
7 8 14 8 34 -1 14 -1 15 5 21 9 9 21 9 30 0z m-1127 -3 c2 -3 4 -7 4 -10 0 -3
1 -7 1 -8 0 -2 -1 -8 -1 -14 -2 -16 -10 -23 -31 -27 -17 -4 -24 -4 -29 1 -4 4
-7 16 -4 16 1 0 2 1 2 3 0 1 3 4 6 5 3 2 10 9 15 14 19 22 21 24 28 24 3 0 7
-2 9 -4z m250 -14 c5 -2 10 -3 11 -2 1 0 1 0 1 -1 -2 -2 3 -7 5 -6 0 1 1 -1 1
-3 0 -6 6 -9 19 -11 9 -1 24 -8 26 -11 3 -4 27 -14 37 -15 7 -1 17 -4 29 -10
10 -5 24 -11 32 -14 18 -7 21 -10 21 -24 0 -17 -7 -23 -25 -21 -2 0 -13 3 -23
7 -11 4 -22 8 -26 8 -8 2 -22 -5 -26 -13 -3 -8 -3 -24 1 -32 4 -9 5 -25 0 -33
-8 -16 -40 -16 -48 0 -5 8 -4 22 0 34 3 9 4 19 2 27 -2 10 -4 14 -11 18 -4 3
-11 7 -15 10 -4 3 -14 11 -22 19 -8 8 -19 18 -25 23 -13 9 -15 15 -13 31 1 13
6 17 21 20 18 3 17 3 28 -1z m297 -66 c5 -5 6 -7 6 -16 0 -15 -8 -23 -23 -23
-9 0 -11 1 -16 7 -9 8 -9 23 -1 32 9 9 24 9 34 0z m-392 -33 c3 -3 9 -11 14
-18 5 -8 11 -14 24 -22 9 -6 17 -13 18 -14 4 -17 2 -29 -7 -38 -4 -4 -8 -6
-16 -7 -13 -1 -22 6 -28 20 -3 6 -5 10 -6 10 -1 0 -2 1 -2 3 0 3 -12 16 -29
30 -9 8 -9 9 -9 20 0 10 1 12 6 17 5 5 7 6 17 6 10 0 12 -1 18 -7z m474 -15
c9 -6 15 -18 17 -33 0 -12 0 -13 -5 -18 -4 -4 -7 -5 -15 -5 -9 0 -11 1 -17 7
-11 12 -15 39 -7 48 6 6 17 7 27 1z m756 -9 c5 -8 1 -16 -8 -16 -9 0 -13 8 -8
16 2 3 5 5 8 5 3 0 6 -2 8 -5z m-426 -22 c3 -1 13 -9 20 -16 9 -9 19 -17 27
-20 23 -12 26 -23 8 -38 -9 -8 -15 -16 -24 -30 l-9 -16 -21 -7 c-27 -11 -44
-12 -51 -6 -7 6 -7 18 0 28 9 14 6 36 -6 48 -3 3 -5 7 -5 10 0 12 16 38 29 46
7 5 22 5 32 1z m-907 -38 l-5 -5 -4 4 -5 5 4 4 5 5 4 -4 5 -5 -4 -4z m1341 -9
c10 -9 3 -26 -10 -26 -8 0 -15 7 -15 15 0 13 16 20 25 11z m-866 -105 c12 -12
3 -31 -13 -31 -11 0 -18 7 -18 18 0 11 7 18 18 18 6 0 9 -1 13 -5z m721 -16
c12 -5 17 -10 20 -20 7 -27 -16 -46 -42 -36 -21 9 -19 49 2 54 3 1 6 2 6 3 0
3 4 2 14 -1z m121 -71 c7 -6 7 -19 1 -25 -6 -7 -19 -7 -25 -1 -7 6 -7 19 -1
25 6 7 19 7 25 1z m-395 -14 c13 -13 -6 -32 -20 -20 -9 9 -3 24 10 24 3 0 8
-2 10 -4z m-128 -21 l-5 -5 -4 4 -5 5 4 4 5 5 4 -4 5 -5 -4 -4z m-338 4 c14
-6 18 -22 12 -41 -5 -15 -6 -42 -2 -49 1 -3 2 -10 2 -16 0 -10 -1 -12 -6 -17
-3 -3 -7 -6 -9 -6 -27 -2 -34 5 -32 28 4 36 4 34 -3 54 -6 17 -6 20 -4 28 4
18 23 26 42 19z m99 -48 c12 -12 3 -31 -13 -31 -11 0 -18 7 -18 18 0 11 7 18
18 18 6 0 9 -1 13 -5z m327 -11 c1 -4 2 -7 2 -8 0 -1 2 -4 4 -8 5 -11 17 -19
29 -21 9 -2 14 -5 30 -16 36 -27 53 -51 53 -75 0 -17 -6 -23 -23 -25 -28 -4
-34 -2 -45 13 -9 13 -13 16 -27 19 -9 2 -11 2 -20 -2 -10 -4 -11 -4 -17 -2 -4
2 -5 5 -5 7 0 2 0 4 -1 4 -1 0 -2 1 -1 3 0 16 -3 20 -29 43 -6 5 -7 7 -8 17
-1 16 0 18 20 39 26 26 31 28 38 12z m-30 -137 c0 4 4 -4 4 -9 0 -3 -2 -5 -7
-7 -6 -4 -7 -3 -11 0 -3 3 -3 4 -1 8 5 9 7 11 11 9 2 -1 4 -1 4 -1z m-838 -38
l-5 -5 -4 4 -5 5 4 4 5 5 4 -4 5 -5 -4 -4z m824 -94 l-5 -5 -4 4 -5 5 4 4 5 5
4 -4 5 -5 -4 -4z"/>
<path d="M184 3817 c-25 -4 -46 -15 -53 -29 -2 -4 -3 -11 -2 -19 0 -12 0 -13
12 -28 16 -20 32 -44 52 -75 28 -43 54 -100 70 -151 13 -42 22 -53 52 -68 43
-22 65 -19 74 9 1 3 4 7 7 11 6 6 6 6 11 2 2 -2 7 -9 10 -15 11 -24 32 -32 56
-22 27 11 43 23 50 36 4 7 17 19 26 23 12 6 24 19 33 35 14 27 14 29 12 79 -1
43 -1 44 -7 56 -3 7 -7 13 -9 14 -5 4 -38 3 -34 -1 0 -1 -1 -4 -2 -7 -1 -3 -3
-10 -3 -16 -2 -26 -6 -31 -26 -31 -10 0 -14 1 -18 5 -7 6 -9 21 -4 38 3 12 5
68 2 80 -4 19 -17 28 -64 44 -58 20 -117 28 -203 30 -20 0 -39 0 -42 0z m149
-61 c2 -3 3 -6 3 -8 0 -4 -13 -18 -17 -18 -3 0 -11 -7 -11 -9 0 -4 -18 -15
-23 -15 -1 0 -4 2 -6 5 -3 5 -3 6 0 12 2 4 7 8 11 10 8 4 10 6 13 12 3 6 17
15 22 15 3 0 6 -2 8 -4z m1 -110 c7 -7 7 -29 1 -37 -9 -12 -23 -8 -27 6 -6 23
12 45 26 31z m105 -75 c13 -4 19 -11 19 -21 0 -17 -13 -22 -35 -14 -13 5 -34
5 -44 1 -16 -7 -29 -1 -29 13 0 14 4 17 26 20 27 4 51 5 63 1z"/>
<path d="M727 3548 c-11 -4 -16 -11 -19 -24 -2 -8 -2 -11 3 -28 6 -20 9 -28
12 -30 1 -1 10 -2 20 -2 15 0 17 0 18 4 2 6 12 10 23 10 6 0 15 2 19 3 4 2 9
3 10 4 5 1 11 8 17 18 5 9 5 10 3 20 -3 14 -8 21 -17 25 -11 6 -77 6 -89 0z"/>
<path d="M51 3363 c-13 -5 -15 -8 -16 -22 -1 -10 -1 -14 2 -17 5 -6 9 -17 10
-34 1 -23 7 -33 22 -41 11 -5 14 -6 32 -6 l21 -1 7 7 c4 3 7 9 7 11 0 3 1 8 1
11 0 3 1 7 2 9 1 1 0 2 -2 2 -3 0 -5 6 -5 19 0 14 8 21 23 21 8 0 12 -1 16 -5
5 -4 9 -5 20 -5 16 -1 18 0 23 8 3 6 3 7 1 14 -1 4 -3 8 -3 9 -1 7 -9 16 -16
19 -8 4 -14 4 -74 4 -45 0 -67 -1 -71 -3z"/>
<path d="M171 3277 c1 -5 8 -6 11 -1 1 2 2 2 2 1 0 -2 1 -3 3 -4 2 0 3 0 2 1
0 1 3 3 9 5 l9 3 -18 0 c-18 0 -18 0 -18 -5z"/>
</g>
</svg>
