<?xml version="1.0" standalone="no"?>
<!DOCTYPE svg PUBLIC "-//W3C//DTD SVG 20010904//EN"
 "http://www.w3.org/TR/2001/REC-SVG-20010904/DTD/svg10.dtd">
<svg version="1.0" xmlns="http://www.w3.org/2000/svg"
 width="1100.000000pt" height="2850.000000pt" viewBox="0 0 1100.000000 2850.000000"
 preserveAspectRatio="xMidYMid meet">
<metadata>
Created by potrace 1.15, written by Peter Selinger 2001-2017
</metadata>
<g transform="translate(0.000000,2850.000000) scale(0.500000,-0.500000)"
fill="#000000" stroke="none">
<path d="M536 3829 c-13 -4 -18 -9 -23 -20 l-5 -11 1 -83 c0 -90 0 -89 4 -91
1 -1 1 -2 -2 -2 -2 0 -6 -2 -9 -5 l-5 -6 -225 0 c-223 0 -225 0 -233 -4 -4 -2
-9 -6 -10 -8 -1 -2 -3 -4 -3 -5 -1 -1 -2 -1 -2 -2 0 -1 0 -2 -1 -4 -3 -10 -2
-15 4 -40 7 -29 10 -38 13 -38 1 0 2 -1 2 -3 0 -5 15 -15 27 -17 7 -2 71 -2
219 -2 l209 1 6 -6 6 -6 -1 -38 c-1 -38 -1 -38 -6 -43 -3 -3 -6 -5 -7 -5 -2 3
-21 -4 -26 -9 -2 -3 -8 -9 -13 -13 -9 -10 -17 -12 -24 -5 -4 4 -4 6 -3 13 2
13 -3 32 -9 40 -8 9 -38 21 -50 20 -16 -1 -26 -5 -35 -14 -19 -17 -21 -24 -21
-87 0 -55 1 -64 12 -75 5 -7 27 -23 30 -23 4 0 24 -14 28 -20 5 -7 5 -10 0
-16 -3 -5 -4 -5 -14 -2 -34 7 -45 3 -53 -20 -2 -8 -3 -19 -3 -51 0 -47 2 -55
13 -71 17 -24 17 -32 0 -56 -13 -18 -13 -10 -13 -214 0 -116 1 -188 2 -191 1
-3 1 -5 0 -5 -2 0 0 -2 2 -4 7 -5 34 -6 40 -1 4 4 6 4 15 -4 l7 -6 -7 -5 c-4
-3 -8 -6 -9 -6 -4 0 -10 4 -10 8 0 2 -1 2 -1 1 -1 -2 -7 -3 -22 -3 -13 0 -21
-1 -23 -2 -2 -2 -20 -3 -71 -4 -64 -1 -72 -1 -75 -4 -1 -1 -4 -2 -7 -4 -3 -2
-10 -10 -16 -18 -12 -17 -14 -18 -26 -18 -12 0 -14 1 -26 18 -6 8 -13 16 -16
18 -3 2 -7 4 -7 5 -1 1 -3 2 -3 2 -1 -1 -5 0 -8 0 -8 2 -22 -4 -28 -11 -10
-12 -10 -22 -2 -51 9 -31 15 -44 26 -51 15 -10 17 -10 115 -10 84 1 92 1 97 5
6 4 9 10 10 22 0 5 1 10 2 11 0 0 0 2 -2 3 -5 4 -4 21 2 26 6 7 22 7 28 0 6
-5 7 -22 2 -26 -2 -1 -2 -3 -1 -5 1 -2 1 -3 1 -4 -2 -3 3 -21 6 -24 7 -7 17
-8 142 -8 126 0 128 0 135 -8 3 -3 3 -3 0 -6 -2 -2 -10 -12 -18 -22 -9 -10
-17 -21 -20 -24 -2 -2 -9 -11 -16 -19 -7 -7 -26 -27 -42 -43 -30 -31 -32 -34
-31 -53 1 -5 2 -13 4 -17 4 -9 4 -15 -1 -20 -4 -5 -11 -5 -22 0 -6 3 -14 5
-24 5 l-15 1 -22 -18 c-31 -27 -36 -30 -37 -30 -1 0 -5 -4 -8 -10 -6 -9 -22
-22 -27 -22 -2 0 -6 -1 -9 -3 -11 -6 -75 -48 -78 -52 -8 -9 -12 -31 -8 -45 3
-9 -1 -24 -7 -29 -13 -12 -32 -11 -47 3 -18 17 -33 18 -59 5 -10 -5 -27 -13
-38 -18 -11 -5 -21 -10 -23 -11 -2 -1 -5 -3 -7 -4 -7 -3 -13 -13 -15 -25 -2
-10 -2 -11 3 -23 4 -7 9 -16 12 -20 6 -7 24 -16 33 -16 8 0 92 21 137 34 8 2
15 4 17 5 15 4 63 19 101 31 25 9 47 16 49 17 24 7 138 53 175 70 80 38 94 45
98 54 4 6 4 27 0 34 -14 26 -2 51 24 50 13 0 21 -6 29 -18 7 -12 18 -19 32
-19 6 0 11 2 24 10 31 19 43 28 49 33 3 3 5 4 5 3 0 -1 2 -4 5 -6 4 -4 4 -4 5
-80 2 -91 2 -89 1 -172 -1 -56 -1 -65 2 -73 4 -9 14 -21 18 -21 2 0 3 -1 3 -2
0 -2 10 -3 42 -3 28 0 32 0 40 5 9 4 18 15 26 30 6 12 11 14 26 14 l13 0 12
-13 c7 -7 14 -13 16 -13 2 0 3 -1 3 -2 0 -2 1 -2 1 -1 1 0 3 0 4 -1 2 -1 3 -2
3 -1 0 0 3 0 7 -1 9 -2 40 8 73 25 21 10 27 14 39 26 22 22 23 27 23 97 -1 62
-1 62 -17 79 l-9 9 -12 -1 c-12 -1 -18 -4 -31 -15 -8 -8 -10 -8 -22 -8 -11 0
-14 1 -18 5 -6 4 -6 6 -6 20 0 14 0 16 6 20 6 6 27 7 34 2 5 -4 20 -4 33 0 8
3 13 6 22 15 20 21 19 12 20 133 1 58 1 107 2 109 1 1 3 4 5 7 l4 4 5 -11 c3
-6 10 -19 16 -28 6 -9 12 -20 15 -24 12 -20 47 -70 71 -100 30 -38 91 -100
102 -104 4 -1 8 -3 10 -4 2 -1 4 -3 6 -3 4 -2 11 -11 15 -19 4 -8 22 -24 50
-43 8 -5 14 -10 15 -11 1 -1 20 -14 39 -26 4 -2 10 -6 13 -8 3 -2 9 -6 14 -8
5 -3 13 -7 17 -10 4 -2 11 -6 15 -8 9 -6 25 -5 36 3 5 3 8 6 7 7 0 0 1 3 3 5
5 5 11 25 15 47 3 18 7 22 20 22 13 0 19 -6 19 -19 0 -9 -1 -13 -13 -25 -4 -4
-7 -9 -7 -10 0 -1 -1 -2 -2 -2 -1 0 -2 -1 -2 -3 0 -2 -1 -3 -2 -3 -1 0 -2 -2
-3 -4 -1 -3 -3 -7 -5 -10 -3 -4 -4 -7 -3 -17 2 -23 4 -25 29 -36 9 -4 21 -9
26 -11 16 -8 39 -4 65 11 22 12 28 22 40 61 2 6 17 41 23 51 11 21 25 41 44
59 23 24 35 32 62 45 12 5 25 11 30 14 5 2 11 6 14 8 3 3 5 5 6 5 2 0 12 21
13 29 2 13 -3 29 -13 38 -10 9 -23 12 -51 14 -12 0 -30 2 -39 4 -9 2 -26 4
-37 6 -11 2 -38 6 -61 10 -23 4 -44 7 -48 7 -18 0 -33 -15 -43 -43 -15 -41
-38 -28 -31 17 1 8 0 12 -5 25 -8 21 -12 23 -69 40 -25 7 -51 16 -59 18 -24 9
-37 9 -52 -2 -19 -13 -23 -12 -30 10 -4 12 -7 19 -12 25 -3 2 -24 13 -41 20
-6 3 -14 6 -18 8 -3 2 -8 4 -11 4 -3 0 -3 1 0 1 1 1 3 2 3 3 0 6 12 8 46 8 23
0 39 1 49 3 18 4 34 4 54 0 14 -2 34 -3 131 -2 l115 0 10 5 c11 5 17 13 23 28
2 6 7 17 11 24 5 12 6 15 6 32 1 20 3 28 9 28 4 0 11 -9 9 -12 -3 -4 11 -44
15 -44 2 0 8 -11 9 -18 1 -10 10 -28 16 -34 12 -11 31 -11 56 1 30 14 49 43
41 63 -1 3 -1 5 -1 6 0 2 -15 18 -24 25 -4 3 -9 7 -11 9 -2 2 -5 4 -7 6 -2 2
-9 7 -16 13 -18 14 -17 13 -31 24 -7 6 -13 10 -14 11 -1 1 -5 4 -9 7 -4 3 -8
6 -9 7 -1 1 -12 9 -75 57 -24 18 -47 35 -50 38 -4 3 -9 6 -12 7 -8 3 -23 3
-23 0 0 -2 -3 2 -6 8 -5 9 -6 13 -6 26 0 26 -6 35 -24 36 -7 0 -13 1 -14 1 -1
1 -2 0 -3 -2 0 -1 -5 -9 -11 -17 -11 -15 -17 -19 -31 -19 -19 0 -28 9 -28 28
0 12 4 21 14 28 5 3 12 10 18 15 5 6 10 10 11 10 1 0 2 1 2 2 0 4 15 6 25 4 4
-1 18 2 26 6 5 3 8 7 11 13 4 8 4 15 4 156 l0 148 6 8 c3 5 7 10 9 10 13 4 43
31 48 43 3 6 4 20 1 27 -2 4 -12 16 -20 22 -37 28 -66 48 -73 50 -5 1 -16 3
-25 4 -20 2 -23 4 -31 25 -3 8 -9 19 -13 24 -14 18 -66 52 -86 57 -11 3 -44
25 -49 33 -5 9 -4 20 2 26 6 6 16 5 35 -2 l17 -7 194 0 c136 -1 198 0 207 1
39 6 72 38 69 64 -2 17 -7 24 -38 51 -44 39 -64 55 -76 62 -8 5 -21 15 -35 30
-13 12 -27 25 -31 28 -9 7 -22 18 -28 23 -20 17 -32 25 -42 26 -20 1 -28 -5
-54 -41 -2 -3 -5 -7 -6 -8 -1 -1 -6 -7 -11 -14 -9 -12 -14 -18 -17 -22 -1 -1
-6 -7 -11 -14 -5 -7 -13 -17 -17 -22 -4 -6 -10 -13 -12 -16 -2 -3 -6 -8 -8
-11 -8 -9 -9 -30 -1 -40 8 -11 10 -18 10 -29 0 -10 -1 -12 -6 -17 -6 -6 -7 -6
-18 -6 -11 0 -12 0 -18 6 -5 5 -6 7 -6 17 0 7 1 13 2 14 1 1 0 7 -1 15 -5 21
-14 27 -43 26 -16 -1 -17 -1 -23 5 l-6 6 1 29 c1 27 1 30 6 36 2 4 6 7 7 7 4
0 20 10 28 18 11 11 18 22 24 38 5 14 5 15 1 25 -6 17 -19 27 -40 29 -7 1
-270 22 -324 26 -24 2 -40 -6 -47 -25 -3 -8 -3 -19 -3 -96 l1 -87 -6 -6 -6 -6
-47 0 c-43 0 -46 0 -51 -4 -6 -4 -6 -6 -7 -19 0 -9 -1 -14 -3 -14 -1 0 4 -3
12 -7 14 -7 19 -8 38 -10 16 -2 22 -13 13 -23 -3 -3 -5 -4 -12 -3 -5 0 -17 -1
-27 -2 -10 -1 -16 -3 -14 -3 3 0 3 -2 3 -13 -1 -15 3 -22 14 -24 5 -1 78 -1
79 0 1 0 4 -2 8 -6 l6 -6 -1 -53 c0 -55 0 -58 9 -71 3 -5 6 -7 9 -7 4 0 4 -1
1 -1 -2 -1 -8 -3 -13 -6 l-9 -4 -180 0 c-99 0 -182 0 -185 1 -4 1 -6 2 -6 4 0
2 -2 4 -4 5 -4 0 -3 1 1 1 9 0 39 11 53 18 12 7 30 21 30 24 0 1 2 4 4 7 7 9
9 26 8 82 -1 54 0 65 6 72 9 10 31 11 43 1 4 -4 7 -10 8 -20 1 -10 8 -26 15
-32 15 -16 51 -10 52 9 0 3 1 9 1 12 1 3 -1 9 -2 13 -7 14 -2 40 8 40 2 0 3 1
2 2 -2 0 -3 7 -3 15 -1 12 -2 14 -7 18 -5 4 -8 4 -58 4 l-54 0 -6 6 -6 6 1 29
c1 27 1 30 6 37 3 3 5 7 6 6 1 0 6 3 11 5 21 11 42 39 44 60 3 16 -7 32 -23
38 -10 5 -7 4 -72 10 -64 5 -70 6 -80 7 -5 0 -16 1 -24 2 -8 1 -18 2 -22 2 -4
0 -14 1 -23 2 -9 1 -20 2 -24 2 -4 1 -14 1 -22 2 -8 1 -18 1 -24 2 -5 1 -15 1
-22 2 -7 1 -18 1 -25 2 -9 1 -16 0 -20 -2z m103 -98 c5 -4 6 -6 6 -17 1 -17
-1 -21 -18 -31 -32 -18 -46 -38 -48 -70 -2 -17 -6 -23 -17 -23 -11 0 -18 8
-18 19 1 5 1 5 2 -1 l1 -7 1 8 c0 4 2 10 4 13 7 10 16 28 16 32 0 6 9 26 14
34 3 5 8 15 11 23 7 21 12 25 28 25 11 0 14 -1 18 -5z m666 -57 c4 -6 4 -23 0
-29 -7 -10 -29 -12 -39 -4 -12 11 -3 35 14 39 9 2 20 -1 25 -6z m586 -92 c7
-6 7 -19 1 -25 -6 -7 -19 -7 -25 -1 -7 6 -7 19 -1 25 6 7 19 7 25 1z m-1216
-129 c12 -7 14 -33 3 -43 -8 -9 -32 -9 -40 0 -9 8 -9 32 0 41 7 7 27 8 37 2z
m646 -61 c6 -6 15 -27 17 -37 2 -19 -3 -20 -66 -20 -46 0 -50 0 -58 4 -5 3
-10 5 -12 6 -2 0 -2 1 1 1 2 0 9 6 16 13 12 12 14 13 22 13 5 0 9 -1 10 -2 2
-3 22 -1 31 3 5 2 8 5 9 8 3 13 22 20 30 11z m-342 -120 c4 -6 4 -24 -1 -30
-7 -9 -27 -9 -34 0 -5 6 -5 24 0 30 7 9 27 9 35 0z m-437 -8 c1 0 5 -3 8 -6 5
-5 6 -7 6 -18 0 -11 -1 -13 -6 -18 -6 -6 -7 -6 -18 -6 -11 0 -12 0 -18 6 -5 5
-6 7 -6 17 0 14 3 20 12 24 5 2 8 2 22 1z m181 -16 c3 -2 6 -7 8 -10 4 -7 13
-16 22 -22 7 -4 10 -5 29 -5 21 0 21 0 27 -6 l6 -6 0 -56 0 -56 -6 -6 -6 -6
-65 0 -65 0 -6 6 -6 6 1 57 c1 64 2 65 17 82 4 4 9 9 10 12 4 9 13 14 21 14 5
0 10 -2 13 -4z m619 -42 c17 -6 21 -7 26 -13 8 -9 3 -23 -10 -30 -7 -4 -17
-14 -21 -21 -3 -6 -4 -12 -4 -31 0 -24 0 -24 -6 -30 l-6 -6 -27 1 c-35 0 -40
-1 -68 -22 -11 -8 -21 -8 -42 -1 -21 8 -34 15 -37 22 -4 8 -4 25 -1 32 2 3 6
11 9 17 9 17 11 26 11 52 l-1 23 6 6 6 6 77 -1 c63 -1 79 -2 88 -4z m96 -18
c5 -6 5 -12 0 -18 -7 -8 -22 -2 -22 9 0 11 15 17 22 9z m-359 -141 c4 -4 5 -7
5 -15 0 -14 -6 -20 -20 -20 -14 0 -20 6 -20 20 0 14 6 20 20 20 8 0 11 -1 15
-5z m387 -23 c1 0 5 -3 8 -6 5 -5 6 -7 6 -18 0 -11 -1 -13 -6 -18 -6 -6 -7 -6
-18 -6 -11 0 -12 0 -18 6 -5 5 -6 7 -6 17 0 14 3 20 12 24 5 2 8 2 22 1z
m-657 -77 c4 -4 6 -7 5 -7 -4 0 9 -29 16 -35 9 -8 16 -19 16 -27 0 -7 -7 -19
-15 -26 -7 -6 -17 -25 -15 -30 0 -1 -2 -4 -6 -8 l-7 -7 -66 1 c-63 1 -66 1
-76 6 -5 2 -10 4 -11 4 -1 0 -5 2 -9 5 -4 3 -12 6 -17 8 -12 4 -16 9 -16 22 0
13 3 17 18 23 26 9 35 21 35 48 0 16 0 17 6 23 l6 6 65 0 65 0 6 -6z m518 0
l6 -6 0 -61 0 -61 -6 -6 -6 -6 -72 0 -72 0 -6 6 -6 6 0 61 0 61 6 6 6 6 72 0
72 0 6 -6z m-929 -51 c5 -6 5 -12 0 -18 -7 -8 -22 -2 -22 9 0 11 15 17 22 9z
m1201 -1 c5 -8 1 -16 -8 -16 -9 0 -13 8 -8 16 2 3 5 5 8 5 3 0 6 -2 8 -5z
m-1166 -67 c11 -10 3 -28 -11 -28 -9 0 -16 6 -16 16 0 14 17 22 27 12z m1064
-8 c11 -10 3 -28 -11 -28 -9 0 -16 6 -16 16 0 14 17 22 27 12z m-416 -50 c16
-6 29 -13 37 -20 7 -5 7 -6 7 -21 0 -14 0 -16 -6 -20 -7 -6 -24 -7 -35 -1 -13
6 -34 22 -38 28 -7 10 -6 24 1 32 8 9 17 9 34 2z m-219 -2 c9 -9 2 -24 -10
-24 -12 0 -18 14 -10 24 4 5 15 5 20 0z m-184 -32 c-5 -16 -5 -32 -1 -37 1 -2
8 -7 15 -10 l12 -5 49 0 50 1 6 -6 6 -6 0 -48 0 -48 -6 -6 -6 -6 -36 1 c-36 0
-37 0 -57 -6 -19 -5 -45 -15 -54 -20 -8 -5 -19 -8 -26 -8 -10 0 -28 -4 -32 -7
-1 -2 -3 -3 -4 -3 -1 0 -5 -1 -9 -3 -10 -5 -13 -3 -21 12 -14 26 -34 33 -72
27 -20 -3 -28 -3 -37 2 -12 5 -14 14 -7 25 7 12 13 16 24 16 6 0 11 -1 13 -3
4 -3 39 -14 44 -13 8 1 23 12 31 23 9 14 15 17 28 14 13 -3 23 -3 32 0 10 3
13 9 12 25 -1 12 -2 13 -10 22 -12 11 -15 23 -12 36 3 10 6 13 21 23 13 8 19
13 26 20 2 2 7 6 10 7 5 2 6 2 10 -1 l5 -4 -4 -14z m853 2 c7 -6 7 -19 1 -25
-6 -7 -19 -7 -25 -1 -7 6 -7 19 -1 25 6 7 19 7 25 1z m-204 -59 l6 -6 -1 -31
c0 -35 2 -44 14 -55 11 -10 21 -10 35 0 6 4 9 7 9 7 -2 0 4 7 12 16 9 10 63
20 74 14 2 -1 9 -7 16 -14 6 -7 12 -12 13 -12 1 0 3 -1 5 -1 14 -4 19 -4 35 1
39 13 45 7 20 -20 -11 -12 -18 -12 -109 -11 -46 1 -87 1 -93 1 -11 0 -97 -2
-123 -3 -15 0 -19 -1 -31 -8 -16 -8 -29 -11 -34 -7 -7 6 -8 13 -9 68 l-1 55 6
6 6 6 72 0 72 0 6 -6z m429 -113 c5 -5 5 -15 0 -20 -9 -9 -24 -2 -24 10 0 8 6
14 14 14 3 0 8 -2 10 -4z m-767 -8 c4 -6 4 -24 -1 -30 -7 -9 -27 -9 -34 0 -5
6 -5 24 0 30 7 9 27 9 35 0z m594 -65 c3 -3 3 -3 0 -6 -3 -3 -3 -3 -6 0 -3 2
-3 3 -1 6 4 4 4 4 7 0z m-839 -54 l-5 -5 -4 4 -5 5 4 4 5 5 4 -4 5 -5 -4 -4z
m299 -34 c3 -3 3 -3 0 -6 -3 -3 -3 -3 -6 0 -3 2 -3 3 -1 6 4 4 4 4 7 0z m-66
-12 c3 -5 3 -5 0 -10 -2 -3 -5 -5 -7 -5 -2 0 -5 2 -7 5 -3 5 -3 5 0 10 2 3 5
5 7 5 2 0 5 -2 7 -5z m-244 -12 c6 -4 6 -6 6 -20 0 -14 0 -16 -6 -20 -4 -4 -7
-5 -18 -5 -11 0 -14 1 -18 5 -6 4 -6 6 -6 20 0 14 0 16 6 20 4 4 7 5 18 5 11
0 14 -1 18 -5z m373 -53 c7 -8 5 -14 -10 -30 -15 -15 -27 -24 -32 -24 -2 0 -5
2 -7 5 -3 5 -3 6 1 14 4 8 16 23 27 34 7 6 16 7 21 1z m542 -139 l-5 -5 -4 4
-5 5 4 4 5 5 4 -4 5 -5 -4 -4z m-98 9 c1 0 5 -3 8 -6 5 -5 6 -7 6 -18 0 -11
-1 -13 -6 -18 -6 -6 -7 -6 -18 -6 -11 0 -12 0 -18 6 -5 5 -6 7 -6 17 0 14 3
20 12 24 5 2 8 2 22 1z m-101 -18 c7 -6 7 -20 0 -26 -7 -6 -20 -8 -26 -2 -6 5
-5 21 1 27 6 7 19 7 25 1z m-527 -45 l-5 -5 -4 4 -5 5 4 4 5 5 4 -4 5 -5 -4
-4z m-551 1 c2 -3 3 -8 3 -15 0 -17 -7 -23 -26 -21 -12 1 -16 7 -16 23 -1 12
3 18 11 21 6 2 23 -3 28 -8z m1399 -48 c5 -5 5 -11 0 -16 -10 -10 -27 5 -16
16 4 4 12 4 16 0z"/>
</g>
</svg>
