<?xml version="1.0" standalone="no"?>
<!DOCTYPE svg PUBLIC "-//W3C//DTD SVG 20010904//EN"
 "http://www.w3.org/TR/2001/REC-SVG-20010904/DTD/svg10.dtd">
<svg version="1.0" xmlns="http://www.w3.org/2000/svg"
 width="1100.000000pt" height="2850.000000pt" viewBox="0 0 1100.000000 2850.000000"
 preserveAspectRatio="xMidYMid meet">
<metadata>
Created by potrace 1.15, written by Peter Selinger 2001-2017
</metadata>
<g transform="translate(0.000000,2850.000000) scale(0.500000,-0.500000)"
fill="#000000" stroke="none">
<path d="M1653 3823 c-5 -2 -16 -13 -44 -46 -5 -6 -18 -20 -27 -31 -26 -30
-48 -55 -50 -58 0 -1 -5 -4 -10 -6 -9 -5 -9 -5 -90 -6 l-81 -1 -10 -5 c-6 -3
-12 -7 -13 -9 -5 -6 -18 -13 -23 -13 -6 0 -13 4 -22 12 -10 10 -26 15 -46 17
-10 0 -24 3 -32 5 -12 3 -101 35 -112 40 -5 2 -28 11 -66 24 -15 6 -31 11 -34
13 -3 1 -19 7 -36 13 -16 6 -30 11 -31 12 -1 2 -21 -3 -26 -7 -13 -8 -13 -2
-14 -170 l-1 -152 -5 -8 c-4 -6 -5 -6 -6 -3 -2 3 -72 75 -88 89 -5 4 -14 12
-20 16 -6 5 -15 13 -20 19 -24 28 -28 31 -44 29 -13 -2 -17 -5 -28 -22 -6 -9
-13 -20 -16 -25 -3 -4 -6 -10 -6 -12 0 -2 -1 -2 -1 0 -1 1 -4 5 -6 7 l-5 6 1
57 0 57 5 7 c3 5 8 9 13 11 4 2 8 4 9 5 1 1 4 3 8 6 10 6 23 24 29 40 12 30
-2 53 -38 58 -21 2 -37 -4 -48 -21 -13 -20 -17 -23 -32 -23 -12 0 -23 5 -23
10 0 1 -3 9 -7 17 -8 16 -17 25 -31 29 -8 2 -89 10 -101 10 -11 0 -22 -4 -26
-10 -5 -8 -9 -24 -8 -31 2 -13 -14 -20 -23 -11 -4 4 -6 17 -2 18 2 1 -1 23 -5
30 -3 6 -13 13 -16 11 0 -1 -1 -1 -1 1 0 3 -22 1 -31 -4 -10 -5 -16 -12 -19
-23 -2 -6 -2 -55 -2 -185 l1 -177 -6 -6 -6 -6 -96 1 -96 0 -9 -4 c-5 -3 -10
-7 -12 -10 -5 -6 -8 -24 -6 -27 9 -11 18 -20 22 -22 8 -4 18 -15 19 -22 2 -11
12 -26 21 -32 l9 -6 74 0 74 0 6 -5 c3 -4 6 -6 7 -6 1 0 2 -2 2 -4 0 -5 11
-21 20 -27 11 -8 14 -15 14 -27 0 -12 -3 -19 -14 -27 -12 -9 -17 -16 -18 -29
-1 -12 0 -14 26 -36 10 -9 10 -9 10 -21 0 -8 -1 -14 -3 -17 -6 -8 -6 -29 0
-44 l6 -13 -4 -34 c-4 -40 -4 -40 -25 -53 -8 -4 -21 -14 -28 -21 -12 -13 -14
-14 -28 -13 -9 0 -17 8 -19 18 -1 10 -8 24 -14 31 -10 11 -12 11 -94 11 -70 0
-77 0 -84 -4 -11 -5 -16 -11 -19 -24 -5 -20 8 -38 31 -46 7 -2 14 -4 16 -4 5
0 7 -3 15 -17 7 -14 11 -19 23 -25 8 -4 10 -4 91 -4 l82 0 7 -5 6 -6 -1 -24
c-1 -13 -2 -45 -3 -70 -1 -25 -2 -49 -2 -53 0 -4 -1 -16 -2 -28 -1 -23 -1 -24
-6 -69 -3 -28 -8 -70 -10 -84 -5 -30 -7 -45 -11 -63 -5 -28 -5 -35 2 -57 8
-23 8 -29 -1 -56 -10 -33 -12 -35 -27 -49 -16 -14 -21 -22 -34 -57 -20 -56
-50 -120 -76 -163 -21 -34 -60 -91 -69 -101 -3 -4 -9 -11 -22 -26 -19 -24 -18
-40 2 -60 13 -14 23 -18 38 -16 9 0 46 18 71 33 7 5 13 8 13 8 4 0 105 68 113
76 1 1 6 5 11 9 6 4 10 8 11 9 1 1 4 3 7 6 17 13 68 62 89 86 19 21 37 43 42
50 3 4 6 8 7 8 1 1 3 4 5 6 1 3 8 13 14 21 11 17 38 58 38 60 0 0 2 4 5 8 16
24 60 122 74 164 11 34 16 33 28 -3 15 -44 18 -57 30 -135 3 -16 17 -36 34
-48 21 -15 66 -34 89 -38 14 -3 49 -2 63 2 34 8 73 33 96 61 30 38 51 100 40
124 -4 12 -25 24 -40 24 -7 0 -13 8 -13 16 0 8 3 12 15 21 8 6 12 12 13 18 1
2 5 6 10 9 9 6 10 6 37 6 27 0 29 0 32 -4 4 -5 4 -6 2 -21 -2 -9 -4 -19 -5
-23 -15 -55 -16 -70 -5 -79 5 -5 4 -5 38 -2 15 1 25 -6 29 -20 4 -16 -2 -31
-16 -36 -12 -5 -35 1 -37 10 -3 10 -10 14 -24 15 -16 0 -21 -3 -25 -15 -2 -5
-6 -14 -8 -18 -7 -14 -3 -29 11 -48 6 -8 7 -11 7 -20 0 -17 -10 -25 -29 -20
-11 2 -29 0 -38 -4 -4 -2 -11 -9 -18 -19 -7 -8 -12 -15 -13 -16 -1 -1 -4 -4
-7 -8 -16 -20 -56 -59 -85 -81 -2 -2 -5 -5 -7 -6 -1 -1 -6 -5 -12 -9 -5 -4
-14 -12 -20 -18 -12 -13 -21 -19 -40 -26 -22 -9 -41 -22 -59 -40 -15 -15 -18
-18 -26 -19 -12 -2 -29 -10 -33 -16 -6 -9 -7 -21 -3 -33 6 -16 19 -31 29 -32
1 0 5 -1 9 -2 4 -1 7 -1 8 -1 1 1 30 9 37 10 42 9 153 47 209 72 14 6 26 11
27 11 2 0 9 9 11 14 3 6 2 29 0 35 -2 4 -2 6 1 10 2 3 5 5 7 5 3 0 11 -7 19
-17 2 -3 5 -6 7 -6 4 -2 28 -4 28 -3 0 1 2 3 6 4 7 4 49 30 57 37 1 0 11 8 22
16 21 15 44 34 52 42 3 2 12 12 22 21 39 38 62 65 93 112 10 15 12 19 12 27 0
11 -4 19 -13 27 -15 12 -17 15 -17 22 0 14 14 20 28 13 8 -4 30 -3 37 2 7 4 9
9 21 39 6 15 12 31 14 36 5 13 12 39 13 52 1 13 5 26 12 45 3 7 5 16 5 21 1 5
1 6 1 2 1 -4 2 -5 4 -5 4 2 8 -3 11 -11 1 -4 4 -13 7 -20 6 -16 6 -26 0 -42
-13 -32 -14 -45 -6 -74 7 -23 7 -26 0 -50 l-5 -19 0 -95 c1 -129 4 -154 24
-195 19 -39 54 -66 98 -78 29 -8 45 -9 109 -10 69 -2 73 -1 83 8 4 4 11 15 9
15 0 0 0 4 2 8 2 4 2 9 2 11 -2 4 3 19 7 24 9 11 31 11 43 0 4 -3 10 -20 9
-24 -1 -3 4 -20 6 -21 0 -1 2 -3 3 -5 3 -5 18 -13 24 -13 5 0 16 7 20 12 4 7
5 29 2 34 -2 2 -3 8 -3 13 0 13 6 19 19 19 12 0 18 -4 25 -20 10 -23 19 -30
38 -30 9 0 10 0 12 7 4 9 4 10 5 27 1 23 6 27 22 16 5 -3 10 -6 11 -6 1 0 2
-1 2 -2 0 -1 6 -1 14 -1 l15 1 8 9 c16 17 31 42 38 65 10 30 11 73 4 101 -6
24 -23 51 -40 66 -19 16 -19 17 -21 92 -1 35 -2 81 -2 102 0 44 -2 53 -14 65
-4 4 -11 9 -15 10 -5 1 -9 3 -10 4 -4 2 -11 1 -15 -2 -4 -3 -5 -5 -4 -20 0
-12 0 -16 -2 -16 -2 0 0 -1 3 -3 14 -6 18 -20 9 -30 -4 -5 -6 -5 -19 -5 -8 1
-17 0 -21 -1 -4 -1 -8 -2 -9 -2 -2 0 -3 0 -3 -1 0 -1 -2 -2 -3 -3 -5 -1 -12
-14 -20 -39 -10 -29 -12 -39 -9 -49 1 -5 3 -10 5 -12 2 -1 3 -3 3 -4 0 0 4 -5
8 -9 13 -14 9 -30 -7 -30 -10 0 -29 -6 -35 -10 -3 -2 -10 -7 -15 -11 l-11 -7
-37 -2 -38 -1 -5 6 -6 7 0 121 0 122 6 6 c3 4 7 6 11 7 26 2 78 18 106 31 25
12 29 16 41 46 3 9 9 20 13 26 21 32 22 61 2 86 -14 17 -15 19 -15 29 0 10 2
13 15 29 16 19 15 13 15 159 0 142 0 137 -12 146 -5 4 -19 7 -26 6 -34 -2 -43
4 -38 29 1 7 3 11 7 14 6 6 9 6 31 5 7 -1 21 2 25 5 13 8 12 -6 13 211 l1 197
4 6 c3 3 11 8 18 12 16 7 30 17 44 31 l10 10 -1 14 c-1 17 -4 20 -24 30 -11 5
-14 8 -21 18 -12 19 -21 28 -54 54 -16 12 -30 23 -31 24 -3 4 -23 17 -29 19
-17 7 -33 1 -43 -14 -5 -8 -16 -17 -22 -17 -2 0 -5 2 -7 5 -3 5 -3 6 0 15 2 5
6 13 9 17 12 20 5 43 -21 63 -10 8 -12 9 -24 9 -7 1 -14 0 -18 -2z m-1102
-175 c7 -6 7 -19 1 -25 -6 -7 -19 -7 -25 -1 -7 6 -7 19 -1 25 6 7 19 7 25 1z
m1292 -14 c4 -6 4 -24 -1 -30 -7 -9 -27 -9 -34 0 -5 6 -5 24 0 30 7 9 27 9 35
0z m-857 -31 c3 -3 4 -7 4 -14 0 -13 -6 -19 -19 -19 -13 0 -19 6 -19 19 0 7 1
11 4 14 7 8 23 8 30 0z m365 -30 c5 -2 10 -6 12 -8 2 -1 8 -5 13 -8 9 -4 11
-4 58 -4 46 0 50 0 58 4 24 12 29 14 39 14 19 0 28 -10 28 -29 -1 -13 -4 -18
-22 -30 -13 -9 -17 -13 -21 -22 l-6 -11 1 -56 0 -56 -6 -6 -6 -6 -132 0 -132
0 -6 6 -6 6 0 87 0 87 6 6 6 6 32 0 c34 0 43 2 54 12 4 4 17 11 20 11 2 0 6
-2 10 -3z m-791 -29 c13 -13 -7 -32 -21 -20 -4 4 -4 5 -3 12 3 12 16 16 24 8z
m-65 -29 c5 -5 5 -7 4 -14 -2 -13 -4 -16 -19 -24 -7 -4 -14 -9 -16 -10 -11
-10 -25 -19 -31 -19 -7 0 -15 7 -15 14 0 7 7 19 12 22 3 1 11 10 19 19 9 11
16 17 19 18 3 1 6 2 7 2 5 1 16 -3 20 -8z m149 -31 c14 -11 17 -39 5 -49 -12
-11 -34 -11 -43 0 -6 7 -8 20 -6 29 3 10 4 13 14 21 10 8 19 8 30 -1z m431
-19 c3 -5 3 -5 0 -10 -2 -3 -5 -5 -7 -5 -2 0 -5 2 -7 5 -3 5 -3 5 0 10 2 3 5
5 7 5 2 0 5 -2 7 -5z m582 -28 c6 -4 6 -6 6 -20 0 -14 0 -16 -6 -20 -4 -4 -7
-5 -18 -5 -11 0 -14 1 -18 5 -6 4 -6 6 -6 20 0 14 0 16 6 20 4 4 7 5 18 5 11
0 14 -1 18 -5z m-758 -57 c14 -5 18 -24 8 -40 -3 -4 -6 -9 -8 -9 -2 -1 -3 -2
-3 -3 0 -1 -3 -5 -7 -9 -4 -4 -7 -8 -6 -9 1 -1 0 -2 -1 -2 -2 0 -2 -9 2 -15 1
-3 2 -13 2 -22 0 -26 11 -56 22 -63 4 -2 5 -4 5 -5 -1 0 -1 -1 1 -1 1 0 2 -1
1 -2 -3 -5 23 2 33 9 8 5 28 4 35 -2 6 -4 6 -6 6 -20 0 -14 0 -16 -6 -20 -4
-4 -7 -5 -18 -5 -12 0 -14 0 -19 6 -10 11 -12 14 -12 16 0 1 -1 2 -2 2 -1 0
-3 2 -4 5 -2 4 -4 5 -11 5 l-8 -1 7 -1 c6 -1 6 -1 -3 -1 -9 1 -17 -4 -17 -10
0 -2 -1 -3 -2 -3 -5 0 -7 -19 -8 -73 -1 -54 -1 -55 -5 -59 -3 -2 -5 -5 -5 -6
0 -2 -1 -2 -1 -1 -3 6 -121 122 -129 126 -7 4 -25 2 -32 -3 -5 -3 -16 -20 -37
-52 -5 -7 -12 -18 -16 -25 -4 -7 -8 -14 -9 -15 -1 -3 -2 -2 -6 3 l-5 8 -1 102
-1 102 6 6 6 6 100 -1 c112 0 113 0 119 12 5 10 5 27 1 34 -5 6 -5 22 0 29 7
8 17 11 28 7z m258 -4 c10 -9 3 -26 -10 -26 -8 0 -15 7 -15 15 0 13 16 20 25
11z m624 -12 c10 -9 3 -26 -10 -26 -8 0 -15 7 -15 15 0 13 16 20 25 11z m-575
-90 c3 -1 7 -5 9 -8 9 -13 19 -24 28 -29 8 -4 9 -4 132 -4 l124 0 6 -6 6 -6
-1 -61 c0 -57 0 -61 4 -76 10 -36 10 -35 8 -44 -3 -14 -14 -22 -29 -21 -4 0
-18 4 -30 8 l-21 7 -104 0 -103 -1 -6 6 -6 6 0 44 c0 51 0 52 -19 73 -7 7 -12
14 -12 16 0 12 -9 34 -17 43 -12 13 -15 31 -8 44 5 11 23 15 39 9z m-776 -46
c5 -5 5 -15 0 -20 -9 -9 -24 -2 -24 10 0 8 6 14 14 14 3 0 8 -2 10 -4z m93
-111 c12 -12 3 -31 -13 -31 -11 0 -18 7 -18 18 0 11 7 18 18 18 6 0 9 -1 13
-5z m1231 -64 c5 -5 5 -17 0 -22 -9 -10 -26 -3 -26 10 0 12 17 20 26 12z
m-711 -42 c9 -3 23 -13 23 -17 0 -1 1 -2 2 -2 2 -1 3 -7 4 -15 0 -12 0 -13 -6
-19 -7 -8 -24 -9 -33 -2 -11 9 -16 41 -8 53 4 6 5 6 18 2z m-565 -9 c4 -6 4
-8 0 -12 -5 -5 -8 -5 -13 1 -3 5 -3 5 0 10 5 6 9 6 13 1z m1219 -6 c4 -6 5
-20 0 -26 -4 -5 -3 -30 2 -43 13 -30 4 -50 -22 -49 -29 0 -40 22 -23 47 10 15
13 30 10 45 -3 13 -3 22 2 27 7 8 24 7 31 -1z m-1141 -6 c1 0 5 -3 8 -6 5 -5
6 -7 6 -15 0 -6 1 -12 2 -14 1 -2 1 -6 0 -9 -1 -4 -1 -6 1 -7 1 0 1 -1 -1 -3
-2 -1 -2 -2 2 -3 6 -2 32 -19 36 -24 1 -1 3 -8 3 -15 1 -14 0 -17 -11 -19 -2
0 -13 -4 -26 -9 -12 -4 -25 -8 -29 -8 -22 0 -23 28 -2 39 6 3 6 3 7 18 0 9 -1
15 -2 16 -1 1 -2 2 -1 3 0 1 -4 4 -9 6 -6 3 -12 7 -14 10 -5 6 -7 21 -4 25 1
2 2 3 1 3 -3 0 6 9 11 11 5 2 8 2 22 1z m817 -17 c5 -8 1 -16 -8 -16 -9 0 -13
8 -8 16 2 3 5 5 8 5 3 0 6 -2 8 -5z m-420 -9 c10 -9 3 -26 -10 -26 -8 0 -15 7
-15 15 0 13 16 20 25 11z m-233 -34 c5 -5 5 -15 0 -20 -9 -9 -24 -2 -24 10 0
8 6 14 14 14 3 0 8 -2 10 -4z m785 -25 l6 -6 0 -90 0 -90 -6 -6 -6 -6 -132 0
-132 0 -6 6 -6 6 0 90 0 90 6 6 6 6 132 0 132 0 6 -6z m-619 -165 c0 -94 0
-108 3 -115 5 -11 12 -20 22 -26 14 -9 19 -23 12 -35 -4 -6 -21 -18 -28 -19
-9 -2 -20 3 -31 14 -12 11 -30 26 -48 38 -18 13 -39 12 -46 -1 -2 -3 -2 -4 0
-3 2 1 2 1 0 -2 -1 -2 -2 -9 -3 -16 -2 -21 -9 -28 -28 -28 -18 0 -27 9 -28 27
0 13 4 22 13 26 10 5 10 6 11 25 0 19 0 18 -11 23 -24 10 -28 12 -28 11 0 -1
-1 -1 -2 0 -2 2 -8 4 -14 6 -6 2 -14 5 -18 6 -4 2 -11 4 -15 5 -5 2 -10 5 -13
9 -4 6 -4 7 -2 26 4 45 7 87 7 116 0 20 0 20 6 25 l6 6 112 0 112 1 6 -6 6 -6
-1 -107z m220 50 c1 0 5 -3 8 -6 5 -5 6 -7 6 -18 0 -11 -1 -13 -6 -18 -6 -6
-7 -6 -18 -6 -11 0 -12 0 -18 6 -5 5 -6 7 -6 17 0 14 3 20 12 24 5 2 8 2 22 1z
m489 -18 c7 -6 7 -19 1 -25 -6 -7 -19 -7 -25 -1 -7 6 -7 19 -1 25 6 7 19 7 25
1z m-218 -115 c5 -8 1 -16 -8 -16 -9 0 -13 8 -8 16 2 3 5 5 8 5 3 0 6 -2 8 -5z
m-127 -4 c3 -2 7 -7 8 -10 2 -3 8 -13 14 -22 11 -16 11 -16 11 -31 0 -13 0
-15 -6 -19 -8 -7 -28 -7 -36 0 l-6 5 0 35 c-1 31 -1 36 3 40 4 6 5 6 12 2z
m-134 -42 c3 -3 4 -7 4 -14 0 -13 -6 -19 -19 -19 -13 0 -19 6 -19 19 0 7 1 11
4 14 7 8 23 8 30 0z m-735 -2 c3 -3 3 -3 0 -6 -3 -3 -3 -3 -6 0 -3 2 -3 3 -1
6 4 4 4 4 7 0z m203 -26 c3 -3 4 -7 4 -14 0 -13 -6 -19 -19 -19 -13 0 -19 6
-19 19 0 7 1 11 4 14 7 8 23 8 30 0z m1001 -1 c7 -3 12 -13 12 -25 0 -19 -9
-28 -28 -28 -19 0 -28 9 -28 28 0 24 19 34 44 25z m-1072 -88 c7 -6 7 -19 1
-25 -6 -7 -19 -7 -25 -1 -7 6 -7 19 -1 25 6 7 19 7 25 1z m629 -19 l-5 -5 -4
4 -5 5 4 4 5 5 4 -4 5 -5 -4 -4z m-767 3 c10 -9 3 -26 -10 -26 -8 0 -15 7 -15
15 0 13 16 20 25 11z m704 -55 c7 -7 7 -23 0 -30 -5 -5 -6 -5 -15 -5 -9 0 -10
0 -15 5 -4 4 -5 7 -5 15 0 14 6 20 20 20 8 0 11 -1 15 -5z m495 -52 c5 -6 12
-18 13 -22 1 -4 8 -11 10 -11 5 0 19 -16 19 -22 0 -5 -6 -11 -10 -11 -6 0 -16
5 -18 10 -2 3 -3 5 -4 5 -1 0 -2 1 -1 2 1 2 -8 12 -11 12 -3 0 -18 10 -22 15
-2 2 -4 7 -4 11 0 15 18 22 28 11z m-1214 -48 l-5 -5 -4 4 -5 5 4 4 5 5 4 -4
5 -5 -4 -4z m27 -91 c5 -5 6 -7 6 -16 0 -15 -8 -23 -23 -23 -9 0 -11 1 -16 7
-9 8 -9 23 -1 32 9 9 24 9 34 0z m764 0 c9 -9 8 -28 -2 -35 -7 -5 -22 -5 -29
0 -8 5 -28 7 -39 5 -21 -5 -25 -5 -30 0 -7 6 -7 18 0 24 4 4 6 4 14 3 19 -3
37 -2 48 3 19 9 29 9 38 0z m648 -74 c5 -5 6 -7 6 -16 0 -15 -8 -23 -23 -23
-9 0 -11 1 -16 7 -9 8 -9 23 -1 32 9 9 24 9 34 0z m128 -61 c3 -3 3 -3 0 -6
-3 -3 -3 -3 -6 0 -3 2 -3 3 -1 6 4 4 4 4 7 0z m-274 -34 c12 -7 14 -33 3 -43
-8 -9 -32 -9 -40 0 -9 8 -9 32 0 41 7 7 27 8 37 2z"/>
</g>
</svg>
