<?xml version="1.0" standalone="no"?>
<!DOCTYPE svg PUBLIC "-//W3C//DTD SVG 20010904//EN"
 "http://www.w3.org/TR/2001/REC-SVG-20010904/DTD/svg10.dtd">
<svg version="1.0" xmlns="http://www.w3.org/2000/svg"
 width="1100.000000pt" height="2850.000000pt" viewBox="0 0 1100.000000 2850.000000"
 preserveAspectRatio="xMidYMid meet">
<metadata>
Created by potrace 1.15, written by Peter Selinger 2001-2017
</metadata>
<g transform="translate(0.000000,2850.000000) scale(0.500000,-0.500000)"
fill="#000000" stroke="none">
<path d="M528 3817 c-21 -11 -28 -39 -16 -63 4 -9 8 -13 21 -22 20 -13 25 -22
26 -44 0 -10 -5 -15 -18 -19 -6 -2 -14 -6 -18 -8 -6 -4 -16 -17 -14 -19 1 0
-2 -3 -6 -5 -4 -3 -7 -6 -7 -7 0 0 -57 -1 -127 0 -122 0 -127 0 -136 -4 -17
-8 -25 -23 -20 -42 2 -9 -6 -13 -25 -13 -17 0 -25 4 -28 12 -17 44 -23 48 -64
47 -27 -1 -38 -4 -43 -13 -1 -2 -3 -4 -3 -5 -1 -1 -2 -1 -2 -2 0 -1 0 -2 -1
-4 -3 -10 -2 -15 4 -40 7 -29 10 -38 13 -38 1 0 2 -1 2 -3 0 -4 12 -13 23 -16
7 -2 38 -3 153 -3 l145 0 10 5 c12 6 17 13 23 32 5 15 9 19 22 19 13 0 17 -4
22 -19 2 -8 6 -17 9 -20 4 -7 18 -16 21 -14 1 1 2 0 2 -2 0 -1 2 -5 6 -7 l5
-5 -1 -37 c0 -30 0 -38 2 -38 2 0 2 -1 -1 -2 -3 -2 -11 -16 -11 -21 0 -1 -1
-3 -2 -3 -4 -2 -10 -25 -8 -30 3 -6 -1 -21 -6 -27 -9 -11 -31 -11 -43 0 -6 4
-10 20 -7 27 1 3 0 8 -2 16 -5 16 -7 19 -17 24 -9 4 -12 4 -55 4 -44 -1 -45
-1 -51 -6 -10 -7 -16 -26 -13 -38 1 -3 0 -10 -2 -19 -2 -8 -4 -18 -5 -22 -2
-16 -7 -44 -8 -47 -1 -2 -2 -7 -3 -12 -1 -5 -3 -14 -6 -20 -5 -15 -5 -26 0
-43 5 -17 5 -34 -2 -42 -3 -4 -5 -5 -17 -4 -12 0 -14 1 -29 11 -23 17 -33 16
-67 -1 -41 -22 -72 -52 -89 -89 -11 -26 -14 -40 -13 -68 1 -49 23 -91 62 -122
9 -7 17 -12 18 -12 1 0 3 -1 5 -3 5 -4 33 -15 50 -19 26 -6 57 -4 86 5 29 10
67 36 84 59 3 3 6 7 7 9 10 12 29 46 29 53 0 4 1 4 1 2 1 -2 3 -4 4 -4 2 0 3
-1 2 -2 -1 -1 0 -2 1 -2 0 0 3 -4 6 -9 5 -11 15 -23 19 -23 2 0 3 -1 3 -2 0
-1 1 -2 3 -2 5 -1 184 -2 190 -1 4 1 10 4 13 6 6 5 6 6 6 18 -1 10 0 13 2 14
2 0 1 1 -2 1 -7 0 -31 13 -39 20 -5 4 -6 8 -8 23 -3 22 -12 35 -27 39 -8 2
-113 2 -120 0 -15 -5 -27 -14 -37 -29 -8 -13 -11 -15 -13 -14 -1 1 -2 0 -2 -2
0 -2 -1 -1 -3 4 -1 4 -5 9 -7 11 -10 10 -16 27 -14 36 2 7 9 14 15 15 4 1 22
15 18 15 -1 0 3 2 8 6 l10 5 193 1 193 1 6 -6 6 -6 -1 -23 c-1 -12 -3 -27 -5
-34 -2 -6 -4 -14 -5 -18 -1 -7 -2 -7 -2 -1 0 3 -1 5 -2 4 -1 -1 -2 0 -2 1 0 1
-5 2 -10 3 -6 1 -13 2 -15 3 -3 1 -5 1 -6 -1 0 -2 -4 -3 -8 -3 -6 0 -9 2 -21
14 -16 16 -26 20 -49 20 -17 0 -27 -3 -35 -9 -5 -4 -5 -6 -6 -17 0 -12 0 -14
5 -18 13 -12 17 -33 9 -39 -3 -2 -4 -3 -3 -3 1 0 2 -6 2 -12 1 -10 2 -13 5
-17 8 -8 16 -9 66 -8 51 1 52 1 52 3 0 1 1 2 3 2 4 0 15 13 15 18 1 5 1 5 1 1
1 -3 2 -5 3 -5 1 0 2 -1 2 -1 -1 -1 0 -6 2 -10 5 -14 4 -38 -2 -51 -3 -6 -6
-10 -6 -8 0 2 -3 5 -6 6 -3 2 -6 4 -6 4 0 2 -2 2 -32 3 -40 2 -48 -2 -47 -26
0 -8 -1 -11 -3 -12 -2 0 -1 -1 1 -1 6 0 9 -8 9 -20 0 -18 -14 -27 -34 -21 -5
2 -11 4 -12 6 -6 7 1 35 9 35 2 0 3 1 1 1 -2 1 -3 4 -3 12 1 15 -2 20 -12 24
-7 3 -24 3 -148 2 -77 0 -141 -1 -142 -1 -2 0 -3 -1 -3 -2 0 -1 -1 -2 -3 -2
-4 0 -14 -12 -18 -21 -4 -11 -4 -59 0 -70 4 -9 14 -21 18 -21 2 0 3 -1 3 -2 0
-3 12 -3 110 -3 97 0 110 0 110 3 0 1 2 2 4 3 2 1 8 5 13 10 13 13 18 16 27
14 10 -2 16 -5 26 -15 12 -12 17 -16 19 -15 0 1 1 1 1 0 0 -1 20 -1 50 -1 53
2 56 2 56 4 0 0 3 2 6 4 3 1 6 4 6 6 0 4 10 -17 11 -25 4 -19 15 -35 26 -35
l6 0 -6 -2 c-3 -1 -10 -3 -14 -5 -8 -4 -20 -4 -293 -5 -209 -1 -287 -2 -293
-4 -11 -3 -29 -3 -48 1 -25 4 -78 4 -88 -1 -11 -4 -16 -11 -19 -24 -2 -9 -2
-11 5 -35 9 -31 15 -44 26 -51 14 -10 19 -10 87 -10 l63 1 6 -6 6 -6 -1 -208
c0 -226 0 -218 11 -229 4 -4 26 -12 33 -12 2 0 6 -2 9 -4 10 -9 4 -30 -9 -30
-6 0 -28 -8 -33 -12 -2 -2 -5 -7 -7 -11 -4 -7 -4 -15 -4 -94 0 -75 0 -88 3
-94 4 -9 14 -21 18 -21 2 0 3 -1 3 -2 0 -2 2 -2 38 -3 49 -1 81 3 133 18 34 9
91 35 108 48 21 16 30 29 35 48 1 7 2 37 1 98 l0 88 -6 17 c-7 21 -7 31 0 52
6 16 6 19 7 59 l0 41 -7 22 c-9 26 -9 35 -2 42 5 5 17 6 32 1 5 -1 10 -2 11
-2 1 0 4 -3 7 -8 l5 -8 0 -110 c0 -60 1 -109 2 -109 1 0 2 -2 3 -5 1 -3 2 -5
3 -5 0 1 3 0 6 -1 3 -2 9 -2 15 -2 6 0 9 -1 10 -3 0 -2 1 -1 1 1 0 8 23 13 34
8 22 -9 23 -45 2 -54 -8 -3 -20 -3 -27 0 -4 2 -9 3 -16 2 -31 -3 -33 -9 -33
-93 0 -55 0 -58 4 -68 l5 -10 15 0 15 -1 7 13 c3 7 6 14 6 15 0 9 18 14 31 9
8 -3 30 -3 38 1 4 2 10 7 15 15 8 11 19 20 24 20 6 0 10 -9 12 -26 2 -24 8
-34 25 -41 13 -5 23 -4 51 6 38 13 58 27 66 45 5 11 5 12 6 88 0 67 0 78 -3
85 -4 10 -14 19 -27 25 -25 12 -25 26 0 38 13 5 22 13 26 23 5 11 6 63 1 84
-6 30 -7 33 -5 42 2 13 8 18 25 23 11 3 18 7 26 13 14 11 21 15 30 15 15 0 22
-17 13 -31 -2 -4 -5 -7 -6 -7 -2 0 -24 -20 -24 -22 0 -1 -1 -4 -3 -5 -6 -6 1
-34 9 -41 3 -3 8 -14 8 -19 0 -7 -5 -17 -12 -22 -11 -9 -19 -30 -17 -43 2 -7
7 -18 12 -24 3 -4 25 -12 37 -13 11 -1 18 -3 22 -8 1 -1 9 -16 17 -32 17 -33
18 -38 11 -57 -2 -6 -5 -19 -7 -29 -3 -18 -7 -29 -13 -36 -2 -2 -5 -8 -7 -13
-6 -16 -10 -24 -12 -26 -3 -3 1 -26 5 -31 7 -9 17 -11 43 -10 81 3 164 25 193
51 7 6 11 12 17 25 4 10 9 19 10 21 2 2 3 5 3 7 0 2 1 3 5 1 7 -3 13 0 24 12
9 9 11 10 19 10 19 0 24 -22 9 -40 -2 -1 -3 -4 -3 -5 0 -1 -2 -4 -3 -7 -2 -4
-2 -10 -2 -20 2 -25 1 -26 -7 -35 -21 -25 -24 -34 -23 -58 1 -16 4 -28 8 -33
12 -15 24 -19 51 -16 64 7 113 17 153 31 20 7 63 28 63 31 0 1 1 2 2 2 5 0 34
26 49 45 10 11 28 49 33 68 10 36 10 42 11 152 1 158 1 149 8 158 3 4 6 8 7 8
8 -2 52 31 59 45 4 8 4 24 -1 32 -2 4 -11 13 -24 23 -23 17 -34 22 -59 24 -21
2 -20 1 -33 32 -6 15 -11 20 -34 37 -11 9 -23 18 -26 20 -3 2 -8 5 -11 7 l-5
2 8 5 7 5 97 1 c108 1 105 1 111 15 4 9 4 27 0 32 -5 7 -4 24 3 36 5 9 7 14 7
22 0 10 -4 23 -7 23 -1 0 -3 2 -6 4 -7 6 -78 58 -84 62 -3 2 -10 8 -17 13 -7
5 -16 11 -21 13 -5 3 -10 6 -12 8 -1 1 -3 2 -4 2 -1 0 -6 4 -12 10 -17 16 -42
32 -52 34 -11 1 -22 -3 -29 -9 -3 -3 -5 -4 -13 -3 -5 1 -8 2 -7 2 3 0 1 24 -2
28 -5 6 -17 32 -15 32 2 0 6 3 10 7 9 9 18 11 33 8 24 -4 39 2 115 48 48 29
56 35 59 41 4 7 3 25 0 35 -6 15 -6 24 0 30 10 10 26 5 38 -11 14 -19 45 -23
66 -7 7 5 13 22 13 34 0 3 0 10 0 14 2 29 -1 43 -8 50 -2 2 -14 14 -28 27 -13
13 -29 28 -35 33 -5 6 -15 15 -22 21 -38 34 -39 36 -11 51 20 11 36 33 36 49
0 9 -5 22 -11 29 -4 5 -37 30 -49 39 -4 3 -7 5 -8 6 -1 1 -44 34 -53 40 -3 2
-13 10 -24 18 -11 8 -22 16 -24 16 -4 1 -4 2 0 2 2 0 3 1 2 2 -1 2 4 4 25 10
5 2 10 5 13 8 5 7 9 28 6 32 -3 4 -2 22 2 29 8 16 40 16 48 0 4 -7 5 -25 2
-29 -3 -4 1 -25 6 -32 6 -8 15 -10 44 -10 33 0 46 2 64 11 31 15 48 43 38 67
-5 11 -10 16 -34 27 -23 11 -29 17 -34 33 -1 2 -2 4 -3 4 -1 0 -2 1 -2 2 0 4
-12 17 -26 28 -7 6 -14 12 -16 14 -1 1 -6 5 -10 8 -4 3 -8 6 -10 8 -4 4 -8 7
-25 20 -8 6 -15 12 -16 13 -2 1 -5 4 -8 6 -3 2 -7 5 -8 6 -1 1 -7 5 -12 9 -10
7 -11 7 -23 6 -13 -1 -20 -5 -26 -15 -6 -11 -11 -16 -29 -24 -22 -10 -29 -16
-50 -43 -9 -11 -17 -22 -18 -23 -1 -1 -5 -7 -9 -13 -4 -5 -8 -10 -9 -10 -2 0
-3 -1 -3 -2 0 -4 -15 -7 -48 -8 l-35 -1 -6 6 -6 6 1 18 c2 20 7 38 15 47 3 3
11 8 18 12 18 9 26 16 31 27 8 17 1 35 -17 44 -11 6 -15 6 -41 8 -10 1 -23 2
-28 2 -20 2 -86 7 -100 8 -8 1 -17 2 -20 2 -3 0 -14 1 -24 2 -10 1 -23 2 -28
2 -121 11 -122 11 -135 -2 -13 -12 -13 -15 -13 -97 l1 -73 -6 -6 c-6 -6 -6 -6
-27 -5 -21 0 -42 -3 -42 -6 0 -1 -1 -2 -3 -2 -1 0 -6 -4 -12 -9 -14 -13 -18
-15 -26 -15 -8 0 -12 2 -26 15 -6 5 -11 9 -12 9 -2 0 -3 1 -3 2 0 4 -22 6 -66
6 l-45 -1 -6 6 c-6 6 -6 6 -5 21 2 19 6 27 19 33 28 11 54 54 47 77 -4 16 -19
27 -38 29 -4 1 -30 3 -58 5 -28 2 -56 5 -62 5 -15 1 -80 7 -98 8 -8 1 -18 1
-22 2 -4 0 -15 1 -25 2 -10 1 -20 1 -23 2 -3 0 -14 1 -24 2 -18 1 -20 1 -30
-4z m850 -87 c5 -5 5 -15 0 -20 -9 -9 -24 -2 -24 10 0 8 6 14 14 14 3 0 8 -2
10 -4z m-617 -68 c7 -6 7 -19 1 -25 -6 -7 -19 -7 -25 -1 -7 6 -7 19 -1 25 6 7
19 7 25 1z m-69 -68 c1 0 5 -3 8 -6 5 -5 6 -7 6 -18 0 -11 -1 -13 -6 -18 -6
-6 -7 -6 -18 -6 -11 0 -12 0 -18 6 -5 5 -6 7 -6 17 0 14 3 20 12 24 5 2 8 2
22 1z m121 -6 c10 -9 3 -26 -10 -26 -8 0 -15 7 -15 15 0 13 16 20 25 11z m292
-17 c5 -4 6 -6 8 -27 1 -13 4 -26 5 -29 2 -6 15 -19 19 -19 4 0 14 -17 12 -22
-1 -3 -6 -9 -11 -15 -6 -7 -12 -15 -13 -18 -4 -9 -4 -21 0 -21 1 0 -2 -3 -7
-6 l-9 -6 -129 0 c-121 0 -129 0 -137 -4 -8 -3 -21 -15 -21 -18 0 0 -3 -5 -8
-10 -10 -11 -16 -11 -26 0 -5 5 -9 10 -9 12 -1 2 -2 4 -3 4 -1 0 -1 2 -1 4 -1
5 13 17 30 26 25 13 38 35 37 62 -1 10 0 11 5 17 l6 6 23 -1 c25 0 40 3 50 13
3 2 9 8 15 13 9 8 9 8 22 8 13 0 13 0 22 -8 6 -5 12 -11 15 -13 4 -5 23 -13
29 -13 8 0 27 14 27 20 0 4 0 5 2 9 2 2 3 10 4 18 2 19 7 23 25 23 10 0 14 -1
18 -5z m-858 -8 c6 -7 6 -7 1 -12 -4 -5 -10 -7 -10 -3 0 1 -2 2 -4 3 -11 3
-11 11 0 15 7 3 7 3 13 -3z m1228 -12 c2 -1 6 -7 10 -15 4 -7 10 -16 14 -20 3
-5 5 -8 4 -8 -1 0 0 -1 1 -3 1 -2 2 -3 1 -3 -1 0 0 -2 1 -4 1 -2 1 -4 1 -4 -1
0 -10 -9 -19 -20 -9 -11 -18 -20 -19 -20 -2 0 -3 -1 -3 -1 0 -1 -2 -2 -5 -2
-4 -1 -5 0 -4 5 0 3 1 5 1 5 3 0 4 37 1 47 -1 4 -2 11 -3 15 -5 22 3 34 19 28z
m-248 -24 c12 -12 3 -31 -13 -31 -11 0 -18 7 -18 18 0 11 7 18 18 18 6 0 9 -1
13 -5z m163 -36 c2 -2 4 -6 4 -9 1 -12 0 -16 -8 -23 l-8 -8 0 -15 1 -16 11 0
c11 0 36 7 38 11 1 1 2 1 2 1 0 -1 2 -1 5 1 4 2 7 2 9 1 9 -5 -9 -23 -25 -25
-6 0 -17 4 -17 7 0 2 -24 2 -33 0 -3 -1 -5 -2 -4 -2 2 0 -10 -6 -16 -7 -10 -3
-32 -2 -38 0 -8 4 -15 11 -14 13 2 1 10 17 9 18 0 2 12 12 23 19 5 3 13 10 17
16 15 20 18 23 24 23 9 1 16 0 20 -5z m215 -30 c12 -12 3 -31 -13 -31 -11 0
-18 7 -18 18 0 11 7 18 18 18 6 0 9 -1 13 -5z m-368 -71 c4 -3 8 -5 9 -5 0 0
-1 -3 -2 -6 -1 -3 -2 -12 -2 -19 0 -11 0 -13 -6 -18 -6 -6 -7 -6 -18 -6 -11 0
-12 0 -18 6 -6 5 -6 7 -6 16 1 13 -1 24 -5 24 -1 0 1 1 4 3 3 2 8 5 11 6 8 4
23 4 33 -1z m-120 -49 c11 -7 13 -36 4 -45 -9 -9 -33 -9 -41 0 -8 7 -9 27 -3
38 7 11 28 15 40 7z m-200 -9 c5 -5 6 -7 6 -16 0 -15 -8 -23 -23 -23 -9 0 -11
1 -16 7 -9 8 -9 23 -1 32 9 9 24 9 34 0z m-98 -76 c0 -16 0 -17 -6 -23 l-6 -6
-205 1 c-194 1 -205 1 -211 5 -5 3 -10 12 -16 30 -2 4 -4 8 -5 9 -1 0 1 3 4 6
l7 5 213 1 213 1 6 -6 c6 -6 6 -7 6 -23z m704 28 l62 0 6 -5 c2 -2 6 -5 7 -6
2 0 2 -1 0 -1 -1 0 -11 -8 -21 -19 -26 -27 -16 -25 -156 -25 l-114 0 -10 -5
c-12 -5 -16 -10 -25 -29 -8 -17 -12 -20 -25 -20 -14 0 -26 9 -36 26 -10 18
-11 19 -23 23 -7 3 -14 7 -17 10 -6 6 -6 8 -6 23 0 16 0 17 6 23 l6 6 142 0
c78 0 170 0 204 -1z m248 -57 c5 -8 1 -16 -8 -16 -9 0 -13 8 -8 16 4 6 11 6
16 0z m-787 -15 c5 -5 6 -7 6 -17 0 -10 -1 -12 -6 -17 -5 -5 -7 -6 -17 -6 -10
0 -12 1 -17 6 -5 5 -6 7 -6 17 0 10 1 12 6 17 5 5 7 6 17 6 10 0 12 -1 17 -6z
m-630 -23 c6 -6 6 -17 0 -33 -5 -16 -7 -31 -5 -49 2 -14 2 -15 -2 -20 -13 -15
-55 -8 -65 11 -8 16 -3 30 14 41 6 4 13 9 15 12 3 5 9 24 9 31 0 12 24 17 34
7z m826 -17 c2 -2 3 -6 3 -11 1 -10 2 -17 5 -19 1 0 2 -1 1 -2 0 -1 3 -5 6
-10 4 -6 9 -10 23 -17 l17 -8 32 -1 c19 0 35 0 39 2 8 2 19 11 17 14 -1 1 0 2
1 2 2 0 5 18 4 29 0 12 6 19 18 19 12 0 18 -7 18 -19 -1 -11 2 -29 4 -29 1 0
2 -1 1 -2 0 -1 1 -3 3 -6 9 -10 13 -10 90 -10 l71 0 5 -5 c5 -5 5 -7 4 -17 -1
-6 -2 -11 -1 -12 0 0 -2 -3 -5 -6 l-5 -6 -119 0 -119 0 -10 -5 c-13 -6 -20
-15 -27 -38 -4 -11 -11 -16 -26 -16 -18 0 -22 4 -32 33 -1 3 -2 4 -2 3 0 -1
-4 -2 -9 -1 -7 0 -9 0 -10 -3 0 -3 -1 -3 -1 1 0 2 -2 12 -5 23 -6 20 -6 47 0
58 4 8 2 35 -3 42 -4 5 -4 11 -1 16 5 6 8 6 13 1z m-252 -96 c5 -5 6 -7 6 -17
0 -10 -1 -12 -6 -17 -5 -5 -7 -6 -17 -6 -10 0 -12 1 -17 6 -5 5 -6 7 -6 17 0
10 1 12 6 17 5 5 7 6 17 6 10 0 12 -1 17 -6z m-733 -15 c12 -12 3 -31 -13 -31
-11 0 -18 7 -18 18 0 11 7 18 18 18 6 0 9 -1 13 -5z m991 -125 c2 0 13 -1 25
-2 19 0 26 0 45 5 l23 5 22 -5 21 -5 94 0 94 0 12 -5 c7 -3 12 -7 13 -9 1 -2
3 -4 6 -4 3 0 3 -1 1 -2 -2 0 -6 -3 -9 -5 -6 -4 -10 -4 -146 -5 -77 -1 -141
-2 -143 -2 -10 -3 -24 -13 -33 -21 -6 -6 -16 -15 -24 -22 -14 -12 -26 -28 -28
-38 -3 -13 11 -32 28 -38 9 -3 22 -3 122 -3 109 1 111 1 116 5 8 6 12 14 11
27 -1 40 -1 40 3 44 9 9 31 9 40 0 4 -4 4 -7 4 -26 1 -23 1 -28 7 -37 4 -6 5
-6 16 -6 15 1 19 4 29 26 8 17 14 23 26 24 3 0 9 3 16 6 7 4 21 6 21 4 0 -1 0
-2 0 -3 4 -8 -4 -50 -10 -57 -3 -3 -5 -5 -6 -5 -4 0 -39 -14 -40 -16 0 -1 -1
-2 -3 -2 -2 0 -26 -25 -30 -32 -4 -5 -13 -11 -24 -14 -3 -1 -16 -2 -30 -2 -19
0 -25 -1 -31 -4 -9 -5 -9 -5 -8 -22 l0 -12 -9 0 -9 0 0 12 c1 17 1 17 -8 22
-8 4 -9 4 -203 4 -121 0 -197 1 -199 2 -2 1 -2 2 0 2 1 0 2 1 2 3 0 2 -2 3
-10 3 -17 0 -11 2 8 2 9 0 20 1 24 2 4 1 11 2 15 3 19 3 43 10 52 15 12 6 20
19 23 39 3 19 5 22 18 30 16 10 21 20 20 46 0 16 0 17 8 28 7 10 16 27 16 30
0 1 3 5 6 10 3 5 6 10 6 11 0 2 1 1 4 -1 1 -2 4 -4 6 -5z m-201 1 c4 -4 5 -7
5 -15 0 -14 -6 -20 -20 -20 -14 0 -20 6 -20 20 0 14 6 20 20 20 8 0 11 -1 15
-5z m44 -101 c5 -5 6 -7 6 -16 0 -15 -8 -23 -23 -23 -9 0 -11 1 -16 7 -9 8 -9
23 -1 32 9 9 24 9 34 0z m-122 -17 c6 -4 6 -6 6 -20 0 -14 0 -16 -6 -20 -4 -4
-7 -5 -18 -5 -11 0 -14 1 -18 5 -6 4 -6 6 -6 20 0 14 0 16 6 20 4 4 7 5 18 5
11 0 14 -1 18 -5z m780 -27 c5 -6 4 -20 -1 -25 -6 -7 -19 -7 -25 -1 -7 6 -7
19 -1 25 6 7 21 7 27 1z m-120 -107 c10 -10 4 -35 -9 -35 -2 0 -7 -1 -11 -3
-9 -4 -18 -1 -21 8 -1 3 -1 7 0 8 1 1 3 6 5 12 5 12 9 15 22 15 7 0 10 -1 14
-5z m-147 -12 c6 -5 5 -18 0 -24 -6 -7 -19 -7 -25 -1 -6 6 -7 19 -2 24 5 5 22
5 27 1z m-858 -11 c9 -11 1 -24 -15 -24 -17 0 -25 14 -14 26 6 6 24 5 29 -2z
m413 0 c7 -6 7 -16 0 -22 -3 -3 -5 -4 -5 -3 0 1 -1 1 -2 -1 -2 -1 -3 -1 -5 0
-2 2 -3 2 -3 1 0 -1 -2 0 -5 3 -6 6 -7 15 -1 21 6 6 15 6 21 1z m545 -23 c2 1
0 -12 -4 -23 -5 -13 -10 -18 -27 -25 -22 -9 -26 -12 -58 -50 -14 -16 -18 -20
-23 -22 -8 -3 -12 -14 -12 -31 1 -13 2 -16 6 -19 4 -4 5 -6 5 -15 0 -15 -8
-23 -23 -23 -15 0 -23 8 -23 23 0 10 3 15 10 18 3 1 3 2 1 2 -2 0 -3 2 -3 11
1 20 -8 28 -32 26 -19 -1 -37 -12 -43 -26 -1 -2 -5 -7 -10 -10 -15 -11 -48 -6
-57 9 -6 8 -16 18 -25 23 -7 4 -10 4 -103 5 -53 1 -98 2 -100 3 -5 2 -14 9
-12 9 1 0 0 2 -2 6 -4 8 -17 19 -29 25 -19 9 -24 14 -24 22 0 9 6 17 14 17 3
0 11 -1 17 -3 17 -4 31 -1 41 8 10 9 17 13 23 13 6 0 13 -7 13 -13 0 -5 -6
-21 -9 -25 -2 -1 -3 -6 -3 -11 0 -4 -1 -10 -1 -11 0 -2 0 -4 1 -4 0 0 1 0 2 0
5 -2 20 -1 21 2 2 5 12 15 19 18 3 1 6 3 6 4 0 1 1 2 2 2 1 0 6 3 10 6 15 12
13 12 187 12 l158 0 11 5 c8 5 12 8 18 18 12 19 18 25 24 25 3 0 9 1 13 3 7 2
9 2 14 -1 3 -1 7 -3 7 -3z m-769 -35 c3 -5 4 -18 1 -32 -1 -5 -3 -26 -4 -47
-1 -35 -2 -37 -6 -42 -8 -8 -23 -6 -32 6 -4 6 -13 13 -21 17 -7 4 -13 5 -44 6
-36 2 -46 3 -68 12 -17 6 -36 4 -54 -6 -5 -3 -16 -3 -30 1 -24 6 -31 6 -43 0
-6 -3 -14 -9 -19 -13 -13 -12 -17 -14 -28 -14 -13 0 -19 6 -19 20 0 13 3 16
23 24 9 4 17 8 19 10 1 1 2 8 2 16 0 13 -3 18 -9 18 -2 0 1 2 6 6 l10 5 133 1
133 1 20 7 c23 9 25 9 30 4z m124 -76 c10 -9 3 -26 -10 -26 -8 0 -15 7 -15 15
0 13 16 20 25 11z m707 -51 c21 -9 20 -45 -2 -54 -10 -5 -28 -1 -34 6 -9 10
-9 32 0 42 7 8 24 11 36 6z m-691 -32 c3 -5 3 -5 0 -10 -2 -3 -5 -5 -7 -5 -2
0 -5 2 -7 5 -3 5 -3 5 0 10 2 3 5 5 7 5 2 0 5 -2 7 -5z m584 -54 c7 -7 7 -23
0 -30 -8 -8 -31 -6 -31 3 0 2 -1 2 -2 1 0 -2 -6 -3 -13 -3 -9 1 -12 0 -14 -3
-1 -1 -3 -2 -3 -2 -1 1 -3 -2 -5 -7 -5 -13 -4 -120 1 -142 9 -38 4 -48 -27
-57 -15 -5 -26 -4 -32 1 -5 5 -5 6 -5 28 1 25 1 23 -12 47 -6 11 -8 20 -4 27
1 1 5 8 9 15 8 15 9 18 10 67 l0 41 6 5 c6 6 8 6 24 6 13 0 17 -1 19 -3 2 -3
5 -3 16 -2 13 1 15 1 24 4 3 1 5 2 6 1 0 0 2 2 4 4 6 6 23 6 29 -1z m-205 -8
c8 -4 12 -10 15 -25 10 -52 10 -58 8 -67 -3 -11 -28 -15 -38 -6 -5 4 -16 30
-25 57 -8 25 3 44 27 43 4 0 10 -1 13 -2z m-475 -29 c7 -7 7 -18 0 -24 -11 -9
-27 -2 -27 12 0 14 17 22 27 12z m120 -32 c11 -10 3 -28 -11 -28 -9 0 -16 6
-16 16 0 14 17 22 27 12z m-484 -30 c4 -4 5 -8 5 -24 0 -26 -7 -35 -18 -23 -4
5 -5 6 -3 23 1 15 2 19 5 23 6 6 6 6 11 1z m355 -8 c1 0 4 -2 7 -5 6 -6 7 -24
1 -31 -7 -9 -27 -9 -34 0 -4 5 -5 22 -2 28 3 5 12 10 20 9 3 0 6 -1 8 -1z
m719 -43 c12 -7 14 -33 3 -43 -8 -9 -32 -9 -40 0 -9 8 -9 32 0 41 7 7 27 8 37
2z m-1117 -36 c5 -7 6 -25 0 -31 -7 -9 -27 -9 -34 0 -5 6 -5 24 0 30 7 9 27 9
34 1z m894 -5 c5 -5 5 -15 0 -20 -9 -9 -24 -2 -24 10 0 8 6 14 14 14 3 0 8 -2
10 -4z m336 -59 c3 -3 4 -7 4 -14 0 -13 -6 -19 -19 -19 -13 0 -19 6 -19 19 0
7 1 11 4 14 7 8 23 8 30 0z m-399 -39 c11 -10 3 -28 -11 -28 -9 0 -16 6 -16
16 0 14 17 22 27 12z m300 -49 c3 -5 3 -5 0 -10 -2 -3 -5 -5 -7 -5 -2 0 -5 2
-7 5 -3 5 -3 5 0 10 2 3 5 5 7 5 2 0 5 -2 7 -5z m-970 -62 c5 -8 1 -16 -8 -16
-9 0 -13 8 -8 16 2 3 5 5 8 5 3 0 6 -2 8 -5z m998 -6 c3 -5 3 -5 0 -10 -2 -3
-5 -5 -7 -5 -2 0 -5 2 -7 5 -3 5 -3 5 0 10 2 3 5 5 7 5 2 0 5 -2 7 -5z"/>
<path d="M1037 2128 c-2 -2 -5 -7 -7 -11 -4 -7 -4 -12 -4 -71 l0 -64 9 -9 c4
-5 10 -9 12 -10 2 0 7 -2 11 -4 7 -2 7 -2 10 2 5 7 8 28 5 31 -2 2 -2 7 -1 18
1 8 0 23 -1 33 -2 18 -1 20 4 37 3 9 5 19 4 22 -2 12 -3 14 -6 19 -2 3 -5 5
-5 5 -1 0 -2 1 -2 3 0 3 -24 3 -29 -1z"/>
</g>
</svg>
