<?xml version="1.0" standalone="no"?>
<!DOCTYPE svg PUBLIC "-//W3C//DTD SVG 20010904//EN"
 "http://www.w3.org/TR/2001/REC-SVG-20010904/DTD/svg10.dtd">
<svg version="1.0" xmlns="http://www.w3.org/2000/svg"
 width="1100.000000pt" height="2850.000000pt" viewBox="0 0 1100.000000 2850.000000"
 preserveAspectRatio="xMidYMid meet">
<metadata>
Created by potrace 1.15, written by Peter Selinger 2001-2017
</metadata>
<g transform="translate(0.000000,2850.000000) scale(0.500000,-0.500000)"
fill="#000000" stroke="none">
<path d="M1072 3817 c-1 0 -5 -1 -9 -2 -4 -1 -14 -2 -21 -3 -20 -3 -31 -10
-37 -24 -2 -7 -3 -11 -6 -41 -4 -37 -9 -75 -11 -79 -2 -4 -8 -10 -10 -10 0 0
-4 3 -7 6 -10 9 -25 21 -30 24 -2 1 -5 4 -7 6 -2 2 -6 5 -10 8 -4 3 -8 6 -10
8 -8 7 -12 9 -24 19 -7 5 -14 11 -15 11 -1 1 -6 5 -10 9 -4 4 -9 7 -9 7 -1 0
-3 1 -4 3 -2 1 -9 7 -16 12 -7 6 -15 12 -17 14 -3 2 -7 3 -16 3 -12 0 -13 0
-21 -8 -4 -4 -9 -10 -11 -15 -2 -4 -5 -8 -8 -9 -5 -3 -26 -3 -38 1 -13 4 -23
4 -36 -1 -26 -9 -50 -30 -74 -63 -13 -18 -18 -20 -70 -21 -56 -1 -61 -3 -59
-25 0 -10 0 -13 -2 -13 -2 0 1 -2 5 -4 5 -3 13 -9 18 -13 8 -8 9 -10 9 -17 0
-4 -1 -9 -3 -11 -2 -2 -3 -3 -2 -3 1 0 2 -5 3 -11 0 -12 2 -17 4 -17 1 0 2 1
1 2 -1 2 -1 2 0 1 3 -1 27 3 26 5 0 1 2 2 6 4 3 1 8 4 11 5 5 3 6 2 10 -2 3
-4 3 -4 0 -12 -2 -5 -5 -11 -8 -14 -2 -3 -4 -8 -4 -10 0 -3 -1 -8 -3 -13 -2
-5 -3 -11 -3 -14 0 -6 -4 -12 -15 -24 -4 -4 -8 -11 -10 -15 -2 -5 -4 -10 -5
-11 -3 -7 -2 -126 1 -134 6 -14 15 -19 38 -18 20 0 25 -4 25 -17 0 -8 -1 -10
-11 -21 -28 -27 -40 -30 -52 -15 -19 23 -31 30 -49 29 -10 -1 -12 0 -17 5 l-6
6 0 121 0 121 7 6 c3 4 8 7 10 7 3 0 3 2 2 18 l-1 18 5 0 c6 1 -13 4 -28 5
-21 1 -24 6 -21 27 2 19 1 28 -3 38 -7 14 -14 16 -48 16 -32 0 -42 -3 -49 -13
-5 -7 -11 -26 -11 -35 0 -12 -13 -19 -28 -16 -9 2 -14 8 -14 16 0 9 -6 28 -11
35 -9 13 -10 13 -120 13 -69 0 -100 0 -101 -2 0 -1 -1 -2 -2 -1 -2 1 -5 -15
-4 -26 1 -8 1 -9 -3 -9 -2 0 0 -1 5 -2 5 -1 11 -2 13 -2 5 -1 11 -7 11 -12 0
-4 0 -5 -15 -20 -9 -10 -9 -11 -9 -23 0 -12 0 -13 8 -18 12 -8 20 -9 57 -9
l34 1 6 -6 6 -6 -1 -179 c0 -199 -1 -187 13 -203 6 -7 23 -15 34 -15 6 0 15
-7 15 -12 0 -2 -8 -16 -12 -20 -1 -2 -2 -7 -2 -17 1 -14 1 -14 10 -24 10 -10
10 -11 10 -22 0 -13 -6 -21 -14 -21 -22 -1 -37 -4 -43 -11 -3 -3 -5 -6 -4 -7
0 0 1 -6 1 -11 1 -11 5 -18 18 -31 18 -18 23 -21 41 -24 7 -1 14 -2 17 -3 14
-2 20 -8 24 -20 6 -22 -8 -39 -29 -38 -16 1 -24 7 -36 29 -3 6 -5 9 -5 8 0 -2
-4 -2 -15 -2 l-15 1 -4 -10 c-4 -9 -4 -14 -4 -61 0 -48 0 -51 5 -57 2 -4 6 -8
8 -9 6 -3 27 -8 27 -6 0 1 6 2 13 2 11 0 14 -1 18 -5 6 -4 6 -6 6 -20 0 -14 0
-16 -6 -20 -4 -4 -7 -5 -18 -5 -7 0 -13 1 -13 2 0 2 -21 -3 -27 -6 -2 -1 -6
-5 -8 -9 -5 -7 -5 -7 -5 -95 0 -82 0 -88 4 -96 5 -12 11 -18 27 -27 17 -10 20
-13 20 -25 0 -9 -1 -11 -6 -16 -9 -9 -19 -9 -45 2 -23 9 -27 9 -48 4 -10 -3
-23 -5 -40 -5 -24 -1 -40 -4 -40 -7 0 -1 -1 -2 -2 -1 -4 2 -14 -15 -15 -27 -2
-22 19 -36 49 -33 13 1 15 1 19 -3 8 -7 7 -18 -2 -26 -4 -3 -8 -6 -9 -6 -3 0
-18 -16 -19 -21 -3 -13 -3 -18 -1 -20 1 -1 3 -5 4 -9 3 -11 8 -25 34 -95 13
-37 24 -67 24 -68 0 -4 6 -6 21 -6 l16 0 7 10 c5 8 8 10 12 10 5 0 11 -4 11
-8 1 -1 2 -8 4 -15 6 -23 10 -28 27 -28 11 0 15 2 29 16 8 9 16 14 26 19 19 9
57 27 90 42 8 4 23 11 33 16 19 9 37 22 42 32 5 9 15 13 32 13 8 0 19 1 23 3
16 5 35 15 35 17 0 1 2 -1 6 -4 l5 -7 1 -46 c1 -46 2 -50 8 -59 4 -6 25 -19
34 -21 6 -1 15 -9 13 -11 -1 -1 0 -2 0 -2 1 0 2 -6 1 -13 -2 -14 -7 -23 -15
-23 -6 0 -29 -14 -33 -20 -7 -10 -8 -18 -8 -61 0 -34 1 -44 3 -50 4 -9 14 -21
18 -21 2 0 3 -1 3 -2 0 -2 10 -3 50 -3 42 0 59 1 88 7 23 4 35 2 37 -7 1 -5
21 -33 23 -33 1 0 3 -2 6 -4 7 -6 26 -6 33 1 5 6 13 24 14 34 0 3 1 6 1 6 0 0
1 2 1 4 1 7 7 12 13 14 25 5 31 5 47 -5 24 -14 29 -14 65 4 16 8 31 17 34 20
5 5 12 18 21 40 4 10 9 13 21 11 11 -1 20 -3 24 -4 4 -2 19 1 20 4 0 1 0 7 1
14 0 7 1 13 2 13 1 1 1 2 -1 2 -2 0 -4 1 -5 3 0 1 -5 4 -9 7 -5 2 -13 7 -18
12 -10 9 -30 19 -45 22 -13 3 -23 8 -25 14 -1 3 -2 4 -2 3 0 -1 -3 -2 -6 -2
-14 2 -15 0 -14 -10 1 -6 3 -14 6 -18 6 -11 1 -23 -9 -23 -3 0 -15 -3 -29 -7
-13 -4 -27 -7 -32 -7 -4 0 -8 0 -9 -1 -1 0 -5 2 -8 5 -5 5 -6 7 -6 22 0 13 -1
16 -6 24 -7 10 -24 19 -36 18 -14 0 -19 6 -19 22 -1 11 0 13 5 18 4 4 9 6 15
7 14 1 29 10 35 19 l6 9 0 78 c1 81 1 84 -8 98 -1 3 -5 11 -8 17 l-5 10 4 13
c6 17 6 18 7 34 1 22 2 22 28 23 20 1 23 2 29 6 4 3 10 6 13 8 17 8 24 37 13
48 -3 3 -6 5 -7 5 0 -1 -6 -1 -12 -1 -11 -1 -13 -2 -19 -8 -4 -3 -10 -8 -13
-10 -7 -5 -25 -5 -30 -1 -3 2 -9 3 -18 3 -13 0 -15 -1 -24 -6 -5 -4 -9 -7 -9
-8 0 -3 -12 -7 -21 -7 -12 0 -21 4 -24 12 -4 8 -4 24 0 32 6 12 27 15 43 6 13
-6 36 -6 43 2 2 2 4 3 5 3 2 0 11 19 13 27 1 3 2 46 2 95 l0 89 5 9 5 9 5 -5
c14 -13 38 -13 63 -1 22 10 31 10 52 0 l16 -8 84 -1 84 0 10 5 c8 4 13 9 19
17 11 14 16 18 23 18 12 0 19 -15 12 -25 -2 -3 -9 -8 -16 -13 -7 -5 -13 -9
-13 -11 0 -1 -2 -6 -5 -12 -2 -5 -5 -15 -6 -22 -1 -7 -2 -14 -2 -16 -3 -19 2
-34 18 -49 15 -14 18 -20 18 -37 0 -16 -4 -25 -12 -28 -35 -13 -43 -18 -50
-31 -2 -3 -6 -17 -10 -30 -11 -39 -22 -73 -34 -103 -15 -36 -16 -54 -4 -62 4
-3 6 -3 16 2 7 3 15 8 18 10 8 6 21 11 28 11 5 0 11 -8 11 -15 0 -5 -4 -19 -9
-36 -4 -14 -9 -21 -18 -24 -17 -6 -38 2 -40 16 0 2 -1 4 -3 5 -1 2 -2 4 -2 5
0 2 -5 3 -15 3 -20 0 -21 -1 -20 -24 2 -22 1 -24 -20 -34 -18 -8 -17 -7 -37
-37 -8 -12 -20 -28 -26 -36 -18 -23 -21 -30 -20 -43 1 -9 3 -13 7 -17 9 -9 27
-23 35 -27 8 -4 33 -11 38 -10 7 1 11 0 16 -6 5 -5 7 -10 9 -33 1 -5 2 -11 3
-12 2 -2 19 -2 28 0 6 1 35 21 47 32 2 1 5 4 8 6 37 27 110 97 144 140 5 7 10
12 11 13 1 1 3 4 5 7 2 3 8 11 13 17 26 31 88 136 88 149 0 10 -4 20 -9 25 -4
3 -10 9 -14 14 -8 6 -9 9 -9 16 0 14 4 17 26 17 11 0 21 1 24 2 14 4 15 4 22
-5 3 -4 7 -12 8 -16 7 -33 13 -55 17 -65 3 -8 14 -24 17 -24 0 0 3 -1 6 -2 3
-1 5 -1 5 -1 0 1 4 -2 8 -6 6 -7 7 -9 7 -18 0 -6 -2 -19 -4 -28 -2 -9 -4 -21
-4 -26 0 -12 8 -34 16 -46 9 -12 16 -14 44 -13 l20 1 6 -6 c5 -5 6 -7 6 -17 0
-10 -1 -12 -7 -18 -3 -4 -7 -7 -8 -7 -4 0 -13 -11 -14 -17 -4 -19 -3 -22 4
-37 10 -21 17 -26 36 -31 3 -1 8 -2 10 -2 3 0 7 -1 9 -4 4 -4 4 -4 -2 -19 -11
-26 -10 -30 13 -65 11 -17 21 -31 23 -32 5 -4 30 -4 37 0 16 9 20 11 28 10 10
0 21 -5 29 -14 7 -7 7 -7 21 -7 18 0 20 2 34 31 16 34 43 69 73 95 8 7 15 13
16 14 3 3 38 28 47 34 6 3 12 7 14 8 15 10 29 35 30 52 0 15 -14 40 -22 40 -2
0 -3 1 -3 2 0 1 -7 5 -16 9 l-17 8 -26 0 c-14 0 -27 1 -29 2 -1 1 -6 10 -11
20 -10 21 -14 26 -28 35 -16 11 -38 27 -43 32 -8 7 -24 14 -44 18 -10 2 -20 5
-21 6 -2 2 -6 12 -9 23 -4 11 -8 21 -9 23 -2 2 -3 4 -3 5 0 1 -10 13 -20 23
-2 2 -10 12 -19 22 -8 10 -17 21 -19 24 -4 3 -12 15 -27 37 -2 3 -5 6 -5 7 -2
2 -28 44 -28 46 0 1 -1 3 -2 4 -3 3 -5 7 -18 32 -10 19 -18 38 -34 77 l-15 38
4 5 5 5 64 1 c63 1 63 1 73 6 6 3 15 7 20 9 10 3 11 3 21 -1 6 -2 15 -6 20 -8
7 -4 13 -5 29 -6 32 -1 43 5 53 28 11 24 10 42 -3 64 -6 9 -7 14 -7 24 -1 19
6 24 33 22 2 0 6 -3 9 -6 6 -5 6 -6 6 -24 0 -23 4 -36 13 -48 4 -5 8 -11 8
-14 5 -21 15 -35 29 -41 10 -4 17 -3 35 6 24 11 41 33 41 51 0 18 -9 30 -48
64 -8 7 -16 14 -18 16 -2 2 -17 15 -34 30 -75 65 -69 60 -87 61 -17 0 -20 -3
-20 -18 0 -6 1 -11 2 -11 0 0 1 -1 1 -1 -1 -3 4 -13 6 -14 4 -2 2 -24 -2 -28
-8 -7 -21 -4 -25 6 -4 9 -4 20 0 23 4 3 8 21 6 31 -1 10 -6 19 -11 19 -2 0 -4
1 -5 2 -2 3 -12 8 -25 12 -11 4 -12 4 -21 1 -5 -2 -11 -5 -14 -7 -6 -5 -11
-19 -12 -33 -1 -17 -5 -20 -28 -29 -27 -10 -31 -12 -46 -32 -7 -10 -15 -20
-18 -23 -2 -3 -6 -10 -7 -15 -3 -11 -2 -30 1 -32 1 -1 2 -6 2 -12 0 -15 -8
-23 -23 -23 -15 0 -23 8 -23 23 0 6 1 11 3 12 1 0 2 1 1 2 0 0 -1 9 -2 18 -1
9 -3 20 -4 25 -2 5 -2 12 -1 26 5 50 3 108 -3 119 -6 10 -15 14 -34 16 -25 1
-28 4 -28 25 0 14 0 16 6 20 5 5 7 5 24 5 33 0 44 9 46 37 1 19 2 110 1 113
-1 2 -3 5 -5 7 -1 2 -3 4 -3 5 0 2 -13 8 -20 10 -6 1 -7 2 -7 6 0 4 2 5 11 7
5 2 12 4 15 6 5 4 12 19 10 23 -1 1 0 2 1 2 2 0 5 2 7 5 l4 5 43 0 43 0 12 6
c7 3 13 7 15 9 6 7 19 15 25 15 7 0 12 -3 23 -13 4 -4 12 -9 18 -12 l12 -5 57
0 c50 1 59 2 68 5 48 17 71 44 60 72 -4 11 -15 23 -25 28 -8 4 -22 18 -25 24
-2 2 -8 8 -15 14 -6 5 -24 21 -39 34 -16 13 -33 28 -38 32 -5 4 -12 10 -14 13
-4 3 -7 4 -17 4 -22 0 -29 -6 -38 -32 -3 -10 -6 -15 -10 -18 -9 -6 -14 -1 -24
25 -10 27 -11 36 -7 46 4 11 4 24 -1 27 -5 3 -12 2 -18 -1 -2 -2 -4 -3 -4 -2
0 4 -26 -27 -45 -52 -1 -2 -9 -12 -16 -22 -8 -11 -21 -29 -30 -41 -21 -29 -24
-30 -62 -32 -15 -1 -33 -3 -40 -5 -17 -4 -24 -5 -37 -2 -17 4 -33 4 -39 -1 -5
-4 -6 -9 -7 -22 -1 -4 -2 -8 -3 -8 -1 -1 -1 -2 1 -2 7 0 8 -11 2 -18 -9 -11
-26 1 -21 15 1 2 3 3 5 3 2 0 2 1 1 2 -1 0 -2 4 -3 8 -1 13 -2 17 -7 22 -8 7
-16 8 -51 8 l-31 0 -7 6 c-3 3 -5 6 -5 6 1 1 5 8 9 16 3 8 8 18 9 21 6 11 32
78 40 99 4 12 9 24 10 27 1 3 4 9 5 14 2 6 13 17 17 17 2 0 30 13 34 17 3 2 4
5 4 18 l-1 15 -9 10 c-5 5 -9 11 -9 13 0 8 -11 32 -18 38 -6 7 -22 13 -39 16
-9 2 -8 2 -21 5 -11 3 -11 3 -21 1 -10 -2 -19 -7 -26 -16 -11 -14 -15 -17 -24
-17 -9 0 -17 6 -17 13 0 6 -7 25 -11 32 -4 5 -15 10 -23 10 -3 -1 -11 -1 -18
-2 -18 -2 -25 0 -34 7 -13 11 -23 16 -35 17 -7 1 -12 1 -13 0z m-243 -206 c4
-2 11 -9 17 -19 18 -25 27 -32 54 -41 12 -4 37 -3 53 2 8 3 10 3 12 1 6 -5 6
-11 1 -42 -4 -23 -5 -34 -4 -45 0 -8 1 -22 1 -32 0 -17 -1 -19 -8 -34 -4 -9
-9 -18 -11 -21 -4 -6 -8 -19 -13 -40 -2 -8 -4 -20 -6 -27 -1 -7 -3 -19 -4 -27
-1 -8 -3 -21 -6 -29 -7 -21 -7 -30 2 -48 12 -26 10 -36 -13 -49 -21 -11 -26
-19 -40 -65 -6 -17 -12 -35 -13 -39 -2 -3 -3 -8 -3 -11 l0 -5 -5 6 -6 5 -1
180 c-1 160 -1 181 -4 187 -6 11 -13 18 -31 27 -11 5 -14 11 -13 23 1 8 3 12
6 14 21 16 26 24 29 42 3 17 -11 39 -32 51 -11 7 -15 12 -15 21 0 15 9 20 32
19 9 0 18 -2 21 -4z m-148 -21 c5 -5 6 -7 6 -16 0 -15 -8 -23 -23 -23 -9 0
-11 1 -16 7 -9 8 -9 23 -1 32 9 9 24 9 34 0z m-270 -13 c3 -3 6 -5 7 -5 1 0 1
-2 0 -5 0 -3 -1 -4 -3 -4 -1 1 -1 0 1 -2 2 -2 2 -3 1 -2 -2 1 -3 -1 -3 -5 0
-10 -8 -16 -20 -16 -14 0 -20 6 -20 20 0 13 4 18 19 21 7 2 12 3 13 3 0 0 3
-2 5 -5z m331 -72 c6 -6 5 -23 -1 -29 -6 -6 -22 -6 -28 1 -7 6 -7 21 -1 28 7
8 23 8 30 0z m457 -27 c5 -5 6 -7 6 -16 0 -15 -8 -23 -23 -23 -9 0 -11 1 -16
7 -9 8 -9 23 -1 32 9 9 24 9 34 0z m-842 -7 c2 -1 7 -7 11 -11 8 -10 20 -22
22 -22 2 0 9 -5 15 -12 9 -9 6 -20 -9 -28 -6 -4 -29 -3 -35 1 -3 2 -3 3 -1 3
2 0 2 1 1 2 -3 1 -7 13 -6 15 1 0 0 1 -2 2 -2 0 -9 2 -15 4 -16 4 -20 10 -20
25 0 13 3 19 12 23 7 3 21 2 27 -2z m-126 -19 c4 -6 4 -24 -1 -30 -7 -9 -27
-9 -34 0 -5 6 -5 24 0 30 7 9 27 9 35 0z m1524 -41 c3 -5 3 -5 0 -10 -2 -3 -5
-5 -7 -5 -2 0 -5 2 -7 5 -3 5 -3 5 0 10 2 3 5 5 7 5 2 0 5 -2 7 -5z m115 -14
c6 -6 5 -19 -1 -24 -11 -10 -34 -11 -42 -2 -7 7 0 21 13 26 12 4 26 4 30 0z
m-1119 -3 c10 -9 3 -26 -10 -26 -8 0 -15 7 -15 15 0 13 16 20 25 11z m-383
-18 c4 -6 1 -25 -5 -32 -6 -6 -23 -6 -29 1 -6 7 -6 21 0 28 3 3 5 5 6 4 0 0 2
0 5 1 5 3 15 6 18 5 1 -1 4 -4 5 -7z m656 -6 c5 -5 6 -7 6 -17 0 -10 -1 -12
-6 -17 -5 -5 -7 -6 -17 -6 -10 0 -12 1 -17 6 -6 6 -6 7 -6 19 1 17 5 21 24 21
9 0 11 -1 16 -6z m-772 -5 c3 -3 4 -7 4 -14 0 -13 -6 -19 -19 -19 -13 0 -19 6
-19 19 0 7 1 11 4 14 7 8 23 8 30 0z m907 -32 c5 -2 11 -6 15 -9 4 -3 9 -6 11
-6 2 0 3 -1 3 -3 0 -2 1 -3 2 -3 1 0 3 -3 5 -7 3 -8 3 -17 3 -145 -1 -135 -1
-137 3 -146 4 -9 12 -18 21 -25 9 -7 12 -13 12 -25 0 -12 -4 -19 -14 -26 -18
-13 -27 -27 -28 -49 -1 -8 -2 -11 -7 -15 l-6 -6 -46 0 c-44 0 -48 0 -66 -5
-11 -3 -22 -5 -26 -5 -4 0 -15 2 -26 5 -18 5 -21 5 -85 5 -70 0 -78 -1 -87
-10 -7 -7 -14 -23 -14 -33 0 -7 -7 -25 -10 -25 -2 0 -28 15 -32 18 -9 8 -37
18 -50 18 -7 0 -14 7 -17 16 -1 4 -3 8 -4 8 -1 0 -2 1 -2 3 0 5 -11 16 -22 22
-7 4 -14 7 -15 7 -1 0 -5 3 -8 6 -8 9 -8 24 1 32 5 6 7 7 16 7 12 0 14 -2 24
-18 4 -7 9 -14 10 -16 8 -10 26 -14 44 -8 6 3 17 4 23 5 16 0 33 5 39 11 5 4
9 14 11 28 0 4 3 9 5 11 2 2 4 4 5 6 1 3 1 3 1 0 0 -2 6 -6 14 -10 13 -6 16
-6 25 -5 18 1 24 6 78 60 30 30 40 40 57 61 20 23 37 44 41 48 2 3 5 8 8 11 5
6 23 31 29 39 7 11 22 31 24 33 4 5 15 22 25 39 16 27 17 42 3 63 -10 16 -14
29 -8 36 4 6 5 6 15 2z m-448 -27 c7 -6 7 -19 1 -25 -6 -7 -19 -7 -25 -1 -7 6
-7 19 -1 25 6 7 19 7 25 1z m738 -10 c4 -3 9 -14 9 -19 0 -2 -2 -7 -6 -11 -7
-8 -22 -9 -29 -1 -7 6 -7 21 -1 28 6 6 21 8 27 3z m-1077 -13 l-5 -5 -4 4 -5
5 4 4 5 5 4 -4 5 -5 -4 -4z m-101 -97 c5 -7 4 -25 -2 -31 -3 -3 -7 -5 -9 -5
-3 0 -9 -1 -13 -1 -6 -1 -9 0 -14 3 l-6 5 3 14 c2 7 5 15 7 16 7 8 27 7 34 -1z
m1166 0 c10 -9 3 -26 -10 -26 -8 0 -15 7 -15 15 0 13 16 20 25 11z m-920 -31
l6 -6 -1 -128 0 -129 7 -16 c4 -9 9 -22 12 -29 11 -23 9 -39 -6 -58 -9 -12 -9
-28 0 -42 12 -18 27 -25 56 -25 14 0 16 0 21 -6 5 -5 6 -7 6 -17 0 -10 -1 -12
-6 -17 -8 -9 -24 -9 -36 0 -5 3 -11 7 -12 9 -3 4 -30 1 -33 -4 -8 -11 -9 -23
-8 -76 0 -27 1 -56 2 -64 1 -14 1 -15 -4 -20 -3 -3 -5 -5 -6 -5 0 0 -5 -1 -11
-2 -6 -1 -15 -3 -21 -3 -5 -1 -12 -2 -14 -3 -3 -1 -5 0 -9 4 l-6 5 0 33 c0 21
-1 34 -2 35 -1 1 -2 2 -1 3 1 2 -12 17 -15 16 -3 -1 -19 3 -20 5 -1 1 -2 1 -2
-1 0 -6 -13 -5 -18 0 -5 5 -5 15 0 20 5 5 18 6 18 1 0 -3 1 -3 2 -2 1 2 18 6
20 5 2 -1 14 11 15 14 0 2 1 4 2 6 1 2 1 26 1 53 l-1 50 6 6 c5 5 8 6 14 5 10
0 24 5 29 12 3 5 7 28 4 28 -2 0 -9 15 -11 23 -3 7 -2 20 1 21 2 0 -3 20 -7
28 -2 5 -17 13 -22 12 -1 -1 -5 2 -8 5 l-6 6 0 31 c-1 35 -1 58 0 148 l0 63 6
6 6 6 23 0 c22 0 23 0 29 -6z m171 -3 c1 0 5 -3 8 -6 5 -5 6 -7 6 -18 0 -11
-1 -13 -6 -18 -6 -6 -7 -6 -18 -6 -11 0 -12 0 -18 6 -5 5 -6 7 -6 17 0 14 3
20 12 24 5 2 8 2 22 1z m638 -30 c5 -5 6 -7 6 -17 0 -10 -1 -12 -6 -17 -5 -5
-7 -6 -17 -6 -10 0 -12 1 -17 6 -5 5 -6 7 -6 17 0 10 1 12 6 17 5 5 7 6 17 6
10 0 12 -1 17 -6z m-1027 -24 c5 -5 6 -7 6 -16 0 -15 -8 -23 -23 -23 -9 0 -11
1 -16 7 -9 8 -9 23 -1 32 9 9 24 9 34 0z m1094 -110 c7 -3 12 -13 12 -25 0
-19 -9 -28 -28 -28 -19 0 -28 9 -28 28 0 24 19 34 44 25z m-1044 -99 c3 -5 3
-5 0 -10 -2 -3 -5 -5 -7 -5 -2 0 -5 2 -7 5 -3 5 -3 5 0 10 2 3 5 5 7 5 2 0 5
-2 7 -5z m1364 -1 c7 -6 7 -19 1 -25 -6 -7 -19 -7 -25 -1 -7 6 -7 19 -1 25 6
7 19 7 25 1z m-362 -17 c36 -12 45 -19 45 -36 0 -10 -1 -12 -6 -17 -5 -6 -7
-6 -18 -6 -15 1 -57 14 -63 20 -3 3 -4 7 -4 19 0 14 0 16 6 20 7 7 22 7 40 0z
m115 -145 c5 -5 6 -22 2 -46 -3 -15 -7 -20 -16 -22 -26 -5 -35 13 -22 45 10
24 25 34 36 23z m-676 -111 l-5 -5 -4 4 -5 5 4 4 5 5 4 -4 5 -5 -4 -4z m-477
5 c3 -4 4 -8 4 -23 0 -20 1 -24 15 -38 10 -11 18 -21 27 -34 3 -5 8 -12 12
-16 22 -24 28 -34 28 -48 0 -23 -11 -29 -47 -27 -4 0 -10 10 -10 16 0 8 -16
37 -26 48 -13 13 -18 23 -18 35 0 5 -1 21 -3 35 -4 31 -2 43 7 51 6 6 6 6 11
1z m1046 -38 c5 -5 6 -7 6 -16 0 -15 -8 -23 -23 -23 -9 0 -11 1 -16 7 -9 8 -9
23 -1 32 9 9 24 9 34 0z m-714 -57 c6 -4 6 -6 6 -20 0 -14 0 -16 -6 -20 -4 -4
-7 -5 -18 -5 -11 0 -14 1 -18 5 -6 4 -6 6 -6 20 0 14 0 16 6 20 4 4 7 5 18 5
11 0 14 -1 18 -5z m-187 -101 c5 -5 5 -11 0 -16 -10 -10 -27 5 -16 16 4 4 12
4 16 0z m-136 -12 c5 -4 5 -5 -1 -11 -6 -6 -9 -6 -14 0 -3 5 -3 5 0 10 5 6 9
6 15 1z m1238 -14 c8 -9 2 -21 -10 -23 -13 -2 -18 8 -9 20 5 8 13 9 19 3z
m-1353 -26 c10 -9 3 -26 -10 -26 -8 0 -15 7 -15 15 0 13 16 20 25 11z m1050
-31 c11 -7 29 -36 30 -49 3 -24 -20 -26 -53 -5 -15 10 -18 13 -20 22 -2 10 1
26 6 30 8 7 28 8 37 2z m-594 -46 c12 -12 3 -31 -13 -31 -11 0 -18 7 -18 18 0
11 7 18 18 18 6 0 9 -1 13 -5z m509 -49 c3 -3 9 -18 10 -25 1 -1 2 -7 4 -14 9
-28 5 -36 -22 -51 -12 -5 -25 -12 -29 -15 -17 -11 -32 -4 -39 18 -8 21 -5 40
6 46 3 2 7 3 8 3 3 0 22 9 27 13 3 2 6 7 8 10 6 9 16 19 20 19 1 0 5 -2 7 -4z
m537 -30 c10 -10 3 -30 -10 -30 -8 0 -17 9 -17 18 0 14 17 22 27 12z m107 0
c5 -5 5 -15 0 -20 -9 -9 -24 -2 -24 10 0 8 6 14 14 14 3 0 8 -2 10 -4z m-1103
-21 c4 -4 5 -6 5 -24 0 -11 1 -27 2 -35 2 -16 -1 -24 -9 -24 -6 0 -10 6 -16
25 -6 19 -8 20 -25 19 -8 0 -10 -1 -21 -13 -14 -14 -21 -17 -33 -10 -10 6 -11
27 -3 37 l6 6 16 -1 c9 -1 18 -1 19 0 3 2 4 2 8 3 1 0 7 5 14 11 11 10 13 11
22 11 8 0 11 -1 15 -5z m1015 -52 c9 -8 2 -25 -11 -25 -15 0 -20 16 -9 27 7 7
10 7 20 -2z m-976 -69 c5 -6 5 -8 0 -13 -5 -6 -8 -6 -13 0 -3 5 -3 5 1 11 6 7
7 7 12 2z m62 -61 c3 -6 -1 -16 -16 -38 -17 -25 -18 -26 -39 -26 -25 -1 -29 2
-30 21 -2 27 6 35 47 44 12 2 23 5 25 6 5 2 11 -1 13 -7z m-227 -6 c3 -5 3 -5
0 -10 -2 -3 -5 -5 -7 -5 -2 0 -5 2 -7 5 -3 5 -3 5 0 10 2 3 5 5 7 5 2 0 5 -2
7 -5z"/>
<path d="M918 2583 c-4 -2 -6 -5 -6 -7 0 -1 -1 -2 -2 -2 -1 0 -3 -5 -5 -10 -3
-9 -3 -11 0 -16 4 -8 15 -20 18 -20 1 0 7 -2 13 -5 13 -6 32 -8 41 -4 3 2 5 2
5 1 0 0 2 2 4 6 7 11 5 22 -7 36 -13 14 -19 19 -32 23 -15 4 -23 4 -29 -2z"/>
<path d="M1745 1923 c-4 -4 -5 -7 -5 -18 0 -13 1 -15 6 -21 5 -6 6 -7 18 -6
15 0 19 2 23 10 6 11 1 27 -10 36 -8 6 -25 6 -32 -1z"/>
</g>
</svg>
