<?xml version="1.0" standalone="no"?>
<!DOCTYPE svg PUBLIC "-//W3C//DTD SVG 20010904//EN"
 "http://www.w3.org/TR/2001/REC-SVG-20010904/DTD/svg10.dtd">
<svg version="1.0" xmlns="http://www.w3.org/2000/svg"
 width="1100.000000pt" height="2850.000000pt" viewBox="0 0 1100.000000 2850.000000"
 preserveAspectRatio="xMidYMid meet">
<metadata>
Created by potrace 1.15, written by Peter Selinger 2001-2017
</metadata>
<g transform="translate(0.000000,2850.000000) scale(0.500000,-0.500000)"
fill="#000000" stroke="none">
<path d="M656 3827 c-9 -4 -13 -9 -43 -47 -15 -19 -28 -35 -29 -36 -1 -1 -6
-7 -11 -14 -6 -7 -11 -14 -12 -15 -1 -1 -4 -5 -7 -9 -3 -4 -7 -8 -9 -11 -2 -2
-4 -5 -5 -6 0 -1 -5 -4 -9 -7 l-8 -5 -244 -1 c-269 -1 -251 0 -261 -13 -9 -12
-9 -22 -1 -50 15 -53 25 -61 76 -61 24 0 29 -1 36 -4 5 -2 11 -4 14 -5 3 -1 9
-3 12 -4 4 -2 14 -3 23 -4 24 -2 30 -7 30 -26 0 -19 -6 -24 -30 -26 -16 -1
-31 -6 -37 -11 -1 -2 -4 -7 -6 -11 -4 -8 -4 -14 -5 -150 0 -161 -1 -152 17
-178 9 -14 10 -17 10 -27 0 -10 -1 -13 -10 -27 -18 -26 -17 -21 -16 -145 1
-141 1 -127 0 -205 -2 -87 -1 -88 29 -96 5 -1 11 -2 11 -1 2 2 17 5 41 10 24
6 34 0 34 -19 0 -14 -3 -18 -22 -24 -32 -10 -46 -13 -53 -11 -7 2 -29 -6 -32
-12 -3 -6 -1 -21 6 -34 9 -18 9 -21 -2 -41 -5 -9 -10 -21 -12 -28 -2 -7 -5
-16 -7 -20 -2 -5 -4 -10 -4 -10 0 -3 -12 -15 -17 -19 -8 -5 -22 -5 -34 0 -5 2
-9 5 -10 6 -3 4 -28 12 -35 11 -16 -3 -26 -18 -24 -38 3 -19 27 -57 37 -57 2
0 3 -1 3 -2 0 -1 2 -2 3 -3 2 -1 6 -3 8 -6 3 -5 3 -6 0 -23 -4 -23 -4 -30 2
-45 11 -27 19 -35 44 -42 15 -5 21 -10 21 -18 0 -7 -4 -17 -9 -23 -4 -4 -9
-21 -9 -29 0 -5 9 -31 19 -52 14 -30 38 -38 65 -21 4 2 9 5 12 6 4 2 14 12 38
37 8 8 17 14 38 25 34 17 43 23 58 37 6 6 16 16 22 21 13 12 17 23 19 44 2 18
8 25 25 25 11 0 17 -4 28 -15 9 -9 14 -11 27 -12 10 -1 25 5 28 10 1 1 2 1 4
0 1 -1 4 -4 6 -6 7 -5 15 -26 16 -39 0 -6 -3 -19 -8 -31 -5 -10 -4 -18 3 -39
5 -15 5 -23 0 -38 -9 -25 -7 -39 10 -52 10 -9 18 -18 18 -21 0 -3 -8 -12 -18
-21 -15 -11 -21 -29 -15 -43 4 -10 14 -22 18 -22 2 0 3 -1 3 -2 0 -2 0 -1 20
-3 14 -1 18 -1 32 4 17 5 21 8 31 20 4 6 13 30 13 37 0 3 3 7 6 10 5 5 7 6 16
6 6 0 13 -1 17 -3 4 -3 11 -4 21 -4 15 0 16 0 21 6 6 5 6 6 6 29 0 20 1 24 4
28 5 6 15 5 21 -1 4 -4 4 -6 3 -16 -3 -21 -2 -37 4 -45 3 -5 6 -8 7 -8 1 0 2
-3 2 -6 2 -7 -5 -22 -9 -22 -2 0 -3 -1 -3 -2 0 -2 -26 -10 -32 -10 -5 0 -19
-6 -27 -10 -7 -5 -11 -13 -13 -27 -2 -10 -2 -12 4 -24 14 -30 31 -37 68 -30
39 8 46 16 58 64 5 24 6 37 1 41 -8 9 -9 28 -2 42 9 22 9 19 9 113 0 56 -1 92
-2 96 -11 32 -11 36 -4 59 7 22 1 39 -18 50 -6 5 -22 4 -25 0 -1 -1 -2 -2 -3
-1 -1 1 -3 0 -3 -2 -1 -1 -3 -3 -5 -4 -2 -1 -5 -4 -8 -9 -7 -11 -13 -14 -23
-14 -12 0 -19 6 -19 16 -1 16 18 56 27 59 2 0 12 2 22 4 26 5 31 6 37 11 3 3
8 6 10 8 2 2 7 9 11 16 12 24 14 25 24 31 5 3 11 6 13 6 6 -1 8 -1 11 -4 3 -2
6 -8 9 -12 2 -5 5 -10 7 -12 6 -6 13 -25 13 -36 0 -11 -2 -16 -15 -29 -4 -4
-8 -11 -10 -15 -2 -5 -4 -10 -5 -11 -1 -2 -2 -31 -2 -65 0 -51 1 -62 3 -68 4
-9 14 -21 18 -21 2 0 3 -1 3 -2 0 -2 1 -2 40 -3 32 -1 55 0 83 5 17 3 25 -4
25 -21 1 -15 -2 -20 -21 -32 -9 -6 -17 -12 -18 -13 -5 -7 -16 -11 -36 -12 -24
-2 -30 -4 -47 -18 -16 -13 -16 -13 -34 -26 -8 -6 -15 -12 -16 -12 0 -1 -2 -2
-3 -2 -5 0 -7 -7 -7 -22 0 -14 0 -14 8 -23 7 -7 9 -12 11 -22 3 -15 11 -35 13
-35 1 0 2 -1 2 -2 0 -1 1 -3 2 -5 1 -1 4 -4 6 -6 5 -7 11 -9 25 -9 l13 1 4 9
c2 6 4 14 4 19 0 11 4 17 14 19 15 3 22 -1 34 -20 6 -9 17 -15 29 -17 9 -1 15
1 67 19 13 5 28 10 35 12 13 5 14 7 13 26 -1 7 0 12 1 12 1 0 0 1 -2 3 -1 2
-4 3 -5 3 -1 0 -2 1 -2 2 0 1 -1 2 -3 2 -8 0 -12 23 -5 32 4 6 18 8 26 5 9 -4
11 -9 9 -29 0 -9 0 -19 1 -22 l1 -5 2 5 c1 2 2 4 3 3 1 -1 2 0 2 2 0 2 1 3 2
2 1 -1 3 0 4 1 2 2 5 3 7 4 6 1 23 10 23 12 0 4 9 12 17 16 12 6 23 16 27 28
9 21 12 25 20 34 9 10 17 25 21 42 1 6 6 18 11 27 4 8 10 23 12 32 4 15 5 18
14 25 9 7 9 8 10 19 1 20 0 21 -19 31 -10 5 -18 9 -18 10 -1 1 -3 2 -6 2 -3 0
-5 1 -4 2 0 1 -4 2 -11 4 -27 6 -34 10 -34 22 0 9 7 16 16 16 7 0 14 -4 24
-14 8 -8 16 -13 17 -12 1 1 2 0 3 -2 2 -3 29 -5 47 -2 9 1 21 2 27 3 13 2 40
10 45 15 3 3 7 10 8 16 3 13 3 25 1 29 -2 4 -2 6 0 13 2 5 3 11 2 18 -2 28 1
27 -88 28 -97 0 -113 -3 -129 -23 -18 -23 -27 -28 -35 -19 -5 6 -4 18 2 34 2
6 3 21 4 49 2 47 2 46 -19 69 -30 32 -36 40 -36 55 0 12 7 18 24 25 24 9 35 3
35 -18 0 -4 1 -9 3 -9 9 -6 15 -35 8 -41 -2 -2 -2 -5 0 -15 5 -26 9 -28 55
-27 29 1 34 2 40 5 8 5 18 15 18 19 0 1 1 2 2 2 1 0 3 4 6 10 5 13 11 17 26
17 15 0 21 -4 26 -17 3 -6 5 -10 6 -10 1 0 2 -1 2 -2 0 -4 10 -14 18 -19 7 -4
11 -4 77 -4 l70 0 6 -6 c3 -3 6 -7 5 -8 0 -1 1 -10 2 -21 3 -27 14 -49 23 -49
3 0 5 0 5 -1 0 -1 4 -3 8 -5 6 -3 9 -5 9 -9 1 -3 2 -6 3 -6 0 0 1 -6 1 -13 0
-10 2 -15 6 -23 10 -19 5 -34 -13 -34 -5 0 -9 1 -12 4 -2 2 -3 4 -2 4 0 0 0 1
-1 2 -1 0 -4 5 -6 9 -7 17 -18 25 -42 32 -19 6 -45 1 -58 -11 -2 -2 -6 -4 -9
-5 -11 -2 -17 -12 -18 -27 -1 -14 -1 -14 5 -20 17 -14 17 -24 2 -38 -17 -15
-39 -37 -39 -39 0 0 -2 -3 -5 -6 -4 -5 -6 -5 -18 -5 -22 0 -28 -4 -33 -19 -2
-7 -4 -15 -4 -16 0 -4 -9 -22 -13 -27 -3 -3 -13 -32 -13 -36 0 -1 -3 -7 -6
-12 -8 -13 -9 -32 -2 -37 5 -5 19 -4 33 1 8 3 18 4 38 5 33 1 54 6 74 18 9 6
35 32 51 51 16 19 20 21 38 18 26 -4 34 -2 50 13 15 14 19 16 31 16 19 0 28
-9 28 -28 0 -18 -8 -26 -36 -36 -13 -5 -21 -5 -48 -2 -28 3 -35 -2 -35 -25 l0
-12 19 -20 c10 -10 23 -25 30 -32 6 -7 15 -15 19 -18 18 -10 29 -18 31 -22 4
-7 19 -19 32 -26 20 -10 20 -10 20 -40 0 -19 1 -26 3 -31 9 -16 24 -21 47 -15
16 3 33 4 60 1 26 -2 37 3 52 27 11 15 15 17 36 16 2 0 9 -6 16 -13 l13 -13
14 -1 14 0 11 11 c13 15 20 25 30 44 21 43 17 87 -11 133 -11 18 -10 17 -31
38 -29 29 -40 37 -62 44 -18 6 -30 12 -36 18 -7 7 -15 13 -23 18 -4 3 -8 6 -9
7 -3 4 3 11 18 20 22 12 34 25 39 40 4 13 4 15 4 186 0 187 0 184 -11 196 -4
4 -27 16 -32 16 -2 0 -6 3 -9 6 -5 5 -6 7 -6 18 0 11 1 13 6 18 3 3 7 6 9 6 1
0 8 3 15 6 26 12 28 17 28 83 0 47 0 50 -5 66 -3 9 -7 20 -10 26 -3 5 -4 9 -3
9 1 0 2 3 4 8 4 13 7 15 20 15 8 0 15 -2 25 -7 17 -8 32 -8 35 -1 2 6 3 21 1
26 -1 2 -6 6 -11 9 -5 4 -10 8 -11 9 -1 1 -8 7 -16 13 l-13 10 -16 0 c-17 0
-23 -3 -20 -8 3 -5 -8 -19 -14 -20 -10 -1 -18 12 -12 19 8 9 12 13 13 12 0 -1
1 0 1 2 0 3 0 3 4 0 3 -2 4 -3 3 -1 -2 2 -3 7 -4 12 -1 12 -3 19 -6 20 -1 1 0
2 3 2 2 0 4 1 3 2 -3 5 9 7 63 8 54 1 55 1 66 6 13 6 22 14 22 19 0 1 1 3 2 3
2 1 14 46 14 54 0 4 -1 11 -3 16 -3 9 -5 11 -21 24 -4 4 -11 10 -15 13 -17 15
-25 17 -63 15 -15 -1 -18 3 -22 25 -1 9 -3 22 -3 27 -1 15 -6 34 -12 41 -2 3
-9 9 -15 12 -10 5 -12 6 -33 5 -20 0 -21 0 -25 4 -2 3 -4 6 -4 7 0 6 18 16 40
24 11 4 32 17 36 22 6 7 5 24 -2 38 -9 17 -9 25 2 45 4 10 8 18 8 20 0 2 3 8
7 13 4 6 7 11 7 12 0 1 2 3 4 5 6 7 9 18 9 36 0 10 2 18 4 23 5 10 5 30 0 38
-3 7 -3 7 -98 77 -26 19 -56 41 -75 55 -11 9 -14 10 -23 10 -18 1 -21 0 -38
-18 -19 -19 -23 -28 -27 -49 -3 -15 -4 -16 -12 -23 -5 -3 -5 -4 -4 -19 0 -12
0 -16 -2 -16 -3 0 1 -4 10 -9 6 -4 6 -5 6 -15 0 -9 -1 -12 -5 -16 -6 -6 -21
-6 -28 0 -7 7 -12 31 -7 34 6 4 -5 9 -20 11 -16 1 -28 -2 -33 -10 -4 -6 -7
-28 -5 -31 3 -4 2 -21 0 -27 -3 -8 -11 -11 -23 -11 -6 0 -12 0 -13 1 -7 5 -31
13 -46 15 -9 1 -19 4 -22 5 -15 8 -14 41 1 48 7 4 24 5 31 1 5 -3 22 -1 30 3
3 2 7 5 7 8 1 3 2 5 3 5 4 0 2 29 -2 37 -5 11 -11 15 -25 17 -9 1 -13 1 -24
-4 -13 -6 -30 -10 -39 -10 -12 0 -18 16 -10 25 4 6 30 17 37 15 0 0 1 1 1 2 0
1 2 2 3 2 5 0 16 13 20 22 2 4 6 12 8 17 3 6 5 11 5 13 1 2 3 0 8 -4 6 -6 7
-6 19 -5 6 1 13 1 15 2 5 1 14 7 13 10 -1 1 -2 4 -2 6 -3 16 -10 26 -22 29
-10 2 -21 -1 -27 -7 -5 -5 -8 -4 -16 1 -6 4 -38 15 -49 17 -17 3 -31 1 -39 -4
-7 -4 -8 -7 -12 -18 -2 -8 -3 -15 -2 -18 3 -9 -1 -15 -21 -36 -26 -26 -28 -27
-41 -27 -20 0 -28 17 -21 49 4 22 2 36 -8 48 -5 7 -16 14 -19 13 -1 0 -6 0
-12 0 -12 -1 -20 -7 -24 -19 -3 -13 -3 -126 1 -145 6 -28 13 -45 25 -56 12
-12 16 -19 12 -26 -5 -9 -11 -8 -30 5 -5 3 -11 7 -14 8 -3 2 -8 4 -13 6 -4 2
-8 3 -9 2 -2 -1 -19 8 -31 17 -17 12 -23 14 -48 9 -20 -4 -25 -2 -34 12 -8 11
-15 19 -18 19 -2 0 -3 1 -3 2 0 2 -5 4 -63 26 -29 11 -58 22 -65 25 -11 4 -16
5 -22 4 -12 -1 -16 -2 -17 -4 -1 0 -3 -1 -5 -1 -5 0 -8 -7 -8 -18 0 -11 0 -12
12 -24 12 -12 12 -12 12 -23 0 -7 -1 -12 -4 -15 -7 -9 -27 -9 -34 0 -5 6 -5
24 -1 29 4 5 4 25 0 32 -2 4 -14 15 -27 25 -31 23 -27 21 -37 29 -4 4 -9 7 -9
7 -1 0 -3 2 -6 4 -2 1 -5 4 -7 6 -14 11 -79 60 -84 63 -8 4 -24 4 -31 0z m18
-97 c3 -3 6 -8 7 -12 1 -6 10 -19 13 -17 1 1 2 0 3 -1 2 -3 12 -2 25 1 23 7
33 -1 33 -27 0 -15 0 -17 -6 -21 -8 -8 -27 -7 -39 1 -16 12 -36 13 -46 1 -12
-14 -23 -52 -21 -73 4 -39 4 -39 0 -44 -8 -9 -28 -9 -35 0 -5 6 -5 22 0 31 8
15 5 38 -6 49 -4 4 -6 11 -6 22 0 11 4 19 11 25 18 13 27 25 30 42 2 10 8 24
12 26 7 5 19 4 25 -3z m311 -99 c3 -3 3 -3 0 -6 -3 -3 -3 -3 -6 0 -3 2 -3 3
-1 6 4 4 4 4 7 0z m796 -10 c5 -8 1 -16 -8 -16 -9 0 -13 8 -8 16 2 3 5 5 8 5
3 0 6 -2 8 -5z m-1285 -63 c5 -6 5 -8 0 -32 -4 -18 -4 -27 -4 -124 0 -64 1
-106 2 -106 1 0 -1 -4 -5 -8 -6 -7 -8 -8 -11 -6 -3 1 -13 2 -24 2 -19 -1 -19
-1 -25 5 -5 5 -6 8 -5 14 2 25 -14 41 -46 44 -19 2 -25 9 -24 30 2 15 7 21 21
21 13 0 31 6 37 11 2 3 5 5 6 5 2 0 6 16 6 23 0 11 -5 22 -10 25 -3 1 -10 2
-16 2 -12 -1 -12 -1 -13 5 0 5 0 4 -1 -2 0 -16 -21 -25 -40 -18 -20 9 -20 45
0 54 19 7 40 -2 40 -18 1 -6 1 -7 1 -2 1 6 1 6 13 5 21 -1 27 8 26 37 -1 16
-1 16 5 22 4 4 8 6 10 5 3 0 10 1 16 3 29 8 36 9 41 3z m253 -1 c5 -8 1 -16
-8 -16 -9 0 -13 8 -8 16 2 3 5 5 8 5 3 0 6 -2 8 -5z m95 -10 l6 -6 0 -35 c0
-35 2 -49 8 -56 18 -22 22 -25 45 -25 9 0 22 1 29 2 8 1 20 1 27 0 18 -2 23
-6 23 -22 0 -17 -7 -22 -26 -21 -6 0 -29 12 -41 20 -18 12 -41 11 -50 -3 -9
-12 -6 -39 4 -39 2 0 3 -1 3 -2 0 -1 2 -2 4 -3 7 -2 16 -13 16 -20 0 -7 -9
-18 -16 -20 -2 -1 -4 -2 -4 -3 0 -1 -1 -2 -3 -2 -4 0 -12 -11 -16 -21 -2 -6
-3 -15 -3 -45 0 -38 2 -50 8 -50 2 0 2 -1 -1 -2 -2 0 -7 -3 -10 -5 -4 -3 -10
-4 -24 -5 -18 -1 -18 -1 -24 5 l-6 6 1 32 c0 36 -2 49 -10 60 -5 7 -25 22 -40
29 -4 3 -8 5 -7 5 1 2 10 3 15 3 2 0 4 1 4 2 0 1 6 4 13 8 9 4 14 9 18 14 l6
9 1 91 c1 51 0 92 0 92 -1 0 1 3 5 7 6 6 6 6 23 6 16 0 17 0 22 -6z m378 -12
c17 -13 22 -23 22 -43 0 -20 -7 -49 -14 -58 -3 -4 -6 -9 -6 -10 0 -1 -1 -2 -2
-2 -2 0 -11 -23 -10 -25 1 -1 -2 -5 -5 -8 -6 -6 -7 -6 -25 -6 -18 0 -19 0 -25
6 l-6 6 1 51 c1 50 1 51 6 60 3 6 6 9 6 9 1 -1 5 2 8 7 4 4 9 8 10 9 2 1 5 2
8 4 7 4 26 4 32 0z m-149 -19 c10 -9 3 -26 -10 -26 -8 0 -15 7 -15 15 0 13 16
20 25 11z m481 -45 c0 -15 1 -27 3 -34 2 -9 2 -19 0 -38 0 -3 -1 -5 -2 -5 -2
0 -5 -2 -7 -5 -5 -6 -5 -6 -21 -5 -17 1 -30 7 -34 14 -1 2 -5 8 -8 14 -7 11
-8 18 -5 31 1 4 4 18 6 30 5 30 6 31 37 33 l20 1 6 -6 6 -6 -1 -24z m259 30
c3 -5 3 -5 0 -10 -2 -3 -5 -5 -7 -5 -2 0 -5 2 -7 5 -3 5 -3 5 0 10 2 3 5 5 7
5 2 0 5 -2 7 -5z m-164 -13 c7 -3 11 -11 12 -24 3 -26 8 -36 28 -50 11 -7 17
-18 23 -44 6 -25 2 -38 -16 -42 -9 -2 -23 0 -28 5 -6 5 -14 24 -19 44 -5 21
-9 30 -10 28 -1 0 -3 0 -4 1 -4 3 -28 8 -31 6 -4 -3 -10 4 -10 11 0 7 12 52
16 59 2 3 8 7 17 9 5 1 14 -1 22 -3z m-972 -18 c4 -4 5 -7 5 -13 0 -13 -2 -26
-4 -27 -1 0 -2 -2 -2 -3 0 -2 -1 -3 -2 -2 -1 1 -2 0 -2 -1 0 -1 -3 -1 -6 -1
-4 1 -13 1 -20 2 -18 2 -25 8 -25 23 0 12 6 21 18 25 17 6 29 5 38 -3z m915
-51 c0 -3 -19 -3 -24 -1 -4 1 -2 2 10 2 7 0 14 -1 14 -1z m-891 -19 c2 -4 4
-11 4 -17 3 -27 5 -33 12 -42 4 -5 8 -8 9 -8 1 1 2 0 2 -1 -1 -2 0 -3 1 -3 2
1 2 -1 2 -3 -1 -2 -4 -4 -10 -5 -5 0 -11 -2 -14 -4 -5 -3 -38 -9 -50 -9 -6 0
-9 1 -12 5 -3 5 -3 6 0 12 2 4 9 10 16 15 16 10 20 16 22 26 1 4 2 10 3 14 2
4 3 9 2 12 0 5 6 14 9 14 0 0 2 -3 4 -6z m384 0 c16 -7 16 -43 0 -50 -13 -5
-31 -3 -39 3 -6 6 -6 6 -5 19 2 21 6 27 22 31 5 1 14 -1 22 -3z m248 -2 c7 -3
12 -13 12 -25 0 -19 -9 -28 -28 -28 -19 0 -28 9 -28 28 0 24 19 34 44 25z
m-319 -62 c5 -3 5 -5 4 -16 0 -18 -7 -25 -22 -25 -9 0 -11 1 -16 7 -12 11 -6
36 9 38 8 2 20 0 25 -4z m512 -34 c21 -11 27 -19 29 -33 1 -6 1 -14 0 -18 -1
-7 3 -25 8 -31 1 -3 6 -4 17 -4 l14 -1 7 14 c4 8 7 17 8 20 4 19 36 25 49 10
5 -5 8 -20 7 -26 -3 -10 -9 -22 -12 -25 -2 -2 -6 -5 -8 -8 -2 -3 -6 -6 -9 -7
-4 -2 -6 -5 -7 -8 -1 -9 0 -29 3 -32 1 -1 2 -3 2 -5 0 -1 1 -4 3 -5 4 -5 4
-14 -1 -19 -4 -4 -6 -4 -38 -3 -41 1 -46 3 -49 20 -3 20 -15 37 -27 40 -3 1
-6 1 -7 2 -1 0 -4 3 -8 6 l-6 6 1 32 c0 31 0 33 -6 54 l-6 22 4 4 c6 6 12 5
32 -5z m-1291 -11 c4 -4 5 -7 5 -15 0 -14 -6 -20 -20 -20 -14 0 -20 6 -20 20
0 14 6 20 20 20 8 0 11 -1 15 -5z m1195 -7 c5 -5 5 -15 0 -20 -9 -9 -24 -2
-24 10 0 8 6 14 14 14 3 0 8 -2 10 -4z m309 -16 c10 -9 3 -26 -10 -26 -8 0
-15 7 -15 15 0 13 16 20 25 11z m-1202 -6 c13 -3 16 -8 16 -25 0 -14 0 -16 -6
-20 -8 -7 -28 -7 -36 0 -5 4 -6 6 -7 21 -2 23 4 32 19 28 3 -2 9 -3 14 -4z
m676 -40 c0 -27 0 -27 -5 -32 -6 -4 -6 -5 -6 -21 0 -12 1 -17 3 -19 3 -4 3 -4
0 -4 -2 0 -3 1 -2 2 1 1 0 2 -1 2 -1 1 -2 8 -2 16 -1 13 -1 15 -4 15 -2 0 -4
0 -5 1 -1 1 -18 2 -37 1 -32 0 -36 0 -43 -4 -9 -5 -19 -16 -28 -29 -9 -14 -39
-14 -48 0 -4 6 -7 9 -12 15 -5 5 -4 10 3 18 4 4 9 6 43 16 14 5 22 10 31 24 5
6 13 14 19 17 5 4 10 7 11 8 4 5 29 11 49 12 l22 1 6 -6 6 -6 0 -27z m-506 21
c5 -8 1 -16 -8 -16 -9 0 -13 8 -8 16 2 3 5 5 8 5 3 0 6 -2 8 -5z m-272 -26
c16 -4 21 -8 29 -26 6 -14 13 -24 16 -22 1 1 2 0 2 -2 0 -2 2 -6 5 -10 l4 -6
1 -122 1 -122 -6 -6 -6 -6 -25 2 c-14 0 -30 1 -36 2 -14 0 -35 -6 -37 -12 -4
-9 -22 -10 -42 -1 -8 3 -16 5 -34 6 -28 2 -34 4 -49 15 -13 10 -19 22 -19 37
1 12 5 19 17 28 5 4 10 8 10 9 0 0 1 1 3 1 4 0 15 10 18 17 4 9 4 27 0 32 -1
2 -3 8 -4 13 -2 12 -10 30 -18 43 -4 6 -7 13 -7 17 0 7 6 14 13 14 2 0 4 0 5
0 1 0 4 1 7 1 13 1 26 10 39 27 11 13 44 12 48 -2 1 -5 1 -23 -1 -28 0 -4 -5
-8 -10 -12 -18 -12 -28 -35 -22 -51 2 -8 -2 -22 -9 -27 -10 -8 -20 -18 -20
-21 0 -2 -1 -3 -2 -3 -1 0 -2 -4 -3 -8 -3 -15 10 -32 32 -42 11 -6 13 -6 26
-5 8 1 16 2 19 2 6 1 22 9 22 11 0 1 1 2 3 2 4 0 12 11 16 21 3 7 3 18 3 81
-1 71 -1 73 -6 83 -3 7 -6 12 -12 15 -5 3 -10 7 -12 9 -2 2 -4 5 -6 6 -4 4 -3
28 1 35 6 9 23 11 46 5z m993 -40 c21 -9 20 -45 -2 -54 -10 -5 -28 -1 -34 6
-9 10 -9 32 0 42 7 8 24 11 36 6z m-866 -33 c7 -6 12 -23 13 -41 1 -16 1 -17
-4 -22 -5 -5 -10 -6 -21 -5 -13 1 -17 9 -18 30 -1 27 6 42 19 42 3 0 8 -2 11
-4z m711 -6 c9 -5 19 -13 29 -22 4 -3 10 -14 16 -24 8 -17 10 -20 19 -25 l10
-6 80 -1 c56 0 85 0 97 2 32 5 48 2 51 -9 2 -6 2 -6 3 -13 0 -3 3 -10 7 -16 9
-14 24 -45 32 -65 4 -10 4 -25 -1 -31 -6 -8 -26 -9 -34 -1 -1 1 -5 13 -7 26
-3 13 -6 25 -8 28 -4 9 -17 22 -26 28 -18 11 -14 11 -204 11 -199 0 -189 -1
-236 17 -16 6 -31 11 -33 11 -3 0 -4 1 -2 1 2 1 4 3 5 5 1 5 9 6 52 6 42 0 48
1 56 13 3 4 4 8 3 20 -1 44 -2 41 5 46 l6 5 36 0 c34 -1 37 -2 44 -6z m508
-27 c3 -5 3 -6 0 -9 -2 -2 -3 -4 -3 -6 0 -5 -4 -4 -9 3 -5 7 -5 7 -2 12 5 6 9
6 14 0z m-859 -27 c5 -5 6 -7 6 -17 l0 -12 -13 -12 c-18 -17 -19 -20 -19 -53
0 -3 -1 -7 -2 -9 -1 -2 -7 -14 -13 -27 -9 -21 -12 -25 -25 -37 -21 -21 -20
-13 -20 -136 0 -88 0 -108 3 -114 4 -10 15 -20 31 -28 15 -7 17 -7 31 -7 10 1
17 3 23 6 21 11 40 2 40 -18 0 -5 -1 -13 -3 -17 -5 -13 -4 -37 2 -46 15 -23
-22 -72 -39 -52 -5 5 -5 24 1 39 5 13 6 19 3 27 -4 12 -16 15 -32 9 -7 -3 -18
-23 -22 -41 -4 -13 -9 -19 -18 -19 -7 0 -16 6 -16 11 0 5 -13 28 -16 29 -2 0
-4 1 -4 2 0 1 -8 5 -13 5 -1 0 -3 2 -5 4 -2 1 -4 3 -6 3 -1 0 -5 5 -10 11 -4
5 -12 13 -19 17 -13 9 -17 15 -17 28 0 12 5 17 25 31 18 14 24 39 13 61 -5 9
-19 22 -30 27 -7 4 -19 12 -24 17 -1 1 -3 2 -4 2 0 0 -3 3 -5 7 -8 10 -7 27 1
35 6 6 8 7 20 6 19 -1 29 2 38 9 10 9 10 12 10 122 l-1 102 6 6 c6 6 7 6 18 5
7 -1 13 -3 17 -6 4 -3 9 -4 18 -4 7 0 12 -1 12 -2 0 -1 1 -1 4 0 4 2 4 2 5 -2
1 -4 3 -1 5 10 2 8 4 17 4 19 0 2 3 6 6 9 5 5 7 6 17 6 10 0 12 -1 17 -6z
m-723 -49 c3 -5 3 -5 0 -10 -2 -3 -5 -5 -7 -5 -2 0 -5 2 -7 5 -3 5 -3 5 0 10
2 3 5 5 7 5 2 0 5 -2 7 -5z m515 -34 c27 -8 30 -11 30 -26 0 -17 -7 -23 -25
-21 -2 0 -14 4 -25 8 -12 4 -25 8 -29 8 -22 2 -20 37 3 42 5 1 12 0 46 -11z
m743 -37 c3 -5 5 -25 1 -27 -2 -1 1 -22 5 -29 5 -9 15 -12 35 -12 17 1 17 1
23 -5 6 -6 6 -7 6 -28 0 -21 0 -22 -6 -28 l-6 -6 -88 1 -88 0 -25 -7 -26 -7
-25 7 -26 7 -36 0 -36 -1 -6 6 c-6 6 -6 7 -6 28 0 21 0 22 6 28 l6 6 87 -1
c85 0 88 0 99 4 15 6 21 11 28 25 9 18 36 41 51 44 3 1 6 2 7 2 5 1 16 -3 20
-7z m278 -4 c7 -1 15 -12 15 -20 0 -19 -47 -35 -61 -21 -5 5 -7 21 -3 29 5 10
31 16 49 12z m-671 -16 c5 -5 5 -11 0 -16 -10 -10 -27 5 -16 16 4 4 12 4 16 0z
m733 -25 c1 -3 -1 -9 -2 -9 -1 0 -3 1 -4 3 -3 2 -3 3 -1 6 4 4 5 4 7 0z m-877
-43 c5 -5 6 -7 6 -17 0 -10 -1 -12 -6 -17 -5 -5 -7 -6 -17 -6 -10 0 -12 1 -17
6 -5 5 -6 7 -6 17 0 10 1 12 6 17 5 5 7 6 17 6 10 0 12 -1 17 -6z m-239 -3 c2
-2 3 -5 2 -10 -1 -8 -22 -48 -27 -54 -8 -8 -32 -8 -40 1 -10 9 -9 33 1 41 14
11 49 27 56 26 2 0 6 -2 8 -4z m1044 -18 c12 -7 14 -33 3 -43 -8 -9 -32 -9
-40 0 -9 8 -9 32 0 41 7 7 27 8 37 2z m-1299 -9 c9 -9 2 -24 -10 -24 -12 0
-18 13 -11 24 4 5 15 6 21 0z m-123 -13 c6 -4 6 -6 6 -20 0 -14 0 -16 -6 -20
-4 -4 -7 -5 -18 -5 -11 0 -14 1 -18 5 -6 4 -6 6 -6 20 0 14 0 16 6 20 4 4 7 5
18 5 11 0 14 -1 18 -5z m1203 -59 c6 -5 6 -6 6 -23 0 -10 0 -20 2 -23 1 -2 2
-6 2 -8 0 -5 8 -24 10 -24 0 0 1 -11 0 -25 -1 -14 0 -25 1 -25 0 0 -2 -3 -6
-6 -3 -3 -9 -6 -11 -6 -5 0 -18 -13 -18 -18 0 -1 -1 -2 -2 -1 -1 1 -2 0 -2 -2
0 -1 -2 -3 -3 -4 -2 0 -6 -3 -9 -6 -11 -10 -20 -14 -32 -14 -14 0 -17 2 -25
13 -11 16 -22 26 -33 29 -15 4 -204 5 -215 0 -10 -4 -20 3 -19 14 0 2 1 14 1
27 0 22 0 23 6 29 l6 6 33 0 c38 0 40 1 61 19 9 8 13 10 18 10 5 0 9 -2 18
-10 22 -19 20 -19 88 -20 69 0 70 0 79 17 4 8 4 12 4 27 0 18 0 19 6 24 5 5 7
6 17 6 10 0 12 -1 17 -6z m-1019 -7 l6 -6 -1 -62 c0 -74 0 -76 20 -97 13 -15
14 -16 14 -29 0 -13 -1 -14 -14 -29 -7 -7 -12 -13 -12 -14 0 -1 -2 -4 -4 -7
-2 -2 -7 -10 -11 -18 -14 -28 -26 -35 -45 -25 -10 5 -14 18 -16 47 -1 12 -2
24 -3 27 -5 12 -19 18 -41 19 -21 1 -28 5 -32 21 -2 6 -2 10 0 17 4 15 11 19
32 20 34 1 47 15 42 46 -1 8 -1 23 0 33 0 10 1 26 1 35 0 15 0 16 6 22 l6 6
23 0 c22 0 23 0 29 -6z m170 -19 c7 -3 12 -13 12 -25 0 -24 -26 -52 -48 -52
-20 0 -27 17 -17 44 12 33 27 42 53 33z m-409 -2 c5 -6 5 -8 1 -14 -4 -6 -13
-5 -17 2 -6 11 8 21 16 12z m1373 -58 c31 -16 39 -37 18 -44 -12 -4 -53 -4
-60 0 -12 7 -16 24 -9 39 7 17 26 18 51 5z m45 -94 c12 -8 10 -39 -3 -49 -3
-3 -8 -4 -16 -4 -20 0 -28 8 -28 27 0 17 6 24 22 28 7 2 20 1 25 -2z m-149 -9
c3 -3 3 -3 0 -6 -3 -3 -3 -3 -6 0 -3 2 -3 3 -1 6 4 4 4 4 7 0z m-804 -11 c5
-5 5 -9 -6 -31 -4 -8 -7 -16 -7 -17 0 -1 -3 -4 -6 -7 -6 -5 -6 -5 -11 -1 -5 3
-5 4 -4 16 0 9 2 17 6 25 6 12 11 17 23 19 0 0 3 -2 5 -4z m328 -6 c10 -9 3
-26 -10 -26 -8 0 -15 7 -15 15 0 13 16 20 25 11z m719 -5 c21 -9 20 -45 -2
-54 -10 -5 -28 -1 -34 6 -9 10 -9 32 0 42 7 8 24 11 36 6z m-1529 -53 c6 -6 7
-16 1 -21 -10 -9 -26 -3 -26 10 0 13 16 20 25 11z m86 -36 c2 -3 9 -21 10 -27
0 -1 4 -9 8 -17 7 -15 7 -16 4 -21 -5 -8 -10 -7 -40 10 -5 3 -13 5 -16 5 -10
0 -24 -7 -34 -17 -12 -11 -16 -13 -26 -14 -18 -1 -25 6 -25 26 0 18 7 23 35
24 22 1 23 1 23 3 0 1 2 2 5 2 5 0 13 5 23 14 12 11 28 17 33 12z m1315 -9
c15 -8 14 -41 -1 -48 -7 -4 -35 -4 -47 -1 -4 1 -7 2 -8 1 0 0 -1 2 -1 4 0 3 1
5 2 5 0 0 1 1 1 2 0 0 3 9 8 18 8 17 10 20 23 23 6 1 17 -1 23 -4z m125 -10
c12 -12 3 -31 -13 -31 -11 0 -18 7 -18 18 0 11 7 18 18 18 6 0 9 -1 13 -5z
m-1157 -7 c5 -6 5 -12 0 -18 -7 -8 -22 -2 -22 9 0 11 15 17 22 9z m-88 -40 c5
-5 5 -11 0 -16 -10 -10 -27 5 -16 16 4 4 12 4 16 0z m-318 -55 c7 -7 20 -16
28 -20 14 -8 14 -9 21 -23 13 -25 24 -33 50 -37 15 -2 21 -9 21 -23 0 -20 -9
-33 -28 -41 -8 -3 -9 -3 -20 0 -7 2 -19 6 -27 10 -9 4 -16 7 -17 7 -3 0 -10
11 -21 33 -12 25 -24 40 -49 58 -11 8 -13 14 -11 31 1 14 7 18 25 18 l14 0 14
-13z m1468 -1 c5 -5 5 -11 0 -16 -10 -10 -27 5 -16 16 4 4 12 4 16 0z m-525
-31 c37 -12 41 -31 13 -55 -20 -17 -31 -20 -40 -11 -4 4 -4 6 -3 16 0 7 1 20
1 29 0 14 1 18 5 21 4 5 6 5 24 0z m-403 -96 c12 -5 18 -21 14 -35 -3 -12 -6
-15 -16 -22 -5 -3 -13 -10 -19 -15 -19 -17 -22 -20 -33 -20 -9 0 -11 1 -16 6
-6 6 -6 8 -7 20 0 19 5 31 19 37 6 3 11 7 16 15 11 15 26 20 42 14z m-94 -10
c3 -7 3 -8 1 -10 -2 -2 -3 -4 -3 -5 0 -4 -9 -2 -14 3 -10 8 -6 20 6 20 5 0 7
-1 10 -8z m529 -95 c10 -9 3 -26 -10 -26 -8 0 -15 7 -15 15 0 13 16 20 25 11z
m551 -28 c3 -2 7 -7 9 -11 3 -6 3 -8 0 -19 -6 -25 -13 -33 -27 -32 -11 1 -16
8 -20 27 -3 16 0 28 7 35 7 6 24 6 31 0z m63 -1 c5 -3 7 -5 7 -8 0 -3 2 -6 8
-9 4 -3 8 -6 10 -7 1 -2 6 -5 11 -7 14 -7 16 -10 16 -27 0 -14 0 -16 -6 -20
-4 -4 -7 -5 -18 -5 -19 0 -23 4 -26 28 -2 19 -5 28 -8 32 -2 2 -4 7 -4 11 -1
4 -2 7 -4 7 -1 0 0 2 2 4 4 5 4 5 12 1z"/>
</g>
</svg>
