<?xml version="1.0" standalone="no"?>
<!DOCTYPE svg PUBLIC "-//W3C//DTD SVG 20010904//EN"
 "http://www.w3.org/TR/2001/REC-SVG-20010904/DTD/svg10.dtd">
<svg version="1.0" xmlns="http://www.w3.org/2000/svg"
 width="1100.000000pt" height="2850.000000pt" viewBox="0 0 1100.000000 2850.000000"
 preserveAspectRatio="xMidYMid meet">
<metadata>
Created by potrace 1.15, written by Peter Selinger 2001-2017
</metadata>
<g transform="translate(0.000000,2850.000000) scale(0.500000,-0.500000)"
fill="#000000" stroke="none">
<path d="M538 3819 c-9 -5 -12 -8 -17 -17 l-5 -11 0 -160 1 -160 -6 -6 -6 -6
-229 1 c-159 0 -231 0 -236 -2 -15 -4 -24 -16 -25 -32 -1 -6 10 -18 16 -18 1
0 4 -1 6 -1 9 -2 21 -2 23 1 5 4 22 3 27 -3 6 -5 7 -23 2 -27 -1 -2 -2 -6 -1
-14 2 -14 4 -18 12 -24 5 -4 8 -4 113 -4 l108 0 10 5 c12 5 16 10 25 29 7 16
11 18 23 18 14 0 29 -8 37 -20 11 -17 16 -22 27 -27 10 -5 12 -5 36 -5 l26 1
6 -6 6 -6 -1 -146 c0 -163 -1 -157 14 -170 14 -13 28 -9 50 12 17 17 37 16 55
-1 10 -11 27 -17 43 -16 24 1 98 19 128 30 36 15 52 26 61 46 l6 11 1 97 c0
105 0 110 -10 121 -6 5 -27 15 -34 15 -12 0 -17 24 -7 33 3 4 7 5 14 5 9 0 13
-2 29 -13 16 -13 18 -13 128 -13 l99 1 5 -5 c2 -4 6 -6 7 -6 2 0 3 -1 2 -2 -2
-3 9 -13 18 -15 13 -4 19 -4 20 -3 2 4 15 2 19 -2 6 -6 4 -16 -5 -34 -4 -8 -7
-17 -8 -21 -1 -5 -2 -8 -2 -9 0 -1 -1 -5 -2 -10 -2 -11 -3 -12 -17 -23 -15
-10 -15 -11 -21 -23 l-5 -10 0 -71 c0 -60 0 -72 3 -78 4 -9 14 -21 18 -21 2 0
3 -1 3 -2 0 -2 11 -3 59 -3 50 0 83 3 121 11 10 2 21 5 24 5 25 5 62 17 85 28
23 11 35 22 42 37 l6 11 0 93 c0 51 -1 104 -2 117 l-2 24 7 6 c6 5 8 5 23 5
11 0 20 1 25 3 9 4 20 10 22 14 2 2 16 9 19 9 3 0 16 -7 21 -11 7 -7 33 -6 35
1 0 1 1 3 1 4 0 1 1 4 3 7 2 4 4 12 4 17 2 19 9 25 27 25 18 0 25 -6 27 -25 0
-5 2 -12 3 -14 1 -2 3 -6 3 -8 1 -6 9 -14 18 -18 7 -4 15 -4 106 -4 108 0 115
1 136 12 32 16 47 44 37 67 -4 10 -30 37 -73 76 -9 9 -21 20 -26 24 -12 11
-37 34 -56 50 -9 8 -32 29 -53 47 -56 50 -54 48 -69 48 -14 0 -23 -4 -31 -16
-2 -4 -5 -8 -7 -10 -1 -2 -6 -10 -12 -18 -5 -8 -10 -15 -11 -16 -1 -1 -3 -4
-5 -7 -2 -3 -4 -7 -5 -8 -1 -1 -7 -9 -13 -17 -27 -40 -29 -44 -25 -65 5 -23 5
-22 0 -27 -2 -2 -4 -4 -4 -3 0 0 -4 0 -9 -1 -6 -1 -13 -3 -17 -3 -4 -1 -12 -3
-19 -5 -7 -1 -24 -3 -39 -4 l-27 -1 -6 6 -6 6 1 98 1 98 5 7 c3 4 9 9 16 12
14 7 33 25 40 40 5 10 11 25 11 29 1 5 -6 22 -10 25 -4 3 -7 5 -22 7 -2 1 -9
0 -16 -2 -7 -2 -15 -3 -17 -2 -8 1 -28 9 -31 11 -2 1 -3 2 -3 1 0 -1 -1 -1 -2
0 -5 4 -21 7 -49 9 -15 1 -33 3 -39 3 -6 1 -33 3 -60 5 -27 2 -54 4 -61 5 -85
7 -88 7 -96 5 -11 -3 -20 -11 -25 -22 -4 -9 -4 -13 -4 -164 0 -154 0 -160 7
-164 1 -1 0 -2 -3 -3 -2 -1 -4 -2 -4 -3 0 -2 -7 -6 -13 -7 -19 -2 -22 -5 -21
-23 0 -13 0 -14 -4 -15 -5 0 -5 0 0 -1 8 0 12 -6 12 -17 0 -13 -6 -19 -19 -19
-13 0 -19 6 -19 19 0 11 4 17 12 17 5 1 5 1 0 1 -4 1 -4 2 -4 15 1 9 0 15 -2
17 -4 5 -19 7 -67 7 -63 0 -65 -1 -83 -33 -7 -12 -11 -15 -21 -15 -5 0 -9 2
-12 5 -7 7 -6 18 3 40 7 16 7 16 8 52 0 34 0 36 -4 45 -8 15 -31 22 -39 12
-10 -11 -11 -19 -11 -45 0 -11 -6 -17 -19 -17 -13 0 -19 6 -19 19 0 8 1 11 8
19 13 16 16 30 10 51 -3 13 1 28 10 32 4 2 12 4 20 4 15 1 24 3 31 8 6 4 13
17 13 24 0 3 3 9 6 14 3 6 6 9 6 8 0 -3 21 10 31 19 12 11 18 21 24 38 4 12 5
15 3 21 -2 4 -3 9 -2 10 0 0 -1 1 -2 1 0 0 -2 3 -4 6 -1 4 -6 8 -14 11 -21 11
-52 7 -68 -9 -19 -19 -37 -18 -58 3 -7 8 -16 15 -19 17 -3 1 -8 3 -10 4 -3 2
-57 8 -104 11 -10 1 -20 1 -23 2 -3 0 -14 1 -25 2 -11 1 -21 2 -23 2 -2 0 -12
1 -23 2 -19 1 -20 1 -31 -4z m724 -125 c1 0 5 -3 8 -6 5 -5 6 -7 6 -18 0 -11
-1 -13 -6 -18 -6 -6 -7 -6 -18 -6 -11 0 -12 0 -18 6 -5 5 -6 7 -6 17 0 14 3
20 12 24 5 2 8 2 22 1z m-640 -35 c4 -2 7 -6 9 -14 3 -10 3 -11 0 -21 -4 -12
-11 -16 -25 -17 -12 0 -22 4 -25 12 -4 8 -4 24 0 32 6 12 26 16 41 8z m66 -34
c-4 -5 -5 -5 -8 -2 -5 4 -5 7 -1 11 4 4 4 4 8 0 l5 -5 -4 -4z m607 -116 c4 -4
5 -7 5 -15 0 -14 -6 -20 -20 -20 -14 0 -20 6 -20 20 0 14 6 20 20 20 8 0 11
-1 15 -5z m-496 -52 c19 -8 13 -35 -7 -35 -20 0 -26 27 -7 35 8 4 6 3 14 0z
m352 -3 c13 0 19 -6 19 -20 0 -14 -6 -20 -20 -20 -8 0 -11 1 -15 5 -6 5 -13
20 -13 25 0 5 10 12 15 11 2 0 8 -1 14 -1z m-422 -93 c7 -7 7 -19 0 -26 -7 -8
-23 -7 -28 1 -8 14 -1 30 15 30 6 0 9 -1 13 -5z m-85 -42 c4 -1 8 -5 10 -7 1
-2 11 -8 21 -14 24 -11 28 -16 28 -32 0 -20 -3 -23 -34 -30 -20 -5 -22 -6 -31
-26 -4 -7 -10 -17 -13 -22 -6 -8 -7 -9 -7 -25 0 -12 1 -17 3 -19 7 -6 0 -20
-10 -20 -10 0 -17 14 -10 20 2 2 3 6 2 19 0 17 0 18 -11 31 -5 5 -6 8 -6 18 0
11 1 13 6 18 3 3 7 6 9 6 2 0 4 1 5 1 0 0 4 1 8 2 4 1 8 2 9 3 2 1 4 2 6 2 3
-1 6 2 10 10 9 14 8 23 -4 47 -6 11 -6 14 -2 18 3 4 3 4 11 0z"/>
</g>
</svg>
