<?xml version="1.0" standalone="no"?>
<!DOCTYPE svg PUBLIC "-//W3C//DTD SVG 20010904//EN"
 "http://www.w3.org/TR/2001/REC-SVG-20010904/DTD/svg10.dtd">
<svg version="1.0" xmlns="http://www.w3.org/2000/svg"
 width="1100.000000pt" height="2850.000000pt" viewBox="0 0 1100.000000 2850.000000"
 preserveAspectRatio="xMidYMid meet">
<metadata>
Created by potrace 1.15, written by Peter Selinger 2001-2017
</metadata>
<g transform="translate(0.000000,2850.000000) scale(0.500000,-0.500000)"
fill="#000000" stroke="none">
<path d="M354 3828 c-12 -4 -21 -13 -27 -25 -4 -9 -4 -14 -5 -67 0 -49 0 -58
3 -67 4 -12 13 -23 25 -29 16 -9 19 -17 14 -39 -1 -5 -3 -19 -3 -31 -1 -26 -1
-28 -19 -45 -9 -10 -15 -18 -17 -24 -4 -12 -3 -34 2 -43 1 -4 3 -7 2 -8 -1 0
-1 1 -1 2 0 2 -2 1 -4 -2 -2 -2 -5 -4 -6 -3 -1 0 -3 0 -5 -2 -1 -2 -3 -2 -3
-1 -1 1 -38 17 -83 35 -45 18 -89 35 -97 39 -25 10 -45 5 -51 -14 -5 -15 -5
-443 0 -458 4 -12 11 -20 25 -29 14 -8 16 -12 16 -23 0 -11 -2 -15 -16 -23 -6
-4 -13 -10 -16 -14 -12 -13 -12 -12 -12 -167 0 -137 0 -142 4 -155 5 -15 12
-24 27 -31 14 -7 57 -7 91 0 34 7 38 8 65 38 l7 8 15 0 c15 0 45 6 60 13 7 3
17 1 17 -3 0 -1 1 -4 3 -5 3 -4 3 -9 -4 -23 -2 -5 -4 -9 -4 -10 0 -1 -1 -2 -2
-4 0 -2 -1 -6 -2 -9 -1 -3 -2 -6 -2 -7 0 -1 -1 -4 -2 -7 -5 -20 -8 -28 -12
-34 -12 -17 -13 -23 -13 -73 0 -48 2 -61 9 -70 2 -2 3 -4 3 -5 0 -2 1 -4 3 -5
5 -5 11 -17 12 -28 2 -16 7 -32 13 -43 7 -13 8 -21 2 -27 -7 -7 -16 -5 -23 3
-4 4 -7 8 -7 9 0 4 -13 20 -20 25 -14 9 -34 11 -67 7 -9 -1 -18 -2 -19 -2 -2
0 -4 -1 -5 -2 -1 -1 -3 -2 -4 -2 -6 0 -18 -10 -24 -19 -10 -17 -18 -21 -44
-26 -18 -4 -35 -4 -49 -1 -11 2 -22 7 -24 10 -1 1 -5 4 -11 8 -19 12 -34 10
-44 -6 -5 -8 -8 -23 -5 -28 1 -2 6 -14 12 -27 5 -13 17 -42 27 -65 10 -23 25
-60 35 -83 46 -110 51 -120 61 -129 10 -10 26 -14 37 -9 23 10 41 23 55 41 12
14 18 20 38 30 9 5 21 11 28 15 7 4 19 10 28 15 9 5 20 11 25 14 5 2 15 8 22
12 14 7 60 32 80 44 29 17 55 31 58 32 4 2 5 6 4 11 0 0 1 1 2 1 1 0 3 4 4 10
2 9 3 10 6 8 2 -1 4 -1 5 -1 0 1 7 2 14 2 21 1 32 8 49 30 2 4 10 12 16 19 7
7 15 18 19 25 4 6 9 14 11 16 6 4 15 4 20 -1 5 -5 5 -12 -1 -44 -2 -9 -3 -23
-3 -30 0 -14 -2 -52 -3 -59 -3 -15 9 -40 26 -56 46 -44 96 -61 143 -49 16 4
46 17 46 20 0 1 1 2 3 2 1 0 9 7 17 15 43 40 64 93 64 155 0 31 -4 56 -16 98
-1 4 -3 9 -3 12 0 3 -1 5 -1 6 -1 1 -1 3 0 5 2 6 14 -8 43 -55 31 -48 35 -53
46 -58 17 -8 40 -2 46 12 1 4 5 13 8 20 3 7 6 14 6 15 0 3 2 4 6 3 1 0 1 1 -1
3 -2 2 -2 3 2 2 2 -1 4 -1 4 1 0 1 2 1 5 1 3 0 5 0 5 1 0 1 1 2 3 2 1 0 6 4
10 9 4 5 12 13 19 17 6 5 11 10 12 10 0 1 8 8 18 16 17 13 33 27 62 52 6 5 16
13 21 17 6 5 16 14 23 20 7 7 21 19 31 27 10 9 20 18 23 20 3 3 9 8 13 12 4 4
16 14 26 23 10 9 20 18 22 20 12 11 44 40 62 57 49 47 58 56 61 64 5 11 11 18
23 27 l6 5 4 -8 c5 -9 5 -31 -1 -92 -7 -74 -6 -81 17 -82 6 0 12 -1 13 -1 0 0
3 0 6 2 7 4 9 3 14 -1 9 -9 1 -20 -15 -21 -13 -1 -19 -7 -32 -31 -13 -25 -16
-39 -13 -53 4 -23 8 -37 13 -52 10 -31 6 -44 -14 -50 -27 -8 -37 -16 -50 -42
-11 -22 -18 -29 -33 -36 -16 -7 -32 -9 -72 -8 -23 1 -37 0 -42 -1 -9 -3 -21
-15 -23 -23 -3 -11 -11 -21 -16 -21 -5 0 -9 3 -10 9 -6 30 -19 42 -48 44 -9 0
-34 2 -55 4 -42 4 -49 3 -62 -5 -18 -12 -21 -48 -5 -69 5 -6 21 -16 30 -18 2
0 8 -1 13 -3 5 -1 10 -3 12 -3 2 0 11 -3 20 -7 64 -22 99 -41 120 -66 23 -26
36 -75 39 -146 1 -34 5 -47 14 -50 4 -1 11 -2 16 -2 5 1 9 0 9 -1 0 -1 1 0 2
3 1 2 3 7 5 11 3 6 5 14 5 24 0 3 2 8 6 11 5 5 7 6 17 6 10 0 12 -1 17 -6 4
-3 6 -8 6 -11 0 -3 1 -8 3 -11 2 -3 3 -6 2 -6 -1 0 1 -3 3 -8 6 -10 18 -17 31
-16 18 0 68 12 100 25 24 9 65 31 67 35 0 1 1 2 2 2 1 0 6 3 11 6 13 10 19 23
21 48 1 19 1 21 7 25 3 3 7 5 10 5 7 0 31 8 39 13 13 8 46 48 46 55 0 1 2 7 5
13 8 17 4 33 -9 47 -12 12 -14 16 -14 28 0 9 1 11 6 16 3 3 8 6 10 6 6 0 26 8
34 14 3 2 8 8 10 12 5 9 14 49 20 90 2 14 5 27 5 30 1 3 2 16 4 30 2 14 5 39
7 55 6 51 8 62 12 111 2 26 5 64 5 84 0 21 1 39 3 42 2 7 4 25 7 83 1 13 2 29
2 36 0 7 1 23 2 36 1 13 1 33 2 44 1 11 1 32 2 47 1 15 2 35 2 44 0 9 1 36 2
59 1 23 2 46 2 51 0 5 1 23 1 40 1 31 1 32 -5 43 -3 6 -8 14 -12 18 -14 15
-13 26 1 39 13 10 20 26 21 48 1 21 3 23 28 34 9 4 16 8 17 8 0 1 1 2 2 2 3 0
21 13 30 21 9 8 12 15 12 26 0 14 -4 21 -21 36 -8 8 -18 17 -22 20 -3 3 -11
10 -18 16 -6 5 -13 12 -16 14 -2 2 -12 11 -21 19 -9 8 -19 18 -23 21 -4 3 -13
11 -20 18 -8 7 -18 16 -24 21 -6 6 -12 12 -15 14 -9 8 -17 15 -29 26 -29 27
-34 30 -40 33 -9 3 -22 4 -30 1 -11 -4 -23 -20 -30 -37 -3 -9 -7 -18 -8 -19
-2 -2 -13 -8 -24 -12 -18 -8 -22 -10 -34 -23 -21 -21 -23 -34 -12 -63 5 -13 9
-35 9 -49 0 -16 -4 -22 -17 -24 -16 -3 -28 10 -35 38 -5 20 -15 35 -28 43 -9
5 -9 5 -46 5 l-37 0 -14 -7 c-11 -5 -16 -7 -25 -7 -9 0 -14 2 -25 7 -13 7 -15
7 -35 7 -40 0 -49 -12 -43 -56 2 -12 0 -18 -6 -22 -10 -7 -28 -4 -33 5 -3 6
-2 22 2 29 5 7 4 26 -1 39 -2 5 -4 11 -4 13 -1 1 -2 3 -4 3 -1 0 -1 1 0 2 7 4
37 81 38 94 0 1 2 4 5 7 5 4 25 50 29 68 2 6 17 20 25 22 27 7 64 50 61 71 -1
12 -7 22 -16 27 -8 5 -12 5 -35 1 -14 -2 -17 -2 -24 1 -8 3 -21 12 -24 15 -3
3 -25 10 -44 14 -11 2 -27 6 -34 7 -7 2 -18 4 -24 4 -25 1 -49 -18 -69 -55 -6
-12 -14 -23 -17 -25 -15 -11 -28 -26 -38 -43 -12 -23 -17 -27 -30 -27 -9 0
-11 1 -16 6 -9 9 -9 19 2 45 4 12 10 25 11 29 5 12 9 15 24 18 13 3 28 9 30
13 1 2 2 28 1 29 -1 0 -6 4 -12 8 -6 5 -16 13 -23 19 -38 34 -82 29 -91 -10
-1 -5 -4 -29 -7 -54 -5 -41 -12 -93 -14 -106 -2 -12 -5 -30 -6 -37 -1 -10 -13
-79 -20 -113 -3 -14 -5 -27 -6 -30 0 -3 -3 -14 -5 -26 -5 -22 -4 -33 1 -46 2
-4 4 -7 5 -8 2 -2 8 -19 8 -23 0 -1 -1 -3 -2 -3 -1 0 -2 -2 -3 -4 -2 -5 -18
-13 -23 -10 -4 2 -8 12 -8 19 0 13 -7 20 -44 48 -43 32 -46 33 -72 29 -24 -3
-26 -2 -29 18 0 4 -1 9 -2 12 -1 3 -2 7 -2 9 -2 9 -11 19 -28 32 -36 26 -41
29 -49 29 -17 0 -20 -2 -40 -22 -27 -27 -37 -39 -38 -42 -1 -1 -3 2 -6 6 l-6
9 1 100 0 100 5 7 c3 4 5 7 6 7 1 0 6 3 12 6 19 11 33 29 42 53 4 11 3 18 -3
30 -5 11 -22 21 -38 22 -8 0 -115 9 -270 21 -9 1 -14 0 -21 -3z m979 -125 c3
-3 3 -3 0 -6 -3 -3 -3 -3 -6 0 -3 2 -3 3 -1 6 4 4 4 4 7 0z m-43 -121 c6 -6 6
-13 1 -18 -13 -11 -30 4 -19 18 4 5 13 5 18 0z m-900 -137 c6 -7 6 -22 -1 -28
-5 -6 -22 -7 -26 -2 -1 2 -4 3 -5 3 -2 0 -7 5 -11 11 -8 12 -11 16 -7 14 1 0
2 0 3 2 1 3 12 3 16 0 2 0 3 0 4 2 2 6 21 5 27 -2z m124 -77 c5 -6 5 -12 0
-18 -7 -8 -22 -2 -22 9 0 11 15 17 22 9z m412 -45 c3 -1 4 -3 4 -8 0 -8 -14
-64 -31 -122 -8 -25 -14 -48 -14 -51 -1 -3 -2 -6 -3 -5 -1 1 -6 -4 -11 -9 l-9
-10 -14 0 c-9 0 -14 1 -15 3 0 1 -1 0 -1 -2 0 -3 -3 -7 -6 -9 l-5 -4 -7 5 c-8
5 -23 31 -26 42 -2 7 -1 17 3 26 4 8 28 13 39 7 7 -4 28 1 34 7 7 9 8 14 8 53
0 37 0 37 5 46 3 4 8 9 10 9 6 2 31 19 31 21 0 2 1 2 8 1z m660 -4 c3 -4 5 -8
4 -11 -1 -6 4 -22 6 -22 1 0 2 -1 2 -3 0 -4 20 -13 32 -14 14 -2 20 -7 20 -18
0 -11 -6 -17 -17 -17 -11 0 -29 -5 -35 -11 -10 -9 -10 -10 -13 -86 -2 -73 -3
-91 -4 -109 -1 -10 -1 -31 -2 -46 0 -15 -1 -36 -2 -46 -1 -10 -2 -32 -2 -47
-1 -15 -2 -31 -2 -35 0 -4 -1 -8 -1 -10 0 -4 -10 -17 -13 -17 -1 -1 -12 -4
-25 -9 -28 -9 -38 -11 -42 -8 -1 2 -1 4 1 8 9 15 13 30 13 48 0 9 4 18 14 27
3 3 7 8 9 11 3 6 4 22 2 26 -3 5 -21 10 -35 10 -11 0 -14 1 -17 4 -10 9 -4 30
8 30 2 0 8 2 13 4 l9 3 -1 12 c-1 21 -2 23 -19 29 -18 5 -22 10 -24 26 -2 19
-5 26 -17 35 -4 3 -13 5 -24 6 -11 1 -19 8 -21 19 -2 13 -9 30 -16 38 -11 12
-62 35 -113 51 -13 4 -20 6 -36 10 -2 1 -16 4 -31 7 -40 9 -44 12 -32 30 3 6
9 15 11 20 18 32 29 49 32 52 10 8 7 8 189 8 l174 0 5 -5z m182 -28 l-5 -5 -4
4 -5 5 4 4 5 5 4 -4 5 -5 -4 -4z m-1180 -2 c6 -7 7 -21 4 -28 -8 -15 -10 -18
-10 -15 0 2 -6 6 -13 9 -21 11 -21 23 0 34 9 4 13 7 13 10 l0 4 1 -4 c1 -2 3
-7 5 -10z m-71 -81 c7 -3 12 -13 12 -25 0 -19 -9 -28 -28 -28 -19 0 -28 9 -28
28 0 24 19 34 44 25z m518 -56 c15 -6 34 -24 58 -56 15 -19 26 -25 53 -27 18
-2 23 -7 21 -22 0 -5 -1 -12 -2 -15 -1 -3 -2 -11 -2 -18 -2 -15 0 -18 13 -40
4 -7 10 -17 13 -22 10 -20 24 -28 51 -29 23 -1 30 -5 34 -20 3 -12 0 -24 -9
-33 -14 -16 -19 -25 -19 -37 0 -15 19 -35 45 -47 17 -8 48 -18 54 -18 4 0 8
-7 6 -11 0 -2 -2 -3 -4 -3 -3 0 -96 -30 -115 -37 -4 -1 -16 -5 -28 -9 -12 -4
-27 -9 -35 -11 -8 -3 -39 -13 -69 -22 -30 -10 -58 -19 -61 -21 -9 -4 -22 -18
-30 -33 -5 -9 -9 -13 -13 -14 -10 -3 -23 -2 -34 3 -13 6 -24 10 -34 10 -7 1
-57 -13 -72 -19 -20 -9 -27 -32 -14 -50 8 -12 22 -38 23 -44 0 -4 0 -5 -3 -4
-2 0 -4 0 -4 1 0 2 -19 10 -34 13 -23 5 -24 6 -29 25 -8 27 -11 30 -51 59 -30
22 -45 30 -53 32 -4 0 -6 1 -6 5 0 2 0 3 1 3 1 -1 2 0 2 1 0 1 1 1 3 2 4 0 14
2 15 3 1 1 5 2 8 2 30 5 77 20 103 32 19 9 38 27 46 43 5 11 6 12 6 44 2 82 4
108 9 119 2 5 5 9 6 8 5 -5 106 95 147 146 11 14 11 15 11 27 0 15 -3 20 -20
33 -13 10 -19 20 -21 37 -3 18 10 23 34 14z m-433 -108 c11 -6 19 -13 23 -20
4 -7 9 -36 9 -48 0 -10 -5 -22 -9 -22 -2 0 -5 -3 -9 -6 -4 -3 -6 -5 -6 -3 0 2
-1 3 -2 3 -1 0 -2 2 -3 4 -1 2 -3 5 -5 7 -2 2 -4 8 -6 13 -5 17 -20 27 -53 36
-12 3 -17 10 -17 23 0 16 7 23 23 23 6 0 11 -1 12 -2 1 -2 23 2 23 4 0 1 2 0
5 -3 3 -3 10 -7 15 -9z m1121 3 c12 -7 14 -33 3 -43 -8 -9 -32 -9 -40 0 -9 8
-9 32 0 41 7 7 27 8 37 2z m-1528 -111 c5 -5 6 -7 6 -16 0 -15 -8 -22 -23 -23
-10 0 -12 1 -17 6 -5 6 -6 8 -5 21 0 18 25 26 39 12z m428 -60 c5 0 15 -12 15
-18 0 -6 -10 -18 -15 -18 -1 0 -4 -2 -7 -4 -4 -3 -12 -4 -9 -1 0 1 -1 5 -3 9
-5 11 -5 18 1 31 l6 10 5 -4 c3 -3 6 -5 7 -5z m-474 -17 c10 -4 11 -8 10 -33
-1 -21 2 -39 7 -45 6 -6 -1 -21 -11 -21 -8 0 -12 6 -13 17 0 5 -1 10 -2 12 -1
1 -2 6 -4 10 -1 5 -5 12 -8 16 -9 11 -11 17 -11 25 0 10 6 18 13 19 3 1 6 2 7
2 4 1 5 1 12 -2z m1342 -79 l-1 -9 12 -5 c16 -6 20 -12 21 -28 1 -12 0 -14 -5
-18 -9 -9 -32 -7 -40 3 -7 10 -3 43 6 43 2 0 2 1 0 2 -1 2 -2 5 -2 7 0 3 1 3
2 -1 2 -5 2 -5 2 2 0 4 -1 6 -2 5 -2 -1 -1 0 2 3 2 2 3 5 3 6 -1 2 -1 2 1 1 1
-1 1 -5 1 -11z m-890 -1 c2 -3 3 -6 2 -7 -6 -9 -5 -40 1 -48 3 -4 5 -10 6 -14
2 -9 0 -24 -4 -26 -1 0 -2 -1 -2 -3 0 -6 -10 -9 -23 -6 -2 0 -6 1 -7 1 -7 0
-14 9 -16 18 -3 13 0 22 12 35 5 6 10 13 10 15 0 2 1 4 1 5 1 0 2 2 2 4 1 1 1
5 2 8 1 3 2 6 2 7 1 0 0 2 -1 3 -2 2 -1 4 1 8 5 6 9 6 14 0z m-344 -30 c5 -8
1 -16 -8 -16 -9 0 -13 8 -8 16 2 3 5 5 8 5 3 0 6 -2 8 -5z m1553 -19 c5 -5 5
-15 0 -20 -9 -9 -24 -2 -24 10 0 8 6 14 14 14 3 0 8 -2 10 -4z m-1413 -43 c4
-6 3 -6 -6 -16 -3 -4 -4 -5 -9 -2 -7 4 -9 10 -4 15 3 2 5 5 7 6 4 3 8 2 12 -3z
m76 -41 c7 -6 7 -19 1 -25 -6 -7 -19 -7 -25 -1 -7 6 -7 19 -1 25 6 7 19 7 25
1z m169 -3 c13 0 19 -2 23 -6 3 -4 3 -4 -4 -5 -11 -2 -28 -15 -30 -24 0 -5 0
-5 -1 0 0 2 -1 6 -3 9 -2 3 -3 5 -2 5 0 0 0 2 -2 5 -3 5 -2 6 3 12 3 3 5 6 6
5 1 0 5 -1 10 -1z m993 -35 c11 -10 3 -28 -11 -28 -9 0 -16 6 -16 16 0 14 17
22 27 12z m-524 -14 c4 -6 4 -24 0 -30 -4 -5 -54 -18 -68 -18 -19 0 -25 31 -6
37 2 0 13 4 24 8 11 4 23 8 26 9 8 2 19 -1 24 -6z m-471 -71 c9 -42 18 -94 18
-100 0 -7 -8 -15 -17 -16 -4 -1 -8 -1 -9 -2 0 0 -3 2 -6 4 -4 4 -6 7 -6 17 -2
14 -8 26 -19 39 -11 11 -13 16 -13 28 0 11 2 17 10 25 9 9 15 18 18 26 3 10
10 24 10 21 0 -5 4 -3 4 2 1 4 1 4 1 -1 1 -3 5 -22 9 -43z m1119 23 c5 -5 6
-7 6 -16 0 -15 -8 -23 -23 -23 -9 0 -11 1 -16 7 -9 8 -9 23 -1 32 9 9 24 9 34
0z m-24 -105 c3 -5 3 -5 0 -10 -2 -3 -5 -5 -7 -5 -2 0 -5 2 -7 5 -3 5 -3 5 0
10 2 3 5 5 7 5 2 0 5 -2 7 -5z m-593 -14 c3 -3 4 -7 4 -14 0 -13 -6 -19 -19
-19 -13 0 -19 6 -19 19 0 7 1 11 4 14 7 8 23 8 30 0z m527 -22 c12 -12 3 -31
-13 -31 -11 0 -18 7 -18 18 0 11 7 18 18 18 6 0 9 -1 13 -5z m-838 -16 c14
-10 30 -14 45 -12 5 1 10 2 11 1 0 0 3 0 5 -1 3 0 5 -1 6 -3 0 -1 1 -2 3 -2 3
0 4 -9 1 -17 -5 -15 -17 -17 -38 -6 -8 4 -16 7 -22 7 -5 0 -9 1 -10 1 0 0 -3
-1 -7 -2 -4 -2 -11 -3 -17 -3 -15 0 -22 7 -22 23 0 10 1 12 6 17 5 5 7 6 17 6
9 0 12 -1 22 -9z m-219 -29 c8 -9 2 -22 -9 -22 -11 0 -17 14 -9 22 6 5 14 5
18 0z m464 -20 c4 -2 14 -20 14 -25 0 -2 -3 -5 -7 -7 -9 -5 -23 -4 -30 3 -7 7
-7 19 0 26 5 5 16 7 23 3z m-539 -75 c7 -4 9 -9 9 -23 1 -13 -1 -22 -4 -22 -1
0 -2 -2 -2 -4 0 -2 -1 -5 -3 -6 -2 -1 -3 -2 -3 0 0 1 -6 4 -14 7 -18 7 -22 12
-22 27 0 13 3 19 12 23 7 3 21 2 27 -2z m1066 -13 c7 -3 12 -13 12 -25 0 -19
-9 -28 -28 -28 -19 0 -28 9 -28 28 0 24 19 34 44 25z m-1198 -45 c5 -8 1 -16
-8 -16 -9 0 -13 8 -8 16 2 3 5 5 8 5 3 0 6 -2 8 -5z m-202 -51 c2 0 4 -1 5 -3
2 -1 8 -4 14 -6 11 -4 32 -3 37 1 2 1 8 3 13 3 15 0 23 -8 23 -23 0 -20 -18
-29 -38 -19 -11 6 -33 5 -40 0 -6 -4 -17 -32 -17 -42 0 -12 -21 -18 -30 -8 -3
4 -4 6 -3 31 0 14 0 29 -1 32 -6 21 9 38 29 35 3 -1 7 -1 8 -1z m1431 -153
l-5 -5 -4 4 -5 5 4 4 5 5 4 -4 5 -5 -4 -4z"/>
</g>
</svg>
