<?xml version="1.0" standalone="no"?>
<!DOCTYPE svg PUBLIC "-//W3C//DTD SVG 20010904//EN"
 "http://www.w3.org/TR/2001/REC-SVG-20010904/DTD/svg10.dtd">
<svg version="1.0" xmlns="http://www.w3.org/2000/svg"
 width="1100.000000pt" height="2850.000000pt" viewBox="0 0 1100.000000 2850.000000"
 preserveAspectRatio="xMidYMid meet">
<metadata>
Created by potrace 1.15, written by Peter Selinger 2001-2017
</metadata>
<g transform="translate(0.000000,2850.000000) scale(0.500000,-0.500000)"
fill="#000000" stroke="none">
<path d="M1174 3827 c-16 -8 -22 -21 -22 -45 0 -10 1 -18 2 -19 1 -1 2 -3 2
-6 0 -8 20 -22 68 -45 9 -4 18 -8 19 -8 2 0 5 -2 8 -5 5 -4 6 -6 6 -17 1 -16
-1 -22 -11 -26 -8 -4 -25 -5 -33 -2 -3 1 -7 3 -9 3 -2 0 -6 2 -9 3 -8 3 -24 1
-26 -4 -1 -1 -3 -7 -4 -13 -1 -5 -5 -19 -8 -30 -3 -11 -5 -23 -5 -28 1 -6 0
-9 -5 -14 l-6 -6 -107 1 -107 0 -17 -5 c-18 -5 -47 -17 -52 -22 -7 -6 -23 -13
-30 -13 -13 0 -14 0 -20 6 -11 10 -8 32 6 47 16 16 20 50 11 81 -8 27 -9 38
-2 54 7 16 7 31 0 51 -12 35 -22 44 -55 46 -9 1 -23 2 -30 2 -13 2 -23 0 -45
-9 -8 -4 -17 -6 -22 -6 -9 0 -23 6 -29 11 -4 5 -24 14 -30 14 -15 0 -23 -6
-30 -21 -6 -12 -6 -24 -2 -54 2 -9 3 -18 3 -19 0 -2 -1 -5 -1 -7 0 -2 -3 -7
-6 -10 -8 -9 -26 -9 -34 0 -5 5 -6 7 -7 27 -1 20 -2 32 -4 44 0 3 0 6 1 7 2 3
-4 24 -10 33 -2 3 -4 5 -4 4 0 -1 -5 -2 -11 -2 -9 0 -12 -1 -16 -6 -11 -12
-11 -12 -11 -132 l1 -110 -6 -6 -6 -6 -146 1 -146 0 -10 -5 c-11 -5 -18 -14
-27 -31 -5 -11 -12 -15 -24 -15 -12 0 -19 4 -23 14 -12 22 -23 33 -38 36 -7 1
-22 -6 -26 -12 -1 -2 -3 -4 -3 -5 -1 -1 -2 -2 -2 -3 0 -1 -1 -3 -1 -4 -3 -9
-2 -15 4 -39 7 -29 10 -38 13 -38 1 0 2 -1 2 -3 0 -1 3 -5 7 -8 14 -11 16 -11
140 -11 109 0 114 0 131 4 21 6 31 6 53 0 15 -4 22 -4 57 -4 l39 1 6 -6 6 -6
0 -62 c-1 -35 0 -61 1 -61 1 0 2 -2 3 -4 1 -2 4 -5 7 -6 8 -3 26 -4 30 -1 8 7
26 8 36 3 5 -3 17 -3 24 -1 9 3 10 24 2 35 -3 4 -5 12 -7 24 -4 23 -4 24 -9
39 -7 21 -4 30 10 34 12 3 15 8 16 25 1 15 1 16 -4 21 -12 11 -5 29 10 29 5 0
9 -2 12 -5 4 -4 4 -6 3 -16 -2 -16 -2 -28 1 -29 1 0 2 -2 2 -3 0 -2 2 -4 6 -4
7 -2 18 -9 22 -14 8 -9 5 -30 -7 -46 -5 -6 -15 -34 -15 -41 0 -2 -1 -5 -3 -7
-4 -5 -4 -34 -1 -42 2 -4 3 -16 2 -28 0 -28 2 -34 17 -43 7 -4 12 -9 14 -13 4
-7 4 -7 -5 -20 -4 -7 -9 -14 -10 -16 -10 -11 -32 -45 -39 -60 -6 -12 -12 -21
-18 -26 -17 -17 -33 -32 -42 -44 -6 -7 -10 -12 -11 -13 -2 -2 -29 -33 -35 -40
-3 -4 -31 -32 -62 -63 -32 -31 -58 -59 -59 -63 -2 -4 -5 -16 -6 -26 -4 -28 -8
-33 -29 -32 -12 0 -33 -4 -39 -7 -13 -7 -30 -20 -32 -23 -5 -10 -7 -30 -3 -38
6 -13 1 -26 -12 -26 -5 0 -19 7 -21 10 -2 6 -36 11 -38 6 -1 0 -7 -5 -15 -11
-21 -14 -22 -16 -22 -49 0 -24 0 -28 -4 -32 -9 -10 -33 -10 -56 0 -25 12 -46
10 -64 -7 -12 -11 -15 -32 -7 -48 11 -21 32 -30 56 -24 34 8 86 24 132 39 51
17 147 54 149 58 1 2 8 -3 11 -9 1 -3 2 -18 2 -39 0 -28 1 -37 4 -45 l3 -10
15 -1 c8 0 15 -1 16 -2 0 -2 10 18 11 25 3 10 9 13 33 16 41 6 51 4 61 -10 3
-5 7 -9 9 -11 1 -2 5 -9 8 -17 l6 -13 -5 -5 c-5 -5 -1 -6 -41 7 -26 8 -44 8
-55 -3 -5 -4 -5 -6 -5 -19 0 -10 1 -14 3 -14 2 0 4 -1 5 -3 2 -1 6 -4 10 -6
18 -9 24 -23 13 -33 -7 -6 -15 -5 -34 5 -23 13 -33 12 -46 -3 -9 -10 -11 -20
-11 -71 0 -56 1 -60 15 -73 5 -6 10 -10 11 -10 1 0 3 -3 5 -6 3 -5 3 -7 0 -12
-2 -3 -4 -6 -5 -6 -1 0 -6 -4 -11 -10 -15 -13 -15 -18 -15 -73 1 -58 2 -59 32
-84 18 -13 18 -37 0 -50 -32 -26 -31 -23 -32 -99 0 -53 0 -62 3 -70 13 -33 35
-43 87 -41 37 1 52 5 60 16 5 5 12 23 13 33 2 10 10 18 19 18 14 1 16 0 27
-12 20 -21 34 -23 57 -9 8 5 22 13 31 18 18 9 18 9 29 19 19 18 27 49 17 68
-4 7 -11 15 -22 22 -11 7 -15 12 -15 20 0 14 14 20 28 13 4 -2 10 -6 15 -9 15
-11 22 -12 90 -12 74 0 75 0 93 18 17 16 20 19 32 19 12 0 15 -3 32 -19 19
-19 13 -18 140 -18 l109 0 8 5 c4 2 9 6 10 9 2 3 3 4 3 3 0 -7 4 7 5 19 2 18
6 24 17 24 5 0 9 -1 12 -5 5 -5 5 -5 2 -21 -3 -19 -2 -28 6 -34 5 -4 8 -5 12
-4 7 2 20 -3 26 -9 7 -8 6 -25 -2 -33 -5 -6 -6 -6 -24 -6 -23 0 -34 -4 -40
-16 -5 -9 -5 -14 -1 -28 5 -15 13 -23 31 -28 19 -5 25 -9 35 -19 4 -5 8 -8 9
-8 1 1 2 0 2 0 0 -3 12 -7 20 -8 7 0 29 2 44 4 4 1 11 2 15 2 12 2 32 12 42
22 16 16 24 19 46 14 23 -6 36 -5 53 3 8 4 15 8 16 8 0 1 1 2 3 2 5 0 21 16
26 28 l6 11 0 53 c0 51 -1 65 -6 73 -3 5 -2 33 0 40 5 10 6 17 6 45 1 28 0 38
-7 48 -6 8 -21 15 -35 17 -14 2 -17 5 -24 20 -10 21 -18 27 -31 26 -9 -1 -12
-2 -19 -8 -5 -4 -8 -8 -8 -9 1 -1 0 -2 -1 -2 -2 -1 -3 -7 -4 -14 0 -13 0 -17
10 -54 5 -17 5 -17 1 -21 -6 -6 -13 -6 -21 1 -3 4 -6 7 -6 9 0 2 -10 17 -12
19 -1 1 -4 5 -8 10 -5 7 -6 10 -6 19 0 11 0 11 12 23 18 17 21 33 11 47 -8 10
-18 21 -21 21 -1 0 -2 1 -2 2 -1 0 -5 4 -9 7 -12 9 -16 22 -10 38 6 17 35 20
49 4 16 -19 20 -23 33 -33 12 -8 15 -11 21 -23 10 -20 14 -24 29 -26 24 -2 51
13 57 32 1 5 2 22 2 43 0 34 0 35 5 43 4 5 8 9 12 11 12 4 37 22 42 29 2 5 6
13 8 19 3 12 2 19 -7 35 -8 15 -11 17 -25 17 -15 0 -19 -1 -30 -12 -5 -4 -11
-8 -14 -9 -16 -4 -39 -17 -48 -28 -12 -14 -22 -19 -35 -19 -17 0 -25 14 -20
35 4 17 13 28 32 39 19 11 33 21 37 25 4 5 4 26 -1 33 -2 5 -55 46 -76 60 -2
2 -19 14 -37 27 -25 20 -32 26 -32 30 -2 11 11 21 27 21 6 0 13 -3 28 -11 56
-34 64 -37 77 -36 13 1 20 7 26 22 4 11 3 25 -5 41 -1 3 -5 9 -9 13 -20 23 -9
56 20 54 22 -1 31 -15 27 -40 -3 -14 1 -32 9 -44 3 -4 6 -10 6 -13 2 -10 10
-30 11 -30 1 0 2 -1 2 -3 0 -1 5 -7 12 -13 8 -8 14 -15 19 -25 20 -38 34 -43
71 -24 11 5 24 11 30 14 14 6 24 15 34 31 8 13 15 20 17 20 3 0 26 18 28 22 3
5 5 22 3 22 -1 0 -2 2 -3 5 -2 5 -17 12 -28 14 -17 1 -23 7 -27 20 -4 16 2 31
16 36 12 5 33 0 38 -10 4 -8 15 -13 27 -13 14 0 18 1 22 8 11 19 42 46 68 59
20 10 34 24 36 36 0 1 1 3 2 4 1 2 1 9 1 16 -1 24 -14 41 -34 47 -10 2 -63 7
-74 6 -6 0 -26 -8 -31 -13 -5 -5 -16 -9 -23 -9 -7 0 -9 1 -28 21 -13 14 -23
17 -66 25 -102 18 -189 40 -283 72 -22 7 -40 13 -41 13 -1 0 -4 1 -7 3 -3 1
-6 2 -6 2 -1 0 -12 4 -25 9 -33 13 -38 13 -72 -6 -13 -7 -30 -5 -39 4 -1 3 -5
13 -7 23 -6 27 -11 36 -26 42 -6 2 -13 4 -15 5 -3 0 -5 1 -5 1 0 1 -1 2 -3 2
-4 0 -16 11 -18 16 -1 2 -2 4 -3 4 -3 0 -20 10 -25 16 l-5 4 4 5 c6 6 10 7 75
8 82 2 96 4 111 23 16 20 19 22 32 22 6 0 12 -1 13 -2 2 -3 26 -11 37 -11 11
0 31 7 37 14 2 2 4 3 5 3 4 0 18 16 23 27 9 19 12 55 6 70 -4 9 -11 20 -14 21
-5 2 -17 17 -17 22 0 8 11 19 26 24 13 5 13 5 133 6 134 1 122 0 149 16 19 12
29 12 49 0 15 -9 32 -16 40 -16 2 0 13 3 24 6 11 4 23 7 26 7 10 2 28 7 31 10
9 7 9 25 0 58 -9 33 -9 34 -43 64 -9 8 -18 16 -20 19 -3 3 -6 4 -17 4 l-14 0
-12 -12 c-11 -11 -14 -12 -21 -12 -18 0 -23 17 -10 33 9 11 10 15 10 31 0 10
-1 13 -4 14 -2 2 -8 7 -14 12 -5 5 -15 13 -20 17 -5 4 -12 10 -15 13 -20 18
-37 25 -66 25 -20 0 -22 0 -30 -6 -6 -3 -11 -7 -12 -10 -2 -2 -6 -8 -9 -12 -7
-8 -16 -29 -18 -40 -3 -21 -6 -25 -30 -39 -16 -10 -21 -15 -30 -35 -10 -20
-15 -23 -38 -23 -9 0 -17 -1 -18 -2 -2 -2 -5 0 -11 6 -6 5 -8 8 -6 9 2 2 2 20
-1 22 -2 2 -35 4 -35 2 0 -1 -1 -3 -3 -4 -4 -4 -4 -16 1 -28 2 -5 4 -9 4 -8 0
2 2 3 4 4 4 1 20 -15 20 -20 0 -6 -12 -29 -16 -31 -8 -4 -23 -3 -29 3 -5 5 -6
6 -4 21 1 21 -2 33 -14 47 -8 10 -9 13 -9 21 0 13 4 17 22 23 26 8 37 14 47
25 5 6 11 13 12 16 2 5 17 25 17 23 0 -1 3 1 6 3 3 2 7 4 8 4 4 0 24 20 29 29
8 16 12 29 11 37 -1 4 -2 8 -2 10 -1 1 -1 2 -2 2 0 0 -2 3 -4 6 -1 3 -6 7 -13
11 -11 5 -13 6 -53 9 -25 2 -30 2 -41 -1 -7 -2 -14 -4 -17 -4 -3 -1 -7 -2 -11
-2 -5 -1 -20 3 -28 8 -9 6 -27 10 -56 12 -8 0 -30 2 -49 4 -19 2 -41 4 -49 4
-8 1 -23 2 -34 3 -28 3 -29 3 -41 -3z m-517 -99 c6 -6 7 -19 1 -25 -4 -5 -18
-10 -21 -7 -9 6 -12 24 -5 31 6 7 19 7 25 1z m-31 -66 c10 -14 12 -15 29 -16
12 0 17 0 19 2 8 8 19 12 28 13 19 0 29 -9 29 -28 0 -24 -10 -29 -52 -29 -20
0 -40 4 -44 9 -1 0 -7 1 -14 1 -12 0 -13 0 -22 -9 -18 -18 -27 -21 -36 -13 -9
9 -6 19 12 37 6 6 12 14 15 19 9 14 30 22 36 14z m667 -133 c3 -2 8 -9 12 -16
4 -8 14 -20 21 -28 16 -16 17 -18 15 -36 -1 -19 -7 -33 -16 -38 -7 -4 -7 -4
-14 0 -6 3 -17 20 -17 27 0 7 -16 32 -27 43 -11 11 -13 15 -13 27 0 13 3 19
12 23 7 3 21 2 27 -2z m-588 -15 c7 -3 12 -13 12 -25 -1 -21 -8 -28 -32 -28
-16 0 -20 3 -23 18 -3 17 2 31 11 35 12 4 20 4 32 0z m935 -21 l-5 -5 -4 4 -5
5 4 4 5 5 4 -4 5 -5 -4 -4z m-818 -41 l19 -9 150 0 150 0 6 -6 c5 -5 6 -7 5
-14 0 -4 1 -11 2 -16 2 -9 13 -23 16 -23 4 0 22 -17 22 -21 0 -4 -17 -21 -21
-21 -1 0 -4 -2 -8 -5 -7 -5 -20 -10 -24 -9 -1 0 -24 7 -52 15 -46 14 -68 20
-165 49 -19 6 -36 11 -37 11 -1 0 -10 3 -19 6 -27 8 -31 8 -61 1 -3 0 -17 -1
-29 -1 -22 0 -24 0 -29 5 -12 11 -4 27 22 40 18 9 29 8 53 -2z m-39 -170 c4
-6 4 -24 -1 -30 -7 -9 -27 -9 -34 0 -5 6 -5 24 0 30 7 9 27 9 35 0z m122 -9
c12 -7 14 -33 3 -43 -8 -9 -32 -9 -40 0 -9 8 -9 32 0 41 7 7 27 8 37 2z m204
-9 c4 -6 4 -8 -1 -14 -5 -6 -12 -5 -16 2 -6 11 10 22 17 12z m-160 -95 c3 -2
6 -7 6 -9 2 -12 3 -13 11 -11 4 0 12 1 18 1 11 0 11 0 16 8 8 13 14 15 41 15
26 0 38 -3 44 -9 6 -6 6 -23 1 -40 -3 -11 -4 -16 -3 -24 1 -5 2 -10 2 -10 0
-2 26 -38 32 -45 2 -2 5 -7 8 -10 2 -3 5 -7 7 -9 24 -26 30 -45 23 -73 -4 -15
-8 -19 -27 -27 -9 -4 -18 -9 -22 -12 -6 -6 -12 -22 -12 -33 0 -6 7 -19 10 -19
1 0 2 -1 2 -3 0 -2 1 -3 2 -3 0 1 7 0 13 -1 10 -1 14 -1 18 2 7 3 19 3 27 0
12 -5 18 -21 14 -36 -2 -8 -5 -13 -15 -22 -24 -23 -46 -29 -62 -14 -5 3 -11
22 -8 24 0 1 -1 6 -2 11 -2 5 -3 11 -3 13 0 2 -3 6 -7 8 -14 8 -18 9 -52 8
-18 -1 -76 -2 -129 -2 -94 0 -101 0 -105 -4 -1 0 -5 -3 -9 -6 -4 -2 -9 -8 -13
-13 -8 -13 -14 -16 -24 -16 -9 0 -18 4 -20 10 -2 6 -29 34 -31 33 -1 -1 -2 0
-3 1 0 1 -7 1 -14 1 -7 -1 -15 0 -17 1 -4 2 -10 12 -10 17 0 5 7 10 13 10 5
-1 15 -6 15 -9 0 -1 4 -4 8 -7 6 -4 10 -5 19 -5 12 0 8 -2 52 30 24 18 37 27
39 30 1 1 2 2 4 3 2 1 8 6 13 10 42 34 52 43 66 56 46 42 56 52 59 61 2 10 1
24 -3 33 -4 8 -4 22 -1 26 6 7 3 33 -6 50 -2 4 -2 6 1 10 5 6 7 6 14 0z m-120
-6 c3 -3 3 -3 0 -6 -5 -3 -5 -3 -11 0 l-5 3 6 3 c7 4 7 4 10 0z m-48 -15 c11
-4 12 -5 5 -17 -5 -11 -9 -14 -24 -17 -15 -4 -23 -7 -36 -16 -19 -14 -36 -9
-36 9 0 10 5 15 19 19 12 3 26 10 40 19 11 8 18 9 32 3z m416 -1 c6 -5 9 -12
9 -25 0 -11 -1 -13 -6 -18 -6 -6 -7 -6 -18 -6 -11 0 -12 0 -18 6 -5 5 -6 7 -6
18 0 18 7 25 29 26 4 0 9 -1 10 -1z m-386 -127 c10 -9 3 -26 -10 -26 -8 0 -15
7 -15 15 0 13 16 20 25 11z m668 -29 c4 -4 5 -7 5 -15 0 -14 -6 -20 -20 -20
-14 0 -20 6 -20 20 0 14 6 20 20 20 8 0 11 -1 15 -5z m-224 -38 c6 -4 6 -6 6
-20 0 -14 0 -16 -6 -20 -4 -4 -7 -5 -18 -5 -11 0 -14 1 -18 5 -6 4 -6 6 -6 20
0 14 0 16 6 20 4 4 7 5 18 5 11 0 14 -1 18 -5z m392 -20 c5 -8 1 -16 -8 -16
-9 0 -13 8 -8 16 2 3 5 5 8 5 3 0 6 -2 8 -5z m-1070 -5 c4 -6 4 -24 -1 -30 -7
-9 -27 -9 -34 0 -5 6 -5 24 0 30 7 9 27 9 35 0z m816 -2 c10 -9 3 -26 -10 -26
-8 0 -15 7 -15 15 0 13 16 20 25 11z m105 -24 c5 -5 6 -7 6 -17 0 -10 -1 -12
-6 -17 -5 -5 -7 -6 -17 -6 -10 0 -12 1 -17 6 -5 5 -6 7 -6 17 0 10 1 12 6 17
5 5 7 6 17 6 10 0 12 -1 17 -6z m257 -3 c12 -1 22 -5 24 -10 3 -8 1 -15 -4
-19 -25 -19 -28 -22 -34 -32 -5 -11 -5 -11 -4 -40 1 -28 1 -29 -3 -33 -8 -9
-17 -7 -40 8 -8 5 -31 14 -31 13 -1 -1 -3 1 -6 4 -9 8 -5 22 10 39 12 13 16
19 23 36 9 22 15 31 22 34 5 2 21 2 43 0z m-469 -58 c5 -8 5 -18 0 -26 -4 -6
-6 -7 -13 -7 -15 0 -22 19 -12 33 3 6 5 7 12 7 7 0 9 -1 13 -7z m-639 -34 c3
-4 3 -6 2 -20 0 -9 -2 -18 -2 -20 -5 -9 0 -26 9 -34 10 -8 17 -9 91 -9 67 0
72 0 83 4 7 3 14 5 15 6 5 4 21 9 28 9 8 0 12 -1 33 -10 14 -7 24 -7 42 0 19
7 27 6 52 -2 l20 -7 59 0 c53 0 60 0 74 4 9 2 21 4 28 4 7 0 19 -2 28 -4 14
-4 21 -4 76 -4 l60 0 6 -5 6 -6 -5 -5 c-3 -3 -12 -13 -21 -23 -20 -22 -21 -23
-45 -49 -10 -11 -20 -22 -22 -24 -2 -2 -8 -6 -14 -9 l-11 -5 -265 1 c-236 0
-266 1 -276 3 -6 2 -27 10 -47 17 -20 8 -52 20 -71 28 -126 47 -125 47 -119
56 1 2 16 10 32 19 37 19 40 22 40 44 0 8 -1 19 -2 23 -2 10 3 17 13 17 6 0
10 -3 20 -16 4 -6 4 -6 22 -6 17 1 17 1 19 7 3 10 13 20 21 21 7 1 16 -1 21
-5z m264 -4 c3 -3 3 -3 0 -6 -3 -3 -3 -3 -6 0 -3 2 -3 3 -1 6 4 4 4 4 7 0z
m174 -248 c13 -6 19 -21 15 -35 -4 -14 2 -33 13 -41 5 -4 8 -4 65 -4 l61 0 6
-6 6 -6 -1 -63 c0 -43 1 -66 2 -71 2 -9 9 -16 22 -28 4 -3 8 -9 9 -12 2 -7 -6
-39 -10 -46 -2 -2 -3 -5 -3 -6 0 -2 -3 -8 -8 -15 -7 -12 -14 -33 -11 -35 0 -1
-2 -4 -6 -8 l-6 -6 -21 1 c-33 1 -42 -4 -53 -26 -4 -8 -6 -14 -6 -14 1 0 -1
-2 -2 -4 -2 -2 -6 -3 -9 -3 -3 0 -7 1 -8 3 -2 2 -4 4 -3 4 2 0 -13 27 -16 30
-11 10 -9 10 -163 10 l-143 0 -19 -5 c-23 -6 -27 -6 -46 -1 -8 2 -15 4 -16 3
-1 -1 -2 0 -2 1 0 6 -18 11 -23 7 -1 -1 -2 -2 -3 -2 0 0 -3 -1 -6 -2 -3 -1 -5
-2 -6 -1 0 0 -2 -1 -3 -3 -2 -2 -4 -3 -6 -3 -1 0 -4 -1 -5 -3 -4 -5 -18 -4
-23 1 -7 6 -7 19 -1 25 6 7 20 7 25 1 2 -3 3 -4 3 -3 0 1 4 2 10 2 5 0 10 0
10 1 0 1 1 1 3 1 3 -1 10 5 13 13 3 10 3 50 -1 59 -3 8 -10 15 -16 16 -1 0 -3
1 -5 2 -10 3 -16 5 -17 3 -1 -1 -4 -1 -17 0 -1 0 -5 3 -8 6 -5 5 -6 7 -6 17 0
19 6 25 35 34 15 5 26 13 32 24 4 7 4 11 4 52 l0 44 6 6 6 6 29 -1 c32 0 41 1
49 9 6 7 12 23 11 36 0 12 6 19 18 19 12 0 18 -7 18 -19 -1 -12 5 -29 10 -35
14 -14 54 -13 66 1 4 4 12 27 12 34 0 2 2 6 4 8 9 10 30 4 30 -8 0 -7 8 -29
12 -34 9 -11 30 -13 41 -5 9 8 15 27 11 40 -7 25 18 47 41 35z m-503 -42 c9
-8 2 -25 -11 -25 -8 0 -14 6 -17 16 -1 7 -1 8 4 13 4 4 6 4 12 2 4 -1 9 -3 12
-6z m810 -55 c13 -13 -5 -27 -35 -29 -11 -1 -13 -1 -17 3 -5 5 -5 14 0 20 8
10 44 14 52 6z m-756 -33 c16 -7 20 -35 7 -49 -9 -10 -34 -9 -43 0 -9 9 -9 35
0 43 9 8 24 10 36 6z m698 -49 c5 -5 6 -7 6 -17 0 -10 -1 -12 -6 -17 -5 -5 -7
-6 -17 -6 -10 0 -12 1 -17 6 -5 5 -6 7 -6 17 0 10 1 12 6 17 5 5 7 6 17 6 10
0 12 -1 17 -6z m-830 -85 c6 -3 10 -7 15 -18 5 -9 18 -23 23 -23 1 0 4 -1 7
-3 4 -2 11 -4 16 -4 18 -2 24 -9 24 -27 0 -19 -8 -26 -26 -27 -13 0 -21 4 -26
14 -6 11 -17 23 -20 23 -2 0 -3 1 -3 2 0 2 -14 6 -26 7 -15 1 -22 7 -26 21 -2
9 0 22 6 29 7 8 24 11 36 6z m834 -63 c3 -3 4 -7 4 -12 0 -5 1 -11 1 -13 0 -2
1 -14 2 -26 l2 -23 -7 -6 c-5 -5 -7 -6 -17 -6 -15 0 -23 7 -23 21 0 12 15 63
19 66 5 4 14 4 19 -1z m-833 -55 c6 -5 6 -33 0 -39 -6 -7 -17 -9 -28 -6 -13 4
-16 8 -16 25 0 14 0 16 6 20 5 5 7 5 20 5 11 -1 16 -2 18 -5z m917 -115 c5 -5
5 -11 0 -16 -10 -10 -27 5 -16 16 4 4 12 4 16 0z m-891 -12 c10 -9 3 -26 -10
-26 -8 0 -15 7 -15 15 0 13 16 20 25 11z"/>
<path d="M855 3770 c-6 -7 -7 -16 -3 -27 l3 -7 14 0 c11 1 15 2 19 6 5 5 7 15
4 25 l-2 7 -16 0 c-13 0 -17 -1 -19 -4z"/>
<path d="M497 3251 c-6 -1 -6 -1 -5 -11 3 -14 3 -17 5 -17 1 0 4 -1 7 -3 3 -1
7 -3 9 -3 2 0 4 -1 5 -3 1 -5 6 9 6 21 0 9 1 13 3 13 1 0 0 1 -2 2 -4 2 -17 2
-28 1z"/>
</g>
</svg>
