<?xml version="1.0" standalone="no"?>
<!DOCTYPE svg PUBLIC "-//W3C//DTD SVG 20010904//EN"
 "http://www.w3.org/TR/2001/REC-SVG-20010904/DTD/svg10.dtd">
<svg version="1.0" xmlns="http://www.w3.org/2000/svg"
 width="1100.000000pt" height="2850.000000pt" viewBox="0 0 1100.000000 2850.000000"
 preserveAspectRatio="xMidYMid meet">
<metadata>
Created by potrace 1.15, written by Peter Selinger 2001-2017
</metadata>
<g transform="translate(0.000000,2850.000000) scale(0.500000,-0.500000)"
fill="#000000" stroke="none">
<path d="M1076 3833 c-24 -5 -28 -13 -41 -80 -1 -8 -18 -69 -25 -95 -4 -15 -7
-27 -7 -28 1 -1 0 -2 -1 -2 -2 0 -2 -1 -1 -1 1 -2 -5 -7 -7 -7 -2 0 -23 17
-39 32 -7 6 -17 14 -22 19 -10 8 -43 35 -53 44 -30 26 -41 31 -71 36 -12 2
-15 5 -28 30 -14 27 -21 33 -36 35 -18 1 -25 -3 -41 -24 -3 -4 -6 -8 -7 -9 -2
-2 -12 -15 -20 -26 -2 -3 -5 -7 -7 -9 -2 -2 -5 -6 -7 -9 -3 -3 -10 -13 -17
-21 -17 -23 -19 -39 -13 -114 2 -23 -5 -30 -32 -28 -2 0 -6 3 -9 6 -6 6 -6 7
-6 21 1 37 -8 49 -38 49 -28 0 -41 -13 -43 -44 -2 -21 -9 -29 -28 -29 -19 0
-26 8 -28 29 0 6 -2 16 -4 20 -9 22 -15 24 -66 24 -38 0 -41 0 -49 -5 -10 -5
-19 -17 -22 -32 -4 -14 -9 -19 -19 -19 -10 0 -15 5 -19 19 -3 15 -12 27 -22
32 l-9 5 -90 0 c-99 0 -101 0 -110 -13 -10 -12 -10 -22 -2 -50 4 -14 10 -30
13 -36 7 -13 25 -25 39 -25 9 0 29 12 36 22 10 12 17 17 29 17 12 0 19 -4 30
-18 4 -6 9 -11 10 -11 2 0 5 -3 8 -6 5 -6 6 -7 8 -4 1 2 2 2 2 1 0 -3 72 -2
84 1 16 4 42 21 51 34 3 5 11 29 10 31 -1 0 1 2 3 4 7 6 12 -2 15 -24 1 -4 2
-11 3 -15 3 -7 17 -23 24 -25 2 -1 4 -2 4 -3 0 -2 2 -2 121 -4 l116 -1 7 -5
c3 -4 5 -6 4 -6 -3 0 -13 -12 -32 -34 -2 -3 -8 -9 -13 -14 -4 -5 -11 -12 -14
-16 -3 -4 -10 -9 -14 -12 l-8 -5 -73 0 c-84 0 -73 -2 -142 25 -23 8 -65 25
-94 36 -29 11 -54 20 -55 20 -2 0 -2 1 -2 3 1 2 1 3 -1 2 -1 0 -2 0 -3 1 -2 3
-21 0 -32 -5 -12 -5 -23 -18 -27 -30 -1 -6 -2 -30 -2 -77 l0 -68 5 -11 c4 -8
8 -13 16 -19 18 -14 18 -20 0 -34 -8 -6 -12 -11 -16 -19 l-5 -11 0 -113 c1
-62 0 -113 -1 -113 -1 0 -1 -1 0 -2 1 -2 -5 -4 -7 -3 -1 1 -2 0 -2 -1 0 -1 -2
0 -4 3 -15 18 -48 12 -56 -11 -1 -5 -2 -65 -2 -217 0 -207 0 -211 4 -226 11
-43 13 -83 4 -102 -7 -12 -8 -26 -8 -88 0 -66 0 -66 11 -93 6 -15 6 -24 1 -38
-7 -17 -4 -36 7 -45 5 -4 17 -25 17 -29 0 -1 1 -5 3 -9 2 -4 4 -10 6 -14 4 -9
4 -25 0 -28 -1 -2 -10 -8 -18 -13 -14 -8 -17 -10 -21 -20 l-6 -11 0 -86 c0
-75 0 -88 3 -94 4 -9 14 -21 18 -21 2 0 3 -1 3 -2 0 -2 10 -3 48 -3 54 0 85 7
128 27 24 12 37 21 50 35 17 17 17 30 2 60 -13 25 -14 35 -6 54 2 7 5 13 6 14
3 3 2 16 0 20 -4 5 -19 5 -27 1 -11 -7 -26 -7 -40 0 -16 9 -33 10 -50 3 -23
-8 -38 -1 -38 19 0 13 4 18 23 28 8 5 17 10 20 13 12 10 20 14 31 14 11 0 25
-6 36 -16 12 -10 24 -15 32 -14 4 0 9 1 10 1 6 0 17 12 19 20 2 7 2 39 2 118
l-1 109 6 6 c4 3 8 6 9 6 1 0 5 -3 9 -6 l6 -6 -1 -48 c0 -31 1 -48 2 -50 1 -1
2 -3 2 -5 0 -8 18 -22 36 -28 12 -3 16 -10 16 -24 0 -14 -4 -21 -16 -24 -18
-6 -36 -20 -36 -28 0 -2 -1 -4 -2 -5 -2 -2 -2 -22 -2 -63 l1 -61 5 -11 c10
-21 23 -26 60 -26 34 0 69 4 82 9 9 4 10 6 10 25 1 10 0 15 -3 19 -4 6 -4 11
1 17 9 10 23 2 22 -13 0 -4 0 -10 0 -12 0 -4 14 -19 14 -15 0 2 1 2 3 1 7 -6
33 3 44 15 5 6 15 9 22 6 10 -4 20 -32 24 -68 2 -18 7 -27 18 -32 10 -4 23 -7
26 -6 9 3 17 -2 17 -10 0 -5 -9 -13 -18 -15 -6 -1 -15 -9 -19 -16 -2 -5 -2 -7
0 -13 2 -3 2 -6 2 -6 -3 0 7 -12 12 -15 6 -3 24 -5 26 -3 1 0 2 1 3 1 0 0 4 1
8 2 4 0 18 2 30 3 25 2 40 7 53 19 11 10 21 17 37 23 15 6 36 22 36 27 0 1 1
3 2 3 1 1 9 16 18 34 15 32 20 46 23 70 1 6 2 11 2 12 0 1 1 13 2 27 1 24 2
27 7 35 3 4 6 7 7 6 1 -1 3 -1 7 0 5 1 54 25 80 38 12 6 26 19 26 24 0 1 1 2
2 2 1 0 4 6 7 13 4 9 9 16 21 28 9 9 16 18 16 19 0 2 5 11 13 22 4 5 11 8 22
9 9 0 13 -1 28 -10 6 -4 13 -6 22 -6 13 -2 8 -4 51 25 12 9 20 10 19 3 -1 -6
-10 -22 -20 -33 -2 -3 -7 -9 -11 -14 -9 -11 -43 -51 -60 -69 -12 -13 -19 -19
-61 -59 -9 -9 -17 -16 -18 -16 -3 0 -4 -3 -3 -19 0 -11 2 -15 11 -26 9 -10 9
-20 2 -27 -8 -8 -19 -5 -41 12 -8 5 -13 7 -23 6 -7 0 -17 -3 -19 -5 -2 -1 -8
-6 -15 -10 -7 -4 -13 -9 -14 -10 -2 -2 -8 -6 -15 -10 -14 -9 -22 -20 -23 -35
-1 -9 -1 -11 6 -18 4 -4 8 -7 9 -7 0 0 3 0 5 -1 2 -1 10 -2 18 -2 13 0 16 0
26 -7 11 -7 22 -11 31 -11 6 0 54 22 78 35 7 4 18 9 24 13 24 12 44 23 64 36
12 7 25 15 30 18 5 2 9 5 10 6 1 1 7 5 14 9 11 7 28 21 26 22 0 0 1 3 2 6 2 4
3 15 2 29 l0 23 7 6 c6 6 8 7 17 6 5 0 14 -3 21 -6 7 -4 14 -5 18 -5 6 1 7 0
13 -9 3 -5 7 -13 9 -17 6 -15 16 -22 44 -32 34 -12 56 -28 66 -47 l4 -8 17 -1
17 0 9 10 c9 10 10 10 21 10 10 0 12 -1 17 -6 5 -5 6 -7 6 -16 0 -13 -3 -19
-13 -23 -10 -4 -11 -4 -22 1 -12 6 -29 4 -34 -4 -5 -6 8 -36 17 -41 7 -4 28
-4 39 -1 27 8 44 -2 43 -26 -1 -30 1 -39 11 -45 18 -12 91 13 142 47 47 32 79
72 102 129 10 27 22 67 26 88 0 3 2 13 4 21 8 44 18 131 22 192 1 12 2 25 2
30 0 5 1 22 2 37 3 67 3 67 9 76 3 5 8 9 13 10 11 4 33 18 42 26 13 12 15 17
15 29 -1 18 -1 18 -39 49 -12 10 -22 18 -23 19 -1 1 -9 8 -18 15 -9 8 -24 20
-33 27 -8 7 -17 14 -19 14 -2 1 -2 2 0 2 1 0 4 2 6 4 3 4 6 5 32 6 17 1 33 3
39 5 31 10 57 38 55 61 -2 18 -10 27 -61 68 -9 7 -16 13 -17 14 -1 1 -14 12
-31 25 -16 13 -31 25 -32 26 -2 1 -5 4 -8 6 -8 6 -11 10 -15 19 -3 8 -4 22 -4
166 l0 157 5 8 c3 5 8 9 11 10 9 2 25 13 37 26 15 15 17 18 17 30 0 18 -1 20
-74 74 -70 53 -77 57 -98 61 -15 3 -22 8 -22 17 0 5 9 45 16 65 2 8 10 13 21
13 13 0 18 -3 26 -16 9 -14 20 -23 31 -26 31 -8 27 -5 43 -29 5 -7 11 -14 14
-16 3 -2 6 -3 7 -4 4 -4 33 -5 50 -2 28 5 55 23 66 44 9 19 3 36 -18 56 -31
30 -104 95 -166 147 -3 2 -8 7 -12 10 -5 4 -13 8 -22 11 -13 4 -21 9 -29 21
-2 3 -6 6 -9 8 -3 1 -6 3 -6 4 -1 1 -2 -5 -2 -13 0 -11 -1 -14 -2 -13 -2 1 -1
-1 2 -3 3 -3 5 -5 6 -5 0 1 2 0 3 -1 2 -1 3 -2 3 -1 0 1 2 -1 5 -4 5 -6 6 -14
3 -28 -3 -12 -10 -17 -22 -17 -10 0 -24 6 -24 10 0 5 -13 10 -25 10 -16 0 -13
3 -45 -41 -18 -25 -25 -34 -30 -41 -3 -4 -7 -10 -10 -14 -3 -4 -9 -10 -14 -12
-9 -5 -10 -5 -106 -6 -53 -1 -107 -2 -119 -3 -20 -1 -22 -1 -26 2 -7 7 -8 11
-5 21 6 22 9 24 34 25 28 2 33 3 45 11 22 14 39 39 38 54 -3 20 -12 29 -42 39
-9 3 -17 6 -18 6 -1 1 -12 5 -25 9 -13 5 -24 9 -26 9 -2 0 -11 4 -21 7 -26 10
-42 7 -54 -9 -9 -12 -14 -16 -19 -16 -8 0 -12 5 -11 18 1 27 -9 41 -35 49 -4
1 -20 6 -36 12 -16 6 -32 11 -35 12 -3 1 -9 3 -13 5 -6 2 -9 2 -18 0z m-273
-149 c7 -7 7 -18 -1 -26 -6 -5 -7 -6 -13 -4 -8 3 -13 10 -13 18 0 14 17 22 27
12z m13 -66 c3 -2 7 -4 9 -4 15 -3 16 -45 0 -46 -3 0 -3 -1 0 -1 3 -1 3 -3 2
-12 -2 -25 4 -28 66 -27 30 1 48 2 52 4 8 3 15 1 16 -5 2 -5 -7 -28 -28 -72
-6 -12 -12 -27 -14 -33 -4 -11 -11 -20 -16 -20 -4 0 -17 6 -17 8 0 1 -1 4 -3
5 -1 2 -5 7 -8 11 -5 6 -21 19 -35 28 -2 2 -22 16 -43 33 -22 16 -41 29 -43
29 -2 0 -2 1 1 2 3 1 5 3 6 5 0 2 2 3 4 3 2 0 8 2 14 4 13 5 15 9 14 25 -1 9
-1 11 2 12 3 0 3 1 0 1 -13 0 -17 34 -5 42 2 2 7 5 9 7 6 5 10 5 17 1z m211
-23 c7 -7 9 -11 9 -16 0 -13 -14 -19 -29 -12 -7 3 -7 4 -6 11 1 12 8 26 13 26
2 0 8 -4 13 -9z m228 -134 c10 -3 28 -3 114 -3 l101 0 21 5 c11 3 22 6 25 6 3
0 14 -3 25 -6 14 -3 26 -5 37 -5 14 0 19 -1 29 -6 7 -3 12 -6 12 -7 -1 -1 1
-4 4 -7 9 -10 11 -15 11 -26 0 -21 -19 -27 -41 -13 -13 8 -29 8 -45 0 l-11 -6
-79 -1 -80 -1 -7 -6 c-9 -7 -13 -18 -13 -31 1 -20 0 -24 -3 -31 -2 -5 -5 -7
-9 -8 -3 -1 -7 -3 -9 -5 -3 -2 -4 -2 -14 1 -5 2 -12 5 -14 7 -6 6 -10 21 -7
30 1 4 2 7 1 8 0 1 -1 5 -2 10 -3 18 -13 28 -35 35 -6 2 -13 4 -15 5 -2 1 -8
3 -12 4 -4 2 -9 3 -10 4 -1 1 -8 4 -16 7 -25 9 -29 19 -14 36 12 14 17 14 56
4z m-532 -34 c8 -8 7 -23 -2 -32 -22 -21 -26 -22 -30 -3 -4 22 -4 29 2 35 7 7
23 7 30 0z m-327 -52 c6 -5 8 -10 9 -32 1 -13 2 -22 4 -25 7 -11 28 -18 33
-11 2 4 6 4 59 3 54 -1 56 -1 62 -5 4 -3 8 -5 9 -5 1 0 2 -1 1 -1 0 -1 1 -5 3
-8 16 -26 17 -39 1 -64 -6 -11 -8 -15 -8 -24 0 -20 17 -32 47 -34 22 -1 30 -9
20 -20 -4 -5 -33 -20 -44 -22 -7 -2 -9 -2 -18 -1 -3 0 -11 7 -23 21 -10 11
-20 17 -35 18 -13 2 -27 -2 -33 -9 -4 -4 -8 -30 -5 -30 1 0 4 -5 6 -11 4 -10
4 -13 3 -23 -6 -35 9 -51 47 -50 19 1 19 1 24 -5 3 -3 6 -10 8 -16 4 -10 15
-23 19 -23 2 0 3 -1 3 -2 0 -2 4 -3 58 -3 28 0 53 -1 55 -2 5 -1 8 -7 6 -9 -1
0 -8 -8 -15 -16 -22 -25 -6 -23 -174 -24 -165 -1 -152 0 -165 -18 -13 -18 -15
-20 -19 -20 -2 0 -5 2 -7 4 -2 2 -3 4 -2 4 0 0 -1 5 -3 10 -2 6 -3 10 -3 10 3
0 -8 16 -13 20 -12 9 -7 13 26 22 47 12 79 30 87 48 1 3 5 11 8 18 3 7 8 17
12 22 13 21 14 30 3 52 l-9 17 1 62 c1 86 -1 91 -28 91 -6 0 -10 1 -11 3 0 1
-1 1 -1 -1 0 -6 -5 -8 -15 -8 -16 0 -18 4 -21 35 -2 14 -3 33 -3 41 0 13 0 15
6 19 7 6 27 7 35 2z m826 -3 c15 -8 18 -37 5 -47 -12 -11 -34 -11 -43 0 -9 10
-9 32 0 42 7 8 27 11 38 5z m-527 -8 c0 -2 1 -7 2 -12 1 -8 0 -11 -3 -14 -7
-7 -20 -2 -20 9 0 3 1 5 2 5 1 0 2 2 3 4 2 8 11 16 14 13 1 -1 2 -3 2 -5z
m329 -6 c6 -6 6 -7 6 -19 -1 -11 -2 -14 -8 -21 -3 -4 -6 -9 -6 -10 0 -1 -1 -2
-2 -2 -1 0 -3 -5 -6 -12 -4 -11 -4 -12 -4 -204 0 -178 0 -193 -3 -200 -2 -4
-5 -8 -5 -8 -1 0 -2 -2 -2 -5 l0 -6 -2 6 c-1 7 -40 37 -125 99 -14 9 -28 9
-46 -1 -15 -8 -27 -10 -39 -5 -11 5 -17 22 -11 37 5 12 10 15 37 18 24 3 43
16 52 36 5 10 5 11 6 108 1 102 1 99 9 108 1 1 4 0 8 -5 4 -3 8 -6 9 -5 0 0 2
0 3 -1 2 -1 9 -3 15 -3 13 -1 14 -1 39 12 35 17 36 20 35 57 0 20 0 20 6 26 5
5 7 6 17 6 10 0 12 -1 17 -6z m575 -71 c12 -12 3 -31 -13 -31 -11 0 -18 7 -18
18 0 11 7 18 18 18 6 0 9 -1 13 -5z m-231 -14 c12 -1 27 -2 34 -3 8 -1 34 -2
64 -2 l52 1 3 -5 c2 -4 6 -6 8 -6 3 0 3 -1 1 -2 -2 -1 -2 -6 -2 -20 1 -19 1
-19 -5 -25 l-6 -6 -104 0 -104 0 -6 6 -6 6 1 21 c1 18 2 22 5 26 3 3 5 6 6 8
0 2 1 2 1 1 0 -2 2 -2 6 -1 4 1 7 1 8 0 0 -2 10 0 10 2 0 2 3 2 7 1 3 -1 15
-2 27 -2z m-590 -27 c5 -6 5 -12 0 -18 -7 -8 -22 -2 -22 9 0 11 15 17 22 9z
m364 -10 c5 -6 5 -12 0 -18 -7 -8 -22 -2 -22 9 0 11 15 17 22 9z m-437 -35 c3
-3 3 -3 0 -6 -3 -3 -3 -3 -6 0 -3 2 -3 3 -1 6 4 4 4 4 7 0z m93 -43 c5 -5 5
-11 0 -16 -10 -10 -27 5 -16 16 4 4 12 4 16 0z m894 0 c6 -3 8 -9 11 -32 2
-13 4 -25 6 -29 4 -9 7 -24 7 -35 0 -16 -7 -22 -26 -20 -14 1 -35 27 -40 48
-3 12 11 59 19 66 6 4 17 5 23 2z m-1377 -5 c12 -12 3 -31 -13 -31 -11 0 -18
7 -18 18 0 11 7 18 18 18 6 0 9 -1 13 -5z m1072 -42 c2 -2 9 -7 14 -12 6 -5
11 -9 12 -9 2 0 3 -1 3 -2 0 -4 22 -6 61 -6 l40 1 6 -6 6 -6 -1 -33 c-2 -55
-13 -88 -29 -88 -7 0 -13 7 -13 14 -1 28 -6 40 -21 48 l-10 5 -73 0 -73 0 -6
6 c-6 6 -6 7 -6 27 0 20 0 21 6 27 3 3 7 6 8 5 4 -1 23 4 23 6 0 1 1 2 3 2 1
0 6 4 12 9 5 5 11 10 14 12 5 4 18 4 24 0z m-219 -24 c3 -3 4 -7 4 -14 0 -13
-6 -19 -19 -19 -13 0 -19 6 -19 19 0 7 1 11 4 14 7 8 23 8 30 0z m-505 -3 c10
-9 3 -26 -10 -26 -8 0 -15 7 -15 15 0 13 16 20 25 11z m-376 -37 c3 -5 3 -5 0
-10 -2 -3 -5 -5 -7 -5 -2 0 -5 2 -7 5 -3 5 -3 5 0 10 2 3 5 5 7 5 2 0 5 -2 7
-5z m-125 -38 c4 -2 10 -5 13 -7 10 -5 15 -13 15 -25 0 -10 -1 -12 -6 -17 -5
-5 -7 -6 -17 -6 -21 0 -26 12 -24 58 0 5 9 3 19 -3z m970 -21 c5 -6 10 -11 10
-13 0 -1 2 -4 4 -6 2 -2 4 -3 4 -2 0 0 3 0 7 -1 3 -1 7 -2 8 -3 6 -1 16 -7 18
-9 2 -2 6 -9 9 -16 4 -7 10 -15 13 -19 14 -14 17 -25 9 -33 -6 -6 -14 -5 -24
3 -4 4 -8 8 -8 9 0 2 -7 10 -16 18 -9 9 -16 17 -16 17 0 1 -8 13 -10 15 -1 1
-2 3 -3 6 -2 4 -5 6 -9 7 -23 5 -35 21 -24 32 8 8 16 7 28 -5z m235 -27 c8 -8
6 -27 -3 -27 -2 0 -2 -1 -1 -2 2 0 3 -6 4 -13 0 -7 2 -12 3 -13 1 0 2 -1 1 -2
-1 -1 2 -4 7 -6 7 -4 11 -4 73 -3 l66 0 6 -6 c3 -4 6 -8 5 -10 0 -2 1 -7 3
-12 4 -10 5 -11 24 -11 11 -1 12 -1 21 9 l10 9 24 0 c19 -1 24 0 29 3 3 1 6 3
8 3 2 0 3 1 3 3 0 2 1 3 2 3 1 0 2 1 1 2 -1 1 0 6 1 10 1 5 3 12 3 16 2 19 12
28 30 27 21 -1 32 -17 27 -38 -3 -11 -8 -15 -23 -21 -7 -2 -13 -5 -13 -6 -1 0
-5 -3 -9 -5 -4 -2 -8 -6 -9 -8 0 -2 -3 -8 -7 -13 -4 -6 -7 -11 -7 -12 -1 -1
-11 -7 -24 -13 -13 -6 -27 -13 -31 -15 -15 -8 -21 -8 -44 4 l-21 11 -132 1
c-127 1 -131 1 -137 5 -3 2 -7 5 -9 5 -2 1 -2 2 2 2 11 0 37 24 42 39 3 9 13
16 23 17 9 1 24 7 22 10 -1 1 0 2 1 2 1 1 3 6 3 13 1 7 2 13 4 13 1 1 1 2 -1
2 -5 0 -8 6 -8 15 0 10 7 17 18 17 6 0 9 -1 13 -5z m-789 -80 c7 -3 11 -8 17
-25 10 -26 24 -36 49 -37 12 0 13 -1 17 -6 3 -4 4 -7 3 -9 -1 -2 -3 -6 -4 -9
-2 -3 -4 -7 -5 -8 -1 -1 -6 -6 -10 -12 -10 -12 -14 -13 -35 -14 -16 -1 -25 -3
-35 -9 -9 -4 -13 -12 -16 -34 -5 -30 -5 -30 -10 -33 -4 -3 -15 -6 -23 -5 -10
0 -20 8 -30 24 -5 8 -12 18 -15 22 -8 10 -45 46 -54 53 -4 3 -10 8 -14 11 -5
4 -8 5 -19 5 -21 -1 -30 -6 -47 -28 -3 -4 -5 -9 -5 -13 0 -19 -6 -28 -16 -28
-17 0 -18 19 -3 35 11 12 10 11 12 32 2 27 -4 25 88 25 l78 0 12 6 c9 5 13 8
13 10 0 3 1 7 3 10 4 9 7 15 8 21 3 15 24 23 41 16z m422 -44 l5 0 -5 -1 c-4
0 -6 -1 -7 -3 0 -4 -1 -4 -1 -1 0 2 -2 4 -3 5 -4 0 -4 1 0 1 2 0 3 2 3 5 l1 4
0 -4 c1 -3 3 -5 7 -6z m723 -55 c7 -6 7 -19 1 -25 -6 -7 -19 -7 -25 -1 -7 6
-7 19 -1 25 6 7 19 7 25 1z m-790 -41 c2 -3 6 -7 8 -9 1 -2 3 -5 3 -6 0 -3 14
-15 21 -19 7 -3 14 -4 49 -5 42 -1 43 -1 51 -9 2 -2 2 -3 1 -3 -1 -1 -7 -12
-14 -25 -12 -23 -22 -40 -31 -55 -10 -16 -24 -37 -26 -39 -2 -2 -5 -6 -7 -10
-4 -7 -15 -22 -21 -28 -1 -1 -4 -5 -7 -9 -3 -4 -8 -10 -11 -13 -3 -3 -5 -7 -5
-7 0 -1 -3 -1 -7 0 -5 1 -8 2 -8 1 -2 -1 -22 17 -26 23 -5 6 -5 7 -1 13 1 3 6
8 11 11 4 4 10 11 13 16 l5 9 1 49 c0 45 0 49 -4 57 -6 12 -17 18 -39 20 -11
2 -17 8 -17 18 0 10 6 16 17 18 12 1 19 3 27 7 8 4 12 3 17 -5z m241 -19 c5
-5 6 -7 6 -17 0 -10 -1 -12 -6 -17 -5 -5 -7 -6 -17 -6 -10 0 -12 1 -17 6 -5 5
-6 7 -6 17 0 10 1 12 6 17 5 5 7 6 17 6 10 0 12 -1 17 -6z m509 -26 c4 -4 7
-6 5 -6 -4 0 -2 -14 3 -26 15 -37 14 -56 -5 -56 -9 0 -14 4 -21 19 -13 28 -22
31 -79 31 -44 0 -50 -1 -61 -9 -7 -5 -19 -28 -19 -35 0 -11 -19 -20 -34 -16
-9 2 -18 10 -18 16 0 8 -8 21 -14 24 -8 3 -28 2 -36 -2 -8 -5 -9 -5 -19 0 -10
5 -19 15 -19 22 0 3 -1 6 -1 8 0 2 0 3 1 4 1 1 4 6 8 11 6 10 15 16 26 20 2 0
64 1 139 0 l136 0 8 -5z m-1245 -19 c21 -9 20 -45 -2 -54 -10 -5 -28 -1 -34 6
-9 10 -9 32 0 42 7 8 24 11 36 6z m833 -3 c10 -9 3 -26 -10 -26 -8 0 -15 7
-15 15 0 13 16 20 25 11z m-599 -2 c5 -6 5 -12 0 -17 -11 -13 -29 3 -18 17 4
5 13 5 18 0z m1138 -15 c21 -9 20 -45 -2 -54 -10 -5 -28 -1 -34 6 -9 10 -9 32
0 42 7 8 24 11 36 6z m-1233 -52 c5 -8 1 -16 -8 -16 -9 0 -13 8 -8 16 2 3 5 5
8 5 3 0 6 -2 8 -5z m665 -24 c3 -3 4 -7 4 -14 0 -13 -6 -19 -19 -19 -13 0 -19
6 -19 19 0 7 1 11 4 14 7 8 23 8 30 0z m194 -20 c10 -13 2 -31 -14 -31 -16 0
-25 19 -13 31 7 7 21 7 27 0z m-931 -11 c4 -2 8 -8 17 -22 6 -11 13 -24 15
-28 13 -20 -1 -35 -22 -23 -55 28 -59 33 -54 52 4 14 6 18 12 21 12 4 20 4 32
0z m601 -74 c8 -8 14 -16 14 -18 0 -1 1 -4 1 -6 0 -5 -4 -13 -19 -31 0 -1 -7
-9 -13 -18 -7 -9 -14 -18 -15 -19 -2 -2 -6 -6 -9 -10 -3 -4 -10 -13 -16 -19
-11 -13 -68 -70 -91 -92 l-16 -14 -4 6 c-5 6 -5 7 -5 48 0 41 0 42 5 49 3 5 6
8 7 8 5 0 90 41 109 52 3 3 7 7 9 10 4 8 5 33 1 37 -1 1 -2 7 -2 12 0 15 8 21
24 19 4 0 11 -6 20 -14z m-436 -19 c14 -6 18 -21 12 -42 -2 -8 -5 -15 -6 -16
-1 -1 -3 -7 -5 -13 -3 -10 -3 -25 -3 -111 l0 -100 -5 -5 c-9 -8 -24 -7 -32 1
l-5 7 0 102 c0 115 1 109 -15 133 -11 18 -12 24 -3 32 4 3 7 5 8 5 0 0 8 2 17
5 16 5 28 5 37 2z m1158 -28 l-5 -5 -4 4 -5 5 4 4 5 5 4 -4 5 -5 -4 -4z m-213
-38 c2 -2 3 -3 2 -3 -1 0 -1 -1 0 -2 2 -2 2 -9 2 -16 0 -7 0 -21 1 -30 2 -18
-1 -34 -8 -53 -2 -5 -5 -20 -8 -32 -2 -12 -5 -23 -5 -25 -2 -9 -10 -32 -14
-39 -3 -7 -6 -10 -13 -13 -9 -5 -11 -5 -49 -5 -68 1 -79 2 -85 9 l-4 5 30 29
c38 38 61 64 96 107 11 14 32 44 43 60 9 12 8 12 12 8z m-1097 -11 c5 -5 6 -7
6 -17 0 -10 -1 -12 -6 -17 -5 -5 -7 -6 -17 -6 -10 0 -12 1 -17 6 -5 5 -6 7 -6
17 0 10 1 12 6 17 5 5 7 6 17 6 10 0 12 -1 17 -6z m658 -16 c5 -5 5 -11 0 -16
-10 -10 -27 5 -16 16 4 4 12 4 16 0z m535 -23 c4 -4 5 -7 5 -15 0 -14 -6 -20
-20 -20 -14 0 -20 6 -20 20 0 14 6 20 20 20 8 0 11 -1 15 -5z m-346 -50 c5 -8
1 -16 -8 -16 -9 0 -13 8 -8 16 2 3 5 5 8 5 3 0 6 -2 8 -5z m-625 -1 c5 -5 5
-15 0 -20 -9 -9 -24 -2 -24 10 0 8 6 14 14 14 3 0 8 -2 10 -4z m555 -78 c10
-9 4 -26 -9 -26 -14 0 -21 15 -12 25 6 6 15 6 21 1z m-408 -28 c2 -4 4 -12 4
-19 1 -12 1 -14 -3 -18 -6 -7 -16 -7 -22 0 -3 3 -4 7 -4 17 -1 16 1 22 7 27 5
4 6 4 10 2 3 -2 7 -6 8 -9z m-159 -53 c7 -3 11 -12 11 -24 0 -19 -9 -28 -28
-28 -19 0 -28 9 -28 28 0 11 6 24 11 26 6 3 27 2 34 -2z m479 -25 c5 -5 6 -7
6 -16 0 -16 -9 -23 -27 -22 -17 1 -26 25 -13 38 9 9 24 9 34 0z m561 -29 l-5
-5 -4 4 -5 5 4 4 5 5 4 -4 5 -5 -4 -4z m-1623 -124 c3 -3 3 -3 0 -6 -3 -3 -3
-3 -6 0 -3 2 -3 3 -1 6 4 4 4 4 7 0z"/>
<path d="M1539 1907 l7 -1 1 -16 0 -15 1 15 c0 13 1 16 4 17 1 0 -2 0 -8 0 -6
0 -8 0 -5 0z"/>
</g>
</svg>
