<?xml version="1.0" standalone="no"?>
<!DOCTYPE svg PUBLIC "-//W3C//DTD SVG 20010904//EN"
 "http://www.w3.org/TR/2001/REC-SVG-20010904/DTD/svg10.dtd">
<svg version="1.0" xmlns="http://www.w3.org/2000/svg"
 width="1106.000000pt" height="2850.000000pt" viewBox="0 0 1106.000000 2850.000000"
 preserveAspectRatio="xMidYMid meet">
<metadata>
Created by potrace 1.15, written by Peter Selinger 2001-2017
</metadata>
<g transform="translate(0.000000,2850.000000) scale(0.500000,-0.500000)"
fill="#000000" stroke="none">
<path d="M1425 3834 c-13 -5 -24 -17 -27 -30 -2 -8 -2 -33 -2 -92 1 -94 0 -89
23 -111 15 -14 15 -14 15 -25 0 -15 -6 -21 -23 -20 -6 0 -17 6 -17 8 0 1 -4 5
-8 10 -12 14 -22 18 -40 19 -13 0 -15 1 -21 6 -4 4 -6 7 -5 10 1 6 -4 20 -11
30 -3 4 -5 7 -5 6 0 -1 -4 2 -9 8 -9 9 -12 19 -7 19 2 0 2 5 1 16 -1 18 -3 24
-10 32 -6 8 -7 25 -1 32 7 9 26 8 37 -2 9 -8 13 -10 24 -10 14 0 19 3 25 15 5
12 6 26 4 36 -3 12 -20 24 -37 26 -12 1 -82 7 -94 7 -18 1 -32 -6 -42 -19 -9
-12 -5 -32 10 -45 15 -12 17 -14 19 -23 7 -28 -17 -47 -44 -35 -16 8 -39 34
-34 40 2 1 3 11 4 23 l0 22 -13 14 c-16 16 -19 19 -30 24 -33 15 -50 13 -62
-9 l-5 -11 0 -61 c0 -43 1 -62 3 -64 2 -2 1 -2 -1 -1 -2 1 -3 1 0 -1 3 -4 3
-18 0 -22 -3 -2 -2 -2 0 -1 2 1 3 1 1 -1 -2 -2 -2 -11 -2 -26 l0 -23 -6 -6 -6
-6 -79 0 c-44 0 -81 -1 -84 -2 -8 -2 -22 -2 -31 1 -7 2 -29 16 -41 26 -2 2 -8
3 -15 3 -11 0 -14 -1 -25 -8 -14 -8 -22 -9 -28 -3 -4 4 -5 11 -2 19 3 8 3 26
0 35 -3 7 -4 9 -10 13 -2 1 -12 8 -21 15 -17 11 -19 12 -28 12 -12 -1 -21 -4
-27 -10 -3 -2 -12 -10 -20 -16 -14 -10 -30 -28 -48 -52 -3 -3 -5 -7 -6 -8 -2
-2 -12 -8 -14 -8 -1 0 -4 2 -7 3 -4 3 -4 5 -3 12 1 4 2 16 3 25 2 20 7 29 21
36 16 7 43 39 53 61 6 14 0 37 -11 40 -2 1 -4 2 -4 3 0 5 -49 11 -56 7 -2 -1
-2 -1 -1 0 2 4 -4 4 -76 11 -24 2 -48 4 -52 5 -82 8 -98 9 -106 7 -14 -4 -20
-15 -23 -40 -2 -18 -1 -17 -22 -30 -21 -13 -27 -22 -29 -54 -3 -56 -3 -61 0
-78 4 -23 4 -27 -2 -30 -7 -4 -12 -3 -22 1 -7 4 -23 5 -31 3 -6 -2 -20 -15
-20 -19 0 -1 -1 -4 -3 -6 -14 -19 -20 -25 -26 -30 -10 -7 -13 -15 -13 -27 0
-9 1 -11 5 -15 20 -18 64 -17 76 0 5 7 11 24 11 30 0 8 4 13 11 16 10 4 17 1
32 -15 7 -6 14 -12 16 -13 2 0 7 -2 10 -3 3 -1 11 -2 18 -2 14 0 18 -3 20 -19
1 -14 -2 -25 -8 -30 -11 -10 -13 -11 -15 -11 -3 0 -4 -6 -4 -21 0 -14 0 -14 8
-21 12 -11 22 -18 29 -21 3 -1 9 -4 13 -6 4 -2 9 -3 10 -3 1 0 4 -2 7 -5 11
-11 4 -31 -12 -31 -9 0 -13 3 -26 14 -4 4 -14 10 -22 14 -10 5 -18 11 -29 22
-15 16 -16 16 -26 16 -9 0 -11 -1 -17 -8 -5 -4 -10 -11 -12 -16 -3 -9 -8 -52
-6 -53 0 -1 -2 -4 -6 -7 -6 -5 -8 -6 -19 -6 -19 0 -37 -10 -39 -21 0 -2 -2 -7
-4 -11 -1 -4 -2 -8 -2 -9 2 -2 -4 -19 -8 -22 -10 -9 -24 -11 -37 -4 -8 3 -11
8 -18 31 -2 7 -7 16 -10 20 -5 7 -6 7 -18 7 -15 -1 -17 -2 -21 -16 -3 -11 -3
-12 4 -38 9 -31 15 -44 26 -51 9 -6 21 -11 26 -10 2 1 6 -2 10 -5 l6 -6 -1
-24 c0 -22 0 -26 4 -34 l5 -10 14 1 c11 0 15 0 15 -2 0 -2 3 4 7 12 9 17 15
22 25 22 11 0 18 -7 18 -17 0 -9 -2 -13 -12 -25 -7 -9 -20 -33 -20 -38 0 -4
-10 -14 -14 -14 -3 0 -27 -10 -28 -12 0 -1 -2 -4 -4 -6 -10 -11 -10 -12 -10
-118 l0 -99 5 -10 c6 -11 13 -18 32 -26 6 -2 12 -7 13 -9 3 -5 2 -20 -3 -32
-8 -22 -6 -35 7 -44 14 -10 25 -13 47 -10 11 1 22 3 24 4 2 1 13 3 23 5 11 2
21 5 26 9 l8 5 0 14 c1 13 0 16 -3 23 -10 15 -4 32 12 32 9 0 18 -5 37 -19 17
-12 20 -14 33 -13 8 1 9 1 14 -8 5 -8 5 -10 5 -32 0 -23 2 -34 7 -40 2 -2 2
-4 2 -5 -1 -1 1 0 4 1 3 1 10 2 15 2 8 0 10 -1 11 -4 0 -4 1 -3 1 1 0 8 8 15
16 15 3 0 9 2 14 5 4 3 10 5 11 5 4 0 13 12 20 25 6 14 11 17 25 17 15 0 22
-7 22 -23 0 -13 -4 -19 -17 -24 -25 -9 -30 -15 -43 -45 -3 -9 -11 -13 -24 -13
-14 0 -22 5 -24 14 -1 3 -2 5 -2 3 0 -1 -1 -1 -4 2 -2 3 -4 4 -4 3 0 -1 -1 0
-3 2 -2 2 -5 3 -7 3 -2 0 -4 1 -4 2 0 1 -4 1 -10 2 -8 0 -10 -1 -13 -4 l-4 -5
-152 1 c-167 0 -163 0 -174 -12 -10 -12 -10 -22 -2 -51 4 -14 9 -29 11 -33 8
-15 23 -26 40 -28 6 0 11 -2 14 -5 5 -5 5 -5 3 -18 -1 -6 -3 -16 -4 -21 0 -5
-2 -12 -3 -16 -3 -12 6 -40 15 -45 4 -3 9 -15 9 -22 0 -6 -2 -9 -16 -23 -11
-10 -19 -20 -24 -29 -7 -15 -15 -21 -32 -28 -8 -3 -27 -15 -36 -23 -3 -2 -7
-5 -9 -5 -3 -1 -5 -2 -4 -3 1 -1 0 -2 -1 -3 -1 -1 -2 -9 -2 -18 0 -19 -1 -18
23 -32 9 -5 21 -13 26 -16 11 -8 13 -8 33 -11 10 -2 16 -2 25 0 16 4 18 3 23
-8 2 -5 5 -10 6 -12 1 -2 3 -7 4 -11 3 -13 10 -21 25 -31 33 -22 49 -32 54
-34 8 -3 23 -2 31 2 8 5 69 72 75 84 3 5 5 8 5 7 0 -1 4 -2 10 -3 5 0 13 0 18
-1 6 0 10 -1 15 -6 l6 -6 -1 -68 c0 -72 0 -76 9 -86 5 -6 16 -13 19 -13 3 0
10 -8 10 -12 0 -4 -7 -12 -10 -12 -7 0 -21 -13 -25 -24 -4 -9 -4 -37 0 -47 4
-9 14 -21 18 -21 2 0 3 -1 3 -2 0 -2 2 -2 39 -3 43 -1 53 1 58 13 4 11 4 24
-1 34 -6 10 -5 18 4 46 5 16 7 21 11 22 9 5 12 -1 13 -24 1 -19 1 -20 9 -32
17 -26 23 -31 42 -35 9 -2 11 -2 23 2 21 8 27 16 33 45 2 10 7 20 9 19 1 -1 2
0 2 1 0 1 3 4 6 7 3 4 7 13 11 24 3 10 8 22 10 27 13 23 13 27 13 85 l-1 54 6
6 6 6 28 -1 c34 0 43 1 51 7 5 5 6 6 6 19 1 13 1 14 -4 17 -11 6 -23 20 -27
32 -7 17 -15 25 -32 35 -18 10 -22 13 -24 21 -4 10 -11 14 -28 14 -13 0 -19
-1 -21 -3 -2 -2 -12 -6 -28 -11 -8 -3 -21 -9 -28 -14 -28 -18 -35 -28 -44 -61
-6 -23 -9 -29 -19 -33 -15 -6 -27 6 -30 31 -1 11 3 20 14 30 8 7 15 20 15 28
0 4 -1 16 -3 28 l-4 20 5 5 c6 6 43 12 70 11 26 0 41 9 45 29 2 8 6 12 19 21
24 14 28 26 28 64 l-1 25 6 6 6 6 73 -1 74 0 24 6 c28 7 31 7 51 -5 26 -16 21
-15 141 -15 103 1 108 1 123 6 9 2 16 5 17 6 0 1 1 2 3 2 1 0 4 3 6 8 2 4 5 8
6 8 2 2 1 85 -1 91 -1 2 -1 4 -1 5 0 1 -2 6 -4 12 -5 15 -5 26 2 46 3 9 5 20
5 24 0 5 1 6 2 4 2 -3 3 -2 2 2 0 2 6 6 6 5 1 -1 1 11 2 26 l1 28 1 -28 c0
-34 1 -38 18 -56 16 -18 18 -26 11 -49 -5 -15 -6 -20 -5 -42 0 -27 -4 -49 -10
-57 -5 -6 -6 -27 -2 -36 6 -14 50 -50 63 -52 1 0 8 -2 15 -4 7 -1 18 -3 25 -4
19 -2 25 -7 25 -26 0 -10 -1 -12 -6 -17 -3 -3 -7 -6 -9 -6 -18 -1 -24 0 -54
16 -20 10 -22 10 -32 9 -13 -1 -21 -5 -36 -20 -15 -13 -18 -18 -20 -30 -1 -7
-1 -9 1 -9 2 0 1 -1 -2 -2 -4 -1 -6 -3 -6 -4 0 -1 -1 -2 -3 -2 -2 0 -4 -1 -4
-2 -1 -2 -8 -3 -31 -2 -35 0 -39 0 -51 -8 -14 -10 -17 -23 -7 -40 3 -6 8 -17
10 -23 7 -21 20 -33 36 -33 3 0 13 3 23 6 16 6 23 7 36 6 2 0 6 -3 9 -6 9 -9
9 -23 -3 -45 -14 -26 -13 -22 -13 -115 0 -79 0 -86 4 -94 5 -13 12 -19 31 -29
11 -5 13 -10 13 -27 0 -16 1 -26 4 -28 1 -1 3 -4 6 -8 9 -12 24 -29 32 -34 15
-10 39 -10 83 1 29 7 42 12 68 24 34 17 43 26 49 54 3 14 -4 31 -19 47 -7 7
-15 18 -18 23 l-5 10 9 8 c4 5 11 10 15 12 15 8 24 15 30 26 3 5 3 16 4 74 l1
68 5 6 c6 6 6 6 21 9 11 2 18 1 46 -5 33 -7 45 -1 45 22 0 8 1 13 3 14 1 0 1
1 -1 1 -4 0 -8 8 -8 17 0 17 19 22 46 14 14 -5 18 -10 18 -25 -1 -14 4 -32 10
-37 9 -9 13 -9 102 -9 83 0 87 0 95 4 7 3 17 15 17 20 0 1 1 4 2 7 1 3 2 8 2
10 0 4 7 17 10 17 3 0 23 19 27 27 6 10 6 17 2 32 -3 11 -12 20 -41 44 -10 8
-25 7 -45 -3 -9 -4 -16 -8 -17 -7 0 0 -12 1 -26 2 -23 1 -26 1 -33 -3 -10 -5
-13 -5 -14 1 -1 3 -2 5 -3 5 -2 0 -3 10 -3 26 0 17 3 21 20 25 14 4 18 8 20
19 2 12 -2 22 -10 28 -4 2 -7 5 -7 6 0 1 -2 2 -4 2 -4 0 -3 1 2 6 l7 5 55 1
c57 1 60 2 78 11 16 8 36 39 36 56 0 14 -4 22 -20 37 -17 16 -45 42 -56 51 -4
3 -8 7 -10 9 -5 6 -33 29 -40 34 -3 2 -12 7 -18 9 -18 7 -24 12 -31 23 -6 10
-14 18 -16 13 0 -1 -1 -1 -1 1 0 2 -2 7 -4 11 -5 7 -5 11 -6 46 -1 20 0 37 0
37 1 0 4 4 6 9 3 5 7 10 9 11 3 1 7 6 10 11 12 20 16 23 28 23 11 0 17 -4 24
-17 10 -21 27 -26 51 -18 14 6 22 6 42 2 17 -3 25 -2 36 3 10 5 12 9 12 25 0
10 -1 14 -4 17 -6 6 -9 16 -9 37 0 11 -1 22 -3 25 -2 5 -43 46 -83 84 -10 9
-25 21 -32 25 -8 4 -19 13 -25 19 -14 14 -18 16 -32 16 -12 0 -18 -3 -18 -9 0
-3 -1 -3 -2 1 -1 2 -3 4 -4 4 -4 0 -6 15 -6 41 0 26 0 27 5 33 5 5 7 6 16 6 5
0 16 -1 23 -3 18 -4 73 -4 90 0 40 10 69 42 58 66 -4 9 -16 13 -37 15 -17 1
-18 1 -28 9 -14 11 -26 14 -51 13 -4 0 -9 0 -11 0 -5 0 -15 11 -15 16 0 2 -3
10 -6 17 -7 14 -14 21 -32 30 -6 3 -12 7 -14 9 -8 13 -12 22 -14 32 -4 22 -10
28 -29 28 -12 0 -12 0 -20 -11 -11 -14 -15 -25 -17 -45 -2 -23 -4 -25 -20 -34
-17 -8 -32 -20 -32 -25 0 -2 -3 -6 -6 -10 -6 -6 -7 -6 -16 -5 -10 3 -25 9 -30
13 -1 2 -4 3 -6 3 -2 0 -5 1 -7 3 -5 4 -11 4 -18 0 -7 -4 -5 -4 -13 3 l-6 6 7
5 c5 4 7 4 10 3 2 -2 7 -3 11 -4 24 -6 32 -5 47 10 18 16 25 32 19 43 0 1 -1
3 -1 4 -1 4 -14 22 -19 25 -15 10 -14 42 1 49 7 4 24 5 30 1 8 -4 53 4 53 10
0 0 7 1 16 0 14 0 20 1 38 6 26 8 30 8 56 0 19 -5 23 -6 49 -6 25 0 31 1 38 4
10 5 11 7 12 24 1 11 1 14 -2 16 -7 6 0 20 10 20 8 0 22 -15 20 -21 -1 -2 0
-3 3 -3 2 0 4 -1 4 -2 0 -1 28 5 29 6 0 1 1 6 3 13 3 15 1 21 -11 39 -9 14
-12 17 -26 27 -13 9 -21 17 -28 28 -8 12 -14 18 -38 41 -44 41 -44 41 -61 46
-17 5 -23 5 -39 -1 -14 -5 -22 -11 -26 -19 -2 -3 -4 -7 -6 -8 -1 -2 -7 -10
-12 -18 -6 -8 -14 -20 -19 -27 -4 -6 -8 -13 -8 -15 0 -2 -1 -2 -1 0 -1 1 -5 5
-8 9 -4 3 -7 7 -7 8 0 5 -29 31 -36 31 -1 0 -6 3 -12 7 -5 4 -11 7 -12 7 -3 0
-9 13 -8 19 1 8 7 15 14 15 6 0 15 -5 18 -8 2 -3 12 -5 25 -6 17 0 17 0 24 23
6 22 13 33 24 43 6 5 10 10 10 10 -1 1 -1 6 -1 13 0 6 -1 11 -2 11 -1 0 -2 2
-4 5 -2 4 -4 6 -14 8 -2 1 -13 2 -26 3 -19 2 -25 2 -39 -1 -22 -4 -27 -4 -51
4 -20 6 -27 7 -65 10 -9 1 -20 2 -24 2 -9 1 -39 3 -53 4 -6 0 -14 -1 -19 -3z
m-1061 -62 c1 0 5 -3 8 -6 5 -5 6 -7 6 -18 0 -11 -1 -13 -6 -18 -6 -6 -7 -6
-20 -6 -14 0 -22 8 -23 22 0 11 4 20 12 24 5 3 9 3 23 2z m181 -16 c11 -10 3
-28 -11 -28 -9 0 -16 6 -16 16 0 14 17 22 27 12z m946 -2 c9 -5 14 -29 6 -40
-3 -5 -4 -12 -3 -24 0 -3 2 -8 5 -11 4 -5 6 -6 16 -5 7 0 15 1 18 3 11 5 17 5
35 1 2 -1 5 -3 8 -6 4 -4 4 -5 3 -17 -2 -23 -10 -30 -30 -29 -18 1 -46 1 -61
-1 l-16 -2 -6 7 c-5 5 -6 7 -6 16 0 6 1 12 2 14 3 5 3 27 1 34 -1 2 -4 8 -8
13 -14 19 -9 45 9 49 8 2 21 1 27 -2z m-377 -73 c6 -7 6 -22 -1 -28 -6 -7 -21
-7 -28 -1 -7 7 -7 23 0 29 7 8 22 8 29 0z m-40 -14 c3 0 -2 -1 -11 -1 -10 -1
-16 0 -16 1 0 2 12 2 27 0z m-631 -63 c0 -4 -1 -9 -2 -12 -4 -19 -4 -24 -3
-31 2 -6 1 -9 -1 -12 -7 -11 -22 -1 -17 12 4 11 10 38 10 44 0 3 1 7 3 9 3 4
4 4 8 1 2 -3 3 -6 2 -11z m-91 -52 c8 -9 3 -20 -9 -23 -13 -3 -18 13 -9 24 4
4 14 4 18 -1z m1136 -26 c1 0 5 -3 8 -6 5 -5 6 -7 6 -17 0 -18 -14 -56 -23
-62 -15 -9 -43 -1 -43 12 0 2 -1 3 -2 2 0 -1 -7 -2 -14 -2 -12 0 -14 -1 -19
-5 l-5 -4 0 -44 c0 -47 1 -54 11 -71 2 -4 6 -11 9 -16 10 -17 1 -33 -18 -33
-9 0 -11 1 -26 12 -20 15 -31 19 -50 20 -18 0 -30 3 -31 7 -1 2 -3 3 -5 3 -2
0 -1 1 3 3 14 7 29 30 29 44 0 8 -3 17 -8 21 -2 2 -4 5 -4 5 -1 3 -25 13 -28
13 -2 0 -6 3 -9 6 -6 7 -8 20 -3 30 6 13 13 29 18 42 6 18 11 22 28 22 l13 0
13 -14 c15 -15 32 -25 42 -24 3 1 6 1 6 0 0 -1 2 -2 4 -3 5 -3 20 0 20 3 0 1
1 2 3 2 1 0 5 3 8 7 3 5 8 10 11 12 2 3 4 5 4 6 0 4 23 25 30 28 5 2 8 2 22 1z
m-265 -11 c5 -8 -5 -45 -15 -54 -10 -9 -13 9 -6 40 4 18 14 25 21 14z m-181
-16 c2 -2 6 -8 9 -14 2 -5 6 -11 8 -13 8 -6 21 -14 23 -14 5 0 12 -9 12 -15 0
-7 -7 -15 -12 -15 -6 0 -24 -8 -31 -13 -9 -8 -10 -12 -11 -58 -1 -23 -2 -43
-2 -45 -1 -3 2 -25 3 -34 0 -2 -1 -4 -2 -4 -1 -2 -1 -2 0 -2 2 0 2 -1 2 -3 -4
-11 -9 -18 -25 -34 -13 -13 -20 -22 -27 -35 -9 -17 -13 -21 -24 -29 -11 -8
-21 -28 -21 -41 0 -2 -2 -9 -5 -14 -5 -9 -6 -10 -10 -8 -5 2 -11 2 -30 -2 -17
-3 -32 3 -34 13 -2 13 -13 26 -24 31 -6 2 -10 2 -31 2 -6 0 -10 1 -15 5 -15
12 -15 12 -31 12 -14 0 -16 -1 -31 -9 -13 -7 -15 -10 -17 -16 -2 -8 -3 -25 0
-26 0 -1 3 -4 5 -8 3 -7 3 -8 0 -13 -5 -6 -13 -7 -26 -5 -12 3 -19 8 -19 17 0
4 1 7 2 7 1 0 2 2 3 5 1 3 2 5 3 5 1 0 2 1 2 3 0 1 1 3 2 3 4 2 7 22 6 29 -2
9 -2 21 0 29 5 17 36 48 48 48 5 0 12 3 17 9 2 3 3 7 3 19 0 15 0 15 -7 19 -3
3 -8 7 -10 9 -13 11 -27 13 -48 6 -6 -2 -13 -4 -16 -4 -3 0 -7 2 -9 4 -8 8 -4
22 11 39 15 18 20 20 38 19 3 0 11 -6 20 -14 8 -7 21 -17 29 -21 7 -4 15 -8
16 -10 2 -3 3 -21 1 -32 0 -3 0 -6 1 -6 1 -1 2 -3 2 -5 0 -3 1 -4 1 -3 1 0 4
-2 8 -6 4 -3 9 -8 12 -11 3 -2 6 -7 6 -10 4 -18 12 -36 19 -42 11 -9 41 -13
53 -7 4 2 7 4 7 5 3 21 3 32 1 32 -4 0 -19 17 -22 26 -5 15 -4 18 13 29 4 2 8
7 10 10 4 7 6 22 4 28 -1 2 -2 8 -3 11 0 4 -2 10 -3 13 -3 7 -3 8 -4 11 0 1
-6 8 -13 16 l-13 15 0 14 c0 8 -1 16 -1 17 -3 11 -4 13 -7 16 -1 2 -7 3 -12 3
-5 0 -13 2 -18 5 -5 2 -11 4 -13 4 -6 0 -8 2 -11 10 -2 7 -2 8 1 11 3 3 4 3
23 -2 20 -5 28 -6 31 -3 5 5 23 7 74 8 52 1 59 2 61 4 1 1 4 3 9 6 4 2 9 7 10
9 5 7 17 15 22 15 2 -1 5 -3 7 -5z m-371 -9 c0 -1 3 -2 6 -3 8 -2 25 -14 29
-20 6 -9 5 -20 -1 -26 -6 -6 -16 -7 -31 -1 -28 9 -36 17 -36 32 0 14 6 20 21
20 6 0 11 -1 12 -2z m-127 -27 c0 -4 -2 -27 -5 -51 -3 -24 -6 -47 -6 -51 -1
-4 -2 -12 -2 -16 -1 -4 -2 -11 -2 -14 0 -3 -2 -10 -4 -14 -3 -8 -4 -8 -6 -4
-2 2 -4 6 -4 9 -1 2 -2 4 -3 4 -1 0 -1 3 -2 6 0 7 -9 27 -12 29 -4 2 -10 18
-10 26 0 9 1 11 16 27 6 6 12 14 14 19 4 8 9 34 7 36 0 1 2 4 6 7 l6 6 4 -6
c3 -3 4 -7 3 -13z m608 -99 c5 -5 5 -11 0 -16 -10 -10 -27 5 -16 16 4 4 12 4
16 0z m-608 -70 c14 -8 20 -16 20 -28 0 -14 -6 -20 -20 -20 -8 0 -11 1 -15 5
-5 5 -5 6 -4 22 1 9 1 17 1 18 1 2 1 2 2 2 1 -1 2 0 3 2 1 4 3 4 13 -1z m1180
-8 c7 -7 2 -20 -7 -19 -7 1 -24 7 -20 7 2 0 3 2 3 4 0 2 2 5 5 6 3 2 5 3 5 4
0 3 11 1 14 -2z m-61 -17 c3 -2 8 -3 10 -3 1 0 3 -1 3 -3 0 -2 -1 -3 -2 -3 -1
0 -2 -1 -1 -2 1 -1 -1 -4 -5 -6 -3 -1 -6 -4 -6 -4 0 -3 -12 -2 -15 1 -6 6 -7
15 -2 21 4 6 6 6 18 -1z m-1366 0 c5 -5 7 -16 3 -23 -4 -7 -15 -10 -23 -7 -19
8 -13 35 7 35 6 0 9 -1 13 -5z m344 -24 c3 -3 3 -3 0 -6 -3 -3 -3 -3 -6 0 -3
2 -3 3 -1 6 4 4 4 4 7 0z m565 -3 c7 -5 14 -25 15 -45 1 -9 3 -16 4 -18 2 -2
2 -3 1 -3 -1 0 -3 -4 -4 -9 -1 -5 -3 -8 -4 -8 -1 1 -2 -17 -2 -39 0 -22 1 -40
2 -39 4 3 7 -19 7 -53 0 -21 1 -36 2 -36 1 -1 0 -2 -2 -2 -3 0 -6 -1 -8 -3 -2
-3 -3 -3 -4 0 0 2 -3 3 -5 3 -3 0 -4 1 -3 1 1 2 -11 12 -19 16 -19 8 -19 34 0
42 9 4 18 12 24 21 4 7 4 10 4 51 0 49 0 49 -13 54 -9 4 -26 4 -30 1 -7 -7 -8
-35 -2 -47 4 -6 3 -7 0 -12 -3 -5 -4 -5 -18 -4 -8 1 -23 2 -33 2 -17 1 -19 2
-25 7 -7 7 -7 14 -1 41 2 11 4 23 5 27 3 26 9 32 36 39 13 3 27 8 36 13 11 7
28 6 37 0z m-799 -33 c6 -1 25 -6 44 -10 34 -7 35 -7 91 -7 l57 -1 7 -5 c4 -4
5 -6 3 -6 -2 0 -3 -1 -3 -2 0 -1 -5 -4 -10 -6 -10 -5 -14 -5 -60 -6 -55 -1
-54 -1 -79 -17 -18 -12 -26 -12 -53 -3 -26 9 -37 14 -51 25 -10 8 -13 9 -21 9
-10 0 -20 -6 -20 -11 0 -2 -1 -3 -2 -3 -1 0 -2 -3 -3 -7 -1 -4 -2 -7 -3 -7 -1
0 -2 -1 -1 -2 0 -1 -1 -3 -3 -5 -8 -7 -26 3 -35 21 -3 7 -5 20 -2 24 3 5 20 8
29 5 6 -2 9 -2 10 -2 1 0 6 -3 12 -6 9 -5 11 -5 18 -3 6 2 8 4 8 6 0 3 5 7 20
14 22 11 28 11 47 5z m1200 -2 c6 -4 8 -8 10 -18 5 -27 14 -41 32 -49 15 -6
18 -9 24 -16 11 -15 20 -23 31 -29 7 -3 13 -5 14 -5 1 0 4 -1 7 -2 2 -2 8 -3
13 -2 5 0 10 -1 11 -1 2 -2 9 -13 8 -13 0 0 1 -6 3 -12 8 -25 4 -36 -11 -40
-10 -3 -34 -3 -35 0 0 1 -2 1 -4 1 -4 -1 -4 -2 0 -8 3 -6 4 -9 1 -19 -8 -28
-9 -29 -32 -37 -9 -3 -23 -9 -31 -13 -23 -10 -39 -9 -50 5 -4 5 -5 14 -2 26 5
17 36 38 59 39 4 1 7 2 7 3 0 0 3 1 7 1 l6 0 0 18 c0 10 -1 17 -1 17 -1 -1 -2
0 -2 1 0 1 -1 2 -2 1 -1 0 -3 0 -4 2 -1 2 -4 3 -5 3 -3 0 -10 4 -18 9 -18 13
-40 24 -51 24 -12 1 -22 -3 -22 -8 0 -2 -2 -4 -3 -5 -2 -1 -3 -2 -2 -2 1 0 -1
-4 -4 -10 -6 -10 -9 -12 -17 -7 -5 3 -30 0 -32 -3 -1 -2 -2 -2 -2 -1 0 5 -6
-4 -6 -10 -1 -5 -1 -6 -1 -1 -2 8 -8 6 -8 -2 0 -3 1 -7 2 -8 2 -4 3 -46 0 -46
-1 0 -3 -2 -5 -4 -2 -3 -4 -4 -4 -3 0 2 -7 3 -39 6 -13 2 -24 9 -27 18 -4 11
-4 14 0 20 4 5 5 5 22 5 12 -1 19 0 25 3 4 1 7 2 7 2 0 -1 3 1 6 5 l6 7 -1 25
c-1 25 0 53 3 51 1 -2 12 21 12 28 0 4 1 5 1 2 1 -2 2 -6 2 -8 1 -3 4 -6 7 -7
6 -3 28 -6 28 -4 0 0 4 5 8 10 7 8 14 25 15 37 0 3 1 8 1 10 1 15 28 24 43 14z
m-380 -112 c0 -15 0 -3 0 25 0 28 0 40 0 26 1 -15 1 -37 0 -51z m133 65 c17
-2 22 -3 25 -6 4 -6 4 -8 0 -14 -4 -4 -7 -4 -32 -5 -27 -2 -29 -1 -33 3 -5 5
-5 15 0 20 5 5 11 5 40 2z m-767 -48 c4 -2 8 -7 10 -11 3 -7 14 -18 30 -28 10
-8 12 -14 10 -31 -1 -9 -8 -18 -14 -18 -6 0 -29 -14 -33 -20 -7 -10 -8 -18 -8
-58 0 -28 1 -40 3 -44 3 -6 15 -17 29 -29 6 -4 10 -9 11 -13 1 -3 3 -9 5 -14
2 -4 4 -9 4 -9 0 -1 8 -2 17 -2 l18 -1 3 7 c2 4 6 9 9 11 7 4 7 4 11 -1 2 -2
4 -5 3 -5 0 -1 -1 -4 -2 -7 0 -3 -2 -10 -3 -15 -1 -5 -3 -18 -4 -29 -1 -17 -2
-22 -6 -26 -3 -3 -4 -7 -4 -19 0 -7 1 -14 2 -15 1 -1 2 -2 1 -3 -1 -2 4 -7 8
-7 9 -2 14 -16 11 -32 -4 -18 -14 -25 -30 -21 -8 2 -16 9 -16 13 0 3 -12 28
-14 29 -1 0 -2 1 -2 2 0 2 -4 6 -9 11 -12 12 -15 16 -16 23 -1 8 2 17 8 23 6
5 6 35 0 35 -5 0 -19 8 -17 9 2 0 1 1 -2 1 -4 0 -7 1 -7 1 -11 3 -13 4 -17 8
-6 6 -9 19 -6 29 4 14 -2 33 -13 41 -5 4 -7 4 -77 4 l-71 0 -6 6 -6 6 0 59 0
59 6 6 6 6 70 -1 c67 0 71 0 82 4 7 2 13 6 14 7 2 4 5 29 3 29 -1 0 -4 5 -6
12 -4 11 -4 12 -1 17 4 6 7 6 16 1z m375 -49 c13 -7 17 -26 7 -41 -7 -11 -12
-32 -10 -46 1 -10 1 -12 -3 -16 -7 -7 -14 -5 -34 7 -10 6 -19 11 -20 10 0 -1
-3 2 -5 6 -3 4 -6 7 -7 7 0 0 -1 7 0 14 1 18 6 26 20 36 5 3 14 10 19 14 15
13 22 15 33 9z m-146 -23 c8 -8 4 -20 -8 -25 -10 -4 -12 -3 -17 3 -4 5 -4 5
-1 13 6 13 18 17 26 9z m-470 -19 c6 -3 12 -16 12 -24 0 -9 -6 -21 -13 -24
-13 -7 -35 -3 -40 8 -4 8 -4 24 0 32 6 12 26 16 41 8z m422 -22 c0 1 1 0 3 -3
3 -6 2 -10 -7 -20 -6 -6 -9 -7 -13 -7 -3 1 -5 2 -5 3 0 1 -1 2 -2 1 -1 0 -1 2
-1 5 0 11 16 26 23 22 1 -2 2 -2 2 -1z m1105 -2 c3 -2 6 -5 7 -7 3 -5 4 -31 1
-39 0 -2 -1 -5 -1 -5 0 -1 -2 -4 -5 -7 -10 -10 -27 -5 -35 12 -6 11 -8 33 -3
40 6 10 25 13 36 6z m-775 -21 c5 -5 5 -15 0 -20 -9 -9 -24 -2 -24 10 0 8 6
14 14 14 3 0 8 -2 10 -4z m-364 -22 c3 -5 2 -8 -4 -11 -5 -3 -6 -3 -9 0 -3 2
-3 4 0 10 3 7 7 8 13 1z m816 -19 c5 -5 5 -9 0 -15 -4 -6 -12 -5 -16 2 -2 5
-2 6 1 11 4 6 9 6 15 2z m-1318 -7 c5 -5 5 -15 0 -20 -9 -9 -24 -2 -24 10 0 8
6 14 14 14 3 0 8 -2 10 -4z m599 -7 c5 -8 1 -16 -8 -16 -9 0 -13 8 -8 16 2 3
5 5 8 5 3 0 6 -2 8 -5z m533 -52 l-5 -5 -4 4 -5 5 4 4 5 5 4 -4 5 -5 -4 -4z
m334 2 c10 -5 17 -20 15 -34 -1 -10 -10 -26 -18 -34 -18 -18 -31 -9 -38 27 -5
22 0 35 14 41 7 3 20 3 27 0z m-770 -15 c0 -1 3 -4 7 -7 5 -3 7 -5 6 -5 -2 0
5 -15 13 -24 13 -16 14 -18 14 -30 0 -10 -1 -13 -6 -20 -24 -31 -27 -39 -21
-66 3 -20 6 -24 20 -32 5 -3 10 -7 11 -8 0 -2 2 -4 3 -5 2 0 3 -2 3 -4 0 -1 2
-5 4 -7 2 -3 4 -8 5 -11 1 -3 3 -8 5 -10 9 -10 9 -34 -1 -42 -10 -9 -24 -11
-37 -4 -8 3 -22 23 -28 38 -1 4 -3 8 -4 9 -1 1 -4 7 -7 15 -3 8 -7 16 -9 19
-4 6 -30 32 -40 41 -50 43 -49 42 -54 55 -2 6 -4 15 -5 19 -1 4 -3 14 -4 22
-4 14 -4 14 0 18 4 4 6 4 13 4 8 -1 29 -6 33 -9 3 -2 14 0 21 4 9 4 18 16 18
24 1 2 4 7 7 11 6 6 7 6 20 6 7 0 13 -1 13 -1z m598 -2 c15 -5 22 -20 18 -37
-3 -10 -5 -12 -20 -22 -5 -3 -9 -7 -9 -8 0 -2 -1 -3 -1 -4 -4 -4 -2 -28 2 -34
7 -10 5 -17 -9 -38 -2 -3 -5 -7 -6 -7 0 -1 -2 -6 -3 -11 -1 -6 -2 -8 -2 -5 0
8 -10 10 -13 2 0 -2 -1 0 -1 3 0 3 -2 9 -5 12 -3 3 -5 6 -5 7 -1 0 -6 4 -13 7
-12 6 -13 6 -17 7 0 0 -6 5 -12 10 -26 25 -40 32 -64 29 -20 -2 -27 -2 -34 2
-9 4 -24 3 -41 -4 -22 -9 -25 -7 -28 20 -4 28 -4 48 1 51 11 6 21 0 23 -14 3
-17 24 -24 42 -13 9 5 11 6 30 5 30 0 34 1 55 23 12 12 19 18 24 19 11 3 80 2
88 0z m-303 -10 c-1 -2 4 -13 7 -15 2 0 9 0 16 1 l12 1 0 -11 c0 -6 -1 -10 -2
-9 -2 4 -26 5 -27 2 0 -2 -2 -3 -3 -3 -2 0 -3 -4 -4 -12 0 -7 -1 -13 -1 -14
-1 -1 -3 43 -2 51 0 6 0 9 -2 9 -1 0 -1 1 1 2 3 2 7 1 5 -2z m-705 -4 c3 -3 6
-7 6 -9 1 -15 1 -19 3 -23 1 -5 0 -6 -6 -9 -7 -3 -25 -4 -31 -1 -2 0 -6 3 -9
5 -5 4 -5 5 -3 19 2 19 7 24 23 24 10 0 12 -1 17 -6z m695 4 c-2 -1 -3 -16 -4
-61 l0 -60 -1 62 c0 57 0 61 4 61 2 0 2 -1 1 -2z m-840 -6 c8 -3 12 -8 14 -19
0 -8 -2 -16 -8 -21 -4 -3 -19 -6 -19 -4 0 1 -1 2 -3 2 -2 0 -6 3 -9 6 -5 5 -6
7 -6 15 0 19 11 26 31 21z m1266 -88 c8 -7 7 -20 -1 -27 -5 -4 -20 -10 -32
-12 -33 -7 -42 -3 -42 18 0 14 5 20 19 22 6 1 11 2 12 2 1 0 10 1 21 1 17 0
19 0 23 -4z m-564 -5 c4 -5 4 -6 0 -12 -2 -4 -7 -10 -12 -13 -10 -7 -21 -18
-32 -31 -9 -11 -16 -15 -28 -17 -19 -3 -20 21 -2 47 9 11 26 20 52 27 18 5 17
5 22 -1z m633 -51 c2 -1 7 -8 10 -15 5 -11 11 -19 17 -20 1 -1 6 -2 12 -3 7
-2 11 -2 14 0 10 4 28 3 34 -3 6 -4 6 -6 6 -20 0 -14 0 -16 -6 -20 -7 -6 -17
-6 -49 -1 -32 5 -66 18 -77 29 -11 11 -3 40 13 52 5 3 20 4 26 1z m-944 -85
l-5 -5 -4 4 -5 5 4 4 5 5 4 -4 5 -5 -4 -4z m-208 -7 c9 -9 2 -24 -10 -24 -9 0
-14 5 -14 13 0 9 6 15 14 15 3 0 8 -2 10 -4z m879 -4 c4 -6 4 -24 -1 -30 -7
-9 -27 -9 -34 0 -5 6 -5 24 0 30 7 9 27 9 35 0z m441 -6 c5 -6 5 -12 0 -18 -7
-8 -22 -2 -22 9 0 11 15 17 22 9z m-715 -20 c4 -6 4 -8 -1 -14 -5 -6 -12 -5
-16 2 -6 11 10 22 17 12z m541 -17 c2 -5 3 -6 0 -7 -1 0 -2 -1 -1 -2 1 0 4 -6
6 -13 2 -7 6 -14 10 -18 3 -3 8 -9 10 -11 2 -3 5 -6 7 -7 3 0 2 -1 0 -1 -2 0
-6 -4 -9 -8 -3 -5 -13 -18 -21 -29 -9 -11 -20 -29 -25 -38 -13 -28 -45 -58
-73 -70 -11 -5 -22 -17 -23 -27 -1 -5 -6 -13 -12 -18 -10 -11 -23 -5 -23 11 0
9 -5 26 -10 32 -8 9 -34 11 -76 6 -22 -3 -34 3 -34 15 0 11 6 15 23 13 30 -2
38 -1 47 10 10 13 10 34 1 50 -8 13 -17 18 -38 20 -5 1 -15 2 -22 2 -22 2 -32
11 -32 28 1 17 15 26 34 20 10 -3 25 -9 25 -11 0 -3 24 -2 39 2 10 2 22 4 33
4 13 0 19 1 26 4 10 5 18 11 18 15 0 2 1 3 2 3 1 0 2 2 3 4 2 7 12 16 18 16 5
0 17 -10 17 -14 0 -1 1 -3 3 -4 1 -2 3 -5 4 -7 7 -12 27 -18 38 -11 6 3 15 21
15 29 0 1 1 3 3 4 2 0 2 1 0 1 -4 0 -4 4 0 10 5 6 13 5 17 -3z m-1209 -4 c5
-1 9 -3 10 -4 0 -2 2 -3 4 -3 2 0 3 -1 2 -2 -1 -1 0 -2 0 -2 1 0 2 -2 2 -4 1
-13 -44 -13 -52 0 -3 6 -3 6 1 10 4 4 16 8 22 7 2 0 7 -1 11 -2z m-147 -16 c7
-4 14 -6 15 -6 0 1 1 1 1 -1 0 -1 2 -5 4 -9 3 -4 5 -10 5 -14 0 -3 1 -9 3 -14
l2 -7 14 0 c9 1 15 2 21 5 18 10 33 4 33 -13 0 -18 -18 -24 -34 -11 -7 6 -14
8 -21 7 -1 0 -5 0 -9 0 -7 0 -8 -1 -9 -6 -2 -11 -9 -13 -41 -13 -16 0 -32 -1
-35 -1 -5 -1 -6 0 -9 4 -2 5 -2 6 3 17 3 7 6 12 7 13 3 2 4 14 2 26 -4 20 1
29 17 32 9 2 16 0 31 -9z m-97 -3 c6 -6 6 -13 1 -19 -9 -10 -26 -4 -26 9 0 13
16 19 25 10z m332 -8 c8 -8 8 -24 -1 -32 -7 -8 -23 -9 -30 -3 -5 5 -14 22 -14
28 0 4 10 11 15 9 0 0 1 1 1 2 0 2 7 3 16 2 4 0 9 -2 13 -6z m-373 -86 c12
-11 8 -34 -6 -34 -13 0 -22 9 -22 22 0 14 17 21 28 12z m159 -65 c4 1 9 -5 9
-11 0 -7 31 -23 40 -22 7 1 11 0 16 -6 6 -5 6 -7 6 -19 -1 -29 -12 -41 -51
-52 -32 -9 -52 -20 -67 -39 l-5 -6 -13 7 c-8 4 -15 9 -17 12 -4 6 -6 20 -3 24
1 2 2 3 1 3 0 0 1 3 4 6 3 3 6 6 7 6 4 0 29 17 36 24 14 14 29 52 30 74 0 4 1
5 1 3 1 -3 2 -4 6 -4z m1402 -8 c9 -15 10 -43 1 -51 -8 -9 -31 -9 -40 -1 -9 8
-10 34 -1 42 3 3 20 10 21 10 1 -1 2 0 2 1 0 1 1 2 2 1 0 0 2 0 4 1 4 3 9 1
11 -3z m-521 -24 c-4 -4 -5 -5 -7 -3 -1 2 -4 3 -6 4 -5 1 -6 1 -4 5 1 2 2 3 5
2 2 0 4 1 5 3 1 2 2 2 6 -2 l5 -5 -4 -4z m-1110 -9 c2 -3 4 -6 4 -7 0 -6 9
-30 12 -33 4 -4 8 -11 8 -15 0 -2 1 -3 2 -3 1 0 2 -1 1 -2 0 0 0 -2 1 -4 1 -2
-3 -17 -7 -24 -2 -3 -13 -8 -23 -10 -7 -1 -14 1 -14 5 0 1 -2 3 -4 5 -5 4 -9
18 -7 26 1 3 4 10 6 16 6 12 7 14 10 37 1 6 4 13 7 13 0 0 2 -2 4 -4z m82 -1
c9 -6 19 -26 23 -45 3 -13 -6 -22 -20 -22 -6 0 -9 2 -17 10 l-10 9 -1 21 c-1
19 -1 21 3 25 6 6 13 6 22 2z m414 -80 c3 -3 4 -7 4 -14 0 -13 -6 -19 -19 -19
-13 0 -19 6 -19 19 0 7 1 11 4 14 7 8 23 8 30 0z m809 -7 c8 -11 3 -31 -11
-42 -6 -4 -18 -26 -22 -38 -4 -14 -18 -20 -34 -16 -11 2 -16 7 -18 18 -4 16 0
25 19 39 7 6 15 14 19 21 9 16 14 22 20 23 3 1 6 2 7 2 5 1 16 -3 20 -7z
m-961 -72 c34 -9 41 -14 41 -34 0 -19 -8 -27 -27 -27 -14 0 -16 2 -32 18 -20
20 -25 33 -16 42 6 6 12 6 34 1z m139 -57 c12 -12 3 -31 -13 -31 -11 0 -18 7
-18 18 0 11 7 18 18 18 6 0 9 -1 13 -5z m786 -44 c3 -2 8 -8 11 -15 l6 -11
-10 -10 c-6 -5 -11 -9 -13 -9 -2 0 -6 0 -9 0 -11 0 -12 0 -18 6 -5 5 -6 7 -6
17 0 14 3 20 12 24 7 3 21 2 27 -2z"/>
<path d="M949 3311 c-5 -2 -10 -3 -11 -3 -4 0 -8 -13 -8 -26 0 -18 4 -21 25
-21 13 -1 15 0 23 5 5 3 12 6 15 6 4 0 5 1 2 1 -3 1 -3 3 -3 19 0 9 0 17 -1
17 -1 0 -3 1 -5 2 -2 1 -2 1 -1 -1 1 -2 0 -2 -2 1 -5 4 -20 4 -34 0z"/>
<path d="M760 2477 c-4 -2 -10 -9 -14 -14 -3 -6 -7 -12 -9 -13 -1 -2 -4 -5 -5
-8 -1 -2 -3 -5 -4 -6 -2 -2 -9 -11 -16 -22 -14 -20 -16 -27 -12 -41 2 -7 4 -9
13 -14 6 -3 12 -5 14 -5 3 0 11 -8 20 -23 6 -10 9 -12 20 -17 7 -3 14 -6 17
-7 13 -3 42 -28 76 -68 29 -34 38 -40 57 -42 13 -2 28 3 40 12 12 9 25 16 33
18 4 0 9 1 11 2 2 0 11 2 19 3 20 3 28 6 34 11 4 4 11 15 9 15 0 0 0 3 2 7 2
4 3 15 3 31 0 29 -1 35 -13 47 -14 14 -20 15 -58 13 -22 -2 -53 2 -66 8 -5 2
-11 4 -12 4 -2 0 -3 1 -3 2 0 1 -6 3 -26 9 -10 3 -15 6 -21 13 -5 4 -9 9 -9
11 0 3 -19 34 -23 38 -2 2 -4 4 -4 6 -2 2 -26 23 -36 31 -8 6 -28 6 -37 -1z"/>
</g>
</svg>
