<?xml version="1.0" standalone="no"?>
<!DOCTYPE svg PUBLIC "-//W3C//DTD SVG 20010904//EN"
 "http://www.w3.org/TR/2001/REC-SVG-20010904/DTD/svg10.dtd">
<svg version="1.0" xmlns="http://www.w3.org/2000/svg"
 width="1100.000000pt" height="2850.000000pt" viewBox="0 0 1100.000000 2850.000000"
 preserveAspectRatio="xMidYMid meet">
<metadata>
Created by potrace 1.15, written by Peter Selinger 2001-2017
</metadata>
<g transform="translate(0.000000,2850.000000) scale(0.500000,-0.500000)"
fill="#000000" stroke="none">
<path d="M715 3826 c-5 -5 -8 -12 -11 -23 -5 -19 -7 -21 -28 -35 -15 -11 -19
-16 -36 -46 -4 -7 -10 -15 -13 -19 -4 -3 -10 -9 -14 -13 -4 -4 -7 -8 -8 -10
-1 -2 -5 -5 -11 -8 -9 -5 -10 -5 -82 -6 -71 -1 -74 -1 -79 -5 -10 -7 -16 -26
-13 -41 2 -7 -2 -16 -7 -16 -5 0 -14 7 -20 15 -3 5 -7 9 -7 9 -1 0 -2 1 -2 2
0 1 -3 5 -7 10 -18 18 -40 28 -54 24 -9 -3 -14 -9 -18 -23 -1 -6 -3 -12 -4
-13 -1 -1 0 -2 1 -2 5 0 2 -27 -4 -31 -3 -2 -18 6 -22 12 -4 4 -5 19 -2 19 1
0 2 1 1 2 -1 1 -3 7 -4 13 -7 26 -3 25 -122 25 -110 0 -111 0 -120 -13 -10
-12 -10 -22 -2 -50 9 -31 15 -44 26 -51 14 -10 18 -10 108 -10 l84 1 6 -6 6
-6 -1 -91 -1 -92 -5 -5 -4 -5 -23 10 c-12 6 -23 11 -25 11 -2 1 -8 4 -14 6 -5
3 -11 5 -12 5 -1 0 -4 1 -6 2 -10 6 -60 26 -64 26 -15 0 -27 -8 -32 -22 -1 -5
-2 -48 -2 -148 0 -171 -2 -157 30 -173 11 -6 21 -12 27 -19 5 -5 11 -10 12
-10 2 0 3 -1 3 -2 0 0 3 -3 7 -5 4 -2 9 -6 11 -9 5 -6 7 -24 4 -39 -5 -23 -11
-30 -30 -30 -15 0 -22 5 -24 16 -1 6 -1 7 -2 3 0 -6 -1 -6 -10 -6 -5 0 -12 1
-15 2 -3 1 -5 2 -4 1 0 -1 0 -3 -2 -5 -6 -7 -7 -17 -7 -73 0 -55 0 -57 5 -65
3 -6 7 -10 14 -14 6 -2 12 -6 15 -7 4 -2 6 -3 6 -2 0 1 2 -1 4 -4 l4 -5 -4 -5
c-2 -3 -4 -5 -4 -4 0 1 -2 0 -5 -2 -4 -1 -10 -5 -16 -7 -20 -10 -24 -29 -13
-61 7 -20 8 -29 3 -44 -5 -15 -4 -25 2 -34 4 -4 7 -7 7 -7 1 0 5 -2 9 -5 5 -3
10 -6 12 -7 16 -6 16 -42 0 -48 -2 -1 -7 -4 -12 -7 -4 -3 -8 -5 -8 -5 -3 0
-12 -12 -15 -20 -3 -7 -4 -13 -4 -36 0 -29 1 -34 12 -56 9 -16 9 -24 0 -40
-13 -25 -12 -7 -12 -258 0 -205 0 -230 3 -237 4 -9 14 -21 18 -21 2 0 3 -1 3
-2 0 -2 1 -2 1 -2 1 1 4 1 7 0 8 -2 17 1 23 8 7 8 15 29 13 33 -1 2 -3 5 -3 7
-1 7 -9 31 -11 33 -4 5 -6 19 -4 28 4 14 11 19 27 20 15 1 26 -7 29 -21 2 -8
2 -11 -4 -29 -11 -36 -11 -37 -4 -52 8 -16 18 -22 33 -20 20 2 66 22 85 35 12
9 15 11 24 20 20 19 25 37 24 85 l-1 32 6 6 6 6 86 0 86 0 9 6 c10 7 16 17 21
34 3 8 5 13 9 15 4 2 5 4 5 5 -1 0 0 1 2 1 2 0 3 1 3 2 0 4 20 -4 28 -11 11
-10 30 -17 45 -17 8 0 14 -5 16 -15 2 -5 3 -39 3 -82 0 -80 1 -82 13 -94 3 -4
7 -7 8 -7 2 0 3 -1 3 -2 0 -2 2 -2 34 -3 52 -1 95 9 150 35 27 13 39 21 51 34
14 16 16 23 17 78 1 45 1 47 6 56 3 5 6 9 7 10 1 0 3 2 5 4 2 2 5 5 7 6 3 2
12 10 21 18 9 8 20 18 23 21 4 3 7 7 7 8 0 4 15 -3 24 -12 8 -8 20 -14 32 -16
4 0 9 -1 11 -2 22 -5 32 -7 42 -7 10 0 26 -3 44 -7 2 -1 13 -2 25 -2 25 -2 29
-4 32 -19 3 -15 0 -23 -11 -32 -18 -13 -27 -33 -23 -51 4 -17 7 -52 9 -92 2
-46 17 -58 65 -52 100 13 165 40 220 93 5 5 6 7 5 20 0 12 -1 17 -6 25 -6 12
-6 18 0 28 8 14 14 20 31 28 29 14 38 24 41 46 0 4 2 15 3 23 1 8 2 29 3 46 1
30 1 32 -3 41 -5 11 -16 19 -32 25 -15 6 -18 10 -18 23 0 13 3 17 18 23 15 5
26 14 31 23 4 7 4 14 5 99 l1 91 6 10 c3 5 5 9 5 7 0 -4 18 -11 28 -12 8 0 14
-9 14 -21 0 -9 -1 -12 -7 -20 -16 -20 -19 -32 -13 -53 13 -46 24 -94 27 -114
1 -4 2 -8 2 -10 1 -1 1 -6 2 -12 1 -5 2 -12 2 -16 1 -3 2 -17 4 -30 3 -22 4
-26 13 -46 10 -19 11 -23 12 -40 2 -21 2 -25 7 -33 5 -11 23 -24 52 -38 18 -9
21 -10 33 -10 8 0 13 1 14 3 0 1 1 2 3 2 3 0 10 16 13 27 2 11 6 15 13 15 7 0
10 -3 15 -16 3 -9 16 -27 16 -23 0 0 3 0 6 -1 4 -1 10 -1 15 0 17 4 52 34 70
61 10 15 11 17 11 28 0 12 -3 20 -13 32 -9 10 -12 22 -9 34 3 10 5 12 16 21
25 19 30 29 23 45 -5 12 -15 14 -47 13 -15 -1 -19 2 -29 18 -10 17 -12 19 -26
28 -7 5 -15 11 -18 15 -9 9 -13 11 -24 11 -12 0 -19 -2 -19 -5 0 -4 -11 -9
-19 -9 -16 0 -23 20 -12 31 7 8 18 7 30 -2 9 -6 11 -7 23 -7 8 0 13 1 13 3 1
2 2 3 3 3 2 0 5 3 8 6 5 5 7 6 16 6 14 0 17 -2 29 -21 11 -16 15 -19 31 -19
17 0 22 23 10 45 -8 14 -28 48 -30 49 -1 1 -5 6 -9 12 -19 26 -60 69 -91 95
-10 9 -19 17 -20 17 -4 4 -60 43 -83 57 -12 7 -27 12 -45 14 -10 1 -16 4 -29
18 -11 11 -15 14 -27 20 -6 3 -10 7 -13 12 l-4 8 6 6 c6 6 6 6 25 5 32 -1 42
4 53 27 9 18 11 21 18 21 7 0 9 -3 18 -21 14 -28 12 -27 123 -27 76 1 90 2 99
5 18 6 38 20 45 33 3 4 6 8 7 8 3 2 2 23 -1 27 -8 7 -27 11 -36 6 -9 -5 -29
-4 -35 2 -7 6 -9 20 -4 38 3 12 3 21 0 32 -2 5 -18 21 -46 45 -12 10 -25 21
-29 25 -5 3 -8 6 -9 5 -1 0 -1 0 -1 2 0 1 -6 7 -14 13 -8 7 -18 15 -24 20 -5
4 -12 10 -15 13 -15 13 -17 14 -30 14 -18 0 -23 -4 -46 -37 -4 -6 -8 -12 -10
-14 -3 -2 -3 -6 -2 -15 1 -16 4 -20 22 -30 4 -2 11 -8 16 -12 8 -6 9 -7 22 -6
13 0 15 1 21 7 11 10 17 12 31 11 7 0 13 -9 13 -19 0 -12 -4 -19 -16 -26 -6
-3 -15 -11 -20 -17 -14 -14 -18 -16 -29 -16 -10 0 -19 4 -29 14 -3 3 -11 9
-19 14 -8 5 -14 9 -15 10 -10 11 -16 14 -31 14 l-15 0 -8 -10 c-4 -6 -9 -13
-11 -16 -7 -11 -36 -21 -61 -22 -6 0 -13 0 -14 1 -5 3 -28 1 -42 -4 -17 -6
-21 -6 -26 -1 -8 10 -2 25 10 28 29 8 51 15 55 18 1 1 6 2 10 3 22 2 34 8 40
21 5 8 5 11 5 50 0 44 -1 50 -10 64 -3 4 -7 9 -9 10 -3 1 -7 5 -9 10 -4 8 -4
8 -1 13 6 7 11 7 102 7 57 0 84 1 95 3 23 4 33 1 52 -16 16 -14 40 -33 45 -34
3 -1 11 -1 17 -1 12 1 13 2 20 10 12 13 18 26 22 50 6 31 13 58 23 88 11 30
11 35 -2 60 -11 23 -11 29 3 53 7 13 11 24 13 42 2 12 13 21 27 21 6 0 18 -10
18 -15 0 -8 3 -19 7 -27 l4 -9 11 2 c19 5 21 6 25 19 4 14 4 18 1 28 -6 15
-12 22 -26 27 -7 3 -15 5 -17 4 -3 0 -5 1 -6 2 0 1 -1 1 -1 0 0 -2 -1 -3 -2
-3 -1 0 -2 1 -1 2 1 2 1 2 -1 1 -2 -1 -11 3 -9 5 1 1 -1 2 -31 11 -33 10 -59
4 -69 -16 -5 -10 -9 -28 -9 -41 1 -11 -3 -21 -7 -23 -2 0 -3 -2 -3 -4 0 -2 -1
-3 -2 -2 -2 1 -2 -1 -2 -19 0 -11 3 -24 6 -24 4 0 2 -14 -2 -18 -9 -9 -24 -2
-24 11 0 4 1 7 3 8 3 1 3 3 2 11 -3 30 -6 32 -38 31 -31 -1 -31 -1 -31 27 0
27 3 33 15 31 34 -5 47 -3 58 9 4 5 5 8 5 19 0 11 0 13 -5 15 -3 1 -5 3 -5 4
0 1 -1 2 -2 2 -1 0 -3 1 -5 3 -1 1 -5 4 -8 6 -3 2 -7 5 -9 7 -14 15 -19 20
-29 26 -6 4 -13 9 -15 11 -3 1 -5 3 -6 3 -2 0 -43 25 -47 28 -1 1 -10 8 -19
15 -19 13 -29 21 -33 24 -1 1 -9 8 -18 16 -34 29 -77 76 -77 83 0 5 7 21 11
25 2 2 3 3 3 2 0 -1 3 1 6 4 3 3 6 5 6 5 0 -1 6 4 12 11 l13 13 0 12 c0 7 -1
13 -2 14 -2 2 -30 3 -33 1 -2 -1 -9 -15 -11 -24 -3 -12 -17 -15 -43 -8 -7 2
-20 4 -30 5 -22 3 -26 7 -26 21 0 5 1 11 3 13 3 5 4 27 1 35 -1 3 -4 6 -7 8
-4 3 -31 11 -54 16 -2 0 -9 2 -16 4 -9 3 -57 15 -117 30 -2 1 -7 2 -11 3 -18
5 -37 0 -46 -13 -6 -10 -8 -16 -13 -42 -4 -21 -8 -40 -12 -53 -1 -4 -5 -19 -9
-34 -9 -35 -24 -83 -37 -121 -6 -16 -10 -31 -11 -32 -1 -5 -6 -18 -7 -20 -1
-1 -3 -8 -6 -15 -5 -13 -5 -36 0 -38 1 0 2 -1 2 -3 0 -3 13 -9 16 -7 4 3 17 0
22 -5 6 -5 5 -15 -1 -21 -7 -6 -15 -5 -24 3 -7 6 -9 7 -20 7 -18 0 -21 -2 -29
-21 -15 -36 -26 -61 -50 -111 -19 -38 -30 -46 -45 -31 -1 1 -5 4 -9 7 -4 3 -8
6 -10 8 -2 2 -6 5 -10 8 -4 3 -8 6 -10 8 -2 2 -6 5 -10 8 -4 3 -8 6 -9 7 -3 3
-14 12 -21 17 -4 3 -9 7 -11 9 -4 4 -7 5 -22 5 -17 0 -19 -1 -20 -9 0 -1 -3
-4 -7 -6 l-8 -5 -4 5 -4 4 5 10 c8 16 7 38 -3 44 -3 1 -11 8 -19 15 -13 13
-14 13 -26 14 -17 1 -22 -2 -42 -22 -13 -14 -18 -17 -25 -16 -4 0 -14 2 -18 4
-9 3 -20 3 -33 -1 -15 -4 -27 -2 -33 5 -9 8 -9 32 0 40 4 5 17 8 26 7 8 -2 20
-8 20 -11 0 -1 1 -2 3 -1 1 0 7 1 13 2 22 2 24 9 24 67 l-1 43 6 6 c6 5 8 6
18 6 15 0 27 8 34 21 5 8 6 13 4 29 0 9 7 13 25 14 21 1 33 -5 35 -18 3 -16
13 -33 23 -40 16 -11 53 -9 80 3 30 14 50 37 47 55 -2 21 -3 23 -70 82 -9 8
-20 18 -26 23 -8 8 -34 30 -51 45 -3 2 -13 11 -22 19 -9 8 -25 22 -35 30 -10
8 -18 15 -19 16 -6 7 -13 10 -26 10 -12 0 -14 0 -19 -6z m-6 -154 c10 -6 22
-13 28 -15 13 -6 18 -11 21 -25 4 -14 3 -16 -4 -21 -6 -3 -28 -3 -33 1 -5 3
-37 16 -41 16 -7 0 -18 -4 -23 -8 -2 -2 -3 -4 -2 -4 1 0 0 -1 -2 -3 -7 -5 -5
-19 5 -38 4 -9 8 -18 8 -19 0 -5 -6 -11 -11 -12 -3 0 -19 9 -19 12 0 2 -10 12
-19 19 -17 13 -20 17 -19 33 0 10 11 19 28 23 1 0 3 1 4 3 2 1 5 2 7 2 2 0 5
2 6 5 21 42 20 41 37 41 11 0 14 -1 29 -10z m563 -32 c5 -6 5 -12 0 -18 -7 -8
-22 -2 -22 9 0 11 15 17 22 9z m-926 -74 c3 -6 2 -23 -1 -28 -7 -8 -27 -9 -35
-1 -5 5 -6 28 -2 37 2 4 5 8 6 8 4 2 30 -12 32 -16z m1109 -32 c2 -3 6 -9 7
-13 2 -4 5 -12 7 -17 9 -22 29 -67 49 -107 12 -25 22 -46 21 -47 0 -2 -1 -6
-2 -9 0 -3 -3 -8 -6 -11 -2 -3 -8 -9 -11 -14 -4 -6 -16 -22 -27 -37 -19 -26
-20 -28 -20 -38 -1 -14 3 -21 17 -32 12 -9 14 -15 12 -27 -1 -4 -2 -17 -2 -29
0 -24 -2 -31 -11 -31 -6 0 -10 6 -12 16 -2 9 -7 27 -10 34 -2 6 -16 15 -26 17
-12 3 -121 1 -128 -2 -7 -3 -16 -12 -14 -15 1 -1 0 -2 -1 -2 -1 0 -2 -3 -3 -7
-1 -5 -2 -9 -3 -10 -2 -2 -2 -3 0 -3 3 0 2 -8 -2 -12 -7 -7 -20 -2 -20 8 0 2
1 4 2 4 2 0 2 1 0 3 -1 1 -2 5 -3 10 -1 4 -2 7 -3 7 -1 0 -2 1 -1 2 2 3 -7 12
-14 15 -6 2 -16 3 -41 3 -29 0 -34 0 -41 4 -5 3 -13 5 -17 5 -4 1 -7 2 -7 3 2
3 -16 2 -22 -1 -8 -4 -27 -4 -34 1 -11 9 -12 38 -1 46 12 9 27 5 45 -12 7 -8
14 -13 15 -13 1 1 2 0 2 -1 0 -2 12 -5 18 -5 10 1 29 3 30 4 1 1 4 2 7 2 14 3
25 15 28 31 3 13 14 24 30 29 6 2 11 4 11 5 0 0 2 4 5 7 3 3 8 9 11 14 4 4 11
13 16 19 23 28 31 39 39 57 7 14 13 23 25 35 13 15 33 45 50 74 2 4 7 13 11
20 4 7 7 13 7 14 0 2 9 10 11 10 1 0 4 -2 6 -4z m-111 -11 c5 -5 5 -14 1 -22
-5 -8 -21 -15 -36 -16 -12 -1 -13 -1 -18 4 -8 8 -7 20 2 28 4 4 9 7 12 8 22 5
32 5 39 -2z m381 -103 c6 -2 9 -7 12 -22 4 -15 5 -24 3 -24 -1 0 -2 -1 -1 -2
2 -4 -13 -9 -18 -5 -1 0 -8 2 -14 4 -17 4 -20 8 -20 26 0 14 0 16 6 20 6 5 22
7 32 3z m-498 -11 c3 -3 3 -3 0 -6 -3 -3 -3 -3 -6 0 -3 2 -3 3 -1 6 4 4 4 4 7
0z m-41 -61 c3 -2 10 -7 15 -11 4 -4 12 -11 17 -16 7 -5 10 -9 12 -16 1 -4 3
-10 4 -12 3 -7 -6 -15 -16 -15 -17 0 -21 3 -40 28 -14 20 -18 26 -18 31 0 14
13 19 26 11z m506 -36 c5 -6 5 -12 0 -18 -7 -8 -22 -2 -22 9 0 11 15 17 22 9z
m-1493 -60 c11 -10 3 -28 -11 -28 -9 0 -16 6 -16 16 0 14 17 22 27 12z m1394
0 c10 -9 3 -26 -10 -26 -8 0 -15 7 -15 15 0 13 16 20 25 11z m-1119 -7 c12 -6
13 -23 5 -49 -3 -12 -5 -22 -5 -33 0 -14 -1 -17 -5 -22 l-5 -5 -6 6 c-4 4 -6
8 -5 11 2 6 -8 37 -14 43 -2 3 -6 7 -7 10 -4 7 -3 24 1 31 6 12 26 16 41 8z
m-94 -3 c5 -5 5 -11 0 -16 -10 -10 -27 5 -16 16 4 4 12 4 16 0z m1315 -60 c7
-6 7 -19 1 -25 -6 -7 -19 -7 -25 -1 -7 6 -7 19 -1 25 6 7 19 7 25 1z m-960
-31 c3 -3 3 -3 0 -6 -3 -3 -3 -3 -6 0 -3 2 -3 3 -1 6 4 4 4 4 7 0z m417 -29
c3 -2 7 -8 9 -15 5 -17 11 -27 21 -34 8 -6 10 -6 28 -6 18 0 19 0 25 -6 l6 -6
0 -96 0 -96 -6 -6 -6 -6 -61 0 c-34 0 -72 -1 -85 -1 -13 0 -50 0 -81 1 -47 1
-58 1 -58 -1 0 -2 -2 0 -5 5 -3 4 -6 7 -7 7 0 0 -1 33 -1 73 0 65 0 73 -4 83
-4 11 -13 26 -16 26 -1 0 -3 2 -4 4 -2 2 -7 5 -12 8 -13 6 -19 14 -19 27 0 14
4 19 21 25 l14 5 4 -6 c3 -3 6 -10 7 -15 3 -11 12 -31 19 -41 5 -6 9 -9 18
-13 17 -6 25 -5 43 7 23 15 34 19 57 21 30 2 41 11 50 41 5 15 10 19 26 19 9
0 14 -1 17 -4z m-799 -18 c16 -8 29 -19 40 -33 6 -8 21 -23 23 -23 3 0 8 -12
8 -21 0 -7 -1 -10 -5 -14 -10 -10 -35 -4 -35 8 0 2 -3 8 -6 14 -8 15 -16 18
-39 17 -27 0 -38 8 -38 30 0 28 22 37 52 22z m422 -27 c12 -12 3 -31 -13 -31
-11 0 -18 7 -18 18 0 11 7 18 18 18 6 0 9 -1 13 -5z m-534 -37 c10 -9 3 -26
-10 -26 -8 0 -15 7 -15 15 0 13 16 20 25 11z m1235 0 c5 -6 5 -12 0 -18 -7 -8
-22 -2 -22 9 0 11 15 17 22 9z m-140 -4 c1 0 5 -3 8 -6 5 -5 6 -7 6 -18 0 -11
-1 -13 -6 -18 -6 -6 -7 -6 -18 -6 -11 0 -12 0 -18 6 -5 5 -6 7 -6 17 0 14 3
20 12 24 5 2 8 2 22 1z m-762 -5 c4 -4 4 -6 3 -20 -1 -9 -2 -18 -2 -20 0 -2
-1 -11 -1 -19 0 -18 -3 -23 -14 -26 -26 -5 -34 12 -22 45 3 9 5 17 6 18 2 10
5 19 9 23 5 6 15 5 21 -1z m235 -42 c5 -8 1 -16 -8 -16 -9 0 -13 8 -8 16 2 3
5 5 8 5 3 0 6 -2 8 -5z m-483 -19 c8 -10 2 -24 -10 -24 -12 0 -18 13 -10 23 4
7 15 7 20 1z m330 -34 c0 -3 -1 -7 -3 -10 -2 -2 -5 -7 -6 -10 -2 -3 -3 -4 -3
-2 0 2 -2 4 -4 5 -6 2 -16 12 -16 17 0 5 13 18 17 18 2 0 3 1 3 3 0 1 3 -2 6
-7 3 -5 6 -11 6 -14z m25 -59 c9 -13 4 -27 -9 -26 -11 1 -17 13 -12 25 5 11
14 11 21 1z m-368 -2 c6 -4 6 -6 6 -20 0 -14 0 -16 -6 -20 -6 -6 -26 -7 -34
-2 -7 4 -27 6 -41 3 -11 -2 -12 -2 -16 1 -4 3 -4 4 -1 7 2 2 6 4 9 4 3 0 6 1
7 2 1 1 3 2 5 2 5 0 18 8 30 19 9 9 10 9 23 9 11 0 14 -1 18 -5z m153 -10 c1
0 2 0 4 -1 2 -2 3 -8 5 -60 1 -38 8 -58 27 -84 11 -15 16 -19 34 -28 20 -10
35 -13 74 -13 l35 0 6 -6 6 -6 -1 -66 0 -66 -6 -6 -5 -6 -28 1 c-29 0 -36 -1
-44 -8 -4 -5 -11 -30 -9 -33 1 -1 2 -7 2 -13 0 -9 -1 -11 -6 -16 -5 -5 -7 -6
-17 -6 -10 0 -12 1 -17 6 -5 5 -6 7 -6 16 0 6 1 12 2 13 2 3 -5 28 -9 33 -9 7
-14 8 -55 8 -44 0 -52 -1 -61 -11 -7 -7 -15 -26 -15 -33 0 -8 -9 -14 -20 -14
-13 0 -18 4 -21 20 -7 35 -9 57 -9 95 1 43 3 50 18 66 8 10 11 13 21 27 4 6 8
11 9 12 1 1 5 8 11 16 10 16 12 26 7 37 -3 6 -17 14 -29 16 -17 3 -24 11 -24
28 0 20 9 28 30 28 11 0 14 -1 22 -7 8 -6 9 -6 25 -6 14 1 16 2 19 6 5 7 21
53 21 62 0 5 1 6 1 2 1 -2 2 -4 3 -3z m114 -13 c1 0 5 -3 8 -6 5 -5 6 -7 6
-18 0 -11 -1 -13 -6 -18 -6 -6 -7 -6 -18 -6 -11 0 -12 0 -18 6 -5 5 -6 7 -6
17 0 14 3 20 12 24 5 2 8 2 22 1z m706 -45 c16 -8 38 -10 50 -3 4 2 11 3 23 2
2 0 6 -3 9 -6 5 -5 6 -7 6 -17 0 -22 -8 -27 -37 -24 -16 1 -19 1 -24 -2 -7 -4
-11 -14 -11 -27 0 -12 -5 -18 -15 -18 -5 0 -7 1 -7 4 0 2 -1 2 -2 1 -1 -2 -11
-4 -21 -5 -3 -1 -15 -14 -14 -16 1 -1 0 -2 -1 -3 -1 -1 -2 -11 -2 -26 0 -24 0
-24 -6 -31 -3 -3 -6 -5 -6 -4 -2 4 -37 12 -54 12 -19 0 -64 4 -75 6 -10 2 -15
7 -23 23 -4 8 -10 17 -14 21 -8 8 -28 20 -38 22 -3 1 -4 2 -1 2 2 0 3 1 2 2
-4 6 8 7 107 8 54 1 98 0 99 0 0 -1 2 -2 4 -3 6 -2 19 9 15 11 -2 1 -2 2 -1 2
4 0 4 27 0 33 -4 5 -4 25 0 31 7 9 24 12 37 5z m-330 -12 c12 -4 17 -10 16
-20 -1 -11 2 -29 4 -29 1 0 2 -1 1 -2 0 -1 1 -3 3 -5 2 -2 3 -5 3 -6 0 -1 3
-5 5 -8 5 -6 6 -7 17 -7 l12 -1 -11 -1 c-22 -2 -26 -10 -32 -60 -2 -20 -5 -40
-5 -44 -2 -16 -5 -37 -11 -71 -4 -20 -7 -46 -8 -58 -1 -11 -3 -22 -4 -24 -1
-1 -2 -5 -3 -9 l0 -7 -1 8 c0 9 -4 19 -4 13 0 -5 -3 -5 -4 -1 0 1 -1 27 -2 58
l-1 56 -7 18 c-8 23 -8 25 1 51 l7 21 0 60 0 60 5 5 c3 3 5 7 5 8 0 2 0 2 2 1
0 -2 6 -4 12 -6z m-105 -19 c5 -5 6 -7 6 -16 0 -15 -8 -23 -23 -23 -9 0 -11 1
-16 7 -9 8 -9 23 -1 32 9 9 24 9 34 0z m-1 -106 c5 -5 6 -7 6 -17 0 -10 -1
-12 -6 -17 -5 -5 -7 -6 -17 -6 -10 0 -12 1 -17 6 -5 5 -6 7 -6 17 0 10 1 12 6
17 5 5 7 6 17 6 10 0 12 -1 17 -6z m-601 -20 c9 0 15 -8 15 -20 0 -14 -9 -22
-27 -22 -17 0 -27 8 -27 21 0 10 4 15 14 19 6 3 10 3 25 2z m1158 -5 c6 -4 6
-6 6 -20 0 -19 -3 -23 -25 -27 -13 -3 -14 -2 -17 1 -9 12 -9 39 0 46 8 7 28 7
36 0z m-633 -51 c5 -6 5 -12 0 -18 -7 -8 -22 -2 -22 9 0 11 15 17 22 9z m581
-27 c2 -3 3 -6 2 -7 -2 -2 3 -19 8 -30 3 -6 7 -11 17 -17 12 -8 14 -10 19 -23
6 -16 16 -28 33 -39 10 -7 12 -11 15 -27 1 -10 -12 -20 -25 -20 -5 0 -13 0
-18 2 -5 1 -20 2 -34 2 -26 -1 -33 1 -38 7 -5 6 -8 20 -6 28 2 7 -1 23 -6 31
-4 5 -17 11 -30 13 -6 1 -11 3 -11 4 -1 2 -2 2 -5 1 -4 -2 -23 -3 -25 -1 -2 2
7 15 11 15 1 0 2 1 2 2 0 1 3 3 8 5 4 2 8 5 8 6 1 1 9 5 18 9 9 4 16 7 16 8 0
1 2 2 4 3 1 0 5 4 8 8 6 10 20 25 23 25 1 0 4 -2 6 -5z m-582 -65 c5 -7 4 -25
-2 -31 -7 -7 -13 -7 -53 1 -23 5 -28 8 -28 19 0 10 4 12 35 15 16 1 28 3 29 3
2 2 16 -4 19 -7z m-494 -9 c3 -5 3 -6 0 -12 -4 -8 -13 -15 -27 -23 -5 -3 -11
-8 -14 -10 -2 -2 -5 -4 -6 -4 -1 0 -7 -5 -14 -11 -15 -13 -18 -15 -28 -15 -13
0 -14 0 -20 6 -5 5 -6 7 -6 17 0 18 6 24 25 26 23 2 39 7 51 16 13 8 26 15 32
15 2 0 5 -2 7 -5z m953 -8 c0 1 2 -1 4 -3 4 -5 4 -10 4 -103 1 -87 1 -100 4
-115 5 -23 5 -30 -1 -36 -5 -4 -6 -4 -26 -3 -17 1 -22 1 -32 -2 -17 -5 -17 -5
-26 -6 -7 0 -18 3 -36 11 -4 2 -13 5 -18 6 -6 1 -14 5 -18 8 l-7 5 5 4 c2 3 6
7 9 11 3 4 6 8 7 9 1 1 9 11 17 22 16 22 17 29 10 45 -4 10 -14 22 -18 22 -1
0 -2 1 -1 2 1 1 0 2 -2 2 -5 0 -5 5 0 18 6 18 10 21 29 19 23 -2 30 -1 37 3 3
2 5 4 5 4 -1 0 -1 3 0 7 1 5 1 12 -2 22 -7 26 0 39 19 42 18 2 33 7 33 11 0 2
1 1 2 -2 1 -3 2 -4 2 -3z m-211 -21 c5 -7 4 -25 -2 -31 -6 -7 -22 -7 -30 -2
-9 6 -11 27 -3 34 8 8 28 7 35 -1z m487 -58 c8 -8 2 -24 -9 -24 -8 0 -12 3
-15 11 -2 7 -2 8 2 12 6 6 17 6 22 1z m-1116 -3 c17 -3 41 -3 137 -3 l116 1 6
-6 6 -6 0 -95 0 -95 -6 -6 c-6 -6 -7 -6 -27 -6 -12 0 -23 -1 -25 -1 -6 -2 -16
-6 -17 -8 -1 -2 -8 -6 -15 -9 -4 -2 -7 -4 -7 -5 -1 -2 -9 -3 -22 -4 -23 -1
-34 2 -46 13 -15 13 -18 14 -55 15 -42 1 -50 -1 -70 -16 -14 -11 -22 -14 -33
-12 -15 3 -18 17 -8 49 8 25 9 58 2 73 -4 9 -14 19 -23 24 -16 8 -16 24 0 32
16 8 27 26 27 42 0 7 1 11 6 17 3 4 6 7 6 6 1 -1 9 0 25 3 1 0 11 -1 23 -3z
m675 -43 c6 -5 6 -6 4 -12 -2 -11 -8 -16 -18 -16 -11 0 -17 6 -17 17 0 16 18
23 31 11z m-226 -16 c7 -3 12 -13 12 -25 0 -19 -9 -28 -28 -28 -19 0 -28 9
-28 28 0 24 19 34 44 25z m-682 -10 c25 -11 29 -16 29 -32 0 -11 -1 -13 -6
-18 -6 -6 -7 -6 -20 -6 -10 0 -15 2 -29 16 -23 22 -28 35 -18 46 6 6 19 5 44
-6z m1279 -46 c5 -6 5 -12 0 -18 -7 -8 -22 -2 -22 9 0 11 15 17 22 9z m-69
-54 c7 0 13 -10 18 -27 3 -9 6 -19 8 -22 1 -2 4 -9 6 -15 3 -9 3 -11 0 -15 -4
-6 -5 -6 -34 2 -28 8 -33 12 -35 27 -1 12 3 35 7 42 2 2 6 5 9 7 5 2 9 2 21 1z
m-1142 -91 c3 -5 3 -5 -1 -11 -6 -8 -11 -8 -18 0 -2 3 -1 5 3 10 7 7 11 7 16
1z m-42 -39 c4 -5 -6 -12 -10 -7 -3 2 -3 3 -1 7 4 5 8 5 11 0z m1110 -34 c9
-4 11 -11 13 -50 1 -19 2 -38 1 -41 -2 -10 -9 -15 -24 -15 -22 0 -23 3 -29 48
-1 10 -3 23 -4 27 -6 26 15 41 43 31z m-568 -22 c10 -9 3 -26 -10 -26 -8 0
-15 7 -15 15 0 13 16 20 25 11z"/>
</g>
</svg>
