<?xml version="1.0" standalone="no"?>
<!DOCTYPE svg PUBLIC "-//W3C//DTD SVG 20010904//EN"
 "http://www.w3.org/TR/2001/REC-SVG-20010904/DTD/svg10.dtd">
<svg version="1.0" xmlns="http://www.w3.org/2000/svg"
 width="1100.000000pt" height="2850.000000pt" viewBox="0 0 1100.000000 2850.000000"
 preserveAspectRatio="xMidYMid meet">
<metadata>
Created by potrace 1.15, written by Peter Selinger 2001-2017
</metadata>
<g transform="translate(0.000000,2850.000000) scale(0.500000,-0.500000)"
fill="#000000" stroke="none">
<path d="M1544 3829 c-14 -5 -19 -11 -41 -67 -24 -60 -23 -59 -31 -62 -5 -1
-17 2 -20 6 -1 0 -5 4 -10 7 -5 3 -10 7 -10 8 -1 1 -8 2 -15 3 -12 0 -14 0
-27 -7 -11 -6 -17 -8 -25 -8 -11 0 -22 5 -24 10 -4 9 -5 18 -3 27 2 8 1 23 -2
34 -2 5 -13 15 -26 24 -7 5 -13 10 -14 10 -3 4 -18 10 -24 10 -19 0 -20 0 -83
-66 -27 -28 -21 -27 -117 -28 -86 -1 -88 -1 -96 -11 -3 -4 -12 -25 -13 -31 -1
-4 -5 -8 -10 -8 -5 0 -9 4 -10 8 -1 6 -10 27 -13 31 -2 2 -7 5 -11 7 -8 3 -29
4 -377 4 -287 0 -372 0 -378 -2 -9 -3 -22 -14 -23 -21 -1 -3 -1 -7 -2 -10 -2
-9 13 -39 26 -49 2 -1 3 -3 3 -5 0 -4 23 -27 31 -32 7 -4 11 -4 54 -5 50 0 57
1 65 9 6 7 15 26 14 32 0 5 6 10 12 10 6 0 12 -5 12 -10 -1 -5 8 -25 13 -31 8
-9 14 -10 63 -10 60 0 63 1 62 24 0 9 0 13 2 14 2 1 2 2 -1 2 -3 0 -7 3 -10 8
-6 9 -6 12 -2 18 4 6 9 5 27 -3 20 -9 28 -9 41 0 16 10 22 13 27 13 19 2 26
-4 26 -21 0 -14 -3 -17 -23 -27 -9 -5 -18 -10 -21 -12 -8 -5 -28 -15 -39 -19
-5 -2 -10 -5 -12 -6 -2 -2 -114 -58 -136 -68 -7 -3 -23 -10 -37 -16 -14 -6
-26 -12 -27 -13 -1 -1 -3 -2 -4 -2 -2 0 -8 -2 -13 -5 -10 -4 -53 -22 -79 -32
-10 -4 -37 -14 -67 -24 -11 -4 -25 -14 -29 -20 -8 -12 -8 -34 0 -50 11 -23 25
-28 69 -26 94 4 148 7 150 8 0 0 3 -2 6 -5 5 -4 6 -7 6 -19 1 -13 1 -14 -5
-20 l-6 -6 -55 0 c-49 0 -56 0 -64 -4 -5 -2 -9 -4 -10 -5 -1 -1 -6 -4 -13 -7
-13 -7 -21 -6 -38 3 -23 13 -30 14 -73 14 -47 0 -54 -2 -62 -17 -7 -13 -7 -19
3 -49 12 -36 17 -44 32 -51 l12 -6 129 -1 129 0 5 -5 c5 -5 5 -5 3 -18 -5 -18
-13 -45 -17 -54 -2 -5 -4 -10 -4 -11 0 -3 -22 -44 -28 -53 -4 -4 -8 -11 -9
-14 -7 -15 -24 -34 -41 -47 -5 -4 -13 -10 -17 -14 -4 -5 -9 -8 -10 -8 -3 0 -9
-17 -9 -25 0 -4 2 -13 5 -21 12 -30 4 -49 -22 -49 -12 0 -18 3 -28 14 -9 11
-16 15 -29 16 -9 1 -12 0 -37 -13 -16 -8 -31 -17 -35 -20 -18 -17 -13 -44 11
-65 12 -10 19 -21 24 -34 9 -27 23 -38 54 -41 9 -1 16 -2 16 -2 3 -1 11 -10
10 -10 -1 0 -9 -10 -18 -23 -9 -13 -20 -29 -25 -35 -5 -6 -12 -15 -15 -19 -10
-13 -38 -44 -52 -57 -15 -15 -19 -22 -19 -35 0 -11 4 -19 16 -33 10 -12 19
-18 32 -22 10 -3 30 -1 30 2 0 1 3 -1 6 -5 8 -9 9 -18 1 -26 l-6 -6 -36 1
c-46 0 -55 -2 -63 -17 -7 -13 -7 -19 3 -49 12 -36 17 -44 32 -51 11 -6 13 -6
38 -6 l26 0 7 -7 c4 -4 6 -7 6 -8 -1 -2 3 -13 7 -22 3 -5 6 -14 6 -19 1 -10 0
-13 -13 -47 -3 -9 -7 -22 -7 -29 -2 -22 -3 -30 -6 -51 -4 -24 -3 -24 -9 -48
-6 -28 -13 -52 -23 -77 -16 -39 -16 -36 -14 -60 1 -19 1 -24 -2 -31 -5 -11 -5
-31 -1 -39 3 -6 15 -11 27 -11 13 0 42 16 85 46 4 3 7 6 8 6 1 1 3 3 5 4 29
19 76 70 99 105 26 40 56 104 56 122 0 6 0 6 2 1 1 -3 2 -5 3 -4 3 1 4 0 5 -2
0 -2 1 -58 2 -126 1 -95 2 -124 4 -129 3 -7 14 -19 17 -19 2 0 3 -1 3 -2 0 -2
8 -3 21 -3 13 0 26 6 38 18 11 11 15 22 17 48 3 26 6 31 22 34 10 1 22 -2 27
-8 6 -6 8 -19 4 -29 -2 -7 0 -25 4 -32 2 -3 13 -8 20 -8 7 0 39 17 52 27 17
15 24 29 25 58 1 25 -2 36 -10 44 -7 6 -20 12 -30 14 -13 2 -35 21 -40 33 -1
4 -4 8 -5 9 -4 7 7 20 14 15 8 -6 41 -12 49 -9 12 6 23 -3 37 -28 8 -15 26
-43 32 -50 2 -3 6 -8 9 -11 3 -4 13 -15 22 -25 l18 -18 13 0 c11 1 16 2 23 6
16 9 19 7 19 -18 0 -25 3 -29 26 -41 22 -11 34 -16 42 -18 3 -1 13 -4 21 -6
19 -5 29 -3 39 7 6 6 15 22 15 28 0 6 10 11 19 11 11 0 14 -2 23 -18 10 -19
32 -32 57 -32 15 0 16 0 37 12 19 10 31 18 54 34 4 3 7 6 8 6 1 1 3 3 5 4 3 2
9 7 15 12 6 5 12 10 13 11 2 1 4 7 4 14 1 7 2 12 2 13 1 0 0 2 -1 4 -2 4 -12
9 -30 16 -8 3 -12 12 -13 24 0 19 9 29 28 29 15 0 22 -5 27 -17 7 -17 12 -20
28 -20 l14 1 11 16 c10 15 11 18 11 27 0 13 -6 21 -20 29 -16 8 -18 11 -18 22
0 13 6 19 19 19 5 0 11 -1 14 -3 6 -4 37 -4 39 1 0 1 2 4 4 5 4 4 8 16 8 24 0
6 0 6 2 1 1 -3 2 -5 3 -4 3 1 4 0 5 -2 0 -2 1 -58 2 -126 1 -95 2 -124 4 -129
3 -7 14 -19 17 -19 2 0 3 -1 3 -2 0 -2 3 -2 39 -3 17 0 30 0 29 1 -2 1 -1 2 3
2 3 0 5 1 5 2 0 0 7 1 16 1 19 1 48 9 79 24 29 14 43 25 51 43 8 14 7 10 8 91
1 28 1 30 6 33 2 2 4 5 4 6 0 2 1 0 3 -4 2 -7 28 -48 31 -50 1 -1 4 -5 7 -9 7
-13 29 -36 49 -53 27 -23 51 -39 87 -57 18 -9 24 -9 46 -1 7 3 17 5 23 5 11 1
8 4 34 -24 10 -12 24 -16 43 -14 8 0 17 2 20 3 3 1 8 3 11 3 3 1 14 6 26 12
31 15 45 30 59 63 10 24 0 43 -28 56 -7 3 -15 9 -20 13 -11 11 -22 15 -45 17
-26 1 -29 4 -29 25 0 14 0 16 6 20 6 6 27 7 34 2 5 -4 24 -4 31 0 13 6 17 28
13 59 -1 9 -2 25 -2 34 0 10 0 19 -2 23 -2 4 -2 7 -2 7 1 1 -4 2 -10 2 -7 0
-12 1 -13 2 -1 2 -4 -6 -7 -16 -1 -2 -6 -13 -7 -14 -1 -1 -2 -5 -4 -16 -2 -18
-14 -31 -31 -33 -14 -2 -21 7 -21 26 0 21 4 28 22 40 4 3 9 7 10 9 1 2 3 5 4
6 9 9 11 19 6 36 l-3 14 4 5 c3 2 12 6 20 9 24 7 44 21 49 33 6 14 1 26 -11
32 -11 6 -47 8 -65 4 -13 -2 -14 -2 -18 2 l-4 4 4 4 c3 3 9 6 15 8 12 5 15 9
15 24 0 16 -3 22 -23 44 -4 5 -13 11 -22 16 -18 9 -21 12 -21 28 0 18 4 21 38
28 25 5 39 10 48 18 2 1 4 7 5 12 1 6 2 12 2 15 0 2 -1 7 -2 11 -2 4 -3 10 -3
13 0 6 6 21 11 25 6 6 15 29 16 39 1 6 1 15 2 19 1 9 -4 27 -9 33 -5 6 -4 22
1 27 5 6 7 13 7 27 0 12 0 14 -8 27 -5 7 -12 17 -15 21 -8 9 -13 17 -13 21 0
5 9 12 20 17 25 12 35 29 35 64 0 25 -4 36 -18 58 -10 13 -36 40 -46 47 -10 7
-37 8 -49 3 -4 -2 -10 -5 -14 -6 -3 -1 -11 -7 -18 -13 -6 -6 -14 -13 -17 -14
-11 -5 -26 1 -28 11 -1 3 -2 7 -3 10 -1 3 -2 10 -2 16 -1 7 -2 13 -5 17 -4 7
-28 31 -31 31 -3 0 -8 12 -8 21 0 11 3 17 13 26 8 7 13 15 14 27 1 9 1 11 -6
20 -4 5 -9 11 -11 12 -3 1 -4 4 -3 6 1 4 -4 9 -10 11 -6 1 -14 10 -18 18 -3 5
-3 6 0 16 2 6 3 13 3 16 0 12 7 15 28 15 11 0 25 2 34 4 26 6 36 1 36 -19 0
-6 -1 -12 -3 -14 -3 -4 -2 -23 2 -31 1 -3 7 -9 12 -14 5 -6 8 -10 7 -10 -1 0
-6 -11 -11 -25 -5 -15 -10 -29 -12 -32 -2 -3 -4 -10 -5 -15 -1 -5 -4 -14 -6
-21 -5 -13 -5 -14 -4 -28 1 -12 2 -13 15 -13 11 0 20 5 33 18 4 3 9 6 11 6 8
1 16 0 19 -1 5 -2 18 -1 27 3 14 6 16 12 18 60 1 27 1 30 -3 41 -2 6 -6 13 -9
14 -11 10 -11 21 2 27 5 3 9 5 9 6 0 1 2 2 4 3 3 1 17 15 27 26 3 3 8 12 12
19 23 45 16 85 -24 127 -21 22 -24 31 -22 56 1 13 0 19 -3 27 -3 11 -13 26
-16 26 -1 0 -5 4 -8 8 -11 15 -8 27 11 41 l9 7 0 14 c0 13 -1 15 -4 19 -18 15
-45 15 -61 -2 -8 -9 -10 -13 -31 -67 -10 -29 -18 -44 -26 -52 -8 -9 -10 -8
-13 7 0 2 -1 4 -1 5 0 0 0 0 0 1 0 4 -15 13 -27 17 -16 5 -23 19 -19 37 3 10
6 14 19 20 18 8 23 16 23 33 0 9 -1 10 -14 23 -11 11 -17 16 -27 20 -13 5 -23
13 -23 17 0 5 13 8 25 5 23 -4 35 -1 39 10 3 7 4 26 1 31 -1 3 -2 14 -2 26 0
31 -3 35 -37 52 -55 29 -64 34 -76 40 -86 46 -81 44 -98 39z m-256 -114 l-5
-5 -4 4 -5 5 4 4 5 5 4 -4 5 -5 -4 -4z m-202 -35 c4 -2 11 -8 16 -13 10 -9 15
-12 32 -18 6 -2 13 -6 16 -8 6 -4 18 -19 18 -22 0 -1 -4 -3 -9 -5 -15 -7 -45
-4 -77 7 l-15 5 1 9 c0 4 1 9 2 9 1 1 0 2 -3 3 -7 1 -13 10 -13 20 0 15 15 22
32 13z m221 -22 c10 -9 3 -26 -10 -26 -8 0 -15 7 -15 15 0 13 16 20 25 11z
m314 -29 c7 -7 7 -23 0 -30 -9 -10 -31 -6 -35 6 -3 7 1 21 6 26 7 5 23 4 29
-2z m-696 -4 c9 -5 11 -7 18 -20 4 -9 5 -10 2 -16 -6 -14 -12 -16 -26 -9 -17
9 -27 33 -17 43 6 6 13 6 23 2z m612 -23 c12 -7 15 -16 10 -40 -8 -42 -12 -50
-29 -51 -15 -1 -20 4 -20 20 0 6 -1 20 -3 29 -3 17 -2 27 3 35 4 9 26 13 39 7z
m-943 -38 c3 -3 4 -8 4 -14 0 -14 -6 -20 -20 -20 -14 0 -20 6 -20 19 0 12 3
17 10 20 8 3 22 1 26 -5z m602 -22 c2 -2 8 -12 13 -22 14 -30 14 -30 32 -30
15 0 15 0 25 9 10 9 11 9 23 9 11 0 14 -1 18 -5 6 -4 6 -6 6 -20 0 -14 0 -16
-5 -20 -3 -3 -9 -5 -14 -6 -4 -1 -9 -3 -9 -4 -1 -2 -3 -3 -4 -2 -7 1 -13 -25
-8 -35 7 -12 9 -17 10 -20 1 -4 0 -4 -24 -1 -18 2 -25 -1 -49 -27 -38 -40 -59
-62 -63 -62 -2 0 -3 -1 -3 -2 0 -2 -2 -1 -5 2 -2 2 -5 4 -6 4 -3 0 -1 178 3
185 1 3 3 5 4 5 1 0 2 1 2 3 0 2 1 3 2 3 5 -2 18 8 40 32 6 7 8 7 12 4z m281
-49 c1 -8 -10 -19 -18 -19 -13 0 -20 16 -10 25 9 9 28 5 28 -6z m-950 1 c6 -6
6 -10 2 -40 -2 -16 -4 -23 -7 -26 -9 -9 -15 -2 -19 26 -4 29 -4 34 1 39 6 6
17 7 23 1z m140 -6 c7 -3 12 -13 12 -25 0 -19 -9 -28 -28 -28 -19 0 -28 9 -28
28 0 24 19 34 44 25z m-294 -43 c3 -5 3 -5 0 -10 -2 -3 -5 -5 -7 -5 -2 0 -5 2
-7 5 -3 5 -3 5 0 10 2 3 5 5 7 5 2 0 5 -2 7 -5z m474 -25 c6 -4 10 -12 10 -24
0 -20 -7 -26 -29 -27 -8 -1 -17 -2 -21 -4 -4 -1 -7 -2 -7 -2 0 2 -7 -6 -11
-12 -3 -4 -4 -11 -5 -25 -1 -16 -2 -20 -7 -27 -3 -4 -5 -7 -5 -7 0 1 -4 1 -9
-1 -12 -3 -15 -3 -40 4 -11 3 -20 5 -21 4 0 0 -3 2 -7 6 l-6 6 1 37 c1 34 1
37 6 43 2 4 4 8 4 9 0 1 1 2 2 2 0 -1 6 2 13 5 13 6 32 7 45 3 12 -4 22 -3 42
5 10 3 20 7 22 8 4 1 18 -1 23 -3z m205 -13 c21 -9 20 -45 -2 -54 -10 -5 -28
-1 -34 6 -9 10 -9 32 0 42 7 8 24 11 36 6z m624 -34 c10 -2 20 -4 21 -4 2 0 5
-2 8 -5 l5 -5 -5 -5 c-3 -3 -6 -5 -8 -5 -1 -1 -11 -2 -21 -4 -25 -4 -30 -4
-35 1 -7 6 -7 19 -1 25 6 6 10 6 36 2z m-1086 -47 c5 -5 5 -15 0 -20 -9 -9
-24 -2 -24 10 0 8 6 14 14 14 3 0 8 -2 10 -4z m867 -5 c3 -5 3 -6 1 -12 -1 -3
-3 -8 -3 -12 -2 -10 -14 -16 -21 -10 -5 4 -10 19 -6 19 1 0 2 1 2 3 0 2 2 4
13 14 4 5 11 3 14 -2z m-984 -2 c12 -12 3 -31 -13 -31 -11 0 -18 7 -18 18 0
11 7 18 18 18 6 0 9 -1 13 -5z m614 -17 c10 -9 3 -26 -10 -26 -3 0 -7 1 -8 2
-5 5 -47 9 -50 5 -1 0 -3 0 -4 2 -5 4 0 9 7 7 2 -1 6 -1 7 0 1 1 6 2 10 2 8 0
16 3 27 9 8 4 16 4 21 -1z m-250 -31 c3 -5 3 -5 0 -10 -5 -6 -8 -6 -13 -1 -5
5 -5 7 0 12 4 5 8 5 13 -1z m-425 -16 c15 -8 14 -41 -1 -48 -14 -8 -37 -2 -41
9 -3 8 -3 24 1 31 6 12 26 16 41 8z m579 -24 c11 -1 20 -1 21 -1 1 0 4 -2 8
-5 6 -6 8 -12 4 -14 -2 -1 -3 -3 -3 -6 0 -3 -1 -6 -2 -7 -2 -1 -3 -8 -1 -11 2
-3 7 -18 6 -18 -1 0 1 -2 3 -5 4 -4 5 -6 4 -18 -1 -22 -7 -29 -27 -29 -12 0
-19 3 -23 10 -5 7 -5 27 0 33 1 3 4 7 6 9 4 5 5 23 2 30 -1 5 -13 10 -25 11
-14 1 -21 11 -12 20 3 4 3 4 39 1z m600 -11 c7 -6 7 -16 0 -22 -5 -5 -33 -14
-50 -15 -15 -2 -21 3 -21 16 0 13 10 19 39 22 6 1 10 2 11 2 3 3 17 1 21 -3z
m-415 -4 c3 -1 9 -7 13 -11 8 -8 32 -21 38 -21 5 0 13 -9 15 -17 3 -15 -3 -32
-12 -34 -4 0 -15 -6 -19 -10 -5 -3 -10 -9 -9 -10 0 0 0 -2 -2 -5 -8 -14 6 -42
31 -65 13 -12 16 -17 25 -34 9 -19 12 -22 37 -46 29 -29 50 -46 81 -66 36 -23
79 -47 85 -47 3 0 3 -1 -1 -4 -3 -3 -7 -5 -10 -6 -2 -1 -54 -2 -116 -2 l-111
0 -12 -6 c-7 -3 -14 -8 -17 -11 -9 -10 -16 -13 -37 -15 -16 -2 -22 -3 -31 -8
-28 -16 -37 -18 -54 -14 -10 3 -17 9 -25 25 -3 7 -7 13 -8 13 -3 2 1 12 7 16
5 3 17 9 43 21 8 4 17 14 17 20 0 2 1 7 1 11 1 5 0 12 -2 16 -6 16 -2 28 13
41 2 2 6 7 8 10 7 14 8 20 8 89 0 89 0 90 -37 108 -11 6 -20 11 -21 12 -1 1
-3 2 -5 3 -3 0 -6 5 -9 10 -2 5 -6 11 -8 13 -2 2 -3 4 -2 4 1 0 2 2 2 4 0 2 1
4 4 4 2 0 5 1 8 3 2 2 8 3 13 3 11 1 33 -5 33 -8 0 -3 30 3 36 8 3 2 7 4 8 4
1 0 3 1 4 3 3 4 12 4 18 -1z m-288 -14 c5 -5 5 -15 0 -20 -9 -9 -24 -2 -24 10
0 8 6 14 14 14 3 0 8 -2 10 -4z m-104 -194 c-1 -88 -2 -158 -3 -160 -5 -9 -7
-10 -12 -5 -2 2 -9 8 -16 13 -7 5 -14 11 -17 14 -3 2 -6 4 -6 4 -1 0 -3 1 -4
3 -9 8 -50 38 -56 40 -9 4 -26 3 -34 -3 -3 -2 -19 -18 -35 -35 -22 -23 -33
-32 -40 -36 -10 -4 -11 -4 -108 -5 -87 0 -98 0 -104 3 -4 2 -7 4 -6 5 1 1 -1
2 -2 3 -3 0 -3 1 0 1 5 0 32 11 40 16 4 2 11 9 16 15 12 14 16 16 33 18 20 2
28 5 43 14 7 5 14 9 15 9 1 0 2 1 2 2 1 1 7 5 15 10 8 5 15 11 17 12 2 2 6 5
9 8 30 23 64 58 83 85 4 6 8 10 9 11 0 0 1 1 1 2 0 1 2 5 5 9 12 16 45 89 45
101 0 2 3 5 7 8 6 5 7 5 49 6 l43 1 6 -6 6 -6 -1 -157z m557 112 c10 -9 3 -26
-10 -26 -8 0 -15 7 -15 15 0 13 16 20 25 11z m286 -2 c7 -3 12 -13 12 -25 0
-19 -9 -28 -28 -28 -19 0 -28 9 -28 28 0 24 19 34 44 25z m-285 -72 c1 0 5 -3
8 -6 5 -5 6 -7 6 -17 0 -20 -9 -27 -28 -25 -15 2 -20 8 -20 24 0 13 3 19 12
23 5 2 8 2 22 1z m-993 -50 c7 -3 12 -13 12 -25 0 -19 -9 -28 -28 -28 -19 0
-28 9 -28 28 0 24 19 34 44 25z m79 -4 c5 -5 5 -11 0 -16 -10 -10 -27 5 -16
16 4 4 12 4 16 0z m1374 -78 c5 -6 5 -12 0 -18 -7 -8 -22 -2 -22 9 0 11 15 17
22 9z m-48 -106 c14 -6 21 -28 12 -37 -6 -6 -17 -7 -25 -1 -10 8 -14 34 -6 40
4 4 7 4 19 -2z m-836 -29 c9 -5 13 -21 9 -38 -3 -17 -42 -19 -50 -2 -4 8 -4
24 0 32 6 12 26 16 41 8z m-260 -4 c8 -4 10 -13 11 -37 1 -21 5 -33 14 -42 8
-7 12 -16 12 -27 0 -19 -9 -28 -28 -28 -21 0 -27 8 -28 36 0 21 -4 32 -16 44
-17 18 -16 44 2 54 10 5 23 5 33 0z m595 -2 c3 -5 3 -5 0 -10 -2 -3 -5 -5 -7
-5 -2 0 -5 2 -7 5 -3 5 -3 5 0 10 2 3 5 5 7 5 2 0 5 -2 7 -5z m-473 -10 c21
-9 20 -45 -2 -54 -10 -5 -28 -1 -34 6 -9 10 -9 32 0 42 7 8 24 11 36 6z m739
-33 c2 -3 2 -3 -2 -5 -6 -3 -11 1 -7 6 3 4 5 4 9 -1z m-515 -15 c13 -2 22 -3
38 -2 12 1 24 1 28 0 8 -1 20 -10 15 -12 -1 0 -5 -6 -8 -12 -5 -10 -5 -13 -6
-38 0 -27 0 -27 -6 -32 -3 -3 -7 -5 -10 -5 -4 0 -13 -2 -30 -7 -4 -1 -5 0 -9
7 -2 4 -5 8 -6 8 -1 0 0 4 1 9 2 5 3 12 3 20 -2 16 -6 19 -24 19 -13 0 -14 0
-16 -5 -4 -8 -5 -33 -2 -39 2 -6 3 -6 13 -6 5 0 11 1 12 2 1 1 2 0 2 -4 0 -5
-5 -11 -7 -9 -1 1 -2 0 -2 -1 0 -1 -4 -1 -9 -1 -8 1 -9 1 -13 -6 -4 -7 -6 -8
-24 -10 -18 -2 -21 -2 -26 -5 -5 -3 -11 -8 -17 -17 -6 -9 -14 -15 -18 -15 -21
-2 -30 5 -30 22 0 14 7 21 21 23 20 2 26 4 34 10 4 4 8 9 8 10 0 1 1 3 2 3 0
1 4 5 7 10 3 5 8 13 12 19 6 9 9 19 15 47 3 13 3 14 12 19 8 3 14 3 40 -2z
m579 -3 c10 -9 3 -26 -10 -26 -8 0 -16 8 -18 20 -1 4 10 9 18 10 3 0 8 -2 10
-4z m-1217 -9 c0 -1 1 -6 2 -13 0 -11 0 -12 -5 -17 -11 -11 -31 -4 -31 12 0
16 13 27 26 22 4 -2 7 -4 8 -4z m1123 -33 c10 -2 15 -8 15 -18 0 -7 -5 -17
-10 -18 -16 -3 -49 4 -56 13 -7 7 -4 20 5 23 5 2 36 2 46 0z m-1227 -36 c1 0
5 -3 8 -6 5 -5 6 -7 6 -18 0 -11 -1 -13 -6 -18 -6 -6 -7 -6 -18 -6 -11 0 -12
0 -18 6 -5 5 -6 7 -6 17 0 14 3 20 12 24 5 2 8 2 22 1z m197 -12 c7 -6 7 -19
1 -25 -6 -7 -19 -7 -25 -1 -7 6 -7 19 -1 25 6 7 19 7 25 1z m721 -11 l-5 -5
-4 4 -5 5 4 4 5 5 4 -4 5 -5 -4 -4z m607 0 c9 -1 25 -9 29 -13 5 -5 5 -14 1
-20 -4 -4 -35 -9 -49 -7 -4 0 -9 1 -11 1 -7 0 -13 9 -13 21 0 18 10 24 30 21
5 -1 11 -2 13 -3z m-998 -7 c11 -10 3 -28 -11 -28 -9 0 -16 6 -16 16 0 14 17
22 27 12z m842 -27 c24 -12 23 -37 -1 -37 -21 0 -36 11 -36 25 0 17 16 22 37
12z m-203 -29 c7 -10 3 -47 -5 -55 -2 -1 -10 -6 -18 -10 -8 -4 -17 -10 -20
-12 -17 -12 -28 -14 -36 -7 -4 3 -5 7 -5 12 0 7 2 10 17 25 9 9 19 20 22 24
12 16 22 25 30 28 10 3 11 3 15 -5z m-1225 0 c4 -4 17 -31 17 -35 0 -3 4 -5
11 -5 5 0 20 -6 25 -11 2 -1 9 -13 16 -27 15 -29 16 -40 6 -50 -5 -5 -7 -6
-17 -6 -18 0 -20 3 -27 36 -4 22 -7 30 -12 37 -3 5 -6 9 -5 9 1 0 0 2 -1 4 -1
2 -5 4 -11 5 -16 2 -32 7 -35 11 -5 6 -5 24 0 30 6 8 26 9 33 2z m1343 -26 c0
-8 -1 -13 -1 -11 -1 2 -2 5 -4 6 -1 1 -1 2 1 2 1 1 2 2 2 3 0 1 -1 2 -2 1 -1
-1 -2 0 -2 1 0 1 1 2 2 2 1 0 2 2 2 5 0 3 0 5 1 5 1 0 1 -7 1 -14z m-1112 4
c1 0 5 -3 8 -6 5 -5 6 -7 6 -18 0 -11 -1 -13 -6 -18 -3 -3 -7 -6 -9 -6 -21 -1
-29 3 -31 14 -1 5 -2 5 -2 3 0 -4 -1 -5 -6 -5 -3 0 -6 -1 -7 -2 0 -2 -1 5 -1
14 0 9 1 16 1 15 1 -2 4 -3 7 -3 4 0 6 -1 7 -4 0 -4 1 -4 1 1 0 7 4 12 11 14
4 2 8 2 21 1z m362 -30 c5 -5 6 -7 6 -17 0 -10 -1 -12 -6 -17 -5 -5 -7 -6 -17
-6 -10 0 -12 1 -17 6 -5 5 -6 7 -6 17 0 10 1 12 6 17 5 5 7 6 17 6 10 0 12 -1
17 -6z m879 -5 c3 -3 3 -3 0 -6 -3 -3 -3 -3 -6 0 -3 2 -3 3 -1 6 4 4 4 4 7 0z
m86 -55 c12 -3 17 -10 17 -24 0 -14 -4 -20 -17 -25 -24 -8 -51 -8 -60 0 -10 8
-11 32 -1 42 7 7 42 11 61 7z m-462 -20 c6 -2 11 -12 11 -21 0 -15 -16 -22
-30 -14 -5 3 -6 5 -6 13 0 18 11 27 25 22z m-65 -49 c9 -4 10 -8 11 -23 0 -19
-9 -28 -27 -29 -12 0 -22 4 -25 12 -4 8 -4 24 0 32 6 12 26 16 41 8z m-1013
-40 c6 -4 6 -6 6 -20 0 -14 0 -16 -6 -20 -10 -9 -39 -5 -42 5 -4 14 -1 30 6
36 8 6 29 6 36 -1z m576 -23 c7 -3 13 -18 13 -30 0 -15 -7 -22 -23 -22 -16 0
-23 7 -23 22 0 22 17 37 33 30z m245 -8 c3 0 6 -18 5 -30 0 -6 -1 -24 -2 -40
-2 -51 -7 -98 -16 -135 -5 -23 -10 -28 -16 -18 -3 4 -3 11 2 73 5 70 5 75 -1
88 -6 11 -19 20 -37 25 -2 1 -3 3 -3 6 0 5 1 6 14 8 16 3 45 20 47 28 l2 4 1
-5 c1 -2 3 -4 4 -4z m433 -33 c12 -12 3 -31 -13 -31 -11 0 -18 7 -18 18 0 11
7 18 18 18 6 0 9 -1 13 -5z m225 -8 c16 -7 20 -37 7 -48 -10 -9 -27 -11 -39
-4 -12 8 -15 34 -4 46 7 8 24 11 36 6z m-562 -3 c5 -6 5 -12 0 -18 -7 -8 -22
-2 -22 9 0 11 15 17 22 9z m-482 -8 c4 -5 5 -18 2 -31 -1 -4 -3 -10 -3 -12 -2
-10 -16 -15 -23 -9 -7 7 -3 42 6 52 4 5 14 5 18 0z m-89 -16 c13 -6 16 -10 17
-28 0 -14 0 -15 -5 -20 -3 -3 -9 -6 -13 -8 -5 -1 -15 -6 -22 -9 -11 -6 -13 -8
-14 -13 0 -2 -1 -5 -2 -6 -2 -1 -5 -10 -4 -13 1 -4 -2 -11 -6 -15 -4 -4 -4 -4
-14 -1 -15 5 -20 10 -20 22 0 9 0 10 12 21 17 15 18 20 18 48 0 15 4 23 15 26
8 3 28 1 38 -4z m285 -42 c5 -5 6 -7 6 -17 0 -10 -1 -12 -6 -17 -5 -5 -7 -6
-17 -6 -10 0 -12 1 -17 6 -5 5 -6 7 -6 17 0 10 1 12 6 17 5 5 7 6 17 6 10 0
12 -1 17 -6z m804 -25 c5 -2 10 -12 10 -23 0 -15 -7 -22 -23 -22 -10 0 -12 1
-17 6 -8 8 -9 25 -1 33 6 8 19 10 31 6z m-1380 -7 c5 -6 5 -12 0 -18 -7 -8
-22 -2 -22 9 0 11 15 17 22 9z m1201 0 c11 -10 3 -28 -11 -28 -9 0 -16 6 -16
16 0 14 17 22 27 12z m298 -11 c12 -3 17 -24 8 -34 -8 -10 -28 -10 -35 -1 -5
6 -5 24 0 30 3 4 14 8 19 7 1 0 5 -1 8 -2z m-1314 -71 c11 -10 3 -28 -11 -28
-9 0 -16 6 -16 16 0 14 17 22 27 12z m578 -74 c10 -9 3 -26 -10 -26 -8 0 -15
7 -15 15 0 13 16 20 25 11z m332 -9 c3 -5 3 -5 0 -10 -2 -3 -5 -5 -7 -5 -2 0
-5 2 -7 5 -3 5 -3 5 0 10 2 3 5 5 7 5 2 0 5 -2 7 -5z m431 -13 c10 -10 2 -26
-13 -26 -18 0 -24 25 -7 30 5 2 16 0 20 -4z m-426 -59 l-5 -5 -4 4 -5 5 4 4 5
5 4 -4 5 -5 -4 -4z"/>
<path d="M1929 2459 c-10 -11 -18 -29 -16 -39 1 -13 15 -26 27 -26 12 0 23 7
29 19 7 12 8 31 3 41 -5 9 -7 10 -24 10 -13 0 -15 -1 -19 -5z"/>
</g>
</svg>
