<?xml version="1.0" standalone="no"?>
<!DOCTYPE svg PUBLIC "-//W3C//DTD SVG 20010904//EN"
 "http://www.w3.org/TR/2001/REC-SVG-20010904/DTD/svg10.dtd">
<svg version="1.0" xmlns="http://www.w3.org/2000/svg"
 width="1104.000000pt" height="2850.000000pt" viewBox="0 0 1104.000000 2850.000000"
 preserveAspectRatio="xMidYMid meet">
<metadata>
Created by potrace 1.15, written by Peter Selinger 2001-2017
</metadata>
<g transform="translate(0.000000,2850.000000) scale(0.500000,-0.500000)"
fill="#000000" stroke="none">
<path d="M389 3822 c-30 -9 -41 -20 -41 -40 0 -12 1 -14 18 -39 17 -25 36 -69
45 -101 4 -15 22 -57 25 -58 1 0 2 -2 2 -3 0 -1 5 -8 11 -14 l11 -11 12 0 c8
1 16 3 26 9 26 13 42 8 42 -13 0 -13 -6 -20 -16 -20 -4 0 -11 -1 -16 -2 -5 -1
-11 -3 -13 -3 -9 -2 -19 -8 -21 -12 -4 -10 -2 -25 5 -43 2 -3 3 -7 2 -9 0 -1
0 -4 1 -5 3 -5 -3 -13 -10 -15 -10 -2 -25 -1 -36 1 -9 2 -10 3 -16 14 -8 16
-15 48 -10 48 3 0 -6 29 -9 32 -11 8 -24 10 -36 5 -9 -4 -13 -12 -12 -25 1 -6
0 -10 -1 -10 -1 0 0 -2 3 -5 5 -4 6 -6 6 -15 0 -15 -8 -23 -23 -23 -14 0 -22
8 -22 21 0 19 0 23 -2 31 -3 10 -15 22 -25 24 -9 2 -21 12 -27 24 -17 35 -52
90 -64 99 -8 7 -25 13 -37 13 -15 -1 -32 -11 -38 -23 -4 -8 -2 -28 3 -28 1 0
2 -2 3 -4 0 -1 4 -6 7 -10 17 -18 16 -35 -2 -44 -20 -10 -32 -28 -32 -49 0
-14 3 -21 14 -41 1 -2 3 -6 5 -10 2 -4 5 -10 7 -13 2 -4 6 -13 9 -21 10 -28 5
-42 -15 -42 -18 0 -22 8 -22 43 0 18 -6 34 -15 40 -6 4 -19 6 -26 4 -8 -2 -24
-19 -42 -43 -18 -26 -17 -22 -17 -94 l0 -64 5 -9 c14 -25 32 -44 46 -48 11 -3
26 -3 24 -1 -1 1 0 2 1 2 3 0 6 11 6 27 -1 24 5 32 26 32 9 -1 13 -2 25 -9 16
-8 28 -13 42 -15 12 -2 17 -5 35 -25 9 -10 24 -25 31 -33 15 -14 15 -15 15
-25 0 -5 -1 -11 -3 -12 -5 -6 -11 -15 -10 -17 1 0 -1 0 -4 0 -3 1 -6 2 -7 3
-2 4 -11 5 -18 4 -4 -1 -9 -3 -11 -3 -13 -3 -15 -7 -45 -77 -3 -7 -16 -35 -30
-63 -28 -57 -29 -61 -22 -88 4 -15 4 -20 0 -32 -3 -6 -6 -8 -25 -13 -17 -4
-34 -12 -37 -18 -6 -11 0 -32 10 -41 8 -6 17 -12 18 -12 1 0 2 -1 3 -2 2 -1 8
-1 15 -1 10 0 15 1 31 9 32 15 55 29 57 35 3 8 2 28 -4 38 -5 11 -5 19 0 24 5
5 15 5 19 2 2 -2 7 -7 12 -11 7 -7 10 -9 19 -10 13 -2 16 -1 21 4 2 2 8 7 12
10 4 3 12 10 17 14 5 4 15 13 21 18 6 6 14 12 17 15 11 10 28 12 40 4 3 -1 17
-10 31 -19 15 -9 31 -19 38 -22 19 -9 23 -14 16 -20 -3 -3 -5 -3 -13 -1 -13 3
-27 3 -34 -1 -3 -1 -14 -10 -24 -19 -30 -28 -65 -57 -96 -82 -48 -39 -48 -38
-76 -57 -9 -7 -17 -12 -18 -13 -2 -2 -70 -47 -83 -54 -6 -4 -14 -9 -17 -10 -3
-2 -6 -5 -8 -5 -2 -1 -7 -5 -13 -8 -5 -3 -13 -8 -18 -10 -9 -5 -20 -14 -23
-20 -1 -3 -2 -10 -2 -16 0 -13 7 -26 19 -37 6 -5 24 -12 32 -12 7 0 83 23 86
26 1 1 4 0 7 -4 l6 -6 0 -56 c0 -50 0 -57 4 -64 5 -13 16 -23 27 -27 3 -1 8
-4 11 -7 5 -5 6 -7 6 -16 0 -9 -1 -11 -6 -16 -3 -3 -8 -6 -11 -7 -11 -4 -22
-14 -27 -27 -5 -11 -5 -50 -1 -63 3 -8 15 -24 21 -29 13 -9 13 -37 0 -46 -6
-5 -18 -21 -21 -30 -2 -6 -3 -22 -3 -77 0 -79 1 -83 14 -99 11 -13 14 -19 14
-26 0 -6 -7 -18 -13 -24 -9 -8 -6 -32 3 -36 3 -2 6 -3 6 -4 0 -2 10 -3 31 -3
21 0 32 3 43 13 7 6 17 12 22 12 4 0 26 -8 29 -10 1 -1 8 -3 14 -4 11 -1 14 0
31 5 60 21 97 45 112 74 l7 14 0 33 0 33 6 6 6 6 47 0 47 0 6 -6 6 -6 0 -26
c0 -33 3 -40 26 -55 10 -6 13 -10 17 -21 l4 -8 18 0 19 0 4 11 c4 12 10 16 22
16 12 0 17 -3 26 -17 9 -14 9 -14 26 -15 10 -1 13 0 13 1 0 2 1 3 2 3 2 0 12
26 12 32 0 5 8 12 15 12 5 0 19 -7 19 -10 0 -1 5 -5 10 -8 6 -4 10 -7 10 -8 0
0 1 -3 1 -5 1 -3 -8 -13 -11 -13 -3 0 -13 -10 -16 -16 -3 -6 -3 -24 0 -32 9
-20 46 -15 78 10 4 3 8 8 8 9 0 2 1 3 2 3 1 0 3 5 6 10 6 13 10 15 27 17 24 2
35 8 44 24 6 9 1 29 -7 35 -8 4 -21 5 -28 0 -18 -10 -27 -14 -32 -14 -8 1 -9
5 -5 20 4 14 4 91 1 102 -5 14 -22 25 -41 27 -19 2 -26 10 -26 28 0 18 7 26
26 28 19 2 36 13 41 27 1 5 2 37 2 107 l0 101 -5 17 c-9 30 -6 40 17 51 13 6
20 12 22 18 2 9 2 34 -1 40 -4 9 0 16 14 20 4 1 8 4 10 5 3 3 3 3 3 0 0 -1 2
-6 5 -10 3 -4 8 -13 11 -19 4 -7 10 -15 16 -19 11 -10 12 -11 19 -25 3 -6 9
-15 13 -21 12 -17 14 -21 14 -27 0 -6 -1 -8 -9 -17 -3 -3 -5 -6 -5 -7 0 -1 -1
-2 -2 -2 -5 0 -1 -23 5 -29 3 -3 5 -9 6 -12 2 -6 2 -6 9 -22 9 -18 21 -23 49
-19 21 2 69 14 82 20 5 2 10 4 11 4 2 0 30 16 32 18 2 3 17 8 22 8 16 0 38
-19 38 -32 0 -6 -2 -9 -9 -16 -3 -3 -5 -6 -5 -8 0 -3 0 -3 -2 0 -2 3 -2 3 -3
0 -2 -5 -2 -20 -1 -19 1 1 2 -2 2 -6 0 -3 1 -8 3 -9 8 -6 0 -20 -11 -20 -3 0
-6 1 -6 2 0 4 -26 8 -39 5 -4 -1 -7 -3 -9 -6 -20 -43 -39 -77 -48 -88 -1 -2
-2 -3 -2 -4 0 0 -2 -4 -5 -8 -3 -4 -7 -15 -9 -27 -5 -21 -9 -28 -21 -32 -18
-6 -29 -13 -45 -28 -9 -9 -21 -20 -28 -25 -23 -20 -24 -21 -24 -35 0 -14 1
-16 11 -30 6 -8 6 -10 6 -29 0 -11 1 -22 2 -25 2 -6 10 -10 24 -10 11 1 12 1
19 8 11 13 24 14 44 6 5 -3 15 -5 23 -5 14 -1 14 -1 32 8 10 5 22 12 26 15 4
3 11 6 14 8 4 2 13 8 20 13 8 5 16 10 18 12 3 2 25 18 38 28 6 4 7 5 28 24 17
15 56 53 65 64 21 26 27 33 41 54 16 24 24 37 29 47 12 25 22 25 38 2 5 -7 9
-13 10 -14 1 -1 7 -9 13 -18 l11 -18 14 1 c16 0 20 3 27 18 6 13 12 18 25 18
18 0 25 -8 23 -27 -3 -33 0 -48 15 -63 2 -2 8 -8 12 -13 5 -6 9 -10 10 -9 1 1
2 0 2 -1 1 -2 2 -2 6 -1 7 3 20 1 23 -4 5 -6 3 -14 -2 -20 -6 -6 -12 -6 -19 1
-11 10 -14 12 -26 12 -20 2 -24 -4 -25 -33 -1 -13 3 -29 11 -46 8 -16 34 -23
40 -10 1 3 3 6 3 8 1 5 9 21 11 21 1 0 3 2 5 3 4 5 14 5 26 0 14 -5 19 -18 14
-39 -4 -16 -3 -30 5 -45 7 -13 8 -27 3 -32 -4 -4 -5 -24 -2 -32 2 -4 6 -8 15
-13 7 -4 17 -10 23 -13 13 -10 23 -12 37 -9 6 1 13 3 16 3 3 1 7 1 9 2 3 1 9
1 13 2 30 4 59 22 85 54 14 17 31 56 36 83 5 23 1 67 -8 97 -7 22 -29 65 -41
80 -6 7 -24 14 -45 16 -18 2 -25 11 -25 34 0 21 -9 36 -29 50 -3 3 -7 6 -9 7
-4 4 -39 26 -44 28 -3 1 -6 3 -8 5 -6 6 -80 41 -86 41 -5 0 -5 2 0 6 6 5 8 7
17 7 36 4 82 15 94 22 11 6 17 15 23 32 3 9 7 17 9 19 6 6 19 6 30 0 11 -5 25
-7 34 -4 10 3 19 24 21 47 2 15 1 308 -1 315 0 4 -3 9 -6 10 -5 4 -31 8 -31 6
-1 -1 -5 -3 -10 -4 -10 -2 -23 0 -28 6 -10 9 -9 33 1 41 6 5 35 11 37 7 0 -1
3 0 7 4 6 6 6 6 6 25 1 25 2 28 9 37 3 4 6 9 6 10 0 1 1 2 2 2 1 0 3 5 6 11 4
11 4 14 4 106 0 94 0 94 5 102 3 6 7 10 15 14 14 7 33 23 38 32 5 7 5 23 1 32
-3 7 -13 17 -17 17 -1 0 -2 1 -2 2 -1 1 -10 8 -20 16 -24 17 -42 31 -47 35 -1
2 -4 3 -5 3 -1 0 -2 1 -2 2 -1 1 -7 6 -14 11 -42 31 -93 70 -94 71 -3 3 -26
20 -32 23 -8 4 -27 3 -35 -2 -5 -3 -12 -16 -14 -25 0 -3 -2 -11 -4 -18 -3 -19
-5 -20 -27 -25 -2 0 -5 -1 -7 -2 -11 -2 -27 -11 -33 -18 -4 -5 -12 -11 -17
-13 -10 -5 -11 -5 -68 -6 l-57 0 -13 6 c-6 3 -11 6 -9 6 3 0 3 22 0 28 -9 17
-10 25 -3 32 4 4 15 6 18 2 4 -4 23 -8 33 -8 10 1 12 1 18 9 4 4 16 16 26 27
22 22 34 36 37 43 3 6 14 18 20 21 3 1 5 4 6 6 1 5 27 30 34 34 8 4 24 3 42
-3 8 -3 19 -5 24 -5 11 0 26 6 30 13 4 7 9 25 9 35 0 14 6 20 20 22 18 2 28
-5 28 -22 0 -10 5 -28 9 -35 2 -3 7 -7 12 -9 8 -4 12 -4 72 -4 47 0 67 1 77 3
15 3 34 12 43 20 7 6 7 7 7 20 0 16 -3 20 -21 28 -14 6 -16 10 -18 29 -1 16
-5 30 -8 32 -1 1 -1 2 0 2 2 0 -17 19 -28 27 -4 3 -9 8 -12 10 -17 15 -36 30
-53 41 -19 13 -21 15 -40 33 l-14 13 -12 0 c-15 -1 -18 -2 -28 -12 -12 -12
-14 -33 -5 -50 6 -13 7 -26 1 -35 -2 -4 -5 -7 -6 -7 -3 0 -20 -18 -28 -29 -4
-7 -9 -14 -11 -15 -5 -4 -19 -8 -25 -7 -23 4 -29 17 -22 47 4 17 5 24 4 40 0
2 -1 4 -2 5 -3 2 4 8 11 11 3 1 11 2 16 3 14 2 23 11 26 27 2 13 -6 18 -27 18
-13 0 -14 0 -17 -6 -3 -7 -8 -26 -7 -30 0 -1 -1 -2 -2 -1 -2 1 -2 1 -1 -1 1
-2 -2 -13 -5 -11 -1 0 -2 0 -3 -2 0 -2 -2 -3 -4 -3 -2 0 -3 -1 -3 -2 0 -1 -1
-2 -1 -2 -5 1 -17 -3 -19 -7 -2 -2 -3 -4 -4 -5 -3 -2 -8 -16 -11 -30 -5 -23
-8 -26 -36 -29 -17 -2 -23 -9 -22 -28 0 -8 -1 -11 -3 -12 -2 0 -1 -1 1 -1 6 0
9 -8 9 -20 0 -9 -6 -20 -15 -30 -5 -4 -8 -18 -7 -34 0 -17 -4 -22 -15 -22 -11
0 -20 16 -13 23 5 6 12 38 9 45 -1 1 -2 4 -2 4 0 1 -1 2 -1 3 -3 2 -2 20 0 26
2 3 4 5 7 5 2 0 3 1 1 1 -2 1 -3 4 -3 12 1 15 -2 20 -12 24 -7 3 -42 3 -282 2
-151 0 -276 -1 -277 -1 -2 0 -4 -1 -4 -2 0 -1 -2 -2 -5 -3 -5 -1 -14 -12 -22
-27 -8 -13 -13 -16 -35 -17 -27 -1 -36 -8 -44 -35 -4 -12 -10 -16 -27 -17 -16
-1 -41 -6 -50 -9 -3 -1 -15 -2 -28 -2 -21 0 -22 0 -30 6 -4 3 -7 6 -5 6 5 0
19 35 22 57 4 27 -5 65 -16 74 -8 5 -30 5 -40 0 -9 -4 -16 -4 -22 2 -5 6 -5
13 1 25 4 7 6 12 6 22 1 13 0 13 -7 20 -7 7 -38 23 -63 34 -28 11 -74 22 -111
27 -4 0 -11 1 -16 2 -39 5 -68 5 -81 1z m159 -159 l-5 -5 -4 4 -5 5 4 4 5 5 4
-4 5 -5 -4 -4z m896 -74 c13 -6 14 -34 3 -53 -3 -5 -16 -12 -36 -21 -11 -5
-36 -31 -43 -46 -3 -7 -7 -18 -9 -25 -4 -17 -9 -21 -24 -23 -33 -3 -47 -11
-56 -30 -4 -9 -9 -27 -9 -30 1 -4 0 -7 -5 -12 l-4 -5 -14 6 c-67 27 -101 40
-106 40 -9 0 -16 -4 -19 -9 -3 -7 -3 -23 1 -32 7 -16 1 -26 -15 -24 -10 1 -51
20 -56 26 -6 7 -8 20 -6 30 3 12 11 19 23 20 27 2 59 35 59 61 1 19 3 16 -29
46 -8 7 -16 14 -18 15 -2 2 -3 3 -1 3 1 0 4 2 6 5 l4 4 86 1 c47 1 86 0 86 -1
0 -6 46 -9 52 -3 5 5 21 10 36 11 22 2 38 13 51 35 8 15 26 19 43 11z m-823
-63 c4 -6 4 -24 -1 -30 -7 -9 -27 -9 -34 0 -5 6 -5 24 0 30 7 9 27 9 35 0z
m340 4 c11 -10 3 -28 -11 -28 -9 0 -16 6 -16 16 0 14 17 22 27 12z m-383 -91
c27 -17 24 -17 108 -17 l74 0 5 -5 5 -6 -4 -8 c-5 -8 -22 -26 -72 -73 -15 -14
-34 -32 -43 -40 -9 -9 -20 -18 -24 -20 -10 -5 -28 -7 -42 -5 -8 1 -9 2 -8 5 0
2 0 4 -2 4 -2 0 5 3 21 7 27 8 50 23 62 42 9 13 10 19 8 30 -3 15 -14 25 -35
32 -5 2 -14 5 -19 7 -11 6 -27 7 -46 4 -20 -3 -29 0 -38 10 -15 15 -6 37 17
43 9 2 20 -2 33 -10z m-336 -25 c5 -5 5 -11 0 -16 -10 -10 -27 5 -16 16 4 4
12 4 16 0z m154 -4 c3 -1 9 -5 13 -10 11 -10 26 -18 43 -21 14 -2 20 -8 24
-20 6 -22 -8 -39 -29 -38 -12 1 -17 4 -29 16 -11 11 -26 20 -43 25 -13 3 -16
8 -16 25 0 14 0 16 6 20 6 5 22 7 31 3z m520 -8 c8 -4 11 -6 14 -14 7 -18 4
-38 -7 -42 -10 -4 -26 -2 -33 3 -12 10 -17 39 -8 49 7 9 20 10 34 4z m852 -68
c5 -5 5 -11 0 -16 -10 -10 -27 5 -16 16 4 4 12 4 16 0z m-793 -27 c1 -3 1 -17
1 -32 -1 -26 -1 -29 -6 -34 l-5 -6 -13 13 c-7 7 -16 16 -20 19 -18 16 -17 24
6 38 10 6 19 11 22 12 2 1 4 2 4 3 0 4 10 -8 11 -13z m125 -30 c1 -3 2 -8 2
-16 -1 -11 -2 -13 -9 -21 -8 -9 -20 -13 -21 -7 -2 19 1 42 7 46 5 4 17 2 21
-2z m207 -24 c22 -7 41 -17 41 -21 0 -3 -9 -8 -29 -14 -14 -5 -23 -12 -27 -21
-2 -4 -3 -19 -2 -51 l0 -45 -6 -13 c-4 -8 -6 -11 -7 -9 0 2 -2 3 -3 2 -1 -1
-2 0 -2 0 0 2 -16 7 -22 7 -2 0 -8 3 -13 7 -5 4 -15 10 -23 15 -18 9 -23 16
-17 22 3 3 4 3 16 1 8 -2 15 -2 16 -2 1 1 4 1 8 1 4 0 8 2 11 5 3 4 12 27 12
33 0 1 1 4 3 6 7 9 10 43 4 50 -2 1 -3 7 -3 12 0 20 14 25 43 15z m-239 -29
c0 -1 2 -1 4 -1 2 1 2 1 1 0 -2 -1 -2 -5 -2 -9 1 -3 0 -9 -2 -12 -1 -3 -3 -9
-4 -15 -3 -18 -11 -31 -22 -31 -6 0 -13 6 -13 12 -1 12 -1 18 1 27 2 10 10 23
14 23 1 0 4 2 7 4 5 4 16 5 16 2z m100 -17 l-5 -5 -4 4 -5 5 4 4 5 5 4 -4 5
-5 -4 -4z m420 -3 c1 0 1 -2 1 -4 0 -3 2 -10 4 -17 4 -17 4 -25 -2 -31 -4 -4
-6 -4 -19 -3 -23 1 -36 8 -51 28 -16 20 -29 23 -54 9 -23 -12 -31 -10 -43 9
-2 4 -6 7 -8 7 -2 0 -2 1 0 1 2 1 6 3 9 6 6 4 9 4 78 5 l72 1 6 -5 c3 -4 6 -6
7 -6z m-787 -2 c9 -5 10 -11 9 -45 0 -44 -2 -51 -15 -63 -3 -3 -9 -10 -14 -17
-16 -22 -38 -27 -54 -12 -10 8 -10 33 0 44 5 5 12 19 10 19 -1 0 0 2 1 5 5 14
-4 23 -22 23 -14 0 -21 12 -12 22 2 3 6 4 12 4 16 -1 31 5 45 15 11 9 28 11
40 5z m918 -51 c12 -7 14 -33 3 -43 -8 -9 -32 -9 -40 0 -9 8 -9 32 0 41 7 7
27 8 37 2z m109 -11 c5 -5 5 -15 0 -20 -9 -9 -24 -2 -24 10 0 8 6 14 14 14 3
0 8 -2 10 -4z m-1246 -3 c4 -2 8 -4 8 -5 0 -1 1 -2 3 -2 1 0 2 -2 3 -5 0 -2 1
-7 3 -10 2 -3 3 -11 3 -17 0 -10 -1 -13 -6 -19 -4 -4 -9 -8 -12 -10 -9 -5 -16
-28 -10 -36 2 -4 12 -7 25 -8 21 -1 26 -7 28 -28 1 -11 1 -13 -3 -18 -3 -2 -9
-6 -14 -7 -14 -3 -24 0 -36 11 -11 10 -16 13 -31 14 -5 1 -10 1 -11 2 -1 0 -4
-1 -8 -2 -16 -3 -30 7 -31 22 -2 29 -13 44 -36 50 -11 3 -19 9 -19 14 0 1 7
11 15 21 9 10 16 21 17 22 2 4 12 10 21 12 3 1 23 2 44 2 31 0 40 -1 47 -3z
m-335 -21 c1 -3 2 -5 3 -6 2 -1 2 -3 -1 -5 -3 -3 -3 -3 -6 0 -3 3 -3 4 -1 5 1
0 2 3 2 7 0 6 2 6 3 -1z m697 1 c4 -2 9 -6 11 -7 2 -2 5 -4 7 -4 6 0 14 -21
14 -39 1 -17 7 -33 17 -43 19 -21 19 -41 0 -62 -3 -2 -7 -10 -10 -16 l-6 -11
-1 -58 -1 -58 -5 -8 c-4 -5 -6 -7 -6 -5 0 6 -10 16 -21 21 -12 6 -20 6 -34 2
-24 -7 -39 -2 -39 14 0 5 1 9 2 10 5 3 10 19 10 30 0 10 -3 21 -6 21 -1 0 -4
2 -7 5 -3 3 -13 10 -21 15 -22 15 -24 18 -24 25 0 7 1 9 31 40 10 10 32 35 37
42 3 3 6 8 8 9 4 5 8 26 7 33 -3 15 -3 33 0 38 7 10 24 13 37 6z m514 -43 c12
-12 -4 -33 -21 -29 -3 0 -14 -2 -25 -4 -28 -8 -27 -8 -31 -2 -3 5 -3 5 0 10 3
4 6 5 11 5 12 0 31 7 36 13 4 5 18 11 23 10 2 0 6 -2 7 -3z m147 -23 c23 -11
29 -39 10 -53 -2 -2 -8 -7 -12 -11 l-9 -8 -4 6 c-8 12 -10 21 -10 37 1 21 5
28 18 32 0 0 3 -1 7 -3z m-1397 -39 c1 0 5 -3 8 -6 5 -5 6 -7 6 -18 0 -11 -1
-13 -6 -18 -6 -6 -7 -6 -18 -6 -11 0 -12 0 -18 6 -5 5 -6 7 -6 17 0 14 3 20
12 24 5 2 8 2 22 1z m107 -1 c3 -3 3 -3 -1 -7 -2 -3 -4 -4 -5 -2 -1 1 -1 2 0
2 1 0 1 1 -1 2 -2 1 -2 2 0 5 4 4 4 4 7 0z m1070 -33 c12 -7 14 -35 2 -46 -3
-2 -6 -4 -7 -3 -1 1 -2 0 -3 -1 -1 -1 -5 -3 -9 -5 -19 -8 -27 -18 -33 -39 -3
-13 -9 -20 -20 -24 -4 -2 -7 -4 -7 -6 0 -2 -1 -2 -1 0 -1 1 -4 6 -7 9 -12 13
-23 43 -21 54 3 14 9 24 18 30 5 3 9 7 9 9 0 2 1 2 1 1 1 -2 5 -3 11 -3 10 0
11 1 22 12 7 8 14 13 18 14 8 2 21 1 27 -2z m-626 -13 c7 -7 7 -23 0 -30 -5
-5 -6 -5 -18 -4 -34 3 -37 3 -48 0 -22 -6 -36 -2 -37 12 -2 17 -1 17 4 21 5 4
8 4 19 3 31 -3 38 -3 47 0 15 4 27 4 33 -2z m316 -22 c5 -8 1 -16 -8 -16 -9 0
-13 8 -8 16 2 3 5 5 8 5 3 0 6 -2 8 -5z m661 -23 c5 -6 5 -13 0 -18 -12 -11
-29 5 -18 18 4 5 13 5 18 0z m-155 -15 c6 -7 9 -19 9 -39 0 -12 -2 -19 -4 -24
-2 -4 -3 -8 -3 -9 1 0 1 -1 -1 -1 -3 0 -2 -22 2 -38 1 -6 2 -72 2 -190 l0
-181 -5 -3 c-4 -4 -5 -4 -22 1 -22 6 -28 12 -26 23 3 13 2 30 -3 40 -2 5 -5 9
-6 10 -4 4 -8 15 -8 24 0 12 4 20 12 25 9 5 22 18 26 27 5 10 8 28 14 88 6 55
4 65 -14 84 -13 13 -14 16 -14 27 0 10 -1 8 24 31 l10 10 -1 12 c-1 11 -5 21
-13 28 -3 3 -8 12 -8 16 -1 12 0 16 11 28 6 7 11 14 11 17 0 2 1 3 1 1 1 -1 3
-4 6 -7z m161 -50 c9 -4 13 -8 16 -18 7 -26 -17 -46 -42 -36 -15 7 -20 34 -8
48 7 8 22 11 34 6z m-426 -57 c4 -1 8 0 10 1 5 3 20 1 25 -4 7 -6 7 -22 0 -28
-5 -6 -22 -7 -26 -3 -2 4 -17 3 -17 -1 0 -1 -2 1 -4 6 -2 4 -3 10 -3 13 0 7 5
20 7 18 1 -1 4 -2 8 -2z m-881 -14 c9 -5 13 -28 7 -40 -6 -11 -32 -15 -43 -5
-10 8 -11 32 -1 42 7 6 26 8 37 3z m387 -2 c12 -4 18 -20 14 -34 -4 -14 -10
-19 -25 -21 -3 -1 -8 -2 -11 -2 -5 -1 -17 -3 -34 -4 -24 -2 -38 15 -32 38 4
13 10 18 26 20 4 1 8 2 10 2 2 1 10 2 18 2 8 1 15 2 16 2 1 2 12 0 18 -3z
m618 -2 c3 -3 6 -7 6 -8 0 -1 1 -3 3 -4 1 -2 3 -5 4 -6 1 -2 6 -9 10 -15 7
-10 8 -13 8 -23 0 -19 -8 -27 -27 -27 -13 0 -19 3 -23 10 -5 7 -5 67 0 75 4 6
11 5 19 -2z m-830 -14 c6 -3 47 -39 54 -47 5 -5 6 -8 6 -15 0 -10 -2 -12 -37
-49 -3 -3 -11 -11 -16 -17 -17 -18 -24 -21 -63 -22 -18 -1 -40 -2 -49 -3 -20
-2 -22 -1 -74 18 -59 21 -61 24 -28 40 50 25 125 65 141 74 5 4 11 7 11 7 1 0
3 1 5 3 15 13 38 18 50 11z m635 -19 c12 -12 3 -31 -13 -31 -11 0 -18 7 -18
18 0 11 7 18 18 18 6 0 9 -1 13 -5z m-204 0 c5 -2 11 -6 16 -9 4 -3 15 -9 24
-12 21 -8 25 -12 25 -27 0 -10 -1 -12 -6 -17 l-6 -7 -31 2 c-34 1 -35 1 -45 6
-10 4 -15 16 -14 35 2 15 7 25 10 20 2 -2 2 -2 2 0 0 2 3 6 8 8 9 5 8 5 17 1z
m773 -51 c5 -5 5 -11 0 -16 -10 -10 -27 5 -16 16 4 4 12 4 16 0z m-916 -42
c14 -6 30 -24 30 -33 0 -9 -9 -15 -16 -10 -2 1 -5 3 -7 4 -8 4 -20 16 -24 24
-3 8 -3 9 0 14 5 6 6 6 17 1z m476 -51 c2 -2 7 -9 10 -16 4 -6 8 -14 10 -16 2
-2 7 -7 11 -12 11 -12 12 -35 2 -44 -6 -6 -27 -7 -34 -2 -4 3 -13 18 -16 29
-1 3 -6 12 -11 20 -11 17 -13 31 -6 40 6 8 26 9 34 1z m-583 -78 c5 -5 7 -20
3 -27 -3 -5 -14 -10 -24 -11 -5 -1 -7 0 -10 7 -10 20 -3 36 16 36 8 0 11 -1
15 -5z m-377 -12 c3 -3 4 -7 4 -14 0 -13 -6 -19 -19 -19 -13 0 -19 6 -19 19 0
7 1 11 4 14 7 8 23 8 30 0z m901 1 c7 -6 7 -19 1 -25 -6 -7 -19 -7 -25 -1 -7
6 -7 19 -1 25 6 7 19 7 25 1z m-782 -14 c19 -7 24 -8 35 -8 12 1 13 1 19 -5
l6 -6 0 -129 0 -129 -6 -6 c-5 -5 -7 -6 -14 -5 -20 1 -43 -12 -52 -30 -5 -10
-12 -12 -34 -14 -43 -2 -55 4 -55 25 0 11 1 12 8 19 4 4 11 10 17 13 6 5 10
10 14 18 5 11 5 12 5 51 0 49 -3 60 -21 76 -16 15 -16 39 0 54 5 5 18 22 16
22 0 0 0 4 1 9 2 4 2 13 2 18 0 12 3 26 8 30 4 4 16 7 23 6 4 -1 17 -5 28 -9z
m945 -31 l-5 -5 -4 4 -5 5 4 4 5 5 4 -4 5 -5 -4 -4z m-308 -14 l-5 -5 -4 4 -5
5 4 4 5 5 4 -4 5 -5 -4 -4z m-417 -3 c7 -13 1 -26 -12 -26 -14 0 -20 17 -9 27
9 7 16 7 21 -1z m-416 -18 c6 -5 6 -12 2 -23 -3 -11 -3 -34 2 -44 4 -10 5 -24
1 -33 -7 -17 -43 -17 -50 -1 -5 15 -7 41 -4 56 3 14 19 40 28 45 7 5 16 5 21
0z m350 -167 c4 -4 5 -7 5 -15 0 -14 -6 -20 -20 -20 -14 0 -20 6 -20 20 0 14
6 20 20 20 8 0 11 -1 15 -5z m1147 -110 c14 -2 20 -7 20 -20 0 -16 -8 -23 -28
-26 -23 -3 -36 4 -36 21 0 19 16 28 44 25z m-605 -37 c11 -10 3 -28 -11 -28
-9 0 -16 6 -16 16 0 14 17 22 27 12z m-869 -7 c4 -4 4 -7 4 -18 0 -7 -1 -15
-2 -18 -2 -3 -3 -7 -2 -7 1 -5 -16 3 -27 12 -7 6 -7 8 -7 17 0 7 1 11 4 14 7
8 23 8 30 0z m16 -55 c4 -2 10 -7 15 -10 7 -6 7 -8 7 -17 0 -13 -6 -19 -19
-19 -15 0 -20 6 -19 23 0 7 1 15 2 18 2 3 3 7 2 8 0 2 4 1 12 -3z"/>
<path d="M990 2471 c0 -1 -1 -1 -1 0 -3 2 -6 -4 -5 -10 1 -7 9 -13 18 -14 3 0
5 -1 5 -1 -1 -1 0 -3 2 -4 2 -1 3 -2 3 -1 0 1 1 0 2 -2 1 -3 2 -3 2 0 0 1 1 3
2 3 1 0 2 1 2 3 -1 1 0 2 2 1 2 0 2 1 1 2 -1 2 -2 6 -2 10 2 13 -2 16 -17 16
-8 0 -14 -2 -14 -3z"/>
<path d="M1656 2019 c0 -1 2 -5 5 -9 4 -6 6 -8 10 -8 3 0 5 -1 6 -2 1 -3 2 5
1 10 -1 5 -9 10 -15 10 -4 0 -7 0 -7 -1z"/>
<path d="M971 1949 c-6 -5 -7 -6 -7 -14 0 -12 3 -18 11 -21 6 -3 22 -4 25 -1
3 3 3 32 0 37 -4 6 -18 6 -29 -1z"/>
</g>
</svg>
