<?xml version="1.0" standalone="no"?>
<!DOCTYPE svg PUBLIC "-//W3C//DTD SVG 20010904//EN"
 "http://www.w3.org/TR/2001/REC-SVG-20010904/DTD/svg10.dtd">
<svg version="1.0" xmlns="http://www.w3.org/2000/svg"
 width="1100.000000pt" height="2850.000000pt" viewBox="0 0 1100.000000 2850.000000"
 preserveAspectRatio="xMidYMid meet">
<metadata>
Created by potrace 1.15, written by Peter Selinger 2001-2017
</metadata>
<g transform="translate(0.000000,2850.000000) scale(0.500000,-0.500000)"
fill="#000000" stroke="none">
<path d="M228 3852 c-23 -4 -32 -18 -35 -52 0 -11 3 -22 9 -29 4 -4 26 -15 31
-15 8 0 16 -11 16 -22 0 -12 -3 -15 -20 -30 -8 -6 -16 -13 -18 -15 -2 -2 -7
-6 -10 -8 -28 -21 -30 -24 -29 -38 0 -13 4 -19 20 -29 16 -11 19 -14 19 -26 0
-14 -8 -22 -20 -22 -10 0 -33 -7 -38 -12 -13 -10 -16 -21 -9 -35 4 -10 14 -16
34 -20 18 -4 21 -7 21 -26 0 -14 0 -16 -6 -20 -7 -6 -27 -7 -35 -2 -6 5 -28 3
-35 -2 -8 -6 -11 -13 -24 -54 -13 -44 -14 -47 -10 -66 5 -28 5 -29 -20 -50
-10 -8 -17 -19 -25 -39 -10 -23 -19 -45 -32 -71 -14 -28 -15 -37 -8 -52 13
-26 47 -32 58 -10 2 5 5 13 5 19 2 19 5 20 32 19 26 -2 34 1 50 16 27 26 31
27 66 29 l26 1 6 -6 6 -6 0 -93 0 -93 -6 -6 c-6 -6 -6 -6 -24 -5 -21 0 -30 -3
-42 -13 -4 -4 -7 -8 -7 -9 0 0 -3 -5 -8 -10 -5 -6 -9 -8 -13 -8 -4 0 -8 2 -13
8 -5 5 -8 10 -8 10 0 3 -13 15 -21 18 -6 3 -13 4 -33 4 -36 0 -47 -6 -52 -28
-2 -9 -2 -11 5 -35 8 -28 11 -35 18 -43 4 -5 4 -7 3 -11 -1 -4 -1 -9 -1 -13 0
-3 -1 -6 -1 -6 -5 0 -10 -24 -8 -33 1 -5 2 -11 3 -15 1 -4 3 -14 4 -23 2 -9 4
-22 5 -29 1 -7 2 -15 3 -18 1 -6 6 -55 9 -83 2 -30 8 -38 36 -54 13 -7 16 -12
16 -26 0 -14 -3 -19 -19 -27 -27 -15 -32 -25 -36 -69 -2 -20 -2 -21 2 -35 4
-12 24 -35 35 -41 8 -4 25 -4 38 1 6 2 15 4 20 4 8 0 9 -1 23 -15 13 -13 15
-15 25 -17 11 -2 13 -2 19 1 12 7 18 27 13 46 -4 14 9 24 17 12 4 -5 3 -9 -3
-32 -4 -16 -4 -20 0 -27 3 -4 8 -13 11 -20 11 -23 24 -34 41 -34 8 -1 42 5 54
8 12 4 17 7 35 23 12 10 13 34 4 49 -5 7 -5 12 1 16 8 4 12 11 12 21 1 14 -1
18 -12 30 -10 10 -11 12 -10 25 0 18 25 26 38 12 8 -7 9 -22 3 -31 -3 -4 -3
-8 -2 -16 1 -15 5 -21 23 -39 l16 -16 12 1 c12 1 17 5 27 23 10 20 13 22 30
12 10 -6 32 -8 38 -4 1 1 9 4 18 8 24 10 33 15 39 21 8 9 30 43 45 71 14 24
49 94 49 97 0 0 4 10 10 22 5 12 10 22 10 24 0 4 3 6 7 3 2 -1 3 -2 2 -2 -1 0
-1 -1 1 -2 2 -2 3 -58 1 -93 0 -8 -1 -25 -2 -38 -1 -31 -4 -62 -8 -100 -4 -30
-4 -31 -11 -38 -5 -5 -7 -7 -11 -6 -8 3 -15 1 -22 -4 -10 -8 -14 -17 -13 -37
0 -15 -1 -18 -4 -21 -9 -10 -28 -4 -28 9 0 2 -1 4 -2 5 -1 0 -2 3 -3 6 -4 17
-25 29 -42 23 -3 -1 -9 -2 -13 -3 -4 -1 -14 -3 -23 -4 -14 -3 -17 -3 -30 0
-20 5 -31 5 -47 1 -8 -3 -16 -4 -18 -3 -11 5 -39 1 -35 -5 1 -1 0 -2 -1 -2 -2
0 -6 -12 -5 -15 3 -4 1 -19 -2 -24 -7 -9 -24 -18 -45 -26 -12 -4 -29 -11 -37
-16 -13 -7 -18 -9 -26 -9 -10 0 -20 5 -22 10 -1 3 -18 19 -21 19 0 0 -3 1 -5
2 -2 1 -9 1 -16 0 -6 -1 -21 -1 -31 -1 -13 0 -28 -1 -50 -5 -17 -3 -34 -6 -37
-6 -5 -1 -64 -11 -97 -16 -28 -5 -44 -34 -27 -52 5 -6 29 -19 35 -19 4 0 10
-8 10 -13 0 -5 -7 -19 -10 -21 -3 -2 -8 -15 -9 -24 -1 -7 0 -12 4 -23 3 -8 6
-15 6 -17 0 -2 6 -17 12 -35 6 -18 14 -40 17 -49 3 -9 6 -19 8 -22 1 -3 3 -10
5 -16 8 -26 18 -39 34 -46 11 -5 16 -5 29 -1 16 4 33 17 48 37 8 11 24 25 29
29 13 6 58 32 72 40 7 5 15 10 28 17 3 2 7 4 9 5 1 1 17 11 35 21 32 20 41 25
54 32 10 7 13 8 24 15 6 4 26 17 46 29 20 12 44 28 54 34 10 7 21 14 26 16 11
6 35 31 35 37 0 5 13 13 26 15 20 3 26 6 40 15 13 9 22 11 22 7 0 -2 1 -5 1
-8 1 -7 -15 -53 -27 -80 -26 -58 -63 -114 -100 -155 -7 -9 -12 -16 -18 -32 -4
-12 -11 -26 -15 -31 -5 -8 -6 -10 -6 -25 l0 -15 12 -12 c7 -6 14 -12 15 -12
21 -3 24 -2 37 4 18 9 26 17 37 41 9 18 11 21 18 24 9 4 27 21 33 30 7 12 16
15 36 12 12 -2 32 2 40 8 24 18 30 31 28 61 -1 19 -1 20 4 25 3 3 7 5 10 5 17
0 33 2 40 5 l9 4 0 11 c0 7 -1 14 -2 17 -2 5 -20 17 -24 17 -4 0 -10 11 -11
20 -1 7 0 12 2 20 6 16 12 19 39 19 24 1 27 2 27 16 1 22 11 41 21 41 7 0 32
11 38 16 3 4 7 10 10 14 3 7 14 39 14 44 0 4 11 20 14 20 2 0 8 -4 14 -9 5 -6
13 -11 17 -13 29 -10 36 -17 35 -36 0 -21 -4 -26 -23 -27 -13 -1 -27 -7 -35
-14 -8 -9 -6 -25 6 -38 3 -3 7 -9 9 -13 3 -8 3 -8 0 -16 -2 -4 -6 -10 -9 -13
-3 -4 -8 -11 -10 -15 l-5 -9 -1 -134 c0 -119 0 -135 3 -142 4 -9 14 -21 18
-21 2 0 3 -1 3 -2 0 -2 2 -2 32 -3 31 -1 56 2 81 10 18 6 73 32 73 35 0 1 1 2
3 2 1 0 3 1 3 2 1 1 5 4 10 7 22 15 38 35 45 56 l5 14 0 212 c0 233 0 231 -11
236 -4 2 -11 3 -17 3 -6 0 -10 1 -11 3 0 1 -1 1 -1 -1 0 -10 -21 -12 -29 -3
-7 6 -7 22 0 28 8 9 29 7 29 -3 0 -2 1 -2 2 -1 0 1 7 3 14 3 8 1 13 2 15 4 5
8 12 5 14 -5 2 -6 4 -4 6 4 0 4 0 3 1 -3 0 -6 1 -16 3 -23 4 -20 7 -55 8 -88
0 -27 0 -29 7 -42 8 -16 30 -35 58 -48 24 -12 37 -15 59 -15 39 0 51 9 61 43
4 13 9 17 22 17 8 1 11 0 15 -4 4 -4 4 -5 5 -65 l0 -62 -5 -5 c-4 -4 -7 -5
-12 -5 -3 0 -20 1 -37 2 -36 2 -41 2 -64 4 -46 3 -56 3 -57 1 -1 -1 -2 -2 -3
-1 -1 0 -5 -1 -9 -4 -15 -8 -23 -35 -17 -57 6 -21 21 -31 58 -39 2 0 15 -5 30
-10 24 -9 34 -14 34 -18 1 -10 21 -17 47 -17 21 0 27 -4 28 -18 2 -18 0 -23
-14 -33 -19 -14 -29 -33 -26 -50 1 -3 1 -14 2 -25 2 -35 16 -51 44 -51 18 1
77 16 95 24 13 7 18 8 35 9 11 1 23 2 26 4 18 5 57 31 63 41 5 7 9 22 11 35 2
12 6 19 15 23 4 2 10 7 14 10 4 4 8 7 8 7 3 0 12 21 15 35 6 26 2 46 -14 64
-13 13 -15 28 -6 41 4 6 5 10 5 19 1 19 0 20 -4 25 -8 8 -16 20 -16 22 0 1 -1
2 -2 2 -1 0 -2 1 -2 3 0 6 -18 18 -40 27 -9 3 -13 11 -13 24 0 10 1 13 10 26
6 8 11 16 12 18 2 1 3 4 3 5 0 2 3 6 7 10 9 9 23 10 28 3 2 -3 3 -4 3 -3 0 1
4 2 10 2 5 0 10 0 10 1 0 1 1 1 3 1 3 -1 10 5 13 13 1 4 2 19 2 36 0 42 -4 51
-29 60 -6 2 -13 4 -15 4 -11 0 -16 21 -7 30 2 2 6 4 8 4 5 0 24 8 30 12 2 2 6
8 9 13 4 9 4 11 4 82 l-1 72 6 6 6 6 51 -1 c55 0 67 1 85 10 28 13 43 38 37
61 -2 7 -11 27 -14 29 -1 1 -3 3 -4 6 -7 10 -38 43 -77 84 -14 14 -26 27 -27
30 -1 3 -4 13 -7 23 -6 19 -12 27 -33 42 -17 12 -27 14 -46 11 -24 -5 -32 -3
-49 10 -5 3 -9 4 -18 4 -13 0 -11 1 -35 -25 -11 -13 -32 -7 -32 10 0 11 5 18
18 28 7 5 22 18 33 29 29 29 33 34 33 36 2 17 1 23 -3 36 -1 2 -2 4 -2 5 -1 1
-1 4 -2 6 -1 3 0 6 3 9 3 5 4 5 13 2 12 -3 26 -3 34 1 4 1 7 2 8 2 0 -1 20 25
31 40 40 60 54 87 54 105 0 8 8 23 18 32 13 11 20 24 21 36 0 5 1 11 2 12 1 1
0 2 -1 2 -1 0 -2 1 -1 2 3 6 -13 18 -19 14 -2 -1 -9 -2 -15 -3 -12 -1 -13 -1
-18 4 -5 4 -5 5 -4 16 2 14 7 19 20 19 9 0 11 0 17 -8 5 -5 8 -10 8 -11 0 -1
7 -1 16 -1 17 1 21 3 23 14 1 3 3 7 5 9 4 2 12 16 11 18 -1 0 6 1 14 1 20 2
28 5 41 17 24 22 22 44 -6 66 -8 7 -16 13 -18 15 -1 1 -9 7 -17 14 -8 6 -14
11 -15 12 -1 1 -5 5 -11 9 -5 4 -10 8 -11 9 -1 1 -5 5 -11 9 -5 4 -10 9 -11 9
-2 3 -34 28 -40 32 -8 6 -25 20 -37 31 -12 11 -30 25 -35 27 -4 1 -19 2 -27 0
-4 0 -15 -11 -62 -57 -47 -46 -58 -55 -71 -55 -5 0 -20 10 -14 10 1 0 2 1 2 2
0 1 3 6 6 12 3 5 9 15 12 21 25 45 26 47 35 52 4 2 11 5 15 6 33 7 67 42 63
67 -2 13 -9 23 -20 28 -9 4 -57 11 -138 19 -6 1 -18 2 -26 3 -8 1 -18 2 -24 3
-5 0 -21 2 -35 4 -27 3 -37 2 -45 -6 -5 -4 -12 -23 -10 -23 1 0 1 -1 -1 -3 -1
-1 -1 -3 0 -5 3 -5 0 -17 -6 -23 -5 -5 -7 -6 -16 -6 -15 0 -23 8 -23 23 0 5 2
11 3 13 5 5 -4 39 -8 34 -1 0 -5 -1 -9 -1 -10 -1 -19 -4 -23 -8 -9 -9 -18 -32
-22 -58 -2 -11 -10 -49 -18 -82 -3 -13 -4 -16 -6 -27 -5 -20 -32 -119 -40
-143 -4 -14 -8 -28 -8 -30 0 -5 0 -5 -2 -1 -1 2 -2 3 -2 2 0 -2 -1 -3 -2 -3
-2 0 -2 1 -1 1 0 1 0 4 -2 7 -1 3 -4 9 -6 14 -3 8 -10 16 -16 17 -1 0 -3 1 -5
2 -10 3 -16 5 -17 3 -3 -5 -31 5 -31 11 0 3 -17 6 -28 5 -5 -1 -11 -4 -15 -8
-15 -12 -31 -6 -28 11 4 25 3 34 -1 49 -7 25 -2 38 16 42 11 3 24 0 29 -7 5
-5 8 -23 6 -33 0 -3 0 -9 1 -13 2 -7 3 -8 10 -11 9 -2 15 -3 16 0 1 2 23 3 25
2 1 -2 8 0 17 3 2 1 4 2 5 2 5 1 13 8 15 13 2 4 3 19 4 53 1 48 1 48 6 55 3 5
6 7 6 7 1 -1 5 2 10 6 9 10 14 24 14 43 -1 10 0 15 3 19 5 7 6 19 3 31 -3 13
-9 15 -66 21 -55 5 -62 5 -69 -7 -2 -4 -4 -8 -4 -10 -2 -9 -2 -15 0 -18 1 -1
2 -8 2 -14 0 -13 -4 -20 -11 -24 -7 -4 -24 -3 -32 0 -41 19 -41 20 -73 18 -17
0 -25 0 -25 2 0 1 -1 1 -4 0 -3 -1 -8 -2 -12 -3 -16 -3 -24 -15 -24 -38 0 -11
-1 -15 -3 -16 -1 -1 -4 -7 -5 -14 -3 -10 -3 -11 -4 -6 -1 8 -14 14 -31 16 -7
1 -17 2 -23 3 -6 1 -26 4 -44 6 -18 2 -35 5 -38 5 -3 1 -10 2 -17 2 -7 1 -13
2 -13 2 -1 0 -6 1 -13 2 -6 1 -13 2 -16 3 -2 1 -6 1 -8 0 -8 -3 -12 -5 -14 -5
0 0 -4 -2 -8 -5 -11 -10 -15 -27 -10 -47 1 -2 1 -3 0 -2 -1 0 -5 0 -8 -2 -5
-2 -7 -2 -16 4 -9 6 -26 14 -50 25 -5 2 -21 8 -37 13 -15 5 -32 12 -39 16 -13
7 -15 10 -19 33 -5 29 -10 33 -47 42 -13 3 -54 14 -90 23 -36 9 -68 17 -71 18
-5 1 -9 2 -17 4 -5 1 -107 27 -111 28 -2 0 -6 0 -10 -1z m129 -171 c12 -12 3
-31 -13 -31 -11 0 -18 7 -18 18 0 11 7 18 18 18 6 0 9 -1 13 -5z m636 -29 c1
-2 3 -5 4 -7 0 -3 1 -6 3 -8 4 -5 -1 -14 -9 -14 -8 0 -13 9 -9 14 2 2 3 6 3 8
1 10 1 11 3 11 1 0 3 -2 5 -4z m-553 -10 c5 -5 6 -7 6 -17 0 -19 -11 -26 -37
-23 -5 0 -14 6 -15 10 0 1 2 8 4 16 5 16 10 20 26 20 9 0 11 -1 16 -6z m369 1
c4 -3 19 -25 19 -29 0 -1 2 -3 14 -17 8 -10 10 -14 10 -24 0 -19 -12 -26 -33
-20 -7 2 -19 3 -29 3 -29 0 -30 0 -35 5 -6 5 -7 20 -3 27 3 5 4 20 2 38 -1 14
-1 14 4 16 4 2 8 2 14 1 5 -2 8 -2 10 0 3 4 22 4 27 0z m-435 -49 c3 -2 6 -4
6 -4 0 -4 -14 -33 -18 -39 -11 -14 -27 -19 -35 -11 -8 8 -5 22 7 40 7 10 12
14 22 16 11 2 11 2 18 -2z m243 -12 c6 -6 7 -12 4 -32 -3 -22 7 -30 35 -30 14
0 15 0 20 -6 9 -8 9 -23 1 -32 -3 -3 -7 -6 -8 -6 -4 0 -31 -9 -44 -15 -13 -6
-27 -7 -37 -3 -4 2 -8 6 -14 18 -10 18 -16 25 -21 23 -2 0 -3 0 -3 1 0 1 -5 0
-10 -1 -18 -5 -30 -22 -35 -51 -1 -4 -3 -11 -6 -15 -9 -12 -10 -26 -7 -46 4
-18 3 -27 -4 -36 -5 -8 -4 -24 3 -40 4 -10 5 -12 3 -21 -4 -23 -16 -36 -32
-36 -14 0 -20 6 -20 19 0 6 1 12 3 15 5 7 13 14 16 14 5 0 7 8 7 21 -1 11 -1
13 -5 16 -6 4 -18 4 -27 1 -7 -2 -22 -14 -19 -14 1 0 -2 -2 -7 -5 -9 -6 -10
-6 -45 -7 -40 0 -46 0 -53 6 l-5 5 4 4 c4 4 6 6 20 24 4 6 9 11 10 12 1 2 4 5
6 8 2 3 5 7 6 8 11 12 64 88 99 142 16 26 19 27 47 21 5 -1 13 -1 17 -1 7 2 9
2 20 0 5 0 24 -10 26 -14 1 -1 2 -1 2 0 0 1 4 2 9 2 8 -1 9 -1 8 6 0 3 -2 9
-4 13 -6 12 3 36 16 38 9 2 18 0 24 -6z m410 -21 c8 -4 11 -8 11 -17 0 -9 -3
-13 -15 -20 -18 -10 -25 -16 -25 -21 0 -2 -1 -3 -1 -1 -2 4 -5 12 -7 17 -1 2
-3 10 -3 19 -2 15 -1 16 4 22 6 7 6 7 18 6 7 -1 15 -3 18 -5z m638 -49 c13
-12 0 -36 -18 -33 -4 1 -6 3 -4 6 0 1 -2 2 -3 3 -6 3 -5 17 0 23 6 7 19 7 25
1z m-803 -4 c5 -1 9 -2 10 -2 0 0 8 0 18 0 20 0 23 -2 29 -16 5 -14 5 -45 1
-53 -7 -9 -11 -10 -47 -8 -18 1 -22 0 -36 -9 -10 -6 -24 -6 -30 0 -7 7 -7 17
-1 33 2 7 6 20 9 30 6 19 9 25 15 25 2 0 4 1 4 2 0 3 6 3 13 1 3 -1 10 -2 15
-3z m-571 -4 c10 -9 3 -26 -10 -26 -8 0 -15 7 -15 15 0 13 16 20 25 11z m1656
-31 c3 -3 3 -3 0 -6 -3 -3 -3 -3 -6 0 -3 2 -3 3 -1 6 4 4 4 4 7 0z m-331 -28
c2 -2 4 -4 5 -6 2 -1 2 -4 0 -10 -2 -4 -3 -8 -3 -9 0 -4 -7 -22 -10 -26 -6 -6
-10 -5 -28 5 -8 5 -22 13 -31 17 -28 13 -31 23 -10 29 13 4 74 4 77 0z m-356
-15 c3 -5 4 -25 2 -37 -3 -15 -7 -23 -14 -24 -25 -5 -36 2 -36 23 0 14 3 18
21 27 8 4 16 9 17 10 3 4 7 4 10 1z m126 -28 c3 -4 4 -8 4 -22 0 -11 1 -22 4
-33 4 -13 4 -18 3 -30 -2 -19 2 -25 16 -32 13 -6 20 -7 28 -2 8 4 14 4 17 1 3
-5 4 -17 1 -24 -2 -3 -3 -8 -3 -10 0 -2 -2 -5 -5 -8 -17 -16 -63 11 -74 43 -3
9 -14 19 -20 19 -5 0 -13 8 -18 17 -11 21 -12 24 -14 25 -2 2 -7 16 -7 20 0 3
5 8 9 8 12 0 34 10 37 16 3 7 13 16 16 16 1 0 4 -2 6 -4z m-642 -26 c18 -1 32
-3 34 -7 1 -1 2 -1 2 1 0 4 10 2 14 -2 5 -6 5 -12 0 -18 -4 -4 -14 -6 -14 -1
0 1 0 1 -2 0 0 -1 -5 -3 -9 -4 -17 -3 -29 -16 -29 -31 0 -7 -6 -17 -9 -15 0 1
-1 1 -1 0 0 -2 -4 1 -8 5 -5 5 -16 14 -24 21 -29 24 -27 22 -24 28 2 3 6 6 13
8 20 7 41 16 41 18 0 1 1 1 3 0 1 -2 7 -3 13 -3z m1087 -20 c4 -5 5 -7 5 -15
0 -12 -4 -24 -8 -28 -9 -8 -32 -8 -40 1 -9 8 -9 32 0 41 4 4 14 7 27 6 8 0 11
-1 16 -5z m-332 -25 c5 -5 7 -20 3 -27 -2 -4 -25 -17 -29 -17 -1 0 -3 -1 -3
-2 -3 -3 -10 6 -10 14 0 11 5 29 10 34 7 5 23 4 29 -2z m-502 -45 c6 -23 2
-48 -11 -62 -5 -6 -8 -7 -8 -5 0 4 -1 5 -17 20 l-10 11 0 15 0 15 10 11 c16
15 17 16 17 20 0 7 16 -13 19 -25z m142 -1 c12 -12 3 -31 -13 -31 -11 0 -18 7
-18 18 0 11 7 18 18 18 6 0 9 -1 13 -5z m-361 0 c1 -1 2 0 2 1 0 1 5 2 13 2
11 0 14 -1 18 -5 6 -4 6 -6 6 -20 0 -14 0 -16 -6 -20 -4 -4 -7 -5 -18 -5 -8 0
-13 1 -13 2 0 1 -1 1 -4 0 -6 -3 -14 5 -18 21 l-4 14 4 6 c4 5 6 6 11 6 4 0 8
-1 9 -2z m-584 -3 c1 0 5 -3 8 -6 5 -5 6 -7 6 -18 0 -11 -1 -13 -6 -18 -6 -6
-7 -6 -18 -6 -11 0 -12 0 -18 6 -5 5 -6 7 -6 17 0 14 3 20 12 24 5 2 8 2 22 1z
m1027 -10 c11 -10 3 -28 -11 -28 -9 0 -16 6 -16 16 0 14 17 22 27 12z m-587
-8 c5 -5 6 -7 6 -15 0 -13 -2 -19 -5 -19 -2 0 -3 -1 -2 -2 1 -2 2 -6 2 -9 0
-3 1 -8 1 -11 0 -2 3 -8 7 -11 l7 -7 22 1 c11 0 25 2 31 4 9 3 23 10 25 13 1
1 4 -2 7 -7 l5 -8 0 -36 c-1 -32 -2 -37 -5 -46 -3 -5 -6 -10 -7 -12 -2 -1 -7
-7 -12 -12 -17 -19 -23 -17 -62 21 -32 32 -39 36 -53 33 -12 -3 -16 -5 -26
-20 -10 -13 -10 -15 -10 -28 0 -12 1 -16 7 -25 14 -26 3 -47 -22 -42 -10 2
-14 8 -14 20 0 8 6 32 12 47 4 11 0 34 -10 53 -4 6 -8 13 -9 16 -4 7 -4 24 -1
32 4 9 12 12 34 13 22 1 29 3 31 13 1 3 2 6 4 8 1 1 1 2 -1 2 -1 0 -2 5 -2 14
0 13 0 15 6 20 5 5 7 6 17 6 10 0 12 -1 17 -6z m-161 -83 c7 -4 9 -9 9 -21 1
-12 5 -33 12 -52 4 -13 4 -14 1 -25 -3 -9 -4 -11 -10 -14 -19 -9 -41 -2 -44
14 -1 3 -2 15 -1 26 0 12 -1 25 -3 31 -4 15 -4 30 0 36 7 9 26 12 36 5z m887
-1 c5 -6 5 -12 0 -18 -11 -12 -29 5 -18 18 4 5 13 5 18 0z m151 -15 c3 -3 3
-3 -1 -4 -6 -2 -14 1 -13 4 2 4 9 4 14 0z m156 0 c3 -3 3 -3 0 -6 -3 -3 -3 -3
-6 0 -3 2 -3 3 -1 6 4 4 4 4 7 0z m-564 -6 c5 -8 1 -16 -8 -16 -9 0 -13 8 -8
16 2 3 5 5 8 5 3 0 6 -2 8 -5z m-255 -18 l-5 -5 -4 4 -5 5 4 4 5 5 4 -4 5 -5
-4 -4z m439 -11 c8 -3 12 -3 21 -4 2 0 7 -3 10 -6 14 -15 6 -46 -12 -46 -3 0
-6 -1 -7 -2 -1 -1 -6 -3 -11 -5 -6 -2 -10 -5 -11 -7 0 -2 -1 -2 -1 1 0 3 -1 5
-2 6 -8 5 -11 42 -5 56 2 4 4 7 5 7 1 0 2 2 2 4 0 2 1 2 2 1 0 -1 5 -4 9 -5z
m-361 -24 c5 -6 5 -12 0 -18 -7 -8 -22 -2 -22 9 0 11 15 17 22 9z m-131 -59
c4 -4 5 -6 5 -21 0 -20 5 -36 15 -43 3 -2 14 -8 23 -13 9 -4 27 -13 40 -19 38
-18 51 -16 75 18 18 24 23 28 31 24 l6 -3 0 -75 c0 -42 0 -76 1 -76 0 -1 -2
-4 -6 -8 -6 -6 -6 -6 -23 -5 -27 1 -41 -6 -43 -22 -1 -4 -2 -9 -2 -12 -1 -6
13 -29 27 -45 10 -9 19 -33 17 -40 -2 -5 -14 -9 -42 -14 -43 -8 -48 -8 -54 -2
-9 9 -6 25 10 42 12 14 17 35 11 50 -9 22 -15 29 -34 37 -11 5 -13 5 -79 6
-54 1 -70 2 -79 5 -20 5 -35 2 -49 -12 -14 -13 -17 -14 -36 -13 -7 0 -14 10
-16 22 -1 6 -2 13 -3 15 -3 8 6 18 18 21 5 1 14 0 29 -2 15 -3 32 -4 51 -4 27
0 29 0 37 5 5 3 9 7 11 10 3 9 6 24 5 26 -3 4 -1 18 4 23 7 7 21 6 30 -2 6 -6
7 -6 21 -6 8 0 16 1 17 2 6 4 1 23 -11 39 -9 11 -15 18 -43 48 -11 12 -13 18
-8 30 7 17 33 25 44 14z m661 -19 c1 0 5 -3 8 -6 5 -5 6 -7 6 -18 0 -11 -1
-13 -6 -18 -6 -6 -7 -6 -21 -6 -24 0 -32 37 -9 47 5 2 8 2 22 1z m-171 -14 c3
-3 8 -6 10 -8 8 -7 31 -19 51 -26 6 -3 12 -6 13 -9 l4 -6 -19 -17 c-16 -15
-33 -30 -53 -46 -2 -2 -6 -5 -9 -8 l-5 -5 -6 7 -5 7 0 54 c1 54 1 55 6 58 2 2
4 5 4 8 l1 4 0 -4 c1 -3 4 -7 8 -9z m310 -44 c11 -10 3 -28 -11 -28 -9 0 -16
6 -16 16 0 14 17 22 27 12z m-1017 -20 c5 -5 5 -11 0 -16 -10 -10 -27 5 -16
16 4 4 12 4 16 0z m476 -14 c5 -5 5 -11 0 -16 -10 -10 -27 5 -16 16 4 4 12 4
16 0z m462 -87 l1 -28 -6 -6 c-4 -4 -7 -6 -8 -6 0 1 -23 1 -51 1 -47 0 -60 2
-60 6 0 1 -2 3 -5 4 l-6 2 5 0 c9 0 40 18 49 27 4 4 11 13 14 19 7 15 13 18
30 18 8 0 17 1 20 2 5 1 7 0 11 -5 5 -5 5 -8 6 -34z m-1027 32 c5 -8 1 -16 -8
-16 -9 0 -13 8 -8 16 2 3 5 5 8 5 3 0 6 -2 8 -5z m-238 -28 c6 -4 14 -8 17
-11 3 -3 9 -8 14 -12 11 -11 11 -19 0 -30 -26 -23 -30 -30 -30 -57 0 -27 -5
-35 -20 -37 -8 0 -11 1 -14 4 -5 5 -5 9 1 30 3 9 3 16 2 23 -2 12 -17 28 -72
74 -3 3 -8 6 -10 8 -5 1 -5 2 -1 5 6 7 14 8 59 8 43 0 43 0 54 -5z m1037 -28
c-4 -6 -5 -6 -10 0 -4 4 -4 4 1 9 l4 4 4 -4 c5 -4 5 -5 1 -9z m462 -8 c2 -2 2
-4 -1 -8 -2 -3 -4 -5 -5 -5 -1 0 -3 -1 -4 -1 -1 0 -3 -1 -4 -2 -2 -2 -4 -3 -4
-3 -3 0 -14 -8 -18 -12 -2 -2 -4 -4 -5 -4 -1 0 -3 -1 -5 -3 -6 -5 -22 -4 -27
2 -7 6 -7 22 -1 28 5 4 7 5 27 6 12 0 24 1 27 2 8 3 17 3 20 0z m-1378 -13 c5
-5 5 -15 0 -20 -9 -9 -24 -2 -24 10 0 8 6 14 14 14 3 0 8 -2 10 -4z m853 -46
c10 -9 3 -31 -9 -30 -9 1 -12 6 -12 16 0 8 1 10 5 14 7 5 11 5 16 0z m103 -15
l-5 -5 -4 4 -5 5 4 4 5 5 4 -4 5 -5 -4 -4z m364 -36 c11 -6 13 -20 7 -46 -4
-19 -15 -26 -33 -24 -23 2 -33 11 -33 31 1 31 33 52 59 39z m-649 -10 c44 -16
44 -26 0 -42 -28 -10 -41 -10 -51 0 -4 4 -12 27 -12 33 0 5 12 14 17 14 2 0 5
1 7 2 5 3 19 1 39 -7z m473 -82 c-1 -33 -2 -61 -2 -62 -1 -1 -1 -5 1 -8 2 -3
2 -5 2 -5 -3 0 15 -16 18 -16 1 0 4 -1 6 -1 4 -1 11 -1 28 -1 17 1 23 -8 30
-43 8 -35 2 -44 -28 -40 -17 2 -28 -2 -30 -13 -1 -4 -2 -8 -1 -10 1 -9 -1 -27
-3 -32 -8 -11 -27 -12 -37 -2 -6 6 -6 6 -6 30 1 27 2 24 -13 51 -5 9 -5 12 -5
23 1 13 2 14 9 22 11 12 13 16 13 30 l0 12 -15 15 c-34 33 -66 55 -120 81 -45
22 -63 28 -77 28 -6 -1 -11 0 -10 1 0 0 0 3 0 6 0 3 1 5 2 4 1 0 5 -1 10 -1 5
0 56 1 113 2 l104 1 6 -6 6 -6 -1 -60z m-593 18 c8 -8 4 -31 -5 -31 -13 -1
-16 0 -21 5 -12 12 -3 31 13 31 6 0 9 -1 13 -5z m181 -30 c12 -6 42 -13 48
-11 2 1 11 2 19 3 27 1 37 -4 37 -19 0 -19 -15 -22 -44 -12 -34 12 -37 13 -68
9 -16 -2 -22 3 -22 16 0 15 15 22 30 14z m-692 -7 c5 -6 5 -12 0 -18 -7 -8
-22 -2 -22 9 0 11 15 17 22 9z m878 0 c8 0 14 -8 14 -21 l0 -12 -13 -12 c-7
-7 -13 -14 -14 -17 0 -5 0 -5 -1 0 0 2 -1 4 -2 4 -1 0 -4 5 -7 11 -5 12 -7 31
-3 39 3 5 11 9 17 9 2 0 6 -1 9 -1z m394 -19 c3 -3 4 -7 4 -14 0 -13 -6 -19
-19 -19 -13 0 -19 6 -19 19 0 7 1 11 4 14 7 8 23 8 30 0z m-734 -17 c5 -5 5
-8 1 -14 -4 -5 -13 -6 -14 -1 -1 2 -3 3 -4 3 -8 0 2 15 10 16 1 0 5 -2 7 -4z
m469 -5 c4 -4 5 -7 5 -15 0 -14 -6 -20 -20 -20 -14 0 -20 6 -20 20 0 14 6 20
20 20 8 0 11 -1 15 -5z m-530 -10 c6 -6 6 -8 2 -15 -5 -7 -7 -8 -13 -8 -12 0
-18 16 -10 24 6 6 15 5 21 -1z m-566 -8 c3 -3 3 -3 0 -6 -3 -3 -3 -3 -6 0 -3
2 -3 3 -1 6 4 4 4 4 7 0z m44 -123 c1 -1 -2 -2 -5 -3 -3 -1 -7 -2 -7 -3 -1 -1
-3 0 -6 2 l-5 5 4 4 4 5 7 -4 c4 -3 7 -5 8 -6z m140 -140 c4 -6 4 -24 -1 -30
-7 -9 -27 -9 -34 0 -5 6 -5 24 0 30 7 9 27 9 35 0z m601 1 c4 -2 9 -6 10 -7 2
-2 8 -7 13 -12 14 -13 17 -17 17 -30 0 -20 -8 -26 -35 -24 -17 2 -34 8 -40 14
-7 7 -5 51 2 60 5 7 21 6 33 -1z m-695 -40 c12 -7 14 -33 3 -43 -8 -9 -32 -9
-40 0 -9 8 -9 32 0 41 7 7 27 8 37 2z m-250 -87 c4 -6 4 -24 -1 -30 -7 -9 -27
-9 -34 0 -5 6 -5 24 0 30 7 9 27 9 35 0z m968 -17 c3 -3 3 -3 0 -6 -3 -3 -3
-3 -6 0 -3 2 -3 3 -1 6 4 4 4 4 7 0z m331 -13 c7 -7 4 -15 -8 -20 -9 -4 -16
12 -8 20 4 4 12 4 16 0z m-713 -3 c5 -8 1 -16 -8 -16 -9 0 -13 8 -8 16 2 3 5
5 8 5 3 0 6 -2 8 -5z m464 -23 c11 -10 3 -28 -11 -28 -9 0 -16 6 -16 16 0 14
17 22 27 12z m531 -16 c5 -5 5 -15 0 -20 -9 -9 -24 -2 -24 10 0 8 6 14 14 14
3 0 8 -2 10 -4z"/>
<path d="M1766 2318 c0 -5 -1 -12 -2 -16 -3 -7 1 -30 4 -26 1 2 7 2 17 2 l16
-1 3 11 c2 8 2 12 0 19 l-3 9 -16 0 c-17 0 -17 0 -18 6 0 3 -1 2 -1 -4z"/>
</g>
</svg>
