<?xml version="1.0" standalone="no"?>
<!DOCTYPE svg PUBLIC "-//W3C//DTD SVG 20010904//EN"
 "http://www.w3.org/TR/2001/REC-SVG-20010904/DTD/svg10.dtd">
<svg version="1.0" xmlns="http://www.w3.org/2000/svg"
 width="1100.000000pt" height="2850.000000pt" viewBox="0 0 1100.000000 2850.000000"
 preserveAspectRatio="xMidYMid meet">
<metadata>
Created by potrace 1.15, written by Peter Selinger 2001-2017
</metadata>
<g transform="translate(0.000000,2850.000000) scale(0.500000,-0.500000)"
fill="#000000" stroke="none">
<path d="M1248 3831 c-28 -10 -32 -18 -32 -69 0 -25 1 -41 3 -50 4 -17 4 -32
0 -50 -2 -12 -3 -25 -2 -65 1 -53 2 -62 11 -71 8 -8 14 -19 14 -26 0 -7 -6
-18 -14 -27 -5 -5 -11 -20 -10 -24 1 -3 -1 -6 -5 -9 l-7 -6 -62 0 c-62 -1 -63
-1 -71 -6 -5 -2 -11 -7 -14 -10 -9 -7 -11 -9 -37 -21 -28 -14 -39 -16 -46 -8
-3 3 -4 5 -3 5 1 0 -1 3 -4 7 -3 5 -5 9 -5 10 0 4 -10 15 -16 18 -12 6 -74 3
-74 -3 0 -3 -22 -8 -27 -7 -2 0 -7 3 -10 7 -3 3 -7 6 -9 6 -1 1 1 3 5 6 6 4
10 5 18 5 17 0 29 -2 29 -3 0 -1 1 -2 3 -2 2 0 3 -1 3 -2 0 -1 11 -2 28 -2 18
0 28 1 28 2 0 4 11 6 39 7 39 1 53 3 62 6 9 2 20 10 21 15 5 21 4 26 -4 38
-14 21 -20 35 -21 49 -1 14 -5 30 -9 37 -2 3 -18 18 -43 39 -24 21 -31 26 -40
35 -6 6 -13 12 -16 14 -4 3 -13 11 -21 18 -8 7 -16 14 -19 16 -2 1 -5 4 -7 6
-14 14 -22 18 -31 18 -17 0 -24 -7 -24 -23 0 -12 11 -33 24 -47 18 -18 21 -28
13 -36 -6 -6 -15 -5 -36 6 -27 12 -35 14 -47 13 -15 -2 -22 -6 -29 -14 -14
-17 -38 -51 -38 -53 0 -2 -3 0 -6 4 l-6 7 1 46 c0 46 0 46 5 54 3 4 8 8 12 10
24 11 48 48 44 67 -3 13 -7 20 -16 26 -11 7 -19 9 -72 13 l-44 4 -9 -5 c-9 -4
-11 -7 -14 -16 -3 -6 -5 -15 -5 -22 0 -13 -6 -20 -18 -20 -11 0 -18 7 -18 18
0 4 1 8 2 9 1 1 2 2 1 3 -1 1 -2 5 -2 9 -2 10 -5 18 -11 24 -3 3 -6 5 -6 4 0
0 -2 0 -5 1 -2 1 -10 2 -17 3 -13 1 -75 6 -100 8 -7 1 -18 2 -23 2 -22 3 -39
-6 -47 -23 -4 -9 -4 -13 -4 -118 0 -88 1 -111 3 -119 1 -5 4 -16 7 -24 l4 -14
-5 -3 c-7 -7 -13 -5 -30 10 -12 10 -22 13 -36 10 -21 -4 -27 -3 -49 9 l-20 10
-91 1 c-99 0 -102 0 -112 -12 -10 -12 -10 -22 -2 -51 4 -14 10 -30 13 -36 l5
-9 16 0 16 1 6 9 c8 13 14 16 24 16 11 0 16 -3 26 -19 5 -7 11 -13 14 -15 3
-2 6 -3 7 -4 3 -3 17 -3 102 -3 l91 0 6 -6 6 -6 0 -68 0 -68 -6 -6 -6 -6 -111
0 c-61 0 -113 -1 -115 -1 -38 -11 -56 -42 -45 -77 4 -14 14 -33 18 -33 1 0 2
-2 3 -4 3 -9 15 -18 26 -18 7 -1 7 -1 2 -1 -6 -1 -6 -2 -5 -7 0 -5 2 -6 13
-10 6 -3 14 -5 17 -5 3 0 6 -1 7 -1 4 0 9 -11 10 -20 2 -19 7 -33 16 -43 14
-14 10 -33 -6 -33 -6 0 -17 8 -17 12 0 0 -3 5 -8 9 -7 8 -7 8 -20 7 -12 0 -14
-1 -16 -6 -10 -15 -10 -18 -10 -118 0 -105 -1 -99 13 -127 9 -18 9 -26 0 -53
-11 -35 -11 -57 0 -72 15 -21 15 -21 13 -33 -1 -6 -5 -16 -8 -21 -5 -9 -15
-31 -17 -40 -3 -10 12 -36 20 -36 2 0 3 -1 3 -2 0 -1 1 -2 2 -2 0 1 5 0 11 -1
6 -1 16 -1 26 1 14 2 33 3 41 2 2 0 6 -2 10 -5 5 -5 9 -15 14 -42 1 -6 4 -11
6 -12 2 -2 4 -4 3 -5 -1 -1 21 -1 29 1 2 1 4 2 3 3 -1 2 5 18 9 23 9 11 31 11
43 0 11 -9 10 -35 -2 -46 -11 -9 -36 -5 -44 8 -4 6 -5 6 -19 7 -11 0 -14 0
-14 -3 0 -2 -1 -3 -2 -3 -1 0 -1 -18 1 -86 2 -49 5 -59 20 -73 l8 -8 -7 -5
c-7 -6 -13 -7 -40 -9 -8 -1 -21 -4 -28 -6 -7 -3 -20 -7 -28 -10 l-14 -5 -24 4
c-22 4 -25 4 -51 1 -32 -3 -39 -5 -47 -12 -6 -5 -6 -6 -6 -18 0 -11 1 -14 4
-18 8 -8 12 -18 15 -38 2 -15 5 -23 14 -42 16 -36 33 -73 37 -84 9 -22 21 -42
28 -46 8 -4 21 -7 34 -7 16 0 20 -12 11 -36 -4 -11 -4 -22 1 -41 2 -9 6 -21 7
-28 5 -20 13 -27 30 -28 16 0 52 22 66 41 4 5 11 12 17 16 18 12 27 22 35 36
12 24 18 26 48 18 9 -2 19 -4 23 -4 6 0 24 7 51 19 16 7 41 18 62 27 11 5 32
14 46 20 14 7 31 15 38 18 7 3 14 6 17 8 2 2 11 6 19 9 8 3 22 9 31 14 9 4 25
11 34 15 21 10 48 23 79 38 14 7 25 12 26 12 0 0 3 2 6 5 7 7 7 29 0 43 -6 12
-7 24 -2 33 12 24 13 26 13 37 0 9 -1 12 -6 17 -6 7 -18 16 -34 24 -14 8 -18
13 -18 27 0 8 1 13 4 16 3 4 3 7 2 17 -2 14 -7 22 -18 29 -15 8 -16 22 -4 45
4 8 8 16 8 17 0 1 2 6 4 10 2 5 6 16 8 25 7 24 11 32 24 45 11 11 18 22 26 42
5 14 23 16 51 7 10 -3 18 -7 18 -8 1 -2 -1 -5 -5 -8 -3 -3 -9 -10 -13 -16 -5
-7 -10 -12 -16 -15 -28 -14 -40 -27 -49 -55 -2 -7 -5 -15 -6 -16 -2 -2 -3 -11
-3 -24 0 -19 0 -21 5 -26 6 -8 12 -11 26 -11 14 -1 15 0 29 20 17 21 21 25 39
32 35 13 39 18 47 44 4 12 8 19 13 25 6 7 6 8 6 22 -1 18 -3 20 -23 24 -9 2
-18 4 -21 5 -3 2 -7 3 -9 3 -5 0 -6 5 -2 9 1 1 10 6 18 10 18 9 21 11 25 18 8
13 10 45 4 71 -1 6 -3 11 -3 13 0 2 -1 5 -2 8 -1 3 -2 6 -2 8 0 2 1 5 1 7 0 2
6 11 14 20 17 19 20 27 19 51 0 15 -1 19 -9 37 -10 22 -10 22 2 46 5 11 9 17
13 19 3 1 5 3 5 4 0 1 17 2 38 2 l38 0 7 -6 c4 -3 6 -6 6 -7 -1 -1 1 -23 4
-35 1 -5 2 -13 4 -28 5 -37 30 -162 37 -185 1 -3 5 -18 8 -33 4 -15 8 -30 10
-33 4 -7 5 -11 7 -21 2 -11 8 -34 13 -50 13 -38 31 -87 39 -106 2 -4 4 -9 5
-11 1 -2 3 -8 6 -13 9 -21 10 -25 10 -34 0 -17 -2 -19 -42 -64 -7 -8 -16 -19
-19 -24 -7 -11 -11 -15 -22 -22 -4 -3 -11 -8 -15 -12 -8 -7 -38 -35 -50 -46
-14 -12 -25 -21 -34 -28 -5 -4 -9 -8 -11 -9 -1 -1 -6 -5 -10 -8 -4 -3 -8 -6
-9 -7 -1 -1 -5 -4 -10 -8 -5 -4 -13 -10 -17 -15 -11 -9 -30 -22 -40 -27 -9 -4
-15 -9 -16 -16 -4 -17 -5 -24 -4 -33 2 -20 -10 -24 -31 -12 -9 5 -15 8 -23 8
-12 1 -13 1 -36 -12 -27 -15 -87 -44 -115 -57 -10 -4 -21 -9 -23 -10 -2 -2 -6
-4 -8 -5 -12 -6 -16 -13 -18 -28 -2 -18 13 -43 31 -51 14 -7 21 -7 51 1 27 6
36 9 43 15 4 3 11 18 13 24 3 17 8 24 15 24 6 0 16 -6 21 -14 6 -7 19 -14 29
-14 17 -1 46 11 63 28 19 18 23 20 53 19 l25 -1 27 11 c46 18 55 22 60 26 8 8
10 9 26 14 16 5 27 10 66 30 31 17 46 25 63 36 10 6 24 14 31 19 17 10 26 18
35 32 6 9 17 20 17 17 0 -1 1 -1 2 0 8 5 26 -2 36 -14 24 -30 74 -80 110 -112
9 -7 12 -9 15 -10 2 0 8 -2 12 -3 4 -1 11 -2 16 -2 9 -1 15 -8 19 -19 7 -23
13 -29 82 -75 37 -24 43 -27 62 -22 13 3 20 10 38 37 5 7 11 12 23 19 9 5 17
10 19 11 1 2 3 4 5 4 1 1 6 8 11 15 22 33 42 56 70 80 12 11 16 17 25 38 8 21
12 23 30 25 26 1 37 11 40 33 1 6 2 13 4 15 3 5 5 24 3 32 -1 3 -4 8 -6 10 -4
4 -28 14 -47 19 -3 1 -12 4 -20 7 -8 3 -20 7 -27 10 -70 26 -164 68 -214 96
-22 13 -29 16 -50 20 -14 3 -19 5 -24 9 -3 4 -6 7 -6 8 0 1 -4 7 -10 14 -11
14 -14 22 -9 27 3 3 4 3 14 0 6 -2 16 -6 21 -9 6 -3 10 -5 10 -5 0 1 2 0 4 -1
4 -2 18 0 29 6 9 4 13 8 23 23 3 4 7 9 9 11 1 3 3 5 3 6 0 1 2 3 4 5 4 6 47
70 55 84 2 3 5 10 8 14 5 8 6 19 3 28 -3 9 -20 14 -35 11 -23 -4 -34 9 -27 34
2 7 4 8 16 14 15 6 33 11 45 10 15 -1 36 -1 41 1 8 2 14 9 24 31 21 43 53 125
68 170 6 18 12 26 24 30 17 6 22 9 24 16 4 12 4 26 0 35 -5 8 -5 21 0 40 2 6
2 14 1 20 -1 9 -3 11 -15 23 -17 16 -21 20 -47 43 l-22 19 -12 0 c-15 1 -19
-1 -28 -14 -11 -15 -14 -17 -25 -17 -15 0 -23 8 -23 23 0 10 1 11 8 18 15 14
16 17 17 31 0 16 3 12 -33 43 -13 11 -25 22 -26 23 -10 11 -41 12 -44 0 -3
-11 -1 -24 5 -33 9 -14 11 -24 7 -37 -3 -14 -2 -29 4 -45 8 -21 6 -31 -9 -36
-9 -4 -15 -3 -17 2 -1 2 -2 4 -3 4 -1 0 -1 5 -2 10 0 6 -1 11 -1 12 -1 1 -1 5
-2 9 -2 13 -11 26 -24 36 -8 7 -37 9 -37 3 0 -4 -10 8 -11 13 -1 2 -1 17 -1
33 -1 34 -3 40 -19 52 -14 11 -16 16 -12 24 2 3 4 6 5 6 1 0 6 4 11 10 12 11
16 21 15 39 -1 11 -1 12 5 18 l6 6 39 0 c27 -1 40 0 42 2 2 2 2 1 1 -1 -1 -1
1 -1 4 1 3 2 5 3 4 2 -1 -2 0 -3 4 -3 4 0 5 1 4 3 -1 1 1 0 4 -2 3 -2 5 -2 4
-1 -1 3 -1 3 1 0 3 -2 14 -2 50 -1 56 1 62 3 79 17 14 13 17 14 28 14 10 0 16
-3 28 -14 15 -15 33 -20 58 -16 28 5 53 21 64 42 11 21 4 39 -21 62 -9 8 -20
19 -25 23 -7 7 -23 21 -42 37 -7 6 -16 9 -26 7 -13 -3 -16 -5 -22 -17 -6 -13
-7 -13 -27 -2 -13 7 -18 12 -18 20 0 2 -2 10 -4 17 -5 14 -8 18 -30 37 -7 7
-7 7 -9 24 -1 17 -6 34 -13 41 -5 7 -11 9 -24 9 -13 0 -22 -5 -30 -16 -3 -4
-15 -21 -27 -38 -12 -16 -25 -35 -30 -41 -4 -5 -12 -17 -18 -25 -6 -8 -16 -22
-22 -31 -7 -10 -15 -18 -19 -20 l-7 -4 -6 4 -6 4 1 115 0 114 -5 11 c-3 6 -8
13 -11 15 -3 1 -5 3 -6 4 -1 1 -6 4 -12 7 -10 6 -11 8 -14 16 -8 23 2 40 25
40 17 0 24 -6 29 -25 4 -15 10 -20 22 -20 17 0 19 1 26 14 12 23 13 37 3 52
-8 12 -23 18 -55 19 -8 0 -14 1 -14 1 0 3 -33 1 -41 -3 -4 -2 -8 -3 -9 -3 -1
-1 -6 -3 -12 -5 -5 -3 -13 -5 -16 -5 -6 0 -17 5 -20 8 -1 1 -5 4 -10 6 -7 4
-10 4 -24 3 -26 -2 -30 -2 -44 4 -23 9 -29 11 -39 12 -5 1 -27 2 -47 4 -39 3
-41 3 -46 2z m130 -74 c15 -7 14 -41 0 -48 -4 -2 -14 -3 -31 -4 -16 0 -27 -2
-33 -4 -14 -5 -31 -4 -37 2 -5 4 -6 6 -7 16 -1 23 4 28 30 30 19 1 32 3 43 8
15 5 24 5 35 0z m99 -55 c5 -8 5 -21 -2 -28 -6 -6 -22 -6 -28 1 -7 6 -7 21 -1
28 8 8 24 7 31 -1z m-88 -63 c3 -5 3 -5 0 -10 -2 -3 -5 -5 -7 -5 -2 0 -5 2 -7
5 -3 5 -3 5 0 10 2 3 5 5 7 5 2 0 5 -2 7 -5z m-749 -17 c12 -9 13 -46 2 -59
-4 -5 -11 -8 -21 -8 -28 -2 -39 29 -21 56 9 13 30 19 40 11z m-151 -5 c18 -6
35 -16 40 -23 5 -7 5 -21 -1 -27 -6 -6 -18 -7 -25 -3 -6 2 -25 0 -32 -4 -13
-7 -25 -39 -26 -66 0 -9 -1 -19 -1 -22 -1 -19 -34 -26 -49 -10 -5 6 -5 7 -4
21 1 17 2 19 17 27 7 4 22 22 22 28 0 1 1 4 3 7 3 4 3 11 3 34 0 33 2 38 13
41 11 3 25 2 40 -3z m789 -21 c4 -2 10 -14 10 -19 0 -4 -10 -8 -17 -7 -10 1
-15 5 -15 14 0 12 11 18 22 12z m195 -24 c4 -3 5 -7 5 -13 0 -15 -13 -21 -29
-14 -6 3 -7 4 -6 13 1 12 7 18 18 18 5 0 9 -1 12 -4z m-117 -13 c4 -2 7 -4 8
-5 1 -1 10 -6 21 -12 11 -6 21 -12 23 -13 7 -7 -1 -21 -12 -21 -3 0 -11 -1
-18 -3 -28 -8 -40 -33 -31 -64 8 -26 1 -41 -20 -41 -20 0 -28 13 -22 35 4 13
3 34 -2 46 -4 9 -4 23 0 41 2 8 3 18 3 23 -1 8 0 10 5 14 10 8 32 8 45 0z
m-689 -66 c3 -2 7 -7 9 -11 5 -9 10 -31 8 -33 0 -1 0 -1 2 0 1 1 2 0 2 0 0 -3
6 -3 49 -5 34 -1 37 -1 41 -5 3 -3 7 -5 8 -5 2 0 1 -1 -1 -2 -3 -1 -8 -7 -13
-14 -15 -21 -30 -42 -41 -57 -6 -8 -12 -17 -14 -20 -2 -3 -3 -5 -3 -4 0 2 -2
2 -6 1 -5 -1 -6 -1 -7 2 0 2 -1 -1 -1 -6 0 -11 -5 -19 -14 -23 -21 -9 -43 5
-47 31 -1 7 0 8 5 13 l6 5 7 -4 c4 -3 7 -6 7 -9 0 -2 1 -3 1 -1 1 1 5 2 12 2
15 0 18 5 11 17 -6 11 -9 22 -9 42 0 11 -1 21 -2 23 -2 3 -2 4 -3 9 0 1 -1 2
-2 3 -14 1 -36 8 -40 13 -5 7 -6 26 -1 33 7 9 26 12 36 5z m1064 -13 c3 -6 3
-11 3 -37 l-1 -29 -10 -9 c-5 -5 -12 -11 -14 -13 -2 -1 -6 -8 -9 -14 -2 -6 -6
-13 -8 -14 -1 -2 -2 -4 -1 -4 1 0 0 -2 -3 -5 -7 -7 -23 -7 -30 0 -8 9 -5 27 7
38 6 5 11 15 15 29 6 20 10 28 21 44 15 21 24 25 30 14z m-1190 -34 c4 -6 4
-24 -1 -30 -7 -9 -27 -9 -34 0 -5 6 -5 24 0 30 7 9 27 9 35 0z m394 -1 c-12
-1 -30 -1 -41 0 -12 0 -3 0 20 0 23 0 32 0 21 0z m934 -6 c16 -13 19 -24 10
-33 -4 -4 -6 -4 -18 -4 -14 1 -23 4 -23 8 0 1 3 5 6 8 3 3 6 6 6 7 0 1 2 6 4
10 5 9 8 10 15 4z m-612 -29 c5 -6 5 -6 1 -11 -4 -6 -5 -6 -12 -2 -8 5 -9 8
-3 14 6 6 8 6 14 -1z m571 -9 c0 -2 1 -3 2 -3 4 0 0 -4 -9 -9 -12 -6 -13 -6
-18 0 -3 5 -3 5 0 10 4 4 5 5 15 5 6 -1 10 -2 10 -3z m-695 -34 c3 -3 5 -7 5
-12 0 -7 8 -30 13 -35 6 -7 19 -10 37 -10 17 1 17 1 23 -5 4 -5 6 -8 6 -14 0
-5 2 -12 4 -16 l4 -8 14 -1 c8 0 15 -1 15 -1 1 -1 2 1 3 2 3 8 18 23 25 25 18
4 28 -4 28 -21 0 -13 -3 -18 -19 -28 -6 -4 -13 -10 -17 -14 -4 -5 -15 -12 -25
-17 -11 -6 -19 -12 -20 -14 -3 -6 -4 -28 -1 -28 1 0 2 -1 2 -3 0 -2 1 -3 2 -3
2 0 8 -13 8 -19 0 -6 -5 -16 -9 -21 -9 -8 -14 -25 -14 -43 0 -17 0 -18 -6 -24
l-6 -6 -74 1 c-64 0 -75 0 -82 -3 -5 -2 -10 -4 -10 -6 -3 -4 -4 -31 -2 -32 6
-2 15 -18 15 -25 0 -16 -15 -21 -32 -10 -39 22 -43 26 -45 42 -1 6 -2 12 -2
12 -1 1 -2 4 -2 7 -2 10 -9 21 -18 28 -18 13 -48 36 -64 47 -8 6 -21 16 -29
21 -8 6 -17 13 -21 15 -7 3 -7 3 -2 6 11 8 12 8 70 8 79 0 92 3 117 28 26 26
24 48 -9 80 l-17 16 -13 0 c-14 0 -17 -2 -32 -21 -4 -6 -6 -7 -13 -7 -6 0 -10
1 -13 4 -13 12 0 36 23 40 5 1 12 3 15 4 4 1 25 3 53 3 49 1 60 3 67 11 5 5
13 28 13 35 0 11 7 17 20 17 8 0 11 -1 15 -5z m-666 -36 c3 -3 3 -6 2 -20 -1
-16 -1 -19 -4 -27 -5 -18 -11 -22 -27 -23 -19 0 -29 9 -29 28 0 11 4 20 11 26
23 19 38 25 47 16z m352 -23 c4 -5 5 -5 2 -14 -2 -5 -4 -9 -5 -10 -2 -2 -7
-11 -10 -18 -1 -4 -5 -10 -8 -15 -15 -18 -39 0 -27 21 2 3 9 9 15 15 7 5 12
11 12 12 0 3 13 13 16 13 1 0 3 -2 5 -4z m-257 -9 c3 -1 7 -6 10 -9 3 -4 6 -8
7 -9 1 -1 4 -5 6 -9 7 -13 16 -19 36 -23 2 -1 10 -1 17 -1 10 0 14 -1 18 -4 5
-6 6 -20 0 -25 -4 -4 -33 -17 -38 -17 -2 0 -2 -1 0 -1 1 -1 2 -6 2 -16 0 -21
2 -22 52 -23 l39 -1 7 -5 c3 -4 5 -6 4 -6 -2 0 -16 -15 -56 -57 -5 -6 -13 -12
-18 -15 l-9 -5 -82 -1 c-86 -2 -114 -1 -139 2 -17 2 -23 5 -142 50 -37 14 -71
26 -74 26 -4 1 -4 1 -1 1 3 1 5 3 6 5 1 2 4 4 7 5 4 0 79 1 168 1 156 0 161 0
169 4 5 2 9 6 11 10 4 8 6 26 3 27 -2 0 -6 7 -20 28 -17 25 -19 31 -21 46 0
12 0 13 6 19 5 5 7 6 16 6 6 0 13 -1 16 -3z m939 -118 c18 -9 23 -16 24 -31 0
-20 -9 -29 -30 -28 -14 0 -24 4 -26 11 -2 5 -7 17 -9 22 -1 2 -3 8 -3 14 -2
23 14 27 44 12z m-51 -82 c7 -3 8 -4 11 -16 3 -13 3 -14 -1 -18 -2 -2 -10 -6
-17 -8 -17 -4 -22 -7 -42 -20 -36 -23 -55 -25 -55 -4 0 7 2 9 18 25 21 20 52
38 77 44 1 0 4 -1 9 -3z m-658 -34 l4 -7 -4 -5 c-6 -6 -9 -6 -15 0 -6 6 -6 8
-2 15 5 6 12 5 17 -3z m-279 -36 c11 -1 27 -3 36 -5 9 -2 22 -5 30 -5 15 -2
21 -5 21 -14 0 -5 -6 -13 -11 -13 -4 0 -35 10 -38 12 -4 3 -25 6 -49 5 -21 0
-25 0 -28 3 -9 9 -2 20 11 19 4 -1 17 -2 28 -2z m324 0 c14 -2 20 -7 23 -18 2
-11 0 -24 -6 -29 -8 -9 -32 -9 -40 0 -13 12 -7 52 7 49 2 0 9 -1 16 -2z m657
-17 c9 -11 -7 -44 -20 -44 -4 0 -4 -1 -2 -2 2 -1 3 -4 3 -13 0 -11 1 -12 8
-19 10 -9 17 -17 16 -18 -1 -1 -5 -15 -9 -31 -5 -17 -11 -39 -14 -50 -7 -21
-7 -32 -1 -42 4 -6 19 -14 30 -16 14 -2 17 -5 23 -26 5 -19 5 -31 -1 -35 -4
-4 -5 -4 -15 -1 -6 2 -13 5 -16 6 -15 8 -25 7 -35 -4 -6 -6 -11 -17 -11 -24 0
-3 -11 -13 -20 -19 -4 -2 -10 -7 -14 -11 -7 -8 -40 -75 -40 -81 0 -10 -12 -12
-20 -4 -12 13 -68 93 -68 97 0 1 -1 3 -3 5 -9 10 -49 91 -65 132 -7 17 -18 48
-25 69 l-12 37 5 5 c4 3 9 5 12 6 6 1 24 10 29 14 2 2 13 10 25 19 31 26 32
26 42 26 12 0 18 -4 20 -16 1 -5 3 -12 4 -15 2 -3 3 -7 3 -9 1 -5 10 -12 18
-16 8 -4 14 -4 51 -4 44 0 49 1 56 9 2 2 4 8 5 12 1 4 2 10 2 13 1 2 0 5 -2 7
-4 4 -4 12 1 22 9 21 31 31 40 21z m147 -17 c9 -19 1 -35 -17 -35 -14 0 -20 6
-20 20 0 12 4 17 17 21 13 3 16 2 20 -6z m-485 -5 c5 -5 5 -11 0 -16 -10 -10
-27 5 -16 16 4 4 12 4 16 0z m573 -21 c4 -4 5 -7 5 -15 0 -14 -6 -20 -20 -20
-14 0 -20 6 -20 20 0 14 6 20 20 20 8 0 11 -1 15 -5z m-1173 -14 c16 -5 19 -6
46 -6 l29 0 5 -6 6 -6 0 -77 c1 -56 0 -76 -1 -76 -3 0 -5 -7 -6 -28 -1 -9 -2
-18 -2 -19 -1 -2 0 -3 1 -3 3 0 2 -15 -1 -19 -3 -5 -7 -22 -7 -32 0 -13 28
-44 59 -63 23 -14 28 -24 19 -34 -4 -5 -12 -5 -42 -1 -24 4 -29 6 -33 16 l-4
7 -16 0 c-24 -1 -24 -1 -26 -29 -1 -13 -2 -39 -2 -57 -1 -18 -3 -39 -4 -47 -5
-23 -7 -37 -6 -58 0 -29 0 -28 18 -29 15 0 15 0 18 6 4 8 10 11 23 11 19 0 27
-8 27 -27 0 -19 -8 -27 -27 -27 -15 0 -22 5 -25 17 l-3 9 -18 0 c-16 -1 -19
-1 -19 -4 -1 -2 -1 -4 -2 -5 -1 0 -2 -5 -3 -11 0 -8 -2 -11 -7 -16 -5 -6 -7
-7 -21 -8 -25 -1 -58 10 -64 21 -4 8 -2 24 3 29 7 7 22 7 32 1 4 -3 10 -4 16
-4 25 0 31 8 30 39 -1 22 -5 37 -14 49 -3 4 -8 13 -11 20 -18 37 -21 42 -35
56 -14 14 -28 23 -46 28 -8 2 -13 2 -31 -1 -43 -7 -68 2 -68 23 0 9 6 17 15
21 16 8 24 33 15 51 -9 20 0 30 22 23 5 -1 11 -3 15 -4 3 -1 9 -6 16 -12 6 -7
15 -14 22 -17 l12 -6 46 0 c53 0 60 1 78 16 5 4 10 8 11 8 2 0 0 21 -3 29 -5
13 -13 18 -28 16 -14 -1 -22 -4 -33 -13 -9 -7 -18 -8 -24 -2 -4 4 -4 6 -3 14
1 5 1 10 2 12 0 1 0 2 1 2 2 0 0 15 -2 22 -3 8 -15 10 -38 7 -14 -2 -24 2 -29
13 -5 8 -5 12 -5 40 0 18 -1 34 -2 36 -1 1 -3 6 -5 11 -2 4 -6 11 -10 15 -13
14 -15 18 -15 30 0 10 1 13 8 22 4 5 8 10 10 11 2 0 8 3 14 5 8 3 16 4 28 4
15 0 21 1 41 8 26 9 28 9 53 -1z m231 -32 l6 -5 0 -28 c0 -24 1 -30 4 -35 7
-13 27 -24 49 -26 19 -2 23 -7 23 -26 0 -14 0 -16 -6 -20 -9 -8 -28 -7 -38 1
-4 4 -8 7 -9 8 -6 9 -32 15 -41 9 -10 -6 -30 -13 -40 -13 -19 -1 -28 8 -28 27
0 15 4 20 21 30 15 8 19 13 21 23 2 10 1 24 -1 30 -3 8 0 20 8 26 7 6 24 5 31
-1z m-84 -4 c3 -5 3 -5 0 -10 -2 -3 -5 -5 -7 -5 -2 0 -5 2 -7 5 -3 5 -3 5 0
10 2 3 5 5 7 5 2 0 5 -2 7 -5z m-437 -7 c1 -2 6 -6 10 -10 11 -10 12 -11 25
-17 16 -8 21 -15 21 -28 0 -10 -1 -12 -6 -17 -6 -6 -9 -7 -21 -6 -8 0 -11 3
-28 19 -7 7 -14 13 -15 13 -3 0 -22 14 -23 17 -2 7 -1 23 3 27 6 8 25 9 34 2z
m1422 -36 c4 -4 4 -7 3 -13 -1 -4 -2 -20 -2 -34 0 -14 -1 -28 -1 -30 0 -18
-35 -25 -48 -10 -14 18 -19 22 -31 28 -11 6 -18 16 -15 22 3 7 7 8 18 4 9 -3
23 -4 34 -2 5 1 7 3 13 17 4 8 9 16 11 18 4 5 14 5 18 0z m97 -54 c5 -6 7 -16
4 -26 -3 -13 -26 -17 -37 -6 -9 8 -9 23 -1 32 9 9 24 9 34 0z m-1454 -38 c6
-6 7 -19 1 -26 -5 -6 -19 -6 -25 0 -7 6 -7 19 -1 25 6 7 19 7 25 1z m29 -73
c7 -4 6 -9 -2 -14 -5 -3 -5 -3 -9 4 -3 6 -3 7 -1 10 3 4 5 4 12 0z m-81 -5 c7
-3 12 -13 12 -25 0 -19 -9 -28 -28 -28 -19 0 -28 9 -28 28 0 24 19 34 44 25z
m480 -55 c7 -11 -7 -23 -15 -13 -5 6 -5 8 -1 14 4 6 12 5 16 -1z m831 -13 c4
-4 5 -14 2 -14 -1 0 -2 -2 -3 -4 -1 -3 -4 -7 -7 -10 -5 -6 -9 -5 -9 3 -1 2 -1
8 -2 12 -2 14 10 22 19 13z m-371 -12 c13 -13 4 -38 -13 -38 -16 -1 -22 2 -26
13 -9 23 21 43 39 25z m354 -30 c2 -4 5 -18 6 -31 2 -14 -2 -18 -19 -22 l-12
-3 -5 6 c-7 8 -4 28 4 36 20 17 23 19 26 14z m-166 -58 c2 -2 3 -7 3 -13 0
-13 -6 -19 -19 -19 -14 0 -19 5 -19 22 0 16 0 18 5 25 l3 5 12 -8 c7 -5 14
-10 15 -12z m118 -18 c3 -5 4 -12 3 -26 0 -11 -9 -18 -23 -18 -10 0 -12 1 -17
6 -8 8 -9 25 -1 33 8 9 33 12 38 5z m-162 -75 c3 -3 3 -5 1 -15 -3 -15 1 -40
7 -44 1 -1 2 -8 3 -15 0 -12 0 -13 -6 -19 -5 -5 -7 -6 -17 -6 -23 0 -30 19
-17 44 8 14 9 21 9 39 0 15 3 20 11 20 3 0 7 -2 9 -4z m89 -15 c5 -5 5 -15 0
-20 -9 -9 -24 -2 -24 10 0 8 6 14 14 14 3 0 8 -2 10 -4z m-1102 -6 c8 -9 2
-22 -9 -22 -6 0 -13 7 -13 12 0 12 15 18 22 10z m1077 -123 c4 -4 5 -7 5 -15
0 -14 -6 -20 -20 -20 -14 0 -20 6 -20 20 0 14 6 20 20 20 8 0 11 -1 15 -5z
m-974 -34 c4 -4 5 -7 5 -15 0 -14 -6 -20 -20 -20 -14 0 -20 6 -20 20 0 14 6
20 20 20 8 0 11 -1 15 -5z m296 -18 c7 -4 10 -10 10 -21 0 -19 -9 -26 -34 -24
-2 0 -6 3 -9 6 -5 5 -6 7 -6 17 0 14 3 20 12 24 7 3 21 2 27 -2z m445 -9 c5
-6 5 -12 0 -18 -7 -8 -22 -2 -22 10 0 11 15 16 22 8z m-1040 -22 c1 0 5 -3 8
-6 5 -5 6 -7 6 -18 0 -11 -1 -13 -6 -18 -6 -6 -7 -6 -18 -6 -11 0 -12 0 -18 6
-5 5 -6 7 -6 17 0 14 3 20 12 24 5 2 8 2 22 1z m1373 -15 c12 -7 14 -33 3 -43
-8 -9 -32 -9 -40 0 -9 8 -9 32 0 41 7 7 27 8 37 2z m-234 -4 c4 -4 5 -7 5 -14
-1 -13 -5 -17 -17 -17 -12 0 -19 6 -19 18 0 17 19 25 31 13z m-891 -22 c27 -3
31 -5 33 -12 3 -9 -1 -15 -11 -19 -14 -6 -46 -14 -53 -14 -12 0 -13 0 -19 6
-5 5 -6 7 -6 17 0 14 3 20 12 24 6 2 10 2 44 -2z m1423 -12 c3 -3 3 -3 0 -6
-3 -3 -3 -3 -6 0 -3 2 -3 3 -1 6 4 4 4 4 7 0z m-83 -18 c14 -8 27 -77 17 -92
-2 -3 -7 -9 -12 -14 -11 -11 -16 -18 -18 -23 -1 -2 -2 -4 -3 -4 -1 0 -3 -4 -5
-8 -4 -10 -12 -15 -26 -15 -19 0 -28 9 -28 28 0 13 4 20 18 29 21 15 29 28 26
43 -2 12 -3 17 -5 22 -1 3 -2 10 -2 15 0 15 7 22 22 22 6 0 13 -1 16 -3z
m-1139 -10 c3 -5 3 -5 -1 -10 -6 -6 -8 -6 -13 0 -3 5 -3 5 0 10 5 6 9 6 14 0z
m489 -51 c1 0 5 -3 8 -6 12 -11 6 -40 -8 -43 -10 -2 -22 1 -28 7 -5 5 -6 7 -6
17 0 14 3 20 12 24 5 2 8 2 22 1z m519 -13 c3 -5 3 -5 0 -10 -2 -3 -5 -5 -7
-5 -2 0 -5 2 -7 5 -3 5 -3 5 0 10 2 3 5 5 7 5 2 0 5 -2 7 -5z"/>
<path d="M961 2390 c-28 -2 -40 -16 -42 -48 -1 -19 -4 -22 -29 -35 -31 -16
-35 -21 -37 -44 -1 -13 -1 -15 5 -25 3 -6 8 -13 11 -15 6 -5 26 -7 29 -4 2 2
3 3 4 3 4 0 15 11 24 24 10 15 15 20 20 20 5 0 22 8 29 13 3 2 9 11 13 18 4 7
9 15 11 16 6 4 18 4 31 0 16 -5 30 -4 42 2 10 5 24 17 24 21 0 1 1 4 2 7 4 9
3 19 -1 23 -5 4 -29 6 -35 1 -10 -6 -20 -4 -35 9 -16 13 -33 17 -66 14z"/>
</g>
</svg>
