<?xml version="1.0" standalone="no"?>
<!DOCTYPE svg PUBLIC "-//W3C//DTD SVG 20010904//EN"
 "http://www.w3.org/TR/2001/REC-SVG-20010904/DTD/svg10.dtd">
<svg version="1.0" xmlns="http://www.w3.org/2000/svg"
 width="1100.000000pt" height="2850.000000pt" viewBox="0 0 1100.000000 2850.000000"
 preserveAspectRatio="xMidYMid meet">
<metadata>
Created by potrace 1.15, written by Peter Selinger 2001-2017
</metadata>
<g transform="translate(0.000000,2850.000000) scale(0.500000,-0.500000)"
fill="#000000" stroke="none">
<path d="M1094 3826 c-11 -4 -19 -11 -35 -31 -4 -5 -9 -10 -9 -11 -5 -4 -15
-29 -13 -32 1 -1 2 -4 2 -6 1 -3 2 -10 3 -16 1 -5 2 -13 2 -17 -1 -6 2 -23 4
-26 0 -1 1 -3 1 -5 1 -3 11 -13 23 -22 16 -12 15 -37 -2 -50 -19 -14 -24 -18
-29 -29 l-5 -11 0 -77 c0 -72 0 -77 4 -86 5 -11 12 -18 26 -24 25 -12 24 -11
27 -22 3 -9 3 -12 1 -19 -2 -9 -9 -18 -12 -18 -4 0 -28 -12 -33 -17 -13 -12
-16 -34 -8 -52 5 -10 6 -11 19 -17 7 -4 15 -7 18 -7 19 -2 29 -18 24 -37 -4
-13 -11 -20 -24 -21 -3 0 -11 -3 -18 -7 -13 -6 -14 -7 -19 -17 l-5 -11 0 -63
1 -64 -6 -5 c-9 -8 -14 -7 -100 25 -29 11 -57 21 -64 24 -11 4 -81 31 -135 50
-34 13 -50 5 -56 -27 -2 -11 -10 -26 -12 -22 0 1 -34 29 -75 62 -41 32 -80 63
-86 69 -7 5 -15 12 -18 14 -3 2 -7 5 -9 7 -5 4 -12 10 -16 12 -2 1 -2 2 1 6 4
4 13 7 27 9 39 5 83 34 109 69 40 54 49 125 25 188 -2 6 -5 13 -6 15 -3 13
-30 57 -46 76 -22 27 -64 65 -93 84 -2 2 -7 5 -11 8 -27 17 -75 42 -108 56
-34 14 -107 38 -126 42 -3 0 -6 1 -8 2 -2 0 -5 1 -8 2 -3 0 -11 2 -18 4 -14 4
-35 5 -45 2 -6 -1 -22 -10 -28 -15 -6 -5 -9 -13 -9 -25 0 -12 0 -12 21 -44 32
-48 53 -81 53 -84 0 -1 2 -4 4 -7 5 -8 46 -87 57 -112 24 -55 50 -129 56 -162
7 -37 21 -51 57 -57 12 -2 14 -5 15 -20 0 -17 2 -31 6 -43 2 -9 2 -10 -1 -13
-4 -3 -10 -4 -13 -1 -2 1 -9 2 -19 2 -17 -1 -17 -1 -20 -7 -2 -4 -3 -12 -2
-26 0 -24 -2 -27 -24 -31 -16 -3 -21 -5 -19 -9 1 -1 1 -1 -1 0 -1 0 -3 -2 -5
-5 -2 -3 -6 -7 -8 -8 -3 -1 -4 -3 -4 -4 1 -1 -6 -4 -15 -7 -17 -5 -18 -5 -109
-5 l-92 -1 -9 -5 c-6 -3 -10 -6 -10 -6 0 -1 -1 -2 -3 -2 -4 0 -13 -19 -13 -27
0 -13 12 -61 16 -61 1 0 2 -2 3 -4 1 -4 14 -13 24 -16 6 -1 36 -2 100 -2 l92
1 6 -6 6 -6 -1 -300 c-1 -298 -1 -300 -5 -307 -4 -7 -7 -9 -37 -26 -5 -2 -15
-8 -23 -13 -8 -4 -25 -14 -38 -21 -14 -8 -28 -16 -32 -19 -5 -2 -14 -8 -22
-12 -20 -10 -29 -19 -39 -40 -8 -16 -11 -17 -35 -16 -12 0 -21 0 -23 -1 -1 -2
-2 -2 -2 -1 0 1 -2 0 -4 -1 -4 -2 -4 -4 -4 -19 l0 -17 29 -45 c16 -25 30 -48
32 -49 2 -3 6 -4 18 -4 16 0 19 1 38 18 7 7 7 37 -1 39 -5 1 -14 16 -14 23 0
12 15 18 26 10 10 -6 29 -28 32 -36 2 -7 2 -8 -3 -17 -3 -6 -7 -13 -10 -16 -5
-6 -6 -8 -5 -12 0 -1 1 -5 1 -9 0 -9 8 -17 28 -26 20 -10 23 -13 23 -28 0 -9
-1 -11 -6 -16 -5 -5 -7 -6 -17 -6 -15 0 -21 4 -28 18 -7 15 -14 20 -28 20
l-11 0 -1 -10 c-1 -15 -1 -16 10 -27 7 -7 12 -14 16 -25 5 -12 39 -68 54 -90
9 -12 33 -16 46 -7 19 13 29 28 39 57 6 18 15 37 26 56 7 12 7 26 -1 44 -9 24
-5 40 12 40 8 0 30 5 37 9 8 4 17 16 33 46 3 6 9 15 13 22 5 6 8 12 8 12 0 1
23 39 28 47 1 2 3 4 3 6 1 2 9 15 18 31 10 15 17 28 17 29 0 2 8 9 13 11 6 2
12 -3 21 -18 13 -21 33 -50 34 -51 1 -1 6 -7 11 -15 5 -7 13 -19 18 -25 5 -6
12 -15 16 -19 20 -25 72 -77 99 -99 19 -15 62 -45 73 -50 9 -5 22 -8 37 -8 11
-1 13 -1 13 -3 -1 -2 0 -3 1 -3 2 0 2 -1 0 -2 -2 -1 -2 -2 -1 -2 1 0 4 -3 6
-7 1 -4 5 -8 6 -8 2 -1 8 -3 13 -5 24 -11 90 -33 118 -39 31 -7 54 -11 68 -11
15 0 28 -2 43 -5 2 0 8 -2 14 -4 6 -2 16 -3 26 -2 10 0 18 0 18 -1 1 -1 3 -2
5 -2 1 0 5 0 8 -1 12 -3 45 -4 340 -4 290 -1 313 -1 322 2 15 6 26 20 29 36 0
4 2 13 4 21 3 19 2 29 -8 49 -12 26 -9 38 11 43 17 3 34 13 42 22 27 33 50 50
83 63 21 8 30 13 36 21 8 8 13 21 13 32 0 9 -6 26 -9 26 -2 0 -3 1 -3 2 0 3
-20 8 -39 9 -10 0 -20 1 -23 2 -6 1 -36 1 -56 0 -7 0 -26 -1 -42 -2 -16 -1
-37 -2 -47 -2 -10 0 -37 -1 -60 -2 -47 -1 -49 -2 -74 -14 -22 -11 -31 -12 -46
-4 -30 15 -11 13 -230 14 -108 0 -201 1 -207 2 -6 0 -23 1 -38 2 -31 1 -42 2
-87 6 -46 4 -48 5 -54 11 l-6 6 6 2 c7 3 18 18 21 30 2 12 -2 16 -15 16 -37
-2 -45 2 -46 23 0 16 2 20 15 30 12 8 24 19 22 21 -1 0 0 1 2 2 1 1 2 4 3 6 0
3 1 7 3 10 1 2 2 4 1 4 -1 0 1 2 3 4 3 3 14 5 14 2 0 -1 2 -2 4 -3 3 -1 10
-12 10 -17 0 -6 5 -11 12 -11 4 0 10 -1 13 -3 4 -1 55 -2 195 -2 l189 1 6 -6
6 -6 -1 -40 c0 -33 0 -41 3 -48 4 -9 14 -21 18 -21 2 0 3 -1 3 -2 0 -2 10 -3
59 -3 l48 0 20 7 c16 5 23 6 34 6 20 0 32 4 42 15 23 25 22 24 43 16 21 -9 34
-8 51 0 21 12 32 24 39 45 1 6 2 76 2 271 l0 263 6 6 c3 3 6 5 8 4 5 -1 43 23
44 28 2 15 2 26 -1 30 -2 3 -3 4 -3 3 0 0 -2 0 -4 2 -3 1 -9 3 -15 4 -11 2
-19 8 -19 16 -1 19 -7 42 -13 48 -6 5 -14 12 -21 17 -4 3 -10 7 -13 10 -3 3
-9 7 -13 10 -4 3 -11 9 -17 13 -14 10 -18 14 -42 32 -11 8 -21 16 -23 17 -1 1
-7 4 -13 6 -23 10 -30 14 -38 27 -6 10 -15 15 -25 15 -16 0 -22 -5 -60 -50 -5
-6 -12 -14 -15 -17 -3 -3 -10 -11 -15 -17 -5 -6 -12 -14 -15 -17 -25 -26 -29
-33 -34 -59 -2 -9 -4 -20 -5 -23 -6 -14 -40 -16 -49 -2 -8 12 -8 15 -9 175
l-1 155 6 6 6 6 104 -1 c131 0 129 -1 128 26 l-1 12 7 0 7 0 -1 -12 c0 -7 0
-15 1 -16 4 -8 20 -10 65 -10 45 0 52 1 62 10 4 3 15 27 15 32 0 6 9 12 16 12
8 0 16 -7 16 -12 0 -6 11 -29 15 -32 16 -14 61 -13 89 1 6 3 12 6 13 8 1 1 6
5 10 8 4 3 8 8 10 11 1 3 4 8 6 11 4 8 4 20 -1 29 -5 11 -21 14 -44 10 -11 -3
-12 -3 -16 2 -3 4 -4 6 -3 21 2 21 -2 34 -13 43 -4 4 -12 11 -18 16 -6 5 -17
14 -24 21 -7 6 -17 15 -23 20 -5 4 -15 12 -22 18 -10 9 -19 16 -36 31 -2 1
-15 12 -27 22 -36 30 -36 30 -49 30 -15 0 -22 -4 -32 -17 -3 -5 -12 -18 -20
-28 -23 -32 -29 -40 -34 -47 -3 -4 -8 -12 -12 -17 -26 -34 -39 -52 -44 -60
-12 -17 -15 -18 -84 -19 l-60 -1 -6 6 -6 6 1 115 c0 109 0 116 -4 132 -8 37
-3 47 27 52 16 2 33 10 40 18 6 8 7 21 1 31 -5 8 -22 17 -35 18 -6 1 -74 6
-153 12 -79 6 -148 11 -154 12 -8 1 -14 0 -22 -3z m-732 -178 c1 0 5 -3 8 -6
5 -5 6 -7 6 -18 0 -11 -1 -13 -6 -18 -6 -6 -7 -6 -18 -6 -11 0 -12 0 -18 6 -5
5 -6 7 -6 17 0 14 3 20 12 24 5 2 8 2 22 1z m970 -76 c1 0 5 -3 8 -6 5 -5 6
-7 6 -18 0 -11 -1 -13 -6 -18 -3 -3 -7 -6 -9 -6 -12 -1 -20 0 -22 2 -3 2 -11
3 -30 3 -25 0 -27 0 -30 5 -3 4 -3 4 0 9 3 3 6 5 9 5 8 0 31 9 41 16 13 9 14
9 33 8z m-187 -109 c12 -7 14 -33 3 -43 -8 -9 -32 -9 -40 0 -9 8 -9 32 0 41 7
7 27 8 37 2z m624 -37 c2 -3 3 -8 3 -15 0 -15 -5 -20 -21 -22 -18 -2 -51 -9
-58 -12 -3 -1 -10 -4 -15 -5 -6 -2 -10 -5 -11 -8 -7 -14 -14 -20 -23 -20 -12
0 -19 11 -11 18 2 1 3 4 3 5 0 2 1 3 3 3 1 0 4 2 6 4 2 2 4 4 5 3 5 -3 9 6 20
36 5 15 9 17 35 17 12 0 27 1 34 2 15 1 25 -1 30 -6z m-1369 -58 c1 0 5 -3 8
-6 5 -5 6 -7 6 -18 0 -15 -6 -23 -19 -25 -18 -2 -29 7 -29 25 0 13 3 19 12 23
5 2 8 2 22 1z m849 -95 c12 -7 14 -33 3 -43 -8 -9 -32 -9 -40 0 -9 8 -9 32 0
41 7 7 27 8 37 2z m-945 -185 c4 -5 4 -5 0 -9 -4 -5 -5 -5 -9 -1 -6 4 -6 5 0
10 5 5 5 5 9 0z m922 -33 c14 -6 18 -22 12 -40 -6 -17 -12 -39 -12 -48 -1 -5
-3 -9 -7 -13 -5 -5 -7 -5 -22 -5 -15 0 -17 0 -22 5 -7 7 -7 15 1 40 3 12 6 24
6 28 0 10 4 22 8 27 7 8 24 11 36 6z m-826 -17 c5 -6 5 -12 0 -18 -7 -8 -22
-2 -22 9 0 11 15 17 22 9z m1178 -23 c21 -9 20 -45 -2 -54 -10 -5 -28 -1 -34
6 -9 10 -9 32 0 42 7 8 24 11 36 6z m-903 -50 c1 -3 1 -147 2 -320 0 -173 1
-319 2 -325 1 -10 1 -12 -3 -15 -6 -5 -12 0 -21 17 -7 14 -9 16 -31 32 -21 15
-24 18 -29 28 l-5 11 0 209 c0 119 -1 212 -2 215 -4 16 -17 28 -32 30 -22 4
-26 5 -33 14 -7 10 -7 15 -1 20 2 1 4 3 4 5 0 7 9 14 27 23 20 10 25 13 30 22
6 9 20 20 27 22 6 1 23 9 40 18 3 2 7 5 10 7 l5 5 4 -6 c3 -3 5 -8 6 -12z
m1087 -41 c5 0 14 -11 14 -17 0 -4 1 -7 2 -8 4 -5 4 -15 -1 -19 -5 -5 -11 -5
-34 -4 -2 0 -6 3 -9 6 -5 5 -6 7 -6 17 0 14 3 20 12 24 5 2 8 2 22 1z m-795
-11 c6 -4 6 -6 6 -20 0 -14 0 -16 -6 -20 -4 -4 -7 -5 -18 -5 -11 0 -14 1 -18
5 -6 4 -6 6 -6 20 0 14 0 16 6 20 4 4 7 5 18 5 11 0 14 -1 18 -5z m-597 -8 c6
-6 5 -13 -1 -46 -7 -35 -7 -37 -19 -48 -23 -21 -40 -19 -40 6 0 11 9 46 14 52
1 1 4 9 7 17 3 8 7 17 10 19 6 8 22 8 29 0z m106 0 c1 -1 5 -7 8 -13 3 -7 5
-12 5 -11 -1 0 -5 -2 -8 -6 -10 -11 -29 -13 -37 -3 -5 6 -5 24 0 30 5 7 23 9
32 3z m955 -34 l6 -6 0 -156 c0 -165 0 -165 9 -171 5 -3 30 -6 30 -4 0 3 9 7
19 7 26 0 32 -28 12 -53 -2 -2 -6 -7 -9 -10 -2 -3 -4 -6 -5 -8 -1 -4 -14 -12
-18 -12 -5 0 -14 6 -21 15 -7 8 -21 15 -25 14 -1 -1 -90 -1 -198 -2 l-196 0
-6 6 -6 6 1 127 0 126 -5 10 c-6 12 -9 15 -25 25 -12 9 -14 12 -14 24 0 11 2
16 10 20 3 1 8 5 11 8 3 3 7 5 7 5 3 0 12 15 12 19 1 2 4 6 7 8 3 1 6 4 6 6 1
1 42 2 196 2 l196 0 6 -6z m-620 -82 c4 -4 5 -7 5 -15 0 -14 -6 -20 -20 -20
-14 0 -20 6 -20 20 0 14 6 20 20 20 8 0 11 -1 15 -5z m842 -26 c8 -5 22 -19
27 -29 5 -10 5 -26 1 -32 -8 -9 -27 -9 -38 2 -9 8 -19 30 -21 42 0 8 0 10 5
15 6 6 16 7 26 2z m-84 -136 c12 -12 3 -31 -13 -31 -11 0 -18 7 -18 18 0 11 7
18 18 18 6 0 9 -1 13 -5z m10 -116 c3 -5 3 -6 1 -11 -5 -9 -17 -7 -18 3 -3 12
11 18 17 8z m-1158 -48 c12 -12 3 -31 -13 -31 -11 0 -18 7 -18 18 0 11 7 18
18 18 6 0 9 -1 13 -5z m0 -130 c5 -8 1 -16 -8 -16 -9 0 -13 8 -8 16 2 3 5 5 8
5 3 0 6 -2 8 -5z m436 -11 c5 -5 6 -7 6 -16 0 -15 -8 -23 -23 -23 -9 0 -11 1
-16 7 -9 8 -9 23 -1 32 9 9 24 9 34 0z m-597 -116 c1 0 5 -3 8 -6 5 -5 6 -7 6
-18 0 -11 -1 -13 -6 -18 -6 -6 -7 -6 -18 -6 -11 0 -12 0 -18 6 -5 5 -6 7 -6
17 0 14 3 20 12 24 5 2 8 2 22 1z m1546 -36 c5 -5 6 -7 6 -17 0 -10 -1 -12 -6
-17 -5 -5 -7 -6 -17 -6 -10 0 -12 1 -17 6 -5 5 -6 7 -6 17 0 10 1 12 6 17 5 5
7 6 17 6 10 0 12 -1 17 -6z m-340 -30 c5 -6 5 -12 0 -18 -7 -8 -22 -2 -22 9 0
11 15 17 22 9z m277 -53 c5 -8 1 -16 -8 -16 -9 0 -13 8 -8 16 2 3 5 5 8 5 3 0
6 -2 8 -5z m-456 -5 c11 -10 3 -28 -11 -28 -9 0 -16 6 -16 16 0 14 17 22 27
12z m-460 -24 c7 -7 8 -23 2 -30 -5 -5 -24 -15 -27 -13 -1 1 -2 0 -2 -1 0 -1
-1 -1 -3 -1 -2 1 -3 3 -3 4 0 2 -1 5 -3 6 -3 3 -4 15 -3 26 0 5 9 15 15 15 10
2 18 0 24 -6z m167 0 c1 0 5 -3 8 -6 5 -5 6 -7 6 -16 0 -19 -11 -50 -20 -59
-6 -5 -21 -4 -27 1 -5 5 -5 7 -5 23 0 33 5 51 16 56 5 2 8 2 22 1z m420 -32
c5 -5 5 -11 0 -16 -10 -10 -27 5 -16 16 4 4 12 4 16 0z m81 -4 c13 -6 19 -20
11 -27 -5 -5 -8 -6 -17 -2 -10 4 -16 11 -18 20 -3 13 8 17 24 9z m-360 -29 c6
-4 6 -6 6 -20 0 -15 0 -16 -6 -20 -5 -5 -7 -5 -20 -4 -19 1 -22 4 -22 24 0 14
0 16 6 20 4 4 7 5 18 5 11 0 14 -1 18 -5z"/>
</g>
</svg>
