<?xml version="1.0" standalone="no"?>
<!DOCTYPE svg PUBLIC "-//W3C//DTD SVG 20010904//EN"
 "http://www.w3.org/TR/2001/REC-SVG-20010904/DTD/svg10.dtd">
<svg version="1.0" xmlns="http://www.w3.org/2000/svg"
 width="1100.000000pt" height="2850.000000pt" viewBox="0 0 1100.000000 2850.000000"
 preserveAspectRatio="xMidYMid meet">
<metadata>
Created by potrace 1.15, written by Peter Selinger 2001-2017
</metadata>
<g transform="translate(0.000000,2850.000000) scale(0.500000,-0.500000)"
fill="#000000" stroke="none">
<path d="M353 3833 c-1 0 -5 -1 -9 -2 -9 -1 -19 -10 -24 -21 -4 -9 -4 -13 -4
-134 0 -99 1 -126 3 -127 1 0 1 -1 -1 -1 -2 0 -6 -2 -8 -5 l-5 -6 -35 1 c-41
0 -45 -1 -71 -17 -12 -9 -15 -10 -25 -10 -10 0 -13 1 -25 10 -25 16 -30 17
-72 17 -48 0 -57 -4 -63 -28 -2 -9 -2 -11 5 -35 12 -41 17 -49 44 -61 9 -4 12
-4 29 -3 10 1 62 2 115 2 l96 1 12 -6 c6 -3 10 -6 10 -7 -1 0 -1 -1 1 -1 1 0
2 -1 1 -1 0 -1 4 -6 9 -10 15 -13 20 -28 12 -39 -4 -7 -20 -22 -27 -25 -9 -5
-17 -5 -26 -1 -46 21 -61 16 -67 -24 -2 -20 -7 -24 -25 -24 -12 0 -14 0 -19 6
-6 7 -6 8 -6 21 1 12 2 14 8 19 6 6 6 6 6 21 -1 17 -5 25 -15 28 -3 1 -15 6
-26 11 -11 6 -21 10 -22 10 -1 0 -6 2 -13 5 -19 9 -38 4 -45 -12 -9 -18 -3
-39 14 -58 5 -5 12 -14 15 -18 5 -8 19 -22 27 -29 10 -7 11 -13 9 -26 -8 -46
-16 -66 -31 -76 -5 -2 -12 -7 -16 -10 -11 -7 -15 -11 -19 -21 -5 -12 -6 -219
-1 -231 4 -9 9 -11 25 -12 5 0 9 -1 10 -1 1 -1 2 0 2 1 0 4 15 11 26 11 19 0
27 -8 27 -27 0 -12 -2 -16 -13 -28 -8 -9 -10 -11 -16 -20 -8 -13 -15 -18 -20
-18 -7 0 -28 -7 -33 -12 -9 -8 -11 -18 -11 -53 0 -35 2 -45 11 -53 5 -4 25
-12 32 -12 6 0 13 -8 13 -15 0 -7 -6 -14 -13 -14 -2 0 -5 -1 -7 -2 -2 0 -8 -3
-14 -5 -17 -6 -20 -13 -22 -40 0 -12 0 -25 0 -28 1 -4 1 -27 1 -52 -1 -39 -1
-46 2 -53 4 -9 14 -21 18 -21 2 0 3 -1 3 -2 0 -2 10 -3 43 -3 49 0 94 10 99
20 4 10 3 33 -3 40 -6 7 -7 24 -1 31 6 8 27 9 34 0 3 -3 7 -18 6 -22 0 -1 1
-2 2 -2 1 0 2 -1 2 -3 0 -1 2 -5 5 -8 5 -5 7 -5 16 -5 6 1 11 0 11 0 0 -1 3
-3 6 -4 l5 -2 0 -40 0 -41 -6 -6 c-5 -5 -7 -6 -12 -5 -4 0 -17 -3 -28 -6 -12
-4 -25 -7 -29 -7 -22 -1 -35 -7 -48 -21 -5 -5 -14 -13 -21 -16 -19 -10 -24
-15 -28 -26 -7 -20 5 -40 29 -46 5 -1 33 -2 69 -2 l62 1 6 -6 6 -6 0 -73 c0
-55 1 -77 3 -91 3 -16 3 -19 -1 -38 -5 -29 -5 -168 0 -180 4 -9 14 -21 18 -21
2 0 3 -1 3 -2 0 -2 2 -2 45 -3 43 -1 65 1 96 7 30 6 34 8 39 15 5 8 6 35 1 39
-5 4 -4 18 2 24 9 8 29 3 29 -8 0 -5 11 -22 14 -23 2 -1 4 -2 4 -3 0 -1 5 -1
11 -2 10 0 12 1 22 9 13 11 22 22 27 36 4 11 4 15 4 39 -1 25 -1 28 -6 35 -4
6 -8 8 -14 10 -1 0 -2 1 -4 1 -10 4 -15 5 -19 4 -6 -2 -17 1 -21 6 -2 2 -4 10
-5 20 -1 24 0 22 -16 39 -5 7 -10 9 -17 11 -15 3 -20 4 -20 2 0 -1 -1 -2 -1
-1 -4 2 -11 -3 -14 -10 -3 -8 -4 -20 0 -25 1 -1 2 -8 2 -14 0 -15 -5 -22 -16
-25 -7 -3 -12 -5 -42 -19 -36 -16 -63 -14 -63 6 0 10 6 16 21 22 19 7 26 11
41 25 7 7 18 16 23 20 15 10 18 18 16 36 -1 8 -2 31 -2 52 0 41 -1 45 -7 61
-10 25 -8 32 17 45 7 4 14 8 16 10 1 1 6 3 11 5 7 2 8 2 11 -1 5 -4 3 -11 -6
-20 -4 -4 -8 -10 -9 -13 -2 -3 -5 -7 -7 -9 -6 -7 -3 -26 6 -44 4 -8 9 -21 11
-29 6 -23 10 -28 27 -37 19 -10 25 -16 25 -25 0 -4 1 -8 2 -9 3 -2 2 -5 0 -4
-2 1 -2 1 0 -1 2 -3 39 -4 41 -2 0 1 4 9 9 18 7 15 8 18 7 28 0 14 -7 27 -20
37 -16 13 -21 22 -21 35 0 13 3 17 16 26 5 4 9 7 10 8 4 5 29 12 41 12 31 0
45 15 40 40 -4 19 -3 31 0 36 8 9 28 9 35 0 5 -6 5 -21 1 -30 -3 -4 -4 -11 -3
-18 1 -26 7 -29 69 -28 l46 1 17 8 c18 9 31 21 40 36 2 5 8 10 11 12 7 4 7 4
13 0 4 -2 11 -8 17 -14 8 -9 10 -10 20 -11 10 -1 12 -1 20 4 20 13 20 41 -2
61 -18 17 -35 32 -39 33 -3 2 -3 2 1 2 1 0 3 1 3 2 0 1 3 4 7 5 6 2 21 3 82 3
70 0 77 0 84 4 10 4 14 10 16 22 2 11 2 12 7 12 4 0 4 -1 4 -22 -1 -19 -1 -23
2 -25 2 -1 4 -3 3 -3 0 -1 -5 -14 -9 -30 -14 -49 -31 -90 -54 -130 -5 -10 -18
-30 -20 -33 -1 -1 -8 -10 -15 -20 -8 -10 -16 -21 -19 -24 -4 -4 -6 -8 -7 -19
-1 -15 -1 -15 17 -26 11 -6 13 -9 15 -15 5 -12 -4 -24 -17 -23 -9 0 -13 3 -22
18 -8 13 -11 16 -17 14 -1 0 -6 -1 -12 -1 -16 -2 -21 -10 -19 -31 1 -7 7 -21
12 -24 6 -5 14 -19 17 -30 2 -9 2 -10 -2 -14 -8 -7 -21 4 -32 27 -2 4 -5 9 -8
11 -2 1 -4 4 -3 6 0 1 0 2 -2 1 -1 0 -2 0 -3 1 -2 3 -30 3 -32 0 -2 -3 -64
-44 -67 -44 -1 0 -2 -1 -2 -2 0 -1 -1 -2 -3 -2 -1 0 -4 -2 -7 -5 -2 -2 -9 -7
-15 -9 -5 -3 -13 -7 -18 -9 -4 -3 -21 -11 -38 -20 -33 -17 -38 -20 -42 -29 -7
-18 -4 -40 9 -62 8 -12 29 -19 46 -14 4 1 9 2 12 3 9 2 63 15 70 18 4 1 9 4
12 6 3 2 13 4 22 6 36 6 79 20 152 48 30 11 27 9 28 28 l0 16 -9 9 c-8 8 -9
10 -9 20 0 10 1 12 10 22 5 6 12 16 15 21 3 6 10 16 16 22 10 11 10 12 21 12
17 0 24 -9 22 -30 0 -2 -6 -11 -14 -18 -19 -20 -24 -30 -23 -43 1 -15 10 -22
29 -19 8 1 27 10 73 37 14 8 21 14 28 25 9 14 22 25 37 33 21 10 30 34 20 53
-17 31 1 51 35 39 20 -7 42 -4 53 6 21 17 26 24 34 35 15 22 16 25 28 47 9 18
12 21 16 21 6 0 8 -4 18 -40 12 -40 15 -43 37 -43 11 0 17 1 20 3 10 7 37 0
44 -11 8 -14 1 -24 -15 -24 -29 1 -35 -1 -41 -11 -7 -11 -6 -19 8 -47 7 -14
14 -26 15 -26 3 0 15 -19 20 -32 2 -7 5 -12 6 -12 0 0 2 -2 4 -6 2 -3 9 -8 19
-13 8 -4 15 -8 14 -9 0 0 0 -2 2 -3 2 -2 5 -11 8 -21 l6 -17 29 -29 c16 -16
36 -35 44 -41 8 -7 16 -13 18 -15 4 -4 9 -7 27 -21 13 -10 15 -11 24 -10 23 1
27 6 37 45 7 26 15 50 21 64 7 15 18 37 19 38 0 1 2 3 4 6 13 23 40 53 63 70
18 13 18 13 18 29 -1 14 -1 14 -9 21 -4 4 -11 9 -15 11 -10 5 -12 6 -22 17
-10 9 -10 10 -12 32 -1 21 -7 34 -18 40 -15 8 -48 18 -68 22 -24 4 -31 7 -42
17 -10 9 -21 17 -33 23 -28 15 -75 50 -95 71 -2 3 -5 5 -5 4 -1 0 -6 6 -12 13
-6 8 -14 17 -17 21 -4 4 -6 7 -5 7 1 0 1 2 1 5 -1 3 0 5 1 4 1 -1 2 0 2 2 0 2
2 2 6 2 12 -2 18 -1 34 4 22 6 31 6 57 -1 l20 -6 68 0 68 1 12 6 c10 5 12 6
16 17 7 16 9 16 33 4 37 -18 49 -19 69 -9 25 12 37 26 37 43 0 21 -7 28 -83
92 -7 6 -16 13 -18 15 -3 3 -9 8 -13 11 -5 4 -10 8 -11 9 -1 1 -7 7 -14 12
-16 13 -17 15 -17 23 0 5 2 9 17 23 23 23 32 35 42 58 15 34 15 50 -2 66 -21
19 -21 19 -21 26 0 7 5 13 19 21 21 11 25 22 25 59 0 37 -3 44 -28 54 -7 3
-14 6 -16 8 -6 5 -1 9 16 16 25 10 28 16 28 54 0 17 -1 33 -3 41 -4 17 -4 37
0 54 4 17 4 70 0 82 -1 5 -7 16 -12 26 -9 15 -9 17 -9 28 1 11 2 13 7 17 5 5
7 5 28 5 12 0 25 -1 29 -2 5 -1 9 -1 12 1 3 2 6 2 6 2 1 -1 2 0 2 1 0 1 1 2 2
1 3 -2 8 13 7 24 0 8 -2 11 -6 14 -11 9 -33 12 -46 6 -12 -5 -30 -4 -36 2 -5
4 -6 6 -7 24 -3 34 -5 40 -24 53 -6 5 -11 9 -12 10 -1 1 -8 7 -17 13 -9 7 -17
13 -18 14 -2 1 -23 17 -60 45 -20 15 -29 18 -44 15 -10 -2 -14 -7 -65 -65 -6
-7 -15 -17 -20 -23 -5 -5 -11 -12 -13 -15 -2 -3 -8 -8 -13 -10 l-9 -5 -100 0
-101 0 -4 5 c-3 2 -7 4 -8 4 -2 0 -2 0 0 2 1 1 3 4 3 7 1 3 3 9 4 12 4 8 4 10
-1 13 -6 3 -23 0 -42 -10 -21 -11 -25 -11 -30 -6 -6 7 -5 10 18 56 6 12 13 17
43 27 24 8 30 8 42 -6 l10 -11 17 0 c9 0 16 1 16 2 0 2 24 27 42 46 14 14 11
14 163 14 163 0 152 -1 163 22 9 20 16 28 26 28 9 0 14 -5 20 -20 10 -23 26
-32 48 -27 40 11 70 46 60 71 -1 3 -1 5 -1 6 0 1 -4 6 -10 13 -4 4 -16 14 -31
26 -4 3 -10 7 -13 10 -13 10 -21 16 -26 20 -3 2 -7 5 -8 6 -1 1 -6 5 -10 8 -4
3 -8 6 -9 7 -4 4 -40 30 -42 30 -1 0 -2 1 -2 2 -1 3 -60 46 -73 53 -17 9 -28
9 -47 -4 -63 -38 -82 -54 -110 -89 -7 -9 -16 -19 -20 -23 -13 -13 -17 -17 -20
-20 -2 -4 -2 -4 -11 0 -8 4 -12 4 -71 5 -65 0 -70 0 -75 -8 -1 -2 -1 -3 -1 -3
1 0 0 -2 -1 -3 -4 -4 -4 -25 -1 -29 2 -2 3 -9 3 -18 0 -14 0 -16 -6 -20 -8 -7
-28 -7 -36 0 -7 6 -9 25 -4 35 6 13 3 34 -7 41 -5 4 -16 2 -33 -5 -9 -3 -18
-6 -20 -6 -4 0 -21 6 -33 11 -4 2 -12 4 -19 5 -22 1 -36 -10 -40 -30 -1 -4 -2
-7 -3 -8 -1 0 -1 -2 0 -5 1 -8 -7 -15 -16 -15 -9 0 -17 7 -16 15 1 3 1 5 0 5
-1 1 -2 4 -3 8 -2 12 -9 22 -18 26 -8 4 -12 4 -152 4 l-144 0 -9 -4 c-5 -3
-11 -8 -13 -12 -8 -13 -13 -18 -17 -18 -2 0 -10 5 -17 12 -21 16 -31 25 -34
26 -2 1 -17 3 -21 2 -1 0 -3 0 -3 0 -6 -1 -14 -7 -19 -16 -4 -5 -8 -10 -10
-12 -2 -1 -5 -3 -6 -5 -2 -1 -7 -5 -13 -8 -5 -4 -13 -10 -17 -14 -8 -8 -30
-38 -32 -42 -1 -2 -3 0 -6 5 -4 6 -5 11 -6 20 0 12 -6 39 -10 43 -3 4 -6 22
-4 29 3 13 4 14 26 25 23 12 30 18 39 33 17 29 13 54 -9 65 -10 5 -14 6 -43 8
-10 1 -22 2 -28 2 -5 1 -37 3 -72 6 -64 6 -73 5 -88 0 -3 -2 -8 -3 -10 -4 -5
-2 -4 -2 -14 -5 -12 -3 -23 0 -42 11 -11 6 -27 13 -30 12z m1458 -120 c5 -7 4
-22 -2 -28 -7 -7 -23 -7 -30 0 -6 6 -7 22 -1 29 7 9 27 8 33 -1z m-49 -75 c5
-4 9 -9 9 -12 1 -5 0 -5 -11 -5 -13 0 -15 1 -20 6 -5 4 -5 10 0 15 6 6 13 5
22 -4z m-185 1 c1 -2 3 -5 4 -7 3 -3 2 -4 -2 -8 l-4 -4 -5 5 c-4 5 -4 5 0 7 2
2 3 4 2 6 -1 5 4 5 5 1z m-95 -30 l-5 -5 -4 4 -5 5 4 4 5 5 4 -4 5 -5 -4 -4z
m319 4 l5 -6 -4 -4 -5 -5 -9 4 c-8 5 -10 9 -8 15 0 0 4 0 8 1 7 0 9 -1 13 -5z
m-729 -2 c8 -4 12 -9 13 -18 0 -3 2 -9 3 -12 1 -3 3 -7 3 -9 1 -5 8 -13 15
-18 6 -4 9 -4 25 -4 18 1 18 1 24 -5 4 -4 6 -7 6 -7 -1 -1 -3 -27 -4 -55 -1
-13 -2 -26 -2 -29 0 -3 -1 -14 -2 -26 -1 -18 -2 -20 -7 -24 -6 -5 -6 -5 -53
13 -21 9 -51 21 -68 27 -16 7 -32 14 -34 16 -4 3 -9 15 -9 20 0 11 -10 25 -27
41 -10 9 -19 17 -21 17 -3 2 -3 2 0 2 2 0 4 1 5 3 2 5 13 8 30 9 17 0 35 4 40
9 2 2 7 12 13 26 1 2 2 7 3 10 3 16 27 23 47 14z m-556 -42 c3 -3 4 -7 4 -14
0 -13 -6 -19 -19 -19 -13 0 -19 6 -19 19 0 7 1 11 4 14 7 8 23 8 30 0z m-126
-19 c1 0 5 -3 8 -6 7 -7 8 -20 3 -36 -3 -9 -3 -12 -1 -23 2 -14 4 -17 13 -22
6 -2 35 -9 38 -9 6 1 10 -1 14 -5 5 -5 5 -6 4 -24 -1 -15 -1 -20 3 -33 7 -24
7 -29 2 -35 -11 -12 -29 -3 -28 13 1 19 -4 34 -13 42 -5 3 -7 4 -21 3 -37 -2
-37 -2 -45 3 -7 3 -12 21 -9 32 1 5 3 10 4 11 6 8 4 39 -3 50 -4 6 -4 25 0 31
2 2 6 5 9 7 5 2 8 2 22 1z m384 -22 c23 -9 34 -20 45 -45 3 -6 8 -13 10 -14 6
-4 29 -11 36 -11 4 0 7 -2 10 -5 4 -6 4 -6 0 -27 -2 -15 -3 -36 -3 -72 -1 -51
-1 -51 5 -68 7 -23 7 -35 -1 -42 -5 -6 -7 -7 -16 -7 -11 0 -15 3 -24 16 -8 14
-17 21 -30 25 -7 2 -15 4 -18 4 -2 0 -7 3 -10 6 -5 5 -6 7 -6 17 0 9 1 12 8
21 8 10 8 12 8 25 0 8 -1 16 -2 17 -4 5 -41 32 -47 34 -3 1 -3 2 0 2 1 0 3 1
3 3 0 2 5 8 12 15 11 11 12 13 12 21 1 15 -8 25 -37 40 -7 3 -9 11 -8 25 0 15
4 19 19 23 13 3 19 3 34 -3z m-168 -65 c4 -2 11 -13 23 -36 l5 -10 15 -2 c9 0
21 -1 27 -1 10 0 18 -3 22 -8 1 -1 3 -2 6 -3 l5 0 -5 -1 c-5 0 -31 -25 -49
-46 -4 -5 -7 -7 -8 -5 -6 6 -8 13 -9 23 0 13 -5 25 -10 27 -2 1 -3 2 -3 4 3 6
-23 7 -33 0 -32 -20 -56 -17 -56 7 0 12 4 19 17 34 20 21 35 26 53 17z m1203
-94 c11 -11 29 -40 31 -49 1 -6 1 -12 0 -17 -1 -4 -2 -18 -2 -30 0 -18 -1 -23
-4 -26 -6 -8 -14 -4 -21 10 -3 7 -12 22 -15 25 -4 4 -18 25 -25 39 -7 14 -8
17 -8 31 0 13 0 15 6 19 4 4 7 5 18 5 13 0 14 0 20 -7z m-619 -12 l4 -4 -5 -5
-4 -4 -5 5 c-4 4 -4 5 -1 9 4 5 5 5 11 -1z m391 -19 c4 -6 4 -22 0 -30 -5 -8
-29 -22 -38 -22 -10 0 -13 6 -11 19 2 11 11 32 15 35 8 7 27 5 34 -2z m87 2
c1 0 5 -3 8 -6 5 -5 6 -7 6 -18 0 -11 -1 -13 -6 -18 -5 -6 -7 -6 -19 -6 -19 1
-23 5 -23 22 0 15 3 21 12 25 5 2 8 2 22 1z m-196 -32 c5 -5 6 -7 6 -17 0 -10
-1 -12 -6 -17 -5 -5 -7 -6 -17 -6 -10 0 -12 1 -17 6 -5 5 -6 7 -6 17 0 10 1
12 6 17 5 5 7 6 17 6 10 0 12 -1 17 -6z m-465 -11 c3 -5 3 -5 0 -10 -2 -3 -5
-5 -7 -5 -2 0 -5 2 -7 5 -3 5 -3 5 0 10 2 3 5 5 7 5 2 0 5 -2 7 -5z m627 -47
c4 -1 15 -2 24 -3 13 0 16 -1 21 -5 13 -13 9 -42 -7 -49 -6 -2 -20 -3 -23 -1
-3 2 -23 -4 -23 -8 0 -2 -1 -2 -2 1 -1 2 -3 8 -6 14 -6 13 -6 31 1 44 3 6 5
12 5 14 1 4 1 3 1 0 1 -4 3 -6 9 -7z m-997 -18 c8 -8 5 -28 -5 -31 -2 -1 -6
-4 -9 -7 -2 -3 -5 -5 -6 -5 0 1 -1 -1 -1 -4 l0 -6 -2 6 c-1 3 -3 10 -5 14 -5
13 -3 22 6 33 5 5 16 6 22 0z m75 -6 c5 -5 5 -11 0 -16 -10 -10 -27 5 -16 16
4 4 12 4 16 0z m-491 -10 c10 -9 3 -26 -10 -26 -8 0 -15 7 -15 15 0 13 16 20
25 11z m967 -10 c12 -15 17 -38 11 -49 -2 -3 -3 -7 -3 -9 0 -1 -2 -5 -4 -9 -6
-7 -10 -12 -10 -10 0 1 -9 -6 -19 -16 -9 -10 -13 -11 -24 -6 -12 6 -17 14 -17
26 0 11 2 15 13 27 4 4 12 18 17 29 11 24 12 25 22 25 7 0 9 -1 14 -8z m574
-22 c5 -5 5 -15 0 -20 -9 -9 -24 -2 -24 10 0 8 6 14 14 14 3 0 8 -2 10 -4z
m-1425 -19 c7 -3 13 -19 13 -33 0 -14 -6 -30 -13 -33 -3 -1 -5 -3 -5 -5 0 -3
0 -3 -1 0 -1 2 -7 8 -13 15 -7 6 -12 13 -12 15 -1 5 -1 11 0 16 0 2 5 9 12 15
7 7 12 13 12 15 0 3 1 3 1 0 1 -2 3 -4 6 -5z m694 -54 c3 -3 3 -3 0 -6 -3 -3
-3 -3 -6 0 -3 2 -3 3 -1 6 4 4 4 4 7 0z m202 -1 c10 -9 3 -26 -10 -26 -12 0
-19 14 -11 25 4 6 15 7 21 1z m463 -3 c14 -5 21 -22 13 -31 -3 -4 -5 -4 -11
-1 -2 0 -7 2 -12 3 -17 4 -23 17 -14 27 5 6 12 6 24 2z m-217 -29 c7 -6 7 -19
1 -25 -6 -7 -19 -7 -25 -1 -7 6 -7 19 -1 25 6 7 19 7 25 1z m-750 -14 c5 -5 6
-11 5 -24 0 -5 -9 -14 -15 -14 -21 -1 -30 5 -30 22 0 8 1 11 6 16 9 9 24 9 34
0z m-126 0 c1 0 5 -4 7 -8 9 -13 11 -40 3 -47 -2 -3 -18 -10 -18 -9 -1 1 -3
-1 -5 -3 -3 -3 -7 -4 -10 -4 -5 0 -5 -1 -7 -18 -4 -35 -7 -41 -28 -41 -6 0
-13 1 -15 2 -3 2 -25 -1 -26 -4 0 -1 -1 -2 -2 -1 -3 2 -11 -17 -10 -25 1 -24
-11 -38 -31 -37 -16 1 -23 6 -27 21 -2 7 -2 10 2 23 3 8 5 15 6 16 2 2 6 22 7
38 2 22 16 28 43 21 26 -8 42 -6 64 6 2 1 5 2 7 3 3 2 4 5 4 9 0 4 1 10 2 13
1 3 2 9 2 12 1 7 8 17 17 26 3 4 6 8 6 10 0 3 0 3 3 0 2 -2 4 -3 6 -3z m1141
-6 c11 -6 14 -11 14 -18 0 -14 -18 -22 -27 -11 -7 7 -10 18 -7 27 0 0 0 0 0 1
-1 2 9 6 12 5 2 0 5 -2 8 -4z m-1395 -20 c4 -6 12 -15 17 -20 13 -13 16 -19
16 -26 0 -7 -10 -20 -15 -20 -2 0 -3 -1 -3 -2 0 -1 -4 -2 -10 -3 -9 -1 -9 -1
-9 -8 1 -4 0 -8 -3 -12 -3 -4 -4 -7 -3 -13 1 -4 2 -9 2 -12 2 -9 13 -22 18
-22 6 0 13 -12 13 -23 0 -10 -6 -23 -13 -28 -2 0 -3 -2 -3 -4 0 -4 -11 -2 -17
2 -3 2 -9 13 -14 24 -5 11 -10 20 -11 21 -2 1 -6 8 -8 14 -1 3 -3 5 -4 6 -1 1
-5 6 -9 12 -4 6 -11 16 -15 22 -9 13 -10 22 -4 28 5 5 11 5 27 -1 9 -4 16 -5
23 -5 5 1 10 0 10 -1 0 -1 1 -1 2 0 1 1 2 0 2 -1 0 -2 1 -1 3 3 3 8 2 32 -2
37 -2 2 -9 23 -9 28 0 2 8 14 9 14 1 0 6 -5 10 -10z m441 -28 c5 -6 5 -12 0
-18 -7 -8 -22 -2 -22 9 0 11 15 17 22 9z m368 -27 c0 -11 -10 -34 -13 -28 0 1
-5 3 -10 5 -21 5 -52 15 -59 18 -11 6 -14 16 -6 24 4 4 6 4 32 3 28 -1 41 1
43 6 3 6 13 -18 13 -28z m-284 21 c5 -6 5 -21 1 -36 -5 -19 -5 -27 -3 -47 2
-17 2 -20 -1 -25 -5 -7 -8 -9 -14 -6 -9 5 -10 8 -10 27 0 14 -1 21 -5 30 -10
26 -6 44 10 56 10 8 16 8 22 1z m669 -9 c11 -11 0 -54 -15 -58 -10 -2 -20 19
-20 43 0 14 6 20 20 20 8 0 11 -1 15 -5z m196 -73 c12 -7 22 -38 16 -48 -3 -4
-4 -4 -13 -3 -13 2 -33 12 -37 19 -4 8 -4 24 1 30 6 8 23 9 33 2z m-549 -14
c4 -2 8 -3 10 -3 2 0 8 -1 14 -3 16 -4 65 -4 80 1 17 5 32 4 39 -2 11 -9 9
-37 -3 -43 -5 -2 -26 -3 -29 0 -4 3 -36 14 -43 14 -4 0 -19 -7 -46 -21 -4 -2
-9 -4 -11 -4 -6 0 -19 -6 -19 -8 0 -4 -12 14 -14 21 -3 10 -2 25 1 34 3 8 11
20 13 18 1 -1 4 -3 8 -4z m-451 -2 c7 -7 7 -19 1 -25 -9 -9 -28 -1 -28 13 0
14 18 22 27 12z m243 -28 c5 -5 5 -11 0 -16 -10 -10 -27 5 -16 16 4 4 12 4 16
0z m-177 -27 c8 -8 7 -25 -1 -33 -5 -5 -7 -6 -17 -6 -16 0 -21 5 -23 22 -2 21
3 26 24 24 10 -1 13 -2 17 -7z m605 1 c3 -1 16 -1 30 -1 23 0 25 0 29 -4 3 -3
6 -5 7 -5 1 0 2 -3 2 -6 1 -4 3 -7 5 -9 2 -1 4 -3 5 -3 1 -1 3 -2 6 -3 2 -1 4
-2 3 -4 -1 -1 0 -1 2 1 2 2 3 2 3 0 0 -1 1 -2 2 -1 1 1 2 0 2 -1 0 -1 2 -2 4
-2 2 0 4 -2 5 -3 1 -5 2 9 1 23 0 6 0 10 2 10 1 0 2 1 1 2 -2 3 10 12 17 12 3
0 9 -6 9 -9 0 -4 5 -10 13 -19 7 -7 10 -19 8 -30 -3 -13 -2 -33 2 -37 1 -1 2
-3 1 -3 0 -1 5 -5 12 -9 22 -13 28 -24 19 -41 -5 -11 -19 -12 -23 -3 -1 2 -5
10 -11 18 -14 23 -24 28 -62 30 -13 0 -35 2 -49 3 -89 6 -84 7 -112 -6 -27
-11 -32 -12 -51 -3 -10 6 -15 7 -23 6 -13 -1 -15 -1 -24 -7 -6 -3 -11 -4 -25
-5 -21 -1 -34 -7 -37 -17 l-2 -7 -5 14 c-2 8 -4 18 -4 23 0 10 3 20 6 20 1 0
2 2 2 6 0 3 1 4 2 3 0 -2 4 -3 8 -3 6 -1 8 0 13 6 7 8 19 11 31 8 5 -1 9 -3
10 -4 2 -3 24 -7 32 -5 4 1 10 3 14 6 4 2 14 7 23 10 20 6 40 15 48 22 3 3 7
5 8 5 2 0 4 2 6 5 2 2 9 7 16 12 6 4 11 8 11 10 0 1 1 1 2 -1 0 -2 3 -3 6 -4z
m-541 -32 c6 -7 6 -7 0 -14 -7 -7 -8 -7 -11 1 -3 5 -3 7 0 13 3 7 4 7 11 0z
m257 -4 c2 -1 4 -4 4 -6 0 -2 1 -2 1 0 1 1 4 2 8 2 4 0 7 1 7 3 0 2 8 -19 9
-27 1 -8 -7 -17 -15 -17 -4 0 -8 1 -8 3 -1 2 -2 1 -2 -3 0 -3 -2 -9 -5 -14 -7
-12 -7 -26 -1 -42 3 -9 6 -10 20 -9 16 2 19 3 22 10 1 5 1 5 3 -4 1 -5 2 -10
4 -10 1 -1 2 -14 1 -48 0 -45 0 -46 5 -60 3 -8 6 -16 8 -18 1 -1 2 -10 2 -18
0 -15 0 -17 -6 -21 -5 -4 -7 -5 -24 -5 -23 0 -26 -1 -42 -6 -18 -6 -28 -5 -38
1 -4 3 -9 7 -10 8 -15 16 -53 23 -75 12 -9 -5 -11 -7 -16 -19 -4 -7 -7 -16 -7
-20 -2 -15 -10 -21 -27 -21 -17 0 -25 6 -27 21 0 4 -3 13 -7 20 -5 12 -7 14
-17 20 -7 3 -12 6 -13 6 -7 1 -10 3 -10 5 0 1 -1 3 -2 4 -2 0 -2 1 0 1 4 0 14
14 18 27 3 10 4 18 4 39 0 26 0 28 6 39 3 7 6 11 6 10 0 -3 8 -5 12 -3 6 4 25
7 34 7 14 -1 18 -8 12 -24 -4 -10 -2 -28 2 -33 11 -11 26 -12 63 -3 44 11 52
16 51 36 0 17 -1 18 -11 21 -4 2 -10 4 -13 5 -3 2 -6 3 -7 3 -4 0 -11 9 -11
14 -1 15 -2 14 22 35 5 5 11 12 13 15 6 10 9 17 10 24 1 9 1 9 6 22 5 16 10
20 25 20 7 0 14 -1 16 -2z m-596 -20 c1 0 5 -3 8 -6 5 -5 6 -7 6 -18 0 -11 -1
-13 -6 -18 -6 -6 -7 -6 -18 -6 -11 0 -12 0 -18 6 -5 5 -6 7 -6 17 0 14 3 20
12 24 5 2 8 2 22 1z m1313 -19 c6 -4 6 -6 6 -20 0 -14 0 -16 -6 -20 -7 -6 -22
-7 -44 -2 -22 5 -29 10 -29 21 0 9 7 15 22 20 18 5 19 6 33 6 11 0 14 -1 18
-5z m-1105 -26 l-5 -5 -4 4 -5 5 4 4 5 5 4 -4 5 -5 -4 -4z m-389 -15 c10 -11
20 -15 40 -18 16 -2 19 -4 27 -24 7 -18 10 -23 14 -28 7 -7 10 -19 10 -30 -2
-16 -6 -20 -22 -20 -15 0 -20 4 -28 24 -7 18 -10 23 -13 28 -2 1 -3 3 -3 4 0
1 -5 6 -11 10 -16 14 -28 14 -52 -1 -11 -7 -25 -7 -32 0 -4 4 -5 7 -5 14 0 15
4 19 32 38 9 6 16 12 16 13 0 1 2 2 4 3 2 1 4 3 4 5 0 2 1 1 5 -3 3 -3 9 -10
14 -15z m-145 8 c5 -6 5 -12 0 -18 -7 -8 -22 -2 -22 9 0 11 15 17 22 9z m424
-18 c10 -10 12 -13 12 -20 0 -11 -7 -16 -18 -16 -11 1 -17 8 -17 21 0 11 9 38
11 32 0 -2 6 -10 12 -17z m667 -35 c4 -2 7 -4 7 -5 0 -3 13 -7 23 -6 21 1 25
1 26 3 1 0 3 -1 5 -2 2 -2 2 -4 1 -5 -3 -1 -5 -30 -3 -30 1 0 1 -2 1 -4 -1 -2
0 -4 1 -4 1 0 2 -1 2 -2 0 -2 2 -5 5 -7 7 -7 10 -13 10 -24 0 -19 -9 -28 -28
-28 -19 0 -28 9 -28 28 0 10 11 35 14 32 0 -1 1 0 1 2 0 2 1 9 2 14 1 11 -1
16 -7 14 -2 0 -3 0 -3 1 0 3 -20 -3 -22 -6 -2 -3 -16 -6 -30 -6 -16 0 -22 5
-22 20 0 20 17 26 45 15z m195 -7 c3 -3 8 -10 9 -14 2 -4 5 -8 5 -8 1 0 2 -1
2 -3 0 -4 8 -10 17 -14 14 -6 34 -1 48 13 l7 6 4 -4 c4 -4 5 -7 7 -22 1 -10 7
-12 25 -13 l15 0 3 9 c6 19 15 28 29 28 21 0 23 -27 2 -47 -8 -7 -41 -49 -41
-51 0 -1 -1 -2 -2 -2 -1 0 -5 -2 -10 -5 -4 -2 -9 -5 -12 -6 -5 -1 -11 -4 -32
-13 -10 -5 -25 -6 -34 -2 -5 2 -8 6 -16 23 -6 12 -14 24 -19 30 -13 14 -15 19
-15 33 0 7 -1 18 -3 25 -2 6 -4 14 -4 16 -1 2 -2 7 -3 10 -2 6 -2 8 1 12 4 7
10 6 17 -1z m-735 -9 c7 -4 10 -11 10 -23 0 -12 -2 -17 -13 -28 -6 -6 -24 -41
-24 -46 0 -2 -8 -9 -14 -11 -6 -3 -19 -2 -26 0 -17 8 -20 36 -5 52 11 11 19
22 26 38 4 8 9 16 10 17 7 6 27 7 36 1z m1042 -20 c10 -5 9 -11 -1 -16 -9 -4
-13 -3 -16 4 -2 4 -2 6 1 10 4 6 6 6 16 2z m-1650 -41 c5 -5 6 -7 6 -16 0 -15
-8 -23 -23 -23 -16 0 -23 9 -22 27 1 18 25 26 39 12z m205 -24 c3 -2 7 -7 8
-10 1 -4 4 -8 5 -10 8 -10 15 -26 15 -35 0 -14 -5 -18 -26 -20 -25 -2 -31 4
-21 22 5 9 6 12 7 31 0 26 3 30 12 22z m140 -7 c10 -5 13 -20 9 -36 -3 -11 -5
-31 -3 -37 2 -6 11 -12 27 -17 9 -3 18 -5 20 -5 12 0 18 -24 9 -33 -5 -5 -9
-6 -20 -5 -5 0 -8 3 -27 19 -3 4 -9 8 -13 10 -5 2 -15 14 -15 17 -1 5 -14 29
-21 37 -4 5 -8 11 -9 14 -5 20 2 37 16 39 10 2 20 0 27 -3z m357 -48 c2 -2 2
-5 0 -14 -1 -4 -2 -7 -3 -7 -1 0 -1 -1 -1 -3 3 -7 -10 -6 -18 2 -8 8 -6 19 4
24 4 3 15 2 18 -2z m603 -18 c2 -2 9 -11 15 -20 13 -20 18 -23 36 -21 7 1 16
3 19 5 8 4 23 4 29 0 5 -3 13 -22 14 -35 1 -6 1 -8 -2 -8 -2 0 -3 -1 -3 -1 0
-4 -11 -3 -21 1 -15 6 -39 5 -56 -3 -12 -7 -30 -3 -37 8 -1 2 -10 11 -19 21
l-16 16 0 15 c0 14 0 16 6 20 7 6 28 7 35 2z m407 -8 c4 -3 8 -17 5 -20 -1 -1
-2 -5 -2 -8 -1 -9 -7 -8 -17 2 -10 10 -12 18 -5 25 5 5 14 5 19 1z m-125 -13
c5 -6 5 -12 0 -18 -7 -8 -22 -2 -22 9 0 11 15 17 22 9z m-1081 -2 c9 0 19 -3
25 -8 3 -2 3 -3 -1 -7 -8 -8 -32 -41 -34 -45 0 -2 -1 -2 -1 1 0 2 -1 3 -2 2
-3 -2 -7 10 -8 28 -1 18 -1 18 5 24 3 3 6 6 7 5 0 -1 4 -1 9 0z m493 -23 c-3
-4 -10 -4 -14 -1 -1 2 -1 4 2 7 l5 5 4 -4 c4 -4 4 -5 3 -7z m-679 -54 c12 -7
14 -33 3 -43 -8 -9 -32 -9 -40 0 -9 8 -9 32 0 41 7 7 27 8 37 2z m149 -35 c3
-5 4 -12 4 -20 0 -11 -1 -13 -6 -18 -6 -6 -7 -6 -18 -6 -11 0 -12 0 -18 6 -5
5 -6 7 -6 18 0 11 1 13 6 18 3 3 7 6 8 6 5 0 10 2 12 3 0 0 4 1 7 1 6 0 7 -1
11 -8z m939 -17 c14 -7 21 -19 16 -26 -4 -7 -17 -12 -35 -13 -18 0 -18 0 -24
6 -5 5 -6 7 -6 17 0 10 1 12 6 17 6 6 7 6 19 6 8 -1 16 -3 24 -7z m-178 -4 c7
-4 10 -11 10 -23 0 -23 -6 -26 -48 -28 -18 -1 -36 -3 -40 -4 -10 -2 -27 -1
-30 2 -10 8 -3 22 14 29 6 3 12 5 13 5 1 0 7 2 12 5 9 4 35 14 46 18 5 1 18
-1 23 -4z m-182 -73 c5 -5 6 -7 6 -16 0 -15 -8 -23 -23 -23 -9 0 -11 1 -16 7
-9 8 -9 23 -1 32 9 9 24 9 34 0z m-793 -72 c1 0 5 -3 8 -6 5 -5 6 -7 6 -18 0
-11 -1 -13 -6 -18 -6 -6 -7 -6 -18 -6 -11 0 -12 0 -18 6 -5 5 -6 7 -6 17 0 14
3 20 12 24 5 2 8 2 22 1z m787 -51 c3 -3 3 -3 0 -6 -3 -3 -3 -3 -6 0 -3 2 -3
3 -1 6 4 4 4 4 7 0z m473 -6 c3 -2 8 -8 10 -12 7 -11 14 -19 17 -19 2 0 3 -1
3 -2 0 -1 4 -3 10 -6 12 -6 17 -11 20 -21 4 -17 -4 -33 -21 -40 -5 -2 -14 -9
-38 -27 -5 -4 -11 -6 -18 -7 -13 -2 -18 -1 -25 6 -3 3 -6 4 -7 3 -1 0 -1 0 0
1 0 1 1 7 2 12 2 16 -4 29 -17 44 -7 6 -12 13 -12 14 -1 6 -1 8 3 12 2 2 5 3
9 2 7 -2 23 4 29 10 4 5 9 16 9 23 0 1 2 5 4 7 6 7 15 6 22 0z m-786 -182 c7
-7 6 -22 -1 -30 -5 -5 -6 -5 -15 -4 -15 2 -22 13 -17 29 3 11 24 14 33 5z"/>
<path d="M1334 2672 c0 -3 1 -4 3 -3 2 0 3 0 4 -1 0 -1 3 -2 5 -3 3 0 4 0 4 5
0 6 -1 6 -8 6 -7 0 -8 -1 -8 -4z"/>
<path d="M77 3252 c-4 -5 -4 -24 1 -21 1 1 2 0 2 0 0 -1 5 -2 12 -1 7 1 12 0
13 -1 0 -1 1 0 1 3 0 2 1 4 2 3 3 -2 2 13 -1 18 -4 5 -25 4 -30 -1z"/>
<path d="M51 2406 c-11 -5 -16 -12 -19 -24 -2 -9 -2 -11 6 -37 10 -37 11 -38
31 -39 18 0 23 2 28 17 2 5 4 9 5 9 1 0 3 3 5 8 1 4 8 12 14 19 l12 12 -1 14
0 14 -9 5 c-7 5 -10 5 -36 6 -24 0 -29 0 -36 -4z"/>
<path d="M1945 2211 c-13 -4 -18 -8 -19 -23 0 -11 0 -11 8 -18 5 -4 12 -10 16
-14 l7 -7 14 1 c8 1 14 3 15 4 0 1 1 2 3 2 8 0 6 25 -4 38 -4 5 -20 16 -29 19
-1 0 -5 -1 -11 -2z"/>
</g>
</svg>
