<?xml version="1.0" standalone="no"?>
<!DOCTYPE svg PUBLIC "-//W3C//DTD SVG 20010904//EN"
 "http://www.w3.org/TR/2001/REC-SVG-20010904/DTD/svg10.dtd">
<svg version="1.0" xmlns="http://www.w3.org/2000/svg"
 width="1100.000000pt" height="2850.000000pt" viewBox="0 0 1100.000000 2850.000000"
 preserveAspectRatio="xMidYMid meet">
<metadata>
Created by potrace 1.15, written by Peter Selinger 2001-2017
</metadata>
<g transform="translate(0.000000,2850.000000) scale(0.500000,-0.500000)"
fill="#000000" stroke="none">
<path d="M183 3826 c-16 -3 -19 -4 -24 -11 -5 -6 -5 -9 -7 -38 -2 -36 -3 -42
-7 -88 -3 -29 -8 -79 -12 -108 -3 -18 -2 -32 2 -39 2 -3 5 -6 5 -6 2 -1 3 -1
14 -4 6 -2 10 -2 13 0 9 4 18 2 23 -3 3 -3 5 -5 4 -6 0 0 1 -3 7 -20 11 -28
12 -33 8 -38 -2 -3 -5 -5 -8 -5 -4 0 -19 12 -19 16 0 2 -14 23 -20 30 -3 3
-28 3 -28 0 0 -1 -1 -2 -1 -2 -1 1 -4 0 -6 -2 -5 -3 -9 -18 -12 -40 -1 -6 -2
-13 -2 -15 -1 -2 -4 -19 -7 -38 -7 -39 -6 -35 -15 -81 -4 -19 -7 -36 -8 -38
-2 -8 -3 -42 0 -42 1 0 1 -1 -1 -2 -2 -2 0 -4 7 -6 1 -1 2 -2 1 -3 0 -1 1 -1
2 1 3 4 16 6 16 4 0 -1 -2 -2 -3 -2 -2 0 -5 -1 -7 -1 -4 0 -5 -10 -3 -25 2
-15 0 -34 -4 -41 -1 -3 -9 -10 -18 -16 -16 -10 -29 -27 -32 -40 0 -4 -4 -19
-9 -34 -5 -15 -11 -35 -13 -43 -3 -8 -8 -24 -12 -35 -7 -20 -7 -21 -5 -32 4
-21 21 -34 44 -34 18 0 27 5 52 31 28 28 59 63 68 75 7 9 18 13 40 15 l21 1 6
-6 6 -6 0 -76 0 -76 8 -16 c13 -27 10 -48 -10 -57 -9 -5 -12 -6 -42 -7 -36 -1
-37 -1 -37 -3 0 -1 -1 -2 -3 -2 -4 0 -16 -14 -23 -26 -8 -15 -12 -18 -26 -18
-14 0 -22 4 -29 15 -3 4 -6 8 -7 9 -1 1 -2 3 -3 5 -1 2 -6 7 -11 11 -18 13
-37 6 -43 -15 l-3 -11 7 -27 c9 -31 15 -44 26 -51 14 -10 19 -10 79 -10 l56 1
20 11 c19 10 24 11 39 10 2 0 6 -3 9 -6 9 -8 8 -21 -1 -48 -6 -18 -7 -21 -5
-28 3 -11 12 -20 25 -27 16 -8 21 -12 21 -20 0 -9 -10 -26 -24 -41 -6 -7 -10
-12 -10 -14 0 -1 -1 -2 -2 -2 -1 0 -3 -2 -4 -5 -8 -17 -8 -22 -8 -123 0 -123
0 -122 -29 -149 -14 -14 -19 -18 -44 -38 -6 -6 -16 -14 -21 -19 l-10 -9 0 -15
0 -15 15 -14 c8 -8 24 -23 35 -33 11 -10 24 -22 28 -26 4 -4 15 -14 25 -23 10
-9 20 -19 24 -22 13 -13 17 -15 29 -15 13 0 21 3 27 10 6 7 15 11 26 11 18 0
23 -5 29 -26 1 -4 3 -9 5 -10 1 -2 1 -3 0 -3 -1 0 0 -1 1 -3 1 -1 2 -3 1 -3
-2 -2 -3 -12 -1 -12 1 0 2 -1 1 -2 0 -1 3 -1 8 0 7 2 11 1 15 -1 3 -2 7 -3 9
-3 5 0 11 -9 11 -18 0 -8 -1 -11 -8 -18 -2 -1 -4 -4 -4 -6 0 -1 -1 -2 -2 -1
-3 2 -3 -26 1 -30 7 -9 27 -3 35 12 3 6 8 14 12 18 3 5 6 10 6 11 0 1 1 2 2 2
1 0 2 9 2 26 -1 32 0 35 23 49 14 9 25 20 54 55 9 10 14 27 12 37 -2 10 -14
22 -29 31 -17 9 -21 14 -21 26 0 11 7 21 16 26 7 4 16 24 15 36 -1 21 0 23 6
29 8 8 23 8 32 0 3 -3 6 -8 6 -10 0 -7 10 -33 16 -42 12 -17 40 -20 53 -5 4 5
18 22 22 28 1 1 3 3 4 5 4 5 23 29 39 50 16 21 16 21 16 33 0 14 -4 22 -14 30
-16 12 -30 33 -30 44 0 9 7 12 22 12 8 0 18 -2 23 -3 12 -5 31 0 35 9 3 8 3
34 0 34 -3 0 -2 5 2 10 4 4 4 4 18 1 27 -6 40 -4 52 9 19 21 6 60 -22 66 -13
3 -17 2 -34 -8 -8 -5 -15 -8 -16 -8 -1 0 -2 -1 -2 -1 -1 -1 -4 -4 -8 -5 -4 -2
-13 -7 -21 -12 -8 -4 -24 -12 -36 -19 -12 -6 -26 -14 -32 -17 -5 -3 -22 -12
-36 -19 -14 -7 -32 -17 -39 -20 -12 -7 -13 -7 -27 -6 -17 2 -18 2 -26 5 -3 1
-10 3 -15 3 -24 2 -26 6 -29 57 -1 12 -2 24 -2 28 -1 8 4 26 9 36 4 8 10 11
23 13 20 2 36 13 41 27 3 10 3 106 0 133 -2 21 -2 21 2 26 6 7 18 7 24 0 3 -3
4 -7 4 -13 -1 -15 5 -31 13 -37 8 -6 8 -6 44 -7 28 0 41 1 52 3 9 2 21 3 27 3
11 0 13 -1 18 -6 3 -3 6 -7 6 -9 0 -7 2 -11 6 -22 10 -22 19 -26 62 -25 30 1
34 3 52 17 5 5 10 9 12 10 2 2 7 3 13 3 10 0 13 -2 28 -15 3 -3 11 -7 16 -10
13 -6 18 -13 17 -24 0 -5 1 -12 2 -16 6 -23 2 -34 -13 -41 -15 -8 -21 -17 -44
-62 -11 -24 -24 -49 -28 -57 -17 -29 -20 -34 -26 -45 -8 -11 -9 -22 -4 -32 5
-10 19 -13 41 -9 12 3 22 1 27 -5 4 -6 3 -19 -3 -43 -2 -9 -4 -21 -4 -27 0
-14 -4 -20 -13 -20 -9 0 -12 3 -17 16 -10 25 -32 42 -56 44 -16 1 -23 -2 -31
-14 -6 -9 -47 -62 -49 -64 -1 -1 -3 -4 -6 -7 -4 -5 -20 -24 -39 -44 -35 -38
-86 -85 -126 -116 -16 -13 -19 -16 -22 -22 -4 -10 -4 -24 0 -32 7 -13 21 -29
30 -33 11 -5 27 -5 33 1 5 4 10 19 11 34 2 19 13 24 28 13 30 -22 55 -16 70
15 4 9 8 18 8 22 1 4 4 9 7 12 7 7 16 7 37 1 18 -5 27 -4 40 2 14 8 83 52 107
70 6 4 13 10 16 12 18 12 55 40 74 57 45 39 110 101 110 106 0 1 3 -2 7 -5 8
-9 10 -16 8 -39 -1 -10 -2 -54 -2 -97 -1 -86 -1 -88 10 -99 10 -10 21 -13 48
-14 23 -1 26 -1 29 -5 5 -6 5 -12 0 -18 -4 -4 -6 -5 -28 -6 -43 -1 -60 -15
-60 -49 0 -18 3 -26 11 -34 7 -6 23 -13 33 -14 13 -1 20 -7 24 -20 3 -14 -3
-33 -11 -33 -3 0 -3 -1 -2 -2 2 0 3 -7 3 -15 1 -12 2 -14 7 -18 5 -4 8 -4 37
-4 76 1 156 24 201 59 17 13 20 16 28 32 l6 13 1 129 c0 89 -1 132 -2 138 -3
10 -11 23 -21 30 -17 13 -18 34 -1 47 7 6 18 18 18 20 0 4 8 11 12 12 2 0 4 1
4 2 0 1 1 -2 3 -6 6 -19 39 -85 68 -135 1 -2 6 -9 10 -15 4 -7 10 -16 13 -20
3 -4 5 -8 6 -9 1 -1 6 -7 11 -15 5 -8 11 -15 12 -17 2 -2 7 -9 13 -15 26 -34
67 -76 102 -105 13 -10 24 -20 24 -21 3 -3 27 -2 33 2 8 5 11 11 19 41 5 15 9
29 10 31 14 33 16 46 12 60 -3 9 -8 11 -19 9 -3 -1 -11 0 -17 0 -29 5 -39 4
-51 0 -31 -11 -40 -9 -63 11 -5 4 -11 9 -13 11 -20 15 -25 22 -25 32 0 9 7 16
16 16 3 0 13 -4 22 -8 31 -16 51 -17 81 -3 8 4 18 7 21 7 14 0 26 -11 36 -32
7 -14 12 -18 22 -19 14 0 21 2 27 11 15 19 52 52 59 52 1 0 2 1 2 2 0 0 8 5
19 9 42 17 47 21 57 42 7 14 7 20 3 34 -6 16 -29 31 -52 32 -12 1 -20 -2 -31
-11 -20 -16 -25 -17 -52 -10 -8 2 -21 5 -27 6 -21 4 -28 17 -22 35 4 10 4 27
0 36 -3 7 -11 14 -24 21 -4 2 -11 6 -14 8 -10 7 -23 12 -33 14 -5 1 -9 2 -9 2
-1 0 -8 0 -16 0 -13 0 -15 1 -21 5 -10 9 -31 37 -40 55 -4 6 -11 16 -17 22
-60 61 -71 70 -78 72 -9 2 -26 0 -33 -3 -3 -2 -10 -3 -16 -3 -9 0 -11 1 -16 6
-13 13 -5 41 15 50 10 5 10 5 96 6 75 1 87 1 92 4 14 8 22 23 21 43 0 19 4 37
11 42 11 10 49 12 58 3 8 -8 5 -29 -5 -33 -3 -1 -5 -2 -21 -13 l-10 -7 1 -13
c1 -16 2 -17 13 -22 7 -4 14 -4 71 -4 69 0 80 1 97 9 18 8 21 17 22 59 1 32 0
35 -13 49 l-9 9 -14 0 -15 0 -12 -11 c-12 -11 -12 -11 -24 -11 -13 0 -19 3
-44 20 -19 12 -23 17 -23 32 0 11 6 23 15 32 4 4 8 15 8 22 0 9 -5 20 -15 30
-5 6 -9 11 -9 12 -1 3 -1 6 -2 7 0 0 -1 2 -1 5 -2 13 -2 18 -1 17 2 -2 13 18
12 22 0 0 1 1 2 1 1 0 2 1 2 2 0 2 -1 2 -2 0 -2 -1 -9 -2 -17 -2 l-15 -1 -1 8
c0 6 0 6 -1 -3 0 -10 -1 -13 -6 -18 -6 -6 -7 -6 -19 -5 -20 2 -26 9 -25 30 2
17 7 21 28 21 12 0 16 -1 19 -4 6 -6 27 -1 24 7 0 2 0 3 1 3 0 1 5 15 10 31
l8 30 0 107 c0 103 0 108 -4 118 -5 14 -5 32 0 55 3 15 4 23 4 68 0 32 -1 53
-2 57 -3 8 -14 20 -19 20 -2 0 -3 1 -3 2 0 1 -1 1 -2 1 -12 1 -17 1 -32 -3
-27 -6 -36 -1 -36 20 0 15 5 32 13 47 7 13 15 36 15 45 0 7 8 14 15 14 12 0
19 -15 12 -26 -2 -3 -3 -7 -2 -12 0 -5 1 -12 1 -17 0 -4 1 -7 2 -6 1 1 2 0 2
-1 2 -6 26 -3 38 3 6 3 15 8 21 11 5 2 15 8 21 13 21 15 20 14 20 30 0 14 0
15 -5 20 -4 3 -10 6 -14 7 -36 10 -39 12 -44 33 -9 35 -17 46 -37 52 -7 2 -10
5 -18 13 -16 18 -19 21 -38 35 -10 8 -20 15 -22 17 -2 2 -10 8 -18 14 -8 6
-19 15 -25 19 -16 13 -22 16 -35 14 -14 -1 -15 -1 -33 -20 -15 -15 -19 -24
-28 -48 -3 -9 -7 -18 -9 -20 -2 -2 -13 -8 -26 -14 -43 -21 -22 -19 -186 -19
-140 0 -145 0 -153 -4 -7 -4 -16 -14 -17 -21 0 -1 -1 -4 -2 -7 -2 -3 -3 -7 -3
-10 0 -7 -5 -12 -12 -12 -7 0 -12 5 -12 12 0 3 -1 7 -3 10 -1 3 -1 5 -1 6 0 1
-2 5 -5 9 -4 8 -20 19 -27 19 -2 0 -13 3 -24 6 -11 4 -25 8 -31 9 -17 5 -17 5
-44 17 -11 6 -21 10 -21 10 -1 0 -112 41 -133 49 -17 7 -31 6 -39 -1 -6 -5
-12 -22 -10 -28 1 -3 -3 -25 -6 -30 -6 -9 -7 -26 -7 -87 0 -64 0 -67 -8 -75
-2 -3 -3 -2 -7 1 -2 2 -8 7 -12 10 -4 4 -16 13 -26 21 -10 8 -21 17 -24 19 -3
2 -8 6 -11 9 -3 2 -19 15 -36 27 -25 20 -31 24 -39 24 -19 3 -28 -3 -46 -26
-3 -4 -9 -12 -13 -16 -4 -5 -8 -10 -10 -12 -8 -11 -27 -34 -28 -35 -1 -1 -7
-8 -14 -17 -18 -23 -37 -32 -45 -20 -2 4 -2 5 0 11 12 26 25 64 26 71 1 11 -2
21 -12 38 -6 11 -8 15 -8 24 0 13 7 25 17 29 4 1 10 4 13 6 6 2 7 2 13 -3 3
-3 8 -10 10 -15 8 -16 9 -17 26 -17 17 0 19 1 23 12 4 8 3 20 -2 29 -6 12 -24
21 -35 19 -3 -1 -8 -2 -11 -2 -3 -1 -8 -1 -11 -2 -4 -1 -6 0 -6 1 -1 2 -1 -2
-2 -8 l-1 -11 -1 12 c0 7 1 11 2 11 2 0 2 1 0 3 -1 1 -1 3 -1 4 1 0 -1 1 -4 2
-3 1 -5 2 -5 3 0 2 -24 6 -46 7 -18 0 -20 1 -41 10 -19 9 -61 22 -100 30 -2 0
-6 1 -8 2 -55 14 -54 14 -95 10 -9 -1 -13 -1 -16 1 -4 2 -8 3 -15 2z m90 -58
c11 -10 3 -28 -11 -28 -9 0 -16 6 -16 16 0 14 17 22 27 12z m128 -63 c5 -8 1
-16 -8 -16 -9 0 -13 8 -8 16 2 3 5 5 8 5 3 0 6 -2 8 -5z m1347 -24 c3 -3 4 -7
4 -16 -1 -15 -3 -20 -11 -24 -5 -3 -6 -3 -12 0 -6 3 -7 5 -8 13 -4 22 2 30 21
31 2 0 5 -2 6 -4z m-1476 -15 c8 -9 3 -22 -13 -30 -33 -18 -53 -16 -53 7 0 11
5 18 15 20 3 1 11 3 17 4 18 4 30 4 34 -1z m121 -31 c5 -8 1 -16 -8 -16 -9 0
-13 8 -8 16 2 3 5 5 8 5 3 0 6 -2 8 -5z m1104 -20 c3 -3 3 -3 0 -6 -3 -3 -3
-3 -6 0 -3 2 -3 3 -1 6 4 4 4 4 7 0z m-532 -16 c3 -5 3 -5 0 -10 -2 -3 -5 -5
-7 -5 -2 0 -5 2 -7 5 -3 5 -3 5 0 10 2 3 5 5 7 5 2 0 5 -2 7 -5z m245 -22 c9
-9 3 -33 -8 -33 -5 0 -24 -10 -30 -15 -11 -10 -11 -10 -12 -87 l-1 -71 -5 -7
c-4 -6 -7 -8 -18 -12 -18 -5 -24 -5 -30 1 -4 5 -5 6 -3 23 1 11 2 55 2 99 l0
80 6 6 c6 6 7 6 20 5 8 0 16 1 22 3 4 1 15 5 24 9 19 6 26 6 33 -1z m-342 -5
c5 -6 5 -12 0 -18 -7 -8 -22 -2 -22 9 0 11 15 17 22 9z m626 -12 l5 -5 0 -90
0 -90 -5 -5 c-4 -2 -6 -6 -6 -7 0 -2 -1 -2 -3 -2 -1 1 -3 0 -4 -1 -1 -2 -2 -2
-4 0 -2 2 -3 -1 -3 -15 0 -13 0 -17 2 -17 2 0 0 -1 -4 -2 -7 -1 -7 -1 2 -2 18
0 29 -17 24 -37 -4 -14 -6 -46 -3 -51 1 -2 2 -46 3 -98 l1 -95 -6 -6 -6 -6
-37 2 c-55 4 -62 7 -62 28 0 10 1 12 6 17 3 3 7 6 9 6 5 0 28 11 32 16 10 11
11 14 11 96 0 42 0 78 0 80 -3 8 -6 19 -6 22 0 2 0 8 -1 13 -1 7 -1 11 1 12 3
2 -4 8 -15 12 -12 5 -21 13 -21 21 0 7 5 13 18 21 18 11 26 27 22 43 -3 13
-11 24 -21 32 -12 9 -15 15 -15 28 0 13 3 19 16 29 11 8 21 25 21 38 0 11 8
18 22 20 5 0 11 2 12 3 1 1 3 1 4 1 2 -1 3 0 3 2 0 2 1 1 1 -2 1 -4 3 -9 7
-11z m-1088 -45 c3 -3 4 -7 4 -14 0 -13 -6 -19 -19 -19 -13 0 -19 6 -19 19 0
7 1 11 4 14 7 8 23 8 30 0z m862 -26 l-5 -5 -4 4 -5 5 4 4 5 5 4 -4 5 -5 -4
-4z m-248 3 c3 -3 6 -7 6 -9 0 -2 1 -5 1 -7 0 -2 1 -5 2 -7 2 -11 8 -23 15
-34 9 -14 10 -23 4 -30 -3 -4 -7 -5 -12 -5 -9 0 -15 6 -22 23 -2 5 -9 14 -15
21 -17 16 -19 19 -19 32 0 9 1 11 6 16 5 5 7 6 17 6 10 0 12 -1 17 -6z m299
-65 c16 -8 27 -23 27 -40 0 -11 -6 -19 -15 -19 -3 0 -7 0 -9 -1 -16 0 -38 7
-43 15 -8 10 -7 32 1 41 8 9 25 11 39 4z m-527 -80 c1 -68 2 -70 18 -86 12
-13 14 -19 8 -30 -2 -5 -5 -10 -7 -10 -4 -2 -14 -18 -17 -27 -2 -5 -3 -8 -4
-8 -1 0 -2 -2 -3 -4 -1 -2 -2 -4 -3 -3 -1 1 -2 0 -2 -2 0 -4 0 -3 -2 0 -2 4
-10 12 -29 26 -6 4 -14 13 -20 19 -14 15 -41 42 -60 59 -19 17 -24 21 -36 33
-5 5 -16 14 -24 21 l-14 11 -14 0 c-19 -1 -20 -2 -45 -40 -10 -16 -19 -29 -20
-30 -4 -3 -47 -70 -56 -87 -6 -12 -16 -25 -22 -32 -11 -12 -16 -21 -21 -40 -4
-17 -9 -21 -27 -21 -19 0 -39 -2 -51 -5 -8 -2 -10 -2 -13 0 -1 2 -4 3 -5 3 -6
0 -11 10 -11 22 0 21 6 25 37 24 14 0 25 1 31 3 5 1 8 3 7 3 -2 0 -3 4 -3 15
0 23 2 22 -50 23 -42 1 -54 3 -54 8 0 1 -2 2 -3 2 -3 0 -3 1 -1 1 3 2 11 10
14 16 2 2 9 14 17 26 8 13 16 25 18 28 2 3 6 10 9 15 3 5 7 11 9 14 3 7 9 17
19 35 8 13 11 18 25 44 8 14 14 28 15 30 0 1 4 4 8 7 l7 5 182 1 182 1 5 -5 6
-4 0 -61z m98 67 c5 -5 5 -15 0 -20 -9 -9 -24 -2 -24 10 0 8 6 14 14 14 3 0 8
-2 10 -4z m772 -40 c8 -8 3 -16 -20 -36 -19 -16 -20 -17 -21 -31 -1 -11 0 -15
3 -15 1 0 8 -6 15 -13 7 -7 14 -13 15 -12 1 1 2 0 2 -1 2 -3 27 -4 30 -1 3 3
19 4 21 1 5 -8 43 -14 49 -7 5 4 8 4 12 -1 5 -6 5 -6 0 -11 -4 -6 -7 -6 -11
-2 -4 3 -30 4 -32 1 -1 -1 -2 -2 -3 -1 -1 1 -3 0 -4 -2 -1 -2 -4 -3 -5 -3 -1
0 -4 -1 -5 -3 -4 -5 -17 -4 -25 3 -7 5 -9 5 -26 5 -15 0 -19 -1 -22 -3 -2 -2
-5 -4 -7 -4 -6 0 -16 11 -16 16 -1 11 0 23 3 27 8 14 -1 20 -31 21 -24 0 -30
3 -30 15 0 8 7 15 22 23 7 4 13 8 14 9 0 0 1 1 2 1 1 0 10 4 20 10 32 17 44
20 50 14z m-730 -73 l-5 -5 -4 4 -5 5 4 4 5 5 4 -4 5 -5 -4 -4z m347 -23 c11
-10 3 -28 -11 -28 -9 0 -16 6 -16 16 0 14 17 22 27 12z m-1154 -33 c3 -3 3 -3
-1 -7 -3 -4 -4 -4 -7 -1 -3 3 -3 4 0 7 5 5 5 5 8 1z m1030 -10 l6 -6 0 -93 0
-93 -6 -6 c-6 -6 -6 -6 -24 -5 -13 0 -19 1 -26 5 -8 4 -10 4 -22 3 -8 -1 -14
-1 -15 -1 -1 1 -6 -4 -11 -12 -8 -10 -5 -34 6 -48 3 -5 4 -9 4 -21 0 -13 0
-15 -6 -19 -4 -4 -7 -5 -18 -5 -12 0 -14 1 -19 6 -6 6 -7 6 -21 6 -9 0 -16 -2
-18 -3 -12 -11 -23 -14 -30 -7 -14 13 5 34 20 23 10 -8 41 0 41 11 0 1 1 2 2
2 1 0 3 3 5 7 4 10 3 36 -2 44 -5 9 -4 20 4 35 4 7 9 22 12 34 6 22 10 27 23
33 4 2 7 4 8 5 1 1 4 3 8 6 21 15 31 37 30 72 -1 21 -1 21 5 27 6 6 7 6 22 6
15 0 16 0 22 -6z m-915 1 c5 -5 5 -15 0 -20 -10 -8 -24 -2 -24 10 0 8 6 14 14
14 3 0 8 -2 10 -4z m737 -13 c12 -12 3 -31 -13 -31 -11 0 -18 7 -18 18 0 11 7
18 18 18 6 0 9 -1 13 -5z m-379 -114 c1 -1 5 -7 8 -15 10 -19 13 -24 26 -30
15 -6 32 -5 50 4 7 4 16 9 21 12 12 6 20 6 36 -2 16 -8 35 -10 39 -5 3 2 4 2
8 -5 l6 -7 0 -39 c0 -55 3 -61 28 -62 8 -1 12 0 14 1 3 4 15 4 19 0 1 -2 4 -3
5 -3 1 0 2 -1 2 -3 0 -2 1 -3 2 -3 2 0 5 -11 7 -20 0 -5 0 -8 -3 -12 -4 -4 -5
-4 -12 -2 -11 3 -22 14 -22 21 0 4 -1 5 -1 3 -1 -3 -4 -4 -14 -4 -21 0 -24 -5
-25 -42 0 -27 -1 -33 -7 -39 -4 -4 -4 -3 -19 11 -8 8 -24 23 -34 32 -11 10
-22 20 -25 23 -3 3 -14 13 -23 21 -9 8 -19 17 -22 20 -10 10 -14 12 -26 12
-14 0 -22 -3 -26 -9 -18 -24 -30 -43 -30 -46 0 -5 -14 14 -15 21 -2 6 -18 22
-22 22 -4 0 -17 13 -17 18 0 5 13 18 17 18 4 0 21 17 21 22 0 2 1 4 2 5 3 2 2
20 -1 38 -6 32 -3 44 11 47 7 1 17 0 22 -3z m660 -51 c3 0 55 -30 60 -35 6 -5
8 -20 6 -30 -4 -14 -11 -19 -27 -20 -4 0 -19 -1 -33 -2 -33 -2 -33 -2 -40 38
-4 22 -3 31 2 40 3 6 17 11 25 10 2 -1 5 -1 7 -1z m-913 -17 c10 -4 24 -10 31
-12 25 -8 27 -16 13 -59 -17 -53 -39 -80 -50 -63 -3 4 -3 4 2 48 1 6 0 12 -1
15 -1 3 -1 5 -1 6 0 7 -21 30 -28 30 -1 0 -5 3 -8 6 -7 8 -8 24 -1 31 5 5 13
8 19 7 2 0 3 0 2 2 -1 3 -1 3 1 0 2 -1 12 -6 21 -11z m515 -14 l-5 -5 -4 4 -5
5 4 4 5 5 4 -4 5 -5 -4 -4z m628 -46 c6 -7 6 -22 0 -28 -4 -4 -7 -5 -15 -5 -8
0 -11 1 -15 5 -6 6 -6 21 0 28 7 8 23 8 30 0z m143 -50 c3 -5 3 -5 0 -10 -2
-3 -5 -5 -7 -5 -2 0 -5 2 -7 5 -3 5 -3 5 0 10 2 3 5 5 7 5 2 0 5 -2 7 -5z
m-268 -18 c4 -4 5 -7 5 -15 0 -14 -6 -20 -20 -20 -14 0 -20 6 -20 20 0 14 6
20 20 20 8 0 11 -1 15 -5z m123 -2 c2 4 2 4 2 0 0 -3 2 -7 6 -9 4 -5 5 -6 4
-16 0 -6 1 -14 3 -19 4 -9 14 -20 17 -18 1 1 2 0 3 -1 2 -4 58 -8 96 -6 24 1
25 1 24 -24 -1 -21 -3 -23 -27 -34 -9 -5 -17 -9 -18 -10 -1 -1 -6 -3 -12 -6
-10 -5 -14 -5 -56 -6 l-45 -1 -6 6 -6 6 0 62 0 62 6 5 c3 2 5 7 5 10 l1 5 1
-5 c0 -5 1 -5 2 -1z m-352 -26 c-1 -28 12 -40 45 -42 22 -1 30 -9 30 -28 0
-19 -8 -27 -30 -28 -17 -1 -28 -4 -35 -10 -2 -3 -8 -7 -11 -8 -4 -2 -8 -4 -8
-6 -1 -1 -12 -2 -47 -1 -47 0 -59 -1 -76 -8 -11 -5 -29 -14 -30 -16 -1 -1 -4
-3 -8 -6 -5 -3 -8 -6 -8 -6 0 -1 -4 -4 -10 -8 -16 -11 -34 -8 -41 6 -2 4 -4 8
-5 9 -1 1 -4 5 -7 9 -3 4 -12 9 -20 13 -19 9 -19 10 -29 30 -5 10 -10 17 -11
17 -5 0 7 9 13 11 3 0 15 1 28 1 29 1 56 3 81 8 18 4 23 5 48 13 13 4 59 27
59 29 0 1 2 2 4 3 4 1 28 24 28 26 0 3 14 12 22 14 6 2 7 1 13 -4 6 -6 6 -7 5
-18z m-455 -61 c10 -9 3 -26 -10 -26 -8 0 -15 7 -15 15 0 13 16 20 25 11z
m690 -33 c12 -7 14 -33 3 -43 -8 -9 -32 -9 -40 0 -9 8 -9 32 0 41 7 7 27 8 37
2z m-926 -10 c3 -5 3 -5 0 -10 -4 -5 -10 -7 -12 -3 -1 1 -3 3 -5 4 -4 1 -4 2
1 8 7 7 11 8 16 1z m-90 0 c13 -4 43 -24 43 -29 0 -7 -6 -22 -11 -25 -6 -5
-19 -4 -32 3 -14 7 -33 11 -44 8 -10 -2 -21 1 -25 6 -5 6 -5 24 0 30 6 8 50
13 69 7z m1121 -89 c5 -5 5 -15 0 -20 -10 -8 -24 -2 -24 10 0 8 6 14 14 14 3
0 8 -2 10 -4z m-1057 -22 c5 -5 6 -7 6 -16 0 -9 -1 -11 -7 -16 -7 -6 -28 -14
-42 -15 -22 -2 -22 17 1 40 7 7 14 13 17 13 11 2 19 0 25 -6z m971 -19 c3 -2
14 -24 21 -43 12 -32 4 -51 -22 -51 -12 0 -22 5 -25 12 -3 8 -10 53 -10 65 0
12 4 18 14 20 7 1 17 0 22 -3z m-200 -27 c5 -5 5 -11 0 -16 -10 -10 -27 5 -16
16 4 4 12 4 16 0z m-131 -41 c3 -5 3 -5 0 -10 -2 -3 -5 -5 -7 -5 -2 0 -5 2 -7
5 -3 5 -3 5 0 10 2 3 5 5 7 5 2 0 5 -2 7 -5z m355 -121 c5 -6 5 -12 0 -18 -7
-8 -22 -2 -22 9 0 11 15 17 22 9z m-132 -17 c17 -18 -12 -57 -42 -57 -15 0
-22 7 -22 22 0 5 1 12 2 15 5 9 25 21 45 26 5 1 13 -2 17 -6z m-165 -6 c4 -4
5 -7 5 -15 0 -14 -6 -20 -20 -20 -14 0 -20 6 -20 20 0 14 6 20 20 20 8 0 11
-1 15 -5z m396 -5 c2 -3 3 -8 3 -15 0 -12 -2 -16 -14 -23 -10 -7 -16 -13 -16
-18 0 -4 -1 -4 -2 3 -2 4 -3 7 -4 7 -1 0 -3 5 -5 10 -4 12 -3 29 3 36 7 9 28
8 35 0z m-1162 -42 c11 -10 3 -28 -11 -28 -9 0 -16 6 -16 16 0 14 17 22 27 12z
m243 -38 c5 -5 5 -11 0 -16 -10 -10 -27 5 -16 16 4 4 12 4 16 0z m1136 -20 c8
-8 8 -23 1 -36 -6 -13 -13 -16 -36 -17 -19 -1 -23 -1 -35 -4 -16 -4 -21 -3
-36 4 -12 6 -16 9 -18 14 -3 6 -3 7 1 12 4 5 15 9 32 10 19 1 47 9 51 15 4 4
14 8 24 8 9 0 11 -1 16 -6z m-1305 -20 c5 -5 6 -7 6 -16 0 -15 -8 -23 -23 -23
-9 0 -11 1 -16 7 -9 8 -9 23 -1 32 9 9 24 9 34 0z m7 -129 c3 -3 4 -7 4 -14 0
-13 -6 -19 -19 -19 -13 0 -19 6 -19 19 0 7 1 11 4 14 7 8 23 8 30 0z m-113
-28 c7 -4 10 -11 10 -23 0 -28 -16 -42 -35 -32 -25 13 -26 52 -2 58 9 2 22 1
27 -3z m1022 -20 c5 -8 1 -16 -8 -16 -9 0 -13 8 -8 16 2 3 5 5 8 5 3 0 6 -2 8
-5z"/>
</g>
</svg>
