<?xml version="1.0" standalone="no"?>
<!DOCTYPE svg PUBLIC "-//W3C//DTD SVG 20010904//EN"
 "http://www.w3.org/TR/2001/REC-SVG-20010904/DTD/svg10.dtd">
<svg version="1.0" xmlns="http://www.w3.org/2000/svg"
 width="1100.000000pt" height="2850.000000pt" viewBox="0 0 1100.000000 2850.000000"
 preserveAspectRatio="xMidYMid meet">
<metadata>
Created by potrace 1.15, written by Peter Selinger 2001-2017
</metadata>
<g transform="translate(0.000000,2850.000000) scale(0.500000,-0.500000)"
fill="#000000" stroke="none">
<path d="M404 3834 c-8 -1 -18 -8 -18 -11 0 -1 -1 -5 -3 -8 -2 -4 -3 -10 -4
-14 -2 -10 -6 -16 -15 -21 -17 -9 -28 -22 -32 -37 -2 -5 -19 -87 -21 -103 -1
-3 -2 -8 -3 -11 -1 -3 -3 -10 -4 -15 -4 -19 -10 -45 -14 -57 -2 -8 -7 -27 -11
-42 -13 -47 -35 -122 -50 -166 -4 -11 -10 -28 -13 -37 -10 -30 -48 -129 -57
-149 -1 -3 -8 -18 -14 -33 -26 -61 -69 -148 -95 -192 l-11 -17 2 -14 c0 -8 2
-18 3 -23 3 -11 0 -17 -9 -18 -24 -2 -33 -13 -27 -33 4 -14 25 -29 41 -29 7 0
23 5 23 8 0 1 2 4 5 6 2 3 7 12 10 21 5 15 11 25 16 25 4 0 45 18 51 22 6 4 6
5 6 20 0 17 -1 18 -9 23 -9 4 -15 12 -15 19 -1 15 0 16 16 32 8 8 18 19 23 24
8 9 14 12 26 13 11 1 16 -2 29 -15 7 -8 13 -12 16 -12 28 -1 22 -4 50 26 18
20 33 37 44 50 7 8 15 18 18 21 9 10 10 41 1 41 -5 0 -25 12 -27 16 -3 6 -2
17 2 22 2 3 8 7 14 9 9 3 10 3 13 0 4 -3 10 -17 8 -17 -1 0 1 -2 5 -5 6 -5 8
-5 21 -4 17 1 14 0 18 8 4 9 8 10 16 7 5 -3 7 -6 12 -19 17 -42 29 -85 36
-130 3 -17 5 -24 14 -42 6 -12 14 -29 18 -37 8 -19 17 -28 40 -39 21 -10 32
-14 50 -17 9 -2 15 -4 19 -8 l7 -6 -7 -6 c-3 -3 -10 -8 -16 -10 l-9 -5 -219
-1 -219 -1 -21 -10 c-28 -15 -36 -22 -39 -38 -1 -4 -1 -8 -2 -9 -1 -2 12 -38
18 -46 4 -5 9 -10 17 -13 l11 -6 55 -1 c40 0 57 0 64 2 5 2 10 3 11 2 0 0 1 1
1 2 0 1 1 2 3 2 2 0 3 1 3 2 0 1 1 2 3 2 1 0 5 3 9 7 10 10 17 14 29 14 11 0
23 -6 29 -12 3 -4 6 -4 18 -3 16 1 19 3 27 19 6 14 12 18 25 18 14 0 19 -4 27
-21 15 -32 20 -34 76 -34 l42 0 6 -6 c4 -3 6 -6 5 -7 -3 -3 -30 -100 -30 -108
0 -9 5 -22 13 -34 13 -20 8 -42 -12 -56 -25 -18 -37 -18 -79 1 -59 26 -141 53
-204 68 -19 4 -20 4 -33 1 -8 -2 -17 -5 -21 -8 -5 -3 -9 -5 -9 -5 -1 0 -4 -4
-7 -8 -5 -6 -6 -10 -6 -21 0 -14 0 -14 19 -35 20 -22 27 -30 33 -38 4 -5 9
-11 11 -13 2 -3 6 -7 9 -11 3 -4 6 -8 8 -10 2 -2 5 -6 7 -9 2 -3 5 -7 6 -8 6
-7 25 -33 48 -67 7 -9 13 -18 14 -19 2 -2 25 -39 32 -51 9 -15 13 -20 21 -28
5 -4 13 -11 18 -14 13 -9 16 -14 18 -39 2 -21 4 -27 19 -60 5 -11 11 -24 13
-29 8 -19 14 -32 21 -41 4 -5 8 -13 10 -18 3 -9 4 -13 6 -35 2 -25 25 -49 59
-63 60 -23 81 -26 123 -18 43 9 90 48 112 96 30 62 26 147 -8 186 -4 5 -13 13
-21 18 -22 15 -23 16 -21 40 1 20 -2 43 -7 43 -1 0 -2 2 -3 4 -2 4 -23 28 -33
37 -10 9 -22 13 -45 13 -19 0 -20 0 -25 6 -5 5 -6 7 -6 17 0 14 6 22 20 24 12
2 32 8 38 12 3 2 11 10 18 17 12 11 14 15 18 26 2 7 3 16 3 20 -1 9 1 20 3 19
1 -1 2 2 3 6 1 6 5 10 5 5 0 -5 21 -7 36 -3 8 2 14 7 56 49 l42 41 0 11 c0 15
-2 20 -11 26 -17 12 -22 21 -13 30 7 7 16 5 26 -4 5 -5 11 -10 14 -12 6 -5 23
-5 39 0 19 6 36 3 59 -11 5 -4 11 -7 11 -7 1 0 4 -2 7 -4 18 -13 35 -18 57
-18 7 0 13 -1 13 -2 0 -1 2 -2 4 -3 1 0 6 -6 9 -13 11 -20 25 -30 52 -41 9 -3
18 -8 23 -13 4 -4 14 -11 21 -15 12 -7 14 -7 26 -7 9 1 14 2 19 6 8 6 36 53
36 61 0 4 15 30 20 35 3 3 9 8 14 10 9 5 11 5 72 6 70 1 64 0 93 17 15 9 23 9
37 1 22 -13 25 -14 33 -14 4 0 10 1 12 3 5 4 13 20 13 27 0 2 1 4 4 4 3 0 3 1
0 1 -2 1 -4 2 -4 3 0 3 7 18 8 17 2 -1 12 14 15 22 1 1 2 3 3 3 1 0 2 1 2 3 0
6 -7 25 -9 25 -1 0 0 1 1 3 4 4 21 11 39 15 16 3 17 3 23 0 5 -4 6 -5 5 -9 -1
-3 -2 -8 -2 -11 -3 -14 -17 -33 -33 -44 -5 -4 -10 -8 -12 -9 -1 -2 -3 -3 -4
-3 -3 0 -11 -7 -11 -9 0 -2 -5 -5 -11 -5 -3 0 -4 -1 -1 -1 2 -1 3 -3 3 -10 0
-17 13 -29 32 -29 7 0 10 -1 14 -6 3 -3 5 -6 5 -6 0 -1 -1 -18 -2 -38 -1 -45
-3 -59 -6 -66 -3 -6 -9 -12 -9 -9 0 1 -5 6 -10 10 -6 4 -12 9 -14 11 -2 2 -8
7 -13 11 -11 9 -13 10 -32 26 -8 7 -17 14 -21 17 -4 3 -8 6 -10 8 -2 2 -6 5
-8 6 -15 13 -25 18 -34 18 -12 0 -24 -6 -31 -15 -3 -5 -7 -8 -7 -9 -1 0 -2 -1
-2 -2 0 -2 -2 -4 -3 -5 -5 -4 -6 -24 -2 -41 4 -15 2 -18 -12 -18 -14 0 -33 -5
-37 -9 -2 -2 -6 -8 -9 -12 -3 -4 -7 -8 -7 -9 -1 -1 -8 -10 -16 -21 -18 -24
-24 -30 -35 -33 -5 -1 -34 -2 -73 -2 -55 0 -65 0 -71 -3 -8 -4 -11 -8 -15 -16
-5 -12 -2 -19 13 -35 9 -9 15 -18 16 -21 7 -37 18 -48 45 -48 14 0 17 1 34 10
15 7 22 9 29 9 7 0 14 -2 29 -9 l19 -10 132 -1 132 0 5 -6 c4 -4 5 -7 4 -10
-1 -3 -2 -10 -3 -16 -1 -6 -2 -15 -3 -21 -1 -5 -3 -19 -5 -31 -6 -38 -10 -47
-27 -55 l-11 -6 -42 0 c-42 0 -52 -2 -54 -7 0 -2 -1 -10 -1 -17 -1 -14 -1 -15
3 -15 6 0 12 -9 12 -20 0 -11 -8 -24 -18 -30 -8 -5 -10 -10 -9 -27 1 -11 2
-14 7 -20 14 -18 28 -73 30 -119 1 -34 9 -48 30 -55 17 -6 110 -1 137 7 4 1
18 4 32 7 70 15 132 55 169 110 14 22 22 38 24 50 3 22 10 41 17 51 5 6 13 29
15 38 0 4 2 13 4 20 2 8 3 15 2 20 -1 4 -2 8 -2 10 -1 2 -2 5 -3 7 -1 2 -3 9
-5 15 -3 10 -3 11 1 19 2 5 5 10 7 11 9 7 13 20 16 42 3 35 3 50 -2 58 -10 19
-12 23 -13 32 -3 17 -10 32 -18 40 -21 18 -20 17 -20 27 0 4 2 12 4 17 4 9 9
26 12 39 2 12 12 20 15 12 1 -2 2 -2 6 -1 3 1 10 3 14 4 12 3 15 6 14 17 0 5
-2 10 -2 11 -1 0 -2 2 -3 4 0 2 -6 9 -13 15 -15 15 -15 15 -15 51 0 27 0 28 5
33 3 3 7 5 12 5 6 0 18 -4 21 -8 2 -3 14 -10 14 -9 0 1 1 0 3 -1 1 -1 7 -2 11
-3 11 0 22 6 38 21 12 11 15 16 16 28 1 16 -3 21 -28 42 -4 3 -10 8 -13 11 -3
3 -25 21 -49 41 -24 19 -44 36 -45 37 -6 5 -24 20 -28 23 -2 2 -5 4 -6 5 -1 1
-13 11 -25 22 -31 25 -32 29 -17 61 15 31 19 42 26 76 8 35 15 97 18 153 1 13
2 29 2 35 0 6 1 34 2 63 2 57 1 63 -10 70 -6 4 -27 9 -28 7 -1 -1 -5 -2 -10
-2 -13 0 -18 6 -16 20 3 29 0 40 -17 53 -10 7 -11 9 -12 16 0 6 1 9 4 12 6 6
12 6 36 2 16 -3 19 -3 29 0 12 3 30 11 35 16 2 1 5 3 8 4 7 2 26 14 38 23 14
11 18 18 18 31 0 19 -8 29 -39 44 -14 8 -19 11 -27 22 -13 17 -18 22 -41 40
-11 9 -21 17 -22 18 -1 1 -9 8 -17 14 -8 7 -16 13 -17 14 -1 1 -9 8 -18 15 -9
7 -19 15 -22 19 -13 11 -28 21 -34 22 -12 2 -39 -4 -39 -9 0 -1 -4 -3 -8 -4
-4 -1 -8 -3 -8 -4 0 -1 -2 -1 -4 -1 -2 0 -4 1 -4 3 0 1 -1 2 -2 1 -1 0 -1 2
-1 5 0 3 0 6 1 6 2 0 2 8 0 9 -2 1 -2 1 -1 -1 1 -3 1 -3 -1 0 -2 1 -10 4 -17
7 -18 5 -21 10 -21 28 -1 28 -9 40 -28 47 -16 5 -22 4 -47 -7 -18 -8 -21 -7
-35 7 -17 16 -24 19 -64 26 -52 9 -57 10 -66 6 -12 -6 -16 -16 -16 -41 0 -12
0 -14 -6 -19 -5 -5 -7 -6 -17 -6 -10 0 -12 1 -17 6 -7 7 -8 22 -2 33 2 3 3 9
3 13 -1 18 -1 20 -6 25 -5 5 -6 5 -14 4 -4 -1 -9 -1 -10 -2 -2 0 -3 0 -3 -1 0
-1 -1 -2 -2 -2 -4 0 -8 -5 -12 -14 -4 -9 -4 -8 -7 -112 -3 -79 -4 -88 -10 -88
-2 0 -3 -1 -3 -2 0 -1 -1 -1 -4 0 -2 1 -12 5 -23 9 -10 4 -36 14 -58 22 -22 8
-47 18 -55 21 -8 3 -26 10 -39 15 -36 13 -51 10 -61 -14 -2 -5 -2 -29 -2 -99
1 -82 1 -94 4 -99 6 -11 15 -18 31 -27 12 -6 15 -11 15 -24 0 -13 -3 -18 -15
-24 -15 -8 -25 -4 -33 14 -16 34 -23 46 -36 64 -18 24 -23 31 -33 42 -5 5 -9
10 -9 11 0 0 -7 1 -15 1 -16 0 -15 1 -36 -21 -2 -3 -6 -5 -8 -5 -20 -2 -30 5
-30 22 0 9 1 11 8 19 11 13 13 17 13 27 0 12 -3 19 -7 21 -2 0 -6 3 -9 5 -7 7
-30 22 -56 37 -22 13 -26 16 -27 20 -2 8 -1 11 7 20 12 15 18 31 17 40 -2 13
-9 24 -18 29 -6 4 -78 28 -99 33 -4 1 -96 28 -124 37 -9 2 -20 4 -23 4 -9 -1
-22 -7 -27 -13 -2 -3 -5 -7 -6 -8 -1 -2 -2 -4 -2 -5 0 0 -3 -4 -6 -7 -12 -12
-32 -4 -29 12 1 9 -2 24 -6 33 0 1 -1 3 -2 6 -1 2 -3 4 -6 4 -3 0 -5 1 -5 2
-1 0 -4 1 -8 0z m977 -180 c4 -6 4 -24 -1 -30 -7 -9 -27 -9 -34 0 -5 6 -5 24
0 30 7 9 27 9 35 0z m236 2 c3 -4 -7 -16 -31 -39 -41 -39 -44 -41 -57 -44 -13
-2 -39 7 -39 14 0 1 -1 4 -3 6 -2 2 -2 3 -1 3 1 0 5 6 8 13 8 15 10 17 35 23
10 3 25 8 33 11 29 13 52 18 55 13z m-314 -64 c16 -7 16 -43 0 -50 -8 -3 -42
-8 -54 -8 -8 0 -12 1 -15 4 -4 4 -6 17 -2 19 1 1 3 5 5 9 4 7 4 8 5 13 0 7 13
13 27 14 8 1 14 1 15 2 1 1 11 0 19 -3z m-597 -17 c4 -4 5 -7 5 -20 1 -8 0
-18 -1 -21 -2 -6 -10 -12 -15 -12 -14 0 -26 42 -15 53 7 7 20 7 26 0z m-284
-4 c12 -4 16 -11 16 -25 0 -12 -4 -18 -14 -20 -8 -2 -38 2 -49 7 -20 8 -10 29
18 38 11 4 18 4 29 0z m1185 -20 c3 -3 3 -3 0 -6 -3 -3 -3 -3 -6 0 -3 2 -3 3
-1 6 4 4 4 4 7 0z m-516 -11 c7 -6 7 -19 1 -25 -6 -7 -19 -7 -25 -1 -7 6 -7
19 -1 25 6 7 19 7 25 1z m465 -23 c14 -7 15 -24 1 -52 -11 -22 -11 -18 -9 -77
0 -24 -2 -30 -9 -37 -5 -4 -6 -4 -8 -2 -1 1 -6 5 -10 8 -4 3 -8 6 -9 7 -1 1
-12 8 -21 13 -31 18 -84 39 -113 44 -4 1 -7 2 -8 2 -5 3 -40 8 -46 7 -4 -1 -9
-2 -11 -3 -4 -1 -11 -6 -26 -17 -10 -8 -25 -9 -32 -1 -5 5 -5 6 -4 19 1 12 7
31 16 48 9 17 32 17 50 1 3 -3 11 -8 17 -11 l11 -5 64 -1 c68 0 75 0 86 9 7 5
19 28 19 35 0 14 25 22 42 13z m287 -18 c3 -5 3 -5 0 -10 -2 -3 -5 -5 -7 -5
-2 0 -5 2 -7 5 -3 5 -3 5 0 10 2 3 5 5 7 5 2 0 5 -2 7 -5z m-1218 -15 c4 -2
32 -70 35 -82 0 -1 2 -7 5 -14 8 -19 29 -92 34 -115 1 -2 3 -13 5 -24 4 -19 4
-25 0 -32 -3 -3 -4 -3 -13 2 -12 7 -27 7 -45 1 -8 -3 -17 -5 -20 -5 -8 0 -22
5 -22 7 0 8 -34 10 -42 2 -13 -12 -30 -14 -39 -5 -5 5 -6 6 -4 22 0 10 0 21
-1 25 -1 4 -2 11 -3 15 0 4 -1 11 -2 14 -1 5 0 8 4 15 8 13 11 17 12 20 1 2 3
5 5 8 2 3 6 10 9 16 4 6 11 19 16 28 12 22 25 45 40 76 12 22 17 30 21 30 0 0
3 -2 5 -4z m112 -29 c12 -12 3 -31 -13 -31 -11 0 -18 7 -18 18 0 11 7 18 18
18 6 0 9 -1 13 -5z m913 -34 l-5 -5 -4 4 -5 5 4 4 5 5 4 -4 5 -5 -4 -4z m-477
-57 c7 -6 7 -19 1 -25 -6 -7 -19 -7 -25 -1 -7 6 -7 19 -1 25 6 7 19 7 25 1z
m-235 -51 c13 -5 20 -20 16 -35 -3 -12 -5 -15 -15 -19 -21 -11 -51 -11 -61 0
-8 9 -9 31 -1 41 8 11 46 19 61 13z m731 -2 c3 -3 5 -6 5 -8 0 -2 2 -6 4 -10
2 -5 4 -9 4 -11 0 -3 6 -14 6 -11 0 1 2 -1 5 -4 3 -3 6 -5 7 -5 4 0 10 -14 11
-28 1 -7 3 -20 5 -28 7 -26 3 -36 -13 -36 -14 0 -17 5 -17 26 1 24 -2 37 -8
50 -5 10 -16 22 -16 19 0 -1 -1 0 -3 2 -2 2 -7 5 -12 8 -11 7 -13 10 -13 22 0
13 6 19 20 19 8 0 11 -1 15 -5z m-260 -1 c7 -6 7 -19 1 -25 -6 -7 -19 -7 -25
-1 -7 6 -7 19 -1 25 6 7 19 7 25 1z m-202 -27 c4 -2 15 -18 15 -22 0 -2 1 -3
2 -3 4 0 -2 -5 -9 -8 -3 -2 -7 -4 -9 -5 -5 -5 -22 -1 -27 6 -5 7 -4 22 2 28 5
5 18 7 26 4z m87 -20 c12 -5 18 -21 14 -35 -3 -11 -5 -15 -13 -24 -7 -8 -13
-20 -16 -30 -1 -6 -2 -6 -13 -6 -9 0 -12 1 -13 4 0 1 -1 0 -1 -3 -1 -21 -32
-30 -49 -14 -7 5 -10 19 -7 29 3 10 6 16 9 16 3 0 11 10 17 23 7 13 20 26 23
23 1 0 1 1 -1 3 -1 2 -2 3 -1 3 1 -1 5 1 9 3 17 9 21 11 29 10 4 0 10 -1 13
-2z m252 -33 c5 -5 6 -7 6 -17 0 -14 -6 -27 -14 -33 -11 -6 -26 -6 -33 1 -10
10 -5 45 8 52 3 1 11 3 17 3 9 0 11 -1 16 -6z m-1144 -1 c2 -2 4 -8 5 -13 2
-10 -4 -17 -16 -19 -4 -1 -8 -2 -10 -2 -1 -1 -4 1 -6 4 -5 8 -4 24 1 31 6 6
20 6 26 -1z m672 -31 c5 -5 6 -7 6 -17 0 -10 -1 -12 -6 -17 -5 -5 -7 -6 -17
-6 -10 0 -12 1 -17 6 -5 5 -6 7 -6 17 0 10 1 12 6 17 5 5 7 6 17 6 10 0 12 -1
17 -6z m-827 -9 c3 -5 3 -5 0 -10 -2 -3 -5 -5 -7 -5 -2 0 -5 2 -7 5 -3 5 -3 5
0 10 2 3 5 5 7 5 2 0 5 -2 7 -5z m734 -16 c3 -6 3 -34 3 -195 l0 -189 -5 -5
-6 -6 -8 5 c-8 5 -11 5 -23 4 -7 0 -16 -2 -20 -4 -20 -8 -33 5 -23 23 5 10 6
28 2 37 -2 4 -14 18 -28 31 -93 91 -89 84 -76 123 12 34 12 73 0 95 -5 8 -8
11 -18 16 -6 3 -16 6 -20 7 -14 3 -18 11 -12 24 5 11 12 11 34 0 11 -5 21 -10
23 -10 2 -1 8 -2 15 -4 17 -5 54 -5 70 0 21 6 42 17 56 29 11 10 27 27 27 30
0 4 6 -3 9 -11z m330 -60 c3 -3 9 -8 12 -10 21 -15 26 -24 20 -40 -4 -13 -4
-25 1 -38 6 -17 19 -27 43 -35 35 -11 59 -30 72 -57 5 -9 12 -20 16 -23 6 -6
28 -18 34 -18 1 0 5 -3 8 -6 5 -5 6 -8 6 -16 0 -12 -3 -15 -21 -27 -14 -9 -20
-16 -25 -30 -2 -7 -2 -9 2 -20 3 -8 6 -13 9 -14 3 -2 4 -3 2 -3 -2 0 -7 -2
-11 -4 -8 -5 -9 -5 -92 -6 l-84 -1 -6 6 -6 6 1 165 c1 137 1 166 4 171 1 3 3
5 4 5 1 0 2 2 2 5 0 4 1 4 1 0 1 -2 4 -7 8 -10z m-169 -23 c3 -3 4 -7 4 -18 0
-8 1 -21 3 -29 5 -22 4 -30 -3 -37 -5 -5 -7 -6 -17 -6 -10 0 -12 1 -17 6 -7 7
-8 21 -2 35 4 9 14 45 13 45 -1 0 1 2 3 4 4 4 12 4 16 0z m380 -6 c1 -2 2 -10
3 -17 1 -17 7 -28 22 -37 5 -3 11 -6 12 -6 0 0 6 -3 13 -6 14 -7 34 -13 45
-15 11 -2 16 -8 18 -20 1 -10 1 -10 -5 -15 -7 -5 -18 -6 -27 -2 -17 7 -34 8
-44 2 -13 -6 -24 -7 -29 -3 -4 3 -4 6 -4 19 1 16 -1 28 -4 28 -1 0 -2 1 -2 3
-1 2 -8 8 -16 14 -9 7 -16 13 -19 18 -2 4 -5 8 -5 9 -3 1 2 11 8 17 7 7 22 15
27 15 3 0 6 -2 7 -4z m159 -133 c3 -3 3 -3 0 -6 -3 -3 -3 -3 -6 0 -3 2 -3 4
-1 6 3 4 4 4 7 0z m33 -77 c1 0 5 -3 8 -6 l6 -5 -1 -41 c0 -45 -1 -46 -13 -46
-8 0 -13 5 -17 18 -2 6 -5 14 -6 17 -15 34 -14 55 1 62 5 2 8 2 22 1z m-942
-45 l-5 -5 -4 4 -5 5 4 4 5 5 4 -4 5 -5 -4 -4z m-536 -62 l-5 -5 -4 4 -5 5 4
4 5 5 4 -4 5 -5 -4 -4z m1563 -100 c12 -7 14 -33 3 -43 -8 -9 -32 -9 -40 0 -9
8 -9 32 0 41 7 7 27 8 37 2z m-616 -59 c10 -10 3 -26 -11 -26 -6 0 -9 1 -11 4
-11 16 9 35 22 22z m-461 -11 c5 -3 9 -9 11 -19 1 -7 -1 -17 -10 -40 -8 -19
-11 -21 -30 -23 -7 -1 -15 -3 -18 -4 -6 -3 -7 -3 -15 0 -5 2 -12 6 -17 10 -5
4 -9 7 -11 7 -3 0 -16 14 -16 18 0 9 12 16 17 10 3 -3 27 1 29 5 1 1 2 1 2 0
0 -5 10 9 13 17 4 14 6 17 12 20 12 4 23 4 33 -1z m967 -21 c5 -5 7 -20 3 -23
-1 -1 -2 -4 -3 -7 -1 -3 -2 -6 -3 -6 -1 0 -3 -1 -4 -1 -4 0 -14 6 -18 12 -5 6
-5 19 0 24 6 7 19 7 25 1z m12 -60 c14 -8 19 -14 19 -25 0 -13 -6 -19 -19 -19
-13 0 -19 6 -19 19 0 5 1 11 3 13 1 3 3 7 4 11 1 6 2 6 12 1z m114 -34 c10 -9
3 -26 -10 -26 -8 0 -15 7 -15 15 0 13 16 20 25 11z m-84 -69 c15 -13 21 -15
43 -16 29 -1 35 -6 35 -27 0 -19 -8 -27 -27 -27 -14 0 -20 4 -26 15 -3 4 -5 8
-6 8 -1 0 -2 1 -2 3 0 3 -14 13 -20 14 -3 1 -7 2 -9 3 -3 1 -14 1 -27 -1 -22
-2 -22 -2 -27 3 -9 9 0 17 30 29 18 7 24 7 36 -4z m-168 -5 c4 -6 4 -24 0 -30
-6 -6 -16 -8 -28 -5 -19 6 -26 7 -41 9 -13 1 -15 2 -18 6 -4 9 1 16 13 16 9 0
30 4 46 9 12 3 22 1 28 -5z m-1016 -111 c1 -1 3 -6 4 -11 2 -11 8 -30 9 -30 1
0 2 -1 2 -2 0 -1 2 -5 4 -8 3 -4 6 -11 7 -17 7 -27 1 -40 -18 -38 -14 2 -31
10 -34 18 -5 9 -5 25 1 34 9 14 16 35 16 47 0 3 3 10 6 10 0 0 1 -1 3 -3z
m1257 -35 c10 -9 9 -21 -2 -46 -4 -9 -7 -20 -8 -33 -3 -25 -6 -29 -21 -29 -13
0 -19 6 -19 18 0 5 1 11 2 13 10 19 12 27 10 60 0 10 0 12 5 17 9 9 24 9 33 0z
m-147 -58 c11 -10 3 -28 -11 -28 -9 0 -16 6 -16 16 0 14 17 22 27 12z m90
-101 c2 -2 3 -8 3 -14 0 -13 -6 -19 -20 -19 -14 0 -20 6 -20 20 0 12 4 18 15
20 10 2 18 -1 22 -7z"/>
<path d="M1022 2443 c-6 -2 -15 -8 -20 -11 -21 -18 -38 -17 -61 0 -11 8 -27 9
-34 3 -6 -5 -13 -24 -13 -33 0 -3 -3 -12 -7 -21 -10 -21 -9 -39 4 -45 7 -3 26
-3 37 1 10 3 20 1 38 -8 8 -4 13 -4 64 -5 61 0 75 1 77 9 2 8 2 31 0 31 0 0
-6 4 -12 8 -13 10 -14 12 -13 37 0 8 -5 24 -10 29 -10 11 -31 13 -50 5z"/>
<path d="M1404 2181 c-4 -1 -8 -3 -9 -4 -1 -1 -4 -3 -7 -5 -5 -4 -11 -16 -11
-23 0 -13 21 -19 39 -11 5 2 15 4 20 4 9 1 10 1 4 1 l-8 1 0 16 c0 16 -2 21
-7 21 -1 0 -5 1 -8 1 -3 1 -9 0 -13 -1z"/>
<path d="M1294 2155 c-4 -2 -9 -3 -12 -4 -3 0 -8 -4 -12 -7 -5 -5 -6 -7 -6
-18 0 -15 5 -19 20 -20 14 -1 22 4 29 18 2 5 3 9 2 9 -1 -1 -1 0 1 1 1 2 1 4
0 5 -1 0 -1 3 -1 6 1 3 0 5 -3 6 -2 1 -4 2 -4 3 0 3 -7 3 -14 1z"/>
</g>
</svg>
