<?xml version="1.0" standalone="no"?>
<!DOCTYPE svg PUBLIC "-//W3C//DTD SVG 20010904//EN"
 "http://www.w3.org/TR/2001/REC-SVG-20010904/DTD/svg10.dtd">
<svg version="1.0" xmlns="http://www.w3.org/2000/svg"
 width="600.000000pt" height="2850.000000pt" viewBox="0 0 600.000000 2850.000000"
 preserveAspectRatio="xMidYMid meet">
<metadata>
Created by potrace 1.15, written by Peter Selinger 2001-2017
</metadata>
<g transform="translate(0.000000,2850.000000) scale(0.500000,-0.500000)"
fill="#000000" stroke="none">
<path d="M80 2904 c-3 -1 -6 -1 -7 0 0 0 -1 0 -1 -2 0 -1 -1 -2 -3 -2 -4 0
-14 -12 -18 -21 -4 -11 -4 -91 0 -102 4 -9 14 -21 18 -21 2 0 3 -1 3 -2 0 0 2
-2 6 -2 3 -1 130 -1 283 -1 274 0 278 0 286 4 8 5 15 15 20 31 3 11 7 16 14
16 7 0 11 -5 14 -16 5 -16 12 -26 20 -31 7 -4 12 -4 105 -4 96 0 108 0 108 3
0 1 1 2 3 2 7 0 11 7 11 21 l1 13 -12 13 c-12 12 -18 16 -26 18 -2 1 -6 2 -9
2 -3 1 -17 2 -32 2 -27 0 -42 -3 -49 -9 -2 -2 -8 -3 -13 -3 -15 0 -23 8 -23
23 0 18 15 27 34 21 10 -4 32 -4 44 0 15 5 21 4 40 -5 4 -2 16 -3 25 -2 4 0 8
3 13 8 7 8 8 8 7 21 0 14 -4 21 -11 21 -2 0 -3 1 -3 2 0 3 -12 3 -102 3 l-91
0 -9 -6 c-10 -7 -19 -23 -21 -37 -2 -7 -6 -14 -11 -15 -1 -1 -5 -2 -6 -3 -2
-1 -7 -2 -10 -2 -3 0 -8 1 -10 2 -1 1 -5 2 -6 3 -5 1 -9 8 -11 15 -2 14 -11
30 -21 37 l-9 6 -104 1 c-76 0 -105 0 -111 -2 -12 -4 -19 -11 -27 -26 -9 -18
-13 -22 -23 -22 -10 0 -14 4 -23 22 -8 15 -15 22 -27 26 -8 2 -218 3 -226 0z
m495 -43 c3 -5 3 -5 0 -10 -2 -3 -5 -5 -7 -5 -2 0 -5 2 -7 5 -3 5 -3 5 0 10 2
3 5 5 7 5 2 0 5 -2 7 -5z"/>
</g>
</svg>
