<?xml version="1.0" standalone="no"?>
<!DOCTYPE svg PUBLIC "-//W3C//DTD SVG 20010904//EN"
 "http://www.w3.org/TR/2001/REC-SVG-20010904/DTD/svg10.dtd">
<svg version="1.0" xmlns="http://www.w3.org/2000/svg"
 width="1100.000000pt" height="2850.000000pt" viewBox="0 0 1100.000000 2850.000000"
 preserveAspectRatio="xMidYMid meet">
<metadata>
Created by potrace 1.15, written by Peter Selinger 2001-2017
</metadata>
<g transform="translate(0.000000,2850.000000) scale(0.500000,-0.500000)"
fill="#000000" stroke="none">
<path d="M1550 3788 c-21 -4 -52 -17 -79 -35 -24 -15 -31 -25 -29 -42 2 -16
15 -27 44 -37 19 -6 31 -13 35 -19 3 -4 5 -5 17 -5 8 -1 14 0 14 1 0 1 1 1 2
0 1 -1 3 0 5 2 2 2 3 3 3 2 0 -1 2 0 4 3 2 3 4 6 4 7 0 4 14 10 23 10 23 1 34
-14 29 -37 -3 -14 -14 -22 -28 -21 -9 0 -22 5 -22 7 0 1 -6 2 -14 2 -12 -1
-16 -1 -19 -5 -5 -6 -7 -18 -7 -37 1 -16 1 -18 -4 -23 -3 -4 -7 -7 -10 -8 -12
-4 -21 -17 -24 -38 -1 -8 -4 -18 -6 -24 -6 -12 -6 -33 -1 -43 7 -13 2 -33 -8
-35 -5 -2 -18 2 -24 6 -4 2 -5 5 -5 10 1 15 -12 33 -34 48 -9 5 -11 10 -13 23
-1 5 -3 14 -6 19 -9 19 -20 23 -49 21 -65 -5 -92 -7 -127 -7 -40 0 -55 5 -76
25 -3 3 -11 9 -17 13 -10 8 -10 8 -22 7 -24 -2 -33 -22 -31 -71 1 -25 4 -39
13 -59 18 -37 58 -80 90 -94 14 -6 33 0 44 15 4 5 10 11 13 12 7 4 22 5 31 1
5 -2 9 -2 20 0 8 1 14 3 13 4 -1 1 0 2 2 2 3 0 12 12 14 20 2 8 19 13 32 10 4
-1 13 -6 19 -11 7 -5 18 -11 24 -14 7 -3 14 -7 16 -9 4 -4 4 -5 0 -10 -1 -3
-4 -7 -5 -9 -2 -2 -7 -11 -13 -20 -15 -24 -13 -42 6 -50 16 -8 20 -9 25 -9 3
0 8 -2 11 -6 10 -10 8 -34 -4 -40 -15 -8 -47 -5 -67 6 -23 13 -37 10 -61 -15
l-16 -17 1 -12 c0 -17 3 -21 18 -29 7 -4 14 -10 16 -13 2 -3 8 -10 14 -14 13
-10 24 -10 37 0 4 3 8 7 8 8 0 1 4 6 9 10 l8 8 23 -1 22 -1 15 7 c11 6 18 11
31 25 24 24 41 44 42 47 1 6 10 -9 11 -18 1 -6 4 -79 3 -90 0 -1 -1 -12 -2
-25 -2 -21 -3 -24 -8 -28 -3 -3 -6 -5 -6 -5 -1 0 -9 1 -18 2 -9 0 -17 2 -18 2
-6 3 -36 -9 -41 -16 0 -2 -2 -3 -4 -3 -1 0 -3 -1 -3 -2 -2 -4 -16 -6 -20 -2
-3 2 -7 4 -9 5 -2 0 -3 2 -2 3 1 2 1 3 -18 3 -8 0 -14 0 -14 -1 1 -1 1 -2 0
-2 -1 0 -2 -3 -2 -6 0 -3 1 -6 2 -6 1 0 1 -1 0 -1 0 -1 1 -3 2 -4 2 -2 2 -4 2
-6 -1 -1 -1 -1 0 -1 1 1 5 -1 9 -5 4 -3 9 -7 11 -9 5 -4 11 -12 11 -14 0 0 7
-6 16 -12 44 -33 59 -50 71 -80 18 -44 29 -57 54 -68 10 -4 15 -5 30 -4 21 0
32 4 44 16 6 7 7 10 7 18 0 13 -5 19 -22 31 -16 11 -18 13 -18 28 0 10 1 12 6
17 3 3 7 6 9 6 19 1 28 -2 31 -11 8 -21 11 -28 13 -30 1 -2 4 -5 6 -8 9 -13
32 -10 46 5 7 8 15 27 15 36 0 17 -10 42 -21 53 -6 6 -25 17 -30 17 -1 0 -5 3
-8 6 -12 13 -4 38 12 38 9 1 25 4 32 7 5 3 5 4 5 13 0 5 0 10 1 12 1 1 0 2 -1
2 -1 0 -2 2 -2 4 0 3 -3 5 -14 9 -8 3 -16 5 -18 5 -2 0 -7 3 -10 6 -5 5 -6 7
-6 19 0 7 1 17 2 23 2 9 11 22 14 22 2 -1 23 9 27 14 3 2 6 8 9 13 l4 9 -2 85
c-1 47 -2 86 -3 87 0 0 3 4 6 7 6 6 7 6 27 6 12 0 24 1 27 2 20 5 37 7 42 3 8
-6 45 -10 45 -4 0 1 2 2 4 3 6 1 13 18 13 31 1 20 11 31 30 31 13 0 21 -4 25
-13 7 -14 10 -16 25 -16 16 0 19 1 21 8 10 25 2 60 -19 86 -14 16 -27 23 -49
28 -19 5 -26 7 -43 15 -12 6 -19 6 -44 -1 -11 -3 -21 -4 -33 -4 -12 0 -23 -1
-33 -4 -37 -9 -39 -3 -17 55 9 24 9 34 1 48 -6 11 -9 13 -20 13 -11 -1 -18 -3
-31 -13 -11 -8 -31 -7 -36 2 -3 3 -2 24 1 28 1 2 7 6 12 9 l9 5 1 15 c0 7 -1
14 -1 14 -1 0 -2 1 -1 2 0 3 -32 15 -45 17 -4 1 -10 2 -13 3 -16 5 -48 7 -65
4z m230 -261 c9 -2 22 -6 27 -7 22 -5 25 -9 30 -32 2 -11 2 -14 0 -14 -1 0 -4
-1 -5 -3 -1 -2 -4 -3 -6 -3 -5 0 -19 8 -23 12 -5 8 -17 15 -32 21 -22 8 -28
16 -19 27 4 5 8 5 28 -1z m-201 -32 c3 -5 3 -5 0 -10 -2 -3 -5 -5 -7 -5 -2 0
-5 2 -7 5 -3 5 -3 5 0 10 2 3 5 5 7 5 2 0 5 -2 7 -5z m64 -102 c8 -5 10 -10 9
-36 0 -17 1 -26 4 -35 5 -17 5 -33 0 -38 -10 -10 -28 -1 -43 23 -8 13 -12 71
-6 81 7 9 26 12 36 5z m-110 -19 c3 -3 4 -6 4 -19 0 -14 0 -16 -6 -20 -8 -7
-28 -7 -36 0 -11 9 -7 42 5 47 7 2 28 -3 33 -8z"/>
<path d="M680 3707 c-6 -3 -11 -9 -16 -20 -7 -14 -9 -16 -13 -12 -2 1 -3 4 -3
5 0 1 -1 2 -2 2 0 0 -2 3 -4 7 -4 11 -10 15 -25 16 -10 1 -13 0 -16 -3 -17
-15 -37 -24 -62 -29 -10 -2 -20 -3 -22 -4 -2 0 -8 -1 -14 -2 -5 -1 -15 -2 -21
-3 -20 -3 -126 -16 -158 -19 -26 -3 -28 -3 -57 -3 -26 -1 -29 0 -41 5 -15 6
-27 14 -44 29 -12 12 -12 12 -24 12 -20 0 -27 -7 -35 -36 -5 -17 -6 -57 -2
-71 5 -21 23 -54 37 -70 2 -2 4 -4 4 -5 0 -5 57 -56 63 -56 1 0 3 -1 5 -3 5
-5 31 -13 41 -13 5 0 12 1 16 3 8 3 19 13 19 17 0 1 1 2 2 2 1 0 2 1 2 3 0 1
1 4 3 7 1 3 4 9 5 13 3 10 9 14 24 13 25 -1 31 -1 38 3 5 2 8 4 8 5 -1 0 0 3
2 6 1 5 4 46 4 82 1 14 8 20 16 13 2 -1 6 -8 9 -15 4 -7 10 -18 14 -24 4 -6 7
-13 7 -15 0 -9 6 -25 12 -32 9 -10 19 -12 42 -8 42 8 68 13 73 15 16 7 26 19
31 38 2 9 9 18 13 18 10 0 19 -16 19 -33 0 -9 6 -25 11 -28 6 -5 30 -4 38 1 4
2 12 4 24 5 10 0 23 2 30 4 15 4 24 4 37 -1 12 -5 31 -6 38 -2 7 4 15 13 20
24 11 20 5 41 -17 70 -15 19 -68 66 -75 66 -1 0 -2 1 -2 2 -2 3 -30 18 -39 20
-9 2 -11 2 -15 1z"/>
<path d="M602 3497 c-1 0 -7 -1 -14 -1 l-14 -1 -3 -11 c-9 -29 -16 -38 -28
-38 -42 1 -49 -1 -62 -21 -5 -7 -8 -13 -8 -13 1 0 0 -1 -1 -3 -2 -2 -3 -12 -4
-30 -1 -23 -2 -27 -6 -32 -2 -4 -6 -7 -9 -8 -2 -1 -11 -2 -19 -4 -16 -3 -26
-9 -34 -19 -25 -34 -107 -120 -146 -154 -9 -8 -19 -16 -22 -19 -3 -2 -11 -9
-19 -15 -8 -6 -14 -11 -15 -12 -1 -1 -15 -12 -32 -25 -17 -12 -34 -26 -38 -29
-4 -3 -15 -10 -25 -15 -10 -5 -19 -11 -21 -12 -2 -1 -7 -5 -13 -8 -5 -3 -13
-7 -16 -9 -3 -2 -10 -6 -14 -8 -10 -5 -18 -13 -22 -20 -4 -7 -4 -24 -1 -29 4
-7 15 -13 26 -16 20 -4 70 8 80 20 5 6 10 21 11 35 2 23 7 30 25 31 14 1 22
-3 29 -12 15 -20 21 -24 36 -26 9 -1 12 -1 30 8 11 5 20 9 21 9 2 0 5 2 7 5 5
5 5 7 4 19 0 8 -3 18 -5 23 -2 5 -4 10 -3 12 1 8 21 17 45 21 l13 3 12 -9 c6
-5 12 -9 13 -9 1 0 2 -1 3 -1 1 -1 7 -2 13 -2 10 0 12 1 23 9 7 5 18 13 25 18
18 12 47 36 65 52 9 8 17 15 19 17 2 2 6 9 8 16 7 23 19 34 35 33 24 -2 24 -3
37 -17 l10 -10 13 0 c13 0 15 0 25 8 12 9 20 10 26 4 5 -5 5 -14 1 -19 -2 -3
-9 -7 -14 -10 -12 -6 -13 -6 -11 -23 1 -14 2 -16 17 -26 10 -7 12 -13 14 -36
1 -22 2 -24 19 -55 5 -9 10 -19 12 -23 9 -22 33 -49 59 -66 48 -32 100 -27
139 12 22 22 33 48 33 81 0 47 -21 89 -65 133 -19 19 -25 23 -36 26 -12 3 -22
0 -33 -8 -31 -25 -55 -15 -44 18 6 18 3 34 -9 45 -8 7 -35 19 -75 35 -25 9
-29 12 -30 18 0 5 2 12 5 14 1 1 5 7 11 14 8 11 9 13 9 24 0 6 -1 12 -2 13 -1
1 -2 2 -1 3 1 1 0 2 -1 3 -1 0 -4 5 -7 10 l-5 9 4 5 c4 4 5 4 9 3 3 -1 5 -1 5
-1 0 1 1 1 2 0 5 -5 42 1 42 7 0 1 6 10 13 20 14 22 14 22 14 36 0 10 -1 13
-5 17 -13 13 -51 14 -73 1 -25 -15 -36 -15 -42 -1 -4 9 -13 19 -15 16z m-39
-156 c5 -8 1 -16 -8 -16 -9 0 -13 8 -8 16 2 3 5 5 8 5 3 0 6 -2 8 -5z m-69
-50 c2 -3 8 -10 13 -16 5 -5 10 -13 12 -16 4 -10 10 -36 7 -37 -1 0 -2 -1 -1
-2 1 -2 -7 -10 -9 -9 -1 1 -2 0 -2 -1 -1 -2 -28 3 -37 7 -13 6 -29 50 -26 68
1 8 8 21 11 23 4 2 27 -10 32 -17z m313 -225 c7 -3 12 -13 12 -25 0 -19 -9
-28 -28 -28 -19 0 -28 9 -28 28 0 24 19 34 44 25z"/>
<path d="M1216 3147 c-13 -13 -42 -40 -48 -44 -6 -5 -11 -20 -13 -39 -1 -15
-3 -16 -28 -15 -25 1 -20 3 -50 -18 -9 -6 -21 -15 -27 -18 -12 -8 -16 -16 -16
-31 0 -11 2 -14 13 -19 6 -4 27 -5 37 -2 30 8 79 24 100 33 28 13 38 18 47 25
10 7 20 17 17 17 -4 0 18 8 32 12 18 4 28 9 44 20 13 9 18 17 18 32 0 11 -1
12 -6 16 -8 6 -22 9 -39 10 -17 0 -20 2 -27 14 -9 15 -15 18 -30 18 -13 0 -13
0 -24 -11z"/>
<path d="M1164 2719 c-15 -6 -21 -11 -29 -27 -4 -9 -5 -12 -4 -20 3 -21 4 -23
33 -53 15 -15 33 -36 40 -45 6 -9 13 -18 14 -19 1 -2 12 -18 24 -37 13 -19 28
-41 34 -49 44 -55 95 -70 146 -43 15 8 20 16 26 38 8 30 5 48 -9 62 -4 4 -8 8
-9 8 -1 0 -3 3 -5 6 -5 9 -5 26 0 33 5 8 4 29 -3 36 -5 5 -18 9 -34 9 -14 0
-19 4 -21 19 -3 33 -11 44 -40 55 -34 13 -48 14 -63 3 -4 -2 -11 -6 -15 -8 -8
-3 -8 -3 -16 1 -4 2 -7 5 -7 6 0 5 -17 18 -26 22 -10 3 -30 5 -36 3z m189
-185 c5 -5 6 -7 6 -16 0 -15 -8 -23 -23 -23 -9 0 -11 1 -16 7 -9 8 -9 23 -1
32 9 9 24 9 34 0z"/>
<path d="M1909 2626 c-26 -12 -42 -45 -31 -64 2 -5 4 -8 3 -8 -1 0 -1 -1 0 -2
2 -1 2 -2 0 -6 -4 -5 -12 -5 -24 0 -7 3 -22 3 -34 -1 -14 -4 -83 -62 -86 -72
-2 -4 -2 -7 -2 -7 1 0 -8 -13 -12 -17 -1 -1 -6 -3 -12 -5 -12 -3 -33 -12 -37
-16 -7 -7 -78 -60 -107 -79 -8 -6 -15 -11 -16 -12 -2 -1 -6 -5 -11 -8 -5 -3
-11 -10 -15 -15 -10 -16 -18 -21 -36 -26 -15 -4 -28 -10 -52 -25 -6 -4 -14 -8
-16 -8 -4 -2 -14 -12 -15 -15 -3 -24 -2 -30 10 -40 11 -9 17 -21 19 -36 0 -6
0 -12 -1 -12 0 0 -2 -2 -3 -4 -2 -6 -4 -6 -23 -2 -16 3 -37 10 -43 15 -2 2 -7
10 -12 17 -14 22 -28 26 -52 17 -21 -7 -41 -11 -63 -11 -11 0 -21 0 -22 -1 -3
-2 -13 8 -16 17 -6 16 -25 22 -57 18 -24 -3 -39 -13 -43 -29 -2 -7 -2 -14 0
-33 6 -58 21 -88 70 -136 26 -26 57 -47 89 -62 34 -16 56 -18 80 -8 17 7 21
12 30 31 9 19 12 22 28 27 18 6 22 8 46 23 l19 13 0 16 c0 15 0 15 -8 25 -5 5
-8 12 -8 15 0 3 -1 7 -1 9 -1 4 3 13 7 16 3 3 19 1 26 -3 2 -1 6 -7 10 -13 l7
-11 16 0 c17 -1 17 -1 18 4 2 7 10 24 14 28 1 3 7 4 17 5 7 0 16 2 18 3 3 2 5
2 5 2 0 -3 13 5 25 15 l15 13 2 15 c1 8 2 15 1 15 -1 0 -3 2 -5 4 -5 4 -6 4
-28 7 -27 4 -31 7 -31 25 0 22 20 27 49 12 10 -5 28 -27 26 -30 -1 -1 0 -2 1
-3 1 -1 2 -2 1 -3 0 0 2 -1 5 -1 3 0 6 0 6 1 0 1 1 2 3 1 15 0 18 1 31 14 13
12 13 12 14 25 0 13 0 13 -7 19 -3 3 -8 6 -9 6 -2 0 -8 1 -15 2 -19 2 -29 10
-29 23 0 12 5 19 18 25 20 10 41 7 46 -6 1 -3 6 -9 12 -15 9 -9 10 -10 22 -10
6 0 12 1 12 2 0 1 1 2 3 2 3 0 37 37 55 62 3 4 7 8 9 11 2 2 5 6 7 8 4 5 13
23 18 35 4 9 10 18 17 24 25 21 37 39 39 58 1 14 -4 30 -8 30 -1 0 -2 3 -2 8
0 8 -1 7 20 9 17 1 29 12 39 35 8 16 8 28 2 40 -6 12 -22 15 -38 8z m-168
-185 c13 -6 17 -16 13 -34 -3 -14 -18 -20 -27 -11 -4 4 -5 7 -5 20 0 14 1 16
6 22 3 3 5 6 5 6 0 0 4 -1 8 -3z m-542 -279 c0 -2 -1 -5 -3 -7 -4 -3 -5 -3 -7
0 -3 3 -3 3 0 8 4 5 8 5 10 -1z"/>
</g>
</svg>
