<?xml version="1.0" standalone="no"?>
<!DOCTYPE svg PUBLIC "-//W3C//DTD SVG 20010904//EN"
 "http://www.w3.org/TR/2001/REC-SVG-20010904/DTD/svg10.dtd">
<svg version="1.0" xmlns="http://www.w3.org/2000/svg"
 width="1100.000000pt" height="2850.000000pt" viewBox="0 0 1100.000000 2850.000000"
 preserveAspectRatio="xMidYMid meet">
<metadata>
Created by potrace 1.15, written by Peter Selinger 2001-2017
</metadata>
<g transform="translate(0.000000,2850.000000) scale(0.500000,-0.500000)"
fill="#000000" stroke="none">
<path d="M1765 3843 c-25 -12 -78 -43 -83 -49 -1 -1 -4 -3 -7 -5 -7 -5 -18
-13 -39 -31 -88 -75 -147 -180 -168 -297 -9 -52 -10 -114 -3 -151 20 -101 96
-166 191 -163 23 1 46 5 56 10 16 8 22 17 29 43 5 18 8 20 26 22 27 3 35 6 44
15 14 14 23 43 24 76 3 96 -61 175 -176 217 -27 10 -29 14 -19 41 19 49 64
104 117 143 7 5 12 9 13 10 1 1 5 4 10 7 5 3 11 7 14 9 3 2 9 5 15 8 27 14 35
36 21 59 -10 16 -11 18 -17 26 -11 14 -30 18 -48 10z m-76 -481 c7 -6 7 -19 1
-25 -6 -7 -19 -7 -25 -1 -7 6 -7 19 -1 25 6 7 19 7 25 1z"/>
</g>
</svg>
