<?xml version="1.0" standalone="no"?>
<!DOCTYPE svg PUBLIC "-//W3C//DTD SVG 20010904//EN"
 "http://www.w3.org/TR/2001/REC-SVG-20010904/DTD/svg10.dtd">
<svg version="1.0" xmlns="http://www.w3.org/2000/svg"
 width="1110.000000pt" height="2870.000000pt" viewBox="0 0 1110.000000 2870.000000"
 preserveAspectRatio="xMidYMid meet">
<metadata>
Created by potrace 1.15, written by Peter Selinger 2001-2017
</metadata>
<g transform="translate(0.000000,2870.000000) scale(0.500000,-0.500000)"
fill="#000000" stroke="none">
<path d="M516 3740 c-11 -5 -18 -12 -22 -24 -3 -9 -3 -209 0 -220 4 -12 10
-16 24 -17 7 -1 12 -3 12 -4 0 -1 1 0 3 2 4 8 19 3 19 -7 0 -10 -15 -15 -19
-7 -2 2 -3 3 -3 2 0 -1 -5 -3 -12 -4 -14 -1 -20 -5 -24 -17 -1 -5 -2 -70 -2
-238 l0 -231 6 -21 c7 -26 7 -30 0 -56 l-6 -21 0 -248 c0 -274 0 -264 -13
-278 -15 -16 -39 -44 -47 -55 -17 -23 -2 -56 24 -53 12 1 20 4 27 11 11 10 15
12 27 12 9 0 11 -1 16 -6 6 -6 6 -6 5 -25 -1 -21 2 -35 10 -43 3 -3 16 -11 30
-19 15 -7 43 -23 64 -35 63 -36 68 -38 75 -38 12 0 21 4 28 11 5 5 42 65 42
68 0 1 3 6 7 11 3 6 8 14 9 18 2 4 6 8 13 11 l10 5 114 0 c111 0 114 0 122 4
8 4 21 18 21 23 0 1 3 5 6 9 l6 7 6 -7 c3 -4 6 -8 6 -9 0 -5 13 -19 21 -23 8
-4 9 -4 289 -4 245 0 282 1 289 3 4 2 9 3 10 4 9 2 12 5 25 17 26 26 28 54 5
76 -10 11 -64 56 -85 72 -3 3 -7 6 -9 7 -1 1 -6 5 -10 8 -4 3 -9 7 -11 8 -11
9 -28 23 -33 26 -3 2 -7 5 -8 6 -1 1 -6 5 -10 8 -8 6 -12 9 -19 15 -2 2 -7 6
-11 9 -5 3 -16 14 -26 23 l-17 17 -16 0 c-13 0 -16 -1 -19 -4 -2 -2 -11 -16
-21 -30 -17 -24 -30 -41 -34 -46 -1 -1 -9 -13 -19 -27 -9 -14 -21 -31 -27 -38
-5 -7 -10 -14 -11 -16 -1 -2 -6 -6 -11 -8 l-9 -5 -258 -1 -258 -1 -6 6 -6 6 0
36 c0 22 -1 43 -3 54 -3 16 -3 19 1 38 2 16 3 33 3 97 0 94 0 93 -29 98 -6 1
-12 1 -12 0 -1 -1 -7 -2 -14 -2 -11 0 -14 1 -18 5 -6 4 -6 6 -6 20 0 14 0 16
6 20 4 4 7 5 18 5 7 0 13 -1 14 -2 1 -2 22 1 29 4 12 7 11 -26 12 433 l1 418
5 8 c3 3 5 7 6 6 2 0 16 8 16 9 0 1 1 2 2 2 11 0 43 55 41 70 -3 17 -10 27
-23 32 -8 4 -35 7 -163 19 -7 1 -21 2 -33 3 -12 1 -26 2 -32 3 -6 1 -29 3 -52
5 -49 5 -44 5 -58 0z m86 -161 c3 -3 4 -7 4 -14 0 -13 -6 -19 -19 -19 -13 0
-19 6 -19 19 0 7 1 11 4 14 7 8 23 8 30 0z m74 -115 c5 -5 6 -7 6 -17 0 -16
-7 -23 -23 -23 -16 0 -23 7 -23 23 0 16 7 23 23 23 10 0 12 -1 17 -6z m-43
-1020 c4 -6 4 -24 -1 -30 -7 -9 -27 -9 -34 0 -5 6 -5 24 0 30 7 9 27 9 35 0z"/>
</g>
</svg>
