<?xml version="1.0" standalone="no"?>
<!DOCTYPE svg PUBLIC "-//W3C//DTD SVG 20010904//EN"
 "http://www.w3.org/TR/2001/REC-SVG-20010904/DTD/svg10.dtd">
<svg version="1.0" xmlns="http://www.w3.org/2000/svg"
 width="1102.000000pt" height="2870.000000pt" viewBox="0 0 1102.000000 2870.000000"
 preserveAspectRatio="xMidYMid meet">
<metadata>
Created by potrace 1.15, written by Peter Selinger 2001-2017
</metadata>
<g transform="translate(0.000000,2870.000000) scale(0.500000,-0.500000)"
fill="#000000" stroke="none">
<path d="M920 3637 c-24 -8 -28 -8 -40 -3 -13 6 -32 6 -39 1 -15 -11 -26 -14
-36 -9 -6 4 -25 2 -33 -2 -5 -3 -10 -8 -13 -14 -6 -12 -12 -17 -23 -21 -17 -6
-24 -2 -24 15 0 12 -6 28 -13 33 -4 3 -8 4 -25 4 -17 0 -20 -1 -31 -6 -33 -16
-42 -62 -18 -85 8 -8 22 -13 44 -18 20 -4 30 -8 45 -19 23 -16 36 -20 53 -16
2 0 5 1 6 1 2 0 5 2 9 5 6 5 6 6 3 11 -7 13 10 27 18 15 3 -5 3 -6 -1 -14 -3
-5 -6 -9 -7 -9 -3 0 0 -32 3 -34 2 -1 19 -10 38 -20 35 -17 88 -47 90 -50 1
-3 22 0 29 3 7 4 14 12 22 30 7 14 17 25 29 31 5 3 14 8 19 13 13 11 21 15 30
15 14 0 25 -17 18 -26 -7 -8 -15 -33 -16 -53 -1 -16 -4 -22 -16 -29 -5 -4 -12
-8 -14 -10 -2 -2 -4 -4 -5 -4 -1 0 -2 -6 -2 -13 0 -8 -1 -14 -1 -15 -1 -1 21
-22 23 -22 1 0 4 -2 7 -5 14 -12 19 -14 42 -15 12 0 24 -1 26 -1 7 -2 17 -13
20 -25 5 -16 18 -44 24 -50 2 -2 10 -9 18 -15 8 -6 19 -15 25 -21 13 -13 23
-19 43 -30 19 -10 27 -10 52 -1 l16 6 15 -8 c29 -14 38 -13 65 5 23 15 43 37
47 53 2 5 2 16 1 30 -1 25 -1 28 11 43 5 7 10 15 11 21 0 1 1 5 2 8 1 8 -6 16
-16 18 -17 3 -22 3 -26 0 -8 -6 -23 -2 -31 7 -1 2 -3 4 -4 3 -3 -2 -2 3 2 8
10 13 16 17 25 15 1 0 6 1 11 2 19 5 27 22 18 41 -2 5 -4 9 -4 10 0 2 -18 31
-23 37 -2 3 -5 8 -7 10 -14 22 -33 30 -50 21 -7 -4 -16 -22 -21 -46 -2 -11 -9
-15 -24 -15 -22 0 -29 13 -26 47 1 9 2 20 2 25 0 5 2 14 4 21 7 24 -2 43 -27
55 -22 10 -27 11 -43 12 -16 0 -16 0 -24 9 -7 8 -7 8 -21 8 -12 0 -15 -1 -16
-4 -1 -1 -3 -3 -4 -2 -1 1 -2 1 -2 0 0 -1 -1 -5 -3 -9 -5 -13 -4 -19 6 -23 9
-5 27 -8 31 -6 10 7 18 -1 18 -17 -1 -16 5 -33 13 -41 11 -11 13 -15 13 -27 0
-9 -1 -11 -6 -16 -5 -6 -7 -6 -22 -6 -21 0 -32 -3 -47 -13 -10 -6 -15 -7 -23
-8 -16 0 -21 4 -29 19 -4 8 -6 14 -5 14 1 0 2 1 2 3 0 2 1 3 2 2 2 -1 4 5 7
28 4 26 5 46 2 60 -2 7 -3 16 -2 23 2 22 -5 39 -20 44 -14 4 -94 14 -137 17
-18 1 -20 1 -40 -6z m18 -111 c1 0 5 -3 8 -6 5 -5 6 -7 6 -18 0 -11 -1 -13 -6
-18 -6 -6 -7 -6 -18 -6 -11 0 -12 0 -18 6 -5 5 -6 7 -6 17 0 14 3 20 12 24 5
2 8 2 22 1z m417 -175 c8 -9 8 -9 1 -22 -14 -22 -58 -37 -73 -24 -10 8 -9 34
1 41 13 9 44 17 58 14 4 -1 9 -5 13 -9z m-5 -106 c3 -3 4 -7 4 -14 0 -13 -6
-19 -19 -19 -13 0 -19 6 -19 19 0 7 1 11 4 14 7 8 23 8 30 0z"/>
<path d="M550 3160 c-19 -1 -52 -11 -72 -22 -11 -6 -23 -18 -21 -21 1 0 1 -1
0 -1 -5 0 -7 -18 -4 -30 6 -19 10 -23 54 -43 3 -2 21 -10 39 -19 39 -18 40
-19 54 -16 15 3 48 13 65 19 8 3 14 8 12 10 -2 2 15 -3 23 -7 6 -2 10 -6 13
-11 5 -9 5 -12 0 -25 -11 -31 -8 -48 11 -58 17 -9 26 -8 47 3 19 11 33 12 44
6 11 -5 15 -23 8 -42 -10 -29 3 -47 54 -72 18 -9 31 -19 38 -30 3 -4 5 -5 16
-5 13 0 22 4 28 13 2 3 10 8 18 12 15 7 28 18 26 21 -1 1 0 2 1 2 2 0 2 5 1
17 -1 16 -1 17 4 22 11 11 31 4 31 -12 0 -9 -3 -15 -13 -24 -3 -3 -6 -6 -5 -7
0 -1 -1 -2 -2 -2 -5 0 -6 -27 -1 -30 1 -1 2 -10 1 -19 0 -2 -4 -9 -9 -14 -7
-9 -9 -13 -10 -21 -2 -11 2 -24 6 -24 1 0 3 -1 3 -2 1 -2 34 -22 48 -28 23
-11 24 -11 71 -11 l45 0 5 5 c8 7 11 15 11 26 0 11 0 11 -13 24 -8 7 -16 15
-19 16 -7 5 -36 16 -40 16 -15 0 -35 5 -39 10 -3 3 -5 6 -5 7 0 8 27 20 50 22
11 2 13 1 32 -10 16 -10 29 -10 44 0 18 12 21 13 35 13 33 -1 47 11 47 38 0
14 -4 32 -6 31 -1 -1 -2 0 -2 1 0 1 -7 2 -15 2 -15 0 -16 0 -17 4 0 4 0 4 11
4 l12 -1 1 10 c3 35 -34 90 -87 130 -15 11 -27 19 -28 19 -1 0 -3 1 -5 3 -3 3
-35 19 -59 30 -9 5 -13 5 -21 4 -13 -1 -32 -12 -32 -18 0 -1 -2 -4 -5 -7 -5
-4 -7 -4 -18 -3 -13 1 -21 6 -24 14 -14 44 -23 52 -64 51 -23 0 -25 0 -44 7
-25 9 -39 12 -54 10 -10 -1 -15 -3 -37 -12 -11 -5 -28 -3 -37 4 -24 19 -42 23
-74 18 -5 -1 -8 0 -10 2 -2 2 -4 2 -7 1 -1 -1 -5 -1 -7 0 -5 1 -82 1 -103 0z
m134 -46 c5 -5 6 -7 6 -18 0 -11 -1 -13 -6 -18 -4 -4 -7 -8 -7 -9 0 -6 -26 3
-32 12 -2 2 -3 8 -3 16 0 10 1 12 6 17 5 5 7 6 18 6 11 0 13 -1 18 -6z m90
-76 c7 -7 2 -19 -8 -19 -6 0 -12 5 -12 10 0 10 13 16 20 9z m283 -7 c6 -7 6
-9 2 -15 -6 -8 -19 -3 -19 8 0 4 7 12 10 12 2 0 5 -2 7 -5z m107 -112 c16 -11
31 -15 45 -12 15 4 31 -4 31 -15 0 -25 -20 -34 -43 -20 -18 12 -31 16 -46 13
-19 -5 -29 3 -29 20 0 22 20 29 42 14z"/>
<path d="M652 2572 c-11 -3 -16 -9 -23 -23 -8 -16 -13 -22 -16 -19 -4 3 -13 2
-18 -1 -3 -2 -5 -3 -5 -2 0 2 -8 -5 -20 -17 l-12 -12 -13 0 c-11 0 -14 1 -18
5 -6 4 -6 5 -6 25 -1 15 -2 22 -5 30 l-4 9 -12 1 c-12 0 -22 -3 -45 -17 -14
-8 -23 -15 -23 -19 0 -1 -1 -2 -2 -2 -1 0 -3 -4 -5 -9 -5 -14 1 -32 15 -43 6
-5 65 -29 77 -31 2 -1 7 -2 10 -2 26 -5 36 -8 45 -16 11 -10 23 -13 40 -9 7 2
12 8 12 15 0 9 8 20 14 20 5 0 12 -5 12 -9 0 -2 -7 -17 -8 -18 -1 -1 -2 -7 -2
-15 -1 -12 0 -14 4 -19 16 -17 56 -19 70 -3 7 8 12 33 8 38 -4 5 -3 26 1 33 9
12 33 13 44 2 5 -6 6 -6 4 -23 0 -9 -2 -23 -3 -31 -1 -8 -2 -18 -3 -21 0 -3
-2 -10 -5 -15 -5 -11 -6 -30 -1 -37 1 -3 7 -7 11 -10 5 -2 16 -8 24 -13 8 -5
17 -10 20 -11 3 -2 7 -5 10 -7 3 -1 11 -6 17 -10 11 -6 74 -47 78 -50 1 -1 9
-7 17 -13 8 -5 18 -13 23 -16 4 -3 8 -6 9 -7 1 -1 6 -5 13 -10 7 -5 13 -10 14
-11 2 -1 4 -3 6 -5 2 -2 9 -7 14 -11 9 -7 17 -14 38 -33 5 -4 12 -10 16 -14
11 -10 26 -16 44 -17 8 0 21 -2 28 -3 8 -1 20 -2 27 -2 15 0 16 -1 21 -10 3
-6 3 -9 2 -19 -3 -20 -2 -38 2 -45 4 -7 12 -13 38 -25 31 -15 50 -19 77 -20
35 0 62 6 85 20 6 4 12 7 13 7 8 0 9 30 2 44 -5 11 -5 18 -1 23 2 3 5 4 19 4
10 0 20 2 23 3 3 1 7 3 7 2 1 0 4 3 8 8 10 13 13 36 7 62 -1 8 -3 21 -4 27 -1
12 -4 22 -12 44 -1 5 -3 13 -4 18 -2 15 -7 29 -15 41 -17 27 -46 59 -71 81 -6
6 -13 11 -15 13 -2 2 -7 6 -11 9 -4 3 -10 8 -12 10 -4 3 -23 15 -49 32 -11 6
-30 3 -39 -6 -2 -2 -7 -5 -11 -7 -8 -4 -12 1 -15 19 -2 8 -5 17 -7 17 -1 0 -2
1 -1 2 4 6 -24 6 -35 0 -13 -8 -26 -22 -30 -32 -10 -25 -2 -41 28 -62 11 -7
13 -9 15 -21 3 -17 3 -18 -2 -24 -5 -5 -6 -5 -19 -4 -23 1 -25 4 -30 33 -3 15
-8 27 -24 57 -16 32 -20 47 -12 54 2 2 4 4 4 5 0 1 1 4 3 5 5 5 3 35 -2 34 -1
-1 -7 -1 -14 -1 -8 -1 -11 -1 -11 -3 0 -2 -1 -3 -2 -3 -1 0 -3 -4 -6 -8 -5
-10 -16 -18 -23 -18 -7 0 -24 7 -32 14 -3 3 -9 7 -12 9 -4 2 -10 10 -17 22
-11 20 -11 21 -23 27 -17 9 -37 11 -62 5 -7 -2 -15 -3 -18 -3 -7 0 -63 15 -74
20 -4 1 -9 3 -9 3 -1 -1 -2 0 -2 1 0 1 -2 1 -3 1 -2 -1 -7 -1 -11 -2 -10 -1
-15 -5 -24 -18 -13 -20 -14 -21 -22 -23 -15 -4 -32 2 -35 13 -2 7 -12 26 -16
31 -9 10 -23 15 -33 12z m260 -122 c2 -3 6 -8 9 -12 7 -12 20 -17 41 -16 17 0
19 0 23 -5 8 -7 7 -19 -3 -40 -4 -9 -10 -20 -12 -26 -7 -16 -9 -17 -26 -17
-30 1 -40 7 -53 33 l-10 19 2 26 c2 38 4 44 18 44 4 0 7 -2 11 -6z m-79 -1 c3
-5 3 -5 0 -10 -2 -3 -5 -5 -7 -5 -2 0 -5 2 -7 5 -3 5 -3 5 0 10 2 3 5 5 7 5 2
0 5 -2 7 -5z m389 -156 c16 -2 22 -9 22 -24 0 -16 -7 -23 -23 -23 -17 0 -23 8
-26 33 -1 7 8 17 13 16 2 0 8 -1 14 -2z m121 -14 c4 -4 5 -7 5 -15 0 -14 -6
-20 -20 -20 -14 0 -20 6 -20 20 0 14 6 20 20 20 8 0 11 -1 15 -5z m-227 -40
c4 -2 9 -6 11 -9 2 -2 5 -4 6 -4 2 0 3 -1 3 -2 0 -1 4 -3 8 -5 5 -2 11 -5 14
-7 6 -4 22 -26 22 -30 0 -1 9 -6 19 -11 21 -10 23 -13 23 -25 0 -12 -4 -17
-15 -21 -14 -5 -16 -4 -27 16 -5 10 -9 20 -10 21 0 2 -1 3 -2 4 -1 0 -6 3 -11
5 -11 6 -17 6 -38 1 -25 -7 -29 -7 -34 -2 -6 5 -6 14 -3 46 2 15 3 20 6 24 6
6 18 6 28 -1z"/>
</g>
</svg>
