<?xml version="1.0" standalone="no"?>
<!DOCTYPE svg PUBLIC "-//W3C//DTD SVG 20010904//EN"
 "http://www.w3.org/TR/2001/REC-SVG-20010904/DTD/svg10.dtd">
<svg version="1.0" xmlns="http://www.w3.org/2000/svg"
 width="1107.000000pt" height="2870.000000pt" viewBox="0 0 1107.000000 2870.000000"
 preserveAspectRatio="xMidYMid meet">
<metadata>
Created by potrace 1.15, written by Peter Selinger 2001-2017
</metadata>
<g transform="translate(0.000000,2870.000000) scale(0.500000,-0.500000)"
fill="#000000" stroke="none">
<path d="M1633 3813 c-3 -2 -9 -7 -14 -12 -6 -6 -10 -9 -16 -10 -18 -3 -36
-15 -44 -30 -4 -8 -23 -27 -26 -27 0 0 -7 -4 -14 -8 -18 -11 -32 -12 -45 -3
-26 18 -36 19 -68 3 -23 -12 -31 -15 -69 -33 -21 -9 -77 -33 -78 -33 -1 0 -5
-2 -10 -4 -11 -5 -74 -30 -83 -32 -13 -4 -22 -17 -19 -31 0 -5 0 -7 -2 -7 -1
0 1 -2 4 -4 7 -4 13 -5 37 -3 l16 1 6 -6 c6 -6 8 -9 16 -25 2 -5 5 -9 6 -9 1
0 4 -5 6 -10 4 -11 4 -11 0 -15 -5 -6 -10 -5 -36 7 -11 4 -20 8 -22 8 -1 0 -7
4 -12 9 -12 11 -29 19 -41 20 -9 1 -19 7 -24 13 -6 9 -32 19 -38 14 -1 -1 -15
-5 -30 -10 -36 -11 -52 -18 -59 -29 -3 -4 -6 -9 -6 -10 0 -2 -1 -3 -1 -3 -1
-1 -4 -5 -7 -11 -2 -5 -6 -10 -8 -11 -6 -3 -22 -3 -27 1 -9 6 -28 3 -35 -5
-11 -12 -5 -36 12 -51 13 -12 21 -14 73 -12 25 1 49 2 53 2 4 0 21 1 39 2 18
1 34 2 37 2 3 0 14 1 24 2 10 1 30 2 43 3 13 1 28 2 33 2 6 1 10 2 10 3 0 1 3
-2 6 -5 l6 -7 0 -57 0 -57 7 -22 c9 -26 9 -24 0 -50 -8 -23 -8 -27 0 -40 4 -6
9 -11 20 -18 18 -12 19 -13 19 -24 0 -19 -18 -26 -36 -13 -27 18 -36 21 -49
14 -13 -6 -21 -15 -30 -35 -10 -20 -16 -26 -27 -25 -13 1 -17 5 -19 20 -2 15
-5 28 -7 28 -1 0 -2 2 -3 4 -1 4 -14 10 -23 10 -3 0 -10 -2 -17 -4 -15 -4 -25
-4 -48 3 -18 5 -21 5 -51 4 -37 -1 -38 -1 -45 -6 -4 -3 -5 -5 -4 -17 0 -14 0
-14 -5 -14 -5 0 -5 0 -5 14 1 12 0 14 -4 17 -3 2 -7 4 -9 4 -7 1 -20 -3 -21
-7 0 -2 -1 -2 -1 1 0 3 -2 5 -7 7 -4 2 -7 4 -7 5 0 0 -1 1 -2 0 -1 -1 -2 0 -2
1 -1 0 -6 4 -11 9 -16 11 -19 16 -19 28 0 10 0 10 15 24 23 23 22 15 23 122 0
101 1 98 -13 125 -6 11 -7 14 -6 22 2 14 14 56 18 60 2 2 10 7 19 10 31 12 41
30 31 51 -5 11 -10 15 -38 36 -9 7 -17 13 -18 14 -14 10 -14 10 -26 10 -16 -1
-21 -2 -21 -6 0 -3 -4 -7 -14 -15 -4 -4 -11 -1 -14 4 -3 5 -2 6 4 18 9 17 9
34 0 42 -12 10 -27 11 -47 1 -12 -6 -25 -7 -30 -3 -2 1 -6 8 -9 14 -8 14 -13
17 -29 15 -18 -2 -20 -7 -20 -42 0 -25 0 -25 -5 -29 -4 -4 -7 -4 -20 -3 -8 1
-15 2 -17 2 -1 1 -45 1 -99 1 -111 0 -110 0 -148 17 -12 5 -40 18 -64 28 -24
11 -62 28 -86 39 -49 21 -56 23 -70 13 -14 -9 -14 -5 -14 -169 1 -168 -1 -153
22 -176 12 -12 15 -17 15 -29 0 -9 -2 -13 -8 -22 -8 -14 -10 -24 -7 -34 3 -8
7 -12 22 -17 22 -8 20 -19 -4 -25 -19 -4 -26 -9 -33 -23 l-6 -11 -1 -49 c0
-38 0 -52 3 -63 4 -19 4 -32 0 -49 -4 -19 -4 -79 0 -89 4 -9 14 -21 18 -21 2
0 3 -1 3 -2 0 -5 64 -4 92 1 46 8 93 28 114 49 l5 5 5 -7 c4 -6 5 -10 6 -31 2
-26 2 -29 13 -50 9 -18 9 -22 -1 -41 -4 -9 -8 -17 -8 -18 0 -1 -3 -5 -8 -9 -5
-6 -8 -7 -10 -6 -2 3 -11 4 -36 6 -8 1 -18 2 -21 2 -3 0 -13 1 -22 2 -16 1
-20 1 -57 5 -72 7 -78 7 -90 0 -14 -8 -17 -14 -16 -42 0 -13 -1 -32 -2 -44 -2
-16 -2 -22 0 -31 3 -12 8 -23 10 -23 1 0 2 -1 2 -3 0 -2 1 -3 2 -3 2 0 10 -16
10 -21 0 -7 11 -32 18 -40 8 -9 14 -10 30 -6 4 1 13 9 13 13 0 1 1 2 1 3 0 0
1 2 1 5 2 25 9 46 16 52 7 5 19 5 25 0 5 -3 5 -5 5 -29 0 -24 1 -27 5 -37 9
-19 9 -29 -1 -38 -13 -12 -28 -27 -35 -36 -15 -17 -36 -15 -62 8 -5 5 -26 3
-31 -3 -7 -8 -11 -21 -11 -34 0 -13 3 -30 6 -34 5 -6 14 -27 14 -32 0 -5 -9
-26 -14 -32 -5 -7 -6 -25 -6 -119 l0 -98 -5 -6 c-4 -5 -7 -6 -25 -8 -47 -6
-59 -23 -43 -61 17 -43 22 -47 57 -51 25 -3 31 -8 31 -28 0 -13 -1 -15 -12
-26 -8 -9 -15 -24 -15 -35 0 -5 25 -67 39 -98 1 -3 5 -12 8 -20 6 -16 15 -30
21 -33 2 -1 10 -2 17 -2 13 0 13 0 22 9 5 5 11 14 14 21 15 32 18 35 33 37 33
3 37 5 86 30 12 6 19 21 19 36 -1 13 -21 41 -41 56 -5 4 -12 18 -12 24 0 6 7
11 16 10 10 -1 16 -4 26 -13 4 -3 15 -10 26 -15 l18 -9 17 1 c9 1 20 2 25 3
10 2 17 1 32 -5 9 -3 24 -4 33 -2 2 0 9 4 15 7 7 4 29 16 49 28 46 26 50 30
52 67 2 26 18 32 49 19 18 -7 29 -8 41 -2 33 16 38 25 34 66 -2 16 -2 16 5 22
5 5 7 6 16 6 10 0 13 -1 25 -9 12 -9 15 -10 26 -11 l13 0 10 10 c22 22 28 33
29 55 1 16 1 16 -6 31 -7 12 -10 16 -17 19 -12 7 -15 6 -98 -12 -38 -8 -75
-16 -81 -18 -13 -2 -13 -2 -18 3 l-5 5 0 78 c0 85 0 87 -12 98 -6 6 -26 15
-32 15 -8 0 -15 9 -16 22 -1 20 8 57 17 66 8 6 26 6 41 -2 28 -15 22 -14 136
-14 l103 0 14 6 c14 6 27 16 27 22 0 2 1 1 2 -1 1 -3 3 -5 4 -5 6 0 7 -16 6
-172 l0 -155 6 -20 c7 -24 7 -26 0 -50 -7 -22 -7 -30 -3 -41 7 -21 25 -25 52
-12 33 16 55 16 55 -2 0 -6 -9 -18 -13 -18 -2 0 -3 -1 -3 -2 -1 -1 -5 -4 -10
-8 -6 -3 -10 -7 -10 -8 0 -3 -18 -20 -22 -20 -29 -1 -44 -9 -50 -26 -4 -12 -3
-231 1 -241 4 -9 14 -21 18 -21 2 0 3 -1 3 -2 0 -2 8 -3 36 -3 25 1 37 2 72
10 23 5 87 33 97 43 2 2 7 5 11 8 12 8 25 23 32 37 7 14 7 14 7 40 0 25 0 26
6 32 3 3 5 6 5 7 0 1 2 2 5 3 6 1 18 13 22 20 1 3 6 8 10 10 6 4 7 4 14 -1 4
-2 7 -6 8 -8 1 -3 5 -8 10 -12 15 -15 11 -14 140 -14 l116 1 6 -6 c5 -5 6 -8
5 -15 0 -9 2 -22 7 -47 3 -11 3 -15 1 -26 -3 -16 -2 -26 1 -35 1 -4 3 -6 3 -5
0 1 1 0 3 -3 2 -2 5 -4 6 -4 2 0 3 -1 3 -2 0 -4 44 -5 70 -1 22 3 28 5 55 20
11 6 15 8 24 7 23 0 38 3 62 15 19 9 25 13 33 22 16 19 16 17 16 142 l0 107
-8 8 c-6 7 -9 8 -19 9 -9 2 -14 2 -17 0 -6 -3 -19 -3 -26 0 -20 9 -20 45 0 54
7 3 20 3 26 0 3 -2 8 -2 17 0 10 1 13 2 19 9 l8 8 0 106 c0 71 -1 107 -2 112
-4 13 -9 22 -13 24 -5 3 -13 19 -13 27 0 24 12 36 35 33 32 -3 43 0 62 16 18
16 23 24 23 37 0 15 -4 21 -19 33 -34 25 -44 33 -47 35 -2 2 -9 8 -17 13 -19
15 -46 35 -47 36 -9 9 -17 12 -29 12 -9 0 -14 -2 -17 -4 -18 -15 -26 -17 -31
-9 -3 4 -3 6 1 17 2 6 4 16 4 20 0 10 -3 24 -6 24 -1 0 -7 4 -14 10 -25 18
-24 18 -37 18 -14 0 -20 -3 -23 -12 -4 -9 -4 -7 -4 -41 0 -12 -8 -20 -22 -19
-25 0 -41 -6 -56 -23 -9 -10 -13 -12 -25 -16 l-13 -4 -7 6 -6 6 1 49 c0 41 0
50 -3 59 -4 11 -4 10 -14 22 -3 4 -8 10 -10 13 -4 6 -4 23 0 29 1 2 4 9 6 15
3 10 3 13 0 43 -1 7 0 13 3 23 5 16 5 31 -1 43 -28 53 -30 70 -8 78 8 3 17 2
17 -2 0 -1 1 -3 3 -4 3 -1 9 -10 23 -36 16 -30 20 -36 33 -42 l10 -5 185 0
185 1 12 5 c24 10 44 38 44 60 -1 21 -14 36 -65 77 -19 15 -20 16 -23 18 -1 1
-6 5 -10 8 -4 3 -8 6 -9 7 -1 1 -10 8 -21 16 -11 8 -20 15 -21 16 -1 1 -8 7
-17 13 -9 7 -16 12 -17 13 -1 1 -9 7 -18 14 -9 8 -23 19 -30 26 -12 13 -12 13
-24 14 -15 0 -21 -4 -35 -23 -7 -9 -13 -17 -15 -19 -2 -2 -19 -25 -27 -36 -1
-3 -8 -11 -13 -19 -6 -8 -18 -24 -26 -36 -21 -29 -22 -30 -67 -31 -23 0 -34
-1 -35 -3 -1 -1 -2 -1 -2 1 0 2 -2 6 -5 8 l-6 5 1 55 c0 44 -1 58 -3 68 -4 18
-4 39 0 56 3 12 3 21 2 44 -1 28 -1 52 -1 61 0 7 11 18 18 19 6 0 56 10 94 19
8 2 18 4 21 4 3 1 24 6 45 11 48 13 64 14 88 8 34 -9 60 -8 89 4 27 12 37 22
37 40 0 12 -4 17 -20 32 -8 7 -17 15 -20 18 -3 2 -10 9 -17 15 -7 6 -16 14
-20 18 -11 10 -16 13 -29 19 -15 7 -23 13 -29 25 -11 19 -18 24 -43 30 -13 4
-24 11 -24 16 0 3 -3 10 -10 25 -3 7 -12 17 -23 26 -7 5 -25 6 -34 1z m24 -97
c3 -1 17 -5 30 -9 13 -4 26 -9 28 -11 10 -9 10 -35 0 -43 -13 -12 -23 -11 -61
6 -34 15 -43 16 -74 12 -13 -1 -14 -1 -19 4 -7 7 -7 19 0 26 4 5 6 5 21 5 17
0 33 3 43 9 7 3 24 4 32 1z m-1330 -41 c5 -8 1 -16 -8 -16 -9 0 -13 8 -8 16 2
3 5 5 8 5 3 0 6 -2 8 -5z m279 -101 c8 -2 15 -10 15 -16 0 -6 -9 -18 -15 -20
-2 -1 -11 -17 -14 -23 -1 -4 -2 -42 -2 -140 l1 -134 -6 -6 -6 -6 -87 0 c-100
0 -91 2 -114 -20 -16 -15 -24 -18 -38 -15 -11 2 -16 7 -18 18 -4 16 5 34 17
34 7 0 10 1 24 8 12 6 13 7 18 17 l5 11 0 142 -1 143 6 6 6 6 100 -1 c73 -1
102 -2 109 -4z m799 -59 c5 -8 1 -16 -8 -16 -9 0 -13 8 -8 16 2 3 5 5 8 5 3 0
6 -2 8 -5z m-15 -81 c5 -5 5 -11 0 -16 -10 -10 -27 5 -16 16 4 4 12 4 16 0z
m-1159 -12 c10 -9 3 -26 -10 -26 -8 0 -15 7 -15 15 0 13 16 20 25 11z m466
-27 c6 -4 16 -27 17 -36 0 -2 3 -4 6 -5 5 -1 16 -15 16 -19 0 -3 -8 -11 -10
-11 -5 0 -18 12 -19 18 0 4 -2 6 -5 7 -7 2 -22 11 -28 17 -8 8 -8 20 -1 27 6
6 18 7 24 2z m-498 -222 c3 -5 3 -5 0 -10 -2 -3 -5 -5 -7 -5 -2 0 -5 2 -7 5
-3 5 -3 5 0 10 2 3 5 5 7 5 2 0 5 -2 7 -5z m718 -28 c6 -5 2 -17 -7 -19 -6 -1
-17 7 -16 11 1 9 15 14 23 8z m-265 -5 c4 -4 5 -11 2 -13 -2 -1 -2 -15 1 -29
1 -6 11 -21 20 -29 20 -19 34 -20 74 -7 30 10 46 17 72 31 4 2 13 9 19 15 6 6
13 11 15 11 9 2 13 5 13 14 l1 8 0 -7 c1 -5 2 -8 4 -8 1 0 1 -1 -1 -2 -1 -1
-2 -6 -2 -15 0 -21 9 -34 28 -41 9 -4 16 -4 110 -4 l101 0 13 5 c7 3 18 7 23
9 11 6 18 5 31 0 14 -7 36 -14 38 -14 0 1 4 -2 7 -5 l6 -6 0 -137 0 -137 -6
-5 c-10 -9 -21 -7 -76 15 -58 23 -100 39 -136 53 -20 8 -38 15 -41 17 -6 3
-23 1 -30 -5 -10 -7 -14 -18 -14 -43 0 -22 -4 -39 -8 -39 -1 0 -2 -1 -2 -3 0
-3 0 -3 -3 -1 -1 2 -9 5 -17 7 -18 4 -23 8 -25 19 0 4 -1 9 -2 12 0 2 -1 6 -2
8 -2 8 -7 16 -19 27 -15 14 -22 17 -45 18 -21 2 -22 3 -24 27 -1 23 -6 34 -16
39 -15 7 -32 2 -40 -13 -3 -5 -9 -14 -13 -21 -4 -7 -8 -14 -9 -16 -2 -2 -4 -6
-5 -9 -2 -3 -5 -9 -8 -13 -8 -13 -10 -16 -11 -19 -1 -2 -5 -8 -8 -14 -8 -12
-12 -26 -14 -48 -1 -18 -4 -23 -16 -28 -16 -7 -37 -2 -39 10 -2 12 2 22 13 33
18 19 23 32 23 61 0 26 -8 48 -18 48 -2 0 -4 1 -4 2 0 1 -3 3 -6 4 -12 5 -12
21 0 26 3 1 6 3 6 4 0 1 2 2 4 2 1 0 5 3 7 6 8 10 11 21 11 45 0 20 -1 25 -7
44 -10 32 -10 37 -5 46 3 5 5 8 6 9 5 4 10 40 6 43 -3 2 -2 9 2 13 4 4 12 4
16 0z m-73 -14 c7 -6 11 -25 7 -33 -5 -13 -32 -18 -43 -8 -6 4 -6 6 -6 20 0
14 0 16 6 20 8 7 28 7 36 1z m-307 -13 l-5 -5 -4 4 -5 5 4 4 5 5 4 -4 5 -5 -4
-4z m-55 -34 c3 -5 3 -6 1 -11 -4 -7 -14 -7 -18 0 -6 12 10 22 17 11z m287
-40 c4 -4 4 -13 1 -34 0 -2 -3 -5 -5 -5 -2 0 -16 14 -16 16 0 1 -1 3 -3 4 -4
4 -4 14 1 19 6 7 16 7 22 0z m12 -52 c0 -2 1 -5 1 -6 3 -2 3 -8 0 -10 -5 -5
-11 2 -10 10 2 10 9 16 9 6z m883 -32 c21 -10 18 -34 -4 -35 -23 -1 -33 5 -33
21 0 19 16 25 37 14z m-846 -72 c7 -7 7 -19 0 -26 -7 -7 -21 -7 -27 0 -10 13
-2 31 14 31 6 0 9 -1 13 -5z m-169 -25 c3 -6 3 -7 0 -16 -1 -5 -5 -12 -7 -16
-7 -12 -9 -24 -9 -48 1 -28 6 -41 22 -53 13 -10 16 -16 16 -29 0 -13 -3 -19
-16 -29 -7 -5 -12 -11 -15 -19 -6 -11 -6 -11 -7 -58 0 -51 1 -58 10 -68 5 -7
27 -18 34 -18 2 0 6 -2 9 -5 6 -4 6 -6 6 -20 0 -14 0 -16 -6 -20 -3 -3 -7 -5
-9 -5 -6 0 -26 -9 -32 -15 -10 -9 -12 -17 -12 -55 l0 -35 -6 -7 c-3 -3 -6 -6
-6 -5 0 3 -20 -10 -23 -14 -5 -7 -11 -29 -11 -37 0 -11 -7 -16 -19 -16 -14 0
-18 5 -23 26 -2 9 -4 23 -4 30 0 17 5 24 16 24 4 0 12 2 18 4 24 9 28 16 28
54 0 33 -5 50 -16 59 -24 20 -24 40 0 60 5 4 10 13 13 24 2 6 3 38 3 131 l0
122 5 12 c3 7 6 12 7 12 0 0 3 4 6 8 3 4 6 8 6 8 1 0 2 1 2 3 0 3 13 17 15 17
1 0 3 -3 5 -6z m109 -40 c5 -4 6 -11 2 -15 -11 -11 -28 4 -17 15 3 4 10 4 15
0z m867 0 c2 -2 4 -5 4 -7 0 -2 2 -5 4 -7 5 -5 9 -12 13 -22 3 -9 3 -10 0 -15
-4 -6 -10 -6 -15 -1 -4 4 -11 16 -9 16 0 0 -1 4 -4 9 -11 21 -7 39 7 27z
m-249 -78 c8 -7 6 -17 -10 -57 -9 -21 -12 -23 -35 -24 -14 -1 -15 -1 -22 4 -6
6 -6 6 -4 13 1 4 3 10 3 14 2 13 5 18 19 29 8 6 16 13 18 15 9 10 24 13 31 6z
m-598 -54 c2 -3 3 -8 3 -15 0 -9 -1 -12 -9 -22 -5 -7 -11 -18 -15 -26 -4 -7
-8 -15 -10 -17 -4 -5 -11 -5 -15 1 -3 4 -3 6 1 20 2 9 5 25 5 36 1 13 3 20 5
23 7 9 28 8 35 0z m482 -29 c7 -2 15 -3 19 -3 8 0 18 -7 17 -13 -1 -6 -5 -22
-7 -26 -3 -5 -3 -12 -1 -23 2 -9 4 -13 13 -23 7 -8 8 -10 8 -20 0 -17 -10 -25
-28 -21 -11 3 -15 9 -13 24 3 31 2 35 -13 51 -15 16 -19 22 -23 36 -3 11 -3
11 1 16 5 6 10 6 27 2z m761 -3 c5 -5 5 -15 0 -20 -9 -9 -24 -2 -24 10 0 8 6
14 14 14 3 0 8 -2 10 -4z m-271 -6 c13 -3 24 -4 36 -4 17 1 18 1 24 -5 l6 -6
-1 -70 c0 -67 0 -70 4 -76 7 -12 21 -18 40 -17 11 0 15 -3 23 -18 15 -29 16
-31 14 -56 -1 -28 -2 -33 -8 -38 l-5 -4 -6 5 c-7 5 -22 31 -22 38 0 2 -1 3 -1
2 -1 -2 -6 -3 -13 -3 -8 0 -13 -1 -15 -3 -1 -2 -3 -2 -4 -2 0 1 -2 -2 -4 -7
-2 -7 -3 -16 -3 -48 0 -39 0 -41 5 -51 3 -6 8 -13 11 -15 6 -4 22 -13 26 -13
8 -2 11 -9 11 -24 0 -14 0 -14 -9 -25 -9 -10 -18 -30 -18 -40 0 -2 -2 -5 -5
-8 -5 -4 -5 -4 -10 -1 -3 2 -10 8 -14 12 -16 17 -11 16 -108 17 l-86 0 -19 -6
c-24 -7 -28 -7 -51 0 -22 7 -35 8 -57 3 -40 -9 -55 -2 -55 23 0 12 2 17 12 26
8 8 14 19 18 29 3 9 3 23 3 124 0 62 -1 114 -2 114 -1 1 -2 3 -2 5 0 2 -2 5
-4 7 -2 2 -3 4 -3 6 1 1 1 1 -1 0 -1 -1 -2 0 -2 1 0 2 -1 2 -2 0 -1 -2 -2 -2
-2 -1 0 1 -4 4 -9 5 -5 1 -10 4 -10 5 -1 2 -2 2 -5 -1 -3 -4 -3 -3 -14 6 -8 7
-10 10 -10 16 -1 15 0 16 17 33 9 9 17 18 19 20 11 13 20 27 20 29 0 1 1 2 3
2 1 0 3 1 3 2 1 0 4 3 9 5 6 3 16 3 108 3 90 0 102 1 116 4 21 5 29 5 52 0z
m280 -81 c15 -4 20 -16 15 -36 -4 -13 -10 -18 -25 -20 -3 -1 -14 -2 -23 -4
-17 -3 -25 -3 -53 -2 -9 0 -23 0 -31 -2 -13 -1 -14 -1 -18 3 -7 7 -3 24 7 24
5 0 28 8 40 14 16 9 67 25 75 25 4 0 10 -1 13 -2z m-604 -81 c7 -6 0 -20 -10
-20 -7 0 -13 7 -13 13 0 6 9 16 13 14 2 0 3 0 3 2 0 1 1 0 2 -2 2 -2 4 -5 5
-7z m-22 -76 c4 -5 4 -22 0 -30 -5 -9 -13 -29 -15 -38 -5 -17 -17 -23 -27 -14
-6 5 -6 9 -2 28 4 19 5 29 5 40 0 6 1 11 4 14 7 9 27 9 35 0z m-912 -21 c12
-12 3 -31 -13 -31 -11 0 -18 7 -18 18 0 11 7 18 18 18 6 0 9 -1 13 -5z m214
-38 c5 -8 1 -16 -8 -16 -9 0 -13 8 -8 16 2 3 5 5 8 5 3 0 6 -2 8 -5z m145 3
c1 0 5 -3 8 -6 5 -5 6 -7 6 -18 0 -11 -1 -13 -6 -18 -6 -6 -7 -6 -18 -6 -11 0
-12 0 -18 6 -5 5 -6 7 -6 17 0 14 3 20 12 24 5 2 8 2 22 1z m-351 -70 c4 -6 4
-24 -1 -30 -7 -9 -27 -9 -34 0 -5 6 -5 24 0 30 7 9 27 9 35 0z m184 1 c5 -8 1
-16 -8 -16 -9 0 -13 8 -8 16 2 3 5 5 8 5 3 0 6 -2 8 -5z m-206 -100 c4 -4 5
-7 5 -15 0 -14 -6 -20 -20 -20 -14 0 -20 6 -20 20 0 14 6 20 20 20 8 0 11 -1
15 -5z m1570 -71 c5 -7 10 -23 9 -38 0 -13 -5 -20 -15 -20 -13 0 -21 13 -23
39 0 14 0 16 4 20 7 7 18 7 25 -1z m-754 -1 c12 -7 14 -33 3 -43 -8 -9 -32 -9
-40 0 -9 8 -9 32 0 41 7 7 27 8 37 2z m640 -6 c5 -4 6 -6 6 -17 1 -16 -1 -22
-14 -28 -28 -13 -50 -17 -57 -10 -7 7 -4 23 7 33 2 2 7 7 10 11 10 13 16 16
30 16 11 0 14 -1 18 -5z"/>
</g>
</svg>
