<?xml version="1.0" standalone="no"?>
<!DOCTYPE svg PUBLIC "-//W3C//DTD SVG 20010904//EN"
 "http://www.w3.org/TR/2001/REC-SVG-20010904/DTD/svg10.dtd">
<svg version="1.0" xmlns="http://www.w3.org/2000/svg"
 width="1104.000000pt" height="2870.000000pt" viewBox="0 0 1104.000000 2870.000000"
 preserveAspectRatio="xMidYMid meet">
<metadata>
Created by potrace 1.15, written by Peter Selinger 2001-2017
</metadata>
<g transform="translate(0.000000,2870.000000) scale(0.500000,-0.500000)"
fill="#000000" stroke="none">
<path d="M401 3831 c-4 -2 -9 -5 -11 -7 -4 -5 -12 -23 -13 -30 0 -3 -1 -7 -2
-8 0 -1 -1 -7 -2 -14 -1 -26 10 -34 37 -27 14 4 26 2 32 -5 9 -8 9 -32 0 -40
-9 -9 -33 -9 -41 0 -9 12 -8 12 -24 12 -19 0 -23 -3 -27 -21 -2 -7 -3 -12 -3
-13 -8 -32 -57 -173 -69 -199 -18 -40 -31 -70 -31 -76 -2 -16 8 -37 21 -44 2
-1 8 -9 15 -19 10 -14 12 -19 14 -34 0 -2 -2 -5 -4 -8 -4 -4 -7 -5 -21 -6 -15
0 -15 0 -21 6 -3 3 -5 8 -5 9 0 2 -2 7 -5 11 l-5 8 -16 0 -15 0 -5 -7 c-3 -5
-6 -9 -7 -11 0 -2 -3 -5 -5 -8 -1 -3 -6 -10 -9 -15 -3 -6 -10 -17 -16 -25 -6
-8 -10 -17 -11 -20 -1 -9 4 -22 12 -35 10 -13 10 -19 4 -46 -4 -17 -4 -20 -2
-29 3 -11 13 -22 21 -22 4 0 8 -1 11 -1 5 0 19 6 24 10 1 2 3 3 4 3 1 0 3 2 5
4 2 2 7 5 11 8 31 21 48 36 74 65 6 7 19 16 38 27 9 5 26 20 59 53 25 25 46
45 47 45 13 0 23 -52 25 -131 1 -30 2 -45 4 -53 4 -12 17 -27 26 -31 4 -2 5
-3 3 -3 -2 0 -4 -1 -4 -2 0 -6 -9 -7 -150 -8 l-139 -1 -11 -6 c-9 -5 -14 -10
-27 -27 -1 -1 -3 -3 -4 -5 -3 -3 -7 -10 -8 -15 -1 -1 -2 -7 -3 -12 -2 -7 -1
-10 2 -22 6 -16 14 -25 27 -31 l11 -5 93 0 c89 0 95 0 111 4 9 3 22 4 28 4 6
0 19 -1 28 -4 15 -4 23 -4 73 -4 56 0 56 0 64 -5 6 -4 11 -5 21 -5 13 -1 13
-1 4 -2 l-9 -1 9 -1 c13 0 19 3 24 13 2 5 4 10 4 11 0 3 7 15 11 19 6 5 17 4
21 -3 2 -5 9 -53 8 -64 0 -10 -4 -18 -11 -21 -7 -4 -24 -5 -31 -1 -14 7 -35 9
-51 4 -3 -1 -13 -4 -21 -6 -22 -6 -27 -11 -45 -36 -22 -31 -24 -34 -33 -46
-26 -36 -34 -47 -38 -55 -2 -3 -3 -6 -4 -7 -1 -1 -3 -4 -6 -7 -5 -8 -4 -20 1
-24 6 -4 34 -2 40 3 4 4 63 3 70 -1 8 -4 12 -12 12 -25 -1 -23 -10 -28 -43
-27 -12 0 -43 1 -68 1 -53 0 -57 1 -104 20 -17 6 -31 11 -32 11 0 0 -4 -1 -9
-2 -11 -2 -17 -5 -25 -15 -4 -5 -12 -13 -17 -19 -6 -5 -11 -11 -11 -12 0 -2
-1 -3 -2 -3 -1 0 -3 -5 -6 -10 -5 -11 -12 -20 -16 -20 -7 0 -10 9 -8 20 2 6 2
19 1 30 -1 10 -1 23 -1 29 0 5 -1 13 -2 18 -2 4 -3 9 -3 11 -2 10 -12 17 -41
28 -17 7 -18 7 -29 5 -8 -2 -13 -4 -15 -7 -2 -2 -4 -4 -4 -3 0 1 -2 -2 -4 -7
-3 -7 -4 -14 -4 -34 0 -23 1 -26 7 -46 9 -26 9 -32 0 -58 l-7 -21 0 -119 0
-119 6 -22 c6 -25 6 -25 -1 -52 -5 -19 -5 -24 -5 -57 0 -43 3 -52 16 -66 14
-13 16 -18 16 -29 0 -11 -2 -16 -16 -29 -15 -16 -16 -20 -16 -95 0 -57 0 -67
3 -74 4 -9 14 -21 18 -21 2 0 3 -1 3 -2 0 -1 1 -2 3 -2 73 -11 198 29 240 78
16 19 19 33 19 77 l-1 34 6 6 6 6 111 0 111 0 6 -6 6 -6 -1 -49 c0 -41 0 -50
3 -57 4 -9 14 -21 18 -21 2 0 3 -1 3 -2 0 -2 0 -2 22 -3 22 -2 34 2 45 13 4 4
8 10 9 13 1 2 5 7 8 9 8 6 22 5 38 -3 13 -6 32 -10 40 -8 23 4 68 29 68 37 0
1 1 2 3 2 2 0 3 1 2 2 -1 1 0 2 1 2 2 0 6 10 7 20 0 3 0 6 -1 6 0 -1 -2 0 -4
1 -6 2 -17 2 -21 0 -7 -4 -18 -4 -23 1 -7 7 -4 24 6 29 8 4 20 4 20 0 0 -3 1
-3 2 -2 0 2 4 3 8 4 4 0 10 2 13 3 3 2 7 3 8 2 0 0 1 1 1 3 0 3 9 8 16 9 1 0
2 2 2 4 0 3 1 3 1 -1 2 -6 15 -26 24 -35 5 -6 11 -15 14 -23 8 -21 22 -41 30
-44 9 -4 29 -4 38 0 11 5 28 2 35 -6 2 -2 6 -11 8 -19 3 -8 6 -15 6 -16 2 -1
0 -8 -3 -8 -1 0 -1 -1 1 -2 2 -2 2 -2 -1 -2 -4 0 -5 -1 -5 -4 0 -2 -1 -4 -2
-5 -2 0 -2 -1 -1 -3 3 -3 11 1 11 5 0 4 10 10 24 14 12 4 12 4 16 15 2 6 5 18
6 27 3 19 3 20 14 28 5 3 16 13 25 22 l17 15 13 0 c6 0 17 1 24 3 12 3 13 5
51 43 49 50 103 106 121 127 2 3 10 11 18 20 8 8 14 17 15 20 1 3 2 3 6 -5 l6
-9 1 -64 c1 -76 3 -98 15 -124 2 -5 7 -18 10 -27 10 -27 17 -40 32 -56 13 -14
35 -32 40 -32 1 0 2 -1 2 -1 1 -1 6 -4 11 -7 12 -5 25 -5 35 0 16 8 25 12 28
12 2 0 10 -5 16 -12 7 -7 13 -12 14 -12 1 0 2 -1 2 -2 0 -1 5 -3 10 -5 9 -3
17 -3 61 -2 47 1 54 1 82 8 29 7 69 28 84 45 7 8 12 22 14 39 2 10 7 17 21 28
24 17 29 78 10 118 -11 24 -36 47 -59 55 -8 3 -15 14 -16 25 -2 18 -7 28 -23
42 -5 6 -12 13 -14 16 l-4 7 -16 0 c-9 0 -17 -2 -19 -3 -2 -1 -5 -9 -7 -18 -6
-21 -22 -67 -25 -70 -5 -5 -11 -7 -24 -8 -12 -2 -13 -1 -19 4 l-6 6 1 34 c1
36 0 46 -7 54 -3 4 -30 5 -34 1 -16 -15 -38 -11 -38 6 0 8 13 24 20 24 1 0 2
1 2 2 0 1 2 2 4 3 2 1 8 5 13 10 9 8 9 9 9 20 -1 19 -5 25 -24 30 -16 5 -20
10 -20 22 0 20 19 27 37 12 9 -7 10 -7 23 -7 22 2 25 7 27 49 1 12 2 28 2 35
1 7 1 21 2 31 1 10 1 24 2 32 1 18 5 75 6 99 1 10 1 25 2 32 2 36 3 47 4 64 1
10 2 23 2 28 1 5 1 19 2 32 1 13 2 33 3 45 2 34 -1 49 -15 64 -8 8 -11 16 -11
26 0 11 2 15 14 28 17 17 21 27 23 61 2 31 5 38 23 45 14 5 37 20 50 33 l12
11 0 14 c0 17 -2 19 -28 39 -28 21 -28 21 -58 19 l-26 -1 -6 5 c-4 5 -6 9 -7
17 -2 15 -7 32 -12 39 -2 3 -24 20 -48 39 -43 32 -44 33 -55 34 -18 1 -24 -3
-42 -28 -9 -11 -23 -30 -31 -42 -9 -11 -17 -23 -18 -25 -2 -3 -8 -7 -13 -10
l-11 -5 -66 0 -66 0 -6 6 c-4 3 -6 6 -6 7 1 0 6 62 10 121 1 10 2 23 2 28 3
40 7 95 7 96 -1 2 2 5 5 8 l7 6 116 0 c130 0 130 0 144 12 4 4 10 11 14 17 8
12 14 16 26 16 12 0 18 -4 26 -16 18 -27 25 -29 93 -29 l52 0 11 6 c6 3 11 5
11 6 0 1 0 7 1 15 1 10 0 13 -1 13 -2 0 -3 1 -3 2 0 1 -1 2 -3 2 -1 0 -5 1 -8
3 -8 4 -13 5 -19 6 -7 2 -15 8 -17 14 -1 3 -2 8 -3 10 -1 2 -3 8 -5 13 -2 5
-5 11 -6 12 -2 1 -3 4 -3 5 0 2 -1 3 -1 3 -1 0 -4 4 -6 9 -3 9 -3 9 0 14 2 3
5 5 7 6 4 1 20 -6 26 -12 2 -3 6 -5 8 -6 2 -1 4 -2 4 -3 0 -1 1 -2 2 -1 1 1 5
0 8 -2 3 -2 6 -2 6 -1 0 1 2 2 4 3 4 1 4 1 -1 17 -4 17 -3 16 -20 18 -2 1 -3
1 -3 2 0 1 -1 2 -2 2 -5 0 -16 9 -19 16 -2 5 -8 11 -15 15 -6 5 -13 10 -17 13
-3 2 -8 6 -11 8 -16 10 -53 39 -56 44 -8 9 -14 12 -27 12 -17 -1 -20 -3 -38
-27 -8 -11 -16 -21 -17 -22 0 -1 -5 -7 -10 -14 -5 -7 -9 -12 -10 -13 -1 -1 -5
-6 -10 -13 -5 -7 -9 -12 -10 -13 -3 -3 -18 -24 -18 -25 0 -1 -4 -4 -10 -7 -8
-4 -13 -5 -37 -6 -30 -1 -30 -1 -63 -16 -14 -7 -24 -6 -41 2 -27 13 -34 14
-59 14 -18 0 -24 -1 -30 -4 -9 -5 -9 -5 -8 -22 l0 -12 -9 0 -9 0 0 12 c1 17 1
18 -7 21 -9 5 -20 3 -41 -7 -24 -12 -31 -11 -57 1 -25 12 -42 14 -58 7 l-10
-4 0 -15 c0 -8 -1 -15 -2 -15 -1 0 6 -4 15 -8 20 -11 24 -15 24 -30 0 -11 -1
-13 -6 -18 -6 -6 -7 -6 -21 -6 -9 0 -12 2 -29 18 -15 14 -25 22 -27 22 -3 0
-8 10 -10 18 0 4 -2 10 -3 13 -1 3 -3 7 -3 9 -1 4 -10 12 -18 16 -7 4 -14 4
-76 4 -46 0 -71 -1 -75 -2 -12 -4 -19 -11 -22 -21 -3 -13 -8 -23 -11 -23 -1 0
-9 2 -18 5 -23 7 -28 8 -70 12 -20 2 -39 4 -42 4 -23 4 -25 7 -25 26 1 31 -6
39 -45 57 -15 7 -32 14 -38 17 -5 3 -24 11 -42 19 -18 8 -36 16 -42 19 -5 3
-19 9 -31 14 -12 5 -26 12 -32 14 -99 46 -94 44 -111 38z m147 -232 l-5 -5 -4
4 -5 5 4 4 5 5 4 -4 5 -5 -4 -4z m808 10 c6 -5 5 -18 0 -24 -6 -7 -19 -7 -25
-1 -6 6 -7 19 -2 24 5 5 22 5 27 1z m-662 -59 c8 -5 13 -17 13 -30 0 -15 -2
-18 -9 -23 -10 -5 -22 -17 -21 -19 1 -1 0 -2 -1 -2 -3 0 -2 -24 2 -30 3 -5 42
-83 48 -97 9 -19 10 -33 5 -33 -2 0 -3 1 -3 2 0 2 -1 2 -1 2 -1 -1 -8 5 -16
13 -32 32 -89 67 -136 84 -24 9 -27 18 -12 36 3 5 37 56 47 72 8 13 19 22 30
24 4 1 12 3 17 4 13 3 30 2 37 -3z m610 -18 c8 -5 28 -22 32 -29 7 -11 6 -28
-2 -35 -3 -3 -7 -6 -9 -6 -12 -1 -19 0 -24 3 -7 3 -26 25 -31 35 -5 9 -5 24 0
30 6 8 21 9 34 2z m-198 -10 c3 -3 5 -6 5 -6 0 -1 -1 -12 -2 -25 -1 -13 -1
-28 -2 -33 0 -5 -1 -19 -2 -32 -1 -13 -2 -28 -2 -35 0 -7 -1 -22 -2 -35 -1
-13 -2 -26 -2 -30 0 -4 -1 -18 -2 -31 -1 -13 -2 -28 -2 -33 -7 -71 -3 -82 23
-80 7 1 10 1 10 -1 0 -1 1 1 3 4 4 9 8 11 23 11 10 0 13 -1 17 -5 6 -4 6 -6 6
-20 0 -14 0 -16 -6 -20 -4 -4 -7 -5 -18 -5 -14 0 -22 4 -24 13 -1 4 -2 5 -17
4 l-17 0 -4 -8 c-5 -10 -5 -28 0 -37 2 -3 5 -6 5 -6 1 0 2 -1 2 -2 0 -3 23
-14 29 -14 5 0 20 -7 27 -12 17 -13 22 -35 10 -46 -10 -11 -33 -7 -41 6 -2 3
-4 5 -5 5 -1 0 -8 -1 -17 -1 -8 0 -14 -1 -14 -2 1 -1 0 -2 -1 -2 -5 0 -7 -15
-13 -109 -1 -9 -2 -34 -4 -57 -2 -23 -3 -47 -4 -54 -2 -35 -5 -70 -6 -80 -1
-6 -1 -17 -2 -24 -6 -74 -8 -94 -10 -102 -2 -6 -3 -11 -2 -12 1 -1 0 -2 -1 -3
-1 -1 -2 -2 -1 -3 1 -1 0 -5 -2 -8 -3 -8 -3 -8 1 -19 2 -5 2 -12 1 -24 -2 -27
-11 -118 -12 -121 0 -2 -1 -7 -2 -13 -1 -8 -5 -29 -8 -44 -6 -29 -31 -89 -46
-107 -3 -4 -6 -9 -7 -12 -1 -4 -2 -4 -2 -1 0 1 -1 3 -2 3 -3 0 -6 7 -9 19 -3
13 -9 18 -19 20 -4 1 -10 2 -13 3 -5 1 -7 1 -8 -1 -2 -5 -17 -4 -22 1 -7 6 -7
19 -1 25 5 6 21 7 23 2 1 -2 3 -2 8 -1 3 1 9 2 13 3 9 1 15 6 18 15 1 5 2 31
2 90 l0 83 5 8 c3 5 9 10 15 13 20 11 52 38 56 48 3 7 2 24 -1 30 -2 4 -16 16
-34 30 -18 12 -45 33 -61 45 -32 24 -77 58 -94 71 -13 11 -32 30 -30 31 0 1 0
1 -1 0 -2 0 -4 0 -5 2 -3 2 -5 2 -15 -1 -16 -6 -32 -6 -37 -1 -8 8 -28 52 -28
64 0 8 7 15 15 15 10 0 14 -3 23 -16 5 -6 11 -14 14 -17 3 -3 8 -10 10 -15 3
-6 6 -10 6 -10 1 0 2 -1 2 -2 0 -2 2 -4 4 -6 3 -3 8 -3 30 -2 1 1 4 5 7 10 3
5 6 9 7 10 0 1 4 5 7 10 3 5 6 9 7 10 1 1 7 10 14 21 7 11 14 22 16 24 2 2 4
4 4 5 0 1 1 4 2 7 1 3 2 6 2 8 0 4 14 10 30 14 24 5 54 18 64 26 13 11 14 34
5 57 -14 30 -18 36 -59 71 -5 5 -18 16 -29 26 -11 10 -26 23 -34 30 -36 32
-41 37 -41 42 0 4 10 13 18 16 2 0 7 5 11 11 9 11 18 17 30 17 9 1 24 -6 27
-11 1 -3 6 -7 12 -10 16 -10 31 -8 50 8 6 4 30 28 36 35 16 20 35 60 43 90 10
39 8 89 -6 126 -9 24 -32 63 -37 63 -2 0 -2 1 1 1 1 1 3 2 3 3 0 6 12 8 46 8
l34 0 6 -6z m-204 -18 c10 -4 12 -10 11 -26 0 -15 -1 -16 -33 -34 -22 -14 -29
-16 -40 -14 -10 2 -14 8 -14 22 l0 11 18 18 c26 25 29 27 41 27 6 0 13 -2 17
-4z m-401 -22 c4 -6 4 -24 -1 -30 -7 -9 -27 -9 -34 0 -5 6 -5 24 0 30 7 9 27
9 35 0z m268 -10 c4 -6 4 -24 -1 -30 -6 -8 -26 -9 -34 -1 -3 4 -6 18 -4 26 4
13 30 16 39 5z m203 -46 c3 -3 4 -8 4 -14 0 -14 -6 -20 -20 -20 -8 0 -11 1
-15 5 -10 10 -5 34 8 35 8 2 20 -2 23 -6z m214 -112 c5 -6 5 -12 0 -18 -7 -8
-22 -2 -22 9 0 11 15 17 22 9z m496 -63 c21 -9 20 -45 -2 -54 -10 -5 -28 -1
-34 6 -9 10 -9 32 0 42 7 8 24 11 36 6z m-904 -36 c2 -11 -1 -18 -6 -14 -6 4
-7 12 -2 18 5 6 5 6 8 -4z m618 -23 c5 -5 5 -11 0 -16 -11 -11 -27 5 -16 16 4
4 12 4 16 0z m-647 -42 c5 -7 6 -11 7 -21 0 -12 0 -13 -5 -19 -6 -5 -7 -5 -29
-7 -13 0 -28 -2 -34 -4 -17 -4 -27 -4 -34 2 -4 3 -5 5 -4 7 1 2 2 7 2 13 0 8
0 10 5 15 5 5 8 6 23 7 23 1 38 4 44 9 12 8 18 8 25 -2z m658 -14 c13 -3 22
-4 60 -4 l45 0 6 -6 c3 -3 6 -6 5 -6 0 -1 -1 -17 -2 -36 -1 -19 -2 -39 -2 -45
0 -5 -1 -19 -2 -30 0 -11 -1 -29 -2 -39 -1 -24 -3 -49 -4 -79 -1 -31 -3 -38
-7 -43 -5 -6 -6 -5 -15 9 -25 43 -95 118 -122 130 -13 7 -16 24 -12 78 0 10 2
27 2 37 1 17 2 20 7 25 11 13 20 15 43 9z m-573 -37 c3 -3 4 -7 4 -14 0 -13
-6 -19 -19 -19 -13 0 -19 6 -19 19 0 7 1 11 4 14 7 8 23 8 30 0z m39 -124 c7
-4 9 -9 10 -23 1 -13 1 -13 -4 -18 -5 -3 -10 -4 -18 -4 -20 -1 -27 6 -27 24 0
13 3 19 12 23 7 3 21 2 27 -2z m455 -5 c6 -3 8 -10 8 -23 0 -18 -12 -27 -29
-24 -13 2 -19 11 -19 24 0 14 3 20 12 24 8 3 22 3 28 -1z m-57 -128 c11 -11 7
-30 -8 -39 -10 -6 -20 -17 -27 -28 l-7 -10 0 -33 0 -32 -5 -5 c-8 -7 -22 -8
-33 -3 -13 6 -15 23 -5 44 7 15 8 27 2 40 -2 4 -5 8 -5 8 -1 0 -4 4 -6 8 -7
16 -3 37 8 42 3 1 16 4 27 6 12 2 25 5 30 7 13 3 22 2 29 -5z m136 -21 c14 -9
13 -41 -2 -47 -45 -17 -51 -23 -61 -55 -3 -13 -4 -19 -3 -63 0 -49 0 -49 5
-60 9 -18 19 -21 54 -17 l16 2 8 -8 c18 -18 18 -19 36 -20 5 -1 9 -1 10 0 2 4
12 9 14 8 5 -3 8 -15 7 -25 0 -6 -1 -20 -2 -32 0 -12 -1 -29 -2 -39 -1 -19 -2
-30 -4 -78 -2 -40 -2 -44 -9 -51 -5 -5 -6 -6 -6 -3 0 5 -11 16 -19 19 -11 4
-22 3 -67 -12 -25 -7 -53 -16 -63 -18 l-18 -5 -3 5 c-4 4 -4 7 -3 16 1 11 14
151 16 176 1 7 2 17 2 21 0 4 2 20 3 35 1 15 3 31 3 36 0 5 1 16 2 24 2 20 2
29 5 57 2 22 2 25 -2 42 -7 28 -3 45 17 80 l6 10 12 -1 c8 0 12 0 13 2 4 6 26
7 35 1z m-644 -124 c5 -4 6 -6 7 -16 1 -19 -3 -25 -21 -34 -29 -14 -47 -11
-44 9 1 13 8 26 18 37 8 9 8 9 22 9 11 0 14 -1 18 -5z m843 -44 c6 -6 6 -22 0
-28 -6 -6 -18 -7 -28 -3 -14 6 -15 31 0 36 9 3 22 1 28 -5z m-423 -9 c11 -10
3 -28 -11 -28 -9 0 -16 6 -16 16 0 14 17 22 27 12z m-847 -14 c1 0 5 -3 8 -6
5 -5 6 -7 6 -18 0 -11 -1 -13 -6 -18 -6 -6 -7 -6 -18 -6 -11 0 -12 0 -18 6 -5
5 -6 7 -6 17 0 14 3 20 12 24 5 2 8 2 22 1z m454 -48 c5 -5 5 -11 0 -16 -10
-10 -27 5 -16 16 4 4 12 4 16 0z m-228 -16 c16 -5 19 -5 58 -5 l41 0 6 -5 c3
-4 7 -6 7 -6 1 0 2 -1 2 -3 0 -1 4 -10 9 -18 11 -20 11 -25 2 -42 -11 -20 -10
-36 5 -50 17 -16 17 -40 1 -55 -19 -18 -21 -26 -21 -91 0 -33 1 -58 2 -64 3
-14 3 -39 0 -45 -4 -7 -11 -11 -24 -11 -17 0 -25 6 -27 21 0 4 -3 13 -7 20 -5
12 -7 14 -16 19 l-11 5 -76 0 -76 0 -5 6 -5 5 0 151 0 151 6 6 6 6 23 -1 c19
0 26 1 37 4 37 11 35 11 63 2z m269 -54 c11 -10 3 -28 -11 -28 -9 0 -16 6 -16
16 0 14 17 22 27 12z m403 -106 c1 0 5 -3 8 -6 11 -11 7 -37 -7 -41 -9 -3 -37
-17 -42 -22 -17 -14 -37 -14 -53 0 -12 10 -28 17 -45 18 -19 1 -26 8 -26 25 0
24 22 32 47 17 7 -4 17 -8 27 -10 15 -4 15 -4 30 1 7 3 20 8 27 11 18 9 15 8
34 7z m372 -48 c7 -4 11 -15 7 -23 -8 -19 -35 -13 -35 7 0 15 15 23 28 16z
m-463 -87 c6 -4 6 -6 6 -20 0 -14 0 -16 -6 -20 -4 -4 -7 -5 -18 -5 -11 0 -14
1 -18 5 -6 4 -6 6 -6 20 0 14 0 16 6 20 4 4 7 5 18 5 11 0 14 -1 18 -5z m174
-44 c3 -5 3 -5 0 -10 -2 -3 -5 -5 -7 -5 -2 0 -5 2 -7 5 -3 5 -3 5 0 10 2 3 5
5 7 5 2 0 5 -2 7 -5z m428 -58 c12 -12 3 -31 -13 -31 -11 0 -18 7 -18 18 0 11
7 18 18 18 6 0 9 -1 13 -5z m-680 -51 c4 -6 4 -24 0 -30 -7 -8 -27 -9 -36 0
-4 4 -4 5 -3 21 1 15 28 22 39 9z m-768 -22 c4 -6 4 -24 -1 -30 -7 -9 -27 -9
-34 0 -5 6 -5 24 0 30 7 9 27 9 35 0z m1508 -4 c11 -10 3 -28 -11 -28 -9 0
-16 6 -16 16 0 14 17 22 27 12z"/>
<path d="M53 3087 c-13 -4 -16 -12 -10 -26 2 -6 5 -11 6 -11 1 -1 1 -2 0 -2
-2 0 7 -7 12 -9 8 -3 23 -3 29 -1 4 2 6 4 7 10 2 9 1 24 -1 23 -1 -1 -2 0 -2
2 0 3 -18 13 -28 15 -4 1 -10 0 -13 -1z"/>
<path d="M1850 2451 c-5 -8 -6 -11 -14 -44 -8 -29 -10 -53 -4 -59 9 -9 29 -3
43 12 13 15 18 28 19 50 0 18 -4 42 -8 45 -1 1 -9 2 -17 2 -15 0 -15 0 -19 -6z"/>
</g>
</svg>
