<?xml version="1.0" standalone="no"?>
<!DOCTYPE svg PUBLIC "-//W3C//DTD SVG 20010904//EN"
 "http://www.w3.org/TR/2001/REC-SVG-20010904/DTD/svg10.dtd">
<svg version="1.0" xmlns="http://www.w3.org/2000/svg"
 width="1107.000000pt" height="2870.000000pt" viewBox="0 0 1107.000000 2870.000000"
 preserveAspectRatio="xMidYMid meet">
<metadata>
Created by potrace 1.15, written by Peter Selinger 2001-2017
</metadata>
<g transform="translate(0.000000,2870.000000) scale(0.500000,-0.500000)"
fill="#000000" stroke="none">
<path d="M1132 3825 c-18 -6 -29 -7 -38 -2 -6 3 -24 3 -33 -1 -6 -3 -13 -12
-14 -18 0 -3 -3 -16 -7 -29 -8 -31 -9 -43 -2 -51 6 -8 17 -9 29 -5 4 1 10 2
14 2 8 -1 62 -28 65 -33 4 -7 2 -22 -3 -27 -8 -8 -18 -7 -48 5 -32 13 -31 12
-38 21 -6 8 -7 8 -19 9 -22 1 -21 2 -35 -40 -7 -20 -18 -51 -24 -68 -7 -20
-11 -33 -11 -39 0 -9 6 -31 11 -36 2 -4 2 -20 -2 -31 -4 -11 -7 -14 -28 -22
-24 -10 -26 -12 -48 -62 -15 -32 -50 -101 -72 -139 -6 -11 -11 -20 -11 -20 0
-1 -17 -30 -25 -42 -4 -6 -7 -12 -7 -14 0 -2 -2 -1 -5 3 l-6 7 -1 63 c-1 170
-1 167 -5 173 -5 10 -13 17 -28 24 -22 10 -23 13 -24 43 0 17 -1 20 -8 35 -8
18 -9 26 -2 33 9 8 27 3 27 -9 0 -1 1 -3 2 -4 1 -1 2 -3 2 -5 0 -2 2 -8 5 -14
13 -26 44 -24 78 6 3 3 11 10 17 17 10 11 10 12 10 24 0 15 -4 22 -20 35 -6 4
-13 10 -16 13 -3 2 -9 7 -13 10 -4 3 -9 7 -10 8 -1 1 -6 5 -10 8 -4 3 -20 15
-34 27 -15 12 -29 23 -33 26 -4 3 -8 6 -9 7 -2 2 -40 32 -56 45 -8 5 -35 16
-42 16 -1 0 -9 -2 -16 -4 -11 -4 -15 -6 -27 -18 -23 -23 -43 -46 -46 -54 -5
-9 -5 -25 -1 -40 7 -24 -6 -42 -28 -41 -12 0 -22 6 -27 16 -3 4 -5 8 -6 9 -1
1 -3 4 -5 7 -2 3 -6 7 -10 8 -4 2 -7 4 -7 5 0 1 1 1 -19 3 -12 1 -18 1 -35 -4
-26 -7 -34 -6 -46 5 -27 22 -26 21 -65 37 -14 6 -31 13 -37 16 -6 3 -12 5 -13
5 0 0 -7 3 -14 6 -7 3 -14 6 -14 6 -1 0 -6 2 -12 5 -6 3 -12 5 -12 5 -1 0 -5
2 -10 4 -30 13 -33 14 -45 10 -10 -3 -17 -11 -20 -20 -1 -5 -2 -33 -2 -85 0
-70 0 -77 4 -85 10 -24 25 -29 48 -14 7 4 13 10 13 11 1 2 3 5 4 7 4 5 9 27 9
42 0 16 5 22 20 22 20 0 26 -17 14 -39 -8 -15 -10 -26 -10 -45 0 -22 -2 -23
-33 -31 -8 -2 -24 -12 -30 -20 -4 -4 -12 -12 -16 -18 -9 -9 -15 -19 -21 -36
-1 -4 -2 -62 -1 -216 0 -237 -1 -213 17 -245 10 -17 10 -19 10 -30 -1 -9 -3
-13 -7 -19 -22 -29 -21 -24 -21 -118 0 -93 0 -94 16 -103 15 -8 24 -8 39 -1
17 8 20 15 19 44 0 21 0 21 6 27 6 6 7 6 18 6 11 0 12 0 18 -6 6 -6 6 -6 6
-27 0 -12 1 -28 2 -36 5 -25 2 -38 -8 -43 -2 -1 -16 -3 -31 -3 -53 -2 -73 -8
-81 -24 -3 -7 -4 -12 -4 -36 0 -15 1 -32 2 -36 5 -18 27 -30 53 -28 16 2 18 2
19 7 1 1 3 5 6 8 3 4 6 8 7 10 2 5 12 10 20 10 14 0 23 -18 13 -30 -3 -4 -22
-10 -33 -10 -5 0 -7 -1 -8 -4 -1 -2 -2 -5 -4 -7 -1 -1 -5 -8 -9 -15 -7 -14
-12 -18 -23 -19 -12 -1 -28 -9 -34 -15 -7 -8 -9 -18 -9 -39 0 -28 5 -36 25
-41 9 -2 15 -3 16 -2 3 3 18 2 33 -2 10 -3 21 -4 34 -4 17 0 19 0 23 -5 6 -6
7 -18 1 -25 -4 -5 -5 -5 -32 -5 -16 0 -35 -1 -42 -2 -9 -1 -15 -1 -16 1 -4 2
-29 -4 -34 -9 -8 -9 -8 -10 -8 -135 0 -98 1 -121 3 -127 3 -7 12 -16 15 -14 1
1 2 0 2 -1 0 -1 4 -2 9 -3 5 -1 9 -2 9 -4 0 -1 1 -1 2 1 2 3 3 3 9 -1 8 -4 9
-11 3 -17 -4 -4 -12 -5 -12 -2 0 2 0 2 -2 1 0 -2 -6 -4 -12 -5 -6 -1 -9 -2 -7
-2 4 0 4 -1 4 -10 -1 -12 6 -26 12 -26 2 0 3 -1 3 -1 0 -3 28 -1 42 2 6 1 19
10 25 17 4 4 8 8 9 8 1 0 2 1 2 2 0 3 16 6 19 4 7 -3 25 -7 34 -6 12 0 16 1
27 8 6 3 11 6 11 6 4 0 27 18 40 31 29 28 31 37 31 116 0 51 0 60 3 66 2 4 4
7 5 7 1 0 2 2 2 3 0 2 1 3 1 2 1 0 6 1 12 3 13 4 32 3 42 -4 5 -3 21 -6 32 -6
11 1 12 1 18 -5 l6 -6 -1 -44 c0 -45 2 -59 11 -78 7 -12 20 -25 30 -30 15 -7
51 -4 62 5 4 4 31 9 45 10 17 0 26 3 37 10 4 3 15 8 24 11 9 3 21 8 27 12 6 4
11 7 11 7 1 0 3 2 5 4 35 27 37 35 35 109 -1 29 -1 61 -1 72 1 11 1 34 1 52
l0 32 -9 20 -9 20 5 12 c3 7 5 18 6 25 l0 12 -9 10 c-22 21 -22 30 -1 49 18
16 17 12 18 131 0 112 0 115 -9 126 -6 6 -27 18 -33 18 -2 0 -5 2 -8 5 -9 9
-3 33 8 33 5 0 27 11 31 16 10 11 11 15 11 85 l0 64 5 8 c3 5 7 8 8 8 4 -2 18
5 39 19 10 7 19 13 20 13 1 0 6 1 13 2 14 3 29 4 33 1 2 -1 3 -1 4 0 2 3 20 4
27 1 25 -8 11 -33 -19 -33 -21 -1 -39 -11 -44 -28 -3 -6 -3 -26 -2 -104 0 -8
0 -29 -1 -47 -1 -28 -1 -34 3 -50 5 -24 5 -32 0 -55 -4 -18 -4 -24 -4 -119 l1
-100 10 -19 c12 -26 12 -32 0 -58 -9 -18 -10 -20 -11 -37 -1 -21 1 -29 10 -39
3 -4 6 -6 6 -5 0 0 3 -1 7 -2 4 -2 13 -3 21 -4 17 -1 22 -3 30 -18 3 -6 9 -14
13 -18 7 -7 14 -17 13 -19 0 -1 1 -2 2 -2 1 0 2 -5 3 -11 0 -7 1 -17 2 -23 3
-24 -6 -40 -23 -43 -22 -4 -41 -12 -52 -21 -12 -11 -18 -16 -34 -27 -16 -11
-41 -27 -43 -27 -3 0 -21 -14 -27 -21 -24 -25 -54 -83 -54 -104 0 -6 1 -12 1
-14 3 -9 22 -13 45 -10 9 1 10 1 15 -4 5 -5 5 -6 4 -18 -1 -16 -4 -21 -19 -35
l-12 -12 0 -15 c0 -18 -1 -17 24 -33 36 -25 86 -32 127 -19 37 12 83 45 86 62
2 11 0 28 -4 36 -10 19 -14 25 -16 25 -1 0 -5 1 -8 1 -3 0 -9 1 -12 2 -3 0 -9
0 -12 -1 -9 -3 -9 -3 -10 13 -1 8 -2 17 -3 22 -2 8 0 22 6 28 6 7 24 11 34 6
11 -4 15 -11 17 -26 0 -2 1 -4 1 -4 0 0 1 -2 1 -4 0 -2 1 -5 2 -7 1 -1 2 -5 2
-7 2 -8 11 -15 22 -15 9 0 21 4 21 8 0 1 1 2 2 1 3 -2 12 22 15 42 6 32 -1 48
-27 62 -11 6 -15 10 -18 20 -1 7 -2 11 0 17 3 11 5 14 18 23 18 11 27 24 26
40 0 18 -28 132 -33 135 -1 1 -1 2 0 2 1 0 4 5 6 11 2 6 5 12 5 12 3 2 14 27
14 31 0 2 3 7 6 10 5 5 7 6 17 6 11 0 12 0 20 -9 7 -7 11 -9 16 -9 25 -1 28
-1 34 3 l6 5 218 0 c120 0 218 0 218 1 1 0 4 -2 8 -6 4 -4 6 -7 5 -9 -2 -4 -1
-24 1 -31 1 -2 2 -5 2 -7 1 -1 6 -13 12 -25 12 -24 35 -77 45 -103 8 -22 16
-32 30 -42 18 -12 21 -20 15 -35 -1 -3 -4 -13 -6 -21 -4 -14 -4 -15 0 -31 2
-9 4 -18 4 -21 9 -47 12 -77 14 -120 2 -40 8 -53 33 -72 10 -8 41 -23 54 -27
12 -3 30 -1 32 3 0 1 2 2 3 2 1 0 5 2 8 5 12 9 18 11 34 11 19 0 33 3 39 8 3
3 4 7 4 18 0 14 -2 20 -10 28 -4 4 -6 11 -6 21 0 14 3 18 18 28 23 15 48 41
54 59 9 23 -1 67 -27 118 -9 16 -31 51 -37 56 -1 1 -5 6 -9 11 -21 27 -53 53
-65 53 -1 0 -8 3 -15 6 -11 5 -13 8 -23 22 -6 9 -13 18 -16 20 -3 1 -5 3 -6 4
-1 1 -5 4 -11 7 -10 5 -15 10 -15 13 0 3 9 11 14 13 2 1 4 2 4 3 0 1 1 2 3 2
1 0 5 3 9 6 6 6 6 7 6 19 0 12 0 14 -6 22 -15 20 -17 34 -6 51 11 17 37 26 50
17 10 -7 32 -5 40 4 4 5 4 5 4 120 0 71 -1 118 -2 122 -11 34 -13 41 -14 60 0
18 2 41 6 46 6 7 10 32 10 57 -1 34 -2 40 -20 59 -8 9 -14 17 -14 19 -1 5 -1
11 0 16 0 2 6 10 14 19 18 20 20 25 20 54 0 21 5 32 17 37 17 6 56 38 65 53 3
6 3 21 0 28 -3 8 -7 11 -35 32 -13 10 -24 19 -25 20 -1 2 -20 1 -27 -2 -4 -2
-10 -7 -13 -11 -13 -20 -21 -24 -38 -20 -16 3 -22 16 -18 36 4 22 3 40 -4 56
-3 8 -9 18 -12 22 -8 9 -46 37 -55 41 -15 7 -39 1 -43 -9 -3 -7 -2 -32 2 -36
3 -5 3 -11 -1 -16 -3 -3 -4 -4 -12 -1 -10 4 -27 5 -35 3 -6 -2 -19 -14 -29
-27 -5 -6 -20 -12 -34 -15 -24 -4 -31 -9 -43 -34 -8 -18 -11 -20 -27 -20 -11
0 -14 1 -18 5 -6 4 -6 6 -6 20 0 12 1 16 4 19 4 4 24 10 45 13 10 2 15 4 13 7
-1 1 0 2 1 2 3 0 46 29 52 33 1 2 3 3 4 3 1 0 3 2 5 4 2 2 6 5 9 6 3 1 6 3 7
4 1 1 8 7 16 12 14 10 24 21 24 26 1 2 2 8 4 15 2 6 3 14 3 16 0 8 6 13 21 16
8 2 15 3 16 4 6 1 9 5 13 13 4 9 4 10 0 29 -7 35 -7 44 -2 49 3 2 7 5 10 5 6
2 17 -6 19 -13 1 -3 3 -9 5 -13 9 -20 10 -25 10 -35 1 -10 5 -21 11 -27 4 -4
26 -1 33 5 2 1 6 5 8 7 9 7 12 13 12 26 0 17 -2 19 -29 42 -11 9 -19 14 -27
16 -13 5 -24 15 -28 27 -1 4 -3 8 -4 8 -1 0 -39 32 -54 45 -9 9 -25 10 -49 5
-10 -2 -21 1 -25 6 -2 2 -5 11 -7 19 -6 28 -7 31 -13 38 -5 5 -7 6 -19 7 l-14
0 -29 -29 c-16 -16 -37 -37 -46 -46 -33 -35 -34 -36 -90 -37 l-43 -1 -16 -7
c-22 -9 -30 -10 -36 -4 -7 7 -7 15 2 26 4 4 8 8 10 8 1 0 6 4 11 9 5 5 15 14
23 19 17 11 24 18 32 30 7 11 10 14 24 22 18 12 24 18 24 30 1 7 0 11 -4 16
-9 13 -17 17 -87 37 -71 20 -76 21 -89 13 -6 -3 -19 -26 -19 -33 0 -17 -33
-25 -46 -11 -8 7 -9 28 -3 36 2 3 0 24 -4 32 -5 10 -16 11 -37 5z m114 -189
c7 -8 5 -22 -9 -58 -9 -23 -9 -25 -1 -47 13 -37 21 -49 38 -55 4 -1 27 -2 65
-2 38 0 61 -1 64 -2 7 -4 9 -8 6 -15 -2 -3 -7 -17 -12 -30 -8 -21 -20 -51 -41
-102 -6 -13 -10 -19 -24 -33 -21 -21 -25 -24 -37 -24 -10 0 -16 3 -28 14 -15
15 -20 17 -56 17 l-32 0 -20 -10 c-29 -14 -33 -13 -52 15 -5 8 -14 18 -19 23
-17 15 -22 40 -10 51 3 3 7 6 9 6 12 1 17 0 26 -3 11 -4 33 -3 40 3 3 2 33 40
50 63 6 7 7 35 1 42 -1 1 -2 3 -2 4 -1 6 -12 33 -14 37 -1 2 -3 4 -3 6 -1 2
-4 7 -7 11 -3 6 -5 11 -5 19 0 15 4 20 20 28 15 8 25 16 30 27 4 10 13 19 17
19 1 0 4 -2 6 -4z m361 -76 c4 -6 4 -24 -1 -30 -7 -9 -27 -9 -34 0 -5 6 -5 24
0 30 7 9 27 9 35 0z m-1126 -23 l6 -6 -1 -70 c0 -46 1 -73 2 -77 3 -11 10 -18
24 -25 7 -3 12 -7 12 -8 0 -1 2 -3 4 -4 3 -3 3 -3 0 -4 -2 -1 -4 -3 -4 -4 0
-1 -5 -5 -12 -8 -21 -10 -27 -21 -26 -48 1 -16 1 -16 -5 -22 l-6 -6 -49 0 -49
0 -5 6 c-2 3 -6 5 -7 5 -3 0 -4 6 -2 9 1 2 -15 11 -24 13 -6 2 -11 4 -11 5 -1
1 -2 1 -2 -2 0 -4 -4 -3 -35 4 -21 5 -27 10 -27 18 0 6 6 13 11 13 10 0 51
-16 51 -20 0 -3 22 4 30 9 4 3 6 5 5 5 0 0 0 3 2 7 2 4 3 12 3 19 0 34 -16 46
-67 49 -32 1 -37 4 -37 17 0 12 5 15 39 21 59 10 66 17 65 70 l-1 28 6 6 6 6
49 0 49 0 6 -6z m64 -41 c3 -1 7 -7 10 -12 3 -5 11 -14 18 -20 l12 -12 0 -15
c0 -14 0 -16 -6 -20 -4 -4 -7 -5 -18 -5 -21 0 -25 5 -25 34 0 11 -1 26 -3 33
-2 20 2 26 12 17z m996 -13 c16 -11 21 -42 9 -56 -9 -11 -31 -11 -43 0 -13 10
-10 47 3 55 9 6 23 6 31 1z m-1362 -48 c4 -4 5 -7 5 -15 0 -14 -6 -20 -20 -20
-14 0 -20 6 -20 20 0 14 6 20 20 20 8 0 11 -1 15 -5z m860 -125 c10 -9 3 -26
-10 -26 -8 0 -15 7 -15 15 0 13 16 20 25 11z m-441 -59 c12 -5 18 -21 14 -35
-3 -13 -8 -17 -25 -21 -8 -2 -15 -4 -17 -4 -1 -1 -5 2 -8 5 -9 10 -9 38 0 49
7 8 24 11 36 6z m1094 -31 c5 -5 6 -7 6 -17 0 -16 -7 -23 -23 -23 -10 0 -12 1
-17 6 -5 5 -6 7 -6 17 0 16 7 23 23 23 10 0 12 -1 17 -6z m-626 -33 c21 -9 20
-45 -2 -54 -10 -5 -28 -1 -34 6 -9 10 -9 32 0 42 7 8 24 11 36 6z m169 -16 l6
-6 0 -102 0 -102 -6 -6 -6 -6 -38 0 -38 0 -6 6 -6 6 0 102 0 102 6 6 6 6 38 0
38 0 6 -6z m358 0 l6 -6 -1 -25 c0 -28 3 -40 11 -44 5 -2 8 -2 24 -5 2 0 5 0
7 2 3 2 24 2 30 -1 7 -4 11 -11 11 -24 0 -19 -8 -27 -27 -27 -7 0 -13 1 -14 2
-2 2 -5 2 -7 2 -2 0 -7 -1 -11 -2 -21 -3 -24 -10 -24 -52 l1 -30 -6 -6 -6 -6
-37 0 -37 0 -6 6 -6 6 0 102 0 102 6 6 6 6 37 0 37 0 6 -6z m-1045 -2 c2 -4 3
-7 2 -10 -1 -3 -1 -5 -1 -5 1 0 -1 -2 -2 -4 -5 -4 -13 -4 -17 1 -7 6 -4 15 7
21 6 3 6 3 11 -3z m-296 -10 l-5 -5 -4 4 -5 5 4 4 5 5 4 -4 5 -5 -4 -4z m-89
7 c11 -10 3 -28 -11 -28 -9 0 -16 6 -16 16 0 14 17 22 27 12z m1601 0 c5 -5 5
-15 0 -20 -9 -9 -24 -2 -24 10 0 8 6 14 14 14 3 0 8 -2 10 -4z m-1287 -29 c8
-8 8 -3 9 -153 l1 -143 -6 -6 -6 -6 -50 1 -50 1 -9 6 c-6 3 -10 6 -10 7 0 1
-3 6 -7 10 -13 16 -15 30 -7 42 13 19 19 30 21 36 2 5 3 31 2 98 l0 91 6 6 6
6 22 -1 c16 0 26 1 39 4 18 4 36 4 39 1z m172 -94 c5 -2 13 -9 13 -11 0 -4 12
-20 18 -24 6 -4 28 -14 28 -13 0 1 2 -1 4 -3 2 -2 4 -5 4 -7 0 -5 -6 -15 -10
-16 -2 -1 -4 -2 -4 -3 0 -1 -1 -2 -3 -2 -3 0 -17 -13 -27 -26 -8 -9 -18 -13
-30 -11 -16 3 -19 8 -22 32 -1 9 -5 26 -8 36 -9 28 -5 41 12 48 5 3 19 3 25 0z
m760 -5 c10 -9 3 -26 -10 -26 -8 0 -15 7 -15 15 0 13 16 20 25 11z m-431 -38
c5 -5 5 -15 0 -20 -9 -9 -24 -2 -24 10 0 8 6 14 14 14 3 0 8 -2 10 -4z m-718
-119 c1 0 4 -6 8 -12 3 -5 8 -13 11 -16 3 -3 5 -7 5 -8 0 -1 1 -1 2 0 1 1 2 0
2 -1 0 -1 2 -2 4 -3 7 -2 18 -15 18 -22 0 -8 -7 -15 -15 -15 -6 0 -9 2 -20 14
-7 7 -14 13 -15 13 -5 1 -32 16 -34 19 -3 6 -2 23 2 28 5 7 23 9 32 3z m375
-29 c4 -6 4 -24 -1 -30 -7 -9 -27 -9 -34 0 -5 6 -5 24 0 30 7 9 27 9 35 0z
m983 -22 c3 -2 5 -5 6 -8 1 -2 2 -6 4 -8 2 -2 5 -7 8 -12 3 -4 5 -7 6 -7 1 1
2 0 3 -2 1 -3 3 -3 8 -2 5 1 22 2 34 1 2 0 6 -3 9 -6 5 -5 6 -7 6 -17 0 -18
-7 -28 -25 -35 -17 -7 -26 -3 -28 12 -2 13 -7 30 -9 30 -1 0 -2 1 -2 3 0 1 -1
3 -3 4 -2 0 -3 0 -3 -1 0 -1 -1 -2 -3 -3 -2 -1 -3 0 -2 2 1 1 1 1 -2 -1 -1 -1
-6 -3 -9 -4 -6 -1 -7 -3 -12 -14 -6 -13 -6 -14 -6 -48 0 -37 2 -45 10 -52 6
-5 27 -11 36 -10 9 1 16 -6 16 -17 0 -11 -7 -18 -16 -17 -17 1 -40 -10 -43
-20 -8 -26 -25 -46 -43 -50 -13 -3 -65 14 -71 23 -5 7 -4 22 3 36 12 24 12 26
12 121 l-1 87 6 6 c6 6 6 6 26 5 19 0 25 1 60 9 7 1 20 -1 25 -5z m-383 -10
c4 -3 7 -9 8 -13 1 -3 3 -10 5 -14 2 -4 5 -13 7 -20 3 -11 3 -12 -1 -26 -2 -8
-5 -15 -6 -16 -1 -1 -3 -7 -5 -13 -5 -17 -5 -125 0 -137 5 -14 16 -16 51 -12
11 1 12 1 17 -4 7 -7 7 -23 0 -30 -5 -5 -6 -5 -27 -4 -11 0 -28 0 -37 -1 -18
-3 -20 -2 -24 14 -6 22 -15 32 -30 35 -3 0 -17 1 -30 1 -24 1 -25 1 -33 -5 -4
-3 -8 -6 -8 -7 0 -4 0 -5 -2 -7 -1 -1 -2 -9 -3 -18 -1 -14 -2 -16 -7 -21 -6
-6 -7 -6 -18 -6 -11 0 -12 0 -18 6 -9 8 -8 23 0 40 5 10 7 16 7 28 l1 15 -7 5
c-6 4 -11 5 -20 6 -12 0 -13 0 -20 -7 -9 -9 -19 -10 -38 -3 -23 8 -33 19 -33
36 0 9 1 11 6 16 6 6 7 6 19 6 13 -1 30 -9 39 -19 2 -2 7 -7 10 -11 3 -3 7 -6
8 -5 1 1 2 0 2 -1 0 -2 4 -2 13 -2 12 1 14 2 21 10 5 5 9 8 13 8 7 0 7 0 14 3
4 1 7 2 8 1 0 0 1 0 1 2 0 1 1 2 3 2 1 0 6 3 10 6 6 6 7 8 7 17 0 15 -6 21
-39 43 -5 3 -44 21 -52 24 -7 3 -31 20 -34 24 -8 14 0 30 15 30 9 0 23 -9 30
-18 8 -11 17 -15 33 -15 16 0 28 6 38 17 7 9 13 23 13 30 -1 3 1 7 5 11 l6 6
38 0 38 0 6 -7z m-916 -104 c10 -9 3 -26 -10 -26 -8 0 -15 7 -15 15 0 13 16
20 25 11z m162 -15 c6 -6 6 -6 5 -21 0 -16 3 -27 11 -34 4 -4 26 -13 31 -13 2
0 4 -2 6 -5 2 -5 2 -6 -1 -11 -2 -3 -4 -5 -6 -5 -3 1 -25 -8 -30 -12 -2 -2 -5
-6 -7 -10 -4 -8 -4 -13 -4 -96 l1 -89 -6 -6 -6 -6 -49 0 -49 0 -6 6 -6 6 1 43
c0 50 -1 57 -12 68 -14 14 -22 15 -47 3 -18 -8 -26 -9 -32 -3 -7 6 -7 18 0 23
3 4 8 5 30 6 23 1 27 2 33 6 11 7 22 18 24 24 3 6 6 119 4 119 -1 0 1 3 5 7
l6 6 49 0 49 0 6 -6z m1257 1 c5 -5 5 -15 0 -20 -9 -9 -24 -2 -24 10 0 8 6 14
14 14 3 0 8 -2 10 -4z m-300 -33 l-5 -5 -4 4 -5 5 4 4 5 5 4 -4 5 -5 -4 -4z
m-751 -24 c11 -7 13 -29 5 -42 -11 -18 -22 -24 -45 -24 -26 0 -39 7 -39 19 0
8 4 13 18 24 6 5 12 10 14 12 8 8 14 13 20 14 9 2 22 1 27 -3z m312 -154 c3
-3 3 -3 0 -6 -4 -5 -11 1 -7 6 4 4 4 4 7 0z m-348 -63 c10 -9 4 -24 -10 -27
-5 -1 -7 0 -11 5 -12 16 7 35 21 22z m-34 -69 c3 -3 3 -3 0 -6 -4 -5 -11 1 -7
6 4 4 4 4 7 0z m87 -15 c5 -5 5 -11 0 -16 -10 -10 -27 5 -16 16 4 4 12 4 16 0z
m-412 -82 c2 -3 4 -9 5 -18 1 -16 6 -29 14 -37 15 -16 15 -36 -2 -41 -7 -2
-37 4 -52 10 -13 5 -18 12 -18 27 0 7 2 13 5 19 9 15 25 37 29 40 5 5 15 5 19
0z m1531 -56 c14 -8 34 -11 42 -7 2 1 7 1 12 1 11 0 17 -6 17 -19 0 -20 -18
-26 -38 -12 -9 6 -11 7 -22 7 -6 0 -12 -1 -13 -2 -1 -1 -2 -2 -3 -1 -5 3 -9
-24 -5 -32 4 -5 19 -21 23 -22 6 -2 9 -12 5 -16 -3 -3 -4 -3 -19 1 -18 5 -21
6 -40 8 -17 2 -22 5 -23 19 -2 13 0 21 8 30 4 4 11 15 15 24 15 30 20 33 41
21z m-1159 -2 c7 -6 8 -22 2 -29 -10 -9 -19 -3 -21 13 -1 9 -1 10 4 15 6 6 8
6 15 1z m-446 -78 c8 -7 9 -24 2 -32 -6 -8 -18 -11 -27 -8 -12 4 -15 9 -15 22
0 11 1 13 6 18 5 5 7 6 17 6 10 0 12 -1 17 -6z m723 -98 c3 -18 -12 -32 -20
-19 -3 4 -3 6 -1 11 3 8 11 18 13 17 0 -1 1 -1 1 1 0 6 6 -2 7 -10z"/>
<path d="M1350 2435 c-7 -8 -8 -9 -10 -21 -2 -10 -1 -11 9 -38 6 -15 14 -39
19 -53 5 -14 11 -34 14 -43 4 -9 7 -21 8 -25 3 -12 12 -29 19 -36 3 -3 13 -9
20 -12 16 -8 18 -10 20 -23 1 -5 5 -18 8 -28 15 -40 14 -45 -9 -66 -20 -17
-36 -43 -42 -67 -3 -12 1 -29 10 -42 12 -16 44 -37 72 -46 24 -8 75 -3 82 8 3
4 5 21 3 27 -1 4 -4 7 -11 10 -18 9 -22 18 -15 44 6 23 0 48 -15 70 -18 25
-19 30 -12 38 6 7 14 5 28 -8 7 -7 19 -16 27 -20 7 -5 14 -10 16 -13 4 -5 4
-21 0 -33 -3 -10 -3 -36 0 -48 0 -3 2 -8 2 -12 1 -3 2 -7 3 -7 1 -1 1 -2 1 -4
-4 -5 -3 -7 4 -5 3 1 7 2 8 3 2 0 3 1 4 1 1 1 3 1 4 1 1 -1 5 0 9 2 3 1 6 2 7
2 0 -1 1 -1 1 1 0 1 2 5 5 9 28 38 42 114 26 148 -6 12 -8 15 -26 24 -19 10
-23 15 -23 28 0 5 2 15 4 21 4 11 6 26 3 34 -1 4 -15 25 -19 28 0 1 -5 6 -9
11 -13 16 -44 47 -63 61 -3 3 -9 7 -12 10 -8 7 -51 35 -60 40 -7 4 -13 5 -31
6 l-23 1 -6 6 c-4 4 -9 10 -12 12 -10 11 -29 13 -38 4z"/>
<path d="M1162 2412 c-2 0 -4 -1 -3 -2 1 -1 0 -2 -1 -2 -2 0 -7 -5 -11 -12 -4
-7 -11 -15 -15 -19 -13 -10 -19 -23 -19 -39 1 -4 2 -22 4 -40 4 -38 6 -134 3
-165 -3 -33 -3 -49 0 -52 2 -2 3 -4 2 -4 -2 0 7 -13 13 -18 3 -3 8 -9 10 -12
5 -8 2 -13 -14 -23 -14 -8 -17 -13 -17 -27 0 -9 1 -11 10 -20 34 -37 77 -54
115 -47 32 6 41 16 45 54 7 62 12 70 33 51 4 -4 30 -4 35 1 4 3 11 23 13 39 5
34 4 42 -5 52 -7 8 -21 13 -38 13 -14 0 -20 5 -20 19 0 8 1 11 12 24 17 21 17
26 6 64 -4 15 -9 31 -11 35 -2 7 -15 27 -19 30 -1 1 -5 6 -10 12 -8 10 -21 24
-34 38 -8 7 -38 35 -47 42 -4 3 -8 7 -9 8 -1 2 -17 2 -28 0z"/>
</g>
</svg>
