<?xml version="1.0" standalone="no"?>
<!DOCTYPE svg PUBLIC "-//W3C//DTD SVG 20010904//EN"
 "http://www.w3.org/TR/2001/REC-SVG-20010904/DTD/svg10.dtd">
<svg version="1.0" xmlns="http://www.w3.org/2000/svg"
 width="1109.000000pt" height="2870.000000pt" viewBox="0 0 1109.000000 2870.000000"
 preserveAspectRatio="xMidYMid meet">
<metadata>
Created by potrace 1.15, written by Peter Selinger 2001-2017
</metadata>
<g transform="translate(0.000000,2870.000000) scale(0.500000,-0.500000)"
fill="#000000" stroke="none">
<path d="M426 3834 c-11 -4 -12 -5 -30 -26 -12 -14 -41 -16 -74 -6 -21 7 -26
7 -38 -1 -12 -8 -16 -25 -8 -37 6 -9 12 -22 12 -27 0 -3 -5 -14 -10 -25 l-11
-20 -1 -127 c0 -86 0 -128 2 -133 5 -16 19 -27 33 -25 4 1 9 1 11 1 3 1 10 10
17 24 8 17 12 19 26 17 17 -1 40 3 45 9 12 13 45 15 53 3 3 -4 4 -23 1 -26 -3
-4 -8 -31 -8 -46 0 -10 -1 -17 -3 -21 -5 -10 -9 -34 -8 -46 2 -15 -3 -22 -14
-22 -8 0 -13 5 -22 23 -7 16 -13 22 -27 31 -6 4 -10 7 -10 8 0 5 -13 10 -24
11 -12 0 -26 -4 -26 -8 0 -2 -5 -6 -11 -10 -6 -5 -17 -14 -25 -21 -13 -12 -14
-14 -15 -24 -1 -6 -1 -16 -1 -21 0 -6 -1 -12 -3 -16 -2 -3 -3 -5 -3 -4 0 2 -4
3 -9 4 -10 2 -17 6 -14 9 1 0 3 3 4 5 0 1 3 3 5 3 3 0 3 2 2 19 0 14 -1 18 -3
20 -18 11 -21 20 -13 38 7 15 5 35 -3 42 -3 3 -7 5 -9 6 -5 2 -10 12 -10 21 0
16 -2 17 -18 16 -19 -1 -27 -8 -24 -19 3 -11 1 -69 -3 -99 -11 -87 -43 -172
-80 -211 -10 -11 -11 -12 -11 -21 0 -5 1 -12 2 -15 3 -6 15 -12 28 -14 5 -1
14 -3 21 -5 37 -12 48 -1 42 42 -1 7 -1 9 3 13 10 10 28 4 28 -10 0 -3 -3 -11
-6 -18 -8 -16 -10 -34 -5 -41 2 -3 3 -9 3 -15 0 -19 -15 -24 -39 -14 -6 3 -17
7 -25 9 l-13 3 -26 -7 c-43 -12 -56 -20 -61 -38 -3 -10 -2 -19 2 -37 15 -60
63 -101 118 -102 22 0 43 8 49 17 5 9 4 24 -2 37 -11 22 -5 37 14 37 5 0 11
-1 13 -2 7 -6 13 -8 26 -8 9 0 14 1 15 3 0 1 1 1 1 0 0 -4 6 -11 8 -10 1 1 4
-2 6 -5 3 -4 10 -13 17 -21 18 -18 18 -24 1 -42 -12 -13 -12 -13 -12 -25 0
-15 0 -15 21 -26 20 -10 23 -13 23 -27 0 -14 -3 -17 -23 -27 -28 -14 -31 -21
-31 -64 0 -47 6 -55 49 -57 18 -1 38 2 49 8 8 4 28 25 28 29 0 11 11 25 26 32
5 3 10 6 12 8 4 4 19 25 19 26 0 1 2 6 5 11 5 12 9 25 11 37 2 13 6 19 13 22
13 5 36 2 36 -6 0 -2 1 -2 2 -1 0 2 6 2 11 2 10 0 24 4 22 7 -1 0 0 3 2 5 3 4
3 19 2 106 0 96 0 102 -4 110 -4 8 -18 23 -27 28 -18 11 -17 33 2 53 6 6 8 11
9 17 2 13 0 16 -12 31 -19 22 -19 42 -1 56 19 13 23 18 28 27 l5 9 4 -7 c3 -5
5 -10 5 -11 0 -2 1 -4 2 -4 1 0 2 -8 2 -17 0 -20 4 -32 14 -53 8 -15 9 -19 8
-37 0 -8 0 -10 4 -24 3 -11 13 -20 35 -30 24 -12 52 -12 70 0 2 1 4 2 5 2 4 0
11 7 14 14 5 11 17 28 21 30 8 3 21 1 26 -4 10 -10 4 -35 -8 -35 -5 0 -23 -10
-25 -14 -1 -2 -3 -8 -3 -14 -3 -21 10 -31 43 -31 21 0 26 -2 26 -12 0 -9 -6
-13 -22 -13 -16 0 -34 -4 -40 -10 -9 -8 -10 -15 -8 -36 0 -3 3 -8 12 -19 8 -9
17 -34 17 -47 0 -13 -4 -20 -13 -25 -10 -7 -24 -23 -26 -31 -3 -8 -1 -26 2
-26 1 0 2 -1 2 -3 0 -2 5 -8 11 -14 6 -7 14 -18 18 -25 7 -15 8 -16 34 -43 13
-14 23 -23 30 -26 12 -6 18 -16 16 -24 0 -2 -7 -11 -14 -19 -16 -16 -19 -19
-19 -22 0 -4 -9 -16 -15 -19 -9 -6 -37 -3 -37 3 0 1 -7 1 -15 1 -16 0 -18 -1
-24 -15 -3 -6 -3 -12 -2 -39 1 -33 1 -33 -5 -53 -3 -12 -7 -30 -8 -40 -1 -10
-3 -25 -4 -32 -2 -13 -2 -20 4 -42 5 -16 4 -26 -2 -42 -7 -20 -3 -44 8 -47 2
-1 4 -2 4 -3 0 -3 12 -8 14 -7 1 1 2 0 2 -1 0 -2 10 -3 17 0 2 1 8 2 12 3 17
3 26 6 36 12 21 13 41 8 41 -10 0 -14 -4 -23 -12 -28 -9 -6 -22 -7 -30 -3 -5
2 -21 7 -34 9 -4 1 -13 3 -21 5 -8 2 -20 4 -26 4 -10 1 -12 0 -17 -5 -6 -7
-16 -24 -17 -30 0 -2 -2 -6 -3 -10 -2 -6 2 -19 16 -47 5 -10 10 -23 11 -27 1
-8 1 -8 -6 -12 -5 -1 -13 -3 -18 -4 -21 -2 -38 -11 -44 -22 -7 -12 -5 -22 11
-53 18 -37 20 -40 25 -40 8 0 11 -2 15 -5 5 -5 32 -5 40 -1 3 2 11 10 17 18
10 12 11 15 11 23 0 15 -2 20 -14 31 -9 9 -12 14 -16 24 -6 16 -4 20 6 25 5 2
14 6 21 9 14 7 28 10 35 9 8 -1 32 4 38 8 5 4 24 38 34 63 3 8 7 16 8 18 2 3
3 10 5 22 0 4 3 11 6 17 3 5 5 11 5 12 0 2 3 8 7 15 10 19 14 28 21 50 8 24 7
31 -2 55 -3 8 -6 17 -6 19 0 4 9 14 18 19 7 5 7 5 7 20 0 16 -3 21 -11 24 -2
1 -4 3 -5 5 0 1 -2 5 -3 6 -5 6 7 16 23 21 6 2 19 14 21 21 5 10 18 109 15
111 0 1 2 4 6 7 6 6 6 6 37 6 l31 1 6 -6 6 -6 0 -119 c0 -66 1 -121 1 -124 7
-25 7 -43 0 -62 0 -2 -1 -28 -1 -58 l-1 -55 -6 -6 c-3 -4 -6 -6 -7 -6 0 1 -8
0 -17 -1 -18 -3 -27 -8 -31 -16 -4 -6 -4 -30 -1 -33 5 -5 6 -18 2 -33 -5 -20
-2 -40 7 -49 3 -2 4 -5 4 -6 -1 0 0 -1 1 -1 1 0 2 -1 1 -1 0 -1 0 -3 1 -4 1
-1 3 -6 4 -12 1 -5 3 -16 5 -24 2 -7 4 -19 4 -27 1 -7 2 -14 2 -16 1 -1 2 -16
2 -32 2 -42 7 -56 25 -63 30 -12 123 17 165 50 16 12 39 37 44 47 1 2 2 4 3 4
1 0 2 1 2 3 0 1 3 5 6 9 4 5 6 6 7 3 0 -2 0 -3 -1 -3 0 0 -1 -4 -1 -10 -1 -12
-6 -30 -18 -59 -10 -25 -10 -28 -6 -42 4 -15 17 -25 31 -25 16 0 21 3 61 43
41 41 50 51 74 83 28 37 37 51 37 60 0 15 -7 26 -23 36 -16 10 -16 41 0 49 8
5 24 4 33 0 7 -4 24 -3 35 2 5 3 8 6 13 16 3 7 6 14 6 15 0 1 2 6 5 12 6 12
31 86 31 92 0 1 1 5 3 9 1 4 3 14 4 21 1 6 2 12 3 12 2 0 5 17 3 23 -1 3 -2 5
-4 5 -2 0 -3 1 -3 2 0 0 -4 1 -9 1 -10 1 -21 8 -17 12 0 1 -2 1 -6 0 -4 0 -6
0 -5 1 1 1 0 2 0 2 -1 0 -2 2 -3 5 0 7 -5 16 -15 26 -12 12 -13 26 -4 35 5 5
6 5 30 5 31 1 44 6 52 22 8 15 7 23 -6 34 -5 4 -23 12 -28 11 -15 -3 -22 4
-28 33 -1 3 -4 12 -7 21 -7 19 -7 24 2 34 8 9 15 9 16 1 0 -6 4 -8 17 -9 18
-1 24 1 28 10 2 4 4 7 4 8 1 4 8 23 9 24 3 2 10 16 10 18 -1 2 2 5 5 8 6 6 7
6 34 6 19 0 29 -1 35 -3 5 -2 12 -4 15 -4 3 -1 11 -2 17 -3 6 -1 13 -1 16 0 6
3 20 0 25 -5 10 -9 10 -33 0 -42 -5 -5 -19 -8 -25 -5 -6 2 -28 -4 -33 -9 -11
-10 -11 -13 -11 -73 l1 -55 9 -19 c5 -10 11 -24 12 -30 3 -17 9 -27 17 -33 12
-9 17 -15 17 -22 0 -7 -7 -15 -13 -15 -3 0 -10 -2 -16 -4 -25 -9 -27 -14 -27
-79 l0 -51 -5 -7 c-4 -4 -7 -6 -10 -5 -7 1 -53 -8 -64 -12 -6 -2 -13 -4 -17
-4 -20 -3 -43 -30 -39 -48 0 -4 2 -10 2 -14 l2 -8 14 0 c13 0 21 2 20 5 -1 1
0 1 0 1 1 -1 3 4 6 10 6 14 9 17 21 18 10 0 12 0 16 -5 8 -8 5 -28 -6 -37 -7
-6 -8 -34 -2 -41 17 -20 26 -63 31 -148 2 -34 20 -50 53 -44 24 5 37 14 46 31
11 21 22 24 44 16 18 -7 37 -6 46 2 2 2 7 6 11 9 21 15 40 40 54 68 16 32 12
44 -17 68 -12 8 -16 20 -12 33 3 13 7 17 20 24 17 9 28 19 33 32 l5 10 0 307
c0 270 0 307 -3 315 -4 11 -6 15 -15 27 -15 19 -15 35 0 54 13 17 18 30 18 46
0 9 -4 25 -6 25 -1 0 -3 2 -5 4 -6 5 -22 9 -36 8 -15 0 -21 5 -21 20 0 15 6
20 21 20 14 -1 30 3 36 8 2 2 4 4 5 4 3 0 6 19 6 41 0 29 -3 39 -17 60 -8 12
-9 15 -9 25 0 10 1 13 9 25 16 24 17 27 17 91 0 61 -1 66 -12 75 -5 4 -18 11
-21 11 -1 0 -5 3 -8 6 l-5 5 6 6 c3 3 6 5 7 5 3 0 16 7 22 11 9 8 11 18 11 49
-1 27 -1 28 -6 33 -5 5 -7 6 -19 5 -9 0 -13 1 -13 2 0 2 -1 1 -2 -1 -4 -10
-33 -24 -50 -24 -17 1 -23 9 -21 31 1 8 2 27 2 41 0 28 1 31 14 31 6 0 9 -2
21 -15 8 -8 19 -18 25 -22 5 -4 9 -9 9 -11 0 -2 1 -2 2 -1 1 2 6 3 14 3 11 -1
13 0 17 4 5 5 6 8 7 26 1 23 5 31 19 37 19 7 49 32 60 48 6 9 7 21 2 32 -2 5
-18 21 -27 26 -2 1 -6 4 -9 7 -3 3 -7 6 -7 6 -1 0 -5 3 -9 7 -5 4 -9 7 -9 7
-1 0 -5 3 -8 6 -4 3 -16 10 -27 16 -15 8 -22 13 -29 21 -15 17 -36 36 -46 42
-2 1 -4 2 -4 3 -5 7 -34 9 -48 4 -4 -2 -14 -4 -22 -4 -8 0 -17 -1 -19 -2 -2
-2 -4 -3 -5 -2 -6 1 -27 -18 -46 -43 -12 -15 -14 -34 -9 -57 2 -7 -5 -23 -11
-26 -3 -2 -10 -3 -17 -3 -13 0 -21 5 -24 14 -5 17 -6 21 -10 29 -8 16 -18 23
-48 33 -9 3 -20 7 -25 9 -25 10 -46 -8 -47 -39 0 -10 -1 -12 -5 -16 -5 -4 -6
-4 -17 -2 -7 1 -14 3 -17 5 -7 5 -12 24 -13 44 -1 28 -8 43 -22 50 -27 14 -52
20 -63 14 -2 -1 -4 -1 -4 -1 0 1 -2 -1 -5 -5 -10 -13 -6 -28 9 -42 5 -5 10
-15 10 -22 0 -7 -5 -18 -16 -34 -4 -6 -8 -12 -8 -13 0 -2 -9 -9 -14 -11 -5 -2
-17 8 -26 21 -7 11 -20 24 -30 32 -2 1 -6 4 -10 7 -4 3 -11 6 -15 7 -11 2 -21
7 -28 14 -4 4 -7 8 -7 9 0 1 -2 3 -5 6 -5 5 -7 5 -24 5 -20 0 -27 3 -27 11 0
2 -2 8 -5 12 -9 14 -30 16 -41 4 -3 -3 -15 -17 -28 -32 -13 -15 -26 -30 -30
-34 -6 -6 -21 -14 -26 -14 -2 0 -7 -2 -12 -4 -7 -4 -10 -7 -13 -15 -6 -12 -6
-15 -2 -28 3 -10 4 -37 1 -37 -1 0 -1 -5 3 -20 2 -11 12 -19 25 -21 6 -1 15
-10 14 -15 -1 -9 8 -28 12 -25 1 1 2 0 2 -1 0 -1 3 -2 8 -3 4 -1 9 -2 12 -3 4
-1 6 -1 7 1 1 4 16 4 20 -1 4 -5 23 -59 23 -67 0 -9 -7 -15 -17 -15 -11 0 -15
4 -19 22 -2 7 -5 15 -5 17 -1 2 -2 7 -3 11 -1 4 -2 6 -2 4 0 -2 -3 -3 -14 -2
-10 0 -14 0 -14 -2 0 -1 -1 -2 -2 -1 -1 1 -3 -3 -5 -9 -3 -8 -3 -24 -3 -133
l1 -124 -6 -6 c-6 -6 -6 -6 -30 -6 -24 0 -24 0 -30 6 -5 5 -6 7 -5 14 2 22
-14 39 -40 44 -4 1 -8 2 -10 3 -5 2 -26 2 -40 -1 -14 -3 -15 -3 -20 2 -8 7 -2
18 10 18 4 1 11 2 16 3 5 1 11 3 14 3 7 2 10 7 10 17 0 10 -4 17 -12 25 -11
10 -14 15 -14 27 0 16 4 20 48 35 15 5 27 15 33 27 5 11 5 11 5 80 1 59 0 71
-3 80 -1 6 -3 12 -3 13 -1 2 -9 5 -28 11 -7 2 -15 5 -18 7 -7 4 -36 5 -41 1
-3 -1 -6 -4 -7 -6 -2 -2 -13 -8 -25 -15 -12 -6 -24 -12 -25 -14 -3 -3 -15 -26
-15 -29 -1 -4 -9 -19 -11 -21 -9 -8 -31 -6 -37 2 -2 2 -3 3 -3 1 0 -1 -4 -2
-11 -1 -20 0 -27 -8 -27 -31 0 -14 5 -33 9 -36 3 -2 31 -3 31 -1 0 3 16 17 21
18 14 4 25 -4 25 -17 0 -9 -4 -15 -17 -25 -5 -5 -14 -13 -20 -19 -5 -5 -10
-11 -12 -11 -4 -3 -11 -12 -12 -15 0 -2 -1 -4 -1 -5 -1 -1 -1 -6 -1 -12 0 -5
-1 -9 -2 -9 -1 0 0 -1 2 -3 4 -3 17 -5 17 -3 0 4 23 3 29 -1 7 -4 9 -12 9 -26
-2 -16 -7 -21 -25 -21 -7 0 -13 1 -13 2 0 1 -2 1 -6 0 -10 -3 -30 4 -37 12 -2
2 -5 4 -6 4 -1 0 -3 1 -4 3 -1 2 -4 3 -15 3 -16 0 -18 -1 -25 -16 -10 -20 -17
-18 -35 9 -14 22 -17 30 -14 43 2 10 1 24 -3 32 -4 7 -10 11 -24 15 -30 9 -29
6 -31 97 -1 40 -3 79 -4 87 -3 20 0 39 8 50 4 5 8 8 8 8 2 -2 20 10 30 20 16
16 32 51 29 67 -5 26 -24 34 -47 18 -15 -10 -31 -15 -48 -13 -8 0 -15 2 -17 3
-8 6 -17 17 -23 26 -2 4 -21 10 -30 11 -5 1 -12 1 -16 2 -4 0 -12 -1 -18 -3z
m783 -106 c4 -4 4 -5 -2 -11 -6 -6 -9 -6 -14 0 -4 5 -3 7 5 15 3 4 6 3 11 -4z
m-102 -44 c7 -4 26 -22 32 -31 7 -11 1 -37 -11 -43 -13 -8 -23 -4 -29 12 -2 5
-7 17 -12 26 -5 10 -9 21 -9 24 0 14 14 20 29 12z m642 -20 c4 -6 4 -24 0 -30
-7 -8 -27 -9 -35 -1 -1 1 -3 7 -4 13 -2 12 3 21 11 23 3 1 7 2 8 2 5 1 16 -3
20 -7z m-226 2 c4 -3 8 -7 9 -10 7 -14 40 -45 59 -54 4 -1 18 -3 36 -4 27 -1
31 -2 40 -7 6 -3 10 -5 9 -6 -1 0 1 -3 4 -7 6 -7 10 -22 9 -28 -3 -8 -9 -19
-12 -22 -2 -1 -3 -4 -3 -5 0 -2 -1 -3 -2 -3 -1 0 -3 -5 -6 -11 -4 -12 -4 -14
-4 -134 l1 -122 -6 -6 -6 -6 -35 1 c-41 1 -48 3 -56 19 -3 5 -9 14 -15 20 -18
18 -21 29 -14 43 3 5 10 10 12 7 2 -2 25 9 31 14 9 10 10 16 10 104 0 88 -1
94 -10 100 -7 4 -30 9 -31 7 -2 -3 -8 -2 -13 3 -6 5 -10 20 -14 45 -2 17 -2
16 -9 41 -2 9 -4 17 -3 17 1 0 2 2 3 4 2 5 8 5 16 0z m-178 -39 c5 -5 -2 -27
-7 -24 -1 1 -2 0 -2 -1 0 -1 -1 -1 -3 0 -1 2 -2 3 -2 4 0 1 1 5 2 10 0 5 2 10
4 11 5 4 5 4 8 0z m-875 -15 c6 -6 5 -25 -1 -29 -5 -4 -15 -4 -19 0 -6 5 -5
24 0 29 5 5 15 5 20 0z m-128 -6 c1 0 5 -3 8 -6 5 -5 6 -7 6 -18 0 -11 -1 -13
-6 -18 -6 -6 -7 -6 -21 -6 -24 0 -32 37 -9 47 5 2 8 2 22 1z m989 -10 c-1 -5
1 -21 4 -38 4 -20 18 -30 42 -28 5 0 21 14 21 18 0 1 1 2 2 2 1 0 4 7 6 16 3
11 6 18 10 21 5 5 5 5 10 1 4 -2 8 -7 11 -14 3 -6 8 -16 11 -22 6 -13 6 -29 2
-36 -2 -3 -13 -11 -24 -19 -23 -16 -24 -17 -24 -32 0 -19 7 -22 45 -18 19 2
31 -5 50 -26 3 -4 5 -8 5 -8 0 -1 2 -4 5 -8 13 -17 16 -31 8 -39 l-4 -4 -11 4
c-6 2 -14 7 -18 10 -10 9 -18 12 -36 15 -10 2 -24 6 -36 12 -10 5 -23 10 -27
11 -4 1 -9 3 -10 4 -1 1 -7 0 -20 -3 -7 -2 -13 -6 -17 -11 -4 -5 -4 -6 -4
-157 l0 -152 6 -19 c6 -22 6 -25 -1 -49 -5 -17 -5 -17 -5 -78 1 -72 1 -71 23
-93 19 -18 19 -28 0 -46 -13 -12 -19 -20 -21 -29 -1 -4 -1 -68 0 -118 0 -13 0
-41 -2 -62 -2 -36 0 -57 4 -57 1 0 2 -2 4 -5 1 -3 3 -5 5 -5 2 0 3 -1 3 -2 0
0 5 -3 10 -6 10 -4 11 -4 24 -2 18 3 25 7 29 14 5 10 9 25 9 36 0 11 6 18 16
18 14 0 21 -14 13 -28 -8 -16 -11 -26 -12 -40 -2 -23 -1 -22 -25 -46 -22 -23
-27 -26 -41 -26 -7 0 -26 -6 -32 -11 -2 -2 -4 -6 -4 -15 -1 -10 -1 -13 6 -24
11 -21 10 -36 -6 -53 -5 -5 -14 -22 -16 -30 0 -2 -2 -13 -3 -25 -2 -22 -3 -32
-5 -44 -1 -5 -2 -11 -2 -14 -2 -20 -16 -97 -17 -98 -2 -1 -2 -2 -2 -5 0 -1 -1
0 -2 2 l-2 4 0 -4 0 -4 -2 4 c-1 2 -1 24 -1 48 1 40 1 45 -2 51 -7 13 -17 18
-34 18 -20 0 -22 0 -27 5 -8 8 -6 19 6 39 5 9 10 18 10 19 0 1 3 5 6 9 3 4 6
8 6 9 0 1 1 3 3 4 5 6 6 8 9 14 3 8 4 18 2 27 -2 9 -3 17 -1 40 1 20 -1 24
-10 24 -3 0 -5 1 -6 3 0 1 -1 1 -1 -1 0 -6 -5 -8 -17 -9 -17 -1 -33 -3 -34 -5
-1 -1 -2 -2 -3 -1 -1 1 -2 0 -2 -1 0 -1 -4 -3 -8 -5 -7 -3 -9 -6 -14 -16 -6
-12 -6 -15 -6 -34 1 -30 -5 -38 -36 -48 -23 -8 -36 -2 -36 16 0 18 11 35 32
48 14 10 27 23 29 29 2 7 13 20 17 20 4 0 19 14 31 29 8 9 20 14 32 12 11 -2
15 -6 15 -16 l1 -8 0 8 1 8 15 -2 c9 0 15 0 15 1 0 1 1 2 2 1 1 0 1 0 1 2 0 1
1 5 2 8 1 3 2 32 2 65 1 58 1 64 -6 91 -2 7 -1 19 1 29 3 12 2 24 -3 31 -3 5
-26 17 -33 17 -2 0 -5 2 -8 5 -4 4 -4 6 -3 17 0 7 1 15 2 18 1 3 2 13 3 22 2
16 10 34 16 38 2 1 18 34 24 48 8 19 8 21 8 139 0 111 -1 131 -6 131 -1 0 -3
2 -6 4 -3 2 -6 4 -7 4 -1 0 -6 1 -11 2 -6 1 -10 1 -10 0 0 -1 -5 -2 -11 -2
-15 0 -21 5 -21 20 0 15 6 20 21 20 6 0 11 -1 11 -2 0 -1 4 -1 10 0 5 1 10 2
11 2 1 0 4 2 7 4 3 2 5 4 6 4 3 0 6 18 6 41 0 28 -2 36 -12 43 -6 5 -26 8 -30
6 -7 -4 -19 -9 -24 -9 -2 0 -6 -2 -7 -4 -1 -2 -3 -5 -4 -7 -2 -1 -3 -3 -3 -4
0 -3 -15 -12 -20 -12 -7 0 -39 7 -48 10 -8 3 -40 32 -46 42 -6 8 -5 23 1 29 6
6 19 7 31 1 11 -5 31 -5 37 -1 4 3 11 15 17 29 3 9 11 13 24 13 15 0 20 -4 28
-19 4 -7 9 -16 11 -20 3 -5 5 -10 5 -11 0 -3 0 -3 2 -1 1 1 5 2 13 2 12 -1 17
2 22 12 1 3 2 41 3 121 l1 116 5 5 c2 3 4 5 4 6 0 1 1 2 3 2 4 0 23 14 23 17
0 2 1 2 5 1 5 -2 5 -2 4 1 0 2 0 3 1 3 2 0 2 -2 1 -4z m424 -27 c3 -4 3 -6 -1
-24 -3 -10 -5 -19 -6 -19 -1 0 -2 -1 -2 -3 0 -5 -9 -10 -13 -7 -6 5 -1 45 6
54 5 5 12 5 16 -1z m1 -158 c3 -3 6 -6 6 -7 0 -3 14 -24 17 -27 4 -4 9 -15 9
-21 0 -14 -18 -22 -27 -11 -6 5 -29 53 -29 58 0 12 14 17 24 8z m-344 -88 c11
-3 24 -6 29 -6 17 -1 22 -7 21 -24 0 -13 -7 -28 -14 -34 -7 -4 -26 -5 -34 -1
-2 1 -8 7 -12 13 -5 5 -11 13 -15 17 -13 15 -16 27 -9 35 6 6 8 6 34 0z m325
-110 c15 -4 34 -14 39 -20 7 -9 6 -26 -2 -33 -10 -10 -26 -8 -51 7 -10 7 -17
17 -17 26 0 8 4 17 10 20 6 4 7 4 21 0z m-1053 -24 l-5 -5 -4 4 -5 5 4 4 5 5
4 -4 5 -5 -4 -4z m870 -21 c5 -3 10 -8 12 -11 15 -29 34 -41 60 -38 11 1 26 6
28 9 1 1 6 4 13 7 11 6 11 6 18 2 10 -5 8 -17 -6 -30 -14 -14 -20 -36 -15 -55
2 -10 10 -18 13 -14 1 1 6 2 12 2 10 0 11 0 11 -4 0 -4 1 -3 2 2 1 4 5 9 10
14 14 11 23 21 29 32 8 13 13 16 24 16 13 0 19 -6 19 -19 0 -11 -1 -13 -18
-23 -7 -4 -15 -10 -18 -12 -5 -5 -14 -24 -14 -30 0 -2 -3 -6 -6 -10 -6 -7 -19
-8 -25 -3 -1 2 -3 2 -4 2 0 -1 -3 -2 -6 -2 -29 -4 -31 -7 -31 -63 0 -39 2 -52
9 -56 4 -3 31 -6 31 -4 0 1 5 5 10 8 8 5 12 7 21 7 16 0 21 -4 31 -23 11 -23
14 -44 8 -53 -2 -3 -13 -36 -16 -49 -3 -14 -9 -18 -25 -18 -10 0 -14 1 -18 5
-8 6 -9 22 -3 39 10 31 4 44 -20 44 -8 0 -11 -1 -14 -4 -5 -6 -11 -16 -9 -16
1 0 -2 -2 -6 -5 -4 -3 -8 -6 -9 -7 -1 0 -14 -1 -29 -1 l-28 0 -6 6 -6 6 0 28
c0 31 -2 40 -16 53 -18 19 -18 31 0 50 15 15 16 19 17 74 0 54 -1 62 -10 71
-8 7 -22 13 -34 14 -20 2 -30 11 -35 30 -1 6 2 21 7 26 8 9 28 11 42 3z
m-1162 -27 c3 -2 8 -9 11 -14 4 -6 8 -11 9 -11 1 0 2 -2 3 -4 1 -4 5 -6 14 -7
2 0 7 -2 10 -3 3 -1 7 -2 10 -2 9 0 15 -8 15 -21 0 -16 -7 -23 -24 -21 -9 1
-13 3 -20 14 -12 18 -17 22 -23 23 -3 1 -9 2 -12 2 -3 1 -7 2 -8 2 -1 0 -4 1
-6 2 -3 1 -6 1 -8 2 -4 1 -16 6 -30 14 -14 7 -18 17 -11 25 5 5 64 5 70 -1z
m641 -30 c3 -3 6 -7 6 -7 -1 -1 1 -9 4 -19 6 -23 6 -32 0 -54 -5 -17 -5 -20
-5 -67 0 -48 0 -48 5 -59 4 -7 8 -13 14 -17 18 -13 19 -27 1 -45 -10 -10 -15
-19 -16 -26 -1 -2 -4 -6 -7 -9 -4 -2 -7 -5 -7 -6 0 0 -7 -1 -16 0 -19 0 -32
-3 -45 -12 -15 -10 -22 -12 -33 -12 -17 0 -23 5 -23 22 -1 15 1 22 9 25 3 2
10 5 17 8 15 8 22 14 26 24 6 15 5 24 -5 45 -13 27 -14 33 -4 51 14 26 14 29
14 93 l-1 59 6 6 6 6 24 0 c24 0 24 0 30 -6z m171 -24 c19 -13 31 -41 24 -55
-2 -4 -18 -13 -26 -14 -2 0 -22 -14 -25 -17 -10 -11 -31 -13 -40 -3 -4 4 -5 8
-6 13 0 8 6 27 9 27 3 0 27 25 31 33 8 18 21 24 33 16z m-875 -19 c7 -6 7 -16
0 -22 -4 -4 -6 -4 -17 -3 -11 1 -21 4 -20 7 3 5 11 16 13 16 1 0 4 1 5 3 4 4
14 4 19 -1z m-51 -26 c0 -1 1 -2 3 -2 2 0 3 -1 3 -2 0 -1 -1 -2 -2 -2 -1 0 -2
-1 -1 -2 1 -1 0 -3 -2 -3 -2 -1 -3 -2 -3 -3 0 -4 -12 -13 -17 -13 -4 0 -6 1
-8 4 -1 3 -2 5 -3 5 -3 0 -2 11 2 16 3 3 5 4 16 4 6 0 12 -1 12 -2z m152 -50
c16 -6 22 -37 9 -49 -9 -9 -32 -9 -43 0 -11 9 -12 33 -2 44 7 8 24 11 36 5z
m431 -41 c8 -5 26 -49 25 -64 0 -16 -19 -24 -34 -13 -6 5 -23 25 -30 36 -7 11
-6 31 2 39 7 7 27 8 37 2z m296 -7 c3 -6 4 -13 1 -18 -3 -5 -20 -10 -50 -13
-8 -1 -9 0 -12 4 -4 5 -4 5 1 11 3 3 7 6 10 7 2 1 7 3 10 4 22 10 35 11 40 5z
m317 -108 c7 -6 11 -31 7 -45 -7 -23 -34 -14 -44 14 -9 26 1 40 26 34 4 0 9
-2 11 -3z m-17 -142 c4 -6 4 -24 -1 -30 -7 -9 -27 -9 -34 0 -5 6 -5 24 0 30 7
9 27 9 35 0z m78 -8 c7 -7 7 -22 0 -28 -11 -10 -21 -11 -22 -3 0 2 -2 5 -4 7
-5 5 -4 18 1 23 6 7 19 7 25 1z m-371 -43 c3 -2 7 -6 9 -8 7 -6 21 -11 38 -12
20 -2 25 -5 25 -18 0 -11 -6 -16 -26 -25 -8 -3 -18 -7 -22 -9 -3 -2 -12 -3
-18 -3 -12 0 -13 0 -22 10 -21 21 -26 47 -12 62 7 7 19 8 28 3z m-304 -58 c6
-7 6 -20 -1 -28 -6 -7 -21 -8 -28 0 -7 6 -7 21 -1 28 8 8 23 8 30 0z m266 -87
c5 -5 5 -11 0 -16 -10 -10 -27 5 -16 16 4 4 12 4 16 0z m-299 -27 c5 -8 1 -16
-8 -16 -9 0 -13 8 -8 16 2 3 5 5 8 5 3 0 6 -2 8 -5z m970 -22 c27 -8 38 -20
27 -31 -5 -5 -16 -4 -35 6 -9 4 -19 8 -22 9 -6 2 -12 10 -10 15 3 8 15 8 40 1z
m-291 -74 c3 -8 3 -12 -3 -17 l-4 -4 -5 5 c-3 4 -4 6 -2 6 1 1 2 2 2 4 0 3 6
11 8 11 1 0 2 -2 4 -5z m338 -43 c16 -12 23 -54 10 -66 -8 -9 -32 -9 -40 -1
-11 12 -15 50 -7 62 7 10 26 13 37 5z m-381 -79 c4 -4 5 -7 5 -15 0 -14 -6
-20 -20 -20 -6 0 -21 -1 -34 -1 -21 -2 -22 -1 -26 3 -10 12 -4 19 26 29 28 10
42 11 49 4z m340 -79 c10 -9 6 -23 -13 -44 -4 -5 -8 -10 -9 -12 -1 -3 -9 -10
-28 -26 -7 -5 -15 -14 -18 -19 -10 -15 -26 -20 -36 -10 -10 10 -7 21 11 39 5
5 11 13 14 18 11 18 15 24 25 31 6 4 13 11 17 14 15 14 29 17 37 9z m-731 -26
c11 -6 16 -7 33 -8 23 -1 29 -4 29 -15 0 -12 -5 -14 -35 -14 -21 0 -27 -1 -33
-3 -16 -9 -39 -2 -43 11 -2 9 3 26 8 31 9 6 25 5 41 -2z"/>
<path d="M741 3797 c-10 -4 -16 -10 -22 -22 -5 -11 -5 -11 -5 -72 0 -58 0 -62
4 -70 2 -5 6 -10 9 -12 6 -4 27 -7 27 -3 0 1 1 3 3 4 5 6 13 27 13 35 0 6 7
12 24 19 8 3 18 9 24 12 14 8 18 9 27 9 9 0 23 -6 23 -10 0 -1 3 -4 6 -7 3 -3
6 -7 6 -8 0 -2 1 -2 1 -1 1 0 4 -1 7 -3 3 -2 8 -4 11 -5 6 -1 17 2 17 6 0 1 8
8 17 15 19 13 20 17 18 34 -2 12 -6 19 -15 22 -4 1 -9 3 -11 4 -2 1 -8 3 -14
5 -5 2 -12 4 -14 5 -2 1 -12 5 -22 8 -31 11 -55 19 -76 27 -32 12 -43 13 -58
8z"/>
<path d="M455 2694 c-1 -1 -2 -1 -4 -1 -1 1 -4 0 -6 -3 -2 -2 -12 -12 -22 -22
-9 -10 -18 -18 -19 -18 -1 0 -2 -1 -2 -3 -1 -15 -13 -35 -20 -35 -2 0 -4 -1
-5 -1 0 -1 -5 -3 -11 -5 -5 -2 -11 -5 -12 -6 -14 -11 -19 -16 -22 -23 -2 -4
-6 -10 -8 -13 -1 -3 -6 -10 -9 -15 -3 -6 -11 -15 -17 -21 -17 -17 -26 -29 -29
-39 -5 -18 -3 -38 6 -45 5 -4 31 -10 31 -8 1 3 32 12 32 9 0 -1 1 -1 1 0 1 2
3 2 6 -1 4 -4 5 -14 3 -22 -1 -2 -2 -7 -4 -11 -3 -12 -9 -16 -25 -18 -20 -1
-31 -8 -37 -20 -5 -10 -5 -10 -2 -21 3 -12 15 -26 26 -30 14 -5 16 -9 16 -27
0 -9 -1 -21 -3 -26 -1 -6 -3 -14 -4 -20 -3 -22 -9 -32 -24 -41 -22 -14 -25
-21 -25 -75 0 -26 1 -45 2 -47 1 -2 1 -4 1 -4 -1 0 -2 -6 -2 -14 0 -8 1 -14 2
-14 0 0 0 -2 -1 -4 -4 -7 -3 -128 1 -137 4 -9 14 -21 18 -21 2 0 3 -1 3 -2 0
-2 10 -3 44 -3 51 0 98 11 144 33 43 21 64 41 72 66 4 13 4 18 4 96 -1 80 -1
83 -5 91 -3 4 -6 13 -8 20 -3 11 -3 12 0 24 2 6 5 15 7 19 6 12 8 33 3 42 -4
7 -9 13 -9 11 0 -1 -1 -1 -2 0 -1 3 -26 9 -27 7 -1 -1 -5 -2 -9 -2 -15 0 -22
13 -16 29 5 12 8 29 9 44 1 17 6 25 13 25 7 0 28 10 34 15 3 3 6 10 8 14 3 11
3 208 0 216 -12 29 -16 33 -65 51 -8 2 -14 5 -15 6 -1 2 -16 1 -17 0z m-54
-201 c14 -7 15 -8 40 -9 30 -1 33 -2 37 -16 5 -17 1 -31 -13 -48 -4 -5 -10
-12 -12 -14 -15 -19 -26 -14 -26 11 0 8 -1 16 -2 19 -4 16 -28 22 -52 14 -8
-3 -11 -3 -12 -1 0 1 -1 1 -1 -1 0 -1 -2 -1 -4 2 -5 4 -6 14 -4 22 1 2 2 7 4
11 5 19 22 22 45 10z m-64 -412 c12 -12 3 -31 -13 -31 -11 0 -18 7 -18 18 0
11 7 18 18 18 6 0 9 -1 13 -5z m58 -94 c12 -12 3 -31 -13 -31 -11 0 -18 7 -18
18 0 11 7 18 18 18 6 0 9 -1 13 -5z"/>
<path d="M924 2188 c0 -5 -1 -7 -1 -5 -1 2 -4 3 -13 3 -9 0 -12 1 -11 2 1 2 1
2 -1 1 -1 -1 -2 -3 -1 -5 0 -2 0 -4 -2 -5 -1 0 5 -1 15 -1 l16 -1 0 10 c0 11
-2 12 -2 1z"/>
<path d="M602 2017 c-13 -6 -19 -10 -25 -18 -4 -4 -11 -18 -11 -20 0 -2 -1 -3
-2 -3 -1 0 -3 -3 -4 -6 -1 -3 -3 -6 -4 -6 -1 0 -2 -1 -1 -2 1 -1 0 -2 -1 -3
-6 -4 -3 -31 5 -42 10 -13 28 -17 44 -10 12 5 28 22 32 35 16 51 16 52 13 64
-1 6 -1 11 -1 12 1 2 -5 3 -22 5 -8 0 -12 -1 -23 -6z"/>
</g>
</svg>
