<?xml version="1.0" standalone="no"?>
<!DOCTYPE svg PUBLIC "-//W3C//DTD SVG 20010904//EN"
 "http://www.w3.org/TR/2001/REC-SVG-20010904/DTD/svg10.dtd">
<svg version="1.0" xmlns="http://www.w3.org/2000/svg"
 width="708.000000pt" height="2870.000000pt" viewBox="0 0 708.000000 2870.000000"
 preserveAspectRatio="xMidYMid meet">
<metadata>
Created by potrace 1.15, written by Peter Selinger 2001-2017
</metadata>
<g transform="translate(0.000000,2870.000000) scale(0.500000,-0.500000)"
fill="#000000" stroke="none">
<path d="M733 3611 c0 0 -9 -1 -19 -2 -47 -3 -129 -20 -161 -34 -3 -1 -9 -4
-12 -5 -22 -8 -32 -21 -38 -49 -3 -14 -9 -23 -17 -23 -11 -1 -17 0 -26 4 -15
6 -30 7 -40 2 -30 -14 -96 -78 -132 -126 -4 -6 -9 -12 -10 -13 -3 -4 -19 -30
-23 -36 -2 -5 -3 -12 -3 -30 0 -26 -1 -28 -18 -38 -18 -10 -29 -26 -42 -62 -3
-11 -9 -42 -9 -49 0 -2 -2 -5 -4 -7 -7 -7 -12 -24 -18 -55 0 -3 -2 -9 -3 -14
-1 -5 -1 -9 -1 -10 0 0 -2 -3 -6 -6 l-6 -6 -54 -1 c-57 -1 -59 -1 -59 -3 0 -1
-1 -2 -3 -2 -4 0 -14 -12 -18 -21 -4 -11 -4 -103 0 -114 4 -9 14 -21 18 -21 2
0 3 -1 3 -2 0 -2 10 -3 53 -3 22 0 41 -1 41 -2 0 -2 13 -9 19 -9 3 0 5 -1 4
-2 -1 -1 0 -2 1 -2 2 0 6 -1 9 -1 14 -2 16 -2 19 0 7 8 22 0 22 -11 0 -11 -15
-19 -22 -11 -2 1 -4 2 -6 2 -2 0 -7 -1 -13 -2 -18 -2 -23 -10 -22 -39 0 -20 0
-21 -6 -27 l-6 -6 -40 1 c-22 1 -40 0 -40 0 -1 -1 -4 -2 -7 -3 -3 -1 -6 -2 -6
-3 0 -1 -1 -2 -2 -1 -2 1 -13 -10 -13 -15 -1 -1 -1 -3 -2 -4 -3 -2 -2 -14 1
-17 3 -3 8 -4 16 -5 7 0 14 -2 14 -3 1 -1 2 -1 2 1 0 5 7 9 19 9 19 0 26 -9
25 -30 -2 -16 -7 -21 -24 -21 -14 0 -20 2 -20 8 0 2 -1 2 -1 1 -1 -2 -5 -3
-12 -3 -12 0 -19 -3 -22 -10 -1 -2 -3 -4 -3 -4 -3 0 -2 -33 1 -41 4 -9 14 -21
18 -21 2 0 3 -1 3 -2 0 -1 1 -1 3 -2 28 -3 28 -3 50 4 27 7 26 7 45 2 12 -4
15 -6 18 -11 2 -4 5 -7 6 -7 1 0 2 -1 1 -2 -1 -1 2 -15 5 -32 5 -27 8 -40 20
-82 7 -27 17 -40 39 -51 18 -10 20 -14 13 -35 -7 -21 -6 -33 3 -49 13 -24 34
-58 42 -69 4 -5 12 -15 17 -22 l9 -12 15 0 14 0 12 12 c13 13 18 16 30 15 22
-1 37 -14 37 -33 0 -11 -7 -30 -14 -38 -9 -10 -9 -36 0 -44 6 -6 27 -4 44 3 6
3 11 5 11 4 0 0 4 1 10 2 5 2 10 4 12 4 2 0 10 4 19 7 14 6 17 6 28 5 17 -1
33 2 47 9 21 11 36 6 36 -12 0 -13 -6 -17 -26 -19 -17 -1 -26 -4 -40 -14 -5
-4 -12 -8 -15 -9 -6 -3 -6 -3 -5 -20 0 -21 2 -24 12 -24 9 0 16 -4 31 -15 28
-21 103 -34 199 -34 82 0 143 12 208 40 36 15 43 24 45 58 1 16 3 22 10 26 8
5 17 5 32 1 26 -7 36 -5 53 13 7 6 12 13 12 13 0 1 2 4 4 6 4 5 20 28 25 37
37 65 51 129 37 170 -17 50 -49 83 -92 95 -14 4 -48 4 -66 -1 -73 -17 -118
-80 -137 -188 0 -3 -6 -32 -12 -63 -13 -71 -11 -67 -46 -69 -103 -6 -196 37
-254 117 -4 6 -8 11 -9 12 -12 12 -48 84 -63 129 -11 34 -28 104 -32 135 -1 5
-2 12 -3 16 -1 6 0 8 4 12 l5 6 138 0 c88 0 141 1 145 2 9 3 16 10 17 20 1 4
2 9 3 12 1 4 1 6 -1 7 -5 2 -4 16 2 21 4 4 31 8 57 8 13 0 15 0 20 -6 5 -5 6
-7 6 -16 0 -32 16 -51 40 -47 5 1 10 2 11 1 0 0 1 1 1 2 0 1 1 2 3 2 4 0 14
12 18 22 3 6 3 12 3 25 -2 21 -7 32 -20 43 -18 16 -18 15 -21 31 0 3 -2 9 -3
12 -2 3 -3 7 -3 9 -1 2 -4 6 -8 10 -9 8 -21 8 -32 1 -18 -13 -27 -14 -40 -6
-10 6 -20 11 -26 13 -5 1 -224 1 -231 0 -4 0 -6 -2 -6 -2 0 -1 -2 -2 -4 -3 -6
-2 -18 -14 -22 -24 -2 -4 -10 -13 -17 -20 -17 -17 -22 -25 -27 -46 -5 -21 -9
-27 -20 -27 -7 0 -8 1 -26 19 -5 6 -11 10 -18 12 -6 2 -12 4 -13 5 -1 1 -3 1
-4 1 -2 -1 -4 1 -6 4 -3 5 -3 5 0 12 2 4 7 8 12 10 12 6 35 22 35 24 0 1 1 3
3 4 2 2 5 9 7 16 3 11 3 17 2 63 l-1 51 6 6 6 6 27 0 c28 0 38 1 38 3 0 1 3 3
6 4 8 3 18 17 27 36 9 18 19 28 28 28 12 0 16 -6 15 -26 0 -18 8 -34 18 -38 3
-1 6 -3 6 -4 0 -3 15 -3 144 -3 131 0 144 0 144 3 0 1 1 2 3 2 4 0 14 12 18
21 4 11 4 103 0 114 -4 9 -14 21 -18 21 -2 0 -3 1 -3 2 0 2 -2 2 -70 3 -71 1
-78 0 -93 -11 -4 -3 -12 -9 -16 -12 -7 -5 -9 -6 -20 -6 -11 0 -14 1 -21 7 -29
23 -37 25 -62 17 -24 -8 -34 -7 -58 0 -18 6 -23 6 -38 6 -10 -1 -19 -3 -23 -4
-7 -4 -21 -17 -21 -20 0 -3 -14 -12 -20 -12 -12 0 -15 13 -8 44 2 11 4 23 5
28 4 35 24 120 35 148 14 33 26 63 33 73 4 7 7 13 7 14 0 2 21 33 31 44 38 47
79 76 126 90 9 3 17 6 17 7 0 1 1 2 2 1 1 0 2 0 3 2 0 2 0 3 -1 3 -1 0 -2 6
-2 14 l1 13 1 -13 1 -13 1 15 c0 9 -1 14 -2 13 -1 -1 -2 0 -2 1 0 1 -1 2 -2 1
-1 -1 -2 0 -2 1 0 2 -1 2 -1 1 -2 -1 -10 3 -17 9 -6 6 -8 11 -4 19 1 3 2 6 2
7 0 1 3 4 6 7 6 5 7 5 29 4 25 0 30 2 44 16 8 8 8 9 8 20 0 17 -2 20 -11 24
-7 3 -42 4 -45 2z m-75 -101 c0 -1 1 -2 3 -2 2 0 3 -1 3 -2 0 -1 -1 -2 -3 -2
-1 0 -3 -1 -3 -2 -1 -2 -2 -2 -5 0 -3 3 -3 4 -1 7 3 3 6 4 6 1z m-231 -127 c6
-4 6 -6 6 -20 0 -14 0 -16 -6 -20 -4 -4 -7 -5 -18 -5 -11 0 -14 1 -18 5 -6 4
-6 6 -6 20 0 14 0 16 6 20 4 4 7 5 18 5 11 0 14 -1 18 -5z m-12 -142 c3 -3 3
-3 0 -6 -4 -5 -11 1 -7 6 4 4 4 4 7 0z m-108 -40 c7 -11 -6 -22 -15 -13 -5 5
-5 8 -1 14 4 6 12 5 16 -1z m-47 -44 c7 -9 6 -27 -2 -35 -5 -7 -6 -7 -20 -7
-16 0 -20 2 -25 17 -5 17 7 30 30 30 11 0 13 -1 17 -5z m165 -206 c3 -3 3 -3
0 -6 -4 -5 -11 1 -7 6 4 4 4 4 7 0z m270 -261 c10 -9 3 -26 -10 -26 -8 0 -15
7 -15 15 0 13 16 20 25 11z m-354 -269 c6 -4 6 -6 6 -20 0 -14 0 -16 -6 -20
-4 -4 -7 -5 -18 -5 -11 0 -14 1 -18 5 -6 4 -6 6 -6 20 0 14 0 16 6 20 4 4 7 5
18 5 11 0 14 -1 18 -5z m149 -167 c5 -5 5 -15 0 -20 -9 -9 -24 -2 -24 10 0 8
6 14 14 14 3 0 8 -2 10 -4z"/>
<path d="M840 3602 c-11 -6 -16 -23 -9 -37 8 -14 3 -36 -9 -41 -8 -3 -24 -3
-30 0 -5 3 -24 1 -33 -3 -4 -2 -10 -7 -15 -11 -8 -8 -8 -9 -8 -21 0 -13 1 -14
9 -13 0 0 1 -1 1 -2 0 -1 23 -1 51 -1 l51 0 7 -7 c6 -6 7 -10 12 -33 5 -25 13
-62 24 -114 9 -42 21 -72 40 -101 39 -59 110 -85 171 -61 7 3 13 6 14 7 1 0 4
2 7 4 3 2 13 10 22 19 26 26 43 64 43 98 0 33 -21 96 -45 138 -8 13 -14 22
-15 23 -1 1 -3 4 -6 8 -6 9 -10 14 -31 36 -35 36 -72 61 -131 86 -15 7 -35 14
-59 20 -38 10 -50 11 -61 6z m282 -335 c3 -3 4 -7 4 -14 0 -13 -6 -19 -19 -19
-13 0 -19 6 -19 19 0 7 1 11 4 14 7 8 23 8 30 0z"/>
</g>
</svg>
