<?xml version="1.0" standalone="no"?>
<!DOCTYPE svg PUBLIC "-//W3C//DTD SVG 20010904//EN"
 "http://www.w3.org/TR/2001/REC-SVG-20010904/DTD/svg10.dtd">
<svg version="1.0" xmlns="http://www.w3.org/2000/svg"
 width="1100.000000pt" height="2870.000000pt" viewBox="0 0 1100.000000 2870.000000"
 preserveAspectRatio="xMidYMid meet">
<metadata>
Created by potrace 1.15, written by Peter Selinger 2001-2017
</metadata>
<g transform="translate(0.000000,2870.000000) scale(0.500000,-0.500000)"
fill="#000000" stroke="none">
<path d="M1531 3826 c-3 -3 -7 -6 -9 -8 -2 -2 -10 -9 -18 -16 -16 -15 -20 -20
-21 -34 -1 -9 4 -24 9 -28 1 -1 32 -47 42 -63 9 -16 7 -25 -7 -25 -15 0 -77
-32 -132 -68 -4 -3 -8 -6 -9 -6 -1 -1 -7 -6 -15 -11 -17 -11 -20 -15 -31 -32
-5 -6 -12 -14 -15 -17 -3 -3 -8 -7 -11 -10 -3 -3 -6 -5 -7 -4 -1 0 -1 0 -1 -1
0 0 -1 -6 -3 -12 -2 -7 -3 -19 -3 -26 0 -16 -3 -25 -11 -36 -5 -6 -11 -18 -12
-26 -1 -2 -2 -11 -4 -19 -4 -20 -8 -24 -26 -24 -11 0 -13 1 -22 8 -9 6 -11 7
-22 7 -7 1 -14 0 -17 -2 -7 -3 -27 -34 -30 -45 -4 -15 -10 -25 -18 -31 -6 -4
-10 -9 -19 -29 -7 -14 -14 -30 -16 -36 -4 -13 -11 -28 -19 -39 -13 -19 -4 -40
20 -48 5 -2 12 -4 15 -5 16 -7 16 -43 -1 -50 -9 -4 -25 -3 -31 1 -12 8 -38 2
-46 -9 -2 -4 -14 -42 -18 -59 -16 -69 -21 -91 -28 -144 -7 -54 -8 -67 -4 -79
6 -15 7 -16 22 -18 15 -1 17 0 30 17 13 18 23 21 32 13 5 -6 8 -14 12 -35 5
-28 -1 -40 -24 -44 -9 -2 -9 -2 -17 -5 -4 -2 -9 -5 -10 -8 -2 -4 -3 -34 0 -34
1 0 3 -3 4 -6 3 -7 3 -7 -3 -12 -3 -3 -11 -8 -17 -10 -14 -5 -25 -15 -30 -27
-4 -8 -4 -12 -3 -36 1 -14 1 -29 2 -33 0 -4 1 -14 2 -23 1 -18 7 -69 10 -84 7
-45 9 -57 11 -63 1 -4 3 -12 4 -16 7 -32 23 -85 34 -109 9 -20 21 -45 27 -53
2 -4 6 -11 9 -16 3 -5 6 -8 11 -9 14 -3 22 -9 27 -19 2 -5 4 -11 4 -12 0 -9 4
-18 10 -20 3 -1 6 -3 6 -4 0 -3 18 -10 24 -10 9 1 12 6 11 21 0 6 -1 13 -1 14
0 4 -12 10 -26 14 -17 5 -28 15 -24 23 7 13 11 15 31 13 23 -1 39 -6 44 -11 3
-4 3 -8 3 -22 -1 -9 0 -19 0 -22 4 -17 7 -22 11 -27 2 -3 7 -9 10 -13 15 -20
51 -36 76 -33 30 4 51 10 81 25 35 19 73 50 94 80 5 7 10 14 11 16 9 9 38 64
49 96 7 17 4 32 -8 51 -15 22 -11 46 11 56 11 5 23 17 28 27 5 13 9 45 7 55
-4 16 -23 31 -38 31 -6 0 -9 1 -12 5 l-4 5 5 9 c3 5 4 9 4 9 -1 0 1 2 3 4 2 2
4 5 4 7 0 2 1 2 3 2 2 -1 3 0 3 2 0 4 10 12 21 17 4 2 10 6 13 8 l5 4 -2 47
c-1 56 -3 77 -9 90 -11 28 -21 36 -49 35 -9 0 -19 0 -23 0 -22 0 -33 22 -21
44 5 10 27 14 41 7 7 -4 24 -4 31 -1 11 5 10 23 -3 69 -7 22 -24 63 -31 75 -3
5 -5 8 -5 9 0 2 -17 27 -23 35 -8 9 -24 25 -34 33 -16 13 -34 14 -43 3 -3 -4
-6 -8 -6 -8 -1 -3 -1 -4 -4 -13 -3 -13 -16 -17 -24 -9 -4 4 -5 15 -2 17 1 1 2
2 1 3 -1 1 -1 4 -2 8 -4 29 -25 35 -66 19 -19 -8 -42 -22 -53 -32 -12 -11 -17
0 -13 28 1 6 0 16 -1 24 -5 29 -5 34 1 43 2 5 7 11 10 14 3 3 5 6 5 7 0 2 1 3
2 3 2 0 5 8 15 38 20 58 47 119 72 158 9 14 20 31 21 32 1 1 6 7 11 15 5 8 11
15 12 16 1 1 5 6 8 10 11 14 21 25 44 48 30 30 54 50 102 86 20 15 25 19 25
23 0 1 3 5 7 9 l7 8 5 -5 c2 -3 6 -6 8 -8 5 -2 31 -2 33 1 0 1 4 4 7 7 14 9
29 3 29 -12 0 -10 -6 -15 -20 -18 -15 -3 -17 -5 -20 -12 -7 -13 -2 -28 12 -42
12 -11 14 -18 16 -44 2 -20 3 -28 12 -54 22 -66 36 -125 51 -211 1 -6 1 -7 6
-45 3 -28 8 -81 10 -110 1 -12 2 -25 2 -31 0 -5 1 -38 2 -72 1 -68 3 -78 11
-87 8 -8 27 -9 35 -3 3 3 5 6 5 7 0 5 13 24 18 27 3 2 15 4 25 5 11 1 21 3 22
3 5 3 20 1 24 -4 11 -10 5 -33 -8 -33 -14 0 -40 -14 -41 -23 0 -1 0 -8 -1 -16
0 -8 -2 -17 -4 -21 -6 -12 -33 -28 -45 -28 -7 1 -26 -5 -33 -10 -7 -6 -11 -18
-13 -50 -2 -34 -7 -80 -10 -103 -2 -13 -2 -18 1 -28 2 -10 2 -12 -1 -19 -3 -8
-3 -7 -5 -15 -1 -3 -3 -12 -6 -19 -6 -16 -11 -44 -9 -45 1 -1 2 -2 1 -3 0 0 1
-4 3 -8 4 -8 17 -16 30 -17 12 -2 18 -8 18 -17 0 -13 -16 -21 -27 -13 -4 3
-27 2 -35 -2 -6 -3 -10 -11 -16 -31 -3 -8 -6 -18 -7 -22 -2 -4 -4 -11 -5 -15
-4 -13 -7 -20 -24 -63 -9 -23 -17 -44 -17 -47 -2 -9 3 -22 13 -34 11 -13 13
-22 6 -29 -3 -3 -7 -4 -20 -4 -28 1 -35 -4 -49 -30 -18 -33 -35 -61 -52 -87
-4 -5 -9 -16 -11 -24 -2 -8 -6 -21 -9 -30 -6 -17 -6 -35 -2 -44 3 -6 22 -24
27 -24 7 -2 24 1 28 5 7 7 21 16 25 16 7 0 28 7 33 11 9 8 17 16 25 26 4 5 9
11 10 12 1 2 4 6 7 9 3 4 6 8 7 9 4 4 25 33 36 49 4 6 9 12 10 14 2 1 4 4 5 7
2 2 3 5 4 6 8 9 62 96 77 123 13 25 8 40 -14 48 -6 2 -13 4 -16 4 -17 0 -25
33 -11 46 10 10 31 9 44 -3 8 -7 11 -9 9 -5 -1 1 2 2 8 2 5 0 9 -1 10 -2 0 -2
1 -2 1 0 0 1 1 2 3 2 4 0 9 8 10 19 2 19 3 21 13 31 15 14 19 22 27 42 4 10 8
20 8 22 1 2 5 15 10 30 10 29 11 37 6 47 -5 10 -25 15 -39 10 -9 -3 -19 -2
-25 2 -5 3 -13 18 -13 25 0 2 -1 4 -2 5 -4 2 -2 9 4 15 7 7 39 17 54 16 39 -2
50 5 56 40 4 21 -5 40 -25 49 -18 8 -25 22 -21 40 3 12 14 21 23 19 0 0 7 3
14 6 23 10 28 21 30 59 2 34 2 152 0 187 -2 44 -4 52 -11 61 -8 9 -23 13 -39
9 -16 -3 -29 1 -34 11 -7 13 -3 35 7 40 5 3 19 6 23 5 4 0 11 13 12 23 1 7 0
12 -2 18 -4 10 -4 15 3 35 9 27 9 27 -4 73 -7 23 -15 51 -19 63 -4 12 -7 22
-8 24 -9 33 -56 141 -67 153 -7 8 -28 19 -40 21 -6 1 -10 3 -13 7 l-4 5 4 23
c6 33 5 37 -11 62 -25 40 -36 57 -39 61 -2 1 -3 3 -3 4 0 0 -3 4 -6 8 -3 4 -6
8 -6 8 0 1 -2 3 -3 6 -2 2 -6 7 -9 11 -5 8 -33 44 -37 48 -1 2 -4 5 -6 8 -4 5
-14 18 -17 21 -1 1 -4 5 -8 10 -13 15 -19 21 -27 26 -4 3 -11 8 -15 12 -12 11
-37 14 -47 6z m212 -345 c3 -4 2 -23 -1 -29 -5 -10 -27 -12 -35 -3 -6 6 -7 24
-1 31 6 8 32 9 37 1z m74 -146 c3 -5 3 -5 0 -10 -2 -3 -5 -5 -7 -5 -2 0 -5 2
-7 5 -3 5 -3 5 0 10 2 3 5 5 7 5 2 0 5 -2 7 -5z m-626 -44 c3 -5 3 -5 0 -10
-5 -6 -8 -6 -14 0 l-5 6 4 4 c6 6 10 6 15 0z m-52 -289 c2 -3 5 -9 7 -13 2 -7
1 -8 -3 -13 -3 -4 -5 -4 -14 -3 -11 1 -21 6 -21 10 0 11 11 23 20 23 5 0 9 -1
11 -4z m-63 -42 c5 -3 5 -4 0 -8 -6 -3 -12 2 -8 7 4 3 3 3 8 1z m119 -10 c4
-3 5 -5 4 -12 -2 -11 -8 -16 -18 -16 -10 0 -16 5 -19 19 -1 9 -1 10 3 14 5 4
6 4 15 2 5 -1 12 -4 15 -7z m276 -33 c12 -12 3 -31 -13 -31 -11 0 -18 7 -18
18 0 11 7 18 18 18 6 0 9 -1 13 -5z m-81 -15 c5 -5 5 -15 0 -20 -9 -9 -24 -2
-24 10 0 8 6 14 14 14 3 0 8 -2 10 -4z m-101 -17 c14 -1 26 -6 30 -13 2 -4 4
-15 6 -33 6 -52 9 -70 13 -82 2 -7 5 -14 5 -15 1 -2 2 -4 3 -4 4 0 12 -16 12
-23 0 -8 -5 -27 -12 -43 -6 -11 -6 -14 -7 -126 0 -54 -1 -101 -2 -104 -4 -19
0 -50 7 -59 6 -7 23 -23 26 -24 4 -1 12 -16 13 -24 1 -9 -5 -16 -13 -14 -4 1
-8 2 -8 1 -1 0 -6 0 -11 -1 -26 -4 -31 -18 -16 -44 16 -28 19 -39 19 -60 0
-11 0 -12 -10 -21 -12 -11 -13 -14 -17 -31 -2 -11 -2 -13 0 -15 3 -2 2 -3 -1
-7 l-5 -5 -4 4 c-4 4 -5 5 -2 8 2 2 2 5 2 8 -1 3 -2 9 -2 14 -1 10 -9 23 -16
27 -4 2 -7 5 -8 6 0 2 -2 3 -3 3 -2 0 -5 2 -7 5 -3 2 -8 7 -13 11 -4 3 -10 11
-13 17 -11 23 -22 86 -26 142 -1 9 -1 20 -2 24 -1 4 -1 18 -2 31 -2 39 -3 48
-6 55 -6 12 -19 17 -41 18 -24 1 -31 7 -31 27 0 19 7 26 27 27 27 2 35 7 35
24 0 8 -1 13 -6 22 -4 8 -7 15 -7 19 0 7 2 11 14 32 6 12 7 14 7 47 1 36 0 43
-17 62 -13 15 -15 24 -9 29 2 1 3 3 3 4 0 1 3 5 8 9 9 8 20 30 20 39 0 10 9
23 18 27 10 3 34 9 37 8 1 0 7 -1 12 -2z m138 -108 c14 -9 13 -35 -1 -43 -7
-4 -22 -3 -31 1 -5 3 -7 5 -8 10 -3 15 3 29 13 34 7 3 21 2 27 -2z m-315 -103
c21 -6 29 -17 20 -26 -2 -2 -6 -3 -11 -3 -8 1 -37 14 -37 18 0 1 -2 4 -5 5
l-6 4 6 1 c3 1 5 2 5 3 0 3 15 2 28 -2z m363 -14 c3 -4 3 -7 3 -17 -1 -10 -3
-15 -13 -31 -13 -22 -18 -26 -30 -26 -18 0 -24 13 -16 35 4 10 13 29 16 32 0
1 3 4 5 7 6 9 27 9 35 0z m60 -57 c3 -2 3 -4 2 -5 -2 0 -3 -3 -3 -5 l-1 -4 -2
4 c-1 2 -3 5 -4 5 -1 1 0 3 1 5 4 4 4 4 7 0z m-475 -35 c5 -5 5 -11 0 -16 -10
-10 -27 5 -16 16 4 4 12 4 16 0z m718 -18 c1 -2 3 -4 4 -3 1 1 2 -1 2 -4 0 -3
-1 -5 -2 -4 -1 1 -3 -1 -4 -3 -3 -6 -10 -5 -16 2 -2 3 -4 5 -4 6 1 0 3 3 5 5
5 6 12 6 15 1z m-272 -47 c3 -3 2 -4 -4 -7 -10 -3 -14 1 -9 9 3 4 4 5 8 3 2
-2 5 -4 5 -5z m-61 -39 c7 -6 7 -19 1 -25 -6 -7 -19 -7 -25 -1 -7 6 -7 19 -1
25 6 7 19 7 25 1z m-278 -10 c16 -7 16 -43 -1 -50 -15 -6 -34 -2 -39 9 -4 8
-4 24 0 32 5 12 23 15 40 9z m-33 -148 c10 -10 2 -24 -14 -26 -9 0 -10 0 -13
5 -4 5 -4 7 -3 13 3 11 22 16 30 8z"/>
<path d="M408 3803 c-12 -2 -17 -7 -31 -24 -2 -3 -4 -6 -5 -7 -1 -1 -7 -9 -15
-18 -7 -9 -15 -19 -17 -21 -2 -2 -5 -7 -8 -11 -3 -4 -6 -9 -8 -11 -4 -4 -10
-12 -21 -29 -4 -6 -9 -13 -11 -15 -2 -2 -4 -4 -4 -5 0 -1 -2 -4 -5 -7 -5 -5
-5 -7 -4 -18 2 -23 21 -37 40 -27 1 1 3 2 3 1 0 -1 6 2 14 6 17 9 28 10 43 1
4 -2 11 -4 15 -4 8 0 8 0 9 9 1 5 1 10 0 10 -1 2 5 14 10 17 2 2 7 4 11 5 11
3 15 11 15 27 -1 9 -2 16 -4 19 -4 7 -4 15 3 28 7 14 8 35 3 42 -2 2 -3 5 -3
7 0 2 -3 9 -6 16 -7 13 -7 13 -24 9z"/>
<path d="M486 3763 c-2 -1 -5 -3 -6 -6 -1 -3 -3 -5 -4 -5 -1 0 -1 -10 0 -18 0
-1 4 -1 8 -1 9 1 20 10 20 17 0 6 -12 14 -18 13z"/>
<path d="M780 3650 c-24 -9 -33 -15 -47 -35 -16 -21 -26 -24 -50 -16 -47 16
-83 -3 -90 -47 -3 -15 -10 -21 -27 -21 -12 0 -16 2 -28 13 -19 18 -42 18 -61
-1 -11 -12 -13 -22 -13 -64 0 -37 2 -45 12 -57 6 -7 24 -12 36 -10 5 1 19 3
32 5 13 2 27 4 32 6 5 1 11 2 14 2 2 0 4 1 4 2 0 1 2 0 3 -3 2 -3 5 -6 6 -7 2
-2 3 -44 3 -211 0 -200 1 -209 4 -219 15 -38 15 -52 0 -96 -3 -9 -3 -27 -4
-157 l0 -147 5 -7 c5 -8 8 -9 24 -11 7 0 11 0 12 2 3 3 7 4 19 3 25 -1 25 -43
0 -44 -12 -1 -16 0 -18 3 -2 1 -6 2 -11 2 -4 0 -10 -1 -12 -1 -6 0 -17 -10
-18 -16 -1 -5 -2 -45 -4 -173 l-1 -76 -6 -8 c-3 -5 -6 -9 -7 -9 -2 0 -8 -5
-14 -11 -16 -15 -19 -17 -30 -17 -8 0 -21 5 -25 10 -1 1 -5 4 -11 7 -21 12
-42 2 -49 -22 -4 -14 -3 -67 2 -77 9 -21 23 -26 50 -18 9 3 17 4 21 3 9 -1 27
2 31 6 2 2 4 3 5 3 2 0 7 6 12 17 7 15 13 19 28 20 16 1 23 -5 32 -24 3 -8 9
-17 13 -20 13 -14 8 -13 161 -12 142 0 143 0 143 3 0 1 1 2 3 2 1 0 4 2 7 5 4
3 5 6 5 16 -1 15 -2 16 -20 29 -17 11 -18 13 -16 32 1 16 -2 36 -5 36 -1 0 -2
1 -2 3 0 4 -18 11 -34 12 -8 1 -23 2 -34 3 -14 2 -23 2 -42 0 -24 -2 -24 -2
-29 2 -6 6 -7 16 -2 23 2 3 11 9 20 13 12 6 19 11 25 17 15 18 14 9 14 192 0
154 0 163 -4 176 -10 35 -10 30 0 64 9 31 3 65 -13 79 -16 14 -17 32 -1 45 2
2 6 7 9 11 9 14 9 22 8 78 -1 65 -1 68 0 132 l1 51 -5 11 c-5 9 -8 12 -19 19
l-13 8 -27 1 -26 1 -14 13 c-8 7 -19 17 -24 22 l-11 10 2 16 c1 17 -2 41 -7
50 -5 10 1 22 11 22 7 0 13 -7 13 -13 0 -9 8 -32 16 -42 6 -9 8 -13 15 -26 10
-22 29 -24 60 -9 14 8 19 12 24 23 4 9 5 13 6 53 1 41 1 44 -3 53 -5 13 -19
21 -39 24 -3 1 -6 2 -7 3 0 1 -1 2 -3 2 -1 0 -4 3 -7 6 -10 13 -18 22 -20 21
-1 -1 -2 0 -2 1 -1 1 -19 10 -22 10 -1 0 -2 1 -2 2 0 1 -7 4 -14 6 -1 1 -2 3
-4 7 -5 10 -8 12 -8 6 0 -4 -1 -5 -7 -7 -5 -1 -9 -2 -11 -2 -5 0 -32 11 -36
15 -9 8 -9 34 1 42 10 10 16 10 54 3 27 -5 31 -6 43 -19 5 -4 16 -12 24 -17
15 -9 16 -10 24 -33 2 -5 4 -9 4 -7 0 2 4 2 17 2 l16 -1 3 8 c1 4 2 29 3 55 1
26 2 64 2 84 2 42 0 53 -12 69 -12 19 -39 26 -63 17z m-207 -177 c3 -3 3 -3 0
-6 -4 -5 -11 1 -7 6 4 4 4 4 7 0z m154 -63 c2 -3 5 -6 7 -6 4 0 1 -3 -6 -5 -7
-3 -14 1 -13 7 1 2 2 3 3 3 1 -1 2 1 2 3 0 6 2 5 7 -2z m-70 -317 c3 -3 3 -3
0 -6 -4 -5 -11 1 -7 6 4 4 4 4 7 0z m94 -147 c16 -7 16 -43 -1 -50 -15 -6 -34
-2 -39 9 -4 8 -4 24 0 32 5 12 23 15 40 9z m49 -360 c5 -5 5 -15 0 -20 -9 -9
-24 -2 -24 10 0 8 6 14 14 14 3 0 8 -2 10 -4z m-96 -186 c1 0 5 -3 8 -6 6 -6
6 -6 6 -22 -1 -21 2 -31 11 -41 12 -16 14 -18 10 -24 -4 -4 -5 -5 -18 -5 -16
0 -25 2 -30 7 -2 2 -6 12 -9 24 -3 11 -7 23 -9 26 -4 8 -4 27 0 33 2 2 6 5 9
7 5 2 8 2 22 1z"/>
<path d="M385 3606 c0 -3 -16 -20 -20 -20 -9 0 -35 -13 -46 -22 -6 -6 -15 -12
-20 -14 -12 -5 -33 -6 -40 -1 -4 3 -9 3 -20 3 -18 -1 -24 -5 -33 -22 -7 -14
-7 -16 -3 -58 2 -16 0 -18 -21 -29 -22 -11 -26 -15 -26 -27 -1 -13 0 -13 5
-20 6 -7 13 -10 30 -14 20 -4 28 -20 16 -32 -8 -9 -32 -11 -46 -3 -6 3 -27 1
-36 -5 -3 -2 -6 -4 -5 -4 0 -1 0 -2 -1 -4 -2 -8 -2 -12 -1 -23 4 -28 4 -31
-12 -48 -19 -22 -27 -43 -25 -72 0 -11 2 -24 4 -30 9 -29 6 -44 -11 -57 -6 -5
-11 -12 -15 -18 -6 -12 -6 -14 -8 -31 -1 -7 -2 -20 -3 -29 -6 -53 -8 -99 -7
-165 0 -34 1 -63 1 -65 4 -14 7 -18 23 -34 6 -7 11 -14 11 -16 0 -5 -5 -14
-14 -26 -11 -14 -13 -25 -9 -49 6 -38 13 -79 17 -98 3 -10 6 -24 7 -31 4 -19
20 -74 29 -101 4 -13 8 -25 9 -27 10 -37 61 -151 94 -209 20 -37 67 -112 75
-120 1 -1 2 -4 4 -6 1 -3 3 -6 5 -7 1 -2 6 -8 10 -14 4 -6 10 -15 14 -20 4 -5
10 -13 13 -18 4 -5 8 -11 10 -13 6 -7 10 -12 20 -25 12 -16 19 -20 33 -21 9
-1 15 0 25 3 18 6 26 4 39 -9 12 -13 17 -15 32 -14 9 0 12 1 18 7 4 4 6 7 6 8
-1 1 0 2 1 3 6 4 3 31 -5 40 -9 9 -69 105 -83 134 -7 13 -14 17 -30 17 -9 0
-13 -1 -20 -6 -10 -7 -27 -8 -45 -3 -19 5 -27 11 -27 23 0 12 12 21 33 23 6 1
14 3 19 5 l10 5 0 15 c1 9 1 17 0 18 -1 1 -7 3 -15 6 -23 7 -25 8 -28 14 -6
13 -5 26 4 41 12 21 13 34 5 59 -6 17 -19 62 -21 70 0 2 -4 17 -8 33 -18 78
-29 157 -36 255 -1 21 -5 32 -13 38 -6 5 -25 11 -33 10 -6 0 -13 6 -13 13 0 7
6 12 17 14 5 0 11 2 12 3 2 2 3 2 7 2 3 0 14 11 16 17 1 3 2 15 2 27 0 22 -3
32 -13 38 -6 5 -26 10 -29 8 -5 -3 -17 0 -23 6 -8 8 -8 24 0 32 5 6 7 6 18 6
36 -1 48 10 47 41 -1 9 -1 17 0 17 0 0 1 2 1 6 0 3 1 11 2 18 1 7 1 19 2 26 0
7 1 22 2 33 1 19 1 20 -4 31 -7 13 -21 22 -41 26 -20 4 -43 12 -47 16 -13 12
-9 42 7 49 14 5 29 2 48 -13 15 -11 32 -10 43 2 6 6 9 18 16 54 3 16 9 43 12
59 4 17 8 31 8 32 0 3 6 21 13 47 7 23 7 30 0 55 -6 21 -2 32 14 43 21 14 27
21 37 41 14 29 20 43 26 61 3 9 6 16 7 16 2 0 5 10 5 17 0 2 -1 4 -3 3 -2 0
-2 0 -1 2 2 2 0 3 -11 3 -8 0 -14 -1 -13 -1z m-182 -351 c5 -8 1 -16 -8 -16
-9 0 -13 8 -8 16 2 3 5 5 8 5 3 0 6 -2 8 -5z m8 -255 c9 -4 13 -10 13 -18 0
-11 -6 -16 -20 -16 -16 0 -26 7 -26 19 0 14 17 21 33 15z m-32 -301 c12 -7 14
-33 3 -43 -8 -9 -32 -9 -40 0 -9 8 -9 32 0 41 7 7 27 8 37 2z"/>
</g>
</svg>
