<?xml version="1.0" standalone="no"?>
<!DOCTYPE svg PUBLIC "-//W3C//DTD SVG 20010904//EN"
 "http://www.w3.org/TR/2001/REC-SVG-20010904/DTD/svg10.dtd">
<svg version="1.0" xmlns="http://www.w3.org/2000/svg"
 width="1106.000000pt" height="2870.000000pt" viewBox="0 0 1106.000000 2870.000000"
 preserveAspectRatio="xMidYMid meet">
<metadata>
Created by potrace 1.15, written by Peter Selinger 2001-2017
</metadata>
<g transform="translate(0.000000,2870.000000) scale(0.500000,-0.500000)"
fill="#000000" stroke="none">
<path d="M885 3831 c-4 -3 -5 -7 -5 -16 -1 -10 0 -12 7 -21 4 -6 7 -11 7 -12
0 -4 30 -32 38 -36 4 -2 13 -7 19 -11 16 -10 20 -17 19 -34 -2 -16 -7 -21 -25
-21 -17 0 -21 4 -28 26 -9 28 -16 35 -35 34 -10 0 -11 -1 -19 -9 -9 -9 -13
-20 -13 -33 0 -3 -1 -8 -2 -10 -2 -6 -10 -15 -10 -12 0 3 -15 12 -25 14 -7 1
-14 1 -24 -1 -25 -5 -31 -3 -34 16 -1 6 -2 11 -3 12 0 1 -1 4 -1 6 -2 11 -11
20 -30 33 -11 7 -23 15 -27 18 -4 3 -11 7 -16 8 -5 1 -11 4 -13 7 -3 2 -5 4
-6 3 0 0 -1 1 -1 2 0 1 -1 2 -1 1 -1 0 -3 0 -6 1 -3 1 -5 0 -7 -2 -2 -2 -3 -4
-3 -4 1 0 1 -1 0 -2 -3 -2 -1 -10 3 -19 3 -6 1 -19 -4 -24 -6 -6 -17 -6 -34
-2 -9 3 -14 3 -27 0 -1 0 -5 -3 -8 -6 -6 -5 -6 -7 -5 -17 0 -11 1 -13 9 -21
11 -11 13 -18 7 -24 -4 -4 -6 -4 -30 -4 -15 0 -30 2 -39 4 -22 5 -133 4 -154
-1 -9 -2 -21 -4 -28 -4 -7 0 -19 2 -28 4 -22 6 -60 6 -73 0 -15 -7 -19 -12
-20 -25 0 -7 1 -11 3 -14 2 -1 3 -3 3 -4 0 -2 12 -13 24 -21 19 -13 22 -29 11
-62 -4 -14 -5 -20 -8 -47 -1 -5 -3 -25 -5 -43 -2 -18 -4 -43 -5 -56 -1 -22 -2
-32 -4 -49 -1 -4 -1 -9 -1 -10 0 -1 -1 -3 -2 -4 -2 -2 -2 -4 0 -6 2 -2 5 -3
16 -2 11 1 14 1 14 -1 0 -2 3 1 8 5 8 8 20 10 34 4 17 -7 19 -21 4 -34 -12
-11 -18 -18 -21 -27 -2 -6 -4 -12 -4 -13 0 -11 -12 -21 -24 -21 -13 0 -35 -8
-42 -15 -8 -8 -9 -13 -19 -62 -8 -42 -14 -68 -24 -109 -3 -14 -6 -26 -7 -28
-2 -12 -28 -101 -39 -136 -19 -61 -54 -154 -74 -194 -8 -16 -9 -21 -9 -31 0
-21 13 -37 31 -37 12 0 18 3 34 20 8 8 22 22 31 30 18 16 46 49 57 66 5 6 5
20 1 34 -8 30 -7 33 17 33 10 0 19 1 21 2 2 0 6 1 8 1 1 0 7 4 12 8 10 9 13 9
18 1 3 -5 8 -27 10 -44 0 -6 2 -21 3 -35 1 -14 2 -32 1 -41 -2 -31 6 -48 28
-60 17 -8 22 -12 32 -21 18 -16 43 -21 68 -15 18 5 48 18 52 24 1 2 6 5 10 7
9 4 9 4 13 -1 4 -4 4 -4 0 -12 -2 -5 -5 -10 -8 -12 -2 -2 -7 -12 -11 -22 -9
-23 -8 -22 -29 -31 -24 -12 -31 -19 -40 -47 -2 -8 -6 -17 -7 -21 -2 -4 -6 -16
-10 -27 -10 -27 -22 -57 -31 -77 -5 -9 -8 -17 -8 -18 0 -1 -10 -21 -22 -45
-25 -49 -27 -57 -18 -71 11 -19 13 -24 10 -30 -3 -5 -4 -5 -21 -5 -27 0 -32
-3 -48 -28 -8 -11 -19 -27 -25 -35 -22 -29 -23 -35 -17 -59 2 -7 4 -14 4 -16
2 -6 -5 -12 -12 -12 -18 2 -35 1 -41 -2 -4 -1 -13 -9 -20 -17 -7 -8 -26 -27
-41 -43 -15 -15 -29 -31 -31 -34 -8 -14 -4 -32 8 -44 13 -14 33 -18 48 -10 15
8 86 51 95 58 1 1 8 6 15 11 14 9 54 39 61 45 3 2 8 7 12 10 4 3 9 7 10 8 1 1
6 5 12 10 l9 7 0 13 c0 15 -1 17 -13 29 -8 9 -9 11 -9 19 0 13 6 19 19 19 9 0
10 0 20 -11 11 -12 17 -15 32 -15 7 0 9 1 17 10 5 5 11 12 14 16 3 4 5 7 6 8
1 1 4 4 7 9 6 8 11 13 23 23 8 7 8 8 8 21 0 15 0 14 -23 34 -7 6 -7 7 -7 18 0
16 7 23 22 23 9 0 20 -3 20 -6 0 -1 3 -4 8 -7 6 -4 9 -5 20 -5 13 0 19 4 28
18 2 2 4 6 6 9 2 2 9 13 16 24 10 16 12 21 12 28 0 13 -6 23 -18 31 -13 8 -15
11 -18 22 -5 21 8 39 30 37 18 -2 27 -2 39 1 10 2 13 4 25 17 13 15 26 37 34
59 2 6 6 15 8 20 9 19 27 66 39 104 10 30 14 43 16 61 2 18 5 27 10 39 9 20
13 30 14 35 0 2 2 9 4 16 4 14 4 16 15 66 8 40 11 47 20 44 2 -1 4 -2 4 -3 0
-2 6 -14 14 -27 7 -13 17 -29 20 -36 4 -7 11 -20 17 -30 6 -10 13 -24 15 -31
l5 -13 1 -316 1 -316 5 -9 c9 -15 25 -25 52 -33 32 -10 31 -9 40 -25 10 -16
28 -36 39 -43 10 -6 31 -10 41 -8 10 2 13 2 26 -4 6 -3 17 -7 25 -9 l14 -4 9
5 c6 3 11 5 13 5 2 0 3 1 3 2 0 1 2 4 5 7 6 7 10 18 9 25 -1 3 1 7 5 11 l6 6
68 -1 c88 0 90 0 89 25 0 9 1 13 2 13 2 0 1 1 -2 2 -8 3 -11 23 -5 37 4 10 4
27 -1 34 -7 11 -16 13 -68 13 -48 0 -60 -2 -70 -10 -28 -22 -54 -19 -54 6 0
12 2 15 13 29 10 12 10 11 14 22 2 8 3 18 3 56 l0 46 6 9 c6 10 6 10 37 11 13
0 26 1 29 2 12 4 19 17 25 41 2 9 10 13 26 12 8 0 14 -8 16 -19 4 -24 14 -39
30 -43 6 -1 38 -2 88 -2 l80 0 10 -6 c6 -3 10 -6 10 -7 -1 0 3 -4 9 -9 27 -20
27 -27 2 -44 -4 -4 -11 -11 -14 -16 -5 -9 -5 -10 -5 -38 l0 -29 -6 -6 -6 -6
-40 1 c-45 0 -51 -1 -66 -10 -12 -8 -17 -19 -19 -39 -1 -21 -4 -31 -10 -34 -3
-2 -4 -3 -2 -3 1 0 2 -4 2 -13 -1 -24 3 -25 78 -25 l57 1 6 -6 6 -6 -1 -44 c0
-36 0 -45 3 -52 4 -9 14 -21 18 -21 2 0 3 -1 3 -2 0 -1 1 -1 3 -2 1 0 8 0 16
-1 26 -3 42 6 56 32 6 11 8 13 18 17 20 7 18 8 34 -9 8 -9 15 -15 15 -14 0 0
3 0 6 -2 9 -5 30 -3 30 3 0 3 21 11 42 15 21 5 39 21 46 42 4 12 4 17 4 67 0
37 -1 57 -3 62 -3 8 -12 17 -21 22 -10 5 -15 12 -12 17 1 2 7 8 13 12 9 6 13
11 18 19 l5 11 0 54 c0 59 -1 69 -11 79 -17 18 -17 30 0 48 10 10 11 18 11
103 0 43 1 81 2 83 3 8 8 13 24 21 17 8 48 35 52 46 3 9 2 21 -3 32 -7 14 -5
16 16 27 27 13 32 19 39 46 4 18 5 20 20 26 17 6 26 14 31 24 11 22 13 48 6
79 -3 17 -15 42 -28 60 -16 24 -19 37 -15 79 1 9 2 27 3 40 1 13 2 25 2 28 0
3 1 15 2 28 1 23 2 36 5 48 1 8 1 29 0 34 -3 10 -9 18 -14 20 -9 3 -27 2 -36
-1 -13 -6 -22 -4 -37 5 -13 8 -33 14 -45 14 -12 -1 -14 0 -20 6 -7 7 -8 15 -4
41 2 9 3 19 3 22 0 6 -6 41 -7 42 -1 0 -4 2 -7 4 -3 2 -7 3 -11 2 -6 -1 -27 4
-33 8 -12 8 -13 27 -3 37 7 8 21 8 35 2 6 -3 15 -5 21 -5 11 0 13 0 19 6 3 3
9 11 11 17 5 11 5 12 6 90 1 53 2 81 4 86 1 4 2 14 3 23 1 16 1 18 -4 27 -7
10 -14 22 -19 26 -9 9 -12 17 -12 31 1 17 -3 34 -8 41 -3 5 -27 24 -44 36 -2
2 -6 4 -9 6 -10 8 -33 14 -55 16 -1 0 -8 6 -15 13 l-13 13 -14 0 -14 1 -10
-11 c-45 -47 -63 -64 -70 -68 l-9 -5 -213 0 c-239 -1 -214 -2 -233 16 -8 8
-26 18 -41 23 -3 1 -14 5 -26 10 -73 27 -88 33 -100 35 -3 1 -7 2 -10 2 -3 1
-5 2 -6 3 -1 1 -3 0 -5 -3z m628 -147 c5 -5 6 -11 5 -24 0 -3 1 -22 3 -35 1
-4 2 -9 3 -12 1 -3 2 -9 2 -14 0 -12 5 -26 14 -34 7 -8 21 -19 25 -21 1 0 4
-2 7 -4 5 -5 25 -5 30 -1 5 3 9 17 9 32 1 18 5 25 13 29 9 4 24 3 32 -1 8 -4
22 -5 26 -3 1 2 2 2 2 0 0 -2 1 -2 3 1 1 1 4 3 5 3 3 0 3 0 0 2 -2 1 -2 2 0 2
3 1 3 6 2 31 -1 13 5 19 19 19 20 0 25 -16 12 -40 -4 -6 -6 -12 -6 -12 1 0 0
-3 -2 -6 -2 -4 -4 -11 -4 -16 0 -12 -4 -18 -12 -18 -9 0 -31 -5 -39 -9 -18 -8
-29 -26 -31 -52 -2 -18 -9 -24 -27 -24 -7 0 -14 2 -21 5 -11 4 -20 5 -31 2
-15 -5 -22 -33 -15 -61 7 -26 2 -37 -17 -37 -8 0 -11 1 -15 5 -5 4 -5 6 -5 25
1 17 0 22 -3 29 l-3 7 -14 0 c-10 0 -14 -1 -16 -3 -4 -4 -10 -23 -10 -30 0 -3
-2 -7 -5 -10 -10 -11 -31 -4 -31 11 0 8 -6 24 -11 31 -9 12 -17 13 -69 13 -43
-1 -46 -1 -51 -5 -11 -8 -17 -27 -13 -42 2 -7 2 -10 -3 -23 -5 -13 -16 -53
-24 -83 -3 -11 1 -43 5 -51 1 -2 1 -4 0 -4 -1 0 -2 -4 -4 -10 -1 -5 -4 -13 -6
-17 -3 -4 -6 -16 -8 -25 -2 -10 -5 -19 -7 -21 -1 -2 -3 -4 -3 -5 -2 -6 -25 0
-32 7 -4 4 -7 18 -4 20 2 1 -7 27 -11 31 -5 6 -20 11 -28 10 -11 -1 -20 8 -20
19 0 18 -12 31 -35 39 -14 5 -18 10 -18 21 0 15 -6 35 -17 52 -10 17 -4 33 13
33 9 0 18 -7 18 -14 0 -2 2 -11 4 -20 9 -29 24 -36 78 -36 48 0 55 3 57 25 1
11 1 13 -4 20 -7 11 -9 23 -7 32 3 16 -3 33 -14 40 -8 6 -9 6 -36 6 l-27 0 -6
6 -6 6 1 23 c0 26 -2 36 -10 44 -6 5 -24 12 -31 12 -6 0 -13 7 -13 13 0 6 7
13 13 13 14 0 35 13 38 22 0 3 4 9 8 12 l6 7 130 -1 c141 0 140 0 151 11 6 6
14 26 14 34 0 14 14 21 49 25 18 2 22 1 28 -6z m-526 -56 c7 -6 7 -19 1 -25
-6 -7 -19 -7 -25 -1 -7 6 -7 19 -1 25 6 7 19 7 25 1z m-518 -39 c8 -5 9 -9 8
-48 -2 -40 -2 -43 -14 -47 -4 -2 -5 -1 -9 4 -3 4 -8 17 -9 26 -1 2 -4 10 -8
19 -14 31 -7 51 19 50 5 -1 11 -2 13 -4z m382 -72 c1 -18 1 -45 1 -60 -2 -104
0 -139 6 -155 2 -5 4 -8 4 -8 0 1 2 0 4 -2 2 -1 5 -3 6 -3 5 -1 15 -4 16 -6 1
-1 2 -1 2 2 0 4 4 4 15 1 18 -6 17 -34 -1 -34 -8 0 -14 3 -14 8 0 2 -1 2 -2 1
0 -1 -9 -3 -19 -4 -20 -1 -29 -4 -29 -9 0 -3 0 -3 -2 0 0 2 -20 20 -44 40 -24
20 -44 38 -45 39 -1 1 -7 6 -12 10 -5 4 -11 9 -12 11 -8 7 -24 7 -48 -1 -19
-7 -49 -9 -53 -4 -5 6 1 11 22 18 12 4 15 7 17 18 4 20 -4 29 -23 29 -16 0
-23 -5 -30 -19 -3 -7 -6 -14 -6 -14 0 -2 -7 -7 -17 -12 -9 -4 -33 -28 -41 -40
-3 -4 -4 -10 -4 -18 0 -16 6 -21 31 -26 2 -1 6 -3 8 -5 l5 -5 -4 -4 c-3 -4 -7
-5 -23 -6 -10 -1 -22 -2 -28 -4 -16 -4 -23 -1 -35 15 -12 17 -12 24 2 73 11
38 16 61 28 109 5 20 16 76 16 85 1 4 3 8 7 11 l6 5 136 1 c116 1 137 1 142 4
6 3 6 3 11 -3 5 -5 5 -8 7 -38z m-409 -54 c9 -7 13 -30 7 -43 -4 -6 -18 -18
-27 -20 -14 -3 -22 -2 -27 3 -5 5 -5 6 -4 17 2 22 13 38 30 43 13 3 17 3 21 0z
m1220 -88 c2 -2 4 -5 4 -6 0 -2 1 -3 2 -3 3 0 0 -13 -5 -17 -5 -7 -18 -7 -24
-1 -7 6 -7 19 -1 25 6 6 19 7 24 2z m-295 -26 c3 -5 3 -5 0 -10 -2 -3 -5 -5
-7 -5 -2 0 -5 2 -7 5 -3 5 -3 5 0 10 2 3 5 5 7 5 2 0 5 -2 7 -5z m196 -11 c6
-2 8 -4 23 -23 5 -6 11 -11 14 -12 10 -2 24 -17 18 -19 -2 -1 -20 -24 -20 -26
0 -1 -1 -2 -3 -2 -2 0 -3 -1 -3 -2 0 -4 -22 -8 -40 -8 -15 1 -18 2 -24 7 -3 3
-6 5 -5 5 0 0 -1 6 -3 13 -2 7 -6 23 -9 35 l-4 23 5 5 c5 6 5 6 25 6 11 0 23
-1 26 -2z m-563 -54 c9 -9 2 -25 -10 -25 -12 0 -19 16 -10 25 2 2 7 4 10 4 3
0 8 -2 10 -4z m386 -2 c5 -6 5 -12 0 -18 -7 -8 -22 -2 -22 9 0 11 15 17 22 9z
m-1030 -27 c5 -3 12 -7 16 -10 10 -7 23 -7 40 1 25 12 40 6 40 -14 0 -8 -1
-11 -5 -15 -5 -5 -7 -6 -30 -5 -7 0 -19 -2 -28 -4 -20 -5 -36 -5 -54 0 -18 5
-22 9 -24 24 0 1 -1 2 -1 3 -3 5 3 17 10 22 8 5 26 4 36 -2z m349 -16 c3 -3 3
-3 0 -6 -4 -5 -11 1 -7 6 4 4 4 4 7 0z m284 -22 c9 -10 10 -14 2 -17 -9 -4
-13 -4 -17 0 -5 5 -5 11 1 17 5 6 8 6 14 0z m61 -27 c5 -5 5 -11 0 -16 -7 -7
-18 -2 -22 9 -1 3 0 4 6 7 8 4 12 4 16 0z m364 -2 c8 -9 2 -22 -9 -22 -11 0
-16 14 -9 23 4 4 14 4 18 -1z m-69 -22 c6 -6 6 -20 1 -25 -7 -6 -21 -7 -29 -2
-7 4 -6 14 2 24 4 6 6 7 14 7 6 0 9 -1 12 -4z m-836 -4 c5 -4 6 -6 5 -11 -1
-3 -2 -14 -2 -23 -1 -19 2 -28 11 -33 5 -4 27 -6 27 -3 0 4 14 2 18 -2 7 -7 3
-28 -5 -27 -2 0 -4 1 -6 1 -2 0 -4 2 -6 4 -3 3 -6 3 -16 3 -21 -1 -24 -5 -23
-36 0 -10 -1 -19 -3 -26 -6 -16 -5 -29 2 -47 3 -6 3 -11 2 -21 -2 -20 2 -31
12 -43 14 -14 13 -19 -1 -34 -5 -5 -11 -17 -14 -27 -8 -24 -12 -46 -12 -62 0
-16 0 -18 -5 -22 -7 -7 -23 -7 -30 0 -6 6 -6 15 -1 38 3 15 3 33 -1 41 -1 4
-3 9 -4 12 -1 3 -5 12 -9 20 -8 17 -9 28 -3 37 9 13 5 43 -6 49 -2 1 -8 5 -14
8 -5 3 -12 7 -14 8 -2 1 -7 4 -11 6 -4 3 -13 8 -20 11 -20 10 -25 18 -27 45
-2 23 0 26 17 36 20 12 29 18 32 25 2 3 4 6 4 7 1 1 7 15 14 31 7 17 13 31 15
32 6 7 14 9 41 9 26 0 27 0 33 -6z m271 -6 c3 -2 8 -6 10 -8 10 -9 34 -12 44
-5 5 4 6 4 16 1 6 -2 11 -4 13 -6 1 -2 3 -3 4 -3 0 0 6 -4 11 -10 l11 -10 -2
-15 c-1 -18 -4 -31 -9 -37 -2 -2 -4 -5 -4 -6 0 -1 -2 -5 -5 -8 -4 -3 -6 -6 -5
-6 0 0 0 -1 -1 -3 -3 -10 -4 -23 -3 -29 4 -13 -5 -33 -15 -33 -4 0 -13 -3 -31
-10 -4 -1 -6 -3 -6 -4 0 -1 -3 -2 -6 -3 -4 0 -9 -3 -12 -6 -12 -10 -17 0 -13
28 12 74 13 90 11 99 -4 12 -12 21 -28 29 -17 8 -20 13 -20 27 0 9 1 11 6 16
7 8 23 8 34 2z m471 -18 c34 -11 46 -20 47 -33 0 -12 16 -44 20 -40 0 0 3 0 6
-2 6 -3 24 -2 30 2 9 5 25 5 31 -2 4 -4 5 -7 5 -15 0 -13 -2 -16 -13 -23 -5
-3 -11 -7 -13 -10 -5 -7 -9 -5 -20 9 -23 32 -21 30 -30 30 -4 -1 -8 -1 -8 -2
0 -1 -1 -1 -2 -1 -2 0 -8 -2 -14 -4 -19 -5 -27 -18 -26 -43 0 -18 -7 -30 -24
-37 -16 -7 -22 2 -15 24 6 17 1 31 -13 38 -5 3 -24 3 -36 0 -3 0 -9 -2 -14 -2
-5 -1 -12 -2 -15 -3 -4 -1 -7 -1 -7 0 -2 5 -27 4 -25 0 0 -1 -2 -3 -4 -5 -2
-1 -5 -4 -7 -5 -2 -2 -6 -4 -9 -5 -3 -1 -5 -2 -5 -3 0 -1 -25 -8 -30 -8 -12 0
-38 -18 -38 -26 0 -2 -1 -6 -3 -9 -4 -6 -7 -17 -13 -47 -2 -10 -5 -22 -6 -25
-7 -16 -43 -16 -50 1 -6 13 -3 24 9 47 7 12 13 24 14 27 2 3 6 8 9 10 4 3 10
8 15 12 4 5 8 8 9 8 1 0 1 1 2 3 0 8 11 34 15 36 10 7 67 1 67 -7 0 -2 1 -2 2
-1 0 2 4 3 8 4 18 2 26 9 25 21 -1 14 -9 24 -28 35 -13 8 -17 12 -17 22 0 6 1
9 5 13 5 4 6 5 23 3 11 -1 33 -2 51 -2 31 0 33 0 47 6 8 3 17 8 20 10 6 5 9 5
25 -1z m-610 -9 c3 -3 3 -3 0 -6 -4 -5 -11 1 -7 6 4 4 4 4 7 0z m881 -12 c4
-2 11 -9 16 -13 5 -5 12 -11 15 -13 15 -11 19 -30 7 -42 -6 -6 -6 -6 -23 -5
-25 0 -45 4 -50 8 -9 9 -12 49 -4 61 7 11 26 13 39 4z m330 0 c4 -4 6 -6 4 -8
-1 -1 -2 -4 -3 -7 -1 -3 -6 -15 -12 -27 -6 -11 -13 -28 -16 -37 -10 -28 -13
-32 -28 -32 -11 0 -52 13 -74 23 -8 4 -15 7 -16 7 -1 0 -7 4 -36 20 -19 11
-48 33 -62 48 -4 3 -8 6 -9 6 -3 0 3 7 9 10 3 1 38 2 120 2 l117 0 6 -5z
m-1254 -89 c5 -5 5 -11 0 -16 -7 -7 -21 -1 -19 9 1 13 10 16 19 7z m761 -50
c2 -2 7 -8 11 -14 11 -16 12 -18 24 -34 23 -29 22 -29 36 -30 11 0 14 0 25 6
l13 7 20 -4 c10 -2 26 -3 35 -3 19 0 25 -4 25 -18 0 -17 -12 -22 -35 -14 -13
5 -26 5 -33 1 -3 -3 -4 -5 -4 -18 l0 -14 9 -7 c5 -4 10 -8 12 -9 7 -6 19 -15
30 -22 11 -7 33 -28 33 -31 0 -3 22 -17 34 -23 7 -3 13 -6 14 -8 1 -2 4 -3 5
-3 6 0 6 -10 0 -25 -7 -14 -12 -18 -27 -18 -15 0 -18 3 -29 19 -21 32 -33 36
-65 22 l-15 -7 -74 -1 -74 -1 -11 -6 c-6 -3 -13 -9 -15 -12 -7 -9 -17 -15 -25
-15 -8 0 -18 6 -25 15 -2 3 -9 9 -15 12 -12 6 -13 6 -72 8 -29 0 -33 1 -51 7
-24 8 -31 7 -52 -3 -22 -11 -28 -9 -42 13 -3 4 -7 8 -9 9 -2 1 -4 2 -4 3 0 1
-5 2 -11 2 -8 0 -11 -1 -17 -5 -3 -3 -5 -6 -5 -7 1 -1 0 -2 -1 -2 -1 0 -4 -6
-7 -13 -6 -14 -10 -18 -19 -19 -19 -2 -26 4 -26 21 0 12 3 16 16 23 20 11 30
24 35 46 2 10 9 14 24 14 16 0 21 -4 26 -19 2 -6 5 -13 8 -16 3 -3 5 -6 5 -7
0 -1 6 -2 14 -2 12 0 14 0 16 4 2 3 3 5 3 6 0 1 1 5 3 9 1 4 2 15 2 24 0 20 4
26 21 34 19 9 36 12 48 8 27 -7 37 -6 59 9 15 11 48 34 63 46 4 3 15 12 24 18
9 7 17 13 18 14 1 1 7 5 12 9 6 4 14 11 18 16 9 9 15 10 22 5z m-1078 -19 c12
-12 3 -31 -13 -31 -11 0 -18 7 -18 18 0 11 7 18 18 18 6 0 9 -1 13 -5z m1451
-15 c9 -10 2 -20 -17 -27 -15 -6 -28 -6 -32 -2 -8 8 2 18 28 29 11 5 17 5 21
0z m-1343 -16 c4 -6 4 -24 -1 -30 -7 -9 -27 -9 -34 0 -5 6 -5 24 0 30 7 9 27
9 35 0z m1234 -64 c7 -6 7 -19 1 -25 -6 -7 -19 -7 -25 -1 -7 6 -7 19 -1 25 6
7 19 7 25 1z m143 -57 l-5 -5 -4 4 -5 5 4 4 5 5 4 -4 5 -5 -4 -4z m-73 -34 c7
-4 10 -11 10 -23 0 -19 -8 -27 -27 -27 -8 0 -13 1 -17 4 -3 2 -7 5 -9 6 -4 3
-6 5 -6 10 0 6 9 26 13 29 7 6 27 7 36 1z m-1312 -59 c7 -3 12 -13 12 -25 0
-20 -10 -28 -32 -28 -19 0 -24 8 -23 32 0 20 19 30 43 21z m784 -51 c5 -8 1
-16 -8 -16 -9 0 -13 8 -8 16 2 3 5 5 8 5 3 0 6 -2 8 -5z m-196 -20 c4 -4 5 -7
5 -15 0 -14 -6 -20 -20 -20 -14 0 -20 6 -20 20 0 14 6 20 20 20 8 0 11 -1 15
-5z m-368 -19 c5 -5 6 -7 6 -16 0 -15 -8 -23 -23 -23 -9 0 -11 1 -16 7 -9 8
-9 23 -1 32 9 9 24 9 34 0z m810 -13 c16 -4 23 -5 39 -5 19 1 19 1 25 -5 l6
-6 0 -61 0 -61 -6 -6 -6 -6 -124 1 c-138 0 -134 1 -148 -14 -5 -4 -12 -11 -16
-17 -5 -5 -9 -8 -9 -7 0 0 -1 0 -2 -1 -1 -3 -15 -11 -25 -15 -10 -5 -17 -5
-21 0 -5 5 -4 7 1 26 8 29 8 31 7 97 l-1 64 6 5 c3 2 5 6 5 9 0 3 1 3 2 1 1
-2 4 -2 90 -2 12 0 39 0 62 -1 40 -1 42 -1 58 4 22 6 34 6 57 0z m179 -5 c5
-5 6 -7 6 -16 0 -10 -5 -22 -11 -26 -2 -2 -6 -9 -10 -18 -7 -15 -8 -17 -13
-23 -5 -9 -15 -9 -22 -2 -5 6 -5 9 3 35 3 9 5 23 6 31 2 19 8 25 24 25 10 0
12 -1 17 -6z m-1114 -94 c5 -5 5 -11 0 -16 -10 -10 -27 5 -16 16 4 4 12 4 16
0z m1221 -67 c5 -4 6 -6 6 -17 1 -16 -1 -21 -14 -29 -5 -4 -11 -9 -13 -11 -4
-6 -3 -29 1 -39 7 -18 1 -31 -15 -31 -13 0 -16 5 -21 29 -2 11 -5 26 -6 33 -2
7 -3 16 -2 20 2 16 15 37 29 47 8 5 28 4 35 -2z m-714 -110 c-3 -22 -16 -39
-30 -39 -28 0 -19 40 12 50 10 4 10 4 14 0 3 -3 4 -6 4 -11z m720 -81 c4 -6 4
-24 -1 -30 -7 -9 -27 -9 -34 0 -5 6 -5 24 0 30 7 9 27 9 35 0z m-123 -67 c8
-4 21 -19 25 -29 4 -11 4 -13 -1 -18 -8 -8 -49 0 -58 11 -3 4 -4 9 -4 16 0 16
7 23 22 23 6 0 13 -1 16 -3z m59 -164 c3 -5 3 -6 0 -9 -2 -2 -3 -4 -3 -6 0 -4
-7 -2 -10 4 -4 6 -4 7 0 11 4 6 8 6 13 0z"/>
<path d="M69 3676 c-15 -6 -22 -16 -23 -34 -1 -6 13 -52 17 -60 8 -16 28 -28
44 -28 15 0 26 8 43 32 6 8 13 16 15 18 5 4 9 13 12 25 4 18 -6 36 -24 44 -9
5 -12 5 -44 5 -19 0 -37 -1 -40 -2z"/>
<path d="M888 2048 c0 -1 -4 -2 -13 -2 -24 0 -25 -3 -25 -70 0 -41 1 -51 3
-57 4 -9 14 -21 18 -21 2 0 3 -1 3 -2 0 -2 10 -3 46 -3 67 0 126 13 141 31 4
5 5 8 5 19 l0 12 -11 7 c-6 3 -12 6 -13 6 -1 0 -5 1 -8 3 -29 16 -37 17 -69
15 -13 -1 -16 1 -29 17 -6 8 -17 19 -22 23 -18 14 -19 15 -23 20 -1 3 -3 4 -3
2z"/>
</g>
</svg>
