<?xml version="1.0" standalone="no"?>
<!DOCTYPE svg PUBLIC "-//W3C//DTD SVG 20010904//EN"
 "http://www.w3.org/TR/2001/REC-SVG-20010904/DTD/svg10.dtd">
<svg version="1.0" xmlns="http://www.w3.org/2000/svg"
 width="1113.000000pt" height="2870.000000pt" viewBox="0 0 1113.000000 2870.000000"
 preserveAspectRatio="xMidYMid meet">
<metadata>
Created by potrace 1.15, written by Peter Selinger 2001-2017
</metadata>
<g transform="translate(0.000000,2870.000000) scale(0.500000,-0.500000)"
fill="#000000" stroke="none">
<path d="M1136 3811 c-6 -5 -9 -7 -18 -19 -5 -7 -7 -10 -7 -19 0 -17 2 -20 16
-27 17 -8 19 -11 19 -23 0 -13 -6 -19 -19 -19 -9 0 -10 0 -20 11 -11 11 -17
14 -32 12 -4 0 -9 -1 -9 -1 -1 0 -2 -1 -2 -2 0 -3 -7 -10 -16 -16 l-7 -5 -130
-1 c-143 0 -145 0 -162 12 -4 3 -18 13 -31 21 -13 9 -32 22 -44 30 -12 7 -23
16 -25 18 -5 7 -9 9 -21 10 -16 2 -23 -2 -33 -15 -4 -6 -9 -12 -10 -13 -1 -1
-4 -5 -7 -9 -3 -4 -7 -10 -10 -13 -3 -4 -7 -9 -9 -12 -2 -3 -6 -8 -8 -11 -3
-3 -5 -6 -6 -8 -1 -2 -5 -5 -11 -8 -9 -5 -9 -5 -79 -6 -58 -1 -73 -2 -87 -5
-16 -4 -16 -4 -37 1 -19 4 -26 4 -118 4 -68 0 -100 -1 -105 -2 -16 -5 -23 -16
-24 -34 -1 -6 13 -52 17 -61 4 -7 18 -21 21 -21 1 0 5 -3 8 -7 4 -4 9 -8 11
-9 3 -1 3 -2 1 -2 -3 0 -7 -9 -9 -21 -2 -16 -14 -84 -21 -122 -9 -50 -12 -56
-29 -67 -16 -9 -43 -31 -47 -38 -5 -6 -5 -23 -2 -31 3 -5 20 -17 51 -36 8 -5
25 -16 37 -23 l21 -14 14 1 14 0 13 15 c7 8 15 14 17 14 13 1 19 0 30 -6 18
-8 34 -12 49 -11 15 2 24 0 28 -6 8 -11 -45 -142 -80 -198 -4 -6 -12 -20 -18
-29 -6 -10 -12 -20 -14 -22 -2 -1 -5 -6 -7 -9 -4 -7 -33 -45 -36 -48 -1 -1 -5
-6 -8 -10 -6 -8 -15 -19 -33 -39 -6 -7 -28 -30 -48 -50 -20 -20 -38 -40 -39
-43 -4 -9 -4 -23 1 -30 5 -10 22 -27 29 -30 8 -4 26 -4 32 -1 5 3 50 32 51 34
1 1 9 7 18 13 25 17 31 22 49 40 20 19 32 28 45 33 6 2 10 5 12 10 2 3 16 19
32 35 24 25 48 52 74 85 12 15 40 55 54 77 2 4 6 11 9 14 2 3 4 8 5 11 1 3 2
4 2 2 0 -2 1 -4 2 -4 5 0 8 -12 8 -36 0 -34 -4 -43 -25 -63 -18 -17 -19 -19
-19 -35 0 -11 1 -14 5 -20 3 -4 7 -9 8 -12 2 -3 18 -24 36 -47 18 -24 33 -45
35 -47 2 -2 9 -12 16 -21 6 -9 12 -18 12 -19 0 -1 7 -2 18 -2 l18 0 6 7 c10
11 14 15 29 27 10 9 14 14 21 27 5 9 12 22 17 28 10 14 37 52 53 76 7 9 13 17
14 18 1 2 6 9 11 17 6 8 11 16 12 18 2 1 3 3 3 4 0 1 1 3 3 4 2 3 12 18 62 93
6 10 12 18 13 19 1 1 2 3 4 5 1 3 4 6 6 7 4 2 5 2 4 -6 -2 -16 -18 -50 -49
-106 -11 -22 -46 -74 -64 -97 -5 -6 -10 -13 -11 -14 -4 -6 -26 -33 -31 -39 -6
-6 -30 -34 -40 -46 -8 -9 -14 -42 -9 -42 2 0 -1 -3 -5 -6 -10 -8 -27 -8 -41
-1 -9 4 -13 5 -28 5 -11 0 -18 -1 -18 -2 0 -4 -15 -2 -28 3 -7 2 -29 11 -49
18 -20 7 -39 14 -43 16 -7 2 -47 17 -81 30 -21 8 -26 8 -37 4 -7 -3 -9 -5 -14
-16 -3 -7 -6 -14 -6 -17 0 -5 -4 -11 -16 -24 -3 -4 -8 -11 -10 -17 -4 -10 -4
-17 -4 -243 0 -251 0 -241 10 -250 6 -5 27 -11 36 -10 9 1 16 -6 16 -17 0 -11
-7 -18 -16 -17 -9 1 -30 -5 -36 -10 -10 -9 -10 -8 -10 -140 0 -106 0 -122 3
-129 4 -9 14 -21 18 -21 2 0 3 -1 3 -2 0 -2 10 -3 41 -3 50 0 87 5 125 17 45
15 53 23 53 55 0 22 1 25 12 32 3 2 6 4 7 5 1 1 7 3 15 6 l14 5 182 1 182 1 6
-6 6 -6 -1 -32 c0 -25 1 -33 3 -40 4 -9 14 -21 18 -21 2 0 3 -1 3 -2 0 -2 8
-3 21 -3 54 1 76 2 102 6 2 0 8 1 13 2 50 8 110 36 125 60 14 19 13 1 13 318
0 164 1 289 2 291 3 8 8 13 21 19 7 3 12 7 13 8 0 0 1 1 3 1 1 0 10 8 20 18
20 19 23 24 20 41 -1 10 -8 18 -19 26 -5 3 -15 11 -22 16 -8 6 -16 12 -18 13
-6 4 -32 24 -47 35 -17 13 -19 28 -8 52 6 13 8 16 24 37 20 27 35 47 44 61 5
8 11 17 14 20 2 3 5 7 7 10 17 25 23 34 26 37 1 1 2 4 2 7 l0 4 2 -4 c1 -3 3
-5 4 -5 5 0 6 -19 5 -155 0 -77 0 -149 0 -159 1 -599 2 -761 5 -767 3 -7 14
-19 17 -19 2 0 3 -1 3 -2 0 -2 10 -3 41 -3 31 1 56 4 83 13 15 5 62 28 62 30
0 1 1 2 3 2 2 0 11 8 21 17 15 16 18 20 22 32 l6 14 0 179 c0 99 1 181 1 183
1 2 3 6 6 8 4 5 3 5 18 -8 18 -15 28 -68 32 -167 1 -35 8 -47 29 -54 7 -2 13
-3 24 -2 30 3 35 4 66 11 59 13 120 56 154 106 27 40 48 94 53 137 1 6 2 11 2
12 1 2 4 29 3 34 0 9 -9 27 -18 35 -11 11 -15 18 -15 30 0 12 3 17 14 29 14
15 18 25 18 43 -1 10 -8 51 -11 62 -1 3 -5 16 -8 29 -13 49 -38 106 -67 155
-12 21 -44 69 -49 73 -1 1 -6 8 -13 16 -14 18 -63 67 -80 81 -7 6 -13 11 -14
12 -1 1 -6 5 -12 9 -24 18 -29 28 -18 44 7 11 30 48 36 59 16 29 36 66 52 96
14 25 66 130 96 192 23 48 31 63 34 67 3 4 15 9 24 11 29 4 63 24 69 40 4 11
0 32 -10 42 -1 2 -7 10 -12 18 -6 8 -16 19 -22 25 -11 9 -33 29 -50 44 -3 2
-11 10 -19 17 -7 6 -16 15 -20 18 -4 3 -13 12 -21 19 -8 7 -16 14 -17 15 -60
54 -58 53 -74 53 -15 0 -16 -1 -67 -51 -25 -25 -47 -45 -52 -47 -19 -10 -53
-6 -94 10 -14 5 -35 13 -48 17 -13 4 -27 9 -31 11 -7 4 -67 27 -83 32 -3 1
-10 4 -17 6 -9 4 -14 5 -20 4 -11 -2 -35 -8 -39 -10 -3 -1 -4 -1 -4 0 0 1 -6
6 -13 11 -15 9 -40 25 -45 28 -17 9 -32 20 -36 24 -7 8 -13 10 -26 11 -8 0
-13 -1 -16 -3z m286 -154 l-5 -5 -4 4 -5 5 4 4 5 5 4 -4 5 -5 -4 -4z m-531
-85 c6 -5 6 -8 4 -19 -2 -7 -10 -15 -14 -13 -6 3 -86 26 -91 26 -4 0 -8 10 -4
12 1 1 24 1 51 0 l48 0 6 -6z m393 -103 l-1 -98 -5 -7 c-4 -3 -6 -5 -6 -4 0 1
-3 3 -6 5 -3 2 -13 9 -22 15 -9 6 -24 15 -32 20 -15 9 -20 12 -35 25 -9 7 -13
9 -28 9 -11 0 -12 0 -21 -9 -11 -12 -22 -25 -22 -27 0 -3 -7 -2 -8 1 -1 9 -1
25 2 47 6 39 6 44 10 83 2 20 2 36 2 37 -1 0 1 3 5 6 l6 6 75 0 75 1 6 -6 6
-6 -1 -98z m-928 100 c8 -9 6 -34 -3 -40 -5 -4 -2 -5 -91 24 -14 5 -29 9 -33
9 -5 0 -5 1 -1 1 3 1 4 2 3 5 -1 1 -1 2 0 2 1 -1 3 -1 6 1 3 2 14 3 59 3 l55
0 5 -5z m335 0 c3 -3 8 -5 9 -5 2 0 2 -1 0 -2 -5 -3 -7 -12 -9 -32 -2 -23 -13
-124 -14 -129 -1 -3 -3 -7 -6 -10 l-5 -6 -16 9 c-9 5 -20 10 -23 13 -8 5 -28
7 -37 2 -4 -2 -9 -6 -11 -9 -6 -10 -10 -11 -13 -4 -3 6 -3 9 5 61 3 19 6 51 8
70 3 33 4 36 9 42 l5 5 46 0 c45 0 45 0 52 -5z m911 -35 c3 -3 5 -6 5 -6 0 -1
-1 -11 -2 -23 -1 -23 -2 -29 -5 -72 -1 -14 -3 -31 -3 -38 -3 -41 -20 -199 -26
-242 0 -3 -2 -14 -3 -23 -2 -19 -5 -39 -7 -50 -1 -4 -2 -15 -3 -25 -1 -10 -2
-14 -2 -9 0 6 -1 8 -3 8 -2 0 -3 -1 -2 -2 1 -2 1 -2 -2 0 -3 2 -3 20 -3 240
l-1 237 6 6 6 6 20 -1 c18 0 19 -1 25 -6z m-1257 -121 c3 -7 3 -8 1 -31 -2
-21 -3 -23 -8 -28 -5 -5 -7 -6 -20 -6 -13 0 -15 1 -20 6 -3 3 -5 6 -5 6 1 2 7
30 8 38 0 6 12 16 19 16 3 0 8 1 12 3 4 1 7 3 8 3 1 0 3 -3 5 -7z m537 2 c2
-3 4 -6 3 -7 -1 -1 -3 -28 -4 -37 0 -4 -2 -8 -6 -11 l-6 -6 -7 6 c-3 3 -5 6
-4 7 1 0 3 10 4 21 2 18 3 22 8 27 6 6 7 6 12 0z m-345 -86 c8 -3 13 -12 13
-24 0 -13 -6 -19 -20 -19 -14 0 -20 6 -20 19 0 11 3 17 13 23 7 5 6 5 14 1z
m841 -22 l-5 -5 -4 4 -5 5 4 4 5 5 4 -4 5 -5 -4 -4z m-94 -125 c0 -38 0 -39
-5 -49 -3 -6 -6 -11 -7 -11 -2 0 -17 -8 -62 -34 -6 -3 -13 -7 -15 -8 -3 -2 -5
-4 -5 -5 0 -3 -8 7 -10 13 -1 2 -2 15 -2 29 0 26 -1 32 -8 40 -6 6 -27 11 -34
7 -7 -4 -24 -3 -31 1 -16 8 -16 40 0 48 7 4 24 5 31 1 5 -3 31 1 29 4 -1 1 1
2 3 2 5 0 20 7 20 10 0 0 17 1 38 0 20 0 39 1 42 2 4 1 6 1 11 -5 l5 -6 0 -39z
m-577 36 c19 -7 51 -28 52 -33 2 -8 -1 -14 -8 -19 -5 -3 -8 -6 -9 -6 0 -1 -2
-2 -3 -2 -1 0 -3 -1 -3 -1 -1 -1 -9 -7 -19 -14 -10 -7 -18 -12 -19 -13 -1 -1
-8 -6 -16 -11 -8 -6 -15 -11 -16 -11 0 -1 -2 -2 -3 -2 -2 0 -3 -1 -3 -2 0 0
-3 -3 -7 -5 -4 -2 -7 -5 -7 -6 0 -1 -2 1 -5 4 l-6 6 -1 55 -1 55 6 6 6 6 25
-1 c19 -1 28 -2 37 -6z m142 4 c3 -2 5 -4 4 -4 -1 0 -3 -6 -5 -12 -3 -15 -2
-11 -11 -41 -4 -13 -8 -24 -9 -25 -1 -1 -2 -3 -3 -5 -2 -7 -8 -5 -11 5 -4 12
-7 20 -12 26 -6 7 -6 18 -1 23 1 1 8 8 15 16 11 13 21 21 27 21 1 0 4 -2 6 -4z
m548 -110 c4 -6 4 -24 -1 -30 -7 -9 -27 -9 -34 0 -5 6 -5 24 0 30 7 9 27 9 35
0z m-413 -43 c9 6 11 -63 3 -84 -4 -9 -8 -15 -20 -26 -18 -17 -19 -19 -19 -36
l0 -12 18 -24 c23 -32 25 -42 10 -59 -4 -4 -10 -11 -15 -16 -4 -5 -13 -15 -20
-23 -7 -7 -15 -17 -18 -20 -4 -4 -8 -9 -9 -11 -2 -1 -7 -5 -12 -8 l-9 -5 -77
-1 c-86 0 -95 0 -102 7 l-5 4 7 5 c5 3 10 7 14 10 3 3 10 9 16 14 26 20 78 70
102 98 18 20 39 45 43 51 2 3 5 7 6 8 6 6 49 69 60 88 3 6 7 12 8 13 8 13 15
27 15 30 0 2 1 2 1 -1 1 -1 2 -3 3 -2z m580 -84 c2 -4 7 -12 10 -17 3 -5 7
-11 8 -13 1 -2 4 -7 6 -11 19 -31 55 -118 61 -147 0 -1 2 -6 3 -11 2 -5 3 -10
3 -11 3 -10 8 -36 12 -56 2 -10 3 -20 4 -22 4 -21 8 -89 8 -127 0 -39 -3 -53
-10 -68 -9 -19 -20 -22 -69 -23 -21 -1 -40 -1 -41 -2 -1 0 -4 3 -8 6 l-6 6 1
248 1 248 5 8 c2 4 4 9 4 11 0 1 1 0 2 -4 0 -4 3 -11 6 -15z m-128 -85 c5 -6
5 -12 0 -18 -7 -8 -22 -2 -22 9 0 11 15 17 22 9z m17 -158 c11 -10 3 -28 -11
-28 -9 0 -16 6 -16 16 0 14 17 22 27 12z m-618 -80 c2 -4 7 -12 10 -18 3 -5 8
-12 12 -15 6 -5 20 -10 22 -9 1 1 5 -2 8 -5 l6 -6 0 -72 0 -72 -6 -6 -6 -6
-180 0 -180 0 -6 6 -6 6 1 63 0 64 -5 11 c-5 11 -9 17 -12 17 -3 0 -7 6 -12
13 -3 6 -3 7 0 12 2 3 5 5 6 5 5 0 17 -8 20 -13 2 -3 8 -7 15 -11 11 -5 11 -5
55 -5 24 0 55 1 68 1 13 0 46 0 72 -1 62 -2 70 0 82 23 10 20 14 24 23 24 6 0
9 -1 13 -6z m957 -26 c5 -5 5 -15 0 -20 -9 -9 -24 -2 -24 10 0 8 6 14 14 14 3
0 8 -2 10 -4z m-675 -10 c11 -10 3 -28 -11 -28 -9 0 -16 6 -16 16 0 14 17 22
27 12z m-817 -138 c5 -6 5 -12 0 -18 -7 -8 -22 -2 -22 9 0 11 15 17 22 9z
m827 -12 c10 -9 3 -26 -10 -26 -8 0 -15 7 -15 15 0 13 16 20 25 11z m486 -71
c3 -3 3 -3 0 -6 -4 -5 -11 1 -7 6 4 4 4 4 7 0z m-726 -80 l6 -6 0 -78 0 -78
-6 -6 -6 -6 -88 1 c-48 0 -93 0 -98 -1 -12 -1 -24 -9 -35 -20 -9 -10 -16 -13
-27 -13 -11 0 -18 3 -27 13 -17 18 -29 22 -65 21 l-20 -1 -6 6 -6 6 0 78 0 78
6 6 6 6 180 0 180 0 6 -6z m135 -19 c11 -6 34 -10 47 -9 25 2 39 -15 33 -38
-6 -22 -28 -27 -52 -12 -11 7 -31 13 -44 14 -14 1 -18 3 -23 9 -4 6 -4 26 0
32 7 10 24 12 39 4z m-698 -145 c3 -3 4 -7 4 -14 0 -13 -6 -19 -19 -19 -13 0
-19 6 -19 19 0 7 1 11 4 14 7 8 23 8 30 0z m2 -110 c3 -3 4 -7 4 -14 0 -13 -6
-19 -19 -19 -13 0 -19 6 -19 19 0 7 1 11 4 14 7 8 23 8 30 0z"/>
</g>
</svg>
