<?xml version="1.0" standalone="no"?>
<!DOCTYPE svg PUBLIC "-//W3C//DTD SVG 20010904//EN"
 "http://www.w3.org/TR/2001/REC-SVG-20010904/DTD/svg10.dtd">
<svg version="1.0" xmlns="http://www.w3.org/2000/svg"
 width="1107.000000pt" height="2870.000000pt" viewBox="0 0 1107.000000 2870.000000"
 preserveAspectRatio="xMidYMid meet">
<metadata>
Created by potrace 1.15, written by Peter Selinger 2001-2017
</metadata>
<g transform="translate(0.000000,2870.000000) scale(0.500000,-0.500000)"
fill="#000000" stroke="none">
<path d="M1203 3857 c-11 -5 -18 -13 -21 -24 -2 -6 -2 -33 -2 -90 l1 -82 -6
-6 c-4 -3 -8 -6 -9 -6 -2 1 -18 1 -37 2 -34 0 -34 0 -58 8 -13 5 -27 9 -31 10
-16 3 -35 -6 -40 -18 -2 -5 -5 -26 -4 -31 0 -2 -2 -6 -5 -8 l-5 -5 -5 5 c-3 3
-4 7 -4 13 -1 17 -6 37 -13 49 -13 21 -21 32 -25 32 -2 0 -3 1 -3 2 0 2 -15 8
-27 12 -22 6 -60 -12 -72 -35 -3 -7 -17 -20 -17 -16 0 1 -2 3 -4 4 -5 3 -29
19 -30 21 -1 1 -3 3 -6 3 -3 1 -8 2 -11 2 -3 1 -9 2 -13 2 -5 0 -8 2 -12 7 -3
3 -6 5 -7 4 -4 -2 -2 -21 2 -26 4 -5 4 -7 3 -17 -3 -19 -9 -26 -20 -27 -17 -1
-23 3 -26 16 -4 16 -12 31 -25 43 -12 12 -13 13 -13 22 0 5 1 12 3 16 4 8 4
26 0 33 -4 9 -11 11 -40 10 -41 0 -45 -2 -65 -26 -19 -22 -26 -33 -29 -44 -4
-13 -3 -19 5 -36 9 -21 11 -26 11 -35 0 -18 -9 -27 -27 -28 -17 0 -25 6 -29
23 -2 11 -10 27 -15 31 -13 10 -5 10 -147 11 l-131 0 -11 -5 c-12 -5 -15 -10
-25 -29 -7 -16 -11 -18 -23 -18 -12 0 -16 2 -23 18 -10 19 -13 24 -26 30 -9 4
-11 4 -19 2 -11 -3 -19 -9 -21 -16 -3 -7 -6 -22 -4 -22 1 0 2 -2 4 -5 3 -8 20
-25 31 -32 5 -4 17 -13 25 -21 9 -8 17 -14 18 -14 1 0 2 -1 2 -2 0 -2 11 -6
20 -6 7 -1 21 5 26 10 10 10 18 12 40 11 17 -1 24 -1 36 2 25 7 36 2 36 -17 0
-14 -2 -16 -15 -24 -6 -3 -14 -9 -17 -11 -3 -3 -6 -5 -6 -5 -1 0 -2 -6 -2 -13
-1 -7 0 -13 1 -13 0 0 1 -1 1 -3 0 -1 3 -6 6 -9 18 -21 17 -39 -4 -58 -20 -18
-25 -29 -29 -70 -1 -6 -2 -15 -3 -21 -1 -5 -3 -21 -5 -34 -2 -13 -4 -26 -4
-29 0 -3 -2 -14 -4 -25 -2 -11 -7 -42 -12 -69 -11 -55 -11 -62 -5 -75 4 -9 18
-23 27 -28 8 -4 18 -15 28 -32 4 -7 9 -13 10 -13 1 0 1 -1 0 -2 -1 -2 8 -12
12 -12 4 0 8 -13 4 -17 -1 -2 -3 -3 -4 -3 -4 0 -19 7 -18 8 3 6 -29 14 -49 13
-22 -1 -40 -13 -47 -32 -2 -7 -12 -40 -12 -43 0 -1 -2 -6 -4 -12 -4 -14 -4
-20 -2 -41 2 -19 -1 -26 -13 -39 -8 -8 -22 -32 -22 -37 0 -3 -12 -34 -26 -70
-6 -14 -6 -18 -6 -34 0 -11 0 -20 1 -21 0 -1 0 -4 -2 -7 -7 -17 -9 -37 -4 -44
3 -5 16 -7 27 -5 11 3 22 12 47 42 2 3 12 15 23 27 10 12 19 23 21 25 4 5 11
18 11 21 0 1 5 6 11 12 10 9 31 37 47 60 4 5 8 9 9 9 12 -3 17 -29 18 -93 0
-24 1 -46 2 -48 5 -20 34 -47 68 -63 13 -7 14 -7 35 -5 14 0 24 0 26 -1 7 -4
30 -4 42 -1 12 3 12 3 16 -1 5 -6 5 -6 0 -11 -2 -3 -6 -4 -19 -4 -26 -1 -38
-9 -36 -25 3 -22 15 -35 41 -46 9 -4 19 -10 22 -13 6 -6 6 -7 5 -19 0 -7 -2
-21 -2 -32 -2 -20 -5 -26 -14 -26 -7 0 -9 2 -17 19 -8 15 -15 22 -26 25 -17 5
-41 -9 -50 -28 -2 -5 -8 -21 -14 -36 -6 -15 -13 -32 -15 -38 -3 -5 -5 -10 -5
-11 0 0 -13 -27 -28 -59 -3 -7 -10 -20 -15 -29 -4 -9 -10 -20 -13 -25 -3 -5
-7 -13 -11 -18 -10 -17 -6 -37 11 -48 4 -3 7 -5 8 -6 1 -1 4 -2 8 -4 8 -3 9
-9 5 -25 -4 -19 -11 -25 -28 -26 -9 -1 -14 1 -26 9 -14 9 -38 7 -45 -4 -1 -3
-8 -11 -13 -19 -13 -16 -15 -22 -15 -44 0 -18 -3 -25 -12 -25 -2 0 -8 -1 -14
-3 -15 -4 -14 -4 -19 -6 -5 -1 -57 -56 -60 -63 -4 -7 -4 -24 0 -32 5 -9 20
-22 28 -23 14 -3 25 0 45 12 37 23 99 66 121 84 1 1 10 9 20 17 30 24 44 37
81 74 32 32 40 41 66 71 28 32 52 64 52 68 0 2 1 5 2 7 1 1 3 7 5 11 4 8 17
22 23 24 2 1 4 2 4 3 0 0 3 6 7 11 9 16 18 29 22 37 2 4 9 16 15 26 6 10 14
24 16 29 3 6 10 19 16 30 20 37 13 55 -24 60 -6 1 -12 3 -15 6 -10 8 -11 32
-1 41 10 11 31 9 44 -3 8 -7 9 -7 22 -7 10 1 15 3 18 5 4 4 24 54 24 61 0 14
-6 24 -17 31 -16 9 -20 14 -18 24 4 24 3 40 -1 51 -3 6 -4 15 -5 21 0 10 5 23
9 23 2 0 20 17 20 19 0 1 1 4 1 6 3 11 3 21 1 22 -4 2 -2 16 3 21 6 6 17 5 23
-1 5 -5 6 -18 2 -21 -3 -2 -6 -7 -11 -17 -3 -8 -3 -29 1 -31 4 -3 23 -2 30 1
8 3 12 10 14 27 1 11 4 19 6 22 2 3 5 12 7 20 14 65 13 62 12 83 -1 15 0 23 2
28 3 11 2 28 -3 36 -2 4 -8 9 -13 11 -15 7 -19 12 -19 19 0 10 6 14 25 17 10
1 16 2 18 0 2 -2 10 -3 22 -5 3 0 10 -2 14 -3 4 -1 15 -2 24 -2 16 1 16 1 22
-5 6 -6 6 -7 5 -20 0 -16 2 -25 10 -42 8 -15 8 -15 21 -15 15 0 21 3 31 14 l9
10 14 0 c15 0 20 -4 26 -18 4 -10 4 -16 0 -17 -1 -1 -4 -5 -5 -10 -3 -13 -14
-35 -20 -39 -3 -3 -8 -4 -17 -4 -11 0 -13 1 -21 6 -4 4 -8 7 -8 8 0 1 -7 1
-15 0 -14 -1 -16 -2 -19 -6 -11 -14 -5 -41 11 -61 4 -4 9 -14 12 -21 3 -8 8
-17 11 -20 4 -6 23 -16 30 -16 4 0 10 -8 10 -13 0 -10 -6 -13 -25 -13 -10 0
-21 -1 -25 -2 -13 -4 -26 -20 -29 -38 -1 -8 2 -27 5 -31 1 -1 3 -9 6 -17 2 -8
6 -20 8 -26 3 -6 5 -13 5 -16 1 -4 2 -6 3 -6 2 0 3 -7 3 -22 -1 -15 -10 -45
-19 -65 -11 -21 -12 -27 -12 -67 0 -34 0 -37 5 -47 4 -8 7 -11 15 -16 13 -7
15 -7 37 3 18 8 20 8 35 8 19 -2 37 1 48 6 19 8 34 2 31 -12 -2 -8 -5 -11 -12
-13 -21 -5 -39 -14 -53 -25 -3 -3 -7 -6 -9 -6 -2 0 -5 -1 -7 -2 -1 -1 -9 -4
-16 -7 -14 -6 -22 -13 -32 -30 -4 -6 -13 -18 -20 -25 l-13 -13 1 -13 c0 -13 4
-20 12 -20 1 0 2 -1 2 -2 0 -2 8 -3 34 -3 29 1 55 5 87 14 27 8 37 9 37 4 0
-6 -14 -21 -37 -38 -17 -13 -35 -30 -37 -33 0 -2 -1 -3 -2 -4 -1 -1 -5 -8 -8
-17 -10 -22 -11 -23 -43 -24 l-26 0 -40 -20 c-37 -19 -39 -20 -43 -28 -4 -10
-6 -29 -3 -37 8 -19 -8 -34 -37 -34 -14 0 -22 4 -31 15 -9 11 -15 14 -29 17
-8 2 -11 1 -31 -6 -26 -10 -36 -13 -44 -17 l-7 -3 0 -16 c0 -16 1 -18 15 -27
3 -2 7 -7 10 -12 3 -4 7 -11 10 -14 5 -8 14 -14 24 -17 8 -1 16 0 51 7 23 5
46 10 50 11 5 1 11 3 13 3 11 2 40 10 44 11 2 1 6 3 9 4 3 1 13 6 22 12 9 5
18 10 20 10 4 0 22 6 31 10 19 9 25 10 48 10 25 -1 29 0 56 12 4 2 18 8 31 13
47 19 50 23 51 58 1 22 3 30 12 34 12 7 33 3 41 -6 9 -11 37 -15 49 -6 3 2 6
4 7 5 1 1 8 6 16 12 8 6 16 12 18 13 1 2 4 4 6 5 8 4 12 19 13 41 1 27 3 29
26 29 30 1 41 7 63 38 7 11 8 13 8 24 0 7 -1 12 -2 12 -1 0 -2 1 -2 3 0 2 -3
6 -6 9 -11 13 -13 20 -6 28 4 5 11 5 19 0 7 -4 10 -11 9 -21 0 -8 8 -17 46
-51 40 -36 100 -97 132 -135 20 -23 26 -29 39 -37 9 -5 21 -20 21 -25 0 -5 10
-27 19 -41 14 -22 16 -25 20 -33 7 -15 24 -30 41 -37 15 -7 16 -7 44 -7 27 0
30 0 43 6 27 11 60 38 70 57 2 4 5 10 7 13 20 34 23 88 7 133 -4 10 -23 46
-25 48 0 1 -3 4 -5 7 -10 15 -47 52 -62 62 -3 2 -6 4 -7 5 -1 1 -15 10 -27 17
-2 2 -11 7 -20 11 -9 5 -17 9 -18 10 -3 2 -18 6 -24 6 -10 0 -25 6 -28 11 -2
2 -3 9 -4 15 -1 10 -1 11 4 15 5 3 19 5 27 2 2 -1 7 -6 12 -12 17 -22 31 -27
54 -18 39 16 56 28 65 47 l6 11 1 85 c0 80 0 86 -4 100 -7 25 -7 31 -1 54 5
21 5 22 5 97 l0 76 5 8 c3 5 8 9 12 11 17 6 56 38 64 53 2 3 3 10 2 16 0 13
-6 24 -15 29 -3 1 -15 10 -27 19 -12 9 -26 20 -31 23 -5 4 -10 8 -11 9 -1 0
-7 5 -14 10 -7 5 -16 12 -21 16 -5 4 -11 7 -13 7 -3 0 -3 1 1 2 2 1 4 3 4 4 0
4 12 5 94 6 l87 1 16 8 c17 8 25 17 34 34 12 24 4 47 -22 67 -5 4 -28 23 -29
24 -1 1 -56 45 -64 51 -1 1 -3 3 -5 4 -1 1 -6 5 -10 8 -24 18 -31 30 -27 47 0
4 1 13 1 21 0 8 0 25 -1 39 0 14 0 27 0 30 0 11 -16 32 -26 35 -2 1 -5 4 -7 8
-4 7 -4 7 0 14 2 4 5 7 7 8 5 2 17 14 20 21 4 9 2 25 -5 39 -6 12 -6 12 -24
11 -7 0 -12 0 -13 2 -1 1 -3 -1 -7 -6 -2 -5 -6 -11 -9 -13 -9 -8 -38 -1 -57
16 -8 7 -8 7 -8 22 0 14 0 16 6 20 10 9 39 5 46 -8 4 -6 37 -7 37 -1 0 1 3 8
7 16 8 19 12 21 40 20 28 0 37 4 56 25 l13 15 0 13 c0 22 -6 29 -25 28 -9 0
-13 -2 -23 -8 -9 -6 -14 -7 -21 -7 -17 0 -23 7 -20 27 4 31 1 47 -11 54 -3 2
-15 11 -26 20 -83 62 -80 60 -94 60 -15 -1 -21 -4 -38 -23 -8 -9 -17 -18 -19
-21 -2 -2 -9 -10 -16 -18 -7 -7 -14 -15 -16 -18 -2 -2 -8 -11 -12 -20 -10 -21
-15 -24 -41 -30 -33 -6 -46 -5 -61 7 -2 2 -5 4 -6 3 -1 0 -4 6 -7 13 -6 12 -6
14 -6 40 0 26 0 27 6 37 3 5 6 9 6 8 1 -1 7 4 13 10 11 10 13 13 14 21 2 13
-4 34 -13 48 -7 10 -9 12 -21 17 -13 6 -13 6 -30 3 -9 -1 -20 -2 -24 -3 -9 -1
-23 3 -31 9 -8 7 -25 12 -43 13 -17 1 -20 1 -27 -3 -9 -4 -18 -14 -18 -20 0
-1 -1 -4 -3 -7 -2 -2 -3 -5 -3 -6 1 -3 -5 -11 -8 -11 -4 0 -9 8 -9 16 -3 32
-27 48 -54 35z m104 -150 c10 -10 5 -30 -7 -31 -16 -1 -24 5 -24 18 0 11 7 18
18 18 6 0 9 -1 13 -5z m42 -62 c3 -3 3 -3 0 -6 -4 -5 -11 1 -7 6 3 4 4 4 7 0z
m-518 -67 c3 -5 8 -11 10 -13 5 -3 31 -7 31 -5 2 4 18 6 26 4 7 -1 11 -4 17
-12 5 -6 12 -11 15 -13 6 -3 28 -4 28 -1 0 1 9 13 16 20 5 5 16 8 22 7 11 -3
13 -14 6 -26 -3 -4 -5 -7 -6 -7 0 0 -4 -3 -8 -7 -10 -9 -23 -14 -28 -11 -2 1
-5 2 -6 2 -2 0 -5 1 -8 3 -8 4 -28 3 -35 -1 -8 -6 -19 -8 -29 -6 -5 1 -9 3
-10 4 0 2 -26 -2 -31 -6 -13 -10 -10 -41 7 -57 3 -3 7 -9 9 -13 3 -7 3 -8 0
-14 -2 -4 -6 -10 -9 -13 -4 -3 -8 -10 -11 -15 -4 -9 -4 -12 -5 -79 -1 -38 -2
-71 -3 -73 -2 -4 -7 -6 -10 -3 -3 2 -11 10 -31 27 -8 7 -16 14 -17 15 -1 1 -7
2 -16 1 -16 -1 -22 -5 -29 -18 -7 -13 -19 -18 -35 -14 -10 2 -15 7 -17 18 -3
14 0 23 12 34 l11 9 1 16 c1 17 1 16 -21 34 -5 4 -16 13 -24 20 -19 17 -26 21
-39 21 -11 0 -20 -4 -27 -11 -2 -2 -12 -13 -21 -23 -10 -11 -22 -23 -27 -29
-13 -14 -17 -23 -19 -47 -3 -30 -8 -37 -29 -37 -18 0 -25 7 -28 25 -1 5 -2 11
-2 14 -1 3 -3 13 -6 23 -5 20 -4 26 7 31 9 4 24 16 24 19 0 2 1 3 2 3 2 0 9
21 11 32 0 3 3 13 5 23 4 16 18 87 21 106 2 11 9 18 21 20 5 0 18 5 30 11 28
15 31 15 60 0 l23 -11 37 -1 c22 0 41 1 45 2 11 3 25 12 32 22 10 13 15 15 32
13 11 -1 15 0 15 2 0 1 1 0 3 -2 1 -2 5 -8 8 -13z m372 -6 c5 -5 6 -7 6 -15 0
-11 -2 -14 -15 -32 -14 -18 -14 -20 -14 -96 l1 -68 -6 -6 -6 -6 -33 0 -33 0
-6 6 -6 6 0 77 0 77 6 6 c6 6 7 6 17 5 16 -1 30 6 38 17 3 4 6 9 6 10 0 1 2 4
4 7 2 3 4 6 3 6 -4 0 10 12 14 12 10 2 18 0 24 -6z m338 -51 l6 -6 0 -77 0
-77 -6 -6 -6 -6 -38 0 -38 0 -6 6 -6 6 0 77 0 77 6 6 6 6 38 0 38 0 6 -6z
m-1200 -29 c24 -27 25 -27 56 -31 16 -2 21 -7 21 -22 0 -13 -5 -19 -20 -26
-14 -7 -39 -9 -47 -4 -2 1 -8 10 -13 18 -4 8 -14 21 -20 28 -12 13 -13 16 -12
29 1 15 24 20 35 8z m910 -12 c7 -6 7 -19 1 -25 -11 -11 -31 -3 -31 12 0 15
19 23 30 13z m-321 -37 l-5 -5 -4 4 -5 5 4 4 5 5 4 -4 5 -5 -4 -4z m106 5 c5
-5 6 -7 6 -17 0 -16 -7 -23 -23 -23 -16 0 -23 7 -23 23 0 16 7 23 23 23 10 0
12 -1 17 -6z m604 -113 l-5 -5 -4 4 -5 5 4 4 5 5 4 -4 5 -5 -4 -4z m-1347 6
c5 -8 1 -16 -8 -16 -9 0 -13 8 -8 16 2 3 5 5 8 5 3 0 6 -2 8 -5z m752 -43 c16
-7 16 -43 -1 -50 -15 -6 -34 -2 -39 9 -4 8 -4 24 0 32 5 12 23 15 40 9z m667
-3 c21 -9 20 -45 -2 -54 -8 -4 -25 -2 -31 2 -12 9 -13 37 -3 46 9 8 24 10 36
6z m-1395 -19 c17 -16 -10 -52 -38 -52 -24 0 -27 32 -4 46 17 10 35 13 42 6z
m1275 -1 c3 -4 10 -13 15 -23 11 -17 21 -27 40 -36 11 -6 17 -14 17 -26 0 -12
-3 -16 -21 -28 -13 -9 -35 -30 -35 -34 0 -1 -4 -4 -9 -6 -10 -5 -12 -5 -75 -6
l-65 -1 -6 6 -6 6 1 27 c0 25 0 27 -5 36 -6 12 -6 13 -21 23 -15 11 -16 13
-16 24 0 13 6 19 19 19 9 0 13 -2 28 -15 14 -12 20 -14 49 -15 30 -1 39 1 48
11 6 6 14 24 14 30 0 12 19 17 28 8z m-428 -9 c3 -5 6 -14 8 -21 1 -7 3 -15 4
-19 2 -4 3 -28 4 -53 l1 -46 -6 -6 c-6 -6 -7 -6 -25 -5 -21 0 -32 -2 -41 -9
-7 -5 -17 -25 -20 -37 -2 -10 -18 -38 -21 -38 -1 0 0 -11 3 -21 1 -7 7 -14 13
-17 3 -1 48 -2 165 -2 182 0 170 -1 186 16 13 13 20 20 22 20 2 0 9 -7 22 -20
11 -13 20 -16 42 -16 17 0 19 0 24 -6 6 -5 6 -6 4 -16 -2 -15 -7 -20 -20 -20
-6 0 -45 0 -89 1 -86 2 -92 1 -96 -9 -2 -6 -4 -30 -2 -30 2 0 8 -14 8 -19 0
-13 -17 -20 -26 -10 -2 2 -4 5 -4 6 0 2 -5 13 -10 23 -7 13 -36 34 -50 34 -12
0 -20 -4 -26 -13 -3 -5 -6 -10 -6 -11 0 -1 -3 -5 -8 -10 -7 -8 -8 -8 -19 -8
-11 0 -12 0 -19 8 -5 5 -8 10 -8 11 0 1 -2 5 -4 7 -5 4 -7 5 -20 5 -16 -1 -15
0 -17 -7 0 -3 -2 -7 -3 -10 -1 -3 -1 -6 -1 -7 1 0 0 -5 -1 -11 -4 -15 -14 -22
-30 -21 -18 2 -29 1 -43 -3 -8 -2 -16 -5 -19 -5 -4 -1 -16 1 -33 5 -3 1 -8 2
-11 3 -3 0 -8 3 -12 7 l-6 5 6 5 c5 4 10 4 29 5 18 1 25 2 37 7 16 7 28 16 28
22 0 7 -4 24 -6 24 -1 0 -4 2 -6 4 -2 2 -12 6 -22 10 -10 4 -20 8 -22 9 -2 2
-4 3 -6 3 -1 0 -2 1 -1 2 1 1 0 2 -1 2 -3 0 -10 16 -8 17 1 1 2 2 1 3 -1 1 0
3 2 4 4 3 8 17 7 29 0 12 3 27 7 35 4 7 4 20 0 28 -4 11 -14 15 -40 16 -16 1
-24 2 -25 4 -2 2 -2 2 0 1 1 -1 2 0 2 2 0 2 -3 3 -8 4 -7 0 -7 0 3 1 15 0 34
4 58 12 28 10 42 18 49 30 6 9 22 44 20 44 -5 0 21 11 30 12 15 3 24 8 30 18
2 5 4 9 4 10 0 4 11 20 14 20 2 0 5 -4 8 -8z m-243 -36 c7 -3 12 -13 12 -25 0
-23 -14 -31 -43 -26 -8 2 -16 4 -16 5 -1 1 -6 1 -10 0 -11 -2 -16 3 -20 20 -3
14 5 22 22 22 4 0 14 1 22 4 15 4 22 4 33 0z m-418 -44 c7 -7 6 -18 -4 -36 -7
-13 -11 -26 -12 -44 -1 -10 -2 -23 -2 -27 -5 -45 -6 -78 -3 -91 4 -20 -6 -54
-18 -61 l-6 -3 -11 9 c-9 8 -11 9 -19 9 -6 0 -12 -1 -15 -2 -3 -2 -7 -3 -7 -2
-1 0 -2 -1 -2 -2 0 -3 -17 -20 -22 -23 -7 -2 -20 -3 -26 0 -16 6 -20 20 -14
41 2 8 6 25 10 37 3 13 7 26 10 30 12 22 54 119 57 132 2 6 11 12 28 18 8 2
20 8 27 12 15 8 23 9 29 3z m1234 -2 c4 -1 13 -9 20 -15 13 -13 42 -29 58 -32
11 -2 23 -8 28 -13 4 -5 15 -28 15 -31 0 -3 8 -12 15 -16 8 -5 21 -9 31 -10
14 -2 21 -13 12 -23 -4 -5 -12 -5 -20 -1 -8 4 -34 8 -43 6 -13 -3 -21 -2 -27
4 -3 3 -6 7 -6 8 0 9 -16 32 -26 39 -2 2 -6 4 -9 6 -2 2 -6 4 -9 5 -5 2 -23 9
-31 13 -12 6 -23 25 -27 45 -2 9 -2 11 1 14 5 5 8 5 18 1z m-373 -14 c1 0 5
-3 8 -6 5 -5 6 -7 6 -18 0 -11 -1 -13 -6 -18 -6 -6 -7 -6 -18 -6 -11 0 -12 0
-18 6 -5 5 -6 7 -6 17 0 14 3 20 12 24 5 2 8 2 22 1z m-647 -8 c5 -5 6 -7 5
-18 0 -22 -9 -32 -27 -32 -13 0 -20 4 -25 16 -11 27 0 43 30 41 9 -1 12 -2 17
-7z m126 -25 c5 -7 9 -9 14 -9 l6 0 -6 -2 c-3 -1 -10 -3 -14 -5 -6 -3 -15 -4
-36 -5 l-29 0 -3 5 c-3 7 -1 9 15 15 10 4 27 14 29 18 2 2 13 -6 24 -17z m418
-29 c5 -5 6 -7 6 -16 0 -15 -8 -23 -23 -23 -9 0 -11 1 -16 7 -9 8 -9 23 -1 32
9 9 24 9 34 0z m-637 -92 c1 0 5 -3 8 -6 5 -5 6 -7 6 -18 0 -11 -1 -13 -6 -18
-6 -6 -7 -6 -18 -6 -11 0 -12 0 -18 6 -5 5 -6 7 -6 17 0 14 3 20 12 24 5 2 8
2 22 1z m814 -109 c11 -4 15 -12 14 -27 0 -15 0 -22 1 -27 0 -2 1 -5 1 -6 0
-2 3 -6 7 -10 7 -7 15 -10 29 -9 7 1 10 0 15 -5 6 -6 6 -6 5 -24 0 -16 -1 -18
-6 -24 -3 -4 -6 -6 -7 -5 -1 1 -10 3 -19 5 -22 4 -16 3 -102 20 -78 15 -93 18
-103 17 -21 0 -33 -21 -26 -46 2 -9 3 -14 1 -20 -3 -15 -2 -29 3 -45 6 -18 6
-25 1 -31 -5 -7 -17 -10 -36 -9 -20 0 -24 -3 -24 -23 0 -8 1 -15 3 -17 7 -10
2 -20 -21 -37 -7 -5 -15 -22 -17 -34 -1 -8 -5 -34 -8 -54 -1 -4 -2 -15 -4 -26
-1 -10 -4 -19 -5 -20 -1 -1 -3 -5 -4 -10 -3 -13 -11 -39 -17 -55 -3 -7 -5 -15
-5 -18 0 -3 -1 -3 -1 -1 -1 2 -3 4 -4 5 -2 0 -5 6 -8 12 -9 20 -20 25 -49 22
-16 -1 -23 4 -37 28 -6 9 -12 20 -15 25 -10 15 -6 42 4 42 2 0 4 1 4 2 0 3 16
1 24 -3 4 -2 11 -9 17 -16 5 -7 11 -13 11 -13 1 0 2 -1 2 -2 0 -2 3 -3 12 -2
23 1 28 10 28 46 0 28 -4 41 -16 49 -8 5 -23 7 -26 3 -2 -1 -4 -2 -4 -2 -1 0
-7 -3 -12 -7 -6 -4 -14 -8 -19 -9 -4 -2 -9 -4 -10 -5 -2 -2 -10 -3 -26 -2 -23
0 -24 0 -27 5 -5 10 8 20 38 29 5 2 30 26 30 29 0 2 2 6 5 9 3 4 5 9 5 11 0
10 -6 26 -13 37 -8 13 -9 23 -3 30 10 10 30 4 30 -9 0 -3 1 -9 3 -14 1 -4 2
-8 2 -9 -1 0 -1 -1 1 -1 1 0 2 -1 2 -1 -1 -4 0 -10 1 -7 1 1 6 2 15 2 8 0 15
1 16 3 7 5 9 18 7 44 0 14 -1 35 -1 45 1 10 1 32 1 47 l0 28 6 6 6 6 26 -1
c21 0 29 1 41 4 8 2 17 5 19 5 2 1 13 1 25 1 12 0 27 1 35 2 14 2 15 2 33 -4
17 -6 21 -7 48 -8 15 0 32 0 35 1 8 1 21 13 21 18 0 1 1 4 1 6 2 8 2 14 -1 22
-4 14 1 29 12 34 6 2 22 1 30 -2z m301 -48 c5 -8 1 -16 -8 -16 -9 0 -13 8 -8
16 2 3 5 5 8 5 3 0 6 -2 8 -5z m-1280 -22 c12 -12 3 -31 -13 -31 -11 0 -18 7
-18 18 0 11 7 18 18 18 6 0 9 -1 13 -5z m542 -33 c10 -9 3 -26 -10 -26 -8 0
-15 7 -15 15 0 13 16 20 25 11z m-843 -10 c7 -7 1 -21 -8 -20 -6 1 -12 7 -12
12 0 9 13 15 20 8z m193 -72 c7 -6 7 -19 1 -25 -6 -7 -19 -7 -25 -1 -7 6 -7
19 -1 25 6 7 19 7 25 1z m1115 -8 c0 -3 18 -10 26 -10 l8 1 4 -11 c4 -10 5
-16 6 -62 1 -48 1 -51 6 -60 2 -5 6 -10 7 -12 2 -1 5 -5 7 -7 2 -5 12 -12 23
-18 5 -3 16 -5 33 -6 18 -2 25 -8 25 -27 0 -19 -8 -27 -27 -27 -14 0 -20 4
-26 16 -3 5 -5 9 -6 9 -1 0 -2 2 -2 5 0 2 -1 3 -1 2 -1 -1 -8 -2 -18 -1 l-16
0 -3 -10 c-1 -7 -2 -26 -2 -51 0 -53 3 -59 27 -58 9 0 11 -1 11 -3 0 -2 1 -2
2 1 3 7 8 10 18 10 15 0 21 -7 23 -25 1 -9 1 -13 -1 -14 -1 0 -3 -2 -5 -3 -4
-4 -21 -5 -29 -2 -4 2 -6 4 -6 7 0 3 -1 4 -1 3 -1 -2 -6 -3 -15 -3 l-14 0 1
-5 c1 -4 1 -8 1 -10 0 -2 1 -5 3 -7 1 -2 3 -3 3 -4 0 -1 0 -2 1 -4 0 -2 1 -6
2 -9 2 -7 2 -7 4 -11 2 -4 -4 -14 -9 -14 -1 0 -5 2 -8 5 -5 5 -7 9 -9 20 -1 4
-5 7 -8 6 -2 0 -3 0 -3 1 0 5 -21 12 -38 13 -30 2 -43 3 -54 3 -19 0 -20 3 -9
36 10 31 10 40 0 55 -3 5 -7 12 -10 16 -4 6 -6 10 -6 17 0 12 4 17 20 26 12 7
22 17 27 29 3 7 4 13 7 35 1 4 1 10 2 13 1 7 4 34 6 54 1 7 3 18 4 26 3 13 3
25 0 50 -2 10 3 17 13 17 3 0 6 -1 6 -2z m114 -27 c3 -2 7 -6 10 -9 3 -3 7 -7
10 -8 7 -2 28 -3 28 -1 0 4 18 11 26 11 12 0 18 -6 18 -19 0 -15 -3 -17 -41
-24 -31 -5 -31 -5 -39 -1 -18 9 -38 30 -38 38 0 14 14 20 26 13z m-655 -66
c12 -12 3 -31 -13 -31 -11 0 -18 7 -18 18 0 11 7 18 18 18 6 0 9 -1 13 -5z
m779 -116 c21 -9 20 -45 -2 -54 -10 -5 -28 -1 -34 6 -9 10 -9 32 0 42 7 8 24
11 36 6z m-770 -29 c11 -5 15 -10 19 -23 4 -12 2 -28 -3 -35 -7 -10 -28 -7
-37 7 -3 3 -8 9 -11 13 -26 30 -6 54 32 38z m265 -31 c5 -8 1 -16 -8 -16 -9 0
-13 8 -8 16 5 6 12 6 16 0z m70 -96 c3 -5 3 -6 0 -11 -1 -3 -6 -7 -9 -9 -37
-20 -39 -21 -49 -21 -14 -1 -22 7 -22 22 0 8 1 11 6 16 7 7 6 7 42 8 l28 0 4
-5z m-814 -18 c3 -2 6 -5 7 -7 3 -5 5 -24 3 -30 -3 -13 -36 -18 -47 -6 -9 8
-9 32 0 41 7 7 27 8 37 2z m623 -30 c8 -10 2 -28 -12 -34 -8 -3 -8 -3 -12 1
-3 3 -4 8 -4 15 0 12 3 16 15 20 9 3 8 4 13 -2z m430 -72 l-5 -5 -4 4 -5 5 4
4 5 5 4 -4 5 -5 -4 -4z m-1150 -10 c6 -7 6 -22 0 -28 -7 -7 -23 -7 -32 -1 -4
3 -4 5 -3 14 0 7 2 12 5 15 7 8 23 8 30 0z m801 -46 c3 -5 3 -5 0 -10 -2 -3
-5 -5 -7 -5 -2 0 -5 2 -7 5 -3 5 -3 5 0 10 2 3 5 5 7 5 2 0 5 -2 7 -5z m500
-64 c16 -6 30 -7 44 -4 19 5 37 -3 37 -16 0 -2 2 -8 4 -12 2 -4 4 -12 5 -16 1
-9 3 -11 9 -12 8 0 13 -4 17 -12 3 -6 3 -7 0 -12 -2 -3 -5 -5 -7 -5 -6 0 -21
12 -19 17 0 1 -1 4 -2 6 -3 4 -35 7 -35 3 0 -1 -1 -2 -2 -2 -3 0 -6 -2 -20
-16 -12 -12 -15 -13 -28 -12 -6 0 -14 7 -14 11 0 6 -13 33 -19 40 -8 8 -11 17
-11 27 0 12 4 18 14 20 8 2 11 1 27 -5z"/>
</g>
</svg>
