<?xml version="1.0" standalone="no"?>
<!DOCTYPE svg PUBLIC "-//W3C//DTD SVG 20010904//EN"
 "http://www.w3.org/TR/2001/REC-SVG-20010904/DTD/svg10.dtd">
<svg version="1.0" xmlns="http://www.w3.org/2000/svg"
 width="1100.000000pt" height="2870.000000pt" viewBox="0 0 1100.000000 2870.000000"
 preserveAspectRatio="xMidYMid meet">
<metadata>
Created by potrace 1.15, written by Peter Selinger 2001-2017
</metadata>
<g transform="translate(0.000000,2870.000000) scale(0.500000,-0.500000)"
fill="#000000" stroke="none">
<path d="M429 3833 c-8 -3 -16 -12 -20 -21 -2 -5 -3 -8 -2 -8 1 0 0 -2 -1 -4
-1 -2 -2 -11 -3 -19 -1 -18 -6 -26 -18 -28 -22 -4 -42 -14 -51 -28 -4 -6 -8
-12 -10 -14 -4 -4 -9 -12 -21 -29 -4 -6 -9 -13 -11 -15 -2 -2 -4 -4 -4 -5 0
-1 -1 -3 -2 -4 -9 -9 -59 -91 -80 -128 -32 -58 -81 -169 -91 -204 -1 -2 -5
-14 -9 -27 -9 -27 -25 -82 -29 -101 -1 -7 -4 -21 -7 -31 -10 -46 -21 -120 -25
-174 -5 -66 -5 -69 17 -91 13 -13 14 -15 14 -22 0 -7 -1 -10 -6 -14 -6 -6 -6
-7 -6 -24 1 -18 1 -18 7 -21 3 -2 8 -6 10 -8 3 -5 3 -5 0 -10 -2 -3 -7 -7 -12
-10 -19 -11 -26 -26 -24 -48 6 -65 16 -129 25 -172 3 -10 6 -24 7 -31 4 -19
20 -74 29 -101 4 -13 8 -25 9 -27 0 -2 3 -10 7 -20 31 -83 79 -180 126 -255
28 -45 30 -47 51 -57 12 -7 18 -12 20 -19 7 -35 10 -43 19 -53 2 -3 6 -8 9
-11 12 -16 30 -38 43 -51 8 -9 16 -15 29 -21 17 -9 19 -10 34 -10 14 0 17 1
24 5 10 7 37 32 36 34 0 0 0 2 1 4 4 3 4 22 0 29 -4 10 -35 25 -51 25 -14 0
-20 18 -15 40 5 23 2 40 -12 60 -2 3 -7 12 -11 20 -14 27 -15 28 -33 28 -12 0
-16 -1 -22 -5 -11 -7 -16 -8 -25 -8 -23 1 -31 15 -26 44 1 9 3 20 4 25 2 19 4
22 15 35 7 8 12 15 12 17 0 4 1 9 3 15 1 5 -5 19 -12 27 -6 8 -17 11 -40 10
-21 0 -23 0 -28 5 -5 4 -6 6 -6 17 -1 17 1 21 15 28 15 8 22 14 25 20 4 7 7
23 5 25 0 1 -1 2 -1 4 0 1 -4 16 -8 32 -20 86 -31 169 -38 289 -1 6 -1 53 -2
104 -1 94 -2 106 -5 106 -1 0 -2 1 -1 2 0 4 -13 12 -18 12 -7 0 -8 0 -12 2 -2
2 -3 1 -4 -1 -2 -5 -8 -4 -12 2 -3 5 -3 5 0 10 4 5 10 7 12 2 1 -2 2 -2 7 -1
4 1 7 2 8 2 0 -1 4 0 9 1 14 3 18 13 20 50 1 13 1 26 2 28 0 8 -3 20 -9 31 -4
6 -8 13 -9 16 -7 12 -4 19 14 38 12 13 16 22 20 50 4 25 11 61 19 94 4 15 7
28 7 30 0 2 4 14 8 27 8 28 9 36 10 48 0 9 3 18 9 21 3 2 7 9 11 23 2 7 19 50
27 68 23 51 62 126 88 167 16 24 43 65 44 66 6 4 10 21 9 31 -1 6 -2 11 -3 11
-1 0 -2 1 -2 3 0 4 -45 44 -54 48 -7 4 -22 3 -29 0z m-134 -395 c4 -5 5 -8 6
-18 1 -7 0 -8 -6 -12 -10 -6 -22 -6 -29 1 -6 6 -6 21 0 28 7 7 23 8 29 1z
m-104 -593 c3 -5 3 -5 0 -10 -2 -3 -5 -5 -7 -5 -2 0 -5 2 -7 5 -3 5 -3 5 0 10
2 3 5 5 7 5 2 0 5 -2 7 -5z m1 -190 c21 -9 20 -45 -2 -54 -10 -5 -28 -1 -34 6
-9 10 -9 32 0 42 7 8 24 11 36 6z m45 -191 c16 -7 16 -43 -1 -50 -15 -6 -34
-2 -39 9 -4 8 -4 24 0 32 5 12 23 15 40 9z"/>
<path d="M1542 3833 c-5 -2 -9 -5 -19 -14 -2 -2 -11 -10 -19 -17 -16 -15 -20
-20 -21 -34 -1 -9 4 -24 9 -28 3 -3 56 -85 67 -104 2 -5 8 -16 13 -24 20 -36
53 -107 68 -143 4 -11 8 -22 9 -24 1 -2 2 -5 2 -6 1 -1 6 -18 13 -38 17 -51
35 -117 44 -167 5 -26 12 -36 38 -49 27 -14 35 -27 37 -56 0 -15 1 -21 5 -34
1 -5 4 -7 12 -7 4 -1 18 -15 18 -20 0 -4 -5 -11 -10 -12 -7 -1 -23 13 -23 22
0 6 -3 8 -20 8 -13 0 -14 0 -20 -7 -14 -13 -14 -16 -10 -85 1 -21 6 -33 17
-44 19 -18 19 -28 3 -42 -7 -6 -14 -17 -16 -26 0 -3 -1 -32 -2 -65 -2 -91 -7
-160 -16 -234 -4 -33 -18 -104 -26 -139 -1 -2 -2 -7 -3 -12 -1 -5 -3 -10 -3
-12 -4 -16 -24 -83 -30 -98 -27 -74 -49 -122 -92 -203 -7 -13 -12 -26 -13 -27
0 -3 -3 -15 -6 -28 -2 -8 -8 -16 -17 -21 -5 -3 -5 -4 -5 -20 1 -13 1 -16 5
-19 17 -13 20 -25 9 -35 -4 -3 -7 -5 -8 -5 -4 -1 -5 -1 -7 -3 -2 -1 -4 -1 -5
0 -1 1 -4 0 -6 -1 -4 -2 -4 -7 0 -16 1 -4 4 -14 5 -18 0 -1 2 -4 5 -6 3 -2 7
-6 10 -8 9 -8 24 -10 37 -5 7 3 36 34 66 72 4 5 9 11 10 12 1 2 4 6 7 9 3 4 6
8 7 9 4 4 25 33 36 49 4 6 9 12 10 13 10 10 16 32 14 47 -2 16 -2 24 3 29 3 3
6 5 8 5 1 0 5 1 8 3 3 2 9 5 14 7 14 6 19 11 33 36 16 28 54 105 65 131 12 28
32 81 33 85 0 2 2 6 3 9 3 8 3 23 -1 30 -6 12 -21 15 -36 8 -3 -1 -9 -4 -13
-5 -4 -2 -10 -6 -15 -9 -16 -12 -19 -14 -30 -14 -14 0 -22 8 -22 23 0 8 1 11
6 16 3 3 7 6 9 6 9 0 44 15 53 22 2 1 7 2 12 2 8 0 11 -1 17 -7 4 -4 8 -7 8
-6 1 0 7 1 15 1 7 0 13 1 13 2 0 1 1 2 3 2 3 0 5 5 11 27 13 50 27 130 33 183
7 62 8 89 8 166 0 104 -6 171 -22 262 -7 35 -10 44 -19 54 -7 7 -8 7 -19 7 -9
0 -12 -1 -16 -5 -4 -4 -13 -19 -17 -27 -7 -16 -42 -15 -52 1 -6 11 6 40 17 40
2 0 9 2 14 4 28 10 46 26 53 46 6 14 5 20 -4 47 -4 13 -8 25 -9 27 -1 5 -23
61 -33 85 -24 58 -94 187 -109 202 -7 7 -20 13 -37 15 -23 4 -29 13 -22 34 3
10 2 31 -1 39 -2 3 -8 12 -14 19 -5 7 -12 16 -15 20 -3 3 -6 7 -7 9 -1 1 -3 4
-5 6 -3 5 -16 20 -30 36 -38 43 -40 45 -56 45 -5 0 -11 -1 -14 -3z m211 -370
c7 -5 15 -32 19 -62 2 -16 3 -23 4 -27 1 -2 7 -10 14 -17 13 -15 15 -22 8 -30
-12 -13 -29 1 -31 24 0 3 -2 7 -4 8 -2 1 -5 4 -8 6 -2 2 -9 6 -15 9 -14 9 -15
12 -17 34 -1 30 1 50 7 54 5 5 17 5 23 1z m134 -512 c3 -3 3 -3 0 -6 -4 -5
-11 1 -7 6 4 4 4 4 7 0z m-11 -133 c1 0 5 -3 8 -6 5 -5 6 -7 6 -18 0 -11 -1
-13 -6 -18 -6 -6 -7 -6 -18 -6 -11 0 -12 0 -18 6 -5 5 -6 7 -6 17 0 14 3 20
12 24 5 2 8 2 22 1z m-35 -132 c7 -6 7 -19 1 -25 -6 -7 -19 -7 -25 -1 -7 6 -7
19 -1 25 6 7 19 7 25 1z"/>
<path d="M1156 3484 c-30 -4 -60 -13 -91 -28 -36 -18 -53 -29 -85 -60 l-16
-14 1 -14 c0 -14 0 -14 8 -23 5 -5 12 -10 15 -11 4 -1 5 -2 4 -2 -2 0 -4 -1
-4 -2 0 -1 -3 -3 -6 -4 -3 -1 -6 -3 -6 -4 0 -3 -5 -2 -12 2 -7 3 -38 4 -55 1
-6 -1 -12 -1 -18 1 -5 1 -12 2 -16 2 -23 0 -24 0 -30 6 -5 5 -6 7 -6 16 0 15
8 22 23 23 33 1 47 17 42 48 -5 33 -23 52 -49 53 -13 1 -22 -3 -35 -15 -17
-16 -20 -17 -44 -17 -22 1 -20 1 -62 -14 -9 -3 -25 -9 -35 -12 -33 -12 -46
-18 -52 -25 -6 -8 -11 -25 -11 -38 0 -15 -7 -20 -24 -19 -4 0 -9 4 -16 11 -12
13 -19 17 -31 18 -4 1 -8 2 -9 2 -1 1 -22 -10 -28 -16 -5 -4 -15 -21 -13 -21
1 0 1 -1 -1 -2 -2 -4 -3 -38 0 -48 7 -22 19 -32 47 -38 17 -3 23 -9 24 -24 2
-10 7 -20 13 -24 7 -4 24 -11 29 -10 2 0 6 -2 8 -5 3 -5 3 -5 0 -10 -2 -3 -5
-5 -6 -4 -3 1 -25 -8 -29 -12 -10 -9 -12 -20 -12 -51 1 -26 1 -31 7 -46 3 -9
6 -18 7 -19 1 -1 3 -7 4 -12 2 -9 2 -12 -2 -24 -2 -8 -5 -15 -6 -16 -1 -1 -3
-7 -5 -13 -2 -10 -3 -40 -3 -232 l-1 -221 9 -25 c9 -27 9 -26 0 -51 -6 -15 -7
-18 -16 -23 -6 -4 -12 -6 -17 -6 -17 0 -36 -11 -43 -23 -4 -8 -2 -20 4 -28 3
-4 6 -7 8 -7 1 0 3 -1 5 -2 1 -1 5 -4 8 -6 3 -2 7 -6 9 -8 3 -7 -2 -15 -13
-20 -4 -2 -7 -4 -6 -4 1 0 2 -7 2 -17 l0 -18 10 -2 c5 0 51 -1 103 -1 l93 1
16 8 c21 10 30 10 52 0 l16 -8 72 0 72 0 10 5 c22 12 28 25 29 63 0 27 0 29
-5 39 -2 6 -6 13 -8 14 -7 6 -26 14 -35 14 -8 1 -11 2 -15 6 l-6 6 0 45 c-2
87 -3 92 -21 122 -9 14 -9 24 0 40 7 12 12 22 15 30 0 2 1 114 1 248 l0 245
-5 11 c-6 15 -12 17 -32 12 -1 0 -3 -1 -4 -2 -2 -1 -8 -2 -14 -2 -24 -2 -33
-6 -48 -20 -13 -12 -21 -14 -27 -7 -8 9 -3 21 17 40 7 6 15 15 19 19 11 14 25
22 38 22 6 0 13 -1 14 -2 5 -3 16 -4 25 -2 5 1 21 19 21 24 0 4 8 8 17 9 8 0
15 -1 29 -6 18 -6 20 -6 38 -5 43 4 65 -2 76 -18 9 -13 16 -17 32 -17 10 0 16
1 19 3 4 3 11 4 24 3 2 0 6 -3 9 -6 5 -5 6 -7 6 -18 0 -11 -1 -13 -6 -18 -3
-3 -7 -6 -8 -6 -26 -1 -30 -2 -39 -6 -18 -9 -17 -6 -17 -108 0 -77 1 -90 3
-99 4 -11 4 -10 14 -22 11 -14 13 -17 13 -28 0 -11 -2 -14 -14 -29 -16 -18
-15 -11 -17 -178 -1 -82 -2 -177 -3 -212 l-2 -62 -5 -6 c-5 -5 -8 -6 -14 -6
-9 0 -27 -8 -34 -14 -7 -6 -13 -24 -13 -35 0 -26 13 -37 45 -38 17 -1 23 -4
28 -14 7 -12 19 -27 24 -28 3 -1 5 -2 5 -3 0 -2 3 -3 128 -3 123 -1 123 -1
137 3 8 3 15 5 16 6 5 4 23 4 33 1 6 -1 17 -4 24 -5 13 -2 14 -2 26 4 22 11
26 21 26 60 0 30 -4 44 -13 52 -7 6 -26 14 -35 14 -6 1 -11 2 -14 6 l-6 5 -1
47 c-1 55 -1 52 -3 52 -1 0 -2 1 -2 3 0 2 -1 3 -2 2 -1 -1 -2 0 -3 1 -1 1 -7
2 -15 2 -9 0 -14 1 -15 3 0 1 -1 1 -1 -1 0 -6 -10 -11 -20 -11 -14 0 -21 8
-23 21 -1 9 -1 10 5 17 7 7 8 7 21 8 8 0 15 0 16 1 1 1 5 2 9 3 13 3 22 14 27
35 5 16 4 521 0 545 -2 13 -8 28 -16 37 -9 12 -10 17 -6 36 6 26 5 41 -4 69
-5 13 -11 30 -15 38 -3 7 -6 13 -6 14 0 3 -24 42 -32 53 -34 43 -78 72 -129
83 -16 4 -61 5 -83 3z m-99 -120 c5 -7 4 -25 -2 -31 -7 -7 -21 -7 -33 -1 -3 2
-8 3 -9 3 -2 -1 -3 0 -3 1 0 1 -1 2 -2 2 -2 -1 -3 0 -2 2 0 2 0 4 1 5 0 1 2 4
5 8 3 3 7 8 9 11 7 9 28 9 36 0z m240 -68 c5 -5 6 -7 6 -16 0 -15 -8 -23 -23
-23 -9 0 -11 1 -16 7 -9 8 -9 23 -1 32 9 9 24 9 34 0z m-548 -47 c3 -5 3 -5 0
-10 -2 -3 -5 -5 -7 -5 -2 0 -5 2 -7 5 -3 5 -3 5 0 10 2 3 5 5 7 5 2 0 5 -2 7
-5z m605 -57 c5 -6 5 -12 0 -18 -7 -8 -22 -2 -22 9 0 11 15 17 22 9z m-187
-77 c5 -8 1 -16 -8 -16 -9 0 -13 8 -8 16 2 3 5 5 8 5 3 0 6 -2 8 -5z m160 -18
c4 -4 5 -7 5 -15 0 -14 -6 -20 -20 -20 -14 0 -20 6 -20 20 0 14 6 20 20 20 8
0 11 -1 15 -5z m-478 -68 c3 -3 3 -3 0 -6 -4 -5 -11 1 -7 6 4 4 4 4 7 0z m334
-5 c5 -5 6 -7 6 -16 0 -15 -8 -23 -23 -23 -9 0 -11 1 -16 7 -9 8 -9 23 -1 32
9 9 24 9 34 0z m-542 -65 c5 -8 1 -16 -8 -16 -9 0 -13 8 -8 16 2 3 5 5 8 5 3
0 6 -2 8 -5z m114 -21 c11 -10 3 -28 -11 -28 -9 0 -16 6 -16 16 0 14 17 22 27
12z m-78 -69 c3 -5 3 -5 -1 -16 -2 -6 -5 -12 -6 -12 -2 -1 -6 -9 -7 -16 -4
-18 -11 -27 -21 -27 -21 0 -21 23 0 43 3 3 6 6 6 7 0 1 1 2 2 1 1 -1 4 6 5 12
0 3 12 13 15 13 2 0 5 -2 7 -5z m722 -69 c4 -6 4 -24 -1 -30 -7 -9 -27 -9 -34
0 -5 6 -5 24 0 30 7 9 27 9 35 0z m-568 2 c10 -10 3 -29 -12 -36 -12 -5 -18
-5 -22 0 -4 6 -4 10 1 23 6 16 23 22 33 13z m-175 -223 c10 -5 14 -25 8 -39
-7 -17 -43 -17 -50 0 -4 9 -4 23 1 31 6 12 26 16 41 8z m670 -3 c5 -6 5 -7 0
-12 -5 -5 -8 -5 -13 1 -3 5 -3 5 0 10 5 6 8 6 13 1z m-70 -14 c10 -5 13 -17 9
-43 -6 -40 -10 -48 -25 -51 -17 -4 -31 3 -34 17 -3 15 6 66 14 74 6 6 26 8 36
3z m-455 -188 c5 -5 6 -7 6 -16 0 -11 -4 -16 -14 -21 -9 -4 -22 -1 -28 7 -6 7
-5 23 2 30 9 9 24 9 34 0z m518 -5 c12 -12 3 -31 -13 -31 -11 0 -18 7 -18 18
0 11 7 18 18 18 6 0 9 -1 13 -5z"/>
</g>
</svg>
