<?xml version="1.0" standalone="no"?>
<!DOCTYPE svg PUBLIC "-//W3C//DTD SVG 20010904//EN"
 "http://www.w3.org/TR/2001/REC-SVG-20010904/DTD/svg10.dtd">
<svg version="1.0" xmlns="http://www.w3.org/2000/svg"
 width="1111.000000pt" height="2870.000000pt" viewBox="0 0 1111.000000 2870.000000"
 preserveAspectRatio="xMidYMid meet">
<metadata>
Created by potrace 1.15, written by Peter Selinger 2001-2017
</metadata>
<g transform="translate(0.000000,2870.000000) scale(0.500000,-0.500000)"
fill="#000000" stroke="none">
<path d="M1454 3731 c-16 -4 -32 -15 -33 -22 0 -1 -1 -3 -1 -4 -3 -4 -4 -17
-3 -22 2 -6 19 -12 36 -11 15 0 21 -5 21 -17 0 -7 -2 -11 -7 -18 -4 -6 -8 -10
-9 -11 -1 -1 -3 -5 -5 -9 -2 -8 -2 -14 0 -33 1 -10 -4 -28 -9 -32 -2 -2 -4 -4
-4 -6 0 -1 -1 -2 -2 -2 -1 0 -2 -1 -2 -2 0 -1 -6 -10 -13 -21 -18 -26 -18 -25
-20 -82 -1 -16 -1 -35 -2 -42 0 -7 -1 -26 -2 -43 -1 -38 -3 -62 -12 -156 -1
-13 -11 -90 -12 -100 -6 -35 -6 -47 0 -55 5 -7 24 -15 35 -15 4 0 12 -2 17 -4
12 -6 28 -7 37 -4 23 7 58 60 58 87 0 7 -1 16 -3 20 -4 11 -4 25 1 31 2 3 10
8 17 12 8 4 20 11 28 15 16 11 28 13 36 4 7 -6 7 -20 0 -30 -4 -5 -5 -8 -5
-20 0 -14 4 -21 12 -21 10 0 24 -10 30 -20 3 -7 9 -10 17 -8 3 1 11 2 17 3 6
0 13 1 16 3 2 1 4 2 4 1 0 -2 15 7 19 11 10 11 12 20 16 59 3 29 7 73 8 87 1
8 1 18 2 22 0 4 1 14 2 23 1 9 2 30 3 46 1 17 2 36 3 43 5 68 4 71 -17 92 -18
18 -30 27 -32 25 -1 0 -6 0 -11 2 -5 2 -12 3 -15 3 -9 0 -19 7 -25 18 -3 5 -7
10 -9 10 -2 0 -9 0 -16 0 -12 0 -13 -1 -19 -7 -9 -9 -11 -21 -6 -35 3 -12 8
-17 23 -27 11 -7 13 -11 15 -32 1 -9 1 -9 -9 -16 -11 -9 -13 -14 -11 -32 1
-11 3 -13 10 -12 19 2 28 10 32 27 2 9 11 13 30 12 15 0 20 -20 9 -43 -7 -16
-13 -34 -14 -41 0 -2 -5 -9 -12 -16 -13 -14 -17 -20 -22 -42 -6 -21 -11 -26
-29 -27 -27 -1 -39 26 -23 52 6 9 4 39 -2 39 -1 0 -2 1 -2 3 0 1 -1 4 -3 5 -2
1 -3 4 -3 6 0 2 -1 7 -3 10 -2 4 -4 8 -4 11 -1 2 -3 7 -6 12 -17 23 -18 27
-10 44 8 18 7 33 -3 42 -8 8 -33 21 -54 27 -19 6 -24 10 -24 21 0 13 6 17 23
17 14 0 24 3 26 9 3 8 1 26 -4 34 -7 12 -7 27 1 35 5 5 7 6 17 6 10 0 12 -1
17 -6 4 -3 6 -8 6 -11 0 -9 6 -29 9 -29 28 -2 29 -1 38 8 12 11 18 11 36 0 8
-5 14 -9 15 -10 2 -2 21 -12 24 -12 6 0 14 -8 15 -15 1 -4 3 -11 6 -16 l5 -8
15 1 c17 0 18 1 18 19 0 9 -1 11 -9 18 -13 14 -15 18 -13 30 2 20 12 25 37 19
23 -6 38 -3 48 10 8 10 18 45 16 53 -1 3 -2 8 -3 11 -3 13 -16 22 -33 23 -5 1
-12 1 -16 2 -43 5 -72 5 -87 2 -8 -2 -20 -3 -25 -3 -9 0 -26 5 -31 8 -7 5 -35
10 -67 11 -7 0 -14 1 -15 1 -2 2 -40 5 -70 7 -10 0 -19 0 -25 -2z m95 -50 c5
-8 1 -16 -8 -16 -9 0 -13 8 -8 16 2 3 5 5 8 5 3 0 6 -2 8 -5z m-41 -376 c3 -3
4 -7 4 -14 0 -13 -6 -19 -19 -19 -13 0 -19 6 -19 19 0 7 1 11 4 14 7 8 23 8
30 0z"/>
<path d="M388 3697 c-10 -3 -23 -15 -28 -25 -4 -8 -5 -24 -4 -52 0 -10 0 -11
-5 -15 -8 -7 -21 -7 -29 0 -5 5 -5 13 2 44 l4 21 -5 11 -6 12 -16 0 -16 -1 -3
-8 c-4 -10 -5 -47 -1 -52 2 -2 1 -2 -1 -1 -2 1 -3 1 0 -1 3 -4 3 -18 0 -22 -3
-2 -2 -2 0 -1 2 1 3 1 1 -1 -3 -3 -3 -200 -1 -308 0 -9 -1 -28 -1 -43 -2 -32
1 -43 14 -56 6 -5 11 -9 14 -9 3 0 6 -1 8 -1 4 0 18 4 30 10 14 7 26 7 32 1 4
-4 5 -8 6 -22 1 -9 3 -20 5 -25 11 -24 11 -24 7 -30 -2 -3 -5 -5 -7 -5 -4 0
-13 11 -13 17 -1 5 -8 16 -15 23 -9 8 -34 3 -54 -12 -18 -12 -24 -19 -24 -33
-1 -10 1 -13 15 -29 13 -15 14 -16 12 -37 -1 -13 0 -19 1 -19 1 0 2 -1 2 -1
-1 -5 0 -7 5 -10 5 -3 5 -3 11 1 3 3 10 8 16 11 10 6 10 7 13 22 1 2 2 4 3 5
1 1 1 2 1 2 0 1 1 4 3 6 6 8 22 2 22 -9 0 -2 -3 -10 -7 -19 -9 -17 -10 -28 -7
-41 3 -12 -1 -28 -9 -34 -9 -6 -24 -6 -36 0 -10 5 -29 5 -34 1 -2 -2 -3 -2 -3
-1 0 3 -8 -7 -9 -12 -1 -3 -2 -25 -2 -48 -1 -38 0 -44 3 -53 2 -6 5 -11 5 -12
3 -2 7 -8 11 -18 4 -8 4 -9 1 -17 -2 -5 -5 -10 -6 -11 -2 -1 -3 -4 -3 -5 0 -2
-1 -3 -2 -3 -1 -1 -4 -6 -6 -12 -3 -9 -4 -16 -4 -63 0 -67 0 -69 23 -87 9 -7
20 -9 38 -5 7 2 15 6 16 10 0 2 2 7 3 10 3 8 -1 24 -12 41 -7 13 -10 24 -9 32
3 11 6 17 11 19 24 11 31 20 29 40 -2 23 -2 27 4 33 9 9 26 8 48 -1 16 -7 21
-15 21 -29 0 -15 -6 -23 -20 -25 -12 -2 -26 -7 -29 -10 -12 -12 -8 -37 10 -64
9 -14 12 -25 9 -35 -2 -9 -9 -18 -13 -18 -4 0 -27 -12 -33 -17 -4 -3 -8 -9 -9
-12 -7 -12 -15 -19 -23 -19 -9 0 -21 6 -23 11 -1 2 -2 3 -3 2 0 -1 -7 -2 -13
-2 -8 0 -14 -2 -16 -3 -5 -4 -9 -16 -9 -26 0 -40 -12 -57 -59 -84 -20 -11 -26
-21 -32 -52 -1 -7 -4 -18 -6 -24 -5 -18 -4 -26 6 -44 18 -35 35 -46 56 -36 15
7 17 16 14 50 -2 17 -1 18 4 23 4 4 7 5 15 5 15 0 18 -4 23 -29 2 -7 9 -30 12
-36 4 -7 5 -22 1 -31 -3 -8 -11 -12 -25 -13 -6 -1 -16 -3 -22 -5 -13 -5 -17
-11 -17 -26 -1 -10 0 -11 13 -34 14 -24 38 -65 41 -73 2 -3 4 -6 4 -5 1 1 15
-6 18 -10 2 -2 3 -4 3 -5 -1 0 -1 -1 1 -1 1 0 2 -1 1 -2 -1 -2 4 -29 8 -37 6
-13 15 -19 30 -19 11 0 14 1 21 6 10 7 12 11 12 24 1 13 -2 19 -10 23 -6 3
-24 7 -32 7 -3 0 -7 1 -8 3 -2 1 -5 3 -7 4 -5 1 -5 6 2 24 9 23 31 24 64 3 21
-14 42 -12 60 5 11 9 27 23 57 47 15 13 18 16 19 22 2 14 -1 23 -10 35 -9 10
-10 12 -10 21 0 15 8 23 23 23 9 0 12 -2 25 -11 24 -16 41 -16 47 0 3 7 2 25
-1 34 -9 21 7 38 27 27 12 -6 22 -9 30 -9 15 1 18 6 18 31 0 20 1 21 22 20 22
-2 29 2 36 17 6 13 14 21 23 24 17 6 32 16 49 31 9 9 21 21 27 26 9 8 10 10
10 20 1 15 -1 20 -12 27 -11 7 -15 8 -47 15 -23 5 -31 7 -43 15 -18 10 -21 14
-22 32 0 6 -1 13 -2 15 0 2 -1 5 -1 7 0 2 -2 7 -5 11 -6 9 -6 9 -17 8 -14 0
-19 -3 -29 -17 -12 -15 -18 -18 -50 -18 -29 -1 -34 4 -44 37 -3 11 -3 12 1 26
2 8 5 15 6 16 5 6 8 28 8 46 -1 16 -2 19 -8 30 -4 7 -8 13 -10 15 -17 15 -17
37 0 52 2 2 6 8 10 15 l7 12 1 100 c0 122 1 120 -27 133 -12 5 -12 5 -25 2 -7
-1 -14 -4 -14 -5 -1 -1 -5 -3 -9 -4 -4 -1 -8 -2 -10 -4 -2 -2 -3 -2 -7 1 l-4
4 5 8 c2 4 5 8 7 8 5 0 21 20 29 35 2 4 5 6 25 14 24 10 30 21 30 56 0 32 -6
41 -27 43 -11 1 -12 1 -17 -4 -8 -8 -21 -12 -33 -11 -11 2 -28 -2 -41 -8 -22
-11 -38 -4 -38 15 0 18 15 25 35 17 11 -5 30 -4 39 1 9 6 20 36 21 60 1 18 -1
20 -25 32 -18 8 -21 13 -21 28 0 19 8 27 27 27 22 0 27 -7 27 -39 0 -22 0 -24
4 -24 1 0 5 -2 7 -4 3 -3 4 -3 15 -1 12 3 17 6 22 17 4 6 4 15 5 94 l1 87 5 7
c3 4 5 7 6 7 1 0 5 2 10 5 13 7 29 24 39 44 5 10 11 20 13 23 5 6 12 7 12 2 0
-8 3 -16 19 -50 10 -20 19 -40 21 -45 2 -5 5 -11 6 -13 2 -2 12 -25 22 -51 14
-33 22 -49 26 -53 8 -8 22 -13 40 -14 20 -1 26 -9 24 -30 0 -3 -5 -9 -10 -15
-16 -15 -18 -19 -18 -32 0 -14 4 -18 28 -30 9 -4 17 -10 18 -12 5 -9 1 -31 -6
-36 -4 -3 -12 -24 -12 -30 0 -6 10 -24 14 -24 1 0 3 -1 4 -3 2 -1 8 -5 14 -9
15 -8 18 -12 18 -26 0 -11 -5 -21 -16 -32 -4 -5 -10 -18 -10 -26 0 -9 8 -24
19 -33 10 -10 15 -13 27 -16 21 -6 28 1 27 28 0 27 6 34 27 34 12 0 16 -2 26
-11 18 -16 36 -26 48 -26 9 0 24 -4 36 -9 20 -10 34 -9 45 2 16 16 35 46 38
59 4 18 0 51 -8 65 -4 8 -5 9 -38 24 -15 7 -20 11 -43 37 -5 5 -15 13 -21 18
-14 9 -18 15 -18 29 0 19 8 26 29 28 l12 2 9 -10 c16 -19 27 -29 41 -38 12 -8
15 -9 26 -9 23 0 28 12 19 41 -10 32 -23 41 -57 42 -17 0 -20 4 -22 30 -3 39
-8 43 -56 43 -8 0 -14 8 -14 21 0 10 1 12 9 21 9 11 11 15 10 30 0 8 -1 11 -6
16 -8 7 -22 20 -31 26 -3 3 -9 7 -13 10 -3 3 -10 8 -16 12 -5 4 -10 7 -11 8
-1 1 -32 21 -45 29 -15 9 -20 12 -30 17 -16 9 -63 32 -64 32 -1 0 -7 3 -15 6
-7 3 -15 7 -17 8 -15 7 -31 12 -36 12 -6 0 -17 -5 -34 -15 -5 -2 -12 -5 -17
-6 -4 0 -11 -3 -14 -5 l-6 -4 -1 5 c-2 7 -16 18 -23 17 -3 0 -8 1 -12 3 -15 8
-58 9 -79 2 -18 -6 -25 -6 -41 -1 -16 5 -29 5 -37 0 -3 -2 -10 -5 -15 -7 -11
-4 -14 -3 -30 14 -16 15 -42 22 -62 16z m-76 -78 c3 0 -2 -1 -11 -1 -10 -1
-16 0 -16 1 0 2 12 2 27 0z m493 -14 c3 -2 11 -8 18 -14 6 -6 12 -11 13 -11 1
0 2 -1 2 -3 0 -1 1 -4 3 -5 4 -3 4 -14 0 -19 -3 -5 -17 -7 -34 -5 -25 3 -32 9
-34 29 -3 25 12 38 32 28z m-390 -56 c17 -17 24 -20 54 -19 36 1 42 0 47 -5 3
-3 4 -7 4 -14 0 -17 -7 -20 -51 -25 -20 -2 -27 0 -34 9 -12 16 -29 29 -30 24
-1 -1 -4 -2 -7 -1 -3 0 -7 -1 -9 -2 -8 -7 -13 -27 -9 -39 3 -8 20 -27 31 -33
19 -11 24 -23 15 -33 -8 -9 -21 -6 -35 8 -6 6 -25 15 -38 19 -19 5 -22 22 -10
45 4 7 8 18 10 24 2 6 4 11 5 12 1 1 2 2 1 3 -2 3 6 29 11 34 13 14 27 12 45
-7z m505 -49 c1 0 5 -3 8 -6 5 -5 6 -7 6 -18 0 -11 -1 -13 -6 -18 -6 -6 -7 -6
-18 -6 -11 0 -12 0 -18 6 -5 5 -6 7 -6 17 0 14 3 20 12 24 5 2 8 2 22 1z m88
-266 c1 0 5 -3 8 -6 5 -5 6 -7 6 -18 0 -11 -1 -13 -6 -18 -6 -6 -7 -6 -18 -6
-11 0 -12 0 -18 6 -5 5 -6 7 -6 17 0 14 3 20 12 24 5 2 8 2 22 1z m-517 -176
c1 -2 2 -6 2 -10 1 -3 2 -9 3 -13 1 -4 1 -12 1 -18 -1 -18 -11 -23 -27 -15
-10 5 -13 10 -19 23 -9 21 -2 34 19 38 12 2 17 1 21 -5z m-105 -151 l-5 -5 -4
4 -5 5 4 4 5 5 4 -4 5 -5 -4 -4z m151 -243 c10 -9 3 -26 -10 -26 -8 0 -15 7
-15 15 0 13 16 20 25 11z m31 -177 c4 -5 5 -7 5 -21 0 -16 0 -17 -6 -21 -5 -4
-5 -4 -12 0 -9 4 -11 9 -12 24 -1 12 -1 14 3 18 6 7 16 7 22 0z m-77 -21 c14
-11 19 -49 8 -63 -7 -9 -22 -16 -44 -18 -6 -1 -15 10 -13 15 0 1 0 5 0 8 1 23
13 52 24 58 7 5 20 5 25 0z m-62 -89 c7 -3 9 -12 7 -24 -4 -15 -9 -19 -21 -19
-13 0 -19 6 -19 19 0 12 4 16 18 21 6 2 11 4 11 4 1 0 2 -1 4 -1z m28 -110 c5
-8 1 -16 -8 -16 -9 0 -13 8 -8 16 2 3 5 5 8 5 3 0 6 -2 8 -5z"/>
<path d="M1652 3027 c-5 -1 -11 -5 -19 -13 -6 -7 -13 -12 -16 -12 -12 -1 -17
0 -28 8 -27 18 -42 15 -65 -14 -15 -19 -16 -20 -32 -20 -13 0 -14 0 -24 8 -13
11 -33 14 -45 8 -7 -3 -24 -6 -25 -4 -1 3 -15 -5 -18 -11 -1 -3 -2 -9 -3 -14
-2 -14 -6 -21 -16 -29 -27 -20 -34 -48 -20 -76 3 -8 7 -16 8 -18 1 -5 -6 -13
-18 -19 -13 -7 -21 -15 -28 -30 -5 -11 -5 -12 -3 -22 2 -11 10 -23 15 -23 2 0
3 -1 3 -2 0 -1 4 -3 8 -5 12 -5 16 -11 16 -24 0 -16 -7 -23 -22 -23 -6 0 -12
1 -15 2 -5 4 -25 3 -34 -1 -11 -4 -13 -12 -13 -44 1 -31 -1 -35 -15 -40 -20
-7 -33 -22 -33 -38 0 -12 16 -20 30 -14 15 5 25 13 29 21 10 22 45 21 45 -1 0
-10 -4 -15 -19 -29 -11 -11 -12 -12 -13 -23 -1 -10 -1 -11 9 -26 12 -18 14
-26 7 -33 -4 -4 -6 -4 -13 -3 -18 2 -38 16 -64 45 -5 6 -22 14 -31 14 -6 0
-18 -5 -20 -8 0 -1 -1 -2 -3 -2 -7 0 -28 -29 -30 -41 -1 -8 3 -29 7 -34 1 -1
2 -5 3 -9 1 -5 2 -8 3 -8 1 0 2 -2 4 -5 2 -5 2 -5 17 -4 10 1 19 3 23 5 9 5
14 5 18 -2 4 -7 0 -14 -17 -31 -21 -21 -26 -23 -36 -12 -7 7 -7 9 -8 21 0 3
-1 4 -7 4 -4 0 -11 3 -17 6 -18 10 -42 9 -55 -4 -27 -27 -41 -44 -48 -59 -9
-19 -13 -23 -30 -30 -21 -9 -39 -24 -46 -40 -3 -8 -5 -15 -5 -29 -1 -22 -2
-26 -14 -38 -18 -19 -21 -27 -24 -49 -2 -18 -7 -25 -17 -25 -6 0 -16 10 -19
18 -2 5 -11 15 -15 16 -2 0 -8 1 -14 1 -13 2 -21 -3 -23 -13 0 -3 -1 -7 -2 -8
-1 -2 -2 -11 -2 -22 0 -18 0 -19 -5 -22 -9 -7 -20 -8 -24 -4 -7 7 -13 10 -23
9 l-11 0 2 -7 c0 -5 4 -10 13 -19 7 -7 12 -14 13 -16 0 -7 1 -11 3 -12 0 -1 1
-7 1 -13 0 -16 -6 -23 -22 -25 -24 -3 -85 18 -89 30 -1 2 -5 3 -17 2 -18 0
-21 -2 -25 -16 -2 -5 -5 -11 -8 -13 -5 -4 -5 -4 -23 -2 -25 3 -38 0 -58 -14
-3 -2 -7 -4 -8 -4 -5 0 -8 -9 -10 -24 0 -9 0 -12 2 -11 1 1 2 0 2 -1 0 -1 5
-4 12 -6 14 -6 15 -6 21 -19 3 -6 8 -13 10 -14 3 -4 33 -7 33 -5 0 1 4 4 10 7
8 4 13 4 33 5 23 0 25 1 56 11 18 6 33 11 35 12 4 1 27 9 61 22 36 13 47 21
59 39 9 13 12 15 32 13 30 -3 34 -2 110 36 41 20 69 35 86 45 6 5 13 8 13 8 1
0 9 5 20 12 19 12 20 12 34 21 26 16 96 65 114 80 1 1 11 9 22 18 11 9 20 16
20 17 0 1 2 5 4 9 8 20 6 28 -10 30 -25 2 -33 9 -33 26 0 12 5 20 13 22 5 2
24 9 32 12 9 4 14 10 21 24 4 6 8 13 10 14 10 9 21 3 27 -13 5 -15 12 -20 28
-20 12 0 14 1 21 6 8 7 25 13 40 15 5 1 14 4 21 7 31 15 49 16 66 5 6 -4 17
-10 24 -13 25 -10 24 -18 -2 -31 -8 -4 -18 -9 -22 -12 -6 -4 -19 -10 -19 -8 0
1 -1 1 -2 -1 -2 -1 -6 -2 -9 -3 -10 -2 -16 -12 -16 -25 0 -10 1 -13 20 -45 11
-19 21 -36 23 -40 5 -9 29 -31 35 -31 3 0 9 -9 9 -14 0 -6 4 -17 8 -22 3 -3
10 -6 22 -7 8 -2 44 15 44 21 1 10 2 14 5 20 8 14 12 15 36 9 19 -4 22 -7 22
-26 0 -15 -3 -22 -11 -24 -2 0 -8 -3 -15 -6 -12 -7 -21 -14 -33 -30 -4 -6 -9
-10 -14 -11 -20 -5 -31 -15 -34 -30 -2 -7 -1 -11 7 -36 5 -15 10 -33 13 -41 5
-17 18 -39 27 -46 18 -14 52 -28 80 -34 18 -4 32 -1 46 10 10 7 12 12 18 35 4
16 7 24 12 29 1 2 3 9 3 17 0 15 1 13 -17 30 -5 5 -6 9 -5 20 1 19 34 19 39 1
1 -3 5 -13 9 -22 11 -22 11 -27 6 -45 -9 -27 -5 -34 16 -34 11 0 13 0 19 7 7
7 17 24 17 28 0 5 13 28 21 39 7 9 19 29 19 32 -1 2 2 19 3 23 1 2 2 16 2 30
1 23 0 31 -4 58 -4 26 -16 58 -33 91 -10 19 -13 23 -21 29 -10 6 -11 7 -15 7
-3 0 -16 15 -16 18 0 2 -4 6 -8 9 -6 4 -11 11 -18 25 -9 16 -28 42 -37 50 -2
2 -9 4 -14 6 -20 5 -30 13 -34 25 -1 4 -19 17 -22 17 -3 0 -50 24 -57 29 -5 4
-16 9 -23 12 -8 2 -26 10 -41 17 -15 7 -32 14 -37 15 -6 2 -14 5 -17 8 -9 6
-9 16 0 29 3 5 6 10 6 11 0 1 2 4 4 7 2 3 10 18 18 34 8 16 16 32 18 36 21 40
57 146 73 214 0 2 2 7 3 12 7 27 4 34 -17 34 -11 0 -15 -1 -20 -5 -15 -11 -25
-4 -27 17 0 12 0 14 5 19 5 6 6 6 23 8 31 1 39 7 51 32 8 15 3 34 -11 49 -7 7
-14 7 -30 3z m-126 -98 c15 -8 14 -41 -1 -48 -14 -8 -36 -3 -41 9 -6 14 -2 34
8 39 7 4 27 4 34 0z m-71 -122 c7 -7 7 -20 0 -33 -11 -22 -26 -30 -49 -26 -17
3 -24 10 -24 21 0 10 3 14 18 24 28 20 45 24 55 14z m69 -64 c5 -2 9 -4 10 -5
1 -1 9 -5 18 -10 20 -10 22 -12 22 -24 0 -14 -6 -20 -19 -20 -12 0 -17 3 -24
16 -6 10 -14 21 -19 26 -5 5 -7 13 -4 17 4 4 6 4 16 0z m-68 -60 c16 -7 20
-32 8 -49 -8 -11 -10 -40 -4 -47 1 -2 2 -7 2 -12 0 -13 -6 -19 -19 -19 -13 0
-19 6 -19 19 0 5 0 10 1 11 6 10 4 36 -5 48 -9 13 -9 33 0 43 7 8 24 11 36 6z
m-28 -239 c2 -5 2 -6 -1 -11 -5 -6 -10 -6 -15 -1 -5 6 -5 8 -1 14 4 6 13 5 17
-2z m323 -55 c5 -8 -1 -46 -10 -60 -7 -11 -33 -17 -41 -9 -7 7 -3 25 9 39 3 3
5 7 5 7 0 1 2 4 5 7 3 3 5 7 5 7 0 2 18 14 21 14 2 0 4 -2 6 -5z m107 -116 c4
-5 -3 -11 -7 -6 -3 2 -3 3 -1 6 4 4 5 4 8 0z m-725 -27 c4 -6 4 -24 -1 -30 -7
-9 -27 -9 -34 0 -5 6 -5 24 0 30 7 9 27 9 35 0z m521 -9 c5 -6 12 -19 13 -25
0 -5 -1 -6 -6 -9 -7 -3 -12 -4 -14 -1 0 1 -3 2 -6 3 -14 3 -20 20 -11 30 6 6
20 7 24 2z m-609 -8 c4 -4 5 -7 5 -15 0 -14 -6 -20 -20 -20 -14 0 -20 6 -20
20 0 14 6 20 20 20 8 0 11 -1 15 -5z m826 -78 c3 -3 3 -3 0 -6 -4 -5 -11 1 -7
6 4 4 4 4 7 0z m-881 -14 c3 -3 4 -7 4 -14 0 -13 -6 -19 -19 -19 -13 0 -19 6
-19 19 0 7 1 11 4 14 7 8 23 8 30 0z"/>
<path d="M1064 2840 c-61 -32 -64 -34 -72 -56 -9 -25 -11 -27 -22 -32 -18 -10
-24 -20 -25 -44 0 -7 -1 -15 -3 -18 -5 -11 -31 -16 -46 -10 -6 2 -12 11 -12
16 0 3 -6 17 -8 18 -1 1 -2 2 -2 4 -2 5 -14 10 -24 10 -7 0 -17 -4 -54 -23
-17 -8 -28 -24 -28 -39 0 -6 10 -26 14 -29 1 -1 5 -8 9 -16 7 -14 16 -23 23
-24 6 -1 23 -1 35 0 14 2 19 -1 27 -17 8 -16 14 -19 30 -17 l11 1 58 59 c49
49 73 74 123 127 24 25 41 45 44 51 5 8 6 22 4 31 -2 8 -15 23 -20 24 -25 3
-25 3 -62 -16z"/>
<path d="M507 1956 c0 -6 3 -7 7 -3 3 3 0 9 -4 9 -2 0 -3 -2 -3 -6z"/>
</g>
</svg>
