<?xml version="1.0" standalone="no"?>
<!DOCTYPE svg PUBLIC "-//W3C//DTD SVG 20010904//EN"
 "http://www.w3.org/TR/2001/REC-SVG-20010904/DTD/svg10.dtd">
<svg version="1.0" xmlns="http://www.w3.org/2000/svg"
 width="1114.000000pt" height="2870.000000pt" viewBox="0 0 1114.000000 2870.000000"
 preserveAspectRatio="xMidYMid meet">
<metadata>
Created by potrace 1.15, written by Peter Selinger 2001-2017
</metadata>
<g transform="translate(0.000000,2870.000000) scale(0.500000,-0.500000)"
fill="#000000" stroke="none">
<path d="M209 3842 c-10 -1 -12 -2 -17 -8 -10 -12 -10 -15 -10 -124 l1 -101
-6 -6 -6 -6 -51 1 c-54 0 -62 -1 -73 -9 -6 -5 -11 -15 -11 -27 -1 -6 13 -52
17 -61 6 -10 18 -20 28 -24 9 -3 17 -3 50 -3 l40 1 6 -6 6 -6 -1 -124 c0 -135
0 -131 11 -146 10 -13 40 -28 59 -30 13 -1 43 3 72 9 28 6 28 6 28 8 0 1 2 -1
6 -4 l5 -5 1 -36 c1 -19 0 -35 0 -35 -2 0 -10 -15 -10 -19 0 -1 -1 -3 -3 -4
-2 -1 -10 -24 -9 -28 3 -11 -5 -40 -12 -42 -2 -1 -4 -2 -5 -4 -1 -4 -17 -4
-25 1 -4 3 -8 8 -13 17 -6 14 -8 17 -18 29 -11 13 -13 17 -13 31 0 8 0 16 -1
18 0 2 -1 7 -2 10 -3 12 -19 17 -41 15 -21 -3 -27 0 -43 17 -13 13 -15 15 -25
17 -12 3 -23 1 -28 -5 -3 -4 -5 -26 -3 -31 1 -1 2 -3 2 -4 0 -2 13 -18 20 -25
8 -8 24 -15 37 -16 16 -1 25 -13 26 -32 0 -2 0 -5 0 -6 4 -22 -18 -27 -55 -14
-25 10 -36 9 -48 -4 -14 -16 -14 -45 -1 -56 3 -3 6 -5 7 -5 3 0 4 0 6 -2 2 -2
11 -3 20 -3 31 -1 36 -8 32 -46 0 -8 -2 -20 -2 -27 -1 -7 -3 -15 -4 -17 -4 -5
-27 -26 -39 -35 -37 -27 -38 -57 -3 -74 7 -3 15 -6 17 -6 20 0 27 -24 14 -51
-9 -16 -12 -29 -12 -43 0 -6 -1 -10 -3 -12 -10 -8 -13 -40 -5 -51 8 -10 4 -21
-11 -31 -22 -15 -30 -31 -25 -52 8 -32 44 -39 112 -23 2 1 6 1 9 2 21 5 54 18
80 34 16 10 18 11 27 20 8 6 22 13 32 15 6 1 8 0 14 -6 4 -4 6 -7 6 -8 0 -1 0
-3 1 -6 2 -11 25 -25 43 -26 1 0 4 -2 7 -5 10 -10 4 -34 -7 -35 -10 -1 -28 -8
-33 -13 -6 -5 -5 -24 0 -35 7 -14 8 -21 4 -25 -3 -2 -5 -4 -7 -5 -3 0 -20 5
-32 11 -8 4 -13 4 -55 5 -49 0 -57 -1 -66 -9 -6 -7 -12 -23 -11 -36 0 -12 -6
-19 -17 -19 -10 0 -14 2 -23 16 -10 14 -13 16 -34 24 -9 3 -20 8 -25 10 -19
11 -24 12 -35 13 -27 3 -43 -10 -44 -35 -1 -6 13 -52 17 -60 5 -11 16 -20 27
-24 9 -4 15 -4 81 -4 87 0 98 2 125 19 5 3 13 7 19 10 11 4 15 3 30 -12 5 -5
11 -9 13 -10 2 -1 4 -2 4 -3 0 -2 1 -2 3 0 2 1 3 2 3 1 0 -1 3 -5 7 -9 5 -5 6
-8 5 -10 -3 -4 -2 -35 0 -45 3 -7 10 -17 15 -17 3 -1 4 -1 7 -3 1 -1 10 -2 19
-2 18 -1 24 -4 32 -16 10 -15 23 -18 46 -11 15 5 19 4 22 -5 2 -6 -2 -12 -11
-14 -3 -1 -9 -3 -14 -5 -19 -9 -31 -12 -40 -10 -11 3 -38 16 -38 18 0 2 -2 1
-16 -2 -9 -2 -19 -11 -22 -19 -1 -3 -2 -43 -2 -113 0 -94 0 -109 3 -115 4 -9
14 -21 18 -21 2 0 3 -1 3 -2 0 -2 1 -2 27 -3 37 -2 88 5 120 17 17 6 44 20 53
26 5 3 11 8 14 10 11 7 26 25 30 36 5 10 5 14 6 66 0 61 0 62 -12 87 -7 14 -8
19 -10 36 -2 22 -4 29 -6 29 -1 0 -2 1 -2 3 0 3 -9 10 -16 12 -3 1 -5 1 -5 1
0 0 -3 1 -6 2 -3 1 -10 3 -15 3 -17 2 -23 9 -23 27 0 20 8 27 29 26 15 0 32 3
40 7 6 3 16 13 16 16 0 3 14 22 19 25 10 6 14 5 28 -9 7 -7 15 -13 17 -14 2
-1 4 -2 4 -3 0 -2 2 -2 77 -3 64 -1 73 -1 81 2 8 3 20 10 22 14 2 2 16 9 19 9
3 0 17 -7 19 -9 2 -3 13 -10 18 -12 10 -3 11 -4 20 -3 23 0 47 20 60 49 11 23
-2 44 -51 80 -29 22 -45 34 -60 44 -10 7 -19 13 -20 14 -1 1 -9 7 -18 13 -35
25 -47 35 -47 40 0 1 5 8 12 15 12 13 20 31 20 43 0 7 5 12 23 21 15 8 18 11
23 20 9 16 12 54 5 66 -1 4 -6 10 -11 15 -5 5 -12 13 -16 18 -28 35 -57 60
-75 66 -5 2 -13 2 -25 1 -38 -3 -42 -1 -42 17 0 8 1 13 6 20 8 14 11 24 11 49
0 21 0 21 6 26 4 4 7 5 18 5 18 0 23 -5 26 -24 1 -5 2 -10 3 -12 1 -2 2 -5 2
-8 0 -4 6 -12 10 -12 1 0 2 -1 2 -2 0 -1 22 -12 26 -12 3 0 16 -15 16 -18 0
-2 0 -2 2 0 1 2 13 2 17 -1 2 0 5 -8 9 -16 21 -50 25 -55 57 -64 15 -4 20 -9
23 -21 3 -10 2 -11 -15 -53 -5 -13 -9 -26 -10 -29 -1 -3 -2 -8 -3 -11 -1 -2
-3 -11 -4 -19 -2 -13 -2 -16 2 -26 3 -10 11 -21 14 -19 1 1 2 0 3 -1 2 -4 18
-2 31 4 22 10 42 27 61 51 16 19 43 82 43 99 0 5 1 6 2 4 2 -2 2 -2 2 1 0 2 1
6 1 8 1 4 2 11 5 61 1 20 3 27 6 35 5 11 5 11 9 7 5 -5 21 -16 26 -17 2 0 8
-2 13 -5 9 -4 22 -4 26 -1 0 1 1 5 0 11 -1 30 -1 36 7 41 11 8 25 4 44 -12 9
-7 28 -17 44 -24 23 -8 31 -18 32 -37 2 -27 3 -34 9 -50 7 -21 6 -29 -3 -38
-7 -6 -7 -7 -7 -22 0 -16 1 -21 6 -22 10 -2 21 -2 38 0 l19 3 18 -10 c13 -6
21 -9 29 -10 6 -1 15 -2 20 -3 9 -3 30 -1 37 2 8 5 13 11 29 36 8 15 17 29 18
32 2 3 5 6 5 8 1 2 9 14 17 28 20 34 22 40 23 67 0 12 1 24 3 27 1 2 10 9 19
15 9 6 18 12 18 14 1 2 2 3 3 2 3 -2 5 12 5 26 -1 9 -2 15 -5 21 -7 13 -6 16
3 21 21 12 32 17 35 17 5 0 13 -12 16 -23 3 -11 9 -20 15 -24 8 -4 27 -7 32
-5 14 5 27 -4 31 -21 4 -17 -1 -22 -20 -24 -12 -1 -32 -10 -33 -15 -1 -2 -2
-4 -3 -4 -3 0 -6 -18 -5 -28 1 -15 3 -64 4 -117 l0 -44 8 -15 c20 -43 90 -85
120 -72 14 6 19 16 20 42 1 14 2 16 7 21 11 9 27 6 38 -7 9 -11 15 -14 31 -14
l14 0 12 14 c21 24 24 30 34 66 3 10 7 23 9 27 8 18 10 25 11 39 2 19 -3 54
-10 77 -7 23 -34 76 -40 79 -10 4 -39 1 -39 -4 0 -2 -11 -7 -18 -9 -9 -1 -22
2 -26 7 -11 10 -9 32 4 45 4 4 9 10 10 12 2 6 3 21 0 27 -1 5 -16 18 -32 30
-4 3 -8 6 -9 7 -2 2 -4 4 -23 16 -10 7 -11 7 -23 6 -9 0 -15 -2 -19 -4 -10 -8
-18 -11 -28 -11 -13 0 -17 4 -31 30 -6 12 -12 23 -14 25 -4 4 -26 4 -35 -1
-12 -6 -20 -29 -20 -58 1 -19 -9 -29 -30 -30 -14 0 -21 5 -25 19 -5 16 -2 26
13 41 12 11 24 33 24 42 0 10 20 16 28 9 4 -3 22 -4 32 -2 4 1 9 4 12 6 3 3
10 8 16 10 6 3 14 7 18 9 16 7 20 13 45 77 18 44 20 53 14 66 l-3 7 -14 0
c-14 0 -14 0 -25 -10 -17 -14 -27 -15 -42 -1 -16 15 -36 21 -44 15 -8 -7 -18
-17 -19 -20 0 -2 -1 -5 -1 -7 -1 -2 -1 -5 -2 -8 -2 -4 -2 -6 -3 -17 0 -15 -20
-22 -31 -11 -5 5 -5 6 -4 17 1 11 7 26 12 32 4 4 8 18 12 38 6 29 10 34 29 35
13 0 21 -4 27 -14 9 -15 25 -27 38 -27 9 0 27 15 38 32 7 11 11 12 30 13 37 1
43 6 59 54 30 86 28 77 23 106 -3 18 -3 19 0 24 4 5 12 8 30 10 11 2 41 12 41
15 0 1 1 2 3 2 5 0 26 25 34 41 6 13 7 16 6 25 -3 21 -15 30 -50 37 -7 1 -56
13 -72 17 -9 3 -20 4 -25 4 -9 0 -29 -5 -33 -8 -1 -1 -10 -4 -20 -8 -19 -7
-25 -10 -33 -18 -17 -16 -32 -19 -45 -9 -5 3 -9 7 -9 8 -1 1 -9 2 -18 3 -13 0
-16 0 -19 -3 -2 -2 -5 -5 -8 -6 -14 -8 -29 -16 -34 -21 -14 -9 -26 -50 -22
-68 4 -15 7 -19 32 -37 7 -5 13 -19 14 -34 2 -18 -2 -22 -22 -24 -25 -2 -26
-4 -36 -34 -3 -9 -6 -14 -13 -20 -14 -12 -26 -25 -26 -27 0 -1 -2 -6 -4 -11
-4 -7 -4 -11 -3 -18 1 -9 8 -25 11 -27 9 -7 15 -26 12 -39 -3 -9 -11 -19 -17
-19 -2 0 -9 -3 -17 -6 -34 -16 -44 -48 -21 -69 23 -21 23 -20 23 -29 0 -13 -6
-18 -24 -18 -15 0 -32 -3 -32 -6 0 -1 -1 -2 -2 -2 -6 0 -12 -13 -26 -50 -8
-21 -20 -53 -27 -71 -7 -17 -13 -34 -13 -36 0 -10 7 -25 15 -35 11 -12 14 -22
11 -34 -2 -11 -7 -16 -18 -18 -10 -2 -23 0 -28 6 -9 8 -9 27 -1 45 2 4 3 8 3
9 0 2 1 8 3 13 2 5 3 11 2 13 -1 1 -2 3 -2 4 -5 13 -11 18 -25 19 -6 1 -11 2
-12 2 0 0 -2 0 -3 -2 -5 -5 -22 -4 -28 2 -7 7 -7 23 0 30 6 6 23 7 28 2 1 -2
3 -2 3 -2 1 0 6 1 11 2 12 1 17 3 23 11 4 5 4 8 4 122 l0 117 5 7 c3 5 5 9 5
10 0 1 1 2 2 1 4 -3 27 17 36 31 8 12 14 17 33 23 17 6 34 14 39 18 1 2 3 3 4
3 3 0 10 14 12 24 1 8 1 15 0 22 -2 12 0 24 6 31 3 4 23 13 36 17 5 1 9 3 10
5 2 16 2 21 -1 34 -4 16 -4 29 -1 39 6 21 3 38 -14 72 -19 38 -46 71 -83 100
-16 12 -22 16 -59 37 -34 20 -118 49 -134 46 -17 -3 -22 -7 -32 -27 -4 -9 -10
-18 -18 -25 -17 -17 -25 -34 -25 -54 0 -17 1 -17 25 -53 9 -13 19 -29 23 -37
4 -8 10 -18 13 -23 13 -22 34 -69 45 -100 4 -10 8 -21 9 -23 5 -11 8 -25 7
-29 -2 -8 -9 -8 -97 1 -47 5 -87 8 -88 8 -2 -1 -6 -2 -8 -2 -13 -2 -26 -23
-27 -40 0 -6 -1 -20 -2 -33 -2 -36 3 -45 25 -44 12 1 12 1 13 -5 0 -5 0 -4 1
2 0 16 21 25 40 18 11 -5 17 -19 14 -36 -2 -15 -6 -19 -22 -20 -20 -1 -32 6
-32 20 -1 6 -1 7 -1 2 -1 -6 -1 -6 -13 -5 -25 1 -26 -2 -26 -83 1 -55 1 -63 5
-72 5 -13 5 -35 0 -48 -5 -13 -7 -76 -3 -91 3 -9 17 -26 23 -26 4 0 17 -14 17
-18 0 -6 -7 -15 -17 -21 -13 -8 -18 -14 -26 -37 -3 -8 -6 -15 -7 -16 -1 -1 -2
-3 -3 -5 0 -4 -1 -4 -1 0 0 6 -9 13 -24 20 -15 6 -20 11 -20 20 0 7 4 12 17
21 23 15 26 27 14 70 -1 5 -2 10 -1 11 0 1 -2 6 -5 11 -9 16 -20 19 -52 18 -5
0 -10 1 -12 2 -3 2 -14 2 -28 -1 -2 -1 -7 -2 -12 -2 -4 -1 -8 -2 -8 -3 -1 -1
-3 -2 -4 -2 -3 0 -93 66 -106 77 -1 1 -16 12 -32 25 -29 21 -30 22 -40 22 -13
0 -24 -3 -30 -9 -3 -2 -11 -7 -17 -10 -24 -12 -32 -18 -50 -37 -22 -23 -31
-27 -44 -21 -4 2 -8 6 -10 7 -9 9 -18 11 -45 12 -14 0 -21 24 -10 35 8 8 31 6
31 -3 0 -2 1 -2 1 0 1 1 6 2 14 2 10 0 13 1 14 3 1 2 2 3 3 2 2 -1 8 14 8 22
0 9 9 20 16 20 10 0 32 7 38 12 4 3 6 5 5 5 -1 0 -1 1 0 2 3 4 1 31 -2 35 -2
4 -2 5 2 9 l4 4 4 -4 c4 -4 4 -5 3 -8 -3 -5 -1 -17 5 -23 2 -2 4 -5 4 -6 -1 0
0 -1 0 0 1 0 3 0 6 -1 8 -5 25 -2 43 6 34 17 52 36 50 56 -2 14 -7 20 -29 31
-20 10 -24 14 -24 30 0 16 4 20 24 30 31 15 33 20 33 80 1 44 1 44 6 50 8 11
23 8 38 -6 12 -13 18 -14 57 -14 51 0 64 5 81 30 21 31 18 50 -16 86 l-11 12
-14 0 c-14 0 -13 1 -30 -19 -5 -6 -12 -7 -18 -1 -3 3 -3 5 -1 15 6 32 -2 59
-20 69 -10 5 -48 4 -57 -1 -2 -1 -6 0 -12 3 -4 2 -11 3 -15 3 -4 0 -11 0 -17
-1 -13 0 -15 -3 -22 -23 -8 -23 -15 -29 -23 -19 -4 4 -5 18 -3 45 2 17 5 23
21 33 5 3 14 10 20 16 13 13 20 15 38 14 14 -2 30 2 37 7 4 4 5 6 5 15 0 13
-4 20 -25 41 -17 17 -28 23 -48 25 -48 4 -50 4 -60 2 -10 -3 -23 -14 -23 -20
0 -2 -1 -3 -2 -3 0 0 -3 -5 -5 -10 -5 -14 -11 -18 -24 -18 -14 0 -22 6 -24 20
-1 5 -2 10 -3 11 0 1 -1 3 -1 4 -1 5 -5 13 -7 13 -1 0 -2 1 -2 3 0 5 -20 13
-37 14 -25 2 -42 -7 -49 -27 -4 -11 -3 -51 2 -70 6 -22 6 -29 0 -52 -4 -16 -4
-24 -4 -51 l1 -32 -6 -6 -6 -6 -49 1 c-56 0 -60 0 -75 -15 -5 -5 -9 -10 -9
-11 0 -1 -10 -7 -17 -9 -2 -1 -12 -1 -22 -1 -21 0 -38 -5 -47 -14 -7 -7 -12
-21 -30 -82 -8 -23 -16 -32 -33 -32 -7 0 -10 1 -14 5 l-5 5 0 32 c1 26 0 34
-3 51 -6 24 -5 27 13 38 8 5 15 12 21 20 5 7 11 14 13 15 7 4 25 2 37 -3 30
-14 34 -14 45 -10 10 4 19 13 24 25 5 10 12 18 15 18 1 0 4 1 7 3 3 1 8 3 10
4 8 2 19 13 22 22 1 5 2 16 2 26 0 21 5 34 17 40 15 8 36 42 38 61 5 32 -30
50 -73 37 -22 -7 -27 -6 -47 3 -9 4 -18 8 -20 8 -1 0 -3 1 -4 1 -1 1 -4 2 -9
2 -23 2 -27 1 -37 -3 -12 -5 -13 -7 -25 -24 -9 -13 -9 -13 -19 -14 -15 0 -18
2 -26 19 -4 8 -10 18 -13 22 -7 6 -7 6 -19 5z m128 -82 c8 -9 8 -24 -1 -32
-13 -14 -37 -6 -38 12 -1 17 3 24 17 26 11 2 16 0 22 -6z m1009 -79 c6 -6 6
-23 1 -30 -4 -5 -5 -5 -16 -4 -14 2 -19 7 -19 20 0 7 1 11 4 14 7 8 23 8 30 0z
m58 -54 c14 -5 20 -20 16 -36 -5 -17 -24 -25 -42 -18 -19 8 -21 48 -3 55 5 2
22 2 29 -1z m-692 -38 c10 -13 2 -31 -14 -31 -16 0 -25 19 -13 31 7 7 21 7 27
0z m-159 -47 c4 -5 5 -24 1 -27 -3 -2 -5 -23 -4 -40 0 -4 1 -36 2 -70 l1 -62
-6 -6 -6 -6 -56 1 c-78 2 -91 6 -91 31 0 13 3 18 19 25 18 10 22 13 28 25 7
16 7 32 -2 58 -13 36 -9 51 14 54 12 2 48 9 52 11 7 3 32 10 38 10 4 0 8 -2
10 -4z m1244 -84 c6 -6 7 -17 1 -25 -5 -6 -18 -7 -26 -1 -6 5 -6 18 0 25 6 7
19 7 25 1z m-1080 -5 c6 -4 9 -11 9 -22 0 -20 -6 -25 -31 -25 -45 0 -60 6 -60
26 0 20 14 26 58 25 14 0 20 -1 24 -4z m1007 -27 c5 -5 5 -9 1 -15 -7 -8 -21
-3 -21 7 0 10 13 15 20 8z m-1072 -87 l-5 -5 -4 4 -5 5 4 4 5 5 4 -4 5 -5 -4
-4z m655 -1 c10 -5 17 -22 13 -37 -2 -8 -5 -11 -14 -18 -17 -14 -25 -31 -26
-54 0 -3 -2 -8 -6 -11 -7 -8 -22 -8 -41 -2 -16 6 -21 11 -23 24 -1 8 0 9 4 14
3 2 7 4 9 4 2 0 7 2 11 4 14 7 24 24 25 43 1 14 8 26 17 31 8 4 23 5 31 2z
m-1018 -45 c6 -4 6 -6 6 -20 0 -14 0 -16 -6 -20 -4 -4 -7 -5 -18 -5 -11 0 -14
1 -18 5 -6 4 -6 6 -6 20 0 14 0 16 6 20 4 4 7 5 18 5 11 0 14 -1 18 -5z m199
-23 c5 -5 5 -11 -1 -17 -7 -6 -11 -6 -15 0 -9 14 5 28 16 17z m-32 -50 c5 0 8
-18 8 -37 -1 -30 -1 -31 -6 -36 l-5 -5 -8 8 c-31 30 -34 65 -6 69 4 1 8 2 9 2
0 1 2 1 4 0 1 -1 3 -1 4 -1z m873 -65 c5 -8 1 -16 -8 -16 -9 0 -13 8 -8 16 2
3 5 5 8 5 3 0 6 -2 8 -5z m-838 -37 c13 -6 16 -16 9 -24 -11 -13 -30 6 -20 21
5 6 4 6 11 3z m41 -98 c8 0 14 -9 14 -20 0 -15 -3 -18 -25 -27 -11 -4 -21 -8
-22 -9 -1 -1 -8 -5 -14 -8 -26 -13 -45 -6 -45 17 0 15 4 19 37 33 26 12 40 16
47 15 2 0 5 -1 8 -1z m-302 -20 c4 -6 4 -6 1 -11 -5 -6 -8 -6 -15 1 l-6 5 4 6
c6 7 10 6 16 -1z m1011 -30 c5 -5 6 -7 6 -16 0 -15 -8 -23 -23 -23 -9 0 -11 1
-16 7 -9 8 -9 23 -1 32 9 9 24 9 34 0z m-858 -9 l6 -6 -1 -53 c0 -58 1 -63 11
-80 6 -8 6 -8 16 -8 12 0 21 4 28 11 8 8 14 11 23 11 12 0 15 -2 23 -17 7 -11
19 -24 28 -31 18 -12 13 -38 -6 -38 -10 0 -15 4 -23 16 -10 15 -26 28 -34 28
-9 0 -27 -9 -34 -18 -28 -32 -33 -41 -32 -67 1 -16 1 -16 -5 -22 -6 -5 -8 -6
-19 -6 -11 0 -13 1 -19 6 l-6 6 1 33 c0 48 -2 54 -26 61 -6 2 -12 5 -12 6 -2
1 -2 1 -2 0 0 -5 -8 -3 -11 2 -3 5 -3 6 -1 11 3 5 12 8 12 4 0 -2 1 -2 2 -1 0
1 6 4 12 6 25 7 26 10 26 84 l-1 56 6 6 c5 5 7 6 19 6 11 0 13 -1 19 -6z m272
0 l6 -6 -1 -71 c0 -51 1 -73 2 -80 4 -12 14 -21 32 -31 15 -7 15 -7 22 -21 9
-20 9 -30 3 -47 -3 -8 -6 -17 -6 -22 -1 -8 2 -23 5 -23 1 0 2 -2 3 -4 1 -3 3
-4 14 -4 23 0 30 7 38 36 2 10 5 15 9 18 l5 4 6 -5 c7 -6 19 -41 19 -56 0 -10
-1 -12 -6 -17 -6 -6 -7 -7 -25 -6 -16 0 -32 -3 -39 -9 -3 -3 -6 -5 -7 -5 -1 0
-3 -1 -5 -3 -2 -2 -7 -3 -13 -3 -11 0 -16 3 -23 18 -3 5 -6 10 -6 10 -1 0 -2
1 -2 3 0 3 -23 28 -32 34 -9 5 -30 13 -30 11 0 -1 -3 1 -6 5 l-7 6 1 27 c0 34
-2 41 -22 60 l-14 13 0 16 c1 13 0 18 -4 26 -4 10 -6 12 -15 14 -1 0 -5 1 -8
3 -3 1 -7 2 -9 2 -11 0 -16 20 -8 29 8 8 19 7 31 -4 5 -5 9 -10 9 -10 0 -2 21
-2 29 0 8 2 11 18 11 54 l-1 32 6 6 c5 5 7 6 19 6 11 0 13 -1 19 -6z m282 3
c10 -6 5 -34 -9 -57 -6 -11 -20 -41 -20 -46 0 -3 -1 -2 -5 2 -6 7 -8 17 -7 48
1 23 2 27 6 35 3 4 5 8 6 8 1 0 6 3 12 6 9 6 13 7 17 4z m631 -10 c2 -3 5 -9
6 -12 1 -4 1 -5 -7 -8 -15 -7 -27 -2 -27 11 0 14 18 21 28 9z m237 -103 c6 -4
6 -6 6 -20 0 -20 -3 -23 -22 -25 -20 -1 -27 6 -30 31 -1 10 -1 11 5 15 4 2 10
4 21 4 13 0 15 0 20 -5z m-324 -15 c16 -7 16 -43 0 -50 -3 -1 -10 -3 -14 -4
-21 -7 -32 -15 -44 -33 -9 -14 -18 -20 -32 -20 -24 0 -32 14 -25 44 4 23 7 25
22 26 18 1 32 9 48 24 6 7 15 13 18 14 3 1 6 2 7 2 3 1 13 -1 20 -3z m-446 -1
c3 -3 3 -3 0 -6 -4 -5 -11 1 -7 6 4 4 4 4 7 0z m325 -11 c0 -1 -1 -2 -2 -2 -2
0 -2 -1 -1 -1 0 -1 -1 -3 -3 -5 -4 -2 -5 -2 -9 3 l-5 6 4 4 4 5 6 -4 c3 -3 6
-5 6 -6z m557 -21 c7 -4 10 -11 10 -23 0 -13 -4 -20 -11 -24 -4 -2 -14 -3 -36
-3 -31 0 -32 0 -37 5 -7 7 -7 16 1 23 6 7 38 23 49 26 6 1 19 -1 24 -4z m-180
-100 c3 -3 3 -3 0 -6 -4 -5 -11 1 -7 6 4 4 4 4 7 0z m-1424 -59 c-5 -12 -12
-14 -18 -5 -7 11 7 23 16 14 4 -3 4 -5 2 -9z m176 1 c6 -5 9 -17 6 -30 -1 -8
-21 -30 -33 -38 -18 -11 -36 -4 -36 13 0 9 5 25 9 30 1 2 4 7 7 11 7 14 14 19
29 19 10 0 14 -1 18 -5z m171 -96 c2 -1 4 -2 4 -3 -1 -7 11 -24 17 -24 2 0 3
-1 3 -2 0 -2 2 -2 28 -3 33 -1 46 -4 46 -10 0 -1 5 -7 11 -12 12 -11 15 -19 7
-27 -5 -5 -7 -5 -29 0 -15 4 -20 4 -27 2 -9 -2 -24 -14 -32 -24 -3 -3 -7 -9
-10 -13 -3 -3 -6 -7 -7 -9 -1 -2 -6 -6 -12 -8 l-10 -5 -6 5 -6 5 0 63 0 63 6
6 6 6 4 -4 c2 -3 5 -5 7 -6z m-130 -69 c4 -2 9 -7 14 -17 10 -16 11 -17 26
-32 11 -10 11 -11 11 -23 1 -16 -1 -22 -11 -26 -11 -6 -20 -5 -31 3 -11 7 -29
17 -42 21 -12 4 -15 9 -15 24 0 7 1 16 2 20 1 4 3 9 3 12 4 19 22 26 43 18z
m209 -94 c14 -14 -3 -34 -28 -34 -19 0 -27 13 -18 28 7 12 36 15 46 6z m-333
-73 l4 -4 -5 -5 c-3 -3 -6 -4 -10 -3 -7 2 -8 7 -2 12 7 6 7 6 13 0z m149 -182
c8 -11 -8 -23 -16 -13 -4 6 -4 10 0 14 5 6 12 5 16 -1z m-67 -64 c3 -3 4 -7 4
-14 0 -13 -6 -19 -19 -19 -13 0 -19 6 -19 19 0 7 1 11 4 14 7 8 23 8 30 0z"/>
<path d="M1143 3796 l-10 -11 1 -12 c2 -21 19 -28 38 -17 20 13 27 32 14 44
-5 5 -7 6 -19 6 l-14 0 -10 -10z"/>
<path d="M981 3177 c-7 -9 -10 -23 -8 -40 1 -20 4 -24 23 -25 12 0 13 0 16 5
2 2 6 8 9 13 11 15 10 32 -2 46 -3 3 -5 6 -5 7 0 0 -6 1 -14 1 -13 -1 -14 -1
-19 -7z"/>
<path d="M1145 2745 c-23 -9 -41 -24 -44 -35 -1 -3 -2 -72 -3 -153 -1 -81 -2
-150 -2 -152 -3 -10 -8 -19 -19 -35 -32 -46 -32 -47 -35 -61 -1 -7 -2 -18 -2
-25 1 -15 -5 -22 -20 -26 -22 -6 -37 -15 -51 -35 -2 -3 -5 -7 -7 -8 -4 -5 -3
-33 2 -36 1 -1 4 -5 6 -10 4 -9 4 -9 1 -14 -5 -6 -6 -6 -16 -2 -9 4 -33 6 -40
3 -2 -1 -8 -7 -13 -13 -5 -6 -11 -14 -14 -17 -3 -3 -9 -10 -15 -16 -12 -14
-40 -45 -48 -53 -3 -3 -8 -9 -11 -13 -3 -4 -9 -11 -13 -16 -12 -12 -13 -16
-13 -31 0 -13 0 -14 8 -20 9 -10 17 -13 30 -13 13 0 19 3 39 18 9 6 27 20 41
30 14 11 26 20 27 21 1 1 6 5 10 8 4 3 9 7 10 8 1 1 5 4 9 7 4 3 9 7 10 8 2 2
8 7 14 12 6 5 11 9 12 10 1 1 7 7 15 13 8 6 17 14 20 17 34 30 34 31 47 43 10
10 10 10 14 6 4 -4 6 -12 11 -41 16 -93 69 -143 168 -158 25 -4 36 -5 95 -5
66 0 67 0 74 5 10 6 16 19 17 38 1 26 6 29 43 29 25 0 28 0 31 -4 3 -5 18 -3
27 3 3 2 6 3 7 3 0 -1 1 -1 1 1 0 1 3 5 6 8 3 3 6 6 6 7 0 3 14 9 22 10 9 1
28 -3 35 -8 3 -2 7 -6 8 -10 6 -11 3 -35 -4 -38 -4 -1 -4 -21 -1 -28 7 -14 16
-14 83 -6 42 5 82 17 114 32 24 12 38 25 51 50 5 10 14 20 22 24 9 5 19 31 19
51 -1 16 -7 25 -24 34 -8 5 -15 8 -15 7 0 -1 -2 1 -4 3 -2 2 -4 5 -4 7 0 5 5
16 10 21 4 4 5 7 5 19 l0 14 -11 11 c-6 6 -16 14 -23 18 -21 14 -21 14 -24 87
-4 116 -4 109 -9 119 -5 9 -8 10 -23 10 -16 -1 -19 -6 -32 -44 -11 -31 -36
-94 -48 -119 -22 -46 -24 -46 -203 -47 -121 0 -132 1 -140 9 -5 5 -5 6 -6 38
-1 33 -3 41 -10 47 -6 5 -23 11 -33 10 -6 0 -10 2 -16 6 -17 13 -29 16 -48 13
-12 -2 -19 4 -19 15 0 17 22 22 35 7 1 -1 5 -4 9 -7 13 -9 61 -5 73 6 6 7 9
19 10 48 0 35 2 41 21 67 7 10 13 21 14 25 2 8 -1 23 -6 30 -2 3 -4 6 -4 7 0
4 -20 20 -33 26 -17 8 -31 9 -49 4 -6 -2 -14 -4 -18 -4 -4 -1 -9 -2 -11 -3 -2
-1 -7 -3 -11 -4 -9 -3 -22 -15 -27 -25 -2 -4 -8 -12 -14 -17 -10 -10 -18 -24
-23 -42 -6 -23 -16 -39 -25 -44 -14 -6 -29 1 -29 15 0 11 5 19 19 30 16 11 20
21 18 37 -1 13 -5 17 -24 29 -20 14 -24 20 -18 28 2 3 6 3 42 4 48 1 44 -1 65
20 10 9 12 12 10 15 -2 4 -11 12 -12 11 -1 -1 -29 -2 -37 -1 -2 0 -5 2 -8 5
-6 6 -6 14 -2 26 1 4 2 9 2 11 0 2 -1 7 -2 12 -1 4 -2 8 -4 8 -1 0 -6 3 -10 6
-4 3 -9 6 -10 6 -2 0 -3 1 -3 2 0 2 -20 6 -28 6 -4 -1 -11 -3 -17 -5z m37
-379 c5 -6 5 -12 0 -18 -7 -8 -22 -2 -22 9 0 11 15 17 22 9z m67 -130 c4 -6 4
-24 -1 -30 -7 -9 -27 -9 -34 0 -5 6 -5 24 0 30 7 9 27 9 35 0z m-118 -20 c5
-7 4 -11 -4 -19 -8 -7 -11 -8 -15 0 -7 13 10 31 19 19z m296 -24 c5 -5 6 -7 6
-16 0 -22 -19 -29 -47 -17 -15 6 -18 27 -5 33 16 9 37 9 46 0z m440 -91 c3 -3
3 -3 0 -6 -4 -5 -11 1 -7 6 4 4 4 4 7 0z m-601 -82 l-5 -5 -4 4 -5 5 4 4 5 5
4 -4 5 -5 -4 -4z"/>
<path d="M1543 2020 c-5 -2 -11 -7 -11 -9 0 -2 -2 -5 -5 -7 -6 -5 -6 -6 -5
-19 0 -13 1 -15 4 -16 2 -1 4 -2 4 -3 0 -4 12 -6 37 -6 34 1 33 0 33 23 l0 18
-6 2 c-4 2 -10 6 -14 10 -5 4 -9 7 -11 7 -9 1 -24 1 -26 0z"/>
</g>
</svg>
