<?xml version="1.0" standalone="no"?>
<!DOCTYPE svg PUBLIC "-//W3C//DTD SVG 20010904//EN"
 "http://www.w3.org/TR/2001/REC-SVG-20010904/DTD/svg10.dtd">
<svg version="1.0" xmlns="http://www.w3.org/2000/svg"
 width="1109.000000pt" height="2870.000000pt" viewBox="0 0 1109.000000 2870.000000"
 preserveAspectRatio="xMidYMid meet">
<metadata>
Created by potrace 1.15, written by Peter Selinger 2001-2017
</metadata>
<g transform="translate(0.000000,2870.000000) scale(0.500000,-0.500000)"
fill="#000000" stroke="none">
<path d="M1640 3815 c-3 -2 -8 -6 -9 -9 -2 -4 -4 -8 -6 -10 -10 -12 -51 -67
-63 -85 -2 -2 -8 -11 -15 -20 -23 -30 -27 -46 -17 -65 5 -9 10 -22 10 -25 0
-5 -7 -10 -13 -10 -7 1 -9 3 -18 18 -9 13 -20 28 -31 39 -10 9 -31 15 -44 12
-13 -4 -30 -2 -56 5 -23 7 -27 7 -53 7 -26 0 -30 -1 -48 -6 -11 -4 -23 -6 -26
-6 -3 0 -15 2 -26 6 l-19 6 -103 0 -103 0 -21 -7 c-12 -4 -25 -7 -29 -7 -4 0
-17 3 -29 7 l-21 7 -90 0 c-61 0 -92 -1 -96 -2 -21 -7 -29 -25 -21 -49 1 -6 2
-11 2 -12 -1 0 1 -2 3 -4 4 -4 36 -5 38 -1 0 1 2 2 3 2 2 0 3 2 4 4 1 4 3 4
11 4 6 -1 10 -1 10 -2 0 -1 2 -2 5 -4 2 -1 8 -9 12 -17 8 -17 20 -31 32 -37 7
-5 11 -5 42 -5 l34 0 6 -6 c6 -6 6 -6 5 -23 -1 -26 6 -37 28 -47 6 -3 12 -6
13 -6 12 -1 29 -38 25 -55 -3 -14 -8 -18 -23 -21 -14 -2 -29 -9 -35 -17 -8
-11 -8 -16 -8 -132 l1 -111 -6 -6 c-4 -3 -8 -6 -11 -7 -9 -1 -17 -8 -22 -18
-2 -5 -6 -11 -7 -14 -2 -3 -2 -6 -2 -7 2 -2 -6 -8 -11 -8 -5 0 -13 6 -11 8 0
1 0 4 -2 7 -1 3 -4 8 -6 13 -5 11 -10 15 -19 15 -13 0 -19 -4 -26 -19 -4 -8
-7 -14 -6 -15 0 -3 -9 -10 -15 -10 -5 0 -18 9 -15 11 0 0 -2 6 -6 14 -11 22
-20 26 -57 25 -29 -1 -35 -4 -48 -20 -5 -6 -10 -12 -12 -13 -4 -1 -44 2 -49 5
-4 2 -6 5 -9 14 -2 6 -4 12 -5 14 -1 2 -3 7 -5 11 -5 14 -12 22 -42 46 -12 9
-24 19 -27 22 -3 2 -8 6 -11 8 -3 2 -8 7 -12 10 -3 3 -12 10 -20 16 -25 20
-26 20 -23 24 2 3 9 4 30 6 14 1 33 6 41 9 7 3 11 14 11 26 0 9 -1 11 -8 19
-19 20 -13 48 10 52 8 1 27 -4 39 -10 9 -5 31 -2 31 3 0 1 1 2 3 2 5 0 13 13
16 27 12 49 9 92 -7 134 -8 23 -26 57 -30 59 -1 0 -2 1 -2 2 0 1 -2 5 -4 8 -4
6 -6 6 -18 6 -14 0 -19 -2 -25 -10 -10 -13 -14 -16 -26 -17 -15 -2 -29 1 -50
11 -16 8 -28 11 -40 13 -12 2 -17 14 -9 23 4 4 5 5 15 3 23 -5 65 0 79 7 l8 5
0 15 0 15 -11 8 c-6 4 -12 9 -14 10 -12 11 -47 32 -78 48 -24 12 -62 29 -67
30 -1 0 -8 3 -15 6 -14 6 -47 16 -55 16 -20 1 -30 -10 -30 -36 -1 -20 1 -30 6
-38 5 -8 14 -16 20 -18 2 -1 7 -8 11 -17 8 -16 18 -27 27 -29 2 -1 7 -3 10 -4
3 -2 7 -3 9 -3 3 0 7 -2 10 -5 6 -4 6 -6 6 -20 0 -14 0 -16 -6 -20 -4 -4 -7
-5 -18 -5 -15 0 -19 3 -26 17 -7 14 -11 16 -28 17 l-15 1 -1 -6 c-3 -14 -1
-20 13 -49 18 -34 32 -51 50 -57 16 -6 58 -12 77 -10 34 2 34 2 41 -5 5 -5 6
-7 6 -18 0 -11 -1 -13 -6 -18 -6 -6 -7 -7 -21 -6 -32 1 -43 0 -55 -6 -30 -15
-34 -50 -7 -64 7 -3 13 -5 24 -5 15 0 21 -3 21 -10 0 -3 -8 -12 -10 -12 -4 0
-22 -12 -25 -17 -5 -9 -4 -20 3 -30 5 -9 18 -20 22 -20 1 0 3 -1 4 -2 2 -2 7
-5 11 -7 14 -8 19 -21 9 -24 -3 0 -13 -12 -31 -35 -39 -51 -37 -49 -37 -64 1
-11 1 -11 14 -24 12 -12 13 -13 14 -24 0 -11 -3 -22 -8 -25 -3 -2 -15 4 -26
13 -16 13 -36 20 -47 18 -3 -1 -39 -2 -80 -2 -88 0 -102 -2 -117 -15 -15 -14
-17 -32 -5 -46 15 -18 32 -17 51 1 5 4 9 8 10 8 1 0 3 1 4 3 4 5 18 4 24 -2 3
-4 4 -8 6 -25 2 -24 5 -32 16 -40 12 -9 24 -10 67 -10 l38 1 6 -6 6 -6 -1 -87
c0 -96 0 -102 11 -119 3 -5 8 -13 10 -16 4 -7 4 -21 0 -28 -2 -3 -7 -10 -10
-16 -10 -16 -11 -24 -11 -81 0 -56 1 -65 9 -72 5 -5 31 -14 32 -12 0 1 4 1 8
1 9 -1 19 -10 19 -16 0 -6 3 -11 9 -18 6 -6 9 -20 10 -41 1 -15 1 -16 -4 -21
-6 -6 -22 -8 -30 -2 -4 3 -13 25 -13 34 0 3 -1 3 -2 1 -1 -2 -6 -2 -18 -2 -16
1 -17 0 -18 -4 -1 -3 -2 -25 -2 -49 0 -43 0 -44 -5 -54 -3 -6 -6 -11 -7 -10 0
0 -4 -2 -9 -4 -10 -7 -38 -23 -53 -32 -6 -3 -13 -7 -16 -9 -3 -2 -9 -6 -15 -9
-24 -13 -31 -24 -35 -52 -2 -14 -3 -17 -10 -24 -5 -4 -8 -9 -8 -11 0 -6 -5 -5
-18 5 -14 10 -33 16 -46 14 -11 -2 -31 -14 -37 -21 -2 -4 -4 -10 -5 -18 -1
-12 2 -18 17 -40 3 -5 9 -14 13 -20 14 -23 27 -31 54 -35 5 0 12 -3 17 -6 17
-13 30 -21 35 -22 3 0 8 -4 10 -7 4 -6 4 -6 1 -11 -3 -4 -6 -4 -14 -4 -10 0
-20 -4 -25 -10 -3 -3 -4 -19 -2 -19 1 0 2 -2 3 -5 1 -4 4 -10 8 -16 7 -11 22
-33 30 -47 3 -5 10 -13 15 -18 9 -10 9 -10 23 -10 l13 0 24 24 c18 18 25 26
32 39 4 9 11 21 14 26 3 6 7 11 7 13 1 2 6 11 12 20 6 9 11 18 12 20 0 2 3 7
6 11 3 4 6 9 6 11 1 2 6 9 11 17 17 28 20 34 19 49 0 7 -2 16 -4 21 -4 10 -4
27 0 33 4 5 9 8 18 9 12 2 27 7 35 12 7 5 13 13 26 36 16 28 30 37 47 30 10
-4 22 -6 31 -4 8 1 8 2 15 16 4 9 10 17 12 18 4 3 22 4 30 1 13 -5 15 -29 2
-48 -10 -16 -13 -31 -12 -58 0 -21 3 -31 12 -41 4 -5 5 -7 18 -23 14 -18 32
-34 41 -38 15 -6 25 -10 30 -13 4 -2 13 -12 14 -17 2 -4 33 -5 38 -2 2 2 4 4
4 5 0 19 7 25 25 25 13 0 18 -3 28 -13 5 -5 18 -14 32 -20 16 -8 20 -12 22
-23 2 -12 -2 -22 -11 -30 l-8 -7 0 -17 c1 -19 1 -20 13 -24 4 -1 9 -3 10 -4 7
-5 76 -28 102 -34 6 -1 11 -3 13 -3 26 -6 63 -13 82 -16 43 -5 57 -7 68 -8 7
0 20 -1 28 -2 8 -1 19 -2 24 -2 5 -1 44 -2 87 -2 97 -2 95 -2 100 26 2 10 2
13 0 15 -2 1 -3 7 -3 14 0 11 1 13 6 18 6 6 7 6 20 6 8 0 19 -5 21 -10 1 -2 2
-11 2 -21 1 -32 8 -40 40 -46 22 -4 41 -3 51 2 8 5 18 15 18 19 0 1 1 2 2 2 1
0 3 4 6 10 5 12 13 17 27 17 14 0 20 -4 25 -17 3 -6 5 -10 6 -10 1 0 2 -1 2
-2 0 -4 10 -14 18 -19 6 -4 11 -4 62 -5 46 0 56 0 63 3 9 3 19 12 20 19 0 2 2
6 3 8 2 4 3 8 4 21 0 7 8 15 17 17 9 2 25 0 27 -4 1 -2 28 -4 28 -1 0 1 1 1 2
0 4 -2 12 8 12 16 1 10 1 8 -1 24 l-1 14 7 8 c5 5 11 11 15 14 8 7 12 13 19
24 2 5 5 10 6 11 1 2 11 9 21 16 10 7 21 14 22 16 2 2 8 5 12 8 5 2 11 6 14 9
5 4 9 6 18 8 18 3 32 14 38 30 11 29 -2 59 -27 64 -3 0 -6 1 -7 2 -1 0 -7 0
-14 -2 -7 -1 -14 -2 -15 -1 -1 0 -1 0 0 -2 1 -1 0 -2 -2 -2 -2 0 -7 -1 -11 -1
-5 -1 -8 -1 -8 0 0 4 -20 4 -74 2 -50 -2 -62 -8 -57 -31 1 -5 0 -6 -4 -8 -4
-2 -4 -2 2 -4 3 -1 7 -3 8 -3 1 0 5 -1 8 -2 3 -2 8 -3 10 -4 2 -1 6 -2 9 -2
13 -3 19 -11 19 -27 0 -19 -8 -27 -27 -27 -13 0 -21 4 -24 12 -1 2 -3 8 -5 13
-6 17 -8 23 -10 24 -1 1 -2 3 -2 3 0 1 -1 2 -1 2 -1 -1 -2 0 -2 1 0 1 -1 2 -2
2 -3 0 -20 18 -20 20 0 1 -4 6 -10 12 -16 17 -32 18 -66 6 -26 -10 -31 -10
-46 -5 -12 3 -29 4 -31 1 -1 -1 -2 -2 -3 -1 -3 2 -13 -10 -19 -21 -9 -16 -22
-20 -47 -15 -8 1 -29 28 -25 32 1 0 -1 1 -3 2 -4 1 -6 5 -2 5 1 0 2 1 2 2 -1
3 0 6 2 5 1 -1 2 0 2 1 0 1 2 2 5 2 2 0 8 1 13 3 5 1 19 4 31 6 12 2 28 5 35
7 16 5 51 22 62 30 26 17 42 41 39 57 -1 9 -11 25 -17 30 -6 4 -12 14 -12 19
0 3 2 11 5 19 4 11 6 18 6 35 1 21 1 22 10 41 l10 20 0 101 c-1 151 -1 170 -5
172 -2 1 -10 2 -18 2 l-14 -1 0 11 0 10 13 0 c9 -1 14 0 15 2 0 1 1 2 3 2 1 0
2 1 3 3 0 4 2 14 3 15 1 2 -4 23 -7 27 -1 1 -4 5 -8 9 -16 20 -16 32 0 52 4 4
7 8 8 9 5 7 8 24 8 45 l-1 23 6 6 c6 5 8 6 20 6 30 0 32 2 33 27 l0 10 10 0
10 0 0 -10 c1 -11 1 -11 7 -12 4 0 16 2 28 5 26 6 30 5 52 -8 22 -12 28 -14
60 -13 35 1 38 3 67 32 24 24 25 26 26 39 0 13 -5 22 -25 44 -26 28 -29 32
-43 42 -14 11 -32 30 -32 33 0 1 -18 20 -40 42 -23 23 -45 45 -49 51 -7 9 -9
10 -18 10 -15 2 -24 -2 -30 -11 -3 -4 -5 -8 -5 -9 0 0 -5 -9 -11 -19 -6 -10
-11 -19 -11 -19 0 0 -5 -9 -11 -19 -6 -10 -11 -19 -11 -19 0 0 -4 -8 -10 -17
-5 -10 -10 -19 -10 -21 0 -4 0 -4 -2 1 -1 2 -3 4 -4 4 -5 0 -6 16 -6 140 0
126 0 128 -4 139 -3 6 -5 11 -6 11 -1 0 -4 5 -7 12 -6 14 -6 18 5 40 8 16 13
30 12 33 -1 1 2 5 5 8 6 5 8 6 19 6 9 0 16 2 23 5 31 14 36 15 54 7 13 -6 27
-8 34 -5 6 2 18 15 20 20 1 4 12 11 25 18 20 9 34 25 34 39 0 20 -6 28 -36 52
-8 7 -15 12 -16 13 -2 2 -49 37 -57 43 -11 7 -26 7 -45 0 -15 -6 -28 -7 -35
-2 -8 5 -10 10 -8 26 4 34 3 41 -3 47 -7 7 -22 8 -34 3z m108 -151 c7 -2 13
-9 13 -14 0 -2 -1 -7 -3 -12 -2 -8 -4 -9 -14 -14 -15 -7 -25 -6 -33 2 -12 12
-5 36 12 39 12 1 18 1 25 -1z m-542 -52 c5 -5 6 -7 6 -16 0 -23 9 -41 23 -46
3 -1 18 -2 35 -2 30 0 41 2 47 10 4 5 13 30 11 31 -1 0 -1 4 -1 8 2 19 26 27
39 14 9 -9 9 -19 -1 -43 -7 -18 -8 -20 -8 -43 0 -13 0 -25 1 -26 1 -3 1 -27 0
-28 -3 -2 -2 -135 0 -139 1 -2 1 -4 1 -4 -1 0 -2 -6 -2 -14 0 -8 1 -14 2 -14
0 0 0 -2 -1 -4 -1 -2 -2 -24 -2 -57 0 -57 0 -59 13 -85 10 -20 6 -37 -10 -38
-4 -1 -16 0 -27 1 -22 3 -115 4 -117 1 0 -1 -4 2 -8 5 -4 4 -8 7 -10 7 -2 0
-4 2 -9 9 -1 3 -24 13 -29 13 -4 0 -13 9 -13 15 -1 19 4 28 21 36 13 7 24 18
30 29 4 9 4 9 4 160 1 96 0 150 -1 150 -1 0 -2 2 -2 4 0 2 -6 9 -12 16 -18 19
-20 21 -20 34 0 15 7 22 23 22 10 0 12 -1 17 -6z m433 -26 l-4 -6 -4 5 -5 6 4
4 5 5 4 -4 5 -4 -5 -6z m-526 -4 c11 -10 3 -28 -11 -28 -9 0 -16 6 -16 16 0
14 17 22 27 12z m328 -80 c14 -6 26 -18 28 -26 1 -3 2 -8 3 -11 4 -11 7 -24 5
-28 -3 -9 -45 3 -64 19 -13 9 -17 17 -17 30 0 22 19 29 45 16z m-366 -25 c8
-4 15 -8 15 -9 0 -1 2 -2 4 -3 2 0 6 -4 8 -7 l4 -7 -4 -4 c-6 -6 -12 -4 -39
11 -6 3 -15 12 -15 15 0 3 7 11 10 11 1 0 9 -3 17 -7z m421 -54 c2 -7 2 -11
-1 -23 -2 -8 -4 -19 -4 -24 -1 -5 -3 -11 -5 -13 -3 -3 -3 -3 -7 1 l-4 5 4 20
c4 17 5 21 3 25 -2 3 -3 7 -3 8 -1 2 -1 5 -1 6 -1 3 11 6 14 5 1 -1 3 -5 4
-10z m94 -19 c1 0 5 -3 8 -6 5 -5 6 -7 6 -18 0 -11 -1 -13 -6 -18 -6 -6 -7 -6
-18 -6 -11 0 -12 0 -18 6 -5 5 -6 7 -6 17 0 14 3 20 12 24 5 2 8 2 22 1z
m-163 -77 c12 -12 3 -31 -13 -31 -11 0 -18 7 -18 18 0 11 7 18 18 18 6 0 9 -1
13 -5z m96 -44 c4 -4 5 -7 5 -15 0 -14 -6 -20 -20 -20 -14 0 -20 6 -20 20 0
14 6 20 20 20 8 0 11 -1 15 -5z m-489 -7 c5 -5 5 -11 0 -16 -10 -10 -27 5 -16
16 4 4 12 4 16 0z m-47 -80 c4 -6 4 -24 -1 -30 -7 -9 -27 -9 -34 0 -5 6 -5 24
0 30 7 9 27 9 35 0z m-562 -15 c2 -2 3 -8 3 -14 0 -13 -6 -19 -20 -19 -14 0
-20 6 -20 20 0 12 4 18 15 20 10 2 18 -1 22 -7z m697 -62 c3 -2 9 -9 13 -15
12 -19 23 -24 50 -24 15 0 19 -3 21 -17 2 -10 0 -25 -4 -27 -1 0 -1 -2 0 -4 1
-1 2 -3 2 -4 -1 -8 3 -21 8 -25 9 -7 12 -7 76 -7 l57 1 6 -6 6 -6 -1 -154 c0
-110 0 -156 2 -162 2 -8 14 -21 19 -21 2 0 3 -1 3 -2 0 -2 1 -2 1 -1 1 0 3 0
5 -1 14 -8 41 -5 60 7 15 9 29 10 37 2 11 -11 4 -37 -9 -37 -21 0 -35 -2 -44
-6 -5 -2 -10 -5 -10 -6 0 -3 -27 -13 -37 -14 -2 -1 -3 -1 -3 -2 0 -1 -1 -2 -3
-2 -5 0 -17 -13 -19 -21 -2 -6 -2 -44 -2 -133 1 -148 -1 -137 24 -138 9 0 14
-1 14 -3 0 -1 2 1 3 4 6 13 29 19 39 11 6 -4 10 -16 10 -26 0 -14 11 -36 18
-36 8 0 -9 -8 -22 -10 -19 -3 -33 -7 -34 -11 0 -1 -1 -5 -2 -9 -1 -6 -1 -8 0
-8 2 0 2 -1 1 -2 -2 -2 -2 -5 -2 -6 0 -3 -1 -4 -3 -4 -2 0 -2 0 1 -3 4 -2 11
-4 39 -6 22 -2 26 -7 21 -30 -3 -15 -7 -21 -18 -23 -17 -4 -28 1 -35 15 -10
21 -19 32 -25 32 -3 0 -11 2 -17 3 -12 4 -12 4 -28 31 -12 19 -42 25 -71 14
-19 -7 -31 -11 -36 -11 -3 0 -15 4 -27 9 l-23 9 -42 1 c-23 1 -45 2 -49 2 -4
0 -21 1 -38 2 -30 1 -32 1 -49 -4 -10 -3 -21 -6 -25 -6 -22 0 -48 2 -50 4 -2
3 -25 16 -37 21 -9 3 -11 3 -19 1 -9 -2 -21 -10 -19 -13 1 -1 0 -2 -1 -2 -1 0
-4 -7 -5 -18 -2 -12 -8 -22 -17 -31 -23 -21 -38 -22 -54 -5 -9 9 -35 21 -43
20 -11 -2 -19 6 -19 20 0 18 13 25 34 17 12 -4 23 -5 32 -4 l6 1 0 15 c0 8 -1
15 -2 16 -1 1 -1 2 -1 3 1 2 1 2 -1 1 -1 -1 -2 0 -2 1 0 1 -3 2 -7 3 -16 3
-36 13 -39 20 -2 5 -1 10 5 15 9 8 7 23 -4 43 -18 31 -10 54 18 54 18 0 25 -7
28 -26 3 -21 14 -32 31 -33 8 0 11 2 31 15 12 8 26 17 30 21 11 9 11 8 20 15
4 3 9 7 10 8 1 1 7 6 12 10 11 8 19 16 41 37 l14 13 0 14 c0 12 -1 16 -6 25
-13 22 -6 42 14 43 5 0 13 -2 17 -4 9 -4 25 -4 39 0 1 1 5 4 8 8 3 4 6 9 8 10
4 5 12 22 14 33 4 18 -5 49 -17 57 -2 1 -6 4 -9 7 -2 2 -5 4 -6 4 -5 0 -17 16
-14 19 0 1 2 7 3 13 4 17 5 18 26 18 14 0 17 0 21 -4 2 -2 4 -4 3 -4 -2 0 5
-25 8 -29 2 -3 5 -4 14 -3 13 0 22 3 24 7 33 81 49 131 62 204 9 49 7 62 -9
71 -14 8 -22 7 -33 -2 -2 -2 -6 -5 -8 -6 -3 -3 -5 -15 -5 -28 0 -21 -12 -34
-31 -33 -21 1 -32 17 -27 38 3 11 8 15 22 21 6 2 14 6 17 9 3 3 5 4 5 4 0 -5
4 4 6 12 6 35 5 33 15 43 9 9 9 9 9 24 0 11 -1 15 -3 17 -8 6 -22 17 -24 17
-8 0 -21 19 -21 30 0 14 15 20 28 13z m-728 -41 c3 -4 4 -9 5 -20 0 -8 1 -17
2 -19 0 -2 1 -6 1 -8 0 -2 1 -3 2 -2 0 1 4 3 8 4 3 1 6 2 6 3 0 1 1 2 2 1 1
-1 20 3 29 7 14 5 27 -1 27 -13 0 -7 -5 -22 -9 -26 -1 -2 -4 -6 -7 -10 -14
-21 -25 -27 -42 -23 -8 2 -16 7 -16 11 0 1 -2 6 -5 11 -2 5 -4 10 -4 11 1 0 1
1 -1 1 -1 0 -1 1 -1 3 0 1 0 4 -2 6 -2 3 -5 3 -19 2 -29 -2 -32 -2 -38 5 -8 7
-8 15 -3 34 5 20 7 21 33 23 7 0 13 1 13 2 3 3 14 1 19 -3z m1345 -13 c3 -3 5
-6 5 -8 0 -2 1 -6 1 -9 1 -8 -5 -12 -19 -12 -14 0 -18 4 -18 17 0 10 7 17 18
17 6 0 9 -1 13 -5z m-1076 -11 c7 -5 15 -13 15 -16 0 -5 11 -29 15 -32 10 -9
13 -10 105 -9 l87 0 6 -6 c4 -4 6 -9 6 -12 1 -9 3 -18 5 -19 1 0 2 -2 2 -3 0
-2 2 -5 4 -7 13 -13 18 -22 18 -31 0 -9 0 -11 -8 -17 -36 -30 -43 -45 -31 -69
3 -6 6 -11 7 -11 2 0 13 -11 17 -16 3 -5 3 -6 -1 -9 -3 -3 -9 -6 -13 -7 -25
-8 -35 -21 -42 -55 0 -2 -4 -15 -9 -29 -8 -25 -9 -30 -7 -40 1 -3 2 -7 2 -9 1
-2 3 -7 6 -11 8 -13 9 -16 9 -23 0 -9 -6 -17 -13 -17 -9 0 -34 -10 -41 -17 -7
-6 -28 -45 -28 -51 0 -6 -15 -30 -27 -43 -8 -8 -15 -16 -17 -19 -2 -4 -17 -23
-29 -39 -2 -2 -9 -10 -16 -18 -11 -13 -12 -14 -13 -26 0 -12 4 -24 12 -34 5
-6 6 -16 4 -27 -3 -16 -7 -18 -27 -19 -14 0 -20 4 -29 18 -13 19 -21 26 -47
41 -28 17 -29 19 -35 37 -9 30 -10 46 -3 63 11 27 11 28 11 77 0 41 -1 46 -4
53 -5 9 -12 12 -25 10 -5 0 -8 0 -9 2 -2 2 -2 2 -2 0 0 -10 -25 -12 -33 -3 -7
7 -7 25 0 32 8 9 33 7 33 -3 0 -2 0 -2 2 0 1 2 4 2 9 2 13 -2 20 1 25 10 4 8
4 11 3 100 0 84 0 94 -4 99 -4 9 -12 16 -24 23 -16 9 -20 14 -20 26 0 12 4 17
20 26 5 3 17 12 26 21 8 8 15 15 15 14 0 -1 18 5 32 12 23 11 32 25 39 58 3
18 5 21 10 23 6 2 6 2 12 0z m375 -21 l-5 -5 -4 4 -5 5 4 4 5 5 4 -4 5 -5 -4
-4z m448 -74 c4 -2 7 -8 9 -15 3 -10 3 -11 -1 -19 -9 -19 -33 -3 -34 23 0 14
15 21 26 11z m-36 -89 c5 -5 5 -15 0 -20 -9 -9 -24 -2 -24 10 0 8 6 14 14 14
3 0 8 -2 10 -4z m167 -67 c2 -2 3 -5 3 -16 0 -18 -1 -21 -8 -26 -9 -4 -13 -4
-19 3 -7 9 -7 29 1 37 5 6 17 7 23 2z m-600 -19 c7 -3 11 -12 12 -29 1 -13 1
-15 -3 -17 -2 -2 -4 -4 -4 -5 0 -2 -1 -3 -2 -3 -1 0 -3 -1 -4 -1 -6 0 -27 3
-32 6 -15 8 -14 43 1 49 12 4 20 4 32 0z m-600 -42 c10 -9 3 -26 -10 -26 -8 0
-15 7 -15 15 0 13 16 20 25 11z m0 -206 c7 -6 7 -19 1 -25 -6 -6 -21 -7 -26
-2 -6 5 -5 20 0 26 6 7 19 7 25 1z m1022 -10 c10 -9 3 -26 -10 -26 -8 0 -15 7
-15 15 0 13 16 20 25 11z m114 -126 c7 -7 8 -23 2 -30 -10 -11 -51 -21 -72
-18 -31 5 -43 12 -43 26 0 14 13 21 44 26 23 3 27 4 45 3 17 -1 18 -1 24 -7z
m-1281 -122 c3 -3 4 -8 4 -20 -1 -15 4 -36 8 -41 3 -4 3 -26 0 -29 -5 -7 -9
-24 -9 -41 0 -20 -2 -25 -10 -25 -6 0 -11 7 -11 14 1 11 -5 28 -12 41 -11 18
-12 28 -3 46 6 14 11 30 11 42 0 15 14 23 22 13z m370 -18 c5 -5 5 -11 0 -16
-10 -10 -27 5 -16 16 4 4 12 4 16 0z m1273 -64 c4 -12 -13 -22 -21 -12 -7 8
-5 17 5 20 8 2 15 -1 16 -8z m-993 1 c0 -1 1 -4 3 -5 8 -7 0 -24 -12 -24 -13
0 -20 17 -10 26 8 7 19 9 19 3z m-799 -3 c1 -3 2 -5 3 -6 2 -1 2 -3 -1 -5 -3
-3 -3 -3 -6 0 -3 3 -3 4 -1 5 1 0 2 3 2 7 0 6 2 6 3 -1z m1568 -36 c5 -5 6 -7
6 -16 0 -15 -8 -23 -23 -23 -9 0 -11 1 -16 7 -9 8 -9 23 -1 32 9 9 24 9 34 0z
m-424 -57 c4 -4 5 -7 5 -15 0 -14 -6 -20 -20 -20 -14 0 -20 6 -20 20 0 14 6
20 20 20 8 0 11 -1 15 -5z m-128 -17 c16 -7 16 -43 -1 -50 -15 -6 -34 -2 -39
9 -4 8 -4 24 0 32 5 12 23 15 40 9z m-171 -9 c7 -3 11 -13 11 -24 0 -19 -9
-28 -28 -28 -22 0 -35 16 -30 37 4 16 28 24 47 15z m494 -16 c5 -5 5 -7 5 -23
1 -18 -3 -36 -8 -41 -7 -8 -26 -10 -37 -6 -14 7 -19 18 -13 38 3 12 11 26 17
30 15 10 27 11 36 2z"/>
<path d="M150 3801 c-8 -3 -24 -12 -24 -13 0 -1 -1 -3 -3 -5 -2 -2 -4 -8 -4
-16 -1 -12 -1 -13 6 -25 l8 -12 14 0 c17 0 20 2 25 13 3 6 6 12 8 15 6 7 4 33
-1 38 -5 5 -22 7 -29 5z"/>
</g>
</svg>
