<?xml version="1.0" standalone="no"?>
<!DOCTYPE svg PUBLIC "-//W3C//DTD SVG 20010904//EN"
 "http://www.w3.org/TR/2001/REC-SVG-20010904/DTD/svg10.dtd">
<svg version="1.0" xmlns="http://www.w3.org/2000/svg"
 width="1113.000000pt" height="2870.000000pt" viewBox="0 0 1113.000000 2870.000000"
 preserveAspectRatio="xMidYMid meet">
<metadata>
Created by potrace 1.15, written by Peter Selinger 2001-2017
</metadata>
<g transform="translate(0.000000,2870.000000) scale(0.500000,-0.500000)"
fill="#000000" stroke="none">
<path d="M1707 3810 c-4 -2 -10 -7 -12 -10 -3 -3 -7 -7 -9 -10 -3 -3 -12 -13
-20 -22 -8 -9 -17 -18 -19 -21 -2 -2 -11 -12 -20 -21 -24 -27 -2 -25 -212 -26
l-180 -1 -8 -5 c-5 -2 -12 -8 -16 -13 -19 -22 -35 -22 -53 -1 -7 9 -12 12 -26
14 -9 1 -10 1 -15 -7 -3 -4 -5 -9 -5 -11 0 -7 -2 -13 -4 -14 -1 0 -1 -2 1 -3
6 -4 0 -14 -8 -14 -8 0 -14 10 -8 14 2 1 2 3 1 3 -1 1 -2 5 -3 9 -3 20 -14 28
-41 32 -10 1 -16 3 -47 16 -30 12 -37 13 -51 8 -7 -3 -22 -18 -22 -23 0 -4 -9
-8 -26 -12 -9 -2 -23 -8 -32 -12 -14 -7 -19 -8 -27 -8 -10 0 -27 5 -27 8 0 1
-5 1 -11 0 -18 -2 -26 -10 -29 -28 -2 -10 -10 -26 -12 -21 -1 5 -32 28 -54 39
-17 9 -24 14 -28 19 -12 18 -16 21 -31 21 -13 0 -23 -5 -23 -11 0 -2 -1 -3 -2
-3 -1 0 -2 -2 -3 -5 -4 -13 -24 -19 -34 -8 -6 5 -7 22 -3 26 2 1 6 6 11 11 7
8 7 8 7 24 0 10 -1 16 -2 16 -3 0 -14 10 -27 24 -8 8 -9 9 -21 10 -11 0 -26
-4 -26 -8 0 -1 -2 -4 -4 -6 -3 -3 -8 -10 -12 -16 -4 -6 -12 -16 -16 -22 -4 -6
-10 -14 -13 -18 -3 -4 -11 -16 -19 -26 -8 -10 -18 -25 -24 -33 -14 -21 -19
-23 -66 -23 -41 0 -50 -2 -58 -10 -6 -5 -13 -21 -15 -30 -2 -13 -4 -16 -8 -20
-8 -6 -28 -6 -36 0 -4 4 -6 7 -8 20 -3 18 -15 34 -28 38 -11 3 -158 3 -167 0
-16 -5 -23 -16 -24 -34 -1 -6 13 -52 17 -61 6 -10 18 -20 28 -24 9 -3 19 -3
76 -3 l66 1 6 -6 6 -6 0 -111 c0 -117 0 -120 9 -126 5 -3 30 -6 30 -4 0 3 9 7
18 7 10 0 14 -2 32 -16 14 -10 25 -12 45 -4 20 7 31 6 42 -6 2 -3 10 -9 17
-14 17 -12 18 -14 19 -34 1 -10 2 -18 2 -19 0 -1 1 -8 2 -16 1 -14 1 -16 -3
-20 -8 -8 -23 -3 -25 9 -5 26 -17 50 -30 57 -8 5 -27 5 -38 1 -10 -4 -15 -4
-40 4 -12 4 -26 8 -31 9 -4 1 -9 3 -9 5 -1 3 -25 1 -31 -3 -8 -6 -9 -11 -9
-83 l0 -68 -6 -6 -6 -6 -33 0 c-38 0 -40 -1 -54 -16 -19 -20 -20 -21 -27 -21
-6 0 -9 2 -16 9 l-9 9 -16 0 c-18 0 -18 0 -18 -15 -1 -8 12 -51 18 -62 5 -10
17 -20 27 -24 9 -3 19 -3 69 -3 l59 1 6 -6 c6 -6 6 -7 5 -20 0 -14 2 -24 12
-43 9 -16 9 -24 0 -40 -13 -25 -12 -12 -12 -203 l0 -174 -6 -6 c-4 -5 -18 -12
-24 -11 -1 0 -5 -3 -11 -5 -11 -6 -21 -15 -29 -27 -12 -18 -21 -20 -48 -11
-24 9 -30 10 -50 5 -26 -7 -33 -11 -39 -21 -5 -11 -5 -23 0 -35 24 -50 29 -56
50 -61 8 -2 19 -3 24 -3 6 0 10 -1 14 -5 9 -7 9 -28 0 -47 -13 -31 -12 -39 12
-89 9 -19 17 -36 17 -37 0 -2 14 -20 18 -23 12 -9 37 -23 43 -25 8 -3 22 -2
29 2 2 1 7 7 10 13 8 13 21 28 36 37 5 4 9 7 10 8 1 1 10 8 20 16 10 7 22 16
25 19 8 7 8 7 23 18 7 5 13 10 14 11 1 1 5 4 9 7 4 3 8 6 9 7 1 1 10 8 21 17
11 9 20 16 21 17 1 1 6 5 11 9 6 4 12 10 15 12 3 3 6 5 6 5 5 0 18 30 21 46 4
20 9 24 37 26 22 2 25 2 34 7 5 2 44 36 60 51 2 2 10 9 18 16 8 7 17 15 20 18
4 3 14 13 24 22 10 9 22 21 27 25 5 4 14 14 22 20 8 9 15 17 18 24 3 7 6 12 7
13 3 2 8 14 5 14 -1 0 -1 1 1 2 1 1 1 2 -3 4 -7 3 -13 3 -18 -1 -4 -3 -16 -4
-28 -1 -5 1 -11 5 -19 13 -11 11 -23 17 -35 17 -3 0 -18 -4 -32 -8 -14 -4 -28
-8 -29 -8 -2 0 -4 -1 -4 -2 0 -2 -9 -5 -19 -7 -3 0 -11 -2 -16 -4 l-11 -2 -7
6 c-4 3 -7 7 -7 8 0 6 -24 19 -35 19 -4 0 -7 2 -10 5 -3 5 -3 5 0 10 3 3 6 5
10 5 16 0 36 14 38 26 1 4 1 76 1 160 l-1 153 6 6 6 6 96 0 96 -1 14 6 c8 3
15 8 17 10 6 6 17 1 28 -13 5 -6 13 -16 18 -21 6 -6 12 -14 13 -18 4 -11 1
-15 -16 -22 -29 -12 -30 -15 -28 -90 1 -70 2 -100 1 -123 -1 -15 0 -20 4 -33
7 -22 5 -39 -8 -65 -5 -11 -6 -40 -1 -53 2 -7 3 -18 3 -52 0 -47 1 -52 11 -63
3 -3 5 -5 5 -4 0 0 3 -1 7 -2 4 -2 13 -3 21 -4 22 -1 29 -7 29 -27 0 -20 -7
-26 -29 -27 -8 -1 -17 -2 -21 -4 -4 -1 -7 -2 -7 -2 0 1 -2 -1 -5 -4 -9 -10
-11 -17 -11 -41 0 -33 6 -44 32 -57 17 -8 19 -12 21 -30 2 -27 3 -30 7 -33 6
-6 9 -19 6 -23 -6 -6 -15 1 -17 11 -1 5 -2 8 -2 6 -1 -1 -3 -1 -5 2 -2 3 -4 4
-4 2 0 -1 -1 -2 -1 -2 -1 0 -8 0 -14 0 l-13 0 -5 -11 -5 -11 0 -109 c0 -95 0
-110 3 -116 4 -9 14 -21 18 -21 2 0 3 -1 3 -2 0 -4 56 -4 81 1 33 6 84 26 102
40 4 3 8 5 9 5 3 0 8 9 9 18 1 10 0 18 -7 32 -2 6 -2 7 0 12 3 5 11 8 14 4 2
-2 23 3 31 8 8 4 11 14 11 33 -1 18 -1 18 5 24 l6 6 267 0 267 0 6 -6 6 -6 -1
-44 c0 -49 1 -54 13 -66 8 -9 24 -10 35 -2 10 6 20 11 24 11 2 0 10 -2 18 -5
23 -8 31 -8 49 -2 36 11 62 23 91 43 29 19 39 31 45 53 5 16 4 229 0 243 -4
12 -15 22 -31 30 -14 7 -17 11 -20 22 -2 6 -2 10 0 17 3 10 6 14 20 21 6 3 14
8 19 12 15 13 15 14 15 120 0 107 0 105 -20 128 -12 13 -13 17 -10 34 5 27 4
36 -4 49 -4 7 -14 18 -21 25 -12 13 -13 14 -14 25 -1 15 -6 35 -11 47 -6 14
-5 29 2 36 6 6 7 6 19 6 7 1 19 -3 19 -6 0 -2 22 0 28 2 11 5 11 6 12 76 0 79
0 81 -24 97 -16 10 -20 15 -20 23 0 8 4 13 20 23 24 16 24 16 24 106 0 81 -1
85 -12 90 -8 4 -26 5 -30 2 -2 -3 -6 -4 -18 -3 -8 0 -12 3 -38 28 l-19 18 0
15 c0 14 0 16 6 20 4 4 7 5 18 5 15 0 16 -1 34 -23 4 -6 10 -12 14 -15 3 -3 5
-7 5 -9 0 -2 1 -3 1 -1 1 1 5 2 12 2 13 0 19 3 23 12 4 6 4 14 4 68 l0 62 -6
19 c-7 21 -7 26 -3 40 3 12 16 25 27 29 20 7 63 43 65 57 5 25 -10 37 -39 30
-28 -6 -34 -3 -34 22 -1 27 -6 38 -24 51 -4 3 -8 6 -9 7 -14 14 -21 17 -30 17
-14 -1 -21 -4 -31 -15 -22 -22 -40 -2 -29 32 3 9 3 12 1 22 -2 11 -9 25 -12
25 -1 0 -3 2 -6 4 -15 15 -33 18 -49 10z m5 -124 c1 0 5 -3 8 -6 7 -7 8 -19 2
-41 -2 -8 -5 -23 -5 -33 0 -10 -2 -20 -4 -24 -8 -15 -43 -14 -49 1 -5 14 -4
20 4 40 2 6 5 19 7 29 4 23 6 28 14 32 5 3 9 3 23 2z m-213 -30 c15 -3 21 -16
17 -36 -2 -7 -2 -14 -1 -17 1 -3 2 -6 2 -7 2 -6 4 -10 10 -14 6 -5 7 -5 38 -5
l32 0 6 -6 6 -6 -1 -27 c0 -31 2 -40 11 -49 7 -7 17 -11 34 -12 14 -1 22 -9
22 -23 0 -15 -8 -25 -26 -34 -17 -8 -28 -9 -40 -2 -4 2 -38 34 -76 71 -37 38
-71 70 -74 72 -3 3 -5 5 -3 5 1 0 2 2 2 5 0 2 1 8 2 13 1 5 3 14 3 19 0 6 1
11 2 11 1 1 1 2 -1 2 -4 0 -18 15 -21 24 -3 8 -3 8 0 12 2 3 6 5 8 6 4 2 36 1
48 -2z m-1000 -23 c3 -5 3 -5 0 -10 -2 -3 -5 -5 -7 -5 -2 0 -5 2 -7 5 -3 5 -3
5 0 10 2 3 5 5 7 5 2 0 5 -2 7 -5z m544 -27 c2 -2 7 -7 11 -11 5 -5 13 -11 20
-14 l11 -5 135 0 136 0 7 -6 c4 -3 6 -6 5 -6 -1 0 -9 -5 -17 -11 -13 -9 -54
-37 -77 -51 -15 -10 -52 -32 -53 -32 -1 0 -4 -2 -9 -5 -17 -10 -91 -49 -125
-65 -10 -4 -20 -9 -22 -11 -2 -2 -3 -3 -3 -2 0 1 -2 5 -5 8 l-5 6 0 62 c0 72
-1 78 -15 91 -4 5 -8 8 -9 8 -3 0 -20 12 -21 15 -2 7 -1 23 3 27 6 8 25 9 33
2z m768 -15 c6 -4 6 -6 6 -20 0 -14 0 -16 -6 -20 -4 -4 -7 -5 -18 -5 -11 0
-14 1 -18 5 -6 4 -6 6 -6 20 0 14 0 16 6 20 4 4 7 5 18 5 11 0 14 -1 18 -5z
m-871 -35 c17 -10 26 -31 19 -41 -9 -11 -47 -12 -57 -1 -9 8 -9 32 0 41 7 7
27 8 38 1z m-131 -14 c8 -8 10 -26 3 -38 -3 -6 -4 -11 -4 -20 1 -12 6 -25 10
-23 1 0 5 -2 9 -6 6 -5 7 -8 7 -14 0 -12 -4 -16 -20 -21 -16 -5 -25 -11 -31
-20 -4 -7 -4 -10 -5 -171 -1 -136 -1 -165 -4 -169 -1 -4 -3 -6 -4 -6 -1 0 -2
-2 -3 -3 0 -4 -1 -4 -1 0 0 2 -6 10 -14 18 -7 8 -16 17 -20 21 -4 4 -12 11
-18 16 -7 4 -15 12 -19 17 -4 6 -17 19 -27 30 -11 11 -21 22 -23 25 -12 15
-12 15 -27 16 -18 1 -23 -1 -30 -16 -2 -3 -6 -11 -10 -17 -22 -36 -24 -41 -27
-78 -2 -14 -7 -20 -18 -23 -18 -4 -32 3 -35 18 -3 13 3 32 12 36 8 3 20 31 20
44 0 24 -30 75 -48 81 -2 1 -5 5 -8 9 -7 14 0 34 12 34 13 0 40 17 40 25 0 2
1 5 2 7 1 2 1 5 -1 9 -3 7 -9 15 -9 12 0 -1 -1 -1 -2 0 -1 3 -26 9 -27 7 -1
-1 -5 -2 -9 -2 -12 0 -17 6 -20 22 -4 21 -5 23 -12 26 -11 4 -26 2 -35 -4 -11
-8 -25 -8 -32 -1 -5 5 -5 6 -4 19 0 7 2 15 3 17 1 2 4 10 8 18 4 7 9 15 12 18
7 5 24 5 35 0 5 -2 13 -4 24 -4 20 0 29 2 46 10 14 7 15 8 20 18 4 8 5 14 5
20 -1 7 0 9 5 14 l6 6 97 0 c110 0 101 -1 126 18 21 15 33 16 45 5z m577 -96
c9 -8 9 -26 0 -34 -7 -7 -9 -7 -47 -4 -24 2 -26 3 -30 7 -3 5 -3 5 1 11 2 3 8
7 14 10 6 2 16 7 23 10 17 8 31 8 39 0z m-384 -70 c5 -5 5 -15 0 -20 -9 -9
-24 -2 -24 10 0 8 6 14 14 14 3 0 8 -2 10 -4z m535 -10 c3 -3 7 -8 9 -12 10
-16 26 -28 44 -33 14 -4 24 -3 42 6 13 7 19 8 33 7 2 0 6 -3 9 -6 5 -5 6 -7 6
-17 0 -7 -1 -14 -3 -16 -8 -12 -12 -44 -5 -52 4 -5 8 -22 8 -33 0 -15 -4 -19
-20 -17 -28 3 -39 -1 -47 -19 -5 -10 -5 -11 -5 -50 1 -38 1 -39 -3 -43 -11
-11 -25 -3 -22 12 4 16 2 36 -3 44 -3 4 -6 7 -8 8 -2 0 -7 3 -13 7 -5 3 -12 7
-15 9 -22 12 -30 17 -37 24 -14 13 -37 15 -43 3 -3 -6 -3 -19 1 -30 6 -16 4
-25 -6 -35 -5 -5 -10 -9 -11 -9 -1 0 -2 -8 -2 -18 0 -10 1 -18 1 -17 1 0 5 -1
9 -3 4 -2 11 -5 15 -6 12 -3 17 -10 17 -24 0 -7 -1 -13 -3 -14 -2 -2 -2 -5 0
-15 5 -26 7 -27 66 -27 l46 1 6 -5 5 -6 0 -71 c0 -61 -1 -73 -3 -79 -2 -3 -4
-5 -5 -5 -1 1 -2 0 -2 -2 0 -3 -1 -2 -3 2 -2 6 -15 25 -20 30 -1 2 -5 7 -9 11
-10 12 -39 42 -51 51 -5 4 -10 8 -11 9 -6 6 -39 30 -54 38 -4 2 -10 6 -13 9
l-5 5 4 12 c2 7 4 14 5 16 2 5 4 24 3 24 -1 1 -3 5 -6 9 -9 14 -17 21 -34 29
-18 9 -20 12 -20 26 0 11 0 12 24 32 8 7 12 13 15 20 5 14 4 4 5 87 l0 71 6 6
c4 4 8 6 25 8 27 5 35 10 46 31 5 9 11 17 12 19 6 3 14 2 20 -2z m-462 -69 c8
-2 19 -3 58 -3 26 0 48 0 48 1 1 0 4 -2 7 -4 l6 -6 0 -71 c0 -61 0 -73 3 -80
2 -4 4 -8 6 -8 1 0 -1 -3 -5 -6 -3 -3 -8 -6 -10 -6 -3 0 -32 0 -65 -1 l-60 0
-6 6 -6 6 1 81 c1 65 2 82 4 88 2 3 4 6 4 6 1 0 2 2 2 4 0 3 1 3 1 0 1 -2 6
-5 12 -7z m254 -18 c-2 -7 -12 -43 -15 -52 -7 -16 -43 -16 -50 1 -7 16 -2 33
11 41 19 13 28 18 37 21 9 3 9 3 13 -1 4 -3 5 -5 4 -10z m-414 -98 c3 -5 3 -5
0 -10 -2 -3 -5 -5 -7 -5 -2 0 -5 2 -7 5 -3 5 -3 5 0 10 2 3 5 5 7 5 2 0 5 -2
7 -5z m416 -58 c5 -8 1 -16 -8 -16 -9 0 -13 8 -8 16 2 3 5 5 8 5 3 0 6 -2 8
-5z m-98 -15 c8 -3 10 -11 6 -17 -4 -6 -10 -6 -18 -1 -19 11 -9 26 12 18z
m-565 -15 c13 -2 19 -25 11 -44 -2 -5 -13 -9 -23 -10 -19 0 -29 9 -29 28 0 23
14 32 41 26z m269 -18 c12 -7 14 -33 3 -43 -8 -9 -32 -9 -40 0 -9 8 -9 32 0
41 7 7 27 8 37 2z m127 -77 c0 -4 20 -8 36 -8 15 0 17 0 22 -5 l5 -5 -2 -24
c-7 -57 -14 -106 -24 -165 -8 -49 -8 -45 -14 -74 -3 -13 -6 -30 -8 -38 -2 -8
-6 -24 -9 -37 -3 -13 -6 -26 -6 -30 -1 -6 -1 -6 -1 -1 -1 5 -2 5 -5 3 -2 -2
-2 -2 -1 0 1 1 0 2 -1 2 -1 0 -2 1 -1 2 1 1 0 2 -1 3 -1 1 -2 47 -2 137 0 142
0 143 -9 155 -4 6 -22 16 -30 18 -14 3 -20 8 -23 21 -5 18 4 33 22 37 2 0 7 2
11 4 4 2 10 4 13 5 7 1 28 1 28 0z m282 -63 l-5 -5 -4 4 -5 5 4 4 5 5 4 -4 5
-5 -4 -4z m-970 -45 c5 -5 5 -11 0 -16 -10 -10 -27 5 -16 16 4 4 12 4 16 0z
m1360 -5 c3 -1 7 -3 9 -6 3 -4 2 -5 -2 -9 -5 -5 -15 -6 -30 -4 -15 2 -21 8
-15 15 1 2 5 4 7 5 4 2 22 1 31 -1z m-774 -22 l-5 -5 -4 4 -5 5 4 4 5 5 4 -4
5 -5 -4 -4z m323 -3 c11 -7 14 -32 3 -46 -3 -3 -6 -4 -16 -5 -28 -2 -42 -9
-53 -28 -6 -10 -14 -14 -27 -14 -18 1 -27 10 -27 28 0 19 8 26 28 28 25 2 38
9 54 32 6 8 26 11 38 5z m190 -15 c11 -11 4 -35 -9 -35 -8 0 -26 -9 -26 -13 0
-4 -2 0 -9 18 -6 17 8 34 30 35 7 0 10 -1 14 -5z m-543 -43 c1 0 5 -3 8 -6 5
-5 6 -7 6 -18 0 -11 -1 -13 -6 -18 -6 -6 -7 -6 -18 -6 -11 0 -12 0 -18 6 -5 5
-6 7 -6 17 0 14 3 20 12 24 5 2 8 2 22 1z m409 -26 c8 -8 8 -24 -1 -32 -13
-14 -38 -6 -38 12 -1 10 2 19 6 23 7 6 25 5 33 -3z m-994 -11 c4 -2 11 -8 14
-13 6 -7 7 -10 7 -20 0 -11 -1 -13 -6 -18 -6 -6 -7 -6 -21 -6 -16 0 -24 11
-24 36 0 25 9 31 30 21z m1095 -71 c1 -9 3 -30 3 -45 2 -50 8 -63 35 -80 35
-22 61 -25 92 -9 12 6 24 16 24 20 0 3 7 -5 10 -13 1 -3 2 -34 2 -70 0 -64 0
-66 5 -72 4 -7 4 -7 18 -6 9 0 15 -1 16 -2 0 -1 1 0 1 1 0 6 13 33 18 37 4 3
5 3 38 1 41 -3 44 -5 44 -22 0 -12 -6 -20 -15 -20 -21 0 -43 -8 -46 -16 0 -1
-2 -5 -4 -8 -1 -3 -4 -9 -7 -14 -3 -5 -7 -13 -10 -19 -3 -5 -7 -17 -10 -25 -4
-12 -6 -15 -13 -20 -22 -16 -25 -18 -30 -29 -5 -11 -5 -12 -5 -41 l1 -31 -6
-6 -6 -6 -58 1 c-53 0 -58 0 -66 -4 -9 -4 -15 -13 -18 -28 -1 -3 -3 -6 -4 -6
-1 0 -1 -1 1 -2 5 -3 -2 -13 -9 -13 -7 0 -14 10 -9 13 2 1 2 2 1 2 -1 0 -3 3
-4 6 -4 22 -15 31 -37 32 -10 1 -24 5 -26 9 0 0 -4 1 -7 1 -9 0 -8 1 1 2 12 2
29 11 41 23 25 24 25 25 25 139 0 89 0 93 -4 101 -7 15 -18 19 -52 21 -1 0 -5
3 -8 6 -5 5 -6 7 -6 18 0 11 1 13 6 18 3 3 7 6 8 6 34 2 45 6 52 21 4 9 4 12
4 77 0 38 1 71 2 73 1 2 2 3 2 2 0 -2 1 -3 3 -3 2 0 3 2 3 8 1 6 1 6 1 -2 1
-5 2 -17 3 -26z m-191 -52 c12 -11 3 -28 -13 -28 -5 0 -12 0 -15 -1 -12 -2
-16 8 -8 20 8 12 27 17 36 9z m129 -26 c5 -5 5 -15 0 -20 -9 -9 -24 -2 -24 10
0 8 6 14 14 14 3 0 8 -2 10 -4z m-191 -36 c4 -4 4 -5 4 -80 1 -74 2 -91 8 -97
1 -2 7 -3 16 -3 l15 0 0 -10 0 -10 -15 0 c-9 0 -15 -1 -16 -2 -6 -7 -7 -22 -6
-53 1 -45 1 -58 0 -76 -1 -13 -1 -20 3 -32 8 -27 5 -39 -11 -53 -3 -2 -7 -6
-8 -7 -5 -4 -15 -9 -20 -9 -7 0 -11 4 -14 16 -9 30 -17 35 -55 35 l-27 0 -6 6
-6 6 1 106 1 107 5 6 c2 3 4 7 4 8 0 2 1 2 2 1 3 -5 14 1 21 12 4 6 7 11 7 12
0 1 6 7 13 14 7 7 17 18 23 26 23 32 54 80 54 83 0 2 1 2 1 0 1 -2 4 -4 6 -6z
m643 -18 c5 -5 5 -15 0 -20 -9 -9 -24 -2 -24 10 0 8 6 14 14 14 3 0 8 -2 10
-4z m-776 -23 c8 -4 16 -19 17 -30 0 -19 -3 -24 -16 -29 -23 -7 -40 4 -40 27
0 12 3 17 13 28 7 8 16 9 26 4z m-444 -32 c17 -4 23 -36 9 -48 -12 -11 -34
-11 -43 0 -6 7 -8 20 -6 30 5 18 17 23 40 18z m-132 -83 c1 0 5 -3 8 -6 5 -5
6 -7 6 -18 0 -11 -1 -13 -6 -18 -3 -3 -7 -6 -9 -6 -13 -1 -20 0 -24 3 -7 4
-26 5 -34 2 -8 -3 -13 -10 -18 -24 -8 -22 -15 -27 -38 -25 -2 0 -6 3 -9 6 -5
5 -6 7 -6 17 0 11 5 25 10 29 1 1 3 4 6 8 2 3 8 8 12 10 9 4 10 4 31 1 10 -2
24 0 29 5 21 17 21 17 42 16z m787 -19 c7 -7 7 -23 0 -30 -6 -6 -21 -7 -29 -2
-6 5 -6 29 0 34 8 5 23 4 29 -2z m-320 -97 c5 -5 6 -7 6 -16 0 -15 -8 -23 -23
-23 -9 0 -11 1 -16 7 -9 8 -9 23 -1 32 9 9 24 9 34 0z m301 -33 c-4 -5 -5 -5
-9 -1 -6 4 -6 5 0 10 4 4 4 4 9 -1 l4 -4 -4 -4z m477 1 c27 -19 37 -46 24 -60
-13 -13 -40 -5 -61 19 -10 10 -11 34 -1 42 8 8 28 7 38 -1z m-382 -19 c3 -5 3
-5 0 -10 -2 -3 -5 -5 -7 -5 -2 0 -5 2 -7 5 -3 5 -3 5 0 10 2 3 5 5 7 5 2 0 5
-2 7 -5z m-54 -61 c7 -3 17 -12 17 -16 0 -2 -2 -7 -4 -11 -3 -4 -5 -9 -5 -11
-3 -18 -46 -17 -50 2 0 3 -2 6 -3 7 -4 4 -1 19 7 25 9 7 25 9 38 4z m398 -148
c11 -10 3 -28 -11 -28 -9 0 -16 6 -16 16 0 14 17 22 27 12z"/>
<path d="M801 3780 c-11 -6 -14 -8 -18 -17 -9 -19 -5 -38 9 -47 8 -4 25 -7 26
-4 0 1 1 2 2 2 2 0 10 5 31 19 8 6 10 10 10 27 0 12 -1 13 -7 18 -3 3 -7 5 -9
5 -1 0 -9 1 -17 2 -14 1 -16 1 -27 -5z"/>
</g>
</svg>
