<?xml version="1.0" standalone="no"?>
<!DOCTYPE svg PUBLIC "-//W3C//DTD SVG 20010904//EN"
 "http://www.w3.org/TR/2001/REC-SVG-20010904/DTD/svg10.dtd">
<svg version="1.0" xmlns="http://www.w3.org/2000/svg"
 width="1106.000000pt" height="2870.000000pt" viewBox="0 0 1106.000000 2870.000000"
 preserveAspectRatio="xMidYMid meet">
<metadata>
Created by potrace 1.15, written by Peter Selinger 2001-2017
</metadata>
<g transform="translate(0.000000,2870.000000) scale(0.500000,-0.500000)"
fill="#000000" stroke="none">
<path d="M1384 3794 c-1 -1 -2 -8 -4 -16 -3 -18 -5 -22 -16 -27 -10 -4 -12
-10 -12 -27 0 -12 1 -14 6 -20 15 -17 0 -35 -20 -24 -4 1 -8 4 -10 6 -2 2 -27
3 -33 1 -2 -1 -7 -9 -13 -18 -16 -26 -25 -28 -61 -15 l-21 8 -175 0 c-166 0
-174 0 -182 -4 -10 -4 -14 -10 -16 -22 -2 -10 -2 -12 -6 -12 -4 0 -4 2 -6 12
-2 12 -6 18 -16 22 -7 3 -14 4 -80 3 l-72 0 -11 -6 c-6 -4 -14 -10 -17 -15 -6
-8 -7 -10 -7 -23 0 -8 1 -18 2 -23 3 -11 0 -16 -9 -16 -7 0 -13 6 -10 10 1 1
0 11 -2 21 -3 18 -5 21 -12 30 -5 6 -13 13 -19 16 l-11 6 -45 1 c-50 0 -60 -1
-72 -12 -18 -16 -27 -41 -25 -61 2 -16 14 -37 26 -44 l10 -6 70 0 c74 0 71 0
85 9 0 0 1 6 0 14 0 14 0 14 5 14 4 0 4 0 5 -20 1 -19 2 -21 6 -25 4 -3 5 -5
4 -8 -1 -2 -2 -13 -3 -25 -1 -12 -2 -25 -2 -29 0 -4 -1 -14 -2 -22 -1 -8 -2
-23 -3 -34 -1 -11 -2 -27 -3 -36 -1 -9 -2 -18 -2 -21 0 -3 -1 -12 -2 -20 -1
-12 -15 -159 -18 -190 0 -5 -3 -36 -7 -69 -3 -33 -6 -64 -6 -68 -1 -6 -3 -9
-7 -13 l-7 -6 -75 0 -75 0 -22 -8 c-12 -4 -24 -8 -26 -8 -2 0 -14 4 -27 8
l-22 8 -18 -3 c-10 -2 -21 -3 -25 -3 -12 -1 -28 -6 -33 -12 -9 -10 -10 -20 -2
-46 11 -35 19 -48 37 -56 10 -4 12 -4 114 -4 71 0 107 1 113 2 13 3 18 12 20
32 0 2 1 4 2 4 1 0 0 1 -1 2 -10 6 -1 24 11 24 12 0 21 -18 12 -24 -2 -1 -3
-2 -2 -2 1 0 2 -3 3 -6 0 -4 1 -11 3 -16 1 -5 4 -13 5 -17 1 -6 3 -9 6 -9 2 0
2 -1 1 -2 -1 0 -4 -16 -6 -34 -6 -64 -35 -316 -44 -386 -3 -21 -6 -46 -7 -54
-1 -8 -3 -26 -5 -39 -4 -32 0 -45 19 -61 4 -4 10 -9 11 -13 5 -8 4 -24 0 -33
-6 -11 -7 -37 -2 -47 5 -10 5 -27 0 -34 -9 -13 -25 -13 -52 0 l-20 10 -123 0
c-120 0 -123 0 -130 -4 -10 -6 -16 -16 -16 -26 0 -10 4 -16 19 -32 6 -7 12
-14 12 -17 3 -10 13 -29 17 -33 13 -11 32 -14 47 -7 10 4 14 10 17 24 2 5 4
10 5 10 1 0 0 1 -2 3 -4 2 -4 3 0 8 5 6 9 6 14 0 4 -5 4 -6 0 -8 -2 -2 -3 -3
-2 -3 1 0 3 -5 5 -10 3 -14 7 -20 17 -24 8 -4 14 -4 140 -4 l132 1 15 8 c11 6
17 8 24 8 7 0 13 -2 24 -8 l15 -8 79 0 c78 0 79 0 87 5 5 2 11 6 13 9 6 7 19
15 23 15 4 0 14 -6 23 -14 14 -13 26 -16 53 -16 20 1 24 2 43 9 l21 8 21 -8
21 -8 61 -1 c63 0 71 1 81 8 5 5 17 27 17 33 0 4 9 11 15 11 6 0 15 -7 15 -12
0 -4 11 -27 16 -31 10 -9 12 -9 142 -9 80 0 122 1 122 2 0 1 1 2 3 2 2 0 4 2
5 5 2 3 3 4 4 4 1 -1 1 14 -1 22 0 2 1 3 3 3 8 1 -23 6 -33 6 -10 -1 -12 0
-17 6 -9 8 -9 24 -2 31 7 6 14 16 13 19 -1 2 -1 3 1 0 1 -1 3 -2 6 -1 2 0 4 0
4 -1 -1 -3 0 -6 2 -5 2 1 4 -2 3 -5 0 -1 3 -4 7 -7 4 -3 9 -6 12 -8 8 -6 19
-9 38 -9 26 0 29 -2 33 -24 2 -9 9 -25 15 -30 9 -9 15 -10 116 -10 l95 0 10 5
c6 2 12 7 14 10 6 8 15 27 15 30 0 6 10 11 23 11 11 0 13 -1 22 -8 10 -7 10
-7 25 -6 19 1 23 5 23 24 0 9 -1 15 -4 21 -4 8 -32 36 -60 60 -8 7 -18 16 -24
21 -11 10 -49 42 -88 75 -13 11 -36 31 -50 46 -14 14 -27 25 -28 25 -10 1 -26
-1 -29 -3 -4 -2 -18 -24 -106 -158 -11 -17 -14 -20 -23 -24 -8 -4 -12 -5 -15
-3 -3 0 -14 1 -24 1 -12 0 -20 1 -21 2 0 1 -2 0 -4 -2 -2 -2 -3 -3 -2 -1 1 1
0 2 -3 1 -3 0 -7 1 -8 2 -4 3 -31 1 -35 -3 -4 -3 -21 -12 -23 -12 -6 0 -10 10
-9 19 0 4 1 15 2 24 3 37 10 47 32 46 14 -1 19 -4 33 -21 15 -19 17 -21 28
-21 22 0 30 10 31 39 0 8 1 20 1 26 1 12 0 17 -5 28 -3 6 -5 8 -17 22 -9 11
-14 18 -14 21 0 4 10 25 12 25 3 0 22 21 26 29 5 8 7 25 9 79 1 16 2 35 2 43
1 25 3 50 4 77 1 15 2 39 2 53 0 25 0 26 -7 39 l-6 13 -15 1 c-11 0 -15 -1
-18 -3 -1 -2 -4 -3 -5 -3 -2 0 -5 -1 -7 -3 -6 -4 -12 -4 -16 2 -3 6 -2 10 15
67 2 7 10 12 23 13 7 0 16 2 20 4 4 1 7 2 7 2 0 -1 3 1 6 4 8 8 12 19 13 39 1
9 1 25 2 35 0 10 1 26 2 36 1 10 2 36 3 59 1 23 2 50 3 62 2 43 3 53 4 74 1
12 1 28 2 37 10 174 10 193 6 204 -5 14 -13 22 -31 30 -10 5 -16 10 -18 13 -2
4 -5 8 -7 11 -2 2 -2 4 -1 5 1 0 2 1 1 2 -1 1 0 2 1 2 1 0 2 1 1 2 -1 1 0 2 1
2 1 0 4 3 8 6 3 3 8 6 10 6 2 0 10 2 17 5 21 9 28 21 29 47 1 17 5 22 27 30
26 9 58 33 67 50 5 9 5 22 1 31 -3 6 -22 23 -27 24 -2 0 -7 1 -11 3 -4 1 -13
2 -20 2 -25 1 -30 6 -38 40 -3 16 -12 28 -28 40 -5 5 -13 11 -17 15 -11 10
-34 29 -44 37 -5 4 -12 10 -15 13 -12 10 -29 15 -52 15 -15 -1 -21 5 -24 22
-2 7 -4 13 -5 14 -1 0 -2 1 -1 2 1 1 -33 2 -35 0z m100 -150 c8 -8 5 -14 -17
-34 -5 -4 -11 -11 -13 -16 -6 -11 -10 -14 -22 -14 -17 -1 -18 0 -24 6 -5 5 -6
7 -6 18 0 11 1 13 6 18 3 3 7 6 9 6 3 0 25 7 32 10 23 10 30 11 35 6z m-760
-26 c5 -5 5 -11 0 -16 -10 -10 -27 5 -16 16 4 5 11 5 16 0z m106 1 c1 -2 2 -3
2 -4 -1 0 -3 -2 -6 -4 -4 -4 -4 -4 -9 1 -4 4 -4 5 -3 7 3 4 13 4 16 0z m72
-24 c5 -3 7 -6 12 -22 7 -21 5 -24 -19 -29 -9 -2 -12 -2 -21 1 -12 4 -16 10
-17 30 -1 14 -1 14 4 18 3 2 9 4 13 4 4 1 7 2 8 2 1 2 14 -1 20 -4z m260 -6
c3 -3 4 -6 3 -9 0 -2 0 -4 1 -4 1 0 2 -2 2 -4 0 -7 10 -24 18 -28 6 -5 10 -5
44 -6 47 -1 46 0 50 -33 1 -14 -1 -30 -6 -54 -7 -30 -4 -69 6 -81 16 -21 16
-43 0 -61 -9 -10 -16 -28 -17 -44 -1 -14 -3 -55 -4 -70 0 -8 -1 -25 -2 -39 -1
-14 -2 -34 -2 -46 -1 -22 -2 -28 -4 -73 -2 -38 -2 -37 -7 -42 l-5 -5 -169 0
-168 -1 -6 6 -5 6 4 40 c7 59 3 70 -31 88 -22 11 -26 16 -26 28 0 14 6 20 20
19 42 -1 52 7 55 45 1 9 2 18 2 21 1 6 -5 26 -10 32 -1 1 -5 6 -9 10 -12 13
-14 16 -14 29 0 13 1 15 23 32 27 21 31 63 9 91 -8 10 -22 17 -46 22 -23 5
-26 7 -26 23 0 6 1 12 3 14 4 6 18 10 25 7 9 -3 28 -6 35 -5 9 1 19 7 18 9 -1
1 0 2 1 2 2 0 7 15 5 18 -1 1 0 2 1 2 1 0 6 2 10 5 l8 5 79 1 c80 0 80 0 87 5
8 4 18 21 18 28 0 2 1 4 2 4 1 0 1 2 1 4 -2 7 6 14 15 14 5 0 9 -1 12 -5z
m333 -33 c10 -9 3 -26 -10 -26 -12 0 -20 17 -12 26 5 5 17 5 22 0z m-76 -35
c12 -7 14 -33 3 -43 -8 -9 -32 -9 -40 0 -9 8 -9 32 0 41 7 7 27 8 37 2z m-650
-62 c3 -5 3 -5 0 -10 -2 -3 -5 -5 -7 -5 -2 0 -5 2 -7 5 -3 5 -3 5 0 10 2 3 5
5 7 5 2 0 5 -2 7 -5z m727 -42 c2 -2 5 -6 7 -10 2 -3 5 -7 7 -9 2 -2 2 -3 0
-4 -1 0 -2 -1 -1 -2 1 -1 0 -2 -1 -2 -1 0 -2 -1 -1 -2 1 -1 0 -2 -1 -2 -1 0
-4 -3 -8 -6 -8 -9 -26 -9 -34 0 -5 5 -6 7 -6 17 0 16 7 23 22 23 7 0 13 -1 16
-3z m-678 -18 c3 -3 4 -7 4 -14 0 -13 -6 -19 -19 -19 -13 0 -19 6 -19 19 0 8
1 11 5 14 8 7 23 7 29 0z m-112 -95 c5 -6 5 -12 0 -18 -7 -8 -22 -2 -22 9 0
11 15 17 22 9z m636 -87 c3 -3 4 -7 4 -14 0 -13 -6 -19 -19 -19 -13 0 -19 6
-19 19 0 7 1 11 4 14 7 8 23 8 30 0z m-702 -104 l-5 -5 -4 4 -5 5 4 4 5 5 4
-4 5 -5 -4 -4z m737 4 c6 -4 6 -6 6 -20 0 -14 0 -16 -6 -20 -4 -4 -7 -5 -18
-5 -11 0 -14 1 -18 5 -6 4 -6 6 -6 20 0 14 0 16 6 20 4 4 7 5 18 5 11 0 14 -1
18 -5z m-713 -155 c5 -5 5 -15 0 -21 -4 -6 -20 -18 -33 -26 -22 -12 -42 -5
-42 17 0 13 5 18 22 24 31 10 47 12 53 6z m290 -16 c4 -5 4 -5 -1 -10 l-4 -4
-4 4 c-5 4 -5 5 -1 9 4 6 5 6 10 1z m179 -11 c6 -6 7 -18 2 -25 -3 -3 -5 -4
-15 -4 -14 0 -18 4 -18 17 0 10 7 17 18 17 6 0 9 -1 13 -5z m342 -27 c4 -3 5
-7 5 -12 0 -13 4 -28 11 -43 15 -29 7 -51 -19 -52 -19 0 -29 9 -28 28 0 5 1
14 3 18 3 6 4 13 4 32 0 21 1 25 4 29 5 5 14 5 20 0z m-347 -14 c0 -14 1 -18
5 -22 4 -4 1 -4 52 -6 51 -1 54 -2 64 -20 3 -6 6 -10 7 -10 1 0 3 -4 6 -10 5
-10 5 -10 1 -17 -2 -4 -7 -9 -10 -11 -20 -16 -21 -37 -3 -52 16 -13 20 -18 21
-22 2 -6 -4 -13 -15 -19 -12 -6 -22 -17 -25 -27 -3 -9 -3 -15 -8 -104 0 -9 -2
-34 -3 -54 -1 -20 -2 -41 -2 -47 -1 -11 3 -29 6 -29 1 0 2 -1 2 -2 0 -2 6 -8
13 -15 19 -18 18 -25 -3 -41 -22 -17 -25 -25 -27 -64 -1 -29 -2 -37 -5 -92 -1
-21 -2 -41 -2 -46 -1 -8 -2 -11 -6 -15 -5 -5 -6 -5 -42 -5 -40 -1 -49 -3 -71
-18 -12 -8 -31 -14 -41 -14 -11 -1 -19 4 -31 16 -14 13 -25 16 -57 16 -37 0
-46 -3 -57 -22 -11 -17 -17 -22 -25 -22 -8 0 -14 5 -25 22 -8 13 -22 22 -35
22 -9 0 -18 9 -16 17 1 2 2 8 3 12 0 5 3 22 5 38 2 17 5 33 5 37 2 15 11 83
12 91 1 4 3 26 6 47 21 172 28 238 27 256 -3 33 -3 38 5 60 4 14 7 28 9 43 3
33 4 39 6 55 1 8 2 19 2 25 1 8 2 11 7 15 l6 6 105 1 c58 0 106 1 107 1 8 2
11 9 11 26 l0 10 8 0 8 0 0 -10z m237 -22 c11 -10 3 -28 -11 -28 -9 0 -16 6
-16 16 0 14 17 22 27 12z m29 -98 c1 0 5 -3 8 -6 5 -5 6 -7 6 -18 0 -11 -1
-13 -6 -18 -6 -6 -7 -6 -18 -6 -11 0 -12 0 -18 6 -5 5 -6 7 -6 17 0 14 3 20
12 24 5 2 8 2 22 1z m-709 -34 c11 -10 3 -28 -11 -28 -9 0 -16 6 -16 16 0 14
17 22 27 12z m758 -74 c6 -5 7 -16 2 -26 -4 -8 -6 -32 -4 -39 3 -9 16 -25 31
-41 12 -13 13 -15 12 -28 -1 -13 -23 -20 -33 -10 -3 3 -5 6 -5 7 0 2 -11 24
-21 42 -5 10 -7 18 -3 20 5 3 0 36 -7 49 -11 20 10 40 28 26z m-814 -85 c5 -8
1 -16 -8 -16 -9 0 -13 8 -8 16 2 3 5 5 8 5 3 0 6 -2 8 -5z m841 -249 c7 -8 7
-10 2 -21 -4 -9 -8 -12 -16 -13 -19 -2 -26 4 -26 21 0 13 4 19 14 21 10 2 20
-1 26 -8z m-793 -119 c4 -4 5 -7 5 -15 0 -14 -6 -20 -20 -20 -14 0 -20 6 -20
20 0 14 6 20 20 20 8 0 11 -1 15 -5z"/>
<path d="M299 3659 c-8 -3 -10 -5 -26 -20 -15 -14 -17 -14 -35 3 -14 14 -15
14 -25 14 -13 0 -19 -5 -23 -19 -3 -13 -3 -13 5 -38 11 -37 19 -49 38 -57 9
-4 12 -4 57 -4 l47 1 10 6 c20 12 29 42 22 70 -9 35 -40 55 -70 44z"/>
<path d="M53 2162 c-15 -6 -22 -16 -23 -34 -1 -6 13 -52 17 -60 5 -11 16 -20
27 -24 15 -6 52 -6 65 0 9 4 19 14 19 19 0 2 1 3 2 3 3 0 -2 20 -7 30 -8 12
-11 20 -16 34 -8 28 -16 33 -52 33 -15 1 -29 0 -32 -1z"/>
</g>
</svg>
