<?xml version="1.0" standalone="no"?>
<!DOCTYPE svg PUBLIC "-//W3C//DTD SVG 20010904//EN"
 "http://www.w3.org/TR/2001/REC-SVG-20010904/DTD/svg10.dtd">
<svg version="1.0" xmlns="http://www.w3.org/2000/svg"
 width="1100.000000pt" height="2870.000000pt" viewBox="0 0 1100.000000 2870.000000"
 preserveAspectRatio="xMidYMid meet">
<metadata>
Created by potrace 1.15, written by Peter Selinger 2001-2017
</metadata>
<g transform="translate(0.000000,2870.000000) scale(0.500000,-0.500000)"
fill="#000000" stroke="none">
<path d="M995 3853 c-72 -13 -127 -77 -144 -166 -4 -20 -5 -68 -2 -92 4 -42
24 -93 46 -118 2 -3 7 -9 11 -13 9 -10 35 -31 46 -35 4 -2 15 -4 28 -4 14 0
25 -2 32 -5 16 -5 25 -4 42 4 5 2 18 6 28 9 25 6 30 9 45 24 21 21 30 34 43
63 48 105 21 243 -59 303 -34 26 -78 37 -116 30z m-22 -88 c12 -12 3 -31 -13
-31 -11 0 -18 7 -18 18 0 11 7 18 18 18 6 0 9 -1 13 -5z m98 -83 c10 -9 3 -26
-10 -26 -8 0 -15 7 -15 15 0 13 16 20 25 11z"/>
<path d="M1401 3855 c-1 0 -8 -2 -16 -3 -21 -3 -25 -7 -25 -27 0 -13 0 -15 6
-20 7 -7 9 -16 4 -21 -1 -2 -8 -5 -15 -8 -16 -5 -23 -8 -29 -15 -7 -8 -16 -13
-24 -14 -13 -2 -29 -6 -32 -9 -1 0 -3 -2 -5 -3 -21 -12 -32 -107 -18 -168 7
-31 26 -72 42 -90 2 -3 7 -9 11 -13 9 -11 34 -30 48 -37 24 -12 41 -3 51 28 7
20 24 27 43 19 5 -2 16 -14 16 -17 0 -4 12 -15 17 -17 9 -4 24 -2 30 3 13 9
29 27 42 45 7 9 7 11 7 22 -1 15 -8 23 -24 27 -24 7 -29 11 -29 30 0 22 15 32
38 26 22 -5 42 4 47 22 6 20 -2 79 -13 111 -9 26 -31 64 -36 64 -1 0 -1 1 -1
1 2 2 -25 29 -37 37 -13 9 -36 19 -50 23 -11 3 -43 6 -48 4z m96 -87 c4 -6 4
-24 -1 -30 -7 -9 -27 -9 -34 0 -5 6 -5 24 0 30 7 9 27 9 35 0z m-116 -165 c37
-21 33 -70 -4 -68 -17 1 -25 8 -32 28 -7 19 -7 37 0 42 8 8 20 7 36 -2z"/>
<path d="M1789 3853 c-87 -16 -147 -104 -148 -214 0 -44 4 -70 14 -99 26 -69
65 -108 119 -118 6 -1 18 -4 26 -6 26 -7 48 -4 76 9 14 7 19 10 31 19 5 4 25
24 30 30 15 19 34 56 36 70 0 4 1 10 2 14 0 4 3 13 6 19 6 12 6 13 6 53 0 44
-4 67 -13 93 -5 14 -10 17 -26 18 -10 1 -13 1 -19 -3 -12 -8 -17 -9 -26 -9
-16 1 -23 6 -27 20 -4 14 0 25 12 35 11 10 14 17 14 32 -1 12 -3 14 -26 25
-28 13 -59 17 -87 12z m-4 -124 c5 -8 1 -16 -8 -16 -9 0 -13 8 -8 16 2 3 5 5
8 5 3 0 6 -2 8 -5z m153 -154 l-5 -5 -4 4 -5 5 4 4 5 5 4 -4 5 -5 -4 -4z"/>
<path d="M1004 3241 c-48 -18 -100 -38 -115 -44 -15 -6 -34 -13 -42 -16 l-13
-5 -5 6 c-4 4 -5 7 -5 17 0 7 -1 16 -3 20 -4 9 -14 21 -18 21 -2 0 -3 1 -3 2
0 2 -1 2 -49 3 -34 1 -46 1 -58 -2 -20 -4 -37 -4 -56 0 -12 3 -23 3 -48 2 -36
-1 -37 -1 -37 -3 0 -1 -1 -2 -3 -2 -4 0 -14 -12 -18 -21 -4 -9 -4 -67 -1 -78
8 -21 22 -29 66 -36 3 0 7 -1 7 -1 0 -1 2 -3 4 -6 l5 -5 -11 -57 c-15 -75 -15
-87 2 -94 6 -3 10 -3 31 -2 12 0 17 -2 22 -12 l3 -9 17 1 c20 0 20 0 26 26 5
21 11 46 15 65 1 7 4 19 6 27 10 41 13 53 17 57 2 2 5 7 7 12 2 5 4 7 5 6 3
-2 7 -3 18 -4 4 0 13 -2 20 -5 l13 -4 12 -19 c11 -18 25 -33 30 -33 2 0 3 -1
3 -2 0 -1 4 -5 9 -8 4 -3 10 -9 12 -12 4 -6 26 -18 32 -18 5 0 13 -9 15 -17 3
-15 -3 -32 -12 -34 -2 0 -9 -3 -16 -8 -11 -5 -15 -9 -19 -17 l-6 -9 1 -186 c0
-102 1 -187 1 -188 2 -3 3 -34 1 -44 -2 -11 -4 -83 -4 -168 0 -72 0 -73 25
-79 5 -1 11 -1 14 0 28 4 40 -4 40 -26 0 -19 -8 -27 -27 -27 -7 0 -13 1 -14 2
-2 2 -7 4 -12 5 -5 2 -10 3 -11 4 -6 4 -21 4 -47 -1 -36 -6 -45 -12 -54 -31
-5 -13 -6 -69 -1 -81 4 -9 14 -21 18 -21 2 0 3 -1 3 -2 0 -1 1 -1 3 -2 1 0 8
0 14 -1 13 -2 31 2 31 5 0 1 1 2 3 2 5 0 14 15 22 34 4 10 11 15 23 15 12 0
19 -5 23 -15 8 -19 17 -34 22 -34 2 0 3 -1 3 -2 0 -5 19 -6 223 -6 203 0 208
0 216 4 10 5 13 8 14 14 0 2 1 5 2 5 0 1 1 5 1 8 0 4 1 7 3 8 1 0 1 1 -1 1
-10 0 -1 17 8 17 9 0 18 -17 9 -17 -3 0 -3 -1 -1 -1 1 -1 2 -4 2 -8 0 -3 1 -7
1 -8 1 0 2 -3 2 -6 1 -5 10 -12 19 -15 4 -1 30 -2 70 -1 73 0 65 0 246 0 124
-1 141 -1 155 2 12 2 21 3 33 2 31 -2 38 0 47 9 9 10 11 19 11 51 0 35 -3 47
-12 57 -7 7 -24 16 -31 16 -2 0 -6 3 -9 6 -6 6 -6 7 -6 24 0 11 -1 51 -2 91
l-1 72 -6 13 c-4 7 -8 14 -9 16 -5 5 -10 13 -12 22 -3 11 0 21 11 38 16 25 15
0 16 292 1 144 2 265 2 269 1 17 2 174 1 178 -7 20 -18 33 -33 37 -18 4 -14 6
-101 -28 -20 -7 -48 -18 -61 -23 -13 -5 -28 -11 -34 -13 -23 -8 -34 -19 -38
-34 -2 -7 -7 -21 -9 -23 -1 -2 -4 -3 -6 -3 -3 0 -15 5 -18 8 -4 4 -19 10 -26
10 -19 0 -30 -18 -32 -49 -1 -42 10 -60 45 -68 8 -2 14 -5 18 -9 5 -6 6 -10 8
-72 1 -20 2 -42 2 -49 2 -19 2 -497 1 -556 -1 -30 -2 -71 -2 -91 -1 -20 -2
-39 -3 -42 -2 -7 -8 -13 -14 -13 -2 -1 -9 -3 -16 -4 -27 -8 -62 -4 -73 7 -5 5
-5 5 -7 49 0 24 -2 134 -2 243 -1 121 -2 202 -3 207 -2 8 -8 19 -13 24 -1 1
-4 6 -6 11 -4 8 -4 8 0 17 2 4 6 10 7 12 7 7 12 21 13 34 2 28 2 130 1 139 -1
5 -4 15 -6 23 -5 16 -5 25 4 50 l6 18 2 89 c2 97 2 102 -9 117 -6 10 -9 11
-22 11 l-13 -1 -5 -10 c-4 -6 -6 -13 -6 -20 -1 -20 -9 -28 -28 -28 -12 0 -20
4 -29 15 -10 12 -17 16 -30 17 -10 1 -14 0 -42 -11 -17 -6 -39 -17 -49 -23
-23 -14 -29 -16 -51 -19 -19 -3 -46 -13 -57 -21 -12 -9 -18 -23 -19 -46 -2
-44 11 -62 45 -64 33 -3 37 -9 30 -44 -2 -8 -3 -17 -2 -19 0 -3 1 -5 0 -6 0
-1 9 -14 13 -18 2 -1 7 -4 12 -7 20 -12 22 -33 4 -44 -11 -6 -21 -19 -25 -30
-3 -9 -3 -16 -2 -47 1 -36 2 -43 10 -52 2 -4 15 -11 15 -9 0 1 1 1 3 -1 1 -1
8 -2 14 -3 16 -2 21 -7 21 -20 0 -13 -5 -18 -19 -20 -17 -2 -29 -6 -36 -14 -6
-6 -7 -17 -7 -170 -1 -85 -1 -154 -2 -154 -1 0 -1 -14 -1 -33 0 -18 0 -53 -1
-78 0 -25 0 -47 1 -50 1 -5 0 -6 -6 -11 -4 -3 -9 -6 -12 -6 -2 -1 -9 -3 -16
-4 -15 -5 -43 -5 -56 0 -6 1 -11 2 -11 2 0 -1 -3 1 -6 5 -6 6 -6 7 -6 28 0 11
-1 28 -1 36 -1 8 -1 129 -2 269 -1 172 -2 257 -3 263 -2 5 -5 10 -8 13 -7 5
-26 12 -34 11 -4 0 -21 9 -27 16 -2 1 -8 5 -15 8 -13 7 -18 11 -23 19 -2 6 -2
6 2 10 2 3 5 5 7 6 2 1 20 -7 33 -16 4 -2 12 -6 17 -8 6 -2 10 -4 10 -5 0 -2
19 4 26 8 2 1 6 6 9 11 6 10 5 -5 10 207 l3 131 -4 13 c-6 17 -17 28 -31 31
-18 5 -20 4 -111 -30z m-255 -84 c3 -5 3 -6 0 -12 -4 -8 -9 -8 -15 -1 -5 6 -5
8 -1 14 4 6 12 5 16 -1z m710 -92 c8 -9 1 -29 -12 -37 -20 -11 -40 -2 -40 18
0 8 2 11 5 15 11 11 39 14 47 4z m-450 -127 c3 -3 6 -8 8 -12 3 -6 3 -7 -3
-12 -5 -5 -6 -6 -13 -4 -11 3 -17 9 -17 17 0 13 17 20 25 11z m485 -59 c3 -3
4 -7 4 -14 0 -13 -6 -19 -19 -19 -13 0 -19 6 -19 19 0 7 1 11 4 14 7 8 23 8
30 0z m242 -364 l-5 -5 -4 4 -5 5 4 4 5 5 4 -4 5 -5 -4 -4z m-381 -70 c18 -7
29 -22 29 -39 0 -6 -7 -12 -18 -15 -3 -1 -15 -6 -28 -12 -23 -12 -26 -12 -33
-6 -3 3 -3 5 -2 11 2 10 2 9 9 30 3 10 6 19 6 21 0 2 2 5 5 8 6 6 17 7 32 2z
m95 -51 c1 0 5 -3 8 -6 5 -5 6 -7 6 -18 0 -11 -1 -13 -6 -18 -6 -6 -7 -6 -18
-6 -11 0 -12 0 -17 5 -10 8 -13 37 -4 37 2 0 3 1 3 2 0 2 11 5 19 5 3 -1 7 -1
9 -1z m354 -57 l-5 -5 -4 4 -5 5 4 4 5 5 4 -4 5 -5 -4 -4z m-471 -76 c3 -3 3
-4 0 -25 -1 -11 -3 -28 -3 -37 -1 -24 -3 -33 -10 -39 -7 -6 -7 -6 -13 -2 -3 1
-7 6 -8 10 -2 4 -4 9 -5 10 -1 2 -2 5 -2 6 0 2 -1 5 -3 8 -5 10 -5 17 0 22 2
2 5 3 6 3 0 -1 1 1 2 4 1 3 2 7 3 8 1 1 4 8 7 16 3 7 7 15 9 17 4 4 12 4 17
-1z m484 -88 c12 -7 14 -33 3 -43 -8 -9 -32 -9 -40 0 -9 8 -9 32 0 41 7 7 27
8 37 2z m-153 -29 c5 -5 5 -11 0 -16 -10 -10 -27 5 -16 16 4 4 12 4 16 0z"/>
<path d="M22 3244 c-3 -1 -6 -1 -7 0 0 0 -1 0 -1 -2 0 -1 -1 -2 -3 -2 -1 0 -4
-2 -7 -5 -4 -4 -4 -6 -4 -57 l0 -52 8 -6 c4 -3 12 -7 17 -8 15 -4 19 -6 26
-17 8 -11 15 -19 25 -24 3 -2 8 -7 10 -10 4 -6 4 -7 1 -13 -2 -3 -3 -7 -3 -8
0 -2 -1 -4 -3 -6 -2 -2 -4 -9 -6 -15 -3 -12 -3 -13 4 -41 7 -28 9 -37 13 -52
4 -10 17 -23 32 -28 24 -9 26 -17 9 -36 -7 -8 -12 -15 -14 -22 -3 -11 -2 -19
8 -55 1 -4 2 -9 2 -10 1 -5 13 -56 15 -63 2 -6 9 -34 13 -51 10 -43 14 -58 16
-65 2 -5 3 -13 4 -18 1 -5 3 -11 5 -14 2 -3 4 -7 4 -8 0 -1 1 -2 2 -2 0 0 1
-5 2 -11 1 -19 1 -21 17 -86 3 -11 6 -22 6 -25 1 -5 12 -50 15 -61 1 -4 4 -17
7 -28 3 -11 6 -21 6 -23 0 -2 1 -5 2 -8 2 -10 12 -49 13 -56 1 -4 5 -18 8 -31
3 -13 6 -25 7 -27 0 -2 3 -13 6 -26 3 -13 7 -27 8 -32 3 -9 5 -21 5 -25 1 -5
10 -21 17 -27 13 -14 18 -14 97 -14 l71 1 10 5 c14 7 21 18 28 45 8 37 13 56
14 62 0 3 2 8 3 12 1 3 2 9 3 12 0 3 1 10 3 14 1 4 2 10 3 13 0 3 2 9 3 13 1
4 2 10 3 13 0 3 3 17 7 31 6 25 9 39 15 66 5 24 9 38 13 55 2 9 5 26 5 37 1
29 4 40 17 64 1 1 3 9 5 16 1 6 9 38 16 70 14 62 18 81 16 94 -1 8 3 18 7 16
1 -1 2 0 2 2 0 2 1 5 2 7 1 3 3 10 7 29 0 2 2 8 3 12 1 4 2 10 3 13 0 3 2 11
4 19 1 8 3 16 4 19 0 3 4 16 7 30 9 33 8 53 -1 59 -7 4 -18 4 -26 -1 -8 -5
-22 -6 -29 -2 -6 3 -25 2 -34 -2 -11 -6 -17 -22 -27 -71 -8 -42 -8 -45 -3 -56
5 -11 13 -17 30 -24 13 -5 15 -6 18 -14 4 -9 7 -25 4 -25 0 0 -2 -3 -4 -6 -12
-29 -22 -38 -37 -38 -8 0 -25 -4 -32 -9 -8 -5 -12 -19 -19 -55 -7 -40 -8 -44
-14 -44 -5 0 -6 4 -9 25 -1 6 -3 17 -4 26 -1 9 -4 23 -5 31 -4 25 -6 40 -8 52
-1 6 -2 16 -3 21 -1 6 -2 11 -2 13 0 2 -1 8 -2 13 -1 6 -2 11 -2 13 0 2 -1 8
-2 13 -1 6 -2 11 -2 13 0 2 -1 7 -2 12 -1 5 -2 14 -3 21 -1 7 -3 16 -3 21 -1
5 -2 10 -2 12 -1 1 -2 8 -2 14 -1 6 -2 12 -2 14 -1 2 -2 7 -2 11 -1 4 -2 13
-3 20 -1 7 -3 19 -4 27 -1 8 -4 22 -5 31 -2 9 -3 21 -4 27 -2 18 -4 23 -12 38
-2 3 -5 11 -6 16 -3 11 -3 12 0 47 1 5 3 12 5 15 4 6 4 6 42 9 11 1 29 10 35
17 7 10 9 20 9 53 0 34 -2 41 -13 53 -5 5 -7 6 -16 6 -10 0 -11 -1 -21 -10
-14 -14 -19 -16 -27 -13 -3 2 -10 7 -14 12 -17 17 1 16 -205 16 -101 1 -185 0
-188 -1z m255 -57 c3 -5 3 -5 0 -10 -2 -3 -5 -5 -7 -5 -2 0 -5 2 -7 5 -3 5 -3
5 0 10 2 3 5 5 7 5 2 0 5 -2 7 -5z m9 -300 c3 -3 4 -7 4 -14 0 -13 -6 -19 -19
-19 -13 0 -19 6 -19 19 0 7 1 11 4 14 7 8 23 8 30 0z m-39 -136 c3 -3 3 -3 0
-6 -4 -5 -11 1 -7 6 4 4 4 4 7 0z m53 -161 c6 -7 5 -23 -1 -29 -7 -7 -40 -14
-61 -13 -7 0 -15 8 -17 15 -2 7 3 21 8 24 4 3 29 9 41 9 14 2 26 -1 30 -6z
m58 -122 c5 -4 12 -17 12 -22 0 -4 6 -11 17 -19 22 -16 22 -29 2 -53 -11 -14
-18 -17 -34 -16 -14 0 -21 24 -10 37 3 5 4 8 4 22 0 15 0 17 -6 24 -8 10 -9
19 -3 25 5 5 14 5 18 2z m43 -287 c3 -3 3 -3 0 -6 -4 -5 -11 1 -7 6 4 4 4 4 7
0z"/>
</g>
</svg>
