<?xml version="1.0" standalone="no"?>
<!DOCTYPE svg PUBLIC "-//W3C//DTD SVG 20010904//EN"
 "http://www.w3.org/TR/2001/REC-SVG-20010904/DTD/svg10.dtd">
<svg version="1.0" xmlns="http://www.w3.org/2000/svg"
 width="1116.000000pt" height="2870.000000pt" viewBox="0 0 1116.000000 2870.000000"
 preserveAspectRatio="xMidYMid meet">
<metadata>
Created by potrace 1.15, written by Peter Selinger 2001-2017
</metadata>
<g transform="translate(0.000000,2870.000000) scale(0.500000,-0.500000)"
fill="#000000" stroke="none">
<path d="M1679 3824 c-4 -3 -9 -6 -11 -7 -2 -1 -11 -7 -20 -11 -26 -14 -38
-21 -50 -32 -6 -5 -15 -12 -20 -16 -5 -4 -9 -7 -10 -8 -1 -1 -5 -4 -10 -8 -5
-4 -10 -8 -11 -9 -1 -1 -5 -4 -8 -6 -3 -2 -19 -14 -35 -26 -16 -12 -33 -25
-38 -28 -13 -9 -21 -32 -18 -48 2 -11 0 -21 -5 -32 -6 -12 -9 -27 -9 -37 1 -7
3 -10 10 -18 11 -12 15 -12 41 -9 l9 2 12 -13 c12 -13 25 -20 36 -20 7 0 40 4
69 9 9 1 20 3 25 4 5 1 14 2 21 3 7 1 14 3 17 3 29 5 79 15 106 20 38 8 53 9
77 3 36 -9 82 -2 100 16 16 15 20 31 12 48 -6 14 -9 17 -27 32 -5 4 -9 7 -10
8 -2 2 -50 42 -57 48 -3 3 -11 9 -17 15 -7 5 -15 12 -19 14 -5 2 -15 11 -23
19 -13 13 -39 36 -57 50 -3 3 -10 8 -15 13 -27 24 -29 25 -44 25 -9 0 -15 -1
-21 -4z m123 -122 c2 -2 3 -7 3 -19 0 -14 0 -16 -6 -20 -4 -4 -7 -5 -18 -5
-11 0 -14 1 -18 5 -6 4 -6 6 -6 20 0 13 1 16 4 19 8 8 33 8 41 0z m-101 -50
c5 -5 6 -7 6 -16 0 -15 -8 -23 -23 -23 -9 0 -11 1 -16 7 -9 8 -9 23 -1 32 9 9
24 9 34 0z"/>
<path d="M883 3821 c-1 -1 -2 -2 -3 -2 -1 0 -3 -1 -3 -1 -1 0 -2 -7 -2 -14 1
-15 1 -15 8 -22 23 -19 21 -16 21 -29 0 -13 -6 -21 -14 -21 -17 -1 -33 -5 -41
-11 -9 -5 -13 -13 -25 -44 -25 -64 -54 -124 -70 -142 l-6 -6 -26 0 c-15 0 -30
1 -34 2 -13 2 -35 19 -45 33 l-8 13 -17 0 -17 1 -4 -10 c-2 -5 -5 -13 -7 -17
-10 -32 -21 -58 -27 -62 -11 -7 -63 -7 -63 1 0 1 -2 3 -4 4 l-5 2 5 0 c2 0 4
1 4 2 0 0 4 6 10 11 5 6 15 17 22 25 7 8 19 21 27 30 15 16 19 23 24 40 2 7 6
15 12 21 7 8 9 9 19 10 6 1 15 1 21 2 20 2 42 17 57 39 10 15 11 19 9 31 -2
13 -10 22 -29 31 -25 12 -40 14 -57 6 -11 -5 -12 -5 -10 -2 1 1 0 2 -1 2 -1 0
-2 2 -3 5 -1 5 -19 19 -30 22 -4 2 -15 4 -23 4 -20 1 -26 4 -36 19 -12 19 -16
23 -29 23 -13 0 -21 -5 -26 -15 -3 -7 -8 -26 -10 -37 0 -3 -1 -8 -2 -11 -4
-16 2 -32 20 -48 l12 -12 0 -14 c0 -14 -1 -17 -10 -36 -13 -26 -17 -30 -30
-26 -9 3 -29 1 -36 -2 -5 -3 -13 -12 -13 -16 0 -3 -27 -56 -31 -60 -5 -5 -4
-24 2 -41 5 -14 5 -15 2 -20 -4 -6 -10 -6 -15 -1 -6 5 -6 13 -1 29 3 7 4 11 2
11 -1 0 -1 1 0 2 5 3 4 15 -2 22 -5 5 -3 148 1 157 3 6 9 10 18 11 3 1 5 1 6
2 1 1 3 3 6 4 6 4 9 16 7 26 l-1 6 -15 0 c-8 0 -15 1 -17 2 -1 1 -2 1 -1 1 0
-1 0 -3 -1 -5 -2 -3 -5 -20 -5 -27 0 -2 0 -3 -1 -3 -3 0 -7 -4 -9 -9 -2 -3 -3
-3 -5 0 -2 2 -5 5 -7 8 -3 2 -7 11 -9 20 -15 54 -52 68 -79 30 -11 -16 -16
-20 -29 -20 -11 0 -19 5 -22 13 -3 5 -10 13 -10 11 0 -1 -1 -1 -2 0 -2 1 -23
2 -27 1 -1 0 -3 0 -3 0 -3 0 -5 -14 -3 -31 1 -17 7 -34 12 -36 4 -2 11 -14 11
-19 0 -12 -10 -23 -25 -25 -9 -2 -29 -14 -34 -20 -9 -12 -9 -16 -9 -91 0 -76
1 -83 11 -94 3 -4 26 -16 30 -16 3 0 9 -9 9 -13 0 -3 -17 -21 -21 -21 -1 0 -5
-3 -8 -6 -15 -12 -18 -39 -5 -43 8 -3 24 -4 24 -3 0 1 5 2 11 2 15 0 21 -5 21
-20 0 -15 -6 -20 -21 -20 -6 0 -11 1 -11 2 0 1 -2 1 -6 -1 -6 -3 -6 -3 -12 -3
-2 0 -4 -1 -3 -2 1 -1 0 -2 -1 -2 -1 0 -5 -7 -5 -10 0 -1 1 -5 2 -11 0 -5 1
-10 2 -11 7 -12 2 -45 -8 -56 -3 -3 -6 -8 -7 -12 -1 -4 -2 -50 -2 -113 0 -105
0 -106 4 -113 3 -4 6 -8 8 -9 5 -5 24 -10 33 -9 12 0 19 -6 19 -18 0 -12 -7
-18 -19 -18 -10 1 -29 -5 -35 -10 -10 -10 -10 -12 -10 -69 l1 -52 8 -19 c5
-11 9 -21 9 -22 0 -1 -4 -11 -8 -22 -14 -31 -13 -57 1 -69 6 -4 19 -11 22 -11
1 0 5 -3 8 -6 l5 -5 -6 -6 c-3 -3 -6 -5 -7 -5 -3 0 -16 -7 -22 -11 -10 -9 -10
-3 -11 -191 l-1 -175 -5 -11 c-3 -7 -6 -12 -7 -12 -1 0 -23 -22 -37 -37 -14
-16 -16 -19 -16 -29 0 -18 4 -22 30 -39 31 -19 39 -20 62 -13 20 7 23 5 28
-18 4 -17 10 -28 20 -35 5 -4 10 -7 11 -7 1 0 4 -2 8 -5 10 -8 24 -7 42 2 9 4
16 7 18 7 3 0 8 -8 8 -15 0 -3 2 -9 4 -13 l3 -8 13 1 c12 0 25 6 25 11 0 1 4
9 10 17 21 35 24 41 24 46 0 2 0 7 1 11 1 5 1 7 -4 11 -2 3 -6 5 -7 5 -1 0 -2
1 -2 2 0 2 -15 9 -27 12 -8 3 -29 2 -34 -1 -1 -1 -7 -5 -14 -7 -30 -13 -54 4
-47 33 3 11 7 15 29 23 10 3 20 7 22 8 20 9 28 10 46 6 30 -7 45 2 50 32 0 1
2 4 4 7 3 6 4 6 9 5 2 -1 7 -1 11 0 4 1 14 1 25 -1 14 -1 19 -1 20 1 0 1 3 2
6 2 7 0 30 17 38 28 3 5 8 14 10 20 6 17 12 23 25 28 29 11 33 14 54 39 19 23
20 25 20 38 0 10 -2 14 -8 26 l-8 13 3 19 c3 27 -1 39 -14 42 -7 2 -24 2 -37
0 -7 -1 -11 -1 -12 1 -2 3 -21 3 -31 0 -20 -5 -27 -36 -17 -70 8 -28 5 -36
-20 -48 -20 -9 -28 -16 -39 -32 -4 -6 -12 -17 -18 -25 -7 -8 -12 -15 -12 -17
0 -4 -14 11 -18 20 -3 5 -10 14 -18 22 -14 14 -14 14 -14 25 0 9 1 11 6 16 18
17 24 23 26 28 5 13 0 29 -14 44 -17 17 -21 36 -12 52 9 17 4 42 -11 53 -6 5
-8 9 -11 20 -1 8 -1 9 4 14 3 3 10 7 17 9 19 5 33 24 33 43 0 11 -7 25 -16 34
-16 16 -16 28 0 44 8 8 16 23 16 31 0 11 -7 29 -12 32 -4 2 -7 3 -8 2 -2 -1
-2 -1 -1 0 1 3 -4 6 -8 5 0 0 0 2 1 4 3 5 3 7 0 5 -2 -1 8 17 10 19 1 1 3 5 5
10 4 9 8 14 18 17 6 2 7 2 8 0 0 -2 5 -5 10 -8 9 -4 14 -4 51 -5 47 -1 89 -8
97 -16 7 -6 6 -16 0 -22 -3 -3 -5 -5 -6 -4 0 1 -29 -13 -29 -15 0 -1 -2 -4 -4
-6 -2 -3 -4 -9 -5 -14 -3 -20 15 -37 40 -40 17 -2 17 -2 22 -7 4 -5 5 -9 1
-22 -3 -9 -8 -13 -20 -15 -12 -1 -30 -8 -33 -12 -7 -9 -11 -21 -12 -38 -2 -26
-3 -40 -5 -56 -4 -25 5 -40 25 -44 39 -9 50 -9 67 0 17 9 29 10 42 2 7 -4 12
-5 22 -5 21 -1 25 4 37 48 l8 26 -4 12 c-1 6 -6 16 -10 23 -5 8 -7 14 -7 20 0
9 0 9 23 31 4 4 10 12 12 18 9 20 11 76 3 76 -1 0 -2 1 -2 3 0 2 -2 4 -3 4 -2
1 -4 2 -5 3 -2 3 -22 10 -29 10 -15 0 -22 26 -9 39 5 5 7 5 18 5 7 0 18 -1 25
-2 7 -1 25 -2 41 -2 51 0 70 -8 70 -29 0 -8 -2 -12 -15 -26 -14 -15 -16 -20
-17 -52 0 -28 0 -30 6 -51 4 -13 6 -26 6 -30 0 -10 7 -36 13 -45 7 -12 10 -23
7 -33 -3 -13 -6 -15 -24 -28 -16 -10 -24 -18 -43 -38 -10 -11 -11 -11 -26 -19
-14 -7 -19 -14 -19 -28 0 -13 3 -20 9 -22 11 -3 37 1 37 5 0 1 1 2 2 2 2 0 4
2 7 3 3 3 7 4 21 4 16 0 18 0 23 -5 8 -8 2 -26 -12 -35 -11 -7 -19 -14 -19
-18 0 -2 -1 -3 -2 -3 -1 0 -2 -6 -2 -13 l0 -13 21 -28 c12 -15 23 -28 24 -30
2 -1 3 -3 3 -4 0 0 3 -4 7 -8 3 -4 8 -10 10 -13 11 -16 19 -22 30 -23 18 -1
22 2 40 27 3 5 17 20 30 34 36 38 39 42 42 48 5 8 4 24 0 29 -8 9 -22 9 -43 1
-21 -8 -27 -12 -41 -25 -12 -11 -15 -12 -22 -12 -11 0 -17 6 -17 17 0 8 1 10
9 16 4 4 9 7 11 7 1 0 2 1 2 2 0 1 1 2 2 2 3 0 14 10 20 20 8 11 11 14 27 20
12 5 18 10 21 17 3 7 3 23 1 28 -6 11 -5 30 3 37 8 9 32 9 40 0 10 -10 9 -32
-3 -44 -7 -8 -17 -26 -17 -33 0 -12 12 -23 28 -26 4 -1 7 -2 8 -2 3 -2 35 14
42 21 8 7 18 18 38 42 6 7 18 21 26 30 39 46 38 43 38 56 0 20 -20 57 -33 59
-2 0 -4 1 -4 1 0 1 -8 2 -13 2 -4 0 -47 -16 -73 -28 -8 -4 -22 -4 -29 0 -5 3
-12 16 -12 23 0 3 5 14 10 25 13 25 14 34 7 65 -5 23 -11 37 -17 44 -2 2 -4 4
-4 5 0 1 -6 4 -14 9 -18 9 -21 13 -21 25 0 13 7 21 20 23 4 1 8 2 10 2 5 4 47
13 56 13 6 0 13 1 17 2 7 2 18 11 19 16 0 2 1 4 1 5 3 4 5 16 4 27 0 9 0 11 6
16 6 6 7 6 18 6 3 0 7 0 9 0 4 0 16 -11 20 -19 1 -4 9 -13 16 -20 11 -13 14
-15 24 -17 7 -2 11 -2 14 0 4 1 5 1 9 -8 4 -11 4 -11 4 -81 -1 -69 -1 -71 3
-76 7 -9 21 -15 38 -16 23 -1 30 -7 30 -27 0 -22 -9 -28 -38 -26 -7 1 -22 -2
-28 -6 -10 -6 -14 -16 -16 -37 -1 -17 -9 -92 -12 -110 -5 -37 -10 -67 -14 -84
0 -2 -3 -17 -6 -34 -10 -56 -11 -62 -15 -72 -2 -6 -6 -15 -8 -22 -6 -14 -12
-21 -19 -19 -2 0 -9 5 -16 10 -7 5 -21 15 -33 23 -12 7 -21 14 -22 15 -1 1 -5
4 -11 8 -5 4 -12 10 -13 12 -5 5 -18 9 -29 7 -10 -2 -16 -7 -26 -21 -18 -26
-40 -53 -47 -57 -6 -3 -13 -4 -34 -5 -26 -1 -28 -2 -33 -6 -7 -7 -11 -30 -6
-36 2 -1 3 -4 3 -6 3 -41 6 -46 44 -65 l19 -10 76 -1 c84 -1 89 -1 114 12 16
8 31 8 38 1 6 -6 6 -2 2 -45 -2 -15 1 -27 9 -38 8 -11 13 -13 28 -13 l14 1 9
10 c6 6 12 13 15 16 2 3 8 9 12 14 4 5 8 10 9 11 3 2 16 20 22 28 2 3 7 10 12
16 4 5 11 17 14 25 4 8 11 19 16 24 4 4 10 12 13 18 12 20 23 41 26 48 1 3 3
6 4 6 2 0 2 4 1 11 -1 13 -1 14 -9 30 -8 17 -9 29 -2 36 3 3 7 5 9 5 3 0 8 1
13 3 25 9 31 15 42 48 7 21 8 28 7 34 -2 12 -10 23 -19 29 -4 3 -8 7 -9 9 -1
1 -2 3 -3 3 -3 0 -2 15 2 19 2 3 6 5 9 6 3 1 12 4 20 8 21 10 30 25 31 51 0 6
1 12 2 14 3 5 3 5 9 54 5 45 8 73 10 103 1 11 2 24 2 30 3 37 4 95 4 181 l0
99 6 6 c6 6 7 6 23 6 26 0 36 8 52 38 5 10 11 13 28 14 17 1 35 6 46 12 13 8
29 7 38 -1 6 -6 6 -6 6 -20 -1 -17 -7 -24 -19 -24 -9 0 -32 -5 -39 -9 -3 -2
-9 -4 -12 -6 -3 -2 -7 -6 -8 -9 -3 -9 -3 -39 0 -41 3 -3 -3 -12 -15 -22 -5 -4
-9 -9 -9 -10 0 -2 -1 -3 -2 -3 -4 0 -6 -18 -6 -55 0 -51 2 -57 28 -74 17 -11
16 -10 20 -30 3 -17 3 -17 0 -22 -2 -3 -5 -5 -6 -5 0 1 -3 0 -6 -2 -3 -1 -7
-2 -10 -3 -8 -2 -15 -8 -21 -20 l-5 -11 0 -60 c0 -53 0 -62 4 -76 5 -21 5 -31
0 -52 -4 -14 -4 -23 -4 -76 0 -64 1 -69 12 -79 5 -5 26 -15 31 -15 2 0 6 -3 9
-6 5 -5 6 -7 6 -17 0 -5 -1 -11 -1 -12 -6 -5 -2 -36 4 -41 2 -1 3 -3 3 -4 0
-1 2 -5 5 -9 5 -7 11 -19 11 -22 0 -2 1 -3 2 -3 1 0 2 -1 1 -2 -1 -2 5 -5 7
-4 3 0 16 -17 16 -20 0 -7 -7 -13 -13 -11 -6 1 -17 11 -17 15 0 4 -5 8 -19 15
-6 3 -13 8 -15 11 -2 2 -4 4 -4 3 0 -1 -4 -2 -10 -2 -5 0 -10 0 -10 -1 0 -1
-1 -1 -2 -1 -4 1 -11 -5 -14 -13 -3 -10 -3 -161 0 -173 4 -12 15 -21 32 -28
17 -6 23 -11 25 -18 1 -3 3 -9 5 -14 9 -20 11 -40 5 -64 -3 -14 -3 -14 1 -26
9 -25 29 -34 59 -28 35 8 41 11 76 32 4 3 14 8 22 12 19 10 30 21 38 37 l6 13
1 114 c0 127 0 128 -12 135 -8 4 -27 8 -29 6 -1 -1 -6 -3 -10 -4 -13 -2 -23 3
-33 19 -8 14 -19 27 -23 27 -3 0 -15 14 -15 17 0 1 2 4 5 7 5 5 8 5 23 -3 11
-6 22 -8 39 -10 7 -1 13 -2 14 -3 2 -2 21 2 29 6 11 6 12 14 12 57 -1 32 -2
37 -6 45 -2 6 -4 11 -4 12 0 1 -7 2 -15 2 l-15 0 -8 -8 c-7 -7 -8 -11 -13 -29
-10 -39 -20 -39 -38 -1 -9 21 -12 30 -14 45 0 6 -2 17 -4 25 -6 27 -2 36 14
36 10 0 16 -6 26 -23 l7 -12 14 -1 14 -1 10 10 c6 5 10 10 10 11 0 1 2 4 5 7
3 3 8 11 11 17 5 11 5 11 6 61 0 54 1 51 -13 80 -5 10 -11 25 -13 33 -3 8 -6
21 -9 28 -6 22 -5 26 11 36 24 14 31 49 15 72 -6 7 -12 10 -36 20 -18 7 -20 8
-27 19 -9 11 -9 29 0 37 3 3 7 6 9 6 11 1 19 0 22 -2 3 -2 27 3 32 8 9 8 9 12
9 72 l-1 57 6 6 6 6 62 0 c57 0 63 0 72 4 26 10 51 43 48 64 -2 17 -7 24 -17
29 -6 2 -11 4 -12 4 -4 0 -20 17 -24 26 -3 5 -6 10 -8 11 -2 1 -4 2 -4 3 0 1
-4 4 -9 8 -5 3 -10 7 -11 9 -2 1 -8 5 -13 9 -6 5 -11 9 -12 10 -1 0 -6 4 -10
7 -4 3 -8 6 -9 7 -1 1 -12 10 -26 20 -14 10 -26 20 -28 21 -16 14 -30 26 -39
35 -9 9 -11 9 -21 10 -17 0 -22 -2 -35 -21 -7 -9 -13 -19 -15 -21 -4 -6 -28
-38 -45 -62 -8 -12 -16 -22 -16 -23 -1 -1 -4 -5 -7 -9 -3 -4 -9 -10 -14 -12
-9 -5 -10 -5 -89 -6 l-80 0 -13 5 c-7 3 -13 7 -14 7 -1 1 -12 8 -25 16 -22 13
-38 19 -53 20 -6 0 -12 10 -12 20 0 19 14 25 37 16 10 -4 29 -7 36 -6 2 0 6 2
9 4 3 2 6 4 7 4 3 0 11 12 15 20 4 8 4 13 4 95 0 99 -1 108 -14 133 -9 15 -26
35 -33 37 -6 2 -22 2 -25 0 -2 -1 -4 -2 -5 -2 -1 0 -2 -1 -2 -2 0 -2 -1 -3 -1
-3 -1 -2 -2 -11 -2 -25 0 -19 -4 -25 -18 -25 -13 0 -17 6 -19 26 -1 16 -5 35
-10 44 -3 6 -2 20 1 28 6 15 38 17 50 3 6 -8 29 -12 38 -8 5 2 9 12 9 26 0 17
-10 31 -31 49 -6 4 -37 14 -45 14 -5 0 -17 -2 -28 -5 -28 -7 -34 -6 -48 14
-12 15 -15 18 -28 25 -11 6 -21 7 -32 3 -6 -3 -15 -12 -15 -17 0 -2 -1 -4 -2
-5 -1 -1 -2 -18 -2 -44 0 -41 0 -42 -5 -52 -5 -10 -6 -10 -12 -9 -4 0 -11 -2
-20 -6 -21 -10 -40 -8 -45 5 -1 3 -2 13 -2 22 -1 22 -4 33 -12 42 -3 4 -6 8
-6 8 0 5 7 15 11 18 13 6 35 33 36 44 1 8 -4 26 -10 31 -4 4 -18 11 -135 70
-53 27 -59 30 -69 30 -6 0 -11 -1 -12 -1z m-279 -108 c0 -3 2 -6 3 -6 4 -2 4
-14 -1 -19 -9 -9 -24 -2 -24 10 0 3 1 7 3 8 2 1 3 4 3 5 0 2 1 3 3 3 2 0 4 1
4 3 2 5 8 3 9 -4z m-381 -61 c11 -10 3 -28 -11 -28 -10 0 -16 6 -16 17 0 14
17 20 27 11z m325 -8 c2 -2 4 -5 3 -6 -1 -1 0 -2 1 -2 3 0 -2 -10 -6 -13 -8
-7 -22 0 -22 11 0 12 15 19 24 10z m453 -56 c-1 -10 -4 -20 -23 -62 -14 -32
-19 -36 -45 -36 -15 -1 -17 0 -24 4 l-7 5 14 13 c7 8 17 20 22 27 10 17 14 22
29 33 6 4 15 12 21 17 12 12 15 12 13 -1z m-136 0 c7 -6 7 -19 1 -25 -6 -7
-19 -7 -25 -1 -7 6 -7 19 -1 25 6 7 19 7 25 1z m387 -67 c10 -13 2 -29 -13
-29 -15 0 -23 18 -13 29 7 7 20 7 26 0z m-560 -61 c5 -5 5 -11 0 -16 -10 -10
-27 5 -16 16 4 4 12 4 16 0z m61 -1 c3 -3 3 -3 0 -6 -4 -5 -11 1 -7 6 4 4 4 4
7 0z m-267 -19 c11 -6 15 -31 7 -40 -2 -2 -4 -8 -4 -18 -1 -13 -1 -14 6 -28 4
-9 7 -17 7 -19 0 -7 -9 -24 -18 -32 -17 -16 -36 -50 -39 -70 -1 -4 -2 -9 -2
-13 -2 -11 -6 -15 -23 -24 -10 -6 -22 -14 -29 -21 -11 -11 -27 -21 -34 -21 -2
0 -3 -1 -3 -2 0 -1 -3 1 -6 4 l-6 6 0 60 c0 60 1 67 7 74 3 4 4 3 8 -5 5 -10
13 -15 26 -16 9 -1 12 -1 28 8 24 13 32 21 39 39 3 8 6 16 6 19 0 2 1 5 2 6 5
5 0 45 -6 45 -4 0 -9 14 -9 24 0 14 5 22 15 25 7 3 22 2 28 -1z m698 -6 c6 -7
4 -21 -5 -30 -2 -1 -6 -8 -9 -14 l-5 -11 0 -64 c0 -35 1 -72 1 -83 1 -10 1
-24 0 -31 -1 -6 -2 -17 -2 -24 -1 -12 -4 -23 -8 -23 -1 0 -2 -2 -2 -3 0 -3 -1
-1 -3 2 -1 4 -8 14 -14 22 l-11 15 -14 0 c-17 0 -21 -3 -24 -20 -2 -11 -7 -18
-11 -18 -1 0 -9 2 -17 5 -28 10 -38 11 -87 12 -19 0 -36 1 -37 1 -2 0 -6 2 -9
5 -4 4 -5 5 -2 6 1 1 7 7 13 12 9 9 12 10 19 10 23 1 40 4 46 9 3 3 8 6 12 8
3 1 5 3 5 4 0 1 1 2 3 2 9 0 12 32 3 38 -3 2 -3 11 0 16 1 3 7 10 12 15 18 20
21 24 22 32 1 4 1 12 0 17 -2 8 -3 10 -10 13 -9 4 -23 3 -36 -2 -17 -7 -30 -1
-30 14 0 13 6 18 22 16 18 -2 34 -2 48 1 9 2 13 2 19 0 14 -5 43 -2 43 5 0 1
1 1 1 0 1 0 6 5 11 13 19 26 28 34 44 34 6 0 9 -1 12 -4z m84 -11 c1 -2 4 -3
5 -3 3 0 18 -30 20 -40 2 -11 -11 -18 -20 -10 -6 5 -14 22 -18 35 -3 10 -3 12
1 16 4 6 8 6 12 2z m-523 -46 c2 -2 3 -5 2 -10 -6 -34 -6 -40 5 -63 12 -24 16
-28 34 -28 l13 0 16 15 c8 8 17 15 18 15 2 0 3 1 3 2 0 1 1 2 3 2 4 0 5 35 0
44 -4 8 -4 11 1 16 11 11 26 -5 27 -29 1 -15 -2 -23 -10 -28 -3 -2 -5 -5 -5
-8 0 -14 -52 -76 -101 -121 -6 -6 -15 -11 -23 -14 -9 -4 -14 -8 -19 -14 -4 -5
-8 -10 -9 -11 -1 -2 -4 -6 -6 -10 -3 -5 -8 -12 -13 -16 -8 -9 -8 -10 -7 -36 0
-2 2 -5 5 -7 2 -1 6 -6 9 -11 l5 -8 -5 -5 c-4 -4 -12 -6 -41 -7 -27 -1 -37 4
-41 20 -4 18 3 39 15 42 4 1 5 3 7 12 3 12 2 17 -4 30 -6 12 -5 25 1 31 4 4 6
4 18 3 16 -1 27 -3 30 -5 1 -1 3 -1 4 -1 0 1 2 1 3 0 6 -4 14 -3 15 1 1 2 2 4
3 3 1 0 1 1 1 3 0 2 0 4 -1 4 -1 0 -1 2 -1 5 -1 9 -5 21 -9 25 -2 1 -7 6 -11
9 -3 3 -10 8 -14 11 -10 7 -14 17 -12 25 1 4 7 12 34 45 1 2 6 7 10 13 4 5 9
11 10 12 3 3 8 14 13 28 8 19 17 25 27 16z m202 -95 c8 -8 7 -30 -2 -39 -2 -2
-14 -3 -14 -1 0 0 -3 1 -6 1 -17 3 -24 26 -12 39 9 9 24 9 34 0z m-395 -41 c2
-2 4 -10 6 -17 2 -15 9 -39 13 -45 1 -2 4 -8 5 -14 1 -5 4 -11 5 -14 2 -2 3
-6 3 -9 0 -3 1 -6 3 -7 1 0 1 -1 -1 -1 -2 0 -5 -2 -8 -5 -2 -2 -8 -5 -12 -6
-4 -1 -15 -5 -25 -10 -21 -10 -28 -11 -34 -5 -10 9 -6 21 10 30 13 9 23 24 23
35 0 5 -8 26 -12 29 -1 1 -3 5 -6 9 -6 10 -6 24 0 30 7 8 23 8 30 0z m-384
-21 c2 0 6 -2 9 -5 6 -6 7 -24 1 -31 -6 -8 -26 -9 -35 0 -6 6 -7 26 -1 31 4 4
15 7 20 6 1 -1 4 -1 6 -1z m1638 -66 c5 -6 5 -12 0 -18 -7 -8 -22 -2 -22 9 0
11 15 17 22 9z m-119 -15 c2 -2 10 -8 16 -14 7 -6 15 -15 20 -18 12 -12 8 -29
-7 -29 -6 0 -19 7 -27 14 -2 3 -7 6 -11 8 -19 10 -26 27 -16 37 6 6 18 7 25 2z
m240 -24 c3 -7 3 -9 1 -19 -2 -14 -5 -17 -16 -21 -10 -4 -20 -2 -26 4 -4 4 -5
7 -5 18 0 17 5 22 22 26 15 3 19 2 24 -8z m-1547 -35 c4 -4 5 -11 3 -17 -1 -3
-16 -11 -19 -10 -3 0 -10 -8 -10 -11 0 -2 -2 2 -3 8 -2 6 -3 13 -3 15 0 5 4
15 6 14 1 0 3 0 5 2 6 4 16 4 21 -1z m-160 -50 c4 -3 6 -8 7 -14 1 -5 2 -11 2
-13 1 -3 0 -5 -1 -5 -1 0 -4 -2 -6 -4 -6 -6 -27 -4 -35 4 -8 8 -8 24 0 32 9 9
24 9 33 0z m553 -6 c3 -1 6 -3 7 -4 1 -1 4 -3 8 -6 10 -7 15 -19 12 -27 -2 -3
-3 -7 -2 -8 1 -3 -18 -9 -33 -11 -9 -1 -23 -4 -30 -6 -32 -9 -47 -3 -47 18 0
10 5 22 8 22 1 0 5 3 9 6 3 3 7 6 8 6 0 0 7 3 13 6 21 11 32 12 47 4z m-211
-20 c6 -6 13 -11 16 -12 7 -1 19 -12 20 -16 0 -2 0 -9 1 -16 1 -8 0 -16 -1
-22 -2 -5 -2 -12 -2 -16 1 -9 -6 -16 -17 -16 -11 0 -17 6 -17 17 1 18 -9 37
-24 50 -4 4 -7 7 -6 8 1 1 1 3 1 6 -4 15 -3 19 1 23 7 7 16 5 28 -6z m711 -2
c10 -9 3 -26 -10 -26 -8 0 -15 7 -15 15 0 13 16 20 25 11z m-342 -3 c3 -3 5
-7 5 -11 0 -9 4 -16 15 -25 10 -9 12 -18 5 -25 -8 -8 -20 -4 -32 11 -8 10 -17
15 -34 19 -12 2 -19 5 -17 8 1 1 0 2 -2 2 -4 0 -3 1 0 2 2 0 11 5 20 10 27 15
33 16 40 9z m-575 -13 c2 -4 3 -6 4 -6 1 0 0 -2 -2 -4 -2 -3 -4 -6 -4 -6 0 -1
-2 0 -5 3 -3 3 -7 5 -8 5 -2 0 5 13 8 15 2 0 3 3 3 5 0 1 1 1 1 -2 1 -3 2 -7
3 -10z m-72 -9 c6 -7 6 -22 -1 -28 -10 -11 -31 -5 -34 10 -3 14 -3 16 2 20 7
6 27 5 33 -2z m911 -18 c13 -9 17 -25 11 -41 -4 -9 -19 -18 -28 -17 -26 4 -35
45 -13 60 11 8 17 8 30 -2z m459 -11 c5 -5 5 -15 0 -20 -9 -9 -24 -2 -24 10 0
8 6 14 14 14 3 0 8 -2 10 -4z m-277 -22 c5 -5 6 -7 6 -16 0 -15 -8 -23 -23
-23 -9 0 -11 1 -16 7 -9 8 -9 23 -1 32 9 9 24 9 34 0z m-95 -18 c6 -6 5 -13
-1 -19 -6 -6 -15 -7 -15 -3 0 1 -1 4 -3 5 -7 7 -1 21 10 21 3 0 7 -2 9 -4z
m-2 -68 c5 -5 6 -7 6 -18 0 -11 -1 -13 -6 -18 -6 -6 -7 -6 -18 -6 -11 0 -12 0
-18 6 -5 5 -6 7 -6 17 0 15 3 19 16 27 11 6 11 6 15 2 2 -2 7 -6 11 -10z m379
-14 c1 -2 4 -7 6 -11 3 -9 3 -9 -2 -15 -5 -6 -5 -6 -13 -3 -9 4 -14 10 -14 17
0 11 14 18 23 12z m-1364 -24 c4 -1 7 -3 7 -4 0 -1 -11 -15 -15 -18 -9 -8 -25
-1 -25 11 0 13 14 19 33 11z m1405 -22 c13 -3 19 -10 21 -22 1 -10 -2 -24 -5
-24 -1 0 -2 -1 -2 -2 0 -2 -2 -5 -5 -8 -2 -3 -7 -13 -10 -23 -7 -25 -10 -26
-34 -28 -11 -1 -25 -2 -31 -2 -16 -2 -24 -1 -30 2 -13 9 -37 65 -32 75 3 6 11
10 15 9 2 0 8 -1 14 -2 11 -1 16 -4 26 -14 6 -6 7 -6 19 -6 7 0 14 1 16 2 4 2
11 19 13 31 1 10 6 16 12 15 2 -1 8 -2 13 -3z m-1099 -3 c12 -3 15 -35 4 -45
-5 -4 -7 -4 -20 -4 -18 2 -27 8 -26 18 5 27 9 32 27 32 6 0 13 -1 15 -1z m269
-21 c5 -6 5 -12 0 -18 -7 -8 -22 -2 -22 9 0 11 15 17 22 9z m474 -12 c5 -5 5
-11 0 -16 -10 -10 -27 5 -16 16 4 4 12 4 16 0z m-1121 -12 c11 -10 3 -28 -11
-28 -9 0 -16 6 -16 16 0 14 17 22 27 12z m1420 -116 c14 -14 -5 -33 -28 -29
-8 1 -9 2 -9 7 0 5 2 9 10 16 11 11 20 13 27 6z m-42 -30 c6 -3 0 -13 -11 -21
-8 -4 -13 -4 -17 1 -4 7 -4 9 3 16 7 6 19 8 25 4z m-245 -9 c6 -6 5 -23 -1
-29 -6 -6 -22 -6 -28 1 -7 6 -7 21 -1 28 7 8 23 8 30 0z m-1099 -180 c6 -10
-4 -38 -16 -44 -3 -2 -15 -5 -27 -7 -12 -2 -23 -5 -25 -6 -6 -4 -23 -3 -30 1
-16 8 -16 40 0 48 8 5 25 5 32 0 9 -6 29 -3 43 6 13 8 19 9 23 2z m982 -4 c6
-4 6 -6 6 -20 0 -14 0 -16 -6 -20 -4 -4 -7 -5 -18 -5 -11 0 -14 1 -18 5 -6 4
-6 6 -6 20 0 14 0 16 6 20 4 4 7 5 18 5 11 0 14 -1 18 -5z m-16 -182 c4 -3 7
-17 6 -24 -3 -13 -28 -19 -38 -8 -6 6 -7 24 -1 31 6 8 26 9 33 1z m-98 -12
c13 -10 7 -29 -9 -29 -14 0 -21 15 -13 30 3 6 4 6 9 5 4 0 10 -3 13 -6z m591
3 c3 -1 6 -3 6 -4 0 -1 3 -2 6 -3 8 -2 16 -13 16 -22 0 -14 -18 -29 -38 -30
-22 -1 -35 16 -30 38 3 11 8 16 21 20 12 3 11 3 19 1z m-127 -89 c3 -3 3 -3 0
-6 -4 -5 -11 1 -7 6 4 4 4 4 7 0z"/>
<path d="M550 2230 c-6 -2 -17 -8 -25 -13 -8 -5 -15 -9 -17 -9 -13 -1 -19 0
-27 6 -27 17 -28 17 -40 17 -8 0 -12 -1 -13 -3 -1 -2 -2 -2 -2 -1 0 3 -26 -26
-26 -29 0 -1 -8 -6 -18 -11 -20 -9 -25 -13 -33 -28 -5 -9 -6 -12 -5 -23 0 -12
1 -14 4 -14 2 0 4 -1 4 -2 0 -1 4 -4 9 -6 8 -4 12 -4 55 -4 l47 0 12 6 c9 4
16 9 23 18 12 13 23 18 34 15 3 -1 11 -2 18 -1 13 1 13 1 27 14 7 8 17 16 23
19 6 3 14 7 18 9 4 2 9 4 11 4 3 0 3 1 1 2 -1 1 -2 5 -2 11 1 13 -4 22 -15 25
-14 3 -50 2 -63 -2z"/>
<path d="M667 2232 c-10 -2 -15 -10 -16 -24 0 -6 -1 -11 -2 -12 -1 -1 0 -2 2
-2 2 0 6 -10 16 -40 2 -5 5 -13 8 -16 2 -3 6 -8 8 -11 2 -3 6 -7 10 -8 4 -2 7
-4 7 -5 0 -1 3 -1 7 -2 9 0 21 5 25 10 2 5 3 27 1 30 -8 10 -11 21 -11 37 0 9
0 16 0 17 0 1 -1 3 -1 6 -3 18 -26 26 -54 20z"/>
<path d="M1010 2050 c-2 -3 -4 -6 -4 -6 0 -1 -3 -7 -7 -14 -4 -6 -10 -15 -14
-21 -3 -5 -12 -19 -20 -30 -13 -21 -14 -21 -12 -31 1 -14 5 -19 19 -27 20 -14
46 -11 67 6 2 2 7 6 10 8 3 2 9 7 13 10 4 3 11 9 15 12 13 10 13 10 13 24 0
15 -2 19 -16 33 -5 6 -12 15 -16 22 -8 16 -12 18 -30 18 -13 0 -15 -1 -18 -4z"/>
<path d="M1552 1949 l0 -7 -11 0 -12 1 11 1 11 1 -11 0 c-16 0 -16 -5 0 -5 7
0 12 -1 13 -2 0 -2 1 2 1 8 0 5 0 10 -1 10 -1 0 -1 -3 -1 -7z"/>
</g>
</svg>
