<?xml version="1.0" standalone="no"?>
<!DOCTYPE svg PUBLIC "-//W3C//DTD SVG 20010904//EN"
 "http://www.w3.org/TR/2001/REC-SVG-20010904/DTD/svg10.dtd">
<svg version="1.0" xmlns="http://www.w3.org/2000/svg"
 width="1104.000000pt" height="2870.000000pt" viewBox="0 0 1104.000000 2870.000000"
 preserveAspectRatio="xMidYMid meet">
<metadata>
Created by potrace 1.15, written by Peter Selinger 2001-2017
</metadata>
<g transform="translate(0.000000,2870.000000) scale(0.500000,-0.500000)"
fill="#000000" stroke="none">
<path d="M1409 3843 c-11 -4 -17 -9 -22 -18 -4 -8 -4 -10 -4 -168 0 -88 1
-162 1 -165 5 -19 7 -24 12 -33 8 -13 26 -30 40 -37 33 -15 40 -23 41 -40 0
-19 -9 -29 -28 -29 -11 0 -22 5 -25 11 -3 5 -33 3 -37 -3 -3 -3 -3 -3 -5 1 -1
2 -1 4 -1 4 1 1 0 4 -1 8 -1 4 -3 16 -5 28 -6 41 -22 78 -44 106 -21 26 -37
41 -65 60 -28 20 -40 22 -63 11 -28 -13 -36 -12 -43 7 -5 14 -7 16 -25 16 -13
1 -14 0 -20 -6 -12 -11 -35 -8 -38 6 -5 20 -15 37 -25 42 -14 7 -17 8 -31 9
-18 2 -28 3 -40 4 -18 3 -18 3 -42 -7 -18 -7 -24 -15 -24 -29 0 -8 1 -10 5
-13 7 -4 22 -3 32 3 23 12 40 5 40 -16 0 -11 0 -12 -10 -22 -12 -13 -14 -17
-14 -30 0 -23 25 -46 62 -59 32 -11 37 -14 37 -30 0 -8 -2 -12 -7 -19 -8 -12
-14 -27 -14 -35 0 -5 3 -14 13 -39 1 -2 2 -4 2 -5 0 -1 3 -8 6 -18 6 -19 13
-44 14 -53 3 -17 12 -35 22 -45 10 -10 36 -23 58 -29 45 -13 105 -3 113 19 3
8 1 26 -3 33 -2 4 -3 11 -3 17 0 21 19 28 41 17 11 -5 35 -6 37 -1 0 1 2 2 3
2 5 0 21 38 21 52 1 7 1 8 1 2 1 -3 2 -6 3 -5 1 0 2 0 4 -1 3 -2 3 -16 3 -95
1 -55 2 -97 3 -101 2 -9 9 -15 18 -17 4 -1 10 -2 13 -3 4 -1 7 -1 7 0 2 4 17
5 24 1 8 -4 12 -12 12 -26 0 -10 -1 -12 -6 -17 -6 -7 -9 -7 -32 -6 -7 1 -21
-2 -26 -6 -13 -9 -12 3 -12 -215 l0 -198 -6 -6 c-3 -3 -6 -6 -7 -6 -1 -1 -8
-2 -16 -3 -14 -3 -20 -5 -28 -12 -3 -3 -4 -6 -3 -19 l0 -15 9 -2 c4 -2 9 -3
10 -4 1 -1 7 -3 14 -5 13 -4 18 -7 21 -15 3 -7 6 -30 6 -51 1 -19 4 -28 13
-33 6 -3 27 -8 27 -6 0 1 5 2 12 2 14 0 21 -3 28 -13 5 -7 9 -12 18 -22 9 -11
12 -16 12 -27 0 -9 -1 -11 -6 -16 -10 -10 -22 -7 -40 10 -5 4 -12 10 -16 12
-4 3 -8 5 -8 6 0 2 -23 -1 -27 -4 -2 -1 -6 -5 -8 -9 -5 -7 -5 -7 -5 -110 0
-113 -1 -107 12 -137 7 -18 7 -20 0 -38 -13 -30 -12 -26 -11 -117 1 -94 0 -92
8 -108 6 -12 14 -20 25 -23 10 -3 35 -2 43 1 12 5 20 20 19 39 0 10 4 15 12
15 5 0 12 -5 11 -7 -2 -3 13 -25 19 -29 8 -4 22 -5 33 0 35 15 55 25 72 38 8
5 15 11 17 12 7 5 28 27 31 33 11 21 11 25 11 122 0 94 -1 104 -9 114 -9 11
-19 36 -19 48 0 3 4 8 8 12 4 5 8 9 8 9 0 1 1 3 3 5 9 10 9 17 9 149 l0 124 6
6 c3 3 6 6 7 6 19 4 148 30 153 31 4 1 12 5 17 7 23 11 23 11 47 11 41 0 62
12 78 47 8 16 9 23 6 36 -3 15 -11 25 -29 39 -9 7 -18 13 -20 15 -4 3 -41 28
-92 61 -18 12 -35 25 -40 29 -10 10 -13 11 -26 11 -20 0 -19 1 -59 -79 -20
-39 -36 -73 -36 -74 0 -2 -1 -2 -4 0 -7 7 -8 12 -8 41 0 16 -1 35 -2 41 -1 7
-2 20 -1 29 1 9 2 64 2 120 1 92 1 105 -2 113 -3 10 -15 23 -20 23 -11 1 -17
0 -22 -2 -24 -10 -32 -10 -39 -3 -2 2 -4 7 -4 11 0 7 9 22 12 22 2 0 2 1 1 1
0 1 0 3 1 4 3 4 5 30 2 32 -1 1 -2 5 -2 10 0 10 4 14 22 23 20 10 25 22 16 47
-7 21 -4 30 11 40 10 6 17 14 22 26 3 7 3 27 3 192 l0 184 5 8 c4 6 9 10 17
14 18 9 32 24 42 44 11 24 13 32 9 45 -6 23 -18 28 -75 33 -6 0 -67 6 -136 13
-142 14 -127 13 -137 9z m119 -128 c2 -2 5 -8 5 -13 1 -9 1 -10 -4 -13 -7 -5
-20 -4 -26 2 -7 5 -7 18 -1 24 6 7 20 7 26 0z m65 -46 c4 -4 5 -7 5 -15 0 -14
-6 -20 -20 -20 -14 0 -19 5 -21 21 -2 15 2 19 19 19 10 0 13 -1 17 -5z m-50
-144 c7 -6 9 -25 4 -31 -6 -6 -27 -6 -34 1 -7 7 -7 23 0 30 7 7 23 7 30 0z
m42 -62 c-3 -3 -4 -3 -5 -1 0 1 -2 2 -3 2 -4 0 -4 2 1 6 3 3 3 3 7 0 3 -4 3
-4 0 -7z m-406 -109 c7 -6 7 -19 1 -25 -6 -7 -19 -7 -25 -1 -7 6 -7 19 -1 25
6 7 19 7 25 1z m282 -124 c10 -9 3 -26 -10 -26 -8 0 -15 7 -15 15 0 13 16 20
25 11z m-22 -287 c3 -3 3 -3 0 -6 -4 -5 -11 1 -7 6 4 4 4 4 7 0z m98 -112 c6
-4 6 -6 6 -20 0 -14 0 -16 -6 -20 -4 -4 -7 -5 -18 -5 -11 0 -14 1 -18 5 -6 4
-6 6 -6 20 0 14 0 16 6 20 4 4 7 5 18 5 11 0 14 -1 18 -5z m89 -45 c1 0 5 -3
8 -6 5 -5 6 -7 6 -18 0 -11 -1 -13 -6 -18 -6 -6 -7 -6 -18 -6 -11 0 -12 0 -18
6 -5 5 -6 7 -6 17 0 14 3 20 12 24 5 2 8 2 22 1z m294 -66 c9 -11 2 -21 -22
-31 -9 -4 -19 -8 -21 -10 -4 -3 -11 -4 -21 -3 -8 0 -14 9 -14 20 0 16 3 18 35
23 36 6 39 6 43 1z m-289 -103 c3 -3 3 -3 0 -6 -4 -5 -11 1 -7 6 4 4 4 4 7 0z
m-20 -163 c7 -6 7 -19 1 -25 -6 -7 -19 -7 -25 -1 -7 6 -7 19 -1 25 6 7 19 7
25 1z m13 -140 c7 -7 7 -13 0 -17 -3 -2 -7 -3 -9 -3 -5 1 -11 7 -11 12 0 10
13 15 20 8z m-117 -87 c5 -8 1 -16 -8 -16 -9 0 -13 8 -8 16 2 3 5 5 8 5 3 0 6
-2 8 -5z m97 -192 c10 -5 14 -25 8 -39 -7 -16 -41 -17 -49 -1 -4 8 -4 24 0 32
6 12 26 16 41 8z"/>
<path d="M362 3788 c-11 -5 -18 -12 -22 -24 -1 -5 -2 -38 -2 -109 0 -96 0
-104 4 -119 5 -21 5 -29 0 -50 -2 -9 -4 -19 -4 -23 0 -7 -11 -23 -12 -19 -1 1
-147 17 -157 17 -14 -1 -31 -13 -39 -29 -5 -9 -5 -10 -6 -14 0 -1 -5 -5 -11
-9 -7 -4 -13 -8 -14 -9 -1 -1 -4 -4 -6 -6 -3 -2 -7 -8 -10 -13 l-5 -11 0 -91
c0 -103 0 -101 17 -119 5 -5 10 -12 12 -15 4 -7 4 -7 0 -13 -2 -4 -7 -11 -12
-16 -17 -18 -17 -20 -17 -88 0 -76 0 -77 29 -82 6 -1 12 -1 12 0 1 1 4 2 7 2
19 2 26 -4 26 -21 0 -17 -7 -23 -26 -21 -3 0 -6 1 -7 2 -1 2 -20 -1 -28 -4 -3
-2 -7 -6 -9 -10 -4 -8 -4 -12 -4 -57 1 -48 1 -48 6 -59 15 -31 15 -33 0 -64
l-5 -11 -1 -86 -1 -86 -5 -11 c-3 -7 -9 -14 -14 -18 -22 -18 -27 -25 -27 -42
0 -9 2 -14 7 -26 7 -14 16 -34 27 -57 7 -15 18 -38 26 -56 4 -9 9 -20 12 -26
5 -11 20 -43 24 -52 2 -4 7 -10 10 -13 6 -5 8 -6 21 -6 13 0 13 0 23 9 9 8 9
9 9 20 0 16 -4 23 -18 31 -16 8 -21 24 -14 42 7 17 43 17 49 1 2 -3 4 -10 5
-15 9 -31 24 -36 65 -21 14 5 31 11 37 13 14 5 62 22 66 23 2 1 4 2 5 2 1 0
11 4 22 8 11 4 31 11 44 16 45 16 76 27 86 32 12 5 27 19 27 25 0 2 1 4 1 5 1
0 2 2 2 4 8 37 11 41 32 42 15 1 25 -7 29 -20 3 -11 1 -20 -8 -38 -14 -27 -15
-42 -4 -59 6 -9 29 -18 36 -16 3 1 9 2 14 3 9 0 17 3 10 3 -2 0 -2 1 0 3 1 2
2 3 1 3 -2 0 14 27 18 32 8 7 25 6 33 -2 13 -13 5 -40 -12 -40 -3 0 -7 -1 -7
-1 -1 0 -5 -1 -8 -2 -3 -1 -9 -2 -13 -2 -11 -1 -11 -1 -8 -3 2 -1 2 -2 1 -2
-2 0 -3 -1 -3 -1 1 -3 -13 -30 -17 -33 -2 -2 -7 -4 -11 -5 -4 0 -10 -2 -13 -4
-3 -2 -8 -3 -10 -3 -2 0 -3 -1 -2 -1 1 -1 2 -6 1 -11 -1 -20 0 -23 14 -26 35
-7 101 6 147 29 35 18 52 32 61 52 11 23 3 39 -28 51 l-13 5 -10 19 c-22 38
-21 38 -20 47 1 13 5 19 11 18 7 -2 19 -10 27 -20 8 -10 21 -17 31 -17 4 -1
42 6 84 15 42 8 79 16 81 16 152 30 286 57 293 61 16 9 21 32 10 47 -3 4 -8
11 -11 14 -6 5 -8 10 -15 23 -1 2 -2 5 -2 6 0 5 -11 18 -16 21 -12 6 -23 5
-91 -10 -19 -4 -28 -14 -33 -36 -2 -6 -4 -12 -6 -14 -3 -5 -10 -7 -10 -3 0 1
-2 2 -4 3 -1 0 -5 4 -7 8 -8 14 -22 23 -35 21 -8 -1 -22 -14 -29 -28 -8 -16
-12 -20 -21 -20 -9 0 -16 4 -25 14 -6 5 -8 6 -17 6 -18 0 -18 -1 -28 -20 -9
-20 -12 -22 -24 -22 -10 0 -14 2 -27 15 -12 12 -29 18 -41 15 -4 -1 -6 0 -9 2
-2 2 -6 4 -10 5 -3 1 -7 2 -7 2 -1 0 -8 1 -15 1 l-13 0 -1 8 c0 6 0 5 -1 -3 0
-10 -1 -11 -7 -16 -20 -14 -27 -25 -30 -43 -1 -5 -2 -12 -2 -15 -1 -3 -2 -6
-3 -7 -1 0 -2 -2 -2 -3 0 -3 -5 -3 -15 1 -15 7 -18 22 -5 36 13 15 16 24 16
45 0 20 2 27 10 30 13 7 32 15 32 14 0 -1 1 0 3 1 3 2 3 2 3 -2 0 -7 1 -4 3 6
1 10 9 24 21 36 12 13 15 22 16 54 0 29 -1 40 -8 55 -11 24 -10 29 5 64 1 2 2
57 3 122 l1 118 5 8 c4 5 5 6 6 4 0 -2 3 -6 6 -9 9 -11 41 -58 48 -71 7 -14
11 -17 28 -17 11 0 22 4 28 9 1 2 3 3 4 3 2 0 25 10 37 16 9 5 27 6 35 2 7 -4
11 -11 11 -24 0 -24 -6 -27 -46 -26 -30 0 -31 0 -41 -5 -5 -3 -10 -6 -10 -8 0
-2 -1 -3 -2 -3 -5 0 -8 -23 -3 -32 9 -17 26 -78 32 -113 10 -59 21 -70 89 -95
8 -3 26 -5 34 -4 l7 1 0 18 c0 14 1 17 3 17 2 0 -1 2 -5 3 -15 6 -21 18 -13
27 5 6 13 5 26 -3 6 -4 15 -10 20 -13 18 -9 32 -17 36 -19 2 -1 10 -3 17 -3
15 0 15 0 41 26 22 22 27 36 19 53 -3 6 -14 17 -17 17 -4 0 -10 14 -10 21 0
12 6 17 18 17 24 -1 41 8 44 23 6 25 -12 80 -38 116 -13 17 -15 19 -33 19 -14
0 -16 0 -29 -9 -18 -11 -23 -21 -22 -41 0 -7 0 -16 0 -20 0 -16 -9 -25 -27
-25 -19 0 -28 9 -28 28 0 10 18 56 24 62 2 2 3 4 3 4 1 2 20 15 22 15 4 0 9 9
10 19 1 11 1 12 -5 21 -14 20 -96 53 -172 69 -18 4 -36 7 -40 8 -67 8 -76 9
-91 3 -12 -4 -26 -6 -34 -3 -10 3 -30 17 -32 23 -6 14 -2 33 8 39 30 19 36 30
36 63 0 35 -4 41 -34 49 -1 0 -3 1 -3 1 -1 0 -4 0 -6 0 -8 -1 -19 5 -34 20
-21 20 -35 24 -58 17 -12 -4 -27 -1 -33 5 -5 5 -28 5 -28 1 0 -2 -1 -3 -2 -3
-1 0 -2 -4 -2 -24 0 -17 -2 -20 -17 -27 -14 -6 -23 -14 -27 -24 -4 -7 -4 -14
-4 -72 0 -83 2 -88 25 -90 7 -1 13 -2 13 -4 1 -1 2 0 3 3 3 10 21 2 21 -9 0
-11 -18 -19 -21 -9 -1 3 -2 4 -3 3 0 -2 -6 -3 -13 -4 -21 -2 -25 -11 -25 -59
0 -36 1 -40 12 -62 9 -16 9 -24 0 -40 -9 -19 -12 -28 -12 -42 0 -13 6 -33 10
-36 2 -1 12 -22 12 -26 0 -4 -10 -25 -12 -26 -4 -3 -10 -23 -10 -36 0 -30 13
-43 47 -45 23 -1 30 -7 30 -27 0 -13 -4 -21 -12 -24 -2 -1 -10 -4 -18 -6 -28
-9 -37 -19 -44 -46 -3 -12 -3 -15 0 -30 7 -35 3 -46 -17 -46 -8 0 -11 1 -15 5
-7 6 -6 15 0 42 5 19 5 24 2 38 0 2 -1 13 -2 24 -2 26 -2 30 -6 37 -2 3 -3 6
-4 6 0 0 -5 2 -11 4 -14 5 -21 5 -34 -1 -6 -3 -13 -6 -15 -6 -5 -1 -7 -3 -8
-9 -2 -14 -12 -28 -22 -28 -14 0 -20 16 -9 27 6 7 14 14 17 14 0 0 2 1 3 1 0
0 2 0 3 0 0 0 1 3 1 7 1 9 1 13 4 19 1 3 1 6 1 7 -3 2 5 23 11 30 3 4 10 10
14 11 7 4 20 5 20 2 0 -2 23 3 29 7 4 3 10 10 10 13 0 1 0 2 0 3 3 7 0 81 -4
91 -8 27 -8 29 -3 47 2 9 5 18 6 21 3 7 3 597 0 606 -6 15 -19 23 -43 25 -15
1 -22 9 -22 23 0 9 1 11 6 16 6 6 7 6 26 7 10 1 21 2 24 3 3 1 5 1 5 1 0 -1 5
1 11 5 28 16 43 34 54 65 7 20 1 38 -17 47 -10 4 -12 5 -38 7 -9 1 -19 2 -22
2 -34 5 -60 5 -74 -1 -21 -8 -30 -9 -41 -4 -6 3 -11 5 -11 6 0 1 -4 3 -8 5 -5
2 -10 4 -12 5 -5 2 -14 4 -31 5 -13 1 -18 0 -27 -3z m33 -95 c3 -3 3 -3 0 -6
-4 -5 -11 1 -7 6 4 4 4 4 7 0z m37 -145 c5 -5 5 -11 0 -16 -10 -10 -27 5 -16
16 4 4 12 4 16 0z m101 -94 c11 -10 3 -28 -11 -28 -9 0 -16 6 -16 16 0 14 17
22 27 12z m-90 -18 c11 -10 3 -28 -11 -28 -9 0 -16 6 -16 16 0 14 17 22 27 12z
m-171 -63 c25 -18 31 -21 40 -21 5 0 9 1 12 4 2 2 4 3 4 2 0 -1 2 -5 5 -9 l5
-8 0 -88 c0 -84 0 -89 4 -97 6 -13 13 -20 27 -27 18 -8 25 -22 21 -40 -3 -10
-10 -17 -21 -22 -14 -7 -21 -14 -27 -27 -7 -16 -5 -144 2 -144 1 0 4 -2 6 -5
6 -5 19 -9 37 -10 14 -1 20 -5 24 -18 3 -9 3 -12 1 -19 -4 -15 -11 -20 -28
-21 -15 -1 -28 -5 -34 -10 -2 -3 -5 -5 -6 -5 -4 0 -6 -19 -6 -79 0 -71 1 -75
15 -96 10 -15 11 -18 11 -28 0 -9 -3 -18 -10 -27 -2 -2 -3 -7 -3 -10 0 -8 -6
-16 -17 -19 -8 -2 -10 -2 -10 0 0 1 -2 5 -5 8 l-6 5 1 91 c0 86 0 91 -4 99 -8
20 -20 26 -47 22 -17 -2 -19 -2 -27 1 -14 4 -20 20 -16 44 3 19 8 34 12 38 9
8 33 8 40 0 2 -3 6 -4 17 -4 26 1 25 -8 25 157 0 151 1 145 -13 168 -2 5 -6
16 -8 25 -4 17 -9 31 -14 35 -2 1 -3 3 -3 5 0 1 -1 3 -3 5 -4 4 -4 20 -1 25 1
2 4 10 7 17 7 21 3 32 -16 46 -17 13 -21 18 -21 26 0 15 16 21 30 11z m164
-140 l-5 -5 -4 4 -5 5 4 4 5 5 4 -4 5 -5 -4 -4z m-238 -80 c3 -3 4 -7 4 -14 0
-13 -6 -19 -19 -19 -13 0 -19 6 -19 19 0 7 1 11 4 14 7 8 23 8 30 0z m279
-109 c10 -9 3 -26 -10 -26 -8 0 -15 7 -15 15 0 13 16 20 25 11z m321 -18 c5
-5 5 -11 0 -16 -10 -10 -27 5 -16 16 4 4 12 4 16 0z m-529 -3 c3 -5 3 -5 0
-10 -2 -3 -5 -5 -7 -5 -2 0 -5 2 -7 5 -3 5 -3 5 0 10 2 3 5 5 7 5 2 0 5 -2 7
-5z m193 -73 c9 -9 9 -26 0 -34 -6 -6 -7 -6 -19 -6 -16 1 -20 5 -21 21 0 12 0
13 6 19 8 9 25 9 34 0z m612 -47 c21 -8 34 -22 34 -35 0 -14 -14 -21 -42 -20
-23 1 -32 6 -36 21 -7 28 17 46 44 34z m-702 -378 c0 -1 -1 -3 -3 -4 -3 -3 -4
-3 -9 0 -7 4 -7 6 -1 11 l6 4 3 -4 c2 -3 4 -6 4 -7z m-5 -102 c6 -4 6 -6 6
-20 0 -14 0 -16 -6 -20 -4 -4 -7 -5 -18 -5 -11 0 -14 1 -18 5 -6 4 -6 6 -6 20
0 14 0 16 6 20 4 4 7 5 18 5 11 0 14 -1 18 -5z"/>
<path d="M671 3467 c-1 0 -9 -3 -16 -5 -12 -3 -15 -5 -18 -10 -3 -6 -4 -27 -1
-35 2 -5 14 -19 14 -16 0 1 1 1 2 -1 1 -2 6 -3 18 -3 15 -1 16 0 17 4 2 8 10
12 23 12 11 0 13 -1 23 -8 16 -11 25 -15 42 -18 23 -5 27 -7 42 -26 13 -16 31
-21 48 -14 10 4 26 22 34 39 9 18 11 29 6 41 -6 17 -20 23 -53 26 -9 1 -21 2
-25 2 -16 2 -50 5 -62 6 -7 1 -21 2 -32 3 -24 3 -59 4 -62 3z"/>
</g>
</svg>
