<?xml version="1.0" standalone="no"?>
<!DOCTYPE svg PUBLIC "-//W3C//DTD SVG 20010904//EN"
 "http://www.w3.org/TR/2001/REC-SVG-20010904/DTD/svg10.dtd">
<svg version="1.0" xmlns="http://www.w3.org/2000/svg"
 width="1101.000000pt" height="2870.000000pt" viewBox="0 0 1101.000000 2870.000000"
 preserveAspectRatio="xMidYMid meet">
<metadata>
Created by potrace 1.15, written by Peter Selinger 2001-2017
</metadata>
<g transform="translate(0.000000,2870.000000) scale(0.500000,-0.500000)"
fill="#000000" stroke="none">
<path d="M1573 3864 c-5 -2 -13 -10 -22 -24 -4 -5 -9 -14 -13 -18 -3 -4 -10
-13 -15 -21 -9 -14 -9 -14 -9 -27 1 -8 3 -17 6 -22 6 -15 6 -31 -2 -38 -6 -6
-7 -7 -20 -6 -15 0 -20 0 -32 -2 -15 -2 -21 -6 -25 -14 -4 -8 -6 -29 -3 -39 1
-7 1 -11 -3 -23 -6 -22 -5 -34 1 -42 11 -14 16 -15 63 -15 22 -1 41 0 41 1 0
1 2 2 5 3 3 1 5 2 5 3 -1 0 0 3 1 6 2 3 2 9 2 15 0 6 1 9 3 10 2 0 1 1 -1 1
-4 0 -5 2 -8 11 -5 16 -2 26 13 41 6 6 14 15 18 20 10 14 12 15 34 15 18 0 20
1 34 8 28 14 46 8 46 -16 0 -10 -1 -12 -6 -17 -7 -7 -22 -8 -33 -3 -3 2 -12 4
-19 5 -13 0 -14 0 -21 -7 -6 -6 -7 -8 -8 -21 -2 -23 -6 -36 -12 -36 -2 0 -3
-1 -1 -1 2 -1 3 -4 3 -10 0 -6 0 -12 2 -15 1 -3 2 -6 1 -6 0 -1 2 -2 5 -3 3
-1 5 -2 5 -3 0 -1 7 -2 15 -2 17 0 24 -2 29 -8 3 -3 3 -4 1 -5 -2 -1 -15 -19
-33 -47 -12 -17 -6 -33 12 -32 4 0 14 2 19 4 3 1 10 2 15 2 15 0 22 -7 22 -22
0 -9 -4 -20 -8 -24 -6 -5 -12 -27 -12 -46 0 -26 -11 -30 -48 -19 l-17 5 -20
-4 c-22 -4 -27 -3 -38 7 -12 11 -21 15 -34 16 -25 3 -38 -12 -41 -45 -2 -22
-6 -26 -25 -26 -17 0 -21 4 -26 22 -2 8 -5 15 -6 17 -1 1 -3 4 -5 6 -2 4 -23
17 -28 17 -8 0 -19 5 -27 13 -5 5 -8 9 -8 9 2 0 -5 14 -8 17 -11 12 -13 25 -6
41 2 7 6 9 19 16 26 13 32 18 39 31 11 22 9 40 -9 60 -7 8 -11 16 -17 31 -11
29 -14 34 -29 41 -7 4 -17 8 -23 9 -8 2 -13 6 -24 17 -22 22 -16 21 -136 21
l-100 -1 -10 -6 c-6 -3 -13 -7 -15 -10 -12 -10 -18 -14 -28 -14 -10 0 -16 4
-28 14 -2 3 -9 7 -15 10 l-10 6 -45 1 c-58 0 -65 -2 -70 -31 -1 -8 -1 -10 3
-19 7 -12 7 -22 1 -29 -2 -3 -5 -5 -6 -4 -1 0 -2 0 -4 -1 -2 -1 -2 -2 0 -2 1
0 2 -1 1 -2 -1 -2 13 -1 19 2 3 1 4 2 2 2 -2 0 -2 1 0 2 1 2 8 3 17 3 12 0 17
2 32 8 19 9 23 10 34 9 7 0 15 -8 15 -16 0 -9 8 -28 14 -35 9 -10 15 -11 61
-11 l42 0 5 -6 c3 -3 5 -6 5 -7 -1 -1 -2 -4 -6 -28 -2 -10 -5 -26 -7 -35 -2
-9 -4 -19 -5 -22 -1 -8 -12 -48 -15 -54 -1 -4 -1 -10 0 -16 2 -16 4 -18 12
-28 10 -10 11 -17 9 -36 -1 -8 -1 -12 3 -18 5 -9 15 -20 23 -24 8 -4 15 -11
16 -18 1 -3 2 -6 3 -7 1 -1 3 -5 4 -10 2 -7 2 -8 -2 -12 -2 -3 -6 -9 -9 -15
-5 -11 -17 -25 -26 -29 -8 -4 -17 -13 -17 -16 0 -2 -1 -3 -2 -3 -4 0 0 -22 5
-28 5 -4 4 -24 -2 -29 -13 -12 -18 -13 -30 -2 -6 6 -7 7 -7 18 0 12 3 16 18
27 7 5 7 6 7 20 -1 12 -1 15 -5 18 -10 8 -9 27 6 69 7 21 6 32 -6 45 -8 10
-17 13 -43 13 -27 0 -30 2 -32 21 -1 6 -7 15 -12 18 -7 4 -14 5 -39 4 -5 -1
-13 2 -25 8 l-18 9 -61 1 c-65 0 -72 0 -83 -9 -6 -5 -11 -15 -11 -27 -1 -6 13
-52 17 -61 10 -18 30 -28 53 -27 17 2 28 7 42 19 7 6 15 11 20 13 20 6 57 -1
84 -16 9 -5 21 -10 27 -12 5 -2 12 -6 16 -9 l6 -6 -4 -6 c-6 -9 -8 -21 -7 -42
1 -13 1 -17 -2 -20 -3 -4 -17 -11 -30 -14 -5 -1 -18 -14 -26 -25 -3 -4 -6 -8
-7 -9 -1 -1 -7 -8 -13 -15 -28 -33 -64 -69 -102 -101 -16 -14 -50 -40 -66 -51
-6 -4 -11 -8 -13 -9 -1 -1 -3 -2 -4 -1 -9 8 -13 13 -21 28 -4 10 -10 20 -13
23 -2 2 -4 6 -3 7 0 2 -1 2 -3 1 -2 0 -2 0 -2 2 1 2 2 2 3 2 1 -1 2 0 2 1 0 1
1 2 2 1 1 -1 2 0 2 1 0 1 1 3 3 4 2 3 15 29 19 39 1 4 2 41 2 127 -1 121 -1
121 -5 130 -3 5 -7 12 -11 15 -3 3 -7 9 -9 13 -3 6 -3 7 0 14 2 4 6 10 9 13
10 10 15 22 16 44 1 24 5 31 20 38 17 9 24 13 38 26 20 19 23 23 23 38 1 11
-3 23 -7 23 -1 0 -2 2 -3 4 -1 2 -3 4 -5 5 -1 1 -6 4 -9 7 -4 3 -9 7 -12 9
-17 13 -22 17 -24 19 -1 0 -8 6 -16 12 -19 15 -19 15 -22 17 -1 1 -10 8 -20
16 -10 8 -18 14 -19 15 -1 1 -5 4 -9 7 -9 7 -10 7 -17 13 -14 12 -20 14 -31
13 -5 -1 -11 -1 -12 -1 -2 -1 -2 -1 -2 -2 1 -1 0 -2 -1 -2 -3 0 -5 -3 -12 -16
-7 -12 -12 -16 -21 -16 -6 0 -10 1 -15 7 -13 12 -16 13 -30 13 l-13 0 -17 -17
c-8 -10 -18 -20 -20 -23 -3 -3 -10 -8 -17 -11 -11 -5 -13 -5 -38 -4 -19 0 -32
2 -47 6 -12 3 -23 5 -26 5 -10 0 -27 -8 -38 -18 -12 -12 -18 -14 -29 -15 -21
-1 -34 16 -29 38 2 9 0 28 -4 34 -5 10 -15 15 -54 32 -19 8 -23 8 -34 5 -9 -3
-17 -10 -20 -20 -3 -10 -3 -183 1 -195 1 -8 5 -13 14 -22 17 -17 19 -20 19
-33 0 -12 -4 -21 -17 -32 -8 -7 -11 -13 -16 -26 -4 -11 -5 -206 -1 -215 4 -11
23 -23 36 -23 6 -1 14 -6 14 -10 0 -4 -8 -9 -14 -10 -15 0 -35 -14 -37 -27 -1
-6 0 -130 2 -157 0 -7 0 -20 -1 -28 -3 -18 0 -29 9 -39 12 -13 21 -16 49 -18
23 -1 26 -2 30 -8 5 -5 5 -7 1 -16 -5 -13 -24 -18 -44 -12 -6 2 -11 3 -13 2
-2 0 -7 -1 -11 -2 -9 -1 -17 -9 -21 -21 -3 -12 -3 -343 1 -351 3 -7 3 -7 18
-7 10 0 15 1 16 3 0 1 1 -2 1 -7 0 -5 -1 -8 -1 -6 -1 1 -6 2 -16 2 -15 0 -15
0 -17 -5 -8 -21 -1 -61 18 -101 5 -8 19 -22 23 -22 1 0 3 -1 5 -2 4 -5 20 -2
27 4 5 5 15 23 15 28 0 3 6 14 12 20 4 5 14 24 14 28 0 17 -17 27 -41 25 -27
-1 -37 6 -37 29 0 18 6 26 22 29 6 1 43 3 52 3 20 0 26 -6 26 -24 0 -12 4 -35
9 -49 4 -11 4 -15 -3 -30 -14 -30 -16 -49 -10 -81 2 -6 3 -17 4 -25 2 -24 11
-35 28 -37 10 0 12 0 24 7 6 5 14 9 17 11 3 1 12 9 20 18 30 28 32 34 33 85 0
34 0 41 -4 57 -5 23 -5 33 0 55 2 10 4 20 4 23 -1 8 9 17 21 17 11 1 27 9 34
18 11 13 22 16 35 9 12 -6 18 -17 18 -31 0 -6 -10 -19 -15 -19 -4 0 -18 -12
-23 -20 -4 -8 -5 -11 -6 -33 0 -15 0 -27 2 -32 3 -8 9 -15 13 -14 2 0 3 0 3
-1 0 -1 5 -1 10 -1 6 0 10 -1 10 -2 0 -1 1 0 3 3 7 9 29 3 29 -8 0 -6 9 -25
13 -29 6 -5 16 -9 23 -9 15 0 70 22 99 40 6 3 11 7 13 7 14 7 38 33 44 47 6
15 8 58 3 68 -6 11 -14 17 -29 19 -3 1 -6 2 -6 4 -1 1 -2 1 -2 -1 0 -5 -2 -5
-8 1 l-4 4 5 5 c5 5 7 5 7 1 0 -3 1 -3 2 -2 0 2 3 3 6 4 7 1 20 6 23 10 9 9 9
5 8 155 0 76 -1 145 -1 152 -1 9 0 13 2 16 2 1 5 5 7 8 2 3 6 5 8 5 11 1 98
34 120 46 12 7 22 12 35 16 5 2 20 8 33 14 22 11 25 13 31 22 7 10 18 17 21
12 0 -1 5 -6 11 -10 8 -6 10 -9 13 -18 4 -13 3 -19 -7 -39 l-7 -15 0 -35 0
-35 -6 -6 -6 -6 -102 0 c-95 0 -103 0 -109 -4 -9 -4 -13 -10 -17 -23 -2 -10
-2 -11 6 -35 5 -15 11 -31 14 -36 l6 -10 15 -1 14 0 13 12 c12 11 26 19 39 23
6 1 12 -4 13 -10 0 -2 1 -5 2 -7 1 -1 2 -4 2 -6 2 -8 8 -16 16 -21 8 -5 9 -5
48 -5 l40 1 6 -5 c3 -4 6 -6 8 -6 1 0 0 -1 -1 -3 -1 -2 -2 -13 -2 -35 l1 -33
-6 -6 -6 -6 -71 1 c-65 0 -71 0 -84 -4 -27 -8 -41 -23 -43 -44 -2 -18 7 -28
30 -35 19 -5 24 -9 31 -20 5 -7 10 -11 18 -16 l11 -5 54 0 54 1 6 -6 6 -6 0
-44 c0 -38 0 -44 -3 -46 -5 -4 -6 -17 -4 -33 1 -9 1 -13 0 -14 -1 -1 0 -2 4
-3 3 0 7 -2 9 -4 4 -5 26 -11 36 -11 13 1 15 0 20 -5 11 -11 4 -31 -12 -31 -7
0 -23 7 -25 10 -1 4 -27 10 -38 10 -10 0 -13 1 -17 5 -8 8 -6 27 3 27 2 0 2 1
1 2 -2 0 -3 6 -4 13 0 7 -2 12 -3 13 -1 0 -2 1 -1 2 1 1 -2 4 -7 6 -7 4 -11 4
-64 3 -52 0 -56 0 -61 -4 -3 -2 -5 -5 -5 -6 1 0 0 -2 -1 -3 -3 -1 -7 -23 -6
-31 1 -4 0 -7 -3 -10 -3 -3 -4 -3 -7 1 -2 2 -3 6 -3 9 0 3 -2 8 -3 10 -2 2 -3
5 -3 7 0 5 -12 18 -21 22 -6 4 -12 5 -28 5 -30 0 -38 -5 -44 -27 -2 -10 -2
-11 6 -36 12 -37 19 -47 36 -55 11 -5 11 -5 73 -5 43 0 68 1 77 3 16 3 34 2
52 -1 7 -1 17 -2 23 -2 10 1 12 0 17 -5 l6 -6 0 -87 c0 -48 1 -89 2 -92 1 -3
1 -6 1 -7 1 -2 2 -3 3 -3 2 0 3 -1 3 -2 1 -2 6 -3 14 -2 12 0 14 0 15 -3 0 -3
1 -3 1 1 0 10 18 14 26 5 6 -6 5 -17 0 -22 -11 -10 -26 -15 -26 -9 0 4 -10
-16 -10 -20 0 -2 -3 -8 -6 -15 -7 -14 -8 -31 -2 -43 6 -14 55 -40 63 -34 1 1
3 1 4 1 0 -1 1 7 1 18 0 16 -1 19 -3 19 -6 0 -13 9 -13 18 0 12 7 17 21 15 7
0 22 -2 34 -2 12 -1 31 -2 41 -3 17 -2 43 -2 52 0 5 2 6 5 6 23 l-1 19 -7 1
c-11 2 -16 8 -16 18 0 8 6 17 12 17 4 0 23 10 30 17 8 7 9 21 2 30 -4 4 -30
19 -31 17 -2 -1 -9 9 -9 12 0 3 7 13 9 12 0 -1 6 2 13 5 23 11 26 17 26 59 0
27 0 32 -4 37 -7 12 -21 18 -39 17 -11 0 -17 5 -17 14 0 9 6 14 17 14 18 -1
32 5 39 17 4 6 4 9 3 86 -1 99 -1 115 0 181 1 49 1 53 -3 60 -4 9 -5 9 -22 8
l-12 0 0 9 0 9 12 0 c17 -1 18 -1 22 8 4 7 4 12 4 126 0 67 1 120 2 122 3 7 9
15 12 16 4 1 23 13 28 19 7 7 11 21 9 32 -1 4 -1 15 -2 23 -2 31 -11 43 -36
45 -5 1 -24 2 -42 4 -32 3 -36 3 -57 -1 -18 -4 -20 -4 -34 -1 -9 2 -15 2 -19
1 -4 -1 -7 -1 -7 -1 0 2 -12 -5 -22 -12 -11 -9 -25 -10 -33 -2 -5 5 -5 6 -4
19 1 18 6 28 15 35 7 4 8 4 10 1 4 -7 50 -4 50 4 0 3 6 6 25 11 34 10 52 25
66 56 4 9 8 17 9 17 1 0 2 1 2 3 0 3 11 19 13 18 0 -1 1 -1 1 0 0 1 3 3 7 5 4
1 7 3 7 4 0 2 1 2 1 1 1 0 3 0 4 1 2 1 3 2 3 1 0 -3 21 21 34 38 7 11 16 23
20 27 12 13 16 28 16 54 0 13 0 15 6 20 6 6 7 6 18 6 11 0 12 0 18 -6 6 -5 6
-7 6 -20 -1 -29 6 -41 27 -48 16 -5 19 -8 27 -26 19 -40 61 -112 69 -117 8 -6
27 -4 39 3 12 7 22 8 28 1 6 -7 5 -16 -3 -26 -7 -8 -7 -8 -7 -24 1 -14 3 -22
10 -27 5 -3 4 -10 -1 -14 -6 -4 -16 -4 -37 -1 -9 2 -40 5 -52 5 -22 1 -33 -9
-37 -36 0 -2 -2 -6 -4 -8 -7 -7 -31 -2 -41 9 -3 3 -5 5 -4 6 0 0 -2 6 -6 14
-7 15 -16 23 -27 26 -7 1 -29 -6 -30 -10 -1 -2 -3 -3 -5 -4 -6 -2 -10 -20 -7
-29 4 -9 5 -36 2 -48 -5 -13 -6 -18 -5 -23 0 -2 1 -17 1 -34 2 -54 3 -56 25
-55 13 0 14 0 15 -4 0 -4 1 -3 1 2 0 4 1 8 2 9 2 3 18 41 18 44 0 1 3 5 6 8
13 13 37 4 39 -13 0 -6 -11 -43 -21 -71 -3 -7 -11 -12 -22 -12 -13 0 -20 6
-22 15 -1 5 -2 6 -2 2 0 -4 -1 -4 -14 -4 -25 1 -23 10 -24 -122 0 -130 -2
-121 22 -144 13 -12 14 -13 14 -21 0 -8 -1 -9 -14 -21 -22 -21 -22 -21 -22
-88 0 -46 1 -58 3 -65 7 -20 20 -27 50 -27 15 0 17 -1 22 -5 6 -4 6 -6 6 -20
0 -14 0 -16 -6 -20 -4 -4 -7 -5 -18 -5 -8 0 -14 1 -15 3 -4 3 -25 0 -32 -5 -9
-7 -10 -13 -10 -94 0 -63 1 -76 3 -84 4 -11 10 -21 16 -25 10 -9 14 -31 8 -44
-2 -3 -6 -10 -10 -14 -15 -18 -17 -27 -17 -67 0 -26 1 -35 3 -41 4 -9 14 -21
18 -21 2 0 3 -1 3 -2 0 -5 60 -4 88 2 29 6 50 13 58 19 6 6 18 31 18 39 0 10
9 21 47 58 14 13 19 25 21 44 1 22 -5 34 -19 37 -2 0 -8 2 -12 3 -6 1 -9 1 -9
0 -1 -1 -5 -2 -11 -2 -19 0 -25 16 -14 36 7 12 12 33 10 42 -3 15 -2 22 4 28
3 3 7 6 9 6 4 0 27 10 28 13 0 1 2 3 4 5 2 1 3 3 3 4 -1 1 2 3 6 4 3 2 7 4 9
6 3 3 12 3 77 2 73 0 75 0 84 4 10 5 17 17 20 33 2 11 6 15 16 15 8 0 18 -7
17 -11 -1 -4 10 -25 16 -31 9 -9 18 -11 41 -10 25 2 42 9 55 24 27 30 26 56
-1 82 -18 16 -31 28 -41 36 -5 4 -10 8 -11 9 -1 1 -6 6 -12 10 -5 4 -10 8 -11
9 -1 1 -7 6 -15 13 -8 6 -19 17 -26 24 l-12 13 -17 0 c-19 0 -17 1 -39 -31
-24 -37 -31 -48 -31 -51 -1 -2 -4 -5 -8 -8 -7 -5 -8 -5 -53 -6 l-46 -1 -6 6
-6 6 0 43 0 43 6 6 6 6 20 -1 c16 0 20 0 28 4 8 4 21 18 21 23 0 1 3 5 6 9 l6
7 6 -7 c3 -4 6 -8 6 -9 0 -1 3 -6 6 -10 8 -11 20 -17 35 -17 10 0 14 -1 20 -5
11 -8 33 -7 45 1 4 3 12 7 18 9 18 6 34 23 42 45 10 27 -5 49 -67 102 -28 24
-39 34 -51 44 -5 6 -11 10 -12 10 -3 0 13 13 19 16 11 6 18 22 17 42 0 17 3
20 23 30 31 15 35 20 34 39 -2 20 -15 31 -47 40 -43 12 -48 14 -54 19 -5 5 -6
7 -6 16 -1 16 -6 20 -23 20 -11 0 -13 -1 -14 -4 -1 -2 -3 -4 -4 -4 -2 0 -3 -1
-3 -2 0 -1 -9 -16 -21 -33 -12 -18 -22 -35 -22 -39 -1 -3 -1 -15 0 -26 1 -17
1 -19 -3 -23 -6 -7 -16 -7 -22 0 -3 3 -4 5 -3 5 1 0 1 1 -1 3 -1 1 -3 7 -4 14
-1 7 -2 15 -3 18 -1 3 -2 19 -3 34 -2 24 -3 39 -9 69 -1 4 -3 13 -5 22 -7 27
-4 39 10 42 10 2 20 -1 27 -8 5 -5 8 -6 17 -6 5 0 12 -1 14 -2 2 -1 8 -2 15
-2 6 0 11 -1 11 -2 0 -3 12 -6 23 -5 6 0 14 2 21 6 14 7 26 7 33 0 5 -5 5 -6
4 -19 -1 -12 0 -18 4 -34 2 -10 10 -16 53 -39 19 -10 23 -11 30 -10 19 2 27 9
34 28 2 7 6 18 8 26 3 8 8 21 12 30 7 18 8 30 1 40 -4 6 -19 15 -28 16 -17 2
-36 11 -40 20 -4 8 -5 24 0 32 7 14 27 15 47 4 17 -9 26 -11 42 -12 7 -1 22
-1 32 -2 22 -2 20 -2 53 15 27 13 37 33 27 52 -7 13 -12 17 -35 27 -6 3 -19
10 -28 16 -25 16 -43 22 -67 21 -11 0 -26 -5 -26 -8 0 -1 -1 -2 -3 -2 -2 0 -3
-2 -3 -3 0 -2 -1 -6 -1 -9 -1 -3 -1 -7 -2 -10 0 -2 -2 -6 -3 -7 -5 -3 -16 2
-16 8 -1 4 -16 13 -23 13 -4 0 -15 12 -19 22 -8 16 -22 27 -42 30 -18 3 -31
-1 -37 -11 -3 -4 -10 -26 -10 -31 0 -4 -6 -12 -9 -12 -5 0 -10 9 -10 18 0 20
-6 38 -16 49 -2 2 -4 4 -4 5 0 1 -7 2 -16 2 l-17 0 -9 -12 c-9 -13 -12 -15
-22 -17 -24 -4 -38 14 -31 38 2 8 2 17 0 24 0 1 3 7 7 14 4 6 8 12 8 13 0 1
16 8 20 8 3 0 9 -3 30 -15 10 -6 13 -6 31 -6 21 0 32 4 45 16 21 19 35 19 56
0 2 -3 9 -7 15 -10 l10 -6 64 -1 c68 0 76 1 94 9 10 5 27 20 27 25 0 1 1 2 2
2 0 0 1 5 1 12 0 13 -4 20 -13 25 -12 9 -20 17 -20 22 0 4 -6 21 -12 34 -3 6
-9 12 -21 22 -10 8 -19 15 -20 16 -4 3 -9 7 -22 17 -7 5 -12 9 -13 10 -1 1
-10 8 -21 16 -11 8 -21 16 -23 17 -2 2 -11 8 -20 15 -9 7 -23 19 -32 27 -8 8
-15 14 -16 15 -1 0 1 3 4 6 l6 6 38 0 c42 0 41 0 56 6 17 6 32 21 41 39 7 15
8 17 4 35 -1 5 -8 16 -15 22 -30 27 -43 38 -83 69 -16 13 -33 26 -37 29 -3 3
-8 6 -10 7 -2 1 -4 3 -5 4 -1 1 -10 7 -18 14 -9 7 -16 12 -17 13 -1 1 -8 6
-16 13 -8 7 -22 19 -30 27 -16 15 -16 15 -28 15 -7 1 -15 0 -17 -1z m-414
-247 c3 -5 3 -5 0 -10 -2 -3 -5 -5 -7 -5 -2 0 -5 2 -7 5 -3 5 -3 5 0 10 2 3 5
5 7 5 2 0 5 -2 7 -5z m155 -43 c9 -8 9 -26 0 -34 -5 -6 -7 -6 -20 -6 -26 0
-44 3 -49 9 l-5 4 5 7 c7 10 39 26 53 26 9 0 11 -1 16 -6z m-836 -25 c9 -9 3
-33 -8 -33 -2 0 -7 -2 -11 -4 -7 -3 -9 -3 -15 0 -9 4 -10 9 -4 20 2 5 4 10 4
11 0 1 2 4 5 6 7 8 22 8 29 0z m-104 -41 c22 -7 30 -7 38 -3 5 2 9 1 17 -6 3
-3 4 -4 1 -12 -3 -15 -3 -44 2 -54 6 -13 22 -21 47 -24 24 -3 44 -24 44 -48 0
-12 -3 -17 -14 -29 -7 -8 -19 -34 -19 -40 0 -4 -7 -9 -12 -9 -8 0 -11 6 -9 21
0 7 2 16 2 19 2 6 -3 27 -5 26 -1 0 -7 -1 -14 -1 -17 -1 -24 -7 -24 -21 0 -5
1 -11 2 -13 2 -4 7 -15 6 -16 0 -1 7 -1 15 0 15 0 15 0 15 -4 0 -5 0 -5 -13
-5 -7 1 -14 1 -15 2 -1 1 -2 1 -2 0 1 -1 0 -4 -1 -7 -7 -15 -8 -19 -4 -30 3
-9 10 -18 18 -24 2 -1 9 -5 14 -9 12 -7 16 -15 14 -29 -2 -12 -3 -15 -15 -22
-6 -3 -11 -7 -13 -8 -1 -1 -4 -4 -6 -6 -3 -2 -7 -8 -10 -13 -5 -10 -5 -11 -5
-54 0 -45 1 -53 8 -66 2 -4 5 -8 7 -9 6 -5 13 -18 13 -23 0 -5 -8 -19 -12 -22
-4 -2 -11 -16 -14 -25 -2 -7 -2 -46 -2 -160 l1 -151 -6 -6 c-6 -6 -7 -6 -28
-6 -11 0 -21 1 -21 1 0 1 -3 4 -7 7 -4 2 -6 5 -6 5 3 3 -9 23 -18 32 -10 9
-12 14 -12 28 0 15 7 30 17 34 3 1 6 5 8 9 2 6 3 11 2 25 0 2 -1 5 -3 7 -2 1
-2 3 -2 4 1 0 1 1 -1 1 -2 0 -2 15 1 25 0 2 3 12 6 22 l5 19 0 91 -1 92 -8 22
c-9 27 -9 34 -1 54 8 21 7 33 -3 44 -1 1 -4 5 -6 7 -2 3 -7 7 -10 9 -3 3 -5 7
-5 10 -1 3 -1 5 -2 5 -1 0 -1 3 -2 6 0 3 -2 12 -5 20 -8 24 -6 29 13 37 4 2 8
4 8 5 0 1 1 2 3 2 5 0 9 8 10 20 1 11 0 12 -6 18 -8 8 -14 10 -35 12 -10 1
-21 3 -24 5 -15 8 -14 41 1 48 7 4 24 5 31 1 3 -2 7 -2 17 0 20 4 25 12 25 39
0 20 -3 30 -10 36 -6 6 -24 11 -37 11 -17 0 -24 9 -30 41 -5 28 -3 31 19 35 7
1 15 2 18 3 16 2 31 1 50 -5z m174 -32 c4 -1 11 -6 16 -10 6 -3 10 -6 11 -6 1
0 5 -1 8 -3 3 -2 9 -4 13 -5 4 -1 9 -4 11 -6 8 -9 8 -32 -1 -40 -11 -12 -42
-7 -45 6 -1 6 -13 28 -20 36 -13 15 -15 20 -10 28 4 5 8 5 17 0z m591 -38 c11
-10 3 -28 -11 -28 -9 0 -16 6 -16 16 0 14 17 22 27 12z m112 -39 c5 -8 1 -16
-8 -16 -9 0 -13 8 -8 16 2 3 5 5 8 5 3 0 6 -2 8 -5z m-64 -134 c9 -5 12 -20 9
-34 -3 -15 -22 -23 -35 -15 -1 0 -3 1 -5 1 -5 1 -12 11 -12 17 0 3 -1 6 -2 8
-3 2 4 18 9 22 7 6 28 6 36 1z m-888 -112 c6 -5 4 -22 -4 -29 -6 -6 -18 -6
-30 0 -11 6 -41 7 -45 3 -10 -10 -34 6 -28 17 6 11 21 16 28 10 4 -4 40 -4 46
0 9 6 24 6 33 -1z m292 -44 c3 -5 3 -6 1 -10 -4 -7 -7 -8 -13 -5 -7 4 -8 9 -4
15 4 7 12 7 16 0z m40 -59 c4 -4 7 -8 7 -10 0 -1 1 -2 5 -1 2 0 3 0 2 0 -6 -3
-3 -4 7 -3 8 0 10 0 8 -2 -4 -3 -20 -3 -20 0 0 1 -3 -1 -7 -5 -20 -18 -44 2
-29 23 6 9 17 7 27 -2z m-388 -5 c7 -6 9 -23 4 -36 -7 -20 -9 -33 -8 -54 2
-32 -4 -44 -25 -44 -12 0 -19 5 -29 18 -20 27 -21 44 -4 62 5 6 14 25 18 38 5
17 10 21 26 21 10 0 14 -1 18 -5z m687 -21 c4 -4 5 -11 1 -18 -3 -5 -4 -5 -8
-4 -7 3 -13 9 -13 14 0 9 13 15 20 8z m199 -54 c11 -10 3 -28 -11 -28 -9 0
-16 6 -16 16 0 14 17 22 27 12z m-534 -34 c5 -5 6 -7 6 -16 0 -5 -2 -11 -3
-13 -4 -4 -5 -23 -2 -32 3 -10 11 -14 33 -15 22 -1 27 -4 27 -17 0 -11 -6 -16
-20 -18 -13 -1 -24 -6 -28 -13 -2 -5 -2 -17 1 -39 2 -12 -4 -19 -16 -19 -9 0
-14 4 -25 18 -4 5 -9 11 -11 13 -15 17 -17 50 -4 77 7 13 9 36 5 47 -4 11 -3
21 3 27 9 9 24 9 34 0z m879 -92 c3 -3 6 -7 7 -10 0 -3 3 -16 6 -30 5 -23 5
-25 2 -35 -4 -13 -9 -17 -24 -18 -25 -2 -34 11 -32 48 2 34 3 39 8 45 9 9 25
9 33 0z m-325 -29 c6 -4 6 -6 6 -20 0 -14 0 -16 -6 -20 -4 -4 -7 -5 -18 -5
-11 0 -14 1 -18 5 -6 4 -6 6 -6 20 0 14 0 16 6 20 4 4 7 5 18 5 11 0 14 -1 18
-5z m-838 -44 c5 -4 6 -5 4 -16 -1 -17 -6 -20 -28 -19 -9 0 -15 8 -15 21 0 13
4 19 14 21 10 2 19 -1 25 -7z m721 -18 c21 -9 20 -45 -2 -54 -9 -4 -30 -1 -30
4 0 1 -1 1 -1 0 -3 -2 -13 4 -14 9 -1 6 6 29 11 35 7 8 24 11 36 6z m-808 -13
c6 -4 7 -15 3 -33 -3 -13 -3 -22 -2 -34 1 -16 1 -18 -3 -22 -6 -7 -18 -7 -23
-1 -4 4 -4 8 -4 30 0 14 -1 31 -2 39 -1 13 -1 14 3 19 6 8 21 9 28 2z m1325
-36 c7 -3 16 -5 29 -5 10 -1 22 -2 25 -2 7 -1 19 -10 15 -11 -1 -1 -5 -6 -9
-13 -6 -10 -8 -14 -8 -21 1 -18 11 -26 37 -30 33 -5 45 -13 45 -30 0 -14 -7
-21 -24 -24 -7 -1 -16 -3 -20 -4 -14 -3 -38 4 -40 13 -3 8 -20 22 -33 26 -13
3 -18 4 -18 1 0 -1 -2 0 -4 2 -2 2 -7 5 -10 6 -3 1 -6 4 -7 6 -1 6 -17 13 -35
15 -34 4 -45 34 -20 56 3 3 9 8 11 10 9 9 18 14 27 15 9 1 13 0 39 -10z
m-1068 -21 c3 -3 3 -3 0 -6 -4 -5 -11 1 -7 6 4 4 4 4 7 0z m691 -28 c5 -5 5
-23 0 -28 -6 -5 -19 -5 -24 1 -5 7 -5 19 0 25 6 6 19 7 24 2z m-600 -30 l-5
-5 -4 4 -5 5 4 4 5 5 4 -4 5 -5 -4 -4z m474 -14 c7 -3 11 -9 13 -16 4 -17 13
-23 32 -23 10 0 13 1 16 5 8 8 36 12 39 5 0 -1 1 -2 3 -2 3 0 6 -6 9 -16 3
-10 0 -24 -7 -29 -9 -9 -12 -9 -42 -6 -17 2 -26 -1 -30 -11 -4 -8 -4 -26 -1
-32 1 -2 2 -9 2 -15 0 -10 -1 -12 -6 -17 -6 -6 -7 -6 -18 -6 -11 0 -12 0 -18
6 -9 9 -9 25 1 39 9 14 10 19 10 28 -1 14 -3 16 -20 28 -20 13 -22 16 -25 27
-2 9 0 22 6 29 7 8 24 11 36 6z m-747 -41 c21 -6 20 -35 0 -51 -16 -13 -34
-16 -42 -8 -11 12 -15 45 -6 54 7 8 30 10 48 5z m271 -5 c20 -9 20 -45 0 -53
-12 -5 -31 -4 -39 4 -8 7 -8 28 1 40 7 10 24 14 38 9z m841 -21 c16 -7 16 -43
-1 -50 -15 -6 -34 -2 -39 9 -4 8 -4 24 0 32 5 12 23 15 40 9z m-70 -121 c3 -5
3 -5 0 -10 -2 -3 -5 -5 -7 -5 -2 0 -5 2 -7 5 -3 5 -3 5 0 10 2 3 5 5 7 5 2 0
5 -2 7 -5z m-276 -32 c6 -6 7 -22 1 -29 -4 -6 -18 -8 -26 -5 -7 3 -10 8 -10
20 0 13 6 19 20 19 8 0 11 -1 15 -5z m628 -45 c10 -11 5 -26 -9 -26 -13 0 -22
16 -13 26 5 6 17 5 22 0z m-250 -68 c4 -6 4 -24 -1 -30 -7 -9 -27 -9 -34 0 -5
6 -5 24 0 30 7 9 27 9 35 0z m-55 -84 c2 -1 5 -6 6 -10 1 -5 3 -11 4 -14 2 -3
3 -6 3 -8 0 -1 3 -5 5 -8 2 -3 6 -9 8 -14 7 -13 3 -15 -25 -17 -12 -1 -22 -1
-23 -1 -23 -3 -31 15 -18 41 4 7 7 13 8 13 1 0 2 1 2 3 0 2 3 6 7 10 8 7 16 9
23 5z m-285 -52 c5 -5 6 -7 6 -16 0 -15 -8 -23 -23 -23 -9 0 -11 1 -16 7 -9 8
-9 23 -1 32 9 9 24 9 34 0z"/>
<path d="M1768 2750 c-7 -5 -8 -22 -2 -28 7 -7 29 -3 35 5 2 4 1 23 -2 22 -2
0 -3 0 -3 1 0 1 -26 2 -28 0z"/>
</g>
</svg>
