<?xml version="1.0" standalone="no"?>
<!DOCTYPE svg PUBLIC "-//W3C//DTD SVG 20010904//EN"
 "http://www.w3.org/TR/2001/REC-SVG-20010904/DTD/svg10.dtd">
<svg version="1.0" xmlns="http://www.w3.org/2000/svg"
 width="1100.000000pt" height="2870.000000pt" viewBox="0 0 1100.000000 2870.000000"
 preserveAspectRatio="xMidYMid meet">
<metadata>
Created by potrace 1.15, written by Peter Selinger 2001-2017
</metadata>
<g transform="translate(0.000000,2870.000000) scale(0.500000,-0.500000)"
fill="#000000" stroke="none">
<path d="M606 3747 c-26 -4 -40 -9 -42 -14 -1 -2 -2 -11 -2 -18 l-1 -13 9 -9
c11 -10 14 -18 9 -29 -4 -9 -9 -12 -20 -12 -13 0 -17 3 -25 21 -8 22 -13 26
-29 27 -11 0 -13 0 -20 -5 -11 -8 -24 -18 -36 -29 l-9 -9 1 -13 c1 -15 4 -20
23 -29 10 -5 14 -9 19 -16 14 -23 26 -31 55 -36 29 -5 68 -19 81 -29 15 -10
19 -27 19 -79 0 -30 4 -47 12 -52 2 -1 4 -3 4 -4 0 -2 2 -3 4 -3 2 0 4 -1 5
-2 1 -1 5 -2 9 -3 6 -1 9 0 34 9 9 4 14 5 27 4 2 0 6 -3 9 -6 5 -5 6 -7 6 -18
0 -18 -4 -21 -30 -27 -12 -3 -25 -6 -29 -8 -5 -1 -9 -2 -9 -2 0 1 -4 -1 -8 -4
-4 -3 -9 -5 -9 -5 -4 0 -15 -9 -15 -12 0 -2 -1 -4 -2 -4 -3 0 -6 -18 -6 -34 0
-15 0 -18 -5 -24 -5 -7 -6 -7 -47 -17 -134 -34 -211 -38 -280 -17 -14 4 -25 6
-41 7 -26 1 -28 2 -39 22 -9 17 -27 36 -39 42 -9 4 -26 4 -33 0 -6 -4 -15 -20
-17 -31 -2 -14 22 -94 41 -136 5 -9 12 -23 17 -30 5 -8 9 -14 9 -15 0 0 4 -8
9 -16 5 -8 9 -16 9 -16 0 -1 2 -5 15 -21 4 -4 10 -11 14 -15 9 -9 9 -9 22 -9
12 0 20 2 23 6 3 3 16 10 22 11 11 2 26 -2 34 -9 7 -5 7 -6 7 -20 1 -8 1 -19
2 -24 1 -5 2 -10 1 -10 0 -4 16 -17 23 -19 12 -4 39 -7 54 -6 20 1 30 7 43 26
8 12 14 15 25 15 10 0 14 -2 27 -14 8 -7 23 -14 33 -14 7 -1 33 4 41 7 9 4 16
11 16 15 0 2 0 2 2 0 2 -4 4 -1 7 16 1 2 2 6 3 8 1 2 2 4 1 4 -1 0 1 2 3 4 6
6 20 2 20 -7 0 -6 -7 -18 -15 -27 l-9 -8 0 -88 c0 -62 1 -89 2 -94 4 -11 11
-19 22 -26 10 -6 12 -7 26 -7 8 1 19 2 24 4 26 9 41 -2 35 -26 -4 -16 -20 -20
-39 -9 -34 18 -69 18 -95 2 -2 -2 -10 -7 -18 -12 -8 -5 -21 -13 -30 -19 -9 -6
-21 -14 -28 -18 -7 -5 -12 -9 -14 -14 -4 -9 -4 -30 0 -37 2 -3 3 -10 3 -16 0
-9 -1 -11 -6 -16 -9 -9 -24 -9 -36 1 -18 14 -20 15 -31 16 -11 1 -11 1 -26 -8
-7 -5 -15 -11 -17 -12 -1 -2 -3 -3 -4 -3 -3 0 -26 -24 -26 -26 0 -4 -17 -12
-32 -17 -33 -10 -63 -28 -78 -46 -12 -15 -24 -17 -47 -8 -17 6 -20 7 -31 8
-21 3 -53 -7 -68 -22 -23 -21 -26 -44 -9 -62 10 -11 12 -18 8 -26 -2 -4 -5 -7
-7 -8 -8 -3 -22 -19 -25 -30 -8 -27 14 -105 40 -144 3 -4 5 -8 5 -8 0 -4 31
-39 46 -51 5 -4 9 -8 11 -9 4 -4 21 -4 30 1 9 5 11 7 18 20 6 12 16 18 28 18
11 0 15 -2 21 -11 l5 -7 17 0 c18 0 18 0 26 12 8 13 3 35 -10 50 -6 6 -6 8 -5
15 3 19 15 29 35 29 15 0 20 -4 30 -24 10 -21 15 -27 49 -54 55 -45 108 -96
125 -122 6 -8 17 -28 25 -44 23 -46 34 -64 43 -67 9 -3 24 -3 33 0 6 2 12 3
15 3 4 0 19 -8 21 -12 2 -4 13 -8 23 -9 9 -1 12 -1 21 4 19 10 48 35 48 42 1
2 1 8 2 14 1 13 0 16 -7 18 -3 1 -6 2 -6 3 0 2 -1 2 -1 1 -1 0 -4 0 -7 2 -3 2
-6 2 -6 2 -1 -1 -3 1 -6 4 -3 3 -4 7 -4 14 0 13 6 19 19 19 9 0 10 0 20 -11
10 -11 10 -11 21 -11 19 0 19 0 31 24 38 75 47 133 36 215 -1 10 -4 26 -4 27
0 1 -1 6 -2 12 -1 6 -3 25 -6 42 -6 40 -6 41 -10 73 -1 7 -3 19 -5 28 -4 18
-4 20 -4 60 0 15 0 28 -1 29 -1 1 -4 56 -4 68 1 14 7 23 25 34 24 14 57 32 85
46 14 7 27 14 29 17 6 8 5 28 -1 40 -7 14 -7 29 1 37 3 3 7 6 9 6 15 1 19 0
36 -10 19 -10 56 -23 74 -25 8 -1 14 0 24 3 15 4 49 11 74 14 19 3 27 6 34 14
6 7 13 26 13 34 0 4 2 8 5 11 5 5 6 5 26 4 15 -1 23 0 32 2 7 2 15 4 18 5 8 2
19 -1 24 -6 4 -6 4 -23 0 -30 -4 -5 -3 -25 2 -34 4 -7 9 -10 29 -17 25 -8 46
-20 70 -40 19 -15 20 -16 45 -22 24 -6 28 -10 26 -28 0 -7 -3 -20 -7 -29 -6
-18 -6 -23 -2 -55 2 -19 1 -58 -3 -79 -15 -84 -62 -143 -139 -173 -30 -12 -61
-18 -100 -20 -12 -1 -24 -2 -28 -2 -6 -1 -26 -10 -28 -13 -2 -3 -16 -8 -21 -8
-7 0 -13 4 -27 18 -13 13 -18 16 -40 23 -37 11 -79 29 -105 47 -18 11 -22 13
-33 14 -12 1 -28 -4 -39 -11 -20 -12 -22 -28 -10 -53 18 -36 32 -63 38 -71 7
-9 24 -15 43 -16 23 -1 30 -5 34 -21 2 -7 2 -10 -2 -22 -5 -16 -6 -32 -2 -41
4 -9 31 -35 39 -35 12 -1 23 0 31 3 18 6 28 1 28 -15 0 -8 4 -27 8 -34 6 -11
51 -31 83 -37 3 0 14 -2 23 -4 13 -3 29 -4 63 -4 48 0 74 3 111 11 9 2 19 5
22 5 29 6 94 35 126 55 50 31 111 89 132 126 8 13 7 38 -2 47 -6 8 -20 32 -22
41 -2 10 1 31 6 45 8 21 28 20 41 -1 3 -6 4 -6 18 -6 22 0 24 2 32 38 6 26 8
56 9 91 0 72 -8 95 -34 109 -5 2 -12 6 -15 9 -7 5 -7 11 -4 50 1 16 -1 47 -4
64 -1 6 -13 28 -15 29 -1 0 -2 1 -2 2 0 1 -1 3 -2 5 -2 2 -9 11 -18 23 -3 4
-6 8 -8 10 -4 5 -16 7 -27 5 -5 -1 -11 -5 -18 -11 -11 -10 -11 -10 -24 -10
-12 0 -14 0 -20 7 -12 12 -14 31 -5 47 5 8 6 11 6 25 l0 15 -10 7 c-50 32
-134 61 -194 68 -5 0 -13 1 -17 2 -48 8 -167 5 -228 -5 -7 -1 -15 -3 -18 -3
-5 -1 -18 -3 -35 -6 -16 -3 -69 -16 -82 -20 -16 -6 -30 -14 -38 -22 -12 -12
-16 -14 -47 -14 l-28 0 -31 -13 c-17 -7 -31 -13 -32 -14 0 -2 -7 4 -10 10 -2
4 -2 72 1 94 0 4 1 20 2 36 1 16 2 31 3 33 1 3 8 11 15 18 11 11 15 17 20 30
7 19 13 24 27 24 9 0 22 -6 26 -11 2 -3 14 -8 24 -10 12 -3 21 0 90 27 83 33
123 62 151 108 38 60 20 137 -41 178 -45 31 -123 46 -165 32 -26 -9 -39 -18
-51 -39 -4 -7 -8 -15 -9 -17 -2 -2 -3 -5 -4 -7 -1 -2 -5 -8 -9 -13 -5 -6 -8
-11 -8 -12 0 -1 -4 -5 -8 -9 -7 -7 -9 -8 -18 -8 -25 0 -26 18 -6 61 8 16 18
46 29 83 0 1 1 4 3 7 1 3 4 11 6 16 2 6 6 16 9 23 13 34 19 70 15 94 -3 16 -5
22 -11 23 -8 1 -19 9 -22 15 -1 4 -3 9 -4 11 -1 2 -2 5 -2 6 0 0 -1 1 -1 2 0
0 -1 2 -1 4 -2 10 -4 13 -15 21 -17 14 -41 28 -63 39 -11 5 -22 10 -25 12 -7
3 -32 0 -36 -5 -1 -1 -5 -3 -10 -5 -8 -3 -11 -3 -19 -1 -16 4 -37 15 -50 27
-17 15 -41 20 -81 14z m59 -62 c6 -4 6 -6 6 -20 0 -14 0 -16 -6 -20 -7 -7 -28
-7 -35 -1 -12 9 -12 31 -1 42 8 6 28 6 36 -1z m234 -74 c5 -4 5 -5 3 -9 -6
-11 -16 -14 -22 -8 -8 8 -2 19 12 22 1 0 4 -2 7 -5z m-96 -311 c16 -7 16 -43
-1 -50 -15 -6 -34 -2 -39 9 -4 8 -4 24 0 32 5 12 23 15 40 9z m196 -54 c4 -6
4 -24 -1 -30 -7 -9 -27 -9 -34 0 -5 6 -5 24 0 30 7 9 27 9 35 0z m-133 -68 c2
-5 2 -6 -2 -12 -3 -3 -6 -6 -8 -6 -5 0 -12 9 -11 13 5 12 16 14 21 5z m-37
-42 c7 -6 5 -29 -3 -37 -8 -8 -24 -8 -32 1 -9 8 -9 24 -1 32 9 9 28 12 36 4z
m-290 -27 c12 -12 3 -31 -13 -31 -11 0 -18 7 -18 18 0 11 7 18 18 18 6 0 9 -1
13 -5z m-168 -22 c5 -8 1 -16 -8 -16 -9 0 -13 8 -8 16 2 3 5 5 8 5 3 0 6 -2 8
-5z m82 -36 c4 -4 5 -7 5 -15 0 -14 -6 -20 -20 -20 -14 0 -20 6 -20 20 0 14 6
20 20 20 8 0 11 -1 15 -5z m297 -115 c7 -5 26 -34 29 -46 5 -15 -1 -32 -13
-37 -7 -2 -20 -3 -26 0 -15 6 -19 18 -17 54 1 21 1 24 5 28 6 6 14 6 22 1z
m118 -160 c9 -5 19 -9 20 -10 2 -1 5 -2 7 -2 3 0 9 -8 9 -12 0 -7 -7 -12 -19
-13 -11 -1 -43 -11 -51 -15 -4 -2 -12 -3 -23 -2 -2 0 -6 3 -9 6 -5 5 -6 7 -6
17 0 7 1 14 3 17 7 11 34 25 46 23 3 -1 13 -5 23 -9z m778 -172 c5 -5 5 -11 0
-16 -10 -10 -27 5 -16 16 4 4 12 4 16 0z m-43 -81 c4 -4 5 -7 5 -15 0 -14 -6
-20 -20 -20 -14 0 -20 6 -20 20 0 14 6 20 20 20 8 0 11 -1 15 -5z m-967 -69
c1 -2 2 -37 2 -77 l0 -73 -6 -6 c-5 -6 -6 -6 -22 -6 -9 0 -22 1 -29 2 -20 4
-34 1 -47 -10 -9 -7 -19 -12 -24 -12 -3 1 -14 13 -14 17 0 0 -2 5 -4 10 -4 7
-5 17 -4 29 0 3 69 73 104 105 9 9 21 20 26 25 9 9 9 9 13 5 2 -2 4 -6 5 -9z
m-287 3 c12 -12 3 -31 -13 -31 -11 0 -18 7 -18 18 0 11 7 18 18 18 6 0 9 -1
13 -5z m456 -7 c4 -6 4 -24 -1 -30 -7 -9 -27 -9 -34 0 -5 6 -5 24 0 30 7 9 27
9 35 0z m-86 -65 c3 -5 3 -5 0 -10 -2 -3 -5 -5 -7 -5 -2 0 -5 2 -7 5 -3 5 -3
5 0 10 2 3 5 5 7 5 2 0 5 -2 7 -5z m-318 -13 c10 -9 3 -26 -10 -26 -8 0 -15 7
-15 15 0 13 16 20 25 11z m1246 -2 c10 -9 3 -26 -10 -26 -8 0 -15 7 -15 15 0
13 16 20 25 11z m-434 -152 c5 -7 5 -9 1 -14 -6 -7 -21 -7 -27 1 -6 6 -6 7 -1
13 6 8 22 7 27 0z m368 -5 c3 -5 3 -5 0 -10 -2 -3 -5 -5 -7 -5 -2 0 -5 2 -7 5
-3 5 -3 5 0 10 2 3 5 5 7 5 2 0 5 -2 7 -5z m-985 -15 c5 -5 5 -15 0 -20 -9 -9
-24 -2 -24 10 0 8 6 14 14 14 3 0 8 -2 10 -4z m73 -77 c6 -4 6 -6 6 -20 0 -14
0 -16 -6 -20 -4 -4 -7 -5 -18 -5 -11 0 -14 1 -18 5 -6 4 -6 6 -6 20 0 14 0 16
6 20 4 4 7 5 18 5 11 0 14 -1 18 -5z"/>
<path d="M1479 3504 c-37 -4 -47 -6 -76 -12 -55 -12 -92 -26 -100 -37 -4 -6
-9 -18 -18 -44 -2 -5 -4 -11 -5 -12 -1 -1 -2 -7 -2 -12 0 -9 1 -12 6 -17 13
-12 23 -15 64 -16 9 0 20 -1 25 -2 4 -1 11 -2 14 -3 10 -1 48 -13 74 -21 43
-15 87 -38 107 -57 4 -4 8 -7 8 -7 3 0 21 -25 23 -32 3 -8 2 -21 -2 -27 -5 -8
-23 -25 -41 -39 -12 -10 -16 -13 -19 -15 -2 -2 -3 -3 -4 -3 -1 0 -2 -1 -4 -3
-1 -1 -19 -14 -39 -29 -48 -35 -47 -35 -52 -45 -12 -25 5 -56 36 -63 8 -2 13
-1 46 7 20 5 69 15 75 16 3 1 12 2 19 3 43 7 63 1 117 -35 50 -33 70 -39 103
-30 11 2 15 4 17 5 1 1 5 3 9 4 4 2 9 5 12 8 3 3 8 7 11 9 3 3 10 8 15 12 4 3
10 10 13 14 3 4 7 9 8 11 2 1 7 11 12 21 8 17 9 21 8 28 -2 12 -8 23 -19 33
-7 7 -10 13 -13 21 -6 18 -6 22 3 27 18 12 26 24 26 37 0 10 -4 15 -17 22 -7
3 -14 8 -17 11 l-5 5 6 15 c3 8 6 20 6 27 l1 12 -14 22 c-8 12 -15 22 -16 23
-1 1 -5 5 -9 11 -15 18 -43 45 -66 64 -10 7 -25 18 -31 21 -4 2 -11 6 -15 9
-8 5 -32 17 -52 26 -25 11 -40 5 -53 -22 -8 -16 -12 -19 -27 -19 -19 0 -28 11
-26 32 1 6 0 13 -3 21 -7 21 -17 25 -68 26 -20 0 -43 0 -51 -1z m74 -50 c3 -2
5 -6 5 -8 0 -2 1 -5 3 -7 6 -6 -1 -37 -10 -44 -7 -5 -22 -5 -29 0 -15 9 -18
49 -5 59 8 6 28 6 36 0z m139 -88 c4 -5 5 -13 2 -15 -5 -3 3 -37 11 -50 9 -12
0 -29 -15 -29 -15 0 -24 17 -15 29 4 6 3 38 -2 47 -4 8 -4 12 1 18 4 5 13 5
18 0z m168 -159 c8 -2 13 -7 15 -17 0 -4 2 -11 3 -15 1 -7 1 -8 -3 -11 -18
-15 -45 -14 -52 1 -4 8 -4 24 0 32 3 6 8 9 18 12 4 1 6 0 19 -2z m-1 -152 c6
-6 7 -19 2 -26 -6 -7 -21 -7 -28 0 -12 12 -4 31 13 31 6 0 9 -1 13 -5z"/>
</g>
</svg>
