<?xml version="1.0" standalone="no"?>
<!DOCTYPE svg PUBLIC "-//W3C//DTD SVG 20010904//EN"
 "http://www.w3.org/TR/2001/REC-SVG-20010904/DTD/svg10.dtd">
<svg version="1.0" xmlns="http://www.w3.org/2000/svg"
 width="717.000000pt" height="2870.000000pt" viewBox="0 0 717.000000 2870.000000"
 preserveAspectRatio="xMidYMid meet">
<metadata>
Created by potrace 1.15, written by Peter Selinger 2001-2017
</metadata>
<g transform="translate(0.000000,2870.000000) scale(0.500000,-0.500000)"
fill="#000000" stroke="none">
<path d="M50 3234 c-3 -1 -6 -1 -7 0 0 0 -1 0 -1 -2 0 -1 -1 -2 -3 -2 -4 0
-14 -12 -18 -21 -4 -10 -4 -34 0 -44 2 -4 2 -7 2 -7 -1 0 1 -2 5 -5 8 -5 30
-12 30 -9 0 3 6 2 10 -2 3 -3 7 -9 10 -16 8 -17 19 -24 39 -28 16 -3 23 -9 38
-32 38 -58 36 -56 54 -56 9 0 16 1 22 4 11 6 24 6 35 0 14 -8 32 -7 46 0 9 6
15 7 29 6 2 0 6 -3 9 -6 5 -5 6 -7 6 -18 0 -11 -1 -13 -6 -18 -3 -3 -7 -6 -9
-6 -13 -1 -19 0 -27 4 -11 6 -31 7 -41 3 -7 -4 -7 -4 -7 -16 0 -15 4 -22 19
-37 12 -12 12 -12 25 -13 15 -2 21 -2 22 1 1 4 14 2 18 -2 3 -3 4 -6 4 -14 -1
-20 4 -39 12 -46 3 -2 5 -4 6 -4 0 0 5 -3 9 -7 4 -4 10 -9 13 -10 7 -5 10 -15
11 -29 1 -13 0 -14 -4 -18 -3 -2 -7 -4 -8 -4 -5 0 -21 -12 -24 -18 -4 -7 -6
-25 -3 -29 1 -1 11 -16 22 -33 10 -17 22 -33 25 -37 5 -7 17 -14 24 -16 2 0 6
-1 9 -2 3 0 8 -1 11 -2 20 -3 30 -18 25 -38 -3 -11 -8 -16 -23 -20 -7 -2 -13
-4 -15 -5 -2 -1 -6 -3 -10 -5 -13 -5 -34 -30 -37 -43 -3 -13 -5 -24 -5 -36 0
-14 -5 -21 -15 -23 -16 -4 -35 -15 -43 -26 -12 -14 -14 -17 -15 -25 -4 -26 -7
-31 -24 -37 -6 -2 -11 -4 -11 -5 0 -1 -6 -10 -14 -21 -12 -17 -43 -59 -49 -68
-1 -2 -10 -14 -19 -27 -21 -28 -22 -35 -12 -58 11 -28 7 -42 -14 -42 -11 0
-20 6 -20 13 0 4 -9 23 -13 28 -5 5 -16 11 -18 10 0 -1 -1 -1 -1 1 0 2 -9 2
-46 -3 -4 0 -13 -1 -21 -2 -30 -3 -46 -12 -53 -31 -5 -13 -6 -62 -1 -76 3 -9
14 -22 18 -22 2 0 3 -1 3 -2 0 -3 13 -3 131 -3 140 0 123 -3 152 27 3 3 8 7
11 7 6 2 17 -4 22 -11 4 -6 13 -15 21 -20 8 -4 53 -4 53 0 0 1 1 2 3 2 4 0 14
12 18 21 2 6 3 15 3 38 0 35 -4 47 -17 59 -11 9 -28 6 -42 -7 -3 -4 -9 -8 -13
-10 -6 -4 -6 -4 -13 0 -3 2 -9 7 -12 13 l-6 9 -15 1 c-15 1 -15 1 -21 -5 -10
-11 -15 -13 -28 -13 -14 0 -19 3 -25 15 -6 12 -6 26 1 33 7 7 24 7 37 0 12 -6
30 -7 41 -3 6 2 9 5 15 14 3 7 9 16 12 21 18 29 103 164 120 192 26 42 31 48
41 48 4 0 9 -10 9 -18 0 -2 14 -23 21 -33 2 -3 5 -3 19 -3 l16 1 5 11 c3 6 7
13 10 16 5 6 15 5 21 -1 4 -4 4 -6 4 -28 0 -13 0 -30 0 -37 0 -11 -1 -15 -5
-25 -4 -9 -6 -15 -6 -25 0 -15 -4 -8 59 -106 l24 -37 -6 -5 c-6 -6 -11 -7 -54
-9 -12 -1 -24 -2 -27 -3 -6 -2 -20 -14 -16 -14 1 0 0 -1 -1 -3 -2 -3 -3 -10
-3 -26 0 -12 -1 -29 -3 -37 -4 -22 1 -34 18 -44 l9 -5 84 0 c55 -1 87 -1 92 1
11 3 25 12 31 21 7 9 14 13 24 13 10 0 17 -4 24 -13 10 -14 32 -25 46 -22 4 1
18 1 31 1 28 -1 247 -1 257 0 3 1 6 2 6 2 0 1 1 2 3 2 4 0 14 12 18 21 4 9 4
61 1 74 -5 18 -22 30 -46 32 -13 1 -20 0 -25 -6 -3 -3 -4 -34 -1 -36 3 -2 2
-9 -2 -14 -3 -5 -34 -16 -47 -16 -30 -1 -41 34 -18 56 12 11 15 17 15 31 0 12
-1 13 -13 33 -8 11 -17 25 -21 31 -4 6 -10 17 -15 24 -5 7 -13 20 -18 28 -11
18 -16 25 -36 55 -17 26 -25 31 -52 35 -18 2 -25 6 -28 16 -4 10 -3 17 1 32 2
7 4 17 4 24 0 12 0 11 -20 42 -8 13 -20 32 -31 49 -4 7 -11 18 -16 25 -5 7
-12 18 -16 25 -7 12 -15 23 -33 52 -13 20 -15 26 -12 40 2 6 6 14 12 22 12 15
22 33 21 38 0 2 0 7 -1 10 0 3 -1 5 -2 4 -1 -1 -2 0 -2 1 0 5 -22 6 -34 1 -8
-3 -17 -2 -25 2 -3 2 -9 3 -12 3 -9 0 -25 10 -37 22 -14 15 -21 17 -45 15 -16
-1 -18 -1 -22 3 -7 7 -7 17 2 29 8 13 11 20 10 31 0 10 0 9 -29 53 -9 14 -21
28 -30 33 -6 4 -11 14 -18 36 -4 10 -9 21 -11 24 -2 2 -7 9 -10 16 l-6 11 5 6
c8 8 21 12 48 15 26 2 34 5 41 14 4 6 5 9 9 20 0 2 1 15 1 30 1 21 1 28 -2 35
-4 9 -14 21 -18 21 -2 0 -3 1 -3 2 0 0 -2 2 -5 2 -6 1 -214 1 -270 0 -13 0
-87 0 -165 1 -78 0 -143 0 -146 -1z m253 -48 c3 -3 9 -8 12 -11 7 -6 15 -10
33 -17 15 -5 18 -10 18 -23 0 -18 -18 -25 -37 -14 -10 6 -24 13 -29 14 -2 0
-5 1 -6 2 -1 1 -6 2 -11 2 -18 2 -24 10 -23 30 2 16 7 21 25 21 10 0 14 -1 18
-4z m226 -145 c3 -5 3 -5 0 -10 -2 -3 -5 -5 -7 -5 -2 0 -5 2 -7 5 -3 5 -3 5 0
10 2 3 5 5 7 5 2 0 5 -2 7 -5z m0 -254 c3 -3 3 -3 0 -6 -4 -5 -11 1 -7 6 4 4
4 4 7 0z m131 -1 c5 -5 5 -11 0 -16 -10 -10 -27 5 -16 16 4 4 12 4 16 0z
m-209 -22 c5 -3 7 -5 9 -17 1 -8 1 -9 -3 -13 -4 -4 -4 -4 -11 -1 -7 4 -9 7
-11 19 -2 13 4 17 16 12z m116 -69 c5 -2 11 -4 14 -6 12 -5 31 -11 36 -11 3 0
7 -2 10 -5 6 -4 6 -6 6 -20 0 -14 0 -16 -6 -20 -4 -4 -7 -5 -17 -5 -16 0 -18
2 -29 18 -5 7 -13 17 -18 21 -4 4 -10 11 -12 14 -3 6 -3 7 0 12 5 6 6 6 16 2z
m158 0 c16 -8 26 -34 17 -43 -6 -6 -16 -5 -23 1 -11 10 -16 31 -10 40 5 6 7 6
16 2z m-169 -141 c5 -5 5 -14 1 -19 -5 -7 -27 -7 -30 0 -1 4 2 11 8 18 6 6 15
7 21 1z m-209 -171 c4 -5 4 -7 0 -13 -5 -6 -11 -5 -18 3 -6 6 -7 8 -5 10 8 8
16 8 23 0z m635 -217 c5 -6 5 -12 0 -18 -7 -8 -22 -2 -22 9 0 11 15 17 22 9z
m-322 -45 c-4 -6 -5 -6 -10 0 -4 4 -4 4 1 9 l4 4 4 -4 c5 -4 5 -5 1 -9z"/>
<path d="M842 3235 c-1 0 -3 -1 -5 -2 -8 -1 -23 -10 -28 -16 -3 -4 -6 -14 -9
-26 -2 -11 -7 -26 -9 -33 -11 -30 5 -50 43 -55 58 -7 63 -10 51 -30 -10 -17
-8 -36 5 -48 11 -10 12 -14 13 -37 1 -11 2 -24 3 -28 1 -7 1 -8 -4 -11 -2 -2
-6 -4 -7 -3 -6 1 -15 7 -16 10 -1 2 -2 4 -3 4 -1 0 -3 3 -4 6 -1 3 -5 8 -9 11
-5 5 -7 5 -19 5 -7 -1 -13 -2 -14 -4 0 -1 -1 -2 -2 -1 -2 1 -12 -12 -35 -50
l-19 -31 0 -13 c1 -14 10 -27 20 -31 7 -3 25 -1 39 5 7 3 16 5 20 6 25 4 37
11 50 27 8 10 11 15 12 22 2 16 9 26 20 32 10 5 16 11 28 28 1 3 7 10 12 17 5
7 12 17 16 22 4 6 10 15 14 20 4 6 10 13 12 16 5 5 5 7 4 19 -1 15 -1 15 -15
30 -6 5 -10 10 -10 11 0 21 -8 57 -14 64 -1 1 -2 7 -3 12 -2 16 -7 32 -12 37
-9 11 -16 13 -48 13 -16 0 -40 1 -53 2 -13 1 -24 1 -24 0z"/>
<path d="M1142 3233 c-11 -4 -21 -10 -26 -17 -13 -16 -29 -15 -42 1 -6 7 -24
17 -31 17 -5 0 -9 -2 -15 -8 -17 -17 -13 -49 10 -80 5 -6 9 -11 9 -13 0 -1 2
-6 5 -11 12 -22 26 -29 53 -25 6 1 13 2 17 2 4 1 9 2 12 2 3 0 10 1 15 2 21 3
36 13 43 30 5 12 6 64 1 76 -4 9 -14 21 -18 21 -2 0 -3 1 -3 2 0 1 -1 1 -2 1
-2 1 -7 1 -12 2 -6 1 -12 0 -16 -2z"/>
</g>
</svg>
