<?xml version="1.0" standalone="no"?>
<!DOCTYPE svg PUBLIC "-//W3C//DTD SVG 20010904//EN"
 "http://www.w3.org/TR/2001/REC-SVG-20010904/DTD/svg10.dtd">
<svg version="1.0" xmlns="http://www.w3.org/2000/svg"
 width="1108.000000pt" height="2870.000000pt" viewBox="0 0 1108.000000 2870.000000"
 preserveAspectRatio="xMidYMid meet">
<metadata>
Created by potrace 1.15, written by Peter Selinger 2001-2017
</metadata>
<g transform="translate(0.000000,2870.000000) scale(0.500000,-0.500000)"
fill="#000000" stroke="none">
<path d="M419 3845 c-12 -4 -13 -6 -13 -20 0 -18 4 -20 36 -24 12 -2 17 -7 14
-17 -1 -4 -3 -10 -3 -14 0 -4 -1 -7 -1 -8 0 -1 -2 2 -5 5 -3 3 -6 5 -7 5 0 0
-3 1 -5 1 -8 3 -24 1 -31 -2 -15 -7 -28 -23 -29 -36 -1 -3 -1 -6 -2 -7 -2 -1
4 -12 8 -15 3 -2 5 -2 5 -1 0 1 3 1 8 1 5 -1 9 0 15 4 4 3 8 5 8 5 1 0 8 4 15
8 14 8 21 17 19 23 0 1 1 2 3 2 2 0 4 -1 4 -2 0 -2 1 -3 3 -4 2 0 3 -2 3 -3 0
-2 1 -6 3 -9 4 -7 1 -16 -10 -39 -8 -16 -14 -22 -26 -23 -15 -2 -25 2 -30 12
l-4 7 -16 0 c-21 -1 -20 0 -16 -41 2 -16 -1 -22 -13 -36 -11 -11 -16 -24 -28
-66 -14 -49 -36 -124 -53 -173 -7 -21 -13 -40 -14 -41 0 -1 -2 -6 -4 -11 -4
-10 -3 -32 1 -32 1 0 2 -1 2 -3 0 -2 4 -6 10 -10 14 -10 17 -16 13 -22 -3 -4
-5 -4 -21 -4 -18 0 -26 -3 -32 -10 -2 -2 -13 -27 -25 -56 -20 -52 -24 -60 -50
-118 -40 -89 -86 -179 -137 -267 -14 -24 -15 -26 -12 -39 6 -27 35 -35 61 -18
3 2 12 9 19 16 7 7 22 18 33 26 21 14 40 30 38 33 0 1 0 5 2 9 5 12 4 18 -4
22 -13 6 -13 16 -3 33 6 11 18 35 18 38 0 2 8 9 13 11 5 2 16 3 42 3 33 0 33
0 39 -6 7 -7 8 -18 2 -44 -3 -15 -4 -25 -4 -88 0 -83 0 -83 18 -107 15 -19 15
-35 0 -54 -14 -19 -18 -30 -18 -55 0 -37 10 -46 56 -48 1 0 5 -3 8 -6 5 -5 6
-7 6 -18 0 -11 -1 -13 -6 -18 -3 -3 -7 -6 -8 -6 -34 -2 -45 -6 -52 -21 -4 -8
-4 -12 -4 -86 l0 -78 6 -12 c3 -7 7 -14 10 -16 2 -3 5 -8 7 -13 3 -8 3 -9 0
-17 -2 -4 -7 -12 -10 -16 -12 -14 -13 -21 -13 -89 0 -73 -1 -71 21 -70 8 0 14
1 15 1 1 1 2 0 2 -1 0 -2 2 0 4 3 8 13 22 14 48 5 26 -9 35 -15 52 -31 19 -19
24 -30 19 -38 -4 -6 -2 -6 -34 -1 -26 5 -26 5 -41 1 -18 -5 -23 -11 -25 -28
-2 -15 0 -20 6 -22 9 -3 34 -1 36 2 7 8 16 0 20 -19 6 -24 15 -33 35 -37 18
-3 90 27 123 52 17 13 24 20 31 35 l5 11 1 85 c0 83 0 86 -4 94 -5 10 -6 11
-21 10 -8 0 -12 1 -13 2 -2 3 -2 2 -2 0 0 -3 -14 -24 -19 -28 -5 -5 -13 -4
-18 1 -3 3 -3 5 -1 22 1 10 2 23 3 30 1 19 -6 41 -17 52 -9 9 -13 16 -13 28 0
22 12 30 40 27 28 -3 29 -5 20 -25 -5 -11 -5 -11 -2 -24 2 -6 4 -13 5 -14 1
-1 2 -3 2 -5 0 -3 2 -3 14 -2 16 1 17 2 22 12 5 10 5 15 1 30 -3 10 -4 12 -8
12 -6 -1 -23 7 -23 10 0 2 -1 4 -1 6 0 3 5 12 12 19 3 3 5 6 5 7 0 1 2 4 4 6
2 3 6 9 9 14 l4 9 0 236 c1 135 0 237 -1 239 -4 7 -7 15 -6 17 0 1 -1 1 -2 0
-1 -1 -8 -1 -15 -2 -13 0 -13 0 -13 5 0 5 0 5 13 5 7 -1 14 -1 15 -2 1 -1 2
-1 2 0 -1 1 0 4 2 7 4 8 3 23 -3 36 -9 21 -10 25 -6 37 2 5 5 12 6 14 7 11 8
18 9 93 l1 75 5 7 c3 4 7 8 9 9 11 3 32 26 42 47 11 22 1 43 -26 54 -5 2 -12
4 -14 5 -4 2 -12 1 -20 0 -2 -1 -5 -1 -6 -1 -2 -1 -3 -1 -3 -2 0 -1 -1 -2 -3
-2 -2 0 -5 -2 -7 -5 -13 -12 -24 -14 -30 -7 -7 8 -4 20 8 32 11 12 15 19 20
26 24 41 58 105 81 154 25 55 26 55 19 80 -4 17 -5 30 -2 36 1 2 9 7 17 11 8
4 14 8 15 9 1 0 3 2 5 3 2 1 7 7 10 12 10 16 18 22 31 26 18 6 33 15 46 29
l12 13 0 14 c-1 14 -1 15 -24 34 -3 2 -9 9 -14 15 -5 6 -13 12 -17 15 -6 4
-43 17 -52 18 -1 0 -13 4 -27 8 -14 4 -28 7 -33 7 -18 0 -33 -8 -39 -19 -5
-11 -18 -29 -22 -31 -8 -4 -23 -3 -29 3 -5 5 -6 6 -4 23 3 34 2 38 -7 48 -13
13 -24 17 -52 19 -5 0 -9 1 -9 1 2 3 -11 10 -21 13 -8 2 -11 2 -17 0z m146
-217 c6 -6 6 -15 0 -28 -6 -11 -7 -29 -2 -38 2 -3 4 -6 5 -6 4 0 10 -16 10
-26 0 -15 -7 -22 -23 -22 -7 0 -12 1 -16 4 -8 6 -25 47 -25 59 0 8 19 46 28
56 6 6 17 7 23 1z m-109 -35 l-5 -5 -4 4 -5 5 4 4 5 5 4 -4 5 -5 -4 -4z m-69
-165 c11 -10 3 -28 -11 -28 -9 0 -16 6 -16 16 0 14 17 22 27 12z m33 -98 c9
-9 4 -20 -11 -27 l-8 -4 -4 6 c-3 3 -5 7 -5 8 0 5 7 18 10 20 6 2 14 1 18 -3z
m-38 -49 c6 -14 -14 -30 -24 -19 -7 8 -4 18 9 25 6 3 11 1 15 -6z m43 -115
c10 -10 5 -23 -11 -27 -6 -2 -7 -2 -12 3 -12 15 9 37 23 24z m-44 -48 c5 -5 5
-6 4 -19 -1 -24 -8 -32 -28 -32 -19 0 -28 9 -28 28 0 21 10 28 36 29 9 0 12
-1 16 -6z m152 -234 c4 -4 4 -12 0 -16 -5 -7 -19 -1 -19 8 0 9 14 15 19 8z
m-140 -43 c10 -7 10 -27 0 -34 -7 -5 -22 -4 -28 2 -7 7 -7 23 0 30 6 6 21 7
28 2z m80 -10 c11 -11 4 -31 -12 -31 -10 0 -15 3 -18 11 -4 8 0 19 6 23 7 4
19 2 24 -3z m51 -80 c3 -3 4 -7 4 -14 0 -13 -6 -19 -19 -19 -13 0 -19 6 -19
19 0 7 1 11 4 14 7 8 23 8 30 0z m-183 -576 c3 -5 3 -5 0 -10 -2 -3 -5 -5 -7
-5 -2 0 -5 2 -7 5 -3 5 -3 5 0 10 2 3 5 5 7 5 2 0 5 -2 7 -5z"/>
<path d="M889 3834 c-12 -3 -16 -9 -17 -24 0 -7 1 -12 2 -12 3 0 12 -20 12
-27 0 -3 -2 -9 -4 -12 -7 -8 -6 -30 2 -40 3 -4 6 -7 8 -7 4 0 10 -5 10 -8 0
-2 1 -4 2 -5 4 -4 0 -18 -6 -24 -5 -4 -7 -5 -15 -5 -13 0 -29 -4 -37 -8 -9 -6
-14 -17 -21 -53 -4 -18 -8 -36 -9 -40 -1 -4 -2 -10 -3 -12 0 -2 -2 -10 -4 -17
-2 -7 -4 -15 -4 -18 -1 -3 -7 -26 -14 -51 -12 -45 -13 -47 -11 -59 1 -7 3 -12
4 -12 1 0 2 -2 3 -3 1 -5 9 -17 12 -20 3 -3 0 -13 -10 -31 -3 -6 -8 -23 -10
-34 -2 -13 -23 -66 -26 -69 -2 -2 -10 -6 -17 -9 -17 -10 -28 -22 -36 -43 -3
-9 -7 -19 -9 -22 -20 -45 -21 -53 -11 -78 10 -24 8 -30 -13 -36 -28 -8 -34
-15 -38 -44 -1 -4 -2 -8 -2 -9 0 0 0 -4 1 -8 1 -4 3 -9 3 -11 4 -16 9 -20 25
-19 12 1 21 6 23 15 1 2 2 5 3 6 1 1 4 4 6 7 2 3 10 8 19 12 14 6 21 11 31 23
1 1 3 5 5 9 2 3 6 8 9 10 4 3 10 7 13 10 3 3 7 6 8 6 2 0 1 28 -1 28 -2 1 -14
10 -24 19 -7 7 -7 7 -7 22 0 18 3 22 19 26 29 8 31 9 36 19 4 8 5 11 5 30 -1
20 -1 20 5 26 8 9 26 9 34 0 6 -5 6 -5 5 -30 0 -38 6 -47 30 -45 16 0 17 0 28
14 5 6 14 16 18 21 4 5 11 13 15 18 4 5 9 12 12 15 9 11 12 17 19 38 7 21 9
23 23 32 l8 6 1 17 0 16 -8 6 c-11 8 -15 13 -15 23 0 5 1 9 5 12 7 7 16 7 36
-3 9 -5 17 -9 19 -10 11 -3 18 -3 45 -2 l30 1 6 -6 6 -6 0 -135 c0 -122 0
-136 3 -142 11 -23 11 -37 0 -60 -3 -7 -5 -55 -2 -66 7 -25 7 -35 1 -64 -1 -3
-2 -7 -2 -10 0 -3 -2 -6 -3 -8 -2 -2 -4 -6 -4 -9 -1 -11 2 -38 5 -40 7 -7 0
-21 -10 -21 -6 0 -13 6 -13 12 0 6 2 10 6 10 2 0 2 1 1 2 -1 0 -2 4 -3 8 -1
18 -6 25 -20 28 -4 1 -43 2 -86 2 -99 0 -97 0 -113 -34 -8 -17 -13 -21 -27
-21 -14 0 -19 4 -27 21 -8 19 -14 25 -25 30 -9 4 -13 4 -85 4 -52 0 -79 -1
-83 -2 -21 -7 -29 -25 -21 -51 7 -24 11 -27 31 -28 10 0 15 1 20 5 9 5 26 6
32 1 2 -2 8 -11 13 -20 7 -13 10 -17 18 -22 l10 -6 109 -1 c95 0 110 0 117 3
11 4 18 11 23 23 4 8 12 18 16 18 4 0 12 -10 16 -18 9 -22 20 -26 61 -26 l30
1 6 -6 6 -6 -1 -282 c0 -210 0 -284 2 -291 3 -10 12 -20 25 -27 26 -14 26 -26
0 -40 -13 -7 -22 -17 -25 -27 -4 -13 -3 -133 1 -143 4 -9 14 -21 18 -21 2 0 3
-1 3 -2 0 -4 79 -4 111 1 36 5 73 16 81 23 2 2 11 6 19 9 18 7 27 16 33 33 3
11 13 25 15 22 1 -1 19 3 27 7 13 6 19 18 19 40 0 10 -1 19 -2 23 l-3 6 -16 0
c-16 -1 -16 -1 -16 4 0 5 0 5 16 4 l16 0 3 6 c2 5 3 17 3 38 0 44 -3 54 -26
70 -12 8 -16 13 -16 22 0 9 4 14 16 22 5 4 11 9 14 13 12 13 12 6 12 222 0
195 0 197 -4 207 -2 6 -5 12 -7 14 -1 2 -4 7 -6 13 -3 9 -3 9 0 19 2 5 5 10 6
12 1 1 1 2 0 2 -4 0 22 12 29 13 10 2 21 8 29 17 13 14 17 17 23 18 9 2 16 0
23 -8 26 -28 24 -27 85 -27 59 0 60 0 81 22 7 6 16 15 21 19 17 13 20 17 28
46 0 2 0 16 -1 31 -4 36 -1 46 15 52 7 3 19 2 28 -1 11 -5 15 -19 12 -38 -3
-17 -1 -27 7 -45 7 -13 7 -16 7 -27 -1 -15 -5 -20 -17 -20 -7 -1 -8 -1 -1 -1
l6 -1 0 -14 c-1 -16 0 -18 12 -22 9 -3 44 -3 63 1 8 2 20 3 26 3 13 0 32 6 38
13 3 2 6 8 7 12 1 4 3 9 4 10 5 7 12 30 12 39 0 14 -2 18 -21 33 -19 16 -20
16 -31 25 -5 4 -9 8 -10 8 -1 1 -7 6 -15 11 -7 6 -17 12 -20 15 -4 3 -14 10
-22 15 -7 6 -15 11 -16 12 -1 1 -8 6 -14 10 -7 4 -13 9 -14 10 -3 3 -25 11
-41 16 -14 4 -17 7 -27 28 -10 21 -14 24 -32 23 -24 -2 -28 -8 -26 -48 1 -19
0 -26 -2 -31 -6 -15 -21 -26 -36 -28 -19 -2 -35 -7 -42 -14 -8 -8 -9 -20 -3
-39 5 -16 5 -21 0 -26 -8 -8 -17 -5 -36 10 -16 13 -22 14 -67 14 l-40 -1 -6 6
-6 6 1 158 c0 153 0 159 -4 168 -4 10 -12 18 -23 22 -5 2 -10 6 -13 9 l-4 6 4
6 c3 3 8 7 13 9 24 9 32 35 24 71 -9 41 -3 49 35 46 10 0 38 -1 62 -1 l43 0
11 6 c6 3 12 7 14 8 6 7 18 13 25 13 7 0 19 -6 25 -13 2 -1 8 -5 14 -8 11 -6
11 -6 45 -6 38 0 44 2 60 17 14 13 17 14 30 14 12 0 21 -4 30 -13 7 -7 30 -11
35 -6 1 1 2 9 2 18 l-1 16 -12 8 c-14 10 -19 21 -15 39 3 12 1 30 -3 38 -1 3
-7 9 -12 13 -9 7 -11 8 -21 8 -15 0 -25 -6 -42 -25 -17 -20 -17 -18 -25 -43
-4 -12 -9 -24 -11 -26 -8 -9 -25 -11 -38 -4 -14 6 -34 44 -33 61 1 10 8 16 30
30 11 6 25 16 31 21 11 10 11 12 10 32 0 1 -4 4 -9 5 -8 2 -12 2 -35 -1 -16
-3 -27 8 -35 33 -7 21 -10 24 -28 24 -11 0 -14 -1 -17 -4 -5 -7 -34 -42 -41
-51 -12 -15 -14 -28 -7 -49 5 -15 5 -20 -1 -26 -4 -4 -6 -4 -23 -3 -30 2 -36
-2 -48 -31 -9 -24 -14 -28 -31 -29 -16 -1 -23 5 -32 24 -15 33 -37 40 -80 25
-22 -8 -29 -8 -52 0 -39 14 -61 9 -67 -13 -1 -6 -3 -12 -4 -14 -1 -3 -1 -5 0
-5 5 0 2 -15 -6 -31 -12 -25 -15 -27 -46 -27 -19 1 -24 2 -26 5 -7 6 -3 18 7
20 3 0 9 2 12 3 3 2 7 3 7 2 3 0 17 16 20 22 2 3 4 6 5 6 1 0 1 1 0 2 -1 1 -3
7 -4 13 -5 21 -13 25 -43 25 -19 0 -21 0 -27 5 l-6 5 8 16 c4 10 13 29 20 43
6 14 14 31 16 36 11 23 3 41 -23 53 -14 6 -40 7 -54 1 -10 -5 -21 -5 -30 -2
-17 8 -21 38 -5 50 3 3 7 6 8 7 2 1 4 2 5 2 3 0 20 20 22 27 3 11 -4 32 -16
45 -17 19 -24 22 -101 44 -39 11 -71 20 -72 20 -1 0 -6 -1 -10 -2z m88 -109
c11 -11 4 -31 -12 -31 -14 0 -22 9 -19 22 3 14 21 19 31 9z m-8 -100 c3 -5 3
-5 0 -10 -2 -3 -5 -5 -7 -5 -2 0 -5 2 -7 5 -3 5 -3 5 0 10 2 3 5 5 7 5 2 0 5
-2 7 -5z m43 -109 c12 -15 -7 -35 -21 -22 -10 10 -3 26 11 26 4 0 8 -1 10 -4z
m-132 -95 c15 -8 14 -41 -1 -48 -7 -4 -24 -5 -31 -1 -8 4 -16 14 -16 19 0 2 2
9 4 15 2 6 4 11 4 11 0 1 2 2 5 3 10 6 24 6 35 1z m665 2 c3 -3 3 -3 0 -6 -4
-5 -11 1 -7 6 4 4 4 4 7 0z m-158 -96 c7 -4 10 -11 10 -23 0 -15 -4 -21 -17
-25 -11 -4 -24 -2 -30 5 -9 8 -9 32 0 41 7 7 27 8 37 2z m-118 -22 c9 -12 -1
-31 -26 -52 -12 -11 -17 -24 -17 -45 0 -10 -1 -13 -5 -17 -7 -7 -19 -7 -26 0
-8 7 -7 16 3 33 5 8 9 16 9 18 2 6 1 19 0 33 -1 10 0 15 1 19 8 14 53 22 61
11z m56 -117 c16 -7 16 -43 -1 -50 -15 -6 -34 -2 -39 9 -4 8 -4 24 0 32 5 12
23 15 40 9z m-99 -77 c5 -4 8 -9 8 -10 0 -1 3 -5 6 -9 3 -3 6 -7 6 -8 0 -1 2
-2 6 -3 14 -3 30 -10 33 -14 9 -12 0 -29 -15 -29 -9 0 -12 2 -30 23 -7 8 -9
10 -15 11 -4 0 -8 1 -9 1 -1 1 -6 2 -10 2 -14 2 -21 10 -21 23 0 23 25 32 41
13z m146 -313 c5 -5 6 -7 6 -17 0 -16 -7 -23 -23 -23 -10 0 -12 1 -17 6 -5 5
-6 7 -6 17 0 16 7 23 23 23 10 0 12 -1 17 -6z m-93 -64 c7 -7 8 -22 2 -31 -4
-5 -21 -19 -24 -19 -2 0 -5 -1 -9 -3 -13 -7 -29 -5 -39 4 -10 8 -10 32 -1 42
7 8 34 15 54 14 9 -1 12 -2 17 -7z m71 -128 c5 -6 5 -26 1 -48 -5 -26 -10 -30
-36 -28 -2 0 -6 3 -9 6 -5 5 -6 7 -6 17 0 16 12 42 24 52 7 7 21 7 26 1z
m-166 -214 c5 -5 5 -11 0 -16 -10 -10 -27 5 -16 16 4 4 12 4 16 0z m105 -171
c12 -13 20 -19 23 -19 6 0 12 -11 7 -16 -3 -3 -5 -2 -20 2 -21 5 -22 6 -39 6
-11 0 -13 1 -18 6 -5 5 -6 7 -6 17 0 16 7 23 23 23 l12 0 18 -19z m113 -141
c7 -4 10 -11 10 -24 0 -21 -8 -28 -34 -28 -11 0 -20 6 -20 14 -1 12 2 28 7 33
7 8 26 11 37 5z m-61 -67 c5 -4 5 -7 6 -21 2 -33 -8 -46 -33 -43 -21 3 -27 26
-15 52 7 15 32 22 42 12z"/>
<path d="M1141 3763 c-11 -3 -16 -7 -21 -19 -14 -31 -15 -52 -1 -59 5 -3 24
-5 30 -3 2 1 34 -2 44 -3 16 -3 19 -3 27 -7 32 -15 64 16 49 47 -6 11 -16 16
-34 15 -28 -1 -32 -1 -44 7 -6 4 -12 8 -13 10 -1 2 -3 3 -5 3 -1 0 -3 1 -5 3
-7 6 -17 9 -27 6z"/>
<path d="M312 1934 c0 -1 -2 -3 -5 -4 -4 -1 -5 -2 -3 -2 1 0 2 -4 2 -13 0 -15
3 -22 6 -17 1 2 2 2 2 1 0 -1 1 -1 3 0 2 2 6 3 11 3 1 1 2 1 2 2 0 1 9 12 10
11 1 0 1 0 1 1 -1 0 1 3 2 7 3 6 3 7 -2 9 -4 3 -29 4 -29 2z"/>
</g>
</svg>
