<?xml version="1.0" standalone="no"?>
<!DOCTYPE svg PUBLIC "-//W3C//DTD SVG 20010904//EN"
 "http://www.w3.org/TR/2001/REC-SVG-20010904/DTD/svg10.dtd">
<svg version="1.0" xmlns="http://www.w3.org/2000/svg"
 width="1106.000000pt" height="2870.000000pt" viewBox="0 0 1106.000000 2870.000000"
 preserveAspectRatio="xMidYMid meet">
<metadata>
Created by potrace 1.15, written by Peter Selinger 2001-2017
</metadata>
<g transform="translate(0.000000,2870.000000) scale(0.500000,-0.500000)"
fill="#000000" stroke="none">
<path d="M572 3843 c-18 -7 -26 -14 -30 -28 -2 -6 -2 -37 -2 -109 l1 -101 -6
-6 -6 -6 -179 0 c-173 0 -190 0 -190 -3 0 -1 -3 -3 -6 -4 -3 -1 -10 -7 -14
-12 -4 -5 -9 -11 -11 -13 -5 -4 -18 -6 -24 -3 -2 1 -8 1 -14 0 -10 -2 -11 -3
-14 -11 -7 -19 2 -54 18 -66 13 -10 22 -11 59 -11 32 1 36 1 42 6 8 5 14 14
19 30 3 12 7 16 14 16 8 0 10 -3 17 -23 l5 -16 12 -1 c18 -1 20 0 25 13 2 6 5
14 5 17 3 18 26 25 39 13 3 -3 6 -8 6 -10 0 -8 9 -28 15 -34 8 -8 21 -12 40
-11 17 2 24 5 35 17 18 20 20 21 27 21 7 0 9 -1 27 -21 11 -12 18 -16 34 -16
11 0 13 -1 19 -6 l6 -6 0 -33 c-1 -29 0 -33 3 -40 4 -9 5 -9 23 -8 l11 0 0 -9
0 -9 -14 0 c-13 1 -15 0 -17 -3 -1 -2 -4 -5 -6 -7 -1 -2 -5 -5 -7 -7 -3 -4 -6
-4 -9 -3 -2 1 -13 2 -23 3 -19 1 -23 2 -47 4 -7 1 -17 2 -24 2 -7 1 -16 2 -21
2 -5 0 -16 1 -24 2 -8 1 -19 2 -24 2 -47 5 -81 7 -87 6 -14 -3 -24 -11 -30
-24 -1 -2 -3 -47 -3 -99 -1 -52 -2 -100 -2 -106 -2 -18 1 -26 15 -40 32 -33
36 -37 44 -42 10 -8 15 -15 15 -24 0 -10 -5 -16 -21 -24 -18 -10 -30 -21 -40
-38 -11 -18 -11 -26 -11 -95 1 -77 0 -74 32 -100 18 -13 18 -37 0 -50 -16 -14
-22 -20 -27 -29 -4 -9 -4 -11 -5 -104 0 -102 0 -107 10 -115 6 -6 24 -11 38
-11 15 0 22 -7 22 -23 0 -10 -1 -12 -6 -17 l-6 -7 -23 2 c-52 4 -72 0 -88 -17
-7 -8 -8 -8 -31 -20 -9 -5 -16 -9 -16 -10 0 -1 -5 -4 -10 -7 l-11 -5 -5 5 c-5
5 -5 5 -1 10 3 4 4 9 3 19 -1 23 -5 27 -32 26 -34 0 -47 -10 -48 -36 -1 -6 13
-52 17 -60 5 -11 16 -20 27 -24 9 -4 15 -4 94 -4 l84 0 6 -6 c4 -3 6 -6 5 -6
-1 0 -3 -3 -5 -7 -4 -12 -35 -74 -46 -94 -5 -9 -10 -18 -10 -18 0 -1 -3 -5 -6
-10 -3 -5 -6 -10 -6 -10 0 -2 -35 -55 -51 -75 -8 -12 -17 -23 -19 -26 -1 -2
-4 -6 -6 -8 -2 -2 -6 -7 -9 -11 -3 -4 -8 -9 -10 -11 -7 -7 -6 -23 1 -40 7 -18
8 -26 1 -32 -4 -4 -15 -5 -25 -2 -10 3 -26 -7 -26 -16 0 -9 12 -28 20 -32 15
-8 26 -7 54 2 29 10 61 22 76 29 7 3 12 5 13 5 7 0 93 44 135 69 26 16 34 22
34 26 0 2 1 3 2 3 1 0 5 7 7 17 1 1 2 7 4 13 2 6 4 12 6 14 4 4 16 6 26 4 11
-3 27 0 37 5 12 6 51 41 56 50 5 7 5 10 5 35 l0 26 6 5 c4 4 7 5 16 5 12 0 16
-3 30 -17 9 -10 9 -10 21 -10 15 -1 18 1 34 26 10 15 12 16 15 14 1 -1 2 -2 3
-2 1 0 5 -4 10 -10 5 -5 12 -13 16 -16 17 -16 22 -22 28 -33 3 -7 10 -19 15
-26 19 -27 41 -69 53 -101 15 -40 30 -53 70 -63 32 -8 70 -3 99 13 8 5 21 13
23 15 8 9 30 18 24 11 -2 -2 -2 -3 0 -3 2 0 -3 -14 -14 -35 -17 -34 -5 -64 28
-68 11 -2 16 0 38 14 64 42 142 112 158 141 11 21 19 33 28 39 9 7 12 16 10
33 0 3 -8 6 -16 7 -7 1 -25 -4 -27 -7 -2 -4 -13 -2 -17 2 -9 11 -2 22 13 22 7
0 13 2 20 6 l10 5 0 15 0 14 -11 11 c-14 13 -18 24 -14 38 4 15 10 19 37 22
12 1 13 1 18 -5 6 -6 6 -6 4 -17 -2 -10 -2 -14 1 -25 5 -18 8 -20 24 -20 15 0
20 4 29 23 13 27 0 51 -29 49 -9 0 -12 1 -16 5 l-6 5 4 18 c5 22 9 26 27 26 7
0 14 -1 16 -3 3 -2 10 -3 17 -3 21 -1 27 5 35 29 15 51 32 146 36 206 1 10 2
18 2 19 1 1 4 68 4 75 -1 16 -11 27 -25 30 -4 1 -9 2 -10 3 -3 1 -4 1 -4 0 0
-6 -19 2 -27 10 -2 3 -6 9 -8 14 -2 5 -5 12 -6 15 -2 3 -3 8 -4 10 -1 4 -12
16 -28 30 -6 6 -7 8 -7 17 0 20 16 26 39 14 9 -4 14 -5 27 -6 10 0 16 1 16 2
0 1 1 2 2 2 1 0 2 -2 2 -4 0 -2 2 -9 4 -15 2 -7 4 -16 5 -21 2 -20 3 -21 17
-24 11 -2 12 -2 16 1 3 2 9 3 33 3 l30 1 6 -6 6 -6 -1 -244 c0 -169 0 -247 2
-254 1 -6 7 -18 12 -27 15 -24 15 -32 1 -55 -15 -25 -15 -23 -15 -119 0 -74 0
-87 3 -93 4 -9 14 -21 18 -21 2 0 3 -1 3 -2 0 -2 1 -2 1 -2 1 1 4 1 7 0 7 -2
22 2 31 9 9 7 13 17 15 38 1 14 3 22 8 30 3 7 9 21 14 32 7 15 10 20 15 22 8
5 24 4 36 -1 10 -4 29 -5 36 -1 10 7 17 15 25 32 14 28 21 34 30 25 5 -5 5
-10 -4 -31 -1 -2 -4 -11 -6 -19 -5 -18 -14 -36 -18 -38 -2 -1 -9 -2 -16 -2
-16 1 -34 -5 -43 -12 -4 -3 -9 -11 -12 -19 -3 -8 -6 -15 -7 -16 -3 -3 -2 -12
2 -24 3 -9 5 -11 11 -13 16 -6 39 0 51 13 4 6 16 29 16 34 0 1 2 4 5 7 l5 5
13 -4 c34 -10 49 -6 62 14 11 18 14 51 8 73 -2 4 -4 13 -7 21 l-4 14 5 17 c3
9 6 20 7 24 2 5 2 86 2 254 -1 246 -1 247 -5 255 -2 4 -8 11 -13 14 -11 8 -20
17 -20 20 0 3 9 12 17 17 9 5 17 16 18 23 0 3 1 5 2 5 2 0 5 2 7 6 l5 5 24 -1
c22 0 25 0 33 5 11 5 19 20 21 38 2 22 8 26 32 28 16 1 23 3 26 7 3 3 3 27 0
32 -1 4 -39 33 -52 41 -3 2 -6 4 -7 5 -1 1 -10 7 -20 14 -10 7 -20 14 -21 15
-2 1 -7 5 -13 9 -6 4 -13 8 -15 10 -2 2 -14 8 -27 13 -24 10 -28 12 -40 29 -8
11 -26 29 -31 32 -5 2 -27 3 -32 1 -2 -1 -11 -11 -19 -22 -9 -11 -17 -21 -19
-23 -1 -2 -10 -13 -19 -25 -9 -12 -17 -22 -18 -23 -1 -1 -4 -5 -7 -9 -3 -4 -6
-8 -7 -9 -1 -1 -7 -9 -14 -18 -8 -9 -16 -20 -19 -23 -3 -3 -7 -9 -10 -12 -2
-3 -8 -10 -13 -14 -13 -13 -19 -13 -36 3 -20 18 -23 19 -52 20 -20 0 -27 0
-33 -3 -14 -6 -23 5 -18 21 1 4 1 15 1 24 -1 16 -2 19 -7 26 -6 9 -27 22 -37
22 -12 0 -21 11 -21 27 0 16 9 27 21 27 10 0 31 13 37 22 6 8 6 9 7 36 0 26 1
27 6 33 3 4 6 6 10 5 5 0 27 10 34 16 6 6 17 12 21 12 2 0 10 -3 18 -7 25 -12
29 -12 66 -8 17 2 36 4 40 4 13 2 13 1 13 22 l1 19 -13 5 c-7 3 -17 9 -22 14
-18 18 -38 23 -58 17 -19 -6 -32 1 -32 16 0 12 4 16 34 30 17 7 21 8 30 8 7 0
20 -5 20 -8 0 -1 4 -6 9 -13 8 -11 18 -19 30 -24 10 -5 20 -12 28 -19 6 -5 14
-9 25 -13 19 -6 24 -9 35 -20 12 -12 25 -16 43 -13 7 1 16 3 19 3 3 1 11 2 16
3 6 1 21 2 35 2 24 0 38 3 35 8 -1 1 0 2 1 2 3 0 8 18 6 22 -5 10 1 22 12 22
11 0 19 -15 11 -22 -1 -1 -2 -3 -2 -5 1 -2 2 -10 3 -17 0 -6 8 -13 15 -14 8
-2 22 2 36 10 20 11 25 17 25 34 0 13 -3 17 -19 32 -6 6 -19 18 -28 26 -9 9
-19 18 -23 22 -8 7 -44 40 -58 54 -5 5 -17 16 -27 25 -9 9 -21 19 -25 23 -18
17 -27 22 -49 27 -11 3 -15 6 -23 13 -12 12 -16 14 -30 14 -11 0 -13 -1 -26
-9 -7 -6 -13 -10 -14 -11 -1 -1 -6 -5 -13 -9 -6 -4 -13 -11 -16 -15 -5 -7 -13
-31 -13 -38 0 -2 -2 -5 -5 -8 -5 -5 -13 -5 -29 -1 -10 2 -13 2 -26 1 -3 0 -15
-6 -27 -13 -12 -7 -22 -13 -23 -13 0 0 -3 -2 -6 -4 -3 -2 -9 -6 -15 -9 -5 -3
-14 -8 -20 -11 -5 -3 -16 -9 -23 -13 -15 -8 -16 -10 -16 -28 1 -12 1 -12 11
-22 11 -10 11 -11 11 -22 0 -16 -7 -23 -22 -23 -12 0 -15 1 -30 16 -6 6 -15
12 -20 15 -10 5 -17 12 -26 26 -7 12 -16 20 -27 25 -11 5 -69 22 -76 22 -5 0
-5 1 -2 1 3 1 4 2 4 4 -2 5 6 6 34 8 62 3 117 15 159 35 17 8 21 11 21 15 3
12 3 29 1 29 -1 0 -2 1 -1 2 0 0 -1 2 -2 4 -2 1 -3 1 -3 0 0 -2 -15 7 -20 12
-4 4 -2 8 5 11 4 3 13 1 14 -2 1 -2 3 -2 11 0 10 3 27 11 25 13 0 0 0 4 2 7 6
15 3 53 -5 65 -15 23 -18 42 -9 51 3 3 7 5 10 5 17 1 22 -2 28 -13 9 -17 15
-25 25 -30 l11 -5 183 0 183 0 13 5 c15 6 25 13 33 24 22 32 10 67 -34 100 -8
6 -17 13 -21 17 -14 12 -31 16 -54 10 -23 -7 -31 0 -33 24 -1 29 -6 37 -28 54
-10 8 -24 20 -31 27 l-14 13 -12 0 c-16 0 -20 -2 -30 -16 -10 -13 -12 -26 -7
-44 8 -28 6 -31 -20 -31 -27 0 -32 -3 -51 -29 -12 -17 -16 -21 -25 -25 l-11
-5 -55 0 c-60 1 -61 1 -61 -1 1 -5 -5 -13 -12 -16 -12 -4 -20 0 -40 20 -19 20
-22 26 -24 44 0 13 0 15 5 20 9 12 41 26 73 33 34 7 64 29 71 50 6 19 1 44
-13 60 -4 6 -18 14 -25 15 -3 1 -9 1 -12 2 -3 0 -15 1 -26 2 -11 1 -21 2 -22
2 0 1 -6 0 -12 -2 -11 -3 -14 -5 -34 -27 -11 -12 -18 -10 -28 9 -12 24 -21 29
-66 32 -9 1 -20 2 -24 2 -11 1 -27 3 -47 4 -27 2 -43 -7 -50 -27 -4 -11 -3
-105 2 -116 l3 -9 16 1 c11 0 15 0 15 -2 0 -3 6 8 7 12 1 4 11 14 15 14 2 0 5
-2 7 -5 3 -5 3 -5 -3 -23 -8 -23 -8 -40 -1 -40 1 0 3 -1 4 -3 0 -2 3 -3 7 -3
l7 0 -6 2 c-6 2 -6 2 2 2 5 0 7 -1 6 -2 -1 -1 2 0 7 2 4 2 8 5 8 6 0 5 25 9
34 5 22 -9 23 -45 2 -54 -17 -7 -34 -1 -42 16 -3 5 -5 9 -6 9 -1 0 -2 1 -2 2
0 5 -8 10 -17 9 -5 0 -10 -1 -10 -2 -1 0 -3 -1 -5 -1 -2 0 -4 -1 -4 -2 0 -1
-4 -3 -10 -5 -13 -4 -28 -14 -30 -19 -1 -3 -6 -7 -10 -10 -4 -2 -8 -5 -8 -6 0
-1 -284 -1 -296 1 -4 0 -6 0 -6 -1 0 -1 -3 1 -6 5 l-7 6 1 42 c1 49 2 52 20
61 10 4 26 20 31 29 4 6 4 22 -1 27 -5 7 -25 6 -32 -1 -5 -6 -15 -11 -20 -11
-7 0 -10 8 -10 24 0 37 -18 49 -75 53 -10 1 -20 2 -23 2 -3 0 -13 1 -23 2 -10
1 -21 2 -24 2 -3 1 -13 1 -22 2 -9 1 -20 2 -24 2 -8 1 -21 2 -48 4 -8 0 -15 0
-17 0z m180 -236 c13 -6 18 -21 13 -38 -5 -18 -12 -22 -30 -18 -16 3 -21 7
-25 21 -2 9 0 22 6 29 7 8 24 11 36 6z m107 -59 c10 -9 3 -26 -10 -26 -8 0
-15 7 -15 15 0 13 16 20 25 11z m-80 -30 c7 -3 11 -8 11 -14 0 -6 -4 -11 -19
-22 -7 -5 -13 -10 -14 -11 -4 -4 -18 -13 -21 -13 -11 0 -33 -9 -42 -17 -5 -5
-9 -9 -10 -9 -1 0 -3 -1 -4 -3 -4 -5 -18 -4 -23 1 -9 8 -5 28 6 30 10 2 28 14
36 23 5 7 9 12 9 13 0 3 13 8 25 11 7 1 14 4 16 6 2 2 5 3 8 4 2 0 6 1 8 2 7
1 9 1 14 -1z m601 -10 c5 -5 6 -7 6 -17 0 -16 -7 -23 -23 -23 -10 0 -12 1 -17
6 -5 5 -6 7 -6 17 0 16 7 23 23 23 10 0 12 -1 17 -6z m-221 -43 l6 -6 -1 -77
c0 -71 0 -77 4 -87 5 -14 4 -15 -23 -15 -9 0 -21 -4 -25 -8 -9 -9 -11 -17 -12
-38 0 -20 -3 -31 -8 -36 -2 -3 -4 -2 -10 4 -16 15 -49 36 -63 39 -12 3 -14 3
-21 4 -6 0 -9 0 -12 -3 -3 -2 -5 -4 -6 -4 0 0 -2 -1 -4 -1 -2 0 -5 3 -9 8 -5
7 -5 9 -4 20 2 15 3 17 14 26 l9 7 -1 16 0 15 -11 5 c-5 3 -14 5 -20 6 -5 0
-20 1 -34 3 -24 3 -63 3 -74 0 -3 -1 -7 0 -9 2 -4 3 -4 6 -5 58 l-1 56 6 6 6
6 151 0 151 0 6 -6z m224 -44 c7 -5 18 -28 15 -33 -4 -8 -37 -7 -44 2 -6 7 -5
23 1 29 6 6 21 7 28 2z m-776 -39 c7 -7 7 -20 0 -26 -5 -5 -18 -5 -24 0 -4 4
-4 22 0 26 5 6 18 5 24 0z m-29 -73 c4 -2 9 -10 13 -17 11 -21 16 -26 27 -26
12 0 20 5 27 18 7 14 14 20 20 20 6 0 13 -7 13 -12 0 -5 -7 -26 -11 -34 -4 -6
-4 -12 -4 -55 l0 -48 -6 -6 -6 -6 -58 0 -58 0 -6 6 -6 6 1 28 c1 33 4 40 19
46 17 6 22 25 13 48 -5 12 -5 23 -1 31 5 9 12 10 23 1z m207 -62 c3 -3 3 -3 0
-6 -4 -5 -11 1 -7 6 4 4 4 4 7 0z m-399 -9 c5 -5 6 -7 6 -17 0 -16 -7 -23 -23
-23 -16 0 -23 7 -23 23 0 16 7 23 23 23 10 0 12 -1 17 -6z m76 -8 c5 -5 5 -11
0 -16 -10 -10 -27 5 -16 16 4 4 12 4 16 0z m556 -27 c5 -4 9 -20 8 -33 -1 -8
-2 -11 -7 -15 -5 -5 -7 -5 -21 -4 -8 1 -24 2 -35 2 -20 1 -27 4 -27 12 0 5 7
18 13 23 3 4 5 8 5 13 l1 8 1 -8 1 -8 12 0 c8 1 13 2 19 6 17 11 21 12 30 4z
m206 -35 c5 -5 5 -11 0 -16 -10 -10 -27 5 -16 16 4 4 12 4 16 0z m-426 -8 c5
-6 5 -12 0 -18 -7 -8 -22 -2 -22 9 0 11 15 17 22 9z m143 -99 c3 -2 8 -7 11
-12 17 -26 26 -29 79 -29 35 0 40 0 48 4 8 4 22 18 23 24 1 4 9 10 12 10 2 0
4 -1 6 -3 3 -3 3 -4 1 -15 -2 -6 -5 -13 -7 -16 -8 -11 -7 -25 2 -49 10 -27 10
-33 0 -59 l-8 -21 -1 -181 c-1 -222 -1 -226 -11 -235 -4 -4 -4 -4 -10 1 -3 3
-7 7 -10 9 -2 2 -6 6 -9 8 -2 2 -7 6 -11 9 -4 3 -8 6 -9 7 -1 1 -5 4 -8 6 -3
2 -10 9 -16 14 -14 12 -16 13 -25 14 -21 3 -30 -4 -30 -24 0 -10 8 -45 12 -53
1 -2 1 -5 1 -7 -1 -5 3 -11 7 -11 10 0 28 -16 28 -26 0 -14 -18 -22 -27 -11
-6 6 -13 19 -13 23 0 1 -1 4 -3 6 -2 3 -5 3 -35 5 -15 1 -17 1 -22 7 -11 10
-8 31 6 44 7 6 13 15 18 29 4 10 4 18 4 226 0 159 -1 219 -2 227 -2 9 -4 11
-11 15 -5 3 -10 5 -11 5 -12 0 -23 40 -15 53 6 10 26 13 36 6z m-173 -7 c3 -2
6 -6 7 -9 6 -20 14 -37 22 -48 8 -10 9 -12 9 -22 0 -9 -1 -12 -5 -16 -9 -10
-33 -6 -36 5 -4 13 -16 34 -23 42 -13 14 -14 16 -14 28 0 13 3 19 12 23 8 3
22 2 28 -3z m-111 -39 l6 -6 0 -40 0 -40 -6 -6 -6 -6 -58 0 -58 0 -7 7 c-4 4
-6 7 -6 7 1 0 -3 12 -4 14 -1 1 -4 8 -6 15 l-4 13 4 13 c3 8 5 15 6 15 1 1 2
3 2 5 0 1 3 5 7 8 4 2 7 5 7 6 0 0 26 1 59 1 l58 0 6 -6z m-232 -11 c7 -6 7
-19 1 -25 -6 -7 -19 -7 -25 -1 -7 6 -7 19 -1 25 6 7 19 7 25 1z m469 -23 c3
-5 3 -6 0 -11 -4 -7 -14 -7 -18 0 -2 5 -2 6 2 12 6 7 11 7 16 -1z m350 -22 c3
-20 6 -26 15 -35 16 -17 20 -39 9 -50 -5 -5 -7 -6 -16 -6 -6 0 -14 1 -17 3 -3
2 -7 3 -8 3 -3 0 -19 14 -19 17 0 1 -1 3 -2 3 -3 1 -6 16 -5 24 1 4 4 11 7 16
3 6 8 17 11 25 10 29 20 28 25 0z m-801 -36 c8 -9 6 -16 -9 -42 -3 -4 -6 -10
-7 -13 -5 -10 -12 -14 -22 -14 -21 0 -25 19 -12 52 7 18 13 22 32 22 11 0 13
-1 18 -5z m372 -54 c12 -7 14 -33 3 -43 -8 -9 -32 -9 -40 0 -9 8 -9 32 0 41 7
7 27 8 37 2z m-181 -15 c3 -3 4 -8 4 -14 0 -11 6 -32 11 -35 1 -1 4 -6 7 -12
2 -5 5 -9 6 -9 0 0 1 -23 1 -51 l0 -52 -6 -6 -6 -6 -52 1 c-52 0 -72 -2 -80
-8 -4 -3 -24 -9 -31 -9 -14 -1 -25 7 -28 21 -5 20 3 33 22 37 4 1 12 4 19 8
17 9 23 21 23 45 0 9 1 21 3 27 2 5 3 12 4 15 2 11 4 19 6 23 2 2 3 7 4 11 2
12 8 15 31 17 26 2 41 3 41 4 3 2 18 -3 21 -7z m555 -8 c11 -10 3 -28 -11 -28
-9 0 -16 6 -16 16 0 14 17 22 27 12z m202 -21 c4 -6 3 -10 -3 -18 -3 -3 -6 -7
-6 -8 0 -2 -8 -10 -9 -9 -1 2 -7 22 -7 24 0 1 3 5 7 8 7 8 15 9 18 3z m299
-13 c1 0 5 -3 8 -6 5 -5 6 -7 6 -18 0 -11 -1 -13 -6 -18 -3 -3 -7 -6 -8 -6
-28 0 -55 -6 -64 -13 -1 -1 -7 -2 -14 -2 -19 0 -27 8 -27 27 0 21 8 27 33 26
17 0 37 3 49 8 6 3 9 3 23 2z m-1272 -49 c10 -5 14 -25 8 -39 -7 -16 -41 -18
-49 -1 -4 8 -4 24 0 32 6 12 26 16 41 8z m785 -16 c4 -4 5 -7 5 -15 0 -14 -6
-20 -20 -20 -14 0 -20 6 -20 20 0 14 6 20 20 20 8 0 11 -1 15 -5z m414 -50 c6
-4 6 -6 6 -20 l0 -15 -10 -10 c-6 -5 -13 -15 -16 -20 -5 -12 -9 -22 -9 -24 0
-3 -10 -10 -15 -10 -14 0 -19 14 -10 31 7 14 9 23 11 45 1 17 2 19 7 23 8 7
28 7 36 0z m-1130 -93 c11 -10 3 -28 -11 -28 -9 0 -16 6 -16 16 0 14 17 22 27
12z m404 -18 c7 -6 7 -19 1 -25 -6 -7 -19 -7 -25 -1 -7 6 -7 19 -1 25 6 7 19
7 25 1z m769 -37 c3 -3 4 -7 4 -14 0 -13 -6 -19 -19 -19 -13 0 -19 6 -19 19 0
7 1 11 4 14 7 8 23 8 30 0z m-863 -2 c22 -14 29 -26 30 -52 0 -12 2 -26 5 -35
5 -19 5 -20 0 -26 -7 -8 -21 -3 -25 9 -3 10 -11 15 -25 15 -12 1 -14 0 -22 -6
-12 -8 -30 -9 -39 -1 -8 6 -8 26 -1 45 3 7 7 19 8 26 5 23 11 27 40 30 14 1
21 0 29 -5z m-140 -6 l6 -6 0 -54 0 -54 -6 -6 -6 -6 -62 1 c-60 0 -62 0 -75
-4 -13 -5 -22 -13 -20 -18 0 -2 -1 -2 -3 -1 -2 0 -3 0 -3 -2 0 -1 -1 -1 -1 1
-1 1 -3 2 -4 2 -1 0 -6 4 -11 8 -6 7 -8 10 -8 16 0 9 7 17 15 16 7 -1 28 6 34
10 10 8 11 16 11 54 l-1 37 6 6 6 6 58 0 58 0 6 -6z m1085 3 c5 -5 5 -11 0
-16 -10 -10 -27 5 -16 16 4 4 12 4 16 0z m-567 -80 c6 -5 6 -16 3 -28 -3 -8
-11 -14 -19 -14 -5 0 -13 9 -13 15 0 2 -1 5 -1 7 0 6 4 17 8 20 6 5 17 5 22 0z
m106 -11 c4 -4 5 -7 5 -15 0 -14 -6 -20 -20 -20 -14 0 -20 6 -20 20 0 14 6 20
20 20 8 0 11 -1 15 -5z m-532 -63 c7 -7 7 -18 1 -35 -3 -11 -4 -16 -3 -49 1
-42 1 -44 17 -49 8 -3 11 -3 16 -1 18 7 34 0 34 -15 0 -11 5 -31 12 -46 7 -16
8 -24 2 -30 -8 -9 -28 -4 -28 7 0 4 -6 11 -12 14 -7 3 -29 2 -35 -2 -6 -5 -18
-5 -25 -1 -5 3 -6 6 -9 21 -1 9 -3 19 -4 22 0 3 -1 9 -2 13 0 4 -4 19 -8 32
-8 29 -9 34 -1 56 5 17 6 21 6 49 0 20 24 29 39 14z m836 -4 c10 -9 3 -26 -10
-26 -8 0 -15 7 -15 15 0 13 16 20 25 11z m-1085 -14 c12 -11 15 -20 8 -28 -3
-3 -18 -8 -23 -6 -1 0 -3 -1 -4 -2 -1 -1 -3 -2 -3 -1 -1 0 -2 -1 -4 -2 -2 -3
-2 -3 1 -3 3 0 3 -1 -2 -5 -3 -3 -10 -9 -15 -14 -12 -11 -21 -12 -38 -4 -15 7
-30 11 -47 10 -22 0 -30 7 -30 27 0 19 8 27 27 27 11 0 20 -4 25 -10 6 -7 36
-19 48 -18 3 0 10 1 15 1 8 0 11 1 22 12 11 11 12 12 12 20 0 5 1 7 1 5 1 -2
4 -6 7 -9z m378 -51 c10 -7 11 -16 3 -24 -12 -11 -31 -4 -31 11 0 14 15 21 28
13z m828 -1 c1 0 5 -3 8 -6 8 -8 8 -24 1 -37 -5 -9 -5 -11 -4 -26 0 -9 2 -19
3 -22 2 -6 2 -7 -1 -11 -7 -8 -48 -3 -55 6 -5 6 -5 19 1 32 5 13 10 29 12 42
2 11 6 18 13 21 5 2 8 2 22 1z m-1143 -33 c6 -3 12 -5 13 -5 4 0 -4 -7 -9 -7
-2 0 -8 -2 -13 -3 -5 -1 -11 -2 -13 -3 -2 0 -8 -5 -13 -10 -13 -11 -19 -13
-24 -7 -3 4 -4 6 -3 11 1 3 2 9 2 12 0 11 10 16 35 17 11 0 16 -1 25 -5z m517
-1 c3 -3 5 -6 5 -6 -1 -1 -1 -5 -2 -9 -4 -26 -18 -91 -26 -118 -5 -17 -9 -33
-9 -34 0 -1 -2 -3 -4 -4 -5 -1 -6 1 -17 15 -6 9 -13 13 -39 22 -15 6 -17 28
-5 48 8 14 10 28 7 38 -4 9 -40 42 -46 42 -2 0 4 7 9 10 3 1 26 2 63 2 l59 0
5 -6z m-653 -128 c7 -6 7 -19 1 -25 -6 -7 -19 -7 -25 -1 -7 6 -7 19 -1 25 6 7
19 7 25 1z m1196 -59 c14 -14 -2 -38 -20 -30 -19 8 -13 35 7 35 6 0 9 -1 13
-5z m-1319 -5 c1 0 5 -3 8 -6 5 -5 6 -7 6 -17 0 -17 -5 -24 -21 -26 -5 -1 -12
-2 -18 -3 -5 -1 -12 -2 -15 -3 -3 0 -10 -2 -16 -3 -10 -2 -11 -2 -15 2 -5 5
-5 6 -2 12 4 10 6 12 18 20 6 4 14 10 19 14 5 3 11 8 14 9 5 2 8 2 22 1z m721
-8 c9 -6 -4 -47 -18 -61 -5 -5 -6 -5 -8 -2 -2 2 -4 7 -5 11 -1 4 -6 11 -13 18
-9 8 -11 12 -11 17 0 11 6 15 24 14 8 0 17 1 19 3 4 2 8 2 12 0z m-815 -71 c4
-4 4 -5 2 -11 -2 -4 -4 -9 -7 -11 -8 -10 -25 -3 -25 10 0 14 20 22 30 12z"/>
<path d="M103 3142 c-15 -6 -22 -16 -23 -34 -1 -6 13 -52 17 -60 5 -11 16 -20
27 -24 9 -3 15 -4 61 -4 31 0 54 1 57 2 8 3 12 12 12 25 -1 7 0 11 1 11 1 0 1
1 -1 2 -4 1 -21 13 -22 14 -1 1 -4 3 -7 5 -10 4 -15 13 -15 22 1 10 -5 27 -10
33 -7 9 -15 10 -54 10 -21 0 -40 -1 -43 -2z"/>
</g>
</svg>
