<?xml version="1.0" standalone="no"?>
<!DOCTYPE svg PUBLIC "-//W3C//DTD SVG 20010904//EN"
 "http://www.w3.org/TR/2001/REC-SVG-20010904/DTD/svg10.dtd">
<svg version="1.0" xmlns="http://www.w3.org/2000/svg"
 width="1108.000000pt" height="2870.000000pt" viewBox="0 0 1108.000000 2870.000000"
 preserveAspectRatio="xMidYMid meet">
<metadata>
Created by potrace 1.15, written by Peter Selinger 2001-2017
</metadata>
<g transform="translate(0.000000,2870.000000) scale(0.500000,-0.500000)"
fill="#000000" stroke="none">
<path d="M1597 3804 c-17 -10 -31 -28 -35 -44 -2 -9 2 -24 6 -26 1 0 2 -2 2
-3 0 -2 6 -7 14 -12 13 -9 16 -10 42 -14 37 -7 56 -12 61 -18 4 -6 5 -24 1
-31 -5 -10 -22 -11 -39 -2 -31 15 -34 16 -47 17 -12 0 -14 -1 -23 -7 -8 -6
-20 -19 -26 -31 -5 -9 -28 -16 -34 -10 -2 2 -6 5 -9 7 -9 6 -10 34 -1 42 2 2
8 4 11 5 12 1 25 5 28 9 3 6 3 32 0 34 -7 4 -17 6 -26 4 -12 -3 -15 -5 -20
-13 -11 -18 -9 -18 -128 -19 -57 0 -104 -1 -106 -2 -1 -1 -6 -3 -11 -6 -25
-13 -28 -14 -39 -11 -5 2 -11 4 -12 6 -4 3 -15 8 -24 11 -12 4 -74 3 -92 -2
-18 -5 -53 -6 -109 -6 -16 0 -23 -4 -33 -17 -4 -6 -11 -12 -14 -13 -8 -3 -24
-3 -30 0 -19 10 -47 10 -60 -1 -8 -7 -18 -4 -34 10 -5 4 -14 10 -21 14 -6 4
-15 9 -19 12 -31 18 -46 18 -64 -1 -14 -15 -19 -18 -31 -18 -7 0 -10 1 -14 5
-5 5 -5 6 -4 24 2 23 2 25 -3 31 -2 3 -7 6 -14 7 -11 3 -12 3 -23 -1 -3 -1 -9
-1 -14 0 -15 4 -32 0 -46 -10 -9 -7 -21 -10 -29 -9 -18 4 -22 10 -23 32 -1 16
-4 25 -10 26 -7 2 -25 2 -24 1 1 -1 -1 -2 -3 -3 -5 -1 -7 -7 -10 -27 -2 -14
-8 -33 -11 -34 -6 -3 -31 -46 -31 -53 0 -1 -18 -39 -21 -46 -6 -10 -9 -12 -16
-13 -6 0 -9 2 -23 12 -8 7 -19 16 -23 19 -19 15 -55 39 -59 39 -1 0 -4 1 -6 2
-1 1 -10 5 -18 9 -8 4 -15 8 -16 9 -1 2 -21 11 -33 15 -11 3 -17 8 -28 22 -10
13 -22 19 -36 20 -17 0 -26 -2 -41 -9 -15 -7 -18 -10 -19 -26 l0 -11 25 -25
25 -25 32 -16 c35 -17 49 -23 57 -24 11 -2 22 -17 29 -40 3 -9 3 -13 1 -26 -5
-33 1 -40 37 -46 10 -2 12 -8 8 -25 -2 -8 -3 -23 -3 -34 0 -13 -1 -23 -3 -29
-4 -11 -4 -24 -1 -42 2 -12 2 -13 -2 -17 -2 -2 -4 -4 -4 -3 0 1 -26 -8 -34
-12 -3 -2 -10 -9 -15 -16 -5 -6 -10 -13 -10 -14 -1 -1 -7 -9 -13 -18 -6 -9
-23 -32 -37 -51 -34 -44 -35 -48 -37 -72 -1 -20 -4 -28 -12 -28 -6 0 -35 -8
-38 -11 -4 -3 -17 -16 -32 -33 -14 -15 -20 -28 -17 -38 1 -2 2 -6 2 -8 1 -4 2
-6 12 -17 4 -5 24 -13 32 -13 6 0 49 22 79 41 2 1 7 4 10 6 16 9 54 34 62 42
5 4 15 12 22 17 17 12 28 23 29 29 1 4 2 7 2 9 1 3 -4 25 -8 33 -5 8 -4 24 1
34 10 20 37 37 55 35 3 0 10 -12 8 -12 -1 0 0 -1 2 -2 1 -1 3 -3 3 -5 0 -7 37
-7 41 0 1 2 10 12 19 21 31 31 35 34 43 30 9 -5 11 -10 10 -21 -1 -11 2 -28 5
-32 2 -2 2 -3 1 -3 -1 0 4 -5 11 -12 12 -11 12 -12 12 -20 0 -7 -1 -12 -7 -21
-9 -15 -12 -30 -13 -51 0 -11 -9 -18 -24 -18 -14 0 -20 4 -24 16 -2 4 -3 8 -3
8 0 1 -1 2 -1 3 -3 3 -2 11 1 11 2 0 3 1 2 3 0 2 0 3 1 2 1 -1 2 0 2 1 0 3
-10 2 -16 -1 -3 -2 -8 -3 -11 -3 -4 0 -5 -1 -3 -2 3 -2 1 -6 -3 -6 -7 0 -11
-8 -21 -36 -5 -16 -13 -37 -18 -48 -13 -32 -7 -50 19 -53 10 -1 28 14 30 25 1
4 2 10 3 13 1 3 2 8 2 10 0 12 24 18 34 8 4 -5 5 -9 3 -30 -1 -14 2 -29 7 -33
3 -3 8 -15 8 -21 0 -12 -5 -15 -35 -15 -29 -1 -29 -1 -54 -20 -16 -13 -24 -16
-36 -15 -5 1 -13 0 -18 -1 -4 -1 -8 -2 -8 -2 0 0 -3 -1 -6 -3 -9 -4 -16 -12
-25 -30 -8 -15 -8 -17 -7 -27 1 -5 3 -11 4 -13 2 -2 3 -3 2 -3 -4 0 9 -8 16
-10 8 -3 17 -2 43 2 29 4 44 -9 38 -34 -4 -18 -17 -22 -43 -16 -23 5 -31 5
-49 -1 -10 -4 -21 -6 -32 -6 -9 -1 -18 -2 -20 -3 -2 -1 -4 -2 -4 -1 0 3 -13
-6 -21 -15 -7 -8 -9 -12 -9 -17 0 -4 -1 -8 -1 -9 0 -2 1 -4 2 -5 1 -2 1 -3 0
-3 -5 0 11 -9 17 -9 3 -1 7 -1 8 -1 0 -1 6 0 11 1 21 3 29 -2 29 -18 0 -13 -3
-16 -30 -25 -27 -9 -34 -14 -36 -25 -4 -17 -3 -25 5 -34 4 -4 7 -9 7 -9 0 -4
25 -28 31 -30 20 -6 31 -3 52 13 2 1 29 20 36 25 5 4 36 27 37 28 1 1 8 6 16
13 8 7 21 17 28 23 12 11 13 11 16 8 7 -6 8 -22 5 -96 -1 -33 -2 -42 -5 -87
-1 -15 -2 -29 -1 -31 4 -15 4 -41 -1 -55 -13 -37 -14 -38 -12 -47 1 -9 8 -25
12 -27 1 -1 3 -5 5 -10 3 -8 3 -9 -1 -14 -2 -3 -10 -8 -17 -12 -14 -7 -25 -16
-25 -20 0 -2 -1 -3 -2 -3 -1 0 -3 -2 -4 -5 -1 -4 -3 -8 -5 -11 -3 -5 -3 -20
-1 -28 1 -4 11 -10 17 -11 11 -2 22 -5 26 -9 8 -8 8 -32 -1 -40 -4 -5 -17 -8
-25 -7 -4 1 -12 0 -19 -2 -11 -3 -14 -6 -24 -15 -8 -9 -13 -12 -17 -12 -9 0
-12 5 -13 26 -2 23 -5 31 -20 45 -25 22 -45 26 -98 19 -7 -1 -23 -2 -35 -3
-41 -2 -44 -4 -45 -27 -1 -8 -1 -14 0 -15 1 0 8 -8 16 -17 8 -10 15 -18 16
-18 1 0 3 -1 5 -3 1 -1 11 -7 21 -13 21 -11 45 -28 56 -39 7 -8 28 -42 28 -46
0 -1 2 -5 3 -8 3 -5 4 -10 3 -31 0 -14 -1 -28 -1 -32 0 -9 9 -28 16 -35 9 -9
15 -23 11 -26 -2 -1 3 -21 6 -28 6 -10 10 -11 29 -11 24 0 32 6 36 27 1 10 1
14 -1 18 -2 4 -2 6 1 10 7 11 20 3 18 -10 -1 -5 0 -10 3 -15 3 -8 12 -19 12
-15 0 1 1 0 3 -1 5 -4 18 -4 38 2 40 12 71 27 79 38 6 9 5 25 -2 38 -7 14 -5
38 3 47 6 5 21 3 38 -5 4 -3 12 -5 19 -5 15 -2 24 2 30 13 3 5 6 10 7 12 1 2
6 10 11 19 11 20 18 20 24 2 3 -9 12 -22 14 -20 0 0 2 0 3 -1 4 -3 24 -4 31
-1 3 2 11 3 17 3 9 0 10 -1 17 -8 5 -5 8 -9 8 -10 0 -5 12 -19 20 -23 l9 -6
257 0 c251 0 268 0 268 3 0 1 1 2 3 2 2 0 4 1 4 3 2 4 2 31 1 31 -1 0 -6 4
-11 9 -7 7 -10 11 -14 24 -3 9 -8 21 -11 28 -11 23 -9 29 9 32 6 1 12 2 14 4
2 1 5 2 7 2 3 1 7 4 18 15 12 11 35 12 44 2 11 -10 9 -33 -3 -43 -4 -3 -11
-10 -16 -14 -7 -8 -8 -9 -7 -20 0 -13 5 -20 21 -30 5 -3 12 -11 19 -21 l10
-16 15 0 15 -1 5 11 c3 6 7 15 9 20 4 12 11 17 23 17 6 0 12 -1 15 -3 5 -3 19
-3 22 0 1 2 2 2 2 1 0 0 2 0 4 1 2 1 4 3 3 4 -1 1 0 2 2 3 2 0 2 3 1 8 -2 11
-8 27 -10 27 -1 0 -2 1 -2 3 0 4 -11 12 -26 18 -20 8 -21 10 -19 27 1 8 2 60
2 116 0 112 0 108 -14 124 -13 15 -13 25 0 40 10 11 14 21 15 41 2 26 6 31 22
31 9 0 17 -4 20 -9 5 -7 17 -19 25 -23 12 -7 75 -8 87 -2 7 4 19 20 15 20 -1
0 -1 1 1 2 1 2 2 5 2 7 0 3 1 5 3 6 1 0 1 1 -1 1 -5 0 -5 2 1 8 l4 4 5 -5 c5
-5 5 -7 1 -7 -3 0 -3 -1 -1 -1 1 -1 2 -3 2 -6 0 -2 1 -5 2 -7 2 -1 2 -2 1 -2
-4 0 8 -16 15 -20 12 -6 75 -6 87 0 9 5 16 14 18 26 1 3 2 6 3 7 1 1 1 3 1 4
-3 2 5 11 10 11 5 0 13 -9 10 -11 0 -1 0 -3 1 -4 1 -1 2 -4 3 -7 3 -19 18 -31
37 -29 25 2 49 19 61 43 8 16 8 20 5 33 -4 14 -18 28 -78 76 -2 1 -30 22 -63
47 -74 56 -67 50 -83 66 -7 7 -15 13 -16 14 -4 3 -26 2 -31 -1 -13 -7 -20 -27
-18 -48 4 -34 0 -42 -23 -46 -32 -5 -41 -11 -64 -44 -6 -9 -22 -17 -33 -17
-20 0 -29 -4 -41 -16 -7 -7 -12 -13 -12 -14 0 -4 -13 -11 -22 -11 -15 0 -23 8
-23 23 0 8 2 11 11 23 11 14 14 21 15 41 2 14 5 19 16 27 11 7 14 11 20 23 5
9 5 11 5 53 0 43 0 44 5 53 3 6 7 10 8 10 7 0 27 23 35 40 8 16 16 26 22 26 1
0 11 -4 21 -9 32 -15 34 -16 45 -14 9 1 21 5 24 9 3 3 15 8 22 8 5 0 9 -1 12
-5 3 -3 4 -5 3 -5 -1 0 5 -19 10 -29 2 -4 6 -8 9 -10 8 -3 25 -1 36 5 5 2 16
6 25 10 9 4 18 8 21 10 3 2 13 7 23 12 10 6 20 11 22 12 8 6 15 15 18 21 12
25 52 72 74 88 16 11 36 22 55 29 34 13 49 29 51 55 2 29 -15 47 -49 52 -4 1
-11 2 -15 3 -21 4 -38 -7 -48 -29 -8 -18 -13 -22 -27 -22 -17 0 -23 6 -25 26
-1 12 -5 22 -10 24 -11 4 -33 -1 -36 -8 -2 -5 -13 -9 -23 -10 -15 0 -21 4 -28
17 -10 20 -21 29 -43 34 -11 3 -21 7 -30 13 -10 7 -31 16 -46 20 -30 7 -42 -2
-45 -37 -2 -22 -6 -26 -25 -26 -14 0 -17 1 -29 17 -5 7 -6 7 -19 7 -8 0 -15
-1 -16 -2 -1 -1 -2 -2 -3 -1 -1 1 -2 -1 -2 -5 0 -3 -1 -6 -1 -7 -1 0 -4 -7 -6
-13 -5 -16 -11 -21 -27 -21 -13 0 -20 4 -24 11 -3 6 -3 24 -1 30 5 9 13 29 18
46 7 23 7 41 -2 49 -7 7 -21 7 -40 1 -22 -7 -36 -2 -41 16 -3 10 0 22 6 28 3
3 4 7 5 18 0 21 -2 23 -37 17 -24 -4 -21 -6 -93 39 l-16 10 -21 -1 c-39 -2
-40 -2 -44 23 -2 19 -9 35 -18 43 -31 26 -52 46 -75 72 -23 26 -24 28 -41 51
l-16 21 6 6 6 5 71 0 c69 0 71 0 92 5 l22 5 22 -5 c12 -3 24 -5 26 -5 15 0 30
10 37 25 11 23 26 24 35 2 4 -9 12 -18 20 -23 5 -3 14 -3 65 -4 57 -1 58 -1
62 -5 2 -3 5 -5 7 -6 4 0 4 -1 0 -1 -3 0 -6 -4 -12 -21 -4 -11 -18 -40 -31
-65 -12 -25 -25 -51 -28 -59 -3 -8 -9 -18 -12 -23 -6 -7 -7 -10 -8 -22 0 -8 1
-15 2 -18 6 -11 6 -28 1 -33 -5 -4 -6 -25 -2 -34 3 -6 13 -17 16 -17 1 0 5 -2
10 -4 5 -2 16 -5 24 -6 9 -1 19 -4 22 -5 25 -10 37 -14 46 -13 5 0 14 -4 24
-13 12 -11 18 -15 25 -16 8 -2 26 2 31 7 4 4 28 30 35 40 3 4 7 9 9 11 2 3 6
7 8 10 2 3 5 7 6 8 2 1 5 6 8 10 3 5 11 15 17 23 5 8 12 17 14 20 3 4 14 22
46 75 8 13 24 42 35 65 24 46 27 50 47 54 12 3 40 18 40 22 0 1 1 2 3 2 2 0 9
6 18 16 5 6 6 8 6 18 0 14 -3 17 -18 18 -11 0 -11 0 -19 -8 -4 -5 -8 -10 -8
-10 0 -1 -4 -4 -8 -7 -10 -7 -29 -7 -37 -1 -13 10 -9 36 8 55 25 28 2 65 -46
76 -12 2 -21 8 -21 13 0 1 -3 9 -7 17 -7 15 -18 26 -53 55 -15 12 -15 12 -28
12 -9 0 -15 -1 -19 -4z m-838 -165 c3 -2 10 -8 15 -13 5 -6 10 -10 11 -10 1 0
7 0 13 -1 12 0 12 0 31 -25 11 -15 25 -22 43 -22 9 0 13 -1 18 -5 7 -4 8 -6
20 -41 14 -42 38 -99 45 -107 4 -5 6 -5 19 -6 12 -1 15 -1 23 4 18 10 37 5 41
-12 1 -4 3 -9 4 -10 1 -1 2 -5 3 -8 1 -7 10 -15 22 -22 4 -2 9 -6 11 -9 4 -5
4 -5 0 -12 -4 -7 -18 -16 -25 -16 -6 0 -22 -19 -25 -28 -2 -8 -2 -20 0 -22 2
-2 14 -20 14 -22 0 -1 2 -4 5 -7 3 -3 5 -5 5 -6 0 -3 36 -53 50 -68 14 -15 31
-16 55 -3 21 12 47 12 53 0 3 -6 2 -22 -1 -28 -4 -6 -13 -14 -16 -14 -4 0 -33
-15 -42 -22 -16 -11 -19 -13 -34 -18 -19 -6 -28 -11 -44 -24 -14 -11 -19 -15
-37 -27 -5 -3 -9 -6 -10 -7 -1 -1 -4 -3 -8 -6 -4 -3 -12 -12 -17 -20 -16 -24
-17 -25 -42 -29 -15 -2 -25 -5 -33 -9 -45 -22 -50 -27 -67 -60 -14 -29 -23
-33 -51 -23 -23 9 -35 8 -57 -3 -9 -4 -20 -10 -23 -12 l-6 -4 -6 8 c-5 7 -6
10 -7 25 0 10 -3 27 -6 38 -3 13 -6 30 -7 49 -1 19 -4 41 -9 63 -4 19 -8 37
-8 40 -1 3 -2 7 -2 9 -1 2 -4 12 -6 23 -17 67 -24 84 -46 106 -13 13 -17 18
-17 22 0 3 -1 16 -1 29 0 25 0 26 -19 59 -19 35 -20 36 -17 51 1 3 6 10 11 16
54 57 78 86 91 108 6 10 9 13 27 32 8 8 16 16 17 18 1 2 9 7 17 13 8 5 14 11
14 13 1 13 0 29 -1 30 -2 1 -9 15 -9 17 0 4 6 11 10 11 3 0 7 -2 11 -3z m-97
-24 c6 -7 6 -22 -1 -28 -6 -7 -21 -7 -28 -1 -7 7 -7 23 0 29 7 8 22 8 29 0z
m-85 -2 c7 -6 10 -30 7 -53 -4 -30 -11 -35 -43 -31 -12 1 -17 2 -21 7 -4 2 -4
3 -1 9 2 3 3 6 3 6 0 0 1 3 3 7 2 5 3 10 3 14 0 12 8 37 13 42 8 6 28 6 36 -1z
m1129 -20 c9 -10 2 -40 -11 -49 -9 -6 -17 -5 -22 1 -8 11 -6 40 4 49 7 7 22 6
29 -1z m-184 -13 c12 -14 5 -32 -11 -32 -8 0 -22 7 -20 10 1 1 0 2 -1 2 -2 0
-1 9 1 14 1 4 20 14 24 13 1 0 4 -3 7 -7z m91 -48 c7 -6 7 -19 1 -25 -6 -7
-19 -7 -25 -1 -7 6 -7 19 -1 25 6 7 19 7 25 1z m-1115 -3 c0 0 1 -1 2 0 1 0 3
-1 5 -3 5 -3 4 -6 -3 -14 -7 -8 -17 -41 -18 -55 0 -26 -2 -30 -11 -38 -5 -4
-9 -7 -10 -7 -2 0 -20 -12 -21 -14 0 -1 -2 -2 -3 -2 -2 0 -5 -2 -7 -5 -4 -5
-9 -5 -17 0 -5 3 -15 15 -15 18 0 0 -3 5 -7 11 -14 20 -16 29 -9 37 5 6 14 6
22 2 4 -2 14 -4 22 -4 l16 -2 8 9 c13 14 15 18 19 49 2 13 4 17 11 18 3 1 6 2
7 2 4 1 9 0 9 -2z m-95 -4 c3 -3 3 -3 0 -6 -4 -5 -11 1 -7 6 4 4 4 4 7 0z
m1082 -92 c6 -6 6 -14 2 -27 l-4 -10 -10 1 c-18 1 -24 9 -20 25 4 11 9 16 19
16 6 0 10 -1 13 -5z m-51 -53 c3 -2 6 -4 8 -4 3 0 3 -6 0 -12 -3 -6 -15 -12
-22 -12 -13 0 -20 17 -12 25 8 8 19 9 26 3z m65 -8 c3 -1 5 -3 5 -5 0 -1 1 -4
3 -4 3 -2 5 -6 17 -35 10 -25 7 -38 -11 -38 -13 0 -21 9 -39 43 l-8 14 7 7 c4
4 8 9 8 12 2 8 8 10 18 6z m-1049 -24 c4 -6 4 -6 1 -11 -5 -6 -9 -6 -13 0 -4
4 -4 5 0 11 4 8 6 8 12 0z m-73 -26 c11 -11 4 -27 -14 -32 -12 -3 -14 -3 -17
2 -6 10 -3 26 6 31 8 4 20 4 25 -1z m733 -34 c5 -5 5 -15 0 -20 -9 -9 -24 -2
-24 10 0 8 6 14 14 14 3 0 8 -2 10 -4z m75 -59 c3 -3 3 -3 0 -6 -4 -5 -11 1
-7 6 4 4 4 4 7 0z m111 -33 c5 -6 5 -12 0 -18 -7 -8 -22 -2 -22 9 0 12 15 17
22 9z m-700 -151 c3 -2 6 -5 7 -6 0 -2 2 -4 4 -5 5 -6 13 -19 15 -27 3 -8 -1
-17 -8 -17 -4 0 -18 6 -20 8 -1 1 -5 5 -10 9 -12 10 -16 17 -16 25 0 14 15 21
28 13z m910 -22 c0 -1 3 -4 6 -5 4 -2 6 -5 5 -6 -1 -1 0 -2 1 -2 5 0 1 -5 -5
-8 -15 -5 -19 -5 -23 0 -8 9 -2 22 10 22 3 0 6 -1 6 -1z m62 -23 c5 -5 5 -11
0 -15 -3 -4 -14 -6 -14 -3 0 1 -2 2 -5 4 -3 1 -5 4 -5 6 0 2 -2 4 -3 5 -3 0
-2 1 1 1 3 0 8 1 11 3 7 3 11 3 15 -1z m-267 -18 c5 -1 9 -3 9 -4 0 -1 2 -2 4
-3 2 -1 5 -2 7 -4 2 -2 31 -21 49 -32 7 -4 15 -10 18 -11 3 -2 7 -5 9 -6 10
-4 16 -25 9 -30 -1 -1 -3 -6 -6 -13 -5 -14 -8 -20 -16 -37 -3 -7 -7 -17 -9
-23 -5 -14 -9 -15 -34 -15 -15 0 -26 -1 -34 -3 -11 -3 -17 -4 -28 -3 -2 0 -6
3 -9 6 -5 5 -6 7 -6 18 0 11 1 13 6 18 3 3 7 6 9 6 9 1 15 0 22 -1 22 -5 39 4
46 25 3 11 3 12 0 21 -2 5 -4 9 -5 9 -1 0 -2 1 -2 2 0 5 -12 13 -21 15 -3 0
-28 3 -56 5 -52 4 -59 5 -59 8 0 1 -1 2 -2 1 -1 0 -2 1 -3 3 0 3 2 5 15 12 27
15 33 19 46 26 19 12 26 14 41 10z m-180 -112 c0 -13 1 -15 7 -22 13 -15 31
-32 39 -36 12 -5 15 -10 15 -26 0 -16 -4 -20 -18 -21 -5 0 -11 -2 -14 -3 -2
-1 -4 -1 -5 -1 0 1 -1 1 -1 -1 0 -1 -1 -2 -3 -2 -5 0 -16 -12 -19 -20 -7 -20
3 -39 23 -44 4 -1 9 -3 11 -3 1 -1 8 3 15 8 13 8 22 20 27 35 3 10 6 12 18 11
15 -1 20 -7 20 -20 0 -9 -1 -11 -6 -15 -10 -8 -24 -18 -26 -18 -1 0 -2 -1 -2
-2 0 -1 -3 -9 -7 -17 -7 -14 -7 -16 -7 -29 1 -8 3 -17 7 -25 7 -15 6 -30 -2
-47 -4 -11 -16 -24 -23 -24 -19 -1 -25 1 -37 16 -5 7 -11 12 -19 16 l-13 6
-68 0 c-88 0 -89 0 -91 -26 -1 -8 0 -14 0 -14 4 -2 12 -19 12 -25 1 -11 0 -15
-3 -17 -5 -6 -1 -29 6 -36 5 -5 6 -5 41 -5 33 0 35 0 42 5 8 4 18 21 18 28 0
2 1 4 2 4 1 0 1 2 1 4 -2 7 6 14 15 14 9 0 17 -7 15 -14 0 -2 0 -4 1 -4 1 -1
2 -3 3 -6 1 -7 10 -18 16 -19 11 -3 23 0 34 9 20 16 26 18 53 19 13 0 28 1 34
2 9 1 14 0 27 -4 13 -4 20 -6 33 -5 14 0 18 -1 22 -5 8 -7 3 -23 -8 -30 -3 -2
-10 -7 -15 -12 -6 -4 -13 -10 -16 -12 -13 -6 -31 -2 -42 9 -5 6 -6 6 -19 6
-16 -1 -18 -2 -24 -11 -6 -11 -5 -27 6 -51 4 -11 3 -22 -2 -31 -3 -4 -5 -8 -6
-9 -1 -1 -5 -7 -10 -14 -7 -11 -15 -19 -18 -19 -4 0 -29 -16 -32 -21 -15 -21
-9 -54 12 -70 16 -11 18 -14 23 -31 5 -15 13 -32 13 -28 0 1 1 0 3 -1 1 -1 5
-2 8 -2 3 -1 5 -1 5 -2 0 -1 2 -2 4 -2 2 -1 6 -6 9 -11 5 -9 5 -10 3 -21 -3
-15 -5 -19 -11 -23 -10 -7 -37 -2 -37 7 0 1 -1 2 -1 1 -1 0 -4 1 -7 3 -5 5
-22 10 -31 10 -17 0 -64 -4 -78 -6 -15 -2 -19 -2 -36 1 -14 2 -31 3 -58 3 -40
0 -51 -2 -63 -10 -13 -9 -21 -10 -38 -6 -23 6 -34 4 -43 -6 -4 -5 -19 -12 -25
-12 -2 0 -10 6 -17 13 -21 20 -20 20 -64 20 -21 0 -41 -1 -45 -1 -9 -1 -15 7
-18 24 -3 17 -1 25 12 41 15 20 17 27 10 56 -6 27 -3 35 15 48 l11 8 0 15 c1
8 1 15 0 16 -2 2 -24 12 -28 12 -5 0 -13 7 -17 14 -4 7 -6 10 -12 17 -3 3 -5
6 -5 7 0 2 -1 2 -1 1 -1 0 -3 1 -5 2 -2 2 -7 6 -12 9 -7 6 -10 9 -12 18 -2 6
-5 12 -6 13 -3 3 -2 16 1 19 2 1 3 2 3 1 0 0 2 0 5 1 3 1 7 1 11 0 4 -1 10 -3
14 -3 9 -1 15 -6 20 -14 7 -10 9 -14 14 -18 2 -3 4 -6 4 -7 0 -2 1 -2 1 -1 1
0 4 -1 7 -4 6 -6 11 -6 23 -3 18 6 23 17 26 54 1 9 2 18 2 20 0 2 1 17 2 34 1
34 3 63 4 69 1 6 -10 33 -17 40 -6 6 -20 32 -20 37 0 1 -4 5 -8 9 -8 7 -23 13
-38 14 -14 1 -41 11 -50 17 -6 4 -8 8 -8 12 -1 21 3 24 31 26 31 1 43 -1 49
-8 17 -21 19 -22 32 -22 14 0 16 1 19 8 6 13 7 21 7 59 -1 32 0 40 2 48 l4 10
12 -1 c11 0 12 0 18 6 12 11 17 13 28 12 8 -1 11 -3 16 -8 15 -18 19 -22 27
-25 6 -2 12 -3 14 -3 10 0 107 29 155 47 12 5 28 13 33 17 14 13 24 18 47 21
12 1 25 4 28 5 5 3 5 3 11 -3 5 -5 6 -7 6 -19z m576 22 c6 -7 2 -18 -8 -22 -7
-2 -8 -2 -12 2 -6 7 -3 17 6 21 8 4 10 4 14 -1z m-1249 -16 c5 -5 5 -15 0 -20
-9 -9 -24 -2 -24 10 0 8 6 14 14 14 3 0 8 -2 10 -4z m723 -9 c3 -3 3 -3 0 -6
-4 -5 -11 1 -7 6 4 4 4 4 7 0z m-517 -61 c5 -5 5 -15 0 -20 -9 -9 -24 -2 -24
10 0 8 6 14 14 14 3 0 8 -2 10 -4z m-137 -57 c12 -12 3 -31 -13 -31 -11 0 -18
7 -18 18 0 11 7 18 18 18 6 0 9 -1 13 -5z m829 -27 c2 -2 3 -6 3 -12 -1 -13
-4 -20 -12 -23 -6 -3 -7 -3 -11 1 -15 15 5 48 20 34z m-746 -134 c8 -1 21 -2
28 -3 17 -2 22 -6 22 -20 0 -14 -4 -17 -31 -23 -12 -3 -25 -6 -29 -7 -13 -4
-29 -2 -36 6 -9 10 -9 32 0 42 7 8 16 10 46 5z m-31 -108 c3 -2 5 -4 4 -4 0 0
1 -4 4 -8 11 -17 2 -27 -19 -20 -13 4 -18 9 -18 19 0 15 17 23 29 13z m756
-100 c10 -9 3 -26 -10 -26 -8 0 -15 7 -15 15 0 13 16 20 25 11z m-725 -72 c5
-5 6 -7 6 -17 0 -16 -7 -23 -23 -23 -16 0 -23 7 -23 23 0 16 7 23 23 23 10 0
12 -1 17 -6z m-113 -58 c3 -3 5 -8 6 -13 1 -4 4 -14 7 -22 7 -16 15 -25 38
-40 17 -11 22 -17 22 -27 0 -10 -5 -15 -16 -19 -6 -2 -13 -4 -16 -5 -7 -4 -16
-19 -16 -28 0 -22 -9 -42 -18 -39 -7 1 -25 -4 -43 -13 -31 -17 -52 -10 -52 18
0 16 4 22 21 28 19 6 36 15 42 21 7 7 9 25 4 43 -3 13 -4 17 -2 28 2 11 2 16
-1 29 -6 27 -6 33 -1 38 6 7 20 7 25 1z m755 -54 c8 -8 1 -25 -12 -29 -6 -2
-14 6 -14 14 0 16 16 25 26 15z m-897 -126 c7 -6 7 -19 1 -25 -6 -7 -19 -7
-25 -1 -7 6 -7 19 -1 25 6 7 19 7 25 1z"/>
<path d="M759 2584 c-16 -6 -24 -29 -17 -47 1 -3 3 -9 3 -13 1 -4 2 -9 2 -12
4 -22 23 -38 58 -46 15 -4 23 -4 57 -4 39 1 40 1 45 6 7 7 11 30 6 36 -3 2 -4
7 -3 16 2 35 -2 48 -23 58 l-14 7 -54 0 c-34 1 -56 0 -60 -1z"/>
<path d="M145 2674 c0 0 -2 -1 -3 -1 -10 -2 -14 -4 -17 -10 -2 -3 -6 -8 -9
-11 -3 -3 -8 -9 -11 -13 -7 -9 -11 -14 -14 -18 -1 -1 -11 -13 -22 -27 -11 -14
-21 -25 -22 -26 -1 0 -4 -3 -7 -7 -3 -3 -10 -11 -15 -17 -6 -6 -11 -12 -12
-14 -1 -2 -4 -5 -7 -6 l-6 -2 0 -20 c0 -19 0 -20 4 -19 1 1 8 3 15 4 7 2 15 5
18 6 9 4 14 4 28 -1 7 -2 18 -4 25 -4 12 0 14 1 18 5 3 3 13 9 23 14 23 11 33
21 39 40 3 12 2 18 -14 45 -7 14 -9 34 -2 38 1 0 4 5 7 9 6 9 7 25 2 32 -2 3
-16 6 -18 3z m-45 -138 c-5 -4 -5 -4 -9 0 l-5 5 4 5 5 4 5 -5 4 -5 -4 -4z"/>
<path d="M1706 2291 c-8 -5 -40 -50 -61 -85 -5 -9 -10 -16 -11 -16 -1 0 -3 -3
-5 -6 -3 -8 -6 -11 -25 -31 -7 -8 -14 -15 -14 -17 -1 -9 0 -24 2 -30 7 -23 7
-23 3 -27 -2 -2 -10 -6 -18 -8 -9 -3 -16 -7 -19 -11 -6 -6 -11 -20 -9 -28 2
-7 13 -22 19 -25 3 -1 5 -2 6 -3 3 -3 12 -3 89 -4 71 0 83 0 90 3 9 3 22 14
23 18 1 6 3 11 4 11 1 0 2 1 2 3 0 6 9 11 20 11 13 0 12 1 25 -19 16 -25 21
-27 66 -27 37 0 46 1 62 9 14 7 26 20 34 37 8 17 8 24 1 40 -6 11 -39 41 -56
49 -10 6 -17 11 -27 23 -6 6 -4 4 -39 31 -96 71 -92 68 -111 86 -10 9 -18 17
-20 18 -4 2 -26 1 -31 -2z m68 -102 c4 -3 10 -8 14 -11 4 -4 13 -10 21 -15 15
-10 18 -15 17 -32 -2 -15 -6 -19 -23 -21 -26 -3 -43 -16 -46 -36 0 -4 -1 -9
-2 -10 -2 -6 -15 -11 -26 -11 -15 0 -21 4 -29 20 -4 8 -8 15 -9 16 -2 0 -3 3
-3 4 0 2 -1 3 -2 3 -1 0 -2 1 -2 2 1 4 -1 6 -7 7 -8 1 -14 10 -13 18 0 5 1 6
6 30 2 10 4 21 4 24 0 8 6 15 14 16 4 1 7 2 7 2 1 0 17 0 36 -1 34 0 36 0 43
-5z m124 -74 c5 -5 5 -17 0 -22 -9 -10 -26 -3 -26 10 0 12 17 20 26 12z"/>
</g>
</svg>
