<?xml version="1.0" standalone="no"?>
<!DOCTYPE svg PUBLIC "-//W3C//DTD SVG 20010904//EN"
 "http://www.w3.org/TR/2001/REC-SVG-20010904/DTD/svg10.dtd">
<svg version="1.0" xmlns="http://www.w3.org/2000/svg"
 width="1107.000000pt" height="2870.000000pt" viewBox="0 0 1107.000000 2870.000000"
 preserveAspectRatio="xMidYMid meet">
<metadata>
Created by potrace 1.15, written by Peter Selinger 2001-2017
</metadata>
<g transform="translate(0.000000,2870.000000) scale(0.500000,-0.500000)"
fill="#000000" stroke="none">
<path d="M1671 3836 c-3 -2 -12 -10 -20 -19 -8 -8 -16 -17 -18 -20 -2 -2 -9
-10 -16 -18 -7 -7 -14 -16 -17 -19 -17 -17 -34 -39 -36 -45 -2 -7 -2 -17 1
-40 1 -8 1 -10 -3 -14 -10 -10 -30 -3 -28 10 1 3 1 5 0 5 -1 1 -2 4 -3 8 -2
12 -9 22 -18 26 -8 4 -12 4 -236 4 l-228 0 -22 -6 c-12 -4 -24 -7 -27 -7 -3 0
-15 3 -27 7 l-22 6 -247 0 c-206 0 -250 0 -262 3 -16 3 -23 5 -94 34 -24 9
-61 24 -82 32 -45 18 -90 36 -99 39 -6 3 -9 3 -18 1 -2 0 -5 -1 -6 -1 -6 0
-17 -12 -19 -20 -2 -7 -2 -100 -2 -374 l1 -365 7 -16 c9 -21 9 -32 0 -54 -6
-15 -7 -18 -8 -41 -1 -47 10 -66 43 -73 16 -3 19 -2 44 11 22 12 30 13 38 5 6
-6 7 -18 1 -25 -4 -5 -51 -22 -79 -28 -21 -5 -28 -9 -36 -20 -8 -12 -11 -26
-11 -47 1 -17 6 -33 10 -33 0 1 4 0 7 -2 3 -1 9 -3 13 -3 4 -1 8 -2 8 -4 1 -1
2 -1 2 2 0 5 12 4 16 -1 5 -6 5 -12 0 -18 -4 -5 -16 -6 -16 0 0 2 -1 2 -2 1 0
-2 -4 -3 -8 -4 -4 0 -10 -2 -13 -3 -3 -2 -7 -3 -7 -2 -1 0 -3 -3 -5 -8 -4 -7
-4 -16 -5 -146 0 -147 0 -149 9 -161 12 -16 51 -32 80 -34 9 -1 14 -2 20 -7 4
-3 16 -11 25 -17 10 -7 19 -14 21 -17 4 -7 4 -24 0 -30 -3 -3 -3 -8 -3 -18 1
-14 2 -14 13 -25 10 -11 12 -13 11 -25 0 -13 10 -39 16 -44 9 -7 10 -21 4 -56
-4 -22 -11 -29 -39 -36 -11 -3 -24 0 -29 6 -8 7 -9 27 -3 38 4 5 6 34 3 34 -1
0 -2 1 -1 2 1 1 -2 3 -5 5 -3 2 -8 6 -10 9 -3 5 -3 6 -1 14 2 5 5 12 7 15 3 3
5 8 6 13 1 4 5 10 7 14 11 16 0 23 -31 19 -13 -2 -15 0 -15 16 0 19 -6 39 -11
39 -1 0 -8 5 -15 12 -16 15 -19 16 -31 16 -9 -1 -11 -2 -17 -8 -18 -21 -14
-52 8 -78 15 -17 15 -39 0 -56 -14 -16 -19 -29 -19 -50 0 -14 4 -31 8 -37 1
-1 4 -5 8 -9 16 -20 16 -32 0 -52 -4 -4 -7 -8 -8 -9 -6 -8 -8 -23 -8 -55 0
-30 0 -34 5 -48 7 -19 12 -26 22 -28 9 -2 27 -1 32 3 5 3 15 17 16 22 0 2 2 8
3 12 1 4 2 13 1 18 0 29 21 38 53 23 8 -4 18 -9 22 -10 8 -3 18 -11 18 -15 0
-1 -1 -3 -3 -5 -2 -2 -3 -8 -3 -16 0 -19 0 -19 4 -19 29 -2 39 1 78 27 14 9
36 29 45 40 8 10 18 41 17 50 -1 4 1 6 6 11 l7 5 151 0 c166 0 160 0 171 11 6
7 13 21 14 31 1 4 4 10 7 13 13 13 36 5 39 -13 3 -19 15 -36 29 -40 5 -2 39
-2 116 -1 133 1 115 1 236 0 112 -1 110 -2 125 12 4 4 7 8 7 9 0 0 3 5 8 10
10 11 16 11 26 0 5 -5 8 -10 8 -10 0 -3 13 -15 21 -18 7 -3 13 -4 39 -4 55 0
72 8 98 46 11 17 12 18 28 18 18 0 21 -3 35 -47 14 -41 12 -54 -6 -63 -38 -20
-46 -50 -17 -65 6 -3 10 -5 10 -4 0 1 3 0 6 -2 3 -2 6 -2 7 -2 0 1 4 0 8 -2 8
-4 11 -6 19 -14 9 -7 23 -9 42 -6 19 3 18 3 54 15 49 15 69 28 83 51 5 8 8 10
24 18 21 10 29 18 33 32 1 5 2 33 2 89 l-1 81 -6 11 c-3 6 -8 13 -11 16 -20
21 -20 37 0 56 6 5 12 24 13 38 1 6 2 16 2 22 5 42 3 57 -6 67 -5 6 -16 13
-19 13 -3 0 -10 8 -10 12 0 4 7 12 10 12 6 0 24 16 24 22 1 15 -4 27 -14 34
-8 5 -18 17 -18 21 0 4 10 16 18 22 3 1 8 7 11 12 l6 10 1 197 c0 129 -1 199
-2 204 -1 4 -4 10 -6 13 -4 5 -27 17 -32 17 -5 0 -13 9 -20 22 -3 7 -8 15 -11
18 -14 16 -16 23 -14 50 1 16 -3 29 -11 38 -15 16 -16 25 -5 50 6 13 7 18 6
24 0 4 -1 8 -1 10 -1 1 -5 7 -11 13 -11 11 -14 15 -22 34 -6 14 -15 25 -21 29
-12 6 -16 24 -7 32 6 6 14 5 32 -3 9 -4 23 -10 31 -12 19 -6 18 -6 28 -26 5
-10 12 -21 16 -25 3 -4 6 -9 6 -10 0 -1 1 -2 2 -2 1 0 2 -8 2 -19 0 -11 -1
-19 -2 -19 -1 0 -2 -1 -2 -3 0 -2 -1 -3 -2 -3 -5 0 -16 -34 -16 -52 -1 -21 3
-33 15 -44 8 -8 9 -8 26 -5 7 1 17 6 17 9 1 3 1 5 3 8 1 2 1 22 1 45 -1 51 -1
52 -24 51 l-14 0 0 13 0 13 14 0 c25 -1 23 -16 24 160 l1 149 5 8 c3 4 6 7 7
7 5 0 35 22 49 36 19 18 20 23 16 44 -2 6 -8 12 -26 27 -11 9 -23 19 -28 23
-5 4 -11 8 -13 10 -2 1 -4 3 -5 4 -5 7 -26 8 -44 3 -12 -4 -12 -4 -15 1 -2 3
-4 10 -4 22 -1 20 -3 26 -12 36 -5 5 -7 6 -16 6 -17 -1 -19 -2 -35 -19 -6 -6
-8 -7 -16 -7 -12 1 -18 6 -18 14 1 4 1 8 2 9 9 14 13 45 7 52 -2 1 -3 3 -3 4
0 3 -11 14 -16 17 -6 3 -26 3 -33 -2z m5 -100 c0 -1 2 -2 4 -3 6 -2 4 -15 -2
-22 -10 -11 -28 -4 -28 11 0 10 7 16 17 16 5 -1 9 -1 9 -2z m-1002 -69 c3 -3
4 -7 4 -14 0 -13 -6 -19 -19 -19 -13 0 -19 6 -19 19 0 7 1 11 4 14 7 8 23 8
30 0z m-378 -1 c3 -3 4 -7 4 -13 0 -5 1 -12 3 -15 2 -3 2 -6 2 -6 -1 0 0 -2 1
-3 7 -8 16 -26 16 -31 0 -15 -18 -22 -28 -11 -4 4 -4 6 -3 18 0 12 0 15 -7 32
-9 21 -9 24 -4 29 4 4 12 4 16 0z m944 -1 c9 -4 11 -14 10 -35 -1 -17 9 -34
22 -38 5 -2 31 -2 78 -2 l71 1 18 7 c22 8 29 8 51 0 22 -7 26 -7 43 0 21 8 27
9 32 3 3 -4 3 -7 2 -18 -3 -20 0 -38 7 -43 2 -2 8 -14 8 -17 0 -2 -1 -5 -3 -7
-3 -4 -4 -4 -10 -1 -3 2 -8 5 -10 8 -5 6 -19 14 -27 17 -8 2 -121 14 -140 15
-14 0 -28 -6 -32 -13 -1 -2 -5 -5 -9 -6 -4 -1 -8 -3 -9 -5 -1 -2 -3 -2 -4 -2
-1 1 -25 4 -53 8 -29 4 -55 8 -58 8 -18 3 -26 3 -30 3 -5 0 -30 -9 -41 -14 -6
-3 -8 -3 -13 -1 -10 4 -48 6 -52 3 -2 -2 -4 -3 -5 -3 -3 1 -12 -4 -23 -12 -6
-5 -12 -9 -14 -9 -23 -2 -48 -19 -64 -44 -14 -21 -13 -12 -13 -167 l0 -140 5
-20 c5 -19 6 -37 3 -40 -6 -7 -9 -24 -8 -54 0 -42 4 -48 28 -52 5 0 9 -1 9 -1
1 0 4 0 7 1 7 2 19 -4 28 -12 4 -4 11 -8 15 -9 5 -1 11 -5 15 -8 5 -5 6 -6 4
-11 -1 -3 -2 -6 -1 -7 2 -4 -2 -20 -6 -26 -11 -13 -34 -18 -44 -9 -5 4 -6 6
-7 22 -2 22 -3 23 -23 25 -15 1 -15 1 -22 -5 -4 -4 -12 -11 -19 -15 -6 -4 -12
-9 -14 -11 -11 -14 -27 -18 -35 -11 -5 5 -7 17 -3 19 3 2 4 18 3 28 -2 10 -8
15 -23 16 -17 1 -23 7 -26 27 -1 11 -1 12 4 17 6 5 6 5 21 3 26 -3 41 3 50 21
5 9 6 12 6 33 -1 24 -4 101 -6 133 -1 11 0 23 1 32 4 24 -3 37 -27 48 -18 9
-21 12 -21 21 0 9 3 12 21 21 22 10 30 22 29 44 -1 23 -15 34 -45 33 -15 0
-21 5 -21 19 0 17 8 20 37 14 11 -2 19 -3 25 -2 9 1 10 2 15 12 5 11 6 18 4
39 -1 12 -1 15 3 22 7 14 4 35 -6 42 -13 9 -47 13 -61 9 -8 -3 -22 -10 -25
-13 -6 -7 -27 -11 -35 -7 -1 1 -9 8 -17 16 -11 10 -15 13 -21 13 -4 0 -5 1 -2
1 2 1 5 2 6 3 9 8 19 9 73 9 l53 0 18 7 c10 3 22 6 26 6 4 0 16 -3 26 -6 l18
-7 80 -1 c53 0 82 0 87 2 13 4 23 21 22 38 -2 27 3 35 21 39 6 1 17 -1 23 -4z
m433 -21 c4 -4 4 -8 4 -36 0 -17 1 -35 2 -40 1 -8 1 -10 -3 -14 -4 -4 -6 -4
-16 -3 -18 2 -24 12 -18 32 4 15 5 22 4 39 0 15 1 17 4 21 6 6 18 7 23 1z
m118 -20 c5 -5 6 -7 6 -16 0 -15 -8 -23 -23 -23 -9 0 -11 1 -16 7 -9 8 -9 23
-1 32 9 9 24 9 34 0z m-1204 -31 c9 -2 27 -3 78 -3 54 0 68 -1 79 -3 8 -2 14
-4 14 -5 0 -1 2 -2 5 -2 3 0 3 -1 -2 -2 -8 -2 -12 -7 -17 -18 -4 -9 -4 -13 -4
-90 l0 -80 -5 -5 c-2 -4 -5 -8 -6 -11 0 -3 -1 -1 -1 4 0 14 -13 43 -26 62 -11
14 -17 16 -48 18 -27 2 -47 7 -56 15 -4 3 -4 5 -3 15 0 6 -1 16 -2 21 -2 6 -3
11 -4 12 -2 12 -44 33 -62 31 -16 -1 -24 -9 -30 -28 -2 -6 -5 -12 -6 -14 -2
-2 -3 -4 -3 -5 0 -1 -3 -5 -6 -8 -11 -10 -14 -30 -7 -39 8 -9 30 -13 42 -7 13
7 31 3 53 -12 5 -3 12 -18 12 -24 0 -11 -7 -15 -27 -15 -23 0 -34 -5 -40 -18
-6 -11 -6 -19 -1 -40 2 -9 5 -28 7 -42 5 -44 13 -57 44 -71 33 -15 71 -14 98
4 2 2 7 3 10 3 11 1 9 -10 -6 -43 -6 -13 -22 -50 -24 -58 -5 -14 -13 -20 -20
-15 -1 0 -5 5 -9 11 -10 15 -12 17 -30 35 -19 19 -46 38 -76 53 -17 9 -20 9
-29 8 -5 -1 -11 -1 -12 -1 -2 -1 -6 -4 -10 -7 -17 -16 -31 -19 -40 -10 -8 8
-6 22 6 40 2 3 4 10 4 16 1 9 1 12 -6 24 -12 23 -11 35 2 63 11 25 11 25 11
130 l-1 97 6 6 6 6 37 -1 c27 0 40 1 49 3 16 4 41 4 56 0z m1145 -61 c7 -4 10
-11 10 -22 0 -15 -7 -22 -23 -22 -16 0 -22 6 -24 24 -1 11 -1 13 3 18 5 6 5 6
18 5 7 -1 14 -2 16 -3z m-492 -39 c3 -3 4 -7 4 -14 0 -13 -6 -19 -19 -19 -13
0 -19 6 -19 19 0 7 1 11 4 14 7 8 23 8 30 0z m-398 1 c8 -9 3 -22 -9 -22 -6 0
-13 6 -13 13 0 11 15 17 22 9z m-567 -16 c5 -4 5 -5 4 -38 -1 -38 -4 -48 -14
-55 -9 -6 -15 -9 -24 -8 -16 1 -22 6 -28 22 -2 6 -5 15 -7 21 -8 22 -4 31 18
39 5 1 13 6 16 10 15 14 27 17 35 9z m1049 -4 c5 -5 5 -7 1 -14 -2 -4 -5 -6
-8 -6 -6 0 -13 7 -13 12 0 10 13 15 20 8z m-243 -23 c3 -3 3 -3 0 -6 -4 -5
-11 1 -7 6 4 4 4 4 7 0z m76 -12 c3 -6 3 -23 3 -121 0 -133 -1 -127 21 -152 6
-6 6 -6 21 -6 10 1 18 3 24 6 13 6 14 6 28 -10 7 -8 14 -14 15 -14 2 0 3 -1 3
-1 0 -1 5 -2 10 -1 8 0 11 2 17 7 13 13 13 14 13 139 0 103 0 113 3 118 2 3 5
6 5 6 1 0 2 2 2 3 0 2 1 3 1 3 1 -2 3 -1 13 8 3 3 4 4 4 1 0 -2 2 -6 4 -9 6
-8 6 -10 6 -60 l0 -48 7 -7 c6 -7 7 -7 19 -7 7 0 12 -1 13 -2 0 -2 1 -2 1 0 0
6 8 9 20 9 13 0 20 -4 24 -11 4 -7 3 -26 -1 -32 -2 -4 -3 -8 -2 -15 1 -15 5
-21 21 -38 18 -18 35 -28 46 -26 12 2 23 9 28 19 7 15 5 58 -4 74 -4 7 -4 37
0 44 6 11 8 26 8 62 0 35 0 37 5 46 3 5 8 11 10 12 3 1 5 3 5 4 0 1 1 1 3 -1
2 -1 3 -4 3 -5 0 -1 1 -2 3 -2 1 -1 2 -20 3 -81 l1 -80 10 -19 c11 -24 11 -28
0 -52 l-10 -19 -1 -63 c0 -79 2 -90 21 -111 11 -12 13 -15 24 -46 15 -45 14
-59 -5 -65 -18 -6 -36 -20 -36 -28 0 -2 -1 -4 -2 -5 -1 -1 -2 -51 -2 -143 0
-152 0 -154 11 -173 6 -11 21 -18 45 -20 13 -2 19 -6 21 -18 1 -4 2 -9 2 -10
0 -2 -2 -4 -4 -6 -3 -2 -5 -4 -5 -6 0 -2 -2 -2 -5 -2 -2 1 -5 1 -6 -1 0 -1 -5
1 -10 3 -9 5 -11 5 -23 3 -23 -4 -26 -12 -26 -62 0 -31 1 -37 4 -47 2 -7 6
-18 9 -24 l4 -13 -4 -12 c-3 -7 -7 -18 -9 -25 -7 -20 -5 -46 5 -57 4 -5 27
-16 32 -16 2 0 13 -12 13 -15 0 -1 10 -21 17 -35 9 -16 4 -30 -10 -30 -9 0
-21 15 -21 29 0 3 -1 3 -1 1 -1 -3 -2 -3 -6 -2 -2 1 -7 2 -12 2 -4 0 -9 0 -11
1 -4 1 -20 -6 -20 -9 0 -2 -109 1 -113 4 -1 1 -3 3 -2 4 1 1 -1 2 -3 3 -4 0
-4 1 1 1 14 0 47 17 66 34 8 6 15 13 15 15 0 2 1 3 2 3 2 0 10 21 10 28 0 12
-4 21 -16 32 -16 15 -18 19 -18 32 0 13 2 16 19 33 9 9 13 14 15 22 5 19 1 40
-9 52 -5 5 -27 13 -36 13 -9 0 -16 7 -21 20 -7 22 -9 45 -3 59 2 5 12 9 25 10
24 1 39 10 44 25 1 5 2 80 2 270 l0 263 -4 9 c-6 10 -20 19 -36 21 -15 2 -17
3 -23 8 -19 22 -24 27 -36 33 -18 9 -18 9 -18 36 0 26 -2 32 -16 42 -4 2 -7 6
-7 8 0 2 -1 2 -1 1 -1 -2 -6 -3 -13 -3 -12 0 -13 -1 -19 -7 l-7 -7 0 -37 c0
-21 1 -41 2 -45 1 -4 3 -15 3 -25 1 -17 1 -18 -3 -23 -10 -11 -49 -27 -72 -30
-9 -1 -22 -4 -30 -6 -26 -6 -36 -4 -48 13 -5 7 -11 14 -14 17 -6 5 -37 20 -43
21 -6 0 -12 10 -16 29 -4 14 -12 25 -23 27 -3 1 -6 2 -7 3 -1 1 -5 3 -9 4 -10
3 -14 9 -14 18 0 9 4 15 14 18 4 1 8 3 9 4 1 1 4 2 7 3 8 2 19 13 22 22 1 6 2
32 2 88 l0 80 5 11 c3 6 7 12 9 14 2 1 4 4 4 6 0 3 3 -1 9 -13z m314 -60 c3
-5 3 -5 0 -10 -2 -3 -5 -5 -7 -5 -2 0 -5 2 -7 5 -3 5 -3 5 0 10 2 3 5 5 7 5 2
0 5 -2 7 -5z m-843 -55 c8 -8 7 -44 -2 -54 -7 -9 -28 -8 -35 0 -6 8 -4 27 6
40 11 16 23 22 31 14z m124 -134 c7 -7 8 -19 3 -31 -9 -21 -20 -23 -31 -4 -12
21 -6 41 13 41 8 0 10 -1 15 -6z m81 -8 c11 -10 3 -28 -11 -28 -9 0 -16 6 -16
16 0 14 17 22 27 12z m207 -63 l-5 -5 -4 4 -5 5 4 4 5 5 4 -4 5 -5 -4 -4z
m-584 -33 c5 -2 10 -3 11 -3 0 0 2 -1 4 -1 2 0 6 -3 9 -6 5 -5 6 -7 6 -17 0
-15 -3 -19 -20 -29 -13 -7 -22 -16 -22 -20 0 -1 -1 -2 -2 -2 -2 0 -5 -7 -8
-17 -1 -6 -3 -9 -6 -10 -2 0 -4 0 -4 1 0 4 -22 15 -31 15 -4 0 -11 10 -11 15
0 6 6 14 11 14 5 0 25 10 30 15 6 6 11 17 11 26 0 4 2 10 5 15 3 4 5 9 5 10 0
2 1 2 1 0 1 -2 5 -5 11 -6z m276 -4 c1 0 2 1 2 2 0 3 2 1 3 -2 0 -2 1 -4 2 -6
0 -2 1 -44 1 -94 1 -88 1 -91 5 -100 6 -12 12 -17 33 -24 19 -7 24 -11 24 -22
0 -12 -7 -18 -19 -18 -16 1 -31 -5 -40 -17 -6 -6 -3 -19 6 -39 11 -22 12 -34
5 -48 -2 -4 -5 -8 -6 -9 -6 -4 -16 -32 -17 -46 0 -5 -1 -18 -2 -27 -2 -22 2
-34 14 -49 4 -5 11 -14 15 -20 8 -12 18 -24 18 -22 0 1 4 2 10 2 5 0 12 2 16
4 8 4 25 5 32 1 5 -3 16 -14 16 -16 0 -3 27 -2 33 0 3 1 5 3 6 4 0 2 2 8 4 13
8 26 -8 50 -49 75 -24 13 -27 17 -27 33 0 19 9 28 28 28 13 0 21 -5 27 -14 l4
-7 16 0 c16 0 24 4 24 11 0 2 3 6 6 9 9 9 26 9 35 1 l6 -6 -1 -43 c0 -60 1
-65 31 -80 20 -10 23 -13 23 -27 0 -10 -4 -19 -14 -29 -11 -11 -28 -36 -34
-50 -7 -14 -8 -54 -2 -67 6 -12 19 -20 39 -22 14 -2 17 -7 18 -30 0 -11 1 -22
2 -23 2 -5 13 -9 15 -5 1 1 5 1 9 0 13 -3 31 0 37 6 4 4 5 7 5 20 0 8 -2 19
-4 25 -4 15 -6 43 -3 56 2 8 5 13 15 24 18 20 19 25 19 78 -1 39 -1 44 -5 52
-8 17 -22 29 -36 31 -4 1 -9 2 -11 2 -2 0 -8 1 -14 1 -16 1 -19 5 -17 22 1 15
9 35 16 39 3 2 9 3 19 3 20 -1 42 6 49 14 2 3 6 11 7 16 1 6 3 13 3 16 1 3 2
10 3 15 1 12 3 14 11 18 8 5 12 5 20 0 13 -6 15 -22 5 -42 -13 -26 -12 -15
-12 -216 0 -192 0 -191 8 -206 4 -7 17 -19 29 -28 7 -6 9 -6 22 -5 13 1 14 1
20 9 7 10 15 15 23 15 10 0 31 8 37 13 8 8 12 23 12 45 0 20 -2 27 -12 38 -7
8 -24 10 -34 3 -3 -3 -9 -5 -12 -6 -3 -1 -6 -2 -6 -3 -4 -7 -19 3 -16 12 1 5
13 16 16 16 5 0 15 13 17 22 2 8 1 13 -2 27 -6 26 -1 39 19 48 14 7 21 14 27
27 4 8 4 12 4 84 l-1 75 -5 9 c-8 10 -16 13 -42 12 -13 -1 -14 0 -20 6 -5 5
-6 7 -6 17 0 17 5 24 21 26 10 2 26 8 33 12 22 15 23 16 33 16 11 0 20 -8 22
-18 1 -10 5 -21 9 -27 4 -6 22 -13 35 -15 16 -1 23 -7 27 -20 3 -11 0 -22 -9
-37 -9 -14 -14 -31 -17 -50 -3 -19 -6 -25 -18 -39 -19 -21 -23 -34 -15 -52 5
-10 6 -11 20 -18 8 -4 16 -7 18 -7 17 0 24 -63 8 -79 -2 -3 -4 -5 -5 -5 -4 0
-28 -12 -33 -17 -11 -10 -13 -21 -13 -54 1 -35 3 -41 19 -58 5 -5 10 -12 11
-15 5 -12 0 -36 -8 -36 -2 0 -2 0 0 -2 1 -1 2 -5 2 -10 -1 -15 0 -18 5 -20 l4
-2 -4 0 c-3 0 -5 -1 -5 -3 0 -2 -1 -3 -2 -3 -4 0 -2 -10 2 -11 2 0 2 -1 -2 -1
-3 0 -10 -5 -18 -13 -8 -7 -16 -13 -19 -13 -10 -1 -18 0 -21 3 -8 7 -25 11
-44 12 -18 0 -20 1 -37 9 -20 10 -19 10 -81 9 -10 -1 -40 0 -66 0 -51 2 -57 1
-69 -8 -7 -5 -19 -28 -19 -35 0 -6 -8 -14 -17 -16 -17 -4 -35 5 -35 16 0 7
-12 30 -19 35 -11 8 -12 8 -103 9 l-88 1 -4 5 c-2 2 -5 4 -6 4 -1 0 1 3 5 8
24 25 97 149 94 161 0 2 -1 7 -2 11 -1 8 -4 12 -23 29 -5 5 -6 7 -6 14 0 13 6
17 23 17 26 -1 38 4 46 21 5 10 6 20 4 28 0 2 -1 5 -1 7 0 1 -1 2 -2 1 -1 -1
-2 0 -2 2 0 5 -16 11 -29 11 -29 -1 -34 1 -41 16 l-5 10 -17 0 c-20 0 -18 1
-25 -21 -3 -9 -6 -13 -14 -20 -5 -5 -10 -9 -11 -9 -3 0 -12 18 -13 26 -4 33
-16 77 -25 91 -6 9 -13 29 -15 42 0 4 -1 12 -2 17 -1 5 -3 17 -6 26 -8 33 -5
79 8 148 6 29 6 36 -2 46 -7 8 -15 12 -26 13 -14 2 -19 13 -11 23 3 4 5 4 10
3 15 -3 35 -1 43 4 6 4 10 16 21 62 3 14 7 29 8 33 2 6 12 46 15 61 1 3 2 10
3 15 0 6 1 7 2 5 0 -3 1 -5 2 -5z m92 -7 c5 -2 9 -6 12 -14 l5 -10 -5 -4 c-5
-5 -6 -5 -15 -2 -15 5 -19 7 -22 16 -7 17 5 24 25 14z m-249 -32 c12 -12 3
-31 -13 -31 -11 0 -18 7 -18 18 0 11 7 18 18 18 6 0 9 -1 13 -5z m505 -3 c2
-5 2 -6 -1 -11 -5 -6 -10 -6 -15 -1 -5 5 -5 8 -1 14 4 6 13 5 17 -2z m67 -15
c2 -2 7 -5 11 -7 23 -13 36 -22 40 -27 7 -9 7 -17 0 -33 -7 -17 -12 -22 -21
-22 -11 0 -15 3 -23 21 -4 9 -10 18 -12 20 -3 2 -10 7 -17 12 -7 5 -14 9 -17
10 -4 0 -4 0 -1 1 4 0 15 11 15 15 0 4 18 16 20 13 1 0 3 -2 5 -3z m204 -18
c0 -9 -9 -20 -19 -22 -11 -2 -23 -22 -25 -41 -2 -17 -9 -23 -27 -23 -18 0 -25
6 -27 24 0 5 -1 10 -2 11 -3 4 2 10 14 18 11 8 41 37 41 40 0 2 13 9 23 11 9
2 10 2 16 -4 5 -5 6 -8 6 -14z m-901 -39 c3 -4 8 -9 14 -12 5 -4 9 -7 10 -8 6
-6 39 -19 56 -21 7 -1 14 -3 16 -5 l5 -4 -5 -11 c-6 -16 -6 -27 2 -45 3 -8 6
-17 6 -19 0 -6 -6 -13 -12 -13 -2 0 -6 -1 -9 -2 -3 -1 -8 -2 -12 -3 -6 -1 -14
-4 -27 -11 -8 -4 -10 -4 -30 -5 -9 -1 -17 -2 -18 -2 0 0 -3 2 -7 6 l-6 6 1 71
c1 72 2 81 7 83 2 1 3 3 3 5 0 2 1 2 1 -1 1 -2 3 -6 5 -9z m-103 -5 c13 -3 24
-5 24 -6 0 0 2 -2 4 -4 3 -5 3 -5 -1 -10 -6 -6 -47 -23 -56 -23 -13 0 -14 0
-20 6 -5 5 -6 7 -6 17 0 14 3 20 12 24 7 3 14 2 43 -4z m1058 -47 c6 -4 10
-12 10 -24 0 -17 -6 -25 -21 -27 -4 0 -13 -3 -20 -7 -13 -6 -14 -7 -20 -19 -3
-6 -5 -12 -4 -13 1 0 -1 -3 -5 -7 -6 -6 -6 -6 -15 -4 -5 1 -20 1 -33 0 -29 -2
-34 -1 -43 8 -18 21 -27 29 -32 29 -5 1 -5 1 0 1 2 1 4 2 4 3 0 5 14 8 37 8
18 0 27 1 34 4 9 3 53 30 68 43 11 9 28 11 40 5z m362 -28 c7 -6 7 -19 1 -25
-6 -7 -19 -7 -25 -1 -7 6 -7 19 -1 25 6 7 19 7 25 1z m-673 -23 l51 -1 11 -6
c6 -3 10 -6 8 -6 -5 0 -8 -13 -8 -30 0 -15 -2 -22 -7 -27 -4 -4 -4 -4 -9 1 -4
4 -18 9 -31 11 -3 0 -10 1 -15 2 -5 1 -16 5 -24 9 -13 6 -18 7 -33 7 -10 1
-21 2 -24 3 -6 3 -30 1 -36 -2 -10 -5 -27 -12 -30 -12 -2 0 -6 3 -10 6 -5 4
-6 6 -5 10 1 3 2 9 2 14 -1 8 0 10 5 15 6 5 7 5 31 5 14 0 30 1 35 2 6 1 16 1
24 1 8 -1 37 -2 65 -2z m-822 -52 c5 -3 19 -10 31 -16 19 -9 23 -12 25 -17 4
-9 3 -24 -2 -33 -2 -4 -5 -11 -7 -15 -3 -6 -12 -13 -20 -15 -36 -8 -49 -3 -53
19 -1 6 -5 21 -9 33 -7 27 -7 36 0 43 9 9 21 9 35 1z m1437 -84 c12 -12 3 -31
-13 -31 -11 0 -18 7 -18 18 0 11 7 18 18 18 6 0 9 -1 13 -5z m-1357 -34 c9 -8
2 -25 -11 -25 -13 0 -20 16 -12 26 5 6 15 6 23 -1z m121 -24 c22 -19 26 -127
11 -260 -7 -55 -6 -67 8 -99 17 -38 34 -58 61 -67 23 -8 61 0 86 17 15 12 19
12 20 0 1 -6 -7 -32 -17 -57 -3 -9 -6 -16 -5 -17 0 0 -1 -2 -2 -4 -2 -2 -4 -5
-5 -6 -2 -2 -5 -4 -8 -4 -3 0 -33 1 -66 1 l-62 1 -7 -7 c-4 -3 -7 -9 -7 -11 0
-3 -1 -8 -1 -11 0 -3 -1 -7 -2 -9 -1 -1 0 -2 2 -2 3 0 5 -6 5 -19 0 -14 -7
-21 -23 -21 -16 0 -23 7 -23 21 0 13 2 19 5 19 1 0 2 2 2 4 0 1 -1 9 -2 16 -1
18 -3 26 -7 28 -3 2 -3 8 -2 45 0 57 -2 64 -27 78 -23 13 -23 23 0 36 13 7 22
17 25 27 3 10 3 200 0 213 -1 5 -3 8 -4 8 -1 -1 -2 -1 -2 0 2 8 0 9 -15 8 -15
-1 -15 -1 -15 4 0 5 0 5 15 4 15 -1 17 0 15 8 0 1 1 1 2 0 3 -2 6 16 6 39 0
21 0 22 5 28 l5 5 13 -6 c6 -3 14 -7 16 -10z m-250 -4 c3 -3 3 -3 0 -6 -4 -5
-11 1 -7 6 4 4 4 4 7 0z m1536 -36 c4 -4 5 -7 5 -15 0 -14 -6 -20 -20 -20 -14
0 -20 6 -20 20 0 14 6 20 20 20 8 0 11 -1 15 -5z m-1547 -16 c16 -16 14 -45
-4 -51 -27 -10 -49 8 -42 35 3 11 8 16 23 21 14 4 15 4 23 -5z m1033 0 c4 -4
5 -7 5 -15 0 -14 -6 -20 -20 -20 -14 0 -20 6 -20 20 0 14 6 20 20 20 8 0 11
-1 15 -5z m-853 -3 c3 -4 3 -15 -1 -18 -4 -4 -12 -2 -15 4 -5 10 8 21 16 14z
m231 -7 c5 -8 1 -16 -8 -16 -9 0 -13 8 -8 16 2 3 5 5 8 5 3 0 6 -2 8 -5z
m-350 -66 c5 -8 1 -16 -8 -16 -9 0 -13 8 -8 16 5 6 12 6 16 0z m358 -12 c4
-22 8 -30 21 -47 4 -5 5 -9 5 -18 0 -18 -7 -26 -25 -27 -9 0 -18 -2 -24 -4 -2
-1 -4 -2 -5 -2 -4 -1 -13 -8 -21 -18 -12 -13 -26 -18 -33 -12 -14 10 -15 12
-15 25 0 11 1 13 6 18 3 3 7 6 8 6 12 1 22 3 26 5 1 1 4 2 6 2 19 4 36 35 36
65 0 15 4 22 10 17 2 -2 4 -6 5 -10z m1055 -59 c4 -8 -2 -16 -12 -16 -4 0 -8
1 -9 1 -1 2 -4 2 -19 3 -8 1 -9 2 -9 5 0 5 5 7 16 8 5 1 11 2 13 3 8 3 17 2
20 -4z m-47 -26 c4 -2 4 -2 0 -3 -2 -1 -6 -2 -8 -3 -7 -4 -13 2 -8 7 2 2 3 5
3 7 0 4 0 4 5 0 2 -3 6 -6 8 -8z m138 -20 c9 -5 12 -11 12 -22 0 -22 -8 -31
-28 -31 -10 0 -18 3 -30 12 -33 23 -33 36 -1 41 27 4 38 4 47 0z m-1452 -8
c10 -9 3 -26 -10 -26 -8 0 -15 7 -15 15 0 13 16 20 25 11z m226 -56 c8 -8 9
-16 3 -23 -13 -14 -35 6 -22 20 2 3 9 8 11 9 1 0 4 -3 8 -6z m106 -218 c4 -7
4 -8 0 -13 -4 -7 -13 -6 -17 2 -2 4 -2 6 -1 6 2 1 2 2 2 4 -1 1 0 5 1 7 3 5 9
3 15 -6z"/>
<path d="M1002 2268 c-3 -1 -5 -3 -4 -4 0 -2 1 -7 1 -11 0 -5 1 -9 2 -9 0 0 1
-1 1 -1 0 -1 0 -3 0 -5 0 -3 0 -3 2 0 1 2 2 2 2 0 0 -1 1 -2 2 -1 1 1 2 1 2 0
0 -1 3 -2 6 -2 3 0 6 1 6 2 0 1 1 1 2 0 1 0 3 0 4 2 2 2 3 6 5 23 0 3 0 6 -2
6 -3 2 -22 2 -29 0z"/>
</g>
</svg>
