<?xml version="1.0" standalone="no"?>
<!DOCTYPE svg PUBLIC "-//W3C//DTD SVG 20010904//EN"
 "http://www.w3.org/TR/2001/REC-SVG-20010904/DTD/svg10.dtd">
<svg version="1.0" xmlns="http://www.w3.org/2000/svg"
 width="1110.000000pt" height="2870.000000pt" viewBox="0 0 1110.000000 2870.000000"
 preserveAspectRatio="xMidYMid meet">
<metadata>
Created by potrace 1.15, written by Peter Selinger 2001-2017
</metadata>
<g transform="translate(0.000000,2870.000000) scale(0.500000,-0.500000)"
fill="#000000" stroke="none">
<path d="M1259 3725 c-5 -3 -9 -8 -14 -17 -6 -10 -10 -15 -17 -19 -5 -3 -10
-6 -10 -6 -1 0 -2 -1 -3 -1 -1 -1 -3 -2 -4 -2 -1 0 -9 -6 -16 -13 -13 -12 -38
-36 -59 -55 -10 -10 -14 -16 -14 -26 0 -14 6 -22 21 -28 10 -5 15 -11 11 -15
-1 -2 -4 -3 -7 -3 -6 0 -22 5 -25 7 -2 2 -6 3 -9 4 -8 2 -14 8 -20 22 -7 12
-15 20 -25 23 -4 1 -34 2 -76 2 -63 0 -70 0 -77 -4 -13 -6 -20 -18 -22 -41 -2
-17 -9 -24 -25 -24 -17 0 -23 7 -25 25 0 6 -3 17 -5 23 -4 10 -5 11 -15 16
l-10 5 -80 0 c-73 -1 -81 -1 -87 -5 -9 -4 -13 -10 -17 -23 -2 -10 -2 -11 6
-36 12 -37 19 -47 36 -55 13 -6 26 -6 49 -1 21 5 30 5 53 0 16 -4 22 -4 98 -3
44 0 82 1 83 1 2 1 6 3 10 6 6 4 6 5 5 17 -2 13 -1 13 3 13 4 0 5 0 3 -13 -1
-12 -1 -13 5 -17 9 -7 5 -7 88 -9 27 0 31 -3 31 -21 0 -6 1 -18 2 -26 1 -12 1
-18 -2 -24 -9 -27 -10 -32 -7 -49 4 -30 2 -34 -16 -34 -10 1 -16 0 -28 -3 -11
-3 -22 -24 -26 -49 -1 -9 -3 -18 -3 -20 -1 -4 -8 -17 -14 -23 -11 -12 -13 -15
-21 -31 -18 -38 -23 -48 -24 -59 -1 -7 -2 -13 -3 -14 -1 -1 0 -2 1 -2 1 0 2
-1 2 -2 0 -1 -1 -2 -2 -1 -2 1 -2 1 -1 -1 2 -4 -1 -10 -5 -9 -1 1 -2 1 -1 0 0
-1 -2 -4 -7 -6 -7 -4 -9 -7 -25 -37 -9 -18 -19 -37 -22 -43 -42 -75 -40 -71
-37 -85 2 -13 10 -22 26 -31 17 -8 34 -6 47 6 10 10 16 13 24 13 15 0 21 -13
14 -31 -4 -12 -4 -28 1 -37 2 -4 5 -8 6 -8 1 0 3 -2 6 -3 2 -2 8 -7 14 -11 35
-24 85 -65 109 -89 17 -17 32 -34 53 -61 3 -4 8 -8 9 -8 2 0 3 -1 3 -2 0 -1 1
-2 3 -2 2 0 5 -1 8 -3 5 -4 14 -4 35 -1 20 2 28 1 39 -5 16 -9 39 -8 44 3 11
21 9 34 -6 61 -1 2 -4 9 -8 15 -3 6 -6 12 -7 13 -1 1 -2 6 -4 11 -7 27 -16 42
-23 44 -2 0 -7 3 -12 6 -8 5 -12 6 -21 6 l-12 0 1 -9 c1 -11 3 -16 7 -21 4 -6
3 -24 -3 -30 -6 -6 -22 -6 -28 1 -8 7 -7 22 1 29 3 3 7 6 8 6 5 0 8 13 8 25
-1 10 -1 11 -5 12 -3 1 -5 2 -5 3 0 1 -1 2 -2 1 -3 -2 -6 4 -6 20 -2 25 -5 30
-30 42 -25 13 -31 13 -54 5 -9 -3 -19 -6 -22 -6 -5 0 -12 7 -18 19 -10 19 -15
24 -33 33 -29 14 -32 15 -35 20 -5 7 -6 34 -1 43 5 11 27 15 40 8 11 -5 37 -3
46 4 8 5 8 6 9 17 0 14 -4 23 -16 30 -16 10 -21 12 -35 12 -11 0 -14 -1 -21
-6 -9 -7 -23 -9 -29 -4 -3 3 -16 28 -15 29 6 3 17 7 19 7 4 0 32 15 42 23 7 6
8 6 29 6 11 0 24 1 28 3 8 2 8 2 8 14 1 11 0 13 -5 19 -3 4 -10 10 -16 12 -13
6 -16 11 -18 24 -1 11 4 22 13 24 18 5 29 1 44 -20 13 -16 18 -28 24 -49 5
-17 10 -24 21 -26 10 -2 27 -1 31 3 2 1 6 3 9 4 6 2 17 6 32 13 4 2 15 10 23
18 9 8 25 24 37 35 39 36 107 103 140 137 21 22 32 29 49 31 25 3 28 4 35 10
4 4 8 6 9 6 1 -1 2 0 2 1 0 1 3 2 7 3 3 1 8 2 10 3 2 1 8 3 12 5 16 6 23 17
23 34 0 15 -4 21 -21 32 -8 5 -16 13 -20 18 -7 10 -9 13 -25 28 l-10 9 -15 0
c-14 0 -15 0 -20 -6 -4 -4 -8 -10 -10 -15 -12 -22 -45 -24 -51 -1 -4 15 1 39
11 50 14 15 15 36 3 49 -11 12 -22 16 -48 16 -17 0 -20 3 -20 20 0 20 -5 32
-17 43 -5 6 -16 16 -23 23 -7 6 -15 14 -18 15 -7 5 -27 5 -35 1z m25 -54 c6
-6 6 -14 -3 -49 -8 -35 -10 -38 -28 -38 -22 0 -29 17 -18 44 7 18 15 40 14 40
-1 0 1 2 4 5 4 5 5 5 15 4 8 -1 12 -3 16 -6z m-305 -144 c3 -5 3 -5 0 -9 -2
-2 -5 -4 -7 -4 -2 0 -5 2 -7 4 -3 4 -3 4 0 9 2 3 5 5 7 5 2 0 5 -2 7 -5z m310
-3 c16 -7 16 -43 -1 -50 -15 -6 -34 -2 -39 9 -4 8 -4 24 0 32 5 12 23 15 40 9z
m232 -66 c4 -4 4 -16 0 -25 -4 -7 -4 -7 -13 -6 -12 1 -18 7 -18 18 0 16 18 24
31 13z m-267 -34 c6 -4 14 -9 18 -11 11 -5 23 -10 24 -9 1 0 3 -2 6 -5 4 -4 6
-18 3 -22 -2 -5 -9 -35 -10 -47 -2 -16 -7 -22 -19 -22 -13 0 -19 7 -17 21 4
28 2 39 -8 47 -6 3 -10 5 -25 7 -15 2 -20 9 -20 25 0 7 1 13 3 16 8 11 27 11
45 0z"/>
<path d="M1368 2694 c-5 -3 -9 -5 -10 -6 0 -1 -2 -2 -3 -2 -4 0 -11 -13 -13
-24 -2 -7 -2 -12 1 -22 4 -20 5 -22 3 -67 -1 -32 -2 -44 -5 -49 -2 -5 -2 -8
-2 -8 1 0 -1 -2 -4 -5 -10 -9 -19 -5 -29 12 -5 9 -7 11 -16 20 -11 12 -17 14
-35 14 -15 0 -17 -1 -21 -5 -12 -12 -20 -30 -23 -51 -2 -13 -1 -20 3 -30 3 -7
12 -18 12 -14 0 1 1 0 3 -1 1 -1 10 -3 19 -4 22 -3 22 -3 32 -15 10 -12 17
-18 24 -20 3 0 6 -1 8 -2 2 -1 8 -1 13 -2 18 -1 25 -6 29 -20 3 -11 0 -25 -7
-31 -2 -2 -11 -6 -19 -10 -9 -4 -16 -7 -16 -8 0 -1 -1 -2 -2 -2 -1 0 -8 -4
-14 -9 -7 -5 -14 -9 -16 -9 -11 -1 -40 2 -62 5 -13 2 -32 17 -43 34 -7 11 -4
26 9 40 6 5 9 15 8 26 -1 14 -22 18 -51 8 -21 -6 -48 -9 -90 -9 -37 0 -40 -1
-63 -16 -9 -5 -17 -10 -18 -10 -4 0 -27 -13 -31 -17 -2 -2 -7 -10 -12 -16 -4
-7 -9 -13 -11 -14 -2 -1 -6 -3 -9 -6 -4 -4 -5 -6 -5 -19 0 -8 1 -16 2 -17 0
-1 8 -5 16 -9 15 -6 38 -21 38 -24 0 -1 4 -5 9 -8 10 -7 30 -12 44 -12 13 1
19 -4 26 -18 15 -32 15 -60 0 -67 -29 -16 -38 -28 -37 -56 0 -19 2 -50 2 -50
0 0 1 -2 1 -5 3 -13 16 -26 30 -30 19 -5 123 5 153 14 7 2 16 6 19 9 4 2 11 7
17 11 l12 8 29 1 c24 0 31 1 36 4 3 1 15 7 26 13 17 8 30 16 38 21 1 1 6 5 11
8 19 12 49 41 65 61 28 37 52 87 60 122 0 3 2 9 3 14 8 32 13 103 8 129 -1 8
-3 17 -3 20 -1 3 -3 10 -5 16 -5 12 -9 34 -11 54 -1 16 -10 39 -26 72 -12 23
-25 46 -27 47 -1 0 -2 1 -2 2 0 3 -15 24 -20 29 -5 4 -24 9 -33 9 -3 0 -10 -2
-15 -4z m42 -194 c1 0 5 -3 8 -6 5 -5 6 -7 6 -18 0 -11 -1 -13 -6 -18 -6 -6
-7 -6 -18 -6 -11 0 -12 0 -18 6 -5 5 -6 7 -6 17 0 14 3 20 12 24 5 2 8 2 22 1z
m-335 -138 c10 -12 10 -16 3 -22 -5 -5 -7 -5 -10 -4 -2 1 -5 2 -7 2 -6 0 -13
8 -13 15 0 15 17 20 27 9z m40 -42 c2 -2 2 -4 1 -5 -1 0 -1 -3 -1 -6 3 -17 5
-23 8 -27 4 -6 17 -16 22 -16 5 0 13 -9 13 -16 0 -10 -6 -14 -20 -14 -34 0
-51 12 -41 31 10 21 13 43 6 48 -3 2 -3 3 1 6 6 4 7 4 11 -1z m197 -91 c21 -9
20 -45 -2 -54 -10 -5 -28 -1 -34 6 -9 10 -9 32 0 42 7 8 24 11 36 6z"/>
<path d="M824 2426 c-3 -1 -6 -1 -7 0 0 0 -1 0 -1 -2 0 -1 -1 -2 -3 -2 -7 0
-21 -23 -21 -35 0 -11 8 -30 15 -38 18 -18 49 -25 69 -16 4 2 8 4 7 5 -1 0 0
2 1 3 3 4 3 11 1 15 -4 5 -5 30 -2 31 3 1 -1 20 -6 29 -5 10 -35 16 -53 10z"/>
</g>
</svg>
