<?xml version="1.0" standalone="no"?>
<!DOCTYPE svg PUBLIC "-//W3C//DTD SVG 20010904//EN"
 "http://www.w3.org/TR/2001/REC-SVG-20010904/DTD/svg10.dtd">
<svg version="1.0" xmlns="http://www.w3.org/2000/svg"
 width="1109.000000pt" height="2870.000000pt" viewBox="0 0 1109.000000 2870.000000"
 preserveAspectRatio="xMidYMid meet">
<metadata>
Created by potrace 1.15, written by Peter Selinger 2001-2017
</metadata>
<g transform="translate(0.000000,2870.000000) scale(0.500000,-0.500000)"
fill="#000000" stroke="none">
<path d="M1443 3851 c-22 -10 -29 -36 -14 -53 5 -6 16 -14 19 -14 3 0 10 -8
10 -12 0 -4 -7 -12 -10 -12 -3 0 -14 -7 -19 -13 -9 -10 -9 -14 -9 -84 l1 -66
-6 -6 -6 -6 -36 1 -36 0 -24 -7 c-27 -8 -49 -18 -49 -22 0 -1 -1 -3 -3 -4 -1
0 -4 -7 -7 -14 -6 -18 -10 -23 -20 -23 -7 0 -9 1 -15 8 -4 5 -7 10 -7 11 0 9
-18 36 -28 42 -2 1 -6 6 -9 11 -5 9 -5 11 -5 32 0 25 -5 40 -14 47 -8 5 -24 9
-34 9 -16 0 -21 6 -21 25 0 14 0 16 6 20 6 6 27 7 34 2 6 -4 28 -11 35 -11 28
0 72 57 66 87 -4 19 -18 30 -41 32 -7 1 -16 1 -21 2 -5 0 -16 1 -24 2 -8 1
-18 1 -22 2 -4 0 -14 1 -23 2 -9 1 -20 2 -24 2 -13 1 -29 3 -48 4 -10 1 -19 2
-21 2 -2 0 -12 1 -24 2 -12 1 -21 1 -22 2 -1 0 -6 -1 -12 -3 -11 -3 -18 -9
-44 -38 -20 -22 -19 -14 -19 -120 l0 -93 -6 -6 -6 -6 -84 1 c-90 0 -96 0 -107
-10 -5 -4 -7 -7 -8 -17 -1 -12 -1 -13 4 -18 9 -9 22 -11 52 -12 26 0 28 0 33
-5 6 -6 7 -16 1 -21 -2 -1 -3 -3 -3 -4 1 0 2 -5 2 -11 2 -23 7 -26 62 -26 23
0 43 1 45 2 2 1 4 0 6 -4 2 -3 5 -7 7 -7 1 -1 2 -23 1 -101 0 -107 0 -111 10
-119 3 -3 10 -6 16 -8 11 -3 12 -3 20 1 20 10 25 19 24 47 0 16 0 17 5 22 7 7
23 7 30 1 6 -7 17 -42 19 -58 1 -17 -3 -21 -25 -30 -9 -3 -20 -10 -26 -14 -14
-10 -16 -11 -31 -13 -15 -1 -25 -4 -33 -11 -5 -4 -6 -5 -5 -14 1 -22 1 -23 -3
-23 -9 -2 -12 -2 -17 1 -3 1 -23 9 -45 18 -49 19 -48 19 -48 46 0 15 -1 20 -4
26 -9 16 -37 48 -108 121 -25 26 -37 38 -43 47 -11 15 -11 15 -25 16 -20 1
-24 -1 -38 -29 -10 -19 -12 -25 -14 -43 -2 -11 -5 -23 -7 -25 -4 -6 -31 -20
-42 -22 -5 -1 -9 -1 -11 1 -2 1 -4 2 -4 1 -2 -1 -9 7 -9 11 0 6 7 16 17 23 22
18 31 35 33 62 0 17 -3 28 -11 38 -4 5 -27 13 -35 13 -8 0 -16 6 -18 14 -4 16
5 32 18 32 8 0 30 8 35 13 9 11 11 20 11 51 l-1 29 -9 19 c-11 22 -13 33 -6
46 4 8 5 9 34 24 24 12 39 30 51 61 10 26 -3 48 -31 53 -37 6 -85 8 -95 4 -6
-2 -13 -9 -13 -13 -1 -6 -2 -10 -3 -15 0 -4 0 -7 2 -8 9 -7 0 -20 -13 -20 -14
0 -31 -6 -42 -15 -12 -10 -15 -21 -15 -48 l1 -24 -6 -5 c-6 -6 -7 -6 -19 -6
-12 1 -14 2 -19 7 -6 8 -5 20 4 37 7 13 7 14 7 39 0 33 0 31 7 36 8 4 21 4 32
0 5 -1 13 -2 24 -1 23 2 23 2 23 15 0 6 -1 11 -1 11 -1 0 -2 1 -2 2 2 4 -3 10
-9 13 -15 7 -64 10 -77 5 -11 -4 -19 -11 -26 -22 -10 -15 -21 -19 -41 -18 -5
0 -15 11 -15 17 0 3 -1 5 -1 4 -1 -2 -6 -3 -15 -3 -7 0 -15 -1 -17 -1 -5 -1
-8 -9 -5 -9 2 0 2 -1 0 -3 -3 -3 -3 -256 0 -265 5 -13 24 -26 42 -27 18 -1 29
-18 24 -37 -4 -14 -11 -20 -24 -21 -17 -1 -36 -13 -41 -25 -4 -8 -1 -19 9 -29
4 -5 26 -13 35 -13 16 0 24 -27 11 -40 -3 -4 -8 -6 -11 -6 -17 0 -42 -14 -42
-23 0 -2 -1 -3 -2 -3 -1 0 -5 -2 -8 -5 -6 -6 -7 -6 -22 -5 -18 0 -29 -4 -33
-14 -4 -9 -5 -24 -3 -32 1 -6 1 -8 -2 -11 -6 -6 -9 -6 -23 0 -16 6 -34 6 -45
-1 -5 -3 -12 -6 -17 -6 -13 -2 -25 -7 -31 -15 -8 -9 -6 -23 4 -32 13 -13 18
-13 96 -13 l70 1 6 -6 6 -6 0 -85 0 -85 5 -10 c3 -5 8 -15 12 -21 8 -14 8 -22
0 -36 -4 -6 -9 -15 -12 -21 l-5 -10 0 -57 c0 -54 0 -57 4 -65 3 -4 6 -13 8
-20 3 -11 3 -12 0 -24 -2 -6 -5 -15 -8 -20 -3 -7 -4 -12 -5 -36 0 -15 -1 -30
-1 -32 -1 -6 -9 -14 -14 -14 -5 -1 -11 -2 -47 -8 -16 -3 -33 -6 -37 -6 -7 -1
-23 -4 -34 -6 -2 0 -8 -1 -14 -2 -5 -1 -12 -2 -15 -2 -3 0 -9 -1 -15 -2 -11
-1 -26 -8 -30 -13 -10 -12 -10 -28 -1 -37 4 -4 8 -7 9 -7 2 0 3 -1 3 -2 0 -1
4 -3 10 -6 24 -11 27 -19 19 -49 -6 -23 -6 -32 1 -42 8 -11 21 -15 53 -15 9 0
15 -8 15 -20 0 -10 -1 -11 -11 -22 -13 -14 -15 -17 -15 -30 0 -16 12 -23 43
-25 19 -1 25 -6 28 -21 2 -11 -2 -22 -11 -31 -18 -19 -21 -40 -7 -59 1 0 8 0
16 0 18 0 15 -1 32 19 3 4 10 10 15 13 5 2 11 6 13 8 2 2 4 4 5 4 1 0 3 1 5 3
2 2 8 7 15 11 6 4 18 13 27 20 17 14 31 24 54 38 8 5 19 13 24 17 6 4 18 13
26 19 8 6 22 16 30 22 8 6 17 13 21 16 19 13 25 22 37 48 5 14 7 14 31 19 9 2
18 3 19 4 5 1 14 6 17 9 5 4 11 9 18 14 4 3 10 8 14 11 4 3 11 9 16 13 20 16
27 23 32 36 6 12 8 27 4 29 -1 1 -2 2 -1 3 0 1 -3 8 -7 17 -9 18 -11 32 -5 41
3 4 4 12 3 25 0 12 -19 15 -55 8 l-27 -4 -5 4 -5 5 0 58 0 58 -6 17 c-5 16 -9
32 -8 36 0 0 0 4 1 9 1 7 2 15 3 15 0 0 1 2 1 5 1 2 0 4 -1 3 -1 -1 -2 0 -2 1
0 1 -5 2 -13 1 -11 0 -13 0 -14 4 0 2 -1 2 -1 -2 0 -12 -12 -19 -30 -20 -20
-1 -33 17 -28 38 3 11 8 15 21 20 11 4 37 4 37 1 0 -2 1 -2 3 -1 1 1 7 4 12 6
13 4 18 9 22 20 3 7 3 21 3 104 l-1 96 6 6 6 6 48 -1 c64 0 72 2 74 23 1 12 2
14 4 15 1 1 0 2 -3 3 -9 3 -2 18 8 18 10 0 17 -15 8 -18 -3 -1 -4 -2 -3 -3 2
-1 3 -3 4 -16 1 -11 8 -18 17 -19 3 0 6 -1 6 -2 0 -2 2 -5 6 -7 l5 -5 0 -219
c-1 -203 -1 -219 -4 -225 -2 -4 -5 -7 -5 -7 -1 0 -2 -2 -2 -3 0 -3 -1 -3 -2
-2 -4 7 -45 2 -52 -6 -6 -6 -5 -35 1 -38 8 -4 11 -7 14 -19 5 -18 7 -20 21
-20 17 0 19 1 27 14 4 7 9 13 12 15 15 10 30 1 32 -19 1 -15 7 -28 15 -35 9
-7 14 -8 32 -5 8 1 27 3 41 4 14 1 28 2 32 3 5 1 11 2 20 1 2 0 6 -3 9 -6 5
-5 6 -7 6 -18 0 -11 -1 -13 -6 -18 -3 -3 -7 -6 -9 -6 -14 -1 -20 0 -31 6 -19
9 -30 12 -38 9 -6 -2 -20 -11 -24 -15 -1 -1 -4 -3 -8 -6 -14 -8 -34 -4 -40 7
-5 9 -35 6 -40 -4 -3 -8 -3 -262 1 -273 1 -4 3 -8 3 -8 1 0 2 -1 2 -2 0 -2 6
-8 13 -15 7 -7 13 -14 13 -15 0 -1 -6 -8 -13 -15 -7 -7 -13 -13 -13 -15 0 -1
-1 -2 -2 -2 -4 0 -6 -19 -6 -48 1 -30 1 -31 7 -42 3 -6 8 -13 11 -16 20 -21
20 -35 0 -56 -12 -11 -17 -25 -18 -48 0 -24 2 -33 10 -41 6 -6 27 -12 31 -9 6
5 19 4 35 -1 26 -8 43 -8 71 2 44 15 76 35 85 52 27 52 30 57 31 67 0 4 0 8
-1 8 -1 0 -2 1 -1 2 2 3 -11 7 -22 7 -5 0 -11 0 -11 2 -1 1 -2 1 -2 -1 0 -8
-23 -11 -36 -6 -17 7 -17 43 -1 50 11 4 31 4 35 -1 2 -2 4 -2 7 -1 2 1 4 2 5
1 1 0 4 1 7 4 5 4 6 5 7 25 1 19 6 39 10 45 5 8 8 41 4 53 -5 16 -17 32 -29
37 -8 4 -8 8 1 19 3 4 6 8 6 9 0 1 2 3 5 5 12 10 19 27 19 51 1 20 5 32 18 54
5 9 11 19 14 23 11 20 18 32 22 38 2 4 4 9 4 11 0 3 0 3 4 -1 6 -6 8 -13 8
-24 0 -10 4 -28 8 -32 6 -8 12 -14 19 -20 5 -3 12 -12 16 -19 4 -6 9 -15 13
-18 12 -11 35 -8 45 6 2 2 3 3 3 1 0 -1 2 -4 4 -6 5 -6 6 -12 6 -59 0 -28 1
-44 2 -49 6 -15 19 -23 43 -25 14 -1 21 -8 22 -23 1 -10 0 -11 -5 -16 -4 -3
-8 -6 -10 -6 -20 -1 -33 -5 -41 -13 -15 -15 -15 -40 0 -56 3 -3 5 -5 5 -4 0 0
3 -1 7 -2 4 -2 13 -3 21 -4 22 -1 29 -7 29 -27 0 -20 -7 -26 -29 -27 -8 -1
-17 -2 -21 -4 -4 -1 -7 -2 -7 -2 0 3 -11 -10 -13 -16 -4 -9 -4 -37 0 -46 4 -9
14 -21 18 -21 2 0 3 -1 3 -2 0 -2 1 -2 26 -3 24 -2 60 2 83 7 4 1 10 3 13 3 6
1 24 8 34 12 4 2 10 5 14 7 24 11 46 30 55 49 5 11 6 14 7 37 1 34 -4 47 -20
55 -4 2 -9 4 -10 5 -2 1 -7 3 -11 3 -13 2 -20 10 -20 23 0 13 7 21 20 23 4 0
9 2 12 3 2 2 5 3 7 4 1 1 8 0 14 -1 6 -2 11 -2 12 -2 0 1 2 0 3 -1 2 -2 3 -2
3 0 0 2 1 1 4 -1 1 -3 9 -7 16 -9 21 -8 38 -2 51 20 9 15 11 16 22 16 19 0 23
-10 15 -39 -2 -9 -4 -18 -4 -21 0 -6 10 -28 18 -36 6 -7 18 -39 22 -59 4 -21
7 -48 9 -83 2 -35 7 -45 24 -54 12 -6 22 -6 54 0 22 4 37 11 37 17 0 2 1 3 2
3 3 0 9 26 7 31 -3 6 -4 27 -1 37 4 15 11 20 27 21 16 1 26 -7 29 -23 6 -32
10 -37 29 -36 15 1 20 5 47 32 14 13 18 22 19 44 2 17 4 20 18 32 21 16 26 30
33 98 1 8 2 114 2 236 l0 221 -6 18 c-3 10 -8 22 -10 25 -6 8 -17 20 -19 20
-11 1 -15 3 -21 9 -6 7 -6 7 -5 20 2 15 -2 31 -11 48 -11 21 -6 35 14 32 12
-1 29 3 39 10 10 7 21 39 17 50 -4 12 -11 23 -15 28 -18 18 -16 29 9 54 8 8
14 15 14 16 0 1 3 6 7 11 4 5 8 13 9 16 3 8 11 21 16 27 10 11 11 36 1 45 -3
2 -8 6 -10 8 -3 2 -12 9 -20 15 -9 7 -16 13 -17 13 -6 8 -29 8 -45 0 -16 -8
-32 -8 -40 -1 l-6 5 1 24 c0 37 -1 41 -25 59 -8 5 -15 11 -17 13 -11 11 -27
15 -42 12 -8 -3 -24 -18 -63 -63 -2 -2 -10 -11 -18 -20 -8 -8 -15 -17 -16 -18
-2 -5 -7 -25 -7 -34 -1 -9 5 -36 9 -46 4 -11 23 -27 39 -36 18 -9 21 -11 24
-22 5 -19 -5 -36 -22 -38 -7 -1 -24 -9 -30 -14 -11 -10 -11 -8 -12 -107 -1
-83 -1 -92 -4 -95 -2 -2 -4 -3 -4 -2 0 1 -1 0 -2 -2 -2 -4 -2 -4 -2 1 0 2 -3
10 -6 18 -11 23 -36 72 -40 78 -2 3 -4 7 -5 8 -1 5 -32 52 -49 77 -9 13 -26
30 -39 40 -4 3 -9 9 -12 13 -2 4 -7 11 -12 16 -7 7 -8 8 -18 8 -9 1 -9 1 -2 1
4 1 10 3 14 6 20 13 45 17 70 10 34 -9 53 -3 67 20 3 4 5 8 6 9 3 2 6 22 6 37
1 13 0 18 -4 27 -10 25 -14 26 -71 26 -43 0 -63 -2 -63 -6 0 -1 -1 -2 -3 -2
-1 0 -6 -3 -9 -6 -13 -12 -28 -17 -31 -11 0 2 -2 3 -3 3 -6 0 -8 8 -4 16 4 9
6 15 8 34 1 9 4 19 6 23 2 4 4 9 4 11 0 2 1 2 2 -2 1 -2 4 -5 6 -5 2 -1 4 -2
4 -3 0 -2 1 -2 26 -3 18 -1 36 0 72 4 40 5 99 25 124 41 24 17 31 31 32 72 0
27 0 30 -4 38 -7 14 -30 21 -42 13 -13 -7 -26 -8 -26 0 0 3 -5 14 -10 22 -2 3
-6 13 -9 22 -8 25 -3 39 15 43 15 4 28 -2 35 -15 1 -3 3 -5 3 -4 0 1 4 2 10 1
27 -2 28 1 28 42 l-1 29 6 6 c7 7 13 8 43 7 33 -1 118 -1 122 0 2 1 6 3 10 6
6 4 6 5 5 17 l-2 13 6 0 c3 0 5 -1 4 -1 -2 -1 -3 -5 -3 -12 0 -13 4 -21 11
-19 2 0 3 0 2 -2 -2 -3 11 1 15 5 4 3 4 6 4 16 -1 12 -1 13 3 13 2 0 3 1 3 1
-1 1 -11 1 -23 1 -18 0 -21 1 -24 4 -3 4 -3 4 0 9 3 3 5 5 8 4 2 0 8 0 15 1
49 8 62 14 62 30 0 8 -3 20 -6 22 -1 1 -10 9 -20 18 -11 10 -22 20 -26 23 -4
3 -7 6 -8 7 -1 1 -28 24 -35 30 -23 18 -41 34 -60 54 l-14 14 -13 0 c-7 0 -15
-1 -17 -3 -5 -2 -55 -76 -55 -81 0 -2 -1 -2 -1 0 -1 2 -3 4 -6 6 -2 2 -4 6 -4
16 -1 7 -3 21 -5 30 -9 38 -6 45 20 49 30 5 41 14 51 39 6 16 7 24 2 35 -9 22
-17 24 -131 32 -9 1 -19 2 -22 2 -3 0 -12 1 -20 2 -8 1 -36 3 -61 5 -81 7 -79
7 -90 1z m115 -68 l-5 -5 -4 4 -5 5 4 4 5 5 4 -4 5 -5 -4 -4z m63 -67 c10 -9
3 -26 -10 -26 -8 0 -15 7 -15 15 0 13 16 20 25 11z m-1315 -91 c3 -2 6 -4 6
-6 0 -2 1 -5 1 -7 1 -11 -8 -20 -19 -20 -11 0 -20 9 -19 18 0 2 1 4 1 6 0 1 2
4 5 7 6 6 16 7 25 2z m1529 -20 c12 -12 3 -31 -13 -31 -11 0 -18 7 -18 18 0
11 7 18 18 18 6 0 9 -1 13 -5z m-239 -11 c5 -5 6 -7 6 -17 0 -18 -13 -28 -30
-23 -11 3 -16 10 -16 23 0 16 7 23 23 23 10 0 12 -1 17 -6z m-1168 -16 c5 -5
5 -11 0 -16 -10 -10 -27 5 -16 16 4 4 12 4 16 0z m605 -31 c5 -8 1 -16 -8 -16
-9 0 -13 8 -8 16 2 3 5 5 8 5 3 0 6 -2 8 -5z m-109 -14 c5 -5 6 -21 2 -26 -6
-7 -27 -13 -23 -7 1 1 0 2 -3 2 -10 0 -15 22 -6 31 7 8 23 8 30 0z m246 -19
c3 -2 8 -10 11 -18 7 -18 17 -28 29 -32 7 -2 34 -2 104 -2 l95 1 6 -6 6 -6 0
-36 c-1 -43 0 -48 13 -62 22 -23 21 -49 -1 -49 -7 0 -21 7 -21 10 0 1 -2 3 -4
6 -2 2 -3 4 -3 4 1 0 -2 3 -8 7 -15 11 -20 11 -123 11 l-93 -1 -6 6 c-6 6 -6
7 -5 23 1 29 -6 41 -30 52 -20 9 -21 11 -19 27 8 41 13 60 18 64 7 6 24 7 31
1z m440 -2 c11 -3 16 -10 16 -23 0 -16 -7 -23 -23 -23 -16 0 -23 7 -23 22 0
13 3 19 13 23 8 3 8 3 17 1z m-1187 -76 c6 -4 7 -7 7 -19 1 -14 -7 -22 -22
-22 -9 0 -11 1 -16 7 -9 8 -9 23 -1 32 8 8 23 9 32 2z m1060 -56 c-4 -5 -7 -5
-11 -1 -4 4 -4 4 0 8 l5 5 4 -4 c5 -4 5 -5 2 -8z m-449 -23 l-5 -5 -4 4 -5 5
4 4 5 5 4 -4 5 -5 -4 -4z m589 -79 c0 -3 -1 -5 -4 -7 -5 -3 -6 -3 -10 1 -3 3
-3 4 -1 4 2 0 5 3 6 6 2 6 3 6 5 3 1 -2 3 -6 4 -7z m-51 -21 c7 -3 7 -4 5 -9
-5 -13 -18 -18 -25 -10 -5 6 -5 12 0 18 4 5 10 5 20 1z m-1127 -38 c5 -4 6 -6
7 -16 1 -21 -5 -28 -25 -30 -13 -1 -20 1 -28 11 -2 3 -6 6 -8 7 -2 0 -5 1 -7
2 -8 3 -20 5 -24 4 -4 -1 -6 0 -9 4 -3 5 -3 5 0 10 3 4 5 5 9 4 14 -3 39 0 50
6 8 5 29 4 35 -2z m810 -13 c6 -6 7 -16 1 -21 -6 -5 -19 -9 -26 -8 -13 3 -13
12 0 25 10 9 18 11 25 4z m-146 -22 c11 -7 13 -8 25 -8 14 0 20 3 20 8 0 2 1
2 1 2 1 -1 5 0 10 2 8 4 9 4 15 1 3 -2 6 -4 6 -5 0 -1 2 -2 5 -2 8 0 23 -6 22
-9 0 -2 0 -3 1 -2 4 2 2 -2 -4 -12 -7 -10 -26 -30 -28 -28 -1 1 -10 -13 -13
-21 -1 -4 -3 -12 -4 -17 -1 -14 -4 -20 -9 -23 -6 -3 -12 0 -31 13 -14 10 -19
11 -77 11 -49 0 -55 0 -63 -4 -10 -4 -21 -14 -20 -16 1 -1 0 -2 -1 -2 -1 0 -2
-3 -2 -6 0 -3 -1 -6 -2 -7 -1 -1 -2 -3 -2 -4 0 -6 -16 -37 -20 -38 -2 -1 -4
-2 -4 -3 0 -3 -11 -1 -15 3 -2 2 -3 5 -2 10 1 7 20 37 23 37 3 0 6 10 6 20 0
13 -4 23 -10 26 -4 1 -4 2 -1 2 2 0 3 1 2 1 -1 2 6 7 12 8 2 0 13 1 25 2 17 1
23 2 33 7 13 6 33 23 42 36 3 5 10 13 14 18 8 8 9 8 21 8 12 0 14 -1 25 -8z
m-724 -40 c1 -2 2 -4 3 -4 3 0 2 -7 -1 -12 -6 -7 -19 -3 -19 7 0 3 6 10 10 12
5 1 6 1 7 -3z m883 -20 c5 -5 5 -15 0 -20 -9 -9 -24 -2 -24 10 0 8 6 14 14 14
3 0 8 -2 10 -4z m97 -23 c4 -2 7 -5 7 -6 0 -2 1 -3 2 -3 1 0 3 -3 5 -7 2 -4 5
-7 5 -7 2 0 1 -17 -1 -20 -1 -1 -1 -12 0 -24 1 -22 1 -22 -4 -27 -3 -3 -7 -5
-10 -5 -18 -1 -21 2 -31 25 -4 9 -9 20 -11 24 -17 29 -6 55 22 54 4 0 11 -2
16 -4z m-199 -257 c-1 -120 -1 -119 -9 -128 -3 -2 -3 -2 -3 1 0 6 -23 58 -34
78 -2 2 -5 8 -7 13 -3 5 -7 13 -10 17 -3 4 -7 12 -9 17 -5 9 -19 24 -23 24 -2
0 -3 1 -16 3 -4 1 -12 0 -18 -2 -6 -2 -11 -3 -12 -3 -4 1 -20 -4 -24 -8 -6 -5
-15 -21 -15 -28 0 -6 6 -19 6 -14 0 2 1 -2 3 -8 1 -6 5 -22 9 -35 9 -34 9 -50
-2 -106 -4 -24 -8 -47 -8 -51 -1 -7 -1 -7 -1 -1 -1 5 -2 6 -5 6 -2 -1 -4 -1
-4 -1 -1 1 -1 41 -2 90 -1 49 -2 91 -2 94 -3 8 -12 15 -23 18 -12 3 -18 3 -64
5 -33 1 -33 1 -48 15 -6 5 -15 13 -21 18 -10 9 -22 29 -25 43 -4 16 -3 21 1
25 10 10 24 2 35 -19 7 -15 11 -18 42 -31 22 -8 32 -11 47 -10 9 0 23 14 31
31 8 16 9 17 25 20 16 3 29 9 29 12 -1 0 -1 7 -1 15 0 14 0 14 -5 14 -5 0 -5
1 -2 1 2 1 5 2 6 3 7 6 19 7 82 8 l66 1 6 -6 6 -6 -1 -115z m176 114 c5 -6 5
-8 1 -14 -8 -10 -24 2 -16 13 4 6 10 7 15 1z m11 -68 c10 -9 11 -32 2 -42 -2
-2 -15 -12 -29 -21 -30 -20 -53 -29 -76 -29 -12 0 -15 1 -19 5 -6 4 -6 6 -6
20 0 15 0 16 6 20 3 3 13 8 22 11 25 9 26 10 48 28 13 12 19 14 33 14 11 -1
15 -2 19 -6z m96 -89 c8 -24 16 -49 17 -55 4 -23 18 -34 39 -31 23 3 32 -1 38
-18 7 -20 -2 -35 -19 -32 -9 2 -20 8 -20 13 0 1 -2 3 -3 5 -3 3 -6 4 -19 3
-15 0 -15 0 -20 -7 -4 -6 -12 -40 -19 -73 0 -3 -2 -12 -5 -21 -2 -9 -4 -19 -4
-22 0 -3 -1 -5 -2 -4 -1 1 -3 -1 -4 -3 -6 -7 -8 -7 -16 2 -4 4 -10 8 -13 9 -3
1 -7 2 -8 3 -1 1 -4 2 -7 3 -19 6 -19 28 0 34 3 1 6 2 7 3 1 1 4 2 7 3 7 1 19
12 21 19 1 3 2 52 3 110 1 90 1 104 4 106 2 1 3 3 3 3 0 1 1 2 2 2 0 -1 1 1 1
3 0 1 1 0 2 -4 0 -4 8 -27 15 -51z m-651 -27 c10 -3 34 -16 39 -21 3 -2 7 -8
10 -14 9 -16 16 -26 25 -32 19 -15 26 -32 16 -42 -4 -5 -5 -5 -27 -4 -17 1
-24 1 -33 -2 -15 -4 -20 -4 -25 1 -6 5 -7 15 -2 20 4 4 9 26 9 36 0 8 -1 11
-6 16 -10 12 -11 13 -16 20 -13 17 -8 28 10 22z m-496 -13 l-5 -5 -4 4 -5 5 4
4 5 5 4 -4 5 -5 -4 -4z m774 -51 c5 -6 5 -12 0 -18 -7 -8 -22 -2 -22 9 0 11
15 17 22 9z m631 -33 c3 -5 3 -5 0 -10 -2 -3 -5 -5 -7 -5 -2 0 -5 2 -7 5 -3 5
-3 5 0 10 2 3 5 5 7 5 2 0 5 -2 7 -5z m133 -8 c4 -6 4 -8 3 -21 -2 -17 -8 -34
-16 -39 -6 -4 -22 -4 -28 0 -2 1 -7 3 -10 4 -3 0 -7 1 -9 2 -2 1 -4 0 -5 -1
-2 -3 -5 -2 -5 2 0 1 1 2 1 1 1 -2 3 -1 6 2 2 2 4 5 4 6 -1 0 0 1 2 1 2 0 3 1
3 3 0 3 15 34 19 37 2 2 23 9 28 10 1 0 4 -3 7 -7z m-86 -50 c4 -2 9 -3 10 -2
1 1 3 0 3 -2 1 -2 0 -4 -1 -5 -2 -1 -2 -2 -1 -2 1 0 -3 -4 -9 -8 -11 -9 -18
-10 -25 -4 -6 6 -6 15 -1 21 5 6 12 6 24 2z m-172 -50 c13 -6 18 -21 13 -38
-2 -6 -4 -11 -5 -11 -3 0 -10 -11 -11 -16 0 -2 0 -4 0 -4 -1 0 -13 7 -17 10
-4 3 -6 3 -15 1 -14 -3 -18 -7 -23 -17 -4 -8 -6 -31 -3 -36 0 -1 1 -14 2 -31
1 -49 9 -65 40 -80 13 -7 16 -7 26 -7 14 1 31 9 33 15 1 3 2 3 2 1 0 -2 1 -4
2 -4 1 0 3 -4 5 -8 3 -7 3 -15 3 -44 l0 -35 -6 -5 c-5 -5 -8 -6 -15 -6 -11 0
-46 -5 -73 -9 -3 -1 -11 -1 -19 -2 -8 -1 -19 -2 -24 -3 -6 -1 -19 -3 -29 -3
-20 -1 -31 -4 -34 -9 -1 -2 -2 -2 -2 0 0 1 -2 6 -5 10 l-5 8 0 54 c1 59 1 60
17 77 7 7 18 28 20 37 3 15 8 26 14 32 29 27 31 31 31 54 0 16 5 28 14 33 5 4
13 12 24 25 10 13 25 17 40 11z m-1182 -50 l-5 -5 -4 4 -5 5 4 4 5 5 4 -4 5
-5 -4 -4z m-219 3 c11 -10 3 -28 -11 -28 -9 0 -16 6 -16 16 0 14 17 22 27 12z
m971 -13 c19 -8 21 -43 2 -52 -13 -7 -27 -5 -37 4 -10 8 -10 32 -1 42 7 8 24
11 36 6z m709 -6 c3 -5 3 -5 0 -10 -2 -3 -5 -5 -7 -5 -2 0 -5 2 -7 5 -3 5 -3
5 0 10 2 3 5 5 7 5 2 0 5 -2 7 -5z m-147 -17 c2 -1 7 -9 11 -16 9 -17 19 -28
33 -35 13 -7 17 -12 17 -27 0 -23 -26 -48 -49 -49 -12 0 -22 4 -25 12 -4 7 -5
24 -1 31 5 9 1 33 -5 41 -12 14 -13 16 -13 26 0 13 6 19 19 19 5 0 11 -1 13
-2z m-124 -14 c4 -6 4 -7 0 -11 -4 -6 -8 -6 -13 0 -3 5 -3 6 0 9 3 3 3 3 3 11
0 6 0 6 4 2 1 -2 5 -7 6 -11z m-1231 -42 c4 -6 4 -24 -1 -30 -7 -9 -27 -9 -34
0 -5 6 -5 24 0 30 7 9 27 9 35 0z m860 3 c3 -5 3 -6 1 -11 -4 -6 -14 -8 -14
-3 0 2 -1 3 -1 3 -8 -1 -9 5 -2 11 6 6 12 6 16 0z m622 -4 c3 -3 3 -3 0 -6 -4
-5 -11 1 -7 6 4 4 4 4 7 0z m-933 -29 c1 0 5 -3 8 -6 5 -5 6 -7 6 -17 0 -17
-5 -24 -21 -26 -5 -1 -17 -3 -29 -5 -11 -2 -23 -4 -25 -4 -8 0 -15 7 -15 16 0
12 3 14 47 37 8 4 14 6 19 6 4 -1 8 -1 10 -1z m460 -42 c5 -5 6 -7 6 -17 0
-16 -7 -23 -23 -23 -10 0 -12 1 -17 6 -5 5 -6 7 -6 17 0 16 7 23 23 23 10 0
12 -1 17 -6z m481 -75 c3 -3 3 -3 0 -6 -4 -5 -11 1 -7 6 4 4 4 4 7 0z m-930
-38 c5 -3 5 -3 2 -4 -2 -1 -6 -2 -8 -3 -2 -2 -4 -1 -6 1 -3 3 -3 3 0 6 5 4 5
4 12 0z m802 -10 c12 -7 14 -33 3 -43 -8 -9 -32 -9 -40 0 -9 8 -9 32 0 41 7 7
27 8 37 2z m-92 -46 c5 -8 1 -16 -8 -16 -9 0 -13 8 -8 16 2 3 5 5 8 5 3 0 6
-2 8 -5z m-739 -3 c5 -5 5 -11 0 -16 -10 -10 -27 5 -16 16 4 4 12 4 16 0z
m941 -11 c12 -12 3 -31 -13 -31 -11 0 -18 7 -18 18 0 11 7 18 18 18 6 0 9 -1
13 -5z m-537 -5 c9 -9 2 -24 -10 -24 -18 0 -19 28 0 28 3 0 8 -2 10 -4z m21
-91 c3 -3 3 -3 0 -6 -4 -5 -11 1 -7 6 4 4 4 4 7 0z m-515 -95 c5 -5 5 -11 0
-16 -10 -10 -27 5 -16 16 4 4 12 4 16 0z"/>
</g>
</svg>
