<?xml version="1.0" standalone="no"?>
<!DOCTYPE svg PUBLIC "-//W3C//DTD SVG 20010904//EN"
 "http://www.w3.org/TR/2001/REC-SVG-20010904/DTD/svg10.dtd">
<svg version="1.0" xmlns="http://www.w3.org/2000/svg"
 width="1106.000000pt" height="2870.000000pt" viewBox="0 0 1106.000000 2870.000000"
 preserveAspectRatio="xMidYMid meet">
<metadata>
Created by potrace 1.15, written by Peter Selinger 2001-2017
</metadata>
<g transform="translate(0.000000,2870.000000) scale(0.500000,-0.500000)"
fill="#000000" stroke="none">
<path d="M841 3841 c-11 -4 -17 -9 -22 -18 -4 -8 -4 -11 -5 -110 0 -113 -1
-108 13 -135 9 -16 10 -29 3 -42 -2 -5 -7 -11 -10 -13 -5 -4 -16 -5 -18 -3 -1
1 -59 47 -67 53 -3 2 -7 5 -8 6 -1 1 -6 5 -10 8 -4 3 -9 7 -10 8 -1 1 -5 4 -9
7 -4 3 -14 10 -22 17 -9 7 -18 14 -21 16 -3 2 -7 5 -8 6 -1 1 -6 5 -10 8 -8 6
-13 10 -18 14 -20 18 -34 25 -47 24 -15 -2 -18 -5 -62 -53 -9 -10 -19 -21 -22
-24 -3 -3 -8 -9 -11 -12 -12 -14 -22 -17 -59 -18 -18 -1 -35 -2 -38 -4 -6 -2
-22 -17 -22 -20 0 -3 -12 -16 -16 -16 -6 0 -11 9 -8 16 3 7 1 28 -3 36 -2 3
-5 7 -7 8 -5 3 -123 50 -132 53 -3 1 -10 4 -16 7 -32 16 -50 17 -63 6 -8 -8
-10 -21 -2 -29 5 -7 21 -13 34 -14 20 -1 30 -10 30 -28 0 -19 -8 -26 -29 -28
-21 -2 -34 -8 -40 -22 -4 -8 -4 -18 -4 -215 0 -235 -1 -222 17 -241 18 -20 18
-40 0 -60 -16 -17 -17 -24 -17 -107 l1 -71 6 -10 c4 -7 8 -11 21 -18 19 -12
22 -15 22 -28 0 -13 -3 -16 -22 -28 -13 -7 -17 -11 -21 -18 l-6 -10 -1 -129
c0 -142 -1 -134 12 -161 8 -15 8 -25 1 -39 -13 -27 -13 -26 -13 -101 0 -73 1
-78 10 -87 6 -5 24 -12 31 -12 7 0 14 -8 18 -20 2 -5 7 -12 11 -16 8 -7 9 -7
18 -6 12 2 15 3 30 19 15 15 17 16 41 9 26 -6 37 -3 64 17 18 13 28 25 36 41
l6 13 0 86 0 86 6 6 6 6 36 0 36 0 19 10 c22 10 29 11 36 4 9 -10 4 -19 -15
-30 -13 -7 -22 -17 -25 -27 -4 -12 -3 -103 1 -113 4 -9 14 -21 18 -21 2 0 3
-1 3 -2 0 -2 0 -2 19 -3 25 -2 45 9 56 30 4 6 11 13 15 13 5 0 28 9 41 16 l14
8 9 -4 c5 -2 11 -6 14 -8 8 -6 30 -8 34 -3 1 2 4 3 5 3 5 0 24 21 30 33 l6 12
1 227 c0 167 0 229 -2 235 -4 13 -10 19 -29 29 -20 10 -23 13 -23 27 0 12 4
18 17 27 5 4 11 8 13 9 3 3 3 32 0 34 -4 3 -10 17 -10 25 0 10 3 16 15 26 14
13 19 27 19 54 0 23 -2 31 -15 51 -12 19 -12 23 0 42 16 25 15 18 15 143 l0
111 5 8 c3 5 9 10 15 12 5 3 12 7 16 9 11 6 34 28 34 32 0 2 1 2 3 -2 2 -3 5
-6 6 -6 1 -1 2 -40 2 -122 1 -127 1 -132 10 -146 9 -14 31 -34 46 -43 12 -7
27 -9 32 -4 1 2 3 2 3 2 3 -2 11 14 11 24 3 32 8 39 28 39 6 0 14 -1 16 -2 3
-1 8 -1 25 3 6 2 34 30 39 39 3 7 4 17 3 40 0 12 6 18 19 18 13 0 19 -6 19
-19 0 -8 -4 -18 -10 -23 -7 -6 -10 -32 -5 -40 5 -7 5 -26 0 -33 -5 -7 -11 -10
-24 -9 -7 0 -15 0 -18 0 -9 1 -21 -6 -25 -13 -2 -3 -5 -12 -7 -19 -4 -18 -10
-22 -25 -22 -23 1 -34 0 -33 -2 1 -1 0 -2 -2 -2 -7 0 -23 -22 -27 -37 -3 -13
-1 -25 4 -34 12 -20 8 -43 -8 -50 -7 -3 -20 -3 -26 0 -3 2 -8 2 -17 0 -10 -1
-13 -2 -19 -9 l-8 -8 1 -38 c0 -36 0 -37 6 -48 3 -8 8 -14 15 -19 13 -10 16
-16 16 -29 0 -13 -3 -19 -16 -29 -7 -5 -12 -11 -15 -19 l-6 -11 -1 -242 -1
-242 -5 -12 c-5 -12 -11 -20 -30 -34 -25 -19 -28 -24 -33 -49 -2 -8 -6 -22 -8
-30 -9 -25 -7 -29 16 -65 11 -16 45 -68 76 -113 30 -46 58 -86 60 -88 4 -3 9
-4 20 -4 l14 0 10 11 c11 12 11 11 24 30 5 8 11 19 12 23 7 20 16 32 24 32 2
0 5 1 6 2 3 1 4 12 2 20 -1 5 -2 5 -7 4 -4 0 -6 0 -6 2 0 2 -1 1 -9 -5 -1 -2
-3 -2 -4 -2 0 1 -1 0 -1 -1 0 -2 -3 -5 -6 -6 -4 -2 -8 -4 -10 -5 -3 -4 -6 -4
-14 -1 -11 4 -13 16 -5 24 4 6 18 14 22 13 1 0 6 8 12 18 12 20 15 23 27 23
12 1 15 -1 23 -12 8 -11 17 -16 31 -16 10 0 10 0 30 19 49 47 200 199 205 208
4 5 9 16 11 25 2 9 7 22 10 29 6 12 8 26 5 35 -3 8 -27 15 -37 10 -2 -1 -6 -3
-8 -3 -1 0 -31 -10 -66 -22 -68 -23 -72 -24 -76 -40 -3 -11 -3 -24 0 -26 1 -1
2 -7 2 -13 0 -11 -1 -13 -6 -18 -6 -6 -7 -6 -18 -6 -11 0 -12 0 -18 6 -5 5 -6
7 -6 17 0 11 1 13 11 29 6 9 12 20 13 24 1 5 2 107 2 313 l-1 306 6 6 6 6 87
0 c86 0 87 0 95 4 8 4 25 22 25 25 0 2 11 8 17 8 16 1 23 -5 23 -19 0 -11 -3
-17 -15 -27 -18 -16 -19 -21 -19 -119 0 -78 0 -86 4 -101 5 -21 5 -29 0 -50
-6 -25 -6 -183 0 -197 4 -9 20 -27 24 -27 3 0 10 -13 10 -20 0 -7 -7 -20 -10
-20 -4 0 -22 -20 -24 -27 -1 -5 -4 -9 -5 -11 -2 -3 -2 -4 0 -8 2 -3 3 -6 4 -8
5 -13 8 -17 16 -26 5 -5 10 -11 11 -14 4 -8 6 -26 3 -33 -4 -10 -4 -20 1 -25
3 -3 5 -4 7 -2 1 1 8 3 15 4 6 1 13 2 14 3 5 3 23 2 32 -1 5 -2 17 -5 27 -7
32 -6 33 -14 3 -29 -9 -4 -22 -11 -28 -14 -9 -5 -12 -6 -23 -5 -18 1 -39 5
-40 7 -1 2 -26 -7 -31 -11 -2 -2 -6 -7 -7 -11 -6 -12 -1 -89 8 -124 1 -3 2 -5
2 -6 1 -4 10 -27 15 -37 26 -50 75 -80 148 -87 11 -1 42 -2 69 -2 51 0 58 1
65 9 5 5 12 21 13 28 0 7 5 15 8 15 5 0 10 -7 16 -19 9 -18 19 -24 45 -27 56
-7 156 19 186 48 8 7 18 33 18 45 0 5 9 15 19 22 11 7 16 12 22 25 10 24 5 56
-12 75 -9 11 -11 15 -16 35 -8 29 -11 34 -35 49 -18 12 -21 15 -22 28 0 8 1
15 7 33 7 23 7 23 6 49 0 14 -1 45 -2 68 -2 76 -3 91 -7 106 -8 26 -9 29 -10
29 -1 0 -8 0 -15 0 -7 0 -15 0 -17 0 -4 0 -9 -10 -12 -27 -1 -7 -8 -36 -15
-65 -15 -60 -15 -61 -4 -86 11 -22 8 -33 -11 -47 -15 -11 -27 -25 -36 -43 -12
-23 -12 -24 -23 -30 -10 -5 -10 -5 -62 -6 l-51 0 -6 5 c-3 3 -6 5 -7 5 -2 0
-3 1 -3 3 0 5 -19 18 -37 25 -13 5 -18 12 -18 27 0 16 5 22 20 28 31 12 38 21
38 53 0 12 -1 29 -3 39 -2 15 -2 19 0 34 2 13 3 55 4 214 l1 198 5 8 c2 5 6
10 9 11 2 1 7 4 10 6 3 3 19 15 35 27 25 19 47 36 50 39 1 1 6 5 12 9 6 5 13
10 15 12 2 2 9 8 15 13 6 5 11 9 12 10 1 1 4 3 7 6 5 3 22 18 36 31 3 2 11 10
18 16 8 7 19 17 25 23 13 13 24 18 44 20 25 3 37 9 53 25 17 17 19 20 19 33 0
17 -4 23 -27 37 -22 14 -28 18 -34 21 -2 1 -7 4 -10 6 -3 2 -8 5 -10 6 -2 1
-6 4 -9 6 -3 1 -23 13 -44 26 -21 13 -41 25 -44 26 -3 2 -7 5 -10 6 -2 1 -9 5
-15 9 -5 4 -19 12 -29 18 -18 11 -20 11 -32 11 -15 -1 -25 -5 -33 -15 -2 -3
-7 -8 -9 -11 -6 -6 -15 -26 -19 -40 -3 -12 -9 -29 -21 -64 -5 -12 -8 -24 -8
-27 0 -6 0 -6 -2 -1 -1 3 -2 4 -2 2 0 -1 -1 -2 -2 -1 -1 1 -2 2 -1 3 1 1 0 2
-1 2 -3 0 -4 13 -4 59 0 24 -1 45 -2 46 -1 3 -1 27 0 28 1 1 2 34 2 75 0 80 0
85 -10 93 -6 5 -28 14 -32 14 -4 0 -10 6 -10 11 0 5 6 11 10 11 4 0 26 9 32
14 8 6 9 11 10 64 1 49 1 50 6 57 3 4 7 8 9 9 6 1 25 16 31 24 8 10 9 23 5 40
-8 31 -20 49 -36 53 -10 2 -26 4 -91 11 -4 0 -16 2 -26 3 -109 13 -148 16
-157 13 -14 -4 -19 -8 -24 -20 l-5 -10 0 -75 c0 -51 1 -78 2 -82 3 -8 14 -20
19 -20 2 0 3 -1 3 -2 0 -2 1 -2 1 -1 1 0 3 0 5 -1 2 -1 8 -3 12 -3 19 -3 23
-10 21 -34 -3 -30 -3 -31 4 -35 3 -1 6 -4 7 -4 2 -2 14 -8 17 -8 1 0 5 -2 7
-5 8 -10 3 -35 -8 -41 -12 -6 -31 -2 -36 8 -2 5 -2 32 1 43 1 4 0 6 -7 13 l-9
7 -11 -2 c-12 -3 -20 -8 -24 -16 -3 -6 -3 -13 -4 -327 l0 -97 -5 -6 c-2 -3 -5
-8 -6 -11 0 -5 0 -5 -1 1 0 7 -11 20 -47 58 -42 44 -49 51 -54 58 -2 3 -7 9
-11 14 l-8 7 -14 0 c-17 -1 -19 -3 -30 -25 -11 -23 -14 -39 -9 -62 4 -20 8
-29 12 -30 2 -1 3 -3 3 -4 0 -2 1 -3 3 -2 2 0 3 0 2 -1 -2 -4 22 -2 28 2 4 3
10 4 18 4 16 0 22 -4 25 -19 5 -16 3 -21 -8 -27 -4 -3 -8 -5 -8 -6 0 -1 -1 -2
-2 -2 -3 0 -24 -17 -24 -19 0 -1 -4 -4 -8 -6 -7 -3 -8 -3 -11 0 -4 3 -4 6 0
17 2 5 4 13 4 18 1 5 2 9 2 10 2 3 -4 12 -9 15 -7 3 -24 2 -30 -2 -3 -1 -10
-3 -16 -4 -10 -1 -12 0 -17 4 -6 5 -6 5 -5 22 0 10 1 65 1 123 1 114 1 118 -9
134 -7 12 -19 16 -37 12 -23 -5 -25 -5 -30 0 -6 6 -7 16 -1 21 4 3 8 4 26 4
28 0 34 3 44 23 l7 13 0 31 c0 37 -2 44 -19 58 -6 5 -17 15 -25 23 -12 13 -16
15 -28 19 -8 2 -15 4 -16 4 -14 -3 -23 5 -23 21 0 20 9 24 43 19 12 -2 24 -5
26 -6 4 -1 26 5 32 10 6 5 10 14 11 27 2 15 6 21 19 27 16 7 19 12 19 27 0 15
-4 23 -14 35 -14 16 -21 17 -53 16 -11 0 -15 4 -22 20 -3 8 -8 17 -12 21 -12
13 -17 14 -98 22 -96 9 -96 9 -106 6z m92 -104 c5 -8 1 -16 -8 -16 -9 0 -13 8
-8 16 2 3 5 5 8 5 3 0 6 -2 8 -5z m560 -143 c5 -7 4 -25 -2 -31 -7 -7 -27 -7
-35 0 -4 4 -4 6 -3 16 1 6 3 13 5 15 7 9 28 8 35 0z m-929 -54 c2 -1 9 -7 15
-12 18 -16 22 -17 47 -16 20 0 22 0 26 -4 9 -9 4 -22 -13 -35 -17 -14 -24 -17
-37 -17 -12 0 -16 2 -32 18 -5 5 -25 18 -28 18 -1 0 -5 3 -9 7 -6 6 -7 7 -7
18 0 14 3 20 12 24 7 3 20 2 26 -1z m-296 -26 c5 -5 5 -15 0 -20 -9 -9 -24 -2
-24 10 0 8 6 14 14 14 3 0 8 -2 10 -4z m176 -8 c3 -1 6 -6 8 -11 4 -10 12 -50
12 -64 0 -6 1 -12 4 -16 4 -7 4 -7 19 -7 10 0 15 -1 16 -2 0 -2 1 -1 1 2 0 4
3 9 7 13 11 12 27 9 38 -8 16 -23 20 -47 9 -57 -3 -3 -7 -6 -9 -6 -22 -1 -28
2 -34 18 -4 14 -7 16 -26 16 -18 0 -19 -1 -17 -10 0 -1 -1 -2 -2 -2 -6 0 -6
-36 -6 -411 l1 -376 -6 -6 -6 -6 -37 0 -37 0 -5 6 -6 6 0 74 c-1 83 -1 81 -17
98 -20 20 -20 28 0 48 17 17 16 12 16 122 1 84 0 100 -2 106 l-3 8 -15 -1
c-10 0 -15 -1 -15 -3 0 -1 -1 1 -2 5 -1 7 -1 7 -2 -2 0 -16 -10 -24 -27 -25
-21 -1 -35 16 -29 38 3 10 6 14 19 20 11 5 13 7 26 16 4 3 9 5 10 5 1 0 4 2 7
5 3 3 5 5 6 5 2 0 4 1 14 10 14 13 14 7 14 177 l0 153 5 19 c8 30 14 39 28 43
17 4 35 4 43 0z m973 -75 c11 -9 9 -31 -3 -45 -9 -9 -16 -28 -17 -46 -1 -11
-14 -16 -21 -8 -5 5 -5 10 -1 21 5 15 5 29 1 44 -5 16 -3 29 6 35 7 6 28 6 35
-1z m-1190 -23 c16 -7 16 -43 -1 -50 -15 -6 -34 -2 -39 9 -4 8 -4 24 0 32 5
12 23 15 40 9z m673 -33 c3 -3 4 -7 4 -14 0 -13 -4 -17 -18 -19 -10 0 -12 0
-16 5 -6 6 -6 21 0 28 7 8 23 8 30 0z m661 -10 c14 -9 19 -19 18 -35 0 -17 -6
-22 -24 -22 -23 0 -41 18 -41 42 0 9 1 11 6 16 6 6 7 6 19 6 10 -1 15 -3 22
-7z m-943 -64 l-5 -5 -4 4 -5 5 4 4 5 5 4 -4 5 -5 -4 -4z m306 -5 c5 -6 5 -12
0 -18 -7 -8 -22 -2 -22 9 0 11 15 17 22 9z m805 -30 c10 -9 3 -26 -10 -26 -8
0 -15 7 -15 15 0 13 16 20 25 11z m-1060 -58 c7 -6 7 -19 1 -25 -6 -7 -19 -7
-25 -1 -7 6 -7 19 -1 25 6 7 19 7 25 1z m760 -7 c12 -12 3 -31 -13 -31 -11 0
-18 7 -18 18 0 11 7 18 18 18 6 0 9 -1 13 -5z m-20 -95 c20 -12 20 -42 0 -48
-22 -7 -40 -1 -54 20 -14 19 -12 27 5 27 6 0 12 1 14 2 9 6 25 5 35 -1z m183
-12 c4 -3 5 -7 6 -17 0 -12 0 -13 -6 -19 -8 -9 -25 -9 -34 0 -9 8 -9 26 0 34
7 8 26 9 34 2z m-296 -13 c8 -8 2 -23 -9 -23 -6 0 -11 5 -14 14 -3 9 15 16 23
9z m-676 -37 c5 -5 5 -15 0 -20 -9 -9 -24 -2 -24 10 0 8 6 14 14 14 3 0 8 -2
10 -4z m377 -19 c12 -7 14 -33 3 -43 -8 -9 -32 -9 -40 0 -9 8 -9 32 0 41 7 7
27 8 37 2z m-737 -96 c10 -5 14 -25 8 -39 -4 -10 -12 -13 -35 -12 -11 0 -27
-1 -36 -3 -20 -4 -18 -4 -22 2 -3 5 -3 6 0 12 2 4 5 7 6 7 4 0 32 19 36 25 8
12 28 16 43 8z m1231 -5 c11 -10 3 -28 -11 -28 -9 0 -16 6 -16 16 0 14 17 22
27 12z m-485 -94 c2 -2 4 -5 4 -7 0 -6 -7 -17 -15 -22 -11 -6 -35 -29 -35 -32
0 -2 -1 -3 -2 -3 -1 0 -2 -1 -1 -2 1 -1 0 -2 -1 -2 -1 0 -2 -3 -3 -6 -3 -15
-16 -24 -35 -24 -19 0 -25 4 -25 22 -1 17 1 21 21 33 9 6 19 13 21 15 2 1 6 4
9 6 31 18 48 26 55 25 2 0 6 -2 7 -3z m-355 -9 c9 -9 8 -38 -1 -48 -6 -7 -16
-6 -24 1 -11 10 -14 38 -5 47 7 7 23 7 30 0z m388 -72 c11 -11 1 -41 -21 -65
-11 -12 -42 -11 -47 1 -8 21 -8 34 1 41 4 4 8 6 9 6 1 0 5 3 9 6 21 17 39 21
49 11z m-394 -84 c-1 -30 -4 -50 -7 -55 -8 -13 -33 -33 -42 -34 -19 -1 -26 4
-26 20 0 15 3 19 23 28 21 10 22 12 29 31 3 9 8 18 10 21 5 4 5 4 9 0 3 -3 4
-6 4 -11z m901 -2 c21 -9 20 -45 -2 -54 -10 -5 -28 -1 -34 6 -9 10 -9 32 0 42
7 8 24 11 36 6z m-1232 -93 c1 0 5 -3 8 -6 5 -5 6 -7 6 -18 0 -11 -1 -13 -6
-18 -6 -6 -7 -6 -18 -6 -11 0 -12 0 -18 6 -5 5 -6 7 -6 17 0 14 3 20 12 24 5
2 8 2 22 1z m629 -6 c16 -7 16 -43 -1 -50 -15 -6 -34 -2 -39 9 -4 8 -4 24 0
32 5 12 23 15 40 9z m-730 -240 c10 -9 3 -26 -10 -26 -8 0 -15 7 -15 15 0 13
16 20 25 11z m675 -63 l-5 -5 -4 4 -5 5 4 4 5 5 4 -4 5 -5 -4 -4z m915 -43
c10 -9 3 -26 -10 -26 -8 0 -15 7 -15 15 0 13 16 20 25 11z m-304 -25 c4 -4 5
-7 5 -15 0 -14 -6 -20 -20 -20 -14 0 -20 6 -20 20 0 14 6 20 20 20 8 0 11 -1
15 -5z m69 -89 c5 -6 5 -12 0 -18 -7 -8 -22 -2 -22 9 0 11 15 17 22 9z"/>
</g>
</svg>
