<?xml version="1.0" standalone="no"?>
<!DOCTYPE svg PUBLIC "-//W3C//DTD SVG 20010904//EN"
 "http://www.w3.org/TR/2001/REC-SVG-20010904/DTD/svg10.dtd">
<svg version="1.0" xmlns="http://www.w3.org/2000/svg"
 width="1112.000000pt" height="2870.000000pt" viewBox="0 0 1112.000000 2870.000000"
 preserveAspectRatio="xMidYMid meet">
<metadata>
Created by potrace 1.15, written by Peter Selinger 2001-2017
</metadata>
<g transform="translate(0.000000,2870.000000) scale(0.500000,-0.500000)"
fill="#000000" stroke="none">
<path d="M1710 3832 c-3 -1 -9 -8 -15 -16 -5 -8 -16 -22 -23 -32 -7 -10 -18
-24 -24 -32 -5 -8 -11 -17 -13 -19 -2 -2 -5 -8 -7 -12 -7 -12 -17 -26 -24 -30
-5 -4 -12 -4 -96 -5 -94 -2 -96 -2 -96 -4 0 -1 -2 -2 -4 -3 -2 -1 -8 -5 -13
-10 -5 -5 -12 -10 -15 -12 -6 -4 -6 -4 -12 0 -4 2 -9 6 -12 9 -11 14 -31 19
-41 10 -6 -5 -15 -24 -15 -31 0 -7 -5 -17 -9 -21 -2 -2 -8 -3 -18 -3 -25 -1
-41 -5 -50 -15 -4 -4 -3 -20 1 -30 3 -6 20 -15 27 -14 2 1 5 0 6 -2 2 -2 7 -3
24 -3 14 0 23 -1 23 -2 1 -1 2 -1 2 2 0 4 2 4 8 -2 l4 -4 -5 -5 c-5 -5 -7 -5
-7 0 0 2 -1 2 -2 1 0 -2 -3 -3 -6 -4 -14 -2 -23 -8 -29 -18 -4 -8 -5 -81 -1
-90 3 -5 13 -8 28 -7 4 1 8 0 9 -1 0 -1 1 -1 1 1 0 2 3 6 7 10 13 11 25 8 68
-14 2 0 8 -5 14 -10 12 -9 12 -9 29 -9 9 -1 18 0 19 1 1 1 4 2 7 2 18 2 26 -4
26 -20 0 -5 -1 -12 -3 -16 -4 -7 -3 -34 1 -42 6 -12 41 -22 50 -14 3 2 5 4 6
4 3 0 16 14 19 20 4 6 4 14 5 77 0 74 -1 97 -5 102 -2 1 -8 3 -17 3 -8 0 -15
1 -16 1 -1 1 -2 1 -2 0 0 -1 -4 -6 -9 -11 -8 -9 -9 -10 -22 -11 -7 -1 -15 -2
-16 -2 -1 -1 -5 1 -9 5 l-6 5 6 23 c6 25 6 38 1 53 -4 11 -4 16 1 21 7 8 18 4
33 -11 20 -19 36 -27 56 -27 7 0 13 1 14 1 0 1 11 2 23 2 19 0 22 1 31 5 16 9
29 33 30 56 0 7 2 17 4 21 1 4 2 7 2 7 -1 0 1 2 4 4 6 5 16 5 24 1 15 -7 18
-8 32 -8 8 0 17 1 21 2 14 3 22 -13 12 -23 -5 -5 -11 -5 -21 -1 -10 4 -31 5
-38 1 -7 -4 -19 -21 -20 -31 -2 -12 2 -24 10 -30 15 -12 24 -13 87 -13 l58 0
20 7 c23 8 33 9 46 4 25 -9 43 -5 58 13 16 18 22 37 14 49 -6 11 -10 12 -36
12 -22 -1 -24 -1 -29 4 -6 4 -6 5 -7 29 -2 32 -3 35 -24 53 -6 5 -29 5 -42 0
-22 -8 -26 -5 -25 16 3 26 -2 37 -24 53 -3 2 -12 10 -20 18 l-14 13 -12 1 c-7
0 -14 -1 -17 -2z m-155 -203 c4 -5 2 -15 -3 -15 -1 0 -3 -1 -4 -1 -4 0 -12 7
-12 10 0 1 1 4 3 7 4 6 12 5 16 -1z m-159 -102 c5 -3 5 -4 4 -10 -1 -4 -1 -7
0 -7 0 0 -1 -1 -4 -2 -4 -1 -5 0 -8 6 -5 8 -5 10 -2 14 3 3 3 3 10 -1z m18
-26 c0 -1 1 -1 3 0 2 0 3 0 4 -1 1 -1 3 -2 5 -2 2 0 7 -3 12 -7 l8 -8 -4 -11
c-5 -14 -10 -18 -22 -18 -9 0 -10 1 -13 7 -5 10 -7 25 -5 36 1 5 3 6 7 6 3 0
5 -1 5 -2z"/>
<path d="M591 3816 c-11 -2 -21 -12 -52 -47 -2 -2 -10 -11 -19 -21 -21 -23
-23 -27 -23 -51 0 -15 -1 -21 -3 -23 -8 -7 -17 -3 -28 12 -7 9 -19 16 -29 16
-4 0 -14 -3 -22 -7 -20 -10 -29 -10 -48 -1 -26 12 -24 12 -123 12 -102 0 -96
0 -121 -15 -8 -6 -19 -12 -24 -15 l-9 -5 0 -17 0 -17 8 -4 c11 -6 15 -9 18
-15 17 -32 24 -36 71 -36 30 0 36 1 53 5 23 6 31 6 55 0 l19 -5 81 0 82 1 6
-6 6 -6 0 -153 0 -153 -6 -6 -6 -6 -23 0 c-22 0 -24 0 -34 -6 -8 -5 -24 -20
-30 -29 -2 -2 -19 -8 -26 -8 -10 0 -19 16 -12 24 3 2 4 23 1 31 -3 13 -5 14
-51 35 -33 15 -37 16 -47 12 -12 -5 -14 -12 -13 -37 0 -19 0 -19 -6 -25 -3 -3
-7 -6 -9 -6 -11 -1 -20 0 -43 4 -29 5 -29 5 -43 1 -8 -3 -13 -6 -17 -11 -4 -5
-6 -8 -5 -8 1 0 1 -1 0 -2 -2 -3 -4 -32 -4 -70 0 -18 1 -20 6 -29 6 -9 37 -34
58 -46 19 -11 20 -17 10 -47 -7 -19 -10 -25 -15 -28 -6 -3 -20 -3 -26 0 -7 4
-38 -1 -35 -6 1 -1 0 -2 -1 -2 -5 0 -7 -9 -9 -37 -4 -56 -9 -116 -11 -121 -2
-5 -3 -34 -1 -42 4 -16 4 -24 -2 -29 -6 -6 -18 -7 -27 -2 -8 4 -30 2 -30 -4
-1 -16 -1 -20 3 -25 5 -5 20 -16 38 -25 7 -4 19 -11 28 -15 9 -5 23 -13 32
-18 17 -9 24 -13 44 -24 62 -34 62 -34 74 -34 11 1 22 5 27 11 8 9 10 17 13
40 2 11 5 16 14 20 6 3 20 7 30 8 3 1 8 2 10 3 3 1 36 2 73 2 l68 0 5 -6 c6
-5 6 -6 5 -15 -4 -27 -11 -113 -11 -133 0 -13 0 -24 -1 -24 -1 0 -2 -2 -3 -4
0 -3 -2 -8 -3 -12 -1 -3 -1 -6 0 -5 1 0 1 -5 1 -13 0 -8 1 -13 1 -13 2 1 3 -5
2 -9 0 -1 6 -2 13 -2 8 0 13 1 12 2 -1 1 0 1 2 1 3 -2 9 17 10 38 2 24 2 23
19 41 8 8 18 19 22 23 8 9 13 9 25 -1 6 -4 11 -9 12 -10 2 -1 6 -2 21 -6 4 -1
10 0 14 1 4 1 10 2 15 2 4 1 7 2 7 3 0 1 1 2 2 1 1 -1 2 0 2 0 0 1 2 4 5 7 11
12 11 20 3 44 -8 22 -8 28 1 37 l7 8 10 -5 c15 -7 42 -41 45 -57 l1 -6 17 1
c19 1 19 2 23 15 2 8 2 25 -1 57 -1 12 -1 14 4 22 11 20 15 30 15 37 0 14 11
22 17 14 3 -4 20 -2 26 2 4 3 5 13 3 23 -1 3 -2 6 -2 8 -1 4 -12 14 -31 30 -8
7 -16 14 -18 15 -4 4 -58 49 -73 62 -8 6 -19 16 -25 21 -6 5 -12 11 -15 13 -3
2 -9 8 -15 12 -14 12 -28 15 -44 9 -4 -1 -31 -26 -57 -52 -8 -8 -8 -9 -7 -20
0 -6 1 -12 1 -14 1 -4 11 -13 18 -17 7 -5 14 -17 15 -29 1 -9 1 -10 -5 -15 -6
-5 -8 -5 -26 -5 -19 0 -20 0 -26 6 -4 4 -6 9 -7 15 -2 10 -8 17 -22 23 -8 4
-14 4 -73 4 l-65 0 -5 5 -5 5 2 24 c5 48 14 169 14 190 0 12 -7 26 -15 31 -7
4 -21 5 -29 3 -3 -1 -6 0 -9 3 -4 5 -5 7 -5 21 1 21 5 30 19 37 16 8 25 7 44
-5 23 -15 29 -16 72 -16 l37 1 6 -6 6 -6 -1 -22 c0 -30 4 -41 22 -50 6 -3 12
-4 37 -5 l31 0 6 5 c9 8 11 29 4 40 -3 4 -4 10 -4 17 0 12 2 16 11 27 13 16
17 19 23 22 11 4 14 -1 19 -28 2 -13 5 -26 8 -32 3 -5 5 -11 5 -12 0 -1 4 -5
9 -8 13 -9 26 -7 55 8 22 11 40 23 40 29 0 1 1 2 2 2 1 0 4 7 8 18 2 7 2 85 0
94 -4 13 -4 29 -1 40 4 13 4 69 0 80 -2 5 -8 17 -15 28 -12 19 -15 27 -17 44
-1 10 1 14 17 27 15 11 17 18 18 55 1 39 2 41 21 50 20 9 25 18 24 41 -1 16
-1 28 -1 41 1 17 -2 24 -15 29 -6 3 -12 5 -13 4 -2 -1 -9 7 -11 13 -4 14 -12
31 -16 34 -5 5 -19 8 -32 9 -6 0 -10 1 -10 1 1 1 -1 3 -3 5 -2 2 -4 5 -4 7 0
2 -2 5 -4 6 -2 2 -6 7 -9 11 -8 11 -26 29 -37 36 -5 3 -16 12 -26 18 -9 7 -18
13 -20 13 -1 0 -5 1 -8 1 -3 0 -8 0 -11 -1z m119 -118 c0 -2 1 -5 3 -7 5 -5 4
-20 -2 -26 -11 -12 -31 -4 -31 13 0 10 6 17 18 22 10 4 12 4 12 -2z m-45 -169
c6 -7 16 -16 23 -21 14 -9 18 -13 18 -22 0 -20 -22 -21 -41 -3 -6 6 -16 12
-30 17 -14 6 -17 10 -17 23 0 13 4 19 14 21 13 2 20 -1 33 -15z m-58 -102 c4
-4 5 -7 5 -15 0 -14 -6 -20 -20 -20 -14 0 -20 6 -20 20 0 14 6 20 20 20 8 0
11 -1 15 -5z m70 -88 c3 -3 3 -3 0 -6 -4 -5 -11 1 -7 6 4 4 4 4 7 0z m-101 -6
c4 -5 4 -6 0 -17 -5 -15 -25 -23 -31 -13 -7 10 2 27 16 32 11 4 11 4 15 -2z
m150 -88 c0 -1 -2 -3 -3 -5 -4 -4 -4 -4 -8 0 l-5 5 4 4 c4 5 5 5 8 2 2 -2 4
-5 4 -6z m24 2 c7 -1 7 -2 2 -3 -6 -3 -24 -2 -24 1 0 2 13 3 22 2z m-183 -10
c6 -4 6 -6 6 -20 0 -19 -3 -22 -23 -27 -8 -2 -23 -6 -32 -9 -10 -3 -19 -5 -20
-5 -4 1 -10 8 -10 11 0 6 7 17 15 22 5 3 9 6 8 7 0 4 7 12 16 19 9 6 11 7 22
7 11 0 14 -1 18 -5z m-263 -169 c2 -4 3 -8 3 -9 -1 -2 0 -7 2 -12 4 -16 5 -21
2 -40 -4 -24 -9 -38 -20 -50 -5 -6 -12 -14 -15 -20 -4 -5 -10 -11 -15 -13 l-8
-4 -25 7 c-20 5 -27 8 -30 11 -4 5 -4 5 0 9 3 3 8 5 12 6 36 6 45 17 47 59 1
41 6 52 28 63 10 5 13 4 19 -7z m-15 -194 c16 -7 16 -43 -1 -50 -15 -6 -34 -2
-39 9 -4 8 -4 24 0 32 5 12 23 15 40 9z m212 -105 l5 -4 -5 -7 c-7 -7 -10 -8
-15 -1 -5 5 -5 5 1 12 6 6 7 6 14 0z m168 -53 c2 -3 3 -6 3 -7 0 -3 -8 -12
-11 -12 -2 0 -11 9 -11 12 0 5 6 11 11 11 3 0 6 -2 8 -4z"/>
<path d="M874 3795 c-15 -7 -20 -11 -25 -22 -5 -9 -5 -12 -5 -36 0 -26 0 -27
6 -38 4 -7 7 -12 8 -13 1 0 2 -2 2 -3 0 -2 2 -8 5 -13 2 -6 6 -15 9 -21 9 -22
22 -26 49 -15 19 7 22 7 26 1 3 -5 3 -6 0 -14 -2 -4 -6 -11 -9 -14 -4 -5 -5
-8 -5 -15 0 -5 -1 -11 -2 -13 -3 -5 -2 -5 16 -14 20 -9 23 -13 23 -24 0 -13
-15 -22 -28 -15 -4 2 -17 22 -16 25 0 0 -1 1 -2 1 -2 0 -2 1 -1 1 2 2 -5 9 -9
9 -2 0 -8 2 -14 4 -5 2 -12 4 -14 4 -2 0 -4 1 -4 2 0 2 -21 -3 -27 -6 -2 -1
-6 -5 -8 -9 -5 -7 -5 -8 -5 -85 0 -55 1 -81 2 -86 4 -12 11 -19 23 -25 l12 -5
23 2 c29 3 33 2 36 -10 2 -8 1 -14 -2 -14 -1 0 -2 -1 -2 -3 0 -1 -4 -4 -9 -5
-6 -1 -12 -4 -15 -6 -3 -1 -14 -6 -26 -11 -43 -18 -41 -13 -42 -113 0 -99 -1
-97 25 -109 7 -3 13 -7 13 -8 0 -2 1 -3 3 -2 1 0 2 -1 2 -3 0 -2 -1 -3 -2 -2
-2 0 -3 -1 -3 -2 0 -2 -6 -6 -13 -9 -23 -10 -25 -15 -25 -60 0 -27 1 -34 4
-41 5 -12 12 -21 22 -26 11 -6 13 -11 14 -34 1 -20 2 -23 9 -37 4 -9 7 -18 7
-22 0 -3 0 -12 -1 -20 -1 -21 4 -30 20 -39 11 -6 15 -12 15 -23 0 -11 -4 -17
-19 -25 -15 -9 -17 -12 -19 -25 -1 -11 0 -13 4 -23 10 -20 7 -30 -11 -33 -15
-2 -30 -8 -35 -14 -10 -12 -10 -9 -10 -223 0 -224 -1 -213 14 -228 15 -15 30
-21 63 -25 5 -1 11 -3 13 -5 6 -5 10 -24 11 -48 0 -30 -5 -37 -27 -37 -19 0
-26 7 -27 26 -2 22 -8 37 -21 45 -8 6 -10 6 -22 5 -7 0 -16 -2 -19 -4 -8 -4
-27 -24 -28 -30 -4 -16 12 -67 25 -81 11 -12 52 -34 63 -34 11 0 20 4 27 10
13 13 26 16 34 7 4 -4 4 -6 3 -22 -2 -21 1 -33 8 -40 3 -3 6 -5 6 -5 1 0 8 -4
16 -9 25 -13 32 -17 34 -19 13 -10 43 -19 48 -15 0 1 2 2 4 2 8 1 16 12 43 56
15 26 28 48 28 49 0 0 3 3 8 6 6 4 10 5 29 6 28 1 36 5 43 20 4 6 7 17 8 24 2
17 7 22 23 22 9 0 14 -1 26 -8 8 -4 21 -10 29 -12 21 -6 24 -8 29 -17 3 -4 9
-11 13 -15 15 -14 14 -14 147 -14 l118 1 8 5 c5 2 12 8 16 13 20 23 34 23 55
-1 8 -10 9 -10 21 -10 l12 0 5 10 c3 5 6 12 7 14 0 3 1 5 1 5 0 0 1 4 1 9 1 4
3 11 5 15 7 13 4 32 -5 40 -2 2 -10 6 -17 9 -7 3 -20 12 -29 20 -31 27 -30 27
-58 24 -2 0 -6 -4 -9 -10 -10 -15 -19 -19 -45 -20 -11 -1 -21 0 -21 0 0 1 -3
4 -7 6 -4 3 -7 6 -7 8 0 1 -2 5 -3 8 -17 25 -24 45 -24 70 1 14 4 23 12 31 6
6 13 17 16 26 3 8 3 24 3 113 0 98 0 105 -4 114 -4 11 -11 20 -15 20 -2 0 -3
1 -3 2 0 2 -15 5 -31 7 -18 2 -22 7 -22 25 3 84 3 84 14 90 7 3 25 3 32 -1 4
-1 8 -6 9 -9 13 -34 17 -40 32 -45 10 -3 22 -3 22 2 0 1 2 0 3 -3 2 -3 5 -7 7
-9 2 -2 3 -6 2 -10 -1 -15 8 -35 20 -42 19 -11 56 -15 95 -10 36 4 44 13 49
51 2 20 7 24 25 24 11 0 14 -1 18 -5 6 -7 11 -13 11 -15 0 -2 11 -11 17 -14
10 -5 20 -5 29 1 24 15 30 30 23 55 -4 12 -3 32 1 40 7 13 8 25 8 110 l0 83
-9 25 c-4 14 -8 27 -8 30 1 3 4 14 8 24 11 28 11 41 2 61 -5 8 -20 28 -27 34
-8 7 -31 17 -38 17 -11 0 -16 21 -7 30 7 7 23 5 32 -5 5 -6 15 -11 28 -15 47
-14 60 -13 77 4 13 12 17 24 12 40 -2 7 -6 11 -20 23 -9 7 -21 17 -25 21 -5 4
-13 11 -18 15 -5 4 -15 12 -20 17 -11 10 -29 17 -46 19 -10 2 -14 6 -20 23 -5
11 -15 27 -20 30 -3 3 -18 15 -28 24 -12 10 -16 12 -30 12 -12 0 -17 -2 -26
-11 -8 -6 -19 -23 -19 -27 0 -4 -8 -19 -12 -23 -3 -3 -11 -7 -19 -10 -8 -3
-19 -9 -23 -13 -9 -7 -24 -17 -26 -17 -1 1 -7 -2 -15 -6 -11 -5 -16 -9 -23
-18 -11 -13 -16 -16 -41 -21 -28 -6 -40 -6 -53 1 -14 8 -28 11 -43 11 -9 0
-13 1 -16 4 -7 6 -7 16 0 22 5 5 7 5 31 -1 20 -5 27 -4 40 4 6 3 16 9 22 11 6
3 14 8 17 11 3 3 6 5 7 5 4 0 12 19 13 27 0 9 -1 10 -9 19 -12 12 -24 20 -32
22 -12 2 -33 1 -37 -2 -2 -1 -8 -3 -13 -3 -20 0 -29 18 -19 38 3 6 4 13 4 22
0 21 -5 26 -25 27 -13 0 -15 0 -33 -9 -10 -5 -21 -11 -23 -14 -6 -6 -14 -16
-14 -17 0 -1 -3 -4 -7 -6 -6 -3 -10 -4 -24 -4 -27 1 -38 -6 -47 -26 -4 -7 -4
-13 -4 -47 0 -29 -1 -40 -3 -45 -4 -9 -9 -41 -9 -50 0 -14 -16 -22 -26 -11 -3
3 -4 7 -4 12 1 10 -5 27 -10 33 -8 9 -26 12 -42 8 -10 -3 -27 -19 -24 -23 1
-2 2 -3 1 -3 -1 0 -2 -7 -2 -16 0 -11 -1 -17 -4 -22 -11 -20 -39 -18 -39 3 0
10 6 21 20 35 15 14 16 21 9 43 -5 15 -5 20 3 34 10 18 10 19 10 165 l0 136 5
11 c3 5 6 10 7 11 1 1 2 8 2 16 l1 14 -19 10 c-10 5 -22 12 -26 16 -10 10 -20
15 -33 19 -7 2 -13 3 -14 3 -6 -1 -10 1 -15 6 -8 7 -8 23 -2 36 5 10 5 26 1
35 -4 7 -10 11 -56 32 -28 13 -44 16 -56 10 -8 -4 -8 -6 -2 -26 6 -22 0 -37
-17 -41 -17 -4 -30 3 -34 18 -5 17 1 27 20 36 8 4 14 7 13 8 0 1 -1 7 -1 15
-1 16 -2 17 -22 19 -13 1 -17 0 -24 -3z m173 -250 c3 -5 3 -5 0 -10 -2 -3 -5
-5 -7 -5 -2 0 -5 2 -7 5 -3 5 -3 5 0 10 2 3 5 5 7 5 2 0 5 -2 7 -5z m-84 -98
c3 -1 17 -20 17 -23 0 -1 1 -2 3 -3 4 -1 -3 -6 -14 -10 -24 -8 -37 -2 -37 17
0 14 6 20 19 20 5 0 10 -1 12 -1z m67 -35 c5 -5 5 -15 0 -20 -4 -4 -18 -6 -18
-2 0 1 -2 2 -3 3 -2 0 -6 4 -9 8 -5 8 -4 11 5 12 3 1 6 1 6 2 3 2 16 0 19 -3z
m-31 -103 c7 -5 10 -11 10 -23 0 -19 -8 -27 -27 -27 -20 0 -27 8 -27 30 0 21
3 25 23 24 10 0 17 -2 21 -4z m-51 -96 c9 -6 12 -19 5 -27 -4 -4 -6 -4 -16 -4
-13 1 -19 7 -19 18 0 14 15 21 30 13z m424 -84 c3 -1 7 -7 10 -12 9 -20 17
-29 26 -35 l9 -5 48 -1 c60 0 63 0 83 20 22 21 30 19 50 -14 14 -24 15 -29 4
-60 l-6 -16 0 -96 c0 -91 0 -96 4 -105 2 -5 6 -11 9 -14 6 -6 24 -15 28 -15
10 0 19 -19 15 -34 -4 -20 -17 -23 -52 -13 -34 10 -50 9 -72 -2 -19 -10 -28
-11 -47 -1 -14 7 -14 7 -42 7 -15 0 -37 1 -47 2 -25 2 -37 -1 -45 -10 -8 -9
-12 -23 -9 -30 6 -12 12 -35 12 -46 0 -11 -1 -13 -5 -18 -6 -5 -7 -5 -19 -4
-7 1 -15 3 -17 4 -8 5 -25 44 -28 64 -2 10 -9 25 -15 31 -8 9 -17 10 -65 10
l-44 0 -9 5 c-4 3 -8 7 -8 8 0 2 -3 9 -7 16 -10 19 -10 31 -1 49 15 27 14 21
14 142 l-1 109 6 6 6 6 70 0 70 0 9 6 c6 3 12 9 16 16 4 6 9 15 12 20 8 12 25
17 38 10z m347 -9 c-4 -5 -7 -5 -11 -1 -4 4 -4 4 0 8 l5 5 4 -4 c5 -4 5 -5 2
-8z m-1 -48 c1 -1 5 -2 6 -3 7 -2 11 -11 11 -23 0 -19 -8 -27 -27 -27 -19 0
-27 8 -27 27 0 12 4 21 11 23 1 1 4 2 6 3 4 2 15 2 20 0z m107 -85 c12 -12 3
-31 -13 -31 -11 0 -18 7 -18 18 0 11 7 18 18 18 6 0 9 -1 13 -5z m-57 -86 c4
-4 4 -7 4 -15 -1 -26 0 -34 9 -57 5 -13 4 -24 -4 -69 -4 -18 -5 -21 -15 -32
-8 -9 -11 -20 -9 -38 1 -18 -2 -24 -13 -24 -12 0 -17 11 -11 25 6 13 5 30 -2
43 -5 11 -7 27 -7 84 0 4 2 12 5 19 7 15 9 26 9 44 0 13 0 16 4 20 7 8 23 8
30 0z m-766 -61 c5 -5 5 -11 0 -16 -10 -10 -27 5 -16 16 4 4 12 4 16 0z m81
-113 c3 -3 5 -6 5 -9 0 -2 1 -4 2 -5 1 -1 3 -6 4 -11 5 -15 13 -26 27 -34 11
-8 16 -12 26 -28 5 -8 12 -16 16 -18 3 -2 7 -4 8 -5 4 -3 12 -4 46 -4 l34 0 6
-6 6 -6 0 -78 0 -78 5 -11 c3 -6 9 -14 12 -18 33 -36 39 -48 33 -59 -2 -4 -6
-8 -8 -9 -3 -2 -5 -3 -5 -4 0 -1 -1 -2 -3 -2 -6 0 -23 -18 -28 -31 -5 -13 -6
-16 -7 -47 -1 -46 1 -52 23 -73 15 -14 18 -23 15 -37 -4 -21 -20 -23 -57 -11
-19 7 -21 7 -39 7 -14 -1 -22 -2 -28 -5 -5 -3 -14 -6 -19 -8 -10 -3 -11 -3
-15 2 -4 5 -4 10 1 31 4 16 3 211 -1 235 -1 9 -1 17 0 27 1 7 3 41 3 75 1 53
1 63 -2 72 -3 10 -12 23 -16 23 -2 0 -3 1 -3 2 -2 4 -19 4 -33 0 -15 -4 -23
-11 -25 -20 -3 -14 -2 -19 3 -29 6 -11 7 -26 2 -33 -3 -3 -11 -8 -31 -17 -3
-1 -12 -7 -20 -12 -8 -6 -16 -11 -17 -11 -2 0 -6 0 -9 0 -11 0 -12 0 -18 6 -5
5 -6 7 -6 18 0 15 4 20 20 26 14 5 36 16 36 18 0 1 3 3 7 6 10 6 13 12 13 27
1 12 -2 21 -6 21 -2 0 -4 1 -6 3 -2 1 -12 7 -24 13 -31 17 -51 30 -55 38 -4 6
-4 6 1 11 6 7 16 8 57 10 13 1 25 2 27 3 5 3 10 13 11 23 0 4 1 10 1 13 0 7 9
14 18 14 6 0 9 -1 13 -5z m537 -83 c-3 -7 -6 -7 -11 -3 -4 4 -4 7 1 14 l5 6 4
-6 c5 -5 5 -5 1 -11z m-218 -40 c14 -8 15 -33 1 -48 -16 -17 -18 -30 -10 -52
7 -19 7 -28 0 -36 -12 -14 -41 -21 -53 -12 -8 6 -13 21 -13 44 0 21 1 26 11
37 4 6 9 11 10 13 4 4 8 18 11 35 4 21 7 23 26 22 7 0 15 -2 17 -3z m65 -111
c15 -6 31 -20 31 -30 0 -3 -7 -17 -12 -22 -5 -6 -7 -11 -9 -20 0 -4 -1 -11 -2
-14 -1 -3 -1 -9 -2 -12 -2 -10 -9 -15 -24 -15 -18 0 -24 5 -24 22 -1 15 1 22
9 26 10 4 15 13 16 29 0 11 0 16 -3 19 -4 6 -4 11 1 16 4 4 8 4 19 1z m-520
-68 c23 -11 29 -19 22 -29 -3 -4 -4 -4 -17 -3 -21 2 -41 7 -45 12 -7 5 -7 18
0 25 6 6 20 5 40 -5z m466 -101 c5 -5 6 -7 6 -16 0 -15 -8 -23 -23 -23 -9 0
-11 1 -16 7 -9 8 -9 23 -1 32 9 9 24 9 34 0z m-410 -4 c4 -6 4 -24 -1 -30 -7
-9 -27 -9 -34 0 -5 6 -5 24 0 30 7 9 27 9 35 0z m-58 -97 c3 -5 3 -5 0 -10 -2
-3 -5 -5 -7 -5 -2 0 -5 2 -7 5 -3 5 -3 5 0 10 2 3 5 5 7 5 2 0 5 -2 7 -5z
m505 -30 c3 -3 4 -7 4 -14 0 -13 -6 -19 -19 -19 -13 0 -19 6 -19 19 0 7 1 11
4 14 7 8 23 8 30 0z m-408 -101 c9 -3 16 -4 33 -3 21 0 23 0 26 -4 3 -5 3 -5
0 -10 -2 -3 -5 -5 -7 -4 -7 1 -27 -8 -32 -15 -5 -6 -5 -8 -5 -26 1 -19 1 -20
-4 -25 -7 -7 -19 -7 -26 0 -3 3 -5 6 -5 8 0 8 -11 35 -18 44 -23 30 -2 49 38
35z m523 -5 c5 -8 1 -16 -8 -16 -9 0 -13 8 -8 16 2 3 5 5 8 5 3 0 6 -2 8 -5z"/>
<path d="M158 3362 c0 -2 -3 -2 -12 -2 -13 1 -16 -1 -21 -9 -9 -14 -7 -32 5
-38 3 -2 11 -3 17 -3 l12 0 5 10 c5 12 5 29 -1 36 -1 2 -3 4 -4 6 0 2 -1 2 -1
0z"/>
<path d="M725 2560 c-4 -5 -14 -7 -32 -7 -18 1 -19 1 -27 -4 -5 -3 -10 -7 -12
-9 -1 -2 -3 -4 -5 -4 -2 0 -4 -2 -6 -5 -1 -4 -4 -6 -5 -5 -7 2 -27 1 -37 -1
-40 -9 -53 -21 -56 -53 -2 -15 -7 -21 -17 -19 -9 2 -12 4 -15 12 -2 5 -3 5
-19 6 -10 0 -17 0 -17 -1 0 0 -1 -2 -3 -4 -1 -2 -3 -5 -3 -6 0 -1 -1 -2 -1 -2
0 -1 -1 -3 -1 -6 -1 -9 -3 -25 -7 -44 -2 -10 -4 -22 -5 -26 0 -4 -4 -18 -7
-32 -4 -14 -8 -33 -9 -42 -2 -13 -4 -18 -9 -24 -3 -4 -6 -9 -7 -12 -1 -3 -3
-8 -5 -11 -3 -6 -4 -27 -1 -26 0 1 1 0 1 -1 0 -1 1 -2 2 -1 1 1 2 0 2 -1 0 -3
15 -7 22 -5 4 0 11 4 15 9 4 4 7 6 7 4 -1 -2 -1 -4 0 -6 2 -2 3 -16 2 -22 -2
-9 -14 -14 -35 -17 -12 -2 -24 4 -26 12 -2 8 -4 10 -18 14 -14 4 -27 3 -59 -3
-25 -5 -37 -5 -57 0 -20 5 -40 7 -50 4 -10 -2 -21 -9 -24 -15 -1 -2 -3 -4 -3
-5 -1 -1 -4 -7 -8 -15 -3 -8 -8 -18 -11 -23 -12 -23 -2 -44 29 -59 7 -3 18 -9
23 -12 11 -7 27 -8 41 -3 9 2 26 20 24 24 0 2 0 2 2 1 3 -2 1 16 -2 21 -5 10
1 22 12 22 18 0 18 -20 0 -38 -5 -5 -5 -8 -5 -18 0 -7 1 -13 3 -14 4 -5 0 -27
-6 -32 -1 -1 -4 -5 -6 -10 -13 -25 -2 -81 20 -103 8 -9 31 -20 47 -22 3 -1 13
-5 22 -9 21 -10 31 -11 59 -6 25 5 52 14 77 27 16 7 48 28 52 32 1 1 5 4 9 7
6 4 6 5 6 19 l0 15 -11 12 c-11 12 -11 12 -11 24 0 11 1 13 6 18 3 3 7 6 9 6
15 1 20 0 29 -6 9 -6 11 -6 25 -6 10 1 15 2 18 4 2 3 15 28 29 58 8 19 5 33
-12 50 -11 11 -12 13 -12 21 0 10 6 17 14 17 17 0 41 14 47 29 4 10 20 88 26
126 0 3 1 9 2 13 7 43 19 145 19 164 0 13 -7 31 -10 26 -1 -2 -2 -2 -2 -1 0 3
-24 3 -27 -1z m-15 -60 c4 -5 5 -14 2 -17 -3 -3 -8 -35 -7 -45 1 -9 -6 -34
-12 -43 -2 -3 -3 -6 -3 -8 0 -1 -2 -4 -5 -6 -5 -3 -7 -3 -27 0 -15 2 -30 3
-54 2 -18 0 -36 -1 -39 -1 -9 0 -15 7 -15 17 0 10 4 20 10 22 4 1 18 -1 21 -3
4 -3 33 -10 42 -10 5 0 9 -1 10 -1 0 -1 4 -3 8 -4 12 -4 15 -1 15 15 0 13 -2
16 -8 18 -2 1 -6 5 -9 9 -5 7 -6 9 -6 23 0 13 0 15 5 19 3 2 6 6 6 7 1 3 5 4
15 5 8 1 19 2 24 3 18 3 23 2 27 -2z m-113 -207 c6 -4 6 -6 6 -20 0 -14 0 -16
-6 -20 -4 -4 -7 -5 -18 -5 -11 0 -14 1 -18 5 -6 4 -6 6 -6 20 0 14 0 16 6 20
4 4 7 5 18 5 11 0 14 -1 18 -5z m-102 -11 c8 -8 7 -16 -5 -28 -12 -13 -19 -15
-19 -6 -2 24 -1 30 3 34 7 5 16 5 21 0z m18 -119 c3 -3 3 -3 0 -6 -4 -5 -11 1
-7 6 4 4 4 4 7 0z m78 -1 c10 -9 3 -26 -10 -26 -8 0 -15 7 -15 15 0 13 16 20
25 11z m-176 -127 c5 -8 1 -16 -8 -16 -9 0 -13 8 -8 16 2 3 5 5 8 5 3 0 6 -2
8 -5z"/>
<path d="M1744 2318 c-5 0 -10 -1 -12 -1 -2 -1 -4 -2 -4 -1 -3 0 -8 -18 -8
-27 0 -11 -5 -18 -17 -23 -21 -10 -23 -11 -23 -25 0 -15 4 -21 20 -30 10 -5
24 -18 24 -21 0 -1 4 -6 9 -12 10 -10 14 -12 41 -20 17 -5 21 -10 19 -24 -5
-37 -3 -47 9 -52 10 -5 23 -8 37 -8 13 0 18 -3 24 -13 13 -26 24 -34 46 -34
29 -1 54 16 68 44 15 31 7 44 -63 108 -15 13 -31 21 -48 24 -23 4 -32 9 -32
20 0 3 -4 8 -13 16 -7 6 -13 12 -13 13 0 0 0 1 0 2 0 1 -1 3 -1 5 -2 8 -10 19
-29 38 -22 22 -22 22 -34 21z m42 -84 c5 -5 5 -6 0 -10 -5 -4 -5 -4 -10 1 l-4
4 4 4 c6 6 5 6 10 1z"/>
<path d="M98 2213 c-4 -5 -9 -20 -10 -30 -1 -16 5 -21 24 -21 l16 -1 3 9 c5
14 6 28 3 36 l-3 7 -16 -1 c-10 0 -15 0 -14 2 2 3 0 3 -3 -1z"/>
</g>
</svg>
