<?xml version="1.0" standalone="no"?>
<!DOCTYPE svg PUBLIC "-//W3C//DTD SVG 20010904//EN"
 "http://www.w3.org/TR/2001/REC-SVG-20010904/DTD/svg10.dtd">
<svg version="1.0" xmlns="http://www.w3.org/2000/svg"
 width="1112.000000pt" height="2870.000000pt" viewBox="0 0 1112.000000 2870.000000"
 preserveAspectRatio="xMidYMid meet">
<metadata>
Created by potrace 1.15, written by Peter Selinger 2001-2017
</metadata>
<g transform="translate(0.000000,2870.000000) scale(0.500000,-0.500000)"
fill="#000000" stroke="none">
<path d="M798 3842 c-22 -7 -32 -25 -32 -60 0 -38 14 -57 40 -56 7 1 12 1 12
2 0 1 9 12 20 24 13 13 32 6 32 -11 0 -10 -5 -15 -21 -20 -18 -5 -19 -6 -28
-20 -12 -19 -16 -24 -26 -29 -21 -11 -29 -25 -29 -54 0 -24 6 -36 23 -44 11
-5 15 -7 19 -7 2 0 8 -2 12 -5 15 -8 36 -7 49 3 12 9 25 11 37 6 14 -6 19 -28
11 -45 -6 -11 -7 -26 -5 -44 l3 -18 -6 -6 c-7 -7 -40 -25 -47 -26 -22 -2 -27
4 -29 37 -1 7 -7 15 -13 15 -2 0 -4 1 -5 2 -1 1 -3 1 -6 1 -8 -2 -38 -1 -46 1
-5 1 -75 2 -182 2 -190 0 -184 0 -193 -11 -2 -3 -3 -6 -3 -7 1 -1 0 -2 -1 -2
-1 0 -2 -3 -3 -7 -1 -5 -2 -9 -3 -10 -2 -2 -2 -3 0 -3 3 0 2 -8 -2 -12 -2 -2
-6 -3 -9 -3 -3 0 -19 1 -34 1 -32 0 -35 1 -39 13 -1 5 -3 9 -4 10 -1 1 -2 5
-3 8 -2 8 -13 18 -23 21 -5 1 -28 2 -72 2 -76 0 -79 -1 -98 -20 l-11 -11 1
-14 c1 -8 2 -15 2 -16 0 -2 4 -5 9 -7 9 -6 25 -21 25 -25 0 -6 12 -19 23 -24
27 -13 47 -6 56 18 2 6 5 11 7 13 2 1 2 2 0 2 -2 0 -1 1 1 3 3 3 3 3 6 0 2 -2
3 -3 1 -3 -2 0 -2 -1 0 -2 2 -2 5 -6 6 -10 8 -26 14 -28 75 -28 29 0 47 -1 48
-2 1 -1 6 -2 11 -2 6 0 10 1 9 2 -1 1 0 2 1 2 1 0 7 4 12 9 9 9 26 20 37 24 3
2 12 5 19 8 11 4 16 4 31 4 15 -1 22 0 35 3 9 2 19 4 22 4 6 0 15 -8 13 -12
-1 -1 -1 -2 0 -2 2 0 6 -7 8 -16 2 -7 13 -17 23 -20 4 -1 21 -2 43 -2 43 0 50
2 68 18 25 23 42 23 66 0 5 -5 11 -10 12 -10 7 -3 12 -17 13 -35 2 -25 7 -35
26 -49 11 -8 13 -12 16 -21 3 -14 -1 -27 -15 -42 -7 -7 -18 -30 -20 -42 -1 -4
-2 -7 -3 -7 -4 0 -7 -22 -9 -70 -1 -18 -2 -36 -2 -39 0 -3 -1 -13 -2 -22 -4
-60 -4 -60 -13 -68 -3 -3 -4 -3 -9 1 -19 19 -34 30 -37 30 -1 0 -2 1 -2 2 0 2
-61 32 -73 36 -19 6 -22 14 -14 34 7 16 14 37 26 70 6 15 11 26 14 29 2 2 13
8 24 12 25 10 37 21 51 47 8 15 8 17 7 26 -3 21 -10 26 -52 38 -9 2 -57 13
-86 19 -14 3 -31 8 -37 10 -27 10 -44 9 -60 -4 -8 -7 -16 -20 -16 -26 0 -4 -8
-24 -13 -28 -8 -10 -49 -19 -52 -12 0 2 -3 3 -5 3 -6 0 -6 2 -1 8 12 13 19 19
26 25 12 10 15 21 10 38 -2 6 -16 11 -34 12 -7 1 -15 2 -18 3 -5 3 -23 3 -30
0 -13 -5 -17 -20 -12 -37 4 -14 13 -31 22 -41 6 -8 6 -13 0 -19 -2 -2 -5 -6
-7 -9 -2 -3 -8 -10 -13 -15 -9 -8 -16 -18 -21 -32 -1 -2 -5 -20 -9 -40 -4 -20
-10 -47 -13 -61 -7 -29 -7 -37 4 -60 7 -14 8 -28 6 -54 -1 -14 1 -27 8 -40 11
-25 12 -28 6 -34 -4 -4 -14 -6 -14 -2 0 1 -2 2 -4 3 -2 1 -4 4 -6 8 -1 3 -5
10 -8 15 l-6 8 -13 -1 c-10 0 -14 -1 -18 -5 -12 -11 -16 -28 -11 -42 2 -9 12
-17 17 -15 2 0 3 0 4 -1 0 0 4 -1 7 -2 9 0 13 -5 14 -13 0 -10 -6 -17 -14 -17
-7 0 -20 7 -20 11 0 1 -1 1 -2 -1 -1 -1 -5 -2 -15 -1 -16 1 -19 -2 -23 -18 -3
-11 -10 -25 -21 -39 -8 -11 -22 -36 -30 -53 -1 -5 -5 -11 -8 -14 -3 -3 -14
-20 -26 -37 -11 -17 -20 -31 -21 -32 -1 -1 -5 -7 -10 -14 -10 -15 -20 -28 -22
-30 -1 -1 -3 -4 -6 -9 -4 -8 -5 -29 -2 -29 1 0 2 -1 1 -2 -2 -3 12 -16 21 -20
14 -6 29 -5 46 3 20 10 41 22 55 31 2 1 5 3 7 3 5 3 62 41 75 51 28 21 31 25
37 51 2 9 6 21 9 25 7 12 16 32 19 41 5 14 18 19 40 13 11 -3 25 -1 34 3 8 4
40 42 60 72 7 11 14 12 19 4 4 -6 10 -37 14 -72 2 -17 4 -30 7 -36 4 -10 18
-24 31 -33 4 -3 8 -5 9 -6 8 -9 35 -22 58 -27 36 -8 57 -3 79 20 14 15 15 15
25 15 19 0 32 -11 32 -26 0 -12 -6 -16 -26 -17 -35 -1 -47 -14 -39 -45 3 -15
3 -23 0 -30 -1 -4 -5 -15 -8 -24 -7 -21 -9 -25 -23 -32 -16 -9 -24 -18 -39
-49 -8 -14 -14 -27 -15 -28 -8 -10 -14 -26 -13 -34 1 -12 5 -22 9 -25 2 -2 13
-19 15 -24 6 -12 7 -16 8 -26 3 -21 -9 -22 -38 -2 -13 8 -15 9 -26 9 -19 0
-23 -3 -47 -33 -33 -42 -46 -56 -96 -106 -20 -20 -41 -42 -47 -48 -6 -6 -16
-14 -22 -17 -6 -3 -15 -10 -19 -14 -7 -8 -10 -13 -22 -39 -6 -14 -14 -19 -33
-21 -14 -2 -31 -5 -32 -7 -1 -1 -3 -2 -4 -2 -2 0 -16 -8 -32 -19 -24 -16 -37
-24 -51 -32 -4 -2 -22 -13 -27 -16 -2 -2 -6 -4 -9 -5 -3 -1 -6 -3 -8 -5 -2 -1
-13 -8 -25 -14 -35 -18 -39 -23 -42 -42 -3 -24 20 -49 45 -49 10 0 60 14 85
24 11 4 29 10 39 13 29 8 75 24 112 40 4 2 9 4 11 5 2 1 10 4 17 8 7 3 18 8
24 10 15 7 104 52 108 55 2 1 8 6 15 9 7 4 17 9 22 13 18 10 65 41 67 43 1 1
7 5 14 10 6 5 12 9 12 10 0 1 2 2 4 3 1 1 6 4 9 7 4 3 12 9 19 14 18 13 33 26
63 53 30 28 84 84 91 96 1 1 4 8 7 16 6 14 14 28 20 33 3 3 9 12 10 18 1 2 2
8 4 14 3 15 4 16 24 26 9 4 18 10 21 12 5 4 18 23 18 25 0 1 3 5 6 10 21 35
55 105 73 151 12 29 11 45 -5 66 -12 16 -15 27 -12 42 3 18 3 19 8 28 4 9 4
26 1 56 -1 10 5 15 16 14 6 0 12 -1 14 -2 4 -3 28 1 34 5 7 5 12 16 16 38 3
19 3 38 -1 41 -1 0 -2 3 -3 4 -1 5 -19 15 -29 18 -10 3 -14 9 -14 22 0 11 6
20 14 20 7 0 14 1 23 3 14 2 20 -9 22 -39 1 -9 2 -20 3 -23 1 -3 3 -12 4 -19
1 -7 2 -17 3 -21 4 -30 12 -71 14 -76 7 -16 24 -26 44 -28 21 -1 23 -5 33 -47
10 -44 10 -50 -9 -60 -25 -14 -32 -30 -24 -58 20 -72 34 -106 53 -122 11 -10
12 -15 13 -41 1 -15 3 -25 5 -32 9 -21 22 -48 26 -50 2 -2 5 -4 8 -7 5 -4 31
-11 34 -9 3 2 22 -3 26 -7 2 -2 4 -7 4 -11 0 -3 1 -10 1 -14 1 -19 12 -36 28
-45 11 -5 15 -10 17 -23 3 -10 2 -12 -2 -20 -5 -11 -7 -30 -4 -40 1 -4 6 -12
11 -17 4 -5 13 -15 18 -21 37 -44 50 -54 73 -58 24 -4 27 -5 31 -21 6 -17 14
-34 20 -40 3 -3 16 -13 28 -22 l22 -16 13 0 c13 1 13 1 24 11 6 5 11 11 12 12
0 0 1 1 2 1 6 0 33 15 40 22 11 11 16 14 26 14 10 0 35 -8 48 -14 8 -4 10 -4
22 -2 8 1 15 3 17 4 7 6 15 15 15 17 0 1 5 7 11 14 15 18 15 34 -1 51 -10 10
-11 15 -9 31 1 6 2 22 2 33 0 15 1 23 3 25 2 2 3 10 3 21 1 17 0 19 -4 23 -2
3 -5 5 -7 5 -4 0 -11 18 -9 28 1 11 -3 31 -9 38 -2 3 -7 7 -12 10 -19 9 -40
18 -45 18 -9 0 -25 -6 -35 -14 -8 -7 -11 -8 -19 -8 -15 0 -20 6 -19 23 0 14
-4 31 -8 39 -6 9 -36 24 -49 24 -15 1 -23 -3 -36 -14 -4 -4 -10 -9 -13 -11 -6
-5 -43 -20 -41 -17 1 1 0 3 -2 3 -2 1 -3 2 -2 3 1 1 -2 5 -6 9 -15 16 -13 35
4 53 10 10 10 10 10 23 1 16 0 20 -6 23 -2 1 -11 7 -19 15 -14 12 -17 13 -28
15 -20 3 -19 3 -26 -16 -4 -10 -8 -19 -10 -21 -3 -2 -19 -10 -37 -17 -3 -1 -6
-4 -6 -5 -1 -2 -3 -8 -5 -13 -8 -18 -5 -35 10 -50 17 -17 20 -27 11 -36 -9 -9
-33 -2 -50 16 -6 7 -12 12 -13 12 -1 0 -4 3 -6 7 -6 10 -5 24 2 37 6 10 33 39
36 37 3 -2 9 5 10 12 3 12 10 32 13 36 2 1 5 3 8 3 2 0 3 1 2 1 0 1 1 3 4 5 3
3 4 6 5 18 1 17 0 18 -19 19 -20 1 -26 5 -25 21 2 32 0 45 -8 54 -1 2 -6 8
-10 14 -16 24 -29 38 -36 39 -2 0 -6 1 -10 2 -4 2 -11 3 -17 4 -23 2 -23 26 0
31 27 7 31 8 39 16 7 6 20 31 20 37 0 7 9 13 29 18 29 7 31 9 65 46 4 4 11 13
16 19 5 6 10 12 11 13 1 1 9 12 18 23 22 28 26 32 33 31 8 -2 10 -4 24 -26 7
-11 14 -22 16 -25 2 -3 4 -6 4 -7 0 -1 3 -5 6 -10 3 -4 9 -15 14 -24 10 -20
15 -23 35 -24 7 0 17 1 20 2 5 1 7 0 10 -4 3 -5 3 -5 0 -11 -4 -6 -10 -12 -13
-12 -7 0 -16 -27 -12 -39 2 -7 10 -14 10 -9 0 2 5 2 14 2 12 -1 14 0 17 3 3 5
11 24 11 28 0 2 1 3 2 3 2 0 2 1 1 1 -2 3 25 27 32 29 11 2 19 -1 28 -11 5 -5
9 -10 9 -11 0 0 6 -5 13 -10 l13 -9 26 -1 c29 0 34 -3 34 -16 0 -12 -6 -15
-27 -18 -23 -2 -32 -6 -38 -17 -16 -27 -3 -55 31 -66 8 -3 13 -3 22 -1 17 3
20 4 24 6 1 2 4 4 6 5 6 4 34 34 40 42 8 13 21 40 26 54 12 39 8 61 -14 80
-18 16 -22 26 -17 46 8 30 3 45 -29 77 -31 31 -33 32 -58 36 -11 1 -24 5 -35
10 -25 10 -37 13 -46 10 -4 -1 -9 -3 -11 -3 -1 0 -3 -1 -3 -1 -1 0 -1 0 -2 1
0 0 -5 -4 -17 -15 -6 -6 -12 -10 -13 -10 -7 0 -19 8 -24 16 -2 5 -9 13 -14 18
-8 7 -11 9 -21 9 -10 1 -13 1 -25 -6 -24 -13 -35 -11 -50 12 -15 23 -30 29
-46 17 -4 -3 -16 -13 -26 -23 -22 -22 -34 -28 -41 -20 -4 5 -4 5 -1 16 6 22
17 39 25 39 1 0 2 1 2 2 0 1 2 2 4 3 12 4 12 6 12 22 l0 16 -10 2 c-7 1 -13 2
-17 1 -10 -3 -30 -2 -38 1 l-7 4 10 19 c13 26 15 40 7 50 -5 6 -25 20 -28 20
-1 0 -5 2 -9 5 -6 5 -8 6 -18 5 -16 0 -21 -3 -26 -14 -7 -18 -9 -59 -3 -70 5
-8 26 -20 35 -20 4 0 9 -1 13 -3 7 -3 7 -3 6 -10 0 -5 -2 -8 -3 -9 -1 0 -2 -2
-2 -3 0 -1 -3 -5 -6 -9 -6 -6 -7 -6 -18 -6 -13 2 -31 -2 -39 -7 -7 -5 -12 -15
-18 -41 -3 -12 -6 -25 -7 -27 -1 -3 -2 -7 -3 -10 -1 -7 -14 -47 -24 -77 -5
-15 -12 -35 -15 -45 -10 -28 -17 -35 -35 -31 -11 3 -15 8 -15 21 0 9 1 12 10
24 16 22 17 28 2 76 -15 47 -34 122 -41 164 -7 42 -14 90 -16 105 -2 22 -7 34
-18 44 -15 16 -23 20 -42 21 -18 2 -25 -1 -46 -21 -17 -15 -24 -18 -31 -10 -5
5 -5 15 -1 18 2 1 3 3 3 5 0 1 3 4 6 8 6 5 7 7 7 20 l0 14 -8 4 c-4 3 -12 6
-18 7 -14 4 -19 9 -19 18 0 5 1 9 5 12 5 5 12 5 31 -1 8 -3 16 -3 31 -2 23 1
23 1 34 -17 7 -13 10 -15 24 -16 11 -1 13 0 17 4 2 2 4 6 4 7 0 2 1 3 2 3 2 0
7 17 6 21 -1 2 2 6 5 10 l6 6 91 -1 91 0 6 -6 c4 -3 6 -6 6 -7 -2 -1 4 -17 9
-22 6 -8 19 -13 38 -15 27 -3 56 -19 59 -33 2 -6 1 -9 -5 -26 -9 -25 -8 -28 2
-49 5 -10 8 -17 8 -18 0 -1 5 -12 25 -52 8 -18 14 -23 33 -33 15 -7 17 -9 24
-20 12 -21 16 -24 30 -25 l13 -1 9 9 c10 10 19 29 41 88 11 31 17 41 26 43 2
1 10 5 18 8 17 8 37 28 46 46 3 7 6 14 7 15 3 5 2 12 0 23 l-3 9 -14 0 c-15 0
-18 -2 -24 -10 -1 -3 -5 -7 -9 -9 -6 -3 -6 -3 -10 2 -2 3 -5 10 -7 16 -5 15
-10 22 -18 26 -8 5 -41 13 -62 16 -5 1 -12 2 -15 3 -8 3 -40 10 -49 10 -6 1
-7 1 -2 1 3 1 5 2 4 4 -1 4 1 5 13 7 18 3 43 16 55 27 11 11 18 26 19 42 0 2
3 6 6 9 9 9 26 9 34 0 7 -6 7 -6 5 -22 -1 -8 -1 -19 -1 -23 0 -4 0 -9 1 -11 0
-6 13 -17 22 -20 12 -3 228 -3 240 0 24 7 35 15 48 35 13 19 14 28 10 44 -5
15 -23 31 -39 34 -10 2 -20 9 -26 20 -4 7 -11 13 -23 22 -20 15 -32 18 -51 16
-25 -4 -30 -1 -37 22 -8 27 -12 32 -38 50 -14 9 -43 31 -45 33 -12 12 -32 18
-47 14 -4 -1 -8 -3 -9 -4 -1 0 -5 -3 -9 -6 -8 -6 -13 -10 -35 -38 -15 -18 -15
-18 -27 -34 -5 -7 -10 -13 -11 -14 -1 -1 -6 -7 -11 -14 -6 -7 -10 -13 -11 -14
-1 -1 -4 -5 -7 -9 -3 -4 -8 -10 -10 -13 -3 -3 -5 -6 -5 -7 0 -3 -19 -13 -27
-14 -12 -2 -23 -5 -23 -7 0 -1 -1 -2 -3 -2 -3 0 -11 -8 -11 -12 0 -1 -1 -2 -2
-2 -1 0 -2 -2 -3 -4 -1 -2 -3 -6 -6 -9 -3 -3 -5 -5 -5 -6 0 0 -5 -6 -12 -12
-6 -7 -13 -14 -15 -17 -2 -3 -7 -8 -12 -10 -9 -5 -9 -5 -16 -1 -9 4 -12 12
-16 33 -3 21 -9 26 -30 27 -3 0 -6 1 -7 3 -4 3 -8 -1 -8 -7 0 -3 -1 -7 -2 -10
-1 -3 -1 -5 0 -5 3 0 2 -7 -1 -12 -5 -6 -13 -5 -17 4 -2 3 -4 7 -3 7 0 1 -2 7
-6 15 -9 18 -22 25 -43 24 -10 0 -26 -7 -23 -10 1 -1 0 -4 -1 -7 -2 -3 -3 -7
-2 -7 0 -1 -1 -2 -1 -2 -1 1 -4 0 -6 -1 -10 -6 -16 -5 -29 3 -19 12 -36 19
-47 22 -15 4 -19 8 -19 22 0 6 1 15 2 20 2 5 3 41 4 82 l1 73 5 7 c3 4 6 7 7
7 2 1 7 4 12 7 12 9 17 20 19 41 0 15 1 17 7 23 5 6 6 7 6 21 0 8 -1 16 -2 18
-2 5 -14 8 -39 10 -9 1 -18 2 -20 2 -15 4 -38 3 -55 -2 -20 -6 -27 -11 -38
-24 -6 -9 -6 -11 -5 -19 1 -10 4 -13 16 -26 15 -15 18 -27 9 -36 -8 -8 -43 -4
-55 5 -7 6 -12 25 -12 45 0 13 2 19 11 27 3 2 4 5 3 18 0 9 -1 17 -3 19 -2 4
-16 7 -41 9 -9 1 -18 2 -20 2 -2 0 -12 1 -22 2 -10 1 -20 2 -21 2 -2 2 -54 3
-59 1z m844 -248 c3 -2 7 -9 10 -16 2 -7 7 -17 10 -22 2 -5 7 -13 9 -17 9 -16
4 -31 -11 -31 -9 0 -15 6 -24 19 -3 6 -11 15 -18 22 -13 12 -15 16 -14 31 2
14 6 18 23 18 8 0 12 -1 15 -4z m-643 -54 c10 -9 3 -26 -10 -26 -8 0 -15 7
-15 15 0 13 16 20 25 11z m853 -74 c2 -3 4 -6 4 -7 0 -3 -7 -11 -10 -11 -2 0
-10 8 -10 10 0 1 10 12 11 12 1 0 3 -2 5 -4z m-640 -29 c5 -6 5 -12 0 -17 -7
-7 -16 -3 -21 9 -4 7 -4 6 2 12 6 5 10 4 19 -4z m294 -146 l-5 -5 -4 4 -5 5 4
4 5 5 4 -4 5 -5 -4 -4z m-25 -54 c3 -3 3 -3 0 -6 -4 -5 -11 1 -7 6 4 4 4 4 7
0z m-657 -76 l-5 -5 -4 4 -5 5 4 4 5 5 4 -4 5 -5 -4 -4z m176 -15 c1 0 5 -3 8
-6 5 -5 6 -7 6 -17 0 -18 -9 -30 -22 -28 -11 2 -23 9 -25 14 -4 16 0 31 11 36
5 2 8 2 22 1z m-65 -73 c6 -4 6 -6 6 -20 0 -14 0 -16 -6 -20 -4 -4 -7 -5 -18
-5 -11 0 -14 1 -18 5 -6 4 -6 6 -6 20 0 14 0 16 6 20 4 4 7 5 18 5 11 0 14 -1
18 -5z m92 -16 c10 -10 4 -25 -9 -25 -8 0 -14 6 -14 15 0 4 1 7 2 7 1 0 2 2 3
4 2 6 12 5 18 -1z m-542 -15 c3 -3 9 -14 9 -17 0 -4 -6 -14 -9 -17 -5 -4 -21
-3 -26 3 -7 6 -7 21 -1 28 6 6 21 8 27 3z m-94 -4 c8 -9 10 -20 9 -45 0 -13
-14 -19 -23 -11 -11 8 -15 47 -7 55 6 6 16 7 21 1z m174 -6 c4 -2 5 -7 6 -17
1 -12 1 -13 -3 -18 -6 -5 -14 -5 -28 2 0 0 -2 5 -4 10 -3 10 -3 16 4 24 4 4
20 4 25 -1z m126 -77 c7 -7 8 -18 1 -39 -5 -16 -9 -33 -10 -38 -1 -6 -11 -14
-17 -14 -13 0 -18 11 -20 45 -2 23 -2 23 4 31 9 14 34 23 42 15z m252 -16 c3
-2 6 -9 10 -20 5 -19 6 -20 13 -36 4 -9 4 -11 1 -32 -2 -10 -7 -14 -19 -14
-14 0 -19 6 -17 18 3 13 2 27 0 32 -2 3 -2 5 -2 5 1 0 -1 3 -4 7 -12 16 -14
30 -6 38 6 6 18 7 24 2z m-379 -17 c5 -5 5 -15 0 -20 -9 -9 -24 -2 -24 10 0 8
6 14 14 14 3 0 8 -2 10 -4z m796 -8 c5 -6 5 -12 0 -18 -7 -8 -22 -2 -22 9 0
11 15 17 22 9z m-927 -13 c4 -4 5 -7 5 -15 0 -14 -6 -20 -20 -20 -14 0 -20 6
-20 20 0 14 6 20 20 20 8 0 11 -1 15 -5z m1324 -30 c6 -4 6 -6 6 -20 0 -14 0
-16 -6 -20 -4 -4 -7 -5 -18 -5 -11 0 -14 1 -18 5 -6 4 -6 6 -6 20 0 14 0 16 6
20 4 4 7 5 18 5 11 0 14 -1 18 -5z m-854 -90 c12 -7 14 -33 3 -43 -8 -9 -32
-9 -40 0 -9 8 -9 32 0 41 7 7 27 8 37 2z m-679 -61 c13 -13 -5 -31 -20 -21 -5
4 -6 16 -1 21 5 5 16 5 21 0z m603 -86 c11 -4 22 -14 24 -23 1 -4 -4 -16 -7
-16 -1 0 -3 -2 -6 -3 -3 -1 -8 -3 -11 -4 -6 -1 -7 -1 -11 6 -3 4 -5 8 -4 9 0
1 -1 1 -2 0 -1 -1 -2 0 -2 0 0 3 -13 3 -18 1 -4 -2 -8 -3 -25 -5 -21 -3 -24
23 -4 27 29 6 39 8 44 10 9 3 10 2 22 -2z m-12 -71 c0 -1 -1 -4 -4 -6 -3 -3
-4 -3 -6 0 -3 2 -3 3 0 9 3 6 3 6 7 3 1 -2 3 -5 3 -6z m440 -28 c5 -8 1 -16
-8 -16 -9 0 -13 8 -8 16 2 3 5 5 8 5 3 0 6 -2 8 -5z m-521 -127 c5 -6 5 -12 0
-18 -7 -8 -22 -2 -22 9 0 11 15 17 22 9z m736 -76 c3 -1 3 -5 -1 -13 -4 -7 -9
-11 -18 -14 -3 -1 -6 -3 -5 -5 0 -1 -1 -2 -3 -2 -2 0 -2 -1 -2 -3 1 -3 -2 -11
-10 -22 -3 -5 -4 -9 -4 -20 0 -13 1 -15 8 -26 8 -12 11 -23 10 -31 -4 -17 -11
-23 -28 -23 -18 0 -24 6 -29 25 -2 8 0 13 7 23 2 3 5 9 6 12 3 9 2 29 -2 36
-4 9 -4 19 1 25 3 4 22 14 29 15 5 1 9 5 9 9 0 2 1 4 2 4 1 0 2 1 2 3 0 2 3 5
6 7 3 1 6 4 6 5 0 2 2 3 5 4 3 1 5 2 5 4 0 1 1 -1 2 -5 1 -4 3 -7 4 -8z m-879
-34 c1 -2 6 -9 9 -16 3 -6 11 -18 18 -25 12 -14 13 -16 12 -29 0 -8 -7 -16
-17 -21 -3 -2 -8 -5 -11 -6 -3 -2 -10 -7 -16 -13 -14 -14 -18 -16 -27 -16 -14
0 -15 0 -21 6 -5 5 -6 7 -6 18 0 15 3 18 21 28 8 4 15 9 16 12 5 9 4 25 -2 34
-10 17 -4 32 12 32 6 0 9 -1 12 -4z m992 -81 c18 -5 31 -15 31 -24 0 -2 3 -15
6 -28 7 -30 7 -36 2 -42 -9 -10 -22 -6 -40 11 -5 5 -16 13 -25 17 -8 4 -17 10
-19 13 -8 13 1 44 15 52 9 5 16 5 30 1z m-1115 -103 c5 -5 5 -15 0 -20 -9 -8
-24 -2 -24 10 0 8 6 14 14 14 3 0 8 -2 10 -4z"/>
<path d="M1627 2687 c1 -8 2 -17 3 -18 1 -2 2 -3 1 -3 -1 0 -1 -1 1 -2 4 -2
32 -3 35 0 3 1 3 10 0 10 0 0 -1 1 -1 3 0 1 0 3 0 4 0 3 -20 13 -25 13 -1 0
-4 2 -5 3 -1 3 -2 3 -5 1 -2 -2 -3 -2 -4 1 0 2 0 -3 0 -12z"/>
<path d="M1837 2283 c-1 0 -5 -1 -9 -2 -9 -1 -18 -10 -25 -23 -8 -14 -13 -23
-15 -24 -4 -3 -5 -32 -1 -36 1 -1 3 -6 4 -10 1 -4 3 -10 5 -14 4 -6 4 -6 19
-6 14 0 15 0 21 6 17 16 40 15 56 -4 7 -9 24 -18 32 -18 7 0 18 5 26 13 10 10
10 22 3 40 -3 8 -7 15 -8 17 -1 2 -4 7 -7 11 -3 8 -9 14 -17 21 -4 3 -81 30
-84 29z"/>
<path d="M1626 1984 c-11 -5 -15 -11 -15 -26 0 -17 3 -23 16 -28 11 -5 30 -5
33 0 1 2 2 2 2 1 0 -4 5 5 8 14 2 7 2 10 -1 16 -1 4 -2 7 -2 7 2 0 -5 15 -9
17 -4 4 -23 3 -32 -1z"/>
</g>
</svg>
