<?xml version="1.0" standalone="no"?>
<!DOCTYPE svg PUBLIC "-//W3C//DTD SVG 20010904//EN"
 "http://www.w3.org/TR/2001/REC-SVG-20010904/DTD/svg10.dtd">
<svg version="1.0" xmlns="http://www.w3.org/2000/svg"
 width="1112.000000pt" height="2870.000000pt" viewBox="0 0 1112.000000 2870.000000"
 preserveAspectRatio="xMidYMid meet">
<metadata>
Created by potrace 1.15, written by Peter Selinger 2001-2017
</metadata>
<g transform="translate(0.000000,2870.000000) scale(0.500000,-0.500000)"
fill="#000000" stroke="none">
<path d="M1181 3850 c-12 -4 -24 -15 -27 -25 -1 -5 -2 -32 -2 -81 l0 -74 -5
-7 c-3 -4 -5 -8 -6 -10 0 -3 -1 -3 -1 0 0 8 -26 19 -45 19 -12 0 -16 5 -17 24
-2 26 -8 38 -23 48 -16 10 -83 42 -83 39 0 0 -3 1 -7 2 -26 11 -101 27 -119
26 -13 -1 -30 -8 -36 -15 -14 -14 -13 -32 2 -54 5 -8 10 -16 10 -16 0 -1 3 -7
7 -12 19 -31 40 -83 51 -129 7 -27 7 -39 3 -50 l-3 -8 -4 7 c-8 13 -22 18 -37
13 -6 -2 -11 -31 -5 -31 1 0 2 -1 2 -3 0 -1 1 -3 2 -3 2 -2 8 -14 8 -19 0 -7
-5 -13 -18 -22 -14 -10 -16 -11 -29 -31 -17 -23 -28 -33 -61 -55 -9 -6 -25
-20 -35 -30 -20 -20 -25 -23 -34 -21 -7 2 -24 14 -38 28 -4 4 -23 5 -32 2 -8
-3 -11 -6 -23 -30 -5 -9 -15 -28 -23 -41 -7 -13 -13 -24 -13 -25 0 -1 -2 -4
-5 -8 -3 -4 -5 -10 -5 -12 0 -3 -1 -4 -1 -2 -1 2 -3 5 -6 8 -4 4 -4 6 -5 93
l-1 88 -7 17 c-3 9 -8 18 -10 20 -3 3 -4 10 0 15 1 1 6 12 10 24 8 21 8 22 8
47 0 29 -2 37 -11 45 -7 6 -26 13 -34 13 -2 0 -5 2 -8 5 -7 7 -7 19 0 26 5 5
6 5 30 5 24 0 27 0 37 5 28 14 42 30 55 64 5 13 4 22 -2 35 -6 12 -13 14 -40
13 -22 -1 -25 -1 -39 4 -22 7 -29 9 -46 10 -8 1 -19 1 -23 2 -4 0 -19 2 -33 3
-14 1 -31 2 -39 3 -8 1 -27 3 -42 4 -27 2 -28 2 -45 -2 -19 -6 -34 -14 -42
-24 -11 -12 -12 -19 -12 -90 0 -64 0 -66 4 -73 3 -4 6 -8 8 -9 5 -5 24 -10 33
-9 12 0 19 -6 19 -18 0 -12 -7 -18 -19 -18 -10 1 -29 -5 -35 -10 -10 -10 -10
-4 -10 -161 l1 -146 -6 -6 -6 -6 -40 0 c-31 0 -41 -1 -44 -3 -2 -1 -3 -2 -3
-1 0 1 -1 0 -3 -2 -1 -2 -2 -8 -1 -17 l0 -14 -12 0 -12 0 0 14 c1 9 0 15 -1
17 -2 2 -3 3 -3 2 0 -1 -1 0 -3 1 -4 4 -27 5 -36 2 -17 -5 -24 -16 -25 -34 -1
-14 21 -74 28 -74 1 0 2 -1 2 -2 0 -1 5 -4 11 -7 l11 -5 65 0 66 1 6 -6 c5 -6
6 -8 5 -16 0 -13 5 -26 18 -40 15 -17 15 -20 -1 -37 -17 -18 -17 -19 -17 -96
0 -58 1 -70 3 -78 4 -12 13 -21 28 -30 14 -8 17 -12 17 -26 0 -14 -3 -18 -17
-26 -15 -9 -24 -18 -28 -30 -2 -8 -3 -21 -3 -79 l0 -69 -6 -7 c-3 -3 -6 -6 -8
-6 -2 -1 -19 -4 -38 -7 -19 -4 -38 -7 -42 -7 -9 -2 -25 -8 -34 -14 -14 -10
-28 -13 -41 -10 -8 2 -24 -3 -29 -9 -10 -10 -9 -18 3 -46 13 -27 12 -26 27
-42 17 -18 18 -19 20 -43 1 -12 3 -26 5 -30 6 -16 79 -180 84 -186 6 -10 13
-13 27 -13 12 0 13 0 23 11 13 12 24 28 26 35 2 8 -2 28 -8 37 -3 4 -8 18 -12
34 -5 16 -9 28 -12 32 -3 3 -5 7 -5 8 0 1 -3 6 -8 11 -14 17 -15 21 -14 37 0
11 12 17 29 15 7 -1 15 -10 16 -20 3 -26 4 -34 6 -39 3 -7 17 -28 21 -30 1 -1
7 -8 13 -16 13 -17 19 -21 33 -21 10 0 26 8 36 17 1 2 3 3 4 3 1 0 3 1 4 3 2
1 7 5 12 8 5 3 9 6 10 7 1 1 8 6 16 11 8 6 15 11 16 11 1 1 8 6 16 12 18 12
55 38 68 48 6 4 13 9 17 12 15 10 90 67 91 68 1 1 2 2 4 3 3 2 12 8 26 20 4 3
10 8 13 10 6 5 37 29 40 32 1 1 6 5 10 8 12 9 30 24 32 26 1 1 6 5 11 9 36 28
46 40 46 54 1 7 1 7 1 1 1 -3 2 -5 4 -4 1 1 1 1 1 0 -1 -1 0 -7 2 -13 4 -11 4
-20 4 -117 0 -101 0 -104 4 -112 5 -10 15 -17 31 -21 23 -6 23 -24 0 -30 -16
-4 -26 -11 -31 -21 -4 -8 -4 -10 -4 -184 0 -157 0 -177 3 -184 4 -9 14 -21 18
-21 2 0 3 -1 3 -2 0 -2 10 -3 38 -3 61 1 130 22 183 56 17 12 20 17 18 35 0 8
-2 17 -4 20 -4 7 -3 21 1 28 2 2 7 6 13 8 10 5 10 5 135 6 69 1 127 2 129 3
11 4 25 28 25 41 0 2 2 6 5 9 10 10 35 4 35 -9 0 -7 8 -26 15 -33 7 -8 17 -11
35 -11 22 0 31 7 33 25 1 7 2 13 2 13 1 1 -1 2 -4 3 -3 1 -5 2 -5 3 0 1 -5 6
-10 12 -6 6 -13 15 -16 19 -5 8 -5 8 -2 24 1 9 3 20 4 25 1 11 -1 39 -4 61 -2
15 -2 19 1 39 2 13 3 29 3 38 -1 15 -1 15 5 21 l6 6 37 0 37 0 6 -6 6 -6 0
-71 0 -71 -6 -6 c-6 -6 -6 -6 -25 -5 -17 0 -20 0 -28 -4 l-9 -5 -1 -16 c-1 -9
0 -15 1 -15 3 0 23 -14 27 -19 6 -6 5 -20 0 -24 -3 -2 -4 -3 -3 -3 1 0 2 -6 2
-12 1 -10 2 -13 5 -17 6 -6 24 -12 24 -9 0 1 2 0 5 -4 3 -3 7 -6 10 -6 3 0 3
-1 1 -1 -5 -2 -6 -76 -1 -88 4 -9 14 -21 18 -21 2 0 3 -1 3 -2 0 -5 74 -3 101
3 37 8 68 17 75 21 2 1 5 2 6 2 2 0 15 6 30 13 34 17 47 29 54 49 4 12 4 16 4
92 0 74 0 80 -4 96 -6 21 -6 35 0 56 4 16 4 21 4 162 l0 145 5 8 c4 6 9 10 17
14 18 8 51 37 58 50 3 7 2 23 -2 31 -3 7 -8 11 -50 43 -10 7 -20 15 -22 16 -2
2 -9 8 -17 13 -32 24 -54 41 -55 42 -1 1 -9 7 -20 15 -10 7 -19 15 -21 18 -5
6 -4 19 2 27 3 4 7 13 9 20 4 13 4 15 4 126 l-1 112 5 5 c3 3 7 5 10 6 3 0 9
2 13 3 4 1 8 2 9 2 2 -1 21 10 23 14 2 2 3 8 3 15 0 14 -4 22 -16 30 -18 13
-15 21 16 39 11 7 24 15 28 17 4 3 8 5 9 5 2 1 25 15 46 29 6 5 23 14 36 20
12 6 23 12 23 13 0 2 20 11 33 15 28 8 35 15 35 33 0 15 -3 20 -24 39 -10 10
-24 23 -29 28 -6 6 -23 22 -39 37 -16 15 -31 30 -35 33 -3 4 -10 9 -15 11 -9
5 -19 14 -21 20 -1 2 -2 4 -3 4 -1 0 -2 1 -2 2 0 1 -5 7 -11 13 -7 6 -17 16
-23 22 -8 7 -15 11 -21 13 -12 3 -13 6 -10 13 6 11 23 21 45 27 39 11 52 20
68 46 11 18 12 31 5 44 -6 14 -15 18 -83 41 -17 6 -37 -1 -48 -16 -14 -18 -36
-22 -51 -8 -4 3 -9 17 -9 26 1 13 -6 31 -13 37 -8 7 -12 9 -71 29 -15 5 -29
10 -30 11 -8 4 -28 0 -36 -7 -5 -5 -11 -18 -13 -29 -1 -5 -5 -31 -10 -58 -5
-27 -9 -50 -8 -53 1 -2 2 -4 2 -5 -1 -8 19 -26 34 -32 8 -3 12 -11 12 -24 0
-19 -7 -26 -27 -27 -38 -3 -45 -10 -56 -53 -3 -14 -8 -33 -11 -42 -2 -9 -4
-16 -4 -16 1 0 -2 -3 -5 -6 l-7 -6 -6 6 -6 5 1 45 c0 59 -2 66 -23 69 -4 1
-10 2 -12 2 -2 0 -5 0 -7 -2 -1 -1 -7 -2 -12 -2 -15 0 -23 8 -23 23 0 15 8 23
23 23 5 0 11 -1 12 -2 2 -2 5 -2 7 -2 2 0 7 1 12 2 19 3 23 11 23 50 0 32 3
41 17 48 20 9 47 53 45 74 -1 18 -13 30 -32 34 -2 1 -65 6 -141 12 -76 6 -140
11 -142 12 -2 0 -8 -1 -14 -3z m102 -91 c6 -4 6 -6 6 -20 0 -14 0 -16 -6 -20
-4 -4 -7 -5 -18 -5 -11 0 -14 1 -18 5 -6 4 -6 6 -6 20 0 14 0 16 6 20 4 4 7 5
18 5 11 0 14 -1 18 -5z m372 -56 c6 -4 6 -6 6 -20 0 -14 0 -16 -6 -20 -4 -4
-7 -5 -18 -5 -11 0 -14 1 -18 5 -6 4 -6 6 -6 20 0 14 0 16 6 20 4 4 7 5 18 5
11 0 14 -1 18 -5z m-1353 -62 l-5 -5 -4 4 -5 5 4 4 5 5 4 -4 5 -5 -4 -4z m679
-63 c4 -6 4 -24 -1 -30 -7 -9 -27 -9 -34 0 -5 6 -5 24 0 30 7 9 27 9 35 0z
m745 -41 c0 -8 -59 -69 -74 -75 -16 -8 -52 -7 -51 1 1 1 -1 3 -3 3 -3 2 -3 2
1 2 2 0 6 2 9 4 3 2 6 4 8 5 2 0 6 3 10 6 4 2 10 6 14 8 3 2 15 10 27 17 11 7
21 14 23 15 2 1 8 4 15 8 11 6 21 9 21 6z m-580 -26 c1 1 2 -1 3 -4 4 -16 8
-25 13 -30 8 -6 27 -13 31 -12 2 1 5 0 7 -3 5 -6 5 -6 0 -11 -3 -5 -4 -5 -14
-3 -6 1 -13 3 -17 5 -5 3 -12 4 -31 4 -24 0 -25 0 -32 6 -3 3 -5 5 -3 5 2 0
16 14 24 24 1 3 5 8 8 12 3 4 5 9 5 11 0 4 0 4 2 -1 1 -2 3 -4 4 -3z m-686
-39 c5 -6 5 -6 0 -12 -8 -9 -22 -4 -22 6 0 11 14 15 22 6z m1368 1 c5 -4 5 -9
1 -15 -8 -10 -24 2 -16 13 4 6 10 7 15 2z m-485 -82 c4 -4 5 -7 5 -14 -1 -12
5 -29 10 -35 9 -10 13 -10 89 -10 62 0 72 0 78 -3 4 -2 7 -4 7 -5 0 -1 2 -2 5
-3 l4 0 -4 -1 c-5 0 -12 -9 -19 -22 -4 -10 -17 -22 -27 -27 -5 -3 -17 -12 -25
-20 -8 -8 -18 -16 -24 -19 l-9 -5 -138 0 c-108 0 -140 1 -148 3 -10 2 -80 28
-124 45 -13 5 -25 10 -26 10 -1 0 -4 1 -7 2 -3 2 -13 5 -23 9 -18 6 -29 15
-29 21 0 2 -1 3 -2 3 -2 0 -2 1 0 1 2 1 5 4 7 6 l3 5 169 0 c154 0 169 0 175
4 8 4 13 11 15 18 0 3 1 7 2 8 0 1 1 7 2 13 0 10 1 12 6 16 8 7 21 7 28 0z
m296 -65 c4 -3 6 -6 5 -8 -1 -2 -2 -7 -3 -13 -1 -9 -9 -21 -13 -21 -2 0 -13 9
-40 30 -4 3 -8 6 -11 6 -3 1 -3 2 0 2 1 0 3 1 3 2 0 4 12 7 32 8 21 0 21 0 27
-6z m93 -27 l-5 -5 -4 4 -5 5 4 4 5 5 4 -4 5 -5 -4 -4z m-861 -63 c10 -9 3
-26 -10 -26 -8 0 -15 7 -15 15 0 13 16 20 25 11z m-271 -8 c1 0 5 -3 8 -6 7
-7 8 -16 4 -36 -4 -20 3 -57 13 -73 12 -19 39 -19 50 0 4 8 8 22 7 26 -4 14 4
25 18 25 22 0 25 -4 25 -38 l0 -26 7 -7 c12 -11 42 -20 56 -17 8 2 24 15 24
19 0 1 2 6 4 10 2 4 4 9 4 11 0 5 6 14 12 16 10 4 29 3 35 -2 8 -7 9 -10 8
-73 -2 -59 -1 -61 3 -69 6 -13 17 -19 39 -21 11 -2 17 -8 17 -18 0 -10 -6 -16
-17 -18 -22 -2 -33 -8 -39 -20 -4 -7 -4 -12 -4 -45 0 -37 0 -38 -5 -44 l-5 -6
-15 6 c-9 4 -18 7 -21 9 -7 3 -22 1 -29 -4 -13 -9 -15 -18 -15 -58 0 -20 1
-39 2 -43 3 -10 4 -43 2 -56 -1 -6 -3 -17 -4 -25 -1 -8 -2 -15 -2 -17 -1 -1
-2 -2 -4 -1 -3 0 -4 -1 -4 -4 0 -4 -1 -3 -3 5 -3 15 -21 26 -39 27 -14 0 -34
-9 -36 -15 0 -2 -1 -4 -2 -4 -2 0 -7 -16 -8 -32 -1 -14 -2 -17 -11 -30 -16
-24 -22 -29 -37 -31 -16 -2 -18 -2 -22 3 -6 6 -5 31 0 41 5 9 5 25 1 33 -6 10
-11 10 -48 3 -40 -8 -43 -8 -55 -4 -6 3 -9 5 -13 13 -7 14 -7 24 3 41 15 27
14 17 14 165 0 90 -1 136 -2 140 -3 9 -10 22 -14 26 -6 6 -12 18 -12 25 0 7 6
19 13 25 11 12 15 31 8 42 -6 8 -16 16 -24 19 -3 1 -8 4 -11 7 -5 5 -6 7 -6
16 0 22 15 26 46 11 26 -13 38 -12 51 3 6 6 7 24 2 35 -7 17 -3 35 9 40 5 2 8
2 22 1z m1067 -24 c7 -6 7 -19 1 -25 -6 -7 -19 -7 -25 -1 -7 6 -7 19 -1 25 6
7 19 7 25 1z m-1538 -27 c6 -9 5 -24 -3 -31 -5 -6 -7 -7 -16 -7 -15 0 -23 8
-23 23 0 16 5 20 23 20 14 0 15 -1 19 -5z m842 1 c16 -7 16 -43 -1 -50 -15 -6
-34 -2 -39 9 -4 8 -4 24 0 32 5 12 23 15 40 9z m445 -20 c5 -6 5 -14 1 -15 -2
-1 -2 -2 -1 -3 1 0 2 -5 3 -10 1 -10 7 -22 10 -20 1 1 2 -1 3 -3 2 -5 13 -11
21 -11 2 0 9 1 16 2 12 2 12 2 21 15 10 15 17 20 31 20 19 0 28 -10 28 -29 -1
-14 -5 -20 -20 -28 -7 -3 -14 -6 -15 -6 -1 0 -3 -1 -4 -3 -1 -1 -9 -6 -18 -9
-8 -3 -17 -7 -19 -8 -2 -1 -6 -2 -9 -3 -7 -2 -17 -13 -20 -23 -1 -5 -2 -17 -2
-28 1 -19 1 -19 -5 -25 l-6 -6 -129 0 -129 0 -6 6 -6 6 0 57 0 57 6 6 6 6 43
0 c47 0 54 1 66 14 3 3 10 11 16 17 l9 10 14 0 c14 0 16 -1 29 -17 7 -9 14
-13 24 -14 4 0 10 -1 12 -2 4 -1 7 6 9 20 1 4 2 9 3 9 1 1 1 2 -1 3 -4 1 -4 9
1 15 4 5 13 5 18 0z m-1051 -26 c4 -6 4 -24 -1 -30 -7 -9 -27 -9 -34 0 -5 6
-5 24 0 30 7 9 27 9 35 0z m927 -224 c5 -5 5 -15 0 -20 -9 -9 -24 -2 -24 10 0
8 6 14 14 14 3 0 8 -2 10 -4z m-116 -29 c3 -2 8 -8 10 -12 6 -11 15 -18 25
-22 7 -3 22 -3 114 -3 l106 1 6 -6 c6 -6 6 -7 5 -23 0 -12 1 -19 3 -25 4 -9
14 -21 18 -21 2 0 3 -1 3 -2 0 -4 57 -5 62 -1 3 3 13 0 11 -3 -1 -1 1 -2 3 -3
5 -2 5 -2 0 -15 -6 -15 -8 -16 -24 -12 -13 4 -25 4 -226 4 -238 0 -218 -1
-258 15 -32 12 -36 17 -36 44 0 16 0 18 6 23 3 3 7 6 9 6 20 1 27 -1 33 -14 2
-5 8 -12 13 -17 7 -7 9 -8 19 -9 10 0 15 1 23 9 5 4 12 15 13 20 0 1 1 3 1 4
1 1 2 7 4 13 3 14 7 21 15 30 3 4 8 9 10 12 8 12 23 15 32 7z m473 -10 c3 -3
3 -3 0 -6 -4 -5 -11 1 -7 6 4 4 4 4 7 0z m-84 -32 c6 -6 7 -21 2 -28 -1 -3 -3
-6 -3 -8 1 -5 -7 -23 -10 -23 -1 0 -2 -1 -1 -1 0 -1 -1 -2 -2 -3 -1 0 -3 -2
-4 -3 -2 -4 -6 -2 -7 3 0 1 0 8 0 15 0 9 -1 12 -5 17 -4 5 -5 9 -5 16 0 14 6
20 20 20 8 0 11 -1 15 -5z m-1118 -24 c3 -5 3 -5 0 -10 -2 -3 -5 -5 -7 -5 -2
0 -5 2 -7 5 -3 5 -3 5 0 10 2 3 5 5 7 5 2 0 5 -2 7 -5z m1254 -48 c6 -4 6 -6
6 -20 0 -14 0 -16 -6 -20 -8 -7 -22 -7 -46 1 -22 7 -31 14 -31 24 0 7 5 13 12
15 12 3 28 5 43 5 15 0 17 -1 22 -5z m-779 -3 c5 -5 6 -7 6 -17 0 -16 -7 -23
-23 -23 -16 0 -23 7 -23 23 0 16 7 23 23 23 10 0 12 -1 17 -6z m-487 -30 c9
-9 8 -18 -6 -51 -14 -34 -17 -37 -34 -37 -18 0 -23 5 -25 22 0 12 1 17 24 58
10 16 29 20 41 8z m1119 -20 c8 -8 9 -13 5 -19 -5 -7 -13 -6 -17 2 -4 6 -3 17
0 17 1 0 2 1 2 3 0 5 4 4 10 -3z m-277 -22 c11 -10 3 -28 -11 -28 -9 0 -16 6
-16 16 0 14 17 22 27 12z m-112 -83 l6 -6 0 -67 0 -67 -6 -6 -6 -6 -35 0 -35
0 -6 6 -6 6 0 67 0 67 6 6 6 6 35 0 35 0 6 -6z m364 0 l6 -6 0 -31 c0 -17 1
-40 1 -52 1 -23 -1 -45 -4 -55 -3 -8 -3 -24 -1 -49 1 -19 1 -20 -4 -25 -5 -5
-10 -6 -21 -5 -8 1 -11 3 -19 15 -8 11 -8 17 0 17 3 0 5 1 4 2 -2 3 -34 1 -38
-2 -1 -1 -3 -1 -4 -1 0 1 -1 0 -2 -2 -2 -5 -10 -4 -14 2 -4 5 -3 17 3 37 0 3
1 37 1 77 l0 72 6 6 6 6 37 0 37 0 6 -6z m-1014 -82 c12 -7 14 -33 3 -43 -8
-9 -32 -9 -40 0 -9 8 -9 32 0 41 7 7 27 8 37 2z m80 -8 l5 -5 -6 -5 -5 -5 -4
4 -5 5 5 5 c5 7 4 7 10 1z m646 -62 c3 -5 3 -5 0 -10 -2 -3 -5 -5 -7 -5 -2 0
-5 2 -7 5 -3 5 -3 5 0 10 2 3 5 5 7 5 2 0 5 -2 7 -5z m-894 -18 c4 -4 5 -7 5
-15 0 -14 -6 -20 -20 -20 -14 0 -20 6 -20 20 0 14 6 20 20 20 8 0 11 -1 15 -5z
m-185 -23 c3 -5 3 -6 -2 -11 -6 -6 -12 -6 -16 1 -2 5 -2 6 1 11 4 7 13 6 17
-1z m1078 -70 c5 -3 10 -24 8 -31 -1 -6 -10 -10 -20 -9 -11 0 -36 -8 -36 -12
0 -1 -1 -2 -3 -2 -1 0 -6 -7 -10 -15 l-8 -16 0 -40 0 -40 -6 -6 -6 -6 -35 0
-35 0 -6 6 -6 6 0 34 c0 18 0 44 0 57 -1 50 -1 50 6 57 l6 6 43 -1 c46 -1 56
0 77 12 10 5 25 5 31 0z m57 -48 c9 0 15 -8 15 -19 0 -23 -14 -40 -33 -40 -19
0 -24 7 -26 30 -1 25 4 31 26 30 7 -1 15 -1 18 -1z m-382 -128 c11 -10 3 -28
-11 -28 -9 0 -16 6 -16 16 0 14 17 22 27 12z m670 -121 c3 -3 3 -3 0 -6 -4 -5
-11 1 -7 6 4 4 4 4 7 0z"/>
</g>
</svg>
