<?xml version="1.0" standalone="no"?>
<!DOCTYPE svg PUBLIC "-//W3C//DTD SVG 20010904//EN"
 "http://www.w3.org/TR/2001/REC-SVG-20010904/DTD/svg10.dtd">
<svg version="1.0" xmlns="http://www.w3.org/2000/svg"
 width="1100.000000pt" height="2870.000000pt" viewBox="0 0 1100.000000 2870.000000"
 preserveAspectRatio="xMidYMid meet">
<metadata>
Created by potrace 1.15, written by Peter Selinger 2001-2017
</metadata>
<g transform="translate(0.000000,2870.000000) scale(0.500000,-0.500000)"
fill="#000000" stroke="none">
<path d="M1221 3849 c0 -1 -3 -2 -6 -2 -3 -1 -6 -2 -7 -3 0 -1 -2 -2 -3 -2 -2
0 -6 -3 -9 -6 -9 -7 -17 -11 -28 -14 -15 -4 -25 -11 -30 -21 -4 -8 -4 -12 -4
-59 0 -65 0 -66 34 -91 18 -13 18 -37 0 -50 -19 -15 -24 -19 -29 -30 -5 -11
-5 -11 -5 -64 0 -40 1 -56 3 -68 8 -36 2 -51 -21 -51 -12 0 -26 5 -26 10 0 3
-18 20 -27 25 -9 5 -10 5 -21 3 -6 -1 -14 -4 -18 -7 -5 -3 -9 -5 -10 -5 -7 0
-10 -32 -4 -36 2 -1 2 -2 1 -2 -1 0 0 -2 2 -4 8 -8 9 -10 9 -16 0 -8 -6 -14
-14 -14 -3 0 -8 2 -10 4 -5 5 -5 17 -1 19 3 1 4 25 0 25 -1 0 -1 2 0 3 1 2 1
3 0 3 -1 -1 -3 0 -5 3 -3 3 -8 7 -13 10 -7 4 -10 7 -13 16 -12 32 -24 44 -51
51 -3 1 -20 7 -38 13 -18 6 -35 12 -38 13 -3 1 -11 4 -18 6 -7 2 -18 5 -25 7
-18 5 -27 11 -54 32 -13 10 -26 20 -29 22 -3 2 -7 5 -9 7 -2 2 -6 5 -9 7 -3 2
-7 5 -9 7 -2 2 -6 5 -10 8 -4 3 -14 10 -22 17 -9 7 -18 14 -21 16 -3 2 -7 5
-8 6 -1 1 -8 6 -15 12 -7 5 -13 10 -14 11 -4 4 -24 18 -30 21 -8 3 -22 2 -30
-2 -5 -3 -27 -26 -71 -74 -8 -9 -14 -16 -15 -17 -1 -1 -5 -3 -11 -6 -9 -5 -12
-5 -43 -5 -45 0 -31 -4 -158 48 -52 21 -97 39 -100 39 -15 0 -27 -8 -32 -22
-3 -9 -3 -198 0 -209 1 -4 6 -15 9 -23 9 -18 9 -33 0 -54 -11 -26 -11 -32 -11
-142 0 -115 -1 -109 18 -136 12 -17 12 -27 0 -44 -17 -25 -18 -29 -18 -77 0
-46 1 -51 13 -62 6 -5 10 -7 17 -7 6 -1 10 0 10 0 0 1 2 2 3 3 2 0 7 4 11 7 4
3 8 6 9 6 1 0 4 1 5 3 3 3 21 12 32 15 8 3 23 16 28 24 3 5 3 7 6 22 4 18 5
20 10 25 9 6 24 5 36 -3 5 -4 10 -7 10 -8 0 -1 8 -6 17 -10 l17 -8 11 4 c22 8
27 18 27 53 0 23 -2 32 -11 41 -4 5 -26 16 -32 16 -12 0 -18 27 -8 37 3 3 6 5
8 5 6 0 28 11 32 16 9 10 11 18 11 46 0 31 -2 40 -11 47 -7 5 -29 13 -29 11 0
-1 -4 -2 -9 -2 -8 0 -19 6 -19 10 0 1 -2 7 -5 13 -13 28 -3 42 28 37 8 -2 13
-1 27 2 5 1 14 14 16 22 1 4 2 28 2 63 l-1 56 6 6 c4 3 8 6 9 5 2 0 9 1 16 3
7 1 18 2 25 2 11 0 12 0 16 -6 7 -11 9 -45 6 -102 -1 -22 -1 -31 1 -38 3 -10
11 -25 15 -27 1 0 9 -7 18 -16 8 -8 20 -18 25 -21 6 -3 11 -8 13 -12 3 -6 2
-7 -2 -10 -2 -3 -5 -4 -6 -4 -36 5 -47 3 -55 -12 -13 -20 -11 -30 9 -50 8 -9
15 -16 15 -18 1 -1 1 -14 1 -28 0 -25 0 -26 7 -39 10 -20 8 -26 -12 -36 -6 -2
-13 -7 -17 -10 -14 -12 -13 -2 -13 -209 l1 -186 -6 -6 -6 -6 -27 0 -27 0 -6 6
-6 6 0 123 c0 70 0 126 -1 131 -4 14 -18 24 -41 26 -10 1 -23 6 -23 9 0 1 -4
4 -9 8 -12 8 -30 9 -38 1 -6 -7 -9 -22 -4 -31 2 -3 2 -6 1 -6 0 0 -1 -3 -1 -6
0 -4 0 -5 -2 -5 -2 1 -3 0 -3 -1 0 -2 -1 -2 -2 0 -1 2 -2 2 -2 1 0 -3 -6 -2
-12 1 -6 3 -19 3 -30 0 -12 -3 -19 -11 -28 -29 -8 -17 -14 -23 -22 -24 -10 -1
-26 -8 -30 -13 -6 -7 -5 -25 2 -33 10 -12 30 -31 40 -37 12 -8 16 -26 7 -35
-5 -5 -19 -7 -22 -3 -1 2 -26 -4 -27 -7 -1 -1 -2 -1 -2 0 0 2 -5 -4 -9 -10 -5
-11 -5 -123 1 -135 3 -8 12 -20 15 -20 0 0 4 -2 8 -5 5 -3 10 -6 12 -7 16 -6
16 -42 0 -48 -2 -1 -7 -4 -12 -7 -4 -3 -8 -5 -8 -5 -3 0 -12 -12 -15 -20 -4
-8 -4 -13 -4 -96 0 -75 0 -89 3 -95 4 -9 14 -21 18 -21 2 0 3 -1 3 -2 0 -2 10
-3 37 -3 57 1 80 12 84 41 2 11 -2 19 -18 35 -18 19 -21 24 -13 33 4 5 14 5
18 1 1 -2 4 -3 5 -3 1 0 4 -2 5 -4 4 -6 35 -22 43 -22 3 -1 5 -2 5 -2 0 -3 18
-5 21 -3 5 2 6 2 9 3 1 0 2 1 2 2 0 0 0 1 0 2 2 4 1 10 -1 22 -4 19 -1 34 9
40 3 2 10 8 16 14 15 15 17 22 16 66 l-1 33 6 6 c4 3 9 6 11 7 11 1 22 7 33
17 21 19 51 15 57 -8 3 -13 -3 -31 -14 -41 -3 -3 -10 -14 -13 -22 -4 -11 -4
-52 0 -63 4 -9 14 -21 18 -21 2 0 3 -1 3 -2 0 -2 1 -2 23 -3 10 0 25 0 33 1
35 4 88 22 101 34 4 3 8 6 9 6 4 0 30 13 40 21 16 12 24 20 31 35 l6 13 0 291
0 292 -5 5 c-5 5 -7 6 -18 6 -8 -1 -13 0 -14 2 -1 1 -2 1 -2 -2 0 -2 -2 -5 -4
-7 -2 -1 -4 -3 -4 -5 0 -2 -1 -3 -2 -3 -1 0 -2 -1 -1 -2 1 -1 0 -2 0 -3 -5 -2
0 -33 4 -36 2 -1 3 -6 3 -12 0 -13 -6 -19 -19 -19 -13 0 -19 6 -19 19 0 7 1
11 3 12 2 2 4 7 4 18 2 17 -1 25 -8 31 -8 6 -12 21 -9 32 2 10 7 16 16 19 12
5 36 -1 36 -10 0 -2 1 -3 2 -2 1 2 6 3 14 2 11 0 13 1 18 6 l5 5 1 95 c0 91 0
95 -4 103 -2 5 -5 11 -7 13 -5 5 -22 11 -33 12 -15 1 -22 7 -26 21 -5 20 6 36
26 37 16 1 27 7 41 21 8 7 18 15 23 17 9 5 17 10 26 15 2 2 4 4 4 6 0 3 0 3 1
0 1 -2 4 -5 6 -8 l5 -5 0 -113 c0 -115 1 -125 8 -136 2 -3 4 -6 5 -8 0 -2 3
-6 5 -10 2 -3 6 -14 8 -24 5 -21 10 -30 15 -30 1 0 7 -2 13 -4 5 -2 12 -4 14
-4 2 0 10 -5 17 -11 7 -7 18 -15 24 -18 23 -12 29 -22 18 -33 -6 -5 -9 -5 -35
3 -10 3 -24 5 -31 6 -14 1 -21 2 -21 5 0 2 -26 -2 -31 -6 -8 -6 -9 -14 -9 -85
l0 -67 5 -9 c5 -8 16 -16 25 -18 3 0 5 -1 6 -3 1 -2 2 -2 3 0 1 1 2 1 4 -1 3
-3 3 -3 0 -6 -3 -3 -4 -3 -5 -1 -2 3 -2 3 -2 0 0 -2 -2 -3 -5 -4 -7 0 -21 -7
-25 -12 -6 -6 -8 -17 -9 -42 -3 -90 -16 -224 -24 -268 -1 -3 -3 -15 -5 -28 -4
-24 -10 -54 -19 -96 -6 -25 -24 -91 -31 -111 -5 -16 -3 -30 6 -39 6 -5 25 -16
30 -16 3 0 10 -9 12 -18 2 -7 2 -10 -1 -19 -3 -11 -7 -14 -29 -25 -11 -5 -30
-25 -36 -38 -3 -5 -7 -16 -9 -24 -5 -21 -6 -24 -11 -25 -3 0 -13 -2 -22 -4 -9
-1 -19 -5 -23 -7 -6 -5 -21 -23 -21 -26 0 -1 -1 -2 -2 -2 -1 0 -2 -2 -3 -3 0
-2 -2 -5 -3 -7 -1 -2 -7 -12 -13 -22 -7 -10 -15 -23 -18 -28 -11 -16 -24 -34
-29 -42 -7 -10 -9 -15 -8 -26 0 -17 7 -26 24 -31 10 -4 18 -4 27 1 15 6 86 55
97 65 1 2 3 3 4 3 0 0 7 6 14 13 10 9 16 17 23 30 11 21 10 20 35 31 16 7 22
10 33 22 19 18 38 39 56 63 3 4 7 9 8 10 4 4 18 24 21 28 1 3 3 6 5 7 2 3 32
48 34 52 0 2 3 7 6 11 3 4 6 9 6 11 1 2 4 8 6 15 6 16 13 28 20 38 4 5 9 15
13 22 3 8 7 15 8 17 5 9 27 65 29 74 1 2 4 12 8 24 23 67 51 197 48 221 -2 16
-7 21 -22 22 -10 1 -13 0 -15 -2 -4 -5 -17 -4 -22 2 -6 6 -5 16 2 28 3 6 6 14
8 19 1 5 3 12 4 15 1 3 2 9 2 12 0 10 10 19 17 17 1 -1 28 11 31 13 8 7 12 22
13 43 0 25 -2 30 -17 46 -6 6 -10 12 -10 13 0 1 -1 3 -3 4 -1 2 -3 7 -4 12 -1
5 -2 9 -2 8 -1 0 -4 3 -8 8 -3 4 -9 11 -12 15 -8 8 -12 26 -6 31 4 4 17 7 22
5 4 -1 14 1 33 8 14 4 20 8 21 12 0 3 1 3 1 0 0 -7 22 -10 47 -9 12 1 24 2 26
3 3 1 5 0 9 -5 6 -6 6 -7 6 -31 1 -63 5 -92 20 -124 20 -43 53 -67 105 -80 16
-4 19 -4 40 -7 14 -2 30 3 41 12 15 11 20 14 32 14 12 0 16 -2 39 -18 12 -9
24 -9 37 0 4 3 8 6 8 7 0 0 4 5 9 11 6 7 10 10 17 11 10 2 23 0 28 -6 9 -8 9
-32 0 -40 -4 -5 -19 -9 -25 -7 -13 5 -40 -1 -51 -11 -5 -5 -6 -8 -7 -17 -1
-21 4 -29 25 -37 16 -6 24 -13 24 -22 0 -15 -11 -19 -37 -13 -20 4 -31 12 -31
21 0 3 -2 11 -5 17 -4 9 -6 12 -14 15 -8 4 -11 4 -29 4 -9 0 -23 4 -31 9 -6 4
-20 5 -26 3 -3 -1 -6 -4 -8 -7 -4 -6 -5 -22 -1 -26 9 -10 13 -41 6 -49 -6 -8
-26 -9 -33 -1 -5 4 -9 24 -9 39 0 15 -1 20 -5 20 -1 0 -3 1 -4 3 -1 4 -33 4
-33 0 0 -3 -5 -7 -16 -15 -4 -2 -9 -7 -11 -9 -2 -2 -6 -5 -8 -6 -5 -3 -9 -11
-7 -14 1 -1 0 -4 -4 -7 -8 -7 -8 -7 -12 0 -2 5 -2 7 1 16 2 5 4 10 5 10 3 1 5
15 6 42 0 2 4 7 9 12 9 9 9 9 9 22 0 8 -1 14 -2 15 -1 1 -2 2 -1 3 1 2 -2 4
-10 6 -3 1 -14 5 -23 8 -9 3 -18 7 -20 7 -2 1 -12 4 -23 8 -15 5 -21 7 -28 6
-5 -1 -9 -2 -9 -3 0 -1 -1 -2 -2 -1 -1 0 -4 -2 -8 -6 -14 -17 -5 -35 24 -46
19 -7 23 -11 26 -22 4 -17 -2 -30 -19 -38 -12 -6 -19 -16 -21 -30 -1 -8 -1
-14 1 -15 3 -3 2 -23 -1 -29 -2 -3 -6 -11 -9 -17 -10 -17 -11 -25 -12 -87 -1
-32 -2 -64 -2 -71 -3 -41 -9 -76 -18 -114 -8 -31 -9 -37 -6 -48 3 -19 27 -19
45 1 7 8 20 29 20 33 -1 1 1 6 3 12 3 10 3 25 -2 39 0 1 -1 4 -2 7 -1 3 0 6 2
9 5 8 16 6 18 -4 0 -2 1 -4 1 -4 0 -1 1 -2 1 -3 0 -1 1 -2 1 -2 0 -1 1 -3 1
-5 0 -2 2 -4 3 -5 1 0 2 -1 1 -2 -2 -3 13 -18 20 -20 5 -2 11 -2 23 0 25 3 31
3 37 -3 8 -8 6 -27 -3 -48 -7 -14 -20 -18 -42 -13 -19 5 -38 0 -41 -10 -1 -1
-2 -3 -3 -4 -1 -1 -8 -18 -11 -29 -3 -8 -13 -13 -25 -14 -15 0 -21 4 -28 17
l-6 12 -17 0 -17 1 -5 -10 c-4 -10 -15 -32 -27 -54 -5 -10 -6 -13 -5 -21 2
-14 2 -14 8 -27 7 -15 7 -24 1 -43 -15 -47 -17 -50 -31 -50 -8 0 -17 7 -17 13
0 6 -6 8 -21 7 -18 0 -21 -2 -25 -12 -3 -7 -5 -8 -19 -14 -29 -11 -36 -14 -46
-25 -15 -15 -18 -33 -6 -51 14 -23 36 -29 64 -16 2 1 7 3 11 4 29 11 91 39
121 56 7 4 14 8 17 9 10 5 19 18 25 35 6 17 10 25 15 31 15 15 17 21 15 51
l-2 22 8 7 c4 4 9 7 10 7 3 0 24 20 28 27 5 9 13 13 24 13 13 0 18 -4 23 -18
2 -7 5 -13 6 -13 1 -1 1 -3 0 -5 -2 -5 3 -7 7 -3 1 1 8 4 15 5 12 3 12 3 21
17 6 8 10 14 11 15 5 4 40 71 50 96 14 36 32 106 32 126 0 7 -3 20 -6 32 -6
20 -6 31 -2 37 2 3 12 27 14 34 1 5 1 11 -2 22 -6 22 -6 36 -2 39 7 6 12 7 52
8 l41 1 6 -6 6 -6 -1 -25 c0 -25 1 -33 9 -55 7 -23 7 -29 -1 -56 -19 -58 -6
-84 42 -86 26 -1 48 -5 53 -10 15 -12 7 -46 -10 -47 -2 0 -11 -1 -19 -1 -25
-1 -36 -9 -43 -32 -2 -6 -6 -14 -11 -19 -18 -20 -21 -31 -19 -80 2 -57 5 -74
16 -78 10 -4 29 -2 35 2 8 6 19 8 32 6 14 -3 18 -10 17 -26 -1 -15 -4 -22 -14
-26 -15 -8 -17 -11 -17 -28 l0 -16 13 -6 c24 -11 61 -18 93 -18 15 0 33 6 39
12 5 5 9 25 7 34 -2 9 -3 31 -1 38 1 5 2 10 4 21 3 16 19 22 29 12 4 -4 4 -6
3 -20 -1 -8 -2 -17 -2 -19 -3 -10 -3 -26 0 -32 2 -3 3 -6 3 -7 0 -5 11 -10 22
-10 12 -1 12 -1 21 9 14 14 21 19 33 19 13 0 17 -3 28 -20 14 -21 32 -29 51
-20 13 6 17 29 9 45 -9 17 -2 32 14 32 9 0 13 -3 20 -15 7 -14 16 -20 30 -18
12 1 13 2 27 21 20 27 28 51 28 90 0 43 -10 72 -36 97 -22 23 -23 26 -24 77
-2 60 -4 66 -34 82 -10 5 -12 5 -22 4 -15 -2 -23 -6 -28 -15 -6 -8 -6 -10 -4
-22 2 -13 8 -22 20 -30 13 -9 15 -12 15 -25 0 -15 -9 -23 -23 -20 -17 3 -38
-3 -49 -15 -12 -14 -18 -15 -52 -17 -15 0 -28 0 -28 0 0 1 -3 4 -6 6 -4 3 -7
6 -8 8 0 3 -10 19 -12 20 -6 2 -15 15 -15 20 0 4 4 11 11 20 4 4 6 9 7 10 0 2
1 4 1 5 2 3 5 18 4 25 0 4 2 15 4 26 4 17 4 26 4 89 l0 70 5 8 c4 5 9 10 16
13 10 5 31 25 38 34 8 13 3 38 -10 47 -3 2 -7 5 -9 7 -2 2 -9 8 -17 14 -7 6
-19 16 -27 22 -14 12 -15 12 -37 22 -15 7 -26 17 -25 23 0 3 -1 10 -2 16 -2 7
-3 17 -3 22 -1 6 -2 15 -2 22 -2 17 3 22 21 26 15 4 30 9 34 12 24 18 46 14
46 -8 0 -9 0 -11 -6 -16 -12 -10 -14 -15 -14 -31 0 -14 0 -16 5 -17 2 0 9 -3
16 -5 14 -5 26 -5 55 3 22 6 54 21 60 28 5 4 5 6 4 20 -1 15 -1 16 -8 22 -10
8 -12 14 -13 25 0 19 7 27 26 29 31 3 47 20 40 43 -7 20 -15 33 -28 48 -8 8
-26 21 -30 21 -2 0 -19 27 -19 30 0 1 -3 7 -6 12 -17 26 -18 31 -6 55 9 18 10
32 5 39 -5 6 -32 7 -35 1 -3 -5 -7 -6 -14 -4 -5 2 -14 11 -14 14 0 1 -5 5 -10
9 -19 12 -19 22 -1 31 9 5 38 21 58 33 8 4 15 9 17 10 2 0 5 3 8 5 9 5 40 23
46 25 3 2 14 5 25 7 24 5 45 15 59 28 12 10 16 18 16 30 0 16 2 14 -54 66 -16
15 -31 29 -34 32 -3 3 -11 9 -19 12 -7 4 -13 7 -13 8 0 0 -2 3 -5 6 -2 3 -6 9
-8 13 -4 9 -17 19 -25 19 -3 0 -7 1 -10 1 -2 1 -11 0 -19 -2 -25 -4 -45 0 -61
15 -7 6 -8 6 -23 6 l-16 0 -21 -21 c-23 -23 -23 -24 -29 -50 -2 -11 -7 -19
-11 -19 -4 0 -17 7 -23 13 -3 3 -7 5 -8 5 -2 0 -3 1 -3 2 0 4 -20 6 -58 6 -40
0 -41 0 -59 -6 -12 -4 -21 -6 -28 -6 -11 1 -11 1 -16 11 -5 9 -5 12 -5 38 0
26 0 28 5 37 6 11 21 18 40 19 10 1 13 0 31 -7 l19 -9 78 -1 c77 -1 84 -2 86
-7 1 -2 5 -3 15 -3 14 0 14 0 13 5 -1 3 0 5 2 5 1 0 5 3 8 7 3 3 7 8 9 11 2 2
6 7 7 11 10 19 27 20 40 1 14 -21 26 -28 47 -29 23 -1 45 10 59 29 11 15 9 32
-6 47 -5 5 -13 18 -18 28 -12 23 -16 27 -38 36 -19 7 -25 12 -36 27 -10 13
-19 22 -32 30 -12 8 -37 27 -49 40 -12 11 -12 11 -26 11 -10 1 -15 0 -18 -3
-3 -1 -24 -27 -46 -57 -48 -65 -46 -63 -80 -65 -28 -2 -35 -5 -52 -23 -14 -16
-19 -18 -42 -13 -55 12 -59 18 -40 65 5 14 11 31 13 38 4 11 19 29 25 29 4 0
19 10 28 20 10 10 24 35 28 50 2 9 -2 24 -7 32 -4 4 -6 5 -16 6 -15 0 -20 -4
-31 -26 -9 -17 -14 -21 -29 -21 -15 0 -27 9 -27 20 0 2 -1 5 -2 7 -1 1 -3 6
-4 10 -4 10 -11 18 -23 23 -9 4 -17 5 -67 9 -56 4 -63 4 -65 3z m451 -247 c5
-5 5 -11 0 -16 -10 -10 -27 5 -16 16 4 4 12 4 16 0z m-315 -83 c7 -4 10 -11
10 -23 0 -13 -4 -20 -11 -24 -6 -3 -27 -3 -30 0 -9 6 -37 9 -54 5 -4 -1 -6 0
-9 4 -3 5 -3 5 0 10 3 3 5 5 8 4 4 -1 9 0 25 6 6 2 16 7 16 8 6 13 32 18 45
10z m-787 -11 c5 -5 4 -14 -1 -19 -7 -7 -21 0 -21 10 0 12 15 17 22 9z m63
-31 c3 -5 3 -5 0 -10 -2 -3 -5 -5 -7 -5 -2 0 -5 2 -7 5 -3 5 -3 5 0 10 2 3 5
5 7 5 2 0 5 -2 7 -5z m649 -61 c18 0 22 -1 25 -4 4 -5 0 -9 -17 -13 -7 -2 -19
-6 -28 -10 -26 -13 -40 -8 -40 12 0 17 9 23 29 18 6 -2 20 -3 31 -3z m547 -7
c7 -6 8 -25 2 -34 -3 -5 -15 -9 -39 -14 -31 -7 -42 -3 -42 16 0 14 5 18 36 28
25 7 38 9 43 4z m-1538 -18 c14 -9 13 -33 -1 -48 -15 -15 -39 -19 -51 -7 -15
15 3 55 27 59 8 1 20 -1 25 -4z m230 -3 c7 -6 7 -19 1 -25 -6 -7 -19 -7 -25
-1 -7 6 -7 19 -1 25 6 7 19 7 25 1z m1053 -41 c3 -2 7 -5 9 -8 9 -15 34 -29
50 -29 9 0 17 -10 17 -22 0 -9 -6 -24 -10 -27 -8 -5 -11 -31 -4 -45 2 -6 4
-13 4 -21 0 -10 -1 -12 -6 -17 -6 -6 -7 -6 -18 -6 -11 0 -12 0 -18 6 -4 3 -6
8 -7 15 -1 12 -9 32 -12 35 -2 1 -3 4 -3 5 0 4 -11 9 -21 9 -13 0 -26 -6 -30
-14 -2 -3 -4 -7 -6 -8 -1 -2 -7 -10 -12 -18 -5 -8 -10 -15 -11 -16 -1 -1 -6
-8 -11 -16 -5 -8 -11 -16 -13 -19 -2 -2 -4 -5 -5 -7 -1 -4 -17 -12 -29 -14 -8
-1 -9 -1 -14 5 -6 5 -6 6 -6 26 0 17 -1 26 -6 44 -6 22 -6 24 -4 39 3 14 2 16
-1 22 -5 9 -14 12 -31 10 -7 0 -22 -1 -33 -1 -19 0 -19 0 -25 6 -12 12 -8 33
9 42 18 9 33 13 54 11 30 -1 32 -1 54 8 10 4 22 8 26 8 7 0 14 -6 16 -14 4
-21 6 -25 8 -28 2 -2 3 -2 3 0 0 1 5 2 15 2 l15 0 8 17 c5 10 11 18 13 20 10
5 25 5 35 0z m-715 -53 c11 -10 3 -28 -11 -28 -9 0 -16 6 -16 16 0 14 17 22
27 12z m292 -3 c4 -4 6 -8 5 -11 -2 -17 22 -42 41 -42 13 0 22 -20 17 -39 -2
-8 -9 -17 -12 -17 -5 0 -28 -12 -32 -17 -8 -8 -14 -25 -14 -38 0 -14 -6 -20
-22 -22 -15 -1 -31 -9 -42 -21 -19 -20 -33 -24 -49 -14 -13 8 -16 31 -5 48 2
4 5 8 5 10 1 2 3 5 5 8 7 10 8 25 8 88 l-1 61 6 6 6 6 39 0 39 0 6 -6z m102
-1 c4 -4 5 -7 5 -13 0 -11 -6 -17 -18 -18 -8 -1 -10 -1 -13 3 -5 7 -4 22 1 27
6 7 19 7 25 1z m-637 -65 c21 -9 20 -45 -2 -54 -10 -5 -28 -1 -34 6 -9 10 -9
32 0 42 7 8 24 11 36 6z m-322 -11 c3 -4 4 -7 3 -11 0 -3 -1 -7 -1 -9 0 -7 -9
-14 -18 -14 -20 0 -26 27 -7 35 9 4 18 4 23 -1z m626 -46 c5 -5 5 -15 0 -20
-9 -9 -24 -2 -24 10 0 8 6 14 14 14 3 0 8 -2 10 -4z m64 -38 c5 -6 5 -12 0
-18 -7 -8 -22 -2 -22 9 0 11 15 17 22 9z m283 -37 c6 -4 6 -6 6 -20 0 -14 0
-16 -6 -20 -4 -4 -7 -5 -18 -5 -11 0 -14 1 -18 5 -6 4 -6 6 -6 20 0 14 0 16 6
20 4 4 7 5 18 5 11 0 14 -1 18 -5z m457 -62 c0 -1 1 -4 1 -6 2 -5 -11 -21 -21
-28 -15 -9 -18 -10 -145 -11 l-120 -1 -19 -10 c-23 -11 -34 -12 -42 -4 -6 7
-6 22 1 29 5 5 5 5 41 5 21 0 40 1 44 2 4 0 13 1 21 2 38 3 45 4 61 9 34 10
33 10 50 7 25 -4 90 -1 109 6 10 3 19 3 19 0z m-766 -37 l4 -8 -4 -4 c-12 -10
-29 5 -18 16 6 6 13 4 18 -4z m343 -64 c7 -6 7 -19 1 -25 -6 -7 -19 -7 -25 -1
-7 6 -7 19 -1 25 6 7 19 7 25 1z m-398 -50 c4 -6 4 -24 -1 -30 -7 -9 -27 -9
-34 0 -5 6 -5 24 0 30 7 9 27 9 35 0z m-626 -2 c14 -6 17 -9 17 -19 0 -15 -17
-23 -29 -13 -3 2 -5 4 -4 4 0 0 -1 4 -4 8 -4 6 -5 10 -5 16 1 7 1 7 6 7 3 0 6
0 6 1 0 1 1 2 2 1 0 0 6 -3 11 -5z m330 -4 c12 -8 18 -21 16 -39 -1 -16 -7
-34 -14 -43 -4 -5 -5 -8 -5 -18 0 -13 0 -13 9 -21 5 -5 11 -9 12 -9 6 0 12
-21 9 -32 -4 -15 -11 -20 -27 -21 -15 -1 -26 7 -29 21 -3 11 1 25 8 32 4 4 4
6 4 17 -1 14 -3 17 -21 30 -10 7 -10 17 -2 51 5 19 9 31 12 34 6 6 18 6 28 -2z
m921 -26 c5 -5 5 -15 0 -20 -9 -9 -24 -2 -24 10 0 8 6 14 14 14 3 0 8 -2 10
-4z m-171 -22 c5 -5 7 -14 4 -25 -2 -10 -7 -13 -20 -13 -10 -1 -12 0 -17 5 -9
9 -9 24 -1 33 9 9 24 9 34 0z m-1124 -138 c10 -10 4 -23 -11 -28 -10 -2 -17 5
-15 16 3 15 16 21 26 12z m276 -10 c13 -10 8 -36 -6 -36 -6 0 -15 9 -15 16 -1
20 10 30 21 20z m-314 -58 c-1 -23 -7 -30 -23 -30 -12 0 -19 5 -22 16 -5 20 4
33 23 35 11 2 12 2 18 -3 5 -5 5 -6 4 -18z m1464 6 c5 -5 7 -19 3 -23 -7 -7
-9 -40 -3 -51 5 -10 3 -29 -4 -35 -6 -5 -25 -7 -33 -3 -4 2 -26 34 -33 47 -7
14 -3 24 14 36 4 2 14 11 22 19 12 13 14 14 21 14 6 0 10 -1 13 -4z m-442 -43
c10 -5 15 -11 15 -18 0 -13 -16 -20 -25 -11 -6 6 -7 18 -2 26 4 7 3 7 12 3z
m-277 -33 c5 -5 5 -15 0 -20 -9 -9 -24 -2 -24 10 0 8 6 14 14 14 3 0 8 -2 10
-4z m-388 -11 l-5 -5 -4 4 -5 5 4 4 5 5 4 -4 5 -5 -4 -4z m288 -63 c5 -5 6 -7
6 -17 0 -16 -7 -23 -23 -23 -16 0 -23 7 -23 23 0 16 7 23 23 23 10 0 12 -1 17
-6z m-228 -43 l-5 -5 -4 4 -5 5 4 4 5 5 4 -4 5 -5 -4 -4z m990 -23 c5 -5 6 -7
6 -17 0 -16 -7 -23 -23 -23 -10 0 -12 1 -17 6 -5 5 -6 7 -6 17 0 16 7 23 23
23 10 0 12 -1 17 -6z m140 -245 c7 -8 6 -23 -2 -29 -9 -8 -28 -15 -43 -17 -10
-1 -11 -1 -15 3 -9 10 -3 22 19 37 21 14 32 15 41 6z m-986 -18 c4 -4 4 -4 0
-8 l-5 -5 -4 4 c-5 4 -5 5 -2 8 4 5 7 5 11 1z m837 -41 c11 -10 3 -28 -12 -28
-10 0 -15 4 -15 15 0 15 16 23 27 13z"/>
<path d="M1434 3296 c-3 -9 -2 -20 1 -24 2 -3 5 -4 14 -3 10 1 28 7 22 7 -3 0
-4 10 -1 10 2 0 6 10 4 14 0 1 -6 2 -19 2 l-19 0 -2 -6z"/>
<path d="M1189 2121 c1 -1 0 -1 -1 -1 -2 1 -4 0 -6 -2 -2 -2 -6 -4 -8 -4 -2 0
-4 -1 -4 -2 0 -1 -1 -2 -3 -2 -6 0 -16 -13 -17 -21 0 -11 4 -14 18 -13 15 1
19 4 21 16 1 6 2 13 4 16 1 3 2 6 2 7 0 1 1 3 2 4 0 2 -1 3 -4 3 -3 1 -4 1 -4
-1z"/>
</g>
</svg>
