<?xml version="1.0" standalone="no"?>
<!DOCTYPE svg PUBLIC "-//W3C//DTD SVG 20010904//EN"
 "http://www.w3.org/TR/2001/REC-SVG-20010904/DTD/svg10.dtd">
<svg version="1.0" xmlns="http://www.w3.org/2000/svg"
 width="1103.000000pt" height="2870.000000pt" viewBox="0 0 1103.000000 2870.000000"
 preserveAspectRatio="xMidYMid meet">
<metadata>
Created by potrace 1.15, written by Peter Selinger 2001-2017
</metadata>
<g transform="translate(0.000000,2870.000000) scale(0.500000,-0.500000)"
fill="#000000" stroke="none">
<path d="M274 3852 c-12 -3 -25 -13 -23 -16 1 -1 0 -2 -1 -2 -5 0 -6 -18 -6
-103 0 -94 0 -92 11 -116 4 -8 10 -21 14 -29 3 -8 11 -21 17 -29 9 -13 10 -14
10 -25 0 -14 -3 -18 -16 -25 -17 -9 -25 -16 -30 -26 l-5 -10 0 -62 0 -62 -6
-6 -6 -6 -81 1 c-86 0 -91 0 -103 -9 -6 -5 -11 -15 -11 -27 -1 -6 13 -52 17
-61 6 -10 18 -20 28 -24 9 -3 19 -3 80 -3 l70 1 6 -6 c6 -6 6 -7 5 -25 0 -22
2 -33 11 -47 4 -6 8 -13 10 -17 l4 -8 -8 -13 c-4 -7 -8 -13 -9 -14 -6 -4 -7
-22 -8 -115 l0 -92 -5 -7 c-3 -4 -7 -7 -11 -8 -9 -2 -42 -10 -69 -16 -11 -3
-37 -8 -57 -13 -49 -10 -59 -16 -64 -34 -3 -12 -3 -14 12 -56 5 -16 14 -39 18
-52 4 -13 11 -32 15 -43 4 -11 8 -23 9 -26 1 -3 5 -15 9 -26 4 -11 7 -21 8
-23 0 -2 5 -16 11 -32 6 -16 12 -35 14 -42 12 -35 19 -44 39 -44 12 0 12 0 21
10 5 5 15 16 21 25 6 8 12 16 14 16 2 1 3 3 3 4 0 3 1 2 4 0 8 -8 8 -9 8 -131
l0 -119 -5 -5 c-5 -5 -7 -6 -16 -6 -36 0 -59 -7 -75 -22 -14 -13 -20 -15 -32
-11 -5 2 -10 5 -12 6 -14 11 -47 14 -65 5 -10 -5 -21 -20 -20 -29 1 -10 9 -23
18 -29 8 -5 36 -16 42 -16 4 0 42 -17 49 -22 25 -17 41 -40 51 -70 6 -20 6
-19 10 -45 3 -19 4 -29 6 -64 1 -20 10 -41 20 -51 6 -5 24 -12 34 -13 34 -1
139 28 152 43 7 7 6 29 -1 39 -4 7 -5 10 -5 23 0 13 0 15 6 19 4 4 7 5 18 5
l13 0 12 -12 12 -12 14 0 15 0 10 15 c23 32 36 71 44 124 3 20 4 54 4 299 l1
277 5 11 c3 6 7 13 11 14 10 7 85 63 90 67 1 2 3 3 4 3 0 0 4 3 7 6 4 3 9 7
12 9 3 2 6 5 8 6 1 1 8 6 15 12 13 10 17 13 24 19 2 2 6 5 10 8 4 3 9 7 11 9
3 3 8 7 12 9 4 3 7 6 7 8 1 2 1 2 4 14 3 10 7 17 9 15 0 -1 1 -1 1 0 0 2 8 5
27 11 9 3 12 6 15 20 2 14 -4 31 -10 27 -1 -1 -2 0 -2 1 0 1 -5 2 -14 2 -15 0
-14 0 -18 -12 -1 -3 -1 -11 0 -18 1 -10 1 -14 -1 -18 -2 -4 -4 -6 -4 -5 -1 0
-3 0 -4 -2 -3 -2 -4 -3 -6 0 -2 1 -6 4 -10 7 -4 3 -8 8 -11 17 -5 15 -15 25
-29 29 -8 2 -11 2 -44 -7 -20 -5 -52 -13 -71 -18 -19 -4 -35 -9 -36 -9 0 -1
-3 1 -6 4 l-5 5 -1 125 -1 125 6 6 6 6 106 -1 c72 0 109 1 115 2 20 5 32 13
39 26 5 9 7 52 3 66 -3 12 -11 26 -16 26 -2 0 1 2 6 6 8 6 9 6 41 6 17 0 32 0
32 1 1 0 4 -2 8 -6 l6 -6 -1 -114 c0 -120 0 -127 9 -133 7 -5 30 -10 33 -7 1
2 7 3 13 3 16 0 23 -7 23 -23 0 -16 -7 -23 -23 -23 -6 0 -12 1 -13 3 -3 3 -26
-2 -33 -7 -9 -7 -9 -9 -9 -172 l0 -154 8 -21 c11 -28 11 -34 0 -62 l-8 -21 0
-37 1 -38 -6 -6 -6 -6 -108 1 c-114 0 -118 0 -130 -9 -7 -5 -11 -16 -11 -28
-1 -11 8 -25 21 -38 7 -7 16 -16 20 -22 12 -15 16 -19 26 -23 8 -4 14 -4 136
-4 86 0 131 -1 134 -2 6 -2 14 -9 11 -10 0 -1 -6 -8 -11 -17 -17 -26 -37 -54
-52 -75 -13 -17 -38 -50 -44 -57 -2 -3 -6 -7 -8 -9 -18 -23 -44 -51 -72 -79
-29 -28 -31 -31 -60 -56 -9 -8 -16 -14 -17 -15 -4 -4 -66 -52 -75 -57 -3 -2
-6 -4 -7 -5 -1 -1 -35 -24 -50 -33 -7 -4 -16 -16 -16 -19 1 -1 0 -3 -2 -6 -8
-16 6 -47 28 -59 14 -8 38 -4 151 26 31 8 108 32 119 36 4 2 13 5 20 7 7 3 16
6 19 7 3 1 15 6 26 10 11 4 25 10 30 12 6 3 17 7 25 11 24 9 94 43 124 60 27
15 48 26 62 35 33 20 46 29 58 36 19 14 23 15 47 17 34 3 47 9 69 31 12 13 14
17 12 34 -1 12 -9 18 -69 54 -5 3 -14 9 -20 12 -23 15 -36 23 -48 30 -7 4 -18
11 -23 15 -5 3 -10 6 -11 6 -1 0 -7 4 -13 8 -7 4 -12 8 -13 8 -1 0 -5 3 -37
23 -7 4 -15 9 -17 9 -3 1 -3 2 -1 2 2 0 4 2 5 4 1 2 3 4 5 4 1 0 59 1 127 1
125 1 143 0 143 -6 0 -2 3 -3 8 -3 6 0 6 -1 -3 -2 -13 -2 -25 -9 -37 -21 -8
-8 -9 -10 -10 -22 -1 -17 2 -22 28 -42 13 -10 23 -18 24 -19 1 -1 10 -9 21
-18 11 -9 21 -18 22 -19 1 -1 11 -10 22 -20 25 -23 55 -53 76 -76 31 -34 35
-38 43 -48 11 -13 44 -57 48 -62 32 -48 46 -70 60 -98 8 -15 27 -33 40 -39 56
-21 114 -8 156 35 6 6 12 12 13 14 1 2 2 4 3 5 6 4 26 48 29 65 3 14 3 17 3
41 0 20 -1 28 -7 53 -6 24 -30 71 -50 95 -5 7 -42 44 -50 50 -70 59 -183 103
-303 119 -41 5 -59 7 -83 7 l-28 1 21 1 c12 1 20 1 19 2 -2 0 -3 1 -3 3 0 1
-2 3 -3 4 -2 0 15 1 38 1 33 0 45 1 55 3 7 2 20 4 29 4 9 0 22 -2 29 -4 11 -3
27 -3 158 -3 160 0 157 0 176 12 21 14 35 44 30 64 -4 13 -9 21 -23 36 -4 3
-7 7 -7 8 0 1 -6 2 -15 2 -16 -1 -15 0 -32 -18 -6 -7 -8 -8 -17 -8 -14 0 -20
6 -20 20 0 10 0 11 11 21 l12 11 1 14 0 15 -18 17 c-26 23 -64 61 -64 64 0 7
-31 8 -39 2 -6 -6 -43 -64 -45 -72 -1 -3 -2 -4 -2 -2 0 2 -1 4 -3 5 -6 2 -7
15 -7 189 0 167 0 172 -4 180 -4 7 -13 16 -16 16 -2 0 -8 3 -15 6 -10 5 -14 8
-16 13 -1 3 -4 9 -6 13 -12 29 -14 39 -6 47 5 5 19 7 22 3 1 -2 26 4 27 7 1 1
2 1 2 0 0 -2 5 4 9 10 4 9 5 125 0 140 -6 20 -19 26 -59 27 -1 0 -5 3 -8 6 -5
5 -6 7 -6 17 0 18 6 24 24 26 19 2 24 3 33 7 9 5 13 12 13 26 0 13 -12 18 -40
18 -15 0 -17 0 -22 6 -9 8 -9 26 0 34 7 7 23 8 32 2 6 -4 28 -26 26 -26 0 0 1
-1 3 -3 3 -2 19 -3 98 -3 88 0 95 0 105 4 21 7 35 19 46 41 9 17 8 30 -3 46
-9 14 -57 61 -102 102 -21 19 -61 58 -61 61 0 4 -12 6 -24 5 -13 -1 -19 -4
-22 -12 -1 -2 -5 -8 -8 -13 -3 -5 -7 -11 -9 -14 -2 -6 -4 -5 -9 4 -3 4 -4 11
-4 31 0 15 -1 30 -3 34 -2 9 -11 25 -13 25 -1 0 -6 4 -11 9 l-10 9 0 15 c0 14
0 16 6 20 4 4 7 5 18 5 12 0 14 0 22 -8 8 -8 9 -8 24 -8 11 0 15 1 19 4 3 3
15 31 13 32 0 1 -1 4 -2 8 -4 22 -18 30 -56 33 -8 1 -58 5 -112 10 -54 5 -104
9 -112 10 -8 1 -19 2 -25 2 -31 3 -53 -20 -46 -48 3 -13 6 -18 18 -32 17 -20
18 -37 1 -57 -21 -25 -21 -23 -21 -114 0 -82 0 -80 12 -105 14 -28 3 -48 -22
-43 -10 2 -14 9 -14 20 1 9 -1 21 -4 25 0 1 -1 3 -1 5 -1 5 -15 15 -22 17 -4
1 -9 0 -12 -1 -3 -1 -5 -1 -5 0 0 0 -1 0 -2 -1 0 -1 -4 -4 -7 -6 -4 -2 -9 -6
-10 -9 -2 -3 -4 -5 -5 -6 -1 -1 -3 -5 -6 -9 -12 -21 -44 -21 -56 0 -11 20 -20
27 -33 27 -9 1 -11 0 -25 -8 -17 -11 -25 -13 -32 -6 -6 6 -5 14 2 27 16 29 15
20 16 101 l1 73 5 7 c3 4 8 9 11 10 7 2 20 14 28 24 12 17 22 55 15 59 -1 1
-2 2 -1 3 1 2 -10 16 -17 19 -8 4 -20 6 -42 8 -10 1 -22 2 -25 2 -3 1 -13 1
-22 2 -9 1 -24 2 -34 3 -10 1 -26 2 -35 3 -9 1 -19 2 -21 2 -6 1 -28 -6 -34
-11 -6 -5 -6 -6 -5 -18 1 -14 2 -14 14 -26 6 -7 13 -15 15 -17 2 -2 13 -9 24
-14 23 -12 25 -15 24 -33 0 -17 -6 -22 -24 -22 -15 0 -22 4 -24 15 -1 6 -3 12
-6 20 -2 6 -2 6 -3 11 0 6 -15 15 -31 20 -19 6 -20 8 -33 40 -4 11 -12 24 -19
31 -4 3 -6 4 -17 3 -27 -1 -26 6 -26 -168 l1 -143 -6 -6 -6 -6 -56 1 c-60 0
-67 -1 -78 -9 -7 -5 -12 -21 -13 -37 -1 -4 -2 -7 -4 -8 -1 0 -12 9 -25 23 -12
12 -24 23 -26 24 -2 0 -7 6 -11 12 -4 6 -9 11 -11 12 -11 2 -22 2 -23 0 0 -3
0 -17 0 -21 0 -1 1 -2 2 -1 2 1 2 1 1 0 0 -1 2 -6 5 -12 5 -8 5 -10 4 -18 -2
-14 -7 -17 -26 -17 -29 0 -38 -4 -49 -24 -4 -6 -9 -15 -12 -19 -3 -5 -5 -11
-5 -13 l0 -4 -4 4 c-2 2 -5 6 -6 9 -1 3 -2 68 -1 165 l0 159 5 7 c3 5 9 9 14
12 10 4 25 17 32 27 7 11 5 36 -4 45 -2 2 -6 8 -10 14 -19 27 -27 31 -83 36
-53 5 -64 6 -75 7 -34 3 -141 13 -143 13 -1 0 -4 -1 -7 -2z m1257 -174 c19 -8
17 -25 -4 -35 -25 -12 -44 -5 -44 17 0 11 7 21 16 22 6 1 25 -1 32 -4z m-1086
-48 c5 -5 6 -7 6 -16 0 -15 -8 -23 -23 -23 -9 0 -11 1 -16 7 -9 8 -9 23 -1 32
9 9 24 9 34 0z m534 -140 c7 -6 7 -19 1 -25 -6 -7 -19 -7 -25 -1 -7 6 -7 19
-1 25 6 7 19 7 25 1z m51 -79 c1 -1 3 -7 4 -11 1 -5 3 -14 4 -20 2 -11 6 -16
21 -27 13 -9 15 -12 15 -24 0 -9 -1 -12 -5 -16 -6 -6 -21 -7 -30 -3 -3 2 -9
15 -9 20 1 3 -5 6 -17 6 -13 0 -21 -2 -21 -6 0 -6 -6 -19 -10 -22 -7 -6 -28
-5 -35 1 -5 4 -6 6 -6 17 -1 17 1 21 18 30 8 4 15 8 17 9 6 3 9 8 11 15 2 13
7 29 10 32 6 6 26 6 33 -1z m493 -23 c5 -5 6 -7 6 -16 0 -15 -8 -23 -23 -23
-9 0 -11 1 -16 7 -9 8 -9 23 -1 32 9 9 24 9 34 0z m-126 -49 l6 -6 0 -85 0
-85 -6 -6 -6 -6 -102 0 -102 0 -6 6 c-3 3 -6 7 -5 8 1 2 -6 20 -13 34 -9 17
-9 21 0 38 12 23 13 29 13 64 l-1 32 6 6 6 6 102 0 102 0 6 -6z m-742 1 c10
-9 3 -26 -10 -26 -8 0 -15 7 -15 15 0 13 16 20 25 11z m-373 -87 c-4 -6 -5 -6
-10 0 -4 4 -4 4 1 9 l4 4 4 -4 c5 -4 5 -5 1 -9z m1202 -122 c21 -9 20 -45 -2
-54 -10 -5 -28 -1 -34 6 -9 10 -9 32 0 42 7 8 24 11 36 6z m-404 -40 l-5 -5
-4 4 -5 5 4 4 5 5 4 -4 5 -5 -4 -4z m317 -68 l6 -6 0 -85 0 -85 -6 -6 -6 -6
-102 0 c-57 0 -103 1 -103 2 0 0 -4 3 -9 6 -6 2 -11 5 -13 7 -4 4 -22 10 -30
11 -15 0 -15 22 0 22 8 1 26 7 31 12 2 1 4 3 5 3 4 0 6 20 6 68 l-1 51 6 6 6
6 102 0 102 0 6 -6z m164 -34 c12 -12 3 -31 -13 -31 -11 0 -18 7 -18 18 0 11
7 18 18 18 6 0 9 -1 13 -5z m-1079 -120 c3 -3 4 -7 4 -14 0 -13 -6 -19 -19
-19 -13 0 -19 6 -19 19 0 7 1 11 4 14 7 8 23 8 30 0z m857 -108 c3 -2 7 -8 9
-13 3 -6 5 -10 6 -10 1 0 2 -1 2 -2 0 -7 17 -20 29 -23 3 -1 9 -4 12 -7 l6 -5
0 -87 0 -87 -6 -6 -6 -6 -102 0 -102 0 -6 6 -6 6 0 87 0 87 6 6 c4 4 8 6 13 6
7 1 16 4 38 16 5 3 16 7 25 9 17 5 26 9 31 13 12 13 39 18 51 10z m-1005 -120
c3 -3 4 -7 4 -14 0 -13 -6 -19 -19 -19 -13 0 -19 6 -19 19 0 7 1 11 4 14 7 8
23 8 30 0z m1223 -145 c4 -6 4 -24 -1 -30 -7 -9 -27 -9 -34 0 -5 6 -5 24 0 30
7 9 27 9 35 0z m-499 -36 c5 -6 5 -12 0 -18 -7 -8 -22 -2 -22 9 0 11 15 17 22
9z m-691 -98 c4 -1 17 -3 28 -5 18 -3 28 -7 36 -14 6 -6 28 -15 40 -16 17 -3
24 -11 24 -28 0 -19 -10 -28 -29 -28 -12 1 -17 3 -29 16 -6 7 -14 13 -24 18
l-14 6 -19 -1 c-10 -1 -23 -2 -28 -3 -22 -2 -36 16 -30 38 5 18 20 24 45 17z
m1401 -125 c3 -3 4 -7 4 -14 0 -13 -6 -19 -19 -19 -13 0 -19 6 -19 19 0 7 1
11 4 14 7 8 23 8 30 0z m-809 -103 c10 -9 3 -26 -10 -26 -8 0 -15 7 -15 15 0
13 16 20 25 11z m820 -35 c4 -4 5 -7 5 -15 0 -14 -6 -20 -20 -20 -14 0 -20 6
-20 20 0 14 6 20 20 20 8 0 11 -1 15 -5z m54 -101 c16 -7 16 -43 -1 -50 -15
-6 -34 -2 -39 9 -4 8 -4 24 0 32 5 12 23 15 40 9z"/>
</g>
</svg>
