<?xml version="1.0" standalone="no"?>
<!DOCTYPE svg PUBLIC "-//W3C//DTD SVG 20010904//EN"
 "http://www.w3.org/TR/2001/REC-SVG-20010904/DTD/svg10.dtd">
<svg version="1.0" xmlns="http://www.w3.org/2000/svg"
 width="1101.000000pt" height="2870.000000pt" viewBox="0 0 1101.000000 2870.000000"
 preserveAspectRatio="xMidYMid meet">
<metadata>
Created by potrace 1.15, written by Peter Selinger 2001-2017
</metadata>
<g transform="translate(0.000000,2870.000000) scale(0.500000,-0.500000)"
fill="#000000" stroke="none">
<path d="M1654 3830 c-11 -5 -18 -12 -22 -24 -4 -11 -3 -101 1 -108 10 -20 24
-24 46 -15 27 11 41 8 41 -8 0 -12 -16 -20 -41 -19 -9 1 -15 -1 -26 -5 -8 -4
-15 -6 -16 -5 -1 0 -4 5 -6 10 -2 6 -5 10 -6 10 -2 0 -3 1 -3 3 0 1 0 1 -2 -1
-1 -2 -2 -2 -3 1 -1 4 -18 11 -27 12 -4 1 -17 2 -29 3 -29 3 -42 1 -60 -8 -4
-2 -9 -4 -11 -4 -7 0 -26 8 -34 13 -11 8 -23 11 -51 14 -36 4 -48 1 -60 -14
-2 -3 -8 -8 -11 -9 -3 -1 -6 -4 -6 -5 0 -1 -1 -1 -2 1 -1 1 -20 16 -43 34 -23
17 -59 43 -79 58 -39 30 -44 32 -61 28 -13 -4 -23 -14 -36 -41 l-11 -22 -16
-9 c-15 -8 -38 -27 -38 -32 0 -4 -15 -12 -22 -12 -7 0 -20 6 -27 12 -10 10
-20 13 -54 14 -18 1 -36 3 -41 4 -9 2 -56 21 -140 54 -43 17 -48 19 -57 17
-13 -3 -19 -12 -25 -39 -1 -6 -5 -16 -8 -22 -5 -11 -5 -12 -6 -60 -1 -48 -3
-60 -8 -60 -1 0 -2 -1 -2 -3 0 -1 -2 -2 -7 -1 -6 0 -29 -8 -31 -12 -1 -4 -14
-2 -18 2 -4 4 -4 6 -3 15 1 11 -2 25 -7 32 -5 5 -12 8 -25 10 -15 2 -20 6 -25
25 -9 31 -14 38 -33 43 -14 4 -21 3 -35 -3 -14 -7 -19 -13 -28 -33 -9 -19 -12
-22 -32 -32 -21 -10 -36 -13 -60 -13 -30 0 -51 5 -87 22 -2 1 -8 4 -14 6 -5 2
-12 5 -14 6 -2 1 -8 4 -14 6 -5 2 -12 5 -14 6 -2 1 -8 4 -14 6 -5 2 -12 5 -14
6 -2 1 -8 4 -14 6 -5 2 -12 5 -14 6 -22 10 -24 10 -32 9 -11 -2 -20 -7 -24
-16 -4 -8 -4 -7 -4 -87 0 -10 0 -137 0 -282 -1 -269 -1 -276 6 -282 2 -1 2 -3
2 -4 -1 -1 1 -1 4 0 3 1 10 2 15 2 9 0 10 0 10 -4 0 -3 1 -3 2 2 3 18 39 21
48 4 3 -6 3 -27 1 -30 -6 -7 -11 -30 -12 -47 -1 -21 -4 -29 -12 -33 -10 -3
-17 -4 -21 -2 -4 1 -9 0 -18 -3 -26 -8 -26 -9 -26 -86 0 -65 1 -72 9 -80 5 -4
12 -7 22 -9 7 -1 8 -1 14 6 9 11 11 17 12 37 1 19 2 26 8 31 12 10 34 9 43 -1
6 -7 8 -20 6 -29 -3 -11 -4 -13 -17 -21 -6 -4 -12 -9 -14 -12 -5 -8 -11 -30
-9 -34 3 -4 0 -19 -5 -24 -4 -6 -18 -10 -26 -8 -7 2 -27 -4 -32 -10 -11 -11
-11 -5 -11 -237 0 -193 0 -216 3 -223 4 -9 14 -21 18 -21 2 0 3 -1 3 -2 0 -4
51 -4 67 1 13 4 29 17 33 27 1 3 5 7 8 10 6 4 7 4 19 2 26 -4 39 0 59 21 14
15 19 25 17 37 -2 14 -12 22 -38 32 -8 3 -12 11 -12 24 1 14 4 21 13 24 40 16
44 24 44 75 l-1 34 6 6 c6 6 7 6 29 6 22 0 23 0 29 -6 5 -5 6 -7 5 -16 0 -7 2
-19 5 -32 6 -26 6 -28 0 -53 -6 -25 -6 -33 -1 -44 5 -12 15 -21 27 -24 23 -7
72 5 117 28 10 5 25 19 29 27 4 9 3 26 -2 30 -1 1 -2 3 -2 3 2 2 -14 6 -24 6
-6 0 -11 -1 -12 -2 -1 -1 -4 -2 -8 -2 -13 0 -20 17 -10 26 4 4 15 6 18 2 8 -7
45 -10 49 -5 2 2 6 5 10 7 9 5 19 14 23 22 6 10 7 51 2 60 -4 7 -12 16 -16 16
-1 0 -4 1 -6 1 -7 2 -25 1 -35 -1 -8 -2 -19 -2 -25 0 -2 0 -2 11 0 19 1 9 1
13 -3 29 -2 11 -4 22 -5 25 -2 18 -8 31 -19 43 -14 14 -18 25 -14 39 4 14 11
19 27 20 15 1 25 -7 29 -20 1 -5 2 -11 1 -14 -1 -3 0 -9 4 -25 0 -2 1 -4 1 -4
0 -1 3 -6 7 -11 9 -12 17 -26 17 -32 0 -2 1 -3 1 -1 1 1 6 2 17 2 9 0 17 1 19
1 4 2 4 18 -1 26 -10 17 -13 29 -14 60 0 24 0 31 3 40 5 14 14 31 20 38 3 3 5
7 5 8 0 1 1 1 2 0 5 -8 15 -9 63 -9 l48 0 6 -6 c2 -3 4 -6 4 -6 0 -1 -1 -10
-2 -21 -1 -11 -3 -38 -4 -59 -6 -66 -6 -72 5 -93 4 -10 8 -21 8 -24 0 -6 -7
-16 -16 -25 -9 -8 -17 -28 -20 -48 -3 -23 -3 -21 -10 -56 -7 -37 -7 -39 -5
-47 1 -6 14 -21 19 -21 24 -2 25 -3 33 -26 3 -9 9 -22 14 -28 7 -11 8 -13 8
-23 0 -8 -2 -14 -4 -18 -5 -7 -3 -26 3 -35 3 -3 5 -6 6 -6 1 0 2 -1 2 -3 0 -1
1 -4 3 -5 5 -4 4 -18 -2 -24 -6 -6 -19 -6 -25 1 -4 4 -4 6 -3 19 2 22 -4 33
-26 49 -7 5 -10 18 -7 28 3 9 3 37 1 42 -2 4 -4 4 -18 3 -18 -1 -22 -4 -28
-28 -23 -80 -60 -171 -93 -230 -6 -9 -10 -17 -10 -17 0 -3 -46 -72 -61 -92
-16 -20 -19 -34 -11 -50 11 -24 36 -35 57 -24 8 4 43 29 54 39 2 2 11 10 20
17 9 8 30 28 48 46 28 27 39 40 61 66 9 11 30 38 32 42 7 14 24 15 50 3 32
-15 53 -31 63 -48 5 -8 13 -31 13 -37 0 -4 9 -26 15 -34 6 -9 11 -20 11 -24 0
-5 -6 -23 -8 -23 -2 0 0 -23 2 -28 10 -21 95 -11 157 18 22 10 32 19 39 36 11
22 12 23 34 30 11 4 23 9 26 11 13 11 33 44 49 80 10 23 2 41 -23 51 -16 6
-20 11 -20 25 0 8 1 14 5 22 9 17 8 39 -3 45 -7 5 -35 14 -41 14 -8 0 -16 11
-16 22 0 23 20 29 45 15 13 -8 31 -14 37 -13 5 0 13 8 12 10 -1 1 0 2 1 2 1 0
2 3 3 7 2 9 -4 21 -20 39 -15 17 -19 27 -15 41 4 13 10 18 27 20 25 3 45 13
58 27 21 24 17 52 -9 65 -3 2 -6 3 -6 2 0 0 -2 0 -5 1 -3 1 -11 3 -17 3 -19 2
-25 9 -24 30 2 16 7 21 25 21 8 0 14 -1 16 -3 8 -6 32 -3 40 6 4 5 7 37 10
124 2 60 2 58 8 66 3 3 6 6 7 6 0 0 2 1 3 1 1 1 5 0 7 -3 l5 -5 1 -159 c1
-173 1 -168 13 -176 7 -5 25 -7 32 -4 11 5 18 5 35 2 22 -4 30 -4 46 1 34 10
90 44 98 58 2 3 3 6 4 6 1 1 4 8 7 16 l5 14 0 95 c0 107 0 106 -15 124 -13 16
-15 19 -15 29 0 10 1 12 15 29 13 16 15 26 14 56 0 14 -1 34 -3 43 -2 15 -2
20 0 34 2 13 3 40 3 122 0 98 0 105 -4 112 -2 5 -4 8 -5 8 0 0 -7 0 -14 0
l-14 0 0 11 0 11 14 0 c7 0 14 0 14 0 1 0 3 3 5 8 6 11 6 209 0 219 -5 10 -13
17 -28 24 -17 8 -20 11 -23 23 -2 9 0 22 6 29 1 2 9 6 17 10 27 13 31 20 33
56 1 27 5 41 14 46 10 6 26 28 26 36 0 3 1 3 2 1 0 -2 3 -6 5 -9 4 -6 4 -10 5
-119 1 -82 2 -115 4 -120 3 -9 11 -18 15 -18 2 0 3 -1 3 -2 0 -1 3 -3 6 -4 12
-5 12 -21 0 -26 -3 -1 -6 -3 -6 -4 0 -1 -2 -2 -3 -2 -5 0 -12 -9 -16 -20 -3
-8 -3 -37 -3 -231 0 -254 -1 -233 17 -254 11 -14 13 -17 13 -28 0 -11 -2 -14
-13 -28 -10 -12 -10 -11 -14 -22 -3 -9 -3 -30 -3 -238 l0 -227 -5 -8 c-4 -4
-7 -8 -9 -8 -1 0 -10 -3 -18 -7 -27 -12 -33 -12 -61 -5 -24 6 -43 7 -67 3 -8
-1 -42 -3 -63 -3 -22 -1 -33 -3 -42 -11 -5 -5 -13 -20 -12 -25 4 -22 18 -35
46 -41 23 -5 51 -15 73 -25 12 -6 24 -10 28 -10 7 0 28 5 31 8 2 1 7 2 12 2
20 0 26 -18 12 -38 -12 -19 -15 -36 -10 -50 6 -13 14 -58 18 -95 3 -30 4 -33
10 -43 3 -8 12 -13 26 -18 16 -5 126 21 148 35 2 1 6 3 9 4 7 2 35 19 39 23 4
4 4 28 1 34 -2 3 -12 7 -31 12 -12 3 -17 10 -17 24 0 18 10 28 28 31 29 4 37
2 47 -14 9 -13 9 -13 28 -13 l15 0 5 12 c3 6 7 15 9 19 14 32 22 84 14 94 -1
1 -2 3 -1 3 1 2 -1 2 -17 3 -11 1 -12 1 -16 -3 -4 -5 -14 -8 -26 -6 -13 2 -37
-1 -49 -7 -14 -7 -20 -6 -21 3 -2 11 7 18 29 26 10 3 23 9 29 13 10 7 15 8 26
7 7 0 14 -5 14 -10 0 -3 2 -3 17 -3 l17 0 4 7 c3 6 3 19 4 152 0 144 0 145 -4
153 -2 5 -6 9 -7 9 -2 0 -3 1 -3 2 0 1 -3 3 -7 4 -6 2 -9 2 -32 2 -12 0 -20 8
-20 22 0 14 8 22 20 22 4 0 12 0 17 0 14 0 25 6 30 17 l5 10 1 174 c0 133 0
176 -2 183 -3 10 -9 22 -12 26 -2 2 -5 7 -7 12 -4 8 -4 8 0 17 2 4 5 9 7 11 3
4 8 13 11 24 3 9 4 112 1 115 -1 2 -1 27 0 28 1 1 2 114 2 251 0 233 0 251 3
256 6 8 7 9 18 15 26 13 54 58 49 79 -1 4 -2 9 -3 10 -2 11 -21 24 -37 25 -32
4 -265 25 -267 25 -1 0 -7 -2 -13 -4z m193 -115 c6 -4 6 -6 6 -20 0 -14 0 -16
-6 -20 -4 -4 -7 -5 -18 -5 -11 0 -14 1 -18 5 -6 4 -6 6 -6 20 0 14 0 16 6 20
4 4 7 5 18 5 11 0 14 -1 18 -5z m-1086 -28 c6 -4 6 -6 6 -20 0 -14 0 -16 -6
-20 -4 -4 -7 -5 -18 -5 -11 0 -14 1 -18 5 -6 4 -6 6 -6 20 0 14 0 16 6 20 4 4
7 5 18 5 11 0 14 -1 18 -5z m602 -54 c9 -7 14 -16 14 -28 0 -13 -3 -17 -19
-33 -19 -19 -20 -21 -19 -81 l0 -48 6 -13 c5 -9 10 -16 16 -21 13 -10 17 -18
17 -31 0 -11 -1 -12 -21 -29 -16 -14 -19 -23 -19 -61 0 -29 2 -48 6 -48 1 0 3
-2 5 -4 6 -5 22 -9 36 -8 15 0 21 -5 21 -20 0 -15 -6 -20 -21 -20 -14 1 -30
-3 -36 -8 -2 -2 -4 -4 -5 -4 -5 0 -6 -20 -6 -147 0 -79 -1 -133 -2 -136 -1 -3
-3 -6 -5 -8 -4 -4 -4 -4 -8 0 -11 11 -26 15 -48 10 -14 -3 -17 -1 -18 17 -2
27 -5 32 -28 51 -11 9 -22 18 -25 21 -12 11 -20 15 -32 15 -6 0 -13 -1 -15 -3
-1 -1 -3 -2 -3 -1 -1 1 -22 -20 -48 -46 l-47 -46 -1 -12 c0 -9 0 -13 2 -13 1
0 2 -1 1 -2 -1 -2 7 -8 11 -9 2 0 4 -1 6 -2 2 -1 10 -2 24 -3 1 0 5 -3 8 -6 5
-5 6 -7 6 -18 0 -15 -6 -23 -19 -25 -10 -1 -26 5 -28 11 -2 6 -20 22 -33 28
-16 7 -19 9 -21 17 -4 11 -5 17 -5 40 0 38 4 51 21 59 10 6 15 10 17 16 3 8 3
29 -1 35 -1 3 -3 11 -4 18 0 7 -2 12 -3 13 -1 0 1 3 5 6 16 12 38 7 48 -12 16
-28 32 -35 62 -27 2 0 4 1 4 1 0 0 1 1 3 1 17 3 60 21 82 34 25 15 41 33 47
53 3 11 5 105 2 120 l-2 6 -17 0 c-15 -1 -18 0 -19 2 0 2 -1 1 -1 -2 0 -7 -9
-26 -14 -28 -2 -1 -8 -2 -13 -2 -18 0 -24 16 -14 38 2 6 6 17 9 25 6 18 10 23
20 22 4 -1 8 -2 10 -3 3 -1 15 -1 23 1 7 2 14 10 17 18 2 7 2 194 -1 282 l0
17 9 8 c4 4 12 10 17 12 4 2 12 7 16 12 5 4 9 7 10 6 1 0 1 0 1 2 0 3 9 -1 19
-9z m171 0 c6 -5 6 -18 0 -24 -6 -7 -19 -7 -25 -1 -9 8 -5 27 5 30 5 2 15 0
20 -5z m-526 -10 c3 -2 7 -6 9 -8 8 -7 21 -11 40 -13 23 -1 27 -4 27 -20 0
-10 0 -9 -19 -34 -6 -8 -9 -23 -5 -31 13 -29 13 -41 -2 -73 -4 -9 -6 -79 -2
-90 3 -9 15 -23 25 -27 3 -2 9 -6 11 -9 l4 -6 -4 -6 c-2 -3 -8 -7 -11 -9 -10
-4 -22 -18 -25 -27 -1 -4 -2 -20 -2 -40 l1 -33 -6 -6 c-6 -6 -7 -6 -19 -5 -15
0 -32 -5 -40 -13 -3 -2 -9 -8 -15 -12 -9 -9 -9 -9 -22 -9 -11 0 -13 1 -21 7
-11 9 -18 29 -18 52 0 18 -3 29 -11 44 -3 6 -5 11 -5 12 0 1 -2 4 -4 7 -6 7
-3 18 10 44 10 21 10 21 10 139 l-1 110 6 6 c5 4 8 6 12 5 7 -1 26 9 31 16 1
3 4 5 4 6 1 1 3 4 5 8 5 13 11 18 22 18 6 0 12 -1 15 -3z m169 -25 c11 -10 3
-28 -11 -28 -9 0 -16 6 -16 16 0 14 17 22 27 12z m624 -30 c8 -8 4 -51 -6 -62
-5 -6 -19 -5 -26 1 -5 5 -5 5 -2 12 2 4 3 9 3 11 0 3 1 11 3 19 5 22 16 30 28
19z m-1358 -15 c10 -10 1 -37 -11 -34 -4 1 -4 -1 -4 -20 0 -11 1 -19 1 -18 1
0 3 -1 5 -4 4 -5 4 -5 0 -10 -2 -3 -4 -5 -4 -4 0 1 -2 0 -5 -2 -4 -1 -10 -5
-16 -7 -17 -9 -19 -15 -19 -63 0 -48 2 -56 19 -70 20 -17 21 -18 21 -29 0 -13
-1 -15 -15 -26 l-12 -9 0 -15 0 -15 12 -9 c13 -10 15 -13 15 -21 0 -10 11 -36
19 -45 11 -12 13 -16 13 -29 0 -20 -7 -26 -28 -28 -18 -1 -33 -8 -36 -16 -3
-10 -4 -19 -1 -28 4 -14 4 -25 -2 -47 l-5 -20 0 -175 1 -176 -6 -6 c-6 -6 -7
-6 -26 -5 -22 0 -36 -3 -47 -11 -19 -13 -22 -15 -32 -18 -40 -11 -47 -12 -57
-8 -16 7 -39 28 -39 36 -1 18 5 28 18 30 19 2 37 11 45 23 2 3 6 7 9 9 10 6
26 3 26 -5 0 -2 1 -2 2 -1 0 2 5 3 10 3 14 1 20 4 24 12 4 8 4 12 3 141 0 123
0 135 -4 140 -5 10 -11 16 -28 25 -18 11 -24 17 -30 29 -9 17 -6 38 5 44 3 1
10 3 15 4 20 2 37 14 41 28 2 8 2 348 -1 377 -1 14 -1 14 5 19 l7 5 26 -1 c14
-1 30 -2 35 -2 10 -1 17 3 20 11 2 6 2 14 -1 16 -3 1 -3 3 1 15 3 11 8 15 19
15 5 0 9 -1 12 -5z m230 -19 c9 -4 22 -10 29 -12 15 -5 20 -10 20 -20 0 -9 -7
-18 -13 -18 -8 0 -14 -2 -20 -4 -3 -2 -7 -3 -8 -3 -4 0 -15 -12 -17 -19 -3
-10 -3 -54 0 -65 4 -10 14 -20 30 -29 12 -5 15 -8 21 -18 10 -15 18 -22 34
-31 18 -9 21 -19 14 -44 -3 -13 -4 -39 -2 -46 2 -6 -2 -21 -7 -26 -6 -7 -24
-11 -34 -6 -17 7 -22 23 -13 44 2 7 6 18 7 26 3 14 2 15 -3 27 -3 7 -6 12 -7
12 -1 0 -2 1 -2 3 0 1 -4 2 -14 2 -12 -1 -15 -1 -18 -5 -8 -11 -8 -17 -8 -128
1 -98 1 -108 5 -113 4 -9 11 -16 22 -23 9 -6 18 -15 22 -22 5 -9 20 -20 29
-20 2 0 6 -3 9 -6 l5 -6 0 -28 c0 -16 -1 -33 -1 -37 0 -6 -1 -10 -5 -13 l-6
-6 -58 0 -59 -1 -6 6 c-3 4 -6 8 -5 9 3 10 -8 26 -20 30 -18 5 -19 6 -23 3 -4
-3 -17 -3 -25 0 -20 9 -20 45 0 54 8 3 21 3 25 0 4 -3 5 -2 23 3 30 10 24 45
-11 63 -7 3 -17 11 -25 19 -12 13 -24 20 -37 23 -11 3 -15 8 -15 20 0 14 6 19
19 19 10 0 17 -4 22 -12 2 -3 8 -9 13 -13 13 -10 24 -10 37 -2 17 13 16 1 17
181 l1 159 5 8 c3 4 5 6 6 6 1 -2 11 4 15 8 5 7 7 28 4 40 -3 8 -3 9 0 14 5 7
8 6 28 -3z m-399 -5 c6 -6 5 -23 -1 -29 -6 -6 -22 -6 -28 1 -7 6 -7 21 -1 28
7 8 23 8 30 0z m1456 -35 l7 -3 -5 -19 c-5 -14 -7 -24 -7 -39 -1 -26 -7 -41
-17 -40 -7 1 -17 6 -24 14 -7 8 -6 21 3 36 7 11 17 36 17 43 0 5 8 12 14 12 3
0 8 -2 12 -4z m114 -80 c5 -5 5 -11 0 -16 -10 -10 -27 5 -16 16 4 4 12 4 16 0z
m-116 -51 c1 -2 3 -5 4 -6 2 -1 1 -3 -2 -6 l-5 -5 -4 4 c-4 4 -4 4 -1 11 3 8
5 9 8 2z m30 -58 c9 -5 12 -11 12 -24 0 -10 -1 -12 -6 -17 -6 -6 -7 -6 -18 -6
-11 0 -12 0 -18 6 -5 5 -6 7 -6 18 0 12 0 13 8 20 9 9 16 9 28 3z m-1535 -28
c12 -7 14 -33 3 -43 -8 -9 -32 -9 -40 0 -9 8 -9 32 0 41 7 7 27 8 37 2z m628
-6 c4 -3 5 -5 4 -10 -3 -18 -29 -17 -29 1 0 13 14 18 25 9z m682 -91 c5 -4 5
-5 5 -21 0 -16 0 -17 -5 -21 -8 -6 -29 -6 -36 1 -6 4 -6 6 -6 20 0 14 0 16 6
20 7 7 28 7 36 1z m325 -4 c5 -5 6 -7 6 -17 0 -16 -7 -23 -23 -23 -10 0 -12 1
-17 6 -5 5 -6 7 -6 17 0 16 7 23 23 23 10 0 12 -1 17 -6z m-998 -2 c1 0 5 -3
8 -6 5 -5 6 -7 6 -18 0 -11 -1 -13 -6 -18 -6 -6 -7 -6 -18 -6 -11 0 -12 0 -18
6 -5 5 -6 7 -6 17 0 14 3 20 12 24 5 2 8 2 22 1z m273 -7 c8 -5 15 -16 16 -29
1 -10 1 -11 -3 -15 -8 -7 -15 -9 -28 -8 -25 1 -32 10 -30 36 0 8 8 16 16 18 3
1 6 2 7 2 3 1 16 -1 22 -4z m618 -79 c5 -5 6 -7 6 -16 0 -15 -8 -23 -23 -23
-9 0 -11 1 -16 7 -9 8 -9 23 -1 32 9 9 24 9 34 0z m-957 -5 c3 -3 4 -7 4 -14
0 -13 -6 -19 -19 -19 -13 0 -19 6 -19 19 0 7 1 11 4 14 7 8 23 8 30 0z m727
-56 c6 -4 6 -6 6 -20 0 -14 0 -16 -6 -20 -4 -4 -7 -5 -18 -5 -11 0 -14 1 -18
5 -6 4 -6 6 -6 20 0 14 0 16 6 20 4 4 7 5 18 5 11 0 14 -1 18 -5z m-606 -86
c3 -3 3 -3 0 -6 -4 -5 -11 1 -7 6 4 4 4 4 7 0z m-6 -71 c5 -5 6 -7 6 -16 0
-15 -8 -23 -23 -23 -9 0 -11 1 -16 7 -9 8 -9 23 -1 32 9 9 24 9 34 0z m143
-99 c3 -4 5 -8 5 -11 0 -3 -1 -20 -2 -38 -1 -18 -2 -35 -2 -38 0 -3 -1 -23 -2
-45 -2 -43 -1 -47 9 -56 5 -4 27 -11 30 -9 5 3 17 0 23 -6 8 -8 8 -24 0 -32
-6 -6 -8 -6 -16 -6 -22 1 -33 0 -36 -2 -2 -1 -3 -2 -3 -1 0 3 -11 -8 -13 -14
-2 -4 -3 -13 -4 -19 -2 -19 -9 -90 -10 -97 0 -3 -1 -10 -2 -16 -1 -5 -2 -12
-2 -15 -7 -37 -9 -52 -11 -59 -4 -15 9 -44 22 -48 7 -2 12 -14 12 -25 0 -22
-16 -27 -46 -17 -16 6 -31 7 -50 4 -12 -2 -82 -2 -90 0 -7 1 -17 10 -14 12 3
2 36 70 36 73 0 2 1 4 2 5 4 4 24 61 27 76 1 6 6 18 8 21 1 1 3 6 4 11 16 59
17 60 15 70 -2 11 -6 23 -9 27 -1 1 -1 2 0 2 0 0 0 3 -2 7 -1 3 -2 7 -2 9 0 2
1 5 1 7 0 3 6 11 15 19 18 18 23 30 28 58 2 12 4 24 4 27 1 3 2 6 2 7 1 1 1 8
1 15 0 14 -3 25 -15 42 -7 10 -8 16 -7 28 0 8 21 27 35 33 10 5 15 6 33 6 21
0 21 0 26 -5z m791 -57 c10 -9 3 -26 -10 -26 -8 0 -15 7 -15 15 0 13 16 20 25
11z m-637 -8 c8 -8 3 -22 -15 -40 -10 -11 -2 -45 10 -47 5 -1 10 -15 6 -18 -7
-7 -21 2 -19 12 0 0 -1 1 -1 1 -5 -2 -29 10 -36 17 -9 7 -7 18 5 32 6 7 13 13
14 15 2 1 4 3 4 5 0 4 10 21 14 25 4 3 13 3 18 -2z m-716 -155 c4 -2 9 -3 13
-3 19 2 29 -19 11 -26 -9 -4 -15 -3 -32 2 -20 6 -27 17 -18 28 4 5 15 5 26 -1z
m377 -105 c11 -1 19 -20 15 -34 -3 -9 -9 -13 -24 -16 -6 -1 -19 -4 -28 -7 -34
-11 -48 -4 -46 21 0 10 7 15 31 24 12 4 25 9 29 10 7 3 11 3 23 2z m930 -50
c17 -4 25 -20 19 -37 -4 -12 -21 -19 -36 -15 -11 2 -16 7 -18 18 -4 17 3 31
16 34 10 2 9 2 19 0z m-1580 -15 c3 -3 3 -3 0 -6 -4 -5 -11 1 -7 6 4 4 4 4 7
0z m1509 -135 c5 -6 5 -12 0 -18 -7 -8 -22 -2 -22 9 0 11 15 17 22 9z m-1001
-105 c5 -8 1 -16 -8 -16 -9 0 -13 8 -8 16 2 3 5 5 8 5 3 0 6 -2 8 -5z m1032
-1 c4 0 3 -15 -3 -29 -5 -15 -14 -23 -22 -22 -3 0 -7 1 -10 1 -2 0 -7 3 -10 6
-8 8 -9 25 -1 33 5 6 29 13 38 12 3 -1 7 -1 8 -1z"/>
</g>
</svg>
