<?xml version="1.0" standalone="no"?>
<!DOCTYPE svg PUBLIC "-//W3C//DTD SVG 20010904//EN"
 "http://www.w3.org/TR/2001/REC-SVG-20010904/DTD/svg10.dtd">
<svg version="1.0" xmlns="http://www.w3.org/2000/svg"
 width="1108.000000pt" height="2870.000000pt" viewBox="0 0 1108.000000 2870.000000"
 preserveAspectRatio="xMidYMid meet">
<metadata>
Created by potrace 1.15, written by Peter Selinger 2001-2017
</metadata>
<g transform="translate(0.000000,2870.000000) scale(0.500000,-0.500000)"
fill="#000000" stroke="none">
<path d="M1625 3853 c-3 -2 -8 -4 -10 -6 -32 -19 -46 -27 -95 -51 -40 -20 -68
-33 -84 -40 -6 -3 -20 -9 -31 -15 -19 -9 -20 -11 -29 -23 -5 -8 -10 -14 -11
-14 -1 0 -4 -1 -5 -3 -2 -2 -5 -3 -15 -1 -24 2 -37 1 -51 -5 -19 -9 -25 -15
-35 -36 -5 -10 -10 -20 -12 -22 -6 -5 -23 -4 -38 3 -21 10 -30 10 -56 1 -16
-6 -24 -7 -35 -7 -14 0 -17 1 -52 15 -33 13 -126 49 -157 61 -14 6 -28 11 -31
12 -3 2 -5 3 -6 3 -1 -1 -5 -1 -10 -2 -10 -1 -14 -3 -19 -9 -9 -10 -9 -11 -9
-185 l0 -166 -6 -8 c-4 -5 -6 -6 -6 -4 0 1 -4 5 -8 7 -11 6 -34 5 -43 -1 -7
-4 -26 -5 -33 -1 -8 4 -10 11 -11 32 0 14 -1 21 -2 21 -2 1 -2 2 -2 4 3 7 -13
11 -43 11 -2 0 -6 2 -9 5 -4 4 -5 7 -5 20 0 28 -7 37 -27 35 -10 -2 -12 -3
-19 -10 -13 -14 -44 -47 -56 -60 -6 -6 -15 -16 -20 -22 -17 -19 -44 -26 -54
-14 -4 4 -5 6 -4 9 3 7 42 206 43 219 3 29 -7 46 -33 55 -8 3 -17 5 -21 5 -3
0 -9 2 -13 5 -4 3 -12 6 -17 8 -9 3 -12 4 -23 6 -3 1 -7 3 -10 6 l-4 4 5 4 c3
4 8 5 13 5 11 0 27 4 37 8 5 3 12 4 19 4 13 0 12 0 27 -17 12 -12 34 -19 45
-14 3 2 11 6 19 9 27 13 58 52 57 74 0 15 -13 32 -29 35 -2 0 -68 12 -147 26
l-143 25 -11 -3 c-20 -6 -27 -17 -31 -51 -4 -32 -4 -39 2 -57 7 -23 6 -31 -4
-43 -3 -3 -7 -11 -10 -16 -5 -11 -5 -14 -9 -42 -1 -8 -2 -17 -3 -20 0 -3 -1
-9 -2 -13 -1 -10 -17 -108 -18 -115 -2 -11 -7 -39 -8 -45 0 -3 -2 -17 -5 -30
-2 -13 -4 -27 -4 -30 -1 -4 -3 -8 -7 -11 l-6 -6 -69 0 c-85 -1 -86 -1 -93 -28
-2 -10 -2 -11 6 -36 12 -37 19 -47 36 -55 10 -5 13 -5 52 -5 l41 0 6 -6 c3 -3
6 -6 5 -6 -3 -3 -16 -80 -15 -87 0 -4 4 -15 9 -24 14 -25 12 -34 -7 -46 -21
-15 -25 -23 -37 -76 -5 -23 -11 -49 -13 -58 -4 -16 -10 -41 -11 -47 0 -2 -5
-20 -10 -40 -5 -20 -10 -38 -10 -40 0 -2 -5 -18 -10 -37 -5 -19 -10 -35 -10
-37 0 -2 -3 -11 -6 -20 -6 -19 -6 -24 -2 -37 4 -14 10 -19 43 -43 16 -11 29
-21 30 -22 1 -1 7 -6 14 -11 7 -5 14 -11 15 -12 1 -1 6 -5 10 -8 7 -6 11 -9
34 -28 17 -15 18 -15 43 -19 12 -3 36 -1 57 3 23 5 35 0 39 -17 3 -13 0 -23
-11 -33 -11 -11 -13 -16 -13 -30 0 -10 1 -12 9 -21 8 -9 9 -12 12 -27 5 -33 9
-38 37 -53 17 -9 22 -18 15 -26 -4 -5 -11 -5 -50 -1 -26 3 -37 -5 -54 -38 -6
-12 -15 -28 -20 -36 -4 -8 -10 -17 -12 -21 -16 -27 -46 -73 -71 -106 -7 -10
-15 -20 -17 -23 -2 -3 -5 -6 -6 -8 -1 -1 -7 -8 -12 -15 -6 -7 -11 -14 -13 -16
-15 -17 -19 -23 -25 -49 -3 -10 -6 -20 -7 -22 -1 -1 -8 -5 -16 -7 -22 -6 -31
-11 -41 -20 -12 -11 -15 -17 -15 -30 0 -13 3 -19 12 -27 17 -16 37 -18 57 -6
4 3 11 8 15 10 4 2 23 15 43 28 19 13 36 24 37 25 1 1 2 3 3 5 0 2 1 5 2 7 0
2 2 6 3 11 3 8 8 13 19 14 26 3 26 3 71 43 48 42 133 134 165 176 5 8 12 11
19 10 6 -1 12 -8 33 -50 21 -39 37 -52 80 -66 18 -6 58 -7 76 -3 19 5 20 5 23
4 6 -2 5 -12 -1 -23 -19 -37 -44 -82 -63 -111 -21 -33 -25 -40 -28 -46 -7 -12
-4 -31 7 -43 10 -11 33 -15 45 -9 5 3 29 18 33 21 1 1 9 7 17 13 8 6 16 12 18
14 2 1 9 7 17 13 24 19 47 40 79 72 27 27 36 37 58 62 2 3 5 7 7 9 2 3 6 7 9
11 3 4 6 8 7 9 5 5 37 51 47 67 6 9 14 23 18 30 10 16 47 88 54 105 3 7 5 13
6 14 1 1 3 6 4 10 1 4 3 9 4 10 1 1 3 6 5 11 1 5 5 15 8 23 3 8 6 17 7 20 1 3
2 8 4 11 3 9 20 67 23 80 0 3 3 12 5 21 3 15 11 50 13 65 1 4 2 7 2 8 1 1 1
14 1 27 0 31 3 45 14 69 11 23 11 23 15 22 22 -3 27 -3 30 -1 3 3 4 2 8 -1 l4
-4 -4 -15 c-2 -7 -5 -15 -6 -16 0 -2 -1 -11 -2 -20 -1 -25 -2 -28 -17 -39 -10
-7 -17 -16 -21 -24 -4 -6 -4 -15 -5 -83 0 -75 0 -82 7 -98 5 -13 21 -45 23
-46 1 -1 1 -2 0 -5 -1 -2 -1 -4 -1 -4 1 -1 0 -1 -2 -2 -2 0 -4 0 -6 0 -2 -1
-3 -1 -3 -2 0 -1 -2 -2 -4 -3 -4 -1 -6 -6 -11 -22 -5 -13 -4 -382 0 -392 4 -9
14 -21 18 -21 2 0 3 -1 3 -2 0 -2 0 -1 20 -3 67 -6 171 31 215 74 24 24 32 59
18 82 -4 7 -9 11 -21 18 -20 12 -22 15 -22 29 0 9 1 11 6 16 9 9 21 8 46 -3
l19 -10 85 0 85 0 6 -6 6 -6 -1 -63 c0 -54 0 -64 3 -71 4 -9 14 -21 18 -21 2
0 3 -1 3 -2 0 -4 72 -4 80 1 1 1 5 1 9 2 30 5 92 29 117 45 4 3 9 6 10 6 0 0
6 6 13 13 13 13 20 25 23 39 3 13 3 156 0 168 -2 7 -6 12 -19 26 -10 9 -17 18
-17 20 -1 5 -1 11 0 16 0 2 7 11 17 20 13 14 17 19 19 26 1 7 2 58 2 191 l0
180 5 6 c3 3 5 7 5 8 0 0 1 1 3 1 3 0 26 12 27 14 0 1 2 2 3 2 2 0 3 1 3 2 0
1 1 2 2 2 4 0 31 26 39 37 5 8 6 17 3 29 -2 7 -6 12 -21 23 -4 3 -8 6 -9 7 -1
1 -15 12 -33 25 -18 13 -33 25 -35 27 -1 1 -6 5 -11 7 -4 3 -8 6 -9 7 -1 0 -4
3 -8 5 -10 5 -27 19 -40 31 -6 6 -13 12 -16 14 -4 1 -6 4 -6 4 0 1 -1 2 -3 2
-1 0 -3 1 -3 2 -1 1 -27 22 -40 30 -5 3 -10 5 -18 5 -17 0 -21 -4 -49 -34 -15
-17 -39 -43 -49 -54 -7 -7 -12 -13 -12 -13 0 -1 -1 -2 -2 -2 -2 0 -4 -1 -6 -3
-7 -6 -22 -7 -80 -7 -68 0 -73 -1 -88 -16 -6 -5 -10 -10 -10 -11 0 -4 -12 -9
-19 -9 -5 0 -8 1 -13 7 -3 5 -6 9 -6 10 0 2 -1 3 -1 3 -1 1 -4 4 -6 9 -4 8
-10 13 -21 17 -10 3 -26 5 -26 2 0 -1 -2 -1 -3 -1 -6 2 -11 7 -10 9 1 1 0 3
-2 5 -2 1 -3 4 -3 4 0 1 -6 5 -14 8 -14 5 -17 5 -34 4 -10 0 -21 -1 -23 -2 -3
-1 -6 1 -12 7 -24 25 -27 28 -44 35 -10 4 -18 7 -19 7 -1 0 -4 1 -7 2 -5 3
-17 3 -19 -1 -2 -1 -2 -1 -2 1 0 1 -2 5 -4 8 -5 6 -5 9 -6 54 l-1 47 6 6 6 6
117 -1 c77 0 119 1 124 2 15 4 25 22 24 43 0 12 6 19 18 19 12 0 18 -7 18 -19
-1 -21 9 -39 24 -43 5 -2 83 -2 245 -2 l238 1 11 5 c16 6 25 16 32 35 7 18 9
36 4 49 -3 11 -28 33 -89 81 -16 13 -33 26 -37 29 -3 3 -8 6 -10 7 -2 1 -4 3
-5 4 -1 1 -10 7 -18 14 -9 7 -16 12 -17 13 -1 1 -8 6 -16 13 -8 7 -22 19 -31
27 -15 15 -15 15 -27 16 -15 1 -23 -3 -29 -13 -3 -3 -21 -29 -41 -57 -20 -28
-38 -55 -41 -59 -3 -4 -7 -9 -9 -11 -2 -2 -5 -7 -8 -12 -6 -9 -16 -15 -32 -18
-5 -1 -12 -3 -14 -4 -10 -5 -17 -21 -16 -39 0 -11 -5 -17 -14 -17 -9 0 -14 6
-14 17 1 21 -8 37 -22 41 -5 2 -64 2 -186 2 l-179 -1 -6 6 -6 6 0 132 0 132 6
6 6 6 42 0 c70 0 85 1 96 4 l11 3 -1 17 c0 10 1 17 2 18 1 0 0 1 -2 1 -5 0
-20 10 -25 15 -3 4 -4 9 -4 18 0 11 1 12 7 18 12 12 30 7 52 -13 12 -11 15
-18 17 -32 3 -26 7 -33 19 -38 5 -2 13 -4 18 -4 25 0 211 17 223 20 7 2 13 4
17 4 1 0 0 1 -1 3 -3 3 -3 3 2 1 2 -1 4 -1 4 0 0 1 1 2 2 2 1 0 2 -1 1 -2 -3
-5 53 1 115 12 27 5 46 5 75 -3 21 -6 51 -7 62 -3 3 1 5 2 5 1 0 -2 27 10 30
12 1 2 2 10 2 19 0 17 1 15 -15 22 -5 2 -30 4 -60 4 -9 0 -15 8 -15 19 0 12 2
15 13 22 13 8 17 14 15 29 l0 12 -15 14 c-8 8 -23 22 -33 32 -11 11 -36 35
-57 55 -21 20 -45 44 -54 53 -10 9 -20 18 -24 19 -9 4 -26 4 -34 0z m-23 -143
c5 -5 5 -11 0 -16 -10 -10 -27 5 -16 16 4 4 12 4 16 0z m13 -112 c6 -6 7 -19
1 -25 -5 -6 -17 -7 -25 -1 -7 6 -7 18 -1 25 6 7 19 7 25 1z m-608 -122 c4 -6
4 -24 -1 -30 -7 -9 -27 -9 -34 0 -5 6 -5 24 0 30 7 9 27 9 35 0z m15 -88 c5
-5 5 -15 0 -20 -9 -9 -24 -2 -24 10 0 8 6 14 14 14 3 0 8 -2 10 -4z m-102 -46
c1 0 5 -3 8 -6 5 -5 6 -7 6 -18 0 -11 -1 -13 -6 -18 -6 -6 -7 -6 -18 -6 -11 0
-12 0 -18 6 -5 5 -6 7 -6 17 0 14 3 20 12 24 5 2 8 2 22 1z m-336 -38 c5 -4 6
-5 12 -31 3 -12 6 -21 12 -30 15 -24 11 -46 -10 -51 -20 -5 -34 5 -34 23 0 5
-1 11 -2 13 -1 2 -2 2 -2 1 0 -2 -5 -3 -18 -3 -21 0 -19 2 -22 -33 -1 -14 -3
-38 -5 -52 -3 -29 -2 -37 7 -60 10 -22 8 -38 -5 -53 -10 -11 -13 -14 -15 -20
-1 -4 -3 -8 -4 -10 -1 -2 -3 -10 -4 -18 -3 -19 -3 -22 -7 -43 -2 -10 -4 -21
-4 -24 -2 -11 -19 -98 -21 -106 -1 -4 -2 -20 -2 -35 0 -29 0 -28 -16 -59 -15
-27 -16 -45 -3 -71 13 -26 8 -42 -13 -42 -13 0 -20 6 -20 17 0 11 -4 27 -10
37 -6 10 -17 16 -54 30 -14 6 -16 7 -19 16 -3 6 -2 9 7 43 11 39 27 103 29
110 0 2 4 16 8 31 4 14 9 34 11 43 2 9 5 21 7 27 2 9 10 40 12 51 0 1 1 5 2 8
1 3 3 13 5 21 2 8 4 17 5 20 0 3 4 18 8 35 4 16 8 33 9 38 1 4 4 18 7 31 3 13
8 36 12 52 8 37 9 38 39 38 11 0 22 1 24 2 3 1 4 1 4 0 0 -1 1 -2 2 -2 2 0 4
-1 6 -3 4 -3 4 -3 10 3 5 5 6 8 6 15 -1 8 3 24 9 35 5 11 26 14 37 6z m-401
-3 c3 -3 3 -3 0 -6 -4 -5 -11 1 -7 6 4 4 4 4 7 0z m651 -207 c0 -59 1 -109 1
-109 4 -15 7 -21 19 -33 13 -13 14 -14 14 -23 0 -9 -1 -10 -14 -23 -8 -8 -14
-16 -14 -17 0 -2 -1 -3 -2 -3 -2 0 -6 -19 -6 -34 -1 -30 16 -60 41 -77 18 -12
23 -21 15 -29 -2 -2 -5 -3 -10 -2 -12 1 -34 0 -37 -2 -2 -1 -3 -2 -3 -1 0 3
-7 -8 -10 -14 -1 -3 -2 -14 -3 -24 -2 -27 -7 -83 -9 -105 -3 -27 -3 -34 1 -42
4 -8 11 -16 15 -16 1 0 2 -1 2 -2 0 -1 4 -3 10 -5 20 -7 22 -15 13 -43 -2 -9
-5 -21 -6 -26 -2 -14 -5 -27 -8 -30 -1 -2 -12 -8 -23 -14 -13 -6 -24 -13 -26
-16 -2 -3 -5 -6 -6 -7 -1 -1 -3 -8 -6 -15 -6 -20 -13 -23 -20 -10 -13 27 -29
52 -48 75 -19 22 -31 35 -66 66 -9 8 -10 19 -6 34 5 15 5 23 0 41 -8 27 -5 36
12 47 7 4 15 9 17 11 2 2 4 4 5 4 3 0 16 22 20 33 13 38 39 128 46 162 1 6 3
11 3 13 9 35 27 122 32 153 0 3 2 17 5 30 2 13 4 29 5 35 1 6 2 13 2 15 1 5
12 86 14 98 1 10 7 20 15 23 4 1 6 1 11 -4 l5 -6 0 -108z m133 66 c7 -6 7 -19
1 -25 -6 -7 -19 -7 -25 -1 -7 6 -7 19 -1 25 6 7 19 7 25 1z m-305 -23 c21 -9
20 -45 -2 -54 -10 -5 -28 -1 -34 6 -9 10 -9 32 0 42 7 8 24 11 36 6z m-378
-144 l-5 -5 -4 4 -5 5 4 4 5 5 4 -4 5 -5 -4 -4z m334 -61 c0 -14 -6 -39 -11
-43 -5 -7 -17 -7 -23 0 -8 8 -3 30 11 49 11 13 23 10 23 -6z m-379 -15 c4 -4
5 -7 5 -15 0 -14 -6 -20 -20 -20 -14 0 -20 6 -20 20 0 14 6 20 20 20 8 0 11
-1 15 -5z m842 2 c1 -4 18 -4 20 0 0 1 1 -3 1 -10 0 -8 -1 -11 -2 -9 -2 4 -16
5 -19 1 -5 -6 -19 0 -19 9 0 9 16 16 19 9z m649 -15 c5 -5 5 -15 0 -20 -9 -9
-24 -2 -24 10 0 8 6 14 14 14 3 0 8 -2 10 -4z m-503 -28 c10 -14 8 -34 -3 -43
-11 -8 -35 -4 -43 7 -5 6 -8 19 -5 27 3 9 8 12 25 17 16 4 19 3 26 -8z m95
-10 c4 -6 5 -10 5 -23 0 -14 0 -16 -6 -20 -4 -4 -7 -5 -18 -5 -18 0 -24 6 -26
25 0 4 4 16 7 19 1 2 8 6 14 7 6 2 12 4 13 5 3 3 7 0 11 -8z m-307 1 c4 -4 5
-7 5 -15 0 -14 -6 -20 -20 -20 -14 0 -20 6 -20 20 0 14 6 20 20 20 8 0 11 -1
15 -5z m35 -97 c5 -6 5 -12 0 -18 -7 -8 -22 -2 -22 9 0 11 15 17 22 9z m543
-21 l6 -6 0 -246 0 -246 -6 -6 -6 -6 -47 1 -47 0 -10 -5 c-10 -5 -12 -7 -17
-18 -3 -7 -7 -15 -7 -18 -2 -12 -4 -15 -8 -18 -6 -6 -13 -9 -22 -8 -20 1 -25
7 -30 36 -1 4 -2 126 -3 271 l-1 263 6 6 6 6 90 0 90 0 6 -6z m198 -40 c5 -8
1 -16 -8 -16 -9 0 -13 8 -8 16 2 3 5 5 8 5 3 0 6 -2 8 -5z m-787 -109 c15 -4
22 -11 22 -21 0 -18 -16 -22 -42 -10 -21 10 -29 22 -20 31 4 4 25 4 40 0z
m728 -104 c1 0 5 -3 8 -6 5 -5 6 -7 6 -18 0 -11 -1 -13 -6 -18 -6 -6 -7 -6
-18 -6 -11 0 -12 0 -18 6 -5 5 -6 7 -6 17 0 14 3 20 12 24 5 2 8 2 22 1z
m-534 -135 c3 -3 4 -7 4 -14 0 -13 -6 -19 -19 -19 -10 0 -10 -1 -21 14 -4 5
-11 16 -10 17 1 0 8 2 16 4 17 5 24 4 30 -2z m-542 -59 c1 0 5 -3 8 -6 5 -5 6
-7 6 -18 0 -11 -1 -13 -6 -18 -3 -3 -7 -6 -9 -6 -20 -1 -27 2 -32 13 -8 19 4
37 23 36 4 -1 8 -1 10 -1z m-81 -16 c5 -6 5 -20 0 -26 -5 -6 -18 -6 -24 0 -7
6 -7 19 -1 25 6 7 20 7 25 1z m1183 -34 c11 -13 -4 -27 -21 -20 -4 2 -5 4 -4
9 2 13 18 19 25 11z m-1383 -4 c7 -6 7 -19 1 -25 -6 -7 -19 -7 -25 -1 -7 6 -7
19 -1 25 6 7 19 7 25 1z m1331 -36 c2 -4 1 -5 -3 -3 -1 0 -2 -1 -3 -3 -1 -2
-2 -2 -5 1 -3 3 -3 3 0 7 4 4 7 4 11 -2z m-403 -7 c3 -5 3 -5 0 -10 -2 -3 -5
-5 -7 -5 -2 0 -5 2 -7 5 -3 5 -3 5 0 10 2 3 5 5 7 5 2 0 5 -2 7 -5z m-1100
-153 c7 -8 10 -22 6 -30 -4 -8 -7 -9 -16 -5 -13 6 -19 13 -19 22 0 11 6 17 17
17 6 0 9 -1 12 -4z m1036 -44 c10 -9 3 -26 -10 -26 -8 0 -15 7 -15 15 0 13 16
20 25 11z"/>
</g>
</svg>
