<?xml version="1.0" standalone="no"?>
<!DOCTYPE svg PUBLIC "-//W3C//DTD SVG 20010904//EN"
 "http://www.w3.org/TR/2001/REC-SVG-20010904/DTD/svg10.dtd">
<svg version="1.0" xmlns="http://www.w3.org/2000/svg"
 width="1109.000000pt" height="2870.000000pt" viewBox="0 0 1109.000000 2870.000000"
 preserveAspectRatio="xMidYMid meet">
<metadata>
Created by potrace 1.15, written by Peter Selinger 2001-2017
</metadata>
<g transform="translate(0.000000,2870.000000) scale(0.500000,-0.500000)"
fill="#000000" stroke="none">
<path d="M476 3840 c-26 -4 -32 -24 -16 -60 4 -10 5 -14 3 -16 -2 -2 -18 -11
-18 -10 0 2 -15 -7 -21 -13 -11 -10 -28 -47 -28 -60 0 -10 7 -22 19 -34 11
-10 11 -11 11 -21 0 -16 -5 -20 -26 -20 -20 1 -29 -1 -36 -5 -5 -4 -12 -10
-12 -12 0 -1 -4 -8 -8 -17 -9 -19 -10 -33 -5 -51 4 -13 4 -26 0 -31 -2 -2 -10
-6 -17 -9 -26 -9 -33 -15 -48 -42 -5 -10 -13 -24 -17 -31 -5 -7 -9 -14 -10
-16 0 -2 -3 -5 -5 -8 -1 -3 -6 -11 -10 -17 -9 -16 -66 -102 -80 -121 -21 -29
-56 -76 -61 -81 -1 -1 -5 -6 -8 -10 -3 -4 -9 -11 -13 -16 -8 -10 -9 -12 -14
-28 -5 -16 -10 -27 -17 -36 -4 -5 -5 -9 -5 -21 0 -13 0 -14 6 -18 11 -8 28
-10 39 -6 24 11 30 19 37 45 5 21 9 24 24 18 8 -3 26 -2 35 2 4 2 7 8 12 18 8
16 10 18 23 20 13 2 26 12 32 25 3 6 6 12 6 13 0 6 10 11 17 11 22 -3 24 -6
25 -57 1 -44 1 -41 20 -80 10 -20 16 -28 29 -35 15 -9 19 -14 19 -27 0 -16 -7
-23 -22 -23 -7 0 -14 -1 -18 -4 -4 -2 -8 -3 -9 -2 -1 0 -1 0 0 -1 0 -1 -1 -4
-4 -5 -4 -2 -5 -4 -5 -12 -1 -6 0 -10 1 -10 1 0 1 -1 0 -2 -1 -1 0 -2 1 -2 2
0 4 -1 6 -2 3 -4 6 -4 27 -4 17 0 18 0 23 -6 5 -5 6 -7 6 -17 0 -16 -5 -23
-16 -23 -2 0 -9 0 -17 0 -20 0 -31 -5 -37 -16 -4 -8 -4 -10 -4 -139 0 -115 0
-131 3 -138 4 -9 14 -21 18 -21 2 0 3 -1 3 -2 0 -4 18 -2 27 3 7 4 19 18 19
23 0 4 14 14 20 14 7 0 20 -6 24 -10 4 -4 18 -14 20 -14 2 0 4 -1 6 -2 5 -6
33 -3 56 5 12 4 22 8 23 9 1 1 3 2 5 2 2 0 10 7 10 10 0 0 1 6 1 12 1 11 1 12
-5 19 -4 5 -8 9 -9 9 0 1 -1 3 -2 6 0 2 -1 5 -2 6 0 0 1 2 4 4 4 4 7 4 23 3
24 -1 35 2 44 13 9 11 10 12 13 27 4 17 7 25 9 25 1 0 2 2 2 4 0 2 1 2 2 -1 5
-12 28 -20 47 -17 7 1 17 2 22 3 19 2 26 3 35 7 9 4 28 22 28 27 0 4 13 13 19
13 4 0 17 -5 19 -8 1 -1 5 -4 9 -7 12 -7 25 -10 36 -7 4 1 9 2 11 3 6 1 14 5
22 11 18 13 32 17 48 13 15 -4 28 -4 33 -1 3 1 12 4 20 6 19 5 29 10 36 18 5
6 13 29 13 39 0 8 9 16 19 18 11 1 18 -1 25 -9 16 -19 24 -24 40 -23 10 0 36
8 44 13 2 1 5 2 6 2 1 0 8 2 15 5 36 14 51 19 56 18 12 -2 19 -5 27 -14 13
-12 44 -40 51 -45 5 -4 8 -4 20 -4 l15 1 2 8 c1 4 3 14 4 22 2 10 3 15 7 18 4
4 28 13 36 13 3 0 4 2 3 7 0 0 1 1 2 1 0 0 1 3 1 8 1 9 4 30 6 34 2 6 11 10
22 11 22 2 36 7 53 20 9 7 9 7 24 7 17 -2 39 -9 48 -18 5 -5 6 -7 6 -17 0 -13
-6 -21 -15 -21 -12 -1 -24 0 -33 1 -5 1 -10 2 -11 2 -9 1 -31 -10 -42 -22 -7
-6 -45 -20 -45 -16 0 1 -1 1 -2 -1 -1 -1 -2 -2 -3 -1 -1 0 -2 -3 -2 -8 0 -4
-1 -16 -2 -25 -1 -16 -2 -17 -8 -23 -4 -4 -8 -7 -10 -7 -1 0 -4 -2 -7 -4 -3
-3 -4 -6 -5 -20 l0 -16 27 -18 c15 -9 35 -22 45 -28 10 -6 18 -11 19 -12 1 -1
11 -1 21 1 7 1 17 10 23 23 6 12 13 15 33 14 2 0 6 -3 9 -6 8 -7 8 -23 2 -36
-5 -10 -5 -36 0 -41 4 -4 46 -22 74 -31 48 -17 105 -28 141 -29 25 0 33 3 38
13 3 6 5 28 3 28 -1 0 -3 2 -5 4 -8 8 -34 18 -48 18 -16 0 -24 27 -11 40 5 5
7 6 16 6 12 0 15 -2 30 -15 10 -8 25 -14 41 -16 10 -1 18 -9 20 -19 2 -9 8
-21 13 -25 6 -4 22 -4 30 0 8 4 35 34 43 47 26 45 28 86 5 135 -5 11 -7 13
-16 17 -14 7 -17 11 -25 34 -4 11 -8 21 -10 23 -6 7 -10 20 -9 38 2 31 -5 45
-31 60 -10 6 -14 13 -14 27 0 15 3 20 14 24 3 1 8 3 10 4 2 1 7 3 10 4 12 4
26 20 28 30 3 16 6 42 6 58 0 27 -3 31 -22 32 -11 0 -14 -1 -18 -3 -3 -4 -16
-28 -31 -62 -2 -5 -6 -12 -8 -15 -2 -3 -5 -10 -8 -17 -7 -17 -13 -29 -18 -35
-3 -3 -8 -10 -12 -17 -4 -7 -8 -13 -9 -15 -1 -2 -4 -7 -6 -11 -24 -43 -46 -46
-114 -18 -26 11 -58 27 -89 43 -5 3 -12 8 -15 11 -6 6 -7 7 -5 13 1 4 4 9 7
12 3 3 8 12 12 21 10 20 11 22 31 24 40 6 56 23 61 66 2 17 8 21 31 22 28 1
36 5 57 27 8 8 18 11 39 14 22 3 25 4 59 35 l15 14 0 10 c-1 20 -7 26 -35 40
-21 11 -34 19 -46 28 -5 4 -12 8 -14 9 -2 1 -8 4 -12 7 -4 3 -9 6 -11 6 -2 1
-10 6 -18 11 -9 6 -17 10 -18 10 -6 0 2 8 10 11 7 2 8 3 32 4 27 1 50 5 61 8
16 5 38 7 69 7 l31 -1 12 6 c16 8 18 12 18 40 0 12 1 23 2 24 5 9 2 43 -3 43
-1 0 -9 5 -17 10 -9 6 -16 10 -16 10 -1 0 -7 4 -15 9 -7 5 -14 9 -15 9 0 0 -6
3 -13 8 -7 4 -35 20 -62 35 -54 30 -56 30 -76 24 -5 -2 -16 -8 -23 -14 -8 -6
-16 -11 -20 -12 -44 -6 -49 -8 -62 -26 -10 -13 -25 -17 -35 -7 -8 8 -24 9 -40
0 -33 -17 -43 -26 -51 -43 -3 -6 -6 -13 -8 -14 -4 -4 -13 -4 -17 1 -4 5 -5 15
-2 17 3 2 7 28 5 38 -4 35 -3 41 7 46 3 2 10 5 16 8 13 6 27 16 25 19 -1 2 14
14 17 14 1 0 4 -1 5 -3 2 -1 4 -3 5 -3 1 -1 2 -4 2 -7 -1 -13 0 -15 3 -18 8
-8 60 6 63 17 0 2 1 4 2 4 1 0 3 5 4 11 2 9 2 11 -3 21 -12 27 -38 58 -65 75
-17 11 -37 15 -58 14 -29 -2 -41 -2 -58 -1 -24 3 -31 5 -37 11 -3 3 -7 4 -18
4 -13 0 -15 -1 -25 -8 -18 -11 -22 -10 -36 8 -5 7 -12 13 -14 14 -3 1 -9 5
-14 10 -4 5 -10 9 -11 9 -2 0 -3 1 -2 2 0 2 -5 5 -11 8 -11 6 -13 6 -77 11
l-67 5 -12 -4 c-32 -11 -60 -33 -70 -57 -6 -12 -11 -16 -26 -16 -13 0 -21 4
-24 13 -6 12 -10 22 -12 23 -1 1 -2 4 -3 7 -1 4 -3 6 -7 7 -3 1 -6 2 -7 3 -2
3 -13 2 -21 -2 -11 -6 -13 -8 -17 -18 -3 -8 -3 -13 -2 -48 1 -21 2 -39 2 -40
0 -1 1 -13 2 -28 1 -15 2 -31 2 -37 3 -34 5 -53 7 -59 3 -11 4 -17 5 -36 3
-38 4 -48 7 -63 2 -7 1 -9 -4 -13 -5 -6 -2 -5 -57 -9 -41 -3 -75 -5 -82 -6 -4
-1 -14 -1 -22 -1 -32 -1 -44 -15 -43 -50 0 -12 -2 -18 -12 -32 -3 -5 -4 -9 -4
-17 0 -14 1 -16 13 -22 9 -5 11 -5 30 -4 11 1 27 2 36 2 9 1 21 1 28 2 7 0 19
1 28 2 9 1 23 2 31 2 83 6 77 6 84 0 4 -3 7 -6 7 -8 1 -6 18 -64 27 -90 17
-51 27 -61 64 -68 19 -4 24 -8 24 -22 1 -11 -3 -21 -11 -30 -6 -7 -8 -12 -6
-25 2 -20 11 -24 49 -25 35 -1 40 -4 40 -26 0 -8 -1 -12 -10 -32 -2 -4 -5 -13
-7 -20 -6 -20 -9 -21 -35 -21 -6 0 -12 0 -16 -2 -1 0 -1 0 -2 0 -4 0 -1 -26 6
-48 8 -23 4 -35 -12 -37 -13 -1 -34 13 -45 29 -3 7 -4 23 -1 31 1 4 2 11 1 17
-2 14 -7 19 -21 21 -10 1 -6 3 -59 -26 -18 -10 -52 -28 -76 -40 -48 -24 -47
-23 -77 -36 -27 -11 -34 -19 -42 -41 -6 -16 -12 -17 -32 -8 -19 8 -25 8 -70
-9 -23 -8 -42 -16 -43 -18 -3 -4 -3 -4 -3 0 0 1 -1 3 -2 3 0 0 -3 3 -5 6 -3 5
-3 14 -3 90 0 92 0 89 -12 118 -7 18 -7 20 0 38 13 30 12 23 12 150 l0 117 5
8 c3 5 8 10 11 11 22 10 56 53 56 71 0 8 -5 19 -10 20 -2 1 -4 2 -4 3 0 2 -8
5 -13 4 -11 -1 -28 -16 -35 -31 -6 -12 -10 -15 -21 -15 -15 0 -20 6 -19 24 0
4 4 10 16 21 15 16 19 22 21 35 1 6 0 8 -4 14 -5 6 -6 6 -19 6 -12 0 -15 -1
-22 -5 -12 -8 -24 -7 -36 0 -7 5 -9 5 -21 4 -13 0 -14 -1 -21 -8 -4 -5 -8 -9
-9 -11 -1 -2 -6 -6 -11 -10 -5 -4 -14 -12 -20 -18 -17 -18 -21 -19 -41 -18 -2
0 -6 3 -9 6 -5 5 -6 7 -6 17 0 14 1 16 18 35 7 7 14 16 17 21 10 16 27 20 48
12 16 -7 32 -5 48 5 9 6 32 7 39 2 8 -8 31 -10 46 -5 5 1 16 3 24 3 31 2 41
11 41 36 0 17 -2 21 -19 40 -11 12 -13 21 -10 38 4 23 0 36 -14 42 -7 3 -10 3
-17 2 -11 -3 -16 -8 -26 -29 -10 -20 -12 -23 -25 -23 -20 0 -32 16 -30 41 0 3
8 12 18 22 25 26 33 46 26 64 -3 8 -14 19 -22 21 -8 3 -16 11 -16 17 0 2 -1 6
-3 8 -1 2 -6 11 -10 19 -6 10 -10 16 -17 21 -5 4 -9 7 -10 7 -1 0 -5 -1 -10
-2z m28 -94 c5 -5 5 -8 1 -14 -4 -5 -12 -5 -14 -1 0 2 -2 3 -4 3 -2 0 -3 1 -3
3 0 2 -1 3 -2 3 -2 0 0 3 4 6 7 7 11 7 18 0z m741 -36 c4 0 18 -14 34 -34 11
-14 22 -24 27 -24 1 0 2 -1 2 -2 0 -1 2 -2 4 -2 2 0 4 -1 5 -2 1 -1 6 -3 12
-5 17 -6 21 -17 14 -43 -5 -20 -5 -29 1 -53 8 -31 10 -37 13 -42 8 -11 -4 -18
-33 -20 -12 -1 -25 -2 -31 -2 -52 -4 -54 -4 -61 2 -3 3 -6 6 -5 6 0 1 0 4 -1
8 -2 8 -3 10 -9 57 -6 41 -11 58 -22 70 -13 13 -14 30 -5 48 10 22 34 42 47
39 2 -1 6 -1 8 -1z m106 -9 c3 -3 3 -3 0 -6 -4 -5 -11 1 -7 6 4 4 4 4 7 0z
m-287 -29 c1 0 5 -3 8 -6 5 -5 6 -7 6 -18 0 -11 -1 -13 -6 -18 -6 -6 -7 -6
-18 -6 -11 0 -12 0 -18 6 -5 5 -6 7 -6 17 0 14 3 20 12 24 5 2 8 2 22 1z m699
-182 c11 -10 3 -28 -11 -28 -9 0 -16 6 -16 16 0 14 17 22 27 12z m-124 -16
c11 -10 3 -28 -11 -28 -9 0 -16 6 -16 16 0 14 17 22 27 12z m-320 -43 c7 -3
10 -8 13 -24 5 -23 10 -31 25 -39 7 -5 10 -5 40 -5 29 0 33 0 37 -4 l5 -4 -9
-11 c-15 -16 -20 -26 -24 -46 -3 -11 -7 -23 -9 -29 -7 -14 -11 -27 -12 -39 -1
-6 -3 -14 -4 -19 -6 -15 -3 -33 6 -37 9 -4 26 -4 32 -1 10 6 24 5 31 -3 9 -8
9 -24 1 -32 -6 -5 -7 -6 -25 -7 -10 0 -26 -1 -34 -2 -16 -2 -22 0 -40 7 -17 7
-24 27 -15 41 2 3 4 10 4 19 1 15 3 13 -22 36 -11 9 -17 21 -41 72 -12 25 -19
32 -35 31 -12 0 -11 0 -35 -22 -21 -18 -25 -25 -32 -54 -3 -15 -13 -23 -29
-22 -16 1 -23 6 -27 20 -4 14 0 25 13 37 14 14 19 23 25 49 3 15 14 23 27 22
53 -4 56 -3 65 1 5 2 11 6 13 8 4 4 4 17 -2 34 l-4 13 4 5 c3 5 7 6 16 7 17 3
35 2 42 -2z m104 -2 c3 -3 3 -3 0 -6 -4 -5 -11 1 -7 6 4 4 4 4 7 0z m-372 -11
c4 -6 4 -24 -1 -30 -7 -9 -27 -9 -34 0 -5 6 -5 24 0 30 7 9 27 9 35 0z m573
-47 c4 -2 5 -4 4 -9 -1 -10 8 -33 24 -56 30 -43 15 -69 -27 -48 -14 7 -23 15
-27 21 -1 3 -3 14 -4 25 -1 12 -3 26 -5 32 -4 14 -4 26 0 32 6 8 23 9 35 3z
m-1246 0 c21 -9 20 -45 -2 -54 -10 -5 -28 -1 -34 6 -9 10 -9 32 0 42 7 8 24
11 36 6z m1151 -31 c16 -7 16 -43 -1 -50 -15 -6 -34 -2 -39 9 -4 8 -4 24 0 32
5 12 23 15 40 9z m-1058 -22 c7 -6 7 -19 1 -25 -6 -7 -19 -7 -25 -1 -7 6 -7
19 -1 25 6 7 19 7 25 1z m-202 -62 c10 -9 3 -26 -10 -26 -13 0 -19 16 -11 25
6 6 15 6 21 1z m137 -20 c1 0 5 -3 8 -6 5 -5 6 -7 6 -18 0 -11 -1 -13 -6 -18
-6 -6 -7 -6 -18 -6 -11 0 -12 0 -18 6 -5 5 -6 7 -6 17 0 14 3 20 12 24 5 2 8
2 22 1z m-203 -25 c3 -5 3 -5 0 -10 -2 -3 -5 -5 -7 -5 -2 0 -5 2 -7 5 -3 5 -3
5 0 10 2 3 5 5 7 5 2 0 5 -2 7 -5z m1063 -63 c5 -5 5 -11 0 -16 -10 -10 -27 5
-16 16 4 4 12 4 16 0z m-796 -18 c8 -10 4 -19 -15 -33 -6 -5 -12 -10 -13 -11
-3 -3 -15 -8 -20 -8 -15 0 -21 17 -11 28 4 5 20 16 23 16 0 0 2 1 4 2 3 4 18
10 24 10 2 0 6 -2 8 -4z m975 -51 c3 -3 3 -3 0 -6 -4 -5 -11 1 -7 6 4 4 4 4 7
0z m-110 -7 c2 -3 6 -9 8 -14 7 -20 19 -27 40 -26 17 1 19 0 27 -4 7 -4 15
-14 21 -26 5 -9 5 -12 5 -23 -1 -15 -4 -18 -19 -21 -19 -4 -37 -10 -53 -17
-12 -6 -17 -8 -30 -9 -15 0 -16 0 -22 6 -7 7 -8 20 -2 37 7 19 5 35 -6 47 -14
14 -16 40 -5 49 8 7 28 7 36 1z m-873 -150 c5 -5 6 -7 6 -17 0 -16 -7 -23 -21
-23 -19 0 -25 6 -25 24 0 15 7 22 23 22 10 0 12 -1 17 -6z m1290 -48 c5 -5 5
-15 0 -20 -9 -9 -24 -2 -24 10 0 8 6 14 14 14 3 0 8 -2 10 -4z m-1350 -31 c7
-4 8 -11 2 -17 -10 -10 -27 5 -17 16 4 5 8 5 15 1z m1463 -25 c1 -1 4 -4 7 -6
l5 -4 -4 -15 c-4 -15 -5 -17 -16 -27 -15 -14 -21 -27 -19 -39 3 -17 -9 -26
-17 -14 -3 5 -3 6 0 12 2 4 3 8 3 10 0 1 1 3 2 4 3 2 2 26 -2 32 -6 8 -8 19
-6 29 2 10 7 16 16 18 9 2 28 2 31 0z m-152 -15 c3 -5 3 -5 0 -10 -2 -3 -5 -5
-7 -5 -2 0 -5 2 -7 5 -3 5 -3 5 0 10 2 3 5 5 7 5 2 0 5 -2 7 -5z m-1241 -27
c1 0 5 -3 8 -6 5 -5 6 -7 6 -17 0 -6 -1 -14 -3 -17 -5 -10 -6 -38 -2 -48 8
-22 4 -28 -21 -30 -13 0 -14 0 -20 6 -7 7 -8 19 -3 34 3 9 4 27 2 49 -2 17 1
24 11 28 5 2 8 2 22 1z m1152 -48 c5 -5 5 -11 0 -16 -10 -10 -27 5 -16 16 4 4
12 4 16 0z"/>
<path d="M732 3724 c-5 -1 -9 -3 -10 -4 0 -1 -2 -2 -3 -2 -2 0 -6 -5 -10 -11
-8 -12 -11 -14 -36 -25 l-13 -6 0 -14 c1 -12 1 -15 4 -17 2 -1 10 -5 18 -10 8
-4 19 -11 23 -15 9 -8 19 -12 30 -12 15 0 45 20 57 38 3 4 5 7 6 8 3 2 8 14 8
19 0 11 -4 20 -10 26 -7 7 -48 27 -53 27 -1 0 -6 -1 -11 -2z"/>
<path d="M1005 2740 c-4 -2 -10 -6 -11 -9 -5 -5 -10 -23 -10 -32 0 -4 -1 -12
-3 -17 -4 -13 -3 -34 2 -44 5 -9 5 -26 0 -33 -4 -7 -6 -25 -3 -31 3 -5 19 -13
31 -15 12 -2 17 -9 17 -22 0 -14 -4 -18 -22 -27 -34 -17 -47 -17 -65 0 -6 5
-17 13 -24 16 -16 8 -23 14 -23 22 0 13 11 17 31 11 13 -4 27 -5 28 -1 1 1 2
2 3 1 0 0 1 3 0 8 -1 18 -2 20 -10 26 -15 10 -19 29 -10 46 6 12 7 33 3 49 -2
9 -2 15 -1 18 1 3 1 7 -1 10 -2 6 -11 17 -11 15 0 -1 -5 -2 -10 -1 -6 0 -14
-1 -19 -3 -5 -2 -11 -3 -13 -3 -6 1 -25 -5 -32 -10 -2 -1 -6 -6 -8 -10 -4 -7
-4 -14 -4 -129 0 -79 0 -122 2 -124 1 -1 2 -3 2 -4 1 -9 6 -12 22 -14 9 -1 20
-5 23 -10 2 -2 3 -8 3 -15 0 -11 0 -11 -14 -24 -9 -9 -16 -17 -20 -25 -6 -14
-6 -22 1 -47 4 -14 4 -28 0 -35 -1 -3 -5 -11 -8 -17 -12 -21 -12 -29 -9 -177
0 -12 0 -14 -4 -17 -8 -5 -13 -6 -35 -2 -15 3 -29 4 -44 3 -25 0 -34 -4 -45
-16 -21 -23 -21 -23 -29 -23 -26 -1 -35 2 -48 17 -5 6 -14 13 -20 16 l-10 6
-121 0 c-113 0 -122 0 -130 -4 -5 -2 -10 -4 -12 -6 -2 -1 -7 -4 -12 -6 -10 -3
-10 -3 -19 0 -6 2 -11 5 -13 6 -12 10 -14 10 -111 11 -98 0 -102 0 -114 -9 -6
-5 -11 -16 -11 -27 -1 -7 11 -47 15 -52 5 -6 34 -6 39 0 2 3 4 5 4 6 0 4 13 9
23 9 12 0 17 -3 28 -14 9 -9 16 -13 32 -17 16 -4 38 4 52 19 9 9 15 13 25 14
5 1 17 3 26 4 30 5 38 3 38 -11 0 -10 8 -31 13 -36 10 -10 37 -13 55 -8 10 3
21 13 23 20 2 9 6 16 8 16 1 0 1 1 0 2 -3 4 7 12 15 12 8 0 18 -8 15 -12 -1
-1 -1 -2 0 -2 2 0 6 -7 8 -16 2 -7 13 -17 23 -20 5 -1 25 -2 58 -2 51 0 51 0
62 5 7 4 12 8 18 17 17 25 27 25 44 0 6 -9 11 -13 19 -17 l10 -5 119 1 c145 1
173 2 181 5 8 3 21 3 40 -2 24 -6 52 -5 65 2 20 9 40 28 56 51 13 20 20 21 45
12 15 -5 29 -8 41 -10 10 -1 22 -7 24 -12 2 -2 3 -5 4 -6 1 -1 6 -8 10 -14 7
-11 9 -13 21 -19 14 -7 14 -7 48 -8 20 0 38 1 42 2 11 3 25 12 31 21 11 15 27
17 42 7 4 -3 9 -7 9 -9 1 -3 19 -4 28 -1 7 2 12 11 16 28 3 9 5 14 11 24 7 10
8 13 8 23 0 11 -1 13 -5 18 -3 3 -7 5 -8 5 -2 0 -3 1 -3 2 0 2 -2 2 -66 3
l-61 1 -21 -6 c-26 -8 -30 -8 -56 0 l-21 6 -77 0 -77 -1 -6 6 -6 6 1 70 c0 46
-1 73 -2 77 -4 13 -13 19 -33 23 -3 0 -6 -1 -7 -2 -1 -2 -4 -3 -5 -3 -4 0 -20
-16 -27 -28 -4 -6 -10 -14 -14 -18 -11 -9 -16 -16 -17 -27 -1 -6 -2 -11 -2
-11 -1 -1 0 -6 1 -10 3 -13 -4 -34 -13 -34 -3 0 -19 -11 -18 -13 0 0 -1 -2 -3
-3 -2 -2 -3 -9 -2 -45 1 -13 0 -15 -11 -38 -15 -32 -16 -33 -33 -33 -13 0 -14
0 -19 6 -8 10 -7 24 2 45 7 15 7 18 6 28 -1 5 -3 11 -4 13 -20 21 -23 27 -23
41 0 10 1 12 6 17 3 3 7 6 9 6 2 0 4 1 5 1 0 0 4 1 8 2 7 1 28 11 30 13 1 1 7
6 14 11 7 6 14 13 15 15 9 19 9 27 1 38 -7 9 -22 20 -27 20 -3 0 -15 9 -15 12
0 4 11 13 21 17 17 7 29 10 51 10 18 0 22 1 27 5 7 4 12 14 14 24 3 13 6 16
21 16 8 0 15 1 18 2 2 1 6 2 9 2 6 0 27 8 27 10 0 0 39 1 87 0 82 0 89 0 104
4 21 5 34 5 54 0 18 -5 41 -5 59 -1 14 4 28 4 43 0 7 -2 24 -3 43 -3 35 0 44
2 55 13 3 3 9 10 13 15 5 4 10 8 12 8 6 0 16 -7 20 -14 5 -9 20 -19 29 -21 33
-6 70 13 85 45 7 14 7 17 4 32 l-3 10 -14 0 c-16 0 -21 -1 -21 -5 0 -2 -1 -3
-2 -3 -1 0 -4 -5 -7 -11 -5 -11 -7 -12 -19 -15 -9 -2 -26 1 -30 7 -9 9 -4 41
6 44 2 1 6 4 10 8 5 6 5 8 6 21 0 17 3 14 -23 33 -7 5 -13 10 -13 11 0 1 -1 2
-2 1 -1 0 -7 -1 -13 -1 -16 -1 -22 -7 -31 -32 -6 -15 -33 -18 -47 -5 -10 8
-10 34 0 43 20 18 19 16 19 32 0 8 0 15 -1 16 -5 4 -29 12 -35 11 -17 -4 -37
-19 -44 -35 -5 -13 -6 -15 -9 -35 -3 -17 -5 -21 -15 -23 -10 -2 -19 1 -27 7
-3 4 -8 7 -11 9 -7 3 -32 2 -34 -2 -1 -2 -6 -9 -11 -17 -17 -23 -9 -22 -131
-23 l-105 -1 -6 6 -6 6 1 65 1 65 5 7 c3 4 7 8 9 9 9 2 32 27 39 43 7 15 10
24 11 30 0 6 -6 22 -8 22 -1 0 -1 1 0 1 3 4 -20 15 -35 16 -17 1 -140 11 -151
12 -7 0 -12 -1 -18 -3z m57 -112 c5 -6 5 -12 0 -18 -7 -8 -22 -2 -22 9 0 11
15 17 22 9z m5 -174 c2 -2 6 -11 9 -19 3 -9 8 -21 10 -27 6 -14 7 -20 5 -29
-2 -13 -13 -20 -27 -18 -12 2 -17 8 -22 24 -2 8 -4 15 -5 17 0 2 -3 9 -5 16
-5 15 -5 20 -1 29 5 11 28 16 36 7z m-87 -22 c2 -2 4 -9 5 -17 2 -19 -4 -34
-14 -34 -14 -1 -21 38 -9 52 4 4 14 4 18 -1z m-28 -193 c6 -2 7 -10 2 -17 -2
-3 -4 -6 -4 -7 0 -4 -10 -9 -17 -9 -15 0 -23 18 -13 29 5 5 20 7 32 4z"/>
<path d="M271 2460 c-15 -6 -22 -17 -23 -34 -1 -8 8 -34 15 -44 12 -18 44 -35
61 -33 3 0 6 1 8 1 2 0 6 2 9 5 13 12 30 15 45 9 11 -5 32 -3 40 3 3 2 9 6 16
9 3 2 7 5 9 6 2 2 5 4 6 4 2 0 3 1 3 3 0 1 1 1 1 0 1 -3 24 9 27 14 1 1 3 2 5
2 1 0 7 4 13 9 8 7 10 8 20 8 14 0 20 -6 20 -19 0 -11 -8 -25 -14 -25 -2 0 -2
0 0 -2 2 -1 2 -5 1 -14 -1 -11 0 -13 4 -18 l5 -5 72 -1 c57 -1 74 0 76 2 1 1
4 2 5 2 2 0 3 1 3 2 0 0 0 8 0 17 0 15 0 15 5 15 13 0 2 2 -18 3 -27 1 -31 4
-31 20 0 9 0 11 7 16 4 4 9 7 11 7 4 0 4 1 2 2 -1 1 -2 6 -2 16 0 8 0 16 0 18
-1 3 -4 4 -31 4 -16 0 -35 -1 -42 -2 -17 -3 -69 -4 -68 -2 1 2 -21 3 -28 2 0
0 -3 0 -5 -1 -11 -2 -24 -12 -36 -28 -4 -5 -9 -9 -13 -10 -8 -2 -21 5 -30 18
-13 16 -31 23 -47 18 -14 -4 -27 -4 -47 1 -18 4 -44 5 -54 2z"/>
<path d="M1678 2221 c-4 -2 -8 -8 -13 -19 -8 -15 -20 -34 -23 -34 -3 0 -20
-18 -22 -23 -1 -4 -1 -7 -1 -7 0 0 -1 -5 -3 -11 -5 -14 -2 -17 15 -17 25 0 38
-4 42 -13 4 -8 4 -24 1 -32 -7 -13 -5 -49 3 -81 3 -11 22 -23 43 -28 5 -1 14
-4 21 -6 12 -5 14 -5 81 -5 l69 -1 12 5 c15 6 30 19 34 28 2 4 3 11 3 16 0 9
-1 10 -8 17 -8 7 -26 15 -39 16 -10 0 -23 21 -26 40 -1 11 -10 34 -16 42 -3 5
-13 14 -22 21 -10 7 -22 16 -26 19 -20 14 -34 17 -54 11 -15 -4 -22 -4 -28 2
-5 5 -5 6 -4 23 1 23 -2 33 -9 37 -7 4 -23 4 -30 0z m72 -121 c5 -5 5 -11 0
-16 -10 -10 -27 5 -16 16 4 4 12 4 16 0z"/>
</g>
</svg>
