<?xml version="1.0" standalone="no"?>
<!DOCTYPE svg PUBLIC "-//W3C//DTD SVG 20010904//EN"
 "http://www.w3.org/TR/2001/REC-SVG-20010904/DTD/svg10.dtd">
<svg version="1.0" xmlns="http://www.w3.org/2000/svg"
 width="1107.000000pt" height="2870.000000pt" viewBox="0 0 1107.000000 2870.000000"
 preserveAspectRatio="xMidYMid meet">
<metadata>
Created by potrace 1.15, written by Peter Selinger 2001-2017
</metadata>
<g transform="translate(0.000000,2870.000000) scale(0.500000,-0.500000)"
fill="#000000" stroke="none">
<path d="M739 3805 c-1 0 -5 -1 -8 -2 -3 -1 -9 -5 -14 -10 -20 -21 -65 -69
-69 -73 -3 -3 -10 -8 -17 -11 l-11 -5 -79 0 c-71 0 -79 0 -86 -4 -20 -9 -28
-33 -17 -49 3 -4 8 -25 7 -30 -2 -6 6 -29 11 -33 9 -8 17 -8 93 -8 l74 1 6 -6
6 -6 0 -80 0 -80 -6 -6 -6 -6 -26 1 c-23 0 -26 0 -34 -4 -12 -6 -17 -14 -17
-26 0 -9 1 -10 10 -20 16 -17 20 -22 21 -31 1 -11 7 -25 13 -32 6 -6 19 -12
27 -11 4 1 7 -1 12 -5 6 -6 6 -6 5 -25 0 -14 1 -21 3 -27 4 -9 14 -21 18 -21
2 0 3 -1 3 -2 0 -2 0 -2 24 -3 49 -3 109 10 130 27 15 13 22 16 38 17 13 0 15
0 18 -5 4 -5 4 -6 1 -16 -4 -14 -10 -24 -20 -40 -5 -6 -12 -18 -17 -27 -13
-26 -27 -43 -40 -49 -17 -9 -57 -12 -126 -13 -39 0 -44 -1 -49 -14 -3 -8 -5
-24 -2 -27 1 -1 2 -6 2 -12 0 -15 -8 -23 -23 -23 -15 0 -23 8 -23 23 0 6 1 11
2 12 3 3 1 20 -3 28 -6 13 -10 14 -74 14 l-58 1 -6 6 -6 6 0 81 c0 44 0 81 -1
81 0 1 2 4 6 8 l6 6 29 -1 c34 0 42 1 51 11 6 6 7 8 7 18 0 10 -1 11 -9 20
-15 16 -19 22 -20 30 -4 39 -28 55 -51 33 -4 -2 -6 -5 -6 -6 0 -1 -2 -6 -4
-11 -3 -6 -5 -11 -5 -12 -3 -14 -25 -10 -25 4 0 6 8 23 15 31 l6 7 1 74 c0 69
0 75 -4 85 -2 6 -5 12 -6 14 -9 10 -12 13 -17 19 -3 4 -8 9 -11 12 -3 4 -7 8
-10 10 -7 5 -12 15 -12 22 0 8 7 27 16 42 6 10 6 12 5 22 -2 21 -6 26 -32 36
-74 28 -71 27 -86 26 -33 -1 -41 -15 -36 -60 2 -17 0 -19 -24 -31 -14 -7 -25
-14 -34 -22 l-15 -13 0 -14 c0 -15 3 -19 19 -29 11 -6 14 -12 14 -26 0 -14 -3
-20 -14 -26 -5 -3 -9 -6 -11 -7 -1 -2 -3 -3 -4 -3 -7 0 -11 -30 -5 -43 5 -11
4 -17 -5 -41 l-8 -22 0 -149 c0 -130 0 -150 3 -156 4 -11 8 -15 22 -21 22 -12
23 -20 2 -32 -24 -13 -27 -22 -26 -64 0 -17 1 -31 2 -32 0 -1 1 -8 2 -15 1 -8
2 -15 3 -16 1 -1 2 -3 2 -5 0 -2 1 -4 2 -4 1 0 3 -4 4 -9 5 -21 9 -32 14 -41
3 -4 6 -9 6 -9 0 -1 6 -8 16 -18 7 -8 26 -7 41 1 19 10 26 7 29 -10 4 -17 11
-29 21 -34 9 -5 10 -5 29 -2 22 2 24 2 49 -7 l18 -6 153 0 153 0 11 5 c5 2 11
6 13 9 5 7 4 25 -2 38 -7 16 -6 33 2 40 3 3 5 5 4 5 -1 0 0 2 3 4 l4 4 15 -7
c13 -7 15 -7 26 -6 17 2 27 15 24 33 -3 20 -15 31 -37 33 -10 1 -10 0 -19 -8
-5 -5 -9 -9 -10 -9 -1 0 -3 -2 -5 -5 -5 -5 -9 -5 -15 2 -10 10 -4 19 16 26 7
2 12 5 12 6 0 2 6 10 17 23 8 10 16 11 35 4 7 -2 20 -7 29 -10 26 -10 25 -7
24 -56 0 -40 0 -41 -6 -51 -7 -12 -9 -26 -6 -36 2 -7 4 -9 14 -15 18 -10 33
-10 60 0 49 17 87 44 103 74 27 51 25 108 -7 151 -8 11 -29 30 -38 35 -14 7
-20 17 -21 39 -3 48 -3 59 -4 88 -1 26 -2 35 -6 48 -3 9 -7 21 -8 28 -6 23
-15 33 -33 40 -11 4 -20 11 -20 16 0 7 7 19 15 25 14 10 20 16 26 24 10 16 11
21 11 88 0 71 0 72 19 83 12 7 42 37 44 44 2 8 0 26 -4 32 -2 3 -26 22 -55 44
-28 21 -76 57 -106 79 -31 23 -58 42 -59 42 -2 0 -7 1 -10 1 -3 0 -7 0 -8 0z
m-6 -92 c3 -5 3 -5 0 -10 -2 -3 -5 -5 -7 -5 -2 0 -5 2 -7 5 -3 5 -3 5 0 10 2
3 5 5 7 5 2 0 5 -2 7 -5z m-37 -86 l-5 -5 -4 4 -5 5 4 4 5 5 4 -4 5 -5 -4 -4z
m-341 -144 c4 -4 5 -7 5 -15 0 -14 -6 -20 -20 -20 -14 0 -20 6 -20 20 0 14 6
20 20 20 8 0 11 -1 15 -5z m-99 -3 c5 -5 6 -7 6 -17 0 -16 -7 -23 -23 -23 -16
0 -23 7 -23 23 0 16 7 23 23 23 10 0 12 -1 17 -6z m81 -237 c6 -4 6 -6 6 -20
0 -14 0 -16 -6 -20 -4 -4 -7 -5 -18 -5 -11 0 -14 1 -18 5 -6 4 -6 6 -6 20 0
14 0 16 6 20 4 4 7 5 18 5 11 0 14 -1 18 -5z m38 -105 c7 -6 7 -19 1 -25 -6
-7 -19 -7 -25 -1 -7 6 -7 19 -1 25 6 7 19 7 25 1z m-56 -96 c5 -5 6 -7 6 -16
0 -15 -8 -23 -23 -23 -9 0 -11 1 -16 7 -9 8 -9 23 -1 32 9 9 24 9 34 0z m-103
-94 c5 -5 5 -11 0 -16 -7 -7 -21 -1 -20 9 2 10 13 14 20 7z m408 -9 c21 -9 20
-45 -2 -54 -10 -5 -28 -1 -34 6 -9 10 -9 32 0 42 7 8 24 11 36 6z m-111 -25
c4 -6 4 -24 -1 -30 -7 -9 -27 -9 -34 0 -5 6 -5 24 0 30 7 9 27 9 35 0z"/>
<path d="M1634 3804 c-3 -1 -7 -3 -9 -5 -5 -4 -4 -31 1 -35 8 -6 13 -25 10
-36 -6 -22 -25 -27 -49 -15 -11 6 -16 7 -27 7 -8 0 -14 -1 -15 -2 -1 -1 -7 -5
-15 -8 l-12 -6 -92 0 -91 1 -22 7 c-12 4 -30 9 -40 11 -18 3 -28 7 -51 21 -7
4 -33 15 -57 24 -66 24 -69 26 -76 29 -8 3 -24 1 -31 -5 -3 -2 -7 -7 -9 -12
l-5 -9 0 -155 1 -155 5 -9 c2 -6 8 -13 12 -17 15 -16 15 -26 0 -42 -16 -16
-17 -19 -17 -84 -1 -66 0 -71 15 -87 14 -13 16 -18 16 -29 0 -11 -2 -16 -16
-29 -15 -16 -16 -19 -16 -100 0 -65 1 -78 5 -107 4 -27 15 -61 25 -77 3 -4 6
-9 6 -9 0 -2 22 -25 30 -32 26 -21 86 -41 128 -42 18 0 31 6 33 15 0 2 1 4 1
6 5 15 6 16 3 19 -3 2 -3 3 0 8 5 6 9 6 14 0 3 -5 3 -6 0 -9 -2 -2 -2 -4 -1
-6 1 -2 2 -6 2 -9 0 -11 5 -19 15 -23 9 -4 13 -4 150 -4 91 0 142 0 145 -2 4
-2 9 -8 7 -8 -2 0 -6 -6 -11 -12 -5 -7 -9 -13 -10 -14 -1 -1 -9 -11 -18 -23
-18 -24 -18 -24 -27 -36 -4 -5 -7 -9 -7 -10 0 -1 -4 -4 -10 -7 l-9 -5 -191 -1
c-182 -1 -191 -1 -201 -5 -8 -3 -16 -4 -34 -4 -20 0 -25 -1 -29 -4 -5 -3 -9
-10 -8 -13 0 -1 -1 -2 -2 -2 -1 0 -2 -2 -2 -3 0 -2 0 -6 -1 -8 0 -2 -1 -7 -1
-10 0 -3 -2 -8 -6 -11 -5 -5 -7 -6 -17 -6 -10 0 -12 1 -17 6 -4 3 -6 8 -6 11
0 3 -1 8 -1 10 -1 2 -1 5 -1 6 -1 2 -3 8 -6 13 -4 9 -7 12 -14 16 l-9 4 -218
0 c-248 0 -224 2 -254 -17 -12 -9 -15 -10 -25 -10 -10 0 -13 1 -25 10 -24 15
-31 17 -63 17 -31 0 -38 -2 -47 -12 -3 -4 -5 -7 -5 -8 0 -3 0 -5 -3 -13 -2 -4
-2 -8 -2 -10 2 -4 -3 -19 -7 -24 -9 -11 -31 -11 -43 0 -5 3 -10 21 -8 25 0 1
0 5 -2 10 -2 5 -3 9 -3 10 1 5 -9 15 -17 19 -10 4 -27 4 -47 -1 -20 -5 -28 -5
-48 0 -20 5 -80 6 -92 2 -16 -6 -24 -17 -24 -35 -1 -7 10 -31 12 -30 1 1 2 0
2 -1 0 -1 5 -4 12 -7 21 -10 32 -15 32 -17 0 -6 15 -22 24 -27 7 -4 14 -4 123
-5 129 0 125 -1 140 13 4 4 7 8 7 9 0 0 3 5 8 10 5 6 9 8 13 8 4 0 8 -2 13 -8
5 -5 8 -10 8 -10 0 -3 13 -15 21 -18 7 -3 13 -4 47 -4 39 0 39 0 51 6 7 3 15
9 19 14 16 17 26 19 47 8 16 -8 33 -9 45 -3 11 6 25 5 37 -2 19 -12 19 -12 45
-12 22 0 27 -1 40 -6 l15 -5 125 0 c122 0 138 -1 138 -6 0 -1 2 -3 5 -4 2 -1
3 -2 1 -2 -2 0 -7 -4 -11 -8 -7 -7 -8 -9 -9 -20 -1 -14 3 -24 13 -30 7 -5 73
-56 80 -62 4 -4 32 -27 49 -42 6 -5 13 -11 15 -13 3 -2 13 -12 23 -21 10 -9
37 -35 59 -56 22 -21 43 -41 47 -43 7 -4 22 -18 22 -21 -1 -1 4 -13 6 -14 1
-1 4 -5 8 -10 9 -12 18 -16 35 -16 8 0 9 0 22 4 30 8 46 -18 30 -47 -7 -12 -9
-29 -4 -39 4 -10 20 -30 27 -33 3 -1 5 -2 6 -3 1 -1 7 -3 14 -6 22 -8 22 -9
22 -34 0 -23 1 -29 11 -44 4 -5 9 -14 12 -20 3 -6 7 -12 8 -14 2 -2 3 -4 3 -5
0 -3 9 -14 17 -22 13 -12 44 -24 69 -26 6 -1 14 -2 17 -2 9 -2 43 3 55 7 14 6
25 16 32 31 7 14 10 17 26 22 25 8 31 14 44 41 12 25 12 36 4 60 l-6 17 3 12
c2 6 5 11 5 11 3 0 8 19 8 27 0 28 -22 83 -52 129 -19 30 -60 76 -86 97 -4 3
-11 9 -15 12 -45 37 -113 77 -180 105 l-24 11 -13 -3 c-8 -1 -17 -4 -25 -9 -9
-6 -14 -7 -22 -8 -12 0 -15 4 -24 22 -13 25 -21 32 -44 38 -26 7 -42 2 -51
-18 -9 -16 -14 -21 -22 -21 -11 0 -15 6 -16 22 -2 18 -9 32 -19 38 -7 4 -10 4
-25 3 -9 0 -19 -1 -22 -2 -7 -1 -26 3 -26 7 0 8 7 9 55 9 51 0 55 1 71 16 11
10 16 13 25 13 9 0 14 -3 25 -13 16 -16 16 -16 100 -17 75 0 75 0 84 4 7 4 10
7 14 16 3 5 5 11 6 13 0 1 0 4 1 6 0 2 1 7 1 10 0 3 2 8 6 11 5 5 7 6 17 6 10
0 12 -1 17 -6 4 -3 6 -8 6 -11 0 -3 1 -8 1 -10 1 -2 1 -5 1 -6 1 -2 3 -8 6
-13 4 -9 7 -12 14 -15 l9 -5 136 0 c141 0 143 0 161 9 15 7 20 11 32 29 9 14
11 18 11 26 0 22 -4 28 -40 58 -27 22 -32 24 -62 24 -21 0 -27 4 -30 21 -4 29
-10 39 -37 60 -25 21 -26 22 -25 26 2 5 9 8 28 14 16 5 56 23 59 27 1 1 5 4
10 8 10 6 30 28 30 32 0 1 1 2 2 2 2 0 11 18 15 31 9 23 11 64 4 86 -6 21 -15
39 -21 41 -10 4 -26 2 -38 -6 -11 -7 -12 -8 -32 -9 -16 0 -24 -2 -34 -5 -16
-6 -26 -6 -37 -1 -6 3 -7 5 -10 14 -6 20 2 35 19 39 10 2 12 2 26 -3 14 -5 31
-4 38 3 8 8 10 19 9 41 -2 34 -3 59 -4 91 -1 17 -2 34 -3 38 -3 9 -9 20 -13
20 -1 0 -7 4 -14 9 -7 5 -13 9 -14 9 -2 0 -5 3 -9 6 -5 5 -6 7 -6 16 0 13 2
16 14 25 16 10 19 13 25 25 5 10 5 10 5 50 -1 44 -2 46 -17 60 -10 10 -16 10
-41 3 -20 -6 -21 -6 -26 0 -8 7 -3 17 9 19 37 4 64 19 71 39 7 19 13 28 23 34
6 3 17 13 27 22 l16 17 0 12 c0 15 -5 21 -25 30 -13 6 -16 8 -22 17 -4 6 -7
12 -7 13 0 3 -17 19 -36 33 -10 7 -44 32 -74 55 -60 45 -64 47 -80 42z m-484
-101 c3 -3 4 -7 4 -14 0 -13 -6 -19 -19 -19 -13 0 -19 6 -19 19 0 7 1 11 4 14
7 8 23 8 30 0z m471 -94 c9 -8 14 -10 30 -14 2 -1 11 -1 19 -1 13 0 15 0 20
-6 5 -5 6 -7 6 -17 0 -21 -8 -25 -51 -25 -24 0 -27 1 -40 16 -4 5 -9 10 -11
12 -9 10 -12 16 -12 25 0 22 20 27 39 10z m-144 -14 c15 -10 33 -16 40 -15 3
1 6 -1 10 -5 l6 -6 0 -80 0 -80 -6 -6 -6 -6 -98 0 c-54 0 -106 -1 -117 -2 -17
-2 -18 -1 -23 3 -8 8 -7 20 2 28 5 3 9 6 9 6 1 0 6 3 11 6 11 8 14 15 13 35
-1 30 -1 44 2 61 1 9 3 21 3 26 0 7 1 10 6 15 l6 6 27 -1 c31 0 39 2 61 15 23
13 31 13 54 0z m-264 -33 c9 -9 6 -20 -10 -35 -5 -4 -13 -14 -18 -20 -8 -12
-12 -14 -21 -15 -17 -2 -24 5 -24 21 0 13 5 19 21 27 5 2 11 7 15 11 16 15 29
18 37 11z m319 -256 c6 0 14 -11 14 -20 0 -15 6 -34 18 -59 16 -34 23 -39 57
-35 19 2 60 9 63 11 1 1 4 2 7 2 6 1 39 12 55 18 8 3 10 3 13 1 5 -4 4 -10 -5
-28 -10 -24 -10 -22 -10 -46 0 -17 -1 -22 -4 -25 -2 -3 -16 -11 -32 -19 -34
-16 -40 -17 -96 -19 -20 -1 -39 -2 -41 -2 -6 -1 -13 -7 -13 -11 1 -13 0 -26
-3 -27 -2 0 -1 -1 2 -1 8 0 13 -8 13 -20 0 -12 5 -33 10 -41 2 -4 9 -10 15
-14 20 -13 27 -28 23 -46 -4 -13 -14 -21 -29 -20 -23 1 -34 17 -43 59 -4 19
-5 23 -15 39 -12 19 -9 43 6 43 3 0 4 1 3 1 -3 1 -4 4 -4 15 0 24 -4 25 -73
23 -27 0 -57 -2 -65 -2 -8 -1 -20 0 -27 1 -8 1 -18 3 -25 3 -8 1 -12 2 -16 6
l-6 6 0 52 c0 28 -1 52 -1 53 -2 2 -2 51 -1 56 1 1 4 5 7 9 l6 6 49 -1 c56 0
63 1 93 17 20 10 37 16 45 16 4 -1 8 -1 10 -1z m165 -290 c7 -6 7 -19 1 -25
-6 -7 -19 -7 -25 -1 -7 6 -7 19 -1 25 6 7 19 7 25 1z m-291 -11 l-5 -5 -4 4
-5 5 4 4 5 5 4 -4 5 -5 -4 -4z m330 -277 c5 -5 6 -7 6 -17 0 -16 -7 -23 -23
-23 -10 0 -12 1 -17 6 -5 5 -6 7 -6 17 0 16 7 23 23 23 10 0 12 -1 17 -6z
m107 -110 c11 -9 7 -24 -7 -24 -11 0 -17 3 -21 11 -3 6 -3 7 0 12 4 7 20 7 28
1z m-350 -224 c14 -6 31 -10 46 -10 26 0 29 -30 6 -54 -4 -3 -10 -23 -10 -33
-1 -15 -11 -20 -18 -10 -3 5 -3 6 0 15 3 12 4 32 1 39 -4 7 -34 19 -49 19 -11
0 -17 7 -17 20 0 20 15 26 41 14z m-90 -106 c8 -8 8 -24 -1 -33 -5 -5 -7 -6
-18 -5 -10 0 -13 1 -17 5 -10 11 -2 37 12 39 10 2 18 0 24 -6z m248 -26 c4 -6
4 -24 -1 -30 -7 -9 -27 -9 -34 0 -5 6 -5 24 0 30 7 9 27 9 35 0z m25 -183 c11
-5 18 -21 14 -35 -2 -9 -3 -10 -17 -34 -5 -8 -9 -15 -9 -16 0 0 -3 -5 -7 -9
-6 -7 -7 -7 -20 -7 -11 0 -14 1 -18 5 -8 7 -9 29 -1 45 9 18 18 38 18 40 0 2
8 9 14 11 6 3 19 2 26 0z"/>
<path d="M175 3798 c-12 -2 -18 -7 -25 -18 -4 -8 -4 -11 -4 -32 1 -36 4 -42
25 -43 16 -1 25 5 28 19 7 26 8 32 5 40 -1 5 -3 10 -3 11 -1 6 -5 13 -10 18
-6 6 -7 6 -16 5z"/>
<path d="M593 2538 c-20 -10 -28 -18 -36 -32 -12 -23 -67 -108 -71 -112 -1 -1
-5 -7 -11 -15 -5 -8 -11 -17 -14 -20 -2 -3 -8 -12 -14 -19 -5 -7 -18 -23 -27
-35 -20 -25 -24 -32 -24 -39 0 -18 -14 -31 -32 -32 -2 0 -9 -7 -16 -14 -28
-33 -96 -103 -123 -127 -27 -25 -50 -45 -67 -59 -6 -5 -12 -10 -13 -11 -1 -1
-8 -7 -16 -13 -8 -6 -15 -12 -16 -13 -1 -1 -5 -4 -8 -6 -40 -29 -44 -34 -46
-51 -2 -12 4 -25 16 -37 14 -14 29 -16 60 -7 38 10 45 17 53 50 2 8 6 17 8 19
5 5 18 7 28 5 8 -2 10 -3 23 -14 6 -7 21 -12 31 -12 4 0 13 3 21 6 8 3 15 6
15 6 1 0 7 2 13 5 6 3 11 5 12 5 2 0 24 10 42 18 7 3 20 9 29 13 21 10 94 46
113 57 23 13 41 23 50 28 4 3 10 6 13 7 3 2 9 6 13 9 5 3 13 8 18 11 32 19 43
27 45 33 4 10 3 28 -2 38 -14 27 -13 60 2 62 14 3 23 -4 29 -21 9 -25 17 -31
38 -30 8 0 15 4 26 14 2 1 13 10 26 20 25 20 28 25 26 42 -2 11 -7 19 -16 22
-9 4 -28 4 -39 0 -13 -3 -22 -2 -29 5 -17 18 8 58 37 58 3 0 14 -3 23 -7 9 -3
22 -8 29 -11 9 -3 16 -7 23 -14 14 -13 31 -18 48 -14 7 1 16 2 22 3 21 2 46
20 61 45 8 13 3 35 -9 45 -5 4 -10 7 -34 21 -8 4 -18 10 -22 13 -4 3 -9 6 -11
6 -2 1 -10 6 -19 11 -8 6 -16 10 -16 10 -1 0 -6 3 -12 7 -6 4 -11 7 -12 7 -1
0 -4 2 -6 4 -7 5 -22 9 -42 12 -23 3 -25 4 -37 22 -15 20 -28 25 -51 17 -19
-7 -34 -4 -45 8 -5 6 -13 8 -28 10 -10 1 -12 0 -29 -9z m23 -111 c15 -8 14
-41 -1 -48 -10 -6 -32 -4 -38 2 -6 6 -8 28 -2 38 6 12 26 16 41 8z m-65 -75
c5 -6 4 -20 -1 -25 -6 -7 -19 -7 -25 -1 -7 6 -7 20 0 25 7 7 20 8 26 1z m72
-58 c6 -6 7 -16 2 -22 -8 -9 -27 -2 -27 11 0 13 16 20 25 11z m-205 -60 c7 -8
7 -9 3 -16 -4 -6 -10 -5 -17 2 -7 7 -7 11 -1 16 7 5 8 5 15 -2z m47 -99 c12
-7 14 -33 3 -43 -8 -9 -32 -9 -40 0 -9 8 -9 32 0 41 7 7 27 8 37 2z"/>
</g>
</svg>
