<?xml version="1.0" standalone="no"?>
<!DOCTYPE svg PUBLIC "-//W3C//DTD SVG 20010904//EN"
 "http://www.w3.org/TR/2001/REC-SVG-20010904/DTD/svg10.dtd">
<svg version="1.0" xmlns="http://www.w3.org/2000/svg"
 width="1106.000000pt" height="2870.000000pt" viewBox="0 0 1106.000000 2870.000000"
 preserveAspectRatio="xMidYMid meet">
<metadata>
Created by potrace 1.15, written by Peter Selinger 2001-2017
</metadata>
<g transform="translate(0.000000,2870.000000) scale(0.500000,-0.500000)"
fill="#000000" stroke="none">
<path d="M320 3836 c-6 -2 -10 -5 -10 -7 0 -1 -1 -1 -1 0 -2 1 -11 -12 -14
-22 -4 -9 -4 -116 -1 -118 1 -1 2 -2 1 -3 -1 -1 2 -5 6 -9 4 -5 8 -8 8 -7 0 1
20 -3 21 -5 1 -1 2 -1 2 2 0 5 13 4 18 -1 5 -5 5 -15 0 -20 -5 -5 -18 -6 -18
0 0 2 -1 2 -2 1 -1 -2 -11 -4 -21 -5 -3 -1 -15 -14 -14 -16 1 -1 0 -2 -1 -3
-1 -1 -2 -40 -2 -115 l0 -114 -5 -4 c-5 -3 -5 -5 -5 -25 0 -19 0 -21 4 -21 2
0 6 -2 9 -5 8 -6 8 -12 9 -153 0 -124 0 -120 13 -145 9 -18 9 -22 0 -40 -14
-27 -13 -9 -13 -262 0 -152 1 -233 2 -237 5 -16 19 -25 43 -27 18 -1 26 -7 28
-21 0 -4 1 -9 2 -12 3 -12 -13 -24 -30 -25 -23 -1 -39 -11 -43 -27 -1 -4 -2
-79 -2 -217 0 -205 0 -211 4 -222 2 -6 5 -13 6 -14 1 -1 3 -5 4 -9 4 -10 15
-27 21 -33 7 -6 23 -11 32 -10 3 1 10 2 16 2 11 2 24 9 25 15 3 9 2 30 -1 35
-4 5 -2 14 8 33 3 5 5 11 5 13 0 4 11 15 16 15 2 0 5 -2 7 -5 3 -5 3 -6 -1
-18 -3 -6 -7 -15 -9 -19 -3 -4 -5 -9 -5 -12 0 -3 -1 -7 -3 -8 -4 -3 -4 -5 3
-12 7 -7 13 -9 27 -8 20 2 52 29 61 51 6 14 6 11 6 241 1 120 1 121 5 130 3 5
5 11 6 13 0 3 1 3 1 -1 1 -11 11 -21 26 -25 18 -5 77 12 99 28 10 7 16 17 21
38 4 13 9 21 15 21 4 0 27 10 33 15 4 2 9 10 12 17 12 25 13 26 17 29 4 3 6 3
16 -2 l12 -6 47 -1 48 0 4 -6 c4 -4 5 -7 5 -19 -1 -30 -7 -80 -13 -98 -1 -4
-2 -8 -3 -10 -6 -32 -43 -107 -62 -126 -1 -1 -7 -8 -13 -15 -16 -18 -16 -19
-25 -25 -6 -5 -15 -17 -12 -17 1 0 1 -1 0 -2 -1 -2 -2 -4 -2 -6 0 -2 -1 -4 -1
-5 -5 -7 -4 -14 1 -19 3 -2 6 -4 7 -3 1 0 3 0 5 -2 3 -2 4 -2 7 0 3 3 4 3 9
-1 l5 -4 -4 -5 c-4 -4 -5 -5 -9 -2 -4 3 -9 3 -21 3 -18 -1 -22 -3 -30 -18 -1
-4 -4 -6 -5 -6 -4 0 -26 -25 -29 -35 -4 -9 -4 -37 -1 -49 1 -3 2 -8 2 -12 1
-4 6 -16 11 -28 17 -35 45 -60 83 -72 5 -2 17 -3 31 -3 21 0 25 1 39 6 33 13
58 33 83 67 30 39 48 84 61 149 8 36 7 113 0 166 -7 50 -13 65 -31 78 -12 9
-15 16 -12 31 7 39 7 34 0 56 -4 10 -7 19 -8 20 -1 0 -1 1 1 3 1 1 3 4 5 7 2
2 6 5 10 6 3 1 10 5 15 9 25 19 31 19 57 0 4 -4 12 -8 17 -9 4 -2 12 -5 18 -8
5 -3 10 -6 12 -6 1 0 0 -1 -1 -2 -6 -3 -11 -21 -9 -33 0 -5 1 -18 2 -28 1 -10
2 -22 2 -28 0 -5 1 -37 2 -70 1 -44 2 -61 4 -66 4 -10 21 -22 35 -24 10 -2 16
-6 17 -13 3 -11 16 -34 23 -41 11 -10 14 -15 14 -26 0 -7 -1 -10 -5 -14 -10
-10 -35 -4 -35 8 0 5 -13 32 -17 35 -5 4 -24 3 -30 -1 -6 -4 -12 -17 -14 -29
0 -5 -3 -22 -5 -39 -7 -48 -7 -53 -2 -63 5 -9 20 -18 34 -19 12 -2 19 -10 18
-22 -1 -25 -1 -39 2 -42 1 -2 2 -3 1 -3 -1 0 2 -3 5 -6 6 -5 8 -6 16 -6 14 1
22 8 31 27 10 22 18 24 40 12 11 -6 15 -7 26 -7 13 0 19 4 25 17 4 6 9 30 8
35 -2 10 0 15 12 26 20 21 23 26 27 49 3 16 1 63 -3 87 -6 38 -13 47 -38 55
-5 2 -12 5 -15 8 l-5 4 8 16 c10 18 11 32 4 41 -8 12 -17 14 -51 12 -19 -1
-25 16 -14 36 7 13 7 29 0 37 -4 4 -24 13 -30 13 -4 0 -13 11 -14 18 -1 4 -2
7 -2 8 0 1 -1 4 -2 7 -1 8 -11 27 -14 28 -2 1 -2 2 1 5 5 6 13 8 39 8 18 0 26
1 33 4 l9 3 0 16 0 15 11 0 11 0 0 -15 -1 -15 8 -3 c4 -2 14 -4 23 -5 16 -2
27 -5 27 -8 0 -1 2 -2 5 -2 2 0 3 -1 1 -1 -5 -2 -9 -11 -11 -21 -1 -8 2 -17 9
-33 5 -11 27 -74 35 -102 9 -31 11 -37 18 -67 1 -8 4 -16 6 -19 7 -14 25 -25
44 -26 29 -2 37 -7 39 -26 0 -12 0 -13 -6 -20 -4 -3 -11 -7 -16 -9 -25 -7 -36
-16 -43 -33 -6 -15 0 -43 8 -43 2 0 3 -1 3 -2 0 -1 1 -1 3 -2 1 0 7 0 13 -1 7
-1 11 -1 12 1 4 7 30 6 38 -1 6 -5 12 -31 8 -36 -7 -10 -34 -15 -45 -8 -6 4
-21 4 -30 0 -20 -8 -15 -37 9 -60 25 -22 58 -36 87 -36 65 1 126 68 138 152 5
35 -4 103 -16 127 -2 3 -3 7 -3 8 0 5 -25 53 -37 71 -6 10 -18 26 -27 37 -16
21 -70 74 -72 73 -1 -1 -2 0 -3 1 -1 2 -26 1 -37 -1 -10 -2 -14 2 -15 15 -1
14 -4 25 -8 31 -3 4 -22 18 -35 24 -2 1 -4 3 -4 3 0 1 -2 2 -5 2 -4 0 -5 1 -3
1 2 1 5 3 8 6 3 3 8 4 23 5 16 1 19 2 27 7 9 6 16 17 20 30 5 17 10 18 52 20
12 0 21 1 23 3 2 1 3 2 3 1 0 -4 17 9 21 16 6 10 6 13 0 26 -5 11 -7 13 -13
14 -2 0 -6 3 -9 7 -4 3 -10 7 -13 8 -4 2 -8 4 -9 6 -2 2 -8 7 -14 11 -12 9
-17 18 -17 31 0 9 5 15 20 24 24 14 26 20 26 79 0 49 0 51 -11 77 -6 16 -6 24
0 40 10 24 11 31 11 51 l-1 18 7 7 c4 4 7 7 7 7 0 0 3 -3 7 -6 l6 -6 0 -39 c0
-24 1 -42 2 -45 4 -9 14 -15 27 -17 l11 -1 9 9 c5 6 10 15 14 25 3 9 6 17 7
19 5 5 12 2 25 -12 22 -22 32 -26 71 -26 21 0 26 -4 26 -20 0 -15 -3 -17 -34
-25 -16 -4 -30 -8 -31 -9 -2 0 -8 -1 -12 -2 -12 0 -28 -5 -31 -9 -2 -2 -4 -7
-6 -11 -1 -7 -1 -12 1 -36 1 -13 1 -14 -5 -20 -5 -5 -7 -6 -15 -6 -13 0 -19 2
-19 5 0 2 -1 3 -2 2 -2 -1 -7 -2 -12 -2 -11 0 -16 -3 -22 -11 -4 -5 -4 -8 -3
-48 0 -36 1 -44 3 -49 2 -3 5 -8 6 -11 1 -2 4 -5 5 -5 2 -1 8 -4 14 -6 10 -5
22 -4 29 2 2 2 4 3 4 2 1 0 1 2 1 6 0 18 2 26 6 30 3 4 4 5 13 2 13 -5 17 -10
20 -22 2 -10 2 -11 -2 -17 -3 -3 -7 -7 -9 -7 -15 -5 -16 -7 -15 -17 1 -5 1
-12 1 -15 0 -5 1 -7 5 -9 3 -2 5 -4 6 -4 2 -3 18 -8 26 -9 17 -2 26 -9 26 -20
0 -5 11 -28 16 -32 13 -12 26 -13 53 -5 23 7 25 7 48 0 17 -5 21 -6 47 -6 44
0 51 4 50 27 -1 10 -1 11 3 12 2 0 2 1 -2 1 -13 0 -21 18 -17 35 4 14 15 21
32 20 14 -1 20 -4 23 -12 6 -14 -1 -43 -10 -43 -2 0 -3 -1 -2 -2 3 -1 5 -20 2
-20 0 0 0 -1 1 -3 3 -2 10 -3 10 0 0 0 1 1 2 0 1 -1 2 0 2 0 1 1 4 4 8 6 12 6
32 27 33 34 3 14 -1 28 -8 35 -14 12 -18 18 -26 32 -10 18 -60 72 -81 89 -5 3
-8 7 -8 8 0 2 -1 3 -1 3 -1 0 -4 5 -8 11 -6 13 -13 17 -27 17 -11 0 -21 -4
-24 -10 -4 -7 -2 -24 2 -31 5 -6 19 -15 25 -15 5 0 11 -8 11 -17 0 -8 -4 -17
-13 -28 -3 -4 -9 -13 -12 -19 -9 -18 -21 -23 -31 -13 -5 5 -5 10 0 27 3 9 4
18 4 32 0 10 0 21 0 23 0 20 0 34 -2 37 -1 2 -2 51 -2 117 0 63 0 114 -1 114
0 1 2 4 6 8 5 5 7 6 14 5 23 -2 41 14 46 40 1 3 3 7 4 8 2 1 3 3 3 4 0 1 3 5
6 8 5 5 8 12 13 25 1 2 2 15 2 28 0 22 0 25 6 34 4 9 5 13 5 25 l0 14 -20 20
c-10 10 -23 23 -27 29 l-9 9 -16 0 -16 0 0 -14 -1 -15 12 -12 c10 -10 12 -15
11 -23 -1 -28 -6 -53 -11 -57 -5 -7 -17 -7 -23 0 -4 4 -4 7 -5 38 -1 27 0 36
2 43 5 14 6 35 2 43 -3 6 -3 16 -3 69 0 80 0 81 -33 97 -18 9 -21 12 -21 28 0
10 1 12 6 17 3 3 7 6 9 6 9 1 19 0 38 -3 27 -5 37 -3 60 8 23 11 25 11 44 2
16 -8 21 -9 30 -9 17 -1 41 18 52 41 8 15 8 19 5 33 -4 15 -40 48 -69 64 -16
8 -23 14 -39 30 -7 7 -31 27 -54 44 -22 17 -42 32 -45 34 -2 1 -10 9 -17 16
-16 15 -15 15 -32 15 -15 0 -20 -3 -29 -16 -3 -4 -9 -13 -14 -20 -22 -29 -25
-35 -25 -47 0 -8 1 -13 5 -19 3 -5 5 -9 4 -9 -1 0 0 -2 2 -4 6 -9 1 -20 -9
-19 -33 5 -44 3 -54 -8 -13 -14 -15 -15 -92 -15 l-68 0 -22 -8 c-27 -11 -33
-11 -61 0 -23 9 -34 10 -51 5 -29 -9 -47 -48 -35 -76 5 -10 6 -31 3 -33 -2 -1
-3 -3 -3 -3 0 -1 -1 -4 -2 -6 -1 -5 -2 -5 -7 -2 -11 6 -16 15 -21 33 -4 17
-10 32 -14 32 -5 0 -17 13 -16 17 1 2 0 3 -2 3 -2 0 -3 1 -3 2 0 1 -2 2 -5 4
-3 1 -5 3 -5 4 1 2 -12 18 -14 17 -1 -1 -2 0 -3 1 -1 2 -1 2 1 1 1 -1 2 0 2 1
0 1 -1 2 -3 2 -2 0 -3 1 -2 2 1 1 0 2 -1 3 -1 1 -2 2 -1 3 1 1 0 2 -1 2 -4 0
-10 8 -8 8 4 2 8 17 10 36 3 21 4 25 19 39 11 12 14 15 16 20 0 1 2 3 4 3 2 0
3 1 2 2 0 0 2 1 6 1 4 0 7 -1 7 -1 0 -2 13 0 17 3 6 4 8 8 10 19 2 17 1 19
-14 19 -20 0 -23 -2 -32 -18 -3 -7 -7 -10 -9 -10 -5 1 -30 13 -40 20 -23 16
-35 19 -58 13 -30 -7 -31 -7 -35 -1 -7 10 0 16 28 23 13 3 25 5 42 5 14 0 29
2 36 4 6 1 14 2 17 2 8 -2 16 -5 16 -7 0 -7 35 -12 41 -6 1 1 3 2 5 2 4 0 5 3
6 21 0 13 0 13 -8 21 -4 4 -10 8 -12 8 -1 0 -9 2 -16 4 -7 2 -22 6 -32 8 -10
2 -33 9 -51 15 -18 6 -46 15 -63 20 -61 17 -67 19 -84 24 -17 5 -18 5 -29 2
-16 -5 -27 -18 -28 -37 0 -2 -1 -9 -3 -15 -1 -5 -5 -27 -9 -48 -4 -21 -7 -40
-8 -43 -3 -15 -7 -36 -12 -56 -3 -13 -7 -31 -9 -40 -7 -32 -21 -85 -29 -116
-14 -47 -15 -54 -7 -63 6 -6 25 -11 32 -7 2 1 11 2 19 2 13 0 20 1 33 6 24 9
30 9 39 4 10 -6 22 -19 33 -37 12 -19 17 -25 32 -34 13 -8 17 -14 17 -28 0
-19 -9 -28 -28 -28 -17 0 -25 7 -28 24 -3 23 -13 41 -30 56 -13 11 -14 11 -25
11 -10 0 -13 -1 -20 -6 -16 -13 -19 -14 -29 -14 -8 0 -12 1 -20 7 -18 11 -43
8 -48 -7 -2 -6 -16 -13 -22 -11 -16 5 -31 15 -47 31 -19 19 -20 19 -38 32 -6
5 -19 14 -28 21 -45 34 -47 35 -62 34 -13 -2 -18 -5 -32 -21 -8 -8 -16 -17
-18 -20 -8 -9 -13 -18 -20 -36 -3 -9 -6 -19 -7 -21 -2 -4 -10 -8 -21 -10 -35
-6 -60 -20 -67 -39 -2 -4 -5 -10 -6 -13 -2 -3 -6 -14 -9 -24 -10 -30 -18 -39
-26 -30 -4 4 -5 9 -7 43 l-1 20 9 10 c6 6 11 12 13 14 3 4 12 30 12 34 0 6 8
13 19 18 40 15 54 26 64 47 6 12 6 86 0 98 -4 7 -19 21 -24 21 -5 0 -13 10
-15 17 -2 8 1 21 4 21 1 0 2 2 2 4 0 4 7 8 19 9 10 2 14 4 17 13 2 6 2 9 -1
15 l-3 7 -16 0 c-9 -1 -16 0 -17 1 0 1 -1 0 -1 -2 0 -3 -1 -5 -2 -6 -1 -1 -2
-3 -2 -5 0 -6 -8 -20 -11 -20 -3 0 -9 7 -13 14 -2 3 -2 7 2 17 6 20 21 45 25
42 0 -1 3 0 6 2 8 4 18 8 27 11 5 1 11 5 14 8 3 3 7 5 8 6 10 2 38 26 38 32 0
1 1 2 2 2 2 0 7 11 12 25 4 12 3 25 -2 29 -5 5 -28 8 -35 4 -7 -3 -17 1 -25
11 -14 16 -51 24 -68 16 -4 -2 -7 -5 -6 -7 0 -1 -1 -2 -2 -2 -4 0 -2 -22 2
-28 4 -4 5 -9 5 -18 0 -19 -8 -27 -27 -27 -19 0 -27 8 -27 27 0 13 4 21 11 23
6 2 6 29 0 36 -6 6 -10 6 -41 4 -11 -1 -28 -1 -39 0 -18 2 -19 2 -28 -3z m671
-60 c11 -10 3 -28 -11 -28 -9 0 -16 6 -16 16 0 14 17 22 27 12z m728 -268 c7
-7 8 -22 2 -31 -6 -7 -46 -29 -56 -30 -6 0 -13 5 -13 10 0 4 6 17 10 21 1 1 6
9 11 16 12 18 19 22 33 21 4 -1 9 -3 13 -7z m103 -11 l-5 -5 -4 4 -5 5 4 4 5
5 4 -4 5 -5 -4 -4z m-646 -16 c4 -3 7 -6 7 -8 0 -6 -9 -32 -13 -36 -3 -4 -24
-14 -32 -16 -7 -2 -15 5 -15 14 0 3 -1 10 -3 14 -3 12 0 25 9 32 6 5 7 5 23 5
12 -1 19 -3 24 -5z m-758 -28 c3 -3 4 -7 4 -14 0 -13 -6 -19 -19 -19 -13 0
-19 6 -19 19 0 7 1 11 4 14 7 8 23 8 30 0z m1011 -43 c13 -6 20 -24 12 -35 -5
-7 -21 -12 -33 -10 -16 2 -22 9 -22 24 0 8 1 14 3 17 7 10 23 12 40 4z m-312
-9 c2 -3 4 -7 3 -7 0 -1 1 -2 2 -2 0 0 1 -13 0 -28 0 -32 2 -43 10 -49 7 -6
25 -11 38 -11 12 0 18 -6 18 -20 0 -14 -6 -20 -18 -20 -13 0 -31 -5 -38 -11
-10 -7 -10 -14 -10 -97 l1 -77 -5 -5 -6 -6 -5 6 -6 5 0 156 c0 145 0 156 3
159 2 2 4 6 5 9 2 7 3 6 8 -2z m201 1 c0 -1 3 -4 7 -6 6 -4 6 -6 9 -22 2 -15
2 -19 -1 -32 -5 -22 -7 -104 -2 -118 4 -11 5 -12 22 -12 10 0 13 -1 14 -3 0
-2 1 -1 1 2 0 13 27 18 38 7 9 -8 9 -26 0 -34 -11 -11 -38 -6 -38 7 0 3 -1 4
-1 3 -1 -3 -4 -4 -15 -4 -7 0 -14 -1 -15 -2 -5 -2 -9 -18 -9 -33 0 -28 13 -41
45 -42 13 -1 22 -6 28 -14 2 -3 7 -10 12 -15 12 -13 15 -19 15 -29 0 -13 -6
-19 -18 -19 -10 0 -14 2 -32 16 -21 15 -40 10 -52 -15 -6 -14 -11 -17 -21 -14
-10 2 -11 18 -4 43 1 3 2 63 2 133 1 128 1 129 -3 138 -4 7 -6 10 -15 14 -6 3
-12 5 -15 5 -3 0 -4 1 -4 7 0 6 1 7 11 7 2 0 3 1 1 3 -1 1 0 2 4 2 8 0 11 2
15 8 3 4 3 6 1 7 -2 1 -1 2 2 2 4 0 7 2 10 6 5 6 8 8 8 4z m213 -5 l6 -6 -1
-58 c0 -63 1 -71 10 -78 7 -6 29 -12 35 -10 15 7 24 -2 22 -20 -2 -15 -7 -21
-19 -21 -13 0 -31 -5 -38 -11 -8 -6 -10 -15 -10 -53 0 -46 4 -53 27 -56 l11
-1 18 17 c17 16 19 17 25 16 7 -1 8 -9 3 -20 -4 -6 -3 -7 1 -16 2 -6 5 -11 7
-12 2 0 4 -2 4 -3 1 -1 7 -2 13 -2 20 -1 21 -1 27 -7 9 -8 9 -26 0 -34 -11
-11 -31 -8 -42 7 -7 9 -24 15 -41 15 -14 0 -17 1 -44 17 -8 5 -14 7 -18 7 -4
-1 -7 1 -12 5 l-6 6 1 78 c0 85 0 82 -12 107 -9 16 -9 24 0 40 11 22 12 27 12
58 l-1 29 6 6 c7 8 8 8 16 0z m-267 -32 c0 -10 -1 -11 -6 -6 -2 3 -2 4 0 5 1
0 2 3 2 5 0 3 1 5 2 5 1 0 2 -4 2 -9z m-585 2 c12 -12 3 -31 -13 -31 -11 0
-18 7 -18 18 0 11 7 18 18 18 6 0 9 -1 13 -5z m979 -44 c4 -3 9 -10 12 -14 6
-9 19 -17 37 -22 15 -4 19 -10 19 -25 0 -11 -1 -13 -6 -18 -3 -3 -7 -6 -9 -6
-15 -1 -20 0 -32 7 -18 12 -35 18 -47 16 -17 -2 -22 7 -20 35 2 26 31 43 46
27z m-789 -17 c10 -9 3 -26 -10 -26 -8 0 -15 7 -15 15 0 13 16 20 25 11z
m-105 -33 c4 -2 8 -4 8 -5 0 -1 1 -2 3 -2 2 0 11 -10 11 -14 0 -1 1 -2 2 -2 1
0 3 -4 6 -8 3 -5 9 -14 15 -19 14 -15 17 -21 17 -36 0 -10 1 -15 4 -21 l4 -7
13 0 c9 0 15 2 18 4 16 11 32 12 46 4 12 -7 13 -9 13 -20 0 -11 -1 -12 -21
-25 -14 -8 -17 -10 -21 -20 -4 -6 -6 -14 -6 -17 1 -4 -1 -7 -5 -12 l-6 -6 -40
1 c-30 0 -42 -1 -45 -2 -5 -3 -14 -3 -16 0 -1 1 -6 4 -12 7 -17 8 -23 15 -24
28 -1 15 2 22 10 27 9 5 27 5 39 0 16 -8 25 -1 24 18 -1 7 -7 25 -10 28 -4 3
-15 4 -16 1 0 -1 -1 0 -1 1 0 4 -17 22 -21 22 -2 0 -9 6 -17 14 -11 11 -14 15
-17 24 -9 31 14 50 45 37z m-223 -20 c4 -4 4 -7 4 -76 1 -85 1 -105 0 -182 0
-66 0 -69 17 -84 21 -19 21 -29 0 -48 -14 -13 -17 -22 -17 -52 l-1 -27 8 -8
c6 -7 9 -8 19 -10 7 -1 14 -1 14 0 4 4 31 10 43 10 21 0 28 -11 18 -31 -4 -10
-23 -28 -32 -32 -8 -3 -21 -3 -27 0 -2 2 -7 2 -16 0 -10 -1 -13 -2 -19 -9 l-8
-8 0 -39 c0 -34 -1 -40 -4 -44 -4 -5 -8 -6 -8 -2 0 2 -1 3 -2 2 -1 -1 -2 0 -3
1 -1 2 -33 2 -37 -1 -1 -1 -2 2 -2 8 l0 9 12 0 c17 -1 18 -1 22 8 4 7 4 12 4
141 0 141 0 140 -9 161 -7 14 -7 26 0 40 11 26 12 58 2 77 -7 12 -6 20 2 48 5
18 5 18 5 81 -1 61 -1 63 3 67 5 5 7 5 12 0z m96 -43 c11 -5 16 -29 8 -44 -6
-12 -24 -17 -41 -12 -14 4 -19 10 -19 25 0 26 24 41 52 31z m1032 -44 c3 -5 4
-22 1 -28 -2 -4 -28 -17 -34 -18 -2 0 -5 0 -7 1 -5 2 -6 16 -2 26 2 4 3 9 3
11 0 14 29 20 39 8z m-1270 -13 c6 -6 6 -15 1 -32 -8 -24 -14 -33 -25 -33 -12
0 -16 6 -14 25 1 18 7 37 13 42 7 5 19 4 25 -2z m77 -94 c6 -4 6 -5 5 -12 -3
-22 -33 -23 -33 -1 0 14 14 20 28 13z m284 -27 c3 -2 3 -2 0 -2 -2 0 -1 -1 1
-2 3 -1 7 -7 11 -13 8 -16 18 -26 31 -32 8 -3 16 -10 23 -17 l12 -12 12 0 c12
1 14 1 18 7 3 3 6 7 6 8 0 1 3 5 10 12 6 6 18 7 23 2 1 -2 4 -3 5 -3 1 0 3 -2
5 -5 3 -4 11 -9 17 -9 2 0 5 0 7 -1 2 0 5 -1 5 -1 3 0 12 -20 12 -25 -1 -19 8
-45 19 -55 3 -3 5 -6 5 -7 0 -7 35 -26 51 -28 13 -1 29 -17 29 -29 0 -3 1 -4
1 -2 1 2 4 3 16 2 23 -1 22 -4 23 61 1 53 1 56 6 64 2 5 4 10 4 12 0 2 1 3 1
2 2 -1 8 7 16 23 19 36 26 42 52 40 2 0 6 -3 9 -6 5 -5 6 -7 6 -17 0 -14 -7
-26 -22 -38 -5 -4 -14 -14 -19 -22 -11 -15 -12 -23 -8 -44 3 -19 3 -21 -1 -28
-2 -5 -6 -10 -9 -13 -17 -19 -21 -60 -6 -72 2 -2 5 -3 7 -3 1 0 2 0 2 -1 0 -1
5 -1 10 -1 6 0 10 -1 10 -2 0 -1 1 0 3 3 2 3 5 4 12 4 9 0 14 -3 27 -15 5 -5
13 -12 18 -16 12 -8 16 -14 16 -27 0 -11 -5 -19 -15 -22 -7 -2 -7 -3 -8 -25 0
-17 1 -19 13 -19 10 0 15 -4 23 -22 12 -25 14 -26 28 -26 13 0 17 3 23 18 4 8
4 15 4 156 l-1 149 7 6 6 7 7 -7 6 -6 -1 -51 c0 -55 1 -62 9 -70 4 -4 8 -5 17
-6 12 -1 13 -1 22 8 15 14 24 17 43 16 2 0 6 -3 9 -6 5 -5 6 -7 6 -18 0 -16
-5 -22 -24 -29 -16 -6 -42 -9 -42 -5 0 1 -1 1 -4 0 -3 -1 -8 -2 -12 -3 -4 -1
-10 -3 -13 -5 -11 -9 -11 -12 -11 -91 l0 -73 -5 -10 c-4 -5 -7 -10 -8 -10 -3
0 -14 -12 -22 -23 -3 -4 -12 -14 -19 -22 -8 -7 -14 -14 -14 -15 0 -1 -3 -5 -6
-9 -6 -7 -7 -7 -20 -7 -12 0 -14 1 -17 4 -6 9 -4 21 7 42 8 16 9 20 8 26 -2
10 -11 25 -19 30 -9 7 -12 12 -16 22 -2 6 -4 10 -5 11 -1 1 -2 2 -1 3 1 1 0 2
-1 3 -3 2 0 13 4 13 2 0 1 1 -2 2 -3 1 -9 2 -14 2 -5 0 -11 0 -13 2 -5 2 -16
-1 -28 -8 -16 -10 -19 -35 -8 -58 9 -19 11 -26 11 -35 0 -13 -6 -19 -20 -19
-17 0 -21 6 -20 30 2 55 2 102 -1 110 -3 8 -13 23 -22 31 -4 3 -12 16 -20 33
-3 5 -3 5 -17 4 -10 0 -14 0 -14 2 0 1 -4 -2 -9 -8 -12 -14 -24 -49 -22 -64 0
-5 1 -17 2 -27 1 -16 1 -18 -3 -22 -7 -7 -19 -7 -26 0 -5 5 -5 14 -1 30 1 7 3
14 4 20 1 3 2 22 2 41 0 42 0 38 7 45 11 12 12 14 16 27 l4 12 -6 12 c-3 6 -9
15 -13 19 -3 4 -9 11 -13 15 -15 18 -23 26 -37 33 -10 5 -15 8 -15 11 0 2 0 2
-2 0 -1 -2 -4 -2 -9 -2 -20 3 -29 -7 -28 -30 2 -37 6 -67 11 -73 1 -1 3 -6 5
-11 3 -10 3 -10 0 -19 -2 -6 -5 -11 -6 -13 -2 -2 -5 -8 -7 -14 -4 -10 -4 -13
-4 -74 1 -58 1 -64 -2 -67 -2 -2 -5 -6 -6 -9 -2 -3 -5 -7 -8 -8 -3 -2 -7 -6
-9 -10 -13 -26 -18 -30 -32 -30 -12 0 -17 3 -23 14 -8 15 -18 29 -19 27 -1 0
-4 4 -7 10 -6 11 -6 12 -6 38 0 27 -2 38 -8 52 -1 3 -3 5 -4 5 -1 0 -2 1 -2 3
0 2 -1 3 -2 3 -3 0 -11 19 -11 28 0 9 8 28 11 28 1 0 2 1 2 3 0 2 1 3 2 3 2 0
5 8 9 20 5 15 4 72 -1 85 -8 21 -22 56 -25 61 -1 3 -5 9 -8 15 -7 14 -6 26 4
39 4 5 9 26 9 37 0 11 6 22 10 20 1 -1 2 0 3 2 1 3 3 4 7 1z m241 -14 c5 -5 6
-7 6 -16 0 -10 -1 -11 -8 -17 -4 -4 -9 -7 -10 -7 -2 0 -5 -1 -8 -2 -13 -8 -19
0 -19 25 -1 10 0 12 5 17 9 9 24 9 34 0z m592 -28 c7 -6 7 -20 0 -26 -5 -5
-22 -5 -28 0 -5 4 -5 15 0 18 1 1 1 2 0 2 -1 0 0 2 3 5 6 7 19 7 25 1z m-933
-44 c1 0 5 -3 8 -6 5 -5 6 -7 6 -18 0 -11 -1 -13 -6 -18 -6 -6 -7 -6 -18 -6
-11 0 -12 0 -18 6 -5 5 -6 7 -6 17 0 14 3 20 12 24 5 2 8 2 22 1z m-257 -28
c5 -5 6 -8 8 -35 1 -10 2 -22 3 -26 1 -4 2 -16 3 -27 1 -10 2 -19 2 -20 0 -1
1 -6 2 -11 2 -13 14 -57 17 -60 2 -2 3 -8 3 -13 0 -15 -8 -23 -23 -23 -9 0
-11 1 -16 6 -7 7 -8 14 -4 34 4 24 3 34 -7 53 -5 10 -10 18 -11 18 -3 0 -10
16 -11 28 -1 7 -3 22 -5 32 -8 36 -3 48 21 48 10 0 14 -1 18 -4z m1300 -237
c6 -4 6 -6 6 -20 0 -14 0 -16 -6 -20 -4 -4 -7 -5 -18 -5 -11 0 -14 1 -18 5 -6
4 -6 6 -6 20 0 14 0 16 6 20 4 4 7 5 18 5 11 0 14 -1 18 -5z m-1221 -46 c5 -4
5 -24 1 -30 -5 -6 -20 -4 -28 3 -4 5 -3 19 4 26 5 5 18 6 23 1z m167 -7 c12
-4 23 -5 46 -1 15 3 23 -14 12 -25 -4 -4 -6 -4 -14 -3 -9 2 -28 2 -35 0 -7 -1
-13 -7 -19 -20 -11 -21 -19 -27 -27 -19 -5 5 -8 16 -9 40 l-2 22 7 6 c6 6 7 6
18 5 6 0 16 -3 23 -5z m-224 -45 c3 -2 5 -5 5 -8 0 -6 6 -24 11 -33 4 -5 7 -8
14 -9 11 -2 19 -15 19 -32 0 -9 7 -34 10 -36 1 -1 2 -3 2 -6 0 -2 1 -3 1 -1 1
2 9 3 24 1 8 -1 9 -2 10 -7 1 -3 2 -6 3 -6 6 0 8 -41 2 -60 -3 -12 -4 -13 -5
-7 -2 8 -9 15 -24 20 -11 5 -14 5 -30 4 -10 0 -22 -2 -27 -4 -14 -5 -20 -3
-25 5 -6 7 -6 16 -2 16 1 0 3 1 4 3 0 1 5 5 11 8 5 3 10 7 10 8 0 0 2 1 4 1 2
0 2 0 0 2 -1 1 -2 5 -2 14 1 15 -1 17 -24 28 -8 4 -14 8 -15 11 -2 7 -2 26 1
31 2 3 3 14 4 28 1 31 5 38 19 29z m81 -13 c2 -2 4 -4 5 -4 4 0 7 -6 8 -13 1
-8 -3 -13 -15 -14 -7 -1 -9 -1 -13 3 -2 3 -4 6 -4 8 0 6 3 16 5 16 1 0 2 2 3
4 1 5 6 5 11 0z m55 -62 c2 -3 3 -6 3 -8 0 -4 -14 -16 -18 -15 -4 1 -8 -4 -8
-9 0 -10 -2 -2 -3 12 -1 17 0 19 8 22 9 3 15 2 18 -2z m76 -31 c5 -4 7 -19 5
-29 -3 -13 -11 -18 -23 -14 -13 3 -16 7 -19 22 -2 11 0 20 6 23 8 5 26 4 31
-2z m-234 -242 c4 -5 2 -15 -6 -32 -8 -18 -11 -25 -11 -28 0 -6 -9 -11 -19
-11 -15 0 -20 7 -19 24 0 5 10 18 33 43 11 10 17 12 22 4z m546 -42 c5 -8 1
-16 -8 -16 -9 0 -13 8 -8 16 2 3 5 5 8 5 3 0 6 -2 8 -5z m-517 -87 c5 -6 5
-12 0 -18 -7 -8 -22 -2 -22 9 0 11 15 17 22 9z m1092 -106 c9 -9 2 -24 -10
-24 -13 0 -21 18 -11 25 6 4 16 4 21 -1z"/>
<path d="M1160 2755 c0 -1 -4 -2 -10 -2 -5 0 -10 0 -10 -1 0 -1 -1 -1 -2 -1
-7 2 -19 -18 -14 -24 1 -1 2 -4 2 -6 3 -15 29 -23 40 -13 5 4 5 6 5 18 1 10 0
14 -3 17 -2 2 -5 6 -6 9 -1 3 -2 4 -2 3z"/>
<path d="M93 3452 c-9 -4 -16 -11 -19 -21 -3 -11 -2 -17 5 -25 6 -7 26 -12 36
-8 17 7 31 4 36 -7 5 -11 4 -23 -4 -39 -3 -7 -7 -14 -7 -15 0 -1 -1 -5 -2 -9
-1 -4 -3 -11 -3 -16 -2 -12 -8 -18 -17 -18 -8 1 -20 -2 -24 -5 -1 -1 -3 -2 -4
-2 -3 2 -7 -2 -12 -8 -4 -7 -5 -10 -5 -26 0 -24 4 -31 21 -42 22 -15 24 -16
24 -25 0 -9 -2 -10 -24 -25 -23 -15 -21 6 -22 -214 l0 -189 5 -11 c3 -6 9 -14
14 -18 7 -7 9 -7 18 -6 14 2 27 10 35 25 4 6 17 22 25 31 1 1 4 6 7 11 15 25
22 30 38 31 19 0 29 -9 29 -28 0 -11 -9 -30 -17 -39 -3 -3 -9 -10 -13 -15 -4
-5 -9 -11 -11 -13 -16 -17 -20 -22 -20 -24 0 -1 -1 -2 -2 -2 -1 0 -12 -28 -13
-35 0 -4 -6 -8 -7 -5 0 1 -1 2 -3 2 -1 0 -3 3 -5 7 -2 3 -4 6 -6 6 -1 -1 -2 0
-2 1 0 1 -4 1 -18 0 -6 0 -29 -14 -39 -24 -3 -3 -7 -10 -10 -15 l-5 -11 0
-147 c0 -154 0 -160 9 -166 2 -2 3 -3 2 -3 -5 -1 9 -4 18 -4 6 0 9 -1 9 -2 0
-2 2 2 4 9 3 8 4 17 4 26 0 21 9 29 28 25 9 -2 12 -6 14 -17 4 -22 14 -34 30
-36 13 -1 47 17 69 36 7 7 8 9 9 20 0 11 0 14 -3 17 -5 6 -18 12 -25 12 -8 0
-16 10 -16 20 1 5 2 8 3 8 1 0 4 1 5 3 1 1 6 3 11 4 22 2 33 8 39 20 4 8 4 11
4 100 -1 91 -1 92 -6 101 -2 4 -7 11 -10 15 -3 3 -7 9 -9 13 -3 8 -3 8 0 16 2
4 6 10 9 13 3 4 8 11 10 15 l5 9 1 130 c0 159 3 142 -29 174 -9 8 -9 14 0 22
30 29 29 27 29 88 0 47 -1 54 -8 68 -2 4 -5 8 -7 9 -2 2 -6 6 -9 11 -5 8 -5
11 -4 38 1 16 -6 31 -20 43 -19 16 -21 24 -14 44 4 12 5 28 2 35 -6 11 -26 23
-51 30 -19 6 -33 12 -33 15 0 1 -2 3 -5 3 -3 1 -10 4 -15 6 -11 5 -19 6 -29 3z
m95 -881 c21 -9 20 -45 -2 -54 -10 -5 -28 -1 -34 6 -9 10 -9 32 0 42 7 8 24
11 36 6z m-3 -123 c7 -8 6 -15 -1 -20 -11 -8 -26 -2 -26 11 0 14 17 20 27 9z"/>
<path d="M1927 3042 c-2 -1 -7 -8 -12 -14 -4 -7 -8 -12 -9 -12 -4 0 -19 -17
-24 -26 -7 -13 -4 -23 8 -36 20 -20 60 -2 77 34 6 14 5 31 -3 47 l-5 8 -14 0
c-8 1 -16 0 -18 -1z"/>
<path d="M1585 2464 c-14 -3 -22 -7 -21 -10 0 -1 -1 -2 -2 -2 -2 0 -6 -11 -6
-19 0 -3 6 -19 16 -38 38 -78 77 -178 90 -231 4 -15 8 -18 26 -18 17 0 19 1
20 22 0 12 2 17 8 20 6 3 20 3 26 0 4 -2 5 -3 15 -25 11 -21 24 -33 47 -45 26
-12 30 -17 22 -26 l-4 -5 -18 5 c-26 6 -33 6 -49 -3 -16 -9 -25 -14 -34 -17
-9 -3 -24 -14 -25 -18 -2 -11 -2 -19 1 -31 4 -14 4 -20 0 -42 -3 -16 -3 -18 0
-27 5 -15 11 -24 26 -34 52 -39 101 -43 150 -15 46 27 77 79 85 142 2 22 -2
36 -17 53 -12 13 -13 25 -7 50 6 22 4 31 -7 46 -8 11 -27 47 -27 52 0 2 -20
30 -26 37 -2 2 -8 8 -12 14 -16 17 -40 41 -56 54 -4 3 -11 9 -16 13 -15 12
-51 37 -75 52 -23 13 -71 39 -83 43 -10 4 -36 5 -47 3z"/>
</g>
</svg>
