<?xml version="1.0" standalone="no"?>
<!DOCTYPE svg PUBLIC "-//W3C//DTD SVG 20010904//EN"
 "http://www.w3.org/TR/2001/REC-SVG-20010904/DTD/svg10.dtd">
<svg version="1.0" xmlns="http://www.w3.org/2000/svg"
 width="1107.000000pt" height="2870.000000pt" viewBox="0 0 1107.000000 2870.000000"
 preserveAspectRatio="xMidYMid meet">
<metadata>
Created by potrace 1.15, written by Peter Selinger 2001-2017
</metadata>
<g transform="translate(0.000000,2870.000000) scale(0.500000,-0.500000)"
fill="#000000" stroke="none">
<path d="M1181 3859 c-1 0 -5 -1 -9 -2 -10 -1 -19 -9 -24 -19 -3 -7 -10 -36
-15 -61 0 -3 -2 -12 -4 -20 -2 -8 -5 -22 -7 -32 -3 -10 -5 -21 -6 -24 -1 -3
-3 -12 -5 -19 -7 -32 -32 -119 -51 -176 -8 -23 -15 -42 -15 -44 -2 -7 -35 -93
-41 -107 -1 -2 -5 -11 -8 -19 -4 -8 -8 -19 -10 -23 -2 -4 -6 -14 -10 -22 -3
-7 -6 -14 -6 -14 0 -7 -67 -138 -92 -179 -7 -11 -12 -20 -12 -21 0 0 -3 -6 -8
-12 -29 -45 -31 -51 -20 -74 7 -15 7 -16 3 -20 -2 -2 -6 -3 -14 -2 -7 0 -11 0
-12 -2 0 -1 -1 0 -1 2 0 1 -1 3 -2 3 0 0 -2 2 -4 5 -3 3 -3 23 -4 135 -1 150
0 142 -19 157 -20 17 -22 19 -21 35 0 6 7 18 10 18 2 0 18 16 47 46 14 14 21
26 29 47 6 16 -4 37 -20 44 -8 3 -32 6 -77 10 -16 1 -52 5 -63 6 -59 6 -76 7
-84 5 -11 -3 -20 -10 -25 -19 -4 -8 -4 -9 -4 -225 l0 -217 8 -23 7 -24 -7 -23
-8 -24 -1 -135 c0 -74 0 -138 1 -141 2 -11 10 -18 24 -21 8 -2 13 -2 17 0 12
5 34 10 47 11 12 1 13 1 17 -3 7 -8 4 -19 -10 -35 -4 -4 -10 -10 -12 -14 -9
-11 -30 -15 -42 -9 -3 1 -7 2 -14 1 -5 -1 -9 -1 -10 -1 0 1 -1 0 -2 -1 0 -1
-6 -4 -11 -6 -6 -2 -12 -5 -14 -8 -3 -4 -3 -4 -8 3 l-6 7 -1 176 -1 176 -8 24
-7 23 7 24 8 23 0 246 c0 135 -1 248 -1 251 -1 3 -4 13 -6 22 l-4 17 4 17 c2
9 5 19 5 21 1 2 2 18 3 34 1 28 4 41 8 41 1 0 2 2 2 3 0 2 1 3 1 2 3 -3 25 18
33 31 8 13 19 39 17 40 0 1 -1 4 -2 8 -3 18 -15 28 -37 31 -25 4 -212 21 -218
20 -16 -3 -27 -12 -32 -27 -1 -5 -2 -48 -2 -156 l0 -148 -6 -7 c-3 -4 -6 -6
-6 -5 0 1 -15 2 -32 4 -18 1 -36 3 -40 3 -4 1 -24 3 -44 5 -20 2 -40 4 -45 5
-15 3 -40 2 -44 -1 -2 -1 -3 -2 -3 -1 0 4 -13 -9 -17 -18 l-5 -11 0 -120 c1
-142 -1 -131 24 -130 12 0 14 0 14 -3 0 -2 1 -1 2 3 3 19 42 20 50 2 8 -19 -2
-45 -21 -53 -15 -7 -29 -1 -29 11 0 5 -1 6 -1 3 -1 -4 -3 -5 -14 -5 -7 -1 -13
0 -13 0 0 3 -9 -2 -10 -6 -1 -4 -2 -204 -2 -435 -1 -208 1 -189 -25 -208 -16
-12 -21 -19 -23 -34 -2 -8 -1 -11 3 -20 6 -14 39 -82 66 -138 6 -12 16 -32 22
-45 13 -28 19 -34 33 -36 17 -1 22 2 43 26 12 14 15 15 90 44 26 10 51 19 54
20 3 2 7 3 8 3 12 3 212 85 213 87 0 1 3 -1 6 -4 l6 -7 0 -40 c1 -44 3 -52 13
-57 8 -4 27 -3 37 2 17 8 35 5 40 -8 16 -40 25 -43 67 -24 9 4 18 8 21 9 11 3
33 23 41 36 9 18 9 10 9 277 l0 251 5 11 c3 5 6 10 7 10 1 0 7 3 14 7 27 18
57 38 59 40 1 1 7 5 13 9 13 9 15 13 15 41 0 32 1 33 37 22 20 -6 23 -8 31
-26 8 -18 17 -28 31 -33 10 -4 16 -4 213 -4 145 0 204 1 209 2 12 4 13 6 12
22 l0 14 6 1 c7 0 6 0 -1 1 -13 0 -16 5 -16 23 0 14 0 16 6 20 4 4 7 5 18 5
11 0 14 -1 18 -5 6 -4 6 -6 6 -20 0 -18 -3 -23 -16 -23 -7 -1 -8 -1 -1 -1 l6
-1 0 -14 c-1 -24 -1 -24 93 -24 62 0 76 1 85 3 11 3 25 11 30 17 3 4 8 8 14 9
8 2 15 -4 29 -20 7 -9 19 -23 27 -30 l13 -15 14 0 c12 0 15 1 18 5 6 5 10 14
12 23 8 37 33 89 60 121 10 13 47 49 49 49 1 0 2 1 2 2 0 4 17 23 30 32 13 10
18 18 23 38 6 23 -4 44 -27 56 -17 9 -36 20 -46 26 -6 4 -15 9 -20 12 -5 2
-10 6 -12 7 -2 2 -4 3 -5 3 -1 0 -4 2 -7 4 -3 2 -13 9 -24 15 -26 16 -103 72
-123 89 -3 3 -10 8 -15 12 -38 31 -115 107 -144 144 -12 15 -23 28 -24 30 -2
2 -6 7 -9 12 -3 5 -6 9 -7 10 -2 2 -18 27 -32 50 -10 16 -7 28 9 35 16 8 45
47 45 60 0 6 -6 23 -9 26 -4 4 -24 14 -31 16 -4 1 -12 3 -18 5 -6 2 -22 7 -35
11 -13 4 -35 11 -49 15 -33 10 -63 19 -108 33 -36 11 -83 25 -95 29 -3 1 -6 2
-6 2 0 0 -1 -1 -2 -1z m62 -155 c5 -4 9 -8 10 -8 1 0 3 -1 5 -3 4 -4 28 -8 31
-5 4 4 19 0 30 -9 2 -2 9 -7 14 -11 14 -9 17 -14 17 -25 0 -15 -7 -20 -24 -19
-6 0 -12 5 -21 17 -3 4 -7 9 -9 11 -2 2 -5 6 -8 9 -8 12 -31 14 -47 6 -12 -7
-31 -7 -38 0 -6 4 -6 6 -6 20 0 14 0 16 6 20 4 4 7 5 18 5 12 0 14 0 22 -8z
m173 -164 c3 -6 6 -12 7 -14 2 -1 4 -4 5 -6 4 -5 19 -13 31 -17 22 -7 25 -24
11 -49 -12 -20 -14 -33 -9 -46 2 -3 7 -15 11 -27 30 -77 65 -151 111 -236 8
-15 11 -29 6 -29 -5 0 -13 5 -22 12 -5 4 -11 9 -15 12 -4 3 -8 6 -9 7 -1 1 -7
6 -14 12 -7 5 -17 15 -23 21 -13 13 -22 17 -35 15 -11 -2 -16 -5 -22 -15 -3
-5 -6 -10 -7 -11 -1 -1 -15 -20 -30 -42 -15 -22 -30 -44 -34 -48 -3 -4 -7 -11
-9 -14 -2 -4 -8 -9 -13 -11 l-9 -5 -99 -1 c-109 -1 -107 -1 -112 -14 -3 -8 -6
-26 -4 -27 1 -1 2 -6 2 -12 0 -17 -7 -23 -26 -21 -8 1 -14 5 -16 14 -8 30 -13
39 -23 48 -4 4 -6 8 -6 14 0 7 0 9 23 31 13 13 27 29 32 34 28 32 34 39 38 44
3 3 7 8 9 10 2 2 7 9 12 15 4 6 10 14 13 17 12 13 18 32 18 57 0 13 4 21 13
23 9 3 34 15 39 20 10 9 53 79 83 136 21 39 53 105 53 109 0 1 2 3 4 5 6 4 10
1 16 -11z m-1125 -158 c2 -1 8 -1 12 0 5 1 9 1 9 0 0 -1 1 -2 3 -2 4 0 10 -15
9 -26 0 -5 -1 -187 -1 -404 l-1 -394 -5 -5 c-3 -2 -5 -5 -5 -7 0 -1 -2 0 -4 2
-2 2 -6 5 -10 7 -3 2 -6 5 -7 7 -1 3 -20 20 -23 20 -4 0 -11 13 -11 22 0 9 7
22 11 22 5 0 23 18 27 27 l5 11 0 60 c-1 65 0 60 -16 87 -8 13 -8 23 0 36 3 6
8 14 10 19 l5 9 1 222 c0 256 2 231 -21 254 -11 11 -13 14 -13 20 0 12 12 18
25 13z m1300 -19 c3 -3 3 -3 0 -6 -4 -5 -11 1 -7 6 4 4 4 4 7 0z m120 -144 c5
-8 1 -16 -8 -16 -9 0 -13 8 -8 16 2 3 5 5 8 5 3 0 6 -2 8 -5z m210 -53 c5 -8
4 -29 -3 -35 -7 -5 -24 -3 -31 4 -6 6 -7 24 -1 31 7 9 27 9 35 0z m-1263 -87
l-5 -5 -4 4 -5 5 4 4 5 5 4 -4 5 -5 -4 -4z m55 -239 c5 -5 6 -7 6 -16 0 -15
-8 -23 -23 -23 -9 0 -11 1 -16 7 -9 8 -9 23 -1 32 9 9 24 9 34 0z m-238 -255
c4 -4 5 -7 5 -15 0 -14 -6 -20 -20 -20 -14 0 -20 6 -20 20 0 14 6 20 20 20 8
0 11 -1 15 -5z m255 -55 c1 0 5 -3 8 -6 5 -5 6 -7 6 -18 0 -11 -1 -13 -6 -18
-6 -6 -7 -6 -18 -6 -11 0 -12 0 -18 6 -5 5 -6 7 -6 17 0 14 3 20 12 24 5 2 8
2 22 1z m-602 -36 c6 -11 -10 -22 -17 -12 -4 6 -4 10 2 14 5 5 11 4 15 -2z"/>
<path d="M1594 2837 c-10 -3 -17 -10 -59 -56 -9 -10 -21 -23 -26 -29 -10 -10
-11 -12 -11 -21 0 -15 3 -21 14 -31 12 -11 15 -20 12 -34 -2 -11 -7 -16 -18
-18 -23 -5 -40 11 -34 33 4 15 -4 35 -16 41 -7 4 -13 4 -136 4 -146 0 -134 -1
-182 18 -15 6 -37 14 -50 19 -29 12 -52 21 -107 42 -41 16 -49 18 -61 16 -6
-1 -14 -6 -14 -9 0 -2 -1 -2 -1 -1 -1 1 -3 -3 -5 -7 -5 -13 -6 -366 -1 -389 8
-35 8 -30 0 -65 -3 -14 -3 -30 -3 -128 l1 -113 6 -14 c8 -19 8 -33 0 -52 l-6
-14 -1 -53 c0 -45 0 -54 3 -61 4 -9 14 -21 18 -21 2 0 3 -1 3 -2 0 -1 1 -1 3
-2 95 -12 234 41 261 99 7 13 9 30 6 39 -1 3 -1 7 0 8 5 7 -7 20 -19 20 -11 1
-23 11 -23 19 0 8 6 13 18 13 11 0 23 5 39 15 19 13 35 8 35 -11 0 -4 -1 -8
-2 -8 -1 0 -1 -2 0 -4 1 -3 2 -8 3 -12 2 -10 9 -19 19 -22 5 -1 42 -2 112 -2
l105 1 6 -6 6 -6 -1 -40 c0 -41 2 -57 9 -57 2 0 3 -1 3 -2 0 -2 5 -4 18 -6 5
-1 10 -1 10 0 0 4 22 4 37 0 9 -2 19 -4 24 -5 12 -2 69 11 103 24 28 10 35 16
55 40 4 6 11 14 15 18 5 4 10 12 12 17 l5 9 1 236 c0 229 0 236 -4 251 -9 35
-8 38 19 51 25 13 57 39 65 55 3 6 2 25 -2 32 -2 3 -18 16 -35 29 -30 23 -31
23 -41 23 -13 1 -17 -1 -30 -14 -12 -12 -20 -13 -28 -5 -6 6 -5 12 2 26 5 9 6
13 6 24 0 14 -1 17 -14 25 -10 7 -26 19 -62 47 -20 15 -38 27 -40 27 -2 0 -5
1 -8 1 -3 0 -9 -1 -14 -2z m73 -93 c10 -9 3 -26 -10 -26 -8 0 -15 7 -15 15 0
13 16 20 25 11z m-24 -74 c10 -9 3 -26 -10 -26 -8 0 -15 7 -15 15 0 13 16 20
25 11z m-267 -21 c3 -3 6 -6 5 -7 0 0 1 -3 3 -6 2 -3 4 -6 4 -7 0 -6 13 -19
22 -23 9 -4 13 -4 39 -4 l28 1 6 -6 c4 -4 6 -8 5 -11 0 -5 5 -18 10 -26 2 -3
12 -10 22 -15 20 -10 45 -30 51 -42 8 -16 1 -31 -15 -31 -4 0 -13 2 -19 4 -22
7 -36 3 -44 -15 l-5 -11 0 -100 c0 -56 1 -102 2 -104 1 -3 4 -12 6 -22 l5 -16
-4 -15 c-3 -14 -4 -16 -12 -20 l-8 -5 -89 0 -88 0 -20 -7 c-26 -9 -33 -9 -57
0 -10 4 -19 6 -19 6 -1 0 -4 2 -7 6 l-6 6 0 71 c0 78 0 71 0 229 l0 112 6 6 6
6 48 -1 c46 0 49 0 59 4 9 4 22 17 22 23 0 1 2 4 4 7 2 3 4 6 3 6 -4 0 10 12
14 12 9 2 18 0 23 -5z m-367 -65 c10 -9 3 -26 -10 -26 -8 0 -15 7 -15 15 0 13
16 20 25 11z m692 -169 c12 -7 14 -33 3 -43 -8 -9 -32 -9 -40 0 -9 8 -9 32 0
41 7 7 27 8 37 2z m-146 -258 c5 -8 1 -16 -8 -16 -9 0 -13 8 -8 16 2 3 5 5 8
5 3 0 6 -2 8 -5z m-472 -132 c3 -5 3 -5 0 -10 -2 -3 -5 -5 -7 -5 -2 0 -5 2 -7
5 -3 5 -3 5 0 10 2 3 5 5 7 5 2 0 5 -2 7 -5z"/>
</g>
</svg>
