<?xml version="1.0" standalone="no"?>
<!DOCTYPE svg PUBLIC "-//W3C//DTD SVG 20010904//EN"
 "http://www.w3.org/TR/2001/REC-SVG-20010904/DTD/svg10.dtd">
<svg version="1.0" xmlns="http://www.w3.org/2000/svg"
 width="1112.000000pt" height="2870.000000pt" viewBox="0 0 1112.000000 2870.000000"
 preserveAspectRatio="xMidYMid meet">
<metadata>
Created by potrace 1.15, written by Peter Selinger 2001-2017
</metadata>
<g transform="translate(0.000000,2870.000000) scale(0.500000,-0.500000)"
fill="#000000" stroke="none">
<path d="M1210 3852 c-19 -5 -29 -23 -28 -49 1 -24 7 -33 29 -44 9 -5 18 -11
19 -13 7 -9 4 -41 -9 -78 -9 -30 -10 -33 -2 -40 7 -7 19 -11 37 -10 15 0 19
-2 28 -16 2 -2 5 -7 8 -10 2 -3 6 -10 9 -16 5 -10 5 -11 3 -16 -2 -3 -5 -5 -7
-6 -3 0 -20 7 -22 10 -2 3 -34 2 -36 0 0 -2 -8 -7 -17 -12 -35 -18 -39 -25
-38 -63 l1 -24 -6 -6 -6 -6 -52 0 c-49 0 -61 -1 -63 -3 -1 -1 -4 -2 -7 -4 -3
-2 -10 -10 -16 -18 -11 -15 -13 -17 -21 -18 -11 -1 -16 0 -21 5 -5 4 -5 6 -5
22 0 19 -4 34 -11 41 -10 9 -53 24 -70 24 -1 0 -4 3 -8 7 -4 5 -13 9 -33 18
-15 6 -34 13 -42 17 -21 8 -32 8 -44 -3 -9 -8 -10 -17 -10 -65 1 -41 1 -44 5
-49 4 -6 5 -6 19 -5 l14 0 0 -12 0 -13 -14 1 c-9 1 -14 1 -14 -1 0 -1 -1 -1
-1 0 -1 0 -3 0 -5 -2 -3 -2 -4 -3 -4 -1 0 3 -9 -6 -11 -10 0 -2 -1 -2 -1 0 0
2 -14 17 -31 33 -17 17 -45 44 -62 60 l-30 30 -13 1 c-8 0 -14 -1 -17 -3 -5
-3 -17 -20 -17 -23 0 -1 -1 -2 -2 -2 -1 0 -2 -2 -2 -5 0 -4 -1 -5 -1 -2 -1 1
-2 3 -3 3 -1 0 -3 3 -5 7 -2 5 -3 15 -3 56 0 54 -1 64 -12 82 -6 10 -12 37
-11 46 2 9 7 21 12 25 2 2 12 8 22 13 33 18 48 37 58 70 6 20 -3 38 -22 46 -9
4 -11 4 -31 6 -8 1 -24 2 -35 3 -11 1 -25 2 -31 3 -15 1 -95 9 -106 10 -8 1
-35 3 -67 6 -5 1 -15 2 -21 2 -14 2 -32 -4 -39 -14 -9 -12 -9 -9 -9 -237 l1
-215 -6 -6 -6 -6 -44 0 c-45 1 -49 0 -56 -8 -6 -9 -9 -27 -5 -38 2 -8 2 -10
-2 -23 -3 -13 -4 -17 -2 -26 4 -23 18 -29 73 -28 l36 1 6 -6 6 -6 -1 -136 -1
-136 -5 -9 c-4 -8 -13 -17 -25 -24 -6 -3 -14 -3 -28 -1 -7 1 -14 0 -19 -1 -5
-2 -10 -3 -10 -2 -1 0 -6 -4 -11 -8 -17 -14 -20 -15 -47 -9 -19 4 -30 3 -61
-3 -35 -8 -47 -17 -51 -37 -2 -10 -3 -6 25 -97 6 -20 14 -47 18 -59 11 -38 17
-45 39 -56 21 -10 24 -17 15 -33 -12 -22 -13 -24 -13 -34 0 -12 11 -35 22 -44
6 -5 7 -6 21 -6 14 0 15 0 20 7 7 8 7 9 14 18 8 14 16 21 48 43 17 11 32 22
34 24 4 3 4 3 11 -4 3 -4 8 -11 10 -15 6 -14 22 -18 43 -12 16 5 30 4 36 -2 6
-4 6 -6 6 -20 0 -17 -3 -21 -17 -26 -23 -7 -43 -15 -47 -18 -14 -13 -18 -17
-22 -25 -4 -9 -4 -11 -5 -119 l0 -110 -5 -5 c-5 -5 -7 -6 -16 -6 -5 0 -22 -1
-36 -3 -74 -9 -113 -13 -122 -13 -12 0 -31 -6 -36 -12 -2 -2 -5 -7 -8 -12 -5
-10 -4 -20 4 -32 11 -16 23 -17 47 -6 8 3 15 6 17 6 5 0 11 -7 19 -25 5 -12
10 -18 15 -22 15 -11 41 -39 42 -45 2 -9 6 -16 13 -23 7 -6 9 -8 27 -16 12 -6
14 -12 10 -21 -2 -4 -7 -9 -10 -12 -14 -12 -16 -23 -12 -77 2 -35 2 -38 7 -48
10 -23 31 -26 86 -14 8 2 17 4 20 4 25 5 54 16 86 31 15 8 28 15 28 16 0 1 1
2 3 2 8 0 52 44 64 64 24 39 36 72 35 101 0 15 1 22 6 41 l6 23 1 63 c1 70 2
69 -11 94 -9 16 -9 24 0 40 13 26 12 9 12 240 -1 243 1 217 -23 241 l-15 14 0
11 c0 14 4 20 14 22 10 2 19 -1 28 -8 16 -13 37 -15 47 -6 2 3 7 7 10 9 26 18
31 25 36 48 6 22 7 23 27 23 10 0 19 1 22 2 2 1 4 2 4 1 0 -1 14 8 16 11 1 1
5 4 9 7 4 3 9 9 10 12 2 4 3 5 3 3 0 -6 20 -4 20 1 0 2 1 3 2 3 1 0 2 1 1 2
-1 1 0 2 1 2 1 0 2 -1 2 -2 0 0 5 -1 11 0 10 1 11 1 11 -3 0 -5 6 22 6 30 0 3
1 9 3 12 2 3 3 7 3 8 0 2 1 3 2 3 0 0 4 5 8 11 9 15 33 30 38 24 7 -9 8 -25 3
-41 -3 -10 -15 -34 -19 -39 -1 -1 -1 -5 -1 -9 1 -4 1 -9 2 -12 1 -9 5 -14 17
-22 6 -4 12 -9 13 -11 2 -7 1 -21 -3 -25 -4 -5 -16 -8 -25 -6 -32 8 -40 11
-43 12 -3 2 -19 -2 -28 -7 -3 -2 -8 -7 -10 -11 -4 -8 -4 -11 -4 -320 0 -308 0
-313 4 -321 3 -7 11 -14 16 -15 1 0 5 -1 11 -3 5 -1 9 -2 9 -1 0 1 1 2 3 2 9
0 16 26 10 40 -5 12 -3 29 4 35 8 7 28 7 36 0 8 -6 9 -25 4 -36 -9 -17 -6 -32
9 -47 4 -5 8 -11 8 -13 2 -24 -8 -33 -33 -28 -11 2 -37 9 -39 10 -1 1 -6 -1
-11 -3 -13 -6 -18 -20 -14 -43 1 -6 0 -11 -5 -23 -13 -30 -12 -24 -12 -136 0
-113 0 -112 12 -125 9 -10 25 -13 35 -6 7 4 21 18 21 21 0 3 12 8 18 8 5 0 17
-5 20 -8 7 -8 13 -10 26 -10 11 0 14 1 18 4 6 6 21 12 36 15 7 2 14 3 16 4 2
0 4 1 4 1 1 0 7 4 14 8 24 16 37 30 47 48 l8 12 -2 24 c-1 17 0 27 2 39 3 14
3 42 3 183 l0 167 5 10 c3 6 6 10 7 10 3 -2 23 11 35 22 1 1 9 7 18 14 11 9
16 15 20 22 8 16 20 26 34 30 6 1 17 12 45 43 16 18 16 19 34 41 25 31 50 68
51 77 1 4 12 26 15 28 1 2 4 5 5 7 2 1 4 3 6 4 1 1 5 8 8 15 9 18 11 21 16 19
6 -2 8 -8 12 -31 6 -35 7 -49 8 -79 2 -44 2 -48 8 -60 7 -15 10 -19 30 -32 42
-28 81 -32 122 -14 22 10 53 35 53 45 l1 5 0 -5 c1 -3 3 -6 5 -8 6 -5 6 -16 7
-116 0 -52 1 -101 1 -109 0 -8 -1 -28 -1 -46 -2 -31 -2 -31 -7 -37 -5 -5 -7
-5 -26 -7 -12 0 -45 -4 -75 -7 -30 -3 -66 -7 -80 -7 -14 -1 -29 -2 -33 -3 -22
-7 -34 -26 -25 -44 7 -15 19 -24 47 -31 64 -17 97 -41 119 -85 4 -7 7 -10 13
-13 7 -3 29 -4 39 -2 9 2 13 -5 14 -25 0 -9 -1 -15 -1 -15 -1 1 -2 0 -2 -1 0
-1 -1 -2 -2 -1 -1 1 -2 0 -1 -1 1 -2 -2 -4 -7 -6 -4 -3 -8 -7 -11 -11 -2 -5
-6 -11 -8 -14 -15 -20 -15 -56 0 -72 15 -17 25 -17 86 -6 15 3 19 4 27 8 12 6
18 9 23 14 8 7 20 11 34 12 28 2 34 4 61 22 9 6 16 14 16 20 0 2 1 3 2 3 2 0
2 1 2 1 -2 2 13 16 21 20 12 6 17 13 29 37 13 26 18 40 25 68 4 19 4 19 2 86
0 10 1 23 4 32 2 12 3 24 3 61 0 52 -2 63 -10 67 -6 3 -28 5 -30 3 0 -1 -4 -4
-7 -5 -14 -8 -27 -3 -27 11 0 6 13 28 19 32 2 0 3 2 3 4 0 2 2 5 12 17 2 3 8
8 14 12 11 7 18 15 23 27 2 6 3 17 3 63 0 71 -1 72 -33 87 -12 5 -16 9 -20 14
-5 10 -5 13 1 19 2 3 5 8 6 12 5 15 15 33 24 42 9 10 9 13 8 38 0 3 -17 11
-33 15 -15 4 -19 8 -19 22 0 12 6 21 13 21 44 2 63 28 46 64 -7 16 -16 24 -35
32 -10 4 -19 9 -22 12 -15 13 2 33 20 23 6 -3 28 -1 34 4 7 5 11 18 8 29 -1 5
-1 17 -1 28 3 69 3 99 0 109 l-2 10 -18 1 c-9 1 -17 0 -17 0 0 -1 -3 -5 -7 -9
-9 -8 -17 -9 -23 -3 -6 7 -4 19 6 30 2 2 6 10 10 16 9 17 14 24 21 28 29 15
33 22 33 72 0 37 0 37 5 43 3 3 5 6 5 7 0 1 5 3 11 6 6 2 11 5 11 6 0 1 3 3 6
5 9 5 37 30 41 36 5 7 4 25 0 32 -4 8 -12 11 -35 13 -20 2 -27 5 -30 13 -1 2
-5 11 -8 20 -7 17 -15 27 -36 43 -6 4 -12 9 -13 10 -1 0 -19 14 -39 30 -49 37
-56 42 -69 53 -12 9 -29 10 -42 3 -6 -4 -51 -54 -55 -61 -4 -6 -4 -26 -1 -36
6 -18 2 -29 -13 -42 -16 -15 -28 -16 -37 -6 -16 20 -15 19 -28 21 -11 2 -15 1
-24 -2 -13 -4 -11 -4 -38 5 -16 5 -20 14 -19 42 0 12 -1 25 -2 29 l-1 7 -18 1
-19 1 -5 -10 c-6 -13 -12 -18 -25 -18 -18 0 -29 13 -42 44 -5 14 -6 18 -5 31
1 26 7 32 34 30 2 0 8 -4 12 -9 9 -9 10 -10 21 -11 14 -1 22 2 27 10 2 3 6 9
8 12 6 6 15 22 16 30 1 3 2 18 2 34 1 27 2 31 7 39 3 5 5 9 6 8 3 0 17 9 23
15 20 20 22 25 25 49 3 29 -19 53 -51 53 -17 1 -27 -5 -44 -24 -14 -15 -21
-13 -33 7 -13 22 -22 26 -76 30 -49 4 -56 5 -83 7 -25 2 -34 2 -41 0z m109
-77 c3 -5 3 -5 0 -10 -2 -3 -5 -5 -7 -5 -2 0 -5 2 -7 5 -3 5 -3 5 0 10 2 3 5
5 7 5 2 0 5 -2 7 -5z m-8 -93 c10 -10 3 -26 -11 -26 -12 0 -19 16 -10 25 6 6
15 6 21 1z m-862 -47 c3 -5 3 -5 0 -10 -5 -6 -7 -6 -13 -1 -5 5 -5 5 0 11 4 6
8 6 13 0z m-42 -54 c5 -8 1 -16 -8 -16 -9 0 -13 8 -8 16 4 6 11 6 16 0z m115
-43 c4 -2 9 -11 9 -16 0 -2 -1 -4 -1 -6 0 -6 -10 -12 -18 -12 -11 0 -18 7 -18
18 0 14 15 23 28 16z m-120 -63 c7 -5 13 -14 11 -17 -1 -1 -4 -2 -7 -3 -3 -1
-6 -2 -7 -3 -2 -4 -14 -2 -18 2 -15 14 6 34 21 21z m496 -4 c11 -12 -5 -27
-18 -17 -4 3 -4 4 -2 8 4 8 10 13 13 13 2 0 5 -2 7 -4z m-445 -28 c-3 -3 -4
-3 -5 -1 -1 2 -2 2 -2 1 0 -1 -1 0 -3 1 -1 1 -3 1 -4 1 0 -1 -1 -1 -1 1 0 3
13 6 16 3 2 -3 2 -4 -1 -6z m395 -14 c5 -4 6 -6 5 -17 -1 -17 -8 -25 -23 -25
-16 0 -20 5 -20 23 0 15 1 18 11 22 9 3 21 2 27 -3z m865 -35 c11 -10 3 -28
-11 -28 -9 0 -16 6 -16 16 0 14 17 22 27 12z m-1008 -65 c6 -4 6 -6 6 -20 0
-12 -1 -16 -3 -17 -3 -2 -3 -5 -2 -16 1 -14 5 -22 11 -22 2 0 3 -1 3 -2 0 -3
23 -2 31 1 9 2 10 2 16 -7 5 -9 4 -163 -2 -175 -2 -4 -4 -10 -5 -12 -1 -3 -2
-3 -2 -1 0 5 -8 9 -16 11 -4 0 -9 1 -12 2 -4 1 -8 0 -11 -2 -3 -2 -10 -5 -15
-7 -5 -2 -14 -7 -20 -10 -11 -6 -12 -6 -42 -3 -6 1 -14 0 -17 -1 -3 -1 -8 -2
-11 -3 -3 0 -11 -3 -18 -5 -13 -3 -14 -3 -18 1 l-5 3 -2 84 c0 46 -2 89 -2 97
-1 15 -1 15 6 21 l7 6 36 -1 c24 -1 36 0 36 1 0 1 1 2 3 2 6 0 10 8 11 22 1
11 1 14 -2 16 -2 1 -3 5 -3 17 0 14 0 16 6 20 4 4 7 5 18 5 11 0 14 -1 18 -5z
m473 -3 c3 -4 6 -6 7 -6 2 0 2 -2 2 -3 -1 -7 10 -24 21 -30 10 -6 13 -26 7
-37 -2 -3 -4 -6 -5 -6 -4 0 -21 -20 -24 -28 -5 -10 -6 -17 -7 -60 -1 -18 -2
-38 -2 -44 0 -6 -2 -24 -3 -40 -3 -41 -4 -55 -9 -95 -1 -5 -2 -14 -2 -19 -1
-5 -2 -13 -3 -19 -1 -5 -2 -15 -3 -21 -1 -6 -2 -12 -2 -14 -1 -4 -5 -26 -6
-33 -2 -13 -5 -29 -10 -52 -3 -13 -6 -25 -6 -26 0 -1 -1 -6 -3 -10 -1 -4 -2
-10 -3 -13 -3 -17 -26 -90 -39 -124 -8 -21 -9 -33 -5 -46 4 -11 9 -16 28 -28
17 -10 21 -14 22 -30 1 -11 0 -13 -4 -17 -4 -5 -6 -5 -17 -4 -13 1 -15 2 -28
16 -7 7 -7 7 -20 7 -16 -1 -17 -2 -25 -18 -7 -16 -12 -20 -21 -20 -9 0 -16 7
-16 15 0 7 7 22 13 29 2 2 3 4 3 5 0 2 17 44 18 45 3 2 7 11 9 21 2 8 3 29 3
90 0 87 0 88 -12 112 -4 9 -6 15 -6 23 0 20 -10 37 -28 49 -10 6 -13 13 -12
27 1 15 5 19 19 23 15 4 29 14 34 24 4 8 4 11 5 129 0 82 0 123 -2 128 -3 11
-10 18 -24 25 -7 3 -12 7 -12 8 0 1 -2 3 -3 4 -4 3 -4 3 0 4 1 1 3 3 3 4 0 1
5 5 12 8 17 8 28 22 26 35 -1 3 1 7 5 11 l6 6 57 0 57 0 5 -5z m418 -6 c4 -1
4 -1 1 -1 -11 -3 -3 -5 14 -4 l19 0 1 -12 c0 -12 0 -12 1 3 0 19 4 24 16 22
21 -5 32 -18 32 -36 0 -14 -3 -19 -17 -25 -16 -7 -26 -14 -29 -20 -7 -12 -17
-27 -25 -36 -17 -19 -16 0 -17 -214 -1 -104 -2 -191 -2 -193 -3 -8 -9 -15 -12
-15 -2 1 -6 0 -10 -2 -6 -3 -13 -4 -25 -3 -2 0 -6 3 -9 6 -5 5 -6 7 -6 18 l0
12 14 14 c8 7 14 15 14 17 0 2 0 8 1 14 0 8 -1 10 -8 19 -13 15 -39 40 -52 50
-7 5 -13 10 -15 12 -1 1 -7 5 -13 9 -5 3 -11 8 -13 9 -2 2 -7 6 -12 8 -18 11
-29 26 -31 46 -2 11 1 17 15 32 7 7 15 29 17 42 0 5 3 23 5 39 4 35 11 102 13
132 1 11 2 23 2 27 0 4 1 12 1 18 1 10 2 13 6 17 l5 5 52 0 52 1 5 -5 c2 -4 7
-6 10 -6z m-337 5 c3 -5 3 -5 0 -10 -5 -6 -8 -6 -13 -1 -5 5 -5 5 0 11 4 6 8
6 13 0z m-928 -6 c4 -3 9 -7 10 -8 12 -14 39 -15 49 0 2 2 12 7 14 7 1 0 4 -1
5 -3 4 -4 3 -12 -4 -26 -3 -6 -7 -18 -9 -28 -2 -9 -6 -18 -8 -20 -7 -8 -25
-11 -36 -5 -6 3 -20 18 -20 23 0 2 -14 20 -14 18 0 -3 -8 5 -14 14 -17 22 4
43 27 28z m576 -127 c12 -10 13 -54 1 -65 -5 -5 -22 -13 -27 -13 -5 0 -9 6
-10 16 0 4 -2 10 -3 12 -1 2 -2 10 -2 17 0 28 6 37 25 37 8 0 12 -1 16 -4z
m796 -7 c3 -5 3 -5 0 -10 -2 -3 -5 -5 -7 -5 -2 0 -5 2 -7 5 -3 5 -3 5 0 10 2
3 5 5 7 5 2 0 5 -2 7 -5z m36 -72 c3 -5 3 -5 0 -10 -2 -3 -5 -5 -7 -5 -2 0 -5
2 -7 5 -3 5 -3 5 0 10 2 3 5 5 7 5 2 0 5 -2 7 -5z m-1318 -22 c3 -5 3 -5 0
-10 -2 -3 -5 -5 -7 -5 -2 0 -5 2 -7 5 -3 5 -3 5 0 10 2 3 5 5 7 5 2 0 5 -2 7
-5z m526 -46 c3 -5 3 -5 0 -10 -2 -3 -5 -5 -7 -5 -2 0 -5 2 -7 5 -3 5 -3 5 0
10 2 3 5 5 7 5 2 0 5 -2 7 -5z m731 -27 c5 -5 5 -15 0 -20 -9 -8 -24 -2 -24
10 0 8 6 14 14 14 3 0 8 -2 10 -4z m-404 -44 c5 -5 5 -11 0 -16 -10 -10 -27 5
-16 16 4 4 12 4 16 0z m441 -23 c3 -3 3 -3 0 -6 -4 -5 -11 1 -7 6 4 4 4 4 7 0z
m-1358 -31 c11 -10 3 -28 -11 -28 -9 0 -16 6 -16 16 0 14 17 22 27 12z m492
-40 c7 -6 7 -19 1 -25 -6 -7 -19 -7 -25 -1 -7 6 -7 19 -1 25 6 7 19 7 25 1z
m869 -30 c38 -5 42 -7 42 -29 0 -10 -1 -12 -6 -17 -3 -3 -7 -6 -9 -6 -18 -1
-23 1 -47 17 -19 13 -24 23 -16 33 4 5 10 5 36 2z m-1451 -90 c11 -10 3 -28
-11 -28 -9 0 -16 6 -16 16 0 14 17 22 27 12z m1001 1 c15 -7 22 -37 11 -48
-12 -11 -38 -11 -47 0 -9 10 -9 32 0 42 7 8 24 11 36 6z m-275 -17 c7 -6 7
-19 1 -25 -6 -7 -19 -7 -25 -1 -7 6 -7 19 -1 25 6 7 19 7 25 1z m602 -16 c2
-2 3 -7 3 -13 0 -10 0 -10 -12 -21 -7 -7 -12 -13 -12 -14 0 -1 -1 -2 -2 -3 -2
0 -3 -7 -3 -24 0 -26 -2 -31 -11 -36 -8 -4 -23 -5 -30 -2 -14 5 -20 20 -16 36
3 10 7 14 19 20 12 7 23 17 24 24 1 3 2 7 2 9 1 2 2 7 2 12 1 5 3 11 5 13 7 8
24 7 31 -1z m-155 -20 c5 -5 5 -15 0 -20 -9 -9 -24 -2 -24 10 0 8 6 14 14 14
3 0 8 -2 10 -4z m355 -52 c-1 -1 -2 -2 -4 -2 -1 0 -4 -1 -5 -3 -2 -3 -3 -3 -7
1 l-5 5 4 4 4 5 7 -5 c4 -2 6 -5 6 -5z m-608 -14 c4 -6 4 -24 -1 -30 -7 -9
-27 -9 -34 0 -5 6 -5 24 0 30 7 9 27 9 35 0z m500 -43 c6 -4 6 -6 6 -20 0 -14
0 -16 -6 -20 -4 -4 -7 -5 -18 -5 -11 0 -14 1 -18 5 -6 4 -6 6 -6 20 0 14 0 16
6 20 4 4 7 5 18 5 11 0 14 -1 18 -5z m76 -110 c2 -2 3 -5 2 -9 -2 -7 -14 -21
-17 -19 -1 1 -2 0 -2 0 0 -1 -2 -2 -4 -2 -2 0 -3 2 -4 8 0 4 -1 8 -1 9 -1 1 1
5 7 12 6 6 13 7 19 1z m-919 -22 l-5 -5 -4 4 -5 5 4 4 5 5 4 -4 5 -5 -4 -4z
m892 -17 c1 -10 1 -12 -2 -20 -5 -12 -9 -16 -19 -16 -12 0 -17 6 -17 18 1 8 2
10 12 17 17 13 26 13 26 1z m-1266 -26 c8 -9 11 -23 7 -27 -4 -4 -6 -4 -15 1
-8 4 -13 10 -17 22 -2 7 -2 8 2 12 3 3 4 4 11 1 4 -2 9 -6 12 -9z m527 -47 c3
-5 3 -5 0 -10 -2 -3 -5 -5 -7 -5 -2 0 -5 2 -7 5 -3 5 -3 5 0 10 2 3 5 5 7 5 2
0 5 -2 7 -5z m663 -160 c4 -4 7 -7 8 -9 0 -5 -8 -11 -15 -11 -3 0 -9 -1 -12
-2 -21 -5 -24 -8 -35 -26 -21 -34 -67 -17 -58 20 4 14 15 21 32 20 10 -1 46 6
53 11 7 4 20 2 27 -3z m-1227 -11 c15 -7 16 -42 0 -50 -7 -3 -23 -3 -31 0 -17
7 -17 43 -1 50 12 4 20 4 32 0z m533 -17 l-5 -5 -4 4 -5 5 4 4 5 5 4 -4 5 -5
-4 -4z m765 -11 c8 -8 8 -24 0 -32 -10 -9 -27 -9 -35 1 -4 4 -8 24 -6 29 3 11
31 12 41 2z m-1476 -20 c10 -9 3 -26 -10 -26 -9 0 -15 6 -15 14 0 14 15 21 25
12z m240 -38 c8 -9 8 -24 -1 -32 -13 -14 -37 -6 -38 12 -1 17 3 24 17 26 11 2
16 0 22 -6z m1175 -17 c3 -1 7 -6 10 -9 3 -4 9 -11 14 -17 14 -15 17 -21 12
-32 -3 -7 -8 -12 -19 -20 -4 -3 -16 -14 -27 -25 l-19 -20 -13 0 c-21 0 -26 5
-26 29 0 9 0 14 3 16 2 2 3 5 3 6 0 2 2 3 4 4 2 1 4 2 4 3 0 1 1 2 2 1 2 -1 3
1 5 7 0 3 2 9 3 14 1 5 2 12 1 15 -1 8 2 21 7 26 7 7 24 8 36 2z m114 -54 c6
-6 7 -21 1 -26 -5 -6 -20 -5 -26 2 -7 5 -7 18 -1 24 6 7 20 7 26 0z m-941 -6
c5 -8 1 -16 -8 -16 -9 0 -13 8 -8 16 2 3 5 5 8 5 3 0 6 -2 8 -5z"/>
<path d="M61 3372 c-15 -6 -22 -16 -23 -34 -1 -6 13 -52 17 -61 12 -22 42 -34
57 -21 6 5 7 7 8 19 0 11 0 13 -5 19 -7 10 -10 23 -7 33 3 7 3 15 -1 28 -1 6
-7 14 -12 16 -6 3 -27 3 -34 1z"/>
</g>
</svg>
