<?xml version="1.0" standalone="no"?>
<!DOCTYPE svg PUBLIC "-//W3C//DTD SVG 20010904//EN"
 "http://www.w3.org/TR/2001/REC-SVG-20010904/DTD/svg10.dtd">
<svg version="1.0" xmlns="http://www.w3.org/2000/svg"
 width="1107.000000pt" height="2870.000000pt" viewBox="0 0 1107.000000 2870.000000"
 preserveAspectRatio="xMidYMid meet">
<metadata>
Created by potrace 1.15, written by Peter Selinger 2001-2017
</metadata>
<g transform="translate(0.000000,2870.000000) scale(0.500000,-0.500000)"
fill="#000000" stroke="none">
<path d="M1129 3859 c-14 -4 -30 -13 -34 -19 -5 -6 -5 -26 -1 -30 5 -5 14 -8
24 -8 31 1 29 1 36 -6 5 -5 6 -7 6 -17 0 -11 -1 -13 -10 -27 -5 -8 -10 -16
-10 -18 0 -2 -1 -6 -1 -10 -1 -5 1 -13 5 -26 6 -19 13 -54 15 -76 1 -17 8 -38
19 -59 11 -22 13 -31 7 -37 -9 -9 -26 7 -43 42 -2 2 -3 4 -4 4 -1 0 -2 1 -2 3
0 3 -7 9 -16 14 -6 4 -14 4 -77 5 l-70 1 -19 7 c-31 9 -39 12 -43 14 -5 2 -48
17 -61 21 -31 10 -74 25 -79 29 -7 6 -7 12 0 26 8 16 5 31 -8 43 -8 8 -12 9
-77 28 -88 26 -124 36 -149 44 -13 4 -32 8 -43 10 -10 2 -26 6 -35 9 -51 20
-61 22 -73 20 -19 -4 -29 -19 -33 -45 -2 -17 -19 -102 -26 -137 -4 -18 -7 -34
-8 -37 -1 -7 -11 -50 -13 -55 -5 -17 2 -35 18 -45 17 -12 20 -15 20 -23 0 -10
-6 -16 -19 -16 -32 0 -46 -12 -50 -44 -1 -8 -10 -35 -19 -60 -2 -6 -6 -18 -9
-27 -13 -42 -18 -61 -30 -96 -7 -21 -14 -39 -14 -41 -1 -2 -5 -14 -10 -28 -5
-14 -12 -32 -15 -41 -3 -9 -14 -37 -24 -63 -20 -50 -20 -50 -11 -67 4 -9 19
-19 28 -19 11 0 24 -10 34 -25 7 -11 13 -18 20 -23 17 -12 23 -19 23 -26 0
-10 -13 -44 -19 -48 -1 -1 -1 -2 0 -2 1 0 1 -1 -1 -2 -1 -2 -1 -4 1 -7 1 -3 2
-52 3 -199 1 -107 2 -198 3 -201 1 -3 2 -7 2 -8 0 -2 0 -2 1 -2 1 1 2 0 2 -1
0 -1 6 -1 15 -1 l15 2 0 -12 0 -12 -15 2 c-9 0 -15 0 -15 -1 0 -1 -1 -2 -2 -1
-1 0 -1 0 -1 -2 0 -1 -1 -5 -2 -8 -1 -3 -2 -118 -2 -254 -1 -222 -1 -249 2
-256 4 -9 14 -21 18 -21 2 0 3 -1 3 -2 0 -2 2 -2 32 -3 60 -2 114 10 173 39
25 12 30 15 41 28 18 18 26 22 33 17 2 -1 6 -6 7 -9 l3 -6 17 0 c19 0 23 2 25
12 3 11 3 12 8 15 2 1 7 3 10 4 3 0 13 3 21 6 16 5 25 13 45 38 4 5 9 11 10
12 5 5 25 31 34 44 5 8 11 16 13 18 2 2 4 5 4 6 0 2 1 3 2 3 0 0 4 5 8 12 21
33 27 43 29 46 0 2 3 6 5 10 10 16 48 89 48 93 0 0 3 8 8 17 4 9 10 23 13 31
3 8 7 17 8 21 2 3 3 9 3 12 0 3 1 4 1 1 1 -1 2 -3 3 -2 1 1 2 0 2 -2 0 -2 1
-3 2 -2 2 1 4 -15 4 -44 0 -31 3 -42 13 -54 3 -4 8 -12 10 -16 4 -9 4 -9 0
-17 -2 -5 -7 -13 -10 -17 -13 -15 -13 -14 -13 -155 0 -112 0 -128 3 -135 4 -9
14 -21 18 -21 2 0 3 -1 3 -2 0 -2 1 -2 26 -3 85 -4 210 46 234 94 5 8 10 25 9
26 -1 2 14 15 19 18 8 4 14 11 18 21 4 8 12 18 16 18 4 0 12 -10 16 -18 5 -12
12 -19 23 -23 7 -3 23 -3 127 -3 l119 1 6 -6 6 -6 -1 -30 c0 -24 1 -31 3 -38
4 -9 14 -21 18 -21 2 0 3 -1 3 -2 0 -5 63 -4 94 2 53 9 91 20 111 31 44 25 57
35 64 50 l5 11 0 175 0 176 5 8 c4 5 9 10 16 13 19 9 49 33 57 46 4 5 6 32 2
32 -1 0 -2 2 -3 4 0 2 -6 8 -14 13 -7 6 -33 25 -56 42 -24 18 -54 40 -66 49
-13 10 -32 24 -42 32 -11 8 -26 19 -33 24 l-13 9 -19 0 c-27 0 -55 -10 -69
-24 -3 -4 -9 -11 -13 -15 -20 -21 -41 -45 -42 -46 0 -1 -1 -2 -3 -2 -1 0 -4
-1 -5 -3 -4 -4 -11 -5 -61 -7 -47 -1 -48 -1 -58 -6 -6 -3 -12 -7 -13 -8 -6 -6
-19 -12 -25 -12 -6 0 -20 6 -23 10 -1 1 -6 5 -12 9 -11 6 -12 9 -10 15 0 1 0
2 0 3 0 0 2 1 4 1 10 0 54 21 66 32 10 9 14 25 10 39 -5 19 -2 33 10 46 4 4
14 23 14 27 0 1 3 5 7 8 l6 7 29 0 29 0 6 -6 c6 -6 6 -7 5 -20 0 -9 1 -16 3
-22 4 -9 14 -21 18 -21 2 0 3 -1 3 -2 0 -2 9 -3 25 -3 16 0 27 5 37 16 13 15
14 20 6 56 -2 11 2 16 20 21 7 2 19 6 26 10 9 5 16 7 22 7 10 0 9 0 47 -24 24
-15 31 -17 43 -16 12 1 14 1 19 7 10 10 11 21 11 106 0 86 0 88 -11 101 -5 5
-21 11 -34 12 -18 2 -24 9 -24 27 0 19 8 27 27 27 9 0 13 -2 25 -9 26 -16 25
-16 107 -16 79 0 85 1 103 11 19 11 35 36 35 54 0 18 -12 37 -51 78 -11 12
-17 15 -34 14 -11 -1 -12 -1 -24 -13 -20 -20 -34 -25 -43 -15 -9 9 -4 21 15
42 7 7 14 16 15 20 3 10 1 26 -4 33 -2 3 -6 9 -9 13 -6 9 -12 13 -24 16 -7 2
-7 3 -4 31 1 21 -1 24 -40 53 -9 7 -17 13 -19 15 -8 7 -36 13 -45 10 -5 -2
-18 1 -16 4 1 1 0 2 -1 2 -2 1 -3 6 -3 12 -1 17 -7 27 -27 42 -21 16 -27 18
-49 19 -18 0 -24 2 -35 11 -7 6 -30 8 -34 3 -2 -1 -14 -14 -28 -29 -14 -15
-29 -31 -34 -36 -10 -9 -10 -9 -10 -21 0 -13 1 -17 12 -31 9 -12 9 -29 0 -38
-3 -3 -7 -6 -9 -6 -27 -2 -34 5 -32 27 2 21 1 33 -3 40 -4 8 -19 13 -32 13 -8
-1 -10 0 -15 5 -6 6 -6 6 -5 18 3 20 7 24 27 35 11 6 21 13 26 19 9 9 20 34
19 41 -1 4 1 6 6 10 l7 6 190 0 190 0 13 5 c26 11 50 42 47 64 -2 18 -7 25
-34 48 -9 7 -18 15 -21 17 -3 3 -16 14 -30 24 -14 11 -26 21 -27 22 -1 1 -13
10 -27 20 -14 11 -26 20 -27 21 -1 1 -5 4 -8 6 -3 2 -6 5 -8 6 -1 1 -8 7 -15
12 -7 6 -18 16 -25 23 -12 13 -18 15 -34 13 -10 -1 -17 -5 -22 -14 -2 -3 -7
-10 -11 -15 -18 -24 -22 -30 -29 -41 -10 -17 -10 -29 -1 -40 5 -6 13 -9 30
-14 13 -4 19 -10 19 -23 0 -15 -8 -23 -23 -23 -11 0 -14 2 -25 17 -12 17 -16
20 -29 20 -10 0 -12 -1 -19 -7 -5 -5 -28 -18 -35 -20 -5 -2 -9 -4 -11 -9 -4
-7 -7 -28 -5 -29 4 -2 2 -22 -2 -27 -7 -9 -27 -9 -34 0 -4 5 -6 25 -2 27 3 2
-7 51 -10 51 -1 0 0 3 1 8 6 11 5 47 -1 67 -16 58 -61 107 -125 138 -41 20
-92 34 -145 40 -22 3 -25 3 -45 4 -14 1 -23 0 -30 -2z m-698 -153 c10 -9 3
-26 -10 -26 -8 0 -15 7 -15 15 0 13 16 20 25 11z m203 -1 c7 -4 14 -21 15 -38
0 -9 -9 -13 -27 -13 -18 -1 -26 3 -30 12 -4 9 -3 24 1 31 6 12 26 16 41 8z
m609 -61 c4 -6 4 -24 -1 -30 -7 -9 -27 -9 -34 0 -5 6 -5 24 0 30 7 9 27 9 35
0z m-724 -1 c5 -8 1 -16 -8 -16 -9 0 -13 8 -8 16 2 3 5 5 8 5 3 0 6 -2 8 -5z
m164 2 c3 0 9 -7 9 -9 0 -5 -7 -20 -9 -21 -5 -2 -8 1 -14 13 l-6 11 6 5 c3 2
7 4 9 3 2 -1 4 -1 5 -2z m-21 -89 c6 0 6 -6 5 -361 0 -192 -1 -357 -2 -365 0
-8 -1 -33 -2 -56 -1 -23 -2 -45 -2 -49 0 -4 -1 -20 -2 -34 -1 -25 -6 -98 -8
-118 -11 -113 -23 -200 -41 -288 -7 -37 -9 -44 -11 -63 -1 -10 -6 -28 -13 -47
-3 -7 -8 -24 -12 -38 -4 -14 -10 -35 -14 -46 -3 -11 -6 -21 -6 -24 0 -4 0 -4
-2 0 -1 1 -3 3 -4 2 -2 -2 -4 3 -5 21 -2 27 -8 37 -29 51 -16 11 -19 14 -19
29 0 15 3 18 19 29 26 17 28 23 28 75 0 43 -1 50 -11 60 -4 5 -26 16 -32 16
-12 0 -18 27 -8 37 3 3 6 5 8 5 6 0 28 11 32 16 10 11 11 15 11 82 0 55 0 64
-4 79 -5 22 -5 32 0 54 3 12 4 24 4 41 0 37 -5 48 -28 62 -16 11 -19 14 -19
26 0 12 3 15 19 26 13 8 21 17 24 26 2 5 3 53 4 188 l1 182 5 5 c3 2 9 6 13 7
26 9 32 12 40 28 7 14 7 25 0 36 -6 11 -14 16 -38 24 -28 9 -32 17 -22 34 3 5
15 30 28 55 21 42 23 47 22 54 -2 13 -2 13 -9 28 -12 24 -7 41 12 44 19 3 44
18 44 26 0 2 1 3 2 3 0 0 2 3 4 8 1 4 5 12 7 18 3 5 5 13 5 16 0 5 0 5 2 1 1
-3 3 -5 4 -5z m219 -11 c3 -3 3 -3 0 -6 -4 -5 -11 1 -7 6 4 4 4 4 7 0z m244
-80 c6 -6 6 -6 5 -22 0 -19 2 -29 9 -36 6 -5 27 -12 37 -11 9 1 16 -6 16 -17
0 -11 -7 -18 -16 -17 -9 1 -29 -5 -36 -10 -2 -2 -4 -4 -3 -4 1 0 -2 -2 -7 -5
-6 -3 -10 -6 -10 -7 0 0 -34 -1 -75 0 -60 0 -76 0 -77 -2 -1 -2 -2 -2 -2 -1 0
1 -2 4 -4 7 -5 5 -5 6 -6 62 l-1 57 6 6 6 6 76 0 76 0 6 -6z m580 -154 l5 -5
-5 -16 c-7 -22 -11 -26 -28 -26 -18 0 -23 5 -25 21 -1 21 5 28 25 30 6 0 12 1
13 2 2 2 11 -1 15 -6z m-1237 -29 c5 -5 5 -15 0 -20 -9 -9 -24 -2 -24 10 0 8
6 14 14 14 3 0 8 -2 10 -4z m504 -58 c2 -1 8 -4 13 -7 l11 -5 61 0 62 1 6 -6
6 -6 0 -52 0 -52 -6 -6 -6 -6 -76 0 -76 0 -6 6 -6 6 1 58 c1 56 3 75 8 72 1
-1 2 1 2 3 0 4 1 5 1 1 1 -2 3 -5 5 -7z m517 -18 l6 -5 -1 -47 c0 -28 1 -50 2
-54 1 -4 4 -13 6 -21 5 -17 5 -21 0 -27 -6 -7 -15 -5 -23 5 -18 22 -31 30 -46
29 -7 -1 -9 0 -14 5 l-6 6 0 52 0 52 6 6 6 6 29 -1 c28 0 29 0 35 -6z m314
-11 c3 -1 2 -12 -3 -20 -9 -15 -14 -25 -14 -29 0 -2 -1 -2 -2 1 -1 2 -2 4 -3
3 -2 -1 -7 11 -7 19 0 16 18 33 29 26z m-1018 -15 c16 -7 16 -43 -1 -50 -3 -1
-5 -3 -5 -4 1 -1 0 -2 -2 -2 -2 0 -3 -1 -3 -1 0 -1 0 -3 0 -4 0 -1 0 -8 0 -15
0 -12 0 -14 5 -19 14 -15 -5 -37 -20 -23 -7 6 -6 15 0 23 5 5 5 7 5 19 0 7 0
14 0 15 0 1 0 3 0 4 0 0 -1 1 -3 1 -2 0 -3 1 -2 2 0 1 -2 3 -5 4 -17 7 -17 43
-1 50 12 4 20 4 32 0z m524 -149 c3 -3 3 -3 0 -6 -4 -5 -11 1 -7 6 4 4 4 4 7
0z m112 -24 c2 -2 3 -4 2 -4 0 -1 0 -4 2 -7 1 -3 5 -9 7 -14 7 -14 15 -19 35
-19 15 0 16 0 22 -6 l6 -6 0 -53 0 -53 -6 -6 -6 -6 -29 0 -29 0 -6 6 -6 6 1
57 c0 54 0 58 -4 66 -2 5 -5 14 -7 22 -4 13 -4 13 0 17 5 5 13 5 18 0z m-348
-20 c3 -1 9 -5 12 -8 6 -6 25 -15 30 -15 1 0 6 -3 9 -7 l7 -6 0 -54 c0 -29 -1
-53 -1 -53 -2 0 -8 -15 -9 -25 -1 -6 -3 -13 -4 -17 -2 -5 -2 -8 -1 -8 4 0 2
-13 -2 -17 -9 -10 -26 -3 -26 10 0 4 1 7 2 7 1 0 1 2 0 6 -1 3 -3 7 -3 9 -2 8
-9 18 -15 21 -11 6 -96 6 -114 0 -22 -7 -34 -5 -37 7 -2 6 1 11 15 26 15 16
18 24 18 60 l1 28 6 5 c5 5 8 6 24 6 20 1 35 7 46 17 13 12 30 15 42 8z m-317
-99 c5 -5 5 -15 0 -20 -9 -9 -24 -2 -24 10 0 8 6 14 14 14 3 0 8 -2 10 -4z
m-293 -23 c3 -3 3 -3 0 -6 -4 -5 -11 1 -7 6 4 4 4 4 7 0z m495 -121 c4 -8 17
-10 40 -9 l22 2 11 -8 c25 -17 29 -18 60 -18 l28 0 6 -6 6 -6 -1 -69 c-1 -55
-2 -70 -4 -73 -1 -1 -3 -2 -4 -2 -1 1 -2 0 -2 -1 0 -2 -1 -2 -2 0 -2 1 -22 9
-45 18 -38 15 -42 16 -51 15 -6 -1 -10 -2 -10 -3 0 -1 -1 -2 -2 -1 -1 1 -7 -4
-13 -10 -14 -13 -20 -16 -25 -9 -2 3 -4 7 -4 10 1 7 -2 26 -4 27 -1 1 -2 2 -1
3 2 2 -8 12 -17 17 -11 5 -17 15 -15 26 0 4 2 21 5 37 2 16 4 34 5 39 1 12 3
17 8 21 5 5 6 5 9 0z m-539 -15 c12 -7 14 -33 3 -43 -8 -9 -32 -9 -40 0 -9 8
-9 32 0 41 7 7 27 8 37 2z m879 -76 c5 -1 12 -8 12 -12 0 -21 -44 -41 -59 -26
-4 4 -5 7 -5 16 0 14 5 20 19 22 6 1 11 2 12 2 2 0 14 -1 21 -2z m-877 -76 c6
-4 6 -6 6 -20 0 -14 0 -16 -6 -20 -4 -4 -7 -5 -18 -5 -11 0 -14 1 -18 5 -6 4
-6 6 -6 20 0 14 0 16 6 20 4 4 7 5 18 5 11 0 14 -1 18 -5z m13 -101 c5 -5 6
-7 6 -17 0 -16 -7 -23 -23 -23 -16 0 -23 7 -23 23 0 16 7 23 23 23 10 0 12 -1
17 -6z m582 -6 c1 0 5 -3 8 -6 5 -5 6 -7 6 -18 0 -11 -1 -13 -6 -18 -6 -6 -7
-6 -18 -6 -11 0 -12 0 -18 6 -5 5 -6 7 -6 17 0 14 3 20 12 24 5 2 8 2 22 1z
m-712 -9 c6 -7 6 -22 -1 -28 -6 -7 -21 -7 -27 -2 -5 5 -6 27 0 32 7 6 21 5 28
-2z m1201 -50 l6 -6 -1 -60 c0 -33 0 -62 1 -64 0 -2 3 -7 6 -11 7 -8 28 -12
36 -7 14 9 42 8 47 -1 5 -8 0 -23 -9 -27 -18 -10 -29 -15 -36 -16 -12 -2 -32
-12 -37 -18 -6 -7 -8 -19 -8 -32 1 -11 0 -12 -5 -18 l-6 -6 -58 1 c-46 0 -60
0 -68 -3 -11 -3 -22 -12 -33 -28 -3 -5 -9 -10 -12 -12 -8 -3 -80 -1 -84 3 -3
3 -7 8 -15 21 -3 4 -8 9 -12 10 -4 2 -7 4 -7 5 0 2 -9 3 -24 3 -11 0 -13 1
-19 6 l-6 6 0 124 0 124 6 6 6 6 163 0 163 0 6 -6z m-468 -49 c5 -5 6 -7 6
-16 0 -15 -8 -23 -23 -23 -9 0 -11 1 -16 7 -9 8 -9 23 -1 32 9 9 24 9 34 0z
m59 -74 c5 -5 5 -15 0 -20 -9 -9 -24 -2 -24 10 0 8 6 14 14 14 3 0 8 -2 10 -4z
m-719 -30 c11 -10 3 -28 -11 -28 -9 0 -16 6 -16 16 0 14 17 22 27 12z m-57
-113 l-5 -5 -4 4 -5 5 4 4 5 5 4 -4 5 -5 -4 -4z m176 -63 c5 -5 5 -15 0 -20
-9 -9 -24 -2 -24 10 0 8 6 14 14 14 3 0 8 -2 10 -4z m-118 -11 c19 -9 31 -48
19 -60 -10 -10 -39 -4 -54 10 -12 12 -13 34 -3 46 8 9 25 11 38 4z"/>
<path d="M106 2956 c-7 -3 -12 -10 -32 -54 -9 -21 -38 -80 -52 -106 -7 -14 -8
-17 -7 -26 1 -14 2 -18 8 -24 15 -16 41 -11 64 11 1 1 5 4 9 7 8 6 18 14 30
25 5 4 15 13 22 19 7 6 16 14 20 18 50 45 52 48 52 64 0 22 -23 43 -52 49 -8
2 -19 7 -26 14 -10 8 -24 10 -36 3z"/>
</g>
</svg>
