<?xml version="1.0" standalone="no"?>
<!DOCTYPE svg PUBLIC "-//W3C//DTD SVG 20010904//EN"
 "http://www.w3.org/TR/2001/REC-SVG-20010904/DTD/svg10.dtd">
<svg version="1.0" xmlns="http://www.w3.org/2000/svg"
 width="1112.000000pt" height="2870.000000pt" viewBox="0 0 1112.000000 2870.000000"
 preserveAspectRatio="xMidYMid meet">
<metadata>
Created by potrace 1.15, written by Peter Selinger 2001-2017
</metadata>
<g transform="translate(0.000000,2870.000000) scale(0.500000,-0.500000)"
fill="#000000" stroke="none">
<path d="M628 3843 c-4 -2 -10 -9 -14 -14 -7 -9 -8 -11 -8 -20 0 -7 1 -11 2
-11 1 0 2 -1 1 -2 0 -1 3 -6 8 -12 13 -14 31 -18 51 -11 9 3 17 4 25 3 7 0 13
-14 11 -24 -3 -16 -16 -20 -38 -12 -13 5 -28 5 -39 1 -13 -5 -22 -4 -34 3 -10
6 -12 6 -25 6 -16 -1 -16 -1 -28 -18 -3 -4 -6 -8 -8 -10 -2 -2 -6 -7 -10 -12
-24 -30 -32 -32 -58 -14 -26 17 -90 54 -93 54 -1 0 -10 5 -21 10 -32 16 -78
34 -115 46 -27 9 -55 -1 -58 -21 -3 -19 5 -28 29 -30 13 -2 13 -2 23 -11 15
-14 30 -20 49 -21 25 -1 38 -9 42 -24 2 -10 1 -16 -5 -31 -11 -22 -9 -36 5
-51 13 -14 40 -50 41 -56 1 -3 1 -9 0 -14 -1 -9 -8 -17 -46 -48 -27 -23 -29
-27 -30 -54 -2 -26 -9 -32 -31 -24 -4 1 -13 3 -20 2 -13 0 -14 -1 -38 -17 -14
-9 -25 -17 -26 -18 -1 -1 -8 -6 -16 -11 -59 -38 -64 -41 -68 -50 -6 -12 -6
-26 2 -40 8 -15 11 -18 20 -23 15 -8 22 -8 43 -3 10 3 20 6 22 6 2 1 12 3 22
6 10 3 19 6 21 6 27 6 165 51 190 62 9 3 20 4 20 1 0 -1 1 -2 2 -1 6 4 -1 -11
-22 -45 -9 -15 -19 -31 -22 -36 -3 -5 -10 -16 -16 -25 -6 -9 -15 -20 -18 -26
-4 -5 -10 -14 -14 -19 -12 -16 -18 -31 -18 -52 0 -13 -4 -16 -25 -23 -20 -6
-22 -8 -58 -48 -22 -24 -75 -77 -95 -95 -8 -7 -18 -16 -23 -20 -4 -4 -11 -10
-15 -13 -5 -3 -8 -6 -8 -7 1 0 -2 -5 -5 -10 -5 -8 -18 -16 -29 -17 -12 -2 -23
-17 -25 -33 -2 -15 9 -36 24 -43 20 -11 42 -6 51 10 2 3 2 3 0 2 -3 -1 -3 -1
0 2 1 1 2 3 1 3 -1 0 -1 1 1 2 2 1 11 1 20 1 14 -1 19 -1 29 3 12 5 22 6 25 2
1 0 2 -6 3 -12 1 -14 5 -22 16 -31 13 -11 48 -24 73 -28 28 -4 28 -5 40 -61 8
-40 11 -66 11 -105 0 -16 -7 -40 -13 -46 -5 -4 -2 -18 5 -26 6 -7 7 -7 18 -7
9 -1 12 0 15 3 2 2 5 5 8 7 3 1 7 3 10 5 3 1 13 3 22 4 9 1 24 2 33 3 9 1 21
3 26 3 6 1 10 2 11 3 0 1 3 -1 6 -5 l6 -7 0 -174 0 -174 6 -23 c6 -22 6 -25 4
-36 -6 -31 -6 -35 -2 -56 12 -59 45 -102 96 -127 33 -15 66 -23 130 -29 7 -1
92 -2 188 -2 174 -1 176 -1 193 3 22 5 33 5 55 0 18 -4 34 -4 113 -1 65 3 73
4 84 9 22 12 25 23 17 62 -5 21 6 36 27 37 22 1 34 -15 29 -39 -7 -29 -1 -44
18 -49 10 -2 12 -2 32 3 64 17 103 43 122 83 36 75 8 159 -65 195 -5 3 -12 7
-14 10 -6 7 -15 11 -32 11 -13 1 -15 0 -16 -3 -1 -1 -5 -7 -8 -11 -7 -8 -13
-22 -17 -38 -3 -12 -10 -17 -23 -17 -10 0 -12 1 -17 6 -7 7 -7 9 -3 41 2 14 0
20 -6 24 -4 3 -6 3 -21 -1 -9 -2 -23 -7 -30 -12 -31 -16 -41 -17 -217 -18 -75
0 -139 -1 -143 -2 -8 -2 -15 -7 -30 -22 -14 -13 -16 -13 -33 3 -21 20 -20 20
-66 21 -22 1 -43 2 -46 3 -3 1 -11 2 -17 3 -22 5 -32 13 -32 26 0 9 4 14 16
22 25 18 26 20 26 109 0 70 0 72 4 80 3 6 7 11 11 12 12 7 16 12 17 26 0 8 -1
15 -3 21 -2 5 -5 16 -8 24 -9 32 -19 39 -57 43 -11 1 -18 5 -18 10 0 2 2 3 4
3 4 0 44 13 52 17 14 7 16 10 16 25 l0 14 -10 8 c-6 4 -11 8 -12 8 -4 0 -10
14 -10 23 0 24 16 30 44 17 33 -14 41 -13 68 11 8 7 17 12 26 16 23 9 32 14
39 26 9 14 17 19 28 19 5 0 11 -1 12 -2 3 -3 24 -3 31 -1 3 1 9 5 14 8 15 13
28 13 48 3 15 -9 30 -9 41 -1 14 8 58 51 75 71 6 7 12 14 14 16 6 6 11 13 18
23 4 6 9 12 11 15 4 6 6 8 17 26 4 6 8 13 8 13 0 1 3 6 7 11 10 16 31 61 40
85 3 8 6 16 7 18 3 7 16 48 17 54 2 8 8 15 12 14 3 -2 7 -11 7 -19 0 -6 8 -18
12 -18 1 0 2 -1 1 -2 -1 -1 0 -2 0 -2 1 0 2 -3 1 -7 -1 -23 3 -45 10 -54 4 -5
12 -33 15 -51 3 -19 15 -54 23 -67 6 -10 16 -16 37 -22 22 -7 25 -9 27 -24 0
-10 -4 -26 -8 -29 -3 -2 -7 -17 -8 -25 0 -13 16 -43 57 -102 15 -20 42 -52 67
-76 l24 -25 14 0 c18 0 23 3 42 22 23 23 33 27 42 18 9 -9 3 -22 -15 -32 -18
-10 -24 -17 -26 -26 -1 -8 4 -29 8 -34 2 -2 3 -4 3 -5 0 -3 -18 1 -45 10 -34
11 -66 20 -102 27 -50 10 -60 11 -73 5 -10 -4 -12 -8 -17 -24 l-3 -11 5 -11
c5 -11 16 -21 31 -33 8 -6 9 -12 13 -49 0 -4 3 -9 8 -14 4 -4 7 -8 7 -9 0 -1
1 -3 3 -4 3 -4 19 -27 23 -37 3 -4 6 -9 8 -12 5 -4 25 -45 39 -79 18 -42 32
-88 41 -134 7 -39 16 -52 45 -67 31 -16 44 -20 76 -20 25 0 30 1 43 5 27 10
45 22 67 43 43 43 64 111 53 171 -1 6 -3 13 -3 16 -2 11 -10 30 -20 51 -12 24
-20 33 -42 53 -7 5 -16 15 -20 22 -4 6 -10 14 -14 18 -11 12 -45 36 -65 47
-19 9 -28 23 -17 25 2 0 4 1 5 2 1 0 4 2 7 4 8 4 12 13 17 34 2 11 5 20 5 22
0 2 1 5 2 8 6 30 29 76 46 95 12 13 14 17 13 29 -1 14 -6 20 -24 30 -16 8 -21
24 -14 42 7 17 43 17 50 0 12 -33 17 -40 30 -44 11 -4 22 -2 64 15 30 12 42
43 28 75 -7 17 -22 27 -61 40 -10 3 -23 8 -29 10 -6 2 -12 5 -13 5 -3 1 -5 2
-38 15 -43 19 -104 49 -113 57 -2 2 -6 3 -9 4 -3 1 -7 2 -8 3 -1 0 -3 1 -5 1
-2 0 -5 -1 -6 -1 -6 0 -13 -9 -15 -17 -2 -8 -2 -10 10 -34 10 -20 13 -29 14
-38 0 -6 2 -13 3 -15 1 -2 2 -4 1 -4 -3 0 8 -17 17 -24 12 -11 15 -16 15 -29
0 -18 -9 -27 -25 -27 -4 -1 -21 0 -38 1 -31 1 -31 1 -37 7 -9 9 -8 21 3 37 13
20 15 33 6 58 -11 33 -10 32 -35 45 -18 10 -23 14 -23 23 0 10 7 15 21 15 7 0
16 1 20 3 11 5 20 19 15 24 -1 1 -2 3 -2 5 0 9 -10 23 -37 49 -32 32 -35 36
-54 60 -12 17 -14 21 -13 30 1 6 6 15 10 16 3 2 7 5 13 10 1 1 8 7 16 13 25
19 40 34 49 46 5 7 11 15 13 17 2 3 10 9 19 14 15 9 20 13 36 33 4 5 14 14 22
21 14 9 25 20 43 40 23 25 38 41 44 49 8 11 19 17 38 22 23 6 36 13 50 28 l13
12 0 14 c0 12 -1 15 -5 20 -7 8 -14 10 -36 13 -16 2 -20 5 -29 23 -12 24 -18
27 -88 53 -32 11 -81 29 -84 30 -2 1 -3 2 -4 2 -1 0 -2 1 -4 2 -7 3 -53 19
-57 20 -8 2 -24 -3 -31 -9 -10 -10 -14 -24 -19 -62 -1 -13 -5 -28 -9 -39 -12
-34 -14 -40 -14 -45 0 -6 5 -21 8 -24 1 -2 4 -6 7 -9 3 -4 13 -12 23 -18 15
-9 20 -11 27 -11 4 0 10 0 12 -2 3 -1 5 -1 6 0 1 0 1 0 1 -1 0 -1 0 -4 1 -7 1
-6 -5 -30 -9 -35 -3 -3 -25 -14 -30 -15 -5 -1 -8 0 -8 2 2 5 -17 42 -22 45 -2
1 -9 2 -16 2 -20 -1 -22 -4 -37 -51 -7 -19 -12 -35 -12 -36 1 -1 1 -4 2 -9 2
-14 10 -25 28 -33 10 -5 12 -8 15 -20 2 -9 0 -22 -6 -29 -9 -10 -31 -11 -43
-1 -5 4 -6 8 -12 34 -6 26 -10 37 -19 46 -6 7 -30 20 -35 20 -4 0 -11 9 -11
14 0 6 6 18 13 26 4 6 6 10 10 25 0 3 -1 12 -3 21 -2 10 -5 23 -5 31 -1 16 -7
38 -13 45 -13 18 -15 35 -8 50 2 4 6 9 7 10 2 1 3 3 3 5 0 1 1 3 3 5 6 7 9 23
10 60 1 36 1 37 7 44 3 4 6 8 7 8 4 0 22 13 29 22 11 13 25 44 24 55 0 18 -10
31 -23 34 -4 1 -12 0 -21 -3 -21 -6 -29 -6 -44 1 -24 12 -27 13 -44 10 -26 -5
-35 -4 -59 4 -14 5 -28 8 -41 9 -27 3 -48 4 -58 5 -5 1 -19 2 -32 3 -36 3 -50
-1 -59 -21 l-5 -11 0 -58 c0 -64 1 -69 13 -82 3 -4 10 -10 15 -13 13 -8 16
-13 16 -22 0 -9 -9 -21 -15 -21 -2 0 -3 -1 -3 -2 0 -1 -1 -2 -3 -2 -3 0 -13
-11 -17 -19 -5 -9 -6 -14 -7 -98 -1 -81 -2 -90 -5 -135 -1 -16 -3 -41 -4 -56
-1 -14 -2 -27 -3 -28 -1 -1 -2 7 -1 11 0 2 -1 2 -3 2 -2 -1 -3 -2 -2 -3 1 -1
0 -2 -1 -3 -1 -1 -2 0 -2 1 0 2 -1 16 -1 32 -1 50 -14 122 -28 161 -2 4 -4 11
-5 14 -9 33 -59 139 -73 152 -5 6 -26 19 -37 25 -5 2 -9 5 -10 6 -1 1 -8 6
-17 12 -8 6 -17 12 -19 13 -2 2 -12 9 -23 17 -11 7 -22 15 -25 18 -3 2 -16 11
-30 20 -14 9 -25 17 -26 18 -7 8 -34 23 -37 20 0 0 -1 0 -1 2 0 1 -1 2 -2 2
-4 0 -15 10 -18 16 -1 2 -7 7 -14 11 -6 4 -11 8 -12 9 -1 1 -5 4 -10 8 -12 8
-29 9 -40 1z m532 -45 c5 -5 5 -11 0 -16 -10 -10 -27 5 -16 16 4 4 12 4 16 0z
m-345 -181 c3 -2 9 -8 13 -13 17 -22 28 -24 54 -13 17 8 20 8 27 3 6 -5 7 -15
2 -39 -1 -9 -4 -25 -5 -35 -3 -20 -7 -43 -10 -53 -14 -38 -31 -69 -45 -80 -4
-3 -9 -7 -10 -8 -1 -1 -6 -5 -11 -8 -21 -15 -46 -42 -57 -61 -2 -4 -4 -7 -5
-8 -2 -2 -16 -33 -17 -38 -3 -12 -10 -8 -16 10 -4 13 -13 23 -33 34 -13 8 -14
9 -20 21 -8 18 -15 26 -28 34 -16 10 -18 13 -18 24 0 10 5 19 12 19 7 0 22 8
27 15 5 6 6 9 6 17 0 5 -1 11 -2 12 -1 2 -3 7 -5 12 -1 5 -5 14 -8 21 -17 35
-19 49 -8 59 6 6 7 6 20 6 9 0 19 -5 22 -11 5 -10 14 -14 29 -15 14 0 14 0 24
8 5 4 10 8 11 8 0 0 4 4 7 10 6 9 6 9 6 34 -1 28 1 32 11 37 7 3 21 2 27 -2z
m-232 -40 c4 -4 5 -7 5 -15 0 -14 -6 -20 -20 -20 -14 0 -20 6 -20 20 0 14 6
20 20 20 8 0 11 -1 15 -5z m680 -39 c16 -7 16 -43 -1 -50 -15 -6 -34 -2 -39 9
-4 8 -4 24 0 32 5 12 23 15 40 9z m-833 -25 l-5 -5 -4 4 -5 5 4 4 5 5 4 -4 5
-5 -4 -4z m181 -32 c12 -12 3 -31 -13 -31 -11 0 -18 7 -18 18 0 11 7 18 18 18
6 0 9 -1 13 -5z m1017 1 c7 -7 4 -14 -8 -22 -6 -4 -6 -4 -12 2 -6 5 -6 6 -4
10 7 13 17 17 24 10z m-657 -36 c5 -5 6 -7 6 -16 0 -15 -8 -23 -23 -23 -17 0
-25 12 -21 30 3 16 25 22 38 9z m316 -40 c7 -3 12 -13 12 -25 0 -13 -3 -18
-16 -30 -28 -25 -51 -25 -58 0 -7 23 0 41 19 50 18 9 28 10 43 5z m-733 -2 c5
-5 5 -15 0 -20 -9 -9 -24 -2 -24 10 0 8 6 14 14 14 3 0 8 -2 10 -4z m988 -40
c2 -4 1 -6 -2 -9 l-5 -5 -4 4 -5 5 5 7 c4 8 8 8 11 -2z m-949 -51 c3 -5 3 -5
0 -10 -4 -6 -10 -7 -14 -3 -4 4 -4 9 1 14 4 5 8 5 13 -1z m394 -10 c14 -2 21
-9 21 -23 0 -14 -3 -19 -17 -25 -13 -6 -23 -15 -23 -20 0 -2 -1 -8 -1 -12 -1
-5 0 -13 2 -20 6 -22 -3 -37 -24 -40 -14 -2 -28 -8 -42 -16 -25 -15 -43 -11
-43 10 0 13 2 16 17 23 36 17 42 27 35 60 -5 21 -2 31 14 48 9 11 31 19 46 17
3 -1 9 -1 15 -2z m-431 -30 c5 -6 7 -30 1 -40 -8 -16 -40 -16 -48 0 -4 8 -4
24 0 32 6 13 38 18 47 8z m681 0 c6 -4 6 -6 6 -20 0 -16 -4 -23 -11 -23 -2 0
-4 -1 -4 -2 0 -3 -20 -1 -25 3 -7 4 -9 12 -9 26 2 16 7 21 25 21 11 0 14 -1
18 -5z m-186 -71 c-1 -10 -2 -18 -2 -20 -3 -9 -4 -21 -4 -34 0 -32 18 -48 56
-51 20 -1 28 -10 28 -29 -1 -12 -5 -21 -13 -25 -14 -6 -28 -15 -32 -17 -13
-11 -32 -16 -40 -9 -6 5 -15 7 -26 7 -19 -1 -25 -6 -23 -21 2 -12 6 -20 14
-28 11 -10 13 -15 13 -28 0 -10 -1 -12 -6 -17 -3 -3 -7 -6 -9 -6 -11 -1 -19 0
-23 2 -6 3 -29 3 -37 -1 -4 -2 -12 -10 -19 -19 -22 -29 -56 -64 -83 -87 -8 -7
-15 -13 -16 -14 -4 -3 -9 -7 -18 -14 -10 -8 -11 -8 -18 -14 -4 -3 -8 -5 -9 -5
-1 0 -2 -1 -2 -2 0 -5 -16 -17 -33 -25 -10 -5 -22 -12 -28 -15 -16 -10 -30
-17 -32 -17 -2 0 -4 1 -6 1 -5 0 -2 11 6 27 28 57 49 136 57 219 1 12 2 26 3
32 1 6 2 39 2 74 1 70 1 74 6 77 2 1 3 4 3 5 0 2 3 -3 6 -10 4 -7 7 -13 8 -14
1 -1 4 -5 7 -10 7 -10 21 -23 31 -29 3 -2 6 -4 6 -5 0 -2 12 -6 18 -6 3 0 13
3 22 6 9 3 18 6 20 6 5 0 19 -7 23 -11 6 -5 21 -10 31 -9 17 2 51 27 67 50 3
5 7 11 9 13 7 7 36 71 34 76 0 0 1 1 2 1 1 0 2 1 2 2 -1 2 2 10 4 10 1 0 1 -7
1 -16z m206 -19 c7 -4 9 -12 9 -26 -2 -16 -7 -21 -25 -21 -11 0 -14 1 -18 5
-6 4 -6 6 -6 20 0 16 4 23 11 23 2 0 4 1 4 2 0 3 20 1 25 -3z m185 -54 c6 -7
6 -22 -1 -28 -5 -6 -21 -7 -27 -2 -2 2 -4 3 -6 3 -1 0 -2 2 -2 4 0 2 -1 4 -2
3 -3 -2 6 17 9 21 6 7 22 6 29 -1z m-1001 -64 c3 -5 3 -5 0 -10 -2 -3 -5 -5
-7 -5 -2 0 -5 2 -7 5 -3 5 -3 5 0 10 2 3 5 5 7 5 2 0 5 -2 7 -5z m106 -3 c4
-6 4 -24 -1 -30 -7 -9 -27 -9 -34 0 -5 6 -5 24 0 30 7 9 27 9 35 0z m-213 -45
c12 -3 31 -12 40 -21 17 -16 34 -19 52 -8 11 7 11 7 15 4 4 -5 5 -9 2 -24 -3
-17 -8 -33 -17 -51 -10 -21 -20 -26 -59 -29 -13 -1 -27 -3 -31 -3 -19 -2 -25
-3 -53 -7 -31 -4 -40 -4 -49 2 l-4 3 8 3 c17 7 71 35 77 40 5 4 5 6 5 19 0 13
-1 15 -5 20 -3 3 -6 5 -7 5 -4 0 -10 14 -10 24 0 21 12 28 36 23z m-219 -130
c4 -5 4 -7 0 -15 -2 -3 -3 -8 -2 -11 0 -3 0 -5 -1 -5 -2 0 -3 4 -2 8 0 1 -2 2
-4 3 -2 1 -4 3 -5 5 -1 2 -2 4 -3 4 -3 0 -3 9 1 14 4 5 10 4 16 -3z m1790 -31
c10 -9 3 -26 -10 -26 -8 0 -15 7 -15 15 0 13 16 20 25 11z m-1277 -13 c10 -3
16 -11 16 -21 0 -18 -18 -23 -42 -13 -13 6 -19 24 -9 32 7 7 17 8 35 2z m-125
-31 c11 -10 3 -28 -11 -28 -9 0 -16 6 -16 16 0 14 17 22 27 12z m1216 -59 c3
-5 3 -5 0 -10 -2 -3 -5 -5 -7 -5 -2 0 -5 2 -7 5 -3 5 -3 5 0 10 2 3 5 5 7 5 2
0 5 -2 7 -5z m-1158 -17 c11 -10 3 -28 -11 -28 -9 0 -16 6 -16 16 0 14 17 22
27 12z m109 -46 c1 -2 2 -13 2 -24 0 -22 -3 -28 -16 -35 l-7 -3 1 -16 c1 -19
0 -17 19 -26 9 -3 10 -9 6 -18 -2 -3 -3 -9 -3 -12 0 -5 -2 -9 -10 -17 -6 -5
-14 -12 -17 -15 -4 -4 -8 -10 -10 -14 -7 -13 -15 -20 -24 -20 -8 0 -17 6 -17
12 0 11 -13 38 -23 50 -6 6 -10 26 -8 35 1 3 10 14 22 26 26 26 28 30 28 57
-1 26 0 27 17 25 6 0 15 0 19 1 9 2 18 -1 21 -6z m972 -234 c21 -6 17 -30 -7
-46 -19 -13 -45 -7 -48 12 -2 18 4 31 17 34 10 2 30 2 38 0z m92 -16 c5 -5 5
-11 0 -16 -10 -10 -27 5 -16 16 4 4 12 4 16 0z m-1083 -88 c11 -10 3 -28 -11
-28 -9 0 -16 6 -16 16 0 14 17 22 27 12z m1132 -145 c4 -4 5 -7 5 -15 0 -14
-6 -20 -20 -20 -14 0 -20 6 -20 20 0 14 6 20 20 20 8 0 11 -1 15 -5z m-1170
-12 c3 -3 3 -3 0 -6 -4 -5 -11 1 -7 6 4 4 4 4 7 0z m678 -47 c11 -10 3 -28
-11 -28 -9 0 -16 6 -16 16 0 14 17 22 27 12z m-614 -31 c6 -6 6 -14 1 -31 -3
-9 -4 -18 -4 -32 0 -16 -1 -20 -5 -23 -5 -7 -15 -6 -21 0 -5 5 -5 5 -2 22 2
11 2 24 1 38 -1 21 -1 21 4 26 7 7 19 7 26 0z m836 -57 c10 -9 3 -26 -10 -26
-8 0 -15 7 -15 15 0 13 16 20 25 11z m-656 -57 c3 -3 3 -3 0 -6 -4 -5 -11 1
-7 6 4 4 4 4 7 0z"/>
<path d="M1003 2760 c-4 -5 -11 -22 -11 -27 0 -2 1 -5 3 -7 2 -4 9 -7 9 -4 0
0 3 1 7 2 7 0 19 11 19 18 0 2 1 4 2 4 2 0 1 13 -2 14 -1 0 -2 1 -1 2 2 3 -23
1 -26 -2z"/>
<path d="M971 2703 c-6 -3 -19 -8 -31 -12 -25 -9 -29 -11 -34 -21 -6 -12 -4
-21 12 -53 8 -17 18 -36 22 -44 7 -17 21 -32 34 -39 5 -2 10 -6 12 -7 5 -5 32
-13 42 -13 18 0 31 -6 33 -14 0 -2 2 -7 5 -11 2 -4 4 -8 4 -9 0 -2 15 -17 24
-25 11 -8 13 -12 12 -25 0 -20 -9 -30 -25 -30 -12 0 -18 4 -21 14 -6 22 -18
38 -34 45 -4 2 -8 4 -8 5 0 2 -14 3 -24 1 -10 -2 -17 -13 -15 -25 0 -4 1 -11
2 -17 1 -5 2 -14 2 -18 1 -5 2 -16 2 -26 1 -20 6 -37 14 -47 6 -6 26 -22 28
-22 1 0 3 -1 5 -3 6 -5 38 -17 53 -20 30 -6 64 -2 91 10 13 7 35 20 39 24 2 2
5 4 7 5 2 1 3 5 4 17 1 21 -4 25 -33 31 -26 6 -31 10 -31 27 0 22 13 28 48 19
10 -2 19 -5 21 -5 6 -2 24 2 32 6 8 5 12 15 10 32 -1 8 -2 25 -2 39 l0 25 -9
18 c-32 64 -104 116 -209 151 -10 4 -19 7 -20 7 -8 2 -26 8 -30 10 -8 6 -21 6
-32 0z m65 -84 c3 -3 4 -7 4 -14 0 -13 -6 -19 -19 -19 -13 0 -19 6 -19 19 0 7
1 11 4 14 7 8 23 8 30 0z"/>
<path d="M355 2486 c-4 -2 -12 -4 -17 -5 -28 -2 -41 -11 -53 -34 -3 -7 -8 -15
-10 -18 -3 -4 -10 -16 -15 -28 -11 -24 -15 -27 -35 -33 -46 -14 -89 -46 -114
-86 -39 -62 -34 -111 14 -139 17 -10 21 -19 14 -31 -4 -7 -4 -30 0 -39 2 -5 7
-9 17 -16 16 -10 26 -13 45 -9 12 2 29 -2 41 -8 22 -12 79 18 106 55 5 7 10
13 10 14 1 1 7 8 13 15 20 24 38 67 47 109 11 55 10 126 -4 189 -12 54 -14 60
-25 65 -8 4 -27 4 -34 -1z m-34 -155 c5 -5 7 -17 6 -37 0 -9 0 -18 1 -22 1 -3
2 -11 3 -18 2 -15 -2 -22 -12 -22 -8 0 -13 7 -13 19 0 15 -5 30 -13 44 -9 15
-10 28 -2 36 7 7 23 7 30 0z"/>
<path d="M1453 2459 c-4 -6 -12 -22 -27 -54 -5 -10 -12 -26 -17 -37 -15 -30
-17 -36 -17 -45 0 -22 16 -32 50 -29 9 1 14 0 17 -3 2 -3 6 -3 15 -2 16 1 17
1 21 9 5 7 5 8 4 73 -1 65 -3 83 -9 90 -1 2 -8 3 -18 3 -15 1 -16 1 -19 -5z"/>
</g>
</svg>
