<?xml version="1.0" standalone="no"?>
<!DOCTYPE svg PUBLIC "-//W3C//DTD SVG 20010904//EN"
 "http://www.w3.org/TR/2001/REC-SVG-20010904/DTD/svg10.dtd">
<svg version="1.0" xmlns="http://www.w3.org/2000/svg"
 width="1107.000000pt" height="2870.000000pt" viewBox="0 0 1107.000000 2870.000000"
 preserveAspectRatio="xMidYMid meet">
<metadata>
Created by potrace 1.15, written by Peter Selinger 2001-2017
</metadata>
<g transform="translate(0.000000,2870.000000) scale(0.500000,-0.500000)"
fill="#000000" stroke="none">
<path d="M1646 3842 c-3 -3 -8 -9 -12 -14 -4 -5 -7 -9 -8 -10 -1 -1 -9 -11
-18 -23 -9 -12 -17 -22 -18 -23 -1 -1 -4 -5 -7 -9 -3 -4 -6 -8 -7 -9 -1 -1 -6
-7 -12 -15 -12 -16 -15 -27 -8 -41 5 -9 16 -14 36 -14 23 -1 30 -8 30 -26 0
-20 -8 -26 -33 -24 -26 3 -45 8 -51 14 -8 8 -14 16 -13 16 1 0 -2 3 -7 6 -15
12 -17 12 -126 12 -109 0 -114 0 -126 -12 -8 -7 -11 -25 -5 -30 2 -2 3 -5 3
-6 0 -1 3 -5 8 -8 10 -10 13 -15 15 -28 1 -16 8 -30 18 -35 11 -7 42 -7 54 -1
11 6 16 11 21 22 8 16 13 22 21 22 6 0 8 -1 13 -8 3 -5 6 -10 6 -11 0 -4 11
-17 19 -23 7 -5 10 -5 36 -6 26 -1 29 -1 36 -6 4 -3 6 -5 4 -6 -1 0 -6 -6 -12
-13 -5 -7 -11 -15 -13 -17 -2 -1 -6 -7 -10 -12 -4 -5 -8 -10 -9 -11 -1 -1 -8
-9 -14 -17 -22 -28 -9 -26 -178 -26 -149 0 -148 0 -153 -10 -1 -2 -2 -9 -2
-16 0 -10 -1 -12 -3 -12 -3 0 -2 -1 1 -2 3 -1 9 -6 15 -15 5 -8 14 -18 19 -24
10 -9 16 -17 24 -31 3 -5 3 -6 1 -8 -4 -4 -21 -4 -33 0 -9 2 -13 5 -27 18 -4
3 -11 8 -15 10 -5 3 -11 7 -15 11 -6 6 -7 7 -7 18 0 14 4 21 11 21 3 0 3 1 1
1 -3 1 -4 4 -4 13 0 27 5 26 -115 26 l-100 0 -18 -6 c-22 -7 -28 -7 -50 0
l-18 6 -101 0 c-98 0 -116 -1 -116 -6 0 -1 -1 -2 -3 -2 -6 0 -21 -28 -26 -49
-4 -15 -5 -24 -4 -29 4 -15 16 -28 31 -34 10 -4 16 -4 190 -4 166 0 179 0 184
-3 7 -5 11 -9 9 -9 -2 0 -7 -9 -13 -28 -6 -16 -7 -18 -28 -28 -14 -7 -20 -11
-42 -34 -47 -46 -82 -78 -130 -117 -6 -5 -37 -28 -41 -31 -3 -2 -14 -9 -25
-17 -12 -7 -23 -15 -26 -17 -4 -3 -16 -10 -32 -18 -2 -1 -15 -8 -29 -15 -25
-12 -48 -26 -71 -43 l-11 -8 -4 4 c-3 3 -5 6 -5 7 0 1 -1 7 -3 13 -4 13 -12
21 -30 29 -17 8 -19 11 -19 23 0 12 4 17 16 21 17 6 27 14 33 26 l5 11 0 87
c-1 78 -1 89 -5 99 -9 27 -9 33 0 60 4 10 4 20 4 110 l0 99 6 6 6 6 59 0 c58
0 59 0 67 5 8 4 20 16 25 23 7 12 33 12 40 0 5 -7 17 -19 25 -23 l8 -5 120 -1
120 0 21 6 c25 8 26 8 51 0 l19 -6 66 0 c84 0 86 1 90 28 1 9 1 12 -1 12 -2 0
-3 1 -3 2 0 0 -6 8 -14 15 -10 12 -14 17 -17 26 -5 17 -11 27 -21 34 l-9 6
-225 1 -225 0 -10 -5 c-6 -3 -14 -8 -17 -13 -4 -4 -9 -10 -13 -12 -6 -4 -6 -4
-12 1 -3 2 -7 5 -7 6 -4 5 -12 12 -19 17 -8 5 -9 5 -57 6 -36 1 -52 2 -60 5
-12 3 -48 15 -124 41 -152 52 -162 55 -173 52 -21 -5 -27 -17 -27 -57 0 -31 2
-43 12 -56 16 -23 16 -31 0 -54 -12 -16 -12 -18 -12 -132 0 -108 0 -112 8
-123 4 -5 29 -21 32 -21 4 2 10 -9 10 -18 0 -9 -6 -20 -10 -18 0 0 -7 -4 -14
-8 -20 -11 -26 -21 -26 -44 0 -20 5 -31 21 -50 15 -16 15 -26 3 -41 -14 -17
-20 -25 -22 -33 -1 -5 -2 -51 -3 -109 -1 -56 -2 -115 -2 -132 -3 -83 -4 -129
-6 -154 0 -8 -1 -24 -2 -35 -4 -74 -16 -199 -24 -256 -2 -11 -3 -23 -4 -27 -4
-31 -6 -41 -12 -79 -6 -37 -6 -36 -11 -60 -8 -38 -4 -49 20 -60 21 -10 24 -17
15 -36 -7 -13 -9 -25 -9 -41 0 -19 -3 -22 -26 -22 -20 1 -32 -3 -38 -12 -3 -4
-16 -44 -21 -63 -2 -7 -19 -55 -27 -77 -9 -24 -10 -36 -4 -50 7 -13 27 -19 41
-10 17 9 94 84 118 115 2 3 5 7 6 9 2 1 7 8 12 15 6 6 12 14 14 16 2 2 7 10
12 17 5 7 10 15 11 16 4 4 44 65 44 67 0 0 3 6 7 11 7 13 24 44 35 66 27 55
43 92 68 164 17 48 42 145 53 203 1 3 3 18 6 33 9 49 21 137 25 191 4 44 5 49
12 49 2 0 7 -11 21 -44 10 -23 19 -47 21 -51 2 -4 8 -19 14 -32 5 -13 14 -35
20 -49 20 -48 23 -52 44 -52 11 0 12 0 22 10 5 5 11 12 14 15 10 15 19 19 61
26 123 22 243 45 244 46 1 0 4 -2 7 -4 l6 -6 0 -104 1 -104 -6 -6 -6 -6 -154
1 c-85 0 -159 0 -164 -1 -13 -1 -27 -10 -37 -22 -4 -5 -11 -11 -17 -14 -22
-12 -30 -22 -31 -39 -1 -9 6 -25 16 -34 14 -14 15 -14 121 -14 l94 1 8 5 c9 4
16 12 28 27 12 17 37 17 50 0 22 -29 28 -32 61 -32 l25 0 6 -6 6 -6 0 -129 0
-129 -6 -6 c-4 -4 -7 -6 -11 -5 -20 2 -35 -16 -34 -42 0 -7 -4 -17 -8 -20 -4
-2 -6 -13 -6 -24 0 -14 4 -19 25 -30 l14 -7 474 -1 c426 0 476 0 483 3 5 2 10
3 11 4 18 5 41 32 46 52 1 5 0 11 -2 18 -4 14 -15 26 -53 56 -14 11 -25 20
-26 21 -1 1 -4 3 -8 6 -4 3 -7 5 -8 6 -3 4 -50 37 -55 39 -10 4 -19 5 -32 1
-36 -8 -52 3 -50 34 0 6 -1 12 -4 28 -1 3 -2 5 -3 6 -1 0 -2 1 -2 3 0 3 -6 10
-12 14 -4 2 -9 3 -17 3 -19 -1 -17 1 -55 -52 -5 -6 -14 -19 -20 -27 -6 -8 -16
-22 -22 -30 -6 -8 -16 -21 -21 -29 -6 -7 -12 -15 -13 -17 -1 -3 -7 -7 -12 -10
-10 -4 -13 -5 -33 -5 -24 0 -32 -3 -39 -12 -5 -6 -8 -27 -6 -29 1 -1 2 -6 2
-11 0 -14 -6 -20 -20 -20 -14 0 -20 6 -20 20 0 5 1 10 2 11 2 2 -1 23 -6 29
-8 11 -12 12 -69 12 l-52 -1 -6 6 -6 6 0 90 c1 76 0 90 -2 94 -2 2 -3 5 -2 5
2 3 -12 7 -22 7 -5 0 -11 0 -11 2 -1 1 -2 1 -2 -1 0 -8 -23 -11 -36 -6 -17 7
-17 43 0 50 13 5 36 2 36 -6 0 -2 1 -2 2 -1 0 2 6 2 11 2 10 0 24 4 22 7 -1 0
0 3 2 5 1 2 2 5 2 7 0 1 3 5 6 9 l6 6 84 -1 c80 0 85 0 104 4 26 6 25 6 48 1
19 -5 24 -5 100 -5 47 0 84 1 89 2 14 3 29 12 38 21 9 10 22 34 22 42 0 10 -8
26 -16 34 -10 9 -32 28 -54 45 -5 4 -10 8 -12 9 -2 2 -13 11 -26 20 -13 9 -27
20 -31 23 -4 3 -23 17 -42 31 -42 32 -40 30 -52 42 -16 16 -19 17 -32 17 -17
-1 -20 -3 -41 -32 -10 -15 -24 -34 -31 -43 -31 -42 -40 -55 -48 -65 -14 -19
-18 -21 -62 -22 l-38 -1 -6 6 -6 6 1 65 1 65 5 7 c3 5 9 9 14 12 20 9 37 29
48 58 5 13 6 16 4 24 -4 17 -11 24 -26 30 -7 2 -11 3 -42 5 -28 2 -33 3 -31 8
0 2 0 3 -2 4 -2 1 -3 1 42 10 19 4 39 9 44 11 9 4 19 13 20 19 0 1 2 7 4 13 1
6 3 14 3 18 0 7 9 18 15 18 21 1 26 -1 34 -15 13 -23 31 -32 51 -26 27 8 46 5
53 -6 2 -3 4 -6 5 -7 3 -3 42 -65 42 -67 0 -3 18 -32 25 -39 18 -19 46 -29 83
-29 20 0 25 1 38 6 33 11 60 30 76 53 3 4 5 7 6 8 2 1 17 31 21 41 5 13 9 38
9 60 0 40 -13 80 -40 121 -12 19 -77 86 -91 93 -4 2 -7 5 -7 5 0 1 -1 2 -2 2
-1 0 -7 3 -13 8 -51 33 -141 66 -223 81 -3 0 -10 2 -16 3 -6 1 -24 3 -40 4
-44 3 -66 10 -69 23 -2 10 -13 18 -71 56 -32 22 -61 41 -63 43 -2 2 -6 4 -8 4
-2 0 -3 1 -1 1 1 1 2 3 2 5 0 2 1 4 3 5 2 0 131 1 287 1 254 0 284 0 294 3 22
7 36 19 48 40 9 16 9 29 3 42 -4 8 -20 25 -23 25 -1 0 -3 1 -4 3 -2 1 -11 8
-20 15 -9 6 -18 13 -19 14 -1 1 -5 3 -8 5 -3 2 -9 6 -14 10 -13 10 -32 9 -47
-4 -12 -10 -15 -11 -24 -11 -13 0 -14 0 -20 6 -5 5 -6 7 -6 17 0 7 1 13 2 14
5 5 1 41 -4 41 -1 0 1 2 4 6 l7 5 66 0 c36 1 90 1 119 1 l53 1 13 6 c17 8 30
21 39 39 8 17 8 25 1 41 -4 9 -8 12 -22 23 -4 3 -8 6 -10 8 -9 8 -49 37 -66
49 -8 5 -16 11 -18 12 -1 2 -3 3 -4 3 -1 0 -3 2 -5 4 -2 1 -9 7 -16 11 -7 4
-12 8 -13 9 -1 1 -9 6 -18 13 -22 14 -62 43 -67 48 -3 2 -9 8 -15 13 l-10 10
-16 0 c-14 0 -16 -1 -20 -6z m-1256 -260 c10 -2 18 -9 18 -16 0 -9 -9 -19 -21
-24 -25 -10 -42 -3 -42 18 0 20 17 28 45 22z m757 -310 c2 -2 4 -8 6 -13 4
-16 8 -25 12 -30 2 -2 8 -8 12 -14 15 -16 11 -33 -7 -33 -9 0 -15 6 -21 20 -6
14 -6 15 -17 24 -23 17 -22 16 -22 29 0 13 4 19 14 21 8 2 19 -1 23 -4z m133
-79 c12 -5 17 -20 14 -37 -3 -12 -1 -30 3 -38 1 -3 26 -29 54 -57 29 -29 56
-57 62 -63 l9 -10 -4 -4 c-8 -7 -12 -8 -69 -8 -31 0 -56 0 -57 -1 -1 -1 -207
-3 -291 -4 -43 0 -47 1 -55 8 -2 3 -2 3 1 3 2 0 92 45 121 60 7 4 19 11 27 15
8 4 18 10 23 13 13 8 28 17 34 19 5 3 6 4 22 14 4 3 9 5 9 5 3 0 31 19 35 24
8 8 13 18 18 36 2 8 6 17 8 19 7 8 24 11 36 6z m-972 -217 c5 -6 5 -12 0 -18
-7 -8 -22 -2 -22 9 0 11 15 17 22 9z m287 -40 c8 -8 8 -24 -1 -32 -13 -14 -38
-6 -38 12 -1 13 0 16 5 21 10 8 25 8 34 -1z m720 -25 c6 -4 6 -6 6 -20 0 -14
0 -16 -6 -20 -4 -4 -7 -5 -18 -5 -11 0 -14 1 -18 5 -6 4 -6 6 -6 20 0 14 0 16
6 20 4 4 7 5 18 5 11 0 14 -1 18 -5z m-544 -12 c4 -4 5 -7 5 -15 0 -14 -6 -20
-20 -20 -14 0 -20 6 -20 20 0 14 6 20 20 20 8 0 11 -1 15 -5z m164 -28 c12
-12 3 -31 -13 -31 -11 0 -18 7 -18 18 0 11 7 18 18 18 6 0 9 -1 13 -5z m761
-26 c21 -9 20 -45 -2 -54 -10 -5 -28 -1 -34 6 -9 10 -9 32 0 42 7 8 24 11 36
6z m-517 -104 c2 -4 2 -4 -2 -10 -4 -4 -5 -5 -9 -3 -3 1 -6 1 -6 1 -1 -1 -1 1
-1 4 0 9 12 14 18 8z m-40 -22 c9 -4 10 -8 4 -25 -7 -20 -12 -24 -28 -24 -11
0 -14 1 -18 5 -6 4 -6 6 -6 20 0 20 3 23 23 25 7 1 14 2 16 2 1 0 5 -1 9 -3z
m-800 -133 c5 -5 6 -7 6 -16 0 -15 -8 -23 -23 -23 -9 0 -11 1 -16 7 -9 8 -9
23 -1 32 9 9 24 9 34 0z m-106 -27 c5 -8 1 -16 -8 -16 -9 0 -13 8 -8 16 2 3 5
5 8 5 3 0 6 -2 8 -5z m1384 -22 c4 -4 5 -7 5 -15 0 -14 -6 -20 -20 -20 -14 0
-20 6 -20 20 0 14 6 20 20 20 8 0 11 -1 15 -5z m-1340 -73 c7 -6 7 -19 1 -25
-6 -7 -19 -7 -25 -1 -7 6 -7 19 -1 25 6 7 19 7 25 1z"/>
<path d="M383 2108 c-15 -6 -22 -16 -23 -34 -1 -6 13 -52 17 -60 5 -11 16 -20
27 -24 10 -4 16 -4 214 -4 227 0 215 -1 221 13 6 13 5 25 -2 35 -3 6 -10 16
-14 22 -18 29 -26 41 -32 44 -3 2 -7 4 -8 5 -1 1 -3 2 -5 3 -6 2 -389 2 -395
0z"/>
</g>
</svg>
