<?xml version="1.0" standalone="no"?>
<!DOCTYPE svg PUBLIC "-//W3C//DTD SVG 20010904//EN"
 "http://www.w3.org/TR/2001/REC-SVG-20010904/DTD/svg10.dtd">
<svg version="1.0" xmlns="http://www.w3.org/2000/svg"
 width="1113.000000pt" height="2870.000000pt" viewBox="0 0 1113.000000 2870.000000"
 preserveAspectRatio="xMidYMid meet">
<metadata>
Created by potrace 1.15, written by Peter Selinger 2001-2017
</metadata>
<g transform="translate(0.000000,2870.000000) scale(0.500000,-0.500000)"
fill="#000000" stroke="none">
<path d="M382 3860 c-14 -3 -23 -11 -30 -26 -4 -8 -4 -11 -3 -28 1 -24 0 -26
-16 -43 -15 -15 -28 -42 -28 -57 1 -18 2 -22 15 -36 7 -8 9 -16 7 -29 -1 -14
-6 -18 -26 -19 -17 -2 -37 -7 -37 -10 0 -1 -1 -2 -3 -2 -3 0 -6 -5 -17 -27
-14 -27 -38 -72 -50 -91 -3 -5 -6 -10 -6 -11 0 0 -4 -6 -8 -13 -4 -7 -9 -16
-11 -19 -4 -7 -53 -82 -55 -83 -1 -1 -5 -7 -10 -14 -14 -21 -50 -67 -64 -83
-19 -21 -23 -36 -14 -53 6 -10 21 -18 34 -18 9 0 21 -5 22 -10 1 -2 1 -6 0
-10 -1 -8 12 -55 19 -67 3 -4 8 -11 12 -14 11 -9 25 -23 25 -25 0 -1 1 -2 2
-2 1 0 2 -1 2 -2 0 -2 3 -6 6 -9 4 -3 11 -12 17 -20 9 -13 13 -19 22 -36 5
-11 4 -23 -5 -42 -12 -24 -9 -36 10 -49 11 -9 25 -9 50 -2 9 3 23 7 31 9 8 2
20 7 28 11 7 4 15 8 16 8 6 0 27 8 36 14 18 12 23 20 23 41 l0 14 -16 17 c-24
23 -61 50 -69 50 -3 0 -2 1 1 4 7 7 11 8 47 8 20 0 36 0 36 1 1 1 14 -12 14
-13 -1 -1 -1 -14 -1 -29 0 -15 -1 -29 -2 -30 -3 -4 -3 -16 0 -14 1 1 2 0 2 -1
0 -4 1 -5 6 -11 26 -28 30 -37 26 -53 -1 -5 -3 -10 -5 -12 -2 -4 -14 -10 -18
-10 -3 0 -3 1 -3 -20 -1 -20 0 -21 29 -21 15 -1 26 -2 36 -5 19 -6 32 -9 43
-11 5 -1 14 -4 19 -7 9 -5 14 -6 29 -7 23 -2 26 -4 22 -17 -1 -5 -4 -12 -7
-16 -2 -4 -7 -12 -10 -18 -3 -7 -7 -13 -9 -15 -7 -4 -28 -4 -34 0 -4 3 -18 30
-18 35 0 1 -4 6 -9 11 -8 8 -9 9 -20 8 -15 0 -20 -4 -24 -21 -4 -13 -4 -15 1
-44 6 -46 1 -58 -25 -59 -24 -1 -35 17 -27 44 2 8 3 16 3 19 -3 18 -5 23 -18
29 -12 6 -14 9 -14 28 l0 17 -10 9 c-5 5 -11 9 -11 9 -2 0 -14 12 -13 13 2 1
-8 3 -19 3 -9 1 -12 0 -23 -8 -12 -8 -14 -9 -26 -8 -6 0 -20 -1 -29 -2 -16 -2
-18 -3 -24 -10 -7 -7 -8 -8 -8 -19 0 -17 1 -20 10 -24 6 -4 7 -5 7 -13 0 -6
-1 -10 -2 -10 -1 0 -1 -1 0 -1 0 -1 0 -3 -1 -4 -1 -1 -3 -8 -4 -14 -1 -12 -1
-12 7 -23 7 -10 12 -15 30 -30 9 -8 12 -20 9 -32 -3 -16 -15 -21 -38 -18 -8 1
-15 2 -16 1 -2 0 -9 -1 -16 -2 -37 -3 -44 -7 -46 -27 0 -12 1 -15 30 -88 33
-80 36 -88 51 -94 16 -7 27 -4 45 14 15 14 27 22 33 22 6 -1 8 -9 4 -19 -7
-15 -3 -33 10 -45 8 -7 10 -8 19 -8 13 0 24 4 41 14 7 4 14 8 15 8 2 0 16 15
16 18 1 20 1 20 -6 27 -4 3 -12 8 -17 11 -24 12 -25 30 -2 33 16 2 28 7 34 13
5 5 7 8 13 19 4 7 11 11 25 12 8 1 14 2 15 3 0 2 8 -10 10 -17 0 -2 1 -30 2
-62 1 -50 1 -59 5 -64 3 -7 8 -11 15 -12 1 0 7 -2 11 -3 6 -1 9 -1 10 1 0 2
23 2 29 -1 7 -4 11 -11 11 -24 0 -18 -4 -21 -29 -30 -23 -8 -24 -8 -32 -16
-10 -9 -21 -34 -19 -45 1 -6 1 -9 9 -34 l4 -14 -5 -17 c-3 -9 -6 -20 -7 -23
-1 -4 -2 -16 -2 -27 0 -32 6 -41 29 -45 6 -1 13 -2 16 -1 17 3 27 -5 27 -21 0
-13 -6 -21 -16 -21 -8 0 -24 -6 -31 -12 -3 -2 -5 -4 -4 -4 1 0 0 -2 -2 -4 -4
-8 -2 -20 6 -37 6 -11 10 -17 15 -20 8 -5 28 -5 38 -1 12 6 23 6 30 0 4 -3 5
-6 6 -22 2 -34 9 -43 41 -51 49 -12 78 -14 257 -14 170 0 152 -2 175 20 14 13
20 16 25 10 1 -2 4 -3 5 -3 1 0 5 -4 8 -9 3 -4 10 -10 15 -13 9 -5 10 -5 55
-5 25 0 50 1 55 2 5 0 31 2 58 2 28 0 51 1 51 2 1 0 11 1 21 2 10 1 21 2 23 2
2 1 8 1 13 2 25 2 63 17 72 28 5 6 8 23 6 34 l-1 5 -23 0 c-25 -1 -31 0 -42 8
-11 9 -16 18 -16 30 0 15 7 22 22 22 14 0 19 -3 25 -16 6 -12 9 -14 26 -15 12
-1 13 -1 19 4 5 4 8 5 19 5 16 0 21 -4 27 -21 l3 -12 17 1 c20 0 20 0 25 10 2
5 7 14 12 20 4 7 7 13 7 14 0 1 1 2 2 2 3 0 8 19 8 28 -1 7 -3 10 -7 15 -6 6
-7 7 -19 7 -7 0 -12 -1 -12 -2 0 -1 -1 -2 -3 -2 -1 0 -4 -1 -5 -3 -5 -6 -19
-12 -29 -12 -24 0 -30 11 -27 49 3 36 7 42 24 42 18 0 26 6 26 19 0 13 -8 23
-23 30 -18 8 -23 17 -23 37 -1 21 -1 25 -6 35 -4 10 -16 24 -22 26 -5 2 -10
12 -10 20 0 6 2 9 12 19 16 18 21 27 21 46 1 17 -2 35 -7 42 -3 4 -5 4 -18 5
l-16 0 -5 -8 c-2 -4 -7 -14 -11 -22 -4 -8 -10 -21 -13 -29 -16 -33 -44 -89
-45 -90 -2 0 0 -22 2 -27 2 -2 7 -9 13 -15 11 -11 11 -12 11 -23 0 -9 -1 -12
-5 -16 -8 -8 -20 -7 -38 1 -15 7 -30 8 -47 2 -16 -5 -36 -8 -63 -8 -26 -1 -35
-4 -44 -15 -7 -8 -13 -24 -13 -33 0 -8 5 -33 8 -41 5 -13 -1 -25 -13 -25 -9 0
-21 12 -28 27 -7 15 -8 23 -5 39 3 16 2 26 -6 34 -10 12 -12 12 -95 12 -73 0
-75 0 -84 -4 -4 -3 -9 -6 -10 -8 -3 -4 -12 -26 -12 -30 -1 -11 -21 -13 -41 -6
-6 2 -15 6 -21 7 -9 3 -29 16 -29 19 0 1 -2 2 -5 3 -3 1 -5 2 -5 3 0 1 -1 2
-3 2 -1 0 -3 2 -5 5 -2 4 -6 5 -19 8 -9 2 -18 3 -18 2 -1 0 -4 2 -7 6 l-6 7 0
110 c0 110 0 111 4 119 3 6 7 11 12 13 19 10 43 45 45 67 3 24 -12 39 -43 42
-51 5 -59 3 -79 -17 -7 -7 -14 -12 -16 -12 -6 0 -17 8 -19 14 -3 6 -3 6 -20 6
-15 1 -17 1 -18 -3 -2 -6 -14 -18 -18 -19 -2 0 -10 3 -17 7 -8 4 -18 7 -23 8
-5 1 -11 2 -13 2 -2 0 -5 -1 -7 -2 -7 -6 -11 -5 -16 1 -3 7 -3 8 -1 25 2 10 3
28 4 40 1 23 1 29 5 49 3 15 8 20 21 20 15 0 18 -4 23 -31 3 -12 6 -26 9 -32
l4 -9 17 0 c10 1 16 0 16 -1 0 -1 1 1 3 4 1 4 6 10 9 13 l6 7 17 -4 c30 -6 39
-4 80 14 3 1 25 11 49 21 64 27 88 37 95 44 5 5 22 12 41 18 18 5 39 15 48 21
6 5 6 6 6 19 0 17 -3 22 -23 31 -8 4 -17 9 -20 11 -10 8 -37 14 -37 8 0 -1 -1
-1 -3 -1 -2 1 -3 0 -3 -2 0 -2 -1 -3 -2 -3 -2 0 -6 -21 -4 -23 3 -3 -3 -13 -8
-13 -4 0 -10 9 -9 13 1 1 0 6 -2 9 -2 4 -3 8 -3 9 0 2 -1 3 -2 3 -1 0 -2 1 -2
3 0 6 -13 11 -30 11 -19 0 -32 5 -30 10 0 2 1 12 1 24 -1 11 0 20 1 20 3 0 6
16 6 27 -1 10 -4 19 -9 25 -3 3 -3 10 -1 48 2 38 7 45 30 45 20 0 31 -15 26
-35 -3 -13 -20 -59 -22 -60 -1 0 -2 -1 -2 -2 0 -1 -2 -5 -4 -8 -4 -5 -7 -31
-3 -29 0 1 1 0 1 -1 0 -6 26 -8 37 -3 3 2 9 7 13 11 9 9 21 16 43 24 23 8 29
15 36 38 3 9 7 21 9 25 4 7 4 12 4 23 -1 13 -2 15 -8 20 -6 6 -49 20 -59 20
-6 0 -6 0 -1 2 2 1 4 3 3 4 -1 2 3 4 22 9 23 5 39 19 50 42 8 16 8 20 4 34 -3
11 -4 12 -35 42 -20 20 -28 30 -28 36 0 2 -1 3 -2 3 -1 0 -2 -1 -1 -2 3 -5
-18 8 -29 18 -7 7 -15 13 -18 15 -6 5 -4 10 7 16 14 9 26 3 31 -14 1 -4 3 -9
4 -10 1 -1 3 -6 4 -10 3 -8 7 -14 9 -12 0 1 1 1 1 -1 0 -1 1 -2 2 -1 1 1 2 0
2 -1 0 -2 2 -2 31 -2 23 0 41 2 46 6 1 1 3 2 3 1 1 -1 5 2 9 6 14 14 18 16 25
12 3 -2 8 -7 11 -10 2 -4 10 -9 17 -12 l13 -6 81 0 81 0 5 -5 c3 -4 8 -6 11
-6 5 0 5 -1 2 -2 -5 -1 -6 -5 -6 -21 0 -14 5 -26 16 -38 4 -4 7 -8 7 -10 0 -1
1 -4 3 -5 3 -2 3 -3 0 -6 -2 -2 -3 -4 -3 -5 0 -2 -4 -7 -8 -11 -4 -5 -8 -10
-8 -11 0 -2 -4 -7 -9 -11 -7 -7 -9 -10 -9 -16 -1 -6 -1 -6 -1 -1 -1 3 -2 5 -4
4 -1 -1 -1 0 1 2 2 2 2 3 1 3 -1 -1 -3 0 -4 2 -2 2 -11 6 -20 10 -10 3 -21 7
-24 9 -3 1 -9 4 -13 5 -4 1 -10 4 -13 5 -3 1 -23 9 -44 17 -50 19 -62 24 -72
28 -10 4 -25 2 -33 -4 -16 -11 -19 -47 -8 -97 9 -39 9 -39 21 -38 7 1 10 0 11
-1 2 -2 2 -2 2 0 0 4 15 9 30 11 17 1 27 6 40 20 l12 11 13 0 c18 0 21 -3 27
-24 l4 -17 -5 -5 c-5 -4 -7 -4 -29 -3 -28 1 -36 -1 -51 -11 -14 -9 -21 -10
-33 -5 -18 8 -29 6 -31 -5 -1 -4 -3 -12 -5 -18 -3 -10 -7 -25 -9 -35 -1 -2 -1
-5 -2 -7 -2 -5 4 -22 10 -28 3 -3 9 -7 12 -8 4 -1 7 -3 7 -4 0 -2 16 2 22 5 3
2 11 10 19 18 14 15 14 15 24 15 11 0 25 -5 25 -9 0 -6 29 -7 37 -2 2 1 4 4 5
6 1 17 4 32 9 44 2 8 5 20 6 26 0 7 1 14 3 17 2 6 15 14 21 14 1 0 3 3 5 7 3
10 21 21 29 18 5 -2 9 -15 9 -24 -1 -9 3 -24 7 -30 5 -8 26 -7 35 1 12 9 17
12 24 12 9 0 17 -7 16 -15 -1 -3 -1 -5 0 -5 1 -1 2 -4 3 -8 2 -12 9 -22 18
-26 8 -4 12 -4 93 -4 l85 1 6 -6 c3 -4 6 -9 6 -11 1 -9 3 -18 5 -18 1 0 4 -3
7 -6 3 -3 7 -6 9 -6 1 0 2 -1 1 -2 -1 -1 0 -2 2 -2 1 0 3 -2 4 -4 0 -2 3 -4 4
-6 2 -1 7 -4 11 -7 4 -3 14 -8 22 -12 17 -9 20 -13 20 -26 0 -13 -6 -19 -19
-19 -10 0 -15 2 -22 9 -4 3 -7 4 -18 3 -17 0 -20 -2 -24 -13 -3 -6 -3 -14 -3
-40 l1 -32 -6 -6 -6 -6 -80 0 -80 0 -8 -5 c-10 -6 -15 -12 -22 -22 -7 -13 -12
-16 -23 -16 -11 0 -16 3 -22 13 -3 5 -5 8 -6 9 -1 1 -3 7 -6 14 -5 13 -5 14
-6 98 l-1 85 -5 11 c-9 17 -17 21 -38 17 -4 -1 -14 -7 -14 -9 0 -2 -10 -12
-19 -19 -15 -12 -20 -20 -24 -40 -3 -21 -6 -25 -20 -25 -9 0 -19 4 -27 12 -7
6 -23 13 -29 12 -14 -1 -22 -7 -38 -26 -5 -7 -10 -11 -17 -13 -18 -6 -29 -14
-34 -24 -2 -6 -5 -11 -6 -13 -1 -2 -1 -35 -1 -73 2 -79 3 -89 14 -95 14 -6 16
-8 17 -12 1 -2 1 -5 -1 -7 -7 -7 -8 -21 -2 -49 5 -27 -3 -40 -25 -41 -25 0
-28 6 -31 55 0 10 -2 16 -6 24 -12 24 -23 30 -67 37 -36 6 -40 6 -57 1 -22 -7
-33 -20 -33 -39 0 -6 10 -29 13 -29 0 0 1 -1 0 -2 0 -1 1 -3 4 -4 7 -4 42 -56
56 -84 7 -12 23 -29 32 -34 7 -3 22 -13 27 -18 4 -4 25 -14 29 -15 2 0 3 -1 4
-1 1 -1 4 -1 8 0 3 1 13 1 22 1 9 -1 24 0 37 2 27 5 34 4 40 -2 5 -7 6 -24 1
-31 -8 -10 -20 -9 -49 4 -18 7 -21 8 -38 8 -11 0 -21 0 -24 0 -8 1 -21 -4 -28
-9 -9 -8 -11 -21 -6 -38 1 -3 4 -18 7 -32 5 -26 13 -47 20 -55 4 -4 26 -18 28
-18 1 0 4 -1 7 -3 20 -10 40 -11 49 -3 7 7 8 14 7 44 -1 16 15 25 42 22 15 -2
23 -6 26 -13 1 -2 5 -8 9 -12 6 -8 7 -8 21 -9 l14 -1 12 12 c16 16 24 26 24
28 0 1 1 3 3 5 4 4 16 27 20 38 15 43 10 96 -12 127 -3 4 -5 7 -5 8 0 2 -1 3
-17 20 -12 12 -12 14 -9 22 3 7 5 9 17 16 6 3 12 8 14 11 5 9 5 31 0 39 -5 11
-4 26 3 33 8 9 20 8 47 -2 l21 -8 120 0 121 1 6 -6 6 -6 -1 -28 c-1 -36 -3
-39 -23 -42 -10 -2 -27 -3 -26 -1 0 0 -1 2 -3 5 -3 3 -3 4 -2 6 4 4 1 24 -3
31 -6 7 -16 14 -25 16 -15 4 -43 -5 -55 -18 -8 -9 -10 -27 -3 -35 6 -6 18 -9
30 -7 17 3 44 4 45 2 1 -1 2 -2 3 -1 1 1 3 -1 4 -3 2 -4 -1 -17 -11 -39 -6
-14 -9 -35 -4 -39 1 -2 4 -7 7 -11 3 -4 6 -10 8 -12 6 -6 32 -50 39 -63 3 -8
7 -14 8 -14 1 0 9 -8 9 -9 0 -1 1 -3 3 -5 1 -2 4 -10 6 -19 2 -9 6 -22 9 -30
4 -8 9 -21 11 -30 11 -33 18 -42 42 -56 15 -8 17 -11 17 -24 0 -8 -1 -12 -7
-20 -6 -9 -7 -12 -7 -23 -1 -7 0 -15 1 -17 3 -5 33 -21 54 -28 23 -8 65 -8 87
-1 17 6 42 20 51 28 26 23 40 40 53 68 8 18 8 27 -1 49 l-7 18 3 8 c2 4 6 10
8 12 4 5 8 14 11 24 3 11 -3 25 -15 39 -12 12 -14 18 -18 41 -2 11 -5 21 -6
22 -1 2 -8 3 -16 3 -13 1 -14 1 -19 -6 -16 -19 -15 -18 -26 -18 -14 0 -20 6
-20 20 0 11 6 20 13 20 1 0 6 4 11 8 l8 8 -1 13 c-1 8 -3 15 -4 16 -2 0 -4 2
-5 4 -8 7 -37 28 -45 31 -4 2 -16 5 -25 7 -9 2 -19 5 -22 6 -9 5 -41 3 -47 -3
-6 -6 -21 1 -21 10 0 3 -1 6 -2 8 -3 6 9 15 23 17 14 2 50 12 62 17 5 3 11 7
14 10 6 6 17 28 17 34 0 5 10 16 15 16 13 1 19 0 26 -4 6 -3 12 -4 20 -3 25 1
28 7 28 60 0 22 0 77 1 123 0 45 -1 83 -2 84 0 0 -3 4 -6 8 -2 4 -8 11 -12 15
-11 10 -18 24 -18 36 0 19 14 24 40 15 23 -8 25 -9 35 -7 19 3 36 20 35 36 0
16 -4 21 -22 34 -9 6 -20 15 -24 19 -6 6 -16 14 -28 23 -2 2 -8 3 -15 3 -13 0
-21 -4 -33 -17 -4 -4 -15 -9 -22 -9 -1 -1 -4 -1 -7 -2 -6 -2 -12 0 -15 7 -4 6
-3 30 1 40 5 10 5 33 1 40 -6 12 -28 16 -46 8 -11 -4 -30 -17 -38 -25 -4 -4
-9 -8 -10 -8 -1 0 -2 -1 -2 -2 0 -1 -3 -2 -7 -3 -5 -1 -8 0 -17 6 -9 7 -12 8
-24 8 -14 1 -14 1 -20 -6 -4 -4 -8 -9 -8 -11 -2 -3 -2 -3 -2 1 0 1 -1 3 -2 3
0 0 -2 2 -4 5 -2 3 -3 15 -4 57 l-1 53 6 6 6 6 119 -1 118 0 18 6 c25 8 26 8
46 3 22 -6 29 -5 41 3 12 8 21 18 28 33 13 26 6 44 -28 70 -4 3 -9 7 -10 8 -2
2 -43 33 -56 42 -5 3 -19 13 -31 22 -36 25 -54 39 -66 50 -12 11 -12 11 -24
11 -13 0 -26 -5 -26 -10 0 -1 -2 -3 -4 -5 -2 -2 -11 -15 -21 -28 -10 -13 -18
-24 -19 -25 -3 -3 -32 -42 -32 -44 0 -1 -2 -2 -3 -3 -2 -1 -7 -3 -10 -4 -3 -2
-13 -4 -23 -5 l-17 -1 -6 6 -6 6 1 69 0 68 6 7 c4 3 7 6 7 5 0 -1 22 2 37 4 6
1 15 2 20 3 5 1 12 2 16 2 4 1 10 1 14 2 4 0 24 3 44 6 46 7 61 7 89 0 32 -9
60 -8 81 0 32 14 41 23 40 43 -1 11 -2 13 -12 23 -6 6 -15 14 -20 18 -20 14
-33 26 -41 38 -4 5 -30 33 -58 60 -28 28 -64 63 -80 78 -30 29 -39 35 -55 35
-6 0 -56 -24 -84 -41 -10 -6 -27 -14 -36 -17 -20 -7 -31 -16 -38 -31 -5 -9
-14 -23 -16 -25 -3 -2 -22 -40 -22 -43 0 -3 -13 -29 -16 -33 -10 -11 -25 -13
-33 -5 -7 7 -7 17 2 34 11 22 8 40 -7 41 -13 1 -20 0 -42 -9 -28 -11 -34 -14
-74 -29 l-31 -11 0 -16 c-1 -9 0 -17 1 -18 2 -4 14 -9 20 -9 3 0 8 -2 11 -5 6
-4 6 -6 6 -20 0 -14 0 -16 -6 -20 -4 -4 -7 -5 -17 -5 -16 0 -18 1 -29 18 -9
12 -12 16 -23 28 -7 7 -25 16 -36 17 -7 1 -14 0 -33 -7 -13 -4 -37 -12 -54
-17 -43 -13 -55 -18 -65 -26 l-10 -8 0 -13 c0 -10 1 -15 3 -17 2 -1 3 -4 3 -5
0 -1 1 -2 2 -2 0 0 5 -6 10 -14 19 -31 32 -39 61 -37 8 0 30 1 50 2 60 2 113
5 115 6 0 0 3 -2 6 -5 l6 -6 0 -32 c0 -31 2 -44 7 -49 4 -5 13 -9 15 -8 1 1 2
1 2 0 0 -5 15 -2 21 4 7 6 8 10 10 38 2 29 22 36 56 18 11 -5 21 -9 24 -9 12
0 22 8 35 26 7 11 10 13 18 14 19 2 26 -4 26 -20 0 -15 -2 -17 -21 -26 -10 -5
-20 -11 -26 -17 -16 -16 -14 -15 -47 -14 l-29 1 -15 -9 c-13 -8 -15 -10 -15
-15 -1 -4 -4 -10 -8 -15 l-6 -9 -21 0 c-12 0 -42 -1 -67 -2 -51 -1 -51 -1 -68
-16 -15 -14 -19 -16 -29 -16 -10 0 -14 2 -29 16 -17 14 -18 15 -59 16 -35 1
-37 1 -44 6 -3 2 -6 5 -5 6 1 0 4 6 7 11 16 29 24 63 20 77 -3 9 -12 28 -14
28 -5 0 -12 16 -13 31 -1 17 -9 41 -16 48 -2 2 -5 8 -8 13 -2 6 -4 10 -5 10
-1 0 -2 1 -2 3 0 3 -22 24 -38 35 -4 3 -7 5 -8 6 -8 9 -62 37 -98 50 -43 15
-51 14 -67 -13 -6 -11 -10 -15 -17 -18 -4 -2 -8 -5 -7 -6 1 0 -2 1 -6 3 -4 2
-12 5 -17 6 -12 4 -22 14 -22 23 0 9 5 17 18 27 l10 8 0 13 c0 14 -2 18 -16
34 -5 5 -12 13 -16 17 -10 12 -23 17 -58 25 -37 8 -42 8 -56 3 -14 -5 -18 -9
-19 -18 -2 -7 2 -33 5 -35 8 -5 -14 -63 -24 -63 -1 0 -8 -1 -14 -3 -10 -3 -11
-4 -16 -13 -2 -5 -4 -11 -5 -13 0 -2 -1 -6 -3 -8 -1 -3 -2 -7 -2 -10 0 -3 -2
-8 -6 -11 -5 -5 -7 -6 -17 -6 -10 0 -12 1 -17 6 -10 10 -8 30 4 41 6 6 12 15
18 32 5 16 5 16 2 29 -3 13 -4 14 -25 33 -11 10 -10 24 4 33 6 5 6 5 6 20 0
12 -1 16 -4 19 -2 1 -4 3 -4 3 -1 0 -65 14 -77 17 -2 0 -7 0 -12 -1z m20 -164
c5 -5 5 -15 0 -20 -9 -9 -24 -2 -24 10 0 8 6 14 14 14 3 0 8 -2 10 -4z m192
-11 c12 -4 14 -6 24 -19 18 -25 29 -38 34 -41 15 -10 44 -14 83 -10 8 1 13 1
13 -1 0 -1 3 -2 6 -3 12 -3 20 -20 16 -36 -3 -11 -8 -15 -21 -20 -11 -4 -25
-16 -25 -22 0 -2 -1 -6 -1 -8 -1 -2 -2 -15 -2 -29 -1 -20 0 -27 2 -34 4 -10 5
-27 1 -34 -4 -7 -11 -11 -24 -11 -14 0 -20 4 -26 16 -6 13 -9 15 -27 15 -11 0
-16 0 -17 -2 -12 -19 -24 -34 -32 -38 l-9 -5 -103 -1 -103 0 -10 5 c-6 3 -11
6 -10 7 1 1 0 5 -2 9 -2 5 -3 11 -2 14 2 11 -9 28 -25 39 -9 6 -11 9 -14 20
-4 14 2 30 14 35 19 7 38 -1 42 -19 2 -9 2 -11 -3 -24 -6 -18 -6 -28 0 -40 6
-13 16 -18 34 -18 l13 0 34 34 c68 66 91 89 104 103 l12 14 0 13 c-1 11 -2 15
-9 25 l-7 11 2 12 c1 6 3 13 3 15 1 2 2 7 2 11 4 18 14 23 33 17z m1210 -69
c5 -6 5 -12 0 -18 -7 -8 -22 -2 -22 9 0 11 15 17 22 9z m-1343 -36 c10 -9 3
-26 -10 -26 -8 0 -15 7 -15 15 0 13 16 20 25 11z m722 -9 c12 -12 3 -31 -13
-31 -11 0 -18 7 -18 18 0 11 7 18 18 18 6 0 9 -1 13 -5z m-240 -165 c5 -5 6
-7 6 -16 0 -15 -8 -23 -23 -23 -9 0 -11 1 -16 7 -9 8 -9 23 -1 32 9 9 24 9 34
0z m-359 -54 c5 -5 5 -7 0 -12 -5 -5 -8 -5 -13 1 -3 5 -3 5 0 10 5 6 8 6 13 1z
m122 -8 c5 -5 5 -16 0 -22 -4 -4 -5 -5 -12 -3 -9 3 -37 0 -42 -4 -5 -4 -14 -4
-19 0 -10 8 -4 19 10 19 9 0 40 9 44 12 3 3 15 2 19 -2z m-448 -7 c3 -3 4 -8
5 -17 2 -35 20 -47 57 -39 14 4 29 4 42 1 6 -1 12 -3 13 -3 1 0 6 -3 10 -6 6
-5 7 -8 11 -24 4 -17 4 -19 1 -29 -5 -16 -16 -20 -48 -14 -20 4 -32 4 -119 4
-98 0 -110 1 -110 7 0 2 -2 3 -3 4 -3 0 -3 1 0 1 2 0 5 1 6 2 1 1 6 4 11 6 21
12 26 15 49 29 14 9 26 17 29 20 6 7 11 23 11 39 1 12 2 16 5 19 7 8 23 8 30
0z m484 -53 c11 -3 13 -4 16 -10 3 -5 3 -7 1 -10 -4 -4 -21 -27 -27 -37 -3 -4
-10 -10 -19 -14 -16 -9 -19 -13 -22 -30 -2 -10 -2 -13 0 -15 4 -3 4 -24 0 -30
-8 -11 -31 -12 -40 -1 -10 10 -6 31 7 47 13 14 15 24 14 55 l-1 28 7 6 c3 4 6
6 6 4 0 -1 1 -1 2 0 1 2 4 2 5 2 2 -1 3 0 3 1 0 1 1 2 2 2 2 0 10 7 9 9 -2 1
22 -3 37 -7z m606 -3 c10 -4 24 -5 33 -1 3 1 9 3 14 4 11 3 14 1 18 -17 4 -20
6 -23 15 -33 10 -11 13 -22 10 -35 -2 -8 -4 -11 -14 -19 -7 -5 -13 -11 -15
-13 -6 -10 -10 -18 -13 -26 -4 -12 -9 -17 -19 -17 -15 0 -26 16 -17 25 2 2 4
5 4 6 0 2 1 4 3 5 9 7 13 32 7 40 -3 4 -21 16 -23 16 -1 0 -5 3 -10 6 -7 5 -9
7 -9 12 0 3 -1 4 -2 3 -6 -8 -13 6 -11 24 1 16 2 18 6 23 4 4 8 4 23 -3z m189
-2 c5 -8 1 -16 -8 -16 -9 0 -13 8 -8 16 2 3 5 5 8 5 3 0 6 -2 8 -5z m-727 -55
c5 -5 5 -15 0 -20 -9 -9 -24 -2 -24 10 0 8 6 14 14 14 3 0 8 -2 10 -4z m-245
-14 c2 -3 3 -8 3 -15 0 -13 -6 -21 -16 -21 -3 0 -8 -1 -10 -2 -1 -1 -8 -3 -13
-5 -7 -2 -15 -7 -20 -12 -13 -11 -18 -14 -30 -14 -19 0 -28 9 -28 28 0 20 8
27 33 28 17 1 27 4 41 12 16 10 32 10 40 1z m897 -116 c1 0 5 -3 8 -6 8 -7 8
-23 2 -43 -7 -22 -19 -31 -31 -21 -9 6 -11 14 -12 39 -2 19 1 25 11 30 5 2 8
2 22 1z m-749 -14 c2 -3 4 -6 4 -6 -2 -2 -17 -102 -16 -108 0 -4 1 -9 1 -11 0
-9 22 -14 42 -10 7 2 14 -4 14 -12 0 -5 -7 -18 -12 -23 -1 -1 -4 -7 -6 -12 -2
-5 -6 -12 -7 -15 -2 -3 -3 -7 -3 -8 0 -6 -9 -13 -22 -18 -14 -5 -22 -12 -25
-17 0 -2 -1 -2 -1 1 0 2 -2 6 -4 10 -5 6 -5 8 -6 42 0 47 -4 57 -27 72 -13 9
-18 15 -20 26 -1 10 3 25 9 31 7 7 5 38 -4 49 -5 6 2 14 13 15 2 1 17 1 34 0
l31 0 5 -6z m-149 -26 c5 -5 5 -11 0 -16 -10 -10 -27 5 -16 16 4 4 12 4 16 0z
m1186 -16 c0 -1 1 -2 2 -1 1 1 2 -1 2 -3 0 -2 1 -4 2 -5 1 0 1 -3 1 -5 0 -3
-1 -9 -1 -13 0 -15 -12 -22 -28 -19 -10 2 -14 8 -14 21 0 14 4 18 19 23 14 4
17 5 17 2z m-89 -68 c7 -6 7 -20 0 -26 -6 -6 -26 -6 -30 -1 -6 10 -4 21 3 28
6 5 21 4 27 -1z m146 -65 c12 -13 11 -29 -5 -46 -3 -3 -8 -12 -10 -19 -4 -13
-5 -18 -6 -31 0 -12 -18 -21 -34 -17 -11 2 -16 7 -18 18 -3 14 0 22 14 36 13
13 18 23 24 46 2 8 6 12 14 14 11 3 18 2 21 -1z m-952 -130 c3 -5 3 -5 0 -10
-2 -3 -5 -5 -7 -5 -2 0 -5 2 -7 5 -3 5 -3 5 0 10 2 3 5 5 7 5 2 0 5 -2 7 -5z
m298 -19 c13 -4 40 -6 50 -4 14 2 23 -6 23 -20 0 -9 -6 -28 -11 -34 -2 -1 -3
-3 -3 -4 0 -4 -12 -18 -17 -20 -6 -4 -22 -3 -28 1 -5 2 -10 4 -20 6 -5 1 -23
10 -23 11 1 0 -1 4 -3 8 -2 4 -4 7 -4 8 0 1 -2 4 -4 7 -5 7 -5 24 0 32 3 7 8
10 23 13 1 0 8 -2 17 -4z m560 -65 c3 -3 3 -3 0 -6 -4 -5 -11 1 -7 6 4 4 4 4
7 0z m-594 -26 c8 -17 1 -28 -18 -26 -21 2 -23 7 -9 21 15 14 21 15 27 5z
m-614 -43 c11 -10 3 -28 -13 -31 -6 -1 -7 0 -11 5 -11 19 9 40 24 26z m48 -77
c6 -9 6 -43 -1 -50 -6 -6 -17 -7 -23 -1 -9 9 -4 40 8 52 8 7 10 7 16 -1z m628
-29 c7 -3 12 -13 12 -25 0 -23 -15 -32 -41 -26 -18 3 -20 44 -3 51 12 4 20 4
32 0z m-441 -49 c3 -3 4 -7 4 -14 0 -13 -6 -19 -19 -19 -13 0 -19 6 -19 19 0
7 1 11 4 14 7 8 23 8 30 0z m942 -64 c5 -5 6 -25 2 -30 -1 -2 -2 -3 -1 -3 7
-1 -9 -4 -19 -4 -7 0 -17 -1 -22 -2 -15 -4 -24 -3 -32 2 -4 3 -4 5 -3 14 1 12
6 19 16 21 3 1 6 1 7 2 5 2 25 5 35 5 10 0 13 -1 17 -5z m-1000 -48 c3 -3 3
-6 2 -16 -1 -7 -2 -20 -2 -29 0 -20 -3 -26 -13 -26 -6 0 -13 6 -13 11 0 3 4
20 8 39 2 4 3 10 3 13 0 6 5 13 9 13 2 0 4 -2 6 -5z m1035 -8 c14 -6 17 -11
17 -26 0 -10 -1 -12 -6 -17 -6 -6 -7 -6 -18 -6 -11 0 -12 0 -18 6 -6 5 -6 7
-6 20 0 8 1 17 3 22 3 7 4 8 10 7 4 -1 12 -3 18 -6z m-1131 -56 c3 -3 4 -7 4
-14 0 -13 -6 -19 -19 -19 -13 0 -19 6 -19 19 0 7 1 11 4 14 7 8 23 8 30 0z
m259 -115 c7 -4 9 -6 13 -16 5 -15 5 -32 -1 -38 -4 -4 -30 -15 -53 -23 -20 -7
-37 -1 -38 12 -1 16 -2 15 25 55 9 14 15 16 32 15 8 0 17 -3 22 -5z m426 -45
c3 -5 3 -5 0 -10 -2 -3 -5 -5 -7 -5 -2 0 -5 2 -7 5 -3 5 -3 5 0 10 2 3 5 5 7
5 2 0 5 -2 7 -5z m-164 -31 c4 -6 4 -24 -1 -30 -7 -9 -27 -9 -34 0 -5 6 -5 24
0 30 7 9 27 9 35 0z m-360 -42 c10 -9 3 -26 -10 -26 -8 0 -15 7 -15 15 0 13
16 20 25 11z"/>
<path d="M137 2773 c-9 -4 -21 -18 -24 -29 -1 -3 -2 -6 -3 -8 -2 -1 -4 -7 -5
-14 -2 -11 -2 -13 2 -23 7 -20 7 -20 24 -21 14 0 17 0 21 4 7 5 14 26 14 40 0
5 0 12 0 16 0 4 0 10 0 15 0 4 -1 10 -3 14 -1 4 -2 7 -2 7 2 3 -19 2 -24 -1z"/>
<path d="M342 2388 c-5 -1 -13 -4 -18 -6 -11 -5 -21 -5 -40 1 -16 4 -30 4 -43
-2 -6 -3 -11 -5 -12 -5 -1 0 -7 -3 -13 -7 -6 -4 -11 -7 -12 -7 -3 0 -10 -9
-13 -17 -3 -5 -4 -14 -4 -28 0 -11 -1 -21 -3 -24 -1 -2 -5 -10 -8 -18 -15 -32
-22 -38 -47 -40 -12 -1 -26 -7 -28 -12 -5 -11 -5 -24 -2 -32 2 -4 3 -10 3 -14
0 -23 16 -44 35 -46 12 -1 21 -6 19 -12 0 -3 -1 -5 -2 -5 -1 0 -2 -2 -3 -4 -1
-3 -3 -6 -4 -6 -1 -1 -2 -8 -2 -17 0 -18 1 -25 3 -24 1 1 2 -1 3 -3 0 -2 3 -5
6 -6 3 -2 6 -3 7 -4 1 -1 4 -2 7 -4 3 -1 7 -3 9 -4 8 -4 30 -8 45 -9 23 -1 34
5 40 24 3 12 3 11 3 21 0 17 13 21 31 9 9 -6 12 -7 23 -7 7 0 14 1 15 2 4 2 5
24 2 37 -4 15 -1 21 11 21 15 0 33 6 41 14 4 5 22 46 24 56 0 4 2 17 2 28 1
15 3 28 7 43 7 23 8 58 4 74 -5 16 -27 29 -47 29 -4 -1 -8 0 -9 1 -4 3 -20 5
-30 3z m-1 -60 c14 -8 13 -42 -1 -47 -2 -1 -6 -5 -9 -10 -5 -9 -16 -16 -29
-18 -3 -1 -8 -3 -10 -6 -15 -16 -23 -26 -25 -29 -5 -9 -5 -33 2 -45 9 -18 -4
-30 -22 -22 -12 6 -15 10 -12 17 1 3 3 5 3 6 3 2 4 28 1 44 -2 20 0 24 29 54
5 5 11 12 13 15 2 3 5 6 6 8 1 1 5 8 9 15 4 8 8 15 9 16 7 6 26 6 36 2z m11
-94 c5 -6 5 -8 1 -14 -4 -6 -13 -5 -17 2 -2 5 -2 6 2 11 5 8 8 8 14 1z m-150
-82 c3 -1 4 -3 3 -5 0 -2 -1 -5 -1 -6 0 -2 -1 -3 -3 -3 -2 0 -4 -1 -4 -3 -1
-1 -2 -2 -4 -3 -10 -1 -13 0 -18 3 -5 3 -5 3 -1 9 1 3 6 7 9 9 6 3 9 2 19 -1z"/>
</g>
</svg>
