<?xml version="1.0" standalone="no"?>
<!DOCTYPE svg PUBLIC "-//W3C//DTD SVG 20010904//EN"
 "http://www.w3.org/TR/2001/REC-SVG-20010904/DTD/svg10.dtd">
<svg version="1.0" xmlns="http://www.w3.org/2000/svg"
 width="1111.000000pt" height="2870.000000pt" viewBox="0 0 1111.000000 2870.000000"
 preserveAspectRatio="xMidYMid meet">
<metadata>
Created by potrace 1.15, written by Peter Selinger 2001-2017
</metadata>
<g transform="translate(0.000000,2870.000000) scale(0.500000,-0.500000)"
fill="#000000" stroke="none">
<path d="M146 3818 c-16 -2 -23 -9 -27 -24 -2 -8 5 -24 14 -33 4 -4 8 -10 11
-14 l4 -7 -4 -7 c-3 -4 -7 -10 -11 -14 -6 -6 -8 -9 -13 -22 -1 -3 -2 -37 -2
-110 l0 -105 5 -11 c5 -11 11 -17 27 -28 9 -6 12 -11 12 -24 0 -12 -4 -19 -15
-32 -20 -21 -23 -41 -12 -68 4 -11 5 -15 4 -34 0 -16 1 -22 3 -22 1 -1 2 -2 1
-3 -2 -3 11 -11 19 -11 14 -2 22 -5 31 -14 12 -12 37 -19 49 -15 6 3 20 0 25
-5 10 -8 11 -32 1 -41 -10 -11 -31 -9 -46 5 -13 12 -33 17 -49 13 -4 -1 -9 -1
-11 0 -4 1 -9 0 -18 -3 -25 -8 -26 -10 -26 -76 0 -50 1 -63 8 -72 7 -8 19 -21
22 -22 6 -2 10 -13 10 -26 0 -10 -1 -12 -10 -22 -10 -11 -14 -22 -15 -43 -1
-11 -4 -24 -10 -35 -2 -3 -3 -9 -3 -12 0 -12 17 -40 27 -44 1 0 0 -4 -5 -11
-3 -6 -6 -11 -6 -12 0 -1 -1 -2 -2 -2 -1 0 -5 -6 -8 -13 -12 -25 -11 -61 3
-71 9 -6 26 -10 34 -8 11 3 26 -2 30 -11 4 -8 4 -24 0 -32 -4 -9 -19 -14 -30
-11 -8 2 -25 -2 -34 -8 -9 -7 -11 -15 -11 -55 0 -39 2 -50 12 -61 5 -6 7 -6
17 -6 10 1 12 1 18 8 3 4 9 13 13 20 3 6 9 14 13 16 3 3 9 8 14 13 17 16 33
19 42 10 5 -5 5 -6 4 -17 0 -7 -2 -14 -3 -15 -1 -2 -5 -11 -9 -20 -11 -23 -15
-27 -32 -28 -5 0 -10 -2 -12 -3 -2 -1 -5 -2 -6 -2 -8 -1 -25 -11 -25 -15 0 -4
-14 -17 -20 -18 -9 -2 -19 -14 -23 -26 -5 -16 -4 -52 3 -65 4 -10 19 -24 29
-29 10 -4 28 -7 42 -7 16 1 22 -3 20 -14 -2 -12 -8 -16 -22 -16 -25 0 -41 -5
-56 -18 -26 -23 -21 -46 14 -63 17 -8 20 -11 23 -22 3 -11 0 -25 -7 -31 -2 -2
-12 -6 -23 -10 -20 -7 -30 -12 -38 -17 -2 -2 -7 -6 -10 -9 -14 -11 -24 -20
-48 -45 l-26 -25 0 -14 c0 -13 2 -20 10 -25 4 -4 42 -22 48 -24 3 -1 10 -4 16
-7 21 -10 33 -10 64 3 8 3 18 6 27 6 14 1 15 1 19 -3 5 -6 5 -11 1 -22 -2 -5
-3 -14 -3 -21 0 -18 5 -24 29 -36 17 -9 30 -11 47 -6 18 5 29 4 37 -1 4 -3 7
-6 7 -6 0 -7 33 -11 40 -5 2 1 6 6 9 11 3 5 6 9 7 10 1 1 5 6 9 13 4 7 8 12 9
13 1 1 5 6 9 13 4 7 9 13 10 14 2 2 3 5 4 7 1 2 2 4 3 4 1 0 2 1 2 3 0 3 16
11 26 12 23 3 32 9 42 26 15 26 23 26 38 0 12 -21 31 -29 55 -23 9 3 11 7 11
24 0 7 1 12 3 13 1 0 1 1 -1 1 -6 0 -10 9 -10 18 0 18 7 26 23 26 12 0 17 -3
36 -21 25 -25 27 -26 53 -26 10 0 21 -1 24 -1 2 0 10 -6 19 -14 25 -23 -5 -21
260 -21 l232 0 9 4 c5 3 14 8 21 12 7 4 15 7 19 7 4 0 12 -3 19 -7 30 -18 16
-16 139 -17 119 0 117 0 127 11 6 7 9 25 5 34 -4 9 -3 23 2 27 12 9 33 -4 35
-21 2 -22 19 -31 45 -25 13 3 27 -1 37 -10 3 -3 8 -6 19 -11 11 -6 104 -7 118
-2 8 3 20 10 22 14 2 2 16 9 19 9 2 0 5 -1 7 -2 13 -8 23 -10 34 -10 10 1 12
2 19 10 9 11 17 28 18 39 0 21 -9 34 -42 58 -4 3 -8 7 -9 7 -1 1 -7 6 -15 11
-12 8 -26 18 -34 25 -1 0 -10 6 -20 13 -10 7 -19 13 -20 14 -1 0 -8 6 -16 11
-21 15 -23 16 -31 23 -4 4 -8 7 -8 7 -1 0 -8 9 -15 21 l-14 21 -13 0 -13 -1
-12 -12 c-13 -13 -13 -13 -23 -13 -21 0 -26 16 -13 43 11 21 10 36 -2 49 -4 3
-2 14 4 19 2 2 6 5 9 8 24 20 24 40 2 62 -7 7 -11 12 -15 24 -3 9 -7 17 -8 17
-1 1 -1 2 0 2 5 0 -22 28 -27 28 -5 0 10 11 18 14 24 7 38 19 52 44 7 12 7 30
0 42 -5 8 -45 45 -68 62 -4 3 -7 6 -6 8 1 5 10 11 18 14 18 6 35 24 37 40 3
18 -8 28 -34 29 -21 2 -24 6 -25 33 -2 24 -8 38 -19 46 -5 3 -8 5 -9 6 -1 1
-6 5 -13 9 -7 4 -13 9 -14 9 -1 1 -4 3 -6 5 -2 1 -3 3 -2 5 1 4 15 12 20 12 9
0 43 9 50 14 13 9 16 16 16 41 l-1 22 12 12 c6 6 12 12 12 13 1 1 5 7 8 15 3
8 7 16 9 19 1 3 9 9 18 14 24 14 28 21 29 52 1 30 -2 38 -13 44 -5 3 -11 5
-16 4 -4 0 -8 1 -9 2 -2 3 -2 2 -2 0 0 -1 -2 -5 -5 -8 -5 -6 -15 -34 -15 -42
0 -14 -13 -19 -35 -14 -16 3 -35 1 -45 -5 -6 -4 -25 -5 -32 -1 -7 4 -11 11
-11 24 0 12 3 18 10 23 7 5 24 5 34 0 12 -5 32 -6 40 -2 10 5 15 20 16 43 1
21 4 28 13 32 8 3 25 3 29 0 1 -1 3 -2 3 -1 1 1 5 1 9 2 23 3 27 12 16 44 -7
21 -6 28 2 49 4 10 8 23 9 30 3 16 11 30 19 35 6 3 21 17 33 30 7 8 8 29 2 41
-3 4 -5 7 -6 7 -1 -1 -2 0 -2 0 0 1 -7 7 -15 13 -8 6 -20 15 -26 19 -8 6 -18
11 -31 15 -21 7 -25 9 -33 22 -6 9 -21 24 -30 30 -9 6 -9 10 -3 26 11 27 7 36
-21 55 -12 8 -16 15 -16 28 0 18 9 27 27 28 14 0 21 -4 29 -16 20 -27 45 -43
76 -48 19 -3 23 -6 23 -16 -1 -9 6 -27 12 -34 7 -7 17 -9 41 -9 20 1 45 7 47
12 0 1 2 2 3 2 4 0 20 19 26 31 13 26 2 41 -28 41 -14 0 -17 3 -18 15 -2 22
-10 35 -29 47 -3 1 -11 8 -18 14 -7 6 -14 12 -16 13 -2 1 -4 3 -6 4 -1 2 -3 3
-4 3 -1 0 -3 2 -5 4 -2 1 -9 7 -16 11 -7 4 -12 8 -13 9 -1 1 -9 6 -18 13 -9 6
-23 16 -31 21 -18 13 -30 16 -52 15 -12 -1 -19 -1 -29 2 -26 7 -38 1 -61 -29
-5 -7 -10 -13 -11 -14 -1 -1 -4 -4 -7 -8 -8 -12 -7 -27 3 -45 10 -16 11 -28 3
-36 -6 -6 -18 -7 -29 -2 -7 3 -21 2 -25 -1 -2 -2 -3 -1 -4 0 0 2 -1 2 -1 0 0
-2 -5 -8 -6 -7 -2 2 -2 -23 0 -28 1 -4 1 -5 -3 -9 l-4 -4 -5 5 c-2 2 -3 5 -2
5 1 1 1 3 -1 7 -2 3 -3 7 -3 8 0 2 -1 3 -2 3 -1 0 -2 1 -1 2 0 3 -10 14 -16
17 -11 5 -54 4 -74 -1 -9 -2 -20 -4 -24 -4 -4 0 -15 2 -24 4 -23 6 -51 5 -62
0 -12 -7 -16 -11 -24 -27 -4 -8 -8 -16 -10 -18 -6 -6 -11 -18 -12 -29 -1 -11
-1 -12 4 -19 8 -9 12 -15 12 -18 0 -3 -20 -10 -32 -12 -6 0 -12 -2 -15 -3 -2
-1 -4 -1 -5 -1 0 1 -1 1 -1 -1 0 -1 -1 -2 -3 -2 -2 0 -6 -3 -10 -7 -6 -6 -7
-8 -7 -17 0 -6 1 -11 4 -14 2 -3 6 -10 10 -17 15 -26 4 -53 -21 -51 -13 0 -21
6 -31 20 -10 15 -22 28 -33 35 -7 4 -13 9 -15 11 -8 7 -51 38 -53 38 -5 0 -2
18 5 26 3 4 9 13 13 21 8 16 13 20 26 20 9 -1 15 -4 27 -14 32 -27 36 -30 50
-28 14 1 19 4 28 16 10 15 8 35 -6 50 -4 4 -10 12 -13 17 -16 25 -26 29 -80
28 -44 -1 -43 -1 -65 -20 -11 -10 -14 -12 -20 -12 -6 0 -9 2 -20 12 -18 16
-24 18 -43 20 -15 0 -18 0 -28 -5 -11 -5 -20 -15 -26 -27 -1 -4 -5 -8 -10 -10
l-9 -4 -9 4 c-5 2 -12 7 -15 10 -4 3 -8 6 -9 6 -2 0 -3 1 -3 2 0 1 -4 3 -8 5
-5 2 -10 4 -12 5 -2 1 -13 5 -25 8 -18 5 -23 6 -47 6 -30 0 -44 -4 -51 -15 -2
-3 -5 -7 -6 -9 -2 -1 -3 -3 -3 -5 0 -5 -12 -15 -18 -15 -6 0 -18 10 -18 15 0
2 -1 4 -3 5 -1 2 -4 6 -6 9 -12 17 -61 21 -75 6 -6 -7 -13 -25 -12 -34 0 -9
-6 -15 -14 -15 -8 0 -14 6 -14 15 0 12 -6 35 -10 35 -1 0 -2 1 -2 3 0 2 -1 3
-3 3 -1 0 -3 1 -3 2 -1 1 -9 5 -20 9 -10 4 -21 9 -24 11 -11 8 -27 12 -49 13
-16 1 -22 2 -25 4 -2 2 -4 3 -6 3 -1 0 -2 1 -2 2 0 5 -27 29 -38 34 -14 7 -44
21 -59 28 -34 16 -41 19 -55 26 -13 6 -16 7 -26 6z m254 -161 c5 -7 5 -19 0
-25 -4 -5 -15 -10 -24 -10 -8 0 -23 -7 -34 -15 -20 -15 -23 -17 -30 -17 -9 0
-16 7 -16 16 0 9 6 15 26 24 7 4 19 11 26 16 23 16 44 21 52 11z m436 -63 c1
0 8 -7 17 -14 8 -8 19 -19 25 -24 5 -6 9 -10 8 -10 -1 0 -5 -6 -9 -13 -8 -15
-9 -15 -26 -27 -7 -5 -12 -11 -14 -14 -1 -3 -2 -6 -3 -6 -1 0 -3 -6 -5 -13 -6
-24 -13 -27 -34 -18 -7 3 -17 7 -24 9 l-12 4 -25 -11 c-28 -13 -31 -13 -35 -6
-3 5 -3 6 1 14 5 10 6 36 1 42 -2 3 -10 7 -59 25 -15 6 -28 11 -29 12 -5 5
-40 1 -45 -6 -5 -6 -30 -11 -30 -6 0 1 -2 1 -4 0 -3 -1 -8 -2 -12 -3 -4 -1
-10 -3 -13 -5 -11 -9 -11 -8 -11 -140 0 -139 -1 -130 18 -151 5 -6 10 -12 11
-15 2 -5 -3 -13 -11 -21 -20 -19 -19 -44 3 -55 9 -4 15 -5 24 -2 3 1 10 2 15
3 4 0 10 2 12 3 2 1 15 3 28 3 34 2 34 2 43 -39 4 -15 29 -52 36 -52 5 0 19
-16 19 -21 0 -6 -5 -12 -11 -13 -5 -1 -15 7 -24 17 -4 5 -9 9 -10 9 -3 0 -20
16 -29 28 -4 5 -11 12 -17 17 -9 7 -10 7 -20 6 -13 -2 -21 -5 -30 -14 -7 -7
-23 -15 -28 -15 -2 0 -3 -4 -3 -20 l0 -19 10 -4 c17 -6 23 -8 31 -12 4 -3 8
-5 9 -5 1 0 2 -1 2 -3 0 -1 1 -4 3 -5 4 -4 4 -9 -2 -15 -4 -4 -8 -6 -22 -8
-10 -2 -19 -4 -20 -5 -3 -3 -4 -31 -2 -37 1 -2 4 -4 8 -6 5 -3 7 -5 7 -8 0 -5
-6 -13 -9 -12 -2 1 -3 0 -4 -1 -1 -1 -4 -2 -7 -2 -3 0 -4 -1 -2 -1 2 -1 3 -4
2 -19 0 -13 0 -18 2 -17 1 1 2 0 2 -1 0 -1 1 -2 2 -1 1 1 2 0 2 0 0 -1 5 -2
11 -1 23 3 26 -3 15 -32 -19 -48 -48 -111 -72 -155 -10 -18 -25 -46 -30 -53
-2 -4 -5 -9 -7 -12 l-2 -5 -5 4 c-2 3 -4 5 -3 5 1 0 1 1 -1 3 -1 1 -2 17 -2
36 0 25 -1 37 -4 48 -2 8 -4 16 -5 19 -1 5 -2 7 -7 19 -3 7 -12 19 -15 19 -1
0 -3 2 -5 4 -1 2 -4 3 -6 3 -3 -1 -4 0 -4 2 0 1 -1 4 -3 5 -3 2 -3 3 1 7 5 5
5 5 7 2 2 -2 3 -3 3 -2 0 1 5 4 12 6 13 3 18 7 23 16 3 6 3 19 3 129 0 81 -1
124 -2 127 -4 11 -16 18 -30 19 -6 1 -8 0 -17 -10 -5 -6 -12 -15 -14 -19 -8
-15 -17 -19 -26 -10 -3 3 -3 6 -2 35 2 42 5 51 23 59 8 3 23 3 26 0 4 -4 26 3
33 10 8 7 9 14 9 47 0 37 -1 43 -15 65 -13 22 -13 32 0 54 17 28 18 38 7 68
-11 28 -11 34 0 62 l8 21 0 40 -1 41 6 6 6 6 25 -1 c27 -2 38 0 51 8 11 7 22
12 27 12 6 0 36 -14 41 -20 2 -2 4 -3 5 -3 1 1 2 0 2 -1 0 -1 -2 -3 -5 -4 -6
-2 -6 -2 2 -2 5 0 7 1 7 3 0 2 1 3 1 2 1 0 3 0 4 2 2 1 8 3 15 3 7 0 16 1 20
3 9 3 28 15 28 17 0 1 5 4 12 7 10 5 13 6 30 6 l19 0 13 -10 c13 -11 13 -11
26 -11 l13 0 9 10 c9 11 20 17 28 16 3 0 4 0 3 2 -1 2 0 1 2 0 3 -2 5 -4 7 -4z
m563 -24 l22 -11 39 -1 c40 -1 41 -1 50 -9 2 -3 2 -3 -1 -3 -2 0 -3 -1 -3 -2
0 -3 -35 -36 -43 -40 -7 -4 -12 -5 -42 -6 -36 -1 -41 -2 -49 -11 -6 -6 -14
-26 -14 -33 0 -7 -9 -14 -17 -14 -23 0 -52 23 -44 35 2 3 4 12 4 21 2 21 -1
24 -36 37 -14 5 -27 10 -28 11 -1 1 -5 2 -8 2 -5 1 -5 1 -1 1 3 1 4 2 2 3 -2
1 -1 2 3 5 5 2 14 3 42 3 39 0 40 0 68 15 23 11 27 11 56 -3z m-1057 -89 c14
-7 14 -41 0 -48 -3 -2 -7 -3 -8 -3 -8 0 -38 -19 -37 -24 0 -1 -1 -5 -3 -9 -2
-4 -5 -11 -6 -15 -7 -17 -43 -17 -50 0 -8 18 2 42 16 42 8 0 33 16 36 23 0 1
2 6 4 10 2 4 5 11 6 15 5 13 26 17 42 9z m891 -18 c6 -4 6 -6 6 -20 0 -14 0
-16 -6 -20 -4 -4 -7 -5 -18 -5 -11 0 -14 1 -18 5 -6 4 -6 6 -6 20 0 14 0 16 6
20 4 4 7 5 18 5 11 0 14 -1 18 -5z m438 -26 c3 -3 3 -3 0 -6 -4 -5 -11 1 -7 6
4 4 4 4 7 0z m-235 -23 c4 -3 8 -6 9 -7 0 -2 2 -4 4 -5 5 -6 14 -30 11 -30 0
0 -3 -2 -5 -6 -3 -5 -4 -5 -17 -4 -23 1 -38 -7 -46 -25 -9 -19 -18 -25 -27
-16 -5 5 -4 40 1 46 2 2 5 6 6 9 2 3 4 6 5 6 4 0 14 11 20 20 3 6 7 11 9 13 7
4 21 4 30 -1z m-290 -35 c11 -6 20 -13 20 -18 0 -4 -9 -12 -18 -17 -23 -10
-31 -30 -22 -51 5 -11 12 -18 28 -26 8 -4 15 -9 17 -11 4 -6 4 -24 1 -31 -2
-2 -3 -12 -3 -21 -1 -14 0 -18 3 -24 18 -29 22 -42 17 -47 -3 -3 -4 -3 -10 -1
-4 2 -7 4 -7 5 0 2 -2 5 -5 7 -3 3 -5 6 -5 8 0 2 -1 2 -1 1 -1 -1 -7 -2 -14
-1 l-13 0 -5 -8 c-10 -15 -9 -36 2 -49 3 -3 5 -6 5 -7 1 -1 25 -13 26 -12 1 0
3 -2 6 -5 5 -5 6 -16 1 -24 -2 -3 -3 -7 -3 -8 0 -4 -19 -25 -24 -28 -3 -1 -10
-4 -16 -5 -6 -1 -19 -5 -30 -8 -29 -9 -36 -8 -54 9 -7 6 -14 11 -16 12 -2 1
-4 2 -4 3 0 1 -3 3 -6 4 -11 5 -16 20 -7 29 4 4 4 5 14 2 13 -4 33 -5 39 -2 3
1 7 5 9 8 4 5 4 7 5 146 l1 140 5 8 c2 4 10 12 17 17 15 12 28 13 47 5z m-116
-5 c5 -5 5 -11 0 -16 -10 -10 -27 5 -16 16 4 4 12 4 16 0z m-201 -5 c3 -3 6
-8 6 -11 1 -6 10 -22 16 -29 3 -3 5 -6 5 -7 0 -1 1 -2 2 -2 2 0 6 -15 9 -28 2
-12 8 -21 23 -36 17 -17 23 -27 26 -47 3 -13 2 -15 -1 -18 -3 -2 -5 -4 -7 -5
-6 -1 -22 6 -32 15 -6 5 -17 11 -25 15 -14 5 -15 5 -57 5 -45 0 -49 1 -49 9 0
8 5 9 35 8 46 -1 54 3 56 26 1 8 1 14 0 14 -1 0 -4 3 -7 6 -4 3 -7 6 -8 6 0 0
-5 3 -10 6 -11 8 -17 15 -17 21 0 7 -7 26 -12 32 -6 7 -15 12 -25 12 -7 0 -8
1 -8 7 1 3 1 6 1 7 0 0 16 0 36 0 l37 0 6 -6z m428 -9 c19 -9 29 -19 29 -27 0
-9 -6 -15 -14 -15 -15 0 -52 14 -56 22 -4 7 -2 18 3 23 7 7 19 6 38 -3z m-544
-37 c4 -5 4 -21 0 -34 -3 -9 -9 -18 -25 -32 -2 -2 -7 -7 -10 -11 -14 -19 -22
-23 -36 -20 -10 2 -14 8 -14 21 0 13 3 17 15 22 5 2 9 4 9 5 0 1 1 2 3 2 6 0
21 27 21 39 0 15 28 21 37 8z m744 -95 c-3 -3 -5 -5 -5 -6 0 -1 -17 -1 -38 -1
-41 0 -45 1 -45 9 0 7 5 9 21 8 8 0 22 1 31 3 26 5 29 5 36 -1 l5 -6 -5 -6z
m-459 -77 c17 -7 20 -36 6 -50 -8 -9 -30 -8 -41 1 -10 9 -10 33 -1 43 7 8 24
11 36 6z m-105 -20 c12 -12 1 -35 -14 -31 -1 0 -6 0 -10 0 -10 0 -21 7 -17 11
1 2 2 3 1 3 -2 0 9 15 15 18 8 6 19 5 25 -1z m-71 -32 c1 1 2 0 3 -1 1 -1 5
-2 10 -2 l8 -1 -7 0 c-5 -1 -8 -2 -8 -4 0 -2 1 -3 2 -3 2 0 2 -1 1 -1 -2 -3
-80 -4 -82 -2 -3 3 -3 9 0 12 1 1 14 2 36 1 20 -1 36 0 37 1z m631 -2 c3 -3 3
-9 0 -12 -1 -1 -17 -2 -40 -2 -39 0 -42 1 -42 8 0 7 3 8 42 8 23 0 39 -1 40
-2z m-529 -45 c4 -2 10 -6 14 -10 3 -3 9 -8 13 -11 14 -11 18 -34 7 -45 -6 -6
-7 -6 -21 -6 -11 0 -16 5 -26 22 -15 28 -18 41 -11 49 6 6 14 6 24 1z m313
-12 c6 -6 6 -15 1 -21 -10 -10 -26 -3 -26 11 0 12 16 19 25 10z m286 -18 c15
-3 18 -7 18 -25 0 -20 -4 -24 -24 -26 -8 -1 -20 -3 -27 -5 -12 -4 -14 -5 -19
-13 -3 -5 -5 -9 -5 -10 0 -2 -2 -6 -4 -11 -2 -5 -5 -13 -7 -18 -2 -5 -5 -11
-7 -13 -1 -2 -6 -8 -9 -12 -3 -4 -6 -8 -7 -9 -1 -1 -4 -5 -8 -11 -4 -5 -10
-13 -13 -17 -4 -4 -7 -8 -7 -9 0 -4 -21 -12 -36 -13 -8 -1 -21 -3 -28 -5 -24
-6 -45 -3 -55 8 -3 4 -7 7 -9 7 -2 0 -2 0 0 2 2 1 1 3 -5 9 -7 7 -18 11 -29
10 -12 -1 -18 11 -10 19 4 4 11 4 14 0 2 -1 4 -1 9 1 3 1 7 3 8 3 13 2 25 9
31 17 2 4 6 7 9 9 13 7 29 18 40 30 12 12 24 20 32 20 10 0 35 17 35 24 0 8
38 36 55 40 7 2 44 1 58 -2z m-1270 -26 c3 -4 3 -7 2 -23 0 -10 -1 -19 -2 -21
-8 -31 -12 -37 -32 -37 -18 0 -27 9 -28 27 0 14 15 47 26 56 8 7 27 6 34 -2z
m69 -56 c5 -6 5 -12 0 -18 -7 -8 -22 -2 -22 9 0 11 15 17 22 9z m735 -13 c4
-4 5 -7 5 -14 0 -13 -2 -16 -17 -23 -21 -10 -31 -27 -27 -47 2 -8 -1 -19 -6
-22 -1 0 -6 1 -10 3 -21 10 -41 1 -51 -21 -4 -9 -11 -16 -17 -16 -6 0 -13 7
-17 16 -6 15 -21 26 -40 30 -8 2 -15 7 -13 11 0 1 -1 3 -2 5 -7 9 0 44 11 57
7 6 7 6 19 5 16 -2 38 -2 43 -1 2 1 8 4 13 6 7 4 12 5 34 5 24 1 40 3 48 9 6
4 22 2 27 -3z m-389 -10 l-5 -5 -4 4 -5 5 4 4 5 5 4 -4 5 -5 -4 -4z m-403 -53
c4 -6 4 -24 -1 -30 -5 -6 -15 -8 -29 -5 -7 2 -20 4 -29 6 -9 2 -20 5 -23 6 -4
2 -7 3 -9 3 -1 0 -1 4 0 10 0 1 3 4 6 8 7 6 7 6 26 6 10 0 24 1 30 2 14 1 24
-1 29 -6z m404 -32 c15 -9 27 -48 18 -61 -5 -8 -12 -10 -30 -9 -7 0 -15 11
-16 23 -6 40 6 60 28 47z m124 -15 c6 -4 6 -6 6 -20 0 -14 0 -16 -6 -20 -4 -4
-7 -5 -18 -5 -11 0 -14 1 -18 5 -6 4 -6 6 -6 20 0 14 0 16 6 20 4 4 7 5 18 5
11 0 14 -1 18 -5z m725 -8 c3 -2 6 -5 8 -7 2 -2 8 -8 14 -13 11 -10 18 -19 18
-24 0 -5 -7 -11 -12 -10 -6 2 -22 -4 -24 -9 -1 -2 -3 -4 -4 -3 -1 1 -2 0 -2
-1 0 -1 -2 -2 -4 -3 -5 -1 -18 -15 -18 -18 0 -2 -3 -5 -8 -6 -1 0 -2 -1 -2 -1
-1 0 -3 -1 -6 -1 -6 -1 -6 0 -6 -11 -1 -15 0 -16 5 -16 3 0 5 -1 4 -2 -1 -1 0
-2 1 -3 1 -1 3 -6 4 -11 2 -11 -1 -18 -7 -18 -5 0 -13 6 -13 9 0 4 -6 16 -8
14 0 -1 -4 2 -7 5 -9 9 -19 10 -32 6 -8 -3 -14 -6 -17 -10 -1 -1 -5 -4 -10 -6
-20 -12 -29 -27 -32 -53 -2 -18 -4 -20 -33 -27 -13 -3 -25 -7 -26 -8 -1 -1 -3
-2 -5 -2 -3 0 -3 -2 -2 -16 2 -25 -1 -24 58 -25 48 0 49 0 56 -5 l7 -4 -6 -7
c-4 -4 -7 -8 -7 -9 0 -1 -1 -2 -2 -2 -1 0 -5 -2 -8 -4 -5 -3 -11 -5 -30 -6
-12 -1 -25 -2 -27 -3 -6 -2 -11 -13 -11 -25 0 -6 -1 -10 -2 -11 -2 0 -2 -1 0
-1 6 0 8 -5 8 -15 0 -13 -6 -19 -19 -19 -13 0 -19 6 -19 19 0 10 2 15 8 15 2
0 2 1 1 1 -2 1 -3 5 -3 12 0 6 -1 11 -2 11 -1 0 -2 3 -2 6 0 9 -4 16 -10 18
-3 2 -5 3 -5 4 1 1 -2 4 -5 8 -3 4 -6 6 -6 5 0 0 -3 1 -7 2 -4 2 -13 3 -21 4
-22 1 -29 7 -29 27 0 15 4 20 18 27 26 12 49 32 54 47 0 1 1 2 2 4 0 2 1 6 2
11 1 4 1 8 2 9 1 1 0 4 -1 7 -2 3 -3 11 -4 18 -1 11 -1 12 5 18 l6 6 49 0 49
0 11 6 c14 8 22 18 28 34 7 19 14 30 22 36 4 2 11 9 16 14 6 5 12 10 14 12 7
4 28 4 34 0z m-150 -37 c5 -6 5 -12 0 -18 -7 -8 -22 -2 -22 9 0 11 15 17 22 9z
m166 -62 c6 -6 7 -14 2 -18 -2 -2 -4 -4 -4 -3 0 0 -2 0 -4 -1 -3 -1 -6 0 -9 3
-4 5 -8 15 -5 15 1 0 3 3 5 6 4 6 6 6 15 -2z m-1195 1 c5 -5 3 -21 -5 -34 -8
-13 -15 -17 -28 -17 -15 0 -22 7 -22 22 0 14 5 21 17 27 18 8 31 9 38 2z m681
-7 c8 -6 11 -13 11 -33 0 -19 -3 -28 -10 -32 -20 -11 -35 -22 -35 -26 0 -3 -7
-15 -12 -22 -5 -7 -12 -11 -20 -11 -4 0 -5 -1 -3 -1 4 -1 4 -2 3 -18 l0 -16 6
-2 c3 -2 11 -2 18 -2 12 0 13 0 19 -6 8 -9 8 -19 0 -28 l-6 -6 -86 0 -86 0 -5
6 c-2 3 -6 5 -8 5 -2 0 -2 1 -1 1 4 2 -3 15 -6 15 -5 0 6 9 12 11 3 0 26 1 51
1 46 0 51 1 58 9 2 2 4 8 5 12 1 4 2 10 2 13 1 2 0 5 -2 7 -8 8 1 27 15 30 8
2 20 9 20 11 0 1 1 2 3 2 3 0 2 26 -1 31 -3 6 -18 9 -41 9 -21 0 -32 -4 -38
-13 -5 -7 -11 -26 -11 -35 0 -8 -8 -16 -15 -16 -12 -1 -16 1 -34 9 -10 5 -26
11 -37 13 -25 6 -29 10 -29 26 -1 17 1 21 17 29 16 9 24 15 23 17 -1 1 0 2 2
2 1 0 7 2 11 5 l9 5 77 0 c42 0 82 1 89 2 16 2 29 1 35 -4z m578 -86 c5 -5 5
-11 0 -16 -10 -10 -27 5 -16 16 4 4 12 4 16 0z m-968 -19 c13 -6 17 -24 11
-49 -1 -7 -3 -17 -4 -22 -4 -33 -8 -38 -30 -38 -9 0 -17 1 -20 2 -6 4 -18 4
-20 0 -2 -2 -3 -6 -3 -10 0 -7 4 -11 12 -13 4 0 22 -18 21 -20 -1 0 0 -2 2 -2
11 -5 15 -21 6 -29 -4 -3 -6 -4 -17 -4 -8 0 -14 0 -15 -1 -1 0 -5 -1 -8 -2
-16 -3 -23 -15 -23 -42 0 -41 10 -53 46 -57 27 -4 30 -9 31 -52 0 -27 -14 -32
-32 -10 -5 6 -6 6 -20 6 l-15 -1 -4 -9 c-5 -8 -5 -12 -5 -46 l0 -37 -6 -6 -6
-6 -40 0 -40 0 -6 6 c-6 6 -6 6 -6 27 0 25 -4 35 -18 48 -20 18 -22 27 -8 45
9 12 15 28 16 43 0 5 1 16 2 24 1 14 1 16 -3 22 -5 7 -19 14 -33 15 -10 1 -17
6 -19 12 -11 27 -14 32 -22 41 -14 14 -16 18 -16 26 0 15 17 22 29 10 3 -3 9
-9 13 -14 14 -17 27 -20 45 -12 20 10 27 24 27 62 0 18 5 24 19 24 8 0 12 -2
23 -9 14 -9 15 -10 30 -10 17 -1 21 0 21 4 0 6 13 27 31 48 0 1 5 9 9 16 6 12
9 16 16 19 8 4 20 4 29 1z m-305 -6 c3 -5 3 -5 0 -10 -2 -3 -5 -5 -7 -5 -2 0
-5 2 -7 5 -3 5 -3 5 0 10 2 3 5 5 7 5 2 0 5 -2 7 -5z m1174 -3 c11 -10 3 -28
-11 -28 -9 0 -16 6 -16 16 0 14 17 22 27 12z m-792 -23 c5 -8 1 -16 -8 -16 -9
0 -13 8 -8 16 2 3 5 5 8 5 3 0 6 -2 8 -5z m435 -5 c5 -4 6 -9 10 -33 5 -34 12
-50 29 -68 10 -10 11 -13 11 -20 0 -11 -6 -17 -17 -17 -10 0 -16 5 -23 18 -4
9 -14 17 -29 27 -6 4 -12 9 -13 11 -2 4 -7 53 -6 69 0 18 25 27 38 13z m-362
-2 c7 -4 9 -6 8 -11 0 -1 -1 -3 -1 -4 0 -2 -13 -3 -16 0 -2 1 -3 1 -3 0 0 -1
-2 1 -4 4 -4 5 -4 5 -1 10 5 6 7 6 17 1z m-577 -100 c5 -2 14 -8 19 -12 10 -8
11 -9 43 -21 22 -8 26 -13 26 -30 0 -13 -5 -22 -13 -25 -11 -5 -40 -3 -40 2 0
1 -1 2 -3 2 -2 0 -9 13 -9 19 0 1 -2 5 -5 8 -3 3 -5 7 -5 7 0 1 -6 6 -14 11
-19 13 -26 20 -26 29 0 15 9 18 27 10z m831 -20 c5 -6 5 -20 1 -28 -2 -3 -6
-7 -10 -10 -16 -12 -24 -30 -23 -52 1 -7 0 -12 -1 -14 -1 -1 -4 -4 -6 -6 -4
-6 -32 -16 -42 -16 -3 0 -15 3 -27 7 l-21 7 -43 0 -43 -1 -6 6 c-5 6 -6 8 -6
20 0 12 1 14 6 20 l6 6 44 0 44 0 18 9 c14 7 20 11 37 28 21 21 24 23 41 28
14 4 26 2 31 -4z m-331 -2 c7 -6 7 -19 1 -25 -6 -7 -19 -7 -25 -1 -7 6 -7 19
-1 25 6 7 19 7 25 1z m867 -9 c15 -8 14 -41 0 -48 -4 -2 -11 -3 -17 -4 -28 -1
-40 -12 -36 -32 2 -12 19 -18 43 -17 10 0 13 -1 16 -4 5 -5 5 -15 0 -20 -5 -5
-6 -5 -36 2 -14 4 -28 7 -32 7 -13 2 -23 6 -41 18 -10 7 -11 7 -26 7 -12 0
-17 -1 -24 -5 -8 -4 -11 -4 -65 -5 l-57 -1 -6 6 c-5 6 -6 8 -6 20 0 12 1 14 6
20 l6 6 70 -1 c80 0 79 0 103 20 9 9 15 12 20 13 11 2 28 8 41 14 17 9 29 10
41 4z m-447 -36 c14 -3 19 -26 7 -37 -5 -6 -7 -7 -16 -7 -9 0 -11 1 -16 7 -9
8 -9 23 -1 32 7 7 13 8 26 5z m78 -104 c9 -8 7 -24 -5 -40 -4 -6 -5 -22 -1
-30 3 -6 7 -9 20 -13 2 0 30 -1 61 -1 l57 0 9 5 c9 6 19 19 27 33 5 10 19 14
33 9 9 -3 32 1 43 7 10 6 26 7 32 2 3 -2 8 -8 11 -15 9 -16 16 -23 30 -28 26
-11 39 -13 90 -14 l47 0 8 -6 c4 -3 7 -6 6 -6 -2 0 -3 -6 -4 -15 -3 -26 -4
-27 -65 -25 -30 0 -45 0 -50 -2 -9 -3 -18 -10 -19 -15 0 -3 -1 -6 -2 -6 0 -1
-1 -5 -1 -8 0 -4 -1 -7 -2 -8 -2 0 -2 -1 1 -1 9 0 0 -17 -9 -17 -9 0 -18 17
-8 17 2 0 2 1 1 1 -2 1 -3 4 -3 8 0 3 -1 7 -1 8 -1 0 -2 3 -2 5 -3 19 -45 24
-61 8 -6 -6 -14 -22 -15 -32 -2 -19 -10 -26 -28 -27 -17 -1 -25 6 -32 30 -5
15 -7 19 -15 26 -4 5 -9 9 -11 9 -1 0 -4 1 -6 2 -2 0 -41 1 -85 1 -80 1 -82 1
-91 -3 -5 -2 -10 -6 -12 -9 -4 -7 -9 -25 -9 -36 0 -8 -1 -10 -6 -15 -6 -6 -7
-6 -18 -6 -11 0 -12 0 -18 6 -5 5 -6 7 -6 16 0 13 -6 31 -13 38 -9 9 -16 10
-70 10 l-50 -1 -20 -10 c-27 -13 -33 -13 -60 0 l-20 10 -27 1 c-35 1 -56 -1
-57 -6 -2 -4 -14 -16 -22 -21 -11 -7 -25 -1 -25 11 0 11 11 17 32 18 11 1 14
2 13 4 -1 1 0 2 1 2 1 0 2 1 1 2 -1 1 0 2 2 2 3 0 14 12 20 23 8 14 13 16 51
17 36 2 38 2 38 4 0 1 3 3 7 5 4 1 9 6 12 10 2 5 8 11 12 16 6 6 7 7 17 7 10
0 11 -1 17 -7 4 -5 10 -11 12 -16 3 -4 8 -9 12 -10 4 -2 7 -4 7 -5 0 -1 2 -2
6 -2 8 -1 106 -1 111 0 10 3 17 7 17 8 0 1 1 2 3 2 2 0 27 24 32 30 4 6 13 25
15 33 3 11 8 15 21 15 7 0 10 -1 14 -5z m628 -144 c4 -4 5 -7 5 -15 0 -14 -6
-20 -20 -20 -14 0 -20 6 -20 20 0 14 6 20 20 20 8 0 11 -1 15 -5z"/>
</g>
</svg>
