<?xml version="1.0" standalone="no"?>
<!DOCTYPE svg PUBLIC "-//W3C//DTD SVG 20010904//EN"
 "http://www.w3.org/TR/2001/REC-SVG-20010904/DTD/svg10.dtd">
<svg version="1.0" xmlns="http://www.w3.org/2000/svg"
 width="1111.000000pt" height="2870.000000pt" viewBox="0 0 1111.000000 2870.000000"
 preserveAspectRatio="xMidYMid meet">
<metadata>
Created by potrace 1.15, written by Peter Selinger 2001-2017
</metadata>
<g transform="translate(0.000000,2870.000000) scale(0.500000,-0.500000)"
fill="#000000" stroke="none">
<path d="M263 3845 c-11 -4 -17 -9 -22 -18 -4 -8 -4 -11 -5 -96 0 -81 0 -90 4
-111 4 -22 4 -22 0 -44 -7 -36 -5 -69 4 -91 5 -12 6 -16 6 -23 0 -6 -3 -18 -6
-23 -3 -5 -8 -25 -8 -29 1 -3 -1 -7 -5 -11 l-6 -6 -51 1 c-60 0 -64 -1 -72
-17 -4 -8 -4 -12 -3 -36 0 -11 -3 -17 -13 -24 l-9 -8 1 -14 c1 -8 2 -16 3 -17
3 -6 16 -8 49 -8 31 1 31 1 40 7 10 7 16 17 21 33 2 6 5 11 8 13 6 4 21 4 27
1 9 -5 9 -7 10 -86 1 -41 2 -77 3 -79 2 -6 10 -11 22 -13 6 -1 12 -2 13 -3 1
0 2 0 3 2 1 2 4 3 10 3 10 0 17 -6 17 -15 0 -11 -13 -54 -18 -59 -5 -5 -10 -5
-10 0 0 2 -1 2 -2 1 0 -1 -5 -3 -11 -5 -8 -2 -27 -12 -22 -12 0 0 0 -3 -2 -7
-2 -6 -3 -16 -3 -49 l0 -41 -5 -7 c-4 -4 -9 -6 -15 -7 -5 -1 -12 -3 -15 -4
l-7 -3 0 -18 1 -17 10 -6 c15 -10 21 -15 26 -27 7 -13 7 -30 1 -36 -6 -6 -22
-6 -35 0 -14 6 -41 34 -47 48 -17 42 -22 45 -72 36 -39 -7 -48 -11 -55 -24 -3
-5 -6 -17 -6 -23 0 -2 45 -143 52 -162 1 -4 7 -23 13 -40 13 -43 18 -49 42
-62 14 -8 18 -14 20 -28 1 -8 3 -13 5 -14 4 -3 15 -4 15 -1 0 1 1 2 2 2 6 -2
18 5 24 14 3 5 12 15 20 21 7 7 13 13 14 13 1 1 3 -1 5 -3 2 -3 5 -7 6 -8 1
-1 2 -3 3 -5 1 -8 8 -11 22 -11 8 0 14 -1 14 -2 0 -1 2 1 4 3 7 9 27 9 34 0 5
-6 5 -22 0 -34 -9 -18 -22 -45 -26 -48 -1 -2 -5 -4 -8 -4 -7 0 -29 -13 -34
-20 -7 -10 -8 -18 -8 -58 0 -43 1 -50 11 -59 5 -3 9 -5 18 -5 6 -1 11 -1 11 0
0 1 7 8 16 18 l15 16 13 0 c12 0 15 -1 19 -5 6 -4 6 -6 6 -19 0 -15 0 -15 -12
-33 -6 -11 -11 -20 -11 -21 0 -1 -2 -4 -5 -7 -3 -3 -5 -7 -5 -7 0 -1 -4 -3 -8
-5 -4 -2 -8 -4 -8 -5 0 -1 -1 -2 -3 -2 -1 0 -5 -3 -7 -6 -3 -4 -6 -8 -7 -9 -1
-1 -4 -5 -6 -9 -10 -21 -33 -34 -66 -37 -9 -1 -30 -3 -48 -6 -18 -3 -37 -5
-43 -6 -22 -2 -36 -10 -53 -26 -8 -7 -9 -10 -9 -17 -1 -27 2 -30 36 -40 46
-14 77 -41 88 -77 9 -28 14 -63 17 -113 2 -39 10 -52 33 -58 17 -5 94 11 133
27 35 14 77 40 80 49 1 2 2 4 3 4 2 0 9 23 11 35 2 11 5 15 21 26 21 14 31 35
37 74 1 6 2 15 3 22 3 15 5 229 3 231 -1 0 -3 3 -4 5 -3 6 -11 9 -22 9 -7 0
-11 1 -12 3 0 1 -1 1 -1 -1 0 -9 -28 -11 -37 -3 -6 4 -6 6 -6 20 0 14 0 16 6
20 9 8 37 6 37 -3 0 -2 1 -2 1 0 1 1 5 2 12 2 12 0 19 3 22 10 1 2 3 4 3 4 3
0 2 38 0 46 -2 4 -5 10 -8 13 -5 4 -26 12 -32 11 -2 0 -5 2 -8 4 -4 5 -4 6 -1
16 4 17 13 34 24 44 5 6 10 9 11 9 0 0 3 2 5 6 11 17 11 11 11 151 0 94 1 131
3 136 2 7 7 10 38 24 9 4 28 19 28 23 0 1 1 6 2 10 1 4 2 9 2 11 1 4 11 12 18
13 4 1 8 2 8 3 1 1 4 -3 7 -8 l5 -11 1 -117 c1 -64 2 -119 3 -122 3 -8 7 -14
17 -25 5 -5 14 -14 18 -19 5 -6 12 -11 15 -12 7 -3 23 -3 29 1 3 1 11 2 18 3
11 0 12 0 18 -6 11 -10 8 -27 -9 -63 -5 -10 -10 -21 -10 -25 -2 -9 -13 -21
-19 -20 -7 1 -13 9 -15 22 -4 20 -6 22 -24 22 -15 0 -23 -4 -23 -10 0 -1 -2
-4 -4 -6 -6 -7 -6 -32 0 -37 6 -5 14 -18 14 -22 0 -4 -5 -11 -15 -23 -14 -17
-13 -1 -13 -286 0 -231 0 -258 3 -265 4 -9 14 -21 18 -21 2 0 3 -1 3 -2 0 0 2
-2 6 -2 8 -1 50 -1 51 0 1 1 1 10 1 20 0 18 0 19 -4 20 -17 2 -24 46 -10 60 5
5 7 6 17 6 13 0 18 -4 27 -20 4 -7 8 -12 8 -12 1 0 2 -1 2 -3 0 -1 2 -4 4 -6
1 -2 4 -6 6 -9 1 -3 7 -11 13 -17 9 -10 11 -11 21 -12 12 -1 19 1 43 15 45 25
76 68 73 99 -1 5 0 7 5 12 l6 6 62 0 c70 0 70 0 88 16 2 2 8 6 12 8 7 4 7 4
14 0 4 -2 10 -6 12 -8 18 -16 18 -16 76 -17 l52 0 21 6 c19 6 23 6 37 5 22 -2
34 2 36 13 0 1 1 4 3 7 1 3 2 10 2 15 0 9 3 17 10 33 3 5 4 10 4 17 -2 12 -6
17 -19 24 -8 4 -10 4 -96 4 -69 0 -91 -1 -100 -3 -15 -4 -29 -4 -44 0 -10 2
-28 3 -91 2 l-79 0 -6 6 -6 6 1 88 c0 84 0 88 -4 96 -6 12 -17 18 -39 20 -16
2 -22 16 -14 31 4 5 8 8 30 23 3 3 9 9 13 14 7 9 7 10 6 22 -1 10 -2 13 -6 17
-6 5 -23 15 -28 15 -14 3 -18 35 -6 46 5 5 18 7 28 5 15 -3 18 -9 22 -45 2
-19 5 -26 8 -24 1 1 2 -1 2 -3 0 -2 2 -8 5 -14 3 -5 8 -17 12 -27 4 -9 9 -21
11 -25 2 -4 7 -16 12 -26 15 -38 20 -45 37 -47 15 -3 23 2 41 26 16 20 19 23
55 51 14 11 25 25 37 48 3 6 11 10 34 19 14 5 20 9 39 25 12 9 28 15 24 8 -2
-4 -3 -21 -1 -30 2 -7 5 -12 12 -20 12 -13 16 -24 11 -39 -1 -5 -5 -11 -7 -12
-2 -2 -4 -5 -4 -7 0 -2 -1 -4 -2 -4 -3 0 -1 -26 3 -32 4 -6 11 -8 30 -8 8 0
21 4 21 8 0 0 7 8 15 17 14 15 15 16 21 14 6 -2 8 -4 18 -24 5 -12 13 -24 16
-28 8 -9 24 -15 42 -16 21 -2 25 -6 25 -25 -1 -40 -1 -42 2 -49 4 -8 13 -16
35 -29 47 -28 95 -34 112 -13 5 7 8 24 7 37 -2 13 3 20 14 20 14 0 18 -11 12
-39 -2 -10 -3 -26 -3 -41 0 -24 0 -25 -5 -32 -3 -4 -7 -7 -7 -6 -4 7 -27 4
-38 -5 -6 -5 -18 -28 -18 -34 0 -6 -6 -14 -12 -17 -19 -8 -42 2 -42 17 0 6
-12 29 -18 33 -13 12 -39 8 -50 -6 -1 -2 -3 -5 -5 -6 -4 -5 -13 -23 -19 -39
-3 -9 -7 -18 -9 -20 -4 -6 -2 -16 2 -18 2 0 3 -2 2 -3 -1 -2 23 -2 29 0 1 1 6
4 10 7 7 7 13 9 22 7 6 -1 10 -4 23 -18 16 -17 17 -17 74 -17 l50 0 6 -6 6 -6
-1 -26 c0 -15 1 -30 2 -36 3 -14 15 -34 25 -42 8 -7 10 -7 23 -7 12 0 14 0 19
5 17 16 31 19 48 12 28 -12 50 -9 68 7 5 5 19 31 19 37 0 1 2 4 5 7 4 4 6 4
18 3 38 -4 49 2 58 31 5 17 4 117 -1 128 -5 10 -27 21 -37 18 -5 -1 -16 0 -18
2 -4 4 -24 3 -31 -1 -4 -2 -10 -6 -15 -10 -6 -4 -12 -7 -15 -7 -3 0 -14 -2
-23 -4 l-17 -4 -1 -8 c-2 -11 0 -25 4 -28 18 -15 16 -40 -3 -40 -9 0 -14 5
-21 22 -8 18 -7 18 -24 18 -14 0 -14 0 -22 -8 -11 -11 -18 -15 -30 -15 -23 0
-30 12 -26 43 1 8 15 34 15 27 0 -1 3 0 7 2 6 2 7 2 9 0 2 -2 4 0 8 7 7 14 15
19 27 16 5 -1 14 -4 19 -6 16 -7 32 -3 46 10 4 4 9 9 12 11 6 4 24 4 30 0 8
-6 42 -3 42 3 0 1 1 2 2 2 2 0 4 1 6 3 3 3 14 4 19 3 4 -1 18 3 26 7 15 8 15
9 15 96 0 83 0 80 -12 109 -7 18 -7 20 0 38 4 8 8 19 9 24 3 8 3 75 3 455 l-1
446 -4 8 c-2 4 -7 13 -11 20 -8 15 -8 23 4 41 6 9 8 21 7 40 -2 21 1 32 8 41
3 3 10 15 15 26 6 13 14 24 19 30 l9 9 0 15 c0 15 0 15 -7 20 -5 3 -8 6 -9 7
-1 1 -10 9 -21 18 -20 15 -21 16 -31 16 -11 0 -21 -3 -27 -9 -18 -17 -43 -14
-43 5 0 20 -10 48 -21 61 -2 3 -11 14 -19 25 -21 29 -22 30 -37 30 -11 1 -14
0 -20 -4 -4 -3 -6 -6 -6 -7 1 0 1 -1 0 -1 -2 0 -3 -2 -4 -3 -4 -11 -5 -17 -6
-25 -3 -23 -4 -27 -6 -32 -3 -6 -10 -9 -22 -11 -20 -3 -36 -10 -45 -18 -2 -3
-9 -7 -14 -9 l-9 -5 -118 -1 c-108 -1 -119 -1 -124 -4 -10 -8 -19 -20 -22 -35
-5 -20 -31 -20 -36 0 -4 18 -16 34 -29 37 -4 1 -30 2 -59 2 -65 0 -68 -1 -74
-25 -1 -6 -3 -12 -4 -13 -1 -1 0 -2 1 -2 4 0 2 -15 -3 -20 -6 -6 -17 -5 -23 1
-4 4 -6 19 -2 19 1 0 1 2 0 5 -1 2 -3 8 -4 14 -4 16 -16 23 -40 20 -16 -1 -36
-11 -46 -22 -7 -9 -18 -36 -18 -44 0 -8 -11 -16 -22 -16 -17 0 -26 12 -27 36
-2 33 -10 42 -46 52 -23 7 -41 9 -50 7 -4 -1 -16 -7 -26 -13 -21 -13 -31 -14
-39 -6 -4 4 -4 6 -3 17 1 14 -2 35 -5 36 -1 0 -2 1 -2 2 0 3 -4 7 -11 11 -11
6 -95 39 -99 39 -15 -1 -26 -8 -32 -22 -5 -12 -6 -106 -1 -122 4 -11 11 -20
26 -29 18 -12 18 -28 0 -40 -15 -9 -22 -18 -26 -29 -2 -5 -3 -11 -3 -12 0 -2
-2 -7 -5 -11 l-5 -8 -10 10 c-9 9 -10 10 -21 11 -18 1 -26 -4 -34 -20 -4 -7
-11 -20 -16 -29 -5 -8 -9 -17 -9 -18 0 -2 -1 -3 -2 -2 -1 1 -18 -16 -18 -19 0
-1 -1 -2 -2 -2 -3 0 -2 -22 1 -32 2 -5 2 -10 2 -13 -1 -2 -2 -5 -2 -5 0 -1 -1
-2 -1 -3 -1 -1 -1 -5 -2 -7 -1 -8 -13 13 -12 21 2 28 2 32 -2 37 -3 2 -6 4 -8
4 -2 0 -4 1 -4 3 0 1 -1 0 -2 -1 -4 -7 -27 -3 -34 5 -7 9 -6 26 2 33 5 5 7 6
17 6 6 0 12 -1 13 -3 2 -2 5 -2 16 1 23 5 26 11 26 44 0 31 -5 38 -28 41 -5 1
-10 2 -10 2 -1 1 -2 0 -2 -1 0 -5 -23 -6 -32 -1 -28 16 -41 45 -26 59 5 6 7 7
17 6 6 0 14 -1 18 -3 7 -3 23 -17 23 -21 0 -2 0 -2 2 0 1 1 5 2 10 2 11 -1 21
4 23 10 0 2 0 4 -1 4 -1 0 -1 2 -1 4 -1 1 -2 5 -3 8 -1 3 -1 6 -1 6 0 2 -18
15 -24 17 -7 3 -11 9 -11 20 0 13 3 17 20 24 8 3 16 8 19 11 5 6 12 25 13 36
0 9 4 13 29 26 l21 11 0 11 c0 28 -5 30 -83 37 -7 0 -58 5 -114 11 -114 11
-106 10 -116 7z m1485 -230 c5 -3 19 -23 31 -46 5 -9 5 -12 5 -23 -1 -17 -7
-22 -25 -22 -18 0 -22 4 -27 28 -2 10 -6 25 -8 32 -5 17 -5 24 0 29 6 6 16 7
24 2z m-160 -10 c4 -3 5 -5 10 -19 8 -22 9 -32 5 -47 0 -2 -1 -6 -1 -9 0 -4
-1 -4 -1 -1 -1 1 -3 3 -4 3 -2 0 -3 1 -3 3 0 1 -1 1 -1 -1 -1 -1 -2 -2 -4 0
-1 1 -4 2 -5 2 -2 -1 -3 0 -3 1 -1 6 -4 11 -5 10 -1 -1 -2 0 -2 2 0 2 -2 3 -5
4 -21 5 -29 15 -26 34 2 11 8 19 17 21 9 2 22 1 28 -3z m-354 -67 l5 0 -4 -2
c-5 -2 -6 -5 -3 -7 1 -1 1 -25 0 -28 -1 -1 -2 -44 -1 -94 l0 -92 -6 -6 c-5 -5
-8 -6 -16 -6 -9 -1 -27 -6 -27 -9 0 0 -3 -2 -6 -4 -11 -5 -15 -23 -12 -47 3
-14 1 -23 -3 -23 -2 0 -3 -1 -2 -2 1 -1 2 -6 2 -12 1 -15 6 -22 18 -24 6 -1
17 -2 25 -2 14 1 15 1 21 -5 l6 -6 -1 -27 c-1 -21 -2 -28 -4 -31 -3 -4 -3 -9
-1 -18 0 -2 1 -4 1 -4 0 0 1 -2 1 -4 0 -2 4 -9 7 -16 11 -21 10 -43 -2 -62 -5
-7 -7 -13 -8 -20 -1 -7 -2 -9 -3 -6 -4 12 -10 24 -13 28 -2 2 -6 7 -9 10 -10
12 -10 35 0 42 16 11 19 16 19 32 l0 14 -14 11 c-8 6 -15 11 -16 12 -1 1 -5 4
-10 8 -18 12 -36 10 -54 -7 -29 -28 -41 -27 -115 7 -15 7 -27 11 -32 11 -11 0
-22 -6 -28 -15 -4 -7 -4 -9 -4 -191 0 -101 0 -193 1 -205 0 -12 0 -33 -1 -48
-1 -25 -1 -28 3 -36 4 -11 11 -18 18 -20 5 -2 5 -3 3 -5 -1 -1 -2 -2 -3 -2 0
1 -2 0 -4 -2 -2 -2 -11 -5 -20 -7 l-17 -3 -5 5 c-6 6 -6 7 -6 30 0 33 -6 49
-26 70 -5 5 -9 11 -10 14 -1 2 -5 5 -8 7 -3 1 -5 3 -5 4 1 0 1 1 0 1 -5 0 10
23 19 29 16 11 20 15 25 26 l5 11 0 191 c0 203 0 197 8 203 1 1 2 2 3 4 0 2 1
2 1 -1 0 -7 14 -21 26 -25 9 -4 15 -4 85 -4 44 0 79 1 84 2 12 3 17 9 18 26
l1 10 -15 15 c-8 8 -18 17 -23 20 -7 4 -10 8 -16 22 -14 28 -16 29 -90 29 -56
0 -67 -1 -70 -7 -2 -1 -2 -1 -2 1 0 1 -3 6 -6 10 -3 4 -6 9 -7 12 -6 32 -6 32
-3 46 2 8 3 16 4 18 0 2 1 19 1 38 1 39 0 47 -10 63 -14 22 -14 23 -7 36 4 7
8 13 9 13 1 1 1 2 0 2 -1 0 3 2 8 6 l10 5 148 1 148 1 5 -5 c3 -4 8 -6 10 -6z
m81 4 c6 -3 10 -6 9 -6 -2 -1 -3 -7 -4 -19 -2 -23 -6 -27 -25 -27 -18 0 -23 5
-25 21 0 7 0 14 2 16 1 3 1 5 0 8 -2 2 -1 3 1 3 2 0 3 1 3 2 0 3 14 7 23 8 2
0 9 -3 16 -6z m274 -33 c5 -5 7 -13 7 -25 1 -15 -3 -20 -21 -32 l-15 -10 0
-11 c0 -5 0 -12 -2 -15 -2 -3 -2 -4 1 -5 6 -2 28 -11 33 -14 7 -3 13 -17 17
-37 5 -27 3 -40 -5 -46 -1 -1 -2 -2 -3 -4 -1 -3 -1 -3 -1 0 0 2 -3 5 -8 8 -4
3 -8 6 -10 7 -1 2 -3 3 -4 3 -2 0 -17 14 -21 20 -2 3 -3 9 -3 19 0 10 -1 15
-4 19 -2 3 -4 7 -5 9 0 2 -2 3 -3 2 -1 -1 -2 0 -2 1 -1 1 -3 2 -5 3 -2 0 -7 1
-10 3 -18 7 -36 3 -49 -12 -4 -6 -9 -14 -10 -18 -1 -4 -5 -11 -9 -15 -15 -17
-19 -34 -12 -53 7 -19 3 -39 -9 -44 -15 -6 -34 -2 -39 9 -6 11 -3 35 5 41 3 2
12 19 16 29 5 17 4 61 -2 68 -1 1 -2 3 -2 5 0 2 -1 4 -2 4 -1 0 -8 19 -8 24 0
6 7 9 26 9 11 0 22 2 25 3 3 1 6 3 7 3 1 0 6 2 12 4 9 3 12 3 21 1 17 -4 29 4
46 32 4 6 8 12 8 12 0 0 4 1 8 3 11 4 28 4 32 0z m227 -28 c10 -5 13 -22 8
-39 -4 -11 -1 -27 9 -43 10 -17 9 -27 -4 -40 -11 -10 -12 -26 -3 -39 9 -13 9
-30 0 -38 -6 -6 -7 -6 -18 -6 -11 0 -12 0 -18 6 -5 5 -6 7 -6 18 l0 12 13 13
14 13 -1 13 c0 12 0 14 -5 18 -5 4 -17 25 -17 30 0 1 -1 5 -3 8 -5 11 -14 42
-13 51 0 7 4 22 7 22 0 0 4 1 8 3 9 3 21 2 29 -2z m-1053 -89 c7 -7 8 -19 3
-24 -2 -2 -3 -6 -3 -10 0 -7 1 -7 9 -9 5 -2 17 -3 26 -3 15 0 17 0 21 -4 6 -7
13 -38 14 -64 1 -23 4 -33 12 -42 16 -18 16 -45 0 -53 -13 -7 -31 -4 -44 9 -9
8 -25 15 -39 18 -17 3 -22 6 -25 13 -5 9 -5 25 1 34 9 15 11 20 11 39 0 11 1
21 2 22 3 3 5 9 6 14 2 6 2 24 1 23 -1 -1 -2 -1 -2 0 1 4 0 6 -4 6 -7 1 -16
11 -16 19 0 14 18 22 27 12z m-235 -46 c4 -3 10 -7 13 -9 8 -3 11 -10 12 -25
2 -17 10 -32 21 -37 8 -5 11 -5 28 -5 18 1 19 1 25 -5 l6 -6 -1 -105 -1 -105
-5 -7 c-3 -3 -6 -5 -6 -5 -1 1 -19 -3 -41 -8 -22 -5 -43 -10 -47 -11 -4 -1
-15 -5 -25 -9 -10 -4 -22 -8 -27 -9 -20 -4 -47 -1 -55 7 -6 5 -7 17 -1 22 7 9
30 17 49 17 13 0 31 5 37 11 10 8 10 12 10 107 0 95 0 96 -11 116 -3 6 -7 14
-9 17 -4 9 -3 25 3 36 3 5 5 10 5 12 0 8 10 9 20 1z m-197 -26 c8 -4 11 -12
12 -36 0 -13 2 -25 4 -32 5 -17 6 -32 2 -38 -7 -8 -28 -9 -35 0 -2 2 -4 9 -5
14 -2 15 -6 29 -15 44 -18 34 2 61 37 48z m1193 -65 c9 -4 17 -19 16 -32 -1
-7 4 -20 9 -27 7 -9 19 -12 37 -12 15 1 15 1 21 -6 7 -9 7 -24 0 -35 -3 -5 -6
-8 -8 -8 -1 0 -8 -2 -14 -4 -19 -5 -30 -2 -42 13 l-7 7 -15 -2 c-9 0 -16 -2
-17 -3 0 -1 -4 -7 -8 -14 -7 -10 -9 -12 -24 -20 -18 -8 -25 -15 -31 -26 -3 -7
-13 -56 -13 -67 0 -7 0 -7 -3 -4 -1 2 -3 3 -4 2 -2 0 -3 1 -4 3 -1 2 -1 86 0
139 0 15 7 21 22 21 28 0 40 14 42 48 1 15 5 21 15 26 7 4 20 4 28 1z m-286
-20 l-5 -5 -4 4 -5 5 4 4 5 5 4 -4 5 -5 -4 -4z m509 -80 c16 -12 35 -15 50
-10 11 4 23 2 30 -4 8 -6 13 -33 10 -57 -2 -17 -7 -22 -21 -22 -9 0 -11 1 -17
7 -3 4 -8 12 -10 17 -8 23 -17 27 -51 25 -23 -1 -23 -1 -29 4 -6 4 -6 5 -6 20
0 14 0 16 6 20 8 7 27 7 38 0z m-390 -2 c12 -7 14 -33 3 -43 -8 -9 -32 -9 -40
0 -9 8 -9 32 0 41 7 7 27 8 37 2z m-928 -48 c5 -8 1 -16 -8 -16 -9 0 -13 8 -8
16 2 3 5 5 8 5 3 0 6 -2 8 -5z m352 -57 c8 -10 5 -50 -5 -61 -4 -5 -11 -8 -21
-8 -21 -1 -34 16 -29 38 3 12 18 27 33 33 12 5 17 4 22 -2z m312 -69 c4 -4 4
-5 3 -62 l0 -58 7 -20 c8 -21 10 -26 14 -24 1 1 1 1 0 -1 -1 -1 3 -2 13 -2 9
0 14 1 13 2 -1 1 -1 2 0 2 1 -1 6 3 10 8 8 7 10 8 19 8 14 0 20 -6 20 -20 0
-14 -6 -20 -20 -20 -10 0 -11 1 -19 9 l-8 9 -13 0 c-11 0 -14 -1 -13 -2 1 -2
1 -2 0 -2 -2 2 -7 -2 -6 -4 1 -1 0 -2 -2 -2 -1 0 -4 -1 -5 -3 -6 -7 -17 -4
-36 9 -6 4 -15 9 -19 12 -12 7 -15 12 -15 21 0 9 4 14 14 20 9 6 24 22 24 26
0 2 1 6 3 8 1 4 2 15 1 43 -1 37 -1 39 3 43 5 5 6 5 12 0z m512 -3 c2 6 7 2
13 -10 3 -6 7 -13 10 -16 2 -2 4 -5 4 -6 0 -1 6 -8 13 -15 12 -12 14 -13 23
-13 5 0 14 -1 20 -1 18 -1 26 -6 30 -20 5 -21 -8 -39 -28 -38 -15 0 -21 4 -28
19 -4 7 -8 14 -9 14 -1 1 -9 2 -18 2 l-16 0 -2 -11 c-3 -10 -2 -12 2 -25 10
-30 11 -39 1 -61 -6 -15 -7 -18 -8 -46 -1 -26 -2 -31 -6 -39 -2 -5 -4 -11 -4
-13 0 -3 -1 -3 -1 -1 -1 2 -3 3 -8 2 -11 -1 -16 -10 -32 -57 -32 -95 -45 -126
-53 -129 -9 -3 -15 1 -22 15 -3 7 -8 13 -10 14 -2 1 -4 2 -4 3 0 2 -26 -1 -35
-4 -7 -2 -9 -2 -15 2 l-7 4 7 4 c5 3 9 4 15 3 16 -2 22 10 17 34 -2 9 -3 11
-14 18 -9 6 -14 7 -20 7 -23 0 -37 -22 -26 -41 5 -9 3 -13 -10 -17 -18 -6 -26
-6 -33 1 -5 4 -5 5 -5 46 1 46 1 48 16 53 21 7 30 13 39 28 10 16 13 18 22 18
8 -1 19 -9 19 -15 0 -2 1 -3 2 -3 1 0 2 -1 2 -2 0 -2 2 -5 5 -8 4 -4 5 -5 17
-4 9 0 12 0 12 -2 0 -2 2 2 4 7 4 8 4 13 3 26 -1 18 0 20 16 31 13 9 17 13 23
22 6 12 27 66 34 90 6 19 13 42 18 55 7 18 22 70 22 78 0 5 1 5 2 2 1 -4 2 -4
3 -1z m-416 -1 c4 -6 4 -21 0 -25 -5 -5 -17 -5 -22 0 -6 6 -7 17 -1 23 6 6 19
7 23 2z m35 -15 c0 -10 -1 -15 -2 -12 -1 5 -2 5 -15 5 l-13 0 0 9 0 8 14 0
c11 -1 13 0 14 3 1 7 2 2 2 -13z m-634 -3 c7 -4 7 -9 -1 -15 -5 -5 -5 -5 -10
4 -4 7 -4 8 -1 11 4 4 4 4 12 0z m658 -14 c18 -20 18 -31 1 -56 -3 -4 -5 -11
-5 -15 0 -5 -1 -6 -1 -2 -1 3 -3 7 -5 10 -2 2 -5 8 -6 12 -3 12 -4 42 -2 43 1
1 2 2 1 3 -1 1 2 4 5 6 3 3 6 6 6 8 0 2 1 1 1 -1 1 -2 3 -6 5 -8z m555 -3 c2
-3 3 -6 3 -7 0 -3 -8 -12 -11 -12 -2 0 -11 9 -11 12 0 5 6 11 11 11 3 0 6 -2
8 -4z m-771 -12 c5 -5 5 -15 0 -20 -9 -9 -24 -2 -24 10 0 8 6 14 14 14 3 0 8
-2 10 -4z m300 -38 c5 -6 5 -12 0 -18 -7 -8 -22 -2 -22 9 0 11 15 17 22 9z
m469 -15 c5 -6 4 -18 -2 -24 -11 -11 -31 -4 -31 12 0 10 3 14 12 20 7 4 7 4
12 1 3 -2 7 -6 9 -9z m-1493 -19 c4 -5 4 -11 -3 -33 -3 -9 -6 -23 -6 -31 -1
-20 -7 -27 -23 -27 -15 0 -23 8 -23 24 1 14 6 23 22 40 2 2 6 8 8 13 6 18 17
23 25 14z m80 -9 c6 -7 6 -22 -1 -28 -5 -6 -21 -7 -26 -3 -4 4 -9 14 -8 18 1
6 5 13 7 15 7 6 22 5 28 -2z m429 -8 c6 -4 6 -6 6 -20 0 -14 0 -15 -6 -21 -7
-7 -7 -8 -7 -23 0 -14 0 -16 5 -20 3 -3 7 -5 8 -5 2 0 4 -2 5 -4 1 -2 4 -4 6
-4 2 0 4 -1 5 -3 0 -2 0 -3 -1 -3 -1 0 -2 -1 -2 -3 0 -2 -1 -3 -3 -3 -2 0 -4
-1 -4 -3 -1 -1 -4 -2 -7 -2 -34 3 -43 3 -59 1 -16 -2 -37 -3 -50 -2 -2 0 -6 3
-9 6 -5 5 -6 7 -6 18 0 16 5 22 24 26 34 7 39 10 47 34 2 8 5 18 6 21 2 11 9
15 24 15 11 0 14 -1 18 -5z m433 -83 c2 -17 4 -33 5 -36 0 -3 1 -9 2 -14 1 -9
2 -16 4 -27 2 -10 -4 -19 -12 -19 -3 0 -8 -1 -10 -1 -4 -1 -12 -2 -26 -4 -28
-4 -43 -7 -47 -9 -7 -2 -17 -11 -21 -19 -4 -9 -9 -20 -9 -22 0 -5 -9 -11 -16
-11 -8 0 -13 4 -20 14 -14 21 -23 24 -55 23 -13 0 -20 0 -20 1 1 1 0 2 -1 2
-8 -2 -3 4 8 10 27 16 44 38 45 60 0 7 1 10 5 14 3 3 5 5 5 5 0 0 2 -2 5 -5 3
-3 5 -7 4 -9 0 -3 2 -10 5 -16 l5 -11 14 0 c9 1 14 0 14 -1 0 -1 1 0 3 2 19
35 20 36 36 35 38 -2 47 2 55 25 4 11 5 28 2 61 -1 19 -1 29 2 27 1 -1 2 -4 2
-7 0 -4 1 -5 4 -5 4 0 4 1 4 13 0 7 1 0 2 -16 1 -16 4 -43 6 -60z m94 52 c5
-5 6 -7 6 -17 0 -16 -7 -23 -23 -23 -10 0 -12 1 -17 6 -5 5 -6 7 -6 17 0 16 7
23 23 23 10 0 12 -1 17 -6z m-1191 -26 c16 -7 16 -43 -1 -50 -15 -6 -34 -2
-39 9 -4 8 -4 24 0 32 5 12 23 15 40 9z m316 -102 c7 -6 7 -19 1 -25 -6 -7
-19 -7 -25 -1 -7 6 -7 19 -1 25 6 7 19 7 25 1z m1284 -57 c6 -4 6 -6 6 -20 0
-14 0 -16 -6 -20 -4 -4 -7 -5 -18 -5 -11 0 -14 1 -18 5 -6 4 -6 6 -6 20 0 14
0 16 6 20 4 4 7 5 18 5 11 0 14 -1 18 -5z m-113 -47 c6 -3 13 -6 16 -8 9 -3
13 -11 13 -24 0 -13 -4 -21 -13 -24 -15 -6 -26 -12 -31 -17 -3 -3 -5 -5 -5 -4
0 1 -2 -1 -4 -5 -2 -5 -3 -13 -4 -28 0 -23 -2 -34 -7 -38 -2 -1 -3 -4 -3 -7 0
-4 0 -4 -3 1 -3 6 -14 12 -31 18 -16 5 -20 9 -22 20 -2 7 -1 11 1 18 4 11 8
15 19 17 12 1 21 5 30 11 5 3 10 5 10 5 1 -1 2 0 2 2 0 2 1 5 1 7 2 10 5 30 5
36 0 6 11 27 14 26 0 -1 6 -3 12 -6z m-831 -44 c10 -9 3 -26 -10 -26 -8 0 -15
7 -15 15 0 13 16 20 25 11z m-476 -62 c4 -3 5 -7 5 -13 0 -11 -6 -17 -17 -17
-15 0 -22 13 -14 28 3 5 4 6 12 6 7 0 11 -1 14 -4z m1386 -104 c6 -5 6 -19 3
-46 -2 -17 -7 -24 -17 -24 -10 0 -15 7 -15 22 0 23 4 42 8 47 6 6 15 6 21 1z
m-206 -3 c12 -12 3 -31 -13 -31 -11 0 -18 7 -18 18 0 11 7 18 18 18 6 0 9 -1
13 -5z m-761 -70 c4 -4 4 -4 3 -40 -1 -47 -3 -51 -34 -49 -2 0 -6 3 -9 6 -7 6
-8 17 -4 33 1 4 2 10 3 13 3 18 8 34 12 37 6 8 21 8 29 0z m-305 -10 c2 -1 5
-11 9 -31 9 -44 9 -46 -11 -65 -13 -13 -21 -17 -30 -17 -11 0 -15 5 -21 24 -6
17 -10 21 -29 27 -18 5 -21 6 -24 12 -5 7 -5 26 0 33 7 11 26 14 40 7 10 -5
33 -2 39 5 6 7 21 10 27 5z m-166 -125 c11 -12 24 -28 28 -35 8 -16 1 -31 -14
-31 -10 0 -16 4 -32 20 -19 20 -21 23 -21 35 0 13 6 19 20 19 10 0 11 -1 19
-8z m17 -178 c5 -5 5 -11 0 -16 -10 -10 -27 5 -16 16 4 4 12 4 16 0z"/>
<path d="M1176 2407 c-11 -4 -15 -6 -18 -6 -6 -2 -20 -12 -25 -19 -7 -10 -11
-28 -11 -46 1 -26 -5 -32 -35 -33 -27 -2 -36 -7 -70 -40 l-13 -12 0 -14 c0
-15 3 -21 13 -30 3 -2 6 -5 8 -6 9 -9 26 -11 36 -5 6 3 7 5 8 14 1 6 2 11 2
12 -1 1 -1 7 -2 13 -1 12 -1 13 4 18 7 7 17 7 31 -2 15 -9 32 -9 43 -1 10 9
16 12 26 19 6 4 12 7 13 7 1 0 2 1 2 2 1 0 5 4 10 9 16 12 26 22 27 28 2 8 0
28 -4 35 -4 8 -4 23 0 25 3 1 3 15 0 25 -3 9 -31 13 -45 7z"/>
</g>
</svg>
