<?xml version="1.0" standalone="no"?>
<!DOCTYPE svg PUBLIC "-//W3C//DTD SVG 20010904//EN"
 "http://www.w3.org/TR/2001/REC-SVG-20010904/DTD/svg10.dtd">
<svg version="1.0" xmlns="http://www.w3.org/2000/svg"
 width="1107.000000pt" height="2870.000000pt" viewBox="0 0 1107.000000 2870.000000"
 preserveAspectRatio="xMidYMid meet">
<metadata>
Created by potrace 1.15, written by Peter Selinger 2001-2017
</metadata>
<g transform="translate(0.000000,2870.000000) scale(0.500000,-0.500000)"
fill="#000000" stroke="none">
<path d="M369 3780 c-12 -2 -19 -7 -25 -18 l-4 -9 0 -91 1 -91 5 -9 c4 -6 10
-12 22 -20 14 -9 17 -12 18 -17 2 -13 0 -17 -18 -29 -26 -17 -28 -28 -12 -53
14 -21 14 -29 3 -46 -23 -33 -20 -48 9 -60 7 -3 14 -5 16 -5 6 0 12 -9 12 -19
0 -11 -5 -18 -16 -20 -14 -2 -25 -9 -28 -18 -5 -14 -2 -23 9 -27 5 -3 13 -5
18 -6 9 -1 15 -6 15 -12 0 -7 -11 -21 -14 -19 -5 3 -3 -32 2 -38 4 -6 6 -21 3
-28 -1 -3 -18 -15 -21 -15 -1 0 -5 -3 -9 -8 -14 -13 -15 -19 -15 -83 0 -68 1
-73 26 -91 6 -5 15 -13 21 -18 6 -6 17 -13 23 -16 21 -10 21 -11 18 -40 0 -5
-15 -9 -29 -8 -6 0 -19 14 -19 19 0 2 -1 3 -1 2 -1 0 -3 1 -6 3 -6 6 -32 18
-39 18 -3 0 -21 6 -40 14 l-35 13 -12 -2 c-13 -3 -21 -10 -25 -21 -1 -5 -2
-42 -2 -124 l0 -117 5 -11 c2 -6 8 -17 13 -23 4 -7 8 -15 9 -19 0 -6 -8 -35
-16 -52 -1 -4 -4 -14 -6 -23 -8 -31 2 -46 36 -55 5 -1 10 -4 12 -7 7 -9 1 -27
-9 -29 -10 -1 -27 -9 -33 -15 -10 -10 -12 -18 -10 -65 1 -23 1 -50 1 -62 0
-12 0 -104 -1 -205 -1 -166 -1 -185 2 -192 4 -9 14 -21 18 -21 2 0 3 -1 3 -2
0 -1 1 -1 3 -2 1 0 8 0 14 -1 17 -2 31 4 47 21 15 15 19 15 41 4 12 -6 19 -8
26 -8 11 -1 29 5 33 9 2 3 4 33 2 34 -4 1 -12 16 -12 20 0 11 -7 33 -15 45
-14 23 -9 40 12 40 13 0 16 -3 23 -24 3 -9 8 -23 12 -30 6 -12 6 -13 5 -32 -1
-23 1 -26 15 -26 18 0 25 4 36 24 6 10 13 21 17 24 23 20 30 32 29 51 -1 8 0
10 5 16 5 5 7 6 16 5 5 0 18 1 28 2 21 3 37 3 55 0 7 -1 32 -2 55 -2 47 0 52
1 71 13 12 7 15 16 15 41 0 24 2 28 12 28 8 0 13 -7 13 -17 0 -5 1 -13 3 -19
6 -16 21 -20 43 -11 21 9 30 6 45 -17 3 -6 8 -10 16 -13 l10 -5 111 0 112 0
13 5 c7 3 14 7 16 9 6 5 17 10 21 10 5 0 18 -6 23 -10 13 -12 45 -17 66 -11
10 3 27 15 27 19 0 1 1 3 2 5 1 1 4 5 7 9 8 9 24 17 45 19 9 2 15 -4 17 -18 3
-20 11 -32 25 -35 3 0 14 -1 25 -1 19 0 20 0 26 -6 l6 -6 -1 -55 c0 -47 0 -56
3 -63 4 -9 14 -21 18 -21 2 0 3 -1 3 -2 0 -2 10 -3 43 -3 34 0 78 6 90 12 6 3
13 10 13 13 0 0 1 3 1 5 1 4 1 15 1 35 0 6 1 16 3 22 3 10 3 17 3 46 -1 9 2
16 10 25 8 9 8 10 8 23 0 12 -1 15 -4 18 -18 15 -22 20 -22 28 0 12 5 15 37
20 15 3 35 5 43 5 19 1 18 0 19 5 0 1 3 5 6 8 2 3 7 9 9 13 3 4 9 11 13 15 10
9 13 17 13 28 0 11 -5 17 -21 24 -10 4 -21 15 -21 19 0 8 -13 21 -30 31 -9 5
-20 12 -23 15 -3 3 -10 8 -14 10 -13 9 -19 23 -12 29 2 1 3 3 3 4 0 1 3 5 6 9
3 3 9 11 14 18 9 16 13 19 22 18 12 -1 17 -5 35 -26 l10 -12 12 -1 c28 0 27
-4 27 111 0 97 -1 105 -9 115 -2 2 -3 4 -3 5 0 2 -1 4 -3 5 -11 9 -15 31 -8
46 3 7 6 9 28 20 28 15 42 24 46 32 5 9 3 26 -5 38 -4 7 -6 13 -7 21 -1 16 -6
31 -11 38 -3 3 -11 8 -19 12 -10 5 -16 10 -22 17 -4 6 -14 15 -23 22 -8 6 -16
12 -17 13 -1 0 -9 6 -17 12 -8 6 -17 13 -19 15 -3 2 -12 9 -20 15 -9 7 -17 13
-19 14 -1 2 -3 3 -4 3 -3 0 -8 11 -7 16 0 3 3 10 6 16 10 17 12 29 9 43 -2 10
-5 16 -21 37 -6 7 -7 10 -7 20 0 12 1 14 15 31 15 18 15 21 15 110 0 75 -1 95
-6 95 -1 0 -3 2 -6 4 -3 2 -6 4 -7 4 -1 0 -6 1 -11 2 -6 1 -10 1 -10 0 0 -1
-5 -2 -11 -2 -15 0 -21 5 -21 20 0 15 6 20 21 20 6 0 11 -1 11 -2 0 -1 4 -1
10 0 5 1 10 2 11 2 1 0 4 2 7 4 3 2 5 4 6 4 1 0 2 4 4 9 2 7 2 17 1 41 -1 17
-2 44 -2 59 0 21 -1 29 -3 33 -2 3 -3 6 -2 7 0 1 -1 0 -3 -1 -2 -2 -3 -2 -3
-1 1 1 -3 2 -11 1 -12 0 -13 0 -13 4 0 4 1 4 13 4 8 -1 12 0 11 1 0 1 1 1 3
-1 2 -1 3 -2 3 -1 -1 3 3 10 9 16 3 3 7 7 8 9 1 2 7 6 12 9 25 13 42 37 37 52
-3 10 -9 11 -36 11 -27 0 -39 -3 -51 -13 -15 -12 -35 -13 -45 -3 -10 9 -9 33
1 41 6 5 19 8 26 5 11 -4 32 -1 41 6 4 4 4 5 4 17 -1 8 -2 14 -4 15 -1 0 -2 1
-2 2 0 3 -5 8 -27 24 -11 8 -21 16 -23 17 -2 2 -8 6 -13 10 -6 5 -21 16 -34
26 -13 10 -25 19 -27 21 -7 4 -11 5 -51 5 -5 0 -17 0 -25 0 -8 0 -17 -1 -19
-2 -2 0 -5 -1 -5 -1 -3 0 -44 -43 -68 -69 -8 -11 -25 -17 -43 -17 -21 0 -24
-1 -53 -20 -9 -6 -21 -3 -31 7 -2 2 -7 5 -12 8 -8 4 -8 4 -113 4 -58 0 -108 0
-111 -1 -9 -2 -13 -9 -13 -23 l1 -13 -8 0 -9 0 0 11 c0 5 -1 12 -1 14 -1 4 -7
12 -8 10 -1 0 -4 0 -8 1 -3 1 -70 2 -149 2 -165 0 -146 -2 -206 21 -19 7 -40
16 -47 18 -7 3 -18 7 -25 10 -37 14 -52 20 -87 33 -21 8 -42 16 -46 18 -6 2
-10 3 -18 2z m1112 -88 c11 -10 3 -28 -11 -28 -9 0 -16 6 -16 16 0 14 17 22
27 12z m-465 -57 c18 -1 22 -2 24 -6 5 -5 5 -11 0 -17 -3 -4 -5 -4 -26 -4 -25
0 -33 -2 -39 -11 -4 -6 -5 -28 -1 -26 2 1 2 1 1 -1 -1 -2 1 -5 7 -10 8 -7 8
-8 8 -20 0 -11 -1 -13 -6 -18 -6 -6 -7 -6 -18 -6 -11 0 -12 0 -18 6 -5 5 -6 7
-6 18 l0 13 12 11 12 11 -1 14 c0 8 -1 14 -2 14 0 0 -3 3 -5 6 -5 7 -5 18 -1
25 3 4 4 4 21 3 9 0 26 -2 38 -2z m304 -11 c4 -6 4 -12 0 -16 -5 -5 -12 -4
-16 2 -2 5 -2 6 1 11 3 5 11 7 15 3z m-505 -7 c3 -5 3 -5 0 -10 -2 -3 -5 -5
-7 -5 -2 0 -5 2 -7 5 -3 5 -3 5 0 10 2 3 5 5 7 5 2 0 5 -2 7 -5z m589 -22 c2
-2 5 -5 5 -7 3 -7 14 -20 20 -24 5 -3 10 -4 19 -4 26 0 31 0 35 -3 7 -5 10
-11 10 -23 0 -19 -8 -26 -26 -27 -13 0 -22 4 -26 11 -4 8 -14 20 -16 19 0 -1
-1 -1 -1 1 0 8 -33 10 -54 3 -12 -4 -16 -8 -22 -21 -6 -12 -5 -46 1 -60 3 -5
6 -14 8 -19 4 -12 3 -17 -7 -41 -2 -4 -4 -11 -5 -14 0 -3 -1 -6 -1 -6 -1 0 -1
-1 -2 -2 0 -2 0 -5 -1 -8 -1 -3 -2 -9 -3 -15 -2 -12 -4 -21 -6 -24 -3 -6 1
-28 6 -40 7 -13 13 -17 28 -17 16 0 22 4 27 17 3 8 3 9 -1 24 -2 9 -5 19 -7
23 -3 8 -1 16 4 19 4 3 16 -4 21 -12 4 -8 22 -27 26 -28 5 -2 10 -12 10 -22 0
-7 -1 -11 -7 -18 -4 -5 -7 -10 -7 -11 0 -1 -1 -2 -2 -2 -2 0 -10 -24 -10 -32
0 -16 -5 -22 -25 -32 -18 -9 -36 -27 -44 -43 -6 -12 -6 -12 -6 -48 l0 -36 -6
-6 -6 -6 -35 1 c-38 0 -44 -1 -52 -12 -5 -6 -8 -27 -6 -29 4 -2 2 -20 -2 -26
-6 -11 -26 -15 -34 -7 -6 6 -7 23 -2 30 2 4 3 8 2 16 -3 20 -14 29 -37 28 -13
-1 -14 -1 -20 5 l-6 6 0 55 c0 30 -1 67 -2 82 0 14 0 26 1 26 1 0 4 5 7 10 3
6 8 13 11 16 3 2 6 5 6 7 0 1 3 5 7 9 7 6 7 7 18 5 18 -3 41 -2 53 2 6 1 18 4
26 6 22 4 26 8 33 32 2 8 2 10 -3 21 -10 22 -21 26 -64 26 -33 0 -41 -1 -51
-9 -7 -5 -18 -26 -20 -38 -2 -13 -8 -17 -22 -17 -21 1 -33 9 -40 29 -6 20 -3
34 11 40 9 4 21 15 25 23 4 6 4 15 5 77 1 68 1 70 6 78 9 18 29 33 49 38 22 5
30 3 52 -12 24 -15 29 -17 49 -22 15 -3 17 -3 29 0 10 3 14 5 15 8 1 2 2 3 2
2 0 -1 4 4 9 10 11 15 15 19 23 21 9 2 22 0 28 -3z m-559 -133 c0 -45 -1 -82
-2 -82 0 -1 -3 -4 -6 -8 -3 -4 -5 -5 -6 -4 -2 3 -23 2 -33 -2 -4 -2 -13 -9
-19 -15 -17 -18 -19 -18 -37 1 -16 16 -23 18 -56 18 l-27 -1 -5 6 -6 7 0 62
c0 35 -1 71 -2 81 -1 17 -1 19 4 23 l4 5 89 1 90 1 6 -6 6 -6 0 -81z m769 37
c2 -4 2 -6 0 -10 -3 -6 -8 -6 -13 0 -3 5 -3 5 0 10 5 6 10 6 13 0z m-1171 -43
c7 -6 7 -19 1 -25 -6 -7 -19 -7 -25 -1 -7 6 -7 19 -1 25 6 7 19 7 25 1z m1100
-10 c7 -6 7 -19 1 -25 -6 -7 -19 -7 -25 -1 -7 6 -7 19 -1 25 6 7 19 7 25 1z
m-584 -8 c3 -3 5 -7 7 -14 4 -21 -6 -35 -25 -33 -19 2 -26 9 -24 29 0 11 1 13
6 17 7 7 28 7 36 1z m-413 -72 c7 -1 22 -3 33 -4 17 -1 20 -2 25 -7 5 -5 5 -5
2 -19 -1 -8 -4 -24 -6 -36 -2 -12 -5 -23 -6 -26 -12 -22 -20 -28 -34 -28 -15
0 -19 4 -21 20 -1 9 -10 36 -15 46 -4 8 -9 28 -9 35 0 2 1 6 1 9 0 5 7 12 13
12 2 0 10 -1 17 -2z m327 -28 c4 -1 9 -5 12 -9 5 -6 5 -7 4 -22 -1 -21 -5 -32
-15 -43 -7 -7 -9 -8 -12 -6 -3 2 -4 1 -4 0 0 -2 -1 -1 -2 1 -2 2 -4 5 -5 5 -1
1 -2 6 -1 10 0 5 -2 14 -3 20 -4 13 -3 34 1 36 1 0 2 1 2 3 0 4 8 9 13 8 2 -1
7 -2 10 -3z m-98 -88 c21 -5 42 -5 52 -1 13 5 23 -5 19 -20 -1 -3 -2 -40 -1
-81 l0 -75 -6 -6 -6 -6 -87 0 -87 0 -6 6 -6 6 0 81 0 81 6 6 6 6 26 -1 c20 0
30 1 43 4 22 5 25 5 47 0z m-278 -13 c11 -2 14 -8 14 -21 -1 -22 -8 -28 -34
-26 -2 0 -6 3 -9 6 -5 5 -6 7 -6 17 0 22 12 30 35 24z m459 -8 c15 -14 31 -38
31 -46 -1 -10 -8 -17 -18 -17 -10 0 -15 3 -32 22 -19 20 -19 21 -19 31 0 21
21 27 38 10z m99 4 c5 -5 5 -6 5 -24 -2 -26 -9 -42 -20 -42 -9 0 -12 7 -10 23
1 7 2 20 3 28 1 8 2 15 3 17 5 5 14 4 19 -2z m438 -74 c12 -7 14 -33 3 -43 -8
-9 -32 -9 -40 0 -9 8 -9 32 0 41 7 7 27 8 37 2z m-536 -89 c3 -5 4 -22 1 -28
-4 -7 -25 -13 -31 -9 -9 7 -12 28 -5 37 7 9 27 9 35 0z m-110 -62 c5 -5 6 -7
6 -16 0 -6 -1 -11 -2 -12 -3 -3 -1 -19 2 -27 5 -13 23 -18 37 -11 9 5 12 9 13
21 1 6 2 11 3 13 2 1 2 2 -1 2 -2 0 -5 4 -5 8 0 3 7 9 11 11 3 1 5 0 8 -6 3
-7 2 -13 -2 -13 -3 0 -3 -1 -1 -2 1 -2 2 -7 3 -13 1 -12 4 -16 13 -21 13 -6
22 -5 47 5 13 6 27 10 31 10 4 0 17 -4 30 -10 l24 -9 135 0 135 0 9 -5 c7 -5
9 -7 12 -16 2 -6 5 -12 6 -13 2 -1 3 -3 3 -4 0 -5 11 -18 20 -23 11 -7 33 -8
71 -3 32 4 42 1 33 -10 -8 -9 -10 -24 -5 -42 6 -22 2 -32 -14 -32 -9 0 -22 8
-24 16 -3 9 -32 14 -45 7 -8 -4 -14 -4 -29 3 -15 7 -35 11 -40 7 -7 -4 -70 -2
-90 3 -17 4 -24 4 -82 4 l-63 0 -10 -6 c-9 -4 -12 -7 -21 -21 -13 -22 -15 -24
-27 -23 -22 0 -38 7 -49 21 -11 14 -17 19 -26 24 -8 4 -10 4 -102 4 -88 0 -94
0 -101 -4 -9 -4 -20 -15 -20 -18 0 -2 -1 -3 -2 -3 -1 0 -2 -1 -2 -2 0 -5 -11
-18 -16 -20 -12 -5 -24 -3 -40 6 l-15 9 -27 -1 -26 0 -9 8 c-6 5 -12 11 -15
13 -6 7 -23 12 -38 14 -18 2 -20 2 -30 -2 -4 -1 -8 -2 -8 -2 0 1 -4 -2 -9 -7
-15 -16 -25 -18 -25 -5 0 3 -1 9 -2 14 -2 8 -2 10 2 14 5 6 16 11 39 19 26 9
44 17 48 23 5 7 5 26 -1 37 -2 5 -4 11 -4 14 -1 10 0 16 2 16 2 0 4 1 5 3 3 5
19 4 26 0 2 -2 6 -6 8 -9 2 -4 6 -6 14 -8 7 -1 12 -2 12 -2 0 0 3 -1 6 -2 4
-1 8 0 12 1 5 2 23 3 75 3 78 0 80 0 86 14 4 8 6 25 3 28 -1 1 -2 6 -2 12 0 8
1 11 6 16 9 9 24 9 34 0z m583 4 c2 -3 4 -7 4 -8 0 -4 3 -17 8 -36 2 -7 4 -15
4 -18 0 -10 -16 -16 -24 -8 -3 3 -4 7 -4 18 0 15 -1 33 -3 42 -1 5 5 14 9 14
1 0 4 -2 6 -4z m101 -5 c3 -5 3 -5 0 -10 -2 -3 -5 -5 -7 -5 -2 0 -5 2 -7 5 -3
5 -3 5 0 10 2 3 5 5 7 5 2 0 5 -2 7 -5z m-1023 -2 c14 -6 21 -32 12 -44 -2 -2
-4 -5 -4 -6 0 -1 -3 -5 -6 -9 -4 -4 -8 -9 -11 -12 -8 -9 -15 -13 -28 -12 -17
0 -22 5 -20 21 1 15 10 41 17 51 9 12 25 17 40 11z m612 -1 c5 -5 5 -15 0 -20
-9 -9 -24 -2 -24 10 0 8 6 14 14 14 3 0 8 -2 10 -4z m449 -62 c10 -6 11 -16 7
-53 -3 -27 -2 -53 3 -69 2 -6 4 -16 4 -22 1 -11 1 -12 -5 -18 -8 -8 -25 -9
-33 -1 l-6 5 0 32 c0 24 -1 34 -3 38 -5 10 -13 16 -20 17 -5 1 -9 2 -9 4 -1 1
-1 1 1 0 2 -1 2 -1 1 2 0 2 0 3 1 3 1 0 1 1 1 3 0 1 4 11 8 22 4 12 7 22 7 24
0 5 9 13 16 15 8 2 21 1 27 -2z m190 -156 c2 -2 3 -6 3 -14 0 -16 -5 -22 -20
-22 -14 0 -20 6 -20 20 0 12 4 18 15 20 10 2 17 1 22 -4z m-916 -35 c4 -4 4
-1 -2 -45 -2 -9 2 -21 8 -29 4 -5 16 -12 37 -22 7 -3 10 -10 10 -22 0 -12 -3
-19 -10 -22 -43 -20 -47 -26 -46 -67 l1 -23 -6 -6 -6 -6 -145 1 -145 1 -8 5
c-6 2 -9 6 -10 10 -3 7 -2 31 0 34 2 2 5 9 7 17 4 13 4 18 4 66 l-1 52 6 6 6
6 126 0 126 0 7 5 c5 2 9 8 12 14 2 5 6 11 7 14 2 3 2 6 2 7 -1 0 0 2 2 4 5 5
13 5 18 0z m483 -14 c3 -2 8 -7 11 -12 3 -4 8 -9 12 -10 4 -2 7 -4 7 -5 0 -1
2 -2 6 -2 6 -1 87 -1 112 0 29 1 44 -9 44 -31 0 -9 -6 -19 -12 -19 -12 -1 -28
-8 -36 -15 -9 -9 -10 -17 -10 -72 l1 -50 -6 -6 c-6 -6 -7 -6 -21 -5 -9 0 -20
-1 -31 -4 -22 -5 -28 -5 -50 0 -16 4 -22 4 -106 4 -49 -1 -89 0 -89 0 0 1 -3
4 -6 6 -4 3 -7 6 -8 8 0 3 -10 19 -12 20 -6 2 -15 15 -15 20 0 6 11 20 15 20
5 0 11 31 7 35 0 1 -1 3 -1 5 0 6 -10 24 -17 32 -5 4 -14 10 -21 14 -17 7 -20
12 -20 26 0 9 1 11 6 16 8 8 20 8 46 0 l20 -6 57 1 c60 1 63 1 63 3 0 1 3 3 7
5 4 1 9 6 12 10 9 12 15 17 23 17 4 0 9 -2 12 -5z m-401 -9 c10 -9 3 -26 -10
-26 -8 0 -15 7 -15 15 0 13 16 20 25 11z m-442 -58 c8 -8 7 -20 -3 -29 -20
-19 -30 -30 -33 -35 -7 -14 -28 -17 -39 -6 -6 5 -7 7 -7 16 0 12 4 17 22 27 7
4 15 9 18 12 17 16 22 19 30 19 5 0 9 -1 12 -4z m1202 -83 c4 -4 5 -7 5 -15 0
-14 -6 -20 -20 -20 -14 0 -20 6 -20 20 0 14 6 20 20 20 8 0 11 -1 15 -5z
m-1247 -53 c1 0 5 -3 8 -6 5 -5 6 -7 6 -17 0 -14 -1 -16 -17 -29 -14 -11 -23
-20 -23 -22 0 -2 -2 -4 -11 -15 -4 -5 -32 -14 -38 -12 -6 2 -9 13 -8 27 2 17
4 21 15 29 15 10 18 13 30 28 6 7 13 15 16 16 5 2 8 2 22 1z m487 -13 c3 -2 6
-5 7 -7 3 -6 3 -24 1 -30 -6 -11 -9 -26 -10 -44 -2 -26 -5 -29 -39 -39 -6 -2
-15 -6 -20 -9 l-9 -6 1 -15 0 -16 12 -5 c6 -3 13 -6 15 -7 11 -3 18 -24 16
-46 -2 -14 0 -19 8 -19 3 0 7 2 9 4 4 4 6 4 18 3 22 -1 28 -7 28 -26 0 -10 -1
-12 -6 -17 -3 -3 -7 -6 -9 -6 -24 -2 -30 2 -34 23 l-1 5 -18 0 c-20 0 -24 -2
-24 -11 0 -6 -4 -12 -15 -24 -6 -7 -13 -21 -14 -28 0 -3 -3 -8 -6 -12 l-6 -6
-107 1 c-95 0 -108 0 -117 -3 -15 -5 -53 -24 -59 -29 -3 -3 -6 -5 -6 -4 -1 0
-2 -1 -2 -3 0 -4 0 -5 -3 -12 -2 -4 -4 -10 -4 -14 -2 -12 -5 -17 -9 -19 -3 -1
-4 -2 -3 -2 1 0 0 -1 -3 -3 -4 -2 -7 -2 -15 0 -14 3 -15 4 -23 20 -10 19 -13
23 -29 28 -7 3 -15 5 -17 5 -5 0 -14 10 -15 18 -4 30 -10 38 -28 39 -29 1 -50
-24 -47 -60 1 -22 -5 -30 -24 -30 -17 0 -28 13 -29 34 0 9 1 10 8 16 11 8 23
21 22 23 -1 0 0 2 1 3 1 2 3 10 3 19 l1 17 8 8 c24 21 29 26 33 39 2 5 2 9 1
14 -4 13 -10 31 -14 41 -2 6 -4 13 -5 18 -1 6 -3 8 -7 7 -1 0 -2 1 -2 2 0 2
-15 10 -21 11 -2 1 -9 0 -16 -2 -26 -6 -32 -6 -36 0 -5 7 -1 15 15 32 18 18
22 21 45 24 l18 2 5 -5 c5 -4 5 -6 5 -28 1 -13 1 -25 2 -27 1 -5 19 -14 30
-16 20 -3 24 -4 29 -6 7 -4 11 -13 11 -25 -1 -12 -6 -21 -21 -35 -16 -16 -16
-32 0 -49 6 -5 11 -10 12 -10 1 0 3 -2 5 -6 1 -3 8 -9 14 -13 19 -13 26 -20
31 -31 3 -5 6 -9 6 -9 1 1 3 -1 4 -4 3 -5 6 -6 19 -8 8 -1 9 -1 18 7 9 10 13
19 14 40 1 6 2 17 3 24 2 13 2 119 0 126 -1 2 -2 9 -4 17 -3 19 0 25 12 25 17
0 36 8 48 20 14 14 31 22 43 22 12 0 11 0 24 -19 9 -14 12 -17 21 -22 20 -10
45 -6 64 9 24 19 29 19 52 0 8 -7 11 -8 19 -8 16 0 21 5 35 38 1 4 6 8 13 12
20 12 28 28 24 49 -2 10 1 23 7 28 8 7 28 8 37 2z m804 -45 c7 -7 7 -20 0 -26
-6 -5 -19 -5 -25 1 -6 5 -5 18 0 24 6 7 19 7 25 1z m-495 -20 c1 0 5 -3 8 -6
5 -5 6 -7 6 -15 0 -11 5 -29 9 -36 2 -3 7 -7 12 -9 9 -4 12 -4 76 -4 77 0 82
1 96 15 9 8 19 15 24 15 4 0 9 -9 8 -14 -1 -7 -5 -18 -9 -26 -4 -10 -4 -25 2
-42 2 -8 5 -18 5 -21 1 -7 4 -21 7 -30 2 -5 10 -14 24 -26 6 -5 8 -20 6 -30
-3 -10 -7 -15 -18 -21 -4 -2 -9 -5 -11 -7 -2 -2 -9 -6 -15 -9 l-11 -5 -89 -1
-89 -1 -9 -6 c-10 -7 -16 -16 -21 -32 -6 -18 -18 -24 -36 -17 -11 4 -15 8 -21
21 -6 11 -28 35 -28 30 0 -1 -2 2 -5 7 -3 4 -6 8 -7 8 0 0 -1 7 -1 15 0 7 -1
15 -2 17 -2 2 -1 2 1 1 2 -1 3 -1 1 1 -4 4 -4 18 0 22 2 2 1 2 -1 1 -2 -1 -3
-1 -1 1 3 4 4 36 1 46 -3 9 -11 24 -15 26 -7 5 -12 10 -17 17 -6 7 -6 8 -6 33
0 26 2 38 8 45 7 8 24 11 38 5 13 -6 43 -4 39 2 -1 1 1 5 3 9 3 5 6 10 7 12 1
2 5 5 8 7 5 3 9 3 23 2z m-184 -89 c7 -5 13 -15 17 -30 3 -9 3 -10 -1 -14 -4
-4 -6 -4 -18 -3 -8 0 -22 -1 -32 -2 -18 -2 -18 -2 -22 2 -8 9 -3 20 16 35 21
16 28 18 40 12z m522 -33 c11 -3 38 -35 38 -45 0 -11 -11 -11 -36 -3 -33 11
-37 14 -39 30 -1 8 -1 10 3 13 8 7 21 9 34 5z m-468 -81 c6 -6 6 -22 -1 -29
-6 -5 -22 -6 -26 -1 -1 2 -3 3 -5 3 -2 0 -3 6 -2 17 1 15 21 21 34 10z m37
-13 c0 -2 -4 -3 -16 -2 l-16 1 16 1 c9 1 16 1 16 2 0 0 0 -1 0 -2z m501 -12
c5 -6 5 -12 0 -18 -7 -8 -22 -2 -22 9 0 11 15 17 22 9z m-614 -14 c10 -8 2
-26 -11 -26 -8 0 -15 7 -15 15 0 13 15 20 26 11z m558 -108 c5 -5 5 -15 0 -20
-9 -9 -24 -2 -24 10 0 12 14 18 24 10z"/>
<path d="M1729 2145 c-8 -10 -12 -17 -15 -30 -2 -5 -5 -13 -7 -17 -11 -19 -16
-33 -15 -47 1 -25 1 -25 -8 -39 -10 -14 -14 -21 -15 -26 0 -2 -1 -6 -2 -9 -3
-10 7 -25 19 -30 10 -4 17 -4 32 4 37 18 51 31 57 54 4 14 4 103 0 114 -5 16
-14 28 -21 28 -2 0 -6 1 -9 3 -8 3 -10 3 -16 -5z"/>
</g>
</svg>
