<?xml version="1.0" standalone="no"?>
<!DOCTYPE svg PUBLIC "-//W3C//DTD SVG 20010904//EN"
 "http://www.w3.org/TR/2001/REC-SVG-20010904/DTD/svg10.dtd">
<svg version="1.0" xmlns="http://www.w3.org/2000/svg"
 width="1112.000000pt" height="2870.000000pt" viewBox="0 0 1112.000000 2870.000000"
 preserveAspectRatio="xMidYMid meet">
<metadata>
Created by potrace 1.15, written by Peter Selinger 2001-2017
</metadata>
<g transform="translate(0.000000,2870.000000) scale(0.500000,-0.500000)"
fill="#000000" stroke="none">
<path d="M410 3849 c-1 -1 -3 -2 -5 -2 -9 0 -21 -10 -31 -23 -9 -13 -15 -17
-25 -19 -8 -2 -26 -12 -30 -18 -9 -12 -9 -10 -9 -226 0 -114 -1 -207 -2 -207
-1 0 -2 -3 -3 -6 -1 -6 -7 -14 -7 -10 0 2 -17 6 -28 6 -5 0 -18 2 -29 5 -18 5
-23 5 -59 5 -21 0 -45 -1 -52 -2 -7 -1 -21 -2 -30 -2 -31 1 -35 1 -42 -3 -8
-5 -12 -11 -14 -23 -2 -14 14 -66 23 -72 1 -1 8 -2 16 -2 16 0 16 0 24 11 15
22 39 33 57 29 10 -2 18 -10 18 -16 0 -7 12 -30 19 -35 10 -7 18 -9 42 -9 23
0 23 0 29 -6 5 -5 5 -5 3 -18 -2 -7 -7 -34 -11 -60 -4 -26 -8 -49 -9 -52 0 -3
-4 -19 -7 -36 -4 -17 -9 -43 -12 -57 -3 -14 -6 -27 -7 -30 0 -2 -2 -10 -4 -17
-2 -7 -4 -16 -5 -20 -1 -4 -4 -16 -7 -27 -3 -11 -6 -28 -7 -39 -2 -14 -3 -19
-6 -22 -2 -2 -4 -5 -4 -6 0 -1 -1 -2 -2 -1 -1 1 -2 -1 -2 -4 0 -3 -2 -10 -4
-17 -2 -6 -7 -21 -11 -34 -6 -21 -22 -66 -26 -78 -10 -24 -13 -37 -15 -63 -2
-31 -3 -34 -22 -52 -14 -13 -15 -16 -36 -57 -23 -46 -37 -72 -50 -95 -9 -16
-11 -30 -4 -44 8 -18 33 -26 50 -16 10 5 50 43 55 51 4 7 7 21 8 38 1 22 6 27
26 29 15 2 28 5 37 9 9 4 25 22 28 29 4 9 3 27 -1 36 -4 9 -5 28 -1 35 4 8 11
10 25 10 25 -1 35 0 40 3 2 2 5 2 6 2 0 -1 1 1 1 4 1 5 1 5 1 1 1 -2 3 -7 6
-11 l5 -7 0 -328 c0 -203 1 -330 2 -334 3 -11 17 -28 23 -28 1 0 6 -3 10 -6 4
-3 9 -6 10 -6 2 0 3 -1 3 -1 2 -3 14 -11 22 -14 11 -4 23 -4 45 0 34 6 52 12
59 22 4 5 8 29 6 35 -2 5 -1 7 1 11 6 8 9 7 22 -7 12 -13 32 -16 45 -7 22 17
34 32 40 51 4 13 4 14 4 269 l-1 256 -5 9 c-2 6 -8 15 -12 21 -11 16 -11 28 0
44 4 6 10 15 12 21 l5 9 0 120 c1 67 0 121 -1 123 -4 7 -7 15 -6 17 0 1 -1 1
-2 0 -1 -1 -8 -1 -15 -2 -13 0 -13 0 -13 5 0 5 0 5 13 5 7 -1 14 -1 15 -2 1
-1 2 -1 2 0 -1 2 2 9 6 17 1 2 2 9 2 16 0 7 1 16 2 20 3 8 -1 67 -5 80 -2 4
-7 15 -11 23 -10 18 -11 30 -3 38 7 7 21 7 35 -1 6 -4 17 -9 25 -12 21 -10 24
-13 22 -26 -1 -15 -16 -47 -25 -54 -16 -12 -20 -17 -24 -25 -5 -11 -5 -17 1
-44 3 -12 6 -26 6 -32 3 -23 9 -34 19 -36 11 -3 28 -3 28 -1 0 1 3 2 6 2 12 0
18 -13 10 -22 -4 -4 -16 -6 -16 -2 0 2 -2 2 -4 1 -3 -1 -7 -2 -10 -2 -18 -3
-25 -13 -25 -35 0 -24 10 -41 33 -58 6 -3 11 -6 12 -6 1 0 2 -1 2 -2 1 0 7 -4
14 -7 20 -9 34 -6 51 11 2 1 4 2 5 2 1 0 3 1 4 3 3 4 10 4 24 -1 16 -6 32 -6
39 -1 3 2 12 10 20 17 47 45 62 111 42 175 -6 17 -5 27 3 35 2 1 6 6 10 9 4 4
10 12 13 18 3 7 8 16 11 20 8 12 7 37 -1 48 -8 11 -9 26 -4 32 9 10 31 7 53
-7 14 -8 16 -9 28 -9 l14 0 12 13 c17 17 38 42 42 46 1 2 4 6 7 9 7 8 36 45
46 60 6 8 12 16 13 18 2 2 4 4 4 5 0 1 1 3 3 4 1 2 3 7 4 11 2 7 3 7 3 2 0 -3
2 -8 4 -11 4 -5 4 -6 3 -63 -1 -32 -1 -67 -2 -78 0 -11 -1 -33 -2 -48 -1 -15
-2 -34 -2 -41 -1 -7 -1 -21 -2 -30 -2 -30 -3 -40 -6 -76 -2 -19 -4 -37 -4 -40
0 -3 -1 -10 -2 -17 -1 -13 -9 -70 -10 -80 -4 -25 -12 -67 -18 -95 -8 -38 -9
-51 -1 -59 6 -6 15 -8 26 -5 26 7 41 1 46 -17 5 -19 -1 -32 -20 -39 -22 -8
-23 -7 -29 6 -7 15 -9 16 -27 16 -14 0 -16 0 -20 -5 -2 -3 -4 -6 -4 -7 0 -2
-15 -50 -19 -60 -28 -72 -66 -153 -79 -172 -2 -3 -4 -6 -4 -7 0 -1 -19 -32
-31 -50 -4 -6 -7 -11 -7 -12 0 -2 -20 -31 -22 -33 -1 -1 -19 -23 -26 -32 -3
-4 -10 -13 -16 -21 l-12 -14 0 -14 c0 -12 2 -16 6 -26 8 -16 8 -33 -1 -40 -7
-7 -24 -7 -37 -1 -23 11 -35 7 -63 -20 -12 -12 -27 -26 -33 -31 -10 -10 -18
-18 -18 -21 0 -1 -1 -2 -1 -4 -1 -2 -3 -9 -5 -17 -3 -14 -6 -22 -11 -27 -8 -9
-11 -13 -12 -22 -2 -16 3 -23 21 -29 22 -8 43 4 61 35 12 20 19 24 39 20 29
-6 37 -3 82 23 58 34 63 38 79 68 6 11 14 17 26 18 12 2 24 5 30 7 3 2 7 3 8
2 0 0 1 1 1 2 0 1 1 2 3 2 1 0 9 6 16 13 8 8 19 17 26 22 20 13 98 93 129 132
14 17 16 20 29 38 4 5 8 11 9 12 7 9 6 37 -2 43 -1 1 -4 5 -7 9 -8 12 -7 27 1
35 6 7 6 7 22 5 12 -1 20 0 30 2 l13 3 1 11 c0 16 -3 22 -21 30 -17 8 -19 11
-19 24 0 13 6 19 19 19 7 0 12 -1 16 -4 9 -6 33 -6 41 1 14 12 49 122 71 222
4 15 12 10 14 -8 1 -10 3 -26 4 -34 0 -3 2 -14 3 -24 1 -10 3 -21 3 -24 4 -29
7 -51 8 -55 0 -3 3 -19 6 -37 13 -82 34 -171 54 -239 27 -87 51 -142 59 -137
1 1 2 0 2 0 0 -3 29 -8 32 -6 1 0 3 -1 6 -4 l4 -5 -5 -8 c-3 -5 -8 -11 -10
-14 -2 -3 -4 -11 -4 -17 -1 -10 -1 -12 4 -19 3 -4 5 -8 5 -9 0 -1 2 -4 4 -7 2
-3 11 -17 21 -31 9 -14 19 -28 21 -31 3 -3 8 -9 11 -13 3 -4 15 -18 27 -29
l21 -22 9 0 c23 0 29 8 36 44 12 61 32 110 60 147 3 4 8 11 9 15 7 13 14 20
27 27 6 3 14 8 18 11 17 13 47 28 68 35 6 2 11 4 12 5 1 1 5 3 9 5 25 13 34
37 22 58 -5 8 -20 20 -33 25 -3 1 -8 5 -11 9 -14 17 -27 30 -34 34 -7 4 -25
13 -63 35 -8 4 -23 10 -34 14 -21 7 -23 8 -34 25 -10 15 -51 54 -62 60 -4 2
-9 4 -11 6 -3 1 -8 8 -11 15 -4 7 -9 14 -11 17 -51 55 -106 150 -136 235 -3 8
-6 17 -7 20 -2 5 -18 54 -19 60 -3 15 -7 27 -11 34 -3 5 -5 11 -5 22 -1 8 -3
21 -4 28 -4 15 -15 80 -16 92 -4 40 -9 46 -32 46 -10 0 -14 -1 -19 -4 -4 -3
-8 -5 -14 -4 -12 0 -33 -5 -48 -12 -23 -12 -38 -7 -38 13 0 13 4 17 20 20 12
3 36 12 36 15 0 0 4 4 9 7 10 6 25 8 33 3 3 -2 6 -3 8 -3 2 0 7 1 11 1 15 0
25 14 25 32 0 8 11 25 14 23 2 -1 23 10 31 17 19 15 36 48 34 64 -2 22 -15 30
-59 39 -18 4 -36 7 -40 8 -4 0 -14 2 -22 4 -18 4 -28 6 -79 17 -85 18 -110 23
-120 24 -5 1 -8 2 -5 2 3 0 4 1 3 4 -1 3 -1 4 1 3 1 -1 2 0 2 1 0 1 16 2 43 2
54 0 58 1 80 22 11 12 14 13 27 12 5 0 13 -5 18 -10 6 -6 26 -13 43 -15 6 -1
17 -3 26 -5 14 -3 24 -4 73 -4 l57 0 7 -6 c3 -3 5 -6 4 -6 -1 0 -2 -5 -3 -10
-1 -6 -5 -31 -10 -56 -5 -25 -9 -47 -10 -50 0 -3 -4 -22 -9 -42 -5 -20 -9 -41
-10 -46 -1 -6 -2 -11 -3 -11 0 -1 -1 -5 -2 -9 0 -4 -2 -10 -3 -14 -13 -50 -22
-88 -22 -92 -1 -10 2 -22 9 -29 11 -13 32 -12 49 3 3 2 13 10 22 17 10 8 24
20 31 26 7 7 18 16 23 20 12 11 36 35 35 37 -4 4 16 26 24 26 2 0 3 1 3 2 0 0
3 2 6 4 12 5 43 37 54 56 6 9 10 17 10 18 0 3 11 12 26 22 17 11 24 19 56 56
16 19 27 26 49 31 24 5 57 24 66 37 9 14 5 34 -11 48 -8 7 -28 26 -85 81 -6 6
-23 22 -39 37 -16 15 -34 33 -42 40 -7 7 -21 20 -30 28 -19 19 -28 24 -41 24
-13 0 -15 -1 -45 -30 -22 -22 -26 -28 -35 -44 -10 -19 -18 -27 -32 -32 -4 -2
-7 -3 -7 -4 0 -1 -3 -4 -6 -8 -3 -4 -6 -8 -6 -8 0 -1 -1 -2 -1 -2 -1 1 -5 -1
-9 -2 -7 -3 -28 -8 -35 -8 -2 0 -12 4 -23 10 l-19 9 -59 1 -60 0 -20 -6 c-26
-7 -30 -7 -55 0 -14 4 -24 6 -34 6 -10 0 -16 1 -19 3 -7 5 -11 9 -9 9 1 0 4 5
7 11 2 5 8 18 12 27 18 40 52 128 54 139 1 7 13 16 27 21 26 9 41 22 57 50 9
16 10 18 9 27 -2 13 -6 20 -16 27 -8 5 -16 7 -63 19 -12 3 -23 6 -25 7 -6 2
-24 -3 -32 -9 -4 -3 -9 -9 -11 -13 -6 -10 -13 -14 -23 -14 -12 0 -18 5 -21 20
-1 6 -3 12 -4 13 0 1 -1 3 -1 5 -1 1 -3 6 -6 10 -8 13 -39 26 -59 24 -6 0 -30
-8 -33 -10 -5 -5 -24 -1 -46 11 -6 4 -12 7 -13 7 -1 0 -3 1 -4 3 -1 1 -3 2 -5
2 -1 -1 -6 -1 -11 -2 -23 -1 -24 -5 -33 -82 -4 -35 -7 -66 -8 -69 0 -3 -3 -17
-5 -32 -2 -15 -5 -35 -7 -44 -3 -20 -1 -29 8 -39 3 -4 7 -7 8 -7 1 0 6 -2 10
-4 4 -2 10 -4 13 -4 3 0 8 -2 11 -5 6 -4 6 -6 6 -20 0 -14 0 -16 -6 -20 -5 -5
-7 -5 -26 -5 -32 1 -46 -8 -50 -33 -1 -4 -6 -29 -12 -54 -13 -54 -11 -46 -19
-74 -6 -20 -8 -48 -6 -60 2 -10 -1 -19 -9 -31 -9 -11 -9 -12 -9 -25 0 -19 8
-27 29 -30 19 -2 22 -3 26 -7 3 -4 3 -4 0 -8 -5 -5 -10 -6 -35 -7 -10 -1 -20
-2 -22 -3 -2 -1 -4 -2 -4 -1 0 0 -4 -1 -8 -2 -13 -5 -21 -14 -28 -32 -3 -9 -8
-19 -10 -23 -5 -11 -4 -40 1 -46 10 -11 13 -30 7 -44 -5 -14 -25 -19 -43 -11
-12 6 -31 5 -46 -2 -20 -9 -39 -7 -45 5 -4 8 -3 26 1 33 6 9 5 32 -1 41 -7 10
-78 47 -116 59 -12 4 -13 5 -19 13 -4 7 -5 54 -1 63 4 10 7 35 6 55 0 11 0 13
6 18 10 10 30 8 41 -4 8 -9 19 -18 29 -24 6 -4 17 -12 24 -18 28 -26 48 -25
74 3 19 21 31 21 51 0 14 -15 18 -17 30 -17 10 0 17 5 22 18 3 7 4 9 7 23 1 4
4 12 7 17 5 7 6 12 7 23 l0 14 -19 19 c-11 10 -36 32 -55 49 -19 16 -40 34
-45 39 -6 5 -18 16 -28 25 -9 8 -18 18 -20 21 -2 3 -6 7 -9 8 -5 4 -25 5 -32
3 -2 -1 -11 -12 -19 -25 -26 -38 -44 -66 -56 -85 -12 -19 -14 -21 -25 -30 -9
-6 -33 -15 -42 -15 -13 0 -14 0 -20 6 -5 5 -6 7 -6 18 0 11 1 13 6 18 3 3 7 6
8 6 34 2 45 6 52 21 4 8 4 12 4 94 0 81 -1 101 -6 101 -1 0 -3 2 -6 4 -3 2 -6
4 -7 4 -1 0 -6 1 -11 2 -6 1 -10 1 -10 0 0 -1 -5 -2 -11 -2 -15 0 -21 5 -21
20 0 15 6 20 21 20 6 0 11 -1 11 -2 0 -1 4 -1 10 0 5 1 10 2 11 2 1 0 4 2 7 4
3 2 5 4 6 4 2 0 4 8 6 23 1 13 8 25 14 27 20 4 48 39 56 70 3 14 -1 29 -11 38
-11 9 -15 11 -43 13 -7 0 -22 2 -34 3 -12 1 -26 2 -32 3 -13 1 -93 9 -106 10
-28 3 -35 3 -36 2z m789 -191 c7 -6 7 -19 1 -25 -6 -7 -19 -7 -25 -1 -7 6 -7
19 -1 25 6 7 19 7 25 1z m-713 -206 c5 -5 5 -11 0 -16 -10 -10 -27 5 -16 16 4
4 12 4 16 0z m1142 -43 c5 -5 5 -7 1 -13 -4 -6 -12 -5 -16 1 -4 5 -4 6 0 12 4
8 9 8 15 0z m-452 -8 c4 -4 4 -5 2 -12 -3 -8 -11 -17 -20 -22 -26 -15 -34 -21
-36 -29 -3 -11 -15 -22 -23 -20 -26 4 -33 10 -33 27 0 14 3 18 23 27 23 12 27
14 27 16 0 2 16 12 26 15 12 5 29 4 34 -2z m505 -52 c3 -3 3 -3 0 -6 -4 -5
-11 1 -7 6 4 4 4 4 7 0z m-1248 -17 c16 -7 16 -43 -1 -50 -15 -6 -34 -2 -39 9
-4 8 -4 24 0 32 5 12 23 15 40 9z m-108 -8 c2 -8 2 -11 0 -14 -4 -4 -8 2 -8
10 1 8 0 8 4 8 1 0 3 -2 4 -4z m814 -21 c2 0 6 -3 9 -6 5 -5 5 -5 2 -16 -1 -5
-4 -14 -6 -18 -2 -4 -4 -9 -4 -11 0 -2 -1 1 -2 5 -1 4 -3 11 -5 14 -1 3 -5 10
-7 16 l-4 9 6 6 c3 3 5 5 6 4 1 -1 3 -2 5 -3z m104 -89 c11 -10 3 -28 -11 -28
-9 0 -16 6 -16 16 0 14 17 22 27 12z m-778 -3 c12 -12 3 -31 -13 -31 -11 0
-18 7 -18 18 0 11 7 18 18 18 6 0 9 -1 13 -5z m1206 -30 c5 -8 1 -16 -8 -16
-9 0 -13 8 -8 16 2 3 5 5 8 5 3 0 6 -2 8 -5z m-1239 -61 c5 -5 5 -15 0 -20 -9
-9 -24 -2 -24 10 0 8 6 14 14 14 3 0 8 -2 10 -4z m1218 0 c11 -3 19 -9 21 -17
0 -4 -7 -19 -10 -19 -1 0 -5 -3 -9 -6 -33 -26 -70 -10 -59 27 3 9 4 11 11 15
10 4 25 4 46 0z m-394 -46 c11 -6 14 -33 6 -43 -9 -10 -33 -11 -42 -1 -9 8 -9
32 0 41 7 6 26 8 36 3z m101 -104 c7 -6 7 -19 1 -25 -6 -7 -19 -7 -25 -1 -7 6
-7 19 -1 25 6 7 19 7 25 1z m-798 -74 c4 -4 4 -12 0 -16 -5 -7 -19 -1 -19 8 0
9 14 15 19 8z m-186 -29 c12 -7 14 -33 3 -43 -8 -9 -32 -9 -40 0 -9 8 -9 32 0
41 7 7 27 8 37 2z m1071 -12 c4 -4 4 -5 1 -6 -1 -1 -3 -3 -4 -5 -1 -5 -5 -4
-9 2 -2 5 -2 6 1 10 5 5 5 5 11 -1z m-1179 -5 c4 -3 5 -7 5 -13 0 -11 -6 -17
-17 -17 -11 0 -15 5 -18 19 -2 12 20 20 30 11z m999 -42 c10 -5 22 -33 23 -53
1 -14 1 -15 -3 -20 -6 -5 -26 -10 -46 -9 -22 0 -23 4 -16 54 3 18 5 23 10 27
6 3 26 4 32 1z m-867 -79 c6 -2 11 -10 10 -15 -3 -10 -28 -12 -38 -2 -5 5 -5
6 -2 10 6 7 19 10 30 7z m-136 -36 c17 -4 23 -9 23 -19 0 -8 -6 -14 -14 -14
-10 0 -40 12 -46 19 -7 7 -7 8 -2 14 3 5 4 5 14 4 6 0 18 -2 25 -4z m1016 -14
c3 -3 3 -3 0 -6 -4 -5 -11 1 -7 6 4 4 4 4 7 0z m4 -127 c10 -9 3 -26 -10 -26
-8 0 -15 7 -15 15 0 13 16 20 25 11z m-157 -49 c0 -1 2 -6 5 -12 7 -14 8 -24
4 -28 -5 -5 -13 0 -19 14 -8 17 -9 25 -5 33 l3 6 6 -6 c3 -3 6 -6 6 -7z m-705
-38 c16 -8 16 -40 0 -48 -9 -5 -25 -5 -34 1 -14 9 -20 34 -10 45 8 9 30 10 44
2z m1234 -6 c4 -6 4 -14 -1 -19 -11 -12 -29 4 -18 18 4 5 15 6 19 1z m-93 -27
c5 -5 5 -11 0 -16 -10 -10 -27 5 -16 16 4 4 12 4 16 0z m63 -111 c4 -4 5 -7 5
-15 0 -14 -6 -20 -20 -20 -14 0 -20 6 -20 20 0 14 6 20 20 20 8 0 11 -1 15 -5z
m-552 -102 c4 -4 5 -7 5 -14 0 -11 -1 -14 -15 -28 -12 -13 -13 -13 -21 -30 -7
-13 -9 -16 -18 -17 -19 -2 -26 4 -26 21 l0 11 15 15 c9 10 16 19 21 28 8 16
12 19 25 19 7 0 10 -1 14 -5z m724 -22 c6 -6 7 -21 2 -27 -6 -6 -22 -5 -28 1
-12 12 -3 31 13 31 6 0 9 -1 13 -5z m-1275 -73 c5 -5 5 -15 0 -20 -9 -9 -24
-2 -24 10 0 8 6 14 14 14 3 0 8 -2 10 -4z m1154 -16 c5 -5 5 -15 0 -20 -9 -9
-24 -2 -24 10 0 8 6 14 14 14 3 0 8 -2 10 -4z"/>
</g>
</svg>
