<?xml version="1.0" standalone="no"?>
<!DOCTYPE svg PUBLIC "-//W3C//DTD SVG 20010904//EN"
 "http://www.w3.org/TR/2001/REC-SVG-20010904/DTD/svg10.dtd">
<svg version="1.0" xmlns="http://www.w3.org/2000/svg"
 width="1102.000000pt" height="2870.000000pt" viewBox="0 0 1102.000000 2870.000000"
 preserveAspectRatio="xMidYMid meet">
<metadata>
Created by potrace 1.15, written by Peter Selinger 2001-2017
</metadata>
<g transform="translate(0.000000,2870.000000) scale(0.500000,-0.500000)"
fill="#000000" stroke="none">
<path d="M1142 3848 c-11 -3 -23 -15 -26 -26 -2 -7 -2 -32 -1 -100 0 -113 1
-124 8 -147 5 -18 5 -19 2 -30 -2 -6 -3 -12 -3 -15 0 -8 -16 -21 -22 -18 -3 1
-68 4 -98 4 -18 1 -26 -9 -29 -35 -2 -20 -9 -28 -28 -28 -19 0 -28 9 -28 28 0
10 5 23 9 23 6 0 8 32 2 39 -3 4 -11 8 -23 12 -11 4 -58 20 -64 23 -2 1 -12 5
-22 8 -27 9 -29 10 -41 15 -8 4 -54 38 -58 43 -1 1 -5 4 -9 7 -8 6 -12 9 -19
15 -2 2 -7 5 -10 8 -4 3 -22 17 -40 32 -18 14 -36 28 -39 31 -3 2 -7 5 -8 6
-18 18 -46 18 -61 -1 -6 -8 -9 -24 -6 -33 3 -14 26 -29 49 -35 6 -2 10 -4 13
-8 4 -6 4 -6 1 -15 -3 -8 -7 -11 -21 -15 -6 -1 -11 0 -28 5 -12 4 -28 8 -37
10 -9 2 -20 4 -25 5 -11 3 -34 2 -37 0 -2 -1 -24 -2 -50 -1 -46 0 -49 1 -62 5
-13 5 -70 29 -90 38 -4 2 -17 7 -29 12 -22 9 -26 10 -42 18 -6 2 -10 4 -11 4
0 0 -7 3 -14 6 -7 3 -14 6 -15 6 -1 0 -2 1 -2 2 0 1 -3 1 -7 0 -4 -1 -8 -2 -9
-2 -3 1 -11 -4 -15 -8 -9 -10 -9 -14 -9 -124 l0 -106 5 -17 c6 -21 6 -28 0
-50 l-5 -18 1 -88 c2 -160 2 -156 6 -173 5 -15 8 -47 8 -74 0 -10 -2 -16 -7
-29 -6 -14 -7 -19 -8 -38 -1 -25 2 -37 13 -54 18 -26 18 -34 0 -60 -3 -6 -8
-16 -10 -21 -3 -11 -3 -6 -2 -415 0 -5 0 -50 0 -99 l-1 -90 4 -7 c3 -4 7 -8 9
-9 6 -3 27 -8 27 -6 0 1 6 2 13 2 11 0 14 -1 22 -7 17 -13 36 -20 65 -24 36
-5 41 -8 44 -20 4 -18 -3 -33 -16 -33 -12 -1 -55 12 -73 21 -13 6 -35 5 -41
-2 -2 -2 -7 -6 -13 -8 -26 -13 -33 -20 -38 -36 -3 -8 -3 -9 1 -19 2 -6 5 -13
7 -15 13 -18 14 -22 16 -35 2 -24 11 -41 28 -49 3 -2 11 -7 16 -11 6 -5 11 -8
12 -8 2 0 3 -1 4 -3 1 -3 12 -3 15 0 1 1 2 10 2 20 1 17 0 18 -4 20 -14 6 -18
13 -10 21 4 4 6 4 31 3 l27 0 12 -13 c16 -18 31 -21 48 -10 30 21 49 44 55 69
5 18 4 65 -2 88 -12 46 -7 53 39 53 22 0 27 1 44 6 37 11 48 8 62 -21 10 -20
11 -33 5 -47 -1 -2 -6 -7 -12 -11 -25 -16 -34 -33 -26 -47 2 -3 5 -6 6 -6 2 0
3 -1 3 -2 0 -1 3 -3 7 -4 6 -2 10 -2 32 -2 5 0 10 -2 21 -9 17 -11 23 -13 37
-12 13 1 47 12 74 24 29 12 30 7 10 -53 -13 -41 -18 -54 -38 -104 -10 -25 -11
-29 -10 -38 2 -21 12 -31 30 -30 16 0 22 4 49 30 l25 24 -1 11 c0 15 -4 21
-15 26 -11 6 -15 13 -10 19 4 4 9 4 31 -1 15 -4 19 -4 27 0 3 1 9 4 13 5 7 3
16 11 26 24 10 13 16 11 24 -9 6 -15 17 -26 30 -31 10 -4 15 -4 228 -4 240 0
228 -1 235 12 4 7 7 28 5 29 -1 1 -2 9 -2 18 0 28 -5 40 -25 50 -12 6 -13 8
-12 22 1 22 13 41 25 41 13 0 33 -16 35 -28 1 -3 2 -6 3 -5 1 0 8 1 16 1 22 1
21 -8 21 131 l0 116 6 6 c6 5 7 6 14 5 4 -1 11 -4 14 -7 5 -4 6 -5 6 -19 0 -9
-2 -19 -4 -26 -4 -10 -4 -17 -4 -61 0 -63 0 -62 21 -62 13 0 15 0 16 -4 1 -3
2 -3 2 2 0 9 11 30 18 35 10 7 24 6 32 -2 6 -5 7 -7 6 -16 0 -20 -12 -51 -22
-56 -12 -6 -34 -1 -34 9 0 3 -1 3 -1 1 -1 -3 -4 -4 -14 -4 -7 0 -14 -1 -16 -3
-6 -4 -9 -18 -9 -36 1 -8 0 -15 0 -15 -1 0 -4 -4 -6 -8 -3 -4 -7 -9 -8 -9 -2
-1 -4 -3 -4 -4 0 -2 -1 -3 -2 -2 -1 1 -2 0 -2 -1 0 -2 -1 -1 -2 2 -2 7 -1 -27
2 -35 4 -17 -8 -36 -23 -37 -2 0 -3 -1 -1 -1 1 -1 2 -7 2 -18 l0 -17 8 -2 c5
-2 50 -2 153 -1 178 1 146 1 304 0 154 -1 149 -2 170 18 29 27 32 54 9 83 -9
12 -34 40 -49 55 -31 32 -41 43 -51 56 -13 16 -15 17 -30 17 -13 0 -22 -5 -22
-13 0 -3 -1 -3 -1 -1 -1 2 -3 5 -6 8 -4 4 -4 6 -5 75 l0 70 5 6 c3 3 5 6 5 7
0 1 2 1 5 1 13 1 47 23 68 43 l11 12 0 14 c0 16 -4 22 -22 34 -6 3 -11 7 -12
8 -3 4 -21 12 -31 14 -27 6 -46 -11 -50 -46 -2 -18 -10 -25 -28 -25 -19 0 -28
9 -28 28 0 15 5 22 18 27 l11 5 0 19 -1 19 -11 3 c-17 5 -21 12 -20 31 0 2 6
11 14 20 21 24 20 14 19 157 0 144 2 130 -24 157 -8 8 -13 15 -13 17 -1 20 2
27 17 31 21 6 27 2 37 -24 8 -22 12 -25 31 -25 14 0 15 0 21 7 10 10 11 29 2
41 -5 6 -20 18 -33 23 -13 6 -16 10 -13 17 1 3 1 6 1 6 -3 0 8 10 16 15 17 10
33 33 42 57 12 37 7 74 -15 105 -6 9 -33 29 -39 29 -4 0 -10 11 -13 20 -2 10
-5 48 -4 61 0 14 5 18 45 38 43 21 48 23 74 29 28 6 46 15 63 32 8 9 11 17 9
29 0 5 -1 9 -1 10 0 1 -17 18 -62 61 -18 18 -42 40 -53 51 -27 25 -36 28 -61
16 -19 -8 -21 -8 -48 1 -29 10 -36 10 -55 1 -13 -6 -30 -22 -34 -32 -4 -10 -4
-24 1 -33 4 -6 20 -20 35 -29 3 -2 9 -7 13 -10 13 -11 32 -13 49 -6 3 1 9 2
20 1 2 0 6 -3 9 -6 5 -5 6 -7 6 -18 0 -11 -1 -13 -6 -18 -6 -6 -7 -6 -18 -6
-3 0 -7 0 -9 0 -2 0 -9 5 -16 12 -11 11 -13 12 -23 13 -7 1 -12 0 -15 -1 -13
-8 -18 -11 -29 -13 -16 -5 -27 -10 -33 -17 -3 -4 -6 -7 -6 -8 0 -5 -8 -21 -12
-24 -6 -4 -8 -4 -18 3 -4 3 -14 8 -22 12 -18 9 -24 15 -26 25 -1 4 -1 7 2 10
2 2 7 10 10 17 5 8 8 13 13 15 9 5 10 7 9 22 0 8 1 13 2 13 2 -2 1 1 -3 6 -3
3 -5 4 -6 4 -3 -2 -17 5 -22 12 -3 3 -10 9 -16 12 l-11 6 -72 0 -73 0 -3 5
c-3 5 -6 6 -11 6 -5 0 -6 1 -2 1 4 1 4 2 2 3 -2 1 -2 2 2 2 3 0 6 2 9 6 l3 5
96 -1 c83 0 96 0 103 3 15 6 21 18 22 42 1 19 3 22 22 31 20 10 26 15 32 24 2
4 5 8 6 10 5 4 4 23 -1 28 -5 5 -24 5 -32 1 -12 -7 -26 -1 -26 11 0 10 6 14
19 14 10 -1 11 0 16 5 3 3 5 6 4 7 -1 1 -1 2 0 2 1 0 2 4 2 9 0 9 -6 20 -11
22 -6 3 -18 13 -32 26 -12 11 -13 12 -24 13 -14 1 -23 -2 -28 -11 -3 -3 -5 -6
-6 -7 -1 -1 -9 -12 -19 -25 -10 -13 -18 -24 -19 -25 -3 -3 -32 -42 -32 -44 0
-1 -2 -2 -3 -3 -2 -1 -6 -2 -9 -4 -3 -2 -11 -4 -18 -5 -7 -1 -22 -5 -33 -9
-20 -7 -21 -7 -35 -5 -18 3 -30 1 -37 -6 -14 -14 -44 -52 -46 -60 -1 -2 -3 -4
-4 -4 -2 0 -4 -1 -4 -3 -2 -5 -15 -4 -21 2 -5 6 -5 11 1 32 3 10 6 23 6 29 2
15 1 15 16 22 11 6 13 7 14 13 2 12 0 29 -4 31 -19 11 -21 28 -5 43 11 11 31
29 36 32 5 3 25 2 31 -2 8 -5 10 -10 10 -34 0 -18 0 -21 4 -22 1 -1 3 -2 3 -3
0 -1 1 -1 3 1 2 2 4 2 6 1 1 -1 7 0 12 1 10 1 12 2 21 13 5 6 12 16 15 22 6
12 13 31 12 32 0 1 -1 4 -2 8 -2 12 -13 26 -21 26 -2 0 -4 1 -5 2 -2 2 -272
24 -285 24 -3 0 -8 -1 -12 -2z m49 -76 c3 -4 4 -8 4 -23 0 -33 7 -41 41 -47
22 -5 27 -8 29 -21 1 -8 1 -10 -3 -13 -3 -1 -5 -3 -6 -3 -1 0 -4 -1 -8 -3 -16
-5 -49 -10 -57 -8 -8 2 -17 10 -17 15 0 2 -4 16 -9 31 -8 23 -9 28 -8 38 3 27
9 38 23 38 5 0 9 -1 11 -4z m-980 -116 c11 -10 3 -28 -11 -28 -9 0 -16 6 -16
16 0 14 17 22 27 12z m346 -97 c12 -12 3 -31 -13 -31 -11 0 -18 7 -18 18 0 11
7 18 18 18 6 0 9 -1 13 -5z m793 -28 c5 -5 5 -17 0 -33 -2 -6 -4 -15 -5 -20
-2 -20 -7 -23 -30 -22 -7 0 -13 9 -13 19 0 19 16 58 26 61 5 2 17 -1 22 -5z
m-892 -10 c2 -1 4 -2 4 -3 0 -1 2 -5 5 -9 3 -4 5 -7 5 -6 0 1 4 -2 9 -8 11
-12 11 -16 0 -28 -5 -6 -9 -9 -9 -8 0 3 -11 -14 -13 -22 -5 -14 -3 -168 2
-176 5 -10 13 -17 29 -24 18 -9 23 -14 24 -24 0 -11 -5 -26 -11 -31 -3 -3 -5
-5 -4 -6 2 -2 -7 -6 -10 -4 -1 1 -3 2 -3 1 -2 -2 -22 -3 -22 -1 0 1 -1 2 -1 2
-5 -2 -11 3 -11 8 -1 11 0 18 2 20 1 1 -1 6 -5 13 -9 17 -20 23 -48 25 -12 1
-24 2 -29 2 -6 -1 -8 0 -13 5 l-6 6 1 63 c0 39 -1 66 -2 70 -2 6 -14 22 -15
20 0 0 -5 1 -10 3 -9 2 -12 2 -19 0 -4 -2 -16 -3 -25 -4 -28 -1 -44 -7 -61
-21 -3 -3 -7 -6 -8 -6 0 0 -4 -3 -8 -6 -4 -4 -12 -11 -18 -16 -10 -10 -11 -10
-23 -10 -11 0 -14 1 -18 5 -6 4 -6 6 -6 20 0 15 0 15 7 21 4 3 8 6 9 6 1 0 12
6 23 14 14 9 23 14 27 14 3 0 7 1 9 2 3 1 7 3 9 3 8 2 19 8 27 15 6 5 7 7 8
20 0 13 0 17 -5 26 -6 14 -7 24 0 30 4 4 6 4 47 4 24 0 45 0 48 1 3 1 25 2 50
3 44 1 45 1 50 -3 2 -3 6 -5 8 -6z m274 -17 c0 0 3 -3 5 -6 3 -6 3 -24 3 -375
0 -202 -1 -369 -1 -369 -3 -5 -2 -69 0 -75 3 -8 11 -17 15 -18 2 0 4 -1 6 -2
10 -3 15 -4 19 -3 6 2 18 -1 22 -6 5 -7 4 -25 -2 -31 -8 -7 -11 -9 -16 -10 -3
-1 -4 -2 -4 -4 1 -1 0 0 -3 3 -4 4 -4 4 -5 0 -3 -10 0 -28 5 -33 10 -12 13
-17 14 -32 1 -17 -3 -22 -19 -24 -29 -2 -42 -12 -46 -34 -3 -14 -15 -39 -15
-29 0 4 -11 13 -28 21 -18 9 -25 15 -41 35 -5 7 -11 14 -13 16 -15 15 -24 32
-24 45 0 12 4 25 10 29 6 5 25 5 47 1 20 -4 28 -4 37 1 2 1 4 2 4 1 0 -1 2 1
5 4 11 11 11 14 11 80 0 55 0 62 -4 69 -5 12 -12 20 -23 27 -12 8 -16 15 -15
30 1 12 1 12 21 27 18 13 25 35 18 57 -2 10 -11 25 -13 25 -3 0 -16 9 -16 11
0 1 -1 3 -3 4 -3 3 -3 7 -3 19 1 14 1 14 11 23 5 5 10 9 11 9 2 0 11 16 13 25
5 14 4 40 -2 52 -4 9 -22 27 -27 27 -4 0 -11 13 -11 22 0 9 7 22 11 22 5 0 23
18 27 27 l5 11 0 156 0 156 6 11 c3 6 5 9 6 8 0 -2 1 -3 2 -3z m115 -1 c3 -5
3 -5 0 -10 -2 -3 -5 -5 -7 -5 -2 0 -5 2 -7 5 -3 5 -3 5 0 10 2 3 5 5 7 5 2 0
5 -2 7 -5z m302 -17 c3 -6 3 -7 -3 -27 -3 -12 -7 -28 -9 -35 -2 -7 -5 -19 -7
-27 -3 -12 -4 -20 -4 -58 l0 -43 -6 -7 c-3 -4 -6 -6 -7 -6 -1 1 -70 -4 -92 -6
-5 -1 -17 -3 -25 -6 -17 -5 -26 -7 -49 -8 -16 -1 -24 -4 -36 -15 -7 -7 -8 -9
-9 -16 0 -5 -1 -9 -1 -10 -1 -1 0 -2 2 -3 1 -1 4 -5 6 -9 3 -4 8 -9 11 -12 7
-5 27 -16 30 -16 1 0 9 -3 17 -7 8 -4 16 -7 17 -7 1 0 2 -1 2 -2 0 -2 11 -7
22 -11 9 -3 14 -3 57 1 26 2 48 4 48 5 1 0 4 -2 7 -5 6 -6 6 -8 7 -22 2 -30
10 -62 22 -82 14 -23 5 -27 -32 -12 -12 5 -32 12 -45 17 -13 5 -25 10 -28 11
-10 5 -29 0 -32 -7 -1 -3 -2 -3 -2 -1 0 2 -2 7 -4 12 -2 5 -5 14 -5 20 -2 25
-11 40 -25 43 -3 1 -6 2 -7 3 -3 3 -45 14 -58 15 -17 2 -21 7 -21 25 0 19 0
17 -9 39 l-7 18 3 9 c2 5 5 10 6 12 4 5 11 29 10 35 -2 11 -3 22 -1 25 3 4 13
5 22 3 6 -1 10 -2 10 -2 1 0 10 1 21 2 38 2 57 19 55 50 -1 9 0 10 5 16 l6 6
31 -1 c35 0 43 1 52 11 6 6 14 24 14 30 0 2 3 10 7 18 11 22 12 25 13 36 0 2
2 5 4 7 5 5 12 2 17 -6z m254 -39 c5 -3 6 -5 13 -24 3 -11 3 -13 1 -19 -3 -7
-11 -10 -20 -6 -3 1 -9 3 -13 3 -8 1 -16 6 -18 12 -7 18 -8 31 -3 31 1 0 3 1
3 2 2 6 29 6 37 1z m-101 -43 c1 0 5 -3 8 -6 5 -5 6 -7 6 -18 0 -11 -1 -13 -6
-18 -3 -4 -8 -6 -11 -6 -12 0 -13 -4 -13 -24 l1 -19 6 -1 c9 -3 13 -9 13 -21
0 -13 -4 -19 -14 -21 -15 -3 -28 4 -28 15 0 3 -1 8 -3 11 -2 5 -2 8 0 18 0 2
0 4 -1 3 -1 -1 -2 0 -2 1 0 2 -6 6 -13 7 -5 1 -15 13 -15 18 0 4 14 21 17 21
2 0 3 2 4 4 1 2 2 4 3 4 1 0 6 6 11 14 6 9 12 15 15 17 5 2 8 2 22 1z m139
-18 l5 -7 -8 -10 c-8 -8 -9 -9 -13 -7 -3 2 -4 3 -4 4 1 1 0 2 -1 2 -1 0 -2 1
-1 2 1 1 0 3 -1 5 -3 7 9 20 17 18 1 0 4 -3 6 -7z m-567 -16 c9 -6 15 -32 12
-45 0 0 -3 -2 -6 -3 -4 -1 -8 -1 -15 1 -12 3 -12 3 -16 3 -2 0 -6 3 -9 6 -5 5
-6 7 -6 17 0 14 3 20 12 24 8 3 22 2 28 -3z m530 -43 c0 -2 -1 -3 -2 -4 -1 -1
-2 -2 -1 -3 1 -1 -3 -5 -8 -8 -10 -6 -10 -6 -13 -2 -3 5 1 15 7 16 2 0 5 1 6
2 2 3 11 2 11 -1z m297 -12 c5 -4 7 -13 7 -24 1 -9 0 -10 -4 -10 -9 -2 -24 13
-24 24 0 10 14 17 21 10z m-1472 -6 c3 -5 3 -5 0 -10 -2 -3 -5 -5 -7 -5 -2 0
-5 2 -7 5 -3 5 -3 5 0 10 2 3 5 5 7 5 2 0 5 -2 7 -5z m1320 -8 c5 -8 1 -16 -8
-16 -9 0 -13 8 -8 16 2 3 5 5 8 5 3 0 6 -2 8 -5z m-944 -17 c5 -5 6 -7 6 -15
0 -13 -5 -19 -17 -25 -22 -11 -35 -12 -43 -6 -4 4 -4 5 -2 13 10 34 38 50 56
33z m849 -11 c6 -7 6 -22 -1 -28 -6 -7 -22 -7 -28 -1 -6 6 -7 19 -2 27 6 9 23
10 31 2z m206 -50 c21 -2 24 -7 15 -25 -5 -10 -5 -12 -4 -25 0 -8 2 -17 3 -21
6 -21 0 -34 -18 -34 -13 0 -17 4 -23 23 -7 22 -13 35 -20 42 -3 3 -5 5 -4 5 1
0 1 1 -1 3 -4 6 3 23 12 28 9 5 18 7 23 6 2 -1 10 -2 17 -2z m-1332 -4 c6 -6
4 -24 -3 -31 -7 -6 -22 -6 -28 1 -7 6 -7 21 -1 28 7 7 25 8 32 2z m120 -52 c1
-1 2 -11 3 -27 0 -10 1 -19 2 -20 1 -2 2 -67 3 -146 l1 -143 -6 -6 -6 -6 -40
0 -40 0 -6 6 -6 6 1 47 c0 30 -1 50 -2 55 -3 11 -8 23 -10 23 -1 0 -2 1 -2 3
0 2 -1 3 -2 3 -3 0 -11 19 -11 28 0 9 6 23 12 30 2 2 3 6 3 14 -1 15 -2 18
-13 29 -6 6 -9 11 -9 14 0 6 10 20 16 22 2 1 4 3 5 5 1 3 11 8 29 14 19 7 22
10 39 37 2 3 9 8 15 11 12 5 16 5 24 1z m1039 -20 c5 -8 1 -16 -8 -16 -9 0
-13 8 -8 16 2 3 5 5 8 5 3 0 6 -2 8 -5z m-975 -9 c7 -8 7 -9 3 -16 -5 -6 -13
-5 -17 2 -3 5 -3 6 1 10 1 2 3 5 3 7 0 5 4 4 10 -3z m293 -21 c3 -3 3 -3 0 -6
-4 -5 -11 1 -7 6 4 4 4 4 7 0z m900 -58 c12 -7 14 -33 3 -43 -8 -9 -32 -9 -40
0 -9 8 -9 32 0 41 7 7 27 8 37 2z m-862 -31 c1 0 5 -7 9 -15 4 -9 11 -18 19
-25 6 -7 11 -14 11 -16 1 -15 2 -22 6 -33 2 -7 7 -17 11 -21 4 -5 10 -15 13
-21 8 -14 20 -28 25 -30 8 -2 15 -10 14 -15 -1 -3 -2 -8 -2 -11 -2 -10 -9 -15
-20 -15 -11 0 -16 4 -25 19 -3 5 -10 14 -15 18 -17 14 -23 21 -23 25 0 6 -9
29 -15 37 -2 3 -7 9 -12 13 -10 9 -12 20 -8 35 3 9 3 16 2 33 0 12 0 22 0 23
2 1 8 1 10 -1z m495 -10 c3 -4 6 -7 6 -8 2 -18 -5 -27 -24 -26 -9 1 -12 2 -16
7 -9 10 -9 16 3 28 7 8 24 7 31 -1z m-112 -15 c15 -9 6 -29 -12 -29 -11 0 -24
14 -24 25 0 10 22 12 36 4z m-960 -47 c5 -5 6 -7 6 -17 0 -16 -7 -23 -23 -23
-16 0 -23 7 -23 23 0 16 7 23 23 23 10 0 12 -1 17 -6z m314 -5 c4 -5 8 -12 10
-19 2 -6 1 -7 -5 -10 -8 -5 -22 -4 -28 3 -7 5 -7 18 -1 24 6 6 20 7 24 2z
m420 -27 c0 -1 1 -2 2 -1 1 1 2 0 2 -1 0 -2 4 -2 6 1 1 1 2 1 2 -1 0 -7 26 -8
38 -2 16 8 37 5 43 -7 4 -8 4 -24 0 -32 -5 -10 -19 -14 -36 -10 -20 5 -37 4
-44 -5 -7 -6 -15 -10 -19 -8 -3 2 -4 1 -4 0 0 -5 -15 14 -17 20 -2 11 13 47
18 45 2 0 3 0 3 1 0 1 1 1 3 1 2 0 3 0 3 -1z m250 -4 c2 -2 4 -5 4 -7 0 -6 10
-26 16 -31 3 -3 7 -8 10 -12 2 -5 5 -8 6 -8 0 0 1 -5 1 -10 0 -9 -1 -12 -6
-17 l-6 -6 -25 1 c-31 2 -34 3 -39 10 -4 7 -3 12 4 26 6 12 10 30 11 45 0 7 7
13 14 13 3 0 8 -2 10 -4z m-597 -8 c7 -3 9 -9 10 -23 0 -16 -5 -23 -17 -26
-19 -6 -32 1 -37 20 -6 22 -6 24 3 28 9 5 34 5 41 1z m950 -7 c10 -9 4 -31 -8
-31 -5 0 -11 -1 -14 -2 -1 0 -7 0 -12 0 -10 0 -11 0 -11 5 0 6 12 24 19 29 9
6 20 5 26 -1z m-54 -34 c2 0 5 1 5 2 1 1 2 -1 3 -5 2 -6 2 -8 -1 -10 -2 -2 -5
-7 -7 -13 -4 -12 -3 -43 3 -75 5 -25 5 -32 0 -57 -2 -11 -4 -21 -4 -23 1 -2
-2 -6 -5 -9 -6 -6 -7 -6 -26 -6 -20 0 -20 0 -26 6 -7 7 -8 12 -2 18 2 2 5 6 6
10 2 3 3 5 3 3 0 -4 14 12 14 16 1 14 0 18 -1 20 -6 7 -13 26 -13 34 0 9 -6
46 -9 53 -1 2 -3 5 -4 5 -1 1 -1 2 0 2 1 0 2 3 1 9 -1 9 0 10 5 16 l6 6 24 0
c13 -1 26 -1 28 -2z m-109 -28 c11 -11 3 -29 -13 -29 -15 0 -23 18 -13 29 7 7
20 7 26 0z m-1253 -24 c12 -7 14 -33 3 -43 -8 -9 -32 -9 -40 0 -9 8 -9 32 0
41 7 7 27 8 37 2z m1162 -25 c5 -5 6 -10 5 -23 0 -3 -6 -11 -12 -18 -7 -8 -14
-18 -17 -23 -6 -14 -13 -24 -21 -32 -5 -5 -8 -9 -7 -10 1 -1 0 -2 -2 -2 -1 0
-6 -2 -10 -4 -6 -4 -12 -5 -28 -6 -12 -1 -21 -1 -21 0 0 2 -13 8 -21 9 -4 1
-9 2 -10 3 -2 2 -17 5 -20 4 -1 0 -5 2 -8 5 -10 8 -10 43 1 53 l5 5 39 0 c22
0 41 -1 42 -2 4 -3 26 -1 32 2 7 3 12 13 13 24 1 6 2 11 4 11 1 1 1 2 0 2 -4
0 4 6 10 8 10 2 19 0 26 -6z m-527 3 c16 -7 20 -37 7 -48 -12 -11 -34 -11 -44
1 -6 6 -6 34 0 40 8 9 24 12 37 7z m-527 -4 c3 -5 3 -5 0 -10 -2 -3 -5 -5 -7
-5 -2 0 -5 2 -7 5 -3 5 -3 5 0 10 2 3 5 5 7 5 2 0 5 -2 7 -5z m1412 -3 c14 -5
14 -32 -1 -40 -10 -6 -25 -5 -32 2 -5 5 -6 7 -6 17 0 16 7 23 23 23 6 0 13 -1
16 -2z m-714 -27 c4 -9 4 -28 1 -36 -2 -3 -3 -10 -4 -14 l-1 -8 -1 7 c0 8 -5
14 -10 14 -2 0 -4 1 -5 2 -1 2 -16 5 -25 4 -14 -1 -22 18 -11 28 4 4 6 4 15 3
16 -1 36 5 36 12 0 4 1 4 1 0 1 -2 3 -8 4 -12z m-384 -13 c7 -6 7 -19 1 -25
-6 -7 -19 -7 -25 -1 -7 6 -7 19 -1 25 6 7 19 7 25 1z m489 -46 c5 -5 5 -11 0
-16 -10 -10 -27 5 -16 16 4 4 12 4 16 0z m-647 -13 l6 -6 0 -69 c0 -60 0 -70
3 -75 6 -11 15 -18 31 -27 12 -6 15 -11 15 -24 0 -13 -2 -16 -14 -25 -10 -7
-16 -15 -18 -26 -1 -6 -1 -8 0 -29 1 -25 -11 -32 -48 -27 -12 2 -30 3 -41 3
-20 -1 -20 -1 -26 5 l-6 6 1 56 c0 55 0 56 -5 66 -5 12 -14 22 -27 32 -13 9
-18 19 -19 32 0 11 3 15 20 24 26 14 31 25 31 57 -1 21 -1 21 5 27 l6 6 40 0
40 0 6 -6z m209 -7 c8 -9 2 -22 -9 -22 -6 0 -13 7 -13 12 0 12 15 18 22 10z
m334 -25 c2 1 4 3 5 3 0 0 1 -15 1 -34 0 -32 0 -34 -5 -47 -7 -19 -18 -27 -35
-27 -15 0 -20 5 -20 20 0 14 1 15 17 26 25 17 31 28 31 61 1 18 1 19 2 7 1
-12 1 -13 4 -9z m-808 9 c5 -5 5 -15 0 -20 -9 -9 -24 -2 -24 10 0 8 6 14 14
14 3 0 8 -2 10 -4z m345 -16 c11 -10 3 -28 -11 -28 -9 0 -16 6 -16 16 0 14 17
22 27 12z m1096 -29 c7 -7 7 -19 0 -26 -6 -6 -19 -7 -26 -1 -7 5 -7 20 0 27 7
7 19 7 26 0z m-437 -15 c2 -5 2 -6 -1 -11 -5 -7 -13 -6 -17 1 -2 5 -2 6 1 11
4 7 13 6 17 -1z m370 -34 c3 -4 6 -8 16 -27 l7 -14 -4 -3 c-3 -2 -10 -6 -17
-8 -15 -5 -23 -12 -29 -26 -2 -5 -5 -10 -6 -10 -1 -2 -1 -19 2 -27 0 -2 2 -7
3 -11 1 -4 5 -13 9 -20 5 -10 7 -15 6 -18 -2 -4 -2 -4 -7 -4 -2 0 -1 -1 2 -3
5 -4 20 -6 26 -3 3 1 4 1 5 0 1 -1 3 -2 5 -2 3 1 16 -10 14 -14 -1 -4 4 -15
10 -22 3 -4 6 -6 6 -5 0 0 2 0 4 -1 4 -2 12 -4 27 -6 13 -1 21 -8 21 -18 0 -3
1 -7 1 -10 3 -15 2 -23 -3 -28 -4 -4 -4 -4 -16 3 -12 7 -12 7 -22 4 -5 -2 -10
-3 -10 -2 -3 0 -14 -14 -16 -21 -1 -4 -2 -32 -2 -75 l1 -68 -6 -6 c-4 -3 -8
-6 -11 -6 -3 0 -7 3 -11 6 l-6 6 1 71 c0 76 0 82 -9 94 -6 7 -21 15 -32 17
-25 4 -30 8 -38 28 -3 8 -7 15 -7 15 -1 0 -2 1 -2 2 0 2 -6 9 -14 16 l-14 13
0 11 c0 15 3 19 21 24 8 2 19 6 25 8 l11 5 -1 14 c0 16 -3 20 -17 29 -7 4 -16
11 -21 17 -6 8 -12 13 -21 17 l-12 6 -108 0 c-92 0 -108 0 -113 3 -3 2 -6 4
-6 5 0 1 -2 2 -4 2 -5 0 -5 1 -1 1 2 1 5 3 6 5 5 6 29 23 39 26 15 5 18 5 42
-4 l22 -8 93 0 c85 1 93 1 101 5 4 2 8 4 8 5 0 1 1 2 3 2 1 0 4 1 5 3 9 10 37
15 44 7z m-632 -58 c6 -8 6 -18 1 -31 -3 -6 -6 -10 -8 -10 -1 0 -6 -5 -12 -11
-13 -16 -20 -20 -32 -20 -13 0 -19 6 -19 19 0 13 6 22 33 51 9 8 9 8 21 8 11
-1 13 -2 16 -6z m-771 -34 c7 -6 7 -19 1 -25 -6 -7 -19 -7 -25 -1 -7 6 -7 19
-1 25 6 7 19 7 25 1z m1137 -70 c5 -5 5 -15 0 -20 -9 -9 -24 -2 -24 10 0 8 6
14 14 14 3 0 8 -2 10 -4z m-105 -19 l6 -6 -1 -20 c-1 -31 7 -42 32 -46 3 -1 5
-2 6 -3 1 -2 2 -1 3 1 2 6 32 -7 42 -19 8 -8 5 -20 -5 -22 -9 -1 -38 18 -38
25 0 3 -1 3 -2 1 -1 -1 -5 -2 -9 -2 -12 1 -20 -4 -26 -16 -3 -5 -3 -14 -3 -78
l1 -73 -6 -6 c-4 -3 -8 -6 -11 -6 -3 0 -7 3 -11 6 l-6 6 0 126 0 126 6 6 c8 8
14 8 22 0z m-256 -12 c1 -3 2 -28 1 -90 -1 -94 0 -100 10 -107 7 -5 28 -8 32
-5 1 2 7 3 15 3 18 0 24 -5 24 -22 1 -16 -1 -22 -14 -28 -18 -9 -28 -16 -32
-21 -2 -3 -7 -7 -10 -9 -6 -3 -7 -3 -15 0 -5 3 -11 6 -12 9 -2 3 -3 5 -4 4 0
0 -4 1 -9 4 -6 3 -11 4 -24 4 -17 0 -18 0 -47 -16 -11 -6 -14 -6 -18 0 -5 6
-1 20 10 35 6 9 23 43 45 89 8 16 29 71 30 78 2 7 -2 26 -6 31 -5 6 -9 18 -9
26 0 8 6 16 16 20 3 1 6 3 6 5 0 2 8 -5 11 -10z m117 0 c20 -6 28 -13 28 -25
0 -6 -1 -9 -6 -13 -15 -10 -51 -13 -61 -3 -3 3 -4 6 -4 19 0 14 0 16 6 20 6 6
22 7 37 2z m-311 -13 c5 -3 12 -7 15 -8 9 -3 32 -1 41 3 10 5 27 5 34 0 7 -5
10 -11 10 -23 0 -14 -4 -20 -14 -26 -5 -3 -8 -6 -9 -6 0 -1 -1 -2 -3 -2 -2 0
-19 -16 -19 -19 0 -1 -1 -2 -10 -14 -7 -8 -19 -15 -36 -20 -25 -7 -30 -3 -32
24 -1 12 -3 23 -7 34 -7 19 -7 32 -1 45 6 13 20 27 22 21 0 -1 4 -5 9 -9z
m-425 0 c0 -1 2 -2 4 -3 4 -1 4 -6 -2 -11 -5 -5 -8 -5 -13 1 -3 5 -3 5 0 10 4
5 11 7 11 3z m1457 -68 c4 -6 4 -24 -1 -30 -7 -9 -27 -9 -34 0 -5 6 -5 24 0
30 7 9 27 9 35 0z m-1191 -6 c11 -6 36 -12 47 -11 11 1 17 -11 9 -19 -2 -2 -6
-3 -15 -2 -15 0 -33 -3 -43 -8 -13 -6 -30 -6 -38 2 -6 6 -6 6 -6 20 1 13 2 15
7 19 8 8 26 7 39 -1z m1093 -7 c1 0 4 -4 6 -8 5 -8 5 -8 1 -11 -1 -1 -3 -3 -2
-3 0 -1 0 -3 0 -5 0 -6 -4 -5 -6 2 -1 3 -4 6 -6 7 -2 1 -3 3 -3 8 0 7 5 15 7
11 0 -1 2 -1 3 -1z m-561 -9 c5 -6 5 -12 0 -18 -7 -8 -22 -2 -22 9 0 11 15 17
22 9z m576 -44 c1 -1 7 -5 13 -10 7 -4 13 -10 14 -11 3 -12 3 -17 -2 -33 -3
-9 -6 -25 -7 -36 -1 -10 -3 -21 -5 -24 -8 -15 -43 -14 -49 1 -5 14 -5 15 4 43
2 8 4 19 5 24 2 21 4 26 14 37 9 11 12 13 13 9z m247 -144 c4 -6 4 -24 -1 -30
-7 -9 -27 -9 -34 0 -5 6 -5 24 0 30 7 9 27 9 35 0z"/>
<path d="M1754 3661 c-6 -3 -14 -15 -14 -22 0 -7 9 -24 16 -30 3 -2 11 -6 17
-8 21 -7 35 3 32 24 -1 7 -1 9 0 8 2 -1 2 0 2 3 -1 2 -2 4 -3 4 -2 0 -4 2 -7
4 -18 17 -20 18 -30 18 -5 0 -11 -1 -13 -1z"/>
</g>
</svg>
