<?xml version="1.0" standalone="no"?>
<!DOCTYPE svg PUBLIC "-//W3C//DTD SVG 20010904//EN"
 "http://www.w3.org/TR/2001/REC-SVG-20010904/DTD/svg10.dtd">
<svg version="1.0" xmlns="http://www.w3.org/2000/svg"
 width="1109.000000pt" height="2870.000000pt" viewBox="0 0 1109.000000 2870.000000"
 preserveAspectRatio="xMidYMid meet">
<metadata>
Created by potrace 1.15, written by Peter Selinger 2001-2017
</metadata>
<g transform="translate(0.000000,2870.000000) scale(0.500000,-0.500000)"
fill="#000000" stroke="none">
<path d="M796 3838 c-18 -6 -30 -21 -30 -39 0 -7 9 -26 17 -38 13 -18 42 -69
57 -100 34 -70 54 -126 66 -191 7 -37 12 -53 15 -57 1 -1 2 -3 2 -4 -1 -3 3
-7 7 -8 2 0 8 -2 14 -4 6 -1 16 -3 23 -4 7 -1 13 -3 16 -6 11 -9 11 -33 0 -42
-15 -13 -61 -3 -61 13 0 5 -9 25 -14 31 -9 10 -28 14 -45 9 -4 -2 -17 -7 -28
-13 -11 -6 -28 -13 -37 -17 -9 -3 -19 -8 -22 -10 -7 -5 -26 -12 -35 -12 -9 0
-14 5 -16 16 -4 27 -17 38 -45 38 -14 0 -16 0 -20 6 l-5 5 18 66 c17 65 17 66
15 77 -2 8 -4 13 -9 17 -6 7 -9 7 -27 5 -3 0 -15 -11 -19 -18 -2 -4 -9 -20
-16 -36 -6 -16 -13 -31 -14 -34 -7 -13 -37 -90 -37 -93 0 -3 -10 -26 -20 -47
-4 -10 -14 -34 -22 -52 -8 -19 -15 -37 -16 -39 -13 -29 -50 -120 -50 -122 0
-4 -6 -5 -9 -2 -2 2 -5 8 -6 12 -14 67 -73 131 -153 167 -50 23 -88 35 -138
45 -56 11 -73 12 -89 8 -24 -6 -33 -16 -35 -36 l0 -13 12 -19 c21 -32 28 -43
28 -44 0 -1 1 -3 3 -5 3 -4 18 -30 33 -61 24 -46 45 -108 55 -153 4 -23 10
-41 15 -47 13 -16 21 -21 37 -23 20 -1 26 6 25 31 0 14 0 15 5 20 7 7 23 7 30
0 6 -6 7 -22 1 -29 -5 -7 -4 -33 1 -37 16 -12 59 -2 92 20 10 7 16 8 18 3 2
-7 -1 -15 -27 -77 -15 -33 -28 -65 -31 -71 -2 -6 -8 -19 -13 -28 -4 -9 -10
-24 -13 -32 -3 -8 -10 -24 -15 -36 -10 -20 -14 -30 -14 -32 0 -1 -1 -2 -2 -3
-1 -2 -3 -6 -3 -10 -1 -14 19 -17 41 -6 21 11 46 8 46 -5 0 -8 -7 -21 -16 -28
-10 -8 -21 -22 -30 -39 -12 -22 -31 -26 -54 -12 -11 7 -13 7 -25 7 -11 -1 -14
-2 -19 -7 -9 -8 -12 -15 -12 -26 0 -13 7 -19 20 -19 16 1 18 0 23 -5 7 -7 7
-19 0 -26 -6 -6 -15 -6 -33 1 -9 3 -14 4 -29 3 -10 -1 -21 -1 -24 -1 -9 0 -14
7 -16 18 -1 7 -2 10 -7 13 -9 5 -36 4 -36 -2 0 -1 -7 -9 -15 -18 -16 -15 -16
-15 -17 -26 -1 -12 -1 -12 7 -20 5 -5 11 -9 14 -10 3 -1 6 -2 7 -3 1 -1 5 -2
10 -3 28 -3 67 -18 78 -29 6 -6 16 -24 16 -30 0 -6 9 -20 15 -24 9 -5 15 -6
75 -4 l42 2 5 -5 c5 -4 6 -6 6 -17 2 -20 -1 -23 -25 -32 -16 -6 -26 -15 -34
-30 -9 -18 -14 -22 -23 -22 -9 0 -28 -6 -36 -11 -3 -2 -7 -7 -9 -12 -4 -7 -4
-13 -7 -47 0 -7 -2 -22 -3 -33 -1 -11 -3 -24 -3 -30 -1 -5 -2 -14 -3 -20 -1
-5 -2 -14 -3 -19 0 -5 -3 -21 -6 -36 -5 -30 -5 -55 0 -70 2 -5 3 -10 3 -11 0
-2 2 -5 4 -8 13 -14 15 -17 22 -35 9 -21 47 -48 78 -57 26 -7 63 -5 73 5 7 6
11 24 12 44 0 15 0 17 6 21 4 4 7 5 18 5 14 0 13 0 34 -19 4 -4 19 -6 27 -4 3
1 9 5 14 11 24 27 32 42 36 68 2 9 4 18 5 19 2 2 3 4 3 5 0 1 1 2 4 0 2 -1 4
-1 6 0 3 4 9 -3 13 -18 6 -23 10 -30 18 -33 10 -4 28 -3 35 2 8 5 17 4 33 -6
25 -16 17 -15 148 -15 132 0 125 -1 151 14 19 12 29 12 48 0 25 -14 23 -14
109 -14 65 0 78 0 86 3 9 3 20 9 24 14 15 17 41 17 56 0 5 -5 15 -11 24 -14 9
-3 27 -3 165 -2 152 0 155 0 170 5 14 4 36 5 45 3 2 0 11 -3 19 -5 15 -4 18
-4 126 -3 128 1 124 0 145 19 11 10 25 34 25 43 0 11 -7 27 -15 35 -10 11 -43
39 -71 62 -12 9 -23 18 -25 20 -2 2 -8 6 -13 10 -5 4 -10 8 -11 9 -2 1 -6 4
-9 7 -4 3 -13 10 -19 16 -12 9 -14 10 -23 10 -12 0 -18 -2 -25 -9 -15 -15 -23
-16 -38 -6 -9 6 -11 7 -24 7 -13 0 -13 0 -21 -8 -4 -4 -10 -12 -14 -18 -4 -6
-7 -11 -8 -12 -1 -1 -5 -6 -9 -13 -4 -7 -9 -12 -9 -13 -1 -1 -3 -4 -5 -7 -2
-4 -4 -7 -5 -7 -1 0 -3 -3 -4 -6 -3 -7 -15 -13 -30 -15 -11 -2 -11 -2 -17 4
-6 6 -6 7 -6 21 1 17 -4 32 -12 40 -9 10 -15 21 -15 27 0 7 9 29 12 29 1 0 2
1 2 3 0 2 1 3 2 3 2 0 8 15 10 26 4 16 -4 47 -16 64 -2 3 -5 11 -7 17 -3 12
-3 13 1 20 2 4 6 10 9 13 5 6 13 22 21 42 2 6 16 29 31 52 15 22 30 46 34 51
3 6 10 16 15 24 5 8 15 24 22 36 7 12 14 24 16 27 5 8 12 20 15 26 4 6 4 14 0
23 -4 9 -9 13 -24 17 -19 5 -23 10 -23 26 0 11 1 13 6 18 6 6 7 6 18 6 3 0 7
0 9 0 2 0 8 -4 13 -10 10 -9 11 -10 23 -10 7 -1 15 0 17 0 4 2 40 65 41 74 1
3 0 10 -1 15 -3 9 -9 13 -24 16 -10 1 -32 -11 -47 -26 -12 -12 -14 -13 -22
-13 -11 0 -17 6 -17 17 0 8 1 10 13 22 10 10 16 18 21 30 4 9 10 18 11 19 5 5
19 8 26 7 9 -1 35 -11 41 -14 4 -3 12 -3 27 0 10 2 17 9 27 29 11 21 14 35 13
54 -2 21 5 25 34 18 23 -5 50 10 68 41 10 15 10 30 2 42 -6 8 -13 12 -101 55
-72 34 -71 34 -80 33 -13 -2 -20 -8 -26 -21 -7 -14 -11 -20 -16 -20 -2 0 -9
-1 -16 -3 -15 -4 -25 -13 -33 -29 -6 -11 -10 -15 -20 -18 -12 -3 -22 -2 -26 2
-4 4 -25 6 -25 2 0 -1 -1 -2 -2 -1 -2 1 0 -16 2 -23 2 -3 3 -5 4 -5 1 1 2 0 2
-2 0 -1 2 -4 4 -6 2 -1 4 -3 3 -3 0 -1 2 -3 5 -5 3 -2 7 -7 9 -11 4 -10 8 -19
8 -20 0 -1 1 -3 3 -5 2 -2 3 -5 3 -6 0 -1 3 -3 7 -5 7 -4 10 -4 36 -1 9 1 10
1 15 -4 11 -11 4 -31 -12 -31 -8 0 -23 8 -23 12 0 7 -27 10 -38 4 -4 -2 -12
-4 -18 -5 -23 -2 -44 -16 -44 -29 0 -3 -1 -4 -1 -2 -1 3 -3 3 -6 3 -4 -1 -9 5
-9 12 0 9 -13 27 -30 44 l-20 18 -1 12 c-1 13 -7 34 -13 45 -7 13 -8 23 -6 33
4 14 11 19 28 20 15 1 28 5 34 10 2 3 5 5 6 5 5 0 6 20 6 101 l-1 84 6 6 c6 5
8 6 18 6 11 0 23 4 30 9 1 1 6 5 11 9 5 4 14 10 20 13 16 8 22 14 32 30 11 18
14 20 28 20 15 0 22 -7 22 -22 0 -9 -3 -20 -6 -20 -2 0 1 -25 4 -30 5 -9 17
-11 33 -3 6 2 11 6 13 7 5 5 16 10 21 10 5 0 15 -5 22 -10 8 -8 28 -14 44 -14
30 0 54 13 70 37 8 13 0 37 -15 43 -3 1 -7 5 -9 8 -4 4 -11 22 -11 27 -1 11
-20 27 -73 63 -4 3 -8 5 -9 6 -1 1 -6 5 -13 9 -7 4 -12 9 -13 9 -1 1 -3 3 -6
4 -3 1 -6 3 -7 4 -1 1 -7 6 -13 10 -29 21 -34 25 -48 39 -11 9 -12 10 -31 9
-11 0 -15 -3 -30 -23 -3 -4 -10 -13 -15 -19 -5 -6 -11 -14 -13 -17 -2 -3 -5
-6 -6 -8 -1 -1 -6 -7 -12 -14 -12 -16 -12 -16 -25 -32 -6 -8 -12 -14 -12 -15
-1 0 -2 -2 -2 -3 0 -1 -2 -3 -3 -4 -2 -1 -7 -3 -10 -5 -5 -2 -11 -3 -32 -3
-26 0 -26 0 -33 6 -3 3 -5 5 -4 5 2 0 30 26 60 57 l20 20 -1 13 c-1 13 -1 13
-10 21 -6 6 -13 9 -23 12 -20 6 -33 9 -38 9 -5 0 -12 8 -12 15 0 10 7 14 25
16 14 1 22 2 39 7 15 3 30 -2 34 -11 3 -8 8 -11 24 -11 l16 -1 3 6 c2 5 3 10
2 20 -2 16 3 23 14 23 20 0 43 9 48 18 4 7 4 24 2 45 -3 17 0 32 6 47 7 16 6
36 -3 45 -5 5 -52 23 -75 29 -3 1 -12 4 -19 7 -7 2 -13 4 -15 4 -1 0 -5 -1
-10 -2 -4 -1 -9 -3 -12 -5 -5 -3 -18 -22 -20 -30 -4 -12 -22 -24 -36 -24 -12
0 -15 2 -24 17 -5 7 -9 12 -10 12 0 -1 0 0 0 2 0 3 4 5 13 8 6 2 15 6 18 9 6
4 6 5 6 20 l0 16 -8 5 c-6 4 -10 5 -21 5 -7 0 -13 -1 -13 -2 0 -1 -1 -2 -2 -1
-4 0 -12 -13 -12 -20 0 -6 9 -25 12 -25 1 0 2 -1 1 -2 -1 -1 0 -2 1 -3 3 -2 2
-4 -2 -4 -3 -1 -10 -2 -16 -4 -6 -2 -15 -3 -20 -3 -4 0 -12 -1 -17 -2 -9 -3
-10 -3 -12 -4 -4 0 -15 -11 -18 -17 -1 -3 -9 -36 -16 -73 -7 -37 -17 -86 -22
-109 -9 -41 -11 -57 -7 -57 1 0 2 -1 1 -2 -2 -3 8 -12 16 -14 5 -1 15 -2 23
-2 14 0 17 -1 21 -5 6 -4 6 -6 6 -20 0 -14 0 -16 -6 -20 -8 -7 -27 -7 -37 0
-6 5 -8 5 -20 4 -17 -1 -22 -4 -26 -15 -1 -5 -3 -12 -4 -16 -5 -16 5 -44 19
-51 9 -5 33 -11 43 -11 4 0 8 -2 12 -6 7 -7 12 -14 12 -15 0 -3 21 -21 30 -28
9 -6 11 -10 13 -24 2 -23 9 -41 16 -46 5 -3 26 -7 39 -7 13 0 17 -6 15 -17 -2
-11 -5 -15 -12 -18 -9 -4 -13 -4 -23 1 -24 11 -38 22 -43 33 -2 3 -5 8 -7 9
-2 2 -4 5 -5 7 -1 1 -8 6 -15 11 -7 5 -14 12 -16 15 -1 3 -3 5 -4 5 -1 0 -2 1
-2 3 0 3 -16 18 -29 27 -5 4 -13 10 -17 13 -5 4 -14 9 -22 12 -13 5 -17 6 -35
5 -13 0 -24 -2 -31 -4 -6 -2 -16 -4 -23 -5 -10 -1 -12 -1 -16 3 -12 11 -3 25
16 28 7 1 10 2 7 2 l-6 0 0 19 c0 17 0 19 -3 19 -2 0 -17 0 -34 0 -23 0 -30 0
-36 3 -4 2 -7 4 -7 5 0 1 -2 2 -3 2 -3 0 -3 1 1 3 16 8 47 73 46 97 0 9 -7 24
-16 32 -15 15 -18 24 -9 41 11 21 12 38 3 47 -3 3 -7 4 -19 4 -15 0 -15 0 -23
-7 -26 -26 -63 -8 -54 26 3 10 6 13 17 20 12 7 15 12 15 29 l0 13 -9 5 c-15 6
-23 8 -37 9 -16 1 -21 4 -30 21 -9 16 -20 28 -32 33 -46 22 -114 44 -164 54
-11 2 -37 3 -42 1z m191 -112 c10 -9 3 -26 -10 -26 -8 0 -15 7 -15 15 0 13 16
20 25 11z m-28 -115 c3 -5 3 -5 0 -10 -2 -3 -5 -5 -7 -5 -2 0 -5 2 -7 5 -3 5
-3 5 0 10 2 3 5 5 7 5 2 0 5 -2 7 -5z m477 -58 l-5 -5 -4 4 -5 5 4 4 5 5 4 -4
5 -5 -4 -4z m-791 -262 c15 -15 12 -15 146 -15 l118 1 6 -6 c6 -6 6 -7 5 -21
0 -23 5 -35 24 -47 16 -10 20 -15 20 -23 0 -7 -7 -18 -12 -18 -3 0 -3 -33 0
-38 1 -2 3 -4 4 -4 6 0 12 -9 12 -16 0 -9 -5 -13 -23 -23 -11 -5 -19 -14 -23
-25 -1 -4 -2 -36 -2 -103 0 -91 0 -96 -4 -103 -2 -4 -4 -6 -4 -5 0 1 -1 0 -2
-2 -2 -4 -2 -4 -2 0 0 4 -5 17 -14 33 -19 36 -29 53 -52 89 -24 35 -56 71 -73
82 -6 4 -12 12 -22 26 -15 22 -18 27 -45 51 -32 30 -41 35 -56 33 -5 -1 -9 -2
-10 -2 -2 0 -7 -6 -11 -11 -8 -12 -7 -20 2 -67 5 -24 10 -48 10 -52 5 -37 13
-50 34 -59 10 -5 19 -13 19 -18 0 -2 -6 -9 -13 -17 -18 -19 -20 -27 -16 -58 4
-27 10 -91 12 -118 1 -19 8 -42 14 -51 5 -7 9 -19 9 -26 0 -6 -8 -32 -12 -37
-7 -10 -7 -43 0 -54 4 -6 5 -6 18 -7 11 0 16 1 24 4 20 10 42 4 45 -13 1 -4 2
-7 3 -8 1 -1 4 -13 5 -20 0 -6 -9 -10 -25 -12 -12 -1 -43 -11 -51 -16 -26 -17
-36 -44 -28 -72 6 -21 18 -26 49 -24 46 4 60 -1 58 -18 -1 -7 0 -17 3 -25 1
-2 2 -4 2 -6 1 -5 13 -14 22 -15 16 -2 45 8 67 24 11 8 32 31 32 35 0 2 1 2 1
0 1 -2 3 -5 6 -7 2 -2 5 -7 7 -10 2 -3 5 -8 6 -10 5 -4 30 -11 33 -9 1 1 12 2
24 1 20 0 23 1 34 6 19 9 21 9 30 9 12 0 20 -8 20 -22 0 -9 -1 -11 -6 -16 -6
-6 -7 -6 -30 -7 -24 0 -24 0 -37 -8 -14 -7 -30 -10 -35 -5 -3 2 -28 -5 -33 -9
-8 -9 -8 -12 -8 -117 l1 -101 -6 -6 -6 -6 -171 1 c-175 0 -184 0 -191 -7 -3
-3 -4 -2 -7 6 -3 6 -5 10 -6 11 -1 0 -1 4 0 9 1 12 -9 32 -21 42 -18 17 -20
28 -7 53 13 25 13 31 2 63 -5 16 -19 49 -30 75 -32 73 -37 91 -36 132 0 20 5
71 7 80 4 14 5 34 2 62 -1 19 -1 19 5 31 6 11 6 13 5 24 -1 12 -5 18 -16 24
-14 8 -16 9 -20 13 -2 3 -4 7 -4 14 0 14 8 22 21 22 35 1 48 10 55 39 2 8 4
15 4 17 1 2 3 10 5 19 2 9 4 17 5 19 4 7 -2 40 -7 37 -1 -1 -3 1 -5 2 -3 4
-12 5 -35 5 -2 0 -6 2 -9 5 -6 6 -7 24 -1 31 6 8 26 9 33 1 4 -4 15 -6 24 -4
5 1 9 2 11 2 7 2 16 24 23 59 1 5 2 12 4 19 1 1 1 5 2 8 1 2 2 5 2 7 3 11 18
68 18 72 1 3 4 13 6 22 3 9 5 19 6 22 0 3 6 24 12 48 10 37 17 66 20 78 6 24
8 30 13 35 6 7 6 7 17 -4z m496 -18 c6 -4 6 -6 6 -20 0 -14 0 -16 -6 -20 -4
-4 -7 -5 -18 -5 -11 0 -14 1 -18 5 -6 4 -6 6 -6 20 0 14 0 16 6 20 4 4 7 5 18
5 11 0 14 -1 18 -5z m128 -2 l6 -6 0 -72 c0 -87 -2 -81 30 -107 14 -13 14 -35
0 -48 -32 -27 -30 -16 -31 -136 l0 -101 4 -8 c3 -4 6 -7 7 -7 0 1 2 0 3 -1 1
-3 26 -9 27 -7 1 1 5 2 9 2 8 0 11 -3 24 -19 4 -6 11 -12 14 -14 4 -1 10 -4
14 -6 4 -2 9 -3 11 -3 2 0 6 -3 9 -6 5 -5 6 -7 6 -16 0 -12 -2 -16 -14 -28 -4
-5 -11 -15 -17 -24 -6 -9 -11 -17 -13 -18 -10 -5 -23 -7 -25 -4 -1 1 -3 2 -5
2 -5 0 -9 6 -12 15 -2 8 -1 11 2 21 6 18 7 36 0 43 -9 9 -32 0 -40 -16 -4 -9
-4 -12 -3 -57 0 -26 1 -50 2 -53 2 -9 8 -13 23 -13 l12 0 0 -8 0 -8 -12 0
c-15 0 -21 -4 -23 -13 -1 -3 -2 -27 -2 -54 -1 -66 1 -72 24 -70 l13 2 0 -9 0
-9 -13 2 c-25 2 -25 4 -25 -130 0 -102 0 -108 4 -115 4 -8 10 -11 24 -13 5 -1
10 -2 10 -2 1 -1 2 0 2 1 0 3 10 5 25 4 2 0 6 -3 9 -6 5 -5 6 -7 6 -18 0 -10
-1 -13 -7 -21 -6 -8 -7 -9 -13 -7 -10 2 -20 7 -20 9 0 0 -1 1 -2 0 -1 0 -6 -1
-11 -2 -13 -2 -20 -6 -24 -14 -2 -3 -4 -6 -4 -7 -3 -24 -18 -34 -36 -24 -5 2
-8 6 -11 15 l-5 12 -1 348 c-1 191 -2 350 -3 352 -3 9 -33 20 -39 14 -3 -3
-22 -2 -29 2 -8 3 -12 13 -12 25 1 18 3 21 42 36 16 7 31 22 37 37 6 16 6 126
0 143 -2 6 -5 11 -6 13 -1 1 -3 7 -5 13 -3 9 -3 11 0 21 2 5 5 12 6 14 8 13 9
21 9 85 l-1 63 6 6 c6 6 7 6 22 6 15 0 16 0 22 -6z m-1072 -10 c6 -4 6 -6 6
-20 0 -14 0 -16 -6 -20 -4 -4 -7 -5 -18 -5 -11 0 -14 1 -18 5 -6 4 -6 6 -6 20
0 14 0 16 6 20 4 4 7 5 18 5 11 0 14 -1 18 -5z m1136 -66 c5 -8 1 -16 -8 -16
-9 0 -13 8 -8 16 2 3 5 5 8 5 3 0 6 -2 8 -5z m-1077 -77 c1 0 5 -3 8 -6 8 -7
9 -26 2 -35 -9 -12 -43 -15 -52 -5 -13 16 9 48 32 47 4 -1 8 -1 10 -1z m831
-15 c12 -12 3 -31 -13 -31 -11 0 -18 7 -18 18 0 11 7 18 18 18 6 0 9 -1 13 -5z
m-41 -87 c1 0 5 -3 8 -6 8 -8 8 -24 1 -38 -7 -13 -9 -13 -24 -6 -16 7 -19 12
-19 26 0 13 3 19 12 23 5 2 8 2 22 1z m386 -18 c15 -8 20 -49 8 -61 -8 -8 -23
-8 -34 0 -15 13 -19 48 -7 58 6 5 25 7 33 3z m-301 -55 c4 -3 5 -7 5 -12 0
-11 -4 -16 -16 -21 -5 -2 -17 -8 -27 -13 -26 -14 -43 -12 -49 3 -2 7 -1 20 3
24 1 2 3 5 4 7 1 6 4 6 24 8 8 0 19 3 24 5 14 6 26 5 32 -1z m-128 -59 c4 -6
4 -24 -1 -30 -7 -9 -27 -9 -34 0 -5 6 -5 24 0 30 7 9 27 9 35 0z m-172 -19 c3
-5 3 -5 0 -10 -2 -3 -5 -5 -7 -5 -2 0 -5 2 -7 5 -3 5 -3 5 0 10 2 3 5 5 7 5 2
0 5 -2 7 -5z m662 -200 c10 -10 5 -25 -18 -60 -8 -14 -14 -16 -34 -15 -2 0 -6
3 -9 6 -5 5 -6 7 -6 17 0 8 1 14 4 17 5 8 31 33 37 37 9 5 20 4 26 -2z m-478
-8 c12 -12 3 -31 -13 -31 -11 0 -18 7 -18 18 0 11 7 18 18 18 6 0 9 -1 13 -5z
m552 -9 c10 -15 -6 -31 -21 -21 -10 7 -3 25 10 25 6 0 9 -1 11 -4z m-634 -27
c4 -4 5 -7 5 -15 0 -14 -6 -20 -20 -20 -14 0 -20 6 -20 20 0 14 6 20 20 20 8
0 11 -1 15 -5z m427 -24 c19 -12 3 -36 -25 -38 -16 -2 -21 2 -21 17 0 16 5 20
25 23 6 1 10 2 11 2 1 2 3 1 10 -4z m184 -23 c5 -5 5 -11 -1 -17 -3 -3 -6 -5
-7 -5 -3 0 -12 10 -12 14 0 10 13 15 20 8z m-387 -31 c6 -4 6 -6 6 -19 0 -15
0 -15 -10 -28 -5 -8 -11 -14 -11 -14 -1 0 -2 -1 -2 -3 0 -5 -14 -17 -19 -17
-10 0 -11 7 -9 39 3 36 3 38 9 43 8 6 29 6 36 -1z m-324 -15 c4 -4 8 -11 15
-26 2 -5 7 -14 11 -21 8 -14 9 -22 3 -28 -8 -8 -18 -7 -27 3 -4 4 -7 8 -7 9 0
1 -6 8 -14 15 -11 11 -15 16 -20 27 -6 15 -6 19 4 24 7 4 30 2 35 -3z m703
-16 c8 -7 8 -8 8 -19 0 -14 -3 -18 -20 -24 -15 -5 -17 -5 -22 3 -5 9 -1 33 7
39 3 3 7 5 9 5 1 0 2 1 2 2 0 4 8 1 16 -6z m-507 -24 c11 -5 16 -27 8 -41 -8
-16 -40 -16 -48 0 -4 8 -4 24 0 32 5 12 23 15 40 9z m-726 -17 c5 -8 1 -16 -8
-16 -9 0 -13 8 -8 16 2 3 5 5 8 5 3 0 6 -2 8 -5z m1187 -18 c7 -8 6 -20 -3
-30 -9 -11 -27 -3 -27 11 0 14 21 27 30 19z m-154 -19 c12 -12 -3 -30 -18 -22
-5 3 -6 21 0 24 5 3 14 2 18 -2z m-898 -331 c3 -2 9 -8 14 -12 5 -5 13 -11 17
-13 13 -8 17 -15 20 -29 1 -7 -3 -17 -6 -17 -2 0 -3 -1 -3 -2 0 -2 -11 -5 -21
-5 -10 1 -17 6 -24 20 -3 7 -8 16 -11 20 -13 22 -15 30 -8 37 5 5 14 5 22 1z
m938 -34 c7 -8 6 -25 -2 -33 -5 -5 -7 -6 -17 -6 -10 0 -12 1 -17 6 -11 11 -7
33 7 43 5 4 22 -3 29 -10z m-1113 -62 c6 -6 7 -18 2 -25 -8 -9 -22 -8 -31 1
-5 4 -2 20 4 25 7 6 19 5 25 -1z"/>
<path d="M207 3823 c-24 -6 -34 -18 -34 -39 0 -10 1 -13 10 -27 11 -19 16 -22
34 -20 10 1 12 2 18 9 9 10 14 11 32 10 2 0 6 -3 9 -6 5 -5 6 -7 6 -17 0 -8
-1 -14 -3 -17 -7 -9 -5 -31 3 -44 8 -13 8 -21 0 -30 -5 -5 -6 -8 -6 -20 -1 -8
0 -14 1 -14 0 0 1 -1 1 -3 0 -3 7 -9 13 -10 12 -3 16 -15 9 -26 -16 -26 -18
-35 -11 -62 3 -11 7 -30 9 -42 7 -36 15 -48 43 -64 33 -19 51 -23 78 -16 11 3
16 3 30 1 22 -3 31 -1 39 7 12 11 21 27 26 43 3 10 16 24 22 24 2 0 9 2 16 3
6 2 12 4 13 3 0 0 1 1 1 2 0 1 1 2 3 2 4 0 12 9 17 17 8 17 13 41 13 67 0 27
-2 39 -11 61 -3 8 -6 15 -7 17 -1 3 -11 18 -18 27 -2 2 -3 5 -3 6 0 1 -4 5 -9
9 -4 4 -14 14 -22 24 -16 18 -22 24 -47 41 -39 26 -61 20 -73 -18 -2 -6 -4
-13 -5 -16 -7 -16 -43 -16 -50 1 -7 16 -2 34 11 40 11 6 12 8 13 22 1 21 -1
22 -21 28 -35 11 -72 20 -109 26 -27 5 -28 5 -41 1z m328 -199 c8 -14 1 -28
-14 -28 -15 0 -23 18 -13 29 7 8 22 7 27 -1z m-146 -9 c5 -8 1 -16 -8 -16 -9
0 -13 8 -8 16 2 3 5 5 8 5 3 0 6 -2 8 -5z m-4 -78 c12 -12 3 -31 -13 -31 -11
0 -18 7 -18 18 0 11 7 18 18 18 6 0 9 -1 13 -5z"/>
<path d="M1758 3731 c-16 -10 -24 -44 -13 -57 5 -6 6 -6 20 -6 9 0 15 1 15 2
0 1 2 5 5 9 7 10 12 22 12 28 -1 8 -6 19 -10 23 -6 5 -22 6 -29 1z"/>
<path d="M1645 3178 c-11 -2 -24 -8 -22 -10 1 -1 0 -2 0 -2 -6 0 -14 -51 -11
-65 3 -14 15 -23 32 -23 41 0 48 2 62 16 7 7 12 14 12 15 2 34 2 35 -19 45
-10 4 -18 8 -19 8 -1 0 -3 2 -5 4 -2 2 -5 4 -6 4 -2 0 -3 1 -3 2 0 4 -11 7
-21 6z"/>
</g>
</svg>
