<?xml version="1.0" standalone="no"?>
<!DOCTYPE svg PUBLIC "-//W3C//DTD SVG 20010904//EN"
 "http://www.w3.org/TR/2001/REC-SVG-20010904/DTD/svg10.dtd">
<svg version="1.0" xmlns="http://www.w3.org/2000/svg"
 width="1113.000000pt" height="2870.000000pt" viewBox="0 0 1113.000000 2870.000000"
 preserveAspectRatio="xMidYMid meet">
<metadata>
Created by potrace 1.15, written by Peter Selinger 2001-2017
</metadata>
<g transform="translate(0.000000,2870.000000) scale(0.500000,-0.500000)"
fill="#000000" stroke="none">
<path d="M1184 3848 c-7 -2 -10 -9 -10 -23 0 -17 -2 -15 26 -21 21 -5 28 -9
28 -19 0 -7 -5 -12 -15 -18 -9 -4 -37 -13 -47 -14 -5 -1 -14 -3 -20 -6 l-12
-6 0 -10 c0 -15 4 -21 17 -30 6 -4 11 -8 13 -10 2 -2 20 -65 20 -70 0 -5 -7
-11 -14 -11 -3 0 -6 1 -6 2 0 1 -7 0 -16 -3 -24 -5 -23 0 -23 -101 0 -46 1
-85 1 -87 1 -2 2 -5 2 -6 0 -2 2 -3 3 -3 5 0 3 -2 -4 -3 -3 0 -8 -3 -10 -5 -4
-5 -4 -5 -48 -4 -43 0 -44 0 -64 -6 -33 -10 -37 -9 -50 5 -6 7 -11 12 -11 13
0 3 -20 16 -32 21 -7 3 -34 13 -60 22 -26 10 -53 20 -60 22 -26 10 -51 19 -54
19 -13 1 -19 -1 -25 -7 -3 -4 -10 -10 -14 -15 -4 -4 -9 -10 -9 -12 -1 -1 -2
-2 -2 0 0 7 -24 -1 -32 -11 -4 -4 -22 -40 -22 -42 0 -1 -3 -9 -7 -18 -4 -9
-11 -23 -14 -32 -4 -9 -10 -21 -12 -26 -3 -6 -5 -11 -5 -12 0 -1 -2 -5 -4 -9
-9 -17 -18 -42 -18 -51 0 -4 2 -16 5 -27 8 -28 4 -38 -20 -49 -6 -3 -13 -7
-14 -7 -10 -8 -17 -16 -22 -25 -7 -14 -6 -28 3 -47 7 -14 8 -27 3 -34 -2 -2
-12 -7 -22 -10 -17 -6 -21 -7 -26 -6 -3 0 -4 23 -1 25 2 1 -1 15 -5 24 -2 5
-10 12 -21 19 -9 7 -19 14 -21 16 -2 2 -10 7 -18 11 -21 11 -26 20 -17 29 5 5
7 5 23 1 18 -5 34 -2 37 7 3 10 2 22 -2 30 -18 29 -54 61 -93 84 -17 9 -53 24
-59 24 -2 0 -4 1 -4 2 0 2 -1 2 -1 1 -1 0 -3 0 -4 1 -6 5 -63 18 -100 23 -33
4 -43 5 -83 6 -35 1 -39 1 -51 -3 -29 -8 -39 -19 -39 -40 0 -14 1 -15 24 -41
10 -12 23 -27 29 -34 5 -6 10 -13 12 -15 1 -2 7 -10 12 -18 6 -8 11 -15 11
-16 2 -2 24 -37 34 -53 22 -40 43 -87 54 -122 4 -13 14 -27 20 -28 2 0 4 -1 5
-1 2 -1 12 -4 28 -7 3 -1 9 -7 14 -14 15 -21 34 -27 71 -21 24 3 58 19 55 24
-1 1 0 2 1 2 3 0 6 20 5 37 -2 27 2 33 29 33 9 0 21 2 25 3 9 3 15 2 15 -2 1
-7 0 -20 -2 -22 -1 -1 -4 -8 -7 -15 -5 -13 -13 -29 -36 -79 -6 -13 -14 -32
-18 -41 -4 -9 -12 -26 -17 -38 -13 -27 -12 -37 5 -61 11 -16 15 -55 6 -64 -6
-6 -14 -6 -31 0 -14 6 -29 6 -37 0 -2 -1 -10 -14 -17 -28 -17 -34 -28 -52 -49
-83 -7 -11 -10 -16 -10 -23 -1 -17 7 -29 21 -34 13 -4 37 -2 44 4 2 1 6 4 11
6 32 13 40 -22 10 -41 -9 -6 -29 -24 -29 -27 0 -1 -3 -6 -8 -11 -8 -9 -16 -12
-28 -10 -10 2 -13 8 -17 27 -6 36 -13 40 -60 41 -3 0 -10 5 -16 12 -22 21 -34
24 -54 11 -24 -14 -35 -47 -24 -69 7 -14 20 -23 32 -22 8 1 24 8 27 12 3 4 16
10 22 10 10 0 15 -6 21 -25 3 -9 8 -22 11 -29 20 -41 27 -78 28 -155 0 -19 -1
-47 -2 -64 -2 -35 -8 -94 -11 -107 0 -3 -1 -9 -2 -14 -1 -5 -4 -22 -7 -39 -6
-32 -6 -50 -1 -64 7 -20 22 -48 30 -56 2 -2 3 -4 3 -5 1 -1 7 -2 16 -2 15 -1
16 -1 25 8 16 13 22 10 31 -14 7 -20 12 -28 23 -35 8 -6 30 -14 33 -12 0 0 7
1 14 2 41 4 90 30 123 65 18 18 20 26 13 56 -2 11 1 16 17 25 26 14 31 29 31
87 0 79 -15 145 -52 222 -13 27 -28 61 -28 65 0 1 -1 3 -2 4 -2 2 -10 29 -11
41 -5 27 0 84 11 137 2 10 4 21 5 24 0 3 7 33 14 65 7 32 14 62 14 65 1 3 2 6
2 7 1 1 3 10 5 20 6 25 11 49 21 88 6 23 4 36 -6 44 -6 4 -20 5 -28 2 -6 -2
-19 1 -23 6 -6 7 -5 23 1 29 8 8 22 7 33 -2 9 -7 9 -7 22 -7 15 2 18 3 22 13
2 5 12 46 15 59 1 4 17 68 22 88 1 2 4 14 7 27 3 13 7 25 7 27 1 2 4 13 7 26
3 13 13 49 21 80 9 31 16 60 17 63 6 19 12 44 12 49 0 5 1 6 1 3 1 -3 3 -5 5
-6 2 -1 4 -2 3 -3 -1 -1 0 -2 1 -3 1 -1 2 -27 2 -75 0 -75 0 -80 8 -89 6 -6
27 -11 34 -7 7 4 24 3 31 -1 11 -5 15 -24 9 -39 -3 -6 -13 -13 -29 -18 -4 -1
-9 -3 -10 -4 -1 -1 -5 -2 -8 -3 -3 -1 -11 -6 -17 -13 -17 -17 -18 -20 -18 -94
l0 -61 5 -10 c5 -11 14 -18 33 -27 15 -6 17 -12 11 -38 -2 -8 -4 -24 -4 -34
-1 -24 -4 -30 -21 -44 -20 -17 -24 -30 -24 -80 0 -42 2 -52 10 -60 4 -5 25
-16 29 -16 3 0 9 -9 9 -13 0 -4 -6 -13 -9 -13 0 0 -6 -2 -12 -5 -15 -7 -21
-14 -25 -24 -3 -12 -3 -41 1 -50 4 -9 14 -21 18 -21 2 0 3 -1 3 -2 0 -2 2 -2
38 -3 46 -1 86 4 122 13 9 3 12 10 12 28 0 13 -1 18 -3 20 -4 3 -4 6 0 11 4 6
10 5 18 -2 7 -6 10 -13 5 -10 -2 1 -2 1 -1 -1 2 -2 8 -2 20 -2 15 0 18 1 28 7
5 3 10 7 11 8 0 0 1 1 2 1 5 0 18 16 20 25 3 13 2 38 -1 42 -3 3 -3 3 1 3 2 0
6 2 8 6 l5 5 53 0 c28 0 52 -1 52 -2 0 -2 17 -9 23 -9 4 0 7 -1 7 -2 1 -1 5
-2 10 -2 4 -1 8 -2 8 -3 0 -1 1 0 2 2 6 9 24 0 24 -12 0 -12 -18 -21 -24 -11
-1 1 -2 2 -2 1 0 -1 -2 -2 -4 -2 -20 -2 -29 -7 -32 -20 -3 -14 -3 -102 1 -113
6 -16 20 -25 43 -27 22 -2 21 -27 -1 -27 -10 0 -30 -6 -35 -11 -8 -7 -10 -21
-10 -60 l0 -36 -6 -5 c-4 -4 -8 -5 -18 -6 -7 0 -16 -1 -20 -1 -4 0 -24 -1 -44
-2 -20 -1 -38 -2 -40 -2 -2 0 -19 -1 -39 -2 -39 -1 -51 -4 -65 -13 -19 -11
-24 -26 -17 -43 4 -9 18 -14 42 -15 9 0 15 -8 15 -20 0 -22 -19 -27 -41 -12
-15 10 -20 11 -53 10 -13 -1 -23 4 -25 10 -3 9 -6 10 -24 10 l-17 0 -3 -9 c-4
-11 -7 -14 -42 -38 l-10 -7 -25 1 c-27 0 -33 -2 -41 -11 -5 -6 -9 -19 -9 -30
0 -13 35 -110 46 -129 5 -8 11 -18 13 -22 4 -6 6 -15 8 -30 6 -37 16 -51 40
-51 10 0 20 6 35 21 4 5 13 11 18 14 9 4 108 35 180 56 9 3 19 6 21 7 2 1 20
6 39 12 19 6 39 12 44 14 5 3 11 5 14 7 11 4 18 13 18 22 0 12 -4 23 -8 24 -2
1 -4 2 -4 3 0 1 -1 2 -2 2 -2 0 -12 7 -17 11 -5 4 -24 44 -27 54 -6 27 16 46
42 36 9 -4 16 -17 19 -38 3 -16 12 -31 23 -36 12 -5 28 -16 37 -25 18 -18 31
-22 48 -15 4 1 17 6 29 9 47 15 52 18 52 37 1 16 -1 18 -19 27 -17 8 -20 13
-20 28 0 19 8 27 27 27 13 0 21 -4 24 -13 10 -23 17 -34 31 -45 15 -12 30 -10
54 8 l8 5 20 -3 c21 -3 26 -3 40 2 4 2 9 4 11 4 4 1 31 11 37 13 2 1 12 4 22
8 29 11 37 14 49 22 20 14 26 16 38 16 17 0 22 -5 24 -21 0 -9 -1 -14 -5 -25
-6 -17 -9 -32 -8 -38 0 -3 3 -18 7 -33 7 -36 11 -60 16 -96 6 -44 12 -58 38
-76 27 -20 63 -36 78 -34 10 1 20 6 27 12 13 12 20 13 39 7 27 -9 37 -5 64 21
30 30 49 68 58 110 5 27 5 36 -1 58 -3 10 -5 25 -6 33 -1 19 -5 30 -18 43 -10
11 -11 16 -6 34 9 30 -3 45 -36 45 -21 0 -26 10 -16 29 3 6 7 12 8 15 2 3 3
10 3 15 0 10 -1 12 -17 35 -19 26 -56 64 -97 101 l-17 15 -13 0 c-13 -1 -14
-2 -21 -9 -4 -4 -7 -9 -7 -11 0 -2 -1 -5 -1 -6 0 -2 -1 -4 -2 -5 -8 -10 -7
-10 -27 -5 -16 3 -19 5 -44 31 -30 30 -33 35 -27 54 2 6 3 13 3 15 0 1 1 7 3
11 3 7 5 23 5 48 0 10 7 17 17 17 8 0 19 -5 19 -9 0 -2 5 -3 18 -3 19 0 19 0
29 13 2 2 6 5 9 5 5 0 12 -7 12 -12 0 -7 7 -21 14 -27 10 -8 23 -7 50 6 31 15
46 27 56 46 l7 14 1 99 c0 66 -1 99 -2 101 -1 1 -2 4 -2 6 0 4 -17 21 -21 21
-4 0 -17 13 -17 18 0 5 2 8 16 20 10 8 15 21 17 40 1 5 3 15 5 22 3 11 3 30 4
144 l1 131 5 7 c3 4 6 7 8 8 2 0 8 3 14 5 20 11 27 30 26 77 0 21 -3 26 -29
46 -13 9 -36 27 -52 39 -15 12 -34 26 -42 32 -7 5 -14 11 -16 12 -5 5 -51 39
-61 46 -9 6 -12 7 -21 7 -19 0 -20 -1 -60 -45 -8 -9 -16 -18 -19 -21 -2 -3
-10 -12 -18 -20 -7 -8 -16 -18 -19 -21 -4 -4 -8 -8 -8 -10 -5 -6 -19 -11 -40
-13 -33 -2 -43 -12 -46 -45 -2 -12 -10 -20 -23 -20 -13 0 -21 8 -23 20 0 4 -1
11 -2 14 -1 3 -2 12 -4 19 -2 7 -4 15 -5 18 -1 4 -2 62 -2 160 l0 155 -5 0
c-2 0 -10 2 -17 4 -7 3 -16 6 -19 7 -3 1 -9 4 -15 8 -8 5 -21 10 -24 10 -1 0
-5 1 -10 3 -5 2 -10 3 -13 3 -12 0 -17 19 -8 28 5 4 16 6 23 2 10 -5 28 -6 45
-2 16 4 23 4 34 -1 6 -2 9 -12 11 -32 1 -11 2 -20 3 -21 2 -2 23 0 30 3 9 3
12 9 19 37 3 14 3 15 0 27 -5 20 -15 28 -35 29 -5 0 -11 1 -14 1 -2 1 -16 2
-30 3 -14 1 -65 6 -113 10 -101 9 -106 10 -110 8z m191 -319 c3 -5 3 -5 0 -10
-2 -3 -5 -5 -7 -5 -2 0 -5 2 -7 5 -3 5 -3 5 0 10 2 3 5 5 7 5 2 0 5 -2 7 -5z
m-64 -29 c10 -9 10 -25 1 -35 -8 -8 -24 -8 -32 1 -12 11 -6 36 9 38 8 2 18 0
22 -4z m-122 -90 c6 -5 7 -18 2 -22 -2 -1 -3 -5 -3 -8 0 -3 -1 -6 -2 -6 -1 0
-1 -3 -1 -7 l1 -8 -2 8 c-1 4 -3 7 -4 7 -1 0 -5 3 -9 7 -6 7 -7 9 -7 17 0 8 1
11 4 13 5 4 16 4 21 -1z m-406 -23 c12 -12 3 -31 -13 -31 -11 0 -18 7 -18 18
0 11 7 18 18 18 6 0 9 -1 13 -5z m496 -3 c7 -6 7 -19 1 -25 -6 -6 -16 -7 -24
-2 -8 5 -9 19 -2 26 6 7 19 7 25 1z m498 -15 c4 -4 5 -7 5 -15 0 -14 -6 -20
-20 -20 -14 0 -20 6 -20 20 0 14 6 20 20 20 8 0 11 -1 15 -5z m-906 -8 c3 -5
3 -5 0 -10 -2 -3 -5 -5 -7 -5 -2 0 -5 2 -7 5 -3 5 -3 5 0 10 2 3 5 5 7 5 2 0
5 -2 7 -5z m330 -13 c15 -10 17 -13 17 -26 0 -11 -1 -13 -6 -18 -5 -5 -7 -6
-17 -6 -10 0 -12 1 -17 6 -9 8 -8 23 0 36 3 5 6 10 6 11 0 5 6 3 17 -3z m452
-10 c5 -5 6 -10 5 -23 0 -3 -7 -12 -17 -22 -9 -10 -17 -18 -17 -19 0 -3 -15
-10 -21 -10 -8 1 -29 -5 -35 -10 -11 -9 -12 -23 -5 -48 6 -21 6 -31 0 -53 -5
-17 -5 -18 -5 -82 1 -72 1 -72 18 -91 10 -11 9 -10 19 -24 6 -11 17 -18 20
-15 0 1 8 1 17 2 16 0 17 -1 22 -6 8 -8 9 -20 3 -32 -4 -9 -3 -35 2 -45 8 -15
1 -30 -14 -30 -11 0 -17 6 -17 17 0 4 1 9 2 10 3 6 -2 30 -10 47 -9 18 -11 19
-31 18 -14 -1 -15 -2 -20 -15 -9 -21 -11 -31 -11 -60 0 -30 1 -36 12 -56 13
-24 9 -41 -9 -41 -8 0 -10 1 -24 15 -19 19 -25 21 -65 21 l-29 -1 -6 6 -6 6 1
28 c0 29 -1 40 -8 49 -6 8 -21 15 -35 17 -17 3 -24 11 -24 28 0 17 7 25 24 28
14 2 29 9 35 17 8 11 8 14 8 161 l-1 140 6 6 6 6 57 -1 56 0 11 5 c5 3 10 7
11 7 1 1 3 2 6 4 5 3 19 21 26 35 10 19 30 24 43 11z m-714 -34 c17 -16 35
-23 47 -18 3 1 12 2 20 3 14 1 17 1 36 -6 20 -7 22 -7 46 -7 l25 1 6 -6 c5 -5
6 -8 6 -16 0 -20 11 -33 35 -41 15 -6 18 -10 18 -23 0 -13 -3 -17 -18 -23 -15
-5 -26 -14 -31 -23 -4 -8 -4 -14 -5 -106 0 -123 -2 -116 35 -134 18 -9 25 -15
34 -30 7 -10 7 -24 0 -30 -6 -7 -22 -7 -27 -2 -3 3 -5 4 -16 3 -18 -2 -21 -4
-24 -18 -1 -6 -2 -16 -2 -21 1 -9 0 -11 -5 -16 l-6 -6 -52 0 -52 0 -6 6 -6 6
1 71 c0 67 0 72 -4 80 -4 10 -13 20 -25 29 -5 4 -9 10 -12 16 -3 7 -7 12 -10
14 -7 3 -33 4 -33 1 0 -4 -12 -8 -24 -9 -23 -2 -38 -7 -41 -13 -4 -9 -4 -22 2
-36 6 -16 6 -25 0 -31 -3 -3 -6 -5 -8 -5 -2 0 -6 -1 -9 -1 -7 -1 -10 3 -23 31
-3 7 -6 13 -8 14 -22 23 -20 50 4 61 5 3 11 5 13 5 8 0 31 11 45 20 13 10 16
11 25 11 6 0 14 -2 17 -4 13 -6 35 -3 46 7 2 3 10 9 18 13 32 22 33 49 1 71
-15 10 -16 13 -22 33 -6 23 -7 25 -15 28 -8 3 -25 4 -25 1 0 -1 -1 -2 -2 -1
-1 1 -4 -1 -8 -4 -11 -10 -29 -10 -36 -1 -5 6 -5 24 0 30 6 7 28 9 32 2 1 -1
8 -3 15 -4 16 -2 28 2 30 10 4 17 -3 31 -19 41 -14 7 -18 12 -18 21 0 10 6 16
16 16 7 0 10 -2 19 -10z m-650 -19 c12 -12 3 -31 -13 -31 -11 0 -18 7 -18 18
0 11 7 18 18 18 6 0 9 -1 13 -5z m482 -8 c3 -5 3 -5 0 -10 -2 -3 -5 -5 -7 -5
-2 0 -5 2 -7 5 -3 5 -3 5 0 10 2 3 5 5 7 5 2 0 5 -2 7 -5z m984 -26 c12 -12 3
-31 -13 -31 -11 0 -18 7 -18 18 0 11 7 18 18 18 6 0 9 -1 13 -5z m-1546 -25
c6 -8 5 -23 -2 -29 -7 -7 -19 -7 -26 0 -7 7 -6 23 2 30 8 7 21 7 26 -1z m145
-2 c5 -5 5 -8 0 -14 -6 -9 -20 -5 -20 6 0 10 13 15 20 8z m1325 -27 c4 -4 5
-7 5 -15 0 -14 -6 -20 -20 -20 -14 0 -20 6 -20 20 0 14 6 20 20 20 8 0 11 -1
15 -5z m141 -71 c5 -5 5 -11 0 -16 -10 -10 -27 5 -16 16 4 4 12 4 16 0z
m-1483 -23 c12 -7 14 -33 3 -43 -8 -9 -32 -9 -40 0 -9 8 -9 32 0 41 7 7 27 8
37 2z m1322 -6 c15 -10 20 -11 47 -10 23 1 24 1 29 -4 6 -4 6 -6 6 -20 0 -14
0 -16 -6 -20 -4 -4 -7 -5 -18 -5 -12 0 -16 2 -26 10 -7 7 -24 10 -50 8 -13 -1
-15 0 -21 6 -5 5 -6 7 -6 17 0 14 3 20 12 24 10 4 22 2 33 -6z m-408 -75 c11
-10 3 -28 -11 -28 -9 0 -16 6 -16 16 0 14 17 22 27 12z m-428 -153 c4 -5 4
-17 -1 -22 -10 -11 -28 -3 -28 11 0 8 1 10 7 14 6 4 17 3 22 -3z m834 -109
c11 -10 3 -28 -11 -28 -9 0 -16 6 -16 16 0 14 17 22 27 12z m-358 -20 c12 -3
17 -10 17 -23 0 -17 -7 -23 -25 -21 -14 1 -21 9 -22 25 -1 9 -1 11 3 14 8 7
14 8 27 5z m470 -17 c6 -2 14 -6 18 -9 15 -14 13 -47 -3 -54 -13 -5 -30 -3
-43 5 -18 10 -24 18 -24 34 0 26 17 33 52 24z m-815 -53 c7 -8 2 -22 -8 -22
-8 0 -26 -6 -39 -12 -16 -9 -22 -10 -31 -8 -10 3 -14 9 -14 21 0 17 11 25 29
20 9 -2 34 0 44 3 10 3 15 2 19 -2z m599 -13 c6 -6 6 -6 5 -23 -1 -15 -2 -18
-7 -24 -3 -3 -5 -5 -5 -4 0 3 -11 6 -21 6 -23 0 -36 -12 -37 -36 -1 -18 7 -26
26 -26 12 0 14 1 22 6 5 4 10 8 10 9 2 3 9 -2 12 -9 2 -4 2 -13 2 -31 -1 -23
-2 -24 -10 -40 -13 -27 -13 -28 8 -80 23 -57 25 -54 -29 -58 -32 -3 -60 -6
-78 -9 -7 -1 -8 -1 -13 5 l-6 7 0 54 c0 50 0 55 -4 62 -5 9 -13 14 -25 15 -4
0 -9 1 -9 2 -1 1 -2 1 -2 -1 0 -2 -1 -5 -3 -6 -5 -4 -11 -26 -11 -39 0 -15 -5
-21 -19 -21 -20 0 -26 18 -12 37 8 12 12 26 10 34 -1 3 -2 7 -1 7 0 2 -30 12
-37 13 -8 1 -25 9 -25 12 0 3 0 3 -18 0 -9 -2 -12 -3 -17 -9 -11 -14 -28 -18
-36 -10 -9 8 -6 23 9 45 10 15 16 19 29 19 9 0 10 -1 17 -8 15 -17 17 -19 18
-22 1 -5 6 -8 14 -8 4 0 8 -1 9 -2 3 -4 43 3 50 8 2 1 8 2 13 2 23 -1 40 6 46
18 4 7 4 11 4 53 l-1 46 6 6 6 6 52 0 52 0 6 -6z m-185 -72 l-5 -5 -4 4 -5 5
4 4 5 5 4 -4 5 -5 -4 -4z m-948 -107 c1 0 5 -3 8 -6 5 -5 6 -7 6 -18 0 -16 -5
-22 -20 -24 -19 -2 -28 5 -28 24 0 13 3 19 12 23 5 2 8 2 22 1z m1336 -61 c12
-4 16 -9 16 -20 0 -15 -18 -23 -30 -13 -7 5 -9 23 -3 30 5 7 4 7 17 3z m-1304
-42 l-5 -5 -4 4 -5 5 4 4 5 5 4 -4 5 -5 -4 -4z m896 -36 c21 -9 20 -45 -2 -54
-10 -5 -28 -1 -34 6 -9 10 -9 32 0 42 7 8 24 11 36 6z m-951 -30 c3 -3 3 -3 0
-6 -4 -5 -11 1 -7 6 4 4 4 4 7 0z m1167 -27 c5 -5 5 -11 0 -16 -10 -10 -27 5
-16 16 4 4 12 4 16 0z m275 -27 c3 -2 4 -4 4 -5 -1 -1 0 -2 1 -3 3 -2 -8 -55
-13 -62 -6 -7 -20 -4 -20 4 -1 11 -4 34 -4 35 -1 1 -1 7 -1 14 0 10 0 13 4 17
7 8 21 8 29 0z m-1329 -37 c5 -5 5 -15 0 -20 -9 -9 -24 -2 -24 10 0 8 6 14 14
14 3 0 8 -2 10 -4z m-112 -57 c6 -7 19 -34 23 -50 3 -8 3 -10 0 -14 -3 -5 -4
-5 -13 -4 -19 3 -27 8 -29 21 -1 2 -3 10 -5 16 -5 15 -5 24 0 29 6 6 20 7 24
2z m411 -15 c6 -6 4 -20 -5 -41 -2 -5 -4 -11 -5 -14 -4 -17 -36 -22 -49 -8 -9
10 -9 32 0 42 5 6 43 24 54 25 0 0 3 -2 5 -4z m1003 -16 c5 -6 5 -12 0 -18 -7
-8 -22 -2 -22 9 0 11 15 17 22 9z m-1449 -40 c7 -4 8 -5 8 -10 0 -3 -2 -8 -5
-11 -2 -2 -4 -5 -4 -6 0 -2 -22 -21 -28 -25 -18 -11 -33 4 -23 22 7 11 24 27
32 30 10 5 10 5 20 0z"/>
<path d="M269 3808 c-5 -2 -9 -7 -11 -12 -2 -8 -1 -25 1 -27 4 -3 7 -18 6 -25
-1 -3 -4 -10 -6 -15 -5 -9 -5 -14 -5 -26 0 -23 0 -32 0 -51 -1 -21 1 -26 18
-39 7 -6 13 -13 15 -19 6 -13 5 -12 30 -47 2 -3 5 -7 6 -8 1 -2 9 -13 17 -26
27 -43 46 -51 82 -32 8 5 14 6 25 5 2 0 11 -7 19 -15 8 -8 16 -15 16 -15 1 0
7 -2 13 -5 6 -3 12 -5 13 -5 7 0 13 -6 18 -17 9 -20 17 -27 33 -27 15 0 24 7
32 25 4 8 7 17 8 20 2 9 6 13 23 23 8 5 17 12 19 15 11 15 19 51 19 82 -1 18
-2 22 -9 30 -3 3 -4 8 -4 11 -1 36 -25 73 -73 115 -17 14 -59 39 -83 48 -3 2
-12 5 -19 8 -43 16 -65 17 -73 1 -2 -5 -4 -14 -5 -26 -1 -15 -2 -22 -7 -33 -4
-8 -9 -21 -12 -29 -3 -9 -7 -17 -9 -19 -2 -2 -8 -8 -12 -12 -5 -5 -12 -14 -15
-19 -10 -19 -22 -25 -30 -16 -4 5 -4 12 3 25 6 13 11 29 14 43 1 5 4 16 7 24
3 8 6 16 6 18 4 14 8 27 9 29 3 3 2 22 -2 29 -5 11 -13 14 -45 15 -16 1 -30 0
-32 -1z m344 -204 c6 -6 5 -21 -2 -28 -6 -6 -22 -6 -28 1 -7 6 -7 21 -1 28 7
8 22 7 31 -1z"/>
<path d="M173 3786 c-1 -1 -4 -2 -8 -3 -4 -1 -7 -2 -7 -3 0 -1 -2 -2 -4 -3 -2
-1 -4 -3 -4 -4 0 -2 -1 -3 -2 -3 -2 0 -3 -8 -1 -15 1 -4 3 -4 17 -3 12 0 16 1
16 3 0 2 3 6 7 10 4 4 7 7 5 7 -1 0 -2 2 -2 4 0 4 -5 9 -8 7 -2 -1 -2 -1 -1 0
0 2 -1 3 -3 4 -2 0 -4 0 -5 -1z"/>
<path d="M425 3442 c-2 -1 -8 -3 -13 -5 l-9 -3 1 -15 c1 -17 1 -17 16 -25 13
-6 22 -6 34 0 7 4 7 5 7 16 0 7 -1 12 -1 12 -1 0 -2 1 -2 3 0 4 -29 19 -33 17z"/>
</g>
</svg>
