<?xml version="1.0" standalone="no"?>
<!DOCTYPE svg PUBLIC "-//W3C//DTD SVG 20010904//EN"
 "http://www.w3.org/TR/2001/REC-SVG-20010904/DTD/svg10.dtd">
<svg version="1.0" xmlns="http://www.w3.org/2000/svg"
 width="1107.000000pt" height="2870.000000pt" viewBox="0 0 1107.000000 2870.000000"
 preserveAspectRatio="xMidYMid meet">
<metadata>
Created by potrace 1.15, written by Peter Selinger 2001-2017
</metadata>
<g transform="translate(0.000000,2870.000000) scale(0.500000,-0.500000)"
fill="#000000" stroke="none">
<path d="M1151 3821 c-4 -1 -12 -7 -20 -12 -12 -9 -13 -10 -14 -20 -1 -15 -1
-19 1 -19 1 0 2 -1 2 -2 -1 0 3 -5 8 -10 14 -15 9 -32 -9 -32 -8 0 -15 7 -19
21 -5 14 -7 15 -24 15 -9 0 -16 -1 -16 -1 0 -2 -40 -27 -52 -34 -2 -1 -5 -3
-6 -4 -2 -2 -9 -6 -17 -10 -8 -4 -15 -9 -17 -10 -2 -2 -4 -3 -5 -3 -1 0 -7 -3
-14 -7 -6 -4 -15 -9 -19 -11 -13 -8 -20 -17 -29 -35 -11 -22 -13 -24 -31 -22
-26 3 -44 2 -53 -3 -4 -2 -8 -4 -10 -4 -3 0 -7 -7 -5 -9 0 -1 0 -1 -1 0 -3 1
-4 -1 -3 -5 0 -4 -16 -8 -34 -9 -23 -2 -32 1 -42 9 -10 10 -44 38 -66 55 -13
10 -13 10 -25 9 -15 -1 -20 -5 -28 -22 -7 -14 -18 -24 -37 -35 -17 -10 -24
-16 -29 -25 -4 -8 -8 -23 -9 -31 0 -10 -10 -18 -22 -18 -6 0 -11 2 -15 4 -5 5
-13 16 -13 20 0 3 -10 13 -14 14 -2 0 -4 1 -6 2 -9 4 -26 2 -67 -8 -26 -6 -31
-6 -52 1 l-18 6 -101 0 c-63 0 -104 -1 -108 -2 -10 -3 -20 -11 -24 -20 -1 -4
-4 -9 -6 -12 -2 -3 -4 -9 -6 -14 -3 -11 -9 -20 -22 -34 -2 -2 -3 -4 -2 -4 1 0
1 -4 1 -10 -2 -12 1 -20 9 -25 8 -4 31 -4 51 1 21 6 34 6 56 0 9 -2 21 -4 25
-4 6 1 8 0 13 -5 l6 -6 0 -191 0 -191 -6 -6 -6 -6 -25 1 c-26 0 -40 -2 -52
-10 -4 -3 -11 -7 -16 -9 -8 -4 -8 -4 -17 0 -4 2 -11 6 -14 9 -5 3 -9 4 -18 4
-12 -1 -17 -4 -21 -16 -4 -14 -4 -16 9 -58 3 -9 36 -15 47 -9 5 3 6 3 13 -1 4
-2 7 -6 8 -8 2 -7 15 -18 25 -22 7 -4 12 -4 46 -4 41 1 42 1 55 -13 7 -7 12
-11 19 -15 3 -1 7 -6 10 -10 l4 -7 -4 -4 c-4 -4 -6 -4 -12 -3 -14 3 -32 -1
-38 -8 -12 -13 -6 -27 24 -56 12 -12 24 -22 26 -23 2 -1 4 -2 4 -3 0 -1 6 -4
14 -7 30 -12 35 -18 37 -49 1 -13 2 -26 2 -29 2 -14 1 -22 -3 -26 -6 -6 -7 -6
-44 -4 -25 1 -28 1 -40 -3 -24 -8 -28 -15 -28 -54 0 -23 1 -28 4 -35 4 -8 17
-21 21 -21 1 0 4 -2 8 -5 3 -2 8 -5 10 -6 3 -1 8 -6 12 -14 10 -16 25 -32 37
-37 13 -5 16 -11 16 -26 0 -17 -7 -24 -22 -24 -14 0 -17 2 -30 21 -17 25 -23
29 -46 34 -8 1 -25 6 -37 10 -24 8 -21 8 -63 1 -13 -2 -27 -4 -33 -5 -5 -1
-15 -2 -22 -3 -7 -1 -16 -2 -21 -3 -22 -3 -35 -14 -37 -31 -1 -10 -1 -13 6
-27 4 -9 10 -22 13 -30 6 -16 17 -36 20 -41 3 -4 13 -11 17 -11 1 -1 7 -2 13
-4 6 -2 14 -3 17 -3 12 0 15 -5 16 -39 1 -17 1 -43 1 -59 0 -35 1 -40 31 -105
7 -16 15 -22 29 -23 7 -1 14 0 16 1 4 2 14 14 14 16 0 1 1 2 2 4 1 1 5 6 8 10
4 5 14 14 26 22 18 12 25 19 27 28 4 14 5 20 5 28 0 8 1 11 5 15 6 5 12 5 30
-1 27 -9 28 -9 85 29 27 18 50 34 52 35 1 2 3 3 4 3 1 0 3 1 4 3 2 1 10 6 18
12 8 5 16 11 17 11 12 10 21 16 28 20 4 3 10 7 13 9 4 4 12 9 47 34 45 31 50
39 44 75 -2 16 1 20 20 27 37 15 39 15 51 14 25 -3 26 -9 10 -42 -3 -7 -6 -14
-6 -14 0 -1 -4 -10 -9 -20 -10 -21 -11 -23 -12 -35 -3 -24 -4 -28 -15 -38 -4
-4 -10 -11 -13 -16 -6 -8 -6 -10 -5 -17 2 -7 3 -9 9 -11 9 -3 20 -4 23 -2 2 1
11 2 21 3 12 0 19 2 25 5 9 4 16 11 16 15 0 9 16 35 20 35 2 0 17 6 30 12 4 3
10 7 13 11 3 3 7 8 8 9 2 2 4 6 6 9 2 3 12 14 22 24 20 20 23 23 40 45 7 8 13
15 14 16 0 0 1 2 1 5 0 3 1 3 1 1 1 -2 2 -3 3 -4 8 -6 8 1 8 -220 0 -202 0
-210 4 -228 5 -23 5 -27 0 -50 -5 -25 -5 -54 0 -65 6 -12 15 -17 41 -21 12 -2
24 -8 30 -14 10 -11 38 -21 51 -19 40 7 53 20 55 57 1 15 4 22 11 26 7 4 27 3
31 0 5 -4 25 -3 34 3 12 8 11 -7 11 293 0 196 -1 277 -2 284 -3 10 -13 22 -21
22 -2 0 -6 1 -9 1 -5 1 -14 -2 -25 -9 -8 -5 -28 -10 -35 -9 -17 4 -23 11 -23
28 0 15 5 22 16 26 6 2 12 5 14 6 17 8 28 29 25 45 -2 10 -9 21 -15 26 -21 18
-20 17 -20 30 -1 19 1 22 20 30 3 2 7 3 9 3 4 1 22 13 22 15 0 1 5 6 10 10 23
18 45 2 38 -28 -1 -4 -2 -8 -3 -9 0 -2 -1 -4 -2 -5 -1 -2 -3 -6 -4 -9 -1 -6
-8 -9 -22 -9 -7 0 -11 1 -11 3 0 1 -1 0 -2 -2 -2 -3 -3 -5 -4 -5 -3 0 -2 -14
1 -24 l4 -11 12 1 c7 1 12 1 13 1 0 0 3 2 7 6 l6 7 5 -7 c3 -5 6 -8 6 -9 1 0
2 -5 2 -10 0 -16 4 -18 24 -18 16 1 17 1 19 6 4 8 9 10 19 10 14 0 20 -6 20
-20 0 -13 -8 -22 -18 -20 -1 0 -4 -1 -8 -2 -4 -1 -8 -1 -10 0 -4 2 -18 -9 -18
-15 0 -2 -1 -6 -3 -9 -7 -9 -3 -32 7 -46 7 -9 26 -21 47 -29 19 -7 45 -8 61
-1 5 2 10 4 10 3 0 -2 17 6 21 9 6 5 16 10 23 11 3 0 6 1 7 2 5 2 24 2 30 0 8
-4 11 -8 18 -23 6 -14 17 -28 31 -37 10 -7 12 -10 12 -23 0 -15 -8 -22 -24
-20 -10 1 -13 3 -21 16 -10 16 -18 22 -35 30 -6 3 -11 6 -12 6 0 1 -6 0 -13
-1 -26 -5 -27 -7 -27 -69 0 -39 1 -49 3 -55 4 -9 14 -21 18 -21 2 0 3 -1 3 -2
0 -4 52 -4 76 1 62 12 126 47 140 77 6 14 7 17 7 54 1 36 -1 48 -9 58 -9 13
-9 35 0 48 9 12 10 19 10 92 l-1 69 -6 10 c-5 8 -9 11 -24 19 -20 11 -24 15
-24 31 0 16 4 20 24 31 25 13 30 20 31 51 0 24 -1 31 -11 40 -5 5 -27 11 -33
9 -6 -3 -20 0 -25 5 -10 9 -10 33 0 42 5 5 19 8 25 5 6 -2 28 4 33 9 11 10 11
15 10 53 -1 42 -1 59 0 119 2 63 1 65 -27 80 -13 6 -17 10 -19 14 -3 9 1 15
13 21 16 8 19 12 19 28 0 8 0 14 -1 14 -3 0 -9 17 -9 26 1 9 8 26 16 36 5 6 9
24 9 39 0 16 4 28 12 37 6 6 8 5 13 -7 4 -9 6 -89 5 -144 -1 -25 -1 -27 3 -32
4 -6 5 -6 19 -5 l14 0 0 -12 0 -12 -14 0 c-14 1 -15 1 -19 -5 -3 -4 -4 -8 -4
-23 0 -23 2 -26 23 -25 8 0 14 -1 15 -2 0 -1 2 4 4 10 3 11 3 13 1 26 -1 8 -3
21 -3 30 -1 15 -1 16 4 20 4 2 9 4 15 4 19 0 27 -16 20 -37 -5 -14 -5 -37 1
-48 5 -12 5 -33 0 -41 -1 -2 -9 -8 -16 -12 -18 -10 -34 -26 -38 -38 -1 -5 -6
-14 -9 -19 -3 -6 -8 -16 -11 -22 l-6 -13 -1 -95 c0 -99 0 -106 9 -120 8 -13
13 -26 13 -32 0 -6 -9 -27 -14 -33 -8 -9 -8 -14 -8 -280 l0 -257 -6 -6 c-3 -3
-6 -5 -7 -5 -1 0 -11 -1 -23 -2 -11 0 -43 -3 -70 -6 -27 -3 -56 -5 -64 -6 -25
-2 -44 -10 -60 -25 l-11 -9 1 -15 0 -15 10 -6 c5 -2 14 -6 19 -7 19 -5 42 -12
54 -17 7 -3 21 -6 31 -8 29 -5 43 -10 58 -21 11 -7 11 -7 15 -32 5 -36 5 -38
-1 -60 -7 -23 -7 -35 -4 -68 2 -27 7 -35 23 -45 16 -8 30 -5 69 16 8 5 11 5
21 4 32 -3 37 -3 39 -3 2 1 4 1 5 1 4 0 9 13 9 26 0 12 -1 14 -5 19 -3 3 -6
10 -7 14 -3 12 -4 30 -1 30 0 0 1 1 0 2 -4 7 23 -2 35 -11 4 -4 10 -21 10 -29
0 -2 3 -6 7 -9 9 -8 27 -6 41 5 44 32 65 68 56 96 -13 40 -11 55 8 66 11 7 21
18 25 27 2 4 4 9 5 11 2 4 3 157 1 160 -2 3 -2 4 -3 9 0 2 -1 3 -3 3 -2 0 -3
1 -3 2 0 3 -10 7 -19 9 -4 1 -9 2 -9 4 -1 1 -2 1 -2 -1 0 -6 -9 -5 -13 1 -3 5
-3 6 -1 11 4 6 14 8 14 3 0 -3 1 -3 2 -2 0 2 5 3 9 4 9 2 19 6 19 9 0 1 1 2 3
2 2 0 3 1 3 3 1 4 1 5 3 9 0 2 1 81 1 177 -1 194 0 181 -15 197 -13 15 -13 25
0 40 14 15 14 17 15 79 0 62 1 56 -13 91 -2 7 -7 20 -10 28 l-6 15 -7 0 c-11
-1 -26 11 -26 21 0 9 13 26 20 26 6 0 24 8 31 13 10 9 11 14 11 81 0 66 -1 74
-13 86 -16 18 -19 30 -10 43 3 4 6 8 7 9 1 1 4 5 7 9 7 11 7 24 -1 40 -8 17
-18 39 -18 40 0 1 -8 13 -12 17 -13 14 -17 27 -14 41 3 10 6 14 20 21 15 7 27
19 30 28 2 5 3 32 4 92 l1 85 6 8 c3 4 5 7 5 6 0 -4 14 6 29 20 17 17 33 50
29 63 -1 4 -3 9 -3 10 -2 10 -21 24 -33 24 -18 1 -29 -6 -43 -26 -10 -16 -13
-19 -25 -19 -8 0 -11 1 -16 6 -3 3 -6 7 -6 8 0 5 -10 25 -15 30 -8 9 -21 14
-38 16 -8 0 -23 2 -33 3 -73 8 -104 10 -112 8 -11 -3 -20 -10 -25 -19 -4 -8
-4 -11 -5 -117 l0 -109 -6 -6 c-4 -5 -6 -6 -10 -5 -3 1 -36 5 -74 8 -38 3 -73
7 -77 8 -8 2 -23 11 -23 14 1 5 -1 8 -7 14 -4 4 -11 10 -15 14 -27 26 -39 31
-60 25 -21 -6 -26 -6 -32 0 -4 4 -4 6 -3 12 3 17 2 25 -1 33 -5 11 -11 12 -44
9 -14 -1 -16 -1 -21 4 l-6 5 1 26 c0 37 1 36 -31 65 -24 22 -38 27 -54 20z
m591 -54 c11 -7 29 -25 32 -32 5 -9 5 -9 0 -15 -4 -4 -4 -4 -18 -1 -16 4 -27
4 -42 2 -15 -2 -19 1 -17 13 3 27 28 45 45 33z m-493 -138 c3 -3 3 -3 0 -6 -4
-5 -11 1 -7 6 4 4 4 4 7 0z m580 -6 c3 -3 3 -3 0 -6 -4 -5 -11 1 -7 6 4 4 4 4
7 0z m-490 -43 c5 -5 5 -7 5 -17 0 -7 -1 -17 -3 -23 -3 -12 -3 -21 0 -31 1 -3
2 -7 2 -8 0 -2 0 -2 1 -2 1 1 2 0 2 -1 0 -1 6 -1 15 -1 l15 2 0 -12 0 -12 -15
2 c-9 0 -15 0 -15 -1 0 -1 -1 -2 -2 -1 -1 0 -1 0 -1 -2 0 -1 -1 -5 -2 -8 -2
-8 -3 -29 -1 -33 4 -7 7 -15 6 -17 0 -1 1 -1 3 0 1 1 8 2 15 1 11 0 12 -1 12
-5 0 -4 -1 -4 -13 -4 -7 1 -14 1 -15 2 -1 1 -2 1 -2 0 1 -2 -2 -10 -6 -17 -1
-2 -2 -34 -2 -71 0 -53 -1 -69 -3 -74 -5 -12 -7 -13 -15 -5 -4 4 -19 16 -33
26 -14 10 -27 20 -29 22 -9 9 -14 11 -26 12 -16 0 -23 -4 -33 -19 -4 -7 -8
-12 -9 -13 -2 -2 -12 -18 -12 -20 0 -3 -5 2 -9 9 -3 6 -3 20 -3 133 l0 125 6
7 c3 4 7 8 9 8 2 0 12 1 21 3 9 2 20 4 23 4 35 6 52 12 64 25 22 23 23 24 37
22 4 0 9 -2 13 -6z m-525 -4 c14 -4 19 -7 22 -14 4 -9 3 -25 -1 -31 -6 -9 -2
-30 8 -37 4 -4 31 -5 39 -2 4 1 6 0 10 -5 l6 -6 0 -49 c0 -46 0 -50 4 -60 l4
-10 16 0 c14 -1 16 -1 17 2 3 8 19 22 25 22 7 0 14 -6 14 -13 0 -5 -7 -23 -10
-25 -3 -2 -8 -17 -12 -31 -4 -16 -10 -25 -17 -25 -4 0 -22 -9 -28 -15 -11 -10
-13 -21 -13 -51 l1 -27 -6 -6 -6 -6 -67 0 c-79 0 -77 1 -78 -22 0 -8 -1 -15
-3 -15 -1 -1 0 -2 2 -2 10 0 15 -26 8 -40 -2 -5 -3 -9 -2 -17 2 -14 3 -16 10
-21 6 -5 8 -5 48 -6 l43 0 5 -6 c3 -3 6 -9 6 -13 1 -5 2 -8 3 -9 1 0 2 -1 2
-3 0 -4 9 -12 23 -22 16 -10 19 -14 16 -32 -1 -11 -6 -17 -18 -22 -24 -10 -34
-17 -45 -30 -5 -6 -8 -17 -15 -49 -4 -18 -9 -40 -11 -49 -2 -9 -4 -18 -5 -20
-1 -5 -3 -13 -4 -17 0 -2 -4 -15 -8 -30 -4 -15 -13 -45 -19 -67 l-13 -40 1
-27 c0 -33 -1 -36 -18 -38 -10 0 -13 0 -27 8 -19 10 -30 12 -48 9 -8 -2 -46
-9 -84 -17 l-71 -13 -5 5 -5 5 0 117 0 117 -7 22 c-8 25 -8 25 -1 47 3 10 6
19 6 20 0 1 2 4 4 6 2 3 5 7 6 10 2 3 3 5 4 5 1 0 4 1 6 4 6 4 9 9 18 25 6 11
11 14 23 14 12 0 17 -3 23 -14 10 -19 14 -23 23 -29 l10 -6 43 -1 c49 0 59 1
76 12 18 11 31 34 31 53 0 18 -5 26 -32 55 -4 5 -8 10 -8 11 0 0 -1 2 -1 3 0
1 -2 3 -5 4 -2 2 -16 14 -30 27 -52 51 -54 52 -73 52 -7 0 -17 -1 -22 -2 -6
-1 -10 0 -19 3 -14 6 -45 5 -45 -2 0 -1 -4 -9 -9 -17 -5 -8 -9 -16 -9 -17 0
-3 -7 4 -9 9 -2 2 -3 11 -3 20 0 21 -5 34 -15 43 -4 5 -9 8 -10 8 -1 0 -6 3
-10 7 -9 8 -10 17 -1 27 4 3 8 6 10 7 2 1 4 2 4 3 0 1 1 2 3 2 4 0 12 11 16
22 3 7 3 14 2 57 0 26 -1 56 -1 66 1 10 1 28 1 41 0 22 0 23 6 29 l6 6 62 -1
62 0 10 5 c11 5 17 13 26 30 5 10 11 13 22 13 11 0 17 -3 23 -13 8 -14 12 -16
27 -17 11 -1 15 0 17 2 2 2 7 5 12 8 4 2 9 7 10 10 3 8 4 34 1 35 -6 3 -9 19
-7 32 3 13 12 24 17 22 2 0 8 -2 13 -3z m-168 -45 l-5 -5 -4 4 -5 5 4 4 5 5 4
-4 5 -5 -4 -4z m423 -20 c7 -4 9 -9 10 -22 4 -28 -4 -43 -20 -39 -28 8 -40 53
-17 63 7 3 21 2 27 -2z m346 -12 c5 -3 9 -7 9 -7 0 -1 1 -2 3 -2 2 0 3 -1 3
-2 0 -1 4 -4 10 -7 15 -8 20 -15 20 -29 0 -15 -4 -20 -22 -27 -7 -3 -19 -9
-27 -14 -7 -5 -15 -9 -17 -9 -9 -1 -11 -1 -13 2 -3 3 -4 16 -2 19 7 7 9 31 3
44 -5 12 -5 31 0 36 7 6 19 5 33 -4z m-1124 2 c5 -8 1 -16 -8 -16 -9 0 -13 8
-8 16 2 3 5 5 8 5 3 0 6 -2 8 -5z m164 -51 c4 -6 4 -24 -1 -30 -7 -9 -27 -9
-34 0 -5 6 -5 24 0 30 7 9 27 9 35 0z m1021 -82 c1 0 5 -3 8 -6 5 -5 6 -7 6
-18 0 -11 -1 -13 -6 -18 -6 -6 -7 -6 -18 -6 -11 0 -12 0 -18 6 -5 5 -6 7 -6
17 0 14 3 20 12 24 5 2 8 2 22 1z m296 -23 l-5 -5 -4 4 -5 5 4 4 5 5 4 -4 5
-5 -4 -4z m-1463 -94 c4 -4 5 -7 5 -15 0 -14 -6 -20 -20 -20 -14 0 -20 6 -20
20 0 14 6 20 20 20 8 0 11 -1 15 -5z m1516 -29 c15 -6 16 -40 1 -50 -7 -6 -16
-19 -22 -34 -7 -18 -12 -22 -22 -22 -17 0 -22 15 -13 35 8 17 11 28 12 43 1
21 6 27 22 31 5 1 14 -1 22 -3z m-361 -21 c3 -2 7 -5 9 -8 9 -12 16 -20 30
-30 16 -12 18 -17 16 -35 -1 -13 -7 -18 -24 -18 l-13 0 -17 16 c-9 8 -22 19
-28 23 -9 5 -13 9 -15 13 -4 9 -3 24 1 31 6 12 26 16 41 8z m-224 -5 c1 0 5
-3 8 -6 5 -5 6 -7 6 -18 0 -11 -1 -13 -6 -18 -6 -6 -7 -6 -18 -6 -11 0 -12 0
-18 6 -5 5 -6 7 -6 17 0 14 3 20 12 24 5 2 8 2 22 1z m-239 -10 c7 -6 7 -19 1
-25 -6 -7 -19 -7 -25 -1 -7 6 -7 19 -1 25 6 7 19 7 25 1z m-706 -55 c12 -12 3
-31 -13 -31 -11 0 -18 7 -18 18 0 11 7 18 18 18 6 0 9 -1 13 -5z m1104 -41 c6
-6 7 -17 1 -23 -5 -6 -19 -7 -21 -2 -1 1 -4 2 -7 2 -8 1 -9 1 -5 10 6 16 22
22 32 13z m291 -19 l-5 -5 -4 4 -5 5 4 4 5 5 4 -4 5 -5 -4 -4z m-1191 1 c7 -4
16 -33 13 -44 -4 -15 -10 -20 -26 -21 -19 0 -29 9 -29 28 0 14 5 21 18 28 6 3
12 7 13 9 3 2 8 3 11 0z m801 -7 c15 0 27 -1 28 -1 1 -1 5 -4 10 -7 5 -3 8 -5
7 -5 -6 0 -7 -14 -7 -110 0 -88 0 -98 -3 -102 -7 -9 -7 -9 -14 -3 -21 20 -21
20 -34 20 -14 -1 -21 -4 -31 -14 -8 -8 -16 -9 -22 -3 -4 5 -5 14 -2 18 3 3 4
24 2 32 -4 13 -9 16 -45 25 -8 2 -14 5 -19 9 -4 4 -8 8 -10 10 -2 1 -8 6 -15
10 -12 8 -16 10 -37 14 -10 2 -23 11 -20 14 7 7 11 10 19 14 7 3 12 7 14 11 2
3 3 6 3 6 -1 0 0 2 2 4 1 2 3 10 4 19 1 30 12 35 70 38 19 1 35 2 35 2 0 1 9
1 19 0 11 0 31 -1 46 -1z m-937 -18 c3 -5 3 -5 0 -10 -2 -3 -5 -5 -7 -5 -2 0
-5 2 -7 5 -3 5 -3 5 0 10 2 3 5 5 7 5 2 0 5 -2 7 -5z m1470 -23 c0 0 0 -5 1
-9 1 -7 0 -10 -3 -18 -3 -5 -5 -11 -5 -13 0 -1 -5 -7 -10 -13 -13 -12 -20 -27
-21 -46 0 -4 -6 -11 -8 -11 -5 0 -11 8 -15 19 -2 6 -9 17 -14 25 -16 23 -14
37 6 49 11 6 26 11 36 12 4 1 10 2 13 3 3 1 8 1 11 1 3 -1 6 0 7 1 1 1 2 2 2
2 1 0 1 -1 0 -2z m-1460 -105 c6 -4 6 -6 6 -20 0 -14 0 -16 -6 -20 -4 -4 -7
-5 -18 -5 -11 0 -14 1 -18 5 -6 4 -6 6 -6 20 0 14 0 16 6 20 4 4 7 5 18 5 11
0 14 -1 18 -5z m1067 -43 c0 -5 -8 -14 -13 -14 -9 0 -13 14 -6 21 6 6 19 2 19
-7z m-283 8 c9 -3 12 -12 11 -29 0 -11 -17 -20 -31 -15 -9 3 -14 10 -14 22 0
12 8 21 18 23 3 0 7 1 8 1 2 0 5 -1 8 -2z m-196 -42 c4 -3 10 -8 13 -10 6 -5
23 -8 37 -7 10 1 11 1 14 -3 3 -5 3 -6 0 -17 -8 -32 -23 -39 -52 -23 -8 4 -20
9 -28 12 -27 9 -30 11 -28 32 0 17 6 22 24 22 11 0 13 -1 20 -6z m-516 -46 c7
-6 7 -19 1 -25 -6 -7 -19 -7 -25 -1 -7 6 -7 19 -1 25 6 7 19 7 25 1z m993 -30
c4 -5 4 -6 1 -17 -7 -22 -3 -39 11 -52 18 -17 18 -43 0 -43 -12 0 -24 11 -24
20 0 8 -11 25 -25 39 -8 9 -15 17 -15 20 -1 18 2 24 14 30 19 10 33 11 38 3z
m-535 -48 c5 -5 6 -7 6 -16 0 -15 -8 -23 -23 -23 -9 0 -11 1 -16 7 -9 8 -9 23
-1 32 9 9 24 9 34 0z m805 -16 c9 -4 12 -8 12 -17 0 -17 -17 -25 -51 -23 -9 0
-15 8 -15 20 0 13 5 19 18 21 22 3 25 3 36 -1z m-357 -86 c5 -5 7 -14 4 -25
-2 -10 -7 -13 -19 -14 -8 -1 -10 0 -17 6 -7 6 -8 7 -8 17 0 8 1 11 6 16 9 9
24 9 34 0z m394 4 c6 -6 6 -15 2 -25 -4 -7 -4 -7 -13 -6 -12 1 -18 7 -18 18 0
15 18 23 29 13z m-1369 -57 c20 -9 20 -46 0 -53 -12 -5 -29 -4 -36 2 -9 7 -9
35 0 45 7 8 24 11 36 6z m1414 -10 c8 -3 29 -26 34 -36 2 -3 4 -10 4 -16 0
-23 -22 -25 -58 -7 -25 14 -31 30 -19 55 4 11 22 12 39 4z m-753 -85 c23 -9
11 -56 -22 -84 -14 -12 -22 -23 -24 -35 -1 -4 -3 -21 -3 -24 -1 -4 -12 0 -20
5 -16 11 -17 18 -9 37 8 17 9 22 11 40 3 26 23 58 39 62 3 1 7 2 8 2 3 1 13
-1 20 -3z m-849 -35 l-5 -5 -4 4 -5 5 4 4 5 5 4 -4 5 -5 -4 -4z m314 6 c3 -3
4 -7 4 -14 0 -13 -6 -19 -19 -19 -13 0 -19 6 -19 19 0 7 1 11 4 14 7 8 23 8
30 0z m510 -122 c7 -3 13 -5 15 -5 2 0 6 -2 9 -6 19 -18 -2 -62 -30 -62 -13 0
-14 0 -20 6 -5 5 -6 7 -6 18 0 6 1 14 2 17 1 3 3 11 3 17 1 5 2 12 3 15 2 2 3
4 3 5 -1 3 11 0 21 -5z m625 -135 c5 -5 6 -7 6 -16 0 -15 -8 -23 -23 -23 -9 0
-11 1 -16 7 -9 8 -9 23 -1 32 9 9 24 9 34 0z m-575 -56 c5 -5 5 -11 0 -16 -10
-10 -27 5 -16 16 4 4 12 4 16 0z m639 -64 c5 -4 6 -7 8 -25 3 -18 1 -32 -4
-30 -1 0 -4 0 -6 -1 -3 -1 -5 -1 -5 0 0 3 -12 6 -26 7 -23 1 -32 7 -32 19 0
19 20 34 47 34 10 0 14 -1 18 -4z"/>
<path d="M539 3729 c-4 -2 -7 -8 -12 -17 -6 -14 -6 -14 -8 -22 -2 -8 6 -19 11
-16 2 1 6 2 8 2 8 0 29 11 34 17 5 7 6 11 7 24 0 9 -1 10 -5 13 -6 3 -28 3
-35 -1z"/>
</g>
</svg>
