<?xml version="1.0" standalone="no"?>
<!DOCTYPE svg PUBLIC "-//W3C//DTD SVG 20010904//EN"
 "http://www.w3.org/TR/2001/REC-SVG-20010904/DTD/svg10.dtd">
<svg version="1.0" xmlns="http://www.w3.org/2000/svg"
 width="1105.000000pt" height="2870.000000pt" viewBox="0 0 1105.000000 2870.000000"
 preserveAspectRatio="xMidYMid meet">
<metadata>
Created by potrace 1.15, written by Peter Selinger 2001-2017
</metadata>
<g transform="translate(0.000000,2870.000000) scale(0.500000,-0.500000)"
fill="#000000" stroke="none">
<path d="M534 3826 c-2 -1 -8 -6 -14 -12 -6 -5 -11 -10 -12 -10 -1 0 -3 -1 -4
-2 -4 -4 -10 -8 -16 -10 -9 -4 -12 -9 -13 -22 -1 -10 -1 -13 4 -23 12 -24 4
-43 -17 -43 -12 0 -16 2 -28 15 -16 17 -29 17 -58 1 -23 -14 -26 -18 -27 -31
-1 -10 2 -31 5 -31 3 0 2 -11 -2 -16 -6 -7 -14 -5 -25 7 -5 7 -13 13 -16 14
-8 3 -23 4 -26 1 -1 -1 -6 -4 -12 -7 -29 -16 -66 -36 -81 -44 -22 -12 -30 -21
-36 -39 -2 -8 -5 -17 -6 -20 -2 -9 -10 -10 -28 -3 -25 9 -33 9 -57 -3 -28 -14
-33 -18 -39 -36 -7 -22 9 -55 28 -58 1 -1 4 -2 7 -3 3 -1 7 -2 9 -2 2 0 15 1
29 2 14 1 29 2 34 2 4 0 19 1 33 2 32 2 44 4 44 9 0 1 1 2 2 1 5 -3 8 30 3 38
-5 7 -5 24 0 32 3 8 12 12 24 12 12 0 21 -4 24 -12 4 -7 5 -26 2 -29 -2 -1 -2
-6 -1 -12 1 -5 1 -10 1 -10 -1 -1 2 -4 5 -8 3 -3 6 -8 7 -10 1 -2 4 -6 7 -9 3
-3 6 -6 6 -7 0 -5 8 -18 19 -29 12 -13 20 -23 22 -30 0 -2 4 -12 7 -22 9 -26
10 -38 4 -44 -4 -4 -7 -5 -11 -5 -7 1 -28 -6 -34 -10 -10 -9 -11 -15 -11 -66
l1 -47 -6 -6 c-6 -6 -7 -6 -23 -6 -16 0 -18 -1 -26 -6 -14 -9 -26 -35 -29 -66
-1 -12 -1 -13 5 -24 9 -17 9 -17 24 -17 l14 0 8 10 c5 6 9 11 10 12 3 5 12 8
22 8 22 0 28 -17 17 -49 -7 -17 -11 -22 -28 -32 -14 -8 -37 -29 -37 -34 0 -2
-1 -3 -2 -3 -3 0 -17 -30 -16 -36 0 -13 6 -26 17 -37 13 -13 15 -17 16 -29 0
-17 -3 -21 -24 -31 -18 -8 -27 -15 -32 -26 -3 -5 -14 -44 -18 -65 -1 -5 -14
-54 -24 -92 -3 -11 -10 -36 -16 -56 -6 -20 -12 -40 -13 -43 -2 -7 -26 -77 -30
-86 -2 -4 -2 -8 0 -18 2 -11 4 -13 16 -25 13 -12 14 -14 14 -22 0 -4 0 -9 -1
-10 -5 -8 -1 -35 6 -44 5 -6 6 -6 19 -6 19 1 24 4 46 31 3 5 9 11 11 14 12 14
19 30 27 59 2 7 4 9 15 16 6 4 13 9 14 10 1 1 4 3 7 4 2 1 4 4 4 6 0 3 0 4 9
-12 4 -7 4 -11 3 -144 0 -156 -1 -147 17 -167 7 -9 10 -11 19 -13 18 -3 27 -5
32 -5 10 0 16 -12 8 -18 -5 -5 -6 -5 -20 -2 -25 6 -36 4 -45 -9 -8 -12 -11
-22 -11 -47 0 -23 0 -25 7 -46 9 -26 9 -26 0 -52 -6 -19 -7 -23 -7 -44 0 -16
1 -25 3 -30 4 -9 14 -21 18 -21 2 0 3 -1 3 -2 0 -2 2 -2 35 -3 53 -1 94 7 140
28 47 22 70 43 81 72 4 12 4 15 4 114 0 86 0 102 -3 108 -3 8 -10 15 -16 16
-1 0 -3 1 -5 2 -10 3 -16 5 -17 3 -1 -1 -4 -1 -17 0 -1 0 -5 3 -8 6 -5 5 -6 7
-6 18 0 11 1 13 6 18 3 3 7 6 8 6 13 1 16 1 17 0 1 -2 7 0 17 3 2 1 4 2 5 2 6
1 13 8 16 16 3 6 3 25 3 144 0 152 1 143 -15 170 -13 22 -12 30 1 53 6 10 10
19 10 21 0 2 2 6 5 10 3 3 6 7 7 8 1 1 2 4 3 6 0 2 1 1 1 -3 1 -22 36 -50 76
-60 17 -4 24 -3 47 9 8 3 20 8 27 9 27 5 31 10 31 36 1 22 3 30 12 34 3 1 5 4
5 6 0 1 1 5 3 8 2 2 3 4 2 4 -1 0 0 1 1 3 3 3 15 2 26 -2 5 -1 16 -3 24 -4 37
-3 42 -6 42 -28 0 -10 -1 -12 -6 -17 -3 -3 -7 -6 -9 -6 -12 -1 -19 0 -25 3 -8
4 -26 4 -35 0 -8 -4 -11 -13 -11 -30 0 -14 -5 -34 -9 -38 -1 -1 -5 -4 -9 -6
-7 -2 -17 -12 -26 -26 -6 -9 -15 -19 -24 -25 -7 -5 -7 -6 -8 -20 -1 -19 1 -22
33 -38 13 -7 28 -15 32 -17 4 -2 17 -9 29 -15 12 -6 31 -17 43 -23 25 -13 37
-15 55 -8 10 4 28 6 35 4 2 0 8 -6 13 -12 l9 -10 15 -1 c17 0 16 -1 28 16 14
20 16 33 9 54 -2 5 -3 13 -3 19 0 10 0 10 15 24 8 8 16 16 16 19 1 3 2 7 2 10
1 3 1 7 1 10 0 3 -1 65 -2 138 -1 152 0 140 -21 161 -12 12 -13 14 -13 21 0 7
1 9 13 21 26 26 27 50 2 73 -23 21 -23 31 1 53 5 5 10 11 10 12 0 1 5 4 11 7
12 7 15 8 18 6 1 -1 4 -4 7 -6 4 -3 6 -6 7 -13 2 -16 10 -30 17 -33 3 -2 6 -3
6 -4 0 -1 13 -1 20 0 4 0 10 29 7 37 0 2 0 9 2 15 3 13 2 25 -2 32 -6 7 -24
13 -31 10 -4 -1 -6 -1 -6 0 0 1 -1 2 -3 2 -4 0 -9 7 -9 13 0 11 6 14 27 15 16
1 20 2 33 9 8 4 18 7 22 8 4 1 7 2 8 2 1 1 12 -3 12 -5 0 -1 1 -2 3 -2 1 0 4
-3 6 -6 5 -13 5 -19 0 -35 -8 -26 -9 -37 -1 -53 13 -27 16 -30 36 -35 12 -3
13 -3 26 1 17 6 37 16 48 24 8 6 11 8 21 22 4 4 19 11 21 8 1 0 6 -4 13 -7 7
-4 21 -11 32 -17 27 -14 36 -13 60 7 12 10 25 11 33 2 8 -8 9 -14 5 -21 -4 -8
-3 -23 3 -35 10 -21 45 -28 62 -13 3 3 9 12 13 21 5 11 9 16 14 19 4 3 7 6 8
8 1 2 2 4 3 4 1 0 4 4 7 10 4 7 8 11 14 14 12 6 14 6 20 0 l6 -5 0 -93 0 -93
5 -8 c2 -5 8 -11 12 -14 10 -9 18 -18 18 -21 0 -3 -8 -12 -18 -21 -16 -13 -17
-16 -17 -73 -1 -49 -1 -51 3 -58 6 -10 9 -12 22 -13 6 0 11 -1 11 -2 1 0 3 1
4 3 7 10 25 2 25 -11 0 -13 -18 -20 -25 -11 -1 2 -3 3 -4 3 0 -1 -5 -2 -10 -2
-5 -1 -11 -1 -13 -2 -5 -2 -19 -24 -22 -35 -1 -5 -3 -12 -5 -15 -1 -3 -2 -7
-2 -8 -1 -1 -2 -6 -3 -12 -2 -10 -7 -17 -16 -21 -3 -1 -6 -3 -6 -4 0 -1 -1 -2
-2 -2 -5 0 -19 -15 -21 -20 -2 -7 -10 -21 -14 -24 -2 -1 -3 -4 -3 -6 0 -6 -21
-22 -25 -18 -1 0 -1 0 0 -1 1 -2 0 -3 -1 -3 -2 0 -2 0 0 -2 1 -1 2 -2 1 -3 0
-1 7 -2 17 -1 11 0 16 1 14 2 -2 2 -2 2 1 2 3 0 3 0 0 3 -3 4 -4 5 -1 9 2 3 2
3 2 0 0 -3 0 -3 2 0 4 10 8 14 14 13 2 -1 6 -2 7 -3 1 -1 10 -2 20 -2 9 0 20
-1 22 -2 4 -2 8 -1 17 2 7 2 16 4 20 4 5 1 10 2 10 3 1 0 3 -1 6 -4 l4 -4 -5
-5 c-3 -3 -5 -4 -5 -2 0 2 -1 1 -3 -1 -2 -2 -5 -3 -7 -3 -5 0 -14 -4 -19 -8
-2 -2 -4 -4 -5 -4 -2 0 -1 -12 2 -19 3 -7 10 -15 13 -15 2 0 3 -1 3 -2 0 -2 1
-2 21 -3 13 -1 17 -1 30 4 21 7 29 9 53 11 20 1 23 2 31 7 10 8 19 24 27 54 6
21 6 23 5 45 -2 26 0 31 17 33 29 4 41 13 47 35 4 14 3 40 -2 50 -4 8 -16 19
-25 23 -19 8 -19 34 0 42 9 4 21 15 25 23 4 6 4 14 4 80 1 41 0 72 -1 72 -1 0
-2 2 -3 5 -1 3 -2 5 -3 5 0 -1 -3 0 -6 1 -3 1 -9 3 -14 3 -5 0 -10 1 -10 3 -1
1 -2 1 -2 -1 0 -2 -3 -8 -7 -13 -4 -6 -9 -13 -10 -17 -2 -4 -4 -9 -5 -11 -1
-2 -3 -7 -5 -11 -3 -8 -7 -11 -15 -12 -19 -2 -26 4 -26 20 0 6 1 13 3 16 5 10
11 31 13 44 1 7 4 16 6 21 7 16 9 30 4 41 -3 7 -7 8 -22 7 -16 -1 -24 9 -14
19 5 5 21 2 26 -4 5 -6 30 -10 33 -6 1 1 8 3 16 5 21 5 34 13 40 26 3 5 5 12
5 14 0 8 6 28 10 32 2 2 9 6 15 8 18 6 20 8 19 28 l0 12 -18 14 c-10 8 -19 15
-21 16 -1 1 -5 4 -9 7 -4 3 -10 7 -13 10 -11 8 -14 11 -21 16 -4 3 -9 7 -12 9
-3 3 -6 5 -6 5 -1 0 -4 2 -6 4 -34 29 -82 58 -90 54 -5 -3 -6 -4 -7 -16 0 -6
1 -11 3 -16 2 -4 7 -17 11 -30 9 -28 9 -42 0 -50 -6 -4 -7 -4 -25 -3 -26 2
-32 2 -46 -2 -22 -6 -24 -5 -40 11 -7 8 -14 14 -16 14 -1 0 -2 1 -2 2 0 2 -10
7 -24 12 -27 9 -38 25 -31 46 2 7 4 10 12 16 6 4 14 11 18 16 8 7 9 9 9 19 0
13 -5 20 -26 30 -16 8 -18 11 -18 24 0 11 4 19 14 25 21 15 26 21 33 40 6 17
2 42 -10 57 -16 20 -17 31 -8 45 4 5 9 13 12 17 3 4 5 10 5 12 0 3 1 5 2 5 1
0 4 2 7 6 l6 5 145 -1 c127 0 146 0 156 3 21 6 37 20 47 43 8 14 8 16 4 35 -2
7 -27 33 -51 51 -5 4 -9 7 -10 8 -1 1 -6 5 -13 11 -7 5 -13 10 -14 11 -1 0
-14 10 -29 22 -15 11 -28 21 -29 22 -2 1 -3 2 -4 2 -1 0 -5 2 -9 5 -10 7 -25
7 -37 2 -13 -5 -17 -24 -8 -44 4 -9 4 -22 0 -25 -2 -1 -3 -4 -3 -6 0 -2 -1 -4
-1 -5 -1 0 -2 -6 -2 -13 0 -18 7 -22 31 -22 13 1 15 0 20 -5 9 -9 9 -25 1 -33
-6 -6 -16 -9 -25 -6 -13 5 -34 10 -48 11 -19 2 -24 6 -24 20 0 7 1 11 9 20 10
14 14 28 12 45 -1 8 0 13 2 18 3 8 5 29 4 38 -1 3 -4 8 -7 12 -3 3 -5 6 -4 6
0 0 0 1 -1 2 -2 2 -6 2 -14 0 -7 -1 -13 -3 -14 -3 -2 0 -4 -1 -5 -3 -2 -3 -7
-10 -13 -18 -5 -7 -11 -15 -13 -18 -2 -2 -8 -11 -14 -19 -6 -8 -13 -18 -17
-23 -7 -11 -21 -21 -38 -26 -15 -5 -22 -5 -44 1 l-19 5 -119 -1 c-66 0 -121
-1 -123 -1 -2 -1 -6 -3 -9 -4 -4 -1 -7 -3 -7 -4 0 -1 -1 -2 -3 -2 -1 0 -5 -3
-9 -7 -10 -10 -17 -14 -29 -14 -12 0 -19 4 -29 14 -4 4 -8 7 -9 7 -2 0 -3 1
-3 2 0 1 -3 3 -6 4 -26 10 -46 6 -64 -12 -3 -4 -6 -6 -7 -6 -2 0 -3 -1 -3 -2
-1 -2 -5 -3 -10 -3 -5 0 -9 1 -10 3 0 1 -1 2 -3 2 -1 0 -4 2 -7 6 -17 17 -17
17 -93 17 l-66 0 -11 -6 c-6 -3 -12 -7 -14 -8 -6 -7 -18 -13 -25 -13 -7 0 -19
6 -25 13 -10 9 -25 14 -46 15 -26 1 -35 -2 -48 -13 -6 -5 -10 -9 -10 -8 0 1
-1 1 -2 -1 -4 -3 -7 -3 -11 2 -13 11 -33 28 -40 35 -5 4 -15 14 -23 21 -8 7
-17 15 -20 18 -3 3 -12 11 -19 17 -8 7 -18 16 -23 21 -4 4 -13 10 -19 13 -5 3
-16 10 -23 15 -12 7 -16 9 -26 9 -7 1 -14 0 -16 -1z m151 -177 c4 -4 5 -7 5
-15 0 -14 -6 -20 -20 -20 -14 0 -20 6 -20 20 0 14 6 20 20 20 8 0 11 -1 15 -5z
m816 -10 c17 -8 21 -14 21 -29 0 -9 -1 -11 -6 -16 l-6 -7 -23 2 c-28 2 -44 5
-49 10 -9 9 -2 35 11 43 16 9 28 8 52 -3z m-469 -12 c7 -3 9 -6 21 -28 5 -9 8
-13 10 -13 2 0 3 -1 3 -2 0 -1 2 -7 5 -12 5 -10 5 -11 5 -54 0 -46 1 -56 5
-56 2 0 3 -1 3 -1 0 -1 7 -2 15 -1 13 0 15 0 16 -3 0 -2 1 -1 1 3 0 13 11 38
19 46 23 19 47 18 47 -3 0 -8 0 -8 -18 -24 -13 -12 -16 -36 -5 -47 6 -6 8 -7
20 -6 9 0 13 -1 13 -2 0 -1 3 0 6 4 9 10 29 12 37 2 4 -6 4 -24 -1 -30 -8 -11
-27 -8 -39 5 -8 9 -8 9 -21 9 -16 0 -20 -3 -21 -15 -4 -36 -8 -43 -22 -43 -9
0 -15 4 -15 13 l-1 6 0 -6 c-1 -5 -2 -5 -13 -5 -17 1 -18 1 -22 -8 -5 -9 -6
-62 -2 -76 4 -11 14 -21 31 -30 15 -7 17 -10 17 -23 0 -18 -11 -23 -48 -24
-32 -1 -38 1 -140 42 -115 47 -107 44 -119 42 -18 -3 -26 -15 -27 -41 -1 -14
-9 -32 -12 -24 -1 2 -3 4 -3 4 -1 0 -4 2 -7 5 -19 17 -29 23 -39 23 -21 1 -25
-6 -22 -42 1 -13 1 -16 -2 -20 -7 -8 -28 -9 -35 0 -2 2 -4 10 -5 17 -2 27 -6
42 -11 53 -7 14 -8 15 -25 16 -16 1 -16 1 -34 -26 -5 -8 -11 -16 -12 -18 -2
-1 -3 -3 -3 -5 0 -2 -3 -2 -15 0 -2 1 -7 4 -11 7 -4 4 -9 8 -11 10 -3 2 -7 7
-11 13 -7 11 -10 12 -27 13 l-12 0 -15 -15 c-8 -8 -17 -17 -19 -20 -2 -3 -5
-5 -6 -5 -2 0 -3 -1 -3 -2 -2 -4 -14 -4 -19 1 -3 3 -4 4 0 18 4 20 4 31 -2 45
-6 14 -6 29 -1 41 4 10 0 30 -8 43 -10 15 -7 34 5 40 10 4 29 2 50 -4 24 -8
29 -12 30 -24 2 -16 0 -22 -12 -34 -13 -15 -17 -32 -9 -42 3 -4 5 -5 17 -5 14
0 14 1 22 8 4 5 13 13 21 18 9 7 14 13 18 21 l6 11 0 62 0 62 5 8 c4 6 7 8 11
9 6 0 35 14 42 21 20 18 33 18 64 2 36 -18 71 -23 105 -16 23 5 55 22 56 32 0
1 1 5 2 9 1 4 1 6 -1 6 -3 0 1 3 12 8 3 2 19 3 48 4 38 1 44 1 50 5 8 4 15 12
19 19 12 24 13 25 23 29 6 3 19 2 26 0z m329 -58 c3 -3 6 -7 6 -9 2 -18 5 -20
22 -20 15 0 15 0 16 -5 0 -5 0 -5 1 1 0 10 6 14 20 14 15 0 20 -6 20 -21 0
-17 -7 -23 -26 -21 -9 1 -14 5 -14 14 -1 6 -1 6 -1 2 -1 -6 -1 -6 -16 -6 -16
0 -18 -1 -20 -12 -5 -27 8 -42 42 -47 14 -2 18 -7 17 -20 -2 -20 -14 -37 -33
-45 -19 -8 -29 -25 -29 -48 0 -17 2 -23 10 -30 9 -8 26 -12 37 -10 7 1 14 -1
18 -5 5 -5 6 -6 4 -23 -1 -21 2 -36 9 -43 4 -4 6 -5 17 -5 13 0 13 0 23 10 9
8 10 11 11 18 1 8 -5 33 -9 37 -4 3 -2 14 2 18 13 14 33 -4 23 -20 -4 -6 -3
-36 2 -46 2 -3 3 -7 3 -9 0 -3 -15 -18 -19 -18 -1 0 -5 -3 -9 -6 -12 -11 -21
-15 -36 -13 -16 1 -48 8 -62 12 -9 3 -12 3 -21 1 -15 -3 -25 -8 -25 -12 0 -2
-1 -2 -1 0 -1 2 -3 4 -5 7 -6 6 -6 11 -6 123 0 102 0 108 -4 116 -6 13 -13 20
-27 27 -18 8 -25 22 -21 40 3 11 14 21 32 28 4 2 15 15 15 18 0 2 1 3 2 3 1 0
5 2 8 6 8 7 16 7 24 -1z m-980 -20 c6 -5 6 -5 6 -29 0 -48 -4 -58 -23 -58 -16
0 -19 4 -23 33 -7 47 -3 59 22 59 11 0 14 -1 18 -5z m826 -256 c3 -2 4 -7 6
-23 3 -23 5 -33 7 -39 5 -14 -5 -28 -20 -30 -8 -1 -10 -1 -17 5 -7 7 -10 16
-7 25 2 6 4 16 7 39 3 22 5 26 15 26 3 0 7 -1 9 -3z m-798 -109 c7 -6 7 -18 1
-25 -6 -7 -19 -7 -25 -1 -7 6 -7 19 -1 25 6 6 17 7 25 1z m123 -7 c11 -2 15
-8 13 -23 -2 -23 -9 -31 -28 -31 -19 0 -28 9 -28 28 0 19 13 31 31 28 3 -1 8
-1 12 -2z m357 -35 c6 -2 13 -13 13 -20 0 -5 -11 -12 -18 -12 -17 0 -28 7 -28
20 0 15 16 20 33 12z m-102 -85 l5 -7 0 -68 c0 -56 -1 -70 -3 -74 -2 -3 -4 -6
-5 -6 -1 0 -2 -2 -2 -3 0 -3 -1 -1 -3 3 -12 22 -58 64 -100 91 -6 4 -12 7 -12
7 -1 0 -4 2 -7 4 -7 5 -37 20 -60 30 -10 5 -21 10 -23 13 -4 4 -4 4 0 10 l3 6
101 0 100 0 6 -6z m750 2 c3 -3 3 -3 0 -6 -1 -2 -3 -3 -4 -3 -1 0 -3 6 -2 9 1
2 2 3 2 3 1 0 3 -1 4 -3z m-1136 -46 c8 -8 7 -23 -1 -31 -4 -3 -8 -6 -10 -6
-1 0 -5 -2 -7 -4 -3 -2 -6 -4 -8 -5 -1 0 -4 -1 -5 -2 -5 -4 -25 -10 -29 -8 -2
0 -4 3 -5 6 -3 6 1 14 15 29 6 6 11 13 13 15 9 12 28 15 37 6z m1326 -21 c11
-10 3 -28 -11 -28 -9 0 -16 6 -16 16 0 14 17 22 27 12z m-1195 -14 c5 -6 5
-12 0 -18 -7 -8 -22 -2 -22 9 0 11 15 17 22 9z m-111 -50 c11 -10 3 -28 -11
-28 -9 0 -16 6 -16 16 0 14 17 22 27 12z m487 -42 c6 -6 5 -12 -3 -17 -8 -6
-9 -6 -15 0 -10 11 8 27 18 17z m827 -7 c3 -3 3 -3 0 -6 -4 -5 -11 1 -7 6 4 4
4 4 7 0z m-870 -33 c3 -4 3 -7 2 -18 -2 -24 -10 -29 -40 -25 -7 1 -21 6 -21 8
0 1 1 7 3 14 2 6 4 13 4 14 1 6 8 11 14 11 4 -1 7 0 8 0 0 1 6 1 13 1 11 0 13
-1 17 -5z m896 -32 c16 -7 16 -43 -1 -50 -15 -6 -34 -2 -39 9 -4 8 -4 24 0 32
5 12 23 15 40 9z m-1102 -12 c4 -6 4 -24 -1 -30 -7 -9 -27 -9 -34 0 -5 6 -5
24 0 30 7 9 27 9 35 0z m138 -2 c1 -1 1 -3 -1 -4 -1 -2 -2 -5 -2 -8 0 -2 -3
-8 -6 -12 -7 -9 -10 -9 -22 1 -18 16 -2 37 22 27 4 -1 8 -3 9 -4z m-378 -5 c3
-3 3 -3 0 -6 -4 -5 -11 1 -7 6 4 4 4 4 7 0z m86 -39 c7 -6 7 -19 1 -25 -6 -7
-19 -7 -25 -1 -7 6 -7 19 -1 25 6 7 19 7 25 1z m484 -61 c23 -9 22 -45 -1 -54
-10 -5 -28 -1 -34 6 -9 10 -9 32 0 42 7 7 24 11 35 6z m-157 -85 c8 -6 4 -20
-8 -23 -10 -3 -17 16 -9 24 4 5 9 4 17 -1z m-384 -89 l-5 -5 -4 4 -5 5 4 4 5
5 4 -4 5 -5 -4 -4z m-5 -78 c12 -12 3 -31 -13 -31 -11 0 -18 7 -18 18 0 11 7
18 18 18 6 0 9 -1 13 -5z m-73 -206 c3 -3 4 -7 4 -14 0 -13 -6 -19 -19 -19
-13 0 -19 6 -19 19 0 7 1 11 4 14 7 8 23 8 30 0z m53 -199 c10 -9 3 -26 -10
-26 -8 0 -15 7 -15 15 0 13 16 20 25 11z"/>
<path d="M61 3184 c-11 -4 -18 -11 -21 -20 -3 -14 -3 -18 3 -37 4 -14 6 -19
10 -20 3 -2 5 -2 6 -1 1 1 7 2 14 2 12 -1 13 0 18 5 6 6 15 9 17 6 2 -3 19 -7
32 -8 12 0 15 2 24 16 14 23 12 39 -8 52 l-9 6 -40 0 c-25 1 -42 0 -46 -1z"/>
<path d="M1171 2711 c-1 0 -5 -1 -8 -2 -9 -2 -58 -52 -61 -62 -3 -11 -3 -21 2
-36 7 -23 3 -34 -17 -45 -10 -6 -21 -16 -19 -20 0 -1 -1 -2 -2 -2 -1 0 0 -18
2 -23 5 -11 7 -24 8 -62 1 -23 3 -49 4 -59 2 -13 2 -19 0 -34 -2 -13 -3 -46
-3 -142 0 -111 0 -125 -3 -128 -2 -2 -5 -5 -6 -7 -2 -2 -11 -7 -21 -10 -17 -5
-25 -6 -45 -4 -3 0 -5 -1 -4 -3 0 -1 -1 -2 -2 -1 -1 1 -2 0 -3 -1 -3 -4 -5
-22 -3 -22 1 0 5 -2 9 -5 4 -3 7 -5 7 -4 0 1 2 -1 5 -3 2 -3 7 -6 10 -7 6 -1
15 -10 15 -14 0 -4 -6 -8 -12 -8 -21 -2 -56 -1 -59 1 -8 4 -17 21 -20 37 -1
10 -21 43 -21 36 0 -1 -1 -1 -2 0 -9 7 -24 5 -29 -4 -5 -7 -7 -28 -4 -31 2 -1
3 -7 3 -12 0 -14 -6 -20 -19 -20 -12 0 -18 4 -21 13 -2 7 1 21 4 21 2 0 -1 22
-4 28 -2 4 -11 11 -16 11 -3 1 -29 1 -34 1 -2 0 -6 -4 -9 -9 -4 -9 -13 -19
-13 -16 0 1 -2 0 -4 -1 -5 -3 -31 -7 -38 -6 -3 0 -11 5 -18 12 -18 15 -32 21
-43 18 -12 -4 -20 -11 -23 -20 -3 -14 -3 -16 2 -33 5 -18 11 -26 20 -28 14 -3
23 -3 30 0 9 5 22 4 28 0 3 -2 9 -9 13 -16 4 -6 10 -13 14 -15 3 -2 7 -4 8 -5
1 -1 3 -2 5 -3 7 -2 355 -2 364 0 11 3 20 8 23 12 5 6 10 35 7 43 -2 6 8 36
15 43 9 10 18 34 20 55 2 14 7 20 19 23 15 4 23 0 43 -20 11 -11 19 -21 19
-23 0 -3 1 -3 1 -1 1 2 3 3 9 2 10 -1 19 3 22 9 2 2 2 13 2 25 0 13 1 28 3 36
7 33 3 49 -19 71 -9 8 -20 17 -25 19 -4 2 -12 5 -17 7 -5 3 -11 5 -14 7 -9 3
-13 11 -13 24 0 19 8 27 27 27 8 0 13 -2 18 -5 8 -4 19 -5 31 -2 5 2 8 4 11
10 4 7 4 12 4 79 0 57 1 74 3 80 3 10 2 34 -2 47 -4 10 -3 20 3 31 5 11 6 31
0 40 -9 14 -33 20 -58 14 -29 -7 -52 11 -57 43 -3 18 -9 35 -15 41 -7 7 -19
11 -27 8z m103 -177 c5 -6 5 -12 0 -18 -7 -8 -22 -2 -22 9 0 11 15 17 22 9z
m-112 -53 c3 -3 4 -7 4 -14 0 -13 -6 -19 -19 -19 -13 0 -19 6 -19 19 0 7 1 11
4 14 7 8 23 8 30 0z m-358 -438 c5 -4 5 -8 1 -12 -4 -2 -5 -2 -10 2 l-6 5 5 4
c6 5 6 5 10 1z"/>
<path d="M1398 2711 c-9 -2 -20 -5 -20 -7 0 -1 -1 -2 -2 -1 -1 0 -4 -4 -7 -10
l-5 -10 0 -46 c1 -52 2 -58 16 -65 12 -6 23 -5 35 2 11 7 19 15 19 19 1 10 1
21 0 21 -1 0 -2 1 -2 2 0 1 -3 7 -7 13 -8 13 -9 22 -4 32 4 7 5 23 3 31 -3 12
-15 20 -26 19z"/>
<path d="M1485 2677 c-13 -4 -19 -6 -20 -9 -1 -2 -3 -7 -6 -12 -3 -7 -4 -10
-3 -13 1 -2 3 -5 3 -7 1 -5 6 -17 14 -29 6 -11 8 -24 3 -28 -6 -4 -12 -20 -13
-32 0 -2 0 -3 -1 -3 -1 0 -2 -2 -2 -3 0 -5 -9 -12 -18 -15 -4 -1 -15 -2 -25
-1 -34 1 -49 -6 -49 -22 0 -10 5 -22 11 -27 8 -7 15 -19 15 -26 0 -7 -8 -21
-14 -25 -4 -2 -11 -16 -14 -25 -2 -7 -2 -45 -2 -155 l1 -146 -6 -6 c-5 -5 -8
-6 -15 -6 -5 0 -10 1 -11 3 0 1 -5 2 -10 2 -8 0 -10 -1 -21 -12 -7 -7 -12 -13
-12 -14 0 -4 -9 -11 -20 -14 -32 -10 -41 -15 -55 -33 -13 -16 -13 -16 -12 -26
1 -13 5 -19 14 -24 8 -4 13 -4 166 -5 153 0 158 0 166 4 9 4 15 13 18 28 1 3
3 6 4 6 1 0 1 1 -1 2 -5 3 2 13 9 13 7 0 14 -10 9 -13 -2 -1 -2 -2 0 -2 1 0 2
-1 2 -3 0 -2 2 -8 4 -13 4 -11 4 -11 12 -11 4 0 8 1 8 2 0 1 1 1 2 0 4 -3 15
3 22 12 14 19 44 26 56 13 3 -4 6 -8 6 -9 0 -2 1 -4 3 -5 1 -2 4 -6 7 -9 12
-18 41 -18 61 1 15 13 27 15 39 7 6 -4 11 -5 21 -5 l14 -1 5 7 c4 5 6 11 7 19
2 20 8 26 27 26 18 0 25 -6 27 -23 3 -26 11 -37 28 -37 11 -1 12 -1 22 10 12
12 23 32 24 46 2 20 -7 32 -53 70 -12 9 -22 18 -24 19 -1 1 -8 6 -15 12 -6 5
-17 13 -23 18 -10 7 -11 8 -23 8 -15 0 -22 -5 -31 -21 -7 -12 -13 -16 -27 -16
-19 0 -28 9 -28 28 0 12 3 18 12 26 9 9 11 13 11 28 l0 14 -13 12 c-12 11 -14
12 -25 13 -20 1 -18 2 -69 -69 -11 -14 -20 -28 -22 -30 -1 -2 -4 -7 -7 -10 -7
-9 -11 -27 -12 -45 0 -14 -14 -21 -22 -11 -4 3 -4 6 -3 18 1 8 2 17 3 21 1 4
2 54 2 124 0 127 0 127 -11 136 -7 6 -21 10 -35 10 -24 -1 -31 5 -33 30 -1 10
-1 16 2 23 3 8 3 10 1 14 -3 6 -12 7 -16 2 -2 -2 -5 -2 -8 -1 -4 1 -6 1 -6 0
0 0 -1 0 -2 2 -2 1 -5 2 -7 2 -7 0 -17 14 -22 31 -5 15 -13 31 -15 33 -4 1 15
12 21 12 1 0 5 5 9 12 7 12 10 16 22 28 8 8 14 11 24 13 23 4 45 14 48 21 3 7
2 25 -2 31 -4 7 -6 8 -36 19 -13 5 -30 11 -38 14 -16 6 -24 8 -27 7z m-24
-336 c20 -10 25 -11 52 -8 14 2 15 1 20 -3 7 -6 7 -16 0 -22 -5 -5 -14 -5 -46
-1 -6 1 -17 0 -28 -2 -17 -3 -24 -4 -34 -3 -2 0 -6 3 -9 6 -5 5 -6 7 -6 17 0
27 19 33 51 16z m-6 -109 c4 -6 4 -24 -1 -30 -7 -9 -27 -9 -34 0 -5 6 -5 24 0
30 7 9 27 9 35 0z m32 -124 c11 -10 3 -28 -11 -28 -9 0 -16 6 -16 16 0 14 17
22 27 12z"/>
<path d="M88 2393 c0 -1 -3 -2 -7 -2 -16 1 -21 -3 -33 -28 -31 -63 -31 -65
-28 -79 5 -23 23 -34 45 -28 8 2 28 21 31 28 3 10 2 25 -2 36 -5 12 -5 26 -1
34 4 8 5 28 2 34 -2 3 -3 4 -3 3 0 -1 -1 -1 -2 1 -1 2 -2 2 -2 1z"/>
</g>
</svg>
