<?xml version="1.0" standalone="no"?>
<!DOCTYPE svg PUBLIC "-//W3C//DTD SVG 20010904//EN"
 "http://www.w3.org/TR/2001/REC-SVG-20010904/DTD/svg10.dtd">
<svg version="1.0" xmlns="http://www.w3.org/2000/svg"
 width="1107.000000pt" height="2870.000000pt" viewBox="0 0 1107.000000 2870.000000"
 preserveAspectRatio="xMidYMid meet">
<metadata>
Created by potrace 1.15, written by Peter Selinger 2001-2017
</metadata>
<g transform="translate(0.000000,2870.000000) scale(0.500000,-0.500000)"
fill="#000000" stroke="none">
<path d="M1101 3840 c-4 -1 -15 -4 -24 -8 -9 -3 -17 -6 -17 -6 -1 0 -7 -2 -14
-5 -10 -5 -12 -7 -13 -11 -1 -4 -2 -6 -3 -6 0 0 -1 -3 -1 -7 0 -4 1 -7 2 -7 0
0 1 -2 1 -4 0 -5 18 -10 35 -10 25 1 30 -7 30 -43 0 -30 -1 -30 -28 -37 -20
-5 -34 -13 -44 -25 -13 -15 -16 -27 -16 -74 0 -12 -1 -19 -2 -19 -1 0 -4 -2
-7 -5 l-5 -5 -84 0 c-95 0 -92 0 -118 -15 -13 -8 -17 -9 -26 -9 -9 0 -13 1
-26 9 -20 12 -30 15 -49 15 -31 0 -45 -11 -46 -36 -1 -6 13 -52 17 -60 5 -10
15 -19 26 -24 9 -4 12 -4 148 -4 l138 0 6 -6 c4 -3 6 -6 5 -8 -1 -2 -17 -89
-19 -102 0 -6 -12 -13 -24 -15 -16 -1 -28 -9 -37 -25 -13 -23 -14 -23 -40 -25
-36 -2 -47 -2 -74 1 -29 3 -30 3 -37 22 -6 16 -10 20 -20 25 -28 13 -60 -16
-45 -42 4 -7 4 -7 14 -20 4 -5 8 -12 9 -15 2 -10 14 -30 20 -35 12 -9 15 -9
104 -9 l83 0 7 -6 c4 -3 6 -6 5 -6 -1 0 -2 -2 -3 -5 -2 -7 -2 -7 -4 -11 -8
-21 -17 -56 -16 -63 1 -4 1 -11 1 -14 0 -8 1 -9 13 -10 5 0 10 -1 11 -2 1 -1
6 -2 11 -2 17 -2 24 -9 24 -27 0 -19 -8 -27 -27 -27 -14 0 -22 5 -25 14 -1 3
-3 10 -5 16 -2 5 -4 13 -4 18 0 8 0 9 -6 9 -3 1 -7 1 -10 0 -3 -1 -8 -2 -12
-2 -6 0 -9 -1 -13 -6 -5 -8 -11 -26 -11 -36 0 -8 -5 -14 -14 -16 -15 -3 -28 4
-28 16 0 9 -6 28 -11 35 -8 12 -12 13 -91 13 -73 0 -80 -1 -90 -8 -6 -5 -9 -2
-10 9 0 4 0 8 0 9 -1 0 0 4 1 8 4 16 -8 36 -27 46 -6 2 -11 7 -14 12 -7 10 -9
11 -24 12 -7 0 -13 0 -14 1 0 1 -8 -6 -8 -8 0 -1 -5 -11 -10 -23 -14 -28 -24
-50 -32 -67 -4 -8 -12 -25 -18 -38 -6 -13 -15 -32 -20 -42 -8 -17 -15 -32 -48
-101 -18 -37 -63 -127 -74 -147 -23 -43 -27 -51 -31 -57 -3 -5 -5 -9 -5 -9 0
-1 -2 -4 -4 -7 -10 -12 -3 -35 14 -47 11 -8 12 -10 12 -23 0 -15 -8 -22 -25
-20 -2 0 -10 3 -16 6 -19 10 -41 8 -58 -3 -3 -2 -10 -3 -24 -3 -18 0 -20 0
-39 -8 -10 -5 -23 -9 -29 -9 -29 -2 -41 -14 -41 -39 0 -30 17 -49 47 -53 13
-2 39 -10 53 -16 14 -7 22 -13 29 -23 6 -10 15 -19 28 -29 14 -11 18 -16 18
-27 0 -7 -2 -12 -7 -19 -3 -5 -6 -10 -6 -11 0 -1 -1 -2 -2 -2 0 -1 -3 -6 -6
-11 -4 -10 -4 -15 -5 -58 -1 -27 -1 -52 -2 -58 0 -5 -1 -16 -2 -24 -2 -22 -8
-78 -10 -87 -6 -33 -5 -42 6 -65 10 -21 11 -29 7 -44 -4 -14 -3 -29 2 -39 15
-29 48 -56 81 -66 26 -9 81 -5 95 6 3 3 5 6 5 15 1 7 2 14 2 15 0 2 0 4 -1 4
-3 2 -8 15 -8 22 0 10 6 16 17 16 9 0 11 -2 20 -17 7 -12 13 -16 27 -16 l12 0
11 12 c35 37 54 79 59 130 3 27 1 41 -10 57 -19 28 -22 35 -16 52 7 21 5 35
-9 58 -3 4 -3 8 -2 21 4 41 4 41 -17 88 -20 47 -31 76 -33 95 -3 25 0 79 5
100 1 4 6 30 12 59 11 56 11 60 5 85 -2 7 -4 14 -4 16 0 2 1 5 1 7 0 3 6 12
15 21 21 23 19 16 47 116 15 54 16 58 14 67 -2 9 -11 23 -15 23 -1 0 -4 2 -8
5 -3 2 -8 5 -9 6 -7 2 -11 11 -11 23 0 20 8 27 29 27 27 -1 48 10 51 27 2 7
10 17 13 15 1 -1 2 -2 1 -3 -1 -1 0 -4 1 -6 2 -1 5 -11 8 -20 7 -27 12 -38 21
-47 11 -11 25 -16 42 -14 16 1 22 4 39 20 23 22 37 22 60 0 19 -17 23 -19 48
-21 11 -1 23 -2 25 -3 2 0 11 -2 19 -4 21 -4 30 -15 20 -24 -5 -5 -7 -6 -16
-2 -10 4 -33 2 -40 -3 -6 -4 -24 -38 -29 -57 -7 -22 -10 -26 -23 -39 -7 -7
-16 -19 -21 -26 -6 -8 -10 -15 -11 -16 -1 -1 -3 -4 -6 -8 -2 -4 -9 -14 -15
-22 -7 -9 -14 -18 -17 -22 -3 -4 -15 -18 -26 -33 l-21 -26 -7 -23 c-3 -12 -7
-24 -9 -26 -2 -2 -10 -6 -18 -8 -34 -10 -55 -29 -70 -61 -3 -7 -9 -15 -16 -21
-12 -12 -13 -14 -13 -31 -1 -13 1 -15 15 -22 18 -9 24 -8 63 12 68 34 105 56
115 68 4 5 7 9 7 10 0 0 3 5 6 11 5 9 13 26 18 42 3 10 2 20 -3 43 -6 26 -6
25 -1 31 8 9 19 3 28 -14 2 -4 9 -15 15 -22 12 -17 17 -30 17 -46 0 -6 1 -17
3 -25 6 -23 13 -35 26 -40 6 -3 8 -3 25 -7 5 -1 17 -5 26 -9 l17 -8 69 0 69 0
6 -5 c3 -4 7 -6 8 -6 2 0 3 -1 2 -2 -1 -1 1 -4 4 -7 6 -8 30 -11 32 -5 1 2 2
4 3 4 2 0 10 17 18 38 4 9 10 12 26 12 19 1 23 -4 30 -36 6 -28 7 -40 3 -44
-4 -4 -24 -14 -28 -14 -1 0 -9 -5 -18 -11 -15 -10 -17 -11 -29 -12 -33 -1 -47
-14 -46 -39 1 -7 0 -10 -5 -15 -6 -6 -6 -6 -22 -5 -19 0 -31 -3 -40 -11 -6 -6
-15 -25 -15 -33 0 -2 -2 -5 -5 -8 -10 -9 -33 -3 -33 8 0 8 -9 27 -15 33 -4 4
-10 7 -15 9 -10 3 -208 3 -218 0 -16 -5 -23 -16 -24 -34 -1 -7 13 -54 19 -63
8 -14 25 -17 44 -8 18 8 19 8 56 -12 8 -4 10 -4 135 -4 l127 0 6 -7 c4 -3 7
-8 8 -10 1 -2 4 -6 7 -8 7 -5 31 -6 37 -1 15 12 34 -10 20 -23 -4 -4 -6 -4
-15 -3 -17 1 -35 -5 -42 -16 -9 -14 -10 -24 -10 -146 0 -124 0 -125 12 -129 6
-3 28 -6 28 -4 0 1 3 4 6 8 3 4 11 14 16 22 11 17 17 21 31 21 15 0 27 -9 27
-19 0 -9 16 -34 22 -35 2 0 4 -1 6 -2 8 -5 41 4 81 24 47 23 57 31 66 51 l6
13 0 126 0 126 6 6 6 6 171 -1 c190 0 177 -1 199 13 5 4 14 9 19 10 5 2 10 4
11 5 1 1 6 3 10 4 22 7 31 31 19 54 -5 9 -19 23 -54 51 -33 26 -36 28 -66 28
-32 1 -31 1 -41 34 -5 16 -6 18 -17 29 -6 6 -14 13 -18 15 -11 6 -34 1 -42 -8
-5 -6 -14 -9 -28 -10 -37 -2 -35 -1 -93 -80 -12 -17 -20 -20 -47 -21 l-23 -1
-6 6 -6 6 0 62 0 62 6 6 6 6 47 -1 48 0 22 7 c33 11 33 11 69 1 28 -8 36 -4
67 32 10 11 13 10 30 -3 7 -6 15 -13 17 -15 2 -2 9 -6 14 -10 6 -4 11 -8 13
-9 1 -2 7 -3 16 -3 13 0 14 0 20 7 3 4 8 12 10 18 5 15 6 16 20 24 19 13 29
26 36 46 15 45 56 80 121 100 21 7 30 12 40 21 8 9 8 9 7 22 0 8 -5 17 -11 23
-1 1 -7 8 -12 16 -19 29 -32 36 -68 35 -27 -2 -35 0 -48 9 -12 8 -23 13 -31
14 -7 2 -8 2 -17 5 -4 1 -22 6 -40 11 -63 18 -148 49 -179 65 -4 2 -9 4 -11 4
-3 0 -4 0 -1 2 2 1 2 2 1 2 -2 0 -3 1 -3 3 0 1 -2 3 -4 5 -2 1 -3 3 -3 5 1 3
1 3 0 2 -5 -7 -44 -4 -59 4 -15 8 -14 42 2 49 19 8 42 -2 42 -17 0 -4 13 -32
16 -34 1 -1 2 -3 2 -6 0 -3 0 -3 2 -1 1 2 2 2 2 1 0 -2 28 -3 127 -2 117 0
127 0 138 4 11 4 29 17 29 22 0 2 1 3 2 3 1 0 4 8 12 30 3 8 11 10 32 11 24 0
28 5 23 28 -1 5 -9 14 -24 26 -5 4 -11 9 -12 10 -5 5 -42 34 -66 52 -14 11
-27 20 -29 22 -18 14 -46 34 -57 41 -8 5 -16 11 -18 14 -3 6 -4 10 -3 42 0 11
-1 22 -2 26 -1 4 -2 13 -2 20 0 27 -6 42 -18 51 -3 2 -17 12 -30 22 -14 10
-28 19 -31 20 -23 4 -36 9 -37 14 0 1 -2 5 -3 8 -2 4 -3 8 -3 9 0 1 -1 2 -2 3
-2 0 -2 1 0 1 2 0 5 1 6 3 2 2 5 4 7 5 3 1 52 2 109 2 92 0 104 1 113 4 14 4
22 13 27 29 3 8 7 17 8 21 4 12 5 35 2 42 -6 11 -49 45 -135 108 -24 18 -60
45 -65 50 -5 5 -17 8 -25 7 -10 -1 -15 -6 -18 -20 -6 -22 -6 -23 -25 -31 -19
-9 -26 -15 -33 -31 -3 -7 -6 -14 -8 -17 -1 -3 -8 -7 -21 -13 -11 -4 -22 -9
-24 -11 -1 -2 -8 -6 -14 -9 l-11 -5 -54 0 c-54 0 -55 0 -63 5 -5 3 -11 5 -12
5 -2 0 -4 1 -3 2 1 5 -15 10 -31 11 -13 1 -17 2 -20 5 -7 7 -5 13 10 43 12 22
12 22 38 23 25 0 37 3 44 14 7 10 23 25 35 32 29 16 39 37 30 60 -5 12 -19 19
-47 24 -12 2 -29 5 -38 7 -18 3 -18 3 -49 8 -11 2 -21 4 -21 4 -3 2 -25 -5
-32 -10 -5 -3 -11 -9 -14 -15 -3 -5 -7 -10 -8 -12 -1 -2 -3 -4 -4 -5 -5 -8
-25 -11 -32 -5 -5 3 -5 5 -5 23 0 36 -6 42 -49 49 -33 5 -32 5 -41 4z m210
-82 c13 -8 18 -33 8 -43 -7 -7 -23 -7 -31 1 -6 6 -10 21 -9 31 3 14 17 19 32
11z m-175 -141 c12 -5 18 -21 14 -36 -3 -11 -7 -15 -24 -22 -7 -3 -20 -10 -30
-14 -15 -9 -20 -10 -35 -9 -2 0 -6 3 -9 6 -5 5 -6 7 -6 18 0 12 1 13 7 19 3 3
12 9 18 12 7 4 15 10 20 14 15 13 31 17 45 12z m345 -179 c4 -3 7 -6 6 -6 -1
0 -7 -7 -14 -16 -7 -9 -17 -23 -24 -31 -11 -16 -18 -27 -20 -37 -4 -19 -5 -22
-18 -35 -6 -6 -11 -14 -12 -18 -1 -3 -2 -7 -2 -7 0 -1 -1 -2 -1 -3 0 -1 -1 -2
-1 -3 0 -1 -1 -3 -1 -3 0 -1 -1 -3 -1 -4 0 -4 -6 -11 -9 -11 -3 0 -8 6 -9 10
0 1 -1 4 -3 7 -1 3 -3 8 -3 10 -1 5 -7 13 -14 18 -5 3 -9 4 -34 5 -28 1 -29 1
-34 6 -2 3 -4 6 -3 6 2 1 27 91 29 105 0 1 3 4 7 7 l7 6 73 0 73 0 8 -6z
m-267 -7 c17 -7 20 -31 7 -52 -3 -4 -6 -9 -6 -11 0 -2 -1 -3 -1 -3 -3 0 -3
-25 0 -34 5 -21 -6 -37 -27 -38 -28 -2 -39 26 -22 54 3 4 6 9 6 11 0 2 1 3 1
3 3 0 3 25 0 35 -2 9 0 22 6 29 7 8 24 11 36 6z m369 -38 c4 -5 4 -7 2 -20 -2
-15 -5 -19 -15 -21 -18 -4 -28 4 -28 21 0 13 5 20 17 22 4 1 8 2 8 3 3 5 12 2
16 -5z m20 -101 c8 -4 13 -16 16 -42 3 -25 7 -37 13 -44 2 -2 6 -9 9 -15 l4
-12 -8 -7 c-4 -4 -9 -8 -11 -9 -2 -1 -4 -2 -4 -3 0 -1 -1 -2 -3 -2 -5 0 -16
-13 -46 -56 -7 -10 -13 -15 -20 -19 l-10 -5 -183 0 c-101 0 -189 1 -197 2 -19
3 -29 8 -36 19 -7 11 -15 18 -33 25 -19 8 -22 11 -22 25 0 12 4 17 19 28 10 6
15 13 16 21 2 13 2 15 -1 24 -9 31 10 45 37 27 14 -9 34 -12 45 -7 8 3 24 3
30 0 3 -1 8 -6 12 -9 9 -9 23 -13 38 -12 27 2 28 2 46 -15 15 -15 40 -19 68
-13 17 4 37 4 53 0 14 -3 112 -4 123 -1 17 5 25 27 18 46 -7 18 -4 48 5 54 5
3 16 3 22 0z m-600 -133 c4 -4 5 -7 5 -15 0 -14 -6 -20 -20 -20 -14 0 -20 6
-20 20 0 14 6 20 20 20 8 0 11 -1 15 -5z m770 -69 c16 -7 16 -43 -1 -50 -15
-6 -34 -2 -39 9 -4 8 -4 24 0 32 5 12 23 15 40 9z m-127 -41 l-5 -5 -4 4 -5 5
4 4 5 5 4 -4 5 -5 -4 -4z m-255 -101 c4 -3 7 -6 6 -6 0 0 1 -5 4 -11 2 -7 7
-17 9 -23 2 -6 7 -15 9 -21 3 -5 9 -20 15 -32 5 -12 14 -30 19 -39 5 -9 9 -16
9 -17 0 -2 43 -73 46 -75 2 -2 6 -12 6 -16 0 -2 0 -2 -2 0 -1 1 -2 1 -4 -3 -1
-4 -3 -4 -13 -4 -7 0 -15 -1 -20 -2 -13 -5 -24 -4 -36 3 -8 4 -14 6 -20 6 -11
0 -25 -3 -25 -6 0 -1 -5 -8 -11 -16 -6 -7 -11 -15 -12 -17 0 -3 -1 -3 -1 -1 0
2 -2 4 -5 5 -2 0 -5 3 -7 6 -1 3 -3 5 -4 5 -1 0 -2 1 -2 3 0 1 -6 8 -14 16
-18 17 -19 25 -7 44 7 12 9 30 2 37 -5 6 -21 10 -45 10 -8 0 -14 8 -14 21 0 5
1 11 2 12 2 2 1 15 -2 29 -2 8 -18 15 -35 16 -6 0 -12 0 -13 1 0 0 -11 1 -23
2 -12 1 -22 2 -23 2 -1 0 -11 1 -23 2 -12 1 -22 2 -23 2 -1 0 -10 1 -21 2 -39
2 -39 3 -18 36 15 22 17 24 21 28 9 7 13 7 140 7 l127 0 8 -6z m-477 -86 c5
-5 5 -11 0 -16 -10 -10 -27 5 -16 16 4 4 12 4 16 0z m139 -17 c5 -8 5 -8 5
-59 0 -66 1 -69 25 -80 7 -3 13 -6 14 -6 3 0 9 -8 9 -12 0 -2 -2 -6 -4 -8 -2
-2 -4 -3 -4 -3 0 1 -2 0 -5 -2 -3 -2 -6 -3 -8 -3 -6 0 -9 -7 -8 -23 0 -15 0
-15 7 -21 13 -11 14 -13 17 -19 10 -22 -3 -32 -27 -23 -9 3 -12 5 -15 12 -2 5
-5 12 -6 15 -2 3 -3 7 -3 8 0 4 -13 18 -21 21 -10 5 -17 5 -36 0 -9 -2 -21 -4
-28 -4 -7 0 -19 2 -28 4 -10 3 -22 4 -34 4 -18 0 -41 4 -43 8 0 1 -2 2 -4 2
-4 0 -4 0 -2 3 3 2 3 7 2 16 0 2 -7 6 -15 10 -18 9 -21 12 -21 27 0 15 7 22
23 22 15 0 20 -5 27 -28 l5 -16 10 1 c22 3 22 2 48 28 36 37 64 67 88 98 3 4
7 9 9 11 2 2 5 6 7 9 2 3 5 7 7 8 1 2 2 4 2 5 0 4 2 2 7 -5z m602 -33 c16 -7
16 -43 0 -50 -3 -1 -11 -3 -18 -5 -17 -5 -26 -13 -34 -29 -10 -21 -13 -23 -28
-25 -14 -2 -18 -1 -26 5 -3 3 -5 5 -3 7 2 3 8 18 10 26 3 12 14 42 17 46 4 6
20 15 41 22 23 7 27 8 41 3z m-1250 -82 c11 -10 3 -28 -11 -28 -9 0 -16 6 -16
16 0 14 17 22 27 12z m1125 -19 c2 0 4 -1 6 -2 1 -1 2 -1 2 0 0 2 5 -5 5 -7 0
-1 2 -5 5 -9 3 -4 5 -9 6 -10 5 -14 11 -23 12 -23 7 0 27 -9 29 -13 2 -3 4 -9
4 -15 1 -14 -4 -19 -24 -21 -8 -1 -21 -2 -29 -3 -22 -3 -30 -4 -36 -1 -20 8
-23 34 -7 52 4 4 7 10 7 13 0 3 1 6 1 8 0 2 0 5 1 8 0 2 1 4 2 3 3 -2 7 13 4
16 -2 2 -2 3 0 3 2 0 2 1 0 2 -2 2 -2 2 3 1 3 -1 7 -1 9 -2z m-218 -71 c5 -5
5 -15 0 -20 -9 -9 -24 -2 -24 10 0 8 6 14 14 14 3 0 8 -2 10 -4z m-1071 -101
c6 -4 30 -28 34 -35 6 -10 6 -16 1 -22 -4 -4 -5 -4 -17 -3 -19 2 -49 10 -53
14 -12 12 -7 45 6 45 2 0 4 1 5 2 1 2 20 1 24 -1z m170 -132 c3 -3 3 -3 0 -6
-4 -5 -11 1 -7 6 4 4 4 4 7 0z m839 -14 c8 -8 5 -38 -5 -48 -2 -3 -11 -8 -21
-11 -40 -15 -55 -8 -44 20 6 17 19 33 31 39 14 7 32 7 39 0z m-794 -83 c9 -8
9 -26 0 -34 -5 -5 -7 -6 -18 -6 -27 0 -38 11 -29 31 7 15 36 20 47 9z m793
-74 c5 -5 6 -7 6 -16 0 -15 -8 -23 -23 -23 -9 0 -11 1 -16 7 -9 8 -9 23 -1 32
9 9 24 9 34 0z m-39 -95 c14 -7 14 -41 0 -48 -3 -2 -11 -3 -17 -3 -14 0 -22 4
-25 12 -4 9 -3 24 1 31 6 12 26 16 41 8z m-756 -53 c1 0 5 -3 8 -6 5 -5 6 -7
6 -18 0 -11 -1 -13 -6 -18 -6 -6 -7 -6 -18 -6 -11 0 -12 0 -18 6 -5 5 -6 7 -6
17 0 14 3 20 12 24 5 2 8 2 22 1z m752 -49 c18 -4 28 -8 29 -10 4 -6 4 -14 -1
-19 -4 -4 -6 -4 -38 -3 -31 1 -33 2 -38 6 -6 6 -6 21 0 28 6 7 15 6 48 -2z"/>
<path d="M1170 3178 c-9 -4 -18 -7 -18 -8 -2 -3 -2 -31 -1 -37 1 -4 3 -5 6 -5
3 0 7 -1 10 -3 7 -4 30 -3 38 2 14 9 17 38 6 49 -9 9 -20 9 -41 2z"/>
<path d="M1337 2860 c-1 -1 -3 -2 -3 -1 0 0 -2 -1 -4 -4 -4 -3 -5 -6 -4 -16 0
-8 0 -12 -2 -13 -3 -2 9 -4 25 -5 l10 0 1 15 c0 12 -1 16 -3 20 -4 5 -14 7
-20 4z"/>
<path d="M222 3824 c-22 -10 -31 -31 -22 -54 4 -11 7 -15 24 -41 48 -74 101
-193 109 -244 4 -19 14 -42 25 -52 10 -10 44 -26 60 -30 25 -5 31 -5 49 -4 25
1 39 5 62 16 19 10 33 20 44 31 5 6 6 8 6 19 0 13 0 13 -7 17 -6 5 -14 6 -39
6 -14 0 -21 24 -10 35 5 5 6 5 21 4 29 -3 38 -2 45 4 21 19 20 37 -1 60 -11
11 -13 20 -7 30 3 5 4 20 1 29 -3 6 -10 14 -12 13 -1 -1 -8 1 -15 3 -17 5 -24
13 -23 29 1 27 -1 40 -8 48 -8 10 -52 33 -93 48 -47 17 -128 34 -178 36 -18 1
-21 1 -31 -3z m137 -89 c3 -5 3 -5 0 -10 -2 -3 -5 -5 -7 -5 -2 0 -5 2 -7 5 -3
5 -3 5 0 10 2 3 5 5 7 5 2 0 5 -2 7 -5z m121 -93 c1 0 5 -3 8 -6 5 -5 6 -7 6
-18 0 -11 -1 -13 -6 -18 -6 -6 -7 -6 -18 -6 -11 0 -12 0 -18 6 -5 5 -6 7 -6
17 0 14 3 20 12 24 5 2 8 2 22 1z"/>
<path d="M660 3424 c-11 -6 -15 -12 -24 -30 -10 -19 -10 -29 -1 -46 l4 -9 12
0 c17 0 22 5 31 26 3 10 8 19 10 22 6 7 4 27 -2 35 -5 7 -20 8 -30 2z"/>
<path d="M118 3358 c-8 -4 -17 -12 -20 -19 -3 -7 -14 -21 -19 -23 -6 -2 -17
-11 -19 -16 -3 -6 -5 -26 -3 -28 3 -2 13 -17 30 -44 20 -32 46 -84 58 -116 13
-36 19 -50 21 -51 1 -1 3 -4 5 -8 3 -9 19 -24 26 -27 7 -3 18 -3 24 0 5 4 17
8 21 8 3 0 8 -5 8 -9 0 -4 -6 -16 -8 -18 -1 -1 -2 -7 -2 -14 1 -14 6 -20 21
-26 16 -6 55 -3 76 7 15 7 31 15 36 19 10 7 45 43 45 46 0 2 1 3 2 3 4 0 13
25 15 41 1 6 4 20 7 33 7 26 7 39 0 61 -20 60 -62 104 -133 138 -37 18 -48 21
-61 20 -9 -1 -26 -8 -30 -13 -4 -5 -14 -9 -22 -9 -12 0 -18 5 -25 18 -8 13
-21 26 -30 29 -11 3 -12 3 -23 -2z"/>
<path d="M635 3320 c-1 -1 -8 -4 -16 -6 -8 -3 -15 -6 -17 -7 -7 -6 -12 -12
-16 -20 -2 -4 -9 -18 -15 -31 -12 -26 -14 -35 -11 -47 3 -11 8 -13 34 -14 37
-1 51 6 58 31 2 6 7 21 11 34 4 13 7 26 7 29 1 9 -4 20 -10 24 -8 4 -23 9 -25
7z"/>
</g>
</svg>
