<?xml version="1.0" standalone="no"?>
<!DOCTYPE svg PUBLIC "-//W3C//DTD SVG 20010904//EN"
 "http://www.w3.org/TR/2001/REC-SVG-20010904/DTD/svg10.dtd">
<svg version="1.0" xmlns="http://www.w3.org/2000/svg"
 width="1139.000000pt" height="2870.000000pt" viewBox="0 0 1139.000000 2870.000000"
 preserveAspectRatio="xMidYMid meet">
<metadata>
Created by potrace 1.15, written by Peter Selinger 2001-2017
</metadata>
<g transform="translate(0.000000,2870.000000) scale(0.500000,-0.500000)"
fill="#000000" stroke="none">
<path d="M1243 3862 c-12 -4 -24 -15 -27 -25 -1 -6 -2 -24 -2 -51 0 -47 2 -59
11 -68 17 -18 17 -30 0 -48 -6 -6 -11 -21 -11 -32 0 -14 6 -28 19 -42 22 -24
22 -40 0 -64 -7 -8 -13 -16 -12 -17 0 -2 0 -3 -1 -3 -1 0 -5 -2 -8 -4 -6 -5
-8 -5 -69 -6 l-62 -1 -6 6 c-5 6 -6 8 -6 18 0 15 -5 25 -19 41 -16 17 -16 21
-1 36 5 6 16 15 24 20 27 16 34 22 43 31 4 5 8 10 8 11 0 1 1 2 2 2 4 2 18 37
18 47 0 7 -6 21 -11 26 -7 5 -25 10 -41 12 -8 0 -62 5 -120 11 -58 6 -112 10
-120 11 -23 0 -35 -8 -42 -27 -1 -5 -2 -37 -2 -108 0 -119 1 -113 -21 -131 -8
-6 -8 -7 -15 -15 -6 -7 -6 -28 0 -33 5 -4 22 -11 29 -11 8 0 11 -2 18 -13 5
-5 10 -12 12 -14 3 -2 5 -5 5 -7 0 -1 2 -2 5 -2 7 0 11 -2 14 -4 1 -1 3 -2 5
-2 5 0 10 -7 10 -14 0 -7 -6 -14 -12 -14 -2 0 -4 -1 -5 -2 -1 -1 -3 -2 -5 -1
-3 1 -26 3 -37 4 -2 0 -6 2 -8 3 -2 2 -4 3 -5 3 -2 -1 -23 9 -32 15 -5 3 -32
19 -54 31 -13 8 -33 6 -45 -4 -11 -10 -14 -11 -33 -12 -13 0 -20 -2 -27 -5 -9
-4 -17 -13 -17 -19 0 -1 -1 -3 -2 -4 -1 -1 -2 0 -2 1 0 1 -1 1 -3 1 -4 -2 -6
11 -5 52 0 43 -1 50 -12 75 -10 21 -11 31 -1 51 12 25 13 29 13 75 0 50 1 54
19 63 25 12 52 53 52 78 0 21 -15 36 -38 38 -4 1 -18 2 -30 3 -12 1 -27 2 -34
3 -7 1 -21 2 -32 3 -33 3 -47 -4 -47 -25 0 -10 1 -13 9 -25 12 -18 13 -29 4
-41 -3 -5 -7 -8 -7 -9 -1 0 -2 -2 -2 -3 0 -1 -1 -3 -2 -3 -1 -1 -12 -22 -12
-25 0 -3 -9 -13 -12 -13 -2 0 -5 2 -6 5 -4 4 -4 6 -1 18 6 24 5 32 -5 49 -13
21 -16 29 -16 39 0 9 -5 24 -11 32 -6 8 -14 11 -36 14 -41 5 -55 1 -66 -19
l-5 -11 0 -111 c0 -105 0 -111 4 -119 2 -5 5 -10 7 -10 2 -1 4 -2 5 -3 2 -3
18 -5 30 -4 15 0 22 -5 22 -18 0 -13 -7 -19 -21 -17 -12 1 -30 -4 -36 -9 -8
-7 -9 -13 -9 -44 0 -33 4 -45 15 -58 8 -8 13 -20 12 -26 -1 -3 -5 -10 -9 -15
-16 -19 -17 -23 -17 -69 -1 -38 -1 -40 -5 -47 l-5 -7 -6 19 c-17 48 -47 114
-58 127 l-8 8 -14 0 -13 -1 -6 -10 c-4 -8 -5 -13 -5 -25 0 -8 0 -36 1 -62 0
-26 0 -49 -1 -52 0 -3 -1 -14 -2 -25 -1 -10 -2 -21 -2 -23 -4 -23 -7 -48 -6
-55 1 -8 3 -13 14 -31 10 -18 6 -27 -15 -36 -24 -10 -29 -14 -40 -29 -3 -4
-13 -17 -22 -29 -48 -63 -59 -121 -33 -173 5 -11 10 -19 11 -19 1 0 2 -2 4 -5
2 -6 31 -26 47 -34 7 -3 14 -6 16 -7 6 -4 32 -5 42 -2 27 7 53 24 67 43 5 8
13 16 17 19 4 2 7 6 7 8 0 2 2 -1 5 -5 l5 -8 -1 -40 c-1 -22 -2 -45 -2 -51 0
-6 -2 -25 -3 -43 -4 -58 -12 -140 -17 -174 -3 -18 1 -30 14 -51 8 -11 9 -14 9
-23 0 -13 -2 -16 -25 -33 -6 -4 -12 -10 -12 -12 -1 -2 -2 -4 -3 -4 -2 0 -9
-21 -16 -50 -9 -39 -31 -113 -38 -129 -1 -2 -5 -13 -9 -24 -4 -11 -9 -24 -11
-28 -2 -4 -7 -16 -12 -26 -13 -30 -23 -51 -35 -73 -7 -12 -13 -22 -14 -24 0
-2 -5 -9 -9 -16 -5 -7 -10 -16 -12 -20 -3 -4 -11 -16 -18 -27 -8 -10 -16 -22
-17 -26 -6 -14 -2 -39 6 -42 2 0 10 -1 17 -1 14 0 14 0 23 8 10 9 16 11 36 12
8 0 16 1 18 1 7 2 20 9 23 11 2 2 6 5 9 8 25 19 95 89 109 108 1 3 4 6 6 8 2
2 6 7 9 11 3 4 8 10 9 12 2 2 8 10 14 19 6 8 11 15 12 16 2 1 34 52 34 53 0 1
2 4 4 7 3 4 10 17 25 46 5 9 4 20 -4 35 -4 8 -8 15 -9 16 -1 1 -2 6 -2 10 0 9
6 17 13 17 6 0 27 7 35 12 9 5 15 16 27 50 9 29 17 52 18 57 10 41 23 90 24
91 2 3 6 2 9 -1 2 -3 5 -14 9 -37 0 -3 2 -17 4 -31 4 -34 6 -37 31 -44 10 -2
12 -2 14 0 2 3 3 2 7 -1 l5 -5 -4 -4 c-4 -4 -5 -5 -8 -2 -2 2 -4 2 -12 -1 -6
-2 -10 -3 -10 -3 0 1 -3 0 -6 -2 -8 -4 -12 -15 -14 -38 -4 -43 3 -59 36 -81
16 -11 26 -14 46 -14 14 0 21 -1 36 -6 25 -8 33 -8 58 4 20 10 28 16 47 34 13
13 31 38 31 44 0 4 1 4 1 1 1 -2 3 -5 6 -7 4 -4 4 -5 4 -62 0 -58 0 -59 -5
-69 -5 -12 -16 -23 -39 -39 -38 -27 -41 -30 -41 -49 0 -12 1 -13 14 -33 7 -12
24 -37 36 -56 129 -196 114 -176 132 -178 19 -1 22 1 44 30 10 13 22 26 32 33
5 3 15 11 22 18 8 7 18 15 24 18 14 7 63 44 64 47 0 2 0 7 1 11 2 10 -1 21 -8
29 -8 9 -9 18 -6 38 5 22 4 27 -3 47 -7 20 -7 25 -1 31 8 8 25 2 25 -9 0 -6 7
-34 10 -39 1 -3 5 -8 7 -11 3 -4 7 -10 10 -15 7 -14 17 -21 32 -22 11 0 13 0
18 5 3 3 13 10 21 17 28 23 81 66 82 68 1 1 6 6 13 11 17 14 52 45 61 53 5 5
8 6 9 5 8 -9 8 -9 9 -53 1 -24 2 -44 2 -46 7 -21 16 -29 43 -35 22 -5 37 -4
57 5 19 10 32 9 43 -1 10 -8 10 -34 0 -42 -9 -9 -14 -9 -41 -6 -10 2 -31 -3
-39 -8 -2 -1 -8 -3 -12 -4 -31 -5 -43 -23 -34 -49 6 -16 10 -21 17 -24 9 -4
27 -3 38 2 15 7 29 7 39 -2 5 -4 7 -11 8 -27 1 -10 2 -17 6 -25 12 -23 26 -25
175 -23 57 0 110 2 118 3 8 1 19 2 24 3 5 1 11 1 14 2 3 1 7 1 10 2 7 1 27 11
29 15 15 19 22 23 43 21 27 -2 38 2 64 27 21 20 39 54 45 82 5 23 2 66 -5 83
-4 10 -6 15 -5 17 0 2 -9 18 -15 26 -3 5 -14 17 -25 28 l-20 18 -12 1 c-9 1
-15 0 -25 -3 l-12 -5 -4 4 c-7 7 -8 46 -3 60 4 10 5 11 25 19 24 11 31 25 29
62 -2 44 -3 51 -5 56 -2 7 0 13 6 19 7 6 20 7 41 3 15 -3 28 0 44 11 12 8 17
17 17 30 0 12 -3 18 -15 31 -13 14 -24 25 -47 50 -12 13 -25 26 -29 31 -4 5
-17 19 -29 31 -12 13 -25 26 -29 31 -4 5 -15 16 -24 26 -20 22 -27 25 -47 26
-14 0 -16 -1 -33 -9 -13 -7 -19 -11 -24 -17 -3 -5 -17 -24 -31 -43 -36 -50
-50 -68 -58 -78 -5 -5 -8 -11 -8 -13 0 -3 -1 -3 -2 1 -1 2 -3 4 -4 4 -4 0 -6
15 -6 42 0 25 0 27 6 36 3 6 6 10 8 10 4 0 27 24 33 35 3 5 7 14 8 19 4 12 14
21 26 23 10 2 36 11 39 15 2 3 22 8 37 11 23 4 23 4 37 11 11 6 19 13 28 23 1
2 5 8 8 15 l5 11 1 86 c0 99 0 107 -11 112 -4 2 -11 3 -17 3 -6 0 -10 1 -11 3
0 1 -1 1 -1 -1 0 -10 -21 -12 -29 -3 -7 6 -7 22 0 28 8 9 29 7 29 -3 0 -2 1
-2 1 0 1 1 5 2 11 2 6 0 13 1 17 3 9 4 11 16 11 56 0 31 0 32 6 40 3 5 6 9 8
9 5 0 33 19 41 28 6 7 7 9 7 18 0 11 -5 23 -10 26 -2 1 -6 6 -8 11 -5 10 -14
19 -21 19 -2 0 -8 1 -14 1 -7 1 -11 0 -13 -2 -2 -2 -7 -3 -13 -3 -18 0 -24 13
-16 36 7 19 2 35 -17 49 -13 9 -9 16 12 24 8 3 17 8 20 11 7 6 16 29 16 39 0
8 6 16 14 20 9 4 21 15 25 23 4 6 4 14 5 79 0 78 0 84 -10 92 -6 6 -24 11 -38
11 -15 0 -22 7 -22 23 0 24 17 30 47 16 27 -13 42 -10 66 14 11 12 27 41 29
53 1 9 -3 26 -7 26 -1 0 -1 1 0 1 1 2 -7 8 -16 12 -7 3 -17 4 -43 6 -9 1 -20
2 -24 2 -4 0 -14 1 -23 2 -9 1 -20 2 -25 2 -5 1 -24 2 -43 3 -19 1 -39 3 -45
4 -6 1 -18 2 -27 3 -9 0 -27 2 -39 3 -16 2 -25 2 -28 0 -2 -1 -4 -1 -4 -1 -1
0 -6 -2 -11 -5 -8 -4 -11 -7 -16 -17 l-6 -12 0 -116 0 -116 -6 -6 -6 -6 -67 0
c-63 0 -67 0 -70 4 -4 4 -20 5 -20 1 0 -1 -1 -2 -2 -1 -1 1 -3 0 -5 -2 -2 -2
-3 -3 -3 -2 0 1 -3 -2 -7 -6 -5 -4 -10 -9 -11 -10 -8 -8 -28 -7 -34 1 -6 7 -5
25 1 31 8 9 33 7 33 -3 0 -2 0 -2 2 0 1 2 4 2 8 1 11 -2 21 2 26 11 4 7 4 12
4 78 0 84 0 82 -20 102 -16 16 -18 20 -19 32 0 27 23 37 49 22 12 -7 29 -8 39
-4 5 3 13 16 19 33 3 12 4 14 1 23 -4 13 -12 22 -23 27 -6 2 -41 6 -151 14
-78 6 -143 11 -145 12 -2 0 -7 -1 -13 -3z m546 -148 c6 -4 7 -6 10 -18 1 -7
-7 -12 -15 -10 -9 3 -12 5 -14 14 -4 15 6 22 19 14z m-890 -97 c6 -4 6 -6 6
-20 0 -14 0 -16 -6 -20 -4 -4 -7 -5 -18 -5 -11 0 -14 1 -18 5 -6 4 -6 6 -6 20
0 14 0 16 6 20 4 4 7 5 18 5 11 0 14 -1 18 -5z m859 -37 c5 -6 5 -12 0 -18 -7
-8 -22 -2 -22 9 0 11 15 17 22 9z m-848 -69 c2 -3 4 -7 4 -8 0 -6 9 -21 18
-32 12 -14 13 -17 12 -31 -2 -15 -5 -17 -23 -17 -22 0 -23 1 -22 35 0 21 -1
29 -4 39 -3 11 -3 11 0 16 5 7 9 6 15 -2z m-415 -13 c9 -9 11 -37 3 -45 -7 -7
-27 -7 -34 0 -8 8 -5 38 5 46 8 7 19 7 26 -1z m520 -102 c15 -12 32 -17 51
-14 2 1 13 0 26 -2 18 -2 79 -2 291 -2 l268 1 6 -6 c7 -8 7 -15 -1 -28 -5 -8
-6 -9 -10 -9 -2 0 -31 -28 -36 -35 -2 -2 -7 -6 -12 -9 l-9 -5 -225 0 c-251 0
-229 -1 -274 15 -42 16 -47 18 -52 23 -4 6 -11 19 -9 19 1 0 0 3 -2 6 -4 8
-14 12 -31 12 -14 0 -15 0 -20 6 -5 4 -6 7 -6 13 0 17 2 20 12 24 12 4 20 2
33 -9z m-91 -80 c5 -6 5 -12 0 -18 -7 -8 -22 -2 -22 9 0 11 15 17 22 9z m-179
-16 c4 -6 4 -24 -1 -30 -7 -9 -27 -9 -34 0 -5 6 -5 24 0 30 7 9 27 9 35 0z
m71 -66 c1 0 1 -30 2 -67 1 -73 1 -75 16 -90 18 -20 19 -43 3 -61 -20 -23 -19
-16 -20 -160 -1 -69 -2 -164 -3 -212 -1 -88 -1 -88 -5 -92 -3 -2 -5 -5 -5 -6
0 -2 -2 1 -3 6 -5 14 -22 40 -42 66 -15 19 -52 52 -72 66 -12 8 -28 19 -35 25
-8 6 -17 12 -21 14 -30 17 -41 23 -47 25 -23 9 -29 19 -26 42 2 24 -7 41 -25
49 -15 6 -16 9 -16 33 0 19 -1 22 -4 27 -6 8 -31 21 -44 22 -21 3 -25 8 -23
29 2 23 6 25 31 16 13 -5 25 -5 41 1 28 10 44 20 48 31 2 7 3 9 10 24 3 9 15
21 34 37 11 9 40 35 52 47 6 5 13 12 17 15 3 4 12 14 19 23 12 16 14 18 35 33
7 5 23 20 35 33 26 27 36 34 43 28 2 -2 4 -3 5 -4z m529 -9 c5 -5 7 -18 3 -22
-1 -1 0 -7 2 -15 4 -15 10 -23 21 -25 3 -1 54 -1 112 -1 l106 1 6 -6 c6 -6 6
-7 6 -30 0 -13 1 -31 1 -40 0 -14 0 -16 -4 -20 -8 -9 -21 -5 -33 8 -9 12 -24
18 -44 19 -28 1 -39 -5 -50 -26 -3 -5 -7 -10 -9 -11 -7 -2 -12 1 -17 11 -6 13
-16 21 -25 24 -5 1 -54 2 -146 2 l-139 -1 -6 6 c-6 6 -6 7 -6 29 0 22 0 23 6
29 l6 6 76 -1 c84 0 86 0 94 7 6 6 14 30 11 34 -1 1 -2 5 -2 9 0 11 7 18 18
18 6 0 9 -1 13 -5z m-428 -8 c12 -12 3 -31 -13 -31 -11 0 -18 7 -18 18 0 11 7
18 18 18 6 0 9 -1 13 -5z m-378 -38 c6 -4 6 -6 6 -20 0 -14 0 -16 -6 -20 -4
-4 -7 -5 -18 -5 -11 0 -14 1 -18 5 -6 4 -6 6 -6 20 0 14 0 16 6 20 4 4 7 5 18
5 11 0 14 -1 18 -5z m-163 -31 c1 0 5 -3 8 -6 5 -5 6 -7 6 -18 0 -11 -1 -13
-6 -18 -6 -6 -7 -6 -21 -6 -9 0 -18 5 -19 13 -1 3 -2 4 -2 2 0 -5 -3 -2 -5 6
-2 11 3 21 6 12 0 -3 1 -2 1 1 0 6 4 11 11 13 4 2 8 2 21 1z m519 -24 c10 -9
3 -26 -10 -26 -8 0 -15 7 -15 15 0 13 16 20 25 11z m-454 -93 c3 -5 3 -5 0
-10 -2 -3 -5 -5 -7 -5 -2 0 -5 2 -7 5 -3 5 -3 5 0 10 2 3 5 5 7 5 2 0 5 -2 7
-5z m1154 -66 l6 -6 0 -35 0 -35 -6 -6 -6 -6 -71 1 c-77 0 -82 0 -92 -11 -5
-5 -12 -27 -10 -31 1 -2 2 -7 3 -12 1 -11 2 -15 5 -13 1 1 2 0 2 -1 0 -1 4 -4
10 -8 10 -7 12 -10 23 -25 6 -8 7 -11 8 -21 0 -6 1 -12 2 -12 1 -1 1 -2 -1 -2
-2 0 -5 -3 -7 -6 -4 -7 -15 -14 -21 -14 -7 0 -24 20 -24 30 0 2 -1 4 -2 4 -3
0 -7 17 -4 19 1 1 2 4 2 8 0 3 0 8 1 11 1 6 -2 13 -5 11 -1 -1 -2 0 -2 2 0 3
-1 3 -2 2 -1 -2 -5 -2 -13 -2 -14 1 -15 0 -18 -7 -2 -4 -4 -6 -5 -6 -3 0 5
-36 9 -38 1 -1 2 -4 2 -6 1 -3 2 -6 4 -6 1 -1 1 -2 0 -2 -5 0 -7 -16 -7 -56 0
-49 3 -58 20 -61 1 0 7 -2 12 -3 4 -1 8 -1 8 0 0 0 7 3 16 5 8 2 23 7 32 11
15 8 21 9 35 8 2 0 6 -3 9 -6 5 -5 6 -7 6 -18 0 -16 -4 -20 -28 -28 -10 -3
-22 -8 -26 -11 -17 -11 -19 -12 -31 -12 -6 0 -12 1 -12 2 -1 2 -4 2 -10 1 -4
-1 -10 -3 -11 -3 -7 -1 -12 -5 -18 -14 -7 -12 -14 -20 -14 -17 0 1 -26 24 -48
41 -24 18 -42 34 -46 39 -2 3 -7 7 -10 9 -7 4 -24 4 -31 1 -3 -2 -16 -20 -36
-49 -27 -41 -30 -47 -32 -57 -1 -10 0 -11 6 -18 4 -4 12 -10 18 -13 6 -3 12
-7 14 -9 3 -3 7 -16 7 -26 1 -10 9 -18 20 -19 12 -2 17 -1 22 1 5 3 17 2 21
-1 2 -1 7 -10 12 -19 9 -20 18 -27 34 -29 11 -1 27 2 27 5 0 1 1 2 3 2 2 0 2
3 2 15 -1 14 -1 15 2 15 2 0 1 1 -3 2 -18 3 -20 42 -2 50 16 7 35 2 40 -10 6
-14 1 -37 -9 -39 -3 -1 -4 -3 -5 -11 -2 -21 -1 -34 2 -36 2 -2 4 -7 4 -13 1
-5 3 -13 5 -17 1 -4 3 -9 4 -11 1 -3 3 -5 6 -6 6 -2 25 -2 25 -1 1 1 8 5 17 9
33 15 54 8 54 -20 0 -22 -8 -27 -46 -30 -9 -1 -20 -2 -24 -3 -16 -3 -28 6 -38
31 -2 3 -4 5 -5 4 -1 -1 -2 0 -2 1 0 1 -2 2 -3 2 -2 -1 -6 0 -8 1 -8 2 -17 1
-40 -6 -29 -8 -72 -20 -133 -36 -2 0 -16 -4 -32 -8 -16 -4 -30 -8 -32 -9 -2
-1 -5 0 -8 5 -5 6 -5 7 -6 54 l-1 48 6 6 c5 5 8 6 14 5 10 0 24 3 30 9 4 4 5
6 5 17 0 12 0 14 -7 22 -8 10 -12 25 -9 32 1 3 1 6 1 7 -1 0 -2 5 -2 10 -1 14
-6 19 -22 19 l-12 0 -14 -14 c-14 -16 -20 -18 -33 -16 -10 2 -14 8 -14 21 0
12 6 21 14 21 7 0 28 9 34 15 6 7 10 19 10 32 0 14 5 21 21 29 11 5 13 6 27
20 16 15 19 22 17 37 -1 15 -12 37 -24 51 -2 1 -4 3 -4 5 -3 5 -24 11 -44 13
-29 3 -33 4 -36 9 -4 6 -4 6 12 14 22 11 25 11 118 11 60 0 88 1 93 2 13 4 21
13 26 29 7 22 8 24 17 27 4 1 10 3 12 4 2 1 6 2 9 3 9 2 12 3 12 6 0 1 2 5 6
8 4 5 5 7 4 14 -3 16 -7 22 -21 28 -9 4 -48 4 -64 0 -16 -4 -34 -4 -50 0 -10
2 -23 3 -60 3 l-46 -1 -6 6 -6 6 0 35 0 35 6 6 6 6 227 0 227 0 6 -6z m103
-31 c5 -5 5 -11 0 -16 -10 -10 -27 5 -16 16 4 4 12 4 16 0z m-1259 -14 c5 -5
5 -12 0 -25 -5 -14 -11 -19 -24 -19 -16 0 -23 7 -23 23 0 14 5 20 20 24 13 3
21 2 27 -3z m-200 -43 c3 -3 3 -3 0 -6 -4 -5 -11 1 -7 6 4 4 4 4 7 0z m336
-179 c6 -2 8 -5 16 -21 5 -11 13 -24 18 -29 12 -13 15 -18 15 -27 0 -10 -7
-17 -17 -17 -10 0 -15 3 -29 18 -6 6 -17 15 -25 19 -16 9 -18 11 -21 23 -7 27
16 45 43 34z m367 -5 c28 -8 35 -12 29 -19 -3 -2 -9 -4 -25 -6 -43 -5 -39 -5
-45 1 -11 11 -4 31 11 31 3 0 17 -3 30 -7z m673 -99 c10 -9 3 -26 -10 -26 -8
0 -15 7 -15 15 0 13 16 20 25 11z m-562 -7 c5 -8 1 -16 -8 -16 -9 0 -13 8 -8
16 2 3 5 5 8 5 3 0 6 -2 8 -5z m-121 -38 c21 -9 20 -45 -2 -54 -10 -5 -28 -1
-34 6 -9 10 -9 32 0 42 7 8 24 11 36 6z m823 -96 c4 -4 5 -7 5 -15 0 -14 -6
-20 -20 -20 -14 0 -20 6 -20 20 0 14 6 20 20 20 8 0 11 -1 15 -5z m-147 -16
c5 -5 5 -12 2 -28 -3 -16 -1 -36 5 -43 2 -2 5 -9 8 -17 12 -28 8 -43 -10 -43
-15 0 -23 16 -22 48 0 10 -2 23 -3 28 -2 5 -3 9 -3 10 0 1 -3 6 -6 13 -7 14
-7 25 -1 32 7 8 23 8 30 0z m286 -34 c1 -1 2 -3 2 -5 0 -3 -7 -28 -13 -41 -1
-4 -7 -20 -12 -34 -5 -14 -11 -29 -13 -33 -2 -4 -4 -9 -4 -10 0 -1 -3 -8 -6
-15 -3 -6 -7 -15 -8 -19 -5 -13 -17 -29 -24 -32 -14 -7 -24 -8 -80 -8 l-54 0
-7 5 -6 6 0 48 c-1 26 -1 49 -1 51 0 6 2 16 4 18 1 2 4 5 6 7 1 2 5 4 7 5 14
2 143 40 179 53 18 6 25 7 30 4z m-1212 -74 l-5 -5 -4 4 -5 5 4 4 5 5 4 -4 5
-5 -4 -4z m-381 -14 c5 -8 1 -16 -8 -16 -9 0 -13 8 -8 16 2 3 5 5 8 5 3 0 6
-2 8 -5z m746 -75 c7 -7 7 -20 0 -26 -9 -8 -37 -5 -45 5 -8 9 -3 20 11 25 9 3
29 1 34 -4z m933 -133 c0 -1 -2 -3 -3 -5 -4 -4 -4 -4 -8 0 l-5 5 4 4 c4 5 5 5
8 2 2 -2 4 -5 4 -6z m-1003 -13 c4 -6 4 -22 0 -30 -2 -3 -3 -10 -4 -16 -1 -9
0 -9 9 -17 5 -5 10 -9 12 -10 8 -3 13 -17 9 -30 -2 -9 -7 -13 -18 -14 -13 -1
-32 -8 -46 -18 -5 -4 -12 -7 -15 -7 -19 -1 -26 4 -26 21 0 13 6 21 16 21 3 0
8 1 10 2 1 1 9 4 15 6 18 7 27 15 28 26 1 4 1 9 2 10 1 1 0 2 -1 3 -2 1 -2 1
-1 -1 1 -2 0 -1 -1 1 -3 4 -12 13 -22 21 -5 5 -6 7 -6 17 0 7 1 12 4 15 7 9
27 9 35 0z m771 -117 l-5 -5 -4 4 -5 5 4 4 5 5 4 -4 5 -5 -4 -4z"/>
</g>
</svg>
