<?xml version="1.0" standalone="no"?>
<!DOCTYPE svg PUBLIC "-//W3C//DTD SVG 20010904//EN"
 "http://www.w3.org/TR/2001/REC-SVG-20010904/DTD/svg10.dtd">
<svg version="1.0" xmlns="http://www.w3.org/2000/svg"
 width="1106.000000pt" height="2870.000000pt" viewBox="0 0 1106.000000 2870.000000"
 preserveAspectRatio="xMidYMid meet">
<metadata>
Created by potrace 1.15, written by Peter Selinger 2001-2017
</metadata>
<g transform="translate(0.000000,2870.000000) scale(0.500000,-0.500000)"
fill="#000000" stroke="none">
<path d="M1128 3840 c-7 -7 -10 -19 -10 -39 0 -19 4 -34 9 -37 1 -1 8 -2 15
-2 11 0 14 -1 15 -3 0 -3 1 -2 1 2 0 3 2 8 5 11 3 3 7 9 9 13 4 9 7 31 5 33
-1 0 -4 5 -7 10 -8 16 -11 18 -25 18 -10 0 -13 -1 -17 -6z"/>
<path d="M1243 3839 c-10 -3 -12 -5 -25 -23 -15 -21 -16 -23 -17 -38 -1 -11
-1 -14 2 -18 14 -17 18 -20 36 -29 18 -9 19 -10 24 -19 3 -6 6 -15 6 -23 2
-17 -3 -23 -16 -23 -9 0 -26 -5 -32 -9 -2 -1 -4 -8 -5 -14 l-3 -11 8 -9 c6 -7
12 -11 26 -18 22 -10 25 -14 25 -29 0 -15 -7 -22 -22 -22 -9 0 -22 4 -28 9 -6
6 -23 9 -42 8 -17 -1 -18 -1 -23 3 -5 5 -6 9 -4 30 1 9 2 12 3 9 1 -2 2 2 2
12 0 21 3 27 19 38 20 13 24 17 24 29 0 10 0 11 -10 21 -5 5 -10 9 -11 9 -1 0
-7 3 -12 7 -8 5 -10 7 -10 12 0 3 -1 4 -1 3 -1 -3 -4 -4 -15 -4 -15 0 -17 -1
-20 -9 -3 -6 -6 -95 -4 -95 1 0 -1 -3 -5 -6 -6 -7 -7 -7 -19 -6 -27 1 -43 -9
-46 -29 -1 -8 -1 -11 1 -12 2 0 4 -4 5 -7 2 -4 5 -7 13 -11 12 -6 19 -13 22
-24 4 -12 10 -24 14 -27 6 -5 13 -19 15 -31 3 -16 10 -27 20 -28 1 0 2 -1 3
-1 3 -2 16 -5 18 -4 3 0 21 2 41 3 16 1 19 0 22 -3 9 -9 3 -18 -21 -29 l-18
-9 1 -15 c1 -16 7 -26 18 -28 10 -2 13 -8 14 -24 1 -20 -2 -24 -23 -25 l-15 0
-7 7 c-10 10 -16 13 -28 14 -6 1 -12 1 -14 2 -2 0 -5 1 -6 2 0 1 -1 -8 0 -20
1 -16 0 -26 -2 -38 -3 -12 -3 -25 -3 -62 l1 -46 10 -20 c11 -23 12 -33 4 -41
-7 -7 -28 -7 -40 -1 -11 6 -31 10 -42 8 -16 -2 -27 -1 -34 3 -4 2 -10 3 -18 4
l-11 0 -18 -18 c-21 -21 -22 -23 -21 -36 1 -9 3 -12 9 -17 5 -4 8 -8 8 -10 0
-1 -1 0 -3 2 -2 3 -3 3 -2 1 1 -3 -1 -4 -12 -6 -40 -6 -55 12 -32 36 14 15 17
22 18 43 0 23 -5 35 -18 43 l-8 4 -107 0 c-59 0 -110 0 -113 1 -12 3 -21 9
-30 20 -6 6 -18 20 -29 30 l-18 19 -15 0 c-11 0 -16 -1 -19 -3 -7 -6 -21 -35
-25 -50 -2 -8 -5 -18 -8 -23 -5 -12 -3 -32 4 -45 3 -5 5 -12 5 -15 0 -16 -30
-28 -41 -16 -3 2 -5 5 -5 6 0 1 -1 2 -2 1 -2 -1 -2 -1 -1 0 3 6 -5 11 -18 12
-16 2 -21 6 -21 17 0 14 4 19 23 28 21 10 27 17 29 30 0 6 -1 13 -3 19 -4 14
-4 24 2 45 5 17 5 21 4 46 0 17 -2 30 -4 36 -3 10 -14 20 -18 19 -1 -1 -3 0
-4 1 -1 2 -18 1 -19 -2 0 -1 -2 -2 -3 -2 -4 0 -15 10 -15 13 0 3 -5 13 -6 13
-1 0 -2 1 -2 2 0 5 -6 8 -19 8 -15 0 -13 1 -34 -23 -17 -20 -21 -29 -25 -54
-2 -19 -7 -23 -25 -23 -17 0 -23 5 -24 18 -2 14 0 22 7 30 12 14 18 34 16 55
-1 13 -1 14 4 17 2 2 5 4 6 4 15 2 20 9 21 28 1 11 1 15 -2 18 -4 7 -4 23 1
30 2 3 7 9 12 12 5 4 14 12 21 18 17 16 40 22 59 14 7 -2 14 -13 14 -20 0 -4
1 -4 1 -1 1 3 3 3 16 3 14 0 22 1 20 4 -1 1 0 2 1 2 2 0 2 1 0 2 -3 2 -3 2 0
2 2 0 6 2 8 6 l4 5 51 -1 50 0 23 7 c12 3 25 6 30 6 9 -1 47 -10 55 -14 9 -5
39 -3 45 3 13 13 41 11 51 -3 8 -11 17 -19 27 -24 l11 -5 67 0 68 0 13 5 c22
9 29 21 24 41 l-2 11 -16 5 c-9 3 -18 6 -19 6 -5 0 -14 9 -14 14 0 7 -11 29
-17 34 -11 8 -25 10 -38 3 -8 -4 -11 -9 -12 -20 -1 -6 -2 -11 -3 -12 -2 -2 -2
-3 1 -3 4 0 6 -7 2 -13 -6 -10 -22 -2 -18 9 1 2 3 4 4 4 3 0 3 1 1 3 -1 1 -2
6 -3 12 -3 22 -9 25 -62 25 -49 0 -54 2 -73 20 -11 11 -41 38 -50 45 -3 3 -6
6 -8 7 -2 2 -8 5 -13 8 -12 6 -22 14 -30 25 -7 10 -10 13 -29 29 -8 7 -19 17
-23 21 -4 4 -15 10 -23 14 -18 9 -26 10 -42 2 -11 -5 -12 -5 -36 -42 -14 -21
-27 -41 -29 -44 -2 -4 -4 -7 -5 -7 -2 0 -2 -14 0 -22 2 -8 17 -22 24 -22 5 0
14 -6 16 -11 3 -8 6 -31 6 -48 0 -28 -16 -31 -37 -7 -4 5 -10 10 -11 12 -2 2
-4 5 -4 6 0 1 -4 7 -10 12 -9 9 -13 11 -19 10 -1 0 -1 1 0 2 1 1 -2 2 -6 3 -5
1 -10 2 -11 2 -3 0 -4 -1 -4 -8 -1 -12 -1 -13 -2 -14 -1 -1 -1 -3 1 -4 5 -5 4
-18 -2 -24 -11 -12 -31 -4 -31 13 0 4 1 9 3 11 2 1 2 3 2 4 -1 0 -2 4 -2 7 -2
22 -7 27 -21 25 -17 -3 -27 -11 -52 -44 0 -1 -4 -10 -8 -19 -7 -17 -11 -21
-20 -22 -11 -1 -16 0 -21 5 -10 10 -4 35 10 43 4 2 4 3 3 17 -1 8 -1 14 -1 15
0 0 -3 3 -7 5 -6 4 -10 4 -46 4 -42 0 -46 -1 -57 -12 -18 -19 -14 -34 17 -57
6 -4 9 -14 4 -14 -1 0 -1 -1 0 -3 1 -2 3 -8 4 -12 1 -5 3 -9 4 -9 1 0 2 -2 2
-4 0 -5 7 -22 9 -22 1 0 2 -91 2 -201 l0 -202 -6 -6 c-3 -3 -7 -6 -8 -5 -3 1
-14 -4 -18 -9 -5 -4 -10 -24 -8 -27 1 -1 0 -2 -1 -2 -3 0 -3 0 0 -2 3 -2 6
-15 5 -22 -4 -20 -9 -22 -41 -22 -14 0 -22 -1 -18 -1 4 -1 6 -2 5 -3 -3 -1 -5
-29 -2 -31 0 -1 3 -2 5 -2 3 0 7 -1 9 -2 1 -1 3 -1 3 1 0 1 2 2 4 3 4 1 4 2 4
16 0 10 -1 15 -2 16 -2 0 1 1 5 1 4 0 7 -1 6 -1 -2 -1 -3 -6 -3 -16 0 -14 0
-15 4 -16 2 -1 4 -2 4 -3 0 -1 9 -1 20 -1 20 0 21 0 27 -6 l6 -6 -1 -67 c0
-65 1 -90 6 -87 1 1 2 1 2 0 -2 -8 0 -9 15 -8 15 1 15 1 15 -4 0 -5 0 -5 -15
-4 -15 1 -17 0 -15 -8 0 -1 -1 -1 -2 0 -3 2 -6 -18 -6 -48 0 -33 1 -40 14 -64
8 -17 8 -29 0 -46 -13 -25 -14 -31 -14 -68 l0 -33 -6 -7 c-3 -4 -6 -6 -7 -6
-1 1 -45 -10 -52 -13 -3 -2 -5 -3 -5 -4 0 -1 -1 -2 -2 -1 -2 0 -3 -1 -2 -2 0
-2 -1 -3 -2 -3 -1 0 -2 -1 -1 -2 1 -1 0 -2 -1 -2 -1 0 -2 -4 -2 -9 -1 -5 0 -9
0 -9 1 0 2 -2 2 -4 0 -6 16 -35 21 -39 23 -15 29 -29 18 -39 -10 -9 -22 -4
-35 16 -3 5 -8 10 -9 10 -1 0 -3 1 -3 2 -1 1 -7 5 -15 9 -18 8 -21 13 -21 27
0 8 1 11 5 15 3 3 4 5 3 5 0 0 -1 4 0 9 0 5 0 11 -1 13 -1 1 -1 4 -1 5 0 0 -1
1 -2 1 -1 0 -2 1 -1 2 2 3 -14 6 -33 6 -32 0 -50 -13 -50 -37 0 -4 20 -70 26
-83 1 -3 6 -18 11 -35 14 -46 18 -54 32 -67 18 -18 18 -17 13 -49 -2 -16 -2
-20 5 -39 13 -36 20 -41 62 -38 3 0 12 -1 18 -3 18 -5 28 -4 42 3 22 10 29 19
39 49 7 24 16 28 45 21 22 -5 31 -4 49 5 19 11 18 10 18 27 0 14 0 15 -6 20
-15 12 -17 15 -16 30 0 17 25 26 38 13 4 -4 6 -9 7 -14 1 -4 3 -10 4 -14 2 -3
2 -7 2 -7 -1 -1 2 -3 7 -5 11 -5 26 -3 39 6 6 3 23 14 39 24 34 21 40 27 43
41 1 2 1 6 2 9 1 2 2 10 3 18 1 14 7 23 16 23 11 1 18 0 23 -3 8 -4 24 -6 34
-5 7 1 39 19 45 26 1 1 5 4 10 7 4 3 11 8 14 11 13 16 12 15 34 26 2 1 5 2 7
2 4 0 17 15 21 26 7 15 9 68 3 78 -2 4 -4 21 -1 23 1 1 4 5 6 10 2 5 5 9 5 9
2 0 0 23 -2 29 -1 1 -3 3 -4 3 -2 0 -3 1 -3 2 0 1 -5 2 -11 2 -10 0 -11 -1
-17 -7 -6 -7 -12 -23 -12 -33 0 -23 -38 -32 -51 -13 l-5 8 -15 -1 c-16 0 -26
-4 -24 -8 1 -1 0 -2 -1 -2 -1 0 0 -17 3 -29 1 -8 -6 -16 -16 -19 -17 -4 -26
-23 -21 -45 2 -10 1 -18 -3 -28 -4 -8 -25 -13 -39 -7 -10 4 -12 11 -13 42 0
16 -2 32 -3 36 -1 4 -2 40 -2 96 0 77 0 91 -3 104 -5 19 -5 43 0 63 2 11 3 22
3 36 -1 26 -5 33 -22 44 -22 15 -24 16 -24 25 0 9 3 12 21 23 14 8 21 16 22
24 0 3 1 5 2 5 1 0 4 2 7 5 l5 5 91 0 c98 0 108 1 125 10 17 9 35 32 35 44 0
4 11 14 15 14 2 0 13 -11 12 -12 0 -1 -1 -19 -2 -42 -1 -23 -2 -45 -2 -50 -1
-24 -1 -43 0 -48 1 -3 2 -7 2 -9 0 -2 5 -10 9 -17 4 -7 8 -16 9 -20 0 -4 2 -8
3 -9 1 -1 2 -3 2 -4 0 -7 10 -22 20 -33 6 -7 13 -15 15 -19 4 -7 7 -9 25 -14
6 -2 11 -5 12 -7 0 -2 1 -3 2 -4 10 -9 3 -34 -9 -34 -13 0 -33 -5 -37 -9 -9
-8 -22 -15 -27 -15 -2 0 -4 0 -5 0 -1 0 -2 -1 -4 -1 -31 -6 -36 -16 -25 -48 5
-12 5 -16 4 -28 -2 -33 -5 -46 -13 -59 -13 -25 -18 -35 -18 -40 0 -6 -17 -144
-19 -155 -2 -10 -11 -25 -19 -30 -16 -12 -19 -17 -30 -44 -6 -15 -6 -19 -3
-33 0 -1 1 -4 1 -6 0 -3 12 -20 12 -17 0 1 1 1 2 0 0 -1 8 -6 16 -10 14 -7 24
-12 69 -36 19 -10 29 -12 47 -9 33 6 40 3 52 -23 11 -23 15 -27 29 -27 12 0
23 6 27 16 4 8 12 20 21 29 8 9 12 20 14 38 1 11 6 20 10 19 1 0 3 0 5 0 2 1
7 3 13 5 10 4 24 16 29 26 3 6 7 8 21 16 3 1 5 3 5 3 0 1 3 1 6 0 3 0 6 -1 5
-2 -1 -1 3 -9 7 -12 2 -1 4 -3 4 -4 0 -1 3 -6 6 -11 3 -5 6 -9 6 -10 0 -1 2
-3 5 -6 4 -5 7 -5 17 -5 12 1 12 1 20 10 21 24 39 24 51 1 4 -9 14 -20 19 -20
0 0 5 -1 9 -3 4 -1 11 -2 15 -2 11 0 19 -4 18 -9 0 -2 1 -6 3 -10 4 -8 4 -23
0 -31 -4 -8 -5 -17 -3 -28 3 -13 6 -18 27 -30 32 -18 53 -47 60 -81 4 -17 7
-41 8 -60 1 -13 2 -28 3 -33 3 -8 15 -24 20 -25 2 0 7 -1 12 -3 4 -1 11 -2 15
-1 3 0 14 1 24 2 49 3 100 17 135 36 51 29 84 65 111 119 25 52 25 58 10 89
-8 16 -14 30 -24 52 -5 10 -5 27 0 34 8 12 28 13 45 3 17 -10 40 -8 48 5 3 5
9 22 8 22 0 0 1 2 2 5 1 3 2 10 3 14 2 14 10 21 23 21 9 0 11 -1 16 -7 8 -7 9
-22 2 -32 -3 -5 -4 -11 -4 -19 0 -9 1 -13 5 -21 1 0 4 -1 8 -2 13 -2 29 8 31
20 1 2 2 4 3 6 2 1 3 5 4 9 2 10 9 15 20 15 12 0 17 -4 20 -16 4 -12 14 -27
21 -31 30 -16 81 34 65 64 -3 8 -9 12 -25 19 -14 7 -14 7 -24 31 -9 21 -11 23
-26 23 -10 0 -17 -3 -24 -10 -7 -7 -13 -10 -22 -10 -15 0 -22 8 -25 28 -2 14
-15 46 -19 51 -6 6 -10 8 -26 8 -13 0 -14 -1 -22 -13 -15 -23 -23 -27 -37 -21
-5 2 -8 4 -9 5 -1 1 -6 4 -12 7 -6 2 -15 9 -21 15 -6 5 -12 11 -15 11 -13 3
-21 3 -26 0 -11 -7 -23 -11 -30 -11 -13 0 -14 0 -20 6 -5 5 -6 7 -6 17 0 19 9
29 33 35 15 5 22 3 36 -7 23 -17 56 -14 76 6 7 7 16 26 15 31 -1 2 1 5 5 8 6
5 7 5 44 6 49 1 50 2 51 22 0 9 1 16 3 16 1 1 1 2 -1 2 -11 0 -14 22 -5 31 3
4 7 5 14 5 11 0 15 -3 22 -17 9 -17 10 -19 17 -24 9 -6 21 -11 25 -11 29 -2
49 18 46 45 -2 19 -15 38 -65 91 -23 24 -44 37 -58 35 -17 -3 -32 -13 -46 -31
-12 -15 -27 -22 -41 -18 -16 5 -17 18 -6 53 8 22 9 26 10 52 1 25 1 28 6 34 3
4 6 7 7 7 7 0 37 19 47 29 7 7 15 30 14 39 -2 11 -15 34 -24 41 -5 5 -22 19
-38 32 l-28 24 -13 0 c-11 0 -14 -1 -18 -5 -8 -8 -18 -13 -36 -19 -13 -4 -20
-7 -28 -14 -6 -5 -12 -9 -15 -9 -2 -1 -7 -1 -11 -1 -20 -1 -33 -8 -44 -22 -10
-12 -16 -16 -29 -16 -19 0 -28 9 -28 28 0 19 8 27 29 28 23 1 34 6 47 22 14
16 23 18 47 10 11 -4 28 -4 37 0 8 4 11 11 11 28 l1 13 -9 9 c-11 11 -16 20
-16 31 0 19 8 28 30 34 10 3 12 7 12 23 0 14 -3 19 -16 26 -11 6 -14 27 -6 48
6 16 5 32 -3 38 -8 8 -22 7 -33 -2 -13 -9 -15 -14 -15 -38 0 -23 0 -23 -23
-27 -19 -4 -24 -10 -30 -30 -4 -17 -15 -36 -19 -36 -6 0 -9 -28 -4 -38 2 -4 4
-12 4 -20 2 -19 -1 -22 -22 -20 -33 1 -44 -6 -62 -42 l-11 -23 -14 -7 c-18 -7
-24 -9 -24 -5 0 3 -9 13 -12 13 -1 0 -2 1 -2 2 0 1 -1 2 -3 2 -4 0 -24 8 -25
11 -1 1 -2 1 -2 0 0 -1 -1 -1 -3 1 -1 1 -24 2 -67 1 -56 0 -67 -1 -77 -4 -16
-4 -33 -5 -50 0 -13 3 -19 4 -27 2 -5 0 -18 -9 -23 -16 -10 -11 -14 -13 -61
-21 -17 -2 -30 1 -35 10 -1 3 -4 12 -5 20 -1 8 -3 18 -5 22 -2 4 -3 7 -3 7 1
1 -11 10 -15 13 -9 4 -44 16 -49 16 -4 0 -4 0 -2 2 2 2 2 3 0 3 -1 1 -2 2 0 4
2 2 22 3 101 3 113 0 111 0 131 17 14 12 17 13 27 13 10 0 13 -1 27 -13 21
-17 19 -17 133 -17 l100 1 8 5 c14 9 24 21 22 28 0 2 0 4 1 4 3 0 0 11 -4 15
-5 6 -18 11 -35 11 -18 2 -24 5 -29 18 -11 29 -20 41 -40 48 -21 8 -26 22 -12
36 23 20 32 34 30 47 -1 3 1 6 5 10 l6 6 92 0 c51 0 94 1 96 1 6 2 25 12 26
14 4 6 18 13 27 13 14 0 22 -8 32 -31 10 -24 16 -28 34 -28 16 0 21 3 20 13
-1 5 0 7 1 7 2 0 4 1 4 3 3 3 13 7 22 8 28 2 51 22 51 44 0 17 -21 77 -26 74
-1 -1 -2 0 -2 1 0 1 -4 4 -8 7 -5 3 -14 10 -20 15 -7 4 -12 8 -13 8 -1 0 -4 3
-8 6 -3 3 -11 9 -17 13 -6 4 -11 8 -12 9 -1 1 -8 6 -16 11 -8 5 -17 11 -19 13
-2 2 -6 5 -9 6 -5 3 -5 3 -2 6 6 7 16 8 91 8 80 0 86 1 104 11 16 10 35 37 35
50 0 14 -16 27 -41 35 -7 2 -14 5 -16 6 -6 3 -17 7 -23 9 -8 2 -14 9 -14 16 0
3 -1 9 -2 13 -1 4 -3 10 -3 13 -2 12 -10 20 -43 43 l-33 23 -14 0 c-17 1 -16
1 -24 -19 -7 -17 -7 -18 -27 -22 -30 -7 -45 -7 -57 -1 -7 4 -12 5 -23 5 -15 0
-18 -1 -29 -16 -31 -42 -28 -41 -87 -42 l-47 -1 -5 6 c-3 3 -6 10 -8 15 -4 15
-23 28 -42 29 -18 1 -29 18 -24 38 3 11 6 14 21 21 7 3 15 8 19 12 6 6 16 25
16 32 0 2 3 6 6 9 7 7 24 7 32 1 7 -5 30 -6 38 -1 6 4 6 5 3 20 -1 6 -13 22
-13 18 0 0 -3 1 -7 3 -3 2 -12 4 -20 5 -8 0 -16 1 -19 2 -6 1 -53 4 -60 3 -8
0 -23 -8 -31 -17 -4 -4 -10 -10 -12 -13 -11 -12 -23 -9 -43 10 -23 24 -37 29
-55 23z m470 -208 c3 -3 3 -3 0 -6 -4 -5 -11 1 -7 6 4 4 4 4 7 0z m-128 -59
c6 -6 8 -25 2 -30 -1 -2 -2 -7 -2 -13 0 -5 -1 -16 -3 -24 -2 -8 -4 -14 -4 -14
0 -1 2 -1 5 -1 l4 0 -4 -2 c-3 -1 -5 -3 -5 -3 0 -1 -2 -4 -5 -7 -3 -4 -19 -25
-41 -52 -8 -11 -15 -17 -24 -21 -4 -2 -8 -4 -8 -5 0 -1 -1 -2 -3 -2 -3 0 -13
-10 -14 -14 0 -2 -1 -4 -1 -5 -2 -3 -5 -16 -4 -18 1 -3 -9 -11 -13 -11 -2 0
-9 2 -14 5 -6 3 -11 4 -11 4 0 -1 -1 -1 -2 1 -2 1 -5 2 -7 2 -2 0 -7 2 -12 4
-4 2 -9 4 -11 4 -8 0 -14 8 -14 17 0 9 3 14 13 20 24 15 29 26 29 60 0 16 1
23 3 26 1 2 3 5 3 6 1 4 5 9 7 9 2 0 3 1 3 2 0 1 5 3 10 6 12 5 16 5 42 -6 34
-15 45 -10 47 21 0 5 -1 9 -2 11 -3 2 -4 6 -3 18 0 18 25 26 39 12z m-138 -2
c4 -6 4 -8 -1 -15 -4 -5 -5 -5 -10 -2 -7 4 -9 10 -5 16 4 6 12 7 16 1z m-155
-103 l-5 -5 -4 4 -5 5 4 4 5 5 4 -4 5 -5 -4 -4z m-964 -37 c0 -1 -2 -4 -5 -6
l-6 -4 -4 5 -5 6 4 4 4 5 6 -4 c3 -3 6 -5 6 -6z m990 -32 c5 -6 5 -12 0 -18
-7 -8 -22 -2 -22 9 0 11 15 17 22 9z m439 -7 c2 -2 3 -8 3 -14 0 -13 -6 -19
-20 -19 -14 0 -20 6 -20 20 0 12 4 18 15 20 10 2 18 -1 22 -7z m-446 -71 c3
-5 4 -22 1 -28 -4 -7 -44 -24 -57 -24 -22 0 -23 27 -3 39 5 3 14 8 20 12 15
10 31 10 39 1z m96 2 c1 -2 3 -4 2 -4 -1 0 0 -2 1 -4 5 -10 -12 -16 -20 -7 -8
6 -2 18 8 18 3 0 7 -1 9 -3z m-1007 -146 c9 -6 13 -26 12 -50 0 -10 -8 -16
-19 -16 -6 0 -12 1 -14 3 -14 9 -14 57 -2 65 6 3 18 2 23 -2z m987 -44 c10 -9
3 -26 -10 -26 -8 0 -15 7 -15 15 0 13 16 20 25 11z m-623 -13 c5 -6 5 -20 -1
-26 -15 -15 -40 10 -25 26 6 7 20 7 26 0z m-124 -31 c5 -5 6 -7 6 -17 0 -16
-7 -23 -23 -23 -16 0 -23 7 -23 23 0 16 7 23 23 23 10 0 12 -1 17 -6z m-127
-10 c0 -1 1 -3 3 -5 6 -7 7 -14 6 -27 -1 -16 -4 -20 -14 -22 -18 -3 -28 4 -28
21 0 12 3 17 12 21 4 2 10 5 14 8 6 6 9 8 7 4z m401 -81 c23 -8 28 -13 28 -28
0 -10 -1 -12 -6 -17 -11 -11 -29 -8 -54 11 -18 13 -23 26 -13 37 4 4 5 4 16 3
7 0 20 -3 29 -6z m508 -50 c4 0 9 -1 11 -1 1 0 3 -1 3 -1 0 -1 1 -6 3 -10 4
-9 6 -29 3 -29 -1 0 -1 -1 0 -4 1 -3 2 -9 3 -13 1 -8 12 -21 18 -21 2 0 6 -3
8 -6 3 -3 7 -6 9 -6 2 0 3 0 0 -2 -2 -1 -3 -10 -4 -44 -2 -51 -2 -47 3 -58 5
-10 10 -14 25 -17 4 -1 8 -3 8 -4 1 -1 2 -1 2 2 0 1 1 3 3 3 3 0 6 -2 14 -9
l4 -4 -7 -1 c-3 -1 -6 -3 -6 -4 0 -3 -7 -3 -8 0 -1 3 -27 -4 -32 -9 -6 -6 -10
-15 -10 -27 0 -8 -1 -10 -6 -15 l-6 -5 -36 0 c-35 1 -37 1 -40 6 -3 4 -5 4
-20 4 l-17 0 -5 -8 c-10 -16 -34 -22 -45 -11 -7 7 -7 18 1 43 3 12 6 25 7 29
2 13 10 20 23 20 20 0 27 -14 20 -38 -5 -13 -5 -23 -2 -27 2 -1 2 -2 0 -2 -1
0 -2 -1 -1 -2 1 -2 37 -3 37 0 0 0 3 4 6 8 7 8 21 36 24 47 5 22 4 46 -3 60
-2 3 -3 6 -3 8 0 2 -14 25 -19 31 -3 3 -5 5 -5 6 0 3 -13 8 -22 9 -9 1 -13 0
-22 -3 -21 -8 -34 -6 -45 9 -9 12 -25 27 -32 30 -8 4 -25 3 -37 -3 -9 -5 -31
-21 -35 -26 -3 -4 -8 -21 -7 -28 0 -2 -1 -12 -3 -21 -5 -30 -3 -48 8 -61 6 -6
22 -13 36 -15 4 0 9 -2 11 -4 4 -3 4 -4 0 -8 -1 -3 -7 -7 -12 -10 -5 -2 -11
-7 -14 -10 -5 -6 -8 -19 -4 -21 2 -2 2 -2 0 -2 -2 0 -7 -3 -11 -7 -4 -4 -7 -6
-8 -5 -1 1 -23 2 -55 2 -50 0 -55 0 -73 5 -28 7 -35 13 -35 28 0 9 5 19 11 19
1 0 6 2 10 4 4 2 9 4 10 4 2 0 11 8 16 14 3 5 7 16 8 26 3 30 7 88 7 90 -2 5
10 13 20 13 21 1 40 5 53 14 13 8 19 15 28 35 4 9 9 17 12 19 6 4 21 5 34 0
14 -4 26 -6 52 -7 2 0 10 -7 18 -15 29 -30 69 -50 88 -44 14 5 18 11 17 24 0
8 1 12 2 13 2 1 2 2 -1 2 -3 0 -5 1 -5 2 0 1 -1 2 -3 2 -1 0 -7 4 -13 10 -11
11 -13 18 -6 26 3 4 6 4 42 1z m-1039 -42 c3 -3 3 -3 0 -6 -4 -5 -11 1 -7 6 4
4 4 4 7 0z m1169 -45 c1 0 5 -3 8 -6 5 -5 6 -7 6 -18 0 -11 -1 -13 -6 -18 -6
-6 -7 -6 -18 -6 -11 0 -12 0 -18 6 -5 5 -6 7 -6 17 0 14 3 20 12 24 5 2 8 2
22 1z m-1145 -18 c7 -6 14 -27 11 -36 -1 -4 -3 -11 -4 -16 -3 -13 -13 -32 -18
-37 -3 -3 -8 -5 -12 -6 -4 0 -10 -2 -13 -3 -3 -1 -8 -2 -10 -2 -5 0 -10 -3
-10 -6 0 -2 -14 -21 -18 -24 -6 -5 -19 -5 -24 0 -9 9 -4 30 7 30 2 0 4 1 5 2
1 1 7 3 12 5 6 1 11 4 12 6 1 2 5 9 8 14 5 8 8 17 12 39 3 16 7 30 9 32 6 8
25 8 33 2z m539 -6 c1 0 5 -3 8 -6 5 -5 6 -7 6 -18 0 -8 -1 -13 -4 -16 -4 -6
-24 -14 -32 -14 -7 0 -12 11 -12 28 0 15 3 21 12 25 5 2 8 2 22 1z m-665 -25
c3 -5 3 -6 1 -11 -6 -10 -18 -7 -18 5 0 12 11 15 17 6z m1349 -39 c5 -5 6 -7
6 -17 0 -13 -4 -18 -22 -28 -7 -4 -15 -10 -18 -12 -8 -7 -21 -11 -24 -8 -1 2
-4 3 -5 3 -5 0 -5 3 0 9 3 3 5 7 5 9 0 2 1 4 2 4 0 1 5 10 11 20 11 23 14 26
29 26 9 0 11 -1 16 -6z m-705 -120 c17 -17 -4 -52 -35 -55 -18 -3 -24 9 -17
32 5 11 20 28 27 29 11 2 19 0 25 -6z m722 -3 c12 -12 3 -31 -13 -31 -11 0
-18 7 -18 18 0 11 7 18 18 18 6 0 9 -1 13 -5z m-436 -8 c3 1 8 -4 11 -12 1 -3
1 -5 0 -5 -1 0 -1 -2 2 -3 7 -7 11 -46 5 -55 -10 -14 -27 8 -30 40 -1 10 -1
12 3 14 2 2 3 4 2 6 0 2 -1 5 -1 7 1 6 4 12 4 10 1 -2 2 -2 4 -2z m-852 -19
c7 -6 7 -19 1 -25 -6 -7 -19 -7 -25 -1 -7 6 -7 19 -1 25 6 7 19 7 25 1z m92
-13 c6 -4 6 -6 6 -20 0 -14 0 -16 -6 -20 -4 -4 -7 -5 -18 -5 -11 0 -14 1 -18
5 -6 4 -6 6 -6 20 0 14 0 16 6 20 4 4 7 5 18 5 11 0 14 -1 18 -5z m667 1 c2
-2 4 -6 4 -8 0 -5 -7 -12 -12 -12 -5 0 -12 7 -12 12 0 10 13 15 20 8z m434 -4
c5 -5 5 -15 0 -20 -9 -9 -24 -2 -24 10 0 8 6 14 14 14 3 0 8 -2 10 -4z m-550
-14 c5 -5 6 -7 6 -15 0 -19 -6 -25 -24 -25 -14 0 -22 7 -22 21 0 19 5 25 24
25 9 0 11 -1 16 -6z m334 -16 c5 -6 5 -12 0 -18 -7 -8 -22 -2 -22 9 0 11 15
17 22 9z m115 -10 c4 -4 8 -12 7 -16 0 -1 1 -2 2 -2 2 0 4 -12 3 -18 -2 -5
-17 -10 -31 -10 -10 0 -13 1 -17 5 -6 4 -6 6 -6 20 0 14 0 16 6 20 7 7 28 7
36 1z m-341 -24 c3 -1 8 -6 12 -11 3 -4 9 -13 13 -18 4 -6 11 -18 15 -26 15
-27 23 -35 43 -41 8 -2 10 -2 20 2 10 4 14 7 32 27 l7 8 14 -2 c26 -2 60 -10
64 -14 6 -6 6 -22 -1 -28 -4 -5 -5 -5 -27 -4 -16 0 -30 -5 -40 -16 -9 -8 -12
-9 -33 -10 -21 0 -29 -4 -35 -17 -3 -5 -5 -12 -5 -17 0 -14 -7 -19 -24 -19
-26 0 -35 -5 -56 -28 -6 -6 -16 -14 -18 -14 -2 0 -3 -1 -2 -2 1 -1 1 -2 0 -2
-3 0 -8 4 -6 4 0 0 0 2 -2 6 -4 8 -19 13 -45 13 -20 1 -21 1 -26 6 -6 6 -7 11
-6 25 0 3 5 9 14 18 18 16 24 27 26 50 3 19 1 29 -9 51 -6 13 -7 28 -2 38 4 8
14 13 33 17 6 1 13 3 16 4 7 2 21 2 28 0z m-434 -12 c4 -2 7 -3 7 -4 -1 -1 0
-4 2 -6 5 -6 4 -23 -1 -29 -7 -7 -22 -6 -30 2 -5 5 -6 21 -2 26 1 2 2 4 1 6
-2 5 11 8 23 5z m853 -8 c8 -8 8 -24 0 -32 -3 -3 -6 -6 -7 -5 0 1 -2 0 -4 -2
-2 -1 -7 -4 -12 -6 -5 -2 -10 -5 -11 -6 -21 -19 -30 -22 -37 -14 -6 5 -5 11 2
19 6 8 17 30 15 30 -1 0 2 3 5 7 4 4 7 7 7 8 -1 0 4 2 10 4 15 5 24 4 32 -3z
m-1241 -27 c13 -10 18 -49 8 -60 -14 -15 -49 6 -53 31 -1 7 2 22 6 28 4 7 30
7 39 1z m139 -35 c7 -6 7 -19 1 -25 -6 -7 -19 -7 -25 -1 -7 6 -7 19 -1 25 6 7
19 7 25 1z m520 -26 c13 -13 4 -38 -13 -38 -10 -1 -37 -11 -41 -16 -4 -5 -2
-24 3 -29 6 -5 20 -11 28 -11 6 0 13 -7 14 -14 1 -12 0 -16 -10 -27 -6 -7 -11
-13 -12 -15 -1 -1 -5 -7 -7 -14 -7 -15 -12 -20 -21 -20 -11 0 -16 6 -16 19 0
6 -1 14 -3 19 -1 5 -2 10 -3 11 -1 5 -5 16 -6 18 -1 1 -2 6 -2 11 0 5 -1 13
-2 17 -1 4 -3 10 -3 12 -1 2 -3 9 -6 15 -7 13 -6 32 1 46 7 14 11 16 39 18 13
1 28 3 32 4 13 2 21 0 28 -6z m673 -49 c9 -3 25 -6 34 -6 21 -2 26 -6 26 -21
0 -17 -10 -23 -33 -20 -21 4 -46 -3 -51 -14 -4 -8 -2 -32 2 -38 8 -11 3 -26
-10 -26 -7 0 -14 4 -24 14 -4 4 -14 13 -22 20 -8 6 -20 16 -26 22 -7 5 -15 11
-20 15 -4 3 -9 7 -9 9 -3 6 -13 16 -19 17 -3 1 -6 2 -6 2 -1 0 -2 1 -3 1 -1 0
-2 1 -2 1 -1 0 -5 1 -8 2 -4 1 -6 0 -9 -3 -4 -4 -15 -5 -51 -5 -16 0 -23 5
-23 17 0 16 13 20 35 10 10 -4 16 -6 26 -6 8 0 24 0 37 0 18 -1 24 0 29 2 8 4
20 3 30 -2 13 -7 33 -4 48 6 14 11 22 11 49 3z m-1410 -65 c5 -5 5 -12 0 -26
-8 -25 -18 -35 -34 -35 -17 0 -23 10 -22 30 0 7 17 24 28 30 13 6 23 6 28 1z
m603 -45 c3 -5 3 -5 0 -10 -2 -3 -5 -5 -7 -5 -2 0 -5 2 -7 5 -3 5 -3 5 0 10 2
3 5 5 7 5 2 0 5 -2 7 -5z m628 -23 c7 -6 7 -19 1 -25 -8 -8 -26 -6 -32 4 -2 3
-2 13 0 16 6 9 24 12 31 5z m30 -153 c5 -8 1 -16 -8 -16 -9 0 -13 8 -8 16 2 3
5 5 8 5 3 0 6 -2 8 -5z"/>
<path d="M1671 3766 c-3 -1 -9 -5 -13 -9 -6 -7 -6 -9 -5 -17 2 -15 5 -18 23
-21 8 -1 21 8 25 16 3 6 4 23 1 27 -3 5 -19 7 -31 4z"/>
<path d="M65 3645 c-8 -3 -12 -5 -20 -14 -12 -13 -15 -27 -8 -50 6 -21 9 -27
18 -36 18 -20 68 -21 80 -2 5 8 11 26 9 27 -1 0 -5 6 -8 13 -3 7 -8 15 -11 19
-2 3 -8 12 -11 19 -10 19 -19 27 -32 27 -5 0 -12 -1 -17 -3z"/>
<path d="M482 3499 c0 -1 -2 -5 -4 -7 -13 -10 -16 -34 -6 -52 3 -7 4 -12 4
-20 -1 -23 0 -38 3 -50 2 -7 4 -12 5 -10 0 1 5 2 13 2 8 0 13 1 13 2 0 1 1 2
2 1 1 -1 4 3 6 7 8 17 4 86 -5 111 -5 13 -8 15 -19 15 -6 0 -10 1 -11 3 0 1
-1 1 -1 -2z"/>
<path d="M805 3400 c-15 -6 -22 -16 -23 -34 -1 -6 13 -52 17 -60 11 -22 26
-28 67 -28 43 0 51 5 62 37 5 15 10 20 22 20 10 0 18 -5 19 -13 5 -17 10 -22
28 -22 14 0 15 0 22 7 3 4 9 7 11 7 3 0 13 1 22 1 15 0 19 1 32 7 7 4 14 7 14
8 0 0 3 4 6 8 3 3 5 7 6 9 0 1 0 5 1 9 2 13 -11 31 -30 40 l-12 6 -51 0 c-57
0 -57 0 -81 -15 -9 -6 -17 -9 -21 -9 -4 0 -12 3 -21 9 -9 5 -19 11 -23 12 -9
3 -58 4 -67 1z"/>
<path d="M1809 3238 c-2 -2 -5 -4 -5 -5 -2 -3 -2 -25 0 -25 0 0 7 -5 14 -12
12 -11 13 -11 13 -22 0 -6 -1 -11 -3 -13 -6 -6 0 -32 9 -41 7 -6 7 -6 18 -4 5
2 10 3 11 3 2 -1 14 8 22 17 l9 10 0 16 -1 16 -9 9 c-6 6 -11 13 -13 16 -2 3
-5 8 -7 10 -2 3 -6 7 -8 9 -9 11 -22 18 -34 18 -7 0 -14 -1 -16 -2z"/>
<path d="M1931 3112 c-8 -7 -14 -10 -24 -11 -15 -2 -25 -4 -29 -8 -2 -2 -5 -3
-7 -3 -2 0 -3 -1 -1 -1 1 -1 2 -6 2 -13 0 -9 1 -12 5 -16 20 -19 60 -9 81 20
10 14 11 27 4 33 -7 4 -26 4 -31 -1z"/>
<path d="M71 3104 c-15 -6 -20 -12 -23 -29 -2 -14 8 -27 25 -30 3 0 9 -1 12
-2 5 -1 10 0 26 8 10 5 20 10 20 12 1 2 2 3 4 3 2 0 2 14 0 21 -5 15 -11 18
-37 18 -11 1 -24 0 -27 -1z"/>
<path d="M1758 3094 c-3 -2 -7 -4 -9 -4 -4 0 -4 -1 0 -1 3 -1 3 -3 3 -14 0 -7
-1 -13 -2 -13 -1 0 -1 -3 1 -6 2 -3 4 -5 5 -5 1 1 2 0 2 0 0 -3 15 -1 22 2 14
7 21 17 22 30 1 7 0 8 -6 11 -10 6 -31 5 -38 0z"/>
<path d="M1202 2213 c0 -3 -11 -7 -20 -7 -9 0 -10 -2 -10 -17 -1 -15 1 -17 16
-17 18 -1 22 2 22 18 0 7 -1 12 -2 12 -1 0 -3 3 -4 7 -1 3 -2 5 -2 4z"/>
</g>
</svg>
