<?xml version="1.0" standalone="no"?>
<!DOCTYPE svg PUBLIC "-//W3C//DTD SVG 20010904//EN"
 "http://www.w3.org/TR/2001/REC-SVG-20010904/DTD/svg10.dtd">
<svg version="1.0" xmlns="http://www.w3.org/2000/svg"
 width="1114.000000pt" height="2870.000000pt" viewBox="0 0 1114.000000 2870.000000"
 preserveAspectRatio="xMidYMid meet">
<metadata>
Created by potrace 1.15, written by Peter Selinger 2001-2017
</metadata>
<g transform="translate(0.000000,2870.000000) scale(0.500000,-0.500000)"
fill="#000000" stroke="none">
<path d="M867 3846 c-24 -8 -36 -18 -39 -32 -3 -16 -1 -23 12 -37 10 -12 33
-41 44 -57 2 -3 7 -9 10 -13 13 -19 32 -54 48 -89 l6 -14 -5 -4 c-6 -6 -8 -6
-81 2 -34 3 -65 6 -71 7 -5 0 -28 3 -51 5 -43 4 -50 4 -62 -4 -4 -3 -9 -9 -11
-13 -4 -8 -4 -11 -5 -118 -1 -60 -1 -110 -2 -110 0 0 -2 -3 -5 -6 -3 -3 -5 -4
-5 -3 -1 1 -21 17 -31 24 -2 1 -13 8 -24 16 -27 18 -34 23 -44 32 -8 9 -21 12
-34 8 -4 -1 -7 -1 -7 0 0 1 -2 2 -4 2 -4 0 -4 6 1 31 10 50 -3 103 -36 155
-24 37 -70 79 -116 107 -26 16 -40 24 -49 28 -4 2 -13 6 -20 9 -55 26 -63 27
-90 15 -8 -4 -21 -8 -28 -9 -30 -5 -37 -21 -23 -55 40 -95 70 -209 76 -290 3
-34 11 -51 33 -66 15 -11 43 -25 55 -27 4 -1 6 -2 3 -2 -3 0 -4 -1 -3 -3 0 -2
0 -3 -1 -3 -1 0 -3 -1 -4 -1 -1 0 -2 -1 -3 -1 -1 -1 -57 -2 -125 -2 -87 0
-125 -1 -130 -2 -16 -5 -23 -16 -24 -34 -1 -6 5 -26 9 -34 3 -6 13 -18 13 -15
0 1 2 0 4 -1 4 -2 10 -3 23 -5 9 -2 15 -5 26 -16 5 -5 11 -9 13 -10 2 -1 4 -2
4 -3 0 -1 1 -1 3 -2 27 -2 29 -2 36 1 4 2 8 6 10 9 4 7 7 28 5 29 -4 2 -2 22
2 27 7 9 27 9 35 0 3 -5 5 -25 1 -27 -2 -1 1 -22 5 -29 6 -11 11 -12 75 -12
l58 0 7 -5 c5 -5 6 -7 5 -13 -1 -12 5 -24 21 -39 18 -18 20 -25 8 -35 -29 -27
-32 -33 -33 -67 0 -12 -1 -26 -1 -30 0 -4 -1 -20 -2 -34 -1 -29 -3 -42 -4 -48
-1 -4 -8 -11 -10 -11 -1 0 -9 7 -18 17 -19 19 -42 40 -64 60 -9 8 -17 15 -19
17 -6 6 -19 17 -30 26 -6 5 -18 15 -26 22 -31 25 -35 28 -47 31 -25 7 -43 -6
-46 -30 -1 -9 0 -12 7 -25 4 -8 10 -19 12 -24 6 -11 10 -15 21 -20 7 -3 26 -7
29 -6 4 0 9 -9 9 -19 1 -15 5 -29 11 -40 5 -9 6 -12 6 -34 l0 -24 22 -44 c12
-25 22 -46 22 -47 0 -5 8 -7 23 -6 l15 0 7 14 c7 15 9 16 19 20 7 2 9 2 16 0
12 -4 16 -10 16 -24 0 -20 -12 -28 -41 -28 -14 0 -20 -3 -18 -6 1 -1 0 -2 -1
-2 -2 0 -6 -11 -6 -20 0 -8 2 -13 14 -40 8 -16 12 -24 25 -57 12 -26 9 -45
-24 -168 -5 -20 -4 -32 3 -39 6 -6 22 -12 32 -12 11 1 20 -8 20 -18 0 -14 -6
-35 -14 -46 -2 -3 -4 -7 -4 -8 0 -7 -8 -23 -12 -27 -8 -5 -27 -5 -35 0 -4 3
-8 3 -17 3 -18 -2 -23 -6 -31 -23 -4 -8 -10 -21 -14 -30 -4 -8 -7 -16 -7 -16
0 -7 -59 -118 -81 -152 -15 -23 -18 -38 -13 -59 2 -5 2 -17 2 -27 -1 -34 7
-45 29 -45 8 0 14 1 18 4 8 4 60 57 75 74 10 11 19 22 35 39 6 6 12 14 23 28
6 7 12 14 14 17 9 11 12 21 12 43 0 24 1 26 25 34 17 7 29 16 37 30 4 8 7 13
13 21 3 6 4 15 1 27 -2 6 -11 16 -24 26 -6 5 -8 17 -6 30 3 13 10 18 27 18 13
0 20 -4 25 -15 7 -13 25 -81 35 -132 8 -39 16 -57 27 -62 4 -1 6 -3 6 -4 0 -1
2 -1 4 -1 1 -1 6 -2 9 -3 12 -5 16 -5 19 1 4 7 4 13 0 24 -4 11 -3 27 1 34 3
8 12 12 24 12 18 0 25 -7 28 -26 5 -33 21 -51 42 -48 21 3 30 13 51 54 13 26
16 30 20 31 4 0 6 -1 8 -6 1 -3 8 -11 15 -17 16 -14 23 -27 29 -51 6 -25 5
-35 -2 -42 -3 -4 -8 -6 -11 -6 -3 0 -8 -1 -12 -3 -4 -1 -7 -2 -8 -1 0 0 -1 0
-1 -2 0 -1 -1 -2 -3 -2 -5 0 -16 -12 -19 -20 -1 -4 -2 -29 -2 -74 l0 -68 5 -5
c4 -6 6 -6 18 -6 8 0 15 -1 15 -2 1 -1 2 -1 2 1 0 2 3 6 6 9 5 4 8 5 19 5 13
0 17 -2 27 -12 6 -6 21 -13 28 -15 19 -3 78 26 105 52 8 7 15 15 15 16 0 1 1
3 3 4 12 12 15 65 6 99 -9 33 -6 40 14 37 27 -4 40 -2 53 8 13 11 55 47 72 63
l15 14 1 14 c0 9 -1 17 -3 24 -3 9 -3 10 0 15 5 6 5 6 18 2 14 -4 29 -3 35 2
3 2 7 10 10 17 8 22 11 26 20 26 10 0 16 -6 16 -14 0 -3 -3 -15 -7 -27 -8 -25
-8 -28 9 -63 11 -21 28 -42 38 -45 5 -2 10 -12 10 -23 0 -12 -8 -22 -17 -22
-9 0 -31 -8 -36 -13 -9 -11 -11 -19 -11 -59 0 -30 1 -39 3 -45 4 -9 14 -21 18
-21 2 0 3 -1 3 -2 0 0 2 -2 5 -2 8 -2 60 0 72 2 7 1 15 3 18 3 39 7 96 39 110
63 12 19 13 27 13 74 0 52 -2 57 -18 62 -11 3 -22 4 -23 2 -2 -3 -16 -4 -24
-2 -10 2 -15 7 -17 18 -3 14 0 23 14 37 7 7 17 18 22 25 5 7 13 15 16 18 16
11 26 23 26 31 0 1 3 5 6 9 4 4 6 6 5 5 -1 -2 0 -3 1 -3 1 0 2 2 3 5 0 2 1 1
1 -3 0 -4 1 -11 3 -15 1 -5 3 -13 4 -19 2 -14 2 -12 5 -21 5 -17 14 -30 26
-37 7 -5 10 -6 24 -13 4 -2 8 -4 10 -6 4 -3 7 -13 4 -13 -2 0 -7 -5 -28 -23
-8 -8 -8 -9 -8 -21 0 -20 8 -25 36 -18 25 7 35 2 44 -20 8 -18 12 -22 29 -22
8 0 13 1 20 5 19 10 33 4 33 -12 0 -9 -1 -11 -19 -25 -8 -8 -13 -15 -14 -25
-1 -5 -1 -8 -2 -9 0 -1 2 -9 4 -19 3 -18 6 -40 8 -62 2 -20 13 -40 24 -42 2 0
4 -1 5 -1 0 0 1 -1 2 -1 0 0 3 -1 5 -2 11 -3 100 15 127 27 53 23 83 47 108
83 10 16 10 16 9 27 -1 8 -3 14 -10 24 -5 8 -9 15 -9 17 0 3 9 13 12 13 1 0 6
4 11 8 10 9 16 20 20 38 2 7 4 14 4 16 5 16 5 26 5 68 l-1 47 -6 10 c-3 5 -8
11 -11 12 -8 6 -18 18 -18 22 0 4 10 16 18 22 3 1 8 7 11 12 l6 10 1 55 c0 46
0 57 -3 67 -5 15 -12 25 -27 33 -25 13 -29 29 -14 49 1 1 4 4 6 7 5 5 7 15 7
28 -1 28 -1 34 2 42 1 4 2 8 2 8 -1 0 13 28 15 30 3 2 7 11 9 21 2 7 3 24 3
59 0 61 -1 65 -26 77 -7 3 -12 7 -12 8 0 1 -2 3 -3 4 -4 1 -4 1 0 4 1 1 3 3 3
4 0 1 5 5 12 8 24 11 26 17 26 68 0 45 -2 51 -15 58 -8 4 -22 8 -26 7 -14 -4
-25 5 -25 19 0 14 11 23 25 19 4 -1 18 3 26 7 16 8 15 2 15 147 0 122 0 128
-4 136 -2 5 -5 11 -7 13 -5 5 -21 11 -34 12 -18 2 -24 9 -24 27 0 18 7 25 24
27 13 1 29 7 34 12 9 11 11 19 11 56 0 42 1 45 24 57 14 7 48 34 53 42 4 8 4
27 -1 35 -2 4 -11 12 -20 19 -9 7 -22 17 -29 22 -11 9 -39 30 -56 43 -4 3 -8
6 -9 7 -2 2 -33 25 -39 29 -8 5 -20 8 -37 11 -16 3 -14 2 -33 23 -6 8 -7 8
-21 8 -14 0 -15 0 -18 -5 -2 -2 -8 -9 -12 -14 -5 -5 -15 -16 -22 -24 -7 -8
-18 -20 -23 -26 -6 -7 -11 -12 -11 -13 0 -1 -5 -4 -10 -7 l-11 -5 -182 -1
c-171 -1 -182 -1 -189 -5 -9 -4 -14 -11 -15 -21 -1 -4 -3 -9 -5 -10 -1 -2 -2
-4 -1 -4 0 0 2 0 3 0 0 0 3 -8 6 -17 2 -10 6 -23 9 -30 l5 -12 -6 -4 c-5 -5
-6 -5 -22 -4 -38 3 -50 11 -50 34 0 8 1 10 6 15 4 3 7 6 9 6 8 0 32 23 34 34
2 9 -17 58 -30 76 -11 15 -28 35 -38 43 -5 4 -11 9 -12 10 -10 9 -32 22 -55
33 -9 5 -19 10 -22 11 -14 8 -36 -3 -45 -22 -6 -11 -11 -15 -19 -15 -11 0 -16
7 -16 19 1 15 -4 31 -11 38 -8 8 -17 10 -60 15 -30 3 -35 3 -46 0z m66 -57 c5
-8 1 -16 -8 -16 -9 0 -13 8 -8 16 2 3 5 5 8 5 3 0 6 -2 8 -5z m-695 -138 l-5
-5 -4 4 -5 5 4 4 5 5 4 -4 5 -5 -4 -4z m136 -62 c-4 -6 -12 -11 -12 -7 0 1 -1
1 -3 1 -2 -1 -3 0 -3 2 0 2 -1 5 -1 6 0 2 3 6 7 8 l7 5 4 -4 5 -5 -4 -6z
m1317 -2 c7 -7 7 -19 -2 -36 -7 -15 -9 -22 -9 -33 0 -99 1 -92 -17 -102 -24
-14 -31 -27 -31 -57 0 -17 -2 -24 -8 -29 -1 -1 -2 -2 -3 -4 0 -2 -1 -2 -1 1 0
5 -25 4 -32 -2 -4 -4 -12 -17 -13 -23 -2 -9 -19 -15 -33 -12 -11 2 -16 7 -18
18 -3 13 0 23 12 34 l10 9 0 15 c0 17 0 17 -11 25 -4 3 -12 10 -17 15 -13 13
-33 16 -44 6 -5 -4 -5 -22 -1 -38 3 -10 3 -13 1 -29 -1 -9 -3 -25 -3 -35 -1
-24 -4 -30 -17 -35 -13 -6 -27 -1 -45 15 -7 7 -14 11 -15 11 -1 -1 -2 0 -2 2
0 1 -1 3 -1 3 -1 1 -4 4 -5 7 -4 6 -4 13 -4 54 0 47 0 47 5 58 3 5 7 11 9 12
13 7 33 41 33 57 1 11 -5 26 -10 26 -4 0 -4 1 0 2 2 1 8 3 12 5 7 4 14 4 102
5 89 1 94 1 102 5 10 5 16 16 20 34 3 17 7 21 21 21 8 0 11 -1 15 -5z m-1349
-11 c8 -3 8 -9 1 -24 -7 -15 -11 -18 -22 -18 -13 0 -19 6 -19 19 0 10 5 19 12
19 2 0 7 1 10 3 9 4 10 4 18 1z m413 -43 c3 -3 3 -3 0 -6 -4 -5 -11 1 -7 6 4
4 4 4 7 0z m576 -6 c4 -2 10 -4 12 -5 3 -1 3 -2 1 -2 -3 0 -6 -5 -7 -10 0 -1
-1 -2 -1 -3 -1 -1 -2 -8 -3 -14 -1 -12 -5 -20 -10 -23 -12 -6 -31 -3 -38 5 -5
6 -8 19 -5 26 1 4 1 7 -1 13 -2 7 -2 8 4 11 12 8 34 9 48 2z m-343 -33 c25
-22 73 -33 108 -25 15 3 46 16 46 19 0 1 2 -1 6 -4 l5 -7 1 -79 1 -79 -6 -6
-6 -6 -99 1 c-106 0 -116 0 -116 -6 0 -2 -1 -1 -3 2 -1 3 -4 8 -6 10 -2 4 -3
11 -3 36 0 32 -1 37 -11 62 -11 29 -3 48 28 65 6 3 15 9 21 14 14 11 23 12 34
3z m246 -38 c5 -5 5 -11 0 -16 -10 -10 -27 5 -16 16 4 4 12 4 16 0z m-695 -85
c8 -8 7 -20 -2 -28 -3 -3 -8 -6 -11 -6 -14 -2 -24 23 -14 34 7 7 20 7 27 0z
m240 -11 c4 -6 4 -24 -1 -30 -7 -9 -27 -9 -34 0 -5 6 -5 24 0 30 7 9 27 9 35
0z m-340 -9 c-1 -3 -2 -7 -3 -8 -1 -1 -2 -3 -1 -3 1 -1 -4 -3 -9 -6 -14 -7
-31 -7 -36 -1 -2 3 -5 5 -7 6 -2 0 -1 1 3 1 4 0 15 3 23 7 26 12 28 13 29 12
1 -1 2 -4 1 -8z m817 -1 c1 0 5 -3 8 -6 5 -5 6 -7 6 -18 0 -11 -1 -13 -6 -18
-6 -6 -7 -6 -18 -6 -11 0 -12 0 -18 6 -5 5 -6 7 -6 17 0 14 3 20 12 24 5 2 8
2 22 1z m455 -34 c7 -6 7 -19 1 -25 -6 -7 -19 -7 -25 -1 -7 6 -7 19 -1 25 6 7
19 7 25 1z m-1191 -20 c7 -7 3 -19 -8 -19 -11 0 -15 12 -7 20 6 5 9 5 15 -1z
m177 -20 c7 -5 8 -14 7 -54 -2 -39 -3 -44 -20 -64 -9 -10 -13 -18 -18 -34 -4
-10 -4 -17 -4 -94 0 -81 0 -83 5 -89 8 -11 19 -16 40 -15 14 0 21 -5 21 -18 0
-13 -7 -18 -21 -18 -21 1 -32 -4 -41 -15 -4 -6 -4 -6 -4 -125 0 -105 0 -119 3
-126 2 -4 4 -8 4 -7 1 0 3 0 4 -2 2 -2 7 -3 15 -3 7 0 12 -1 13 -2 0 -2 1 -1
1 1 0 7 8 11 19 12 21 0 30 -7 30 -27 0 -19 -8 -27 -27 -27 -13 0 -22 5 -22
12 0 2 -1 3 -1 2 -1 -2 -6 -3 -13 -3 -8 0 -13 -1 -15 -3 -1 -2 -3 -2 -4 -2 0
1 -2 -2 -4 -7 -2 -7 -3 -18 -3 -79 0 -80 0 -79 2 -78 1 0 4 -5 7 -11 3 -7 6
-12 7 -12 4 0 12 -16 12 -25 0 -10 -8 -24 -15 -27 -7 -3 -15 2 -19 11 -5 11
-5 20 -2 41 3 18 1 33 -2 25 -1 -3 -2 -3 -2 2 0 8 -14 53 -23 78 -18 45 -51
112 -70 142 -13 20 -22 41 -23 53 -1 15 0 19 11 34 12 20 16 28 20 51 2 10 4
20 4 22 3 12 14 80 16 96 0 4 3 21 5 36 5 37 3 48 -13 64 -3 2 -5 5 -5 6 0 2
-1 4 -3 5 -3 3 -4 16 -1 16 1 0 3 2 4 5 1 3 4 5 6 6 7 2 21 19 24 28 3 7 5 25
7 53 2 24 4 52 5 63 0 10 0 19 -1 19 0 0 2 3 5 6 5 4 10 6 18 7 28 2 43 20 46
53 1 12 2 17 5 19 5 4 5 4 10 -1z m240 -31 c2 0 3 -2 3 -4 0 -3 12 -17 18 -20
3 -1 10 -3 15 -4 6 -1 12 -2 13 -2 6 -1 18 -7 23 -12 16 -14 26 -18 48 -18 19
0 19 0 39 11 23 11 32 13 44 7 10 -5 13 -16 14 -52 l1 -32 -6 -6 c-4 -4 -7 -6
-7 -5 0 1 -5 2 -10 3 -6 0 -15 3 -21 5 -11 4 -52 21 -62 25 -36 16 -51 18 -67
11 -11 -6 -17 -12 -22 -24 -4 -8 -4 -13 -4 -82 0 -72 0 -74 5 -94 6 -25 6 -27
0 -52 l-5 -21 0 -170 c0 -163 0 -171 4 -179 8 -18 24 -27 46 -25 22 2 35 11
44 29 10 19 21 25 31 16 10 -9 6 -19 -13 -38 -13 -13 -15 -17 -32 -66 -12 -37
-34 -93 -46 -119 -6 -12 -7 -17 -8 -37 -1 -26 -2 -29 -16 -38 -12 -7 -26 -23
-33 -37 -3 -7 -7 -13 -8 -13 -1 -1 -2 -3 -2 -4 0 -2 -1 -4 -1 -6 -1 -2 -3 -7
-4 -11 -6 -18 -16 -22 -29 -10 -8 7 -9 10 -2 13 3 1 5 3 5 4 0 1 3 5 7 9 7 9
12 17 15 27 1 4 2 79 2 236 0 254 1 241 -12 247 -9 4 -27 4 -30 1 -2 -1 -4 -2
-5 -2 -5 0 -26 -12 -30 -17 -4 -4 -10 -16 -15 -31 -6 -16 -39 -18 -49 -2 -9
13 -25 30 -33 34 -9 5 -13 12 -16 28 -5 25 -4 37 1 48 3 6 6 11 8 11 2 1 3 2
3 3 0 3 13 23 17 26 10 9 25 1 25 -11 0 -5 -2 -9 -10 -17 -5 -6 -10 -12 -10
-14 -3 -24 -1 -29 11 -40 3 -3 7 -6 8 -7 14 -14 33 -14 46 -1 5 6 15 21 15 24
0 5 10 10 23 11 31 1 46 12 51 34 1 9 2 45 2 129 0 113 0 117 -4 125 -6 12
-17 18 -39 20 -11 2 -17 8 -17 18 0 5 1 10 3 11 2 1 3 4 3 5 0 1 2 4 4 6 3 2
4 5 4 17 0 15 0 15 -17 29 -8 6 -9 14 -3 21 4 5 5 5 15 2 13 -3 28 -3 36 1 11
4 14 14 15 47 1 27 1 30 6 36 l5 8 4 -7 c2 -3 5 -7 6 -8z m-451 -57 c1 0 5 -3
8 -6 5 -5 6 -7 6 -18 0 -11 -1 -13 -6 -18 -6 -6 -7 -6 -18 -6 -11 0 -12 0 -18
6 -5 5 -6 7 -6 17 0 14 3 20 12 24 5 2 8 2 22 1z m1141 -8 c5 -5 5 -7 5 -22 0
-9 1 -20 2 -25 8 -37 11 -45 20 -55 5 -7 6 -8 20 -16 6 -4 13 -10 14 -13 3 -5
1 -28 -4 -70 -2 -13 -6 -21 -11 -21 -1 0 -8 -4 -15 -8 -10 -6 -15 -11 -19 -18
l-6 -9 -1 -168 c0 -185 0 -185 11 -196 8 -8 14 -9 36 -8 18 1 25 -3 25 -13 0
-10 -13 -30 -20 -30 -1 0 -4 -2 -6 -4 -16 -13 -25 -21 -27 -23 -5 -2 -14 -17
-17 -26 -4 -16 -2 -33 7 -44 4 -5 6 -6 21 -8 4 -1 7 -2 8 -2 0 0 2 1 4 2 1 2
4 3 6 2 2 0 3 2 3 11 0 28 5 38 25 58 6 6 13 13 14 16 4 4 18 8 29 8 10 0 15
-5 23 -25 5 -14 8 -19 18 -28 16 -15 19 -21 18 -36 -1 -9 -2 -12 -7 -16 -9 -9
-43 -9 -67 -1 -6 2 -13 5 -15 5 -7 2 -22 1 -23 -1 0 -1 -2 -1 -3 -1 -3 1 -3 1
-1 -2 2 -5 5 -12 4 -13 0 -1 2 -7 4 -14 5 -15 5 -17 0 -22 -3 -3 -6 -4 -20 -3
-22 1 -29 0 -36 -7 l-5 -5 -7 15 c-11 25 -15 31 -24 37 -11 9 -17 10 -28 7
-16 -4 -21 -11 -25 -37 -2 -14 -4 -19 -7 -21 -6 -5 -22 -5 -28 0 -5 4 -6 8 -6
79 0 16 7 22 27 24 7 1 16 3 19 5 6 4 6 5 6 16 -1 16 -3 20 -14 28 -5 4 -10 8
-11 9 -4 4 -17 13 -23 17 -21 12 -32 19 -33 22 -2 5 7 11 25 19 37 14 62 33
72 54 4 11 5 15 6 39 0 14 0 29 -1 33 -2 10 -9 18 -20 21 -6 1 -12 3 -14 4 -3
1 -5 1 -5 0 0 -1 -3 -2 -7 -2 -10 0 -17 6 -17 16 0 11 6 16 20 16 22 -1 38 8
42 22 3 9 3 53 0 71 -2 10 -6 21 -13 37 -13 28 -14 35 -5 52 6 9 7 13 7 24 -1
15 -3 18 -20 18 -11 0 -13 -1 -18 -5 -20 -18 -30 -21 -38 -13 -6 6 -6 14 0 27
6 13 14 20 35 31 10 4 22 12 27 17 12 11 16 13 34 16 12 2 15 6 15 24 0 13 0
14 -6 19 -4 4 -8 6 -10 7 -2 1 -7 7 -12 15 -5 8 -15 20 -22 26 l-13 12 -12 -1
c-6 0 -13 -2 -15 -3 -5 -3 -12 -14 -16 -25 -4 -12 -10 -15 -25 -15 l-13 0 -11
11 c-15 15 -34 20 -53 13 l-10 -3 -7 6 -6 6 0 27 0 27 6 6 6 6 114 0 114 0 6
-5z m182 -7 c3 -5 3 -5 0 -10 -5 -6 -8 -6 -13 -1 -5 5 -5 5 0 11 4 6 8 6 13 0z
m-87 -13 c3 -3 11 -9 18 -13 10 -9 18 -18 18 -24 0 -1 -2 -5 -4 -7 l-3 -5 -16
4 c-36 7 -49 18 -46 38 2 15 18 19 33 7z m55 -137 c4 -4 5 -7 5 -15 0 -14 -6
-20 -20 -20 -14 0 -20 6 -20 20 0 14 6 20 20 20 8 0 11 -1 15 -5z m-400 -19
c9 -6 13 -12 13 -22 0 -6 -1 -9 -10 -17 -12 -11 -14 -16 -14 -28 0 -17 7 -24
29 -28 4 -1 13 -4 20 -7 16 -7 33 -11 47 -9 6 1 11 1 12 1 14 2 29 -22 29 -45
-1 -16 -12 -25 -31 -25 -10 -1 -22 5 -22 9 0 1 -2 2 -6 1 -4 0 -8 1 -12 5 -11
8 -23 12 -28 9 -3 -2 -5 -2 -7 0 -6 5 -22 8 -32 7 -14 -2 -23 -8 -28 -19 -5
-11 -14 -19 -19 -17 -2 1 -7 2 -11 2 -15 2 -21 9 -21 27 0 13 3 18 19 26 30
16 40 31 32 48 -3 6 -14 18 -17 18 -1 0 -3 3 -5 6 -4 8 -2 20 7 31 4 4 8 11 9
14 6 12 14 17 27 17 8 0 14 -1 19 -4z m-189 -46 c-1 -17 -5 -29 -8 -27 -1 1
-2 0 -2 -2 0 -3 -1 -2 -3 2 -2 3 -9 13 -17 22 -17 19 -18 21 -14 27 3 4 5 5
17 6 8 0 14 1 15 1 0 0 3 -2 7 -6 l6 -6 -1 -17z m69 -19 c3 -5 3 -5 0 -10 -2
-3 -5 -5 -7 -5 -2 0 -5 2 -7 5 -3 5 -3 5 0 10 2 3 5 5 7 5 2 0 5 -2 7 -5z
m522 -8 c3 -3 3 -3 0 -6 -4 -5 -11 1 -7 6 4 4 4 4 7 0z m-937 -51 c9 -9 9 -26
0 -34 -6 -6 -7 -6 -19 -6 -16 1 -20 5 -21 21 0 12 0 13 6 19 8 9 25 9 34 0z
m-535 -13 c3 -5 3 -5 -2 -11 l-5 -5 -5 5 c-5 6 -5 6 -2 11 2 3 5 5 7 5 2 0 5
-2 7 -5z m1460 -11 c6 -6 6 -15 1 -22 -7 -10 -26 -2 -26 11 0 13 16 20 25 11z
m45 -65 c6 -4 8 -12 8 -26 -2 -16 -7 -21 -25 -21 -11 0 -14 1 -18 5 -11 9 -8
40 4 45 5 3 25 0 31 -3z m-409 -29 c4 0 5 -5 7 -30 1 -13 2 -24 3 -26 3 -5 3
-36 0 -45 -5 -13 -3 -28 5 -35 5 -5 20 -10 29 -10 11 0 17 -19 9 -27 -5 -4
-27 -15 -32 -15 -2 0 -2 0 0 -2 3 -2 0 -4 -10 -5 -5 -1 -10 -2 -11 -2 -2 0 -5
2 -8 6 -3 4 -5 7 -4 7 0 0 -1 7 -2 15 -2 7 -3 17 -3 20 0 8 -6 25 -8 24 -1 -1
-2 0 -3 1 -1 1 -8 2 -16 2 -15 0 -16 0 -23 -7 -7 -6 -9 -7 -20 -7 -13 0 -24 5
-28 12 -4 8 -2 29 3 34 6 6 24 9 31 6 4 -2 9 -2 13 -1 5 1 9 2 9 2 1 0 2 1 3
2 1 0 3 1 4 1 5 0 18 13 21 21 1 5 7 17 12 29 6 11 11 24 13 28 1 5 2 7 3 5 0
-2 1 -3 3 -3z m-947 -14 c1 0 5 -3 8 -6 5 -5 6 -7 6 -18 0 -11 -1 -13 -6 -18
-6 -6 -7 -6 -18 -6 -11 0 -12 0 -18 6 -5 5 -6 7 -6 17 0 14 3 20 12 24 5 2 8
2 22 1z m829 -5 c3 -3 3 -3 0 -6 -4 -5 -11 1 -7 6 4 4 4 4 7 0z m-107 -146
c21 -9 20 -45 -2 -54 -10 -5 -28 -1 -34 6 -9 10 -9 32 0 42 7 8 24 11 36 6z
m-634 -69 c11 0 13 -4 13 -21 0 -19 2 -34 6 -43 7 -16 1 -26 -14 -29 -20 -3
-52 -2 -76 4 -13 3 -26 7 -29 8 -7 4 -11 13 -11 25 1 13 5 20 18 29 7 4 15 10
18 13 14 11 34 16 62 15 4 -1 10 -1 13 -1z m702 -44 c3 -1 7 -5 9 -8 10 -15
20 -24 38 -33 17 -8 19 -11 19 -24 0 -13 -6 -19 -19 -19 -10 0 -15 2 -26 13
-3 3 -9 7 -12 8 -6 4 -28 11 -32 11 -12 0 -20 12 -20 28 1 23 19 33 43 24z
m178 -10 c5 -5 5 -15 0 -20 -9 -9 -24 -2 -24 10 0 8 6 14 14 14 3 0 8 -2 10
-4z m-602 -20 c5 -5 5 -11 0 -16 -10 -10 -27 5 -16 16 4 4 12 4 16 0z m-89
-19 c3 -5 3 -5 0 -10 -2 -3 -5 -5 -7 -5 -2 0 -5 2 -7 5 -3 5 -3 5 0 10 2 3 5
5 7 5 2 0 5 -2 7 -5z m386 0 c12 -7 14 -33 3 -43 -8 -9 -32 -9 -40 0 -9 8 -9
33 0 41 8 7 28 8 37 2z m330 -35 c7 -6 7 -19 1 -25 -6 -6 -19 -7 -25 -1 -7 5
-7 19 -1 25 6 7 19 7 25 1z m-672 -96 c10 -9 3 -26 -10 -26 -8 0 -15 7 -15 15
0 13 16 20 25 11z m884 -17 c6 -3 13 -5 14 -5 2 0 6 -3 9 -6 5 -5 6 -7 6 -18
0 -15 -4 -20 -18 -25 -6 -2 -16 -6 -22 -10 -26 -15 -30 -17 -53 -18 -22 -1
-35 1 -35 6 0 1 4 5 8 8 17 11 41 40 48 59 7 18 18 26 26 19 3 -2 10 -7 17
-10z m-814 -81 c3 -3 7 -9 8 -13 l3 -7 -10 -5 c-20 -10 -34 -4 -34 13 0 17 19
24 33 12z m470 -101 c7 -4 10 -11 10 -23 0 -15 -3 -19 -18 -26 -16 -8 -34 -8
-40 -2 -7 8 1 41 12 50 7 6 27 7 36 1z m-558 -73 c16 -4 29 -11 33 -16 4 -6 4
-14 -1 -19 -9 -9 -55 12 -55 25 0 5 6 12 11 12 2 0 8 -1 12 -2z m93 -19 c-4
-5 -5 -5 -8 -2 -5 4 -5 7 -1 11 4 4 4 4 8 0 l5 -5 -4 -4z"/>
<path d="M26 1974 c-24 -23 -26 -45 -8 -64 14 -14 33 -15 51 -3 14 9 17 16 17
34 0 11 -1 14 -8 25 -11 16 -12 17 -28 18 l-13 1 -11 -11z"/>
</g>
</svg>
