<?xml version="1.0" standalone="no"?>
<!DOCTYPE svg PUBLIC "-//W3C//DTD SVG 20010904//EN"
 "http://www.w3.org/TR/2001/REC-SVG-20010904/DTD/svg10.dtd">
<svg version="1.0" xmlns="http://www.w3.org/2000/svg"
 width="1106.000000pt" height="2870.000000pt" viewBox="0 0 1106.000000 2870.000000"
 preserveAspectRatio="xMidYMid meet">
<metadata>
Created by potrace 1.15, written by Peter Selinger 2001-2017
</metadata>
<g transform="translate(0.000000,2870.000000) scale(0.500000,-0.500000)"
fill="#000000" stroke="none">
<path d="M1233 3850 c-27 -5 -39 -19 -44 -54 -1 -5 -2 -12 -4 -15 -1 -3 -5
-14 -7 -24 -12 -51 -34 -125 -46 -156 -4 -11 -9 -23 -10 -26 -3 -6 -4 -21 -2
-21 1 0 2 -2 4 -5 1 -3 3 -5 3 -4 1 0 3 0 4 -2 4 -3 22 -2 32 2 9 4 25 4 30 0
6 -4 13 -16 13 -22 0 -3 -2 -7 -5 -9 -4 -5 -4 -5 -1 -18 3 -15 10 -23 20 -25
3 -1 8 -4 11 -6 3 -3 6 -5 7 -6 2 0 2 -1 0 -1 -2 0 -11 -8 -20 -17 -9 -10 -19
-19 -22 -21 -12 -9 -17 -35 -9 -50 4 -9 5 -25 0 -33 -3 -8 -12 -12 -24 -12 -8
0 -36 8 -40 11 -5 4 -23 4 -33 1 -16 -5 -67 -31 -76 -39 -19 -17 -29 -22 -45
-22 -7 0 -20 9 -22 14 -1 2 -9 9 -19 15 -10 6 -19 13 -21 14 -14 14 -33 15
-53 1 -14 -9 -22 -10 -28 -4 -4 4 -4 6 -3 12 6 37 1 54 -16 57 -14 3 -17 3
-22 0 -3 -2 -5 -2 -4 -1 1 1 0 1 -3 0 -2 -2 -4 -5 -4 -6 0 -2 -1 -5 -1 -5 0
-1 -1 -6 -2 -11 -3 -16 -11 -19 -30 -13 -13 5 -12 9 3 23 13 12 18 15 27 14 3
-1 5 -1 5 1 0 2 -1 3 -2 2 -3 -2 -3 0 0 5 3 5 -7 33 -13 41 -9 9 -16 11 -37
13 -22 2 -37 8 -34 14 3 9 -2 9 184 9 176 0 182 0 182 3 0 1 2 2 4 3 5 2 15
12 21 22 5 7 5 9 4 20 -2 20 -9 31 -21 34 -6 2 -15 8 -29 21 -19 18 -26 20
-73 20 l-41 0 -8 6 c-4 3 -6 6 -5 6 1 1 3 9 4 18 2 16 2 18 -2 26 -2 5 -6 11
-8 13 -7 4 -30 6 -34 2 -7 -6 -30 -5 -37 2 -4 3 -7 20 -6 27 2 10 6 15 16 20
15 7 19 13 20 29 l0 14 -10 10 c-23 21 -53 40 -89 56 -11 5 -34 5 -52 0 -7 -2
-16 -4 -21 -5 -8 -2 -13 -8 -14 -17 -1 -3 -2 -10 -3 -14 -1 -5 -1 -9 -1 -9 1
0 -1 -2 -2 -4 -5 -5 -21 -4 -45 4 -24 8 -27 11 -31 29 -4 19 -4 17 -8 26 -8
16 -22 20 -42 11 -27 -11 -35 -20 -35 -40 0 -14 -1 -14 16 -32 17 -18 21 -23
28 -32 3 -4 6 -8 7 -9 1 -1 7 -8 12 -16 5 -8 11 -15 13 -17 1 -1 5 -7 9 -13 3
-6 7 -13 8 -15 16 -26 38 -75 38 -83 1 -10 -6 -11 -21 -4 -23 11 -14 11 -250
11 l-217 -1 -10 -5 c-18 -9 -22 -21 -15 -51 4 -14 4 -19 2 -24 -1 -4 -1 -7 1
-11 6 -12 14 -13 35 -6 16 6 27 5 38 -2 6 -4 10 -7 10 -8 0 -3 11 -8 21 -9 6
-1 14 0 23 2 l14 4 23 -7 c23 -6 23 -6 63 -6 39 1 40 1 45 6 8 8 12 29 6 36
-6 6 -4 24 3 31 13 13 38 4 38 -13 1 -12 0 -15 -4 -20 -3 -4 -4 -7 -4 -17 0
-17 3 -23 16 -32 3 -2 8 -6 10 -11 9 -16 13 -21 26 -34 12 -13 14 -15 14 -22
0 -10 -7 -16 -18 -16 -4 1 -8 2 -9 3 0 2 -2 3 -4 3 -2 0 -3 1 -3 2 0 4 -19 21
-31 28 -11 6 -12 6 -26 5 -8 0 -19 -2 -23 -4 -5 -2 -15 -4 -22 -4 -40 -4 -52
-15 -56 -52 -3 -24 -5 -28 -23 -37 -4 -3 -12 -8 -17 -12 -20 -16 -26 -17 -47
-6 -24 12 -40 11 -58 -6 -2 -3 -9 -9 -16 -14 -6 -5 -13 -12 -15 -16 -5 -10 -5
-30 0 -43 2 -5 6 -17 9 -26 7 -24 24 -60 32 -68 3 -3 12 -8 21 -12 22 -8 29
-12 33 -20 7 -12 5 -29 -4 -37 -3 -2 -4 -6 -4 -10 1 -13 -16 -33 -39 -49 -33
-22 -41 -38 -32 -65 5 -18 12 -29 19 -36 5 -4 34 -18 38 -18 5 0 11 -10 14
-21 8 -26 18 -34 51 -35 2 0 6 -2 9 -5 10 -10 5 -36 -8 -37 -2 0 -9 -1 -14 -1
-6 0 -13 -2 -18 -4 -4 -3 -10 -5 -14 -6 -3 0 -9 -2 -12 -3 -9 -3 -24 -1 -48 8
-25 9 -47 11 -63 5 -13 -5 -31 -20 -35 -28 -2 -5 -4 -10 -5 -12 -8 -17 1 -49
17 -66 13 -14 19 -15 88 -15 44 0 63 1 73 3 7 2 19 3 26 3 7 0 19 -1 26 -3 10
-2 33 -3 103 -3 l91 0 12 -5 c9 -5 12 -7 14 -13 7 -19 4 -26 -12 -36 -20 -13
-26 -22 -40 -72 -28 -94 -60 -189 -73 -213 -9 -17 -22 -36 -38 -53 -22 -23
-24 -34 -10 -58 16 -28 -11 -46 -35 -24 -4 4 -36 2 -33 -2 1 -1 0 -3 -1 -5 -2
-3 3 -19 6 -19 1 0 2 -1 2 -3 0 -3 13 -30 22 -46 3 -4 8 -14 11 -20 13 -24 28
-52 32 -61 11 -19 20 -25 48 -31 22 -5 26 -12 16 -37 -11 -25 -10 -37 2 -48 8
-7 25 -11 41 -9 6 1 15 2 20 2 15 2 24 3 30 5 2 1 34 12 71 24 37 12 73 24 78
26 6 2 18 7 27 10 9 3 28 10 41 15 13 5 51 19 85 32 55 22 62 25 69 32 7 8 9
9 24 11 15 2 32 7 56 18 19 8 26 12 46 20 11 5 21 10 22 12 3 4 15 9 25 11 6
1 11 3 45 19 9 4 22 10 29 13 33 16 46 45 33 75 -6 12 -12 18 -24 22 -10 3
-22 9 -24 12 -1 1 1 4 3 8 11 15 16 29 18 49 1 10 3 27 5 36 3 22 2 32 -8 53
-11 23 -34 52 -41 52 -5 0 9 9 18 12 20 6 31 19 33 43 2 21 10 28 29 28 12 -1
21 -5 24 -13 1 -3 3 -6 4 -6 1 0 2 -1 2 -3 0 -4 14 -16 25 -22 15 -7 17 -12
14 -23 -2 -5 -5 -12 -8 -16 -5 -9 -10 -21 -14 -37 -2 -12 -2 -14 1 -23 2 -6 5
-12 7 -13 6 -5 25 -13 29 -13 11 0 16 -21 7 -30 -4 -4 -6 -4 -18 -3 -19 1 -25
-3 -25 -19 0 -11 1 -14 7 -23 6 -8 7 -12 7 -21 0 -10 -1 -11 -7 -17 -4 -4 -9
-7 -10 -7 -5 0 -22 -17 -25 -26 -4 -8 -4 -12 -3 -45 0 -20 2 -40 3 -46 8 -43
11 -55 19 -74 21 -51 54 -86 102 -108 16 -8 48 -18 62 -20 4 0 12 -1 17 -2 5
-1 10 -2 10 -2 1 -1 20 -2 42 -2 55 -2 62 1 69 27 2 9 2 11 0 13 -6 3 -14 41
-11 54 2 7 3 10 11 19 3 2 6 8 8 13 2 4 4 10 5 12 1 2 3 9 5 15 5 17 12 22 28
23 15 1 22 -5 31 -21 7 -15 17 -24 35 -34 18 -9 22 -13 22 -29 0 -19 -9 -28
-28 -28 -10 0 -17 3 -24 9 -2 2 -5 4 -6 4 -20 1 -25 0 -32 -4 -4 -3 -7 -6 -7
-7 0 -4 -15 -27 -17 -27 -3 0 0 -21 4 -27 2 -3 7 -7 12 -9 9 -4 13 -4 86 -3
74 0 110 3 125 9 3 1 8 2 11 3 19 3 61 20 69 28 7 6 12 21 13 36 1 13 3 15 23
16 10 0 18 1 20 2 2 1 3 2 4 2 9 0 28 38 34 68 4 18 4 57 0 71 -9 34 -32 61
-70 80 -13 6 -27 6 -39 -1 -19 -13 -23 -14 -30 -10 -6 4 -15 12 -15 15 0 2
-19 7 -27 7 -4 0 -18 -4 -31 -9 -22 -8 -24 -8 -52 -9 -69 -2 -133 -3 -159 -1
-41 2 -41 2 -30 57 6 28 6 30 -4 59 -2 7 -4 14 -4 16 0 2 1 5 1 7 0 3 6 11 15
20 15 16 23 29 26 41 2 9 9 17 20 21 20 8 22 10 58 42 7 7 7 8 7 21 0 18 -2
21 -20 32 -7 5 -13 9 -14 10 -1 1 -5 4 -10 7 -5 3 -9 6 -10 7 -1 1 -5 4 -10 7
-5 3 -9 6 -10 7 -1 1 -5 4 -10 7 -5 3 -9 6 -10 7 -1 1 -5 4 -10 7 -5 3 -9 6
-10 7 -1 1 -5 4 -10 7 -5 3 -9 6 -10 7 -5 5 -27 18 -33 18 -16 0 -26 -7 -35
-24 -7 -13 -13 -17 -28 -17 -14 1 -20 5 -26 17 -5 12 -6 13 -14 22 -8 9 -25
12 -34 6 -3 -2 -7 -4 -8 -4 -2 0 -22 -22 -30 -34 -4 -5 -8 -10 -9 -10 -1 0 -4
-2 -8 -4 l-6 -5 -140 -1 c-152 -1 -142 0 -160 -13 -14 -9 -18 -17 -17 -47 0
-24 0 -25 -6 -30 -8 -9 -26 -9 -34 0 -7 6 -7 12 -4 36 3 21 0 33 -11 40 -13 9
-21 12 -36 13 -13 1 -16 2 -20 7 -3 4 -4 6 -3 8 1 2 2 5 3 7 0 2 2 9 4 16 2 7
4 13 3 13 0 1 3 4 6 7 6 5 8 5 27 5 34 0 40 4 39 24 l0 14 6 1 c7 0 6 0 -1 1
-12 0 -16 5 -17 20 0 10 0 14 6 25 4 8 8 15 10 17 1 1 2 3 2 4 0 5 15 22 20
23 9 3 23 2 29 -2 7 -5 31 -5 38 -1 17 9 22 36 10 59 -6 12 -6 19 0 23 1 1 1
2 0 2 0 0 1 2 3 5 3 2 5 4 6 3 2 -2 12 -6 17 -6 3 0 7 -1 9 -2 3 -1 4 -1 5 0
1 1 6 2 12 2 12 0 12 0 25 15 8 9 14 13 23 13 10 0 17 -7 17 -17 0 -11 -2 -14
-19 -23 -26 -14 -38 -33 -42 -62 0 -2 -1 -5 -2 -6 -1 -2 -4 -7 -6 -11 -2 -5
-4 -9 -5 -9 0 0 -4 -3 -7 -6 -13 -11 -15 -12 -33 -11 -28 2 -41 -2 -50 -18 -4
-5 -7 -10 -8 -11 0 -1 -2 -3 -4 -6 -7 -14 -14 -20 -23 -20 -7 -1 -7 -1 -1 -1
l6 -1 0 -14 c-1 -8 0 -15 2 -16 6 -8 14 -8 173 -8 l155 1 10 4 c5 3 11 7 13
10 5 7 13 24 13 27 0 3 6 12 13 20 3 4 9 10 12 15 3 4 8 7 10 7 2 0 3 1 2 1
-2 1 -3 5 -3 9 0 4 -1 10 -2 13 -3 9 1 14 20 20 17 6 17 6 10 7 l-7 1 7 1 c7
0 17 2 93 24 20 6 38 11 40 11 13 3 82 23 89 27 5 2 13 6 17 10 7 6 8 7 8 19
1 14 -1 18 -28 38 -4 4 -7 5 -15 4 -5 0 -6 0 -2 0 3 1 6 2 6 3 -1 2 1 5 5 9 8
9 12 17 11 26 -1 17 -10 29 -21 28 -7 -1 -22 -8 -27 -14 -3 -4 -5 -26 -2 -28
1 -1 2 -4 2 -7 0 -3 1 -6 2 -6 1 0 2 -1 2 -2 0 -2 2 -4 5 -5 3 -2 5 -2 5 -1 0
1 3 2 8 2 7 -1 7 -1 1 -1 -5 -1 -7 -2 -7 -4 0 -2 0 -3 -1 -3 -1 2 -15 -11 -15
-13 0 -3 -19 -19 -26 -23 -10 -5 -12 -5 -17 1 -3 5 -3 6 0 13 2 5 6 11 10 15
15 15 14 42 -3 60 -5 5 -7 13 -4 13 2 0 0 11 -3 13 -2 2 -2 5 -1 13 3 12 0 20
-7 24 -3 2 -5 3 -5 4 0 0 -2 4 -5 7 -16 18 -20 44 -8 54 8 7 28 7 36 0 l6 -5
0 -26 c0 -16 -1 -30 -2 -33 -3 -6 -2 -7 5 -15 11 -12 22 -15 41 -10 8 2 31 1
44 -3 2 -1 10 -2 17 -4 18 -4 21 -8 19 -26 -1 -8 -2 -18 -3 -24 -4 -17 -3 -47
1 -55 8 -15 14 -20 36 -26 11 -4 21 -8 23 -9 2 -1 5 -3 7 -4 9 -3 -2 -12 -17
-12 -15 0 -32 -4 -38 -9 -4 -3 -5 -6 -6 -20 -1 -16 -1 -17 4 -21 8 -7 45 -13
49 -7 0 1 3 2 6 2 7 2 14 -6 14 -14 -1 -4 0 -10 1 -13 1 -4 2 -8 3 -10 0 -2 3
-11 6 -20 6 -19 6 -22 1 -34 -3 -7 -5 -13 -4 -22 1 -26 7 -28 90 -27 69 1 69
1 86 19 3 3 6 5 7 5 2 0 3 1 3 2 1 2 9 3 23 3 26 0 32 2 40 16 7 13 8 28 1 42
-3 7 -10 14 -28 28 -13 11 -27 23 -32 27 -5 4 -16 13 -24 19 -18 15 -20 19
-22 52 -2 31 -5 42 -18 71 -8 18 -24 45 -30 50 -1 1 -3 4 -6 8 -8 11 -26 28
-33 32 -4 2 -11 3 -25 3 -21 -1 -23 0 -29 12 -8 16 -1 29 22 40 19 8 27 13 38
21 15 11 29 18 39 18 5 0 19 0 32 0 13 0 26 1 29 2 17 5 42 24 48 36 4 8 4 24
0 32 -3 5 -16 18 -19 18 0 0 -4 2 -7 5 -3 3 -6 5 -7 5 -1 0 -3 1 -4 3 -2 1
-10 7 -18 12 -8 6 -15 10 -16 11 -5 5 -57 37 -71 44 -12 6 -21 12 -31 22 -12
12 -16 15 -37 23 -23 10 -28 13 -42 29 -3 3 -7 6 -9 6 -2 0 -4 1 -5 2 0 1 -3
1 -6 1 -9 -2 -15 7 -15 22 0 15 -2 22 -10 30 -5 5 -28 17 -43 22 -4 2 -6 3 -4
3 2 0 3 1 2 2 -1 2 17 10 22 10 11 0 22 23 21 45 0 11 0 12 7 18 4 4 11 9 15
11 4 2 9 6 12 9 8 9 20 17 26 17 8 0 54 -16 58 -20 5 -5 5 -11 0 -16 -4 -4 -8
-4 -27 0 -20 4 -30 0 -44 -19 -6 -9 -7 -17 -2 -28 3 -6 5 -8 10 -9 1 0 3 -1 5
-2 4 -4 42 -6 116 -7 80 -1 82 -1 101 14 17 14 19 15 39 16 21 0 34 5 38 14 2
2 4 5 5 5 3 3 3 26 -2 33 -6 10 -12 12 -34 12 l-19 0 -8 7 c-28 29 -38 40 -41
48 -12 24 -15 29 -22 36 -5 4 -10 8 -13 10 -2 2 -7 5 -10 8 -25 16 -74 54 -86
65 -6 6 -25 8 -30 3 -6 -5 -7 -16 -4 -29 5 -20 1 -29 -15 -32 -9 -1 -31 -8
-38 -12 -17 -9 -46 -36 -57 -53 -5 -8 -10 -13 -16 -16 l-9 -5 -77 -1 -77 -1
-9 -5 c-9 -6 -16 -14 -24 -29 -2 -5 -7 -11 -12 -14 l-8 -5 -11 3 c-14 5 -18 9
-19 23 0 12 4 25 10 28 3 2 23 6 39 7 4 1 9 2 10 3 1 1 3 2 4 2 2 0 13 6 25
13 13 8 27 16 32 19 29 16 38 24 47 40 6 11 6 16 4 42 -1 17 -1 21 2 25 3 6 4
20 1 31 -3 10 -10 15 -27 19 -8 2 -15 4 -17 4 -30 8 -30 8 -43 4 -13 -3 -20
-14 -26 -39 0 -3 -6 -10 -11 -15 -11 -10 -14 -14 -15 -21 -1 -2 -2 -6 -2 -8
-1 -3 -2 -10 -2 -16 -1 -9 -2 -12 -7 -17 -13 -13 -38 -4 -38 13 -1 14 0 16 13
28 10 10 13 16 16 24 9 31 9 66 -1 69 -13 4 -18 3 -28 -7 -6 -5 -10 -11 -10
-13 0 -1 -3 -4 -6 -7 -6 -4 -6 -4 -11 0 -3 2 -4 4 -3 6 3 6 -4 32 -10 38 -7 7
-25 14 -33 12z m9 -80 l5 -4 -6 -5 -6 -5 -5 5 -4 4 4 4 c6 6 6 6 12 1z m-570
-68 c5 -6 5 -12 0 -18 -7 -8 -22 -2 -22 9 0 11 15 17 22 9z m137 -71 c5 -5 7
-27 2 -34 -5 -7 -9 -9 -28 -10 -19 -1 -31 -5 -41 -14 -10 -9 -15 -11 -24 -11
-13 0 -14 0 -20 6 -5 5 -6 7 -6 18 0 11 1 13 6 18 3 3 7 6 8 6 36 1 46 4 58
15 5 4 11 8 14 10 8 3 26 1 31 -4z m444 -94 c3 -3 3 -3 0 -6 -1 -2 -3 -3 -4
-3 -1 0 -3 6 -2 9 1 2 2 3 2 3 1 0 3 -1 4 -3z m225 -11 c18 -10 34 -24 43 -39
7 -11 7 -27 0 -31 -2 -1 -7 -9 -10 -16 -7 -16 -11 -20 -22 -20 -9 0 -17 7 -17
15 0 9 -8 30 -15 37 -3 3 -11 8 -16 11 -7 3 -12 8 -16 13 l-5 8 3 11 c5 15 10
19 25 19 10 0 15 -1 30 -8z m-98 -26 c6 -4 6 -6 5 -13 -1 -11 -8 -17 -18 -17
-11 0 -17 6 -17 17 0 18 15 24 30 13z m-787 -17 c4 -4 5 -7 5 -15 0 -14 -6
-20 -20 -20 -14 0 -20 6 -20 20 0 14 6 20 20 20 8 0 11 -1 15 -5z m800 -70
c12 -12 3 -31 -13 -31 -11 0 -18 7 -18 18 0 11 7 18 18 18 6 0 9 -1 13 -5z
m-101 -26 c8 -5 10 -10 12 -25 1 -16 -2 -23 -13 -27 -8 -4 -21 -1 -27 4 -8 7
-10 28 -3 40 5 11 20 14 31 8z m174 -44 c14 -7 35 -8 54 -2 17 5 40 5 43 1 1
-3 1 -5 -4 -10 -7 -9 -11 -24 -11 -42 0 -18 -1 -20 -23 -31 -12 -6 -18 -11
-28 -26 -9 -12 -10 -14 -21 -16 -15 -2 -29 4 -31 13 -1 3 -2 8 -2 12 -4 19
-12 31 -26 37 -14 7 -46 5 -83 -3 -17 -4 -24 -4 -28 2 -2 5 -3 7 0 9 1 2 3 6
4 8 1 4 16 17 19 17 0 0 6 4 13 9 14 10 26 12 38 6 3 -2 9 -3 13 -2 5 0 10 1
13 1 4 0 10 4 17 11 15 14 23 15 43 6z m-766 -4 c3 -3 2 -4 -8 -15 -35 -38
-38 -41 -55 -47 -15 -4 -19 -5 -47 -5 -31 0 -40 1 -43 7 -1 3 1 4 32 17 16 7
27 14 39 24 13 11 23 15 41 19 27 5 35 5 41 0z m-247 -19 c5 -3 9 -11 10 -23
1 -7 2 -13 4 -14 1 -2 1 -3 0 -3 -1 0 -4 -4 -5 -8 -1 -4 -3 -8 -4 -8 -1 0 -2
-2 -3 -4 -1 -2 -4 -5 -8 -7 -19 -9 -31 2 -37 32 -3 21 2 34 16 37 8 2 21 1 27
-2z m489 -71 c6 -3 18 -15 18 -17 0 -4 11 -8 21 -8 8 -1 13 1 26 8 20 10 32
11 41 2 6 -6 7 -9 6 -24 0 -2 -2 -7 -6 -10 -4 -5 -7 -5 -22 -7 -9 0 -21 -2
-27 -4 l-10 -3 1 -15 c1 -10 2 -16 4 -17 1 0 4 -2 7 -5 2 -2 7 -6 11 -9 3 -2
6 -5 6 -7 0 -1 1 -5 3 -8 3 -5 10 -22 28 -65 4 -10 5 -12 3 -18 -2 -4 -3 -7
-4 -8 -8 -6 -8 -30 -1 -44 6 -12 6 -19 1 -24 -6 -6 -14 -5 -24 4 -7 7 -10 8
-15 8 -4 -1 -7 -1 -7 0 0 1 -2 2 -4 3 -3 1 -8 4 -11 7 -4 2 -7 4 -7 3 0 -3
-14 5 -21 12 -24 24 -52 43 -91 61 -28 14 -28 14 -28 20 1 6 3 8 48 30 49 25
55 29 59 39 6 14 4 27 -6 46 -5 10 -10 18 -11 19 -2 2 -10 20 -10 23 0 4 8 11
13 11 2 0 6 -1 9 -3z m179 -18 c5 -5 5 -11 0 -16 -12 -9 -28 6 -17 17 4 4 12
4 17 -1z m-455 -17 c6 -6 6 -7 6 -19 -1 -17 -4 -20 -21 -21 -12 0 -13 0 -19 6
-9 8 -9 25 0 34 9 9 26 9 34 0z m207 -15 c3 -5 3 -5 0 -10 -2 -3 -5 -5 -7 -5
-2 0 -5 2 -7 5 -3 5 -3 5 0 10 2 3 5 5 7 5 2 0 5 -2 7 -5z m-103 -3 c8 -9 3
-20 -10 -24 -5 -1 -6 -1 -9 4 -2 2 -4 5 -4 6 0 1 1 4 1 6 1 11 15 16 22 8z
m409 -2 c10 -9 3 -26 -10 -26 -13 0 -22 18 -13 26 6 5 17 5 23 0z m241 -3 c5
-6 5 -13 -2 -19 -10 -9 -11 -9 -17 -8 -12 3 -10 18 4 26 7 5 12 5 15 1z m-868
-11 c1 0 5 -3 8 -6 11 -11 7 -36 -6 -43 -10 -5 -25 -4 -31 2 -12 12 -7 41 8
46 4 2 8 2 21 1z m1181 -3 c3 -3 3 -3 0 -6 -4 -5 -11 1 -7 6 4 4 4 4 7 0z
m-466 -18 c3 -5 3 -5 0 -10 -2 -3 -5 -5 -7 -5 -2 0 -5 2 -7 5 -3 5 -3 5 0 10
2 3 5 5 7 5 2 0 5 -2 7 -5z m118 -3 c5 -4 1 -14 -8 -20 -9 -5 -12 -5 -16 1 -3
5 -3 6 0 12 2 3 5 7 7 8 3 3 13 2 17 -1z m-653 -7 c4 -5 5 -8 4 -23 0 -15 -7
-22 -23 -22 -16 0 -23 7 -23 22 0 17 3 20 18 24 17 5 20 5 24 -1z m816 -29 c5
-5 5 -11 0 -16 -10 -10 -27 5 -16 16 4 4 12 4 16 0z m-276 -36 c7 -2 8 -4 18
-24 6 -11 13 -20 21 -29 14 -13 17 -19 17 -38 0 -13 3 -30 7 -38 5 -8 23 -26
31 -30 15 -8 20 -21 12 -30 -8 -9 -18 -6 -40 9 -6 4 -17 10 -25 13 -14 5 -21
11 -21 18 0 8 -8 34 -13 40 -3 4 -11 10 -19 14 -26 13 -28 17 -31 54 -1 9 -2
18 -2 20 -5 16 23 30 45 21z m-555 -56 c4 -2 7 -6 13 -18 3 -6 3 -7 1 -11 -4
-6 -9 -7 -51 -7 -41 0 -45 0 -49 5 -2 3 -1 5 17 11 10 4 27 11 36 15 18 7 25
8 33 5z m-425 -29 c3 -2 7 -7 10 -10 3 -3 6 -6 7 -8 3 -3 7 -15 8 -24 2 -10
-5 -17 -14 -17 -14 0 -38 13 -46 25 -7 10 -3 31 6 37 5 3 22 1 29 -3z m117
-49 c16 -7 16 -43 -1 -50 -15 -6 -34 -2 -39 9 -4 8 -4 24 0 32 5 12 23 15 40
9z m326 -13 c6 -4 6 -6 6 -21 0 -12 -1 -17 -3 -18 -1 -1 -3 -6 -4 -12 -1 -13
7 -20 21 -18 0 0 1 -1 1 -1 0 -1 2 -5 5 -8 5 -6 5 -6 5 -31 -1 -21 0 -26 2
-28 2 -1 2 -2 0 -2 -1 0 -5 -2 -8 -5 -6 -5 -7 -5 -42 -5 -42 0 -51 -3 -62 -18
-9 -14 -17 -22 -21 -22 -4 0 -12 8 -21 22 -9 12 -22 18 -44 18 -21 0 -31 -4
-37 -16 -3 -4 -5 -8 -5 -9 0 -1 -1 -4 -2 -7 -2 -3 -3 -7 -3 -10 0 -7 -5 -12
-12 -12 -7 0 -12 5 -12 12 0 3 -2 8 -3 11 -9 22 -6 28 19 35 8 3 14 5 14 6 -1
1 1 2 4 2 3 0 17 4 32 8 16 5 29 9 31 9 5 1 54 15 89 25 15 4 29 9 30 10 2 2
3 7 3 20 l-1 16 -8 4 c-14 5 -16 8 -16 25 0 14 0 16 6 20 8 7 28 7 36 0z
m-228 -22 c11 -11 16 -21 11 -21 -1 0 -3 -5 -4 -12 -3 -14 -7 -20 -15 -20 -11
0 -15 9 -16 35 -1 16 -1 20 2 24 5 7 9 6 22 -6z m59 5 c5 -5 5 -11 0 -16 -3
-3 -12 -5 -14 -2 -1 1 -3 2 -4 3 -4 2 -4 3 0 10 5 9 12 11 18 5z m390 -3 c4
-4 11 -20 11 -24 0 -2 -1 -4 -1 -5 0 -3 -12 -8 -17 -7 -16 3 -23 10 -23 22 0
14 19 23 30 14z m-91 -20 c6 -4 6 -6 6 -20 0 -14 0 -16 -6 -20 -4 -4 -7 -5
-18 -5 -11 0 -14 1 -18 5 -6 4 -6 6 -6 20 0 14 0 16 6 20 4 4 7 5 18 5 11 0
14 -1 18 -5z m377 -33 c5 -5 5 -15 0 -20 -9 -9 -24 -2 -24 10 0 8 6 14 14 14
3 0 8 -2 10 -4z m532 -9 l-5 -5 -4 4 -5 5 4 4 5 5 4 -4 5 -5 -4 -4z m-72 -11
c2 -3 3 -6 4 -6 3 -2 -6 -16 -10 -16 -2 1 -6 3 -9 7 -5 5 -5 5 -3 11 4 9 14
11 18 4z m-926 -103 c11 -5 18 -20 14 -34 -1 -5 -1 -8 -1 -9 0 -3 -7 -10 -12
-11 -22 -6 -38 1 -43 18 -2 10 0 23 6 30 7 8 24 11 36 6z m-523 -2 c3 -3 3 -3
0 -6 -4 -5 -11 1 -7 6 4 4 4 4 7 0z m-107 -5 c5 -5 5 -15 0 -20 -9 -9 -24 -2
-24 10 0 8 6 14 14 14 3 0 8 -2 10 -4z m1021 -19 c3 -3 3 -3 0 -6 -4 -5 -11 1
-7 6 4 4 4 4 7 0z m-543 -86 c3 -2 8 -8 10 -13 3 -5 9 -13 14 -19 12 -13 15
-18 15 -30 0 -19 -10 -28 -29 -28 -23 1 -30 12 -24 47 1 8 2 21 2 28 0 8 1 14
2 16 3 3 3 3 10 -1z m161 -65 c-1 -1 1 -2 3 -2 5 0 10 -7 10 -14 1 -17 -13
-50 -26 -64 l-9 -9 -6 4 c-15 9 -17 22 -8 48 7 22 13 32 22 37 8 4 14 4 14 0z
m-250 -66 c11 -10 3 -28 -11 -28 -9 0 -16 6 -16 16 0 14 17 22 27 12z m92 -53
c4 -3 5 -5 4 -9 -3 -15 -12 -21 -33 -23 -13 -2 -20 5 -20 17 0 12 6 18 22 20
16 1 22 1 27 -5z m154 -18 c11 -9 33 -29 49 -44 15 -15 29 -29 31 -30 5 -5 24
-7 35 -5 29 6 40 1 42 -20 0 -11 0 -13 -8 -27 -8 -14 -9 -18 -9 -30 0 -10 1
-14 3 -15 3 -2 2 -3 -3 -8 -6 -6 -7 -6 -32 -8 -14 -1 -33 -3 -42 -3 -33 -2
-44 -7 -62 -32 -14 -19 -26 -23 -48 -18 -3 1 -8 5 -11 9 -9 12 -20 22 -28 26
-6 4 -15 15 -13 18 1 2 28 88 39 125 18 62 21 70 29 78 3 4 6 2 28 -16z m-228
-93 c16 -7 16 -43 -1 -50 -15 -6 -34 -2 -39 9 -4 8 -4 24 0 32 5 12 23 15 40
9z m866 -22 c4 -6 4 -24 -1 -30 -7 -9 -27 -9 -34 0 -5 6 -5 24 0 30 7 9 27 9
35 0z m-373 -32 c9 -10 7 -19 -9 -32 -7 -6 -9 -9 -10 -24 -1 -9 0 -14 2 -18 7
-14 1 -44 -10 -49 -10 -4 -22 1 -28 14 -7 15 -6 35 3 43 3 3 13 30 13 38 1 16
4 23 14 27 11 6 19 6 25 1z m-554 -49 c3 -2 6 -4 6 -5 0 -1 3 -5 7 -9 7 -7 18
-13 31 -18 5 -2 12 -6 17 -9 13 -9 25 -12 45 -12 18 0 19 0 24 -6 9 -8 9 -26
0 -34 -8 -8 -21 -8 -37 -1 -11 6 -33 9 -42 6 -16 -4 -35 -3 -56 5 -18 7 -20
15 -15 52 5 33 8 38 20 31z m849 -26 c5 -8 1 -16 -8 -16 -9 0 -13 8 -8 16 2 3
5 5 8 5 3 0 6 -2 8 -5z m-84 -17 c7 -6 7 -19 1 -25 -6 -7 -19 -7 -25 -1 -7 6
-7 19 -1 25 6 7 19 7 25 1z m181 -37 c3 -3 4 -7 4 -14 0 -13 -6 -19 -19 -19
-13 0 -19 6 -19 19 0 7 1 11 4 14 7 8 23 8 30 0z m-556 -28 c7 -8 6 -25 -3
-34 -5 -5 -22 0 -29 8 -4 5 -3 21 2 26 7 8 23 8 30 0z m-437 -21 c6 -6 7 -17
2 -22 -8 -9 -27 -2 -27 11 0 13 16 20 25 11z m45 -60 c5 -6 5 -12 0 -18 -7 -8
-22 -2 -22 10 0 11 15 16 22 8z m1258 -1 c16 -7 20 -35 8 -48 -10 -11 -35 -10
-44 0 -9 10 -9 32 0 42 7 8 24 11 36 6z"/>
<path d="M1353 2785 c-4 -1 -8 -5 -10 -8 -5 -7 -7 -28 -4 -31 4 -3 4 -18 0
-29 -4 -11 -3 -24 2 -33 5 -8 26 -15 39 -12 5 1 10 1 11 2 7 1 23 18 27 28 3
8 12 11 27 10 15 0 53 -8 55 -12 1 -1 7 -3 13 -3 11 -1 13 -1 17 3 3 3 4 5 3
5 -1 1 -2 4 -2 8 0 5 0 9 -1 10 -3 3 -1 22 2 24 2 2 -2 24 -6 29 -8 12 -10 12
-92 12 -59 0 -76 -1 -81 -3z"/>
<path d="M1622 2740 c-2 -1 -6 -2 -9 -2 -8 1 -31 -6 -34 -9 -5 -5 -4 -27 2
-35 20 -33 62 -30 79 4 8 19 9 22 3 30 -6 9 -33 17 -41 12z"/>
<path d="M1789 2380 c-9 -2 -21 -9 -27 -15 -4 -5 -5 -7 -4 -18 1 -13 2 -14 16
-29 7 -7 8 -10 9 -21 l1 -12 8 1 c4 1 9 2 12 2 2 0 6 1 7 2 2 2 3 2 4 0 1 -1
3 0 6 3 4 4 4 6 4 30 -2 37 -5 46 -21 54 -6 3 -11 4 -15 3z"/>
</g>
</svg>
