<?xml version="1.0" standalone="no"?>
<!DOCTYPE svg PUBLIC "-//W3C//DTD SVG 20010904//EN"
 "http://www.w3.org/TR/2001/REC-SVG-20010904/DTD/svg10.dtd">
<svg version="1.0" xmlns="http://www.w3.org/2000/svg"
 width="1108.000000pt" height="2870.000000pt" viewBox="0 0 1108.000000 2870.000000"
 preserveAspectRatio="xMidYMid meet">
<metadata>
Created by potrace 1.15, written by Peter Selinger 2001-2017
</metadata>
<g transform="translate(0.000000,2870.000000) scale(0.500000,-0.500000)"
fill="#000000" stroke="none">
<path d="M1197 3829 c-10 -4 -15 -16 -17 -37 -1 -15 -2 -17 -7 -21 -3 -3 -7
-5 -8 -5 -4 0 -27 -11 -32 -16 -9 -8 -14 -27 -18 -65 -1 -7 -2 -15 -2 -17 0
-2 -1 -8 -2 -13 -4 -26 -5 -31 -9 -38 -3 -4 -5 -7 -7 -7 -1 0 -10 7 -20 15
-19 16 -47 38 -68 53 -6 5 -17 12 -23 17 -6 4 -13 9 -16 11 -2 2 -13 9 -24 17
-10 8 -21 15 -23 17 -6 4 -26 19 -33 25 -3 2 -9 8 -13 12 -13 13 -17 15 -29
15 -17 0 -20 -2 -36 -22 -7 -11 -15 -20 -16 -21 -2 -3 -4 -12 -5 -25 0 -4 -1
-7 -1 -7 0 -1 0 -2 0 -2 0 -4 -14 -14 -18 -14 -6 -1 -18 -5 -18 -7 0 0 -2 -3
-5 -6 -7 -9 -9 -12 -19 -25 -10 -14 -15 -18 -23 -23 -5 -3 -27 -3 -243 -4
l-237 -1 -8 -5 c-9 -5 -21 -18 -21 -21 0 -4 -14 -13 -20 -13 -6 0 -20 9 -20
13 0 3 -12 16 -21 21 -7 4 -11 5 -29 6 -38 1 -53 -9 -54 -36 -1 -6 13 -52 17
-61 6 -10 18 -20 28 -24 9 -3 27 -3 185 -3 l175 1 6 -6 6 -6 -1 -84 c0 -91 0
-88 11 -115 5 -11 6 -16 6 -31 0 -23 3 -33 14 -45 4 -5 11 -13 14 -17 3 -4 7
-9 9 -11 14 -14 20 -29 16 -42 -4 -14 -11 -20 -26 -21 -11 -1 -28 -7 -33 -12
-2 -2 -5 -8 -7 -13 -4 -8 -4 -14 -4 -150 0 -136 0 -142 4 -150 2 -5 5 -11 7
-13 5 -5 22 -11 33 -12 20 -1 31 -17 26 -37 -4 -14 -11 -20 -26 -21 -11 -1
-28 -7 -33 -12 -2 -2 -5 -8 -7 -13 -4 -8 -4 -14 -4 -142 l0 -133 -5 -5 c-6 -5
-11 -7 -26 -9 -4 -1 -13 -3 -20 -5 l-14 -3 -6 5 c-4 4 -5 7 -5 13 0 9 -5 23
-11 30 -5 5 -27 13 -35 13 -10 0 -39 21 -45 33 l-4 7 6 5 c5 6 6 6 27 6 18 1
24 2 31 5 8 4 18 14 18 18 0 0 1 2 2 4 1 1 4 14 6 29 l5 26 0 286 0 286 6 10
c3 6 6 9 6 8 0 -2 10 6 19 14 11 12 24 39 24 52 1 17 -7 27 -24 35 -5 2 -28 4
-83 9 -7 1 -18 2 -24 2 -24 3 -40 -7 -55 -31 -6 -11 -13 -15 -26 -15 -16 0
-20 4 -29 23 -8 17 -21 32 -28 32 -2 0 -4 1 -5 2 -2 3 -13 1 -23 -4 -8 -4 -14
-12 -18 -22 -4 -11 -3 -53 2 -72 5 -21 5 -33 0 -54 -5 -20 -5 -22 -1 -47 4
-20 4 -22 0 -41 -3 -19 -3 -48 -3 -366 l0 -346 -6 -5 c-3 -5 -8 -7 -15 -8 -6
-1 -11 -2 -12 -2 -1 0 -15 -3 -31 -6 -46 -8 -54 -13 -57 -36 -1 -10 -2 -8 34
-84 5 -10 9 -20 10 -22 2 -9 17 -14 36 -13 20 1 23 0 18 -10 -2 -3 -5 -5 -6
-5 -9 4 -21 -31 -15 -43 4 -6 16 -34 16 -36 0 -1 4 -4 8 -8 9 -7 9 -8 13 -32
2 -8 7 -17 13 -22 12 -11 49 -18 66 -14 10 4 12 8 11 27 -1 9 -2 11 -12 21 -7
7 -13 12 -14 12 -2 0 -3 1 -3 2 -1 1 -8 2 -16 2 -18 0 -24 3 -24 12 0 7 8 16
16 16 3 0 11 -4 19 -9 l14 -10 21 0 c11 1 22 0 24 -1 2 -1 6 -7 10 -13 13 -24
31 -28 60 -15 8 4 21 10 28 14 35 16 71 32 102 47 10 5 33 16 49 24 34 16 230
114 266 133 13 7 31 16 39 20 19 10 24 17 30 35 5 15 5 42 0 67 -2 12 0 24 6
31 8 9 27 11 64 8 14 -1 20 0 33 3 9 2 21 5 26 5 l11 1 13 -12 13 -12 14 0 c8
0 14 1 14 2 0 3 27 30 38 36 13 9 35 32 42 45 6 12 6 30 -1 37 -3 3 -16 8 -24
8 -3 1 -63 -13 -114 -25 -7 -2 -43 -10 -81 -18 -38 -8 -76 -17 -84 -19 l-15
-3 -6 5 -5 5 0 139 -1 139 -7 12 c-4 7 -8 13 -10 15 -17 15 -17 37 0 52 2 2 6
8 10 15 7 12 7 13 7 35 0 22 0 23 6 29 l6 6 66 -1 66 -1 6 -5 c3 -3 6 -7 7
-10 0 -3 2 -10 4 -16 4 -13 5 -26 2 -32 -1 -2 -6 -6 -11 -8 -17 -7 -19 -11
-19 -28 l0 -16 8 -3 c9 -3 23 -3 32 2 7 3 29 21 58 47 15 14 20 23 24 48 3 17
7 21 21 23 31 4 39 9 76 52 27 32 39 37 61 30 14 -5 19 -12 17 -27 -2 -9 -7
-15 -20 -24 -7 -5 -15 -15 -16 -21 0 -2 -1 -6 -2 -9 -2 -7 -2 -7 3 -29 6 -30
12 -43 34 -66 2 -2 7 -10 11 -17 21 -33 22 -41 8 -65 -7 -11 -10 -18 -11 -27
-1 -7 -1 -12 0 -13 0 -1 4 -12 7 -25 9 -36 19 -69 36 -120 20 -60 20 -61 -8
-106 -8 -12 -16 -24 -18 -26 -1 -3 -7 -11 -13 -19 -16 -23 -21 -29 -27 -37 -3
-4 -8 -10 -11 -14 -3 -4 -6 -8 -7 -9 -1 -1 -6 -7 -11 -13 -5 -6 -9 -11 -10
-12 -1 -1 -8 -9 -16 -18 -18 -20 -78 -80 -103 -103 -23 -21 -82 -69 -103 -83
-21 -15 -53 -38 -56 -40 -3 -3 -35 -23 -54 -35 -8 -5 -19 -12 -25 -15 -31 -19
-85 -50 -119 -66 -26 -14 -32 -21 -32 -41 0 -9 1 -12 9 -23 14 -22 32 -28 60
-20 9 2 17 5 18 5 5 1 53 16 79 25 16 6 30 10 32 11 8 2 71 26 100 39 31 13
46 20 94 43 19 9 59 30 72 37 4 3 12 7 18 11 19 10 55 33 60 38 7 7 13 23 16
43 1 14 2 18 7 21 6 6 23 7 37 2 10 -4 23 -3 32 2 6 3 18 24 18 30 0 4 7 16
15 24 9 9 13 28 12 47 -1 13 -1 14 4 19 4 4 7 5 15 5 10 0 11 -1 19 -9 4 -4
11 -10 15 -13 14 -9 26 -23 38 -40 6 -10 18 -28 26 -41 8 -12 15 -23 17 -25 1
-2 5 -7 9 -13 4 -5 10 -14 14 -19 3 -5 8 -12 11 -15 6 -9 31 -40 35 -43 5 -4
18 -20 28 -32 15 -18 55 -59 78 -80 4 -3 10 -9 14 -13 30 -28 59 -49 67 -49
20 0 28 7 38 34 9 24 22 51 28 59 3 4 5 8 5 9 0 1 1 2 2 2 5 3 19 30 17 33 -1
0 -1 1 1 1 1 0 2 1 2 2 0 5 19 16 26 16 1 0 4 2 7 4 9 8 26 18 49 29 13 6 24
12 26 13 2 1 5 3 7 4 8 3 21 21 24 34 1 4 -1 16 -6 33 -1 2 -2 11 -3 20 -2 20
-7 35 -14 42 -3 2 -13 9 -22 14 -30 16 -70 38 -78 43 -3 2 -6 4 -8 5 -2 0 -5
3 -8 5 -3 1 -11 7 -18 11 -15 9 -53 34 -54 35 -1 1 -12 9 -25 18 -13 9 -25 18
-26 19 -1 1 -5 4 -8 6 -3 2 -7 5 -9 7 -2 2 -8 7 -12 10 -14 11 -25 21 -49 44
-24 21 -26 31 -12 53 27 42 61 105 79 145 3 8 8 18 9 21 12 24 46 113 57 149
22 73 27 93 42 156 27 113 34 190 20 202 -1 1 -2 2 -1 2 5 0 -15 10 -23 11
-12 2 -18 8 -18 19 0 13 6 18 23 18 15 -1 29 3 34 7 1 2 4 3 5 3 2 0 2 1 0 2
-3 2 -3 2 0 2 2 0 6 2 10 5 8 5 8 5 54 5 26 0 51 1 56 2 24 6 42 20 53 44 7
14 7 15 5 26 -2 12 -13 25 -24 27 -3 1 -13 6 -23 11 -18 9 -18 9 -44 10 -25 1
-25 1 -30 7 -5 5 -5 7 -5 25 1 35 0 36 -50 73 -44 33 -43 32 -55 44 -16 16
-19 17 -32 17 -17 -1 -20 -3 -38 -28 -15 -21 -24 -34 -47 -65 -6 -8 -18 -25
-27 -37 -13 -18 -18 -23 -26 -27 l-10 -5 -97 0 -97 0 -7 6 c-4 3 -6 6 -5 6 1
0 3 3 5 8 1 4 4 10 5 14 2 4 4 9 5 11 12 29 41 106 48 126 3 10 2 22 -4 29 -4
6 -18 14 -28 15 -16 3 -21 17 -12 35 4 11 8 11 22 4 10 -4 23 -5 32 -1 3 1 6
2 6 1 1 0 2 2 3 5 1 3 2 5 3 5 1 0 1 1 1 3 3 34 8 41 31 38 30 -3 39 -2 48 6
8 7 16 27 15 36 -3 20 -14 29 -42 36 -22 5 -35 0 -55 -20 -10 -9 -13 -10 -26
-9 -7 1 -14 5 -15 12 -3 11 -13 31 -20 37 -6 6 -19 11 -31 14 -3 0 -9 2 -13 3
-4 1 -20 5 -35 8 -15 3 -31 7 -35 8 -62 15 -69 16 -80 11z m-381 -126 c14 -3
20 -17 20 -48 0 -22 -3 -28 -17 -30 -21 -4 -30 1 -28 16 3 21 4 27 4 37 0 8
-1 12 -3 15 -4 3 -4 3 0 7 4 6 10 8 15 6 2 -1 6 -3 9 -3z m561 -22 c3 -3 3 -4
1 -8 -3 -5 -6 -5 -6 0 0 1 -1 3 -2 3 -2 1 -2 2 0 5 4 4 4 4 7 0z m-242 -110
c6 -7 7 -17 1 -22 -11 -10 -35 -15 -36 -8 0 1 -1 3 -1 4 -2 3 6 20 13 30 l6 9
6 -3 c4 -2 9 -7 11 -10z m-379 -31 c2 -1 7 -5 12 -9 5 -4 10 -8 11 -9 1 0 6
-3 10 -5 8 -4 13 -4 130 -5 117 0 123 0 135 4 7 2 16 6 19 8 6 5 12 3 14 -4 1
-4 -4 -31 -12 -71 -8 -36 -19 -89 -22 -99 -2 -6 -3 -13 -4 -16 0 -3 -2 -10 -4
-16 -1 -6 -3 -13 -4 -16 -3 -15 -26 -99 -39 -140 -11 -36 -16 -39 -34 -22 -13
11 -15 12 -32 25 -7 6 -13 11 -14 11 -1 1 -6 5 -13 10 -7 5 -12 9 -13 10 -1 0
-6 6 -12 12 -11 10 -12 10 -24 10 -6 0 -14 -1 -16 -2 -5 -2 -65 -89 -67 -97 0
-3 -1 -3 -1 0 0 1 -1 3 -2 3 0 0 -3 3 -4 6 -4 5 -4 19 -4 157 0 161 0 162 -10
172 -6 7 -26 16 -36 17 -1 0 -5 3 -8 6 -14 13 -5 49 15 59 8 4 22 5 29 1z
m904 -194 c5 -5 5 -11 0 -16 -10 -10 -27 5 -16 16 4 4 12 4 16 0z m-424 -21
c12 -5 18 -21 14 -36 -3 -10 -7 -14 -22 -23 -6 -3 -11 -7 -10 -8 0 -1 -1 -2
-2 -2 -4 0 -1 -24 4 -29 2 -2 4 -5 4 -6 0 -3 7 -20 10 -26 7 -12 -31 -22 -50
-12 -3 2 -8 8 -14 20 -5 9 -9 17 -10 17 -1 0 -2 1 -1 2 0 1 -2 3 -4 5 -2 1 -5
3 -7 5 -2 2 -7 5 -12 8 -16 10 -24 38 -13 49 6 6 19 7 28 2 10 -5 24 -4 32 3
4 3 7 8 8 11 6 18 27 27 45 20z m-660 -4 c15 -1 29 -2 30 -3 8 -4 7 -20 0 -24
-5 -2 -53 -10 -62 -10 -21 0 -23 35 -2 38 3 1 5 1 6 1 1 0 13 -1 28 -2z m761
-17 c4 -2 9 -8 12 -13 6 -10 18 -22 28 -27 10 -6 51 -8 66 -4 12 3 22 12 27
23 7 17 13 23 21 23 11 0 17 -6 17 -17 0 -7 -1 -9 -15 -22 -8 -8 -16 -16 -16
-17 0 -2 -1 -5 -3 -8 -2 -7 -4 -15 -5 -37 -1 -10 -2 -21 -2 -24 -2 -9 4 -28
12 -38 12 -14 17 -22 18 -27 5 -25 9 -37 15 -42 6 -6 20 -10 31 -10 7 0 26 9
34 16 5 4 16 24 18 34 3 14 24 21 41 15 12 -5 18 -21 14 -36 -3 -10 -8 -16
-18 -19 -14 -4 -29 -16 -34 -26 -15 -29 -17 -44 -13 -72 2 -13 4 -24 4 -25 1
-1 0 -4 -2 -6 -1 -1 -2 -3 -2 -4 1 0 -1 -2 -4 -3 -4 -2 -7 -2 -19 2 -22 7 -25
14 -20 43 1 6 2 17 1 23 -3 24 -26 38 -52 32 -18 -3 -31 -10 -39 -20 -9 -10
-9 -11 -21 -67 -10 -43 -11 -49 -12 -52 0 -1 -1 -6 -3 -11 -15 -55 -27 -96
-36 -121 -12 -31 -17 -30 -36 3 -41 73 -74 145 -101 220 -4 10 -8 20 -10 23
-2 2 -4 6 -4 8 -5 19 -9 36 -13 48 -7 22 -6 37 4 52 3 6 8 13 10 17 4 8 9 30
7 35 -2 5 4 14 11 17 4 1 9 3 10 4 2 1 5 2 7 2 2 0 4 2 4 4 1 1 7 11 13 21 18
30 20 37 23 66 2 20 15 27 32 17z m-188 -155 c10 -9 10 -32 0 -40 -8 -7 -28
-7 -36 0 -6 4 -6 6 -6 20 0 14 0 16 6 20 8 7 28 7 36 0z m579 -13 c5 -5 5 -15
0 -20 -9 -9 -24 -2 -24 10 0 8 6 14 14 14 3 0 8 -2 10 -4z m-1453 -50 c16 -7
16 -43 -1 -50 -15 -6 -34 -2 -39 9 -4 8 -4 24 0 32 5 12 23 15 40 9z m649 0
c5 -6 5 -12 0 -18 -7 -8 -22 -2 -22 9 0 11 15 17 22 9z m687 -163 c13 -7 17
-19 9 -27 -8 -8 -19 -5 -24 7 -5 12 -5 12 1 18 6 6 5 6 14 2z m-930 -5 c7 -6
7 -19 1 -25 -6 -7 -19 -7 -25 -1 -7 6 -7 19 -1 25 6 7 19 7 25 1z m-370 -101
c5 -5 -1 -9 -7 -5 -2 1 -2 2 0 5 4 4 4 4 7 0z m1318 -9 c7 -6 7 -19 1 -25 -6
-7 -19 -7 -25 -1 -7 6 -7 19 -1 25 6 7 19 7 25 1z m-1287 -46 c5 -6 6 -17 0
-23 -10 -11 -28 -3 -28 11 0 16 16 23 28 12z m343 -146 c16 -7 16 -43 -1 -50
-15 -6 -34 -2 -39 9 -4 8 -4 24 0 32 5 12 23 15 40 9z m757 -85 l-5 -5 -4 4
-5 5 4 4 5 5 4 -4 5 -5 -4 -4z m-1204 -83 c5 -6 5 -12 0 -18 -7 -8 -22 -2 -22
9 0 11 15 17 22 9z m466 -14 c10 -3 14 -8 14 -21 0 -17 -7 -23 -26 -21 -13 1
-50 25 -50 32 0 1 2 4 4 7 3 5 4 5 27 5 13 0 27 -1 31 -2z m619 -30 c5 -5 6
-7 6 -16 0 -15 -8 -23 -23 -23 -9 0 -11 1 -16 7 -9 8 -9 23 -1 32 9 9 24 9 34
0z m-812 -39 c5 -4 11 -16 11 -24 0 -6 -6 -13 -13 -13 -16 0 -29 25 -20 38 4
5 13 4 22 -1z m1028 -16 c3 -3 3 -3 0 -6 -4 -5 -11 1 -7 6 4 4 4 4 7 0z
m-1118 -22 c3 -5 3 -5 0 -10 -2 -3 -5 -5 -7 -5 -2 0 -5 2 -7 5 -3 5 -3 5 0 10
2 3 5 5 7 5 2 0 5 -2 7 -5z m1221 -1 c1 -1 12 -6 22 -11 24 -11 28 -15 28 -31
0 -11 -1 -13 -6 -18 -6 -6 -7 -6 -20 -6 -7 0 -23 7 -29 13 -1 1 -7 5 -12 9
-13 8 -17 15 -17 27 0 13 6 19 20 19 6 0 12 -1 14 -2z m-1323 -9 c4 -3 6 -7 6
-13 2 -15 0 -22 -10 -33 -5 -5 -12 -15 -16 -21 -11 -16 -15 -20 -22 -20 -6 0
-13 6 -13 11 0 2 2 11 4 20 2 10 6 25 7 35 4 22 7 26 26 26 10 0 14 -1 18 -5z
m1418 -122 c3 -5 3 -5 0 -10 -2 -3 -5 -5 -7 -5 -2 0 -5 2 -7 5 -3 5 -3 5 0 10
2 3 5 5 7 5 2 0 5 -2 7 -5z m-172 -8 c6 -4 6 -6 6 -20 0 -14 0 -16 -6 -20 -4
-4 -7 -5 -18 -5 -11 0 -14 1 -18 5 -6 4 -6 6 -6 20 0 14 0 16 6 20 4 4 7 5 18
5 11 0 14 -1 18 -5z m213 -102 c5 -7 5 -9 0 -14 -6 -6 -7 -6 -15 0 -8 5 -9 11
-3 17 5 5 12 4 18 -3z"/>
<path d="M1173 3277 c-4 -3 -5 -8 -2 -11 2 -1 3 -4 2 -5 0 -2 0 -3 1 -2 2 1 3
-2 2 -5 0 -2 3 -3 8 -2 1 0 2 -1 2 -1 -1 -5 0 -7 3 -6 1 1 5 -1 7 -3 l5 -4 3
6 c7 9 3 29 -5 32 -8 3 -23 4 -26 1z"/>
</g>
</svg>
