<?xml version="1.0" standalone="no"?>
<!DOCTYPE svg PUBLIC "-//W3C//DTD SVG 20010904//EN"
 "http://www.w3.org/TR/2001/REC-SVG-20010904/DTD/svg10.dtd">
<svg version="1.0" xmlns="http://www.w3.org/2000/svg"
 width="1105.000000pt" height="2870.000000pt" viewBox="0 0 1105.000000 2870.000000"
 preserveAspectRatio="xMidYMid meet">
<metadata>
Created by potrace 1.15, written by Peter Selinger 2001-2017
</metadata>
<g transform="translate(0.000000,2870.000000) scale(0.500000,-0.500000)"
fill="#000000" stroke="none">
<path d="M351 3843 c-20 -7 -26 -17 -27 -49 0 -26 1 -35 10 -44 5 -7 27 -18
34 -18 2 0 6 -2 9 -5 6 -4 6 -6 6 -20 0 -14 0 -16 -6 -20 -3 -3 -7 -5 -9 -5
-6 0 -26 -9 -32 -15 -12 -11 -12 -11 -12 -112 l0 -91 -6 -7 c-3 -4 -7 -6 -11
-6 -13 0 -24 -2 -26 -3 -5 -3 -17 -6 -34 -7 -10 0 -30 -3 -45 -5 -15 -2 -34
-5 -42 -6 -19 -3 -40 -8 -43 -10 -1 -1 -9 -4 -17 -7 -16 -6 -31 -14 -35 -21
-2 -2 -4 -8 -5 -14 -2 -10 -2 -11 7 -29 12 -24 23 -32 50 -34 5 -1 17 -2 25
-4 14 -3 30 -3 42 0 3 0 12 2 21 3 9 1 25 3 36 5 11 2 30 5 43 6 13 2 24 4 26
5 2 1 4 1 5 -1 1 -2 5 -3 8 -3 7 -1 31 6 34 8 2 1 4 2 5 1 1 -1 2 0 2 2 0 5
10 10 22 10 19 0 27 -8 27 -27 0 -19 -8 -27 -27 -27 -13 0 -22 5 -22 12 0 2
-1 3 -1 2 -1 -2 -6 -3 -13 -3 -8 0 -13 -1 -15 -3 -1 -2 -3 -2 -4 -2 0 1 -2 -2
-4 -7 -3 -7 -3 -18 -3 -77 0 -42 -1 -75 -2 -83 -2 -12 -2 -16 2 -36 6 -33 3
-54 -11 -65 -6 -4 -26 -5 -33 -1 -2 1 -8 2 -13 2 -12 -1 -13 -4 -7 -26 4 -17
7 -23 38 -75 5 -9 12 -20 14 -24 2 -4 9 -16 14 -25 6 -9 11 -18 12 -20 1 -2 7
-12 14 -24 7 -11 12 -21 12 -21 0 -1 17 -29 24 -41 7 -11 22 -43 23 -49 2 -7
-5 -26 -11 -34 -6 -7 -24 -11 -34 -6 -6 2 -14 9 -14 11 0 4 -12 28 -17 33 -10
11 -19 13 -57 13 -43 0 -51 -3 -64 -22 -11 -15 -14 -18 -25 -18 -13 0 -22 5
-37 19 -18 18 -23 20 -48 21 -38 1 -53 -9 -54 -36 -1 -6 13 -52 17 -61 11 -20
29 -28 60 -27 18 1 21 2 36 9 22 10 30 10 52 0 l16 -8 85 -1 c97 0 97 0 117
16 22 17 40 18 61 1 16 -14 27 -17 61 -17 19 0 34 1 42 3 26 6 43 3 47 -8 3
-9 -8 -23 -19 -24 -4 -1 -8 -2 -8 -3 -1 -1 -3 -2 -5 -2 -5 0 -28 -10 -32 -14
-2 -2 -9 -7 -17 -13 -27 -17 -29 -24 -26 -62 l2 -15 -10 -9 c-5 -5 -10 -9 -11
-9 -2 0 -3 -32 0 -35 1 -2 14 -6 25 -8 16 -3 18 -3 22 -7 7 -7 7 -17 -2 -29
-4 -6 -8 -11 -9 -11 -1 0 -3 -4 -6 -9 -8 -17 -5 -34 10 -51 6 -8 12 -20 11
-24 -1 -6 -6 -16 -8 -16 -2 0 -3 -1 -3 -2 0 0 -2 -2 -5 -4 -3 -2 -13 -11 -23
-21 -11 -10 -25 -22 -32 -27 -7 -5 -17 -14 -22 -19 -5 -5 -14 -12 -23 -16 -8
-4 -16 -9 -19 -12 -6 -5 -6 -7 -7 -23 0 -6 14 -28 24 -36 3 -3 15 -9 26 -13
11 -4 22 -9 24 -11 7 -6 9 -19 7 -35 -2 -10 -2 -16 0 -24 3 -14 3 -14 29 -53
12 -18 29 -45 39 -59 21 -32 26 -38 38 -40 13 -2 22 2 34 14 5 5 11 12 13 15
2 3 7 9 12 14 13 14 18 25 20 48 2 17 10 21 31 15 21 -6 45 1 50 14 3 9 2 30
-2 41 -5 13 -5 12 2 17 8 4 11 4 21 -2 10 -6 23 -8 36 -4 6 1 7 3 9 9 4 16 -7
42 -23 53 -9 5 -30 13 -35 13 -2 0 -8 2 -14 3 -32 8 -45 -9 -34 -43 2 -7 4
-15 3 -18 -3 -13 -35 -19 -46 -9 -7 6 -9 21 -4 36 1 6 4 19 5 30 3 23 6 27 18
27 8 0 14 1 29 7 3 1 10 6 15 11 13 11 23 14 41 9 1 -1 7 -6 11 -13 7 -11 24
-28 24 -25 0 0 1 0 3 -1 1 -1 6 -5 11 -8 5 -3 12 -9 14 -14 17 -24 28 -29 50
-21 12 5 14 6 14 22 1 13 -2 19 -10 27 -13 12 -19 41 -10 48 5 5 11 8 15 8 5
0 25 9 27 12 2 3 12 -17 12 -23 0 -4 9 -18 15 -21 4 -3 31 -6 31 -4 0 1 7 7
42 35 10 8 17 17 26 33 9 17 15 23 25 25 4 1 8 2 8 3 1 1 3 2 4 2 6 0 28 12
34 18 24 27 18 65 -13 75 -10 4 -14 4 -37 -2 -29 -7 -38 -13 -50 -32 -6 -9
-14 -20 -19 -25 -13 -12 -17 -19 -22 -35 -7 -21 -8 -24 -17 -28 -5 -2 -11 -6
-14 -7 -2 -2 -6 -4 -7 -4 -2 0 -4 -1 -5 -3 -2 -3 -3 -2 -6 8 -2 7 -4 12 -4 13
0 1 -1 3 -2 4 -1 4 -2 12 -1 29 1 22 -8 34 -25 36 -8 1 -44 -5 -51 -9 -2 -1
-5 0 -8 4 l-6 6 0 33 c-1 80 -1 82 4 92 4 7 7 11 15 15 6 3 14 7 18 10 4 3 17
10 28 16 11 6 24 14 29 17 5 3 14 8 20 11 10 5 46 28 53 34 1 0 7 4 12 8 6 4
15 11 21 15 13 10 13 10 43 4 8 -2 19 -3 25 -3 12 0 18 -5 18 -15 0 -5 -2 -8
-12 -17 -15 -13 -16 -15 -18 -29 l-1 -11 8 -4 c11 -5 29 -7 37 -4 5 1 6 1 10
-3 l4 -4 -5 -7 c-3 -3 -6 -6 -8 -6 -3 0 -9 -7 -13 -14 -6 -11 -4 -22 10 -48 7
-14 15 -27 18 -29 8 -6 27 -7 39 -1 11 5 27 6 35 2 7 -3 10 -11 11 -21 0 -15
-2 -20 -14 -29 -19 -14 -23 -35 -10 -51 12 -17 47 -62 54 -69 32 -34 34 -36
44 -39 15 -5 22 -10 28 -20 3 -5 6 -10 6 -11 1 -8 4 -14 5 -14 1 0 4 -2 7 -5
17 -16 17 -16 30 -15 8 0 15 1 17 2 1 2 7 6 12 11 12 9 25 10 33 2 7 -6 7 -19
1 -29 -5 -8 -6 -30 -2 -39 3 -5 22 -18 67 -45 16 -10 19 -11 29 -10 11 0 19 3
24 9 8 10 19 15 29 15 13 0 18 -4 24 -16 3 -5 7 -15 11 -23 6 -12 13 -24 18
-32 17 -23 48 -38 64 -29 2 1 4 2 4 1 0 0 2 1 5 4 11 9 22 39 20 53 -1 10 -9
28 -14 33 -6 6 -10 13 -14 24 -3 9 -3 10 1 14 5 5 11 4 23 -3 11 -7 32 -5 40
3 1 1 7 8 12 15 19 25 36 42 57 58 15 11 42 26 52 29 10 3 26 11 32 16 6 5 6
6 6 19 -1 13 -1 14 -8 18 -4 2 -12 5 -18 7 -7 2 -11 5 -12 8 -1 2 -4 9 -6 16
-9 23 -17 29 -43 34 -28 6 -41 2 -50 -15 -3 -5 -5 -12 -5 -15 0 -2 -1 -6 -3
-8 -4 -6 -18 -6 -23 -1 -4 4 -4 4 1 10 6 6 6 13 3 27 -5 16 -11 20 -51 28 -14
3 -13 2 -63 15 -8 2 -29 8 -47 13 -47 14 -60 13 -70 -6 -2 -5 -4 -10 -5 -11
-1 -2 -2 -5 -2 -7 0 -14 -28 -32 -48 -31 -21 0 -22 30 -3 44 17 11 19 15 19
27 0 14 -5 24 -12 28 -8 4 -15 19 -15 30 0 19 9 28 28 28 15 0 22 -5 27 -18 2
-6 5 -11 6 -11 1 0 2 -1 2 -3 0 -1 2 -4 5 -6 17 -15 35 -14 61 5 13 10 26 15
36 16 13 0 32 4 38 7 8 4 23 7 47 9 55 4 74 32 52 75 -11 21 -20 31 -41 45
-10 7 -19 13 -20 14 -1 1 -6 5 -13 9 -38 26 -44 30 -47 32 -1 2 -3 3 -4 3 -1
0 -3 1 -4 3 -2 1 -6 4 -9 5 l-5 3 4 5 c4 5 4 5 41 6 45 0 52 2 59 15 3 8 7 22
6 26 0 1 0 14 0 28 0 23 1 26 4 30 3 3 5 5 6 5 8 0 33 -39 35 -53 0 -4 0 -8
-1 -9 -1 -1 0 -7 1 -12 7 -26 14 -30 54 -30 24 1 30 1 41 5 26 11 50 42 47 64
-2 14 -6 21 -19 34 -24 23 -27 25 -41 25 -11 0 -21 -2 -30 -7 -9 -5 -24 -4
-30 2 -5 5 -5 6 -4 21 4 40 3 42 -36 72 -43 32 -63 48 -75 61 -3 3 -7 6 -10 7
-7 3 -24 2 -30 -1 -10 -6 -43 -56 -49 -75 -3 -8 5 -26 14 -34 20 -18 21 -19
21 -31 0 -13 2 -10 -25 -34 -6 -5 -10 -10 -10 -11 0 0 0 -2 -1 -4 -3 -6 -3
-16 2 -32 3 -14 6 -25 10 -41 1 -4 1 -7 0 -7 -1 0 -2 -1 -1 -2 0 -1 -3 -2 -8
-3 -8 -1 -12 0 -24 5 -23 9 -25 14 -18 51 4 26 6 33 12 41 3 4 6 9 7 12 2 3 4
6 5 6 1 1 1 2 0 2 -2 0 -2 3 -1 9 2 12 1 13 -17 14 -15 0 -16 0 -20 -5 -3 -3
-5 -6 -5 -7 0 -2 -4 -5 -9 -7 -8 -4 -15 -5 -36 -6 -33 -1 -42 -6 -54 -26 -9
-16 -15 -21 -27 -20 -28 0 -56 10 -59 21 -1 2 -5 7 -9 11 -14 13 -12 13 -91
14 l-72 1 -7 5 c-3 3 -5 6 -4 6 1 1 4 8 5 17 6 26 1 48 -16 71 -14 19 -16 25
-14 45 3 39 -13 59 -45 59 -10 0 -33 -13 -36 -20 -3 -9 -14 -19 -20 -19 -6 0
-12 6 -12 11 0 4 9 18 17 25 4 4 9 17 9 25 0 8 -11 23 -24 33 -16 13 -16 16 1
25 14 8 17 12 17 27 0 11 -4 19 -13 26 -9 7 -12 19 -9 31 2 9 7 16 11 16 2 0
9 5 16 10 7 6 14 10 15 10 2 0 4 5 4 12 0 3 2 7 4 9 5 5 4 37 -2 50 -2 5 -4
12 -4 17 0 15 -7 18 -39 16 -2 0 -5 -4 -7 -8 -3 -5 -9 -10 -15 -13 -10 -6 -11
-6 -35 -6 -30 1 -30 1 -30 -22 0 -13 0 -13 7 -20 17 -14 23 -44 11 -55 -3 -3
-7 -6 -8 -6 -30 -2 -38 1 -38 15 1 20 -5 26 -24 27 -18 0 -20 -2 -20 -17 0
-15 3 -22 10 -25 4 -2 9 -5 11 -7 3 -3 6 -5 7 -5 2 -1 1 -6 -2 -16 -5 -16 -9
-20 -22 -20 -11 -1 -15 1 -24 12 -13 15 -35 19 -46 8 -6 -6 -16 -14 -25 -20
-13 -10 -19 -19 -25 -35 -9 -24 -11 -25 -30 -26 -10 -1 -20 -2 -23 -3 -13 -4
-22 -19 -24 -39 -1 -13 -6 -20 -15 -18 -9 3 -24 10 -30 16 -8 6 -7 9 10 25 7
7 14 16 15 19 3 5 10 25 10 27 0 4 4 16 6 20 3 6 4 7 27 13 24 7 30 12 53 36
32 34 36 49 27 94 -5 24 -5 30 -1 39 3 5 3 9 2 16 -1 5 -2 10 -1 11 0 0 -1 1
-3 1 -2 0 -3 1 -3 2 0 1 -1 1 -3 0 -2 -1 -10 -3 -18 -4 -16 -2 -48 -15 -54
-21 -6 -6 -10 -13 -14 -27 -7 -21 -11 -24 -26 -15 -24 14 -32 15 -51 9 -8 -3
-14 -6 -14 -7 0 -1 -3 1 -6 5 l-6 6 0 46 -1 46 -5 5 c-5 5 -7 6 -19 5 -9 0
-13 1 -13 2 0 2 -1 1 -2 -1 -1 -3 -6 -7 -11 -10 -6 -3 -10 -6 -11 -7 -1 -1 -4
-3 -8 -6 -5 -3 -8 -6 -8 -6 0 -1 -4 -4 -10 -8 -21 -13 -42 -6 -42 16 0 13 4
20 15 27 8 5 11 8 30 25 11 10 11 10 23 10 14 0 22 -4 22 -10 0 -2 1 -2 2 -1
1 2 6 3 14 3 l12 -1 11 12 c6 7 11 13 11 14 0 1 1 1 2 0 1 -1 8 0 15 1 8 1 17
3 21 3 4 1 10 2 13 2 3 1 9 2 12 2 9 2 34 5 37 6 5 1 23 3 25 3 8 1 28 11 35
18 3 3 9 7 13 9 8 3 11 3 36 -5 6 -2 15 -4 19 -4 10 -1 27 8 33 17 18 23 24
26 37 20 10 -5 38 -5 44 0 5 4 19 33 21 42 1 4 0 11 -2 18 -4 15 -15 25 -41
39 -19 9 -24 10 -43 13 -12 2 -23 5 -25 6 -2 2 -4 3 -5 3 -1 0 -12 12 -22 23
-4 5 -6 5 -21 5 -9 1 -21 0 -27 0 -15 -2 -25 0 -31 8 -15 20 -20 24 -34 28
-34 11 -64 3 -75 -19 -2 -5 -6 -12 -9 -16 -13 -20 -15 -36 -6 -46 4 -5 21 -11
29 -11 13 0 19 -23 9 -33 -6 -6 -17 -7 -29 -2 -9 3 -16 5 -29 6 -19 2 -23 3
-26 8 -5 6 -5 12 1 26 13 29 12 25 13 81 l1 53 6 8 c3 4 6 8 7 8 3 -2 20 9 29
18 14 15 31 48 31 63 0 17 -12 31 -30 36 -11 3 -16 2 -40 -6 -23 -8 -28 -8
-45 2 -27 16 -34 18 -68 19 -20 0 -28 -4 -46 -21 l-13 -12 -13 0 c-15 0 -18 2
-30 20 -8 13 -13 17 -26 23 -13 6 -18 6 -30 2z m219 -119 c5 -5 5 -15 0 -20
-9 -9 -24 -2 -24 10 0 8 6 14 14 14 3 0 8 -2 10 -4z m-77 -12 c4 -6 4 -24 -1
-30 -7 -9 -27 -9 -34 0 -5 6 -5 24 0 30 7 9 27 9 35 0z m24 -94 c6 -6 7 -16 0
-22 -2 -2 -11 -5 -22 -8 -25 -5 -32 -6 -37 -1 -7 7 -1 14 23 25 22 11 29 12
36 6z m-226 -217 c9 -9 6 -25 -5 -30 -19 -8 -34 14 -22 30 6 7 20 7 27 0z
m216 -247 l-5 -4 -4 4 c-4 5 -4 5 0 9 l5 5 5 -4 4 -5 -5 -5z m-50 -25 c1 -2 2
-3 4 -3 4 0 1 -16 -4 -21 -5 -6 -16 -7 -22 -1 -6 6 -7 17 -1 23 6 6 21 7 23 2z
m150 -104 c3 -3 3 -3 0 -6 -4 -5 -11 1 -7 6 4 4 4 4 7 0z m-137 -3 c1 0 5 -3
8 -6 5 -5 6 -7 6 -18 0 -11 -1 -13 -6 -18 -6 -6 -7 -6 -18 -6 -11 0 -12 0 -18
6 -5 5 -6 7 -6 17 0 14 3 20 12 24 5 2 8 2 22 1z m105 -64 c6 -6 6 -10 0 -16
-5 -4 -10 -4 -15 3 -5 5 -5 7 -1 13 4 5 10 5 16 0z m249 -53 c4 -2 9 -6 11
-10 2 -3 4 -6 5 -7 1 -1 9 -14 19 -30 16 -27 23 -35 37 -46 4 -3 8 -7 10 -9 4
-4 14 -33 13 -39 -1 -3 0 -7 4 -22 8 -32 9 -45 4 -52 -2 -2 -12 -6 -23 -10
-11 -4 -21 -8 -24 -11 -2 -3 -5 -5 -6 -5 -1 0 -4 -4 -7 -9 -3 -6 -7 -10 -7
-11 -1 0 -2 -2 -2 -3 0 -3 -10 -11 -14 -11 -3 0 -8 5 -8 9 0 5 6 21 8 21 1 0
2 1 2 3 0 3 15 19 19 19 6 1 13 16 13 27 0 13 -7 22 -22 29 l-11 5 -98 1 -99
0 -24 -6 c-13 -3 -33 -7 -43 -8 -22 -3 -32 -1 -53 8 -8 4 -13 5 -44 7 -11 0
-15 1 -20 6 -4 3 -5 5 -3 5 2 0 3 1 3 2 0 0 3 5 7 9 13 14 17 25 20 52 3 29 4
31 20 36 18 5 40 16 47 24 16 17 24 16 41 -2 18 -20 31 -23 60 -14 56 17 103
32 122 39 24 8 32 9 43 3z m240 -149 c3 -1 11 -8 17 -15 7 -7 15 -15 19 -18
16 -15 14 -44 -4 -52 -9 -3 -21 -3 -32 2 -18 8 -24 19 -24 45 0 34 9 49 24 38z
m-395 -71 c3 -5 3 -5 0 -10 -2 -3 -5 -5 -7 -5 -2 0 -5 2 -7 5 -3 5 -3 5 0 10
2 3 5 5 7 5 2 0 5 -2 7 -5z m869 -7 c4 -5 4 -14 -1 -19 -7 -7 -21 0 -21 10 0
11 15 17 22 9z m-250 -33 c5 -1 14 -5 21 -9 25 -15 21 -15 91 -16 l64 -1 5 -5
c3 -4 4 -6 4 -6 -1 0 -7 -7 -13 -15 -6 -9 -12 -17 -14 -19 -2 -2 -5 -7 -8 -10
-8 -11 -29 -37 -31 -39 -1 -1 -5 -6 -9 -11 -42 -53 -52 -60 -70 -53 -11 3 -28
4 -35 1 -2 -1 -8 -7 -13 -12 -10 -11 -18 -14 -30 -12 -16 3 -19 23 -8 40 5 9
7 13 7 22 0 12 -3 24 -7 24 -3 0 -60 58 -71 72 -5 6 -10 12 -11 12 -4 0 5 8
11 10 3 1 10 2 16 2 12 0 27 5 38 13 18 13 35 16 63 12z m-360 -67 c1 0 5 -3
8 -6 5 -5 6 -7 6 -17 0 -21 -7 -27 -33 -25 -2 0 -6 3 -9 6 -5 5 -6 7 -6 17 0
14 3 20 12 24 5 2 8 2 22 1z m-139 -17 c5 -8 1 -16 -8 -16 -9 0 -13 8 -8 16 2
3 5 5 8 5 3 0 6 -2 8 -5z m697 -49 c5 -5 5 -15 0 -20 -9 -9 -24 -2 -24 10 0 8
6 14 14 14 3 0 8 -2 10 -4z m-816 -12 c5 -5 5 -15 0 -20 -9 -9 -24 -2 -24 10
0 8 6 14 14 14 3 0 8 -2 10 -4z m118 -67 c14 -9 26 -26 26 -37 0 -4 -3 -9 -14
-19 -7 -8 -15 -19 -18 -24 -9 -18 -18 -24 -34 -21 -9 2 -12 6 -14 17 -3 14 0
28 13 61 10 27 23 35 41 23z m623 -63 c7 -9 2 -33 -11 -46 -2 -3 -6 -8 -8 -11
-6 -8 -14 -13 -22 -13 -6 0 -19 6 -22 11 -2 2 -4 3 -24 14 -19 10 -22 13 -22
25 0 8 1 11 5 15 5 5 6 5 20 4 21 -2 35 -2 45 2 20 7 32 7 39 -1z m-703 -118
c5 -5 5 -15 0 -20 -9 -9 -24 -2 -24 10 0 8 6 14 14 14 3 0 8 -2 10 -4z m1055
-35 c14 -6 16 -15 5 -21 -4 -2 -8 -4 -8 -3 0 1 -1 0 -3 -2 -3 -2 -4 -2 -12 0
-9 4 -13 8 -13 15 0 12 15 18 31 11z m-363 -13 c5 -5 6 -7 6 -17 0 -17 -7 -23
-30 -26 -7 -1 -9 0 -14 5 l-6 6 2 13 c3 19 9 25 25 25 10 0 12 -1 17 -6z m409
-34 c7 -6 7 -19 1 -25 -6 -7 -20 -7 -25 0 -10 10 -10 26 -2 31 5 2 21 -1 26
-6z m-130 -68 c9 -11 -1 -34 -14 -34 -16 0 -17 29 -1 35 10 4 11 4 15 -1z
m-1080 -7 c3 -5 3 -5 0 -10 -2 -3 -5 -5 -7 -5 -2 0 -5 2 -7 5 -3 5 -3 5 0 10
2 3 5 5 7 5 2 0 5 -2 7 -5z"/>
<path d="M1656 3837 c-7 -3 -15 -7 -19 -11 -6 -5 -7 -22 -1 -35 4 -8 5 -10 19
-16 29 -13 49 -6 49 18 0 13 -5 23 -19 36 -10 9 -18 11 -29 8z"/>
<path d="M1731 3761 c-15 -6 -26 -20 -31 -40 -5 -18 -9 -20 -31 -17 -10 1 -26
3 -35 3 -28 1 -35 6 -37 26 -2 11 -7 24 -12 26 -1 0 -7 0 -13 0 -22 0 -29 -11
-34 -50 -1 -8 -3 -17 -5 -19 -4 -7 -1 -28 7 -34 6 -6 17 -10 25 -10 3 0 7 -2
10 -5 6 -4 6 -6 6 -20 0 -14 0 -16 -6 -20 -3 -3 -8 -5 -12 -5 -9 0 -25 -6 -34
-13 -12 -9 -13 -12 -16 -58 -1 -11 -2 -24 -2 -30 0 -5 -1 -17 -2 -26 -1 -9 -3
-39 -6 -67 -5 -43 -5 -53 -3 -69 1 -10 2 -20 1 -24 -1 -5 -12 -31 -17 -41 -1
-2 -2 -5 -2 -7 0 -2 -1 -6 -2 -10 -7 -20 -15 -48 -14 -49 0 -1 -1 -2 -2 -2 -1
0 -2 -2 -3 -4 -2 -10 -32 -17 -73 -15 -64 2 -66 2 -76 -3 -8 -4 -11 -6 -16
-16 -3 -7 -6 -14 -6 -16 0 -5 -6 -12 -11 -12 -4 0 -11 7 -11 11 1 3 -3 17 -7
26 -2 5 -4 11 -5 14 0 3 -1 7 -2 9 -1 1 4 11 14 26 39 59 43 74 22 94 -4 4
-11 9 -14 11 -26 13 -37 34 -28 55 6 14 27 17 49 6 27 -12 46 -5 55 20 7 18
18 66 19 82 1 10 0 20 -2 29 -5 24 -4 31 6 50 5 9 8 17 8 18 -1 0 -1 1 1 1 1
0 5 2 9 5 6 5 8 5 26 5 19 0 34 4 39 11 1 3 3 29 2 29 -1 0 -3 2 -6 4 -10 9
-21 10 -44 3 -19 -6 -25 -5 -40 2 -7 4 -11 5 -20 4 -22 -2 -25 -8 -26 -43 0
-15 -1 -25 -3 -28 -5 -9 -9 -30 -8 -38 1 -4 2 -13 2 -20 1 -13 1 -14 -5 -20
-7 -7 -20 -8 -33 -3 -10 4 -37 3 -47 -2 -9 -5 -34 -6 -46 -3 -7 3 -11 5 -19
16 -5 7 -11 16 -13 19 -3 3 -10 8 -16 10 -17 8 -22 17 -14 27 5 6 12 5 26 -5
7 -6 14 -11 14 -11 2 -4 22 -4 33 -1 15 4 26 3 40 -4 13 -6 29 -7 37 -2 8 6 4
34 -5 40 -5 3 -11 17 -11 27 0 8 2 14 10 30 9 18 10 22 9 29 -2 20 -15 35 -37
46 l-11 6 -91 0 -91 0 -18 -7 c-22 -8 -30 -8 -52 0 l-18 7 -52 0 c-66 0 -69
-1 -76 -27 -2 -10 -2 -11 6 -35 9 -29 13 -36 19 -42 5 -4 27 -11 38 -11 5 0
17 -2 26 -4 15 -4 23 -4 73 -4 l56 0 6 -6 c2 -3 4 -6 4 -6 0 -1 -1 -15 -2 -33
-2 -36 0 -45 12 -61 10 -14 13 -21 13 -31 0 -9 -4 -21 -9 -26 -2 -2 -4 -6 -5
-10 -1 -5 -3 -9 -4 -10 -1 -1 -3 -7 -5 -13 -3 -7 -8 -15 -17 -25 -24 -27 -33
-52 -23 -69 5 -9 16 -16 23 -16 5 0 19 4 21 7 1 0 3 1 5 1 4 0 12 8 12 12 0 1
1 2 2 2 1 0 3 5 5 12 2 6 4 12 5 14 1 2 3 6 5 10 1 4 8 14 15 21 7 8 17 20 21
28 8 15 11 17 24 17 13 0 19 -6 19 -20 0 -8 -1 -11 -10 -23 -9 -13 -22 -41
-22 -47 0 -1 -3 -4 -7 -7 -13 -10 -15 -34 -3 -49 6 -8 6 -9 5 -20 0 -7 -3 -17
-5 -23 -7 -21 4 -30 32 -28 18 2 21 1 28 -10 5 -8 7 -12 7 -21 0 -6 1 -13 2
-16 0 -3 1 -7 2 -10 1 -4 2 -6 3 -6 1 0 2 -1 1 -2 -2 -3 18 -20 35 -28 10 -5
18 -10 18 -11 0 -2 5 -6 31 -19 25 -13 26 -14 41 -24 14 -9 44 -38 44 -42 0
-1 3 -5 7 -9 7 -6 10 -8 43 -17 8 -2 16 -5 18 -5 6 -3 22 -3 27 -1 5 3 7 6 15
19 10 18 11 18 51 15 46 -3 48 -4 49 -30 1 -14 -2 -19 -17 -22 -12 -3 -30 -11
-37 -17 -6 -5 -8 -15 -8 -38 -1 -17 0 -21 3 -28 8 -15 21 -20 40 -15 21 5 33
21 37 48 2 13 2 15 5 25 2 10 11 14 32 14 10 0 22 -1 26 -1 17 -3 40 7 50 21
23 33 27 55 12 68 -7 6 -20 11 -30 11 -5 0 -16 1 -24 2 -18 3 -23 7 -23 19 0
10 3 13 19 21 16 8 22 13 37 29 6 8 15 16 19 18 8 4 17 14 19 22 4 13 4 16 4
27 0 6 3 21 6 33 3 12 7 27 8 33 3 10 4 12 12 17 33 21 35 27 42 94 3 34 -5
46 -42 61 -9 3 -13 11 -13 24 0 17 6 24 21 27 31 4 45 20 46 53 1 19 5 26 25
35 8 4 18 10 22 14 7 6 8 7 9 21 0 8 -1 17 -2 20 -1 4 -3 13 -3 20 -1 20 -5
31 -12 39 -8 8 -14 11 -29 11 -10 1 -13 0 -18 -5 -3 -3 -6 -5 -5 -5 1 0 1 -1
-1 -2 -4 -5 -7 -32 -4 -35 3 -3 -3 -13 -8 -13 -5 0 -11 10 -8 13 3 4 1 43 -2
49 -3 3 -4 12 -4 26 -2 32 -7 40 -33 47 -15 4 -18 4 -26 0z m-546 -115 c7 -6
7 -19 1 -25 -6 -7 -19 -7 -25 -1 -7 6 -7 19 -1 25 6 7 19 7 25 1z m470 -6 c7
-6 7 -19 1 -25 -6 -7 -19 -7 -25 -1 -7 6 -7 19 -1 25 6 7 19 7 25 1z m70 -55
c3 -5 3 -5 0 -10 -2 -3 -5 -5 -7 -5 -2 0 -5 2 -7 5 -3 5 -3 5 0 10 2 3 5 5 7
5 2 0 5 -2 7 -5z m-100 -59 c4 -6 4 -24 -1 -30 -7 -9 -27 -9 -34 0 -5 6 -5 24
0 30 7 9 27 9 35 0z m-38 -96 c7 -6 7 -19 1 -25 -6 -7 -19 -7 -25 -1 -7 6 -7
19 -1 25 6 7 19 7 25 1z m97 1 c21 -9 20 -45 -2 -54 -10 -5 -28 -1 -34 6 -9
10 -9 32 0 42 7 8 24 11 36 6z m-16 -129 c3 -3 4 -7 4 -11 0 -12 5 -32 11 -45
9 -19 7 -38 -5 -44 -3 -2 -10 -3 -16 -3 -13 0 -20 4 -24 11 -3 6 -3 27 -1 30
4 5 8 26 7 43 0 12 1 16 4 19 5 5 15 5 20 0z m-134 -122 c14 -10 16 -53 3 -64
-7 -5 -23 -5 -31 -1 -15 9 -24 54 -12 64 2 1 6 3 10 4 4 1 7 2 8 2 2 2 17 -1
22 -5z"/>
<path d="M1148 3160 c-13 -2 -19 -4 -28 -14 -9 -10 -10 -26 -3 -40 5 -11 11
-15 26 -16 9 0 11 0 20 8 22 20 24 22 24 31 1 5 2 11 3 13 2 7 -1 11 -13 16
-12 4 -12 4 -29 2z"/>
<path d="M1435 2894 c-8 -1 -20 -6 -22 -10 -3 -3 -3 -24 -1 -25 1 -1 2 -2 1
-3 0 -1 4 -4 10 -7 13 -6 22 -6 36 0 l7 3 0 16 c0 14 0 16 -4 18 -8 5 -23 9
-27 8z"/>
<path d="M395 2460 c-8 -2 -23 -10 -32 -17 -7 -7 -14 -23 -16 -39 -2 -13 -4
-17 -9 -20 -5 -2 -19 -3 -28 -1 -2 0 -22 1 -43 1 l-39 0 -23 -9 c-13 -5 -32
-12 -43 -16 -23 -9 -30 -13 -34 -21 -5 -7 -10 -28 -9 -35 1 -7 -5 -19 -13 -27
-2 -2 -3 -6 -2 -17 l1 -14 9 -4 c11 -6 7 -6 97 9 60 11 65 13 84 39 12 16 16
18 31 18 7 -1 13 -3 25 -10 16 -9 26 -11 38 -8 9 2 13 19 14 47 0 36 7 57 19
58 12 1 19 -5 18 -15 -1 -15 2 -31 6 -32 2 0 4 0 4 1 0 0 5 1 12 1 7 0 12 -1
12 -2 0 -1 2 1 5 5 3 4 5 9 5 11 0 10 -10 35 -10 27 0 -3 -8 5 -8 9 0 1 -3 5
-7 9 -3 4 -8 12 -10 18 -8 23 -32 39 -54 34z"/>
</g>
</svg>
