<?xml version="1.0" standalone="no"?>
<!DOCTYPE svg PUBLIC "-//W3C//DTD SVG 20010904//EN"
 "http://www.w3.org/TR/2001/REC-SVG-20010904/DTD/svg10.dtd">
<svg version="1.0" xmlns="http://www.w3.org/2000/svg"
 width="1108.000000pt" height="2870.000000pt" viewBox="0 0 1108.000000 2870.000000"
 preserveAspectRatio="xMidYMid meet">
<metadata>
Created by potrace 1.15, written by Peter Selinger 2001-2017
</metadata>
<g transform="translate(0.000000,2870.000000) scale(0.500000,-0.500000)"
fill="#000000" stroke="none">
<path d="M560 3849 c-18 -7 -26 -14 -30 -28 -2 -6 -2 -33 -2 -93 l1 -85 -6 -6
-6 -6 -76 0 c-42 0 -80 0 -86 0 -105 0 -287 0 -289 -1 -11 -4 -14 -6 -18 -11
-7 -9 -9 -22 -5 -36 1 -6 3 -11 4 -17 1 -3 2 -7 2 -9 1 -2 2 -6 2 -9 4 -17 19
-33 36 -38 6 -2 64 -2 219 -2 l211 1 6 -6 6 -6 -1 -59 c0 -50 0 -60 3 -67 4
-9 14 -21 18 -21 2 0 3 -1 3 -2 0 -2 10 -3 47 -3 94 0 176 22 210 56 16 16 19
24 19 60 0 35 0 35 7 42 l6 6 121 -1 c80 0 123 1 128 2 11 3 18 9 24 22 5 11
6 13 4 17 -1 1 -1 5 -1 9 0 6 -2 8 -8 14 -4 4 -10 9 -12 11 -2 1 -4 3 -5 3 0
0 -4 4 -7 10 -3 5 -6 9 -7 10 -1 1 -2 3 -3 5 -3 4 -11 11 -15 12 -2 0 -4 1 -6
2 -1 1 -11 2 -22 2 -10 1 -23 2 -29 3 -5 1 -28 2 -51 2 -51 0 -59 -3 -70 -24
-2 -5 -6 -9 -9 -11 -6 -4 -13 -1 -19 11 -10 19 -23 26 -43 22 -29 -5 -38 -5
-44 1 -7 7 -7 23 0 30 4 4 7 5 16 5 14 -1 30 3 36 8 2 2 4 4 5 4 1 0 2 4 4 9
3 10 12 25 14 24 3 -2 21 11 31 21 18 19 29 52 22 68 -5 12 -21 23 -35 25 -11
1 -30 -7 -41 -18 -21 -22 -34 -21 -50 4 -10 15 -21 22 -39 25 -14 2 -28 -1
-39 -7 -6 -3 -19 -17 -19 -20 0 -4 -13 -29 -18 -32 -8 -6 -23 -5 -30 2 -6 6
-6 7 -7 24 0 11 -1 20 -3 22 -1 2 -2 3 -1 3 4 0 -9 13 -17 17 -9 3 -30 6 -36
4z m-193 -261 c7 -6 7 -19 1 -25 -6 -7 -19 -7 -25 -1 -7 6 -7 19 -1 25 6 7 19
7 25 1z m447 -25 l-5 -5 -4 4 -5 5 4 4 5 5 4 -4 5 -5 -4 -4z m-39 -103 c4 -6
4 -8 -2 -14 -9 -10 -39 -10 -46 -1 -3 5 -3 5 2 10 5 6 13 9 30 9 11 0 13 -1
16 -4z"/>
<path d="M1181 3842 c-11 -3 -23 -13 -27 -25 -3 -13 -3 -69 1 -81 3 -10 11
-20 22 -28 14 -10 17 -20 11 -33 -4 -7 -9 -10 -21 -12 -7 -1 -8 -3 -11 -13 -1
-4 -3 -8 -4 -9 -1 -1 -4 -6 -7 -11 -2 -6 -5 -9 -6 -9 0 1 -4 -3 -8 -9 -7 -11
-9 -24 -5 -34 2 -6 29 -35 32 -35 3 2 10 -3 23 -16 8 -9 14 -16 15 -17 0 -1 1
-2 2 -2 3 0 18 -12 21 -16 2 -2 3 -8 3 -12 -1 -8 -2 -10 -10 -15 -16 -12 -22
-20 -30 -35 -4 -9 -11 -20 -15 -24 -7 -9 -8 -11 -8 -21 0 -11 1 -12 6 -17 4
-4 8 -6 9 -6 1 0 2 -1 2 -2 0 -1 1 -2 2 -1 1 1 5 -2 9 -7 l8 -7 0 -152 c-1
-99 -2 -156 -3 -161 -2 -7 -9 -16 -12 -15 -2 1 -16 -3 -34 -10 -26 -11 -27
-11 -41 3 -21 20 -37 25 -53 17 -9 -4 -13 -10 -17 -23 -2 -10 -2 -12 2 -20 10
-19 26 -25 55 -21 13 2 16 0 26 -19 13 -29 23 -36 49 -36 11 0 15 -1 17 -3 6
-7 46 2 49 12 1 4 15 11 22 11 5 0 16 9 14 11 -1 0 -1 1 0 1 2 0 3 1 3 12 0 3
1 4 1 3 1 -2 2 -3 3 -3 1 0 2 1 1 2 -1 1 0 2 1 2 1 0 2 -1 2 -1 0 -1 7 -2 16
-2 25 -1 28 -2 56 -16 33 -16 36 -19 36 -34 0 -10 -1 -12 -6 -17 -9 -9 -20 -8
-44 2 -22 9 -27 9 -42 0 -9 -6 -10 -6 -10 -16 -1 -12 1 -22 4 -22 1 0 2 -1 2
-2 0 -3 17 -19 25 -24 6 -3 22 -4 45 -1 14 1 14 1 20 -5 10 -9 9 -23 -3 -41
-5 -8 -11 -21 -13 -29 -3 -9 -7 -17 -10 -19 -5 -6 -4 -6 -13 -2 -9 4 -10 10
-6 25 7 26 3 41 -13 43 -5 1 -11 2 -14 2 -3 0 -8 -1 -11 -2 -5 -3 -12 -4 -24
-3 -2 0 -6 3 -9 6 -6 5 -6 7 -6 21 0 22 -5 35 -16 46 -5 5 -9 9 -10 9 -1 0 -2
2 -3 6 -1 3 -2 4 -2 3 -1 -2 -6 -3 -15 -3 -7 0 -14 -1 -15 -2 -6 -3 -9 -16
-10 -42 -4 -105 -17 -225 -32 -295 -9 -45 -30 -123 -41 -149 -4 -12 -13 -24
-19 -24 -2 -1 -9 0 -14 2 -6 2 -11 3 -11 3 -1 0 -11 -1 -23 -2 -12 0 -27 -1
-33 -2 -14 -1 -31 -2 -60 -4 -31 -2 -34 -2 -58 -8 -20 -6 -21 -6 -39 -3 -18 3
-49 3 -80 0 -16 -1 -16 -1 -22 4 l-5 5 0 50 -1 50 6 6 6 6 42 -1 c46 0 56 1
69 11 21 15 25 17 35 17 10 0 14 -2 35 -17 13 -10 23 -11 75 -11 60 0 68 2 84
18 3 3 6 7 8 11 1 3 3 5 3 5 1 0 5 7 9 15 5 11 7 17 7 25 0 17 0 17 -50 59
-13 10 -18 18 -18 27 0 1 5 12 10 23 13 25 17 44 15 68 -3 52 -34 106 -83 146
-4 3 -9 7 -12 9 -3 3 -9 7 -14 10 -5 2 -10 6 -12 7 -3 3 -29 16 -48 25 -7 3
-23 9 -35 13 -22 7 -33 14 -30 20 0 1 5 5 10 8 6 3 14 8 19 11 5 2 13 7 17 10
4 3 13 8 20 12 7 3 19 11 28 17 17 11 23 15 43 26 7 4 18 11 24 15 12 8 30 16
45 20 24 6 45 21 58 41 9 13 10 19 7 31 -2 10 -11 20 -24 25 -10 5 -62 21 -68
21 -5 0 -5 0 0 2 2 1 4 3 4 4 0 4 12 6 36 6 29 0 40 3 49 12 8 8 10 11 14 19
2 4 4 7 5 7 1 0 2 1 2 3 0 1 5 5 10 9 15 10 18 14 18 28 0 16 -1 17 -24 36
-12 9 -22 17 -24 19 -2 1 -9 6 -15 11 -7 5 -12 9 -13 10 0 1 -19 1 -28 0 -1
-1 -4 -3 -7 -5 -13 -11 -23 -14 -28 -6 -3 4 -3 6 0 16 4 12 3 31 -2 39 -2 3
-8 8 -13 11 -10 6 -15 9 -33 23 -15 11 -27 17 -39 19 -5 1 -11 2 -14 2 -6 1
-23 -2 -33 -7 -11 -5 -19 -13 -31 -30 -3 -4 -5 -7 -6 -8 -1 -1 -5 -6 -10 -13
-5 -7 -11 -14 -13 -17 -3 -3 -5 -6 -5 -6 0 -1 -1 -3 -2 -4 -2 -2 -8 -9 -15
-17 -6 -8 -13 -17 -16 -20 -3 -3 -5 -6 -5 -7 0 -4 -12 -6 -19 -3 -4 2 -13 3
-21 3 -11 0 -14 -1 -20 -5 -6 -6 -8 -9 -9 -25 -1 -6 0 -10 2 -13 9 -13 3 -38
-9 -41 -3 -1 -4 -2 -2 -2 1 0 2 -4 2 -13 0 -7 1 -15 2 -18 2 -3 2 -6 1 -6 0
-1 -11 -2 -23 -2 -11 -1 -27 -1 -35 -1 -31 -1 -52 20 -51 48 1 18 7 24 24 27
7 2 16 5 21 9 4 3 5 5 4 18 0 7 -1 14 -1 15 -1 0 -6 2 -13 5 -11 4 -13 4 -123
4 -120 0 -119 0 -128 -10 -6 -6 -10 -22 -10 -36 0 -15 -4 -23 -16 -30 -4 -3
-8 -6 -8 -6 0 -1 -2 -2 -4 -2 -3 0 -4 -1 -3 -2 1 0 2 -5 2 -10 1 -5 0 -8 0 -7
-1 0 -3 -1 -5 -2 -2 -3 -5 -3 -14 -2 -14 2 -34 -2 -41 -7 -5 -4 -23 -31 -23
-34 0 -1 -1 -2 -2 -2 -1 0 -4 -1 -5 -3 -5 -4 -9 -4 -13 2 -5 5 -2 18 8 40 9
19 10 20 28 20 8 0 18 1 21 2 10 2 18 5 15 5 -1 0 -1 2 2 8 2 4 5 12 6 17 2 6
4 12 5 15 1 3 2 6 2 7 -3 13 -8 24 -11 27 -9 10 -10 10 -102 10 -81 0 -88 0
-101 -4 -8 -2 -22 -5 -31 -6 -23 -3 -33 -7 -37 -19 -4 -10 -4 -13 5 -41 7 -24
10 -30 19 -39 10 -11 19 -14 50 -15 28 -1 29 -1 33 -6 3 -4 5 -6 4 -8 -1 -2
-5 -13 -8 -25 -3 -12 -11 -37 -17 -56 -13 -42 -13 -44 4 -73 10 -18 6 -25 -17
-35 -18 -8 -23 -12 -30 -24 -5 -9 -6 -12 -6 -24 0 -8 1 -17 2 -21 1 -4 2 -14
3 -23 2 -28 5 -37 16 -52 26 -35 55 -104 68 -161 5 -23 6 -28 8 -50 2 -19 7
-36 11 -36 3 0 3 0 0 -1 -2 -1 -3 -2 -4 -3 -4 -6 -15 -8 -49 -8 -36 0 -44 -1
-54 -9 -6 -5 -11 -15 -11 -27 -1 -6 13 -52 17 -61 6 -10 18 -20 28 -24 9 -3
24 -3 144 -3 131 1 133 1 138 5 11 8 17 27 13 41 -5 20 8 38 28 38 15 0 24 -7
30 -24 7 -22 3 -38 -13 -45 -9 -3 -23 -17 -24 -23 -1 -3 -2 -31 -2 -63 l-1
-57 -5 -6 c-3 -2 -7 -5 -10 -5 -4 0 -21 -1 -39 -2 -39 -1 -42 -2 -53 -8 -7 -4
-9 -7 -10 -11 -2 -11 -7 -22 -10 -22 -2 0 -3 -1 -3 -2 -2 -5 -16 -4 -22 2 -3
3 -6 6 -6 6 0 5 -13 20 -21 24 -11 5 -10 5 -73 3 -107 -3 -116 -3 -123 -6 -8
-3 -17 -13 -16 -15 1 -1 0 -2 -1 -2 -1 0 -2 -4 -3 -9 -1 -10 10 -44 17 -52 7
-7 31 -7 42 0 15 11 32 4 32 -13 0 -12 -6 -17 -23 -19 -7 -1 -14 -3 -16 -4 -1
-2 -3 -2 -4 -2 0 1 -3 -2 -5 -5 -6 -10 -5 -25 2 -44 5 -14 9 -24 24 -68 3 -9
9 -25 12 -34 3 -9 9 -25 12 -34 23 -65 25 -69 33 -78 6 -6 15 -10 26 -10 7 0
20 9 36 25 4 4 12 9 16 11 7 4 93 34 118 42 7 2 24 8 38 13 14 5 27 9 29 10 2
0 17 6 35 12 18 6 38 13 46 16 17 6 68 24 98 35 12 4 32 11 44 16 48 17 51 18
56 30 2 5 3 12 2 23 -1 26 -1 28 4 33 3 3 7 4 14 4 9 0 10 0 18 -9 l8 -9 17 0
c16 0 16 0 23 7 6 6 7 7 18 7 7 0 16 -1 21 -3 13 -4 27 -1 38 8 11 10 19 13
40 14 21 1 34 6 53 18 16 10 31 17 53 22 18 5 25 5 27 0 1 -2 -9 -24 -15 -32
-3 -4 -3 -7 -2 -18 2 -15 5 -18 23 -30 12 -8 14 -12 14 -28 -1 -19 -8 -24 -38
-24 -26 0 -29 -2 -33 -16 -4 -14 -8 -16 -32 -16 -25 1 -29 -1 -47 -20 -18 -20
-52 -54 -72 -72 -31 -27 -33 -30 -35 -41 -2 -10 0 -25 4 -28 1 -1 4 -5 8 -11
8 -12 19 -18 35 -18 10 0 15 1 34 11 46 22 93 47 124 65 2 2 6 4 8 5 3 1 38
24 53 34 20 13 43 31 65 48 8 7 36 31 43 37 3 3 7 8 7 11 2 7 2 30 0 38 -1 6
0 8 2 12 4 4 5 4 18 2 22 -4 34 -1 46 13 19 22 22 25 35 43 4 6 9 12 10 13 4
5 36 55 36 56 0 1 2 4 4 7 3 5 8 12 22 40 3 5 6 10 5 10 -1 0 0 2 1 4 3 5 3
22 0 28 -3 5 -12 10 -16 8 -3 -2 -14 -3 -25 -2 -9 0 -15 8 -15 21 0 16 7 23
24 21 9 -1 12 -3 17 -11 8 -11 10 -13 23 -13 16 0 20 4 30 31 25 69 42 134 56
214 8 47 6 56 -19 74 -14 10 -15 12 -15 24 0 13 2 16 20 24 29 14 34 24 37 67
3 59 4 64 10 80 4 11 6 14 14 19 12 7 15 6 32 -9 7 -7 16 -13 19 -13 3 -1 6
-2 6 -3 0 -1 2 -4 4 -7 5 -6 5 -7 4 -42 -1 -123 -6 -277 -10 -355 -2 -32 -1
-35 9 -64 6 -19 6 -24 -1 -38 -8 -15 -14 -31 -14 -37 0 -2 3 -14 7 -27 5 -18
6 -24 5 -29 -5 -15 2 -34 16 -47 10 -9 10 -10 10 -20 0 -19 -12 -26 -34 -22
-15 3 -28 4 -28 2 0 -1 -4 -4 -9 -6 -8 -4 -13 -8 -6 -5 1 0 2 -1 1 -6 0 -7 4
-17 8 -16 3 2 14 -4 14 -6 0 -2 1 -4 3 -4 10 -4 -6 -32 -24 -44 -8 -5 -22 -5
-28 2 -8 7 -7 20 2 32 4 6 7 11 6 11 0 1 -1 6 -1 12 0 6 -2 11 -3 12 -1 0 -5
0 -8 1 -3 0 -23 1 -44 2 -21 1 -49 2 -62 2 -26 1 -32 0 -42 -10 -5 -4 -15 -25
-15 -29 0 -1 -2 -5 -5 -9 -4 -5 -5 -8 -5 -21 0 -19 2 -23 21 -29 8 -3 23 -9
34 -14 62 -30 76 -55 80 -143 1 -31 2 -37 5 -43 6 -11 9 -12 22 -13 13 0 13 0
20 7 8 9 16 15 21 15 4 0 13 -5 21 -12 9 -8 29 -15 38 -13 4 1 8 1 10 2 2 0 7
2 12 5 l10 4 0 17 1 16 -10 6 c-14 9 -17 13 -18 24 -2 16 0 22 10 30 11 7 31
26 31 28 0 1 1 2 2 4 1 1 4 5 7 9 16 19 47 14 53 -10 2 -9 2 -11 -4 -27 -12
-34 -4 -51 23 -51 11 0 17 3 35 22 51 51 82 129 97 248 1 5 2 15 3 23 6 46 14
145 17 222 1 14 1 33 2 41 0 8 1 33 2 54 1 21 2 50 2 64 1 14 2 71 3 127 l2
102 6 7 c3 5 6 8 7 8 7 0 29 13 42 24 20 17 27 27 27 40 0 19 -2 21 -55 65 -5
4 -11 9 -12 10 -31 29 -40 34 -56 29 -10 -3 -14 -7 -19 -20 -4 -13 -3 -20 6
-44 7 -20 8 -28 1 -34 -6 -6 -19 -6 -25 1 -4 4 -4 6 -4 33 0 16 -1 34 -1 39
-1 8 0 14 4 26 5 15 7 30 5 43 -1 4 -29 28 -59 51 -13 9 -14 10 -28 11 -23 1
-31 -5 -38 -33 -2 -7 -3 -16 -3 -21 0 -12 -4 -15 -25 -17 -24 -1 -31 -5 -55
-29 -32 -32 -34 -33 -65 -22 -9 3 -17 5 -17 5 0 -1 -2 1 -4 3 -2 2 -8 5 -12 7
-4 2 -9 6 -10 8 -3 7 -18 16 -38 22 -26 8 -28 9 -31 16 -4 7 -5 22 -1 31 3 7
2 26 -2 28 -2 1 -2 2 -1 2 1 0 -4 6 -12 13 l-13 12 0 12 c0 16 7 23 23 23 10
0 12 -1 17 -6 l6 -6 -1 -23 c0 -25 0 -24 9 -34 3 -4 21 -4 30 0 10 4 19 15 25
27 5 11 6 16 7 38 2 45 -6 56 -44 67 -14 4 -18 8 -18 20 0 8 7 17 14 17 2 0 7
2 11 5 3 2 7 4 7 4 1 -1 0 25 -1 31 -1 4 -1 4 -28 3 -14 -1 -28 -1 -31 0 -9 2
-13 12 -12 27 1 14 3 17 23 27 7 3 13 7 15 8 4 3 14 14 14 15 -1 0 1 4 2 7 2
4 3 18 4 36 1 27 1 31 6 37 4 7 5 7 20 8 8 0 20 -1 27 -3 10 -2 38 -3 186 -2
l174 0 33 17 c18 9 36 19 39 23 18 16 16 40 -5 60 -14 13 -38 32 -71 57 -16
12 -31 23 -33 24 -7 6 -33 18 -43 20 -7 1 -20 2 -30 2 -17 0 -18 0 -23 6 -5 5
-6 7 -6 15 0 12 -1 14 -5 23 l-3 8 -14 0 c-14 1 -15 1 -19 -4 -7 -8 -8 -26 -4
-45 1 -6 -7 -13 -14 -13 -2 0 -7 -1 -10 -2 -3 -1 -10 -3 -14 -4 -9 -2 -17 -11
-32 -31 -2 -3 -6 -8 -8 -11 -3 -3 -5 -6 -6 -8 -1 -2 -5 -5 -11 -8 -9 -5 -10
-5 -66 -6 l-57 -1 -6 6 -6 6 1 27 c1 32 5 42 19 51 15 9 28 19 26 19 -1 0 -1
1 1 2 5 3 5 30 -1 36 -3 4 -6 9 -12 20 -7 13 -15 21 -27 27 -10 4 -19 5 -93
11 -93 7 -100 7 -109 -1 -7 -7 -14 -24 -14 -36 0 -13 -6 -19 -20 -19 -15 0
-20 6 -20 21 0 7 -2 16 -3 20 -2 4 -3 9 -4 10 0 1 -3 4 -6 7 -5 5 -7 5 -16 4z
m162 -93 c3 -5 3 -5 0 -10 -2 -3 -5 -5 -7 -5 -2 0 -5 2 -7 5 -3 5 -3 5 0 10 2
3 5 5 7 5 2 0 5 -2 7 -5z m-121 -87 c15 -8 19 -21 8 -31 -3 -3 -6 -4 -7 -3 -1
1 -2 2 -4 2 -1 0 -1 -1 1 -2 2 -1 2 -2 1 -2 -6 0 -16 10 -19 18 -6 17 4 26 20
18z m532 -33 c9 -2 14 -8 14 -18 0 -11 -6 -18 -20 -21 -22 -5 -36 2 -36 19 0
18 16 26 42 20z m-357 -7 c11 -10 3 -28 -11 -28 -9 0 -16 6 -16 16 0 14 17 22
27 12z m-173 -41 c3 -3 4 -6 4 -12 0 -11 -6 -16 -18 -18 -8 -1 -10 -1 -13 3
-4 7 -4 22 1 26 7 7 19 7 26 1z m67 -167 c3 -4 4 -14 3 -25 -1 -6 -6 -11 -14
-11 -22 -1 -28 4 -28 21 0 7 1 12 4 15 7 9 27 9 35 0z m44 -60 c4 -2 9 -5 11
-8 1 -2 11 -9 20 -16 16 -10 17 -12 19 -21 2 -5 2 -12 2 -15 -4 -17 -10 -22
-32 -23 -14 -1 -16 -1 -20 3 -5 4 -5 6 -5 21 0 10 -2 22 -4 31 -5 17 -5 25 -1
29 3 4 2 4 10 -1z m-397 -49 c9 -4 13 -19 10 -33 -3 -16 -3 -36 1 -42 5 -7 -8
-18 -20 -18 -9 1 -13 5 -22 27 -4 10 -9 21 -11 26 -4 9 -3 24 1 32 6 12 26 16
41 8z m-133 -15 c-1 -1 0 -2 1 -2 2 -1 2 -2 -1 -5 -3 -3 -3 -3 -6 0 -3 2 -3 4
-2 5 3 1 3 2 3 8 0 3 0 3 3 -1 2 -2 2 -4 2 -5z m216 -1 c3 -5 3 -5 0 -10 -2
-3 -5 -5 -7 -5 -2 0 -5 2 -7 5 -3 5 -3 5 0 10 2 3 5 5 7 5 2 0 5 -2 7 -5z
m-456 -15 c4 -6 4 -24 -1 -30 -7 -9 -27 -9 -34 0 -5 6 -5 24 0 30 7 9 27 9 35
0z m747 -22 c5 -5 5 -6 -1 -13 -6 -6 -8 -6 -13 0 -5 5 -5 5 1 12 6 6 8 6 13 1z
m-508 -54 c3 -3 5 -8 6 -13 0 -11 2 -15 5 -15 1 0 3 -1 3 -2 1 -1 6 -4 13 -8
13 -8 17 -14 14 -23 -3 -9 -11 -10 -25 -6 -14 5 -17 8 -18 23 -1 9 -1 9 -15
16 -14 8 -56 22 -65 22 -4 0 -4 1 -1 1 2 1 3 3 3 6 0 6 3 6 44 5 30 -1 31 -1
36 -6z m-329 4 c9 -5 10 -9 2 -17 -8 -8 -8 -8 -35 0 -9 3 -21 6 -26 7 -5 1 -7
2 -5 2 3 0 5 1 4 3 -1 2 0 3 4 4 3 1 7 2 8 2 5 2 43 1 48 -1z m459 -37 c9 -9
10 -35 1 -44 -5 -7 -17 -7 -23 0 -5 6 -8 23 -4 34 4 14 17 19 26 10z m-498
-85 c2 -1 4 -4 4 -6 0 -4 -13 -41 -21 -61 -6 -14 -7 -32 -2 -48 5 -17 4 -27
-4 -37 -12 -17 -15 -34 -6 -46 27 -37 34 -48 43 -64 20 -35 44 -99 49 -132 1
-5 2 -11 2 -14 1 -3 2 -13 4 -22 3 -20 11 -40 17 -40 1 0 -2 -3 -9 -6 l-12 -6
-46 0 c-50 0 -57 1 -62 6 -3 2 -5 4 -7 5 -2 0 -2 1 0 1 5 0 28 23 37 38 30 47
35 91 14 136 -15 32 -27 44 -45 44 -12 0 -15 -5 -15 -22 0 -20 -2 -27 -9 -31
-3 -2 -7 -6 -10 -9 -4 -5 -12 -6 -9 -1 1 1 1 1 -1 0 -1 0 -4 1 -6 3 -3 2 -7 6
-10 8 -8 6 -8 21 0 44 10 30 8 49 -7 70 -5 6 -32 21 -45 25 -5 2 -17 6 -22 9
-11 6 -28 4 -36 -3 -6 -4 -14 -20 -14 -25 0 -6 -7 -12 -13 -12 -6 0 -13 6 -13
12 0 2 2 9 5 15 3 10 6 13 14 19 5 3 11 9 13 12 2 3 7 8 11 10 5 3 9 6 10 7 2
1 7 5 13 9 6 4 11 7 12 8 1 1 6 5 13 9 7 4 12 8 13 9 1 1 5 4 10 7 5 3 9 6 10
7 1 1 5 4 11 8 8 5 42 29 73 52 5 3 34 14 39 14 2 0 5 -1 7 -2z m319 -4 c2 -4
3 -7 1 -10 -4 -7 -4 -19 -1 -37 7 -34 5 -40 -17 -51 -16 -9 -17 -10 -25 -18
-7 -6 -9 -13 -9 -29 0 -12 1 -15 9 -31 8 -16 11 -20 27 -37 14 -16 38 -49 48
-67 1 -3 6 -11 10 -18 5 -8 8 -14 8 -15 0 -1 3 -7 6 -14 20 -44 23 -63 12 -79
-11 -18 -14 -28 -15 -47 -1 -14 -3 -21 -5 -23 -5 -6 -18 -8 -39 -4 -26 4 -38
-2 -52 -26 -14 -24 -30 -21 -44 7 -3 7 -6 13 -7 15 -5 10 -29 16 -46 10 -10
-3 -27 -2 -32 3 -2 2 -5 3 -7 3 -3 0 -3 0 -1 2 2 1 3 6 3 21 0 19 0 19 6 24 4
4 7 5 18 5 13 0 14 0 20 -7 17 -20 18 -21 31 -21 11 0 13 0 19 7 7 8 18 13 31
14 27 2 41 12 50 35 21 56 7 104 -50 164 -3 3 -26 5 -29 2 -2 -1 -4 -2 -5 -2
-1 1 -4 -4 -6 -11 -6 -16 -11 -21 -20 -21 -17 0 -21 16 -8 33 8 9 9 10 9 22 0
17 -2 20 -14 26 -16 8 -30 5 -49 -8 -15 -10 -18 -15 -18 -30 0 -10 2 -15 11
-24 8 -8 7 -25 -1 -33 -5 -5 -7 -6 -17 -6 -16 0 -23 7 -23 23 0 10 1 12 8 19
4 5 7 9 7 10 -1 1 0 2 1 2 1 0 2 5 2 12 0 7 -1 12 -2 12 -1 0 -2 1 -1 2 1 1
-2 4 -6 8 -5 4 -9 9 -12 18 -2 8 -5 15 -7 17 -2 5 -1 15 2 21 3 6 7 10 17 16
24 16 53 35 57 39 7 6 21 15 35 23 10 6 50 31 53 34 7 7 26 17 45 22 16 4 19
4 22 -2z m656 -61 c3 -5 3 -5 0 -10 -2 -3 -5 -5 -7 -5 -2 0 -5 2 -7 5 -3 5 -3
5 0 10 2 3 5 5 7 5 2 0 5 -2 7 -5z m-136 -38 c-3 -7 -8 -7 -13 -1 l-4 5 4 5 5
4 5 -4 c5 -4 5 -5 3 -9z m417 -10 c21 -9 20 -45 -2 -54 -10 -5 -28 -1 -34 6
-9 10 -9 32 0 42 7 8 24 11 36 6z m-730 -147 c5 -5 5 -11 0 -16 -10 -10 -27 5
-16 16 4 4 12 4 16 0z m-612 -75 c0 -8 1 -13 2 -13 1 0 2 -1 2 -2 0 -1 1 -4 3
-5 7 -7 0 -21 -10 -21 -10 0 -17 14 -10 20 1 2 3 5 4 7 0 1 2 3 4 3 2 0 3 3 3
13 0 8 1 13 1 12 1 0 1 -7 1 -14z m257 -16 c5 -8 1 -16 -8 -16 -9 0 -13 8 -8
16 2 3 5 5 8 5 3 0 6 -2 8 -5z m1166 -10 c7 -4 10 -11 10 -24 0 -14 -5 -21
-16 -25 -4 -1 -13 -5 -21 -8 -33 -16 -43 -17 -51 -9 -10 10 -6 25 11 37 5 4
15 12 21 18 8 8 15 13 19 14 9 2 22 1 27 -3z m-384 -31 c11 -3 15 -8 15 -21 0
-17 -10 -25 -28 -21 -10 2 -14 8 -14 21 0 18 9 25 27 21z m-458 -38 c4 -4 5
-7 5 -14 0 -10 3 -22 6 -22 1 0 2 -1 1 -2 -1 -1 0 -2 2 -2 4 -1 5 -1 10 -3 2
-1 10 0 19 2 29 6 43 -2 43 -26 0 -17 -6 -24 -23 -28 -5 -1 -9 0 -30 6 -6 1
-17 3 -26 4 -19 2 -21 3 -21 19 -1 16 -2 21 -8 37 -6 15 -6 22 -1 28 6 6 17 7
23 1z m432 -51 c4 -4 5 -7 5 -15 0 -17 -8 -21 -39 -22 -8 0 -15 -3 -15 -7 0
-3 -9 -11 -11 -11 -1 0 -4 -1 -5 -3 -2 -2 -6 -3 -19 -2 -13 1 -17 1 -16 -1 1
-1 0 -2 -1 -2 -1 0 -6 -4 -11 -9 -12 -12 -17 -15 -26 -15 -16 0 -23 20 -12 31
5 5 11 6 27 2 15 -3 20 -3 21 0 1 2 2 3 2 2 1 0 4 1 6 4 3 3 6 5 7 5 1 0 5 2
8 4 4 3 11 5 16 6 9 1 15 3 13 6 -1 1 0 2 1 2 1 0 2 1 1 2 -1 1 0 2 1 2 1 0 3
2 5 6 1 3 6 8 10 13 6 6 7 7 17 7 8 0 11 -1 15 -5z m-995 -55 c5 -6 5 -12 0
-18 -7 -8 -22 -2 -22 9 0 11 15 17 22 9z m271 -115 c3 -3 3 -4 0 -11 -1 -5 -4
-9 -5 -9 -4 0 -7 -7 -10 -21 -1 -6 -3 -13 -3 -16 -3 -14 -24 -20 -34 -9 -7 6
-7 21 -2 27 5 5 20 16 23 16 1 0 2 1 2 2 0 1 3 2 6 3 3 0 6 2 6 2 0 1 0 4 1 6
1 2 1 4 0 4 -1 1 2 3 5 5 9 5 8 5 11 1z m-55 -141 c5 -5 5 -15 0 -20 -9 -9
-24 -2 -24 10 0 8 6 14 14 14 3 0 8 -2 10 -4z m287 -1 c3 -3 3 -3 0 -6 -4 -5
-11 1 -7 6 4 4 4 4 7 0z m-511 -14 l4 -4 -5 -5 c-4 -4 -5 -4 -7 -1 -1 2 -4 3
-5 3 -4 0 -5 5 0 8 5 5 7 5 13 -1z m1330 -65 c5 -5 5 -8 1 -22 -7 -26 -17 -36
-35 -36 -15 0 -22 7 -22 22 0 13 4 20 14 27 19 13 36 16 42 9z m-1446 -15 c3
-2 8 -7 11 -10 4 -3 13 -9 21 -13 20 -11 22 -13 22 -25 0 -7 -1 -11 -4 -14 -8
-8 -23 -7 -30 1 -8 8 -27 26 -37 35 -7 7 -9 10 -9 15 0 12 14 18 26 11z m363
-27 c7 -6 7 -18 1 -23 -6 -6 -25 -14 -43 -18 l-13 -3 -4 4 c-2 3 -4 6 -4 7 0
6 19 22 39 33 9 5 19 5 24 0z m-407 -68 c5 -6 5 -12 0 -18 -7 -8 -22 -2 -22 9
0 11 15 17 22 9z m1540 -11 l-5 -5 -4 4 -5 5 4 4 5 5 4 -4 5 -5 -4 -4z"/>
<path d="M1531 3390 c-4 -4 -10 -14 -14 -22 -4 -9 -9 -16 -10 -16 -6 0 -10 -9
-9 -23 1 -18 7 -23 26 -23 24 0 34 10 46 45 4 12 4 14 2 23 -4 16 -10 22 -24
22 -10 0 -12 -1 -17 -6z"/>
</g>
</svg>
