<?xml version="1.0" standalone="no"?>
<!DOCTYPE svg PUBLIC "-//W3C//DTD SVG 20010904//EN"
 "http://www.w3.org/TR/2001/REC-SVG-20010904/DTD/svg10.dtd">
<svg version="1.0" xmlns="http://www.w3.org/2000/svg"
 width="1111.000000pt" height="2870.000000pt" viewBox="0 0 1111.000000 2870.000000"
 preserveAspectRatio="xMidYMid meet">
<metadata>
Created by potrace 1.15, written by Peter Selinger 2001-2017
</metadata>
<g transform="translate(0.000000,2870.000000) scale(0.500000,-0.500000)"
fill="#000000" stroke="none">
<path d="M1183 3873 c-5 0 -11 -2 -12 -3 -1 -1 -3 -2 -5 -2 -6 0 -20 -12 -23
-19 -2 -4 -3 -12 -3 -18 -1 -12 -2 -10 26 -35 7 -7 12 -18 15 -31 2 -11 6 -23
13 -37 19 -42 28 -70 37 -113 6 -29 6 -38 1 -45 -4 -4 -4 -4 -16 -1 -34 9 -53
-5 -57 -42 -1 -5 -3 -10 -9 -16 -16 -19 -18 -23 -18 -34 0 -10 1 -11 8 -17 15
-12 6 -12 235 -12 l208 1 6 -6 6 -6 -1 -47 c0 -53 2 -61 17 -78 19 -21 20 -32
3 -48 -8 -7 -16 -18 -16 -23 -1 -2 -4 -6 -7 -9 -4 -2 -7 -5 -7 -6 0 0 -104 -1
-232 -1 l-231 0 -7 -5 c-8 -4 -18 -21 -18 -28 0 -2 -1 -4 -2 -4 -1 0 -1 -2 -1
-4 2 -7 -6 -14 -15 -14 -15 0 -19 12 -13 37 3 10 4 29 5 130 1 136 1 133 20
153 11 12 15 19 20 32 4 10 4 11 0 22 -7 20 -15 28 -36 34 -12 3 -9 3 -39 13
-54 19 -66 23 -72 25 -3 1 -16 5 -29 10 -50 18 -75 26 -81 28 -3 1 -8 3 -11 4
-3 2 -8 2 -13 1 -4 -1 -9 -1 -10 -1 -5 -1 -16 -15 -19 -22 -3 -8 -3 -42 0 -49
4 -9 6 -10 21 -9 10 0 14 0 15 -2 2 -2 2 -2 2 0 0 2 3 6 7 10 6 5 8 6 20 6 17
0 23 -5 24 -18 2 -18 1 -22 -22 -44 -17 -18 -22 -22 -32 -26 -27 -9 -35 -20
-37 -47 0 -13 -1 -17 -6 -23 l-5 -7 -5 5 c-4 3 -10 9 -14 12 -5 4 -9 8 -11 9
-4 4 -48 36 -62 46 -21 14 -43 32 -47 38 -11 14 -43 14 -50 1 -1 -2 -11 -16
-22 -30 -11 -15 -23 -32 -27 -37 -12 -17 -23 -21 -48 -21 -17 1 -20 1 -27 6
-7 4 -7 5 -5 6 5 1 23 15 33 24 24 22 46 62 53 94 1 2 1 10 2 19 3 48 -22 95
-66 130 -10 8 -11 8 -23 8 -7 -1 -13 -2 -14 -3 0 -1 -2 -2 -3 -2 -2 0 -4 -2
-6 -5 -2 -3 -5 -5 -6 -5 -2 0 -4 -1 -6 -3 -6 -6 -11 2 -12 16 0 7 -1 13 -1 15
-1 2 -2 6 -3 9 -3 12 -19 20 -61 28 -8 1 -19 3 -24 4 -5 1 -15 2 -23 3 -32 4
-105 6 -119 2 -13 -4 -33 -15 -37 -22 -6 -8 -7 -32 -2 -36 1 -2 4 -6 7 -10 3
-4 7 -9 9 -11 2 -2 10 -12 17 -21 6 -9 13 -18 14 -19 3 -4 18 -29 24 -40 12
-22 27 -30 53 -28 21 1 31 -5 35 -20 4 -16 0 -25 -17 -39 -23 -18 -28 -34 -19
-58 5 -14 18 -30 25 -30 4 0 4 0 -1 -2 -2 -1 -4 -3 -4 -4 0 -3 -5 -8 -8 -8 -1
0 -2 -1 -2 -2 0 -1 -1 -2 -3 -2 -2 0 -10 -7 -18 -15 -14 -14 -16 -15 -24 -15
-8 0 -10 1 -23 15 -17 17 -27 21 -50 21 -30 0 -39 -7 -40 -30 -1 -4 -2 -8 -3
-8 -1 -1 -1 -2 1 -2 7 0 8 -11 2 -18 -9 -11 -26 1 -21 15 1 2 3 3 5 3 3 0 3 0
0 2 -2 1 -2 2 -2 2 1 0 1 5 0 11 -2 14 -9 22 -23 24 -10 1 -12 1 -21 -4 -12
-5 -17 -14 -18 -30 -1 -6 12 -52 17 -61 5 -11 16 -20 27 -24 10 -4 16 -4 254
-4 240 0 243 0 252 4 10 5 18 11 18 15 0 2 1 3 2 3 1 0 3 3 4 6 8 20 27 21 43
2 15 -17 22 -22 42 -28 13 -4 45 -2 57 5 13 6 24 14 24 19 0 2 1 1 2 -1 1 -3
3 -5 4 -5 4 0 6 -17 6 -57 0 -54 2 -61 27 -69 6 -2 14 -4 16 -4 12 0 18 -20 8
-28 -3 -2 -7 -3 -9 -3 -5 1 -26 -6 -31 -11 -10 -9 -10 -10 -12 -134 -1 -63 -1
-117 -1 -120 0 -8 11 -25 20 -31 16 -12 20 -17 21 -29 0 -6 2 -18 3 -27 l2
-16 -6 -6 c-4 -4 -8 -7 -9 -7 -4 0 -6 -6 -7 -21 0 -19 2 -23 14 -23 9 0 17 -8
19 -18 0 -4 1 -9 2 -12 2 -15 11 -23 29 -29 6 -2 12 -4 13 -5 2 -2 8 -25 14
-49 0 -1 1 -4 2 -5 0 -1 1 -5 2 -9 2 -11 10 -30 18 -43 15 -22 7 -43 -15 -43
-13 0 -21 7 -23 21 -2 10 -11 33 -17 42 -8 11 -41 32 -51 32 -1 0 -4 1 -5 3
-2 3 -5 3 -16 2 -28 -2 -32 -11 -22 -51 4 -18 4 -24 -3 -39 -7 -13 -8 -30 -3
-44 7 -19 5 -29 -9 -43 -10 -10 -18 -28 -23 -51 -7 -33 -2 -47 24 -63 7 -4 11
-9 13 -14 7 -18 1 -26 -22 -28 -26 -3 -42 -14 -46 -32 -1 -3 -2 -6 -3 -7 -1
-1 -2 -3 -2 -5 0 -4 -6 -10 -11 -10 -1 0 -4 2 -6 6 -6 8 -15 16 -24 18 -13 4
-13 4 -30 4 -20 0 -25 4 -25 20 0 14 6 20 20 20 8 0 11 -1 20 -8 10 -7 12 -8
22 -8 28 0 28 0 28 119 l0 95 6 11 c3 7 6 13 7 13 3 2 10 19 14 33 2 6 5 15 7
19 5 8 6 30 2 37 -1 3 -9 10 -17 16 -9 7 -17 13 -19 14 -31 24 -39 27 -62 19
-16 -6 -32 -5 -39 1 -6 4 -6 6 -6 22 -1 38 -5 45 -30 63 -8 6 -11 7 -22 7 -7
0 -14 -1 -18 -3 -3 -2 -22 -20 -42 -40 l-35 -36 0 -13 c1 -13 2 -16 9 -25 l7
-10 0 -34 c0 -37 0 -38 -13 -51 -7 -7 -14 -16 -14 -17 0 -1 -1 -5 -3 -9 -3
-12 -3 -68 1 -79 4 -11 5 -12 21 -12 11 0 14 -1 15 -3 0 -2 1 -1 1 2 1 22 51
14 57 -10 4 -17 -4 -24 -28 -24 -20 0 -29 4 -29 14 0 3 -1 4 -1 3 -1 -3 -4 -4
-15 -4 -16 0 -17 -1 -21 -12 -3 -7 -3 -20 -3 -75 0 -37 1 -67 2 -68 1 -1 1
-26 0 -29 -1 -3 -1 -7 1 -8 1 -1 1 -2 -1 -2 -3 0 -12 -13 -12 -18 0 -1 -1 -4
-3 -5 -2 -1 -3 -3 -4 -5 0 -2 -1 -4 -1 -5 -3 -4 -5 -16 -4 -27 0 -9 0 -11 -6
-16 -6 -6 -7 -6 -18 -6 -11 0 -12 0 -18 6 -9 8 -8 23 1 42 14 28 13 16 13 191
l-1 158 6 6 c4 3 8 6 10 7 9 1 19 8 25 17 9 15 10 18 7 39 -7 54 -13 62 -49
67 -20 4 -29 7 -133 48 -47 19 -62 25 -88 35 -11 5 -27 1 -35 -8 -9 -8 -10
-18 -10 -55 1 -33 1 -34 7 -44 3 -5 8 -11 11 -12 8 -5 18 -17 18 -22 0 -3 -5
-12 -10 -17 -6 -7 -9 -17 -9 -38 0 -17 -1 -22 -4 -29 -12 -23 -13 -30 -13 -74
1 -48 3 -53 17 -63 13 -9 19 -9 42 -1 28 10 39 10 50 0 10 -8 10 -32 1 -42 -5
-6 -10 -7 -31 -10 -29 -3 -63 -17 -71 -29 -7 -10 -8 -18 -8 -58 0 -47 2 -55
15 -69 19 -20 20 -31 3 -47 -18 -17 -19 -38 -2 -47 10 -5 23 -9 30 -9 10 0 16
-7 16 -20 0 -13 -6 -20 -16 -20 -4 0 -12 -2 -18 -4 -27 -10 -28 -13 -28 -74 0
-39 1 -49 3 -55 4 -9 14 -21 18 -21 2 0 3 -1 3 -2 0 -2 7 -3 30 -3 30 0 39 5
52 31 3 7 7 14 9 15 5 6 18 2 27 -7 5 -5 16 -10 26 -11 11 -2 24 4 48 20 23
15 39 31 45 46 l6 12 0 44 0 44 6 6 c6 5 8 6 20 6 12 0 14 -1 20 -6 6 -6 6 -7
5 -20 0 -9 1 -16 3 -22 4 -9 14 -21 18 -21 2 0 3 -1 3 -2 0 -4 47 -4 69 1 28
6 62 21 93 41 13 8 21 9 22 2 0 -7 -13 -38 -36 -85 -14 -27 -16 -33 -16 -42 0
-23 13 -37 35 -37 22 0 36 16 46 56 4 16 10 21 26 23 13 2 32 10 40 16 8 5 23
23 33 36 8 11 5 30 -7 46 -7 9 -7 24 0 30 5 6 18 7 30 2 9 -4 26 -3 35 2 6 3
31 39 48 70 15 27 40 73 40 74 0 0 5 11 11 24 26 54 32 70 31 84 -1 8 -3 16
-8 26 -11 22 -9 33 7 43 14 8 32 -3 32 -20 -1 -1 0 -3 1 -6 1 -3 3 -6 3 -8 0
-2 4 -11 9 -20 10 -21 9 -24 -7 -36 -8 -6 -12 -11 -16 -19 l-5 -11 0 -100 c0
-65 1 -104 2 -109 4 -15 19 -24 42 -26 18 -2 24 -8 24 -26 0 -18 -6 -24 -24
-26 -23 -2 -38 -11 -42 -26 -1 -5 -2 -27 -2 -50 0 -48 1 -55 15 -67 6 -5 9 -6
16 -6 8 0 22 5 27 10 2 2 7 5 12 8 9 4 10 4 15 1 10 -5 34 -9 41 -8 20 4 54
25 68 40 19 21 22 32 22 88 0 43 0 45 -5 62 -8 26 -8 37 -2 57 7 24 8 32 4 44
-2 6 -4 12 -5 13 -3 4 -32 5 -32 1 0 -1 -1 -2 -1 -1 -1 0 -5 -6 -9 -13 -9 -17
-14 -21 -29 -21 -19 0 -28 9 -28 28 0 20 8 27 32 28 23 1 26 2 31 6 6 4 17 17
27 31 3 4 7 9 8 11 8 8 9 20 9 90 0 75 -1 81 -12 95 -17 21 -12 36 13 43 19 5
21 5 27 -1 5 -5 7 -6 19 -6 12 0 13 -1 7 -2 -6 -1 -5 -2 5 -1 13 0 13 0 14 -6
0 -5 0 -5 1 2 0 4 2 10 6 16 6 9 8 14 11 28 2 7 -3 20 -12 30 -21 23 -21 46 0
47 11 0 20 -4 35 -18 6 -5 14 -11 17 -13 14 -8 17 -27 7 -47 -7 -14 -11 -33
-9 -45 2 -15 -4 -29 -15 -34 -19 -7 -40 2 -40 18 -1 6 -1 7 -1 2 -1 -6 -1 -6
-13 -5 -14 0 -20 -3 -23 -12 -3 -9 -4 -290 -1 -305 1 -6 2 -19 2 -31 2 -35 9
-43 40 -45 l16 -2 13 -12 c22 -21 41 -23 59 -4 4 4 4 7 4 18 -1 15 -6 23 -16
25 -7 1 -15 9 -24 27 -5 9 -11 18 -13 21 -16 15 -16 43 0 51 8 4 24 4 32 0 10
-5 14 -19 10 -36 -3 -11 -4 -30 -2 -38 1 -6 15 -19 20 -19 19 0 27 5 36 22 l4
9 0 179 0 179 6 6 c6 6 12 7 22 2 2 -2 10 -4 18 -5 8 -1 17 -3 21 -4 3 -1 6
-1 6 0 0 1 6 2 13 2 11 0 14 -1 18 -5 6 -5 7 -9 5 -48 0 -8 0 -19 1 -26 1 -10
1 -13 -3 -17 -4 -5 -13 -5 -17 -1 -3 2 -11 20 -11 23 1 1 -1 6 -3 11 l-4 10
-14 -1 c-15 0 -15 0 -20 -8 -5 -7 -5 -9 -4 -31 0 -26 1 -27 15 -52 8 -13 8
-23 0 -36 -16 -27 -15 -23 -16 -80 0 -57 1 -63 13 -75 5 -5 23 -14 23 -11 0 0
3 -2 6 -5 4 -4 9 -6 12 -6 4 0 4 0 2 -2 -2 -1 -2 -2 -1 -2 0 0 1 0 2 1 0 0 2
-2 4 -4 2 -1 4 -3 5 -2 1 1 2 0 3 -2 1 -2 2 -3 2 -2 2 1 15 -14 15 -17 0 -1 2
-1 4 -1 2 0 4 0 3 -1 -2 -3 9 -10 22 -15 15 -6 27 -14 34 -21 10 -11 26 -13
46 -5 15 6 21 6 27 0 4 -4 4 -5 2 -28 -1 -13 -1 -27 -1 -31 1 -9 -3 -15 -13
-20 -24 -15 -31 -36 -23 -68 3 -10 16 -27 21 -26 0 1 4 0 8 -1 8 -3 44 1 53 5
2 1 8 3 13 6 5 2 12 6 16 10 3 3 7 6 8 6 0 0 3 1 6 3 3 1 13 3 23 4 22 1 38 9
54 23 l10 10 -1 16 c-1 10 -3 17 -5 21 -6 9 -2 31 7 41 2 2 6 7 10 12 4 6 9
11 13 12 3 1 5 3 5 4 0 1 1 2 2 2 3 0 20 12 24 16 1 2 5 8 8 14 l5 11 0 113
c0 149 -1 173 -7 182 -3 6 -14 16 -17 16 -2 0 -19 12 -20 15 -1 4 -1 20 0 24
1 2 8 7 15 12 19 13 23 20 22 47 0 9 2 24 4 34 4 17 4 25 4 138 l0 120 5 10
c3 6 6 9 7 9 5 -3 46 33 51 44 6 13 1 32 -10 40 -3 2 -9 7 -14 11 -6 4 -11 8
-12 9 -1 1 -7 6 -14 10 -6 4 -19 14 -30 22 -18 14 -26 18 -36 20 -12 3 -37 3
-55 1 -31 -5 -40 -1 -40 18 0 6 1 12 2 14 1 2 3 6 3 9 1 4 13 17 21 20 3 2 14
7 26 13 26 12 38 21 45 34 11 17 11 16 11 176 l0 148 5 8 c3 5 7 9 10 10 11 5
42 33 46 43 2 7 2 24 -2 30 -4 8 -14 16 -41 34 -11 8 -26 18 -32 24 -6 5 -14
12 -17 14 -8 6 -108 81 -112 84 -7 6 -19 9 -29 8 -11 -2 -17 -5 -27 -16 -4 -5
-19 -20 -32 -34 -14 -14 -27 -29 -30 -32 -14 -15 -52 -21 -67 -9 -3 3 -5 6 -4
6 5 2 9 27 7 48 -1 34 -13 66 -37 101 -19 29 -28 35 -60 36 -21 2 -24 4 -30
19 -10 28 -17 36 -42 46 -37 15 -77 27 -115 33 -3 0 -9 1 -12 2 -17 3 -55 6
-64 4z m76 -91 c3 -3 5 -6 5 -9 0 -10 9 -33 16 -40 15 -17 13 -35 -4 -35 -6 0
-15 7 -13 10 1 1 0 2 -1 2 -1 0 -2 3 -3 7 -1 3 -2 8 -4 11 -2 5 -2 5 -16 22
-11 13 -12 23 -5 31 6 7 19 7 25 1z m-955 -55 l-5 -5 -4 4 -5 5 4 4 5 5 4 -4
5 -5 -4 -4z m124 -83 c1 0 5 -3 8 -6 5 -5 6 -7 6 -18 0 -11 -1 -13 -6 -18 -6
-6 -7 -6 -18 -6 -11 0 -12 0 -18 6 -5 5 -6 7 -6 17 0 14 3 20 12 24 5 2 8 2
22 1z m-41 -214 c7 -4 7 -6 2 -15 -2 -2 -2 -5 -2 -5 2 -3 -6 -9 -11 -9 -5 0
-13 6 -11 8 0 1 -1 5 -3 9 -5 9 -4 10 4 15 6 3 13 2 21 -3z m62 -41 c3 -3 3
-3 0 -6 -4 -5 -11 1 -7 6 4 4 4 4 7 0z m435 -120 l-5 -5 -4 4 -5 5 4 4 5 5 4
-4 5 -5 -4 -4z m888 -89 c11 -6 16 -17 18 -36 0 -14 0 -15 -5 -20 -5 -5 -16
-6 -27 -2 -9 3 -12 3 -37 8 -21 4 -26 7 -28 18 -4 19 2 31 17 34 15 3 53 2 62
-2z m-276 -2 c5 -5 5 -15 0 -20 -9 -9 -24 -2 -24 10 0 8 6 14 14 14 3 0 8 -2
10 -4z m93 -8 c12 -11 17 -17 15 -20 -1 -2 -1 -4 -1 -4 1 -1 0 -1 -2 -1 -1 1
-3 0 -4 -1 0 -1 -7 -1 -14 -1 -17 1 -23 6 -23 17 0 15 17 22 29 10z m-694 -17
c7 -1 10 -3 13 -7 l4 -6 -4 -6 c-5 -7 -7 -7 -26 -6 -7 0 -16 9 -15 15 0 2 1 6
3 9 3 4 2 4 25 1z m485 -7 c2 -1 6 -6 9 -12 10 -16 15 -22 26 -27 l10 -5 81 0
c45 0 84 0 87 1 6 2 18 -9 15 -15 -1 -2 -2 -8 -3 -13 -1 -5 -2 -10 -2 -12 -2
-2 -2 -13 0 -20 2 -11 3 -12 11 -18 23 -15 46 1 49 34 2 21 10 28 29 28 13 -1
21 -5 25 -15 9 -22 3 -37 -23 -66 -11 -12 -21 -23 -23 -26 -2 -3 -8 -7 -13
-10 l-9 -5 -102 -1 c-74 -1 -103 -2 -106 -3 -8 -5 -10 -9 -9 -22 0 -9 -1 -13
-2 -13 -2 0 -1 -1 2 -2 6 -3 8 -11 8 -24 -1 -15 -6 -20 -17 -20 -8 -1 -8 -1
-1 -1 l7 -1 -1 -15 c-1 -8 -1 -12 0 -10 1 3 2 2 2 -4 0 -8 7 -19 12 -19 1 0 2
-1 1 -2 0 -1 2 -5 5 -9 6 -9 21 -17 35 -18 13 -2 20 -10 20 -23 0 -13 -7 -21
-21 -23 -14 -1 -29 -10 -35 -19 l-6 -9 -1 -40 c0 -38 0 -41 5 -60 7 -27 7 -38
-1 -45 -9 -9 -26 -9 -34 0 l-7 6 2 22 c1 11 2 66 2 120 l0 99 5 4 c8 7 3 38
-8 42 -2 1 -2 2 3 3 6 1 6 2 -2 2 -13 0 -16 4 -16 18 1 16 3 24 9 26 3 1 4 2
2 2 -1 0 -2 4 -2 13 1 13 -1 17 -9 22 -3 1 -30 2 -97 3 -104 1 -93 0 -144 19
-17 6 -32 12 -33 12 -15 -1 -23 -5 -38 -19 l-13 -12 -13 0 c-18 0 -23 5 -25
21 -1 16 2 22 13 30 24 16 32 31 31 59 -1 17 -1 17 5 23 l6 6 115 -1 115 0 10
5 c11 5 16 11 26 27 3 6 7 11 9 12 4 2 19 3 24 0z m256 -2 c10 -3 13 -15 5
-21 -7 -5 -29 -4 -31 1 0 1 -1 2 -2 1 -1 0 -3 1 -5 3 -3 4 -3 4 0 8 2 2 6 4 9
4 3 0 4 1 3 3 0 2 14 3 21 1z m-679 -203 c3 -3 3 -3 0 -6 -4 -5 -11 1 -7 6 4
4 4 4 7 0z m-24 -61 c7 -3 12 -13 12 -25 0 -14 -20 -62 -27 -68 -12 -8 -33 -3
-39 9 -1 3 -3 6 -4 8 -2 1 -3 3 -2 4 1 1 0 2 -1 2 -2 0 -1 2 2 5 3 3 6 12 10
27 3 13 7 26 8 29 5 11 23 15 41 9z m434 -30 c-1 -14 -16 -21 -26 -12 -10 10
-4 25 11 26 9 1 15 -5 15 -14z m-148 -15 c6 -6 6 -6 5 -23 -1 -23 3 -35 19
-52 22 -24 22 -40 0 -64 -14 -16 -20 -30 -19 -46 1 -10 0 -12 -5 -17 -4 -4 -8
-6 -12 -6 -4 0 -8 2 -12 6 l-6 6 1 29 c0 28 0 29 -6 40 -3 7 -8 13 -14 17 -21
15 -22 17 -22 30 0 13 1 15 22 30 11 8 20 25 20 36 -1 6 0 9 5 14 8 8 16 8 24
0z m434 0 l6 -6 -1 -45 c0 -37 0 -47 3 -55 4 -12 11 -20 26 -30 18 -12 18 -28
0 -40 -10 -6 -21 -16 -21 -19 0 -1 -3 -3 -6 -4 -3 -1 -7 -4 -9 -6 -6 -5 -17
-4 -24 3 l-6 6 0 46 c0 53 -1 57 -18 73 -23 21 -23 31 0 53 6 5 11 11 12 14 0
2 3 6 7 7 3 1 6 4 8 6 4 5 16 4 23 -3z m-514 -157 c4 -6 4 -24 -1 -30 -7 -9
-27 -9 -34 0 -5 6 -5 24 0 30 7 9 27 9 35 0z m440 -96 c4 -6 4 -24 -1 -30 -7
-9 -27 -9 -34 0 -5 6 -5 24 0 30 7 9 27 9 35 0z m222 -55 c6 -6 7 -21 2 -29
-6 -8 -26 -9 -33 0 -3 3 -4 8 -4 14 0 14 6 20 20 20 8 0 11 -1 15 -5z m-1239
-12 l-5 -5 -4 4 -5 5 4 4 5 5 4 -4 5 -5 -4 -4z m1091 -16 l6 -6 -1 -144 0
-144 -6 -6 c-4 -5 -6 -6 -12 -6 -4 1 -10 1 -13 1 -4 0 -9 2 -11 4 -4 4 -4 4 1
13 l4 10 0 136 0 136 6 6 c8 8 17 8 26 0z m159 -54 c4 -4 4 -4 0 -8 l-5 -5 -4
4 c-5 4 -5 5 -2 8 4 5 7 5 11 1z m-1225 -20 c3 -2 3 -5 2 -11 -1 -4 -2 -10 -2
-13 -1 -3 -2 -8 -3 -12 -2 -3 -2 -8 -1 -13 2 -14 -11 -22 -18 -11 -3 5 -3 6 0
15 1 5 3 12 4 16 1 4 3 9 5 12 2 3 4 8 4 10 0 4 3 10 6 10 0 0 2 -1 3 -3z
m982 -90 c4 -4 5 -7 5 -15 0 -14 -6 -20 -20 -20 -14 0 -20 6 -20 20 0 14 6 20
20 20 8 0 11 -1 15 -5z m-1055 -57 c5 -5 6 -7 6 -17 0 -16 -7 -23 -23 -23 -16
0 -23 7 -23 23 0 16 7 23 23 23 10 0 12 -1 17 -6z m1279 -44 c16 -7 16 -43 -1
-50 -15 -6 -34 -2 -39 9 -4 8 -4 24 0 32 5 12 23 15 40 9z m-1510 -31 c3 -3 3
-3 0 -6 -4 -5 -11 1 -7 6 4 4 4 4 7 0z m1263 -51 l4 -4 -4 -6 c-6 -7 -9 -7
-13 -1 -3 5 -3 6 1 10 6 6 7 6 12 1z m-1234 -66 c5 -6 5 -12 0 -18 -7 -8 -22
-2 -22 9 0 11 15 17 22 9z m-134 -109 l-5 -5 -4 4 -5 5 4 4 5 5 4 -4 5 -5 -4
-4z m904 -5 c6 -6 5 -15 -1 -21 -7 -6 -13 -6 -18 0 -9 11 -4 25 9 25 3 0 8 -2
10 -4z"/>
<path d="M566 3284 c-6 -2 -27 -29 -34 -42 -2 -5 -5 -13 -5 -18 -1 -5 -2 -11
-2 -13 0 -2 -1 -7 -1 -12 0 -18 -15 -21 -48 -10 l-20 7 -162 0 c-115 0 -163
-1 -168 -2 -12 -4 -19 -11 -22 -20 -6 -22 -1 -34 32 -74 2 -3 6 -7 8 -10 2 -3
8 -8 13 -11 l10 -6 244 0 245 0 5 5 c7 7 11 30 6 36 -2 1 -3 4 -3 7 -2 21 5
30 23 29 7 0 13 -1 15 -3 3 -3 10 -20 10 -25 0 -3 2 -4 13 -4 10 0 13 1 12 3
-1 1 -1 1 1 0 5 -4 14 5 14 13 0 8 -4 20 -6 20 -1 0 -2 1 -2 3 0 2 -8 11 -18
20 -19 19 -18 19 -38 34 -56 41 -72 54 -80 62 -6 5 -12 10 -15 11 -6 2 -20 2
-27 0z"/>
<path d="M566 3024 c-4 -1 -12 -11 -23 -26 -10 -12 -19 -24 -21 -26 -2 -2 -6
-9 -10 -14 -11 -18 -19 -20 -55 -22 -16 -1 -37 -3 -46 -4 -15 -2 -19 -2 -36 1
-25 4 -237 5 -249 1 -16 -5 -23 -16 -24 -34 -1 -6 13 -52 17 -61 6 -10 18 -20
29 -24 8 -3 16 -3 45 -3 36 1 45 3 56 14 7 6 20 12 27 12 6 0 22 -7 24 -10 1
-1 4 -3 8 -6 10 -7 22 -9 36 -5 14 5 26 4 45 -1 16 -4 21 -4 160 -4 l143 0 14
5 c22 8 41 31 45 54 3 18 -9 38 -36 59 -14 10 -18 14 -22 17 -3 3 -20 3 -28 0
-7 -3 -15 -15 -18 -26 -2 -9 -10 -13 -24 -13 -11 0 -14 1 -18 5 -6 4 -6 6 -6
20 l0 15 12 10 11 11 0 17 c0 9 -1 16 -2 16 -1 0 -6 5 -12 10 -5 6 -12 11 -15
12 -7 2 -20 2 -27 0z"/>
</g>
</svg>
