<?xml version="1.0" standalone="no"?>
<!DOCTYPE svg PUBLIC "-//W3C//DTD SVG 20010904//EN"
 "http://www.w3.org/TR/2001/REC-SVG-20010904/DTD/svg10.dtd">
<svg version="1.0" xmlns="http://www.w3.org/2000/svg"
 width="1108.000000pt" height="2870.000000pt" viewBox="0 0 1108.000000 2870.000000"
 preserveAspectRatio="xMidYMid meet">
<metadata>
Created by potrace 1.15, written by Peter Selinger 2001-2017
</metadata>
<g transform="translate(0.000000,2870.000000) scale(0.500000,-0.500000)"
fill="#000000" stroke="none">
<path d="M329 3849 c-14 -3 -27 -20 -29 -37 -2 -30 41 -64 84 -64 7 0 10 -1
14 -5 l5 -5 -3 -23 c-2 -13 -2 -27 -1 -32 3 -18 2 -25 -5 -32 -5 -5 -7 -6 -16
-6 -18 0 -27 15 -21 34 5 14 2 31 -6 36 -16 10 -38 -1 -48 -26 -3 -7 -3 -20
-3 -107 l0 -100 -6 -6 c-3 -4 -6 -5 -6 -4 0 1 -2 2 -4 2 -2 0 -6 1 -8 2 -22
11 -146 60 -152 60 -12 0 -19 -9 -18 -24 0 -12 1 -13 10 -23 3 -4 6 -7 5 -7
-1 0 0 -2 1 -4 2 -3 17 -8 34 -11 16 -3 23 -27 10 -39 -8 -9 -23 -9 -32 -1 -3
3 -5 6 -5 7 1 1 0 2 -1 3 -1 1 -2 4 -2 7 0 3 -1 4 -1 2 -1 -3 -4 -4 -17 -4 -9
0 -17 -1 -18 -1 -3 0 -4 -113 -2 -122 1 -2 2 -7 3 -10 3 -11 17 -22 36 -29 10
-4 20 -8 22 -11 5 -4 10 -19 8 -26 -1 -2 0 -8 2 -12 1 -4 2 -7 2 -7 -1 0 0 -3
2 -6 4 -8 14 -15 29 -20 7 -2 15 -6 17 -8 10 -9 10 -35 0 -43 -2 -3 -12 -7
-21 -11 -9 -3 -23 -10 -30 -13 -8 -5 -15 -7 -20 -7 -21 0 -26 0 -31 -2 -4 -1
-7 -3 -7 -4 0 -1 -1 -2 -3 -2 -1 0 -5 -4 -7 -9 -4 -8 -4 -9 -4 -225 0 -240 -1
-226 13 -239 13 -15 36 -16 84 -6 27 6 57 19 80 35 19 13 21 18 20 47 -1 20
-1 22 3 26 10 11 30 4 30 -10 0 -6 -5 -24 -8 -28 -1 -1 -3 -7 -5 -13 -3 -11
-3 -28 -3 -155 l0 -143 -6 -7 c-3 -3 -7 -6 -9 -6 -5 -1 -42 -7 -49 -8 -3 -1
-15 -2 -27 -4 -12 -2 -23 -3 -25 -4 -3 -1 -11 -2 -43 -6 -4 -1 -13 -2 -20 -3
-11 -2 -20 -3 -35 -5 -3 0 -10 -1 -17 -2 -27 -3 -40 -13 -42 -32 -1 -9 0 -13
13 -44 8 -19 18 -42 22 -52 4 -10 9 -21 10 -25 2 -4 8 -17 13 -29 5 -12 12
-25 14 -29 8 -13 16 -31 21 -49 6 -21 20 -54 27 -64 5 -9 14 -13 27 -13 13 0
22 6 35 24 11 16 20 24 37 35 8 5 21 13 28 18 7 5 20 13 28 18 39 25 121 79
123 81 2 1 4 2 4 2 1 0 4 2 5 4 5 4 8 6 18 12 8 4 20 12 22 14 1 1 6 5 13 9 7
5 13 10 14 14 4 10 7 25 7 34 0 4 1 8 4 11 5 4 7 5 18 1 5 -1 11 -2 14 -2 3 0
8 1 11 1 3 0 8 2 10 4 3 2 5 3 6 3 0 -1 3 4 6 11 6 14 13 20 23 20 21 0 24
-24 6 -42 -8 -7 -10 -15 -10 -27 1 -9 2 -11 14 -23 20 -19 19 -19 46 -19 24 0
26 0 36 -10 4 -3 11 -8 15 -10 9 -5 16 -15 13 -21 -1 -2 -7 -16 -13 -31 -10
-26 -11 -29 -10 -39 1 -12 10 -25 15 -23 2 1 7 2 11 3 5 1 12 5 16 8 23 17 25
19 35 19 12 0 14 -2 23 -16 9 -14 13 -16 29 -14 7 1 13 1 13 2 0 0 5 6 10 14
34 48 51 76 62 97 6 12 7 26 1 44 -2 7 -6 19 -8 26 -3 7 -7 19 -11 27 -8 16
-9 20 -3 28 6 7 16 9 38 9 39 -1 50 7 59 40 2 6 5 17 7 24 4 13 19 69 21 79 1
8 10 21 15 21 2 0 5 -1 6 -3 7 -8 33 -22 55 -29 7 -2 21 -14 21 -18 0 -4 15
-25 22 -32 19 -17 18 -33 -3 -70 -5 -8 -9 -15 -9 -15 0 -3 -48 -74 -52 -77 -3
-3 -26 -32 -35 -45 -6 -10 -14 -19 -20 -23 -13 -9 -62 -51 -90 -76 -7 -6 -10
-19 -8 -36 1 -18 -2 -23 -13 -18 -12 6 -20 8 -31 9 l-12 1 -10 -10 c-5 -5 -9
-11 -8 -12 1 -1 0 -2 -1 -2 -1 0 -2 -5 -2 -11 -1 -19 16 -46 31 -51 15 -5 22
-4 51 11 28 14 74 40 85 48 4 3 7 5 9 5 1 0 2 1 2 2 1 0 8 5 16 11 15 10 57
41 65 48 2 2 9 8 15 13 13 11 28 25 45 42 15 14 19 25 19 45 0 18 3 20 30 26
7 1 21 8 28 14 5 4 9 5 16 5 14 0 20 -4 31 -26 4 -8 10 -16 13 -19 6 -5 24
-13 31 -13 7 0 15 -4 15 -8 0 -9 -99 -113 -165 -175 -22 -20 -25 -26 -25 -41
0 -10 4 -17 15 -28 16 -17 37 -20 56 -8 5 3 10 6 10 6 1 0 20 11 34 19 2 2 6
4 8 5 4 2 48 30 52 33 1 1 7 5 12 9 13 9 48 34 56 42 3 1 7 5 11 8 25 18 67
57 75 69 6 9 17 20 27 27 10 7 40 36 40 38 0 1 4 2 8 2 9 0 12 -3 21 -23 9
-20 29 -60 33 -65 2 -3 4 -6 4 -7 0 0 5 -8 10 -17 24 -40 48 -69 65 -79 5 -3
13 -11 18 -17 31 -34 35 -37 73 -58 41 -21 84 -25 117 -8 26 13 46 29 60 51 8
10 8 12 8 22 -1 13 -4 19 -15 31 -13 15 -13 29 1 50 17 25 16 32 -3 81 -12 32
-15 45 -13 65 0 12 0 18 -5 32 -6 24 -6 30 2 46 8 17 12 27 13 36 10 104 10
98 5 109 -14 31 -70 19 -83 -19 -2 -5 -11 -27 -20 -49 -8 -22 -18 -48 -20 -58
-3 -10 -7 -21 -8 -24 -3 -4 -4 -11 -4 -23 0 -16 0 -18 6 -27 4 -6 7 -14 8 -17
1 -4 2 -9 2 -11 3 -7 -1 -24 -7 -29 -10 -10 -36 -10 -46 1 -9 9 -11 24 -10 59
0 9 -1 19 -3 26 -7 23 -6 30 5 42 7 8 8 10 11 18 3 11 2 19 -6 35 -3 8 -11 24
-16 37 -22 57 -22 65 -4 103 18 38 22 47 31 68 12 28 12 29 15 35 7 15 9 35 5
56 -1 6 0 14 2 26 5 25 2 37 -11 49 -4 3 -8 9 -10 13 -3 7 -3 8 2 11 4 5 9 5
23 0 6 -3 12 -3 19 -2 21 2 28 12 43 73 6 22 6 25 5 45 l-1 22 7 15 c4 8 8 16
9 17 5 6 21 69 23 89 0 6 13 19 23 22 13 4 26 13 36 26 3 3 6 8 7 9 6 5 17 32
17 38 0 25 -16 35 -67 46 -2 0 -9 2 -15 4 -6 1 -16 4 -23 5 -7 2 -13 3 -14 3
-1 1 -8 2 -15 4 -7 2 -18 4 -24 6 -6 1 -19 4 -28 7 -9 2 -20 5 -23 6 -4 1 -7
1 -7 1 -1 0 -4 -1 -8 -2 -14 -1 -29 -16 -36 -34 -1 -4 -7 -9 -18 -15 -24 -14
-31 -25 -34 -57 -1 -11 -4 -34 -6 -51 -2 -18 -4 -39 -4 -48 1 -19 -1 -23 -3
-8 -2 8 -3 11 -5 10 -5 0 -6 6 -7 49 -1 20 -2 42 -2 49 0 7 -1 43 -2 80 -1 60
-2 68 -5 76 -5 11 -14 19 -28 24 -15 6 -20 11 -20 19 0 8 5 19 12 27 2 3 8 11
13 19 5 8 11 17 13 20 3 3 4 8 4 11 -1 4 1 7 8 13 5 4 10 9 10 11 0 2 0 2 2 0
2 -4 12 2 18 11 5 7 14 25 18 36 8 19 17 36 23 38 14 8 36 3 41 -9 5 -13 0
-40 -9 -43 -2 -1 -2 -5 -2 -14 1 -15 0 -14 6 -20 l5 -6 65 -1 c56 0 67 0 77 3
21 6 37 20 47 42 8 16 8 20 4 34 -4 11 -3 10 -23 31 -15 15 -16 16 -15 24 0 7
2 12 6 17 27 35 34 88 17 130 -9 21 -23 45 -26 45 -1 0 -3 1 -4 3 -4 3 -15 9
-18 9 -1 0 -12 5 -24 10 -21 11 -21 11 -40 11 -21 0 -28 3 -28 12 0 3 -2 11
-4 18 -8 24 -27 36 -48 31 -10 -3 -11 -4 -16 -13 -4 -8 -5 -12 -4 -26 0 -18
-3 -24 -13 -30 -3 -2 -7 -6 -10 -8 -2 -3 -4 -4 -5 -4 -2 1 -4 -2 -5 -8 -1 -3
0 -5 1 -5 1 0 1 -3 1 -6 -1 -4 1 -11 4 -17 17 -37 20 -55 12 -71 -3 -5 -13
-19 -32 -42 -1 -2 -5 -7 -8 -11 -3 -4 -7 -9 -8 -11 -2 -1 -3 -3 -3 -4 0 -6
-10 10 -10 15 0 3 0 34 0 69 l0 63 6 8 c3 5 6 9 7 9 0 0 5 2 9 5 4 3 9 5 11 5
4 0 5 5 5 18 0 6 0 22 0 35 0 25 -1 29 -12 43 -7 9 -17 14 -35 16 -14 2 -97
11 -116 13 -5 1 -20 2 -33 4 -13 2 -28 3 -35 4 -7 1 -18 2 -25 3 -22 3 -37 -3
-46 -18 -5 -8 -5 -11 -5 -35 l0 -26 7 -9 c7 -9 20 -14 37 -14 14 0 21 -6 21
-18 0 -12 -7 -18 -19 -18 -28 2 -49 -18 -43 -39 3 -11 15 -22 30 -26 23 -7 24
-20 2 -28 -7 -2 -13 -5 -14 -7 -2 -1 -4 -2 -5 -2 -1 0 -5 -5 -8 -11 l-5 -11 0
-39 c1 -39 1 -39 -4 -44 l-5 -5 -148 0 c-153 0 -163 0 -187 8 -7 3 -13 5 -14
5 -1 0 -2 1 -4 2 -2 0 -9 3 -17 6 -8 2 -19 7 -26 9 -9 3 -14 4 -22 3 -12 -1
-15 -3 -29 -15 -17 -16 -30 -13 -33 7 -1 16 -8 32 -16 38 -9 7 -37 17 -44 16
-5 -1 -14 -3 -17 -4 -1 0 -3 -2 -6 -5 -9 -12 -10 -17 -10 -70 0 -42 -1 -51 -3
-57 -2 -4 -4 -7 -5 -7 -1 0 -2 -2 -2 -3 0 -3 0 -4 -2 -1 -1 2 -3 3 -3 2 -7 -2
-35 9 -35 14 0 1 -1 4 -2 7 -2 3 -3 8 -3 11 -1 3 -2 5 -3 6 -1 0 -5 3 -9 6 -3
3 -9 7 -12 9 -3 2 -7 5 -8 6 -1 1 -6 5 -10 8 -4 3 -9 7 -10 8 -1 1 -5 4 -9 7
-4 3 -14 11 -23 18 -9 7 -19 14 -22 15 -7 4 -28 5 -32 1 -1 -1 -3 -2 -3 -1 -1
0 -10 -9 -21 -20 -10 -11 -19 -20 -19 -20 0 0 -4 -11 -7 -17 -1 -4 -3 -6 -3
-6 -1 0 -4 -2 -6 -4 -3 -3 -4 -3 -4 -1 0 2 -1 3 -2 3 -3 0 -7 18 -8 42 -1 18
-3 29 -6 38 -6 17 -6 30 0 46 6 18 8 60 3 77 -2 6 -2 12 -2 14 1 1 1 1 -1 -1
-3 -2 -4 -2 -5 0 -1 2 -1 2 0 2 1 -1 3 0 5 1 2 3 3 9 3 31 0 31 2 35 12 33 18
-4 36 -2 44 5 5 4 12 20 12 25 -1 18 -10 31 -26 37 -4 2 -41 5 -88 9 -8 1 -17
2 -21 2 -4 0 -16 1 -26 2 -10 1 -21 2 -24 2 -3 0 -14 1 -25 2 -11 1 -28 2 -38
3 -18 2 -25 2 -32 1z m175 -150 c0 -1 -2 -3 -3 -5 -4 -4 -4 -4 -8 0 l-5 5 4 4
c4 5 5 5 8 2 2 -2 4 -5 4 -6z m20 1 c8 0 10 -1 8 -2 -5 -3 -26 -2 -26 1 0 2 2
2 4 2 1 0 8 -1 14 -1z m1310 -142 c5 -5 6 -7 6 -17 0 -16 -7 -23 -23 -23 -10
0 -12 1 -17 6 -5 5 -6 7 -6 17 0 16 7 23 23 23 10 0 12 -1 17 -6z m-349 -37
c9 -3 20 -8 26 -11 5 -3 10 -6 11 -6 5 0 14 -35 14 -57 0 -19 -4 -25 -16 -25
-9 0 -12 3 -22 24 -9 21 -12 24 -34 33 -21 9 -24 12 -24 26 0 13 4 19 14 21 8
2 10 1 31 -5z m-1060 -1 c2 -3 7 -9 10 -13 3 -5 7 -9 8 -9 2 0 3 -1 3 -2 1 -2
3 -3 4 -3 2 0 8 -3 14 -5 5 -2 10 -3 10 -3 0 1 2 -1 4 -4 4 -5 4 -5 1 -10 -2
-2 -8 -6 -12 -8 -4 -2 -15 -7 -25 -11 -33 -16 -39 -10 -43 48 -1 13 -1 15 3
19 6 7 18 7 23 1z m1235 -52 c2 -4 4 -8 4 -10 0 -3 -10 -10 -14 -10 -3 0 -10
7 -10 11 0 5 8 15 12 15 2 0 6 -3 8 -6z m-1058 -8 c9 -5 7 -21 -3 -25 -9 -3
-16 1 -19 11 -2 8 -2 8 2 13 5 5 12 5 20 1z m157 -35 c4 -6 4 -4 6 -32 2 -31
8 -40 25 -39 9 1 9 1 14 -9 l6 -10 0 -123 0 -123 5 -9 c4 -8 6 -10 19 -16 8
-5 16 -7 17 -6 5 5 15 -6 15 -18 0 -17 -6 -50 -12 -63 -7 -14 -11 -33 -9 -41
1 -3 0 -10 -3 -18 -3 -9 -5 -19 -5 -33 0 -22 -2 -26 -13 -38 -11 -12 -15 -23
-15 -45 -1 -22 2 -35 11 -48 22 -28 22 -41 -1 -66 -4 -3 -9 -12 -11 -18 -4
-10 -5 -17 -7 -56 -5 -78 -9 -107 -16 -118 -5 -7 -5 -7 -19 -7 -8 0 -15 -1
-17 -3 -3 -4 -15 -2 -20 2 -8 7 -7 18 3 29 16 18 18 36 6 50 -21 25 -57 59
-79 75 -14 11 -17 15 -15 20 3 5 6 7 26 14 36 13 70 34 79 49 11 19 11 14 11
198 0 122 -1 172 -2 177 -4 11 -11 19 -23 25 -6 3 -11 6 -12 7 -1 1 -2 2 -3 1
-1 0 -4 2 -7 5 -8 8 -8 24 0 32 3 3 6 5 7 5 1 -1 2 0 3 1 1 1 6 4 12 7 12 6
19 14 23 25 4 11 3 107 -1 119 -2 6 -4 10 -5 11 -4 2 -18 30 -22 43 -8 25 -4
38 12 43 4 1 9 3 9 4 2 3 4 2 8 -3z m441 -8 c2 -3 4 -6 3 -7 -1 -1 -1 -2 0 -2
2 0 6 -7 8 -16 1 -3 4 -8 8 -11 12 -12 17 -12 95 -11 l72 0 5 -5 c6 -6 6 -7 7
-29 0 -13 1 -31 1 -41 1 -18 -1 -27 -6 -33 -3 -2 -13 5 -31 22 -1 1 -6 5 -10
8 -4 3 -8 6 -9 7 -1 1 -6 5 -10 8 -14 11 -22 18 -32 29 -11 11 -11 11 -25 12
-17 1 -22 -2 -29 -17 -5 -9 -6 -13 -7 -36 -1 -29 -3 -33 -15 -37 -3 -1 -32 -1
-64 0 -50 0 -58 0 -66 -3 -15 -5 -22 -19 -24 -41 -1 -15 -4 -20 -15 -31 -5 -5
-9 -11 -9 -13 -1 -9 -13 -17 -25 -15 -4 0 -12 0 -18 -2 -6 -2 -17 -4 -24 -4
-13 -1 -14 -1 -19 4 -10 10 -4 31 9 31 2 0 9 2 15 4 17 6 23 14 33 39 1 4 8
11 14 17 29 25 26 52 -8 72 -6 3 -13 8 -15 10 -5 5 -4 20 0 27 9 11 38 17 88
17 23 0 41 1 45 2 10 3 21 13 23 20 2 9 6 16 8 16 1 0 1 1 0 2 -3 4 7 12 15
12 5 0 9 -1 12 -5z m-931 -9 c7 -7 7 -20 0 -26 -13 -10 -29 -2 -29 13 0 15 18
23 29 13z m1361 -4 c6 -5 6 -6 4 -10 -4 -6 -12 -8 -15 -3 -1 2 -3 3 -5 3 -4 0
-2 9 3 13 6 4 6 4 13 -3z m-54 -37 c4 -2 4 -3 0 -6 -3 -3 -4 -3 -7 0 -3 2 -3
3 -1 6 4 4 4 4 8 0z m-1245 -277 l0 -243 -6 -6 c-4 -3 -7 -6 -7 -7 -1 0 -4 2
-8 6 l-7 7 1 203 0 203 -4 12 c-3 6 -5 11 -6 11 -2 0 -12 22 -12 26 0 4 10 26
12 26 1 0 2 1 2 3 0 1 5 5 11 8 l11 6 7 -6 6 -6 0 -243z m206 249 c4 -5 6 -7
5 -12 -1 -8 4 -22 9 -28 3 -3 12 -8 20 -12 17 -9 21 -13 18 -23 -2 -6 -5 -8
-19 -15 -18 -10 -23 -14 -26 -26 -2 -9 -2 -353 0 -360 8 -22 10 -41 10 -65 -1
-24 -1 -24 -8 -30 -8 -9 -24 -9 -32 0 -9 10 -19 50 -16 64 1 6 3 10 10 29 5
13 6 20 5 30 -1 5 -2 19 -2 31 -1 23 -1 24 -5 33 -2 3 -5 11 -7 16 -3 10 -3
11 1 22 2 6 5 13 6 14 0 1 3 7 5 12 3 9 3 23 3 162 l-1 152 6 6 c7 8 10 8 18
0z m106 -84 c3 -3 3 -3 0 -6 -4 -5 -11 1 -7 6 4 4 4 4 7 0z m761 -41 c11 -11
13 -24 8 -45 -7 -27 -8 -33 -7 -54 0 -11 1 -33 2 -48 1 -15 1 -33 2 -39 3 -36
3 -52 0 -59 -4 -9 -6 -9 -21 4 -7 6 -15 12 -17 13 -11 4 -32 2 -37 -4 -1 0
-10 -9 -20 -20 l-19 -18 -5 5 c-3 2 -8 8 -10 12 -9 19 -20 24 -41 22 -12 -1
-53 -13 -58 -17 -5 -4 -31 -12 -47 -14 -9 -1 -19 -3 -22 -5 -7 -4 -16 -12 -16
-15 0 -1 0 -3 0 -3 -1 -3 -20 -19 -22 -19 -1 0 -6 -2 -11 -4 -18 -8 -22 -9
-30 -9 -10 0 -17 3 -21 8 -4 5 -11 26 -9 30 0 2 0 3 -1 4 -1 1 -2 3 -1 5 1 1
1 2 0 2 -1 -1 -3 0 -5 2 -5 5 -23 4 -31 -1 -13 -8 -29 -1 -29 14 0 15 16 22
29 14 5 -3 23 -3 31 0 3 1 13 15 15 22 1 2 4 8 7 12 6 10 7 21 3 41 -4 21 -2
28 14 46 8 9 13 17 14 21 2 8 15 21 19 19 2 -1 10 -2 18 -2 14 0 16 -1 21 -5
3 -3 6 -5 8 -5 1 0 1 -1 -1 -2 -1 -1 -3 -14 -6 -38 -4 -41 -4 -44 -2 -44 1 0
2 -1 1 -1 -3 -5 9 -18 21 -24 12 -6 14 -7 34 -6 20 0 23 1 60 13 41 13 51 15
62 9 17 -9 33 -11 45 -5 20 10 46 50 45 69 0 11 -5 21 -13 25 -3 2 -5 4 -3 4
2 0 0 3 -5 8 -7 8 -8 8 -5 11 7 5 13 28 9 38 -2 6 2 21 7 26 1 1 8 5 14 8 5 3
11 7 11 8 2 3 4 2 15 -9z m-501 -71 c5 -4 6 -6 7 -16 1 -21 -5 -28 -23 -30
-19 -2 -29 10 -26 33 1 13 7 18 24 18 11 0 14 -1 18 -5z m669 -22 c3 -3 4 -7
4 -14 0 -13 -6 -19 -19 -19 -13 0 -19 6 -19 19 0 7 1 11 4 14 7 8 23 8 30 0z
m-1409 -83 c10 -9 3 -26 -10 -26 -8 0 -15 7 -15 15 0 13 16 20 25 11z m1378
-61 c7 -5 10 -11 10 -27 0 -12 -1 -15 -4 -18 -10 -7 -35 -7 -43 2 -9 8 -9 32
0 41 7 7 27 8 37 2z m204 -6 c12 -12 3 -31 -13 -31 -11 0 -18 7 -18 18 0 11 7
18 18 18 6 0 9 -1 13 -5z m-1315 -52 l-5 -5 -4 4 -5 5 4 4 5 5 4 -4 5 -5 -4
-4z m1181 -9 c4 -6 4 -24 0 -30 -7 -8 -28 -9 -35 0 -2 2 -4 9 -5 15 -1 10 -1
12 3 16 8 8 30 7 37 -1z m-1432 -6 c4 -6 4 -24 -1 -30 -7 -9 -27 -9 -34 0 -5
6 -5 24 0 30 7 9 27 9 35 0z m1123 -32 c6 -11 -10 -22 -17 -12 -4 6 -4 9 1 14
5 5 12 4 16 -2z m388 -7 c3 -2 7 -3 10 -3 12 0 18 -16 10 -25 -5 -5 -17 -7
-19 -3 -1 1 -2 1 -4 1 -7 -3 -12 15 -8 26 3 8 4 8 11 4z m-173 -25 c9 -9 4
-29 -8 -36 -6 -4 -24 -9 -29 -9 -9 1 -16 4 -19 8 -5 7 -5 23 0 30 9 12 46 17
56 7z m-594 -19 c6 -4 6 -6 6 -20 0 -14 0 -16 -6 -20 -4 -4 -7 -5 -18 -5 -11
0 -14 1 -18 5 -6 4 -6 6 -6 20 0 14 0 16 6 20 4 4 7 5 18 5 11 0 14 -1 18 -5z
m-262 -14 c6 -4 6 -6 6 -20 0 -14 0 -16 -6 -20 -4 -4 -7 -5 -18 -5 -11 0 -14
1 -18 5 -6 4 -6 6 -6 20 0 14 0 16 6 20 4 4 7 5 18 5 11 0 14 -1 18 -5z m407
-21 c2 -2 3 -4 2 -5 -1 -1 -2 -10 -3 -19 -2 -19 0 -27 8 -39 8 -12 10 -19 7
-27 -2 -3 -5 -7 -6 -7 -2 -1 -7 -5 -12 -9 l-8 -8 -3 11 c-4 14 -4 29 0 91 1
15 7 20 15 12z m349 -9 c5 -2 7 -5 10 -12 4 -12 4 -15 0 -23 l-4 -8 -8 3 c-4
2 -10 3 -12 3 -18 -1 -25 4 -25 21 0 13 4 19 14 21 8 1 16 0 25 -5z m-153 -19
c7 -13 7 -26 1 -39 -3 -6 -6 -11 -7 -11 -1 0 -2 -2 -4 -5 -5 -12 -11 -1 -13
22 -1 13 2 29 8 39 3 4 12 0 15 -6z m418 -5 c10 -7 33 -27 36 -33 2 -3 4 -7 4
-8 0 -4 -6 -11 -10 -12 -7 -1 -45 17 -55 27 -7 5 -7 18 -1 24 6 6 18 7 26 2z
m-172 -44 c4 -4 5 -9 4 -20 0 -4 -3 -7 -14 -15 -14 -11 -17 -15 -20 -31 -1 -8
-1 -11 4 -23 8 -16 14 -35 14 -41 0 -4 -5 -10 -17 -20 -8 -6 -14 -17 -16 -28
-1 -7 8 -52 17 -89 10 -37 9 -50 -3 -71 -16 -29 -18 -34 -16 -54 1 -19 9 -46
17 -54 4 -5 10 -18 10 -22 0 -4 -6 -10 -10 -10 -4 0 -16 5 -16 7 0 1 -2 4 -4
6 -2 2 -4 4 -4 3 0 -1 -2 1 -5 3 -2 3 -4 6 -4 6 1 1 -1 1 -4 1 -8 1 -9 1 -9 3
0 1 -3 6 -7 11 -11 13 -12 24 -3 49 5 15 6 21 5 27 -2 18 -24 54 -46 77 -16
16 -19 29 -10 48 11 25 44 131 50 158 0 3 1 7 2 9 0 2 2 8 3 12 3 12 13 37 19
45 5 7 5 7 16 6 10 0 11 0 16 6 8 9 23 9 31 1z m83 -6 c5 -8 1 -16 -8 -16 -9
0 -13 8 -8 16 2 3 5 5 8 5 3 0 6 -2 8 -5z m-1033 -44 c3 -4 6 -9 7 -9 1 -1 1
-2 0 -2 -3 0 -3 -4 3 -38 10 -53 19 -120 21 -156 1 -16 1 -17 -4 -24 -3 -3 -6
-6 -7 -6 -3 1 -26 -3 -26 -4 0 -1 -3 1 -6 5 l-6 7 0 111 1 112 5 11 c4 8 5 9
6 6 0 -3 3 -8 6 -13z m584 9 c8 -9 2 -22 -9 -22 -6 0 -13 7 -13 12 0 12 15 18
22 10z m608 -19 c14 -7 14 -41 0 -48 -14 -7 -36 -3 -41 8 -4 8 -4 24 0 32 6
12 26 16 41 8z m-1286 -19 c5 -6 5 -12 0 -18 -7 -8 -22 -2 -22 9 0 11 15 17
22 9z m519 -23 c5 -8 1 -16 -8 -16 -9 0 -13 8 -8 16 2 3 5 5 8 5 3 0 6 -2 8
-5z m336 -3 c5 -5 6 -7 6 -16 0 -15 -8 -23 -23 -23 -9 0 -11 1 -16 7 -9 8 -9
23 -1 32 9 9 24 9 34 0z m-214 -59 c3 -3 3 -3 0 -6 -4 -5 -11 1 -7 6 4 4 4 4
7 0z m530 -57 c11 -10 3 -28 -11 -28 -9 0 -16 6 -16 16 0 14 17 22 27 12z
m-1190 -5 c12 -12 3 -31 -13 -31 -11 0 -18 7 -18 18 0 11 7 18 18 18 6 0 9 -1
13 -5z m1111 -95 c5 -5 5 -15 0 -20 -9 -9 -24 -2 -24 10 0 8 6 14 14 14 3 0 8
-2 10 -4z m-859 -8 c5 -5 6 -7 6 -16 0 -15 -8 -23 -23 -23 -9 0 -11 1 -16 7
-9 8 -9 23 -1 32 9 9 24 9 34 0z m598 -69 c10 -10 4 -31 -9 -31 -16 -1 -22 4
-22 17 0 12 6 19 18 19 6 0 9 -1 13 -5z m-513 -49 c1 0 5 -3 8 -6 5 -5 6 -7 6
-17 0 -19 -6 -24 -26 -26 -18 -1 -22 3 -22 22 0 16 3 22 12 26 5 2 8 2 22 1z
m917 -5 c10 -10 12 -43 4 -57 -5 -8 -18 -13 -35 -13 -21 0 -29 7 -29 27 0 29
43 60 60 43z m-1283 -5 c5 -5 5 -15 0 -21 -4 -6 -25 -16 -38 -20 -13 -3 -23
-1 -28 5 -5 6 -5 24 0 30 7 10 58 14 66 6z m1156 -27 c-3 -9 -6 -9 -10 0 -2 6
-2 8 1 11 4 4 4 4 8 0 3 -3 3 -4 1 -11z m-157 3 c7 -12 1 -24 -12 -24 -18 0
-23 9 -13 21 9 11 19 12 25 3z m-1173 -1 c8 -5 13 -15 14 -32 0 -12 0 -15 -3
-19 -8 -9 -28 -9 -35 0 -8 9 -4 37 5 47 8 8 11 8 19 4z m-95 -3 c11 -10 3 -28
-11 -28 -9 0 -16 6 -16 16 0 14 17 22 27 12z m1695 -116 c1 0 5 -3 8 -6 l6 -6
-1 -29 c-1 -24 -1 -29 2 -35 5 -9 16 -19 30 -26 18 -9 20 -10 19 -19 0 -20
-21 -23 -37 -6 -9 10 -36 19 -40 15 -3 -3 -33 -9 -42 -8 -12 0 -20 9 -20 22 0
12 4 16 18 26 15 9 21 21 22 43 2 18 5 24 13 28 5 2 8 2 22 1z"/>
<path d="M124 3195 c0 -4 -1 -5 -1 -3 -1 1 -6 2 -16 2 -13 0 -15 0 -17 -4 -2
-3 -3 -5 -3 -5 0 0 1 -2 3 -4 2 -2 6 -3 18 -3 11 0 16 -1 17 -2 0 -2 1 3 1 11
0 7 0 13 -1 13 -1 0 -1 -2 -1 -5z"/>
<path d="M669 2054 c-3 -4 -5 -7 -5 -8 0 -1 -4 -9 -10 -19 -5 -9 -10 -18 -10
-18 0 -1 -5 -9 -11 -19 -13 -22 -16 -27 -15 -37 0 -13 4 -20 14 -30 9 -8 21
-12 31 -10 2 0 5 1 7 1 8 0 51 36 92 76 28 28 28 28 28 44 0 13 0 13 -6 18
-11 8 -15 8 -41 3 -21 -4 -24 -5 -28 -2 -4 3 -12 4 -31 6 -9 0 -10 0 -15 -5z"/>
</g>
</svg>
