<?xml version="1.0" standalone="no"?>
<!DOCTYPE svg PUBLIC "-//W3C//DTD SVG 20010904//EN"
 "http://www.w3.org/TR/2001/REC-SVG-20010904/DTD/svg10.dtd">
<svg version="1.0" xmlns="http://www.w3.org/2000/svg"
 width="1167.000000pt" height="2870.000000pt" viewBox="0 0 1167.000000 2870.000000"
 preserveAspectRatio="xMidYMid meet">
<metadata>
Created by potrace 1.15, written by Peter Selinger 2001-2017
</metadata>
<g transform="translate(0.000000,2870.000000) scale(0.500000,-0.500000)"
fill="#000000" stroke="none">
<path d="M935 3822 c-22 -7 -26 -20 -17 -48 5 -16 4 -22 -4 -42 -7 -13 -6 -25
2 -42 9 -20 9 -25 3 -40 -14 -33 -13 -29 -13 -86 l1 -53 -6 -6 c-6 -5 -7 -6
-16 -5 -6 0 -17 -1 -26 -2 -9 -1 -20 -2 -24 -3 -22 -3 -34 -10 -40 -24 -3 -7
-5 -14 -5 -17 0 -15 -9 -26 -21 -27 -8 0 -24 6 -29 10 -1 2 -3 3 -4 2 -1 -1
-2 0 -2 1 0 1 -1 4 -3 5 -3 2 -6 12 -3 10 0 0 5 1 9 3 4 2 7 4 5 4 -1 0 -2 2
-2 4 1 1 0 5 -2 7 -1 3 -2 5 -1 5 0 1 -5 1 -12 0 -10 0 -14 0 -15 2 -2 2 -2 2
-2 -1 0 -8 -19 -19 -23 -13 -2 3 -18 13 -28 17 -28 11 -52 -4 -67 -41 -2 -6
-8 -18 -12 -27 -4 -10 -8 -18 -8 -19 0 -3 -20 -41 -24 -44 -9 -8 -17 -9 -79
-17 -3 0 -10 -1 -15 -2 -28 -4 -33 -4 -39 1 -4 4 -4 5 -3 11 1 4 3 8 4 9 3 3
31 10 40 10 1 1 2 1 2 2 0 1 1 2 3 2 4 0 30 28 83 89 32 36 30 35 39 48 21 30
23 36 26 50 3 16 1 23 -8 32 -3 3 -4 6 -3 7 1 0 2 1 1 2 0 1 0 1 2 2 41 3 63
7 74 12 5 2 9 4 11 4 4 0 29 15 37 22 13 13 25 35 25 45 0 11 -6 24 -16 30 -4
2 -35 15 -70 28 -35 13 -71 27 -81 30 -10 4 -19 8 -20 8 -1 0 -4 1 -7 2 -3 2
-26 10 -52 20 -51 19 -56 20 -71 10 -8 -5 -16 -21 -18 -33 -1 -5 -3 -13 -4
-19 -2 -5 -3 -12 -4 -15 -2 -9 -3 -13 -11 -42 -11 -38 -15 -50 -34 -105 -6
-19 -29 -76 -34 -88 -1 -2 -3 -8 -5 -12 -10 -23 -35 -73 -45 -90 -3 -6 -6 -11
-7 -13 -6 -15 -38 -56 -45 -59 -2 -1 -8 -7 -14 -14 -6 -7 -15 -15 -20 -18 -11
-7 -18 -21 -18 -36 0 -9 4 -21 31 -83 17 -40 32 -76 34 -80 8 -16 12 -27 21
-48 13 -30 16 -32 49 -30 5 0 15 16 15 23 0 13 -3 19 -12 30 -12 13 -15 23
-12 35 1 4 2 12 2 18 1 6 2 12 3 13 3 3 10 5 8 3 -1 -1 0 -2 1 -2 1 0 4 -2 6
-4 2 -1 9 -6 15 -9 6 -3 12 -7 14 -10 8 -12 17 -20 28 -22 3 -1 7 -1 8 -2 6
-1 9 -7 8 -13 -2 -7 -15 -27 -38 -55 -4 -6 -10 -13 -13 -17 -3 -4 -6 -8 -7 -9
-10 -11 -23 -27 -25 -30 -4 -8 -2 -26 3 -38 12 -27 0 -39 -28 -28 -4 1 -14 3
-21 3 l-14 0 -17 -15 c-10 -8 -27 -23 -39 -31 -12 -9 -24 -20 -27 -24 -11 -10
-14 -29 -8 -43 7 -15 21 -49 26 -61 3 -7 7 -17 9 -21 2 -4 6 -13 8 -19 2 -6 6
-15 8 -19 9 -22 24 -56 31 -73 10 -24 17 -32 29 -32 11 0 14 -4 19 -26 4 -17
10 -30 18 -36 3 -2 5 -4 5 -5 0 -1 1 -3 3 -5 2 -2 3 -7 3 -13 0 -9 0 -11 -7
-17 -11 -9 -13 -10 -15 -10 -2 0 -17 -16 -20 -22 -1 -3 -7 -18 -13 -35 -9 -27
-10 -31 -9 -40 2 -12 4 -17 6 -17 1 0 2 -1 2 -2 0 -1 3 -5 7 -9 12 -13 12 -35
1 -70 -6 -17 -11 -22 -26 -22 -13 0 -18 4 -25 18 l-6 12 -17 0 -18 1 -10 -22
c-18 -40 -25 -77 -17 -106 3 -12 5 -16 15 -34 5 -9 27 -37 32 -41 7 -7 30 -18
43 -22 23 -7 55 -3 77 9 19 10 40 27 48 38 2 3 6 9 10 13 16 23 33 70 34 91 0
9 5 17 9 17 3 0 5 -3 7 -12 3 -8 7 -16 12 -22 l8 -9 14 0 c9 0 15 1 18 3 4 3
12 17 12 22 0 1 3 5 6 8 14 13 38 4 38 -14 0 -13 8 -32 14 -35 24 -11 62 17
85 63 8 17 18 29 23 29 1 0 7 -4 13 -9 7 -4 18 -11 26 -15 13 -6 15 -7 33 -7
18 0 20 1 33 7 7 3 13 7 13 8 0 6 8 -9 12 -21 6 -16 8 -19 26 -23 11 -3 14 -3
16 -1 1 2 7 3 13 3 10 0 12 -1 17 -6 3 -3 6 -8 6 -10 1 -15 0 -18 -6 -24 -5
-5 -7 -6 -17 -6 -6 0 -12 1 -13 3 -2 2 -5 2 -16 -1 -26 -6 -26 -7 -26 -78 0
-61 1 -65 13 -77 9 -11 22 -14 48 -12 68 4 146 42 166 81 7 14 9 29 9 55 l-1
24 6 6 c6 5 7 6 18 5 14 0 36 9 39 17 3 7 16 19 21 19 4 0 11 -6 11 -11 0 -5
-8 -16 -17 -24 -5 -4 -8 -8 -8 -9 0 -1 0 -6 -2 -11 -4 -14 -4 -54 0 -64 4 -9
14 -21 18 -21 2 0 3 -1 3 -2 0 -5 59 -4 78 2 4 1 10 3 14 3 4 1 17 5 30 9 27
9 32 10 37 8 4 -1 3 -3 -7 -12 -6 -6 -13 -15 -16 -19 -5 -8 -13 -13 -26 -18
-4 -2 -23 -12 -40 -24 -36 -24 -40 -29 -41 -48 0 -19 20 -44 40 -50 13 -4 15
-4 36 1 10 2 19 5 21 5 29 7 51 13 100 28 31 10 95 34 124 47 61 29 94 45 115
59 5 3 9 5 10 5 1 0 13 7 39 24 8 6 15 10 16 10 6 0 10 31 6 46 -4 13 5 22 16
16 20 -11 34 -12 56 -4 10 3 31 7 44 6 12 0 19 -11 31 -47 12 -38 17 -61 22
-103 5 -39 15 -53 48 -69 52 -26 103 -22 151 10 18 13 49 42 52 52 0 1 1 2 2
3 6 4 25 47 29 64 16 72 -14 145 -78 193 -17 13 -47 31 -50 31 -4 0 -12 8 -13
12 -1 5 2 11 7 14 11 6 25 22 30 34 l6 11 1 100 0 99 -5 19 c-6 23 -6 33 0 56
l5 19 0 90 -1 91 -5 9 c-5 8 -19 20 -24 20 0 0 -4 3 -8 7 -9 9 -9 20 1 29 3 3
7 6 8 6 4 0 18 12 23 20 l5 9 1 173 c1 198 -1 179 21 190 30 16 41 28 41 47 0
19 0 19 -53 60 -16 13 -32 25 -35 27 -3 2 -8 6 -11 9 -3 2 -14 11 -25 19 -11
8 -22 17 -26 20 -4 3 -8 6 -10 8 -2 2 -6 5 -9 7 -3 2 -7 5 -8 6 -17 16 -37 26
-48 24 -16 -3 -13 0 -73 -63 -27 -27 -35 -33 -53 -33 -10 0 -14 1 -20 5 -5 4
-6 5 -4 7 3 1 27 30 38 46 2 3 5 7 6 8 1 1 6 7 11 14 5 7 9 12 10 13 3 3 10
15 17 28 8 15 14 24 24 35 5 6 5 6 4 24 0 10 -1 21 -2 24 -3 13 13 20 21 11 2
-3 4 -7 4 -9 0 -2 0 -4 0 -5 0 -1 1 -3 1 -6 2 -9 10 -23 16 -27 5 -4 8 -4 52
-4 l46 0 9 6 c7 5 11 9 16 20 9 19 12 22 22 29 9 6 16 13 24 26 9 15 10 21 9
33 -1 17 -1 17 -9 24 -9 10 -23 16 -45 20 -10 2 -20 5 -22 6 -2 1 -8 10 -13
20 -20 39 -56 58 -91 48 -7 -2 -12 -4 -13 -5 -1 0 -4 -2 -7 -4 -3 -2 -10 -9
-16 -16 -9 -13 -37 -51 -49 -67 -3 -4 -9 -9 -15 -12 l-10 -5 -213 0 c-154 0
-215 -1 -220 -2 -16 -5 -23 -16 -24 -34 -1 -6 13 -52 17 -61 10 -18 30 -28 53
-27 23 2 28 7 31 30 0 3 1 7 2 7 0 1 0 3 -2 4 -5 5 -4 18 2 24 11 12 31 4 31
-13 0 -4 -1 -9 -3 -11 -2 -1 -2 -3 -2 -4 1 0 2 -4 2 -7 3 -29 4 -29 72 -30
l54 -1 5 -5 c5 -5 5 -7 5 -29 1 -13 0 -38 0 -55 -1 -27 -2 -31 -6 -35 l-4 -5
-29 12 c-16 6 -39 16 -52 21 -13 5 -26 10 -29 12 -19 8 -23 10 -34 8 -13 -2
-29 -2 -34 0 -3 1 -9 7 -15 12 -6 6 -18 16 -26 23 -8 7 -23 21 -33 31 -10 11
-21 19 -24 20 -7 2 -25 0 -28 -3 -5 -4 -21 -29 -21 -33 0 -3 -1 -3 -1 -1 -1 2
-3 4 -5 7 -5 5 -6 12 -6 66 0 60 1 63 17 72 10 5 28 24 34 35 7 13 15 35 14
36 0 1 -1 4 -2 8 -2 14 -10 22 -24 28 -7 2 0 2 -138 13 -7 1 -22 2 -35 3 -13
1 -31 2 -40 3 -9 1 -21 2 -26 2 -23 2 -45 3 -49 1z m706 -191 c5 -5 7 -20 3
-27 -4 -7 -16 -11 -25 -8 -10 3 -13 9 -13 21 0 13 6 19 20 19 8 0 11 -1 15 -5z
m-1062 -16 c13 -11 10 -16 -9 -17 -11 0 -13 0 -16 4 -5 6 -5 12 0 18 5 7 14 5
25 -5z m1059 -64 c14 -9 8 -29 -8 -29 -16 0 -22 20 -8 29 4 3 7 5 8 5 1 0 4
-2 8 -5z m-613 -18 c5 -8 1 -16 -8 -16 -9 0 -13 8 -8 16 2 3 5 5 8 5 3 0 6 -2
8 -5z m-320 -131 c3 -4 3 -5 -1 -9 l-5 -5 -4 4 -5 5 4 4 c6 6 7 6 11 1z m643
-29 c1 -3 2 -32 2 -100 0 -60 1 -99 2 -103 5 -17 23 -29 48 -30 1 0 5 -3 8 -6
5 -5 6 -7 6 -18 0 -11 -1 -13 -6 -18 -3 -3 -7 -6 -9 -6 -24 -2 -27 1 -46 26
-7 10 -38 38 -69 64 -4 4 -11 11 -15 16 -4 5 -8 9 -9 9 0 0 -3 0 -6 1 -12 5
-31 -1 -36 -11 -2 -3 -7 -12 -12 -20 -6 -9 -10 -17 -10 -19 0 -2 -1 -2 -1 0
-1 2 -4 4 -6 6 -4 4 -4 5 -5 84 0 45 0 89 -1 99 0 17 0 18 6 24 l6 6 59 -1
c59 0 77 1 83 7 2 3 6 -1 11 -10z m-441 -122 l0 -114 -6 -6 -6 -6 -64 1 c-68
0 -75 0 -86 -9 -6 -5 -11 -15 -11 -27 -1 -6 13 -52 17 -60 5 -11 16 -20 27
-24 10 -4 16 -4 271 -4 258 0 261 0 272 4 7 2 14 5 15 6 5 3 17 2 20 0 3 -4 3
-13 -2 -30 -3 -13 -4 -22 -4 -57 0 -42 0 -42 -5 -49 -3 -4 -5 -9 -5 -10 0 -2
-1 -2 -2 -1 -1 2 -8 3 -8 1 0 -1 -2 -1 -4 -1 -2 0 -4 0 -4 -1 0 -1 -1 -2 -3
-2 -3 0 -12 -18 -14 -25 -1 -4 -6 -11 -9 -11 -11 0 -19 25 -14 47 5 25 0 42
-16 53 -5 4 -9 7 -10 8 -1 1 -5 4 -11 8 -5 4 -10 8 -11 8 -1 1 -6 5 -13 10 -7
4 -16 11 -20 14 -6 5 -9 6 -19 6 -20 0 -18 2 -62 -46 -13 -13 -24 -26 -26 -28
-2 -2 -9 -6 -15 -9 -19 -9 -70 -6 -96 5 -8 3 -76 31 -101 41 -13 5 -26 10 -29
12 -34 15 -47 16 -60 4 -9 -8 -11 -16 -11 -39 0 -15 -1 -20 -4 -25 -2 -3 -4
-5 -4 -4 0 1 -1 0 -2 -3 l-2 -5 0 5 c0 2 -2 7 -4 10 -3 3 -8 9 -11 13 -18 23
-37 42 -81 78 -4 3 -18 13 -33 22 -14 10 -26 19 -28 22 -6 9 -3 13 34 52 3 3
13 14 21 23 8 9 17 19 20 22 3 3 11 12 18 20 7 8 14 16 15 17 2 2 8 10 32 38
7 8 15 18 18 22 12 16 19 20 43 23 9 1 20 4 27 7 12 6 32 23 36 31 4 8 4 28
-1 35 -3 6 -39 33 -51 40 l-5 2 8 5 c6 5 9 5 37 6 l30 1 6 -6 6 -6 0 -114z
m-195 37 c11 -5 16 -12 16 -25 0 -13 -3 -17 -15 -22 -15 -5 -31 -15 -41 -24
-11 -11 -13 -12 -26 -12 -18 0 -26 7 -27 24 0 17 2 20 19 32 8 7 18 15 22 18
15 15 32 17 52 9z m-442 -1 c7 -3 11 -15 17 -46 1 -3 2 -7 3 -10 1 -3 1 -5 1
-5 -1 0 1 -4 3 -8 5 -10 10 -30 10 -43 0 -10 -2 -27 -3 -29 -3 -2 -16 8 -26
19 -2 3 -5 12 -6 21 -5 24 -10 33 -29 48 -4 3 -10 9 -11 13 -4 8 -4 24 0 32 6
12 26 16 41 8z m1453 -4 l6 -6 0 -80 0 -80 -6 -6 -6 -6 -47 0 -47 0 -6 6 -6 6
0 80 0 80 6 6 6 6 47 0 47 0 6 -6z m-226 -13 c10 -9 3 -26 -10 -26 -8 0 -15 7
-15 15 0 13 16 20 25 11z m413 -26 c1 0 5 -3 8 -6 5 -5 6 -7 6 -18 0 -11 -1
-13 -6 -18 -6 -6 -7 -6 -18 -6 -11 0 -12 0 -18 6 -5 5 -6 7 -6 17 0 14 3 20
12 24 5 2 8 2 22 1z m-824 -54 c5 -5 6 -7 6 -17 0 -12 -4 -22 -9 -22 -16 -3
-25 -1 -31 5 -5 5 -6 7 -6 17 0 16 7 23 23 23 10 0 12 -1 17 -6z m58 -65 c0
-2 2 -3 3 -3 10 -1 11 -6 5 -19 -5 -11 -11 -15 -23 -15 -14 0 -19 6 -19 21 0
11 3 17 10 19 4 2 22 -1 24 -3z m516 -84 c6 -3 11 -8 13 -15 3 -9 13 -29 17
-33 5 -4 26 -13 26 -11 0 1 2 0 5 -3 4 -4 7 -5 14 -5 4 1 8 1 9 2 1 1 3 2 5 2
2 1 5 2 7 4 1 1 5 2 7 1 3 0 5 1 6 3 1 6 11 4 15 -2 2 -5 2 -6 -1 -11 -4 -6
-12 -7 -15 0 -1 2 -2 3 -2 2 0 -2 -2 -3 -3 -3 -16 0 -26 -5 -31 -14 -4 -7 -4
-13 -3 -83 l0 -76 -6 -6 -6 -6 -47 0 -47 0 -6 6 c-5 5 -6 7 -6 15 1 5 1 52 2
104 1 100 2 113 11 123 7 8 24 11 36 6z m-178 -28 c14 -8 32 -11 45 -8 19 5
29 -3 29 -20 0 -22 -19 -28 -40 -15 -14 9 -28 12 -47 11 -16 -1 -17 -1 -22 4
-4 4 -5 7 -5 15 0 21 16 26 40 13z m-927 -38 c2 -1 7 -12 12 -25 12 -33 12
-34 -36 -41 -39 -6 -53 -7 -59 -3 l-4 4 7 6 c15 13 18 17 38 35 32 30 33 30
42 24z m54 -140 c3 -3 3 -3 0 -6 -4 -5 -11 1 -7 6 4 4 4 4 7 0z m172 -19 c7
-12 1 -26 -11 -26 -15 0 -19 16 -7 27 8 8 13 7 18 -1z m1092 -37 c12 -12 3
-31 -13 -31 -11 0 -18 7 -18 18 0 11 7 18 18 18 6 0 9 -1 13 -5z m-472 -10 c4
-3 5 -7 5 -12 0 -12 -4 -16 -20 -21 -16 -5 -25 -11 -31 -20 -4 -7 -4 -9 -5
-197 0 -207 -1 -196 11 -206 6 -6 24 -10 38 -9 11 0 14 -1 30 -17 6 -6 16 -14
22 -18 15 -10 17 -13 17 -24 0 -7 -1 -11 -4 -13 -4 -4 -25 -14 -29 -14 -2 0
-3 -1 -3 -2 0 -1 -1 -2 -3 -2 -4 0 -14 -8 -25 -22 -16 -19 -64 -68 -67 -68 -2
0 -5 1 -7 2 -3 2 -3 20 -2 305 l0 304 5 9 c3 5 6 10 7 9 1 0 8 4 15 8 24 14
37 17 46 8z m-324 -6 l6 -6 0 -235 0 -235 -6 -6 c-6 -6 -7 -6 -27 -6 -20 0
-21 0 -27 6 l-6 6 0 235 0 235 6 6 c6 6 6 6 27 6 20 0 21 0 27 -6z m-469 -6
c1 -3 3 -19 3 -35 1 -36 4 -50 11 -61 10 -15 8 -19 -13 -22 -12 -1 -18 -5 -27
-13 -8 -9 -11 -27 -6 -38 2 -4 7 -16 11 -27 8 -21 17 -39 24 -47 12 -13 13
-19 13 -47 0 -14 1 -30 2 -35 2 -10 1 -22 -5 -29 -2 -3 -3 -3 -14 3 -21 11
-22 12 -21 41 0 9 -1 17 -2 19 -2 3 -3 5 -2 6 3 5 -48 60 -59 63 -9 3 -28 -1
-38 -6 -17 -10 -36 -7 -48 7 -4 5 -3 12 1 23 2 5 1 15 -4 28 -2 5 -3 5 -14 5
-16 0 -26 -11 -26 -28 0 -9 4 -18 6 -17 1 1 2 0 2 -1 0 -1 1 -2 2 -1 2 1 6
-10 5 -12 -4 -3 -1 -36 8 -79 1 -3 1 -9 2 -14 1 -5 2 -12 2 -16 5 -34 7 -131
4 -148 0 -2 -1 -13 -2 -24 -1 -15 -2 -20 -4 -20 -2 0 -3 1 -2 3 1 2 1 2 -1 0
-5 -5 -5 -4 -9 14 -4 24 -5 28 -2 49 2 10 2 19 2 20 0 0 -1 6 -2 13 -5 45 -37
163 -52 197 -2 4 -6 13 -9 21 -7 17 -18 33 -21 32 -4 -1 -9 5 -9 11 0 13 -1
12 68 51 27 15 53 29 58 32 15 9 23 13 34 20 6 3 16 9 22 12 5 4 10 7 11 7 1
0 6 3 12 7 6 4 11 7 12 7 0 0 10 6 22 13 12 7 22 13 22 13 1 0 6 3 11 7 12 7
17 6 22 -4z m207 -34 c-5 -6 -7 -6 -12 0 -3 5 -3 5 1 10 l5 5 5 -5 c4 -5 4 -5
1 -10z m114 -15 c8 -8 7 -20 -3 -30 -21 -21 -35 -30 -50 -30 -15 0 -22 7 -22
23 0 13 4 18 18 26 31 15 49 18 57 11z m-226 -19 c3 -3 3 -3 0 -6 -4 -5 -11 1
-7 6 4 4 4 4 7 0z m1020 -30 l6 -6 -1 -50 c0 -58 1 -62 15 -70 8 -4 22 -8 26
-7 14 4 25 -5 25 -19 0 -14 -11 -23 -25 -19 -4 1 -20 -3 -26 -7 -3 -2 -9 -5
-13 -7 -4 -1 -8 -4 -10 -6 -3 -3 -9 -3 -50 -3 l-47 0 -6 6 -6 6 0 88 0 88 6 6
6 6 47 0 47 0 6 -6z m-943 -14 c3 -6 3 -109 0 -116 -4 -7 -10 -14 -10 -10 0 7
-52 59 -81 81 -10 8 -19 16 -19 17 0 5 8 7 21 6 15 -2 32 2 50 11 14 7 29 18
29 22 0 3 6 -4 10 -11z m739 -211 c5 -5 6 -7 6 -16 0 -15 -8 -23 -23 -23 -9 0
-11 1 -16 7 -9 8 -9 23 -1 32 9 9 24 9 34 0z m224 -60 c2 -3 3 -8 3 -15 0 -15
-4 -19 -23 -22 -41 -7 -43 -9 -46 -46 0 -8 0 -8 -7 -8 -4 0 -14 4 -22 8 -8 4
-18 9 -21 11 -8 4 -13 9 -16 18 -3 8 -2 11 5 17 5 5 8 5 30 6 30 0 36 3 54 22
8 10 13 14 18 15 9 2 20 -1 25 -6z m-516 -39 c12 -7 14 -33 3 -44 -5 -5 -32
-11 -36 -9 -12 6 -15 40 -4 51 7 7 27 8 37 2z m659 -55 c9 -6 11 -14 8 -27 -3
-15 -9 -19 -25 -19 -11 0 -14 1 -18 5 -6 4 -6 6 -6 20 0 14 0 16 6 20 7 7 26
7 35 1z m-99 -19 c6 -4 6 -6 6 -20 0 -14 0 -16 -6 -20 -10 -9 -39 -5 -42 5 -1
2 -2 4 -3 4 -3 0 -4 12 -1 20 5 11 13 16 28 16 11 0 14 -1 18 -5z m-608 -1 c3
-4 4 -8 4 -22 0 -18 0 -19 -6 -23 -8 -7 -32 -7 -38 0 -7 6 -6 33 0 39 9 9 34
12 40 6z m-242 -85 c12 -12 3 -31 -13 -31 -11 0 -18 7 -18 18 0 11 7 18 18 18
6 0 9 -1 13 -5z m-606 -12 c4 -4 5 -7 5 -15 0 -14 -6 -20 -20 -20 -14 0 -20 6
-20 20 0 14 6 20 20 20 8 0 11 -1 15 -5z m1658 -35 c5 -5 6 -7 6 -16 0 -15 -8
-23 -23 -23 -9 0 -11 1 -16 7 -9 8 -9 23 -1 32 9 9 24 9 34 0z m-665 -31 c1
-2 3 -7 4 -10 1 -3 6 -10 10 -15 14 -16 9 -34 -9 -34 -8 0 -9 1 -19 12 -9 10
-12 12 -19 13 -15 2 -17 3 -17 7 0 6 13 18 31 27 13 7 15 7 19 0z m575 -41 c5
-7 4 -29 -4 -55 -4 -11 -8 -16 -15 -16 -10 0 -17 16 -19 48 -1 16 -1 19 2 23
8 9 28 9 36 0z m-628 -57 c4 -5 4 -11 -1 -17 -11 -13 -29 5 -19 19 5 5 14 5
20 -2z"/>
</g>
</svg>
