<?xml version="1.0" standalone="no"?>
<!DOCTYPE svg PUBLIC "-//W3C//DTD SVG 20010904//EN"
 "http://www.w3.org/TR/2001/REC-SVG-20010904/DTD/svg10.dtd">
<svg version="1.0" xmlns="http://www.w3.org/2000/svg"
 width="1105.000000pt" height="2870.000000pt" viewBox="0 0 1105.000000 2870.000000"
 preserveAspectRatio="xMidYMid meet">
<metadata>
Created by potrace 1.15, written by Peter Selinger 2001-2017
</metadata>
<g transform="translate(0.000000,2870.000000) scale(0.500000,-0.500000)"
fill="#000000" stroke="none">
<path d="M564 3852 c-12 -4 -25 -13 -23 -16 1 -1 0 -2 -1 -2 -5 0 -6 -19 -6
-106 l1 -89 -6 -6 -6 -6 -42 1 c-41 0 -42 0 -52 -5 -9 -4 -13 -8 -18 -17 -11
-17 -17 -22 -25 -22 -8 0 -14 5 -25 22 -5 9 -9 13 -17 17 l-11 5 -89 0 c-83 0
-89 0 -106 -4 -17 -5 -32 -5 -57 0 -9 1 -10 1 -16 -5 -4 -3 -5 -6 -3 -6 1 -1
2 -5 2 -12 0 -9 -1 -11 -3 -11 -4 0 3 -4 17 -11 10 -5 27 -9 39 -9 13 0 19 -5
19 -17 0 -4 -1 -7 -2 -8 -2 -1 2 -26 6 -31 5 -7 14 -10 34 -10 17 0 27 3 36
11 5 4 16 26 16 31 0 2 3 6 6 9 5 5 8 6 16 6 8 0 11 -1 16 -6 3 -3 6 -7 6 -9
0 -6 12 -27 18 -33 7 -6 20 -10 28 -8 5 1 4 1 111 0 l75 -1 18 6 c21 7 25 7
29 3 5 -4 2 -15 -6 -29 -12 -19 -6 -35 17 -46 10 -5 18 -13 18 -18 0 -6 -16
-20 -30 -27 -15 -8 -24 -9 -28 -4 -3 3 -13 8 -18 9 -2 1 -3 1 -4 2 -1 1 -5 3
-11 5 -10 4 -16 8 -14 10 1 0 0 1 -1 2 -3 2 -3 -16 0 -21 2 -4 2 -4 0 -3 -2 1
-3 1 -1 -1 5 -6 -1 -27 -8 -29 -22 -5 -33 2 -33 19 0 13 2 16 12 23 l9 5 -1
17 c0 13 -1 17 -3 17 -1 0 -3 1 -3 2 -1 3 -18 3 -40 1 -19 -2 -19 -1 -48 15
-21 11 -54 15 -74 8 -23 -8 -32 -17 -33 -34 -1 -13 1 -17 11 -31 18 -22 31
-42 45 -67 16 -30 17 -31 57 -31 30 0 43 -3 63 -14 16 -8 16 -40 0 -48 -7 -4
-24 -4 -33 0 -11 4 -29 1 -35 -6 -6 -9 -7 -18 -3 -39 6 -33 8 -46 5 -48 -3 -2
-5 -14 -2 -20 1 -3 2 -7 2 -9 1 -2 2 -6 4 -9 3 -5 3 -7 1 -8 -1 -1 1 -2 6 -3
4 0 8 -2 8 -3 1 0 10 -7 21 -15 20 -14 22 -15 34 -30 4 -5 10 -11 14 -13 6 -4
28 -10 36 -10 2 0 13 -3 25 -6 19 -5 24 -6 48 -6 24 0 27 -1 40 -5 8 -3 13 -6
13 -7 -2 -3 12 -12 18 -13 4 -1 15 -1 24 0 23 2 29 2 34 -2 6 -4 6 -12 2 -22
-3 -9 -8 -11 -24 -12 -7 -1 -19 -3 -27 -5 -25 -8 -44 -7 -51 4 -3 3 -18 5 -27
3 -7 -2 -7 -2 -7 -12 1 -15 1 -18 7 -22 17 -13 22 -21 22 -36 0 -15 -16 -22
-30 -14 -6 5 -22 19 -22 22 0 2 -16 24 -22 29 -13 11 -17 12 -73 12 -66 0 -73
-2 -84 -25 -8 -16 -6 -31 6 -60 5 -13 10 -16 28 -16 14 0 14 0 21 8 12 11 29
10 42 -3 9 -9 26 -15 45 -17 6 -1 18 -3 28 -6 10 -3 24 -5 31 -5 12 0 24 -4
24 -8 0 -1 2 -2 3 -2 3 0 3 0 0 -3 -2 -1 -11 -13 -20 -26 -20 -29 -23 -31 -59
-33 -36 -3 -43 -6 -63 -33 l-11 -15 0 -15 c0 -15 2 -20 10 -28 2 -3 4 -6 4 -7
0 -2 13 -15 18 -18 6 -3 21 -3 25 1 4 5 9 13 10 21 1 4 2 7 3 8 1 0 1 2 0 5
-1 8 7 15 16 15 9 0 17 -7 16 -15 -1 -3 -1 -5 0 -5 1 -1 2 -4 3 -8 3 -17 16
-29 29 -27 10 1 22 7 29 13 8 7 18 11 33 11 20 1 29 -1 56 -15 21 -10 23 -11
39 -12 27 -1 39 7 42 26 2 11 2 12 7 12 3 0 4 -1 4 -4 1 -23 14 -31 38 -24 9
3 23 19 31 35 7 14 8 19 4 35 -2 10 -39 49 -50 51 -3 1 -6 2 -7 2 -1 0 -5 2
-10 3 -10 3 -21 10 -21 14 0 1 -1 2 -1 3 0 1 -1 2 -1 3 0 0 -1 4 -2 8 -1 3 -5
9 -9 14 -7 7 -8 9 -5 18 1 4 14 10 22 10 4 0 14 0 23 -1 21 -2 28 0 39 10 9 9
11 9 30 -8 7 -6 16 -10 40 -19 18 -7 33 -7 51 -1 11 4 19 2 40 -8 7 -3 14 -4
34 -5 23 0 25 0 35 5 9 4 13 8 19 17 11 20 16 24 26 24 10 0 15 -4 26 -23 18
-29 45 -30 108 -8 8 3 16 7 18 9 2 2 2 2 2 0 0 -2 1 -2 2 -1 0 1 4 2 7 2 13 0
43 6 55 10 20 8 35 13 39 13 17 2 25 -5 25 -20 0 -13 -2 -16 -15 -25 -10 -7
-19 -16 -19 -20 0 -1 -2 -6 -4 -11 -2 -4 -4 -10 -4 -12 0 -2 -2 -6 -5 -9 -7
-7 -16 -7 -35 3 -27 14 -38 17 -56 16 -20 -1 -27 -4 -41 -20 -16 -16 -19 -23
-22 -57 -1 -6 -2 -13 -3 -15 -8 -15 -35 -13 -52 3 -10 9 -50 29 -59 29 -1 0
-6 2 -12 5 -40 19 -64 20 -76 5 -3 -4 -4 -11 -1 -13 4 -3 3 -13 -1 -18 -5 -5
-15 -7 -15 -3 0 3 -8 -1 -13 -7 -4 -4 -9 -19 -8 -21 1 -1 1 -7 1 -14 0 -14 0
-15 -16 -27 -15 -10 -15 -11 -21 -23 -5 -9 -5 -11 -5 -53 0 -60 -3 -66 -28
-63 -12 2 -30 13 -47 30 -11 10 -27 23 -42 33 -12 8 -28 7 -38 -3 -4 -4 -7 -8
-7 -8 0 -2 -8 -14 -10 -16 -1 -1 -2 -4 -4 -8 -1 -3 -3 -6 -4 -5 0 0 -2 0 -4
-2 -2 -1 -2 -1 -1 0 0 2 -1 3 -4 4 -5 1 -8 3 -16 10 -4 4 -5 7 -5 15 0 13 1
15 14 24 12 8 12 9 13 28 1 13 1 14 -3 15 -19 6 -26 6 -42 1 -8 -3 -20 -6 -28
-6 -23 -1 -33 -5 -48 -20 -15 -14 -18 -20 -30 -55 -10 -30 -11 -41 -10 -163 0
-89 1 -94 10 -102 4 -4 28 -10 31 -8 1 1 6 5 12 8 5 4 11 9 12 12 4 7 4 26 1
32 -1 2 -2 7 -3 11 -2 14 6 21 26 24 3 0 17 4 30 8 25 8 28 8 34 2 3 -3 3 -6
3 -17 -1 -12 -2 -15 -10 -27 -18 -26 -19 -30 -19 -67 0 -33 -2 -42 -8 -42 -3
0 -15 6 -17 9 -1 1 -3 1 -4 2 -2 0 -4 1 -5 2 -1 0 -7 1 -13 2 -6 1 -12 2 -13
2 -2 0 -3 0 -3 -1 -1 -3 -23 -3 -23 -1 -2 4 -28 -3 -32 -8 -6 -6 -10 -18 -9
-25 1 -3 -1 -7 -5 -11 l-6 -6 -49 1 c-32 0 -52 -1 -58 -2 -17 -4 -33 -5 -41
-1 -4 2 -7 4 -6 5 1 1 -1 2 -3 3 -2 1 -3 2 -3 3 1 2 2 19 2 38 0 41 -1 39 20
49 25 12 27 18 27 83 -1 42 -2 52 -4 58 -2 4 -4 9 -5 11 0 1 -3 4 -4 4 -8 2
-29 14 -30 17 -1 1 -2 2 -3 1 -2 -1 -2 -1 -2 0 1 1 1 3 0 6 -5 14 19 25 30 14
7 -7 10 -11 10 -13 0 -1 1 -3 3 -4 2 -1 3 -3 2 -4 -2 -3 5 -10 10 -9 3 0 5 0
5 -1 0 -1 3 -3 7 -4 11 -3 24 1 42 12 21 14 30 25 31 40 1 14 -3 20 -25 43
-20 20 -32 26 -59 28 -18 1 -35 5 -56 14 -21 9 -24 9 -49 11 -19 1 -24 2 -26
5 -1 1 -3 3 -5 3 -1 0 -2 2 -3 5 -1 6 -15 14 -42 25 -12 5 -28 11 -36 15 -13
5 -20 6 -31 4 -7 -1 -16 -9 -20 -18 -6 -12 -6 -175 -1 -191 6 -19 27 -34 43
-30 7 2 11 0 15 -9 2 -4 2 -7 1 -10 -2 -2 -3 -6 -3 -10 -2 -8 -4 -12 -13 -23
-9 -11 -12 -19 -12 -33 0 -10 0 -10 23 -31 13 -12 36 -21 60 -24 29 -4 27 -3
40 -18 11 -11 17 -26 20 -45 1 -5 2 -9 3 -9 1 0 2 -1 1 -2 -1 -1 0 -2 2 -2 3
0 3 -8 -1 -10 -1 0 -3 -5 -6 -9 -6 -12 -25 -27 -34 -27 -4 0 -26 -7 -32 -10
-3 -1 -10 -7 -16 -12 -15 -13 -35 -15 -46 -5 -5 5 -9 18 -7 27 2 13 8 18 27
22 28 6 46 17 46 27 0 18 -8 32 -26 43 -2 2 -6 4 -9 6 -2 2 -7 4 -11 6 -4 1
-12 5 -19 9 -10 5 -14 5 -24 4 -12 -1 -21 -5 -23 -12 0 -2 -1 -68 -1 -146 -1
-126 -1 -143 2 -150 4 -9 14 -21 18 -21 2 0 3 -1 3 -2 0 -6 67 -3 82 4 l7 3 1
16 0 16 -8 9 c-10 10 -11 19 -3 26 9 8 27 2 46 -17 9 -9 11 -10 21 -11 11 -1
27 2 35 7 2 1 11 5 20 8 21 7 28 14 35 35 4 14 4 15 1 25 -3 11 -13 27 -22 37
-10 12 -22 28 -25 34 -3 6 -2 7 3 11 5 5 5 5 14 2 4 -2 11 -5 14 -7 7 -4 28
-6 34 -4 5 3 23 4 30 1 8 -4 12 -8 17 -23 7 -22 13 -29 25 -35 7 -3 13 -5 17
-5 5 1 8 0 13 -4 3 -4 6 -6 7 -6 1 0 1 -2 1 -3 0 -2 1 -8 2 -12 2 -5 3 -14 4
-20 2 -22 11 -38 24 -43 8 -3 28 -2 42 1 14 4 22 8 38 24 13 12 17 13 31 9 39
-11 40 -11 70 4 48 23 62 50 38 74 -5 5 -13 12 -17 15 -13 10 -14 34 -2 45 8
7 14 21 16 42 l1 6 -10 0 c-7 0 -10 1 -10 3 0 1 -1 0 -2 -2 -3 -7 -11 -6 -15
0 -3 5 -3 6 -1 11 4 7 14 8 15 2 1 -3 2 -3 4 -2 1 1 6 2 11 3 19 2 26 12 25
35 0 8 -1 17 -2 19 0 2 -3 12 -5 21 l-4 17 4 17 c2 9 5 19 5 21 3 10 3 35 0
51 -4 21 -4 24 2 28 4 3 5 3 12 0 5 -2 10 -6 12 -8 3 -3 6 -4 18 -4 13 0 15 1
19 5 11 12 20 17 30 17 19 0 28 -10 28 -30 1 -11 -3 -16 -13 -23 -6 -4 -6 -4
-7 -23 0 -15 0 -18 3 -18 1 0 4 -3 7 -6 5 -10 3 -25 -6 -32 -5 -3 -21 -28 -23
-34 -5 -18 -2 -31 8 -40 4 -3 8 -5 8 -5 1 0 5 -1 8 -3 6 -2 12 -4 20 -4 6 0
13 -9 13 -18 0 -9 -7 -18 -13 -18 -8 0 -14 -2 -20 -4 -3 -2 -6 -3 -7 -3 -11
-3 -12 -5 -12 -19 1 -13 2 -14 11 -24 18 -20 18 -30 -1 -51 -17 -18 -18 -26
-18 -75 1 -49 3 -55 24 -67 6 -3 11 -4 34 -4 26 0 27 0 36 5 16 10 21 29 10
45 -14 21 -20 35 -21 54 0 10 -1 20 -2 23 -3 15 -6 25 -7 27 -5 8 1 23 12 30
4 3 8 6 9 7 1 1 5 3 8 5 3 2 9 7 12 10 13 13 25 17 33 9 8 -8 4 -21 -12 -38
-5 -5 -18 -28 -22 -38 -1 -5 -3 -15 -3 -22 0 -12 0 -13 8 -19 9 -8 27 -14 38
-12 4 0 16 4 27 7 25 8 36 8 49 -1 17 -12 42 -10 46 4 1 5 4 8 11 12 l10 5 84
0 c70 0 89 1 106 3 20 3 24 3 40 1 11 -2 25 -3 32 -3 11 0 13 -1 19 -6 l6 -6
0 -22 c-1 -29 0 -29 22 -31 l17 -1 6 16 c3 9 8 22 10 29 6 16 12 21 26 21 11
0 19 -5 22 -12 1 -2 3 -9 6 -15 2 -6 4 -12 5 -13 1 -6 24 -25 34 -29 24 -9 33
-8 67 8 21 10 27 15 37 28 10 13 11 16 12 42 1 16 2 20 7 27 5 8 8 27 5 34 -1
2 -1 4 -1 5 0 1 -3 4 -6 7 -13 14 -12 34 3 50 15 15 17 18 21 29 4 11 4 17 4
169 0 115 1 160 2 165 3 8 -1 41 -5 47 -4 6 -4 24 1 29 6 7 25 10 33 6 10 -6
21 -5 23 3 1 3 1 5 0 5 -1 0 -2 1 -2 3 0 2 -4 7 -8 12 -4 4 -9 10 -11 14 -1 3
-8 10 -16 16 -8 5 -16 12 -19 14 -3 3 -6 5 -6 5 -1 0 -3 2 -6 4 -3 2 -9 7 -13
11 -5 3 -12 8 -15 11 -3 2 -11 8 -19 14 -13 8 -15 9 -27 9 -19 0 -30 -8 -33
-24 0 -2 -1 -4 -1 -4 -1 0 -2 -8 -3 -21 -1 -10 -3 -15 -9 -25 -4 -7 -10 -17
-13 -22 -9 -16 -17 -22 -30 -21 -23 0 -34 9 -34 31 1 16 6 25 17 31 9 6 17 14
19 23 2 6 2 29 0 37 -1 5 0 7 5 10 18 14 20 16 20 31 0 13 0 14 -6 19 -5 3 -8
4 -20 4 l-13 -1 -13 -13 c-8 -8 -17 -16 -21 -19 -13 -7 -14 -10 -14 -27 0 -10
1 -17 4 -21 5 -10 5 -22 -1 -28 -5 -4 -16 -5 -26 0 -4 1 -11 3 -16 4 -5 1 -11
2 -14 2 -3 1 -10 0 -16 -2 -6 -1 -22 -3 -36 -3 -35 0 -45 -3 -60 -19 -8 -8 -9
-25 -1 -37 3 -4 6 -8 7 -8 1 0 3 -1 5 -3 8 -8 27 -10 39 -5 3 1 8 6 11 11 11
20 18 23 32 15 12 -7 25 -28 25 -41 1 -3 -3 -16 -7 -28 -7 -23 -7 -23 -4 -32
3 -10 8 -18 12 -22 15 -15 14 -35 -1 -52 -4 -4 -15 -31 -13 -31 0 0 -2 -3 -6
-6 -4 -5 -7 -7 -11 -6 -16 2 -31 -7 -38 -23 -2 -5 -4 -10 -4 -11 0 0 -3 -4 -6
-7 l-5 -5 -7 7 c-7 7 -7 7 -23 7 -18 0 -19 0 -24 -10 -8 -15 -19 -23 -49 -31
-14 -4 -16 -7 -17 -25 l0 -14 8 -3 c24 -8 28 -9 59 -9 45 0 56 4 72 26 13 17
14 18 30 18 25 1 37 -8 45 -32 9 -24 7 -37 -7 -50 -2 -2 -6 -8 -10 -15 l-7
-12 0 -36 0 -36 -6 -6 -6 -6 -35 1 c-33 0 -37 0 -55 -5 -24 -6 -26 -6 -49 0
-33 9 -49 6 -68 -13 -14 -13 -24 -18 -35 -17 -27 1 -45 27 -45 64 0 48 -29 62
-63 31 -21 -20 -51 -17 -57 7 -3 11 -2 16 7 34 8 17 11 36 8 55 -3 16 -4 19
-11 27 -7 6 -7 6 -28 8 -18 2 -22 5 -27 19 -5 15 -12 31 -17 37 -11 11 -14 17
-14 26 0 13 6 19 19 19 9 0 20 -6 18 -10 -1 -1 0 -2 1 -3 1 -1 5 -7 8 -14 3
-7 9 -15 14 -20 5 -4 10 -10 12 -12 21 -24 24 -26 38 -28 8 -1 11 0 27 8 30
15 38 11 30 -19 -1 -5 -3 -16 -4 -23 -1 -7 -2 -13 -3 -13 -1 0 -3 -1 -5 -2 -1
-1 -7 -6 -13 -10 l-10 -9 0 -14 c1 -12 2 -14 7 -18 8 -6 25 -6 32 2 9 9 13 20
14 35 0 10 13 16 35 17 10 0 21 1 26 3 16 4 37 31 38 47 1 13 0 26 -3 32 -1 5
-2 8 -2 9 0 3 -8 12 -15 16 -8 4 -11 5 -30 5 -20 0 -21 0 -27 6 l-6 6 1 36 c0
20 -1 38 -2 41 -1 3 -4 14 -7 25 -3 11 -8 28 -11 38 -9 27 -10 32 -8 41 3 15
17 22 35 18 11 -2 16 -9 18 -22 3 -21 12 -40 18 -40 2 0 3 -1 3 -2 0 -4 17 -6
50 -6 33 0 36 0 45 5 9 4 19 14 19 18 0 1 1 3 2 5 4 3 3 11 -2 21 -7 14 -14
18 -39 18 -29 2 -34 6 -33 30 1 9 2 12 6 16 8 7 73 27 96 30 26 3 46 12 64 29
7 6 18 17 26 24 33 29 31 26 32 42 0 12 0 14 -6 24 -14 27 -1 42 27 29 29 -13
31 -13 50 -4 22 11 31 24 31 43 0 11 -7 19 -19 21 -15 4 -21 5 -26 4 -9 -2
-21 4 -23 10 -8 20 1 37 18 38 6 0 14 -3 22 -6 23 -10 34 -11 58 -9 16 2 21 2
23 0 5 -4 7 -11 5 -19 -1 -5 0 -13 2 -25 4 -20 5 -44 1 -45 -2 -1 -2 -5 -1
-12 4 -27 5 -27 65 -28 45 -1 49 0 70 4 l22 5 22 -5 c23 -5 45 -7 61 -3 10 3
15 7 18 15 3 7 4 25 2 24 -1 -1 -2 0 -2 1 -1 1 -8 3 -16 4 -26 3 -33 9 -33 29
0 12 3 17 12 27 7 8 10 18 8 29 -1 3 -1 7 -1 9 -1 2 -5 6 -58 45 -31 23 -35
26 -46 37 -8 9 -17 14 -23 15 -5 0 -6 11 -1 21 3 5 5 10 6 10 1 0 3 3 5 7 2 3
5 7 6 8 1 2 9 13 17 25 17 27 23 31 42 33 30 3 51 16 69 42 7 10 7 11 7 23 -2
23 3 19 -126 84 -105 53 -117 58 -126 58 -11 0 -20 -4 -44 -17 -22 -12 -29
-19 -37 -35 -14 -27 -23 -29 -48 -13 -8 6 -15 11 -15 11 0 1 -2 2 -5 3 -2 0
-6 2 -8 4 -2 2 -9 8 -16 13 -7 5 -15 13 -19 16 -8 8 -13 9 -33 8 -6 0 -26 -17
-28 -25 -1 -2 -6 -10 -12 -18 -9 -12 -10 -13 -9 -24 0 -7 1 -14 2 -16 3 -4 14
-15 16 -15 2 0 8 -12 8 -17 2 -18 -15 -24 -35 -13 -9 5 -19 7 -33 6 -12 0 -16
-22 -8 -39 4 -9 21 -27 32 -35 8 -6 16 -14 24 -24 9 -12 26 -18 49 -18 18 0
21 -1 30 -6 6 -3 10 -6 11 -8 0 -3 6 -9 22 -23 11 -9 12 -33 2 -44 -7 -8 -24
-11 -38 -5 -10 5 -22 5 -31 1 -8 -4 -9 -12 -4 -31 4 -19 4 -26 -4 -43 -3 -9
-9 -22 -11 -30 -7 -20 -15 -24 -37 -14 -11 5 -33 12 -44 14 -4 1 -12 5 -16 7
-1 1 -5 4 -8 7 -3 2 -8 5 -11 7 -3 1 -7 5 -9 9 -3 6 -3 7 0 12 5 6 6 6 16 2 9
-4 28 -3 35 1 7 5 10 16 10 36 0 31 -7 45 -29 56 -21 11 -25 25 -11 52 12 24
10 38 -6 73 -12 25 -36 51 -57 61 -12 6 -13 6 -23 4 -13 -3 -25 -9 -28 -14 -3
-6 -2 -20 2 -33 10 -27 6 -39 -11 -39 -9 0 -17 6 -17 12 0 5 -9 31 -13 37 -2
3 -7 9 -10 13 -4 4 -7 8 -7 9 0 2 -1 3 -2 3 -1 0 -2 1 -2 2 0 8 -22 20 -37 20
-3 0 -19 -10 -19 -12 0 -1 -2 -2 -4 -2 -2 0 -4 -1 -5 -2 -1 -1 -6 -3 -12 -5
-9 -2 -23 -3 -85 -3 -77 0 -81 0 -94 -9 -5 -4 -6 -6 -6 -12 1 -5 -1 -8 -4 -12
-7 -8 -14 -6 -37 10 -23 16 -31 21 -35 24 -51 40 -55 41 -69 43 -18 1 -30 -9
-62 -50 -6 -7 -10 -13 -11 -14 -5 -4 -14 -18 -14 -20 0 -2 -1 -4 -1 -5 -2 -1
-2 -3 -5 -16 -1 -5 -2 -14 -2 -19 0 -17 -16 -23 -41 -14 -13 4 -30 5 -34 2 -2
-2 -3 -2 -3 -1 0 2 -14 -12 -19 -21 -9 -13 -14 -15 -34 -14 -2 0 -6 3 -9 6 -5
5 -6 7 -6 18 0 11 1 13 6 18 3 3 7 6 8 6 3 0 16 1 29 3 1 0 3 1 3 1 0 1 2 2 4
2 4 0 16 11 24 23 7 10 16 16 30 23 13 5 29 20 35 32 8 18 4 61 -8 86 l-5 10
5 5 c6 5 8 6 46 10 33 4 56 12 62 23 2 3 5 7 7 9 2 2 5 6 6 9 4 9 13 13 27 11
30 -4 41 0 50 18 5 10 6 15 7 31 1 24 -3 37 -14 48 -22 19 -24 22 -24 28 0 8
6 14 14 14 3 0 14 -4 24 -9 l19 -10 42 -1 c65 -1 71 2 74 34 0 2 1 4 2 4 1 0
0 1 -1 2 -6 3 -5 14 1 20 5 5 11 5 27 1 7 -2 21 -4 32 -4 21 0 19 1 57 -20 17
-9 31 -9 44 -2 4 3 7 5 6 5 0 0 1 2 3 5 6 6 15 24 18 37 3 10 3 11 -2 20 -4 6
-9 11 -15 15 l-10 6 -133 0 c-128 0 -144 0 -144 -3 0 -1 -3 -3 -6 -4 -4 -1 -9
-6 -13 -10 -9 -12 -18 -17 -25 -14 -10 4 -16 13 -14 20 1 4 2 7 2 7 8 6 12 7
17 7 6 0 7 1 13 13 6 12 6 14 6 35 0 26 1 29 14 42 8 8 10 11 13 23 3 13 3 14
-1 20 -2 4 -4 7 -3 7 3 3 -33 28 -40 28 -3 0 -7 4 -20 19 -11 13 -26 20 -46
22 -8 1 -20 2 -27 2 -13 2 -31 2 -61 1 -12 0 -22 1 -36 5 -23 5 -45 8 -53 5z
m76 -88 c3 -3 7 -9 8 -12 1 -3 3 -6 4 -6 1 0 3 -2 6 -4 3 -3 5 -5 6 -5 1 0 2
-1 4 -2 8 -3 20 -5 29 -5 17 1 25 -12 20 -33 -1 -7 -12 -13 -22 -12 -8 1 -19
6 -23 11 -2 3 -18 11 -27 15 -21 7 -27 11 -31 21 -11 22 -6 38 11 38 7 0 10
-1 15 -6z m124 -109 c11 -12 14 -18 12 -23 -3 -6 -3 -6 -10 -7 -8 -1 -20 2
-25 8 -6 5 -7 18 -2 23 6 6 19 5 25 -1z m-93 -95 c7 -9 3 -30 -11 -56 -7 -13
-14 -18 -25 -18 -15 0 -21 13 -15 35 4 14 12 35 16 39 7 9 28 8 35 0z m-155
-228 c9 -9 2 -24 -10 -24 -12 0 -19 15 -11 24 5 5 16 5 21 0z m1173 -72 c7 -6
7 -19 1 -25 -6 -7 -19 -7 -25 -1 -7 6 -7 19 -1 25 6 7 19 7 25 1z m-196 -3 c6
-3 9 -5 12 -12 4 -9 3 -10 -11 -41 -11 -21 -15 -26 -26 -26 -15 0 -22 13 -16
31 2 6 5 17 7 26 5 23 8 27 18 26 5 0 12 -2 16 -4z m-976 -31 c10 -9 3 -26
-10 -26 -8 0 -15 7 -15 15 0 13 16 20 25 11z m435 -56 c2 -1 7 -5 12 -8 4 -4
12 -10 17 -13 6 -3 12 -7 15 -8 2 -2 9 -11 15 -20 9 -14 12 -17 22 -22 6 -3
12 -5 14 -5 2 1 6 -2 10 -5 l6 -6 -1 -78 c-1 -78 -1 -78 -6 -86 -2 -5 -5 -8
-6 -8 -1 1 -3 0 -4 -2 -6 -7 -21 -9 -40 -7 -24 3 -30 1 -42 -16 -12 -20 -17
-24 -26 -24 -8 0 -20 6 -20 10 0 1 -1 2 -1 2 -1 0 -4 3 -7 8 -9 14 -18 22 -31
27 -20 9 -25 9 -46 -2 -19 -10 -21 -11 -25 -5 -3 2 -9 18 -10 25 -1 8 -22 23
-33 23 -5 0 -11 6 -15 16 -1 4 -3 8 -4 9 -1 1 -2 3 -2 4 0 3 -6 13 -11 18 -1
1 -6 4 -10 7 -10 4 -16 12 -18 21 -1 3 -5 12 -8 18 -10 17 -11 31 -5 38 5 6
10 6 29 3 15 -3 29 -1 35 5 3 2 10 13 15 24 11 22 15 25 28 26 17 0 20 -2 35
-22 8 -10 16 -21 19 -23 10 -8 15 -26 8 -32 -2 -2 -3 -5 -2 -15 1 -6 2 -13 2
-14 0 -1 3 -4 6 -7 22 -15 63 7 77 39 5 11 5 13 3 23 -2 12 -9 22 -18 27 -6 2
-14 6 -14 5 0 -2 -22 9 -25 12 -6 6 -12 19 -12 25 1 7 6 10 24 11 8 1 19 3 23
4 8 2 22 1 27 -2z m658 -31 c3 -2 9 -7 14 -11 9 -8 26 -15 43 -17 15 -2 21 -9
21 -24 0 -13 -5 -23 -14 -27 -18 -7 -27 -5 -42 9 -7 6 -13 11 -14 11 -5 1 -7
1 -13 4 -3 1 -9 3 -14 3 -4 1 -10 4 -15 8 -7 7 -7 7 -7 22 0 14 0 16 6 20 7 6
26 7 35 2z m-357 -76 c3 -3 3 -3 0 -6 -4 -5 -11 1 -7 6 4 4 4 4 7 0z m332 -14
c7 -5 7 -7 7 -16 0 -13 -6 -19 -19 -19 -13 0 -19 6 -19 19 0 13 8 21 22 23 1
0 5 -3 9 -7z m-463 -34 l-5 -5 -4 4 -5 5 4 4 5 5 4 -4 5 -5 -4 -4z m597 -32
c1 -2 3 -8 4 -13 2 -13 -3 -18 -19 -18 -19 -1 -22 6 -11 20 14 17 20 19 26 11z
m-1041 -69 c9 -3 14 -8 16 -18 2 -8 0 -23 -3 -26 -3 -2 -9 -15 -9 -19 0 -2 -1
-7 -2 -12 -2 -7 -2 -10 1 -20 3 -10 3 -13 1 -19 -7 -20 -24 -18 -28 4 -1 6 -1
11 -1 12 1 2 2 24 0 29 -3 15 -6 23 -8 27 -5 7 -5 27 0 33 7 9 20 13 33 9z
m569 -30 c7 -7 7 -19 0 -27 -6 -6 -12 -6 -21 0 -9 6 -11 19 -4 26 6 7 19 7 25
1z m-494 -135 c1 -2 3 -5 4 -6 5 -5 -5 -30 -14 -36 -2 0 -4 -2 -6 -4 -1 -2 -3
-2 -4 -2 0 1 -1 1 -1 0 0 -1 -2 -2 -5 -3 -3 0 -11 -4 -17 -9 -10 -8 -13 -9
-21 -9 -14 0 -19 6 -19 19 0 12 2 14 23 25 9 4 21 12 27 16 11 8 25 14 29 13
1 0 3 -2 4 -4z m15 -79 c4 -6 2 -10 -5 -10 -7 0 -9 4 -5 9 4 6 5 6 10 1z m270
-3 c10 -8 12 -17 9 -44 -1 -12 -1 -17 3 -30 6 -22 5 -32 -2 -39 -5 -5 -7 -6
-17 -6 -10 0 -12 1 -17 6 -5 5 -6 7 -6 17 0 17 -3 33 -10 48 -6 14 -11 34 -9
41 0 3 3 7 6 9 8 4 35 3 43 -2z m-742 -159 c-2 -14 -15 -19 -24 -10 -8 8 -4
20 9 25 7 2 8 2 12 -2 4 -4 4 -6 3 -13z m1311 -33 c9 -4 25 -9 37 -12 35 -8
48 -13 51 -18 6 -9 -2 -16 -28 -24 -19 -6 -30 -6 -40 -2 -4 1 -7 2 -7 2 0 -1
-2 0 -5 1 -3 1 -15 3 -25 4 -11 1 -23 3 -26 5 -15 8 -14 43 1 49 14 5 20 4 42
-5z m-874 -10 c10 -4 13 -10 13 -22 0 -13 -6 -19 -20 -19 -14 0 -20 6 -20 20
0 6 1 11 3 13 2 1 3 4 3 6 0 2 1 3 2 3 1 0 2 1 2 3 0 3 7 2 17 -4z m-75 -20
c4 -5 5 -7 5 -26 0 -39 -7 -47 -36 -45 -2 0 -6 3 -9 6 -5 5 -6 7 -6 16 0 17 9
40 20 50 7 6 20 6 26 -1z m-384 -23 c5 -5 6 -7 6 -17 0 -14 -5 -19 -23 -26
l-14 -5 -6 6 c-5 6 -5 7 -4 21 2 22 7 27 25 27 9 0 11 -1 16 -6z m64 -13 l-5
-5 -5 5 -4 4 4 4 5 5 5 -5 5 -4 -5 -4z m-1 -142 c6 -6 1 -18 -9 -19 -10 0 -15
12 -8 20 4 4 12 4 17 -1z m1309 -149 c5 -5 6 -7 6 -17 0 -16 -7 -23 -23 -23
-10 0 -12 1 -17 6 -5 5 -6 7 -6 17 0 16 7 23 23 23 10 0 12 -1 17 -6z m-927
-10 c13 -13 5 -37 -13 -39 -15 -1 -38 11 -44 24 l-4 8 6 5 c5 6 7 7 20 8 21 2
28 1 35 -6z m824 -41 c3 -3 3 -3 0 -6 -4 -5 -11 1 -7 6 4 4 4 4 7 0z m149 -29
c5 -6 5 -12 0 -18 -7 -8 -22 -2 -22 9 0 11 15 17 22 9z m-1337 -19 c3 -5 3 -5
0 -10 -2 -3 -5 -5 -7 -5 -2 0 -5 2 -7 5 -3 5 -3 5 0 10 2 3 5 5 7 5 2 0 5 -2
7 -5z"/>
<path d="M1197 3849 c-2 -2 -3 -3 -1 -2 1 1 2 -2 2 -14 0 -9 -1 -15 -2 -15 -1
0 -2 -1 -1 -2 1 -1 4 -2 7 -2 l6 0 0 20 c0 10 -1 17 -1 16 -1 -2 -2 -3 -4 -3
-2 1 -2 2 -2 3 2 3 0 2 -4 -1z"/>
<path d="M1334 3838 c-11 -6 -16 -17 -17 -35 -2 -37 -10 -79 -15 -79 -1 0 -6
-3 -11 -8 -18 -13 -25 -17 -38 -17 -16 0 -20 4 -27 24 -3 9 -9 20 -12 25 l-6
9 -12 0 c-24 -1 -28 -11 -28 -59 0 -35 1 -40 11 -54 11 -17 28 -18 51 -3 11 7
25 7 31 0 11 -10 5 -33 -9 -33 -7 0 -32 -8 -39 -13 -3 -2 -11 -9 -17 -15 -23
-24 -28 -35 -28 -64 -1 -15 0 -21 2 -22 1 0 2 -1 1 -2 -3 -4 7 -15 16 -20 6
-2 12 -6 16 -7 3 -2 5 -3 5 -2 0 0 4 -1 9 -2 10 -4 35 -6 35 -3 0 2 1 2 3 0 3
-3 7 1 8 11 1 10 5 21 10 27 5 6 19 6 25 -1 5 -5 5 -18 0 -24 -4 -5 -19 -17
-21 -17 -4 0 -7 -6 -8 -16 0 -6 -1 -14 -2 -17 0 -3 -1 -9 -2 -12 -2 -10 -9
-15 -24 -15 -9 0 -14 1 -18 4 -5 5 -15 20 -15 25 0 2 -1 3 -1 2 -1 -2 -6 -3
-16 -3 -11 0 -15 -1 -17 -3 -2 -2 -5 -5 -7 -8 -7 -7 -8 -13 -9 -32 0 -15 0
-19 3 -21 6 -5 2 -16 -10 -29 -9 -10 -11 -13 -12 -26 -2 -9 6 -24 14 -27 3 -2
5 -3 5 -4 0 -1 1 -2 3 -2 2 0 3 -1 3 -2 0 -3 15 -2 22 1 6 3 14 11 20 22 13
21 30 18 58 -13 13 -15 18 -19 31 -25 l16 -7 12 3 c16 4 23 11 23 23 0 5 -1
10 -2 13 -3 4 -15 17 -20 20 -2 1 -5 5 -7 8 -3 5 -3 5 1 10 5 5 8 5 35 -3 l14
-4 12 5 c13 6 22 15 24 23 4 20 9 27 22 34 26 14 35 31 33 59 0 2 -5 4 -10 5
-19 3 -23 3 -27 0 -4 -4 -9 -3 -19 2 -20 11 -29 41 -16 54 3 3 7 6 8 6 2 0 8
1 13 1 6 1 12 1 14 1 7 0 16 6 26 18 6 6 15 16 21 23 7 6 11 12 11 13 -1 1 0
2 1 2 1 0 2 1 2 3 0 1 1 5 2 8 8 19 6 35 -4 46 -15 15 -16 19 -16 46 0 14 -1
27 -2 30 -3 9 7 23 16 21 4 0 21 11 29 20 8 8 18 26 23 40 4 14 1 29 -8 39
-17 18 -61 17 -78 -1 -12 -12 -16 -14 -23 -10 -4 3 -7 6 -8 8 -1 2 -2 4 -3 4
-1 0 -2 2 -4 5 -4 11 -22 18 -47 20 -14 1 -17 1 -25 -3z m106 -102 c4 -3 4 -4
1 -6 -9 -8 -9 -8 -12 -2 -5 11 1 15 11 8z m-27 -52 c10 -10 11 -33 1 -42 -2
-3 -7 -5 -12 -6 -10 -2 -23 0 -28 6 -9 8 -9 32 0 41 8 8 31 9 39 1z"/>
<path d="M1700 3749 c-3 -1 -7 -5 -12 -11 l-7 -11 0 -26 c0 -21 -1 -27 -3 -30
-2 -1 -11 -4 -22 -7 -26 -6 -28 -7 -45 -29 -11 -13 -12 -14 -11 -25 0 -6 1
-12 3 -14 1 -1 2 -3 1 -4 -1 -3 45 -26 64 -32 20 -6 56 -24 65 -32 2 -2 5 -4
6 -4 1 0 5 -3 9 -6 15 -12 25 -14 62 -14 37 0 48 2 61 12 4 3 9 6 10 6 1 0 3
1 5 3 3 3 7 3 15 3 40 -2 50 2 60 24 6 14 6 24 -1 38 -2 7 -3 8 -16 10 -7 1
-14 3 -16 3 -2 1 -4 2 -6 2 -2 1 -3 2 -4 3 0 1 -1 2 -2 1 -2 -1 -3 5 -7 24 -1
4 -3 8 -6 10 -2 1 -6 5 -9 7 -24 21 -41 23 -60 7 -5 -4 -15 -10 -24 -15 -19
-9 -26 -17 -36 -42 -3 -9 -11 -13 -24 -13 -19 0 -27 8 -27 27 0 13 4 21 13 24
19 8 26 12 34 20 4 4 8 9 8 10 0 0 1 4 1 8 1 14 -12 31 -32 41 -4 2 -4 3 -11
18 -7 13 -16 17 -36 14z m216 -151 c0 -2 1 -4 2 -5 4 -3 -9 -18 -17 -20 -4 -1
-8 -3 -11 -5 -3 -2 -9 -3 -21 -2 -19 0 -25 4 -25 17 0 14 5 17 32 18 13 0 26
2 29 3 7 2 11 -1 11 -6z"/>
<path d="M1513 3558 c-9 -2 -15 -6 -16 -10 -1 -2 -3 -4 -5 -4 -2 0 -2 -1 -1
-2 1 0 3 -5 3 -10 0 -13 1 -15 13 -21 9 -5 13 -6 31 -7 11 0 25 0 31 1 l11 1
0 18 c0 13 1 18 3 18 1 0 -1 1 -4 2 -12 3 -28 8 -36 11 -11 3 -23 5 -30 3z"/>
<path d="M1085 3401 c-18 -8 -23 -19 -23 -52 0 -20 0 -23 4 -27 2 -2 5 -4 6
-3 1 1 2 1 2 0 0 -1 6 -2 13 -1 10 0 13 0 13 -2 0 -2 1 -2 2 0 2 6 34 41 39
44 5 3 5 4 5 19 -1 22 -5 24 -36 26 -13 1 -16 0 -25 -4z"/>
<path d="M139 3142 c-15 -6 -22 -17 -23 -34 -1 -6 13 -52 17 -60 5 -11 16 -20
27 -24 9 -4 15 -4 88 -4 48 0 80 1 85 2 9 3 20 13 22 21 2 9 2 17 1 17 -1 0
-4 8 -7 17 -6 18 -6 27 1 27 3 0 3 0 0 2 -2 1 -2 2 -2 2 1 0 1 5 0 11 -3 20
-19 28 -46 24 -5 -1 -10 -1 -11 -2 -2 0 -3 0 -3 -1 0 -1 -3 -3 -7 -5 -4 -1 -8
-5 -10 -8 -2 -3 -5 -7 -6 -8 -1 -2 -7 -12 -13 -24 -12 -23 -18 -29 -31 -29
-13 0 -17 7 -17 27 1 27 -4 38 -16 43 -3 1 -6 3 -6 4 0 2 -1 2 -21 3 -9 1 -18
0 -22 -1z"/>
<path d="M233 2938 c-6 -2 -17 -12 -18 -16 0 -2 -1 -4 -1 -5 -3 -4 -5 -16 -4
-26 0 -9 -1 -12 -8 -23 -8 -11 -9 -14 -8 -24 0 -15 4 -19 17 -24 11 -4 15 -4
34 -3 26 1 27 1 27 3 0 1 1 2 3 2 4 0 14 11 20 22 6 12 5 21 -3 47 -12 40 -31
55 -59 47z"/>
<path d="M919 2753 c-4 -1 -7 -2 -7 -1 0 0 -1 -1 -3 -4 -2 -3 -3 -11 -3 -18 0
-12 1 -14 5 -17 2 -3 5 -4 6 -4 0 1 1 1 1 0 0 -4 18 -6 35 -5 3 1 5 7 5 22 0
16 -1 19 -13 24 -14 6 -17 6 -26 3z"/>
<path d="M249 2742 c-5 -1 -21 -2 -35 -1 -34 1 -41 -3 -43 -25 -1 -8 0 -14 3
-25 2 -8 5 -18 5 -23 3 -19 14 -35 30 -43 7 -4 14 -4 66 -5 64 0 68 0 82 13 6
5 7 7 7 18 0 6 2 11 3 11 1 0 0 1 -1 3 -2 3 -2 3 0 3 2 -1 3 0 2 2 0 1 1 3 2
4 1 0 0 4 -1 7 -2 3 -3 5 -3 3 0 -1 -1 -2 -2 -1 -1 1 -2 0 -2 -2 0 -5 -14 -7
-24 -4 -5 2 -10 3 -12 3 -6 0 -14 10 -15 19 -4 38 -22 50 -62 43z"/>
<path d="M361 2711 c-1 -1 -3 -2 -2 -3 1 -1 0 -2 -1 -2 -3 0 7 -7 10 -7 1 0 2
-1 3 -1 1 -1 7 -1 13 -1 8 0 10 0 10 -3 0 -6 5 5 5 11 l0 6 -17 1 c-9 0 -19
-1 -21 -1z"/>
</g>
</svg>
