<?xml version="1.0" standalone="no"?>
<!DOCTYPE svg PUBLIC "-//W3C//DTD SVG 20010904//EN"
 "http://www.w3.org/TR/2001/REC-SVG-20010904/DTD/svg10.dtd">
<svg version="1.0" xmlns="http://www.w3.org/2000/svg"
 width="1107.000000pt" height="2870.000000pt" viewBox="0 0 1107.000000 2870.000000"
 preserveAspectRatio="xMidYMid meet">
<metadata>
Created by potrace 1.15, written by Peter Selinger 2001-2017
</metadata>
<g transform="translate(0.000000,2870.000000) scale(0.500000,-0.500000)"
fill="#000000" stroke="none">
<path d="M1181 3838 c-3 -1 -7 -2 -9 -2 -5 -2 -15 -14 -18 -22 -2 -5 -5 -26
-8 -47 -4 -32 -10 -81 -13 -99 -10 -62 -20 -117 -24 -138 -3 -15 -6 -28 -6
-29 0 -2 0 -3 -1 -3 -1 0 -3 -3 -5 -6 -2 -3 -8 -9 -13 -12 -34 -18 -28 -18
-62 1 l-11 6 -75 0 -75 0 -6 6 -6 6 1 23 c1 29 3 31 25 42 21 10 32 20 53 43
7 9 8 10 8 21 0 6 -2 14 -4 18 -3 6 -22 23 -42 37 -2 2 -5 5 -7 6 -1 1 -14 12
-29 23 -15 11 -27 21 -28 22 -1 1 -5 4 -9 7 -9 7 -10 7 -18 14 -3 3 -8 5 -9 5
-2 0 -4 1 -5 2 0 1 -5 2 -9 3 -5 1 -10 2 -11 2 -1 0 -7 1 -13 2 -6 1 -14 3
-18 5 -13 6 -31 5 -46 -2 -7 -4 -16 -7 -21 -7 -17 -2 -26 -8 -44 -30 -4 -4 -8
-7 -10 -7 -3 0 -7 -1 -9 -2 -3 -1 -9 -3 -15 -4 -8 -2 -12 -5 -20 -13 -12 -12
-15 -21 -17 -48 -1 -21 -3 -24 -14 -27 -15 -3 -28 4 -28 16 0 9 -6 28 -10 35
-8 10 -14 12 -50 13 -34 2 -39 2 -41 5 -1 0 -3 1 -5 1 -1 0 -17 5 -34 11 -35
13 -42 14 -65 3 -22 -10 -28 -8 -39 16 -10 20 -17 26 -41 35 -8 3 -24 9 -37
14 -21 7 -25 8 -33 7 -12 -2 -19 -7 -25 -18 -4 -9 -4 -10 -4 -60 1 -51 1 -51
6 -62 3 -6 8 -14 11 -17 3 -3 8 -11 11 -17 6 -10 21 -26 24 -26 3 1 26 -12 28
-16 7 -13 -2 -28 -15 -28 -10 0 -25 10 -25 17 0 1 -1 1 -2 -1 -1 -2 -5 -2 -16
-1 -17 1 -19 -1 -21 -15 -1 -6 -1 -41 0 -77 1 -96 1 -103 0 -164 l-1 -56 5
-12 c5 -10 6 -11 18 -17 14 -7 17 -8 25 -8 2 0 7 -2 10 -6 5 -5 6 -9 9 -31 2
-15 14 -24 36 -26 17 -2 24 -8 24 -23 0 -15 -8 -23 -23 -23 -7 0 -11 2 -14 4
-8 7 -44 2 -54 -8 -1 -2 -6 -4 -9 -6 -9 -4 -21 -15 -24 -24 -3 -6 -3 -45 -3
-242 0 -232 0 -236 4 -244 6 -12 17 -18 39 -20 11 -2 17 -8 17 -18 0 -10 -6
-16 -17 -18 -22 -2 -33 -8 -39 -20 -6 -12 -6 -104 -1 -119 l4 -10 16 0 c16 -1
17 -1 19 4 2 2 6 6 9 8 8 5 11 4 27 -11 6 -5 11 -9 12 -9 3 0 10 -6 13 -12 3
-5 2 -8 -10 -42 -7 -20 -17 -49 -23 -64 -12 -31 -12 -35 0 -59 14 -28 12 -35
-22 -62 -6 -4 -26 -17 -27 -17 -4 0 -22 -16 -28 -25 -18 -27 -24 -45 -21 -66
2 -16 0 -27 -6 -33 -3 -4 -7 -6 -9 -6 -6 0 -35 -13 -41 -17 -26 -22 -7 -66 30
-70 7 -1 11 0 21 4 19 10 39 21 59 33 10 6 21 13 26 15 12 8 65 45 86 62 13
10 34 27 38 30 3 3 6 5 6 5 3 0 10 13 12 23 1 6 2 16 2 23 0 19 2 21 31 21 27
0 30 1 50 22 17 19 19 21 19 34 0 14 -5 24 -17 38 -14 16 -26 22 -57 29 -23 5
-29 10 -24 19 4 7 40 23 50 22 2 0 5 -1 7 -1 3 0 11 -6 18 -13 16 -15 18 -17
43 -25 21 -7 36 -8 54 -2 7 2 18 4 24 6 6 1 15 4 20 6 19 9 25 4 37 -31 5 -14
10 -32 12 -39 4 -14 10 -27 17 -33 5 -4 29 -15 33 -15 4 0 11 -9 11 -14 1 -15
1 -16 -18 -32 -6 -5 -10 -10 -10 -11 0 -2 -1 -3 -2 -3 -3 0 -6 -13 -6 -25 0
-23 10 -44 27 -56 12 -9 40 -24 55 -29 13 -4 29 -3 36 3 9 7 13 11 19 21 11
18 27 21 50 11 12 -5 30 -7 38 -3 10 6 32 33 43 53 6 10 6 13 5 22 -4 29 -21
35 -51 17 -11 -7 -20 -8 -31 -6 -13 3 -16 8 -20 35 -5 38 -5 36 0 41 4 4 4 4
12 0 4 -2 11 -6 15 -10 23 -21 35 -28 51 -28 11 0 12 1 18 7 22 23 26 60 7 69
-8 4 -29 5 -33 2 -1 -1 -7 -2 -12 -2 -13 0 -19 6 -19 19 0 11 0 11 14 21 14 9
17 15 18 29 0 15 -5 22 -16 24 -5 0 -11 1 -14 2 -6 1 -8 0 -21 -16 -8 -9 -16
-10 -26 0 -12 12 -11 23 5 36 6 6 7 7 6 15 -1 20 -4 23 -34 43 -8 5 -25 15
-37 22 -12 6 -22 13 -22 15 0 1 1 3 1 4 0 2 13 7 31 12 34 9 76 31 95 48 24
23 26 30 26 117 l0 71 5 10 c3 5 6 10 7 10 0 0 4 3 8 7 4 3 10 8 14 11 10 8
33 26 48 40 12 11 16 16 16 25 1 8 17 25 24 25 2 0 4 1 4 3 0 3 7 -11 10 -21
1 -4 2 -14 2 -22 0 -17 4 -28 11 -34 6 -4 24 -10 35 -10 12 0 18 -6 18 -19 0
-12 -4 -17 -18 -21 -16 -4 -24 -16 -24 -34 0 -5 0 -12 0 -17 0 -4 -2 -11 -6
-19 -16 -29 -15 -18 -15 -102 0 -73 0 -79 5 -91 2 -4 3 -5 4 -3 1 2 2 2 2 1 0
-2 4 -2 13 -2 l13 1 0 -7 0 -7 -13 1 c-9 0 -13 0 -13 -2 0 -1 -1 -1 -2 1 -1 2
-4 -2 -8 -14 0 -3 -1 -102 -1 -221 -1 -197 -1 -217 2 -224 5 -13 12 -18 24
-19 5 0 10 -1 11 -1 1 -1 2 0 2 1 3 6 38 13 43 8 1 -1 10 -4 20 -7 18 -6 25
-6 50 0 7 2 14 4 17 4 10 2 35 11 51 19 37 18 57 37 64 62 3 9 3 71 1 80 -4
14 -22 27 -41 29 -3 1 -8 2 -11 4 -6 4 -7 6 -6 10 0 0 -1 1 -2 1 0 0 -1 6 0
12 1 13 7 22 16 22 20 2 39 15 44 30 2 7 2 38 2 115 l-1 106 6 6 6 6 81 -1 80
0 12 5 c7 3 15 9 20 14 11 12 16 15 27 15 16 0 22 -7 21 -26 0 -5 -1 -41 -1
-80 l-1 -71 -6 -5 c-4 -5 -7 -6 -22 -7 -14 -1 -65 -8 -86 -12 -6 -1 -41 -4
-48 -5 -2 0 -9 -2 -15 -5 -23 -11 -27 -34 -10 -52 8 -10 19 -15 37 -17 20 -3
26 -4 32 -8 7 -4 29 -5 40 -1 12 5 26 6 32 3 5 -3 10 -15 9 -22 -2 -6 -7 -15
-11 -21 -2 -2 -3 -8 -3 -16 -1 -20 2 -21 31 -22 18 0 22 -2 22 -13 0 -8 -3
-11 -17 -17 -7 -3 -13 -6 -13 -7 0 -1 -1 -2 -3 -2 -1 0 -4 -2 -6 -4 -4 -6 -4
-25 0 -30 2 -2 3 -4 3 -6 0 -1 1 -3 3 -3 1 -1 5 -6 7 -11 5 -9 5 -9 1 -20 -2
-6 -5 -13 -7 -16 -9 -13 -10 -25 -2 -29 6 -4 30 -4 38 0 5 3 13 4 35 4 15 0
31 1 34 1 3 0 15 0 25 -1 18 -1 20 -1 33 4 102 40 153 113 163 233 0 10 1 78
1 149 0 117 0 131 -3 143 -7 24 -7 35 -1 58 5 19 5 22 3 30 -3 10 -7 18 -11
22 -7 8 -13 19 -13 26 0 6 7 20 12 24 3 3 7 9 10 18 6 15 6 127 1 150 -5 19
-5 43 0 62 2 12 3 25 3 74 l0 59 6 9 c3 5 6 8 6 7 0 -5 34 18 51 36 17 16 19
20 19 33 0 15 -5 22 -31 42 -1 0 -10 7 -19 14 -9 7 -27 21 -39 30 -12 9 -26
20 -30 23 -4 3 -8 6 -9 7 -1 1 -4 3 -8 6 -4 3 -10 7 -13 10 -11 9 -14 11 -21
16 -4 3 -10 7 -13 10 -11 9 -14 11 -21 16 -4 3 -7 5 -8 6 -1 1 -9 7 -18 14
-16 12 -17 13 -30 14 -18 1 -23 -2 -43 -26 -17 -20 -20 -25 -18 -39 2 -16 4
-18 27 -28 19 -8 25 -14 25 -27 0 -9 -1 -11 -6 -16 -11 -11 -29 -7 -64 11 -11
6 -33 11 -44 9 -2 0 -54 -1 -116 -1 -92 -1 -114 0 -122 2 -19 6 -20 13 -3 43
7 12 14 26 16 31 2 4 8 17 13 29 25 50 31 65 36 77 3 6 6 14 8 17 2 3 2 6 2 6
0 1 3 4 7 7 l9 5 88 0 c94 0 101 1 111 10 8 8 11 24 8 39 -5 25 9 40 34 35 15
-3 23 -17 18 -35 -6 -20 1 -39 15 -45 9 -4 13 -4 111 -4 123 1 111 -2 138 31
8 9 21 12 31 9 11 -3 29 -1 39 6 20 13 14 42 -14 62 -6 5 -12 10 -13 11 -6 5
-57 43 -62 46 -3 1 -5 2 -5 3 0 1 -1 2 -3 2 -2 0 -3 1 -3 2 0 0 -3 3 -6 5 -4
2 -7 4 -8 5 -2 2 -35 23 -40 26 -3 1 -11 4 -19 6 -18 6 -23 9 -33 25 -4 8 -11
18 -16 22 -7 9 -7 9 -20 8 -15 0 -23 -4 -30 -16 -3 -3 -9 -11 -15 -16 -5 -6
-13 -16 -16 -22 -4 -8 -12 -18 -25 -31 -11 -10 -22 -23 -25 -27 -7 -9 -11 -14
-15 -18 -1 -2 -2 -3 -1 -3 5 0 -23 -12 -28 -12 -9 0 -22 -5 -32 -12 -4 -3 -7
-6 -6 -6 0 0 -1 -2 -3 -4 -2 -3 -4 -5 -4 -6 0 -3 -14 -10 -20 -10 -6 0 -20 7
-20 10 0 1 -2 3 -4 6 -2 2 -3 4 -3 4 1 0 -2 3 -7 6 -10 7 -23 12 -35 12 -7 0
-10 1 -15 6 -3 3 -5 6 -4 6 1 1 20 52 23 64 1 3 3 8 4 11 1 3 6 16 10 28 8 25
11 29 30 35 24 9 40 24 53 49 19 35 4 58 -43 68 -2 0 -25 7 -50 14 -25 7 -59
17 -74 21 -15 4 -62 17 -103 29 -42 11 -76 21 -77 21 -1 0 -5 -1 -8 -2z m87
-110 c5 -5 5 -15 0 -20 -9 -9 -24 -2 -24 10 0 8 6 14 14 14 3 0 8 -2 10 -4z
m-511 -38 c6 -8 4 -23 -4 -36 -9 -13 -10 -28 -3 -41 15 -30 4 -54 -24 -51 -5
0 -17 1 -27 1 -22 0 -25 -1 -41 -25 -14 -22 -18 -25 -34 -25 -19 0 -27 8 -27
28 0 14 4 19 21 29 14 9 26 20 31 28 5 7 14 12 28 13 17 2 31 5 35 8 9 6 15
34 9 42 -4 6 -4 24 1 29 7 9 27 9 35 0z m-540 -21 c3 -3 3 -3 0 -6 -4 -5 -11
1 -7 6 4 4 4 4 7 0z m186 -14 c12 -12 3 -31 -13 -31 -11 0 -18 7 -18 18 0 11
7 18 18 18 6 0 9 -1 13 -5z m996 -54 c3 -5 3 -5 0 -10 -2 -3 -5 -5 -7 -5 -2 0
-5 2 -7 5 -3 5 -3 5 0 10 2 3 5 5 7 5 2 0 5 -2 7 -5z m-142 -8 c5 -5 5 -6 4
-21 -2 -35 -5 -53 -10 -57 -7 -7 -19 -7 -26 0 -5 5 -5 6 -5 30 1 47 3 53 22
53 8 0 11 -1 15 -5z m-704 -98 c0 -70 0 -72 7 -86 8 -18 9 -25 4 -41 -2 -8 -5
-15 -5 -16 0 -2 -5 -8 -12 -14 -5 -5 -6 -5 -8 -3 -5 5 -13 5 -66 5 l-50 -1 -6
6 -6 6 1 54 c0 46 0 55 -3 64 -4 11 -4 10 -14 22 -11 14 -13 17 -13 28 0 11 2
14 13 28 10 11 11 13 11 14 0 1 3 4 8 7 7 5 7 5 67 6 l60 1 6 -6 6 -6 0 -68z
m203 -2 c12 -5 18 -21 14 -36 -5 -18 -24 -25 -44 -16 -14 5 -17 33 -6 46 7 8
24 11 36 6z m1022 -5 c5 -6 5 -12 0 -18 -7 -8 -22 -2 -22 9 0 11 15 17 22 9z
m-503 -69 c3 -5 3 -5 0 -10 -2 -3 -5 -5 -7 -5 -2 0 -5 2 -7 5 -3 5 -3 5 0 10
2 3 5 5 7 5 2 0 5 -2 7 -5z m-589 -11 c5 -4 5 -11 0 -16 -10 -10 -27 5 -16 16
3 4 9 4 16 0z m346 -17 c6 -5 36 -5 46 0 10 4 14 3 18 -3 4 -7 0 -14 -13 -27
-12 -12 -17 -23 -25 -52 -8 -31 -23 -84 -27 -94 -4 -9 -4 -25 0 -40 2 -7 3
-17 3 -23 0 -11 -4 -17 -25 -33 -7 -6 -7 -7 -9 -20 -1 -7 -1 -14 0 -14 0 -1 1
-2 1 -4 0 -1 1 -6 3 -10 2 -10 1 -29 -2 -34 -3 -6 -11 -10 -23 -12 -13 -2 -23
-12 -32 -31 -3 -8 -9 -20 -12 -27 -18 -39 -53 -108 -69 -133 -2 -4 -4 -9 -4
-11 0 -3 -1 -3 -1 -1 -1 2 -3 4 -5 6 -2 1 -4 3 -3 4 1 1 0 2 -1 3 -1 1 -2 59
-2 162 0 113 -1 163 -2 167 -5 14 -22 25 -41 27 -5 1 -13 3 -16 5 -8 4 -36 4
-44 -1 -13 -6 -36 -1 -54 11 -13 9 -17 19 -13 35 3 13 8 16 34 20 13 2 25 4
27 4 8 2 23 1 26 -1 6 -3 23 -10 34 -14 11 -3 11 -3 22 1 21 9 28 21 27 45 -2
23 -14 38 -39 45 -10 3 -23 14 -26 22 0 2 -2 3 -3 2 -2 -1 -2 -1 -1 1 1 1 0 3
-2 3 -2 1 -3 2 -2 3 0 1 -6 1 -13 2 -10 0 -15 -1 -16 -2 -1 -2 -3 -2 -5 1 -3
3 -3 3 0 6 2 3 4 3 5 1 2 -3 34 -6 37 -2 2 1 4 2 4 2 1 -1 4 2 8 5 6 7 8 7 20
7 12 0 13 0 27 -11 24 -16 22 -16 80 -16 57 0 60 1 75 16 13 13 26 17 33 10z
m143 -46 c3 -3 3 -3 0 -6 -4 -5 -11 1 -7 6 4 4 4 4 7 0z m-604 -29 c3 -2 5 -4
5 -5 0 -1 1 -4 3 -5 8 -6 0 -22 -10 -22 -9 0 -13 7 -12 20 2 14 4 16 14 12z
m-24 -105 l6 -6 -1 -21 c0 -15 1 -28 4 -44 4 -22 4 -22 0 -44 -10 -52 -1 -68
39 -74 22 -4 27 -9 27 -26 0 -15 -4 -21 -18 -25 -15 -4 -24 -4 -51 2 -47 10
-72 5 -90 -19 -16 -20 -37 -19 -57 3 -21 21 -21 38 -2 67 7 11 8 25 8 104 l-1
77 6 6 6 6 59 0 59 0 6 -6z m244 -82 c4 -4 5 -7 5 -15 0 -14 -6 -20 -20 -20
-14 0 -20 6 -20 20 0 14 6 20 20 20 8 0 11 -1 15 -5z m-426 -15 c10 -9 3 -26
-10 -26 -8 0 -15 7 -15 15 0 13 16 20 25 11z m1282 -48 c16 -7 16 -43 -1 -50
-15 -6 -34 -2 -39 9 -4 8 -4 24 0 32 5 12 23 15 40 9z m124 -11 c5 -8 1 -16
-8 -16 -9 0 -13 8 -8 16 2 3 5 5 8 5 3 0 6 -2 8 -5z m-386 -8 c4 -3 9 -7 10
-8 5 -5 15 -11 24 -14 8 -3 18 -3 53 -3 l43 1 6 -6 6 -6 -1 -83 c0 -79 0 -84
4 -102 6 -26 6 -35 -2 -43 -5 -5 -7 -6 -16 -6 -13 0 -22 7 -32 26 -10 17 -15
23 -29 30 l-10 6 -77 0 -77 0 -6 6 -6 6 0 80 0 80 6 6 c5 5 7 6 15 5 13 -1 34
8 43 17 7 8 18 13 28 13 8 0 12 -1 18 -5z m-359 -32 c8 -6 12 -11 12 -17 0 -8
-6 -14 -14 -14 -7 0 -11 4 -15 13 -2 8 -2 9 0 12 2 2 3 3 2 3 -3 0 5 6 8 6 1
0 4 -2 7 -3z m182 -35 c9 -11 6 -49 -5 -58 -5 -5 -15 -5 -21 1 -10 11 -16 47
-9 57 7 8 28 9 35 0z m-748 -121 c18 -5 23 -5 50 -5 l31 1 6 -6 6 -6 0 -78 c0
-71 0 -79 4 -89 7 -22 4 -49 -8 -60 -5 -4 -5 -4 -65 -5 l-61 0 -6 6 -6 6 1
113 c1 62 2 115 3 117 5 12 16 13 45 6z m1279 -25 c5 -7 4 -25 -2 -31 -3 -3
-6 -5 -8 -5 -2 0 -5 -1 -7 -1 -7 0 -16 3 -19 8 -4 6 -4 23 1 29 7 9 27 9 35 0z
m-797 -19 c4 -5 7 -11 9 -17 1 -7 -7 -16 -14 -15 -2 0 -5 1 -6 1 -2 0 -5 2 -9
5 -12 10 -6 29 10 29 5 0 9 -1 10 -3z m199 -19 c5 -5 6 -7 6 -16 0 -15 -8 -23
-23 -23 -9 0 -11 1 -16 7 -9 8 -9 23 -1 32 9 9 24 9 34 0z m592 -45 c5 -5 6
-12 3 -26 -2 -9 -5 -36 -6 -49 0 -10 -8 -16 -24 -19 -8 -1 -16 -2 -17 -1 -1 1
-4 1 -6 1 -1 0 -3 0 -2 1 1 1 0 3 -2 4 -3 3 -1 11 11 44 5 11 8 22 9 24 2 11
6 20 10 23 6 5 18 4 24 -2z m-1038 -1 c20 -9 28 -17 27 -32 0 -21 -23 -25 -47
-7 -22 15 -19 43 3 43 5 0 13 -2 17 -4z m607 1 c3 -2 6 -5 6 -6 5 -7 17 -19
25 -23 8 -5 9 -5 110 -6 107 -1 118 -2 126 -10 11 -10 5 -21 -13 -30 -13 -6
-23 -15 -27 -25 -3 -7 -3 -16 -3 -59 l1 -51 -6 -6 -6 -6 -43 1 c-52 0 -62 -1
-67 -11 -2 -4 -3 -11 -3 -17 0 -6 -1 -10 -2 -11 -2 0 -2 -1 0 -1 6 0 8 -5 8
-15 0 -13 -6 -19 -19 -19 -13 0 -19 6 -19 19 0 10 2 15 8 15 2 0 2 1 1 1 -2 1
-3 5 -3 11 0 6 -1 13 -3 17 -4 9 -15 11 -55 11 l-31 -1 -5 6 c-3 3 -7 5 -10 5
-2 0 -4 1 -3 3 0 1 -4 2 -15 3 -15 0 -16 0 -17 6 0 4 0 3 -1 -2 0 -11 -7 -15
-24 -14 -9 0 -14 6 -17 21 -3 16 -10 32 -18 39 -9 11 -11 15 -11 25 0 17 10
24 28 21 9 -2 12 -6 15 -21 4 -17 11 -32 20 -42 5 -6 7 -10 7 -15 1 -6 1 -6 1
-1 1 5 1 5 16 5 22 0 22 -1 22 69 1 47 1 54 -3 71 -6 25 -5 35 1 41 6 6 21 7
29 2z m359 -99 c11 -4 12 -8 5 -24 -3 -8 -9 -19 -12 -25 -3 -5 -6 -12 -7 -15
-3 -11 -11 -26 -15 -28 -2 -1 -8 -2 -13 -2 -20 0 -25 17 -11 43 4 8 8 16 9 19
3 9 11 26 13 27 2 1 18 6 24 7 1 0 4 -1 7 -2z m-1402 -11 c5 -8 1 -16 -8 -16
-9 0 -13 8 -8 16 2 3 5 5 8 5 3 0 6 -2 8 -5z m436 -11 c9 -3 20 -6 24 -6 5 0
9 -1 11 -4 5 -6 5 -6 0 -12 -4 -4 -4 -4 -16 -1 -21 5 -26 6 -39 5 -10 0 -12 1
-15 4 -5 6 -5 12 0 18 4 5 11 5 35 -4z m-118 -50 c2 0 5 -2 8 -5 10 -12 4 -29
-11 -29 -14 0 -20 12 -13 28 4 7 5 8 16 6z m-317 -70 c5 -5 5 -15 0 -20 -9 -9
-24 -2 -24 10 0 8 6 14 14 14 3 0 8 -2 10 -4z m287 -27 c5 -5 6 -7 5 -12 -1
-11 -7 -15 -24 -16 -17 0 -32 -6 -39 -16 -6 -9 -7 -29 0 -39 7 -10 8 -15 4
-19 -4 -4 -9 -2 -39 13 -32 16 -39 16 -63 4 -32 -16 -53 -9 -54 18 0 20 8 28
31 29 21 1 38 10 41 22 1 3 1 7 2 8 0 1 3 4 6 8 l6 6 59 0 59 0 6 -6z m1196
-15 c16 -7 16 -43 -1 -50 -15 -6 -34 -2 -39 9 -4 8 -4 24 0 32 5 12 23 15 40
9z m-130 -8 c7 -6 7 -19 1 -25 -6 -7 -19 -7 -25 -1 -7 6 -7 19 -1 25 6 7 19 7
25 1z m-533 -20 c3 -5 2 -6 -1 -13 -5 -9 -10 -13 -15 -12 -1 0 -4 1 -5 1 -1 0
-2 4 -2 9 0 17 16 28 23 15z m-454 2 c6 0 20 -16 20 -22 1 -12 -13 -23 -30
-22 -11 0 -17 4 -19 12 -5 20 5 34 22 33 2 0 5 -1 7 -1z m427 -34 c0 -1 1 -5
2 -10 2 -13 -6 -26 -16 -26 -7 0 -11 4 -11 14 0 10 12 23 21 23 2 0 5 0 4 -1z
m-468 -48 c5 -9 4 -22 -2 -28 -8 -8 -34 -3 -40 8 -5 9 10 25 24 26 12 1 14 0
18 -6z m-83 -35 c8 -4 10 -9 10 -21 0 -16 -11 -24 -28 -20 -10 2 -14 8 -14 21
0 13 4 19 14 21 10 2 12 2 18 -1z m622 -21 c6 -3 8 -7 13 -27 6 -22 10 -31 22
-42 10 -10 13 -17 8 -26 -3 -8 -16 -13 -35 -13 -16 -1 -19 3 -28 29 -4 12 -9
23 -10 25 -19 22 -17 51 4 56 7 2 21 1 26 -2z m441 -128 c13 -6 17 -19 13 -33
-4 -11 -11 -16 -24 -16 -12 0 -19 5 -23 15 -9 22 12 43 34 34z m-393 -86 c6
-3 8 -9 8 -20 1 -12 -3 -17 -16 -27 -5 -4 -14 -12 -18 -18 -18 -21 -21 -23
-31 -23 -17 0 -24 8 -29 30 -2 13 0 26 6 33 3 4 25 15 47 23 16 5 25 6 33 2z"/>
</g>
</svg>
