<?xml version="1.0" standalone="no"?>
<!DOCTYPE svg PUBLIC "-//W3C//DTD SVG 20010904//EN"
 "http://www.w3.org/TR/2001/REC-SVG-20010904/DTD/svg10.dtd">
<svg version="1.0" xmlns="http://www.w3.org/2000/svg"
 width="1104.000000pt" height="2870.000000pt" viewBox="0 0 1104.000000 2870.000000"
 preserveAspectRatio="xMidYMid meet">
<metadata>
Created by potrace 1.15, written by Peter Selinger 2001-2017
</metadata>
<g transform="translate(0.000000,2870.000000) scale(0.500000,-0.500000)"
fill="#000000" stroke="none">
<path d="M523 3845 c-21 -10 -23 -16 -23 -85 0 -47 1 -58 3 -66 4 -11 13 -22
25 -28 12 -6 16 -13 16 -23 0 -11 -3 -15 -23 -28 -5 -3 -11 -9 -13 -12 -2 -4
-6 -8 -10 -11 -5 -2 -8 -5 -8 -6 0 0 -3 -1 -6 -1 -13 -1 -30 -22 -33 -39 -2
-12 -11 -19 -23 -19 -12 0 -21 7 -23 19 -2 10 -11 26 -20 33 l-7 6 -155 0
c-85 0 -155 -1 -157 -1 -11 -4 -14 -6 -18 -11 -7 -9 -9 -22 -5 -37 1 -3 2 -7
2 -8 1 -2 1 -6 2 -8 1 -3 2 -7 2 -9 1 -2 2 -6 2 -8 2 -9 12 -25 18 -30 15 -11
17 -11 104 -11 58 0 81 1 83 3 2 2 2 1 1 -1 -1 -1 1 -1 4 1 3 2 5 3 4 2 -1 -2
0 -3 4 -3 4 0 5 1 4 3 -1 1 1 0 4 -2 3 -2 5 -2 4 -1 -1 2 -1 3 1 1 3 -2 28 -3
105 -2 l102 0 6 -6 c4 -4 6 -7 6 -7 0 0 1 -7 3 -14 6 -19 5 -31 0 -50 -7 -25
-4 -44 7 -57 5 -5 22 -11 33 -12 13 -1 22 -7 36 -25 18 -23 48 -43 76 -49 11
-3 13 -3 33 2 21 5 40 12 58 20 6 3 12 5 13 5 1 0 2 1 2 2 0 1 1 2 3 2 1 0 4
2 7 4 7 6 10 5 14 -4 3 -8 3 -10 1 -24 -1 -8 -3 -22 -4 -31 0 -9 -2 -23 -3
-32 -1 -9 -2 -21 -3 -28 -2 -21 -2 -22 -8 -61 -3 -19 -4 -23 -9 -28 l-5 -6
-48 -1 c-48 -1 -61 -3 -71 -11 -11 -8 -21 -12 -28 -12 -8 0 -22 5 -28 11 -12
10 -58 27 -80 28 -21 2 -24 1 -24 -9 0 -4 1 -8 2 -8 1 0 2 -1 2 -1 -1 -3 2
-11 4 -11 1 0 2 -5 4 -10 2 -13 0 -25 -6 -30 -8 -9 -32 -9 -40 0 -12 11 -7 42
7 45 2 0 7 2 12 4 4 2 7 3 7 2 0 -1 1 0 3 2 2 2 3 6 3 11 l-1 9 -1 -9 -1 -9
-1 10 c0 6 1 9 3 9 1 0 1 0 0 2 -2 0 -3 2 -3 4 -1 5 -6 9 -16 12 -5 2 -22 8
-37 14 -30 11 -30 12 -67 10 -26 -1 -52 11 -72 32 l-13 13 -12 -1 c-14 0 -18
-3 -23 -15 -4 -8 -4 -25 -4 -432 0 -417 0 -425 4 -441 5 -21 5 -31 0 -55 -6
-27 -5 -56 0 -65 3 -4 6 -8 8 -9 5 -4 20 -7 33 -7 14 0 21 -5 21 -18 0 -13 -7
-18 -21 -18 -21 1 -32 -4 -40 -15 -5 -6 -5 -8 -5 -90 0 -73 0 -85 3 -92 4 -9
14 -21 18 -21 2 0 3 -1 3 -2 0 -2 0 -2 26 -3 38 -3 103 8 140 23 3 2 6 3 8 3
1 0 14 7 29 14 67 32 97 65 97 107 0 31 -14 44 -48 44 -10 0 -13 1 -17 5 -6 4
-6 6 -6 20 0 14 0 16 6 20 4 4 7 5 18 5 13 0 13 0 24 -10 l11 -11 15 0 c13 0
15 1 23 6 9 7 10 7 30 7 13 0 25 1 31 3 12 4 38 4 53 1 12 -3 18 -6 27 -14 7
-7 13 -9 26 -10 7 0 9 0 9 3 0 1 1 3 3 4 3 1 9 22 9 35 0 15 7 22 22 22 10 0
22 -5 22 -8 0 -1 5 -5 10 -8 11 -7 18 -8 44 -6 8 0 16 -3 24 -10 5 -5 20 -7
28 -4 6 3 6 3 2 18 -3 11 -4 21 -2 28 3 13 -7 35 -19 40 -8 4 -15 4 -171 4
l-163 -1 -6 6 -6 6 0 119 c1 65 0 120 -1 122 -4 7 -7 15 -6 17 0 1 -1 1 -2 0
-1 -1 -8 -1 -15 -2 -13 0 -13 0 -13 5 0 5 0 5 13 5 7 -1 14 -1 15 -2 1 -1 2
-1 2 0 -1 2 2 9 6 17 1 2 1 5 1 7 0 2 3 7 6 10 6 6 7 6 29 6 20 0 24 1 31 5 7
3 20 16 27 26 8 11 34 11 42 0 6 -10 20 -23 27 -26 l8 -5 134 0 c133 0 135 0
140 4 11 8 17 27 13 41 -2 8 0 20 4 29 6 12 35 12 46 0 6 -6 8 -20 6 -29 -4
-14 2 -33 13 -41 5 -4 8 -4 74 -5 58 0 69 0 76 3 9 3 19 12 20 18 0 2 2 7 4
11 1 4 2 8 2 9 -2 2 4 19 8 22 11 10 24 11 44 1 12 -6 14 -6 27 -6 8 1 16 3
19 5 4 2 9 4 16 4 13 0 21 -8 22 -22 1 -14 4 -26 9 -32 5 -6 21 -14 26 -13 1
1 6 -2 9 -5 l6 -6 0 -146 0 -146 -6 -6 -6 -6 -51 1 c-68 0 -71 -1 -87 -32 -9
-19 -12 -21 -40 -29 -23 -7 -38 -7 -45 1 -4 3 -6 8 -6 11 0 3 -1 8 -1 10 -1 2
-1 5 -1 6 -1 2 -3 8 -6 13 -8 18 -27 24 -44 17 -8 -4 -21 -17 -23 -23 -1 -2
-4 -5 -7 -7 -5 -3 -7 -3 -12 0 -3 2 -6 5 -7 7 -2 6 -15 19 -23 23 -12 5 -78 4
-89 -1 -15 -6 -20 -22 -20 -60 0 -29 3 -38 14 -45 8 -4 29 -5 45 -2 7 1 11 0
30 -6 32 -11 48 -9 69 10 2 2 8 6 12 8 7 4 7 4 14 0 4 -2 10 -6 12 -8 19 -17
13 -16 111 -17 79 0 89 0 95 3 9 4 22 17 24 23 1 2 4 5 7 7 5 3 7 3 12 0 12
-6 50 -1 50 7 0 4 7 2 10 -2 5 -6 5 -8 -2 -16 -5 -7 -6 -7 -11 -3 -4 2 -5 3
-5 0 0 -1 -1 -3 -3 -4 -1 0 -4 -4 -6 -8 -6 -12 -7 -150 -2 -164 4 -9 14 -21
18 -21 2 0 3 -1 3 -2 0 0 2 -2 6 -2 10 -2 71 -1 82 2 6 1 14 2 18 3 59 10 151
49 184 80 4 4 10 11 11 14 2 3 4 6 5 7 1 1 3 6 5 12 3 11 3 39 3 300 0 279 0
288 -4 296 -5 10 -9 13 -24 19 -17 7 -22 11 -16 16 2 2 9 5 16 8 20 8 24 13
23 27 0 6 -2 15 -4 19 -5 10 -5 31 -1 41 7 13 7 22 1 40 -3 9 -6 20 -6 24 0 4
-1 9 -2 10 0 1 -1 4 -2 6 -2 12 -15 27 -30 35 -16 7 -16 40 0 48 10 6 25 5 36
-2 5 -3 9 -7 9 -7 0 -1 1 -2 3 -2 2 0 3 -1 3 -2 0 -3 19 -7 27 -5 14 2 59 41
63 54 3 9 1 25 -3 32 -2 3 -32 27 -66 54 -34 26 -62 48 -63 49 -1 1 -5 4 -9 7
-4 3 -8 6 -9 7 -1 1 -5 4 -9 7 -4 3 -8 6 -9 7 -1 1 -5 4 -9 7 -4 3 -9 7 -10 8
-4 3 -7 5 -16 12 -4 3 -8 6 -9 7 -1 1 -5 4 -9 7 -4 3 -10 8 -12 10 -9 8 -24 8
-45 1 -11 -4 -13 -4 -20 -1 -20 8 -43 1 -47 -13 -2 -8 -11 -17 -25 -24 -29
-17 -41 -42 -30 -63 3 -4 5 -8 6 -9 6 -4 10 -19 10 -30 -2 -17 -7 -22 -25 -22
-15 0 -20 4 -27 20 -7 18 -13 26 -25 31 l-10 5 -190 0 c-191 0 -205 1 -204 7
1 1 -1 3 -3 3 -2 1 -2 2 1 2 3 0 6 1 7 3 1 2 7 6 13 10 6 3 11 7 11 7 0 1 1 2
3 2 1 0 7 4 14 9 7 5 12 9 13 9 1 0 3 2 5 4 2 2 10 7 17 12 16 11 53 38 54 40
2 2 22 11 37 16 8 2 18 6 22 9 9 4 30 25 32 31 1 3 18 13 33 18 15 6 26 24 27
43 2 30 6 39 18 39 11 0 16 -7 14 -21 -3 -18 -2 -34 1 -39 7 -14 27 -17 55
-10 20 5 32 11 37 18 5 8 10 26 9 35 -1 6 0 13 4 25 4 13 6 21 6 37 1 31 2 33
24 44 19 9 33 24 30 32 0 2 0 3 2 3 1 0 5 2 7 6 l5 5 77 -1 c65 0 81 0 100 3
22 3 25 3 44 0 18 -3 34 -3 100 -3 l79 0 13 6 c24 9 45 36 45 59 0 21 -11 34
-60 75 -29 25 -42 34 -47 35 -14 3 -18 3 -31 0 -7 -2 -16 -3 -19 -3 -8 0 -17
8 -19 16 0 4 -3 12 -5 18 -7 16 -19 23 -48 25 -10 1 -15 3 -20 11 -6 9 -14 12
-28 12 -12 0 -13 0 -19 -7 -4 -5 -7 -8 -7 -9 0 -1 -4 -6 -9 -13 -5 -7 -12 -19
-15 -27 -3 -9 -8 -17 -10 -20 -2 -2 -4 -5 -4 -5 0 -1 -2 -4 -5 -5 -17 -10 -23
-27 -18 -47 5 -18 4 -28 -3 -35 -3 -3 -8 -6 -10 -6 -6 -1 -7 -1 -37 -5 -29 -4
-29 -4 -35 16 -2 7 -5 14 -7 15 -1 2 -3 7 -5 12 -1 5 -4 11 -5 13 -2 3 -3 14
-3 40 0 52 -4 62 -24 62 -8 1 -13 2 -14 3 -1 3 -16 -26 -16 -31 0 -2 -1 -5 -2
-8 -5 -7 -8 -21 -9 -38 -1 -9 -3 -17 -4 -19 -7 -9 -12 -23 -12 -42 -1 -19 -2
-24 -10 -24 -7 0 -10 5 -14 26 -1 3 -5 13 -9 22 -11 21 -11 29 -2 40 4 5 7 10
7 10 0 1 1 2 1 3 2 2 2 20 -1 26 -4 9 -10 10 -46 9 -23 -1 -32 7 -32 27 0 12
4 21 12 24 10 6 11 7 9 22 -2 15 -4 21 -6 20 -3 -2 -10 11 -10 17 0 12 17 19
26 9 6 -6 5 -15 -1 -22 -3 -3 -4 -5 -4 -5 1 0 0 -1 -1 -2 -2 -1 -4 -3 -4 -5 0
-1 1 -1 2 1 1 2 2 -1 2 -9 1 -6 0 -11 -1 -12 -1 0 0 -1 2 -1 2 0 3 -1 2 -2 -1
-1 0 -2 1 -2 1 0 5 -2 8 -4 10 -7 27 -11 54 -11 28 0 30 1 39 6 7 4 19 21 18
23 0 1 -1 4 -2 9 -1 8 -3 11 -10 15 -5 2 -7 2 -24 2 -14 0 -19 5 -25 23 -5 20
-14 33 -27 39 -9 5 -11 5 -62 9 -8 0 -30 2 -50 4 -20 2 -40 3 -44 2 -11 -2
-23 -10 -28 -20 -4 -8 -4 -10 -4 -120 0 -89 -1 -113 -2 -113 -4 0 -4 -12 1
-30 2 -9 4 -17 3 -18 0 -1 0 -2 2 -3 5 -2 4 -15 -2 -21 -6 -6 -17 -5 -23 1 -5
5 -6 18 -1 20 2 1 2 3 1 7 -1 3 -2 9 -3 13 -2 10 -10 18 -21 20 -5 1 -44 1
-86 1 -76 -1 -77 -1 -86 -6 -5 -2 -11 -7 -15 -11 -18 -17 -28 -17 -46 0 -13
13 -21 16 -49 16 l-25 0 -6 6 -6 6 1 50 c1 49 1 50 6 57 3 4 5 7 6 7 7 0 29
18 38 31 18 28 21 53 6 69 -9 10 -21 14 -53 16 -8 0 -40 3 -72 6 -71 6 -68 6
-78 3 -7 -2 -23 -13 -25 -16 0 -1 -1 -3 -3 -5 -1 -1 -6 -7 -10 -13 -14 -23
-35 -22 -44 0 -11 26 -20 37 -34 44 -11 5 -12 5 -24 -1z m190 -123 c4 -6 4
-24 -1 -30 -7 -9 -27 -9 -34 0 -5 6 -5 24 0 30 7 9 27 9 35 0z m-23 -150 c5
-5 5 -11 0 -16 -10 -10 -27 5 -16 16 4 4 12 4 16 0z m-406 -37 c6 -7 6 -22 0
-28 -4 -4 -7 -5 -15 -5 -8 0 -11 1 -15 5 -6 6 -6 21 0 28 7 8 23 8 30 0z m543
-27 c2 -2 3 -5 2 -6 -1 -1 0 -2 1 -2 1 0 2 -1 2 -1 0 -1 0 -3 0 -3 0 -1 1 -3
1 -3 5 -19 8 -24 20 -29 8 -3 178 -3 194 1 15 4 31 4 46 0 8 -2 22 -3 40 -2
26 0 29 0 31 -4 3 -5 23 -3 30 3 1 1 3 2 5 2 1 0 6 3 11 6 15 11 32 6 32 -11
0 -11 -6 -17 -17 -17 -7 0 -9 1 -12 4 -2 3 -3 4 -3 3 0 -1 -4 -2 -10 -2 -5 0
-10 0 -10 -1 0 -1 -1 -1 -2 -1 -4 1 -11 -5 -14 -13 -4 -14 2 -29 19 -47 12
-14 13 -15 13 -28 0 -13 -1 -14 -13 -28 -8 -8 -13 -12 -21 -15 l-11 -4 -35 6
c-19 3 -38 6 -42 7 -4 0 -17 3 -30 5 -25 4 -102 17 -115 19 -5 1 -10 2 -13 2
-35 7 -95 15 -100 14 -4 -2 -6 -1 -10 5 -6 8 -6 8 -6 46 l0 39 -9 17 c-11 22
-12 27 -7 34 7 8 27 11 33 4z m551 -32 c5 -5 5 -15 0 -20 -9 -9 -24 -2 -24 10
0 8 6 14 14 14 3 0 8 -2 10 -4z m-774 -71 l-5 -5 -4 4 -5 5 4 4 5 5 4 -4 5 -5
-4 -4z m71 -55 c16 -7 16 -43 -1 -50 -15 -6 -34 -2 -39 9 -4 8 -4 24 0 32 5
12 23 15 40 9z m68 -9 c3 -3 3 -3 0 -6 -4 -5 -11 1 -7 6 4 4 4 4 7 0z m156
-61 c5 -5 6 -7 6 -16 0 -16 -6 -20 -33 -25 -33 -5 -35 -5 -40 0 -4 4 -4 4 -1
11 2 3 6 8 9 10 3 2 8 7 12 11 20 18 35 21 47 9z m106 -94 c16 -7 16 -43 -1
-50 -15 -6 -34 -2 -39 9 -4 8 -4 24 0 32 5 12 23 15 40 9z m-415 -193 c2 -2 4
-6 5 -9 1 -3 4 -11 7 -18 11 -21 23 -27 56 -26 23 1 37 6 50 18 12 11 16 13
28 13 12 0 16 -2 28 -13 4 -3 12 -9 18 -12 l11 -5 97 0 c124 0 117 0 344 0
l191 0 6 -6 6 -6 0 -131 0 -131 -6 -6 c-3 -3 -7 -6 -7 -6 -2 1 -391 1 -394 1
-2 -1 -5 -2 -7 -4 -4 -4 -19 -8 -21 -7 -1 1 -2 0 -2 0 0 -3 -24 -1 -34 2 -14
5 -30 4 -46 -3 -16 -7 -24 -7 -36 -2 -28 13 -33 14 -71 14 -41 0 -47 -2 -60
-16 -13 -14 -20 -20 -23 -20 -3 0 -10 6 -23 20 -14 16 -16 16 -85 16 l-61 -1
-6 6 -6 6 0 137 c0 75 -1 148 -1 161 l-1 23 6 5 c5 5 7 5 19 5 10 -1 15 -2 18
-5z m960 -63 c3 -1 8 -5 12 -8 11 -10 28 -18 47 -21 15 -2 21 -7 25 -20 4 -15
0 -24 -16 -42 -5 -6 -12 -15 -16 -21 -9 -14 -13 -16 -25 -16 -7 0 -10 1 -14 5
-5 4 -5 6 -4 25 0 30 -5 37 -31 44 -12 3 -17 8 -20 20 -2 9 0 22 6 29 7 8 24
11 36 5z m-1163 -54 c3 -2 9 -7 13 -13 4 -5 14 -16 22 -25 l14 -15 -1 -9 c0
-5 -1 -11 -2 -13 -3 -17 -3 -24 -1 -34 2 -10 1 -12 -1 -16 -6 -10 -22 -2 -18
9 1 3 2 6 2 6 -1 1 -1 7 -1 13 0 7 -1 13 -2 14 0 1 -1 3 -1 5 -1 7 -24 19 -45
23 -13 3 -19 8 -22 21 -2 9 0 22 6 29 7 8 25 11 37 5z m40 -197 c7 -4 10 -11
10 -24 0 -15 -4 -20 -24 -28 -54 -21 -71 -17 -69 16 0 6 11 17 23 22 5 3 14 8
19 10 15 9 31 11 41 4z m1226 -50 c3 -5 3 -5 0 -10 -2 -3 -5 -5 -7 -5 -2 0 -5
2 -7 5 -3 5 -3 5 0 10 2 3 5 5 7 5 2 0 5 -2 7 -5z m-1149 -37 c5 -5 5 -15 0
-20 -9 -9 -24 -2 -24 10 0 8 6 14 14 14 3 0 8 -2 10 -4z m-194 -49 c12 -5 18
-20 14 -36 -6 -29 -16 -45 -25 -45 -7 0 -17 8 -21 17 -12 25 -14 38 -9 49 6
15 24 21 41 15z m1379 -23 c5 -5 6 -7 6 -16 0 -15 -8 -23 -23 -23 -9 0 -11 1
-16 7 -9 8 -9 23 -1 32 9 9 24 9 34 0z m-1182 -22 c4 -4 4 -12 0 -16 -5 -7
-19 -1 -19 8 0 9 14 15 19 8z m1032 -46 c7 -6 7 -19 1 -25 -6 -7 -19 -7 -25
-1 -7 6 -7 19 -1 25 6 7 19 7 25 1z m-1138 -34 c10 -9 3 -26 -10 -26 -8 0 -15
7 -15 15 0 13 16 20 25 11z m1324 -40 c8 -10 0 -47 -13 -62 -9 -11 -33 -12
-42 -2 -8 7 -9 25 -2 39 4 9 17 24 23 27 11 7 27 5 34 -2z m-1224 -25 c12 -12
3 -31 -13 -31 -11 0 -18 7 -18 18 0 11 7 18 18 18 6 0 9 -1 13 -5z m-179 -20
c21 -9 20 -45 -2 -54 -10 -5 -28 -1 -34 6 -9 10 -9 32 0 42 7 8 24 11 36 6z
m1208 -96 l-5 -5 -4 4 -5 5 4 4 5 5 4 -4 5 -5 -4 -4z m165 2 c12 -7 14 -33 3
-43 -8 -9 -32 -9 -40 0 -9 8 -9 32 0 41 7 7 27 8 37 2z m-1290 -11 c4 -6 4
-24 -1 -30 -7 -9 -27 -9 -34 0 -5 6 -5 24 0 30 7 9 27 9 35 0z m-70 -175 c12
-12 3 -31 -13 -31 -11 0 -18 7 -18 18 0 11 7 18 18 18 6 0 9 -1 13 -5z m1196
-8 c6 -4 6 -6 6 -20 0 -14 0 -16 -6 -20 -4 -4 -7 -5 -18 -5 -11 0 -14 1 -18 5
-6 4 -6 6 -6 20 0 14 0 16 6 20 4 4 7 5 18 5 11 0 14 -1 18 -5z"/>
<path d="M1507 3823 c-2 -1 -5 -2 -6 -3 -1 -2 -2 -20 0 -27 0 -1 -2 -3 -5 -4
-4 -2 -3 -3 10 -6 11 -2 17 -3 21 -1 l6 2 0 18 0 18 -6 2 c-6 2 -13 2 -20 1z"/>
</g>
</svg>
