<?xml version="1.0" standalone="no"?>
<!DOCTYPE svg PUBLIC "-//W3C//DTD SVG 20010904//EN"
 "http://www.w3.org/TR/2001/REC-SVG-20010904/DTD/svg10.dtd">
<svg version="1.0" xmlns="http://www.w3.org/2000/svg"
 width="1107.000000pt" height="2870.000000pt" viewBox="0 0 1107.000000 2870.000000"
 preserveAspectRatio="xMidYMid meet">
<metadata>
Created by potrace 1.15, written by Peter Selinger 2001-2017
</metadata>
<g transform="translate(0.000000,2870.000000) scale(0.500000,-0.500000)"
fill="#000000" stroke="none">
<path d="M560 3847 c-25 -9 -32 -20 -32 -50 0 -21 3 -30 13 -40 13 -13 28 -11
49 8 11 11 28 39 28 47 0 12 -11 28 -23 32 -6 2 -31 4 -35 3z"/>
<path d="M1175 3843 c-11 -5 -17 -11 -21 -23 -3 -9 -3 -147 0 -152 2 -3 1 -4
0 -4 -2 0 -1 -1 2 -2 l5 -2 -5 0 c-3 0 -8 -2 -10 -5 l-5 -6 -154 1 c-164 0
-172 1 -182 10 -9 9 -8 33 2 41 3 3 11 6 21 8 31 6 43 14 57 37 11 20 15 33
12 46 -6 21 -22 31 -52 32 -16 0 -19 -1 -26 -4 -9 -6 -18 -21 -21 -37 -2 -11
-5 -15 -14 -17 -17 -3 -28 4 -28 19 0 9 -5 31 -8 33 -1 1 -2 3 -3 4 -1 5 -16
12 -25 13 -4 0 -15 1 -24 2 -22 2 -33 -1 -41 -10 -4 -4 -7 -8 -7 -10 0 -5 -13
-30 -19 -38 -4 -5 -7 -9 -7 -10 0 -1 -3 -6 -7 -10 -4 -5 -7 -9 -7 -10 0 -1 -3
-5 -7 -8 -4 -4 -10 -13 -14 -20 -10 -18 -9 -18 -23 -23 -20 -7 -32 -18 -34
-33 -1 -2 -4 -6 -7 -10 l-6 -6 -117 1 c-64 0 -120 0 -124 -1 -11 -2 -28 -22
-28 -33 0 0 -3 -4 -6 -7 l-5 -5 -6 6 c-3 3 -5 6 -5 7 0 1 -2 5 -4 10 -5 10
-16 20 -24 22 -8 1 -128 0 -132 -1 -10 -4 -14 -6 -18 -11 -7 -9 -9 -22 -5 -37
1 -3 2 -7 2 -9 1 -2 2 -6 2 -8 1 -2 2 -5 2 -7 0 -2 1 -5 2 -8 2 -10 11 -26 18
-31 16 -12 4 -11 236 -11 l212 1 6 -6 6 -6 -1 -34 c0 -20 1 -37 2 -41 3 -9 15
-23 24 -27 16 -6 22 -17 14 -24 -5 -6 -7 -6 -22 0 -11 4 -16 5 -25 4 -5 0 -11
-1 -11 -1 -2 0 -3 -1 -20 -20 -38 -43 -38 -43 -90 -41 -18 0 -34 1 -36 1 -2 1
-6 2 -9 3 -3 1 -10 3 -15 6 -17 8 -42 3 -51 -9 -4 -7 -14 -12 -22 -12 -10 0
-14 6 -16 23 -1 17 -6 30 -14 37 -3 3 -18 10 -33 16 -15 6 -30 12 -33 13 -40
18 -51 19 -65 6 -10 -11 -10 -8 -10 -182 l0 -163 5 -11 c5 -11 11 -17 27 -28
9 -6 12 -11 12 -24 0 -13 -3 -18 -12 -24 -16 -11 -22 -17 -27 -28 l-5 -11 0
-110 c0 -72 1 -112 2 -115 4 -11 23 -23 37 -23 4 0 7 -2 10 -5 3 -5 3 -5 0
-10 -3 -3 -6 -5 -10 -5 -14 0 -33 -12 -37 -23 -1 -3 -2 -61 -2 -177 l0 -172 5
-11 c5 -11 10 -16 27 -28 11 -8 13 -12 13 -25 0 -13 -2 -17 -13 -25 -17 -12
-22 -17 -27 -28 l-5 -11 0 -83 c0 -103 -1 -98 30 -120 7 -4 13 -10 15 -13 9
-15 25 -25 39 -24 14 0 38 6 62 15 14 5 33 12 42 15 9 4 18 8 20 9 2 2 4 3 5
3 4 0 17 11 20 17 4 8 4 28 0 41 -2 9 1 12 18 21 23 11 27 21 27 59 l-1 27 6
6 c6 6 7 6 29 6 20 0 24 1 32 5 12 6 28 12 32 12 2 0 5 -2 7 -5 3 -5 3 -6 0
-14 -2 -4 -5 -9 -6 -10 -5 -5 -11 -16 -14 -25 -4 -12 -4 -39 0 -49 4 -9 14
-21 18 -21 2 0 3 -1 3 -2 0 -2 0 -2 22 -3 76 -6 211 45 233 88 9 16 9 18 9
162 l0 138 6 11 c4 8 6 10 6 7 0 -8 29 -27 41 -27 3 0 10 -4 23 -13 10 -9 28
-10 37 -3 5 4 15 24 18 34 6 23 47 23 54 0 6 -20 15 -33 28 -39 10 -5 11 -5
72 -5 l62 0 5 -6 5 -5 -8 -23 c-8 -21 -32 -72 -35 -74 -1 -1 -2 -3 -3 -6 -3
-6 -30 -45 -36 -51 -1 -1 -7 -7 -12 -14 -34 -41 -116 -113 -156 -137 -4 -3 -8
-5 -9 -6 -1 -2 -20 -14 -36 -23 -5 -3 -13 -9 -19 -12 -5 -4 -15 -9 -21 -12
-12 -7 -29 -22 -37 -34 -8 -11 -13 -15 -27 -16 -26 -3 -35 -10 -36 -28 0 -8 1
-12 5 -18 3 -4 5 -8 5 -9 0 -3 13 -17 20 -20 16 -8 25 -7 62 4 46 14 87 27
128 43 34 12 43 16 62 25 6 2 10 4 11 4 4 0 113 54 120 60 1 1 7 4 12 7 10 6
55 35 57 37 1 1 7 5 14 10 7 5 14 10 15 11 1 1 5 4 9 7 34 25 87 77 110 107 5
7 10 13 12 15 1 1 5 6 7 11 3 4 7 10 9 12 11 11 9 31 -4 51 -9 13 -11 25 -6
38 7 17 43 17 50 0 3 -8 3 -22 0 -30 -2 -6 -2 -25 1 -36 1 -4 6 -11 15 -20 2
-2 6 -7 10 -12 4 -5 11 -12 14 -16 7 -8 39 -50 49 -64 15 -20 47 -69 47 -71 0
0 3 -6 6 -11 10 -17 33 -64 40 -81 3 -9 7 -18 8 -20 1 -2 3 -8 5 -13 7 -20 16
-26 40 -27 20 -1 24 -3 34 -14 16 -19 37 -22 71 -9 39 14 73 49 92 93 17 40
18 101 1 143 -7 17 -11 26 -13 31 -1 2 -4 7 -6 11 -18 32 -46 66 -67 78 -9 6
-22 17 -43 36 -4 3 -10 8 -13 9 -3 2 -7 5 -9 6 -2 1 -12 7 -23 13 -18 9 -21
10 -30 9 -11 -1 -25 -9 -31 -17 -4 -6 -18 -14 -23 -14 -5 0 -23 -10 -33 -18
-5 -5 -13 -9 -17 -11 -6 -3 -7 -3 -11 2 l-4 4 5 13 c2 7 7 19 10 26 8 19 8 40
-1 51 -2 3 -12 9 -21 13 -21 10 -23 13 -16 28 2 6 6 14 7 18 3 8 12 12 24 13
14 0 21 -4 28 -15 13 -21 27 -29 62 -40 l19 -6 59 0 60 1 20 11 c11 5 23 10
26 10 3 0 15 -5 26 -10 l20 -11 25 0 c36 -1 53 6 63 26 2 6 5 12 6 13 1 2 2 5
2 7 0 1 1 3 2 3 2 1 3 7 3 19 1 25 0 26 -45 64 -2 2 -6 5 -7 6 -1 1 -7 6 -12
10 -6 4 -11 9 -12 10 -7 5 -8 7 -14 10 -9 6 -28 4 -44 -5 -10 -7 -18 -7 -31
-3 -11 4 -31 3 -41 -2 -18 -9 -33 -1 -33 16 0 17 15 25 33 16 15 -7 37 -5 42
3 2 4 3 24 1 24 -1 0 -2 3 -3 6 0 3 -4 8 -11 13 -13 10 -30 27 -30 29 0 1 -1
2 -3 2 -1 0 -3 1 -3 2 -1 2 -7 3 -13 4 -14 1 -26 -4 -29 -10 -1 -3 -22 -31
-45 -64 -24 -34 -44 -62 -44 -63 -1 -1 -5 -5 -11 -7 -9 -5 -11 -5 -53 -6 l-45
0 -5 5 c-6 6 -6 6 -4 16 1 6 3 16 4 22 1 7 2 13 2 15 2 7 9 71 10 88 0 14 0
15 6 20 l6 6 84 0 c77 1 85 1 91 5 7 4 25 6 33 4 3 0 9 -5 15 -10 5 -4 13 -11
17 -14 4 -3 10 -8 13 -10 2 -3 6 -5 7 -5 9 -1 23 1 27 3 5 3 13 11 11 11 -1 0
-1 1 0 3 2 1 5 11 9 22 21 66 47 107 88 141 14 12 26 19 52 32 32 15 41 25 48
53 2 9 2 12 -1 22 -5 18 -14 25 -38 34 -22 7 -67 24 -80 30 -22 10 -25 11 -24
14 1 9 24 16 62 19 31 2 40 5 56 21 16 16 19 26 15 45 -2 7 -12 15 -65 50 -51
34 -54 36 -63 36 -11 0 -23 -4 -28 -10 -10 -11 -24 -13 -32 -5 -5 5 -5 12 -1
26 2 8 3 13 1 21 -2 12 -3 10 27 26 45 24 54 57 21 80 -10 8 -24 16 -62 41 -8
5 -21 14 -29 19 -8 5 -20 13 -28 18 -16 10 -33 21 -57 36 -22 15 -25 16 -32
16 -18 0 -30 -9 -38 -29 -14 -34 -61 -130 -67 -136 -9 -9 -15 -6 -26 10 -4 7
-8 12 -9 13 -2 2 -21 32 -29 46 -14 26 -23 45 -23 51 0 7 7 18 12 20 7 2 22
18 27 30 5 10 6 16 7 38 2 34 5 39 23 39 7 0 13 -2 26 -9 27 -15 40 -12 48 10
2 6 3 13 3 16 -2 30 4 38 26 38 22 0 28 -8 26 -38 0 -7 5 -24 10 -29 10 -10 6
-10 145 -10 l130 0 12 5 c7 3 17 9 22 13 l9 9 0 13 c-1 14 -1 14 -13 25 l-11
11 0 13 c0 18 -5 34 -14 42 -16 14 -51 40 -62 45 -10 5 -22 5 -37 -1 -14 -5
-25 -7 -27 -6 -4 2 -22 1 -32 -2 -5 -2 -14 -7 -20 -12 -10 -9 -11 -9 -23 -9
-13 0 -13 0 -25 11 l-12 11 -13 0 c-16 0 -18 -2 -34 -24 -3 -6 -7 -10 -8 -10
-1 0 -4 -2 -8 -4 -6 -5 -8 -5 -68 -6 l-62 -1 -6 6 c-6 6 -6 7 -5 22 0 21 3 25
22 37 22 13 35 30 43 55 4 11 4 13 2 23 -6 23 -19 30 -62 33 -8 0 -40 3 -72 6
-32 3 -64 5 -72 6 -8 1 -18 2 -24 2 -51 5 -102 9 -107 9 -3 0 -10 -2 -15 -5z
m154 -54 c12 -7 14 -33 3 -43 -8 -9 -32 -9 -40 0 -9 8 -9 32 0 41 7 7 27 8 37
2z m-108 -134 c7 -7 7 -19 0 -26 -9 -9 -29 -5 -29 5 0 2 -1 4 -3 4 -1 0 -2 2
-1 6 0 5 1 6 2 4 1 -2 2 -2 2 1 0 11 20 15 29 6z m-533 -13 c1 0 5 -3 8 -6 5
-5 6 -7 6 -18 0 -11 -1 -13 -6 -18 -6 -6 -7 -6 -18 -6 -11 0 -12 0 -18 6 -5 5
-6 7 -6 17 0 14 3 20 12 24 5 2 8 2 22 1z m390 -36 c4 -5 4 -5 -1 -10 l-4 -4
-4 4 c-5 4 -5 5 -1 9 4 6 5 6 10 1z m-199 -38 c2 -4 6 -10 8 -14 4 -10 11 -19
22 -24 l9 -4 111 0 112 1 6 -6 6 -6 -1 -19 c-2 -28 -4 -31 -50 -77 -36 -37
-40 -41 -50 -44 -9 -3 -24 -3 -130 -3 -88 0 -123 -1 -129 -2 -18 -6 -25 -22
-22 -49 1 -9 1 -11 -2 -12 -4 -2 -8 0 -31 18 -9 8 -20 16 -24 19 -4 3 -8 6 -9
7 -2 2 -15 12 -26 20 -3 2 -7 5 -9 7 -3 2 -5 4 -6 4 -1 0 -2 1 -3 3 -2 5 12
12 30 15 55 8 104 28 123 49 10 12 16 30 16 49 0 11 5 32 9 35 0 1 1 3 1 5 0
2 1 4 2 4 1 0 3 4 5 9 6 14 12 21 20 21 5 0 8 -1 12 -6z m463 -159 c7 -6 10
-22 12 -61 2 -50 0 -72 -4 -76 -3 -2 -6 -4 -7 -4 -33 -2 -38 0 -49 19 -3 6 -7
11 -8 11 -1 0 -2 1 -2 3 0 1 -1 3 -3 4 -2 0 -3 2 -2 3 1 1 0 2 -1 2 -6 0 7 7
15 8 9 0 32 9 40 15 5 4 5 4 4 18 -1 14 -1 15 -7 20 -4 4 -11 9 -15 13 -5 4
-11 9 -13 11 -9 6 1 14 18 17 17 2 17 2 22 -3z m-74 -84 c6 -1 11 -5 6 -5 -1
0 -2 -1 -1 -2 0 0 -1 -1 -4 -2 -2 0 -6 0 -8 -1 -6 -1 -12 6 -9 10 2 2 4 2 6 2
2 -1 6 -2 10 -2z m-606 -27 c5 -5 5 -11 0 -16 -10 -10 -27 5 -16 16 4 4 12 4
16 0z m306 -17 c3 -2 7 -6 10 -10 6 -9 20 -18 30 -21 5 -1 11 -5 14 -8 l6 -5
-6 -25 c-3 -14 -6 -27 -7 -30 0 -3 -3 -13 -6 -22 -7 -29 -13 -32 -31 -15 -20
18 -22 20 -54 41 -6 4 -31 17 -44 23 -4 1 -14 6 -23 10 -9 3 -19 9 -23 13 -5
5 -5 6 -2 9 7 6 14 7 39 7 32 0 46 6 59 23 3 4 7 8 10 10 6 4 21 4 28 0z
m-400 -9 c5 -5 5 -15 0 -20 -9 -9 -24 -2 -24 10 0 8 6 14 14 14 3 0 8 -2 10
-4z m844 -17 c9 -7 11 -25 3 -42 -8 -14 -8 -34 -1 -39 5 -4 26 -10 29 -10 14
3 23 -5 23 -21 0 -5 -1 -11 -2 -12 -6 -7 -13 -43 -10 -53 1 -3 1 -11 -1 -20
-3 -23 -1 -35 12 -66 15 -37 14 -45 -6 -49 -3 -1 -6 -3 -8 -5 -3 -3 -25 -33
-38 -51 -4 -5 -12 -17 -19 -25 -6 -9 -14 -20 -18 -26 -5 -7 -10 -12 -17 -15
l-10 -5 -112 0 c-62 0 -115 -1 -118 -2 -11 -3 -22 -10 -30 -18 -11 -11 -18
-15 -30 -15 -19 0 -28 10 -28 29 1 10 5 21 10 23 10 4 18 5 29 3 8 -2 14 -2
21 0 6 1 11 2 13 2 4 1 31 29 51 54 7 8 12 15 13 16 2 2 18 23 20 27 1 3 3 6
4 7 5 6 35 52 46 71 3 5 6 11 9 15 26 45 66 135 77 175 2 6 5 12 10 16 10 9
22 26 20 28 0 1 0 1 1 1 1 -1 4 1 8 3 13 9 37 11 49 4z m268 -34 c3 -3 1 -9
-6 -20 -6 -10 -7 -23 -4 -42 2 -14 2 -15 -1 -19 -5 -6 -16 -5 -30 2 -12 6 -15
8 -38 29 -23 21 -21 24 26 40 47 15 49 15 53 10z m-1229 -20 l6 -6 0 -94 0
-94 -6 -6 -6 -6 -30 0 -30 0 -6 6 -6 6 0 94 0 94 6 6 6 6 30 0 30 0 6 -6z
m308 -54 c11 -25 27 -73 30 -95 1 -3 1 -7 2 -9 0 -2 1 -9 2 -16 1 -6 2 -14 2
-16 1 -2 1 -14 1 -26 0 -43 11 -63 46 -82 4 -2 7 -5 8 -5 1 -1 3 -2 5 -3 18
-7 35 1 45 22 7 14 12 18 24 18 15 0 23 -8 23 -23 0 -8 -2 -11 -5 -15 -4 -4
-29 -18 -33 -18 -3 0 -16 -15 -29 -34 -7 -10 -14 -21 -16 -24 -4 -5 -15 -20
-16 -21 -1 -1 -4 -5 -8 -10 -11 -14 -27 -33 -37 -43 -51 -54 -51 -54 -57 -38
-3 9 -3 433 1 440 3 7 8 10 9 6 0 -1 2 -5 3 -8z m905 -71 c5 -5 6 -7 6 -17 0
-16 -7 -23 -23 -23 -10 0 -12 1 -17 6 -5 5 -6 7 -6 17 0 16 7 23 23 23 10 0
12 -1 17 -6z m-533 -70 c4 -6 4 -24 -1 -30 -7 -9 -27 -9 -34 0 -5 6 -5 24 0
30 7 9 27 9 35 0z m498 -42 c4 -5 4 -6 4 -44 -1 -43 -1 -44 -13 -44 -11 0 -13
5 -15 30 0 12 -1 23 -2 24 -2 4 -3 7 -4 18 -1 9 -1 10 4 15 7 7 19 7 26 1z
m-1059 -30 c5 -6 5 -12 0 -18 -7 -8 -22 -2 -22 9 0 11 15 17 22 9z m1230 -6
c5 -5 6 -7 6 -17 0 -16 -7 -23 -23 -23 -10 0 -12 1 -17 6 -5 5 -6 7 -6 17 0
16 7 23 23 23 10 0 12 -1 17 -6z m-313 -35 c3 -3 3 -3 0 -6 -4 -5 -11 1 -7 6
4 4 4 4 7 0z m-1036 -26 l6 -6 0 -98 0 -98 -6 -6 -6 -6 -30 0 -30 0 -6 6 -6 6
0 98 0 98 6 6 6 6 30 0 30 0 6 -6z m-281 -35 c10 -5 14 -14 16 -30 0 -13 0
-14 -6 -20 -5 -5 -7 -6 -17 -6 -19 0 -27 12 -24 36 2 21 14 29 31 20z m996
-120 c6 -6 3 -16 -8 -29 -8 -8 -16 -25 -17 -36 0 -4 -1 -18 -2 -30 -1 -12 -3
-36 -4 -54 -3 -31 -4 -32 -9 -37 l-6 -6 -173 0 c-152 0 -173 0 -182 -3 -5 -2
-9 -4 -9 -5 0 -2 -1 -2 -3 -1 -2 0 -3 -1 -4 -4 -1 -2 -3 -8 -5 -13 -2 -4 -5
-11 -5 -14 -2 -9 -5 -11 -14 -8 -11 3 -21 3 -26 1 -5 -3 -18 -2 -25 0 -20 9
-20 45 0 54 7 3 20 3 26 0 5 -3 25 0 31 4 11 7 13 13 12 33 0 23 -5 34 -18 45
-14 11 -21 19 -21 23 -1 5 -1 11 0 16 0 8 20 24 31 25 3 0 10 -12 12 -21 1 -9
17 -30 23 -32 16 -4 20 -3 53 14 18 9 34 18 37 20 3 2 6 4 6 4 2 0 32 18 39
23 14 10 23 13 38 13 8 0 47 0 88 -1 79 -1 86 -1 101 9 20 14 28 16 34 10z
m-531 -80 c7 -6 7 -19 1 -25 -6 -7 -19 -7 -25 -1 -7 6 -7 19 -1 25 6 7 19 7
25 1z m-329 -21 c3 -3 5 -9 7 -28 4 -23 4 -23 -1 -27 -4 -5 -4 -5 -11 -1 -8 4
-23 34 -23 45 0 15 18 22 28 11z m151 -83 c3 -3 3 -6 2 -17 0 -8 -1 -34 -2
-57 -1 -38 -1 -46 2 -58 3 -10 4 -20 3 -30 -2 -37 -1 -38 5 -43 7 -6 26 -12
34 -11 15 1 23 -20 12 -31 -5 -5 -6 -6 -25 -4 -18 1 -100 1 -102 0 0 0 -3 2
-7 6 l-6 6 1 28 c0 26 0 30 -4 37 -5 11 -17 16 -33 16 -28 -1 -34 1 -39 10 -4
7 -3 27 1 33 6 9 9 10 38 9 16 0 28 5 33 16 4 7 4 11 4 44 l-1 37 6 6 6 6 34
1 c32 0 34 0 38 -4z m-237 -170 c5 -5 6 -7 6 -17 0 -16 -7 -23 -23 -23 -16 0
-23 7 -23 23 0 16 7 23 23 23 10 0 12 -1 17 -6z m1415 -157 c4 -3 6 -7 6 -13
2 -18 0 -23 -15 -34 -8 -5 -14 -12 -14 -13 -1 -12 0 -24 3 -28 11 -17 6 -41
-9 -48 -26 -10 -49 9 -42 36 2 9 13 21 19 21 3 0 12 8 15 13 2 6 1 27 -2 29
-2 1 -3 7 -3 17 0 14 0 16 6 20 8 7 28 7 36 0z m-1369 -7 c5 -5 5 -15 0 -20
-9 -9 -24 -2 -24 10 0 8 6 14 14 14 3 0 8 -2 10 -4z m325 -25 c4 -4 5 -7 5
-15 0 -14 -6 -20 -20 -20 -14 0 -20 6 -20 20 0 14 6 20 20 20 8 0 11 -1 15 -5z"/>
<path d="M1699 3773 l-8 -8 1 -13 c2 -27 15 -35 44 -25 15 6 19 18 13 38 -5
14 -10 17 -28 17 -13 0 -13 0 -22 -9z"/>
</g>
</svg>
