<?xml version="1.0" standalone="no"?>
<!DOCTYPE svg PUBLIC "-//W3C//DTD SVG 20010904//EN"
 "http://www.w3.org/TR/2001/REC-SVG-20010904/DTD/svg10.dtd">
<svg version="1.0" xmlns="http://www.w3.org/2000/svg"
 width="1106.000000pt" height="2870.000000pt" viewBox="0 0 1106.000000 2870.000000"
 preserveAspectRatio="xMidYMid meet">
<metadata>
Created by potrace 1.15, written by Peter Selinger 2001-2017
</metadata>
<g transform="translate(0.000000,2870.000000) scale(0.500000,-0.500000)"
fill="#000000" stroke="none">
<path d="M560 3849 c-17 -6 -26 -14 -30 -28 -2 -6 -2 -25 -2 -61 1 -61 2 -65
19 -79 20 -17 22 -19 21 -35 0 -10 -9 -18 -19 -18 -4 0 -36 1 -70 2 -34 1
-126 1 -204 1 l-142 0 -18 -8 c-15 -6 -21 -7 -34 -8 -20 -1 -30 -4 -34 -13 -4
-7 -5 -18 -2 -26 0 -3 1 -7 2 -10 1 -3 2 -7 2 -8 1 -2 1 -6 2 -8 2 -10 12 -26
18 -31 16 -12 4 -11 236 -11 l212 1 6 -6 c6 -6 6 -7 5 -21 0 -7 1 -21 3 -30 6
-30 4 -40 -8 -45 -9 -4 -25 1 -34 10 -15 16 -53 33 -70 30 -14 -2 -20 -9 -31
-30 -2 -4 -9 -13 -15 -20 -6 -6 -13 -15 -15 -20 -5 -9 -6 -23 -1 -25 1 -1 1
-2 0 -2 -1 0 1 -2 4 -4 8 -5 27 -6 31 -1 2 2 7 5 11 7 18 9 28 3 26 -16 -1 -6
-2 -19 -2 -29 -1 -16 -7 -36 -11 -39 -2 -2 -10 -19 -13 -32 -7 -22 -24 -29
-48 -18 -13 6 -33 5 -40 -2 -6 -6 -7 -7 -25 -64 -9 -28 -18 -54 -19 -58 -2 -4
-10 -26 -18 -50 -17 -47 -18 -54 -10 -76 2 -5 3 -13 3 -20 0 -10 -1 -11 -7
-17 -4 -4 -12 -9 -17 -12 -11 -6 -23 -17 -28 -27 -11 -23 -24 -57 -24 -65 0
-7 -9 -27 -18 -38 -4 -6 -22 -38 -39 -71 -31 -63 -48 -95 -65 -124 -6 -9 -10
-17 -10 -17 0 0 -5 -8 -10 -17 -13 -21 -15 -25 -13 -36 4 -32 42 -44 66 -23 4
4 9 8 12 10 3 2 7 5 8 6 1 1 7 6 12 10 6 4 14 11 19 16 8 7 27 23 39 34 22 19
57 54 57 58 0 3 1 3 1 1 1 -2 2 -3 4 -3 5 2 7 -11 7 -67 0 -32 1 -60 2 -64 2
-8 13 -24 16 -24 4 0 18 -17 18 -21 0 -4 -10 -16 -18 -22 -3 -1 -8 -7 -11 -12
l-6 -10 0 -54 c0 -65 0 -66 0 -274 0 -191 -3 -172 23 -171 8 1 14 0 15 -1 0
-1 1 0 1 1 0 6 8 18 13 24 4 3 8 4 18 4 15 0 19 -2 26 -16 11 -22 27 -32 46
-29 8 1 39 10 52 16 47 20 71 38 82 61 l6 13 0 250 c1 279 2 259 -12 266 -7 3
-23 7 -28 7 -8 0 -16 5 -30 19 -17 17 -19 22 -13 32 6 9 29 21 46 24 7 1 25
13 29 18 9 12 9 15 9 111 0 75 -1 93 -3 109 -3 15 -3 20 -1 33 1 8 3 20 4 27
1 8 3 15 7 20 3 4 5 7 5 6 0 -6 31 23 37 35 l4 10 6 -9 5 -8 0 -152 0 -153 5
-19 c6 -24 6 -32 0 -56 l-5 -19 0 -160 c1 -147 1 -160 5 -170 8 -27 9 -32 0
-60 -5 -16 -6 -40 -2 -51 4 -9 14 -21 18 -21 2 0 3 -1 3 -2 0 -2 0 -2 22 -3
19 -2 44 1 70 7 16 4 19 5 44 15 36 14 66 35 78 54 4 7 7 15 11 34 1 5 5 11 7
10 1 -1 2 1 3 2 0 3 1 2 1 -1 0 -8 11 -29 19 -35 8 -8 25 -13 36 -12 5 0 16 2
26 3 111 13 138 19 150 35 9 11 19 21 22 21 3 0 11 -4 28 -13 15 -7 20 -7 66
3 4 1 10 3 13 3 39 9 46 14 59 40 10 21 13 23 26 23 7 0 12 -1 20 -7 25 -17
32 -18 64 -7 13 4 26 9 28 10 2 1 10 4 18 7 8 2 26 9 40 15 30 12 40 14 42 9
0 -2 0 -3 -1 -3 -2 0 -2 -1 -1 -1 0 -1 -2 -4 -5 -7 -4 -3 -6 -7 -7 -8 0 -5 -8
-16 -12 -18 -2 -1 -9 -4 -16 -6 -17 -5 -46 -24 -50 -33 -4 -8 -4 -28 -1 -36 5
-13 0 -35 -12 -49 -7 -8 -34 -21 -38 -18 -3 4 -6 12 -7 20 0 12 -8 25 -17 30
-11 6 -20 4 -47 -10 -58 -29 -123 -55 -206 -82 -33 -11 -64 -22 -68 -24 -16
-8 -28 -12 -45 -14 -24 -3 -47 -8 -48 -10 0 -1 -1 -2 -3 -2 -1 0 -4 -3 -7 -7
-4 -6 -5 -7 -10 -6 -20 4 -31 3 -73 -6 -44 -10 -54 -13 -63 -19 -24 -17 -16
-69 12 -85 11 -6 12 -6 36 -6 25 0 80 2 107 4 8 1 21 1 30 2 31 2 45 15 48 47
2 19 12 28 30 27 15 -1 23 -6 27 -20 11 -36 24 -43 65 -37 13 2 28 4 33 5 11
2 51 8 59 10 3 1 22 4 41 8 79 16 181 45 205 59 11 6 38 15 51 17 7 1 46 17
63 25 4 2 15 7 23 11 15 7 28 18 28 24 1 4 1 4 4 14 5 17 8 18 42 17 l29 0 18
8 c18 9 42 22 51 28 3 2 9 6 13 8 10 7 39 25 44 29 2 1 7 5 11 7 11 8 16 17
16 29 0 15 -1 16 -26 35 -9 7 -13 15 -13 27 0 12 2 15 12 26 7 7 7 8 7 23 0
17 -1 19 -10 24 -11 5 -17 9 -22 13 -6 3 -44 17 -49 17 -2 0 -7 2 -12 4 -17 7
-19 26 -2 36 9 6 13 12 13 24 0 13 -3 22 -10 25 -3 1 -33 20 -67 42 -59 37
-73 46 -89 51 -13 4 -16 10 -15 22 1 6 3 13 4 15 2 2 3 9 4 16 1 16 5 20 17
18 6 0 14 -2 18 -5 5 -2 15 -4 22 -4 12 0 14 0 19 5 7 7 8 14 5 29 -4 26 5 40
27 41 15 1 25 -7 29 -20 3 -12 -3 -33 -9 -33 -1 0 -4 -2 -7 -4 -3 -4 -4 -6 -4
-19 0 -17 4 -23 18 -26 4 -1 8 -2 9 -2 45 -12 50 -13 63 -6 13 7 18 15 26 49
11 42 28 80 46 105 10 14 10 14 10 27 -1 11 -1 14 -8 23 -5 5 -9 12 -9 14 -2
7 3 21 11 31 14 19 9 44 -14 72 -12 15 -36 20 -69 14 -24 -5 -30 -4 -53 5 -9
4 -18 7 -19 7 -1 0 -5 3 -8 6 l-6 6 8 9 c5 6 11 14 14 18 3 4 7 9 7 10 8 10
20 26 20 27 0 1 2 3 4 5 2 2 10 15 18 28 16 26 21 30 44 37 28 8 58 31 64 49
4 13 0 29 -9 38 -13 12 -44 39 -60 52 -9 8 -25 21 -27 23 -3 3 -30 26 -35 30
-3 2 -9 7 -13 11 -12 11 -35 30 -41 35 -3 2 -12 9 -19 16 -24 21 -30 25 -45
23 -21 -3 -27 -22 -14 -48 6 -12 7 -27 2 -36 -1 -3 -8 -11 -14 -18 -6 -7 -11
-13 -11 -13 0 -5 -18 -20 -23 -20 -15 -1 -26 4 -31 13 -2 3 -5 6 -7 8 -5 3
-31 6 -34 4 -4 -3 -7 -11 -6 -13 1 -1 0 -2 -2 -2 -2 0 -3 -1 -1 -1 1 -1 2 -4
2 -8 0 -8 4 -13 14 -18 19 -10 19 -17 3 -60 -9 -23 -14 -31 -17 -31 -3 0 -29
-13 -36 -18 -9 -6 -13 -11 -17 -19 -4 -7 -21 -34 -23 -35 -1 -1 -4 -6 -8 -11
-7 -12 -16 -17 -28 -17 -16 0 -111 45 -150 72 -9 6 -19 12 -22 14 l-6 3 8 5 7
5 100 1 c104 2 105 2 105 4 0 1 1 2 3 2 2 0 15 11 15 13 0 1 3 5 6 10 3 5 6 9
6 10 0 1 3 6 8 11 4 6 10 15 15 22 4 7 8 12 10 12 1 0 2 3 3 8 0 4 1 7 2 8 2
0 0 14 -2 14 -2 0 -2 -1 -1 -3 1 -3 1 -3 -2 -1 -2 1 -3 3 -2 4 0 1 -4 3 -9 6
-10 4 -13 4 -93 4 l-84 0 -8 6 c-5 4 -7 6 -4 6 1 0 3 1 3 2 0 1 3 7 8 14 8 14
19 21 39 25 23 5 43 20 56 44 7 13 7 14 4 32 -2 8 8 18 27 28 35 18 47 39 46
82 l-1 24 6 6 6 6 41 -1 c45 0 51 1 62 10 6 5 7 6 7 17 l0 12 -13 14 c-7 7
-15 17 -17 23 -2 5 -5 10 -6 11 0 1 -1 4 -1 6 0 3 -4 9 -10 14 -12 13 -25 17
-47 17 -15 -1 -16 -1 -22 5 l-6 6 1 27 c1 25 1 28 6 34 3 4 6 7 8 8 12 2 33
22 43 40 14 27 14 49 0 62 -11 10 -21 13 -53 15 -9 0 -50 4 -91 7 -69 6 -76 6
-89 3 -14 -2 -15 -2 -20 1 -3 1 -6 3 -7 2 0 0 -6 1 -13 3 -17 4 -54 6 -64 3
-27 -8 -35 -39 -20 -75 5 -12 6 -16 6 -23 0 -4 -1 -10 -2 -13 -5 -12 -3 -29 3
-42 8 -16 8 -26 0 -41 -5 -10 -7 -13 -16 -17 l-10 -5 -73 0 -73 0 -10 -5 c-11
-5 -16 -11 -26 -27 -6 -12 -10 -14 -21 -14 -11 0 -15 3 -22 15 -3 6 -8 12 -10
14 -4 3 -31 5 -33 2 0 -1 -5 -6 -10 -10 -11 -9 -24 -10 -32 -3 -5 5 -5 6 -4
23 0 10 2 30 2 44 2 23 3 27 7 33 3 4 5 7 6 7 2 -1 20 10 28 19 16 15 21 38
11 57 -3 5 -6 11 -8 14 -4 8 -18 21 -23 21 -2 0 -4 1 -5 2 -2 2 -10 3 -34 5
-10 1 -21 2 -24 2 -3 0 -13 1 -22 2 -9 1 -20 2 -24 2 -4 1 -13 1 -20 2 -7 0
-43 4 -82 7 -71 6 -74 6 -79 5z m710 -50 c0 -1 -1 -2 -3 -4 -3 -3 -3 -3 -6 0
-4 4 0 10 5 6 2 -1 3 -2 4 -2z m151 -25 c7 -3 12 -13 12 -26 -1 -16 -2 -19
-11 -23 -16 -7 -36 -3 -41 8 -4 8 -4 24 0 32 5 12 23 15 40 9z m-650 -106 c11
-5 15 -28 8 -41 -8 -16 -40 -16 -48 0 -4 8 -4 24 0 32 5 12 23 15 40 9z m616
-32 c5 -5 6 -7 6 -16 0 -15 -8 -23 -23 -23 -9 0 -11 1 -16 7 -9 8 -9 23 -1 32
9 9 24 9 34 0z m-267 -77 c3 -3 4 -6 3 -9 0 -2 0 -4 1 -4 1 0 2 -2 2 -4 0 -6
12 -28 14 -26 2 2 2 2 2 0 0 -5 6 -16 9 -17 1 -1 2 -10 1 -33 -1 -30 -1 -31
-6 -36 -3 -3 -7 -5 -10 -5 -9 1 -22 -7 -28 -18 -7 -15 -8 -17 -8 -20 0 -12
-12 -20 -29 -19 -47 3 -51 0 -63 -42 -7 -24 -30 -96 -36 -112 -1 -5 -3 -9 -3
-10 -1 -7 -31 -80 -48 -120 -16 -37 -48 -100 -62 -125 -6 -10 -11 -19 -11 -20
0 -4 -6 2 -9 8 -1 2 -2 24 -3 49 -1 25 -2 47 -2 49 -2 7 9 23 17 23 2 0 6 2 9
5 4 4 4 7 4 17 -2 18 -8 24 -27 25 -9 0 -18 9 -20 20 -2 15 -22 28 -46 31 -26
3 -42 -7 -56 -33 -9 -18 -32 -19 -47 -1 -10 12 -16 16 -31 17 -10 1 -12 1 -17
-3 -3 -2 -6 -4 -7 -4 -1 0 -4 -2 -6 -4 -4 -4 -6 -4 -10 -2 -8 3 -9 36 -1 48 1
3 9 10 16 17 7 7 15 17 19 24 6 12 7 12 28 23 20 11 25 14 45 31 21 18 29 30
27 43 -2 10 -7 22 -9 22 -3 0 0 10 3 14 2 1 9 4 16 7 67 23 89 46 89 90 0 24
-7 35 -28 44 -6 3 -12 6 -14 6 -8 2 -11 16 -4 23 7 7 15 5 34 -7 12 -8 19 -11
27 -12 5 -1 57 -1 115 -1 l105 1 7 5 c8 4 18 21 18 28 0 2 1 4 2 4 1 0 1 2 1
4 -2 7 6 14 15 14 5 0 9 -1 12 -5z m117 -188 c3 -3 3 -3 0 -6 -4 -5 -11 1 -7
6 4 4 4 4 7 0z m-684 -110 c3 -3 3 -3 0 -6 -4 -5 -11 1 -7 6 4 4 4 4 7 0z
m546 -36 c3 -5 3 -5 0 -10 -2 -3 -5 -5 -7 -5 -2 0 -5 2 -7 5 -3 5 -3 5 0 10 2
3 5 5 7 5 2 0 5 -2 7 -5z m-28 -70 c3 -5 3 -5 0 -10 -2 -3 -5 -5 -7 -5 -2 0
-5 2 -7 5 -3 5 -3 5 0 10 2 3 5 5 7 5 2 0 5 -2 7 -5z m-552 -21 c5 -4 10 -19
8 -27 0 -2 -1 -5 -1 -6 0 -1 -10 -11 -22 -23 -12 -12 -22 -24 -23 -27 -1 -2
-4 -7 -6 -10 -3 -4 -5 -7 -5 -8 0 -8 -13 -20 -20 -19 -4 1 -10 8 -10 11 0 5 7
18 15 26 12 13 15 22 18 46 4 30 5 32 10 37 8 6 28 6 36 0z m61 -21 c0 1 2 0
4 -2 3 -3 3 -9 4 -49 0 -45 0 -46 -5 -56 -2 -6 -5 -12 -6 -14 0 -2 -1 -2 -1 1
0 2 -2 6 -4 8 -5 4 -27 15 -29 15 -3 0 -9 11 -9 15 0 2 3 8 6 13 3 5 6 10 6
11 0 4 14 32 19 37 2 3 6 9 8 14 3 6 5 9 5 7 1 -1 2 -1 2 0z m1098 -5 c5 -5 5
-11 0 -16 -10 -10 -27 5 -16 16 4 4 12 4 16 0z m-868 -7 c3 -3 5 -9 6 -15 2
-10 2 -11 -3 -15 -5 -5 -15 -7 -15 -3 0 1 -2 1 -4 1 -7 -2 -14 6 -14 15 0 8 5
14 16 19 9 4 9 4 14 -2z m301 -68 c4 -1 8 -5 10 -9 5 -9 21 -26 28 -29 10 -4
23 -4 37 1 19 7 31 7 41 -3 7 -5 10 -19 7 -29 -3 -11 -5 -14 -17 -21 -13 -9
-17 -16 -17 -30 0 -13 0 -13 20 -35 6 -8 8 -12 8 -18 0 -11 -3 -14 -27 -32
-24 -17 -28 -21 -38 -43 -12 -24 -15 -26 -44 -26 -31 0 -38 -7 -40 -34 -1 -18
-5 -23 -15 -18 -3 2 -9 6 -11 8 -11 10 -29 12 -46 3 -7 -3 -23 -10 -37 -16
-14 -6 -28 -12 -31 -13 -3 -1 -10 -4 -15 -6 -5 -2 -12 -5 -15 -6 -3 -1 -18 -7
-33 -12 -15 -6 -28 -11 -28 -12 -1 -1 -2 -1 -2 1 0 1 -1 2 -3 2 -2 0 -5 2 -8
5 -6 6 -7 31 -2 52 2 9 3 24 3 52 l0 38 5 9 c3 4 7 8 9 8 5 0 71 45 87 59 2 1
16 12 32 25 16 13 29 24 29 26 0 5 14 24 18 24 1 0 2 1 2 2 0 1 1 2 2 1 1 -1
2 0 3 1 0 1 3 2 7 3 8 1 45 39 54 54 6 12 15 21 18 21 1 0 5 -1 9 -3z m450
-16 c11 -7 23 -12 29 -14 11 -2 22 -6 26 -10 5 -5 6 -19 0 -39 -8 -28 -14 -35
-33 -35 -16 0 -21 4 -29 22 -8 17 -11 22 -22 33 -12 12 -14 16 -14 28 0 9 1
11 6 16 9 9 24 9 37 -1z m-570 -29 c4 -5 4 -10 -1 -15 -4 -5 -5 -5 -10 -2 -8
5 -9 10 -5 16 4 6 11 6 16 1z m-278 -51 c3 -3 3 -3 0 -6 -4 -5 -11 1 -7 6 4 4
4 4 7 0z m-407 -29 c9 -9 2 -24 -10 -24 -8 0 -14 6 -14 15 0 12 15 18 24 9z
m1185 -2 c7 -6 7 -19 1 -25 -6 -7 -19 -7 -25 -1 -7 6 -7 19 -1 25 6 7 19 7 25
1z m208 -32 c4 -4 5 -7 5 -13 0 -12 -5 -16 -21 -18 -7 0 -17 -2 -22 -4 -6 -1
-11 -2 -11 -2 0 3 -16 -8 -23 -16 -10 -10 -13 -19 -14 -41 -1 -18 0 -17 -19
-38 -22 -24 -30 -28 -37 -19 -3 5 -3 7 0 35 3 33 6 41 21 57 10 10 26 33 26
36 0 1 3 6 8 10 l7 9 19 1 c19 1 22 1 36 5 13 3 20 2 25 -2z m-1258 -43 c12
-12 3 -31 -13 -31 -11 0 -18 7 -18 18 0 11 7 18 18 18 6 0 9 -1 13 -5z m927
-15 c9 -9 18 -15 29 -20 21 -10 24 -14 23 -31 -1 -18 -8 -24 -24 -22 -13 1
-20 6 -24 16 -1 4 -3 11 -5 14 -1 3 -3 8 -3 10 -1 2 -5 8 -9 12 -15 15 -17 21
-12 29 5 7 12 5 25 -8z m355 -21 c25 -12 37 -35 24 -48 -16 -16 -59 10 -59 36
0 16 16 21 35 12z m-1069 -62 l-5 -5 -4 4 -5 5 4 4 5 5 4 -4 5 -5 -4 -4z
m-367 -14 c6 -6 7 -20 1 -32 -4 -7 -40 -45 -44 -45 -8 0 -11 34 -4 52 8 22 17
30 33 30 7 0 10 -1 14 -5z m154 -15 c5 -5 6 -7 6 -16 0 -15 -8 -23 -23 -23 -9
0 -11 1 -16 7 -9 8 -9 23 -1 32 9 9 24 9 34 0z m806 -20 c7 -3 10 -10 13 -28
1 -8 3 -22 5 -30 7 -34 2 -44 -23 -42 -8 1 -13 5 -17 15 -2 5 -5 9 -5 9 -1 0
-2 1 -2 2 0 2 -5 8 -7 8 0 0 -3 2 -5 4 -2 1 -6 5 -9 7 -3 2 -5 5 -5 8 0 7 16
43 21 45 10 6 21 6 34 2z m270 -20 l7 -4 -5 -3 c-6 -4 -8 -4 -14 0 -4 3 -4 4
-2 7 3 5 5 5 14 0z m-1163 -32 c4 -2 8 -5 9 -7 2 -1 7 -6 13 -10 18 -15 19
-22 10 -42 -4 -6 -9 -20 -13 -30 -4 -10 -9 -19 -10 -21 -6 -6 -31 -1 -38 9 -3
4 -4 8 -4 27 -1 21 -1 28 -5 40 -7 23 1 38 20 38 8 0 13 -1 18 -4z m811 -18
c-1 -2 -8 -6 -15 -11 -8 -5 -16 -12 -18 -16 -6 -10 -9 -25 -6 -37 5 -24 -8
-40 -29 -39 -10 1 -17 3 -24 10 -8 9 -17 15 -19 14 -1 -1 -2 0 -2 1 0 1 -5 2
-12 2 -9 0 -14 -1 -23 -6 -21 -10 -71 -32 -105 -45 -39 -16 -45 -18 -52 -25
-5 -5 -10 -19 -10 -28 0 -6 16 -36 24 -44 16 -19 28 -20 98 -9 20 3 78 13 82
14 3 1 12 2 20 4 27 5 82 17 84 18 1 0 4 1 8 2 11 2 84 21 103 27 43 13 57 16
60 12 1 -1 0 -4 -2 -6 -4 -4 -32 -23 -39 -27 -2 0 -4 -2 -6 -3 -2 -1 -10 -6
-19 -11 -20 -12 -26 -18 -36 -34 -11 -18 -14 -19 -43 -20 l-25 0 -41 -19 c-53
-23 -140 -59 -162 -65 -13 -4 -86 -29 -90 -31 -11 -6 -18 -14 -18 -23 l-1 -8
-1 8 c-1 4 -3 12 -5 16 -4 8 -4 13 -4 163 0 113 0 155 2 157 1 1 4 5 6 9 1 4
3 6 3 4 0 -3 13 -8 18 -6 1 0 7 0 14 1 7 1 14 2 16 2 1 1 6 2 10 2 35 5 130
24 151 29 4 1 10 3 13 3 3 1 8 2 12 3 4 1 18 5 32 8 39 10 55 11 51 4z m-395
-2 c5 -5 5 -10 1 -24 -7 -22 -18 -33 -27 -25 -7 6 -2 42 7 50 5 4 14 4 19 -1z
m635 -55 c7 -6 8 -24 4 -34 -9 -20 -25 -24 -28 -9 0 4 -3 9 -6 12 -7 9 -7 24
0 31 7 7 23 7 30 0z m142 -17 c5 -3 9 -8 8 -12 0 -2 -1 -6 -1 -11 0 -11 -7
-17 -20 -17 -14 0 -20 6 -20 20 0 12 4 18 15 20 12 2 13 2 18 0z m-1145 -48
c11 -3 16 -10 16 -24 0 -11 -1 -13 -6 -18 -6 -6 -7 -6 -18 -6 -11 0 -12 0 -18
6 -5 5 -6 7 -6 17 0 25 8 31 32 25z m277 -47 c5 -8 1 -16 -8 -16 -9 0 -13 8
-8 16 2 3 5 5 8 5 3 0 6 -2 8 -5z m100 -20 c12 -7 14 -33 3 -43 -8 -9 -32 -9
-40 0 -9 8 -9 32 0 41 7 7 27 8 37 2z m626 -40 c3 -5 3 -5 0 -10 -2 -3 -5 -5
-7 -5 -2 0 -5 2 -7 5 -3 5 -3 5 0 10 2 3 5 5 7 5 2 0 5 -2 7 -5z m-1033 -1 c8
-9 4 -19 -15 -38 -13 -14 -20 -18 -30 -18 -15 0 -22 17 -13 31 4 6 24 20 37
25 11 5 17 5 21 0z m290 -51 c3 -2 31 -9 41 -10 17 -3 25 -16 21 -35 -2 -11
-7 -16 -18 -18 -15 -4 -22 0 -39 18 -9 8 -18 17 -20 18 -5 3 -11 14 -11 19 0
6 6 10 16 10 5 -1 9 -1 10 -2z m1024 -41 c5 -5 5 -11 0 -16 -10 -10 -27 5 -16
16 4 4 12 4 16 0z m74 -44 c5 -5 5 -15 0 -20 -9 -9 -24 -2 -24 10 0 8 6 14 14
14 3 0 8 -2 10 -4z m-1405 -9 c12 -7 14 -33 3 -43 -8 -9 -32 -9 -40 0 -9 8 -9
32 0 41 7 7 27 8 37 2z m1151 -13 l4 -5 -5 -5 -4 -4 -5 5 c-5 5 -5 6 -1 11 5
5 6 5 11 -2z m128 -21 c7 -3 11 -9 14 -18 3 -13 0 -25 -12 -38 -6 -6 -10 -12
-10 -14 -1 -10 -7 -22 -15 -28 -8 -6 -32 -8 -42 -2 -17 8 -16 35 3 55 3 4 10
14 15 23 8 14 12 18 18 21 8 4 20 4 29 1z m-283 -119 c3 -6 4 -10 3 -20 -1
-16 -6 -20 -20 -20 -14 0 -20 6 -20 19 0 13 2 16 14 22 18 8 18 8 23 -1z
m-432 -119 c-3 -3 -3 -3 -6 0 -3 3 -3 4 -1 5 1 0 2 2 2 4 0 2 1 2 4 -2 4 -4 4
-4 1 -7z"/>
<path d="M1700 3768 c-3 -2 -8 -8 -12 -13 -4 -6 -8 -11 -9 -12 -1 -1 -4 -5 -7
-9 -3 -4 -7 -10 -10 -13 -3 -4 -7 -9 -9 -12 -2 -3 -5 -7 -7 -9 -2 -2 -5 -6 -8
-10 -3 -4 -7 -10 -10 -13 -3 -4 -7 -9 -9 -12 -2 -3 -5 -7 -6 -8 -6 -6 -11 -19
-12 -30 -2 -13 1 -20 16 -41 11 -16 15 -24 16 -34 2 -22 7 -33 22 -40 8 -4 10
-4 124 -4 128 0 128 0 138 13 6 7 7 27 2 38 -3 6 -3 10 -2 20 3 26 2 38 -3 44
-8 8 -17 10 -44 9 -14 -1 -18 3 -22 22 -4 24 -10 35 -27 47 -8 6 -23 17 -34
25 -11 8 -27 21 -35 28 -8 7 -17 14 -20 16 -6 3 -25 2 -32 -2z"/>
<path d="M1919 2879 c-13 -4 -18 -9 -23 -27 -5 -19 -4 -30 3 -41 6 -8 6 -8 19
-8 11 0 16 2 27 7 8 4 14 7 15 8 0 1 2 2 3 2 6 0 17 19 18 29 0 11 -4 17 -21
27 -13 7 -22 8 -41 3z"/>
<path d="M1880 2282 c-5 -6 -6 -13 -4 -23 1 -4 2 -14 2 -21 1 -15 5 -32 9 -39
1 -2 6 -5 12 -7 23 -6 36 18 25 48 -2 6 -4 16 -5 21 0 6 -2 14 -4 18 l-3 7
-14 0 c-11 0 -15 -1 -18 -4z"/>
</g>
</svg>
