<?xml version="1.0" standalone="no"?>
<!DOCTYPE svg PUBLIC "-//W3C//DTD SVG 20010904//EN"
 "http://www.w3.org/TR/2001/REC-SVG-20010904/DTD/svg10.dtd">
<svg version="1.0" xmlns="http://www.w3.org/2000/svg"
 width="1106.000000pt" height="2870.000000pt" viewBox="0 0 1106.000000 2870.000000"
 preserveAspectRatio="xMidYMid meet">
<metadata>
Created by potrace 1.15, written by Peter Selinger 2001-2017
</metadata>
<g transform="translate(0.000000,2870.000000) scale(0.500000,-0.500000)"
fill="#000000" stroke="none">
<path d="M284 3850 c-22 -7 -34 -34 -24 -55 6 -13 11 -17 25 -17 6 -1 11 -1
11 0 0 1 3 5 7 9 4 4 9 11 11 15 3 5 5 8 6 8 2 0 -1 21 -4 28 -2 4 -6 7 -11
10 -9 4 -11 5 -21 2z"/>
<path d="M379 3840 c-8 -5 -10 -9 -10 -22 l1 -12 20 -22 c31 -33 30 -33 37
-37 7 -5 32 -13 39 -13 14 0 20 -23 9 -33 -6 -7 -19 -7 -32 0 -12 6 -33 11
-41 9 -16 -5 -33 2 -43 16 -8 11 -9 12 -26 12 -10 1 -14 0 -17 -3 -2 -2 -4 -3
-5 -3 -1 0 -7 -5 -13 -11 -10 -11 -19 -28 -21 -40 -1 -3 -4 -12 -8 -19 -13
-26 -13 -25 -13 -111 l1 -78 9 -18 c11 -22 12 -28 6 -36 -4 -4 -7 -5 -15 -6
-5 -1 -10 -1 -11 -2 0 0 -3 0 -5 1 -2 1 -7 1 -10 0 -7 -2 -12 0 -15 8 -2 6 -1
25 2 36 3 9 3 43 1 46 -1 1 -2 5 -2 10 -1 11 -5 26 -8 32 -16 31 -94 119 -113
128 -23 10 -42 0 -47 -26 -2 -14 6 -48 17 -71 12 -24 11 -22 6 -49 -5 -20 -5
-20 -1 -43 3 -18 3 -36 4 -93 0 -69 0 -72 4 -77 5 -7 12 -11 24 -12 8 -1 10
-1 13 3 2 3 5 6 6 7 6 8 7 16 6 45 -1 16 9 24 46 37 8 3 18 7 22 9 4 2 8 3 10
3 1 0 3 -1 4 -1 7 -1 9 -38 2 -49 -3 -6 -17 -12 -38 -17 -26 -7 -33 -32 -20
-68 10 -26 12 -36 6 -42 -4 -4 -16 -6 -16 -2 0 1 -6 2 -15 2 -19 0 -23 -3 -27
-20 -8 -37 16 -61 59 -60 14 0 36 7 49 16 14 10 34 30 34 35 0 3 1 3 1 1 1 -2
3 -4 5 -7 2 -2 5 -7 7 -12 2 -4 7 -16 12 -25 5 -10 9 -20 9 -22 0 -10 2 -11
22 -10 13 1 19 2 20 4 3 6 6 28 6 52 0 24 0 24 6 30 6 6 7 6 18 6 11 0 12 0
18 -6 6 -6 6 -6 6 -26 -1 -25 2 -33 14 -42 5 -3 10 -6 11 -6 1 0 5 -3 8 -6 l5
-5 -4 -8 c-3 -5 -7 -11 -9 -15 -4 -6 -11 -23 -12 -31 -1 -5 -7 -11 -10 -11 -5
1 -18 -2 -29 -5 -10 -4 -17 -9 -21 -17 -8 -16 -12 -22 -14 -22 -1 0 -4 -1 -5
-3 -3 -4 -15 -4 -20 1 -4 2 -5 6 -6 22 -1 10 -3 21 -3 24 -2 5 -15 22 -15 19
0 -1 -1 0 -3 1 -1 1 -7 2 -12 2 -11 -1 -21 -8 -27 -21 -8 -17 -13 -23 -21 -23
-8 0 -13 6 -21 22 -5 11 -10 16 -21 22 -7 4 -11 4 -57 4 -52 0 -58 -1 -69 -9
-6 -5 -11 -15 -11 -27 -1 -6 13 -52 17 -60 13 -26 38 -31 55 -13 12 13 19 16
36 14 17 -1 30 -5 48 -18 6 -4 12 -7 13 -7 3 0 18 -15 17 -18 0 -1 2 -7 5 -14
5 -10 6 -11 17 -16 7 -3 13 -6 13 -7 1 -1 -2 -6 -6 -11 -4 -5 -9 -12 -11 -16
-2 -4 -7 -9 -10 -12 -23 -17 -32 -31 -38 -61 -2 -10 -4 -20 -5 -21 -7 -20 -3
-41 8 -47 2 -1 4 -3 5 -3 2 -2 18 -8 23 -8 9 0 15 -10 16 -26 2 -16 -1 -39 -6
-48 -5 -10 -27 -14 -41 -7 -12 6 -35 1 -41 -8 -3 -4 -38 -103 -40 -112 0 -2
-1 -3 -1 -4 -1 -1 -1 -3 0 -6 1 -3 1 -5 1 -5 -1 -1 0 -5 2 -9 3 -8 11 -16 21
-22 14 -9 17 -29 7 -39 -6 -6 -8 -6 -16 -6 -42 2 -48 -1 -61 -28 -17 -32 -12
-50 16 -58 4 -1 12 -5 18 -7 15 -7 44 -6 44 2 0 1 2 4 3 5 20 17 78 82 96 107
1 1 5 6 10 11 4 5 7 11 7 13 0 3 1 3 1 1 1 -1 4 -6 6 -10 l5 -6 0 -165 c0 -91
1 -166 1 -167 2 -3 1 -38 0 -70 -1 -24 -1 -26 3 -35 5 -11 12 -15 25 -17 9 -1
11 -1 18 5 11 8 22 20 26 27 3 6 16 14 22 14 6 0 13 -8 15 -19 2 -11 1 -30 -2
-34 -3 -3 -8 -19 -11 -32 -2 -8 -2 -14 0 -24 1 -9 1 -15 0 -19 -2 -6 -2 -8 3
-17 11 -20 25 -23 55 -13 54 17 89 40 103 66 5 10 10 26 8 31 0 0 1 1 2 1 2 0
0 50 -2 60 -2 5 -5 12 -8 15 -6 6 -27 15 -34 15 -2 0 -6 2 -9 5 -11 11 -4 37
9 37 7 0 28 9 34 15 3 3 6 10 8 14 3 12 3 196 0 208 -4 10 -14 20 -31 29 -15
7 -17 10 -17 24 0 12 3 16 16 21 14 5 25 13 29 22 4 8 4 15 5 125 1 65 2 118
2 119 1 1 3 0 5 -2 2 -3 3 -2 4 5 0 7 0 6 1 -4 0 -7 1 -20 2 -28 1 -8 3 -27 3
-41 1 -25 6 -47 11 -49 1 0 2 -1 2 -3 0 -2 7 -9 17 -16 6 -5 35 -15 54 -19 12
-3 34 0 32 4 -1 1 0 2 1 2 2 0 8 19 8 25 -1 23 1 27 17 35 5 3 9 6 9 6 0 1 1
2 3 2 2 0 3 1 3 2 0 1 2 2 4 2 3 0 3 2 2 14 0 16 0 15 -16 27 -12 9 -19 22
-23 42 -2 11 -1 13 3 21 4 8 7 10 17 13 29 10 48 20 52 26 9 14 28 36 35 40
13 8 28 5 40 -8 2 -1 8 -5 14 -8 l11 -6 54 -1 c45 0 55 0 64 3 9 3 19 9 24 14
1 1 6 5 10 8 14 9 34 6 46 -8 18 -19 63 -23 74 -6 5 7 5 26 2 35 -4 10 -4 17
2 22 11 10 32 -1 44 -25 6 -10 6 -13 0 -40 -5 -22 -5 -23 -2 -32 15 -43 15
-40 9 -53 -8 -14 -18 -16 -65 -18 l-38 -1 -7 -8 c-10 -12 -11 -13 -12 -22 -1
-8 -1 -9 6 -12 8 -4 24 -7 25 -5 2 3 13 -1 35 -11 27 -12 31 -15 31 -29 0 -17
-9 -23 -30 -22 -5 0 -23 17 -23 22 0 1 -5 8 -10 14 l-11 12 -11 0 c-7 -1 -12
-2 -12 -2 0 -1 -2 -2 -5 -2 -4 0 -8 -1 -11 -3 -9 -5 -14 2 -16 25 -3 32 -17
47 -54 62 -16 6 -91 35 -117 45 -24 9 -32 10 -46 3 -13 -8 -42 -45 -38 -49 1
0 1 -1 -1 -1 -1 0 -2 -1 -1 -2 1 -1 0 -2 0 -2 -1 0 -2 -3 -2 -7 0 -7 1 -8 6
-8 4 -1 5 0 7 3 1 3 2 4 2 2 0 -2 1 -2 4 0 3 2 5 2 9 0 3 -1 7 -3 7 -2 4 0 12
-12 12 -18 1 -18 -2 -22 -20 -29 -17 -6 -30 -13 -30 -16 0 -2 -1 -3 -2 -3 -4
0 -1 -24 4 -32 4 -6 5 -6 16 -6 14 0 18 2 28 12 9 10 18 13 29 10 12 -3 17
-10 17 -23 0 -12 -3 -17 -18 -27 -6 -4 -14 -11 -17 -15 -3 -4 -8 -9 -10 -12
-9 -9 -20 -28 -22 -35 0 -1 -1 -6 -2 -9 -3 -10 8 -43 15 -44 5 -2 5 -10 0 -18
-2 -3 -5 -12 -7 -19 -3 -13 -11 -30 -13 -30 -1 0 -2 -1 -2 -2 0 -2 -3 -6 -7
-9 -3 -4 -9 -11 -11 -16 -9 -18 -7 -76 2 -88 1 -1 4 -9 6 -16 l4 -15 -4 -14
c-2 -8 -5 -16 -6 -17 -1 -1 -3 -7 -5 -13 -3 -10 -3 -25 -3 -102 0 -95 0 -99 9
-106 4 -3 31 -6 31 -4 0 4 16 10 26 10 9 0 11 -1 16 -6 6 -6 6 -7 6 -19 -1
-11 -2 -14 -7 -19 -5 -5 -5 -7 -5 -20 0 -8 0 -15 0 -15 14 -10 18 -10 49 -2
47 12 95 37 118 61 11 12 13 18 13 31 l-1 11 -12 6 c-7 3 -14 6 -16 6 -19 -2
-32 -1 -41 4 -17 9 -19 9 -27 11 -4 1 -14 1 -22 1 -13 0 -15 0 -23 6 -4 3 -9
7 -9 9 -1 3 -19 15 -23 16 -2 0 -6 1 -9 3 -19 8 -21 11 -20 30 0 11 1 13 6 17
16 14 61 -3 81 -31 3 -4 6 -9 6 -10 0 -4 12 -8 23 -8 12 1 18 3 25 9 3 3 7 5
8 5 2 0 4 1 5 1 2 2 9 3 14 1 2 -1 6 -1 9 0 4 2 4 3 4 17 0 12 -1 16 -5 20 -2
2 -4 4 -5 5 -20 1 -25 9 -21 38 2 14 -1 28 -9 39 -14 19 -14 37 -2 61 7 13 15
19 24 17 3 -1 6 -2 7 -3 1 -1 3 -1 6 0 2 0 7 1 11 1 3 0 6 1 6 1 0 1 2 2 4 2
2 0 4 1 4 2 0 0 1 3 1 6 8 48 8 49 8 122 0 84 0 84 -19 100 -14 13 -24 15 -43
11 -11 -2 -17 -9 -24 -28 -7 -19 -12 -26 -19 -28 -5 -1 -7 -1 -10 3 -4 4 -4 6
-3 20 1 9 0 21 -1 30 -6 35 0 47 24 47 8 0 13 -2 17 -4 8 -6 37 -6 47 0 6 3
12 4 40 5 l33 1 6 -6 6 -6 -1 -28 c0 -43 3 -50 30 -66 22 -12 22 -22 0 -34
-25 -14 -30 -24 -30 -58 0 -23 3 -34 12 -43 4 -4 36 -20 39 -20 6 0 29 -20 29
-26 0 -1 3 -8 6 -14 6 -10 8 -13 19 -18 6 -3 13 -6 15 -6 3 0 10 -3 16 -6 10
-5 15 -6 24 -6 11 0 12 0 29 15 9 8 18 15 19 15 2 1 11 16 14 23 1 4 2 42 2
139 l-1 133 6 6 c5 5 8 6 17 6 9 0 12 -1 17 -6 l6 -6 0 -132 c0 -141 1 -156 6
-173 6 -21 9 -24 37 -37 16 -7 16 -7 22 -20 9 -20 12 -26 18 -33 15 -18 20
-24 30 -34 6 -6 13 -12 16 -14 2 -2 7 -7 9 -11 6 -9 6 -14 -2 -37 -3 -8 -8
-22 -10 -30 -3 -8 -7 -18 -9 -22 -7 -13 -5 -37 5 -48 5 -6 19 -12 30 -13 10
-1 43 14 43 20 1 23 0 29 -7 38 -11 13 -8 26 9 34 12 6 20 13 24 22 5 8 9 13
15 16 3 2 5 1 9 -4 11 -13 18 -38 21 -74 3 -32 10 -44 35 -57 9 -4 15 -9 18
-13 2 -3 6 -8 8 -11 2 -2 4 -5 4 -6 0 -6 30 -17 38 -14 3 2 7 3 10 3 8 2 41
13 43 15 1 1 3 2 4 2 2 0 7 4 12 9 6 5 14 10 23 14 17 7 33 20 49 43 8 12 9
15 9 24 0 14 -1 16 -22 36 -13 13 -20 18 -25 19 -13 2 -23 2 -24 1 -3 -4 -18
-2 -23 3 -11 12 3 42 25 49 9 3 16 -1 25 -12 6 -7 11 -10 29 -16 8 -2 28 7 36
15 11 13 11 11 11 168 0 130 0 146 -3 152 -4 6 -9 12 -9 10 0 -1 -1 -1 -2 0
-1 3 -26 9 -27 7 -1 -1 -5 -2 -9 -2 -17 0 -23 17 -13 33 3 4 6 8 7 9 3 2 16
22 16 24 0 4 11 15 21 20 14 8 20 16 25 32 7 21 8 22 13 25 4 3 9 3 17 3 26
-1 34 -1 37 2 1 1 3 1 3 1 4 -3 6 25 2 30 -2 5 -41 35 -54 41 -4 2 -17 6 -27
9 -11 3 -21 6 -23 8 -5 3 -10 10 -10 12 0 1 -1 4 -3 5 -2 1 -3 4 -3 6 0 6 -14
22 -31 34 -9 7 -25 19 -35 27 -10 8 -21 15 -23 15 -3 1 -3 2 -1 2 2 0 5 2 6 4
3 6 11 6 95 7 l76 0 13 6 c15 8 18 10 27 22 11 14 17 29 16 38 -3 23 -9 30
-62 72 -4 3 -9 7 -10 8 -3 3 -14 12 -21 17 -4 3 -8 6 -9 7 -5 5 -18 15 -23 17
-5 3 -30 8 -38 8 -12 0 -25 19 -27 41 -2 14 4 22 15 21 9 -1 23 2 32 5 11 5
17 18 19 41 1 9 2 21 2 25 2 16 -6 36 -17 46 -3 2 -9 7 -14 11 -4 3 -8 7 -8 8
0 2 -9 22 -12 28 -2 4 4 13 9 13 16 2 21 4 27 10 20 19 21 61 1 85 -6 7 -9 19
-8 26 1 10 6 14 20 15 29 3 42 8 64 27 18 16 23 23 23 37 0 18 -2 20 -54 59
-26 19 -66 49 -89 66 -23 18 -43 32 -45 32 -2 0 0 2 3 4 3 2 5 4 4 4 -1 0 -1
1 1 2 2 1 2 2 1 2 -1 0 -2 8 -3 19 l0 19 12 0 12 0 0 -14 c0 -7 0 -15 2 -17 1
-2 2 -3 2 -2 0 1 1 0 3 -1 3 -2 12 -3 35 -3 27 -1 32 0 43 3 6 3 11 5 11 6 0
1 1 2 3 2 3 0 16 15 18 21 6 18 -1 53 -17 77 l-6 9 -14 -1 c-14 -1 -15 -1 -21
-9 -4 -4 -8 -11 -9 -16 -8 -32 -12 -38 -32 -47 -19 -8 -43 -9 -48 -1 -12 16
-5 32 41 90 8 12 6 36 -4 42 -3 1 -8 4 -11 6 -12 6 -46 31 -53 38 -20 20 -56
9 -61 -21 -4 -18 -2 -22 16 -30 20 -10 23 -13 23 -26 0 -15 -8 -23 -23 -23
-12 0 -14 2 -23 16 -9 13 -11 14 -27 14 -13 1 -13 1 -20 -8 -12 -15 -18 -17
-54 -19 -18 -1 -34 -3 -37 -4 -3 -1 -7 -3 -7 -2 -1 0 -1 -7 -1 -16 l0 -16 -9
0 -9 0 0 16 c0 9 0 16 0 15 -1 0 -5 1 -9 3 -16 8 -34 -5 -37 -25 0 -4 -1 -7
-2 -9 -1 -1 0 -2 1 -2 1 0 4 -2 6 -4 2 -3 4 -4 4 -3 0 1 1 1 2 -1 1 -2 2 -2 2
-1 0 2 2 2 4 2 8 -2 20 -2 19 -1 -1 1 0 2 2 2 2 0 4 1 4 3 2 5 23 4 26 0 5 -6
4 -18 -2 -23 -6 -5 -17 -5 -22 0 -2 2 -5 4 -6 4 -2 0 -3 1 -3 2 0 1 -6 2 -15
2 -15 0 -19 -2 -27 -14 -6 -9 -30 -9 -40 -1 -2 2 -6 11 -9 21 -10 31 -17 40
-38 48 -11 4 -13 4 -186 4 -203 0 -187 2 -209 -20 -13 -12 -15 -14 -22 -14 -7
0 -9 2 -22 14 -20 20 -20 20 -98 20 -67 0 -72 -1 -83 -9 -7 -5 -7 -6 -7 -18 0
-13 0 -13 9 -22 18 -15 20 -19 23 -28 3 -11 0 -23 -8 -33 -10 -13 -14 -31 -9
-47 3 -12 -2 -32 -10 -41 -3 -3 -8 -9 -11 -13 -4 -5 -13 -14 -21 -19 -16 -11
-24 -18 -29 -25 -11 -16 -30 -14 -54 4 -18 14 -20 17 -20 33 0 19 5 25 23 27
11 1 24 3 27 4 1 0 4 1 7 2 11 3 52 33 57 41 4 9 2 29 -6 43 -4 6 -9 14 -11
18 -8 14 -21 22 -48 30 -19 6 -24 6 -44 2 -26 -6 -43 -17 -50 -32 -7 -14 -9
-71 -4 -91 5 -22 4 -33 -3 -54 -6 -20 -7 -33 -8 -75 -1 -21 -1 -22 -2 -10 l-1
14 -5 -8 -5 -8 -2 7 c-3 14 -17 22 -35 20 -23 -1 -26 -1 -32 6 -5 5 -6 7 -6
18 0 11 1 13 6 18 6 7 9 7 32 6 7 -1 21 2 25 5 12 8 12 5 13 111 l1 97 5 7 c3
4 6 7 8 8 10 2 33 22 43 37 14 24 18 43 11 58 -9 20 -23 23 -49 9 -25 -13 -38
-11 -58 9 -10 9 -27 14 -60 18 -38 4 -41 4 -46 1z m42 -185 c3 -5 3 -5 0 -10
-2 -3 -5 -5 -7 -5 -2 0 -5 2 -7 5 -3 5 -3 5 0 10 2 3 5 5 7 5 2 0 5 -2 7 -5z
m490 -15 c4 -3 9 -6 11 -8 5 -5 20 -13 50 -24 l27 -11 69 0 69 0 9 5 c5 2 11
7 13 10 5 5 14 10 17 10 5 0 7 -6 7 -21 0 -27 5 -32 38 -33 13 0 17 -7 17 -25
-1 -16 2 -30 7 -42 3 -8 20 -30 27 -36 3 -3 7 -8 9 -12 3 -6 3 -7 0 -11 -2 -3
-10 -8 -18 -11 -16 -6 -21 -10 -29 -21 -14 -21 -38 -17 -35 5 1 5 3 13 5 17 5
11 4 27 -2 33 -6 5 -20 9 -30 8 -12 -1 -24 5 -32 16 -9 11 -13 13 -25 14 -8 1
-14 0 -25 -3 -11 -4 -15 -4 -21 -2 -14 4 -29 2 -36 -5 -5 -5 -2 -26 5 -39 5
-8 -1 -44 -6 -41 -1 1 -2 0 -2 -1 0 -1 -1 -2 -2 -1 -1 1 -4 2 -6 2 -5 1 -19
10 -21 13 -1 1 -3 9 -5 17 -4 18 -9 28 -18 39 -3 4 -7 12 -9 19 -5 25 -16 35
-41 36 -19 2 -34 9 -52 26 -8 8 -15 14 -16 14 -1 -1 -2 1 -3 3 -1 2 -2 4 -3 4
0 0 -1 3 -1 7 0 7 5 19 7 19 1 0 5 6 9 13 13 23 25 28 42 17z m470 -39 c13
-12 36 -17 50 -10 8 4 15 4 115 5 l106 0 8 -5 c7 -6 7 -6 4 -10 -2 -2 -6 -10
-8 -18 -5 -17 -10 -22 -25 -30 -13 -7 -18 -12 -28 -35 -4 -9 -12 -22 -16 -28
-5 -6 -10 -15 -13 -19 -3 -7 -7 -12 -15 -18 -14 -12 -52 15 -51 36 1 8 -5 29
-11 35 -8 9 -13 10 -73 10 l-55 0 -8 5 c-8 5 -8 6 -6 9 6 5 3 25 -6 38 -12 19
-9 38 7 42 10 2 19 -1 25 -7z m-924 -18 c3 -5 3 -5 0 -10 -2 -3 -5 -5 -7 -5
-2 0 -5 2 -7 5 -3 5 -3 5 0 10 2 3 5 5 7 5 2 0 5 -2 7 -5z m-63 -53 c5 -5 5
-11 0 -16 -10 -10 -27 5 -16 16 4 4 12 4 16 0z m407 -50 c2 -7 4 -18 5 -25 3
-22 8 -35 19 -48 14 -18 11 -47 -6 -61 -24 -19 -25 -23 -25 -96 0 -67 1 -75
12 -79 3 -2 6 -2 6 -2 0 1 2 -1 5 -3 3 -3 4 -5 4 -6 -1 -1 0 -2 1 -2 5 0 8
-15 6 -28 -3 -18 -4 -20 -15 -31 -5 -5 -11 -14 -14 -20 -3 -6 -8 -13 -10 -15
-2 -2 -5 -4 -6 -6 -1 -3 -1 -3 -1 0 0 4 -29 32 -59 57 -25 21 -28 23 -50 30
-13 4 -24 9 -26 11 -2 3 -13 29 -13 33 0 5 -10 11 -21 12 -23 2 -28 -6 -27
-45 0 -20 -2 -24 -17 -30 -24 -9 -33 -14 -33 -18 0 -5 -7 7 -11 19 -2 6 -4 12
-6 14 -1 2 -2 7 -2 10 0 6 0 7 -8 9 -7 2 -10 4 -13 9 l-4 7 4 7 c3 4 5 7 7 7
21 1 27 4 21 9 -2 1 -3 4 -4 7 0 5 6 28 8 30 7 7 8 35 2 48 -7 13 -7 45 -1 65
3 8 5 16 6 18 0 2 1 2 1 -2 0 -13 17 -24 37 -26 17 -1 24 -7 27 -23 5 -23 -7
-37 -31 -35 -5 0 -15 0 -21 -2 l-12 -2 0 -12 c0 -10 1 -13 5 -19 9 -11 26 -19
42 -19 18 0 23 3 35 26 5 10 13 22 18 27 4 5 8 10 8 11 0 1 11 19 20 32 3 4 6
9 7 11 1 2 6 11 12 20 5 10 11 19 12 21 1 2 4 7 6 11 17 28 42 71 46 81 11 21
12 23 17 26 2 2 8 5 12 7 7 4 7 4 14 -2 6 -4 8 -9 11 -18z m1015 -13 c15 -8
14 -40 -1 -50 -15 -9 -26 -32 -24 -48 2 -13 -5 -25 -17 -30 -20 -9 -94 11
-106 27 -4 5 -10 49 -10 69 0 13 6 19 20 19 13 0 16 -3 24 -23 4 -9 8 -18 9
-21 6 -12 33 -18 41 -9 5 5 10 32 6 37 -7 12 3 26 22 30 6 1 12 3 13 3 3 1 18
-1 23 -4z m-930 -17 c5 -5 5 -11 0 -16 -10 -10 -27 5 -16 16 4 4 12 4 16 0z
m224 -4 c9 -9 -1 -30 -15 -30 -3 0 -9 14 -9 21 0 7 7 13 14 13 3 0 8 -2 10 -4z
m-735 -24 c8 -8 8 -24 0 -32 -3 -3 -7 -6 -9 -6 -1 0 -7 -2 -12 -4 -5 -2 -11
-4 -13 -5 -3 0 -7 -3 -4 -3 2 0 3 -9 4 -28 0 -5 19 -11 35 -10 16 0 33 -4 39
-10 3 -3 4 -7 4 -19 0 -14 0 -16 -6 -20 -7 -6 -23 -7 -39 -1 -15 5 -20 8 -34
22 -19 19 -32 23 -46 13 -7 -6 -18 -26 -19 -37 -2 -14 -13 -25 -24 -26 -8 -1
-26 12 -28 20 -3 11 -2 24 4 31 3 4 6 7 7 7 3 -1 17 8 23 14 8 9 17 27 17 34
0 7 11 19 16 17 5 -2 4 -2 14 1 4 1 8 3 8 4 0 1 1 2 2 1 2 -1 8 1 7 3 -1 1 0
2 2 2 2 0 3 1 3 2 -1 2 12 27 16 31 8 8 24 8 33 -1z m687 -28 c7 1 10 -1 19
-9 3 -3 6 -5 6 -5 1 0 3 -2 5 -5 2 -2 8 -7 14 -10 25 -13 24 -27 -1 -41 -18
-10 -25 -23 -25 -44 0 -13 4 -24 11 -32 4 -4 26 -16 30 -16 2 0 8 -3 15 -6 7
-3 18 -7 24 -9 9 -3 20 -11 20 -15 0 -1 -2 -3 -4 -5 -3 -4 -6 -5 -29 -5 -26
-1 -37 -4 -48 -13 -6 -5 -7 -28 -1 -38 3 -6 4 -10 7 -30 1 -4 3 -15 5 -23 2
-8 4 -19 5 -25 3 -21 6 -28 15 -38 15 -17 18 -27 9 -35 -3 -3 -6 -4 -13 -4
-17 1 -41 -9 -42 -18 -2 -13 0 -20 7 -28 4 -4 9 -8 10 -8 2 0 3 -1 3 -2 0 -3
74 -2 85 1 44 10 61 16 82 31 27 19 31 28 31 87 0 46 -1 52 -11 62 -6 5 -19
12 -29 14 -9 2 -14 9 -14 18 0 10 6 17 18 22 22 10 26 20 21 58 -1 10 -1 13 5
27 10 26 10 28 10 80 l-1 49 6 6 c5 5 8 6 14 6 6 0 9 -1 14 -6 l6 -6 0 -61 0
-61 5 -11 c3 -6 7 -13 9 -14 4 -5 9 -15 9 -21 0 -6 -5 -16 -9 -21 -2 -1 -6 -8
-9 -14 -5 -10 -5 -13 -5 -42 0 -33 2 -42 13 -53 1 -2 5 -8 7 -12 4 -9 4 -9 0
-17 -2 -5 -6 -11 -7 -13 -2 -2 -6 -8 -8 -13 -7 -12 -8 -52 -3 -65 4 -9 14 -21
18 -21 2 0 3 -1 3 -2 0 -4 57 -4 84 1 26 5 67 19 70 24 0 0 1 1 3 1 4 0 25 18
30 26 7 10 11 27 11 48 0 21 1 29 6 34 2 2 4 7 4 10 0 6 1 6 2 3 1 -3 1 -3 3
0 2 6 1 23 -2 25 -1 2 -3 5 -3 7 -1 2 -3 7 -4 10 -2 6 -2 7 1 10 4 4 7 4 28 4
25 0 25 0 34 7 5 3 10 6 10 6 1 0 7 3 13 7 11 7 21 18 31 35 2 4 6 11 9 16 3
5 10 16 15 26 10 18 15 22 26 22 16 1 44 -7 52 -14 2 -2 6 -4 7 -5 3 -1 3 -2
1 -7 -1 -3 -3 -5 -3 -5 -1 1 -3 0 -3 -2 -1 -2 -2 -2 -3 -2 -1 1 -2 0 -2 -1 0
-1 -2 -1 -5 -2 -6 0 -30 -9 -53 -19 -19 -10 -22 -16 -23 -45 -1 -23 -1 -23
-18 -43 -6 -7 -11 -28 -10 -38 2 -9 -2 -25 -7 -30 -6 -7 -17 -10 -32 -7 -21 3
-37 -3 -43 -16 -4 -10 -4 -12 -2 -49 1 -30 4 -42 10 -46 4 -3 4 -3 0 -3 -5 0
-14 -16 -18 -33 0 -2 -1 -4 -2 -4 0 -1 -1 -4 -1 -6 0 -3 -1 -5 -2 -6 -2 0 -2
-1 1 -1 4 0 4 -2 -1 -7 l-5 -5 -4 4 c-6 6 -6 8 -1 8 2 0 2 1 1 1 -2 1 -3 3 -3
6 0 2 -1 5 -2 7 -2 1 -2 2 -1 2 4 0 -8 16 -15 20 -8 4 -12 4 -201 4 -133 0
-194 1 -196 2 -1 2 -1 2 1 1 2 -1 4 0 5 3 1 4 0 4 -22 4 -16 0 -22 -1 -25 -3
-5 -5 -17 -6 -51 -7 -37 0 -49 1 -54 6 -2 2 -5 4 -7 5 -2 0 -2 1 1 1 2 0 9 4
15 10 11 11 15 22 17 46 1 8 3 23 6 33 4 15 5 23 5 43 0 28 -3 38 -10 42 -6 3
-30 8 -30 6 0 -8 -53 -4 -58 5 -2 4 3 15 6 15 1 0 2 1 1 2 -1 1 0 4 2 6 1 1 3
5 4 8 2 10 15 18 27 17 9 0 18 -3 18 -5 0 -1 6 0 13 1 26 5 27 8 27 59 0 24
-1 39 -2 44 -5 13 -18 20 -43 21 -23 1 -30 7 -30 27 0 20 7 26 31 27 31 1 46
15 44 38 -1 4 0 7 0 7 1 0 2 1 2 3 0 2 1 3 2 3 1 0 2 1 2 3 0 2 1 3 2 3 1 0 2
2 2 4 0 2 0 2 2 0 1 -1 4 -2 8 -2z m539 -9 l6 -6 -1 -92 0 -92 -6 -6 c-4 -5
-6 -6 -9 -5 -1 1 -6 2 -11 1 -6 0 -9 1 -13 5 -5 5 -5 6 -5 33 0 39 -7 56 -26
70 -7 5 -27 4 -34 -1 -5 -4 -11 -17 -15 -34 -1 -7 -8 -11 -15 -12 -19 -1 -26
4 -26 20 0 13 1 15 12 22 13 9 24 20 24 24 0 2 1 4 2 5 2 1 2 15 0 16 -1 1 -2
3 -2 5 0 2 -2 6 -5 9 -13 14 -17 32 -9 39 3 2 6 4 8 4 3 0 15 -13 17 -19 1 -6
14 -21 21 -24 19 -10 46 7 47 30 0 1 3 4 6 8 9 9 25 9 34 0z m-684 -125 c9 -8
17 -34 17 -54 0 -11 -5 -16 -21 -21 -7 -2 -19 -7 -28 -11 -28 -13 -37 -14 -46
-4 -3 3 -3 4 -1 8 2 3 3 5 2 6 -1 5 4 14 14 23 12 12 26 35 26 43 0 4 10 13
15 14 8 2 18 0 22 -4z m537 -129 c24 -8 28 -28 9 -48 -2 -2 -6 -10 -10 -18
-11 -22 -16 -27 -26 -27 -14 0 -16 4 -18 33 0 13 -1 30 -2 38 -1 12 -1 15 2
19 7 8 24 9 45 3z m-538 -16 c23 -4 27 -7 23 -17 -2 -3 -4 -6 -5 -6 -1 0 -2
-1 -1 -2 1 -1 0 -4 -2 -6 -1 -1 -3 -5 -4 -8 -3 -14 -24 -21 -41 -15 -12 5 -18
21 -14 36 5 18 17 23 44 18z m-442 -46 c6 -2 15 -5 20 -6 5 0 14 -3 19 -5 11
-6 32 -6 48 -2 8 2 10 2 14 0 5 -3 5 -4 5 -18 -1 -16 -1 -16 -7 -18 -3 -2 -7
-3 -9 -2 -1 0 -7 0 -13 -1 -9 -1 -11 -2 -14 -8 -2 -4 -5 -7 -6 -7 -2 0 -3 -1
-2 -2 3 -6 -17 -8 -31 -3 -5 2 -12 6 -17 9 -4 4 -16 10 -26 15 -20 9 -24 13
-26 26 -3 24 18 34 45 22z m230 -5 c9 -11 10 -48 2 -57 -9 -10 -26 -4 -34 11
-6 13 -8 39 -3 46 7 8 28 9 35 0z m524 -2 c5 -5 5 -11 0 -16 -10 -10 -27 5
-16 16 4 4 12 4 16 0z m-635 -38 c6 -5 14 -20 12 -21 -1 -2 9 -26 15 -31 8 -9
13 -10 69 -9 l52 0 14 7 c13 7 26 18 28 25 0 3 1 4 1 1 0 -2 1 -4 2 -4 4 0 7
-13 8 -37 1 -25 2 -27 10 -45 4 -11 8 -22 8 -26 0 -10 -7 -16 -17 -16 -9 0
-14 4 -22 20 -6 12 -13 20 -16 20 -2 0 -3 1 -3 2 0 2 -14 6 -24 6 -14 0 -23
-4 -35 -15 -12 -10 -20 -11 -26 -4 -3 4 -24 21 -36 29 -5 4 -10 7 -11 8 -1 1
-6 5 -13 9 -31 21 -37 30 -30 48 2 5 3 14 3 24 1 18 1 19 11 9z m-156 -72 c8
-8 13 -10 20 -11 14 -2 23 -2 26 1 2 1 8 3 13 3 15 0 23 -8 23 -23 0 -12 -3
-16 -20 -25 -15 -8 -19 -14 -20 -29 -1 -9 0 -13 3 -19 2 -5 4 -7 4 -5 0 2 1 1
6 -1 17 -9 35 -63 26 -79 -2 -4 -2 -4 -10 1 -4 2 -13 6 -20 9 -11 4 -15 6 -21
13 -9 10 -14 12 -30 14 -8 1 -12 0 -16 -2 -7 -5 -22 -4 -28 1 -6 6 -10 25 -6
31 4 6 10 8 18 5 4 -2 7 -1 14 2 11 5 13 10 13 25 0 13 0 14 -9 24 -5 6 -12
12 -16 13 -16 7 -22 19 -19 39 3 19 7 23 25 23 13 0 13 0 24 -10z m-146 -12
c8 -7 7 -22 -1 -27 -6 -3 -22 -4 -29 -1 -3 1 -5 1 -5 0 -1 -1 -4 0 -7 3 -4 4
-5 5 -2 5 2 0 3 1 3 2 0 1 5 6 10 12 12 12 23 14 31 6z m856 -24 c-1 -1 -11
-2 -25 -2 l-23 1 24 1 c13 1 24 1 25 2 0 0 0 -1 -1 -2z m562 -10 c7 -6 7 -19
1 -25 -10 -11 -29 -4 -31 10 -1 3 -1 8 -2 10 -2 9 24 12 32 5z m-1340 -12 c4
-4 5 -8 5 -22 1 -15 1 -16 -4 -21 -5 -4 -6 -5 -21 -2 -20 3 -25 10 -23 30 2
11 5 15 16 17 16 3 23 2 27 -2z m512 -45 c3 -3 3 -3 0 -6 -4 -5 -11 1 -7 6 4
4 4 4 7 0z m-591 -19 c5 -5 5 -15 0 -20 -9 -9 -24 -2 -24 10 0 12 14 18 24 10z
m400 -4 c2 -3 4 -6 4 -8 0 -6 -17 -20 -43 -35 -2 -2 -4 -4 -6 -5 -1 -1 -6 -2
-10 -2 -12 0 -19 7 -19 18 0 11 5 15 26 22 10 4 24 8 30 10 14 5 13 5 18 0z
m782 -15 c7 -4 18 -10 23 -13 l10 -5 48 1 c42 0 49 1 60 4 23 8 49 4 63 -9 l6
-7 -6 -5 c-3 -4 -7 -9 -8 -12 -3 -8 -2 -25 1 -35 4 -11 4 -21 0 -40 -5 -20 -4
-50 1 -75 6 -33 1 -47 -20 -48 -22 -2 -38 -12 -44 -27 -1 -5 -2 -32 -2 -92 0
-78 0 -86 4 -95 6 -16 20 -49 28 -66 6 -13 8 -19 8 -27 0 -11 -1 -13 -20 -28
-9 -8 -16 -18 -17 -24 0 -2 -1 -4 -2 -4 -1 0 -4 -2 -7 -5 -5 -5 -6 -5 -19 -5
-18 1 -24 6 -25 22 -1 6 -3 15 -5 19 -4 7 -19 21 -24 21 -1 0 -5 3 -9 6 -6 6
-8 17 -4 21 3 4 8 22 8 31 0 6 -2 14 -4 20 -8 16 -5 37 6 44 3 2 10 8 16 14
21 21 21 46 -1 67 -5 5 -10 9 -11 9 -3 0 -10 13 -10 20 0 3 2 10 5 15 5 9 8
18 10 29 1 4 2 8 3 8 1 1 1 3 -1 5 -3 3 -3 3 0 3 2 1 -1 1 -7 2 -8 1 -12 0
-13 -1 -3 -4 -6 -4 -11 2 -4 5 -4 5 -1 10 4 5 10 7 11 3 1 -2 9 -3 22 -3 20
-1 21 -1 26 3 4 4 7 5 12 4 9 -1 26 6 31 13 8 11 7 23 -5 46 -9 18 -11 21 -16
23 -12 3 -26 2 -33 -2 -15 -9 -33 -3 -49 17 -6 7 -11 13 -12 13 -1 0 -3 1 -4
3 -7 6 -18 9 -33 10 -20 2 -30 -1 -54 -15 -14 -8 -17 -9 -30 -9 -28 -1 -37 -4
-53 -17 -9 -8 -12 -10 -19 -10 -12 0 -17 6 -17 18 1 10 7 15 25 21 6 2 11 4
11 5 0 1 2 2 4 3 2 1 9 8 15 16 6 8 13 17 16 20 9 10 11 14 16 41 3 16 5 19
20 31 6 5 15 12 19 15 10 8 17 10 38 9 16 0 18 -1 30 -8z m332 -143 c3 -2 5
-6 5 -9 0 -9 7 -29 10 -33 2 -2 8 -8 13 -14 9 -9 10 -12 10 -19 0 -11 -6 -17
-17 -17 -11 0 -15 5 -21 22 -4 13 -10 20 -31 37 -6 6 -7 7 -7 17 0 8 1 13 4
16 6 8 26 9 34 0z m-593 -86 c11 -10 3 -28 -11 -28 -9 0 -16 6 -16 16 0 14 17
22 27 12z m533 -17 l-5 -5 -4 4 -5 5 4 4 5 5 4 -4 5 -5 -4 -4z m-50 -44 l-5
-5 -4 4 -5 5 4 4 5 5 4 -4 5 -5 -4 -4z m-1341 -8 c3 -5 3 -5 0 -10 -2 -3 -5
-5 -7 -5 -2 0 -5 2 -7 5 -3 5 -3 5 0 10 2 3 5 5 7 5 2 0 5 -2 7 -5z m1070 -26
c19 -2 20 -3 25 -5 12 -4 18 -20 14 -34 -3 -11 -7 -15 -19 -21 -13 -7 -20 -15
-27 -28 -7 -16 -12 -21 -19 -21 -8 0 -12 6 -13 19 0 12 -7 40 -10 45 -4 3 -3
25 0 35 4 14 10 15 49 10z m-975 -3 c5 -6 5 -8 1 -12 -5 -5 -8 -5 -13 0 -5 5
-5 5 0 11 4 6 7 6 12 1z m1292 -18 c6 -7 5 -23 -1 -29 -3 -3 -7 -5 -9 -5 -3 0
-7 -1 -9 -1 -3 0 -5 0 -5 1 0 1 -1 2 -3 2 -7 0 -12 20 -7 30 5 10 27 11 34 2z
m-901 -11 c3 -5 3 -6 1 -11 -4 -6 -12 -8 -14 -3 -1 2 -4 3 -7 3 -6 0 -6 2 -1
7 2 2 5 5 7 6 4 5 11 3 14 -2z m-437 -17 c6 -7 5 -22 -1 -29 -6 -7 -23 -7 -30
0 -6 6 -7 22 -1 29 7 9 25 9 32 0z m1312 -53 c2 -2 5 -11 8 -19 3 -8 8 -21 13
-29 8 -14 8 -14 8 -34 0 -39 -5 -49 -22 -49 -19 0 -22 7 -24 42 -2 33 -7 42
-27 52 -21 10 -20 23 4 34 17 7 18 8 28 7 5 0 9 -2 12 -4z m-1281 -23 c7 -7 6
-21 -1 -26 -5 -4 -29 -13 -69 -26 -17 -6 -26 -11 -24 -14 0 -1 -3 -4 -8 -7
l-9 -6 -5 5 -5 5 5 8 c2 4 6 8 8 9 4 1 11 7 11 11 0 5 14 33 19 36 2 1 9 3 15
3 6 0 12 1 13 2 2 1 2 1 13 3 13 4 32 2 37 -3z m-26 -167 c14 -14 -2 -38 -20
-30 -19 8 -13 35 7 35 6 0 9 -1 13 -5z m1286 -45 c10 -9 3 -26 -10 -26 -8 0
-15 7 -15 15 0 13 16 20 25 11z m-1279 -31 c14 -9 8 -29 -8 -29 -16 0 -22 20
-8 29 4 3 7 5 8 5 1 0 4 -2 8 -5z m64 -94 c11 -11 3 -29 -13 -29 -15 0 -23 18
-13 29 7 7 20 7 26 0z m1276 -44 c4 -4 4 -4 0 -9 -4 -5 -5 -5 -10 1 -4 4 -4 4
0 9 6 5 4 5 10 -1z"/>
<path d="M1171 2170 c-7 -2 -14 -9 -19 -19 -5 -9 -13 -17 -19 -17 -8 0 -43
-10 -49 -13 -11 -8 -22 -22 -26 -34 -1 -5 -2 -23 -2 -43 0 -31 0 -36 4 -43 2
-5 6 -9 7 -9 2 0 3 -1 3 -2 0 -4 23 -7 27 -3 1 1 6 5 10 8 4 3 13 10 19 15 15
12 30 19 41 19 19 -1 27 -19 18 -38 -3 -7 -3 -12 -1 -29 1 -5 12 -10 19 -9 19
3 29 7 40 19 28 29 36 56 22 70 -3 3 -6 5 -7 5 -1 0 -6 2 -12 4 -16 8 -18 17
-4 31 15 16 23 50 15 66 -5 11 -21 18 -40 18 -6 0 -13 1 -17 3 -6 3 -19 4 -29
1z"/>
<path d="M1362 2150 c0 -2 -4 -2 -14 -2 -17 1 -18 0 -23 -28 -1 -3 1 -14 4
-24 6 -23 6 -29 0 -51 -6 -22 -7 -71 -2 -84 4 -9 14 -21 18 -21 2 0 3 -1 3 -2
0 -1 1 -1 3 -2 29 -3 37 -2 50 10 8 7 9 10 9 17 0 8 -4 19 -6 19 -1 0 -2 1 -2
3 0 1 -3 5 -6 8 -9 9 -13 16 -13 28 0 15 5 22 16 26 19 7 22 11 23 33 l1 11
-8 6 c-4 2 -10 6 -12 8 -2 2 -7 6 -11 9 -5 3 -10 9 -13 15 -6 11 -17 25 -17
21z"/>
<path d="M270 1961 c-12 -6 -17 -30 -11 -46 4 -9 14 -21 18 -21 2 0 3 -1 3 -2
0 -2 8 -3 22 -3 9 0 13 1 20 5 8 6 8 6 8 19 l1 14 -18 19 -18 18 -10 0 c-5 0
-12 -1 -15 -3z"/>
</g>
</svg>
