<?xml version="1.0" standalone="no"?>
<!DOCTYPE svg PUBLIC "-//W3C//DTD SVG 20010904//EN"
 "http://www.w3.org/TR/2001/REC-SVG-20010904/DTD/svg10.dtd">
<svg version="1.0" xmlns="http://www.w3.org/2000/svg"
 width="1108.000000pt" height="2870.000000pt" viewBox="0 0 1108.000000 2870.000000"
 preserveAspectRatio="xMidYMid meet">
<metadata>
Created by potrace 1.15, written by Peter Selinger 2001-2017
</metadata>
<g transform="translate(0.000000,2870.000000) scale(0.500000,-0.500000)"
fill="#000000" stroke="none">
<path d="M1179 3848 c-10 -4 -22 -16 -25 -25 -5 -19 -1 -40 10 -47 8 -5 26
-11 33 -10 5 0 8 -1 12 -5 11 -11 3 -32 -12 -31 -3 1 -11 -1 -17 -3 -25 -8
-28 -14 -28 -55 l1 -29 -6 -6 c-6 -6 -7 -6 -25 -5 -14 0 -21 -1 -27 -3 -8 -3
-19 -12 -20 -17 0 -2 -1 -6 -3 -9 -1 -3 -3 -10 -4 -14 -2 -11 -5 -14 -14 -17
-10 -3 -12 -3 -19 3 -4 3 -6 7 -7 13 -1 5 -3 12 -4 15 -2 3 -3 7 -3 9 -1 5
-12 14 -20 17 -7 3 -19 3 -84 3 l-76 -1 -6 6 -6 6 1 27 c1 25 1 28 6 35 3 3 5
6 6 6 3 -2 21 11 31 21 18 19 29 52 22 68 -3 8 -11 16 -21 20 -9 5 -12 5 -49
7 -14 1 -36 3 -48 4 -12 2 -35 3 -50 3 -23 -1 -32 0 -47 4 -27 6 -36 4 -56
-16 -11 -12 -14 -14 -20 -14 -8 0 -15 6 -22 17 -10 16 -13 19 -26 19 -11 0
-12 0 -18 -7 -10 -14 -10 -18 -9 -96 0 -40 1 -80 2 -91 l1 -18 -6 -6 c-8 -8
-20 -8 -46 0 l-19 6 -60 0 c-74 0 -78 -1 -88 -22 -6 -14 -14 -24 -17 -24 -3 0
-11 10 -17 24 -5 11 -12 17 -23 20 -7 2 -184 2 -190 0 -10 -4 -14 -6 -18 -11
-7 -9 -9 -22 -5 -36 1 -4 2 -9 4 -16 1 -3 1 -7 2 -9 1 -2 1 -6 2 -8 2 -10 12
-26 18 -31 16 -12 31 -13 46 -3 9 6 19 24 22 39 5 24 49 24 54 0 4 -17 13 -33
23 -40 l9 -6 66 0 c52 -1 69 0 78 2 15 4 29 4 44 0 8 -2 21 -3 38 -2 28 0 29
0 55 15 21 12 38 7 38 -11 0 -4 -3 -17 -7 -29 l-7 -21 0 -42 c0 -34 1 -44 3
-50 4 -9 14 -21 18 -21 2 0 3 -1 3 -2 0 -2 1 -2 31 -3 25 -1 67 1 90 5 15 3
23 7 41 22 16 13 19 14 37 11 27 -4 38 4 45 31 3 13 5 17 14 27 15 16 19 25
19 42 0 13 0 14 6 19 5 5 6 5 16 4 14 -3 14 -3 17 -5 2 -2 6 -3 9 -4 6 0 5 0
-1 -1 -10 0 -22 -12 -26 -24 -1 -6 -2 -29 -2 -79 l1 -70 -6 -6 -6 -6 -50 0
c-49 0 -50 0 -60 -5 -20 -9 -28 -12 -35 -12 -7 0 -15 3 -35 12 -10 5 -11 5
-78 6 -66 0 -68 0 -76 -4 -8 -4 -10 -7 -14 -15 -3 -5 -5 -12 -5 -14 0 -3 -1
-5 -2 -6 -2 0 -2 -1 0 -1 1 0 2 -4 2 -11 0 -9 -1 -12 -6 -20 -8 -11 -8 -19 -1
-33 9 -18 9 -18 66 -19 40 -1 52 0 62 2 9 2 18 3 39 2 19 -1 29 -1 33 1 9 3
32 3 45 -1 6 -1 13 -3 15 -2 2 0 6 1 7 1 7 0 16 11 22 23 3 7 6 13 6 14 0 4 7
10 15 13 26 11 49 7 49 -9 0 -8 7 -46 9 -50 1 -1 2 -23 3 -48 l1 -46 -6 -6 -6
-6 -97 0 -97 0 -8 -5 c-5 -2 -11 -6 -14 -9 -7 -6 -17 -11 -22 -11 -5 0 -15 5
-22 11 -3 3 -9 7 -14 9 -8 5 -9 5 -97 6 -53 1 -92 2 -96 4 -26 7 -30 15 -23
45 4 17 3 32 -3 39 -2 3 -4 7 -4 8 0 1 -2 2 -4 2 -4 0 -3 1 3 4 4 3 9 5 10 6
1 1 16 2 34 2 35 0 42 1 50 10 6 7 13 25 14 36 1 5 4 15 6 23 7 19 7 23 -1 39
-7 13 -16 17 -50 16 -30 -1 -38 -4 -52 -18 -19 -19 -29 -19 -49 1 -8 8 -10 9
-21 9 -12 1 -13 1 -18 -4 -5 -6 -14 -26 -14 -31 0 -2 -3 -6 -6 -9 -6 -6 -7 -6
-19 -6 -13 1 -22 7 -23 15 -1 7 -4 8 -20 7 -20 0 -23 -2 -15 -5 4 -2 7 -4 7
-6 0 -22 4 -42 9 -49 17 -21 28 -26 69 -28 21 0 33 -1 37 -3 10 -5 16 -9 14
-9 -4 0 -10 -18 -12 -31 -4 -57 -36 -99 -95 -126 -52 -25 -68 -35 -91 -58 -25
-25 -40 -51 -49 -85 -6 -21 -7 -73 -1 -91 13 -44 44 -86 72 -100 7 -3 12 -5
12 -5 0 0 4 -1 9 -4 5 -2 17 -8 28 -12 35 -13 71 -9 108 12 20 12 25 16 35 32
11 17 14 19 26 29 31 22 60 93 64 156 2 27 -3 39 -20 50 -17 11 -16 11 -38 7
-27 -6 -29 -6 -33 -2 -9 9 -2 20 13 19 11 0 26 2 42 5 10 2 11 2 24 -4 8 -4
15 -8 15 -9 1 -1 2 -1 2 -1 0 1 3 0 7 -1 6 -3 33 -3 178 -3 l170 0 9 5 c12 5
22 25 20 39 -1 6 7 14 15 14 8 0 16 -8 15 -14 -1 -6 3 -20 8 -29 7 -12 26 -18
47 -13 13 3 18 11 17 25 -1 8 0 11 2 12 2 0 1 1 -2 1 -5 0 -21 12 -26 21 -11
18 2 32 23 24 23 -10 42 -38 30 -45 -2 -1 -3 -2 -2 -2 1 0 2 -2 2 -4 2 -20 7
-29 20 -32 12 -3 199 -3 209 0 5 2 8 3 8 4 0 1 1 2 3 2 3 0 10 8 16 20 8 16
13 20 22 20 9 0 14 -4 22 -20 6 -12 13 -20 16 -20 2 0 3 -1 3 -2 0 -3 16 -6
32 -6 16 0 28 -3 28 -8 0 -1 2 -2 4 -2 2 0 2 -1 0 -1 -2 -1 -8 -7 -14 -13 -6
-6 -19 -18 -28 -26 -9 -9 -21 -19 -25 -23 -4 -4 -12 -10 -17 -13 l-9 -5 -109
-1 c-127 -1 -116 1 -116 -21 1 -7 0 -12 0 -12 -1 1 -2 0 -2 -2 0 -1 -2 -3 -3
-4 -3 0 -2 -1 2 -1 6 -1 9 -1 11 -2 2 -1 9 -2 16 -3 7 -1 19 -7 44 -22 12 -8
14 -9 21 -25 8 -16 19 -28 24 -28 1 0 6 -4 11 -8 5 -5 7 -8 5 -8 -1 0 -4 -1
-4 -3 -6 -9 -43 -45 -52 -49 l-10 -5 -83 7 c-95 7 -97 7 -110 -6 -13 -13 -15
-30 -7 -53 5 -13 5 -35 0 -49 -3 -7 -4 -17 -4 -28 0 -16 0 -17 -6 -23 l-6 -6
-47 0 c-26 0 -68 -1 -93 -1 -25 -1 -49 0 -52 1 -3 0 -29 1 -58 1 -55 0 -60 -1
-68 -10 -5 -6 -12 -27 -11 -34 0 -3 -1 -14 -2 -25 -3 -21 0 -30 12 -42 11 -12
19 -13 61 -13 40 1 42 1 47 6 1 1 4 2 5 2 3 0 6 16 4 21 0 1 1 4 2 7 4 5 -2
11 -8 10 -5 0 -16 4 -22 11 -10 8 -3 25 10 25 8 0 27 -18 27 -25 0 -4 6 -7 10
-6 2 1 8 0 13 -2 13 -4 13 -4 49 -4 35 0 31 2 47 -23 12 -19 19 -22 58 -22 27
0 31 0 49 6 27 8 36 9 43 1 7 -7 7 -25 0 -32 -4 -4 -12 -6 -18 -5 -12 2 -29
-3 -38 -11 -4 -4 -7 -7 -7 -7 -1 -1 -1 -20 -2 -44 -1 -30 -3 -49 -6 -64 -2
-12 -4 -25 -4 -30 0 -12 -6 -18 -16 -18 -8 0 -16 7 -16 13 0 7 -7 25 -12 31
-8 10 -18 12 -39 11 -34 -2 -46 -3 -70 -4 -13 -1 -28 -2 -32 -2 -4 -1 -37 -1
-71 -2 -70 -1 -71 -1 -83 -14 -5 -5 -6 -7 -6 -18 0 -11 0 -13 8 -21 9 -10 23
-17 42 -20 34 -6 115 -34 121 -42 1 -1 5 -3 9 -6 10 -6 11 -6 30 -24 10 -9 19
-16 21 -16 2 0 4 -1 5 -2 1 -1 7 -3 13 -5 17 -5 18 -8 12 -33 -4 -19 -4 -22
-2 -34 5 -25 13 -36 39 -49 11 -5 15 -10 15 -17 0 -8 7 -26 12 -31 9 -10 20
-11 50 -6 28 5 41 9 50 17 7 8 14 17 16 22 3 7 10 12 17 12 7 1 19 -2 22 -4 4
-3 24 -6 31 -5 9 1 16 5 42 22 18 12 36 27 33 27 -1 0 0 1 2 3 4 4 7 15 9 35
2 19 4 26 9 30 2 1 5 6 8 11 5 9 6 14 4 51 0 13 0 15 5 19 11 8 15 11 17 11 2
0 3 5 3 19 0 19 0 19 -6 20 -9 1 -20 6 -24 10 -9 9 -3 33 8 33 7 0 28 10 34
15 9 10 10 19 10 80 l-1 56 6 6 6 6 348 -1 c345 0 348 0 354 4 11 7 14 23 10
47 -2 11 1 16 14 23 6 4 12 8 13 10 2 5 0 29 -3 31 -5 4 -18 14 -21 17 -8 7
-67 51 -78 58 -2 2 -13 9 -24 17 -54 40 -74 55 -83 64 -5 6 -12 11 -14 13 -6
3 -24 3 -32 0 -5 -2 -5 -2 -5 -17 l1 -14 11 -12 c14 -13 18 -24 14 -38 -6 -22
-28 -27 -53 -11 -9 6 -27 7 -36 3 -3 -2 -9 -7 -13 -13 -4 -5 -7 -9 -8 -10 -1
-1 -3 -4 -6 -8 -3 -4 -7 -9 -9 -12 -3 -3 -5 -6 -5 -6 0 -3 -12 -14 -18 -17
-11 -6 -37 -7 -89 -6 l-50 2 -21 -7 c-26 -7 -30 -7 -56 0 l-20 6 -60 0 -61 -1
-6 6 c-6 6 -6 7 -4 12 4 11 9 18 17 22 17 8 34 30 43 56 5 17 9 18 34 14 25
-4 45 -3 65 3 23 7 126 39 168 52 20 7 45 13 55 15 31 6 49 12 64 23 19 13 25
19 27 29 3 11 10 23 17 28 3 2 22 12 42 22 34 17 50 26 77 40 10 6 32 25 32
29 0 3 19 11 29 13 4 1 18 5 31 9 13 4 28 9 35 10 23 5 44 15 62 31 8 8 8 8 9
22 0 14 0 14 -6 17 -5 4 -18 7 -24 6 -31 -3 -39 3 -38 33 0 26 -3 37 -18 51
-25 24 -61 58 -65 61 -7 4 -28 9 -40 9 -15 -1 -20 3 -24 17 -4 15 -9 18 -27
18 -10 0 -14 -1 -17 -4 -5 -4 -15 -5 -29 -1 -12 3 -27 1 -33 -5 -5 -6 -8 -14
-10 -30 -2 -21 -6 -25 -31 -29 -12 -2 -25 -7 -24 -11 0 -1 -1 -2 -2 -3 -3 -2
-5 -19 -4 -25 4 -11 3 -21 -3 -27 -10 -9 -33 -4 -33 9 0 6 -7 25 -12 31 -2 3
-7 7 -12 10 l-9 4 -169 0 -169 -1 -6 6 -6 6 0 44 0 44 6 6 6 6 241 -1 c239 0
240 0 258 4 19 5 37 6 44 2 12 -7 43 -12 49 -8 3 1 13 2 24 2 34 1 35 2 35 27
l1 14 -13 7 c-18 9 -34 11 -50 7 -21 -5 -34 0 -38 17 -4 16 5 34 17 34 12 0
41 14 41 20 2 22 -3 33 -18 42 -4 3 -8 6 -8 6 0 6 -36 -3 -36 -8 0 -1 -4 -6
-9 -11 -7 -8 -9 -9 -17 -9 -15 0 -24 17 -15 30 3 4 3 25 1 34 -2 6 -7 14 -8
14 -1 0 -12 10 -24 22 -25 26 -28 28 -45 28 -15 0 -18 -2 -36 -26 -6 -7 -10
-13 -11 -14 -1 -1 -6 -7 -11 -14 -6 -7 -10 -13 -11 -14 -1 -1 -6 -7 -11 -14
-6 -7 -10 -13 -11 -14 -1 -1 -6 -7 -11 -14 -6 -7 -12 -15 -14 -18 -3 -3 -5 -6
-5 -6 0 -1 -4 -5 -9 -8 -9 -6 -11 -7 -33 -8 -13 -1 -26 -3 -30 -4 -7 -3 -18
-14 -18 -18 -1 -3 -1 -5 -3 -10 -2 -3 -3 -10 -4 -15 -2 -12 -8 -19 -18 -21
-17 -4 -35 5 -35 17 -1 13 -2 17 -4 21 -1 2 -3 6 -3 8 -1 7 -11 16 -20 19 -7
3 -18 3 -70 3 l-62 -1 -6 7 c-4 3 -7 8 -7 10 0 2 -1 6 -3 9 -4 7 -11 28 -11
33 0 5 7 12 13 12 5 0 15 -5 23 -12 13 -11 20 -13 59 -13 40 1 88 6 95 10 3 2
5 2 26 5 14 2 45 12 53 17 10 6 17 17 31 45 18 34 21 42 20 54 -1 7 0 10 5 15
l6 6 28 -1 c36 0 48 2 52 11 2 4 3 11 3 17 0 6 1 10 3 11 1 0 1 1 -1 1 -6 0
-8 5 -8 15 0 13 6 19 19 19 13 0 19 -6 19 -19 0 -10 -2 -15 -8 -15 -2 0 -2 -1
0 -1 1 -1 2 -5 2 -11 0 -6 1 -13 3 -17 5 -10 12 -11 100 -11 l76 0 12 6 c9 4
15 9 21 17 9 11 17 16 28 18 14 3 22 6 39 16 18 11 20 11 38 13 28 3 34 7 33
25 0 15 -1 15 -17 29 -26 21 -29 22 -59 23 -32 1 -34 2 -44 32 -7 22 -13 31
-31 45 -6 5 -20 16 -30 25 l-18 15 -15 0 -15 -1 -8 -10 c-4 -6 -10 -13 -13
-17 -3 -4 -6 -8 -7 -9 -2 -2 -12 -15 -20 -26 -2 -3 -5 -7 -7 -9 -2 -2 -5 -6
-8 -10 -3 -4 -7 -10 -10 -13 -3 -4 -7 -9 -9 -12 -2 -3 -6 -8 -8 -11 -3 -3 -5
-6 -6 -8 -1 -2 -5 -5 -11 -8 -9 -5 -10 -5 -66 -6 l-57 -1 -6 6 c-6 6 -6 7 -6
27 0 26 -4 35 -22 47 -18 12 -19 14 -18 29 1 7 1 15 2 18 3 13 5 37 4 40 -1 2
-2 6 -2 9 -1 3 -2 7 -4 7 -1 1 -2 3 -2 3 1 4 -7 11 -14 14 -6 3 -39 6 -120 12
-8 1 -30 2 -49 4 -40 3 -46 3 -55 1z m197 -171 c3 -3 5 -9 6 -16 2 -15 9 -38
12 -40 2 -1 10 -19 10 -22 0 -4 -6 -10 -11 -11 -4 0 -15 6 -19 10 -1 2 -6 7
-12 10 -5 4 -9 7 -10 8 -1 1 -8 5 -23 13 -18 9 -27 19 -27 30 0 13 9 20 34 22
19 3 35 1 40 -4z m-745 -38 c5 -8 1 -16 -8 -16 -9 0 -13 8 -8 16 2 3 5 5 8 5
3 0 6 -2 8 -5z m132 -65 c10 -9 3 -26 -10 -26 -8 0 -15 7 -15 15 0 13 16 20
25 11z m205 -11 c3 -3 4 -6 4 -11 -1 -3 -1 -6 0 -6 1 0 2 -2 3 -5 1 -6 7 -12
12 -12 15 -2 21 -2 29 0 8 3 9 2 20 -3 6 -4 12 -8 14 -9 9 -7 20 -9 56 -9 l35
1 6 -6 7 -7 -5 -5 c-7 -10 -8 -10 -15 -9 -9 2 -24 -2 -31 -9 -4 -5 -14 -28
-12 -30 2 -1 -3 -18 -7 -22 -9 -10 -31 -11 -43 -1 -5 5 -7 11 -8 27 -1 32 -12
44 -34 38 -6 -2 -17 -23 -18 -35 -2 -14 -10 -21 -23 -21 -16 0 -22 7 -23 27
-1 23 -9 36 -24 40 -6 1 -7 2 -3 2 7 0 10 6 5 9 -2 2 -1 3 5 6 6 2 9 5 13 14
3 6 5 12 5 14 0 1 1 3 2 4 1 0 1 4 0 7 -1 9 6 16 17 16 6 0 9 -1 13 -5z m-325
-133 c11 -10 3 -28 -11 -28 -9 0 -16 6 -16 16 0 14 17 22 27 12z m685 -19 l-5
-5 -4 4 -5 5 4 4 5 5 4 -4 5 -5 -4 -4z m294 -97 c5 -6 5 -12 0 -18 -7 -8 -22
-2 -22 9 0 11 15 17 22 9z m-604 -18 c8 -8 2 -18 -15 -31 -4 -3 -8 -6 -9 -7
-3 -4 -19 -12 -24 -12 -7 0 -14 6 -14 13 0 5 6 17 9 17 1 0 23 14 25 16 2 2
17 8 21 7 2 0 6 -2 7 -3z m-483 -51 c8 -11 -7 -22 -16 -13 -5 6 -6 10 0 14 6
5 12 5 16 -1z m1174 -288 c13 -8 29 -15 43 -19 17 -5 22 -11 22 -23 0 -21 -6
-28 -24 -28 -8 0 -12 2 -24 9 -8 5 -17 10 -20 11 -3 1 -8 4 -13 6 -4 2 -9 3
-10 3 -2 0 -6 3 -9 6 -9 8 -9 26 0 34 8 8 23 8 35 1z m-161 -8 l5 -6 -4 -38
c-4 -35 -5 -38 -9 -42 l-6 -6 -15 14 c-9 8 -18 16 -21 18 -2 2 -6 5 -8 7 -2 2
-10 10 -19 17 -9 8 -19 17 -24 21 -4 4 -9 7 -10 8 -2 1 0 3 5 7 l9 5 46 0 46
0 5 -5z m-210 -68 c3 -3 4 -7 4 -14 0 -13 -6 -19 -19 -19 -13 0 -19 6 -19 19
0 7 1 11 4 14 7 8 23 8 30 0z m-1033 -49 c5 -5 6 -7 6 -16 0 -13 -4 -17 -24
-27 -20 -11 -22 -11 -26 -15 -6 -7 -17 -12 -25 -12 -13 0 -14 0 -20 6 -5 5 -6
7 -6 18 0 15 4 20 22 27 8 3 22 10 30 15 22 14 32 15 43 4z m-156 -32 c10 -8
13 -42 5 -51 -9 -10 -30 -4 -37 10 -5 12 -6 33 -2 39 7 7 26 9 34 2z m1216
-45 c12 -12 3 -31 -13 -31 -11 0 -18 7 -18 18 0 11 7 18 18 18 6 0 9 -1 13 -5z
m-430 -199 c10 -9 3 -26 -10 -26 -8 0 -15 7 -15 15 0 13 16 20 25 11z m811
-13 c7 -5 37 -33 39 -38 2 -2 3 -9 3 -15 0 -15 -7 -22 -22 -22 -17 0 -19 2
-40 37 -12 18 -13 28 -6 36 6 6 18 7 26 2z m-443 -94 c3 -3 3 -3 0 -6 -4 -5
-11 1 -7 6 4 4 4 4 7 0z m-216 -89 c4 -6 4 -24 -1 -30 -7 -9 -27 -9 -34 0 -5
6 -5 24 0 30 7 9 27 9 35 0z m-141 -142 c5 -5 6 -7 6 -17 0 -16 -7 -23 -23
-23 -16 0 -23 7 -23 23 0 16 7 23 23 23 10 0 12 -1 17 -6z m100 -78 c5 -5 6
-7 6 -17 0 -16 -7 -23 -23 -23 -16 0 -23 7 -23 23 0 16 7 23 23 23 10 0 12 -1
17 -6z"/>
<path d="M456 2857 c-10 -5 -13 -10 -17 -23 -2 -10 -2 -11 6 -36 12 -37 19
-47 36 -55 11 -5 11 -5 84 -5 80 0 85 1 96 11 6 6 13 21 16 35 1 8 9 12 20 12
11 0 19 -4 20 -12 5 -24 16 -39 31 -44 10 -3 215 -3 226 0 10 3 16 9 18 23 3
15 -1 25 -16 36 -2 1 -4 3 -6 4 -2 2 -7 3 -11 4 -4 1 -9 2 -9 2 -2 1 -15 -3
-23 -7 -6 -3 -23 -8 -26 -8 -7 0 -10 6 -7 15 1 5 3 10 4 10 1 1 2 7 2 14 0 11
-1 13 -5 17 -11 12 -15 12 -141 12 -134 0 -129 1 -149 -18 -16 -15 -20 -16
-31 -10 -16 9 -30 11 -46 7 -10 -3 -11 -3 -19 0 -4 2 -10 5 -12 7 -12 11 -31
15 -41 9z m360 -55 c5 -6 5 -12 0 -18 -7 -8 -22 -2 -22 9 0 11 15 17 22 9z"/>
<path d="M91 2510 c-20 -8 -28 -27 -20 -50 7 -20 21 -28 48 -29 15 0 28 -5 31
-11 6 -10 16 -21 27 -27 7 -4 11 -4 56 -5 54 0 56 0 80 14 16 9 22 10 40 6 14
-3 47 -2 63 3 17 5 23 12 25 34 2 14 10 27 18 27 2 0 3 1 2 1 -2 1 -3 6 -3 17
0 12 -1 16 -3 18 -5 4 -131 5 -146 2 -15 -3 -27 -20 -30 -40 -2 -19 -12 -28
-30 -27 -16 1 -22 6 -29 23 -5 15 -11 19 -27 20 -11 0 -14 0 -17 -3 -3 -2 -7
-4 -14 -4 -10 0 -15 3 -30 17 -12 11 -30 18 -41 14z"/>
</g>
</svg>
