<?xml version="1.0" standalone="no"?>
<!DOCTYPE svg PUBLIC "-//W3C//DTD SVG 20010904//EN"
 "http://www.w3.org/TR/2001/REC-SVG-20010904/DTD/svg10.dtd">
<svg version="1.0" xmlns="http://www.w3.org/2000/svg"
 width="1109.000000pt" height="2870.000000pt" viewBox="0 0 1109.000000 2870.000000"
 preserveAspectRatio="xMidYMid meet">
<metadata>
Created by potrace 1.15, written by Peter Selinger 2001-2017
</metadata>
<g transform="translate(0.000000,2870.000000) scale(0.500000,-0.500000)"
fill="#000000" stroke="none">
<path d="M824 3860 c-35 -15 -40 -20 -41 -39 -1 -13 1 -17 10 -25 8 -9 14 -17
16 -24 3 -9 7 -11 22 -11 16 -1 17 -1 22 12 6 15 13 18 34 17 2 0 6 -3 9 -6
11 -10 8 -34 -4 -40 -6 -3 -31 -3 -38 1 -7 4 -15 2 -13 -3 0 -2 0 -5 -1 -5 -3
-2 -1 -33 2 -38 3 -7 10 -30 10 -35 0 -3 2 -8 4 -11 3 -4 4 -9 4 -22 0 -24 -5
-35 -13 -30 -13 8 -21 9 -134 9 -138 0 -127 3 -147 -47 -3 -7 -11 -12 -22 -12
-11 0 -19 5 -22 12 -18 47 -15 45 -91 47 -61 2 -69 3 -79 11 -6 5 -11 20 -9
28 1 3 0 11 -2 19 -6 23 -21 32 -39 22 -11 -5 -18 -16 -26 -40 -9 -27 -14 -39
-26 -55 -16 -21 -35 -38 -56 -49 -19 -10 -45 -26 -52 -31 -22 -18 -41 -40 -49
-55 -2 -4 -4 -7 -5 -8 -2 -2 -13 -28 -15 -36 -1 -4 -2 -8 -2 -9 -8 -31 -5 -58
8 -73 5 -4 27 -16 32 -16 2 0 6 -3 9 -6 7 -7 8 -21 3 -34 -4 -10 -3 -30 2 -38
6 -8 28 -21 47 -28 17 -7 18 -7 51 -7 19 0 35 -1 36 -1 3 0 -3 -8 -11 -13 -7
-5 -14 -13 -16 -21 -4 -16 -1 -25 11 -33 27 -20 26 -20 38 -19 20 0 25 5 33
32 5 18 11 29 26 44 12 13 19 16 32 14 10 -2 14 -8 14 -20 0 -12 -5 -23 -19
-47 -7 -11 -16 -27 -21 -35 -12 -20 -16 -23 -35 -23 -15 1 -24 -2 -26 -7 -1
-2 -2 -10 -2 -19 0 -10 -2 -22 -5 -30 -2 -8 -5 -17 -6 -21 -1 -4 -2 -23 -1
-49 0 -23 0 -49 0 -57 0 -8 0 -148 0 -310 -1 -272 -1 -296 2 -304 4 -9 16 -23
23 -25 2 -1 6 -4 8 -8 l4 -7 -4 -7 c-2 -4 -6 -7 -8 -8 -7 -2 -18 -14 -22 -24
-4 -7 -4 -13 -4 -31 l0 -22 8 -8 c6 -7 9 -8 19 -9 9 -2 14 -2 17 0 7 4 20 2
31 -3 13 -6 36 -7 46 -1 16 8 31 1 31 -14 0 -14 -4 -16 -30 -16 -23 0 -30 -2
-41 -12 -11 -10 -27 -13 -37 -8 -3 2 -8 2 -17 0 -10 -1 -13 -2 -19 -9 l-8 -8
1 -25 c0 -27 2 -32 13 -43 11 -10 19 -11 40 -7 25 5 36 4 43 -2 6 -4 6 -6 6
-20 0 -20 -2 -22 -29 -28 -12 -3 -24 -6 -28 -7 -10 -2 -24 -8 -20 -8 1 0 2 -5
2 -18 0 -14 1 -18 3 -19 2 0 16 -1 31 -1 49 0 93 6 130 18 70 23 104 53 105
95 0 12 1 14 6 20 l6 6 86 -1 c95 0 101 0 116 11 6 4 9 7 8 7 0 0 1 2 4 5 6 7
6 9 4 22 -3 20 -10 27 -35 36 l-16 5 -25 -4 c-35 -6 -45 -2 -49 16 -4 15 3 31
13 33 2 0 10 3 17 6 25 10 32 11 54 7 16 -3 22 -4 29 -2 13 3 32 13 36 20 5 7
9 23 9 35 0 6 1 10 4 13 5 5 16 5 20 1 1 -2 4 -3 5 -3 1 0 5 -3 8 -6 4 -3 9
-6 11 -7 8 -2 24 -3 24 -1 1 0 5 3 9 5 24 13 56 31 67 37 3 2 8 5 11 7 7 4 41
26 44 29 4 3 16 6 20 5 2 0 5 -1 7 -1 3 0 24 -22 35 -36 4 -6 10 -13 12 -16 3
-3 5 -6 5 -6 0 -1 2 -4 5 -7 3 -3 5 -7 5 -7 0 -1 1 -3 3 -4 1 -2 5 -7 7 -11
17 -27 35 -40 61 -45 22 -5 56 0 69 11 10 7 13 23 9 48 -1 8 -1 10 3 14 5 5 6
5 20 4 40 -4 53 13 53 69 0 25 0 28 -7 47 -5 17 -21 48 -28 58 -23 28 -28 33
-45 48 -10 9 -11 11 -13 22 l-3 12 10 9 c6 5 15 15 20 23 5 8 11 15 12 16 2 3
23 35 27 42 2 3 4 7 5 9 6 10 19 31 20 34 1 5 17 14 30 17 22 6 53 26 53 35 0
2 1 1 3 -2 2 -3 5 -6 6 -6 0 -1 2 -6 2 -12 1 -6 2 -14 3 -18 3 -7 14 -20 19
-20 2 0 3 -1 3 -2 0 -2 1 -2 1 -2 1 1 4 0 8 -1 6 -2 8 -2 20 1 7 3 13 5 13 6
0 1 1 2 2 2 1 0 7 5 13 11 13 13 16 14 38 14 15 0 17 -1 22 -5 6 -6 7 -14 2
-25 -3 -6 -3 -6 -19 -7 -18 0 -22 -1 -33 -6 -11 -6 -22 -19 -32 -39 -10 -19
-9 -15 -7 -59 0 -3 -2 -11 -5 -17 -9 -19 -9 -22 -10 -41 -1 -24 -2 -27 -17
-42 -23 -23 -24 -38 -7 -68 10 -18 12 -26 9 -37 -1 -5 -1 -12 0 -20 2 -11 4
-15 18 -37 3 -4 6 -12 7 -17 2 -13 -2 -18 -17 -24 -20 -8 -32 -26 -30 -47 1
-5 0 -8 -5 -13 l-6 -6 -41 1 c-47 0 -52 -1 -76 -15 -21 -13 -31 -13 -51 -1
-23 14 -31 16 -63 16 -29 0 -36 -2 -44 -10 -6 -6 -12 -27 -10 -34 3 -6 0 -20
-5 -25 -9 -10 -33 -10 -42 0 -5 5 -8 19 -5 25 1 5 0 13 -5 28 l-4 8 -12 0
c-13 -1 -21 -6 -26 -20 -6 -13 -12 -20 -20 -20 -8 0 -13 6 -21 22 -9 20 -21
26 -54 26 -35 0 -41 -3 -55 -29 -7 -15 -9 -16 -14 -16 -5 0 -7 1 -13 14 l-8
15 -16 -1 -16 0 -6 -13 c-10 -24 -4 -49 20 -73 1 -2 2 -3 1 -3 -1 0 2 -3 7 -6
16 -12 11 -12 192 -12 183 0 169 -1 198 13 19 10 25 10 46 -1 26 -12 27 -12
88 -12 l55 1 6 -6 6 -6 -1 -38 c0 -31 0 -39 3 -46 4 -9 14 -21 18 -21 2 0 3
-1 3 -2 0 -2 2 -2 38 -3 29 0 51 1 71 4 3 0 11 1 16 2 21 3 33 11 46 30 5 8
11 16 13 18 5 4 18 4 30 0 26 -9 52 3 67 33 5 11 6 16 7 30 1 20 0 22 -14 50
-12 25 -12 31 0 56 5 11 10 21 11 23 1 2 2 38 2 79 l1 75 -7 22 c-9 26 -9 24
0 50 l7 22 0 74 c0 78 -1 84 -9 93 -4 5 -27 16 -32 16 -4 0 -11 9 -11 15 0 6
7 15 12 15 4 0 27 11 31 16 8 9 9 16 9 88 0 42 -1 71 -2 77 -3 10 -10 15 -23
16 -5 1 -11 1 -12 2 -2 0 -3 0 -3 -1 -3 -7 -27 -5 -32 2 -5 6 -5 24 0 30 5 7
29 9 32 2 0 -1 1 -1 3 -1 1 1 7 1 12 2 18 1 25 11 25 35 0 17 5 25 20 31 5 2
10 5 12 6 2 2 4 3 6 3 1 0 2 1 2 2 0 1 1 2 3 2 5 0 27 22 33 33 8 14 8 26 1
39 -3 5 -7 10 -8 12 -6 5 -5 20 1 20 1 0 2 2 2 4 0 5 11 22 18 30 3 3 9 7 14
9 9 4 12 10 20 33 12 35 11 87 -3 126 -7 18 -17 41 -19 42 -1 0 -2 1 -2 2 0 4
-25 38 -35 49 -13 14 -17 15 -32 15 -13 -1 -14 -1 -17 -7 -5 -7 -9 -25 -8 -36
0 -15 -16 -23 -26 -12 -5 5 -5 10 -1 24 3 11 3 16 0 53 -1 11 -1 12 5 18 6 6
6 6 27 6 29 0 33 1 65 20 24 15 42 23 54 25 12 2 26 6 34 9 17 8 45 31 46 39
2 11 1 21 -1 26 -3 7 -2 6 -32 34 -12 11 -26 25 -32 30 -24 23 -50 46 -56 50
-9 6 -21 9 -39 9 -24 -1 -27 3 -30 28 -2 18 -3 23 -7 32 -4 7 -36 39 -47 46
-6 5 -23 5 -33 1 -3 -1 -29 -26 -59 -57 -37 -38 -56 -56 -63 -60 l-10 -5 -174
-1 -174 0 -8 5 c-5 3 -8 6 -7 7 3 2 7 22 8 39 1 71 -61 140 -155 174 -32 11
-61 17 -108 23 -24 3 -107 4 -113 2z m135 -170 c6 -5 4 -16 -8 -35 -10 -16
-15 -19 -29 -19 -7 0 -14 1 -16 2 -5 3 -12 16 -11 22 3 23 5 24 36 31 15 3 23
3 28 -1z m762 -26 c4 -4 5 -7 5 -13 0 -10 -7 -17 -21 -21 -19 -6 -25 12 -10
32 6 8 19 9 26 2z m-46 -47 c5 -5 5 -9 -1 -15 -8 -7 -12 -7 -17 -1 -3 5 -3 5
1 12 6 9 11 10 17 4z m-665 -23 c1 0 5 -3 8 -6 5 -5 6 -7 6 -18 0 -11 -1 -13
-6 -18 -6 -6 -7 -6 -18 -6 -11 0 -12 0 -18 6 -5 5 -6 7 -6 17 0 14 3 20 12 24
5 2 8 2 22 1z m-310 -58 c7 -8 3 -20 -9 -24 -5 -2 -6 -1 -9 2 -5 5 -4 17 0 23
4 4 14 4 18 -1z m1046 -32 c5 -5 5 -11 0 -16 -10 -10 -27 5 -16 16 4 4 12 4
16 0z m-222 -13 c16 -1 24 -5 27 -11 2 -4 2 -5 -2 -8 -5 -4 -5 -4 -24 0 -18 4
-25 6 -33 12 -6 4 5 10 16 9 3 -1 10 -1 16 -2z m-901 -7 c7 -2 17 -10 13 -10
-1 0 -6 -3 -10 -6 -4 -4 -14 -12 -21 -19 -8 -6 -16 -14 -18 -18 -4 -8 -4 -26
0 -33 5 -11 7 -24 5 -33 -4 -15 -11 -20 -33 -20 -88 -3 -93 -3 -107 -13 -5 -4
-11 -8 -13 -10 -13 -9 -44 -31 -56 -40 -16 -12 -30 -19 -33 -17 -2 1 -2 1 -1
-1 1 -1 0 -2 -1 -2 -5 0 -3 8 6 24 6 9 11 17 12 18 2 1 1 20 -2 26 -1 3 -6 9
-11 12 -16 10 -19 14 -19 21 0 12 12 18 25 13 4 -1 23 2 30 6 5 2 10 9 13 18
3 11 7 60 5 68 -2 6 -2 7 4 12 l6 6 99 0 c64 0 102 -1 107 -2z m428 -3 c3 -2
7 -5 9 -6 3 -1 3 -1 0 -1 -2 0 -6 -7 -11 -17 -6 -14 -7 -17 -6 -26 2 -23 5
-26 57 -43 17 -6 22 -7 44 -7 26 -1 33 -3 41 -13 13 -15 25 -23 61 -38 14 -6
32 -13 41 -17 9 -4 19 -7 23 -8 3 -1 6 -2 6 -3 0 -1 1 -2 2 -1 1 1 2 0 2 -1 0
-1 1 -2 3 -2 1 0 4 -1 5 -3 2 -1 6 -3 10 -5 4 -1 11 -4 15 -6 4 -2 11 -4 14
-4 8 0 19 4 19 6 0 1 2 2 4 3 2 1 4 3 4 4 0 2 2 6 4 10 2 5 4 9 4 11 0 12 24
17 33 7 7 -6 7 -21 2 -27 -4 -5 -6 -28 -3 -35 3 -7 10 -13 18 -14 15 -3 39
-11 42 -15 1 -1 7 -6 14 -11 7 -5 13 -10 14 -11 1 -1 5 -4 9 -7 16 -12 21 -18
21 -27 0 -9 -1 -10 -34 -47 -20 -22 -34 -39 -40 -45 -3 -4 -9 -14 -14 -24 -13
-26 -18 -28 -52 -18 -20 6 -21 6 -69 6 -26 0 -56 -1 -66 -2 -12 -1 -24 -1 -36
0 -10 1 -61 2 -113 2 l-95 0 -9 6 c-6 4 -7 5 -5 6 2 0 6 2 8 4 2 2 11 8 20 14
9 6 17 12 18 13 14 13 33 22 58 29 37 11 58 28 73 59 10 20 11 28 4 43 -6 12
-16 17 -50 24 -16 3 -32 6 -35 7 -14 2 -94 19 -98 20 -5 2 -11 9 -11 12 0 1 2
4 4 6 10 9 14 30 7 43 -3 5 -171 134 -184 141 -5 2 -5 2 2 6 3 3 7 5 9 6 2 0
47 1 102 1 l99 0 6 -5z m-804 -50 c3 -3 3 -4 -1 -7 l-4 -4 -2 4 c-2 3 -2 5 0
7 4 4 4 4 7 0z m1051 -6 c4 -4 6 -20 3 -27 -3 -11 -27 -14 -36 -5 -6 6 -7 24
-1 31 6 8 26 9 34 1z m-642 -20 l-5 -5 -4 4 -5 5 4 4 5 5 4 -4 5 -5 -4 -4z
m-439 -17 c5 -7 4 -20 -1 -25 -10 -11 -28 -3 -28 11 0 14 21 24 29 14z m626 1
c3 -3 3 -3 0 -6 -4 -5 -11 1 -7 6 4 4 4 4 7 0z m734 -18 c6 -4 6 -6 6 -20 0
-14 0 -16 -6 -20 -4 -4 -7 -5 -18 -5 -11 0 -14 1 -18 5 -6 4 -6 6 -6 20 0 14
0 16 6 20 4 4 7 5 18 5 11 0 14 -1 18 -5z m-220 -5 c7 -6 7 -20 0 -26 -6 -6
-20 -6 -25 0 -5 6 -5 21 -1 26 5 6 20 5 26 0z m-650 -77 c3 -3 3 -3 0 -6 -4
-5 -11 1 -7 6 4 4 4 4 7 0z m-199 -9 c4 -3 7 -5 8 -6 6 -7 26 -17 34 -17 6 0
23 8 29 14 14 13 26 16 34 9 9 -9 5 -22 -9 -29 -10 -5 -23 -19 -31 -33 -7 -13
-8 -14 -20 -19 -14 -5 -21 -5 -28 3 -5 3 -12 6 -29 10 -29 7 -31 9 -29 29 2
33 21 51 41 39z m358 -38 c5 0 10 -10 10 -19 0 -14 -16 -22 -30 -14 -6 3 -27
2 -34 -3 -10 -6 -12 -11 -20 -50 -2 -10 -3 -13 -6 -25 -1 -4 -3 -11 -3 -15 -1
-4 -3 -11 -4 -15 -2 -7 -2 -11 0 -16 l2 -7 15 0 c15 0 16 0 23 7 15 13 33 8
33 -10 0 -10 -4 -15 -23 -24 -9 -4 -13 -8 -20 -18 -14 -21 -21 -23 -45 -13 -9
4 -17 6 -24 6 -12 0 -16 -3 -26 -22 -6 -13 -13 -20 -16 -16 0 1 -2 2 -4 2 -3
1 -4 16 -1 16 1 0 1 1 -1 2 -4 3 -27 2 -30 0 -17 -16 -33 -21 -48 -15 -7 3 -9
7 -18 23 -13 26 -19 30 -64 46 -76 27 -81 29 -81 35 0 5 1 6 9 9 21 7 28 15
38 42 4 10 10 18 15 18 1 0 3 1 5 1 1 0 6 -4 12 -9 14 -13 20 -16 35 -16 8 0
10 0 64 19 19 6 37 12 40 13 3 1 15 5 26 9 11 4 26 9 34 12 8 3 25 9 39 14 17
5 27 8 31 8 6 -1 21 6 25 11 3 4 31 16 36 15 2 0 5 -1 6 -1z m819 -35 c23 -6
34 -7 44 -4 15 4 30 4 35 -1 6 -6 4 -20 -5 -38 -6 -12 -6 -13 -22 -20 -17 -8
-28 -17 -33 -26 -1 -3 -3 -6 -4 -7 -1 -1 -4 -4 -6 -7 -6 -9 -27 -9 -34 0 -7 8
-5 25 2 32 6 6 6 8 6 22 0 13 -1 15 -6 23 -7 11 -8 18 -2 24 5 6 10 6 25 2z
m-727 -105 c6 -12 6 -29 1 -33 -12 -9 -25 7 -25 32 0 20 16 21 24 1z m860 -12
c6 -6 6 -10 1 -15 -5 -5 -5 -5 -11 -2 -8 5 -9 10 -5 16 4 6 11 7 15 1z m-1419
-44 c5 -5 6 -7 6 -16 0 -15 -8 -23 -23 -23 -9 0 -11 1 -16 7 -9 8 -9 23 -1 32
9 9 24 9 34 0z m1163 -25 c12 -4 25 -9 28 -12 7 -4 7 -5 7 -16 -1 -21 -9 -34
-21 -36 -6 -1 -23 -12 -30 -20 -3 -3 -10 -13 -14 -22 -5 -9 -10 -18 -12 -19
-9 -8 -24 -9 -35 -4 -7 4 -29 4 -31 0 -1 -1 -2 -2 -3 -2 -1 0 -4 -2 -6 -5 -4
-5 -4 -9 -5 -69 -1 -62 -2 -72 -8 -72 -1 0 -2 -1 -2 -3 0 -2 -2 0 -6 4 -4 3
-11 10 -17 14 -5 4 -11 9 -13 10 -1 2 -6 6 -12 10 -5 5 -14 13 -21 18 -11 10
-13 11 -22 11 -15 1 -16 0 -20 -3 -2 -2 -3 -3 -3 -2 0 5 -8 -17 -11 -29 -5
-19 -13 -42 -17 -47 -8 -8 -32 -8 -40 1 -9 8 -8 37 1 68 4 13 7 17 19 23 15 8
18 12 17 28 0 11 -1 14 -5 17 -3 1 -8 6 -12 9 -4 3 -11 9 -16 13 -5 4 -11 9
-13 11 -8 7 -27 8 -39 2 -4 -2 -27 -23 -79 -74 -20 -20 -28 -23 -54 -25 -14
-1 -22 -2 -25 -4 -5 -4 -11 -14 -13 -22 0 -1 -2 -5 -3 -8 -1 -4 -1 -6 0 -6 2
0 6 -11 4 -13 -2 -4 -12 -9 -17 -9 -7 0 -15 7 -15 14 0 9 6 26 12 35 10 13 13
22 11 22 -2 1 -2 2 -1 5 3 6 0 22 -6 37 -3 6 -6 13 -7 16 -9 20 -11 24 -14 28
-14 15 -17 28 -9 35 7 7 10 6 69 -15 4 -2 11 -3 15 -3 l7 -1 -7 -1 c-4 -1 -6
-2 -5 -2 1 0 0 -1 -1 -2 -5 -4 -8 -17 -6 -24 1 -4 2 -10 3 -15 2 -9 7 -19 10
-19 2 0 3 -1 3 -2 0 -2 22 1 27 5 2 1 7 8 10 14 5 11 6 12 3 23 -2 13 -10 21
-19 23 -5 0 -5 0 2 1 4 0 7 1 6 2 -3 4 12 7 49 8 41 1 43 2 53 9 6 5 19 26 19
32 0 1 3 5 6 8 7 7 23 8 30 2 3 -3 7 -3 17 -3 16 1 21 2 28 8 9 9 13 11 25 11
18 0 25 -6 27 -23 2 -21 14 -38 28 -42 7 -2 10 -2 19 2 14 6 19 14 28 37 5 14
11 17 31 18 19 1 27 3 27 5 0 2 1 2 1 1 2 -2 9 5 9 9 0 2 1 4 2 4 1 0 3 5 5
10 8 20 20 23 57 11z m-654 -24 c11 -5 18 -20 14 -35 -3 -15 -14 -22 -30 -21
-31 3 -42 -1 -54 -19 -8 -12 -11 -14 -21 -14 -11 0 -33 -8 -40 -14 -6 -6 -12
-17 -20 -43 -7 -21 -9 -28 -24 -68 -6 -16 -14 -35 -16 -41 -3 -6 -7 -14 -8
-18 -5 -14 -36 -77 -49 -100 -3 -6 -8 -15 -10 -19 -2 -4 -6 -11 -8 -15 -3 -4
-6 -10 -8 -13 -2 -3 -5 -9 -7 -12 -2 -3 -8 -13 -14 -22 -6 -9 -15 -26 -21 -37
-6 -12 -12 -23 -14 -24 -8 -8 -34 -11 -39 -5 -13 13 -9 37 9 56 22 24 20 8 20
207 l-1 171 6 6 6 6 80 -1 c44 0 85 0 90 1 13 1 24 8 39 24 l12 11 13 0 c19 0
21 0 29 2 8 2 15 9 25 23 9 15 25 20 41 14z m715 -58 c3 -3 3 -3 0 -6 -4 -5
-11 1 -7 6 3 4 4 4 7 0z m-1292 -33 c3 -6 3 -6 0 -12 -6 -9 -21 -5 -21 6 0 11
15 15 21 6z m74 -2 c4 -3 5 -7 5 -13 0 -11 -6 -17 -17 -17 -9 0 -13 3 -16 13
-6 16 16 29 28 17z m65 -111 c21 -9 20 -45 -2 -54 -10 -5 -28 -1 -34 6 -9 10
-9 32 0 42 7 8 24 11 36 6z m623 -57 c6 -6 7 -17 1 -26 -4 -7 -19 -19 -22 -17
-1 1 -2 0 -2 -1 0 -2 -1 -1 -3 2 -2 2 -3 8 -3 13 0 6 -1 13 -2 17 -1 7 -1 8 5
12 8 5 21 5 26 0z m-33 -63 c1 -9 -1 -13 -13 -37 -21 -43 -18 -42 -79 -27 -25
6 -50 12 -57 13 -14 3 -23 9 -23 14 0 6 23 30 34 35 9 5 12 5 62 5 47 0 54 1
64 4 6 2 11 4 11 3 1 0 1 -5 1 -10z m-643 -18 c12 -12 3 -31 -13 -31 -11 0
-18 7 -18 18 0 11 7 18 18 18 6 0 9 -1 13 -5z m1192 -55 c6 0 15 -10 15 -17 0
-13 -16 -20 -26 -10 -7 8 -3 31 6 28 1 -1 4 -1 5 -1z m-389 -44 c4 -3 6 -8 6
-11 1 -23 -3 -29 -22 -29 -11 0 -13 1 -18 6 -5 5 -6 7 -6 17 0 16 7 23 23 23
10 0 12 -1 17 -6z m-166 -11 c21 -9 20 -45 -2 -54 -10 -5 -28 -1 -34 6 -9 10
-9 32 0 42 7 8 24 11 36 6z m-247 -10 c5 -2 8 -4 9 -5 1 0 7 -5 14 -11 15 -11
16 -12 21 -17 3 -1 7 -5 11 -8 4 -3 8 -6 9 -7 1 -1 7 -6 12 -10 6 -4 14 -12
19 -16 9 -9 9 -9 9 -22 0 -11 -1 -13 -5 -18 -3 -3 -6 -5 -7 -5 -1 0 -4 -2 -6
-5 -6 -7 -8 -22 -6 -40 1 -10 1 -13 -3 -17 -4 -4 -5 -4 -17 -3 -22 3 -41 -1
-49 -11 -1 -1 -8 -7 -16 -13 -8 -7 -15 -13 -16 -13 -3 -4 -53 -39 -75 -54 -14
-10 -32 -23 -39 -29 -7 -7 -18 -15 -24 -17 -30 -14 -34 -18 -36 -36 0 -7 0
-13 2 -14 2 -3 -2 -8 -10 -12 -4 -2 -48 -2 -71 1 -18 2 -15 11 7 21 26 12 29
20 27 88 -2 105 -1 133 7 145 3 4 5 6 6 5 1 -4 25 -2 35 3 10 5 50 31 54 35 1
1 6 4 11 7 8 5 56 40 58 43 4 4 43 35 47 36 6 3 14 2 22 -1z m-291 -76 c4 -4
4 -6 3 -17 -2 -19 -9 -28 -31 -41 -6 -4 -14 -9 -17 -12 -3 -3 -6 -5 -7 -5 -2
0 -10 -27 -11 -36 -1 -10 -7 -16 -17 -16 -8 0 -19 5 -22 10 -6 11 -33 21 -44
15 -9 -4 -29 -10 -36 -9 -12 0 -17 8 -16 24 1 19 60 51 65 36 1 -4 14 -13 26
-19 18 -7 31 1 45 30 4 10 9 19 10 21 1 2 3 5 4 7 8 14 38 22 48 12z m-116
-11 c-6 -7 -7 -7 -11 0 -2 5 -2 6 2 10 l4 4 4 -4 5 -4 -4 -6z m575 -42 c16 -7
16 -43 -1 -50 -14 -6 -34 -2 -39 8 -3 7 -4 28 -1 34 6 10 24 14 41 8z m172
-73 c12 -12 3 -31 -13 -31 -11 0 -18 7 -18 18 0 11 7 18 18 18 6 0 9 -1 13 -5z
m552 -77 c5 -6 11 -30 12 -45 0 -10 -3 -19 -12 -31 -7 -9 -11 -25 -11 -45 0
-10 -7 -16 -16 -14 -8 1 -41 16 -51 24 -5 4 -13 20 -13 27 0 2 -2 4 -3 6 -5 6
-6 29 -1 35 1 2 5 4 7 5 4 0 16 -5 22 -11 4 -3 8 -3 18 -3 21 0 28 7 33 33 2
14 6 23 10 23 1 0 3 -2 5 -4z m-143 -67 c11 -7 13 -31 3 -42 -8 -10 -32 -11
-41 -1 -8 8 -9 33 -1 40 9 8 28 9 39 3z m-1035 -108 c5 -8 1 -16 -8 -16 -9 0
-13 8 -8 16 2 3 5 5 8 5 3 0 6 -2 8 -5z m1036 -42 c4 -4 5 -7 5 -15 0 -14 -6
-20 -20 -20 -8 0 -11 1 -15 5 -4 4 -5 7 -5 15 0 14 6 20 20 20 8 0 11 -1 15
-5z m-1099 -26 c3 -3 4 -7 4 -14 0 -13 -6 -19 -19 -19 -13 0 -19 6 -19 19 0 7
1 11 4 14 7 8 23 8 30 0z"/>
<path d="M140 3127 c-8 -5 -19 -11 -24 -13 -19 -10 -26 -32 -15 -52 12 -22 34
-34 55 -31 46 7 81 21 90 35 9 16 4 36 -13 44 -55 29 -68 32 -93 17z"/>
</g>
</svg>
