<?xml version="1.0" standalone="no"?>
<!DOCTYPE svg PUBLIC "-//W3C//DTD SVG 20010904//EN"
 "http://www.w3.org/TR/2001/REC-SVG-20010904/DTD/svg10.dtd">
<svg version="1.0" xmlns="http://www.w3.org/2000/svg"
 width="1107.000000pt" height="2870.000000pt" viewBox="0 0 1107.000000 2870.000000"
 preserveAspectRatio="xMidYMid meet">
<metadata>
Created by potrace 1.15, written by Peter Selinger 2001-2017
</metadata>
<g transform="translate(0.000000,2870.000000) scale(0.500000,-0.500000)"
fill="#000000" stroke="none">
<path d="M578 3846 c-11 -3 -23 -15 -26 -26 -1 -7 -2 -31 -2 -87 l1 -78 -6 -6
-6 -6 -96 0 c-110 0 -101 1 -124 -19 -9 -8 -13 -10 -18 -10 -5 0 -9 2 -18 10
-20 18 -23 19 -59 20 -34 0 -48 -2 -62 -11 -4 -2 -13 -7 -21 -11 -13 -6 -15
-8 -19 -16 -6 -11 -5 -28 2 -49 9 -27 20 -36 48 -36 16 0 18 1 34 8 9 4 20 8
23 8 3 0 14 -4 23 -8 l17 -8 50 -1 50 0 20 6 c25 7 30 7 50 1 15 -5 20 -6 62
-7 48 -1 51 -2 62 -7 13 -6 20 -30 12 -43 -4 -6 -4 -36 0 -45 1 -3 2 -7 2 -9
0 -2 1 -7 3 -12 2 -6 3 -10 2 -10 0 0 0 -1 1 -2 8 -4 -16 -16 -39 -19 -30 -3
-35 -4 -41 -6 -13 -6 -16 -10 -16 -25 l0 -14 10 -4 c6 -3 17 -6 26 -8 12 -3
17 -5 20 -9 5 -6 8 -19 5 -26 -2 -6 -1 -22 2 -31 5 -13 18 -18 46 -19 15 -1
24 -3 34 -6 7 -3 15 -5 18 -6 5 0 5 0 -1 -1 -5 0 -5 -1 -5 -5 1 -5 2 -6 8 -6
6 0 7 0 8 5 0 3 -1 5 -2 6 -2 1 -2 2 1 2 4 0 4 1 4 11 0 10 0 11 -5 11 -3 0
-7 2 -11 6 -5 5 -5 6 -4 21 1 13 3 18 8 26 5 9 5 11 4 26 -1 16 -9 37 -16 41
-1 1 3 4 9 7 12 5 32 7 52 3 l9 -1 0 -9 c0 -7 1 -9 4 -10 5 -2 13 -12 13 -18
1 -14 -1 -18 -17 -31 -4 -3 -9 -9 -11 -14 -4 -9 -5 -23 -2 -23 1 0 2 -1 2 -2
0 -3 13 -16 16 -16 1 0 2 -1 2 -1 1 -1 6 -5 12 -9 16 -10 33 -11 51 -2 15 7
21 8 27 1 6 -6 5 -14 -3 -28 -16 -26 -17 -26 -50 -26 -14 0 -27 -1 -29 -1 -2
-1 -6 -2 -9 -3 -11 -3 -26 -10 -35 -18 -12 -10 -15 -12 -26 -12 -11 0 -19 5
-22 12 -1 2 -4 10 -7 16 -3 7 -5 14 -5 15 1 2 -5 6 -11 9 l-13 6 -52 0 c-66 0
-65 0 -87 -22 -17 -17 -21 -19 -27 -19 -5 0 -16 10 -16 15 0 5 -12 19 -21 23
-8 4 -11 4 -148 4 -100 0 -142 -1 -147 -2 -21 -7 -29 -26 -21 -50 8 -23 14
-30 44 -50 15 -10 31 -19 35 -20 5 -1 31 -2 78 -1 71 1 74 1 74 3 0 1 3 3 6 4
3 1 10 7 14 12 14 18 15 18 30 18 20 0 35 -6 51 -21 15 -13 22 -16 58 -17 30
-1 41 -3 44 -8 1 -1 3 -2 6 -2 4 0 4 0 0 -2 -2 -1 -3 -2 -3 -2 3 0 -5 -17 -9
-21 -6 -5 -13 -9 -22 -10 -4 -1 -7 -2 -7 -3 0 -2 -36 -38 -38 -38 -2 0 1 -27
4 -32 2 -3 9 -8 15 -11 14 -7 18 -12 18 -27 0 -19 -8 -27 -27 -27 -15 0 -20 3
-29 22 -8 16 -9 17 -27 19 -12 1 -13 1 -21 -6 -23 -20 -32 -31 -37 -45 -8 -26
-8 -26 -33 -28 -20 -2 -27 -4 -46 -17 -28 -20 -50 -35 -93 -62 -11 -7 -84 -48
-99 -56 -17 -9 -24 -17 -25 -32 -2 -28 28 -56 55 -51 13 2 117 35 126 40 15 8
24 26 23 42 -1 17 0 22 6 28 8 8 24 8 32 -1 8 -7 8 -17 3 -42 -4 -18 -4 -156
-1 -165 1 -3 3 -8 5 -11 2 -5 26 -30 29 -30 3 0 10 -16 10 -23 0 -7 -4 -12
-19 -20 -17 -10 -19 -12 -19 -26 0 -12 0 -13 7 -18 4 -3 10 -7 13 -9 4 -1 9
-5 12 -8 7 -7 8 -17 3 -33 -2 -5 -4 -19 -4 -30 -2 -21 -2 -21 -9 -28 -4 -5
-10 -10 -14 -13 -3 -2 -8 -9 -11 -15 -5 -11 -5 -11 -5 -67 l0 -55 6 -17 c3 -9
7 -20 9 -23 7 -11 19 -27 21 -27 0 0 4 -2 7 -5 14 -12 45 -30 57 -32 8 -1 13
-4 25 -14 6 -5 20 -13 30 -18 21 -10 23 -13 23 -26 0 -13 -6 -19 -19 -19 -11
0 -17 3 -26 13 -11 11 -15 13 -27 13 -10 0 -12 -1 -18 -8 -4 -4 -9 -10 -11
-13 -7 -12 -20 -16 -32 -11 -8 3 -22 2 -31 -1 -10 -4 -14 -14 -14 -34 0 -21 3
-30 14 -40 9 -10 14 -12 30 -12 13 0 32 8 38 17 2 3 7 7 11 11 9 6 26 7 54 1
26 -5 44 -3 66 8 38 18 65 40 75 59 10 18 10 16 10 213 0 215 2 196 -21 220
-8 8 -18 21 -23 29 -12 18 -16 22 -33 30 -18 8 -25 21 -17 31 4 4 5 4 21 3 10
-1 22 -2 26 -3 6 -1 10 -1 19 3 6 3 11 6 12 7 0 1 1 2 3 2 1 0 7 2 12 4 7 3
16 5 27 6 15 1 19 2 36 11 11 5 21 9 24 9 6 0 9 -7 11 -22 1 -7 4 -21 6 -32 7
-24 5 -31 -12 -50 -20 -23 -19 -8 -19 -209 0 -155 0 -175 3 -182 4 -9 14 -21
18 -21 2 0 3 -1 3 -2 0 -1 1 -1 3 -2 1 0 6 0 11 -1 7 -1 15 0 34 5 20 5 29 6
45 6 23 0 43 5 53 13 7 6 14 27 15 44 0 11 9 29 17 35 9 7 24 6 33 -1 5 -3 8
-6 8 -7 1 -1 8 -1 16 0 13 1 16 2 19 6 4 4 7 20 6 24 -1 2 2 6 5 9 l6 6 64 0
64 0 6 -6 6 -6 -1 -25 c0 -19 0 -26 3 -33 4 -9 14 -21 18 -21 2 0 3 -1 3 -2 0
-5 59 -4 95 2 53 9 79 22 93 45 7 11 12 15 22 17 17 4 27 -1 42 -23 4 -6 14
-18 23 -28 9 -9 19 -21 24 -27 4 -6 10 -12 13 -14 11 -6 35 -27 37 -30 1 -2 2
-4 3 -4 1 0 2 -1 2 -3 0 -2 1 -3 2 -3 1 0 2 1 1 2 -1 2 13 1 19 -2 2 -1 4 -2
4 -1 0 1 2 -1 4 -3 7 -7 3 -18 -7 -20 -4 0 -15 6 -19 10 -5 8 -38 1 -38 -8 0
-2 -1 -5 -1 -7 -2 -5 -2 -6 -1 -32 1 -38 12 -55 38 -58 12 -1 45 5 61 11 17 6
31 9 50 11 19 2 34 7 69 25 18 9 46 30 51 38 10 15 24 35 26 37 6 6 16 20 20
27 6 13 0 38 -12 48 -10 8 -13 29 -6 42 6 11 5 27 -3 42 -7 16 -8 26 -1 32 2
2 6 4 7 4 7 0 27 14 33 22 l6 8 1 123 1 122 5 7 c3 4 6 7 8 8 14 3 58 38 65
52 4 8 4 23 -1 33 -3 5 -5 9 -6 8 0 0 -2 0 -3 2 -2 3 -36 28 -50 38 -17 11
-21 20 -12 27 15 13 19 18 24 35 12 42 20 65 30 84 5 11 12 25 15 31 3 6 8 20
10 32 2 12 5 25 6 29 5 16 2 29 -11 43 -26 29 -35 37 -50 45 -2 1 -6 6 -10 11
l-6 9 -17 -1 c-19 0 -20 -1 -20 -6 0 -4 6 -16 9 -18 1 -1 1 -2 0 -2 -1 0 1 -4
4 -9 16 -31 13 -52 -8 -57 -7 -2 -13 -1 -25 2 -15 3 -40 7 -44 6 -3 0 -10 8
-10 11 0 4 12 33 19 47 15 27 18 43 10 55 -5 8 -23 17 -39 20 -47 10 -104 25
-144 38 -18 6 -32 9 -43 10 -26 2 -28 2 -36 6 -9 4 -12 11 -12 26 0 19 5 23
35 31 45 13 53 11 60 -12 5 -17 11 -25 20 -31 6 -4 10 -4 42 -3 43 0 50 0 179
-1 115 -1 118 -1 136 11 18 11 22 16 29 30 12 23 6 45 -15 62 -5 5 -12 9 -14
11 -1 2 -4 3 -4 3 -1 0 -4 2 -7 5 -13 12 -33 19 -57 19 -15 0 -18 2 -27 22 -7
18 -18 28 -50 49 -14 10 -31 22 -37 27 -11 10 -17 12 -55 21 -5 1 -14 8 -44
33 -6 5 -15 12 -19 15 -4 3 -13 11 -20 16 -7 6 -13 10 -13 10 -1 0 -5 -1 -11
-1 -10 -1 -21 -5 -21 -8 0 -1 -2 -4 -5 -7 -3 -3 -5 -8 -6 -11 -3 -10 -15 -33
-21 -39 -4 -4 -7 -5 -12 -5 -22 1 -46 1 -51 -1 -16 -4 -24 -4 -30 2 -7 7 -7
19 0 26 5 5 6 5 21 4 9 0 19 0 23 1 5 1 9 2 10 3 5 1 10 6 16 19 4 8 12 19 18
25 l11 11 0 14 c0 15 0 15 -20 31 -8 7 -15 12 -16 13 -7 7 -13 11 -18 12 l-7
2 6 0 c3 0 5 1 4 1 0 1 2 3 6 5 5 3 12 4 35 4 15 0 30 1 32 1 8 3 24 12 30 17
4 3 17 11 29 17 12 6 25 14 29 18 14 12 23 17 34 18 19 0 27 -7 29 -28 2 -18
10 -33 21 -38 8 -5 11 -5 28 -5 23 1 33 6 35 20 1 4 2 10 3 13 1 5 1 7 -1 8
-4 1 -4 34 -1 46 2 8 8 15 13 15 8 0 17 -21 18 -45 2 -16 1 -17 -2 -17 -2 0
-3 -1 -2 -2 1 0 3 -5 4 -10 1 -13 5 -16 20 -16 9 0 15 1 21 5 5 2 14 7 19 10
6 3 17 11 24 17 8 7 16 13 22 15 18 5 22 11 22 27 1 9 0 15 -2 16 -1 1 -10 8
-20 15 -10 7 -20 14 -22 16 -2 2 -7 5 -11 7 -5 3 -8 5 -8 6 0 1 -1 2 -2 2 -1
0 -11 6 -23 14 -11 7 -26 17 -34 22 -44 29 -56 37 -75 52 l-21 17 -13 0 c-8 0
-14 -1 -17 -3 -4 -3 -43 -49 -65 -77 -4 -4 -11 -12 -16 -18 -5 -5 -11 -12 -13
-15 -5 -7 -15 -13 -28 -16 -14 -3 -21 -9 -24 -20 0 -1 -1 -4 -2 -7 -1 -3 -1
-10 1 -17 2 -14 0 -25 -7 -31 -14 -13 -63 -5 -69 10 -3 10 -4 17 -2 21 1 4 1
7 -1 12 -2 3 -3 8 -3 11 0 9 -8 31 -12 31 -2 0 -2 1 0 1 1 1 2 6 2 18 0 13 1
18 5 25 3 6 5 11 5 13 0 2 1 3 2 2 3 -2 11 19 15 42 1 5 6 9 27 23 l11 6 0 14
c0 12 0 13 -6 18 -4 2 -8 4 -10 4 -1 0 -3 1 -4 2 -1 1 -6 2 -11 2 -14 0 -28
-8 -37 -21 -16 -24 -25 -23 -39 3 -13 26 -28 30 -116 33 -15 1 -30 1 -33 2
-12 2 -45 -10 -45 -17 0 0 -4 -3 -8 -5 -8 -4 -8 -4 -15 0 -4 2 -8 6 -9 9 -1 3
-2 4 -2 3 0 -2 -5 -3 -16 -3 -12 0 -16 -1 -18 -3 -2 -3 -3 -19 -3 -87 l0 -83
-6 -6 c-4 -4 -7 -6 -11 -5 -2 0 -12 -1 -22 -3 -18 -3 -40 -3 -52 0 -3 1 -12 2
-20 2 l-15 0 1 -18 c0 -17 0 -19 -3 -19 -2 0 -1 -1 3 -2 26 -6 29 -8 32 -22 1
-5 1 -11 0 -17 -3 -12 0 -29 7 -36 8 -8 17 -9 47 -9 l27 1 6 -6 6 -6 -1 -24
c-2 -31 -6 -42 -20 -48 -11 -5 -24 -5 -36 -2 -13 4 -23 4 -32 -1 -6 -4 -8 -6
-12 -18 -2 -7 -4 -16 -4 -21 0 -9 -7 -17 -15 -17 -18 -1 -22 1 -28 16 -7 15
-14 23 -23 28 -10 5 -16 5 -39 0 -20 -4 -28 -5 -53 -7 -7 0 -16 -1 -19 -2 -10
-2 -27 3 -27 7 0 2 1 4 2 5 2 3 12 32 13 39 1 11 -3 23 -10 29 -3 3 -7 6 -8 6
-2 0 -22 2 -45 4 -17 2 -21 7 -19 22 1 7 2 24 2 38 0 30 0 29 25 38 9 3 18 7
20 9 4 4 12 18 13 24 3 10 10 22 15 26 3 2 6 5 7 6 2 1 4 2 5 2 2 0 14 14 14
17 0 1 13 21 15 24 1 0 8 6 16 11 7 6 13 11 13 12 0 1 1 3 3 4 4 5 7 12 14 31
5 16 6 20 5 31 -2 20 -9 25 -47 28 -34 3 -47 0 -64 -17 -5 -5 -13 -11 -17 -13
-13 -7 -34 -2 -41 10 -10 17 -29 31 -47 33 -12 2 -106 9 -112 9 -3 0 -8 -1
-12 -2z m629 -83 c3 -5 3 -5 0 -10 -2 -3 -5 -5 -7 -5 -2 0 -5 2 -7 5 -3 5 -3
5 0 10 2 3 5 5 7 5 2 0 5 -2 7 -5z m-479 -9 c7 -5 16 -30 18 -48 1 -17 0 -19
-15 -42 -5 -8 -9 -15 -9 -16 0 -4 -35 -35 -46 -40 -7 -4 -7 -4 -11 0 -4 4 -4
5 -3 11 1 3 3 8 3 10 1 2 2 4 3 5 1 1 6 10 11 21 10 21 12 34 6 44 -5 8 -11 9
-45 6 -16 -1 -16 -1 -22 5 -3 3 -7 10 -8 16 -6 27 9 39 36 29 12 -5 34 -4 49
1 13 4 25 4 33 -2z m660 -105 c9 -8 9 -26 0 -34 -9 -8 -24 -8 -32 1 -9 8 -9
23 -1 32 9 9 24 9 33 1z m-35 -217 c14 -13 -1 -34 -29 -43 -11 -3 -11 -3 -15
1 -4 5 -4 5 -2 14 8 24 34 39 46 28z m-103 -5 c6 -7 6 -22 -1 -28 -6 -7 -22
-7 -30 -2 -5 4 -5 5 -4 15 1 7 3 12 5 15 7 8 23 8 30 0z m-495 -25 c4 -4 4 -4
0 -8 -5 -6 -13 -7 -20 -3 -8 5 -9 9 -1 14 6 4 15 3 21 -3z m429 -21 c4 -3 4
-5 3 -13 0 -5 -1 -14 -2 -20 -3 -23 -5 -35 -11 -45 -9 -17 -12 -22 -17 -27 -3
-3 -1 -19 4 -27 4 -8 17 -14 31 -14 16 0 89 3 100 4 5 0 24 1 42 2 18 1 36 2
39 2 3 1 16 1 28 2 12 1 28 1 35 2 7 1 31 2 54 4 40 3 67 3 78 -1 7 -3 14 -10
14 -14 0 -5 -13 -17 -22 -22 l-9 -5 -158 -1 -158 -1 -8 -5 c-5 -2 -12 -8 -15
-12 -4 -4 -9 -9 -12 -10 -6 -4 -6 -4 -12 0 -3 1 -8 6 -12 11 -8 9 -26 18 -34
16 -12 -3 -23 -12 -32 -28 -5 -9 -12 -21 -17 -27 -5 -6 -9 -15 -11 -19 -1 -5
-3 -9 -4 -9 -2 0 1 -11 6 -21 8 -16 14 -18 56 -19 36 -1 38 -1 45 -6 6 -4 6
-5 3 -7 -3 -2 -19 -19 -34 -35 -3 -3 -11 -8 -17 -11 -11 -5 -13 -5 -51 -5
l-40 0 -20 -7 c-11 -4 -24 -7 -28 -7 -4 0 -17 3 -28 7 -20 7 -21 7 -54 7 -18
0 -37 1 -43 2 -5 1 -15 3 -21 3 -10 1 -12 2 -13 6 -2 7 1 10 19 28 27 25 22
24 100 25 77 1 77 1 86 20 2 5 5 11 6 13 1 2 3 5 3 7 0 2 2 9 4 16 5 21 4 30
-4 42 -4 6 -11 14 -16 17 -7 5 -12 6 -28 10 -3 1 -7 3 -9 5 -1 2 -4 4 -6 4 -2
0 2 3 9 6 11 5 14 6 45 7 35 1 43 3 49 12 5 7 9 27 6 31 -3 4 -2 22 2 29 1 4
7 10 11 13 18 14 25 27 29 52 2 13 8 18 22 18 9 -1 13 -2 17 -5z m570 -166 c3
-3 4 -7 4 -14 0 -13 -6 -19 -19 -19 -13 0 -19 6 -19 19 0 7 1 11 4 14 7 8 23
8 30 0z m117 -72 c3 -3 3 -3 0 -6 -4 -5 -11 1 -7 6 4 4 4 4 7 0z m-1059 -9 c3
-6 0 -14 -11 -29 -9 -11 -12 -31 -8 -54 1 -8 9 -17 20 -23 3 -1 6 -5 6 -7 1
-3 2 -5 4 -5 1 0 -3 -4 -8 -9 -11 -10 -17 -11 -23 -5 -5 5 -9 12 -9 17 -1 4
-20 22 -30 28 -10 5 -13 11 -13 24 0 11 3 18 9 22 2 1 9 5 15 9 6 4 13 8 15
10 3 2 6 5 6 8 1 3 4 9 8 13 7 9 14 9 19 1z m-125 -56 c4 -4 5 -8 5 -19 0 -8
1 -21 3 -29 2 -8 4 -21 4 -29 0 -18 -5 -23 -23 -23 -15 0 -49 12 -55 19 -5 5
-5 6 -1 12 3 5 6 7 14 9 19 5 25 15 27 42 2 15 6 22 16 22 4 0 8 -2 10 -4z
m-81 -21 l-5 -5 -4 4 -5 5 4 4 5 5 4 -4 5 -5 -4 -4z m-60 -17 c8 -4 8 -5 8
-14 0 -13 -6 -20 -18 -20 -10 0 -16 5 -20 18 -3 10 -3 11 -1 14 2 2 5 4 6 4 2
0 3 1 3 2 0 3 11 0 22 -4z m1069 -79 c6 -4 6 -6 6 -20 0 -14 0 -16 -6 -20 -4
-4 -7 -5 -18 -5 -11 0 -14 1 -18 5 -6 4 -6 6 -6 20 0 14 0 16 6 20 4 4 7 5 18
5 11 0 14 -1 18 -5z m-896 -30 c12 -7 14 -33 3 -43 -8 -9 -32 -9 -40 0 -9 8
-9 32 0 41 7 7 27 8 37 2z m373 -3 c4 -2 10 -6 12 -8 6 -7 22 -18 24 -17 1 1
4 -3 6 -8 4 -7 6 -9 10 -9 4 0 5 -1 1 -2 -4 -1 -4 -3 -5 -19 0 -20 3 -32 10
-40 8 -8 27 -10 41 -4 19 8 33 3 56 -18 24 -23 39 -27 65 -19 7 2 13 4 13 4 2
0 6 -10 6 -16 1 -4 -1 -9 -6 -17 -8 -12 -17 -35 -17 -41 0 -2 -2 -6 -4 -8 -2
-2 -4 -4 -4 -3 0 0 -28 -4 -33 -6 -7 -1 -17 -6 -21 -10 -4 -4 -5 -5 -4 -14 1
-7 0 -11 -2 -13 -2 -2 -5 -6 -8 -10 -2 -3 -5 -6 -6 -6 -1 0 -4 -2 -6 -4 -3 -2
-10 -7 -17 -10 -7 -3 -16 -8 -21 -11 -14 -10 -22 -14 -30 -14 -5 0 -8 0 -8 1
2 9 -24 24 -52 30 -5 1 -16 5 -25 8 -29 12 -61 8 -77 -9 -5 -5 -6 -8 -5 -17 0
-19 9 -25 41 -24 17 0 32 -4 41 -12 12 -10 42 -14 55 -7 7 4 23 6 21 3 -1 -1
0 -2 1 -2 1 0 2 -2 2 -3 0 -2 1 -6 3 -8 6 -8 4 -23 -5 -36 -6 -10 -11 -24 -13
-36 0 -1 1 -6 4 -12 2 -5 4 -16 4 -24 1 -14 1 -15 -4 -20 -11 -11 -27 -5 -35
13 -6 14 -14 23 -25 29 -8 4 -11 4 -80 5 -49 1 -75 2 -80 4 -4 1 -21 7 -38 13
-42 16 -54 15 -63 -4 -4 -9 -4 -23 0 -23 1 0 1 -2 1 -4 0 -2 -1 -4 -2 -4 0 0
-1 -1 0 -2 2 -3 13 -8 22 -9 14 -2 18 -3 23 -8 4 -4 6 -14 2 -18 -2 -3 -6 -20
-6 -29 0 -14 3 -19 14 -22 10 -2 32 -2 32 0 0 1 6 4 13 8 7 3 19 11 26 18 13
12 15 13 29 12 7 0 18 -8 18 -14 0 -2 3 -10 7 -18 l7 -14 13 0 c13 -1 14 -1
19 5 2 3 6 9 7 13 13 29 31 27 40 -5 4 -16 7 -21 15 -30 16 -17 18 -26 9 -40
-4 -5 -7 -9 -8 -9 -1 0 -1 -1 0 -2 1 -1 0 -2 -2 -2 -7 0 -21 -24 -21 -37 0 -3
-2 -7 -4 -9 -2 -2 -3 -4 -2 -4 1 0 1 -1 -1 -3 -3 -3 -3 -3 -6 0 -2 2 -3 3 -1
3 2 0 2 1 0 3 -2 1 -5 7 -7 12 -4 12 -13 20 -23 23 -4 1 -22 2 -46 2 l-39 -1
-6 6 c-5 5 -6 8 -6 17 -1 14 -7 25 -23 36 -13 10 -13 10 -26 10 -10 -1 -16 -3
-26 -8 -20 -10 -33 -8 -55 9 -15 12 -21 18 -24 29 -3 12 -2 21 4 29 5 6 5 8 4
21 0 8 -1 15 -1 16 0 0 -3 3 -7 7 -8 8 -15 28 -11 35 3 5 1 11 -3 13 -2 0 -3
2 -2 3 0 1 -4 2 -10 2 -12 0 -27 6 -27 11 0 1 -1 15 -1 30 -1 15 -1 34 -2 41
0 19 8 26 31 26 8 0 15 -5 13 -8 -1 -1 0 -2 1 -2 2 -1 3 -6 4 -13 0 -10 0 -14
-5 -23 -3 -7 -5 -14 -5 -19 0 -4 -1 -11 -2 -14 -3 -7 -2 -9 6 -15 5 -4 8 -4
26 -4 26 0 36 4 65 26 18 14 41 21 50 16 2 -1 6 -3 9 -4 4 -1 7 -5 10 -11 2
-5 7 -12 10 -16 6 -6 6 -6 27 -6 20 0 21 0 25 5 4 4 5 7 5 18 0 11 1 14 3 14
5 0 -21 6 -33 7 -21 2 -25 8 -18 27 5 13 5 30 1 36 -2 1 -2 2 -1 2 1 0 -1 3
-5 6 -8 7 -19 9 -52 8 -22 -1 -36 -5 -52 -14 -7 -3 -22 -2 -29 2 -6 4 -7 5 -7
14 0 10 3 16 18 31 12 11 13 14 16 41 3 20 7 26 18 26 8 0 16 -6 16 -13 0 -8
8 -28 13 -33 12 -12 11 -12 136 -12 l114 1 5 -4 c2 -3 6 -6 9 -6 3 -1 4 -2 4
-4 -1 -1 2 -5 5 -9 18 -23 51 -25 58 -5 4 12 1 22 -8 32 -14 15 -18 26 -15 42
1 5 -6 23 -9 25 -6 4 -23 6 -29 4 -8 -3 -25 -3 -28 0 -1 1 -7 2 -14 2 -13 0
-24 -4 -36 -14 -8 -7 -7 -6 -33 -6 -45 0 -56 4 -56 18 0 10 -6 28 -11 35 -8
11 -18 13 -53 13 l-31 -1 -6 6 c-5 6 -6 8 -5 16 1 21 -15 35 -38 33 -23 -1
-26 -1 -32 6 -5 5 -6 7 -6 18 0 11 1 13 6 18 3 3 7 6 9 6 13 1 20 0 27 -5 5
-2 14 -7 21 -11 l12 -7 76 0 c73 0 87 0 87 3 0 1 3 3 7 5 4 1 9 6 12 10 13 17
20 20 35 13z m128 -16 c5 -5 6 -7 6 -17 0 -16 -7 -23 -23 -23 -10 0 -12 1 -17
6 -5 5 -6 7 -6 17 0 16 7 23 23 23 10 0 12 -1 17 -6z m-647 -59 c4 -5 4 -8 5
-72 l1 -66 6 -10 c3 -5 8 -11 11 -12 8 -6 18 -18 18 -22 0 -6 -8 -13 -16 -15
-15 -3 -32 1 -80 19 -26 9 -55 19 -65 21 -18 4 -25 7 -55 22 -7 4 -19 9 -26
12 -16 5 -26 15 -26 23 0 7 7 22 12 26 7 4 20 4 37 -2 25 -8 29 -8 76 16 44
21 52 27 61 45 10 19 13 22 26 21 9 0 11 -1 15 -6z m797 -4 c3 -3 4 -7 4 -14
0 -12 -5 -17 -19 -22 l-11 -3 -3 6 c-7 10 -7 27 -1 33 7 8 23 8 30 0z m95 -15
c27 -25 37 -28 65 -21 18 5 43 -1 64 -14 7 -5 14 -18 14 -27 0 -8 -7 -12 -21
-12 -24 0 -34 -4 -50 -21 -20 -20 -41 -44 -46 -52 -5 -8 -20 -22 -31 -29 -9
-5 -10 -5 -49 -6 -41 0 -52 2 -50 7 0 2 -1 3 -4 4 -3 0 -2 1 2 1 4 0 9 1 11 2
3 1 9 3 13 4 18 6 34 15 43 24 14 15 16 22 16 88 1 54 1 54 6 58 2 2 4 5 4 6
0 2 1 2 1 0 1 -1 6 -7 12 -12z m-729 -10 c1 0 5 -3 8 -6 8 -8 9 -27 1 -35 -5
-6 -25 -12 -32 -9 -6 2 -11 14 -11 26 0 13 3 19 12 23 5 2 8 2 22 1z m1026
-30 c5 -6 5 -12 0 -18 -7 -8 -22 -2 -22 9 0 11 15 17 22 9z m-1063 -50 c1 -2
5 -9 7 -15 6 -18 1 -34 -12 -40 -12 -5 -31 -1 -37 7 -5 6 -7 20 -5 29 3 11 8
16 19 19 16 4 23 4 28 0z m830 -97 c3 -5 3 -5 0 -10 -5 -6 -8 -6 -13 0 -5 5
-5 6 0 11 4 5 8 5 13 -1z m-226 -68 c3 -2 8 -9 11 -17 10 -19 13 -24 26 -29 8
-5 12 -5 20 -4 5 1 10 1 12 2 1 0 2 0 2 1 0 1 2 2 5 3 5 1 14 12 22 27 7 12
14 17 28 17 12 0 22 -5 25 -13 2 -6 13 -13 17 -11 2 0 3 0 3 -1 0 -1 2 -1 5
-1 2 0 5 -1 6 -2 1 -1 2 -1 3 1 2 3 2 3 2 0 0 -2 -1 -4 -3 -5 -2 0 -3 -2 -2
-4 0 -2 0 -3 -1 -4 -1 -1 -3 -6 -4 -13 -1 -6 -3 -13 -4 -15 -3 -7 0 -30 7 -48
2 -4 3 -10 3 -14 0 -7 -7 -31 -13 -44 -2 -3 -5 -14 -7 -24 -4 -16 -4 -24 -4
-87 l0 -70 -6 -6 -6 -6 -31 1 c-39 1 -38 1 -44 7 -4 4 -5 7 -6 18 0 7 -1 15
-2 18 -1 3 -1 6 -1 8 -1 1 -2 2 -3 2 -2 0 -3 1 -3 2 -1 2 -6 3 -15 2 l-13 0 0
8 0 8 13 0 c9 -1 14 0 15 2 0 1 2 2 4 2 1 0 2 1 1 1 0 1 0 4 2 6 4 6 -4 29
-13 39 -15 15 -18 26 -10 35 7 7 16 6 30 -2 10 -7 12 -8 25 -8 l15 -1 3 8 c6
13 3 28 -8 52 -17 33 -31 47 -50 46 -13 -1 -19 -3 -29 -14 -11 -11 -15 -13
-34 -13 -50 1 -62 7 -62 28 0 10 1 12 6 17 3 3 7 6 9 6 12 1 28 8 30 14 1 2 1
10 1 17 -1 10 -1 13 -4 14 -2 1 -5 4 -7 9 -7 14 -5 28 5 35 6 4 24 4 29 0z
m215 -22 c1 -1 -10 -11 -12 -11 -1 0 -3 2 -4 4 -2 2 -5 4 -7 4 -4 1 -4 2 1 3
3 2 6 4 8 6 2 3 3 3 8 -1 3 -3 5 -5 6 -5z m79 -8 c5 -5 7 -18 3 -28 -3 -8 -4
-21 -4 -39 0 -20 -4 -26 -16 -26 -9 0 -14 4 -20 17 -2 6 -5 11 -6 13 -4 8 -10
35 -9 42 1 7 8 16 12 16 2 0 3 1 3 2 0 3 13 8 23 8 7 0 10 -1 14 -5z m92 -7
c16 -7 16 -43 -1 -50 -14 -6 -34 -2 -39 8 -4 7 -4 27 0 34 5 11 23 14 40 8z
m-1286 -129 c12 -12 3 -31 -13 -31 -11 0 -18 7 -18 18 0 11 7 18 18 18 6 0 9
-1 13 -5z m794 -6 c5 -8 1 -16 -8 -16 -9 0 -13 8 -8 16 2 3 5 5 8 5 3 0 6 -2
8 -5z m427 -2 c3 -3 4 -7 4 -14 0 -13 -6 -19 -19 -19 -13 0 -19 6 -19 19 0 7
1 11 4 14 7 8 23 8 30 0z m-1096 -42 c3 -3 4 -7 4 -14 0 -13 -6 -19 -19 -19
-13 0 -19 6 -19 19 0 7 1 11 4 14 7 8 23 8 30 0z m1032 -37 c1 0 5 -3 8 -6 5
-5 6 -7 6 -18 0 -11 -1 -13 -6 -18 -6 -6 -7 -6 -18 -6 -11 0 -12 0 -18 6 -5 5
-6 7 -6 17 0 14 3 20 12 24 5 2 8 2 22 1z m-233 -35 c4 -3 4 -20 0 -25 -2 -3
-41 -27 -51 -31 -6 -3 -19 -2 -26 0 -12 5 -18 21 -14 36 4 16 13 20 41 21 11
0 20 1 21 1 2 2 25 1 29 -2z m-522 -36 c5 -5 8 -16 7 -22 -1 -4 -3 -7 -4 -7
-1 0 -3 0 -5 -1 -3 -2 -19 14 -19 20 0 10 14 17 21 10z m31 -51 l4 -7 -4 -5
-5 -4 -5 5 c-7 5 -8 12 -2 16 7 4 7 4 12 -5z m-430 -13 c10 -5 21 -22 27 -41
4 -15 4 -22 -2 -28 -8 -8 -37 -3 -61 9 -13 7 -16 28 -6 46 7 14 26 20 42 14z
m117 -29 c4 -6 4 -24 -1 -30 -7 -9 -27 -9 -34 0 -5 6 -5 24 0 30 7 9 27 9 35
0z m1027 -47 c8 -6 18 -12 22 -15 8 -4 23 -20 23 -25 0 -3 -9 -11 -12 -11 -2
0 -6 2 -9 4 -6 5 -21 10 -45 16 -19 5 -23 8 -23 22 0 14 6 20 20 20 9 0 11 -1
24 -11z m72 -71 c0 -4 -6 -6 -12 -3 -6 2 -10 9 -6 9 1 0 2 1 1 2 -1 2 3 3 8 2
0 0 1 1 1 3 0 1 2 -1 4 -5 2 -3 4 -7 4 -8z"/>
<path d="M857 3642 c-19 -5 -27 -13 -29 -31 0 -11 -1 -13 -8 -19 -5 -5 -10 -8
-14 -8 -3 0 -7 -2 -10 -4 -3 -2 -6 -4 -7 -4 -6 0 -8 -23 -2 -31 6 -8 16 -11
26 -8 11 4 19 12 19 20 0 4 0 8 1 9 1 2 2 5 2 9 1 8 9 13 18 11 1 0 6 -1 11
-1 5 -1 11 -2 13 -3 7 -3 24 -2 29 0 6 3 9 10 9 22 1 10 0 11 -8 20 -9 9 -29
20 -37 20 -3 0 -8 -1 -13 -2z"/>
<path d="M374 3356 c-6 -1 -29 -3 -51 -5 -67 -5 -70 -6 -81 -16 -13 -12 -17
-38 -8 -61 5 -14 9 -19 22 -25 23 -12 52 -8 71 9 12 10 18 11 28 6 4 -3 9 -6
11 -8 4 -7 14 -12 25 -15 6 -1 11 -2 10 -2 0 1 3 4 6 8 7 7 8 10 10 20 0 2 1
5 1 6 1 1 1 4 0 6 -1 2 0 10 2 17 6 19 7 31 3 39 -7 14 -30 23 -49 21z"/>
<path d="M1930 2951 c0 -2 -1 -5 -2 -6 -5 -6 -10 -27 -9 -36 1 -6 2 -11 1 -11
0 -1 2 -3 5 -4 3 -1 5 -3 5 -4 0 -1 16 -1 21 1 5 1 13 13 16 24 3 10 4 36 1
34 -1 -1 -2 0 -2 1 0 1 -7 2 -17 1 -10 0 -17 1 -18 2 0 1 -1 0 -1 -2z"/>
</g>
</svg>
