<?xml version="1.0" standalone="no"?>
<!DOCTYPE svg PUBLIC "-//W3C//DTD SVG 20010904//EN"
 "http://www.w3.org/TR/2001/REC-SVG-20010904/DTD/svg10.dtd">
<svg version="1.0" xmlns="http://www.w3.org/2000/svg"
 width="1105.000000pt" height="2870.000000pt" viewBox="0 0 1105.000000 2870.000000"
 preserveAspectRatio="xMidYMid meet">
<metadata>
Created by potrace 1.15, written by Peter Selinger 2001-2017
</metadata>
<g transform="translate(0.000000,2870.000000) scale(0.500000,-0.500000)"
fill="#000000" stroke="none">
<path d="M1682 3827 c-8 -4 -32 -38 -33 -47 -2 -13 1 -19 11 -22 11 -4 14 -4
32 3 36 13 40 16 40 35 0 12 -3 19 -13 28 -7 6 -8 6 -20 6 -7 0 -14 -2 -17 -3z"/>
<path d="M876 3812 c-9 -2 -15 -7 -41 -36 -23 -26 -35 -39 -41 -46 -3 -4 -9
-13 -13 -21 -10 -19 -15 -23 -26 -20 -4 2 -11 6 -15 9 -16 13 -9 12 -173 12
-166 0 -153 1 -179 -16 -9 -5 -17 -10 -19 -10 -10 0 -33 -10 -51 -23 -7 -5
-10 -6 -20 -6 -14 0 -21 4 -25 15 -10 25 -22 44 -34 52 -10 6 -39 18 -45 19
-10 0 -23 -3 -28 -7 -12 -8 -12 -8 -12 -116 0 -105 0 -107 9 -116 5 -5 25 -13
32 -12 6 0 10 -8 10 -16 0 -4 0 -8 1 -9 0 -1 1 -4 1 -6 2 -6 9 -15 18 -19 7
-3 12 -3 42 -3 32 1 34 1 38 -3 7 -6 7 -18 1 -23 -3 -3 -17 -10 -31 -17 -34
-16 -45 -17 -63 -3 -6 5 -22 9 -30 8 -6 -1 -10 -3 -15 -10 -13 -15 -13 -14
-13 -132 0 -102 0 -107 4 -115 2 -4 5 -8 7 -10 4 -4 26 -13 31 -13 2 0 4 -2 6
-5 2 -5 2 -6 -1 -11 -2 -3 -4 -5 -6 -5 -3 1 -25 -8 -30 -12 -2 -2 -5 -6 -7
-11 -4 -7 -4 -11 -4 -76 l0 -70 -5 -4 c-5 -3 -16 -7 -30 -10 -7 -2 -25 -11
-29 -15 -9 -10 -11 -25 -5 -36 2 -4 3 -8 3 -9 0 -5 13 -17 25 -24 16 -10 23
-16 23 -23 0 -7 -7 -14 -12 -14 -6 1 -28 -6 -33 -10 -10 -9 -11 -14 -11 -74 0
-32 1 -58 2 -60 1 -1 1 -5 0 -9 -2 -5 -1 -6 2 -9 16 -12 16 -12 21 -29 12 -40
11 -53 -6 -75 -19 -25 -19 -22 -19 -114 0 -86 0 -89 12 -108 9 -15 10 -18 10
-23 0 -5 -4 -13 -12 -27 -4 -6 -6 -11 -6 -18 0 -8 4 -21 8 -24 4 -3 13 -23 13
-30 0 -7 -9 -27 -13 -30 -1 -1 -4 -5 -6 -11 -4 -9 -5 -14 -6 -39 -1 -42 3 -51
27 -54 10 -1 13 0 17 3 15 12 21 22 29 50 5 15 30 20 43 7 2 -2 3 -8 4 -16 1
-15 2 -14 -22 -34 -9 -8 -22 -30 -22 -38 0 -2 -3 -6 -6 -9 -5 -5 -8 -6 -16 -6
-5 0 -11 1 -12 2 -2 2 -5 2 -7 2 -16 -3 -20 -3 -23 -5 -3 -2 -3 -4 -2 -9 1 -3
2 -6 2 -7 -1 -4 3 -16 5 -17 2 -2 8 -15 8 -17 -1 -1 0 -3 2 -5 1 -2 4 -8 6
-13 5 -14 22 -23 36 -21 3 1 11 1 16 2 32 3 79 20 91 32 6 5 13 23 15 35 3 17
5 21 19 23 18 3 33 14 38 27 3 10 3 124 -1 137 -6 23 -22 43 -37 46 -13 3 -24
3 -25 1 -2 -4 -16 -2 -21 3 -6 6 -5 17 1 23 4 4 18 6 20 2 1 -1 7 -4 15 -6 18
-5 33 -3 35 5 1 3 2 5 3 5 2 0 7 12 10 23 3 11 3 138 0 148 -2 8 -10 22 -16
27 -13 12 -17 30 -9 41 5 7 26 18 43 22 14 4 15 3 21 -2 5 -5 3 -14 -6 -26 -4
-6 -8 -12 -10 -14 -5 -7 -7 -21 -6 -30 1 -7 4 -14 19 -47 8 -16 16 -33 23 -48
21 -46 22 -49 43 -63 19 -13 30 -18 40 -17 16 0 19 2 25 12 9 12 19 23 25 28
3 1 10 7 16 12 6 5 22 19 36 30 14 12 25 21 26 22 1 1 7 6 14 13 14 12 21 22
29 47 5 14 9 17 29 22 9 2 20 6 24 7 7 3 7 3 11 -2 3 -3 5 -8 5 -11 1 -37 12
-57 39 -70 16 -8 39 -4 45 8 3 5 9 13 17 21 7 7 22 11 46 11 14 0 14 0 23 -8
8 -8 9 -8 23 -8 16 0 16 0 25 12 9 14 19 18 35 14 14 -3 21 -17 17 -34 -3 -12
-9 -17 -23 -19 -7 -1 -19 -3 -27 -4 -8 -2 -22 -4 -30 -5 -35 -5 -43 -6 -53
-11 -26 -14 -31 -23 -31 -60 0 -15 1 -27 2 -30 4 -8 11 -15 17 -16 17 -4 21
-4 22 -3 1 1 6 2 11 2 9 0 15 -2 31 -10 28 -14 32 -19 36 -40 4 -18 12 -26 36
-38 9 -5 19 -11 22 -14 9 -9 28 -11 38 -4 7 6 14 12 12 12 -1 0 0 2 1 4 7 7 7
18 8 142 0 137 0 135 -12 153 -3 5 -7 9 -7 9 -4 2 -9 14 -9 23 0 9 5 21 9 23
3 1 13 19 16 27 4 15 4 37 -1 48 -4 7 -6 10 -15 14 -6 3 -12 5 -14 5 -1 0 -3
1 -4 2 -1 2 -2 2 -3 0 -1 -2 -3 -2 -8 1 -6 3 -6 4 -6 11 0 7 0 8 3 7 1 0 3 0
4 2 0 1 1 1 1 0 0 -2 1 -2 3 -2 2 1 3 0 3 -6 0 -5 1 -6 1 -4 1 3 2 4 7 3 10
-1 23 7 28 17 6 13 6 52 0 70 -3 7 -5 12 -6 13 -1 1 -3 6 -5 11 -3 10 -3 11 0
16 5 6 9 6 13 2 1 -2 3 -3 4 -3 4 0 14 -12 15 -18 1 -3 2 -7 4 -9 1 -3 2 -40
3 -142 1 -108 2 -139 4 -144 3 -7 14 -19 17 -19 2 0 3 -1 3 -2 0 -2 7 -3 28
-3 28 0 47 3 76 10 20 6 20 5 20 24 0 19 0 19 -11 25 -11 5 -15 15 -16 41 -1
22 6 29 22 24 8 -3 21 -11 26 -16 14 -13 48 -26 57 -23 8 3 14 0 15 -9 1 -7 0
-14 -5 -34 -6 -22 2 -39 25 -52 14 -7 17 -12 17 -25 0 -14 -2 -18 -14 -27 -13
-9 -24 -20 -24 -23 0 -1 -1 -2 -2 -2 0 -1 -4 -5 -8 -9 -5 -7 -8 -9 -18 -12
-14 -4 -30 -11 -30 -13 0 -1 -2 -2 -4 -3 -2 -1 -6 -4 -8 -9 -3 -4 -8 -11 -11
-15 -8 -12 -13 -31 -13 -47 0 -17 -2 -19 -24 -27 -21 -7 -20 -6 -48 -34 -28
-27 -69 -61 -84 -71 -4 -2 -9 -6 -12 -8 -8 -7 -23 -16 -29 -17 -7 -1 -13 5
-13 13 0 9 -2 12 -8 26 -12 25 -23 41 -28 41 -1 0 -2 1 -3 1 -6 4 -16 4 -30 0
-35 -8 -51 -5 -61 11 -3 5 -6 9 -7 9 -2 0 -24 14 -28 18 -1 2 -4 11 -5 20 -2
20 -10 35 -21 40 -5 3 -9 3 -22 2 -28 -3 -37 -5 -106 -15 -3 0 -11 -1 -18 -2
-16 -1 -25 -3 -25 -5 0 -1 -1 -2 -3 -2 -4 0 -17 -15 -17 -20 0 -2 -1 -4 -2 -4
-2 0 1 -18 4 -22 7 -8 14 -15 20 -18 7 -4 39 -13 52 -15 32 -5 52 -14 61 -27
6 -8 6 -9 6 -34 1 -22 2 -49 4 -69 1 -9 8 -25 14 -28 15 -10 36 -10 83 -1 11
2 22 4 25 4 7 0 13 -6 13 -15 0 -8 12 -30 22 -42 13 -14 38 -18 57 -9 16 8 18
12 18 39 0 32 -2 31 54 34 17 0 19 0 29 -5 36 -19 38 -19 80 2 18 9 38 19 44
22 6 4 13 8 15 9 19 11 62 40 70 48 10 10 10 11 19 28 8 15 9 16 33 25 9 4 19
8 21 10 2 2 5 4 6 4 3 0 2 21 -1 29 -2 6 -21 21 -26 21 -1 0 -4 2 -8 5 -3 2
-13 8 -21 12 -20 9 -22 12 -22 24 0 7 1 11 4 14 6 6 13 6 38 1 12 -2 26 -4 31
-5 14 -1 20 -4 29 -13 7 -8 9 -9 19 -10 10 0 25 3 25 6 0 1 4 7 8 14 4 6 8 12
8 13 0 0 4 7 9 15 8 15 24 47 33 68 11 26 19 28 30 9 3 -5 7 -11 8 -13 1 -2 6
-10 12 -19 5 -10 10 -17 10 -18 0 0 4 -8 9 -16 5 -9 11 -21 15 -27 23 -41 53
-107 75 -167 8 -20 17 -37 24 -43 8 -7 11 -17 10 -39 0 -25 2 -30 15 -43 10
-10 40 -25 60 -30 19 -5 44 -5 61 -1 14 3 43 16 48 22 2 2 4 3 5 3 1 0 20 18
27 26 12 14 21 31 31 56 15 37 14 93 -1 140 -8 22 -28 63 -36 72 -2 2 -3 4 -3
5 0 4 -32 41 -51 60 -19 19 -56 50 -66 55 -2 2 -4 3 -5 4 -3 4 -24 15 -41 21
-21 7 -32 12 -36 16 -7 7 -21 17 -28 21 -9 4 -34 6 -41 2 -17 -9 -33 -11 -41
-5 -2 1 -7 8 -10 14 -3 7 -7 13 -8 15 -4 6 -12 12 -14 12 -1 0 -4 4 -7 9 l-5
9 5 22 c7 34 7 37 13 76 4 27 4 33 -4 42 -8 8 -18 12 -34 12 -17 0 -24 9 -23
33 0 28 7 37 27 37 17 0 27 2 35 7 10 6 14 15 15 36 1 10 1 24 2 31 0 7 1 27
2 43 1 17 2 39 2 51 1 31 3 72 4 118 3 88 2 84 8 90 l5 6 4 -5 c5 -5 5 -8 6
-40 1 -38 3 -45 18 -57 4 -4 9 -9 10 -12 4 -6 4 -6 0 -12 -1 -3 -6 -8 -10 -12
-17 -14 -21 -31 -13 -57 6 -21 6 -29 0 -50 -4 -15 -5 -21 -5 -49 0 -43 3 -51
28 -67 15 -10 18 -14 18 -28 0 -14 -3 -18 -18 -28 -18 -12 -23 -19 -24 -32 0
-9 0 -11 6 -16 6 -5 18 -9 26 -9 3 0 9 0 14 0 12 1 24 -5 35 -17 11 -11 13
-16 13 -29 0 -21 -19 -28 -43 -17 -5 3 -11 7 -13 9 -2 2 -4 3 -15 2 -22 -2
-27 -10 -27 -47 0 -36 6 -53 23 -62 4 -3 9 -6 10 -7 2 -1 3 -2 4 -2 1 0 3 -2
5 -4 4 -3 4 -3 -2 -4 -9 0 -10 -2 -1 -2 4 0 7 1 9 4 1 1 2 2 2 1 0 -1 2 0 6 3
3 2 7 4 10 5 8 2 19 8 24 13 3 2 12 10 21 16 9 7 16 13 17 14 2 3 18 10 24 10
3 0 12 -3 19 -6 19 -9 30 -10 42 -4 14 7 34 26 39 38 l5 11 1 177 c0 195 1
185 -12 194 -5 4 -19 7 -26 6 -23 -1 -26 -1 -32 6 -5 5 -6 7 -6 18 0 14 3 18
23 30 8 5 15 11 19 16 3 5 7 10 7 11 4 6 7 10 8 14 1 1 2 3 3 3 1 0 2 1 2 3 0
2 1 3 2 3 2 0 5 8 9 20 2 7 3 26 3 82 0 85 0 83 20 94 13 7 32 24 41 36 4 5 5
9 5 18 0 19 -3 23 -35 47 -9 7 -18 14 -20 16 -8 7 -28 8 -43 3 -11 -5 -26 -20
-35 -38 -9 -18 -12 -21 -21 -22 -19 -2 -26 4 -26 21 0 11 0 12 11 23 14 15 17
20 18 31 0 8 -1 12 -4 18 -3 5 -5 10 -5 11 0 3 -5 8 -9 8 -2 0 -3 1 -2 2 2 3
-25 1 -32 -3 -4 -2 -7 -4 -8 -5 -1 -1 -5 -2 -10 -2 -8 0 -10 1 -18 10 -16 17
-36 19 -48 6 -34 -40 -36 -41 -85 -42 -36 -1 -37 -1 -50 -7 -14 -7 -28 -18
-28 -22 0 -2 -1 -3 -2 -3 -2 0 -10 -15 -10 -20 0 -6 -8 -18 -12 -18 -2 0 -5 2
-7 5 -3 5 -3 5 4 25 4 13 7 23 7 31 0 14 3 19 17 25 12 6 29 18 32 21 1 2 3 5
5 7 3 3 62 76 74 92 8 10 41 55 44 59 1 2 3 5 4 6 2 4 11 9 19 11 5 1 46 2
117 2 l109 0 13 5 c17 7 32 21 41 39 8 17 9 22 3 37 -6 14 -9 17 -25 18 -11 1
-14 2 -18 8 -6 6 -7 8 -9 17 -1 7 -21 26 -52 49 l-27 20 -14 0 c-13 0 -15 -1
-26 -8 -6 -4 -17 -9 -23 -10 -6 -2 -12 -3 -13 -4 -16 -4 -24 -18 -23 -42 0
-10 -1 -13 -4 -16 -10 -10 -24 -4 -27 11 -4 24 -6 30 -12 36 -5 5 -6 5 -31 5
-24 -1 -50 -5 -50 -10 0 0 -1 -1 -2 0 -2 1 -20 -16 -20 -19 0 -1 -5 -4 -10 -7
-10 -5 -12 -5 -43 -5 -40 0 -48 -3 -61 -22 -17 -25 -27 -25 -44 0 -8 12 -20
20 -30 20 -14 0 -27 -18 -29 -41 -2 -14 -8 -19 -20 -19 -14 0 -18 3 -24 23 -6
18 -13 28 -25 34 -7 4 -14 4 -104 4 -53 0 -100 -1 -104 -1 -11 -3 -17 1 -21
12 -3 7 -6 11 -16 18 -14 10 -60 44 -66 49 -2 2 -12 10 -23 18 -10 7 -24 18
-30 23 -22 18 -31 21 -48 18z m757 -145 c3 -3 3 -3 0 -6 -4 -5 -11 1 -7 6 4 4
4 4 7 0z m-578 -15 c4 -2 6 -10 2 -10 -1 0 -3 -1 -3 -2 -1 -2 -2 -2 -5 0 -2 3
-3 5 -1 9 3 5 4 6 7 3z m840 -16 c2 -5 2 -6 -2 -9 -5 -3 -5 -3 -8 0 -3 3 -3 4
0 10 4 8 7 8 10 -1z m-1462 2 c3 -3 5 -7 5 -9 0 -7 8 -29 12 -32 2 -1 5 -6 8
-11 2 -6 5 -10 6 -10 0 0 1 -5 0 -10 -1 -19 7 -33 28 -47 15 -10 18 -14 18
-28 0 -14 -3 -18 -18 -28 -16 -11 -18 -14 -18 -30 0 -9 1 -11 6 -13 3 -2 5 -3
6 -4 1 -1 5 -3 10 -5 5 -2 11 -5 13 -8 7 -8 1 -23 -11 -23 -6 0 -22 9 -24 12
0 1 -2 2 -3 2 -2 0 -3 1 -3 2 0 5 -14 8 -42 10 -28 1 -40 6 -54 20 -10 9 -10
10 -10 21 0 7 1 12 3 14 2 1 3 4 3 5 0 2 1 4 2 6 3 2 4 30 2 41 -1 6 3 17 7
19 11 7 21 39 27 83 2 13 4 19 7 23 5 5 14 5 20 0z m316 -32 c17 -9 18 -11 19
-107 l1 -82 -6 -6 c-6 -6 -7 -6 -27 -6 -20 0 -21 0 -27 6 l-6 6 1 83 c1 84 1
88 9 100 6 10 22 12 36 6z m-489 -16 c5 -5 6 -7 6 -17 0 -16 -7 -23 -23 -23
-16 0 -23 7 -23 23 0 16 7 23 23 23 10 0 12 -1 17 -6z m302 -11 l-5 -5 -4 4
-5 5 4 4 5 5 4 -4 5 -5 -4 -4z m477 -8 c4 -2 10 -5 15 -9 14 -10 15 -10 156
-10 l131 1 6 -6 c4 -4 6 -7 6 -7 0 -1 -1 -44 -1 -96 l-1 -95 -6 -5 c-6 -5 -7
-6 -13 -4 -4 1 -9 2 -12 3 -3 0 -19 6 -35 13 -17 7 -33 12 -36 12 -10 0 -25
-5 -30 -11 -20 -18 -47 -18 -51 -1 -1 4 -6 23 -8 34 -3 11 -14 21 -31 29 -24
10 -44 3 -51 -17 -3 -10 -3 -211 1 -227 3 -14 3 -48 -1 -59 -1 -4 -2 -25 -2
-49 0 -40 0 -42 5 -52 5 -10 13 -18 26 -26 19 -11 19 -35 0 -46 -25 -15 -31
-27 -31 -61 0 -17 1 -29 4 -41 8 -34 4 -45 -15 -45 -14 0 -20 6 -19 19 2 45 4
43 -56 87 -54 41 -55 41 -40 52 5 3 10 6 11 6 3 0 14 9 17 14 4 8 5 26 0 35
-7 15 -9 28 -6 32 2 2 8 6 15 9 19 8 24 14 25 29 1 10 0 12 -4 16 -6 6 -17 12
-26 14 -6 1 -9 2 -15 8 -4 3 8 26 13 25 3 -1 25 11 30 16 8 8 10 18 10 56 0
47 -2 52 -32 64 -14 6 -17 9 -20 20 -2 9 -3 46 -1 56 0 2 1 8 1 12 1 7 5 13
10 13 5 0 20 7 24 11 6 6 6 24 -1 37 -7 13 -7 27 -1 39 9 18 12 38 8 52 -4 12
7 45 17 53 3 3 6 4 7 3 1 -1 4 -2 7 -3z m408 -85 c7 -6 7 -19 1 -25 -6 -7 -19
-7 -25 -1 -7 6 -7 19 -1 25 6 7 19 7 25 1z m-571 -34 c5 -6 5 -12 0 -18 -7 -8
-22 -2 -22 9 0 11 15 17 22 9z m-239 -50 c4 -6 4 -24 -1 -30 -7 -9 -27 -9 -34
0 -5 6 -5 24 0 30 7 9 27 9 35 0z m-242 -44 c3 -2 8 -11 11 -19 4 -9 8 -18 11
-22 7 -10 20 -23 22 -23 2 0 3 -1 3 -2 0 -2 27 -12 34 -12 11 0 26 7 33 14 4
4 7 8 7 9 0 0 1 2 2 4 1 1 4 5 7 9 16 19 47 14 53 -9 4 -19 -3 -31 -24 -42 -9
-4 -20 -16 -29 -28 -6 -9 -11 -13 -16 -14 -4 -1 -12 -4 -19 -7 -21 -11 -27
-22 -26 -56 1 -18 0 -22 -2 -24 -5 -3 -8 -16 -8 -32 0 -9 -1 -14 -2 -15 -2 0
-1 -1 1 -1 8 0 12 -19 8 -33 -3 -9 -4 -11 -8 -11 -2 0 -3 -1 -1 -1 1 -1 2 -6
2 -16 0 -16 3 -27 10 -31 2 -2 3 -4 3 -4 -1 -2 7 -20 9 -22 1 -1 4 -6 7 -12 7
-13 7 -24 0 -36 -5 -7 -5 -11 -6 -24 0 -8 1 -15 3 -16 4 -3 16 -26 14 -30 -2
-11 -7 -12 -18 -6 -4 2 -14 6 -23 9 -15 5 -18 5 -64 5 -61 0 -68 1 -116 21
-21 8 -39 15 -40 15 -2 0 -3 2 -3 4 0 6 8 9 30 12 34 5 71 16 82 27 7 7 13 22
12 35 -2 32 1 35 28 43 21 6 27 14 24 37 -2 17 2 34 9 34 2 0 3 1 1 1 -2 1 -3
4 -3 10 1 11 -1 19 -3 18 -1 -1 -2 1 -2 3 0 5 -7 18 -9 18 -1 0 -2 20 -1 43 0
48 -1 56 -10 65 -3 3 -9 7 -13 8 -3 1 -10 5 -15 7 -7 5 -8 7 -8 14 0 5 2 15 4
22 3 8 7 23 9 35 6 23 10 30 20 30 3 0 8 -2 10 -4z m-131 -35 c2 -7 -1 -23 -6
-27 -14 -9 -22 1 -19 23 2 10 14 17 20 11 2 -2 4 -5 5 -7z m537 -1 c12 -7 14
-35 2 -45 -35 -30 -34 -26 -34 -89 l0 -49 -6 -6 c-6 -6 -7 -6 -27 -6 -20 0
-21 0 -27 6 l-6 6 1 51 c0 41 0 55 -3 73 l-4 23 5 4 c3 2 7 3 10 3 7 -2 27 3
34 7 3 2 9 7 13 13 4 5 9 9 13 10 3 1 6 2 7 2 3 1 17 -1 22 -3z m111 -12 c5
-5 5 -15 0 -20 -9 -9 -24 -2 -24 10 0 8 6 14 14 14 3 0 8 -2 10 -4z m409 -45
c3 -2 9 -11 14 -22 5 -10 10 -19 11 -18 1 1 3 -3 5 -8 2 -5 5 -10 7 -11 2 -2
3 -4 3 -5 -2 -4 4 -15 11 -20 4 -5 16 -11 30 -17 9 -3 13 -11 13 -24 0 -20
-11 -37 -30 -49 -10 -6 -19 -17 -23 -27 -4 -8 -4 -13 -5 -103 l0 -94 5 -10 c5
-11 12 -18 24 -25 10 -6 15 -16 20 -43 8 -35 4 -54 -10 -53 -21 2 -45 -16 -46
-35 -1 -3 -2 -5 -2 -5 -1 0 -2 -2 -2 -4 0 -5 -8 -20 -10 -20 -1 0 -2 3 -3 6
-1 6 -11 18 -20 22 -25 12 -25 34 0 46 3 2 9 6 13 11 9 9 10 15 7 40 -2 15 -2
20 3 47 3 18 3 94 -1 103 -5 12 -12 20 -22 26 -20 13 -20 33 0 46 10 6 17 14
22 26 3 6 3 18 3 73 0 69 -1 76 -9 86 -4 4 -25 17 -33 19 -8 3 -11 7 -12 20 0
12 0 13 6 19 5 5 7 6 16 6 7 0 13 -1 15 -3z m-380 -21 c3 0 8 -3 11 -6 5 -5 6
-7 6 -18 0 -11 -1 -13 -6 -18 -3 -3 -7 -6 -9 -6 -15 -1 -20 0 -30 7 -6 4 -12
7 -13 7 -1 0 -2 1 -2 2 0 0 -5 1 -12 1 -11 0 -13 -1 -20 -7 -15 -15 -26 -18
-34 -10 -7 7 -5 16 5 26 11 11 20 14 49 15 17 0 26 2 34 5 6 2 12 3 14 3 1 -1
5 -1 7 -1z m-660 -31 c6 -4 6 -6 6 -20 0 -14 0 -16 -6 -20 -4 -4 -7 -5 -18 -5
-11 0 -14 1 -18 5 -6 4 -6 6 -6 20 0 14 0 16 6 20 4 4 7 5 18 5 11 0 14 -1 18
-5z m1332 -16 c-4 -5 -7 -6 -9 -5 -2 1 -7 2 -13 3 -5 1 -15 3 -21 4 -6 2 -15
3 -20 3 -6 1 -7 1 -3 1 3 1 5 2 4 4 -2 5 3 6 30 7 l26 1 6 -6 6 -6 -6 -6z
m-361 4 c6 -6 6 -21 1 -27 -4 -4 -14 -9 -26 -14 -15 -5 -22 -20 -20 -46 1 -18
-2 -24 -15 -24 -11 0 -16 7 -19 25 -1 2 -3 11 -6 20 -6 19 -6 33 -1 39 1 2 8
6 15 8 16 6 24 9 36 17 15 10 27 10 35 2z m-333 -89 c9 -3 17 -6 18 -6 2 0 6
-3 10 -7 6 -5 7 -7 6 -12 -1 -3 -2 -11 -2 -16 0 -9 -1 -11 -4 -13 -3 -2 -5 -3
-5 -4 0 -4 -30 -2 -37 2 -3 2 -10 4 -15 4 -10 0 -26 -3 -26 -6 0 -1 -3 -5 -7
-9 -13 -12 -37 -15 -47 -4 -4 4 -4 6 -3 15 2 18 9 24 32 30 15 4 25 9 38 21
14 13 20 14 42 5z m796 -56 c4 -6 4 -24 -1 -30 -7 -9 -27 -9 -34 0 -5 6 -5 24
0 30 7 9 27 9 35 0z m-170 2 c7 -6 7 -19 1 -25 -6 -7 -19 -7 -25 -1 -7 6 -7
19 -1 25 6 7 19 7 25 1z m-783 -58 c2 -4 6 -6 8 -6 2 0 2 -1 1 -1 -4 -2 4 -17
8 -18 2 -1 2 -2 2 -3 -1 -1 2 -2 7 -2 10 0 10 0 15 -2 3 -1 5 -1 7 1 3 3 12
-4 17 -13 4 -9 11 -15 25 -21 13 -7 17 -11 13 -14 -1 -1 -8 -8 -14 -16 -21
-25 -33 -37 -40 -41 -7 -2 -17 -3 -52 -4 l-44 -1 -6 6 -6 6 0 61 0 61 6 6 c6
6 6 6 27 6 20 0 21 0 26 -5z m-172 -90 c5 -5 5 -15 0 -20 -9 -9 -24 -2 -24 10
0 8 6 14 14 14 3 0 8 -2 10 -4z m591 -30 c5 -5 6 -7 6 -16 0 -15 -8 -23 -23
-23 -9 0 -11 1 -16 7 -9 8 -9 23 -1 32 9 9 24 9 34 0z m100 -28 c5 -5 6 -7 6
-16 0 -15 -8 -23 -23 -23 -9 0 -11 1 -16 7 -9 8 -9 23 -1 32 9 9 24 9 34 0z
m-317 -8 c4 -6 4 -12 -3 -41 -5 -24 -10 -30 -25 -30 -25 0 -31 27 -10 49 2 2
6 7 10 11 8 8 17 15 22 15 1 0 4 -2 6 -4z m-424 -21 c8 -4 10 -10 9 -27 0 -9
-2 -19 -4 -24 -3 -7 -3 -7 -10 -6 -4 1 -8 3 -9 4 0 1 -5 4 -11 6 -11 6 -14 10
-16 27 -1 6 -2 12 -2 13 -1 2 5 15 9 17 2 2 19 -2 34 -10z m140 6 c5 -5 5 -27
1 -33 -8 -9 -28 -9 -35 0 -5 6 -5 24 0 30 6 8 27 10 34 3z m-421 -28 c9 -9 7
-19 -5 -33 -6 -6 -13 -14 -15 -17 -2 -3 -7 -6 -17 -8 -13 -3 -13 -3 -17 1 -5
4 -5 5 -2 11 2 4 6 12 10 17 4 5 7 10 7 11 0 2 2 4 4 7 2 3 4 6 4 7 0 4 11 9
19 9 5 0 9 -1 12 -5z m154 -12 c3 -2 6 -8 9 -16 2 -8 6 -17 8 -21 4 -6 15 -14
19 -14 2 0 6 -3 9 -7 l7 -6 -1 -62 c-1 -62 -1 -62 -6 -68 -3 -4 -6 -6 -9 -6
-2 0 -18 -1 -35 -2 -17 -2 -40 -3 -51 -4 -11 -1 -20 -2 -21 -2 0 -1 -3 2 -6 5
l-6 6 0 30 c0 32 -2 42 -10 46 -7 4 -30 8 -30 6 0 -1 -1 -2 -2 -2 -5 0 -27
-13 -33 -19 -4 -4 -10 -13 -14 -20 -7 -14 -11 -20 -22 -32 -3 -3 -7 -8 -8 -11
-7 -11 -25 -16 -35 -10 -5 2 -26 34 -25 36 0 1 -3 1 -8 1 -13 -1 -23 6 -23 17
0 9 15 16 20 9 1 -2 4 -3 5 -3 1 0 3 -1 4 -3 1 -2 4 -3 17 -3 17 0 19 1 27 13
3 6 10 12 18 17 7 5 14 10 16 13 2 2 3 3 3 2 0 -5 12 23 13 30 1 10 6 15 19
17 10 1 28 -1 28 -4 0 -1 4 -1 9 0 4 1 12 3 17 3 4 1 9 2 9 3 1 1 3 2 5 2 2 0
5 2 7 4 2 1 7 3 12 3 16 1 26 12 33 35 5 16 9 20 20 20 4 0 9 -1 11 -3z m143
-35 c0 -1 2 -2 4 -3 4 -1 12 -14 12 -19 0 -5 -7 -12 -13 -12 -6 0 -11 4 -13
12 -2 6 1 20 4 20 1 0 2 1 1 2 -1 1 0 2 2 2 2 0 3 -1 3 -2z m255 -22 l5 -7 0
-33 c-1 -33 -1 -34 4 -41 3 -4 6 -6 6 -6 7 4 14 -19 11 -36 -3 -22 -7 -27 -21
-27 -33 0 -46 26 -28 53 9 12 12 25 9 37 -3 10 -14 17 -36 23 -20 5 -27 9 -27
16 0 2 -1 6 -3 9 -2 4 -2 5 4 10 7 6 8 6 55 8 15 0 16 0 21 -6z m943 -15 c13
-3 23 -7 25 -9 7 -6 10 -20 7 -31 -6 -19 -2 -37 11 -55 8 -10 7 -26 -1 -34 -5
-5 -7 -6 -17 -6 -16 0 -23 7 -23 22 0 10 -1 16 -5 31 -1 7 -9 21 -11 21 -1 0
-3 3 -5 8 -9 16 -14 23 -18 29 -2 3 -6 10 -7 15 -3 9 -3 10 0 13 5 5 11 4 44
-4z m-311 -10 c4 -5 4 -7 0 -13 -6 -8 -19 -2 -19 8 0 11 11 14 19 5z m-540
-33 c10 -8 10 -34 0 -42 -7 -5 -27 -5 -38 0 -8 3 -9 5 -9 11 0 10 6 25 11 31
7 6 28 6 36 0z m83 -5 c6 -6 14 -32 12 -42 -1 -8 -30 3 -39 16 -5 6 -4 18 2
24 6 6 18 7 25 2z m203 -3 c15 0 16 0 20 -5 3 -5 3 -5 0 -10 -3 -4 -26 -17
-30 -17 -1 0 -6 -4 -12 -8 -11 -7 -13 -8 -24 -8 -9 0 -14 1 -17 4 -11 9 -11
33 0 42 5 4 6 4 26 3 12 -1 28 -2 37 -1z m149 -37 c3 -16 2 -22 -5 -36 -4 -10
-6 -11 -9 -10 -8 3 -26 4 -26 3 0 -1 -1 -2 -2 -2 -1 0 -6 -2 -10 -5 -21 -13
-44 -17 -52 -8 -6 6 -6 20 0 29 4 8 24 29 31 33 6 4 28 5 31 2 4 -4 31 1 33 6
3 6 6 1 9 -12z m-727 -26 c12 -7 14 -33 3 -43 -8 -9 -32 -9 -40 0 -9 8 -9 32
0 41 7 7 27 8 37 2z m310 -37 c7 -8 8 -21 0 -34 -2 -5 -9 -18 -15 -28 -11 -21
-16 -26 -27 -26 -14 0 -15 0 -21 6 -9 9 -9 25 1 39 3 6 10 17 16 26 13 21 18
25 33 24 4 -1 9 -3 13 -7z m-199 1 c5 -1 12 -8 12 -12 0 -21 -44 -41 -59 -26
-4 4 -5 7 -5 16 0 14 5 20 19 22 6 1 11 2 12 2 2 0 14 -1 21 -2z m718 -34 l-5
-5 -4 4 -5 5 4 4 5 5 4 -4 5 -5 -4 -4z m-1244 -68 l-5 -5 -4 4 -5 5 4 4 5 5 4
-4 5 -5 -4 -4z m1330 -37 c15 -16 4 -47 -17 -49 -5 -1 -21 16 -21 21 -2 24 5
30 28 32 4 0 7 -2 10 -4z m-1286 -15 c21 -9 20 -45 -2 -54 -10 -5 -28 -1 -34
6 -9 10 -9 32 0 42 7 8 24 11 36 6z m1454 -113 c1 0 5 -3 8 -6 5 -5 6 -7 6
-18 0 -11 -1 -13 -6 -18 -6 -6 -7 -6 -18 -6 -11 0 -12 0 -18 6 -5 5 -6 7 -6
17 0 14 3 20 12 24 5 2 8 2 22 1z m114 -88 c5 -5 5 -11 0 -16 -10 -10 -27 5
-16 16 4 4 12 4 16 0z m-1612 -5 c1 -2 3 -3 4 -3 4 0 25 -28 28 -38 2 -5 2 -7
-1 -11 -5 -9 -16 -6 -43 11 -4 2 -8 5 -10 5 -10 4 -14 25 -6 34 6 7 23 8 28 2z
m1524 -5 c5 -5 5 -15 0 -20 -9 -9 -24 -2 -24 10 0 8 6 14 14 14 3 0 8 -2 10
-4z m149 -35 c3 -3 3 -3 0 -6 -4 -5 -11 1 -7 6 4 4 4 4 7 0z m-997 -70 c-2
-11 -14 -15 -19 -6 -7 11 7 23 16 14 2 -2 4 -6 3 -8z m891 -23 c11 -10 3 -28
-11 -28 -9 0 -16 6 -16 16 0 14 17 22 27 12z"/>
</g>
</svg>
