<?xml version="1.0" standalone="no"?>
<!DOCTYPE svg PUBLIC "-//W3C//DTD SVG 20010904//EN"
 "http://www.w3.org/TR/2001/REC-SVG-20010904/DTD/svg10.dtd">
<svg version="1.0" xmlns="http://www.w3.org/2000/svg"
 width="1107.000000pt" height="2870.000000pt" viewBox="0 0 1107.000000 2870.000000"
 preserveAspectRatio="xMidYMid meet">
<metadata>
Created by potrace 1.15, written by Peter Selinger 2001-2017
</metadata>
<g transform="translate(0.000000,2870.000000) scale(0.500000,-0.500000)"
fill="#000000" stroke="none">
<path d="M1360 3856 c-17 -5 -25 -15 -27 -32 -1 -8 0 -12 3 -19 8 -15 8 -18 2
-21 -5 -2 -9 -2 -20 1 -7 2 -14 4 -16 4 -2 0 -10 3 -19 5 -9 2 -17 5 -19 5 -2
0 -15 4 -29 8 -144 38 -133 36 -145 33 -18 -4 -28 -18 -31 -42 -1 -10 -6 -52
-8 -65 0 -3 -1 -11 -2 -17 -1 -6 -2 -12 -2 -13 0 -2 -3 -20 -4 -27 0 -3 -1 -7
-2 -10 0 -3 -1 -9 -2 -14 -1 -5 -3 -22 -6 -37 -3 -15 -5 -31 -6 -35 -1 -6 -2
-11 -4 -23 -3 -14 -17 -88 -19 -97 -3 -14 -9 -22 -15 -22 -3 0 -5 1 -6 2 -1 1
-11 10 -23 19 -26 21 -21 17 -49 38 -13 10 -24 19 -25 19 -1 1 -7 6 -15 11 -8
5 -17 12 -21 15 -24 20 -34 28 -39 34 -9 10 -17 13 -30 12 -11 -1 -12 -2 -19
-9 -5 -7 -25 -34 -35 -48 -1 -2 -11 -15 -21 -30 -18 -23 -27 -38 -28 -45 -3
-11 -15 -14 -57 -14 -47 0 -45 -3 -37 67 2 18 3 36 3 39 -2 6 -7 16 -10 19 -6
6 -25 15 -31 15 -6 0 -14 10 -15 19 0 4 -1 13 -2 19 -1 12 -2 12 -15 23 -16
13 -18 16 -18 26 0 14 19 23 30 14 4 -4 9 -20 11 -31 1 -10 16 -22 27 -22 21
0 33 15 35 45 2 22 6 30 23 37 17 8 36 27 45 48 12 25 12 26 11 36 -3 14 -8
20 -20 26 -11 6 -17 7 -63 9 -12 1 -27 2 -33 2 -6 0 -21 1 -33 2 -12 1 -25 2
-29 2 -4 0 -18 1 -32 2 -14 1 -28 2 -32 2 -35 4 -51 -2 -64 -21 -8 -15 -24
-20 -33 -12 -4 3 -10 12 -20 31 -2 2 -3 3 -3 1 0 -2 -3 -2 -13 -2 l-13 1 -6
-12 -6 -11 0 -40 c0 -42 1 -48 10 -68 14 -28 14 -31 2 -56 -4 -9 -9 -21 -10
-26 -3 -12 0 -107 3 -120 1 -3 2 -6 2 -7 2 -5 7 -17 9 -18 3 -2 10 -18 10 -22
0 -3 -9 -13 -12 -13 0 0 -3 -1 -5 -1 -2 -1 -23 -2 -47 -3 -48 -1 -53 -3 -67
-17 -9 -9 -16 -13 -23 -13 -7 0 -14 4 -23 13 -25 25 -73 22 -81 -5 -9 -30 8
-49 42 -49 16 0 21 -2 21 -11 0 -3 1 -7 3 -10 1 -3 2 -6 2 -7 1 -7 10 -17 17
-21 8 -4 12 -4 69 -4 l61 0 5 -6 c3 -3 5 -8 6 -11 1 -10 8 -21 19 -28 6 -5 12
-11 14 -14 3 -6 3 -7 0 -12 -2 -3 -8 -7 -13 -10 -24 -12 -27 -20 -31 -74 -2
-23 -4 -48 -4 -55 -2 -20 -15 -146 -18 -172 -1 -13 -4 -36 -6 -51 -3 -23 -3
-30 -1 -37 2 -7 12 -19 16 -19 1 0 2 -1 3 -1 1 0 2 -1 3 -1 0 0 2 -1 4 -2 4
-2 32 -1 50 2 8 2 17 3 20 3 12 0 19 -19 10 -28 -3 -2 -12 -7 -20 -11 -8 -4
-20 -11 -26 -14 -9 -7 -12 -8 -22 -7 -28 1 -33 1 -41 -3 -9 -5 -14 -13 -17
-27 -1 -6 -3 -18 -5 -26 -4 -26 1 -42 20 -59 10 -10 12 -17 11 -33 -2 -12 -5
-16 -20 -23 -31 -15 -36 -23 -47 -76 -4 -20 -8 -39 -9 -42 -1 -3 -2 -9 -3 -12
0 -3 -3 -15 -6 -25 -6 -22 -6 -24 -3 -35 3 -8 11 -17 22 -23 16 -8 20 -17 12
-26 -3 -3 -5 -4 -13 -4 -12 1 -25 -1 -28 -4 -2 -2 -3 -2 -3 -1 0 3 -10 -8 -14
-14 -1 -3 -6 -19 -11 -36 -9 -32 -25 -84 -29 -94 -1 -3 -4 -10 -5 -15 -4 -14
-31 -88 -44 -120 -10 -25 -11 -30 -10 -38 4 -30 30 -39 55 -20 7 6 37 44 63
81 5 8 10 14 11 15 1 1 11 16 23 33 38 58 47 74 51 93 3 17 9 26 21 38 6 6 14
16 17 22 12 21 20 24 26 11 2 -3 7 -9 11 -12 11 -8 13 -13 15 -32 2 -20 4 -28
12 -55 8 -28 31 -85 36 -91 8 -9 30 -12 41 -6 14 8 39 3 41 -9 0 -2 1 -4 2 -4
1 0 3 -4 4 -8 2 -5 4 -9 5 -9 1 -1 1 0 0 1 -1 2 -1 3 1 1 3 -3 16 -4 26 -1 6
2 8 3 11 13 11 33 15 37 36 42 25 4 34 7 40 14 1 1 5 4 8 6 3 2 6 5 8 6 1 1 9
8 17 14 8 7 17 14 20 16 21 17 25 26 23 53 -1 15 -1 17 3 21 5 6 12 6 24 2 9
-3 25 -4 31 -2 3 1 6 -1 9 -6 6 -7 7 -14 9 -57 2 -43 7 -52 35 -66 8 -4 17
-10 19 -13 15 -16 25 -32 32 -45 3 -9 10 -19 14 -22 16 -16 46 -15 78 2 18 9
17 9 39 30 18 18 38 49 38 60 0 3 1 4 1 2 1 -2 3 -4 4 -5 5 -3 7 -19 7 -43 0
-18 1 -28 4 -39 6 -21 6 -30 1 -51 -5 -20 -7 -47 -3 -57 4 -11 23 -23 37 -23
7 -1 10 -4 17 -18 14 -27 24 -30 70 -23 36 6 57 13 90 28 59 29 81 58 80 104
-1 19 -1 20 5 26 l6 6 23 -1 c25 0 42 2 46 7 2 2 3 8 2 17 0 13 0 14 4 15 5 0
5 0 0 1 -12 0 -17 19 -9 31 5 7 6 27 2 36 -2 3 -3 5 -3 4 0 -1 -2 1 -5 3 -3 2
-8 4 -11 4 -4 0 -13 1 -20 3 -8 2 -18 3 -22 3 -4 -1 -8 0 -10 1 -1 1 -4 4 -6
6 -5 4 -16 32 -16 40 0 2 3 13 7 25 l7 21 0 99 -1 99 6 6 6 6 29 0 29 0 6 -6
6 -6 -1 -44 c0 -57 2 -63 25 -70 5 -2 13 -3 18 -3 10 0 17 -6 17 -15 0 -9 -7
-15 -17 -15 -9 1 -27 -5 -33 -10 -15 -13 -14 -80 3 -113 2 -5 5 -9 5 -9 1 0 2
-1 1 -2 -1 -1 0 -3 2 -3 2 -1 3 -3 3 -4 0 -1 7 -6 15 -10 9 -4 18 -9 19 -10 5
-5 5 -17 0 -26 -5 -8 -7 -11 -16 -21 -2 -3 -5 -7 -7 -10 -3 -5 -9 -9 -16 -11
-3 0 -3 -1 1 -1 4 0 4 -1 4 -14 -1 -9 0 -15 2 -17 7 -8 62 -10 84 -3 7 3 14 5
15 6 5 4 21 9 28 9 7 0 12 -1 30 -9 22 -10 24 -10 99 -10 78 1 76 1 91 15 3 3
9 8 14 10 l7 6 8 -6 c4 -2 10 -7 13 -10 14 -14 13 -14 83 -14 61 0 63 0 74 5
26 10 50 42 47 63 -1 12 -5 20 -15 31 -8 8 -9 8 -21 8 -12 -1 -21 -3 -23 -6
-3 -4 -15 -10 -20 -10 -12 0 -18 14 -11 25 4 6 6 25 4 36 -1 5 -3 9 -12 15
-12 9 -24 13 -41 12 -21 -1 -28 0 -34 3 -7 3 -7 4 -13 29 -5 21 -10 31 -20 40
-3 3 -9 8 -12 12 -7 8 -12 10 -24 10 -13 0 -21 -5 -29 -16 -4 -6 -9 -13 -12
-17 -5 -5 -25 -33 -32 -44 -1 -2 -4 -6 -6 -8 -2 -2 -5 -6 -7 -9 l-2 -6 -6 9
-5 8 0 43 c0 49 -2 58 -13 71 -4 5 -7 10 -7 11 0 3 -13 8 -25 9 -9 1 -15 0
-23 -3 -21 -7 -37 1 -37 20 0 23 22 30 44 14 6 -4 13 -8 14 -8 1 0 3 -1 5 -2
1 -2 6 -3 11 -2 8 0 11 2 15 7 12 12 15 22 16 48 2 30 5 39 13 44 11 6 19 4
40 -6 l20 -10 80 -1 c88 0 92 0 112 12 l9 6 0 14 c0 16 0 15 -20 33 -6 5 -6 6
-5 16 2 17 3 37 1 43 -2 6 -17 19 -36 34 -5 4 -12 10 -16 13 -4 4 -8 7 -8 7
-1 0 -3 1 -4 3 -3 2 -16 13 -36 29 -5 4 -16 14 -25 23 l-16 15 -14 0 c-17 0
-21 -3 -32 -20 -3 -5 -6 -9 -7 -10 0 -1 -5 -8 -11 -16 -5 -8 -11 -16 -12 -17
-7 -9 -20 -29 -21 -33 -2 -5 -2 -5 -2 0 0 2 -1 4 -2 3 -6 -4 -7 10 -8 130 l-1
120 6 6 6 6 92 -1 c154 -1 168 3 188 47 6 12 6 22 0 37 -5 11 -39 44 -80 77
-7 5 -15 12 -19 15 -4 3 -13 11 -21 17 l-14 11 -14 0 c-9 0 -15 -1 -15 -2 0
-1 -1 -2 -2 -2 -1 0 -6 -3 -11 -6 -11 -8 -19 -8 -33 0 -10 5 -13 6 -25 5 -14
0 -15 -1 -23 -12 -1 -2 -7 -10 -12 -18 -6 -8 -10 -16 -10 -18 0 -3 -1 -3 -2 1
-2 5 -3 5 -8 4 -3 -1 -6 -1 -7 0 0 0 -1 0 -1 -2 0 -1 -2 -1 -6 0 -4 1 -11 2
-17 1 -7 0 -9 1 -9 3 0 2 -1 2 -2 -1 -3 -7 -8 -10 -18 -10 -15 0 -23 8 -23 23
0 15 8 23 23 23 10 0 15 -3 18 -10 1 -3 2 -3 2 -1 0 2 2 3 11 3 13 -1 19 2 24
11 3 6 3 15 3 104 l-1 97 6 6 6 6 119 -1 c104 0 120 0 130 3 21 6 37 20 47 43
8 14 8 16 4 35 -2 7 -27 32 -51 51 -5 4 -10 8 -12 10 -1 1 -6 5 -10 8 -4 3 -8
6 -9 7 -2 2 -11 9 -21 16 -10 7 -53 40 -54 41 -1 1 -5 4 -9 7 -12 9 -17 13
-33 28 -17 16 -21 18 -37 16 l-11 -1 -4 8 c-2 5 -5 14 -6 22 -7 44 -23 60 -61
60 -14 0 -38 7 -44 12 -8 9 -4 19 10 26 13 7 15 11 15 26 0 13 -1 15 -6 20 -8
7 -22 18 -29 23 -3 2 -6 4 -7 5 -5 7 -78 45 -114 59 -60 23 -90 30 -106 25z
m-936 -98 c5 -5 5 -11 0 -16 -11 -11 -27 5 -16 16 4 4 12 4 16 0z m805 -3 c5
-8 1 -16 -8 -16 -9 0 -13 8 -8 16 2 3 5 5 8 5 3 0 6 -2 8 -5z m-823 -61 c6 -7
5 -20 -1 -26 -5 -5 -7 -5 -23 -5 -17 0 -18 0 -23 5 -10 12 -3 23 18 28 16 5
24 4 29 -2z m1026 -38 c7 -7 5 -13 -9 -27 -17 -18 -20 -26 -18 -51 1 -16 1
-66 0 -81 0 -4 1 -10 3 -14 2 -5 4 -10 4 -11 0 -2 1 -4 2 -4 1 0 2 -2 3 -5 2
-7 14 -18 23 -21 5 -2 5 -2 1 -2 -3 0 -5 -1 -5 -2 0 -1 -3 -4 -7 -5 -7 -3 -17
-3 -68 -3 l-61 1 -5 5 c-8 8 -9 4 22 76 7 14 20 46 30 72 17 42 20 48 27 55 5
4 10 7 12 7 2 0 5 1 8 3 6 4 26 11 31 10 2 0 6 -2 7 -3z m165 -66 c3 -4 5 -8
5 -11 0 -5 12 -20 23 -29 11 -9 14 -13 14 -24 0 -15 -8 -23 -23 -23 -16 0 -22
7 -23 27 -1 16 -1 20 -3 22 -1 1 -4 8 -8 17 -6 16 -7 17 -3 22 4 7 11 6 18 -1z
m-1266 -35 c3 -3 3 -3 0 -6 -4 -5 -11 1 -7 6 4 4 4 4 7 0z m1128 -50 c3 -3 3
-3 0 -6 -4 -5 -11 1 -7 6 4 4 4 4 7 0z m-738 -77 c10 -2 16 -9 18 -21 2 -14
10 -34 16 -41 3 -4 11 -14 17 -23 8 -11 14 -17 17 -18 3 -1 5 -2 5 -3 0 -2 2
-2 86 -4 80 -1 80 -1 84 -5 3 -5 3 -5 0 -17 -2 -7 -6 -24 -10 -37 -11 -42 -28
-96 -34 -106 -6 -13 -12 -14 -22 -3 -7 9 -17 13 -41 17 -10 2 -20 4 -22 4 -2
1 -30 6 -62 12 -62 12 -65 12 -78 4 -6 -4 -17 -26 -17 -33 0 -3 -3 -8 -6 -11
-12 -11 -37 -5 -38 10 0 2 -1 5 -1 7 0 2 1 5 1 7 3 7 -2 26 -8 32 -16 17 -55
20 -65 4 -5 -8 -9 -6 -9 5 0 5 -1 11 -1 14 -1 3 0 14 2 26 2 12 3 25 4 29 3
28 4 30 9 35 l6 6 42 0 c51 0 55 1 65 22 4 6 6 12 6 12 -1 0 0 1 1 3 2 2 2 3
0 3 -1 0 -2 9 -2 31 0 29 0 30 5 34 6 7 18 8 32 5z m644 -127 l6 -6 0 -131 0
-131 -6 -5 c-3 -3 -9 -6 -12 -7 -8 -2 -20 -8 -24 -12 -9 -9 -23 -13 -29 -8 -9
7 -9 6 -10 154 l-1 140 6 6 6 6 29 0 29 0 6 -6z m146 -102 c3 -5 3 -5 0 -10
-2 -3 -5 -5 -7 -5 -2 0 -5 2 -7 5 -3 5 -3 5 0 10 2 3 5 5 7 5 2 0 5 -2 7 -5z
m-968 -69 c0 -30 -18 -145 -37 -237 -5 -25 -6 -31 -4 -38 3 -11 12 -19 21 -19
3 0 8 -1 10 -1 2 0 6 1 9 2 17 9 29 1 37 -24 2 -3 7 -12 12 -20 16 -24 11 -43
-10 -43 -11 0 -15 2 -29 15 -5 4 -14 11 -20 16 -10 7 -11 7 -22 6 -18 -1 -29
-9 -31 -22 -1 -4 -11 -45 -15 -62 -5 -19 -4 -26 6 -48 7 -16 8 -16 4 -22 -2
-3 -7 -7 -11 -9 -8 -5 -21 -16 -24 -23 -2 -2 -8 -22 -15 -44 -6 -22 -17 -55
-23 -73 -6 -18 -12 -35 -12 -38 -2 -7 -19 -42 -26 -52 -6 -9 -33 -32 -45 -40
-9 -5 -13 -5 -15 1 -1 5 0 8 11 33 10 21 32 70 33 74 1 2 3 7 5 11 37 83 93
255 86 260 -1 1 -2 3 -2 5 0 2 -2 6 -5 9 -3 3 -5 4 -5 3 0 -2 -1 -2 -3 0 -2 2
-5 2 -9 1 -19 -4 -24 -4 -29 1 -7 6 -7 16 0 31 3 6 6 15 6 20 3 16 -5 60 -12
77 -2 3 -3 9 -3 14 1 29 0 36 -7 52 -11 21 -5 36 14 36 13 0 19 -6 19 -17 -1
-30 0 -37 7 -52 2 -5 6 -17 9 -25 2 -9 7 -22 10 -28 l7 -13 17 -1 17 0 4 6 c4
6 8 18 12 38 0 2 2 10 5 19 6 26 23 107 31 148 7 42 7 41 12 64 3 13 4 16 6
16 3 -2 4 2 1 4 -1 0 -1 1 0 0 2 0 3 -4 3 -11z m658 -10 c10 -9 3 -26 -10 -26
-8 0 -15 7 -15 15 0 13 16 20 25 11z m-200 -10 c4 -6 4 -62 0 -70 -1 -3 -8 -8
-17 -12 -19 -10 -25 -16 -33 -33 -12 -27 -24 -30 -43 -11 l-12 12 -13 0 c-17
0 -19 -1 -22 -13 -2 -6 -4 -15 -6 -22 -4 -15 -8 -23 -19 -39 -5 -7 -11 -19
-14 -26 -4 -7 -8 -17 -10 -21 -8 -14 -5 -34 6 -43 10 -9 26 -10 44 -2 11 6 51
45 53 53 2 7 0 26 -4 36 -2 7 -2 8 2 13 3 5 4 6 8 3 6 -4 32 -5 40 -1 7 2 19
16 21 23 2 4 2 4 2 0 0 -3 1 -5 3 -5 7 0 7 -8 7 -134 0 -119 0 -123 4 -132 4
-9 15 -21 22 -23 2 -1 6 -4 8 -8 l4 -7 -4 -7 c-2 -4 -6 -7 -8 -8 -7 -2 -19
-16 -23 -25 -3 -8 -3 -19 -3 -110 1 -101 1 -101 6 -110 2 -4 7 -11 10 -15 9
-10 13 -20 10 -27 -4 -10 -10 -16 -15 -16 -5 0 -14 14 -16 26 -1 4 -3 10 -4
13 -1 3 -4 10 -5 14 -7 24 -47 100 -60 115 -1 2 -6 8 -10 14 -4 6 -9 12 -9 13
-1 1 -5 6 -9 11 -21 27 -61 70 -66 70 -3 0 -18 14 -18 16 0 3 -8 10 -26 25 -9
8 -17 14 -18 15 -1 1 -5 4 -11 8 -5 4 -14 11 -20 16 -6 4 -12 8 -13 8 -1 0 -3
2 -5 4 -2 2 -6 5 -9 6 -6 3 -12 14 -12 21 0 4 4 15 9 24 5 10 12 26 17 36 5
10 11 24 14 31 9 18 14 29 27 58 10 23 11 27 10 34 -1 5 -1 10 -1 10 1 2 -11
12 -17 14 -5 2 -17 4 -31 4 -8 0 -14 8 -14 21 0 22 12 26 49 17 16 -4 23 -3
36 3 13 7 18 15 28 43 6 16 12 22 30 31 8 4 18 11 23 15 4 4 9 8 11 8 3 0 6
-7 4 -10 -2 -4 -1 -25 2 -32 7 -19 27 -18 49 2 3 2 4 4 3 4 -1 0 -1 1 0 2 1 0
5 7 8 15 3 8 10 22 15 31 16 26 28 34 35 24z m-385 -12 c10 -12 2 -30 -14 -30
-21 0 -26 30 -5 36 9 2 14 0 19 -6z m158 4 c5 -6 5 -12 0 -18 -7 -8 -22 -2
-22 9 0 11 15 17 22 9z m699 -70 c4 -6 4 -24 -1 -30 -7 -9 -27 -9 -34 0 -5 6
-5 24 0 30 7 9 27 9 35 0z m-348 -26 c16 -7 16 -43 -1 -50 -15 -6 -34 -2 -39
9 -4 8 -4 24 0 32 5 12 23 15 40 9z m528 0 c9 -3 17 -17 17 -30 0 -15 -7 -22
-23 -22 -10 0 -12 1 -17 6 -11 11 -6 37 8 45 8 4 8 4 15 1z m-288 -113 l6 -6
0 -135 0 -135 -6 -6 -6 -6 -29 0 -29 0 -6 6 -6 6 0 135 0 135 6 6 6 6 29 0 29
0 6 -6z m-1039 -174 c17 -8 20 -35 5 -52 -3 -5 -10 -14 -15 -21 -11 -16 -16
-20 -22 -19 -11 1 -12 4 -11 40 0 19 2 36 3 39 5 13 24 19 40 13z m821 -3 c11
-10 3 -28 -11 -28 -9 0 -16 6 -16 16 0 14 17 22 27 12z m-511 -32 c5 -5 6 -20
2 -30 0 -1 0 -1 0 -2 0 -1 -2 -2 -3 -3 -3 -3 -21 18 -21 25 0 12 14 18 22 10z
m1114 -55 c8 -9 11 -55 5 -67 -6 -9 -20 -13 -28 -8 -4 3 -5 6 -6 21 0 10 -2
21 -3 25 -4 12 -3 24 2 29 7 8 23 8 30 0z m-1101 -10 c3 -4 7 -16 11 -25 3 -9
9 -23 11 -30 3 -7 7 -23 8 -35 4 -29 16 -81 21 -91 5 -11 10 -15 24 -21 13 -7
17 -7 43 0 20 5 22 5 36 3 10 -2 22 -2 36 -1 30 2 37 -3 37 -25 0 -20 -17 -27
-42 -18 -6 3 -13 5 -15 5 -2 1 -9 2 -14 3 -9 2 -12 1 -24 -3 -20 -6 -24 -10
-34 -25 -12 -19 -29 -26 -45 -19 -13 5 -16 12 -17 32 0 8 -1 16 -2 17 -1 2 -2
4 -2 6 -2 8 -20 19 -29 17 -2 -1 -18 -3 -36 -5 -9 -1 -19 -3 -21 -3 -5 -1 -48
-7 -62 -8 -11 -1 -23 3 -23 7 0 2 9 16 24 41 3 4 7 10 8 12 1 2 4 8 7 12 3 4
6 9 6 11 1 2 5 8 8 13 7 11 28 48 40 70 16 30 22 40 27 50 3 6 6 12 6 14 0 2
1 5 2 7 3 3 6 0 11 -11z m845 -11 c1 0 5 -3 8 -6 5 -5 6 -7 6 -18 0 -11 -1
-13 -6 -18 -6 -6 -7 -6 -18 -6 -11 0 -12 0 -18 6 -5 5 -6 7 -6 17 0 14 3 20
12 24 5 2 8 2 22 1z m-706 -24 c5 -5 5 -8 1 -14 -8 -10 -24 2 -16 13 4 6 10 6
15 1z m283 -53 c3 -5 3 -5 0 -10 -2 -3 -5 -5 -7 -5 -2 0 -5 2 -7 5 -3 5 -3 5
0 10 2 3 5 5 7 5 2 0 5 -2 7 -5z m-795 -11 c9 -5 13 -17 10 -36 -3 -20 -3 -20
-6 -29 -1 -4 -3 -13 -4 -19 -3 -16 -11 -24 -23 -24 -6 0 -9 1 -13 5 -4 4 -4 6
-3 26 1 17 1 26 -2 38 -5 25 0 37 15 41 7 2 21 1 26 -2z m940 -20 c8 0 14 -9
14 -20 0 -20 -8 -25 -46 -25 -23 0 -24 0 -29 5 -7 7 -8 22 -1 29 6 6 40 13 54
12 2 -1 5 -1 8 -1z m-761 -77 c5 -5 6 -8 5 -20 0 -9 -8 -15 -20 -15 -14 0 -20
6 -20 20 0 14 6 20 20 20 8 0 11 -1 15 -5z m640 -11 c7 -6 7 -19 1 -25 -6 -7
-19 -7 -25 -1 -7 6 -7 19 -1 25 6 7 19 7 25 1z m441 -113 c21 -9 19 -49 -2
-54 -3 -1 -6 -2 -7 -3 -2 -3 -11 -3 -11 0 0 1 -3 2 -6 3 -16 4 -23 33 -10 48
7 8 24 11 36 6z m-450 -11 c5 -5 5 -11 0 -16 -10 -10 -27 5 -16 16 4 4 12 4
16 0z m-221 -15 c7 -4 10 -11 10 -24 0 -19 -10 -27 -34 -27 -13 0 -24 4 -27
10 -5 10 1 33 11 38 14 8 31 9 40 3z m661 -72 c11 -4 14 -10 14 -23 0 -15 -7
-22 -23 -22 -16 0 -23 7 -23 22 0 13 4 19 14 23 4 2 8 4 8 6 0 1 1 1 2 0 0 -2
4 -4 8 -6z m-444 -1 c7 -7 3 -18 -6 -20 -5 -1 -14 7 -14 11 0 11 13 16 20 9z
m-28 -67 c4 -4 4 -4 0 -8 l-5 -5 -4 4 c-5 4 -5 5 -2 8 4 5 7 5 11 1z m101 -58
c13 -7 21 -19 21 -33 0 -11 -1 -13 -6 -18 -6 -6 -7 -6 -21 -6 -24 0 -46 41
-30 57 5 5 6 5 17 5 6 -1 15 -3 19 -5z"/>
<path d="M428 2807 c-7 -3 -16 -29 -12 -37 1 -3 25 -4 34 -1 7 2 9 14 5 30 0
0 -1 2 -1 3 0 1 -1 2 -3 2 -2 0 -3 1 -2 2 1 1 -16 2 -21 1z"/>
<path d="M423 2055 c-12 -5 -13 -8 -13 -25 0 -10 1 -12 5 -13 9 -2 27 -1 30 2
4 4 8 18 8 30 l0 10 -10 0 c-7 0 -14 -1 -20 -4z"/>
</g>
</svg>
