<?xml version="1.0" standalone="no"?>
<!DOCTYPE svg PUBLIC "-//W3C//DTD SVG 20010904//EN"
 "http://www.w3.org/TR/2001/REC-SVG-20010904/DTD/svg10.dtd">
<svg version="1.0" xmlns="http://www.w3.org/2000/svg"
 width="1104.000000pt" height="2870.000000pt" viewBox="0 0 1104.000000 2870.000000"
 preserveAspectRatio="xMidYMid meet">
<metadata>
Created by potrace 1.15, written by Peter Selinger 2001-2017
</metadata>
<g transform="translate(0.000000,2870.000000) scale(0.500000,-0.500000)"
fill="#000000" stroke="none">
<path d="M290 3849 c-10 -3 -19 -11 -23 -22 -3 -7 -3 -8 -9 -42 -2 -13 -5 -26
-5 -29 -1 -3 -4 -18 -7 -34 -3 -16 -7 -31 -7 -34 -7 -36 -29 -122 -39 -158 -9
-30 -6 -42 17 -59 22 -17 27 -38 18 -67 -5 -17 -19 -20 -37 -11 -10 5 -20 6
-31 2 -8 -3 -12 -12 -14 -35 -1 -15 -5 -24 -13 -33 -14 -14 -15 -27 -4 -50 6
-14 8 -28 4 -35 -1 -2 -7 -8 -13 -12 -6 -4 -12 -10 -13 -12 -4 -7 -4 -26 0
-36 6 -19 6 -22 0 -29 -3 -4 -7 -7 -9 -7 -3 0 -15 -8 -25 -17 -11 -10 -16 -13
-31 -22 -17 -9 -29 -24 -29 -35 0 -26 22 -44 47 -39 11 2 25 11 47 31 9 7 14
8 18 3 1 -2 2 -58 3 -178 0 -200 -1 -185 17 -198 10 -8 20 -17 20 -20 0 -3 -8
-11 -17 -18 l-10 -6 0 -14 c0 -11 1 -14 3 -16 2 -1 8 -5 14 -8 18 -11 20 -14
21 -31 0 -11 -1 -14 -5 -19 -2 -3 -5 -6 -6 -6 -2 1 -16 -3 -22 -6 -3 -1 -7 -7
-10 -11 -5 -9 -5 -11 -6 -47 0 -31 0 -39 3 -46 4 -9 14 -21 18 -21 2 0 3 -1 3
-2 0 -2 -1 -1 20 -3 21 -2 25 -6 27 -25 1 -20 6 -34 16 -43 9 -9 21 -17 27
-17 2 0 5 -1 6 -3 4 -5 16 1 22 13 5 9 3 28 -5 49 -9 24 -11 32 -12 44 -1 11
0 12 5 17 4 5 7 6 10 5 12 -5 33 -10 39 -10 4 0 12 4 18 7 12 7 38 30 40 36 0
1 5 5 11 9 l10 5 125 0 c84 0 127 1 130 2 14 5 23 23 23 46 0 15 7 22 22 22 6
0 13 -1 15 -3 11 -7 32 -9 48 -4 12 4 20 3 23 -3 3 -5 7 -15 7 -20 1 -3 2 -6
3 -7 1 -1 1 -3 1 -4 -1 -1 0 -2 2 -2 3 -1 6 -5 9 -12 4 -10 4 -10 0 -14 l-4
-5 -7 4 c-5 3 -7 6 -8 11 -2 6 -23 29 -29 29 -8 1 -21 0 -24 -2 -9 -5 -11 -25
-4 -41 5 -11 5 -26 1 -33 -2 -2 -7 -6 -13 -9 -15 -8 -20 -15 -21 -29 -2 -11
-1 -12 5 -20 14 -15 28 -34 38 -49 3 -5 7 -11 7 -12 6 -8 25 -47 30 -59 7 -22
17 -35 33 -46 2 -1 4 -3 4 -5 0 -4 8 -7 12 -5 2 1 4 1 5 1 1 -2 15 3 15 5 0 1
1 2 2 2 1 -1 6 3 11 9 6 7 10 10 17 11 10 2 23 0 28 -6 9 -8 9 -32 0 -40 -8
-9 -33 -9 -40 0 -3 3 -6 4 -16 4 -18 0 -23 -5 -26 -25 -1 -8 -4 -18 -5 -23 -4
-10 -3 -29 3 -36 3 -5 15 -14 23 -18 2 -1 7 -4 10 -6 4 -2 13 -6 21 -9 14 -5
17 -5 37 -4 37 2 45 -2 47 -23 1 -13 -4 -25 -10 -27 -3 -1 -18 -15 -26 -24
-10 -12 -15 -14 -27 -10 -11 3 -31 4 -39 1 -6 -3 -15 -18 -19 -33 -13 -55 -12
-70 6 -78 14 -6 27 -3 49 11 3 2 9 6 13 8 21 13 58 39 74 51 38 29 39 30 48
59 7 21 9 23 28 28 9 2 17 4 19 5 5 1 19 9 22 13 19 21 44 50 53 63 2 3 6 8 8
11 5 6 36 52 42 62 14 25 -7 60 -37 60 -9 0 -13 -1 -25 -8 -18 -11 -32 -11
-41 -3 -3 3 -11 37 -13 53 -3 27 18 27 36 0 12 -17 34 -22 57 -12 7 3 17 5 30
6 20 2 22 2 36 8 8 4 20 19 20 25 0 2 1 5 2 7 2 3 12 33 22 62 4 10 9 31 13
45 4 14 7 27 8 29 0 2 1 6 2 9 0 3 4 20 7 36 8 37 7 43 -5 66 -13 23 -12 29 7
47 12 10 19 25 20 39 1 8 2 11 7 15 7 6 7 6 35 6 34 0 46 4 53 17 2 4 4 7 5 7
1 0 1 5 1 10 0 6 0 10 -1 10 -1 0 -2 1 -1 2 0 2 -2 4 -4 5 -3 1 -5 3 -5 3 0 2
-15 11 -27 17 -2 1 -5 4 -6 7 -2 3 -5 10 -8 17 -6 12 -14 22 -21 24 -1 0 -5 4
-7 8 -2 4 -4 7 -5 7 -1 0 0 7 0 16 2 22 5 127 5 181 0 42 0 47 -4 55 -2 5 -6
12 -7 16 -6 14 -20 25 -37 27 -4 1 -8 2 -9 2 -1 1 -25 -13 -31 -17 -2 -2 -8
-8 -13 -14 -9 -11 -15 -14 -27 -15 -21 -1 -35 16 -29 38 4 14 11 19 28 20 18
2 29 5 43 12 13 7 14 7 33 7 19 -1 30 0 35 5 15 11 22 26 21 43 -1 10 0 11 5
17 6 6 6 6 23 5 20 0 29 2 37 9 6 6 10 22 9 35 0 13 6 19 18 17 17 -2 21 -13
14 -37 -4 -13 -5 -29 -2 -31 1 -1 2 -2 1 -3 0 -1 3 -6 8 -11 11 -11 13 -16 13
-28 0 -12 -2 -17 -13 -28 -17 -19 -18 -21 -19 -77 0 -33 0 -52 2 -57 4 -16 18
-23 42 -24 16 0 22 -3 30 -11 5 -6 6 -6 20 -6 14 0 20 2 20 8 0 2 5 8 11 15 7
7 28 7 36 0 6 -4 6 -6 6 -20 0 -14 0 -16 -6 -20 -8 -7 -29 -7 -36 0 -3 3 -5 4
-5 3 0 0 -1 0 -2 2 -1 1 -6 3 -13 4 -11 0 -11 0 -20 -9 -5 -5 -9 -10 -10 -13
-2 -6 -15 -11 -30 -11 -26 -1 -39 -8 -43 -24 -1 -4 -2 -30 -3 -57 -1 -45 -3
-64 -7 -69 -4 -4 0 -26 6 -34 8 -11 14 -13 38 -13 18 0 21 0 24 -4 7 -8 5 -13
-8 -26 -15 -15 -19 -22 -21 -45 -1 -8 -6 -18 -12 -25 -18 -21 -19 -26 -19 -84
1 -58 1 -59 22 -80 18 -18 20 -31 6 -55 -11 -19 -16 -33 -23 -59 -5 -19 -5
-24 -5 -63 0 -26 1 -47 2 -52 4 -14 14 -23 34 -33 20 -9 23 -13 23 -30 -1 -11
-3 -17 -12 -25 -11 -10 -13 -25 -8 -54 2 -10 -2 -18 -14 -26 -21 -13 -25 -24
-25 -68 0 -41 2 -48 18 -70 8 -10 9 -13 11 -23 0 -3 3 -12 7 -19 6 -13 17 -21
28 -21 13 0 26 22 26 45 0 26 35 30 48 6 2 -3 5 -9 7 -14 l5 -7 16 0 c17 0 21
2 29 16 2 3 6 7 9 9 16 9 24 22 24 39 0 6 0 14 0 17 0 9 7 15 17 15 5 0 9 0
10 -1 1 0 7 0 13 2 25 5 28 12 28 50 0 35 -2 43 -18 64 -15 19 -15 35 0 54 9
12 11 16 15 27 4 11 4 14 0 26 -4 11 -9 16 -27 27 -20 11 -21 17 -6 33 13 14
15 22 11 53 -2 12 -1 16 10 32 16 24 15 16 15 175 l-1 141 6 6 c5 5 9 6 15 6
6 0 16 4 26 8 20 9 34 10 51 3 17 -8 29 -10 53 -11 52 -3 78 11 93 52 5 15 0
36 -14 52 -4 4 -9 10 -12 14 -19 25 -36 33 -77 37 -34 3 -36 4 -42 10 -8 6 -9
21 -2 29 3 4 4 8 4 18 0 15 -3 21 -11 29 -3 3 -7 8 -9 12 -5 7 -11 14 -13 14
-1 0 -1 -1 0 -1 0 -1 -6 -2 -14 -1 l-14 0 -7 -12 c-3 -7 -9 -19 -13 -26 -4 -7
-7 -14 -7 -15 0 -3 -8 4 -10 8 0 1 -1 69 -2 151 l-1 149 6 6 6 6 65 -1 65 0
10 5 c12 5 18 11 28 27 3 5 10 14 15 19 8 9 9 10 10 22 0 12 0 14 -5 21 -3 4
-6 8 -7 8 0 0 -6 5 -12 10 -6 6 -16 15 -23 20 -7 5 -13 10 -14 11 -3 3 -5 4
-59 44 -25 19 -51 39 -57 46 -15 14 -20 17 -33 17 -16 0 -16 -1 -52 -50 -7
-10 -18 -25 -25 -35 -7 -9 -14 -19 -17 -23 -8 -12 -19 -17 -42 -18 -24 -1 -32
1 -38 6 l-5 4 31 32 c17 17 39 40 48 50 l17 19 0 10 c0 14 -6 24 -17 30 -12 6
-14 10 -14 23 0 11 6 20 14 20 3 0 7 1 9 1 8 2 17 2 19 0 2 -2 6 -3 10 -4 6
-1 6 -1 6 4 0 3 1 5 2 4 0 0 1 3 1 7 -1 7 0 9 7 13 l8 5 12 -4 c13 -4 26 -5
35 -2 4 2 14 12 28 29 12 15 23 29 25 30 4 4 17 9 39 18 24 9 40 24 55 52 11
21 5 39 -16 50 -10 5 -62 19 -76 20 -23 2 -37 5 -53 13 -12 6 -39 15 -101 31
-81 23 -85 23 -94 21 -20 -5 -28 -17 -33 -50 -6 -40 -18 -108 -27 -159 -5 -27
-5 -35 5 -56 10 -22 10 -24 -6 -39 -17 -17 -23 -26 -27 -48 -14 -66 -16 -75
-22 -79 -4 -4 -7 -1 -12 13 -17 48 -38 97 -52 122 -5 8 -10 18 -12 22 -14 24
-42 61 -63 83 -17 18 -24 20 -49 18 -19 -1 -21 0 -23 20 -1 12 -2 17 -8 29 -4
8 -53 38 -90 55 -10 5 -23 11 -30 14 -12 5 -24 10 -28 11 -1 0 -4 1 -6 1 -2 0
-9 1 -15 2 -12 1 -32 9 -46 17 -8 4 -11 5 -24 5 -27 0 -41 -11 -43 -33 -1 -10
-1 -12 5 -21 29 -45 40 -63 43 -70 3 -4 10 -19 17 -32 22 -44 40 -95 52 -145
4 -17 5 -21 7 -35 5 -29 9 -38 30 -60 9 -9 12 -29 8 -45 -2 -7 3 -17 9 -20 3
-1 10 -3 16 -3 15 0 22 -6 22 -17 0 -11 -7 -17 -18 -16 -11 2 -30 10 -29 12 1
1 1 2 0 2 -1 -1 -6 0 -11 2 -5 1 -11 2 -15 1 -3 -1 -20 -2 -37 -2 -29 0 -31 0
-35 -4 -3 -3 -4 -5 -3 -5 0 0 1 -6 0 -14 -1 -8 0 -14 0 -14 3 0 12 -16 12 -21
0 -3 -1 -6 -3 -6 -2 -1 -2 -2 -1 -3 1 0 2 -5 3 -10 4 -24 14 -29 42 -22 21 5
23 5 28 -1 3 -5 3 -6 0 -13 -6 -15 -3 -46 4 -46 1 0 3 -3 5 -7 4 -8 3 -11 -13
-27 -14 -12 -17 -23 -17 -53 0 -23 3 -34 9 -41 5 -5 26 -16 32 -16 6 0 13 -8
13 -15 0 -7 -6 -14 -14 -16 -11 -2 -28 -11 -32 -16 -8 -12 -8 -19 -8 -87 l1
-65 -6 -6 -6 -6 -54 0 -54 0 -6 6 -6 6 1 50 c0 49 -1 63 -7 71 -1 1 -7 2 -16
2 l-15 0 0 10 0 10 15 0 c16 0 16 0 20 11 2 4 1 8 -1 14 -3 11 -6 14 -19 19
-5 2 -11 5 -13 6 -2 1 -5 1 -8 0 -2 -1 -4 -1 -4 0 0 6 -29 8 -46 3 -20 -6 -24
-6 -29 -1 -6 6 -7 16 0 22 3 3 7 4 17 4 18 1 28 4 46 17 5 3 10 6 14 5 8 0 27
7 35 12 5 4 5 5 4 21 0 9 -1 16 -1 17 0 1 -1 0 -2 -2 -2 -3 -2 -3 -2 0 0 3 -1
3 -3 3 -2 -1 -8 1 -14 4 -13 6 -35 7 -54 2 -23 -6 -32 -2 -31 13 0 7 7 16 11
16 7 0 35 11 44 18 23 16 48 11 52 -12 1 -5 4 -13 7 -19 l5 -10 15 -1 c17 0
15 -1 40 23 13 12 17 23 12 38 -3 9 -11 19 -16 19 -2 0 -2 1 1 3 4 3 4 3 -6
12 -12 11 -24 18 -33 20 -10 2 -22 10 -32 20 -5 6 -16 17 -25 25 -9 9 -15 16
-14 16 1 0 -1 2 -4 4 -6 3 -15 9 -24 17 -2 2 -7 6 -9 8 -3 2 -10 8 -16 13 -10
9 -11 9 -24 9 -7 0 -15 -1 -17 -1 -10 -2 -18 -25 -16 -43 2 -16 1 -25 -4 -36
-14 -29 -25 -32 -57 -19 -10 4 -22 9 -27 9 -9 2 -21 7 -21 9 0 1 -2 2 -4 2 -4
0 -4 1 -2 1 2 1 8 5 13 11 6 5 15 13 21 19 11 8 39 36 69 68 6 6 12 11 12 10
1 0 9 7 19 16 20 20 26 24 50 29 26 6 33 9 55 23 16 10 19 17 19 34 l-1 13
-18 18 c-39 37 -45 42 -56 44 -8 2 -29 -2 -34 -6 -2 -1 -7 -2 -12 -2 -11 0
-18 5 -20 14 -7 43 -9 47 -16 51 -10 4 -34 6 -38 2 -5 -4 -14 -4 -19 1 -5 5
-5 13 0 22 5 11 5 28 0 34 -3 3 -4 3 -5 2 -1 -2 -1 -2 -2 -1 -1 3 -7 1 -11 -3
-1 -1 -2 -2 -4 -3 -12 -7 -23 -16 -37 -30 -9 -9 -18 -16 -19 -17 -1 -1 -4 -5
-7 -9 -6 -10 -7 -27 -1 -43 4 -12 4 -16 -1 -23 -4 -6 -14 -6 -26 0 -10 6 -30
3 -36 -4 -3 -3 -4 -6 -4 -7 1 -1 0 -2 -1 -2 -1 0 -2 -4 -2 -11 0 -8 -1 -11 -5
-15 -4 -4 -6 -4 -22 -3 -31 2 -36 3 -41 8 l-4 4 5 5 c3 2 10 5 19 7 24 5 29 9
29 23 -1 11 -3 20 -6 23 -1 1 -6 6 -11 10 -5 5 -9 10 -10 11 -2 11 -8 19 -16
19 -20 1 -31 16 -20 27 6 6 11 5 25 -2 19 -10 33 -10 49 -2 7 3 15 6 18 7 16
5 35 24 49 47 8 15 9 18 8 27 -2 15 -7 23 -21 30 -13 7 -54 18 -70 18 l-15 1
-1 -15 c0 -15 2 -23 7 -23 2 0 5 -3 7 -7 l4 -8 -4 -4 c-5 -5 -6 -5 -18 -4 -22
2 -39 5 -49 10 -25 11 -36 12 -52 1 -18 -12 -21 -15 -20 -28 0 -9 2 -14 9 -26
17 -29 9 -53 -19 -53 -18 0 -25 7 -28 25 -2 14 -9 33 -16 46 -9 16 -9 18 -7
55 2 27 3 33 6 36 5 5 14 6 23 2 11 -6 12 -7 20 -8 12 -2 22 -2 25 0 3 2 3 28
0 33 -3 5 -9 8 -17 9 -6 1 -17 3 -23 4 -2 1 -4 1 -5 1 -2 1 -3 2 -2 3 0 1 -1
2 -2 2 -1 0 -3 1 -5 2 -6 2 -35 9 -38 9 -2 0 -7 -2 -12 -3z m1337 -110 c12
-12 3 -31 -13 -31 -11 0 -18 7 -18 18 0 11 7 18 18 18 6 0 9 -1 13 -5z m84
-67 c7 -6 7 -19 1 -25 -6 -7 -19 -7 -25 -1 -7 6 -7 19 -1 25 6 7 19 7 25 1z
m-533 -70 c1 0 5 -3 8 -6 5 -5 6 -7 6 -17 0 -14 -3 -21 -15 -30 -12 -10 -23
-12 -30 -6 -5 4 -5 4 -5 24 1 22 4 30 14 34 5 2 8 2 22 1z m-499 -46 c11 -10
2 -27 -19 -37 -15 -7 -24 -8 -28 -3 -2 3 -3 6 -3 8 0 2 1 7 1 12 1 12 6 18 18
19 5 1 10 2 12 3 6 3 15 2 19 -2z m-260 -2 c8 -4 11 -12 11 -28 -1 -18 -4 -27
-12 -26 -9 0 -28 3 -32 5 -15 8 -14 43 1 49 12 4 20 4 32 0z m-123 -60 c5 -6
5 -12 0 -18 -7 -8 -22 -2 -22 9 0 11 15 17 22 9z m292 -9 c14 -5 17 -33 6 -46
-2 -2 -10 -7 -18 -11 -16 -8 -26 -17 -31 -29 -2 -4 -10 -29 -18 -56 -17 -60
-15 -57 -46 -59 -18 -1 -21 -2 -29 -7 -10 -7 -19 -23 -21 -37 -4 -25 -39 -26
-60 -1 -7 7 -9 12 -13 32 -2 7 -4 15 -6 18 -5 10 -8 25 -6 30 1 2 8 14 16 26
39 58 74 119 71 122 -1 2 9 11 14 12 2 0 24 1 48 2 29 0 45 1 48 3 3 1 8 3 12
3 5 1 8 2 9 2 2 2 17 0 24 -4z m721 -15 c7 -7 8 -22 3 -28 -4 -5 -4 -5 -13 -4
-14 3 -19 9 -19 19 0 11 6 17 17 17 6 0 9 -1 12 -4z m-580 -41 c3 -3 3 -3 0
-6 -4 -5 -11 1 -7 6 4 4 4 4 7 0z m627 -11 c6 0 12 -10 12 -20 0 -12 -4 -17
-26 -33 -6 -5 -14 -13 -17 -18 -3 -5 -9 -13 -12 -18 -6 -11 -14 -15 -27 -16
-19 0 -29 9 -29 28 0 17 4 21 26 32 23 11 34 21 37 31 3 11 14 18 25 16 4 -1
9 -2 11 -2z m-713 -55 c6 -6 7 -18 1 -26 -6 -7 -20 -7 -27 0 -12 12 -3 31 13
31 6 0 9 -1 13 -5z m966 -117 c11 -10 3 -28 -11 -28 -9 0 -16 6 -16 16 0 14
17 22 27 12z m-6 -78 c31 -10 35 -42 6 -42 -14 -1 -32 5 -39 12 -12 10 -7 33
8 34 6 1 10 1 25 -4z m-1172 -127 c0 -75 1 -117 3 -123 2 -11 -2 -29 -8 -38
-4 -4 -4 -22 -1 -33 3 -11 11 -19 19 -19 2 0 4 -1 3 -2 -1 -2 13 -6 21 -6 3 0
9 0 14 1 22 1 35 -16 30 -38 -4 -14 -14 -21 -30 -20 -21 2 -38 -3 -40 -11 -2
-6 0 -23 3 -31 4 -11 4 -20 -2 -35 -8 -21 -11 -32 -11 -40 1 -6 0 -8 -5 -13
-6 -5 -8 -6 -19 -6 -11 0 -13 1 -19 6 l-6 6 1 95 c0 99 0 101 -8 120 -8 18
-10 21 -11 27 -2 8 7 36 13 40 3 2 -1 23 -5 27 -5 6 -16 11 -25 13 -22 3 -32
18 -25 40 4 14 7 17 26 26 17 8 31 20 31 27 0 2 1 4 2 5 1 1 2 18 2 46 0 38 0
45 3 49 6 9 8 9 20 10 7 0 12 1 13 1 0 0 3 -2 6 -5 l5 -5 0 -114z m332 119 c8
-6 28 -38 26 -41 -1 0 -1 -1 0 -1 3 0 1 -14 -3 -19 -4 -7 -18 -7 -24 0 -5 5
-12 23 -17 43 -4 13 -4 13 0 17 5 5 13 6 18 1z m-88 -5 l6 -6 -1 -66 c0 -63 0
-67 4 -74 2 -5 5 -9 7 -11 6 -4 27 -11 34 -10 7 0 18 -5 27 -13 15 -14 19 -36
8 -47 -5 -5 -7 -6 -16 -6 -11 0 -21 4 -23 10 -1 2 -3 5 -6 9 -5 5 -6 5 -22 5
-12 0 -17 -1 -17 -2 0 -6 -12 -28 -16 -30 -5 -3 -15 -3 -20 0 -9 5 -9 6 -10
123 l-1 112 6 6 c6 6 7 6 20 6 12 0 14 -1 20 -6z m-494 -22 c4 -4 5 -8 5 -16
0 -13 -3 -17 -21 -27 -23 -12 -28 -9 -27 22 0 11 0 21 1 22 6 9 34 8 42 -1z
m89 -122 l-5 -5 -4 4 -5 5 4 4 5 5 4 -4 5 -5 -4 -4z m618 -19 c7 -3 7 -3 8
-17 l0 -15 -15 -14 c-16 -17 -24 -22 -32 -22 -7 0 -15 7 -15 14 0 6 8 24 13
31 1 2 6 8 10 13 4 6 9 10 13 11 9 3 10 3 18 -1z m794 -75 c21 -9 20 -45 -2
-54 -10 -5 -28 -1 -34 6 -9 10 -9 32 0 42 7 8 24 11 36 6z m-441 -28 c3 -5 3
-5 0 -10 -2 -3 -5 -5 -7 -5 -2 0 -5 2 -7 5 -3 5 -3 5 0 10 2 3 5 5 7 5 2 0 5
-2 7 -5z m-1014 -21 c6 -6 6 -11 4 -32 -1 -13 -5 -22 -8 -22 -1 0 -5 3 -8 6
-4 3 -7 5 -7 5 -1 -1 -6 3 -11 8 -9 8 -10 9 -10 19 0 8 1 11 6 16 9 9 24 9 34
0z m553 -35 l-5 -5 -4 4 -5 5 4 4 5 5 4 -4 5 -5 -4 -4z m-100 -29 c0 -20 1
-27 5 -44 7 -26 7 -30 0 -56 -4 -17 -5 -24 -5 -43 l1 -22 -6 -6 c-4 -4 -9 -6
-12 -6 -10 -1 -17 -2 -17 -3 0 -1 -3 -3 -7 -5 -4 -1 -9 -6 -12 -10 -12 -17
-23 -21 -31 -13 -9 9 -7 24 4 34 4 4 11 11 15 16 13 12 15 21 15 64 0 37 -2
51 -11 63 -13 18 -15 22 -15 31 0 21 15 32 47 34 18 1 18 1 24 -5 l6 -6 -1
-23z m551 10 c8 -9 8 -20 -3 -41 -15 -30 -21 -37 -33 -37 -24 0 -48 44 -34 65
5 7 26 17 42 19 18 2 21 1 28 -6z m-977 -26 c0 -18 -25 -18 -26 0 -1 10 0 17
3 21 1 2 2 5 1 6 0 1 5 -3 11 -10 8 -8 11 -13 11 -17z m1628 20 c5 -5 5 -15 0
-20 -9 -9 -24 -2 -24 10 0 8 6 14 14 14 3 0 8 -2 10 -4z m-793 -36 c6 -8 4
-24 -3 -34 -4 -5 -8 -10 -9 -12 -8 -7 -15 -27 -16 -47 -7 -111 -27 -251 -43
-310 -1 -3 -3 -10 -4 -14 -2 -10 -10 -19 -14 -18 -1 1 -6 7 -10 14 -15 22 -44
48 -73 67 -17 12 -18 12 -31 12 -7 0 -14 -1 -15 -2 -1 -1 -7 -4 -13 -6 -10 -3
-11 -3 -15 0 -5 3 -9 10 -9 14 0 5 11 14 21 18 38 15 59 27 68 39 13 16 13 19
13 114 0 77 0 88 3 94 2 4 4 7 5 7 1 0 2 2 2 4 0 2 1 2 2 1 4 -8 31 -9 43 -3
12 7 16 11 22 26 10 24 11 25 24 32 22 12 44 14 52 4z m-515 -39 l-5 -5 -4 4
-5 5 4 4 5 5 4 -4 5 -5 -4 -4z m247 -4 c3 -2 10 -8 15 -13 5 -5 14 -13 19 -18
5 -4 9 -10 9 -12 0 -5 -6 -12 -10 -12 -4 0 -21 7 -28 12 -3 2 -8 5 -12 6 -4 1
-10 5 -14 9 -20 15 0 41 21 28z m868 -35 c7 -6 7 -19 1 -25 -6 -7 -19 -7 -25
-1 -7 6 -7 19 -1 25 6 7 19 7 25 1z m-550 -21 c5 -8 1 -16 -8 -16 -9 0 -13 8
-8 16 2 3 5 5 8 5 3 0 6 -2 8 -5z m-870 -52 c3 -5 3 -5 0 -10 -2 -3 -5 -5 -7
-5 -2 0 -5 2 -7 5 -3 5 -3 5 0 10 2 3 5 5 7 5 2 0 5 -2 7 -5z m1379 -5 c5 -6
5 -12 0 -18 -7 -8 -22 -2 -22 9 0 11 15 17 22 9z m-519 -19 c5 -8 1 -16 -8
-16 -9 0 -13 8 -8 16 2 3 5 5 8 5 3 0 6 -2 8 -5z m432 -30 c12 -7 14 -33 3
-43 -8 -9 -32 -9 -40 0 -9 8 -9 32 0 41 7 7 27 8 37 2z m-1032 -2 c3 -3 3 -3
0 -6 -4 -5 -11 1 -7 6 4 4 4 4 7 0z m-315 -29 c20 -10 15 -36 -6 -36 -9 0 -18
7 -18 14 0 2 0 6 -1 9 -1 4 0 8 3 13 4 7 8 7 22 0z m1012 -51 c3 -3 4 -7 4
-14 0 -13 -6 -19 -19 -19 -13 0 -19 6 -19 19 0 7 1 11 4 14 7 8 23 8 30 0z
m-92 -1 c5 -5 5 -15 0 -20 -9 -9 -24 -2 -24 10 0 8 6 14 14 14 3 0 8 -2 10 -4z
m441 -66 c10 -9 3 -26 -10 -26 -8 0 -15 7 -15 15 0 13 16 20 25 11z m68 -68
c11 -10 3 -28 -11 -28 -9 0 -16 6 -16 16 0 14 17 22 27 12z m-114 -43 c4 -4 5
-7 5 -15 0 -14 -6 -20 -20 -20 -14 0 -20 6 -20 20 0 14 6 20 20 20 8 0 11 -1
15 -5z m-464 -84 c5 -6 4 -18 -2 -24 -6 -7 -20 -7 -26 -1 -6 6 -7 19 -2 26 6
9 24 8 30 -1z m-56 -62 c8 -12 1 -27 -13 -27 -14 0 -22 17 -12 27 7 7 20 7 25
0z"/>
<path d="M527 2451 c-10 -4 -21 -15 -22 -25 -1 -4 -2 -9 -2 -11 0 -2 4 -16 10
-31 14 -37 27 -76 30 -89 10 -48 27 -61 61 -48 17 6 34 5 41 -3 6 -8 3 -30 -7
-43 -5 -6 -17 -11 -29 -12 -6 -1 -13 -2 -15 -3 -1 -1 -6 -3 -10 -5 -15 -7 -16
-14 -15 -66 0 -53 1 -55 18 -72 19 -19 35 -24 50 -17 7 4 17 17 21 28 12 31
42 39 57 15 2 -3 6 -7 9 -8 8 -4 29 -4 32 0 2 2 4 4 6 6 5 6 20 39 24 54 4 17
4 19 -4 44 -7 21 -7 18 -5 48 l1 22 -10 20 c-12 24 -16 31 -25 42 -3 5 -7 11
-9 13 -17 25 -67 72 -88 83 -12 7 -28 18 -40 27 -28 24 -61 37 -79 31z"/>
<path d="M397 2387 c-2 -1 -8 -5 -12 -10 -4 -5 -12 -10 -16 -13 -23 -11 -30
-27 -27 -59 2 -18 3 -35 5 -64 1 -24 19 -42 47 -48 11 -2 32 -9 38 -12 8 -4
10 -9 10 -21 0 -18 -8 -22 -41 -21 -37 1 -54 -11 -59 -43 -5 -32 -4 -61 5 -94
7 -24 13 -31 37 -42 11 -6 14 -6 24 -5 6 0 11 2 12 3 0 1 2 3 3 5 5 5 9 15 11
27 2 16 6 20 20 20 8 0 11 -1 21 -8 10 -8 12 -8 24 -8 17 1 21 4 36 35 14 29
19 47 20 80 2 48 -5 89 -24 130 -16 37 -26 52 -38 58 -17 8 -36 0 -41 -18 -4
-17 -16 -25 -24 -17 -7 7 -4 15 14 38 3 4 4 51 0 63 -2 8 -5 13 -10 19 -8 8
-9 8 -20 8 -6 0 -13 -1 -15 -3z"/>
<path d="M255 2300 l-4 -5 -11 5 c-10 5 -16 5 -34 1 -14 -3 -25 -29 -20 -49 1
-4 3 -8 4 -8 1 0 2 -1 1 -2 -1 -1 1 -3 4 -5 10 -4 22 -2 43 9 17 8 19 10 21
16 1 4 2 7 3 8 4 2 12 21 12 26 0 10 -13 13 -19 4z"/>
<path d="M179 2209 c-14 -1 -15 -1 -15 -7 -1 -8 4 -24 8 -25 2 -1 4 -2 3 -3
-2 -3 21 -2 25 1 7 7 7 16 -1 25 -4 4 -6 8 -6 9 1 0 1 1 1 1 -1 -1 -7 -1 -15
-1z"/>
<path d="M221 2171 c-3 -13 0 -21 9 -24 10 -5 17 -7 18 -7 0 0 12 -12 12 -13
0 0 3 -6 7 -13 7 -13 7 -15 -5 -23 -9 -6 -23 -7 -30 -3 -3 2 -9 11 -14 21 -5
10 -11 19 -14 22 -9 6 -24 6 -39 1 -9 -3 -16 -5 -25 -4 -22 0 -38 -9 -39 -24
-2 -20 -8 -29 -23 -31 -28 -4 -43 -17 -48 -41 -3 -17 -2 -51 4 -68 4 -13 16
-37 22 -43 2 -2 5 -6 7 -10 11 -13 40 -32 56 -36 43 -10 56 0 74 56 3 10 6 19
6 20 0 1 1 6 2 10 5 23 21 30 39 17 12 -9 34 -11 42 -4 9 8 29 66 27 77 -1 9
-3 24 -3 24 0 0 -1 4 -4 8 l-4 8 6 6 c3 3 6 7 6 8 0 2 2 7 4 11 2 4 3 8 3 8
-1 0 -1 1 0 2 5 5 -1 21 -9 28 -7 5 -24 10 -30 9 -4 -1 -6 0 -8 3 -5 6 -19 11
-34 12 l-14 0 -1 -7z"/>
</g>
</svg>
