<?xml version="1.0" standalone="no"?>
<!DOCTYPE svg PUBLIC "-//W3C//DTD SVG 20010904//EN"
 "http://www.w3.org/TR/2001/REC-SVG-20010904/DTD/svg10.dtd">
<svg version="1.0" xmlns="http://www.w3.org/2000/svg"
 width="1110.000000pt" height="2870.000000pt" viewBox="0 0 1110.000000 2870.000000"
 preserveAspectRatio="xMidYMid meet">
<metadata>
Created by potrace 1.15, written by Peter Selinger 2001-2017
</metadata>
<g transform="translate(0.000000,2870.000000) scale(0.500000,-0.500000)"
fill="#000000" stroke="none">
<path d="M771 3836 c-40 -4 -53 -26 -41 -69 5 -19 7 -23 18 -35 32 -35 64 -87
80 -127 5 -14 11 -20 22 -23 9 -2 29 -1 30 2 1 4 12 2 16 -2 5 -6 5 -12 0 -18
-6 -7 -22 -6 -41 1 -11 4 -18 5 -30 5 -21 0 -25 -1 -40 -15 -7 -7 -14 -11 -16
-11 -6 0 -11 7 -11 15 1 15 -12 41 -20 41 -1 0 -2 1 -2 2 -1 2 -76 26 -142 46
-3 1 -8 2 -10 1 -7 -1 -16 3 -17 8 -1 3 1 11 5 21 7 17 7 25 3 35 -4 11 -9 15
-19 19 -10 5 -9 5 -55 9 -37 3 -40 4 -90 9 -36 3 -41 3 -52 -4 -6 -5 -14 -21
-16 -32 -2 -11 -8 -16 -18 -16 -11 0 -18 7 -17 16 1 13 -6 34 -14 41 -7 6 -24
9 -46 10 -25 0 -37 -7 -44 -27 -1 -4 -2 -30 -2 -82 0 -83 0 -81 14 -109 8 -17
8 -29 -1 -47 -14 -28 -13 -18 -12 -177 0 -79 1 -146 1 -148 10 -29 10 -34 1
-68 -1 -2 -2 -45 -2 -95 l-1 -91 -5 -11 c-3 -7 -6 -12 -7 -12 0 0 -6 -4 -12
-10 -8 -7 -12 -14 -19 -29 -6 -13 -12 -22 -18 -29 l-10 -9 1 -16 0 -15 28 -13
c21 -11 29 -14 35 -14 10 1 25 8 25 13 0 2 1 4 2 5 1 1 3 7 5 12 5 12 8 16 16
19 15 5 19 4 27 -3 7 -7 7 -7 7 -21 0 -13 -1 -16 -5 -23 -7 -10 -8 -32 -2 -39
2 -3 20 -13 40 -23 46 -22 46 -23 46 -59 0 -19 1 -26 4 -35 3 -6 5 -11 6 -11
1 0 2 -1 2 -2 0 -1 3 -6 7 -10 6 -8 6 -10 6 -23 0 -13 0 -15 -6 -23 -4 -4 -7
-8 -7 -9 0 -1 -1 -2 -3 -4 -1 -1 -4 -7 -6 -14 -3 -10 -3 -12 -1 -19 3 -9 8
-21 13 -26 12 -16 12 -28 -2 -49 -4 -6 -6 -10 -11 -22 -3 -7 -3 -18 0 -20 1
-1 2 -3 2 -5 0 -5 11 -17 22 -22 16 -8 22 -14 28 -27 9 -21 14 -38 13 -48 -2
-9 -10 -19 -17 -19 -25 -2 -41 -12 -48 -30 -6 -15 5 -92 17 -119 10 -23 15
-31 25 -45 44 -59 113 -84 249 -91 14 -1 27 -2 30 -2 6 0 21 5 28 9 7 5 21 25
21 30 0 8 8 34 12 38 11 11 20 -1 23 -30 2 -17 12 -32 28 -42 8 -5 8 -5 68 -5
58 0 61 0 66 4 7 5 15 17 14 19 -1 1 -1 2 0 2 1 0 2 3 2 7 0 6 -2 9 -9 17 -13
14 -23 15 -44 5 -32 -16 -53 -7 -53 21 1 19 6 24 36 29 10 1 23 5 30 7 17 6
30 5 37 -2 3 -3 6 -8 6 -10 1 -5 0 -4 4 -18 1 -6 6 -17 9 -25 4 -8 7 -16 7
-16 0 -1 0 -5 2 -8 1 -3 3 -8 3 -10 1 -5 7 -13 14 -18 5 -4 8 -4 123 -5 134 0
128 -1 164 18 6 3 18 8 27 10 20 5 29 4 44 -7 10 -8 12 -9 26 -15 6 -2 26 -3
47 -1 6 0 22 1 35 2 61 3 120 9 129 14 15 8 29 28 33 45 3 14 10 33 13 36 4 4
12 4 15 -1 2 -2 3 -11 4 -19 3 -28 13 -40 33 -40 13 0 18 4 30 27 13 24 19 27
48 21 23 -4 38 1 50 18 4 5 8 10 9 11 5 5 15 29 19 45 5 18 7 63 2 78 -13 49
-49 84 -107 104 -17 6 -25 31 -22 69 2 29 2 59 -1 65 -3 6 -11 10 -19 11 -3 1
-9 1 -12 2 -3 0 -7 0 -9 -2 -3 -2 -16 -7 -24 -8 -2 -1 -5 1 -8 4 -5 5 -5 9 -4
38 0 6 -1 15 -3 21 -3 11 -5 14 -45 53 -24 22 -47 45 -52 49 -6 6 -9 11 -9 14
l0 5 26 1 c14 0 27 0 29 0 7 0 50 6 57 8 4 1 10 3 13 3 9 2 51 16 64 21 78 35
103 64 99 115 -1 10 -1 28 -1 40 1 35 1 37 -3 42 -6 10 -17 14 -41 16 -4 1
-13 1 -21 2 -20 2 -30 -1 -41 -13 -5 -5 -11 -14 -13 -18 -2 -5 -5 -12 -6 -15
-1 -3 -3 -9 -4 -12 -3 -15 -24 -23 -41 -16 -12 5 -18 21 -14 36 3 9 6 14 17
22 6 5 19 22 20 27 0 2 2 6 4 10 2 5 3 9 3 10 0 5 11 10 22 10 11 0 14 -1 24
-7 14 -9 26 -11 46 -10 29 2 39 6 46 18 4 6 4 10 4 120 -1 111 -1 114 -5 122
-5 10 -16 17 -34 24 -23 9 -24 16 -12 80 3 18 4 19 20 28 16 8 24 16 28 29 3
9 3 25 3 146 0 121 0 137 3 144 4 10 3 26 -2 37 -4 8 -9 9 -36 9 -21 -1 -29 2
-33 12 -4 10 -3 25 2 33 4 6 5 10 4 19 0 25 -7 30 -47 30 -22 0 -24 0 -31 -4
-3 -2 -6 -3 -6 -2 -1 0 -1 -2 0 -5 1 -3 1 -5 0 -4 -1 1 -2 -4 -2 -10 -1 -10
-1 -11 5 -13 10 -3 25 -37 22 -49 -3 -14 -17 -35 -27 -41 -11 -7 -25 -6 -32 2
-9 8 -9 19 -1 44 4 11 8 24 10 30 2 9 5 13 10 16 3 2 5 4 3 4 -2 0 -2 3 -2 14
1 7 1 15 0 17 -1 2 -2 3 -2 2 0 0 -2 0 -4 1 -5 3 -11 4 -23 5 -5 1 -17 2 -25
3 -23 2 -36 -2 -40 -13 -3 -7 -4 -23 -2 -26 8 -10 1 -38 -10 -40 -7 -1 -23
-11 -30 -18 -9 -9 -12 -20 -12 -43 l1 -18 7 -8 c5 -5 10 -8 15 -9 5 -1 10 -2
12 -3 3 -1 5 -1 5 0 1 1 3 2 6 2 19 2 26 -4 26 -21 0 -17 -7 -23 -26 -21 -3 0
-5 1 -6 2 0 1 -2 1 -5 0 -2 -1 -7 -2 -12 -3 -5 -1 -10 -4 -15 -9 l-8 -8 0 -39
c0 -39 -1 -46 -8 -54 -3 -4 -4 -4 -5 -2 -1 3 -23 20 -40 29 -26 16 -71 32
-103 37 -11 2 -13 3 -18 9 -3 5 -4 7 -2 9 2 1 4 5 6 7 2 2 7 9 12 15 4 7 8 12
8 13 0 1 2 3 4 5 2 3 11 16 21 30 10 14 20 28 24 30 3 2 13 5 23 7 10 2 22 6
28 9 9 5 36 29 36 33 0 1 2 3 4 5 5 5 5 8 3 21 -1 8 -3 11 -9 16 -4 3 -8 6
-10 6 -2 0 -4 1 -5 2 -1 1 -7 3 -13 5 -12 3 -15 5 -32 18 -22 16 -30 20 -50
20 -4 0 -7 1 -7 1 1 1 -1 2 -4 3 -2 0 -6 3 -7 6 -5 9 -6 10 -29 21 -25 12 -31
13 -81 9 -32 -2 -37 -3 -52 -10 -18 -9 -23 -15 -39 -47 -7 -15 -18 -36 -24
-47 -10 -18 -11 -23 -12 -34 l-1 -14 6 -4 c6 -3 14 -5 33 -5 5 0 9 -2 13 -6 6
-6 6 -7 5 -20 -3 -36 -3 -47 0 -58 4 -18 1 -37 -8 -43 -11 -7 -33 -2 -38 9 -2
3 -5 11 -9 18 -9 22 -22 36 -32 36 -4 1 -8 1 -10 2 -2 1 -4 1 -5 1 -1 -1 -2
-2 -4 -2 -6 -1 -14 -8 -21 -19 -12 -19 -17 -25 -21 -28 -1 -1 -3 -3 -2 -4 1
-1 0 -2 -1 -2 -1 0 -2 -1 -2 -1 2 -4 -9 -19 -15 -22 -15 -7 -34 -2 -33 9 1 4
3 6 12 10 6 3 12 6 14 7 4 1 4 3 4 18 l0 17 -10 9 -11 9 0 15 c0 14 0 16 6 20
4 4 7 5 18 5 13 0 13 0 22 -9 l9 -10 15 0 c10 -1 17 0 19 2 6 4 15 32 13 41
-3 15 -18 27 -38 29 -11 2 -19 10 -19 19 -1 14 0 16 10 25 12 13 14 17 14 30
0 12 0 13 -8 20 -16 15 -27 23 -46 32 -10 5 -20 10 -21 11 -4 3 -32 3 -30 0 1
-1 0 -2 -1 -2 -2 0 -2 -1 0 -1 1 -1 1 -2 1 -3 -1 -1 -2 -8 -2 -14 -1 -11 0
-13 3 -13 2 -1 4 -2 4 -3 0 -1 1 -2 2 -2 1 0 7 -2 13 -5 12 -6 16 -12 16 -27
-1 -22 -16 -31 -40 -25 -15 4 -30 3 -45 -4 -17 -7 -28 -7 -35 0 -5 5 -7 21 -3
29 4 7 21 13 28 9 1 -1 3 0 5 1 1 1 3 2 3 1 1 -1 2 5 2 12 0 15 -4 25 -11 29
-2 1 -8 8 -13 16 -6 9 -12 16 -19 20 l-10 7 -30 0 c-16 0 -36 0 -44 -1z m580
-97 c4 -3 4 -5 0 -8 -3 -3 -3 -3 -6 0 -3 3 -3 4 -1 5 1 0 2 2 2 3 0 4 2 4 5 0z
m-996 -116 c6 -4 6 -6 6 -20 0 -14 0 -16 -6 -20 -4 -4 -7 -5 -18 -5 -11 0 -14
1 -18 5 -6 4 -6 6 -6 20 0 14 0 16 6 20 4 4 7 5 18 5 11 0 14 -1 18 -5z m181
-17 c0 -25 4 -32 24 -45 41 -27 97 -64 100 -66 1 -2 3 -3 4 -3 3 0 10 -7 11
-12 1 -4 1 -4 -8 -4 -6 0 -16 1 -24 3 -26 5 -62 9 -96 10 -31 1 -34 1 -38 5
l-5 5 0 52 1 52 6 8 c3 4 5 7 5 6 0 0 2 0 4 1 1 1 6 2 10 2 l6 -1 0 -13z
m-131 -105 c6 -4 10 -18 12 -34 1 -10 1 -13 -3 -16 -5 -6 -13 -6 -18 -1 -7 8
-8 42 -1 50 4 5 5 5 10 1z m415 -20 c3 -3 4 -7 4 -14 0 -10 -3 -15 -18 -27 -7
-6 -12 -12 -15 -19 -7 -15 -12 -17 -27 -9 -6 3 -15 9 -19 14 -5 4 -13 13 -18
18 -10 10 -12 14 -11 19 0 5 29 17 41 18 7 1 20 2 30 4 22 3 27 2 33 -4z m895
-27 c16 -7 16 -43 -1 -50 -15 -6 -34 -2 -39 9 -4 8 -4 24 0 32 5 12 23 15 40
9z m-473 -1 c8 -4 12 -10 16 -27 6 -23 10 -33 22 -56 20 -38 29 -68 22 -74 -2
-3 -5 -1 -25 17 -9 8 -21 18 -26 23 -6 4 -11 8 -13 10 -1 1 -7 6 -13 10 -14
11 -20 23 -22 44 0 4 -2 11 -3 17 -2 10 0 23 6 30 7 8 24 11 36 6z m-736 -57
c2 -2 8 -12 12 -22 5 -11 11 -23 15 -28 3 -5 10 -16 15 -25 7 -14 9 -17 17
-20 l8 -4 0 -22 c0 -12 1 -23 1 -24 1 -2 2 -6 3 -10 5 -35 17 -54 39 -63 12
-6 42 -13 58 -15 7 -1 14 -2 16 -3 2 -1 4 -1 4 -1 1 1 2 0 2 -3 1 -3 -6 -10
-47 -43 -11 -9 -21 -17 -22 -18 -5 -4 -42 -31 -60 -44 -10 -7 -19 -14 -20 -15
-1 0 -9 -5 -17 -11 -7 -5 -14 -10 -14 -11 0 -1 -2 1 -5 4 l-6 7 -1 159 c-1
147 -2 165 -6 171 -4 6 -14 27 -14 31 0 12 14 18 22 10z m1138 -21 c7 -4 8 -8
8 -22 0 -14 -7 -21 -23 -21 -10 0 -12 1 -17 6 -9 8 -9 26 0 34 7 7 22 8 32 3z
m-818 -6 c33 -27 35 -30 37 -39 1 -9 -2 -16 -14 -29 -3 -3 -9 -10 -13 -14 -13
-15 -16 -11 -17 25 0 19 -2 31 -4 39 -5 15 -4 21 2 21 3 0 7 -2 9 -3z m565
-57 c-4 -5 -7 -5 -11 -1 -4 4 -4 4 0 8 l5 5 4 -4 c5 -4 5 -5 2 -8z m-775 2
c11 -11 -5 -25 -17 -17 -3 2 -6 3 -8 3 -4 0 -4 0 0 2 1 1 3 4 3 6 0 2 1 4 3 4
2 0 4 1 4 3 2 3 11 3 15 -1z m-285 -36 c4 -6 4 -24 -1 -30 -7 -9 -27 -9 -34 0
-5 6 -5 24 0 30 7 9 27 9 35 0z m1062 -19 c5 -5 7 -23 3 -26 -3 -2 -1 -24 2
-32 5 -10 19 -14 38 -11 14 3 42 15 49 21 4 4 4 4 9 -3 l6 -7 0 -133 0 -134 5
-11 c5 -11 10 -15 29 -29 18 -14 17 -45 -2 -53 -16 -6 -31 -1 -42 14 -4 6 -9
13 -12 15 -8 6 -26 9 -38 6 -9 -2 -11 -2 -31 5 -22 7 -40 10 -44 6 -2 -1 -3
-1 -3 0 0 1 -2 0 -3 -1 -3 -2 -3 -2 -2 0 1 1 -1 2 -6 2 -5 0 -7 -1 -6 -2 1 -2
1 -2 -2 0 -1 1 -3 2 -3 1 0 -1 -1 -1 -3 1 -1 1 -31 2 -90 2 -89 0 -98 1 -104
7 -4 4 -4 4 2 11 12 12 31 56 34 77 0 3 10 9 11 6 1 -1 5 -9 10 -17 l9 -14 15
0 c18 1 21 4 28 17 5 10 6 11 15 14 7 3 22 2 27 -1 7 -4 11 -12 10 -24 -1 -32
-1 -36 6 -43 9 -9 24 -8 42 1 14 8 43 35 48 45 2 3 3 6 4 7 2 2 12 25 15 36 4
14 4 62 1 81 -3 17 -10 36 -16 48 -6 10 -18 23 -22 23 -3 0 -12 16 -12 20 0
10 -7 35 -12 45 -8 16 -8 19 2 28 10 9 25 10 33 2z m-143 -18 l-5 -5 -4 4 -5
5 4 4 5 5 4 -4 5 -5 -4 -4z m-445 -20 c3 -10 3 -11 0 -14 -1 -2 -3 -5 -3 -6 0
-2 -1 -3 -2 -3 -4 0 -11 -8 -13 -14 -2 -5 -2 -13 0 -23 3 -16 -2 -27 -12 -29
-10 -2 -18 1 -22 8 -2 3 -7 9 -10 13 -6 7 -6 8 -5 13 1 3 3 6 4 6 1 0 6 4 12
10 6 5 13 10 15 11 1 1 3 2 3 3 0 1 1 2 2 1 2 -1 7 5 7 9 0 2 0 4 1 5 0 1 1 4
1 6 1 5 11 15 15 15 2 0 5 -4 7 -11z m300 7 c11 -10 3 -28 -11 -28 -9 0 -16 6
-16 16 0 14 17 22 27 12z m-84 -39 c2 -1 10 -8 17 -16 7 -7 15 -16 17 -18 16
-16 14 -21 -8 -33 -28 -14 -43 -12 -54 7 -2 4 -5 8 -5 9 -1 0 -2 1 -2 2 0 1
-2 5 -5 9 -7 9 -6 23 1 29 21 15 29 17 39 11z m263 -30 c15 -7 20 -35 8 -48
-5 -6 -16 -20 -16 -21 0 -1 -1 -6 -3 -12 -2 -6 -3 -15 -3 -21 0 -8 -1 -12 -4
-16 -5 -5 -17 -10 -20 -8 -1 0 -10 1 -21 2 -17 1 -21 1 -27 -2 -3 -2 -6 -4 -6
-5 0 -1 -3 -4 -6 -8 -3 -4 -6 -8 -6 -9 0 -2 -1 -3 -2 -2 -1 1 -2 0 -2 0 0 -2
-10 -2 -17 0 -17 4 -21 4 -23 3 -4 -2 -18 -1 -24 1 -15 7 -20 31 -9 48 4 6 23
15 30 15 4 0 16 -3 28 -7 29 -10 37 -10 55 0 21 11 25 20 25 48 0 30 3 36 17
42 6 3 19 2 26 0z m-432 -36 c4 -4 5 -7 5 -20 1 -19 8 -34 19 -42 19 -13 22
-25 15 -49 -4 -13 -4 -29 -2 -78 l2 -33 -6 -5 -6 -6 -49 0 c-66 0 -69 -1 -68
-24 0 -14 0 -14 -5 -15 -5 0 -5 0 1 -1 10 0 15 -6 16 -20 0 -13 -2 -21 -8 -24
-3 -1 -4 -2 -2 -2 1 0 2 -4 2 -13 -1 -9 0 -14 2 -16 8 -9 1 -9 279 -9 172 0
263 -1 264 -2 1 -1 2 -2 3 -1 1 1 2 0 2 -2 0 -1 2 -4 4 -5 2 -2 2 -2 0 -2 -2
0 -11 -4 -21 -9 -17 -8 -39 -19 -60 -28 -28 -13 -35 -16 -50 -22 -9 -4 -21 -9
-27 -12 -6 -2 -16 -7 -22 -9 -14 -5 -18 -11 -19 -25 -1 -8 0 -12 3 -18 3 -5 6
-9 6 -9 3 0 2 -10 -2 -14 -6 -6 -18 -3 -19 5 -1 3 -1 11 -1 16 0 10 -18 19
-34 16 -9 -1 -10 -2 -25 -16 -12 -12 -22 -16 -38 -14 -15 2 -37 -4 -62 -15 -2
-1 -7 -3 -11 -4 -4 -1 -22 -8 -41 -14 -54 -19 -127 -43 -192 -63 -52 -16 -67
-12 -67 14 0 9 6 23 12 27 3 2 11 14 14 21 1 4 2 12 1 30 -2 29 -1 31 22 42
23 11 31 20 43 49 11 28 -3 51 -32 52 l-11 1 11 0 c6 1 10 2 9 3 -1 1 0 3 2 3
1 1 2 3 2 4 -1 2 0 3 5 3 12 0 17 7 16 22 0 8 1 13 3 14 1 2 1 2 -1 2 -2 0 -5
1 -6 3 -4 4 -17 13 -22 14 -2 1 -7 2 -12 3 -5 1 -10 2 -12 2 -16 -2 -26 5 -26
17 0 7 -8 30 -13 35 -2 2 -7 5 -12 7 -11 4 -22 2 -31 -8 -6 -6 -14 -26 -14
-35 0 -15 -20 -21 -36 -13 -4 2 -6 3 -6 2 0 -1 -2 0 -4 1 -4 2 -4 10 -1 14 2
2 2 5 0 13 -3 13 -13 25 -21 26 -2 0 -4 1 -4 2 0 2 -3 5 -6 7 l-5 5 4 8 c8 14
9 16 9 14 0 -5 18 -3 32 2 23 9 34 21 44 52 2 4 5 9 8 11 7 6 25 5 37 0 5 -3
15 -5 22 -6 15 -1 21 2 88 39 31 18 38 21 43 25 3 2 6 4 7 4 1 0 6 3 10 7 10
11 14 26 15 58 0 11 22 17 30 8z m-521 -11 c4 -6 4 -24 -1 -30 -7 -9 -27 -9
-34 0 -5 6 -5 24 0 30 7 9 27 9 35 0z m74 -67 c5 -8 1 -16 -8 -16 -9 0 -13 8
-8 16 2 3 5 5 8 5 3 0 6 -2 8 -5z m660 -89 c4 -6 4 -24 -1 -30 -7 -9 -27 -9
-34 0 -5 6 -5 24 0 30 7 9 27 9 35 0z m-773 -84 c8 -9 3 -20 -9 -23 -6 -1 -13
7 -13 14 0 12 15 17 22 9z m1077 -27 c6 -4 6 -6 6 -20 0 -11 -1 -16 -3 -18 -2
-1 -3 -5 -2 -14 0 -13 0 -13 -6 -17 -5 -3 -9 -4 -16 -3 -17 2 -18 2 -16 21 1
8 0 12 -2 13 -2 2 -3 7 -3 18 0 14 0 16 6 20 4 4 7 5 18 5 11 0 14 -1 18 -5z
m-183 -9 c5 -5 5 -15 0 -20 -9 -9 -24 -2 -24 10 0 8 6 14 14 14 3 0 8 -2 10
-4z m-676 -11 l5 -3 -7 -3 c-6 -3 -6 -3 -9 0 -3 3 -3 3 0 6 5 3 5 3 11 0z
m990 -79 c-1 -19 6 -31 25 -40 7 -3 14 -8 17 -11 l5 -5 -8 -7 c-4 -4 -10 -7
-13 -7 -3 0 -4 -1 -3 -2 3 -1 5 -26 2 -24 -1 0 -1 -1 1 -3 2 -2 2 -3 1 -2 -2
1 -3 0 -3 -1 0 -3 -11 -1 -17 3 -3 2 -5 3 -5 2 0 -1 -2 0 -5 2 -3 2 -6 3 -6 3
-1 -1 -12 10 -27 24 -64 63 -78 76 -80 76 -2 0 1 3 5 6 l7 6 45 0 c25 0 46 0
46 1 1 0 4 -2 8 -6 5 -5 6 -7 5 -15z m-982 9 c-4 -1 -7 -16 -5 -25 1 -3 2 -11
2 -19 0 -12 0 -14 -6 -18 -4 -4 -7 -5 -19 -5 l-13 0 -11 12 c-8 8 -12 15 -15
22 -4 14 -1 18 21 24 9 3 18 6 20 7 2 2 8 3 16 3 7 0 11 -1 10 -1z m733 -118
c5 -8 1 -16 -8 -16 -9 0 -13 8 -8 16 2 3 5 5 8 5 3 0 6 -2 8 -5z m288 -142 c5
-5 5 -6 4 -15 -6 -43 1 -54 35 -54 19 0 26 -2 26 -8 0 -3 -26 -49 -30 -52 0
-1 -4 -5 -8 -11 -10 -15 -13 -18 -31 -36 -35 -35 -42 -52 -34 -85 6 -24 1 -30
-27 -30 -37 0 -41 4 -40 34 2 31 -3 41 -21 50 -7 4 -12 4 -90 3 -61 -1 -83 -2
-88 -4 -8 -4 -19 -16 -17 -19 1 -1 0 -3 -2 -6 -1 -3 -3 -11 -4 -19 -2 -19 -7
-23 -25 -23 -18 0 -23 4 -25 23 -1 8 -3 16 -4 19 -2 3 -3 5 -2 6 2 3 -9 15
-17 19 -9 4 -49 4 -58 0 -16 -6 -21 -15 -20 -35 3 -29 2 -33 -12 -51 -8 -12
-16 -16 -29 -16 -19 0 -27 8 -27 27 0 8 2 13 5 18 3 5 4 10 4 20 0 22 -7 27
-54 37 -11 2 -37 3 -126 3 -110 0 -121 0 -128 -4 -2 -1 -4 -1 -5 0 -1 0 -1 0
-1 -1 0 -1 0 -4 -1 -7 -4 -10 -6 -22 -3 -27 2 -4 2 -6 -1 -10 -7 -10 -19 -4
-20 11 -1 14 -8 19 -30 27 -15 5 -19 10 -19 22 0 10 5 19 12 19 6 0 27 12 33
18 2 3 6 10 7 15 2 4 5 11 8 14 5 6 6 6 19 6 18 0 104 3 122 4 8 0 26 1 41 2
57 3 65 4 71 14 5 7 6 28 2 34 -5 7 -5 24 0 32 3 8 12 12 24 12 12 0 21 -4 24
-12 4 -7 5 -24 2 -30 -3 -4 0 -24 4 -30 6 -9 15 -11 36 -10 48 3 187 16 221
20 4 0 16 2 28 3 43 4 152 19 172 23 2 0 10 1 16 2 22 2 35 9 41 20 5 9 11 25
11 30 0 12 22 18 31 8z m-944 -76 c12 -7 14 -33 3 -43 -8 -9 -32 -9 -40 0 -9
8 -9 32 0 41 7 7 27 8 37 2z m303 -183 c5 -5 5 -11 0 -16 -10 -10 -27 5 -16
16 4 4 12 4 16 0z m-68 -72 c5 -5 6 -7 6 -17 0 -16 -7 -23 -23 -23 -16 0 -23
7 -23 23 0 16 7 23 23 23 10 0 12 -1 17 -6z m-346 -26 c5 -6 5 -12 0 -18 -7
-8 -22 -2 -22 9 0 11 15 17 22 9z m1269 -1 c5 -8 1 -16 -8 -16 -9 0 -13 8 -8
16 2 3 5 5 8 5 3 0 6 -2 8 -5z m-95 -1 c6 -6 5 -13 -2 -17 -6 -3 -6 -3 -12 0
-4 3 -6 5 -6 8 0 11 13 16 20 9z"/>
<path d="M1804 3747 c-7 -4 -9 -8 -8 -21 0 -11 0 -14 -2 -14 -2 0 -2 -1 0 -2
2 -1 10 -2 18 -2 21 0 22 0 20 3 -1 2 -2 9 -2 16 1 10 0 14 -2 16 -4 4 -19 6
-24 4z"/>
</g>
</svg>
