<?xml version="1.0" standalone="no"?>
<!DOCTYPE svg PUBLIC "-//W3C//DTD SVG 20010904//EN"
 "http://www.w3.org/TR/2001/REC-SVG-20010904/DTD/svg10.dtd">
<svg version="1.0" xmlns="http://www.w3.org/2000/svg"
 width="1107.000000pt" height="2870.000000pt" viewBox="0 0 1107.000000 2870.000000"
 preserveAspectRatio="xMidYMid meet">
<metadata>
Created by potrace 1.15, written by Peter Selinger 2001-2017
</metadata>
<g transform="translate(0.000000,2870.000000) scale(0.500000,-0.500000)"
fill="#000000" stroke="none">
<path d="M208 3848 c-12 -4 -25 -13 -23 -16 1 -1 0 -2 -1 -2 -4 0 -6 -17 -6
-55 0 -42 1 -50 9 -59 4 -5 27 -16 32 -16 17 0 36 -33 25 -44 -4 -4 -18 -4
-23 0 -5 4 -26 2 -32 -3 -7 -5 -11 -17 -11 -31 1 -10 0 -11 -5 -17 l-6 -6 -40
1 c-25 0 -43 -1 -47 -2 -18 -5 -31 -27 -25 -41 3 -8 14 -21 22 -26 7 -5 14
-12 14 -15 0 -1 2 -4 4 -8 3 -4 5 -9 6 -11 2 -7 14 -17 23 -19 4 -1 16 -2 25
-2 l18 1 7 -7 7 -7 0 -27 c-1 -15 -1 -58 -2 -95 -1 -64 -1 -69 3 -89 4 -20 4
-34 0 -45 -3 -7 2 -23 8 -30 4 -4 8 -7 9 -7 2 0 3 -1 3 -2 0 -1 1 -2 2 -2 0 1
5 0 9 -1 14 -2 28 6 39 24 13 21 20 22 40 2 5 -5 9 -9 10 -9 4 0 5 0 7 -2 5
-4 31 -2 31 2 0 2 3 0 6 -4 5 -6 6 -8 6 -20 0 -8 1 -14 2 -15 1 -1 2 -2 1 -3
-1 -2 11 -16 13 -16 7 0 21 -3 22 -5 1 -1 2 -1 2 2 0 2 2 3 7 3 8 0 15 -6 15
-12 0 -3 1 -7 1 -9 0 -2 1 -12 2 -21 2 -23 9 -39 26 -56 12 -11 13 -13 13 -21
0 -11 -6 -17 -17 -17 -9 0 -14 4 -20 15 -6 11 -20 26 -30 31 -9 4 -17 13 -17
18 0 2 -2 9 -5 17 -5 15 -13 25 -22 26 -19 2 -31 5 -54 12 -14 5 -18 5 -34 4
-9 -1 -18 -2 -19 -2 -1 -1 -6 -1 -11 -1 -11 0 -14 2 -26 20 -10 15 -17 20 -31
24 -5 1 -14 4 -21 6 -8 3 -14 4 -22 3 -21 -2 -29 -10 -38 -37 l-5 -16 0 -64
c0 -35 1 -64 2 -64 1 0 1 -5 1 -12 0 -7 0 -12 -1 -12 -1 0 -2 -25 -1 -56 0
-65 0 -65 17 -81 22 -22 22 -32 0 -54 -18 -17 -17 -9 -17 -137 l-1 -114 8 -2
c4 -1 12 -2 19 -2 8 1 11 0 12 -2 0 -2 1 -2 1 1 0 6 6 13 10 13 5 0 13 -7 18
-17 9 -18 26 -25 47 -20 20 5 27 12 28 30 1 10 0 15 -2 19 -2 3 -3 10 -3 16 0
27 27 30 58 7 9 -7 9 -7 25 -6 16 1 33 4 33 7 0 1 3 -1 7 -5 l6 -6 -1 -37 c0
-31 0 -39 4 -54 9 -41 3 -52 -29 -47 -26 4 -35 2 -50 -12 -2 -2 -7 -6 -11 -8
-7 -3 -7 -3 -14 1 -4 1 -9 5 -11 7 -18 16 -15 16 -98 17 -79 0 -84 0 -96 -9
-6 -5 -11 -15 -11 -27 -1 -6 13 -52 17 -60 2 -4 6 -10 10 -14 6 -6 8 -7 20 -8
l13 0 12 12 c16 16 21 20 29 20 7 0 9 -2 27 -21 15 -17 10 -16 108 -17 65 -1
88 -2 91 -4 12 -6 13 -22 2 -44 -12 -24 -14 -30 -13 -55 1 -20 2 -23 9 -38 12
-25 12 -29 -2 -57 -6 -13 -6 -14 -7 -48 0 -31 0 -35 4 -43 6 -12 19 -20 39
-22 12 -2 17 -8 17 -20 0 -12 -5 -18 -16 -20 -11 -1 -27 -7 -30 -10 -1 -2 -4
-3 -6 -3 -2 0 -2 -1 -1 -1 1 -1 2 -6 2 -12 -1 -9 0 -12 4 -16 3 -3 7 -5 8 -5
2 0 3 -1 3 -2 0 -5 63 -4 89 1 2 0 7 1 12 2 11 2 30 12 39 22 10 11 17 15 32
16 31 3 50 16 61 40 l6 12 1 137 c0 119 0 137 -3 141 -3 4 -5 5 -20 5 l-17 1
-4 -7 c-9 -16 -25 -16 -39 -1 -2 3 -5 5 -7 5 -1 0 -2 1 -2 3 0 1 -2 2 -3 2 -2
0 -7 1 -10 2 -3 1 -10 0 -20 -2 -23 -5 -35 0 -39 17 -3 11 0 24 7 29 5 5 19 8
26 5 10 -4 36 6 42 16 12 21 22 23 41 10 31 -21 50 -24 80 -14 7 2 14 4 17 4
13 0 36 7 53 17 15 9 37 7 43 -5 1 -3 3 -10 4 -15 2 -20 12 -35 26 -40 13 -5
47 -3 58 3 7 3 25 21 25 24 0 1 3 3 6 6 7 5 24 6 28 2 19 -15 43 -18 56 -6 16
15 20 29 11 42 -9 14 -20 17 -69 22 -12 1 -26 3 -31 3 -7 1 -18 0 -27 -2 -29
-6 -38 -2 -38 16 0 8 7 23 12 23 3 0 20 18 24 25 8 16 2 34 -18 50 -2 1 -10 6
-18 10 -22 12 -21 20 2 29 42 17 64 34 72 56 5 15 6 46 1 58 -4 12 -18 22 -38
25 -15 3 -20 13 -19 40 1 29 1 34 -2 44 -1 6 -4 15 -7 20 -6 12 -7 23 0 29 5
5 16 5 25 1 7 -4 26 -2 33 2 10 7 11 12 11 47 0 35 -2 44 -10 51 -6 6 -24 11
-37 11 -10 0 -17 3 -25 11 -8 8 -11 10 -23 10 -8 0 -14 -1 -18 -3 -12 -7 -31
-6 -39 2 -9 8 -9 32 0 40 5 6 18 8 28 6 6 -1 11 -4 18 -12 6 -6 10 -10 10 -9
0 1 1 1 2 0 2 -5 23 -6 32 -2 12 5 26 3 41 -6 12 -7 26 -10 34 -7 3 1 7 6 10
11 5 9 6 12 6 28 0 16 1 19 4 22 10 7 25 0 25 -12 0 -5 -5 -18 -9 -22 -3 -4
-9 -21 -8 -25 1 -5 5 -15 25 -58 26 -54 30 -62 37 -63 2 0 4 -1 4 -1 0 0 2 -1
4 -1 8 -2 8 -5 1 -11 -3 -3 -9 -6 -12 -7 -7 -2 -8 -4 -8 -23 0 -16 0 -18 5
-21 7 -4 29 -9 47 -10 22 -1 23 -1 37 -16 14 -15 25 -20 47 -22 7 0 14 -2 16
-3 12 -6 14 -27 6 -46 -3 -6 -7 -18 -10 -27 -8 -28 -11 -32 -28 -32 -11 0 -17
3 -28 15 -9 9 -18 15 -33 22 -7 3 -16 8 -20 11 -4 2 -12 5 -16 6 -4 1 -9 2 -9
2 -1 0 -8 1 -15 1 -18 0 -22 4 -24 25 -3 28 -12 46 -31 58 -11 7 -30 1 -35
-11 -5 -12 -4 -18 5 -37 5 -10 11 -23 14 -30 3 -7 10 -21 16 -33 21 -45 29
-62 36 -77 4 -9 11 -23 15 -33 l9 -17 -5 -5 c-5 -5 -6 -6 -32 -6 -14 0 -29 -1
-32 -1 -21 -4 -34 -34 -25 -56 2 -3 3 -7 3 -9 2 -8 22 -22 35 -23 12 -2 30 -7
35 -10 7 -5 36 -4 46 0 9 4 15 3 26 -7 20 -17 19 -17 81 -18 l55 0 6 -6 c4 -3
6 -6 5 -6 -1 0 -2 -2 -2 -4 0 -1 -2 -6 -4 -10 -2 -5 -4 -13 -5 -32 -1 -30 -2
-32 -24 -49 -7 -4 -14 -13 -20 -22 -6 -8 -10 -14 -11 -15 -1 -1 -4 -6 -9 -12
-6 -9 -7 -12 -7 -21 0 -14 2 -19 13 -30 9 -9 10 -13 9 -25 -1 -17 -29 -19 -42
-4 -3 4 -13 7 -24 7 l-12 0 -12 -12 c-13 -13 -13 -14 -12 -35 0 -4 1 -11 3
-15 13 -27 -9 -43 -35 -27 -13 8 -14 8 -27 9 -11 1 -16 -1 -35 -15 -13 -9 -25
-22 -21 -22 1 0 1 -1 0 -2 -1 0 -4 -4 -6 -9 -6 -12 -13 -15 -34 -18 -5 -1 -12
-2 -14 -3 -5 -1 -6 -1 -10 -2 -2 0 -8 -4 -15 -11 -2 -2 -6 -9 -10 -16 -10 -20
-18 -25 -37 -20 -9 2 -23 1 -30 -2 -19 -9 -13 -42 12 -63 2 -1 8 -4 13 -5 12
-4 22 -3 45 3 4 2 8 3 9 3 13 3 31 9 37 13 9 6 19 23 23 41 1 5 5 13 8 17 3 4
9 13 13 21 8 16 17 22 35 22 17 0 24 -6 27 -21 2 -16 10 -28 21 -32 12 -5 31
0 68 18 6 3 12 6 13 6 4 0 54 26 59 32 9 7 15 23 17 42 2 16 6 21 25 27 33 10
40 11 59 12 24 1 30 3 45 14 14 10 78 74 83 83 2 3 4 6 5 6 1 0 5 5 9 12 8 11
15 21 20 26 12 14 12 26 2 48 -14 29 -8 47 17 49 25 1 35 8 45 28 9 20 14 24
23 16 3 -2 4 -6 4 -11 0 -4 1 -11 2 -16 1 -5 3 -11 3 -14 1 -3 5 -11 9 -19 4
-7 8 -14 8 -14 0 -1 4 -11 9 -22 13 -28 21 -35 41 -35 10 0 21 6 23 12 1 1 3
5 4 8 3 6 4 31 1 29 -1 -1 -1 0 -1 2 1 1 -1 3 -5 5 -10 4 -22 19 -22 27 0 4 1
7 2 8 2 1 4 10 5 24 1 8 0 13 -4 23 -6 18 -7 21 -5 30 4 13 12 20 23 20 12 0
16 -2 22 -14 14 -24 27 -32 48 -32 19 0 31 7 41 23 11 18 16 23 25 23 10 0 15
-4 21 -14 6 -11 12 -14 27 -14 10 -1 14 0 19 4 13 7 29 5 41 -7 10 -10 25 -14
46 -14 24 0 28 2 51 20 8 7 20 15 25 19 15 10 19 17 19 30 -1 16 -6 24 -29 43
-38 30 -59 49 -67 59 -8 10 -13 24 -11 29 0 2 0 3 -1 4 -4 2 -2 14 3 19 6 8
25 18 34 19 10 1 30 8 36 12 20 13 24 78 10 129 -5 17 -22 53 -29 62 -3 4 -6
5 -18 6 -13 0 -15 0 -23 -5 -4 -3 -8 -6 -9 -7 -1 -1 -4 -1 -9 -2 -17 -1 -22
15 -10 33 6 9 7 12 7 24 0 16 0 17 -11 23 -19 12 -26 15 -50 26 -9 4 -40 14
-47 16 -1 0 -5 1 -11 3 -5 2 -20 4 -32 5 -26 2 -31 4 -31 18 0 16 16 21 31 10
4 -3 10 -7 13 -9 3 -2 9 -4 17 -5 13 0 12 -1 44 18 14 9 27 12 50 13 26 1 42
8 62 29 14 15 16 19 15 35 -2 16 -6 21 -37 38 -2 1 -15 9 -28 17 -13 8 -24 14
-24 14 -1 0 -6 3 -12 7 -6 4 -11 7 -12 7 0 0 -7 4 -15 9 -7 5 -14 9 -15 9 0 0
-12 7 -27 16 -15 9 -27 16 -27 16 -1 0 -4 2 -7 4 -12 8 -63 21 -78 19 -22 -3
-28 -10 -38 -42 -6 -17 -10 -22 -20 -24 -16 -2 -23 5 -16 19 3 8 4 25 1 39 -1
5 -10 15 -14 15 -1 0 -4 2 -8 5 -8 6 -18 9 -23 8 -5 -2 -20 6 -22 12 -2 4 -2
6 1 9 5 4 31 17 41 21 7 2 7 2 12 -4 2 -4 4 -8 4 -10 0 -2 1 -3 3 -3 1 0 1 -1
-1 -1 -2 -1 -1 -2 2 -4 2 -2 4 -4 3 -5 0 0 7 -1 16 -1 11 0 19 -1 22 -2 6 -3
23 -4 33 -1 10 3 44 35 45 44 2 6 -1 23 -5 37 -2 8 -2 9 1 12 7 7 20 4 20 -4
0 -2 5 -13 11 -26 5 -9 19 -21 29 -24 18 -5 28 -4 44 6 24 15 29 24 31 53 2
31 7 33 50 21 19 -5 31 -6 57 -2 17 3 41 18 52 33 3 4 8 10 10 12 2 3 3 8 3
18 0 14 0 14 -10 23 -5 6 -15 13 -23 17 -8 4 -30 16 -50 27 -20 11 -42 23 -48
27 -18 9 -20 16 -4 16 9 0 26 4 34 9 17 9 21 10 37 8 36 -5 47 0 47 24 l1 14
-21 21 c-28 29 -67 67 -72 71 -4 3 -13 4 -31 6 -14 1 -15 3 -17 20 -2 25 -3
27 -26 49 -22 23 -30 27 -58 29 -18 1 -22 5 -27 25 -2 7 -6 18 -8 23 l-4 9
-16 0 -15 -1 -7 -10 c-6 -9 -16 -21 -23 -27 -2 -2 -3 -6 -3 -17 0 -14 0 -15 6
-21 11 -11 14 -16 14 -28 0 -15 -4 -21 -19 -25 -7 -2 -21 -8 -32 -13 -22 -10
-31 -18 -31 -28 0 -3 -1 -9 -1 -13 0 -4 1 -10 2 -12 4 -5 4 -23 0 -28 -2 -3
-8 -6 -15 -8 -16 -5 -27 -10 -41 -20 -11 -8 -13 -9 -24 -9 -11 0 -14 1 -18 5
-6 4 -6 6 -6 20 0 13 0 15 6 21 4 5 5 7 6 18 0 17 -1 21 -11 26 -4 2 -8 4 -8
3 0 0 -5 1 -10 2 -18 6 -44 9 -52 7 -7 -2 -32 -12 -38 -16 -10 -5 -32 2 -39
13 0 2 -3 3 -5 3 -2 0 -3 0 0 2 2 1 2 2 -3 3 -3 1 -5 2 -4 3 0 1 -2 1 -5 0 -5
0 -6 0 -5 2 1 2 1 2 -1 1 -1 0 -2 -6 -1 -13 0 -6 -1 -11 -1 -11 -1 1 -2 0 -2
-1 0 -1 2 -2 4 -2 2 0 4 -1 4 -2 1 0 4 -3 7 -6 4 -2 6 -5 6 -7 0 -4 -10 -26
-15 -36 -3 -5 -7 -13 -8 -17 -5 -17 -22 -25 -32 -15 -5 5 -5 8 1 38 2 13 4 26
4 28 -1 2 -1 5 -2 7 -1 6 -7 15 -12 18 -11 6 -22 3 -83 -16 -69 -23 -131 -42
-134 -42 -1 0 -4 -1 -7 -2 -3 -1 -8 -3 -10 -3 -3 -1 -11 -3 -18 -5 -11 -4 -16
-4 -26 -3 -22 3 -37 2 -51 -4 -33 -14 -53 4 -38 34 4 8 5 13 5 25 0 15 0 15
-8 24 -21 22 -18 20 -34 20 -12 0 -16 -1 -19 -5 -6 -5 -10 -12 -10 -16 0 -2
-2 -1 -6 3 -7 9 -11 16 -8 16 1 0 2 1 1 2 -1 1 1 2 3 3 2 1 5 4 7 6 1 4 3 5 5
4 7 -1 11 8 12 26 0 9 0 19 -2 23 -1 6 -1 8 1 10 4 3 3 32 -1 37 -1 2 -2 3 -1
3 1 0 0 1 -1 3 -1 1 -7 2 -13 3 -5 0 -23 1 -38 3 -32 3 -47 0 -59 -11 -6 -5
-18 -12 -22 -12 -4 0 -18 8 -29 17 -15 12 -33 18 -60 21 -24 3 -40 0 -42 -6 0
-2 -1 -9 -1 -17 l-1 -13 8 -4 c5 -2 10 -7 13 -10 l4 -5 -6 -7 c-3 -3 -9 -7
-13 -9 -8 -4 -18 -16 -21 -25 -1 -4 -2 -31 -2 -71 l1 -64 -6 -6 c-4 -3 -9 -6
-11 -7 -13 -1 -26 -15 -26 -28 0 -5 -1 -8 -2 -8 -1 0 0 -2 3 -5 3 -3 5 -7 5
-8 0 -7 -36 -12 -44 -7 -3 2 -7 10 -11 18 -3 8 -9 22 -12 30 -10 21 -10 30 5
62 5 12 5 48 0 62 -2 7 -5 12 -6 12 -1 0 -2 1 -2 2 0 1 -3 6 -7 10 -4 5 -8 12
-9 19 -7 29 -12 38 -33 60 -16 18 -25 21 -58 24 -9 1 -18 2 -22 2 -3 0 -13 1
-23 2 -9 1 -18 2 -20 2 -10 2 -38 3 -42 1z m150 -110 c5 -5 6 -7 6 -17 0 -16
-7 -23 -23 -23 -16 0 -23 7 -23 23 0 16 7 23 23 23 10 0 12 -1 17 -6z m388 1
c7 -4 15 -23 10 -23 -1 0 -2 -2 -3 -4 -1 -3 -2 -4 -3 -2 -1 1 -2 -3 -3 -10 -3
-37 -4 -39 -8 -43 -5 -7 -17 -7 -23 0 -5 5 -5 5 -2 26 1 11 2 27 2 35 0 12 1
15 5 19 6 6 17 7 25 2z m984 -88 l-5 -5 -4 4 -5 5 4 4 5 5 4 -4 5 -5 -4 -4z
m100 -17 c5 -5 5 -11 0 -16 -10 -10 -27 5 -16 16 4 4 12 4 16 0z m-1096 -60
c4 -4 15 -38 17 -54 1 -8 1 -11 -4 -19 -3 -6 -9 -17 -13 -24 -11 -21 -14 -24
-24 -22 -19 3 -36 18 -36 32 0 8 6 21 14 31 3 4 6 8 6 9 0 2 1 3 2 3 1 0 8 13
12 27 4 9 13 21 18 21 2 0 6 -2 8 -4z m-516 -7 c4 -4 4 -5 -1 -9 l-4 -4 -5 5
c-5 5 -5 5 -1 9 5 5 7 5 11 -1z m1152 3 c1 0 5 -3 8 -6 5 -5 6 -7 6 -17 0 -15
-2 -17 -19 -29 -8 -6 -18 -15 -23 -20 -10 -14 -15 -16 -31 -15 -8 0 -17 -1
-22 -3 l-7 -2 0 -11 c1 -6 0 -11 -1 -11 -1 0 16 -15 28 -25 7 -6 8 -7 9 -18 0
-9 0 -14 -3 -19 -2 -4 -3 -11 -3 -18 0 -16 4 -22 22 -30 7 -4 16 -10 19 -13 3
-4 9 -8 13 -11 16 -10 20 -24 12 -32 -9 -9 -22 -3 -33 14 -3 4 -6 8 -7 8 0 0
-4 3 -8 6 -8 7 -33 18 -41 18 -9 0 -21 -3 -27 -7 -13 -10 -15 -7 -17 19 -2 29
-12 55 -30 79 -11 14 -12 15 -27 15 -11 1 -24 -4 -30 -11 -2 -1 -8 -5 -13 -9
-25 -18 -33 -28 -33 -47 0 -15 -1 -13 20 -32 12 -11 15 -34 6 -44 -10 -13 -36
-13 -46 -2 -3 4 -7 13 -9 22 -7 33 -9 45 -9 77 -1 34 -1 36 3 40 5 6 10 17 7
15 -2 -1 -2 1 -1 8 1 9 1 9 -8 19 -10 12 -12 22 -5 30 3 4 6 4 15 4 13 -1 27
1 30 4 1 1 3 2 5 2 2 0 6 2 8 5 2 3 7 7 10 9 7 5 11 3 26 -11 12 -12 23 -15
44 -15 18 0 37 6 46 15 3 2 8 7 13 10 7 5 8 5 27 4 19 0 32 6 41 20 4 6 10 12
13 14 5 2 8 2 22 1z m-777 -13 c8 -6 9 -24 3 -38 -2 -5 -5 -11 -5 -13 0 -2 -1
-3 -1 -3 0 -1 -1 -2 -1 -3 0 -1 -1 -2 -2 -3 -1 -1 -1 -1 0 1 1 1 0 2 -2 2 -3
0 -5 1 -7 2 -1 2 -2 2 -2 0 0 -1 -1 -1 -4 0 -12 4 -31 -6 -38 -19 -5 -9 -5
-12 -5 -44 0 -45 0 -45 34 -74 7 -5 10 -18 7 -29 -2 -9 -6 -13 -18 -22 -9 -5
-20 -17 -27 -27 -9 -11 -13 -13 -24 -13 -11 0 -19 4 -20 12 -5 23 -16 40 -29
43 -3 1 -9 4 -12 8 -7 6 -7 7 -7 23 -1 20 -3 28 -12 37 -8 9 -30 20 -35 17 -2
-1 -6 -2 -10 -2 -5 0 -8 -2 -21 -14 -11 -10 -16 -12 -31 -12 -14 -1 -14 -1
-23 -10 -5 -5 -11 -14 -14 -20 -7 -14 -24 -19 -41 -12 -16 7 -17 35 -2 52 8 8
8 31 1 43 -10 17 -6 39 7 45 7 3 32 4 47 2 16 -3 21 -11 13 -22 -11 -18 -15
-24 -19 -26 -5 -2 -11 -13 -12 -21 0 -3 -1 -5 -1 -5 -3 0 0 -9 4 -11 2 -1 4
-3 3 -3 -1 -1 1 -1 4 -1 3 1 5 2 5 3 0 1 1 1 3 1 1 -1 5 1 9 4 4 3 8 5 9 5 1
0 4 1 5 3 1 2 4 3 5 3 1 0 5 1 8 2 7 3 8 3 12 4 3 0 13 10 27 26 6 6 9 8 14 8
8 0 26 6 26 8 0 1 2 2 5 2 3 0 10 2 16 5 10 4 15 5 30 5 22 0 33 4 38 14 4 7
9 26 7 26 -2 0 -8 12 -8 15 0 1 -1 3 -2 3 -2 1 -2 2 0 5 1 2 2 3 2 2 0 -1 1
-1 3 0 1 2 6 3 10 4 4 1 11 2 14 4 34 14 54 17 64 8z m1184 -6 c31 -11 43 -20
25 -21 -6 0 -12 -1 -15 -2 -1 0 -2 0 -2 0 -1 0 -7 -3 -13 -6 -22 -12 -38 -6
-38 13 0 14 5 19 21 19 7 0 17 -1 22 -3z m-963 -3 c5 -5 5 -11 0 -16 -7 -7
-18 -2 -19 9 -1 9 12 14 19 7z m112 -5 c5 -5 6 -22 2 -26 -2 -1 -3 -3 -3 -4
-3 -14 -5 -28 -4 -30 0 -1 1 -4 2 -7 0 -3 2 -7 4 -8 3 -4 16 -51 21 -80 9 -46
13 -54 35 -65 14 -7 19 -12 19 -18 0 -8 -6 -24 -12 -31 -9 -12 -11 -16 -9 -29
2 -19 7 -24 32 -37 16 -8 29 -12 49 -16 6 -1 14 -4 16 -7 l5 -4 -15 -9 c-8 -5
-21 -12 -28 -16 -7 -4 -13 -7 -14 -8 -2 -2 -31 -15 -55 -24 -28 -11 -37 -16
-55 -30 -12 -10 -15 -13 -22 -28 -14 -26 -19 -31 -27 -21 -3 4 -3 6 -1 13 3 8
3 29 0 36 -1 5 -3 5 -15 5 -12 0 -27 -6 -27 -12 0 -4 -12 -13 -20 -15 -10 -2
-23 0 -28 6 -9 8 -9 31 -1 40 9 10 12 33 5 41 -4 4 -8 4 -55 2 -31 -1 -36 -2
-44 -11 -16 -19 -10 -48 15 -74 6 -6 13 -14 15 -16 11 -18 -6 -36 -25 -27 -4
2 -9 6 -12 9 -14 13 -26 15 -53 7 -28 -7 -39 -2 -39 17 0 12 5 21 13 27 5 3 5
4 5 20 l-1 16 -11 4 c-6 2 -14 4 -18 4 -11 2 -16 8 -16 20 0 13 5 18 20 20 24
3 42 10 49 20 2 2 8 6 13 8 8 4 9 4 30 0 25 -4 34 -2 59 10 8 4 15 7 17 7 1 0
2 1 2 2 0 0 6 7 14 15 32 34 36 46 25 68 -3 6 -7 16 -9 23 -4 12 -4 13 -1 23
2 5 5 12 6 14 8 12 9 22 9 61 l-1 37 6 6 6 6 40 0 c51 0 53 1 56 26 0 5 1 10
2 11 0 0 0 2 -2 3 -5 4 -4 20 1 26 7 8 23 8 30 0z m701 -15 c5 -4 5 -7 1 -17
-1 -2 -3 -8 -5 -13 -1 -5 -6 -16 -9 -25 -5 -13 -6 -18 -5 -25 2 -15 6 -18 22
-18 12 0 15 1 24 7 10 7 14 8 30 7 2 0 6 -3 9 -6 5 -5 6 -7 6 -18 0 -11 -1
-13 -6 -18 -6 -7 -6 -6 -30 -6 -15 0 -20 -1 -38 -7 -24 -8 -29 -9 -33 -2 -4 6
-3 29 1 37 1 2 2 8 3 13 2 17 -24 60 -46 73 -6 3 -6 5 -4 7 6 6 13 9 26 10 8
1 20 2 27 3 20 2 21 2 27 -2z m-1030 -42 c0 -1 4 -4 9 -7 14 -7 18 -13 18 -26
0 -16 -7 -23 -23 -23 -21 0 -29 16 -19 41 2 5 4 12 5 14 0 2 3 3 6 3 3 0 5 -1
4 -2z m875 -24 c5 -5 6 -7 6 -17 0 -16 -7 -23 -23 -23 -10 0 -12 1 -17 6 -5 5
-6 7 -6 17 0 16 7 23 23 23 10 0 12 -1 17 -6z m-773 -82 c4 -6 4 -24 -1 -30
-7 -9 -27 -9 -34 0 -5 6 -5 24 0 30 7 9 27 9 35 0z m865 -25 c4 -5 4 -7 3 -18
0 -6 -3 -14 -5 -18 -6 -10 -28 -29 -31 -28 -2 0 -5 1 -7 1 -3 0 -4 1 -4 12 -1
8 -5 14 -17 19 -25 12 -24 26 1 32 36 8 53 8 60 0z m-825 -59 c6 -6 7 -21 2
-26 -5 -6 -20 -5 -26 0 -7 6 -7 19 -1 25 6 7 19 7 25 1z m-375 -8 c5 -5 5 -11
0 -16 -10 -10 -27 5 -16 16 4 4 12 4 16 0z m835 -1 c5 -2 9 -4 9 -5 0 0 0 -1
0 -2 0 -1 2 -44 2 -53 0 -9 -7 -15 -19 -15 -17 0 -24 11 -19 29 1 4 3 15 5 23
2 14 8 26 11 26 1 0 5 -1 11 -3z m182 -108 c7 -7 7 -19 0 -26 -8 -8 -13 -8
-32 -1 -10 3 -19 7 -21 7 -14 3 -20 4 -21 4 0 -1 -2 0 -4 2 -5 4 0 8 10 8 11
0 37 5 43 8 8 5 19 4 25 -2z m248 -60 c3 -5 3 -5 0 -10 -2 -3 -5 -5 -7 -5 -2
0 -5 2 -7 5 -3 5 -3 5 0 10 2 3 5 5 7 5 2 0 5 -2 7 -5z m-145 -2 c0 -1 0 -1
-2 -1 -1 0 -2 -1 -1 -2 2 -3 -3 -6 -14 -7 -14 -1 -23 2 -19 6 2 3 2 3 -3 3 -3
1 -1 1 5 2 11 2 32 1 34 -1z m226 -2 c13 -3 38 -15 42 -19 5 -6 5 -13 0 -24
-11 -23 -52 -21 -69 4 -8 12 -8 26 0 34 7 7 12 8 27 5z m-637 -12 c12 -12 3
-31 -13 -31 -11 0 -18 7 -18 18 0 11 7 18 18 18 6 0 9 -1 13 -5z m274 -13 c6
-4 5 -13 0 -18 -5 -4 -9 -3 -14 5 -3 7 -3 7 0 12 5 6 8 6 14 1z m189 -21 c6
-3 8 -9 6 -17 0 -1 1 -2 2 -2 2 1 11 -2 12 -4 1 -1 6 -4 12 -8 16 -11 19 -14
19 -26 0 -13 -4 -18 -23 -29 -24 -14 -35 -18 -44 -13 -5 3 -29 12 -35 13 -3 1
-14 2 -23 2 -20 1 -66 6 -76 9 -10 3 -26 15 -30 24 -4 8 -4 14 0 22 1 2 1 4 1
5 -3 3 7 0 14 -5 4 -2 8 -4 9 -4 3 0 17 -7 21 -10 7 -6 27 -4 44 6 15 8 20 9
36 8 7 0 10 -1 15 -7 4 -4 8 -7 10 -7 1 0 2 -1 2 -2 0 -2 4 -2 10 -2 6 1 10 0
11 -1 0 -1 1 0 1 2 0 1 1 3 2 3 1 0 2 2 2 4 0 2 1 4 2 4 1 0 2 1 2 2 0 1 -2 1
-4 1 -3 0 -5 1 -5 2 0 1 -1 6 -3 11 -4 13 -4 15 0 19 3 4 3 4 10 0z m-476 -47
c1 0 5 -3 8 -6 5 -5 6 -7 6 -18 0 -11 -1 -13 -6 -18 -6 -6 -7 -6 -18 -6 -11 0
-12 0 -18 6 -5 5 -6 7 -6 17 0 14 3 20 12 24 5 2 8 2 22 1z m-863 -24 c5 -5 6
-7 6 -16 0 -16 -8 -23 -35 -32 -29 -10 -44 -4 -44 18 0 14 6 22 26 29 27 10
37 10 47 1z m179 -34 c1 0 3 -3 5 -7 2 -4 7 -12 13 -17 21 -20 43 -28 65 -24
24 5 33 0 33 -17 0 -17 -12 -23 -31 -17 -17 5 -38 2 -54 -8 -25 -16 -27 -21
-28 -51 -1 -12 -2 -33 -2 -47 -1 -18 -1 -29 1 -35 1 -6 3 -19 4 -29 l1 -20 -7
-4 c-6 -4 -9 -5 -27 -5 -14 0 -20 -1 -21 -3 -1 -2 -2 -2 -2 -1 0 1 -1 1 -2 0
0 -1 -4 -4 -8 -7 -4 -3 -7 -5 -8 -6 -3 -4 -15 -8 -21 -8 -11 0 -17 6 -17 17 0
12 6 17 18 17 22 -1 39 7 44 21 3 9 3 49 -1 56 -4 8 -11 36 -10 41 1 7 5 19 9
26 2 4 3 12 3 21 0 22 -6 31 -31 52 -16 12 -18 34 -4 48 6 7 26 13 49 15 17 1
18 1 23 -3 2 -3 5 -5 6 -5z m251 3 c6 -6 6 -6 5 -21 -1 -25 5 -39 24 -57 20
-19 25 -40 17 -63 -4 -12 -2 -25 8 -46 5 -13 13 -42 13 -50 0 -8 -6 -14 -15
-14 -5 0 -7 1 -7 4 0 2 -1 2 -1 1 -1 -2 -4 -3 -7 -3 -5 0 -13 -7 -11 -10 1 -1
0 -2 -1 -2 -1 0 -2 -2 -1 -5 1 -4 2 -9 2 -12 1 -3 4 -10 6 -15 11 -19 4 -40
-13 -40 -13 -1 -15 0 -23 8 -18 19 -22 23 -36 29 -20 10 -24 15 -23 30 1 11 2
14 8 21 3 4 6 9 6 10 0 1 1 2 2 2 1 0 3 5 6 12 4 10 4 14 3 47 0 20 -1 38 -1
40 -1 2 -4 9 -6 16 -5 15 -5 23 0 38 2 7 5 14 6 16 0 2 1 16 1 31 l0 27 6 6
c9 9 23 9 32 0z m511 -25 c4 -2 9 -7 12 -13 4 -5 8 -12 10 -14 5 -6 7 -14 3
-18 -2 -2 -3 -4 -1 -7 1 -2 2 -10 2 -17 0 -11 1 -15 4 -18 10 -12 13 -24 7
-33 -6 -8 -45 -24 -60 -24 -9 0 -16 5 -18 14 -1 8 -12 23 -18 26 -10 4 -21 5
-27 1 -11 -5 -21 -6 -24 -2 -5 6 10 21 29 27 27 9 36 21 38 50 1 21 6 27 22
31 5 1 14 -1 21 -3z m137 -12 c7 -6 7 -19 1 -25 -11 -11 -33 -3 -33 12 0 15
21 23 32 13z m120 -16 c12 -13 5 -31 -9 -27 -10 2 -16 8 -16 16 0 13 17 20 25
11z m327 -14 c6 0 12 -10 12 -19 0 -11 -4 -18 -17 -32 -19 -19 -36 -25 -52
-16 -16 8 -16 39 1 49 16 10 41 20 49 19 2 0 5 -1 7 -1z m-279 -31 c8 0 21 -3
29 -6 14 -5 42 -10 69 -12 25 -2 39 -10 35 -21 -3 -8 -10 -21 -17 -30 -17 -22
-38 -23 -61 -2 -15 14 -36 20 -51 15 -5 -2 -9 -4 -9 -5 0 -1 -1 -2 -3 -2 -3 0
-5 -5 -5 -22 -1 -10 0 -12 2 -12 2 0 4 -1 5 -2 1 -1 4 -3 6 -3 25 -6 28 -7 32
-12 6 -7 7 -17 5 -28 -5 -21 -32 -25 -52 -6 -14 13 -27 19 -47 20 -16 1 -22 6
-29 22 -4 10 -7 20 -7 29 -2 17 2 21 23 24 17 2 29 8 33 16 2 3 4 6 5 6 2 0 6
11 7 19 1 6 10 15 14 14 1 0 8 -1 16 -2z m-208 -106 c5 -8 1 -16 -8 -16 -9 0
-13 8 -8 16 2 3 5 5 8 5 3 0 6 -2 8 -5z m-949 -14 l-5 -5 -4 4 -5 5 4 4 5 5 4
-4 5 -5 -4 -4z m-131 -24 c3 -5 3 -5 0 -10 -2 -3 -5 -5 -7 -5 -2 0 -5 2 -7 5
-3 5 -3 5 0 10 2 3 5 5 7 5 2 0 5 -2 7 -5z m1504 -27 c3 -2 6 -7 7 -10 2 -3 5
-8 7 -11 3 -3 8 -14 13 -23 13 -26 11 -41 -8 -62 -5 -5 -12 -14 -17 -20 -4 -6
-9 -12 -10 -13 -6 -5 -25 -31 -30 -41 -3 -6 -7 -13 -9 -14 -1 -2 -2 -4 -1 -4
1 0 -1 -2 -5 -4 -9 -6 -15 -5 -38 3 -18 6 -23 7 -35 7 -14 -1 -15 -1 -21 5 -5
5 -6 6 -3 10 1 2 2 7 3 11 1 12 8 21 23 28 36 16 65 68 53 95 -2 5 -5 10 -8
11 -7 5 -4 22 4 22 2 0 9 2 17 5 35 13 48 14 58 5z m-446 -12 c10 -9 3 -26
-10 -26 -8 0 -15 7 -15 15 0 13 16 20 25 11z m26 -89 c5 -4 1 -12 -10 -24 -11
-11 -17 -24 -18 -41 -1 -8 -3 -17 -7 -25 -3 -6 -6 -13 -6 -15 0 -2 -2 -8 -5
-14 -2 -6 -4 -12 -4 -13 2 -4 -5 -10 -11 -10 -6 0 -12 5 -12 10 1 5 -8 25 -13
31 -7 8 -11 9 -49 10 -28 1 -38 2 -41 4 -2 2 -3 3 -1 4 2 1 2 2 -1 2 -2 0 0 1
5 3 49 14 63 19 74 28 6 5 20 30 20 36 0 5 9 13 16 15 13 3 60 2 63 -1z m183
-9 c5 -5 5 -15 0 -20 -9 -9 -24 -2 -24 10 0 8 6 14 14 14 3 0 8 -2 10 -4z
m-993 -24 c7 -6 7 -19 1 -25 -6 -7 -19 -7 -25 -1 -7 6 -7 19 -1 25 6 7 19 7
25 1z m199 -12 c1 -2 4 -4 5 -4 2 0 3 -1 2 -2 -3 -5 12 -26 18 -26 2 0 3 -1 3
-2 0 -2 0 -2 31 -4 30 -2 35 -4 41 -15 3 -7 7 -10 18 -16 11 -6 15 -10 17 -15
4 -8 4 -8 -1 -13 -3 -3 -8 -5 -15 -6 -5 -1 -18 -4 -28 -7 -14 -5 -23 -6 -38
-7 -18 0 -33 -4 -37 -9 -1 -1 -5 -3 -9 -5 -4 -2 -8 -5 -9 -5 0 -1 -3 0 -6 3
-3 3 -5 5 -6 5 -1 0 -1 28 -1 61 0 59 0 62 4 66 5 5 7 5 11 1z m1134 -14 c1 0
5 -3 8 -6 5 -5 6 -7 6 -18 0 -11 -1 -13 -6 -18 -6 -6 -7 -6 -18 -6 -11 0 -12
0 -18 6 -5 5 -6 7 -6 17 0 14 3 20 12 24 5 2 8 2 22 1z m-275 -48 c4 -3 3 -10
-2 -22 -5 -11 -10 -14 -22 -14 -13 0 -19 6 -19 20 0 13 4 18 18 20 13 2 20 1
25 -4z m364 -17 c3 -5 3 -5 0 -10 -2 -3 -5 -5 -7 -5 -2 0 -5 2 -7 5 -3 5 -3 5
0 10 2 3 5 5 7 5 2 0 5 -2 7 -5z m-571 -31 c1 0 5 -3 8 -6 5 -5 6 -7 6 -17 0
-15 -3 -19 -20 -28 -12 -6 -23 -9 -20 -5 0 1 -2 6 -4 12 -8 21 -5 37 8 43 5 2
8 2 22 1z m-25 -75 c0 -1 1 -6 3 -12 6 -16 5 -30 -2 -37 -3 -3 -7 -6 -9 -6
-18 -1 -26 2 -31 10 -2 4 -4 24 -2 24 0 0 2 2 3 5 4 8 39 24 38 16z m93 -97
c5 -5 6 -16 1 -24 -5 -8 -19 -9 -26 -2 -7 6 -7 19 -1 25 6 6 19 7 26 1z m-123
-24 c18 -3 24 -9 18 -17 l-4 -5 -24 1 c-29 1 -29 1 -33 6 -6 5 -5 11 2 16 5 3
13 3 41 -1z m-5 -73 c3 -3 4 -7 4 -14 0 -13 -6 -19 -19 -19 -13 0 -19 6 -19
19 0 7 1 11 4 14 7 8 23 8 30 0z m-805 -4 c3 -3 3 -3 0 -6 -4 -5 -11 1 -7 6 4
4 4 4 7 0z m90 -131 c16 -7 16 -43 -1 -50 -15 -6 -34 -2 -39 9 -4 8 -4 24 0
32 5 12 23 15 40 9z"/>
<path d="M1106 3488 c-12 -4 -13 -6 -14 -18 -1 -12 1 -19 6 -20 20 -2 37 2 39
8 1 3 2 20 1 25 0 7 -16 10 -32 5z"/>
<path d="M449 3822 c-5 -5 -5 -32 -1 -35 2 -1 9 -1 15 0 7 1 11 2 9 3 -2 1 -2
6 -2 15 1 7 1 13 0 12 -1 0 -5 2 -9 5 -9 4 -9 4 -12 0z"/>
<path d="M1531 3802 c-1 -1 -8 -4 -15 -6 -7 -3 -33 -14 -58 -23 -25 -10 -51
-21 -58 -23 -13 -5 -21 -13 -19 -19 0 -2 0 -3 -2 -3 -3 0 -4 -20 -1 -20 1 0 3
-1 5 -1 1 0 3 -1 3 -2 3 -4 36 -2 50 3 10 3 16 4 21 3 8 -2 21 2 43 13 l14 7
18 -2 c26 -3 41 3 47 18 6 13 1 34 -9 43 -11 9 -11 9 -26 11 -4 1 -8 2 -9 2
-1 0 -3 0 -4 -1z"/>
<path d="M1605 2328 c-4 -1 -7 -3 -7 -6 0 -6 -2 -11 -3 -12 -1 0 -2 -2 -2 -3
-1 -1 -1 -4 -2 -5 -1 -3 0 -4 2 -5 6 -2 27 -19 29 -23 6 -11 0 -25 -12 -30 -3
-1 -6 -3 -6 -4 0 -1 -1 -2 -3 -2 -2 0 -3 -1 -3 -2 0 -2 -1 -2 -1 -1 -4 3 -9
-5 -15 -23 -5 -16 -8 -21 -13 -25 -17 -13 -23 -19 -25 -29 -2 -13 -2 -16 2
-22 2 -3 4 -6 4 -7 0 -2 34 -57 36 -59 1 -1 4 -6 9 -12 4 -6 9 -13 11 -16 3
-3 8 -9 11 -13 18 -23 46 -51 52 -52 7 -2 21 1 26 4 2 2 6 10 9 16 6 14 6 14
27 16 7 1 19 3 28 4 9 2 17 4 19 4 5 -1 30 7 34 9 4 4 8 9 11 13 19 28 27 37
45 50 6 3 11 9 13 12 4 9 3 26 -3 38 -11 22 -3 40 18 40 8 0 11 -1 16 -6 3 -3
6 -7 6 -9 0 -7 11 -27 17 -31 3 -2 9 -3 15 -3 37 0 44 70 9 90 -5 3 -24 8 -56
14 -26 6 -49 11 -51 11 -2 0 -19 5 -37 10 -44 12 -48 12 -71 1 -14 -7 -28 -8
-34 -3 -2 2 -7 11 -12 20 -10 21 -16 26 -47 41 -25 12 -32 14 -46 10z"/>
</g>
</svg>
