<?xml version="1.0" standalone="no"?>
<!DOCTYPE svg PUBLIC "-//W3C//DTD SVG 20010904//EN"
 "http://www.w3.org/TR/2001/REC-SVG-20010904/DTD/svg10.dtd">
<svg version="1.0" xmlns="http://www.w3.org/2000/svg"
 width="1104.000000pt" height="2870.000000pt" viewBox="0 0 1104.000000 2870.000000"
 preserveAspectRatio="xMidYMid meet">
<metadata>
Created by potrace 1.15, written by Peter Selinger 2001-2017
</metadata>
<g transform="translate(0.000000,2870.000000) scale(0.500000,-0.500000)"
fill="#000000" stroke="none">
<path d="M915 3854 c-18 -5 -33 -14 -38 -23 -7 -11 -6 -28 1 -39 3 -4 11 -16
18 -26 15 -23 29 -49 39 -73 4 -10 8 -20 9 -22 3 -8 10 -33 14 -52 2 -12 2
-14 -1 -18 -4 -6 -3 -6 -27 1 -16 4 -45 5 -49 1 -2 -1 -3 -1 -3 0 0 1 -2 0 -3
-1 -3 -2 -3 -2 -2 0 1 1 -1 2 -6 2 -5 0 -7 -1 -6 -2 1 -2 1 -2 -2 0 -1 1 -3 2
-3 1 0 -1 -1 -1 -3 1 -3 3 -127 3 -131 -1 -2 -2 -2 -1 -1 1 1 1 -1 1 -4 -1 -3
-2 -5 -3 -4 -1 1 1 0 2 -4 2 -4 0 -5 -1 -4 -2 1 -2 -1 -1 -4 1 -3 2 -5 2 -4 1
1 -2 1 -3 -1 -1 -2 2 -29 3 -103 3 -77 0 -103 1 -114 3 -15 3 -28 7 -115 37
-23 8 -44 15 -47 16 -3 1 -19 6 -35 12 -16 6 -31 11 -33 11 -2 1 -10 4 -18 7
-17 6 -31 4 -40 -7 -11 -11 -11 -12 -11 -125 0 -101 0 -107 4 -118 4 -10 16
-60 19 -77 1 -7 -3 -23 -7 -23 -1 0 -5 -6 -8 -13 l-7 -14 0 -87 c0 -85 0 -87
4 -95 3 -5 6 -14 8 -20 3 -12 3 -13 -1 -27 -2 -7 -5 -14 -6 -15 -5 -3 -6 -28
-7 -161 -1 -78 -2 -147 -2 -155 0 -8 -1 -32 -2 -54 -1 -22 -2 -50 -2 -63 -2
-27 0 -34 9 -42 6 -7 21 -12 33 -13 4 0 16 -3 25 -7 22 -7 26 -8 47 0 10 3 20
6 23 6 7 0 14 -8 14 -15 0 -10 -7 -14 -24 -17 -29 -4 -30 -4 -48 -12 -22 -11
-29 -13 -46 -13 -35 -1 -42 -9 -47 -57 -2 -16 -4 -37 -5 -47 -3 -26 0 -38 13
-49 5 -5 27 -14 34 -14 4 0 10 -10 9 -16 -1 -17 -15 -33 -31 -35 -24 -3 -40
-14 -46 -30 -2 -7 -10 -44 -14 -65 -1 -4 -2 -10 -3 -13 -1 -3 -2 -8 -3 -11 -6
-37 -43 -154 -65 -209 -9 -23 -11 -30 -11 -40 0 -21 11 -34 29 -34 15 0 22 4
40 20 58 53 109 113 155 183 20 30 21 33 27 56 6 22 8 26 22 40 8 8 14 17 19
27 l8 15 -2 24 c-1 25 0 32 9 37 17 10 28 28 39 60 10 31 17 58 26 94 2 9 11
51 14 64 3 17 1 30 -8 39 -4 5 -28 18 -32 18 -4 0 -11 9 -13 16 -1 5 -1 17 0
33 1 21 2 25 6 29 6 6 12 4 21 -5 6 -6 7 -6 22 -6 l15 0 5 9 c6 9 9 30 14 111
1 9 2 20 2 24 1 8 2 53 4 107 1 28 2 37 8 44 2 1 3 3 3 5 0 1 1 1 2 -1 4 -6
23 -4 41 5 l16 8 5 -5 c5 -4 5 -5 7 -44 1 -21 1 -45 1 -52 0 -7 -1 -128 -1
-269 -1 -231 -1 -257 2 -264 4 -9 14 -21 18 -21 2 0 3 -1 3 -2 0 -2 0 -2 19
-3 29 -3 87 8 124 22 17 7 55 26 57 29 1 1 4 3 8 6 17 11 33 34 34 46 1 4 3 7
7 10 4 2 7 5 7 6 0 0 12 1 27 0 26 -1 27 -1 32 -6 4 -5 5 -6 2 -9 -1 -1 -4 -6
-7 -11 -4 -7 -30 -45 -38 -55 -2 -2 -7 -8 -11 -13 -8 -10 -45 -48 -59 -61 -44
-40 -66 -57 -124 -97 -36 -24 -83 -53 -99 -61 -3 -1 -12 -6 -20 -11 -12 -7
-113 -57 -130 -65 -3 -1 -17 -7 -30 -13 -14 -6 -26 -14 -30 -17 -7 -7 -13 -25
-13 -36 0 -9 -6 -15 -16 -16 -13 -2 -18 -7 -19 -16 0 -4 0 -6 2 -6 1 1 1 0 0
-2 -1 -3 3 -17 6 -19 4 -3 23 -8 29 -8 34 0 288 81 332 106 2 1 5 2 6 2 2 0 7
2 37 16 7 3 18 8 25 11 15 7 65 32 89 45 26 14 32 19 42 36 12 20 13 21 33 23
20 1 28 4 43 15 7 5 17 12 22 16 6 4 10 7 11 8 1 0 8 6 16 13 35 27 98 87 98
93 0 2 1 2 2 -1 1 -2 2 -3 2 -2 0 1 2 -1 4 -5 3 -6 4 -12 4 -67 0 -56 0 -62 4
-70 2 -5 4 -11 4 -12 0 -2 1 -3 2 -3 1 0 3 -5 5 -11 3 -10 3 -11 -2 -31 -6
-24 -6 -24 -1 -39 19 -59 63 -94 133 -106 39 -6 50 -4 66 12 5 5 11 10 15 12
l6 3 12 -13 c7 -7 17 -14 22 -17 l10 -4 159 1 c164 1 175 1 230 6 107 10 165
29 202 66 23 23 35 51 36 83 1 21 -3 46 -7 46 -2 0 -2 1 -1 1 1 1 -1 4 -18 23
-7 8 -15 18 -17 24 -3 5 -10 14 -17 20 -8 8 -14 17 -19 28 -4 9 -9 17 -11 17
-2 1 -5 3 -6 4 -1 1 -8 4 -14 6 -7 2 -15 5 -19 6 -3 2 -9 3 -13 3 -8 0 -10 3
-22 30 -18 43 -45 67 -96 90 -16 7 -31 12 -49 15 -14 3 -7 18 13 32 22 15 39
37 45 58 5 21 0 49 -11 64 -18 24 -18 32 0 56 12 16 13 23 13 96 l0 65 5 13
c3 6 7 13 8 14 3 2 11 20 17 38 7 18 2 39 -8 45 -7 4 -30 1 -41 -4 -19 -9 -35
-3 -35 12 1 20 1 38 0 42 -3 10 -20 24 -77 66 -3 2 -8 8 -11 13 -4 9 -4 10 -4
69 l1 59 6 7 c4 6 5 6 5 2 0 -4 4 -11 25 -48 17 -31 41 -67 49 -74 1 -1 4 -5
8 -10 16 -21 61 -66 79 -78 2 -1 4 -3 5 -4 2 -2 15 -11 20 -14 7 -3 22 -3 30
1 7 4 15 16 18 29 5 18 12 41 19 57 9 23 10 25 6 49 l-4 22 5 5 c4 5 6 5 26 5
20 0 32 2 37 6 1 1 9 5 17 9 24 12 32 18 38 31 14 30 0 65 -28 72 -9 2 -11 3
-30 6 -6 1 -13 2 -16 3 -3 1 -8 2 -12 2 -30 5 -134 34 -151 41 -2 1 -8 3 -12
4 -4 2 -9 4 -11 6 -2 1 -8 4 -13 5 -22 7 -31 20 -24 39 7 22 26 21 33 -1 6
-21 17 -32 33 -34 16 -2 36 7 47 22 13 17 34 18 47 1 9 -11 20 -19 30 -21 2
-1 6 -2 8 -2 9 -3 32 7 44 17 14 13 24 33 24 47 -1 21 -11 34 -46 62 -4 3 -8
7 -10 8 -1 1 -6 5 -10 8 -4 3 -10 7 -11 9 -2 2 -11 8 -19 14 -8 6 -21 16 -29
21 -7 6 -14 11 -15 11 -2 1 0 3 4 6 7 5 10 5 41 6 45 2 60 8 76 33 14 22 15
26 11 49 -1 4 -11 15 -20 24 -11 10 -45 39 -55 46 -2 1 -8 6 -12 9 -4 4 -8 7
-8 7 -1 0 -3 2 -6 4 -2 1 -8 6 -13 10 -6 5 -19 15 -30 23 -11 9 -23 18 -26 20
-3 2 -6 5 -8 6 -1 1 -6 5 -11 9 -5 4 -17 14 -26 23 l-17 17 -15 -1 c-14 0 -14
0 -22 -8 -4 -5 -13 -17 -20 -27 -7 -10 -17 -23 -21 -29 -4 -6 -14 -19 -21 -29
-20 -28 -34 -46 -38 -51 -10 -11 -14 -11 -160 -11 l-135 0 -6 6 c-5 4 -6 6 -4
8 3 4 2 47 -3 64 -6 23 -21 54 -35 72 -16 20 -51 49 -77 62 -18 9 -48 20 -54
20 -14 0 -23 -6 -30 -21 -3 -7 -6 -15 -6 -17 0 -15 -28 -22 -40 -10 -6 5 -6 7
-6 18 1 16 -4 34 -10 40 -9 8 -20 10 -54 10 -23 0 -34 -1 -43 -4z m214 -159
c12 -12 3 -31 -13 -31 -11 0 -18 7 -18 18 0 11 7 18 18 18 6 0 9 -1 13 -5z
m583 -33 c5 -5 6 -7 6 -17 0 -16 -7 -23 -23 -23 -10 0 -12 1 -17 6 -5 5 -6 7
-6 17 0 16 7 23 23 23 10 0 12 -1 17 -6z m-1003 -86 c0 -5 0 -1 0 8 0 9 0 13
0 9 1 -5 1 -13 0 -17z m16 -15 c6 -6 7 -24 1 -31 -7 -9 -27 -9 -34 0 -3 3 -4
8 -4 15 0 16 5 21 21 21 9 0 12 -1 16 -5z m159 2 c7 -5 18 -31 21 -49 1 -9 3
-18 4 -20 2 -3 -5 -14 -9 -16 -5 -1 -25 3 -36 9 -11 5 -23 36 -22 56 2 18 7
23 25 23 8 0 14 -1 17 -3z m719 -18 c4 -4 5 -7 5 -15 0 -14 -6 -20 -20 -20
-14 0 -20 6 -20 20 0 14 6 20 20 20 8 0 11 -1 15 -5z m-916 -68 l6 -6 0 -37 0
-37 -6 -6 -6 -6 -25 0 c-24 0 -26 0 -38 -6 -20 -9 -32 -28 -29 -45 2 -15 -8
-23 -16 -13 -3 5 -3 5 1 16 4 11 5 27 2 34 -1 2 -7 6 -13 9 -9 5 -12 5 -50 6
-33 0 -41 0 -41 -2 0 -2 -2 0 -5 5 -3 4 -6 7 -7 7 0 0 -1 17 -1 37 l0 38 6 6
6 6 105 0 105 0 6 -6z m661 -13 c-2 -18 10 -35 29 -41 10 -4 12 -4 18 -5 2 0
6 -3 9 -6 5 -5 6 -7 6 -18 0 -11 -1 -13 -6 -18 -6 -6 -7 -6 -18 -6 -3 0 -7 0
-9 0 -1 0 -9 5 -17 10 -23 16 -26 16 -94 16 -48 0 -61 -1 -67 -3 -20 -8 -34
-5 -56 12 -10 7 -18 13 -19 13 -1 0 -3 2 -5 4 -2 2 -7 5 -10 7 -11 7 -51 37
-51 39 0 1 -2 2 -3 3 -4 0 -4 1 0 1 1 0 3 1 3 3 0 1 2 3 4 4 1 1 64 2 139 3
l136 1 6 -6 c5 -5 6 -7 5 -13z m365 12 c4 -3 7 -6 5 -6 -2 0 -21 -26 -40 -53
-11 -16 -19 -20 -48 -20 l-23 0 -2 5 c-2 4 -2 6 2 9 2 1 4 3 5 3 1 0 6 4 12 8
11 9 24 27 29 40 6 16 14 20 36 20 15 0 17 0 24 -6z m-711 0 l5 -5 -4 -4 c-2
-3 -7 -8 -11 -13 -5 -5 -7 -7 -8 -5 -2 1 -2 1 -2 -1 0 -3 -6 -17 -8 -18 -1 -1
-3 -4 -5 -7 -9 -14 -21 -27 -29 -32 l-9 -5 -5 5 c-2 3 -3 6 -3 7 5 8 0 42 -7
52 -5 6 -7 17 -4 15 1 -1 2 1 2 3 0 2 1 4 2 3 0 0 2 0 4 1 2 1 5 0 11 -5 8 -7
10 -7 23 -7 15 0 27 4 25 9 0 2 13 11 17 11 1 0 4 -2 6 -4z m-749 -4 c11 -10
3 -28 -11 -28 -9 0 -16 6 -16 16 0 14 17 22 27 12z m112 -22 c16 -7 16 -43 -1
-50 -15 -6 -34 -2 -39 9 -4 8 -4 24 0 32 5 12 23 15 40 9z m861 -112 c6 -3 9
-10 11 -22 1 -17 7 -30 17 -40 11 -12 15 -16 13 -16 -1 0 -4 -3 -5 -7 -2 -5
-6 -12 -9 -17 -4 -5 -9 -15 -12 -21 -4 -6 -8 -12 -9 -13 -2 -2 -7 -9 -12 -16
-15 -21 -42 -52 -66 -75 -6 -7 -12 -14 -12 -14 0 -1 -1 -4 -1 -6 -1 -2 -2 -13
-2 -23 0 -27 -2 -32 -16 -39 -7 -3 -17 -10 -24 -14 -23 -15 -28 -17 -38 -18
-13 0 -21 8 -21 21 0 5 0 12 0 15 0 9 7 15 31 31 24 15 31 20 42 29 4 3 9 7
10 8 3 2 18 31 22 43 4 12 6 33 3 46 -2 10 -13 36 -16 38 -1 1 -5 6 -9 12 -4
5 -9 10 -10 10 -2 0 -1 2 3 5 5 4 9 6 24 7 35 4 45 13 48 51 1 17 2 19 7 24 5
5 7 5 16 4 6 0 12 -2 15 -3z m-425 -42 c7 -7 8 -23 1 -36 -4 -7 -26 -5 -35 4
-8 8 -8 24 0 32 9 9 24 9 34 0z m-315 -29 c10 -5 14 -5 63 -5 l52 0 7 -6 c4
-3 6 -6 4 -6 -1 0 -2 -1 -2 -2 0 -3 -21 -47 -30 -61 -9 -15 -27 -44 -31 -48
-1 -2 -8 -12 -15 -21 -7 -9 -15 -19 -17 -22 -7 -7 -35 -40 -40 -46 -3 -2 -5
-5 -5 -6 0 -1 -2 1 -5 4 l-6 7 0 102 0 102 5 10 c5 9 5 10 7 6 1 -2 7 -6 13
-8z m488 -15 c9 -9 9 -26 0 -34 -6 -6 -7 -6 -19 -6 -16 1 -20 5 -21 21 0 12 0
13 6 19 8 9 25 9 34 0z m608 -15 c12 -5 17 -19 14 -39 -1 -7 -3 -15 -4 -18 -1
-4 -1 -6 0 -6 0 0 -1 -1 -4 -3 -4 -2 -6 -1 -22 6 -21 11 -23 13 -26 24 -2 10
0 23 6 30 7 8 24 11 36 6z m-738 -14 c7 -7 6 -20 -3 -33 -3 -6 -9 -17 -12 -24
-9 -20 -13 -23 -30 -21 -14 1 -36 4 -44 6 -3 1 -9 7 -15 15 -6 8 -11 14 -12
14 -1 0 -3 2 -5 4 -2 2 -5 4 -7 5 -15 7 -22 19 -14 27 5 5 12 4 26 -3 15 -7
32 -13 40 -12 12 2 32 11 40 20 5 5 10 9 13 9 6 1 19 -3 23 -7z m623 -35 c11
-10 3 -28 -11 -28 -9 0 -16 6 -16 16 0 14 17 22 27 12z m343 -64 c5 -5 5 -15
0 -20 -9 -9 -24 -2 -24 10 0 8 6 14 14 14 3 0 8 -2 10 -4z m-873 -39 c3 -5 6
-10 8 -11 6 -5 15 -26 14 -33 0 -3 -1 -19 -2 -34 -3 -79 -3 -75 -9 -81 l-5 -6
-43 0 c-43 0 -64 3 -64 8 0 1 -2 2 -4 2 -5 0 -4 1 1 2 3 1 5 4 5 5 0 2 1 3 2
3 1 0 4 4 7 10 6 11 13 16 25 15 10 -1 30 2 30 5 0 1 1 2 2 2 4 0 7 5 12 17 4
11 4 16 4 60 0 31 1 47 2 46 1 -1 2 0 2 2 0 1 1 3 3 4 2 0 3 2 3 4 0 2 1 0 2
-4 1 -4 3 -12 5 -16z m411 -69 c0 -41 1 -51 3 -57 4 -9 14 -21 18 -21 2 0 3
-1 3 -2 0 -1 1 -1 3 -2 1 0 5 0 9 -1 15 -2 32 14 39 39 5 16 10 20 26 20 11 0
14 -1 19 -5 5 -4 8 -5 20 -5 15 0 16 0 24 8 11 10 22 11 29 4 6 -6 7 -18 1
-25 -2 -3 -4 -5 -4 -4 0 0 -4 -1 -9 -3 -5 -2 -10 -4 -11 -3 -4 2 -17 -6 -28
-17 -19 -19 -23 -21 -61 -22 -41 -1 -46 -3 -56 -25 -3 -8 -7 -17 -8 -21 -2
-12 -9 -16 -24 -16 -15 0 -22 4 -24 16 -1 4 -5 15 -10 25 -5 10 -9 21 -10 24
-1 3 -2 7 -4 7 -1 1 -1 2 1 2 2 0 4 2 5 4 1 2 2 4 3 4 1 0 5 8 10 17 8 17 9
21 7 32 0 2 -1 5 -1 6 0 5 -13 18 -20 20 -9 4 -18 13 -18 17 0 2 1 4 2 4 1 0
5 8 10 17 11 22 13 24 31 25 l14 1 6 -7 5 -7 0 -49z m-571 55 c35 -8 42 -31
10 -34 -33 -4 -49 3 -49 19 0 13 7 19 23 17 6 0 14 -1 16 -2z m-85 -62 c0 -20
-1 -29 -3 -33 -3 -6 -9 -12 -9 -8 0 1 -1 2 -3 2 -1 0 -7 2 -12 4 -6 2 -15 6
-22 8 -7 3 -15 6 -19 8 -12 5 -13 15 -1 21 13 7 57 37 57 39 0 2 3 -1 6 -5 6
-8 6 -8 6 -36z m-283 31 c11 -10 3 -28 -11 -28 -9 0 -16 6 -16 16 0 14 17 22
27 12z m-100 -38 c11 -10 3 -28 -11 -28 -9 0 -16 6 -16 16 0 14 17 22 27 12z
m869 -80 c3 -6 3 -6 -2 -11 -6 -6 -9 -6 -14 -1 -5 6 -5 8 -1 14 4 6 12 5 17
-2z m-145 -1 c12 -12 3 -31 -13 -31 -11 0 -18 7 -18 18 0 11 7 18 18 18 6 0 9
-1 13 -5z m-364 -16 c3 -5 3 -5 0 -10 -2 -3 -5 -5 -7 -5 -2 0 -5 2 -7 5 -3 5
-3 5 0 10 2 3 5 5 7 5 2 0 5 -2 7 -5z m118 -62 c5 -5 -1 -9 -7 -5 -2 1 -2 2 0
5 4 4 4 4 7 0z m167 -27 c11 -6 14 -9 19 -20 4 -9 4 -12 3 -26 -1 -8 -2 -16
-2 -18 1 -3 -12 -16 -16 -16 -3 0 -23 -9 -26 -12 -5 -5 -16 -10 -21 -10 -5 0
-15 5 -22 10 -2 2 -10 6 -17 9 -11 5 -15 5 -32 5 -19 -1 -19 -1 -25 5 -6 6 -6
7 -6 24 0 17 0 18 6 24 l6 6 33 0 c28 0 35 1 43 4 5 2 9 4 9 5 0 1 2 2 4 3 1
0 7 3 11 6 10 6 22 7 33 1z m520 -8 c8 -7 8 -15 2 -38 -3 -10 -5 -19 -5 -20 1
-1 0 -2 -1 -2 -1 0 -4 -2 -7 -5 l-6 -6 -84 1 -84 0 -5 5 c-5 6 -5 6 -3 21 2 8
3 16 3 18 -1 2 2 5 5 8 l6 6 58 0 58 1 22 9 c24 11 33 11 41 2z m-373 -18 c10
-9 3 -26 -10 -26 -8 0 -15 7 -15 15 0 13 16 20 25 11z m528 -84 c10 -9 3 -26
-10 -26 -8 0 -15 7 -15 15 0 13 16 20 25 11z m-98 -41 c5 -5 7 -16 3 -23 -3
-5 -7 -7 -27 -14 -27 -10 -40 -30 -39 -61 1 -11 0 -12 -5 -18 l-6 -6 -106 1
-107 0 -5 5 c-5 5 -5 5 -2 14 4 10 3 23 -3 41 -5 17 -5 24 1 30 7 7 22 5 43
-5 30 -15 30 -15 94 -15 50 0 59 0 66 3 8 3 19 10 22 13 1 1 2 2 4 3 2 1 10 8
19 16 24 22 38 27 48 16z m-581 -57 l5 -5 -5 -20 c-3 -11 -6 -22 -6 -24 -1 -2
-4 -6 -8 -9 -7 -6 -8 -6 -27 -6 -31 0 -44 -9 -54 -38 -7 -18 -11 -22 -24 -22
-14 0 -17 5 -17 29 0 12 -1 22 -1 24 -1 2 -2 17 -3 34 l-1 32 6 6 6 6 62 -1
62 0 5 -6z m156 -11 c-2 -2 -3 -5 -3 -6 1 0 0 -1 -2 -1 -2 0 -3 1 -2 2 0 1 -1
3 -3 5 -4 4 -4 4 0 8 l5 5 4 -4 5 -5 -4 -4z m-84 7 c5 -5 5 -15 0 -20 -9 -9
-24 -2 -24 10 0 8 6 14 14 14 3 0 8 -2 10 -4z m81 -52 c9 -6 11 -10 11 -21 0
-13 -6 -19 -20 -19 -14 0 -20 6 -20 20 0 9 1 11 7 17 8 8 13 9 22 3z m-799
-51 c4 -4 4 -4 0 -8 l-5 -5 -4 4 c-5 4 -5 5 -2 8 4 5 7 5 11 1z m878 -35 c5
-6 5 -12 0 -18 -7 -8 -22 -2 -22 9 0 11 15 17 22 9z m247 -52 c2 -3 4 -6 3 -6
0 -1 -4 -6 -7 -13 -6 -12 -19 -25 -49 -53 -17 -16 -23 -25 -25 -41 -1 -10 0
-13 15 -51 9 -23 17 -41 18 -42 1 0 -1 -3 -4 -6 -6 -6 -7 -6 -24 -6 -15 1 -18
2 -22 6 l-5 5 -1 101 -1 101 6 6 6 6 42 -1 42 -1 6 -5z m174 -45 c9 -10 19
-29 19 -38 0 -11 -15 -11 -27 -1 -2 2 -5 4 -6 4 -7 0 -18 16 -17 26 1 16 19
22 31 9z m54 -148 c7 -8 7 -13 0 -20 l-6 -5 -27 0 c-18 1 -28 2 -30 3 -2 2 -4
2 -5 2 -1 -1 -1 0 0 1 1 3 0 4 -3 5 -4 0 -4 1 1 1 3 0 17 4 31 9 30 10 33 11
39 4z m-841 -10 c6 -6 6 -22 0 -28 -9 -10 -47 -12 -56 -3 -11 11 2 27 27 34
16 4 23 3 29 -3z m926 -118 c3 -3 4 -7 4 -14 0 -13 -6 -19 -19 -19 -13 0 -19
6 -19 19 0 7 1 11 4 14 7 8 23 8 30 0z m-1070 -9 c5 -6 5 -12 0 -18 -7 -8 -22
-2 -22 9 0 11 15 17 22 9z m1265 -9 c5 -8 1 -16 -8 -16 -9 0 -13 8 -8 16 2 3
5 5 8 5 3 0 6 -2 8 -5z m-426 -6 c3 -5 3 -5 0 -10 -2 -3 -5 -5 -7 -5 -2 0 -5
2 -7 5 -3 5 -3 5 0 10 2 3 5 5 7 5 2 0 5 -2 7 -5z m135 -31 c5 -6 5 -12 0 -18
-7 -8 -22 -2 -22 9 0 11 15 17 22 9z"/>
<path d="M1868 2359 c0 -1 -1 -3 -3 -4 -5 -4 -13 -21 -13 -28 0 -9 6 -22 14
-27 8 -6 17 -4 28 4 15 12 19 30 10 46 l-5 9 -16 1 c-8 1 -15 0 -15 -1z"/>
</g>
</svg>
