<?xml version="1.0" standalone="no"?>
<!DOCTYPE svg PUBLIC "-//W3C//DTD SVG 20010904//EN"
 "http://www.w3.org/TR/2001/REC-SVG-20010904/DTD/svg10.dtd">
<svg version="1.0" xmlns="http://www.w3.org/2000/svg"
 width="1113.000000pt" height="2870.000000pt" viewBox="0 0 1113.000000 2870.000000"
 preserveAspectRatio="xMidYMid meet">
<metadata>
Created by potrace 1.15, written by Peter Selinger 2001-2017
</metadata>
<g transform="translate(0.000000,2870.000000) scale(0.500000,-0.500000)"
fill="#000000" stroke="none">
<path d="M453 3826 c-4 -2 -15 -6 -24 -10 -23 -12 -34 -11 -47 2 -5 4 -7 5
-19 3 -8 0 -15 -2 -17 -4 -8 -7 -8 -15 -8 -155 l1 -135 -6 -6 -6 -6 -113 1
c-119 0 -123 0 -135 -9 -6 -5 -11 -15 -11 -27 -1 -6 13 -52 17 -60 10 -20 27
-28 58 -28 23 0 36 4 51 17 21 17 39 16 61 -1 15 -13 28 -16 52 -16 l20 1 6
-6 6 -6 0 -108 0 -108 -6 -6 -6 -6 -138 1 c-146 0 -148 0 -160 -9 -6 -5 -11
-15 -11 -27 -1 -6 13 -52 17 -60 5 -11 16 -20 27 -24 9 -4 15 -4 78 -4 l68 0
20 7 c11 4 24 7 29 7 5 0 18 -3 29 -7 l20 -7 83 0 82 0 8 -6 c4 -3 6 -6 5 -6
-2 0 -5 -2 -6 -5 -2 -4 -6 -8 -8 -11 -5 -6 -4 -5 -23 -29 -21 -26 -23 -28 -30
-31 -11 -4 -27 -1 -63 13 -3 2 -13 5 -23 9 -10 3 -24 8 -32 11 -8 3 -15 6 -16
6 -2 0 -8 2 -15 5 -4 2 -17 1 -22 -2 -2 -1 -4 -2 -4 -1 0 1 -2 -2 -5 -5 -5 -5
-6 -9 -6 -17 -1 -6 0 -11 1 -12 1 0 3 -7 5 -14 l3 -12 -6 -19 -7 -19 -1 -72
c-1 -71 -1 -72 -6 -82 -3 -5 -8 -12 -11 -15 -3 -3 -10 -9 -15 -13 -5 -5 -10
-9 -10 -9 -3 0 -7 -11 -8 -19 0 -5 1 -15 3 -22 3 -11 3 -14 0 -16 -3 -3 -14
-1 -23 5 -5 4 -32 6 -32 3 0 -1 -5 -6 -10 -10 -6 -4 -12 -9 -13 -10 -3 -3 -14
-11 -31 -24 -7 -5 -14 -11 -15 -12 -1 -1 -5 -3 -7 -5 -2 -2 -9 -7 -15 -11 -6
-4 -13 -10 -16 -12 -14 -10 -17 -36 -6 -48 2 -2 5 -6 6 -9 6 -8 21 -15 34 -15
10 0 15 2 31 9 27 14 70 37 87 47 8 5 15 9 16 9 2 0 28 17 29 19 1 2 10 -9 13
-17 6 -14 12 -23 17 -28 20 -21 20 -35 0 -56 -3 -3 -8 -10 -11 -16 -6 -10 -6
-13 -6 -34 0 -32 3 -38 31 -61 18 -13 18 -37 0 -50 -16 -14 -22 -20 -26 -28
-8 -18 -7 -29 6 -55 9 -16 9 -24 0 -40 -10 -20 -12 -28 -12 -46 0 -17 2 -24
10 -43 6 -13 6 -27 0 -40 -8 -18 -10 -27 -10 -39 1 -10 6 -29 9 -32 3 -2 7 -8
11 -18 5 -9 3 -17 -4 -27 -8 -10 -4 -39 5 -39 2 0 3 -1 3 -2 0 -5 84 -3 112 3
6 1 16 8 21 13 6 6 13 28 13 39 0 10 4 15 16 21 16 9 21 9 24 4 2 -3 3 -6 2
-6 0 -1 4 -5 10 -8 8 -6 10 -7 23 -7 14 0 14 0 21 8 21 23 23 33 22 104 -2 62
-1 63 9 60 3 -1 7 -4 10 -11 12 -24 33 -32 54 -22 12 6 21 27 17 39 -1 2 -1 7
-1 11 3 25 43 25 46 0 0 -4 0 -9 -1 -11 -1 -2 -1 -8 0 -13 5 -23 16 -31 42
-30 17 1 17 1 23 -5 5 -6 6 -8 6 -19 0 -13 3 -20 15 -42 8 -14 8 -24 0 -38
-15 -26 -17 -32 -14 -43 5 -17 27 -30 51 -29 23 1 29 5 39 25 7 13 13 19 18
18 1 0 4 -1 4 -1 1 0 7 -5 13 -11 12 -12 16 -14 28 -16 15 -2 77 22 106 40 28
17 37 36 37 71 0 19 -1 26 -7 40 -11 23 -11 37 -3 60 8 20 8 33 2 43 -6 10
-19 21 -27 22 -6 1 -37 0 -44 -1 -14 -3 -23 5 -23 21 0 17 7 23 25 21 2 0 11
-3 19 -7 27 -14 41 -10 53 14 l5 11 0 234 c0 250 0 248 10 257 2 2 12 6 23 8
32 8 41 16 41 33 0 21 0 22 -34 47 -13 10 -23 18 -24 19 -1 1 -8 6 -17 13 -9
7 -16 12 -17 13 -1 1 -4 3 -8 6 -4 3 -7 5 -8 6 -1 1 -8 7 -17 13 -9 7 -18 14
-21 16 -3 3 -12 9 -21 13 -18 10 -31 18 -35 25 -9 13 -30 30 -39 32 -16 4 -30
1 -35 -8 -5 -8 -7 -23 -3 -34 5 -17 4 -30 -3 -37 -3 -3 -7 -6 -9 -6 -11 -1
-19 0 -26 2 -15 4 -37 -3 -44 -13 -5 -8 -25 -15 -41 -15 -14 0 -32 -4 -40 -9
-22 -15 -41 -17 -51 -8 -6 4 -6 6 -6 20 0 15 0 16 6 20 6 5 6 5 27 4 24 -1 35
1 45 8 15 11 16 31 3 52 -5 8 -6 21 -2 29 8 17 35 53 41 57 14 7 24 3 36 -14
7 -11 21 -20 32 -22 4 -1 88 -1 185 -1 l177 1 6 -5 5 -5 0 -268 c0 -256 0
-268 4 -276 5 -11 10 -15 26 -23 16 -7 18 -10 22 -21 3 -14 -1 -23 -11 -23
-24 0 -30 -3 -37 -19 -4 -8 -4 -18 -4 -236 l0 -228 7 -8 c3 -4 8 -7 11 -8 3 0
9 -2 14 -3 4 -1 9 -1 9 0 3 4 19 2 31 -4 12 -5 17 -7 26 -10 19 -5 76 9 120
31 27 13 34 20 44 40 4 8 11 18 19 26 7 7 14 17 17 22 l4 9 0 192 0 192 5 5
c2 3 5 7 6 9 0 3 1 2 1 0 0 -2 4 -5 13 -8 16 -6 38 -19 46 -26 4 -4 9 -11 11
-17 5 -11 10 -17 12 -16 1 1 1 -1 1 -4 0 -3 0 -5 1 -5 1 0 2 -1 1 -2 -2 -3 -2
-37 0 -42 2 -7 6 -59 8 -114 2 -52 19 -63 85 -53 43 6 75 16 85 26 15 14 25
20 40 23 14 3 15 5 15 26 1 13 0 14 -4 18 -17 11 -16 29 2 35 12 4 40 7 55 6
28 -3 40 5 54 34 18 38 19 43 16 79 l-1 19 11 22 c13 26 16 40 14 74 0 16 -2
24 -7 39 -7 19 -7 21 -3 58 3 28 -24 112 -58 177 -29 55 -38 67 -66 81 -17 10
-17 10 -24 33 -7 23 -11 30 -25 45 -10 10 -13 13 -19 13 -13 2 -24 -2 -34 -12
-11 -10 -22 -13 -42 -10 -25 3 -34 11 -34 30 0 12 3 18 14 27 7 7 8 8 9 21 1
15 -2 21 -14 27 -15 9 -17 21 -6 34 3 5 9 12 13 16 3 5 7 10 8 11 1 1 3 4 5 7
2 2 9 12 15 21 7 9 16 23 20 31 4 9 12 20 19 27 13 14 16 22 20 50 3 19 5 23
18 31 18 9 30 20 40 36 13 20 13 29 3 50 -9 17 -10 28 -3 35 4 4 7 5 24 6 29
1 35 4 52 33 8 12 14 23 14 23 0 0 4 6 8 13 9 13 17 18 33 21 24 4 47 15 65
33 14 14 14 14 16 29 1 17 1 17 -70 80 -25 22 -33 29 -45 40 -2 2 -11 10 -19
17 -17 15 -21 19 -34 31 -5 4 -16 14 -24 21 -8 7 -16 14 -17 15 -2 2 -22 20
-40 36 -16 14 -18 15 -32 15 -8 0 -14 -1 -18 -4 -3 -2 -29 -26 -57 -54 -34
-34 -54 -52 -60 -55 -8 -4 -12 -4 -57 -4 -35 0 -51 1 -58 3 -8 2 -75 31 -89
38 -2 1 -8 4 -14 7 -6 2 -20 9 -31 14 -10 5 -19 9 -20 9 -1 0 -30 13 -44 20
-4 2 -14 6 -21 10 -7 3 -21 9 -31 14 -17 8 -23 9 -34 7 -2 0 -5 -1 -5 -1 -4 0
-16 -13 -16 -16 0 -2 -1 -4 -2 -5 -1 -1 -2 -19 -2 -49 0 -41 0 -48 -3 -52 -5
-7 -9 -10 -9 -8 -1 1 -75 38 -185 92 -32 16 -34 16 -43 15 -17 -2 -27 -10 -32
-25 -2 -7 -3 -9 -5 -20 0 -2 -3 -8 -6 -12 -7 -11 -10 -25 -9 -46 0 -29 -2 -36
-16 -50 l-12 -12 0 -13 c1 -10 2 -17 5 -23 6 -11 7 -26 1 -32 -4 -5 -15 -8
-24 -6 -12 3 -13 5 -13 35 0 32 -2 35 -21 49 -11 7 -17 10 -27 12 -25 5 -56
-1 -69 -13 -5 -5 -33 -46 -36 -53 -1 -3 -2 -4 -2 -2 0 1 -2 4 -4 6 -3 2 -5 6
-5 14 -1 6 -2 14 -3 17 -2 6 -11 17 -14 17 -3 1 -4 1 -8 2 -10 4 -15 5 -19 4
-6 -2 -18 1 -21 6 -5 6 -5 24 0 30 3 5 15 8 21 6 4 -1 9 0 19 4 2 0 3 1 4 1 6
2 10 4 12 7 5 8 24 26 27 26 2 0 20 12 26 19 8 8 17 25 24 42 8 20 1 39 -17
48 -9 5 -38 9 -64 9 -13 1 -31 -13 -37 -27 -2 -5 -5 -9 -6 -9 -1 0 -1 -1 0 -2
0 -1 -1 -3 -4 -6 -10 -9 -33 -3 -33 8 0 6 -10 28 -15 34 -6 7 -18 12 -36 13
-9 1 -20 1 -24 2 -4 0 -11 0 -16 -1z m475 -120 c8 -7 2 -19 -8 -19 -5 0 -12 7
-12 12 0 4 10 11 14 11 1 -1 4 -3 6 -4z m341 -57 c12 -12 3 -31 -13 -31 -11 0
-18 7 -18 18 0 11 7 18 18 18 6 0 9 -1 13 -5z m151 -12 c5 -5 5 -13 1 -30 -4
-14 -5 -34 -3 -47 1 -4 0 -7 -1 -7 -1 0 -2 -2 -3 -5 -2 -7 -10 -12 -19 -12
-14 0 -15 0 -21 6 -8 8 -8 22 0 40 6 13 12 38 12 47 0 13 23 18 34 8z m-321
-10 c12 -12 3 -31 -13 -31 -11 0 -18 7 -18 18 0 11 7 18 18 18 6 0 9 -1 13 -5z
m576 -2 c12 -7 14 -33 3 -43 -8 -9 -32 -9 -40 0 -9 8 -9 32 0 41 7 7 27 8 37
2z m165 -13 c4 -4 5 -10 2 -20 -4 -15 -5 -30 -3 -44 4 -19 0 -32 -10 -37 -12
-7 -36 -3 -40 6 -3 7 -8 39 -7 39 1 0 2 1 1 2 0 1 -1 5 -1 9 -1 7 -1 8 -5 8
-3 0 -5 -1 -5 -1 0 -5 -17 1 -25 9 -11 9 -3 27 11 27 7 0 14 -4 14 -7 0 -5 7
-7 22 -7 17 0 21 1 23 11 3 9 16 12 23 5z m-270 -74 c3 -3 5 -6 5 -6 -1 -2 -3
-12 -4 -29 -1 -9 -2 -19 -2 -22 0 -3 -2 -19 -4 -35 -2 -16 -4 -32 -4 -35 -2
-18 -5 -39 -6 -48 -1 -5 -1 -13 -2 -16 -1 -3 -1 -9 -2 -13 0 -4 -3 -26 -7 -50
-7 -47 -6 -54 4 -64 3 -3 10 -7 16 -9 11 -3 12 -3 28 1 9 2 21 6 27 8 19 8 40
5 45 -7 5 -12 3 -32 -3 -38 -3 -4 -12 -5 -33 -6 -10 -1 -24 -2 -31 -3 -15 -3
-26 -3 -30 0 -2 2 -6 2 -15 0 -24 -4 -26 -7 -34 -52 -3 -19 -8 -45 -10 -58 -4
-21 -4 -34 -1 -48 1 -5 6 -14 23 -39 24 -36 30 -46 43 -73 20 -43 32 -73 45
-119 3 -11 8 -36 15 -70 2 -11 9 -92 9 -100 0 -4 6 -9 7 -7 1 1 2 -1 5 -4 2
-2 5 -4 6 -3 1 1 2 0 2 -1 0 -1 2 -4 5 -6 2 -3 3 -4 1 -3 -2 1 -1 0 1 -2 2 -2
3 -3 2 -3 -1 0 -1 -1 0 -2 3 -2 9 -13 9 -16 0 -1 1 -4 3 -5 6 -4 4 -21 -2 -26
-4 -5 -6 -5 -16 -5 -28 2 -38 1 -54 -5 -10 -3 -24 -6 -39 -7 -12 -1 -24 -3
-27 -4 -12 -8 -17 -11 -23 -19 -9 -11 -20 -17 -32 -16 -15 1 -23 1 -24 -1 0
-2 -4 2 -9 13 -3 6 -3 23 -3 125 0 114 0 118 -4 126 -6 12 -23 19 -45 18 -13
0 -27 7 -42 23 -20 21 -19 38 4 63 29 31 30 32 37 32 15 0 33 6 38 13 3 5 4
19 0 23 -1 1 -2 3 -1 4 2 3 -24 11 -35 12 -19 0 -19 42 1 42 10 0 28 6 36 13
9 8 11 17 11 43 0 28 -5 40 -19 51 -20 13 -25 20 -25 30 0 12 -4 29 -9 37 -2
3 -8 9 -14 14 -11 11 -16 23 -14 34 2 7 9 22 11 22 1 0 2 1 2 3 0 1 1 3 2 3 2
1 11 22 13 33 2 5 9 13 12 13 1 0 4 1 7 3 3 1 8 3 10 4 13 3 24 20 24 36 0 6
-11 43 -14 49 -4 7 -4 17 -1 20 2 1 6 11 9 22 l6 19 0 58 c0 46 -1 59 -2 59
-2 0 -1 1 1 2 3 1 6 4 8 6 l4 5 49 -1 50 0 6 -6z m-420 -2 c8 -4 23 -18 30
-30 5 -6 5 -19 1 -30 -3 -6 -4 -16 -4 -34 -1 -28 -2 -32 -17 -56 -6 -10 -7
-16 -8 -121 -1 -104 -1 -106 -6 -117 -9 -21 -25 -30 -40 -21 -5 4 -18 25 -18
31 0 3 -7 23 -8 25 -2 1 -23 2 -33 0 -4 0 -7 -7 -10 -21 -2 -8 -9 -12 -20 -12
-11 0 -19 4 -20 12 -9 41 -26 62 -50 62 -15 0 -16 2 -18 25 0 11 -2 24 -4 29
-8 23 -3 33 20 35 29 2 37 7 54 34 48 76 53 85 57 114 3 17 2 16 27 40 6 5 13
14 17 21 10 19 30 24 50 14z m-603 -8 c16 -7 16 -43 -1 -50 -15 -6 -34 -2 -39
9 -4 8 -4 24 0 32 5 12 23 15 40 9z m195 -11 c5 -4 18 -23 18 -28 0 -2 1 -3 3
-3 1 0 6 -1 10 -1 40 -2 56 -12 58 -35 2 -14 -3 -19 -20 -22 -20 -3 -21 -3
-49 -17 -30 -15 -41 -25 -50 -42 -3 -5 -12 -22 -21 -37 -8 -15 -18 -31 -20
-36 -3 -5 -8 -13 -11 -18 -3 -4 -6 -9 -6 -10 0 -1 -1 -3 -3 -4 -2 -1 -3 -4 -3
-6 0 -6 -15 -4 -21 3 -2 3 -5 7 -7 9 -13 15 -13 28 3 45 9 10 13 23 12 46 0
19 0 20 6 26 6 6 7 6 20 5 8 0 18 1 22 2 14 3 26 19 30 37 1 3 3 8 5 10 1 2 3
9 4 18 1 15 1 17 -4 26 -7 14 -8 24 -1 30 6 6 18 7 25 2z m996 -27 c5 -5 5
-11 0 -16 -10 -10 -27 5 -16 16 4 4 12 4 16 0z m-478 -65 c0 -6 9 -37 12 -43
4 -7 3 -24 -1 -31 -3 -8 -12 -12 -24 -12 -27 0 -36 23 -21 51 4 7 9 19 12 27
2 8 5 15 8 17 5 4 5 4 10 0 2 -3 4 -7 4 -9z m132 -20 c2 -2 7 -9 9 -14 l5 -11
-7 -9 c-9 -11 -13 -12 -32 -11 -2 0 -6 3 -9 6 -5 5 -6 7 -6 17 0 14 3 20 12
24 8 3 22 2 28 -2z m268 -19 c5 -5 5 -11 0 -16 -10 -10 -27 5 -16 16 4 4 12 4
16 0z m-899 -97 c8 -10 13 -28 14 -45 2 -15 1 -16 -5 -22 -8 -8 -25 -9 -33 -1
-12 10 -16 60 -7 70 8 9 24 8 31 -2z m-358 -26 c5 -8 1 -16 -8 -16 -9 0 -13 8
-8 16 2 3 5 5 8 5 3 0 6 -2 8 -5z m921 -8 l-5 -5 -4 4 -5 5 4 4 5 5 4 -4 5 -5
-4 -4z m-810 -65 c5 -5 6 -7 6 -17 0 -16 -7 -23 -23 -23 -16 0 -23 7 -23 23 0
16 7 23 23 23 10 0 12 -1 17 -6z m97 1 c8 -12 1 -29 -13 -29 -20 0 -22 29 -2
33 10 1 12 1 15 -4z m292 -18 c3 -12 7 -19 14 -23 3 -1 5 -4 6 -6 1 -2 2 -4 3
-4 1 0 2 -3 2 -7 0 -11 -5 -15 -19 -15 -15 0 -25 -1 -40 -6 -14 -5 -20 -5 -25
0 -9 9 -5 19 18 42 8 8 18 19 22 23 10 11 16 9 19 -4z m421 -34 c21 -9 20 -45
-2 -54 -10 -5 -28 -1 -34 6 -9 10 -9 32 0 42 7 8 24 11 36 6z m-670 -31 c5 -6
5 -12 0 -18 -7 -8 -22 -2 -22 9 0 11 15 17 22 9z m-281 -13 c3 -5 3 -5 0 -10
-2 -3 -5 -5 -7 -5 -2 0 -5 2 -7 5 -3 5 -3 5 0 10 2 3 5 5 7 5 2 0 5 -2 7 -5z
m-34 -189 c16 -7 16 -43 -1 -50 -15 -6 -34 -2 -39 9 -4 8 -4 24 0 32 5 12 23
15 40 9z m196 -5 c4 -4 5 -7 5 -15 0 -14 -6 -20 -20 -20 -14 0 -20 6 -20 20 0
14 6 20 20 20 8 0 11 -1 15 -5z m760 -42 c4 -4 5 -7 5 -15 0 -14 -6 -20 -20
-20 -14 0 -20 6 -20 20 0 14 6 20 20 20 8 0 11 -1 15 -5z m-559 -32 c5 -4 12
-9 15 -10 9 -4 30 -6 32 -3 1 1 7 2 14 2 11 0 14 -1 18 -5 6 -4 6 -6 6 -20 0
-14 0 -16 -6 -20 -8 -8 -28 -7 -37 1 -14 11 -18 13 -33 12 -14 -1 -14 -1 -18
-9 -9 -15 -9 -25 -9 -119 l1 -89 -6 -6 -6 -6 -91 0 -91 0 -6 6 -6 6 1 75 c0
96 0 99 -27 106 -13 4 -18 10 -19 24 0 11 0 12 5 17 7 7 17 7 32 -2 29 -17 23
-16 89 -16 65 0 64 0 73 16 6 11 15 21 19 21 2 0 2 0 1 2 -2 1 -1 4 4 11 8 12
8 13 24 13 12 0 13 -1 21 -7z m-91 -6 c1 -3 -1 -9 -2 -9 -1 0 -3 1 -4 3 -3 2
-3 3 -1 6 4 4 5 4 7 0z m-326 -38 c3 -3 3 -3 0 -6 -4 -5 -11 1 -7 6 4 4 4 4 7
0z m1474 -25 c4 -6 4 -23 0 -29 -7 -10 -32 -11 -39 -2 -7 7 -4 26 5 33 8 7 27
6 34 -2z m-1330 -36 c5 -22 0 -31 -19 -39 -6 -3 -14 -6 -17 -8 -28 -16 -29
-16 -46 -15 -2 0 -6 3 -9 6 -5 5 -6 7 -6 18 0 16 4 20 23 27 9 3 19 7 22 9 7
4 17 7 31 12 13 4 19 2 21 -10z m-192 -63 c4 -4 5 -7 5 -15 0 -14 -6 -20 -20
-20 -14 0 -20 6 -20 20 0 14 6 20 20 20 8 0 11 -1 15 -5z m1424 -55 l-4 -6 -5
5 -4 5 4 5 5 5 4 -4 5 -4 -5 -6z m169 -105 l-5 -5 -4 4 -5 5 4 4 5 5 4 -4 5
-5 -4 -4z m-1129 -37 c14 -3 20 -7 22 -17 1 -6 -6 -23 -9 -23 -4 0 -22 -20
-26 -29 -4 -9 -4 -14 -4 -62 0 -58 1 -66 10 -75 6 -5 25 -12 31 -10 6 2 20 1
25 -1 22 -9 23 -45 2 -54 -13 -5 -25 -3 -41 9 -10 7 -21 13 -32 16 -3 2 -46 3
-98 4 -87 1 -93 2 -104 6 -6 2 -14 4 -18 4 -3 0 -7 1 -8 2 -2 2 -11 3 -53 5
-31 2 -36 4 -36 17 0 10 6 16 17 16 7 0 10 1 14 5 6 7 8 15 3 15 -2 0 -2 1 0
1 1 1 2 4 2 7 0 4 0 4 -2 2 -2 -3 -2 -3 -2 0 0 7 -9 14 -18 14 -16 0 -25 9
-25 27 0 19 9 28 28 28 13 0 22 -5 25 -13 6 -15 13 -30 14 -30 1 0 1 -1 1 -3
-1 -3 5 -7 10 -7 1 0 5 0 8 -2 12 -5 31 6 38 21 5 11 5 12 5 48 l-1 38 6 6 6
6 57 -1 c68 0 69 0 92 20 12 11 13 12 25 12 14 1 19 1 36 -2z m93 -51 c6 -7 6
-22 -1 -28 -6 -7 -22 -7 -28 -1 -7 7 -7 20 -2 27 7 10 23 10 31 2z m402 -17
c4 -5 8 -10 8 -13 0 -10 -14 -17 -21 -10 -12 11 -10 29 4 31 0 0 5 -4 9 -8z
m136 -17 l-5 -5 -4 4 -5 5 4 4 5 5 4 -4 5 -5 -4 -4z m247 -4 c7 -7 7 -19 0
-26 -6 -6 -17 -7 -25 -2 -6 4 -12 13 -8 13 1 0 2 1 1 2 -2 3 4 13 8 16 7 4 19
2 24 -3z m-318 -54 c5 -8 1 -16 -8 -16 -9 0 -13 8 -8 16 2 3 5 5 8 5 3 0 6 -2
8 -5z m-400 -4 c6 -6 7 -18 1 -26 -6 -7 -20 -7 -27 0 -12 12 -3 31 13 31 6 0
9 -1 13 -5z m500 -67 c2 0 6 -3 9 -6 5 -5 6 -7 6 -18 0 -11 -1 -13 -6 -18 -6
-7 -5 -6 -32 -6 -45 0 -55 4 -55 24 0 16 7 21 27 23 12 2 34 2 51 1z m-1023
-122 c5 -6 5 -12 0 -18 -7 -8 -22 -2 -22 9 0 11 15 17 22 9z m492 -65 c20 -9
20 -46 0 -53 -14 -6 -29 -3 -36 5 -9 10 -9 32 0 42 7 8 24 11 36 6z m-410 -27
c5 -5 5 -13 1 -15 -2 0 -3 -2 -3 -4 0 -1 -2 -3 -5 -4 -6 -1 -10 0 -8 3 1 1 0
2 -1 2 -1 0 -2 3 -3 7 -2 12 11 19 19 11z"/>
<path d="M979 3284 c-6 -1 -6 -2 -6 -12 -1 -13 1 -18 9 -26 7 -8 16 -9 26 -4
8 4 11 11 9 23 -2 16 -15 23 -38 19z"/>
</g>
</svg>
