<?xml version="1.0" standalone="no"?>
<!DOCTYPE svg PUBLIC "-//W3C//DTD SVG 20010904//EN"
 "http://www.w3.org/TR/2001/REC-SVG-20010904/DTD/svg10.dtd">
<svg version="1.0" xmlns="http://www.w3.org/2000/svg"
 width="1114.000000pt" height="2870.000000pt" viewBox="0 0 1114.000000 2870.000000"
 preserveAspectRatio="xMidYMid meet">
<metadata>
Created by potrace 1.15, written by Peter Selinger 2001-2017
</metadata>
<g transform="translate(0.000000,2870.000000) scale(0.500000,-0.500000)"
fill="#000000" stroke="none">
<path d="M347 3850 c-23 -4 -31 -17 -36 -56 -1 -10 -10 -60 -14 -81 -3 -18 -2
-25 6 -51 10 -30 8 -37 -15 -57 -13 -10 -21 -22 -27 -43 -3 -9 -9 -28 -13 -41
-5 -13 -8 -25 -9 -26 -1 -6 -26 -68 -31 -80 -2 -5 -4 -10 -4 -10 0 -3 -34 -71
-43 -86 -5 -8 -9 -16 -9 -16 0 -1 -11 -18 -22 -35 -4 -6 -8 -13 -8 -14 -1 -2
-5 -5 -9 -8 -15 -10 -23 -21 -27 -33 -2 -7 -3 -14 -2 -16 2 -6 0 -16 -6 -31
-7 -14 -7 -28 -1 -37 9 -14 57 -17 66 -4 3 6 8 30 5 32 -3 2 -4 16 -2 24 2 10
7 15 18 17 13 3 22 0 35 -12 12 -10 35 -20 49 -20 8 0 14 -6 24 -24 9 -15 21
-24 34 -25 5 0 9 -2 13 -6 l6 -6 0 -46 0 -46 -6 -6 c-6 -6 -7 -6 -20 -5 -14 0
-23 -2 -31 -9 -4 -4 -11 -15 -9 -15 1 0 0 -2 -1 -4 -1 -3 -3 -11 -4 -19 -2
-19 -7 -23 -25 -23 -18 0 -23 4 -27 27 -3 17 -11 30 -22 36 -9 6 -10 6 -34 6
-30 0 -38 -3 -45 -16 -10 -19 -2 -34 27 -45 17 -6 24 -12 24 -18 0 -7 8 -26
15 -33 9 -10 16 -11 66 -11 44 0 45 0 65 6 22 7 36 8 41 4 2 -2 7 -2 17 -1 14
1 23 5 35 14 3 3 7 5 9 5 25 2 33 -5 32 -27 -1 -15 -10 -30 -23 -37 -9 -5 -14
-5 -33 1 -11 3 -24 3 -32 -1 -11 -5 -21 -31 -20 -52 1 -12 1 -13 -5 -19 l-6
-6 -84 0 c-77 0 -85 0 -91 -4 -9 -4 -13 -10 -17 -23 -2 -10 -2 -11 6 -36 17
-50 27 -60 69 -60 23 0 28 1 36 8 5 5 13 30 10 33 -4 4 -2 17 3 22 11 11 31 4
31 -13 0 -4 -1 -8 -2 -9 -3 -4 5 -28 11 -34 6 -5 17 -8 21 -6 1 1 6 2 10 2 6
1 10 3 15 8 8 10 20 17 26 17 9 0 16 -12 11 -19 -2 -3 -17 -13 -20 -13 -1 0
-6 -3 -10 -7 -14 -14 -15 -31 -1 -40 7 -5 22 -11 27 -11 2 0 5 -3 7 -5 3 -5 3
-5 0 -10 -2 -2 -5 -5 -7 -5 -9 0 -34 -13 -34 -17 0 -1 -3 -4 -7 -6 -4 -1 -8
-4 -8 -5 -1 -2 -6 -3 -19 -2 -29 1 -40 -6 -54 -33 -7 -14 -10 -17 -22 -17 -12
0 -15 3 -22 17 -15 29 -24 34 -60 33 -33 -1 -41 -6 -47 -28 -2 -10 -2 -11 6
-35 10 -31 13 -38 23 -47 14 -14 18 -14 111 -14 l82 1 6 -6 6 -6 -1 -42 c-1
-42 -1 -43 -6 -48 -4 -5 -7 -6 -16 -6 -46 -2 -130 -11 -138 -15 -14 -6 -23
-20 -29 -44 -2 -8 -11 -17 -17 -17 -6 0 -22 6 -30 10 -4 2 -10 3 -13 3 -4 -1
-7 0 -8 1 0 1 -1 1 -1 -1 0 -1 -1 -2 -2 -1 -4 2 3 -35 10 -53 7 -17 7 -17 26
-16 l16 1 8 11 c9 13 14 15 24 11 3 -2 6 -2 6 -2 1 1 4 -2 7 -5 8 -9 8 -24 -1
-32 -5 -6 -6 -6 -20 -6 -8 0 -15 1 -16 1 -4 3 -12 -2 -15 -8 -7 -14 -5 -24 13
-63 6 -13 14 -31 18 -41 4 -10 11 -27 16 -37 5 -10 11 -26 15 -34 13 -29 19
-36 31 -40 16 -5 23 -2 43 18 15 14 27 22 44 26 13 4 21 14 25 31 1 8 2 16 1
17 -2 5 7 16 11 15 3 -2 14 -13 22 -23 3 -4 7 -7 16 -9 l11 -3 35 11 c42 14
44 14 44 17 0 1 3 3 7 5 3 2 6 3 6 3 0 -3 43 7 65 15 23 9 27 11 34 17 11 11
15 22 14 42 0 27 5 36 22 36 12 0 20 -6 20 -15 0 -9 12 -28 19 -32 11 -5 19
-5 43 4 4 2 25 9 46 16 38 13 110 38 124 44 25 9 30 12 38 16 4 3 8 6 7 6 0 1
2 4 6 7 7 5 14 7 23 6 10 -1 36 5 67 17 18 7 40 16 47 18 23 9 22 8 22 25 0
14 -1 16 -4 20 -18 13 -19 15 -19 26 0 9 1 11 7 16 8 9 23 9 31 2 6 -5 15 -21
15 -25 0 -3 3 -4 7 -3 1 0 1 -1 -1 -3 -2 -2 0 -2 10 -1 21 3 72 23 88 34 13 9
20 1 20 -24 1 -15 0 -15 -16 -34 -22 -26 -33 -35 -43 -38 -9 -2 -31 -12 -42
-19 -3 -1 -18 -15 -35 -31 -16 -16 -36 -35 -44 -42 -8 -7 -19 -17 -25 -22 -5
-5 -14 -13 -19 -17 -6 -4 -11 -8 -12 -10 -10 -9 -78 -60 -103 -77 -9 -6 -17
-12 -19 -13 -2 -2 -9 -7 -16 -11 -16 -11 -21 -19 -21 -34 0 -10 1 -13 6 -19
24 -32 53 -34 86 -5 15 14 19 16 38 18 10 1 21 3 25 4 17 6 120 61 158 86 29
18 64 42 78 52 26 19 61 45 62 46 1 1 4 3 8 6 4 3 9 7 10 8 2 2 8 7 13 11 9 7
28 23 40 34 37 33 37 33 45 33 5 0 7 -2 14 -11 11 -13 22 -20 43 -25 23 -6 26
-10 24 -31 -1 -20 2 -34 11 -40 5 -5 22 -11 27 -11 3 0 12 -10 15 -18 3 -8 10
-11 25 -10 10 1 12 2 14 6 13 26 51 30 51 5 0 -16 -7 -24 -30 -35 -7 -4 -14
-9 -15 -11 -2 -3 -4 -5 -5 -4 -1 1 -1 -1 -1 -4 0 -4 1 -10 1 -16 1 -9 1 -9 11
-15 14 -8 23 -9 44 -4 33 7 44 1 46 -27 0 -8 2 -18 4 -24 3 -10 14 -23 18 -23
2 0 3 -1 3 -2 0 -1 1 -2 2 -2 2 0 6 -2 11 -4 35 -16 64 -24 97 -25 28 -2 37 0
54 8 5 3 11 6 12 8 3 3 25 19 27 19 3 0 20 14 28 24 6 6 15 16 21 22 17 19 21
28 21 58 0 27 -1 38 -7 63 -7 28 -21 68 -33 92 -12 26 -15 36 -17 64 -4 41 -4
45 5 69 6 20 8 28 18 113 11 92 12 99 6 111 -2 5 -13 8 -25 8 -9 0 -10 -1 -25
-16 -14 -16 -17 -20 -38 -63 -23 -46 -41 -80 -46 -89 -6 -9 0 -31 10 -40 6 -5
13 -15 13 -19 0 -4 -9 -19 -12 -19 -1 0 -3 -3 -6 -6 l-4 -7 1 6 c1 9 -3 16
-13 22 -9 6 -32 15 -38 15 -16 0 -65 47 -95 91 -10 14 -19 18 -37 16 -7 0 -14
-2 -17 -4 -9 -6 -39 -2 -39 5 0 1 -1 3 -3 4 -8 9 -14 27 -16 48 -1 7 -2 13 -2
14 -1 1 -2 5 -2 8 -1 5 -3 9 -14 24 -5 7 -6 10 -6 20 0 19 8 27 27 27 20 0 26
-7 27 -30 1 -20 6 -35 12 -42 6 -5 7 -5 19 -5 10 1 15 2 19 5 11 8 65 96 65
106 1 12 0 18 -4 31 -8 23 -2 44 12 44 9 0 33 11 41 18 19 18 23 46 9 61 -8 7
-14 19 -14 24 0 10 9 17 35 27 14 6 34 25 43 42 6 13 16 40 24 63 6 15 12 21
28 27 24 8 36 17 53 39 8 10 15 27 14 35 -3 23 -10 28 -64 45 -20 6 -49 15
-65 20 -16 5 -32 9 -35 9 -5 1 -5 1 -1 1 2 1 4 2 3 4 -1 3 12 7 22 7 11 0 26
9 33 18 9 14 17 22 21 22 4 0 12 -8 21 -22 7 -9 22 -18 32 -18 10 0 33 8 45
17 3 2 11 11 17 21 10 16 11 18 11 29 0 9 -1 14 -5 20 -4 7 -24 24 -45 39 -4
3 -10 7 -13 9 -3 3 -6 5 -6 5 -1 0 -3 1 -4 3 -3 3 -13 9 -50 34 -15 10 -27 18
-28 19 -1 0 -16 11 -34 23 -18 12 -33 22 -34 23 0 1 -1 2 -3 2 -7 0 -7 23 0
29 1 1 4 5 7 9 8 12 13 14 31 16 19 2 28 6 32 15 4 9 7 25 6 30 -1 3 0 9 1 14
4 14 14 21 30 20 28 -3 44 2 51 16 6 11 7 43 2 64 -3 15 -15 40 -26 57 -7 11
-41 45 -52 52 -4 3 -8 6 -10 7 -5 5 -33 20 -62 33 -20 9 -51 18 -58 17 -18 -3
-19 -3 -22 -10 -4 -9 -4 -24 0 -36 2 -6 3 -13 3 -20 -2 -16 -7 -21 -25 -21
-22 0 -27 8 -27 49 -1 46 -15 60 -59 62 -25 2 -26 3 -29 16 -5 26 -16 36 -46
39 -30 3 -41 5 -46 4 -12 0 -26 -8 -26 -13 0 -2 -1 -3 -2 -3 -1 0 -2 -2 -3 -4
-1 -3 -3 -8 -4 -11 -1 -3 -3 -9 -4 -13 -2 -12 -9 -16 -24 -16 -19 0 -23 4 -25
25 -4 32 -12 45 -31 48 -17 3 -138 15 -143 14 -7 -2 -19 -8 -22 -12 -4 -4 -4
-25 0 -29 2 -2 5 -5 7 -8 2 -3 12 -11 21 -19 19 -15 24 -22 24 -33 0 -9 -6
-16 -16 -16 -10 0 -36 -12 -36 -17 0 -1 -1 -3 -3 -5 -5 -5 -6 -21 -6 -105 -1
-81 -1 -85 -6 -92 l-4 -4 -6 6 c-21 21 -66 49 -98 61 -18 7 -37 22 -37 29 0 4
-9 13 -19 19 -13 8 -16 13 -16 24 0 24 23 33 60 25 8 -2 19 -3 24 -3 18 3 46
22 52 38 2 3 4 12 4 20 1 12 1 14 -5 27 -8 18 -16 25 -27 25 -15 0 -23 -6 -33
-27 -8 -16 -12 -19 -26 -19 -9 0 -11 1 -16 6 -6 5 -6 7 -6 21 0 32 -11 49 -32
49 -13 0 -25 -8 -27 -20 0 -2 -2 -6 -3 -8 -1 -2 -2 -6 -2 -9 0 -12 -19 -18
-28 -8 -5 5 -5 6 -1 28 3 18 -6 37 -20 40 -3 1 -17 4 -29 7 -13 3 -26 6 -29 6
-8 0 -23 -6 -27 -12 -2 -3 -5 -6 -6 -7 -4 -6 -1 -29 8 -49 3 -5 5 -10 5 -12 2
-13 14 -36 21 -42 1 -1 5 -6 8 -12 9 -14 21 -24 25 -22 0 1 2 -1 5 -2 3 -1 12
-3 22 -3 24 -1 31 -7 31 -27 0 -19 -8 -27 -27 -27 -14 0 -16 2 -26 14 -7 10
-15 17 -20 18 -2 0 -7 1 -11 3 -13 3 -53 1 -57 -4 -1 0 -3 -2 -5 -3 -8 -5 -14
-19 -22 -58 -2 -8 -14 -49 -21 -73 -11 -34 -20 -42 -29 -26 -2 4 -4 7 -5 8 0
1 -4 5 -7 10 -6 9 -35 39 -47 49 -14 11 -40 27 -62 38 -26 12 -28 13 -29 22
-3 13 8 29 23 35 33 13 48 25 61 50 7 15 10 32 5 35 -1 1 -2 2 -1 3 2 2 -7 12
-15 17 -7 4 -22 10 -31 12 -1 0 -21 6 -44 13 -49 14 -51 14 -85 -4 -9 -5 -16
0 -23 14 -11 22 -19 27 -54 38 -35 10 -33 10 -42 8z m1170 -149 c7 -5 17 -22
38 -64 30 -61 49 -118 60 -181 4 -20 10 -35 20 -45 16 -16 19 -26 10 -37 -10
-12 -8 -28 5 -46 9 -12 10 -20 4 -26 -5 -5 -13 -5 -25 1 -7 4 -12 5 -23 5 -17
0 -13 3 -41 -32 -7 -8 -13 -16 -14 -18 -2 -1 -4 -3 -4 -5 -5 -7 -20 -12 -41
-13 -21 0 -22 0 -29 5 l-7 6 1 181 c1 222 2 247 9 258 8 13 26 18 37 11z
m-234 -9 c11 -10 3 -28 -11 -28 -9 0 -16 6 -16 16 0 14 17 22 27 12z m131 -5
c3 -3 4 -7 4 -14 0 -13 -6 -19 -19 -19 -13 0 -19 6 -19 19 0 7 1 11 4 14 7 8
23 8 30 0z m-914 -38 c6 -7 6 -22 -1 -29 -6 -6 -22 -6 -28 1 -7 6 -7 21 -1 28
7 8 23 8 30 0z m875 -55 c4 -6 4 -24 -1 -30 -7 -9 -27 -9 -34 0 -5 6 -5 24 0
30 7 9 27 9 35 0z m-476 -27 c5 -3 11 -19 17 -46 8 -32 -2 -48 -28 -44 -5 1
-10 2 -11 3 -9 7 -27 8 -59 5 -22 -2 -35 16 -30 38 4 15 14 21 34 20 18 -1 33
3 42 13 14 14 26 18 35 11z m-282 -43 c5 -5 6 -7 5 -18 0 -23 -7 -45 -15 -52
-5 -4 -21 -3 -26 2 -10 10 -8 58 3 69 9 8 24 8 33 -1z m-151 -56 c9 -5 18 -55
22 -114 2 -31 5 -42 16 -55 8 -10 31 -26 52 -36 17 -9 20 -10 33 -10 8 0 19 2
24 3 13 4 15 3 20 -4 10 -19 -6 -35 -25 -25 -7 3 -22 10 -27 12 -2 1 -54 1
-116 1 l-111 0 -18 -5 c-9 -3 -21 -6 -26 -6 -13 -1 -45 9 -53 16 -3 3 -7 5 -8
5 -1 0 0 1 3 3 3 1 12 7 18 14 7 7 19 18 27 24 16 13 54 51 71 71 6 7 14 16
18 21 6 7 21 25 27 33 1 1 3 3 4 5 1 1 10 13 20 26 18 23 21 26 29 21z m674
-5 c4 -4 6 -17 4 -26 -4 -14 -27 -19 -38 -7 -12 11 -6 36 9 38 7 2 21 -1 25
-5z m-191 -18 c3 -2 8 -6 11 -10 3 -3 9 -10 13 -14 18 -18 20 -28 8 -40 -18
-18 -22 -31 -16 -51 2 -6 3 -11 3 -12 0 -5 9 -28 17 -44 5 -10 9 -19 9 -20 0
-1 1 -2 3 -2 4 0 0 -4 -11 -12 -5 -4 -8 -4 -25 -4 -10 0 -22 1 -27 2 -6 1 -43
2 -97 2 l-86 0 -9 6 c-4 3 -7 5 -6 6 3 0 22 14 27 19 1 1 6 5 11 9 37 30 97
92 124 127 5 7 10 12 10 13 1 1 5 6 10 13 11 15 18 18 31 12z m260 -35 c11 -5
30 -24 31 -30 2 -10 -2 -23 -7 -27 -7 -5 -22 -5 -30 0 -8 6 -25 44 -23 53 3
10 13 11 29 4z m-467 -34 c5 -5 6 -7 6 -17 0 -16 -7 -23 -23 -23 -16 0 -23 7
-23 23 0 16 7 23 23 23 10 0 12 -1 17 -6z m554 -41 l-5 -5 -4 4 -5 5 4 4 5 5
4 -4 5 -5 -4 -4z m-638 -27 c2 -5 2 -6 -2 -11 -6 -8 -11 -8 -15 0 -3 6 -3 7 0
12 4 7 13 6 17 -1z m768 -14 c5 -6 5 -12 0 -18 -7 -8 -22 -2 -22 9 0 11 15 17
22 9z m-147 -46 c4 -6 4 -24 -1 -30 -7 -9 -27 -9 -34 0 -5 6 -5 24 0 30 7 9
27 9 35 0z m483 -50 c5 -5 5 -11 0 -16 -10 -10 -27 5 -16 16 4 4 12 4 16 0z
m-1383 -10 c11 -10 3 -28 -11 -28 -9 0 -16 6 -16 16 0 14 17 22 27 12z m147
-2 c5 -5 5 -15 0 -20 -9 -9 -24 -2 -24 10 0 8 6 14 14 14 3 0 8 -2 10 -4z
m515 0 c7 -6 7 -19 1 -25 -6 -7 -19 -7 -25 -1 -7 6 -7 19 -1 25 6 7 19 7 25 1z
m-111 -64 c19 -6 23 -6 51 -6 30 0 31 0 37 -5 3 -3 7 -5 9 -5 4 0 4 0 0 -2 -3
-1 -13 -14 -29 -38 -14 -20 -26 -37 -26 -38 -1 0 -2 -2 -2 -3 0 -2 -1 -3 -2
-3 -1 0 -2 -2 -4 -5 -3 -5 -14 -12 -24 -14 -6 -2 -8 -1 -13 4 l-6 6 0 26 c0
30 -2 35 -16 50 -16 16 -19 26 -11 34 6 6 11 6 36 -1z m210 0 c11 -3 21 -6 23
-6 6 0 12 -11 13 -24 0 -7 1 -14 1 -16 2 -12 3 -54 1 -57 -5 -10 -5 -10 -20 3
-8 7 -19 17 -25 21 -5 4 -11 9 -12 10 -4 3 -11 10 -25 21 -7 6 -17 15 -22 20
-5 5 -10 10 -12 11 -3 1 -3 1 0 1 2 0 4 2 6 5 3 5 11 9 27 14 15 4 22 4 45 -3z
m481 1 c7 -7 7 -23 0 -30 -4 -4 -6 -5 -19 -5 -25 1 -43 -8 -47 -24 -2 -6 2
-22 7 -27 5 -5 22 -13 39 -18 7 -2 18 -7 26 -10 13 -7 14 -7 23 -5 12 2 19 5
22 8 15 15 18 16 31 16 11 0 14 -1 18 -5 6 -4 6 -6 6 -20 0 -14 0 -16 -6 -20
-6 -6 -27 -7 -34 -2 -5 4 -26 4 -37 0 -15 -6 -30 -23 -43 -51 -7 -17 -31 -15
-31 3 0 8 -3 26 -6 34 -2 5 -3 5 -16 5 -22 0 -24 -2 -39 -52 -7 -25 -10 -28
-16 -19 -2 2 -3 9 -4 16 -1 7 -2 18 -3 26 -1 8 -3 24 -4 36 -3 27 -7 37 -18
45 -20 15 -42 15 -71 1 -8 -4 -19 -7 -24 -8 -6 -1 -11 -2 -13 -2 -5 -1 -16 10
-15 15 7 28 11 34 27 34 15 0 30 3 46 11 8 4 20 9 26 11 12 5 25 15 23 18 -1
1 0 2 1 2 2 0 6 2 10 5 8 5 9 5 43 5 34 0 37 0 55 6 24 7 36 8 43 1z m-976
-12 l6 -6 -1 -237 c0 -232 0 -238 4 -256 5 -22 5 -30 0 -52 -3 -14 -4 -25 -4
-56 0 -45 1 -50 15 -73 14 -23 14 -31 -1 -55 -5 -9 -11 -21 -12 -26 -1 -5 -5
-12 -8 -15 -5 -5 -6 -6 -20 -7 -8 0 -15 -1 -16 -2 0 -1 -3 1 -6 5 l-6 6 0 133
c-1 125 -1 133 -5 140 -2 5 -4 8 -5 8 0 0 -7 0 -14 0 l-14 0 0 13 0 13 16 0
17 1 2 8 c5 13 4 68 -1 82 -2 5 -5 10 -6 11 -1 0 -2 1 -2 2 0 2 -8 14 -15 22
-3 2 -5 6 -6 8 -1 2 -2 4 -3 4 -1 0 -2 1 -2 3 0 1 -1 3 -1 3 -1 1 -4 6 -7 11
-9 16 -7 36 2 41 22 11 32 19 37 28 6 9 6 10 7 42 1 60 -7 72 -50 75 -20 2
-24 6 -24 20 0 16 5 19 28 20 30 1 33 2 41 16 3 7 4 11 4 36 l0 28 6 6 c6 6 7
6 22 6 15 0 16 0 22 -6z m625 -2 c26 -6 38 -17 38 -34 0 -17 -8 -23 -33 -23
-32 0 -46 9 -46 31 0 18 6 25 27 29 1 0 7 -1 14 -3z m-859 -10 c4 -4 5 -7 5
-15 0 -14 -6 -20 -20 -20 -14 0 -20 6 -20 20 0 14 6 20 20 20 8 0 11 -1 15 -5z
m410 -33 c5 -5 6 -7 6 -16 0 -15 -8 -23 -23 -23 -9 0 -11 1 -16 7 -9 8 -9 23
-1 32 9 9 24 9 34 0z m515 -61 c5 -4 5 -12 1 -29 -4 -16 -6 -19 -27 -29 -27
-13 -36 -16 -49 -15 -19 1 -21 31 -3 46 3 2 10 8 16 14 14 12 24 17 36 18 6 0
11 1 12 1 1 1 11 -3 14 -6z m101 -34 c3 -5 3 -5 -1 -10 -6 -6 -8 -6 -13 0 -3
5 -3 5 0 10 5 6 9 6 14 0z m-285 -35 c3 -2 6 -8 8 -12 4 -13 10 -22 17 -23 6
-1 7 -3 13 -15 4 -9 7 -19 7 -26 1 -6 2 -15 3 -20 1 -5 2 -12 3 -15 3 -20 4
-26 8 -42 6 -22 7 -30 8 -54 1 -19 4 -31 11 -35 2 -1 4 -1 5 -1 0 1 1 1 1 0 0
-4 13 -7 33 -8 21 -1 29 -4 31 -13 1 -3 4 -11 6 -19 5 -17 12 -25 27 -33 20
-10 24 -19 16 -34 -5 -7 -15 -9 -43 -7 -28 1 -38 -4 -42 -21 -2 -9 -2 -12 2
-23 2 -6 5 -13 6 -14 2 -3 11 -34 16 -55 5 -21 4 -33 -2 -45 -8 -14 -51 -76
-54 -76 0 0 -4 -1 -8 -3 -11 -3 -17 -1 -16 6 2 7 0 8 -32 21 -35 13 -38 14
-59 11 -22 -3 -19 -2 -110 -12 l-75 -7 -5 5 c-7 8 -7 18 0 25 l6 6 29 0 c32 0
37 1 53 16 2 2 7 6 11 7 7 4 7 4 14 1 4 -2 9 -6 11 -8 17 -15 20 -16 62 -16
54 -1 92 7 110 23 13 12 22 33 20 47 -1 11 -9 25 -16 30 -2 1 -11 9 -19 17
-17 17 -32 30 -44 40 -5 4 -10 8 -11 9 -1 1 -9 8 -18 15 -9 7 -16 13 -17 14
-1 1 -7 6 -15 13 -8 7 -14 13 -15 13 -1 1 -3 2 -4 3 -3 2 -3 3 3 7 7 5 10 5
37 6 32 1 38 3 43 14 3 7 5 28 3 29 -5 3 0 22 7 28 9 7 10 29 3 41 -3 4 -7 10
-9 13 -4 7 -16 21 -18 21 0 0 -4 3 -8 8 -5 4 -19 16 -33 27 -13 11 -31 27 -40
35 l-16 16 -17 0 -17 0 -6 -9 c-11 -16 -13 -30 -8 -52 7 -28 0 -35 -43 -40 -4
-1 -13 -3 -19 -4 -12 -3 -15 -3 -32 4 -10 4 -26 19 -27 26 0 2 -1 12 -2 21 -1
10 -2 18 -4 20 -2 2 -3 4 -3 5 0 1 -5 6 -10 13 -10 11 -10 11 -9 21 0 6 2 13
5 17 2 4 6 11 9 17 8 14 15 20 23 21 9 0 19 -5 21 -10 1 -2 7 -9 14 -17 15
-16 24 -19 57 -21 20 -1 25 -2 30 -5 9 -7 35 -7 45 0 4 3 10 6 13 6 13 3 20 9
27 24 3 8 7 17 8 21 2 12 9 16 24 16 9 0 14 -1 17 -4z m265 -23 c6 -5 16 -23
21 -38 1 -4 4 -12 7 -17 2 -5 5 -12 6 -16 2 -3 6 -9 9 -12 7 -7 5 -9 -9 -11
-11 -1 -14 -2 -15 -4 -1 -1 -6 -2 -12 -2 -9 0 -11 1 -16 6 -3 3 -6 7 -6 8 0 4
-9 26 -17 41 -12 23 -9 43 8 48 11 3 17 2 24 -3z m-132 -34 c6 -4 6 -6 6 -20
0 -14 0 -16 -6 -20 -8 -7 -28 -7 -36 0 -10 8 -10 33 1 41 7 6 28 6 35 -1z
m219 -56 c5 -8 5 -16 0 -21 -4 -4 -15 -5 -19 -2 -1 1 -7 6 -12 10 -12 10 -12
11 -1 14 4 2 8 3 8 4 0 0 5 1 10 1 9 1 10 1 14 -6z m-1079 -69 c10 -9 3 -26
-10 -26 -8 0 -15 7 -15 15 0 13 16 20 25 11z m693 -3 c5 -3 6 -5 6 -13 0 -12
-6 -18 -17 -18 -11 0 -17 6 -17 17 0 15 14 22 28 14z m-595 -26 c5 -3 12 -16
16 -32 2 -5 6 -17 10 -26 6 -15 7 -19 7 -36 0 -24 -3 -27 -23 -27 -19 0 -23 4
-25 27 -2 24 -8 39 -20 52 -9 9 -8 33 1 40 6 6 27 7 34 2z m258 -17 c4 -6 4
-24 -1 -30 -7 -9 -27 -9 -34 0 -5 6 -5 24 0 30 7 9 27 9 35 0z m136 -1 c14
-14 -2 -38 -20 -30 -19 8 -13 35 7 35 6 0 9 -1 13 -5z m97 -79 c3 -4 5 -6 4
-6 -3 0 -20 -27 -21 -35 -1 -3 -2 -7 -3 -8 -1 -1 -3 -5 -4 -10 -2 -7 -32 -39
-36 -39 -1 0 -2 -1 -2 -2 0 -1 -4 -3 -8 -4 -5 -2 -9 -3 -10 -4 -1 -1 -4 2 -7
5 l-6 6 0 46 0 46 6 6 6 6 37 -1 c37 -1 37 -1 44 -6z m-196 -64 c11 -13 -7
-30 -20 -19 -5 5 -5 8 1 16 5 8 13 9 19 3z m572 -25 c7 -8 6 -25 -2 -33 -5 -5
-7 -6 -17 -6 -10 0 -12 1 -17 6 -11 10 -7 37 6 42 7 2 24 -3 30 -9z m-622 -23
c0 -1 -1 -2 -3 -2 -1 0 -3 -1 -3 -2 -1 -2 -2 -2 -5 1 -3 3 -3 3 0 7 3 3 4 3 7
0 2 -1 4 -4 4 -4z m645 -70 c11 -10 3 -28 -11 -28 -9 0 -16 6 -16 16 0 14 17
22 27 12z m92 -9 c16 -6 20 -33 5 -37 -6 -1 -19 6 -22 12 -4 11 -5 19 -1 23 5
5 8 5 18 2z m-632 -40 c3 -5 3 -5 0 -10 -2 -3 -5 -5 -7 -5 -2 0 -5 2 -7 5 -3
5 -3 5 0 10 2 3 5 5 7 5 2 0 5 -2 7 -5z m-98 -28 c3 -3 3 -3 0 -6 -4 -5 -11 1
-7 6 4 4 4 4 7 0z m-241 -20 c6 -2 11 -5 13 -8 4 -6 4 -23 0 -29 -10 -12 -59
-10 -71 2 -8 8 -8 25 -1 33 7 9 34 10 59 2z m451 -59 c11 -10 3 -28 -11 -28
-9 0 -16 6 -16 16 0 14 17 22 27 12z m671 1 c21 -9 20 -45 -2 -54 -10 -5 -28
-1 -34 6 -9 10 -9 32 0 42 7 8 24 11 36 6z m149 -6 c0 -2 0 -3 1 -4 1 -1 2 -4
2 -7 0 -3 1 -7 3 -9 2 -2 3 -8 3 -13 0 -14 -6 -20 -20 -20 -14 0 -20 6 -20 20
0 9 1 11 7 17 9 9 17 15 20 15 2 0 3 1 3 2 0 1 1 2 1 2 1 0 1 -1 0 -3z m-909
-41 c5 -5 5 -15 0 -22 -3 -5 -3 -6 -11 -3 -9 3 -13 8 -13 15 0 8 6 14 14 14 3
0 8 -2 10 -4z m-266 -39 l-5 -5 -4 4 -5 5 4 4 5 5 4 -4 5 -5 -4 -4z m-323 -89
c12 -5 16 -28 6 -44 -6 -11 -10 -12 -25 -10 -18 3 -25 12 -25 29 0 24 19 34
44 25z m156 -20 c6 -9 3 -30 -6 -36 -6 -5 -27 0 -31 8 -3 6 -2 23 2 28 7 9 27
9 35 0z m1378 -40 c16 -7 16 -43 -1 -50 -15 -6 -34 -2 -39 9 -4 8 -4 24 0 32
5 12 23 15 40 9z m-1585 -35 c4 -4 4 -4 0 -8 l-5 -5 -4 4 c-5 4 -5 5 -2 8 4 5
7 5 11 1z"/>
</g>
</svg>
