<?xml version="1.0" standalone="no"?>
<!DOCTYPE svg PUBLIC "-//W3C//DTD SVG 20010904//EN"
 "http://www.w3.org/TR/2001/REC-SVG-20010904/DTD/svg10.dtd">
<svg version="1.0" xmlns="http://www.w3.org/2000/svg"
 width="1100.000000pt" height="2870.000000pt" viewBox="0 0 1100.000000 2870.000000"
 preserveAspectRatio="xMidYMid meet">
<metadata>
Created by potrace 1.15, written by Peter Selinger 2001-2017
</metadata>
<g transform="translate(0.000000,2870.000000) scale(0.500000,-0.500000)"
fill="#000000" stroke="none">
<path d="M960 3801 c-18 -4 -28 -13 -30 -27 -1 -11 3 -21 11 -28 11 -8 13 -14
11 -30 -3 -21 0 -35 11 -47 3 -4 8 -9 11 -13 15 -20 23 -27 35 -29 5 -1 31 -1
37 -1 5 1 9 -1 14 -6 5 -5 6 -7 6 -18 0 -16 -4 -20 -25 -29 -35 -13 -35 -14
-69 -60 -8 -11 -16 -22 -18 -24 -23 -27 -31 -37 -34 -40 -2 -2 -5 -7 -8 -10
-8 -9 -8 -26 -1 -44 13 -31 0 -46 -31 -36 -10 4 -30 3 -37 -2 -3 -2 -10 -9
-17 -17 -14 -16 -17 -24 -16 -45 1 -16 -2 -22 -10 -22 -12 -1 -27 -3 -30 -5
-2 -1 -4 -1 -4 -1 -2 1 -10 -7 -24 -23 -9 -9 -11 -13 -13 -26 -2 -9 -12 -19
-25 -23 -9 -3 -13 -8 -38 -37 -2 -3 -7 -8 -11 -12 -3 -4 -12 -14 -20 -23 -8
-9 -17 -19 -20 -23 -4 -4 -11 -12 -17 -19 -6 -7 -13 -15 -16 -18 -3 -3 -16
-19 -29 -34 -13 -15 -25 -28 -25 -29 -2 -1 -2 -24 -1 -30 1 -3 3 -6 4 -6 6 0
21 -15 21 -21 0 -7 -7 -13 -14 -13 -3 0 -6 1 -6 2 -3 5 -19 12 -29 12 -16 0
-19 -2 -28 -19 -6 -13 -7 -16 -7 -24 2 -10 8 -21 15 -25 3 -1 7 -5 9 -8 l4 -6
-4 -5 c-3 -3 -5 -5 -6 -4 -1 1 -21 -6 -29 -10 l-6 -3 1 -14 c2 -12 3 -15 8
-20 7 -7 11 -16 9 -24 -5 -31 -6 -34 -3 -39 5 -13 15 -15 54 -13 13 1 18 -3
29 -21 12 -20 13 -26 12 -46 -1 -31 -1 -33 37 -65 8 -7 16 -14 18 -16 2 -2 10
-9 18 -16 8 -7 19 -17 25 -23 10 -9 10 -9 22 -8 10 0 14 1 18 5 5 4 5 6 14 24
3 6 6 13 8 14 5 4 19 26 25 38 7 14 18 22 29 22 14 0 15 0 21 -6 5 -5 6 -7 6
-17 0 -13 -2 -18 -16 -31 -8 -8 -15 -21 -21 -40 -3 -11 -9 -20 -18 -29 -9 -8
-11 -13 -11 -25 0 -13 4 -22 13 -30 4 -4 9 -8 11 -10 9 -9 29 -12 45 -8 27 8
40 -5 33 -34 -3 -12 -2 -29 3 -38 2 -3 8 -11 15 -18 24 -25 42 -46 54 -60 17
-21 18 -22 25 -31 3 -4 6 -8 7 -9 2 -1 11 -14 23 -33 9 -13 28 -33 31 -33 3 0
16 -9 22 -14 3 -4 4 -7 4 -20 0 -14 4 -37 8 -41 2 -2 7 -11 19 -33 23 -42 26
-46 38 -65 18 -27 16 -25 33 -26 13 0 14 0 24 8 9 7 18 10 33 12 2 0 6 -1 9
-2 3 -2 6 -2 7 -2 0 1 1 0 0 0 -1 -1 0 -3 1 -4 1 -1 0 -7 -3 -16 -11 -29 -5
-50 15 -57 32 -11 56 0 71 33 5 12 8 15 13 17 9 4 23 3 32 -1 10 -4 28 -4 37
0 10 4 26 26 40 55 10 20 11 33 2 52 -4 7 -7 15 -8 17 -1 5 5 21 11 26 9 8 13
27 8 35 -1 2 -25 7 -28 5 -1 -1 -2 -1 -2 0 1 5 0 7 -2 6 -2 0 -3 -3 -3 -6 0
-5 -2 -7 -8 -11 -10 -7 -13 -7 -18 -1 -3 5 -3 5 1 12 3 4 5 7 6 7 2 0 10 1 18
2 2 1 4 2 4 3 -1 7 1 13 4 17 13 15 18 42 10 57 -2 4 -6 13 -9 20 -6 13 -26
46 -36 61 -3 5 -10 14 -14 20 -10 15 -19 26 -34 43 -24 27 -32 35 -40 38 -9 4
-25 4 -34 1 -10 -4 -24 -3 -30 3 l-6 5 0 26 c0 33 -1 34 -27 55 -10 9 -21 17
-23 19 -7 5 -35 26 -51 36 -8 6 -15 11 -16 12 -1 1 -70 47 -98 65 -8 5 -21 13
-28 18 -7 5 -26 16 -41 26 -15 9 -35 21 -43 26 -8 6 -24 15 -35 22 -11 7 -26
16 -32 20 -7 4 -23 15 -36 23 -66 42 -76 54 -66 79 6 15 88 92 144 136 4 3 9
7 10 8 1 1 6 5 10 8 4 3 8 6 9 7 2 2 31 24 32 24 1 0 2 3 4 8 1 4 4 9 7 12 2
2 3 4 2 4 -1 0 0 1 2 3 5 5 4 15 -1 16 -2 1 -3 2 -3 3 1 1 0 2 -1 2 -1 0 -2
-1 -2 -2 0 -1 -2 -2 -4 -2 -2 0 -4 -1 -4 -2 0 -3 -15 1 -24 6 -5 3 -17 9 -26
14 -22 11 -26 15 -26 24 0 9 7 16 16 16 3 0 13 -3 22 -8 8 -4 18 -8 21 -9 4 0
8 -2 11 -3 12 -6 21 6 20 28 0 14 3 22 10 22 4 0 8 -2 24 -12 5 -3 16 -9 24
-12 7 -4 15 -7 17 -8 8 -4 24 -6 31 -4 3 1 6 1 6 1 0 -1 7 3 11 5 18 14 18 15
23 35 1 4 2 11 2 14 0 3 2 8 4 11 4 4 4 4 16 1 24 -6 38 -4 54 8 6 5 48 33 64
43 16 9 31 22 27 22 -1 0 -1 1 1 3 1 1 1 9 1 18 -1 9 -1 26 -2 38 l0 23 -7 3
c-12 5 -22 16 -22 24 0 12 15 20 25 11 4 -3 12 -17 12 -21 0 -2 0 -2 1 -2 1 1
2 0 3 -1 0 -1 7 -1 15 -1 20 2 34 11 50 32 11 15 16 18 33 18 40 2 55 16 49
47 -3 20 -10 39 -15 45 -9 9 -30 12 -42 6 -6 -3 -21 -5 -27 -4 -5 2 -11 15
-11 24 1 9 4 16 14 23 14 10 18 34 9 46 -10 12 -31 11 -45 -3 -11 -11 -17 -13
-28 -14 -15 -1 -25 7 -29 20 -3 14 0 25 13 37 9 9 10 10 10 21 1 16 -2 21 -15
31 -7 5 -15 11 -18 13 -3 2 -12 9 -21 14 -9 6 -18 11 -20 13 -9 5 -53 26 -65
30 -42 14 -114 24 -136 19z m151 -77 c1 -2 3 -6 3 -7 0 -2 1 -5 2 -8 5 -11 6
-24 2 -27 -5 -5 -35 4 -42 12 -5 6 -5 24 0 30 7 9 27 9 35 0z m32 -55 c5 -9 5
-9 2 -14 -4 -5 -8 -6 -12 -3 -1 1 -4 4 -7 6 -4 3 -7 16 -4 16 1 0 2 1 1 2 0 0
3 1 7 1 6 0 8 -2 13 -8z m136 -174 c6 -5 6 -6 6 -21 0 -11 -1 -16 -3 -18 -9
-9 -31 -8 -39 1 -6 7 -7 25 -2 33 8 10 29 13 38 5z m-153 -42 l-5 -5 -4 4 -5
5 4 4 5 5 4 -4 5 -5 -4 -4z m-132 -107 c5 -5 6 -7 6 -16 0 -10 -6 -24 -10 -24
-4 0 -23 -20 -27 -29 -14 -28 -20 -29 -49 -12 -10 6 -20 12 -24 13 -10 4 -15
17 -8 25 3 4 7 6 26 11 5 2 14 6 20 11 28 21 38 27 50 27 9 0 11 -1 16 -6z
m128 -55 l-5 -5 -4 4 -5 5 4 4 5 5 4 -4 5 -5 -4 -4z m-369 -102 c6 -7 6 -7 1
-12 -5 -6 -7 -6 -14 1 l-6 6 6 5 c6 6 7 6 13 0z m31 -105 c5 -5 5 -11 0 -16
-10 -10 -27 5 -16 16 4 4 12 4 16 0z m-137 -323 c3 -3 3 -3 0 -6 -4 -5 -11 1
-7 6 4 4 4 4 7 0z m82 -57 c4 -6 4 -24 -1 -30 -7 -9 -27 -9 -34 0 -5 6 -5 24
0 30 7 9 27 9 35 0z m309 -284 c9 -8 9 -26 0 -34 l-6 -6 -25 1 -26 1 -15 -8
c-30 -17 -53 -9 -53 19 0 24 18 34 47 24 13 -4 25 -3 40 4 16 7 30 7 38 -1z
m86 -92 c11 -13 -6 -30 -18 -18 -5 5 -5 12 0 18 4 5 13 5 18 0z m-77 -20 c14
-7 20 -18 18 -35 -2 -22 -12 -33 -27 -33 -14 -1 -21 5 -29 22 -9 21 -10 39 -2
47 5 5 6 5 18 5 7 -1 16 -3 22 -6z m74 -101 c6 -2 10 -6 15 -13 4 -6 12 -14
19 -19 6 -5 14 -12 16 -15 3 -6 3 -7 -1 -11 -2 -3 -6 -4 -8 -4 -1 1 -12 3 -22
5 -10 3 -22 5 -26 5 -15 2 -23 14 -23 34 0 19 11 26 30 18z m123 -162 c3 -3 4
-7 4 -14 0 -12 -5 -18 -17 -20 -4 0 -10 -1 -12 -2 -3 -1 -6 0 -11 4 l-6 6 4
11 c3 6 6 13 9 15 6 8 22 8 29 0z"/>
</g>
</svg>
