<?xml version="1.0" standalone="no"?>
<!DOCTYPE svg PUBLIC "-//W3C//DTD SVG 20010904//EN"
 "http://www.w3.org/TR/2001/REC-SVG-20010904/DTD/svg10.dtd">
<svg version="1.0" xmlns="http://www.w3.org/2000/svg"
 width="1107.000000pt" height="2870.000000pt" viewBox="0 0 1107.000000 2870.000000"
 preserveAspectRatio="xMidYMid meet">
<metadata>
Created by potrace 1.15, written by Peter Selinger 2001-2017
</metadata>
<g transform="translate(0.000000,2870.000000) scale(0.500000,-0.500000)"
fill="#000000" stroke="none">
<path d="M459 3841 c-1 -1 -3 -1 -5 0 -3 0 -4 -1 -4 -16 -1 -15 -1 -16 5 -21
4 -5 5 -7 5 -17 0 -17 -7 -23 -26 -21 -6 0 -14 5 -14 8 0 4 -17 28 -19 28 -2
0 -3 1 -3 2 -1 1 -9 5 -18 9 -17 7 -28 15 -28 20 0 2 -1 3 -2 2 0 0 -7 -1 -14
-1 -25 -1 -24 0 -24 -60 0 -49 2 -61 10 -72 1 -3 6 -9 9 -14 9 -14 10 -20 4
-33 -3 -5 -7 -12 -9 -14 -13 -14 -18 -50 -11 -77 l2 -7 18 -1 c9 -1 17 0 17 0
0 1 3 5 6 8 3 4 6 8 6 8 0 4 15 10 26 11 16 1 22 -5 22 -20 0 -26 -7 -33 -34
-33 -28 0 -43 -8 -54 -32 -10 -19 -12 -26 -12 -46 0 -30 6 -39 32 -51 17 -7
20 -11 20 -21 0 -10 -3 -14 -18 -20 -7 -4 -14 -8 -15 -10 -2 -4 -3 -32 0 -32
3 0 9 -12 9 -17 0 -13 -20 -20 -31 -11 l-6 5 6 5 c2 3 4 6 4 7 -1 0 0 4 2 9 3
6 3 9 1 10 -1 0 -2 1 -1 2 1 1 -2 4 -5 6 -5 3 -7 3 -8 1 -2 -1 -2 -1 -2 1 0 7
-10 8 -110 8 -54 0 -100 -1 -105 -1 l-7 -2 0 -17 c0 -13 -1 -18 -2 -18 -2 0 0
-1 4 -2 12 -3 22 -7 26 -11 9 -9 3 -33 -7 -33 -2 0 -3 -1 -1 -1 1 -1 2 -6 2
-16 0 -19 3 -22 23 -23 8 0 19 1 24 2 13 3 41 3 57 0 8 -2 21 -2 40 -1 l27 1
5 -7 5 -6 -6 -33 c-7 -36 -7 -48 -1 -61 2 -4 5 -11 7 -15 4 -10 4 -19 0 -31
-2 -7 -3 -15 -3 -28 1 -23 0 -24 -20 -34 -21 -10 -23 -14 -37 -63 -6 -22 -15
-54 -21 -73 -6 -19 -12 -39 -14 -46 -2 -7 -6 -19 -9 -27 -3 -8 -7 -20 -9 -26
-2 -6 -10 -29 -19 -51 -9 -23 -15 -43 -15 -47 0 -10 5 -22 13 -35 12 -17 10
-34 -4 -52 -8 -8 -7 -33 1 -40 5 -4 13 -18 15 -27 1 -5 1 -6 -20 -24 -6 -5 -7
-6 -7 -18 l-1 -14 13 0 c7 0 12 1 11 2 -1 1 0 3 2 4 1 2 3 6 4 10 2 11 10 19
24 24 13 5 17 8 29 24 8 10 18 22 31 35 12 11 26 28 40 46 3 4 8 10 10 13 3 3
5 6 5 8 0 1 3 -1 6 -5 l6 -8 0 -257 c0 -148 1 -260 2 -263 3 -10 8 -18 16 -24
10 -9 18 -18 18 -21 0 -3 -8 -12 -18 -21 -15 -12 -17 -18 -17 -57 0 -32 0 -36
4 -44 6 -13 21 -26 39 -35 15 -8 16 -8 36 -8 52 0 61 7 61 44 -1 24 2 29 16
29 8 0 17 -6 17 -12 0 -1 3 -7 6 -12 6 -12 16 -18 28 -19 8 0 44 17 56 27 4 3
9 6 10 6 1 0 2 6 2 16 0 18 -2 22 -18 27 -16 5 -18 9 -18 36 1 23 -1 29 -14
48 -5 7 -5 21 -1 29 2 4 4 10 6 23 3 19 3 20 -6 55 -10 37 -5 50 19 50 11 0
13 -1 18 -6 6 -6 6 -7 6 -19 -1 -6 -4 -21 -8 -33 -8 -25 -9 -46 -2 -65 2 -7 4
-18 4 -25 1 -11 7 -42 8 -34 0 1 3 2 12 2 14 -1 20 2 24 14 3 9 3 120 0 123
-2 2 -2 3 0 3 1 0 2 1 0 4 -3 5 -3 19 0 24 2 3 1 4 0 4 -2 0 -2 1 0 3 3 3 3
122 0 124 -1 1 -2 3 -2 5 0 12 -34 32 -53 31 -9 0 -17 -4 -17 -8 0 -2 -1 -3
-2 -3 -2 0 1 -24 4 -29 3 -7 3 -15 -2 -40 -4 -17 -6 -23 -10 -26 -4 -5 -5 -5
-9 -2 -2 2 -4 4 -5 4 -1 1 -8 47 -8 59 0 8 0 17 -1 19 0 2 -1 6 -2 8 0 2 -2 8
-4 13 -9 24 -5 32 17 32 7 0 14 0 16 1 13 3 16 4 26 10 6 4 13 7 16 8 15 5 34
19 34 27 0 2 1 4 2 5 1 1 2 74 2 200 1 186 1 199 5 202 2 3 3 3 3 1 0 -2 1 -1
2 2 l2 5 0 -5 c0 -3 3 -15 7 -26 12 -37 23 -89 27 -126 3 -23 7 -36 13 -39 7
-2 30 -1 33 2 6 8 21 12 33 9 10 -2 21 -10 39 -28 24 -23 26 -24 41 -25 12 -1
13 -1 24 6 25 14 55 49 58 65 1 9 2 13 4 15 0 2 0 3 -1 4 -1 1 -2 2 -1 3 0 1
-1 1 -3 1 -2 1 -12 5 -22 10 -22 10 -25 14 -25 31 1 12 5 21 12 23 16 6 24 8
28 7 5 0 13 -10 14 -16 2 -7 3 -30 3 -38 0 -8 4 -14 7 -10 1 1 6 2 12 2 8 0
11 1 12 3 0 2 2 3 4 3 2 0 3 1 3 3 0 2 1 3 2 3 1 0 6 18 6 24 0 12 24 17 33 7
9 -8 7 -20 -4 -35 -10 -12 -10 -16 -9 -37 0 -1 5 -6 12 -11 16 -12 20 -17 21
-32 1 -12 1 -13 -4 -16 -6 -5 -27 -6 -32 -2 -5 4 -39 1 -39 -4 0 -1 -1 -2 -3
-2 -1 0 -5 -3 -8 -7 -3 -5 -8 -10 -11 -13 -14 -16 -16 -61 -3 -72 6 -6 25 -12
33 -12 9 0 14 -6 14 -18 -1 -18 5 -31 18 -40 8 -6 11 -10 20 -27 14 -29 19
-46 16 -57 -4 -15 -11 -20 -27 -21 -8 0 -16 2 -22 7 -5 4 -21 39 -21 46 0 3
-1 4 -1 1 -1 -3 -3 -3 -15 -3 -8 1 -14 0 -14 -1 0 -1 -1 -1 -2 0 -1 1 -2 -1
-3 -4 -1 -3 -2 -5 -3 -5 -3 0 -3 -283 0 -293 3 -10 9 -18 23 -32 6 -6 11 -13
11 -15 1 -5 1 -11 0 -16 0 -2 -5 -9 -11 -15 -20 -20 -27 -34 -24 -52 2 -14 6
-21 20 -36 11 -12 18 -23 18 -32 0 -3 7 -10 13 -13 2 -1 10 -2 19 -1 17 0 21
0 42 -8 22 -8 31 -8 43 0 12 7 19 17 26 42 3 8 5 10 34 23 4 2 7 4 7 5 -1 2 2
4 5 5 3 2 6 4 6 4 0 2 11 5 18 6 4 0 23 8 28 12 8 7 13 34 8 48 -4 9 -7 12
-17 18 -12 7 -19 5 -30 -5 -5 -5 -9 -10 -9 -11 0 -2 -2 -7 -4 -11 -2 -4 -4
-11 -4 -14 0 -5 -1 -8 -3 -8 -2 -1 -3 -3 -3 -4 0 -3 -4 -3 -18 -2 -15 2 -22 9
-22 23 0 13 2 16 14 24 5 4 12 10 16 13 6 7 16 27 16 34 0 2 1 12 3 22 4 23
13 33 21 24 1 -1 3 -2 5 -2 1 0 7 1 14 2 13 1 19 4 19 9 0 2 1 4 2 5 1 1 2 24
2 56 0 55 0 55 -5 66 -6 12 -9 15 -32 26 -15 8 -16 8 -20 19 -5 16 -5 18 -5
33 -1 19 2 22 32 27 27 5 39 5 42 1 1 -2 4 -3 5 -3 2 0 4 -1 4 -3 3 -7 43 -30
73 -41 11 -4 15 -4 114 -4 l103 1 6 -6 c5 -6 6 -7 5 -18 0 -7 1 -16 3 -22 5
-16 8 -18 48 -35 22 -9 32 -32 19 -43 -12 -8 -31 -6 -69 7 -17 6 -19 6 -37 5
-29 -2 -34 -4 -41 -14 -4 -7 -5 -26 -2 -32 5 -7 5 -27 1 -33 -2 -3 -7 -7 -11
-10 -8 -6 -13 -16 -13 -30 0 -9 1 -11 8 -18 4 -4 11 -12 16 -17 5 -6 13 -13
18 -17 12 -10 18 -16 18 -20 0 -2 2 -4 5 -6 7 -3 34 -3 37 1 1 1 4 4 6 8 3 3
6 5 9 5 3 0 5 1 6 2 0 1 4 2 8 3 17 3 23 5 22 9 -1 4 6 16 14 23 8 7 47 -3 53
-13 5 -10 -1 -14 -21 -15 -21 -2 -23 -4 -23 -21 0 -17 2 -19 18 -23 12 -3 26
-9 38 -18 5 -4 9 -5 21 -5 13 0 14 0 21 8 15 17 25 20 42 12 12 -7 31 -7 39
-2 8 4 22 33 31 60 15 48 21 135 11 156 -13 26 -29 45 -48 58 -10 7 -13 14
-13 27 0 16 9 25 22 23 5 -1 28 9 34 14 10 10 10 9 10 162 0 153 0 153 -10
161 -5 4 -29 15 -31 14 -3 -4 -31 19 -42 33 -5 7 -4 20 2 26 11 10 27 3 38
-18 3 -5 5 -8 5 -7 0 1 6 2 14 1 10 0 15 0 16 2 5 5 8 17 8 27 0 8 1 12 6 19
3 5 6 8 6 7 0 -5 34 18 49 34 11 10 13 13 14 21 3 17 -1 23 -21 41 -5 4 -20
21 -20 22 0 3 -21 21 -51 43 -20 15 -37 28 -38 29 -1 1 -5 3 -7 5 -2 2 -6 4
-7 5 -9 8 -43 33 -46 33 -3 0 -3 1 -1 1 2 1 5 4 8 6 5 4 8 4 21 5 17 0 26 3
31 9 5 5 13 29 12 33 -1 5 6 11 12 11 6 0 12 -6 12 -11 -1 -8 8 -30 14 -35 8
-7 15 -7 50 -7 30 1 31 1 42 7 7 4 12 9 16 15 4 6 8 10 9 10 1 0 4 2 6 4 2 2
7 5 12 7 4 2 8 4 9 5 1 1 3 2 5 3 6 3 9 11 9 21 0 16 -10 27 -62 68 -35 28
-44 34 -58 38 -8 2 -14 5 -14 6 0 1 -1 2 -2 1 -1 -1 -5 2 -8 6 -4 4 -7 8 -6 8
1 0 -1 3 -3 5 -2 2 -4 5 -3 5 1 1 -2 3 -5 5 l-6 3 7 6 c4 3 10 5 13 5 25 0 51
18 64 45 14 28 6 45 -39 79 -4 3 -8 6 -9 7 -3 3 -49 36 -78 57 -15 10 -27 19
-29 21 -1 2 -4 3 -7 3 -3 0 -2 1 4 6 l8 6 36 0 c19 0 40 1 47 2 7 2 21 2 36 1
23 -1 26 -1 37 3 24 9 49 42 46 62 -2 20 -10 29 -48 60 -13 10 -24 20 -25 20
-1 1 -18 14 -39 30 -48 36 -50 37 -62 48 -10 7 -12 8 -23 8 -14 0 -22 -4 -30
-14 -6 -9 -13 -13 -22 -12 -9 0 -27 -3 -38 -8 -9 -3 -35 -37 -37 -47 -2 -7 0
-35 2 -40 2 -5 -4 -13 -10 -13 -2 0 -8 2 -12 5 -4 3 -10 6 -11 6 -2 1 -4 2 -4
3 0 1 -7 5 -16 7 -6 2 -38 3 -45 2 -4 -1 -10 -3 -13 -6 -7 -6 -15 -25 -14 -34
0 -13 -14 -20 -22 -10 -4 3 -4 6 -3 12 3 18 1 34 -6 38 -8 5 -14 6 -36 5 -16
-1 -17 0 -23 6 -5 5 -6 7 -6 18 0 11 1 13 6 18 3 3 7 6 9 6 11 1 17 0 29 -3
14 -4 28 -3 36 2 3 2 11 15 14 24 3 11 13 21 24 27 20 9 36 29 47 59 5 14 4
26 -4 37 -4 6 -7 8 -20 14 -5 3 -303 26 -312 25 -14 -2 -17 -6 -17 -23 0 -9 0
-15 2 -18 14 -15 13 -31 -2 -46 -5 -5 -11 -17 -14 -26 -2 -10 -2 -104 1 -115
2 -7 12 -18 24 -26 9 -5 25 -9 45 -9 30 -1 37 -12 38 -59 0 -24 0 -25 -5 -30
-5 -6 -13 -7 -26 -4 -4 1 -19 20 -19 24 0 2 -8 8 -15 12 -6 4 -9 5 -25 7 -23
4 -28 9 -29 31 -1 24 -7 36 -22 42 -6 2 -16 3 -55 3 -63 0 -66 -1 -74 -28 -2
-8 -3 -13 -2 -16 3 -6 -1 -21 -6 -27 -9 -11 -31 -11 -43 0 -6 4 -10 20 -7 27
1 3 0 8 -2 16 -5 16 -7 19 -17 24 -8 4 -12 4 -55 4 -48 0 -54 -1 -65 -9 -6 -5
-11 -15 -11 -27 -1 -6 13 -52 17 -60 5 -11 16 -20 27 -24 9 -4 15 -4 90 -4 49
0 82 1 87 2 11 3 23 9 28 13 10 8 12 10 19 14 18 11 31 8 49 -9 13 -12 29 -20
39 -20 8 0 20 -4 23 -8 5 -6 4 -21 -1 -33 -8 -18 -10 -27 -10 -38 1 -9 0 -11
-5 -16 l-6 -6 -56 0 -56 0 -10 -5 c-5 -3 -14 -9 -18 -14 -11 -11 -18 -15 -30
-15 -12 0 -19 4 -30 15 -13 13 -25 19 -46 20 -18 1 -32 -2 -38 -8 -4 -3 -10
-5 -19 -7 -4 -1 -10 2 -19 11 -15 14 -27 17 -51 12 -15 -3 -17 1 -16 24 0 22
-2 28 -20 46 -8 9 -19 20 -24 26 l-9 10 -14 0 c-18 0 -20 -3 -20 -29 0 -22 -1
-24 -21 -31 -8 -3 -14 -6 -14 -6 0 -1 -1 -2 -3 -2 -7 0 -35 -38 -35 -48 0 -2
-1 -2 -1 0 -1 2 -3 4 -5 7 -5 4 -6 12 -6 30 0 8 -1 18 -3 22 -2 8 -13 25 -13
22 0 -1 -4 2 -9 8 -11 12 -11 16 0 28 5 6 9 9 9 8 0 -1 2 2 5 6 11 16 11 18
11 94 0 78 -1 82 -13 90 -3 2 -7 5 -7 6 -1 1 -2 1 -2 1 0 -1 -2 -1 -5 0 -3 1
-11 2 -17 3 -18 1 -24 6 -27 21 -3 17 5 29 19 32 17 4 26 -1 39 -21 3 -5 7
-10 9 -11 2 0 4 -1 4 -2 0 -1 1 -2 2 -1 1 1 2 0 3 -1 1 -1 6 -2 11 -2 9 0 11
1 23 12 18 17 30 41 28 56 -1 13 -10 29 -19 35 -18 12 -24 13 -109 21 -79 8
-98 9 -100 5z m-30 -181 c32 -7 35 -8 35 -24 0 -14 -6 -20 -20 -20 -6 0 -14 1
-18 3 -40 16 -47 21 -45 34 2 15 7 16 48 7z m836 -10 c10 -9 3 -26 -10 -26 -8
0 -15 7 -15 15 0 13 16 20 25 11z m516 -47 c6 -4 6 -6 6 -20 0 -14 0 -16 -5
-20 -11 -9 -44 -8 -52 2 -7 8 2 30 16 39 8 6 28 5 35 -1z m-144 -101 c26 -11
33 -17 33 -26 0 -9 -6 -14 -29 -23 -10 -4 -17 -9 -25 -17 -7 -7 -12 -13 -12
-14 0 -1 -2 -3 -3 -5 -2 -3 -9 -11 -15 -19 -16 -21 -21 -23 -55 -24 l-28 -1
-6 7 c-4 3 -7 8 -7 10 0 11 -14 24 -42 38 -6 3 -8 11 -7 23 1 23 8 26 52 24
l30 -1 20 7 c11 3 23 8 27 11 4 2 10 5 12 6 3 2 5 4 6 4 1 1 6 4 11 6 12 4 17
4 38 -6z m-1110 -89 c5 -8 1 -16 -8 -16 -9 0 -13 8 -8 16 2 3 5 5 8 5 3 0 6
-2 8 -5z m-70 -32 c9 -5 14 -18 11 -35 -2 -11 -2 -17 1 -47 l2 -19 -7 -6 c-8
-9 -25 -9 -34 0 -4 3 -6 8 -6 11 -1 20 -4 37 -9 54 -5 14 -5 17 -3 25 5 19 24
27 45 17z m278 -13 c10 -9 3 -26 -10 -26 -8 0 -15 7 -15 15 0 13 16 20 25 11z
m954 -6 c10 -9 3 -26 -10 -26 -8 0 -15 7 -15 15 0 13 16 20 25 11z m-276 -23
c-4 -6 -5 -6 -10 -1 l-5 5 4 4 5 5 4 -4 c4 -4 5 -5 2 -9z m341 -25 c8 -9 2
-22 -9 -22 -6 0 -13 7 -13 12 0 12 15 18 22 10z m-283 -6 c6 -1 23 -3 38 -4
38 -2 42 -4 51 -20 17 -32 22 -34 66 -34 17 0 40 1 50 2 29 4 35 1 41 -19 5
-17 4 -29 -1 -34 -4 -4 -8 -5 -22 -6 -25 -1 -36 -7 -49 -24 -11 -14 -24 -23
-36 -23 -3 0 -14 -2 -24 -5 -23 -6 -27 -6 -50 0 -11 3 -22 5 -25 5 -5 -1 -8 0
-13 5 l-6 6 1 31 c0 29 -1 36 -6 51 -4 12 -11 23 -21 34 -12 12 -19 23 -19 27
0 4 6 10 11 10 2 0 9 -1 14 -2z m-1178 -33 c0 -4 -4 -8 -9 -12 -8 -4 -10 -4
-15 2 -3 5 -3 5 0 10 8 8 9 9 17 5 4 -1 7 -3 7 -5z m879 -24 c12 0 21 -9 21
-20 1 -12 6 -22 18 -34 12 -12 22 -16 36 -14 17 2 21 9 22 39 2 28 2 28 55 24
31 -2 34 -3 42 -8 10 -7 17 -15 19 -26 5 -25 -7 -36 -31 -28 -10 3 -21 3 -30
-1 -7 -3 -11 -8 -20 -31 -5 -14 -23 -16 -44 -6 -17 9 -31 10 -45 5 -9 -4 -20
-4 -124 -5 -100 0 -115 0 -121 -3 -19 -9 -21 -29 -6 -79 5 -16 16 -29 31 -37
10 -4 12 -5 47 -5 48 0 53 2 62 22 2 5 4 12 5 15 0 8 5 15 9 15 4 0 9 -7 9
-15 1 -7 8 -23 13 -28 7 -8 13 -9 81 -9 48 0 67 1 77 3 17 4 36 4 54 0 13 -3
29 -3 89 -3 82 1 83 1 99 16 16 15 19 16 31 17 35 0 41 -25 16 -66 -5 -8 -9
-16 -9 -17 0 -2 -21 -12 -25 -12 -1 0 -12 -5 -24 -11 l-22 -12 -149 -1 c-106
0 -153 0 -164 2 -8 1 -28 7 -43 13 -16 6 -31 11 -32 11 -7 1 -22 -2 -33 -6 -6
-2 -12 -4 -14 -4 -4 0 -14 11 -17 20 -6 13 -13 20 -31 28 -17 8 -17 8 -28 6
-13 -3 -16 -5 -29 -18 -7 -7 -12 -10 -16 -10 -6 0 -26 -7 -31 -12 -5 -4 -9
-24 -5 -29 2 -3 19 -12 19 -10 0 1 2 0 6 -2 3 -1 7 -2 8 -2 7 2 10 -7 12 -34
2 -32 -1 -46 -12 -48 -2 0 -6 -2 -10 -4 -15 -6 -21 -1 -36 29 -16 34 -35 57
-69 85 -11 10 -12 10 -24 10 -11 0 -14 -1 -25 -8 -15 -10 -25 -12 -32 -6 -3 3
-3 6 -3 24 0 18 -1 21 -5 27 -2 3 -4 6 -3 6 1 0 -6 4 -15 9 -9 4 -19 9 -21 11
-5 3 -73 26 -73 25 0 -1 -3 2 -8 8 -3 3 -3 16 -4 78 l-1 74 6 6 6 6 81 0 80 0
20 11 c24 12 29 12 48 6 12 -4 32 -4 36 0 1 1 5 4 11 7 l10 6 89 -1 c49 0 93
1 98 2 5 1 20 1 34 1 14 -1 29 -2 34 -2z m-690 -50 c10 -9 9 -48 -2 -62 -6 -7
-19 -7 -26 0 -4 5 -5 7 -5 25 0 21 3 32 10 37 5 4 18 4 23 0z m1336 -10 c10
-8 9 -36 -1 -44 -5 -5 -6 -5 -17 -5 -11 0 -12 0 -18 6 -5 5 -6 7 -6 18 0 15 5
21 20 25 15 4 17 4 22 0z m-1365 -160 c4 -4 5 -7 5 -15 0 -14 -6 -20 -20 -20
-14 0 -20 6 -20 20 0 14 6 20 20 20 8 0 11 -1 15 -5z m248 -54 c3 -5 3 -5 0
-9 -2 -3 -3 -7 -3 -11 0 -3 -1 -5 -2 -4 -1 1 -2 2 -1 3 1 1 0 1 -2 1 -2 -1 -3
0 -3 2 0 2 -1 6 -3 9 -3 4 -3 4 0 9 2 3 5 5 7 5 2 0 5 -2 7 -5z m-305 -26 c15
-8 22 -10 39 -11 20 -1 24 -3 22 -17 -2 -13 -6 -20 -14 -25 -7 -4 -9 -4 -23
-2 -8 1 -23 2 -33 3 -22 1 -29 4 -33 13 -4 9 -3 24 1 31 6 12 26 16 41 8z
m309 -18 c1 -1 2 -2 4 -2 1 0 4 -1 5 -1 11 -1 16 -31 7 -40 -7 -6 -22 -6 -28
1 -6 5 -7 22 -2 26 2 1 3 4 3 5 0 1 1 4 3 5 2 2 3 4 2 5 -1 2 4 3 6 1z m900
-36 c12 -12 3 -31 -13 -31 -11 0 -18 7 -18 18 0 11 7 18 18 18 6 0 9 -1 13 -5z
m-1249 -50 c21 -9 20 -45 -2 -54 -10 -5 -28 -1 -34 6 -9 10 -9 32 0 42 7 8 24
11 36 6z m957 -33 c12 -2 49 -2 106 -2 70 1 89 0 90 -1 0 -2 4 -5 7 -7 4 -2 7
-4 7 -5 -2 -3 0 -8 8 -17 18 -22 19 -24 19 -33 0 -5 -2 -13 -5 -19 -7 -18 -10
-28 -9 -45 0 -12 -1 -20 -4 -28 -6 -16 -15 -31 -21 -31 -2 0 -3 -1 -1 -1 1 -1
2 -6 2 -15 0 -13 0 -14 6 -19 3 -2 9 -6 13 -7 5 -1 12 -5 16 -9 14 -11 22 -14
43 -16 7 -1 17 -3 21 -6 6 -3 12 -4 21 -4 12 0 14 1 23 8 9 6 11 7 22 7 13 0
16 -1 31 -15 5 -5 15 -12 21 -16 16 -9 20 -15 20 -28 0 -15 -7 -21 -26 -22 -8
0 -17 -2 -19 -3 -2 -1 -4 -2 -4 -1 0 2 -12 -5 -23 -12 -10 -7 -15 -8 -29 -7
-10 0 -16 12 -19 33 -1 4 -2 10 -2 13 -2 7 -16 18 -19 14 -2 -3 -21 3 -29 8
-13 9 -23 12 -32 12 -10 -1 -10 -1 -18 -10 -7 -11 -10 -21 -10 -36 0 -11 -1
-13 -6 -19 l-6 -6 -67 1 c-80 0 -81 0 -101 -18 -20 -18 -22 -18 -43 1 -16 15
-25 17 -61 17 l-28 -1 -6 6 -6 6 0 47 c0 26 1 47 1 48 1 1 4 5 7 9 3 4 5 7 5
5 0 -7 25 0 36 10 20 19 57 32 76 27 3 0 9 -6 14 -11 24 -30 22 -29 81 -29 60
0 60 0 61 22 0 8 1 15 3 15 1 1 1 2 -2 2 -8 0 -14 18 -11 33 6 26 -1 40 -21
48 -7 3 -17 3 -67 3 l-59 -1 -11 -5 c-6 -3 -14 -9 -18 -12 -12 -11 -16 -13
-28 -13 -12 0 -16 2 -28 13 -8 7 -26 17 -26 15 0 -1 -1 -1 -2 1 -2 3 -16 4
-27 2 -8 -3 -23 -9 -23 -11 0 -1 -7 -9 -13 -16 -2 -1 -2 -3 -2 -4 1 0 -2 -3
-7 -5 -19 -10 -35 0 -33 21 2 19 15 47 23 51 6 3 27 3 30 -1 2 -2 6 -2 15 -1
22 3 28 13 27 41 -1 15 -1 16 5 22 l6 6 20 -1 c11 0 28 1 38 3 19 2 20 2 48
-1z m-774 -12 c2 -4 3 -10 3 -30 0 -14 0 -31 1 -39 1 -13 0 -15 -4 -19 -4 -4
-4 -4 -9 0 -2 2 -4 4 -3 4 1 0 1 1 0 3 -1 1 -2 3 -2 4 -1 1 -1 4 -2 6 0 3 -1
9 -2 14 -1 6 -2 13 -2 17 -3 19 -1 36 6 43 6 6 9 5 14 -3z m-280 -17 c5 -8 1
-16 -8 -16 -9 0 -13 8 -8 16 2 3 5 5 8 5 3 0 6 -2 8 -5z m1421 -13 c5 -5 5
-15 0 -20 -9 -9 -24 -2 -24 10 0 8 6 14 14 14 3 0 8 -2 10 -4z m-1335 -32 c6
-5 11 -11 11 -12 0 -1 -3 -4 -6 -6 -8 -4 -16 -3 -20 4 -5 10 7 21 15 14z m51
-29 c0 1 2 -1 4 -3 7 -7 3 -19 -8 -19 -5 0 -18 11 -18 16 0 4 12 9 18 7 2 -1
4 -1 4 -1z m788 -71 c3 -3 4 -6 4 -10 -1 -3 -1 -6 0 -6 1 0 0 -3 -2 -7 -4 -9
-9 -9 -19 -1 -8 7 -10 18 -4 24 5 5 16 5 21 0z m-108 -8 c5 -5 6 -7 6 -17 0
-16 -7 -23 -23 -23 -13 0 -20 5 -23 17 -5 23 -1 29 21 29 12 0 14 -1 19 -6z
m574 -265 l-5 -5 -4 4 -5 5 4 4 5 5 4 -4 5 -5 -4 -4z m-639 -51 c7 -6 7 -19 1
-25 -6 -7 -19 -7 -25 -1 -7 6 -7 19 -1 25 6 7 19 7 25 1z m127 -44 c5 -5 6 -7
6 -17 0 -16 -7 -23 -23 -23 -10 0 -12 1 -17 6 -5 5 -6 7 -6 17 0 16 7 23 23
23 10 0 12 -1 17 -6z m562 -103 l-5 -5 -4 4 -5 5 4 4 5 5 4 -4 5 -5 -4 -4z
m-1315 6 c3 -5 3 -5 0 -10 -2 -3 -5 -5 -7 -5 -2 0 -5 2 -7 5 -3 5 -3 5 0 10 2
3 5 5 7 5 2 0 5 -2 7 -5z m70 0 c5 -8 1 -16 -8 -16 -9 0 -13 8 -8 16 2 3 5 5
8 5 3 0 6 -2 8 -5z m576 -19 c1 -1 9 -3 17 -6 16 -5 20 -9 20 -23 0 -13 -6
-19 -20 -19 l-10 0 -20 20 c-26 27 -28 29 -22 35 l4 5 15 -5 c8 -3 15 -6 16
-7z m-534 -114 c8 -8 8 -24 0 -32 -5 -5 -7 -6 -17 -6 -10 0 -12 1 -17 6 -8 8
-8 24 0 32 9 9 24 9 34 0z m-94 -84 c10 -9 3 -26 -10 -26 -8 0 -15 7 -15 15 0
13 16 20 25 11z"/>
<path d="M801 3144 c-19 -3 -31 -14 -34 -31 -1 -9 9 -50 16 -64 6 -10 18 -20
29 -24 15 -5 84 -4 93 2 14 7 17 26 7 43 -6 11 -8 28 -4 34 1 1 1 7 0 13 -4
27 -9 29 -59 29 -21 0 -43 -1 -48 -2z"/>
<path d="M944 2508 c0 -4 -6 -5 -23 -5 -2 1 -2 0 -2 -1 1 -1 0 -2 -1 -2 -1 0
-2 -2 -3 -4 -1 -2 -2 -4 -3 -3 -2 1 -2 -6 1 -8 1 -2 1 -3 0 -3 -1 0 0 -1 1 -3
2 -1 4 -2 4 -2 1 1 2 0 3 -1 0 -1 6 -1 12 0 9 0 11 0 12 -3 1 -5 2 8 1 25 0
12 -2 21 -2 10z"/>
<path d="M35 2473 c-23 -39 -26 -46 -24 -59 1 -19 9 -29 27 -34 13 -4 25 0 39
12 17 15 19 27 8 51 -2 6 -5 15 -6 21 -1 16 -6 20 -23 20 l-14 0 -7 -11z"/>
<path d="M1328 2220 c-28 -3 -45 -20 -41 -40 2 -12 15 -26 29 -30 42 -15 58
-13 68 9 5 11 5 15 1 29 -4 13 -11 23 -19 26 -11 5 -26 7 -38 6z"/>
<path d="M1476 2007 c0 -2 -1 -3 -3 -4 -3 -1 -8 -23 -7 -35 1 -26 4 -42 6 -42
1 0 2 -1 2 -3 0 -8 28 -22 41 -20 28 3 36 7 41 18 4 7 4 11 3 20 -1 11 -5 16
-24 28 -4 3 -10 8 -13 10 -5 5 -12 18 -11 20 1 0 1 1 -1 1 -1 0 -2 1 -1 2 2 3
-8 6 -21 6 -8 1 -12 0 -12 -1z"/>
<path d="M1636 1959 c-3 -1 -9 -3 -14 -4 -19 -2 -38 -9 -38 -13 0 -1 0 -8 0
-15 0 -15 3 -18 18 -21 14 -2 50 10 60 21 6 7 9 29 4 32 -5 3 -25 3 -30 0z"/>
</g>
</svg>
