<?xml version="1.0" standalone="no"?>
<!DOCTYPE svg PUBLIC "-//W3C//DTD SVG 20010904//EN"
 "http://www.w3.org/TR/2001/REC-SVG-20010904/DTD/svg10.dtd">
<svg version="1.0" xmlns="http://www.w3.org/2000/svg"
 width="600.000000pt" height="2870.000000pt" viewBox="0 0 600.000000 2870.000000"
 preserveAspectRatio="xMidYMid meet">
<metadata>
Created by potrace 1.15, written by Peter Selinger 2001-2017
</metadata>
<g transform="translate(0.000000,2870.000000) scale(0.500000,-0.500000)"
fill="#000000" stroke="none">
<path d="M34 3646 c-3 -1 -6 -1 -7 0 0 0 -1 0 -1 -2 0 -1 -1 -2 -3 -2 -4 0
-14 -12 -18 -21 -4 -9 -4 -73 -1 -86 5 -18 25 -32 45 -32 9 0 11 -1 16 -6 l5
-7 2 -88 c1 -82 1 -90 5 -97 2 -4 5 -9 6 -10 2 -2 3 -4 3 -4 1 -1 6 -6 12 -10
12 -9 14 -12 14 -21 0 -8 -3 -12 -18 -24 -7 -6 -12 -12 -15 -19 l-5 -11 0
-133 c1 -132 1 -134 5 -143 8 -16 9 -20 9 -28 0 -6 -3 -18 -6 -23 -1 -1 -3 -7
-5 -13 -3 -10 -3 -19 -3 -76 1 -75 0 -70 22 -92 17 -16 21 -26 14 -30 -8 -4
-28 -26 -32 -34 -4 -9 -4 -13 -4 -164 -1 -182 -3 -167 20 -168 9 0 16 -1 16
-3 1 -1 2 0 2 2 0 11 20 15 29 6 7 -7 7 -19 0 -26 -9 -9 -29 -5 -29 5 0 2 -1
4 -2 4 -1 0 -2 -1 -1 -2 1 -2 -3 -2 -12 -2 -21 0 -22 0 -22 -3 -1 -2 -2 -8 -3
-14 -1 -5 -2 -16 -2 -23 0 -17 -6 -25 -21 -25 -12 0 -31 -8 -38 -17 -12 -16
-12 -48 -1 -58 3 -3 8 -4 17 -4 10 0 13 -1 14 -3 0 -3 1 -3 1 0 0 9 10 12 29
11 2 0 6 -3 9 -6 6 -5 6 -7 6 -20 -1 -26 7 -42 22 -46 6 -2 346 -2 354 0 1 0
2 1 2 2 0 1 1 2 3 2 4 0 14 12 18 21 4 9 4 73 1 86 -3 11 -10 20 -20 25 -9 4
-30 9 -40 8 -6 -1 -8 0 -12 5 l-6 7 0 62 c0 59 0 62 -4 71 -5 9 -18 21 -23 21
-2 0 -6 3 -9 6 l-6 6 6 6 c3 3 7 6 9 6 5 0 18 12 23 21 8 17 4 68 -6 81 -3 3
-3 27 0 30 1 2 3 9 6 17 4 12 4 18 4 77 0 78 1 84 23 120 9 16 13 15 24 -5 9
-19 19 -27 41 -36 16 -6 21 -12 21 -28 0 -10 -7 -25 -11 -27 -8 -3 -11 -32 -5
-38 4 -3 31 -15 31 -13 0 1 2 -1 4 -3 5 -5 5 -13 1 -16 -2 -1 -3 -3 -3 -4 0
-1 -3 -5 -6 -8 -26 -21 -14 -72 20 -83 5 -2 11 -5 14 -8 4 -4 4 -5 1 -12 -1
-4 -5 -9 -8 -12 -3 -4 -7 -11 -8 -17 l-3 -11 13 -47 c7 -26 14 -49 14 -51 0
-2 3 -11 6 -20 2 -9 8 -28 12 -43 4 -15 9 -31 10 -36 3 -8 3 -8 -3 -14 -3 -4
-8 -6 -11 -6 -8 0 -26 -9 -32 -16 -7 -11 -9 -20 -9 -58 0 -28 1 -37 3 -43 4
-9 14 -21 18 -21 2 0 3 -1 3 -2 0 -3 15 -3 216 -3 201 0 216 0 216 3 0 1 1 2
3 2 4 0 14 12 18 21 2 6 3 15 3 43 0 50 -4 60 -27 70 -6 3 -14 5 -19 5 -23 2
-27 7 -39 48 -4 12 -34 104 -39 118 -2 6 -12 36 -22 67 -10 31 -20 62 -22 67
-2 6 -12 36 -22 67 -10 31 -20 62 -22 67 -2 6 -12 36 -22 67 -10 31 -20 62
-22 67 -2 6 -7 20 -10 32 -7 22 -11 29 -16 31 -2 0 -3 1 -4 2 0 1 -2 2 -3 2
-2 0 -3 3 -2 11 0 6 1 11 1 11 2 0 -3 26 -8 39 -2 7 -6 17 -7 22 -4 12 -34
104 -39 118 -18 52 -25 75 -24 89 1 9 3 17 6 23 8 16 10 23 11 45 0 12 1 23 3
25 1 3 9 9 17 15 20 12 28 20 36 34 3 6 13 23 21 38 8 15 17 31 20 36 3 5 11
19 18 31 6 12 19 35 28 51 9 16 16 30 17 32 1 4 19 14 27 15 3 1 24 3 48 6 48
6 60 9 69 18 23 22 15 51 -17 63 -23 8 -24 9 -30 13 -3 3 -15 10 -25 15 -14 7
-23 14 -30 21 -6 6 -15 13 -20 15 l-10 5 -111 0 c-109 0 -122 0 -122 -3 0 -1
-1 -2 -3 -2 -4 0 -14 -12 -18 -21 -2 -6 -3 -15 -3 -44 0 -34 0 -38 5 -47 9
-21 20 -26 67 -32 26 -3 31 -4 35 -8 6 -6 6 -7 -2 -22 -3 -7 -16 -31 -27 -54
-12 -23 -30 -57 -40 -77 -10 -20 -27 -53 -38 -73 -10 -20 -26 -52 -36 -71 -25
-49 -49 -94 -73 -142 -12 -23 -27 -52 -33 -64 -15 -28 -15 -30 -11 -56 3 -19
4 -22 1 -26 -4 -8 -15 -14 -22 -12 -12 3 -15 16 -9 46 3 14 3 54 3 283 l0 266
6 7 c4 5 7 6 13 6 48 1 68 10 75 34 3 13 3 77 -1 86 -4 9 -14 21 -18 21 -2 0
-3 1 -3 2 0 1 -1 2 -2 2 -6 1 -440 2 -444 0z m767 -76 c10 -9 3 -26 -10 -26
-8 0 -15 7 -15 15 0 13 16 20 25 11z m-500 -142 c11 -10 3 -28 -11 -28 -9 0
-16 6 -16 16 0 14 17 22 27 12z m-48 -322 c9 -5 13 -28 7 -40 -5 -9 -10 -11
-38 -10 -14 0 -27 -5 -35 -15 -11 -13 -11 -13 -11 -14 0 -4 -18 -13 -26 -13
-7 0 -14 5 -18 13 -5 10 -6 29 -1 38 5 10 12 12 36 11 7 0 10 0 20 3 8 2 17 9
24 17 4 6 10 10 13 11 3 1 6 2 7 2 3 1 17 -1 22 -3z m282 -138 c7 -7 7 -20 0
-26 -5 -5 -7 -5 -25 -5 -18 0 -20 0 -24 5 -4 5 -4 6 0 14 6 13 39 21 49 12z
m174 -109 c3 -2 5 -5 4 -7 -1 -7 -9 -22 -13 -24 -5 -3 -19 -2 -26 1 -5 2 -7 2
-20 0 -4 0 -8 -1 -9 -1 -2 0 -7 -4 -13 -9 -12 -12 -18 -15 -29 -14 -16 1 -23
7 -27 20 -8 29 19 47 47 33 13 -7 30 -8 42 -1 4 2 9 5 9 6 5 6 23 4 35 -4z
m-537 -195 c8 -8 2 -24 -10 -24 -8 0 -16 8 -16 16 0 4 1 6 3 6 2 0 4 1 4 3 2
4 14 4 19 -1z m82 -39 c15 -8 14 -41 -1 -48 -12 -7 -36 -3 -40 6 -6 16 -4 34
5 40 10 7 25 8 36 2z m94 -23 c5 -6 5 -12 0 -18 -7 -8 -22 -2 -22 9 0 11 15
17 22 9z m319 -29 c5 -8 1 -16 -8 -16 -9 0 -13 8 -8 16 2 3 5 5 8 5 3 0 6 -2
8 -5z m1 -147 c-8 -15 -30 -25 -37 -17 -8 7 5 24 22 29 10 3 10 3 14 0 l5 -5
-4 -7z m171 -26 c5 -5 6 -7 6 -16 0 -15 -8 -23 -23 -23 -9 0 -11 1 -16 7 -9 8
-9 23 -1 32 9 9 24 9 34 0z m-17 -91 c13 -14 -7 -51 -27 -51 -15 0 -19 16 -9
37 9 18 26 25 36 14z m-85 -4 c3 -3 3 -3 0 -6 -4 -5 -11 1 -7 6 4 4 4 4 7 0z
m-418 -137 c4 -6 4 -24 -1 -30 -7 -9 -27 -9 -34 0 -5 6 -5 24 0 30 7 9 27 9
35 0z"/>
</g>
</svg>
