<?xml version="1.0" standalone="no"?>
<!DOCTYPE svg PUBLIC "-//W3C//DTD SVG 20010904//EN"
 "http://www.w3.org/TR/2001/REC-SVG-20010904/DTD/svg10.dtd">
<svg version="1.0" xmlns="http://www.w3.org/2000/svg"
 width="1100.000000pt" height="2870.000000pt" viewBox="0 0 1100.000000 2870.000000"
 preserveAspectRatio="xMidYMid meet">
<metadata>
Created by potrace 1.15, written by Peter Selinger 2001-2017
</metadata>
<g transform="translate(0.000000,2870.000000) scale(0.500000,-0.500000)"
fill="#000000" stroke="none">
<path d="M946 3848 c-14 -2 -22 -7 -37 -20 -17 -15 -19 -15 -42 -4 -25 12 -29
13 -61 6 -32 -7 -58 -14 -86 -23 -12 -4 -22 -8 -24 -8 -6 -1 -45 -17 -59 -23
-7 -3 -14 -6 -14 -6 -1 0 -15 -7 -32 -15 -58 -29 -56 -28 -57 -45 0 -11 1 -14
4 -17 2 -2 4 -3 4 -2 0 1 1 1 3 0 1 -1 5 -2 8 -2 14 0 17 -1 22 -6 7 -7 7 -24
1 -32 -2 -3 -5 -5 -6 -5 -1 0 -5 -1 -8 -3 -4 -1 -8 -3 -9 -3 -1 0 -8 -3 -15
-6 -22 -8 -31 -10 -36 -9 -8 1 -18 6 -25 11 -8 7 -27 16 -33 16 -12 0 -35 -11
-40 -19 -10 -14 -18 -22 -29 -27 -13 -7 -79 -72 -93 -92 -1 -3 -4 -6 -5 -7 -1
-1 -6 -6 -10 -12 -4 -5 -8 -10 -9 -11 -1 -1 -21 -28 -35 -47 -4 -6 -7 -11 -7
-13 0 -1 -1 -2 -2 -2 -5 -3 -41 -65 -62 -109 -16 -32 -34 -72 -35 -78 0 -1 -1
-3 -1 -4 -1 -1 -3 -9 -5 -18 -2 -9 -5 -24 -8 -32 -9 -29 -5 -40 18 -45 10 -2
34 5 48 14 19 13 37 32 44 47 20 42 21 45 16 70 -5 25 -4 26 17 35 9 5 20 10
23 13 7 5 31 40 31 45 0 2 1 2 1 0 1 -2 4 -5 7 -8 3 -3 7 -9 10 -14 7 -16 19
-22 49 -26 36 -4 39 -7 43 -29 1 -8 4 -20 5 -27 5 -23 3 -33 -10 -48 -15 -18
-18 -32 -11 -71 6 -38 10 -43 31 -43 12 0 14 1 22 7 8 6 11 7 21 7 17 0 28 -6
28 -15 1 -8 -3 -24 -7 -29 -1 -1 -6 -4 -12 -7 -16 -7 -23 -19 -24 -41 0 -8 -1
-10 -12 -21 -10 -10 -13 -15 -16 -24 -2 -6 -3 -12 -2 -12 0 -1 1 -6 2 -12 1
-5 2 -14 3 -20 2 -11 3 -14 6 -38 1 -9 5 -32 8 -51 3 -19 7 -38 7 -42 1 -4 1
-9 2 -11 0 -2 1 -8 2 -14 1 -5 2 -11 3 -12 1 -1 2 -3 2 -4 0 -5 10 -18 18 -23
4 -3 9 -8 11 -11 2 -4 4 -7 5 -7 1 0 1 -3 1 -6 0 -3 1 -6 2 -6 0 0 1 -1 0 -2
-1 -2 -2 -13 -1 -25 0 -20 -1 -24 -6 -38 -7 -18 -8 -27 -2 -37 7 -11 14 -17
28 -24 17 -9 22 -15 22 -29 0 -10 -1 -12 -6 -17 -6 -6 -6 -7 -6 -22 0 -18 2
-21 18 -25 14 -4 18 -9 18 -21 0 -10 -6 -20 -12 -20 -1 0 -8 -3 -14 -7 -25
-15 -26 -37 -4 -55 13 -11 22 -10 56 7 8 4 38 3 45 -2 5 -3 8 -3 19 -2 17 2
25 6 36 19 14 15 20 27 26 55 6 25 6 25 1 42 -1 3 -5 11 -8 13 -6 7 -12 19
-12 24 2 9 2 11 8 28 l5 16 -7 21 c-13 37 -14 46 -3 62 3 5 6 9 6 8 0 -3 11
-8 18 -7 8 0 26 7 31 12 9 8 11 15 20 57 10 44 11 51 7 62 -3 10 -8 13 -23 20
l-13 6 -13 -5 c-7 -2 -15 -6 -17 -8 -5 -4 -10 -16 -10 -24 0 -10 -6 -34 -9
-37 -6 -6 -13 -4 -19 7 -10 16 -26 28 -54 40 -10 4 -18 9 -22 14 -7 6 -14 23
-14 31 0 4 6 10 12 11 5 0 22 -5 31 -11 13 -7 31 -2 39 12 5 8 4 21 -2 75 -2
19 -5 48 -7 63 -2 15 -3 31 -4 34 -1 9 -7 21 -13 28 -5 6 -27 17 -34 17 -9 0
-17 13 -19 30 -2 8 5 16 24 26 14 8 21 17 24 29 4 13 -5 97 -13 131 -11 43 -7
56 19 56 8 0 14 -1 15 -3 3 -3 18 -1 28 3 15 6 18 30 8 56 -7 17 -12 22 -28
31 l-11 6 -52 1 c-33 0 -55 0 -59 -2 -10 -3 -19 -11 -25 -24 -8 -16 -18 -16
-26 0 -3 6 -8 13 -12 17 -9 9 -18 9 -40 1 -20 -7 -26 -8 -41 -3 -6 1 -17 4
-25 5 -13 2 -21 7 -21 12 0 4 7 10 18 16 8 3 14 7 14 9 2 14 1 27 -2 35 -2 5
-4 11 -4 14 0 6 8 20 12 23 5 3 16 31 16 42 0 8 6 13 16 13 15 0 20 -2 34 -15
16 -16 20 -19 33 -18 10 0 14 2 50 25 7 4 17 10 22 13 6 3 14 9 17 12 4 4 8 7
9 7 2 0 3 1 3 2 0 1 5 2 11 4 28 7 48 21 74 50 3 4 9 9 13 12 11 8 17 16 21
26 2 5 4 10 5 11 1 1 2 3 2 5 0 8 9 14 20 14 13 0 22 -8 20 -18 0 -1 1 -2 2
-2 1 0 2 -1 2 -3 0 -5 9 -18 15 -21 8 -5 21 -6 29 -4 9 2 58 11 71 13 6 1 17
2 26 3 9 1 23 3 32 3 26 2 40 12 51 36 8 17 11 19 28 19 16 0 23 -5 25 -15 2
-9 11 -25 18 -30 15 -12 27 -13 42 -4 11 6 13 10 13 22 0 16 -8 26 -29 35 -24
11 -21 24 7 32 4 1 6 2 4 2 -2 0 -2 4 -2 18 l1 17 -8 3 c-9 3 -121 5 -137 2z
m-426 -622 c17 -9 20 -38 6 -52 -6 -6 -10 -7 -20 -6 -21 4 -27 11 -27 30 0 27
19 39 41 28z m29 -99 c6 -6 7 -12 1 -14 -2 -1 -4 -2 -4 -3 0 -2 -11 -1 -16 2
-4 3 -4 10 2 16 4 5 10 5 17 -1z m36 -346 c8 -5 10 -17 8 -44 -2 -28 -2 -31 2
-41 2 -4 4 -14 4 -22 1 -15 1 -16 -4 -21 -7 -7 -21 -7 -31 -1 -6 3 -28 32 -28
35 0 1 -3 5 -6 8 -6 6 -8 13 -4 13 0 0 2 2 3 6 2 3 4 6 5 8 4 7 20 44 21 49 2
11 21 17 30 10z"/>
<path d="M1167 3829 c-17 -7 -20 -27 -7 -44 13 -17 14 -21 14 -41 -1 -34 5
-43 30 -52 10 -4 45 -13 56 -15 3 -1 6 -2 7 -3 1 -1 11 -4 21 -8 24 -8 65 -24
78 -31 9 -5 13 -5 22 -4 6 0 12 2 13 3 1 1 3 2 5 2 5 0 13 18 16 36 3 18 4 18
17 27 9 6 11 8 11 15 1 8 -1 9 -3 1 0 -2 0 0 0 4 2 15 0 17 -39 36 -40 20 -48
23 -67 23 -8 1 -14 2 -14 3 1 0 0 1 -2 1 -1 0 -4 3 -5 7 -3 6 -5 7 -29 15 -34
11 -91 25 -106 27 -8 1 -14 0 -18 -2z m157 -74 c7 -4 10 -25 6 -33 -4 -8 -24
-13 -42 -10 -14 2 -20 8 -20 19 0 12 8 20 24 22 17 2 18 3 19 4 2 1 10 0 13
-2z"/>
<path d="M1480 3704 c-9 -1 -9 -4 -3 -23 10 -28 10 -35 -1 -73 -3 -10 4 -30
13 -40 6 -7 31 -24 34 -24 0 0 6 -4 11 -10 6 -5 19 -16 28 -24 23 -20 70 -67
94 -95 11 -13 44 -57 57 -76 15 -24 21 -27 49 -25 1 0 8 6 15 13 10 9 13 15
16 22 7 24 6 49 -3 62 -6 8 -21 12 -41 10 -12 -1 -14 -1 -18 3 -7 6 -7 16 0
30 7 16 7 35 0 44 -4 4 -8 9 -10 12 -19 23 -23 26 -51 35 -21 7 -21 6 -28 30
-9 29 -11 32 -35 40 -11 4 -22 15 -25 26 -1 5 -4 10 -7 11 -5 3 -40 28 -46 33
-2 2 -7 5 -11 6 -4 2 -9 5 -12 6 -4 2 -6 3 -6 2 0 -1 -1 -1 -2 0 -2 4 -11 6
-18 5z m103 -101 c5 -7 2 -22 -4 -28 -11 -11 -31 -3 -31 12 0 14 8 21 23 21 7
0 9 -1 12 -5z"/>
<path d="M1128 3432 c-5 -2 -8 -3 -8 -4 0 -1 -1 -2 -3 -2 -2 0 -6 -3 -10 -6
-11 -12 -25 -18 -39 -18 -20 0 -36 -9 -43 -23 -15 -33 8 -68 43 -64 24 3 35
11 49 41 7 17 11 21 24 20 18 0 22 -16 10 -41 -7 -14 -15 -37 -15 -42 0 -3 -6
-17 -9 -21 -9 -11 -13 -30 -22 -103 -11 -85 -11 -82 7 -109 11 -16 10 -22 -6
-38 -11 -11 -18 -26 -23 -49 -7 -31 -3 -39 18 -44 11 -3 12 -3 25 3 25 12 34
23 37 45 1 11 2 18 4 28 3 18 14 91 16 108 1 4 2 10 2 13 0 3 1 9 2 13 1 5 1
10 2 12 0 2 1 9 2 15 1 6 2 13 2 15 2 6 9 55 11 71 1 8 3 18 3 22 1 4 2 11 2
15 2 10 12 21 21 21 4 0 9 1 11 1 2 0 7 1 12 2 24 4 40 25 39 51 -2 16 -5 24
-17 37 -5 6 -10 9 -14 10 -8 1 -28 -3 -36 -6 -12 -5 -17 -3 -33 13 -14 15 -41
20 -64 14z"/>
<path d="M1777 3288 c-1 -1 -2 -2 -3 -1 -1 1 -2 0 -2 -1 0 -1 -2 -4 -4 -6 -3
-4 -6 -14 -6 -23 0 -3 4 -13 9 -23 5 -11 10 -22 11 -27 4 -12 10 -15 27 -15
13 0 15 1 21 6 4 3 10 6 15 7 9 2 23 10 23 14 0 2 1 3 2 2 2 -1 1 22 -1 24 -3
3 -23 6 -35 5 -10 0 -13 2 -19 15 -7 15 -14 21 -27 23 -6 1 -11 1 -11 0z"/>
<path d="M846 3281 c-10 -3 -25 -10 -31 -14 l-13 -8 0 -14 c-1 -14 -1 -15 5
-19 4 -2 13 -6 20 -8 7 -3 14 -6 16 -8 9 -10 8 -33 -2 -41 -4 -4 -8 -5 -19 -5
-16 0 -31 -4 -35 -9 -3 -4 -4 -32 -1 -30 1 1 2 0 2 -1 1 -2 9 -3 27 -4 30 -1
33 -3 33 -20 0 -10 -6 -20 -12 -20 -32 -2 -75 -28 -87 -53 -14 -29 6 -56 38
-49 21 4 46 4 51 -1 5 -4 5 -6 1 -20 -6 -19 -18 -29 -49 -39 l-12 -4 -6 4
c-12 8 -38 2 -46 -11 -15 -24 -10 -48 12 -63 13 -8 13 -8 25 -7 7 1 15 3 18 4
13 7 19 -2 26 -39 3 -13 7 -28 9 -33 4 -9 14 -20 20 -22 2 -1 4 -2 4 -3 0 -1
3 -3 6 -4 12 -5 15 -21 7 -35 -18 -30 -19 -37 -11 -77 3 -13 11 -48 17 -79 14
-71 16 -74 40 -87 6 -4 13 -9 15 -12 3 -7 1 -12 -11 -27 -21 -25 -13 -62 16
-76 10 -5 12 -5 64 -5 53 0 54 0 64 5 13 6 17 11 18 23 2 11 -2 18 -13 29 -24
22 -24 36 -2 48 19 10 27 25 25 43 -3 21 0 35 11 47 3 2 7 10 10 17 6 12 6 13
4 23 -3 13 -9 20 -27 31 -14 8 -18 22 -11 35 3 5 5 7 8 6 14 -6 39 6 46 22 1
4 4 22 13 76 5 34 6 41 2 55 -6 22 -6 30 -1 40 3 6 4 13 4 22 0 11 0 13 -7 19
-17 16 -18 17 -32 16 -24 -1 -24 -2 -34 -82 -4 -34 -8 -64 -9 -65 -3 -6 -10
-5 -11 1 -3 12 -9 49 -9 52 0 2 -3 9 -6 15 -3 6 -8 14 -9 18 -2 4 -4 7 -5 8
-3 2 -10 26 -10 33 0 4 2 16 3 25 4 18 4 23 -2 54 -13 72 -13 72 -43 99 -14
12 -14 29 -2 52 11 21 12 30 7 64 -3 17 -7 41 -9 55 -7 50 -19 60 -66 60 -23
0 -26 -1 -44 -7z m44 -264 c14 -9 28 -35 21 -42 -1 -2 -5 -3 -7 -3 -6 0 -35 9
-43 14 -9 5 -8 16 4 30 5 5 17 6 25 1z m12 -174 c3 -2 6 -5 8 -7 7 -8 32 -14
42 -9 7 3 26 1 31 -3 2 -3 6 -14 6 -19 0 -2 -1 -5 -1 -8 0 -14 -24 -24 -47
-19 -16 3 -21 6 -30 18 -4 6 -10 13 -13 16 -6 6 -14 19 -14 23 0 3 7 11 10 11
1 0 5 -2 8 -3z m94 -112 c5 -4 9 -12 14 -32 4 -17 4 -30 -2 -41 -7 -14 -9 -35
-4 -48 2 -4 2 -12 1 -22 -2 -21 -3 -25 -8 -34 -3 -6 -4 -6 -11 -5 -21 4 -38
22 -38 40 0 8 1 10 9 18 9 10 9 9 10 28 0 12 -1 15 -4 19 -7 7 -9 19 -7 32 1
6 2 13 3 16 5 28 20 39 37 29z"/>
<path d="M1825 3161 c-15 -8 -17 -23 -7 -57 32 -107 40 -260 20 -378 -6 -33
-6 -46 -1 -53 5 -7 17 -11 32 -11 8 0 13 -1 16 -4 2 -2 8 -3 19 -3 24 -1 25 1
33 50 5 27 9 70 8 76 -1 11 -9 20 -19 25 -5 2 -8 4 -8 3 0 -1 -2 0 -4 1 -3 2
-6 3 -8 3 -4 0 -10 6 -10 11 0 5 6 11 11 11 9 0 30 11 28 15 -1 1 0 2 1 2 2 0
2 3 3 26 0 10 1 21 2 23 7 26 8 29 5 58 -6 72 -22 156 -33 171 -10 14 -27 24
-49 30 -22 6 -30 6 -39 1z"/>
<path d="M1260 3160 c-11 -3 -19 -10 -25 -20 -5 -10 -6 -13 -7 -35 -1 -29 3
-39 16 -47 15 -9 19 -10 43 -4 30 6 35 6 57 0 18 -6 21 -6 64 -6 l45 0 8 -6
c4 -3 6 -6 5 -6 -2 -1 -11 -23 -34 -77 -11 -27 -12 -49 -4 -65 5 -10 8 -17 10
-18 1 -1 3 -5 5 -10 2 -9 2 -9 -1 -13 -4 -4 -5 -4 -11 -2 -4 2 -13 3 -20 3
-21 0 -24 -2 -37 -34 -6 -15 -13 -31 -15 -37 -9 -19 -21 -49 -21 -50 0 0 -2
-6 -5 -11 -2 -6 -13 -31 -23 -55 -18 -43 -18 -44 -18 -57 1 -7 3 -17 6 -23 5
-12 6 -30 2 -37 -2 -3 -12 -9 -23 -15 l-20 -10 -1 -14 c0 -17 1 -18 23 -28 14
-6 17 -11 17 -26 0 -10 -1 -12 -6 -17 -3 -3 -7 -6 -9 -6 -12 -1 -19 0 -25 3
-5 3 -10 3 -18 2 -14 -1 -18 -3 -24 -12 -5 -9 -6 -44 -1 -56 4 -9 14 -21 18
-21 2 0 3 -1 3 -2 0 -2 1 -2 35 -3 35 -2 46 0 61 10 21 14 27 16 38 10 3 -2
12 -3 20 -3 21 -1 28 5 34 30 3 13 8 24 12 26 3 2 3 5 2 19 -1 18 -4 24 -16
30 -3 2 -6 6 -8 11 -3 10 0 15 12 23 13 9 19 24 18 43 0 6 1 12 2 14 2 4 19
16 22 16 6 0 22 20 29 37 4 10 9 21 10 25 2 3 6 14 9 23 3 8 7 17 9 19 2 2 3
4 3 6 0 1 3 9 7 17 3 9 10 24 14 34 4 10 9 21 10 24 9 21 7 38 -8 55 -9 10
-13 18 -13 29 0 18 4 21 27 28 25 7 36 15 52 36 5 6 6 9 5 18 -1 15 -7 24 -22
33 -7 3 -12 8 -16 16 -4 5 -10 13 -15 17 -8 7 -27 17 -32 17 -1 0 -4 2 -7 5
-9 10 -5 25 12 51 10 15 15 18 27 18 11 0 6 3 42 -34 8 -9 17 -19 20 -22 4 -4
6 -4 20 -4 l17 1 4 8 c16 35 21 53 20 79 -2 26 -8 37 -26 47 -7 4 -16 4 -203
4 -108 1 -198 0 -201 -1z m215 -441 c8 -7 10 -30 3 -38 -10 -11 -35 -10 -42 2
-6 10 -5 30 3 36 8 7 28 7 36 0z m-57 -83 c5 -4 5 -11 0 -16 -10 -10 -27 5
-16 16 3 4 9 4 16 0z"/>
<path d="M89 3100 c-3 0 -7 -3 -9 -5 -5 -3 -5 -4 -4 -13 1 -5 3 -12 5 -15 3
-6 15 -17 18 -17 3 0 12 -9 15 -14 4 -7 3 -24 -1 -31 -1 -3 -6 -9 -9 -13 -28
-31 -19 -78 15 -76 22 1 34 20 38 59 0 6 1 12 2 14 0 2 1 9 2 16 1 6 2 14 2
16 7 31 -1 47 -30 66 -8 5 -15 10 -15 11 -1 3 -21 4 -29 2z"/>
<path d="M1259 3014 c-4 -1 -11 -6 -16 -13 -13 -13 -19 -32 -20 -57 -1 -9 -1
-25 -2 -34 -2 -35 9 -52 39 -58 19 -4 40 5 49 21 3 4 10 25 16 46 6 20 11 38
12 38 0 1 -1 6 -2 12 -4 17 -11 24 -36 36 -23 11 -27 12 -40 9z"/>
<path d="M65 2891 c-4 -2 -7 -5 -8 -7 -1 -2 -2 -4 -3 -4 -2 0 -3 -9 -3 -49 1
-39 1 -43 8 -59 5 -10 18 -28 24 -33 3 -2 7 -5 8 -6 1 -1 8 -5 15 -9 12 -7 18
-14 18 -22 0 -7 -8 -14 -14 -14 -8 0 -27 -10 -31 -18 -9 -13 -4 -40 9 -49 7
-5 28 -11 38 -11 14 1 21 -8 21 -24 -1 -9 -5 -15 -17 -23 -28 -19 -25 -52 7
-77 1 -1 6 -3 12 -5 14 -5 22 -14 27 -29 6 -17 12 -22 26 -21 7 0 12 -1 12 -2
0 -2 12 17 18 29 6 11 5 31 -2 48 -14 29 -40 99 -43 115 -1 2 -2 6 -3 9 -1 3
-3 9 -4 14 -2 5 -3 10 -3 11 -2 8 -9 37 -10 46 -1 4 -2 9 -4 11 -1 1 -2 11 -3
22 -2 18 -7 73 -9 84 -1 11 -11 27 -19 35 -5 4 -17 15 -26 24 -16 15 -18 16
-26 17 -5 0 -12 -2 -15 -3z"/>
<path d="M1626 2670 c-11 -5 -21 -15 -26 -27 -3 -6 -21 -67 -25 -83 -1 -2 -7
-23 -14 -47 -16 -55 -14 -53 -53 -53 -40 0 -48 -4 -49 -26 0 -7 -1 -12 -2 -12
-1 0 1 -2 3 -4 4 -3 4 -6 5 -20 1 -9 2 -20 3 -24 3 -9 13 -22 19 -23 3 -1 5
-2 5 -3 0 -2 2 -2 48 -3 39 -1 45 -1 61 3 17 4 32 6 34 3 1 0 5 0 10 1 12 3
21 4 20 2 -1 -1 0 -2 1 -3 2 -1 1 -5 -2 -13 -5 -13 -71 -82 -107 -112 -28 -23
-27 -23 -34 -28 -12 -8 -14 -31 -5 -44 5 -7 40 -25 63 -32 9 -3 30 -3 31 0 0
1 1 2 2 1 1 -1 14 23 14 27 0 2 15 16 18 16 8 0 28 13 40 24 18 19 19 34 5 57
-12 18 -10 39 4 46 8 4 24 4 33 0 10 -4 28 -4 37 0 7 3 15 14 37 49 11 18 12
24 11 60 0 37 2 47 16 60 8 9 9 9 9 22 0 19 0 19 -6 22 -4 1 -10 5 -14 8 -6 4
-8 4 -19 3 -19 -2 -25 -6 -34 -24 -35 -68 -74 -129 -83 -129 -2 0 -2 1 -2 1 1
1 -1 4 -3 6 -3 3 -4 7 -4 9 2 10 -18 21 -36 20 -28 -2 -38 5 -38 27 0 18 5 23
26 29 14 4 22 10 30 18 10 13 12 20 9 40 -6 38 -6 39 10 55 11 12 13 23 5 46
-3 9 -7 22 -9 30 -5 16 -8 20 -19 25 -10 5 -14 5 -25 0z"/>
<path d="M1881 2606 c-9 0 -11 -1 -18 -9 -10 -11 -15 -25 -13 -34 1 -3 3 -8 3
-10 2 -8 10 -13 21 -13 18 0 25 6 31 29 6 23 -4 39 -24 37z"/>
<path d="M202 2402 c-18 -1 -20 -2 -21 -10 -1 -4 -2 -9 -1 -11 0 -5 8 -24 11
-25 0 0 1 -1 1 -2 0 -2 9 -16 12 -18 1 -1 3 -5 5 -9 2 -5 4 -9 5 -9 1 0 2 -1
2 -3 0 -1 2 -4 4 -6 2 -2 5 -8 8 -12 19 -31 35 -48 59 -59 16 -8 20 -12 26
-19 6 -10 16 -21 31 -34 8 -6 10 -10 15 -24 6 -18 11 -25 23 -29 11 -3 28 -2
47 3 44 12 49 12 56 -6 6 -14 4 -20 -8 -32 l-11 -10 0 -15 0 -14 15 -9 c49
-33 109 -66 127 -71 19 -5 32 7 33 33 0 8 3 21 6 30 6 17 6 19 3 29 -3 12 -15
17 -41 16 -18 0 -19 2 -27 24 -4 9 -7 17 -8 18 -1 1 -2 3 -3 4 -1 4 -10 11
-25 20 -5 3 -14 9 -21 14 -7 4 -14 8 -15 8 -1 0 -3 1 -4 3 -2 2 -8 7 -15 12
-7 4 -13 9 -14 10 -1 1 -6 5 -10 8 -13 10 -32 25 -35 29 -15 15 -49 45 -51 46
-1 0 -2 1 -3 2 -1 1 -6 4 -12 8 -15 9 -16 11 -27 32 -5 11 -15 27 -23 38 -8
10 -14 19 -14 20 0 3 -18 8 -25 7 -10 -1 -15 -3 -14 -5 0 -1 -1 -3 -3 -5 -2
-2 -3 -5 -3 -6 2 -4 -5 -13 -10 -13 -2 0 -6 2 -9 5 -6 4 -19 24 -21 30 -1 6
-7 8 -15 7z"/>
<path d="M1457 2119 c-6 -3 -9 -7 -9 -16 0 -3 1 -5 2 -5 1 0 2 -2 3 -5 1 -3 2
-5 3 -5 1 0 2 -1 1 -2 -1 -1 4 -2 9 -3 11 -1 21 1 23 5 2 5 2 28 1 30 -2 4
-26 4 -33 1z"/>
<path d="M1368 2104 c-12 -2 -41 -16 -50 -23 -9 -8 -12 -14 -16 -30 -2 -8 -2
-11 2 -25 4 -14 12 -36 13 -38 1 -1 9 -1 18 -2 20 -1 23 1 24 17 2 14 7 19 20
19 8 0 11 -1 20 -9 6 -5 12 -9 13 -9 0 0 3 -1 5 -1 13 -4 19 -3 30 2 31 16 32
16 33 36 0 13 0 15 -4 16 -2 1 -4 2 -4 4 0 1 -1 1 -2 -1 -1 -2 -2 -2 -2 0 0 3
-12 3 -26 0 -9 -3 -10 -2 -17 3 -3 2 -8 8 -10 12 -5 10 -12 20 -18 24 -6 4
-20 6 -29 5z"/>
<path d="M736 2059 c-10 -2 -21 -10 -28 -21 -7 -10 -7 -11 -6 -22 1 -10 2 -11
11 -19 23 -21 23 -21 23 -30 0 -5 1 -12 3 -16 1 -3 4 -9 5 -13 3 -7 11 -14 21
-18 10 -3 56 -13 79 -17 4 0 16 -2 26 -4 10 -1 30 -4 44 -5 25 -3 26 -3 48 3
l22 6 20 -6 c18 -5 24 -6 42 -5 27 0 80 6 83 8 1 1 3 2 5 2 6 0 16 10 22 23 8
18 17 26 21 19 1 -2 13 -1 26 1 8 2 18 8 22 14 2 3 4 5 6 5 5 0 31 30 31 35 0
5 -6 15 -8 14 -1 -1 -2 0 -3 1 -2 4 -19 2 -28 -3 -16 -9 -31 -7 -42 7 -12 14
-33 21 -51 18 -13 -2 -41 -5 -63 -7 -25 -2 -49 -10 -60 -21 -8 -7 -12 -29 -8
-48 2 -10 -5 -20 -14 -20 -11 0 -19 17 -12 27 2 2 3 5 3 7 0 2 1 4 2 4 1 0 2
0 3 15 2 15 -1 19 -17 27 -15 7 -19 7 -70 13 -16 2 -33 4 -39 5 -5 1 -18 3
-27 5 -9 2 -29 6 -45 10 -25 7 -35 8 -47 6z m58 -86 l-5 -5 -4 4 -5 5 4 4 5 5
4 -4 5 -5 -4 -4z"/>
</g>
</svg>
