<?xml version="1.0" standalone="no"?>
<!DOCTYPE svg PUBLIC "-//W3C//DTD SVG 20010904//EN"
 "http://www.w3.org/TR/2001/REC-SVG-20010904/DTD/svg10.dtd">
<svg version="1.0" xmlns="http://www.w3.org/2000/svg"
 width="1121.000000pt" height="2870.000000pt" viewBox="0 0 1121.000000 2870.000000"
 preserveAspectRatio="xMidYMid meet">
<metadata>
Created by potrace 1.15, written by Peter Selinger 2001-2017
</metadata>
<g transform="translate(0.000000,2870.000000) scale(0.500000,-0.500000)"
fill="#000000" stroke="none">
<path d="M1276 3830 c-8 -3 -14 -7 -20 -12 -22 -21 -28 -24 -51 -25 -16 -1
-25 4 -25 15 0 3 -1 4 -1 2 -1 -2 -3 -3 -7 -2 -3 0 -11 0 -17 -1 -11 -1 -13
-3 -7 -9 2 -2 3 -7 2 -11 0 -1 1 -1 2 0 1 1 2 0 2 -1 0 -5 17 -30 26 -41 7 -7
14 -12 23 -16 16 -7 22 -15 16 -24 l-3 -5 -22 1 c-21 2 -22 1 -31 -4 -10 -6
-18 -17 -20 -27 -1 -3 -1 -7 -1 -8 -1 0 0 -4 1 -7 3 -16 5 -41 3 -44 -4 -6 -6
-22 -7 -54 0 -21 -1 -38 -2 -40 -4 -6 -7 -14 -8 -18 0 -4 -1 -4 -1 0 0 10 -15
13 -45 11 -13 -1 -15 0 -21 6 -5 5 -6 7 -6 17 0 14 1 17 14 26 12 9 15 16 16
31 l1 10 -17 18 c-21 22 -73 62 -79 62 -1 0 -4 2 -7 4 -3 2 -16 9 -29 16 -22
11 -37 15 -61 19 -5 1 -13 4 -19 7 -26 15 -36 18 -51 13 -18 -6 -29 -24 -25
-43 2 -11 16 -21 34 -25 8 -2 16 -3 18 -3 8 1 12 0 17 -6 5 -5 6 -7 6 -17 0
-13 -3 -18 -15 -33 -12 -16 -13 -28 -5 -61 11 -43 15 -74 17 -122 2 -33 5 -40
24 -49 6 -4 13 -8 15 -10 3 -3 8 -15 9 -22 2 -8 10 -20 14 -20 4 0 4 0 0 -2
-3 0 -7 -3 -9 -4 -2 -2 -4 -3 -4 -3 0 1 -1 1 -2 0 -2 -1 -12 -3 -23 -3 -19 0
-24 -1 -35 -7 -6 -2 -6 -3 -18 -12 -12 -10 -16 -12 -26 -12 -10 0 -14 2 -26
12 -5 4 -10 8 -11 9 -10 7 -26 10 -32 5 -5 -3 -20 -4 -28 -1 -6 2 -16 11 -51
46 l-24 24 -14 -1 c-10 0 -15 -1 -18 -4 -6 -5 -14 -23 -20 -43 -6 -19 -8 -24
-18 -35 -15 -16 -18 -20 -25 -33 -6 -12 -6 -13 -10 -9 -6 6 -7 13 -7 41 0 30
-2 41 -12 54 -3 4 -5 7 -6 8 -1 1 -3 5 -6 9 -5 9 -5 9 -1 18 5 13 7 40 3 47
-5 9 -6 17 -7 35 -1 21 -5 34 -13 41 -5 4 -20 12 -24 12 -5 0 -12 11 -12 20 0
10 -1 9 23 22 10 5 21 35 15 39 -3 2 -2 21 1 27 3 5 13 13 30 22 4 3 11 6 15
9 4 2 10 5 13 7 23 11 39 30 50 61 8 21 1 40 -18 49 -8 4 -13 5 -45 6 -19 1
-39 3 -44 4 -5 1 -36 4 -68 7 -33 3 -63 5 -69 6 -52 5 -81 7 -88 5 -17 -5 -26
-21 -30 -52 -1 -5 -2 -12 -3 -16 -1 -4 -2 -103 -2 -238 0 -230 0 -232 4 -242
2 -6 5 -11 6 -12 2 -1 8 -13 11 -23 3 -7 3 -8 -2 -12 -4 -5 -4 -5 -15 -1 -6 2
-13 6 -15 9 -3 3 -10 7 -15 9 -9 5 -11 5 -64 5 -37 1 -56 0 -57 -1 -2 -2 -3
-2 -3 -1 0 1 -2 0 -3 -1 -3 -2 -3 -2 -2 0 1 1 -1 2 -6 2 -5 0 -7 -1 -6 -2 1
-2 1 -2 -2 0 -2 2 -4 2 -8 -1 -4 -3 -4 -6 -5 -18 0 -9 0 -13 2 -13 2 0 0 -1
-3 -2 -4 -1 0 -2 14 -2 19 0 20 0 25 -6 11 -11 7 -38 -6 -38 -3 0 -4 -1 -2 -2
2 -1 3 -5 3 -16 l0 -15 10 -3 c8 -4 16 -4 69 -4 l59 1 6 -6 6 -6 -1 -279 0
-279 -6 -6 c-3 -4 -6 -6 -6 -6 -1 1 -43 -5 -55 -8 -2 0 -8 -1 -14 -2 -14 -2
-61 -9 -66 -10 -4 -1 -15 -2 -31 -4 -30 -4 -46 -27 -34 -52 2 -4 19 -43 37
-87 35 -82 40 -91 56 -102 15 -10 17 -15 16 -38 -2 -21 0 -29 9 -50 4 -7 8
-16 9 -20 14 -30 18 -34 37 -36 l14 -1 13 14 c7 7 13 14 13 14 0 5 23 26 35
33 7 5 16 10 19 12 3 2 12 8 20 13 17 11 21 18 19 35 0 7 -2 12 -6 16 -8 9
-10 14 -9 29 1 17 0 33 0 53 -1 17 2 24 10 28 7 4 27 3 33 -1 9 -6 18 -32 20
-58 1 -24 7 -34 22 -36 l11 -1 50 33 c28 19 51 34 52 35 1 1 5 4 10 7 5 3 9 6
10 7 1 1 10 7 20 14 10 7 19 13 20 14 1 1 7 5 14 10 7 5 15 11 19 14 5 5 21
27 21 30 0 2 11 7 28 13 20 7 24 9 44 25 23 17 33 25 34 26 1 1 5 4 9 7 4 3 9
7 10 8 1 1 5 4 9 7 4 3 8 6 10 8 2 2 7 6 11 9 17 13 32 35 28 41 -1 1 0 2 1 2
1 0 5 2 8 5 l5 5 53 0 c53 0 53 0 62 -5 4 -3 10 -5 12 -5 3 0 3 0 0 -2 -2 0
-3 -2 -3 -4 0 -4 -12 -18 -17 -19 -2 -1 -4 -2 -4 -3 0 -1 -5 -11 -11 -22 -11
-19 -11 -20 -11 -32 3 -41 40 -59 79 -40 18 9 27 18 27 27 0 19 -5 28 -21 34
-15 5 -19 11 -20 26 -1 12 -1 13 5 17 7 5 27 6 33 1 5 -3 21 -33 21 -38 0 -1
6 -5 12 -8 l13 -5 16 3 c9 2 18 4 21 5 11 2 22 0 33 -7 19 -12 21 -13 58 -14
30 -1 40 1 47 8 2 2 12 19 23 38 11 18 21 35 22 36 8 8 16 9 60 9 l44 0 7 -6
c3 -3 5 -6 4 -6 -1 0 -2 -3 -3 -7 -1 -5 -2 -9 -2 -10 -1 -6 -26 -78 -30 -88
-3 -6 -8 -15 -10 -18 -3 -4 -5 -7 -5 -8 0 0 -4 -8 -9 -16 -5 -8 -9 -16 -9 -16
0 -1 -4 -7 -8 -14 -13 -20 -20 -22 -64 -16 -28 3 -38 2 -54 -8 -9 -6 -22 -11
-27 -10 -5 0 -10 8 -8 15 2 10 2 20 0 30 -1 10 -9 18 -22 25 -3 2 -11 6 -17
10 -15 10 -30 10 -50 0 -8 -4 -18 -7 -22 -8 -17 -3 -45 -21 -52 -34 -2 -5 -13
-11 -23 -12 -11 -2 -28 -13 -33 -21 -11 -18 -23 -17 -22 3 1 21 -3 31 -16 44
-12 11 -21 15 -30 12 -3 -1 -5 -2 -6 -2 -11 -3 -15 -7 -30 -30 -11 -16 -21
-26 -36 -33 -18 -9 -19 -11 -19 -26 1 -21 1 -21 49 -35 18 -5 48 -14 66 -19
65 -20 64 -20 91 -13 19 5 27 5 36 0 4 -2 13 -11 13 -13 0 0 2 -4 5 -7 3 -3 6
-7 7 -8 3 -6 20 -16 40 -23 12 -5 24 -11 27 -13 5 -5 5 -6 2 -10 -7 -8 -28
-22 -50 -34 -8 -4 -17 -10 -22 -12 -8 -6 -80 -41 -82 -41 -4 0 -14 -10 -18
-18 -3 -7 -4 -13 -3 -28 0 -30 -11 -67 -20 -68 -5 0 -12 10 -16 22 -10 32 -26
48 -48 48 -7 0 -48 -14 -59 -21 -22 -13 -32 -34 -25 -54 3 -10 7 -14 20 -23
11 -7 15 -10 28 -25 7 -9 21 -15 33 -15 7 0 30 4 89 15 11 2 26 10 32 18 7 7
18 28 18 33 0 9 17 45 23 49 5 3 25 6 32 4 7 -2 11 -10 12 -26 3 -26 12 -39
30 -39 10 0 61 17 70 22 8 6 16 18 20 33 7 22 16 26 36 15 11 -6 25 -8 34 -5
6 2 9 11 9 29 0 21 4 26 17 26 7 0 10 -2 20 -10 18 -15 26 -17 47 -9 17 5 31
4 44 -4 4 -3 8 -5 9 -5 1 0 23 -13 37 -22 2 -1 6 -3 9 -5 3 -2 23 -15 44 -29
46 -30 55 -34 70 -28 7 3 19 14 19 17 0 2 1 3 2 3 0 1 4 7 8 15 4 8 9 15 12
16 16 8 29 7 35 0 3 -4 4 -11 5 -28 1 -16 3 -26 7 -36 3 -8 6 -17 7 -20 13
-41 35 -48 99 -33 44 10 87 35 97 55 7 13 17 25 27 31 30 19 43 48 40 86 -5
60 -61 119 -154 164 -26 13 -31 15 -39 14 -14 -1 -23 -7 -29 -20 -9 -17 -10
-18 -23 -18 -10 0 -13 1 -17 5 -5 5 -5 6 -4 20 2 28 -5 44 -23 50 -5 2 -11 4
-14 5 -3 1 -7 5 -9 8 l-3 6 14 24 c7 14 15 29 17 34 3 5 8 16 12 24 14 30 18
45 18 57 0 12 -4 22 -7 20 -1 -1 -2 0 -2 1 0 1 -1 2 -3 1 -1 0 -3 0 -4 2 0 1
-2 1 -7 0 -10 -4 -16 -4 -32 1 -13 4 -23 4 -33 1 -4 -1 -15 -21 -15 -28 0 -1
-1 -3 -1 -4 -2 -1 -2 -2 -3 -9 0 -11 -18 -20 -34 -16 -16 3 -31 25 -33 46 -2
16 1 20 19 26 7 2 14 5 15 6 1 1 3 2 5 2 2 0 4 2 5 4 2 5 1 29 -1 30 -1 1 -4
5 -8 10 -8 11 -8 19 -1 26 5 5 5 5 23 2 11 -1 26 -2 34 -2 23 -1 32 -6 36 -21
5 -15 21 -47 30 -56 6 -7 28 -7 34 0 4 4 22 55 22 63 0 2 4 6 7 9 l8 6 103 0
103 0 10 5 c21 9 33 21 43 44 5 11 5 17 1 30 -5 13 -16 26 -44 46 -10 7 -25
21 -33 30 -9 10 -18 18 -20 19 -17 8 -25 11 -38 13 -12 2 -16 4 -21 8 -9 9 -7
20 16 62 25 44 53 71 101 93 9 4 18 9 20 10 24 18 35 48 25 71 -6 13 -18 21
-39 25 -8 2 -24 5 -34 8 -21 5 -35 6 -52 3 -15 -3 -26 -3 -30 1 -2 2 -4 3 -5
3 0 0 -4 3 -8 7 -10 11 -30 23 -43 26 -31 8 -130 52 -175 78 -9 5 -17 9 -19 9
-1 0 1 2 4 6 l7 5 162 1 c177 1 167 0 186 13 19 11 34 35 34 54 0 20 -6 27
-45 57 -8 6 -14 10 -42 30 -14 10 -26 19 -27 19 -1 1 -7 6 -14 10 -7 4 -12 8
-13 9 -1 1 -8 6 -16 11 -15 11 -28 15 -50 18 -8 1 -12 3 -18 8 -10 10 -12 11
-28 11 l-14 0 -8 -11 c-5 -7 -9 -12 -10 -13 -1 -1 -6 -7 -11 -14 -5 -7 -12
-15 -14 -17 -2 -2 -6 -10 -10 -18 -6 -13 -18 -27 -23 -27 -1 0 -3 -1 -4 -3
-12 -11 -16 -12 -43 -12 -22 -1 -28 0 -34 2 -4 2 -6 4 -6 5 1 1 0 2 -2 2 -3 0
-2 1 2 3 9 5 51 39 101 82 16 14 24 23 26 30 4 16 4 25 -1 39 -3 7 -7 17 -8
22 -4 11 -15 26 -29 41 -17 17 -20 32 -9 49 4 6 7 13 8 18 4 19 5 25 4 29 -1
6 2 21 7 26 4 5 11 8 21 8 28 2 39 -26 22 -53 -13 -21 -15 -35 -7 -51 6 -14
11 -17 25 -17 12 0 18 3 27 11 17 17 34 19 55 8 27 -13 36 -13 57 0 10 5 24
19 24 24 0 1 1 3 2 3 4 2 14 28 13 34 -2 17 -3 20 -10 25 -8 9 -15 12 -41 20
-13 4 -44 14 -70 22 -27 8 -54 16 -62 17 -17 2 -38 9 -47 14 -13 8 -35 2 -48
-13 -8 -9 -14 -13 -20 -13 -7 0 -32 -14 -37 -20 -6 -8 -9 -16 -14 -47 -14 -80
-41 -203 -61 -282 -2 -6 -1 -17 1 -24 2 -7 16 -21 21 -21 3 -1 6 -1 8 -2 1 -1
4 -1 7 -2 1 0 4 -2 6 -4 l4 -4 -7 -14 c-4 -8 -9 -15 -10 -16 -13 -6 -50 3 -58
15 -3 5 -3 19 1 24 1 1 3 7 5 12 4 9 4 20 5 188 l1 178 5 7 c3 4 5 7 6 7 2 -1
23 13 31 22 9 9 23 36 27 49 2 8 -2 24 -7 32 -6 7 -21 14 -33 15 -5 1 -24 2
-43 4 -19 2 -41 3 -50 4 -9 1 -33 3 -53 5 -34 3 -37 3 -48 0z m19 -149 c5 -8
1 -16 -8 -16 -9 0 -13 8 -8 16 2 3 5 5 8 5 3 0 6 -2 8 -5z m-68 -62 c6 -4 6
-6 6 -20 0 -14 0 -16 -6 -20 -7 -7 -28 -7 -35 -1 -5 3 -10 17 -11 25 0 4 5 13
10 17 8 6 29 6 36 -1z m-815 -35 c4 -6 4 -12 0 -16 -5 -5 -12 -4 -16 2 -2 5
-2 6 1 11 3 5 11 7 15 3z m543 -94 c10 -9 3 -26 -10 -26 -8 0 -15 7 -15 15 0
13 16 20 25 11z m181 -39 c2 -8 4 -17 4 -22 0 -16 8 -27 25 -35 7 -3 14 -8 17
-11 l5 -5 -5 -5 c-3 -3 -10 -8 -17 -11 -7 -3 -14 -8 -17 -11 -4 -6 -9 -18 -8
-21 1 -2 0 -5 -2 -7 -2 -1 -5 -7 -6 -12 -2 -4 -4 -9 -5 -9 -1 -1 -1 -7 -2 -14
l0 -12 12 -6 c7 -3 19 -7 26 -9 18 -4 23 -9 23 -24 0 -10 -1 -12 -6 -17 -8 -8
-24 -9 -34 -1 -18 13 -25 17 -36 19 -10 2 -14 3 -26 4 -10 0 -22 22 -16 31 2
5 -6 27 -13 34 -3 3 -6 7 -7 8 0 1 -1 4 -1 6 -1 3 -3 5 -5 6 -2 0 -1 1 2 1 11
0 48 31 60 50 11 17 8 33 -8 42 -10 6 -10 6 -15 6 -2 0 -5 2 -8 5 -7 7 -7 19
0 26 5 5 6 5 18 4 13 -1 29 1 35 6 1 1 2 3 2 6 0 4 0 5 8 -22z m-768 10 c9 -6
14 -12 18 -21 10 -21 2 -39 -18 -39 -17 0 -28 14 -30 40 0 12 0 14 4 18 6 6
17 7 26 2z m59 -107 c3 -3 5 -6 5 -9 0 -10 7 -28 19 -47 13 -20 4 -41 -17 -41
-9 0 -11 1 -16 6 -6 6 -7 9 -6 30 0 9 -5 35 -8 41 -8 16 10 32 23 20z m1330
-19 c2 -5 -2 -10 -11 -13 -4 -1 -8 -3 -8 -4 0 -1 -1 -2 -2 -2 -1 0 -8 -5 -14
-11 -14 -13 -21 -17 -34 -17 -23 0 -33 7 -35 23 -1 15 5 20 26 22 3 0 12 -1
21 -2 17 -2 19 -2 42 5 8 3 14 2 15 -1z m-438 -35 c7 -6 6 -9 -1 -17 -8 -8
-25 -15 -37 -15 -10 0 -17 6 -17 16 0 11 8 17 24 19 4 1 7 2 8 2 2 2 20 -2 23
-5z m-375 -42 c2 -2 4 -6 4 -9 0 -7 -6 -17 -10 -17 -2 0 -2 -1 -1 -2 1 0 2 -7
2 -15 0 -19 3 -22 29 -23 26 -1 31 -5 30 -19 -1 -13 3 -22 15 -35 6 -5 11 -12
11 -15 1 -20 -5 -30 -21 -29 -6 0 -13 1 -16 3 -7 3 -23 4 -33 1 -7 -2 -12 -7
-27 -27 -5 -8 -11 -15 -13 -17 -1 -1 -5 -9 -9 -18 -10 -21 -11 -22 -15 -27 -1
-2 -9 -8 -17 -13 -9 -6 -28 -23 -51 -46 -36 -36 -62 -61 -79 -74 -5 -4 -14
-11 -21 -17 -7 -5 -14 -11 -15 -12 -1 -1 -5 -4 -9 -7 -4 -3 -10 -7 -13 -10 -4
-3 -14 -10 -23 -16 -28 -20 -34 -38 -21 -61 12 -19 21 -25 38 -25 13 -1 16 2
23 20 5 12 11 20 16 20 2 0 9 -3 15 -6 22 -12 30 -11 62 3 3 1 11 5 18 8 30
13 46 21 52 27 7 7 20 36 22 47 3 17 4 23 4 31 0 13 3 16 17 16 18 0 24 -7 27
-28 1 -9 3 -12 12 -14 9 -3 28 -1 30 2 1 1 3 3 6 4 2 1 5 3 7 4 2 1 13 8 25
15 37 23 37 23 57 44 10 11 11 12 35 21 9 4 17 8 19 10 3 3 3 3 7 -1 5 -5 7
-12 7 -30 0 -16 0 -18 -5 -24 -5 -5 -7 -6 -13 -5 -15 1 -34 -9 -36 -19 0 -2
-1 -13 -1 -24 0 -22 -2 -25 -20 -36 -7 -4 -10 -8 -15 -18 -5 -12 -6 -23 -2
-26 1 -1 2 -3 2 -5 0 -4 9 -17 17 -23 12 -8 16 -14 16 -25 0 -9 -1 -11 -7 -16
-7 -8 -22 -9 -31 -3 -18 12 -39 17 -46 11 -2 -2 -6 -8 -8 -14 -3 -6 -7 -13 -8
-16 -2 -4 -3 -6 -2 -6 1 0 0 -2 -2 -4 -5 -4 -5 -4 -27 0 -13 2 -28 4 -35 5
-12 1 -12 2 -25 15 -20 22 -27 24 -76 24 -36 -1 -39 -1 -46 -6 -16 -9 -20 -35
-13 -74 4 -21 4 -27 -2 -33 -7 -7 -16 -6 -34 2 -26 13 -27 13 -86 1 -29 -5
-61 -12 -72 -14 l-21 -3 -5 4 -5 5 0 94 c0 101 0 105 -10 113 -6 6 -27 12 -33
10 -11 -3 -20 2 -35 17 -8 8 -15 14 -16 13 -1 0 -3 0 -4 2 -1 2 -6 4 -10 4 -4
1 -9 3 -11 4 -4 3 -4 3 0 6 2 1 6 2 9 1 11 -3 39 -1 45 3 4 2 10 4 21 4 25 1
37 8 42 22 3 9 1 24 -4 27 0 1 -2 3 -3 5 -5 8 -20 14 -44 16 -7 1 -13 3 -16 6
-10 9 -11 33 0 42 5 5 19 8 25 5 6 -2 28 4 33 9 9 9 10 12 11 61 1 48 1 48 6
53 4 4 6 4 20 3 8 -1 19 -3 24 -4 7 -2 17 -2 30 -1 25 1 26 1 26 3 0 1 3 3 6
4 3 1 10 7 14 12 12 16 15 17 24 17 9 0 12 -1 24 -17 4 -5 11 -11 14 -12 3 -1
6 -3 6 -4 0 -2 2 -2 18 -3 17 -1 37 7 50 20 11 11 22 34 22 44 -1 7 0 9 5 13
5 4 8 5 29 6 30 2 47 7 58 18 11 11 14 18 13 32 -1 10 -1 12 3 16 5 5 15 5 20
0z m-413 -59 c2 -2 3 -4 2 -5 -1 -1 0 -2 2 -3 5 -1 4 -13 -1 -18 -14 -14 -33
4 -23 21 6 9 14 11 20 5z m-209 -11 c6 -5 12 -28 8 -33 -5 -8 -1 -21 7 -20 3
1 7 1 9 1 1 1 2 1 1 2 -2 1 15 16 17 15 1 -1 2 0 3 1 1 1 2 2 3 1 1 -1 2 0 2
1 0 4 14 10 23 10 10 0 17 -5 27 -21 3 -4 9 -12 14 -17 13 -14 15 -17 15 -30
0 -19 -8 -27 -27 -27 -13 0 -14 1 -29 14 -16 15 -38 26 -55 26 l-13 0 -2 -8
c-4 -13 -17 -25 -27 -25 -16 0 -23 15 -15 30 6 11 6 35 1 50 -9 27 -5 36 19
36 12 0 14 -1 19 -6z m1162 2 c6 0 28 -25 40 -45 6 -9 5 -23 -3 -47 -3 -9 -5
-21 -5 -29 0 -8 -3 -20 -5 -28 -11 -31 -7 -53 9 -59 5 -1 10 -3 12 -3 2 -1 4
-2 4 -1 4 0 6 -6 7 -23 1 -11 2 -20 5 -24 2 -5 18 -15 25 -17 1 0 3 -1 4 -1 1
-1 8 -2 15 -4 7 -1 14 -4 16 -6 4 -4 8 -19 8 -33 0 -16 7 -31 22 -46 20 -20
21 -30 7 -49 -5 -7 -15 -21 -23 -33 -12 -16 -17 -21 -25 -25 l-9 -5 -96 0 -95
0 -11 -5 c-7 -4 -12 -8 -18 -17 -10 -14 -15 -18 -22 -18 -12 0 -17 14 -12 32
1 5 14 15 22 17 24 4 42 14 59 30 28 28 35 61 16 77 -24 20 -24 20 -15 29 23
24 26 50 8 63 -7 5 -20 18 -20 21 0 3 6 22 8 24 1 1 4 5 7 8 7 8 12 17 17 33
5 17 7 109 2 112 -2 1 -2 2 -1 2 1 0 1 1 0 2 -5 3 -14 29 -13 37 1 10 19 25
30 25 2 0 4 1 5 2 2 2 14 5 18 5 2 0 6 -1 7 -1z m-123 -49 c3 -5 3 -5 -1 -10
-6 -6 -8 -6 -13 -1 -4 5 -4 5 1 11 4 6 8 6 13 0z m-33 -49 c6 -3 7 -5 11 -17
7 -23 -4 -39 -27 -40 -9 0 -18 -2 -24 -4 -2 -1 -3 -2 -4 -2 -5 -1 -17 -10 -18
-14 -2 -4 -3 -14 -3 -24 -1 -22 -3 -25 -13 -20 -4 1 -9 5 -11 7 -6 5 -30 14
-38 14 -13 0 -20 18 -12 29 6 9 37 28 50 30 20 3 31 11 46 28 4 5 10 10 14 12
8 3 24 4 29 1z m286 -81 c6 -6 6 -22 0 -28 -8 -9 -48 -14 -59 -8 -10 5 -10 6
0 19 16 20 48 29 59 17z m-651 -10 c3 -5 3 -5 0 -10 -2 -3 -5 -5 -7 -5 -2 0
-5 2 -7 5 -3 5 -3 5 0 10 2 3 5 5 7 5 2 0 5 -2 7 -5z m302 -274 c4 -4 5 -7 5
-15 0 -14 -6 -20 -20 -20 -14 0 -20 6 -20 20 0 14 6 20 20 20 8 0 11 -1 15 -5z
m-81 -59 c5 -5 5 -15 0 -20 -9 -9 -24 -2 -24 10 0 8 6 14 14 14 3 0 8 -2 10
-4z m-872 -10 c5 -5 5 -11 0 -16 -10 -10 -27 5 -16 16 4 4 12 4 16 0z m1426
-10 c5 -5 5 -11 0 -16 -11 -11 -27 5 -16 16 4 4 12 4 16 0z m-705 -13 c3 -5 3
-5 0 -10 -5 -6 -8 -6 -13 0 -5 5 -5 5 0 11 4 5 8 5 13 -1z m-537 -94 c3 -3 4
-7 4 -14 0 -13 -6 -19 -19 -19 -13 0 -19 6 -19 19 0 7 1 11 4 14 7 8 23 8 30
0z m-284 -113 c5 -5 5 -11 0 -16 -10 -10 -27 5 -16 16 4 4 12 4 16 0z m1150
-80 c5 -5 6 -7 6 -17 0 -16 -7 -23 -23 -23 -10 0 -12 1 -17 6 -5 5 -6 7 -6 17
0 16 7 23 23 23 10 0 12 -1 17 -6z m84 -13 l-5 -5 -4 4 -5 5 4 4 5 5 4 -4 5
-5 -4 -4z m-328 -6 c21 -9 20 -45 -2 -54 -10 -5 -28 -1 -34 6 -9 10 -9 32 0
42 7 8 24 11 36 6z m-916 -64 l-5 -5 -4 4 -5 5 4 4 5 5 4 -4 5 -5 -4 -4z
m1184 -15 c23 -13 34 -49 20 -62 -3 -3 -7 -6 -9 -6 -26 -2 -32 3 -35 29 -5 35
5 51 24 39z m137 -16 c10 -9 3 -26 -10 -26 -8 0 -15 7 -15 15 0 13 16 20 25
11z m-348 -4 c4 -3 5 -7 5 -13 0 -16 -14 -22 -34 -13 -15 7 -14 13 3 25 8 6
20 6 26 1z m562 -19 c3 -5 4 -19 1 -25 -2 -4 -24 -16 -32 -17 -3 -1 -21 -20
-25 -27 -3 -7 -9 -31 -9 -40 0 -4 1 -10 2 -13 1 -3 3 -8 3 -9 1 -6 13 -16 26
-22 17 -8 21 -13 21 -27 0 -16 -7 -23 -22 -23 -18 0 -30 11 -30 26 0 2 -2 6
-5 8 -3 2 -5 4 -4 4 1 0 0 2 -1 4 -1 2 -3 4 -4 4 -1 0 -4 2 -7 5 -2 3 -6 5 -7
5 -1 0 -2 1 -1 2 0 0 -2 3 -6 5 -17 9 -17 45 -1 62 2 3 4 6 4 7 0 1 2 3 4 5 2
2 4 6 6 11 3 10 8 15 21 22 11 6 18 12 24 24 6 11 11 16 20 16 10 1 18 -1 22
-7z m-147 -23 c1 0 5 -3 8 -6 5 -5 6 -7 6 -19 0 -19 -4 -23 -21 -23 -21 -1
-27 6 -27 26 1 13 3 17 12 21 5 2 8 2 22 1z m-131 -31 c3 -3 3 -3 0 -6 -4 -5
-11 1 -7 6 4 4 4 4 7 0z m-381 -80 c-4 -6 -7 -6 -11 -1 -3 4 -3 5 1 9 l5 5 4
-4 c5 -4 5 -5 1 -9z"/>
<path d="M638 2003 c-14 -4 -29 -8 -34 -9 -30 -7 -42 -30 -32 -59 11 -32 28
-43 62 -39 16 2 43 5 54 7 3 0 14 2 24 3 12 2 23 4 29 7 l11 6 -1 16 0 16 -17
7 c-21 8 -21 8 -29 25 -12 27 -26 31 -67 20z"/>
</g>
</svg>
