<?xml version="1.0" standalone="no"?>
<!DOCTYPE svg PUBLIC "-//W3C//DTD SVG 20010904//EN"
 "http://www.w3.org/TR/2001/REC-SVG-20010904/DTD/svg10.dtd">
<svg version="1.0" xmlns="http://www.w3.org/2000/svg"
 width="1100.000000pt" height="2870.000000pt" viewBox="0 0 1100.000000 2870.000000"
 preserveAspectRatio="xMidYMid meet">
<metadata>
Created by potrace 1.15, written by Peter Selinger 2001-2017
</metadata>
<g transform="translate(0.000000,2870.000000) scale(0.500000,-0.500000)"
fill="#000000" stroke="none">
<path d="M1409 3484 c-8 -1 -17 -2 -22 -4 -8 -2 -31 -15 -33 -18 -3 -4 -50
-35 -61 -40 -29 -13 -64 -19 -234 -37 -16 -2 -34 -5 -40 -6 -10 -4 -28 -18
-30 -25 -1 -2 -4 -5 -8 -7 -7 -4 -7 -4 -15 0 -4 2 -9 5 -10 7 -22 19 -42 20
-80 4 -26 -11 -31 -12 -54 -6 -20 5 -30 5 -84 0 -24 -2 -48 -4 -55 -5 -29 -2
-67 -5 -80 -6 -19 -1 -33 -3 -33 -5 0 0 0 -9 -1 -18 l0 -18 7 -3 c12 -5 16
-11 16 -22 0 -13 -6 -19 -19 -19 -10 0 -12 1 -31 21 -10 10 -16 20 -23 33 -5
10 -11 20 -13 22 -4 5 -22 14 -26 14 -5 0 -37 14 -50 23 -7 5 -25 17 -39 28
-27 20 -32 22 -48 20 -19 -3 -30 -28 -22 -51 3 -11 4 -26 3 -57 0 -12 3 -23 8
-29 11 -11 16 -26 13 -38 -3 -13 -3 -37 0 -44 6 -14 23 -21 46 -19 11 1 13 1
17 -3 4 -4 5 -16 2 -19 -1 -2 -3 -4 -5 -7 -1 -2 -4 -6 -6 -9 -5 -7 -7 -31 -3
-34 2 -1 8 -8 14 -16 13 -15 45 -47 56 -55 4 -3 9 -7 12 -9 11 -9 37 -23 53
-27 20 -6 65 0 82 10 10 6 15 20 16 40 1 21 5 26 20 26 9 0 10 0 22 -12 16
-17 17 -18 29 -20 8 -2 12 -1 21 2 15 5 62 18 75 21 5 1 57 11 60 12 2 0 17 3
34 6 51 9 58 13 74 46 5 11 12 16 24 16 11 0 15 -2 31 -18 15 -16 27 -19 47
-16 5 1 12 2 15 2 22 3 55 7 60 8 3 0 11 1 16 2 6 1 13 2 17 2 4 1 11 1 15 2
10 1 19 2 47 5 36 3 40 4 61 5 19 1 19 1 26 -5 4 -3 6 -6 6 -6 -2 -2 -4 -29
-4 -42 0 -16 1 -18 9 -35 12 -26 11 -39 -6 -57 -6 -7 -13 -15 -14 -18 -1 -3
-3 -6 -4 -8 -2 -4 -6 -21 -7 -30 0 -4 -2 -13 -3 -20 -1 -7 -2 -17 -3 -21 -1
-4 -2 -15 -4 -23 -3 -18 -5 -25 -7 -41 -2 -14 -15 -90 -18 -103 -1 -5 -2 -12
-3 -15 0 -3 -1 -10 -2 -14 -2 -10 3 -26 10 -31 5 -5 22 -14 26 -14 5 0 11 -9
11 -17 0 -12 -6 -17 -18 -17 -17 1 -37 -6 -52 -16 -6 -4 -12 -5 -29 -7 -57 -6
-166 -19 -172 -22 -4 -1 -7 -4 -7 -6 0 -1 -1 -3 -2 -3 -1 -1 -3 -7 -3 -13 -1
-11 -1 -13 4 -18 7 -9 7 -20 0 -27 -6 -6 -19 -6 -25 1 -5 5 -6 18 -1 23 4 5 1
26 -6 31 -9 8 -19 8 -85 0 -3 0 -11 -1 -19 -2 -8 -1 -16 -2 -19 -2 -6 -1 -7
-1 -92 -10 -6 -1 -14 -2 -18 -2 -4 -1 -13 -1 -20 -2 -39 -4 -65 -8 -79 -12
-18 -6 -20 -6 -56 -4 -17 1 -37 0 -57 -2 -31 -2 -88 -3 -103 0 -52 9 -88 25
-129 58 -6 6 -12 10 -12 11 0 1 -6 1 -14 0 -14 0 -15 -1 -23 -9 l-9 -9 3 -13
c4 -15 7 -21 21 -31 10 -8 11 -10 10 -24 0 -5 -4 -9 -23 -24 -10 -9 -16 -24
-14 -35 2 -14 3 -19 8 -34 8 -25 28 -65 43 -84 10 -14 18 -18 42 -18 29 -1 72
-10 76 -15 8 -9 3 -35 -7 -39 -2 0 -3 -2 -2 -3 1 -1 0 -2 -1 -3 -3 -2 -3 -24
0 -29 4 -9 46 -30 74 -37 36 -10 81 -3 153 21 17 6 33 11 36 12 3 1 19 6 34
11 31 10 75 21 98 26 8 2 20 4 28 6 8 2 16 4 19 4 3 1 7 2 10 2 3 1 7 2 10 2
10 2 27 5 34 6 4 1 10 2 13 4 7 3 13 9 10 9 -1 0 -1 1 1 2 4 2 7 27 4 32 -2 5
3 14 8 14 5 0 10 -8 9 -15 -1 -5 -1 -7 1 -7 1 0 2 -1 2 -1 -1 -3 4 -15 6 -15
1 0 2 -1 2 -3 0 -2 1 -3 1 -2 1 0 4 -1 8 -2 6 -4 27 -3 57 1 7 1 22 2 32 3 10
1 20 2 22 2 19 5 226 5 234 0 1 0 10 -1 21 -2 22 -1 23 -2 58 -6 36 -5 43 -3
64 18 20 20 28 18 42 -9 6 -11 10 -16 22 -22 11 -7 63 -7 82 -1 56 17 87 61
84 121 -4 79 -57 159 -130 194 -6 3 -10 7 -13 12 -4 8 -4 10 3 30 4 14 12 42
32 112 4 14 15 53 25 88 18 61 32 111 33 115 0 1 1 6 3 11 1 5 3 10 3 12 2 10
16 49 21 58 5 9 30 44 34 48 3 3 20 26 20 27 0 1 1 3 3 5 5 5 21 39 24 51 9
29 3 64 -15 96 -13 23 -21 28 -50 30 -22 2 -24 4 -24 28 0 16 0 21 -4 29 -10
22 -32 29 -57 19 -18 -8 -34 -7 -44 2 -10 7 -11 9 -9 17 7 25 -2 48 -23 59
-54 28 -95 41 -122 39z m-19 -79 c4 -4 5 -9 4 -19 0 -7 -10 -18 -23 -25 -6 -3
-14 -9 -18 -13 -9 -8 -23 -16 -29 -16 -2 0 -5 2 -7 5 -3 5 -3 6 1 17 2 6 5 12
6 12 1 1 4 5 22 28 12 16 34 22 44 11z m122 -22 c2 -2 4 -4 4 -5 0 -1 1 -2 2
-1 1 1 2 -1 3 -3 1 -2 2 -4 3 -4 1 0 1 -2 1 -3 0 -2 0 -5 1 -7 1 -2 4 -8 6
-14 2 -6 7 -15 11 -20 11 -15 11 -16 10 -30 0 -17 -6 -22 -24 -22 -14 0 -22 4
-24 13 -3 13 -15 35 -25 46 -12 13 -15 22 -12 35 2 10 7 16 16 18 9 2 22 1 28
-3z m-750 -89 c8 -8 1 -41 -11 -49 -8 -5 -23 -4 -28 1 -9 9 -5 32 7 43 10 9
26 11 32 5z m655 0 c9 -11 9 -23 0 -49 l-6 -20 0 -37 c1 -22 2 -42 4 -50 6
-23 2 -32 -14 -32 -13 0 -17 5 -17 26 0 15 -1 22 -5 36 -10 38 -15 70 -11 81
5 17 19 42 25 45 8 5 19 5 24 0z m-157 -66 c5 -5 5 -11 0 -16 -10 -10 -27 5
-16 16 4 4 12 4 16 0z m-321 -2 c11 -11 4 -26 -12 -29 -12 -1 -18 5 -16 16 3
16 18 22 28 13z m765 0 c5 -6 5 -12 0 -18 -7 -8 -22 -2 -22 9 0 11 15 17 22 9z
m-1227 -31 c3 -5 3 -5 0 -10 -2 -3 -5 -5 -7 -5 -2 0 -5 2 -7 5 -3 5 -3 5 0 10
2 3 5 5 7 5 2 0 5 -2 7 -5z m610 -2 c3 -5 3 -5 0 -10 -2 -3 -5 -5 -7 -5 -2 0
-5 2 -7 5 -3 5 -3 5 0 10 2 3 5 5 7 5 2 0 5 -2 7 -5z m-204 -15 c3 -5 -1 -15
-7 -19 -15 -8 -28 5 -18 18 6 7 21 8 25 1z m571 -284 c2 -1 6 -6 10 -11 8 -13
17 -21 31 -28 6 -3 12 -5 12 -5 5 0 11 -9 11 -16 0 -16 -16 -21 -31 -10 -13
10 -21 13 -32 12 -12 -1 -13 -2 -14 -7 0 -2 -1 -5 -2 -6 -1 -3 -3 -8 -4 -18
-2 -8 -8 -17 -12 -16 -3 0 -11 8 -11 11 0 0 1 6 3 12 4 13 4 35 0 41 -6 10 -5
30 3 38 7 6 26 8 36 3z m-97 -60 c11 -10 3 -28 -11 -28 -9 0 -16 6 -16 16 0
14 17 22 27 12z m156 -70 c4 -6 4 -22 0 -30 -2 -3 -8 -9 -14 -13 -6 -4 -12 -9
-14 -10 -15 -14 -44 -13 -51 1 -4 7 -3 27 1 33 4 6 13 15 15 15 0 0 11 3 23 6
24 6 33 6 40 -2z m-47 -163 c16 -6 26 -17 26 -29 0 -14 -14 -20 -31 -13 -7 3
-15 3 -29 0 -3 -1 -10 -6 -17 -13 -7 -7 -14 -13 -18 -14 -23 -7 -34 -16 -46
-36 -6 -11 -13 -15 -26 -15 -27 0 -35 22 -20 53 3 8 8 18 9 22 2 3 5 9 7 12 5
6 6 6 23 6 35 0 67 8 87 22 13 9 21 10 35 5z m-250 -55 c5 -5 6 -7 6 -17 0
-16 -7 -23 -23 -23 -10 0 -12 1 -17 6 -5 5 -6 7 -6 17 0 16 7 23 23 23 10 0
12 -1 17 -6z m301 -66 c10 -9 3 -26 -10 -26 -8 0 -15 7 -15 15 0 13 16 20 25
11z m-962 -5 c5 -5 7 -20 3 -27 -3 -6 -13 -10 -23 -8 -11 2 -15 8 -15 20 0 14
6 20 20 20 8 0 11 -1 15 -5z m886 -51 c11 -10 3 -28 -11 -28 -9 0 -16 6 -16
16 0 14 17 22 27 12z m-415 -4 c5 -5 5 -11 0 -16 -10 -10 -27 5 -16 16 4 4 12
4 16 0z m-440 -35 c-1 -1 -2 -5 -3 -8 -1 -8 -3 -7 -9 4 -3 6 -3 7 1 11 l4 4 4
-4 c3 -3 4 -5 3 -7z m-101 -34 c3 -3 3 -3 0 -6 -4 -5 -11 1 -7 6 4 4 4 4 7 0z
m115 -3 c5 -5 13 -9 27 -14 27 -10 33 -14 33 -24 0 -11 -6 -15 -22 -13 -33 2
-51 6 -55 10 -6 6 -7 23 -2 28 2 1 3 5 3 8 0 3 1 5 2 5 1 0 2 1 2 2 -1 5 5 4
12 -2z"/>
</g>
</svg>
