<?xml version="1.0" standalone="no"?>
<!DOCTYPE svg PUBLIC "-//W3C//DTD SVG 20010904//EN"
 "http://www.w3.org/TR/2001/REC-SVG-20010904/DTD/svg10.dtd">
<svg version="1.0" xmlns="http://www.w3.org/2000/svg"
 width="1100.000000pt" height="2850.000000pt" viewBox="0 0 1100.000000 2850.000000"
 preserveAspectRatio="xMidYMid meet">
<metadata>
Created by potrace 1.15, written by Peter Selinger 2001-2017
</metadata>
<g transform="translate(0.000000,2850.000000) scale(0.500000,-0.500000)"
fill="#000000" stroke="none">
<path d="M834 3825 c-11 -4 -17 -9 -22 -20 -8 -14 -3 -28 15 -46 13 -14 14
-20 4 -26 -3 -3 -8 -5 -11 -6 -4 -1 -6 -2 -6 -3 0 -1 -2 -2 -5 -2 -2 0 -10 -2
-16 -4 -10 -4 -18 -5 -47 -6 -32 -1 -36 -1 -45 -6 -5 -3 -15 -7 -20 -9 -10 -3
-11 -3 -21 1 -6 2 -15 6 -20 8 l-9 5 -175 0 c-172 0 -186 0 -186 -3 0 -1 -1
-2 -3 -2 -4 0 -14 -12 -18 -21 -5 -12 -4 -83 1 -93 5 -11 19 -18 34 -16 8 0
19 0 23 0 2 0 9 -5 15 -12 6 -7 13 -13 14 -13 2 0 5 -1 7 -2 1 -1 7 -1 12 0 7
1 9 2 15 12 14 24 30 33 40 23 5 -5 5 -25 1 -50 -3 -17 -8 -26 -15 -26 -2 0
-4 -1 -5 -2 -2 -3 -17 -1 -23 2 -2 1 -6 5 -8 8 -7 10 -16 18 -22 18 -12 1 -21
-1 -25 -3 -5 -3 -12 -4 -28 -3 -8 1 -22 -2 -27 -6 -12 -9 -12 -6 -12 -128 0
-105 0 -111 4 -118 4 -8 10 -11 24 -13 5 -1 10 -2 10 -2 1 -1 2 0 2 1 0 3 10
5 25 4 2 0 6 -3 9 -6 5 -5 6 -7 6 -18 0 -11 -1 -13 -6 -18 -3 -3 -7 -6 -9 -6
-15 -1 -25 1 -25 4 0 1 -1 2 -2 1 0 0 -5 -1 -10 -2 -14 -2 -20 -5 -24 -13 -4
-7 -4 -13 -4 -115 0 -93 0 -108 3 -114 4 -9 14 -21 18 -21 2 0 3 -1 3 -2 0 0
2 -2 6 -2 3 -1 130 -1 283 -1 l278 0 6 -6 7 -7 -7 -6 -6 -7 -86 0 c-86 1 -86
1 -94 -4 -10 -5 -17 -19 -18 -35 -2 -14 -6 -19 -18 -21 -12 -2 -16 3 -16 20 0
16 -7 30 -18 36 l-8 5 -217 -1 c-119 0 -218 -1 -219 -1 -2 0 -3 -1 -3 -2 0 -1
-1 -2 -3 -2 -4 0 -14 -12 -18 -21 -3 -7 -3 -15 -3 -45 l1 -37 7 -15 c10 -20
11 -27 7 -39 -3 -9 -3 -18 0 -32 0 -2 8 -9 13 -11 2 0 117 -1 256 -1 251 -1
252 -1 270 3 21 5 32 6 47 1 10 -3 19 -4 66 -4 l54 0 6 -6 6 -6 -1 -31 c0 -31
0 -32 5 -43 4 -8 6 -11 10 -11 4 0 4 -1 0 -1 -2 -1 -5 -2 -6 -3 -8 -6 -20 -8
-60 -8 -24 0 -41 -1 -41 -2 0 -1 -1 -2 -3 -2 -6 0 -10 -8 -11 -22 -1 -11 -1
-14 2 -16 2 -1 3 -5 3 -16 0 -14 -1 -16 -7 -25 -6 -8 -7 -11 -8 -24 0 -12 0
-16 3 -20 2 -4 4 -10 4 -17 0 -10 -1 -13 -10 -27 -11 -15 -18 -34 -17 -40 1
-3 -1 -6 -5 -10 -6 -6 -7 -6 -25 -6 -18 0 -19 0 -25 6 l-6 6 1 18 c3 26 16 71
24 80 13 15 19 32 22 57 1 11 3 18 4 19 2 1 3 5 2 15 -1 14 -5 22 -11 22 -2 0
-3 1 -3 2 0 1 -6 1 -13 1 -13 0 -14 0 -20 6 -6 6 -6 6 -5 25 1 31 -9 47 -30
48 l-11 1 -12 -12 c-20 -20 -20 -20 -39 -1 -18 18 -21 18 -76 17 -50 -1 -52
-1 -52 -3 0 -1 -1 -2 -3 -2 -4 0 -14 -12 -18 -21 -2 -6 -3 -13 -3 -27 1 -19 1
-19 -5 -25 l-6 -6 -79 0 c-52 1 -78 0 -78 -1 0 -1 -1 -2 -2 -1 0 0 -3 -1 -5
-2 -3 -2 -4 -5 -3 -18 0 -11 0 -15 -2 -15 -2 0 0 -1 3 -3 17 -8 23 -20 19 -37
-3 -16 -16 -22 -37 -18 -6 2 -20 2 -32 2 -19 -1 -20 -1 -24 3 -5 7 0 14 19 23
13 7 21 13 37 25 1 2 5 3 7 3 2 0 2 1 1 2 -2 0 -3 7 -3 15 l-1 14 -11 4 c-15
5 -68 6 -68 1 0 -1 -1 -2 -3 -2 -4 0 -14 -12 -18 -21 -3 -7 -3 -13 -2 -26 1
-24 1 -45 0 -61 -2 -20 8 -39 25 -48 19 -11 19 -37 0 -48 -10 -5 -17 -14 -22
-26 -6 -12 -6 -131 -1 -143 4 -9 14 -21 18 -21 2 0 3 -1 3 -2 0 -3 12 -3 91
-3 90 0 86 -1 104 16 15 14 7 37 -16 46 -17 6 -18 9 -18 35 -1 23 -4 35 -11
37 -33 11 -38 16 -38 33 0 11 1 13 6 18 3 3 7 6 9 6 18 1 22 0 33 -10 5 -5 6
-5 19 -4 8 1 15 2 17 3 5 3 8 13 8 24 -1 9 0 11 5 16 6 6 7 6 28 6 22 0 22 0
28 -6 9 -9 9 -27 1 -36 -4 -3 -6 -7 -6 -9 0 -1 -1 -2 -2 -1 -3 2 -15 -12 -21
-23 -3 -7 -5 -15 -6 -24 -1 -8 -2 -17 -2 -19 -1 -2 -1 -9 -2 -15 -1 -6 -3 -14
-4 -17 -13 -23 10 -56 40 -56 12 -1 18 1 31 10 7 5 10 6 20 6 19 0 27 -8 27
-27 0 -19 -6 -25 -27 -27 -17 -1 -33 -9 -38 -17 -2 -4 -3 -7 -3 -8 1 -1 -1 -2
-3 -3 -2 -1 -5 -3 -7 -6 l-4 -4 -147 0 c-157 -1 -158 -1 -170 -11 -7 -5 -7 -7
-8 -18 0 -11 0 -12 10 -23 6 -6 14 -13 19 -15 9 -5 35 -12 43 -12 3 0 8 -2 11
-5 6 -4 6 -6 6 -20 0 -14 0 -16 -6 -20 -8 -7 -27 -7 -38 0 -11 8 -34 8 -39 1
-13 -19 -6 -42 19 -59 9 -6 11 -8 21 -24 7 -11 16 -18 27 -21 7 -2 94 -1 117
1 4 1 16 1 28 1 23 0 39 4 50 12 19 14 27 14 51 3 21 -10 26 -11 47 -10 11 0
32 1 48 2 29 1 44 4 52 11 24 19 39 21 63 8 20 -11 32 -14 47 -13 14 1 46 2
93 4 l37 2 6 -6 c4 -3 8 -9 10 -13 13 -29 39 -34 79 -16 4 2 13 6 18 8 6 2 14
6 19 8 5 2 22 9 37 15 15 6 30 13 33 14 4 2 7 2 17 -1 12 -3 16 -5 25 -14 4
-4 12 -7 28 -13 15 -5 17 -5 48 -4 64 2 59 2 64 8 9 11 22 20 32 22 2 0 5 1 5
2 1 0 7 1 14 1 10 0 15 -1 21 -5 7 -4 10 -5 22 -5 14 0 15 0 21 7 4 4 8 11 10
16 4 11 16 28 21 31 8 4 23 3 29 -3 4 -4 5 -7 5 -15 0 -13 5 -30 12 -37 9 -10
12 -10 100 -6 24 1 33 5 49 18 16 13 19 14 27 10 5 -3 12 -4 22 -4 15 0 16 0
19 5 4 5 4 6 6 19 2 12 8 17 20 17 11 0 18 -5 20 -15 0 -4 3 -11 5 -16 2 -5 4
-10 4 -10 0 -3 12 -10 19 -13 4 -2 16 -2 37 -1 52 3 52 2 67 -25 11 -21 18
-27 34 -29 10 -1 11 -1 38 14 40 21 42 23 43 40 0 12 -1 15 -4 19 -10 13 -10
17 -10 48 1 38 5 44 27 45 31 0 38 -33 13 -60 -4 -4 -4 -7 -4 -16 1 -6 0 -10
0 -10 -1 1 -2 1 -2 0 0 -4 14 -11 23 -12 8 -1 12 0 24 6 41 21 47 41 23 76 -3
5 -6 10 -6 11 0 1 -1 3 -3 4 -2 1 -8 10 -13 19 -12 19 -19 25 -43 34 -7 3 -15
8 -16 10 -1 2 -3 13 -4 23 -2 38 -11 50 -46 64 -21 8 -25 13 -25 28 0 11 1 13
6 18 3 3 7 6 8 6 25 1 43 13 48 30 1 4 2 48 2 119 0 97 0 115 -3 127 -8 34
-19 43 -52 42 -16 0 -17 0 -25 6 -5 4 -10 8 -12 10 -2 1 -5 2 -8 3 -2 0 -5 1
-6 2 -1 1 -11 2 -23 2 -13 0 -24 2 -30 4 -18 6 -37 6 -64 -1 l-25 -6 -24 6
c-14 3 -26 6 -28 6 -1 -1 -5 2 -9 5 l-6 6 1 21 c0 15 -1 22 -3 29 -4 9 -14 21
-18 21 -2 0 -3 1 -3 2 0 2 -10 3 -56 3 -59 0 -61 -1 -97 -43 -10 -11 -19 -20
-22 -21 -2 -1 -7 -1 -10 -2 -9 -1 -25 -7 -25 -9 0 -1 -3 -2 -6 -3 -4 -1 -8 -2
-10 -3 -2 -1 -5 -2 -7 -3 -3 -1 -3 -3 -3 -19 1 -11 2 -20 3 -20 1 -1 -1 -2 -5
-2 -4 0 -6 1 -5 2 4 2 6 30 3 30 -4 1 -5 1 -9 3 -8 4 -29 3 -37 -3 -7 -4 -7
-5 -8 -18 0 -7 -1 -13 -2 -14 -4 -1 12 -6 23 -7 5 0 13 0 18 2 11 4 24 4 55
-1 29 -5 35 -8 32 -16 -3 -7 -8 -13 -14 -15 -3 -2 -10 -5 -16 -8 -13 -5 -18
-11 -23 -28 -2 -7 -6 -13 -9 -15 -3 -2 -6 -5 -7 -6 -4 -3 -15 -2 -19 2 -2 2
-4 8 -5 17 -3 33 -12 39 -53 37 -18 -1 -40 14 -43 28 -4 19 -9 31 -17 40 -5 6
-23 17 -29 19 -3 0 -3 1 -1 1 4 0 10 15 12 30 1 7 4 17 10 28 4 9 8 19 8 22 1
2 4 7 7 11 l6 6 61 0 c73 -1 69 -2 68 21 0 14 0 16 3 17 4 0 3 1 0 1 -2 0 -5
3 -7 7 -4 6 -4 7 1 11 l4 4 10 -5 c5 -2 10 -6 12 -8 4 -5 25 -9 56 -9 31 -1
35 -2 46 -16 3 -4 9 -10 13 -13 14 -10 20 -11 70 -11 48 0 55 1 62 9 3 4 6 31
3 31 -3 0 -9 18 -9 27 0 13 6 19 20 19 18 0 29 -16 28 -40 -1 -17 5 -33 13
-39 l8 -6 99 -1 c95 0 99 0 114 4 27 8 41 18 49 35 5 10 5 13 5 36 0 29 -2 38
-9 46 -6 8 -24 14 -40 15 -13 0 -17 7 -19 26 -2 23 -8 35 -20 42 -9 4 -11 4
-63 4 -68 0 -69 -1 -70 -28 0 -5 -1 -10 -2 -10 -1 -1 0 -2 1 -2 12 0 16 -40 5
-49 -12 -11 -40 -5 -47 10 -7 13 -5 39 4 39 2 0 2 1 1 2 -1 0 -2 6 -2 12 0 23
-5 26 -51 26 -33 0 -36 0 -44 -5 -10 -5 -19 -17 -22 -32 -4 -14 -9 -19 -19
-19 -10 0 -15 5 -19 19 -3 15 -12 27 -22 32 l-9 5 -141 0 -141 -1 -6 7 -7 6 7
7 6 6 78 -1 c48 0 80 1 85 2 22 6 30 22 23 48 -5 24 0 36 17 40 10 2 23 0 28
-6 9 -8 9 -27 2 -39 -4 -7 -5 -23 -2 -32 5 -15 29 -16 43 -2 6 6 15 25 15 33
0 11 23 17 33 8 3 -3 5 -6 5 -8 0 -8 9 -27 15 -33 12 -11 14 -11 141 -10 121
0 122 1 122 3 0 1 1 2 3 2 4 0 14 12 18 21 3 7 3 22 3 123 0 126 0 120 -13
149 -13 28 -16 34 -20 36 -3 1 -5 3 -5 4 0 1 -1 1 -2 0 -2 -4 -32 3 -43 11 -6
3 -12 7 -15 7 -3 1 -6 1 -7 2 -10 2 -22 3 -31 1 -22 -4 -37 -4 -49 1 -33 14
-9 13 -231 13 -222 0 -206 1 -232 -14 -9 -5 -18 -10 -20 -10 -52 -12 -60 -12
-66 -7 -2 2 -4 3 -5 3 0 0 -3 2 -5 3 -5 4 -29 4 -35 0 -2 -1 -5 -7 -8 -12 -8
-17 -16 -23 -32 -24 -13 -1 -25 7 -28 16 -5 20 -15 34 -29 41 l-12 5 -57 -1
c-32 -1 -59 -2 -61 -2 -6 -2 -24 -12 -25 -14 -4 -6 -18 -13 -27 -13 -9 0 -23
7 -27 13 -1 2 -22 13 -22 12 0 0 -2 1 -6 2 -10 4 -27 3 -38 -3 -8 -4 -11 -9
-12 -21 -1 -6 -2 -11 -3 -12 -1 0 0 -1 2 -3 3 -1 8 -9 13 -18 5 -9 10 -18 11
-20 11 -13 13 -32 5 -40 -8 -8 -30 -5 -39 5 -3 3 -16 8 -23 8 -7 0 -9 -1 -22
-17 -10 -12 -25 -7 -26 9 0 12 6 17 19 17 6 0 13 -1 15 -3 4 -1 5 -1 8 2 1 2
2 4 2 4 -1 0 1 2 3 4 2 3 4 6 4 7 0 2 1 3 2 3 2 0 2 5 -1 15 -3 13 -20 23 -38
23 -10 0 -15 4 -26 21 -7 11 -22 20 -26 17 -2 -2 -3 -1 -4 0 -1 1 -4 2 -7 2
-7 0 -14 8 -14 15 0 12 16 20 24 12 7 -6 33 -7 43 -1 5 2 9 5 10 6 2 4 12 2
27 -4 32 -13 30 -13 84 -11 27 0 55 1 62 1 7 0 55 -1 107 -1 52 -1 99 -1 104
0 13 1 24 8 39 24 11 11 12 11 23 11 9 0 15 -1 21 -5 34 -19 41 -21 55 -20 22
1 26 3 42 18 21 18 34 17 47 -4 6 -11 15 -18 25 -22 7 -3 33 -3 228 -2 121 1
234 1 251 2 34 0 39 1 50 14 10 11 12 24 12 67 0 43 -1 48 -14 73 -8 17 -8 29
0 46 14 26 14 29 14 84 0 42 -1 52 -3 58 -4 9 -14 21 -18 21 -2 0 -3 1 -3 2 0
1 -1 2 -2 2 -2 0 -131 1 -288 2 l-285 1 -8 5 c-4 3 -6 5 -5 6 1 1 4 4 6 8 21
40 20 39 19 49 -1 19 -14 28 -44 30 -11 1 -24 2 -29 2 -5 0 -20 1 -33 2 -13 1
-24 2 -25 2 -1 1 -23 -5 -25 -7 -4 -3 -24 -10 -30 -10 -4 0 -11 3 -18 7 -24
15 -26 15 -55 16 -15 0 -31 2 -35 3 -10 3 -12 2 -23 -1z m85 -94 c5 -8 1 -16
-8 -16 -9 0 -13 8 -8 16 2 3 5 5 8 5 3 0 6 -2 8 -5z m-468 -67 c8 -8 8 -24 0
-32 -6 -7 -20 -10 -27 -6 -11 6 -13 10 -12 26 0 18 25 26 39 12z m460 -19 c12
-7 14 -33 3 -43 -8 -9 -32 -9 -40 0 -9 8 -9 32 0 41 7 7 27 8 37 2z m-299 -20
c4 -3 10 -7 14 -10 8 -8 14 -13 16 -13 5 0 19 -18 18 -24 0 -3 0 -9 2 -14 8
-29 23 -34 70 -27 20 3 23 3 42 0 18 -3 43 -3 239 -3 l218 0 11 5 c10 5 19 16
24 27 7 16 33 16 40 0 5 -12 14 -22 25 -27 10 -5 11 -5 48 -5 40 1 44 0 44 -8
0 -8 -5 -9 -33 -8 -32 0 -38 -2 -57 -21 -7 -7 -14 -13 -15 -13 -1 0 -7 6 -14
12 -7 7 -16 15 -22 17 l-9 5 -161 0 c-157 0 -176 -1 -176 -6 0 -1 -1 -2 -2 -2
-4 0 -12 -8 -12 -11 0 -2 -1 -3 -2 -3 -1 0 -2 -2 -3 -4 -2 -6 -12 -15 -17 -15
-5 0 -15 9 -17 15 -1 2 -2 4 -3 4 -1 0 -2 1 -2 2 0 4 -8 12 -11 12 -2 0 -3 1
-3 2 0 5 -19 6 -132 6 l-116 -1 -20 -11 c-19 -10 -24 -11 -39 -10 -2 0 -6 3
-9 6 -5 5 -6 7 -6 18 l0 12 12 13 c7 6 12 12 11 13 -1 0 0 2 1 3 3 4 5 22 2
27 -4 7 -3 24 1 31 6 13 28 16 43 6z m189 2 c3 -5 3 -5 0 -10 -2 -3 -5 -5 -7
-5 -2 0 -5 2 -7 5 -3 5 -3 5 0 10 2 3 5 5 7 5 2 0 5 -2 7 -5z m711 -13 c14 -6
18 -12 18 -25 0 -21 -17 -28 -39 -17 -22 11 -32 32 -20 44 4 4 5 4 17 3 7 0
18 -2 24 -5z m-1019 -136 c10 -9 3 -26 -10 -26 -6 0 -17 8 -17 12 0 3 4 10 8
15 4 4 14 4 19 -1z m-191 -15 l-5 -5 -4 4 -5 5 4 4 5 5 4 -4 5 -5 -4 -4z m109
1 c9 -2 18 -10 21 -17 2 -6 -2 -21 -10 -36 -7 -12 -7 -18 -6 -53 1 -19 -7 -27
-26 -27 -19 0 -26 8 -27 26 0 8 2 13 6 22 4 7 7 16 8 21 1 5 2 9 2 10 0 1 -1
7 -2 14 -4 21 0 34 13 38 4 2 7 3 7 5 -1 1 0 1 2 0 2 0 8 -2 12 -3z m687 -1
c13 -6 18 -21 13 -38 -3 -10 -4 -12 -11 -14 -20 -9 -39 -2 -44 16 -2 10 0 23
6 30 7 8 24 11 36 6z m420 -23 c5 -5 5 -11 0 -16 -10 -10 -27 5 -16 16 4 4 12
4 16 0z m45 -173 c3 -3 3 -3 0 -6 -4 -5 -11 1 -7 6 4 4 4 4 7 0z m147 -30 c2
-2 4 -5 4 -6 0 -2 1 -5 2 -7 1 -1 3 -7 5 -12 2 -5 6 -12 9 -16 13 -17 15 -29
8 -37 -10 -10 -25 -4 -32 12 -1 3 -3 5 -4 5 -2 0 -6 1 -9 1 -3 0 -10 1 -16 1
l-10 1 -2 -11 c-6 -23 -11 -29 -30 -29 -18 0 -27 8 -35 32 -10 30 -3 47 19 47
6 0 11 -1 12 -2 1 -1 20 -1 20 0 0 0 2 1 5 1 6 1 13 6 21 16 9 12 23 13 33 4z
m-505 -63 c5 -1 14 -6 21 -11 27 -17 26 -17 142 -17 l101 0 8 -5 c5 -3 8 -7 8
-9 0 -2 1 -8 2 -14 1 -9 1 -12 -3 -16 -7 -8 -14 -6 -30 10 -10 10 -16 14 -22
16 -5 2 -10 3 -10 4 -1 0 -36 1 -78 0 l-76 -1 -20 -11 c-22 -11 -30 -13 -45
-8 -11 3 -26 3 -39 -1 -19 -6 -32 -3 -50 11 -2 2 -9 5 -14 7 -10 3 -42 5 -46
2 -1 0 -4 -1 -7 -1 -3 -1 -5 -2 -5 -2 0 -1 -1 -2 -3 -2 -2 0 -7 -3 -10 -7 -6
-6 -7 -9 -7 -16 0 -14 4 -21 24 -34 13 -10 15 -14 15 -30 -1 -17 -9 -24 -27
-24 -18 0 -25 6 -27 22 -2 19 -7 29 -24 46 -9 9 -20 22 -24 29 -6 7 -11 12
-14 13 -3 1 -5 2 -5 3 0 1 -2 1 -5 2 -3 0 -6 1 -7 1 -4 3 -38 1 -47 -2 -4 -2
-15 -6 -23 -10 -19 -10 -25 -10 -46 0 -24 12 -40 16 -45 12 -2 0 -5 -1 -8 -1
-3 -1 -5 -2 -5 -2 0 -1 -1 -2 -3 -2 -6 0 -23 -21 -31 -36 -8 -17 -12 -28 -13
-39 -3 -26 -10 -33 -36 -31 -2 0 -6 3 -9 6 -11 11 -8 32 8 48 9 10 13 18 12
27 -1 12 -5 21 -12 24 -3 1 -6 2 -6 3 0 1 -2 1 -5 2 -3 0 -6 1 -7 2 -1 0 -21
1 -44 0 -26 -1 -42 0 -43 1 -3 3 -3 9 0 12 1 1 40 2 113 1 l111 0 21 5 c27 7
25 7 51 1 l21 -6 113 0 c136 0 136 0 165 18 23 14 29 15 45 10z m-789 -42 c5
-5 5 -11 0 -16 -10 -10 -27 5 -16 16 4 4 12 4 16 0z m1186 -105 c3 -3 4 -7 4
-14 0 -13 -6 -19 -19 -19 -13 0 -19 6 -19 19 0 7 1 11 4 14 7 8 23 8 30 0z
m-409 0 c3 -3 3 -3 0 -6 -4 -5 -11 1 -7 6 4 4 4 4 7 0z m-777 -11 c5 -5 5 -11
0 -16 -10 -10 -27 5 -16 16 4 4 12 4 16 0z m133 -3 c5 -8 1 -16 -8 -16 -9 0
-13 8 -8 16 2 3 5 5 8 5 3 0 6 -2 8 -5z m728 -142 c7 -4 10 -11 10 -23 0 -13
-3 -18 -12 -24 -6 -4 -9 -4 -18 -3 -5 1 -11 2 -12 3 -5 4 -25 8 -43 8 -23 0
-28 3 -28 17 0 14 6 18 25 16 14 -1 41 3 46 7 5 4 25 4 32 -1z m-546 -8 c4 -4
5 -7 5 -15 0 -14 -6 -20 -20 -20 -14 0 -20 6 -20 20 0 14 6 20 20 20 8 0 11
-1 15 -5z m-147 -20 c8 -10 0 -27 -13 -27 -13 0 -20 17 -10 25 8 8 17 9 23 2z
m477 -1 c6 -5 6 -7 2 -12 -5 -5 -11 -5 -16 1 -3 5 -3 5 0 10 5 6 8 6 14 1z
m56 -33 c4 -5 4 -11 -1 -17 -7 -8 -18 -4 -24 9 -2 6 -2 6 3 10 6 5 16 4 22 -2z
m-358 -34 c3 -3 3 -3 0 -6 -4 -5 -11 1 -7 6 4 4 4 4 7 0z m263 -10 c6 -2 19
-7 28 -10 29 -9 31 -14 21 -50 -10 -33 -23 -36 -32 -8 -5 18 -10 23 -29 33
-22 11 -26 15 -26 25 0 17 14 21 38 10z m-3 -158 c4 -2 10 -4 12 -5 4 -2 4 -2
0 -2 -5 0 -11 -10 -11 -20 0 -12 0 -13 8 -26 13 -18 27 -26 53 -30 25 -4 32
-10 32 -29 0 -19 -9 -28 -28 -28 -13 0 -22 5 -27 15 -2 4 -4 6 -4 5 0 -1 -4
-2 -9 -1 -26 2 -30 -4 -29 -37 1 -14 2 -24 4 -29 16 -34 16 -43 0 -76 -5 -11
-6 -99 -1 -111 4 -9 14 -21 18 -21 2 0 3 -1 3 -2 0 -2 2 -2 81 -3 73 -1 76 -1
84 3 9 4 16 14 18 26 1 4 2 7 3 8 1 0 1 2 0 5 -1 8 7 15 16 15 9 0 17 -7 16
-15 -1 -3 -1 -5 0 -5 1 -1 2 -4 3 -8 2 -13 14 -28 23 -28 1 0 5 -3 8 -7 7 -6
7 -7 7 -21 0 -14 0 -15 -6 -21 -5 -5 -7 -6 -18 -6 -8 0 -15 -1 -20 -4 -4 -2
-9 -4 -9 -4 -1 0 -5 -4 -9 -9 -4 -5 -10 -10 -14 -12 -7 -4 -12 -2 -23 11 -13
15 -23 17 -60 17 -37 0 -45 -2 -65 -18 -9 -6 -19 -12 -22 -14 -8 -3 -26 -5
-30 -2 -4 3 -36 -4 -35 -8 2 -5 -12 -25 -15 -22 0 1 -4 10 -9 20 -5 10 -13 27
-18 37 -19 36 -25 46 -26 48 -2 3 5 15 15 23 14 13 15 17 15 83 0 32 -1 61 -2
64 l-1 6 -19 1 c-11 1 -18 0 -18 -1 0 -5 -36 -48 -44 -53 -8 -5 -10 -5 -15 1
-3 5 -3 5 1 19 7 21 3 37 -10 46 -11 9 -14 26 -4 35 11 10 40 19 66 20 19 0
27 4 37 13 3 4 5 8 5 10 0 2 1 4 2 5 1 1 2 22 2 57 l0 56 -5 11 c-4 8 -6 11
-10 11 -4 0 -4 0 0 2 2 1 7 3 11 4 4 2 8 4 10 5 2 0 15 1 29 0 21 0 28 -1 34
-4z m394 -5 c10 -10 3 -26 -11 -26 -9 0 -15 6 -14 15 1 13 16 20 25 11z m-858
-32 c7 -6 7 -19 1 -25 -6 -7 -19 -7 -25 -1 -7 6 -7 19 -1 25 6 7 19 7 25 1z
m-191 -9 c14 -9 21 -35 12 -44 -9 -10 -40 -3 -48 10 -6 10 -6 26 2 33 8 8 23
8 34 1z m1150 -8 c14 -6 34 -43 33 -59 -2 -17 -23 -24 -42 -13 -16 9 -32 27
-35 38 -2 10 0 23 6 30 8 9 25 11 38 4z m-96 -41 c8 -9 2 -20 -14 -28 -9 -5
-16 -14 -25 -31 -6 -13 -12 -17 -24 -18 -21 0 -37 15 -30 28 2 3 3 6 3 6 -1 0
0 2 2 4 4 6 12 11 20 12 4 0 11 2 16 4 5 2 9 3 10 2 1 -1 2 1 3 3 1 2 3 4 5 5
2 1 4 2 4 3 0 3 16 14 22 14 2 0 6 -2 8 -4z m283 -9 c4 -4 5 -7 5 -15 0 -14
-6 -20 -20 -20 -14 0 -20 6 -20 20 0 14 6 20 20 20 8 0 11 -1 15 -5z m-91 -40
c5 -5 6 -10 8 -41 l1 -25 -6 -6 -6 -6 -28 1 c-39 2 -44 2 -55 0 -1 -1 -5 -3
-8 -6 -4 -4 -7 -6 -8 -6 -1 0 -4 -1 -5 -3 -2 -2 -5 -3 -7 -3 -2 0 -4 1 -5 3 0
2 -3 3 -5 3 -5 0 -5 6 0 7 2 1 4 2 4 3 0 6 13 11 18 7 1 -1 4 4 10 17 3 5 6
10 7 11 6 8 12 13 16 13 10 0 31 10 37 17 19 21 24 23 32 14z m-322 -31 c0 -1
3 -4 7 -7 5 -3 7 -5 5 -5 -2 0 -2 -3 -2 -11 1 -11 1 -12 -5 -18 -6 -5 -8 -6
-20 -6 -13 0 -14 0 -20 6 -5 6 -6 8 -6 18 0 10 1 12 6 18 6 6 7 6 21 6 7 0 14
-1 14 -1z m-709 -5 c7 -7 -1 -44 -11 -51 -7 -5 -11 -5 -15 0 -4 6 -4 15 0 32
5 21 16 29 26 19z m862 -50 c1 -2 4 -3 5 -3 0 0 3 -2 6 -5 l4 -4 -6 -10 c-7
-13 -12 -16 -25 -14 -13 1 -17 6 -17 19 0 14 6 20 20 20 6 0 11 -1 13 -3z
m-662 -55 c5 -5 6 -7 6 -15 0 -13 -4 -19 -17 -27 -10 -6 -15 -11 -30 -27 -3
-4 -8 -7 -10 -7 -2 0 -2 -1 0 -1 7 -3 -6 -21 -21 -29 -12 -6 -18 -14 -21 -29
-2 -9 -2 -12 0 -16 3 -8 -2 -13 -15 -15 -8 -1 -9 -1 -14 4 -4 5 -5 7 -6 35 -2
47 -2 55 2 60 3 5 41 31 56 39 5 2 16 10 25 19 9 8 18 15 21 15 10 2 18 0 24
-6z m800 -27 c6 -4 6 -6 6 -20 0 -14 0 -16 -6 -20 -4 -4 -7 -5 -18 -5 -11 0
-14 1 -18 5 -6 4 -6 6 -6 20 0 14 0 16 6 20 4 4 7 5 18 5 11 0 14 -1 18 -5z
m-137 -2 c24 -4 28 -8 28 -22 0 -19 -10 -23 -44 -15 -10 2 -21 4 -24 5 -13 2
-18 8 -18 20 0 5 2 9 5 12 6 6 14 6 53 0z m-118 -22 l-5 -5 -4 4 -5 5 4 4 5 5
4 -4 5 -5 -4 -4z m314 -58 c4 -3 4 -4 1 -7 -5 -6 -11 -5 -21 2 -2 1 9 8 13 8
2 0 5 -1 7 -3z m-1048 -3 c5 -6 5 -12 0 -18 -7 -8 -22 -2 -22 9 0 11 15 17 22
9z m986 -6 c2 -1 5 -2 6 -4 2 -1 7 -3 11 -4 5 -1 6 -2 4 -2 -5 0 -8 -7 -7 -18
1 -10 -9 -17 -25 -17 -11 0 -17 7 -17 23 -1 12 -1 13 5 19 6 5 11 6 23 3z
m-87 -52 c10 -9 3 -26 -10 -26 -8 0 -15 7 -15 15 0 13 16 20 25 11z m226 -68
c5 -5 6 -7 6 -16 0 -15 -8 -23 -23 -23 -9 0 -11 1 -16 7 -9 8 -9 23 -1 32 9 9
24 9 34 0z m-983 -19 l-5 -5 -4 4 -5 5 4 4 5 5 4 -4 5 -5 -4 -4z m291 -22 c5
-6 8 -21 3 -21 -1 0 -2 -2 -3 -4 -1 -4 -8 -6 -15 -3 -7 2 -16 19 -15 26 0 2 1
6 1 7 0 2 1 5 3 7 3 3 4 3 12 -2 4 -3 10 -7 14 -10z m145 -36 c5 -4 6 -8 7
-18 2 -17 -2 -21 -21 -21 -12 0 -14 1 -19 6 -8 8 -8 24 0 32 9 9 24 9 33 1z
m-882 -9 c5 -5 5 -15 0 -20 -9 -9 -24 -2 -24 10 0 8 6 14 14 14 3 0 8 -2 10
-4z"/>
</g>
</svg>
