<?xml version="1.0" standalone="no"?>
<!DOCTYPE svg PUBLIC "-//W3C//DTD SVG 20010904//EN"
 "http://www.w3.org/TR/2001/REC-SVG-20010904/DTD/svg10.dtd">
<svg version="1.0" xmlns="http://www.w3.org/2000/svg"
 width="1100.000000pt" height="2850.000000pt" viewBox="0 0 1100.000000 2850.000000"
 preserveAspectRatio="xMidYMid meet">
<metadata>
Created by potrace 1.15, written by Peter Selinger 2001-2017
</metadata>
<g transform="translate(0.000000,2850.000000) scale(0.500000,-0.500000)"
fill="#000000" stroke="none">
<path d="M522 3810 c-3 -1 -6 -1 -7 0 0 0 -1 0 -1 -2 0 -1 -1 -2 -3 -2 -4 0
-14 -12 -18 -21 -2 -6 -3 -15 -3 -36 0 -29 0 -29 8 -50 10 -27 11 -39 2 -47
-5 -5 -7 -6 -16 -6 -11 0 -15 2 -36 17 -13 10 -24 11 -66 11 -34 -1 -38 -1
-45 -5 -11 -6 -19 -23 -19 -41 0 -10 -6 -16 -14 -16 -9 0 -14 6 -14 17 1 12
-5 29 -12 35 -9 9 -16 10 -63 10 -50 0 -52 0 -80 -16 -7 -5 -16 -10 -19 -11
-8 -4 -17 -14 -21 -21 -6 -11 -7 -182 -1 -197 7 -20 16 -30 35 -40 l14 -8 51
-1 c58 0 65 1 75 11 7 6 15 26 15 34 0 12 13 17 35 14 8 -2 19 -3 26 -4 7 0
13 -1 15 -1 5 -1 10 -8 10 -12 -1 -4 7 -28 12 -33 7 -8 14 -9 63 -9 68 0 75
-3 75 -32 0 -19 -4 -32 -16 -56 -13 -24 -13 -32 -3 -44 4 -4 9 -8 10 -8 2 0 3
-1 3 -2 0 -2 1 -2 72 -4 37 -1 67 -1 67 -2 0 0 3 -2 6 -5 3 -3 4 -5 3 -5 -1 0
-12 -5 -25 -11 -34 -17 -57 -27 -68 -31 -5 -3 -12 -6 -15 -7 -6 -3 -60 -26
-89 -37 -18 -8 -45 -17 -92 -35 -21 -8 -71 -25 -117 -39 -43 -14 -50 -18 -59
-36 l-4 -9 -1 -291 c-1 -160 -2 -296 -3 -302 0 -6 -1 -16 -2 -21 -1 -11 -9
-22 -20 -28 -4 -2 -12 -8 -19 -14 -10 -10 -15 -14 -32 -27 -3 -2 -10 -6 -16
-10 -28 -15 -33 -37 -15 -60 17 -24 57 -105 85 -175 15 -37 19 -43 33 -47 12
-3 18 -2 33 4 8 3 14 6 15 6 1 0 4 1 8 3 14 6 105 32 135 38 3 1 14 3 26 6 12
3 25 6 29 7 8 2 96 20 128 27 41 9 51 11 55 13 8 4 18 15 21 22 4 10 14 20 18
20 2 0 8 -3 12 -6 27 -20 33 -22 61 -16 10 2 54 11 97 19 43 8 82 16 85 18 19
10 27 26 25 51 -1 20 -6 30 -16 40 -8 8 -16 15 -19 19 -2 3 5 16 12 19 6 4 16
17 18 26 1 6 5 81 4 94 0 6 -6 18 -11 23 -6 6 -24 12 -32 10 -15 -2 -31 -5
-37 -6 -4 -1 -18 -3 -31 -5 -13 -2 -27 -5 -31 -5 -10 -2 -34 -6 -84 -14 -24
-4 -46 -8 -50 -8 -10 -2 -64 -11 -85 -14 -10 -2 -21 -4 -24 -4 -11 -2 -44 -7
-46 -8 -2 0 -3 -1 -4 -1 -1 -1 -4 1 -7 4 l-6 6 0 47 c0 46 0 47 -6 66 -7 25
-7 31 0 56 l6 20 0 117 c0 142 -4 127 40 140 46 13 51 15 100 31 46 15 63 21
61 24 -1 0 -1 1 1 1 6 0 11 30 7 41 -4 9 -2 19 5 26 8 8 24 8 32 0 3 -3 6 -6
5 -7 -1 -3 13 -23 18 -26 9 -6 21 -8 28 -5 29 11 41 15 72 27 20 8 40 16 44
18 4 2 15 7 24 10 18 7 25 12 25 16 0 1 1 2 2 1 2 -1 5 19 3 27 -1 4 -5 9 -13
15 -6 5 -14 12 -18 15 -3 3 -8 6 -10 7 -2 1 -6 4 -9 7 -3 3 -7 6 -7 6 -1 0 -5
3 -9 7 -5 4 -9 7 -9 7 -1 0 -5 3 -9 7 -5 4 -9 7 -9 7 -1 0 -5 3 -9 7 -5 4 -9
7 -9 7 -1 0 -5 3 -9 7 -5 4 -10 7 -11 8 -2 1 -4 2 -4 3 0 1 -5 4 -11 6 -10 4
-14 4 -25 3 -23 -2 -28 -3 -34 0 -10 3 -14 9 -16 22 -1 7 -3 14 -4 17 -1 4 0
6 2 9 8 8 12 41 6 51 -1 2 -2 8 -2 14 0 13 5 18 20 24 24 9 35 21 35 42 0 9 1
11 6 17 l6 6 127 -1 c70 0 131 0 135 1 5 1 16 6 27 12 23 14 25 14 48 0 10 -6
20 -11 22 -11 5 0 6 0 13 -7 l6 -6 -1 -50 c0 -42 0 -51 3 -58 4 -9 14 -21 18
-21 2 0 3 -1 3 -2 0 -2 2 -2 74 -3 89 -1 84 -3 115 31 12 13 25 9 43 -12 21
-24 47 -21 59 7 4 10 4 57 0 68 -2 8 -13 25 -13 22 0 -1 -4 2 -9 8 -10 11 -11
14 -6 21 4 5 11 5 33 2 15 -2 15 -2 37 6 28 11 34 11 62 0 l21 -8 73 0 c40 0
75 1 79 1 7 2 20 12 21 17 0 2 1 4 1 5 3 4 5 16 4 25 0 11 4 18 14 20 17 3 29
-4 28 -20 -1 -9 1 -21 4 -25 0 -1 1 -3 1 -5 1 -1 3 -5 6 -8 5 -5 8 -6 21 -4 6
0 16 10 20 20 6 13 6 84 0 113 l-5 22 5 22 c5 28 6 72 1 84 -4 9 -14 21 -18
21 -2 0 -3 1 -3 2 0 0 -4 1 -8 2 -10 0 -22 -6 -31 -17 -19 -23 -35 -23 -54 0
-4 5 -11 11 -16 13 l-8 5 -123 0 -123 0 -6 6 -6 6 1 46 c0 38 0 47 -3 54 -4 9
-14 21 -18 21 -2 0 -3 1 -3 2 0 3 -13 3 -135 3 -122 0 -135 0 -135 -3 0 -1 -1
-2 -3 -2 -4 0 -14 -12 -18 -21 -3 -7 -3 -16 -3 -54 l1 -46 -6 -6 -6 -6 -185 1
-185 1 -10 5 c-5 3 -10 7 -11 8 0 2 -1 4 -3 6 -5 6 -9 16 -9 25 0 10 2 14 13
31 8 12 12 24 10 33 -1 8 -14 23 -18 23 -2 0 -3 1 -3 2 0 1 -1 2 -2 2 -7 1
-254 2 -258 0z m820 -191 l-5 -5 -4 4 -5 5 4 4 5 5 4 -4 5 -5 -4 -4z m-663 -2
c3 -5 3 -5 0 -10 -2 -3 -5 -5 -7 -5 -2 0 -5 2 -7 5 -3 5 -3 5 0 10 2 3 5 5 7
5 2 0 5 -2 7 -5z m389 -3 c1 0 5 -3 8 -6 5 -5 6 -7 6 -18 0 -11 -1 -13 -6 -18
-6 -6 -7 -6 -18 -6 -11 0 -12 0 -18 6 -5 5 -6 7 -6 17 0 14 3 20 12 24 5 2 8
2 22 1z m616 -8 c5 -5 5 -15 0 -20 -9 -9 -24 -2 -24 10 0 8 6 14 14 14 3 0 8
-2 10 -4z m-473 -33 c5 -8 1 -16 -8 -16 -9 0 -13 8 -8 16 2 3 5 5 8 5 3 0 6
-2 8 -5z m-719 -9 c15 -5 38 -18 41 -24 11 -17 6 -40 -9 -47 -21 -8 -37 1 -49
29 -2 5 -4 9 -5 10 -1 1 -3 6 -5 12 -3 11 -3 12 0 17 3 4 5 5 14 7 0 0 7 -2
13 -4z m118 -13 l-5 -5 -4 4 -5 5 4 4 5 5 4 -4 5 -5 -4 -4z m298 5 c5 -6 5
-12 0 -18 -7 -8 -22 -2 -22 9 0 11 15 17 22 9z m-558 -22 c5 -6 5 -12 0 -18
-7 -8 -22 -2 -22 9 0 11 15 17 22 9z m966 -6 c5 -5 5 -11 0 -16 -10 -10 -27 5
-16 16 4 4 12 4 16 0z m-209 -30 c7 -6 7 -19 1 -25 -6 -7 -19 -7 -25 -1 -7 6
-7 19 -1 25 6 7 19 7 25 1z m-208 -49 c5 -8 1 -16 -8 -16 -9 0 -13 8 -8 16 2
3 5 5 8 5 3 0 6 -2 8 -5z m396 -9 c10 -9 3 -26 -10 -26 -8 0 -15 7 -15 15 0
13 16 20 25 11z m-960 -611 c15 -6 23 -19 23 -36 0 -13 -5 -20 -17 -23 -13 -4
-35 3 -42 12 -8 10 -7 32 1 41 7 8 24 11 35 6z m30 -179 c4 -6 4 -24 -1 -30
-7 -9 -27 -9 -34 0 -5 6 -5 24 0 30 7 9 27 9 35 0z m-90 -192 c4 -6 4 -24 -1
-30 -7 -9 -27 -9 -34 0 -5 6 -5 24 0 30 7 9 27 9 35 0z m426 -82 c7 -6 7 -19
1 -25 -6 -7 -19 -7 -25 -1 -7 6 -7 19 -1 25 6 7 19 7 25 1z m-274 -33 c6 -4 6
-6 6 -20 0 -14 0 -16 -6 -20 -4 -4 -7 -5 -18 -5 -7 0 -13 1 -14 2 -1 1 -5 3
-11 4 -5 2 -9 3 -9 4 1 1 0 2 -1 2 -3 1 11 28 17 34 8 6 28 6 36 -1z m184 -24
c12 -7 14 -33 3 -43 -8 -9 -32 -9 -40 0 -9 8 -9 32 0 41 7 7 27 8 37 2z m-266
-13 c1 -1 2 -2 3 -1 2 1 9 -2 9 -6 0 -1 0 -3 -1 -3 -1 0 -2 -1 -2 -3 0 -1 -2
-3 -5 -5 -3 -1 -5 -3 -5 -4 0 -4 -12 -2 -16 2 -8 9 -2 22 9 22 4 0 7 -1 8 -2z
m-104 -12 c4 -6 4 -24 -1 -30 -7 -9 -27 -9 -34 0 -5 6 -5 24 0 30 7 9 27 9 35
0z m36 -126 c10 -9 3 -26 -10 -26 -8 0 -15 7 -15 15 0 13 16 20 25 11z"/>
<path d="M1008 3136 c-3 -1 -6 -1 -7 0 0 0 -1 0 -1 -2 0 -1 -1 -2 -3 -2 -6 0
-13 -11 -13 -22 -1 -13 0 -14 18 -23 l13 -6 13 4 c7 3 16 7 20 9 7 4 7 5 6 17
-1 13 -6 21 -17 25 -6 2 -22 2 -29 0z"/>
<path d="M1128 3136 c-5 -2 -16 -13 -16 -17 0 -1 -1 -4 -1 -6 -1 -5 -1 -12 -1
-27 1 -20 -5 -26 -30 -30 -16 -3 -31 -10 -43 -20 -5 -4 -11 -8 -14 -8 -7 0
-10 -1 -24 -8 -12 -6 -13 -7 -18 -17 -5 -10 -5 -12 -5 -51 0 -47 2 -57 12 -66
7 -7 19 -9 37 -7 12 1 14 1 17 -3 5 -6 5 -12 1 -17 -4 -4 -8 -6 -23 -12 -18
-7 -23 -10 -30 -20 -12 -15 -17 -36 -12 -48 5 -13 7 -16 13 -22 4 -4 8 -10 11
-14 l4 -7 -4 -7 c-3 -4 -7 -10 -11 -14 -6 -6 -8 -10 -13 -22 -1 -4 -2 -101 -2
-352 l1 -346 10 -20 c10 -22 12 -35 7 -45 -3 -5 -3 -6 -1 -21 1 -11 10 -20 20
-22 6 -1 246 0 251 1 1 0 2 1 2 2 0 1 1 2 3 2 4 0 14 12 18 21 5 12 5 778 0
788 -4 6 -9 12 -9 10 0 -1 -1 -1 -2 0 -1 3 -26 9 -27 7 -3 -4 -17 -2 -22 3 -7
7 -7 19 0 26 5 5 19 7 22 3 1 -2 26 4 27 7 1 1 2 1 2 0 0 -2 5 4 9 11 3 5 3
11 3 38 l-1 31 6 6 6 6 41 0 c45 0 43 0 69 15 7 4 13 6 18 6 5 0 11 -2 18 -6
24 -14 26 -15 54 -15 l26 0 6 -6 6 -6 -1 -173 c0 -180 0 -183 8 -194 4 -5 29
-21 32 -21 1 1 3 -1 6 -4 9 -9 5 -28 -7 -33 -2 -1 -16 -7 -31 -13 l-27 -11
-87 1 c-104 2 -92 2 -101 -2 -10 -5 -15 -11 -17 -23 -1 -9 -1 -12 8 -36 20
-49 22 -56 22 -59 0 -2 3 -10 6 -19 8 -22 25 -34 48 -37 14 -2 20 -9 20 -26 0
-11 -1 -12 -7 -19 -5 -4 -10 -9 -12 -10 -7 -5 -13 -14 -16 -25 -3 -9 -3 -10 2
-20 7 -14 20 -25 31 -25 4 0 15 2 26 4 l18 5 23 -5 c20 -4 26 -4 49 -3 56 3
126 13 126 19 0 1 2 2 4 3 2 0 5 4 7 7 4 10 6 31 3 33 -1 1 -2 6 -2 11 0 14 6
20 19 20 13 0 16 -2 24 -18 l7 -14 15 0 c18 0 19 1 26 23 3 9 7 18 9 20 2 1
12 5 22 9 19 6 36 17 36 23 0 2 1 5 3 8 7 15 15 38 18 55 8 42 8 28 8 430 1
350 1 385 -2 393 -4 9 -14 21 -18 21 -2 0 -3 1 -3 2 0 1 -1 2 -2 2 -9 2 -462
2 -469 0 -17 -5 -23 -12 -35 -46 -5 -14 -6 -15 -14 -19 -16 -7 -26 -1 -23 15
3 15 2 33 -2 39 -1 2 -7 6 -12 9 -8 4 -11 4 -76 4 -39 0 -70 -1 -73 -2z m650
-69 c3 -3 4 -7 4 -14 0 -13 -6 -19 -19 -19 -13 0 -19 6 -19 19 0 7 1 11 4 14
7 8 23 8 30 0z m-355 -33 c8 -8 7 -23 -1 -31 -6 -7 -38 -24 -48 -26 -8 -2 -22
2 -26 7 -9 8 -9 32 0 41 5 5 39 13 57 13 12 0 15 -1 18 -4z m-190 -117 c4 -4
5 -7 5 -15 0 -14 -6 -20 -20 -20 -14 0 -20 6 -20 20 0 14 6 20 20 20 8 0 11
-1 15 -5z m-56 -119 c11 -10 3 -28 -11 -28 -9 0 -16 6 -16 16 0 14 17 22 27
12z m479 -156 c5 -6 5 -12 0 -18 -7 -8 -22 -2 -22 9 0 11 15 17 22 9z m-587
-54 c5 -5 6 -7 6 -16 0 -15 -8 -23 -23 -23 -9 0 -11 1 -16 7 -9 8 -9 23 -1 32
9 9 24 9 34 0z m89 -171 c9 -5 11 -21 4 -27 -9 -7 -20 1 -21 15 -1 13 7 18 17
12z m602 -79 c19 -6 18 -22 -1 -32 -15 -8 -21 -14 -31 -31 -11 -18 -13 -20
-24 -22 -17 -3 -29 5 -32 19 -4 16 1 25 17 37 11 8 18 14 23 19 12 13 28 16
48 10z m-619 -107 c4 -4 5 -7 5 -14 0 -12 -4 -18 -17 -28 -12 -8 -17 -15 -18
-25 -1 -10 3 -40 6 -46 2 -3 2 -6 2 -7 -1 0 -1 -1 1 -1 1 0 2 -1 1 -2 -2 -3
11 -12 16 -12 2 0 13 2 23 5 26 7 37 7 44 -1 5 -5 6 -7 6 -16 0 -22 -8 -26
-58 -30 -12 -1 -26 -3 -31 -4 -4 -2 -9 -3 -9 -2 -3 0 -16 -16 -16 -19 0 -5
-11 -28 -16 -32 -7 -6 -23 -5 -30 2 -9 9 -9 16 2 48 16 44 17 59 7 80 -4 9 -4
17 0 35 5 25 13 41 20 46 3 2 9 7 15 12 20 17 37 21 47 11z m376 0 c3 -2 7 -7
10 -13 7 -13 13 -17 30 -17 11 1 14 1 18 5 10 9 33 9 41 0 8 -7 9 -27 3 -37
-4 -7 -10 -9 -26 -10 -19 -1 -31 -5 -46 -14 -9 -6 -13 -8 -21 -8 -15 0 -19 5
-34 35 -15 30 -18 44 -11 54 7 9 26 12 36 5z"/>
</g>
</svg>
