<?xml version="1.0" standalone="no"?>
<!DOCTYPE svg PUBLIC "-//W3C//DTD SVG 20010904//EN"
 "http://www.w3.org/TR/2001/REC-SVG-20010904/DTD/svg10.dtd">
<svg version="1.0" xmlns="http://www.w3.org/2000/svg"
 width="1000.000000pt" height="2850.000000pt" viewBox="0 0 1000.000000 2850.000000"
 preserveAspectRatio="xMidYMid meet">
<metadata>
Created by potrace 1.15, written by Peter Selinger 2001-2017
</metadata>
<g transform="translate(0.000000,2850.000000) scale(0.500000,-0.500000)"
fill="#000000" stroke="none">
<path d="M497 3818 c-3 -1 -8 -2 -11 -4 -5 -3 -16 -14 -16 -17 0 0 -2 -5 -5
-10 -3 -4 -8 -11 -10 -15 -22 -35 -79 -114 -89 -124 -1 -1 -5 -6 -10 -12 -9
-11 -15 -19 -23 -27 -50 -55 -82 -87 -137 -136 -6 -5 -15 -13 -20 -17 -5 -4
-10 -8 -12 -10 -2 -2 -6 -5 -10 -8 -4 -3 -8 -6 -10 -8 -2 -2 -6 -5 -9 -7 -3
-2 -12 -9 -20 -15 -8 -6 -20 -15 -26 -19 -12 -9 -19 -20 -20 -34 -1 -6 0 -13
7 -29 10 -25 25 -64 30 -80 2 -6 7 -19 10 -29 3 -9 9 -23 13 -30 8 -14 14 -33
16 -49 4 -34 13 -62 23 -69 3 -2 9 -3 18 -3 l13 0 28 22 c15 12 27 23 27 24 0
2 3 -1 6 -5 5 -6 6 -9 6 -18 0 -6 1 -14 3 -18 4 -9 14 -21 18 -21 2 0 3 -1 3
-2 0 -2 10 -3 57 -3 l46 0 6 -6 6 -6 0 -28 0 -28 -6 -6 -6 -6 -108 0 c-107 0
-119 0 -119 -3 0 -1 -1 -2 -3 -2 -4 0 -14 -12 -18 -21 -5 -13 -4 -81 2 -92 4
-8 20 -24 25 -26 5 -2 10 -13 10 -24 0 -9 -5 -23 -8 -23 -3 0 -17 -12 -22 -20
-8 -11 -11 -22 -7 -32 3 -9 14 -22 18 -22 2 0 3 -1 3 -2 0 -2 2 -2 104 -3 92
-1 100 -1 106 2 12 7 19 20 18 39 0 8 1 11 4 14 8 8 24 2 24 -9 0 -6 -6 -21
-9 -25 -10 -9 -10 -10 -9 -103 0 -61 -1 -89 -2 -90 -1 -1 -2 -2 -1 -3 1 -1 0
-2 -1 -3 -1 -1 -2 0 -3 1 -1 2 -2 1 -3 -3 l-2 -6 0 7 c0 9 0 8 -9 41 -4 15 -9
33 -10 39 -6 25 -13 44 -19 51 -12 13 -28 18 -44 13 -4 -1 -8 -3 -10 -3 -2 0
-12 -3 -23 -6 -11 -3 -21 -5 -23 -6 -29 -7 -76 -20 -82 -23 -7 -3 -18 -14 -18
-18 0 0 -1 -3 -1 -5 -4 -13 -3 -19 4 -44 0 -1 1 -5 2 -9 1 -4 3 -14 5 -23 8
-32 23 -112 27 -138 1 -3 2 -10 3 -16 1 -5 3 -15 3 -22 1 -7 2 -12 2 -13 0 -1
1 -7 2 -14 2 -23 3 -29 8 -38 6 -10 12 -15 25 -18 8 -2 15 0 83 19 41 12 74
22 75 23 0 1 3 -1 6 -5 5 -5 6 -8 6 -17 1 -18 -5 -25 -21 -24 -5 0 -27 -2 -48
-5 -21 -3 -42 -6 -46 -6 -4 -1 -17 -2 -28 -4 -11 -2 -24 -3 -28 -4 -34 -4 -74
-10 -85 -12 -21 -5 -34 -20 -34 -39 0 -10 43 -210 48 -221 4 -9 14 -21 19 -21
19 -2 26 2 32 20 2 5 6 11 9 14 4 6 5 6 10 3 3 -2 9 -7 13 -12 9 -8 21 -15 30
-15 6 -1 113 20 124 24 3 1 11 2 17 3 6 0 13 1 14 2 2 0 6 1 9 2 6 1 135 26
142 28 2 1 7 2 10 2 3 1 10 4 15 7 10 6 17 19 20 40 2 16 6 20 20 20 11 0 16
-3 23 -17 7 -13 17 -22 29 -25 8 -2 13 -1 39 4 17 3 32 7 35 7 47 9 126 26
134 30 10 4 19 14 24 27 2 6 3 12 3 12 0 1 -2 16 -3 34 -1 18 -3 38 -3 45 -2
23 -3 40 -4 58 -2 38 -5 51 -12 60 -7 9 -19 15 -31 15 -4 0 -9 2 -12 4 l-4 3
11 35 c20 62 24 73 28 81 5 9 10 11 12 5 1 -3 7 -13 13 -22 12 -18 35 -56 45
-74 3 -6 8 -16 12 -22 12 -22 39 -75 49 -99 4 -9 10 -19 15 -24 7 -8 9 -9 19
-10 10 -1 13 -1 18 3 38 22 106 53 163 72 8 3 14 6 15 6 2 3 19 10 30 12 6 1
21 6 34 10 53 18 138 44 202 63 20 6 38 12 40 13 2 1 5 0 8 -3 l5 -5 1 -235
c1 -187 2 -235 4 -240 3 -7 14 -19 17 -19 2 0 3 -1 3 -2 0 -3 13 -3 132 -3
119 0 132 0 132 3 0 1 1 2 3 2 4 0 14 12 18 21 3 7 3 57 3 528 0 559 1 529
-10 538 -3 3 -7 4 -16 4 -6 0 -12 1 -12 2 -1 1 -2 1 -2 0 0 -4 -16 -11 -24
-11 -13 0 -14 0 -20 6 -5 5 -6 7 -6 18 0 16 5 21 25 28 7 2 17 6 21 8 11 6 27
21 33 32 12 20 11 0 11 352 0 293 0 326 -3 333 -4 9 -14 21 -18 21 -2 0 -3 1
-3 2 0 3 -13 3 -132 3 -119 0 -132 0 -132 -3 0 -1 -1 -2 -3 -2 -4 0 -14 -12
-18 -21 -3 -7 -3 -57 -3 -526 l0 -518 -5 -7 c-4 -4 -7 -7 -9 -7 -3 -1 -30 -7
-82 -20 -16 -4 -31 -8 -33 -8 -43 -10 -52 -15 -67 -37 -14 -21 -17 -23 -32
-23 -19 0 -27 8 -27 27 0 12 2 16 13 28 18 20 18 23 18 127 l0 89 -5 11 c-6
12 -12 16 -32 23 -15 5 -19 9 -19 22 0 13 4 17 21 23 19 6 20 7 19 21 0 17 -1
19 -11 25 -11 7 -15 14 -15 26 0 12 4 19 15 26 11 7 18 15 23 27 4 8 4 19 4
256 0 222 0 248 -3 255 -4 9 -14 21 -18 21 -2 0 -3 1 -3 2 0 3 -13 3 -130 3
-117 0 -130 0 -130 -3 0 -1 -1 -2 -3 -2 -4 0 -14 -12 -18 -21 -2 -6 -3 -17 -3
-61 0 -69 1 -72 31 -89 17 -10 20 -13 20 -25 0 -12 -3 -15 -20 -25 -16 -9 -22
-15 -27 -27 -4 -8 -4 -13 -3 -127 1 -65 1 -127 1 -138 0 -11 0 -40 -1 -64 -1
-38 -1 -44 2 -52 6 -15 17 -21 42 -22 22 -1 30 -9 30 -28 0 -19 -8 -27 -31
-28 -34 -2 -44 -12 -44 -46 0 -20 2 -29 14 -50 11 -19 11 -27 0 -46 -12 -21
-13 -29 -15 -59 -2 -52 -14 -86 -47 -130 -18 -24 -58 -63 -74 -71 -5 -3 -6 -3
-9 1 -2 2 -2 5 -1 12 3 14 12 43 23 72 4 12 3 27 -3 37 -8 12 -19 16 -97 34
-12 3 -24 5 -26 6 -2 0 -12 2 -21 5 -15 3 -21 5 -40 9 -11 3 -26 -1 -35 -9 -6
-5 -12 -22 -14 -35 -2 -17 -3 -24 -9 -58 -2 -13 -4 -28 -4 -33 -1 -9 -1 -10
-1 -3 -1 6 -2 7 -5 5 -3 -1 -4 -1 -5 1 0 2 -1 33 -1 69 0 37 0 67 -1 68 0 0 3
4 6 7 l6 6 95 0 c94 0 106 0 106 3 0 1 1 2 3 2 4 0 14 12 18 21 2 6 3 15 3 46
0 53 -3 61 -26 77 -12 8 -16 13 -16 22 0 9 4 14 16 22 13 9 19 17 23 30 3 9 3
11 1 19 -3 9 -15 23 -19 23 -2 0 -3 1 -3 2 0 1 -1 2 -2 2 -6 1 -198 3 -198 2
0 -1 -3 1 -6 5 l-7 6 0 28 0 28 6 6 6 6 58 0 c58 0 69 1 69 3 0 1 1 2 3 2 4 0
14 12 18 21 3 7 3 17 3 75 l-1 67 -8 19 c-4 10 -8 22 -8 27 -1 4 -2 8 -2 9 -1
1 -2 4 -2 7 -1 6 -8 19 -11 23 -7 7 -10 16 -10 26 0 15 6 21 27 24 8 1 23 5
33 8 33 12 46 9 55 -14 6 -16 8 -18 18 -18 12 0 25 4 25 7 0 1 11 24 24 50 23
45 25 49 25 59 -1 11 -3 18 -9 26 -3 4 -40 32 -60 46 -65 44 -122 80 -193 119
-22 13 -36 21 -37 25 -4 7 -3 15 5 29 6 12 7 15 6 23 -3 22 -7 24 -71 52 -7 3
-22 9 -32 14 -10 5 -25 11 -33 14 -8 3 -18 8 -22 10 -38 18 -54 23 -66 20z
m1250 -164 c4 -6 4 -24 -1 -30 -7 -9 -27 -9 -34 0 -5 6 -5 24 0 30 7 9 27 9
35 0z m97 -12 c5 -5 6 -7 6 -17 0 -10 -1 -12 -6 -17 -5 -5 -7 -6 -17 -6 -10 0
-12 1 -17 6 -5 5 -6 7 -6 17 0 10 1 12 6 17 5 5 7 6 17 6 10 0 12 -1 17 -6z
m-1252 -37 c3 -3 4 -7 4 -14 0 -13 -6 -19 -19 -19 -13 0 -19 6 -19 19 0 7 1
11 4 14 7 8 23 8 30 0z m-15 -80 c19 -8 13 -35 -7 -35 -20 0 -26 27 -7 35 8 4
6 3 14 0z m-1 -112 c13 -8 24 -14 44 -27 25 -15 79 -50 80 -52 3 -3 14 -10 17
-10 3 0 3 -1 1 -1 -2 -1 -4 -4 -6 -6 -4 -4 -5 -4 -119 -5 l-116 0 -7 5 -7 6 6
6 c13 14 24 28 33 43 8 13 14 23 20 29 3 3 16 14 21 16 9 5 19 3 33 -4z m-346
-242 l-5 -5 -4 4 -5 5 4 4 5 5 4 -4 5 -5 -4 -4z m440 -28 c3 -3 4 -7 4 -14 0
-13 -6 -19 -19 -19 -13 0 -19 6 -19 19 0 7 1 11 4 14 7 8 23 8 30 0z m14 -219
c11 -3 16 -10 16 -23 0 -10 -1 -12 -6 -17 -5 -5 -7 -6 -17 -6 -10 0 -12 1 -17
6 -5 5 -6 7 -6 17 0 15 7 22 22 25 1 0 4 -1 8 -2z m989 -159 c4 -4 5 -7 5 -13
0 -11 -7 -18 -18 -18 -11 0 -18 7 -18 18 0 11 7 18 18 18 6 0 9 -1 13 -5z
m-1151 -25 c5 -6 5 -12 0 -18 -7 -8 -22 -2 -22 9 0 11 15 17 22 9z m593 -141
c4 -4 5 -7 5 -15 0 -14 -6 -20 -20 -20 -14 0 -20 6 -20 20 0 14 6 20 20 20 8
0 11 -1 15 -5z m678 -88 c8 -8 6 -23 -6 -37 -2 -3 -6 -8 -8 -11 -6 -9 -13 -15
-18 -16 -7 -2 -13 6 -12 15 3 14 13 45 18 49 7 7 19 7 26 0z m-712 -23 c7 -3
12 -13 12 -25 0 -19 -9 -28 -28 -28 -19 0 -28 9 -28 28 0 17 6 24 22 28 5 1
14 -1 22 -3z m95 -25 l-5 -5 -4 4 -5 5 4 4 5 5 4 -4 5 -5 -4 -4z m93 -77 c15
-9 12 -44 -5 -50 -8 -3 -25 0 -31 5 -10 8 -11 32 -1 42 7 6 26 8 37 3z m445
-25 c9 -5 11 -13 11 -42 0 -25 0 -27 -5 -32 -9 -10 -22 -6 -34 10 -16 23 -21
42 -13 56 6 12 26 16 41 8z m-1013 -38 c7 -2 11 -5 10 -7 -1 -1 2 -4 5 -8 6
-5 7 -7 8 -20 l1 -15 23 -1 c25 -1 28 -3 28 -15 0 -8 -5 -12 -34 -28 -18 -9
-24 -11 -32 -12 -12 0 -21 4 -25 12 -5 8 -5 25 0 33 6 10 7 34 2 46 -3 8 -3 8
1 14 3 3 5 5 6 4 1 -1 4 -2 7 -3z m-267 -89 c5 -7 5 -8 0 -13 -5 -7 -8 -6 -13
1 -4 7 -4 11 0 15 5 4 8 4 13 -3z m347 -98 c11 -10 3 -28 -11 -28 -9 0 -16 6
-16 16 0 14 17 22 27 12z m-385 -74 c5 -5 6 -7 6 -17 0 -10 -1 -12 -6 -17 -5
-5 -7 -6 -17 -6 -10 0 -12 1 -17 6 -5 5 -6 7 -6 17 0 10 1 12 6 17 5 5 7 6 17
6 10 0 12 -1 17 -6z"/>
<path d="M916 3311 c-3 -1 -9 -4 -14 -5 -16 -5 -28 -23 -29 -46 0 -5 -1 -13
-2 -18 -2 -6 -2 -11 -1 -13 1 -2 1 -3 1 -3 -1 0 -1 -1 1 -2 2 -1 8 -2 13 -2
10 0 11 0 20 11 16 17 27 44 27 64 0 4 -1 7 -2 7 -2 0 -2 0 0 2 2 1 2 2 0 3
-5 4 -9 5 -14 2z"/>
</g>
</svg>
