<?xml version="1.0" standalone="no"?>
<!DOCTYPE svg PUBLIC "-//W3C//DTD SVG 20010904//EN"
 "http://www.w3.org/TR/2001/REC-SVG-20010904/DTD/svg10.dtd">
<svg version="1.0" xmlns="http://www.w3.org/2000/svg"
 width="1000.000000pt" height="2850.000000pt" viewBox="0 0 1000.000000 2850.000000"
 preserveAspectRatio="xMidYMid meet">
<metadata>
Created by potrace 1.15, written by Peter Selinger 2001-2017
</metadata>
<g transform="translate(0.000000,2850.000000) scale(0.500000,-0.500000)"
fill="#000000" stroke="none">
<path d="M1187 3826 c-15 -6 -21 -13 -29 -36 -5 -14 -11 -31 -15 -41 -14 -33
-26 -61 -40 -87 -19 -38 -20 -43 -8 -67 11 -23 10 -42 -3 -49 -3 -1 -15 -3
-27 -4 -21 -1 -33 -4 -35 -8 -1 -1 -3 1 -6 5 -5 8 -5 8 -6 64 -1 61 -2 67 -12
77 -14 12 -6 12 -206 12 -168 0 -181 0 -186 3 -7 5 -10 9 -8 9 1 1 6 11 12 23
11 23 12 32 4 45 -7 11 -18 14 -128 35 -119 22 -126 23 -146 13 -15 -8 -23
-17 -32 -38 -31 -66 -67 -129 -110 -186 -9 -13 -31 -41 -32 -42 -1 -1 -7 -8
-14 -16 -25 -29 -47 -52 -75 -77 -10 -9 -21 -19 -26 -24 l-8 -7 2 -14 c1 -17
1 -17 23 -27 8 -4 17 -8 19 -9 1 -1 10 -5 18 -8 8 -3 20 -8 25 -11 11 -6 27
-9 36 -7 4 1 6 1 6 -1 0 -1 1 -1 1 0 1 2 4 2 7 1 5 -1 7 -3 10 -12 2 -5 4 -10
4 -11 1 0 11 -5 23 -11 12 -6 27 -14 34 -18 7 -3 13 -6 15 -6 3 0 3 0 0 -1 -2
-1 -5 -3 -6 -6 -2 -2 -4 -3 -4 -2 0 1 -1 1 -3 -1 -1 -1 -25 -2 -69 -2 -37 0
-70 -1 -74 -2 -3 -1 -6 -1 -7 0 0 0 -1 0 -1 -2 0 -1 -1 -2 -3 -2 -4 0 -14 -12
-18 -21 -2 -6 -3 -15 -3 -41 0 -31 0 -35 4 -43 5 -9 18 -21 23 -21 2 0 6 -3 9
-6 l6 -6 -6 -6 c-3 -3 -7 -6 -9 -6 -6 0 -18 -12 -23 -22 l-5 -11 3 -10 c4 -10
15 -23 19 -23 2 0 3 -1 3 -2 0 -2 0 -2 45 -4 37 -1 52 -4 55 -8 1 -1 3 -2 5
-3 l4 -1 -4 0 c-12 -1 -17 -27 -8 -45 l5 -11 -5 -4 c-5 -5 -6 -5 -60 -6 -58
-2 -59 -2 -59 -4 0 -1 -1 -2 -3 -2 -1 0 -5 -3 -9 -7 -6 -7 -7 -9 -7 -18 0 -5
1 -9 2 -9 0 0 1 -1 1 -3 0 -3 11 -14 22 -21 19 -13 26 -24 26 -40 0 -13 -5
-18 -20 -24 -15 -5 -26 -14 -31 -23 -5 -11 -7 -38 -2 -50 4 -9 14 -21 18 -21
2 0 3 -1 3 -2 0 -2 1 -2 1 -2 1 1 4 1 7 0 4 -1 27 -2 53 -2 36 0 47 -1 51 -3
3 -2 6 -4 6 -5 0 -1 2 -2 3 -3 3 0 3 -1 0 -1 -4 0 -12 -3 -43 -19 -8 -4 -92
-38 -114 -46 -15 -5 -20 -12 -20 -29 0 -13 0 -14 7 -20 30 -26 45 -40 83 -78
24 -24 45 -44 47 -46 3 -1 10 -3 16 -3 12 -2 11 -2 45 16 9 5 19 10 23 11 9 3
28 12 46 22 25 14 78 45 84 48 6 5 19 6 21 2 1 -1 1 -5 0 -7 -2 -5 -47 -36
-88 -60 -32 -18 -47 -26 -86 -46 -25 -12 -49 -24 -54 -26 -5 -2 -13 -5 -19 -8
-12 -5 -70 -29 -72 -29 0 0 -3 -1 -6 -2 -3 -1 -6 -2 -7 -2 -1 0 -5 -2 -10 -5
-13 -7 -16 -11 -18 -26 -1 -13 -1 -14 4 -20 3 -3 6 -7 7 -8 3 -2 11 -12 22
-26 3 -4 8 -9 10 -12 2 -2 6 -7 8 -11 3 -5 9 -9 16 -13 13 -6 15 -9 16 -18 3
-27 17 -51 34 -57 14 -5 21 -3 54 13 41 21 92 49 115 63 3 2 7 5 9 6 7 4 41
25 47 30 8 6 13 15 20 30 7 16 9 18 27 18 25 0 33 3 71 33 16 12 19 13 24 9 4
-4 2 -11 -3 -17 -14 -15 -60 -51 -101 -80 -10 -7 -20 -14 -21 -15 -1 -1 -7 -4
-13 -8 -6 -4 -13 -10 -15 -12 -2 -3 -9 -7 -15 -10 -6 -3 -11 -6 -12 -6 0 -1
-2 -2 -3 -2 -2 0 -7 -3 -12 -6 -5 -3 -9 -6 -10 -6 0 0 -12 -7 -26 -15 -15 -7
-31 -17 -38 -20 -18 -9 -23 -15 -23 -26 0 -16 1 -18 11 -21 5 -1 11 -2 14 -2
3 0 9 -2 12 -5 5 -4 5 -6 4 -12 -1 -12 -7 -16 -32 -28 -20 -10 -25 -11 -35
-11 -13 0 -13 0 -24 11 -11 11 -11 11 -23 11 -15 0 -18 -2 -28 -18 -7 -11 -17
-18 -26 -18 -2 0 -6 -3 -11 -8 -8 -7 -8 -8 -8 -19 0 -12 2 -17 12 -27 1 -1 5
-7 9 -13 4 -5 11 -16 16 -24 6 -8 14 -21 19 -29 17 -28 25 -35 44 -35 10 0 15
2 52 20 23 12 50 26 61 32 11 6 20 11 20 11 1 0 4 2 7 4 3 2 10 6 17 10 18 10
21 12 28 16 8 5 13 5 19 -1 5 -6 8 -12 11 -24 1 -3 2 -7 2 -8 4 -15 11 -53 14
-71 4 -29 8 -39 17 -48 13 -13 22 -14 76 -13 67 1 95 5 132 17 40 13 82 45
109 81 15 20 17 27 16 53 -1 24 1 29 15 36 8 4 20 15 25 22 4 7 10 27 12 39 1
6 2 12 2 14 1 2 2 8 2 13 2 11 4 16 9 22 l4 4 5 -4 c7 -5 29 -24 33 -28 6 -6
11 -8 20 -8 10 0 25 6 27 11 1 3 18 12 28 14 3 1 10 3 16 6 10 4 13 7 45 43 8
8 17 19 21 23 20 22 34 38 36 43 3 6 4 20 1 28 -2 5 -18 21 -39 37 -4 3 -9 7
-10 8 -2 2 -56 43 -80 61 -12 8 -72 51 -78 55 -10 6 -15 13 -14 19 1 7 4 10
25 26 4 3 8 6 10 8 2 2 30 24 62 49 32 25 58 47 58 49 0 1 2 -1 6 -4 l5 -7 1
-47 c1 -32 2 -49 4 -53 3 -7 14 -19 17 -19 2 0 3 -1 3 -2 0 -1 1 -1 3 -1 10
-1 34 -5 35 -7 0 0 4 -3 8 -5 4 -1 6 -3 5 -3 -2 0 -3 -4 -4 -9 -1 -8 0 -11 7
-24 26 -53 61 -109 103 -168 16 -23 18 -28 12 -37 -4 -5 -46 -26 -87 -42 -17
-7 -33 -13 -35 -14 -4 -2 -52 -17 -74 -24 -14 -4 -27 -12 -47 -28 -10 -9 -20
-17 -22 -19 -1 -2 -3 -9 -4 -17 -1 -13 -1 -14 4 -21 8 -9 33 -47 45 -67 17
-27 19 -31 36 -66 10 -18 20 -36 23 -39 6 -6 22 -13 30 -13 7 0 111 35 115 38
1 1 3 2 5 2 2 0 4 1 4 2 0 2 1 2 1 1 1 0 3 0 4 1 1 1 8 3 14 6 36 12 120 53
169 82 42 25 48 25 81 4 6 -5 15 -10 20 -13 4 -2 14 -8 21 -12 31 -17 107 -54
139 -65 23 -9 39 -3 49 19 8 16 11 19 21 19 13 0 18 -7 16 -20 -2 -18 -1 -34
3 -41 9 -16 47 -23 67 -13 7 4 11 8 19 20 20 31 45 69 48 73 2 2 4 4 4 5 0 1
3 5 6 9 6 7 6 9 6 22 -1 10 -2 15 -5 20 -2 3 -8 12 -12 20 -7 13 -19 27 -23
27 -1 0 -2 1 -2 2 -1 2 -16 9 -25 12 -15 5 -32 13 -35 17 -2 3 -3 10 -3 22 -1
23 -1 27 -6 33 -3 6 -17 14 -30 18 -8 2 -35 14 -62 25 -21 10 -27 21 -15 34 3
4 6 8 8 10 2 2 6 8 10 13 4 5 12 15 17 23 5 8 10 14 11 15 2 1 16 23 24 35 3
6 12 20 19 32 7 12 20 35 28 51 17 35 18 41 10 68 -8 28 -4 38 22 51 12 6 25
17 29 26 4 7 13 34 20 56 6 21 2 41 -12 51 -3 2 -36 15 -74 27 -71 24 -82 27
-92 20 -9 -7 -14 -25 -10 -39 3 -10 0 -24 -7 -29 -14 -13 -38 -10 -49 6 -9 12
-14 15 -27 15 -16 1 -17 0 -17 -2 0 -2 -1 -4 -3 -6 -3 -3 -11 -26 -11 -30 0
-2 -3 -6 -6 -9 -5 -5 -8 -6 -16 -6 -9 0 -11 1 -16 7 -11 10 -8 32 5 38 3 1 8
5 13 9 4 4 9 7 10 7 2 0 2 1 1 1 -2 1 -3 6 -3 14 0 11 0 12 -7 17 -3 2 -9 5
-13 6 -4 1 -48 2 -107 2 -88 0 -103 0 -122 -4 -14 -2 -24 -3 -30 -2 -4 1 -18
3 -30 5 -15 2 -23 4 -26 7 -2 2 -5 4 -7 5 -2 0 -2 1 1 1 6 0 57 53 69 72 2 3
5 7 6 9 2 2 5 7 9 12 6 10 7 25 1 43 -7 24 -4 31 17 39 5 2 9 4 9 5 0 1 2 2 4
2 7 2 17 18 22 35 7 29 16 86 13 88 0 1 2 4 6 7 l6 6 34 0 34 1 6 -6 6 -6 0
-43 c1 -74 9 -123 28 -157 7 -11 30 -35 40 -40 10 -5 25 -9 39 -10 13 -1 20
-5 27 -14 22 -30 35 -34 98 -35 27 0 32 0 40 4 10 5 20 13 24 21 1 3 6 8 10
10 6 4 7 4 13 0 3 -2 9 -8 12 -14 11 -15 22 -20 43 -19 29 0 54 6 67 15 8 5
16 21 16 33 0 5 -1 17 -2 27 -1 10 -4 38 -6 62 -4 47 -7 59 -16 71 -12 15 -25
18 -59 15 -14 -1 -39 -2 -54 -2 -28 0 -29 0 -34 5 -3 3 -6 9 -7 15 -1 6 -2 69
-2 144 0 117 -1 136 -3 142 -4 9 -14 21 -18 21 -2 0 -3 1 -3 2 0 0 -2 1 -5 2
-12 2 -31 0 -31 -2 0 -1 -2 -2 -5 -3 -3 -1 -8 -6 -14 -13 -15 -23 -19 -26 -32
-26 -13 0 -17 3 -32 26 -6 7 -11 12 -14 13 -3 1 -5 2 -5 3 0 1 -1 1 -2 2 -2 0
-9 1 -17 2 -8 1 -15 2 -17 2 -1 1 -2 2 -1 4 1 3 0 4 -2 4 -2 0 0 1 4 2 4 1 10
2 13 3 9 2 12 3 17 4 2 1 5 2 7 2 2 0 5 1 8 2 3 1 7 2 9 2 2 1 6 2 9 2 3 1 7
2 9 2 4 2 5 2 13 4 3 1 7 2 9 2 2 1 6 2 8 2 2 1 5 2 7 2 2 0 5 1 8 2 2 1 6 1
9 2 2 1 6 2 8 2 1 1 5 1 7 2 2 1 6 1 8 2 10 2 13 3 18 4 3 1 6 2 8 2 2 1 6 2
9 2 21 4 35 12 41 24 6 13 6 22 -3 39 -13 26 -21 31 -52 30 -16 0 -18 1 -22 5
-7 7 -7 19 0 26 3 3 6 5 8 5 5 0 15 6 21 12 4 4 5 6 5 19 0 8 -1 18 -2 24 -3
18 3 25 20 25 13 0 18 -4 26 -20 4 -8 8 -15 9 -17 1 -1 2 -5 3 -8 2 -5 5 -11
16 -27 3 -5 9 -10 16 -13 l11 -5 42 1 c47 1 48 1 48 3 0 1 1 2 3 2 4 0 14 12
18 21 2 6 3 17 3 66 0 75 -1 77 -24 77 -9 0 -14 1 -15 3 0 1 -1 1 -1 -1 0 -2
-2 -9 -5 -14 -2 -6 -6 -15 -8 -21 -6 -15 -11 -18 -29 -16 -8 1 -18 2 -21 2 -3
0 -12 1 -19 2 -9 1 -14 3 -16 6 -5 5 -5 5 1 11 3 3 10 8 18 10 7 2 15 7 19 10
6 6 6 7 6 18 -1 14 -6 20 -20 25 -7 2 -20 3 -71 3 -34 0 -65 -1 -70 -2 -8 -2
-20 -10 -29 -19 -9 -10 -16 -13 -27 -13 -10 0 -19 4 -23 10 -4 4 -19 16 -26
20 -4 2 -18 3 -58 4 l-53 1 -6 5 c-2 3 -4 6 -3 6 1 1 5 11 10 23 10 24 10 37
2 49 -5 7 -18 14 -28 15 -4 1 -30 5 -58 10 -34 6 -52 8 -57 7 -11 -3 -20 -7
-28 -14 -13 -12 -17 -14 -28 -14 -13 0 -15 2 -29 22 -9 14 -13 18 -21 22 -12
7 -17 7 -30 2z m-254 -208 c7 -6 7 -19 1 -25 -6 -7 -19 -7 -25 -1 -7 6 -7 19
-1 25 6 7 19 7 25 1z m-245 -70 c5 -5 5 -15 0 -20 -9 -9 -24 -2 -24 10 0 8 6
14 14 14 3 0 8 -2 10 -4z m-379 -15 c3 -3 8 -10 10 -14 2 -4 5 -9 6 -11 6 -8
15 -27 15 -32 0 -12 -14 -18 -26 -10 -3 1 -11 8 -17 14 -7 6 -14 12 -17 13 -8
5 -12 13 -12 25 0 9 1 11 6 16 5 5 7 6 17 6 10 0 12 -1 18 -7z m264 -54 c6 -3
11 -6 11 -7 0 -1 1 -3 3 -4 2 -3 13 -19 28 -43 11 -17 10 -24 -7 -26 -5 -1
-26 -6 -46 -11 -20 -6 -39 -11 -40 -11 -20 -4 -115 -30 -120 -32 -4 -2 -10 -6
-13 -9 -9 -9 -12 -30 -5 -37 3 -4 3 -4 -2 -9 -4 -5 -5 -5 -32 -5 -26 -1 -28
-1 -34 4 -4 2 -9 5 -11 6 -3 0 -3 1 1 1 4 0 12 7 32 27 14 14 27 28 29 30 9
10 24 28 26 30 7 7 50 61 60 75 18 24 21 26 70 26 39 0 40 0 50 -5z m392 0 l7
-5 -12 -11 c-12 -12 -12 -12 -12 -24 -1 -21 1 -23 47 -43 18 -7 39 -17 47 -21
8 -3 21 -9 29 -13 26 -12 79 -39 80 -40 1 -1 4 -2 7 -2 3 0 4 -1 2 -1 -2 -1
-4 -2 -4 -4 0 -3 -5 -5 -14 -6 -18 -3 -25 -4 -26 -3 -1 0 -2 -1 -2 -2 0 -1 -1
-2 -3 -2 -4 0 -14 -12 -18 -21 -3 -7 -3 -18 -2 -78 0 -39 1 -72 1 -75 5 -15
22 -29 41 -35 18 -5 32 -12 35 -17 1 -2 2 -8 2 -14 0 -16 -7 -22 -26 -20 -5 0
-18 7 -20 10 -1 3 -28 2 -32 0 -4 -2 -10 -13 -15 -29 -9 -27 -34 -66 -49 -76
-2 -1 -4 -3 -4 -4 0 -3 -8 3 -14 10 -11 13 -17 19 -19 19 -2 0 -3 1 -3 2 0 2
-1 2 -53 4 -47 1 -49 1 -53 5 -4 4 -5 7 -4 17 0 15 -3 22 -18 38 -6 6 -7 8 -6
13 2 8 11 13 21 13 5 0 17 -2 27 -4 18 -4 21 -5 37 -2 29 4 45 13 54 31 l5 11
0 75 c0 64 0 76 -3 82 -4 9 -14 21 -18 21 -2 0 -3 1 -3 2 0 1 -1 2 -2 2 -2 0
-60 1 -130 2 l-127 1 -8 5 c-5 2 -9 5 -8 6 0 1 -8 16 -15 27 -3 6 -6 11 -6 13
0 4 9 10 21 15 16 6 66 23 72 25 14 4 112 38 119 42 14 6 24 20 24 35 0 4 -6
17 -9 19 0 1 2 4 5 7 7 5 7 5 28 5 18 -1 22 -2 27 -5z m439 -1 c11 -7 46 -68
69 -121 12 -26 21 -37 33 -37 l7 0 -7 -2 c-4 -1 -9 -2 -10 -3 -7 -6 -27 -7
-147 -7 -69 0 -125 1 -128 2 -14 4 -28 10 -24 10 2 0 3 2 3 7 0 3 1 7 1 9 0 2
-1 7 -2 11 -4 11 -4 18 1 23 5 5 10 5 23 1 18 -6 38 -1 47 12 3 3 13 18 23 31
11 14 20 26 21 27 1 2 3 5 4 8 2 3 3 5 4 5 1 0 4 5 7 10 10 16 20 20 47 20 18
-1 22 -2 28 -6z m-1183 -71 c5 -5 7 -20 3 -27 -2 -3 -24 -16 -28 -16 -4 0 -10
16 -10 27 0 15 5 21 20 21 8 0 11 -1 15 -5z m320 -112 c4 -4 5 -7 5 -13 0 -11
-7 -18 -18 -18 -11 0 -18 7 -18 18 0 11 7 18 18 18 6 0 9 -1 13 -5z m-80 -16
c4 -4 5 -7 5 -15 0 -14 -6 -20 -20 -20 -10 0 -11 1 -18 8 -8 8 -10 18 -5 23
10 10 30 12 38 4z m974 -44 c6 -4 6 -6 6 -20 0 -14 0 -16 -6 -20 -4 -4 -7 -5
-18 -5 -11 0 -14 1 -18 5 -6 4 -6 6 -6 20 0 14 0 16 6 20 4 4 7 5 18 5 11 0
14 -1 18 -5z m-904 -36 c3 -3 3 -3 0 -6 -3 -3 -3 -3 -6 0 -3 2 -3 3 -1 6 4 4
4 4 7 0z m986 -24 c3 -3 3 -3 0 -6 -3 -3 -3 -3 -6 0 -3 2 -3 3 -1 6 4 4 4 4 7
0z m-1237 -25 c3 -5 3 -6 -1 -12 -2 -4 -7 -10 -11 -14 -4 -4 -11 -12 -16 -18
-8 -9 -9 -10 -17 -10 -11 0 -17 4 -17 12 0 8 4 14 15 22 5 3 12 9 15 11 16 15
27 18 32 9z m-40 -67 c-1 -14 -3 -17 -10 -17 -4 1 -4 2 -4 14 0 6 0 12 0 13 0
1 3 1 8 1 l7 0 -1 -11z m370 -29 c5 -3 13 -10 10 -10 0 0 -2 -3 -4 -7 -1 -5
-5 -13 -7 -19 -3 -5 -5 -10 -5 -11 0 0 -2 -4 -3 -8 -2 -5 -4 -8 -4 -9 1 -1 -3
-3 -6 -6 -7 -5 -10 -5 -36 -6 -23 -1 -29 -2 -36 -6 -7 -3 -25 -21 -25 -24 0
-1 -3 -3 -6 -6 -10 -7 -24 -6 -32 1 -9 9 -9 20 0 38 9 19 9 33 1 50 -3 7 -7
12 -8 13 0 0 2 3 5 6 l7 6 73 0 c49 0 73 -1 76 -2z m202 -66 c5 -5 5 -11 0
-16 -10 -10 -27 5 -16 16 4 4 12 4 16 0z m-81 -7 c4 -4 5 -7 5 -15 0 -14 -6
-20 -20 -20 -14 0 -20 6 -20 20 0 14 6 20 20 20 8 0 11 -1 15 -5z m550 -6 c5
-8 1 -16 -8 -16 -9 0 -13 8 -8 16 2 3 5 5 8 5 3 0 6 -2 8 -5z m-418 -48 c7 -4
10 -11 10 -23 0 -19 -8 -27 -27 -27 -19 0 -27 8 -27 27 0 14 4 20 13 25 8 4
24 3 31 -2z m-471 -62 l-5 -5 -4 4 -5 5 4 4 5 5 4 -4 5 -5 -4 -4z m687 -2 c4
-4 5 -7 5 -13 0 -11 -7 -18 -18 -18 -11 0 -18 7 -18 18 0 11 7 18 18 18 6 0 9
-1 13 -5z m123 -2 c3 -3 4 -7 4 -14 0 -13 -6 -19 -19 -19 -13 0 -19 6 -19 19
0 7 1 11 4 14 7 8 23 8 30 0z m-551 -27 c5 -5 6 -7 6 -16 0 -9 -1 -11 -6 -16
-6 -6 -8 -7 -24 -6 -10 0 -19 6 -18 12 0 2 1 7 2 12 3 20 26 28 40 14z m-182
-18 c6 -2 13 -6 15 -9 9 -10 9 -33 0 -41 -5 -6 -18 -8 -28 -6 -15 3 -27 19
-29 41 -1 10 -1 12 3 16 5 5 6 5 17 4 7 0 17 -2 22 -5z m505 -2 c0 3 6 3 15
-1 5 -2 6 -4 7 -8 0 -3 1 -7 3 -8 1 -1 1 -1 -1 0 -2 0 -8 2 -12 3 -5 2 -10 4
-11 6 -2 2 -3 2 -3 0 0 -2 -1 -1 -3 1 -3 2 -3 3 -1 6 2 2 3 2 4 0 2 -1 2 -1 2
1z m85 -55 c8 -8 15 -15 17 -16 2 0 2 -1 0 -1 -2 0 -4 -1 -5 -3 0 -1 -6 -4
-11 -6 -24 -8 -31 -13 -39 -32 -3 -7 -7 -14 -9 -16 l-4 -5 -18 9 c-10 5 -22
13 -29 20 -15 15 -35 29 -40 29 -3 0 -1 2 4 5 7 5 10 6 32 7 25 1 41 6 41 11
0 2 1 3 2 3 1 0 2 1 1 2 -1 1 0 2 1 2 1 0 2 1 2 2 -1 7 0 18 3 18 2 0 3 1 3 2
0 1 3 2 7 2 7 1 11 -2 42 -33z m-471 27 c4 -3 9 -6 11 -8 1 -2 3 -3 4 -3 0 1
1 0 1 -2 0 -3 2 -7 4 -10 2 -3 4 -5 3 -5 -1 0 1 -2 4 -4 5 -3 15 -3 77 -4 l71
-1 7 -5 c3 -4 5 -6 4 -6 -1 0 -11 -12 -23 -26 -12 -15 -25 -29 -28 -33 -26
-28 -30 -31 -40 -31 -4 0 -12 6 -32 27 -52 52 -53 53 -96 65 -13 3 -16 8 -16
25 0 14 0 16 6 20 7 7 31 7 43 1z m238 -151 c19 -8 20 -38 3 -56 -9 -9 -14
-16 -22 -31 -11 -21 -17 -22 -61 -9 -30 9 -34 12 -34 28 0 15 7 23 21 23 5 0
11 1 14 2 3 1 8 2 12 3 7 1 19 12 25 24 4 9 8 13 16 16 6 3 19 2 26 0z m931
-20 c4 -4 5 -7 5 -15 0 -14 -6 -20 -20 -20 -14 0 -20 6 -20 20 0 14 6 20 20
20 8 0 11 -1 15 -5z m-379 -11 c5 -5 5 -11 0 -16 -10 -10 -27 5 -16 16 4 4 12
4 16 0z m-231 -43 c3 -5 3 -5 0 -10 -2 -3 -5 -5 -7 -5 -2 0 -5 2 -7 5 -3 5 -3
5 0 10 2 3 5 5 7 5 2 0 5 -2 7 -5z m150 -38 c4 -4 5 -7 5 -15 0 -14 -6 -20
-20 -20 -14 0 -20 6 -20 20 0 14 6 20 20 20 8 0 11 -1 15 -5z m129 -8 c3 -2 9
-8 13 -12 10 -12 20 -17 40 -19 16 -1 33 -8 33 -13 0 -1 2 -6 5 -12 6 -12 7
-27 2 -36 -5 -11 -17 -14 -44 -10 -7 1 -18 1 -29 -1 -17 -2 -18 -2 -24 2 -16
10 -25 12 -59 12 -14 0 -18 15 -12 36 4 10 5 12 20 23 8 6 18 15 21 19 13 14
23 17 34 11z m-928 -20 c3 -3 4 -7 4 -14 0 -13 -6 -19 -19 -19 -13 0 -19 6
-19 19 0 7 1 11 4 14 7 8 23 8 30 0z m313 -96 c13 -8 34 -15 45 -15 19 0 17
-34 -1 -39 -8 -3 -15 -1 -27 8 -3 2 -8 4 -10 4 -16 4 -22 5 -32 5 -9 0 -11 1
-16 6 -5 5 -6 7 -6 17 0 10 1 12 6 17 5 5 7 6 16 6 9 0 13 -1 25 -9z m-116 -8
c4 -4 5 -7 5 -15 0 -15 -3 -18 -30 -22 -24 -4 -27 -5 -53 -22 -16 -11 -17 -12
-29 -12 -10 0 -13 1 -17 5 -6 4 -6 6 -6 20 0 24 3 25 50 28 12 1 16 2 35 12
25 13 37 15 45 6z m-499 -5 c5 -6 5 -12 0 -18 -7 -8 -22 -2 -22 9 0 11 15 17
22 9z m1471 -21 c3 -3 3 -3 0 -6 -3 -3 -3 -3 -6 0 -3 2 -3 3 -1 6 4 4 4 4 7 0z
m-1503 -49 c11 -13 -8 -31 -20 -20 -3 2 -5 4 -6 4 -2 0 3 11 8 16 4 5 14 5 18
0z m250 -67 c3 -3 4 -7 4 -14 0 -13 -5 -18 -20 -20 -10 -1 -12 0 -16 4 -5 5
-5 9 -2 20 4 14 8 17 22 15 5 0 9 -2 12 -5z m-57 -51 c2 -2 4 -5 4 -7 0 -1 -1
-6 -2 -12 -2 -12 -6 -17 -15 -19 -22 -4 -35 11 -27 31 3 7 5 9 14 11 12 2 20
1 26 -4z m1078 -7 c3 -3 3 -3 0 -6 -3 -3 -3 -3 -6 0 -3 2 -3 3 -1 6 4 4 4 4 7
0z m-774 -6 c3 -3 3 -3 0 -6 -3 -3 -3 -3 -6 0 -3 2 -3 3 -1 6 4 4 4 4 7 0z
m-108 -30 c3 -8 -6 -23 -18 -31 -10 -6 -28 -7 -34 -2 -3 3 -2 4 8 11 5 4 16
11 23 16 13 9 19 11 21 6z m824 -22 c5 -5 5 -6 5 -18 -2 -24 -14 -34 -37 -33
-21 1 -20 39 2 51 11 7 24 7 30 0z m-322 -76 c5 -8 1 -16 -8 -16 -9 0 -13 8
-8 16 2 3 5 5 8 5 3 0 6 -2 8 -5z m91 -14 c3 -2 7 -6 9 -9 7 -8 15 -16 26 -22
14 -9 18 -14 18 -26 0 -16 -8 -22 -26 -22 -9 0 -15 5 -23 17 -6 11 -14 19 -22
26 -18 14 -15 39 4 39 5 0 11 -2 14 -3z m-472 -5 c5 -6 5 -12 0 -18 -7 -8 -22
-2 -22 9 0 11 15 17 22 9z m-445 -3 c5 -8 1 -16 -8 -16 -9 0 -13 8 -8 16 2 3
5 5 8 5 3 0 6 -2 8 -5z m352 -9 c4 -6 4 -24 -1 -30 -7 -9 -27 -9 -34 0 -5 6
-5 24 0 30 7 9 27 9 35 0z"/>
<path d="M1896 2144 c-3 -1 -8 -3 -12 -5 -6 -4 -6 -4 -6 -16 1 -10 1 -13 6
-17 12 -11 41 -24 53 -23 3 0 8 1 11 1 3 0 8 2 12 5 6 5 6 6 6 19 0 21 -7 27
-41 34 -20 4 -21 4 -29 2z"/>
</g>
</svg>
