<?xml version="1.0" standalone="no"?>
<!DOCTYPE svg PUBLIC "-//W3C//DTD SVG 20010904//EN"
 "http://www.w3.org/TR/2001/REC-SVG-20010904/DTD/svg10.dtd">
<svg version="1.0" xmlns="http://www.w3.org/2000/svg"
 width="1100.000000pt" height="2850.000000pt" viewBox="0 0 1100.000000 2850.000000"
 preserveAspectRatio="xMidYMid meet">
<metadata>
Created by potrace 1.15, written by Peter Selinger 2001-2017
</metadata>
<g transform="translate(0.000000,2850.000000) scale(0.500000,-0.500000)"
fill="#000000" stroke="none">
<path d="M441 3802 c-15 -7 -38 -16 -50 -21 -12 -5 -25 -11 -30 -13 -4 -2 -18
-8 -30 -13 -45 -18 -49 -21 -51 -42 -1 -11 -1 -12 8 -26 13 -19 28 -30 57 -42
21 -8 24 -14 24 -55 0 -35 0 -36 13 -58 11 -19 41 -31 97 -39 15 -2 21 -9 21
-24 0 -13 -5 -20 -17 -23 -17 -4 -27 -10 -30 -18 -9 -23 6 -44 33 -47 16 -2
71 22 87 38 16 16 18 17 41 18 21 1 45 8 48 14 1 2 2 9 2 17 -1 14 -1 15 -8
19 -4 3 -7 5 -8 4 0 0 -2 1 -4 4 -5 6 -5 17 2 33 8 20 7 29 -9 57 -7 13 -16
28 -19 33 -18 33 -23 42 -27 48 -2 4 -7 12 -10 17 -11 19 -17 30 -20 34 -3 5
-11 19 -14 23 -1 2 -5 9 -10 16 -24 42 -30 49 -45 55 -13 5 -21 4 -51 -9z"/>
<path d="M135 3680 c-35 -15 -71 -29 -79 -32 -31 -11 -39 -19 -41 -39 -1 -9
-1 -11 5 -20 8 -11 24 -39 45 -77 8 -14 17 -29 20 -35 3 -5 8 -15 12 -22 3 -7
8 -14 10 -17 3 -3 7 -11 10 -18 10 -23 61 -122 68 -132 7 -9 16 -14 28 -15 10
-1 22 3 52 16 6 3 40 17 84 35 30 12 31 13 46 20 16 8 22 15 24 30 1 9 1 11
-12 35 -17 33 -24 43 -40 54 -15 12 -18 17 -20 31 -3 24 -7 37 -19 58 -7 11
-14 23 -16 27 -22 40 -63 105 -72 114 -5 7 -21 13 -32 13 -7 0 -25 -7 -73 -26z
m28 -95 c12 -7 14 -33 3 -43 -8 -9 -32 -9 -40 0 -9 8 -9 32 0 41 7 7 27 8 37
2z m26 -102 c14 -9 13 -40 -1 -47 -7 -4 -22 -3 -31 1 -20 8 -16 44 5 49 9 2
22 1 27 -3z m74 -68 c3 -5 3 -5 0 -10 -2 -3 -5 -5 -7 -5 -2 0 -5 2 -7 5 -3 5
-3 5 0 10 2 3 5 5 7 5 2 0 5 -2 7 -5z"/>
</g>
</svg>
