<?xml version="1.0" standalone="no"?>
<!DOCTYPE svg PUBLIC "-//W3C//DTD SVG 20010904//EN"
 "http://www.w3.org/TR/2001/REC-SVG-20010904/DTD/svg10.dtd">
<svg version="1.0" xmlns="http://www.w3.org/2000/svg"
 width="1100.000000pt" height="2850.000000pt" viewBox="0 0 1100.000000 2850.000000"
 preserveAspectRatio="xMidYMid meet">
<metadata>
Created by potrace 1.15, written by Peter Selinger 2001-2017
</metadata>
<g transform="translate(0.000000,2850.000000) scale(0.500000,-0.500000)"
fill="#000000" stroke="none">
<path d="M1208 3809 c-5 -3 -10 -6 -10 -7 0 -1 -1 -2 -2 -1 -4 3 -12 -22 -21
-63 -5 -24 -10 -49 -12 -56 -10 -43 -9 -40 -6 -53 2 -6 6 -17 10 -23 10 -19 7
-49 -6 -52 -7 -1 -14 4 -20 16 -4 9 -21 30 -24 30 -1 0 -4 2 -9 5 -10 7 -40
14 -53 12 -5 -1 -11 -1 -12 -1 -2 -1 -3 -1 -3 -2 0 -1 -1 -2 -3 -2 -4 0 -14
-12 -18 -20 -2 -5 -3 -15 -3 -26 0 -11 -2 -21 -3 -24 -2 -6 -9 -13 -9 -10 0 2
-16 23 -25 33 -3 4 -13 16 -24 30 -6 7 -14 17 -18 22 -5 6 -17 19 -26 31 -10
12 -18 21 -19 22 -1 1 -4 5 -8 9 -9 13 -17 17 -31 17 -14 0 -20 -3 -47 -26 -6
-5 -7 -5 -17 -13 -4 -3 -8 -6 -9 -7 -1 -1 -6 -5 -13 -10 -15 -11 -21 -16 -27
-22 l-6 -5 -5 8 c-5 8 -5 8 -5 44 0 29 -1 38 -3 44 -4 9 -14 21 -18 21 -2 0
-3 1 -3 2 0 2 -1 2 -44 3 -40 1 -40 1 -61 -5 -27 -7 -27 -7 -54 0 -20 6 -23 6
-46 6 -21 -1 -26 -2 -30 -5 -7 -5 -13 -13 -14 -18 0 -2 -2 -7 -3 -10 -2 -3 -3
-6 -3 -7 -1 -4 -6 -10 -9 -10 -3 0 -8 6 -9 10 0 1 -1 4 -3 7 -1 3 -3 8 -3 10
-1 5 -7 13 -14 18 -5 4 -8 4 -83 4 l-77 0 -11 -6 c-6 -3 -13 -9 -15 -12 -7 -8
-16 -13 -22 -13 -6 0 -15 5 -22 13 -11 14 -33 21 -56 18 -16 -2 -22 -8 -24
-24 -1 -7 -2 -13 -2 -13 -1 -1 0 -2 1 -2 6 0 2 -24 -5 -24 -6 0 -21 -15 -26
-25 -5 -11 -5 -13 -5 -30 1 -12 2 -21 5 -26 4 -8 20 -24 25 -26 13 -4 13 -44
0 -48 -2 0 -7 -5 -12 -9 l-9 -9 1 -13 c0 -13 4 -20 12 -20 1 0 2 -1 2 -2 0 -2
2 -2 73 -3 l68 -1 6 -6 c4 -3 6 -6 5 -6 -1 -1 -2 -4 -3 -8 -1 -10 -12 -64 -18
-89 -3 -12 -5 -24 -6 -27 -2 -11 -20 -83 -32 -125 -35 -122 -91 -257 -136
-329 -15 -23 -17 -36 -6 -69 6 -19 10 -35 12 -42 0 -1 3 -12 7 -25 7 -27 8
-29 9 -36 1 -3 3 -12 5 -21 3 -9 5 -17 5 -19 0 -2 4 -18 8 -37 4 -19 9 -45 11
-59 7 -43 9 -46 32 -46 l13 0 6 9 c3 4 7 8 7 9 1 1 3 3 3 5 2 5 2 5 7 -2 3 -5
5 -11 6 -23 1 -8 2 -17 4 -20 2 -5 12 -15 16 -15 0 0 4 -1 7 -3 6 -2 12 -4 20
-4 6 0 13 -9 13 -18 0 -9 -7 -18 -13 -18 -8 0 -14 -2 -20 -4 -3 -2 -7 -3 -8
-3 -4 0 -15 -12 -17 -19 -3 -10 -3 -65 1 -74 4 -13 22 -22 45 -22 15 0 22 -7
22 -23 0 -10 -1 -12 -8 -19 -4 -5 -8 -9 -8 -10 0 -2 -8 0 -12 3 -2 2 -5 2 -13
0 -5 -1 -11 -3 -13 -3 -4 -2 -11 -9 -13 -16 -4 -10 -4 -103 -1 -115 3 -9 14
-20 22 -22 3 -1 6 -2 7 -3 1 -1 5 -3 9 -4 10 -3 14 -9 14 -18 0 -9 -4 -15 -14
-18 -4 -1 -8 -3 -9 -4 -1 -1 -4 -2 -7 -3 -13 -3 -24 -20 -24 -36 0 -13 14 -35
21 -35 2 0 3 -1 3 -2 0 -3 12 -3 95 -3 83 0 95 0 95 3 0 1 1 2 3 2 3 0 14 12
17 19 5 14 4 24 -7 48 -3 6 -8 12 -20 25 -18 20 -17 36 3 42 5 2 41 3 113 3
93 1 107 2 114 4 8 4 13 11 14 24 0 5 1 10 2 11 1 1 0 2 -1 2 -3 0 -6 18 -4
27 2 8 9 17 12 17 4 0 28 12 33 17 3 3 7 9 9 14 4 9 4 13 4 139 l-1 130 -6 8
c-6 9 -26 22 -33 22 -15 0 -15 34 0 34 7 0 27 14 33 22 l6 8 1 124 c0 92 0
125 -2 132 -4 12 -14 22 -29 28 -23 9 -28 21 -15 42 6 10 10 28 7 34 0 2 -1 4
-1 5 0 1 -1 2 -2 3 -8 5 -13 31 -8 40 1 2 10 7 19 12 23 12 31 23 31 42 0 14
-13 36 -21 36 -2 0 -3 1 -3 2 0 2 -2 2 -90 3 -96 1 -96 1 -114 -14 -20 -16
-22 -17 -34 -17 -15 0 -22 7 -22 22 0 12 4 19 16 31 16 15 21 29 25 60 2 18 7
37 17 66 6 16 10 30 11 32 1 5 8 36 12 51 9 34 21 98 21 105 -1 5 0 7 1 7 2 0
3 1 3 2 0 1 3 4 7 5 6 2 22 3 89 3 78 0 82 0 92 4 16 6 26 14 31 24 7 14 12
20 14 20 2 0 4 1 6 3 2 2 3 2 3 1 0 -1 7 -12 16 -23 8 -12 21 -30 29 -40 8
-11 18 -25 23 -32 5 -6 13 -18 18 -25 5 -7 9 -13 10 -14 1 -1 11 -16 23 -34
12 -18 23 -35 25 -38 2 -3 4 -7 4 -8 0 -2 10 -11 15 -13 11 -6 28 -3 38 5 34
29 61 51 64 53 1 1 3 3 3 5 0 3 15 -16 17 -22 2 -6 15 -19 21 -21 2 -1 6 -4 8
-8 l4 -7 -4 -7 c-2 -4 -6 -7 -8 -8 -7 -2 -18 -14 -22 -23 -3 -8 -4 -14 -4 -50
0 -50 0 -50 2 -49 0 0 3 -7 6 -15 l4 -16 -4 -5 -5 -5 -4 4 c-4 4 -9 21 -7 27
0 1 -1 1 -2 0 -1 -1 -2 1 -2 4 0 28 -48 48 -85 35 -11 -4 -14 -6 -38 -33 -8
-9 -17 -19 -20 -22 -3 -3 -9 -10 -13 -16 -5 -6 -9 -11 -10 -11 -1 0 -2 -2 -2
-3 0 -2 -3 -11 -6 -20 -3 -10 -5 -17 -4 -17 1 0 2 1 2 2 0 1 1 2 2 2 1 0 2 -1
1 -2 -1 -2 -1 -2 1 -1 1 1 2 2 1 3 -2 3 11 7 34 10 13 2 14 2 17 -3 4 -4 4
-11 0 -22 -4 -10 -16 -27 -21 -30 -6 -4 -19 -4 -25 -1 -4 2 -16 26 -16 32 0 4
-1 4 -7 3 -17 -2 -28 -5 -29 -7 -1 -2 -43 -47 -58 -62 -31 -31 -39 -58 -26
-88 4 -8 7 -11 13 -13 9 -5 28 -5 37 0 15 8 32 3 50 -15 19 -18 19 -29 2 -47
l-12 -13 0 -14 c0 -12 0 -14 8 -22 9 -11 17 -14 29 -14 12 1 19 4 29 16 4 5
11 13 16 18 5 5 14 15 20 22 6 7 13 14 15 17 6 6 32 36 48 55 8 9 16 19 18 21
13 13 24 30 30 41 3 7 7 17 9 21 5 12 12 16 26 16 19 0 27 -8 27 -27 0 -12 -1
-14 -11 -27 -6 -7 -8 -37 -3 -42 7 -7 1 -22 -11 -28 -7 -4 -17 -14 -21 -21 -5
-10 -7 -43 -2 -54 4 -10 14 -22 18 -22 2 0 3 -1 3 -2 0 -1 1 -2 3 -2 4 -1 64
-2 118 -3 50 0 52 0 58 -4 4 -3 8 -5 10 -5 4 0 4 -1 1 -1 -3 -1 -5 -6 -8 -14
-4 -14 -8 -19 -13 -19 -5 0 -25 -8 -25 -10 0 -1 -2 -2 -4 -2 -2 0 -8 -2 -14
-5 l-10 -5 -99 0 -100 0 -10 -5 c-6 -2 -12 -7 -14 -10 -2 -3 -5 -7 -6 -9 -2
-1 -3 -3 -3 -5 0 -5 -12 -15 -18 -15 -6 0 -18 10 -18 15 0 2 -1 4 -3 5 -1 2
-4 6 -7 9 -2 4 -8 8 -14 11 -10 4 -12 4 -56 3 -48 -1 -50 -1 -50 -3 0 -1 -1
-2 -3 -2 -4 0 -14 -12 -18 -21 -5 -11 -5 -187 0 -198 4 -9 14 -21 18 -21 2 0
3 -1 3 -2 0 -2 1 -2 42 -3 35 -1 38 -1 47 3 5 2 10 6 12 9 4 7 9 25 9 36 0 8
1 10 6 15 3 3 7 6 9 6 14 1 21 0 32 -6 13 -6 19 -13 22 -26 0 -4 3 -12 6 -17
7 -14 15 -19 34 -21 11 -1 17 -3 20 -6 2 -2 5 -4 7 -5 3 -1 3 -1 0 -1 -6 0
-13 -11 -22 -37 -8 -22 -7 -21 -36 -31 -18 -6 -25 -10 -45 -28 -4 -4 -12 -10
-16 -13 -4 -3 -9 -7 -10 -8 -1 -1 -13 -10 -26 -20 -13 -9 -25 -18 -27 -20 -2
-1 -13 -9 -24 -16 -26 -17 -31 -20 -54 -34 -2 -1 -12 -6 -22 -12 -17 -8 -25
-14 -39 -25 -5 -4 -11 -17 -11 -23 0 -12 6 -23 23 -40 14 -15 29 -31 51 -56
13 -14 40 -49 49 -63 18 -25 28 -32 44 -31 12 1 29 11 33 20 3 7 4 26 1 43 -1
11 -1 12 4 17 7 7 16 7 31 -1 10 -5 16 -7 25 -7 14 0 16 1 38 22 4 4 11 10 14
12 4 4 6 8 6 12 2 17 15 30 33 32 7 1 10 4 29 24 11 12 28 31 38 43 10 12 18
21 19 22 1 1 7 9 15 18 7 9 15 19 16 21 9 10 16 34 21 68 3 20 1 31 -12 48
-11 15 -12 36 -2 45 8 9 32 9 41 0 2 -2 5 -9 6 -16 3 -13 9 -26 19 -44 7 -12
7 -17 2 -33 -8 -26 -16 -42 -25 -50 -11 -11 -18 -20 -21 -30 -1 -6 -2 -50 -2
-159 0 -134 0 -152 3 -159 4 -9 14 -21 18 -21 2 0 3 -1 3 -2 0 -3 12 -3 120
-3 108 0 120 0 120 3 0 1 1 2 3 2 4 0 14 12 18 21 3 8 3 21 2 130 0 67 -1 128
-1 136 -1 26 2 86 4 92 2 7 10 17 10 13 0 -3 35 -47 60 -75 3 -3 10 -11 15
-17 29 -32 60 -61 73 -68 18 -8 22 -13 32 -30 5 -10 11 -16 35 -35 11 -9 21
-17 22 -18 1 -1 5 -4 8 -6 3 -2 8 -6 11 -8 3 -2 8 -6 12 -8 3 -2 6 -4 6 -5 0
-3 17 -10 26 -11 13 -2 39 2 51 8 12 6 19 15 23 31 5 19 5 20 28 30 20 10 22
11 44 34 13 14 24 26 25 28 1 2 5 6 10 11 9 7 9 8 10 19 0 12 -1 17 -3 15 -1
-1 -2 0 -3 1 -1 1 -2 2 -3 1 -1 0 -5 -1 -9 -1 -4 -1 -13 -3 -19 -6 -16 -8 -24
-9 -31 -1 -4 3 -5 7 -5 20 -2 25 -9 37 -27 48 -21 12 -28 17 -51 33 -14 9 -27
18 -30 20 -13 10 -60 47 -67 54 -26 22 -40 35 -58 53 -11 11 -21 20 -23 21 -3
2 -2 2 1 2 1 0 3 1 3 3 0 1 2 3 4 4 1 1 54 3 117 3 118 2 119 2 119 4 0 1 1 2
3 2 4 0 14 12 18 21 5 11 5 187 0 198 -4 9 -14 21 -18 21 -2 0 -3 1 -3 2 0 3
-14 3 -162 3 -199 -1 -198 -1 -223 0 -21 0 -22 0 -27 6 -2 3 -6 5 -7 5 -2 0
-3 1 -2 2 1 1 -1 4 -4 7 -6 7 -32 11 -34 5 -1 -2 -5 -5 -9 -6 -19 -7 -35 -2
-41 14 -13 31 -15 34 -28 38 -6 2 -16 4 -22 4 -7 0 -14 2 -22 6 -7 3 -10 6 -8
6 2 0 3 1 2 1 0 1 0 4 2 7 2 3 3 9 4 14 2 19 12 28 30 27 17 -1 23 -6 28 -24
3 -12 10 -24 15 -29 5 -3 20 -8 31 -9 6 -1 13 -2 16 -3 13 -4 18 -5 33 -5 9 0
17 1 18 2 2 2 10 4 19 5 14 3 17 2 38 -2 17 -3 26 -4 33 -3 5 1 10 2 11 1 0 0
1 1 1 2 0 1 1 2 3 2 4 0 14 12 18 21 3 6 3 19 3 84 0 92 0 90 -21 115 -14 16
-16 37 -5 49 9 10 31 11 43 1 5 -5 7 -11 8 -27 1 -26 7 -37 27 -48 5 -3 11 -7
12 -9 11 -17 29 -27 48 -26 12 0 15 -6 13 -24 -4 -51 -4 -54 14 -81 6 -10 11
-17 11 -18 0 -3 13 -20 17 -22 3 -2 10 -4 17 -4 12 -1 16 1 29 13 4 4 11 10
14 13 36 32 79 74 87 85 3 3 10 9 15 13 14 9 17 14 18 29 2 13 -1 20 -12 31
-3 4 -9 12 -13 19 -6 9 -19 28 -26 37 -1 1 -7 8 -13 15 -30 38 -37 46 -51 63
-5 6 -13 15 -18 21 -10 12 -21 25 -32 37 -4 4 -9 10 -11 12 -53 59 -55 61 -77
59 -9 -1 -24 -11 -37 -25 -11 -11 -14 -28 -8 -49 7 -26 -6 -43 -31 -41 -12 1
-30 -2 -37 -6 -2 -1 -9 -5 -14 -9 -17 -11 -39 -9 -46 5 -4 7 -5 24 -1 31 6 10
7 32 4 48 -2 11 -2 12 1 15 8 8 21 3 21 -8 0 -5 1 -12 5 -24 3 -12 6 -14 24
-13 9 1 12 2 15 7 9 11 10 16 10 85 l0 65 6 7 c4 6 5 7 7 5 4 -6 23 -6 39 -1
7 2 16 4 18 4 6 0 12 -7 12 -15 0 -9 8 -32 11 -33 7 -1 25 -1 28 1 3 1 11 9
17 18 7 9 14 17 15 19 7 8 54 72 60 82 4 6 8 11 9 12 0 1 5 6 9 13 4 7 8 12 9
13 2 2 54 81 73 111 4 7 8 12 9 13 3 2 4 15 3 24 -1 5 -5 13 -8 18 -4 5 -9 13
-12 17 -9 13 -28 30 -42 37 -15 8 -25 8 -45 1 -7 -3 -14 -5 -16 -5 -4 1 -10 8
-9 11 0 1 -1 7 -2 13 -2 6 -4 12 -4 14 -5 22 -35 35 -55 24 -9 -5 -12 -10 -28
-41 -14 -27 -41 -78 -46 -85 -2 -3 -5 -9 -8 -14 -2 -5 -8 -15 -13 -22 -19 -29
-24 -37 -25 -42 -1 -3 -2 -4 -2 -1 0 1 -1 3 -2 3 0 0 -3 2 -4 6 -3 4 -4 12 -4
40 0 25 -1 36 -3 42 -4 8 -14 20 -18 20 -2 0 -3 1 -3 2 0 2 -1 2 -81 4 l-76 1
-6 6 c-3 3 -4 5 -3 5 0 0 2 3 4 8 1 4 4 11 6 16 3 4 12 28 22 53 20 50 20 55
10 70 -8 13 -16 16 -59 20 -5 0 -19 2 -29 3 -10 1 -23 3 -29 3 -5 1 -18 2 -27
3 -35 4 -73 8 -76 8 -2 -1 -8 -3 -14 -5z m-731 -166 c7 -9 0 -23 -11 -23 -12
0 -18 15 -10 25 4 4 5 4 12 3 4 -1 8 -3 9 -5z m-164 -4 c12 -7 14 -33 3 -43
-8 -9 -32 -9 -40 0 -9 8 -9 32 0 41 7 7 27 8 37 2z m290 -81 c4 -6 4 -24 -1
-30 -7 -9 -27 -9 -34 0 -5 6 -5 24 0 30 7 9 27 9 35 0z m279 -20 c5 -5 5 -15
0 -20 -9 -9 -24 -2 -24 10 0 8 6 14 14 14 3 0 8 -2 10 -4z m-420 -54 c1 0 2
-1 2 -3 0 -2 -1 -3 -2 -3 -1 0 -3 -1 -5 -3 -2 -3 -3 -2 -8 1 l-5 4 4 5 c4 5 5
5 8 2 2 -2 4 -3 6 -3z m1020 -19 c2 -2 4 -6 4 -9 1 -6 -2 -22 -4 -25 -1 -1 -3
-6 -4 -10 -4 -14 -12 -31 -16 -33 -2 -1 -8 -2 -13 -2 -18 0 -24 14 -15 38 5
16 17 41 20 43 7 6 22 5 28 -2z m136 -19 l4 -6 -5 -4 c-4 -4 -5 -4 -7 -1 -1 2
-4 3 -6 3 -3 0 -4 1 -4 7 0 3 1 5 2 4 1 -2 2 -2 5 0 5 4 6 4 11 -3z m-681 -53
c12 -12 3 -31 -13 -31 -11 0 -18 7 -18 18 0 11 7 18 18 18 6 0 9 -1 13 -5z
m396 -8 l6 -6 -1 -33 c0 -37 0 -40 13 -65 11 -21 12 -31 3 -49 -7 -12 -7 -14
-7 -35 0 -26 -2 -31 -15 -31 -12 0 -17 7 -15 19 3 17 2 45 -1 52 -2 3 -4 9 -5
13 -4 24 -21 44 -38 44 -2 0 -6 2 -9 6 -5 5 -5 6 -6 42 l-1 37 6 6 6 6 29 0
29 0 6 -6z m-170 -8 c5 -5 6 -6 4 -25 0 -11 0 -21 1 -22 1 -2 2 -2 2 -2 0 1 2
-1 6 -4 3 -3 8 -7 13 -10 10 -6 13 -11 13 -23 0 -17 -10 -24 -28 -21 -13 3
-15 8 -13 32 1 21 1 22 -4 26 -3 2 -5 4 -5 3 0 -1 -12 9 -19 16 -7 7 -7 23 0
30 7 7 23 7 30 0z m169 -300 c3 -3 7 -11 9 -16 3 -11 6 -15 19 -33 5 -7 6 -11
6 -17 0 -21 -6 -23 -58 -25 l-39 -1 -6 6 -6 6 0 37 0 37 6 6 6 6 29 0 29 0 5
-6z m-1102 -5 c5 -6 5 -12 0 -18 -7 -8 -22 -2 -22 9 0 11 15 17 22 9z m283
-49 c5 -8 1 -16 -8 -16 -9 0 -13 8 -8 16 2 3 5 5 8 5 3 0 6 -2 8 -5z m390 -53
c16 -7 16 -43 -1 -50 -15 -6 -34 -2 -39 9 -4 8 -4 24 0 32 5 12 23 15 40 9z
m980 -24 c7 -6 7 -22 1 -28 -6 -6 -21 -6 -27 1 -7 7 -7 19 0 26 6 7 20 7 26 1z
m-1592 -8 c3 -3 8 -8 10 -11 2 -3 5 -7 8 -10 18 -21 20 -26 13 -35 -6 -7 -15
-5 -26 6 -5 6 -14 16 -20 22 -10 10 -12 13 -12 19 0 15 16 20 27 9z m202 -13
c6 -4 6 -6 6 -20 0 -14 0 -16 -6 -20 -4 -4 -7 -5 -18 -5 -11 0 -14 1 -18 5 -6
4 -6 6 -6 20 0 14 0 16 6 20 4 4 7 5 18 5 11 0 14 -1 18 -5z m922 -30 c4 -4 5
-7 5 -15 0 -14 -6 -20 -20 -20 -14 0 -20 6 -20 20 0 14 6 20 20 20 8 0 11 -1
15 -5z m-234 -29 c11 -10 3 -28 -11 -28 -9 0 -16 6 -16 16 0 14 17 22 27 12z
m-746 -43 l6 -6 0 -70 c0 -67 0 -70 4 -78 9 -18 24 -21 45 -11 12 6 19 7 35 6
2 -1 9 0 15 1 10 1 13 2 32 17 5 3 25 4 32 0 7 -4 11 -11 11 -24 0 -19 -8 -27
-27 -27 -10 0 -13 1 -22 7 -8 5 -12 6 -23 7 -7 0 -14 -1 -15 -2 0 -1 -3 -3 -4
-4 -2 0 -4 -3 -5 -6 -1 -3 -2 -5 -3 -5 -1 0 -2 -1 -2 -2 0 -2 -12 -22 -17 -30
-3 -4 -10 -7 -18 -9 -8 -2 -26 -12 -30 -18 -9 -11 -9 -18 -9 -87 l1 -65 -6 -6
c-5 -4 -8 -6 -13 -6 -5 0 -8 2 -13 6 l-6 6 1 53 c0 57 0 58 -12 81 -8 17 -9
21 -4 32 5 13 6 31 0 38 -2 2 -8 6 -14 8 -10 4 -10 4 -15 5 -2 0 -6 3 -9 6 -5
5 -6 7 -6 18 0 11 1 13 6 18 3 3 7 6 8 6 10 1 30 10 37 17 8 9 9 18 9 70 l-1
48 6 6 c8 8 17 8 26 0z m-194 -47 c10 -9 3 -26 -10 -26 -8 0 -15 7 -15 15 0
13 16 20 25 11z m1366 -131 c12 -7 14 -33 3 -43 -8 -9 -32 -9 -40 0 -9 8 -9
32 0 41 7 7 27 8 37 2z m-1392 -19 c10 -10 4 -24 -11 -27 -10 -2 -16 5 -15 15
3 15 16 21 26 12z m876 -5 c3 -3 3 -3 0 -6 -4 -5 -11 1 -7 6 4 4 4 4 7 0z
m-228 -14 c12 -7 14 -33 3 -43 -8 -9 -32 -9 -40 0 -9 8 -9 32 0 41 7 7 27 8
37 2z m486 -18 c12 -12 3 -31 -13 -31 -11 0 -18 7 -18 18 0 11 7 18 18 18 6 0
9 -1 13 -5z m444 -14 c3 -5 3 -5 0 -10 -2 -3 -5 -5 -7 -5 -2 0 -5 2 -7 5 -3 5
-3 5 0 10 2 3 5 5 7 5 2 0 5 -2 7 -5z m-354 -34 c4 -4 5 -7 5 -15 0 -14 -6
-20 -20 -20 -14 0 -20 6 -20 20 0 14 6 20 20 20 8 0 11 -1 15 -5z m-184 -35
c7 -7 8 -18 3 -22 -10 -9 -28 -2 -28 11 0 13 17 20 25 11z m-150 -22 c11 -10
3 -28 -11 -28 -9 0 -16 6 -16 16 0 14 17 22 27 12z m-532 -11 c3 -5 3 -5 0
-10 -2 -3 -5 -5 -7 -5 -2 0 -5 2 -7 5 -3 5 -3 5 0 10 2 3 5 5 7 5 2 0 5 -2 7
-5z m726 -18 c4 -4 3 -11 -5 -41 -7 -25 -10 -28 -24 -28 -14 0 -20 6 -20 19 0
11 3 16 16 28 4 5 9 11 10 15 3 9 17 13 23 7z m152 -9 c4 -6 4 -24 -1 -30 -7
-9 -27 -9 -34 0 -5 6 -5 24 0 30 7 9 27 9 35 0z m96 -2 c10 -9 3 -26 -10 -26
-8 0 -15 7 -15 15 0 13 16 20 25 11z m-1214 -54 c5 -5 6 -7 6 -16 0 -15 -8
-23 -23 -23 -9 0 -11 1 -16 7 -9 8 -9 23 -1 32 9 9 24 9 34 0z m162 -83 c4 -4
5 -7 5 -15 0 -14 -5 -19 -22 -21 -7 0 -22 -3 -33 -6 -23 -6 -21 -6 -26 0 -3 5
-3 5 0 11 2 3 6 7 9 8 6 2 22 12 35 22 10 8 25 9 32 1z m-267 -75 c1 0 4 -3 8
-6 11 -12 6 -30 -10 -30 -15 0 -22 17 -11 29 3 3 5 7 5 8 0 1 1 1 3 0 2 0 4
-1 5 -1z m1119 -25 c6 -4 6 -6 6 -20 0 -17 -2 -19 -18 -30 -37 -23 -49 -12
-34 32 7 19 12 23 28 23 11 0 14 -1 18 -5z m354 -7 c5 -5 6 -7 6 -16 0 -15 -8
-23 -23 -23 -9 0 -11 1 -16 7 -9 8 -9 23 -1 32 9 9 24 9 34 0z m-712 -64 c5 0
4 -5 -1 -11 l-6 -5 -5 6 -4 7 4 4 c3 5 4 5 7 2 2 -2 4 -3 5 -3z m367 -100 c4
-2 10 -8 15 -15 5 -6 11 -14 14 -17 14 -13 18 -26 11 -34 -4 -5 -8 -5 -25 1
-8 2 -20 7 -27 9 -22 8 -24 8 -27 15 -4 8 -4 24 0 32 5 12 23 15 39 9z"/>
</g>
</svg>
