<?xml version="1.0" standalone="no"?>
<!DOCTYPE svg PUBLIC "-//W3C//DTD SVG 20010904//EN"
 "http://www.w3.org/TR/2001/REC-SVG-20010904/DTD/svg10.dtd">
<svg version="1.0" xmlns="http://www.w3.org/2000/svg"
 width="1000.000000pt" height="2850.000000pt" viewBox="0 0 1000.000000 2850.000000"
 preserveAspectRatio="xMidYMid meet">
<metadata>
Created by potrace 1.15, written by Peter Selinger 2001-2017
</metadata>
<g transform="translate(0.000000,2850.000000) scale(0.500000,-0.500000)"
fill="#000000" stroke="none">
<path d="M304 3816 c-22 -4 -27 -10 -61 -68 -16 -27 -61 -115 -64 -124 -1 -3
-4 -9 -6 -15 -14 -29 -20 -46 -25 -73 -2 -11 -5 -19 -19 -44 -9 -18 -23 -60
-38 -121 -7 -30 -22 -100 -24 -116 -1 -10 -2 -12 -4 -23 0 -3 -1 -9 -2 -13 -1
-4 -2 -17 -4 -27 -8 -52 -16 -148 -19 -212 -1 -51 -1 -220 1 -262 3 -80 10
-158 18 -209 1 -3 1 -9 2 -13 3 -21 6 -44 8 -52 1 -2 2 -8 2 -13 1 -8 14 -67
21 -98 2 -10 4 -19 5 -20 1 -5 11 -24 14 -28 2 -3 10 -9 16 -15 7 -5 13 -12
14 -15 0 -3 2 -7 3 -10 2 -3 3 -8 3 -10 2 -9 6 -14 15 -17 6 -2 9 -2 12 -1 1
1 6 2 9 2 3 0 8 -1 10 -1 6 0 13 -9 13 -17 0 -15 -10 -22 -29 -18 -26 5 -35
-19 -19 -54 2 -4 6 -14 9 -21 13 -31 20 -46 26 -54 3 -5 8 -15 11 -22 5 -15
20 -43 42 -81 33 -58 38 -63 61 -67 10 -2 14 -1 34 4 13 4 26 7 28 7 2 1 8 2
12 3 4 1 15 3 23 5 8 2 18 5 22 7 4 1 8 3 9 3 1 0 4 3 8 7 9 12 9 26 2 40 -9
15 -29 56 -39 76 -13 28 -46 110 -49 121 0 1 -5 18 -12 38 -23 71 -37 135 -56
245 0 3 -1 9 -2 14 0 6 -1 13 -2 16 -2 11 -9 78 -10 92 -1 7 -2 24 -3 37 -1
13 -2 35 -3 49 -1 14 -1 29 -2 34 -4 38 -5 230 -2 309 3 86 9 170 18 237 0 4
1 12 2 17 1 6 2 12 2 14 1 2 2 13 4 23 2 10 7 37 11 60 8 40 9 56 4 63 -3 4
-8 21 -9 29 -1 10 4 17 16 25 16 11 25 24 33 52 3 11 12 35 26 72 3 9 10 25
15 37 5 12 10 24 12 28 1 4 5 12 8 18 3 6 8 17 12 25 4 8 12 24 19 37 12 21
12 24 12 33 -2 19 -14 29 -46 36 -8 2 -19 4 -23 5 -4 1 -10 2 -12 3 -2 0 -13
3 -24 6 -28 6 -29 7 -39 5z m-60 -370 c8 -6 11 -19 7 -28 -4 -11 -10 -14 -23
-14 -9 0 -11 1 -16 6 -5 5 -6 7 -6 17 0 10 1 12 6 17 5 5 7 6 17 6 7 0 12 -1
15 -4z m-54 -656 c2 -2 4 -6 4 -8 0 -4 -8 -14 -12 -14 -4 0 -12 10 -12 14 0
10 13 15 20 8z m5 -65 c7 -9 1 -23 -11 -23 -12 0 -18 14 -10 23 6 8 14 8 21 0z
m67 -625 c1 0 5 -3 8 -6 5 -5 6 -7 6 -18 0 -11 -1 -13 -6 -18 -3 -3 -7 -6 -9
-6 -27 -2 -36 5 -34 25 1 12 5 18 13 22 5 2 8 2 22 1z"/>
<path d="M1679 3812 c-8 -6 -18 -23 -20 -38 -4 -20 -8 -24 -27 -24 -12 0 -13
0 -20 8 -23 27 -23 27 -35 28 -11 0 -12 0 -18 -6 -4 -4 -6 -8 -6 -17 -1 -12
-1 -13 11 -35 11 -22 20 -38 33 -67 3 -7 7 -16 10 -22 8 -17 22 -53 31 -77 5
-13 10 -27 12 -33 5 -14 25 -80 29 -95 1 -3 9 -35 10 -40 6 -22 23 -114 28
-153 0 -3 1 -8 2 -13 0 -4 1 -11 2 -16 1 -5 2 -17 3 -26 3 -28 9 -100 11 -134
4 -79 5 -231 2 -321 -2 -61 -1 -63 25 -81 13 -9 16 -13 16 -22 0 -10 -3 -13
-16 -20 -16 -8 -26 -17 -30 -27 -3 -6 -5 -22 -8 -48 -4 -43 -6 -53 -7 -62 -1
-3 -1 -9 -2 -13 -1 -13 -9 -61 -14 -86 -5 -28 -4 -37 5 -47 5 -7 23 -17 29
-17 6 0 14 -6 17 -12 6 -14 1 -35 -7 -39 -10 -4 -18 -5 -29 -3 -10 2 -14 2
-25 -1 -12 -3 -13 -4 -19 -14 -3 -5 -6 -12 -6 -13 0 -2 -4 -16 -9 -31 -5 -15
-10 -31 -11 -34 -7 -27 -41 -106 -69 -163 -25 -50 -26 -50 -24 -61 0 -7 2 -13
4 -15 6 -7 19 -14 30 -16 6 -1 13 -3 17 -4 4 -1 21 -5 38 -9 17 -4 34 -8 38
-9 7 -2 23 0 31 4 2 2 7 6 11 10 8 8 12 14 43 68 15 27 57 111 68 137 4 10 9
22 11 26 6 13 29 76 37 100 28 90 52 197 64 295 1 5 2 11 2 14 2 9 9 87 10
108 1 12 2 23 2 26 5 31 5 289 0 358 0 6 -2 24 -3 40 -2 31 -10 101 -11 106 0
2 -1 8 -2 15 -1 7 -2 14 -2 16 -1 3 -1 8 -2 12 -2 12 -9 51 -10 58 -22 115
-49 207 -89 304 -14 34 -19 40 -40 50 -26 13 -27 16 -21 36 2 6 3 15 3 22 1
13 -3 21 -22 54 -6 10 -13 21 -15 25 -11 20 -17 27 -24 35 -13 13 -30 17 -42
9z m202 -704 c4 -6 4 -24 -1 -30 -7 -9 -27 -9 -34 0 -5 6 -5 24 0 30 7 9 27 9
35 0z"/>
<path d="M613 3727 c-22 -6 -26 -6 -45 -1 -15 4 -30 5 -30 2 0 -1 -1 -2 -3 -2
-4 0 -14 -12 -18 -21 -3 -7 -3 -21 -3 -123 1 -114 1 -115 5 -124 3 -5 9 -13
14 -17 14 -11 21 -19 21 -23 1 -5 1 -11 0 -16 0 -4 -7 -12 -21 -23 -5 -4 -11
-12 -14 -17 l-4 -9 0 -285 c0 -322 -2 -291 16 -309 20 -20 20 -28 0 -48 -13
-13 -16 -21 -16 -40 0 -9 0 -24 0 -34 0 -10 0 -127 0 -260 l0 -242 5 -10 c6
-13 11 -18 23 -24 l11 -5 158 1 c88 0 160 1 162 1 1 0 2 1 2 2 0 1 1 2 3 2 4
0 14 12 18 21 4 11 5 153 0 164 -3 9 -15 20 -24 24 -8 3 -16 13 -14 18 0 2 4
8 8 12 10 11 20 32 27 54 l5 18 1 225 1 225 5 10 c2 5 6 11 9 13 2 3 9 9 14
14 10 10 37 32 48 39 22 16 55 25 85 25 24 0 32 -1 47 -8 15 -7 23 -15 31 -32
16 -37 21 -77 22 -186 0 -38 1 -64 2 -68 5 -15 18 -22 42 -23 21 -1 28 -5 32
-20 2 -7 2 -11 0 -17 -4 -16 -11 -20 -31 -21 -24 -1 -38 -8 -43 -23 -1 -5 -2
-66 -2 -221 0 -192 0 -215 3 -222 4 -9 14 -21 18 -21 2 0 3 -1 3 -2 0 -3 14
-3 169 -3 153 0 169 0 169 3 0 1 2 2 5 3 5 1 5 2 5 17 -1 16 -1 17 -15 24 -12
6 -17 13 -17 24 0 9 1 11 6 16 3 3 9 7 13 9 8 4 18 13 22 21 4 7 4 24 4 332 1
307 0 346 -5 385 -1 9 -2 20 -3 25 -5 38 -21 101 -34 132 -5 10 -23 46 -26 51
-1 2 -6 10 -11 18 -5 8 -10 15 -11 17 -2 2 -6 7 -10 11 -39 48 -101 86 -163
100 -54 12 -127 11 -178 -2 -28 -7 -45 -14 -51 -20 -9 -9 -12 -25 -9 -41 5
-24 -7 -40 -29 -39 -11 1 -17 3 -28 14 -11 9 -19 13 -31 12 -8 0 -12 -2 -22
-10 -7 -5 -14 -11 -16 -12 -1 -2 -3 -3 -4 -3 0 0 -5 -4 -11 -9 -9 -8 -10 -9
-13 -6 -6 6 -6 15 1 88 l7 72 0 176 c0 192 0 183 -11 202 -7 11 -15 16 -32 21
l-15 4 -21 -6 c-27 -8 -31 -8 -57 0 l-21 6 -56 0 c-53 0 -57 -1 -74 -5z m27
-71 c5 -5 5 -11 0 -16 -10 -10 -27 5 -16 16 4 4 12 4 16 0z m209 -271 c4 -4 5
-7 5 -13 0 -11 -7 -18 -18 -18 -11 0 -18 7 -18 18 0 11 7 18 18 18 6 0 9 -1
13 -5z m444 -239 c5 -5 6 -7 6 -16 0 -9 -1 -11 -7 -16 -5 -6 -7 -7 -16 -7 -9
0 -11 1 -16 7 -9 8 -9 23 -1 32 9 9 24 9 34 0z m-122 -51 c6 -4 6 -6 6 -20 0
-14 0 -16 -6 -20 -4 -4 -7 -5 -18 -5 -11 0 -14 1 -18 5 -6 4 -6 6 -6 20 0 14
0 16 6 20 4 4 7 5 18 5 11 0 14 -1 18 -5z m-330 -156 c4 -4 5 -7 5 -13 0 -11
-7 -18 -18 -18 -11 0 -18 7 -18 18 0 11 7 18 18 18 6 0 9 -1 13 -5z m-241 -95
c5 -5 5 -15 0 -20 -9 -9 -24 -2 -24 10 0 8 6 14 14 14 3 0 8 -2 10 -4z m805
-47 c4 -4 5 -7 5 -15 0 -14 -6 -20 -20 -20 -14 0 -20 6 -20 20 0 14 6 20 20
20 8 0 11 -1 15 -5z m96 -20 c3 -5 3 -5 0 -10 -2 -3 -5 -5 -7 -5 -2 0 -5 2 -7
5 -3 5 -3 5 0 10 2 3 5 5 7 5 2 0 5 -2 7 -5z m-933 -144 c-4 -5 -5 -5 -9 -1
-6 4 -6 5 0 10 4 4 4 4 9 -1 l4 -4 -4 -4z m801 -124 c12 -7 14 -33 3 -43 -8
-9 -32 -9 -40 0 -9 8 -9 32 0 41 7 7 27 8 37 2z m-750 -305 c7 -6 7 -19 1 -25
-6 -7 -19 -7 -25 -1 -7 6 -7 19 -1 25 6 7 19 7 25 1z"/>
</g>
</svg>
