<?xml version="1.0" standalone="no"?>
<!DOCTYPE svg PUBLIC "-//W3C//DTD SVG 20010904//EN"
 "http://www.w3.org/TR/2001/REC-SVG-20010904/DTD/svg10.dtd">
<svg version="1.0" xmlns="http://www.w3.org/2000/svg"
 width="1100.000000pt" height="2850.000000pt" viewBox="0 0 1100.000000 2850.000000"
 preserveAspectRatio="xMidYMid meet">
<metadata>
Created by potrace 1.15, written by Peter Selinger 2001-2017
</metadata>
<g transform="translate(0.000000,2850.000000) scale(0.500000,-0.500000)"
fill="#000000" stroke="none">
<path d="M191 3726 c-17 -4 -54 -26 -61 -36 -11 -15 -10 6 -10 -331 l0 -311 5
-11 c3 -6 9 -13 14 -18 20 -17 21 -18 21 -29 0 -13 -2 -16 -15 -25 l-10 -8 -1
-16 0 -15 8 -4 c7 -3 13 -4 29 -4 24 0 29 -3 29 -17 0 -12 -5 -16 -23 -18 -27
-2 -35 -7 -45 -27 -8 -16 -11 -33 -8 -43 6 -22 37 -37 83 -41 11 -1 25 -3 30
-3 7 -1 15 0 26 3 20 5 26 5 32 -1 4 -4 5 -7 5 -13 0 -8 -1 -10 -16 -24 -13
-12 -17 -18 -23 -30 -9 -19 -12 -22 -27 -22 -15 0 -21 6 -23 23 -1 7 -2 13 -3
14 -1 1 -1 2 -1 4 1 2 0 3 -1 3 -2 0 -2 1 -2 1 1 1 0 3 -2 5 -6 6 -25 7 -35 2
-3 -1 -6 -3 -7 -3 -5 -1 -22 -12 -26 -16 -13 -11 -13 -13 -14 -73 0 -67 2 -76
20 -85 4 -2 9 -4 10 -5 2 -1 7 -3 11 -3 13 -2 20 -10 20 -23 0 -13 -7 -21 -20
-23 -4 0 -9 -2 -11 -3 -1 -1 -6 -3 -11 -5 -14 -8 -19 -20 -19 -52 0 -18 1 -27
3 -32 4 -9 14 -21 18 -21 2 0 3 -1 3 -2 0 -1 1 -1 3 -2 1 0 11 -1 21 -2 17 -1
20 -2 26 -7 3 -3 5 -5 4 -5 -1 0 -6 -10 -11 -21 -27 -62 -68 -142 -100 -195
-10 -18 -11 -20 -11 -30 1 -26 14 -35 46 -29 9 1 18 3 19 2 1 0 11 -11 11 -12
0 -1 -11 -12 -12 -12 0 0 -4 -1 -8 -2 -3 -2 -7 -3 -8 -3 -3 0 -18 -8 -21 -11
-12 -11 -32 -15 -42 -8 -5 3 -26 5 -32 2 -5 -1 -7 -8 -7 -20 1 -10 10 -19 27
-28 8 -4 20 -11 27 -15 16 -9 31 -16 34 -16 6 0 32 -15 41 -23 15 -14 14 -13
36 -28 36 -24 49 -21 74 18 27 42 47 75 47 76 0 1 3 6 7 11 3 6 7 13 9 16 1 3
4 9 7 13 18 30 20 35 19 53 -2 50 -3 48 16 56 28 11 33 17 54 61 34 70 33 66
31 79 -1 13 -6 22 -16 28 -5 3 -32 12 -44 15 -2 0 -20 6 -41 12 -20 6 -39 11
-43 11 -4 0 -5 1 -2 1 3 1 4 2 4 4 -1 3 12 7 22 7 3 0 15 3 26 6 25 7 29 7 55
0 l20 -6 61 0 c65 1 64 1 70 12 3 6 5 28 3 28 -3 0 -6 19 -4 26 1 6 5 16 7 16
0 0 7 3 16 6 18 6 21 6 25 0 7 -12 9 -48 2 -48 -1 0 -1 -13 1 -25 1 -5 -6 -15
-13 -20 -3 -2 -5 -5 -5 -5 1 -1 0 -2 -1 -2 -2 0 -11 -3 -20 -7 -9 -4 -29 -12
-44 -18 -48 -20 -55 -25 -56 -43 -1 -14 8 -23 25 -27 29 -7 31 -8 49 -23 11
-10 19 -22 17 -28 -1 -2 -7 -7 -14 -11 -16 -9 -19 -13 -20 -27 -1 -10 -2 -8
17 -49 5 -12 12 -26 19 -44 10 -24 16 -33 26 -37 12 -6 23 -5 39 3 38 17 48
22 61 28 16 8 29 9 29 4 0 -2 -2 -8 -4 -13 -4 -9 -5 -23 -2 -31 3 -8 8 -14 26
-27 8 -6 16 -12 18 -14 2 -1 9 -7 17 -12 8 -5 24 -19 37 -31 13 -12 29 -28 37
-35 7 -7 19 -19 26 -26 14 -15 20 -18 32 -18 13 0 22 4 29 14 3 5 7 10 7 11 3
4 5 27 3 27 -1 0 -2 1 -1 2 1 2 -6 10 -9 11 -18 3 -27 17 -18 27 3 4 16 6 16
2 0 -2 21 -8 30 -8 9 0 20 5 20 9 0 1 1 4 3 5 2 3 17 27 17 29 0 0 5 12 12 25
24 50 54 135 74 205 9 34 12 39 19 39 3 0 6 -2 7 -4 5 -9 34 -49 54 -75 19
-24 73 -80 95 -99 19 -17 22 -19 43 -35 35 -26 67 -45 109 -66 34 -16 43 -20
57 -25 6 -2 13 -5 15 -6 28 -11 97 -29 131 -33 5 -1 11 -2 14 -2 3 -1 10 -1
15 -2 6 -1 17 -2 25 -3 8 -1 58 -3 110 -3 90 -1 95 -1 103 3 20 9 25 18 32 53
12 61 32 138 48 178 11 28 7 43 -11 52 l-10 4 -81 -1 c-144 -1 -201 6 -296 39
-14 4 -15 5 -27 2 -8 -2 -16 -6 -24 -12 -11 -8 -14 -9 -23 -9 -16 0 -23 7 -23
23 0 13 5 20 19 27 14 7 22 16 26 28 3 10 3 29 3 198 l-1 187 5 6 c4 3 6 6 5
7 0 1 -1 7 -2 14 -1 7 -2 13 -3 14 -1 0 -2 1 -1 2 1 1 0 3 -2 3 -3 2 -3 2 0 3
4 2 3 2 -1 2 -13 0 -18 25 -6 37 5 5 7 6 18 5 11 0 24 -4 24 -8 0 -1 1 -3 1
-4 0 -4 -5 -20 -9 -25 -2 -4 -5 -5 -13 -5 l-10 -1 9 0 8 -1 0 -14 c-1 -9 0
-15 1 -17 2 -2 3 -3 3 -2 0 1 1 0 3 -1 6 -5 127 -5 142 -1 12 4 23 13 32 28 8
14 13 16 42 15 14 0 29 1 34 2 25 6 38 -1 39 -18 0 -4 1 -4 1 -1 1 2 4 3 18 3
9 0 17 1 19 2 2 2 3 128 0 133 -1 2 -1 3 -2 7 0 3 -10 8 -17 9 -15 2 -18 2
-23 -1 -6 -4 -23 -3 -31 1 -16 8 -16 40 0 48 8 4 25 5 31 1 5 -3 8 -3 23 -1 8
1 17 6 17 10 2 16 -8 35 -17 35 -2 0 -3 1 -3 2 0 3 -14 3 -167 3 l-156 0 -6 6
c-4 4 -6 8 -5 10 1 7 -5 20 -11 26 -5 4 -27 13 -30 13 -9 -1 -17 7 -17 18 0 8
6 18 12 18 11 1 28 7 35 13 5 4 5 6 5 16 -1 9 -2 12 -8 19 -9 11 -16 23 -17
33 -1 5 -9 23 -9 20 0 -3 -7 5 -11 14 -3 7 -4 8 -1 13 3 5 12 8 12 4 0 -2 1
-2 2 -1 0 1 6 4 12 6 26 7 26 8 26 99 l-1 71 6 6 6 6 29 -1 c29 -1 30 -1 35
-6 3 -4 4 -6 3 -8 -4 -7 -9 -40 -5 -40 0 0 1 -1 0 -2 -1 -1 0 -6 1 -11 2 -10
1 -13 -6 -14 -2 0 -4 -1 -4 -2 0 -2 -1 -3 -2 -3 -2 0 -5 -8 -8 -22 -2 -10 -9
-34 -24 -92 -7 -24 -7 -30 0 -45 6 -14 13 -17 82 -41 13 -5 25 -9 27 -9 1 0 4
-1 5 -2 3 -2 83 -29 85 -29 15 -1 32 8 39 20 6 12 23 63 27 83 4 19 10 40 18
54 4 9 29 92 48 159 7 25 6 36 -5 57 -9 18 -8 26 7 35 15 9 25 19 29 29 2 4 8
26 14 48 5 22 10 43 11 46 2 8 1 14 -3 24 -7 17 -20 22 -41 16 -23 -6 -29 -4
-43 15 -10 14 -22 21 -48 29 -13 4 -27 9 -31 10 -13 5 -38 6 -53 2 -12 -4 -36
-4 -405 -5 l-391 -1 -5 -6 c-4 -4 -5 -7 -5 -18 0 -8 -1 -13 -2 -13 -1 0 0 -2
3 -5 7 -5 8 -20 1 -28 -3 -4 -4 -8 -4 -19 0 -15 4 -24 14 -29 11 -5 15 -10 14
-21 0 -12 -5 -25 -12 -33 -20 -21 -32 -35 -34 -38 -8 -16 -11 -44 -5 -58 4 -9
14 -21 18 -21 2 0 3 -1 3 -2 0 -2 10 -3 60 -3 55 0 53 0 71 15 15 14 19 16 29
16 10 0 14 -2 29 -16 17 -15 17 -15 62 -16 47 0 50 0 74 15 15 10 19 12 28 12
14 0 22 -8 21 -23 0 -17 4 -32 11 -47 8 -15 10 -28 5 -39 -3 -7 -10 -11 -23
-13 -19 -2 -36 -13 -41 -27 -4 -12 -3 -49 2 -59 5 -10 16 -18 28 -20 3 -1 6
-2 6 -3 0 -1 2 -1 4 -1 7 2 14 -6 14 -15 0 -9 -7 -17 -14 -15 -2 0 -4 0 -4 -1
0 -1 -3 -2 -6 -3 -12 -2 -23 -10 -28 -20 -4 -9 -5 -11 -2 -23 1 -8 2 -17 2
-22 0 -10 9 -31 15 -38 3 -3 12 -9 20 -13 16 -8 27 -16 33 -26 4 -7 4 -9 3
-22 -2 -21 -2 -32 1 -48 l3 -15 -13 -24 c-13 -25 -18 -32 -24 -32 -6 0 -24 -8
-31 -13 -14 -13 -15 -51 -1 -65 4 -5 25 -16 29 -16 3 0 8 -7 8 -13 1 -6 -4
-17 -7 -17 0 0 -2 0 -4 0 -2 -1 -7 -3 -12 -4 -21 -6 -24 -16 -24 -69 0 -43 1
-50 12 -74 7 -17 8 -25 3 -33 -6 -10 -24 -10 -30 0 -3 5 -3 9 -2 32 l2 26 -9
20 c-9 24 -10 28 -11 31 0 1 -3 10 -7 19 -9 25 -11 39 -9 67 1 23 1 25 -3 33
-6 10 -21 19 -36 21 -11 2 -16 8 -16 20 0 13 6 19 19 19 11 0 30 6 35 11 8 7
11 17 13 39 1 24 3 44 4 60 3 48 3 51 0 62 -3 10 -11 20 -24 30 -4 3 -12 11
-16 18 -16 22 -25 25 -73 28 -62 4 -125 7 -133 7 -9 -1 -22 -7 -29 -14 -10
-10 -11 -26 -2 -34 6 -6 30 -14 34 -11 5 3 17 0 23 -6 5 -5 6 -7 6 -15 0 -17
-11 -27 -27 -27 -8 0 -30 -7 -35 -12 -11 -9 -12 -14 -14 -70 -1 -20 -2 -41 -2
-46 -4 -53 -3 -67 2 -83 8 -23 7 -29 -2 -49 -11 -22 -12 -27 -14 -50 -1 -10
-2 -22 -2 -25 -1 -3 -3 -25 -6 -48 -3 -23 -6 -45 -6 -48 -1 -3 -3 -18 -5 -32
-2 -14 -4 -29 -5 -32 -3 -19 -23 -115 -28 -134 -7 -28 5 -43 36 -44 22 -1 27
-6 28 -30 3 -28 -3 -37 -20 -33 -9 2 -16 8 -26 21 -3 3 -6 5 -7 4 0 0 -8 -1
-16 -1 -8 0 -14 -1 -13 -2 0 0 -1 -2 -4 -4 -3 -2 -5 -6 -6 -9 -1 -2 -5 -14 -9
-26 -12 -41 -19 -42 -35 -10 -8 17 -21 40 -40 74 -3 4 -7 13 -10 18 -3 6 -7
11 -8 13 -1 2 -3 6 -5 9 -2 3 -4 6 -5 6 -2 1 -1 3 3 7 6 5 9 5 34 6 32 2 32 2
32 4 0 1 1 2 3 2 4 0 14 12 18 21 2 6 3 17 3 65 0 62 -1 69 -11 78 -5 4 -25
12 -32 12 -6 0 -13 8 -13 15 0 7 7 15 13 15 7 0 27 8 32 12 11 10 11 3 11 201
0 191 0 192 -9 202 -5 5 -29 14 -36 13 -8 -1 -12 0 -17 6 -7 7 -8 19 -3 37 5
20 13 31 26 34 12 3 27 12 33 20 7 11 8 38 2 60 -2 7 -5 15 -7 17 -3 3 -3 33
0 36 2 2 4 9 7 17 4 13 4 16 4 198 0 123 -1 187 -2 192 -4 13 -8 15 -23 14
l-13 -2 0 9 0 9 13 -2 c15 -1 18 1 22 12 2 7 2 9 -1 19 -3 10 -12 22 -17 22
-2 0 -3 1 -3 2 0 1 -1 2 -2 2 -6 1 -571 2 -577 0z m559 -52 c5 -3 6 -20 1 -25
-5 -4 -28 -19 -38 -23 -17 -8 -31 -2 -31 13 0 11 4 16 20 23 27 13 40 16 48
12z m469 -58 c13 -4 36 -16 40 -21 5 -8 5 -20 -2 -36 -12 -31 -21 -40 -40 -40
-23 0 -31 13 -26 41 0 3 1 15 1 28 0 30 4 34 27 28z m-105 -17 c4 -5 6 -11 13
-35 7 -23 7 -31 0 -38 -6 -6 -22 -6 -28 1 -5 4 -5 5 -5 37 0 27 1 33 4 36 4 4
12 4 16 -1z m317 -7 c5 -5 6 -7 5 -18 0 -14 -6 -29 -13 -35 -7 -4 -21 -4 -28
0 -16 11 -15 48 3 56 15 6 24 5 33 -3z m104 -6 c10 -9 3 -26 -10 -26 -8 0 -15
7 -15 15 0 13 16 20 25 11z m-1023 -17 c3 -3 4 -7 4 -14 0 -13 -6 -19 -19 -19
-13 0 -19 6 -19 19 0 7 1 11 4 14 7 8 23 8 30 0z m497 -50 c6 -4 6 -6 6 -20 0
-14 0 -16 -6 -20 -8 -7 -28 -7 -36 0 -6 5 -9 19 -6 32 2 13 30 19 42 8z m480
-10 c12 -12 3 -31 -13 -31 -11 0 -18 7 -18 18 0 11 7 18 18 18 6 0 9 -1 13 -5z
m-900 -16 c6 -4 6 -6 6 -20 0 -14 0 -16 -6 -20 -9 -8 -37 -6 -37 3 0 2 -1 2
-1 1 -1 -2 -5 -3 -12 -3 -11 0 -19 -3 -22 -9 -1 -2 -3 -4 -3 -5 -1 -1 -2 -17
-1 -37 l0 -36 -6 -6 -6 -6 -49 0 -49 0 -6 6 -6 6 0 47 0 47 6 6 6 6 49 0 c37
0 49 -1 51 -2 4 -7 26 1 38 12 13 13 17 15 30 15 11 0 14 -1 18 -5z m120 -103
c15 -3 27 -23 28 -46 0 -20 -9 -29 -29 -29 -18 1 -30 13 -34 37 -4 21 2 35 16
38 9 2 10 2 19 0z m-446 -46 c11 -10 3 -28 -11 -28 -9 0 -16 6 -16 16 0 14 17
22 27 12z m1381 -14 c12 -14 -7 -30 -19 -17 -3 3 -5 7 -5 8 0 2 -1 3 -2 2 -2
-1 -2 -1 -1 1 1 1 -1 2 -7 2 -4 0 -8 1 -8 2 0 1 4 1 9 0 7 -1 10 -1 14 2 8 5
15 5 19 0z m-1298 -48 c5 -5 5 -15 0 -20 -9 -9 -24 -2 -24 10 0 8 6 14 14 14
3 0 8 -2 10 -4z m1325 -51 c4 -4 5 -7 5 -15 0 -14 -6 -20 -20 -20 -14 0 -20 6
-20 20 0 14 6 20 20 20 8 0 11 -1 15 -5z m-966 -46 c7 -7 7 -19 0 -26 -9 -9
-35 -5 -35 6 0 6 7 20 11 23 7 4 19 2 24 -3z m-411 -13 c10 -4 16 -14 16 -26
0 -14 -6 -20 -20 -20 -13 0 -19 5 -23 21 -7 26 4 36 27 25z m350 -24 c4 -3 4
-4 3 -12 -2 -17 -8 -25 -19 -26 -19 -2 -26 4 -26 21 0 13 4 19 14 21 9 2 21 0
28 -4z m-437 -20 c5 -5 6 -7 6 -16 0 -15 -8 -23 -23 -23 -9 0 -11 1 -16 7 -9
8 -9 23 -1 32 9 9 24 9 34 0z m300 -17 l6 -6 0 -48 0 -48 -6 -6 -6 -6 -49 0
-49 0 -6 6 c-4 4 -6 8 -5 10 1 7 -9 26 -18 33 -8 7 -14 16 -14 21 0 5 6 12 17
23 5 6 9 11 8 13 0 1 2 3 6 5 3 1 7 4 9 5 2 4 7 4 52 4 l49 0 6 -6z m1102
-168 c3 -2 6 -5 7 -7 3 -6 3 -26 0 -32 -6 -10 -8 -26 -10 -57 -1 -34 -3 -41
-12 -44 -6 -1 -16 6 -17 12 -2 11 -5 42 -5 56 0 9 -2 23 -4 33 -6 25 -2 38 14
42 9 2 22 1 27 -3z m-167 -27 c5 -5 6 -7 6 -17 0 -16 -7 -23 -23 -23 -10 0
-12 1 -17 6 -5 5 -6 7 -6 17 0 16 7 23 23 23 10 0 12 -1 17 -6z m-818 -154 c5
-6 5 -12 0 -18 -7 -8 -22 -2 -22 9 0 11 15 17 22 9z m-117 -7 l6 -6 0 -49 c0
-27 -1 -50 -2 -50 0 -1 -3 -4 -6 -8 -3 -4 -5 -7 -6 -6 -1 1 -12 -5 -25 -13
-19 -13 -27 -13 -48 1 -8 5 -17 10 -19 11 -3 1 -5 2 -5 3 0 0 -2 4 -5 7 l-6 6
0 49 0 49 6 6 6 6 49 0 49 0 6 -6z m797 -23 c4 0 12 -10 12 -15 0 -11 -14 -17
-22 -10 -6 7 -2 29 5 26 2 0 4 -1 5 -1z m-184 -87 l-5 -5 -4 4 -5 5 4 4 5 5 4
-4 5 -5 -4 -4z m-806 4 c11 -9 26 -39 26 -50 0 -19 -26 -24 -35 -7 -2 3 -3 6
-2 6 0 0 0 3 -2 8 -1 4 -3 12 -4 17 -1 6 -2 13 -2 16 -2 13 9 19 19 10z m1109
-52 c9 -5 12 -19 9 -32 -3 -13 -11 -17 -37 -20 -6 -1 -8 0 -11 5 -7 10 -7 36
2 45 7 7 27 8 37 2z m-797 -47 c28 -10 32 -13 32 -29 0 -13 -5 -19 -18 -24 -5
-2 -11 -4 -13 -5 -3 -2 -5 -1 -11 6 -5 4 -8 10 -8 12 0 2 -1 4 -2 4 -1 0 -8 6
-15 13 -14 14 -16 20 -9 29 4 6 13 5 44 -6z m743 -30 c4 -3 7 -6 7 -8 0 -3 14
-18 18 -18 1 0 2 -1 2 -2 0 -1 2 -2 4 -3 15 -5 22 -21 14 -30 -7 -9 -48 -22
-60 -20 -23 5 -28 20 -17 53 6 19 7 21 16 28 7 5 8 5 16 0z m-113 -176 c9 -9
9 -24 -1 -36 -8 -11 -9 -14 -10 -30 -1 -12 -1 -15 2 -18 5 -6 1 -15 -8 -15 -9
0 -13 9 -8 15 3 3 3 6 2 18 -1 16 -2 19 -10 30 -10 12 -10 27 -1 36 5 5 7 6
17 6 10 0 12 -1 17 -6z m131 -16 c10 -9 3 -26 -10 -26 -8 0 -15 7 -15 15 0 13
16 20 25 11z m-1068 -123 c3 -5 3 -5 0 -10 -2 -3 -5 -5 -7 -5 -2 0 -5 2 -7 5
-3 5 -3 5 0 10 2 3 5 5 7 5 2 0 5 -2 7 -5z m1302 -28 c12 -7 14 -33 3 -43 -8
-9 -32 -9 -40 0 -9 8 -9 32 0 41 7 7 27 8 37 2z m-992 -46 c3 -5 3 -5 0 -10
-2 -3 -5 -5 -7 -5 -2 0 -5 2 -7 5 -3 5 -3 5 0 10 2 3 5 5 7 5 2 0 5 -2 7 -5z
m-414 -15 c10 -9 3 -26 -9 -26 -8 0 -18 8 -18 13 0 14 18 22 27 13z m1214 -21
c12 -12 3 -31 -13 -31 -11 0 -18 7 -18 18 0 11 7 18 18 18 6 0 9 -1 13 -5z
m96 -14 c5 -8 1 -16 -8 -16 -9 0 -13 8 -8 16 2 3 5 5 8 5 3 0 6 -2 8 -5z"/>
</g>
</svg>
