<?xml version="1.0" standalone="no"?>
<!DOCTYPE svg PUBLIC "-//W3C//DTD SVG 20010904//EN"
 "http://www.w3.org/TR/2001/REC-SVG-20010904/DTD/svg10.dtd">
<svg version="1.0" xmlns="http://www.w3.org/2000/svg"
 width="1100.000000pt" height="2850.000000pt" viewBox="0 0 1100.000000 2850.000000"
 preserveAspectRatio="xMidYMid meet">
<metadata>
Created by potrace 1.15, written by Peter Selinger 2001-2017
</metadata>
<g transform="translate(0.000000,2850.000000) scale(0.500000,-0.500000)"
fill="#000000" stroke="none">
<path d="M816 3786 c-5 -1 -13 -5 -19 -8 -6 -3 -17 -8 -24 -11 -19 -6 -25 -9
-34 -19 -8 -8 -19 -27 -23 -39 -1 -4 -3 -9 -4 -10 -1 -1 -2 -3 -2 -5 0 -2 -2
-5 -4 -7 -11 -14 -40 -13 -47 2 -5 8 -5 25 0 32 3 5 4 23 2 32 -1 3 -4 6 -8 8
-6 3 -9 4 -32 1 -25 -2 -36 -6 -44 -13 -5 -5 -10 -25 -9 -38 0 -15 -3 -20 -14
-23 -16 -3 -28 4 -28 17 0 8 -7 27 -13 33 -10 11 -16 11 -62 8 -54 -5 -60 -8
-66 -33 -2 -10 -2 -12 1 -18 6 -14 14 -42 14 -51 0 -17 -18 -26 -36 -18 -14 7
-30 9 -45 6 -25 -6 -35 0 -35 18 0 14 2 17 20 26 8 4 19 11 22 14 14 13 9 33
-11 42 -7 3 -11 4 -26 3 -33 -2 -48 -11 -54 -31 -4 -15 -4 -135 0 -154 4 -17
4 -35 0 -56 -3 -16 -3 -18 0 -26 6 -16 11 -21 25 -22 8 -1 13 0 15 2 11 8 28
14 43 16 9 1 25 4 35 7 26 7 37 4 45 -11 4 -9 15 -19 22 -22 3 -1 10 -1 15 -1
20 2 26 2 37 -4 12 -6 28 -12 41 -15 11 -2 16 -10 10 -16 -2 -1 -4 -4 -4 -6 0
-2 -1 -3 -4 -2 -9 2 -42 1 -49 -2 -8 -3 -22 -3 -28 0 -2 1 -6 6 -10 11 -14 20
-25 24 -54 18 -13 -3 -30 -10 -30 -13 0 -1 -2 -2 -4 -3 -2 -1 -4 -2 -4 -3 0
-1 -1 -4 -3 -5 -4 -4 -3 -14 3 -27 2 -6 14 -17 21 -20 13 -6 16 -28 6 -38 -6
-6 -11 -7 -24 -6 -3 0 -10 5 -17 12 -7 7 -19 17 -27 23 -8 5 -17 13 -19 17
l-4 7 -16 0 c-8 -1 -15 -1 -16 -1 -1 0 -2 0 -3 0 -3 0 1 -22 5 -31 7 -13 8
-17 11 -50 2 -27 1 -41 -3 -46 -3 -2 -3 -21 0 -28 1 -3 6 -10 10 -15 4 -5 8
-11 8 -13 -1 -5 8 -25 13 -31 8 -9 13 -10 69 -10 42 0 53 1 61 3 11 4 21 13
27 25 3 6 12 14 16 14 5 0 12 -6 16 -14 8 -16 22 -26 33 -26 14 2 29 22 34 45
5 24 49 24 54 0 3 -16 13 -33 23 -40 8 -5 11 -6 28 -7 28 -1 41 7 55 34 8 15
22 16 53 6 18 -6 24 -13 24 -27 0 -14 -4 -22 -14 -26 -6 -3 -17 -4 -86 -5 -77
-1 -79 -1 -87 -5 -18 -10 -22 -15 -34 -48 -3 -8 -8 -16 -10 -18 -3 -3 -5 -5
-4 -5 1 0 0 -2 -3 -4 -6 -5 -4 -5 -19 2 -18 9 -20 13 -19 39 1 13 -10 34 -19
35 -1 1 -18 1 -38 1 -20 1 -44 1 -54 2 -10 0 -20 -1 -23 -1 -9 -2 -19 -12 -24
-24 l-5 -11 -1 -204 c0 -201 0 -205 4 -213 5 -9 8 -12 15 -13 8 -2 19 -6 19
-7 0 -1 -11 -5 -19 -7 -7 -1 -10 -4 -15 -13 -4 -7 -4 -13 -4 -89 0 -91 0 -92
15 -110 15 -18 17 -21 17 -32 0 -11 -2 -14 -15 -29 -14 -17 -16 -25 -8 -46 4
-11 5 -18 5 -32 -1 -22 4 -34 16 -40 8 -4 11 -4 76 -3 37 0 68 1 70 1 13 5 16
7 16 8 0 1 1 2 3 2 1 0 5 3 9 8 16 16 27 40 26 59 0 28 -8 38 -35 46 -20 6
-30 10 -37 16 -7 5 -18 14 -20 15 -4 3 -8 13 -8 19 0 8 6 14 20 18 8 2 14 6
20 12 9 8 9 8 9 18 -1 12 -8 24 -19 33 -12 12 -14 16 -14 29 0 10 1 12 6 17 6
6 7 6 18 6 11 0 12 0 18 -6 6 -6 6 -6 6 -25 0 -18 0 -22 6 -39 6 -18 6 -19 3
-27 -4 -9 -6 -37 -3 -37 1 0 2 -1 1 -2 -2 -3 23 -13 35 -12 8 0 41 15 47 22 9
10 23 13 70 14 29 1 48 3 57 5 17 4 19 4 42 -1 34 -7 83 -5 88 5 3 5 8 9 11 8
1 -1 1 -1 1 1 -2 5 12 2 44 -9 l27 -9 172 0 c193 0 186 0 201 14 7 7 8 8 8 18
0 15 -5 21 -24 33 -10 5 -19 12 -22 14 -6 6 -24 13 -35 13 -11 1 -16 7 -13 15
4 10 4 31 -1 38 -5 8 -5 8 -32 9 -21 0 -24 0 -43 -6 -24 -7 -34 -8 -58 0 -18
6 -20 6 -56 6 -48 0 -56 -4 -64 -28 -1 -4 -4 -8 -6 -9 -2 -2 -2 -3 0 -3 2 0 1
-1 -1 -3 -3 -3 -3 -3 -6 0 -2 2 -3 3 -1 3 2 0 2 1 0 3 -2 1 -5 6 -7 12 -2 5
-5 10 -7 12 -6 4 -21 2 -36 -4 -16 -6 -18 -6 -33 1 -7 4 -16 8 -20 11 -7 4
-12 4 -47 5 -38 0 -39 0 -49 -5 -12 -6 -13 -8 -15 -23 -1 -12 -1 -12 13 -27
10 -10 13 -18 13 -29 0 -11 -6 -20 -13 -20 -2 0 -5 -1 -7 -1 -3 0 -7 1 -10 1
-8 3 -44 39 -52 53 -3 7 -9 14 -11 16 -4 5 -29 15 -34 15 -2 -1 -19 1 -37 3
-4 0 -11 1 -17 1 -13 0 -19 6 -19 19 0 13 3 17 17 25 7 4 18 14 26 22 8 8 16
15 17 15 15 2 44 27 52 45 6 11 6 28 1 38 -5 11 -28 31 -36 34 -12 4 -32 15
-33 18 0 2 -1 3 -2 4 -1 0 -2 2 -2 3 0 1 -1 3 -1 3 -3 2 -9 14 -9 19 0 10 -8
38 -14 48 -12 21 -9 43 7 55 12 10 23 21 22 22 -2 2 24 12 37 14 8 1 24 4 34
6 l20 5 25 -7 26 -6 130 0 130 1 10 5 c15 7 19 12 19 26 0 13 -1 17 -10 28 -8
10 -11 22 -8 33 4 15 11 25 17 25 3 0 28 -8 40 -14 6 -3 14 -6 19 -8 13 -6 20
-13 20 -21 0 -6 -7 -15 -12 -15 -5 0 -24 -12 -27 -17 -6 -8 -3 -23 5 -30 16
-13 5 -12 158 -12 l139 0 6 -6 7 -7 -7 -6 -6 -7 -32 1 c-33 0 -40 -1 -49 -9
-4 -4 -11 -15 -9 -15 1 0 0 -2 -1 -4 -1 -3 -3 -11 -4 -19 -2 -19 -7 -23 -25
-23 -18 0 -23 4 -25 23 -1 8 -3 16 -4 19 -2 3 -2 5 -2 5 1 0 0 3 -2 6 -2 6 -3
6 -16 6 -14 1 -15 0 -26 -16 -13 -20 -21 -23 -41 -18 -15 3 -24 2 -42 -4 -8
-3 -16 -5 -17 -5 -4 1 -12 10 -12 13 0 2 -1 3 -2 3 -1 0 -2 1 -2 3 0 1 -3 6
-7 10 -8 9 -18 13 -51 21 -30 8 -91 4 -98 -6 -2 -2 -23 -12 -26 -12 -3 0 -24
10 -26 12 -1 1 -5 3 -9 5 -7 3 -15 4 -52 5 l-45 0 -17 -7 c-24 -10 -34 -18
-37 -29 -3 -17 -4 -21 -1 -29 2 -4 3 -9 3 -12 0 -4 -8 -21 -10 -21 -1 0 -1
-21 1 -28 2 -7 9 -10 29 -11 28 -2 40 3 57 24 10 13 14 16 26 18 5 0 12 2 16
4 5 2 8 3 8 3 0 0 3 1 6 2 16 6 22 7 26 4 4 -4 4 -7 1 -13 -5 -9 0 -44 6 -40
1 1 2 0 2 -1 0 -6 24 0 33 8 3 3 18 30 16 30 -1 0 1 2 3 4 1 2 5 3 8 3 3 0 7
-1 9 -3 1 -2 3 -4 2 -4 -2 0 14 -28 17 -30 5 -3 20 -2 24 1 1 1 2 1 2 0 0 -1
5 5 12 13 13 14 17 17 31 17 9 -1 13 -4 31 -21 21 -21 16 -20 131 -20 l96 0
20 5 c10 3 23 6 28 6 21 2 38 10 46 20 7 8 14 11 26 12 34 3 42 7 55 30 15 24
19 27 35 28 18 1 30 -10 30 -28 0 -9 -6 -25 -11 -31 -14 -17 -21 -29 -28 -51
-5 -15 -5 -18 -5 -38 1 -18 1 -21 -2 -26 -2 -3 -5 -5 -7 -5 -6 0 -15 15 -20
32 -8 29 -38 41 -66 26 -18 -9 -22 -11 -25 -14 -16 -14 -40 -14 -56 0 -3 3 -8
6 -19 11 -7 4 -59 7 -73 4 -9 -2 -18 -11 -21 -21 -2 -8 -2 -12 -2 -28 0 -12
-6 -18 -19 -18 -15 0 -19 5 -19 23 1 24 -6 38 -20 43 -2 1 -42 2 -88 2 l-83 0
-11 -5 c-5 -3 -11 -7 -12 -9 -3 -5 -2 -25 2 -28 3 -4 18 -11 30 -14 15 -4 17
-11 21 -56 1 -13 5 -24 13 -34 5 -6 5 -6 17 -6 13 1 13 2 24 12 20 20 22 27
18 69 -1 12 -1 13 5 19 8 9 26 9 34 0 9 -8 9 -24 0 -35 -10 -15 -13 -21 -12
-33 2 -13 4 -16 29 -28 16 -8 16 -8 28 -6 13 2 20 6 28 14 9 9 16 13 28 13 12
0 19 -4 29 -14 4 -4 8 -7 9 -7 2 0 3 -1 3 -2 0 -1 3 -3 7 -4 19 -7 31 -8 44
-1 10 5 13 8 23 23 9 14 12 17 17 18 12 2 18 0 25 -11 8 -13 16 -17 31 -17 12
0 13 0 13 4 0 2 1 6 2 8 1 2 2 6 3 9 0 2 2 6 3 9 4 4 4 5 24 3 25 -1 33 -4 39
-17 3 -5 6 -10 6 -11 1 -1 4 -4 5 -7 2 -3 9 -8 14 -11 11 -5 11 -5 59 -5 34 0
55 1 68 3 10 2 22 3 27 3 5 -1 12 0 15 1 3 1 7 2 8 2 7 1 14 7 18 13 l4 7 1
148 c0 156 0 161 -9 170 -6 6 -29 13 -36 11 -11 -3 -26 2 -30 11 -12 21 9 63
31 66 15 1 31 10 38 20 5 8 2 24 -6 32 -4 4 -8 7 -9 7 -2 0 -3 1 -3 2 0 2 -11
3 -70 3 -59 0 -70 -1 -70 -3 0 -1 -1 -2 -2 -2 -3 0 -16 -11 -16 -13 0 -2 -14
-25 -18 -28 -3 -3 -19 -8 -29 -10 -7 -1 -11 2 -14 11 -1 3 -5 9 -8 15 -4 6 -7
11 -7 12 0 2 -13 13 -15 13 -2 0 -3 1 -3 2 0 0 -2 1 -5 2 -3 0 -7 1 -8 2 -2 3
-23 -7 -29 -14 -2 -3 -7 -11 -11 -18 -4 -8 -9 -15 -11 -16 -5 -3 -18 -2 -25 1
-11 5 -31 9 -40 8 -4 -1 -11 -2 -15 -2 -5 -1 -12 0 -20 3 -9 3 -20 5 -33 5
-22 1 -25 2 -38 15 -16 16 -18 17 -74 18 -54 0 -68 -1 -76 -8 -3 -3 -4 -5 -4
-6 1 -1 1 -2 0 -2 -4 1 -7 0 -6 -2 2 -3 -18 1 -31 7 -19 8 -35 20 -46 35 -6 8
-10 15 -10 16 0 5 -17 21 -23 23 -2 0 -8 2 -12 4 -5 2 -12 3 -15 2 -12 -1 -18
11 -10 19 4 4 10 4 18 0 8 -3 28 -3 34 0 6 2 14 9 14 12 0 1 3 4 7 7 l7 6 18
-3 c20 -3 25 -3 42 -4 11 0 15 -1 19 -5 9 -7 10 -31 1 -40 -3 -4 -3 -7 -3 -16
1 -16 2 -20 10 -24 7 -3 8 -3 18 0 6 2 12 6 16 10 5 5 17 29 17 33 0 3 9 10
18 12 6 2 10 2 17 0 8 -2 17 -9 17 -12 0 -3 10 -24 15 -30 5 -8 13 -12 22 -12
16 0 25 14 28 41 2 12 10 20 23 20 13 0 21 -8 23 -20 2 -22 8 -34 21 -40 9 -5
10 -5 58 -5 55 0 55 0 79 15 9 6 17 9 21 9 4 0 12 -3 21 -9 25 -16 19 -15 131
-15 97 0 101 0 110 4 12 5 19 14 21 25 1 4 1 8 1 9 -1 1 2 5 5 9 3 5 5 9 5 10
0 2 7 8 9 8 3 -1 4 1 8 23 2 9 5 21 6 25 12 30 11 16 11 159 0 71 -1 130 -2
130 -1 0 -1 5 -1 12 0 7 0 12 1 12 3 0 2 35 -1 43 -3 8 -11 19 -13 21 -6 2
-15 15 -15 20 0 6 9 18 15 20 3 2 12 18 14 26 5 17 -4 41 -16 47 -16 8 -19 8
-158 9 -153 0 -146 1 -168 -16 -22 -18 -38 -18 -61 0 -17 14 -27 16 -68 16
l-37 -1 -7 -6 c-8 -7 -21 -29 -21 -37 0 -14 -12 -21 -31 -20 -7 0 -21 1 -31 1
-19 0 -19 0 -32 -8 -18 -11 -23 -19 -25 -43 -2 -19 -11 -26 -39 -30 -7 -1 -17
-3 -22 -4 -4 -1 -11 -2 -15 -2 -4 0 -5 -1 -2 -2 3 -1 4 -3 4 -14 0 -8 -1 -13
-2 -13 -1 1 0 -1 2 -4 3 -4 6 -5 14 -6 11 -1 62 0 68 2 17 4 41 6 47 2 9 -5
81 -5 94 0 12 5 23 10 24 11 1 1 5 3 9 5 10 4 15 3 26 -4 4 -3 8 -5 9 -5 1 0
2 -1 2 -2 0 -1 7 -5 17 -8 2 0 27 -1 56 -1 l52 0 5 -6 6 -5 -5 -4 c-3 -3 -5
-6 -5 -7 0 -2 -1 -3 -2 -2 -2 1 -16 -10 -16 -13 1 -3 -3 -21 -5 -22 -1 -1 -1
-2 2 -2 2 0 3 -2 3 -6 0 -6 -6 -18 -9 -18 -5 0 -39 -26 -57 -45 -24 -24 -30
-27 -46 -23 -16 3 -23 18 -17 36 2 9 4 11 26 27 3 2 8 6 10 8 12 12 35 20 56
21 3 0 4 1 2 1 -4 1 -4 2 -3 17 0 11 0 16 -2 16 -1 0 -2 1 -1 2 2 3 -11 4 -47
4 -37 0 -44 -1 -51 -9 -5 -4 -15 -30 -14 -32 1 0 0 -3 -3 -6 -4 -5 -5 -5 -13
-2 -7 3 -11 6 -23 17 -10 10 -24 20 -26 20 -1 0 -2 1 -2 2 0 4 -19 9 -36 9
-18 1 -18 1 -25 -6 -7 -6 -7 -7 -7 -19 0 -7 -1 -12 -2 -13 -2 0 -2 -1 0 -1 6
0 9 -8 9 -20 0 -19 -8 -27 -27 -27 -19 0 -27 8 -27 27 0 12 3 20 9 20 2 0 2 1
1 1 -2 1 -3 6 -3 13 0 12 -1 13 -7 19 -6 6 -8 6 -20 7 -16 0 -24 -2 -31 -10
-7 -6 -12 -23 -12 -37 0 -9 -3 -18 -8 -21 -17 -12 -29 -27 -30 -40 -3 -18 15
-57 29 -64 3 -2 6 -3 7 -4 2 -2 9 -3 39 -4 45 -1 53 2 72 25 11 14 17 18 30
18 13 0 19 -4 30 -18 11 -13 20 -20 31 -23 5 -1 46 -2 111 -2 l104 1 6 -6 c3
-4 6 -8 5 -9 -1 -4 4 -24 8 -30 15 -23 18 -42 9 -51 -7 -7 -20 -7 -35 0 -10 6
-29 7 -34 2 -4 -5 -9 -20 -9 -27 2 -14 -13 -22 -21 -12 -5 5 -5 5 -2 22 4 24
-3 45 -23 64 -14 14 -11 14 -169 14 l-141 -1 -20 -10 c-19 -9 -20 -9 -32 -8
-29 4 -40 1 -58 -12 -9 -6 -20 -7 -50 -7 -30 1 -32 1 -49 18 -17 17 -27 21
-49 20 -25 -2 -36 -11 -51 -48 -2 -4 -5 -8 -11 -10 -17 -8 -31 -3 -37 13 -6
17 -15 32 -20 34 -8 4 -24 4 -30 -1 -19 -16 -30 -18 -46 -9 -26 14 -54 3 -81
-31 -7 -9 -13 -12 -24 -12 -19 0 -26 19 -13 38 3 5 8 12 10 15 5 7 11 26 9 29
0 1 0 2 2 3 1 0 4 5 6 10 3 10 4 10 11 9 4 0 15 2 23 4 19 5 23 5 54 -6 l22
-7 106 0 106 0 8 5 c9 4 16 11 26 25 8 10 9 33 2 47 -6 11 -6 27 -2 33 8 12
27 13 38 3 l6 -6 -2 -22 c-2 -29 -2 -43 1 -54 1 -5 2 -7 2 -5 0 4 1 4 17 3
l17 0 2 5 c2 6 2 47 0 48 -1 1 -1 25 0 28 1 1 1 9 1 17 0 38 -30 60 -59 45 -8
-4 -26 -10 -29 -10 -3 0 -22 6 -31 11 l-9 5 -107 0 c-105 0 -107 0 -116 -4
-33 -16 -42 -17 -61 -8 -6 3 -12 5 -13 5 -1 0 -2 1 -1 2 1 1 0 3 -2 3 -2 1 -3
3 -3 5 0 2 -1 2 -2 -1 -1 -3 -2 -3 -2 4 0 4 1 7 2 7 1 0 6 4 12 10 14 12 19
14 30 15 9 0 26 -6 26 -9 0 -1 6 -4 14 -8 12 -7 14 -7 33 -7 11 0 34 2 50 4
17 2 35 4 42 4 24 3 63 23 63 33 0 1 1 2 2 2 1 0 6 8 10 17 11 23 12 24 29 24
10 0 18 -2 31 -7 15 -5 21 -6 39 -7 13 0 23 -2 28 -4 13 -6 30 0 33 10 3 10 1
22 -7 32 -3 4 -9 12 -12 17 -13 19 -32 28 -57 28 -15 0 -18 9 -13 34 4 21 1
33 -9 39 -13 8 -48 11 -66 7z m843 -93 c7 -7 0 -25 -8 -22 -6 2 -13 11 -13 15
0 10 13 15 21 7z m-845 -2 c8 -8 4 -42 -6 -46 -19 -7 -45 -9 -53 -3 -6 5 -12
32 -7 32 1 0 2 1 2 3 0 2 4 5 8 8 17 11 48 15 56 6z m866 -45 c4 -2 10 -5 14
-8 6 -5 7 -5 5 -17 -1 -14 2 -28 6 -34 6 -5 20 -11 30 -11 14 1 21 -7 21 -22
0 -24 -20 -30 -44 -14 -6 5 -13 9 -15 9 -1 0 -6 1 -10 3 -5 1 -12 2 -16 2 -10
-1 -34 -8 -38 -11 -1 -2 -4 -3 -5 -3 -1 0 -2 -1 -2 -2 0 -3 -16 -12 -21 -12
-6 0 -13 7 -13 13 0 7 18 24 21 20 2 -1 5 2 14 13 5 6 17 25 17 27 0 1 2 5 5
8 3 4 8 12 11 18 5 10 13 23 13 23 0 0 3 -1 7 -2z m-232 -2 c0 -1 2 -2 4 -2 2
0 4 -1 4 -2 0 -1 -2 -2 -4 -2 -2 0 -4 -1 -4 -2 -1 -2 -2 -2 -5 0 -3 3 -3 4 -1
7 3 3 6 4 6 1z m69 -4 c10 -9 3 -26 -10 -26 -5 0 -9 2 -15 8 -9 8 -9 13 -1 15
3 1 6 3 7 4 4 4 14 4 19 -1z m-1059 -131 l-5 -5 -4 4 -5 5 4 4 5 5 4 -4 5 -5
-4 -4z m188 -34 c7 -9 6 -28 -2 -35 -6 -6 -7 -6 -18 -6 -11 0 -12 0 -18 6 -8
8 -9 27 -1 35 8 10 31 10 39 0z m934 -30 c20 -9 19 -39 -2 -39 -11 0 -23 5
-27 11 -5 9 -6 22 -1 27 5 5 19 5 30 1z m116 -154 c34 -7 34 -6 34 -42 1 -19
2 -30 4 -35 3 -6 3 -6 -3 -11 -6 -6 -19 -5 -26 2 -4 3 -5 5 -5 20 1 19 -2 29
-11 36 -5 6 -7 6 -17 5 -12 -2 -18 -7 -31 -26 -9 -15 -17 -20 -31 -19 -16 1
-25 8 -27 21 -4 23 6 36 30 37 11 1 32 7 44 13 10 5 11 5 39 -1z m-547 -13
c10 -10 6 -36 -6 -36 -3 0 -5 -1 -5 -2 0 -2 -10 -1 -16 1 -14 6 -18 26 -7 37
9 9 24 9 34 0z m-313 -16 c5 -5 5 -15 0 -20 -9 -9 -24 -2 -24 10 0 8 6 14 14
14 3 0 8 -2 10 -4z m77 -170 c5 -5 5 -7 5 -20 0 -21 -5 -44 -10 -49 -9 -10
-23 -5 -28 11 -3 10 -7 36 -6 45 0 19 25 27 39 13z m567 -56 c9 -16 2 -34 -14
-34 -22 0 -25 30 -4 37 11 4 15 3 18 -3z m-937 -26 c0 0 2 0 4 0 2 0 3 -1 3
-3 0 -2 1 -4 3 -4 8 -3 0 -18 -9 -18 -9 0 -17 15 -9 18 2 0 3 3 3 6 0 4 1 5 2
4 0 -2 2 -3 3 -3z m1085 -76 c9 -8 9 -26 0 -34 -10 -11 -35 -7 -39 6 -3 9 0
24 6 29 8 8 25 7 33 -1z m26 -105 c21 -9 20 -45 -2 -54 -10 -5 -28 -1 -34 6
-9 10 -9 32 0 42 7 8 24 11 36 6z m-1088 -7 c7 -7 3 -26 -11 -48 -10 -16 -12
-33 -6 -54 3 -12 2 -20 -2 -30 -1 -2 -8 -7 -16 -12 -16 -8 -18 -10 -34 -25
-10 -10 -12 -11 -20 -11 -11 0 -17 6 -19 19 -2 17 0 22 23 45 21 22 26 30 28
42 1 4 2 8 2 9 1 1 1 8 1 16 0 18 2 22 15 36 17 17 30 22 39 13z m1113 -126
c6 -6 7 -16 1 -21 -10 -9 -26 -3 -26 10 0 13 16 20 25 11z m-1298 -45 c3 -3 3
-3 0 -6 -3 -4 -7 -2 -7 3 0 6 3 7 7 3z m48 -59 c4 -6 4 -24 -1 -30 -7 -9 -27
-9 -34 0 -5 6 -5 24 0 30 7 9 27 9 35 0z m451 -81 c8 -8 2 -28 -8 -26 -6 2
-14 10 -14 16 0 11 14 17 22 10z"/>
<path d="M1062 3750 c-3 -1 -6 -1 -7 0 0 0 -1 0 -1 -2 0 -1 -1 -2 -3 -2 -5 0
-16 -15 -18 -24 -1 -7 0 -10 5 -22 12 -25 12 -24 34 -24 13 1 19 2 20 4 1 3 3
5 15 15 12 10 15 17 15 30 -1 8 -2 11 -6 15 -13 10 -38 15 -54 10z"/>
<path d="M667 2908 c-9 -3 -12 -15 -7 -28 3 -7 8 -9 23 -10 11 0 11 0 14 6 3
7 3 16 0 28 -2 7 -2 7 -13 7 -6 0 -13 -1 -17 -3z"/>
<path d="M786 2779 c-17 -9 -18 -10 -20 -20 -2 -9 -2 -13 0 -21 2 -12 3 -29 0
-31 -3 -2 -1 -35 3 -38 2 -2 3 -2 3 -1 0 1 2 0 4 -1 6 -6 13 -11 14 -11 1 0 2
-1 2 -2 0 -6 15 -22 24 -27 6 -4 13 -4 82 -4 l75 0 9 6 c9 6 9 6 10 18 0 6 1
12 1 13 1 1 0 2 -1 2 -4 0 -25 24 -31 35 -3 7 -8 15 -11 18 -5 5 -27 15 -33
15 -5 0 -11 7 -20 23 -7 13 -10 17 -18 22 l-10 6 -39 1 c-31 0 -40 0 -44 -3z"/>
<path d="M725 2661 c3 -1 4 -2 3 -9 0 -5 0 -8 2 -8 1 0 2 1 2 2 0 1 1 3 1 5 0
1 1 2 2 2 1 0 3 1 5 2 2 0 4 1 6 2 2 0 2 1 -1 1 -2 0 1 1 6 2 8 1 6 1 -10 1
-11 0 -18 0 -16 0z"/>
<path d="M1565 2593 c-8 -3 -23 -13 -23 -15 0 -1 -2 -3 -4 -5 -14 -15 -15 -42
-2 -49 6 -3 23 -2 33 2 18 8 31 3 31 -12 0 -12 -6 -16 -24 -15 -20 1 -29 -1
-43 -10 -22 -14 -44 -7 -43 14 2 40 0 52 -12 64 -2 2 -5 7 -7 10 -3 5 -4 5
-20 5 l-16 -1 -5 -13 c-3 -7 -6 -15 -7 -18 0 -3 -7 -12 -13 -19 -17 -17 -19
-21 -19 -36 0 -22 17 -44 38 -50 10 -3 71 -4 71 -1 0 1 5 1 12 1 7 0 12 0 12
-1 0 -1 43 -2 96 -2 l97 0 10 5 c11 5 17 13 29 35 4 6 10 10 19 10 3 1 4 2 4
2 -1 1 1 2 4 3 4 1 5 3 6 9 0 4 0 2 0 -4 -1 -7 0 -12 1 -12 4 1 6 -1 10 -8 12
-23 18 -30 29 -35 11 -5 12 -5 37 -4 31 1 32 1 32 3 0 1 1 2 3 2 4 0 14 12 18
21 4 11 4 89 0 100 -4 9 -14 21 -18 21 -2 0 -3 1 -3 2 0 1 -1 1 -2 1 -2 0 -5
1 -8 2 -3 1 -8 0 -14 -3 -12 -7 -18 -19 -20 -42 -2 -25 -2 -25 -52 -29 -15 -1
-15 -1 -18 4 -1 3 -3 7 -2 8 0 0 -1 1 -3 1 -6 0 -13 10 -13 17 1 7 -5 26 -10
33 -8 12 -12 12 -102 12 -63 0 -83 -1 -89 -3z"/>
<path d="M683 2411 c-8 -2 -21 -8 -21 -9 0 -1 -1 -2 -2 -2 -6 0 -40 -29 -43
-37 -4 -9 -4 -23 0 -38 3 -15 2 -23 -5 -34 -4 -6 -4 -9 -3 -18 2 -22 10 -27
41 -27 22 0 33 3 41 12 4 5 8 27 4 29 -5 2 -12 24 -11 36 2 16 7 21 24 21 15
0 21 -3 33 -19 11 -13 17 -24 18 -36 2 -19 11 -33 24 -39 14 -7 53 -6 79 2 11
4 24 6 27 6 3 0 16 -2 27 -6 12 -3 25 -6 32 -6 15 0 20 -2 20 -6 0 -3 2 -4 7
-5 5 0 5 0 -2 -1 -6 0 -10 -1 -13 -5 -10 -11 -11 -15 -10 -38 l0 -21 -17 -19
c-10 -10 -19 -19 -20 -20 -1 -1 -4 -5 -7 -8 -2 -4 -8 -11 -13 -16 -11 -12 -17
-25 -19 -38 -1 -15 3 -22 39 -59 16 -16 23 -24 28 -35 4 -9 10 -17 13 -19 7
-5 21 -10 26 -9 28 5 147 33 154 36 15 8 24 23 21 40 -3 21 -40 142 -56 184
-8 20 -12 27 -17 27 -2 0 -2 1 1 1 2 1 5 4 7 6 3 3 9 8 15 11 l11 7 0 13 c1
12 0 15 -3 19 -18 19 -17 41 3 41 8 0 19 -9 23 -18 1 -3 3 -4 12 -4 7 -1 14
-1 15 -1 2 0 5 -2 7 -4 3 -4 3 -4 3 2 0 5 4 22 8 32 3 9 12 12 31 11 2 0 6 -3
9 -6 5 -5 6 -7 6 -17 0 -16 -3 -19 -21 -28 -9 -4 -16 -9 -16 -10 -1 -2 -2 -3
-3 -2 -3 2 -4 -3 -2 -7 2 -3 2 -9 2 -13 0 -5 1 -9 2 -9 3 0 3 -7 0 -12 -2 -2
-6 -4 -9 -5 -3 -1 -5 -3 -5 -4 0 -2 -1 -3 -2 -3 -5 0 -8 -24 -4 -32 5 -9 30
-15 46 -11 1 0 4 -4 5 -9 4 -11 20 -27 37 -37 17 -11 22 -24 17 -42 -2 -6 -4
-11 -5 -11 0 0 -4 -3 -7 -6 -6 -5 -7 -7 -7 -18 -1 -8 0 -14 1 -15 5 -5 10 -7
14 -4 6 2 19 -2 24 -7 6 -7 29 -70 29 -81 0 -10 7 -14 24 -15 13 0 16 0 18 3
11 14 13 15 24 15 7 0 13 -1 16 -4 7 -4 35 -29 43 -38 25 -27 33 -32 58 -32
14 0 33 4 42 10 17 9 30 10 51 3 47 -17 139 11 182 55 14 15 20 26 21 37 0 6
0 11 -1 11 -1 0 -2 3 -3 6 -1 3 -7 9 -13 14 -13 10 -17 16 -17 29 0 13 6 24
22 40 14 14 35 44 36 51 0 2 1 4 2 5 2 0 3 2 3 3 0 2 2 4 4 5 5 4 7 26 4 40
-2 8 -10 24 -14 27 -4 3 -7 14 -11 41 l-5 31 6 8 c3 4 8 8 10 9 3 1 8 9 14 21
5 10 5 39 1 49 -4 9 -14 21 -18 21 -2 0 -3 1 -3 2 0 2 -11 3 -63 3 l-52 0 -9
-6 c-6 -3 -12 -9 -15 -14 -12 -19 -17 -23 -28 -23 -11 0 -16 4 -28 23 -3 5 -9
11 -15 14 l-9 6 -326 1 c-298 0 -328 0 -344 -3 -17 -3 -19 -3 -61 0 -11 1 -14
1 -19 -3 -6 -4 -7 -4 -7 -19 -1 -14 -1 -15 4 -18 17 -11 15 -35 -2 -35 -7 0
-14 4 -27 16 -5 5 -12 10 -14 12 -2 2 -8 9 -12 16 -19 33 -23 34 -72 34 -20 0
-38 -1 -40 -1z m860 -43 c10 -6 11 -9 10 -36 0 -28 2 -33 14 -44 12 -9 15 -16
15 -28 0 -12 -2 -15 -17 -35 -5 -7 -6 -9 -5 -20 0 -10 1 -12 10 -21 l10 -11
10 2 c13 1 16 2 31 12 19 14 37 8 37 -12 0 -5 -1 -11 -2 -13 -10 -11 -18 -45
-12 -49 2 -2 3 -12 0 -14 -2 -1 -12 -32 -12 -37 0 -12 16 -33 21 -29 0 1 1 1
1 0 0 -4 22 -1 31 4 12 7 30 7 38 0 10 -9 9 -31 -2 -44 -4 -4 -13 -14 -19 -22
-7 -8 -15 -16 -18 -17 -10 -4 -25 -3 -34 2 -4 3 -10 6 -13 8 -6 2 -36 3 -38 0
-2 -4 -9 -2 -12 3 -3 4 -3 6 -1 15 3 13 2 33 -3 42 -2 4 -3 7 -3 8 0 1 -2 6
-4 11 -5 11 -7 16 -7 19 -1 4 -5 8 -10 8 -2 0 -5 1 -7 3 -6 5 -24 7 -64 7 -49
0 -53 -1 -74 -21 -19 -20 -29 -20 -38 0 -7 15 0 22 35 33 12 4 25 10 29 13 14
9 19 29 13 44 -13 29 -29 61 -34 66 -5 6 -28 19 -33 19 0 0 -3 3 -6 6 -4 5 -4
7 -2 11 3 8 7 8 31 1 21 -6 25 -6 54 -6 43 0 51 4 62 28 4 9 5 13 3 15 -1 2
-2 7 -3 11 0 4 -5 13 -10 21 -8 12 -9 15 -9 25 0 5 1 12 2 14 3 6 14 12 22 12
4 0 10 -2 13 -4z m-542 -51 c5 -8 1 -16 -8 -16 -9 0 -13 8 -8 16 2 3 5 5 8 5
3 0 6 -2 8 -5z m432 0 c3 -5 3 -5 0 -10 -2 -3 -5 -5 -7 -5 -2 0 -5 2 -7 5 -3
5 -3 5 0 10 2 3 5 5 7 5 2 0 5 -2 7 -5z m-158 -67 c2 -3 3 -8 3 -15 0 -13 -5
-20 -17 -22 -5 -1 -13 -3 -20 -5 l-12 -3 -4 7 c-6 11 -15 22 -19 22 -2 0 -2 1
0 1 1 1 2 2 1 3 -1 1 1 2 3 3 2 1 4 2 4 3 0 2 1 2 1 1 1 0 4 1 8 2 3 2 12 5
20 7 16 4 26 3 32 -4z m519 -61 c6 -6 6 -24 0 -29 -6 -6 -23 -6 -29 1 -7 6 -7
21 -1 28 7 8 23 8 30 0z m-437 0 c12 -12 3 -31 -13 -31 -11 0 -18 7 -18 18 0
11 7 18 18 18 6 0 9 -1 13 -5z"/>
<path d="M1590 2133 c-3 -2 -6 -5 -6 -6 0 -2 -1 -3 -3 -3 -4 0 -11 -16 -11
-24 0 -3 1 -10 3 -14 3 -8 4 -8 11 -7 4 1 11 1 15 1 7 0 8 1 11 6 2 4 3 8 3 9
0 0 1 1 1 2 0 0 1 2 1 5 1 2 2 7 4 10 9 17 -9 30 -29 21z"/>
<path d="M247 2249 c-11 -3 -20 -12 -26 -25 -14 -29 -17 -37 -21 -50 -6 -21
-10 -28 -23 -40 -6 -6 -13 -15 -16 -20 -3 -5 -6 -10 -7 -11 -1 -1 -9 -12 -18
-24 -16 -21 -20 -26 -33 -41 -6 -6 -7 -8 -7 -19 0 -22 2 -23 57 -48 17 -7 35
-15 40 -18 6 -2 12 -5 15 -6 3 -1 11 -5 19 -8 8 -4 16 -7 17 -7 1 0 2 -1 2 -2
1 -1 16 -8 48 -23 21 -9 23 -10 34 -8 7 0 14 2 15 3 13 10 30 30 48 55 6 10 7
13 7 22 0 16 -4 23 -26 45 -28 28 -32 36 -21 46 9 8 18 5 38 -15 15 -16 19
-18 31 -16 21 3 31 14 29 31 -2 13 -6 20 -20 30 -13 10 -13 10 -13 21 0 8 1
11 8 18 8 8 8 8 8 23 0 15 -3 22 -8 22 -2 0 -22 8 -57 24 -4 2 -13 6 -19 8 -6
2 -14 6 -17 7 -35 16 -64 27 -69 28 -3 0 -9 0 -15 -2z"/>
<path d="M719 2220 c-5 -9 -8 -24 -7 -31 4 -13 -3 -27 -13 -27 -8 0 -13 7 -15
19 -4 26 -14 37 -31 37 -10 0 -11 -1 -19 -8 -5 -5 -10 -10 -11 -12 -3 -5 -12
-10 -19 -10 -6 0 -14 4 -24 11 -2 1 -11 5 -18 7 -28 9 -55 -3 -63 -28 -4 -15
2 -46 13 -58 5 -7 22 -18 22 -15 0 0 3 -1 7 -2 4 -2 9 -3 12 -3 12 0 20 -16
16 -35 -1 -6 -3 -8 -15 -16 -26 -17 -30 -28 -25 -67 1 -10 3 -24 4 -29 1 -13
8 -28 15 -34 9 -7 25 -7 30 0 9 12 10 23 3 41 -10 24 -6 45 9 50 14 6 34 2 41
-8 1 -3 4 -12 6 -21 10 -47 23 -58 63 -52 21 3 30 11 32 30 l0 12 -13 14 c-12
12 -36 29 -41 29 0 0 -4 3 -8 6 -7 7 -9 20 -3 27 3 4 21 11 51 20 19 5 23 2
24 -19 2 -20 6 -28 18 -40 10 -9 11 -10 21 -10 9 0 11 1 16 6 5 7 6 23 0 34
-10 23 -11 29 -11 51 0 24 -2 34 -15 90 -2 7 -4 14 -4 17 -2 6 -7 16 -13 23
-4 5 -6 6 -18 6 -13 0 -14 0 -17 -5z"/>
<path d="M868 2211 c-5 -2 -6 -8 -5 -21 1 -9 1 -12 -1 -12 -2 0 -1 -1 1 -3 3
-3 19 -4 19 -1 0 1 1 2 2 2 4 -1 5 1 5 7 0 4 -1 7 -1 7 -1 0 -2 2 -3 4 -1 2
-2 4 -3 3 -1 -1 -1 1 -1 4 0 3 0 5 -1 4 -2 -1 -10 3 -9 5 1 1 1 2 1 2 -1 0 -2
-1 -4 -1z"/>
</g>
</svg>
