<?xml version="1.0" standalone="no"?>
<!DOCTYPE svg PUBLIC "-//W3C//DTD SVG 20010904//EN"
 "http://www.w3.org/TR/2001/REC-SVG-20010904/DTD/svg10.dtd">
<svg version="1.0" xmlns="http://www.w3.org/2000/svg"
 width="1000.000000pt" height="2850.000000pt" viewBox="0 0 1000.000000 2850.000000"
 preserveAspectRatio="xMidYMid meet">
<metadata>
Created by potrace 1.15, written by Peter Selinger 2001-2017
</metadata>
<g transform="translate(0.000000,2850.000000) scale(0.500000,-0.500000)"
fill="#000000" stroke="none">
<path d="M438 3656 c-3 -1 -6 -1 -7 0 0 0 -1 0 -1 -2 0 -1 -1 -2 -3 -2 -4 0
-14 -12 -18 -21 -3 -7 -3 -17 -3 -76 1 -75 0 -67 16 -96 8 -14 8 -20 0 -34
-13 -24 -15 -27 -16 -41 0 -10 0 -16 3 -22 4 -10 14 -22 18 -22 2 0 3 -1 3 -2
0 -1 1 -2 3 -2 1 0 100 -1 220 -1 236 -1 229 -1 245 9 7 5 13 15 15 24 8 40
12 46 26 50 12 4 20 -2 25 -16 2 -7 3 -15 3 -20 -2 -12 -2 -13 0 -19 4 -17 6
-21 18 -26 4 -2 17 -2 49 -2 50 0 54 1 73 20 13 13 17 16 30 16 13 0 17 -3 30
-16 10 -10 25 -19 33 -20 2 0 4 0 4 -1 0 -2 13 -5 29 -7 4 -1 10 -2 14 -4 3
-1 7 -2 8 -2 3 1 8 -4 8 -10 0 -6 -4 -11 -9 -11 -7 0 -18 -5 -19 -9 -2 -6 -1
-17 1 -26 2 -5 4 -8 10 -10 4 -2 7 -3 8 -3 1 0 3 -2 6 -4 8 -8 4 -28 -7 -30
-4 -1 -24 -11 -25 -12 0 -1 -2 -4 -4 -6 -9 -10 -10 -16 -10 -58 0 -56 4 -64
34 -74 3 -1 6 -1 6 0 0 1 6 1 12 0 2 0 8 -13 8 -18 -1 -7 9 -35 14 -42 1 -3 6
-9 9 -14 5 -7 6 -10 6 -20 0 -19 -8 -27 -27 -27 -13 0 -22 5 -22 12 0 2 -1 3
-1 2 -1 -2 -6 -3 -13 -3 -8 0 -13 -1 -15 -3 -1 -2 -3 -2 -4 -2 0 1 -2 -2 -4
-7 -3 -7 -3 -23 -3 -149 0 -132 0 -140 4 -148 4 -10 8 -14 21 -18 6 -2 11 -5
13 -7 1 -2 2 -2 2 0 0 2 1 1 3 -1 3 -3 3 -3 0 -6 -2 -2 -3 -3 -3 -1 0 2 -1 2
-2 0 -2 -2 -7 -5 -13 -7 -13 -4 -17 -8 -21 -18 -4 -8 -4 -17 -4 -161 0 -159
-1 -172 -8 -182 -2 -3 -11 -9 -19 -13 -18 -9 -24 -14 -33 -34 -11 -22 -14 -25
-31 -26 -16 -1 -23 5 -32 24 -7 16 -18 27 -29 31 -4 1 -26 2 -48 3 -44 1 -49
0 -60 -10 -4 -5 -12 -28 -10 -31 2 -4 3 -30 1 -36 -2 -7 -9 -12 -14 -11 -19 6
-28 16 -37 37 -14 35 -17 40 -37 49 -18 8 -31 5 -38 -8 -5 -11 -4 -21 5 -40
15 -33 46 -108 49 -119 4 -14 18 -52 25 -65 4 -9 8 -20 9 -24 2 -12 8 -30 12
-36 2 -3 8 -7 15 -9 11 -4 12 -4 104 -3 98 1 129 2 140 5 15 4 24 16 24 31 0
10 -6 17 -24 29 -20 12 -24 21 -16 30 5 5 8 5 28 -2 9 -3 23 -7 31 -8 8 -1 16
-3 18 -3 3 -1 10 -7 16 -15 9 -12 14 -15 26 -21 15 -7 44 -15 55 -15 11 0 34
9 41 16 7 7 15 28 15 39 0 12 15 19 28 12 20 -10 38 -9 49 3 26 25 45 57 57
93 5 14 -3 33 -16 43 -11 8 -16 18 -13 27 1 2 6 6 12 8 9 5 20 12 24 16 1 1 4
6 7 11 4 9 4 13 4 47 0 46 -1 50 -22 75 -15 16 -29 26 -45 31 -7 1 -27 1 -49
0 -13 -1 -15 -1 -18 3 -5 6 -5 12 0 18 3 4 5 4 32 4 23 0 30 -1 40 -4 14 -5
29 -6 36 -4 9 4 19 18 24 36 2 7 2 78 1 300 0 160 -1 297 -1 305 0 8 1 31 1
52 2 60 0 64 -30 68 -3 0 -6 1 -6 2 -1 0 -3 0 -4 -2 -5 -5 -18 -4 -24 2 -7 7
-7 19 0 26 6 6 19 7 24 2 1 -2 3 -2 4 -2 0 1 3 2 6 2 21 3 26 5 29 18 1 6 2
67 2 214 0 182 0 205 -3 212 -4 9 -14 21 -18 21 -2 0 -3 1 -3 2 0 1 -2 2 -3 2
-18 2 -30 -2 -43 -15 -19 -17 -33 -17 -52 0 -4 4 -11 9 -15 12 -8 4 -8 4 -127
5 -136 0 -133 1 -150 -16 -5 -5 -10 -10 -10 -11 0 -4 -11 -9 -18 -9 -7 0 -18
5 -18 9 0 1 -4 6 -10 11 -18 17 8 16 -331 16 -165 0 -302 -1 -305 -2z m503
-48 c13 -6 16 -27 4 -49 -7 -14 -11 -28 -14 -46 -3 -20 -18 -26 -42 -19 -26 8
-45 19 -50 30 -4 7 -4 7 -14 20 -10 11 -16 14 -35 16 -21 2 -26 6 -21 16 4 9
34 24 48 24 10 0 10 0 33 -25 6 -6 26 -7 32 -1 5 3 20 26 20 28 0 2 8 6 15 8
7 2 15 1 24 -2z m396 -14 c11 -10 3 -28 -11 -28 -9 0 -16 6 -16 16 0 14 17 22
27 12z m-294 -33 c4 -4 5 -7 5 -13 0 -11 -7 -18 -18 -18 -11 0 -18 7 -18 18 0
11 7 18 18 18 6 0 9 -1 13 -5z m288 -45 c7 -3 12 -13 12 -25 0 -19 -9 -28 -28
-28 -19 0 -28 9 -28 28 0 17 6 24 22 28 5 1 14 -1 22 -3z m114 -9 c3 -5 3 -5
0 -10 -2 -3 -5 -5 -7 -5 -2 0 -5 2 -7 5 -3 5 -3 5 0 10 2 3 5 5 7 5 2 0 5 -2
7 -5z m-942 -75 c7 -6 7 -19 1 -25 -6 -7 -19 -7 -25 -1 -7 6 -7 19 -1 25 6 7
19 7 25 1z m530 -32 c10 -9 3 -26 -10 -26 -8 0 -14 6 -14 15 -1 13 15 20 24
11z m306 -58 c6 -6 7 -17 1 -23 -6 -6 -21 -7 -28 -1 -7 5 -6 18 0 24 7 6 21 5
27 0z m-34 -224 c4 -3 5 -7 5 -12 0 -8 -5 -14 -16 -19 -8 -3 -8 -3 -13 3 -6 7
-5 20 2 28 5 5 16 6 22 0z m146 -57 c3 -5 3 -5 0 -10 -2 -3 -5 -5 -7 -5 -2 0
-5 2 -7 5 -3 5 -3 5 0 10 2 3 5 5 7 5 2 0 5 -2 7 -5z m-154 -347 c11 -10 3
-28 -11 -28 -9 0 -16 6 -16 16 0 14 17 22 27 12z m194 -25 c4 -4 5 -7 5 -13 0
-11 -7 -18 -18 -18 -11 0 -18 7 -18 18 0 11 7 18 18 18 6 0 9 -1 13 -5z m-145
-49 c5 -6 5 -12 0 -18 -7 -8 -22 -2 -22 9 0 11 15 17 22 9z m33 -334 c6 -6 7
-19 1 -26 -3 -4 -5 -4 -11 -3 -11 2 -17 8 -17 17 0 14 17 22 27 12z m100 -21
c4 -4 5 -7 5 -15 0 -9 -1 -11 -7 -17 -4 -4 -11 -9 -15 -11 -4 -2 -11 -8 -16
-13 -13 -14 -17 -17 -29 -17 -14 0 -19 6 -19 21 0 15 6 23 20 28 6 2 13 7 18
13 13 13 17 16 29 16 7 0 10 -1 14 -5z m-151 -95 c5 -6 5 -12 0 -18 -7 -8 -22
-2 -22 9 0 11 15 17 22 9z m107 -75 c5 -8 1 -16 -8 -16 -9 0 -13 8 -8 16 2 3
5 5 8 5 3 0 6 -2 8 -5z m-403 -8 c4 -4 4 -6 3 -16 -1 -7 -2 -13 -3 -14 -1 -1
-3 -6 -5 -12 -5 -14 -3 -23 8 -42 16 -27 11 -45 -11 -45 -12 0 -15 3 -25 22
-4 8 -8 15 -9 16 -1 1 -2 2 -3 4 -1 2 -5 7 -8 12 -7 11 -8 23 -1 35 8 15 25
38 29 41 6 6 19 5 25 -1z"/>
</g>
</svg>
