<?xml version="1.0" standalone="no"?>
<!DOCTYPE svg PUBLIC "-//W3C//DTD SVG 20010904//EN"
 "http://www.w3.org/TR/2001/REC-SVG-20010904/DTD/svg10.dtd">
<svg version="1.0" xmlns="http://www.w3.org/2000/svg"
 width="1000.000000pt" height="2850.000000pt" viewBox="0 0 1000.000000 2850.000000"
 preserveAspectRatio="xMidYMid meet">
<metadata>
Created by potrace 1.15, written by Peter Selinger 2001-2017
</metadata>
<g transform="translate(0.000000,2850.000000) scale(0.500000,-0.500000)"
fill="#000000" stroke="none">
<path d="M859 3812 c-25 -4 -32 -11 -44 -46 -4 -12 -8 -23 -9 -25 -1 -2 -5
-11 -8 -20 -3 -9 -7 -19 -9 -22 -1 -3 -7 -16 -12 -28 -10 -23 -43 -88 -56
-112 -11 -19 -14 -23 -31 -50 -8 -13 -14 -25 -14 -26 0 -1 -2 -5 -4 -9 -2 -4
-3 -8 -3 -9 1 0 1 -1 -1 -1 -1 0 -2 -2 -3 -4 -1 -2 -5 -6 -9 -8 -4 -3 -8 -5
-8 -6 0 -5 -59 -76 -87 -106 -19 -19 -25 -24 -33 -24 -3 0 -27 9 -53 19 -42
17 -49 19 -57 19 -15 -2 -24 -7 -34 -23 -5 -8 -19 -28 -30 -45 -11 -17 -22
-33 -24 -36 -6 -8 -21 -27 -25 -33 -2 -3 -5 -6 -6 -8 -1 -1 -7 -9 -14 -17 -7
-8 -12 -15 -13 -16 -1 -1 -3 -4 -6 -7 -13 -17 -65 -74 -95 -104 -39 -39 -76
-72 -132 -118 -20 -17 -22 -34 -6 -64 17 -31 24 -37 53 -46 7 -2 13 -5 15 -8
4 -5 4 -22 0 -30 -13 -24 -12 -33 5 -77 8 -19 17 -41 19 -49 13 -36 18 -41 39
-41 16 0 34 17 49 47 5 10 11 20 14 22 10 6 30 5 37 -3 5 -4 8 -17 7 -27 -1
-6 -5 -11 -16 -23 -10 -11 -16 -19 -18 -25 -3 -8 -3 -38 -3 -258 0 -246 0
-248 4 -270 l5 -22 -5 -22 c-5 -28 -6 -127 -1 -140 4 -9 14 -21 18 -21 2 0 3
-1 3 -2 0 -2 10 -3 60 -3 l50 0 7 6 c8 7 21 29 21 37 0 12 11 21 27 21 16 0
27 -9 27 -21 0 -8 13 -30 20 -37 6 -4 10 -5 15 -5 12 0 15 1 15 2 0 1 1 2 3 2
4 0 14 12 18 21 2 6 3 17 3 67 0 39 -1 62 -2 66 -3 8 -8 14 -10 13 -1 -1 -2 0
-2 1 0 1 -3 2 -8 3 -4 1 -9 2 -12 3 -4 1 -6 1 -7 -1 -2 -5 -16 -4 -21 2 -6 6
-5 17 1 23 5 5 18 6 20 1 1 -2 3 -2 7 -1 3 1 8 2 13 3 4 1 7 2 7 3 0 1 1 2 2
1 4 -2 12 14 12 26 0 9 -4 22 -10 27 -4 5 -25 16 -29 16 -3 0 -9 9 -9 13 0 4
6 13 9 13 4 0 25 11 29 16 10 10 10 12 10 161 l0 139 -5 11 c-5 10 -6 11 -19
17 -7 4 -15 7 -18 7 -8 1 -15 4 -20 9 -4 4 -6 4 -18 3 -12 -1 -13 -1 -20 -9
-5 -5 -8 -10 -8 -11 0 -7 -26 -13 -36 -8 -22 9 -23 45 -2 54 12 5 29 2 38 -7
4 -4 6 -4 17 -3 10 0 15 2 17 4 7 7 22 29 28 43 3 7 7 15 8 16 1 2 2 5 2 7 0
2 7 10 15 19 21 23 21 21 21 99 0 77 0 78 -21 100 -22 23 -22 39 0 62 18 18
20 24 21 63 1 36 3 43 14 60 13 19 25 37 26 38 3 3 28 43 28 45 0 2 1 5 2 8 2
6 3 8 5 17 0 2 1 5 3 7 1 3 1 5 0 6 0 1 0 1 1 1 1 -1 6 2 10 5 5 3 10 5 11 5
1 0 4 4 7 10 14 24 27 27 46 9 1 -1 5 -4 8 -6 3 -2 7 -5 9 -7 2 -2 8 -6 12
-10 4 -3 12 -10 19 -15 14 -11 18 -13 31 -12 13 0 18 3 27 15 4 5 7 8 7 7 0 0
4 1 9 3 9 4 18 4 31 -1 5 -2 11 -3 14 -3 3 0 17 -3 31 -6 33 -7 34 -9 34 -29
0 -14 0 -16 -6 -20 -4 -4 -7 -5 -18 -5 -12 0 -13 1 -24 9 -7 5 -14 11 -17 13
-4 4 -7 5 -18 5 -15 -1 -25 -4 -27 -9 -1 -2 -2 -4 -2 -3 -1 0 -3 -1 -5 -3 -3
-4 -4 -4 -4 -2 0 5 -14 8 -36 8 -21 0 -29 -2 -51 -14 -18 -10 -24 -10 -41 -1
-11 7 -14 8 -24 7 -13 0 -19 -4 -24 -18 -4 -8 -4 -15 -4 -110 0 -88 0 -103 3
-109 4 -9 14 -21 18 -21 2 0 3 -1 3 -2 0 -1 0 -2 15 -3 5 0 9 0 9 1 0 1 1 2 3
2 6 0 10 8 11 22 1 11 1 14 -2 16 -2 1 -3 5 -3 17 0 14 0 16 6 20 4 4 7 5 18
5 11 0 14 -1 18 -5 6 -4 6 -6 6 -20 0 -12 -1 -16 -3 -17 -3 -2 -3 -5 -2 -16 1
-14 5 -22 11 -22 2 0 3 -1 3 -2 0 -1 13 -2 34 -1 l33 0 6 -6 6 -6 0 -99 0 -99
-6 -6 -6 -6 -77 0 c-77 0 -88 0 -88 -3 0 -1 -1 -2 -3 -2 -4 0 -14 -12 -18 -22
-2 -5 -3 -11 -3 -17 1 -8 7 -23 10 -23 0 1 4 0 7 -2 3 -1 9 -3 13 -3 4 -1 8
-2 8 -4 1 -1 2 -1 2 2 0 5 12 4 16 -1 5 -6 5 -12 0 -18 -4 -5 -16 -6 -16 0 0
2 -1 2 -2 1 0 -2 -4 -3 -8 -4 -4 0 -10 -2 -13 -3 -3 -2 -7 -3 -7 -2 -1 0 -3
-3 -5 -8 -6 -10 -7 -120 -2 -133 4 -9 14 -21 18 -21 2 0 3 -1 3 -2 0 -2 1 -2
48 -3 l43 -1 6 -6 c4 -3 6 -6 5 -6 -3 0 -5 -11 -4 -26 0 -7 -1 -18 -1 -25 -1
-12 -2 -12 -15 -25 -8 -8 -14 -15 -14 -16 0 -1 -1 -2 -2 -2 -1 0 -8 -12 -15
-27 -15 -30 -15 -32 -9 -65 3 -13 3 -14 -2 -19 -2 -2 -9 -5 -14 -7 -6 -1 -12
-3 -13 -4 -1 -1 -4 -2 -7 -3 -8 -2 -15 -8 -31 -30 -9 -11 -21 -27 -28 -35 -12
-14 -13 -15 -13 -25 0 -17 5 -25 19 -34 6 -4 29 -19 53 -34 7 -5 21 -14 31
-20 10 -6 24 -15 31 -20 63 -40 63 -41 74 -41 14 0 25 6 38 23 28 36 31 42 37
70 5 26 5 26 26 42 4 3 9 7 11 9 3 3 16 23 16 25 0 0 5 12 12 26 7 14 12 26
12 26 0 1 3 7 6 14 3 7 10 23 14 35 5 11 11 28 14 36 6 16 14 38 19 54 6 16 2
35 -9 45 -7 6 -28 16 -50 23 -29 10 -45 9 -59 -5 -5 -4 -17 -27 -17 -31 0 -1
-2 -4 -5 -6 -8 -6 -29 -6 -36 1 -6 4 -6 6 -6 20 0 15 0 15 8 23 7 7 7 8 7 19
l-1 11 12 4 12 5 298 1 298 1 9 5 c6 4 9 8 14 18 4 6 7 15 7 18 3 18 10 24 28
25 9 1 16 -2 22 -8 4 -3 6 -6 8 -18 0 -3 4 -11 7 -18 5 -11 7 -13 16 -18 9 -4
13 -5 28 -5 23 0 35 6 45 22 12 17 17 22 25 22 8 0 15 -6 24 -21 3 -4 6 -9 6
-9 5 -3 4 -14 -2 -20 -3 -3 -6 -6 -7 -6 -1 0 -10 -4 -20 -9 -11 -5 -20 -9 -20
-9 0 0 -11 -5 -24 -11 -13 -6 -27 -13 -31 -14 -3 -2 -9 -7 -13 -11 -5 -7 -6
-10 -7 -19 0 -10 1 -12 9 -27 6 -9 11 -19 13 -22 2 -3 4 -7 6 -8 2 -3 6 -11
17 -30 3 -6 7 -12 8 -14 7 -9 60 -113 79 -156 16 -36 30 -72 36 -91 5 -15 12
-26 20 -30 10 -5 23 -6 31 -2 5 2 24 11 43 21 19 9 46 22 60 28 95 46 99 48
105 63 7 15 5 23 -20 78 -8 20 -55 110 -59 116 -1 1 -4 6 -6 10 -3 4 -6 11 -9
15 -2 4 -5 9 -6 12 -2 3 -7 11 -12 18 -4 8 -12 19 -16 26 -16 26 -42 65 -43
66 -3 1 10 12 20 17 9 5 16 10 24 20 8 10 14 13 25 13 11 0 17 -3 25 -13 12
-15 16 -17 29 -17 13 0 16 2 23 18 4 8 4 13 4 72 0 59 0 64 -4 73 -6 14 -14
20 -40 31 -8 3 -12 10 -13 24 -3 30 -17 45 -44 44 -13 -1 -14 -1 -20 5 l-6 6
0 99 0 99 6 6 c3 3 7 6 8 5 4 -1 39 10 48 15 12 6 23 18 23 23 0 2 1 4 2 5 1
1 2 36 2 98 0 84 0 98 -3 104 -4 9 -14 21 -18 21 -2 0 -3 1 -3 2 0 2 -9 3 -32
3 -20 0 -21 0 -27 6 l-6 6 0 95 0 95 6 6 c4 4 8 6 13 6 13 1 19 9 21 26 0 5 1
10 2 11 0 0 0 2 -2 3 -2 1 -3 5 -3 11 2 32 1 41 -6 54 -5 10 -7 15 -7 23 1 17
7 24 22 26 21 2 38 13 43 27 2 8 3 49 0 51 -1 0 -2 3 -3 6 -1 8 -10 19 -20 24
l-8 4 -277 1 -277 0 -10 -5 c-13 -6 -20 -15 -27 -38 -4 -11 -11 -16 -26 -16
-15 0 -22 5 -26 16 -7 23 -14 32 -27 38 -10 5 -11 5 -70 5 l-61 0 -6 6 -6 5 6
13 c3 7 6 13 6 15 0 1 1 3 2 4 1 1 8 18 15 36 12 32 13 36 12 45 -3 22 -18 32
-61 41 -3 0 -18 4 -33 8 -15 4 -29 8 -31 8 -2 0 -15 4 -30 8 -74 19 -85 22
-89 21z m91 -300 c3 -1 7 -5 9 -8 8 -12 28 -34 33 -35 5 -1 10 -12 10 -19 0
-16 -15 -20 -33 -10 -14 8 -24 13 -41 19 -11 4 -15 7 -17 12 -4 8 -4 24 0 32
5 11 23 15 39 9z m618 -13 c16 -7 20 -37 7 -48 -12 -11 -34 -11 -43 0 -9 10
-9 32 0 42 7 8 24 11 36 6z m221 -8 c4 -4 5 -7 5 -13 0 -11 -7 -18 -18 -18
-11 0 -18 7 -18 18 0 11 7 18 18 18 6 0 9 -1 13 -5z m-1078 -50 c3 -5 3 -6 1
-11 -5 -8 -12 -8 -18 0 l-4 7 4 4 c6 7 13 6 17 0z m769 -15 c5 -5 6 -7 6 -17
0 -10 -1 -12 -6 -17 -5 -5 -7 -6 -17 -6 -10 0 -12 1 -17 6 -5 5 -6 7 -6 17 0
10 1 12 6 17 5 5 7 6 17 6 10 0 12 -1 17 -6z m-405 -66 c7 -7 7 -16 0 -43 l-5
-21 0 -81 1 -82 -6 -6 c-5 -5 -8 -6 -17 -6 -9 0 -12 1 -17 6 l-6 6 1 102 c1
77 2 103 4 108 1 3 3 8 5 11 5 14 29 17 40 6z m177 3 c3 -2 9 -7 13 -11 11
-11 24 -17 36 -17 8 0 11 -1 16 -6 l6 -6 0 -95 0 -95 -6 -6 c-5 -5 -8 -6 -15
-6 -7 0 -10 1 -15 6 l-6 6 1 25 c0 34 -4 46 -25 58 -23 14 -23 26 1 41 16 10
24 23 21 36 -2 13 -22 23 -45 23 -10 0 -13 1 -17 5 -6 4 -6 6 -6 20 0 14 0 16
6 20 7 6 27 7 35 2z m319 -34 l6 -6 -1 -25 c0 -37 5 -48 32 -60 6 -3 13 -6 14
-6 3 0 10 -9 12 -17 2 -7 2 -11 0 -17 -2 -9 -9 -18 -12 -18 -4 0 -28 -12 -33
-17 -6 -5 -14 -22 -13 -27 1 -2 -1 -5 -4 -8 -4 -2 -6 -6 -6 -7 0 -2 -2 -2 -7
-1 -4 1 -8 2 -8 1 -1 0 -4 2 -8 6 -5 5 -6 7 -5 12 1 8 -8 26 -15 31 -7 6 -8 7
-19 14 -6 4 -11 9 -12 11 -2 6 -3 20 -1 27 1 4 22 20 27 20 2 0 2 6 2 18 l-1
17 -11 7 c-15 8 -18 12 -18 26 0 22 8 26 49 25 26 0 26 0 32 -6z m-1028 -67
c5 -3 20 -27 24 -38 1 -2 2 -4 3 -4 1 0 2 -1 2 -3 0 -2 1 -3 2 -3 2 0 9 -16
13 -30 4 -14 2 -18 -7 -23 -7 -4 -29 -5 -36 -2 -6 2 -14 9 -14 11 0 2 -14 30
-22 46 -12 23 -8 44 10 48 10 2 18 2 25 -2z m900 -115 c4 -4 5 -7 5 -15 0 -14
-6 -20 -20 -20 -14 0 -20 6 -20 20 0 14 6 20 20 20 8 0 11 -1 15 -5z m-258
-50 c6 -4 6 -6 6 -20 0 -14 0 -16 -6 -20 -4 -4 -7 -5 -18 -5 -11 0 -14 1 -18
5 -6 4 -6 6 -6 20 0 14 0 16 6 20 4 4 7 5 18 5 11 0 14 -1 18 -5z m-372 -7
c10 -7 13 -13 13 -23 0 -13 -6 -19 -19 -19 -13 0 -19 6 -19 19 0 6 1 11 3 13
2 2 3 5 3 6 0 10 7 12 19 4z m767 -21 l-5 -5 -4 4 -5 5 4 4 5 5 4 -4 5 -5 -4
-4z m214 -24 c20 -9 20 -45 0 -54 -12 -5 -25 -3 -37 6 -3 2 -14 9 -24 14 -25
14 -30 20 -21 29 3 3 7 3 26 4 13 0 26 1 29 2 7 2 20 1 27 -1z m-330 -24 c6
-2 11 -5 13 -8 6 -9 4 -39 -3 -51 -7 -11 -10 -12 -48 -12 -31 -1 -35 -1 -38 2
-5 5 -5 7 2 26 3 10 8 23 10 30 5 15 7 18 15 20 7 2 35 -2 49 -7z m-225 -25
c7 -7 7 -18 2 -34 -4 -12 -5 -23 -2 -47 3 -26 -4 -33 -32 -31 -2 0 -6 3 -9 6
-8 7 -8 22 -2 37 5 10 6 25 4 56 -1 18 25 27 39 13z m-1012 -25 c4 -4 5 -7 5
-15 0 -14 -6 -20 -20 -20 -14 0 -20 6 -20 20 0 14 6 20 20 20 8 0 11 -1 15 -5z
m1309 -21 c5 -6 5 -12 0 -18 -7 -8 -19 -4 -21 8 -2 12 13 19 21 10z m-441 -44
c8 -5 12 -20 9 -32 -1 -5 -6 -13 -14 -21 -21 -23 -20 -20 -20 -124 l1 -88 -6
-6 c-5 -5 -8 -6 -17 -6 -9 0 -12 1 -17 6 l-6 6 1 100 1 100 5 11 c3 6 6 12 7
14 4 3 13 23 13 27 0 5 9 13 16 15 8 2 21 1 27 -2z m-152 -5 c3 -3 3 -3 0 -6
-1 -2 -3 -2 -4 -1 -1 0 -2 1 -3 1 -2 0 -3 1 -3 3 -1 1 0 2 2 2 2 0 3 1 3 2 0
3 2 2 5 -1z m-50 -17 c8 -5 8 -5 5 -13 -4 -10 -10 -15 -18 -15 -9 0 -16 6 -16
16 0 15 14 20 29 12z m565 -8 c5 -5 5 -11 0 -16 -10 -10 -27 5 -16 16 4 4 12
4 16 0z m-141 -31 l6 -6 -1 -28 c0 -21 0 -29 3 -35 3 -9 13 -23 15 -22 0 0 5
-4 11 -9 8 -8 9 -10 9 -18 0 -8 -1 -10 -9 -18 -6 -5 -11 -9 -11 -9 -2 1 -12
-13 -15 -22 -2 -5 -3 -13 -3 -22 1 -14 1 -15 -5 -21 -5 -5 -8 -6 -15 -6 -7 0
-10 1 -15 6 l-6 6 0 99 0 99 6 6 c8 9 21 9 30 0z m254 1 c3 -4 6 -6 7 -6 1 0
2 -1 2 -1 -1 -4 2 -11 7 -13 7 -4 28 -6 33 -3 13 7 28 0 28 -13 0 -10 -6 -16
-18 -16 -14 0 -38 -13 -35 -18 1 -1 0 -2 -1 -2 -2 0 -4 -7 -5 -16 -1 -6 -4
-17 -9 -35 -4 -12 -4 -18 -4 -48 l1 -34 -6 -6 c-5 -5 -8 -6 -14 -6 -6 0 -9 1
-14 6 l-6 6 1 38 c0 27 -1 44 -3 59 -3 19 -3 23 0 41 2 12 3 30 3 40 -1 19 -1
20 5 26 8 8 19 8 28 1z m177 -43 l-5 -5 -4 4 -5 5 4 4 5 5 4 -4 5 -5 -4 -4z
m-829 -128 c6 -4 6 -6 6 -20 0 -14 0 -16 -6 -20 -4 -4 -7 -5 -18 -5 -11 0 -14
1 -18 5 -6 4 -6 6 -6 20 0 14 0 16 6 20 4 4 7 5 18 5 11 0 14 -1 18 -5z m-159
-114 c3 -3 4 -7 4 -14 0 -13 -6 -19 -19 -19 -13 0 -19 6 -19 19 0 7 1 11 4 14
7 8 23 8 30 0z m555 2 c4 -4 5 -7 5 -13 0 -11 -7 -18 -18 -18 -11 0 -18 7 -18
18 0 11 7 18 18 18 6 0 9 -1 13 -5z m412 -8 c4 -4 5 -7 5 -13 0 -11 -7 -18
-18 -18 -11 0 -18 7 -18 18 0 11 7 18 18 18 6 0 9 -1 13 -5z m-423 -89 c1 0 5
-3 8 -6 5 -5 6 -7 6 -18 0 -11 -1 -13 -6 -18 -6 -6 -7 -6 -18 -6 -11 0 -12 0
-18 6 -5 5 -6 7 -6 17 0 14 3 20 12 24 5 2 8 2 22 1z m-383 -8 c5 -5 6 -7 6
-16 0 -9 -1 -11 -7 -16 -5 -6 -7 -7 -16 -7 -9 0 -11 1 -16 7 -9 8 -9 23 -1 32
9 9 24 9 34 0z m-124 -28 c7 -6 7 -19 1 -25 -6 -7 -19 -7 -25 -1 -7 6 -7 19
-1 25 6 7 19 7 25 1z m-463 -234 c5 -5 5 -15 0 -20 -9 -9 -24 -2 -24 10 0 8 6
14 14 14 3 0 8 -2 10 -4z m1452 -30 c5 -5 5 -15 0 -20 -9 -9 -24 -2 -24 10 0
8 6 14 14 14 3 0 8 -2 10 -4z m-1101 -90 c11 -10 3 -28 -11 -28 -9 0 -16 6
-16 16 0 14 17 22 27 12z"/>
<path d="M364 3808 c-15 -3 -24 -8 -31 -19 -2 -2 -5 -7 -8 -11 -19 -29 -22
-39 -16 -52 3 -9 9 -13 26 -17 14 -4 18 -7 21 -17 1 -4 3 -8 4 -9 1 -1 2 -2 1
-3 -1 -1 0 -2 1 -2 1 0 2 -1 2 -3 0 -9 25 -23 41 -23 12 0 18 -19 8 -28 -12
-10 -37 -20 -51 -20 -12 0 -17 4 -25 19 -3 7 -7 12 -7 13 -1 0 -2 1 -2 3 0 1
-5 7 -10 13 -6 6 -12 15 -15 20 -3 5 -8 10 -10 12 -6 2 -33 3 -33 0 0 -1 -4
-7 -15 -20 -1 -2 -5 -7 -9 -12 -4 -5 -8 -10 -10 -12 -2 -2 -7 -8 -11 -13 -4
-5 -10 -12 -12 -14 -2 -3 -11 -12 -19 -21 -8 -8 -19 -20 -24 -26 -9 -9 -11
-12 -12 -21 -3 -20 -9 -26 -29 -28 -8 -1 -12 -3 -20 -11 -11 -10 -15 -14 -48
-43 -24 -20 -27 -25 -27 -40 0 -10 2 -15 10 -26 12 -16 66 -98 66 -100 0 0 3
-5 6 -9 3 -5 8 -14 12 -21 4 -7 8 -14 10 -17 2 -3 4 -6 4 -7 0 -2 15 -26 19
-30 6 -6 13 -9 26 -9 10 0 12 1 24 11 19 15 29 25 35 33 12 15 23 26 37 34 17
11 44 37 48 47 3 6 4 15 4 30 1 33 4 37 34 38 23 1 35 5 46 16 9 9 44 49 56
63 4 6 8 11 10 12 4 5 14 17 19 24 3 4 6 8 8 10 2 2 5 6 7 9 2 3 6 7 8 10 2 2
6 7 9 11 3 4 6 8 7 9 3 4 52 72 61 84 1 2 8 12 14 22 12 17 12 18 11 28 -1 14
-4 19 -13 25 -4 3 -36 16 -72 30 -81 30 -86 32 -91 34 -2 1 -18 7 -35 14 -27
10 -32 11 -40 10z m75 -74 c11 -10 3 -28 -11 -28 -9 0 -16 6 -16 16 0 14 17
22 27 12z m-278 -222 c3 -5 3 -6 0 -9 -2 -3 -3 -3 -8 0 -7 3 -8 7 -2 11 5 5 6
5 10 -2z m152 -9 c5 -8 1 -16 -8 -16 -9 0 -13 8 -8 16 2 3 5 5 8 5 3 0 6 -2 8
-5z"/>
<path d="M1445 2341 c-7 -2 -36 -8 -65 -14 -81 -17 -82 -17 -91 -21 -20 -9
-28 -28 -20 -52 26 -76 65 -233 74 -295 1 -10 8 -25 14 -30 7 -6 22 -10 32 -8
3 0 14 3 23 5 9 2 19 5 22 5 2 1 12 3 21 5 9 2 21 5 26 7 12 3 20 8 24 15 4 7
4 28 1 33 -6 13 1 27 14 27 9 0 15 -5 22 -20 9 -20 12 -22 25 -23 16 0 23 6
26 23 1 7 -6 41 -16 79 -21 76 -22 80 -29 89 -7 9 -9 11 -22 17 -24 13 -27 23
-16 48 12 25 12 29 0 60 -11 31 -17 40 -30 46 -12 6 -21 7 -35 4z m-40 -72 c6
-4 6 -6 6 -20 0 -14 0 -16 -6 -20 -4 -4 -7 -5 -18 -5 -11 0 -14 1 -18 5 -6 4
-6 6 -6 20 0 14 0 16 6 20 4 4 7 5 18 5 11 0 14 -1 18 -5z"/>
<path d="M1068 2316 c-21 -2 -41 -4 -44 -5 -10 -2 -20 -7 -25 -14 -5 -6 -11
-26 -9 -28 1 -1 1 -1 4 -26 1 -10 3 -22 4 -26 1 -4 2 -14 3 -21 3 -33 7 -52
13 -65 8 -17 13 -33 13 -38 0 -2 -3 -14 -6 -26 -5 -18 -5 -24 -4 -40 0 -10 1
-33 2 -52 2 -46 6 -55 26 -63 l11 -4 40 4 c21 2 44 5 49 5 6 1 19 2 29 3 23 3
33 4 56 6 21 2 35 8 42 19 7 9 10 24 9 33 0 4 -1 16 -2 27 -3 43 -14 135 -22
187 -2 10 -4 22 -4 25 -9 58 -19 93 -28 96 -11 4 -25 4 -34 0 -14 -6 -22 -6
-40 0 -20 7 -33 7 -83 3z m81 -61 c3 -3 3 -3 0 -6 -3 -3 -3 -3 -6 0 -3 2 -3 3
-1 6 4 4 4 4 7 0z"/>
</g>
</svg>
