<?xml version="1.0" standalone="no"?>
<!DOCTYPE svg PUBLIC "-//W3C//DTD SVG 20010904//EN"
 "http://www.w3.org/TR/2001/REC-SVG-20010904/DTD/svg10.dtd">
<svg version="1.0" xmlns="http://www.w3.org/2000/svg"
 width="1100.000000pt" height="2850.000000pt" viewBox="0 0 1100.000000 2850.000000"
 preserveAspectRatio="xMidYMid meet">
<metadata>
Created by potrace 1.15, written by Peter Selinger 2001-2017
</metadata>
<g transform="translate(0.000000,2850.000000) scale(0.500000,-0.500000)"
fill="#000000" stroke="none">
<path d="M480 3770 c-3 -1 -6 -1 -7 0 0 0 -1 0 -1 -2 0 -1 -1 -2 -3 -2 -4 0
-14 -12 -18 -21 -3 -8 -3 -18 -2 -93 1 -101 1 -88 0 -215 -1 -91 -1 -102 2
-110 4 -9 14 -21 18 -21 2 0 3 -1 3 -2 0 -1 19 -2 54 -2 53 0 53 0 59 5 7 7
15 27 13 34 -4 14 5 25 19 25 14 0 23 -11 19 -25 -2 -7 6 -27 13 -34 5 -5 6
-5 44 -5 l39 0 18 7 c11 4 22 7 27 7 5 0 16 -3 27 -7 22 -8 21 -8 43 -1 22 7
28 7 47 1 16 -5 29 -5 36 2 4 5 16 26 16 30 0 6 9 11 19 11 10 0 19 -5 19 -11
0 -5 12 -26 19 -32 3 -3 9 -6 13 -6 5 -1 7 -2 7 -3 -1 -1 7 -2 17 -2 10 0 18
1 18 2 0 1 17 1 41 1 54 -1 60 -2 67 -6 5 -4 11 -4 75 -5 l70 -1 -73 -1 -73 0
-13 -6 c-6 -3 -16 -9 -21 -13 -6 -4 -15 -8 -21 -10 -10 -3 -13 -4 -23 -3 -2 0
-11 6 -19 13 -8 7 -16 14 -17 15 -4 3 -22 0 -28 -6 -12 -11 -13 -17 -13 -69 0
-62 1 -66 31 -81 20 -10 23 -13 23 -27 0 -14 -3 -17 -23 -27 -18 -9 -25 -16
-29 -28 -3 -10 -3 -198 0 -207 3 -7 2 -7 -5 -15 -5 -5 -10 -8 -15 -9 -4 0 -11
-2 -17 -3 -10 -2 -26 -2 -43 0 -4 0 -2 4 5 11 3 4 11 15 16 25 5 9 10 17 11
18 1 1 4 6 6 11 4 9 5 13 6 43 0 32 0 34 -6 55 -7 26 -7 28 0 54 l6 20 0 103
c0 90 0 105 -3 111 -4 9 -14 21 -18 21 -2 0 -3 1 -3 2 0 0 -2 1 -5 2 -3 0 -7
1 -8 2 -1 0 -5 1 -9 2 -5 0 -6 0 -4 -2 2 -1 1 -2 -5 -2 -6 0 -26 -7 -35 -12
-6 -3 -23 -2 -30 1 -9 5 -26 5 -33 2 -8 -4 -11 -14 -12 -34 -1 -23 -7 -30 -27
-30 -20 0 -24 5 -28 31 -3 20 -8 31 -18 37 -6 5 -8 5 -52 5 l-45 1 42 1 c23 1
41 1 40 2 0 0 0 2 1 4 2 4 2 4 -32 4 -19 0 -34 -1 -34 -2 0 -3 -20 -7 -41 -7
-21 0 -41 4 -41 7 0 4 -94 2 -98 -1 -7 -6 -22 -7 -153 -7 -73 0 -135 -1 -139
-2 -3 -1 -6 -1 -7 0 0 0 -1 0 -1 -2 0 -1 -1 -2 -3 -2 -4 0 -14 -12 -18 -21 -5
-12 -5 -414 0 -426 4 -9 14 -21 18 -21 2 0 3 -1 3 -2 0 -3 12 -3 120 -3 108 0
110 0 115 4 10 7 14 30 8 38 -2 2 -3 8 -3 15 0 19 9 26 30 25 12 -1 26 -5 33
-11 6 -4 23 -5 30 -1 2 1 6 4 10 7 3 3 6 6 6 6 1 0 3 1 4 3 4 5 21 4 26 -1 7
-8 7 -21 0 -29 -5 -6 -19 -7 -27 -2 -10 5 -27 1 -36 -9 -7 -7 -7 -8 -6 -16 5
-25 15 -31 51 -30 29 1 35 4 54 24 10 11 14 15 21 16 13 3 24 0 32 -9 26 -31
22 -30 91 -31 39 0 59 0 65 2 10 3 21 13 23 21 1 3 2 7 3 8 1 1 3 5 4 9 1 4 7
13 14 19 11 12 22 33 22 43 0 2 3 6 6 9 5 5 8 6 16 6 15 0 23 -8 23 -23 0 -11
-4 -17 -15 -24 -11 -7 -21 -20 -24 -28 -5 -15 4 -32 22 -39 7 -3 8 -4 7 -8 -1
-4 0 -5 5 -6 6 0 5 0 -2 -1 -22 0 -39 -22 -39 -49 0 -18 -4 -21 -30 -23 -27
-2 -28 -3 -28 -22 0 -10 -1 -16 -2 -16 -1 0 2 -2 6 -4 17 -8 25 -24 21 -41 -4
-14 -11 -19 -27 -20 -8 0 -16 2 -22 7 -6 5 -16 31 -21 54 -3 17 -11 31 -20 36
l-7 5 -266 1 c-185 0 -269 0 -276 -2 -7 -1 -12 -4 -16 -8 -6 -6 -15 -26 -15
-33 0 -5 -6 -13 -13 -19 -9 -7 -18 -19 -21 -29 -3 -12 -3 -97 1 -116 4 -19 4
-30 0 -51 -2 -14 -2 -17 0 -24 4 -11 11 -21 21 -27 4 -3 11 -8 16 -11 4 -3 9
-6 10 -6 1 0 2 -1 2 -2 0 -1 4 -3 10 -5 8 -4 16 -4 99 -4 89 0 101 0 101 3 0
1 1 2 3 2 4 0 14 12 18 21 3 7 3 16 3 52 l-1 44 6 6 6 6 43 -1 c59 0 61 0 85
23 7 7 13 11 17 11 17 1 24 -4 24 -19 0 -12 -5 -18 -17 -20 -13 -1 -31 -9 -37
-15 -3 -4 -7 -12 -10 -21 -6 -21 -11 -32 -22 -48 -5 -8 -11 -20 -14 -27 -10
-24 -31 -67 -62 -130 -21 -42 -36 -70 -39 -77 -2 -3 -1 -19 2 -25 3 -6 10 -12
15 -14 1 0 25 -1 52 -1 42 -1 50 -1 58 2 10 4 22 15 26 24 4 11 11 15 26 13 7
-1 17 -3 22 -5 5 -2 12 -3 17 -3 8 0 37 9 39 12 2 4 18 6 26 4 10 -2 11 -4 25
-24 5 -7 11 -14 14 -16 3 -2 6 -3 7 -4 1 -1 3 -1 5 -2 2 0 5 -1 7 -1 6 -2 56
-1 70 2 8 1 23 3 32 3 17 1 22 2 27 7 2 2 4 3 5 3 0 1 3 6 5 12 4 10 4 12 1
19 -1 4 -4 16 -6 25 -4 15 -4 17 -1 21 2 3 5 5 7 5 5 0 18 -6 22 -11 2 -1 9
-6 16 -11 7 -5 17 -15 22 -21 5 -7 10 -12 10 -13 1 0 4 -2 7 -5 3 -3 9 -6 12
-7 3 -1 10 -3 14 -5 16 -5 35 -6 47 -1 5 3 10 5 10 6 0 1 1 2 3 2 3 0 7 7 5
10 -1 1 0 5 1 9 1 3 3 10 4 16 1 5 3 12 6 14 8 10 32 11 41 1 11 -11 8 -42 -5
-42 -3 0 -3 -1 0 -1 3 -1 3 -3 2 -12 -2 -23 5 -27 49 -28 26 0 30 0 40 -5 6
-3 10 -6 10 -8 0 -2 1 -5 3 -7 2 -2 3 -8 3 -15 0 -16 -7 -22 -26 -20 -8 1 -11
3 -20 16 -5 7 -11 14 -15 16 -3 2 -7 4 -8 5 -1 1 -4 2 -6 3 -2 0 -5 1 -7 1 -1
1 -46 1 -98 1 -91 0 -100 -1 -113 -6 -19 -8 -23 -8 -57 -2 -67 12 -123 11
-127 -3 0 -2 -1 -9 -1 -15 0 -9 -1 -12 -3 -13 -2 0 -1 -1 2 -1 13 0 18 -27 7
-38 -8 -9 -26 -9 -34 0 -11 11 -6 38 7 38 3 0 4 1 3 1 -3 1 -4 4 -4 13 0 16
-1 19 -9 22 -3 1 -32 3 -66 3 l-61 1 -22 -5 -23 -5 -22 5 c-19 4 -25 5 -59 5
-54 0 -60 -3 -65 -27 -2 -11 -2 -13 1 -16 2 -2 2 -3 -1 -8 -2 -3 -5 -5 -7 -5
-2 0 -5 2 -7 5 -3 5 -3 6 -1 8 3 3 3 5 1 16 -3 15 -8 21 -19 25 -12 3 -131 3
-148 -1 -17 -4 -36 -4 -55 0 -10 2 -19 3 -25 2 -5 -1 -10 -1 -11 -2 -2 0 -3 0
-3 -1 0 -1 -1 -2 -3 -2 -4 0 -14 -12 -18 -21 -5 -11 -5 -157 0 -168 4 -9 14
-21 18 -21 2 0 3 -1 3 -2 0 0 2 -2 6 -2 3 -1 170 -1 372 -1 l367 0 9 6 c10 7
16 17 21 34 5 15 10 19 26 19 16 0 21 -4 26 -19 5 -17 11 -27 21 -34 l9 -6
324 -1 c244 0 326 0 333 2 15 4 26 20 29 41 3 13 10 20 25 20 15 0 22 -7 25
-20 3 -21 14 -36 29 -41 9 -3 60 -3 70 0 5 1 11 4 14 7 6 5 18 27 18 33 0 2 2
7 4 11 5 11 15 18 29 18 12 0 19 -4 36 -20 10 -10 10 -10 22 -9 10 0 13 1 17
6 9 9 10 16 10 66 0 49 -2 61 -9 70 -2 2 -3 4 -3 5 0 2 -10 14 -16 18 -21 15
-11 14 -158 14 -100 0 -140 -1 -164 -3 -26 -2 -34 -2 -52 0 -11 1 -27 3 -35 3
-12 1 -15 2 -21 7 -3 3 -5 6 -4 6 6 2 24 72 21 80 -1 1 -2 5 -2 8 -3 13 -12
24 -28 35 -8 5 -15 16 -15 23 0 7 12 16 21 16 3 0 5 1 6 2 1 1 2 2 3 1 1 -1 4
0 7 1 4 1 5 1 5 -1 0 -1 1 -1 1 1 1 1 2 2 3 1 1 -1 2 0 2 2 0 2 1 3 2 3 1 0 2
7 2 16 0 9 -1 15 -2 15 -1 -1 -2 0 -2 1 0 2 -1 2 -2 0 -3 -2 -12 -3 -12 0 0 1
-3 2 -6 3 -12 3 -20 20 -16 35 3 11 6 15 14 19 12 5 24 3 38 -6 6 -4 8 -5 19
-4 6 1 14 2 16 4 11 7 15 29 7 46 -7 16 -22 23 -59 31 -24 5 -31 4 -43 -4 -7
-5 -18 -23 -18 -30 0 -5 -6 -14 -12 -16 -9 -4 -24 -3 -31 1 -9 4 -14 19 -11
30 2 8 -4 30 -10 36 -3 3 -7 5 -12 5 -5 0 -6 1 -2 1 5 1 8 2 19 7 5 2 26 3
101 4 l95 1 7 -7 c9 -8 12 -31 8 -57 -4 -32 -5 -35 -1 -44 4 -9 14 -21 18 -21
2 0 3 -1 3 -2 0 -2 1 -2 42 -3 33 -1 37 -1 45 3 13 6 17 16 18 45 0 16 0 18 6
22 4 4 7 5 18 5 11 0 14 -1 18 -5 6 -4 6 -6 6 -22 1 -29 5 -39 18 -45 17 -8
38 -3 59 15 7 7 18 16 24 21 20 17 19 10 20 145 0 104 0 119 -3 126 -4 9 -14
21 -18 21 -2 0 -3 1 -3 2 0 2 5 2 -113 3 -107 1 -109 1 -118 -3 -8 -3 -25 -19
-25 -22 0 -1 -3 -3 -7 -6 -6 -3 -9 -4 -33 -3 -26 1 -27 1 -34 7 -5 4 -8 7 -8
9 0 1 -4 2 -11 3 -13 0 -25 -2 -25 -4 0 -3 -12 -20 -17 -23 -2 -2 -8 -3 -15
-3 -12 0 -16 3 -31 26 -6 7 -11 12 -14 13 -3 1 -5 2 -5 3 0 2 -2 2 -92 4 -98
1 -95 1 -101 16 -4 9 -17 36 -25 49 -7 14 -7 33 0 39 6 5 20 5 30 0 9 -5 23
-7 31 -5 8 2 12 12 11 29 0 12 1 16 3 19 2 1 3 4 3 5 0 1 1 2 3 3 6 2 14 24
16 46 1 9 11 29 13 28 2 -1 5 8 3 12 0 2 0 3 1 3 1 0 3 2 3 4 1 1 3 4 4 5 3 3
249 3 252 0 1 -1 2 -3 1 -5 0 -1 1 -3 2 -4 2 -2 2 -2 0 -2 -2 0 -4 -1 -4 -3 0
-2 -1 -3 -2 -2 -2 2 -11 -4 -17 -10 -6 -6 -13 -25 -13 -33 0 -4 -2 -8 -6 -12
-6 -6 -7 -6 -18 -6 -11 0 -12 0 -18 6 -4 4 -6 8 -6 12 0 18 -15 40 -30 44 -10
3 -114 3 -121 0 -7 -3 -17 -12 -17 -15 0 -2 -1 -3 -2 -2 -2 1 -3 -3 -2 -7 0
-1 -1 -2 -2 -2 -6 0 6 -32 16 -44 12 -13 14 -16 14 -26 0 -12 -3 -18 -9 -18
-3 0 -3 -1 0 -1 2 -1 3 -4 3 -13 0 -15 1 -17 10 -22 8 -4 12 -4 92 -4 85 1 85
1 95 6 24 11 28 13 38 13 10 0 14 -2 38 -13 l10 -5 110 0 c109 0 121 0 121 3
0 1 1 2 3 2 4 0 14 12 18 21 5 12 5 414 0 426 -4 9 -14 21 -18 21 -2 0 -3 1
-3 2 0 2 -1 2 -1 2 -1 -1 -4 -1 -7 0 -4 1 -60 2 -125 2 -117 0 -132 1 -139 7
-3 3 -18 3 -92 3 -48 0 -88 -1 -88 -2 0 -4 -20 -7 -47 -7 -27 0 -47 3 -47 7 0
1 -30 2 -67 3 l-68 0 68 1 c63 0 69 0 75 4 10 6 17 19 19 37 2 12 8 17 20 17
12 0 18 -5 20 -17 2 -18 9 -31 19 -37 6 -4 12 -4 100 -4 61 0 94 1 94 2 0 1 1
2 3 2 4 0 14 12 18 21 6 15 3 33 -11 60 -8 15 -8 19 0 34 15 29 14 18 14 175
0 125 0 142 -3 149 -4 9 -14 21 -18 21 -2 0 -3 1 -3 2 0 0 -2 2 -5 2 -5 1 -87
1 -169 0 -15 0 -94 0 -177 1 -112 1 -152 1 -159 -1 -9 -3 -21 -13 -23 -20 -2
-9 -6 -16 -8 -16 -1 0 -1 -1 0 -2 3 -4 -7 -12 -15 -12 -8 0 -18 8 -15 12 1 1
1 2 0 2 -2 0 -6 7 -8 16 -2 7 -14 17 -23 20 -8 2 -337 2 -345 0 -8 -2 -11 -9
-11 -25 l0 -11 -8 0 -8 0 0 11 c0 16 -3 23 -11 25 -6 1 -105 2 -109 0z m143
-42 c5 -7 4 -19 -2 -25 -11 -11 -31 -4 -31 12 0 13 4 17 18 17 10 0 12 -1 15
-4z m792 -11 c13 -8 25 -11 37 -10 25 3 28 2 37 -6 10 -8 10 -34 0 -42 -14
-13 -39 -10 -48 6 -10 16 -20 23 -42 30 -15 5 -19 14 -12 25 5 6 14 5 28 -3z
m-226 -32 c6 -9 -2 -19 -21 -24 -5 -2 -8 -3 -6 -3 2 0 3 -2 2 -12 -1 -26 2
-27 60 -26 27 1 42 0 43 -1 3 -3 3 -9 0 -12 -1 -1 -83 -2 -239 -1 l-238 0 -24
-6 c-26 -7 -37 -6 -44 2 -9 8 -9 32 0 40 9 10 30 9 43 -1 4 -3 9 -7 11 -8 2
-1 3 -3 4 -3 1 -1 5 -3 9 -5 7 -4 17 -4 149 -5 154 -1 153 -1 163 10 6 8 10
20 9 36 0 23 4 25 48 24 27 0 28 0 31 -5z m-588 -141 c7 -6 7 -19 1 -25 -6 -7
-19 -7 -25 -1 -7 6 -7 19 -1 25 6 7 19 7 25 1z m103 -15 l-5 -5 -4 4 -5 5 4 4
5 5 4 -4 5 -5 -4 -4z m500 -3 c5 -5 5 -11 0 -16 -11 -11 -27 5 -16 16 4 4 12
4 16 0z m-56 -57 c9 -2 22 -2 40 -2 15 1 29 0 32 -1 3 0 15 -1 26 0 12 1 20 0
21 -1 3 -3 3 -9 0 -12 -1 -1 -87 -2 -251 -2 -164 0 -250 1 -251 2 -3 3 -3 9 0
12 1 1 57 2 162 2 129 -1 163 0 175 2 20 3 30 4 46 0z m-586 -180 c-18 -1 -46
-1 -63 0 -18 0 -4 0 31 0 35 0 49 0 32 0z m964 0 c-29 -1 -75 -1 -104 0 -28 0
-4 0 53 0 57 0 80 0 51 0z m72 -68 c18 -8 20 -37 4 -51 -7 -7 -22 -14 -30 -15
-5 -1 -6 0 -8 8 -1 4 -3 9 -4 11 -7 14 -6 32 2 41 7 8 24 11 36 6z m-1093 -41
c1 -1 6 -9 10 -18 7 -13 10 -16 19 -21 l11 -7 35 0 c29 0 36 1 42 4 8 4 15 13
18 25 2 4 4 9 5 9 1 1 1 2 -1 2 -2 0 -2 1 1 4 2 2 5 4 7 4 4 0 11 -5 11 -8 0
-2 14 -16 17 -16 4 0 5 0 7 -2 1 -1 6 -2 11 -3 17 -3 24 -17 13 -27 l-5 -4
-128 -1 -129 0 -3 6 c-3 6 -3 7 -1 9 2 1 3 4 3 5 0 1 2 3 4 4 2 1 7 9 11 17 4
8 9 16 10 18 6 6 26 6 32 0z m-161 -13 c12 -10 13 -43 0 -53 -7 -6 -28 -6 -35
1 -12 10 -7 44 7 51 11 6 22 6 28 1z m1217 -31 c3 -4 3 -4 0 -4 -2 0 -3 -1 -2
-3 1 -2 2 -11 2 -20 1 -24 2 -27 4 -27 5 0 9 -21 7 -30 -4 -15 -11 -20 -27
-21 -15 -1 -23 5 -31 22 -4 7 -9 15 -13 18 -6 6 -7 7 -24 7 -20 0 -24 2 -32
15 -7 12 -13 18 -25 24 -9 5 -10 5 -62 5 l-53 0 0 6 0 6 119 0 c108 0 119 0
124 3 3 2 6 5 6 6 0 1 1 1 1 -1 1 -2 3 -5 6 -6z m126 -18 c6 -6 7 -18 2 -24
-9 -10 -29 -2 -29 12 0 14 17 22 27 12z m-980 -57 c11 -10 5 -27 -12 -36 -12
-6 -14 -10 -15 -27 0 -8 1 -12 3 -15 17 -18 13 -43 -6 -43 -8 0 -21 6 -28 12
-2 2 -8 6 -13 9 -9 4 -11 4 -99 5 -78 1 -91 1 -98 4 -5 2 -13 4 -18 5 -6 1
-12 2 -14 2 -2 1 -8 1 -14 1 -13 0 -19 5 -19 17 0 10 5 15 18 19 13 4 28 11
38 18 11 8 21 8 28 1 3 -3 4 -6 4 -10 -1 -3 -1 -5 0 -5 1 -1 2 -4 3 -8 2 -12
9 -22 18 -26 8 -4 12 -4 47 -4 20 0 40 0 43 1 16 4 27 15 39 38 4 8 5 9 23 15
15 5 25 10 34 18 17 16 29 19 38 9z m1038 -5 c5 -5 6 -7 6 -16 0 -15 -8 -23
-23 -23 -18 0 -26 13 -22 33 4 14 27 18 39 6z m-616 -47 c6 -4 6 -6 6 -20 0
-14 0 -16 -6 -20 -4 -4 -7 -5 -18 -5 -11 0 -14 1 -18 5 -6 4 -6 6 -6 20 0 14
0 16 6 20 4 4 7 5 18 5 11 0 14 -1 18 -5z m513 -21 c5 -5 6 -7 6 -17 0 -16 -7
-23 -22 -23 -11 0 -20 3 -20 7 0 2 -1 3 -2 3 -1 0 -5 2 -8 4 -3 2 -6 4 -6 3 0
-1 -1 -1 -2 1 -2 1 -6 2 -11 2 -8 1 -8 1 -2 2 7 1 7 4 1 7 -2 0 1 1 5 1 5 0 9
1 10 2 1 0 2 1 3 1 0 0 3 1 5 3 3 1 5 1 6 1 0 -1 1 0 1 1 0 5 8 8 20 8 9 0 11
-1 16 -6z m63 -68 c10 -9 3 -26 -10 -26 -8 0 -15 7 -15 15 0 13 16 20 25 11z
m-951 -30 c5 -5 5 -11 0 -16 -10 -10 -27 5 -16 16 4 4 12 4 16 0z m-156 -210
c5 -5 5 -15 0 -20 -9 -9 -24 -2 -24 10 0 8 6 14 14 14 3 0 8 -2 10 -4z m360
-4 c6 -7 5 -12 -3 -26 -13 -21 -12 -34 2 -48 13 -14 17 -22 17 -32 0 -10 5
-28 9 -35 2 -3 7 -7 12 -9 9 -4 12 -4 107 -4 l98 0 7 7 c4 3 7 9 7 11 0 3 1 8
1 11 0 3 1 7 2 9 1 1 0 2 -1 2 -6 0 -20 40 -20 57 0 10 1 12 6 17 3 3 7 6 9 6
13 1 19 0 29 -5 13 -5 36 -7 43 -3 8 4 23 3 29 -1 4 -4 5 -8 17 -64 4 -21 9
-33 15 -38 4 -3 7 -5 8 -5 5 0 1 -6 -7 -9 -5 -2 -8 -4 -7 -5 1 -1 -8 -2 -21
-4 -31 -3 -447 -3 -454 0 -13 6 -3 14 19 14 25 0 32 5 32 24 0 10 1 14 3 14 1
0 0 1 -2 2 -29 12 -37 48 -15 63 15 11 29 26 33 37 6 18 17 24 25 14z m707
-63 c6 -4 6 -6 6 -20 0 -14 0 -16 -6 -20 -4 -4 -7 -5 -18 -5 -11 0 -14 1 -18
5 -6 4 -6 6 -6 20 0 14 0 16 6 20 4 4 7 5 18 5 11 0 14 -1 18 -5z m135 -2 c10
-4 15 -12 15 -26 0 -15 -5 -22 -18 -27 -23 -8 -52 -4 -58 9 -5 8 -4 24 0 32 6
13 41 20 61 12z m-1063 -70 c5 -8 1 -16 -8 -16 -9 0 -13 8 -8 16 2 3 5 5 8 5
3 0 6 -2 8 -5z m-85 -76 c5 -5 5 -11 -1 -32 -4 -15 -5 -30 -3 -38 3 -8 -1 -24
-7 -28 -9 -8 -23 -10 -35 -6 -18 8 -20 34 -4 54 9 11 14 19 19 35 5 15 10 20
19 20 5 0 9 -1 12 -5z m386 -9 c5 -5 5 -15 0 -20 -9 -9 -24 -2 -24 10 0 8 6
14 14 14 3 0 8 -2 10 -4z m180 -121 c0 -1 1 -4 3 -5 2 -2 2 -3 -1 -6 -13 -14
-23 -30 -22 -39 0 -7 -5 -19 -8 -19 -1 0 -3 -1 -4 -1 -4 0 -30 9 -33 11 -1 1
-6 10 -11 20 -8 15 -10 18 -20 23 l-11 7 -166 0 c-91 0 -164 1 -162 2 5 1 5 7
0 8 -2 1 95 2 216 2 185 0 219 0 219 -3z m14 -106 c5 -19 0 -29 -14 -29 -10 0
-16 6 -17 19 -1 6 -2 13 -2 16 -1 5 1 8 5 13 l6 6 10 -8 c7 -6 10 -10 12 -17z
m158 -131 c5 -5 6 -7 6 -17 0 -16 -7 -23 -23 -23 -10 0 -12 1 -17 6 -5 5 -6 7
-6 17 0 16 7 23 23 23 10 0 12 -1 17 -6z m261 -9 c7 -4 10 -11 10 -23 0 -13
-4 -20 -11 -24 -6 -3 -27 -3 -31 0 -6 5 -46 4 -50 -2 -1 -1 -4 -2 -8 -2 -10 0
-17 6 -17 16 0 12 6 15 27 17 21 1 25 2 38 12 14 11 31 13 42 6z m83 -15 c5
-5 5 -15 0 -20 -9 -9 -24 -2 -24 10 0 8 6 14 14 14 3 0 8 -2 10 -4z m-1519
-31 c12 -7 14 -33 3 -43 -8 -9 -32 -9 -40 0 -9 8 -9 32 0 41 7 7 27 8 37 2z
m280 -24 c12 -12 3 -31 -13 -31 -11 0 -18 7 -18 18 0 11 7 18 18 18 6 0 9 -1
13 -5z m667 -5 c5 -6 5 -12 0 -18 -7 -8 -22 -2 -22 9 0 11 15 17 22 9z"/>
<path d="M1255 2566 c-1 -2 -3 -4 -4 -4 -2 0 -3 -1 -2 -2 1 -2 2 -6 2 -9 0 -3
1 -8 1 -11 0 -7 10 -15 17 -15 11 1 18 6 24 17 7 15 7 18 1 23 -4 3 -9 4 -21
5 -15 0 -17 0 -18 -4z"/>
</g>
</svg>
