<?xml version="1.0" standalone="no"?>
<!DOCTYPE svg PUBLIC "-//W3C//DTD SVG 20010904//EN"
 "http://www.w3.org/TR/2001/REC-SVG-20010904/DTD/svg10.dtd">
<svg version="1.0" xmlns="http://www.w3.org/2000/svg"
 width="1100.000000pt" height="2850.000000pt" viewBox="0 0 1100.000000 2850.000000"
 preserveAspectRatio="xMidYMid meet">
<metadata>
Created by potrace 1.15, written by Peter Selinger 2001-2017
</metadata>
<g transform="translate(0.000000,2850.000000) scale(0.500000,-0.500000)"
fill="#000000" stroke="none">
<path d="M1706 3793 c-24 -6 -46 -11 -49 -12 -3 -1 -14 -3 -24 -5 -47 -11
-121 -25 -189 -38 -77 -14 -85 -16 -91 -25 -5 -7 -11 -29 -9 -34 2 -6 0 -14
-5 -19 -10 -9 -33 -3 -33 8 0 6 -9 25 -15 30 -11 10 -25 12 -41 6 -6 -2 -11
-5 -12 -6 -1 -1 -7 -5 -14 -9 -15 -8 -16 -8 -41 -1 -16 4 -24 5 -36 3 -8 -1
-13 -2 -29 -4 -43 -6 -158 -19 -175 -20 -16 -1 -34 -9 -39 -17 -7 -8 -8 -24
-4 -35 6 -16 18 -49 23 -67 11 -35 13 -43 14 -47 1 -2 2 -6 3 -10 1 -3 3 -13
5 -22 8 -37 16 -50 36 -56 10 -3 13 -3 50 0 46 4 61 4 63 -2 2 -2 1 -3 -3 -5
-3 -1 -6 -2 -7 -2 -1 0 -2 -1 -2 -2 0 -1 -1 -2 -3 -2 -3 0 -14 -12 -19 -22 -2
-5 -6 -16 -7 -25 -4 -19 -9 -28 -18 -32 -13 -5 -21 -1 -31 14 -16 21 -32 26
-55 15 -16 -8 -22 -15 -25 -30 -2 -10 -2 -11 10 -41 7 -16 14 -33 15 -36 2 -3
5 -11 7 -17 13 -34 17 -39 35 -41 14 -2 20 1 25 11 7 16 8 21 10 40 2 27 5 36
12 39 4 1 6 3 5 3 -1 1 2 1 7 0 27 -7 43 -53 24 -72 -4 -4 -8 -15 -12 -30 -5
-21 -8 -24 -26 -24 -20 0 -19 1 -19 -19 0 -16 3 -24 7 -22 1 0 3 -2 6 -5 l4
-6 -5 -17 c-8 -25 -7 -29 7 -71 13 -39 18 -48 30 -54 16 -8 31 -6 69 11 9 4
17 7 18 7 0 0 7 3 16 7 8 4 15 7 16 7 0 0 8 3 16 7 8 4 16 7 16 7 1 0 10 5 20
11 l18 10 1 13 c0 7 1 13 1 14 2 3 -17 3 -33 1 -11 -2 -18 3 -18 12 0 8 3 12
14 17 41 17 53 29 58 54 4 22 -14 37 -52 42 -26 4 -40 13 -41 29 -2 16 0 22
12 30 18 14 22 19 24 37 1 6 0 9 -23 57 -5 10 -8 17 -8 18 0 0 -5 11 -11 24
-6 13 -11 24 -11 24 0 2 -4 7 -11 13 -4 4 -5 6 -3 6 5 0 6 5 7 27 0 15 -1 22
-3 24 -4 4 -5 24 -2 31 3 9 10 13 23 13 19 0 26 -9 24 -29 0 -6 -1 -15 -1 -19
0 -33 26 -39 55 -13 22 20 31 21 54 8 8 -4 16 -8 17 -8 2 0 5 -2 8 -4 l4 -3
-5 -5 c-3 -5 -39 -19 -56 -23 -3 -1 -8 -4 -13 -8 -10 -9 -14 -23 -10 -37 1 -5
2 -9 2 -9 -1 0 9 -30 14 -38 11 -22 12 -27 13 -50 1 -12 2 -26 3 -31 1 -5 3
-10 3 -12 2 -10 17 -80 19 -87 2 -8 7 -36 9 -48 8 -49 12 -60 27 -67 4 -2 8
-4 8 -3 0 0 3 0 7 -1 5 -1 10 -1 16 1 20 6 62 19 88 27 15 5 35 12 44 16 16 8
35 15 43 15 5 0 21 -10 29 -18 2 -3 6 -5 9 -6 3 -1 6 -2 7 -3 1 -1 11 -5 22
-9 33 -13 44 -23 39 -34 -16 -31 -28 -36 -46 -21 -16 13 -26 17 -48 16 -13 0
-15 1 -33 9 -18 9 -21 10 -35 10 -17 0 -26 -1 -26 -3 0 -1 -1 -2 -3 -2 -4 0
-14 -12 -18 -21 -3 -7 -3 -16 -3 -60 l1 -52 -6 -6 -6 -6 -74 1 c-63 0 -75 0
-84 -3 -9 -3 -19 -9 -24 -14 -1 -1 -6 -5 -10 -8 -14 -9 -34 -6 -46 8 -5 5 -15
11 -24 14 -9 3 -22 3 -110 2 -103 -1 -105 -1 -105 -3 0 -1 -1 -2 -3 -2 -4 0
-14 -12 -18 -21 -5 -11 -5 -221 0 -232 4 -9 14 -21 18 -21 2 0 3 -1 3 -2 0 -2
1 -2 48 -4 24 -1 44 -2 46 -2 4 -1 8 -5 7 -6 -1 -1 1 -2 3 -2 4 0 4 -1 -1 -2
-3 -1 -12 -5 -19 -9 -7 -4 -21 -11 -30 -15 -9 -5 -20 -12 -24 -16 -12 -11 -15
-29 -8 -42 18 -35 26 -51 38 -74 8 -15 16 -29 19 -32 2 -3 5 -7 6 -9 1 -3 2
-4 10 -3 20 1 21 2 22 19 0 8 4 15 8 15 7 0 29 -35 29 -47 0 -8 -16 -21 -23
-18 -1 1 -4 -1 -7 -5 -2 -3 -4 -6 -3 -6 1 0 1 -1 -1 -2 -1 -1 -3 -6 -3 -12 -2
-21 13 -38 41 -49 20 -8 21 -9 19 -31 -1 -19 -1 -19 4 -25 3 -3 6 -5 7 -5 0 0
3 -1 6 -1 3 -1 7 0 10 1 3 1 15 3 27 4 24 2 31 4 59 21 1 1 9 6 17 10 8 4 19
11 24 14 6 4 11 7 12 7 1 0 6 3 12 7 6 4 11 7 12 7 1 0 30 17 39 23 10 7 16
19 16 32 0 9 -7 25 -22 52 -2 4 -9 16 -13 25 -14 25 -22 38 -32 46 -20 17 -22
21 -26 39 -4 21 -8 31 -14 41 -19 30 -26 45 -26 58 0 10 1 13 6 20 4 5 11 17
16 27 6 10 12 20 14 21 4 4 21 5 21 2 0 -1 2 -2 4 -3 2 -1 4 -2 4 -4 0 -1 4
-6 10 -11 8 -8 20 -15 35 -19 3 -1 8 -6 12 -11 15 -20 19 -23 31 -24 7 0 12 1
22 6 31 16 47 6 37 -23 -2 -6 -4 -11 -5 -12 -7 -9 -8 -24 -8 -105 0 -88 0 -90
11 -103 10 -11 51 -18 73 -12 11 3 30 13 30 16 0 1 1 1 2 0 1 -1 8 5 16 13 12
12 16 14 21 14 19 0 20 -24 1 -32 -3 -1 -6 -3 -6 -4 0 -1 -1 -2 -2 -1 -1 1 -8
-5 -16 -13 -12 -11 -15 -14 -23 -15 -4 0 -9 -1 -11 -1 -15 -5 -28 -11 -32 -15
-4 -5 -13 -9 -19 -9 -15 0 -37 -13 -40 -23 -1 -3 -2 -5 -3 -5 -2 0 -1 -11 1
-19 9 -39 10 -41 5 -54 -6 -13 -27 -15 -49 -5 -8 4 -18 8 -23 9 -15 5 -131 7
-141 3 -10 -4 -17 -12 -19 -23 -2 -10 -2 -11 3 -19 6 -11 11 -14 26 -14 10 0
13 1 21 6 7 5 12 6 19 6 12 0 16 -3 21 -14 2 -5 5 -11 6 -12 5 -9 0 -20 -8
-21 -2 0 -4 0 -4 -1 0 -1 -4 -2 -9 -2 -13 0 -26 -8 -32 -19 -8 -14 -8 -24 -1
-49 7 -26 8 -27 16 -63 4 -21 6 -28 10 -31 3 -2 4 -5 3 -8 0 -2 1 -5 5 -8 7
-7 16 -12 16 -10 0 1 3 1 7 0 4 -1 7 -1 7 0 0 0 1 3 1 5 0 3 1 6 2 8 0 2 0 3
-1 3 -1 0 -3 3 -5 6 -3 5 -3 7 0 16 6 16 12 19 34 18 2 0 6 -3 9 -6 5 -5 6 -7
6 -17 0 -7 -1 -13 -2 -14 -5 -6 6 -37 14 -39 17 -4 90 2 126 10 47 10 70 18
102 36 49 26 78 60 96 111 11 29 19 76 18 104 -1 14 -2 18 -13 43 -6 11 -12
28 -14 40 0 2 -3 10 -5 19 -6 23 -4 31 13 48 22 23 21 16 21 150 l-1 114 6 6
6 6 45 -1 c45 0 45 0 55 5 10 5 23 19 23 24 0 4 12 15 22 21 6 3 15 9 19 13 5
5 14 12 20 16 31 21 31 22 31 107 0 55 0 67 -3 73 -4 9 -14 21 -18 21 -2 0 -3
1 -3 2 0 2 -1 2 -117 3 -62 0 -117 1 -123 2 -16 2 -23 9 -23 23 0 13 7 21 20
23 4 0 9 2 11 3 1 1 6 3 10 5 13 6 19 18 21 39 0 7 2 12 5 16 5 5 5 5 9 2 2
-2 5 -4 6 -4 2 0 3 -1 3 -2 0 -2 20 -1 29 2 l7 2 0 14 c0 14 0 14 -8 21 -5 4
-10 7 -11 7 -2 0 -6 3 -10 7 -6 6 -7 7 -7 18 0 16 7 23 22 23 7 0 13 -1 15 -3
5 -4 27 -4 36 0 9 3 11 7 24 44 12 33 14 50 9 63 -4 12 -5 27 0 31 5 6 6 11 7
26 1 14 0 20 -4 18 -2 0 -3 0 -3 1 0 1 -4 2 -8 2 -5 0 -11 1 -14 3 -11 6 -37
13 -46 13 -5 0 -17 -1 -27 -3 -31 -6 -38 -5 -48 4 -7 5 -10 19 -7 30 4 14 13
20 33 21 7 0 21 1 31 3 27 4 35 2 49 -13 7 -7 32 -24 36 -24 1 0 3 -1 4 -3 3
-4 24 -6 34 -3 3 1 8 4 10 7 2 4 9 25 12 37 1 2 4 15 8 30 9 34 9 43 -5 59 -7
8 -10 9 -110 36 -96 27 -98 27 -113 20 -10 -5 -19 -19 -22 -33 -18 -84 -78
-278 -91 -296 l-4 -4 -5 5 c-3 3 -5 8 -6 13 -6 30 -12 46 -25 56 -20 16 -24
21 -24 25 0 6 -7 27 -14 42 -8 16 -8 17 2 36 9 18 11 32 4 38 -2 2 -4 3 -6 3
-1 0 -2 1 -2 2 0 3 -18 6 -33 6 -10 0 -15 1 -20 4 -11 7 -25 24 -33 41 -5 9
-11 18 -14 21 -7 7 -7 9 4 14 4 2 8 5 8 6 0 1 1 2 3 2 3 0 10 13 12 22 1 4 2
15 2 26 0 18 0 19 6 23 4 4 7 5 18 5 15 0 22 -4 24 -16 6 -38 20 -51 50 -46 8
1 17 3 21 3 20 3 73 12 101 17 18 3 35 6 39 7 4 1 34 7 67 13 33 7 61 12 63
12 1 0 6 2 10 4 4 3 11 5 19 5 17 1 47 8 56 14 16 9 21 30 9 48 -3 4 -11 17
-18 28 -7 11 -17 27 -22 34 -5 8 -13 22 -19 30 -14 23 -30 48 -48 77 -29 45
-35 46 -105 29z m137 -180 c5 -4 6 -6 6 -17 2 -26 -5 -30 -46 -27 -16 2 -31 3
-32 3 -15 -2 -23 5 -23 20 0 19 3 21 34 23 13 1 23 2 24 2 0 1 8 1 16 1 14 0
17 -1 21 -5z m-658 -29 c11 -10 3 -28 -11 -28 -9 0 -16 6 -16 16 0 14 17 22
27 12z m298 -369 l5 -4 -4 -7 c-5 -8 -13 -8 -18 0 -2 5 -2 6 1 11 4 6 10 6 16
0z m283 -4 c3 -3 4 -7 4 -14 0 -13 -6 -19 -19 -19 -13 0 -19 6 -19 19 0 7 1
11 4 14 7 8 23 8 30 0z m-301 -389 c4 -3 5 -7 5 -12 0 -11 -6 -15 -23 -17 -14
-1 -23 -5 -37 -17 -5 -4 -14 -11 -21 -15 -22 -14 -25 -18 -36 -44 -4 -9 -11
-12 -18 -8 -3 2 -5 4 -6 6 -7 14 -18 23 -37 30 -16 5 -21 11 -21 27 0 19 8 27
27 27 9 0 13 -2 24 -8 17 -10 32 -10 44 0 13 9 17 11 34 12 15 1 22 5 39 17
10 7 20 8 26 2z m422 -34 c5 -5 6 -12 3 -20 -4 -7 -8 -10 -20 -11 -9 -1 -11
-1 -14 3 -4 5 -4 9 0 20 4 11 23 15 31 8z m-887 -22 c5 -5 5 -11 0 -16 -10
-10 -27 5 -16 16 4 4 12 4 16 0z m123 -88 c5 -5 6 -7 6 -16 0 -15 -8 -23 -23
-23 -9 0 -11 1 -16 7 -9 8 -9 23 -1 32 9 9 24 9 34 0z m431 -84 c5 -6 5 -9 1
-21 -10 -28 -29 -43 -39 -31 -5 6 -5 9 -1 21 10 28 29 43 39 31z m102 -83 c6
-2 13 -5 16 -8 9 -10 4 -37 -8 -44 -13 -7 -36 -2 -47 11 -3 4 -7 9 -8 11 -5 5
-2 24 4 29 7 6 23 6 43 1z m-135 -31 c11 -6 17 -8 28 -8 15 0 21 -4 21 -13 0
-6 -6 -13 -12 -13 -6 0 -21 7 -26 12 -2 1 -4 2 -4 1 0 0 -3 0 -7 2 -3 1 -10 3
-16 3 -15 1 -22 11 -13 20 4 5 13 4 29 -4z m21 -225 l-5 -5 -4 4 -5 5 4 4 5 5
4 -4 5 -5 -4 -4z m-182 -138 c16 -1 22 -7 27 -24 6 -23 3 -30 -14 -33 -17 -3
-31 0 -37 7 -4 5 -16 41 -14 42 1 1 2 2 1 3 -1 1 4 4 11 7 2 0 7 0 11 0 4 -1
11 -2 15 -2z m91 -62 c21 -2 26 -6 24 -23 -2 -26 -16 -42 -36 -41 -20 1 -28
12 -32 43 -1 12 -1 13 4 17 5 4 16 5 40 4z"/>
<path d="M160 3742 c-3 -1 -6 -1 -7 0 0 0 -1 0 -1 -2 0 -1 -1 -2 -3 -2 -4 0
-14 -12 -18 -21 -3 -7 -3 -30 -3 -213 0 -203 1 -222 6 -222 1 0 4 -2 6 -5 6
-5 24 -11 37 -11 6 0 10 -1 14 -5 l6 -5 1 -33 c1 -43 1 -43 -6 -48 -7 -4 -22
-5 -24 -1 0 1 -3 1 -9 0 -4 -1 -10 -3 -12 -3 -23 -5 -25 -35 -5 -72 9 -17 9
-29 0 -46 -15 -27 -14 -22 -14 -143 0 -61 1 -110 2 -110 0 0 2 -2 3 -4 3 -7
10 -10 22 -10 7 0 11 -1 12 -2 0 -2 1 -2 1 0 0 6 6 8 27 8 19 1 42 5 48 10 2
1 7 2 12 2 13 0 19 -6 19 -19 0 -13 -5 -18 -20 -20 -14 -1 -35 -8 -46 -17 -7
-5 -10 -6 -20 -6 -14 0 -20 2 -20 8 0 2 -1 2 -1 1 -1 -2 -5 -3 -12 -3 -12 0
-19 -3 -22 -10 -1 -2 -3 -4 -3 -4 -3 0 -2 -81 0 -90 4 -11 10 -16 25 -19 7 -1
13 -2 13 -1 0 4 45 20 55 20 5 0 11 -8 11 -13 0 -8 -6 -12 -27 -17 -30 -6 -36
-6 -38 -3 -1 2 -3 2 -14 0 -18 -3 -26 -11 -23 -22 1 -4 2 -8 1 -9 0 -3 9 -14
13 -17 4 -1 6 -3 6 -3 0 -2 7 -3 173 -3 168 -1 168 -1 187 3 23 6 34 6 56 0
12 -3 23 -4 41 -4 24 0 24 0 29 -5 7 -8 6 -24 -3 -46 -4 -10 -5 -11 -6 -8 -2
3 -6 4 -16 4 -14 1 -22 -1 -29 -9 -3 -4 -15 -10 -31 -18 l-19 -8 -6 7 c-3 4
-8 10 -9 13 -6 9 -12 14 -17 17 -4 2 -6 3 -6 2 0 -1 -2 0 -4 1 -2 1 -6 2 -9 2
-11 1 -54 -6 -66 -10 -16 -6 -41 -10 -47 -7 -9 3 -63 0 -73 -5 -9 -4 -16 -9
-16 -12 -1 -1 -2 -4 -3 -7 -1 -3 -3 -11 -3 -18 -2 -16 -4 -20 -10 -24 -12 -8
-21 4 -20 26 0 33 -5 38 -51 54 -42 14 -50 14 -61 3 -6 -7 -11 -21 -11 -33 0
-6 -5 -15 -14 -27 -9 -12 -15 -29 -19 -55 -4 -33 -5 -36 -7 -49 -1 -6 -2 -15
-3 -19 -1 -4 -1 -9 -2 -12 0 -2 -1 -7 -2 -11 -1 -11 -15 -82 -18 -96 -2 -7 -5
-22 -7 -32 -4 -19 -6 -25 -7 -30 -10 -36 -10 -45 -2 -59 4 -8 18 -18 29 -21 4
-1 20 -6 36 -12 29 -10 29 -10 49 -9 19 0 39 6 39 9 0 1 1 2 3 2 4 0 16 12 20
19 6 13 20 81 22 112 0 7 2 14 3 16 1 1 1 3 1 4 -1 0 -1 1 1 1 1 0 2 1 2 2 -1
1 4 41 6 54 1 5 2 7 2 5 0 -3 1 -5 3 -5 2 0 3 1 2 3 -1 1 0 0 2 -2 3 -3 3 -9
2 -44 -1 -59 -1 -95 0 -100 3 -15 11 -23 25 -28 12 -4 22 -3 40 6 12 5 31 11
32 10 3 -3 24 -1 33 3 12 5 17 16 17 36 0 14 4 26 8 26 1 0 2 2 2 5 0 2 1 0 2
-5 4 -16 26 -30 43 -27 3 0 9 1 12 2 3 1 16 3 27 5 36 6 47 14 54 34 3 11 3
14 1 33 -1 12 -2 23 -2 25 1 2 1 7 2 11 1 5 0 11 -1 14 -2 3 -3 7 -2 8 0 0 -1
1 -2 1 -1 0 -2 1 -1 2 0 1 0 3 -2 5 -1 2 -6 3 -20 3 -16 1 -17 0 -20 -4 -12
-17 -22 -21 -31 -11 -4 4 -4 6 -3 15 0 6 2 13 3 16 2 5 15 14 22 15 5 0 21 9
26 13 2 2 6 8 9 14 8 16 12 20 17 16 3 -1 10 -5 17 -9 14 -7 18 -12 18 -27 0
-10 -1 -13 -7 -21 -5 -7 -7 -12 -8 -20 -1 -19 7 -25 33 -25 10 0 13 0 16 -5 8
-9 8 -12 0 -65 -3 -16 -3 -17 -9 -34 -3 -11 -17 -28 -23 -28 -7 0 -39 -37 -39
-45 0 -6 -21 -29 -33 -36 -23 -13 -29 -30 -18 -51 6 -13 7 -20 8 -50 0 -15 1
-23 4 -27 1 -3 3 -7 3 -8 0 -1 7 -2 16 -3 l16 0 6 12 c3 7 6 15 6 17 0 5 6 17
8 17 1 0 4 2 6 4 10 9 38 -3 41 -16 1 -3 3 -9 5 -14 2 -4 4 -9 4 -10 0 -4 16
-18 23 -19 8 -2 11 -2 22 0 7 1 12 2 13 2 1 0 6 1 11 2 63 10 113 44 144 98
17 29 28 79 37 158 10 94 10 120 1 127 -5 4 -31 5 -31 1 0 -5 -8 -9 -18 -9 -9
0 -14 2 -23 9 -3 3 -10 7 -15 9 -19 9 -22 10 -23 10 -4 0 -11 10 -11 15 0 8 7
15 14 15 3 0 11 -2 17 -5 13 -6 38 -13 46 -13 6 0 13 -5 13 -11 0 -3 1 -5 2
-4 1 1 9 2 16 2 25 0 26 5 26 93 0 21 1 46 2 55 1 9 2 33 3 54 3 88 3 107 4
157 1 29 2 56 2 60 3 30 3 57 0 66 -10 27 -34 32 -56 13 -15 -13 -19 -15 -28
-15 -9 0 -13 2 -28 15 -14 12 -20 14 -51 14 l-29 0 -6 7 c-4 3 -6 6 -5 6 0 0
1 8 0 17 -1 18 -1 18 5 24 5 5 8 6 15 5 22 -1 35 8 46 31 9 19 12 21 25 21 8
0 25 -5 25 -8 0 -3 8 -29 8 -26 0 3 2 3 14 2 15 -1 16 -1 16 12 0 5 -1 9 -4
11 -15 14 -18 21 -14 34 3 9 14 29 16 31 4 2 6 21 4 29 -6 23 -21 36 -57 55
-7 3 -13 7 -13 9 0 1 -1 3 -1 3 -1 1 -6 6 -10 11 -5 6 -12 12 -16 14 -4 2 -7
4 -7 5 0 2 -10 3 -26 3 -14 0 -15 0 -21 6 -6 6 -6 7 -6 24 0 17 0 18 6 24 l6
6 27 0 c27 0 27 0 37 6 9 6 14 12 23 31 3 5 7 10 10 11 32 15 39 20 44 35 4
11 3 118 -1 127 -4 9 -14 21 -18 21 -2 0 -3 1 -3 2 0 2 0 2 -23 3 -19 2 -27
-1 -35 -9 -6 -6 -10 -22 -10 -37 0 -12 0 -14 -6 -19 -8 -9 -26 -9 -34 0 -6 5
-6 7 -6 16 1 14 -2 30 -4 29 -1 -1 -2 1 -2 4 0 6 -4 18 -7 23 -1 2 -2 15 -3
29 l-1 26 6 6 6 6 54 0 54 0 8 6 c5 4 7 7 8 13 1 4 2 10 3 13 1 5 1 7 -1 8 -2
0 -3 4 -3 10 0 10 4 14 22 23 11 5 22 17 22 22 0 2 1 4 2 5 4 2 3 125 -1 134
-4 9 -14 21 -18 21 -2 0 -3 1 -3 2 0 1 -1 2 -2 2 -6 1 -687 1 -692 0z m326
-42 c4 -5 4 -5 -1 -10 l-4 -4 -4 4 c-5 4 -5 5 -1 9 4 6 5 6 10 1z m11 -144 c4
-5 21 -54 21 -62 0 -7 -7 -14 -15 -14 -7 0 -15 7 -15 12 0 2 -1 4 -2 5 -1 1
-6 15 -6 20 0 1 -2 7 -4 13 -5 14 -5 20 0 25 6 6 16 7 21 1z m203 0 c5 -5 5
-15 0 -20 -9 -9 -24 -2 -24 10 0 8 6 14 14 14 3 0 8 -2 10 -4z m-376 -52 c5
-5 5 -11 0 -16 -10 -10 -27 5 -16 16 4 4 12 4 16 0z m118 -26 c2 -4 6 -6 8 -6
2 0 2 0 0 -2 -2 -1 -2 -7 -2 -25 l1 -24 -6 -6 c-6 -6 -7 -6 -28 -6 -21 0 -22
0 -28 6 l-6 6 0 25 0 25 6 6 c6 6 6 6 28 6 22 0 22 0 27 -5z m206 -86 c9 -5
15 -14 14 -26 -1 -15 -6 -20 -21 -20 -16 0 -25 11 -25 31 0 17 14 24 32 15z
m-312 -83 c21 -9 20 -45 -2 -54 -10 -5 -28 -1 -34 6 -9 10 -9 32 0 42 7 8 24
11 36 6z m171 -41 c9 -4 19 -8 23 -9 4 -1 9 -2 11 -2 2 0 7 -1 12 -1 12 0 19
-9 19 -23 0 -24 -20 -31 -47 -14 -18 11 -21 12 -29 11 -16 -1 -17 -2 -18 -21
0 -16 0 -17 5 -20 14 -9 18 -31 7 -41 -3 -3 -8 -6 -11 -7 -8 -3 -22 -14 -20
-16 1 0 0 -1 -2 -1 -1 0 -6 -2 -10 -4 -7 -4 -12 -5 -31 -6 l-23 -1 -6 6 c-6 6
-6 7 -6 24 0 14 1 19 3 22 2 2 5 7 6 13 1 5 3 11 4 13 3 7 6 21 4 22 -3 2 -2
21 1 27 3 6 9 9 25 12 14 2 32 10 44 19 10 7 20 7 39 -3z m-238 -111 c12 -7
14 -33 3 -43 -8 -9 -32 -9 -40 0 -8 7 -9 33 -1 41 6 7 29 8 38 2z m323 0 c2
-2 6 -7 9 -12 3 -4 8 -12 11 -16 11 -17 14 -25 14 -37 -1 -21 -11 -36 -26 -41
-9 -3 -7 -4 -41 6 -2 1 -6 4 -9 7 -5 6 -5 6 -3 18 3 15 4 34 1 44 -4 15 3 31
16 34 9 2 22 1 28 -3z m146 -100 c3 -2 6 -5 6 -6 0 -1 1 -5 3 -9 4 -8 7 -29 6
-40 -2 -10 -10 -20 -16 -20 -13 -1 -19 0 -42 9 -19 7 -28 9 -37 9 l-11 0 -10
-13 c-6 -6 -12 -15 -14 -18 -7 -15 -24 -25 -39 -25 -9 0 -11 1 -16 6 -6 6 -6
7 -6 19 1 7 2 14 4 16 10 11 17 17 27 20 4 2 9 4 10 5 1 1 3 1 4 1 1 -2 5 -3
14 -4 3 -1 9 -1 12 -2 5 -1 8 0 11 2 2 2 6 6 10 9 3 3 8 7 11 9 11 10 13 11
15 11 0 0 6 5 13 10 7 6 14 12 17 13 8 3 21 2 28 -2z m-512 -6 c3 -3 4 -7 4
-14 0 -13 -6 -19 -19 -19 -13 0 -19 6 -19 19 0 7 1 11 4 14 7 8 23 8 30 0z
m249 -181 c4 -5 16 -30 22 -48 7 -22 2 -27 -25 -29 -10 0 -25 -2 -32 -2 -15
-2 -21 1 -34 13 -4 3 -8 6 -10 6 -2 0 -4 1 -4 2 0 1 -2 5 -4 9 -4 5 -5 10 -6
25 -1 19 -1 19 5 25 l6 6 38 -1 c38 -1 39 -1 44 -6z m174 -42 c3 -3 5 -9 6
-13 1 -4 3 -9 4 -10 2 -1 4 -6 4 -11 1 -5 2 -13 3 -17 1 -8 1 -9 -3 -13 l-5
-4 -7 5 c-4 3 -7 5 -6 5 1 0 -2 4 -6 10 -21 29 -24 38 -15 47 6 7 20 7 25 1z
m-115 -107 c2 -2 4 -5 4 -6 0 -4 12 -26 17 -31 5 -6 7 -7 19 -15 9 -6 11 -9
13 -19 3 -17 -5 -29 -19 -32 -14 -3 -23 0 -37 15 -7 7 -17 15 -24 19 -18 9
-20 13 -17 30 2 15 11 37 16 41 7 6 21 5 28 -2z m195 -169 c5 -5 6 -7 6 -16 0
-15 -8 -23 -23 -23 -9 0 -11 1 -16 7 -9 8 -9 23 -1 32 9 9 24 9 34 0z m-54
-138 c13 -7 17 -19 9 -27 -15 -15 -35 7 -22 24 5 6 6 6 13 3z m-345 -21 l-5
-5 -4 4 -5 5 4 4 5 5 4 -4 5 -5 -4 -4z m76 -126 c7 -12 11 -30 9 -53 0 -11 -2
-22 -3 -23 -1 -2 -2 -4 -1 -5 1 -1 0 -2 -1 -3 -1 -1 -2 0 -2 2 0 8 -6 16 -16
21 -11 5 -21 7 -29 8 -16 1 -24 26 -12 38 4 4 9 6 16 7 11 1 31 10 31 13 0 4
4 2 8 -5z m-218 -32 c14 -6 19 -25 11 -43 -2 -6 -6 -9 -18 -15 -10 -5 -18 -11
-23 -17 -4 -4 -9 -11 -12 -15 -3 -3 -6 -7 -6 -7 0 -3 -19 -22 -25 -25 -13 -7
-21 1 -17 14 2 8 10 21 16 27 5 6 8 14 9 30 1 9 2 18 1 19 -1 5 7 17 15 21 21
13 36 16 49 11z m626 -141 c5 -5 5 -11 0 -16 -10 -10 -27 5 -16 16 4 4 12 4
16 0z m-245 -81 c3 -5 3 -5 0 -10 -5 -6 -8 -6 -13 0 -5 5 -5 5 0 11 4 5 8 5
13 -1z"/>
</g>
</svg>
