<?xml version="1.0" standalone="no"?>
<!DOCTYPE svg PUBLIC "-//W3C//DTD SVG 20010904//EN"
 "http://www.w3.org/TR/2001/REC-SVG-20010904/DTD/svg10.dtd">
<svg version="1.0" xmlns="http://www.w3.org/2000/svg"
 width="1100.000000pt" height="2850.000000pt" viewBox="0 0 1100.000000 2850.000000"
 preserveAspectRatio="xMidYMid meet">
<metadata>
Created by potrace 1.15, written by Peter Selinger 2001-2017
</metadata>
<g transform="translate(0.000000,2850.000000) scale(0.500000,-0.500000)"
fill="#000000" stroke="none">
<path d="M416 3767 c-1 0 -3 -1 -6 -2 -34 -6 -58 -16 -65 -27 -3 -4 -13 -30
-22 -58 -21 -62 -33 -97 -53 -146 -8 -20 -9 -25 -6 -39 3 -10 8 -17 13 -17 2
0 7 0 10 -1 7 -2 24 10 31 22 6 9 11 12 24 12 19 0 27 -8 27 -27 0 -23 -11
-30 -43 -25 -13 2 -22 -1 -38 -12 -9 -5 -14 -7 -21 -7 -12 0 -26 -4 -36 -9 -6
-4 -9 -9 -18 -29 -25 -53 -48 -96 -87 -165 -22 -38 -73 -116 -96 -145 -26 -35
-28 -45 -12 -78 9 -19 40 -91 56 -131 13 -31 18 -45 37 -99 4 -10 9 -23 10
-28 6 -16 12 -20 29 -20 13 0 14 0 19 7 14 14 16 18 14 30 0 6 -2 13 -4 15 -3
4 -16 14 -18 14 -4 0 -10 7 -12 13 -6 17 4 32 21 32 14 0 31 -14 35 -30 3 -10
5 -23 5 -30 -1 -11 3 -22 10 -27 7 -5 28 -8 32 -5 4 5 27 4 33 -2 11 -9 9 -31
-3 -44 -4 -5 -10 -12 -13 -16 -8 -10 -15 -17 -18 -17 -4 0 -30 -13 -33 -17 -8
-9 -8 -17 -7 -109 1 -104 1 -71 0 -382 -1 -220 -1 -246 2 -253 4 -9 14 -21 18
-21 2 0 3 -1 3 -2 0 -3 12 -3 97 -3 l86 0 8 5 c5 2 13 9 17 14 13 15 13 15 30
24 27 14 29 18 30 76 1 39 2 46 5 50 1 3 3 4 3 3 0 -1 1 0 2 2 2 4 2 3 2 -1 0
-3 2 -11 5 -17 6 -14 17 -43 24 -66 9 -28 11 -29 32 -29 13 1 13 1 23 14 5 7
20 9 36 5 8 -2 12 -20 9 -40 -1 -6 -1 -12 0 -14 1 -2 2 -5 2 -7 2 -10 12 -17
27 -16 16 0 129 12 176 19 3 0 10 1 17 2 25 3 38 6 47 14 6 4 12 24 12 38 -1
12 0 14 5 19 13 13 37 6 40 -11 2 -13 12 -27 22 -31 13 -6 18 -6 64 5 22 5 42
10 44 10 2 1 18 5 36 9 18 5 36 9 40 10 13 4 30 1 60 -8 26 -8 28 -8 38 -6 12
3 21 9 30 23 9 13 13 16 27 16 18 0 25 -6 27 -24 2 -22 11 -38 26 -46 8 -3 54
-12 59 -10 2 1 5 2 7 2 2 0 11 3 19 6 8 3 16 5 18 5 4 0 17 -7 23 -14 3 -2 10
-7 16 -10 12 -6 41 -10 94 -15 8 -1 17 -2 20 -2 3 -1 12 -1 19 -2 72 -6 91 -7
117 -8 48 -2 56 2 73 35 34 71 41 85 51 103 6 10 11 20 11 20 0 1 2 5 5 8 3 4
5 7 5 8 0 2 32 50 34 51 3 1 -2 26 -5 30 -8 9 -13 10 -77 11 -58 1 -62 1 -76
-3 -17 -5 -18 -5 -41 -9 -27 -5 -30 -5 -38 -5 -7 0 -12 2 -20 7 -28 18 -35 20
-90 22 -22 1 -34 0 -45 -2 -18 -3 -26 -1 -32 7 -2 3 -5 6 -6 7 -3 4 -8 15 -6
15 1 0 1 2 1 5 -2 8 11 8 36 -1 22 -7 40 -9 47 -4 20 14 92 85 116 116 5 6 9
11 10 12 3 3 27 36 41 57 22 32 26 41 24 51 -3 18 -9 24 -36 39 -5 3 -20 11
-33 19 -52 29 -66 36 -74 38 -10 3 -42 5 -38 2 1 -1 -1 -1 -6 -1 -7 0 -8 0 -4
1 6 3 5 3 -9 4 -18 0 -19 2 -2 2 12 0 16 1 23 6 10 6 18 15 23 25 8 15 12 17
32 16 24 -1 34 2 42 13 22 31 29 65 28 132 l0 35 6 6 6 6 75 0 c75 0 86 0 86
3 0 1 1 2 3 2 4 0 14 12 18 21 2 6 3 14 3 35 0 30 -2 37 -15 63 -4 8 -7 15 -7
17 0 1 -1 2 -2 2 -1 0 -2 1 -2 3 0 3 -15 21 -18 21 -1 -1 -9 3 -26 11 -6 2 -8
6 -15 28 -3 9 -7 17 -9 19 -8 8 -18 22 -18 26 0 4 5 11 10 12 6 1 23 -13 23
-19 0 -3 21 -16 31 -20 4 -2 8 -4 8 -5 0 -1 1 -2 2 -1 0 0 5 1 10 2 26 3 28 8
28 60 0 31 -1 40 -3 46 -4 9 -14 21 -18 21 -2 0 -3 1 -3 2 0 2 -11 3 -62 3
-46 0 -52 0 -58 -4 -5 -2 -13 -5 -19 -7 -13 -4 -22 -2 -41 7 l-9 4 -451 1
c-489 0 -456 1 -466 -10 -5 -5 -10 -22 -10 -29 2 -30 -4 -38 -26 -38 -22 0
-28 8 -26 38 0 7 -5 24 -10 29 -9 10 -11 10 -94 9 -80 -1 -82 -1 -82 -3 0 -1
-1 -2 -3 -2 -4 0 -14 -12 -18 -21 -3 -6 -3 -21 -3 -113 0 -71 1 -108 2 -112 2
-7 15 -21 18 -19 1 1 2 0 3 -1 0 -1 4 -2 8 -3 11 -2 11 -3 18 -3 9 0 15 -8 15
-21 0 -6 -1 -12 -3 -13 -1 -2 -2 -6 -1 -16 1 -11 2 -14 8 -18 8 -7 15 -8 63
-8 l40 1 6 -6 6 -6 0 -31 c0 -26 1 -32 4 -38 4 -8 16 -19 25 -23 19 -8 19 -34
0 -42 -31 -14 -39 -52 -17 -74 3 -4 7 -7 8 -7 2 0 3 -1 3 -2 0 -3 12 -3 115
-3 103 0 115 0 115 3 0 1 1 2 3 2 4 0 14 12 18 21 2 5 3 14 3 24 0 20 -4 31
-13 35 -8 3 -27 6 -28 4 -1 -1 -4 -2 -7 -2 -19 -2 -26 4 -26 21 0 17 7 23 26
21 3 0 6 -1 7 -2 1 -2 20 1 28 4 8 4 14 16 13 29 -1 9 0 11 5 16 l6 6 31 0 31
0 6 -6 6 -6 -1 -72 c0 -62 0 -73 3 -80 4 -9 14 -21 18 -21 2 0 3 -1 3 -2 0 -1
40 -2 115 -2 75 0 115 1 115 2 0 1 1 2 3 2 4 0 14 12 18 21 3 7 3 18 3 80 l-1
72 6 6 7 5 45 0 c43 0 46 0 46 -4 1 -1 1 -4 1 -5 1 -4 0 -7 -3 -7 -2 0 -13 -9
-25 -23 -3 -4 -9 -8 -12 -8 -8 -2 -21 -9 -27 -15 -9 -9 -10 -20 -3 -41 4 -11
7 -19 8 -19 1 0 2 -1 2 -2 0 -4 8 -10 14 -11 6 -2 24 -2 36 0 12 2 18 -4 18
-18 -1 -15 7 -34 15 -35 l6 -2 -6 0 c-4 0 -7 -1 -8 -2 -1 -1 -2 -2 -3 -1 -1 1
-2 0 -3 -1 -2 -3 -15 -4 -69 -5 -53 -1 -68 0 -74 6 -5 4 -214 4 -218 0 -2 -3
-7 -4 -18 -6 -2 0 -5 -1 -5 -2 -1 0 -3 -1 -5 -1 -8 0 -21 -9 -34 -22 l-13 -14
-14 0 -14 0 -13 14 c-22 24 -24 24 -93 24 -49 0 -58 0 -65 -3 -8 -4 -21 -17
-23 -23 -1 -2 -4 -5 -7 -7 -5 -3 -7 -3 -12 0 -3 2 -6 5 -7 7 -2 6 -15 19 -24
23 -6 3 -13 3 -62 2 -57 -1 -59 -1 -59 -3 0 -1 -1 -2 -3 -2 -4 0 -14 -12 -18
-21 -2 -5 -3 -14 -3 -25 0 -23 5 -32 19 -40 6 -2 13 -6 16 -7 3 -2 6 -3 6 -2
2 1 9 -7 9 -11 0 -4 -7 -12 -9 -11 0 1 -3 0 -6 -2 -3 -1 -10 -5 -16 -7 -14 -7
-19 -17 -19 -38 0 -10 1 -18 3 -23 4 -9 14 -21 18 -21 2 0 3 -1 3 -2 0 -2 1
-2 68 -4 67 -1 68 -1 72 -6 1 -2 4 -4 7 -5 l4 0 -5 -1 c-12 0 -17 -30 -6 -42
14 -18 25 -27 35 -31 12 -4 24 -15 26 -24 1 -3 2 -4 4 -4 2 2 -2 -4 -7 -9 -6
-6 -28 -10 -104 -15 -52 -4 -53 -4 -66 -10 -13 -6 -21 -14 -23 -23 -3 -14 -5
-24 -6 -35 -2 -20 -8 -25 -28 -22 -14 1 -22 5 -25 13 -2 5 -2 9 -2 30 0 14 -6
27 -16 32 -7 4 -43 5 -51 2 -3 -1 -5 0 -9 5 l-6 6 0 86 c0 101 0 99 -22 115
-3 2 -7 4 -7 4 -1 0 -5 3 -10 6 -6 6 -7 7 -7 15 0 8 1 9 7 15 5 3 9 6 10 6 0
0 4 2 7 5 22 15 22 15 22 100 0 77 -1 82 -10 90 -6 5 -28 14 -32 14 -4 0 -10
6 -10 11 0 5 6 11 10 11 4 0 26 9 32 14 10 8 10 11 10 129 0 96 0 113 -3 122
-2 6 -4 12 -5 13 -1 1 -3 7 -5 14 -4 12 -3 20 5 38 8 17 8 22 8 119 0 96 0 97
-8 144 -2 12 -2 16 2 33 3 11 5 32 6 46 1 14 2 28 3 30 2 10 12 37 20 54 5 10
29 72 39 101 6 15 11 29 12 31 1 2 4 10 7 18 7 21 13 39 16 46 1 3 10 29 20
58 16 50 17 52 15 63 -2 11 -9 22 -17 27 -2 1 -4 3 -5 3 -2 2 -64 22 -69 22
-6 0 -30 -8 -31 -10 -2 -4 -17 -9 -27 -9 -9 0 -12 2 -28 12 -9 6 -20 12 -22
13 -5 2 -18 3 -19 1z m-124 -387 c5 -5 6 -7 6 -17 0 -16 -7 -23 -23 -23 -16 0
-23 7 -23 23 0 16 7 23 23 23 10 0 12 -1 17 -6z m50 -173 c21 -9 20 -45 -2
-54 -10 -5 -28 -1 -34 6 -9 10 -9 32 0 42 7 8 24 11 36 6z m1267 -141 c4 -6 4
-24 -1 -30 -7 -9 -27 -9 -34 0 -5 6 -5 24 0 30 7 9 27 9 35 0z m-717 0 c2 -1
6 -7 9 -13 5 -10 16 -27 19 -29 1 -1 4 -5 8 -10 9 -12 9 -28 0 -36 -5 -5 -7
-6 -17 -6 -14 0 -19 4 -27 24 -3 8 -10 21 -15 29 -16 24 -11 43 10 43 5 0 11
-1 13 -2z m-779 -21 c5 -1 19 -2 32 -2 30 -1 39 -4 44 -15 7 -15 0 -32 -14
-39 -12 -6 -22 -5 -37 1 -7 3 -22 9 -32 12 -11 3 -21 8 -22 10 -5 6 -5 22 0
28 3 4 17 8 20 7 1 -1 5 -1 9 -2z m1100 -32 c12 -7 14 -33 3 -43 -8 -9 -32 -9
-40 0 -9 8 -9 32 0 41 7 7 27 8 37 2z m242 -17 c11 -10 3 -28 -11 -28 -9 0
-16 6 -16 16 0 14 17 22 27 12z m-1172 -53 c12 -7 14 -33 3 -43 -8 -9 -32 -9
-40 0 -9 8 -9 32 0 41 7 7 27 8 37 2z m1508 -17 c4 -6 4 -24 -1 -30 -7 -9 -27
-9 -34 0 -5 6 -5 24 0 30 7 9 27 9 35 0z m-986 -8 c14 -2 58 -2 141 -2 79 1
122 0 123 -1 3 -3 3 -9 0 -12 -1 -1 -41 -2 -116 -1 -122 0 -129 0 -142 -9 -25
-17 -40 -20 -50 -10 -6 6 -7 24 -1 31 3 4 14 8 21 7 2 0 13 -2 24 -3z m838 -3
c3 -3 3 -9 0 -12 -1 -1 -50 -2 -139 -2 -89 0 -138 1 -139 2 -3 3 -3 9 0 12 1
1 50 2 139 2 89 0 138 -1 139 -2z m-479 -42 c14 -5 20 -20 16 -36 -6 -22 -27
-26 -57 -12 -8 4 -22 6 -35 7 -8 0 -12 1 -15 4 -5 5 -5 5 -1 11 3 5 7 7 28 18
20 10 51 14 64 8z m90 -43 c5 -5 5 -11 0 -16 -10 -10 -27 5 -16 16 4 4 12 4
16 0z m355 -10 c16 -7 16 -43 -1 -50 -15 -6 -34 -2 -39 9 -4 8 -4 24 0 32 5
12 23 15 40 9z m-679 -8 c5 -5 6 -7 6 -17 0 -16 -7 -23 -23 -23 -16 0 -23 7
-23 23 0 16 7 23 23 23 10 0 12 -1 17 -6z m552 -18 c5 -6 5 -12 0 -18 -7 -8
-22 -2 -22 9 0 11 15 17 22 9z m-260 -133 c3 -3 4 -7 4 -14 0 -13 -6 -19 -19
-19 -13 0 -19 6 -19 19 0 7 1 11 4 14 7 8 23 8 30 0z m-906 -138 l-5 -5 -4 4
-5 5 4 4 5 5 4 -4 5 -5 -4 -4z m962 -8 c-33 -1 -87 -1 -120 0 -34 0 -7 0 59 0
66 0 93 0 61 0z m-349 -81 c10 -9 3 -26 -10 -26 -8 0 -15 7 -15 15 0 13 16 20
25 11z m-161 -2 c5 -6 5 -12 0 -18 -7 -8 -22 -2 -22 9 0 11 15 17 22 9z m299
-13 c36 -14 36 -29 1 -36 -26 -5 -39 -4 -46 3 -9 8 -9 26 0 34 8 9 20 8 45 -1z
m331 -2 c21 -9 20 -45 -2 -54 -10 -5 -28 -1 -34 6 -9 10 -9 32 0 42 7 8 24 11
36 6z m-1023 -88 c5 -8 1 -16 -8 -16 -9 0 -13 8 -8 16 2 3 5 5 8 5 3 0 6 -2 8
-5z m558 -9 c10 -9 3 -26 -10 -26 -8 0 -15 7 -15 15 0 13 16 20 25 11z m370
-28 c3 -2 5 -4 4 -4 -1 0 0 -1 2 -2 4 -2 4 -2 0 -2 -3 0 -11 -3 -19 -7 -21 -9
-67 -27 -78 -29 -9 -2 -15 -2 -37 1 -12 2 -24 1 -23 -1 0 -1 0 -6 0 -11 0 -7
1 -9 8 -16 4 -4 8 -8 9 -7 1 0 8 -6 12 -13 3 -4 3 -5 0 -10 -5 -6 -3 -6 -33 2
-14 4 -27 7 -29 7 -7 0 -13 8 -13 17 0 7 1 10 8 17 8 8 8 8 8 23 0 8 0 16 -1
17 -2 2 -17 10 -20 10 -4 0 4 8 10 10 2 1 45 2 95 2 87 0 92 0 97 -4z m-430
-46 c7 -6 7 -18 1 -23 -13 -13 -31 -6 -29 10 3 16 18 23 28 13z m-451 -12 c9
-10 4 -18 -19 -28 -8 -4 -17 -9 -20 -11 -18 -17 -18 -17 -32 -17 -11 0 -14 1
-18 5 -6 4 -6 6 -6 20 0 14 0 16 6 20 5 5 7 5 24 5 16 0 47 6 51 9 2 3 11 1
14 -3z m1085 -15 c6 -5 8 -8 8 -12 0 -6 -1 -6 -9 -7 -8 -1 -9 -1 -15 5 -8 8
-8 10 -4 17 4 6 10 5 20 -3z m-408 -106 c13 -5 28 -15 32 -21 5 -9 4 -23 -2
-29 -16 -17 -63 10 -63 36 0 15 13 21 33 14z m-777 -14 c3 -3 4 -7 4 -14 0
-13 -6 -19 -19 -19 -13 0 -19 6 -19 19 0 7 1 11 4 14 7 8 23 8 30 0z m1325 -6
c3 -3 3 -3 0 -6 -4 -5 -11 1 -7 6 4 4 4 4 7 0z m-146 -21 c10 -9 3 -26 -10
-26 -8 0 -15 7 -15 15 0 13 16 20 25 11z m-808 -23 c7 -5 10 -11 10 -23 0 -13
-4 -20 -11 -24 -5 -3 -24 -3 -31 -1 -12 4 -17 39 -6 49 5 4 7 4 20 3 7 0 16
-2 18 -4z m547 -3 c5 -5 5 -11 0 -16 -10 -10 -27 5 -16 16 4 4 12 4 16 0z
m515 -4 c10 -9 3 -26 -10 -26 -8 0 -15 7 -15 15 0 13 16 20 25 11z m-134 -33
c4 -4 5 -7 5 -15 0 -14 -6 -20 -20 -20 -8 0 -11 1 -15 5 -4 4 -5 7 -5 15 0 14
6 20 20 20 8 0 11 -1 15 -5z"/>
<path d="M706 3725 c-21 -6 -31 -14 -40 -30 l-5 -10 -1 -55 c0 -47 0 -56 3
-63 4 -9 14 -21 18 -21 2 0 3 -1 3 -2 0 -1 1 -1 3 -2 46 -5 57 -2 81 23 l11
11 14 0 14 0 11 -11 c21 -21 31 -25 45 -20 5 1 17 14 17 18 0 1 2 5 5 10 3 4
5 7 4 7 -1 0 0 2 3 5 4 4 7 5 13 5 6 0 9 -1 13 -5 3 -3 4 -5 3 -5 -1 0 0 -2 3
-5 2 -4 5 -9 6 -13 4 -9 14 -17 24 -20 4 -1 27 -2 53 -2 l45 0 22 7 c26 9 32
9 55 1 22 -8 25 -8 40 -5 16 4 28 4 46 0 12 -3 30 -3 107 -3 88 1 93 1 100 5
9 5 11 7 18 14 3 3 6 5 7 5 2 0 3 1 3 2 2 4 15 4 18 -1 8 -9 8 -31 -1 -40 l-6
-6 -156 0 -156 0 -16 -7 c-22 -9 -35 -10 -52 -3 -28 11 -43 9 -59 -12 -20 -25
-44 -25 -64 0 -7 9 -12 13 -21 17 l-13 6 -98 -1 c-102 -1 -104 -1 -104 -3 0
-1 -1 -2 -3 -2 -4 0 -14 -12 -18 -21 -5 -14 -3 -49 4 -71 5 -15 6 -27 5 -41
-2 -14 6 -30 19 -35 8 -4 17 -4 222 -4 148 0 216 1 222 2 13 4 26 21 28 39 1
12 4 18 13 37 13 24 17 28 29 28 7 0 11 -1 14 -4 5 -5 5 -6 5 -28 0 -13 -1
-26 -2 -29 -2 -7 6 -27 13 -35 8 -9 10 -9 103 -10 89 -1 89 -1 94 -5 2 -3 5
-5 7 -5 2 0 3 -1 3 -2 0 -8 19 -18 41 -23 18 -4 23 -9 23 -21 0 -18 -16 -22
-44 -13 -7 3 -13 5 -13 5 -3 0 -11 12 -16 24 -4 8 -8 14 -9 13 -1 -1 -2 0 -3
2 0 2 -5 5 -10 7 -8 4 -13 4 -76 4 l-67 0 -10 -6 c-9 -4 -13 -8 -21 -21 -21
-32 -38 -47 -53 -47 -14 0 -20 6 -20 20 0 6 1 11 3 13 2 1 2 3 2 4 -1 0 -2 4
-2 8 -1 13 -3 19 -10 24 l-7 5 -253 -1 c-140 0 -255 -1 -256 -1 -2 0 -3 -1 -3
-2 0 -1 -1 -2 -3 -2 -4 0 -14 -12 -18 -21 -5 -11 -5 -123 0 -134 4 -9 14 -21
18 -21 2 0 3 -1 3 -2 0 0 2 -2 6 -2 6 -1 1037 -1 1045 0 3 0 5 2 5 2 0 1 1 2
3 2 4 0 14 12 18 21 5 12 5 522 0 534 -4 9 -14 21 -18 21 -2 0 -3 1 -3 2 0 1
-1 2 -2 2 -2 0 -142 1 -312 1 -275 1 -310 1 -317 -2 -8 -3 -19 -12 -20 -17 0
-2 -1 -6 -3 -9 -1 -3 -3 -10 -4 -15 -2 -12 -8 -16 -20 -16 -12 0 -18 4 -20 16
-1 5 -3 12 -4 15 -2 3 -3 7 -3 9 -1 4 -10 12 -18 16 -7 3 -13 4 -45 4 -36 0
-38 0 -56 -6 -11 -3 -23 -6 -29 -6 -6 0 -18 3 -29 6 l-19 6 -58 0 c-41 0 -61
-1 -67 -3z m610 -44 c5 -5 5 -15 -1 -27 -10 -21 -39 -18 -39 3 0 14 8 23 25
27 8 2 10 1 15 -3z m224 -33 c5 -5 6 -7 6 -17 0 -16 -7 -23 -23 -23 -10 0 -12
1 -17 6 -5 5 -6 7 -6 17 0 16 7 23 23 23 10 0 12 -1 17 -6z m81 -42 c11 -10 3
-28 -11 -28 -9 0 -16 6 -16 16 0 14 17 22 27 12z m-34 -105 c12 -12 3 -31 -13
-31 -11 0 -18 7 -18 18 0 11 7 18 18 18 6 0 9 -1 13 -5z m-792 -47 c10 -9 3
-26 -10 -26 -8 0 -15 7 -15 15 0 13 16 20 25 11z m873 0 c5 -6 5 -12 0 -18 -7
-8 -22 -2 -22 9 0 11 15 17 22 9z m-37 -84 c7 -6 7 -19 1 -25 -6 -7 -19 -7
-25 -1 -7 6 -7 19 -1 25 6 7 19 7 25 1z"/>
</g>
</svg>
