<?xml version="1.0" standalone="no"?>
<!DOCTYPE svg PUBLIC "-//W3C//DTD SVG 20010904//EN"
 "http://www.w3.org/TR/2001/REC-SVG-20010904/DTD/svg10.dtd">
<svg version="1.0" xmlns="http://www.w3.org/2000/svg"
 width="1100.000000pt" height="2850.000000pt" viewBox="0 0 1100.000000 2850.000000"
 preserveAspectRatio="xMidYMid meet">
<metadata>
Created by potrace 1.15, written by Peter Selinger 2001-2017
</metadata>
<g transform="translate(0.000000,2850.000000) scale(0.500000,-0.500000)"
fill="#000000" stroke="none">
<path d="M964 3799 c-5 -2 -12 -6 -15 -10 -7 -7 -12 -15 -10 -15 1 0 0 -2 -1
-4 -1 -2 -2 -19 -3 -39 -1 -47 3 -56 27 -68 14 -7 21 -12 26 -23 3 -5 6 -12 9
-15 10 -15 10 -15 10 -60 l0 -42 -5 -5 c-6 -6 -7 -7 -20 -6 -24 1 -34 -2 -41
-10 -7 -9 -9 -19 -9 -42 1 -21 1 -21 -5 -27 l-6 -6 -37 1 c-40 0 -46 -1 -54
-10 -6 -6 -10 -22 -10 -37 0 -12 0 -14 -6 -19 -5 -5 -7 -6 -16 -6 -23 0 -41
-9 -45 -22 -9 -23 4 -45 30 -55 6 -2 11 -5 13 -6 2 -2 4 -3 5 -3 1 0 4 -2 6
-4 6 -6 23 -10 37 -9 18 1 25 -1 34 -9 13 -12 23 -16 51 -20 17 -2 20 -6 20
-25 0 -16 -4 -23 -11 -23 -3 0 -4 -1 -3 -2 1 -1 -1 -2 -4 -3 -3 -1 -4 -2 -4
-3 1 -1 0 -2 -2 -2 -2 0 -3 -1 -2 -2 1 -2 1 -2 -1 -1 -3 2 -7 -3 -8 -8 -1 -7
-2 -6 -2 4 0 7 1 9 3 8 2 -1 2 -1 0 1 -4 4 -4 6 3 7 4 0 4 0 -2 1 -4 0 -10 3
-17 8 -12 9 -26 14 -38 14 -16 0 -23 3 -33 14 -8 9 -23 17 -33 19 -2 0 -4 1
-4 1 0 0 -2 1 -3 1 -2 0 -4 0 -4 -1 0 -1 -2 -2 -5 -3 -8 -2 -20 -12 -25 -22
-5 -11 -5 -14 1 -28 6 -14 21 -27 41 -35 l15 -7 39 -1 c41 0 60 2 60 7 0 6 4
2 5 -5 0 -4 3 -9 5 -10 3 -2 3 -4 2 -16 -1 -7 -2 -25 -3 -39 -1 -14 -2 -28 -2
-31 -2 -15 8 -33 23 -44 13 -9 16 -15 16 -28 0 -14 -3 -18 -19 -27 -29 -16
-32 -22 -40 -97 -2 -18 -12 -83 -17 -114 -3 -14 -2 -25 5 -43 9 -23 7 -30 -9
-51 -7 -9 -12 -26 -13 -41 0 -12 -6 -25 -12 -28 -5 -4 -11 -20 -24 -61 -19
-63 -36 -109 -57 -156 -9 -21 -12 -28 -16 -36 -1 -3 -4 -14 -6 -24 -7 -31 -13
-33 -49 -26 -25 5 -33 8 -34 15 -4 14 3 19 28 23 27 4 37 14 37 35 0 11 -1 13
-10 25 -20 26 -24 33 -25 40 -1 10 2 22 8 27 21 18 25 22 28 28 7 13 6 20 -2
28 -10 10 -21 12 -45 10 -14 -2 -41 2 -45 6 -3 3 -4 10 -3 21 1 8 5 14 14 16
10 3 36 3 40 1 5 -3 22 -1 25 2 7 10 2 30 -10 42 -8 8 -9 9 -9 18 0 13 1 14
17 26 22 16 25 24 25 61 0 31 -3 44 -13 57 -18 24 -18 32 0 56 12 15 15 35 10
59 -1 6 -2 12 -1 12 0 0 0 1 -2 2 -1 2 -2 5 -2 7 0 2 -1 5 -2 7 -2 2 -2 2 0 1
1 -1 2 0 2 1 0 1 -1 2 -2 3 -2 0 -2 1 1 1 1 0 3 1 3 2 0 0 1 2 1 4 5 18 6 39
3 41 -1 1 -2 3 -2 5 0 5 -17 22 -21 22 -3 0 -15 13 -15 16 0 3 12 16 15 16 4
0 21 17 21 22 0 2 1 4 2 5 1 1 2 43 2 119 0 107 0 118 -4 124 -4 9 -14 15 -25
17 -4 1 -9 3 -9 4 -2 1 -2 1 -2 0 0 -5 -10 -3 -14 2 -4 4 -4 6 -3 26 0 18 0
24 -3 31 -4 10 -4 11 -18 26 -18 20 -14 47 7 52 13 3 31 -2 31 -9 0 -1 4 -2
15 -1 12 0 15 1 15 3 0 2 1 3 2 2 1 0 3 3 5 7 2 7 3 18 3 70 l0 62 -6 17 c-4
12 -7 27 -9 44 -2 14 -5 31 -6 36 -4 11 -5 32 -2 38 2 3 2 9 1 17 -1 11 -3 14
-9 19 -7 7 -7 7 -24 6 -21 -1 -28 -3 -42 -17 -16 -16 -18 -17 -36 -14 -9 1
-19 2 -22 1 -10 -1 -24 -5 -27 -7 -4 -4 -21 -3 -28 2 -3 3 -6 5 -6 6 0 3 -18
21 -25 25 -8 4 -10 4 -57 4 -27 0 -50 0 -52 -1 -6 -2 -9 -9 -10 -23 -1 -13 -1
-15 3 -17 2 -1 6 -5 9 -10 7 -9 27 -30 31 -30 5 -1 6 -1 14 -7 9 -5 12 -11 14
-29 1 -8 1 -9 -5 -12 -14 -8 -22 -5 -32 13 -3 4 -7 10 -9 11 -7 6 -23 10 -35
9 -18 -1 -39 9 -49 25 -5 7 -6 10 -5 20 0 15 0 22 -1 27 0 2 -1 5 -1 6 0 4
-11 15 -17 17 -8 3 -38 2 -47 -1 -14 -6 -22 -27 -17 -45 6 -21 5 -39 -4 -45
-5 -3 -56 6 -60 11 -1 3 -4 3 -14 2 -14 -2 -20 -5 -23 -12 -4 -7 -5 -111 -2
-124 3 -10 10 -21 15 -26 8 -7 15 -19 15 -26 0 -8 -3 -12 -16 -28 -9 -10 -10
-11 -10 -21 0 -10 1 -12 6 -17 7 -6 20 -11 35 -13 18 -3 24 -17 16 -37 -3 -9
-4 -16 -4 -35 0 -28 -2 -34 -14 -33 -7 1 -28 -6 -34 -10 -9 -8 -11 -17 -11
-45 1 -28 1 -26 16 -54 6 -11 8 -20 4 -27 -1 -1 -5 -8 -9 -15 -16 -29 -13 -44
13 -55 4 -3 11 -4 15 -4 4 0 7 -2 10 -5 3 -5 3 -5 0 -10 -3 -3 -6 -5 -10 -5
-16 0 -36 -14 -38 -26 -2 -14 -3 -271 -1 -276 3 -10 11 -15 24 -18 10 -3 12
-3 13 -1 4 8 21 0 21 -10 0 -10 -17 -18 -21 -10 -1 2 -7 2 -25 -2 -13 -3 -17
-18 -18 -55 0 -32 5 -44 26 -59 12 -9 25 -22 29 -30 2 -5 5 -9 6 -10 1 -1 4
-6 6 -10 3 -8 3 -9 0 -14 -4 -6 -11 -6 -27 0 -18 6 -32 2 -41 -12 -7 -10 -8
-17 -10 -41 -1 -10 -2 -31 -4 -46 -1 -15 -3 -33 -4 -40 -1 -7 -4 -33 -7 -58
-9 -66 -9 -68 14 -90 16 -16 19 -22 15 -38 -1 -6 -4 -10 -15 -18 -14 -12 -22
-20 -22 -23 0 -1 -3 -6 -7 -10 -4 -4 -7 -9 -7 -9 0 -1 -4 -8 -9 -15 -5 -7 -9
-16 -10 -19 -2 -10 7 -34 14 -37 5 -1 13 -16 13 -23 0 -6 -6 -13 -14 -15 -11
-2 -14 -7 -14 -21 -1 -18 1 -21 10 -24 4 -1 21 -9 37 -17 17 -8 36 -16 42 -18
26 -8 30 -9 39 -16 6 -4 10 -8 10 -9 0 -1 6 -1 14 -1 14 0 16 1 29 15 5 5 8 7
14 8 18 1 43 13 43 20 0 1 1 2 2 2 2 0 12 33 19 66 0 2 2 8 4 15 2 7 4 17 5
23 9 51 17 67 29 59 2 -1 10 -5 17 -8 7 -3 15 -7 17 -9 4 -5 4 -20 1 -27 -2
-3 -3 -13 -1 -23 1 -7 6 -16 10 -19 12 -6 37 8 44 24 6 14 24 20 34 11 8 -6
12 -51 6 -68 -5 -14 -5 -26 -2 -43 4 -21 0 -35 -11 -39 -6 -2 -6 -2 -6 -18 0
-9 1 -16 2 -16 1 0 2 -1 1 -1 0 -1 1 -2 4 -2 22 -2 30 -2 42 -1 14 2 35 11 41
16 7 7 19 10 41 11 20 0 24 1 33 6 35 18 68 48 81 73 4 8 29 33 35 35 4 1 6
20 2 22 -1 1 -2 2 -1 3 1 1 0 3 -2 3 -1 1 -3 4 -4 8 -1 3 -4 11 -7 16 -2 6 -5
11 -5 11 0 1 -4 6 -10 10 -18 15 -21 18 -21 26 0 9 7 16 16 16 8 0 13 -4 24
-20 6 -9 10 -11 26 -19 22 -11 24 -14 24 -30 0 -11 0 -11 -11 -22 -6 -6 -12
-11 -13 -11 -2 0 -2 -1 0 -2 3 -4 3 -21 0 -23 -2 0 -2 -1 0 -1 1 0 2 -1 2 -3
0 -2 1 -3 2 -2 2 1 9 -11 12 -22 3 -9 12 -29 15 -33 4 -5 6 -7 13 -15 4 -4 10
-12 13 -16 3 -4 7 -9 8 -10 1 -1 5 -5 8 -10 3 -4 6 -7 7 -6 1 1 2 0 3 -1 1 -1
7 -2 15 -2 14 1 20 4 25 14 2 3 4 7 6 8 3 4 36 53 45 68 8 14 6 36 -3 39 -2 1
-4 2 -5 3 -2 3 -24 7 -25 5 0 -1 -2 0 -4 2 -3 3 -4 7 -5 30 0 25 0 27 4 31 11
11 25 1 27 -18 1 -10 11 -20 21 -20 5 0 20 6 28 12 12 8 16 15 29 41 22 44 27
49 56 50 15 1 20 2 27 5 9 5 10 7 10 19 1 15 -8 29 -23 36 -6 3 -10 7 -12 12
-4 7 -5 2 16 63 12 34 18 57 20 76 0 5 3 18 4 27 1 2 2 9 3 16 1 7 3 13 4 14
0 1 1 5 1 8 0 6 0 6 -11 7 l-11 1 13 1 c7 0 12 -1 12 -2 0 -1 2 0 5 3 5 4 7
11 12 33 0 3 3 15 6 27 8 33 6 44 -7 53 -10 7 -15 8 -22 4 -3 -2 -7 -4 -9 -4
-2 -1 -5 -2 -6 -4 -2 -4 -14 -18 -20 -25 -4 -5 -15 -11 -19 -11 -2 0 -4 -2 -5
-4 -3 -5 -16 -8 -24 -7 -20 3 -37 5 -40 6 -7 0 -9 7 -5 13 2 3 4 6 4 7 0 0 1
3 2 6 2 3 3 11 3 18 1 17 2 19 3 18 0 0 2 0 5 1 3 1 5 1 7 -1 1 -2 3 -3 4 -2
1 1 2 0 2 -1 0 -3 12 -5 30 -7 18 -1 33 2 44 11 13 10 28 15 28 10 0 -2 2 -2
6 -1 3 1 7 2 10 2 2 1 7 3 10 4 3 2 6 2 6 2 0 -2 6 9 7 11 0 1 1 3 2 6 4 9 5
21 3 31 -3 12 -3 12 -7 22 -2 4 -4 11 -4 14 -3 14 -8 29 -14 42 -12 26 -8 37
13 40 9 1 24 8 31 13 6 5 10 17 13 37 4 30 1 45 -14 67 -14 21 -14 42 0 55 29
26 31 34 20 59 -6 12 -7 15 -6 33 0 11 -1 25 -2 30 -4 20 -2 28 12 40 3 3 6 6
6 7 0 1 1 4 3 5 2 2 3 2 3 1 0 -1 2 -2 4 -2 2 0 3 -1 4 -2 0 -2 1 -8 3 -14 2
-8 3 -15 1 -30 0 -10 -1 -48 -1 -83 0 -76 0 -75 20 -98 8 -9 12 -11 45 -20 11
-3 27 -8 37 -13 10 -4 18 -8 19 -8 1 0 3 -2 6 -5 6 -7 6 -22 0 -28 -9 -9 -21
-7 -54 8 -42 20 -58 20 -68 1 l-5 -9 -1 -134 0 -133 4 -8 c3 -4 6 -8 7 -8 2 0
3 -1 3 -2 0 -3 16 -6 33 -6 15 0 17 0 22 -5 6 -4 6 -6 6 -20 0 -14 0 -16 -6
-20 -5 -5 -7 -5 -18 -5 -22 1 -29 0 -28 -2 1 -1 0 -2 -1 -2 -1 0 -2 -5 -2 -13
0 -7 1 -13 2 -13 1 0 2 -1 2 -1 -1 -7 6 -13 21 -15 33 -5 38 -7 43 -13 7 -9 6
-28 -2 -35 -3 -3 -7 -6 -9 -6 -11 -1 -22 0 -29 2 -19 5 -35 -2 -43 -19 -4 -9
-5 -13 -5 -30 0 -21 -3 -32 -10 -35 -6 -4 -22 -10 -24 -10 -3 0 -28 -12 -34
-16 -10 -8 -16 -18 -16 -28 0 -10 5 -22 11 -29 13 -13 16 -33 8 -45 -6 -7 -31
-15 -31 -10 0 5 -12 -9 -14 -17 -2 -9 -1 -24 2 -25 3 -1 2 -11 -1 -19 -2 -6
-3 -10 -2 -18 1 -5 2 -10 2 -11 -1 -1 1 -1 4 -1 2 0 11 -4 19 -8 17 -8 34 -13
43 -13 4 0 19 4 32 8 32 10 38 10 49 -2 5 -4 10 -9 13 -10 8 -3 26 -2 34 1 11
5 15 5 25 3 16 -4 25 -19 20 -35 -2 -10 2 -29 7 -37 2 -3 9 -8 16 -11 18 -9
39 -4 47 12 1 3 5 7 9 10 6 5 7 5 11 2 2 -2 7 -9 10 -16 6 -13 13 -19 25 -23
6 -2 46 -2 151 -1 149 0 163 1 189 10 4 1 12 4 16 5 20 7 33 14 35 21 4 13 2
27 -5 34 -9 9 -11 13 -11 25 0 15 5 19 26 24 9 2 27 7 39 11 12 4 24 8 27 8 3
1 5 2 6 3 1 1 3 2 6 3 14 4 31 57 42 133 3 22 3 26 1 34 -5 15 -20 30 -31 30
-6 0 -24 -6 -28 -10 -11 -11 -31 -14 -39 -6 -3 3 -5 6 -5 7 0 3 -12 30 -14 31
-1 1 -2 2 -2 4 -1 3 -5 3 -15 4 -13 0 -14 0 -31 -11 -20 -14 -28 -18 -48 -23
-33 -8 -43 -16 -51 -44 -7 -23 -10 -27 -20 -34 l-8 -5 -53 -1 -53 0 -8 5 c-12
8 -25 7 -44 -4 -15 -8 -21 -10 -33 -9 -11 1 -20 20 -15 32 2 4 4 11 5 16 3 15
12 20 32 21 14 1 15 1 19 -4 2 -4 3 -6 2 -11 -1 -3 -2 -9 -1 -13 4 -21 4 -22
23 -21 13 1 15 2 21 7 12 12 14 17 12 55 -1 20 6 36 22 52 15 14 19 23 17 38
-4 33 -4 31 2 37 4 4 7 5 14 5 16 0 17 -1 32 -35 6 -14 21 -29 32 -33 10 -3
28 -2 38 3 5 3 17 7 28 10 45 12 48 14 110 63 30 23 59 48 72 61 5 6 6 8 7 18
0 6 -1 13 -2 14 -1 2 -2 3 -1 3 7 0 -14 13 -41 27 -18 8 -54 26 -80 38 -25 13
-50 24 -54 25 -8 2 -26 1 -26 -2 0 -1 -1 -2 -3 -2 -2 0 -3 -1 -2 -1 0 -1 0 -3
-1 -5 -3 -5 -3 -30 0 -33 4 -4 2 -16 -3 -21 -7 -5 -19 -5 -23 -1 -1 2 -4 3 -6
3 -2 0 -5 1 -7 3 -4 3 -18 4 -24 1 -2 -1 -3 -2 -2 -2 0 0 0 -2 -1 -4 -1 -3 -1
-7 3 -19 5 -14 6 -16 3 -27 -3 -16 -10 -22 -27 -23 -9 -1 -22 5 -28 12 -8 9
-17 13 -29 13 -11 0 -13 -1 -29 -11 -10 -6 -21 -13 -25 -15 -4 -2 -11 -6 -15
-9 -4 -3 -15 -9 -24 -13 -10 -5 -17 -10 -17 -11 0 -1 -3 2 -6 5 -7 8 -8 16 -3
27 4 10 5 11 34 25 29 14 40 23 46 38 6 14 11 16 36 17 l20 0 16 10 c9 5 20
13 25 16 6 4 11 7 12 7 1 0 2 1 2 2 1 1 6 5 13 9 11 7 15 11 33 30 6 6 16 14
24 18 19 10 22 13 32 32 9 17 13 21 35 31 22 11 30 17 54 44 4 5 10 11 12 14
3 4 4 8 3 27 0 3 -3 9 -7 13 -4 5 -11 16 -14 24 -10 22 -15 27 -32 35 -12 6
-17 7 -23 6 -13 -2 -21 -5 -26 -10 -21 -19 -26 -20 -56 -10 -34 11 -31 10 -57
4 -2 -1 -10 -7 -19 -14 -8 -8 -17 -15 -20 -17 -3 -2 -10 -7 -16 -11 -5 -5 -11
-9 -12 -9 -1 0 -3 -2 -5 -4 -2 -2 -7 -5 -10 -7 -10 -6 -15 -11 -31 -27 -13
-14 -17 -16 -27 -19 -39 -11 -44 -15 -55 -38 -10 -22 -10 -22 -54 -23 l-37 -1
-5 5 c-10 9 -4 26 13 37 14 8 20 20 27 45 3 12 5 14 24 25 8 4 15 9 15 11 -1
1 0 2 1 2 3 0 1 16 -4 34 -2 9 0 22 6 29 9 11 31 11 43 0 10 -8 10 -33 1 -49
-2 -3 -3 -6 -3 -6 0 -1 -1 -2 -1 -2 -1 -3 -2 -14 0 -14 1 0 2 -1 2 -3 0 -4 0
-4 7 0 4 2 7 2 10 1 5 -3 22 -3 33 1 13 4 60 35 68 45 3 3 27 20 31 21 2 1 4
2 5 3 1 1 12 10 24 20 43 35 103 92 135 129 29 33 26 28 26 43 0 17 -4 22 -20
30 -16 8 -65 28 -79 32 -6 2 -9 4 -7 4 2 0 3 1 2 2 0 1 2 3 5 5 4 2 12 3 35 3
16 1 29 2 29 3 0 0 1 1 2 0 2 -1 2 -1 1 1 -1 1 -2 10 -2 18 l0 16 6 1 c4 0 2
0 -4 1 -12 0 -19 6 -19 15 0 13 4 14 45 14 26 1 39 0 46 -2 11 -3 19 -3 29 2
7 3 12 11 15 24 0 3 1 6 2 6 0 1 0 4 -1 6 -1 3 -2 8 -2 12 -1 4 -2 7 -2 7 -1
0 -2 1 -2 3 0 5 -5 10 -11 10 -20 1 -40 8 -43 14 -9 15 -2 58 11 73 5 5 16 5
22 0 5 -4 11 -18 11 -27 0 -4 1 -5 1 -1 1 4 2 4 17 4 8 0 16 -1 17 -2 3 -3 3
-2 4 29 1 21 1 27 -2 34 -4 9 -14 21 -18 21 -2 0 -3 1 -3 2 0 2 0 2 -22 3 -17
2 -38 -1 -38 -5 0 -1 -1 -2 -3 -2 -1 0 -6 -4 -12 -9 -22 -21 -30 -21 -52 0 -6
5 -11 9 -12 9 -2 0 -3 1 -3 2 0 3 -22 6 -45 6 -15 0 -23 1 -23 2 0 1 -1 2 -1
1 -1 0 -5 2 -9 4 -4 3 -6 5 -4 5 2 0 8 9 14 19 12 21 11 21 35 29 27 9 35 16
42 33 6 14 3 27 -10 46 -7 11 -28 36 -39 47 -3 3 -10 11 -16 17 -20 21 -53 52
-73 68 -5 4 -12 10 -15 13 -3 2 -10 8 -16 13 -6 4 -11 8 -12 9 -2 2 -25 19
-31 23 -3 2 -7 5 -9 7 -20 18 -45 22 -56 9 -5 -6 -4 -30 1 -37 6 -10 7 -28 1
-40 -2 -6 -6 -9 -19 -15 -20 -10 -25 -14 -31 -30 -8 -19 -5 -38 7 -46 6 -4 23
-5 28 -1 2 1 17 2 16 0 -1 0 0 -2 1 -3 4 -4 1 -28 -6 -44 -4 -10 -22 -15 -41
-10 -7 1 -19 -3 -22 -8 -4 -6 -4 -22 1 -27 1 -2 7 -7 12 -13 13 -14 34 -18 54
-10 16 7 36 7 42 0 9 -9 4 -20 -14 -29 -7 -5 -10 -10 -10 -24 0 -15 0 -16 3
-16 2 0 3 -1 3 -3 0 -2 1 -3 2 -3 0 0 3 -2 4 -5 2 -4 7 -10 11 -14 11 -12 25
-14 40 -7 14 7 22 8 33 5 13 -3 17 -10 17 -28 -1 -8 -1 -16 -2 -17 -1 -2 -2
-3 -2 -4 -2 -7 -3 -8 -21 -7 -20 0 -20 0 -41 -10 -22 -11 -35 -11 -46 0 -5 4
-9 18 -8 29 0 12 -3 35 -7 42 -5 9 -19 24 -25 25 -14 4 -23 -1 -43 -20 -11
-11 -12 -11 -24 -11 -6 0 -15 1 -18 3 -4 1 -15 4 -25 5 -26 3 -25 3 -34 9 -12
8 -27 9 -44 2 -8 -3 -16 -6 -17 -6 -4 -1 -16 4 -26 10 -15 9 -23 12 -39 12
-15 0 -16 0 -21 6 -5 6 -6 7 -5 23 0 9 1 44 1 76 0 73 1 73 -23 86 -15 10 -19
13 -20 17 -3 15 -7 29 -9 29 -1 0 -4 6 -7 13 -5 13 -5 13 -2 18 2 3 5 5 7 5 3
0 12 -10 12 -14 0 -6 5 -17 7 -14 0 3 4 3 15 3 10 0 16 1 18 3 5 5 8 78 4 95
-3 9 -14 22 -23 25 -3 1 -26 2 -50 3 l-44 1 -22 -7 c-25 -8 -30 -8 -57 1 -23
7 -46 8 -62 3z m598 -183 c-4 -6 -6 -8 -9 -7 -2 0 -5 1 -6 1 -4 0 -5 12 -1 14
7 7 11 7 15 3 l5 -4 -4 -7z m-1035 2 c7 -3 12 -13 12 -25 0 -19 -9 -28 -28
-28 -18 0 -24 6 -29 27 -3 14 0 19 12 25 12 5 20 5 33 1z m-231 -27 c5 -6 6
-20 1 -28 -6 -9 -4 -32 5 -44 6 -10 6 -13 7 -27 1 -22 5 -33 16 -47 16 -18 12
-44 -7 -52 -12 -5 -33 0 -39 10 -6 10 -34 23 -49 23 -6 0 -13 7 -14 14 -1 13
0 15 14 29 11 11 16 18 27 39 12 25 13 26 12 38 -1 7 -3 15 -4 18 -5 7 -4 21
1 27 7 8 23 8 30 0z m1360 -34 l-5 -5 -4 4 -5 5 4 4 5 5 4 -4 5 -5 -4 -4z
m-1281 -21 c5 -3 9 -5 9 -6 0 -1 1 -2 3 -2 1 0 4 -2 5 -4 2 -2 6 -4 9 -5 20
-3 27 -9 27 -22 -1 -17 11 -39 21 -39 1 0 6 -3 9 -7 l7 -6 0 -69 0 -69 -6 -6
-6 -6 -26 0 -26 0 -6 6 -6 6 0 70 c0 38 1 69 1 69 3 0 11 29 10 38 -1 4 0 8 1
10 1 1 0 2 -1 2 -2 0 -7 3 -12 8 -6 4 -13 8 -17 9 -15 2 -23 15 -15 23 4 4 7
4 19 0z m245 -22 c5 -5 5 -15 0 -20 -9 -9 -24 -2 -24 10 0 8 6 14 14 14 3 0 8
-2 10 -4z m455 -74 c3 -4 3 -7 2 -20 -1 -18 2 -31 9 -46 7 -14 10 -33 9 -57
-2 -31 -2 -44 1 -56 4 -17 -2 -26 -17 -22 -8 2 -10 9 -7 23 3 14 1 33 -4 39
-5 6 -15 11 -36 19 -19 7 -23 12 -23 29 0 12 3 17 13 29 9 9 14 27 14 46 0 8
1 13 4 16 7 9 27 9 35 0z m-525 -29 c16 -7 20 -36 7 -50 -12 -12 -12 -34 0
-47 5 -5 8 -14 10 -28 1 -6 0 -9 -4 -13 -8 -10 -36 -11 -45 -1 -10 9 -9 32 1
42 3 3 5 6 4 6 -1 0 -1 1 0 3 3 3 2 23 -1 29 -1 3 -4 7 -6 8 -10 7 -12 34 -2
45 7 8 24 11 36 6z m1241 -48 c6 -6 7 -21 2 -28 -12 -17 -16 -31 -15 -53 0
-21 -7 -26 -40 -26 -22 0 -36 2 -53 8 -17 6 -20 9 -21 28 -1 24 6 35 18 29 11
-5 46 -8 50 -4 2 1 5 3 6 4 6 2 14 15 17 28 4 15 8 19 21 19 8 0 11 -1 15 -5z
m-468 -4 c3 -3 3 -4 0 -6 -4 -5 -11 1 -7 6 4 4 4 4 7 0z m60 -30 c8 -11 -7
-23 -15 -13 -5 6 -5 10 0 14 5 5 11 5 15 -1z m-1088 -31 c5 -4 16 -18 14 -18
-4 0 11 -11 24 -18 19 -9 19 -9 26 -27 3 -8 7 -16 8 -18 2 -2 3 -5 3 -7 0 -4
16 -30 24 -39 14 -15 18 -27 10 -35 -8 -8 -20 -4 -36 11 -19 18 -34 22 -61 16
-33 -7 -43 -1 -41 26 0 4 8 14 19 23 20 17 23 38 6 51 -13 10 -19 17 -19 24 0
13 14 19 23 11z m987 -5 c5 -5 5 -5 -3 -48 -5 -30 -7 -35 -19 -35 -5 0 -9 1
-12 5 l-5 5 4 21 c2 11 4 26 4 34 2 18 6 23 18 23 6 0 9 -1 13 -5z m-650 -28
c16 -7 20 -35 8 -48 -5 -6 -20 -10 -29 -8 -16 2 -22 11 -24 34 -1 13 0 13 5
17 3 3 9 5 12 6 2 0 5 1 6 1 1 1 17 0 22 -2z m832 -14 c7 -6 7 -14 0 -20 -15
-13 -35 6 -22 20 6 6 15 6 22 0z m55 -6 c3 -3 3 -3 0 -6 -1 -2 -3 -3 -4 -3 -1
0 -3 6 -2 9 1 2 2 3 2 3 1 0 3 -1 4 -3z m-1025 -58 c3 -3 4 -7 4 -14 0 -13 -6
-19 -19 -19 -13 0 -19 6 -19 19 0 7 1 11 4 14 7 8 23 8 30 0z m1138 -51 c2 -1
4 -3 4 -4 0 -1 2 -2 4 -2 2 0 2 -1 0 -1 -7 -3 -10 -8 -10 -17 0 -18 5 -26 20
-33 10 -5 15 -12 15 -23 0 -14 -8 -22 -21 -23 -11 0 -29 4 -39 9 -10 6 -21 4
-42 -6 -26 -12 -57 -14 -76 -5 -14 8 -21 18 -21 33 0 13 2 16 19 33 9 9 13 14
15 22 1 5 5 12 8 16 l5 6 57 -1 c41 -1 58 -2 62 -4z m-1315 -25 c3 -5 3 -5 0
-10 -2 -3 -5 -5 -7 -5 -2 0 -5 2 -7 5 -3 5 -3 5 0 10 2 3 5 5 7 5 2 0 5 -2 7
-5z m691 -21 c5 -5 6 -7 6 -17 0 -16 -7 -23 -23 -23 -16 0 -23 7 -23 23 0 16
7 23 23 23 10 0 12 -1 17 -6z m109 -9 c6 -4 6 -6 6 -20 0 -14 0 -16 -6 -20 -4
-4 -7 -5 -18 -5 -11 0 -14 1 -18 5 -6 4 -6 6 -6 20 0 14 0 16 6 20 4 4 7 5 18
5 11 0 14 -1 18 -5z m-538 -23 c10 -9 3 -26 -10 -26 -8 0 -15 7 -15 15 0 13
16 20 25 11z m1175 -5 c3 -3 4 -7 4 -14 0 -13 -6 -19 -19 -19 -13 0 -19 6 -19
19 0 7 1 11 4 14 7 8 23 8 30 0z m-1302 -4 c9 -4 11 -8 15 -24 5 -22 14 -33
34 -39 21 -7 20 -24 -2 -30 -16 -4 -26 -11 -31 -21 -4 -8 -4 -11 -4 -47 l1
-39 -6 -6 -6 -6 -27 0 -27 0 -6 6 c-5 5 -6 8 -6 14 -1 36 -1 48 1 59 1 7 2 28
2 46 0 32 2 48 8 58 1 2 2 5 2 6 0 1 1 4 3 6 2 1 5 6 8 10 10 11 26 15 41 7z
m-198 -16 l-5 -5 -4 4 -5 5 4 4 5 5 4 -4 5 -5 -4 -4z m1047 -2 c5 -8 1 -16 -8
-16 -9 0 -13 8 -8 16 2 3 5 5 8 5 3 0 6 -2 8 -5z m107 -17 c3 -2 6 -5 6 -6 0
0 4 -5 9 -11 17 -17 21 -30 13 -38 -10 -11 -24 -4 -36 17 -3 5 -6 10 -7 11 -2
2 -9 19 -9 23 0 4 7 9 12 9 3 0 8 -2 12 -5z m-1103 -37 c3 -5 3 -6 0 -14 -2
-4 -5 -9 -6 -10 -1 -1 -8 -10 -15 -21 -14 -21 -17 -23 -32 -23 -13 0 -20 4
-24 11 -4 7 -3 27 1 33 3 5 4 6 23 13 6 2 18 6 26 10 19 7 23 7 27 1z m375
-50 c6 -2 9 -6 13 -14 6 -13 6 -15 0 -22 -3 -3 -5 -7 -5 -8 0 -4 -14 -10 -23
-10 -5 0 -11 1 -16 3 -17 8 -35 8 -40 -2 -3 -6 -2 -21 2 -30 3 -6 3 -11 3 -19
-2 -17 -6 -20 -31 -23 -11 -1 -26 -4 -33 -6 -7 -2 -16 -4 -19 -5 -19 -3 -24
-4 -27 -6 -7 -5 -26 -15 -30 -15 -4 0 -10 7 -10 11 0 5 12 15 16 15 8 0 14 2
13 4 -2 3 5 10 8 10 1 0 4 3 7 7 7 9 11 11 29 17 19 7 25 11 28 20 4 7 3 27
-1 34 -4 8 -2 24 3 29 6 6 22 7 29 2 1 -1 9 -2 17 -2 13 0 16 1 29 7 17 8 26
9 38 3z m383 -33 c6 -4 10 -12 10 -24 0 -14 -4 -20 -16 -26 -21 -11 -29 -24
-34 -54 -2 -12 -9 -16 -24 -16 -18 0 -24 5 -24 22 -1 16 1 21 14 28 19 11 28
25 30 46 0 3 1 7 1 9 1 15 26 23 43 15z m-746 -54 c10 -9 3 -26 -10 -26 -8 0
-15 7 -15 15 0 13 16 20 25 11z m1498 -53 c12 -12 3 -31 -13 -31 -11 0 -18 7
-18 18 0 11 7 18 18 18 6 0 9 -1 13 -5z m-1479 -29 c1 0 5 -3 8 -6 5 -5 6 -7
6 -18 0 -11 -1 -13 -6 -18 -6 -6 -7 -6 -20 -6 -15 0 -22 8 -22 24 0 12 4 19
12 23 5 2 8 2 22 1z m-81 -25 c3 -3 3 -3 0 -6 -4 -5 -11 1 -7 6 4 4 4 4 7 0z
m1088 -51 c11 -10 3 -28 -11 -28 -9 0 -16 6 -16 16 0 14 17 22 27 12z m-1069
-13 c11 -6 31 -21 37 -27 7 -8 7 -24 1 -31 -8 -9 -18 -7 -29 5 -5 6 -9 11 -9
12 0 1 -7 2 -16 2 -15 0 -16 0 -19 -5 -7 -12 -17 -19 -26 -19 -12 0 -17 5 -17
17 0 16 4 21 34 36 29 14 34 15 44 10z m701 -32 c6 -5 9 -14 7 -20 -1 -3 -1
-7 -1 -9 1 -1 -1 -3 -3 -4 -8 -3 -24 14 -24 24 0 9 14 16 21 9z m-528 -26 c18
-1 32 -6 37 -12 5 -7 6 -6 -7 -23 -6 -8 -11 -15 -10 -15 0 -1 -1 -5 -3 -10 -4
-11 -2 -24 8 -53 10 -28 10 -56 0 -82 -7 -17 -8 -27 -8 -90 l0 -64 8 -21 c10
-27 11 -39 2 -47 -8 -8 -19 -8 -44 0 -20 6 -62 9 -74 5 -5 -1 -6 0 -10 6 -2 4
-4 8 -3 9 2 3 -5 23 -11 32 -6 8 -12 21 -12 25 0 2 8 12 21 23 15 14 22 41 14
59 -4 10 -7 14 -22 23 -10 7 -12 8 -19 7 -13 -2 -23 -5 -30 -8 -7 -4 -10 -4
-15 2 -3 5 -3 5 0 10 3 4 5 5 12 4 8 -1 26 6 34 13 2 2 11 7 19 11 20 10 26
15 32 26 6 12 5 10 9 71 1 18 2 20 8 26 3 4 8 8 11 10 10 4 18 23 18 42 0 5 1
11 3 14 4 5 14 10 18 9 1 0 7 -1 14 -2z m468 -45 c5 -2 10 -5 11 -7 4 -5 13
-11 18 -12 3 -1 6 -1 7 -2 1 0 4 -1 7 -3 2 -1 5 -2 6 -1 1 0 2 -1 3 -4 2 -3 2
-5 -1 -9 -2 -3 -4 -6 -4 -7 0 -1 -1 -4 -3 -7 -1 -3 -3 -9 -4 -12 -5 -21 -15
-33 -31 -33 -17 0 -23 10 -25 38 0 9 -2 20 -3 25 -7 34 -2 44 19 34z m530 -18
c10 -9 3 -26 -10 -26 -8 0 -15 7 -15 15 0 13 16 20 25 11z m-1204 -43 c3 -5 3
-5 0 -10 -2 -3 -5 -5 -7 -5 -2 0 -5 2 -7 5 -3 5 -3 5 0 10 2 3 5 5 7 5 2 0 5
-2 7 -5z m813 -4 c14 -4 17 -7 23 -26 0 -1 1 -4 2 -5 1 -2 0 -5 -2 -8 -2 -2
-5 -5 -7 -8 -6 -9 -34 -9 -42 0 -12 11 -8 39 6 47 6 4 7 4 20 0z m766 -14 c9
-8 18 -16 22 -18 3 -2 7 -6 9 -9 3 -5 3 -6 -2 -10 l-4 -4 -26 9 c-14 5 -28 9
-30 9 -7 0 -13 8 -13 19 0 14 5 19 21 19 8 0 9 -1 23 -15z m-1202 -7 c3 -3 12
-27 12 -33 0 -16 -43 -16 -56 1 -6 7 -6 24 1 31 8 9 34 10 43 1z m819 -37 c4
-4 5 -9 6 -34 1 -29 4 -36 30 -64 18 -20 26 -32 30 -45 2 -10 2 -11 -1 -15 -1
-1 -3 -5 -3 -8 -1 -3 -3 -7 -5 -9 -2 -2 -4 -5 -4 -6 0 -2 -1 -2 -1 -1 -1 0 -3
0 -4 -2 -4 -5 -16 -6 -42 -5 -10 0 -14 7 -16 28 -2 28 -4 40 -12 65 -5 13 -7
17 -17 27 -14 15 -17 25 -14 39 6 23 40 42 53 30z m-1245 -42 c8 -4 11 -13 11
-37 0 -20 0 -20 -6 -25 -3 -3 -7 -5 -10 -4 -29 5 -48 35 -36 58 6 12 26 16 41
8z m686 -6 c21 -9 20 -45 -2 -54 -7 -3 -25 -2 -31 2 -11 7 -13 35 -3 46 7 8
24 11 36 6z m-279 -22 c6 -4 6 -6 6 -20 0 -14 0 -16 -6 -20 -4 -4 -7 -5 -18
-5 -11 0 -14 1 -18 5 -6 4 -6 6 -6 20 0 14 0 16 6 20 4 4 7 5 18 5 11 0 14 -1
18 -5z m953 -5 c5 -5 5 -11 0 -16 -10 -10 -27 5 -16 16 4 4 12 4 16 0z m-726
-61 c0 -2 1 -3 2 -3 4 -2 5 -17 0 -21 -12 -15 -36 7 -25 23 3 3 5 4 13 4 6 -1
10 -2 10 -3z m433 -55 c10 -9 3 -26 -10 -26 -8 0 -15 7 -15 15 0 13 16 20 25
11z m-1046 -4 c12 -5 15 -28 7 -48 -5 -12 -14 -18 -27 -18 -18 0 -24 8 -24 34
0 24 4 31 22 35 5 1 14 -1 22 -3z m1652 -16 c6 -5 9 -13 8 -26 -1 -22 -9 -31
-28 -31 -19 0 -28 9 -28 28 0 15 5 22 18 28 12 6 24 6 30 1z m-472 -38 c1 -2
5 -8 8 -14 3 -6 8 -13 11 -15 6 -5 23 -11 33 -11 15 0 22 -15 13 -25 -4 -5 -6
-5 -30 -5 -21 0 -26 -1 -33 -4 -4 -2 -9 -4 -11 -4 -4 0 -12 -7 -11 -8 1 -2
-14 -8 -17 -8 -1 0 -4 1 -5 3 -4 4 -1 11 6 18 6 6 7 31 2 41 -4 8 -4 24 1 30
6 8 26 9 33 2z m-97 -6 c2 0 7 -3 10 -6 5 -5 6 -7 6 -17 0 -16 -7 -23 -22 -23
-22 -1 -33 -3 -38 -8 -3 -3 -8 -6 -11 -7 -3 -1 -6 -2 -6 -3 -2 -4 -8 -2 -12 3
-3 5 -3 5 1 11 4 5 14 11 17 8 2 -1 12 11 23 27 9 13 15 17 23 16 2 0 6 -1 9
-1z m-667 -52 c12 -13 10 -49 -2 -56 -9 -4 -24 -3 -30 3 -10 9 -5 42 7 52 8 7
20 7 25 1z m-106 -3 c3 -5 3 -5 0 -10 -5 -6 -8 -6 -14 -1 -5 3 -4 6 1 12 4 5
8 5 13 -1z m-312 -68 c20 -4 27 -13 20 -24 -4 -6 -10 -9 -33 -17 -26 -9 -50
-8 -57 3 -3 5 -4 21 -1 27 3 5 16 12 27 14 10 2 25 1 44 -3z"/>
<path d="M164 3717 l0 -9 -14 0 c-13 0 -14 0 -15 6 0 5 0 5 -1 -1 l0 -7 15 0
c10 0 15 -1 16 -2 0 -2 1 3 1 10 0 6 0 12 -1 12 -1 0 -1 -4 -1 -9z"/>
<path d="M1422 3675 c-1 0 -5 -1 -9 -2 -11 -2 -15 -3 -19 -6 -17 -14 -30 -26
-32 -29 -1 -2 -2 -10 -2 -17 0 -15 1 -16 20 -31 5 -4 11 -9 13 -11 5 -5 28 -4
38 3 14 10 18 30 11 53 -2 8 -4 18 -5 23 -2 11 -11 21 -15 17z"/>
<path d="M403 2030 c-12 0 -15 -3 -21 -17 -7 -15 -5 -50 3 -48 1 0 2 -3 1 -9
0 -7 1 -12 4 -17 6 -10 11 -15 13 -13 1 0 1 0 0 -1 -1 -3 1 -5 14 -12 5 -3 9
-4 9 -3 0 1 2 2 4 3 3 0 4 2 3 3 -1 1 -1 2 0 2 1 0 2 6 1 13 0 10 0 14 2 15 2
1 2 2 -1 2 -6 0 -13 8 -15 16 -1 7 1 19 6 30 1 3 1 9 1 13 -2 18 -9 24 -24 23z"/>
</g>
</svg>
