<?xml version="1.0" standalone="no"?>
<!DOCTYPE svg PUBLIC "-//W3C//DTD SVG 20010904//EN"
 "http://www.w3.org/TR/2001/REC-SVG-20010904/DTD/svg10.dtd">
<svg version="1.0" xmlns="http://www.w3.org/2000/svg"
 width="1000.000000pt" height="2850.000000pt" viewBox="0 0 1000.000000 2850.000000"
 preserveAspectRatio="xMidYMid meet">
<metadata>
Created by potrace 1.15, written by Peter Selinger 2001-2017
</metadata>
<g transform="translate(0.000000,2850.000000) scale(0.500000,-0.500000)"
fill="#000000" stroke="none">
<path d="M1602 3770 c-3 -1 -6 -1 -7 0 0 0 -1 0 -1 -2 0 -1 -1 -2 -3 -2 -4 0
-14 -12 -18 -21 -2 -6 -3 -17 -3 -62 0 -52 0 -56 4 -64 4 -7 6 -10 15 -14 6
-3 12 -5 15 -5 3 0 4 -1 4 -6 0 -4 -1 -6 -3 -6 -2 0 -3 -1 -3 -2 0 -1 -1 -3
-3 -5 -7 -7 -7 -23 -2 -42 3 -9 2 -18 -3 -26 -13 -18 -19 -29 -21 -34 -3 -9
-4 -68 -1 -77 4 -10 9 -16 24 -23 l13 -6 30 1 c17 1 32 2 35 2 13 1 18 0 23
-5 7 -7 4 -21 -7 -34 -16 -17 -29 -18 -60 -3 -31 16 -40 14 -40 -9 0 -14 2
-21 5 -21 1 0 5 -3 9 -6 6 -5 7 -8 8 -17 1 -15 -3 -22 -15 -30 -11 -7 -18 -15
-23 -27 -4 -8 -4 -14 -4 -76 0 -38 1 -70 2 -72 4 -7 7 -15 6 -17 0 -1 1 -1 2
0 1 1 8 1 15 2 13 0 13 0 13 -5 0 -5 0 -5 -13 -5 -7 1 -14 1 -15 2 -1 1 -2 1
-2 0 1 -2 -2 -10 -6 -17 -3 -6 -2 -91 0 -100 2 -4 3 -8 4 -8 1 0 3 -2 5 -4 6
-5 22 -8 38 -8 32 0 51 -17 36 -32 -7 -8 -31 -12 -42 -8 -5 2 -27 -4 -32 -8
-2 -2 -4 -4 -5 -4 -1 0 -2 -4 -4 -9 -2 -6 -2 -53 -2 -221 l1 -213 5 -12 c3 -7
7 -15 10 -19 21 -27 21 -30 1 -51 -15 -15 -16 -19 -17 -66 -1 -28 -2 -44 -4
-47 -2 -4 -8 -21 -9 -29 -1 -2 -2 -7 -3 -10 -1 -4 -3 -10 -3 -14 0 -3 -1 -7
-1 -8 0 -6 -10 -13 -20 -15 -14 -3 -16 -6 -16 -24 1 -12 1 -15 6 -21 7 -9 7
-14 2 -19 -6 -6 -23 -2 -36 10 -3 3 -7 6 -8 6 -1 0 -3 3 -4 6 -4 10 3 22 13
20 0 0 1 1 1 2 0 1 2 2 4 2 7 0 10 13 5 22 -2 3 -3 7 -3 9 1 4 -12 26 -20 34
-10 9 -17 11 -58 12 -144 4 -155 4 -165 -7 -5 -5 -12 -25 -11 -29 0 -1 1 -5 1
-9 3 -20 7 -30 19 -42 4 -5 8 -10 8 -12 0 -2 1 -5 3 -6 1 -2 2 -5 1 -10 -1 -9
-1 -18 1 -29 1 -8 9 -15 13 -12 1 1 2 0 2 -1 0 -1 2 -2 5 -2 6 0 13 -6 15 -14
1 -3 3 -6 4 -6 1 0 2 -1 1 -2 -1 -1 0 -2 1 -2 4 0 5 19 3 40 0 5 -1 16 -2 25
-1 9 -2 18 -3 20 -4 6 0 18 6 24 5 5 8 6 16 6 12 0 18 -4 25 -19 3 -6 9 -16
13 -23 3 -7 7 -18 9 -26 3 -13 8 -31 14 -44 2 -4 3 -11 3 -17 0 -9 -1 -11 -6
-16 -8 -8 -25 -9 -33 -1 -5 4 -10 16 -8 19 3 6 -33 8 -40 3 -2 -2 -3 -3 -3 -3
1 0 0 -6 -2 -13 -8 -29 -9 -32 -5 -49 8 -34 16 -46 37 -53 10 -3 16 -3 70 -2
32 1 64 2 71 2 7 0 21 1 33 2 179 11 283 56 328 144 10 19 20 48 24 68 4 19
-4 39 -19 46 -3 2 -14 11 -24 21 -10 10 -21 21 -25 25 -7 7 -8 8 -7 15 1 8 4
15 9 27 2 5 4 10 4 11 0 0 3 4 6 9 5 5 8 7 13 7 9 0 13 -2 13 -5 0 -2 1 -3 2
-2 1 1 6 2 12 2 15 1 21 6 24 18 5 22 2 46 -8 56 -6 5 -27 15 -34 15 -2 0 -4
1 -5 2 -10 9 -31 17 -46 16 -20 0 -22 0 -27 5 -6 6 -6 22 1 28 5 6 21 7 26 3
20 -16 43 -20 65 -12 16 6 24 14 28 25 1 7 2 97 2 391 0 376 0 383 -4 390 -4
9 -5 9 -22 8 l-12 0 0 9 0 9 12 0 c17 -1 18 -1 22 8 4 8 4 12 4 253 0 219 0
245 -3 252 -4 9 -14 21 -18 21 -2 0 -3 1 -3 2 0 1 -1 2 -2 2 -7 1 -242 2 -246
0z m220 -111 c3 -3 4 -7 4 -14 0 -13 -6 -19 -19 -19 -13 0 -19 6 -19 19 0 7 1
11 4 14 7 8 23 8 30 0z m-207 -62 c3 -3 3 -3 -1 -7 l-4 -5 0 8 c0 8 1 8 5 4z
m100 -104 c3 -5 3 -5 0 -10 -2 -3 -5 -5 -7 -5 -2 0 -5 2 -7 5 -3 5 -3 5 0 10
2 3 5 5 7 5 2 0 5 -2 7 -5z m86 -100 c3 -5 3 -5 0 -10 -2 -3 -5 -5 -7 -5 -2 0
-5 2 -7 5 -3 5 -3 5 0 10 2 3 5 5 7 5 2 0 5 -2 7 -5z m29 -156 c5 -5 5 -22 1
-27 -5 -6 -18 -5 -24 0 -7 6 -7 19 -1 25 6 6 19 7 24 2z m-105 -17 c12 -5 15
-27 7 -45 -3 -5 -7 -13 -9 -17 -6 -13 -16 -20 -37 -26 -10 -4 -25 -7 -33 -7
-13 -1 -15 -1 -20 3 -5 5 -6 7 -6 18 -1 17 1 21 19 30 17 9 28 19 35 32 9 15
25 19 44 12z m-97 -156 c8 -7 2 -19 -8 -19 -9 0 -13 10 -8 19 3 4 12 4 16 0z
m147 -5 c5 -8 1 -16 -8 -16 -9 0 -13 8 -8 16 2 3 5 5 8 5 3 0 6 -2 8 -5z m-4
-119 c7 -6 6 -22 -1 -28 -5 -4 -5 -4 -10 0 -8 6 -9 20 -1 27 5 6 5 6 12 1z
m-124 -129 c4 -4 5 -7 5 -13 0 -11 -7 -18 -18 -18 -11 0 -18 7 -18 18 0 11 7
18 18 18 6 0 9 -1 13 -5z m162 -117 c7 -3 12 -13 12 -25 0 -19 -9 -28 -28 -28
-19 0 -28 9 -28 28 0 17 6 24 22 28 5 1 14 -1 22 -3z m-158 -216 c2 -3 5 -8 6
-12 6 -19 -1 -29 -14 -22 -9 6 -17 16 -17 23 0 13 17 20 25 11z m26 -56 c1 -3
0 -6 -1 -7 -3 -3 -4 -3 -10 0 -5 3 -6 4 -4 8 1 3 2 6 1 7 -1 1 1 2 3 2 5 1 10
-3 11 -10z m65 -171 c4 -4 4 -6 3 -13 -1 -11 -6 -16 -16 -16 -11 0 -17 6 -17
17 0 11 6 17 17 17 6 0 9 -1 13 -5z m-143 -106 c3 -3 3 -3 0 -6 -3 -3 -3 -3
-6 0 -3 2 -3 3 -1 6 4 4 4 4 7 0z"/>
<path d="M124 3742 c-3 -1 -6 -1 -7 0 0 0 -1 0 -1 -2 0 -1 -1 -2 -3 -2 -4 0
-14 -12 -18 -21 -5 -11 -5 -235 0 -246 4 -9 14 -21 18 -21 2 0 3 -1 3 -2 0 -2
0 -2 17 -3 12 -1 18 1 23 8 8 10 11 21 10 34 0 11 5 17 14 17 8 0 14 -6 14
-14 0 -8 2 -16 3 -20 1 -2 2 -4 2 -6 1 -6 9 -13 17 -16 8 -3 19 -4 103 -4 73
0 93 1 93 3 0 1 3 6 6 11 4 7 5 11 5 19 0 12 -4 18 -17 31 -12 12 -15 23 -12
37 4 14 11 19 27 20 16 1 26 -7 29 -23 6 -32 13 -44 32 -57 18 -11 21 -14 24
-23 2 -7 2 -9 0 -10 -3 -2 -3 -7 -1 -18 2 -15 5 -22 11 -26 10 -8 13 -24 7
-39 -2 -5 -3 -10 -2 -17 1 -14 2 -17 9 -27 3 -4 6 -11 7 -14 3 -15 12 -32 25
-45 9 -12 10 -13 10 -23 0 -17 -7 -23 -26 -21 -8 1 -11 3 -18 15 -9 15 -19 26
-31 33 -18 11 -23 29 -13 49 7 16 8 34 1 47 -5 10 -5 12 -4 23 1 7 1 15 1 20
0 8 -5 22 -8 20 -1 -1 -2 0 -2 1 0 3 -16 7 -29 7 -20 0 -26 -9 -24 -39 2 -22
2 -22 -13 -40 -13 -16 -17 -26 -21 -47 -3 -17 -2 -23 3 -35 3 -6 19 -21 24
-23 6 -2 11 -11 11 -21 0 -9 -1 -11 -7 -16 -5 -6 -7 -7 -16 -7 -12 0 -17 4
-27 20 -4 6 -10 13 -14 15 -3 2 -7 4 -8 5 -4 4 -13 4 -93 4 -81 0 -92 0 -92
-3 0 -1 -1 -2 -3 -2 -4 0 -16 -15 -18 -22 -3 -13 1 -21 21 -44 12 -14 27 -40
29 -51 4 -18 0 -29 -13 -34 -26 -11 -32 -16 -37 -31 -3 -8 -3 -27 -3 -138 0
-139 0 -134 11 -149 5 -6 6 -7 16 -7 10 0 19 3 23 8 2 2 18 10 20 10 2 0 5 -2
7 -5 3 -5 3 -6 0 -13 -2 -5 -5 -10 -6 -11 -3 -3 -15 -22 -15 -24 0 0 -2 -5 -5
-9 -3 -5 -9 -10 -18 -14 -14 -8 -23 -15 -29 -25 -2 -5 -3 -13 -4 -49 -1 -59 2
-66 26 -69 l13 -2 8 9 c4 4 9 13 12 19 3 5 8 12 11 16 10 11 28 4 28 -11 0 -3
-4 -13 -8 -22 -9 -16 -16 -34 -16 -40 0 -2 -3 -6 -6 -9 -5 -5 -7 -6 -16 -6 -6
0 -11 1 -11 2 -1 3 -27 -3 -31 -7 -10 -9 -10 -9 -10 -154 0 -135 0 -137 4
-146 3 -5 7 -9 10 -10 6 -3 26 -2 28 1 0 1 5 5 11 9 13 9 27 9 35 0 6 -5 7 -7
7 -15 0 -12 -4 -19 -17 -35 -9 -10 -13 -13 -29 -21 -25 -12 -36 -24 -44 -47
-5 -17 -5 -17 -5 -79 0 -36 1 -65 2 -69 4 -16 17 -24 40 -27 5 -1 12 -2 15 -3
4 -1 9 -3 12 -3 3 -1 7 -1 8 -2 2 0 13 -1 25 -1 12 0 27 -2 34 -3 10 -3 24 -3
66 -2 56 1 58 1 58 3 0 1 1 2 3 2 4 0 14 12 18 21 8 19 -1 41 -22 54 -15 10
-20 26 -10 36 6 7 16 7 33 0 19 -8 33 -5 42 7 20 27 34 27 54 1 2 -4 7 -8 11
-10 4 -2 7 -4 7 -5 0 -3 21 2 28 7 5 3 11 8 14 9 3 2 6 5 7 6 1 2 7 7 13 11 9
7 12 10 14 18 2 8 2 26 -1 31 -1 2 7 6 9 5 1 -1 2 0 3 2 1 3 13 2 24 -2 12 -5
17 -15 17 -33 0 -8 0 -15 -1 -16 -1 -2 5 -23 9 -28 6 -9 19 -14 36 -14 14 1
15 1 21 -5 l6 -6 -1 -23 c0 -17 1 -24 3 -31 4 -9 14 -21 18 -21 2 0 3 -1 3 -2
0 -3 12 -3 108 -3 l97 0 10 6 c9 5 11 9 20 25 6 11 13 23 17 27 20 21 24 57 7
73 -5 4 -25 12 -32 12 -6 0 -13 8 -13 15 0 7 7 15 13 15 7 0 27 8 32 12 11 10
12 23 3 43 -4 10 -4 38 0 45 3 5 8 25 8 31 0 6 -6 20 -11 26 -5 5 -27 13 -36
13 -7 0 -12 3 -17 11 -11 17 7 52 22 42 2 -2 4 -2 4 -1 0 1 2 2 5 2 13 0 22 7
29 22 6 12 6 52 0 65 -4 9 -20 27 -23 27 -6 0 -12 24 -7 27 1 1 7 24 6 24 0 0
1 3 2 6 2 5 2 6 -6 13 -7 6 -8 7 -8 4 0 -5 -10 -5 -15 0 -2 2 -6 4 -7 5 -5 1
-3 9 3 16 6 6 19 7 19 2 0 -3 1 -3 2 -2 1 2 21 6 21 5 0 -1 4 2 8 7 4 4 7 8 6
9 -1 1 0 2 1 3 4 2 3 53 -1 62 -4 9 -5 10 -15 13 -12 3 -22 4 -24 1 -3 -2 -24
-2 -30 1 -7 4 -11 11 -11 24 0 19 8 27 27 27 7 0 13 -1 14 -2 4 -4 29 1 35 6
1 1 3 6 5 10 2 8 2 10 -2 25 -9 35 -9 33 0 67 4 15 4 19 4 222 0 159 -1 207
-2 213 -3 7 -6 10 -8 9 -1 -1 -2 0 -2 0 0 1 -6 2 -13 1 -8 -1 -13 0 -14 1 0 1
-1 0 -1 -3 0 -3 -1 -7 -3 -9 -1 -2 -4 -7 -5 -11 -3 -10 -9 -14 -18 -14 -9 0
-15 4 -18 14 -1 4 -3 8 -4 9 -1 1 -2 5 -3 8 -2 8 -13 18 -23 21 -5 1 -24 2
-55 2 l-47 0 -21 -8 c-12 -5 -25 -8 -28 -8 -3 0 -16 3 -28 8 -19 7 -23 8 -41
8 -18 0 -19 0 -26 6 -3 3 -5 6 -4 6 0 1 3 8 6 16 10 35 26 89 27 92 1 2 4 14
8 28 4 14 7 26 7 28 0 2 3 5 7 9 l8 5 156 0 c153 0 156 0 164 4 5 2 10 5 11 7
3 3 6 29 4 29 -1 1 -3 6 -5 12 -3 12 -2 26 5 38 2 3 6 12 8 18 4 12 4 18 4 85
0 62 0 74 -3 80 -4 9 -14 21 -18 21 -2 0 -3 1 -3 2 0 0 -2 2 -5 2 -4 1 -101 1
-217 1 l-211 0 -9 -4 c-5 -3 -13 -8 -19 -11 -15 -9 -19 -8 -45 8 -4 2 -10 4
-13 5 -9 2 -403 3 -409 1z m51 -55 c3 -5 3 -5 0 -10 -2 -3 -5 -5 -7 -5 -2 0
-5 2 -7 5 -3 5 -3 5 0 10 2 3 5 5 7 5 2 0 5 -2 7 -5z m167 -17 c9 -9 2 -24
-10 -24 -7 0 -16 8 -16 14 0 2 2 6 5 9 6 6 15 7 21 1z m-68 -25 l-5 -5 -5 5
-4 4 4 4 5 5 5 -5 5 -4 -5 -4z m235 -1 c11 -10 3 -28 -11 -28 -9 0 -16 6 -16
16 0 14 17 22 27 12z m93 -32 c9 -9 11 -27 5 -43 -4 -9 -28 -13 -40 -6 -17 8
-15 44 3 52 12 5 25 4 32 -3z m236 -49 l-5 -5 -4 4 -5 5 4 4 5 5 4 -4 5 -5 -4
-4z m-262 -87 c5 -6 5 -12 0 -18 -7 -8 -22 -2 -22 9 0 11 15 17 22 9z m28
-146 c5 -6 5 -12 0 -18 -7 -8 -22 -2 -22 9 0 11 15 17 22 9z m-306 -132 c1 0
5 -3 8 -6 5 -5 6 -7 6 -18 0 -11 -1 -13 -6 -18 -6 -6 -7 -6 -18 -6 -11 0 -12
0 -18 6 -5 5 -6 7 -6 17 0 14 3 20 12 24 5 2 8 2 22 1z m561 -120 c3 -5 4 -24
1 -27 -3 -3 -7 -22 -8 -32 -1 -13 0 -16 4 -21 2 -2 4 -4 4 -5 0 -1 2 -4 5 -8
10 -13 16 -31 18 -54 1 -7 2 -15 3 -18 3 -9 2 -14 -3 -18 -7 -4 -17 -6 -32 -5
-7 0 -14 9 -15 19 -2 12 -3 18 -5 21 -1 1 -2 4 -2 6 -1 5 -5 11 -15 19 -18 16
-18 16 -18 29 0 12 0 13 10 23 13 14 15 20 15 45 -1 18 0 22 3 26 7 9 27 9 35
0z m-217 -32 c5 -5 6 -7 6 -17 0 -10 -1 -12 -6 -17 -5 -5 -7 -6 -17 -6 -10 0
-12 1 -17 6 -5 5 -6 7 -6 17 0 10 1 12 6 17 5 5 7 6 17 6 10 0 12 -1 17 -6z
m339 -23 c4 -4 5 -7 5 -15 0 -14 -6 -20 -20 -20 -14 0 -20 6 -20 20 0 14 6 20
20 20 8 0 11 -1 15 -5z m-665 -10 c7 -3 11 -9 14 -18 3 -10 1 -17 -8 -39 -3
-8 -7 -22 -9 -33 -4 -25 -7 -29 -26 -29 -18 0 -23 5 -25 21 0 7 1 14 3 20 5
14 9 32 8 42 -1 12 2 25 7 30 7 8 24 11 36 6z m421 -142 l0 -78 -6 -6 -6 -6
-148 0 c-81 0 -156 -1 -165 -2 l-18 -2 -3 6 c-4 5 -4 6 0 12 2 4 8 10 14 13
13 9 21 24 21 41 0 14 -5 33 -11 39 -12 13 -12 13 -3 38 4 12 9 24 11 25 10 8
8 8 157 9 l145 1 6 -6 6 -6 0 -78z m-365 16 c1 -2 4 -3 5 -3 2 0 2 -2 0 -11
-2 -7 -3 -14 -4 -17 0 -3 -4 -7 -7 -10 l-6 -4 -5 4 c-5 5 -5 6 -4 19 0 11 1
14 6 19 6 7 11 8 15 3z m553 -10 c3 -3 3 -3 0 -6 -3 -3 -4 -3 -5 -1 0 1 -2 2
-3 2 -4 0 -4 3 1 6 4 2 4 2 7 -1z m-87 -36 c16 -7 20 -37 7 -48 -12 -11 -34
-11 -43 0 -9 10 -9 32 0 42 7 8 24 11 36 6z m-229 -108 c4 -4 5 -7 5 -13 0
-11 -7 -18 -18 -18 -11 0 -18 7 -18 18 0 11 7 18 18 18 6 0 9 -1 13 -5z m-166
-19 c10 -9 4 -24 -16 -46 -12 -13 -23 -12 -23 1 0 9 10 34 17 42 6 8 15 9 22
3z m156 -170 c2 -3 5 -9 7 -15 3 -15 12 -27 22 -32 8 -5 10 -5 53 -5 43 0 44
0 53 -5 4 -3 11 -5 14 -5 2 0 4 -1 3 -1 -1 -2 11 -11 25 -18 6 -3 14 -8 17
-10 9 -6 26 -16 41 -23 6 -3 15 -8 18 -10 3 -2 6 -3 6 -3 1 1 3 -1 6 -4 3 -3
6 -5 7 -5 2 0 3 -1 3 -3 0 -3 2 -6 13 -14 12 -10 17 -23 11 -30 -6 -7 -18 -1
-26 14 -12 20 -21 25 -75 45 -9 3 -17 7 -19 7 -8 4 -25 -3 -33 -13 -8 -11 -9
-20 -9 -57 l1 -34 -6 -6 c-5 -5 -8 -6 -15 -6 -20 1 -29 -12 -28 -42 0 -15 -1
-19 -4 -23 -7 -9 -27 -9 -34 0 -3 4 -4 8 -4 23 1 22 -4 34 -15 40 -3 2 -34 2
-99 2 l-95 0 -6 6 -6 6 0 79 0 79 6 6 6 6 50 -1 c49 0 50 0 59 5 10 5 19 17
22 32 4 14 9 19 19 19 6 0 9 -1 12 -4z m196 -17 c5 -8 1 -16 -8 -16 -9 0 -13
8 -8 16 2 3 5 5 8 5 3 0 6 -2 8 -5z m132 -6 c6 -7 8 -13 5 -13 -1 0 -2 -3 -4
-7 -3 -8 -8 -12 -16 -13 -19 -2 -26 4 -26 21 0 13 4 19 14 21 11 2 20 -1 27
-9z m-606 -58 c10 -10 4 -35 -9 -35 -10 0 -38 -13 -48 -22 -5 -5 -11 -7 -22
-7 -14 0 -21 4 -30 17 -25 37 -10 61 28 45 16 -7 27 -6 44 1 17 7 30 8 37 1z
m647 -83 c5 -5 5 -11 1 -20 -2 -4 -4 -7 -4 -8 -1 -1 -14 5 -17 8 -4 4 -4 18 1
21 5 4 14 4 19 -1z m-47 -104 c6 -8 5 -18 -2 -26 -6 -6 -22 -6 -28 1 -7 6 -7
21 -1 28 8 9 25 7 31 -3z m-362 -8 c11 -10 3 -28 -11 -28 -9 0 -16 6 -16 16 0
14 17 22 27 12z m202 -53 c5 -8 1 -16 -8 -16 -9 0 -13 8 -8 16 2 3 5 5 8 5 3
0 6 -2 8 -5z m205 -40 c6 -7 6 -22 0 -28 -9 -9 -34 -5 -37 6 -1 6 3 17 8 23 6
7 22 6 29 -1z m-479 -12 c12 -7 14 -33 3 -43 -8 -9 -32 -9 -40 0 -9 8 -9 32 0
41 7 7 27 8 37 2z m-138 -3 c10 -9 3 -26 -10 -26 -8 0 -15 7 -15 15 0 13 16
20 25 11z m538 -16 c2 -2 4 -3 4 -2 1 1 3 -1 6 -4 4 -4 5 -6 4 -11 -3 -20 -10
-29 -24 -30 -17 -1 -27 8 -27 25 0 12 4 19 12 23 7 3 21 2 25 -1z m-312 -18
c2 -2 5 -5 8 -7 l4 -4 -7 -1 c-3 -1 -6 -3 -6 -4 0 -4 -7 -2 -11 3 -3 5 -3 5 0
10 4 5 8 6 12 3z m-265 -99 c5 -4 12 -14 16 -22 7 -12 8 -16 8 -26 0 -10 -1
-12 -6 -17 -3 -3 -7 -6 -9 -6 -13 -1 -20 0 -24 3 -10 7 -24 42 -23 61 0 19 23
23 38 7z"/>
<path d="M1180 3626 c-3 -1 -6 -1 -7 0 0 0 -1 0 -1 -2 0 -1 -1 -2 -3 -2 -4 0
-14 -12 -18 -21 -3 -7 -3 -25 -3 -159 0 -111 1 -153 2 -159 3 -9 14 -20 22
-22 3 -1 6 -2 7 -3 1 -1 7 -3 13 -5 14 -4 19 -7 27 -14 7 -7 11 -8 35 -14 11
-3 20 -6 21 -8 6 -7 3 -14 -6 -24 -9 -10 -10 -10 -10 -22 0 -10 1 -14 6 -20 6
-9 7 -22 2 -37 -1 -5 -4 -17 -5 -26 -3 -16 -8 -26 -15 -26 -4 0 -11 9 -11 14
0 6 -9 36 -12 42 -3 5 -3 18 0 29 3 11 3 13 1 23 0 4 -2 8 -3 7 -1 -1 -2 0 -2
0 0 1 -2 2 -4 2 -7 1 -10 2 -17 6 -4 2 -7 2 -7 2 0 -1 -1 -1 -2 0 -2 3 -12 2
-24 -1 -10 -3 -11 -4 -15 -13 -2 -6 -3 -16 -3 -56 0 -53 1 -57 11 -66 5 -4 25
-11 30 -9 1 0 7 1 14 2 15 2 21 -2 21 -14 0 -4 1 -11 2 -15 1 -4 2 -9 3 -11 0
-2 3 -9 6 -16 9 -20 9 -22 5 -27 -4 -4 -4 -4 -15 -1 -11 4 -19 5 -33 6 -11 1
-32 -14 -40 -29 -3 -5 -3 -22 -4 -178 0 -185 -1 -174 11 -203 7 -17 6 -26 -1
-45 -5 -11 -6 -17 -5 -23 3 -25 36 -41 66 -32 9 3 23 16 32 30 8 13 13 16 22
16 11 0 17 -6 17 -17 0 -5 -1 -10 -3 -11 -2 -1 -3 -4 -3 -5 0 -2 -1 -4 -3 -4
-6 -5 -15 -20 -22 -40 -6 -18 -7 -18 -42 -19 -32 -1 -35 -2 -51 -14 -4 -3 -7
-6 -7 -6 0 -1 1 -7 1 -15 1 -12 1 -13 6 -15 3 -2 6 -4 6 -4 0 -2 5 -3 102 -3
97 -1 98 -1 108 3 11 5 16 11 27 31 5 11 9 15 15 19 10 5 17 14 22 26 4 8 4
17 4 179 0 186 0 180 -11 189 -6 4 -17 8 -25 8 -3 0 -9 0 -15 0 -7 0 -11 1
-15 3 -5 4 -12 20 -13 29 0 5 3 10 6 10 1 0 5 1 8 3 3 2 10 3 15 3 16 0 18 0
26 2 10 3 18 9 21 17 4 9 4 237 1 246 -5 13 -7 16 -13 22 -17 18 -23 36 -21
61 1 12 2 13 10 21 24 23 26 28 25 80 0 45 -1 50 -15 65 -9 9 -14 17 -14 21 0
4 5 12 14 21 3 4 8 11 11 16 4 9 4 11 5 89 0 70 0 81 -3 88 -4 9 -14 21 -18
21 -2 0 -3 1 -3 2 0 1 -1 2 -2 2 -7 1 -240 2 -244 0z m160 -753 c3 -4 6 -11 7
-14 1 -7 1 -7 -8 -11 -21 -9 -35 -3 -35 15 0 21 24 28 36 10z m-104 -9 c5 -5
5 -11 0 -16 -10 -10 -27 5 -16 16 4 4 12 4 16 0z m-35 -87 c3 -3 3 -3 0 -6 -3
-3 -3 -3 -6 0 -3 2 -3 3 -1 6 4 4 4 4 7 0z"/>
</g>
</svg>
