<?xml version="1.0" standalone="no"?>
<!DOCTYPE svg PUBLIC "-//W3C//DTD SVG 20010904//EN"
 "http://www.w3.org/TR/2001/REC-SVG-20010904/DTD/svg10.dtd">
<svg version="1.0" xmlns="http://www.w3.org/2000/svg"
 width="1100.000000pt" height="2850.000000pt" viewBox="0 0 1100.000000 2850.000000"
 preserveAspectRatio="xMidYMid meet">
<metadata>
Created by potrace 1.15, written by Peter Selinger 2001-2017
</metadata>
<g transform="translate(0.000000,2850.000000) scale(0.500000,-0.500000)"
fill="#000000" stroke="none">
<path d="M732 3808 c-3 -1 -6 -1 -7 0 0 0 -1 0 -1 -2 0 -1 -1 -2 -3 -2 -4 0
-14 -12 -18 -21 -2 -6 -3 -17 -3 -62 l0 -54 7 -22 c9 -26 9 -24 0 -51 -12 -36
-5 -52 28 -62 11 -4 17 -9 17 -17 0 -6 -7 -15 -12 -15 -5 0 -28 -12 -32 -17
-9 -12 -10 -45 -2 -77 7 -28 5 -38 -10 -45 -10 -5 -24 -3 -24 3 0 1 -1 4 -3 5
-2 2 -3 5 -3 8 -1 7 -1 12 0 14 1 3 -2 15 -5 24 l-4 7 -12 0 c-7 0 -13 -1 -15
-2 -1 -2 -2 -2 -2 -1 0 1 -5 -5 -11 -12 -11 -13 -16 -16 -27 -16 -11 0 -16 3
-27 16 l-12 14 -14 -1 -15 0 -5 -11 -5 -11 0 -114 c0 -99 0 -114 3 -121 4 -9
14 -21 18 -21 2 0 3 -1 3 -2 0 -2 2 -2 64 -3 l59 -1 5 -5 c5 -5 5 -5 3 -17 -8
-34 -18 -80 -22 -98 -5 -20 -7 -34 -4 -43 0 -2 1 -5 1 -5 0 -1 3 -5 6 -8 7 -6
17 -8 22 -5 6 3 19 -2 29 -11 9 -8 18 -13 33 -16 18 -4 36 4 48 22 10 15 23
19 32 9 4 -4 4 -6 3 -17 -4 -30 0 -40 15 -50 15 -9 20 -16 20 -25 0 -11 -6
-17 -16 -17 -7 0 -18 4 -22 8 -4 4 -19 12 -25 14 -6 2 -12 2 -28 -1 -26 -4
-36 -1 -49 11 -6 5 -12 10 -16 12 -13 7 -25 20 -28 31 -3 10 -4 11 -24 11 -13
1 -17 -1 -19 -8 0 -1 -1 -2 -2 -4 0 -2 -3 -13 -7 -25 -13 -47 -46 -151 -57
-177 0 -2 -6 -15 -11 -30 -20 -53 -28 -65 -38 -63 -3 0 -8 3 -10 5 -3 3 -24
16 -57 35 -11 6 -24 10 -34 10 -4 0 -7 1 -7 2 0 0 -1 1 -3 1 -1 0 -5 5 -7 11
-4 9 -6 12 -13 15 -12 7 -17 10 -24 14 -6 4 -8 5 -30 17 -8 4 -15 8 -16 9 -3
3 -15 2 -26 -1 -14 -5 -17 -11 -32 -62 -13 -46 -23 -78 -32 -107 -29 -91 -48
-149 -52 -160 -2 -7 -6 -17 -8 -23 -23 -65 -36 -103 -45 -126 -4 -12 -12 -34
-18 -49 -13 -34 -29 -76 -41 -107 -9 -21 -9 -24 -8 -34 3 -25 21 -37 61 -41
27 -2 34 -7 43 -30 5 -13 15 -22 33 -32 17 -8 38 -16 43 -16 8 0 31 -12 42
-20 20 -17 33 -13 33 9 0 8 -1 12 -7 21 -9 14 -9 24 -2 31 3 3 6 5 8 5 6 0 27
8 34 12 4 3 9 8 12 14 10 19 77 232 111 351 6 23 12 44 13 46 4 8 10 12 15 6
2 -2 33 -77 43 -102 5 -15 17 -29 25 -29 1 0 5 -1 7 -1 2 -1 12 -1 22 -1 14 0
19 -1 24 -4 8 -5 30 -5 38 1 4 2 12 15 13 19 0 1 1 5 10 29 17 47 22 62 22 67
0 7 0 7 2 2 1 -3 3 -4 4 -3 2 1 2 1 2 0 -1 -1 -1 -3 1 -6 3 -3 3 -37 3 -247 0
-218 0 -244 3 -251 4 -9 14 -21 18 -21 2 0 3 -1 3 -2 0 -3 12 -3 119 -3 107 0
119 0 119 3 0 1 1 2 3 2 4 0 14 12 18 21 3 6 3 18 3 75 0 38 -1 70 -2 72 -1 1
-3 6 -5 11 -2 4 -6 11 -10 15 -13 14 -15 18 -15 30 0 12 2 16 15 30 4 4 8 11
10 15 2 5 4 10 5 12 1 2 2 88 3 191 l0 187 6 6 c4 4 5 5 5 2 0 -7 18 -49 22
-54 4 -4 7 -5 19 -5 16 0 18 1 25 13 9 13 32 48 44 67 6 9 13 20 15 24 2 4 11
17 19 30 9 13 22 33 29 45 12 18 15 22 24 26 l10 5 90 0 90 -1 7 -5 c10 -6 10
-18 2 -46 -9 -32 -8 -60 3 -70 5 -5 31 -14 32 -12 2 3 16 0 22 -6 8 -8 8 -24
0 -32 -6 -6 -20 -9 -22 -6 -1 2 -27 -7 -32 -12 -9 -8 -9 -14 -9 -140 l1 -119
-6 -6 -6 -6 -82 1 c-50 0 -84 -1 -89 -2 -10 -3 -24 -12 -30 -21 -3 -4 -7 -8
-10 -10 -6 -3 -26 -4 -26 -1 0 1 -4 1 -9 0 -6 -1 -11 -2 -12 -2 -1 0 -4 -2 -7
-4 -3 -2 -5 -4 -6 -4 -5 0 -6 -20 -6 -120 0 -90 0 -105 3 -111 4 -9 14 -21 18
-21 2 0 3 -1 3 -2 0 -2 1 -2 45 -3 62 -2 76 2 105 28 17 16 24 18 39 15 8 -2
13 -6 22 -20 3 -4 8 -10 12 -13 14 -11 12 -11 189 -11 l163 0 19 5 c24 6 26 6
50 0 20 -5 20 -5 89 -4 73 1 75 1 75 3 0 1 1 2 3 2 4 0 14 12 18 21 5 11 5
237 0 248 -4 9 -14 21 -18 21 -2 0 -3 1 -3 2 0 2 -2 2 -88 3 -92 1 -95 1 -105
-12 -5 -7 -11 -23 -11 -31 0 -4 -2 -8 -5 -11 -10 -11 -31 -4 -31 10 0 7 -5 25
-8 31 -4 7 -10 12 -21 17 -24 11 -24 22 1 39 4 4 11 11 14 16 l5 9 0 191 0
191 6 6 6 6 91 0 c95 0 101 0 104 4 2 2 4 3 5 3 2 0 3 1 2 2 0 1 0 3 2 4 1 1
2 5 1 13 0 8 0 11 2 11 2 0 -1 2 -7 4 -9 4 -15 4 -40 4 -18 -1 -26 7 -26 26 0
19 8 27 27 27 7 0 13 -1 14 -2 2 -3 12 -2 24 1 18 5 18 6 18 92 0 61 0 73 -3
79 -4 9 -14 21 -18 21 -2 0 -3 1 -3 2 0 3 -12 3 -102 3 l-91 0 -6 6 -6 6 0
189 0 189 6 6 6 6 89 0 c88 0 100 0 100 3 0 1 1 2 3 2 4 0 14 12 18 21 5 14 3
67 -4 84 -3 8 -3 32 0 40 5 12 6 18 6 67 1 41 1 50 -2 57 -4 9 -14 21 -18 21
-2 0 -3 1 -3 2 0 1 -1 2 -2 2 -2 0 -97 1 -213 1 -232 1 -224 2 -243 -12 -6 -3
-10 -7 -10 -7 0 -1 -4 -4 -10 -8 -16 -10 -31 -8 -46 7 -11 11 -23 19 -35 20
-9 1 -135 0 -140 -1 -2 0 -3 -1 -3 -2 0 -1 -1 -2 -3 -2 -4 0 -14 -12 -18 -21
-3 -7 -3 -15 -2 -51 1 -47 1 -72 0 -139 l0 -44 -5 -6 -6 -5 -75 -1 -76 0 -6 6
-6 6 0 170 c0 196 3 176 -23 175 -8 -1 -14 0 -15 1 0 1 -1 0 -1 -3 0 -5 -12
-18 -16 -18 -6 0 -18 8 -30 18 -7 6 -18 14 -26 17 l-13 6 -62 0 c-34 1 -64 0
-67 -1z m75 -113 c12 -12 3 -31 -13 -31 -11 0 -18 7 -18 18 0 11 7 18 18 18 6
0 9 -1 13 -5z m704 -69 c4 -6 4 -24 -1 -30 -7 -9 -27 -9 -34 0 -5 6 -5 24 0
30 7 9 27 9 35 0z m-211 -8 c1 0 5 -3 8 -6 5 -5 6 -7 6 -18 0 -11 -1 -13 -6
-18 -6 -6 -7 -6 -18 -6 -11 0 -12 0 -18 6 -5 5 -6 7 -6 17 0 14 3 20 12 24 5
2 8 2 22 1z m341 -67 c6 -4 6 -6 6 -20 l0 -15 -10 -9 c-5 -5 -13 -12 -17 -15
-7 -7 -23 -18 -25 -18 -2 0 -12 -4 -31 -13 -26 -13 -41 -9 -49 10 -14 39 -17
51 -12 56 8 8 18 4 37 -13 12 -11 18 -13 29 -11 14 2 22 12 29 36 4 13 9 17
25 17 11 0 14 -1 18 -5z m-741 -40 c3 -3 4 -7 4 -14 0 -13 -6 -19 -19 -19 -13
0 -19 6 -19 19 0 7 1 11 4 14 7 8 23 8 30 0z m482 -4 c3 -3 4 -7 4 -14 0 -13
-6 -19 -19 -19 -13 0 -19 6 -19 19 0 7 1 11 4 14 7 8 23 8 30 0z m-543 -73 c4
-6 4 -24 -1 -30 -7 -9 -27 -9 -34 0 -5 6 -5 24 0 30 7 9 27 9 35 0z m544 -37
l6 -6 -1 -191 c-1 -177 -1 -192 -5 -202 -2 -6 -4 -13 -4 -15 -1 -3 -5 -8 -8
-13 -9 -10 -12 -10 -28 1 -5 4 -11 8 -13 8 -2 0 -5 2 -8 3 -2 1 -9 3 -15 4 -7
1 -21 5 -31 9 -18 7 -20 7 -36 7 -21 -2 -31 -6 -45 -20 -33 -32 -33 -31 -33
-114 0 -35 1 -68 2 -74 1 -6 2 -16 2 -23 1 -16 -2 -20 -19 -29 -7 -4 -15 -9
-18 -11 -25 -18 -47 -16 -47 4 0 10 4 16 17 26 24 18 27 24 27 45 0 17 -5 48
-10 59 -2 7 -25 42 -28 45 -1 1 -7 10 -15 21 -16 25 -30 45 -32 48 -1 1 -8 11
-16 22 -7 11 -14 20 -15 21 -3 3 -15 22 -18 31 -4 8 -5 16 -6 41 l-1 31 6 6 6
6 74 0 c74 0 85 0 85 3 0 1 1 2 3 2 4 0 14 12 18 21 4 12 3 67 -2 92 -3 16 -3
18 0 35 3 13 4 26 4 59 l0 42 6 6 5 6 93 0 94 0 6 -6z m-509 -67 c5 -5 5 -15
0 -20 -9 -9 -24 -2 -24 10 0 8 6 14 14 14 3 0 8 -2 10 -4z m-202 -2 c0 -1 1
-2 2 -2 3 1 6 0 5 -2 -1 -1 0 -2 1 -2 13 -2 23 -1 36 2 16 4 27 3 34 -3 4 -4
24 -44 29 -58 7 -22 -6 -41 -28 -40 -17 1 -23 7 -28 23 -5 18 -9 26 -15 29 -9
5 -25 6 -32 3 -5 -2 -11 -3 -23 -2 -2 0 -6 3 -9 6 -5 5 -6 7 -6 18 0 8 1 13 4
16 6 8 30 17 30 12z m878 -182 c5 -5 5 -11 0 -16 -10 -10 -27 5 -16 16 4 4 12
4 16 0z m-791 -47 c3 -5 3 -5 0 -10 -2 -3 -5 -5 -7 -5 -2 0 -5 2 -7 5 -3 5 -3
5 0 10 2 3 5 5 7 5 2 0 5 -2 7 -5z m748 -62 c6 -4 6 -6 6 -20 0 -14 0 -16 -6
-20 -11 -10 -38 -5 -44 7 -6 12 -2 29 9 35 9 5 29 4 35 -2z m-614 -47 c7 -8 8
-19 2 -26 -4 -5 -5 -5 -12 -3 -12 3 -17 8 -17 17 0 14 18 22 27 12z m50 -50
c2 0 6 -3 9 -6 5 -5 6 -7 6 -17 0 -16 -7 -23 -23 -23 -16 0 -23 7 -23 22 0 5
-1 12 -1 14 0 1 2 5 5 8 4 5 5 5 14 4 5 -1 11 -2 13 -2z m313 -12 c4 -4 6 -34
5 -67 0 -16 0 -18 -6 -22 -4 -4 -7 -5 -18 -5 -25 0 -28 8 -22 58 3 33 6 39 15
41 3 1 6 2 7 2 5 1 16 -3 19 -7z m-209 -73 c4 -4 5 -7 5 -15 0 -14 -6 -20 -20
-20 -14 0 -20 6 -20 20 0 14 6 20 20 20 8 0 11 -1 15 -5z m-229 -140 c9 -6 19
-26 19 -42 0 -10 -2 -14 -9 -28 -11 -22 -16 -26 -32 -26 -27 0 -35 20 -20 51
4 8 8 17 9 20 5 17 14 28 21 28 3 0 8 -2 12 -3z m221 -26 c12 -12 3 -31 -13
-31 -11 0 -18 7 -18 18 0 11 7 18 18 18 6 0 9 -1 13 -5z m-372 -6 c12 -7 14
-33 3 -43 -8 -9 -32 -9 -40 0 -9 8 -9 32 0 41 7 7 27 8 37 2z m245 -1 c5 -5 5
-11 0 -16 -10 -10 -27 5 -16 16 4 4 12 4 16 0z m-526 -23 c-1 0 0 -2 2 -3 1
-1 1 -2 -2 -5 -4 -3 -4 -3 -7 0 -3 3 -3 4 -1 5 1 0 2 2 2 3 0 2 1 3 4 3 1 -1
3 -2 2 -3z m1173 -51 c4 -6 4 -24 -1 -30 -7 -9 -27 -9 -34 0 -5 6 -5 24 0 30
7 9 27 9 35 0z m-1127 -21 c23 -6 32 -13 29 -23 -2 -8 -34 -23 -48 -22 -12 0
-13 0 -19 6 -5 5 -6 7 -6 17 0 24 12 30 44 22z m249 -56 c4 -3 7 -4 7 -4 0 1
2 -2 5 -8 10 -18 10 -36 0 -48 -5 -5 -5 -5 -5 -1 0 4 -4 7 -28 21 -12 7 -16
14 -16 26 0 7 1 10 5 14 7 7 21 7 32 0z m927 -66 c3 -3 4 -7 4 -14 0 -13 -6
-19 -19 -19 -13 0 -19 6 -19 19 0 7 1 11 4 14 7 8 23 8 30 0z m-978 -19 c5 -5
5 -15 0 -20 -9 -9 -24 -2 -24 10 0 8 6 14 14 14 3 0 8 -2 10 -4z m905 -110
c16 -7 16 -43 -1 -50 -15 -6 -34 -2 -39 9 -4 8 -4 24 0 32 5 12 23 15 40 9z
m-1240 -2 c11 -10 3 -28 -11 -28 -9 0 -16 6 -16 16 0 14 17 22 27 12z m-91
-92 c5 -5 5 -11 0 -16 -10 -10 -27 5 -16 16 4 4 12 4 16 0z m621 -12 c16 -7
16 -43 -1 -50 -15 -6 -34 -2 -39 9 -4 8 -4 24 0 32 5 12 23 15 40 9z m-606
-85 c10 -6 13 -20 7 -38 -3 -10 -5 -20 -5 -35 -1 -26 -2 -31 -8 -36 -6 -4 -25
-6 -33 -2 -14 6 -15 10 -8 39 4 15 4 23 3 35 -1 26 3 37 17 40 9 2 22 1 27 -3z
m1279 -17 c5 -5 5 -11 0 -16 -10 -10 -27 5 -16 16 4 4 12 4 16 0z m-331 -5 c3
-3 3 -3 0 -6 -4 -5 -11 1 -7 6 4 4 4 4 7 0z m428 -1 c10 -9 3 -26 -10 -26 -8
0 -15 7 -15 15 0 13 16 20 25 11z m-786 -45 c12 -12 3 -31 -13 -31 -11 0 -18
7 -18 18 0 11 7 18 18 18 6 0 9 -1 13 -5z m-536 -18 c3 -3 3 -3 0 -6 -4 -5
-11 1 -7 6 4 4 4 4 7 0z m1157 -19 c5 -5 5 -11 0 -16 -10 -10 -27 5 -16 16 4
4 12 4 16 0z m383 -7 c3 -5 3 -5 0 -10 -2 -3 -5 -5 -7 -5 -2 0 -5 2 -7 5 -3 5
-3 5 0 10 2 3 5 5 7 5 2 0 5 -2 7 -5z"/>
<path d="M246 3778 c-17 -3 -21 -7 -45 -37 -10 -12 -19 -24 -21 -26 -2 -2 -4
-5 -6 -7 -2 -2 -14 -16 -26 -31 -13 -15 -24 -29 -25 -31 -2 -1 -11 -12 -20
-24 -10 -11 -19 -22 -20 -22 -2 -2 -4 -18 -2 -29 1 -5 2 -9 2 -8 1 0 4 -2 7
-5 3 -3 8 -7 11 -9 23 -14 35 -21 72 -45 64 -43 113 -79 156 -115 24 -19 27
-23 56 -50 16 -15 18 -16 34 -15 13 2 15 3 36 29 l15 20 0 15 c-1 9 -3 18 -5
23 -4 9 -4 22 0 27 8 9 18 11 25 7 4 -3 18 -6 18 -3 0 2 12 8 14 7 1 0 4 4 8
9 10 15 19 25 27 29 7 3 23 21 33 37 6 8 5 29 -1 35 -7 7 -19 10 -37 8 -13 -1
-15 -1 -18 3 -2 3 -4 6 -4 9 0 20 -10 37 -26 45 -11 5 -23 14 -27 22 -3 5 -14
13 -60 42 -34 22 -120 72 -149 87 -7 4 -14 5 -22 3z m235 -174 c8 -14 3 -43
-8 -48 -6 -3 -23 1 -40 9 -8 3 -20 8 -28 10 -8 2 -16 5 -18 8 -9 7 -5 23 6 27
2 1 22 2 44 1 l40 0 4 -7z m29 -78 c8 -3 12 -9 13 -23 1 -9 1 -11 -3 -15 -5
-5 -21 -11 -19 -8 1 1 0 2 -1 2 -1 0 -2 -1 -2 -2 -1 -1 -5 1 -10 6 l-8 8 0 13
c1 17 6 23 16 22 4 -1 10 -2 14 -3z"/>
<path d="M246 3227 c-11 -3 -22 -17 -27 -35 -2 -12 -18 -15 -45 -10 -13 3 -31
-1 -37 -7 -1 -2 -4 -3 -5 -3 -6 0 -20 -22 -30 -49 -7 -17 -8 -18 -25 -29 -12
-7 -22 -17 -31 -29 -3 -4 -4 -8 -4 -18 0 -20 5 -25 44 -46 20 -11 64 -39 82
-51 18 -11 33 -10 53 5 10 8 13 10 21 10 20 0 27 -16 20 -38 -5 -14 -4 -30 1
-38 2 -3 11 -11 20 -18 9 -6 17 -13 18 -14 2 -1 6 -4 9 -7 10 -7 33 -28 43
-37 10 -9 14 -11 27 -11 10 0 18 3 20 7 5 6 1 31 -6 37 -4 3 -8 13 -8 17 0 10
15 17 21 11 4 -4 32 -5 39 -2 9 4 31 33 33 44 2 10 6 22 7 22 1 0 2 1 1 2 -1
2 5 10 7 10 1 0 5 2 8 4 3 2 7 4 10 5 3 1 11 9 24 26 18 25 18 25 18 37 0 15
-2 21 -12 29 -14 14 -70 54 -113 81 -4 2 -12 7 -16 10 -4 3 -9 6 -11 7 -2 0
-6 3 -9 5 -3 2 -10 5 -14 8 -4 2 -16 9 -26 15 -41 24 -88 48 -96 49 -3 1 -8 1
-11 1z m50 -93 c14 -6 19 -14 19 -29 0 -19 -9 -28 -28 -28 -11 0 -20 4 -24 10
-10 16 -12 40 -5 48 7 7 23 7 38 -1z m142 -131 c31 -5 32 -6 38 -29 4 -17 4
-20 -3 -25 -4 -3 -8 -4 -21 -4 -14 0 -16 1 -30 8 -8 5 -20 11 -25 14 -17 9
-23 26 -12 36 5 5 6 5 20 4 8 0 23 -2 33 -4z"/>
<path d="M580 2231 c-2 -2 -3 -7 -2 -11 0 -6 -1 -9 -2 -10 -2 -1 3 -2 12 -2
l16 0 1 6 c2 7 0 17 -3 19 -2 1 -2 1 -1 -1 1 -1 -2 -2 -9 -2 -6 0 -10 1 -9 2
2 3 0 2 -3 -1z"/>
</g>
</svg>
