<?xml version="1.0" standalone="no"?>
<!DOCTYPE svg PUBLIC "-//W3C//DTD SVG 20010904//EN"
 "http://www.w3.org/TR/2001/REC-SVG-20010904/DTD/svg10.dtd">
<svg version="1.0" xmlns="http://www.w3.org/2000/svg"
 width="1000.000000pt" height="2850.000000pt" viewBox="0 0 1000.000000 2850.000000"
 preserveAspectRatio="xMidYMid meet">
<metadata>
Created by potrace 1.15, written by Peter Selinger 2001-2017
</metadata>
<g transform="translate(0.000000,2850.000000) scale(0.500000,-0.500000)"
fill="#000000" stroke="none">
<path d="M1296 3810 c-3 -1 -6 -1 -7 0 0 0 -1 0 -1 -2 0 -1 -1 -2 -3 -2 -4 0
-15 -12 -18 -21 -2 -7 -3 -48 -4 -229 -1 -122 -2 -234 -2 -249 l0 -28 -6 -5
-6 -6 -52 0 c-45 -1 -53 -2 -60 -5 -5 -2 -9 -4 -9 -5 0 -1 -1 -2 -3 -2 -1 0
-4 -2 -6 -4 -2 -2 -9 -7 -15 -10 -6 -4 -20 -12 -31 -18 -17 -11 -20 -12 -31
-12 -8 0 -13 1 -16 4 -4 3 -14 24 -14 30 0 2 0 2 -2 0 -1 -2 -6 -2 -17 -2 -10
0 -16 0 -18 -2 -1 -2 -2 -32 -3 -121 0 -106 0 -121 3 -128 4 -9 14 -21 18 -21
2 0 3 -1 3 -2 0 -2 11 -3 72 -3 l61 0 10 6 c5 3 12 9 15 13 3 4 7 9 10 12 3 3
7 8 11 12 3 3 6 6 8 6 2 0 3 2 3 7 0 4 1 8 1 9 0 0 1 5 3 9 1 4 2 10 3 13 2
13 26 17 36 7 7 -7 7 -25 1 -31 -5 -5 -29 -20 -31 -20 -1 0 -2 -1 -4 -2 -2 -2
-2 -4 1 -9 1 -3 2 -8 2 -12 -1 -6 0 -7 9 -13 5 -3 14 -6 18 -7 11 -2 19 -10
18 -17 0 -3 -1 -13 -2 -22 -2 -22 3 -33 14 -39 9 -4 22 -5 26 -1 5 4 27 12 34
12 7 0 13 -7 13 -15 0 -6 -2 -9 -10 -17 -15 -15 -24 -19 -46 -19 -10 0 -21 -1
-23 -2 -2 0 -5 -1 -5 -1 -3 0 -13 -11 -15 -15 -1 -2 -2 -8 -2 -12 -4 -28 -23
-130 -30 -157 -1 -2 -3 -12 -6 -22 -2 -10 -7 -27 -10 -37 -10 -33 -10 -34 -6
-46 4 -13 8 -17 27 -26 17 -8 21 -13 21 -29 -1 -18 -10 -27 -28 -27 -5 0 -11
2 -15 3 -9 4 -31 2 -38 -3 -6 -5 -6 -5 -33 -61 -10 -22 -27 -54 -37 -70 -17
-28 -50 -78 -58 -86 -2 -2 -7 -9 -12 -16 -5 -6 -10 -12 -10 -12 -1 0 -3 3 -5
7 -3 8 -3 10 0 55 3 47 6 85 6 89 0 7 -9 25 -16 32 -15 15 -18 24 -12 29 2 1
3 4 3 5 0 2 1 3 2 3 1 0 5 3 9 7 9 7 16 18 18 28 1 7 4 66 6 145 1 23 2 49 2
59 5 116 4 122 -11 136 -11 10 -20 11 -67 11 -47 -1 -49 -2 -66 -17 -2 -2 -8
-6 -12 -8 -7 -4 -7 -4 -14 0 -4 2 -10 6 -12 8 -15 13 -23 16 -44 16 -17 0 -18
0 -24 6 -6 6 -6 7 -6 24 0 9 1 17 1 17 2 0 10 15 10 19 0 2 1 3 1 2 2 -1 8 6
10 12 3 9 14 22 19 22 8 0 28 -23 28 -32 0 -2 5 -5 12 -9 11 -5 11 -5 42 -4
35 2 36 2 36 4 0 1 1 2 3 2 4 0 16 15 18 21 2 10 3 19 1 19 0 0 -2 2 -3 4 -3
7 -10 10 -22 10 -7 0 -11 1 -11 3 0 1 -1 0 -2 -3 -2 -7 -14 -15 -27 -18 -9 -2
-10 -2 -18 3 -8 4 -9 6 -9 12 0 12 8 33 15 40 6 6 8 7 19 7 14 0 20 -2 20 -8
0 -2 1 -2 1 0 1 1 5 2 12 2 12 0 19 3 22 10 1 2 3 4 3 4 1 0 2 22 2 49 0 40 0
50 -3 56 -4 9 -14 21 -18 21 -2 0 -3 1 -3 2 0 2 -9 3 -34 3 -21 0 -24 0 -33
-5 -5 -3 -15 -7 -20 -9 -10 -3 -11 -3 -21 1 -6 2 -15 6 -19 8 -5 2 -11 4 -14
4 -3 1 -8 4 -12 7 l-6 6 1 20 c2 31 9 67 14 72 9 9 28 4 28 -7 0 -7 12 -29 17
-34 10 -7 18 -8 57 -7 41 1 42 1 42 3 0 1 1 2 3 2 4 0 14 12 18 21 5 11 5 179
0 190 -4 9 -14 21 -18 21 -2 0 -3 1 -3 2 0 2 -2 2 -62 3 -52 1 -57 1 -63 -3
-10 -5 -13 -9 -14 -21 -1 -6 -2 -11 -3 -12 -2 -2 -2 -3 1 -3 4 0 6 -7 2 -13
-4 -6 -10 -6 -15 -1 -4 4 -4 14 1 14 1 0 2 7 2 22 0 20 -1 23 -4 26 -3 2 -4 6
-4 18 0 14 0 15 6 21 l6 6 91 0 c90 0 102 0 102 3 0 1 1 2 3 2 4 0 14 12 18
21 5 11 5 195 0 206 -4 9 -14 21 -18 21 -2 0 -3 1 -3 2 0 3 -12 3 -106 3 l-96
0 -7 -6 c-9 -7 -20 -26 -22 -37 -1 -7 -8 -14 -14 -14 -18 -2 -28 4 -30 18 -2
10 -11 26 -20 33 l-7 6 -93 1 -92 0 -23 -5 -22 -6 -22 6 c-20 5 -24 5 -64 5
-24 0 -46 -1 -51 -2 -10 -3 -19 -12 -25 -25 -3 -6 -6 -11 -7 -11 -1 0 -3 -2
-4 -3 -1 -4 -1 -4 -4 0 -1 1 -3 3 -4 3 -1 0 -4 5 -7 11 -11 22 -23 28 -53 26
-23 -1 -23 -1 -23 -3 0 -1 -1 -2 -3 -2 -4 0 -14 -12 -18 -21 -3 -7 -3 -15 -3
-52 1 -44 1 -44 7 -58 12 -27 28 -39 63 -46 12 -2 17 -19 14 -39 -3 -12 -8
-17 -18 -15 -10 1 -18 7 -23 17 -3 5 -5 8 -5 7 0 -2 -4 -3 -15 -3 -13 0 -15
-1 -19 -5 -4 -5 -4 -5 -4 -118 l0 -114 6 -11 c4 -10 7 -12 21 -20 20 -13 21
-14 21 -25 0 -11 -1 -12 -21 -25 -14 -8 -17 -10 -21 -20 l-6 -11 0 -281 c0
-253 0 -282 3 -289 4 -9 14 -21 18 -21 2 0 3 -1 3 -2 0 -2 10 -3 57 -3 46 0
54 1 58 4 1 1 5 3 8 5 4 2 10 9 14 15 10 16 15 20 27 20 11 0 18 -5 24 -16 3
-4 8 -11 12 -15 7 -7 8 -8 19 -8 11 0 12 1 19 8 10 11 13 18 15 34 3 32 6 38
19 38 12 0 16 -6 17 -29 1 -11 3 -23 4 -27 4 -10 15 -22 20 -23 3 -1 5 -2 5
-3 0 -2 3 -3 123 -3 l118 -1 6 -6 c2 -3 4 -6 4 -6 0 -1 -1 -13 -2 -28 -1 -31
-2 -35 -8 -38 -4 -2 -5 -1 -5 2 0 2 -1 4 -2 5 -1 1 -3 7 -6 14 -11 27 -20 37
-40 41 -8 2 -12 1 -24 -3 -8 -3 -21 -7 -29 -9 -16 -5 -34 -12 -35 -14 0 -1 -5
-3 -10 -4 -6 -2 -13 -6 -17 -9 -6 -6 -8 -6 -16 -6 l-9 1 -2 -9 c-1 -6 -2 -12
-2 -15 -1 -4 -2 -6 -3 -6 -1 0 -1 -1 1 -2 2 -1 2 -2 -1 -5 -3 -3 -3 -3 -7 0
-2 2 -3 5 -3 6 3 4 -13 25 -19 26 0 0 -3 1 -5 2 -7 3 -25 2 -36 -3 -15 -6 -39
-9 -49 -6 -4 1 -9 2 -10 1 0 0 -8 -1 -17 -2 -9 -1 -25 -2 -36 -4 -20 -2 -20
-2 -31 2 -5 3 -11 5 -12 5 -1 0 -2 1 -3 3 -2 6 -21 12 -77 22 -62 12 -66 12
-80 4 -8 -5 -15 -17 -17 -28 -1 -4 -2 -26 -4 -48 -5 -64 -14 -133 -24 -174 -5
-22 -11 -48 -12 -51 -2 -8 -16 -50 -18 -55 -7 -18 -8 -19 -6 -45 1 -24 1 -25
-3 -30 -8 -9 -11 -15 -12 -23 -1 -12 3 -25 8 -25 2 0 4 -1 5 -2 1 -1 11 -6 21
-12 10 -5 29 -15 41 -21 12 -6 27 -14 32 -17 8 -4 14 -6 21 -6 22 0 32 10 54
54 l9 17 0 25 c-1 32 0 37 15 53 18 20 26 39 35 88 1 4 2 9 2 10 0 0 1 5 1 11
1 9 1 9 2 2 1 -6 1 -6 3 -3 1 4 1 4 4 -1 2 -4 3 -18 3 -64 0 -55 0 -60 3 -68
8 -16 12 -20 26 -20 13 0 13 0 22 16 3 6 8 11 11 13 4 3 5 3 11 0 3 -2 8 -6
10 -9 5 -8 17 -10 30 -7 5 2 12 14 15 30 2 5 7 16 12 24 12 19 17 32 15 42 -2
13 -10 24 -25 34 -17 12 -20 15 -20 28 0 12 2 15 20 29 11 9 14 13 17 20 4 13
5 20 2 26 -2 2 -2 6 -2 7 1 1 1 1 -1 0 -1 -1 -2 0 -2 0 0 1 -8 2 -17 3 -14 0
-17 0 -17 -3 0 -9 -21 -12 -29 -4 -6 6 -6 14 -2 31 6 20 15 31 26 33 4 0 10 2
14 4 l8 4 6 -8 c4 -4 7 -10 8 -13 1 -3 2 -6 3 -6 1 0 2 -2 3 -4 0 -3 2 -7 4
-9 2 -3 3 -3 6 0 2 2 4 2 11 0 5 -2 14 -4 20 -4 21 -2 29 -9 29 -28 0 -16 -4
-20 -22 -29 -27 -13 -35 -26 -32 -52 1 -7 2 -14 2 -15 0 -1 1 -7 2 -14 0 -7 1
-20 2 -29 2 -32 9 -43 27 -44 6 0 11 -1 12 -1 1 -1 4 0 8 2 7 4 6 4 41 2 26
-1 29 -1 38 3 21 9 32 28 29 53 -9 78 -11 100 -8 102 3 2 6 -5 12 -28 3 -13 7
-25 8 -28 6 -11 21 -19 33 -19 3 0 12 3 21 6 l17 6 5 -5 c5 -6 5 -5 -2 -45
-11 -65 -21 -77 -65 -79 -24 -1 -37 -6 -48 -16 -5 -5 -12 -10 -16 -12 -7 -4
-7 -4 -23 2 -27 8 -35 7 -42 -7 -6 -14 -5 -22 3 -39 6 -12 11 -18 22 -29 8 -7
16 -15 17 -18 4 -7 3 -22 -2 -38 -7 -23 -7 -53 1 -72 6 -13 9 -16 20 -22 8 -5
10 -5 60 -5 71 -1 122 3 159 12 7 2 14 4 16 4 16 4 51 21 68 33 18 14 40 37
49 51 2 3 5 7 7 9 3 4 13 25 17 39 2 6 3 17 3 27 -1 20 3 29 13 34 5 3 27 25
27 28 0 3 12 8 18 8 10 0 16 -7 16 -17 0 -6 -2 -9 -12 -20 -15 -14 -26 -30
-30 -39 -3 -8 -2 -23 3 -28 5 -6 26 -6 32 0 10 9 15 10 31 11 24 1 35 7 43 23
3 6 5 12 5 14 0 5 11 10 23 10 25 0 30 -14 20 -49 -3 -10 -6 -25 -7 -33 -2
-16 -5 -22 -12 -26 -5 -3 -19 -3 -27 -1 -19 4 -31 4 -39 -3 -3 -3 -4 -6 -4
-16 0 -11 0 -12 14 -30 23 -32 24 -33 38 -34 10 0 15 0 19 3 5 2 56 52 76 74
11 12 43 51 50 60 3 4 8 10 11 13 2 3 4 6 4 6 0 1 8 12 14 19 5 7 42 64 51 79
2 4 8 13 12 21 12 21 54 104 61 121 2 5 9 23 17 41 7 18 15 41 19 51 8 24 10
28 14 29 5 2 8 -3 20 -38 21 -62 37 -101 58 -145 10 -23 18 -32 33 -41 20 -13
28 -26 34 -58 2 -10 8 -23 11 -23 1 0 2 -1 2 -2 0 -1 1 -2 2 -1 1 1 2 0 2 -1
0 -2 16 -7 26 -6 6 0 9 -1 12 -4 5 -6 5 -11 -1 -24 -9 -17 -8 -37 0 -45 1 -1
4 -5 6 -8 19 -27 89 -101 99 -105 3 -1 10 -2 16 -2 9 1 11 2 18 9 5 4 17 21
27 36 15 24 39 57 43 61 1 1 6 7 12 15 6 8 14 18 19 23 4 5 14 16 22 25 8 9
24 26 37 39 23 23 23 23 24 33 1 26 -17 41 -54 44 -40 3 -43 3 -50 -3 -4 -3
-8 -6 -9 -7 -13 -14 -33 -10 -33 6 0 11 7 15 25 15 13 -1 15 0 18 3 2 2 3 3 3
3 0 -3 8 5 8 7 0 2 1 3 3 4 3 1 4 16 0 27 -1 6 -9 18 -18 30 -35 45 -59 85
-85 135 -56 114 -98 243 -132 409 -8 38 -20 104 -21 117 -1 6 -2 11 -3 12 -1
1 1 4 5 7 l7 6 122 0 c134 0 135 0 149 11 16 12 30 43 37 84 5 30 6 168 1 180
-4 9 -14 21 -18 21 -2 0 -3 1 -3 2 0 2 -1 2 -1 2 -1 -1 -4 -1 -8 0 -3 1 -76 2
-170 2 l-164 0 -5 5 c-4 4 -5 7 -5 10 3 13 -12 41 -22 41 -4 0 -10 1 -14 2 -1
1 -7 0 -14 -2 -20 -4 -29 -3 -36 4 -5 5 -6 7 -6 16 0 9 1 11 7 16 7 8 18 8 38
2 24 -7 39 -1 47 21 4 9 4 10 0 21 -2 6 -8 18 -14 26 -9 15 -12 24 -8 37 0 2
1 4 1 5 0 1 3 5 7 9 9 10 17 26 18 36 1 5 1 21 2 37 1 31 1 35 7 38 3 2 4 1 5
-1 1 -2 6 -16 13 -30 15 -36 28 -69 46 -120 14 -37 33 -101 39 -128 4 -21 30
-36 47 -28 4 1 35 14 69 27 139 54 133 52 142 61 14 14 16 26 8 52 -10 32 -18
43 -36 52 -4 2 -10 6 -13 10 -7 6 -7 6 0 33 6 21 5 26 -7 51 -5 11 -9 20 -9
20 0 1 -3 8 -6 15 -4 7 -8 16 -9 20 -7 13 -28 26 -52 31 -19 4 -24 11 -22 33
3 40 -8 44 -63 23 -18 -7 -23 -9 -39 -16 -4 -2 -8 -5 -10 -7 -5 -5 -25 -11
-42 -14 -12 -2 -31 -8 -49 -16 -3 -2 -6 -4 -6 -6 0 -1 -3 1 -6 5 l-6 8 0 54
c0 60 -1 67 -13 79 -9 9 -21 12 -55 12 -24 0 -30 -1 -37 -4 -8 -4 -17 -12 -18
-16 0 -2 -1 -6 -3 -9 -1 -3 -3 -10 -4 -15 -2 -12 -8 -16 -20 -16 -12 0 -18 4
-20 16 -1 5 -3 12 -4 15 -2 3 -3 7 -3 9 -1 4 -10 12 -18 16 -7 3 -13 4 -44 4
-20 0 -38 -1 -41 -2z m-512 -136 c9 -9 2 -24 -10 -24 -18 0 -19 27 0 28 4 0 8
-2 10 -4z m614 -40 c5 -5 5 -15 0 -20 -9 -9 -24 -2 -24 10 0 8 6 14 14 14 3 0
8 -2 10 -4z m-954 -8 c7 -9 3 -19 -9 -24 -12 -5 -23 3 -19 13 7 14 21 19 28
11z m-41 -32 c4 -4 4 -10 -2 -18 -11 -15 -8 -42 6 -64 13 -20 21 -24 51 -26
40 -3 54 -12 54 -36 0 -9 -1 -11 -6 -16 -5 -5 -7 -6 -18 -6 -6 0 -18 1 -27 3
-8 2 -21 3 -30 3 -14 -1 -14 -1 -20 5 -4 4 -6 7 -6 8 2 1 -7 19 -12 24 -3 3
-11 8 -17 11 -6 3 -17 9 -24 14 -13 8 -30 12 -44 8 -9 -2 -20 1 -24 6 -6 7 -5
25 1 31 8 8 22 7 36 -2 12 -7 34 -9 40 -3 4 5 7 19 7 35 0 12 1 15 5 18 8 9
23 11 30 5z m337 -10 c5 -5 5 -11 0 -16 -10 -10 -27 5 -16 16 4 4 12 4 16 0z
m178 -3 c3 -3 4 -7 4 -14 0 -13 -6 -19 -19 -19 -13 0 -19 6 -19 19 0 7 1 11 4
14 7 8 23 8 30 0z m861 -14 c12 -7 14 -33 3 -43 -8 -9 -32 -9 -40 0 -9 8 -9
32 0 41 7 7 27 8 37 2z m-411 -33 c1 0 5 -3 8 -6 5 -5 6 -7 6 -18 0 -20 -13
-33 -36 -35 -11 -1 -12 -1 -17 4 -4 4 -5 7 -5 15 0 23 16 42 34 41 4 -1 8 -1
10 -1z m140 -22 c5 -6 5 -7 0 -12 -5 -5 -8 -5 -13 1 -3 5 -3 5 0 10 5 6 8 6
13 1z m-1309 -65 c5 -8 1 -16 -8 -16 -9 0 -13 8 -8 16 2 3 5 5 8 5 3 0 6 -2 8
-5z m479 -55 c11 -6 32 -24 34 -30 2 -6 0 -24 -3 -29 -1 -4 -6 -9 -10 -13 -4
-3 -11 -11 -16 -18 -5 -6 -11 -14 -14 -16 -7 -5 -23 -6 -29 0 -5 3 -5 5 -5 30
0 21 -1 29 -4 37 -13 37 11 57 47 39z m1095 -5 c4 -4 5 -7 5 -15 0 -14 -6 -20
-20 -20 -14 0 -20 6 -20 20 0 14 6 20 20 20 8 0 11 -1 15 -5z m-1392 -99 c7
-6 7 -20 0 -26 -6 -6 -20 -5 -25 1 -5 6 -5 19 0 24 6 7 19 7 25 1z m1047 -40
c6 -6 14 -25 13 -29 -2 -3 -22 -10 -32 -10 -12 1 -20 9 -20 23 0 8 1 11 6 16
9 9 25 9 33 0z m-1084 -32 c16 -8 14 -41 -2 -48 -8 -3 -22 -3 -30 0 -6 3 -19
2 -28 -2 -3 -1 -10 -7 -15 -13 -12 -13 -22 -17 -36 -12 -12 4 -14 7 -14 24 0
14 0 16 6 20 6 5 6 5 28 4 17 -1 24 -1 29 2 7 2 22 17 22 21 0 1 2 3 5 4 10 6
26 6 35 0z m1147 -6 c10 -9 3 -26 -10 -26 -6 0 -13 5 -20 16 -3 6 -1 10 4 10
2 0 3 1 3 2 0 0 4 1 9 1 8 1 11 0 14 -3z m-881 -6 c3 -1 8 -4 12 -8 4 -3 10
-8 13 -10 18 -13 16 -38 -3 -38 -9 0 -16 6 -22 17 -3 6 -6 10 -6 11 -2 1 -8
18 -8 21 0 4 4 9 7 9 2 0 5 -1 7 -2z m-133 -19 c6 -6 6 -7 6 -22 0 -15 0 -16
-6 -22 l-6 -6 -27 0 -27 0 -6 6 c-6 6 -6 7 -6 22 0 15 0 16 6 22 l6 6 27 0 27
0 6 -6z m1283 -26 l-5 -5 -4 4 -5 5 4 4 5 5 4 -4 5 -5 -4 -4z m-509 -9 c11
-10 3 -28 -11 -28 -9 0 -16 6 -16 16 0 14 17 22 27 12z m311 -17 c4 -6 4 -9 3
-16 -1 -16 -14 -22 -26 -12 -7 7 -7 23 -1 30 7 8 18 7 24 -2z m185 -37 c7 -3
12 -13 12 -25 0 -19 -9 -28 -28 -28 -19 0 -28 9 -28 28 0 17 6 24 22 28 5 1
14 -1 22 -3z m-1523 -2 c5 -6 5 -12 0 -18 -7 -8 -22 -2 -22 9 0 11 15 17 22 9z
m21 -84 c10 -9 3 -26 -10 -26 -8 0 -15 7 -15 15 0 13 16 20 25 11z m291 -17
c16 -7 20 -37 7 -48 -12 -11 -34 -11 -43 0 -9 10 -9 32 0 42 7 8 24 11 36 6z
m925 -70 c3 -3 3 -3 0 -6 -3 -3 -3 -3 -6 0 -3 2 -3 3 -1 6 4 4 4 4 7 0z
m-1163 -10 c13 -6 36 -7 44 -3 8 4 20 3 36 -5 18 -8 28 -10 45 -7 11 1 18 1
30 -1 9 -2 16 -2 17 -2 1 1 2 0 2 0 0 -1 2 -5 6 -8 5 -6 5 -7 5 -23 0 -16 0
-17 -6 -23 l-6 -6 -27 0 c-27 0 -27 0 -32 6 -2 3 -6 5 -7 5 -2 0 -3 1 -2 2 2
3 -5 14 -8 14 -2 0 -3 1 -3 2 0 4 -15 7 -37 6 -5 0 -12 1 -15 3 -5 3 -11 4
-23 4 -15 0 -17 -1 -37 -11 -12 -6 -21 -10 -21 -10 -1 2 -7 -7 -7 -11 0 -6
-11 -12 -15 -9 -2 1 -3 4 -3 5 0 3 8 19 8 16 0 -1 2 0 4 2 2 2 4 7 5 16 2 20
4 33 7 36 8 9 23 10 40 2z m1174 -81 c5 -5 5 -15 0 -20 -9 -9 -24 -2 -24 10 0
8 6 14 14 14 3 0 8 -2 10 -4z m-556 -81 c21 -4 26 -7 26 -17 0 -13 -11 -17
-39 -12 -11 2 -14 1 -29 -3 -35 -11 -48 -8 -48 10 0 13 8 18 36 23 15 3 34 2
54 -1z m-274 -19 c5 -6 5 -12 0 -18 -7 -8 -22 -2 -22 9 0 11 15 17 22 9z m704
-56 c5 -5 6 -7 6 -17 0 -10 -1 -12 -6 -17 -5 -5 -7 -6 -17 -6 -10 0 -12 1 -17
6 -5 5 -6 7 -6 17 0 10 1 12 6 17 5 5 7 6 17 6 10 0 12 -1 17 -6z m157 -2 c11
-5 29 -17 34 -24 6 -7 7 -19 1 -25 -4 -4 -7 -5 -13 -5 -8 0 -10 1 -17 9 -13
13 -20 21 -20 23 0 1 -1 5 -3 9 -3 6 -3 7 0 12 5 6 6 6 18 1z m-76 -21 c3 -5
3 -5 0 -10 -2 -3 -5 -5 -7 -5 -2 0 -5 2 -7 5 -3 5 -3 5 0 10 2 3 5 5 7 5 2 0
5 -2 7 -5z m-28 -58 c16 -8 15 -42 -1 -49 -15 -6 -34 -2 -39 9 -4 8 -4 24 0
32 5 11 26 16 40 8z m-550 -97 c4 -6 4 -24 -1 -30 -7 -9 -27 -9 -34 0 -5 6 -5
24 0 30 7 9 27 9 35 0z m-650 -63 c12 -7 14 -33 3 -43 -8 -9 -32 -9 -40 0 -9
8 -9 32 0 41 7 7 27 8 37 2z m603 -21 c5 -5 6 -7 6 -17 0 -10 -1 -12 -6 -17
-5 -5 -7 -6 -17 -6 -14 0 -21 5 -23 17 -3 18 5 29 23 29 10 0 12 -1 17 -6z
m528 -15 c16 -7 20 -37 7 -48 -12 -11 -34 -11 -43 0 -9 10 -9 32 0 42 7 8 24
11 36 6z m-68 -95 c5 -6 5 -12 0 -18 -7 -8 -22 -2 -22 9 0 11 15 17 22 9z
m-1116 -74 c5 -5 5 -11 0 -16 -10 -10 -27 5 -16 16 4 4 12 4 16 0z m675 -16
c5 -5 6 -7 6 -16 0 -9 -1 -11 -7 -16 -5 -6 -7 -7 -16 -7 -9 0 -11 1 -16 7 -9
8 -9 23 -1 32 9 9 24 9 34 0z m900 -7 c4 -4 5 -7 5 -15 0 -14 -6 -20 -20 -20
-14 0 -20 6 -20 20 0 14 6 20 20 20 8 0 11 -1 15 -5z m-530 -27 c7 -6 7 -19 1
-25 -6 -7 -19 -7 -25 -1 -7 6 -7 19 -1 25 6 7 19 7 25 1z m-1024 -75 c4 -4 5
-7 5 -15 0 -14 -6 -20 -20 -20 -14 0 -20 6 -20 20 0 14 6 20 20 20 8 0 11 -1
15 -5z m731 -29 c3 -1 6 -5 7 -9 3 -6 3 -8 0 -14 -8 -19 -35 -13 -35 7 0 15
15 23 28 16z"/>
</g>
</svg>
