<?xml version="1.0" standalone="no"?>
<!DOCTYPE svg PUBLIC "-//W3C//DTD SVG 20010904//EN"
 "http://www.w3.org/TR/2001/REC-SVG-20010904/DTD/svg10.dtd">
<svg version="1.0" xmlns="http://www.w3.org/2000/svg"
 width="1000.000000pt" height="2850.000000pt" viewBox="0 0 1000.000000 2850.000000"
 preserveAspectRatio="xMidYMid meet">
<metadata>
Created by potrace 1.15, written by Peter Selinger 2001-2017
</metadata>
<g transform="translate(0.000000,2850.000000) scale(0.500000,-0.500000)"
fill="#000000" stroke="none">
<path d="M984 3812 c-3 -1 -6 -1 -7 0 0 0 -1 0 -1 -2 0 -1 -1 -2 -3 -2 -4 0
-14 -12 -18 -21 -3 -7 -3 -14 -3 -33 l1 -25 -6 -6 c-6 -6 -7 -6 -23 -5 -30 1
-39 -4 -44 -21 -1 -6 -3 -12 -4 -14 -1 -3 -1 -5 0 -5 1 0 2 -2 2 -4 0 -6 5
-23 7 -24 1 -1 1 -2 0 -2 -1 0 2 -2 6 -5 l8 -6 34 1 c24 0 37 1 47 4 13 3 16
3 25 1 13 -3 17 -20 8 -29 -4 -4 -7 -5 -16 -5 -6 0 -12 2 -15 3 -6 3 -24 4
-41 2 -19 -3 -37 -11 -52 -24 -15 -14 -16 -14 -56 -11 -12 1 -19 1 -27 -2 -15
-4 -26 -6 -32 -5 -37 2 -44 0 -54 -14 -15 -21 -11 -48 10 -66 6 -5 15 -13 21
-18 8 -8 10 -9 21 -10 16 -1 21 2 26 19 5 15 8 19 15 19 7 0 11 -4 14 -16 5
-16 12 -26 20 -31 7 -4 12 -4 51 -4 l43 0 6 -6 6 -6 -1 -30 c0 -24 0 -31 3
-38 4 -9 14 -21 18 -21 2 0 3 -1 3 -2 0 -2 0 -2 47 -4 39 -1 55 -4 55 -8 0 -1
2 -2 6 -3 5 0 5 0 0 -1 -9 0 -18 -25 -14 -42 2 -9 0 -23 -6 -29 -6 -7 -24 -11
-34 -6 -6 2 -14 9 -14 12 0 1 -2 7 -5 15 -6 14 -13 21 -27 26 -8 3 -10 3 -32
-1 -23 -5 -99 -19 -112 -20 -4 -1 -16 -2 -26 -4 -25 -4 -28 -4 -74 -10 -46 -5
-54 -8 -61 -22 -6 -12 -5 -21 5 -44 9 -20 18 -45 23 -61 7 -23 17 -57 17 -60
0 -6 8 -21 16 -28 15 -13 24 -14 95 -7 6 1 22 2 37 4 l28 2 9 -5 c6 -3 10 -6
9 -6 -1 -1 5 -10 13 -22 10 -12 10 -24 1 -36 -11 -15 -16 -22 -16 -24 0 0 -4
-4 -8 -7 l-9 -5 -89 0 c-49 -1 -92 -1 -95 -1 -10 -1 -28 -10 -34 -18 -9 -11
-9 -18 -8 -80 0 -61 1 -63 5 -68 3 -3 3 -4 0 -2 -2 1 -2 0 0 -2 2 -1 3 -3 2
-4 0 -1 0 -1 2 -1 2 0 9 0 15 0 11 0 13 0 14 -4 0 -3 1 -1 1 3 0 5 1 9 2 10 1
1 2 10 2 24 0 23 1 30 7 35 12 10 34 9 43 -1 10 -11 9 -30 -3 -48 -7 -10 -15
-36 -15 -47 0 -10 -8 -16 -21 -16 -7 0 -12 1 -14 3 -1 2 -3 2 -3 2 -1 0 -5 -1
-9 -1 -15 -1 -20 -3 -20 -10 0 -3 1 -7 2 -8 1 -2 2 -4 2 -5 1 -3 9 -14 9 -12
0 0 4 -1 9 -4 7 -4 9 -4 11 -2 2 1 2 1 1 -1 -1 -1 1 -1 4 1 3 2 5 3 4 2 -1 -2
0 -3 4 -3 4 0 5 1 4 3 -1 1 1 0 4 -2 3 -2 5 -2 4 -1 -1 2 -1 2 1 1 4 -3 1 -2
58 -3 l51 0 8 -6 c4 -3 6 -6 5 -6 -3 -1 -14 -28 -14 -35 0 -10 7 -22 18 -28
14 -8 17 -13 14 -22 -5 -15 -23 -29 -36 -29 -7 0 -24 -4 -34 -9 -13 -5 -17
-19 -10 -38 7 -20 8 -26 6 -35 -2 -12 -9 -17 -22 -19 -39 -5 -54 -18 -59 -50
-1 -4 -2 -10 -2 -11 -1 -2 1 -15 4 -28 7 -33 7 -41 -1 -48 -5 -5 -7 -6 -16 -6
-6 0 -13 1 -16 3 -4 2 -12 4 -19 5 -13 1 -14 1 -19 9 -6 8 -8 14 -15 52 -11
57 -13 61 -28 77 -7 6 -7 6 -20 6 -11 -1 -14 -3 -25 -11 -11 -8 -14 -9 -22 -9
-14 0 -20 6 -20 20 0 8 1 11 5 15 3 3 6 5 7 5 26 1 35 4 45 11 14 9 16 13 13
28 -4 21 -16 24 -56 11 -14 -5 -26 -10 -26 -11 0 -1 -3 1 -6 5 l-6 6 0 72 c0
50 -1 75 -2 80 -4 12 -13 21 -35 32 -54 28 -57 30 -57 39 0 6 6 13 12 13 3 0
19 -5 29 -10 11 -5 17 -6 34 -6 10 0 20 1 23 1 3 1 6 2 8 2 2 0 4 1 6 2 2 1 2
1 1 -1 -2 -3 -1 -3 2 0 1 1 3 2 3 1 0 -1 1 -1 2 1 1 2 2 10 2 18 0 13 1 16 4
17 1 0 0 1 -4 1 -11 0 -16 7 -16 19 0 13 6 19 19 19 6 0 11 -1 13 -3 6 -5 17
-29 15 -33 0 -2 1 -4 4 -5 2 -1 4 -2 5 -2 1 0 3 -1 6 -2 2 -1 4 -2 4 -3 0 -3
20 -8 26 -7 3 1 7 2 9 2 7 2 13 7 17 16 4 7 4 14 4 102 0 82 0 96 -3 102 -4 9
-14 21 -18 21 -2 0 -3 1 -3 2 0 2 -10 3 -55 3 l-44 0 -6 6 -6 6 1 36 c0 44 -1
48 -21 68 -12 12 -13 14 -13 21 0 7 1 9 13 21 16 16 22 28 20 43 -1 18 -7 27
-27 40 -18 12 -20 15 -17 29 1 8 13 17 25 19 5 1 11 2 14 3 3 1 36 2 73 3 73
2 73 2 73 4 0 1 1 2 3 2 4 0 14 12 18 21 5 11 5 217 0 228 -5 13 -13 19 -26
22 -13 3 -62 5 -104 5 -49 -1 -53 -2 -68 -17 -18 -17 -28 -17 -46 0 -4 4 -10
9 -15 11 -9 5 -9 5 -95 6 -89 0 -96 0 -105 -8 -4 -4 -5 -6 -5 -17 0 -6 -1 -13
-2 -13 -1 -1 0 -2 2 -2 2 0 7 -2 11 -4 4 -2 8 -3 8 -3 0 1 1 1 2 -1 2 -1 6 -2
9 -2 4 0 7 -2 10 -5 3 -5 3 -5 0 -10 -4 -5 -6 -5 -20 -2 -11 3 -31 3 -39 1
-12 -4 -20 -3 -33 5 -13 8 -28 15 -32 15 -18 0 -51 -33 -59 -58 -6 -15 -6
-139 -1 -151 4 -9 14 -21 18 -21 2 0 3 -1 3 -2 0 -2 11 -3 77 -3 l66 0 6 -6 6
-6 -1 -108 c0 -106 0 -109 4 -119 2 -6 5 -11 6 -12 0 -1 2 -2 3 -4 1 -2 5 -7
8 -11 7 -9 10 -20 7 -31 -2 -11 -7 -16 -18 -18 -11 -3 -15 -1 -38 10 l-19 9
-32 0 c-33 0 -43 -1 -43 -3 0 -1 -1 -2 -3 -2 -4 0 -14 -12 -18 -21 -2 -6 -3
-17 -3 -69 0 -65 1 -71 10 -81 3 -3 25 -15 29 -15 3 0 9 -8 9 -12 0 -4 -6 -12
-9 -12 -4 0 -26 -12 -29 -15 -4 -5 -2 -26 4 -31 3 -2 6 -4 8 -4 1 0 2 -1 2 -2
0 -2 10 -3 61 -3 l50 0 6 -6 6 -6 0 -66 c0 -61 0 -67 4 -74 5 -9 16 -18 31
-23 16 -6 20 -11 20 -25 0 -12 -2 -15 -18 -27 -7 -5 -7 -6 -7 -21 0 -13 1 -17
4 -21 3 -4 5 -10 6 -14 2 -13 7 -22 12 -24 11 -4 35 -2 39 4 1 1 5 4 10 7 12
8 19 14 28 27 12 15 25 19 43 11 10 -4 14 -11 14 -25 0 -18 -6 -25 -24 -27
-13 -1 -30 -7 -43 -14 -6 -3 -14 -6 -19 -7 -4 -1 -10 -2 -12 -3 -5 -1 -24 -9
-25 -11 -6 -8 -23 -12 -33 -8 -4 1 -23 -2 -30 -6 -3 -1 -6 -4 -8 -7 -10 -12
-24 -14 -35 -6 -28 20 -39 24 -56 17 -6 -2 -14 -7 -18 -10 -7 -8 -14 -28 -14
-42 0 -14 -9 -23 -24 -23 -2 0 -3 -4 -3 -20 l0 -20 8 -1 c11 -3 15 -7 15 -17
0 -9 -4 -14 -20 -25 -20 -14 -21 -23 -10 -73 12 -53 16 -61 39 -66 9 -2 11 -2
32 6 12 4 26 9 31 10 10 3 78 26 115 39 12 5 25 9 28 10 31 9 54 19 59 24 5 6
9 7 24 9 17 1 20 2 126 40 53 19 62 22 69 22 7 0 8 0 7 -5 0 -3 -3 -8 -7 -12
-5 -5 -7 -9 -9 -17 -3 -14 -1 -23 10 -44 10 -19 10 -20 36 -47 22 -24 46 -51
57 -65 4 -5 8 -10 9 -11 1 -1 7 -9 14 -18 7 -10 15 -19 18 -20 2 -1 10 -2 17
-2 14 0 17 2 29 18 4 5 7 9 8 10 2 2 29 39 33 45 2 3 4 6 5 7 1 1 28 43 44 70
17 26 37 64 39 69 0 3 1 3 1 0 0 -2 1 -3 2 -2 1 1 2 0 2 -2 0 -3 1 -3 6 -3 4
1 7 0 7 -1 1 -3 2 -3 3 -1 1 2 2 2 2 1 0 -2 4 -2 13 -2 l13 1 0 -7 0 -7 -13 1
c-9 0 -13 0 -13 -2 0 -1 -1 -1 -2 1 -1 2 -4 -2 -7 -14 -1 -3 -2 -70 -2 -150
-1 -129 -1 -146 2 -153 4 -9 14 -21 18 -21 2 0 3 -1 3 -2 0 -2 0 -2 25 -3 21
-2 33 1 40 9 5 5 13 28 13 35 0 12 11 19 30 19 10 0 23 -5 27 -10 2 -2 3 -7 4
-11 0 -4 2 -12 4 -16 7 -21 16 -26 43 -26 21 0 30 1 30 3 0 1 1 2 3 2 4 0 14
12 18 21 3 7 3 15 3 48 -1 39 -1 40 -6 51 -3 7 -8 14 -10 16 -4 4 -10 17 -10
22 0 5 6 18 10 22 2 2 7 9 10 16 l5 11 0 88 1 87 -5 7 c-2 4 -6 8 -8 9 -6 3
-27 8 -27 6 0 -1 -6 -2 -13 -2 -11 0 -14 1 -18 5 -6 4 -6 6 -6 20 0 14 0 16 6
20 4 4 7 5 18 5 7 0 13 -1 13 -2 2 -3 26 4 30 9 11 12 16 17 18 17 1 0 2 2 3
4 0 2 1 2 1 -1 0 -3 1 -5 2 -6 1 0 7 -10 13 -20 6 -11 12 -21 13 -23 1 -2 5
-9 9 -16 9 -14 18 -20 32 -20 10 0 18 6 28 20 3 5 13 13 25 21 19 12 22 16 47
47 15 18 28 35 30 37 2 1 3 4 3 5 0 2 1 2 2 0 1 -2 2 -2 2 -1 0 1 2 0 4 -3 2
-4 3 -11 4 -43 1 -24 2 -40 4 -44 3 -7 14 -19 17 -19 2 0 3 -1 3 -2 0 -3 12
-3 98 -3 86 0 98 0 98 3 0 1 1 2 3 2 4 0 14 12 18 21 3 8 3 137 1 620 0 8 1
74 1 148 1 120 1 134 -2 142 -4 9 -14 21 -18 21 -2 0 -3 1 -3 2 0 3 -12 3 -98
3 -86 0 -98 0 -98 -3 0 -1 -1 -2 -3 -2 -4 0 -14 -12 -18 -20 -4 -11 -5 -51 -4
-112 l2 -53 6 -10 c5 -8 9 -11 23 -19 10 -5 20 -12 24 -16 4 -4 9 -9 12 -11 6
-3 27 -11 33 -11 5 0 11 -7 11 -14 0 -6 -4 -13 -9 -19 -8 -9 -13 -15 -16 -21
-2 -3 -5 -6 -6 -6 -1 0 -4 -1 -5 -3 -1 -2 -4 -3 -5 -3 -4 0 -13 10 -13 13 0 8
-15 28 -19 26 -1 -1 -5 -2 -9 -2 -12 -2 -15 -4 -21 -14 -5 -8 -6 -12 -6 -22 0
-18 7 -28 26 -41 11 -7 15 -12 15 -19 0 -8 -1 -10 -24 -57 -16 -33 -17 -36
-17 -48 0 -13 5 -27 13 -35 1 -2 5 -8 7 -12 4 -9 4 -9 0 -17 -2 -5 -6 -11 -7
-13 -2 -2 -6 -8 -9 -13 -4 -9 -4 -10 -4 -79 l0 -70 6 -11 c3 -8 8 -14 15 -19
13 -10 16 -16 16 -29 0 -13 -3 -19 -17 -29 -14 -11 -18 -11 -22 -1 -11 24 -20
42 -26 50 -6 9 -78 82 -137 138 -41 39 -38 36 -45 42 -3 2 -5 4 -3 4 1 0 2 1
2 2 0 0 0 3 0 6 0 4 0 4 2 2 1 -2 2 -2 2 -1 0 1 18 2 51 2 l50 0 9 5 c6 4 12
11 17 17 10 14 14 18 22 20 11 2 27 12 33 20 l5 8 0 77 c1 66 0 79 -2 86 -4 8
-14 20 -18 20 -2 0 -3 1 -3 2 0 2 -1 2 -91 4 -78 1 -92 2 -95 6 -1 1 -17 4
-27 4 -2 0 -3 1 -2 1 0 1 -1 3 -3 5 -11 13 -12 15 -9 31 3 17 5 21 17 29 14 9
19 16 19 28 0 9 -1 12 -5 16 -6 6 -24 16 -30 17 -7 1 -11 9 -11 21 -1 17 1 21
15 29 17 9 24 15 25 22 1 3 2 9 2 13 1 4 2 11 2 16 2 16 9 23 27 23 19 0 27
-8 27 -27 0 -15 -4 -21 -16 -26 -5 -2 -12 -6 -15 -8 -6 -4 -6 -5 -6 -20 l1
-16 12 -3 c13 -3 13 -3 40 4 40 10 98 27 115 34 28 12 32 17 32 35 0 13 0 13
-30 46 -8 9 -23 26 -32 36 -9 10 -17 19 -18 20 -1 1 -8 9 -17 19 -18 21 -31
34 -42 47 -15 15 -18 23 -19 56 l-1 29 6 6 6 6 83 0 83 0 6 -6 6 -6 -1 -29 c0
-34 2 -46 13 -56 12 -11 17 -12 90 -12 65 0 66 0 86 5 20 5 21 5 36 3 18 -3
27 -8 27 -14 0 -2 1 -4 3 -4 1 0 1 -1 0 -2 -7 -4 -7 -11 -7 -167 0 -145 0
-155 4 -166 4 -12 12 -25 16 -25 1 0 2 -1 2 -2 0 -2 0 -2 1 -2 1 1 4 1 8 0 4
-1 9 -1 10 0 1 0 2 1 3 1 1 0 6 3 13 6 14 6 15 6 20 0 3 -5 3 -5 0 -10 -3 -2
-7 -4 -11 -5 -15 -1 -16 -2 -31 -17 -19 -19 -27 -40 -20 -52 2 -3 4 -6 6 -7 1
0 6 -1 10 -2 5 -1 10 0 13 1 7 4 18 2 25 -5 5 -5 6 -7 6 -16 0 -9 -1 -11 -6
-16 -6 -6 -21 -10 -27 -6 -3 2 -17 -5 -21 -11 -2 -3 -4 -11 -4 -21 0 -15 -1
-19 -8 -34 l-8 -17 -1 -185 c0 -125 0 -187 2 -192 1 -4 4 -10 7 -13 6 -6 26
-14 33 -13 4 0 8 -2 10 -4 9 -9 2 -24 -10 -24 -7 1 -26 -7 -32 -12 -9 -9 -10
-13 -10 -84 0 -37 -1 -69 -2 -71 0 -2 -3 -7 -6 -10 l-4 -6 -73 1 c-78 0 -81 0
-91 -11 -8 -10 -10 -23 -3 -37 5 -9 15 -20 19 -19 0 1 2 0 3 -1 2 -2 21 -5 31
-6 9 0 16 -7 16 -16 1 -9 -3 -34 -7 -47 -3 -9 -3 -12 -1 -22 1 -6 3 -11 4 -11
2 0 2 -1 1 -1 -2 -3 8 -11 16 -13 14 -4 17 -8 17 -27 -1 -19 3 -30 14 -36 7
-4 17 -5 51 -2 68 4 112 14 152 33 32 15 40 22 47 41 6 13 19 31 23 31 1 0 5
3 10 7 11 9 18 23 23 45 9 41 10 54 10 274 0 225 1 217 -12 226 -6 5 -25 11
-33 10 -11 -1 -21 15 -24 37 -2 17 1 20 23 23 25 3 32 7 41 25 9 19 1 36 -22
49 -7 5 -15 9 -17 10 -11 5 -11 37 0 42 22 11 32 19 37 28 l6 9 0 223 c1 129
0 222 -1 222 -1 0 -2 2 -3 5 -1 3 -2 5 -3 5 0 -1 -3 0 -6 1 -3 2 -9 2 -15 2
-6 0 -9 1 -10 3 0 2 -1 1 -1 -1 0 -3 -2 -5 -8 -7 -15 -6 -33 -2 -42 11 -2 3
-12 14 -21 24 -10 10 -17 19 -17 22 0 2 -1 5 -1 7 0 2 0 5 1 7 2 5 -1 21 -5
29 -7 12 -16 14 -53 14 -34 0 -44 1 -44 7 0 2 -1 3 -2 3 -2 0 -2 1 -1 2 6 3 7
14 7 44 l-1 31 6 6 6 6 25 -1 c23 0 25 0 36 5 7 3 15 9 20 14 10 12 16 15 26
15 10 0 16 -3 26 -15 5 -5 13 -11 20 -14 12 -5 13 -5 39 -4 30 1 31 1 31 3 0
1 1 2 3 2 4 0 14 12 18 21 4 9 4 60 1 74 -2 5 -7 14 -15 25 -16 20 -16 22 -2
40 11 14 11 14 11 25 -1 10 -2 13 -6 16 -3 3 -7 5 -8 5 -1 0 -2 1 -2 2 0 1 -4
3 -8 5 -12 5 -18 10 -22 19 -4 9 -16 21 -22 23 -2 1 -4 2 -4 3 0 3 -12 3 -89
3 l-78 0 -6 6 -6 6 1 20 c0 12 -1 20 -2 22 -1 1 -2 4 -2 6 0 9 -22 21 -42 22
-6 0 -20 1 -31 2 -31 2 -45 -4 -55 -24 -11 -24 -25 -24 -36 0 -10 20 -24 26
-55 24 -24 -1 -25 -1 -25 -3 0 -1 -1 -2 -3 -2 -3 0 -14 -12 -17 -19 -2 -3 -3
-17 -4 -30 -2 -33 -8 -61 -12 -58 -2 1 -7 -3 -9 -7 -2 -7 -11 -11 -23 -11 -13
0 -18 3 -25 13 -3 4 -7 10 -10 15 -3 4 -8 9 -12 10 -4 2 -7 4 -7 5 0 2 -11 3
-45 3 l-34 0 -6 6 -6 6 1 25 c0 19 0 26 -3 33 -4 9 -14 21 -18 21 -2 0 -3 1
-3 2 0 1 -1 2 -2 2 -7 1 -210 2 -214 0z m99 -50 c11 -10 3 -28 -11 -28 -9 0
-16 6 -16 16 0 14 17 22 27 12z m387 -79 c6 -7 6 -22 -1 -28 -6 -7 -21 -7 -28
-1 -5 5 -5 6 -4 17 1 13 3 17 12 17 10 1 16 0 21 -5z m347 -60 c4 -4 5 -7 5
-13 0 -11 -7 -18 -18 -18 -11 0 -18 7 -18 18 0 11 7 18 18 18 6 0 9 -1 13 -5z
m-1298 -95 c11 -10 3 -28 -11 -28 -9 0 -16 6 -16 16 0 14 17 22 27 12z m1185
-11 l-5 -5 -4 4 -5 5 4 4 5 5 4 -4 5 -5 -4 -4z m-83 -43 c11 -10 3 -28 -11
-28 -9 0 -16 6 -16 16 0 14 17 22 27 12z m-109 -42 c5 -6 5 -12 0 -18 -7 -8
-22 -2 -22 9 0 11 15 17 22 9z m-1102 -96 c7 -6 1 -19 -8 -19 -6 0 -12 6 -12
11 0 9 13 15 20 8z m1431 -147 c19 -8 13 -35 -7 -35 -20 0 -26 27 -7 35 8 4 6
3 14 0z m-820 -21 c4 -6 4 -24 -1 -30 -7 -9 -27 -9 -34 0 -5 6 -5 24 0 30 7 9
27 9 35 0z m535 -40 c5 -5 5 -15 0 -20 -9 -9 -24 -2 -24 10 0 8 6 14 14 14 3
0 8 -2 10 -4z m-1221 -100 c7 -6 7 -19 1 -25 -6 -7 -19 -7 -25 -1 -7 6 -7 19
-1 25 6 7 19 7 25 1z m216 -44 c10 -9 3 -26 -10 -26 -8 0 -15 7 -15 15 0 13
16 20 25 11z m574 -22 c0 -2 1 -4 1 -5 0 -1 1 -3 2 -4 1 -1 2 -5 3 -9 2 -12 3
-14 6 -14 1 0 6 -4 11 -9 4 -5 13 -11 20 -15 13 -6 41 -14 49 -14 2 0 6 -2 8
-5 3 -5 3 -5 0 -10 -3 -3 -9 -6 -18 -9 -7 -3 -20 -8 -28 -12 -24 -12 -42 -9
-51 9 -3 4 -5 8 -6 9 -1 1 -3 3 -5 7 -3 5 -15 14 -25 18 -16 7 -24 23 -20 40
3 11 8 16 24 21 15 4 27 5 29 2z m-905 -41 c14 -6 30 -38 30 -58 0 -10 -1 -12
-6 -17 -3 -3 -7 -6 -9 -6 -20 -1 -28 2 -41 19 -12 13 -15 19 -18 29 -2 9 0 22
6 29 8 9 25 11 38 4z m767 -129 c5 -5 6 -7 6 -16 0 -9 -1 -11 -7 -16 -5 -6 -7
-7 -16 -7 -9 0 -11 1 -16 7 -9 8 -9 23 -1 32 9 9 24 9 34 0z m183 -47 c3 -3 4
-6 4 -10 -1 -3 -1 -6 0 -6 1 -1 2 -2 1 -3 0 -1 -1 -5 -1 -9 -1 -8 -1 -8 -7 -8
-4 0 -8 2 -10 3 -1 2 -4 4 -4 4 -4 2 -9 14 -9 19 0 13 17 20 26 10z m-443 -39
c0 -5 0 -1 0 8 0 9 0 13 0 9 1 -5 1 -13 0 -17z m-360 1 c3 -3 3 -3 0 -6 -3 -3
-3 -3 -6 0 -3 2 -3 3 -1 6 4 4 4 4 7 0z m654 -47 c11 -10 3 -28 -11 -28 -9 0
-16 6 -16 16 0 14 17 22 27 12z m155 -35 c3 -3 4 -7 4 -14 0 -13 -6 -19 -19
-19 -13 0 -19 6 -19 19 0 7 1 11 4 14 7 8 23 8 30 0z m383 -48 c3 -5 3 -5 -1
-11 -5 -6 -10 -9 -10 -6 0 1 -1 2 -2 1 -1 -1 -2 0 -2 1 0 1 -1 3 -3 5 -2 2 -2
3 3 9 6 7 10 7 15 1z m227 -17 c5 -5 5 -11 0 -16 -10 -10 -27 5 -16 16 4 4 12
4 16 0z m-263 -22 c2 -2 2 -5 2 -8 -2 -7 -2 -10 0 -18 0 -4 1 -13 2 -20 3 -25
11 -40 26 -52 17 -13 18 -18 12 -57 -2 -12 -3 -22 -3 -23 0 -1 -2 -4 -4 -6 -8
-8 -23 -3 -25 8 0 3 -3 14 -5 25 -2 11 -5 22 -5 25 -3 18 -8 31 -17 40 -14 14
-16 19 -19 61 -2 22 0 26 17 30 11 3 14 2 19 -5z m-602 -31 c4 -3 11 -7 14 -9
8 -3 27 -8 29 -7 1 1 2 0 2 -1 0 -2 1 -2 2 -1 2 2 3 2 5 0 3 -3 3 -3 0 -6 -2
-2 -3 -2 -5 0 -1 1 -2 1 -2 0 0 -2 -3 -3 -6 -2 -11 0 -24 -3 -31 -7 -7 -4 -27
-17 -31 -20 -2 -2 -6 -1 -6 3 0 1 -3 6 -7 11 -6 7 -7 10 -7 20 0 7 1 13 3 16
8 10 26 12 40 3z m930 -20 c4 -4 5 -7 5 -15 0 -14 -6 -20 -20 -20 -14 0 -20 6
-20 20 0 14 6 20 20 20 8 0 11 -1 15 -5z m-750 -14 c11 -4 17 -9 18 -17 1 -3
-8 -12 -12 -12 -1 0 -7 -3 -13 -6 -14 -7 -19 -16 -21 -36 -2 -19 -6 -24 -20
-24 -13 0 -19 6 -19 19 0 8 1 11 9 20 11 15 14 21 17 37 4 17 8 22 20 22 5 0
14 -1 21 -3z m132 -3 c7 -6 7 -19 1 -25 -6 -7 -19 -7 -25 -1 -7 6 -7 19 -1 25
6 7 19 7 25 1z m-340 -50 c3 -3 2 -4 -2 -8 l-4 -4 -4 4 -5 5 6 8 c5 8 5 8 6 3
0 -3 2 -6 3 -8z m9 -78 c6 -7 6 -15 1 -25 -3 -5 -5 -9 -5 -7 0 1 -3 3 -6 5 -7
4 -15 3 -37 -3 -23 -7 -29 -7 -34 -2 -7 6 -7 18 0 23 3 4 8 5 24 6 11 0 25 2
30 4 15 4 22 4 27 -1z m-601 -41 c6 -2 17 -20 17 -27 0 -4 -16 -12 -23 -12
-12 -1 -21 4 -24 11 -10 23 6 38 30 28z m72 -35 c6 -6 6 -17 1 -24 -7 -8 -23
-2 -29 13 l-3 7 7 4 c10 5 19 5 24 0z m644 -6 c8 -11 -1 -18 -40 -31 -16 -6
-20 -6 -24 -2 -4 3 -4 16 0 20 1 1 11 5 22 8 11 3 22 6 25 7 9 3 14 2 17 -2z
m-286 -60 c10 -9 3 -26 -10 -26 -8 0 -15 7 -15 15 0 13 16 20 25 11z m1064
-34 c17 -19 10 -40 -9 -29 -11 6 -16 11 -16 18 0 13 17 20 25 11z m-710 -7 c5
-8 1 -16 -8 -16 -9 0 -13 8 -8 16 2 3 5 5 8 5 3 0 6 -2 8 -5z m750 -35 c1 -1
3 -2 5 -2 7 0 12 -9 12 -19 0 -13 -6 -19 -19 -19 -12 0 -16 3 -21 18 -5 15 -3
25 5 26 6 1 14 -1 18 -4z m-734 -57 c6 -4 6 -22 0 -26 -11 -8 -27 0 -27 13 0
13 16 21 27 13z"/>
<path d="M742 3716 c-3 -1 -6 -1 -7 0 0 0 -1 0 -1 -2 0 -1 -1 -2 -3 -2 -4 0
-14 -12 -18 -21 -4 -9 -4 -38 -1 -50 3 -11 12 -24 17 -27 17 -7 32 -5 53 9 9
6 17 11 17 11 1 0 7 4 14 8 13 8 27 22 27 27 0 2 1 3 2 3 1 0 2 1 2 3 0 2 1 3
2 3 4 0 -2 24 -8 31 -7 8 -14 9 -53 9 -21 0 -40 -1 -43 -2z"/>
<path d="M1843 3348 c-5 -2 -9 -6 -10 -8 -1 -2 -2 -4 -3 -4 0 0 -1 -5 -1 -12
0 -7 1 -12 2 -12 0 0 4 -2 7 -5 3 -3 6 -5 7 -5 2 0 3 -1 3 -2 0 -1 1 -2 2 -2
5 0 20 -11 20 -15 0 -3 1 -3 1 -1 1 2 4 3 10 3 6 0 12 0 15 2 3 1 6 2 6 1 1 0
2 2 3 5 1 3 2 5 3 5 3 0 2 17 -1 26 -3 9 -14 22 -18 22 -2 0 -3 1 -3 2 0 2 0
2 -20 3 -13 1 -16 1 -23 -3z"/>
</g>
</svg>
