<?xml version="1.0" standalone="no"?>
<!DOCTYPE svg PUBLIC "-//W3C//DTD SVG 20010904//EN"
 "http://www.w3.org/TR/2001/REC-SVG-20010904/DTD/svg10.dtd">
<svg version="1.0" xmlns="http://www.w3.org/2000/svg"
 width="1000.000000pt" height="2850.000000pt" viewBox="0 0 1000.000000 2850.000000"
 preserveAspectRatio="xMidYMid meet">
<metadata>
Created by potrace 1.15, written by Peter Selinger 2001-2017
</metadata>
<g transform="translate(0.000000,2850.000000) scale(0.500000,-0.500000)"
fill="#000000" stroke="none">
<path d="M675 3811 c-11 -3 -28 -12 -31 -18 -3 -3 -2 -17 0 -26 1 -4 6 -10 11
-16 11 -10 14 -20 11 -33 -2 -11 -7 -16 -18 -18 -13 -3 -23 0 -34 12 -5 5 -13
12 -18 14 -10 6 -29 7 -33 2 -2 -3 -12 -4 -12 -2 0 1 -2 3 -3 6 -2 3 -3 5 -3
6 0 1 -2 3 -4 6 -3 5 -4 13 -3 28 1 11 -4 24 -11 31 -6 6 -8 7 -16 7 -5 0 -9
-1 -9 -2 0 -1 -1 -2 -3 -2 -4 0 -14 -12 -18 -21 -2 -7 -3 -15 -3 -42 l1 -34
-6 -6 -6 -6 -83 1 c-106 0 -105 1 -104 -24 l0 -14 -6 -1 c-7 0 -6 0 1 -1 13 0
16 -5 16 -23 0 -14 0 -16 -6 -20 -4 -4 -7 -5 -18 -5 -11 0 -14 1 -18 5 -6 4
-6 6 -6 20 0 18 3 23 16 23 7 1 8 1 1 1 l-6 1 0 14 c1 16 -1 19 -13 22 -8 2
-45 2 -53 0 -7 -2 -10 -9 -10 -24 -1 -8 -1 -14 0 -14 1 0 3 -4 5 -9 3 -8 3 -9
-1 -17 -2 -6 -5 -10 -6 -10 0 -1 -3 -4 -6 -8 -9 -13 -10 -21 -10 -75 0 -48 0
-50 5 -60 5 -11 10 -16 21 -22 6 -4 11 -4 51 -5 48 0 52 0 77 12 15 7 21 7 41
5 13 -2 28 4 32 13 1 3 3 6 4 6 1 1 1 3 -1 5 -1 2 -2 3 0 4 1 1 1 2 1 3 -1 2
-2 5 -2 7 0 3 -4 8 -8 13 -17 16 -21 28 -13 36 8 8 24 3 24 -7 0 -15 4 -32 8
-34 3 -3 10 -16 11 -22 0 -1 1 -5 3 -8 1 -3 3 -8 3 -10 1 -5 7 -13 14 -18 4
-3 8 -4 21 -4 14 0 15 0 21 -6 9 -9 9 -23 0 -32 l-6 -6 -38 1 c-35 0 -38 0
-46 -4 -9 -5 -16 -14 -18 -26 -1 -3 -2 -6 -3 -7 -1 -1 -1 -3 -1 -4 3 -2 -5
-11 -10 -11 -5 0 -13 9 -10 11 0 1 0 3 -1 4 -1 1 -2 4 -3 7 -2 12 -9 21 -18
26 -8 4 -11 4 -113 4 -79 0 -106 -1 -108 -2 -1 -2 -2 -9 -2 -19 0 -14 -1 -17
-3 -18 -3 0 -2 -1 1 -1 3 0 7 -1 10 -3 2 -2 4 -3 4 -2 0 1 2 0 5 -3 7 -7 7
-19 0 -26 -3 -3 -6 -5 -7 -5 -2 1 -23 -10 -24 -11 0 -1 -2 -4 -4 -6 -9 -10
-10 -15 -10 -69 0 -42 1 -52 3 -58 4 -9 14 -21 18 -21 2 0 3 -1 3 -2 0 -1 1
-2 3 -2 1 0 74 -1 162 -1 l160 -1 5 -6 c4 -4 5 -6 4 -9 -1 -3 -3 -12 -5 -22
-3 -13 -5 -19 -9 -23 l-5 -5 -57 -1 -57 -1 -18 -7 c-21 -7 -26 -8 -46 0 -9 3
-17 5 -19 5 -2 0 -5 -1 -8 -1 -8 0 -20 -11 -24 -22 -4 -8 -4 -21 -4 -396 l0
-388 -5 -14 c-23 -64 -60 -146 -77 -172 -3 -4 -6 -9 -6 -9 0 -1 -7 -12 -23
-35 -2 -4 -3 -8 -3 -18 1 -16 6 -23 24 -32 10 -5 13 -5 37 -5 31 -1 36 -3 43
-15 3 -4 5 -8 6 -8 1 0 2 -1 2 -2 0 -2 4 -7 10 -13 1 -2 7 -3 15 -3 10 0 14 1
23 7 6 4 16 8 22 10 6 2 12 4 13 5 1 1 4 2 7 3 10 2 21 15 33 38 6 13 11 23
11 24 0 1 4 9 9 20 5 10 10 24 12 30 5 18 7 23 11 27 2 3 4 6 4 8 0 6 7 8 16
6 5 -1 15 -2 23 -2 l14 -1 5 9 c4 8 4 10 3 34 -1 22 0 25 3 28 4 4 11 5 17 3
2 -1 7 -9 11 -18 7 -14 10 -18 19 -25 7 -5 13 -10 14 -11 0 -2 3 -3 4 -3 4 0
4 -8 -2 -17 -8 -15 -30 -31 -46 -32 -22 -1 -44 -12 -50 -26 -10 -22 -10 -23
-9 -51 0 -32 2 -41 11 -50 20 -19 58 -10 77 18 12 17 17 17 42 6 13 -7 19 -9
25 -8 10 0 20 7 24 15 1 3 3 5 3 5 3 0 6 19 5 27 -1 8 -2 37 -1 44 0 1 1 3 3
3 2 0 3 1 3 2 0 4 2 1 3 -4 1 -3 2 -14 4 -24 1 -11 4 -22 5 -24 4 -7 11 -16
13 -15 0 1 1 1 1 0 0 -3 4 -5 16 -6 8 -1 15 0 47 11 44 14 53 19 65 39 13 20
15 30 13 69 0 13 3 13 11 -2 6 -13 19 -32 26 -39 2 -2 4 -4 3 -5 -13 -26 -13
-27 -13 -48 -1 -17 0 -25 4 -40 5 -17 8 -30 11 -51 1 -9 8 -23 15 -29 2 -2 10
-7 16 -9 12 -5 13 -5 65 -4 29 0 56 1 60 2 4 0 14 1 22 2 29 3 53 9 76 20 22
11 36 23 60 52 11 12 20 10 33 -7 17 -21 24 -27 42 -33 9 -3 17 -5 18 -5 2 0
9 -5 16 -11 7 -6 14 -11 16 -11 22 -1 21 -1 38 13 9 8 20 17 25 21 18 14 59
52 93 86 32 32 34 32 58 2 21 -26 54 -60 69 -70 44 -31 86 -50 117 -55 5 -1
14 -2 21 -3 7 -1 27 -1 46 -1 45 1 56 5 69 28 11 18 17 20 43 10 25 -10 37 -5
71 26 32 31 55 70 61 104 3 19 5 22 19 46 10 17 16 40 27 98 7 39 5 55 -8 58
-15 3 -19 3 -24 0 -8 -5 -24 -5 -30 2 -4 4 -5 7 -5 16 0 11 0 12 10 21 10 8
11 10 12 20 1 19 -3 26 -18 26 -12 0 -26 -6 -32 -13 -8 -10 -14 -13 -26 -13
-9 0 -11 1 -16 6 -7 7 -8 21 -2 34 5 11 5 32 1 40 -2 3 -8 9 -15 14 -6 4 -18
15 -27 23 -14 13 -17 15 -24 15 -24 0 -30 -9 -32 -46 -1 -14 -2 -28 -2 -31 0
-3 -1 -14 -2 -23 -1 -9 -2 -21 -2 -25 -1 -4 -1 -12 -2 -18 -1 -5 -1 -13 -2
-16 0 -3 -1 -9 -2 -13 -3 -25 -15 -64 -20 -70 -6 -6 -19 -7 -31 -2 -16 7 -28
23 -48 63 -9 18 -19 35 -22 38 -7 7 -13 11 -18 15 -12 8 -18 14 -20 23 -2 10
0 23 6 30 7 8 24 11 38 5 7 -4 12 -4 21 -3 18 2 22 6 37 32 28 48 72 136 89
176 5 12 10 23 11 24 1 1 4 9 8 18 3 9 7 19 9 22 4 8 23 55 24 58 0 1 1 4 2 7
10 24 33 89 40 112 3 9 6 18 7 20 1 2 4 12 8 22 28 91 29 94 26 106 -3 12 -11
22 -23 28 -6 3 -77 23 -93 27 -2 0 -16 5 -31 9 -16 5 -32 8 -37 8 -12 0 -25
-6 -35 -17 -11 -10 -17 -13 -28 -14 -17 -1 -37 -9 -41 -17 -1 -3 -3 -14 -4
-26 -1 -14 -3 -24 -5 -29 -4 -8 -5 -9 -11 -17 -4 -5 -13 -22 -17 -34 -1 -4 -4
-10 -7 -17 -2 -5 -4 -10 -4 -11 0 -2 -28 -75 -30 -77 -2 -2 -8 5 -14 14 -3 5
-6 9 -8 11 -4 3 -29 3 -32 -1 -5 -6 -18 -11 -28 -11 -9 0 -11 1 -16 6 -5 5 -6
7 -6 17 0 19 10 26 41 24 22 -1 33 5 40 22 4 8 4 12 2 28 0 7 -2 29 -4 50 -4
46 -6 53 -22 70 -4 3 -8 9 -10 13 -4 7 -4 5 1 53 2 22 9 45 15 50 11 9 10 9
119 10 58 0 110 1 115 1 6 0 28 -1 49 -1 39 -2 40 -1 49 3 11 5 18 14 22 24
10 22 22 27 33 12 3 -5 6 -10 6 -11 0 -9 22 -28 33 -27 9 0 11 1 11 2 0 1 1 2
3 2 4 0 14 12 18 21 3 6 3 19 3 88 0 80 0 80 -5 89 -3 6 -7 10 -14 14 -6 2
-12 5 -14 6 -4 2 -13 5 -19 5 -2 0 -4 1 -4 1 0 1 -1 2 -1 2 -4 -1 -23 4 -23 6
0 1 -1 2 -2 1 -1 -1 -4 0 -5 1 -3 3 -4 2 -3 -2 1 -2 1 -4 0 -3 -1 1 -2 -4 -2
-10 0 -7 1 -11 3 -11 1 0 0 -1 -3 -2 l-5 -2 5 0 c3 0 7 -1 9 -3 5 -3 11 -24
12 -41 1 -14 1 -16 -3 -23 -3 -4 -8 -9 -11 -10 -9 -4 -29 -4 -35 0 -2 2 -11
15 -19 28 -14 23 -15 27 -15 36 0 6 1 11 2 12 0 0 1 5 0 10 -1 11 2 23 9 32 5
6 6 9 3 9 -2 0 -1 1 1 4 5 6 7 26 3 40 -4 14 2 30 14 35 13 5 25 3 39 -7 18
-15 35 -16 51 -4 14 9 18 17 19 31 0 11 -1 13 -8 25 -5 7 -10 14 -11 15 -1 1
-2 4 -4 6 -1 3 -3 6 -5 8 -1 1 -4 5 -6 8 -4 6 -27 37 -29 39 -1 1 -4 5 -8 10
-4 5 -9 11 -10 13 -2 2 -4 4 -4 5 0 1 -3 2 -7 2 -3 0 -8 1 -10 3 -2 1 -6 2 -8
1 -5 0 -13 -9 -13 -13 0 -1 -3 -5 -6 -10 -5 -5 -8 -7 -13 -7 -14 0 -38 13 -46
26 -6 8 -5 23 2 30 3 3 7 6 9 6 2 0 9 3 16 7 l13 6 -3 15 c-3 16 -5 19 -33 49
-5 5 -12 14 -17 19 -14 17 -36 23 -51 14 -12 -6 -27 -15 -45 -26 -9 -6 -20
-12 -23 -14 -3 -2 -10 -6 -15 -9 -5 -4 -12 -8 -16 -11 -26 -15 -33 -19 -45
-27 -8 -5 -19 -12 -26 -16 -7 -4 -14 -8 -15 -10 -1 -2 -4 -2 -5 -1 -1 0 -3 1
-5 1 -2 0 -4 -1 -6 -1 -1 0 -2 0 -2 -1 2 -2 -9 -13 -12 -13 -2 0 -8 2 -14 4
-5 2 -10 3 -11 2 -5 -5 -32 22 -41 40 -2 4 -6 13 -10 20 -7 16 -14 21 -34 26
-17 5 -17 5 -27 24 -4 8 -10 16 -14 19 -20 15 -47 9 -50 -12 -1 -4 -2 -10 -3
-13 -1 -4 -1 -6 1 -7 5 -2 4 -16 -2 -21 -6 -6 -17 -5 -23 1 -5 5 -6 18 -1 20
2 1 2 3 1 7 -1 3 -2 9 -3 13 -3 20 -33 28 -52 13 -6 -5 -11 -20 -12 -42 -1 -9
-2 -18 -4 -21 -3 -6 -4 -83 -1 -94 5 -17 15 -25 47 -34 9 -3 14 -11 14 -25 0
-14 -5 -22 -14 -25 -14 -4 -32 -12 -36 -17 -11 -11 -12 -24 -10 -112 0 -13 0
-15 -5 -19 l-5 -5 -66 0 c-64 -1 -67 -1 -72 -5 -7 -5 -13 -13 -14 -18 0 -2 -2
-7 -3 -10 -2 -3 -3 -6 -3 -7 -1 -4 -6 -10 -9 -10 -3 0 -8 6 -9 10 0 1 -1 4 -3
7 -1 3 -3 8 -3 10 -1 5 -7 13 -14 18 -5 4 -8 4 -79 5 -59 0 -75 0 -76 -2 -2
-2 -2 -2 -2 0 0 2 -2 6 -5 8 -6 5 -6 6 -5 17 2 17 10 46 16 56 5 10 8 12 20
14 7 1 8 1 12 -3 2 -3 4 -6 4 -8 0 -5 13 -26 19 -31 10 -7 18 -9 46 -9 38 0
47 5 57 29 2 7 5 14 6 16 3 9 21 9 24 0 1 -2 4 -9 6 -16 9 -23 21 -30 51 -28
23 1 23 1 23 3 0 1 1 2 3 2 4 0 14 12 18 22 3 8 3 10 1 21 -1 6 -4 14 -6 17
-13 20 -16 29 -18 48 -2 15 -4 28 -7 36 -1 2 -2 4 -2 4 0 1 -1 2 -1 3 -1 1 -2
7 -2 13 l0 11 14 13 14 13 0 13 c0 10 -1 13 -4 16 -3 2 -6 4 -7 4 -2 0 -3 1
-3 2 0 2 -8 3 -20 3 -10 0 -27 -8 -34 -14 -7 -8 -18 -13 -27 -13 -11 0 -34 -6
-46 -12 -5 -2 -12 -4 -15 -5 -16 -1 -32 -7 -42 -17 -6 -5 -13 -11 -16 -12 -7
-4 -24 -3 -31 1 -9 4 -15 20 -11 29 3 8 -5 28 -13 36 -4 3 -9 6 -11 6 -5 0 -6
0 -13 7 l-6 6 1 34 c0 27 0 35 -3 42 -4 9 -14 21 -18 21 -2 0 -3 1 -3 2 0 1
-1 2 -2 2 -6 1 -77 2 -81 1z m-123 -119 c1 -3 9 -28 11 -37 0 -1 2 -7 4 -13 4
-13 2 -26 -5 -32 -8 -8 -28 -9 -40 -1 -6 3 -9 19 -6 30 3 10 3 10 8 31 5 19 9
30 14 31 2 1 4 2 4 3 0 1 1 2 2 1 1 -1 2 0 2 1 0 2 1 0 2 -4 1 -4 3 -8 4 -10z
m933 -65 c2 -2 10 -11 17 -19 7 -9 13 -16 14 -16 3 0 24 -26 28 -36 5 -11 8
-12 27 -12 11 0 11 0 16 9 3 4 5 10 5 11 0 11 15 16 22 8 5 -5 5 -6 -1 -32 -2
-9 -3 -25 -3 -42 0 -26 0 -29 5 -39 3 -7 6 -12 7 -13 1 -1 3 -5 6 -9 3 -4 6
-10 8 -12 4 -4 4 -4 -1 -9 -5 -5 -7 -5 -42 -6 -39 -1 -43 -2 -50 -13 -5 -7 -9
-25 -7 -32 3 -11 -2 -26 -11 -30 -8 -5 -24 -5 -32 0 -9 4 -14 19 -11 30 1 3 1
9 0 13 -1 4 -3 11 -4 16 -2 11 -8 26 -10 26 0 0 -1 5 0 12 0 11 -1 16 -8 26
-1 1 -7 3 -13 3 -7 1 -14 2 -15 2 -2 0 -4 0 -4 -1 0 -1 -3 -4 -7 -7 -5 -4 -9
-5 -16 -5 -13 0 -19 6 -19 19 0 11 1 13 19 26 7 5 17 16 22 23 6 7 11 13 11
14 17 14 22 20 28 36 1 3 2 16 2 30 0 22 1 24 6 32 4 6 5 7 6 4 1 -1 3 -5 5
-7z m-1001 -47 c5 -4 5 -6 0 -11 -5 -6 -8 -6 -13 0 -3 5 -3 5 0 10 5 6 7 6 13
1z m885 -23 c4 -4 5 -7 5 -13 0 -11 -7 -18 -18 -18 -11 0 -18 7 -18 18 0 11 7
18 18 18 6 0 9 -1 13 -5z m-501 -3 c8 -9 2 -21 -9 -23 -11 -1 -17 13 -9 23 4
5 13 5 18 0z m-83 -189 c3 -5 3 -6 1 -11 -4 -7 -13 -7 -17 0 -3 5 -3 6 0 11 4
7 12 7 16 0z m-532 -26 c5 -8 1 -16 -8 -16 -9 0 -13 8 -8 16 2 3 5 5 8 5 3 0
6 -2 8 -5z m947 2 c16 -7 20 -37 7 -48 -12 -11 -34 -11 -43 0 -9 10 -9 32 0
42 7 8 24 11 36 6z m169 -2 c4 -4 5 -7 5 -15 0 -14 -6 -20 -20 -20 -14 0 -20
6 -20 20 0 14 6 20 20 20 8 0 11 -1 15 -5z m-650 -7 c7 -3 12 -13 12 -25 0
-19 -9 -28 -28 -28 -19 0 -28 9 -28 28 0 17 6 24 22 28 5 1 14 -1 22 -3z m161
-44 c5 -5 6 -7 6 -17 0 -10 -1 -12 -6 -17 -5 -5 -7 -6 -17 -6 -10 0 -12 1 -17
6 -5 5 -6 7 -6 17 0 10 1 12 6 17 5 5 7 6 17 6 10 0 12 -1 17 -6z m596 -9 l-5
-5 -4 4 -5 5 4 4 5 5 4 -4 5 -5 -4 -4z m-1111 -15 c11 -10 3 -28 -11 -28 -9 0
-16 6 -16 16 0 14 17 22 27 12z m376 -75 c17 -30 13 -29 108 -29 l77 0 28 7
c32 9 47 9 73 0 16 -6 17 -6 72 -7 l57 0 4 -5 c3 -3 5 -8 5 -14 2 -14 5 -21
15 -32 1 -1 4 -4 7 -6 10 -7 19 -16 19 -21 0 -2 -6 -9 -13 -16 -13 -13 -17
-20 -20 -31 -2 -9 7 -120 10 -133 4 -12 6 -16 19 -33 8 -10 9 -13 10 -23 0
-10 -1 -14 -7 -27 -12 -29 -12 -29 -7 -71 4 -35 9 -52 15 -59 1 -2 7 -8 13
-14 13 -14 14 -20 3 -42 -11 -23 -11 -26 -2 -80 5 -26 13 -66 18 -88 5 -22 10
-42 10 -45 1 -3 2 -8 3 -12 4 -15 1 -37 -7 -45 -1 -1 -8 -9 -15 -17 -7 -8 -26
-28 -42 -44 -26 -26 -28 -30 -29 -38 -2 -12 0 -21 8 -30 8 -9 10 -13 12 -23 1
-4 2 -11 3 -14 4 -10 -3 -20 -12 -19 -16 0 -31 2 -36 5 -10 5 -13 21 -10 47 1
10 3 29 3 42 l0 23 -9 20 c-13 25 -13 29 0 51 11 18 13 27 7 38 -4 7 -13 15
-23 18 -8 2 -121 3 -131 1 -8 -2 -19 -10 -21 -17 -4 -9 -5 -21 -4 -27 3 -8 -1
-22 -8 -32 -3 -4 -6 -10 -7 -12 0 -2 -2 -8 -3 -13 -1 -5 -1 -13 -1 -17 1 -14
-8 -22 -17 -13 -2 2 -3 6 -3 17 0 17 -1 23 -7 34 -11 21 -11 19 -10 42 1 19
-10 35 -25 38 -3 1 -27 1 -53 1 -157 -1 -348 -1 -349 1 -5 5 -1 14 6 15 2 1 5
2 6 3 1 1 5 3 8 5 4 2 10 9 15 16 9 14 13 16 25 16 12 0 16 -2 25 -16 5 -7 11
-14 15 -16 3 -2 7 -4 8 -5 1 -1 4 -2 6 -3 2 0 5 -1 7 -1 1 -1 23 -1 48 -1 l45
0 12 6 c9 4 15 9 23 18 13 14 11 13 33 16 9 1 20 3 23 4 3 2 8 4 12 5 4 2 9 4
10 5 11 6 22 -1 22 -13 -1 -8 7 -27 13 -33 10 -9 11 -9 159 -8 76 1 140 2 142
2 1 0 2 1 2 2 0 1 1 2 3 2 4 0 14 12 18 21 4 11 4 99 0 110 -4 9 -14 21 -18
21 -2 0 -3 1 -3 2 0 1 -1 2 -2 2 -5 1 -502 3 -504 2 0 -1 -5 -2 -9 -4 -8 -2
-25 -15 -25 -18 0 -2 0 -3 -10 -14 -13 -15 -36 -15 -49 0 -3 4 -6 8 -7 9 -1 2
-2 4 -2 5 0 3 -16 16 -24 18 -4 1 -8 3 -10 3 -14 5 -40 -3 -52 -16 -18 -20
-20 -21 -32 -21 -19 0 -25 10 -21 34 0 5 1 13 2 18 3 21 7 34 15 46 9 12 14
29 14 45 0 16 11 27 28 27 6 0 11 -4 9 -7 -1 0 0 -1 1 -1 5 0 8 -9 8 -19 0 -9
-2 -14 -12 -31 -5 -8 -8 -34 -4 -34 1 0 2 -1 2 -3 0 -6 22 -21 30 -21 2 0 4
-1 5 -1 0 -1 7 -1 15 -1 19 0 32 7 42 22 10 14 15 18 22 18 7 0 12 -4 22 -18
6 -9 11 -13 18 -17 l11 -5 209 0 c114 0 209 0 210 1 1 1 4 1 7 1 3 1 5 2 5 2
0 1 1 2 3 2 4 0 14 12 18 21 3 7 3 25 3 158 l0 150 -7 15 c-4 8 -10 19 -14 24
-5 8 -6 11 -6 23 0 13 1 15 6 22 14 19 15 21 15 31 -1 10 -9 22 -15 22 -2 0
-3 1 -3 2 0 2 -1 2 -1 2 -1 -1 -4 -1 -8 0 -3 1 -75 2 -160 2 l-155 0 -6 6 c-3
3 -5 6 -4 6 4 2 12 20 12 26 -1 12 -6 27 -12 37 l-6 8 5 10 c10 18 11 19 17
19 4 -1 6 -4 13 -17z m646 -45 c10 -10 3 -26 -10 -26 -14 0 -20 15 -11 25 6 6
15 7 21 1z m-63 -39 c6 -4 7 -8 6 -24 0 -7 -9 -13 -20 -13 -14 0 -20 6 -20 20
0 14 6 20 19 20 5 0 12 -2 15 -3z m-911 -83 c7 -3 12 -13 12 -25 0 -19 -9 -28
-28 -28 -19 0 -28 9 -28 28 0 17 6 24 22 28 5 1 14 -1 22 -3z m384 -29 c6 -6
6 -16 1 -37 -2 -9 -3 -16 -3 -16 0 0 -2 -3 -6 -7 -3 -3 -6 -6 -7 -6 -2 1 -17
-6 -19 -9 -4 -5 -13 -30 -11 -31 3 -2 0 -16 -5 -21 -3 -3 -6 -6 -7 -6 0 1 -6
-2 -13 -5 -13 -7 -20 -14 -26 -24 -2 -4 -4 -7 -5 -7 -3 0 5 -25 10 -30 8 -9
15 -10 47 -10 28 1 30 1 34 -3 2 -2 4 -5 5 -5 0 -1 -1 -3 -4 -6 l-5 -5 -85 0
-85 0 -9 -5 c-4 -2 -13 -10 -20 -17 -19 -21 -31 -21 -50 0 -7 7 -16 15 -20 17
-11 5 -36 8 -41 4 -2 -1 -3 -2 -3 -1 0 1 -2 4 -4 7 -3 3 -5 5 -4 6 1 0 3 3 5
5 4 4 6 4 65 4 61 0 72 1 72 3 0 1 2 2 4 3 5 2 19 15 23 22 1 3 4 11 6 17 4
14 13 26 22 32 9 7 19 23 19 33 0 11 -7 21 -20 28 l-11 5 -88 0 c-80 0 -88 0
-92 4 -5 4 -5 6 0 11 4 4 6 4 136 4 l132 0 9 6 c7 5 11 9 17 23 5 9 10 18 12
19 6 5 19 4 24 -2z m84 -21 c10 -9 3 -26 -10 -26 -8 0 -15 7 -15 15 0 13 16
20 25 11z m143 -24 c5 -5 5 -15 0 -20 -9 -9 -24 -2 -24 10 0 8 6 14 14 14 3 0
8 -2 10 -4z m-769 -10 c10 -9 3 -26 -10 -26 -8 0 -15 7 -15 15 0 13 16 20 25
11z m1366 -42 c7 -6 7 -19 1 -25 -6 -7 -20 -7 -26 0 -5 6 -5 18 1 25 5 6 18 6
24 0z m-335 -8 c5 -6 5 -12 0 -18 -7 -8 -22 -2 -22 9 0 11 15 17 22 9z m-827
-9 c5 -8 1 -16 -8 -16 -9 0 -13 8 -8 16 2 3 5 5 8 5 3 0 6 -2 8 -5z m398 -8
c4 -4 5 -7 5 -13 0 -11 -7 -18 -18 -18 -11 0 -18 7 -18 18 0 11 7 18 18 18 6
0 9 -1 13 -5z m-519 -65 c5 -5 5 -15 0 -20 -9 -9 -24 -2 -24 10 0 8 6 14 14
14 3 0 8 -2 10 -4z m561 -44 c7 -6 7 -19 1 -25 -6 -7 -21 -7 -26 0 -5 6 -5 18
0 24 6 7 19 7 25 1z m427 -39 c18 -8 20 -29 5 -60 -12 -24 -14 -27 -18 -31 -6
-6 -22 -6 -27 -1 -5 5 -8 20 -6 30 1 4 2 14 2 22 0 16 3 28 8 34 7 8 24 11 36
6z m-983 -8 c3 -3 3 -3 0 -6 -3 -3 -3 -3 -6 0 -3 2 -3 3 -1 6 4 4 4 4 7 0z
m-70 -26 c4 -4 5 -7 5 -15 0 -14 -6 -20 -20 -20 -14 0 -20 6 -20 20 0 14 6 20
20 20 8 0 11 -1 15 -5z m580 0 c3 -5 3 -6 1 -11 -4 -7 -14 -7 -18 0 -2 5 -2 6
1 11 4 6 11 6 16 0z m808 -16 c12 -7 14 -33 3 -43 -8 -9 -32 -9 -40 0 -9 8 -9
32 0 41 7 7 27 8 37 2z m-1247 -158 c6 -7 6 -22 -1 -28 -6 -7 -23 -7 -29 -1
-6 6 -6 22 0 29 7 7 23 7 30 0z m1039 -26 c12 -7 14 -33 3 -43 -8 -9 -32 -9
-40 0 -9 8 -9 32 0 41 7 7 27 8 37 2z m-1103 -32 c2 -2 4 -5 4 -6 0 -4 11 -24
19 -35 8 -10 9 -13 9 -21 0 -13 -6 -19 -19 -19 -13 0 -18 5 -20 21 -1 6 -4 21
-8 32 -8 23 -8 24 -3 29 4 4 12 4 18 -1z m200 -141 c4 -4 5 -12 2 -12 -2 0 -2
-1 0 -2 1 -2 2 -6 3 -10 1 -5 2 -8 3 -8 1 0 2 -1 1 -2 0 -1 0 -3 2 -5 4 -5 1
-13 -6 -16 -8 -5 -8 -5 -5 -7 2 -2 2 -2 -1 -2 -2 0 -6 -1 -8 -3 -5 -4 -10 -4
-12 0 0 2 -3 3 -5 3 -3 0 -4 1 -2 1 2 1 3 4 3 12 1 17 4 32 8 37 1 1 1 2 -1 2
-3 0 -2 8 2 12 4 4 12 4 16 0z m-181 -56 c3 -2 5 -4 4 -4 -1 0 0 -1 2 -2 4 -2
3 -2 -1 -2 -8 0 -18 -8 -23 -17 -6 -9 -14 -15 -21 -14 -4 1 -14 6 -52 23 -6 4
-15 7 -18 8 -3 1 -4 2 -1 2 2 0 3 1 2 2 -1 1 2 3 5 5 5 2 17 3 52 3 42 0 45 0
51 -4z m503 -2 l5 -5 -2 -21 c-2 -11 -3 -21 -4 -22 -2 -4 -3 -16 -1 -15 1 1 2
0 2 -1 0 -1 1 -2 2 -1 2 1 11 -8 25 -25 16 -19 24 -49 17 -62 -5 -10 -14 -12
-48 -9 -13 1 -25 1 -34 -1 -18 -3 -35 0 -38 6 -3 5 -3 6 1 6 2 0 9 3 17 7 8 4
15 7 16 7 7 0 20 16 30 35 7 14 9 34 3 33 -2 0 -3 1 -2 2 1 1 -2 3 -6 5 -6 3
-13 3 -37 0 -13 -1 -23 3 -33 17 -9 11 -10 27 -2 35 7 7 39 14 69 15 13 0 15
0 20 -6z m951 -9 c5 -3 6 -6 7 -16 0 -10 0 -13 -7 -28 -8 -18 -11 -30 -7 -37
4 -7 28 -15 42 -14 10 1 11 -4 11 -41 -1 -37 -2 -44 -12 -48 -8 -4 -24 -4 -32
0 -9 4 -16 22 -18 44 0 5 -4 15 -7 23 -13 27 -14 31 -14 50 0 11 -1 22 -3 29
-5 17 -3 32 4 38 4 4 8 5 18 5 10 0 14 -1 18 -5z m-258 -39 c3 -3 5 -7 5 -11
0 -22 -21 -41 -44 -42 -19 0 -27 8 -27 27 0 13 4 21 13 24 21 9 45 9 53 2z
m-1016 -18 c17 -13 19 -24 11 -50 -6 -20 -12 -36 -14 -36 -1 0 -5 5 -9 12 -4
7 -8 13 -10 13 -1 1 -6 7 -11 13 -10 12 -10 16 -2 33 6 13 14 21 21 21 3 0 9
-3 14 -6z m-321 -4 c7 -1 20 -3 28 -4 8 -1 17 -4 20 -5 7 -4 15 -17 19 -30 3
-10 3 -12 0 -17 -9 -15 -47 -9 -67 10 -3 2 -8 7 -12 9 -19 12 -25 26 -16 35 4
4 9 5 28 2z m1023 -18 c5 -3 11 -10 20 -25 5 -7 13 -24 14 -29 0 -3 -1 -14 -3
-24 -7 -32 -13 -42 -24 -42 -10 0 -15 8 -22 33 -4 14 -12 32 -16 35 -1 1 -5 6
-9 12 -12 18 -18 40 -10 40 1 0 3 1 5 3 2 3 37 1 45 -3z m-227 -10 c18 -5 19
-21 1 -39 -5 -5 -12 -15 -15 -22 -12 -24 -22 -31 -33 -21 -6 6 -6 12 0 28 10
24 15 39 15 42 0 5 8 12 15 13 3 0 7 1 8 1 1 0 5 -1 9 -2z m335 -40 c6 -6 7
-18 1 -24 -10 -10 -28 -2 -28 12 0 14 17 22 27 12z m127 -75 l-5 -5 -4 4 -5 5
4 4 5 5 4 -4 5 -5 -4 -4z"/>
<path d="M1388 3809 l-8 -2 0 -16 c0 -15 0 -17 -3 -17 -4 0 3 -4 9 -5 2 0 5
-1 5 -2 1 0 3 -1 5 -1 2 0 4 -1 4 -2 0 -2 1 -2 1 -1 1 0 4 -1 7 -2 6 -4 14
-20 14 -29 0 -2 2 -8 4 -14 2 -6 4 -13 4 -15 0 -2 1 -3 1 -2 1 1 7 2 16 1 8
-1 15 0 15 1 0 1 1 1 2 0 3 -2 6 16 7 44 1 28 1 29 -4 39 -9 21 -20 26 -52 26
-11 0 -23 -1 -27 -3z"/>
</g>
</svg>
