<?xml version="1.0" standalone="no"?>
<!DOCTYPE svg PUBLIC "-//W3C//DTD SVG 20010904//EN"
 "http://www.w3.org/TR/2001/REC-SVG-20010904/DTD/svg10.dtd">
<svg version="1.0" xmlns="http://www.w3.org/2000/svg"
 width="1100.000000pt" height="2850.000000pt" viewBox="0 0 1100.000000 2850.000000"
 preserveAspectRatio="xMidYMid meet">
<metadata>
Created by potrace 1.15, written by Peter Selinger 2001-2017
</metadata>
<g transform="translate(0.000000,2850.000000) scale(0.500000,-0.500000)"
fill="#000000" stroke="none">
<path d="M1410 3827 c-17 -2 -71 -9 -90 -12 -4 0 -30 -4 -58 -7 -58 -7 -68
-10 -77 -23 -4 -7 -10 -24 -8 -26 1 -1 16 -78 18 -91 1 -5 2 -11 3 -11 1 -1
-1 -4 -4 -7 l-7 -6 -25 0 c-39 0 -52 -6 -67 -31 -7 -11 -15 -16 -28 -16 -13 0
-21 5 -28 16 -9 15 -20 24 -32 28 -9 3 -24 3 -105 2 -98 -1 -100 -1 -100 -3 0
-1 -1 -2 -3 -2 -4 0 -14 -12 -18 -21 -5 -11 -5 -189 0 -200 4 -9 14 -21 18
-21 2 0 3 -1 3 -2 0 -2 1 -2 56 -4 50 -1 52 -1 58 -6 4 -2 7 -6 7 -7 1 -1 4
-11 9 -23 4 -12 11 -30 14 -42 3 -12 7 -22 7 -23 0 -1 -1 -4 -3 -7 l-4 -5 -78
-1 c-83 -2 -84 -2 -84 -4 0 -1 -1 -2 -3 -2 -4 0 -14 -12 -18 -21 -5 -11 -5
-325 0 -336 4 -9 14 -21 18 -21 2 0 3 -1 3 -2 0 -3 12 -3 118 -3 106 0 118 0
118 3 0 1 1 2 3 2 4 0 14 12 18 21 3 7 3 16 3 59 l-1 51 6 6 6 6 74 0 c69 -1
74 -1 81 3 9 5 10 7 10 22 0 7 1 12 3 13 1 0 1 1 -1 1 -10 0 -15 35 -8 52 7
16 41 18 49 1 8 -15 1 -47 -12 -52 -3 -2 -5 -3 -3 -3 1 0 2 -4 2 -12 0 -15 1
-17 8 -21 9 -5 11 -5 42 -5 27 0 28 0 25 -4 -1 -2 -3 -4 -4 -4 -1 0 3 -1 8 -2
10 -1 10 -1 -4 -2 -8 0 -19 -1 -25 -2 -6 -1 -13 -2 -16 -3 -3 0 -9 -1 -15 -2
-5 -1 -10 -2 -11 -2 -1 0 -7 -1 -15 -2 -22 -2 -34 -6 -43 -15 -11 -11 -14 -20
-9 -41 2 -9 6 -31 10 -49 4 -18 7 -33 8 -33 0 -1 -2 -4 -5 -7 l-5 -6 -206 -1
c-113 0 -207 -1 -208 -1 -2 0 -3 -1 -3 -2 0 -1 -1 -2 -3 -2 -4 0 -14 -12 -18
-21 -5 -11 -5 -189 0 -200 4 -9 14 -21 18 -21 2 0 3 -1 3 -2 0 -3 11 -3 78 -3
l67 0 10 6 c10 6 13 10 30 44 19 36 20 38 32 39 6 0 9 -1 13 -5 4 -5 5 -6 3
-23 -2 -27 -2 -31 4 -42 8 -12 23 -20 39 -20 11 0 13 -1 19 -6 4 -3 6 -6 5 -6
-1 -1 -2 -5 -3 -11 -11 -100 -41 -194 -81 -252 -19 -28 -55 -67 -75 -82 -4 -3
-8 -6 -9 -7 -3 -3 -25 -19 -38 -27 -39 -25 -92 -51 -150 -72 -43 -15 -46 -18
-46 -40 l0 -11 15 -16 c16 -17 41 -48 55 -68 5 -7 10 -14 11 -15 9 -12 32 -52
44 -76 10 -21 18 -28 37 -30 10 -2 32 6 71 24 6 3 17 8 26 12 26 11 66 32 91
47 28 17 39 25 47 30 39 29 58 44 74 59 52 48 80 82 82 97 1 5 2 11 2 13 0 1
0 3 -1 3 -1 0 -2 1 -1 2 2 3 -2 8 -7 8 -2 0 -11 1 -18 2 -18 3 -24 9 -24 25 0
16 7 23 22 23 13 0 18 -3 24 -14 7 -13 11 -16 22 -16 20 1 19 0 37 36 9 18 17
34 17 35 0 1 4 5 8 8 l9 5 120 0 120 0 5 -6 c3 -3 5 -6 5 -7 -1 0 -2 -8 -4
-17 -11 -58 -21 -90 -34 -103 -7 -6 -28 -21 -40 -26 -16 -8 -23 -8 -54 4 -8 3
-18 5 -24 6 -21 2 -48 3 -54 1 -7 -1 -25 -13 -25 -16 0 -3 -15 -32 -20 -40 -2
-4 -5 -10 -5 -12 -3 -15 -3 -18 4 -38 10 -31 17 -58 21 -85 4 -24 4 -25 10
-36 6 -11 13 -17 26 -22 8 -2 21 -3 99 -2 93 1 103 1 144 6 25 3 63 12 78 18
85 35 126 88 154 196 10 40 19 89 24 128 0 4 2 19 4 32 3 26 8 73 10 98 1 9 4
42 7 74 5 54 5 59 2 68 -4 12 -14 23 -25 27 -7 1 -64 2 -244 2 l-236 0 -5 5
c-5 6 -5 6 -3 22 2 9 3 20 3 24 1 5 3 10 5 13 l5 5 271 1 c148 1 271 2 273 2
1 0 2 1 2 2 0 1 1 2 3 2 4 0 14 12 18 22 5 11 3 31 -3 45 -2 6 -5 10 -6 11 -4
3 -13 23 -13 30 0 7 9 27 13 30 2 1 9 18 11 25 3 13 -13 38 -45 70 -15 16 -5
15 -213 15 l-184 0 -7 6 c-4 4 -7 7 -6 8 1 2 -4 23 -11 52 -17 66 -28 96 -35
96 -2 0 2 2 7 6 l10 5 87 1 87 1 6 -6 6 -6 -1 -51 c0 -43 0 -52 3 -59 4 -9 14
-21 18 -21 2 0 3 -1 3 -2 0 -3 13 -3 125 -3 112 0 125 0 125 3 0 1 1 2 3 2 4
0 14 12 18 21 3 7 3 25 3 159 0 161 0 162 -10 172 -9 10 -26 15 -31 10 -2 -2
-4 -3 -4 -2 0 0 -6 -2 -14 -4 -8 -2 -18 -5 -23 -5 -9 -1 -17 -2 -25 -4 -4 -2
-17 -15 -22 -24 -1 -4 -5 -8 -8 -10 -11 -7 -31 -5 -38 4 -5 5 -8 20 -5 24 2 4
-6 27 -11 34 -3 2 -5 6 -6 8 0 3 -3 6 -5 9 -2 2 -3 4 -2 4 1 0 6 11 12 26 6
14 12 28 13 31 2 3 5 12 9 19 3 8 5 14 5 14 0 1 2 3 6 6 7 5 10 5 44 6 40 2
41 2 41 4 0 1 1 2 3 2 4 0 14 12 18 21 5 11 5 189 0 200 -4 9 -14 21 -18 21
-2 0 -3 1 -3 2 0 1 -1 2 -2 2 -2 0 -85 1 -185 1 l-182 1 -6 6 c-4 3 -6 6 -6 6
1 1 -9 47 -16 77 -1 2 -2 6 -2 7 0 2 -3 12 -6 22 -11 41 -16 51 -29 59 -6 3
-24 10 -26 9 -1 0 -10 -2 -20 -3z m-34 -235 c5 -5 5 -15 0 -20 -9 -9 -24 -2
-24 10 0 8 6 14 14 14 3 0 8 -2 10 -4z m197 -105 c12 -7 14 -33 3 -43 -8 -9
-32 -9 -40 0 -9 8 -9 32 0 41 7 7 27 8 37 2z m-193 -31 c5 -6 5 -12 0 -18 -7
-8 -22 -2 -22 9 0 11 15 17 22 9z m90 -72 c3 -3 5 -6 4 -6 -1 0 -2 -2 -2 -4 0
-4 -20 -74 -24 -84 -1 -4 -5 -8 -8 -10 -7 -4 -11 -4 -86 -4 l-79 0 -8 6 c-4 3
-7 7 -7 9 0 3 -1 7 -2 10 -1 3 -3 8 -3 11 -2 7 -19 55 -23 61 -4 7 -4 7 1 11
2 2 5 4 7 5 2 0 53 1 113 1 l111 0 6 -6z m-380 -119 c3 -3 4 -7 4 -14 0 -13
-6 -19 -19 -19 -13 0 -19 6 -19 19 0 7 1 11 4 14 7 8 23 8 30 0z m-13 -96 c3
-5 3 -5 0 -10 -2 -3 -5 -5 -7 -5 -2 0 -5 2 -7 5 -3 5 -3 5 0 10 2 3 5 5 7 5 2
0 5 -2 7 -5z m668 -18 c4 -4 5 -7 5 -15 0 -14 -6 -20 -20 -20 -14 0 -20 6 -20
20 0 14 6 20 20 20 8 0 11 -1 15 -5z m-798 -374 c4 -4 5 -7 5 -15 0 -14 -6
-20 -20 -20 -14 0 -20 6 -20 20 0 14 6 20 20 20 8 0 11 -1 15 -5z m917 -49 c5
-5 5 -15 0 -20 -9 -9 -24 -2 -24 10 0 8 6 14 14 14 3 0 8 -2 10 -4z m-354 -12
c11 -6 14 -28 5 -37 -3 -3 -7 -5 -10 -5 -3 0 -7 -1 -9 -1 -19 -2 -31 25 -17
39 7 8 20 9 31 4z m-343 -141 c3 -5 3 -5 0 -10 -2 -3 -5 -5 -7 -5 -2 0 -5 2
-7 5 -3 5 -3 5 0 10 2 3 5 5 7 5 2 0 5 -2 7 -5z m210 -88 c3 -3 3 -3 0 -6 -4
-5 -11 1 -7 6 4 4 4 4 7 0z m-255 -28 l-5 -5 -4 4 -5 5 4 4 5 5 4 -4 5 -5 -4
-4z m442 -30 c21 -9 20 -45 -2 -54 -10 -5 -28 -1 -34 6 -9 10 -9 32 0 42 7 8
24 11 36 6z m156 -253 c5 -6 5 -12 0 -18 -7 -8 -22 -2 -22 9 0 11 15 17 22 9z
m53 -62 c10 -9 3 -26 -10 -26 -8 0 -15 7 -15 15 0 13 16 20 25 11z"/>
<path d="M538 3739 c-17 -6 -25 -20 -27 -47 -1 -21 -9 -29 -29 -29 -17 1 -26
8 -33 30 -7 22 -24 39 -40 42 -6 1 -276 0 -280 -1 -2 0 -3 -1 -3 -2 0 -1 -1
-2 -3 -2 -4 0 -14 -12 -18 -21 -5 -12 -5 -1778 0 -1790 4 -9 14 -21 18 -21 2
0 3 -1 3 -2 0 -3 12 -3 110 -3 98 0 110 0 110 3 0 1 1 2 3 2 4 0 14 12 18 21
5 11 5 417 0 431 -5 15 -12 22 -36 34 -13 6 -18 27 -11 41 5 8 29 21 36 19 5
-2 14 -13 14 -18 0 -2 3 -8 8 -14 6 -9 10 -12 22 -18 8 -5 17 -8 19 -8 6 0 11
-4 19 -16 16 -24 30 -30 60 -25 25 4 36 7 51 16 16 9 29 15 45 21 18 6 21 8
33 17 37 29 61 67 78 119 6 18 14 58 16 76 1 7 2 15 2 18 2 10 3 117 1 135 -1
20 -7 35 -17 46 -15 17 -16 25 -8 52 4 14 5 21 4 29 -1 9 -19 71 -23 77 0 1
-1 2 -1 3 0 7 -41 90 -55 112 -16 25 -18 39 -9 65 3 9 11 35 18 59 7 24 16 52
19 62 7 24 41 142 52 182 10 35 10 49 0 62 -18 25 -16 40 8 51 19 9 28 20 35
44 7 26 -2 49 -24 61 -4 2 -13 7 -22 13 -8 5 -16 9 -16 9 0 0 -7 4 -14 8 -7 5
-17 10 -21 12 -4 3 -10 6 -14 9 -4 2 -9 5 -12 7 -3 2 -6 4 -7 4 0 0 -8 5 -17
10 -26 16 -46 21 -62 15z m50 -85 c5 -5 5 -15 0 -20 -9 -9 -24 -2 -24 10 0 8
6 14 14 14 3 0 8 -2 10 -4z m-308 -158 c1 0 5 -3 8 -6 5 -5 6 -7 6 -18 0 -11
-1 -13 -6 -18 -6 -6 -7 -6 -18 -6 -11 0 -12 0 -18 6 -5 5 -6 7 -6 17 0 14 3
20 12 24 5 2 8 2 22 1z m144 -52 c5 -5 5 -5 3 -14 -1 -5 -3 -12 -4 -16 -2 -14
-7 -39 -11 -56 -2 -9 -5 -22 -5 -29 -1 -6 -3 -16 -4 -20 -5 -12 -13 -53 -15
-74 -3 -30 -13 -55 -21 -55 -2 0 -3 -1 -3 -2 -1 -1 -8 4 -16 12 -23 22 -24 38
-1 59 23 22 23 21 23 115 l-1 75 6 6 c6 6 6 6 25 5 18 0 19 -1 24 -6z m157
-89 c6 -6 7 -22 2 -29 -5 -5 -27 -11 -33 -8 -7 2 -13 10 -10 13 1 1 3 7 5 12
4 13 9 17 22 17 7 0 10 -1 14 -5z m-86 -37 c6 -1 14 -3 18 -3 5 0 11 -2 13 -3
2 -1 4 -1 5 0 1 0 1 0 1 -1 -1 -1 -1 -3 0 -5 3 -6 -5 -38 -11 -43 -12 -11 -32
-11 -60 0 -14 6 -18 11 -20 27 -2 26 18 37 54 28z m-127 -294 c12 -7 14 -11
31 -46 19 -38 36 -89 45 -133 10 -52 14 -127 9 -167 -7 -47 -16 -58 -54 -63
l-18 -2 -6 6 -6 6 1 155 c0 168 0 166 -11 175 -6 6 -20 11 -33 12 -21 2 -29 9
-29 28 0 19 8 26 29 28 6 0 13 2 16 3 8 3 19 2 26 -2z m-102 -146 c5 -5 5 -15
0 -20 -9 -9 -24 -2 -24 10 0 8 6 14 14 14 3 0 8 -2 10 -4z m-11 -444 c5 -5 6
-7 6 -16 0 -15 -8 -23 -23 -23 -9 0 -11 1 -16 7 -9 8 -9 23 -1 32 9 9 24 9 34
0z m-7 -351 l-5 -5 -4 4 -5 5 4 4 5 5 4 -4 5 -5 -4 -4z"/>
</g>
</svg>
