<?xml version="1.0" standalone="no"?>
<!DOCTYPE svg PUBLIC "-//W3C//DTD SVG 20010904//EN"
 "http://www.w3.org/TR/2001/REC-SVG-20010904/DTD/svg10.dtd">
<svg version="1.0" xmlns="http://www.w3.org/2000/svg"
 width="1100.000000pt" height="2850.000000pt" viewBox="0 0 1100.000000 2850.000000"
 preserveAspectRatio="xMidYMid meet">
<metadata>
Created by potrace 1.15, written by Peter Selinger 2001-2017
</metadata>
<g transform="translate(0.000000,2850.000000) scale(0.500000,-0.500000)"
fill="#000000" stroke="none">
<path d="M1268 3808 c-3 -1 -6 -1 -7 0 0 0 -1 0 -1 -2 0 -1 -1 -2 -3 -2 -4 0
-14 -12 -18 -21 -2 -7 -3 -15 -3 -40 l1 -32 -6 -6 -6 -6 -130 1 c-142 0 -139
0 -152 -12 -3 -3 -9 -9 -12 -14 -6 -10 -12 -15 -24 -24 -10 -7 -16 -16 -20
-30 -3 -10 -13 -25 -13 -20 0 1 -25 14 -55 29 l-55 28 -15 0 c-9 1 -20 0 -24
-1 -4 -1 -27 -3 -50 -4 -47 -2 -47 -2 -47 -4 0 -1 -3 -3 -7 -5 -4 -1 -9 -6
-12 -10 -2 -5 -8 -11 -12 -15 -6 -7 -8 -8 -17 -8 -14 0 -20 6 -20 20 0 12 4
17 25 28 17 9 23 16 40 46 13 23 13 25 13 35 -2 24 -10 27 -95 44 -2 0 -32 6
-66 13 -90 18 -87 19 -125 -46 -22 -37 -63 -97 -88 -127 -32 -38 -50 -58 -84
-92 -12 -13 -29 -29 -38 -37 -8 -7 -16 -14 -18 -16 -2 -2 -7 -6 -12 -10 -5 -4
-11 -9 -13 -11 -3 -2 -7 -6 -11 -9 -4 -3 -12 -9 -18 -14 -6 -5 -17 -13 -23
-18 -19 -13 -20 -14 -20 -30 0 -16 1 -18 21 -34 11 -9 29 -25 47 -44 8 -8 16
-17 18 -19 7 -7 22 -24 28 -32 32 -42 36 -45 53 -45 8 0 20 5 24 10 5 6 20 15
25 15 8 0 10 -3 12 -14 2 -9 7 -15 34 -38 23 -20 24 -21 21 -32 -2 -6 -5 -9
-30 -27 -6 -4 -12 -9 -13 -10 -4 -3 -60 -39 -63 -41 -2 0 -5 -2 -7 -3 -14 -10
-31 -19 -52 -30 -30 -16 -38 -23 -51 -41 -6 -8 -12 -15 -13 -16 -2 0 -7 -4
-12 -7 l-9 -7 0 -16 c0 -13 1 -17 3 -17 5 0 20 -8 24 -12 3 -3 7 -12 9 -23 3
-12 7 -20 11 -26 3 -4 10 -13 14 -20 4 -7 8 -12 9 -13 1 -1 4 -5 7 -10 23 -37
28 -44 37 -49 5 -4 11 -5 19 -6 10 0 18 4 79 35 30 16 33 6 8 -26 -35 -44 -92
-105 -136 -144 -21 -19 -25 -22 -57 -47 -29 -22 -29 -23 -48 -35 -20 -14 -23
-19 -22 -36 l0 -13 13 -11 c39 -34 90 -89 117 -128 16 -23 24 -29 41 -28 9 1
23 9 36 20 6 5 11 9 21 17 3 2 9 6 12 9 14 13 22 12 29 -1 2 -5 9 -12 14 -17
6 -5 19 -17 30 -26 10 -9 21 -18 23 -20 16 -12 14 -24 -6 -39 -6 -6 -13 -11
-15 -12 -4 -3 -36 -27 -41 -30 -2 -2 -10 -7 -18 -13 -8 -5 -15 -10 -16 -10 0
0 -8 -5 -18 -10 -18 -12 -24 -16 -37 -23 -29 -15 -57 -29 -71 -35 -9 -4 -21
-9 -28 -12 -7 -3 -17 -7 -23 -10 -24 -9 -30 -17 -30 -36 0 -8 1 -11 8 -18 12
-15 21 -27 30 -38 4 -6 9 -12 10 -13 1 -1 4 -6 7 -11 3 -5 7 -11 9 -12 4 -5
42 -68 49 -82 9 -17 18 -25 33 -28 10 -2 12 -2 19 1 49 22 103 49 144 73 4 2
11 6 15 9 9 4 24 14 47 29 9 7 18 12 18 12 1 0 2 1 4 2 3 3 33 24 42 30 5 3
17 15 28 26 14 15 23 23 32 27 26 13 95 79 146 140 7 9 15 18 18 21 2 3 7 9
11 14 4 5 8 10 9 12 30 38 83 119 110 169 5 10 12 23 15 28 3 6 12 23 19 39 7
16 15 33 17 37 2 5 4 10 4 12 0 3 0 3 4 0 8 -8 8 -8 8 -153 0 -123 0 -140 3
-147 4 -9 14 -21 18 -21 2 0 3 -1 3 -2 0 -2 1 -2 58 -4 l53 -1 7 -5 c3 -4 5
-6 4 -6 -2 0 -17 -11 -39 -27 -9 -7 -38 -25 -66 -41 -14 -8 -83 -42 -96 -47
-8 -3 -15 -6 -16 -7 -1 -1 -16 -7 -34 -13 -41 -15 -43 -17 -43 -38 0 -9 1 -16
3 -17 1 -1 11 -9 23 -17 26 -19 78 -61 98 -78 5 -4 15 -13 22 -19 7 -6 18 -16
26 -23 16 -15 30 -23 43 -23 14 -1 57 21 75 38 11 10 21 16 36 21 19 7 28 12
34 19 5 7 5 8 5 33 0 24 0 26 5 29 7 6 16 5 34 -4 13 -8 16 -8 26 -8 10 1 13
2 22 10 6 5 14 11 17 13 3 2 7 5 9 7 2 2 5 4 7 6 37 30 54 45 86 78 16 15 30
30 30 33 1 3 1 10 0 16 0 9 -2 11 -9 17 -4 4 -9 7 -10 8 -2 0 -28 7 -58 17
-30 9 -58 17 -61 17 -5 0 -5 1 -1 1 2 1 4 3 4 4 0 5 10 7 42 7 17 0 37 1 44 2
17 3 35 3 52 0 7 -1 42 -2 81 -2 68 0 81 -1 81 -8 0 -1 2 -2 4 -2 2 0 2 -1 0
-1 -4 -2 -9 -8 -16 -21 -4 -6 -8 -12 -9 -13 -2 0 -4 -2 -6 -4 -1 -1 -9 -5 -17
-9 -8 -4 -16 -7 -17 -8 -6 -5 -23 -20 -28 -25 -7 -6 -7 -7 -7 -21 0 -17 1 -19
34 -41 15 -10 27 -18 28 -19 1 -1 5 -4 9 -7 14 -9 11 -6 77 -55 9 -7 17 -14
18 -14 1 -1 6 -5 13 -10 14 -10 15 -11 26 -20 5 -4 11 -9 15 -12 4 -3 8 -6 9
-7 3 -3 16 -9 30 -14 14 -5 21 -11 28 -25 11 -21 14 -24 29 -24 12 -1 13 0 19
6 4 4 7 7 6 8 0 0 0 3 2 6 2 3 3 8 3 12 0 7 9 16 18 16 4 1 12 0 18 -1 19 -2
31 1 50 15 9 7 17 15 18 18 3 7 2 25 -1 30 -4 4 -11 20 -11 23 0 4 6 10 11 10
4 1 16 -5 28 -14 11 -7 24 -9 34 -3 9 4 11 7 12 19 2 14 -2 20 -21 35 -27 20
-50 37 -60 43 -5 3 -10 7 -12 8 -1 2 -3 3 -4 3 -1 0 -3 2 -5 4 -4 3 -69 46
-104 69 -21 14 -34 22 -51 33 -7 4 -14 8 -15 8 -3 0 -2 1 2 5 3 3 5 5 6 5 0 1
39 1 87 2 91 2 92 2 92 4 0 1 1 2 3 2 4 0 14 12 18 21 3 7 3 30 3 212 0 214 0
213 -9 223 -6 7 -26 16 -36 16 -12 0 -18 23 -9 33 3 3 7 5 9 5 10 0 30 9 36
16 8 9 9 15 9 94 l0 76 -5 11 c-5 10 -10 15 -21 23 -4 3 -13 15 -20 30 -5 9
-13 16 -24 20 -5 1 -69 2 -233 2 -247 0 -234 1 -245 -11 -6 -6 -14 -24 -14
-31 0 -5 -8 -12 -15 -12 -5 0 -25 10 -29 14 -1 1 -9 6 -19 12 -11 6 -20 12
-21 13 -1 2 -4 3 -5 3 -2 0 -3 1 -3 2 0 1 -4 3 -9 5 -9 4 -17 4 -148 4 -136 0
-149 0 -149 -3 0 -1 -1 -2 -3 -2 -4 0 -14 -12 -18 -21 -3 -6 -3 -19 -3 -89 l0
-81 -6 -8 c-3 -4 -6 -7 -6 -6 0 1 -12 8 -27 14 -16 6 -32 13 -36 15 -27 12
-45 15 -69 11 -18 -3 -156 -2 -169 1 -13 3 -16 8 -16 25 0 14 0 16 6 20 8 8
28 7 38 -1 4 -3 9 -6 10 -6 20 -2 34 0 37 7 1 2 7 16 14 30 14 28 15 36 6 50
-7 11 -17 15 -59 23 -31 6 -40 9 -44 12 -3 3 -5 6 -5 7 0 1 12 13 27 28 41 41
73 77 100 111 7 9 16 20 20 25 7 8 17 23 27 37 4 6 9 13 12 17 6 8 6 8 26 38
9 14 16 25 16 26 0 1 1 3 3 5 1 2 6 9 10 17 4 8 9 16 11 19 7 10 42 81 42 85
0 3 1 2 6 -4 l6 -7 0 -53 c0 -43 1 -54 3 -60 4 -9 14 -21 18 -21 2 0 3 -1 3
-2 0 -3 14 -3 163 -3 l152 0 6 -6 c3 -3 6 -7 5 -8 0 -2 3 -7 6 -12 3 -6 7 -15
9 -21 3 -9 3 -11 0 -15 -4 -6 -12 -7 -16 0 -1 2 -5 9 -9 16 -13 25 -16 25 -89
25 l-58 -1 -9 -5 c-11 -7 -21 -17 -19 -20 1 -1 0 -2 -1 -2 -1 0 -4 -2 -7 -5
l-5 -5 -6 5 c-3 3 -6 5 -7 5 -1 0 -4 4 -7 8 -3 4 -10 10 -15 13 l-10 6 -67 0
c-67 0 -78 0 -78 -3 0 -1 -1 -2 -3 -2 -4 0 -14 -12 -18 -21 -5 -11 -5 -153 0
-164 4 -9 14 -21 18 -21 2 0 3 -1 3 -2 0 -3 1 -3 153 -3 144 -1 148 -1 156 3
12 6 21 27 17 39 -1 2 -1 7 -1 11 3 25 43 25 46 0 0 -4 0 -9 -1 -11 -2 -4 1
-23 4 -26 2 -2 2 -3 1 -3 -1 0 2 -2 6 -5 4 -3 10 -5 13 -5 3 0 14 0 25 0 11 0
25 -1 32 -2 11 -2 610 -2 619 0 1 0 2 1 2 2 0 1 1 2 3 2 4 0 14 12 18 21 5 11
5 153 0 164 -4 9 -14 21 -18 21 -2 0 -3 1 -3 2 0 3 -15 3 -192 3 l-181 0 -5 6
-6 5 6 6 5 5 156 0 c153 0 167 0 167 3 0 1 1 2 3 2 4 0 14 12 18 21 5 12 5
342 0 354 -4 9 -14 21 -18 21 -2 0 -3 1 -3 2 0 3 -14 3 -167 3 l-156 0 -6 6
-6 6 1 32 c0 25 0 33 -3 40 -4 9 -14 21 -18 21 -2 0 -3 1 -3 2 0 1 -1 2 -2 2
-7 1 -238 2 -242 0z m81 -157 c4 -4 5 -7 5 -15 0 -14 -6 -20 -20 -20 -14 0
-20 6 -20 20 0 14 6 20 20 20 8 0 11 -1 15 -5z m210 -4 c5 -8 1 -16 -8 -16 -9
0 -13 8 -8 16 2 3 5 5 8 5 3 0 6 -2 8 -5z m-414 -60 c3 -5 3 -5 0 -10 -2 -3
-5 -5 -7 -5 -2 0 -5 2 -7 5 -3 5 -3 5 0 10 2 3 5 5 7 5 2 0 5 -2 7 -5z m-356
-4 c3 -5 3 -5 0 -10 -2 -3 -5 -5 -7 -5 -2 0 -5 2 -7 5 -3 5 -3 5 0 10 2 3 5 5
7 5 2 0 5 -2 7 -5z m829 -33 c8 -7 8 -16 1 -38 -4 -11 -6 -20 -5 -20 0 0 -2
-2 -6 -5 -4 -3 -7 -6 -8 -6 0 -1 -13 -2 -27 -2 l-26 0 -6 6 c-8 8 -8 16 0 24
3 3 5 6 5 7 0 1 3 2 6 3 6 1 22 16 27 25 7 14 28 18 39 6z m-387 -41 c8 -8 8
-16 0 -24 l-6 -6 -28 0 -28 0 -6 6 c-8 8 -8 16 0 24 l6 6 28 0 28 0 6 -6z
m-770 -15 c10 -10 7 -29 -4 -34 -3 -1 -3 -2 -1 -2 2 0 3 -2 3 -11 -1 -23 6
-27 52 -27 21 0 35 -1 38 -2 6 -4 11 -9 10 -10 -1 0 -6 -7 -11 -14 -9 -13 -36
-49 -43 -58 -9 -11 -24 -13 -34 -6 -8 7 -11 9 -14 11 -13 12 -28 16 -42 13 -6
-2 -32 -17 -37 -22 -3 -3 -20 -14 -22 -14 -1 0 -2 -1 -2 -2 0 -1 -4 -3 -8 -6
-5 -2 -12 -6 -15 -8 -8 -5 -15 -7 -15 -4 0 3 11 18 16 23 6 6 53 54 71 73 8 9
17 17 20 19 11 7 12 12 8 42 0 2 -2 6 -5 8 -7 6 -7 23 1 31 9 9 24 9 34 0z
m306 -74 c11 -10 3 -28 -11 -28 -9 0 -16 6 -16 16 0 14 17 22 27 12z m432 -8
c16 -7 16 -43 -1 -50 -15 -6 -34 -2 -39 9 -4 8 -4 24 0 32 5 12 23 15 40 9z
m496 -16 c11 -10 3 -28 -11 -28 -9 0 -16 6 -16 16 0 14 17 22 27 12z m-1491
-14 c1 0 5 -3 8 -6 5 -5 6 -7 6 -18 0 -11 -1 -13 -6 -18 -6 -6 -7 -6 -18 -6
-11 0 -12 0 -18 6 -5 5 -6 7 -6 17 0 14 3 20 12 24 5 2 8 2 22 1z m743 -158
c7 -6 7 -19 1 -25 -6 -7 -19 -7 -25 -1 -7 6 -7 19 -1 25 6 7 19 7 25 1z m-400
-19 c4 -4 5 -7 5 -15 0 -14 -6 -20 -20 -20 -14 0 -20 6 -20 20 0 14 6 20 20
20 8 0 11 -1 15 -5z m524 3 c10 -5 15 -10 15 -18 0 -14 -17 -22 -27 -12 -6 6
-7 17 -2 26 3 7 6 7 14 4z m-679 -76 c8 -8 8 -21 1 -36 -6 -13 -10 -31 -8 -42
1 -11 -3 -18 -10 -18 -7 0 -11 7 -10 18 2 11 -2 29 -8 42 -8 16 -6 36 3 40 3
1 10 2 16 2 9 0 11 -1 16 -6z m1184 -284 l6 -6 -6 -5 -5 -6 -179 0 -179 0 -5
6 -6 5 6 6 5 5 179 0 179 0 5 -5z m219 -3 c4 -3 6 -7 6 -13 2 -15 0 -22 -10
-33 -5 -6 -12 -14 -15 -18 -11 -14 -23 -19 -29 -10 -3 4 -3 8 1 34 6 42 8 45
29 45 10 0 14 -1 18 -5z m-396 -78 c12 -12 3 -31 -13 -31 -11 0 -18 7 -18 18
0 11 7 18 18 18 6 0 9 -1 13 -5z m-628 -43 c7 -6 7 -19 1 -25 -6 -7 -19 -7
-25 -1 -7 6 -7 19 -1 25 6 7 19 7 25 1z m800 -33 c7 -5 9 -10 11 -29 l1 -17
-6 -6 -6 -6 -179 0 -179 0 -6 6 -6 6 6 6 6 6 139 -1 138 0 12 5 c9 4 15 9 24
19 12 13 19 16 33 15 4 -1 10 -3 12 -4z m-891 -34 c14 -7 19 -34 9 -45 -3 -3
-7 -6 -9 -6 -5 0 -26 -11 -32 -16 -6 -6 -16 -19 -16 -22 0 -3 -8 -8 -19 -11
-29 -8 -40 -16 -57 -45 -6 -9 -10 -13 -19 -17 -18 -9 -30 -4 -38 13 -2 5 -4 9
-5 10 -1 1 -2 3 -3 6 -5 11 -22 17 -35 14 -9 -2 -32 -17 -34 -22 -4 -8 -2 -27
3 -38 6 -12 6 -16 1 -22 -7 -8 -14 -6 -27 8 -6 7 -11 10 -17 11 -21 4 -19 12
12 44 9 10 23 25 30 33 7 8 14 16 15 17 2 1 3 6 4 11 1 5 2 11 3 14 4 11 4 13
4 14 -1 1 10 7 14 7 2 1 7 2 11 2 4 1 10 3 13 5 4 3 14 3 65 4 l60 1 10 5 c6
3 13 9 17 13 13 15 26 19 40 12z m-241 -25 c3 -3 5 -6 5 -7 0 -2 1 -3 2 -3 3
-1 -5 -10 -9 -10 -8 -1 -10 0 -16 5 -13 13 3 27 18 15z m1052 -91 c3 -3 3 -3
0 -6 -4 -5 -11 1 -7 6 4 4 4 4 7 0z m312 -47 c4 -6 4 -24 -1 -30 -7 -9 -27 -9
-34 0 -5 6 -5 24 0 30 7 9 27 9 35 0z m-226 -41 l6 -6 -6 -6 c-6 -6 -7 -6 -18
-5 -14 1 -25 -2 -32 -9 -6 -7 -12 -23 -11 -36 0 -12 -6 -19 -18 -19 -12 0 -18
7 -18 19 1 21 -9 39 -24 43 -5 1 -47 2 -125 2 l-118 -1 -6 6 -6 6 6 6 6 6 179
0 179 0 6 -6z m-954 -61 c4 -6 4 -24 -1 -30 -7 -9 -27 -9 -34 0 -5 6 -5 24 0
30 7 9 27 9 35 0z m1042 -54 c11 -10 3 -28 -11 -28 -9 0 -16 6 -16 16 0 14 17
22 27 12z m-1202 -81 c5 -5 7 -20 3 -27 -3 -6 -13 -10 -23 -8 -11 2 -15 8 -15
20 0 14 6 20 20 20 8 0 11 -1 15 -5z m44 -74 c5 -8 1 -16 -8 -16 -9 0 -13 8
-8 16 5 6 12 6 16 0z m1088 -51 c4 -6 4 -24 -1 -30 -7 -9 -27 -9 -34 0 -5 6
-5 24 0 30 7 9 27 9 35 0z m-1140 -17 c3 -3 3 -3 0 -6 -4 -5 -11 1 -7 6 4 4 4
4 7 0z m-56 -9 c3 -6 3 -6 0 -12 -6 -9 -21 -5 -21 6 0 11 15 15 21 6z m604
-59 c2 -2 3 -5 2 -8 -1 -5 -23 -26 -34 -31 -15 -9 -31 -2 -31 13 0 14 4 17 40
27 11 3 20 2 23 -1z"/>
</g>
</svg>
