<?xml version="1.0" standalone="no"?>
<!DOCTYPE svg PUBLIC "-//W3C//DTD SVG 20010904//EN"
 "http://www.w3.org/TR/2001/REC-SVG-20010904/DTD/svg10.dtd">
<svg version="1.0" xmlns="http://www.w3.org/2000/svg"
 width="1100.000000pt" height="2850.000000pt" viewBox="0 0 1100.000000 2850.000000"
 preserveAspectRatio="xMidYMid meet">
<metadata>
Created by potrace 1.15, written by Peter Selinger 2001-2017
</metadata>
<g transform="translate(0.000000,2850.000000) scale(0.500000,-0.500000)"
fill="#000000" stroke="none">
<path d="M1046 3726 c-3 -1 -6 -1 -7 0 0 0 -1 0 -1 -2 0 -1 -1 -2 -3 -2 -5 0
-15 -13 -18 -25 -5 -16 -5 -1024 0 -1036 4 -9 14 -21 18 -21 2 0 3 -1 3 -2 0
-3 12 -3 105 -3 93 0 105 0 105 3 0 1 1 2 3 2 1 0 5 3 9 7 6 6 8 6 9 4 2 -5 2
-34 -1 -41 -1 -4 -2 -9 -3 -12 -1 -9 -17 -65 -23 -84 -4 -10 -7 -22 -8 -25 -8
-30 -51 -126 -72 -161 -3 -5 -6 -11 -6 -11 0 -1 -6 -11 -26 -41 -25 -39 -60
-82 -96 -118 -15 -16 -29 -31 -30 -33 -2 -6 -3 -21 0 -27 2 -6 3 -6 33 -36 28
-27 55 -56 75 -81 22 -26 20 -24 31 -40 5 -7 12 -15 15 -17 8 -4 26 -5 33 -1
10 5 57 55 86 90 4 5 9 11 10 12 1 1 8 10 15 19 6 9 13 18 14 19 7 9 44 66 44
68 0 1 3 6 7 11 3 6 10 18 15 27 5 9 9 17 10 18 1 1 2 3 2 5 0 2 1 3 4 3 1 0
5 -1 7 -1 3 0 7 -2 9 -4 9 -8 19 -12 37 -13 8 -1 11 -2 16 -7 13 -13 4 -38
-13 -38 -9 -1 -28 -9 -33 -15 -11 -11 -10 -26 0 -60 20 -63 59 -101 122 -120
38 -12 56 -7 64 16 2 3 3 8 4 10 1 2 2 5 2 7 2 9 13 11 18 3 2 -3 3 -6 2 -6 0
-1 0 -3 1 -4 1 -1 2 -4 3 -7 2 -12 9 -21 18 -26 8 -4 11 -4 54 -4 75 1 103 6
141 24 44 22 80 69 98 129 4 13 13 51 15 60 0 3 2 15 4 25 1 10 3 24 4 31 1 7
2 14 2 16 0 2 1 11 2 19 1 8 2 23 3 33 1 10 2 29 3 42 1 13 2 24 2 25 1 2 -9
25 -13 29 -6 7 -18 13 -45 23 -22 8 -59 26 -83 40 -15 9 -41 26 -42 28 -1 3
-25 -1 -30 -5 -10 -7 -10 -8 -13 -114 -1 -25 -2 -49 -2 -52 0 -3 -1 -14 -2
-23 -1 -14 -6 -53 -8 -61 -6 -28 -13 -33 -41 -32 -23 1 -30 7 -34 30 -1 5 -2
104 -2 218 0 125 -1 209 -2 210 -1 1 1 4 5 7 l8 6 87 0 87 0 10 5 c12 6 15 9
21 21 6 13 6 60 0 85 -3 13 -4 22 -3 31 0 7 1 19 2 27 1 11 1 17 -3 28 -5 18
-5 21 2 44 l6 21 0 200 c-1 189 -1 201 -5 208 -4 8 -16 19 -25 23 -9 4 -13 11
-16 29 -2 6 -4 12 -5 12 0 0 -1 1 0 2 1 2 -4 9 -16 23 -6 7 -7 10 -7 18 0 17
7 21 32 18 17 -1 31 6 36 21 4 16 5 25 5 132 1 98 1 112 -2 119 -4 9 -14 21
-18 21 -2 0 -3 1 -3 2 0 2 -1 3 -133 3 -135 1 -138 1 -150 -8 -6 -5 -15 -19
-19 -31 -3 -11 -10 -16 -23 -16 -13 0 -20 5 -23 16 -7 20 -17 33 -32 38 -8 2
-430 3 -438 0z m550 -170 c5 -5 5 -15 0 -20 -9 -9 -24 -2 -24 10 0 8 6 14 14
14 3 0 8 -2 10 -4z m14 -104 c0 -2 15 -10 19 -10 2 0 3 -1 2 -2 -2 -4 24 -18
33 -18 2 0 6 -2 9 -5 6 -4 6 -6 6 -20 0 -14 0 -16 -6 -20 -3 -3 -7 -5 -9 -5
-6 0 -26 -9 -32 -15 -2 -2 -6 -8 -8 -12 -4 -8 -4 -22 -4 -343 0 -230 1 -336 2
-337 1 -1 -1 -4 -5 -7 l-8 -6 -29 0 c-29 0 -29 0 -35 6 -5 5 -6 6 -5 15 1 11
-2 21 -6 24 -6 3 -25 2 -33 -3 -14 -9 -36 -5 -42 7 -5 8 -5 25 0 32 7 11 9 12
22 12 14 0 24 -5 26 -12 2 -5 7 -11 7 -7 0 1 4 2 12 2 7 0 12 -1 12 -2 0 -1 2
-1 4 0 6 5 10 17 13 50 2 17 3 35 4 40 1 10 3 33 4 58 1 9 2 24 2 32 1 8 2
111 2 228 1 194 1 213 -2 221 -4 9 -14 21 -18 21 -2 0 -3 1 -3 2 0 3 -12 3
-106 3 -94 0 -106 0 -106 -3 0 -1 -1 -2 -3 -2 -1 0 -5 -3 -8 -6 -13 -14 -13
-1 -14 -240 0 -119 -1 -222 -2 -228 0 -6 -2 -27 -3 -47 -1 -20 -3 -40 -3 -45
-3 -26 -8 -68 -11 -89 -2 -14 -4 -30 -4 -36 -1 -10 -1 -11 -1 -3 -1 7 -1 8 -5
5 -4 -5 -6 0 -6 20 0 16 -3 27 -11 35 -4 5 -26 16 -32 16 -12 0 -18 27 -8 37
3 3 6 5 8 5 7 0 28 11 34 18 9 11 9 13 9 154 -1 118 -1 134 -4 140 -16 33 -16
43 0 76 4 9 6 73 2 77 -1 1 -2 4 -2 6 0 4 -17 21 -21 21 -1 0 -3 1 -3 2 -3 8
-32 -2 -38 -13 -9 -14 -25 -19 -33 -10 -6 5 -19 49 -20 63 -2 18 5 27 23 27
13 0 15 -2 27 -19 10 -15 20 -22 28 -22 2 0 6 0 9 0 2 0 4 1 4 2 0 1 1 2 3 2
4 0 21 17 21 21 0 2 1 5 2 6 1 2 2 18 2 46 l-1 44 6 6 6 6 164 0 c89 0 163 -1
163 -1z m-493 -234 c5 -5 6 -7 6 -16 0 -15 -8 -23 -23 -23 -9 0 -11 1 -16 7
-9 8 -9 23 -1 32 9 9 24 9 34 0z m286 -253 c3 -5 3 -5 0 -10 -2 -3 -5 -5 -7
-5 -2 0 -5 2 -7 5 -3 5 -3 5 0 10 2 3 5 5 7 5 2 0 5 -2 7 -5z m54 -149 c8 -11
2 -34 -10 -37 -7 -2 -22 2 -25 7 -5 6 -5 24 0 30 7 9 27 9 35 0z m312 -56 c11
-10 3 -28 -11 -28 -9 0 -16 6 -16 16 0 14 17 22 27 12z m-357 -230 c13 -3 26
-6 28 -6 11 -2 15 -13 8 -19 -5 -5 -5 -5 -27 -2 -11 2 -24 3 -30 3 -17 0 -25
14 -15 25 6 6 8 6 36 -1z m144 -292 c5 -6 5 -12 0 -18 -7 -8 -22 -2 -22 9 0
11 15 17 22 9z m33 -154 c11 -10 3 -28 -11 -28 -9 0 -16 6 -16 16 0 14 17 22
27 12z"/>
<path d="M96 3700 c-3 -1 -6 -1 -7 0 0 0 -1 0 -1 -2 0 -1 -1 -2 -3 -2 -4 0
-14 -12 -18 -21 -5 -11 -5 -205 0 -216 4 -9 14 -21 18 -21 2 0 3 -1 3 -2 0 -2
1 -3 138 -3 l133 -1 6 -6 c4 -3 6 -6 5 -6 -1 0 -8 -53 -9 -70 0 -2 -3 -5 -6
-8 l-6 -6 -122 -1 c-126 0 -127 -1 -127 -3 0 -1 -1 -2 -3 -2 -4 0 -14 -12 -18
-21 -4 -11 -5 -1064 0 -1085 4 -17 4 -37 0 -54 -2 -10 -3 -34 -3 -115 0 -115
0 -113 15 -127 7 -6 9 -6 18 -6 9 1 21 7 25 13 2 2 16 9 19 9 3 0 17 -7 19 -9
2 -4 14 -11 22 -14 8 -3 14 -3 43 -2 38 1 39 1 39 3 0 1 1 2 3 2 4 0 14 12 18
21 2 6 3 13 3 24 -1 16 -1 16 5 22 l6 6 214 0 214 0 6 -6 c6 -6 6 -6 5 -22 0
-11 1 -18 3 -24 4 -9 14 -21 18 -21 2 0 3 -1 3 -2 0 -3 11 -3 93 -3 82 0 93 0
93 3 0 1 1 2 3 2 4 0 14 12 18 21 3 7 3 65 3 655 l0 647 -4 8 c-6 13 -19 19
-41 20 -14 1 -21 5 -24 14 -4 15 -10 28 -12 30 -2 1 -3 3 -3 4 0 1 -4 4 -8 7
l-9 5 -122 1 -121 1 -4 5 c-3 4 -3 5 5 38 5 18 9 35 10 37 0 2 3 6 6 9 l6 5
78 1 c80 2 83 2 83 4 0 1 3 3 7 5 4 1 9 6 12 10 3 5 7 11 10 15 6 10 12 13 25
13 13 0 18 -3 25 -13 3 -4 7 -10 10 -15 3 -4 8 -9 12 -10 4 -2 7 -4 7 -5 0 -2
9 -3 23 -3 15 0 23 1 23 3 0 1 1 2 3 2 4 0 14 12 18 21 4 11 5 167 0 181 -3 9
-15 32 -17 34 0 1 -4 4 -7 9 -3 4 -8 9 -12 10 -4 2 -7 4 -7 5 0 2 -1 2 -27 3
-21 1 -24 1 -42 -5 -19 -5 -38 -9 -42 -8 0 1 -2 0 -3 -1 0 -1 -4 -3 -7 -5 -7
-4 -16 -16 -17 -23 -1 -17 -10 -27 -23 -27 -14 0 -15 0 -21 6 -5 5 -6 7 -6 15
0 11 -5 29 -9 36 -2 3 -7 7 -12 9 l-9 4 -318 0 c-176 0 -321 -1 -324 -2z m756
-146 c5 -6 5 -12 0 -18 -7 -8 -22 -2 -22 9 0 11 15 17 22 9z m-263 -352 c4 -6
4 -24 -1 -30 -7 -9 -27 -9 -34 0 -5 6 -5 24 0 30 7 9 27 9 35 0z m-390 -74
c10 -9 3 -26 -10 -26 -8 0 -15 7 -15 15 0 13 16 20 25 11z m475 -6 c5 -5 5
-11 0 -16 -10 -10 -27 5 -16 16 4 4 12 4 16 0z m-351 -456 l0 -415 -5 -6 c-4
-3 -6 -7 -6 -7 0 -1 -3 -2 -6 -3 -3 -1 -8 -3 -10 -5 -23 -18 -46 -15 -46 5 0
7 6 17 10 17 2 -1 25 11 26 12 0 1 2 4 5 7 3 3 6 9 7 13 2 5 2 61 2 168 l-1
161 -5 9 c-4 6 -10 12 -22 20 -18 12 -20 16 -18 29 1 5 4 8 18 17 12 8 18 14
22 20 l5 9 0 182 0 182 6 6 6 6 6 -6 6 -6 0 -415z m214 421 l6 -6 0 -63 0 -63
-6 -6 c-5 -5 -8 -6 -16 -6 -6 0 -14 -3 -25 -8 -19 -9 -27 -10 -32 -5 -8 8 -2
19 14 25 9 4 21 18 24 27 1 4 2 25 2 53 l-1 46 6 6 c8 8 19 8 28 0z m208 0 l6
-6 0 -415 0 -415 -6 -6 c-4 -3 -7 -6 -8 -6 -1 0 -4 3 -8 6 l-6 6 0 415 0 415
6 6 c3 3 7 6 8 6 1 0 5 -3 8 -6z m-270 -248 c12 -12 3 -31 -13 -31 -11 0 -18
7 -18 18 0 11 7 18 18 18 6 0 9 -1 13 -5z m120 -13 c11 -10 3 -28 -11 -28 -9
0 -16 6 -16 16 0 14 17 22 27 12z m-58 -105 l6 -6 0 -50 0 -50 -6 -6 c-5 -5
-8 -6 -14 -6 -6 0 -9 1 -14 6 l-6 6 0 50 0 50 6 6 c8 8 19 8 28 0z m322 -114
c12 -7 14 -33 3 -43 -8 -9 -32 -9 -40 0 -9 8 -9 32 0 41 7 7 27 8 37 2z m-403
-49 c5 -6 4 -16 -3 -33 -7 -19 -11 -24 -25 -33 l-13 -9 0 -12 c1 -13 2 -18 6
-23 8 -7 0 -22 -11 -22 -11 0 -19 15 -11 23 2 1 3 4 3 5 0 1 1 2 2 2 1 0 2 2
3 4 1 2 2 4 3 3 1 -1 2 4 2 11 0 11 -1 13 -6 18 -3 3 -6 6 -7 6 -6 0 -12 21
-9 33 3 11 7 14 20 20 23 11 41 13 46 7z m81 -177 l6 -6 0 -62 c0 -35 -1 -63
-1 -63 -1 0 -4 -4 -6 -9 -3 -5 -6 -9 -6 -9 -3 0 -18 -17 -18 -19 0 -4 -13 -13
-20 -13 -20 0 -21 23 -1 43 7 8 12 21 11 33 -1 6 -1 21 0 34 0 13 1 32 1 44 0
20 0 21 6 27 8 8 19 8 28 0z m164 -209 c15 -12 9 -42 -8 -42 -16 0 -23 9 -23
27 0 17 18 25 31 15z m-294 -58 c4 -6 4 -24 -1 -30 -7 -9 -27 -9 -34 0 -5 6
-5 24 0 30 7 9 27 9 35 0z"/>
</g>
</svg>
