<?xml version="1.0" standalone="no"?>
<!DOCTYPE svg PUBLIC "-//W3C//DTD SVG 20010904//EN"
 "http://www.w3.org/TR/2001/REC-SVG-20010904/DTD/svg10.dtd">
<svg version="1.0" xmlns="http://www.w3.org/2000/svg"
 width="1000.000000pt" height="2850.000000pt" viewBox="0 0 1000.000000 2850.000000"
 preserveAspectRatio="xMidYMid meet">
<metadata>
Created by potrace 1.15, written by Peter Selinger 2001-2017
</metadata>
<g transform="translate(0.000000,2850.000000) scale(0.500000,-0.500000)"
fill="#000000" stroke="none">
<path d="M1182 3821 c-5 -2 -10 -4 -12 -4 -2 0 -7 -2 -12 -3 -5 -2 -10 -3 -11
-3 -1 0 -28 -8 -59 -17 -31 -9 -59 -17 -61 -17 -15 -3 -70 -20 -79 -24 -13 -6
-18 -14 -18 -28 0 -7 1 -12 3 -13 2 -2 4 -4 6 -5 3 -3 21 -9 31 -10 13 -2 18
-8 18 -19 0 -9 -8 -26 -12 -26 -3 0 -12 -10 -16 -18 -2 -4 -5 -14 -7 -22 -3
-16 -6 -20 -15 -20 -7 0 -13 5 -13 10 0 5 -3 12 -10 26 -3 7 -6 10 -13 13 l-9
5 -269 -1 c-148 0 -270 -1 -271 -1 -2 0 -3 -1 -3 -2 0 -1 -1 -2 -3 -2 -4 0
-14 -12 -18 -21 -2 -5 -3 -13 -3 -22 1 -26 11 -34 47 -36 20 -1 63 -13 68 -20
5 -5 8 -20 6 -28 -1 -6 -12 -11 -24 -11 -7 0 -14 2 -32 11 -12 6 -23 12 -24
13 -2 2 -23 -3 -29 -6 -2 -1 -5 -5 -7 -9 -4 -6 -5 -9 -5 -42 0 -34 0 -35 5
-46 5 -10 6 -11 20 -18 13 -6 14 -6 22 -4 4 2 10 4 12 4 7 2 11 3 10 5 0 0 2
6 4 12 3 6 5 14 6 18 1 4 3 8 6 11 5 3 6 3 16 0 17 -5 23 -13 23 -28 0 -13 -4
-18 -17 -22 -6 -2 -11 -4 -12 -5 -1 -1 -3 -2 -6 -2 -5 0 -12 -6 -10 -9 1 0 1
-1 0 -1 -2 0 -11 -17 -14 -26 -3 -10 -11 -16 -23 -17 -6 -1 -27 -10 -31 -14
-1 -2 -4 -5 -7 -8 -4 -6 -16 -8 -16 -4 0 8 -9 19 -16 21 -10 3 -26 2 -33 -1
-3 -2 -7 -3 -9 -3 -4 0 -10 7 -10 11 0 3 9 13 12 13 13 2 23 14 22 31 0 7 -3
15 -11 32 -14 30 -17 34 -28 39 -13 6 -23 5 -40 -3 -13 -6 -14 -8 -17 -16 -2
-6 -3 -9 -1 -10 1 0 0 -1 -1 -1 -2 0 -4 -1 -4 -1 0 -1 -9 -2 -20 -2 l-19 0
-48 -24 c-47 -23 -57 -29 -57 -34 0 -2 -1 -3 -2 -3 -1 -1 -3 -6 -4 -12 l-2
-12 16 -40 c25 -65 37 -100 58 -165 10 -32 15 -41 34 -56 16 -13 18 -16 18
-29 0 -9 -2 -15 -12 -36 -1 -4 -3 -12 -3 -19 0 -10 1 -12 8 -19 7 -7 10 -8 20
-9 10 -1 13 -1 21 4 23 12 62 33 104 54 12 7 23 13 23 14 1 2 3 1 7 -3 l5 -7
-1 -83 c0 -81 0 -83 -5 -91 -2 -4 -5 -8 -7 -9 -4 -2 -66 -32 -77 -37 -4 -2
-18 -9 -31 -15 -13 -5 -28 -13 -35 -15 -7 -3 -13 -6 -14 -7 -1 -1 -6 -3 -12
-6 -5 -2 -24 -10 -41 -17 -17 -8 -39 -18 -49 -22 -24 -10 -34 -20 -37 -35 l-3
-12 19 -62 c17 -58 23 -74 29 -78 1 -1 8 -2 16 -2 13 0 15 1 19 5 16 17 40 13
40 -6 0 -13 -8 -23 -26 -32 -25 -12 -36 -33 -29 -53 4 -12 6 -13 24 -14 14 0
15 0 20 6 3 3 5 7 5 8 0 3 12 8 24 9 12 1 20 2 32 4 5 1 9 4 23 12 4 3 10 6
12 7 2 1 5 3 7 4 7 5 30 18 39 23 l10 5 3 -4 c4 -5 4 -17 0 -27 -2 -5 3 -25 7
-27 1 -1 1 -2 0 -2 0 0 5 -6 12 -13 15 -14 16 -19 9 -35 -3 -7 -15 -17 -20
-17 -1 0 -7 -3 -15 -7 -12 -6 -29 -20 -29 -24 0 -4 -31 -75 -44 -100 -11 -23
-44 -79 -50 -87 -1 -1 -7 -9 -13 -18 -7 -9 -12 -16 -13 -17 -1 -1 -7 -8 -14
-17 l-12 -16 0 -14 c1 -15 6 -25 14 -28 2 -1 5 -3 7 -5 2 -1 8 -6 13 -10 24
-18 103 -94 127 -122 4 -5 12 -15 18 -21 l9 -11 15 0 c17 0 13 -3 42 28 23 25
58 74 60 85 1 4 1 15 0 24 -1 11 0 17 2 19 2 4 12 9 19 11 3 0 9 4 13 7 7 5
11 11 25 38 8 18 18 39 22 47 3 8 8 19 11 25 18 42 49 135 65 202 14 58 16 67
25 117 8 42 9 51 7 57 -3 11 -8 19 -17 26 -4 4 -10 9 -11 12 -4 5 -4 5 1 10 3
3 7 6 9 7 3 1 6 3 8 4 1 2 3 3 5 3 1 0 8 6 16 14 13 14 13 14 19 12 11 -3 27
-3 32 2 3 3 3 3 7 -1 2 -2 4 -6 5 -9 1 -2 2 -71 2 -158 0 -133 1 -155 3 -163
2 -6 8 -14 18 -25 15 -16 19 -26 15 -36 -1 -3 -1 -7 -1 -10 0 -3 1 -10 2 -16
0 -5 3 -14 6 -20 5 -10 6 -26 3 -34 -1 -3 -6 -8 -12 -12 -6 -4 -12 -8 -13 -9
-9 -6 -11 -10 -16 -18 l-5 -11 0 -94 c0 -81 0 -95 3 -101 4 -9 14 -21 18 -21
2 0 3 -1 3 -2 0 -3 13 -3 126 -3 113 0 126 0 126 3 0 1 1 2 3 2 4 0 14 12 18
21 3 7 3 22 3 126 0 114 0 119 -4 127 -2 4 -6 8 -9 10 -8 3 -27 6 -27 4 -1 -1
-6 -7 -12 -13 -6 -7 -12 -14 -14 -17 -12 -18 -40 -15 -40 5 0 8 7 23 10 23 1
0 2 5 2 12 0 14 -4 25 -10 27 -4 1 -12 13 -12 16 0 8 14 14 42 20 l14 3 10 -7
c7 -4 12 -6 19 -7 19 -1 24 3 26 17 2 10 8 23 12 28 4 4 5 5 6 1 1 -2 4 -6 7
-8 6 -7 16 -17 31 -35 7 -8 13 -15 14 -17 2 -1 5 -5 8 -9 9 -12 31 -14 49 -5
9 4 10 4 25 2 21 -3 28 -3 37 1 10 5 27 23 47 52 5 8 10 14 11 15 1 1 6 9 12
18 24 35 35 53 36 58 1 3 2 4 2 2 0 -2 3 -4 7 -6 3 -1 8 -4 11 -6 10 -9 20
-13 36 -12 14 0 20 -5 20 -17 0 -9 -6 -17 -18 -24 -3 -2 -6 -5 -6 -7 -1 -23
-1 -29 3 -33 15 -15 18 -32 8 -43 -3 -3 -7 -6 -9 -6 -3 0 -27 -10 -28 -12 0
-1 -2 -4 -4 -6 -10 -11 -10 -10 -10 -141 0 -107 0 -123 3 -130 4 -9 14 -21 18
-21 2 0 3 -1 3 -2 0 -3 13 -3 125 -3 112 0 125 0 125 3 0 1 1 2 3 2 4 0 14 12
18 21 3 6 3 19 3 84 0 80 0 84 -9 96 -4 6 -22 16 -30 18 -14 3 -20 8 -23 21
-2 6 -2 10 0 17 3 12 9 17 23 20 8 2 26 12 30 18 8 11 9 16 9 92 0 73 1 83 8
82 1 -1 2 1 2 3 0 4 0 4 3 1 2 -2 4 -3 5 -2 1 1 2 0 3 -1 2 -3 16 -3 21 0 2 1
6 7 9 14 7 15 12 19 27 19 14 0 23 -5 24 -13 0 -3 2 -7 3 -9 4 -5 -3 -22 -10
-28 -6 -4 -33 -6 -41 -2 -4 2 -5 2 -9 0 -5 -3 -6 -20 -3 -33 4 -16 61 -103 90
-138 2 -2 5 -7 8 -10 3 -4 9 -11 13 -16 4 -5 10 -11 12 -14 6 -8 11 -10 24
-10 17 -1 20 1 38 26 5 8 10 16 12 18 9 10 10 12 16 19 29 37 91 103 113 120
5 4 11 11 14 15 4 8 5 24 2 30 -1 1 -19 21 -41 43 -22 22 -49 51 -60 65 -11
14 -20 25 -21 26 -1 1 -6 8 -12 16 -6 8 -12 15 -15 16 -6 4 -32 3 -38 -1 -7
-5 -21 -4 -36 1 -23 8 -29 15 -29 33 0 13 3 17 20 26 16 8 20 14 22 27 0 10 0
12 -12 32 -7 12 -14 25 -17 30 -8 15 -27 32 -40 35 -9 2 -13 4 -14 6 0 2 -2 3
-4 3 -2 0 -3 2 -3 4 0 2 -1 4 -2 4 -1 0 -2 2 -3 5 -3 11 -6 15 -15 22 -17 12
-17 17 -2 35 5 5 9 12 10 18 3 11 1 24 -2 24 -1 0 0 2 3 6 l6 5 53 1 c29 1 53
1 53 2 13 10 23 24 23 32 0 0 3 4 6 7 l5 5 6 -6 c3 -3 5 -6 5 -7 0 -4 8 -19
13 -23 9 -8 15 -10 39 -10 27 0 36 2 47 13 14 14 17 34 8 64 -7 24 -9 30 -10
42 -2 11 -7 22 -11 22 -1 -1 -2 0 -2 1 0 2 -11 6 -13 4 -3 -2 -16 0 -20 5 -7
5 -6 15 0 21 6 5 16 5 20 0 1 -2 3 -3 4 -3 0 1 5 2 10 2 14 1 16 2 22 11 4 8
5 11 5 32 0 17 -1 25 -3 31 -4 9 -14 21 -18 21 -2 0 -3 1 -3 2 0 2 0 1 -21 3
-10 1 -22 0 -37 -2 -21 -3 -24 -3 -46 0 -20 3 -36 3 -113 3 l-90 -1 -6 6 -6 6
1 102 c0 90 0 103 -3 110 -4 11 -14 20 -24 23 -5 1 -6 2 -4 2 3 0 8 2 12 5 8
4 10 4 73 5 50 1 66 2 69 4 5 3 8 10 11 23 1 5 2 10 3 10 0 1 0 3 -2 4 -7 8 2
18 17 21 24 4 35 -2 37 -19 5 -42 28 -53 76 -35 12 5 25 8 28 8 3 0 14 -3 25
-7 17 -7 34 -9 34 -5 0 1 1 2 3 2 4 0 14 12 18 21 5 11 5 199 0 210 -4 9 -14
21 -18 21 -2 0 -3 1 -3 2 0 2 -2 2 -86 3 l-81 1 -20 -6 c-26 -7 -28 -7 -53 0
l-21 6 -171 0 -171 0 -7 5 c-5 4 -8 8 -10 14 -7 24 -47 112 -61 134 -8 13 -14
18 -24 22 -11 3 -22 3 -33 0z m55 -131 c6 -4 10 -12 10 -24 0 -12 -3 -18 -10
-23 -7 -5 -26 -5 -33 0 -10 6 -29 3 -44 -7 -13 -8 -14 -8 -30 -8 -9 0 -20 -1
-24 -1 -19 -2 -38 -2 -39 -1 -1 1 -2 2 -3 1 -1 -1 -2 0 -2 1 0 1 -1 2 -2 1 0
0 -1 1 -1 3 0 6 17 21 29 26 6 2 18 7 26 10 15 6 32 8 35 4 2 -3 29 -1 36 2 2
1 7 6 11 9 11 10 28 13 41 7z m-187 -66 c3 -2 5 -4 5 -5 -1 -5 -4 -11 -5 -11
-1 0 -2 -1 -2 -2 0 -4 -13 -20 -17 -21 -21 -5 -31 2 -31 20 0 13 4 19 14 21 9
2 31 0 36 -2z m-198 -29 c13 -5 18 -18 10 -27 -5 -5 -11 -5 -23 1 -14 7 -19
19 -12 27 4 5 13 4 25 -1z m115 -62 c12 -7 14 -33 3 -43 -8 -9 -32 -9 -40 0
-9 8 -9 32 0 41 7 7 27 8 37 2z m280 -33 c0 -12 1 -28 2 -36 l2 -16 -7 -6 c-5
-5 -7 -6 -16 -6 -12 0 -19 4 -27 15 -3 4 -12 12 -19 16 -24 16 -29 23 -20 31
5 5 7 5 20 0 24 -8 38 -4 44 11 1 5 5 10 8 14 5 5 5 5 9 1 3 -3 4 -7 4 -24z
m-647 5 c3 -3 4 -7 4 -14 0 -13 -6 -19 -19 -19 -13 0 -19 6 -19 19 0 7 1 11 4
14 7 8 23 8 30 0z m-97 -11 c10 -9 3 -26 -10 -26 -13 0 -22 18 -13 26 7 5 18
5 23 0z m239 -51 c4 -4 6 -14 4 -20 -1 -4 3 -18 7 -26 5 -10 13 -14 31 -15 13
-1 16 -2 20 -7 3 -3 5 -5 4 -5 -1 0 -2 -2 -2 -4 0 -2 -1 -4 -2 -5 -1 0 -2 -3
-3 -6 -1 -5 -8 -23 -13 -36 -20 -46 -27 -63 -34 -77 -5 -9 -11 -21 -13 -27 -3
-5 -9 -17 -13 -25 -15 -28 -18 -33 -20 -45 -2 -11 -2 -14 1 -23 2 -5 4 -10 5
-11 2 -1 10 -26 10 -31 0 -10 -13 -15 -23 -9 -7 4 -34 6 -40 3 -4 -2 -22 -26
-25 -34 -1 -2 -2 -2 -2 1 0 2 -1 3 -2 2 -6 -4 -7 9 -8 169 l-1 159 6 6 6 6 23
-1 c28 0 36 2 43 15 4 8 8 22 7 26 -2 6 0 16 4 20 7 8 23 8 30 0z m842 -6 l-5
-5 -4 4 -5 5 4 4 5 5 4 -4 5 -5 -4 -4z m-499 -3 c2 -1 4 -7 6 -13 5 -15 11
-25 21 -32 l9 -6 80 -1 c78 -1 80 -1 88 -5 4 -3 9 -5 12 -5 2 0 1 -1 -4 -2
-18 -4 -27 -21 -27 -47 1 -17 3 -23 11 -28 5 -2 29 -5 29 -2 0 4 15 13 26 16
20 5 33 -3 33 -21 0 -5 -1 -11 -2 -12 -3 -3 -8 -17 -12 -31 -2 -9 -2 -12 0
-21 5 -17 4 -27 -1 -32 -2 -3 -4 -4 -4 -3 0 1 -2 3 -4 4 -5 2 -9 9 -15 24 -4
10 -9 13 -26 13 -16 0 -22 -4 -29 -23 -4 -11 -5 -15 -5 -42 l0 -30 -6 -6 -6
-6 -70 0 c-55 1 -73 0 -82 -2 -14 -4 -31 -4 -45 -1 -15 3 -17 4 -21 4 -5 0
-20 11 -17 12 2 1 19 35 37 72 9 19 8 28 -3 50 -5 8 -8 17 -8 20 0 6 7 13 15
15 14 3 16 3 20 5 6 4 7 6 7 17 0 15 -2 19 -13 25 -8 3 -73 22 -87 25 -1 0 -6
2 -9 3 -3 1 -9 2 -13 2 -5 0 -6 1 -3 2 2 0 4 2 4 4 0 3 3 4 27 6 17 1 20 2 28
7 10 7 16 17 21 32 2 6 5 12 6 13 7 6 25 6 32 0z m-892 -28 c5 -8 5 -8 2 -13
-5 -6 -8 -6 -13 -1 -5 5 -5 5 -1 15 4 10 5 10 12 -1z m312 -61 c12 -7 14 -33
3 -43 -8 -9 -32 -9 -40 0 -9 8 -9 32 0 41 7 7 27 8 37 2z m-325 -80 l-5 -5 -4
4 -5 5 4 4 5 5 4 -4 5 -5 -4 -4z m797 -80 c3 -3 3 -3 0 -6 -3 -3 -3 -3 -6 0
-3 2 -3 3 -1 6 4 4 4 4 7 0z m-488 -50 c2 -1 5 -8 8 -14 6 -13 15 -23 27 -28
10 -5 16 -11 16 -17 0 -6 -7 -20 -10 -20 -1 0 -8 -6 -15 -13 -20 -18 -22 -19
-34 -19 -14 0 -20 5 -23 18 -2 9 0 27 5 38 2 6 5 28 5 43 0 12 13 20 21 12z
m444 -14 c4 -4 5 -7 5 -13 0 -11 -7 -18 -18 -18 -11 0 -18 7 -18 18 0 11 7 18
18 18 6 0 9 -1 13 -5z m456 -4 c3 -5 3 -5 0 -10 -2 -3 -5 -5 -7 -5 -2 0 -5 2
-7 5 -3 5 -3 5 0 10 2 3 5 5 7 5 2 0 5 -2 7 -5z m-399 -153 c0 -66 1 -79 3
-85 4 -9 14 -21 18 -21 2 0 3 -1 3 -2 0 -2 1 -2 99 -4 l93 -1 4 -5 c3 -5 3 -5
-4 -21 -12 -27 -10 -38 10 -57 13 -12 14 -14 14 -22 0 -6 -1 -9 -5 -13 -5 -5
-6 -5 -16 -4 -5 1 -14 2 -18 2 -10 2 -23 -2 -30 -7 -3 -3 -9 -12 -14 -22 -5
-9 -11 -20 -13 -23 -2 -3 -6 -10 -9 -16 -6 -11 -10 -16 -23 -38 -5 -8 -12 -20
-16 -27 -4 -7 -8 -14 -9 -16 -6 -7 -9 -26 -8 -47 2 -32 -1 -36 -30 -38 -9 0
-18 -2 -19 -2 -1 -1 -4 -2 -6 -2 -6 -1 -17 -9 -21 -13 -7 -11 -28 -31 -35 -34
-33 -14 -48 21 -18 43 10 8 16 15 23 30 6 11 7 81 2 107 -3 18 -3 41 1 64 1 8
2 77 2 169 0 157 1 174 7 184 2 2 3 6 3 9 0 4 0 4 6 -3 l6 -8 0 -77z m230 78
c5 -6 5 -12 0 -18 -7 -8 -22 -2 -22 9 0 11 15 17 22 9z m344 -2 c2 -1 6 -5 8
-8 12 -18 33 -31 52 -32 1 0 4 -2 7 -5 7 -7 7 -23 0 -30 -8 -8 -22 -7 -32 2
-5 3 -8 7 -9 8 -1 2 -18 10 -25 12 -3 0 -11 1 -18 2 -13 1 -18 3 -22 10 -6 10
-5 30 3 38 7 6 26 8 36 3z m-981 -63 c8 -13 1 -27 -14 -27 -11 0 -17 6 -17 17
0 12 6 17 18 17 7 -1 10 -2 13 -7z m-97 -34 l-5 -5 -4 4 -5 5 4 4 5 5 4 -4 5
-5 -4 -4z m199 -15 c16 -16 16 -17 33 -25 9 -5 16 -10 19 -15 l6 -8 -4 -13
c-4 -11 -5 -12 -20 -23 -9 -5 -19 -13 -23 -16 -11 -10 -20 -14 -30 -15 -12 0
-21 4 -25 12 -4 7 -5 24 -1 31 8 15 11 36 5 49 -5 12 -4 24 2 30 4 4 7 5 15 5
10 0 11 0 23 -12z m128 -15 c7 -7 7 -23 0 -30 -7 -8 -23 -7 -31 1 -7 6 -7 13
-3 23 3 8 8 11 20 11 7 0 10 -1 14 -5z m502 -111 c10 -9 3 -26 -10 -26 -8 0
-15 7 -15 15 0 13 16 20 25 11z m321 -91 c2 -2 3 -8 3 -19 0 -12 2 -20 5 -29
16 -42 18 -52 10 -60 -11 -11 -30 -4 -41 16 -8 13 -10 21 -12 62 -1 23 -1 24
3 28 8 7 26 8 32 2z m-779 -22 c3 -4 6 -13 9 -27 2 -11 -6 -16 -24 -16 -14 -1
-20 2 -42 16 -19 11 -23 19 -16 28 3 4 5 4 31 4 29 1 35 0 42 -5z m56 -54 c10
-12 -7 -29 -19 -17 -2 2 -5 6 -6 9 -5 12 16 19 25 8z m-493 -12 l-5 -5 -4 4
-5 5 4 4 5 5 4 -4 5 -5 -4 -4z m711 -80 c3 -3 3 -3 0 -6 -3 -3 -3 -3 -6 0 -3
2 -3 3 -1 6 4 4 4 4 7 0z m-266 -19 c5 -5 6 -7 6 -16 0 -9 -1 -11 -7 -16 -5
-6 -7 -7 -16 -7 -9 0 -11 1 -16 7 -9 8 -9 23 -1 32 9 9 24 9 34 0z m686 -24
c5 -5 6 -7 6 -16 0 -11 -7 -23 -14 -25 -5 -2 -21 3 -26 9 -8 8 -8 24 0 32 9 9
24 9 34 0z m203 -80 c5 -5 6 -7 6 -17 0 -10 -1 -12 -6 -17 -5 -5 -7 -6 -17 -6
-13 0 -19 4 -23 16 -5 17 5 30 23 30 10 0 12 -1 17 -6z m-249 -11 c4 -4 5 -7
5 -13 0 -11 -7 -18 -18 -18 -11 0 -18 7 -18 18 0 11 7 18 18 18 6 0 9 -1 13
-5z m296 -84 c7 -4 10 -11 10 -23 0 -20 -8 -27 -30 -27 -20 0 -29 7 -29 23 0
7 6 19 12 25 8 7 27 8 37 2z m-1440 -75 c5 -5 6 -7 6 -16 0 -9 -1 -11 -7 -16
-5 -6 -7 -7 -16 -7 -9 0 -11 1 -16 7 -9 8 -9 23 -1 32 9 9 24 9 34 0z m402
-15 c3 -3 3 -3 0 -6 -3 -3 -3 -3 -6 0 -3 2 -3 3 -1 6 4 4 4 4 7 0z m622 -90
c3 -3 3 -3 0 -6 -3 -3 -3 -3 -6 0 -3 2 -3 3 -1 6 4 4 4 4 7 0z m-1109 -76 c3
-3 4 -7 4 -14 0 -13 -6 -19 -19 -19 -13 0 -19 6 -19 19 0 7 1 11 4 14 7 8 23
8 30 0z m1111 -17 c10 -9 3 -26 -10 -26 -8 0 -15 7 -15 15 0 13 16 20 25 11z
m-25 -84 c5 -5 5 -11 0 -16 -10 -10 -27 5 -16 16 4 4 12 4 16 0z m-609 -5 c3
-5 3 -5 0 -10 -2 -3 -5 -5 -7 -5 -2 0 -5 2 -7 5 -3 5 -3 5 0 10 2 3 5 5 7 5 2
0 5 -2 7 -5z"/>
</g>
</svg>
