<?xml version="1.0" standalone="no"?>
<!DOCTYPE svg PUBLIC "-//W3C//DTD SVG 20010904//EN"
 "http://www.w3.org/TR/2001/REC-SVG-20010904/DTD/svg10.dtd">
<svg version="1.0" xmlns="http://www.w3.org/2000/svg"
 width="1100.000000pt" height="2850.000000pt" viewBox="0 0 1100.000000 2850.000000"
 preserveAspectRatio="xMidYMid meet">
<metadata>
Created by potrace 1.15, written by Peter Selinger 2001-2017
</metadata>
<g transform="translate(0.000000,2850.000000) scale(0.500000,-0.500000)"
fill="#000000" stroke="none">
<path d="M566 3820 c-25 -8 -36 -31 -33 -72 2 -28 2 -31 -4 -47 -12 -32 -12
-31 -9 -41 1 -5 4 -11 6 -13 2 -3 14 -10 19 -10 0 0 2 -1 3 -1 0 0 4 -1 7 -1
10 0 13 -14 4 -20 -2 -1 -4 -1 -8 1 -3 2 -7 2 -14 1 -24 -4 -29 -7 -33 -26 -3
-9 -10 -21 -14 -21 -2 0 -4 3 -31 39 -9 11 -18 23 -21 26 -3 3 -7 9 -9 12 -2
3 -5 7 -7 10 -2 2 -13 16 -24 30 -12 14 -21 26 -22 27 -1 1 -5 6 -9 11 -4 6
-8 10 -9 11 -1 1 -6 7 -12 14 -16 20 -30 26 -48 20 -6 -2 -14 -12 -20 -26 -7
-17 -12 -21 -28 -23 -20 -1 -32 -7 -43 -21 -12 -15 -14 -17 -29 -22 -7 -3 -14
-6 -15 -7 -1 -2 -3 -3 -3 -2 -2 1 -2 0 -3 -20 -1 -13 -1 -16 2 -19 4 -4 4 -5
0 -15 -6 -19 -1 -40 12 -47 9 -4 13 -10 15 -27 3 -21 6 -29 18 -47 6 -8 11
-15 12 -16 1 -1 4 -5 7 -10 3 -5 7 -9 8 -10 1 0 -6 -8 -10 -10 0 0 -14 -1 -32
-2 -37 -2 -37 -2 -37 -4 0 -1 -1 -2 -3 -2 -4 0 -14 -12 -18 -21 -5 -13 -4
-159 1 -184 2 -10 5 -19 6 -20 1 -2 4 -6 6 -10 2 -3 8 -9 13 -12 l10 -6 85 -1
85 0 10 5 c11 5 14 9 22 24 5 8 5 9 2 20 -3 11 -12 27 -15 27 0 0 -5 4 -11 9
-9 9 -11 10 -18 10 -18 0 -27 -1 -29 -4 -8 -7 -22 1 -19 11 4 15 1 31 -8 46
-14 22 -8 40 13 40 19 0 26 -17 16 -35 -4 -9 -6 -36 -2 -43 4 -8 32 -3 41 7 7
8 14 11 26 12 13 1 26 5 41 13 25 13 42 7 42 -15 0 -15 -4 -19 -26 -24 -9 -2
-18 -5 -18 -6 -3 -3 -2 -26 0 -32 1 -2 5 -7 9 -9 10 -6 14 -12 14 -26 0 -15
-3 -18 -17 -27 -7 -4 -13 -9 -14 -9 0 -1 -1 -2 -3 -2 -5 0 -17 -17 -29 -42
-15 -31 -21 -35 -45 -36 -15 -1 -22 -4 -45 -17 -10 -6 -15 -8 -22 -8 -7 0 -12
2 -22 8 -29 16 -27 16 -68 17 -54 0 -61 -3 -63 -27 -1 -10 -1 -14 2 -19 6 -12
4 -16 -9 -30 -22 -21 -25 -35 -13 -51 5 -7 27 -19 35 -19 2 0 7 -1 10 -3 15
-8 14 -43 -1 -49 -3 -1 -10 -3 -16 -5 -11 -4 -18 -10 -22 -20 -3 -8 -4 -21 -1
-21 1 0 3 -3 6 -7 2 -4 7 -9 11 -10 4 -2 7 -4 7 -5 0 -1 1 -1 3 -2 1 0 4 0 7
-1 3 0 9 1 14 3 10 4 12 8 27 36 4 7 7 9 15 10 19 2 26 -4 26 -20 0 -7 -1 -13
-3 -15 -4 -6 -23 -13 -45 -16 -5 -1 -8 -4 -8 -8 0 -2 -1 -4 -3 -4 -1 -1 -11
-10 -21 -19 -11 -10 -22 -20 -26 -23 -4 -3 -9 -8 -12 -10 -4 -5 -30 -24 -51
-39 -17 -13 -19 -36 -4 -54 9 -11 19 -26 35 -49 9 -12 17 -23 18 -25 1 -1 11
-16 22 -33 24 -38 22 -35 33 -54 20 -36 39 -47 61 -37 8 3 39 26 42 30 1 1 4
3 7 5 4 1 8 5 10 8 2 2 11 9 19 15 8 6 20 15 25 19 21 18 46 21 53 6 4 -7 3
-25 -1 -35 -8 -17 -12 -18 -59 -16 -28 1 -44 -25 -27 -44 4 -4 9 -8 10 -8 2 0
3 -1 3 -2 0 -2 1 -2 49 -4 45 -1 45 -1 50 -6 4 -5 4 -6 2 -11 -31 -72 -28 -93
16 -108 32 -11 33 -15 15 -50 -15 -31 -21 -36 -28 -27 -2 4 -3 7 -3 11 1 4 0
12 -2 18 -6 21 -23 26 -53 17 -8 -2 -14 -5 -14 -6 0 -1 -2 -2 -4 -3 -2 -1 -8
-8 -14 -15 -17 -22 -45 -50 -70 -69 -2 -2 -5 -5 -7 -6 -1 -1 -11 -9 -22 -17
-34 -23 -71 -44 -129 -71 -9 -4 -16 -8 -16 -9 0 -1 -1 -2 -2 -1 -3 2 -6 -11
-6 -23 0 -10 0 -11 12 -23 19 -18 41 -43 52 -58 1 -1 7 -9 13 -17 6 -8 14 -18
18 -22 9 -10 16 -20 22 -34 5 -10 7 -13 14 -16 10 -5 24 -5 30 -1 7 4 16 22
22 41 6 18 12 24 23 24 8 0 11 -3 19 -18 8 -15 13 -18 28 -20 12 -1 13 -1 18
4 9 8 10 10 18 28 5 9 10 18 11 19 2 2 12 3 24 3 25 2 34 5 51 21 l11 11 0 14
c-1 14 -2 16 -9 25 -10 13 -10 26 0 45 l8 13 0 24 c0 21 1 25 4 29 5 6 15 5
21 -1 5 -5 5 -7 0 -30 -6 -29 8 -53 31 -53 17 0 18 0 43 33 8 9 10 11 17 11 6
-1 6 -1 25 -40 8 -16 24 -34 43 -47 22 -16 28 -21 32 -28 7 -15 3 -22 -16 -32
l-11 -5 0 -17 c0 -16 0 -17 5 -22 6 -5 27 -14 37 -16 7 -1 94 -1 112 0 60 5
71 8 83 25 16 22 22 26 33 20 8 -5 22 -10 29 -11 9 -1 26 5 33 12 2 1 7 5 13
9 24 16 50 49 65 81 24 50 42 140 53 263 1 11 -3 22 -9 29 -5 5 -22 12 -34 12
-16 1 -24 6 -28 20 -2 10 -1 38 2 45 2 7 12 12 23 13 7 1 11 3 15 8 4 3 11 8
15 11 11 7 18 13 23 23 6 10 6 13 7 33 1 16 1 18 -7 41 -9 27 -9 37 -1 46 8
10 32 11 41 2 9 -8 12 -44 4 -54 -2 -3 -4 -7 -4 -8 0 -2 -1 -3 -2 -3 -4 0 -8
-12 -9 -25 -1 -11 -1 -13 3 -17 3 -3 8 -8 11 -13 6 -9 15 -13 27 -13 12 0 16
3 45 32 29 29 31 33 34 59 2 15 5 18 20 20 16 2 31 7 33 11 2 3 2 3 2 0 0 -6
2 -5 15 5 13 9 31 16 33 12 1 -1 2 0 2 2 0 5 3 8 21 20 7 5 15 11 17 13 6 5
17 10 25 11 10 1 18 -13 10 -19 -2 -1 -3 -4 -3 -5 0 -2 -1 -3 -1 -3 -7 -3 -20
-29 -22 -43 -3 -14 -10 -20 -27 -20 -12 0 -20 3 -20 9 0 2 -1 2 -1 1 -1 -2 -6
-3 -13 -3 -12 0 -13 -1 -19 -7 l-7 -7 0 -33 c0 -26 1 -34 3 -40 4 -9 14 -21
18 -21 2 0 3 -1 3 -2 0 -2 2 -2 98 -3 90 -1 94 -1 102 3 16 7 25 21 24 41 0
10 4 24 10 33 1 2 5 8 8 14 l5 11 1 79 c0 43 0 82 -1 86 -2 9 -11 19 -22 22
-12 3 -13 3 -14 4 -1 0 -4 0 -7 0 -7 0 -14 6 -14 14 0 8 7 14 14 14 3 0 6 0 7
0 0 0 2 1 3 1 30 8 34 14 34 50 0 12 -1 25 -2 29 -3 8 -10 14 -13 13 -2 0 -3
0 -3 1 0 1 -5 1 -10 1 -6 0 -10 1 -10 2 0 1 -1 0 -3 -3 -5 -6 -19 -6 -25 1 -6
6 -6 19 1 25 6 6 20 6 24 0 2 -3 3 -4 3 -3 0 1 4 2 10 2 5 0 10 0 10 1 0 1 1
1 3 1 3 -1 10 5 13 13 1 4 2 25 2 63 0 73 -1 77 -28 82 -4 1 -8 2 -9 3 -2 2
-3 2 -3 0 0 -4 -7 -2 -10 3 -6 8 0 22 15 36 35 34 34 33 34 73 0 30 0 32 -5
39 -4 6 -8 8 -14 10 -1 0 -2 1 -4 1 -10 4 -15 5 -19 4 -6 -2 -18 1 -21 6 -5 6
-5 24 0 30 3 5 15 8 21 6 4 -1 9 0 19 4 2 0 3 1 4 1 6 2 10 4 14 10 5 7 5 10
6 36 0 25 -2 45 -6 45 -1 0 -3 2 -6 4 -3 2 -6 4 -7 4 -1 0 -6 1 -11 2 -6 1
-10 1 -10 0 0 -1 -5 -2 -11 -2 -9 0 -12 1 -16 5 -5 4 -5 6 -5 29 0 17 -1 29
-3 39 -2 11 -3 15 -1 22 4 15 11 19 32 20 25 1 38 8 42 24 3 12 1 27 -5 40 -7
15 -11 25 -10 27 1 1 1 2 0 2 -2 0 -6 7 -8 16 -2 7 -14 17 -24 20 -5 2 -17 2
-30 2 -24 -1 -20 0 -54 -18 -16 -8 -20 -8 -40 4 -22 13 -28 15 -44 9 -26 -10
-42 -21 -50 -37 -4 -9 -4 -11 -4 -76 0 -75 -1 -68 15 -96 8 -14 8 -24 0 -38
-13 -22 -15 -28 -16 -45 -1 -21 3 -30 21 -48 18 -18 18 -22 0 -40 -20 -20 -21
-24 -21 -67 0 -38 1 -42 12 -64 9 -16 9 -24 0 -40 -13 -25 -12 -17 -12 -157 0
-71 1 -129 1 -130 2 -1 2 -2 3 -8 0 -2 1 -3 3 -3 2 0 3 -1 3 -2 0 -3 10 -7 19
-9 4 -1 9 -2 9 -4 1 -1 2 -1 2 2 0 5 9 4 13 -2 3 -5 3 -6 1 -11 -4 -6 -14 -8
-14 -3 0 3 -1 3 -2 2 0 -2 -5 -3 -9 -4 -8 -1 -19 -6 -19 -9 0 0 -4 -4 -9 -7
-5 -3 -10 -7 -11 -9 -2 -3 -2 -3 -2 0 0 2 -3 6 -7 10 -19 18 -32 31 -34 36 -6
11 -13 21 -28 37 -8 9 -17 19 -20 23 -3 3 -7 6 -9 6 -2 0 0 2 5 5 7 5 15 7 47
9 1 1 2 1 2 2 0 0 3 2 6 4 6 3 9 10 8 23 -1 4 0 7 1 8 1 0 1 1 -1 1 -2 0 -4 1
-4 2 -1 2 -25 13 -25 12 -2 -3 -11 10 -11 15 0 5 6 15 10 15 3 -1 26 11 30 16
9 9 10 17 10 78 0 48 -1 59 -3 65 -4 9 -14 21 -18 21 -2 0 -3 1 -3 2 0 1 -1 2
-2 2 -8 2 -269 2 -276 0 -10 -3 -21 -12 -26 -23 -11 -24 -25 -24 -36 0 -5 11
-16 20 -25 23 -10 3 -50 3 -67 0 -7 -1 -19 -2 -26 -2 -7 0 -19 1 -26 2 -7 1
-29 2 -49 2 l-35 0 -6 6 c-3 3 -5 6 -4 7 1 1 6 16 12 32 15 43 9 40 86 42 32
1 68 1 78 1 43 -2 55 -1 62 3 8 4 15 12 19 19 12 24 14 25 23 29 20 8 35 -1
48 -30 3 -6 10 -14 18 -18 7 -4 11 -4 83 -4 76 0 87 0 87 3 0 1 1 2 3 2 4 0
14 12 18 21 5 13 3 44 -5 53 -16 20 -19 27 -16 34 2 5 9 15 16 24 8 9 11 44 5
62 -4 12 -15 23 -26 29 -9 4 -21 2 -40 -7 -31 -14 -45 -1 -36 34 1 4 12 22 16
27 1 1 11 16 22 32 11 17 21 32 23 35 32 47 32 62 -5 91 -13 10 -20 29 -15 45
2 6 -2 25 -7 34 -5 7 -15 12 -41 19 -12 3 -27 7 -34 9 -34 11 -57 -4 -64 -39
-3 -18 -6 -24 -11 -27 -4 -3 -5 -3 -17 2 -23 10 -35 8 -47 -10 -5 -7 -17 -25
-27 -40 l-18 -28 1 -11 c0 -8 2 -13 5 -17 2 -3 6 -8 8 -13 l4 -7 -4 -6 c-2 -3
-6 -6 -8 -6 -2 0 -4 -1 -4 -2 0 -1 -1 -2 -3 -2 -1 0 -5 -2 -7 -5 -14 -16 -15
-23 -7 -38 6 -12 22 -27 29 -27 3 0 4 -1 2 -1 -1 -1 -5 -3 -7 -6 -6 -5 -4 -5
-61 -5 l-48 0 -5 5 c-3 3 -7 5 -8 5 -1 0 -1 1 1 2 1 1 3 7 3 14 1 10 3 17 10
30 10 19 14 30 16 43 1 4 2 9 2 11 6 29 22 112 26 139 0 3 2 11 3 18 6 37 7
46 3 57 -5 15 -8 18 -22 18 -15 0 -17 -2 -28 -24 -9 -19 -12 -22 -27 -22 -13
0 -22 7 -22 18 0 8 -9 31 -13 36 -8 8 -19 12 -45 15 -51 6 -94 11 -94 11 -1 0
-4 -1 -8 -2z m187 -154 c4 -6 4 -24 -1 -30 -7 -9 -27 -9 -34 0 -5 6 -5 24 0
30 7 9 27 9 35 0z m-93 -6 c7 -8 5 -15 -12 -41 -3 -5 -6 -11 -6 -12 0 -1 -3
-5 -6 -10 -11 -13 -28 -7 -27 9 0 7 7 20 13 26 2 2 5 7 8 12 10 19 22 25 30
16z m-307 -44 c4 -1 16 -2 25 -3 17 -1 24 -5 24 -11 0 -6 -8 -14 -19 -19 -6
-3 -16 -9 -22 -12 -18 -11 -28 -13 -41 -8 -12 5 -18 21 -14 36 5 18 21 24 47
17z m214 -77 c7 -7 7 -23 0 -30 -6 -6 -22 -7 -29 -1 -9 7 -8 28 1 34 8 4 23 2
28 -3z m-90 -51 c1 -2 1 -9 0 -16 -1 -6 -1 -12 -1 -13 -1 -1 -4 -4 -8 -7 -11
-10 -45 -8 -55 2 -3 4 -3 4 1 4 2 0 5 1 6 3 1 1 10 7 20 13 9 6 19 12 22 14 6
5 13 5 15 0z m536 -31 c5 -8 1 -16 -8 -16 -9 0 -13 8 -8 16 2 3 5 5 8 5 3 0 6
-2 8 -5z m-270 -28 c7 -5 6 -12 -1 -22 -7 -8 -16 -10 -23 -3 -10 9 -4 24 9 27
9 1 10 1 15 -2z m-190 -72 c6 -3 12 -7 15 -9 25 -18 54 -25 73 -19 24 8 37 2
37 -18 0 -9 -1 -12 -5 -16 -6 -6 -21 -7 -31 -2 -12 6 -29 8 -43 5 -20 -4 -23
-3 -37 9 -13 13 -23 17 -43 18 -18 2 -23 6 -23 18 0 6 1 9 5 12 10 10 36 11
52 2z m842 -38 c12 -12 3 -31 -13 -31 -11 0 -18 7 -18 18 0 11 7 18 18 18 6 0
9 -1 13 -5z m-374 -5 c8 -8 8 -24 -1 -33 -8 -8 -24 -8 -33 1 -8 8 -8 23 0 32
9 9 24 9 34 0z m-496 -73 c12 -12 3 -31 -13 -31 -11 0 -18 7 -18 18 0 11 7 18
18 18 6 0 9 -1 13 -5z m45 -74 c2 -2 5 -8 7 -12 4 -11 11 -25 13 -29 3 -6 2
-16 -2 -20 -9 -9 -24 -2 -24 11 0 6 -1 12 -3 20 -3 14 -3 29 -1 32 3 4 5 4 10
-2z m883 -70 c3 -5 3 -5 0 -10 -2 -3 -5 -5 -7 -5 -2 0 -5 2 -7 5 -3 5 -3 5 0
10 2 3 5 5 7 5 2 0 5 -2 7 -5z m-962 -38 c19 -9 26 -29 14 -41 -10 -10 -45 -1
-56 16 -8 11 -2 31 11 32 7 1 23 -2 31 -7z m-125 -26 c2 -2 4 -8 6 -12 7 -24
21 -37 54 -49 9 -3 26 -9 37 -13 27 -10 29 -10 48 -4 23 7 34 7 41 -1 8 -8 8
-20 0 -42 -11 -30 -19 -40 -33 -41 -13 -1 -23 5 -46 30 -12 13 -23 23 -24 23
-2 0 -3 1 -3 2 0 4 -24 7 -33 5 -8 -3 -24 -2 -31 0 -6 2 -16 17 -16 22 0 3 -1
5 -2 6 -1 0 -2 3 -3 6 -1 6 -19 33 -21 33 -1 0 -3 3 -5 7 -5 9 -4 22 1 28 7 8
23 8 30 0z m1103 -15 c7 -6 7 -19 1 -25 -6 -7 -19 -7 -25 -1 -7 6 -7 19 -1 25
6 7 19 7 25 1z m-772 -24 c10 -9 3 -26 -10 -26 -8 0 -15 7 -15 15 0 13 16 20
25 11z m244 -1 c3 -5 3 -5 0 -10 -2 -3 -5 -5 -7 -5 -2 0 -5 2 -7 5 -3 5 -3 5
0 10 2 3 5 5 7 5 2 0 5 -2 7 -5z m201 -11 c10 -9 6 -45 -6 -51 -9 -5 -28 -10
-33 -9 -3 1 -4 1 -4 0 1 -1 0 -2 -1 -3 -1 -1 -2 -3 -1 -4 0 -2 0 -3 -1 -4 -1
-1 -2 -3 -2 -5 0 -2 -1 -4 -2 -4 -1 0 -2 -2 -2 -4 0 -2 -1 -4 -2 -5 -1 -1 -2
-4 -3 -7 -2 -10 -10 -14 -24 -14 -18 0 -23 5 -25 21 -1 20 4 28 23 30 5 1 11
2 13 3 2 1 5 1 9 1 3 -1 5 0 5 1 0 1 1 1 3 1 3 -1 6 4 4 7 -1 1 0 2 1 2 1 0 4
7 8 15 3 7 8 17 9 20 6 12 22 17 31 9z m-885 -21 c3 -5 3 -5 0 -10 -2 -3 -5
-5 -7 -5 -2 0 -5 2 -7 5 -3 5 -3 5 0 10 2 3 5 5 7 5 2 0 5 -2 7 -5z m671 -39
c10 -10 4 -21 -18 -32 -5 -3 -15 -9 -22 -13 -16 -11 -25 -13 -37 -8 -11 4 -15
11 -16 25 0 23 7 28 44 29 14 1 26 2 27 2 3 3 18 1 22 -3z m-543 -49 c4 -4 5
-7 5 -15 0 -14 -6 -20 -20 -20 -14 0 -20 6 -20 20 0 14 6 20 20 20 8 0 11 -1
15 -5z m461 -49 c22 -9 37 -24 44 -45 2 -4 5 -9 8 -10 8 -4 18 -14 22 -22 l4
-8 -6 -6 c-4 -5 -20 -13 -40 -22 -11 -4 -32 -1 -43 7 -1 1 -8 3 -15 6 -10 3
-17 4 -45 4 -36 0 -41 -1 -64 -12 -9 -4 -20 -8 -24 -9 -7 -1 -11 -2 -19 -4 -2
-1 -4 -2 -6 -2 -4 -1 -14 -11 -20 -22 -4 -8 -8 -10 -20 -17 -11 -6 -19 -13
-30 -24 l-15 -16 -11 0 c-14 0 -20 6 -20 20 0 10 1 11 10 20 6 6 11 10 12 10
4 0 13 16 13 25 0 5 -1 9 -1 9 -1 0 -2 1 -2 3 0 1 -2 5 -5 8 -13 11 -35 6 -52
-14 -18 -19 -44 -23 -58 -8 -9 9 -11 21 -6 34 1 5 2 9 2 9 -1 0 3 5 9 12 5 6
18 25 28 41 18 27 24 33 36 37 3 1 72 2 154 1 l149 0 11 -5z m-451 -35 c6 -4
6 -6 6 -20 0 -14 0 -16 -6 -20 -4 -4 -7 -5 -18 -5 -11 0 -14 1 -18 5 -6 4 -6
6 -6 20 0 14 0 16 6 20 4 4 7 5 18 5 11 0 14 -1 18 -5z m552 -2 c3 -3 3 -3 0
-6 -4 -5 -11 1 -7 6 4 4 4 4 7 0z m-655 -45 c14 -11 21 -46 12 -63 -14 -27
-52 -26 -53 2 0 5 1 11 2 13 6 12 13 28 12 28 -2 0 7 17 11 20 4 4 11 5 16 0z
m881 -3 c4 -4 5 -6 5 -20 0 -37 8 -47 49 -57 20 -6 25 -10 25 -21 0 -17 -14
-22 -35 -11 -7 4 -19 10 -28 13 -19 8 -21 10 -21 25 0 12 -4 23 -12 31 -15 16
-18 31 -9 40 7 7 19 7 26 0z m-1043 -18 c3 -3 4 -7 4 -14 0 -13 -6 -19 -19
-19 -13 0 -19 6 -19 19 0 11 3 16 13 19 8 2 16 0 21 -5z m868 -70 c8 -4 13
-20 10 -30 -3 -12 4 -34 17 -49 6 -7 7 -10 7 -19 0 -13 -4 -19 -14 -21 -17 -3
-28 4 -28 19 0 14 -12 45 -18 45 -1 0 -3 2 -5 4 -12 10 -41 22 -54 22 -5 0
-11 8 -11 13 0 2 2 6 4 9 3 4 5 4 17 3 13 -1 29 1 49 7 8 2 19 1 26 -3z m-545
-142 c5 -8 1 -16 -8 -16 -9 0 -13 8 -8 16 2 3 5 5 8 5 3 0 6 -2 8 -5z m549
-64 c0 0 -1 -3 -3 -7 -5 -9 -8 -9 -14 0 l-5 7 4 4 4 5 7 -5 c3 -2 6 -4 7 -4z
m-200 -3 c5 -3 8 -6 7 -6 -2 0 7 -15 11 -18 3 -2 10 -3 15 -3 11 0 11 0 24 12
16 16 23 20 34 18 12 -2 17 -9 17 -21 0 -14 -2 -16 -18 -27 -7 -6 -15 -12 -17
-14 -13 -12 -20 -15 -30 -15 -10 1 -23 -2 -32 -6 -9 -4 -17 -19 -18 -35 -1 -7
-1 -16 -2 -18 0 -2 -1 -8 -2 -14 -2 -17 -12 -63 -17 -77 -10 -29 -19 -38 -45
-45 -9 -3 -94 -3 -106 0 -2 0 -10 1 -17 1 -11 0 -15 1 -23 6 -9 6 -9 7 -6 10
5 4 16 21 30 50 12 24 13 30 10 61 -2 21 -1 25 15 37 14 11 18 14 24 26 6 11
19 54 20 67 1 6 8 13 14 16 2 0 26 1 54 1 l50 0 8 -6z m-204 -35 l-5 -5 -4 4
-5 5 4 4 5 5 4 -4 5 -5 -4 -4z m-65 -189 c7 -7 7 -18 0 -23 -16 -10 -34 9 -21
22 6 6 15 6 21 1z m-228 -78 c11 -10 3 -28 -11 -28 -9 0 -16 6 -16 16 0 14 17
22 27 12z m542 -17 c5 -5 -1 -9 -7 -5 -2 1 -2 2 0 5 4 4 4 4 7 0z m34 -52 c10
-2 17 -18 13 -33 -2 -11 -6 -15 -19 -19 -5 -2 -12 -4 -15 -5 -10 -5 -19 -9
-20 -10 -1 -1 -5 -4 -10 -8 -8 -6 -9 -6 -30 -6 -15 0 -26 -1 -37 -4 -9 -2 -17
-4 -19 -4 -6 0 -12 7 -12 14 0 10 4 13 30 21 8 2 18 9 27 17 2 2 8 5 14 7 12
4 32 14 34 17 2 3 21 15 26 16 2 1 6 0 9 -1 3 -1 7 -2 9 -2z m-593 -15 c5 -6
5 -12 0 -18 -7 -8 -22 -2 -22 9 0 11 15 17 22 9z"/>
<path d="M1660 3810 c-9 -2 -21 -11 -25 -18 -4 -8 -3 -22 2 -28 4 -5 26 -16
31 -16 2 0 6 -3 9 -6 8 -8 8 -24 0 -32 -3 -3 -7 -6 -9 -6 -2 0 -7 -3 -10 -6
-6 -5 -7 -6 -8 -21 0 -10 0 -16 2 -18 1 -2 3 -7 3 -13 1 -12 8 -31 13 -37 17
-15 16 -33 -2 -39 -4 -1 -8 -3 -9 -4 -1 -1 -4 -2 -7 -3 -16 -3 -25 -23 -24
-47 2 -20 6 -28 31 -48 14 -13 14 -35 0 -48 -23 -19 -29 -28 -29 -42 -1 -26 0
-44 2 -51 2 -10 10 -20 17 -23 3 -1 9 -4 12 -5 4 -2 8 -3 9 -3 1 0 4 -2 7 -5
12 -12 -1 -49 -27 -76 -23 -23 -22 -15 -22 -147 0 -81 1 -115 2 -119 5 -12 7
-16 11 -22 15 -22 15 -30 0 -52 -4 -6 -6 -10 -11 -22 -3 -9 -3 -386 1 -394 3
-7 3 -7 18 -7 10 0 15 1 16 3 0 1 1 -2 1 -7 0 -5 -1 -8 -1 -6 -1 1 -6 2 -16 2
-22 0 -20 6 -21 -107 0 -52 -1 -98 -2 -103 -2 -12 -7 -16 -24 -19 -18 -4 -30
-10 -45 -25 -19 -18 -23 -27 -24 -55 -1 -20 -4 -24 -25 -33 -23 -9 -40 -10
-47 -4 -3 3 -5 7 -5 12 0 12 6 21 38 51 l12 11 0 15 0 14 -12 6 c-18 9 -17 9
-53 9 -31 1 -32 1 -41 -4 -10 -6 -15 -13 -16 -24 0 -5 5 -23 15 -53 8 -25 16
-47 16 -49 0 -1 3 -11 6 -21 3 -10 6 -19 6 -21 7 -30 15 -67 18 -82 6 -33 16
-49 35 -55 11 -3 50 -4 84 -2 20 1 53 4 56 4 2 0 10 1 18 2 23 2 36 9 54 26
15 15 16 15 26 15 6 0 16 -1 23 -3 18 -4 28 -4 41 2 13 6 24 15 23 17 -1 1 -1
2 0 2 1 0 2 7 1 14 l-1 15 -9 4 c-5 3 -15 7 -23 9 -8 3 -16 6 -18 8 -10 9 -10
35 0 43 11 11 23 11 48 0 23 -9 28 -10 39 -7 11 3 28 10 28 12 0 1 1 2 3 2 8
0 23 23 27 42 6 33 8 54 9 105 2 58 1 64 -12 88 -12 22 -12 30 -1 51 15 27 14
-2 14 387 l0 351 -4 6 c-6 8 -11 11 -22 11 -5 0 -10 1 -12 2 -1 1 -2 0 -2 -2
0 -2 -1 -3 -2 -3 -3 0 -20 -12 -25 -17 -9 -10 -10 -12 -15 -22 -6 -13 -12 -17
-25 -17 -16 0 -23 7 -23 22 0 14 2 16 17 26 16 11 24 20 31 35 6 12 12 17 24
17 12 0 18 -2 18 -5 0 -2 1 -3 2 -2 2 1 7 2 12 2 18 1 28 14 22 29 -4 12 -9
16 -24 20 -15 5 -31 5 -59 0 -15 -3 -18 -2 -21 5 -2 4 -2 6 2 12 3 4 6 7 8 7
2 0 9 4 16 9 7 5 16 12 21 14 4 4 10 6 14 5 3 0 12 2 20 4 14 5 20 10 24 21 4
9 4 64 0 81 -3 14 -5 19 -24 49 -11 18 -10 24 6 40 20 22 20 22 20 78 0 79 -3
100 -13 113 -4 4 -20 10 -30 11 -16 2 -20 7 -25 29 -5 24 -4 42 2 48 5 5 17 5
23 1 3 -3 7 -4 19 -3 30 2 31 17 5 55 -13 20 -22 31 -27 31 -2 0 -3 1 -3 2 0
1 -1 2 -2 2 -7 1 -190 2 -196 0z m118 -426 c5 -5 5 -11 0 -16 -10 -10 -27 5
-16 16 4 4 12 4 16 0z m-33 -181 c12 -12 3 -31 -13 -31 -11 0 -18 7 -18 18 0
11 7 18 18 18 6 0 9 -1 13 -5z m-24 -129 c7 -6 7 -19 1 -25 -6 -7 -19 -7 -25
-1 -7 6 -7 19 -1 25 6 7 19 7 25 1z m138 -70 c8 -8 8 -24 0 -32 -6 -6 -10 -7
-29 -5 -12 1 -27 -3 -40 -11 -17 -11 -29 -12 -38 -2 -9 8 -9 24 -1 32 6 6 10
7 29 5 11 -1 26 3 36 9 20 13 33 14 43 4z m-8 -104 c5 -5 6 -7 6 -16 0 -15 -8
-23 -23 -23 -9 0 -11 1 -16 7 -9 8 -9 23 -1 32 9 9 24 9 34 0z m-84 -124 c21
-5 25 -9 25 -26 0 -11 -1 -13 -6 -18 -6 -6 -7 -6 -19 -6 -7 -1 -38 8 -52 14
-11 5 -13 9 -13 22 0 22 16 25 65 14z m-71 -102 c5 -6 5 -12 0 -18 -7 -8 -22
-2 -22 9 0 11 15 17 22 9z m113 -5 c3 -4 3 -6 1 -10 -2 -3 -2 -6 0 -10 1 -3 2
-6 1 -7 -2 -3 4 -15 13 -27 7 -11 8 -13 8 -23 0 -11 -1 -13 -6 -18 -6 -6 -7
-6 -18 -6 -11 0 -12 0 -18 6 -5 5 -6 7 -6 17 0 7 1 14 3 16 8 12 11 38 5 51
-5 13 10 22 17 11z m-90 -133 c3 -3 5 -8 6 -17 0 -7 2 -14 2 -16 1 -1 2 -3 2
-5 1 -5 7 -12 16 -18 11 -7 17 -14 17 -17 0 -4 -8 -11 -20 -18 -7 -4 -15 -10
-18 -13 -19 -16 -42 -18 -54 -3 -4 5 -4 8 -4 27 1 52 6 69 24 80 10 6 22 6 29
0z m139 -99 l-5 -5 -4 4 -5 5 4 4 5 5 4 -4 5 -5 -4 -4z m-121 -116 c4 -4 5 -7
5 -15 0 -14 -6 -20 -20 -20 -14 0 -20 6 -20 20 0 14 6 20 20 20 8 0 11 -1 15
-5z m-60 -164 c5 -8 1 -16 -8 -16 -9 0 -13 8 -8 16 2 3 5 5 8 5 3 0 6 -2 8 -5z
m11 -65 c5 -5 5 -11 0 -16 -10 -10 -27 5 -16 16 4 4 12 4 16 0z"/>
</g>
</svg>
