<?xml version="1.0" standalone="no"?>
<!DOCTYPE svg PUBLIC "-//W3C//DTD SVG 20010904//EN"
 "http://www.w3.org/TR/2001/REC-SVG-20010904/DTD/svg10.dtd">
<svg version="1.0" xmlns="http://www.w3.org/2000/svg"
 width="1000.000000pt" height="2850.000000pt" viewBox="0 0 1000.000000 2850.000000"
 preserveAspectRatio="xMidYMid meet">
<metadata>
Created by potrace 1.15, written by Peter Selinger 2001-2017
</metadata>
<g transform="translate(0.000000,2850.000000) scale(0.500000,-0.500000)"
fill="#000000" stroke="none">
<path d="M1635 3798 c-4 -1 -13 -4 -19 -6 -5 -2 -12 -4 -15 -4 -7 0 -41 -9
-51 -14 -5 -2 -18 -8 -30 -12 -34 -13 -41 -20 -49 -46 -5 -16 -9 -20 -22 -20
-18 1 -33 -5 -44 -17 -17 -18 -34 -19 -52 -3 -22 19 -47 21 -65 4 -6 -6 -8
-13 -9 -24 0 -9 0 -10 16 -26 19 -19 21 -24 12 -35 l-4 -5 -20 10 c-30 15 -43
17 -56 11 -7 -4 -15 -13 -15 -17 0 -2 -1 -4 -2 -5 -1 -1 -1 -3 0 -6 1 -3 1 -5
1 -5 -1 0 1 -3 3 -6 2 -3 4 -6 4 -8 0 -1 6 -8 13 -15 16 -18 16 -17 15 -37 0
-24 4 -35 14 -38 4 -1 10 -2 12 -2 7 0 36 7 36 8 0 1 1 2 3 2 2 0 3 1 3 2 0 1
1 4 3 6 5 4 3 32 -2 37 -7 7 -2 33 7 36 6 2 24 -5 27 -10 1 -2 3 -10 4 -18 0
-8 2 -14 3 -15 2 -1 2 -2 1 -2 -1 0 1 -3 3 -6 4 -6 14 -10 25 -10 8 0 135 42
148 49 12 5 21 16 28 29 6 11 14 18 21 18 3 0 12 -2 21 -4 30 -8 31 -7 110 31
36 18 54 33 69 57 7 12 8 15 8 23 -2 14 -2 15 -9 20 -8 7 -17 8 -31 5 -26 -5
-36 -2 -42 14 -6 15 -14 32 -20 37 -14 13 -37 20 -53 17z m35 -88 c4 -5 5 -8
1 -13 -4 -7 -13 -6 -17 1 -6 11 7 21 16 12z"/>
<path d="M258 3780 c-3 -1 -6 -1 -7 0 0 0 -1 0 -1 -2 0 -1 -1 -2 -3 -2 -4 0
-14 -12 -18 -21 -2 -6 -3 -15 -3 -47 0 -39 1 -49 7 -56 2 -2 2 -4 2 -5 -1 -1
1 0 4 1 3 1 10 2 15 2 9 0 10 0 10 -4 0 -3 1 -3 2 2 2 10 9 15 24 15 19 0 27
-8 27 -27 0 -19 -8 -27 -27 -27 -15 0 -22 5 -24 15 -1 5 -2 5 -2 3 0 -5 -1 -5
-10 -5 -5 0 -12 1 -15 2 -3 1 -5 1 -4 0 0 -1 0 -3 -2 -4 -6 -5 -7 -18 -7 -106
1 -87 2 -95 7 -103 2 -2 3 -5 3 -7 0 -1 3 -7 8 -13 4 -7 8 -13 9 -15 1 -2 2
-3 3 -4 1 -1 3 -4 6 -8 3 -5 8 -10 15 -14 13 -6 18 -8 36 -9 22 -1 30 -9 30
-28 0 -19 -9 -28 -28 -28 -14 0 -20 4 -28 18 -8 14 -22 30 -24 27 -1 -1 -2 -2
-4 -1 -1 0 -4 0 -6 -1 -3 -1 -5 -1 -6 1 0 1 -1 1 -2 0 -1 -1 -8 -5 -15 -7 -12
-4 -17 -5 -68 -6 -58 -2 -60 -2 -60 -4 0 -1 -2 -2 -4 -3 -5 -1 -8 -10 -8 -23
l1 -10 10 -4 c5 -2 15 -5 21 -5 16 -2 20 -6 25 -22 8 -26 14 -34 32 -41 6 -2
13 -6 16 -9 l5 -4 -5 -3 c-2 -1 -3 -2 -1 -2 1 0 4 -2 6 -4 6 -7 13 -9 32 -9
24 -1 29 -4 30 -18 0 -7 -1 -10 -5 -14 -4 -5 -6 -5 -26 -5 -34 1 -38 -1 -44
-12 -4 -7 -8 -10 -12 -11 -4 -1 -6 -2 -6 -1 2 3 -18 0 -27 -3 -6 -3 -10 -6
-13 -12 -9 -15 -8 -21 2 -51 5 -15 14 -43 20 -62 12 -40 17 -49 31 -54 11 -6
20 -6 50 0 27 4 32 5 71 8 14 1 30 4 36 5 11 4 24 16 30 28 8 20 30 20 44 1
11 -16 29 -25 49 -23 5 0 18 1 29 2 11 1 28 2 38 2 10 1 23 2 29 2 8 0 13 0
18 -3 4 -2 8 -4 9 -4 2 0 3 -1 3 -3 0 -2 -1 -3 -2 -3 -1 0 -2 -6 -2 -13 0 -13
3 -27 6 -27 3 0 2 -10 -2 -14 -6 -6 -18 -2 -20 7 -1 7 -1 8 1 13 1 3 1 4 0 4
-1 -1 -3 0 -4 2 -6 13 -30 17 -45 7 -11 -7 -14 -13 -15 -26 -1 -9 -1 -11 10
-27 16 -25 17 -42 2 -59 -10 -12 -29 -13 -39 -2 -2 3 -6 8 -8 11 -2 2 -3 4 -3
4 1 0 -2 3 -7 6 -15 12 -18 12 -116 12 -84 0 -90 0 -104 -4 -13 -4 -30 -13
-30 -16 0 0 -2 -3 -5 -6 -2 -3 -6 -8 -8 -12 -2 -4 -6 -9 -8 -12 -3 -3 -5 -6
-5 -7 0 -1 -3 -4 -6 -6 -13 -11 -18 -27 -18 -54 0 -14 1 -23 3 -28 4 -9 14
-21 18 -21 2 0 3 -1 3 -2 0 -3 12 -3 169 -3 l158 0 9 6 c10 7 19 22 21 37 3
13 11 19 27 19 16 0 24 -6 27 -19 1 -10 8 -25 15 -32 4 -5 6 -6 15 -6 10 0 12
1 21 9 12 12 15 17 20 36 4 15 11 27 16 27 6 0 13 -12 20 -34 3 -10 8 -17 16
-26 11 -10 18 -14 33 -17 6 -2 14 -5 17 -8 l5 -4 -9 -5 c-4 -2 -13 -5 -19 -5
-22 -2 -43 -11 -51 -20 -7 -9 -6 -29 2 -41 7 -11 9 -22 6 -33 -4 -11 -11 -16
-26 -16 -19 0 -27 8 -27 27 0 10 1 13 7 21 5 9 6 12 6 23 0 16 -4 22 -18 29
-18 9 -21 9 -125 8 -99 0 -103 -1 -103 -3 0 -1 -3 -3 -7 -5 -5 -2 -10 -8 -17
-18 -6 -9 -13 -17 -16 -19 -9 -5 -24 -3 -38 4 -11 5 -15 6 -25 6 -13 -1 -18
-6 -25 -24 -9 -21 -10 -23 -21 -30 -11 -6 -25 -20 -25 -24 0 -1 -1 -2 -2 -2
-3 0 1 -19 6 -25 2 -4 7 -8 11 -10 8 -4 16 -4 169 -5 l161 0 7 -5 7 -6 -10 -4
c-9 -4 -15 -4 -85 -4 -41 -1 -76 -2 -78 -2 -2 -1 -3 -1 -4 -1 -4 -1 -7 -8 -7
-19 -1 -6 -2 -14 -2 -15 0 -2 1 -4 3 -5 8 -3 13 -23 8 -33 -6 -10 -38 -14 -49
-6 -5 5 -14 22 -16 32 -2 10 -9 23 -18 33 -5 5 -10 9 -11 9 -17 1 -28 -1 -34
-9 -14 -17 -39 -17 -55 1 -2 2 -9 6 -17 9 l-13 5 -53 -1 c-56 -1 -58 -1 -58
-3 0 -1 -1 -2 -3 -2 -4 0 -14 -12 -18 -22 -3 -8 -3 -9 0 -19 3 -11 5 -13 27
-34 4 -3 6 -8 6 -11 0 -5 -1 -7 -21 -25 -7 -7 -8 -9 -8 -19 0 -10 1 -12 6 -16
4 -4 8 -6 9 -6 1 0 2 -1 2 -2 0 -2 1 -2 91 -4 85 -1 95 -2 95 -8 0 -1 3 -2 8
-3 6 0 6 0 -2 -1 -6 0 -13 -2 -16 -4 -4 -2 -11 -5 -15 -6 -13 -4 -25 -13 -29
-23 -3 -4 -4 -8 -4 -8 0 0 -1 -4 -2 -8 -1 -4 -2 -10 -2 -13 0 -8 -6 -14 -15
-14 -5 0 -9 2 -19 11 -7 6 -13 11 -14 11 0 0 -3 1 -5 1 -13 4 -19 3 -54 -8
-20 -6 -40 -12 -46 -13 -28 -7 -37 -31 -22 -54 5 -6 8 -11 9 -12 1 -1 5 -7 10
-15 15 -24 20 -29 39 -40 11 -6 20 -13 22 -16 2 -2 3 -12 3 -28 1 -22 2 -25 8
-37 3 -8 8 -16 11 -20 5 -6 6 -6 19 -6 9 0 17 1 24 4 7 3 18 5 30 5 19 1 42 8
79 22 7 2 14 5 16 6 2 1 5 2 6 2 5 2 24 10 25 11 1 2 7 -4 10 -9 1 -3 2 -7 2
-11 0 -11 12 -38 23 -53 2 -3 7 -10 10 -16 8 -14 16 -21 32 -29 l14 -7 199 0
199 0 8 4 c8 5 17 12 21 18 10 14 30 14 40 0 4 -6 13 -13 21 -17 17 -10 51 -3
58 11 4 8 3 30 -2 38 -2 4 -3 11 -3 17 0 9 1 11 6 16 8 8 23 11 44 10 7 0 13
-4 28 -21 7 -7 30 -25 34 -25 0 0 4 -1 7 -3 6 -4 21 -3 30 1 2 1 8 9 14 20 9
18 13 21 27 27 17 7 38 4 50 -6 6 -6 2 -33 -7 -41 -4 -4 -22 -10 -31 -10 -4 0
-4 -1 -1 -1 3 -1 3 -3 3 -20 l-1 -19 151 0 c99 0 154 1 159 2 15 4 27 21 30
44 3 22 8 24 50 26 33 1 39 0 44 -5 4 -4 7 -18 5 -24 -2 -5 1 -20 5 -29 4 -7
17 -14 26 -14 7 0 23 5 40 13 15 7 25 7 41 -1 27 -12 34 -13 50 -9 4 1 22 11
23 13 4 6 18 13 27 13 9 0 23 -7 27 -13 3 -4 21 -12 29 -12 10 0 21 9 26 22 4
7 4 14 4 59 0 67 -2 72 -27 73 l-13 1 -6 -12 c-3 -7 -7 -18 -9 -25 -4 -16 -8
-20 -21 -20 -8 0 -11 1 -15 5 -5 5 -5 6 -5 17 2 25 -5 42 -20 46 -9 3 -199 3
-208 0 -13 -3 -25 -19 -29 -37 -2 -10 -9 -15 -18 -15 -9 0 -16 5 -18 15 -4 18
-16 34 -29 37 -5 1 -41 2 -96 2 -48 -1 -88 -1 -89 0 0 2 -18 10 -20 10 -2 0
-3 1 -3 2 0 1 -2 2 -4 2 -2 0 -4 1 -5 1 -2 3 -16 7 -23 7 -10 0 -16 7 -16 20
0 14 6 20 19 20 11 0 17 -3 24 -12 9 -12 19 -20 29 -22 16 -3 138 -3 147 1 10
4 13 9 14 23 l0 13 -12 6 c-7 4 -18 9 -25 11 -19 6 -21 9 -21 27 0 14 0 16 6
20 9 8 24 7 43 -3 8 -4 23 -10 32 -13 31 -10 48 -26 51 -45 2 -18 13 -34 26
-39 17 -7 79 -1 79 7 0 1 1 2 3 2 1 0 4 1 5 3 5 5 15 10 26 11 14 2 22 4 26 6
2 1 4 2 4 1 0 -3 11 10 13 16 4 10 4 80 0 90 -4 9 -14 21 -18 21 -2 0 -3 1 -3
2 0 1 -1 2 -2 2 -2 0 -91 1 -200 1 l-196 1 -30 -7 c-33 -8 -52 -16 -60 -26
-14 -18 -40 -19 -53 -3 -3 4 -6 8 -7 9 -1 2 -2 4 -2 5 0 4 -17 16 -27 19 -14
4 -340 4 -352 0 -4 -2 -9 -2 -10 -2 -1 1 -1 1 0 -1 0 -1 0 -2 -2 -3 -1 -1 -3
-3 -3 -4 0 -5 -17 -35 -20 -37 -7 -4 -22 -2 -27 3 -6 5 -7 20 -3 27 3 6 26 16
36 16 11 0 18 4 17 8 0 2 0 4 1 4 1 0 2 1 1 2 -1 1 5 5 12 8 l14 7 182 1 182
1 9 5 c12 6 20 15 28 30 8 14 13 18 28 21 10 2 11 2 18 -3 5 -3 9 -8 10 -12 2
-5 3 -8 4 -8 0 0 5 -4 10 -8 5 -5 17 -12 26 -17 l17 -8 125 0 126 0 5 5 c7 7
11 30 6 36 -3 2 -4 6 -3 18 0 11 9 19 22 19 13 0 22 -8 22 -19 1 -12 0 -16 -3
-18 -5 -6 0 -33 6 -35 2 -1 5 -3 5 -4 1 -1 2 -1 2 0 0 1 2 2 5 3 6 0 16 6 21
12 4 6 10 21 10 26 0 2 3 7 6 10 5 5 7 6 17 6 10 0 12 -1 17 -6 3 -3 6 -8 6
-10 0 -2 3 -11 7 -19 7 -14 8 -15 18 -20 l10 -5 74 1 c77 1 79 1 79 3 0 1 1 2
3 2 4 0 14 12 18 21 4 11 5 81 0 81 -2 0 -3 1 -3 2 0 2 -5 2 -16 2 -16 -1 -16
-1 -16 4 -1 3 -2 -2 -3 -11 -1 -12 -2 -17 -5 -20 -6 -7 -16 -6 -22 0 -5 5 -5
9 0 27 6 24 1 36 -18 45 l-11 6 -166 1 c-182 0 -176 0 -184 -11 -4 -6 -7 -28
-4 -32 1 -2 1 -9 1 -16 -2 -16 -7 -21 -25 -21 -18 0 -23 5 -25 21 0 7 0 14 1
16 1 2 2 8 1 15 -4 26 -9 28 -61 28 -47 0 -57 -3 -65 -14 -4 -6 -4 -9 -3 -20
0 -8 2 -16 4 -19 5 -8 4 -22 -1 -28 -5 -6 -26 -10 -29 -6 0 2 -3 4 -4 6 -2 2
-4 5 -4 7 -1 3 -7 16 -10 19 -1 2 -4 6 -7 10 -5 7 -11 10 -38 20 -15 5 -17 6
-38 18 l-11 6 -88 1 -88 1 -8 5 c-5 3 -7 5 -5 6 2 0 6 2 10 4 6 3 34 3 333 4
l326 0 4 4 c3 4 4 7 4 19 0 8 1 15 2 15 1 1 1 2 -1 2 -5 0 -14 12 -14 17 0 7
7 13 13 13 11 0 19 -11 20 -24 0 -6 1 -7 9 -12 5 -3 12 -7 14 -9 8 -6 18 -13
20 -13 1 0 2 -1 2 -2 0 -2 8 -5 17 -8 7 -1 21 0 21 2 0 1 1 2 3 2 4 0 14 12
18 21 4 11 4 91 0 102 -4 9 -14 21 -18 21 -2 0 -3 1 -3 2 0 2 -2 2 -60 3 l-54
1 -11 -5 c-9 -5 -13 -8 -19 -17 -4 -7 -10 -16 -13 -19 -6 -7 -7 -8 -17 -8 -10
0 -11 1 -17 8 -3 3 -9 12 -13 18 -6 10 -10 13 -18 18 l-11 5 -205 0 -205 0 -8
6 c-6 5 -6 6 -4 7 2 0 7 3 11 5 7 4 10 4 87 4 47 0 83 1 87 2 7 2 18 11 19 16
0 2 1 4 1 5 3 4 5 16 4 27 0 9 0 11 6 16 6 6 7 6 18 6 11 0 12 0 18 -6 6 -5 6
-7 6 -16 -1 -11 1 -23 4 -27 0 -1 1 -3 1 -5 1 -5 12 -14 19 -16 4 -1 15 -2 24
-2 20 0 35 6 41 16 6 9 13 22 13 25 0 5 9 13 18 15 17 4 29 -2 46 -25 12 -16
16 -18 47 -18 24 0 27 -1 40 -6 13 -5 17 -6 47 -6 32 -1 33 -1 42 4 13 7 19
18 21 40 2 12 10 20 23 20 13 0 21 -8 23 -20 2 -22 8 -33 21 -40 8 -5 11 -5
25 -4 21 1 21 1 21 3 0 1 1 2 3 2 4 0 14 12 18 21 5 11 5 107 0 118 -4 9 -14
21 -18 21 -2 0 -3 1 -3 2 0 1 -1 2 -2 2 -8 2 -215 2 -222 0 -15 -4 -30 -26
-30 -44 0 -7 -9 -18 -15 -18 -28 -2 -34 4 -34 35 0 25 3 31 27 68 19 28 20 32
16 47 -5 19 -25 23 -55 12 -24 -8 -34 -7 -52 8 -6 4 -11 7 -12 7 0 -1 -1 -1
-1 0 0 1 -1 2 -2 3 -30 3 -32 2 -51 -22 -9 -13 -17 -35 -24 -68 -2 -13 -26
-17 -36 -7 -8 8 -6 30 3 37 3 2 20 28 21 33 1 2 2 5 4 5 1 1 0 6 -2 15 -6 25
-6 23 4 31 9 6 35 15 54 17 4 1 12 2 16 3 4 1 10 3 12 3 21 5 139 40 152 46 3
1 13 5 22 8 15 5 56 22 88 35 18 7 92 43 107 52 6 4 14 8 18 10 4 2 11 7 16
10 5 3 15 9 21 13 7 4 15 9 17 11 2 2 4 4 5 4 3 0 39 28 42 33 2 2 3 8 3 15 0
16 -6 23 -29 33 -9 4 -24 10 -33 14 -9 4 -19 9 -22 10 -3 2 -12 5 -19 8 -8 3
-15 6 -16 7 -1 1 -11 5 -22 10 -11 5 -27 12 -36 15 -22 10 -33 9 -58 -5 -26
-15 -60 -32 -78 -40 -24 -10 -27 -14 -27 -33 0 -8 1 -15 4 -20 3 -5 4 -12 4
-18 1 -8 0 -10 -6 -15 -5 -6 -7 -7 -16 -7 -8 0 -11 1 -16 6 -3 3 -6 8 -6 10 0
3 -1 7 -2 9 -1 1 -3 6 -5 11 -8 16 -24 20 -49 11 -9 -3 -24 -7 -32 -10 -8 -2
-18 -5 -21 -6 -3 -1 -19 -6 -34 -10 -31 -8 -46 -15 -55 -24 -14 -13 -27 -17
-48 -13 -30 5 -43 4 -84 -9 -20 -6 -27 -7 -52 -8 -17 -1 -31 -2 -32 -3 -1 -1
-6 0 -11 2 -9 3 -9 4 -8 9 1 3 2 28 2 56 1 43 1 52 -2 59 -4 9 -14 21 -18 21
-2 0 -3 1 -3 2 0 2 -1 2 -1 2 -1 -1 -4 -1 -7 0 -3 1 -32 2 -63 2 -58 1 -71 2
-77 7 -3 3 -27 3 -160 4 l-157 0 162 1 c106 0 161 1 161 2 0 1 1 2 3 2 4 0 14
12 18 21 4 11 4 71 0 82 -4 9 -14 21 -18 21 -2 0 -3 1 -3 2 0 1 -23 2 -66 2
-73 0 -68 1 -93 -14 -7 -4 -13 -6 -18 -6 -5 0 -11 2 -18 6 -26 15 -14 14 -141
14 l-114 0 0 7 0 7 117 0 116 -1 -115 0 -116 -1 0 -5 0 -5 113 0 c70 0 111 1
109 2 -2 1 -1 2 6 4 6 2 9 3 9 4 -1 2 7 2 34 2 27 0 35 0 34 -2 0 -1 3 -2 9
-4 7 -2 8 -3 6 -4 -2 -1 20 -2 58 -2 l61 0 0 5 0 4 -64 1 -64 1 69 1 c44 0 68
1 68 2 0 1 1 2 3 2 4 0 14 12 18 21 4 11 4 71 0 82 -4 9 -14 21 -18 21 -2 0
-3 1 -3 2 0 1 -1 2 -2 2 -8 1 -64 2 -72 1 -11 -2 -19 -9 -21 -20 -1 -4 -2 -10
-3 -13 -1 -4 -1 -6 1 -7 5 -2 4 -16 -2 -21 -6 -6 -17 -5 -23 1 -5 5 -6 18 -1
20 2 1 2 3 1 7 -1 3 -2 9 -3 13 -1 5 -4 10 -7 13 l-6 6 -31 0 -32 1 29 0 c21
1 31 2 35 4 3 2 5 3 4 3 -1 0 -1 1 1 2 2 1 -7 2 -29 2 -17 0 -31 -1 -30 -2 1
-2 -8 -6 -14 -6 -3 0 -5 -1 -5 -2 0 -1 -13 -2 -32 -2 -18 0 -32 1 -32 2 0 1
-5 2 -11 3 -13 2 -29 0 -25 -3 2 -1 1 -2 -4 -2 -4 0 -15 -3 -24 -6 -22 -8 -30
-8 -56 1 -23 8 -51 11 -54 7 -1 -2 -2 -2 -2 1 0 2 -1 5 -3 7 -2 2 -3 4 -1 4 1
0 2 3 3 7 1 4 2 7 3 6 0 -1 4 6 9 14 l8 16 16 2 c46 8 63 3 87 -21 18 -19 23
-22 34 -22 9 -1 19 4 27 11 4 5 19 11 25 11 6 0 22 -7 24 -10 1 -1 5 -4 11 -8
l10 -6 34 0 35 0 8 7 c8 7 16 26 16 37 0 12 13 19 27 16 4 -1 11 -4 16 -8 11
-7 29 -12 45 -12 15 1 19 -1 28 -13 13 -15 17 -19 25 -23 9 -5 25 -6 29 -2 2
2 21 11 23 10 1 0 1 1 0 2 -1 1 0 2 1 2 1 0 2 1 1 2 -1 1 -1 16 -1 32 0 41 -3
51 -24 71 -6 5 -13 13 -15 17 -7 11 -19 19 -32 22 -7 2 -31 2 -73 1 -53 0 -66
-1 -81 -4 -17 -4 -19 -4 -32 -1 -24 5 -35 4 -48 -4 -24 -15 -30 -15 -53 -1
-18 11 -22 11 -79 11 l-52 -1 -18 -9 c-11 -5 -21 -9 -25 -9 -4 0 -14 4 -25 9
l-18 9 -110 0 c-60 1 -112 0 -115 -1z m696 -63 l-5 -5 -4 4 -5 5 4 4 5 5 4 -4
5 -5 -4 -4z m-405 -162 c5 -8 1 -16 -8 -16 -9 0 -13 8 -8 16 2 3 5 5 8 5 3 0
6 -2 8 -5z m-217 -6 c16 -7 20 -37 7 -48 -12 -11 -34 -11 -43 0 -9 10 -9 32 0
42 7 8 24 11 36 6z m367 -7 c7 -6 7 -19 1 -25 -6 -7 -19 -7 -25 -1 -7 6 -7 19
-1 25 6 7 19 7 25 1z m-181 -138 c5 -5 5 -15 0 -20 -9 -9 -24 -2 -24 10 0 8 6
14 14 14 3 0 8 -2 10 -4z m30 -77 l-28 -1 0 -5 0 -5 23 0 c18 0 23 1 24 3 1 1
4 3 6 4 3 1 5 2 4 4 -1 1 0 1 2 -1 2 -2 3 -2 2 0 -1 1 5 2 29 2 24 0 30 -1 29
-2 -1 -2 0 -2 2 0 2 2 3 2 2 1 -1 -2 1 -3 3 -4 3 -1 6 -3 7 -4 2 -3 30 -3 161
-4 l159 0 -163 -1 -162 0 -19 -6 -19 -7 -19 7 c-17 6 -21 6 -46 6 l-27 0 0 7
0 7 29 0 28 -1 -27 0z m-217 -125 c7 -6 7 -19 1 -25 -6 -7 -19 -7 -25 -1 -7 6
-7 19 -1 25 6 7 19 7 25 1z m481 -41 c15 -3 19 -28 6 -38 -8 -7 -29 -4 -34 3
-2 3 -4 6 -6 8 -2 2 -3 6 -4 10 0 9 4 13 16 17 9 2 11 2 22 0z m594 -7 c9 -9
2 -24 -10 -24 -12 0 -19 15 -11 24 5 5 16 5 21 0z m-682 -10 c5 -3 11 -5 13
-6 3 -1 3 -2 1 -2 -3 0 -4 -2 -3 -10 0 -10 1 -11 12 -21 13 -12 17 -21 17 -35
0 -9 -1 -11 -6 -16 -6 -6 -7 -6 -18 -6 -11 0 -12 0 -18 6 -5 5 -6 7 -6 18 0
36 -14 49 -50 47 -20 -1 -54 -2 -107 -4 -38 -2 -51 0 -51 5 0 1 -2 2 -3 2 -3
0 -2 1 2 3 3 2 7 5 9 6 3 4 17 11 27 14 6 2 30 3 90 3 80 0 82 0 91 -4z m381
-2 c8 -4 8 -5 7 -13 0 -9 -2 -7 34 -45 8 -9 21 -11 51 -10 10 1 12 0 17 -6 6
-5 7 -7 7 -16 0 -5 -1 -11 -3 -13 -5 -6 -10 -28 -9 -37 2 -18 22 -38 39 -40 3
-1 8 -3 12 -5 8 -5 8 -7 -6 -36 -12 -25 -13 -35 -6 -57 8 -23 3 -46 -12 -53
-6 -3 -7 -3 -15 0 -4 2 -12 7 -17 11 -14 13 -24 17 -47 17 -15 0 -22 -1 -29
-4 -6 -2 -10 -4 -10 -5 0 -1 -2 -2 -3 -3 -2 0 -8 -3 -12 -6 -10 -6 -22 -7 -33
-1 -10 5 -15 9 -16 10 -1 1 -6 3 -12 5 -12 3 -35 4 -93 4 -35 0 -36 0 -47 -5
-6 -3 -20 -10 -31 -14 -25 -11 -27 -12 -37 -26 -10 -13 -16 -17 -29 -17 -19 0
-28 9 -28 28 0 15 5 22 18 26 6 2 10 4 10 5 -1 1 -1 2 0 2 2 0 2 29 0 32 -1 1
-4 2 -8 2 -12 -1 -27 8 -27 17 0 4 5 12 13 24 3 4 4 9 4 17 1 12 -1 16 -7 23
-4 5 -4 5 3 11 5 3 10 7 13 7 3 1 13 5 22 10 30 13 44 10 51 -12 12 -41 12
-42 27 -48 12 -6 21 -4 44 7 12 6 22 12 22 13 0 1 2 4 5 7 3 2 5 5 5 6 0 1 15
5 33 9 2 1 17 7 33 15 33 17 38 22 40 40 1 14 -3 20 -26 50 -28 37 -53 67 -58
68 -3 2 -3 2 1 2 2 0 4 1 4 3 3 6 10 7 54 6 42 0 44 0 52 -5z m381 -6 c5 -6 5
-12 0 -18 -7 -8 -22 -2 -22 9 0 11 15 17 22 9z m-1068 -16 c3 -5 3 -6 -1 -13
-6 -11 -32 -27 -45 -27 -15 0 -22 18 -10 28 4 5 13 9 19 11 1 1 7 2 12 4 14 4
21 3 25 -3z m-214 -31 c10 -4 12 -8 12 -20 0 -13 -6 -19 -20 -19 -8 0 -11 1
-15 5 -6 6 -7 20 -1 32 4 8 4 8 11 7 3 -1 9 -3 13 -5z m255 -56 c3 -5 3 -5 0
-10 -2 -3 -5 -5 -7 -5 -2 0 -5 2 -7 5 -3 5 -3 5 0 10 2 3 5 5 7 5 2 0 5 -2 7
-5z m505 2 c22 -10 19 -57 -4 -59 -8 0 -26 5 -31 10 -10 9 -10 33 -1 43 7 8
24 11 36 6z m-286 -214 l-5 -5 -4 4 -5 5 4 4 5 5 4 -4 5 -5 -4 -4z m293 -65
c7 -7 11 -25 7 -34 -2 -5 -12 -11 -23 -13 -5 -1 -7 -5 -7 -13 1 -4 0 -8 -1
-10 -1 -1 -1 -3 0 -4 1 -2 1 -2 -1 -1 -2 1 -2 0 -2 -2 1 -2 3 -4 4 -3 2 0 2
-1 -1 -3 -3 -3 -3 -3 -1 -2 2 0 5 0 6 -2 1 -2 4 -2 5 -2 4 2 11 -6 11 -12 0
-6 -6 -13 -12 -13 -2 0 -7 2 -11 4 -7 3 -21 16 -18 16 1 0 0 1 -1 3 -3 3 -2 4
3 3 3 -1 5 -1 5 1 0 1 -13 1 -26 -2 -3 -1 -6 0 -7 1 -1 1 -2 1 -4 1 -2 -1 -15
10 -15 14 0 1 -3 7 -7 12 -16 23 -17 25 -17 35 0 6 1 10 4 13 5 5 6 5 36 4 12
-1 20 0 21 1 2 2 3 2 3 1 0 0 4 2 10 5 12 8 31 9 39 2z m-650 -8 c11 -10 3
-28 -11 -28 -9 0 -16 6 -16 16 0 14 17 22 27 12z m722 -43 c7 -7 7 -19 0 -26
-6 -6 -18 -7 -24 -2 -6 4 -9 16 -8 22 3 11 23 15 32 6z m-261 -110 c3 -3 4 -7
4 -14 0 -13 -6 -19 -19 -19 -13 0 -19 6 -19 19 0 7 1 11 4 14 7 8 23 8 30 0z
m260 -1 c5 -5 6 -7 6 -17 0 -10 -1 -12 -6 -17 -5 -5 -14 -8 -23 -6 -3 0 -32
-8 -36 -11 -18 -13 -19 -14 -31 -14 -19 0 -27 8 -27 28 0 20 14 31 45 34 6 1
19 3 28 5 27 6 37 5 44 -2z m671 1 c3 -5 3 -6 1 -11 -4 -6 -11 -8 -16 -3 -5 4
-5 9 -1 15 4 6 12 5 16 -1z m-1011 -154 c7 -3 11 -9 14 -18 3 -14 0 -25 -12
-36 -5 -4 -13 -12 -19 -18 -18 -18 -24 -20 -29 -12 -4 4 -4 6 -1 22 2 10 3 22
3 27 0 11 3 24 8 29 7 8 24 11 36 6z m367 -47 c7 -6 7 -19 1 -25 -6 -7 -19 -7
-25 -1 -7 6 -7 19 -1 25 6 7 19 7 25 1z m-858 -6 c5 -5 6 -7 6 -16 0 -9 -1
-11 -7 -16 -5 -6 -7 -7 -16 -7 -9 0 -11 1 -16 7 -9 8 -9 23 -1 32 9 9 24 9 34
0z m724 0 c5 -5 6 -7 6 -16 0 -9 -1 -11 -7 -16 -5 -6 -7 -7 -16 -7 -9 0 -11 1
-16 7 -9 8 -9 23 -1 32 9 9 24 9 34 0z m-338 1 c6 -4 6 -6 6 -20 0 -14 0 -16
-6 -20 -4 -4 -7 -5 -18 -5 -11 0 -14 1 -18 5 -6 4 -6 6 -6 20 0 14 0 16 6 20
4 4 7 5 18 5 11 0 14 -1 18 -5z m-90 -77 c5 -5 6 -7 6 -16 0 -9 -1 -11 -7 -16
-5 -6 -7 -7 -16 -7 -9 0 -11 1 -16 7 -9 8 -9 23 -1 32 9 9 24 9 34 0z m-157
-40 c11 -3 16 -10 16 -23 0 -10 -1 -12 -6 -17 -5 -5 -7 -6 -17 -6 -10 0 -12 1
-17 6 -5 5 -6 7 -6 16 0 22 9 30 30 24z m285 -66 c7 -3 12 -13 12 -25 0 -14
-8 -27 -16 -27 -2 0 -3 -1 -2 -2 1 0 2 -8 2 -16 0 -22 5 -24 39 -13 18 6 28 6
43 1 13 -5 27 -5 35 -1 3 2 10 8 14 13 11 13 18 17 31 17 13 0 20 -4 31 -17 4
-5 12 -12 18 -15 l9 -6 67 0 67 0 6 -6 c6 -6 8 -11 5 -11 -1 0 -4 -3 -7 -7 -3
-5 -5 -8 -6 -7 -1 1 -4 -2 -8 -5 -8 -6 -19 -27 -19 -35 0 -5 -9 -14 -14 -14
-11 -1 -24 -2 -31 -4 -4 -1 -8 -2 -8 -2 0 0 -5 -2 -11 -4 -17 -6 -26 -5 -31 5
-5 9 3 23 13 23 3 0 4 1 2 2 -2 1 -2 6 -2 18 l1 17 -15 2 c-11 1 -16 0 -25 -3
-7 -2 -12 -5 -13 -6 0 -1 -2 -2 -3 -2 -2 0 -3 -1 -3 -2 0 0 -5 -4 -11 -8 -11
-6 -13 -7 -35 -1 -13 3 -19 7 -23 15 -4 7 -11 9 -19 6 -7 -3 -16 -4 -33 -4
-30 0 -41 -5 -52 -25 -8 -13 -10 -15 -16 -15 -7 0 -9 3 -16 15 -14 30 -37 38
-61 24 -7 -5 -10 -9 -18 -24 -5 -9 -11 -19 -13 -20 -6 -4 -27 -4 -33 1 -6 5
-22 38 -21 43 2 10 11 16 50 35 16 9 28 25 39 53 2 4 22 21 26 21 1 0 3 1 4 3
4 5 19 13 27 15 7 2 15 1 24 -2z m-379 -37 c7 -4 9 -9 15 -40 6 -31 6 -36 1
-42 -10 -11 -26 -4 -39 16 -4 6 -8 11 -10 13 -10 9 -15 33 -8 45 6 12 26 16
41 8z m840 -26 c3 -3 4 -7 4 -14 0 -13 -6 -19 -19 -19 -13 0 -19 6 -19 19 0 7
1 11 4 14 7 8 23 8 30 0z m-702 -57 c5 -3 5 -4 -1 -11 l-4 -5 -4 4 c-4 6 -4
10 0 10 2 0 3 1 3 2 0 3 1 3 6 0z m905 -37 c2 -4 3 -12 3 -17 0 -9 -1 -11 -6
-16 -5 -5 -7 -6 -16 -6 -11 0 -23 5 -26 10 -2 5 3 26 7 30 6 6 24 10 30 7 3
-1 6 -4 8 -8z m-553 -7 c3 -4 3 -6 -1 -6 -1 0 -3 -1 -3 -2 -1 -2 -2 -2 -5 0
-3 3 -3 4 -1 7 4 4 6 4 10 1z m953 -12 c4 -6 4 -24 -1 -30 -7 -9 -27 -9 -34 0
-5 6 -5 24 0 30 7 9 27 9 35 0z m-886 -11 c2 -4 4 -7 4 -8 0 -4 -11 -19 -14
-19 -1 0 -7 -6 -14 -13 -14 -15 -22 -17 -29 -9 -9 11 0 28 19 37 6 3 13 7 15
8 1 2 3 3 5 3 1 0 4 1 5 3 3 4 5 4 9 -2z"/>
<path d="M1108 3645 c-22 -5 -33 -9 -36 -15 -1 -1 -2 -9 -3 -16 l-1 -13 8 -8
c20 -19 68 -71 75 -81 1 0 6 -1 12 -1 26 -2 31 11 18 42 l-7 16 1 22 c1 12 2
23 2 23 2 3 -6 19 -12 25 -12 12 -24 13 -57 6z"/>
<path d="M1679 3588 c-4 -2 -15 -7 -23 -12 -25 -15 -74 -38 -108 -52 -12 -5
-27 -12 -35 -16 -18 -10 -34 -16 -46 -17 -6 -1 -19 -4 -30 -7 -11 -4 -33 -10
-50 -15 -34 -10 -42 -13 -54 -21 -16 -10 -19 -11 -46 -11 -24 0 -27 0 -37 -5
-6 -4 -16 -10 -23 -16 -14 -12 -17 -14 -27 -15 -22 -3 -38 -14 -40 -28 -2 -9
6 -30 12 -37 5 -5 15 -17 21 -25 3 -4 9 -11 13 -15 3 -5 6 -9 6 -10 0 -3 15
-10 32 -15 17 -5 15 -5 72 -3 7 0 18 -5 26 -11 4 -4 15 -7 25 -8 15 -2 63 14
75 24 11 10 23 13 49 15 15 1 29 3 33 5 4 1 25 9 46 17 21 8 44 17 49 19 6 2
24 11 40 18 37 16 95 45 112 56 4 3 10 6 13 7 2 1 6 4 8 6 2 2 9 7 17 11 8 4
22 13 32 20 36 25 37 26 39 40 1 12 -2 21 -9 26 -5 3 -45 22 -80 37 -15 7 -34
15 -41 18 -40 20 -56 24 -71 20z m100 -82 c11 -5 16 -27 8 -41 -8 -16 -40 -16
-48 0 -4 8 -4 24 0 32 5 12 23 15 40 9z m-100 -3 c12 -7 14 -33 3 -43 -8 -9
-32 -9 -40 0 -9 8 -9 32 0 41 7 7 27 8 37 2z m-90 -96 c5 -8 1 -16 -8 -16 -9
0 -13 8 -8 16 2 3 5 5 8 5 3 0 6 -2 8 -5z"/>
</g>
</svg>
