<?xml version="1.0" standalone="no"?>
<!DOCTYPE svg PUBLIC "-//W3C//DTD SVG 20010904//EN"
 "http://www.w3.org/TR/2001/REC-SVG-20010904/DTD/svg10.dtd">
<svg version="1.0" xmlns="http://www.w3.org/2000/svg"
 width="1100.000000pt" height="2850.000000pt" viewBox="0 0 1100.000000 2850.000000"
 preserveAspectRatio="xMidYMid meet">
<metadata>
Created by potrace 1.15, written by Peter Selinger 2001-2017
</metadata>
<g transform="translate(0.000000,2850.000000) scale(0.500000,-0.500000)"
fill="#000000" stroke="none">
<path d="M1336 3796 c-3 -1 -6 -1 -7 0 0 0 -1 0 -1 -2 0 -1 -1 -2 -3 -2 -4 0
-14 -12 -18 -21 -5 -13 -4 -167 1 -191 5 -21 5 -31 0 -52 -8 -35 -3 -60 15
-76 12 -11 15 -16 15 -27 0 -16 -4 -20 -22 -19 -9 0 -17 6 -27 23 -3 4 -8 9
-12 10 -4 2 -7 4 -7 5 0 1 -2 1 -4 1 -6 1 -18 14 -16 17 2 4 4 24 5 45 0 9 1
18 2 19 4 2 7 18 8 35 0 17 -4 29 -13 39 -2 3 -6 7 -8 10 -2 3 -8 10 -12 16
-15 22 -25 27 -76 35 -3 1 -14 3 -26 5 -93 18 -97 18 -108 16 -20 -4 -30 -20
-33 -50 -1 -8 -2 -25 -4 -38 -2 -13 -3 -27 -4 -33 -1 -5 -1 -13 -2 -16 0 -3
-1 -10 -2 -14 -1 -4 -3 -17 -4 -28 -2 -11 -4 -23 -4 -27 -2 -16 -14 -79 -19
-107 -8 -39 -9 -43 -6 -52 5 -21 22 -26 43 -15 18 9 23 9 28 3 4 -5 4 -6 0
-13 -2 -4 -6 -9 -8 -12 -4 -4 -5 -7 -5 -18 0 -13 0 -14 8 -21 11 -12 14 -17
14 -26 0 -23 -24 -22 -55 3 -11 8 -17 10 -29 8 -7 -1 -13 -3 -14 -3 0 -1 -3
-3 -5 -4 -4 -2 -12 -15 -12 -20 -2 -12 -3 -27 -3 -33 0 -6 -1 -9 -4 -12 -3 -2
-7 -6 -8 -7 -2 -2 -4 -5 -4 -7 0 -2 -1 -6 -2 -8 -5 -10 -25 -64 -25 -70 -1
-10 2 -18 10 -25 4 -4 8 -7 9 -7 4 0 24 -14 30 -21 9 -11 23 -14 42 -9 20 5
24 2 35 -21 9 -17 18 -27 35 -36 14 -7 21 -11 35 -20 11 -7 13 -8 23 -8 25 1
31 10 60 95 6 17 11 32 12 34 2 6 2 7 4 18 1 6 4 14 6 19 2 4 7 19 10 32 4 13
7 24 8 25 3 2 8 20 8 29 0 4 1 11 2 15 1 4 1 6 0 6 -3 0 -2 8 2 12 4 3 5 4 17
6 8 2 25 18 31 29 2 4 9 13 17 21 7 8 13 16 13 17 0 2 1 3 2 3 0 0 3 3 5 7 2
3 6 8 8 10 16 13 20 19 26 33 12 25 14 29 20 33 4 2 8 6 9 8 2 4 10 10 15 11
1 0 6 3 10 6 5 3 11 6 14 7 6 0 11 6 11 12 0 3 3 7 7 10 l8 5 5 -5 4 -4 -4 -9
c-4 -6 -7 -8 -12 -9 -3 -1 -7 -2 -7 -4 -3 -4 -3 -32 0 -43 7 -24 2 -37 -13
-39 -28 -4 -38 -12 -51 -37 -5 -9 -12 -19 -15 -23 -5 -5 -14 -20 -22 -36 -5
-11 -10 -12 -43 -11 -13 0 -16 0 -23 -5 -4 -3 -9 -5 -10 -5 -2 0 -2 0 0 -2 1
-1 2 -5 2 -11 -1 -11 4 -18 15 -24 6 -3 12 -3 33 -3 l27 1 6 -6 6 -6 -1 -59
c0 -75 1 -79 29 -93 14 -7 16 -8 30 -6 10 1 17 3 26 7 14 7 23 8 38 1 19 -9
35 -6 46 8 9 12 19 18 32 18 19 0 28 -9 28 -29 -1 -16 -7 -24 -28 -35 -16 -8
-32 -8 -53 0 -13 5 -17 5 -31 4 -19 -1 -31 -5 -34 -9 -5 -6 -4 -26 2 -36 4 -7
6 -12 6 -20 0 -19 -8 -27 -27 -27 -16 0 -23 5 -24 17 -1 8 -1 8 -2 3 0 -7 0
-7 -10 -7 -5 0 -12 1 -15 2 -3 1 -5 2 -4 1 0 -1 0 -3 -2 -5 -2 -2 -4 -6 -4 -9
0 -3 -1 -5 -2 -5 -2 0 -5 -2 -7 -5 -5 -5 -6 -6 -18 -6 -19 0 -28 -7 -38 -26
-13 -26 -14 -26 -46 -17 -12 3 -26 6 -33 7 -11 1 -13 2 -23 12 -13 14 -24 21
-33 23 -5 1 -38 2 -75 2 -62 0 -67 0 -74 -4 -4 -2 -6 -4 -5 -4 1 0 1 -1 -1 -2
-3 -2 -6 -30 -3 -32 2 -1 3 -8 3 -16 0 -17 1 -26 7 -41 5 -13 6 -27 2 -35 -1
-2 -7 -8 -14 -13 -13 -9 -23 -21 -23 -29 0 -4 0 -5 -2 -1 -2 6 -12 13 -13 10
0 -1 -1 1 -1 4 0 14 -17 29 -35 32 -28 5 -35 10 -35 25 0 16 12 24 31 19 20
-4 38 3 45 17 5 12 5 17 0 27 -8 19 -26 27 -54 24 -19 -2 -40 -2 -110 0 -38 1
-49 1 -54 -1 -10 -4 -16 -2 -20 6 -3 6 -4 7 -1 13 2 3 3 9 3 18 -1 11 -1 12 5
18 l6 6 60 0 c60 0 71 1 71 3 0 1 1 2 3 2 4 0 14 12 18 21 2 5 3 14 3 26 0 35
-5 41 -46 60 -7 3 -10 10 -10 22 0 12 3 19 10 22 32 15 39 20 44 35 3 9 3 16
-1 25 -4 9 -14 21 -18 21 -2 0 -3 1 -3 2 0 2 -11 3 -71 3 l-60 0 -6 6 c-5 6
-6 7 -5 17 1 16 -3 29 -14 47 -5 9 -10 18 -11 21 -2 9 -15 35 -22 45 -6 8 -7
11 -7 20 0 11 1 12 8 18 7 7 29 22 56 38 7 4 14 9 16 11 2 2 5 4 7 4 2 0 3 1
2 2 -1 2 5 10 11 16 2 2 4 4 4 6 1 2 4 5 8 6 3 2 6 4 6 4 0 1 2 2 4 2 5 0 5
29 -1 31 -11 3 -23 1 -34 -5 -8 -5 -13 -6 -22 -6 -21 0 -25 11 -17 44 2 8 4
17 4 19 1 2 3 6 4 8 2 2 5 6 6 9 2 3 4 5 5 5 1 -1 9 6 18 16 9 9 18 17 20 17
14 1 20 0 30 -6 15 -7 22 -10 41 -12 11 -2 20 -4 33 -11 15 -7 21 -9 28 -9 5
1 9 1 9 2 0 1 1 2 2 2 1 0 5 3 9 6 5 4 6 7 7 15 0 6 1 11 1 11 1 1 0 2 -1 2
-1 0 -2 2 -3 4 -2 5 -34 38 -40 40 -8 3 -21 5 -34 4 -11 0 -13 1 -17 5 -4 5
-5 7 -5 28 0 13 1 39 2 57 2 41 2 40 -2 51 -8 22 -7 22 -92 22 -66 1 -73 0
-80 -3 -13 -6 -20 -18 -22 -40 -2 -21 -9 -29 -29 -29 -12 1 -16 3 -31 16 -6 6
-17 14 -24 18 -7 4 -18 12 -24 18 -16 16 -24 20 -49 21 -23 1 -33 -1 -42 -9
-6 -5 -18 -28 -18 -34 0 -6 -5 -13 -11 -16 -4 -2 -15 -4 -33 -5 -23 -1 -32 -3
-52 -9 -31 -9 -42 -9 -50 -1 -7 6 -7 13 -3 35 0 3 0 11 -1 16 -4 19 -14 22
-47 16 -8 -2 -16 -3 -17 -2 -3 2 -26 -7 -31 -11 -2 -2 -5 -7 -7 -11 -4 -8 -4
-16 -4 -143 0 -74 0 -135 -1 -136 -1 -1 -1 -4 0 -6 1 -3 3 -3 20 -2 l19 0 1
-5 c0 -5 0 -4 1 2 1 27 9 33 39 27 13 -2 29 0 42 6 12 5 23 5 28 0 4 -4 5 -8
5 -25 1 -23 4 -29 13 -35 6 -4 30 -10 44 -11 7 0 17 -7 17 -11 1 -3 0 -9 -2
-15 -2 -9 -2 -11 3 -31 1 -5 5 -13 7 -14 6 -4 12 -17 12 -27 0 -16 -7 -23 -22
-23 -14 0 -18 3 -26 18 -9 17 -17 23 -38 28 -18 4 -20 5 -24 15 -11 25 -15 32
-22 36 -9 4 -25 3 -38 -3 -15 -6 -38 -2 -38 7 0 2 -1 3 -1 1 -1 -2 -4 -3 -10
-3 -6 0 -12 0 -15 -2 -3 -1 -6 -2 -6 -1 -1 0 -2 -2 -3 -5 -1 -3 -2 -5 -3 -5
-2 0 2 -16 4 -18 1 -1 2 -3 3 -6 1 -2 4 -6 7 -8 3 -1 5 -3 6 -4 1 -1 5 -4 10
-6 5 -3 11 -7 12 -9 4 -4 9 -23 11 -41 3 -28 12 -55 21 -65 13 -14 13 -25 1
-52 -1 -3 -4 -12 -6 -20 -5 -18 -9 -23 -20 -23 -5 0 -9 1 -10 2 -1 2 -20 -1
-29 -5 -6 -3 -8 -5 -10 -11 -3 -9 -3 -106 0 -110 1 -2 6 -3 19 -3 10 0 17 -1
17 -2 0 -1 2 4 4 11 2 7 5 14 7 16 6 6 26 6 32 -1 2 -1 6 -11 8 -21 6 -22 9
-30 11 -30 1 0 2 -1 2 -3 0 -5 22 -13 39 -14 20 -1 27 -6 31 -20 4 -16 -1 -28
-17 -40 -5 -3 -8 -6 -9 -7 -2 -2 -17 -13 -21 -15 -8 -5 -28 -4 -34 1 -4 4 -5
6 -8 20 -3 17 -10 32 -17 35 -19 10 -49 -3 -61 -27 -4 -9 -4 -10 -5 -135 0
-112 0 -127 3 -134 4 -9 14 -21 18 -21 2 0 3 -1 3 -2 0 -2 2 -2 60 -3 75 -2
77 -1 76 23 l0 14 6 1 c7 0 6 0 -1 1 -12 0 -16 5 -16 21 -1 14 1 21 9 24 19 9
43 17 39 14 0 -1 0 -3 1 -4 2 -2 2 -4 1 -4 0 -1 0 -3 1 -6 2 -6 -3 -37 -7 -41
-2 -3 -7 -4 -12 -4 -7 -1 -8 -1 -1 -1 l6 -1 0 -14 c-1 -21 4 -24 45 -24 29 0
36 2 52 12 4 3 11 7 15 9 l8 4 16 -10 c16 -9 36 -16 36 -13 0 1 1 2 3 2 6 0
10 8 11 22 1 11 1 14 -2 16 -2 1 -3 5 -3 17 0 14 0 16 6 20 4 4 7 5 18 5 12 0
16 -1 26 -10 2 -2 6 -6 9 -8 3 -3 9 -7 13 -9 5 -2 9 -5 11 -7 8 -7 22 -10 48
-11 34 -1 74 -13 79 -23 11 -21 1 -63 -18 -75 -17 -11 -17 -11 -23 -9 -5 2
-16 15 -16 20 0 4 -13 17 -21 20 -17 8 -18 7 -101 -22 -17 -6 -24 -8 -29 -7
-5 1 -10 0 -16 -2 -9 -4 -31 -19 -31 -21 0 -3 -27 -16 -30 -14 -5 3 -27 15
-33 18 -11 5 -74 0 -91 -8 -9 -4 -17 -11 -15 -13 1 0 1 -1 0 -1 -2 0 -3 -4 -3
-9 0 -5 0 -10 -1 -11 -1 0 1 -3 3 -6 11 -11 4 -45 -9 -45 -5 0 -7 1 -12 10 -6
12 -6 27 1 36 3 5 4 9 4 19 0 19 -5 23 -38 34 -28 9 -36 10 -57 2 -5 -2 -12
-4 -14 -4 -7 0 -29 -10 -35 -14 -7 -7 -13 -23 -15 -39 -1 -7 -2 -16 -2 -18 -3
-14 -7 -44 -8 -54 -1 -6 -2 -12 -2 -13 -2 -3 -10 -55 -9 -61 0 -14 13 -31 23
-31 1 0 3 -1 4 -2 0 -1 5 -3 10 -4 11 -3 14 -6 15 -21 3 -25 6 -33 21 -47 11
-11 11 -12 11 -22 0 -12 -4 -21 -11 -23 -13 -3 -35 1 -42 8 -4 4 -5 7 -5 17 0
18 -4 38 -8 40 -4 2 -27 2 -29 0 -9 -6 -20 -38 -18 -54 2 -9 7 -20 14 -27 15
-15 14 -27 -4 -33 -13 -4 -15 -7 -15 -21 0 -20 -1 -20 29 -31 31 -12 39 -13
66 -7 l20 5 7 -4 8 -4 5 5 c5 6 6 8 3 10 -1 1 -1 2 -1 4 1 1 0 3 -1 4 -1 1 -2
3 -2 5 0 1 -1 6 -3 9 -11 22 -3 49 15 49 10 -1 32 10 37 17 14 19 20 73 11 94
-2 3 -3 6 -3 7 0 1 -3 8 -8 17 -10 21 -9 24 13 37 12 8 22 21 22 29 0 3 3 4 5
1 1 -1 2 -2 3 -1 4 2 5 -6 5 -55 2 -78 3 -84 29 -86 l14 -1 17 14 c23 20 25
21 44 22 18 1 28 4 35 11 4 5 4 5 7 1 5 -6 9 -21 10 -35 3 -31 11 -43 33 -48
6 -1 13 0 35 4 16 4 30 7 33 7 10 2 19 5 25 10 7 4 7 4 7 18 l0 15 -7 5 c-5 3
-12 6 -17 7 -13 4 -19 12 -19 24 0 12 6 19 19 26 10 5 17 12 21 22 2 5 4 8 5
8 1 0 1 3 1 7 -3 16 -3 25 -2 33 2 13 3 15 14 14 5 0 11 0 13 1 4 1 23 25 28
35 12 22 33 35 52 30 13 -3 16 -7 18 -23 3 -20 -2 -29 -14 -29 -7 0 -24 -9
-31 -15 -4 -5 -5 -9 -6 -17 0 -10 0 -11 11 -24 13 -16 15 -18 29 -18 14 -1 18
1 22 9 4 8 6 32 3 36 -3 6 7 14 22 17 34 5 46 1 46 -17 0 -7 -2 -13 -8 -24 -4
-8 -10 -21 -13 -30 -7 -20 -11 -25 -26 -25 -9 0 -12 1 -19 6 -10 7 -20 9 -34
7 -8 -1 -12 -4 -27 -18 -10 -10 -17 -18 -17 -20 0 -2 -1 -5 -2 -6 -1 -1 -4
-11 -7 -23 -13 -52 -22 -63 -53 -68 -12 -2 -83 -1 -103 1 -11 2 -25 -6 -29
-15 -3 -6 -4 -6 -4 -2 0 2 -1 4 -2 3 -1 -1 -2 0 -2 2 0 2 -1 3 -2 3 -1 0 -1 3
0 6 1 12 -13 28 -29 33 -10 3 -11 3 -26 -2 -9 -2 -22 -5 -30 -5 -33 -1 -48 -6
-55 -21 -9 -18 -4 -33 12 -41 11 -5 18 -5 38 -2 7 1 21 3 31 4 19 2 37 9 47
18 9 9 15 6 15 -8 0 -6 3 -15 7 -27 4 -10 11 -28 14 -40 7 -24 14 -39 21 -47
21 -22 22 -28 21 -69 -1 -16 4 -29 10 -31 2 0 4 -1 4 -2 0 -6 97 -6 151 1 52
7 65 13 69 32 1 6 2 14 1 18 -3 18 -3 27 -1 34 5 12 6 22 8 46 1 22 1 24 7 28
4 4 7 5 18 5 17 0 22 -5 30 -28 3 -8 7 -17 9 -19 3 -3 29 -5 34 -2 4 2 20 40
23 53 0 3 3 12 5 20 4 17 5 18 11 55 9 53 9 56 3 79 -6 23 -5 30 5 51 13 26
12 24 20 128 3 40 0 62 -9 71 -6 6 -28 8 -31 3 -5 -6 -15 -5 -19 3 -2 3 -1 5
4 10 7 7 11 7 16 2 3 -3 8 -4 17 -4 17 0 23 1 22 6 0 2 0 4 1 4 2 0 2 5 1 18
-1 18 -8 40 -17 58 -10 18 -9 27 5 40 14 15 21 25 21 35 0 6 1 7 2 3 0 -3 3
-8 5 -12 2 -4 4 -12 4 -25 3 -50 20 -65 75 -65 13 0 28 1 32 2 l8 3 0 16 c0
11 1 17 3 18 1 0 0 1 -2 1 -8 0 -20 14 -24 26 -6 22 -2 38 10 38 7 0 8 -2 18
-18 4 -8 8 -14 10 -14 1 0 3 -1 3 -2 1 -1 2 -2 4 -3 2 0 4 -1 6 -2 1 -1 9 -2
16 -2 21 -1 32 -8 32 -20 0 -6 12 -29 18 -34 3 -2 9 -6 13 -7 10 -3 43 -2 56
3 13 5 35 5 49 0 8 -3 16 -4 29 -4 17 0 18 0 24 -6 l6 -6 0 -86 0 -86 5 -9 c3
-5 10 -12 14 -16 13 -9 24 -21 24 -26 0 -5 -14 -16 -20 -17 -8 -1 -11 -3 -18
-15 l-5 -9 0 -92 c-1 -106 -2 -103 16 -123 13 -15 15 -18 15 -26 1 -10 -2 -16
-15 -30 -6 -7 -12 -17 -14 -21 -4 -13 -4 -54 0 -64 4 -9 14 -21 18 -21 2 0 3
-1 3 -2 0 -2 1 -2 34 -3 30 -1 41 1 49 9 3 4 13 29 12 31 -3 2 -2 20 0 25 3 6
10 11 12 8 1 0 2 -1 3 -1 0 0 4 -1 7 -3 3 -1 6 -2 8 -2 7 0 19 -23 13 -27 -2
-1 7 -27 11 -31 8 -9 18 -10 56 -9 40 1 41 1 41 3 0 1 1 2 3 2 4 0 14 12 18
21 3 7 3 18 3 88 l-1 80 -6 10 c-3 5 -8 11 -11 12 -8 6 -18 18 -18 22 0 4 10
16 18 22 3 1 8 7 11 12 l6 10 1 68 c0 70 -1 82 -8 96 -4 8 -4 40 0 48 10 18 9
34 -1 57 -7 14 -7 26 0 40 2 6 5 15 6 20 2 10 -3 38 -8 47 -4 8 -4 25 0 25 2
0 6 1 10 3 3 2 9 4 13 4 6 0 7 1 12 11 3 6 7 13 8 15 2 2 3 5 3 5 -1 1 1 3 4
6 7 6 22 6 28 -1 6 -5 7 -21 2 -27 -2 -2 -3 -5 -2 -8 0 -3 1 -8 1 -12 0 -6 2
-10 6 -14 l6 -7 46 -1 46 0 11 5 c9 4 13 8 18 17 11 17 17 22 25 22 8 0 14 -5
25 -22 9 -14 24 -23 35 -21 15 3 29 14 39 30 2 3 10 9 17 14 26 17 28 23 28
78 0 55 -3 61 -27 60 -9 0 -11 1 -11 3 0 2 -1 2 -2 -1 -3 -7 -8 -10 -18 -10
-15 0 -23 8 -23 23 0 15 8 23 23 23 10 0 15 -3 18 -10 1 -3 2 -3 2 -1 0 2 2 3
11 3 21 -1 27 7 27 36 0 12 -1 21 -3 26 -4 9 -14 21 -18 21 -2 0 -3 1 -3 2 0
2 -2 2 -76 3 -80 1 -78 2 -105 -13 -15 -9 -19 -11 -28 -11 -9 0 -13 2 -28 11
-25 14 -29 14 -66 14 l-32 -1 -6 6 c-5 5 -6 8 -5 13 1 9 -4 28 -8 34 -9 14
-14 26 -14 35 0 8 6 28 10 34 5 7 8 22 8 34 -2 20 -8 31 -33 56 -7 7 -13 16
-14 19 -4 16 -12 34 -16 36 -3 2 -5 3 -5 4 0 1 -1 2 -3 2 -2 0 -3 1 -3 2 0 1
-4 3 -8 5 -15 7 -16 8 -16 53 0 37 0 40 4 45 9 11 29 10 38 -1 4 -4 4 -8 4
-35 0 -29 1 -42 6 -48 1 -1 2 -5 2 -8 1 -3 2 -5 4 -6 2 -1 4 -2 4 -3 0 0 6 -1
13 0 11 1 14 2 17 6 2 3 3 5 3 6 0 1 2 2 6 4 3 1 7 4 9 6 3 3 14 3 92 3 102 0
97 -1 113 18 12 14 20 21 23 21 14 1 19 0 23 -3 4 -4 25 -6 25 -2 0 0 1 1 2 0
3 -2 10 3 13 10 4 9 4 83 0 92 -4 13 -21 25 -38 28 -7 1 -30 12 -38 18 -7 5
-25 3 -35 -3 -4 -2 -12 -6 -18 -8 l-11 -4 -3 5 c-6 7 -5 13 4 20 4 3 10 5 12
5 2 0 4 1 4 2 0 2 1 2 1 1 3 -2 19 14 24 22 4 8 4 22 0 26 -2 1 -2 3 -2 4 2 2
-12 7 -20 7 -4 0 -9 1 -12 2 -14 6 -34 3 -48 -6 -9 -5 -12 -6 -23 -6 -14 0
-18 3 -30 24 -11 19 -20 24 -47 26 -31 3 -40 6 -49 18 -15 20 -28 30 -40 30
-3 0 -13 -3 -22 -6 -29 -11 -32 -11 -47 -6 -14 6 -16 36 -3 53 15 19 21 23 40
23 21 1 44 -2 58 -6 14 -4 40 5 40 14 0 2 1 4 2 5 3 2 2 23 -3 43 -6 25 -6 29
0 53 6 25 7 89 2 102 -4 9 -14 21 -18 21 -2 0 -3 1 -3 2 0 2 -1 2 -16 3 -7 0
-12 0 -12 -1 0 -1 -2 -2 -5 -3 -3 -1 -5 -2 -5 -3 1 0 0 -3 -1 -6 -2 -3 -2 -9
-2 -15 0 -6 -1 -9 -3 -10 -2 0 -1 -1 1 -1 7 0 12 -18 9 -31 -6 -24 -35 -27
-59 -6 -4 4 -15 11 -24 15 -18 10 -23 13 -23 18 0 8 -9 27 -15 33 -4 4 -10 7
-15 9 -8 2 -60 3 -68 0z m-615 -96 c11 -10 3 -28 -11 -28 -9 0 -16 6 -16 16 0
14 17 22 27 12z m760 -40 c7 -6 7 -19 1 -25 -6 -7 -19 -7 -25 -1 -7 6 -7 19
-1 25 6 7 19 7 25 1z m-824 -26 c11 -10 3 -28 -11 -28 -9 0 -16 6 -16 16 0 14
17 22 27 12z m-198 -6 c10 -9 10 -30 0 -38 -9 -7 -26 -6 -33 2 -9 8 -9 26 0
34 8 8 25 9 33 2z m-232 -32 c4 -2 8 -6 9 -7 0 -2 8 -10 16 -19 19 -21 19 -21
19 -34 0 -18 -7 -26 -25 -27 -17 0 -18 1 -40 29 -3 4 -7 9 -9 11 -11 11 -15
32 -8 43 7 10 25 12 38 4z m307 -9 c14 -10 20 -37 12 -46 -14 -15 -38 8 -38
36 0 14 15 20 26 10z m665 -26 c13 -4 21 -13 21 -24 1 -20 -6 -26 -26 -25 -18
0 -30 36 -16 48 6 5 8 5 21 1z m-816 -8 c4 -4 5 -7 5 -15 0 -13 5 -30 12 -36
5 -6 17 -11 19 -9 1 0 4 -2 8 -6 l6 -6 -1 -19 c-1 -10 -3 -26 -6 -34 -3 -10
-4 -21 -4 -33 0 -17 -1 -19 -5 -23 -7 -7 -28 -3 -42 9 l-6 5 1 16 c2 20 -1 34
-11 47 -12 16 -14 21 -12 31 1 5 2 12 2 15 2 9 2 19 0 36 -2 16 -1 17 4 22 7
7 23 7 30 0z m138 -146 c12 -7 14 -33 3 -43 -8 -9 -29 -9 -40 0 -9 7 -9 32 0
41 7 7 27 8 37 2z m695 -34 c10 -5 14 -25 8 -39 -6 -14 -27 -17 -47 -6 -15 9
-36 8 -50 -1 -2 -2 -9 -3 -15 -3 -15 0 -22 7 -22 23 0 16 7 23 22 23 6 0 13
-1 15 -3 13 -8 35 -8 49 2 13 9 27 10 40 4z m-749 -53 c6 -3 9 -11 9 -22 0
-15 -7 -22 -23 -22 -16 0 -23 7 -23 23 0 10 1 12 6 17 5 5 7 6 17 6 7 0 13 -1
14 -2z m1257 -24 c4 -3 4 -6 4 -20 -1 -15 -2 -17 -7 -21 -10 -9 -35 -6 -43 6
-1 1 -9 2 -18 2 -12 1 -16 0 -21 -3 -16 -11 -34 -12 -51 -1 -12 7 -36 15 -43
15 -3 0 -7 3 -9 5 -4 5 -4 5 -1 10 3 4 5 5 11 4 12 -3 37 -2 48 2 8 2 14 2 18
1 11 -2 22 -7 22 -8 0 -4 9 -6 19 -6 14 0 17 0 17 2 0 1 1 2 2 1 1 -1 2 0 2 0
1 1 4 5 9 9 7 6 8 6 22 6 12 0 16 -1 19 -4z m-1158 -34 c5 -5 5 -11 0 -16 -10
-10 -27 5 -16 16 4 4 12 4 16 0z m1243 -2 c11 -10 3 -28 -11 -28 -9 0 -16 6
-16 16 0 14 17 22 27 12z m-409 -4 c6 -6 5 -13 -2 -17 -6 -3 -6 -3 -12 0 -4 3
-6 5 -6 8 0 11 13 16 20 9z m-9 -71 c4 -12 -6 -22 -18 -18 -11 4 -12 23 -1 25
2 0 4 1 3 2 0 1 2 0 7 -1 4 -2 8 -4 9 -8z m-963 4 c23 -1 46 -1 50 -1 13 0 20
-8 20 -23 0 -10 -1 -12 -6 -17 -3 -3 -7 -6 -10 -6 -3 0 -12 -3 -26 -9 -8 -4
-19 -15 -23 -24 -5 -13 -6 -14 -14 -18 -7 -4 -7 -4 -14 0 -4 2 -9 7 -11 11 -2
4 -6 9 -8 11 -8 8 -13 25 -14 46 l-1 20 6 6 c3 3 7 6 7 6 1 -1 21 -1 44 -2z
m543 -32 c3 -4 3 -8 2 -17 -4 -29 -3 -40 4 -57 6 -14 1 -25 -12 -25 -8 0 -19
10 -28 26 -6 11 -6 12 -6 41 l0 30 6 4 c13 8 28 7 34 -2z m148 -46 c12 -12 3
-31 -13 -31 -11 0 -18 7 -18 18 0 11 7 18 18 18 6 0 9 -1 13 -5z m-710 -169
c3 -3 7 -10 11 -16 3 -6 8 -13 10 -15 6 -6 22 -9 33 -7 19 4 24 3 33 -6 4 -5
8 -10 8 -11 0 -2 1 -4 3 -4 2 -1 3 -3 3 -4 0 -2 3 -5 6 -7 4 -3 8 -8 10 -12 4
-7 4 -8 -1 -12 -4 -3 -4 -4 -13 0 -5 2 -9 5 -10 7 -2 2 -5 3 -17 3 -15 0 -17
-1 -29 -12 -3 -3 -9 -7 -15 -10 -28 -13 -37 -24 -38 -47 0 -5 0 -12 -1 -14 0
-3 -5 -10 -11 -17 -11 -13 -16 -25 -18 -45 -2 -15 -4 -21 -11 -24 -20 -9 -43
-17 -39 -14 0 1 0 3 -1 4 -2 2 -2 4 -1 4 0 1 0 3 -1 6 -1 2 -1 9 0 15 1 6 2
14 3 17 1 3 4 9 8 13 3 4 7 9 8 11 5 5 9 22 10 35 0 7 2 16 3 19 3 7 3 29 0
44 -2 11 -2 12 3 23 3 6 8 13 11 15 7 6 11 16 13 31 1 7 2 12 3 13 1 0 1 3 0
6 -2 13 18 20 27 11z m234 1 c3 -3 3 -3 0 -6 -4 -5 -11 1 -7 6 4 4 4 4 7 0z
m846 -56 c6 -4 8 -8 10 -21 2 -15 4 -22 12 -39 16 -34 4 -50 -30 -40 -8 3 -17
3 -31 3 -11 -1 -20 -1 -20 0 0 1 -2 2 -4 3 -5 2 -4 10 3 15 17 15 19 17 21 24
1 5 2 15 1 26 -2 20 1 26 11 31 7 3 21 2 27 -2z m-819 -71 c0 -4 0 -7 0 -8 1
-3 -5 -12 -12 -17 -7 -5 -27 -10 -48 -12 -16 -2 -18 -2 -23 4 l-4 5 3 13 c6
18 9 20 32 18 10 -1 20 -1 21 -1 3 0 14 2 15 3 0 1 4 1 8 1 6 -1 7 -1 8 -6z
m708 -27 c2 -1 4 -3 6 -3 7 -3 4 -25 -5 -31 -5 -4 -22 -4 -26 0 -1 2 -4 3 -5
3 -2 0 -3 6 -2 20 0 8 9 14 20 14 5 0 11 -1 12 -3z m320 -8 c2 -2 4 -8 5 -12
3 -23 6 -29 20 -45 10 -11 11 -12 11 -23 0 -17 -10 -25 -28 -21 -9 2 -13 7
-14 19 -1 7 -2 13 -2 15 -1 2 -2 7 -4 11 -1 5 -6 14 -12 20 -10 12 -11 15 -10
27 1 14 23 20 34 9z m-1132 -20 c3 -4 2 -8 -4 -11 -5 -3 -6 -3 -10 1 l-4 4 5
5 c4 6 10 7 13 1z m738 -14 c8 -5 9 -21 1 -28 -12 -12 -31 -3 -31 13 0 16 16
23 30 15z m-193 -24 c9 -9 4 -37 -8 -43 -12 -5 -18 -5 -24 2 -8 10 -6 36 4 43
7 5 22 4 28 -2z m-473 -12 c3 -3 4 -7 4 -14 0 -13 -6 -19 -19 -19 -13 0 -19 6
-19 19 0 7 1 11 4 14 7 8 23 8 30 0z m1186 -7 c1 0 5 -3 8 -6 5 -5 6 -7 6 -18
0 -11 -1 -13 -6 -18 -6 -6 -7 -6 -18 -6 -11 0 -12 0 -18 6 -5 5 -6 7 -6 17 0
14 3 20 12 24 5 2 8 2 22 1z m-403 -11 c3 -2 3 -4 2 -5 -2 0 -3 -3 -3 -5 l-1
-4 -2 4 c-1 2 -3 5 -4 5 -1 1 0 3 1 5 4 4 4 4 7 0z m157 -3 c8 -8 4 -21 -11
-28 -13 -7 -21 4 -14 20 3 5 6 10 7 11 6 2 14 1 18 -3z m-745 -25 c10 -10 5
-35 -8 -42 -9 -4 -11 -4 -18 1 -9 8 -9 32 0 41 7 7 19 7 26 0z m469 -9 c5 -6
5 -12 0 -18 -7 -8 -22 -2 -22 9 0 11 15 17 22 9z m134 -6 c1 -1 4 -3 9 -5 12
-7 14 -10 14 -26 0 -14 0 -16 -6 -20 -4 -4 -7 -5 -18 -5 -11 0 -14 1 -18 5 -6
4 -6 6 -6 20 0 15 0 16 6 21 3 3 6 6 6 7 -2 4 10 6 13 3z m106 -5 c0 -1 1 -3
3 -5 1 -2 3 -7 4 -12 1 -7 3 -11 10 -18 21 -20 25 -27 22 -37 -1 -3 -2 -3 -3
-1 -1 2 -2 2 -2 1 0 -2 -2 -2 -6 -1 -6 1 -28 20 -27 23 1 1 -5 6 -12 11 -24
17 -25 31 -5 42 7 3 16 2 16 -3z m-86 -154 c8 -4 10 -12 11 -33 1 -19 4 -34 7
-34 1 0 2 -1 2 -3 0 -1 3 -5 7 -8 8 -7 12 -15 12 -26 0 -19 -9 -28 -28 -28
-21 0 -27 8 -28 37 -1 19 -4 34 -7 34 -1 0 -2 1 -2 3 0 2 -3 4 -6 6 -8 4 -21
3 -41 -3 -20 -7 -30 -1 -26 15 1 6 3 7 22 12 17 5 22 8 33 19 5 5 12 10 15 11
4 1 7 2 8 2 3 1 16 -1 21 -4z m-865 -27 c10 -10 4 -30 -8 -30 -6 0 -22 -6 -23
-8 -3 -4 -14 9 -15 17 -2 11 1 16 11 18 4 1 9 3 11 4 6 4 19 4 24 -1z m222
-11 c6 -5 6 -10 -2 -21 -3 -6 -6 -7 -12 -8 -21 -1 -24 29 -2 33 3 0 7 1 8 1 2
0 5 -2 8 -5z m-370 -106 c7 -1 15 -3 20 -3 9 0 15 -6 15 -14 0 -9 -6 -13 -18
-15 -6 0 -12 -2 -13 -3 -1 -1 -3 -2 -3 -1 -1 1 -4 -1 -6 -4 l-5 -4 -9 7 c-14
10 -18 21 -13 34 3 7 4 8 12 7 4 0 13 -2 20 -4z m961 -58 c2 -2 7 -12 10 -22
7 -20 13 -30 18 -33 6 -3 26 -10 35 -11 5 -1 9 -2 10 -3 1 -1 11 -6 22 -11 28
-12 35 -19 25 -29 -3 -3 -6 -4 -36 -3 -22 1 -35 2 -39 4 -22 10 -33 14 -46 16
-8 2 -14 5 -17 12 -4 7 -28 70 -29 74 0 4 4 9 10 12 5 3 32 -2 37 -6z m45
-175 c4 -6 4 -24 0 -29 -1 -1 -3 -6 -4 -10 -1 -7 -5 -15 -5 -10 0 1 -1 1 -2
-1 -2 -3 -2 -2 -2 1 0 1 -1 3 -2 3 -2 0 -4 2 -16 13 -7 6 -8 8 -8 18 0 7 1 12
4 15 7 9 27 9 35 0z m-780 -20 c11 -10 3 -28 -11 -28 -9 0 -16 6 -16 16 0 14
17 22 27 12z m-145 -6 c5 -6 5 -12 0 -18 -7 -8 -22 -2 -22 9 0 11 15 17 22 9z
m929 -47 c5 -12 1 -19 -10 -21 -7 -1 -13 -5 -13 -9 0 -1 -2 -5 -5 -8 -3 -3 -5
-8 -5 -11 0 -4 -5 -14 -9 -16 -5 -4 -23 2 -30 10 -8 9 -1 32 10 32 3 0 7 1 10
2 3 1 9 2 13 2 5 1 9 2 9 2 1 1 2 2 3 1 2 -1 3 2 2 6 0 0 1 1 2 1 2 0 16 13
16 16 0 5 4 1 7 -7z m-847 -34 l-5 -5 -4 4 -5 5 4 4 5 5 4 -4 5 -5 -4 -4z"/>
<path d="M853 3733 c-6 -7 -10 -25 -8 -34 1 -5 0 -10 -3 -19 -2 -6 -4 -17 -4
-23 0 -11 1 -12 7 -18 6 -6 9 -7 16 -7 5 0 10 1 12 2 1 1 4 4 6 6 11 8 15 22
15 47 0 35 -7 48 -28 49 -7 0 -12 -1 -13 -3z"/>
<path d="M1851 3430 l-10 -10 0 -16 c0 -17 3 -24 14 -30 26 -16 55 16 42 47
-6 15 -11 18 -24 19 -12 0 -13 -1 -22 -10z"/>
<path d="M803 3373 c0 -1 -6 -2 -14 -3 -28 -4 -46 -9 -53 -17 -2 -3 -4 -6 -4
-6 0 -1 -1 -3 -3 -4 -3 -3 -8 -20 -10 -31 -1 -3 -3 -10 -4 -16 -4 -12 -3 -29
2 -41 2 -4 3 -13 3 -20 0 -13 4 -29 10 -35 9 -9 14 -10 51 -9 38 1 39 1 39 3
0 1 1 2 3 2 4 0 14 12 18 21 2 6 3 17 3 70 0 67 -1 75 -10 81 -6 4 -29 9 -31
5z"/>
<path d="M160 3180 c0 -2 -1 -4 -1 -3 -1 0 -8 1 -16 1 l-14 1 0 -10 0 -10 17
-1 c9 -1 16 -1 16 0 1 6 1 16 0 21 -1 5 -2 5 -2 1z"/>
<path d="M583 2285 c-1 -2 -1 -4 1 -5 1 0 2 -1 1 -2 -1 -1 5 -2 13 -2 11 0 14
-1 13 -2 -1 -2 -1 -2 1 -1 1 1 2 5 2 8 -1 6 -1 6 -16 7 -12 0 -14 0 -15 -3z"/>
</g>
</svg>
