<?xml version="1.0" standalone="no"?>
<!DOCTYPE svg PUBLIC "-//W3C//DTD SVG 20010904//EN"
 "http://www.w3.org/TR/2001/REC-SVG-20010904/DTD/svg10.dtd">
<svg version="1.0" xmlns="http://www.w3.org/2000/svg"
 width="871.000000pt" height="2850.000000pt" viewBox="0 0 871.000000 2850.000000"
 preserveAspectRatio="xMidYMid meet">
<metadata>
Created by potrace 1.15, written by Peter Selinger 2001-2017
</metadata>
<g transform="translate(0.000000,2850.000000) scale(0.500000,-0.500000)"
fill="#000000" stroke="none">
<path d="M445 3592 c-12 -4 -26 -18 -30 -32 -3 -11 -8 -34 -10 -49 -1 -11 -3
-16 -4 -21 -2 -6 -2 -19 1 -26 3 -9 9 -13 22 -12 11 0 11 0 21 11 14 15 23 19
36 19 15 1 19 -3 19 -19 0 -20 -15 -45 -45 -72 -20 -19 -18 -18 -39 -24 -27
-9 -35 -15 -43 -39 -4 -11 -17 -89 -17 -96 1 -7 8 -20 13 -23 2 -1 4 -2 5 -3
2 -2 15 -7 21 -7 17 -3 24 -27 12 -39 -5 -5 -8 -6 -15 -6 -26 0 -29 0 -38 -4
-16 -8 -18 -15 -18 -50 1 -28 1 -29 -5 -40 -7 -13 -13 -30 -14 -35 0 -4 -4
-21 -6 -33 -1 -3 -3 -14 -5 -26 -2 -12 -4 -23 -5 -26 0 -3 -4 -21 -8 -40 -4
-19 -7 -37 -8 -40 0 -3 -3 -17 -7 -32 -3 -15 -6 -33 -7 -39 -1 -14 -3 -21 -12
-49 -4 -12 -9 -28 -11 -37 -9 -32 -25 -85 -32 -106 -10 -26 -10 -37 -1 -59 8
-21 6 -28 -12 -34 -21 -7 -33 -16 -43 -33 -10 -17 -20 -30 -33 -43 -16 -17
-28 -22 -53 -23 -9 -1 -21 -2 -26 -2 -5 -1 -10 -2 -10 -1 -1 0 -2 -1 -2 -2 0
-1 -1 -2 -3 -2 -4 0 -14 -12 -18 -21 -3 -7 -3 -21 -3 -112 1 -57 1 -105 2
-107 3 -8 6 -9 21 -10 7 0 14 -1 15 -1 0 -1 2 2 4 5 2 4 7 9 14 13 12 7 22 17
27 28 6 13 13 19 24 20 10 1 11 1 17 -5 3 -4 6 -8 6 -9 0 -1 5 -7 10 -13 6 -6
13 -14 15 -18 4 -7 4 -8 0 -13 -5 -6 -7 -6 -22 1 -9 4 -15 6 -23 6 -13 0 -16
-2 -26 -21 -8 -16 -12 -19 -24 -19 -11 0 -18 4 -18 11 0 3 -1 3 -2 1 -1 -2 -5
-2 -15 -2 -7 1 -12 1 -12 0 0 0 -1 -2 -3 -4 -5 -6 -7 -22 -6 -42 1 -9 2 -28 3
-41 1 -13 2 -29 2 -35 0 -6 1 -20 2 -31 1 -11 2 -26 2 -34 1 -8 1 -23 2 -35 1
-12 1 -28 2 -36 0 -8 1 -24 2 -34 1 -10 2 -24 2 -31 0 -7 1 -23 2 -36 1 -13 2
-28 2 -33 1 -5 1 -19 2 -32 2 -34 7 -46 23 -56 l9 -5 141 0 c139 0 152 0 152
3 0 1 1 2 3 2 4 0 14 12 18 21 3 7 3 29 3 200 l-1 192 6 6 6 6 84 -1 c71 0 85
0 94 3 12 4 23 13 32 28 3 5 8 11 12 12 7 4 23 4 34 0 11 -4 30 -1 35 5 5 6
21 9 26 4 4 -4 5 -12 2 -12 -2 0 -2 -1 0 -2 1 -2 2 -6 3 -10 1 -5 2 -8 3 -8 1
0 2 -1 1 -2 -2 -3 8 -13 16 -16 6 -2 47 -2 176 -2 l168 1 11 5 c11 5 16 10 29
24 20 23 53 19 59 -5 3 -13 -3 -31 -14 -41 -3 -3 -10 -14 -13 -22 -4 -10 -5
-103 -1 -117 3 -8 18 -25 22 -25 2 0 22 -14 22 -16 0 -2 10 -14 17 -21 8 -8
13 -16 13 -22 0 -6 -6 -13 -12 -13 -6 0 -17 7 -19 12 -1 2 -2 4 -3 4 -1 0 -2
2 -2 5 0 2 -1 3 -1 2 -1 -2 -6 -3 -17 -3 l-16 0 -3 -9 c-5 -14 -5 -151 0 -162
4 -9 14 -21 18 -21 2 0 3 -1 3 -2 0 -3 13 -3 152 -3 l141 0 9 5 c18 11 23 26
21 56 -1 12 -1 25 -1 30 3 17 4 24 5 26 2 3 6 66 6 85 -1 14 -5 23 -20 38 -11
12 -16 22 -18 32 0 1 -4 13 -8 26 -7 22 -7 25 -5 33 3 11 8 17 17 19 11 2 32
15 36 20 7 10 9 17 10 27 0 5 1 20 2 34 1 14 2 28 2 32 1 4 2 64 2 133 1 114
1 126 -2 134 -4 9 -14 21 -18 21 -2 0 -3 1 -3 2 0 3 -11 3 -80 3 l-69 0 -6 6
-6 6 1 189 c0 204 0 200 -11 216 -2 4 -6 11 -8 16 -4 8 -4 8 0 17 2 4 6 11 8
15 7 10 12 27 10 40 -2 22 -12 37 -39 54 -15 10 -21 18 -20 30 0 11 6 17 17
19 20 2 33 10 39 22 5 10 5 17 1 32 -5 20 -11 27 -32 39 -20 12 -23 16 -23 27
0 11 6 19 13 19 10 0 30 9 36 16 9 10 9 11 9 189 0 183 0 179 -10 188 -6 5
-23 9 -36 7 -15 -1 -20 2 -27 15 -7 11 -11 16 -22 23 -8 5 -8 5 -76 6 -44 0
-71 0 -75 -2 -9 -3 -18 -10 -19 -15 0 -3 -1 -6 -2 -6 0 -1 -1 -5 -1 -8 0 -4
-1 -7 -2 -8 -2 0 -2 -1 1 -1 9 0 0 -17 -9 -17 -9 0 -18 17 -8 17 2 0 2 1 1 1
-2 1 -3 4 -3 8 0 3 -1 7 -1 8 -1 0 -2 3 -2 5 -4 21 -53 24 -66 5 -4 -7 -9 -25
-9 -36 0 -8 -1 -10 -6 -15 -6 -6 -7 -6 -18 -6 -11 0 -12 0 -18 6 -5 5 -6 7 -6
15 0 11 -5 29 -9 36 -2 3 -7 7 -13 9 -13 7 -52 5 -75 -3 -20 -7 -32 -7 -52 0
l-16 6 -157 0 c-103 1 -160 0 -165 -1z m113 -49 c5 -4 14 -22 14 -28 -1 -7
-18 -15 -32 -15 -17 -1 -20 2 -20 20 0 13 1 15 6 20 5 5 7 6 16 6 7 0 13 -1
16 -3z m89 -19 c7 -3 12 -13 12 -25 0 -19 -9 -28 -28 -28 -15 0 -21 4 -28 20
-9 17 -9 18 0 23 4 3 7 5 7 6 0 2 8 5 15 7 5 1 14 -1 22 -3z m349 -131 c3 -2
6 -4 6 -5 0 -1 3 -4 6 -7 5 -6 6 -6 20 -6 14 0 14 1 22 9 6 6 10 8 15 8 13 0
20 -16 10 -26 -4 -4 -15 -5 -25 -3 -10 3 -15 -2 -25 -21 -5 -10 -11 -19 -14
-21 -7 -5 -23 -5 -30 0 -18 10 -31 52 -22 66 7 10 25 13 37 6z m-418 -29 c9
-3 20 -5 33 -5 24 -2 29 -5 29 -18 0 -14 -4 -16 -34 -16 -15 0 -28 -1 -33 -3
-7 -2 -12 -3 -24 -2 -2 0 -6 3 -9 6 -5 5 -6 7 -6 17 0 25 14 31 44 21z m708
-54 c1 0 5 -3 8 -6 5 -5 6 -7 6 -18 0 -11 -1 -13 -6 -18 -6 -6 -7 -6 -18 -6
-11 0 -12 0 -18 6 -5 5 -6 7 -6 17 0 14 3 20 12 24 5 2 8 2 22 1z m-451 -21
l13 -13 11 0 c11 0 13 0 22 9 22 21 30 21 52 0 5 -4 15 -11 22 -14 8 -3 16 -7
17 -10 5 -5 5 -23 1 -36 -11 -35 -11 -37 -11 -189 0 -121 0 -142 3 -150 4 -11
11 -20 16 -20 1 0 3 -1 3 -2 0 -1 3 -3 6 -4 12 -5 12 -21 0 -26 -3 -1 -6 -3
-6 -4 0 -1 -2 -2 -3 -2 -5 0 -12 -9 -16 -20 -3 -8 -3 -34 -3 -200 l0 -191 -5
-15 c-3 -9 -6 -16 -7 -15 0 0 -5 -2 -10 -6 -16 -11 -27 -9 -44 6 -17 17 -10
16 -130 17 -117 0 -118 0 -125 -11 -4 -6 -7 -28 -4 -32 1 -2 1 -9 1 -16 -2
-16 -7 -21 -25 -21 -18 0 -23 5 -25 21 0 7 0 14 1 16 1 2 2 8 1 15 -4 24 -10
28 -48 28 -22 0 -28 1 -32 3 -7 5 -10 9 -8 9 1 1 34 67 34 69 0 1 1 4 3 7 8
17 11 30 10 48 -2 19 0 25 8 34 10 10 15 16 15 18 0 1 1 2 2 2 0 0 3 4 5 9 5
11 30 97 36 126 5 21 3 46 -3 48 -2 1 -4 2 -3 3 2 3 -21 2 -23 -1 -3 -4 -14
-4 -19 0 -7 5 -9 17 -3 21 7 6 17 5 23 -1 6 -6 7 -6 21 -6 7 0 14 0 14 -1 0
-1 1 -1 3 1 2 1 3 4 3 5 0 1 1 2 2 2 4 0 4 14 0 28 -8 28 -8 32 -4 39 1 3 4 6
4 7 6 5 18 24 21 31 15 49 7 72 -26 71 -15 0 -21 4 -21 14 0 12 15 19 23 11 3
-3 18 -3 30 0 2 0 5 1 5 1 1 0 4 3 6 6 6 9 27 127 26 150 -1 37 -1 41 8 58 5
9 9 24 10 34 1 5 3 9 7 12 6 6 8 6 22 6 25 0 35 4 51 20 20 19 24 19 43 1z
m329 -51 c5 -5 5 -15 0 -20 -9 -9 -24 -2 -24 10 0 8 6 14 14 14 3 0 8 -2 10
-4z m-652 -6 c11 -3 24 -7 30 -9 14 -4 18 -9 18 -20 0 -17 -13 -21 -37 -12 -8
3 -15 5 -16 6 -13 3 -27 9 -30 12 -7 5 -7 18 -1 24 6 7 13 6 36 -1z m-41 -185
c2 0 13 -1 25 -1 23 0 28 -3 28 -14 0 -11 -5 -13 -27 -15 -11 0 -24 -2 -29 -4
-14 -5 -27 -4 -33 2 -7 7 -7 23 0 30 5 5 6 5 19 4 7 -1 15 -2 17 -2z m84 -94
c7 -7 7 -19 0 -26 -3 -3 -6 -5 -7 -5 -18 -1 -39 -7 -53 -16 -19 -11 -40 -12
-50 -2 -8 8 -8 24 0 32 7 7 15 8 31 4 18 -4 40 0 46 9 6 9 25 12 33 4z m711
-67 l7 -6 -2 -20 c-1 -22 -7 -49 -13 -55 -9 -11 -31 -11 -43 0 -11 9 -10 25 2
56 10 25 16 31 33 31 9 0 11 -1 16 -6z m-740 -49 c7 -7 8 -18 2 -21 -13 -8
-28 -2 -28 11 0 13 17 20 26 10z m603 -65 c7 -6 7 -19 1 -25 -6 -7 -19 -7 -25
-1 -7 6 -7 19 -1 25 6 7 19 7 25 1z m91 -58 c-2 -12 0 -25 6 -44 9 -25 -3 -44
-27 -43 -16 1 -23 6 -27 20 -3 13 1 25 10 35 9 9 16 21 20 34 1 5 5 11 7 14
l4 4 4 -4 c4 -4 4 -5 3 -16z m-768 -43 c4 -4 4 -6 3 -19 -2 -23 -8 -35 -17
-35 -8 0 -12 6 -11 17 2 16 9 36 13 37 2 1 4 2 4 3 0 3 3 2 8 -3z m-97 -80 c6
-4 6 -6 6 -20 0 -14 0 -16 -6 -20 -4 -4 -7 -5 -18 -5 -11 0 -14 1 -18 5 -6 4
-6 6 -6 20 0 14 0 16 6 20 4 4 7 5 18 5 11 0 14 -1 18 -5z m802 -18 c12 -12 3
-31 -13 -31 -11 0 -18 7 -18 18 0 11 7 18 18 18 6 0 9 -1 13 -5z m-746 -121
c5 -7 4 -11 -6 -21 -9 -9 -9 -9 -9 -24 l0 -15 9 -7 c11 -10 14 -16 14 -28 0
-8 -2 -13 -6 -20 -10 -16 -11 -18 -13 -31 -2 -9 -2 -14 0 -20 3 -9 0 -23 -6
-28 -8 -9 -32 -9 -40 0 -10 9 -9 28 1 43 8 12 12 28 10 42 -1 5 -2 23 -2 40
-1 34 1 42 10 47 3 2 7 6 9 10 3 5 5 8 6 8 1 0 3 2 6 4 6 5 13 5 17 0z m616
-79 c7 -4 10 -11 10 -23 0 -19 -8 -27 -27 -27 -19 0 -27 8 -27 27 0 16 4 22
15 25 10 3 23 2 29 -2z m373 -13 c5 -6 5 -12 0 -18 -7 -8 -22 -2 -22 9 0 11
15 17 22 9z m-182 -25 c3 0 15 -2 27 -3 26 -3 31 -6 31 -18 0 -11 -5 -14 -36
-25 -36 -12 -45 -13 -57 -2 -10 8 -10 32 -1 42 7 7 20 10 36 6z m-316 -41 c-5
-6 -8 -8 -8 -4 0 1 -1 3 -3 5 -3 2 -2 3 1 8 l4 5 5 -4 5 -4 -4 -6z m-98 0 c5
-5 5 -11 0 -16 -10 -10 -27 5 -16 16 4 4 12 4 16 0z m-624 -6 c1 0 5 -3 8 -6
5 -5 6 -7 6 -18 0 -19 -9 -26 -30 -25 -13 0 -17 5 -18 23 0 14 3 21 12 25 5 2
8 2 22 1z m837 -18 c10 -10 3 -26 -11 -26 -12 0 -19 16 -10 25 6 6 15 6 21 1z
m-142 -15 c11 -12 4 -31 -11 -31 -21 0 -22 28 -1 34 3 1 6 2 6 2 1 0 3 -2 6
-5z m-144 -15 c5 -5 6 -7 6 -16 0 -15 -8 -23 -23 -23 -9 0 -11 1 -16 7 -9 8
-9 23 -1 32 9 9 24 9 34 0z m711 0 c5 -5 6 -7 6 -17 0 -16 -7 -23 -23 -23 -10
0 -12 1 -17 6 -5 5 -6 7 -6 17 0 16 7 23 23 23 10 0 12 -1 17 -6z m-455 -39
c6 -6 8 -24 6 -44 -3 -27 -9 -36 -27 -36 -20 0 -25 8 -23 37 1 32 8 46 22 49
10 1 17 -1 22 -6z m-691 -1 c6 -3 8 -7 12 -23 2 -9 8 -24 13 -34 11 -22 12
-27 9 -38 -4 -14 -11 -19 -27 -20 -16 -1 -26 7 -29 23 -3 12 -7 29 -10 35 -1
2 -3 8 -6 13 -7 17 -7 32 2 41 6 6 26 8 36 3z m186 -1 c21 -9 20 -45 -2 -54
-10 -5 -28 -1 -34 6 -9 10 -9 32 0 42 7 8 24 11 36 6z m849 -69 c7 -6 7 -19 1
-25 -6 -7 -19 -7 -25 -1 -7 6 -7 19 -1 25 6 7 19 7 25 1z m84 -59 c5 -4 6 -6
7 -16 0 -7 -1 -14 -2 -17 -4 -12 -25 -18 -38 -11 -8 4 -11 13 -10 27 2 17 7
22 25 22 11 0 14 -1 18 -5z m-1241 -9 c5 -5 5 -11 0 -16 -10 -10 -27 5 -16 16
4 4 12 4 16 0z m1115 -187 c3 -5 3 -5 0 -10 -2 -3 -5 -5 -7 -5 -2 0 -5 2 -7 5
-3 5 -3 5 0 10 2 3 5 5 7 5 2 0 5 -2 7 -5z m-1108 -39 c7 -7 7 -19 -1 -27 -13
-14 -39 -23 -45 -16 -3 3 -3 5 -1 12 2 10 5 13 18 26 10 11 21 12 29 5z m1058
-131 c5 -8 1 -16 -8 -16 -9 0 -13 8 -8 16 2 3 5 5 8 5 3 0 6 -2 8 -5z"/>
</g>
</svg>
