<?xml version="1.0" standalone="no"?>
<!DOCTYPE svg PUBLIC "-//W3C//DTD SVG 20010904//EN"
 "http://www.w3.org/TR/2001/REC-SVG-20010904/DTD/svg10.dtd">
<svg version="1.0" xmlns="http://www.w3.org/2000/svg"
 width="1100.000000pt" height="2850.000000pt" viewBox="0 0 1100.000000 2850.000000"
 preserveAspectRatio="xMidYMid meet">
<metadata>
Created by potrace 1.15, written by Peter Selinger 2001-2017
</metadata>
<g transform="translate(0.000000,2850.000000) scale(0.500000,-0.500000)"
fill="#000000" stroke="none">
<path d="M902 3735 c-12 -6 -28 -34 -28 -50 0 -8 5 -25 8 -27 7 -6 13 -25 10
-36 -4 -14 -10 -19 -25 -21 -24 -4 -33 -13 -38 -39 -3 -16 -6 -21 -16 -24 -13
-4 -28 -10 -35 -15 -8 -5 -11 -9 -28 -36 -6 -9 -11 -16 -12 -17 -1 -1 -3 -5
-6 -9 -3 -4 -5 -8 -6 -9 -1 -1 -6 -8 -12 -17 -10 -15 -11 -17 -11 -29 0 -23 7
-32 35 -46 17 -9 23 -16 17 -22 -2 -3 -7 -4 -23 -5 -10 0 -24 -2 -30 -4 -9 -3
-12 -3 -24 0 -23 6 -40 0 -52 -17 -4 -5 -7 -9 -8 -10 -1 -1 -3 -4 -6 -8 -3 -4
-5 -7 -6 -8 -1 -1 -7 -9 -14 -18 -12 -16 -15 -19 -22 -28 -2 -2 -5 -6 -8 -10
-3 -4 -8 -10 -12 -14 -12 -14 -16 -25 -17 -49 -2 -30 -4 -33 -27 -37 -31 -4
-33 -6 -76 -50 l-38 -37 0 -12 c0 -8 2 -15 6 -24 7 -15 7 -18 2 -22 -5 -5 -9
-6 -15 -2 -3 2 -6 3 -7 3 -1 0 -4 2 -6 4 -2 2 -6 4 -9 4 -4 0 -10 1 -14 1 -8
1 -14 -2 -21 -9 -7 -6 -36 -24 -57 -33 -28 -13 -36 -22 -35 -42 0 -5 2 -13 4
-18 11 -23 47 -122 66 -182 17 -53 21 -59 42 -63 9 -2 12 -1 26 3 44 14 103
27 175 40 7 1 98 16 108 18 3 0 11 1 17 2 6 1 13 2 15 3 2 1 8 3 13 5 13 5 16
9 17 22 1 11 1 13 -7 25 -6 10 -8 16 -9 23 -1 16 -8 39 -11 39 -1 0 -2 1 -2 3
0 1 -1 3 -1 3 -4 2 -9 14 -9 19 0 8 7 15 15 15 5 0 8 -2 13 -7 3 -5 6 -9 6
-10 0 -5 22 -31 27 -31 1 0 3 -1 4 -3 2 -2 8 -3 18 -3 8 0 19 1 26 3 22 6 31
2 31 -14 0 -12 -6 -17 -19 -17 -16 0 -35 -6 -40 -12 -8 -9 -5 -28 4 -36 2 -2
10 -5 17 -7 15 -4 22 -7 22 -10 0 -1 -5 -8 -11 -14 -7 -7 -20 -21 -30 -32 -11
-11 -21 -22 -24 -23 -3 -2 -14 -12 -24 -21 -28 -27 -59 -56 -61 -57 -4 -1 -13
-16 -18 -30 -8 -22 -11 -25 -23 -27 -19 -2 -36 -9 -46 -19 -3 -3 -12 -10 -20
-16 -8 -6 -14 -11 -15 -12 -1 -1 -5 -4 -9 -7 -4 -3 -9 -7 -11 -8 -2 -2 -10 -8
-19 -15 -9 -7 -16 -13 -17 -14 -1 -1 -5 -4 -9 -7 -4 -3 -9 -7 -10 -8 -16 -16
-110 -81 -133 -93 -5 -3 -9 -7 -10 -9 -4 -8 -14 -13 -32 -17 -19 -4 -39 -13
-41 -18 -1 -2 -2 -8 -2 -14 -1 -10 -1 -13 5 -22 5 -10 6 -14 7 -32 1 -12 3
-25 5 -31 4 -10 34 -85 38 -92 2 -5 8 -20 18 -48 10 -26 11 -28 20 -37 5 -6
10 -8 18 -10 10 -2 12 -2 34 6 21 7 48 15 57 17 32 7 40 12 45 27 2 8 2 7 1
68 -1 49 -2 53 -21 71 -18 17 -21 35 -7 44 5 4 9 4 22 3 6 0 11 -8 14 -20 2
-7 6 -17 8 -23 12 -26 16 -39 18 -50 1 -3 2 -10 3 -14 1 -7 0 -14 -4 -31 -3
-12 -5 -23 -5 -25 0 -2 1 -5 1 -5 0 -1 1 -3 3 -4 1 -2 3 -5 4 -7 2 -4 15 -11
21 -13 1 0 15 2 30 4 15 2 32 4 37 5 6 1 17 2 25 3 23 3 107 12 123 13 40 3
50 8 61 31 10 19 20 23 33 12 4 -4 7 -7 7 -8 0 -3 12 -15 18 -17 13 -7 16 -7
60 -4 119 8 108 8 114 2 l4 -5 -3 -30 c-2 -17 -3 -36 -3 -41 -1 -28 14 -45 44
-48 37 -5 66 -9 74 -10 3 -1 9 -1 13 -2 15 -3 86 -17 103 -22 10 -2 24 -5 31
-5 7 0 13 -1 14 -2 7 -6 9 26 2 33 -7 8 -9 15 -9 27 1 14 5 19 18 23 5 2 14 6
19 10 15 10 19 19 23 54 4 41 3 40 60 41 10 0 22 1 25 2 15 5 24 18 26 41 2
15 7 21 19 21 10 0 18 -7 18 -16 0 -3 1 -8 2 -10 4 -10 5 -13 4 -14 0 -1 1 -2
2 -2 1 0 2 -2 3 -4 2 -6 17 -12 31 -12 33 0 101 11 139 21 91 26 160 80 193
152 21 46 24 68 12 84 -4 4 -23 4 -37 0 -10 -3 -11 -3 -14 0 -4 4 -1 15 6 20
2 2 8 9 13 15 4 6 9 12 11 14 15 17 21 38 17 54 -3 12 -3 33 1 49 6 24 4 33
-12 67 -3 5 -6 10 -7 10 -1 0 -2 2 -3 5 -1 3 -2 5 -3 5 -1 0 -2 3 -3 7 l-1 6
-14 0 c-8 -1 -16 -2 -17 -3 -4 -3 -4 -12 0 -27 7 -26 2 -37 -16 -37 -11 0 -17
4 -21 15 -2 7 -7 18 -18 41 -1 3 -3 11 -3 16 1 8 1 10 12 19 13 12 15 16 15
30 0 11 -1 13 -7 18 -15 14 -37 18 -49 8 -5 -4 -21 -9 -29 -9 -10 0 -17 6 -17
15 0 11 -8 33 -14 39 -8 8 -16 11 -34 13 -9 0 -23 2 -31 4 -8 2 -17 4 -20 4
-9 2 -23 -5 -36 -18 -15 -15 -19 -18 -32 -18 -11 0 -14 2 -32 15 -19 14 -30
15 -63 4 -131 -44 -233 -145 -308 -308 -9 -20 -20 -46 -21 -53 -1 -3 -5 -8 -9
-11 -8 -5 -8 -5 -62 -8 -30 -1 -59 -3 -63 -3 -4 0 -18 -1 -30 -2 -12 0 -32 -2
-45 -2 -45 -3 -62 -2 -68 2 l-6 3 6 6 c7 7 11 20 10 40 0 13 1 16 5 20 4 5 19
10 34 11 16 2 42 10 50 15 5 4 39 35 59 53 7 7 15 15 18 17 34 29 149 142 218
213 78 81 75 76 77 112 1 27 5 31 32 35 29 4 43 16 101 85 15 19 18 35 10 56
-10 29 1 44 24 34 8 -3 27 -3 36 1 6 2 18 15 23 26 4 7 5 20 3 47 -1 15 5 22
21 24 20 2 37 9 45 18 12 14 16 23 16 34 0 16 -5 24 -30 43 -19 15 -23 18 -43
24 -23 8 -27 11 -33 22 -14 27 -15 28 -54 59 -12 10 -23 19 -25 20 -5 5 -32
26 -35 28 -11 7 -31 2 -41 -10 -9 -10 -10 -11 -13 -16 -1 -3 -3 -6 -5 -7 -1
-2 -6 -9 -11 -16 -8 -13 -8 -13 -7 -26 1 -13 1 -14 8 -20 4 -4 10 -8 13 -10
18 -8 16 -45 -2 -52 -14 -6 -27 -3 -41 8 -7 5 -9 6 -21 6 -18 0 -19 0 -27 -13
-5 -5 -8 -10 -9 -11 -1 -1 -4 -5 -7 -9 -6 -8 -11 -14 -14 -18 -1 -1 -8 -10
-15 -19 -7 -9 -15 -20 -18 -23 -3 -3 -7 -9 -10 -13 -3 -4 -6 -8 -8 -10 -2 -2
-5 -6 -8 -10 -3 -4 -6 -8 -7 -9 -1 -1 -5 -6 -9 -11 -4 -5 -8 -10 -9 -11 -1 -1
-4 -5 -6 -8 -3 -5 -6 -8 -17 -22 -11 -12 -26 -18 -52 -21 -23 -2 -38 -7 -48
-14 -3 -2 -9 -5 -14 -7 -9 -3 -10 -3 -22 0 -30 8 -34 9 -60 6 -14 -2 -35 -4
-47 -5 -12 -1 -29 -3 -38 -4 -65 -8 -71 -8 -78 -2 l-5 3 12 12 c6 7 16 18 22
25 7 7 15 16 18 20 9 10 60 68 65 74 16 19 22 28 25 31 5 5 11 22 14 37 3 18
4 19 26 29 19 10 33 22 42 35 1 4 4 6 4 6 1 0 2 1 2 3 0 1 1 3 2 3 1 1 5 6 8
11 9 13 10 24 4 44 -5 16 -4 24 2 27 1 1 11 2 21 3 23 1 33 5 40 18 3 4 6 8 7
9 1 1 6 8 11 16 5 8 11 16 12 17 1 2 37 56 55 85 10 16 11 18 11 28 -1 21 -11
31 -35 37 -8 2 -18 4 -22 5 -9 2 -16 9 -22 21 -2 3 -7 9 -11 14 -9 8 -12 11
-78 54 -23 15 -49 32 -57 37 -16 11 -29 13 -42 7z m156 -219 c7 -7 3 -18 -8
-20 -7 -1 -32 -10 -36 -13 -14 -10 -31 -12 -39 -4 -7 7 -7 23 0 30 4 5 6 5 23
5 19 -1 32 0 43 4 8 2 13 2 17 -2z m-119 -92 c16 -7 16 -43 -1 -50 -15 -6 -34
-2 -39 9 -4 8 -4 24 0 32 5 12 23 15 40 9z m-118 -9 c5 -8 1 -16 -8 -16 -9 0
-13 8 -8 16 2 3 5 5 8 5 3 0 6 -2 8 -5z m662 -154 c7 -4 10 -11 10 -23 0 -16
-6 -24 -28 -42 -14 -11 -25 -16 -37 -16 -15 -1 -16 0 -22 6 -10 10 -7 34 5 42
1 1 4 4 7 6 3 2 8 7 11 9 3 3 9 9 13 12 11 11 30 13 41 6z m-820 -101 c7 -6 7
-22 1 -27 -6 -5 -19 -4 -25 1 -7 6 -7 19 -1 25 6 7 19 7 25 1z m40 -65 c3 -5
3 -5 0 -10 -5 -6 -8 -6 -13 0 -5 5 -5 7 -1 11 5 5 9 5 14 -1z m697 -20 c4 -5
5 -7 6 -37 0 -32 0 -33 -4 -38 -2 -4 -5 -6 -7 -6 -1 0 -6 -3 -11 -7 -9 -9 -15
-25 -13 -41 3 -22 -20 -28 -35 -10 -2 3 -5 7 -7 9 -9 11 -15 25 -15 33 0 9 6
18 12 18 2 0 4 1 5 2 0 1 3 2 6 3 17 4 24 17 24 43 -1 24 3 33 18 36 9 2 16 0
21 -5z m-796 -6 c3 -3 4 -7 4 -14 0 -13 -6 -19 -19 -19 -13 0 -19 6 -19 19 0
7 1 11 4 14 7 8 23 8 30 0z m598 -19 c9 -9 8 -31 -2 -38 -19 -14 -24 -20 -33
-35 -21 -36 -69 -21 -59 18 3 9 8 17 13 17 2 0 4 1 4 3 1 2 3 3 4 3 2 0 3 1 2
2 0 1 3 3 8 6 4 3 14 10 20 17 l13 13 12 0 c11 0 13 -1 18 -6z m60 -87 c13 -7
14 -33 2 -61 -5 -12 -11 -16 -22 -16 -12 0 -18 9 -23 32 -3 10 -1 32 2 37 6
12 26 16 41 8z m-331 -23 c-5 -5 -4 -29 1 -38 2 -3 4 -7 4 -8 0 -2 1 -4 3 -5
2 -1 3 -5 3 -12 0 -13 -6 -19 -19 -19 -13 0 -19 6 -19 19 0 7 1 11 3 12 2 1 3
3 3 4 0 0 2 5 5 10 7 10 9 33 4 37 -3 2 -3 3 1 7 l5 5 4 -4 c5 -4 5 -5 2 -8z
m-574 -23 c12 -7 14 -33 3 -43 -8 -9 -32 -9 -40 0 -9 8 -9 32 0 41 7 7 27 8
37 2z m748 -57 c7 -6 7 -19 1 -25 -6 -7 -19 -7 -25 -1 -7 6 -7 19 -1 25 6 7
19 7 25 1z m-65 -60 c3 -1 8 -6 11 -10 7 -10 13 -16 18 -17 2 0 6 -1 9 -3 3
-1 10 -1 15 0 33 3 42 -3 42 -26 0 -19 -8 -27 -27 -27 -13 0 -20 4 -26 14 -9
15 -22 19 -55 17 -20 -1 -30 7 -30 27 0 24 19 34 43 25z m-39 -174 c7 -7 7
-15 1 -40 -6 -29 -12 -38 -21 -38 -10 0 -14 8 -16 30 -1 6 -2 15 -2 19 -3 16
-2 23 4 29 9 9 24 9 34 0z m666 -2 c14 -8 29 -23 30 -29 3 -12 -8 -23 -29 -31
-11 -5 -17 -5 -25 0 -13 7 -20 22 -20 42 0 13 0 15 6 19 8 7 27 7 38 -1z
m-119 -36 c5 -5 5 -11 0 -16 -10 -10 -27 5 -16 16 4 4 12 4 16 0z m-798 -53
c3 -3 4 -7 4 -14 0 -13 -6 -19 -19 -19 -13 0 -19 6 -19 19 0 7 1 11 4 14 7 8
23 8 30 0z m722 -6 c3 -2 10 -7 15 -13 16 -18 29 -21 57 -13 16 5 46 4 61 -1
14 -5 30 -4 47 2 25 8 41 2 46 -17 4 -16 -1 -28 -16 -39 -4 -3 -12 -10 -18
-16 -6 -6 -13 -13 -15 -15 -5 -3 -67 -25 -73 -25 -7 0 -30 -12 -31 -16 -1 -2
-2 -4 -3 -4 -1 0 -3 -4 -6 -8 -11 -20 -19 -20 -34 -1 -10 13 -23 19 -37 19 -3
0 -8 2 -12 5 l-5 4 7 18 c4 10 8 19 9 20 3 4 1 23 -3 30 -3 3 -8 9 -13 12 -14
10 -15 13 -18 22 -2 10 0 23 6 30 7 8 24 11 36 6z m-192 -24 c21 -9 20 -45 -2
-54 -10 -5 -28 -1 -34 6 -9 10 -9 32 0 42 7 8 24 11 36 6z m-524 -103 c5 -5 5
-11 0 -16 -10 -10 -27 5 -16 16 4 4 12 4 16 0z m644 -32 c5 -5 5 -9 0 -14 -5
-5 -12 -4 -16 2 -2 5 -2 6 1 11 4 6 10 6 15 1z m-857 -21 c6 -4 6 -6 6 -20 0
-14 0 -16 -6 -20 -4 -4 -7 -5 -18 -5 -11 0 -14 1 -18 5 -6 4 -6 6 -6 20 0 14
0 16 6 20 4 4 7 5 18 5 11 0 14 -1 18 -5z m109 -56 l-5 -5 -4 4 -5 5 4 4 5 5
4 -4 5 -5 -4 -4z m595 5 c5 -5 6 -7 6 -16 0 -15 -8 -23 -23 -23 -10 0 -20 5
-20 11 0 2 -1 4 -2 5 -2 1 -2 12 1 14 0 1 1 3 1 5 0 3 6 8 13 10 8 2 18 0 24
-6z m-84 -10 c3 -4 4 -12 3 -17 0 -1 -1 -13 -1 -26 0 -20 -1 -25 -3 -28 -5 -5
-13 0 -20 15 -3 6 -9 16 -12 21 -7 12 -8 28 -2 35 7 9 27 9 35 0z m-374 -2
c10 -9 3 -26 -10 -26 -8 0 -15 7 -15 15 0 13 16 20 25 11z m-452 -16 c12 0 18
-25 8 -35 -4 -4 -7 -5 -15 -5 -15 0 -20 6 -20 22 0 15 5 21 16 19 4 0 9 -1 11
-1z m605 -12 c5 -5 5 -11 0 -16 -10 -10 -27 5 -16 16 4 4 12 4 16 0z m-203
-38 c7 -3 12 -13 12 -25 0 -9 -2 -13 -8 -22 -12 -18 -17 -25 -22 -39 -8 -19
-12 -22 -28 -22 -11 0 -14 1 -18 5 -6 4 -6 6 -6 19 0 14 0 16 10 30 5 8 9 15
9 15 0 1 2 6 4 12 2 5 5 13 6 17 5 12 22 17 41 10z m706 -19 c6 -4 6 -6 6 -20
0 -14 0 -16 -6 -20 -4 -4 -7 -5 -18 -5 -11 0 -14 1 -18 5 -6 4 -6 6 -6 20 0
14 0 16 6 20 4 4 7 5 18 5 11 0 14 -1 18 -5z m210 -10 c5 -5 7 -20 3 -27 -3
-6 -13 -10 -23 -8 -11 2 -15 8 -15 20 0 14 6 20 20 20 8 0 11 -1 15 -5z m-347
-48 c17 -9 12 -33 -6 -33 -22 0 -37 18 -26 32 4 5 23 6 32 1z m-134 -24 c7 -7
6 -19 -3 -36 -6 -11 -9 -21 -17 -47 -2 -7 -10 -12 -19 -12 -14 0 -15 0 -21 6
-5 5 -6 7 -6 18 0 11 1 12 11 26 6 8 13 21 16 28 3 7 7 15 10 17 6 8 22 8 29
0z"/>
</g>
</svg>
