<?xml version="1.0" standalone="no"?>
<!DOCTYPE svg PUBLIC "-//W3C//DTD SVG 20010904//EN"
 "http://www.w3.org/TR/2001/REC-SVG-20010904/DTD/svg10.dtd">
<svg version="1.0" xmlns="http://www.w3.org/2000/svg"
 width="1100.000000pt" height="2850.000000pt" viewBox="0 0 1100.000000 2850.000000"
 preserveAspectRatio="xMidYMid meet">
<metadata>
Created by potrace 1.15, written by Peter Selinger 2001-2017
</metadata>
<g transform="translate(0.000000,2850.000000) scale(0.500000,-0.500000)"
fill="#000000" stroke="none">
<path d="M824 3810 c-17 -6 -29 -21 -33 -43 -1 -4 -5 -22 -9 -40 -8 -28 -9
-33 -15 -37 l-6 -5 -217 -1 c-119 -1 -218 -2 -219 -2 -2 0 -3 -1 -3 -2 0 -1
-1 -2 -3 -2 -4 0 -14 -12 -18 -21 -5 -11 -5 -724 0 -736 4 -9 8 -11 23 -11 8
0 12 -1 12 -2 0 -3 4 3 18 32 15 29 21 35 39 35 14 0 22 -8 21 -24 0 -13 -4
-26 -11 -36 -3 -4 -5 -8 -5 -9 0 -1 -2 -6 -4 -12 -11 -23 -12 -26 -12 -28 0 0
-3 -5 -7 -9 l-7 -8 1 -16 c0 -11 2 -19 4 -22 5 -8 2 -12 -23 -36 -18 -19 -20
-20 -34 -19 -7 0 -18 8 -18 13 0 7 -14 33 -21 39 -12 10 -35 20 -47 20 -20 0
-27 -7 -47 -45 -9 -20 -22 -42 -30 -52 -6 -8 -7 -14 -7 -30 0 -14 1 -16 11
-16 33 -1 43 -7 43 -28 0 -13 -3 -18 -18 -33 -18 -18 -25 -22 -37 -22 -12 0
-16 2 -22 12 -10 16 -14 19 -32 18 -9 0 -12 -1 -15 -4 -1 -2 -9 -11 -16 -19
-20 -19 -20 -20 -20 -34 0 -20 8 -27 49 -43 13 -5 23 -11 35 -22 5 -5 15 -12
23 -17 8 -4 17 -10 21 -12 4 -3 8 -6 10 -7 3 -1 11 -6 33 -19 24 -14 27 -15
40 -15 18 1 21 4 50 39 2 2 5 6 7 8 9 11 31 42 45 64 9 13 19 29 22 34 4 6 7
11 7 12 0 1 2 4 4 7 5 7 14 23 34 63 17 33 18 36 18 46 0 6 -2 13 -3 14 -2 2
-1 4 9 8 12 5 13 5 52 5 39 0 50 -2 49 -8 -1 -1 1 -2 3 -2 1 0 -1 -1 -5 -2
-14 -3 -41 -14 -47 -20 -6 -5 -8 -9 -9 -23 -1 -7 1 -12 16 -43 10 -19 20 -39
21 -43 14 -32 21 -53 26 -70 11 -35 17 -44 37 -48 10 -2 11 -2 74 19 35 13 70
24 77 26 28 9 55 19 63 25 11 9 17 25 13 40 -5 18 -32 78 -42 91 -2 3 -9 15
-14 26 -6 11 -11 20 -12 20 -3 0 4 7 9 10 3 1 17 2 38 2 34 0 34 0 46 -6 8 -4
11 -6 8 -6 -3 0 -5 -1 -5 -2 0 -1 -1 -3 -3 -5 -4 -4 -6 -24 -2 -30 1 -3 4 -8
7 -11 45 -56 91 -133 101 -171 5 -16 5 -19 3 -26 -2 -4 -2 -10 -2 -12 0 -6 -7
-13 -14 -13 -6 0 -18 6 -24 12 -17 17 -43 12 -65 -13 -15 -16 -18 -26 -15 -46
1 -7 1 -23 0 -33 0 -10 -1 -44 -1 -74 0 -54 0 -55 5 -64 6 -11 7 -12 24 -20
16 -8 20 -12 20 -23 0 -10 -7 -17 -18 -17 -9 0 -16 5 -23 17 -3 5 -6 9 -7 9
-1 0 -2 2 -2 4 0 2 -1 4 -1 4 -1 -1 -6 1 -10 3 -8 4 -14 4 -135 5 -145 0 -150
0 -162 -12 -11 -12 -17 -14 -34 -12 -25 3 -40 2 -70 -4 -29 -6 -35 -6 -47 -1
-8 4 -13 25 -7 39 4 11 11 12 51 14 36 0 37 0 44 -4 5 -3 9 -6 11 -7 13 -13
46 -15 46 -3 0 1 1 2 2 2 1 0 3 4 6 10 4 9 4 13 4 75 0 45 -1 68 -2 72 -4 10
-12 14 -25 12 -8 0 -11 0 -11 2 0 1 -1 0 -3 -2 -2 -4 -13 -9 -17 -9 -4 0 -33
-12 -40 -17 -5 -3 -15 -10 -23 -15 -8 -6 -16 -12 -18 -15 -8 -12 -9 -14 -13
-22 -8 -17 -25 -23 -42 -16 -12 5 -18 21 -14 36 2 8 9 17 12 17 4 0 27 12 33
16 6 5 6 6 6 17 l0 13 -10 6 -10 7 -46 1 c-51 0 -58 -1 -70 -12 -13 -13 -13
-9 -13 -153 l1 -130 7 -12 c4 -7 8 -13 10 -15 17 -15 17 -37 0 -52 -4 -4 -15
-24 -17 -30 -2 -11 12 -36 20 -36 2 0 3 -1 3 -2 0 -2 2 -2 59 -3 70 -2 75 0
87 24 7 16 11 44 6 55 -3 6 -20 23 -26 25 -2 1 -6 4 -8 8 -4 7 -4 7 -1 12 5 6
5 6 21 0 16 -6 27 -9 43 -10 21 -1 26 -6 28 -26 1 -7 2 -16 3 -20 2 -4 3 -8 3
-9 2 -10 27 -46 34 -50 3 -2 7 -4 8 -5 4 -4 10 -4 82 -5 73 0 75 0 85 4 9 4
22 17 22 23 0 1 2 4 4 7 2 3 3 6 3 6 -1 1 2 4 5 7 5 5 8 6 16 6 8 0 11 -1 16
-6 3 -3 6 -6 5 -7 0 0 1 -3 3 -6 2 -3 4 -6 4 -7 0 -6 13 -19 22 -23 10 -4 13
-4 49 -4 l39 1 7 6 c8 7 17 24 17 35 0 7 8 14 15 14 7 0 15 -7 15 -14 0 -11 9
-29 17 -35 7 -6 8 -6 28 -7 20 0 22 0 32 5 10 5 11 6 15 16 2 6 5 17 5 23 2
20 8 24 38 29 23 3 29 5 40 14 23 18 40 16 38 -6 -3 -21 -17 -41 -31 -41 -3 0
-4 -1 -2 -1 2 -1 3 -4 2 -13 0 -13 1 -19 5 -24 2 -4 3 -4 15 -1 7 2 14 4 15 4
1 1 3 2 4 2 1 0 8 3 14 6 17 7 20 6 44 -3 l20 -9 130 0 130 0 6 -6 c3 -3 6 -7
6 -7 -3 -6 8 -38 14 -42 1 -1 1 -2 0 -2 -4 0 16 -13 24 -15 12 -4 129 -4 148
-1 19 3 31 3 56 0 14 -2 26 -2 32 -1 6 1 11 2 12 1 0 0 1 1 1 2 0 1 1 2 3 2 4
0 14 12 18 21 3 7 3 24 3 146 0 149 0 150 -10 163 -2 2 -4 6 -4 7 0 2 -1 3 -3
3 -2 0 -3 1 -3 2 0 2 -1 2 -1 1 -1 0 -5 1 -10 3 -5 2 -9 3 -10 2 -3 -2 0 7 3
10 2 2 7 11 12 20 4 8 9 17 11 18 2 1 3 3 3 5 0 1 1 3 3 5 9 10 13 57 6 73 -4
9 -14 21 -18 21 -2 0 -3 1 -3 2 0 2 1 1 -25 4 -17 1 -22 2 -28 6 -7 5 -7 5 -2
6 7 2 28 13 37 21 10 10 15 18 20 39 5 20 5 21 22 29 15 8 25 16 30 28 4 7 17
45 19 53 1 5 4 29 4 34 0 2 1 4 1 4 1 0 2 1 2 3 0 2 1 5 3 6 2 2 3 6 3 10 0 3
1 7 1 9 2 7 11 62 12 71 1 6 2 20 4 32 2 12 4 34 5 49 1 15 3 34 5 43 8 38 3
58 -18 68 l-10 5 -367 0 c-202 0 -370 -1 -374 -1 -11 -3 -26 -22 -29 -39 -1
-4 -6 -10 -9 -10 -3 0 -7 4 -8 9 0 1 -2 5 -3 8 -2 3 -4 7 -4 10 -1 5 -7 13
-14 18 -5 4 -7 4 -215 4 l-209 1 0 6 0 6 156 0 156 0 10 5 c6 3 13 7 16 10 18
17 32 17 51 -1 6 -6 8 -6 20 -6 13 1 18 4 29 18 7 9 14 13 25 13 12 0 19 -4
29 -17 5 -7 11 -12 20 -16 l12 -6 359 1 c197 0 360 1 362 1 1 0 2 1 2 2 0 1 1
2 3 2 4 0 14 12 18 21 5 11 5 127 0 138 -4 9 -14 21 -18 21 -2 0 -3 1 -3 2 0
1 -1 2 -2 2 -9 2 -592 2 -599 0 -12 -3 -20 -10 -27 -23 -15 -26 -23 -26 -38 0
-12 21 -28 28 -44 18 -5 -3 -14 -7 -20 -10 l-11 -5 -10 4 c-6 3 -12 5 -12 6
-1 2 -13 8 -15 7 -1 0 -3 1 -4 2 -5 4 -74 3 -78 -1 -1 -1 -4 -2 -7 -4 -3 -2
-9 -9 -14 -16 -5 -7 -10 -15 -12 -18 -5 -6 -18 -9 -29 -6 -10 2 -11 4 -25 24
-5 7 -11 14 -14 16 -3 2 -6 3 -7 4 -1 1 -2 1 -4 2 -3 1 -158 1 -201 0 -13 0
-35 0 -49 1 l-25 1 0 6 0 7 11 -1 c7 0 18 2 32 6 26 7 26 7 52 0 20 -6 23 -6
55 -6 32 0 47 2 47 6 0 1 1 2 3 2 2 0 11 8 11 11 0 1 1 2 10 14 9 11 12 10 28
-10 1 -2 2 -4 2 -5 0 -2 9 -10 12 -10 1 0 2 -1 2 -2 0 -5 17 -6 103 -5 48 0
89 1 90 1 7 2 10 8 9 22 0 14 0 14 5 15 6 0 6 0 0 1 -13 0 -18 19 -8 29 9 9
29 5 32 -8 3 -14 -1 -21 -12 -21 l-6 0 6 -2 c6 -1 6 -1 5 -15 0 -14 2 -19 11
-21 4 -1 513 -1 518 0 2 0 3 1 3 2 0 1 1 2 3 2 4 0 14 12 18 21 5 12 5 472 0
484 -4 9 -14 21 -18 21 -2 0 -3 1 -3 2 0 1 -1 2 -2 2 -2 0 -108 1 -237 1
l-234 1 -9 -4 c-12 -6 -18 -19 -19 -39 -1 -16 -3 -23 -8 -27 -12 -10 -34 -9
-43 1 -12 13 -8 35 10 58 6 8 14 22 18 31 5 9 12 24 16 33 5 9 8 17 8 19 0 1
1 2 2 2 0 0 1 5 0 11 -1 10 -7 24 -10 22 -1 -1 -2 0 -2 1 0 4 -18 8 -40 9 -13
0 -34 1 -48 2 -31 1 -49 2 -79 4 -22 1 -26 1 -45 -4 -27 -6 -25 -6 -49 2 -27
9 -32 10 -45 5z m-435 -182 c4 -5 4 -8 0 -14 -6 -8 -18 -3 -20 8 -2 8 13 13
20 6z m1151 -52 c8 -9 2 -22 -9 -22 -6 0 -13 6 -13 13 0 11 15 17 22 9z m-494
-39 c3 -2 6 -6 8 -8 7 -9 24 -21 32 -21 2 0 4 -1 5 -1 0 -1 57 -2 126 -1 82 1
125 0 126 -1 3 -3 3 -9 0 -12 -1 -1 -98 -2 -284 -1 -326 0 -293 2 -318 -21
-23 -20 -36 -20 -58 1 -17 15 -30 21 -49 20 -14 -1 -17 0 -17 7 0 7 3 8 29 7
14 0 30 1 37 2 18 4 36 4 53 1 15 -3 239 -5 242 -2 0 1 2 1 4 1 8 0 25 12 32
21 8 11 22 14 32 8z m552 -18 c10 -5 14 -25 8 -39 -7 -17 -43 -17 -50 -1 -7
20 -1 40 14 43 9 2 21 0 28 -3z m-1047 -71 c16 -7 16 -43 -1 -50 -15 -6 -34
-2 -39 9 -4 8 -4 24 0 32 5 12 23 15 40 9z m644 -8 c11 -10 3 -28 -11 -28 -9
0 -16 6 -16 16 0 14 17 22 27 12z m177 -26 c1 0 5 -3 8 -6 5 -5 6 -7 6 -17 0
-11 -6 -25 -10 -25 -3 0 -22 -25 -21 -27 0 -2 0 -3 -2 -3 -2 0 -12 -7 -12 -9
0 -1 -138 -1 -306 -1 -293 0 -307 0 -328 -4 -22 -4 -22 -4 -45 0 -13 2 -27 4
-33 4 l-10 -1 0 7 c0 5 1 7 4 8 10 1 22 9 32 19 13 13 17 16 30 16 13 0 17 -3
30 -16 6 -6 15 -13 20 -15 l10 -5 285 -1 c268 0 285 0 292 3 8 5 14 12 15 19
0 3 1 5 1 6 0 1 0 9 0 18 0 18 2 25 12 29 5 2 8 2 22 1z m78 -118 c5 -5 6 -7
6 -17 0 -16 -7 -23 -23 -23 -10 0 -12 1 -17 6 -5 5 -6 7 -6 17 0 16 7 23 23
23 10 0 12 -1 17 -6z m-655 -23 c6 -4 6 -6 6 -20 0 -14 0 -16 -6 -20 -4 -4 -7
-5 -18 -5 -11 0 -14 1 -18 5 -6 4 -6 6 -6 20 0 14 0 16 6 20 4 4 7 5 18 5 11
0 14 -1 18 -5z m-245 -7 c4 -4 5 -11 2 -19 -4 -11 -10 -40 -9 -45 2 -6 -4 -14
-10 -14 -6 0 -12 8 -10 13 3 10 3 18 4 40 0 20 1 24 4 26 5 4 14 4 19 -1z
m738 -26 c5 -5 5 -15 0 -20 -9 -9 -24 -2 -24 10 0 8 6 14 14 14 3 0 8 -2 10
-4z m-120 -188 c5 -5 6 -7 6 -17 0 -16 -7 -23 -23 -23 -10 0 -12 1 -17 6 -5 5
-6 7 -6 17 0 16 7 23 23 23 10 0 12 -1 17 -6z m-592 -172 c5 -5 5 -15 0 -20
-9 -9 -24 -2 -24 10 0 8 6 14 14 14 3 0 8 -2 10 -4z m701 -61 c12 -12 3 -31
-13 -31 -11 0 -18 7 -18 18 0 11 7 18 18 18 6 0 9 -1 13 -5z m356 0 c0 -2 2
-3 4 -3 2 0 3 -1 3 -1 -1 -1 0 -4 2 -7 1 -2 2 -5 2 -5 -1 0 -4 -2 -7 -5 l-6
-4 -9 6 c-9 5 -10 11 -4 18 4 4 13 4 15 1z m-958 -36 c7 -7 7 -19 0 -26 -9 -9
-29 -6 -35 5 -2 4 6 20 12 24 6 4 18 2 23 -3z m1009 3 c21 -6 18 -36 -3 -36
-10 0 -14 3 -20 14 -6 13 -6 14 -1 19 5 5 12 6 24 3z m-506 -53 c6 -3 9 -5 7
-5 -3 0 -3 -1 -3 -15 l1 -14 22 -22 c27 -28 37 -38 53 -57 17 -21 27 -25 54
-20 7 1 19 3 26 4 15 2 26 9 34 21 8 11 12 14 26 14 19 0 20 -2 38 -43 18 -42
32 -96 39 -152 0 -4 2 -10 3 -12 5 -9 6 -41 2 -48 -3 -6 -3 -78 1 -89 2 -5 9
-15 17 -24 8 -9 14 -18 14 -20 1 -13 0 -18 -6 -24 l-5 -5 -170 -1 -170 0 -6 6
c-4 4 -6 7 -6 8 1 0 -1 5 -3 10 -4 7 -6 10 -15 14 -6 3 -12 5 -15 5 -3 0 -4 1
-4 6 0 5 1 6 4 6 3 0 9 2 15 5 16 7 19 16 19 48 0 23 -1 31 -6 44 -1 2 -4 9
-6 16 -6 15 -6 25 0 40 2 7 5 14 6 16 7 18 8 30 3 42 -4 9 -14 21 -18 21 -2 0
-3 1 -3 2 0 2 -1 2 -59 4 -53 1 -54 1 -64 6 -5 3 -8 6 -7 6 3 1 8 14 9 26 3
20 23 27 41 14 30 -21 35 -21 93 5 3 1 9 4 13 5 17 6 28 21 28 37 0 11 -7 23
-48 84 -4 6 -8 11 -9 12 -2 0 -3 2 -3 3 0 2 -4 7 -10 14 -3 3 -3 4 6 11 8 6
47 4 62 -4z m384 1 c4 -3 5 -6 4 -8 -1 -2 -1 -3 -1 -4 1 -1 0 -2 -1 -3 -5 -3
9 -35 17 -38 1 -1 5 -5 8 -10 6 -7 6 -10 6 -26 0 -26 -6 -34 -25 -34 -10 0
-19 5 -27 13 -3 3 -10 10 -16 16 -6 6 -15 17 -21 24 -5 7 -9 13 -10 14 -1 1
-6 8 -13 16 -6 8 -16 19 -22 25 -11 11 -11 13 2 18 4 2 17 3 50 3 l44 0 5 -6z
m-831 -63 c5 -8 4 -22 -2 -28 -4 -4 -7 -5 -15 -5 -14 0 -20 6 -20 20 0 12 4
18 15 20 10 2 18 -1 22 -7z m1068 0 c7 -4 9 -10 10 -22 1 -13 0 -14 -16 -32
-3 -3 -9 -10 -13 -16 -13 -16 -19 -18 -39 -17 -2 0 -6 3 -9 6 -5 5 -6 7 -6 17
0 11 1 13 9 25 5 7 11 17 14 21 9 13 16 19 23 21 9 2 22 1 27 -3z m-832 -371
c6 -6 6 -17 0 -24 -5 -7 -39 -24 -49 -25 -10 -2 -16 4 -16 14 0 7 4 13 16 20
5 3 9 6 10 7 1 1 6 4 11 7 13 6 22 6 28 1z m143 -30 c0 -7 -1 -7 -5 -3 -3 2
-3 3 -1 6 4 4 6 4 6 -3z m625 -14 c5 -1 9 -3 9 -4 0 -4 -21 -19 -26 -18 -5 1
-10 8 -10 12 0 10 9 13 27 10z m-604 -105 c5 -8 1 -16 -8 -16 -9 0 -13 8 -8
16 2 3 5 5 8 5 3 0 6 -2 8 -5z m-295 -27 c5 -6 5 -12 0 -18 -7 -8 -22 -2 -22
9 0 11 15 17 22 9z m505 -15 c4 -4 5 -7 5 -15 0 -14 -6 -20 -20 -20 -14 0 -20
6 -20 20 0 14 6 20 20 20 8 0 11 -1 15 -5z"/>
<path d="M1366 2582 c-22 -3 -33 -21 -20 -33 5 -6 7 -6 17 -2 5 2 9 4 11 3 1
0 2 1 2 1 -1 1 0 4 2 7 3 5 2 24 -1 25 -1 0 -6 0 -11 -1z"/>
<path d="M325 2857 c-21 -4 -25 -8 -23 -23 2 -10 8 -21 14 -24 9 -5 36 -1 39
5 0 2 1 8 1 14 0 11 0 12 -9 21 l-10 9 -12 -2z"/>
</g>
</svg>
