<?xml version="1.0" standalone="no"?>
<!DOCTYPE svg PUBLIC "-//W3C//DTD SVG 20010904//EN"
 "http://www.w3.org/TR/2001/REC-SVG-20010904/DTD/svg10.dtd">
<svg version="1.0" xmlns="http://www.w3.org/2000/svg"
 width="1100.000000pt" height="2850.000000pt" viewBox="0 0 1100.000000 2850.000000"
 preserveAspectRatio="xMidYMid meet">
<metadata>
Created by potrace 1.15, written by Peter Selinger 2001-2017
</metadata>
<g transform="translate(0.000000,2850.000000) scale(0.500000,-0.500000)"
fill="#000000" stroke="none">
<path d="M1310 3812 c-3 -1 -6 -1 -7 0 0 0 -1 0 -1 -2 0 -1 -1 -2 -3 -2 -4 0
-14 -12 -18 -21 -5 -13 -4 -127 2 -137 4 -7 18 -21 23 -23 4 -1 14 -15 14 -18
0 -5 -11 -15 -16 -15 -6 -1 -16 -11 -22 -21 -2 -5 -3 -14 -4 -55 -1 -43 -1
-50 -4 -53 -3 -2 -4 -3 -4 -1 0 2 -1 0 -2 -3 l-2 -6 0 7 c-1 24 -65 213 -89
260 -6 13 -16 21 -29 24 -11 3 -13 2 -37 -5 -27 -8 -124 -37 -127 -38 -10 -2
-37 -12 -38 -13 0 -1 -2 -2 -3 -2 -4 0 -17 -14 -17 -17 0 -2 -1 -4 -3 -4 -1
-1 -4 -4 -5 -7 -1 -3 -5 -7 -9 -9 -6 -4 -7 -4 -14 1 -4 2 -7 6 -8 8 -1 3 -5 8
-10 12 -15 14 -13 14 -114 14 l-90 -1 -6 6 -6 6 1 40 c0 33 0 41 -3 48 -4 9
-14 21 -18 21 -2 0 -3 1 -3 2 0 2 -10 3 -51 3 -39 0 -40 0 -48 -5 -10 -6 -13
-10 -20 -20 -9 -16 -15 -21 -27 -21 -12 0 -18 5 -27 21 -14 22 -31 29 -46 16
-12 -11 -15 -20 -15 -50 0 -28 4 -41 15 -50 2 -2 5 -5 6 -6 1 -1 6 -4 10 -7
12 -7 15 -12 15 -25 0 -15 -7 -22 -23 -22 -11 0 -12 0 -19 8 -5 5 -10 12 -13
16 -3 5 -8 10 -12 11 -4 2 -7 4 -7 5 0 2 -12 3 -59 3 l-49 0 -7 -6 c-8 -7 -17
-24 -17 -35 0 -7 -8 -14 -15 -14 -7 0 -15 7 -15 13 0 7 -8 28 -12 32 -4 4 -6
5 -15 5 -6 -1 -11 -2 -11 -3 0 -1 -1 -1 -1 0 -3 2 -19 -25 -19 -33 0 -6 -11
-14 -19 -14 -22 0 -26 0 -32 -2 -4 -1 -7 -3 -7 -4 0 -1 -1 -2 -3 -2 -1 0 -5
-4 -7 -9 -4 -8 -4 -12 -4 -67 0 -50 1 -61 3 -67 4 -9 14 -21 18 -21 2 0 3 -1
3 -2 0 -2 1 -2 38 -4 33 -1 33 -1 38 -6 3 -4 5 -6 4 -6 -2 0 1 -14 3 -21 2 -3
6 -10 12 -16 6 -6 11 -17 11 -24 0 -8 -7 -17 -13 -17 -2 0 -9 -2 -15 -5 -24
-10 -28 -13 -37 -34 -21 -50 -48 -99 -72 -128 -12 -15 -21 -31 -21 -39 0 -15
9 -31 19 -36 3 -2 10 -6 15 -9 19 -12 43 -28 44 -29 1 -1 9 -7 19 -14 21 -15
31 -17 47 -10 l8 4 0 12 c0 12 -2 16 -16 30 -8 9 -9 11 -10 21 -1 16 2 22 14
30 20 12 28 26 30 54 0 12 18 21 35 17 17 -4 22 -19 14 -43 -9 -25 -7 -33 8
-48 12 -13 14 -26 5 -40 -4 -6 -9 -17 -13 -25 -8 -20 -13 -26 -23 -30 -14 -4
-17 -8 -18 -28 0 -13 0 -16 2 -15 7 4 22 0 26 -7 1 -2 2 -8 2 -13 0 -13 -6
-19 -19 -19 -12 0 -15 2 -23 14 -4 6 -7 11 -8 12 -1 1 -1 2 -1 4 0 1 1 3 1 5
0 2 2 3 7 3 4 0 7 1 8 3 1 3 1 3 -2 1 -2 -2 -3 -2 -3 0 0 3 -14 2 -20 -1 -2
-2 -10 -4 -17 -4 -24 -2 -36 -6 -71 -26 -18 -10 -40 -22 -48 -26 -19 -10 -22
-15 -22 -30 -1 -17 0 -19 16 -33 12 -12 28 -29 45 -50 6 -6 40 -51 50 -66 10
-13 32 -16 49 -7 5 3 9 6 10 7 1 0 7 5 14 10 12 8 45 33 51 39 2 1 10 8 20 16
l17 14 0 13 c0 15 -3 22 -15 29 -12 7 -15 12 -15 23 0 18 6 24 23 24 12 0 18
-3 23 -14 8 -16 12 -19 28 -19 l14 0 9 9 c16 18 33 22 48 14 17 -10 20 -22 7
-33 -16 -14 -25 -27 -27 -46 -3 -14 -8 -20 -20 -22 -6 -1 -26 -9 -31 -12 -9
-7 -15 -15 -32 -40 -17 -26 -28 -41 -33 -47 -2 -1 -3 -3 -3 -4 0 0 -2 -4 -6
-7 -3 -3 -9 -10 -13 -16 -4 -5 -10 -12 -13 -14 -4 -5 -4 -7 -4 -18 1 -15 6
-21 22 -30 12 -6 14 -11 13 -27 0 -17 -6 -22 -24 -22 -14 0 -19 3 -24 13 -7
15 -16 21 -32 21 -10 0 -11 -1 -20 -9 -6 -6 -16 -15 -24 -22 -8 -7 -16 -14
-18 -16 -2 -2 -11 -8 -19 -15 -8 -6 -16 -12 -17 -13 -3 -2 -21 -15 -26 -19
-41 -27 -42 -28 -43 -45 0 -10 0 -13 4 -18 5 -7 24 -30 31 -38 2 -3 6 -7 9
-11 3 -4 6 -8 8 -10 2 -2 5 -6 7 -9 12 -18 18 -22 30 -22 13 -1 19 1 29 11 4
3 8 6 9 6 5 0 30 14 35 20 9 9 11 13 10 35 0 30 5 42 24 53 8 6 30 6 37 1 10
-6 10 -11 -3 -45 -5 -13 -8 -23 -13 -44 -1 -4 -4 -8 -13 -13 -18 -12 -29 -27
-37 -49 0 -2 -7 -8 -15 -13 -15 -10 -16 -11 -17 -29 l0 -14 10 -2 c13 -3 22
-2 31 6 4 3 9 6 10 6 1 0 2 1 2 2 1 1 6 5 13 10 11 8 14 10 23 19 5 3 5 3 13
4 7 0 10 -3 12 -13 2 -11 3 -12 26 -31 15 -13 15 -25 1 -34 -65 -38 -129 -69
-200 -96 -10 -4 -20 -7 -21 -8 -1 0 -7 -2 -14 -4 -7 -3 -20 -7 -29 -10 -14 -4
-35 -15 -29 -15 1 0 0 -1 -2 -3 -1 -2 -3 -8 -3 -16 0 -11 1 -13 5 -18 2 -3 7
-10 11 -16 4 -5 7 -10 8 -11 2 -1 28 -42 28 -43 0 0 3 -5 6 -10 3 -5 6 -9 6
-10 0 0 4 -7 8 -14 5 -8 16 -28 24 -46 17 -33 20 -37 33 -43 11 -5 23 -5 40 2
8 3 26 10 40 16 62 25 143 67 201 103 9 6 75 50 84 56 11 8 27 6 37 -6 3 -5
13 -16 36 -43 2 -3 10 -13 17 -22 20 -25 24 -28 39 -28 13 0 15 1 31 14 5 4
15 10 22 14 11 6 25 15 28 18 1 1 9 8 19 16 44 37 53 44 60 44 4 0 9 -7 9 -12
0 -8 10 -16 21 -16 15 0 21 2 30 11 12 13 17 15 27 14 13 -1 30 3 41 9 5 3 10
6 10 6 1 0 3 1 5 3 6 5 22 4 27 -2 11 -10 5 -31 -10 -34 -18 -3 -30 -9 -46
-26 -17 -18 -21 -25 -21 -37 0 -13 1 -13 26 -39 13 -13 30 -32 39 -42 18 -20
27 -25 43 -25 8 0 13 1 22 7 7 4 13 7 13 7 1 0 5 2 10 5 4 3 11 8 15 10 34 21
52 34 54 38 4 10 5 27 1 36 -10 25 7 40 30 26 6 -4 11 -6 18 -6 6 0 12 -1 13
-2 1 -1 2 0 2 1 0 1 1 2 3 2 1 0 3 1 4 3 1 4 0 25 -3 35 -1 6 -1 10 0 17 5 20
25 26 49 14 13 -6 26 -8 37 -5 4 2 15 10 32 27 22 22 27 27 35 44 9 16 11 19
23 27 7 5 19 15 27 23 l13 14 0 13 c-2 23 -3 24 -82 54 -37 14 -69 26 -71 26
-2 0 -3 1 -1 1 1 1 2 3 2 4 0 2 1 3 2 2 1 -1 2 0 2 1 1 3 268 6 282 3 3 -1 8
-3 10 -5 2 -2 5 -4 6 -5 2 0 2 -1 0 -1 -12 0 -39 -24 -51 -44 -9 -15 -13 -17
-34 -20 -24 -4 -37 -9 -40 -17 -4 -10 -4 -35 1 -35 0 0 6 -4 11 -10 48 -44 48
-44 68 -44 11 1 14 2 24 8 6 4 13 8 15 9 9 3 12 28 5 44 -9 21 0 31 29 35 15
2 37 12 49 22 5 3 9 6 10 6 2 0 5 2 8 5 3 3 5 4 5 4 0 -1 1 0 2 2 2 6 1 32 -2
33 -1 0 -5 3 -8 5 -6 6 -7 6 -16 14 -8 6 -16 17 -16 22 0 2 2 7 6 12 5 8 6 9
13 9 10 0 14 -4 24 -24 12 -23 18 -25 96 -23 65 1 67 1 67 3 0 1 1 2 3 2 4 0
14 12 18 21 3 6 3 19 3 92 0 83 0 84 -5 93 l-4 10 -15 -1 c-8 0 -14 1 -14 2 0
1 -2 -2 -3 -6 -2 -4 -5 -12 -7 -17 -5 -11 -6 -32 -1 -48 8 -27 5 -38 -12 -38
-11 0 -15 5 -19 20 -1 6 -4 12 -5 14 -2 2 -3 4 -2 4 2 0 -4 10 -13 23 -12 20
-9 37 10 51 10 7 24 20 24 23 0 4 16 19 22 19 6 0 28 8 33 12 2 2 5 7 7 11 4
8 4 21 4 305 0 268 0 298 -3 305 -4 10 -12 21 -19 25 -15 9 -19 14 -19 24 0
12 5 20 16 27 22 12 27 34 14 49 -4 4 -9 8 -10 8 -2 0 -3 1 -3 2 0 2 -1 2 -1
1 -1 0 -4 1 -8 2 -6 4 -19 5 -18 2 2 -1 -17 -20 -27 -26 -11 -7 -26 -7 -33 0
-6 6 -7 23 -2 30 6 9 21 12 30 6 4 -3 24 -4 22 -1 -1 1 1 2 4 3 3 1 6 3 7 5 1
2 3 4 4 3 1 -1 2 1 2 3 0 2 1 4 2 4 1 0 2 1 2 2 0 0 0 3 1 5 1 2 2 6 3 9 2 3
3 6 4 5 3 -2 10 17 34 88 24 75 40 132 44 155 6 30 -11 49 -49 57 -2 0 -18 5
-35 10 -32 9 -45 11 -54 6 -8 -4 -12 -20 -9 -41 1 -7 1 -9 -3 -13 -10 -10 -30
-4 -30 9 0 5 -2 13 -6 22 0 2 -1 3 -1 4 -2 6 -4 10 -5 10 -1 0 -2 1 -2 2 0 1
-5 7 -10 12 l-11 10 -14 0 c-18 -1 -21 -4 -26 -25 -17 -73 -34 -130 -57 -194
-7 -18 -12 -35 -12 -37 0 -9 5 -23 12 -33 l7 -10 0 -26 c1 -27 1 -34 3 -32 0
1 2 -2 4 -5 3 -4 6 -6 8 -6 5 0 5 0 1 -2 -2 -1 -3 -2 -2 -2 2 0 -3 -5 -6 -6
-1 0 -11 -1 -21 -2 l-19 -1 -6 6 -6 6 0 181 0 181 -6 16 c-3 9 -6 21 -6 26 -1
5 -2 11 -3 13 -1 2 -3 6 -3 8 -1 6 -9 14 -18 18 -7 4 -15 4 -100 4 -51 0 -94
-1 -97 -2z m145 -164 c5 -5 6 -10 5 -23 -1 -15 -27 -21 -39 -9 -8 8 -8 24 0
32 9 9 24 9 34 0z m-393 -20 c5 -6 5 -12 0 -18 -7 -8 -22 -2 -22 9 0 11 15 17
22 9z m765 -9 c6 -6 7 -18 2 -24 -1 -3 -11 -8 -20 -12 -10 -4 -19 -10 -21 -12
-1 -2 -6 -5 -11 -7 -8 -3 -8 -3 -12 0 -5 5 -5 5 -1 12 2 4 6 8 10 10 5 2 10 8
19 25 7 13 25 17 34 8z m-992 -21 c11 -10 3 -28 -11 -28 -9 0 -16 6 -16 16 0
14 17 22 27 12z m526 -16 c9 -6 4 -19 -7 -19 -9 0 -18 12 -14 18 4 7 13 8 21
1z m-236 -14 c11 -5 16 -27 8 -41 -3 -8 -4 -8 -29 -14 -10 -2 -25 -7 -33 -10
-7 -3 -15 -5 -18 -5 -4 0 -11 7 -11 13 0 4 7 17 10 17 5 0 20 15 31 31 9 12
25 15 42 9z m360 -1 c3 -5 3 -5 0 -10 -5 -6 -9 -6 -14 0 -3 5 -3 5 1 10 6 6 8
6 13 0z m-771 -5 c5 -5 5 -11 0 -16 -10 -10 -27 5 -16 16 4 4 12 4 16 0z
m-557 -9 c3 -3 3 -3 0 -6 -4 -5 -11 1 -7 6 4 4 4 4 7 0z m822 -32 c4 -12 10
-34 14 -49 9 -34 12 -40 20 -45 7 -5 28 -12 32 -10 2 2 35 2 43 0 3 -1 8 -2
11 -2 15 -3 21 -24 11 -34 -5 -5 -26 -9 -46 -9 -10 0 -26 -6 -26 -10 0 -1 -1
-2 -3 -2 -1 0 -2 -1 -3 -2 0 -2 0 -5 -1 -8 -1 -3 -2 -12 -2 -20 0 -17 -3 -23
-11 -22 -4 1 -6 4 -12 16 -4 8 -8 17 -8 19 0 2 -1 3 -1 2 -1 -2 -5 -3 -13 -3
-24 0 -24 -2 -26 -58 -1 -44 -1 -46 -6 -50 -2 -1 -4 -4 -4 -7 -1 -4 -1 -4 -1
1 -1 4 -18 28 -26 37 -1 2 -4 5 -6 8 -5 7 -9 12 -27 33 -22 25 -23 31 -11 65
10 28 10 34 0 42 -5 5 -25 8 -31 5 -5 -3 -14 -3 -14 0 0 1 -2 2 -3 3 -2 1 -7
5 -10 10 -3 5 -7 9 -8 9 -2 0 1 2 6 5 10 6 10 6 62 7 56 2 57 2 57 4 0 1 1 2
3 2 4 0 14 12 18 21 2 5 3 15 3 33 0 28 2 35 7 35 2 0 3 1 3 4 0 2 1 2 1 -2 1
-3 4 -16 8 -28z m-624 23 c10 -9 3 -26 -10 -26 -8 0 -15 7 -15 15 0 13 16 20
25 11z m1420 -71 c5 -5 5 -6 5 -29 0 -23 0 -24 -5 -30 -5 -5 -6 -6 -8 -3 -2 2
-4 3 -5 3 -2 0 -12 20 -12 24 0 7 -5 10 -19 10 -13 0 -15 0 -22 -7 -13 -12
-15 -13 -27 -13 -15 0 -22 7 -22 23 0 10 1 12 6 17 8 8 23 8 34 1 12 -8 29 -8
43 2 15 9 25 9 32 2z m-1370 -64 c0 -30 0 -33 4 -38 4 -6 5 -6 19 -5 l14 0 1
-7 0 -8 1 9 c0 12 6 17 20 17 23 0 28 -18 17 -57 -5 -17 -11 -24 -21 -24 -11
0 -16 4 -16 14 l-1 7 0 -7 -1 -6 -14 0 c-12 1 -15 0 -17 -3 -1 -2 -4 -6 -7 -9
-3 -3 -7 -8 -9 -10 -2 -3 -3 -4 -3 -2 0 1 -8 9 -17 18 -14 14 -17 19 -19 26
-3 10 -3 7 12 59 3 12 6 25 6 29 -1 13 -12 28 -20 28 -4 0 -4 1 -1 1 2 1 6 3
8 4 3 2 11 4 18 6 l14 2 6 -6 6 -6 0 -32z m305 37 c3 -4 6 -6 5 -6 -1 0 -4 -6
-7 -13 -6 -19 -16 -44 -26 -64 -4 -10 -8 -19 -8 -21 0 -2 -1 -2 -1 0 -1 2 -4
4 -6 6 -4 3 -4 6 -5 48 l-1 45 6 6 c6 6 6 6 21 5 13 -1 16 -2 22 -6z m666 -50
c0 -1 2 -2 4 -3 5 -2 8 -10 5 -13 -2 -1 -3 -2 -3 -1 0 1 -1 1 -3 -1 -4 -4 -14
-1 -17 4 -2 5 -2 6 1 11 3 5 13 7 13 3z m-101 -28 c1 -1 1 -2 0 -2 -1 0 -4 -3
-5 -6 -1 -4 -3 -5 -4 -4 0 1 -3 2 -6 3 -4 0 -6 2 -6 4 0 1 -2 3 -3 4 -3 0 -2
1 1 1 6 0 14 6 14 10 0 2 1 0 3 -3 2 -3 4 -7 6 -7z m164 0 c10 -9 3 -26 -10
-26 -7 0 -15 7 -19 16 -2 6 -2 7 2 10 7 5 22 5 27 0z m176 -114 c4 -3 8 -10
10 -18 0 -4 3 -13 5 -19 4 -13 4 -13 13 -14 12 -2 23 0 27 4 9 10 18 15 28 16
6 0 13 1 15 2 7 1 34 13 36 15 3 3 13 2 17 -1 4 -4 5 -12 2 -16 -2 -4 -17 -13
-20 -13 -2 0 -4 -1 -4 -2 0 -1 -1 -2 -3 -2 -2 0 -9 -6 -16 -13 -7 -7 -17 -14
-22 -17 -14 -6 -30 -19 -36 -28 -7 -10 -15 -15 -28 -15 -18 0 -25 7 -28 25 -3
20 -11 34 -29 48 -18 15 -14 45 6 50 8 2 21 1 27 -2z m-662 -67 c4 -7 5 -11 5
-40 0 -18 1 -36 2 -40 3 -10 4 -38 2 -58 -1 -10 -1 -16 1 -20 3 -8 11 -16 24
-24 11 -7 14 -11 13 -19 0 -9 -5 -17 -10 -19 -2 -1 -5 -3 -8 -5 -3 -3 -7 -6
-10 -8 -5 -4 -10 -14 -10 -23 0 -10 10 -20 26 -28 17 -7 22 -12 22 -21 0 -8
-5 -14 -14 -17 -3 -1 -6 -2 -7 -3 -1 -1 -4 -2 -7 -3 -8 -2 -19 -13 -22 -22 -1
-6 -2 -68 -2 -247 0 -214 0 -240 3 -247 4 -9 14 -21 18 -21 2 0 3 -1 3 -2 0
-2 1 -2 78 -4 75 -1 74 -1 83 -9 4 -3 -45 -49 -78 -74 -4 -3 -9 -7 -10 -8 -1
0 -7 -5 -13 -9 -6 -4 -12 -9 -13 -10 -5 -4 -37 -24 -47 -30 -6 -3 -12 -7 -14
-8 -8 -5 -38 -21 -50 -27 -8 -4 -17 -9 -21 -12 -16 -11 -41 -21 -51 -22 -12 0
-16 3 -17 17 -1 11 -7 24 -20 43 -8 12 -16 21 -66 74 -12 11 -13 14 -13 21 0
10 3 17 10 25 10 12 12 15 12 17 0 1 1 2 2 2 0 0 4 5 8 10 8 11 21 30 24 33
14 18 59 94 79 135 21 41 21 43 13 68 -3 10 -6 20 -6 23 0 7 8 17 19 23 16 9
31 25 38 38 5 11 5 12 3 22 -4 20 -17 30 -40 33 -30 3 -34 4 -44 15 -6 7 -27
16 -41 17 -7 1 -13 3 -21 9 -6 4 -15 9 -20 12 l-9 5 -66 -1 -66 0 -7 5 -6 6 4
5 c6 8 2 36 -6 36 -2 0 -2 1 1 1 2 1 8 4 13 7 5 3 10 6 12 6 1 0 2 1 2 2 0 1
1 2 3 2 4 0 14 12 18 21 2 5 3 14 3 30 0 22 3 37 8 39 1 0 2 2 2 4 0 3 0 3 2
0 2 -3 18 -4 44 -1 14 1 16 1 21 -4 7 -5 7 -13 4 -48 -3 -28 6 -39 29 -39 11
0 24 8 29 17 5 9 14 34 16 41 1 7 8 11 15 12 12 1 16 0 25 -8 9 -8 10 -8 22
-8 12 0 23 3 23 6 0 2 17 30 32 52 10 16 10 35 -1 48 -6 7 -9 9 -65 51 -19 14
-39 30 -44 35 -4 4 -9 8 -10 7 -1 -1 -2 0 -2 1 0 1 -1 2 -2 2 -3 0 -56 40 -59
45 -7 9 -2 24 9 30 12 6 19 2 31 -17 3 -5 6 -9 7 -10 1 -1 6 -9 13 -19 14 -21
17 -23 33 -23 14 0 16 1 36 26 20 24 20 26 20 49 -1 16 0 19 3 23 2 2 4 4 5 4
3 -1 22 3 30 6 6 3 8 5 8 9 1 5 1 6 1 1 1 -2 3 -8 6 -13z m138 3 c7 -6 7 -19
1 -25 -6 -7 -19 -7 -25 -1 -7 6 -7 19 -1 25 6 7 19 7 25 1z m-474 -61 c5 -5 5
-6 4 -16 -1 -12 -6 -19 -12 -18 -2 0 -7 1 -11 2 -10 2 -15 8 -13 19 3 17 21
24 32 13z m939 -15 c0 -1 3 -4 7 -7 4 -2 7 -5 6 -5 -1 -1 1 -4 4 -7 3 -3 4 -5
3 -5 -1 0 -1 -1 0 -4 1 -2 6 -4 13 -6 27 -5 30 -6 33 -10 3 -3 4 -8 4 -14 0
-14 -6 -20 -19 -20 -12 0 -17 3 -24 16 -3 5 -7 10 -8 12 -1 2 -2 5 -2 8 0 6
-4 7 -59 7 -40 0 -45 -1 -61 -17 -21 -22 -31 -22 -52 0 -15 14 -21 16 -45 17
-32 2 -40 -3 -44 -28 -1 -6 -1 -12 0 -12 4 -2 2 -22 -2 -27 -7 -9 -27 -9 -34
0 -4 5 -6 25 -2 27 2 1 -1 22 -5 29 -4 7 -15 13 -25 12 -6 -1 -8 0 -13 5 -8 8
-8 16 0 24 l6 6 160 0 c87 0 159 -1 159 -1z m-993 -39 c4 -7 2 -20 -4 -26 -11
-12 -31 -3 -31 13 0 11 5 16 17 18 12 1 14 1 18 -5z m79 -15 l4 -6 -5 -4 -5
-4 -4 5 c-3 5 -4 6 -1 8 2 2 3 4 3 5 0 4 3 2 8 -4z m-292 -9 c7 -3 11 -13 11
-24 0 -19 -9 -28 -28 -28 -20 0 -28 10 -28 31 0 10 1 12 6 17 3 3 8 6 11 6 3
1 6 2 7 2 3 1 16 -1 21 -4z m707 -30 c3 -5 3 -5 0 -10 -5 -6 -8 -6 -13 -1 -5
5 -5 5 0 11 4 6 8 6 13 0z m700 -1 c6 -6 6 -12 2 -26 -3 -10 -3 -10 -10 -8 -3
1 -6 2 -7 2 -3 0 -12 14 -12 20 0 14 17 22 27 12z m2 -54 c-1 -1 1 -2 3 -2 7
0 30 -11 33 -17 5 -7 5 -27 0 -34 -4 -7 -11 -10 -23 -10 -19 0 -27 8 -27 27 0
9 2 13 7 23 4 7 7 12 6 13 0 1 0 2 1 2 1 0 1 -1 0 -2z m-342 -62 c3 -3 5 -7 6
-11 2 -11 12 -26 21 -32 l9 -6 51 0 51 0 6 -6 c8 -9 8 -17 0 -26 l-6 -6 -70 0
c-57 0 -71 -1 -74 -3 -2 -1 -3 -2 -3 -1 0 1 -1 0 -3 -2 -1 -2 -2 -8 -1 -17 l0
-14 -12 0 -12 0 0 14 c1 9 0 15 -1 17 -2 2 -3 3 -3 2 0 -1 -1 0 -3 1 -3 2 -17
3 -70 3 -57 0 -66 0 -69 3 -2 2 -6 5 -9 6 -4 2 -6 3 -6 4 2 3 -11 14 -24 21
-17 10 -20 13 -20 25 0 15 8 23 23 23 12 0 17 -4 27 -20 4 -6 10 -13 14 -15 3
-2 7 -4 8 -5 4 -3 12 -4 59 -4 l47 0 9 6 c9 6 19 21 21 32 3 15 23 21 34 11z
m-875 -48 c2 -1 7 -7 12 -14 9 -14 9 -17 -1 -27 -9 -9 -10 -11 -9 -26 0 -12 1
-14 9 -23 23 -23 14 -54 -16 -55 -12 -1 -23 5 -33 20 -5 6 -13 17 -18 23 -11
14 -11 24 0 46 4 10 10 24 12 33 4 18 8 23 18 25 7 2 21 1 26 -2z m869 -83 c5
-8 5 -22 -1 -32 -9 -14 -13 -31 -10 -44 2 -9 3 -60 1 -63 -1 -2 5 -22 10 -29
8 -12 13 -13 82 -13 l62 0 8 -5 c8 -5 9 -6 14 -21 8 -26 3 -40 -14 -44 -18 -4
-36 3 -41 16 -3 7 -21 18 -33 19 -5 1 -62 1 -126 1 l-116 -1 -8 -5 c-11 -5
-26 -22 -30 -31 -4 -9 -3 -26 2 -34 5 -11 15 -16 29 -16 11 -1 28 4 30 7 0 1
3 2 6 2 12 0 18 -13 10 -22 -4 -4 -13 -6 -15 -2 -1 1 -4 2 -8 1 -3 -1 -8 -2
-10 -2 -11 -2 -14 -3 -24 -12 -10 -9 -14 -11 -25 -11 -9 0 -11 1 -17 7 -4 4
-7 11 -9 17 -3 12 -3 13 -1 35 1 9 0 19 -1 26 -7 31 -5 41 9 45 11 4 23 10 28
15 10 9 24 15 37 15 16 0 31 6 45 18 7 6 14 11 16 11 6 2 15 5 24 10 12 6 16
14 17 41 1 20 2 24 6 30 10 15 16 33 13 46 -2 11 -2 20 2 25 4 4 5 5 19 5 14
0 15 -1 19 -5z m296 -67 c7 -3 12 -13 12 -25 0 -14 -5 -21 -17 -28 -15 -8 -25
-19 -29 -31 -4 -13 -4 -13 -5 -18 0 -8 -9 -14 -20 -14 -23 0 -46 33 -40 56 3
12 6 15 25 24 11 6 18 12 26 21 16 18 28 22 48 15z m-636 -52 c10 -9 3 -26
-10 -26 -8 0 -15 7 -15 15 0 13 16 20 25 11z m-365 -55 c3 -3 4 -7 4 -14 0
-13 -6 -19 -19 -19 -13 0 -19 6 -19 19 0 7 1 11 4 14 7 8 23 8 30 0z m-215
-22 c3 -1 8 -8 11 -14 15 -26 23 -31 56 -33 13 -1 21 -2 23 -4 7 -5 9 -8 7 -8
0 -1 -4 -5 -7 -10 -3 -6 -6 -11 -8 -12 -1 -2 -7 -10 -13 -19 -20 -28 -23 -31
-37 -33 -14 -2 -57 0 -59 3 -2 4 -15 6 -28 7 -10 0 -13 -1 -20 -6 -4 -3 -9 -6
-10 -6 -1 0 -2 -1 -2 -2 0 -1 -1 -2 -2 -1 -1 1 -2 0 -2 -1 0 -1 -2 -2 -5 -4
-5 -2 -5 -2 -3 1 1 2 2 3 1 3 -1 0 0 1 2 3 2 2 3 3 1 2 -2 -1 -1 0 1 2 2 2 3
3 2 3 -1 0 0 1 1 3 1 1 8 10 15 19 8 9 14 17 15 18 1 1 4 6 7 13 9 20 1 31
-23 32 -22 0 -26 21 -3 23 13 1 30 7 41 15 5 4 11 8 14 9 6 2 20 1 25 -3z
m558 -3 c10 -9 3 -26 -10 -26 -8 0 -15 7 -15 15 0 13 16 20 25 11z m-722 -51
c3 -5 3 -5 0 -10 -5 -6 -8 -6 -16 -1 l-5 3 5 7 c7 7 11 7 16 1z m776 -26 c7
-6 9 -21 5 -43 -5 -32 -8 -38 -21 -38 -9 0 -14 7 -22 35 -11 36 -5 51 20 51
11 0 14 -1 18 -5z m403 2 c6 -6 5 -22 -1 -28 -12 -12 -31 -3 -31 13 0 12 7 18
19 18 6 0 11 -1 13 -3z m-760 -6 c3 -3 4 -7 4 -14 0 -13 -6 -19 -19 -19 -13 0
-19 6 -19 19 0 7 1 11 4 14 7 8 23 8 30 0z m-580 -21 c5 -6 5 -12 0 -18 -7 -8
-22 -2 -22 9 0 11 15 17 22 9z m1552 -24 c5 -5 5 -15 0 -20 -9 -9 -24 -2 -24
10 0 8 6 14 14 14 3 0 8 -2 10 -4z m-133 -19 c6 -4 6 -6 6 -20 0 -14 0 -16 -6
-20 -4 -4 -7 -5 -18 -5 -11 0 -14 1 -18 5 -6 4 -6 6 -6 20 0 14 0 16 6 20 4 4
7 5 18 5 11 0 14 -1 18 -5z m-1028 -51 c16 -7 16 -43 -1 -50 -15 -6 -34 -2
-39 9 -4 8 -4 24 0 32 5 12 23 15 40 9z m-92 -19 c5 -8 1 -16 -8 -16 -9 0 -13
8 -8 16 2 3 5 5 8 5 3 0 6 -2 8 -5z m-54 -140 c3 -3 3 -3 0 -6 -4 -5 -11 1 -7
6 4 4 4 4 7 0z m734 -35 c16 -7 16 -43 -1 -50 -15 -6 -34 -2 -39 9 -4 8 -4 24
0 32 5 12 23 15 40 9z m-763 -40 c5 -5 5 -15 0 -20 -9 -9 -24 -2 -24 10 0 8 6
14 14 14 3 0 8 -2 10 -4z m642 -135 l-5 -5 -4 4 -5 5 4 4 5 5 4 -4 5 -5 -4 -4z"/>
<path d="M1676 2239 c-7 -15 -9 -18 -20 -24 -6 -4 -14 -10 -17 -14 -8 -8 -21
-24 -21 -26 0 -1 -3 -5 -7 -11 -3 -5 -8 -12 -10 -17 -5 -9 -11 -14 -28 -19 -8
-3 -17 -6 -20 -7 -9 -5 -14 -23 -9 -36 3 -9 45 -50 61 -60 15 -10 16 -11 35
-42 4 -7 10 -16 13 -19 3 -4 9 -11 13 -16 4 -5 9 -11 11 -13 2 -3 6 -7 9 -11
16 -21 37 -28 60 -18 6 2 27 10 47 17 20 7 45 17 57 21 12 4 37 14 56 21 40
14 51 20 55 26 4 5 6 21 4 28 -1 6 -36 43 -46 49 -9 6 -25 8 -37 5 -35 -7 -52
6 -46 38 4 21 -2 38 -18 52 -4 3 -8 8 -10 9 -4 4 -24 21 -60 53 -13 10 -25 21
-28 24 -5 4 -8 5 -21 6 l-15 1 -8 -17z"/>
</g>
</svg>
