<?xml version="1.0" standalone="no"?>
<!DOCTYPE svg PUBLIC "-//W3C//DTD SVG 20010904//EN"
 "http://www.w3.org/TR/2001/REC-SVG-20010904/DTD/svg10.dtd">
<svg version="1.0" xmlns="http://www.w3.org/2000/svg"
 width="1000.000000pt" height="2850.000000pt" viewBox="0 0 1000.000000 2850.000000"
 preserveAspectRatio="xMidYMid meet">
<metadata>
Created by potrace 1.15, written by Peter Selinger 2001-2017
</metadata>
<g transform="translate(0.000000,2850.000000) scale(0.500000,-0.500000)"
fill="#000000" stroke="none">
<path d="M1402 3827 c-12 -4 -23 -15 -26 -27 -3 -11 -3 -63 0 -78 3 -15 3 -30
-1 -53 -2 -16 -3 -44 -2 -148 l0 -128 -6 -6 c-4 -3 -8 -6 -9 -5 -5 1 -16 -2
-22 -7 -3 -3 -6 -8 -8 -14 -1 -6 -3 -12 -4 -14 -1 -3 -1 -5 0 -5 1 0 2 -3 2
-8 0 -14 -18 -22 -28 -11 -4 4 -6 19 -2 19 1 0 2 1 1 2 -1 1 -3 7 -4 13 -2 7
-5 14 -7 16 -6 6 -18 10 -25 7 -2 -1 -5 -1 -6 -1 0 1 -1 1 -1 -1 0 -1 -1 -2
-3 -2 -5 0 -17 -16 -17 -24 -1 -7 -1 -7 -2 -1 0 3 -3 9 -5 13 -3 6 -4 12 -5
57 0 54 -1 61 -12 72 -7 7 -17 9 -37 8 -13 -1 -22 -1 -31 2 -8 2 -21 3 -35 2
l-22 0 -5 6 -6 6 0 49 -1 48 -5 5 c-5 5 -7 6 -18 5 -8 0 -13 1 -14 3 -1 1 -2
1 -2 -1 0 -11 -29 -14 -39 -5 -6 4 -6 6 -6 20 0 14 0 16 6 20 10 9 39 6 39 -5
0 -2 1 -2 2 -1 1 2 6 3 14 3 11 -1 13 0 18 5 l5 5 0 32 c0 46 -3 49 -49 62 -4
1 -7 5 -12 15 -11 21 -13 25 -25 30 -10 5 -11 5 -71 5 -60 0 -61 0 -71 -5 -6
-3 -12 -6 -13 -9 -1 -2 -3 -5 -5 -6 -4 -5 -12 -23 -18 -41 -5 -16 -5 -18 -5
-48 1 -36 3 -43 16 -57 9 -9 14 -17 14 -21 0 -4 -5 -12 -14 -21 -13 -14 -15
-21 -15 -56 l0 -31 -6 -6 -6 -6 -62 0 c-62 0 -73 -1 -73 -3 0 -1 -1 -2 -3 -2
-4 0 -14 -12 -18 -21 -2 -4 -3 -12 -3 -17 0 -11 -3 -23 -7 -25 -1 -1 -3 -3 -4
-5 0 -2 -1 0 -1 3 0 10 -11 25 -22 31 -12 6 -22 6 -44 -3 -10 -3 -21 -7 -23
-8 -3 -1 -5 -2 -5 -3 0 -1 -3 1 -6 5 l-6 6 0 88 c-1 94 -1 93 -11 104 -5 5
-21 16 -24 16 -6 1 -28 -7 -33 -12 -3 -2 -7 -7 -9 -10 -5 -7 -14 -12 -26 -12
-19 0 -28 9 -28 28 0 21 8 27 36 28 24 1 31 3 43 15 6 5 14 11 18 13 23 12 32
23 34 44 0 9 0 15 -3 21 -4 10 -14 22 -18 22 -2 0 -3 1 -3 2 0 2 -1 2 -33 3
-31 2 -39 0 -49 -8 -6 -5 -18 -28 -18 -34 0 -11 -12 -20 -27 -20 -15 0 -27 9
-27 20 0 5 -11 28 -16 32 -9 9 -18 11 -28 10 -16 -2 -19 -6 -21 -27 -1 -5 -2
-9 -2 -10 0 0 0 -2 2 -3 2 -2 3 -7 3 -11 0 -7 -2 -10 -13 -21 -16 -18 -19 -26
-21 -46 -1 -27 7 -44 29 -55 14 -7 19 -14 19 -27 0 -13 -5 -20 -19 -27 -14 -7
-22 -16 -26 -28 -3 -8 -3 -20 -3 -81 l0 -70 -5 -5 c-4 -3 -7 -5 -9 -5 -2 1
-23 4 -48 7 -54 7 -60 6 -73 -7 -10 -10 -12 -18 -15 -51 -1 -14 -2 -30 -3 -36
-2 -28 -11 -107 -18 -158 -5 -39 -3 -51 9 -59 9 -6 23 -8 25 -4 1 3 2 3 6 -1
l5 -5 -4 -4 c-4 -5 -5 -5 -8 -2 -5 4 -30 4 -36 0 -5 -4 -12 -17 -12 -23 0 -7
-23 -121 -29 -142 -3 -10 -5 -21 -5 -24 0 -13 11 -34 18 -34 1 0 2 -1 2 -2 0
-1 2 -2 6 -4 19 -7 53 -18 61 -21 6 -1 27 -8 47 -16 21 -7 38 -12 38 -12 1 1
5 1 9 2 14 2 27 13 27 24 1 5 1 5 1 1 1 -3 4 -6 6 -8 l5 -4 0 -166 c0 -172 0
-175 8 -182 2 -1 5 -3 7 -5 2 -3 25 -5 25 -2 0 0 2 3 4 5 3 3 10 18 11 26 0 1
1 3 1 3 0 0 1 2 1 4 2 15 6 22 17 26 6 3 19 2 26 0 12 -5 18 -21 14 -36 -3
-11 -7 -14 -21 -20 -19 -8 -29 -15 -35 -24 -3 -5 -7 -10 -11 -11 -3 -2 -6 -3
-6 -2 0 1 -27 -11 -31 -15 -9 -7 -10 -14 -10 -79 0 -65 0 -68 11 -79 3 -3 5
-5 5 -5 0 1 5 0 12 -2 7 -2 12 -3 14 -2 1 2 2 2 2 1 0 -2 29 5 39 10 7 3 15 7
18 8 17 8 43 -1 43 -14 0 -5 -11 -13 -19 -13 -9 0 -25 -6 -32 -12 -3 -2 -8
-10 -13 -17 -5 -9 -9 -14 -14 -16 -8 -4 -23 -6 -25 -3 -1 1 -6 0 -12 -1 -5 -2
-11 -4 -12 -4 -3 0 -11 -9 -14 -16 -5 -11 -4 -255 0 -266 4 -9 14 -21 18 -21
2 0 3 -1 3 -2 0 -2 11 -3 77 -3 62 0 67 0 74 4 8 5 15 15 20 31 3 12 7 16 14
16 7 0 10 -4 15 -18 7 -23 12 -26 32 -23 7 1 8 2 13 12 l5 11 0 567 c0 530 0
569 3 578 2 5 5 9 5 9 1 0 2 2 2 5 0 3 1 3 1 1 1 -2 4 -4 7 -5 13 -2 20 -2 35
5 9 4 22 9 30 12 8 4 17 8 20 9 4 2 7 3 8 3 5 0 35 17 39 22 5 8 9 23 7 35 -1
15 1 24 10 34 7 8 17 29 14 29 -1 0 2 2 5 6 l7 5 42 1 42 1 6 -6 c5 -6 6 -7 5
-17 -1 -22 7 -34 27 -43 6 -3 12 -5 14 -5 1 0 4 -1 6 -3 4 -2 4 -5 4 -35 0
-25 1 -37 4 -48 8 -33 3 -46 -16 -46 -10 0 -19 5 -19 12 0 6 -10 30 -14 35 -3
3 -8 7 -11 8 -21 9 -37 -6 -40 -37 -2 -17 -7 -22 -21 -22 -10 0 -11 1 -19 9
l-8 9 -15 0 c-15 -1 -22 -3 -22 -9 0 -4 -14 -10 -23 -10 -4 0 -12 1 -17 2 -11
3 -28 0 -37 -6 -14 -10 -30 -31 -34 -45 -4 -14 -4 -126 0 -137 4 -9 14 -21 18
-21 2 0 3 -1 3 -2 0 -2 1 -2 77 -4 77 -2 74 -1 101 -13 2 0 8 -3 14 -4 9 -3
12 -5 14 -11 7 -12 4 -50 -4 -71 -4 -8 -13 -12 -26 -11 -18 1 -31 0 -34 -1 -2
-1 -4 -2 -6 -2 -8 -2 -15 -14 -23 -41 -28 -101 -68 -209 -94 -252 -2 -5 -7
-17 -10 -27 -2 -10 -6 -20 -7 -23 -3 -4 -17 -12 -23 -12 -5 0 -19 -9 -23 -14
-1 -2 -4 -10 -5 -16 l-3 -12 10 -25 c16 -40 40 -106 50 -140 3 -11 9 -26 13
-34 6 -13 8 -15 16 -19 9 -5 24 -5 31 -1 31 16 44 22 71 34 18 7 42 16 55 21
38 14 73 26 79 28 3 1 26 8 51 16 25 9 64 22 87 29 23 7 49 15 57 18 8 3 16 5
18 5 7 0 12 -9 14 -25 4 -28 14 -41 34 -45 7 -1 12 0 29 5 22 8 32 9 34 4 2
-4 -2 -16 -7 -23 -2 -3 -7 -11 -11 -19 -4 -8 -14 -23 -21 -35 -13 -19 -14 -22
-14 -31 0 -11 3 -23 6 -23 1 0 2 -1 1 -2 0 0 6 -6 15 -12 9 -6 18 -12 20 -14
2 -2 6 -5 9 -8 20 -15 33 -26 66 -59 13 -13 30 -31 38 -40 15 -19 21 -23 33
-23 14 0 21 4 30 19 13 19 22 36 23 41 0 3 3 13 5 24 l3 18 17 17 c16 15 19
19 30 41 6 14 14 31 17 38 13 30 19 27 32 -17 7 -23 17 -45 21 -45 1 0 3 -1 5
-3 1 -1 9 -6 17 -10 16 -8 18 -11 18 -24 0 -9 -1 -10 -11 -21 l-12 -12 1 -14
c1 -7 1 -14 2 -14 13 -9 13 -9 65 -9 67 0 104 4 140 16 17 5 57 24 57 27 0 1
2 2 5 4 16 7 58 57 73 86 20 40 36 121 43 213 1 9 2 18 2 21 0 3 1 14 2 26 1
12 2 25 2 29 0 4 1 18 2 31 1 13 1 27 2 31 0 4 1 22 2 38 1 17 2 37 2 46 0 9
1 32 2 52 1 20 1 43 2 52 0 9 1 37 2 63 1 26 2 56 2 67 2 50 1 73 -2 83 -3 10
-14 21 -26 29 -10 5 -14 12 -14 23 0 11 4 17 17 25 18 11 26 22 29 37 0 4 1
20 1 35 0 25 0 29 -4 36 -4 9 -15 19 -24 23 -3 2 -7 6 -9 9 -3 6 -3 7 0 12 2
3 7 7 11 9 12 6 23 18 27 28 2 9 4 67 4 154 0 36 -1 37 -23 38 -15 1 -16 1
-17 -4 -1 -5 -12 -12 -21 -12 -14 0 -22 8 -26 27 -2 9 -1 13 4 33 3 13 6 28 7
33 1 6 2 11 3 12 1 1 0 8 -2 15 -3 14 -8 21 -18 24 -8 3 -119 2 -133 -1 -23
-5 -52 -2 -62 8 -6 6 -6 7 -6 21 0 24 -5 33 -25 55 -18 19 -18 19 -18 29 0 13
2 16 14 24 15 9 23 17 28 28 3 9 4 15 5 128 2 133 1 133 -12 146 -12 12 -14
12 -120 12 -77 0 -98 -1 -105 -3z m143 -113 c7 -6 7 -19 1 -25 -6 -7 -19 -7
-25 -1 -7 6 -7 19 -1 25 6 7 19 7 25 1z m-650 -43 c3 -3 3 -3 0 -6 -3 -3 -3
-3 -6 0 -3 2 -3 3 -1 6 4 4 4 4 7 0z m68 -91 c3 -4 39 -14 53 -14 15 0 22 -18
12 -29 -5 -5 -6 -5 -19 -4 -17 2 -33 2 -55 0 -17 -1 -17 -1 -23 4 -6 4 -6 5
-6 20 0 14 0 16 6 20 4 4 7 5 18 5 7 0 13 -1 14 -2z m544 -144 c10 -9 3 -26
-10 -26 -8 0 -15 7 -15 15 0 13 16 20 25 11z m-1137 -11 l-5 -5 -4 4 -5 5 4 4
5 5 4 -4 5 -5 -4 -4z m105 -27 c2 -3 2 -8 2 -17 -2 -22 5 -34 21 -36 16 -2 24
-16 14 -26 -6 -6 -13 -6 -27 0 -16 7 -30 11 -41 11 -10 0 -16 5 -16 13 0 5 9
21 12 23 1 0 2 2 2 3 0 2 1 3 2 3 1 0 4 5 6 11 8 17 18 24 25 15z m231 -36 c5
-1 15 -2 22 -3 17 -2 22 -6 22 -20 0 -13 -6 -19 -19 -19 -8 0 -16 4 -27 14 -4
3 -18 13 -22 14 -2 1 -4 4 -6 7 -6 11 4 13 30 7z m-417 -45 c5 -8 1 -16 -8
-16 -9 0 -13 8 -8 16 2 3 5 5 8 5 3 0 6 -2 8 -5z m798 -18 c5 -3 8 -10 21 -39
6 -13 19 -24 34 -29 8 -3 15 -3 31 -2 24 1 25 1 25 3 0 1 1 2 3 2 5 0 17 16
17 24 1 7 1 7 2 1 0 -3 3 -9 5 -13 3 -6 4 -12 4 -51 1 -48 3 -57 12 -64 3 -2
6 -4 8 -4 1 0 3 -1 5 -2 10 -3 16 -5 17 -3 2 3 18 0 30 -6 19 -9 30 -12 43
-12 10 0 12 -1 16 -5 3 -4 5 -8 5 -12 -1 -31 -3 -72 -4 -83 0 -7 -1 -23 -2
-36 -2 -37 -4 -60 -9 -122 -2 -25 -4 -49 -5 -53 -6 -55 -11 -97 -12 -101 0 -2
-1 -9 -2 -14 -1 -5 -2 -11 -2 -14 -1 -3 -2 -11 -3 -18 -7 -46 -23 -132 -26
-140 -3 -7 -10 -5 -14 5 -1 4 -9 28 -17 53 -8 25 -15 46 -16 48 -1 4 -7 20 -9
25 -1 2 -4 10 -7 18 -26 75 -35 90 -58 95 -11 2 -12 2 -62 -13 -96 -29 -97
-29 -104 -28 -3 1 -8 3 -10 5 -2 2 -5 4 -5 3 -1 0 -1 2 -1 4 -1 11 -1 10 -11
9 -5 -1 -13 -3 -16 -5 -10 -5 -24 -4 -29 2 -7 6 -7 22 0 28 8 9 31 6 31 -4 0
-2 1 -3 2 -3 2 0 5 -10 4 -14 0 -2 0 -2 2 0 1 1 6 2 15 3 9 0 16 1 18 3 1 1 5
10 8 20 3 9 7 22 9 28 4 15 11 19 32 22 23 3 30 5 51 15 25 12 33 11 49 -3 3
-2 11 -6 18 -9 13 -5 14 -5 48 -4 39 1 40 1 40 3 0 1 1 2 3 2 4 0 14 12 18 21
3 6 3 20 3 103 0 93 0 96 -4 107 -5 12 -15 25 -26 30 -18 9 -30 11 -84 11
l-51 0 -22 -7 c-24 -8 -29 -9 -35 -3 -6 6 -5 12 1 39 1 3 2 20 2 37 1 29 1 32
-4 48 -3 9 -7 20 -9 24 -5 10 -13 32 -16 42 -2 12 0 25 6 31 7 7 27 8 37 2z
m-733 -114 l-5 -5 -4 4 -5 5 4 4 5 5 4 -4 5 -5 -4 -4z m1288 -11 c5 -5 6 -7 6
-16 0 -6 -1 -12 -2 -13 -2 -2 5 -30 8 -31 1 0 2 -2 2 -5 0 -2 2 -7 6 -10 4 -5
5 -7 4 -15 -1 -5 -2 -52 -3 -104 -1 -52 -2 -129 -3 -170 -3 -119 -3 -124 1
-133 5 -11 11 -15 29 -22 17 -7 21 -12 17 -22 -2 -5 -5 -7 -18 -11 -31 -11
-34 -17 -36 -63 -1 -18 -2 -39 -2 -47 0 -8 -1 -26 -2 -40 -5 -111 -11 -173
-22 -238 -1 -7 -11 -36 -14 -43 -6 -11 -15 -19 -29 -24 -17 -7 -24 -13 -28
-29 -3 -11 -3 -14 -1 -19 6 -14 -6 -27 -25 -27 -9 0 -11 1 -16 6 -6 6 -6 7 -6
21 1 17 -1 28 -4 33 -2 1 -2 2 -1 2 1 0 -3 4 -9 9 -16 14 -17 8 7 75 17 51 58
221 68 284 1 4 4 26 8 49 7 44 14 93 16 110 2 15 3 25 4 31 0 3 1 12 2 20 1 8
2 17 2 19 1 4 8 78 10 98 1 8 2 23 3 35 1 12 2 30 3 41 1 11 2 24 2 29 0 5 1
18 2 29 1 11 2 26 2 33 4 57 5 90 2 92 -1 0 -2 2 -3 4 0 1 -4 9 -10 17 -11 16
-13 23 -10 35 3 11 10 16 23 16 10 0 12 -1 17 -6z m-187 -41 c4 -4 5 -7 5 -15
0 -14 -6 -20 -20 -20 -14 0 -20 6 -20 20 0 14 6 20 20 20 8 0 11 -1 15 -5z
m-464 -76 c4 -4 5 -7 5 -13 0 -11 -7 -18 -18 -18 -11 0 -18 7 -18 18 0 11 7
18 18 18 6 0 9 -1 13 -5z m211 -13 c1 0 4 -2 7 -5 4 -4 5 -7 5 -15 0 -14 -6
-20 -20 -20 -14 0 -20 6 -20 19 0 5 1 11 2 13 3 5 12 10 19 9 2 0 5 -1 7 -1z
m-115 -44 c7 -3 12 -13 12 -25 0 -19 -9 -28 -28 -28 -19 0 -28 9 -28 28 0 17
6 24 22 28 5 1 14 -1 22 -3z m-293 -53 c3 -3 4 -7 4 -14 0 -13 -6 -19 -19 -19
-13 0 -19 6 -19 19 0 7 1 11 4 14 7 8 23 8 30 0z m-430 -40 c3 -3 4 -7 4 -14
0 -13 -6 -19 -19 -19 -13 0 -19 6 -19 19 0 7 1 11 4 14 7 8 23 8 30 0z m1132
-10 l-5 -5 -4 4 -5 5 4 4 5 5 4 -4 5 -5 -4 -4z m-673 -51 c10 -10 4 -25 -11
-27 -8 -1 -13 4 -14 15 -1 14 15 21 25 12z m-421 -42 c5 -5 5 -8 -1 -33 -2
-11 -5 -25 -6 -31 -1 -6 -3 -13 -5 -16 -4 -7 -3 -26 1 -33 2 -2 7 -7 11 -10
12 -8 14 -12 14 -26 0 -10 -1 -12 -6 -17 -6 -6 -7 -6 -18 -6 -11 0 -12 0 -18
6 -5 5 -6 7 -6 17 0 8 1 14 3 17 5 6 5 26 0 33 -2 2 -7 7 -11 10 -12 8 -14 12
-14 25 0 10 4 21 11 27 3 3 9 12 15 23 2 5 6 11 9 13 5 6 16 6 21 1z m762
-114 c5 -5 5 -11 0 -16 -10 -10 -27 5 -16 16 4 4 12 4 16 0z m-52 -53 c7 -4 8
-8 8 -22 0 -8 -1 -10 -6 -15 -5 -5 -7 -6 -17 -6 -10 0 -12 1 -17 6 -5 5 -6 7
-6 17 0 10 1 12 6 17 5 5 7 6 16 6 6 0 13 -1 16 -3z m-128 -23 c5 -10 36 -109
35 -114 0 -5 -6 -12 -11 -14 -3 -1 -19 -6 -37 -10 -32 -8 -46 -13 -44 -16 1
-1 0 -2 -1 -2 -1 0 -2 -6 -2 -16 0 -15 0 -16 6 -19 7 -5 9 -9 12 -18 5 -22 -8
-39 -29 -38 -16 1 -23 6 -27 21 -3 10 0 20 9 37 4 7 9 17 12 22 3 6 7 11 8 12
2 2 2 3 0 8 -3 6 -3 8 9 34 10 22 23 53 34 81 9 22 12 31 14 33 4 4 10 3 12
-1z m540 -22 c5 -6 5 -12 0 -18 -7 -8 -22 -2 -22 9 0 11 15 17 22 9z m251 -11
c3 -5 3 -5 0 -10 -2 -3 -5 -5 -7 -5 -2 0 -5 2 -7 5 -3 5 -3 5 0 10 2 3 5 5 7
5 2 0 5 -2 7 -5z m-649 -37 c5 -6 5 -12 0 -18 -7 -8 -22 -2 -22 9 0 11 15 17
22 9z m-717 -124 c4 -6 4 -24 -1 -30 -7 -9 -27 -9 -34 0 -5 6 -5 24 0 30 7 9
27 9 35 0z m686 -47 c4 -4 5 -7 5 -15 0 -14 -6 -20 -20 -20 -14 0 -20 6 -20
20 0 14 6 20 20 20 8 0 11 -1 15 -5z m-360 -149 c7 -3 12 -13 12 -25 0 -25
-13 -31 -48 -25 -32 6 -41 11 -41 24 0 10 7 16 26 21 29 9 37 10 51 5z m-280
-20 c7 -4 10 -12 9 -29 0 -18 1 -26 8 -73 4 -24 4 -30 2 -36 -4 -13 -15 -20
-29 -19 -27 1 -34 19 -22 57 5 16 5 31 -1 43 -12 25 -13 30 -10 41 2 10 7 16
16 18 8 2 21 1 27 -2z m834 -27 c4 -4 5 -7 5 -13 0 -11 -7 -18 -18 -18 -11 0
-18 7 -18 18 0 11 7 18 18 18 6 0 9 -1 13 -5z m400 -56 c3 -5 3 -5 0 -10 -5
-6 -8 -6 -13 -1 -4 4 -4 7 0 12 4 5 8 5 13 -1z m-61 -24 c8 -5 10 -12 9 -23
-2 -14 -10 -20 -24 -20 -13 0 -19 5 -24 17 -3 11 -1 19 8 25 8 5 23 5 31 1z"/>
<path d="M1892 3368 c0 -3 -1 -10 -3 -15 -1 -7 -2 -11 -1 -12 1 -1 2 -9 2 -19
0 -16 3 -41 4 -31 0 3 1 4 6 4 16 -2 26 -2 25 -1 -1 1 0 2 1 2 3 0 5 13 6 35
1 20 -11 35 -29 37 -4 0 -9 1 -9 3 -1 1 -2 0 -2 -3z"/>
</g>
</svg>
