<?xml version="1.0" standalone="no"?>
<!DOCTYPE svg PUBLIC "-//W3C//DTD SVG 20010904//EN"
 "http://www.w3.org/TR/2001/REC-SVG-20010904/DTD/svg10.dtd">
<svg version="1.0" xmlns="http://www.w3.org/2000/svg"
 width="1100.000000pt" height="2850.000000pt" viewBox="0 0 1100.000000 2850.000000"
 preserveAspectRatio="xMidYMid meet">
<metadata>
Created by potrace 1.15, written by Peter Selinger 2001-2017
</metadata>
<g transform="translate(0.000000,2850.000000) scale(0.500000,-0.500000)"
fill="#000000" stroke="none">
<path d="M958 3810 c-1 -2 -2 -9 -2 -19 0 -12 -1 -17 -2 -17 -4 0 10 -4 14 -4
6 0 29 4 25 4 -4 0 -4 1 -3 16 0 11 0 16 -2 16 -1 0 -2 1 -1 2 3 4 -24 6 -29
2z"/>
<path d="M1071 3809 c-17 -6 -25 -25 -21 -46 1 -6 2 -12 1 -13 0 -2 -1 -5 -2
-8 -3 -14 -17 -20 -38 -15 -8 2 -17 4 -20 4 -3 0 -10 1 -15 2 -13 2 -32 -8
-41 -21 -5 -7 -6 -10 -6 -23 0 -8 -1 -15 -1 -15 -1 0 -4 -3 -7 -7 -3 -5 -5 -7
-5 -7 0 3 -17 -5 -24 -10 -4 -3 -11 -11 -17 -18 -16 -18 -22 -22 -37 -23 -16
-1 -45 -9 -63 -18 -27 -13 -27 -14 -27 -86 0 -47 1 -58 3 -64 4 -9 14 -21 18
-21 2 0 3 -1 3 -2 0 -1 4 -1 9 -2 19 -1 32 11 61 58 10 15 15 20 24 20 12 0
14 -5 13 -27 -1 -22 1 -32 8 -39 8 -7 18 -12 23 -12 5 0 19 -12 19 -16 0 -2 1
-6 2 -9 l3 -7 15 0 c10 0 15 1 15 3 0 1 1 -2 2 -6 l1 -8 1 10 c0 11 5 20 16
32 4 3 8 9 10 12 8 12 25 16 36 10 3 -2 8 -7 11 -11 3 -5 9 -10 12 -12 8 -5
25 -5 36 -1 13 5 27 4 33 -2 6 -6 6 -20 0 -29 -12 -16 -47 -28 -57 -20 -2 2
-9 3 -18 3 -14 0 -16 -1 -32 -9 -28 -15 -39 -27 -42 -49 -3 -19 -10 -25 -27
-26 -20 0 -29 9 -29 30 -1 24 -7 36 -22 42 -7 3 -20 3 -105 2 -100 0 -102 -1
-102 -3 0 -1 -1 -2 -3 -2 -4 0 -14 -12 -18 -21 -3 -7 -3 -15 -2 -43 0 -19 1
-37 1 -39 7 -22 7 -37 0 -61 -7 -27 4 -59 25 -73 15 -10 24 -11 63 -11 43 1
46 3 56 24 4 7 7 14 7 16 0 8 13 12 20 5 5 -5 3 -11 -7 -32 l-8 -16 0 -31 c1
-16 0 -30 0 -30 -1 0 -4 -5 -7 -10 -3 -6 -5 -10 -5 -9 0 2 -8 -8 -9 -12 0 -1
-2 -5 -3 -8 -1 -3 -3 -10 -4 -16 -2 -14 -8 -19 -25 -19 -6 0 -14 1 -16 2 -5 2
-26 -3 -31 -7 -10 -9 -14 -26 -8 -38 6 -12 17 -18 39 -20 11 -2 17 -8 17 -18
0 -10 -6 -16 -17 -18 -25 -3 -31 -6 -31 -18 0 -5 1 -12 3 -17 5 -11 18 -14 57
-14 l29 1 6 -6 c8 -8 8 -14 0 -22 l-6 -6 -30 0 c-32 0 -41 -1 -41 -3 0 -1 -1
-2 -3 -2 -6 0 -16 -14 -17 -24 -1 -9 -1 -11 5 -19 6 -8 20 -21 23 -21 3 0 8
-14 8 -23 0 -11 -5 -22 -10 -24 -5 -2 -21 -18 -25 -26 -5 -11 -6 -29 -2 -39 4
-10 14 -22 18 -22 2 0 3 -1 3 -2 0 -2 9 -3 29 -3 30 0 42 9 51 38 6 21 7 22
13 26 6 4 26 5 33 1 12 -6 15 -28 5 -43 -3 -5 -5 -10 -5 -10 0 -1 -1 -3 -3 -5
-3 -3 -13 -32 -13 -37 0 -5 -9 -13 -18 -15 -7 -2 -12 -1 -33 4 -22 6 -26 6
-47 5 -27 -1 -28 -1 -28 -3 0 -1 -1 -2 -3 -2 -5 0 -13 -11 -15 -20 -2 -12 -2
-12 4 -21 6 -11 18 -16 41 -16 14 -1 20 -2 24 -4 6 -4 16 -19 25 -37 8 -16 18
-34 22 -39 10 -12 13 -19 11 -32 0 -7 -2 -15 -3 -17 -11 -20 -10 -58 1 -75 3
-5 16 -14 30 -21 13 -6 18 -24 11 -40 -7 -17 -43 -17 -50 -1 -1 3 -3 10 -5 15
-7 21 -21 32 -40 33 -11 0 -29 -9 -42 -21 -13 -12 -18 -15 -29 -15 -7 0 -12 2
-20 7 -6 3 -14 8 -18 9 -4 2 -10 7 -13 11 l-5 8 0 100 0 100 -5 11 c-3 6 -9
14 -13 17 -8 7 -14 16 -14 21 0 5 6 14 14 21 15 13 18 23 18 64 0 41 -2 50
-11 59 -6 5 -8 6 -17 6 -5 0 -10 1 -10 1 0 2 -11 -10 -24 -26 -10 -12 -14 -13
-33 -12 -2 0 -6 3 -9 6 -5 5 -6 7 -6 18 0 7 2 17 4 24 6 18 6 21 4 41 -4 28
-2 30 40 36 41 7 55 18 60 47 5 33 -1 52 -23 65 -20 13 -20 33 0 46 11 6 17
15 22 26 3 7 3 17 3 73 -1 62 -1 65 -5 74 -5 10 -11 16 -19 20 -8 4 -29 10
-30 8 -1 -2 -24 -2 -24 0 0 1 -2 1 -3 1 -2 0 -36 0 -76 1 l-71 0 -6 6 c-4 3
-5 6 -4 8 2 4 26 123 27 136 1 12 -4 32 -7 32 -1 0 -2 2 -3 4 -1 2 -9 11 -18
20 -17 18 -19 20 -27 24 -20 10 -18 36 3 36 4 0 7 -1 8 -2 0 -1 7 0 15 1 17 3
23 8 31 25 3 6 9 14 12 19 9 9 17 27 18 39 1 5 3 11 6 14 5 5 6 5 41 6 24 1
39 3 47 5 16 4 34 4 54 -1 10 -2 17 -3 21 -2 3 1 5 1 6 1 2 0 9 6 11 10 4 7 2
25 -3 35 -7 13 -5 23 6 45 5 10 10 22 11 27 3 20 -8 37 -30 46 -17 7 -21 11
-21 23 0 6 1 11 3 13 4 5 6 6 24 12 6 2 9 4 8 4 -2 0 -3 5 -3 17 l0 16 -10 3
c-7 1 -36 2 -90 2 -100 0 -95 1 -96 -27 -1 -12 -1 -13 4 -15 9 -4 15 -15 13
-27 -2 -23 -15 -43 -27 -43 -13 0 -33 -8 -46 -18 -16 -12 -26 -13 -34 -5 -8 8
-5 22 9 35 4 4 9 10 11 13 3 7 8 24 6 26 0 0 -3 7 -5 15 -10 28 -19 37 -35 37
-6 -1 -12 -1 -13 -1 -2 0 -11 -15 -14 -25 -1 -2 -1 -13 -1 -25 0 -37 -5 -46
-25 -46 -20 0 -25 9 -25 46 0 21 0 21 -7 28 -8 10 -18 15 -39 20 -10 3 -20 6
-23 7 -8 4 -31 6 -40 3 -13 -4 -22 -20 -21 -39 0 -10 -5 -17 -13 -17 -8 0 -13
7 -13 17 1 27 -15 43 -39 40 -5 -1 -11 -1 -12 -1 -2 -1 -3 -1 -3 -2 0 -1 -1
-2 -3 -2 -4 0 -14 -12 -18 -21 -5 -11 -5 -191 0 -202 4 -9 14 -21 18 -21 2 0
3 -1 3 -2 0 -2 2 -2 71 -3 l66 -1 6 -6 c3 -3 6 -7 5 -8 -1 -5 5 -15 11 -19 6
-4 24 -5 30 -2 8 4 25 1 30 -6 8 -8 7 -27 -1 -35 -3 -3 -7 -6 -9 -6 -12 -1
-21 1 -25 4 -4 3 -9 4 -19 4 -18 0 -22 -2 -22 -12 1 -4 1 -7 1 -8 0 -1 0 -2 0
-2 0 -1 1 -2 2 -2 1 0 2 -2 2 -4 0 -2 5 -8 11 -14 15 -14 17 -17 17 -29 0 -14
-3 -17 -24 -28 -15 -8 -20 -11 -24 -19 -7 -10 -7 -11 -19 -78 -15 -84 -30
-146 -45 -199 -5 -16 -4 -27 5 -41 6 -11 8 -12 35 -25 12 -6 17 -11 19 -21 1
-4 1 -6 -3 -7 -2 -1 -4 -2 -4 -3 0 -1 -3 -2 -8 -2 -7 0 -23 9 -31 17 -5 4 -22
4 -30 -1 -9 -6 -14 -14 -20 -33 -7 -23 -15 -43 -19 -47 -6 -8 1 -31 11 -40 14
-12 17 -25 8 -34 -4 -4 -6 -4 -18 -3 -27 3 -40 -4 -51 -23 -6 -11 -7 -15 -7
-27 1 -13 2 -17 15 -48 8 -19 16 -36 18 -38 7 -8 16 -10 38 -8 19 1 19 1 24
-4 4 -4 4 -6 3 -17 0 -7 -2 -16 -4 -19 -2 -5 -12 -11 -18 -12 -3 0 -11 -19
-12 -30 -1 -12 3 -35 15 -72 1 -3 2 -10 3 -14 1 -6 4 -11 8 -15 6 -7 6 -7 22
-6 15 0 15 0 17 7 1 3 2 4 2 3 0 -2 1 -4 2 -4 0 0 3 -3 5 -6 3 -5 3 -16 3
-114 0 -63 1 -112 2 -116 l2 -7 16 1 c12 0 17 0 18 -2 2 -2 2 -2 2 1 0 5 6 15
11 19 10 9 25 2 25 -11 0 -3 -3 -11 -6 -17 -4 -6 -10 -17 -14 -24 -6 -11 -12
-19 -16 -19 -5 -1 -26 -13 -30 -17 -9 -9 -10 -18 -10 -66 0 -37 1 -47 3 -53 4
-9 14 -21 18 -21 2 0 3 -1 3 -2 0 -2 10 -3 60 -3 55 0 73 2 95 13 11 5 33 23
33 27 0 1 3 4 7 8 12 13 15 23 14 59 l0 31 6 6 c4 3 8 6 10 7 13 2 19 9 23 25
2 6 4 11 5 11 1 1 0 2 -2 2 -3 0 -3 1 -2 7 0 3 1 18 1 32 0 15 1 27 2 28 3 2
1 26 -2 27 -1 0 -2 1 -2 2 0 2 -5 7 -11 13 l-11 10 0 29 c1 28 1 29 -4 39 -8
15 -12 32 -12 55 0 34 -7 44 -42 56 -17 6 -66 37 -70 44 -5 8 -5 17 0 22 4 4
6 4 19 3 17 -1 33 2 41 10 3 2 9 6 13 9 24 14 30 19 35 32 4 8 4 15 4 133 -1
69 0 125 0 125 3 0 10 15 10 22 1 4 1 8 2 9 2 3 3 19 1 20 -3 1 -4 23 -1 29 3
9 10 13 23 13 13 0 20 -4 23 -13 3 -6 1 -29 -2 -30 -1 0 -2 -1 -2 -3 0 -1 -3
-6 -6 -11 -13 -18 -12 2 -12 -274 0 -271 0 -260 10 -269 7 -6 25 -11 39 -11
14 0 36 -5 42 -9 5 -3 15 -22 15 -28 0 -1 -2 -3 -5 -5 -6 -2 -11 -3 -47 -5
-12 0 -21 -5 -22 -12 -2 -16 -1 -29 2 -30 5 -3 36 -39 40 -48 3 -8 5 -15 6
-22 0 -2 4 -6 8 -11 9 -9 18 -12 37 -13 7 0 19 -3 29 -7 17 -6 39 -13 52 -15
20 -3 22 -3 33 0 6 2 17 4 23 4 12 0 13 0 16 -5 2 -5 2 -6 -1 -11 -4 -5 -23
-11 -35 -11 -4 0 -9 -1 -12 -3 -3 -2 -6 -3 -8 -4 -6 -3 -16 -16 -18 -24 -2 -6
-2 -12 0 -24 1 -9 3 -19 3 -23 1 -4 4 -12 7 -18 10 -20 26 -25 66 -18 12 2 25
5 30 5 37 5 103 17 107 20 10 5 12 8 14 27 1 9 1 11 -8 21 -10 14 -19 32 -19
41 0 3 2 7 5 10 4 4 6 4 22 3 41 -2 51 -12 43 -43 -4 -14 -5 -26 -2 -29 1 -1
2 -3 2 -4 0 -8 11 -13 24 -10 12 2 23 28 18 42 -1 3 -1 6 1 8 1 2 3 6 3 9 1 8
10 13 24 13 14 0 22 -5 25 -14 3 -10 8 -22 12 -28 4 -8 19 -15 28 -15 6 0 57
8 77 12 24 5 40 2 37 -7 -1 -2 -2 -10 -2 -18 0 -15 2 -18 21 -29 20 -12 58
-36 61 -39 1 -1 7 -6 14 -10 13 -8 14 -9 46 -33 20 -15 24 -18 32 -25 11 -9
28 -12 42 -5 8 4 29 21 58 47 35 31 33 30 34 39 0 5 1 12 2 16 1 6 1 8 -3 10
-2 1 -4 1 -5 1 0 -1 -2 2 -4 6 -3 7 -3 8 0 11 3 2 4 2 10 -1 4 -1 7 -4 7 -4
-1 -8 -1 -8 18 -6 l18 3 14 14 c7 8 15 14 17 14 7 0 13 -5 20 -17 13 -23 29
-46 35 -49 3 -3 10 -4 17 -4 13 0 14 1 34 26 10 13 22 20 35 21 19 1 20 -12 5
-42 -20 -40 -20 -41 -10 -62 7 -14 16 -18 45 -23 18 -3 39 -2 50 2 11 4 24 15
24 19 0 2 1 3 2 3 1 0 3 4 4 10 1 5 3 12 4 17 3 11 11 19 20 19 13 1 16 0 23
-7 15 -14 16 -15 30 -16 l13 -1 10 9 c12 12 15 18 24 53 4 16 9 34 12 39 3 9
10 34 10 41 1 1 2 2 4 1 2 -1 2 0 1 2 0 2 0 3 1 4 1 1 2 0 2 -1 1 -1 2 0 3 1
2 2 1 3 -8 2 -9 -1 -11 -2 -17 -8 -10 -9 -16 -9 -39 -1 -9 4 -12 12 -14 41 -2
23 0 37 7 43 l6 6 23 -1 c24 -1 31 0 43 9 30 21 43 41 37 56 -7 17 -17 22 -43
22 -13 0 -14 0 -19 7 -3 3 -5 7 -5 9 0 1 -3 9 -6 17 -6 14 -8 17 -30 36 -13
11 -31 28 -40 38 l-16 17 -11 0 c-14 0 -20 -3 -25 -13 -5 -11 -5 -39 1 -53 12
-25 12 -30 5 -47 -7 -17 -8 -29 -2 -43 11 -28 4 -60 -13 -60 -10 0 -18 5 -24
17 -7 11 -20 50 -24 70 -4 19 -6 27 -10 36 -5 12 -4 11 -17 26 -19 21 -20 22
-40 21 -10 -1 -13 -2 -16 -5 -10 -13 -36 -13 -46 -2 -6 7 -9 21 -5 31 2 7 4
10 12 16 13 9 28 25 37 37 6 8 9 11 21 15 7 3 18 8 24 11 19 9 32 10 44 3 9
-6 28 -7 36 -3 8 4 11 9 20 30 4 10 9 21 10 25 4 8 33 80 34 83 0 1 1 5 3 8
11 28 39 113 54 163 12 40 14 56 8 64 -2 2 -4 4 -4 3 0 -1 -1 -1 -2 0 -2 5
-15 6 -27 4 -26 -6 -40 4 -40 26 0 14 4 20 20 34 33 28 40 37 43 49 3 15 1 30
-5 44 -10 21 -16 25 -49 30 -12 2 -23 5 -24 5 0 0 -4 -1 -10 -2 -12 -3 -24
-11 -31 -21 -8 -10 -15 -14 -27 -14 -9 0 -11 1 -18 8 -8 8 -6 7 -36 6 -5 0
-11 -13 -10 -24 0 -6 2 -14 9 -27 11 -23 11 -26 0 -36 l-8 -8 -5 5 c-7 8 -8
11 -8 26 0 22 -5 33 -23 52 -14 13 -15 15 -15 23 0 8 1 10 12 22 17 18 20 27
20 54 0 12 -1 22 -1 23 -1 1 2 4 5 8 l6 6 35 1 c31 0 40 1 45 3 1 0 2 0 2 0 2
0 3 6 5 22 1 6 2 12 2 13 1 0 0 1 -1 1 -1 0 -3 2 -4 4 -2 4 3 14 7 14 3 0 16
-6 20 -9 11 -8 14 -10 18 -10 2 0 7 -2 10 -3 3 -1 6 -3 7 -3 4 -1 12 -7 18
-14 10 -11 21 -17 36 -18 16 -2 29 4 45 20 l11 12 -1 18 c0 10 -2 21 -4 25 -4
11 -2 18 10 24 23 12 33 39 23 60 -4 8 -10 11 -24 12 -5 0 -9 1 -10 2 -1 1 -2
1 -2 -1 -1 -2 -7 -7 -13 -10 -7 -3 -15 -8 -19 -10 -6 -5 -20 -19 -20 -21 0 -3
-15 -9 -23 -9 -24 -1 -35 17 -27 44 5 17 5 32 -1 37 -7 6 -26 4 -37 -4 -11 -8
-24 -9 -31 -2 -7 7 -9 27 -3 34 2 2 5 4 6 4 24 3 30 4 34 6 2 1 8 3 13 5 10 3
36 15 53 24 10 5 16 13 24 31 8 19 9 20 37 20 12 0 23 1 23 2 0 1 1 2 3 2 5 0
15 21 15 31 0 11 -18 71 -26 85 -4 8 -23 28 -26 28 -1 0 -3 2 -5 6 -3 4 -4 9
-4 28 l0 23 -11 22 c-13 27 -22 43 -25 43 -2 0 -3 1 -3 2 0 1 -4 3 -9 6 -28
12 -57 16 -75 8 -6 -2 -19 -7 -29 -10 -29 -11 -35 -17 -40 -45 -4 -21 -11 -26
-25 -17 -6 3 -26 25 -33 34 -6 9 -4 24 5 43 16 34 16 64 1 83 -12 14 -13 14
-125 14 l-99 0 -10 -5 c-14 -7 -17 -11 -18 -22 -2 -11 2 -20 16 -35 13 -14 14
-36 1 -46 -11 -9 -26 -23 -25 -25 1 0 1 -1 0 -1 -1 0 -6 -8 -11 -17 -6 -12 -9
-16 -10 -14 -1 4 -8 11 -11 11 -2 0 -3 1 -3 2 0 2 -11 3 -75 3 l-64 0 -6 6 -6
6 1 22 c0 12 -1 25 -2 29 -2 6 -14 23 -14 19 0 0 -2 0 -4 1 -4 2 -12 4 -27 6
-12 1 -21 8 -21 16 0 2 -3 11 -7 19 -6 13 -8 15 -17 20 -12 6 -30 7 -43 2z
m475 -60 c7 -8 5 -22 -8 -46 -11 -23 -16 -27 -32 -28 -19 0 -29 9 -29 28 0 11
4 20 10 25 33 26 49 32 59 21z m-456 -62 c14 -7 14 -41 0 -48 -3 -2 -12 -3
-18 -4 -33 -2 -43 -9 -50 -35 -6 -21 -9 -25 -21 -25 -13 0 -17 6 -23 34 -9 45
-5 56 25 58 19 1 31 6 44 14 17 11 29 13 43 6z m712 -69 c5 -6 5 -12 0 -18
-11 -12 -29 5 -18 18 4 5 13 5 18 0z m-405 -20 c2 -2 10 -7 17 -11 15 -8 18
-11 18 -23 0 -12 -3 -15 -16 -22 -15 -7 -24 -15 -24 -21 0 -4 -1 -4 -2 1 -1 3
-3 9 -5 13 -6 12 -6 47 1 59 2 5 4 11 4 13 0 3 1 3 1 -1 1 -2 3 -6 6 -8z
m-142 -22 c13 -5 19 -12 19 -22 0 -19 -21 -24 -58 -12 -14 5 -18 10 -18 22 0
22 19 26 57 12z m496 -16 c9 -8 18 -33 17 -48 -1 -17 -21 -24 -40 -14 -10 6
-27 7 -34 2 -5 -4 -4 -15 3 -37 10 -36 19 -66 20 -70 4 -17 6 -25 7 -25 1 0 0
-2 -3 -5 -5 -6 -6 -6 -29 -7 l-23 -1 -6 6 -6 6 1 87 1 87 5 11 c3 6 6 9 6 8 0
-2 1 -4 2 -4 1 0 3 -1 4 -1 1 0 2 -1 3 -1 3 -3 18 -2 22 1 5 3 23 10 30 11 7
2 14 -1 20 -6z m-1432 -42 c4 -6 4 -24 -1 -30 -7 -9 -27 -9 -34 0 -5 6 -5 24
0 30 7 9 27 9 35 0z m1245 -18 c1 0 5 -3 8 -6 5 -5 6 -7 6 -18 0 -11 -1 -13
-6 -18 -6 -6 -7 -6 -18 -6 -11 0 -12 0 -18 6 -5 5 -6 7 -6 17 0 14 3 20 12 24
5 2 8 2 22 1z m-417 -5 c4 -4 5 -7 5 -15 0 -14 -6 -20 -20 -20 -14 0 -20 6
-20 20 0 14 6 20 20 20 8 0 11 -1 15 -5z m324 -27 c16 -7 16 -43 -1 -50 -15
-6 -34 -2 -39 9 -4 8 -4 24 0 32 5 12 23 15 40 9z m-177 -15 c2 -3 6 -10 8
-14 8 -17 24 -27 41 -24 6 1 11 2 12 1 0 0 1 1 1 2 0 1 1 2 3 2 3 0 11 7 13
12 2 5 2 5 2 1 0 -3 1 -5 2 -6 4 -2 6 -16 8 -38 l1 -22 -6 -5 -6 -6 -78 0 -78
-1 -6 6 c-6 6 -6 7 -6 24 0 17 0 18 6 24 5 5 7 6 15 5 5 0 12 1 17 3 9 3 21
14 21 18 0 1 3 7 7 13 9 14 15 15 23 5z m255 -53 c4 -2 7 -5 7 -6 0 -1 2 -4 4
-6 6 -8 7 -9 12 -19 3 -5 6 -13 7 -16 0 -3 2 -9 4 -14 2 -4 3 -9 3 -10 0 -2 1
-4 3 -6 10 -11 19 -25 19 -30 0 -8 -3 -12 -14 -16 -8 -3 -9 -2 -11 1 -2 1 -3
2 -3 1 0 -1 -1 0 -3 2 -2 1 -4 3 -5 3 -2 1 -5 12 -6 23 -1 2 -2 3 -4 4 -2 1
-4 2 -4 3 0 1 -5 4 -11 7 -18 10 -18 9 -18 44 0 27 0 30 4 34 5 6 8 6 16 1z
m-250 -104 c3 -3 5 -7 5 -12 0 -6 -2 -9 -22 -28 -26 -25 -29 -31 -29 -62 0
-22 -3 -28 -13 -28 -6 0 -20 7 -27 14 -3 2 -6 4 -7 4 -1 0 -2 1 -2 2 0 1 -3 3
-6 4 -4 2 -9 6 -10 9 -4 6 -4 6 3 15 8 8 8 11 5 25 -3 9 -13 20 -16 16 0 -1
-14 -2 -30 -2 -29 0 -30 0 -35 5 -7 6 -7 16 0 22 4 4 7 4 41 5 l36 1 15 -6
c19 -8 23 -9 30 -8 6 0 22 10 30 17 12 11 25 14 32 7z m-426 -8 c11 -10 3 -28
-11 -28 -9 0 -16 6 -16 16 0 14 17 22 27 12z m-578 -23 c6 -6 7 -17 2 -25 -4
-6 -26 -14 -47 -15 -14 -2 -20 3 -20 14 0 10 7 16 33 27 13 6 26 5 32 -1z
m1274 -2 c3 -3 5 -8 6 -16 1 -7 3 -14 5 -16 2 -2 8 -13 13 -23 5 -10 12 -22
16 -26 9 -9 19 -18 21 -18 3 0 8 -12 8 -22 0 -21 -11 -31 -32 -31 -11 1 -18 4
-36 18 -17 13 -21 17 -27 31 -13 27 -28 30 -70 15 -14 -5 -28 -9 -31 -9 -7 0
-11 6 -14 22 -1 7 -4 17 -5 23 -4 13 -4 18 1 23 6 6 13 5 43 -5 24 -8 28 -8
42 -5 11 3 20 12 23 24 4 13 13 20 24 20 6 -1 10 -2 13 -5z m-1235 -70 c5 -5
6 -16 0 -22 -10 -11 -28 -3 -28 11 0 16 16 22 28 11z m718 -21 c5 -6 5 -12 0
-18 -7 -8 -22 -2 -22 9 0 11 15 17 22 9z m313 -49 c3 -2 11 -7 16 -11 6 -4 15
-9 21 -11 31 -10 34 -12 34 -26 0 -11 -2 -14 -22 -28 -9 -7 -20 -25 -20 -35 0
-7 -4 -16 -10 -22 -3 -4 -4 -4 -6 -1 -1 1 -6 5 -11 7 -4 2 -14 9 -21 15 -12
10 -26 17 -26 13 0 0 -2 2 -5 7 -3 4 -6 7 -7 7 0 0 -1 5 -1 11 0 5 -2 19 -3
30 -3 19 -3 21 1 25 5 7 17 13 32 18 16 4 20 5 28 1z m-119 -8 c3 -3 4 -7 4
-14 0 -13 -6 -19 -19 -19 -13 0 -19 6 -19 19 0 7 1 11 4 14 7 8 23 8 30 0z
m-172 -27 c-1 -7 4 -23 13 -39 l9 -16 1 -32 c1 -33 -1 -42 -9 -51 -12 -13 -19
-55 -11 -73 3 -7 12 -16 15 -14 1 1 2 0 2 -1 0 -1 4 -2 9 -3 5 -1 9 -2 9 -4 0
-1 1 -1 2 1 3 5 16 -2 16 -10 0 -8 -13 -15 -16 -10 -1 2 -2 2 -2 1 0 -2 -4 -3
-9 -4 -5 -1 -9 -2 -9 -3 0 -1 -2 -2 -5 -2 -4 0 -4 0 -3 -14 2 -15 6 -22 19
-27 12 -5 17 -11 17 -23 0 -12 -5 -18 -17 -23 l-7 -3 0 -18 1 -19 11 -3 c15
-5 21 -11 21 -24 0 -8 -1 -11 -6 -16 -3 -3 -7 -6 -9 -6 -4 0 -22 -9 -28 -14
-4 -3 -4 -5 -4 -16 1 -12 1 -14 8 -20 5 -5 8 -10 8 -12 0 -2 1 -4 3 -5 1 0 1
-1 0 -2 -1 -1 -3 -4 -4 -6 -1 -3 -5 -8 -9 -12 -7 -8 -9 -11 -14 -24 -2 -6 -3
-104 0 -106 1 0 2 -5 3 -10 0 -6 2 -13 2 -16 1 -3 -1 -16 -3 -28 -3 -16 -4
-31 -4 -52 l0 -29 -6 -7 c-3 -4 -6 -6 -7 -6 -1 1 -15 -5 -17 -7 -1 -1 -7 -5
-15 -11 -11 -7 -16 -9 -22 -9 -13 -1 -16 1 -25 14 -5 6 -9 11 -10 12 -2 2 -1
8 2 8 7 0 12 2 17 5 4 3 15 4 20 3 2 -1 15 2 18 4 1 0 2 1 3 1 8 1 17 12 19
23 2 12 -4 28 -17 45 -10 13 -18 36 -18 52 0 13 3 17 18 29 4 3 10 11 13 16
l5 11 0 134 c0 151 1 142 -17 161 -16 17 -16 20 -1 37 18 20 18 20 18 96 0 60
0 68 -4 83 -6 24 -6 27 0 69 1 8 2 18 1 22 0 4 0 7 1 7 0 0 4 2 7 6 l6 5 6 -6
c3 -3 6 -8 5 -9z m432 -2 c5 -6 5 -12 0 -18 -7 -8 -22 -2 -22 9 0 11 15 17 22
9z m-905 -26 c8 -9 8 -24 -1 -32 -5 -6 -7 -7 -16 -7 -15 0 -23 8 -23 23 0 15
7 22 23 22 10 0 12 -1 17 -6z m-165 -28 c1 0 5 -3 8 -6 5 -5 6 -7 6 -18 0 -11
-1 -13 -6 -18 -6 -6 -7 -6 -18 -6 -11 0 -12 0 -18 6 -5 5 -6 7 -6 17 0 14 3
20 12 24 5 2 8 2 22 1z m758 -20 c1 0 5 -3 8 -6 5 -5 6 -7 6 -18 0 -11 -1 -13
-6 -18 -6 -6 -7 -6 -18 -6 -11 0 -12 0 -18 6 -5 5 -6 7 -6 17 0 14 3 20 12 24
5 2 8 2 22 1z m295 -31 c5 -8 0 -24 -12 -36 -9 -8 -14 -9 -23 -4 -17 9 -3 39
20 44 10 1 12 1 15 -4z m-214 -2 c3 -3 3 -3 0 -6 -4 -5 -11 1 -7 6 4 4 4 4 7
0z m-737 -17 c5 -6 5 -12 0 -18 -7 -8 -22 -2 -22 9 0 11 15 17 22 9z m394 0
c5 -6 5 -12 0 -18 -7 -8 -22 -2 -22 9 0 11 15 17 22 9z m65 -5 c3 -3 3 -3 0
-6 -4 -5 -11 1 -7 6 4 4 4 4 7 0z m-734 -51 c8 -8 8 -24 -1 -32 -8 -9 -23 -9
-32 -1 -6 6 -10 18 -8 25 6 16 29 20 41 8z m1252 -3 c16 -8 15 -42 -1 -49 -15
-6 -34 -2 -39 9 -6 11 -4 31 6 43 3 3 26 2 34 -3z m268 -13 c4 -6 4 -24 -1
-30 -7 -9 -27 -9 -34 0 -5 6 -5 24 0 30 7 9 27 9 35 0z m-390 -51 c11 -22 11
-46 1 -60 -3 -3 -4 -3 -6 -1 -4 4 -10 5 -41 5 l-28 0 -6 6 -6 6 1 18 c1 25 4
27 26 27 8 0 18 -1 21 -2 6 -2 31 5 31 8 0 4 2 2 7 -7z m299 -9 c4 -5 4 -6 -1
-10 -5 -5 -6 -5 -11 -1 -5 5 -5 8 -1 15 4 7 8 6 13 -4z m-1486 -33 c2 -2 8 -9
12 -16 10 -13 15 -19 20 -19 2 0 7 -2 10 -4 4 -2 8 -3 10 -3 2 0 3 -1 4 -4 0
-4 -3 -8 -9 -14 -14 -13 -19 -12 -35 3 -7 7 -18 15 -24 19 -13 7 -18 13 -18
24 0 14 17 22 30 14z m107 -8 c11 -11 4 -35 -10 -35 -25 -1 -33 0 -37 4 -3 3
-4 5 -2 7 5 5 7 8 14 17 7 11 8 12 21 12 7 0 10 -1 14 -5z m908 -68 c4 -4 5
-7 5 -15 0 -14 -6 -20 -20 -20 -14 0 -20 6 -20 20 0 14 6 20 20 20 8 0 11 -1
15 -5z m-1075 -27 c5 -6 5 -12 0 -18 -7 -8 -22 -2 -22 9 0 11 15 17 22 9z
m1290 -8 c9 0 14 1 14 2 1 2 7 3 15 4 12 0 13 0 19 -6 5 -5 6 -7 6 -17 0 -10
-1 -12 -6 -17 -6 -6 -7 -6 -19 -5 -32 3 -43 0 -43 -10 0 -2 -1 -1 -2 3 -7 28
-7 29 -2 45 2 4 3 6 4 4 0 -2 3 -3 14 -3z m369 -9 c12 -12 3 -31 -13 -31 -11
0 -18 7 -18 18 0 11 7 18 18 18 6 0 9 -1 13 -5z m-211 -9 c5 -5 5 -15 0 -20
-10 -8 -24 -2 -24 10 0 8 6 14 14 14 3 0 8 -2 10 -4z m-230 -23 c4 -4 4 -6 3
-16 -2 -16 -2 -28 2 -38 2 -4 3 -7 3 -5 0 2 4 2 13 2 10 -1 14 0 15 2 1 2 3 4
4 6 2 3 3 2 6 -2 10 -13 14 -52 7 -67 -4 -7 -5 -8 -12 -8 -6 0 -9 -1 -11 -3
-3 -5 -16 -12 -21 -12 -5 0 -12 7 -20 16 -7 11 -19 17 -37 21 -1 0 -5 1 -10 2
-11 1 -13 5 -7 12 2 3 6 7 9 10 3 4 7 9 8 11 2 3 4 6 5 6 7 2 9 3 12 10 3 5 4
12 4 28 0 18 1 22 4 26 5 6 17 5 23 -1z m352 -12 c10 -1 12 -3 25 -15 8 -7 18
-16 22 -20 12 -10 15 -15 15 -29 0 -10 -1 -12 -6 -17 -3 -3 -7 -6 -9 -6 -14
-1 -20 0 -25 4 -5 3 -8 4 -20 3 -16 -1 -22 -4 -28 -15 -7 -13 -13 -16 -27 -17
-22 -1 -33 16 -30 43 1 6 2 22 3 36 2 43 7 47 47 39 12 -3 27 -5 33 -6z m-529
-31 c16 -7 16 -43 -1 -50 -8 -3 -22 -3 -30 0 -6 3 -22 26 -18 28 1 0 4 5 7 10
8 15 23 19 42 12z m-200 -5 c3 -3 3 -3 0 -6 -4 -5 -11 1 -7 6 4 4 4 4 7 0z
m-844 -48 c-5 -5 -10 1 -7 7 l2 4 4 -4 c4 -3 4 -4 1 -7z m418 3 c10 -8 4 -28
-8 -28 -13 0 -19 18 -10 28 5 5 11 5 18 0z m729 -8 c0 5 4 -2 4 -7 0 -4 -10
-16 -19 -21 -14 -9 -29 -2 -29 12 0 12 6 16 24 16 8 0 15 0 16 1 0 1 1 0 2 -1
2 -2 2 -2 2 0z m-331 -50 c16 -7 16 -43 -1 -50 -15 -6 -34 -2 -39 9 -4 8 -4
24 0 32 5 12 23 15 40 9z m498 -1 c4 -1 10 -2 13 -1 7 2 18 -1 23 -6 4 -5 4
-21 1 -29 -3 -8 -3 -26 0 -34 4 -8 6 -9 27 -20 10 -5 19 -10 21 -12 9 -10 9
-32 0 -42 -7 -8 -25 -11 -37 -5 -10 5 -28 7 -38 4 -11 -3 -31 -18 -43 -32 -11
-14 -19 -19 -24 -16 -2 1 -4 2 -4 1 0 -1 -3 1 -6 3 -14 10 -23 12 -49 12 -23
0 -25 0 -29 4 -4 4 -6 4 -21 3 -9 -1 -17 -2 -18 -2 -2 0 -3 1 -4 3 0 2 -1 3
-1 0 0 -6 -12 -11 -21 -9 -11 2 -21 1 -24 -1 -2 -2 -3 -2 -3 -1 0 1 -3 0 -6
-2 -7 -4 -12 -17 -12 -33 0 -16 -5 -22 -20 -22 -8 0 -11 1 -15 5 -5 5 -5 6 -4
20 3 32 1 39 -16 56 -10 10 -11 11 -11 19 0 12 6 18 16 18 12 0 22 -8 33 -24
7 -10 14 -13 28 -11 15 1 17 4 17 19 l0 13 -11 10 c-11 11 -15 20 -15 32 0 7
7 16 10 14 1 -1 2 0 3 1 1 1 6 2 12 2 11 0 15 -2 27 -14 10 -10 21 -16 31 -18
10 -2 10 -1 12 21 1 10 0 14 -2 17 -7 11 -1 26 11 26 6 0 19 -6 22 -10 1 -1 6
-5 12 -9 16 -11 20 -17 20 -28 0 -11 -1 -13 -19 -23 -15 -9 -29 -22 -29 -29 0
-2 -1 -6 -1 -9 0 -3 2 -7 4 -10 3 -2 5 -5 5 -6 0 -2 11 -8 16 -8 5 0 6 -4 1
-8 -3 -4 -3 -4 7 -4 10 0 12 1 17 6 3 4 8 6 14 7 4 1 11 3 15 5 7 4 22 19 22
22 0 1 2 5 5 9 3 3 5 7 5 8 0 2 3 11 8 21 l7 19 -1 29 c-2 24 -1 31 1 39 2 5
5 9 5 9 1 0 2 2 2 4 0 2 1 2 2 1 0 -1 5 -3 9 -4z m-295 -20 c6 -3 7 -6 11 -20
3 -16 2 -20 -8 -26 -17 -10 -39 -6 -45 7 -4 9 -3 24 1 31 6 12 26 16 41 8z
m-629 -44 c12 -12 3 -31 -13 -31 -11 0 -18 7 -18 18 0 11 7 18 18 18 6 0 9 -1
13 -5z m-247 -53 c5 -6 5 -8 -1 -14 -7 -8 -36 -24 -46 -25 -11 -1 -16 11 -9
20 4 5 42 23 50 23 1 0 4 -2 6 -4z m658 -68 c3 -1 7 -5 10 -8 l6 -6 -8 -1 c-4
-1 -8 -2 -10 -2 -10 -3 -18 1 -18 9 0 10 10 13 20 8z m-364 -33 c10 -9 2 -27
-12 -27 -9 0 -14 5 -20 16 -4 8 -4 9 -1 12 6 7 25 6 33 -1z m-256 3 c1 0 5 -3
8 -6 5 -5 6 -7 6 -18 0 -11 -1 -13 -6 -18 -6 -6 -7 -6 -18 -6 -11 0 -12 0 -18
6 -5 5 -6 7 -6 17 0 14 3 20 12 24 5 2 8 2 22 1z m1288 -39 c29 -8 32 -10 32
-26 0 -14 -3 -18 -23 -24 -31 -9 -43 -24 -45 -53 0 -9 0 -18 2 -21 16 -45 16
-45 11 -50 -3 -3 -8 -4 -13 -1 -1 1 -7 2 -13 3 -7 0 -11 2 -14 5 -2 3 -7 10
-12 15 -12 14 -13 15 -13 17 0 2 -21 24 -29 30 -9 6 -12 14 -12 29 0 15 2 17
24 32 9 6 18 14 21 17 3 4 9 11 14 17 17 21 23 22 70 10z m-381 -30 c6 -6 7
-24 1 -31 -7 -9 -27 -9 -34 0 -3 3 -4 8 -4 15 0 16 5 21 21 21 9 0 12 -1 16
-5z m118 -4 c6 -4 6 -6 6 -20 0 -14 0 -16 -6 -20 -4 -4 -7 -5 -18 -5 -11 0
-14 1 -18 5 -6 4 -6 6 -6 20 0 14 0 16 6 20 4 4 7 5 18 5 11 0 14 -1 18 -5z
m-293 -31 c5 -5 6 -7 6 -17 0 -16 -7 -23 -23 -23 -16 0 -23 7 -23 23 0 16 7
23 23 23 10 0 12 -1 17 -6z m372 -27 c8 -9 10 -25 6 -47 -3 -14 -9 -18 -25
-18 -18 0 -23 5 -25 21 -1 21 12 39 32 45 7 2 8 2 12 -1z m351 -47 c10 -9 3
-26 -10 -26 -8 0 -15 7 -15 15 0 13 16 20 25 11z m-491 -41 c4 -2 8 -8 10 -14
3 -5 8 -16 12 -23 l8 -14 15 1 c14 0 15 0 24 9 23 19 42 5 32 -22 -6 -14 -12
-23 -20 -26 -7 -3 -8 -3 -19 2 -25 12 -31 14 -41 15 -14 1 -20 4 -32 17 -18
21 -24 43 -14 53 6 6 16 7 25 2z m-979 -8 c3 -3 3 -3 0 -6 -4 -5 -11 1 -7 6 4
4 4 4 7 0z"/>
<path d="M775 3660 c-1 -2 -1 -9 -1 -18 0 -9 -1 -15 -2 -16 -1 -1 2 -2 7 -2 5
-1 10 0 12 0 1 1 1 2 0 2 -1 0 -2 6 -2 14 1 19 0 22 -7 22 -3 0 -6 -1 -7 -2z"/>
<path d="M929 3381 c-1 -3 1 -3 18 -3 l18 1 -16 0 c-9 1 -16 2 -17 3 -1 2 -2
1 -3 -1z"/>
<path d="M1873 3353 c-12 -4 -23 -18 -28 -33 -1 -4 4 -18 8 -22 5 -6 27 -5 39
1 14 7 30 6 30 -3 0 -2 1 -2 2 -1 0 2 5 3 10 3 14 1 20 4 24 12 3 6 3 7 0 18
-3 10 -12 22 -17 22 -2 0 -3 1 -3 2 0 2 -1 2 -31 3 -19 1 -28 0 -34 -2z"/>
<path d="M712 2435 c-2 -2 -4 -3 -5 -3 -1 0 -2 -3 -2 -8 0 -8 5 -20 7 -20 1 0
2 -1 2 -3 0 -2 2 -3 8 -3 4 0 9 -2 12 -4 3 -2 6 -4 8 -4 2 0 3 -5 2 -12 0 -2
-2 -5 -4 -7 -4 -4 -3 -12 2 -24 9 -21 33 -22 44 -1 4 8 5 22 2 22 -1 0 -2 1
-2 2 0 5 -8 13 -14 13 -3 0 -7 1 -9 3 -3 1 -5 1 -5 1 -1 -1 -3 1 -4 4 -1 3 -3
5 -4 5 -1 0 -2 1 -1 2 1 1 0 2 -1 2 -1 0 -2 7 -2 15 -1 10 -2 16 -4 17 -2 1
-3 2 -2 3 2 3 -26 2 -28 0z"/>
<path d="M1933 2121 c-5 -1 -9 -13 -5 -13 1 0 2 -1 1 -2 -1 -1 -1 -3 0 -4 1
-3 34 -4 37 -1 3 3 -6 19 -11 20 -4 1 -15 1 -22 0z"/>
</g>
</svg>
