<?xml version="1.0" standalone="no"?>
<!DOCTYPE svg PUBLIC "-//W3C//DTD SVG 20010904//EN"
 "http://www.w3.org/TR/2001/REC-SVG-20010904/DTD/svg10.dtd">
<svg version="1.0" xmlns="http://www.w3.org/2000/svg"
 width="1000.000000pt" height="2850.000000pt" viewBox="0 0 1000.000000 2850.000000"
 preserveAspectRatio="xMidYMid meet">
<metadata>
Created by potrace 1.15, written by Peter Selinger 2001-2017
</metadata>
<g transform="translate(0.000000,2850.000000) scale(0.500000,-0.500000)"
fill="#000000" stroke="none">
<path d="M241 3813 c-3 -1 -10 -2 -14 -3 -4 -2 -9 -3 -9 -3 -1 0 -4 -2 -6 -3
-2 -2 -5 -4 -7 -4 -4 0 -9 -34 -5 -36 4 -3 -2 -15 -14 -28 -5 -5 -11 -13 -13
-18 -4 -9 -10 -34 -9 -37 1 -1 -2 -5 -5 -8 l-6 -6 -41 0 c-42 0 -52 -1 -52 -3
0 -1 -1 -2 -3 -2 -4 0 -14 -12 -18 -21 -5 -11 -5 -197 0 -208 4 -9 14 -21 18
-21 2 0 3 -1 3 -2 0 -2 10 -3 44 -3 37 0 42 1 58 17 17 16 36 14 36 -3 0 -6
-2 -9 -13 -20 -22 -22 -21 -14 -21 -139 0 -94 0 -109 3 -115 4 -9 14 -21 18
-21 2 0 3 -1 3 -2 0 -2 1 -2 70 -4 43 -1 66 -2 69 -3 2 -2 5 -3 6 -3 1 0 6 -1
10 -2 27 -6 26 -6 38 -2 7 2 19 7 26 11 24 11 33 9 58 -15 14 -13 16 -19 14
-36 -1 -13 -7 -18 -23 -18 -7 0 -15 1 -19 3 -9 3 -30 4 -38 1 -3 -1 -9 -5 -13
-8 -18 -15 -41 -22 -52 -16 -2 1 -8 10 -12 19 -12 26 -21 31 -56 31 -19 0 -23
-1 -30 -5 -10 -5 -19 -17 -22 -32 -5 -19 -11 -22 -37 -16 -8 1 -21 3 -30 4
-17 2 -25 6 -25 14 0 3 -1 3 -2 1 -1 -1 -6 -2 -17 -2 -9 0 -17 0 -18 -1 -2 0
-3 -28 -3 -71 0 -77 -1 -74 13 -101 12 -23 12 -31 0 -54 -13 -26 -14 -28 -12
-70 1 -42 1 -38 0 -138 -1 -63 -1 -72 2 -80 4 -9 14 -21 18 -21 2 0 3 -1 3 -2
0 -3 12 -3 112 -3 l101 0 6 -6 c5 -6 6 -8 6 -20 0 -12 -1 -14 -6 -20 l-6 -6
-80 0 c-89 0 -81 1 -108 -15 -15 -9 -19 -8 -44 7 -10 6 -12 6 -21 5 -12 -2
-21 -9 -26 -22 -4 -8 -4 -14 -4 -74 0 -62 0 -67 4 -74 6 -12 16 -16 41 -17 23
-1 34 -4 40 -13 3 -6 4 -23 1 -25 -2 -1 1 -21 4 -26 1 -2 4 -6 6 -8 6 -6 23
-2 40 10 12 8 15 9 24 9 12 0 16 -2 40 -17 l13 -8 35 0 35 0 6 -6 6 -6 0 -71
c0 -39 1 -74 2 -77 1 -3 2 -7 2 -8 0 -2 0 -2 1 -2 1 1 2 0 2 -1 0 -1 6 -1 15
-1 l15 2 0 -12 0 -12 -15 2 c-9 0 -15 0 -15 -1 0 -1 -1 -2 -2 -1 -1 0 -1 0 -1
-2 0 -1 -1 -5 -2 -8 -1 -3 -2 -18 -2 -34 -1 -22 -1 -29 2 -36 4 -9 14 -21 18
-21 2 0 3 -1 3 -2 0 -3 12 -3 118 -3 106 0 118 0 118 3 0 1 1 2 3 2 4 0 14 12
18 21 3 7 3 23 3 135 l-1 127 6 6 c6 6 7 6 25 6 18 0 20 0 28 6 10 7 19 23 21
37 2 13 11 19 27 19 16 0 25 -6 27 -19 2 -14 11 -30 21 -37 l9 -6 42 0 c43 0
53 1 53 3 0 1 1 2 3 2 4 0 14 12 18 22 4 10 3 30 -1 39 -4 7 -13 13 -26 15 -8
1 -10 1 -12 -2 -1 -2 -4 -5 -7 -6 -3 -2 -8 -6 -10 -11 -2 -4 -7 -9 -11 -11
l-7 -4 -4 4 -5 5 4 9 c3 4 6 8 7 8 1 0 3 1 4 3 1 2 2 3 2 2 1 0 4 3 6 9 3 5 8
11 11 13 6 5 12 6 12 3 0 -2 1 -2 2 -1 0 1 3 3 7 4 7 2 13 8 13 15 0 6 -6 26
-8 28 -4 3 -8 12 -8 18 0 7 10 24 14 24 4 0 16 20 18 30 2 8 2 12 0 18 -3 10
-15 24 -19 24 -2 0 -3 1 -3 2 0 2 -2 2 -70 3 -53 1 -67 1 -79 -2 -19 -4 -37
-4 -55 0 -8 2 -22 3 -30 3 -11 -1 -15 0 -17 2 -1 2 -4 5 -7 7 -3 1 -4 3 -2 3
2 0 2 3 2 14 -1 12 -1 13 5 19 l6 6 105 0 c104 0 116 0 116 3 0 1 1 2 3 2 4 0
14 12 18 21 3 7 3 13 2 29 0 12 -1 23 -2 25 -5 20 -7 29 -7 39 0 6 -1 14 -2
17 -1 3 -2 8 -3 11 -3 13 -11 19 -39 28 -14 5 -27 10 -29 12 -10 9 -10 33 -1
43 7 8 24 11 38 5 4 -2 10 -4 13 -3 2 0 8 1 12 2 4 1 10 3 12 5 9 7 9 12 8
142 -1 148 -1 158 -12 165 -7 5 -26 5 -33 0 -11 -6 -21 -5 -44 7 -14 7 -30 12
-49 17 -27 7 -28 7 -67 7 l-39 -1 -6 6 c-6 6 -6 7 -5 16 1 10 10 26 12 24 1
-1 5 0 10 2 11 3 12 3 38 -4 20 -5 23 -5 54 -4 37 1 38 1 38 3 0 1 1 2 3 2 4
0 14 12 18 21 3 6 3 19 3 93 0 89 -1 95 -9 104 -4 5 -27 16 -32 16 -4 0 -11 9
-11 15 0 11 8 16 37 23 8 2 17 5 20 7 5 3 5 4 5 19 0 20 0 20 4 20 3 1 -6 3
-25 6 -16 2 -21 8 -21 23 0 10 1 12 6 17 5 5 7 6 17 6 l11 0 16 -16 c27 -27
54 -37 76 -28 11 4 12 6 12 70 0 65 0 65 -15 92 -5 8 -12 21 -15 28 -11 20
-21 25 -46 25 -18 0 -19 0 -25 6 l-6 6 1 50 c0 42 0 51 -3 58 -4 9 -14 21 -18
21 -2 0 -3 1 -3 2 0 2 -1 2 -1 2 -1 -1 -4 -1 -7 0 -3 1 -13 0 -24 -2 -19 -3
-21 -3 -41 0 -19 4 -30 4 -77 3 -58 -1 -60 -1 -60 -3 0 -1 -1 -2 -3 -2 -4 0
-14 -12 -18 -21 -3 -7 -3 -16 -3 -58 l1 -50 -6 -6 -6 -6 -50 0 -50 0 -6 6 -6
6 1 50 c0 56 -1 61 -13 73 -4 4 -7 6 -7 5 0 -1 -1 0 -3 1 -2 2 -12 3 -33 3
-16 0 -47 1 -68 2 -21 0 -42 0 -45 0z m-140 -222 c3 -3 3 -3 0 -6 -3 -3 -3 -3
-6 0 -3 2 -3 3 -1 6 4 4 4 4 7 0z m612 -32 c5 -8 1 -16 -8 -16 -9 0 -13 8 -8
16 2 3 5 5 8 5 3 0 6 -2 8 -5z m-229 -3 c5 -6 5 -12 0 -17 -11 -13 -29 3 -18
17 4 5 13 5 18 0z m-154 -35 c20 -3 19 -30 -1 -40 -11 -5 -29 -5 -36 -1 -8 5
-8 4 -4 19 5 19 15 26 31 24 2 0 6 -1 10 -2z m-121 -24 c7 -6 7 -11 1 -16 l-5
-5 -9 4 c-6 4 -8 6 -8 9 0 11 13 16 21 8z m323 -4 c11 -6 14 -27 5 -44 -6 -12
-10 -29 -8 -41 4 -32 4 -33 -3 -40 l-6 -7 -25 1 c-14 0 -37 1 -50 1 l-24 0 -6
6 c-9 9 -9 23 0 32 6 6 7 6 18 5 17 -1 34 3 43 9 11 9 14 21 12 52 -1 20 9 31
27 30 6 0 13 -2 17 -4z m-262 -29 c4 -3 2 -10 -6 -17 -8 -9 -18 -5 -24 8 -2 6
-2 6 3 10 3 3 7 4 8 4 2 -1 4 0 6 1 4 2 5 1 13 -6z m82 -70 c5 -6 5 -12 0 -18
-7 -8 -22 -2 -22 9 0 11 15 17 22 9z m-29 -100 c7 -3 12 -13 12 -25 0 -19 -9
-28 -28 -28 -19 0 -28 9 -28 28 0 17 6 24 22 28 5 1 14 -1 22 -3z m244 -68 c5
-5 6 -7 6 -16 0 -9 -1 -11 -7 -16 -5 -6 -7 -7 -16 -7 -9 0 -11 1 -16 7 -9 8
-9 23 -1 32 9 9 24 9 34 0z m-119 -2 c5 -6 5 -12 0 -18 -7 -8 -22 -2 -22 9 0
11 15 17 22 9z m193 -15 c3 -3 3 -3 0 -6 -3 -3 -3 -3 -6 0 -3 2 -3 3 -1 6 4 4
4 4 7 0z m-16 -187 c5 -5 6 -7 6 -16 0 -9 -1 -11 -7 -16 -5 -6 -7 -7 -16 -7
-9 0 -11 1 -16 7 -9 8 -9 23 -1 32 9 9 24 9 34 0z m109 -22 c5 -5 6 -7 6 -17
0 -10 -1 -12 -6 -17 -5 -5 -7 -6 -17 -6 -10 0 -12 1 -17 6 -5 5 -6 7 -6 17 0
10 1 12 6 17 5 5 7 6 17 6 10 0 12 -1 17 -6z m-517 -51 c6 -4 6 -6 7 -29 1
-15 2 -25 4 -28 9 -11 15 -13 38 -11 20 2 24 0 34 -12 9 -11 17 -19 20 -19 1
0 2 -1 2 -2 1 -1 6 -2 13 -2 10 -1 13 -2 17 -6 2 -4 6 -6 8 -6 2 0 2 -1 1 -1
-3 -2 -4 -7 -1 -7 1 0 2 -2 2 -4 0 -7 13 -15 27 -17 3 -1 7 -2 7 -4 2 -1 2 -1
2 1 0 4 8 2 9 -2 1 -2 2 -4 3 -4 3 0 2 -10 -2 -13 -1 -2 -5 -4 -8 -4 -8 -1
-26 -7 -31 -11 -2 -2 -4 -4 -5 -4 -1 0 -2 -2 -2 -5 0 -3 -1 -5 -4 -6 -2 -1 -5
-3 -7 -6 -6 -6 -16 -6 -24 2 l-6 6 1 25 c0 28 -2 39 -10 45 -7 6 -25 11 -37
11 -11 0 -16 3 -26 14 -9 9 -23 15 -39 16 -18 0 -20 3 -29 32 -9 28 -9 44 0
51 8 7 28 7 36 0z m215 -51 c13 -5 21 -16 21 -30 0 -16 -5 -23 -17 -28 -20 -7
-19 -7 -28 2 -4 5 -9 11 -9 13 -1 3 -2 5 -3 4 -3 -2 -5 12 -3 24 2 14 7 19 20
19 5 0 14 -2 19 -4z m189 -59 l6 -6 0 -39 0 -39 -6 -6 c-5 -5 -7 -6 -14 -5 -7
0 -9 0 -9 -2 0 -2 -2 0 -5 5 -3 4 -6 7 -7 7 0 0 -1 18 -1 39 l0 40 6 6 c8 9
21 9 30 0z m-435 -19 c1 0 4 -2 7 -5 4 -4 5 -7 5 -15 0 -14 -6 -20 -20 -20
-14 0 -20 6 -20 19 0 5 1 11 2 13 3 5 12 10 19 9 2 0 5 -1 7 -1z m329 -59 c4
-4 5 -7 5 -15 0 -14 -6 -20 -20 -20 -14 0 -20 6 -20 20 0 14 6 20 20 20 8 0
11 -1 15 -5z m58 -53 c1 -2 2 -4 3 -4 1 0 1 -1 1 -3 0 -2 0 -8 1 -13 1 -5 2
-18 3 -29 1 -18 1 -20 -3 -24 -7 -7 -19 -7 -26 0 -4 4 -4 6 -3 16 4 37 6 50 9
56 5 6 13 7 15 1z m-365 -78 c5 -5 5 -15 0 -20 -9 -9 -24 -2 -24 10 0 8 6 14
14 14 3 0 8 -2 10 -4z m256 -69 c14 -6 28 -12 30 -14 6 -6 6 -22 0 -28 -6 -6
-13 -6 -39 -2 -11 2 -24 4 -30 4 -18 2 -24 9 -23 30 2 25 18 28 62 10z m-25
-108 c3 -3 3 -3 0 -6 -3 -3 -3 -3 -6 0 -3 2 -3 3 -1 6 4 4 4 4 7 0z m152 -21
c4 -5 4 -6 2 -16 -2 -11 -8 -21 -11 -19 -1 1 -2 0 -3 -1 -1 -1 -6 -5 -13 -7
-6 -3 -11 -6 -12 -7 -1 -1 -3 -2 -6 -4 -5 -3 -16 -19 -16 -24 0 -6 -12 -38
-15 -41 -2 -2 -7 -4 -11 -5 -7 -2 -9 -2 -12 2 -4 5 -4 12 0 22 7 17 9 24 11
40 2 15 5 19 20 28 10 6 16 11 30 26 4 4 10 8 13 8 17 2 19 2 23 -2z m-330
-29 c4 -4 5 -7 5 -15 0 -14 -6 -20 -20 -20 -14 0 -20 6 -20 20 0 14 6 20 20
20 8 0 11 -1 15 -5z m166 -70 c7 -7 7 -23 0 -30 -5 -5 -6 -6 -21 -4 -8 1 -27
2 -41 2 -24 0 -25 0 -29 5 -6 7 -5 19 1 25 5 5 6 5 27 4 11 -1 25 0 30 1 17 3
28 2 33 -3z m308 -6 c5 -8 1 -16 -8 -16 -9 0 -13 8 -8 16 2 3 5 5 8 5 3 0 6
-2 8 -5z m-135 -1 c1 0 5 -3 8 -6 5 -5 6 -7 6 -18 0 -11 -1 -13 -6 -18 -6 -6
-7 -6 -20 -6 -15 0 -22 8 -23 24 0 11 5 19 13 23 5 2 8 2 22 1z m-324 -72 c13
-13 -6 -32 -19 -20 -10 9 -4 24 9 24 3 0 8 -2 10 -4z m140 -20 c5 -5 5 -15 0
-20 -9 -9 -24 -2 -24 10 0 8 6 14 14 14 3 0 8 -2 10 -4z m49 -84 c7 -6 7 -18
0 -24 -3 -3 -7 -4 -17 -4 -9 0 -19 -1 -30 -5 -25 -8 -29 -8 -35 -3 -6 6 -7 15
-1 21 4 4 7 5 15 5 11 0 29 4 41 10 12 5 22 5 27 0z m-63 -133 c6 -7 6 -22 -1
-28 -6 -7 -21 -7 -27 -2 -5 5 -6 27 0 32 7 6 21 5 28 -2z"/>
<path d="M1230 3809 c-9 -3 -28 -15 -28 -17 0 -2 -17 -10 -23 -11 -14 -2 -28
-9 -35 -17 -7 -10 -8 -20 -8 -50 l1 -29 -6 -6 -6 -6 -88 0 -88 0 -9 -6 c-12
-8 -18 -21 -26 -52 l-6 -23 0 -68 c0 -48 1 -71 2 -77 3 -10 9 -17 23 -27 14
-10 17 -14 17 -23 0 -9 -3 -14 -13 -20 -21 -13 -31 -30 -27 -44 2 -7 13 -23
16 -23 4 0 18 -17 18 -21 0 -4 -10 -16 -18 -22 -3 -1 -8 -7 -11 -12 -6 -9 -6
-12 -7 -36 0 -27 1 -38 9 -53 12 -24 12 -35 1 -57 -8 -15 -10 -26 -10 -59 0
-26 1 -35 3 -41 4 -9 14 -21 18 -21 2 0 3 -1 3 -2 0 0 2 -2 6 -2 5 -1 223 -1
256 0 10 0 140 0 288 -1 256 -1 270 -1 291 3 21 3 21 3 43 0 15 -3 26 -4 42
-3 25 1 26 1 26 3 0 1 1 2 3 2 4 0 14 12 18 21 5 12 4 235 -1 245 -6 13 -11
20 -15 21 -4 2 -14 14 -15 20 0 7 5 16 13 20 6 3 11 10 17 23 3 6 4 15 4 68 0
85 -3 94 -26 92 -9 0 -12 0 -12 2 0 2 -3 -1 -7 -5 -10 -11 -29 -13 -37 -3 -5
6 -5 24 0 30 8 10 27 8 37 -3 6 -6 8 -7 18 -7 25 0 27 6 27 76 0 43 0 52 -3
59 -4 9 -14 21 -18 21 -2 0 -3 1 -3 2 0 3 -12 3 -112 3 l-101 0 -6 6 -6 6 0
41 c0 48 -2 57 -16 71 -15 15 -17 15 -117 14 -90 -1 -92 -1 -92 -3 0 -1 -1 -2
-3 -2 -4 0 -14 -12 -18 -21 -3 -7 -3 -16 -3 -54 l1 -46 -7 -7 c-4 -4 -7 -6 -8
-6 0 1 -3 4 -7 7 -6 6 -6 6 -5 21 0 18 -2 28 -9 35 -7 6 -27 12 -38 11 -13 0
-37 5 -42 10 -4 4 -8 13 -9 21 -1 5 -7 16 -10 20 -11 12 -33 17 -46 12z m331
-119 c7 -6 7 -19 1 -25 -6 -7 -19 -7 -25 -1 -7 6 -7 19 -1 25 6 7 19 7 25 1z
m-472 -69 c4 -4 5 -7 5 -13 0 -11 -7 -18 -18 -18 -11 0 -18 7 -18 18 0 11 7
18 18 18 6 0 9 -1 13 -5z m201 -58 l-5 -5 -4 4 -5 5 4 4 5 5 4 -4 5 -5 -4 -4z
m188 -20 c14 -5 19 -11 19 -23 0 -17 -6 -21 -47 -29 -12 -2 -19 -3 -22 -1 -3
1 -4 2 -3 2 1 0 0 1 -1 3 -1 2 -2 4 -1 4 0 1 -1 3 -3 4 -2 2 -3 6 -3 18 0 17
3 22 16 25 11 2 34 1 45 -3z m-389 -58 c7 -4 10 -11 10 -23 0 -15 -4 -21 -17
-25 -11 -4 -24 -2 -30 5 -9 8 -9 32 0 41 7 7 27 8 37 2z m681 0 c4 -2 10 -7
14 -14 9 -14 24 -25 41 -31 9 -3 13 -9 13 -21 0 -13 -6 -19 -19 -19 -10 0 -16
3 -24 11 -10 10 -29 19 -44 20 -14 1 -21 7 -25 21 -2 9 0 22 6 29 8 9 25 11
38 4z m-390 -10 c12 -5 32 -10 32 -7 0 1 2 0 4 -2 4 -3 5 -3 8 -2 2 2 2 2 2 1
-2 -2 3 -7 6 -7 1 0 2 -1 2 -2 1 -1 4 -3 8 -4 7 -2 25 -8 30 -10 2 -1 6 -6 9
-11 4 -6 8 -11 9 -12 1 -2 2 -4 2 -5 0 -3 12 -13 25 -20 16 -9 31 -33 34 -56
1 -9 1 -11 -3 -15 -9 -10 -23 -6 -45 12 -12 10 -15 15 -22 28 -9 19 -15 26
-33 38 -8 5 -14 10 -15 11 -1 2 -20 12 -24 13 -1 1 -13 3 -27 6 -27 5 -41 11
-44 17 -3 6 -3 23 2 28 7 9 20 9 40 -1z m-195 -18 c8 -8 8 -16 0 -24 -6 -6 -7
-6 -17 -5 -8 0 -12 0 -12 -2 0 -5 -11 11 -12 18 -1 6 0 8 5 13 5 5 7 6 18 6
11 0 13 -1 18 -6z m474 0 c8 -8 8 -16 0 -24 -5 -5 -7 -6 -17 -6 -10 0 -12 1
-17 6 -8 8 -8 16 0 24 5 5 7 6 17 6 10 0 12 -1 17 -6z m-522 -68 c5 -13 4 -26
-3 -33 -5 -5 -7 -6 -17 -6 -10 0 -12 1 -17 6 -5 5 -6 7 -6 17 0 13 4 19 18 25
14 5 20 3 25 -9z m518 -14 c3 -5 3 -5 0 -10 -2 -3 -5 -5 -7 -5 -2 0 -5 2 -7 5
-3 5 -3 5 0 10 2 3 5 5 7 5 2 0 5 -2 7 -5z m-266 -1 c7 -6 7 -19 1 -25 -6 -7
-19 -7 -25 -1 -7 6 -7 19 -1 25 6 7 19 7 25 1z m-160 -19 c3 -3 3 -3 0 -6 -3
-3 -3 -3 -6 0 -3 2 -3 3 -1 6 4 4 4 4 7 0z m610 -3 c6 -6 7 -17 2 -22 -8 -9
-27 -2 -27 11 0 13 16 20 25 11z m-107 -75 c20 -9 20 -46 0 -53 -3 -1 -6 -3
-8 -3 -2 0 -9 -4 -17 -7 -10 -5 -15 -9 -21 -17 -13 -19 -18 -20 -42 -13 -15 5
-22 13 -24 27 -1 7 0 9 5 14 5 5 8 6 16 6 13 0 21 2 21 3 0 1 3 3 7 5 4 1 8 5
10 8 2 3 4 6 5 7 1 1 3 5 6 9 8 14 26 20 42 14z m-307 -50 l0 -22 -6 -6 c-5
-5 -8 -6 -14 -6 -6 0 -9 1 -14 6 -7 7 -7 13 1 35 4 11 6 14 14 20 l9 6 5 -5
c5 -5 5 -6 5 -28z m-415 14 c13 -6 16 -16 16 -54 0 -26 0 -27 -5 -32 -6 -6
-17 -7 -25 -2 -7 4 -24 37 -28 52 -2 10 0 23 6 30 7 8 24 11 36 6z m527 -6 c7
-4 10 -11 10 -23 0 -20 -8 -27 -30 -27 -24 0 -37 3 -42 8 l-5 6 4 8 c4 7 16
19 27 27 9 6 27 7 36 1z m-226 -5 c7 -5 11 -13 15 -28 3 -8 6 -19 7 -25 4 -15
7 -42 6 -48 -1 -3 -3 -7 -5 -9 -3 -3 -4 -3 -9 1 -2 2 -8 6 -11 9 -4 3 -9 7
-11 10 -5 5 -6 6 -14 12 -3 3 -7 8 -9 13 -7 16 -6 55 2 64 7 7 20 7 29 1z
m-97 -5 c11 -4 12 -7 14 -27 1 -10 3 -20 4 -22 1 -2 2 -5 2 -7 0 -1 5 -8 11
-14 10 -10 11 -12 11 -20 0 -26 -11 -39 -31 -38 -20 1 -31 15 -28 36 2 15 -4
36 -13 45 -4 4 -23 13 -27 13 -2 0 -3 0 -3 1 0 1 -2 4 -5 7 -8 8 -8 18 0 26
l6 6 26 -1 c16 -1 29 -3 33 -5z m637 -1 c7 -3 12 -13 12 -25 0 -19 -9 -28 -28
-28 -19 0 -28 9 -28 28 0 17 6 24 22 28 5 1 14 -1 22 -3z m-181 -109 c16 -7
20 -37 7 -48 -12 -11 -34 -11 -43 0 -9 10 -9 32 0 42 7 8 24 11 36 6z m-306
-16 c11 -11 5 -27 -9 -27 -11 0 -16 7 -16 23 0 13 0 14 5 16 5 3 8 1 20 -12z"/>
<path d="M912 2956 c-2 -1 -4 -1 -4 -1 -1 1 -2 0 -2 -1 0 -1 -1 -2 -3 -2 -4 0
-14 -12 -18 -21 -5 -11 -5 -165 0 -176 4 -9 14 -21 18 -21 2 0 3 -1 3 -2 0 -2
8 -3 20 -3 11 0 28 9 35 18 15 17 29 17 44 0 2 -3 9 -9 15 -12 l11 -6 83 0
c94 0 88 -1 109 17 15 13 21 13 36 0 25 -22 56 -24 65 -4 4 8 6 25 3 28 -1 1
-2 6 -2 12 0 9 1 11 7 16 5 6 7 7 16 7 9 0 11 -1 16 -7 6 -5 7 -7 7 -16 0 -6
-1 -11 -2 -12 -3 -3 -1 -20 3 -28 7 -15 -14 -14 275 -13 142 0 259 1 261 1 1
0 2 1 2 2 0 1 1 2 3 2 4 0 14 12 18 21 5 11 5 165 0 176 -4 9 -14 21 -18 21
-2 0 -3 1 -3 2 0 2 -14 2 -21 -1 -3 -1 -13 -8 -21 -16 -8 -7 -17 -13 -19 -13
-13 -1 -18 1 -35 11 -27 16 -29 17 -47 20 -23 4 -85 4 -99 0 -12 -4 -22 -13
-31 -28 -7 -11 -15 -16 -28 -16 -13 0 -21 5 -28 16 -9 15 -19 24 -31 28 -13 4
-136 4 -149 1 -14 -4 -26 -22 -28 -42 -2 -17 -9 -23 -27 -23 -18 0 -25 6 -27
23 -1 12 -8 27 -15 34 -11 12 -44 14 -75 4 -11 -4 -23 -6 -26 -6 -3 0 -15 2
-26 6 l-19 6 -86 0 c-89 0 -96 -1 -104 -9 -6 -7 -11 -29 -6 -34 2 -2 2 -3 -1
-8 -2 -3 -5 -5 -7 -5 -2 0 -5 2 -7 5 -3 5 -3 6 -1 8 4 4 0 27 -5 33 -7 7 -23
12 -29 8z m791 -141 c5 -8 1 -16 -8 -16 -9 0 -13 8 -8 16 2 3 5 5 8 5 3 0 6
-2 8 -5z"/>
<path d="M982 2706 c-3 -1 -6 -1 -7 0 0 0 -1 0 -1 -2 0 -1 -1 -2 -3 -2 -4 0
-14 -12 -18 -21 -5 -12 -5 -368 0 -380 4 -9 14 -21 18 -21 2 0 3 -1 3 -2 0 -1
1 -1 3 -2 1 0 7 0 12 -1 25 -3 45 13 51 42 3 15 10 22 21 23 13 1 17 -5 17
-24 0 -8 0 -17 1 -19 1 -6 -4 -12 -15 -20 -5 -3 -10 -7 -12 -8 -1 -2 -3 -3 -4
-3 -1 0 -2 -1 -2 -3 0 -2 -1 -3 -2 -3 -2 0 -6 -8 -7 -18 -1 -8 0 -13 10 -39 6
-16 12 -33 13 -37 2 -5 4 -8 5 -8 3 0 -10 -10 -14 -11 -2 -1 -39 -1 -81 -2
-80 -1 -82 -1 -82 -3 0 -1 -1 -2 -3 -2 -4 0 -14 -12 -18 -21 -5 -11 -5 -169 0
-180 4 -9 14 -21 18 -21 2 0 3 -1 3 -2 0 -3 13 -3 151 -3 l140 0 7 5 c13 8 21
36 16 56 -1 5 -3 11 -3 13 -2 10 -14 20 -41 35 -7 4 -25 9 -39 11 -16 2 -23
19 -12 28 4 4 7 5 41 5 43 0 57 -3 71 -15 l8 -7 0 -21 c0 -25 3 -35 11 -49 3
-6 6 -13 7 -21 2 -17 8 -30 17 -35 7 -5 8 -5 66 -5 79 1 90 1 175 0 55 -1 74
0 78 1 2 2 5 3 6 3 1 0 2 7 2 17 0 16 0 16 5 16 5 0 5 0 5 -16 0 -10 1 -17 2
-17 1 0 4 -1 6 -3 4 -1 35 -2 126 -1 l122 0 7 4 c8 6 14 15 19 31 3 12 7 16
14 16 7 0 11 -5 15 -20 2 -6 4 -10 4 -9 0 1 5 2 12 1 21 -1 28 5 25 21 -6 40
-6 41 -2 62 4 23 4 53 1 63 -4 12 -11 19 -29 29 -9 5 -20 13 -25 17 -4 4 -11
10 -16 12 -9 5 -11 5 -67 6 l-58 1 -6 6 c-3 3 -4 5 -3 5 1 0 5 5 9 12 4 7 8
13 10 15 1 1 6 8 11 16 13 18 15 31 8 45 -3 5 -8 11 -11 13 -6 4 -7 5 -8 17 0
6 1 9 4 13 7 7 12 17 14 27 1 6 3 11 6 14 4 4 6 4 13 2 21 -5 25 -6 26 -8 0
-1 6 -1 14 0 23 3 27 13 17 41 -6 17 -7 26 -4 43 4 26 2 30 -14 30 l-11 0 0 8
c-1 6 -1 6 -2 -3 l-1 -10 -11 -4 c-26 -8 -44 7 -38 33 2 11 7 16 18 18 16 4
32 -3 32 -15 0 -5 1 -5 1 -1 1 3 3 4 11 4 5 0 12 -1 15 -2 3 -1 5 -1 4 0 -1 1
0 2 1 3 6 4 7 15 7 105 1 71 1 96 -1 103 -2 6 -3 11 -4 11 -1 0 -2 2 -3 4 -1
3 -16 10 -26 11 -6 1 -15 -6 -15 -13 -1 -13 -2 -18 -3 -19 0 -1 1 -3 3 -4 10
-7 2 -25 -11 -25 -13 0 -20 18 -11 25 2 1 3 3 3 4 -1 0 -2 5 -2 11 -1 13 -3
17 -13 22 -11 5 -41 5 -53 -2 -10 -5 -18 -17 -20 -30 -1 -5 -2 -13 -2 -17 -2
-10 -21 -48 -28 -54 -7 -6 -16 -6 -21 -1 -4 4 -4 6 -3 16 1 14 2 20 6 35 7 26
2 46 -14 53 -8 4 -18 4 -335 4 -180 0 -329 -1 -332 -2z m591 -102 c3 -12 2
-47 -1 -51 -4 -7 -4 -37 -1 -47 4 -11 4 -23 0 -32 -5 -10 -7 -11 -18 -15 -10
-3 -11 -4 -28 -6 -12 -2 -26 -8 -34 -15 -10 -10 -20 -14 -34 -13 -17 1 -27 7
-33 21 -2 4 -5 9 -7 12 -8 11 -11 11 -99 11 l-81 0 -6 6 c-5 5 -6 8 -6 16 0 5
1 9 2 9 5 0 0 31 -7 39 -1 1 -2 4 -2 6 -1 2 -2 5 -4 6 -1 1 -2 6 -2 12 0 13 6
19 19 19 13 0 19 -6 19 -19 0 -7 -1 -11 -3 -12 -2 -1 -2 -3 -2 -3 1 -1 2 -6 2
-11 3 -24 6 -26 52 -26 40 0 46 2 61 16 19 18 30 18 50 0 16 -15 29 -17 47 -6
6 4 18 10 26 14 16 9 27 19 33 32 8 19 10 22 21 34 18 19 33 20 36 3z m-404
-150 c12 -5 16 -27 7 -44 -2 -4 -5 -9 -6 -9 -1 -1 -6 -7 -11 -15 -13 -20 -17
-23 -28 -21 -21 3 -37 18 -37 35 0 5 1 11 3 14 5 7 33 36 38 38 10 6 21 6 34
2z m93 -35 c8 -6 12 -18 15 -43 1 -6 2 -12 3 -14 3 -6 -1 -16 -7 -18 -6 -2
-32 4 -37 9 -12 11 -10 57 3 66 5 4 17 4 23 0z m145 -1 c10 -5 12 -13 7 -34
-3 -14 -14 -22 -29 -21 -16 1 -23 6 -27 21 -4 15 2 30 15 35 7 3 28 3 34 -1z
m253 -46 c5 -5 5 -14 1 -19 -2 -2 -8 -6 -14 -9 -5 -2 -12 -5 -15 -7 -3 -1 -10
-5 -16 -9 -13 -8 -26 -9 -33 -1 -11 10 -4 33 9 33 5 0 6 0 35 10 22 7 28 7 33
2z m111 -9 c4 -3 4 -6 -1 -11 -4 -4 -6 -5 -6 -2 1 0 0 3 -2 6 -2 3 -2 5 0 7 3
4 4 4 9 0z m-468 -44 c-3 -3 -3 -3 -9 0 -5 3 -6 4 -4 7 4 8 9 8 13 2 3 -5 3
-6 0 -9z m106 -45 l89 0 6 -5 c4 -4 5 -7 4 -9 -1 -2 -8 -19 -14 -39 -7 -20
-15 -42 -18 -49 -3 -8 -5 -14 -5 -14 1 0 -15 -17 -30 -32 -12 -12 -14 -14 -21
-14 -7 0 -9 2 -22 14 -15 15 -26 20 -42 20 -7 0 -25 9 -23 12 1 2 -14 43 -18
49 -1 2 -6 14 -11 27 -4 13 -9 25 -10 27 -1 1 -1 3 -1 3 1 0 5 3 8 6 5 5 7 6
13 5 4 -1 47 -1 95 -1z m229 -213 c19 -8 19 -35 2 -73 -13 -27 -25 -36 -47
-36 -15 0 -22 5 -25 17 -3 12 -1 20 9 36 5 8 12 22 15 30 4 9 8 18 10 20 7 8
24 11 36 6z m-187 -56 c3 -3 3 -3 0 -6 -3 -3 -3 -3 -6 0 -3 2 -3 3 -1 6 4 4 4
4 7 0z"/>
</g>
</svg>
