<?xml version="1.0" standalone="no"?>
<!DOCTYPE svg PUBLIC "-//W3C//DTD SVG 20010904//EN"
 "http://www.w3.org/TR/2001/REC-SVG-20010904/DTD/svg10.dtd">
<svg version="1.0" xmlns="http://www.w3.org/2000/svg"
 width="1100.000000pt" height="2850.000000pt" viewBox="0 0 1100.000000 2850.000000"
 preserveAspectRatio="xMidYMid meet">
<metadata>
Created by potrace 1.15, written by Peter Selinger 2001-2017
</metadata>
<g transform="translate(0.000000,2850.000000) scale(0.500000,-0.500000)"
fill="#000000" stroke="none">
<path d="M1704 3812 c-11 -5 -69 -29 -76 -31 -3 -1 -8 -3 -11 -4 -5 -2 -42
-15 -103 -34 -13 -5 -99 -29 -113 -32 -2 0 -10 -2 -18 -4 -8 -2 -20 -5 -27 -7
-21 -6 -30 -19 -30 -42 0 -21 0 -25 -2 -30 -5 -11 -25 -16 -40 -10 -7 3 -27 4
-46 2 -11 -1 -17 1 -17 7 0 3 -7 18 -9 19 0 1 -2 3 -3 5 -3 4 -16 12 -21 12
-43 -4 -59 -9 -96 -27 -33 -16 -38 -26 -38 -78 0 -41 1 -46 16 -71 6 -11 8
-16 8 -23 0 -7 -6 -23 -10 -26 -1 -1 -4 -7 -7 -14 l-6 -13 1 -83 c0 -46 1 -91
2 -100 2 -11 1 -23 0 -36 -2 -18 -2 -38 -5 -178 -1 -61 -2 -102 -4 -135 0 -11
-1 -32 -2 -46 -1 -14 -2 -31 -2 -36 -1 -13 2 -26 8 -33 5 -5 24 -15 30 -14 2
0 6 -2 8 -5 3 -5 3 -5 0 -10 -3 -3 -5 -5 -8 -4 -7 2 -28 -6 -35 -13 -8 -7 -9
-12 -13 -71 -1 -9 -1 -20 -2 -24 -1 -4 -1 -13 -2 -19 0 -6 -2 -21 -3 -32 -1
-12 -2 -24 -1 -27 1 -6 9 -18 12 -18 1 -1 6 -1 10 -2 4 -1 9 -2 11 -2 2 0 4 0
5 1 3 2 11 3 22 2 2 0 6 -3 9 -6 5 -5 6 -7 6 -18 0 -11 -1 -13 -6 -18 -3 -3
-7 -6 -9 -6 -13 -1 -20 0 -26 4 -8 5 -22 5 -33 1 -6 -3 -8 -5 -11 -14 -5 -17
1 -34 16 -47 19 -16 19 -17 19 -29 0 -13 -3 -17 -19 -24 -16 -6 -24 -12 -29
-20 -2 -3 -4 -5 -4 -3 0 2 -2 2 -8 1 -6 -1 -8 0 -10 3 -2 3 -6 6 -13 7 -1 0
-6 2 -10 3 -6 1 -9 1 -9 -1 0 -1 -1 -1 -1 -1 -1 1 -5 0 -10 -2 -51 -23 -74
-22 -81 3 -3 11 0 25 7 31 2 2 13 6 23 9 10 3 26 8 34 10 8 3 19 6 25 6 19 1
33 9 39 22 4 8 4 17 4 157 0 82 -1 152 -1 156 l-1 6 -18 0 c-16 0 -18 0 -18 4
0 1 -1 0 -2 -4 -6 -26 -7 -28 -18 -40 -9 -9 -12 -14 -16 -25 -3 -8 -5 -16 -4
-18 0 -4 -6 -10 -11 -11 -3 0 -19 9 -19 12 0 0 -5 6 -11 13 -22 23 -23 39 -2
50 13 7 28 18 39 31 6 6 12 12 13 12 1 0 4 2 5 4 7 7 17 12 25 12 3 0 3 1 1 1
-3 1 -4 3 -4 13 l1 11 1 -11 c1 -11 1 -11 2 5 0 8 -1 15 -2 15 -1 0 -1 -1 -1
-3 1 -1 0 -3 -1 -4 -2 -1 -2 -1 -1 0 1 2 -7 9 -13 11 -2 0 -99 1 -216 1 l-213
1 -21 -7 c-26 -9 -28 -9 -54 0 -19 7 -22 7 -44 7 -32 0 -42 -4 -45 -20 -4 -15
-4 -20 -3 -20 1 -1 2 -5 2 -11 0 -13 -6 -19 -19 -19 -13 0 -19 6 -19 19 0 6 1
10 2 11 1 0 1 5 -3 20 -2 8 -7 14 -14 17 -6 3 -18 3 -74 2 -69 -1 -71 -1 -71
-3 0 -1 -1 -2 -3 -2 -4 0 -14 -12 -18 -21 -2 -6 -3 -17 -3 -66 0 -65 1 -70 13
-87 17 -24 17 -32 0 -56 -12 -16 -13 -23 -13 -81 0 -55 1 -60 10 -69 6 -5 25
-13 32 -12 2 0 13 -4 23 -9 10 -5 22 -10 26 -12 21 -8 24 -12 22 -31 0 -17 -6
-22 -23 -22 -15 0 -18 1 -27 14 -15 21 -23 27 -33 27 -12 0 -21 -6 -26 -16 -4
-8 -4 -13 -4 -74 l0 -66 -6 -6 c-4 -5 -7 -6 -13 -6 -42 -1 -57 -9 -63 -31 -3
-10 -3 -9 14 -79 7 -29 8 -30 9 -38 1 -3 5 -15 8 -27 4 -11 8 -23 8 -25 1 -2
2 -8 3 -14 1 -5 1 -10 1 -11 0 -1 2 -6 5 -12 5 -10 6 -12 20 -18 20 -10 29
-10 116 0 81 10 84 11 98 36 3 4 7 9 8 9 2 1 4 2 4 3 0 5 20 -4 24 -11 1 -2 6
-4 18 -5 8 -1 16 -1 15 -1 0 1 1 7 3 14 3 10 3 14 2 20 -1 4 -2 13 -2 20 1 10
2 12 7 16 7 6 18 6 27 1 3 -2 10 -3 17 -4 11 -1 12 -1 20 7 5 4 11 12 14 17
12 17 44 25 57 14 4 -4 4 -5 2 -16 -3 -15 -6 -22 -15 -30 -7 -6 -7 -6 -28 -6
-20 0 -22 0 -30 -6 -8 -5 -8 -5 -8 -17 0 -11 1 -12 8 -18 12 -12 15 -12 84 -3
75 10 157 20 169 21 5 1 17 2 28 4 10 2 24 3 31 4 19 2 26 6 31 16 5 10 7 19
7 30 -1 9 4 14 11 14 5 0 12 -5 12 -10 0 -1 2 -8 5 -14 8 -21 19 -25 52 -21
30 4 36 2 41 -15 2 -9 10 -19 22 -28 15 -11 83 -77 94 -91 5 -7 17 -20 26 -31
l17 -19 13 0 c8 0 16 2 18 3 6 5 13 18 19 38 3 10 7 23 9 29 5 15 23 82 27
100 3 16 5 24 10 44 2 8 3 20 3 27 0 10 0 14 3 17 2 2 3 5 3 7 0 1 2 5 5 9 5
6 6 6 18 5 6 0 20 -1 30 -2 18 -1 25 -4 25 -13 0 -6 7 -31 13 -42 7 -15 7 -21
3 -33 -5 -15 -7 -28 -4 -39 3 -12 9 -16 27 -16 14 0 14 0 25 9 6 5 12 10 13
12 22 24 35 31 52 27 10 -2 16 -9 18 -20 3 -19 14 -31 29 -32 8 0 13 1 32 11
35 17 42 19 58 19 26 0 32 -7 31 -39 -1 -29 2 -36 17 -45 16 -9 25 -9 52 -2
40 11 67 20 75 26 8 5 8 5 8 17 0 14 5 21 8 11 1 -3 4 -11 7 -19 3 -8 9 -26
12 -40 8 -34 9 -36 29 -37 14 -1 16 -1 19 4 4 5 7 17 9 35 3 27 6 32 24 44 14
9 23 18 34 34 5 8 15 21 21 30 7 9 12 17 12 19 0 1 1 2 2 2 2 1 42 48 47 55
11 16 12 34 4 62 -2 6 -7 27 -11 48 -5 22 -11 41 -13 46 -6 10 -18 17 -30 17
-7 0 -9 -1 -14 -7 -3 -5 -6 -9 -5 -9 0 -1 -1 -2 -2 -2 -2 0 -4 -21 -2 -23 2
-2 2 -3 1 -3 -1 0 0 -2 1 -4 4 -8 10 -35 9 -42 0 -6 -9 -25 -18 -43 -3 -5 -3
-7 1 -25 7 -31 7 -32 2 -37 -6 -7 -16 -7 -22 0 -5 5 -5 6 -3 18 2 6 2 28 2 47
l0 36 -7 10 c-14 23 -16 27 -16 38 0 13 2 17 12 23 16 10 25 21 27 31 1 5 2
11 2 13 0 2 1 6 1 8 0 4 7 13 21 24 8 8 10 12 9 25 -1 9 -2 9 -11 14 -6 3 -14
5 -26 6 -22 1 -25 5 -27 21 -1 20 5 28 21 30 13 1 27 9 32 18 10 18 2 120 -10
136 -8 11 -21 15 -44 15 -10 0 -12 0 -17 6 -3 3 -6 7 -6 8 0 12 -7 51 -10 61
-5 14 -5 27 -1 35 4 6 9 7 21 3 10 -3 32 -3 32 0 0 1 1 1 2 0 1 -1 4 4 7 10
l5 11 -2 23 c-1 13 -3 29 -3 36 -2 19 -3 28 -5 31 -2 1 -2 2 -1 2 4 0 -12 10
-16 11 -3 0 -9 1 -14 2 -5 1 -8 1 -11 -2 -3 -3 -4 -3 -8 2 l-4 4 5 5 c4 4 5 4
7 1 2 -3 7 -3 17 1 2 1 5 1 5 1 3 0 12 10 14 17 2 6 2 55 -1 67 0 3 -1 16 -2
30 -1 14 -2 28 -2 31 -1 5 -1 14 -4 56 -2 26 -3 49 -4 70 -3 50 -6 62 -20 78
-4 5 -8 12 -8 16 -2 8 2 21 7 25 3 3 4 7 4 16 0 14 -4 19 -18 26 -4 2 -9 6
-11 9 -3 6 -3 7 1 13 2 4 6 7 8 8 13 4 26 28 25 46 0 4 -1 24 -2 43 -2 50 -2
55 -8 74 -3 11 -6 24 -6 35 -1 10 -1 20 -2 22 -1 6 -21 29 -26 29 -1 0 -4 2
-7 4 -8 5 -33 14 -46 15 -6 0 -17 1 -25 2 -17 2 -21 5 -23 19 -5 38 33 70 62
51 10 -7 30 -31 30 -37 0 -2 20 -22 28 -28 7 -5 17 -21 17 -27 1 -6 4 -13 5
-12 1 1 2 0 2 -1 0 -1 4 -4 10 -7 21 -11 55 2 59 22 1 7 2 17 1 20 0 1 -12 18
-26 37 -14 19 -31 42 -36 50 -6 8 -16 21 -22 29 -6 8 -16 22 -22 30 -39 54
-42 56 -62 58 -9 1 -13 0 -20 -3z m-146 -182 c5 -5 5 -17 1 -23 -2 -3 -9 -7
-19 -10 -10 -3 -24 -9 -32 -13 -21 -10 -34 -10 -45 1 -7 5 -10 19 -7 30 5 18
10 20 59 20 39 0 39 0 43 -5z m-253 -70 c5 -5 6 -7 6 -16 0 -15 -8 -23 -23
-23 -9 0 -11 1 -16 7 -9 8 -9 23 -1 32 9 9 24 9 34 0z m107 -3 c32 -14 8 -78
-29 -78 -18 0 -27 9 -28 27 0 35 30 62 57 51z m-194 -75 c5 0 15 -11 21 -23 3
-7 6 -12 7 -13 1 -1 2 -3 3 -5 2 -8 20 -23 32 -26 10 -3 13 -4 30 -1 l19 3 5
-5 6 -6 -1 -126 -1 -127 4 -9 c4 -8 21 -26 25 -26 4 0 11 -13 11 -22 0 -11 -4
-17 -16 -25 -20 -12 -27 -25 -29 -54 -6 -71 -5 -79 11 -102 15 -22 14 -32 -3
-49 -20 -19 -21 -32 -4 -60 8 -13 7 -19 -7 -34 -14 -16 -19 -32 -24 -78 0 -6
-2 -20 -4 -31 -1 -11 -3 -24 -4 -29 0 -5 -2 -14 -3 -20 -1 -6 -2 -15 -3 -19
-1 -4 -2 -11 -3 -14 -2 -7 0 -16 5 -26 6 -12 21 -19 39 -19 23 0 34 -6 34 -19
0 -10 -7 -16 -32 -25 -10 -4 -27 -22 -24 -26 1 -1 0 -3 -2 -5 -1 -3 -2 -9 -3
-16 -2 -18 -4 -20 -24 -30 -39 -19 -44 -38 -15 -68 6 -6 12 -13 13 -15 1 -1 2
-3 3 -4 5 -4 18 -32 19 -41 1 -6 1 -8 -7 -16 -16 -16 -33 -21 -58 -18 -16 2
-16 2 -16 50 -1 40 -1 42 3 51 6 11 11 25 11 25 -1 0 1 2 4 5 2 3 3 5 2 6 -2
1 -1 25 3 60 9 78 15 141 20 206 4 52 5 63 8 119 1 9 1 22 2 30 2 29 5 92 6
133 0 16 1 45 2 64 4 139 4 216 0 224 -4 8 -13 14 -25 16 -9 2 -11 1 -21 -3
-6 -3 -19 -6 -28 -8 l-17 -4 -5 5 c-5 5 -5 5 1 23 5 14 21 34 29 38 4 2 10 3
17 3 15 0 22 0 27 1 2 0 6 1 8 1 2 0 3 2 3 12 0 15 -4 24 -15 31 -12 7 -13 9
-15 25 -5 35 -13 51 -29 56 -7 2 -11 2 -44 -1 -9 -1 -11 -1 -16 4 -5 6 -7 19
-3 27 5 9 50 32 61 31 2 0 5 -1 7 -1z m394 -7 c5 -6 5 -7 7 -63 1 -25 1 -54 2
-64 1 -18 1 -31 4 -108 2 -54 6 -64 29 -65 10 -1 14 -1 16 1 15 15 44 14 52 0
4 -7 3 -27 -1 -33 -5 -8 -11 -10 -27 -9 -42 1 -49 -2 -59 -26 -3 -8 -5 -45 -2
-58 0 -2 1 -17 2 -34 1 -17 2 -38 2 -47 1 -9 2 -25 2 -35 1 -18 2 -42 4 -71 0
-8 1 -23 2 -35 3 -52 4 -57 27 -78 15 -14 16 -15 17 -26 9 -77 12 -88 25 -102
12 -13 12 -15 13 -35 1 -29 4 -34 28 -51 16 -10 18 -13 18 -28 0 -19 -8 -27
-27 -27 -12 0 -21 4 -30 14 -5 5 -6 5 -18 5 -12 -1 -20 -5 -20 -10 0 -1 -3 -5
-6 -9 -3 -5 -6 -10 -7 -13 -1 -4 -2 -4 -7 4 -3 4 -8 9 -11 12 -3 2 -7 5 -8 6
-2 1 -3 2 -3 1 0 -4 -9 9 -16 25 -8 16 -9 18 -17 21 -15 5 -22 3 -25 -10 -3
-16 -1 -27 6 -33 3 -3 6 -6 6 -7 0 -1 4 -7 8 -14 4 -7 8 -14 8 -15 0 -1 3 -7
7 -13 8 -12 9 -16 4 -19 -2 -1 -3 -2 -2 -2 1 0 -1 -1 -4 -2 -3 -1 -10 0 -14 1
-5 2 -9 2 -9 2 0 -2 -12 11 -17 19 -3 4 -9 11 -14 16 -11 9 -14 15 -16 25 -1
10 -7 24 -11 28 -8 5 -13 21 -11 35 2 25 -4 37 -27 48 -17 8 -20 11 -20 23 0
12 5 18 18 20 12 1 30 8 36 14 11 11 12 27 5 51 -4 11 -18 29 -32 37 -19 12
-25 25 -21 42 4 14 11 19 28 20 21 2 35 9 41 24 7 15 6 34 -3 43 -5 5 -26 5
-34 0 -8 -6 -22 -6 -36 1 -17 7 -25 9 -43 10 -21 1 -28 4 -31 15 -2 4 -3 7 -4
7 -2 -1 2 16 5 23 7 13 27 14 49 2 14 -7 36 -13 50 -14 6 0 14 -5 15 -10 1 -3
4 -3 18 -2 11 1 16 2 16 4 -1 1 0 2 1 2 4 -1 7 15 9 42 0 14 1 31 2 39 2 36 6
154 6 196 0 32 -3 41 -19 59 -10 10 -12 15 -12 27 0 11 2 17 9 24 18 18 23 31
23 56 0 24 -7 34 -29 44 -22 10 -26 12 -35 18 -5 3 -16 7 -23 10 -18 6 -21 10
-21 22 0 20 16 25 40 12 24 -14 34 -16 46 -8 10 5 31 21 32 24 1 1 2 1 2 1 0
-1 3 -1 7 0 3 1 8 3 11 3 3 1 5 2 6 2 2 2 3 1 8 -4z m125 0 c6 -4 6 -6 6 -20
0 -14 0 -16 -6 -20 -4 -4 -7 -5 -18 -5 -11 0 -14 1 -18 5 -6 4 -6 6 -6 20 0
14 0 16 6 20 4 4 7 5 18 5 11 0 14 -1 18 -5z m-607 -96 c4 -5 4 -5 1 -10 -5
-6 -9 -6 -14 0 -3 5 -3 5 0 10 5 6 7 6 13 0z m605 -53 c7 -6 7 -19 1 -25 -6
-7 -19 -7 -25 -1 -7 6 -7 19 -1 25 6 7 19 7 25 1z m-292 -40 c5 -4 5 -6 4 -15
-1 -15 -10 -30 -19 -34 -26 -13 -51 6 -44 34 4 16 13 21 37 20 15 0 17 -1 22
-5z m-277 -74 c2 -3 3 -12 1 -15 -1 0 -2 -3 -2 -6 -2 -13 -24 -19 -34 -8 -4 3
-5 7 -5 14 0 13 4 17 20 20 11 2 14 2 20 -5z m351 -16 c5 -5 6 -10 5 -24 0 -3
-6 -10 -16 -20 -8 -8 -19 -20 -24 -26 -9 -13 -13 -15 -28 -15 -17 1 -24 8 -25
24 0 17 2 20 19 32 8 6 21 16 28 23 7 6 14 12 17 12 9 2 18 0 24 -6z m-386
-199 c4 -4 5 -7 5 -15 0 -14 -6 -20 -20 -20 -14 0 -20 6 -20 20 0 14 6 20 20
20 8 0 11 -1 15 -5z m608 -28 c6 -4 6 -6 6 -20 0 -14 0 -16 -6 -20 -4 -4 -7
-5 -18 -5 -11 0 -14 1 -18 5 -6 4 -6 6 -6 20 0 14 0 16 6 20 4 4 7 5 18 5 11
0 14 -1 18 -5z m62 -164 c5 -8 1 -16 -8 -16 -9 0 -13 8 -8 16 2 3 5 5 8 5 3 0
6 -2 8 -5z m-1387 -43 c1 0 5 -3 8 -6 5 -5 6 -7 6 -18 0 -11 -1 -13 -6 -18 -6
-6 -7 -6 -18 -6 -11 0 -12 0 -18 6 -5 5 -6 7 -6 17 0 14 3 20 12 24 5 2 8 2
22 1z m322 -29 c13 -4 23 -6 38 -6 20 -1 21 -1 27 -7 8 -8 8 -24 0 -32 -7 -7
-12 -8 -40 -4 -13 2 -20 2 -31 0 -23 -3 -35 2 -38 18 -4 17 3 31 16 34 10 2
11 2 28 -3z m685 -14 c12 -12 3 -31 -13 -31 -11 0 -18 7 -18 18 0 11 7 18 18
18 6 0 9 -1 13 -5z m-234 -15 c6 -7 7 -14 2 -36 -2 -10 -3 -20 -2 -31 0 -13 0
-16 -3 -19 -7 -7 -20 -1 -20 10 0 3 -1 9 -2 13 -1 4 -3 11 -4 14 -1 4 -4 11
-6 16 -7 13 -6 26 1 33 9 9 24 9 34 0z m-924 -22 c16 -7 16 -43 -1 -50 -15 -6
-34 -2 -39 9 -4 8 -4 24 0 32 5 12 23 15 40 9z m259 -15 c10 -5 14 -13 15 -32
2 -22 1 -26 -3 -29 -5 -4 -15 -5 -17 -2 0 1 -7 4 -13 6 -7 3 -15 6 -17 8 -10
9 -10 33 -1 43 7 8 24 11 36 6z m24 -78 c2 -2 3 -3 4 -2 3 2 4 -8 4 -35 0 -14
1 -30 2 -35 3 -10 13 -23 25 -31 9 -7 13 -14 13 -26 0 -12 -4 -19 -13 -26 -12
-8 -22 -21 -25 -31 -1 -5 -2 -28 -2 -57 0 -27 -1 -50 -2 -51 0 -1 -3 -2 -6 -2
-3 0 -5 2 -7 11 -2 6 -6 14 -9 17 -6 6 -27 15 -34 15 -2 0 -6 2 -9 5 -11 11
-4 37 9 37 7 0 28 9 34 15 7 8 10 19 10 45 0 20 -1 23 -5 33 -5 10 -6 11 -20
18 -8 4 -16 7 -18 7 -7 0 -13 6 -18 17 -8 15 -8 17 4 23 6 3 12 6 14 6 2 0 10
3 18 7 16 8 23 17 23 28 -1 3 0 8 2 10 1 3 2 7 2 9 1 5 1 5 1 0 1 -3 2 -6 3
-7z m199 -3 c5 -4 6 -7 6 -15 1 -13 5 -22 16 -34 13 -14 15 -18 15 -26 0 -8
-4 -15 -13 -24 -7 -5 -7 -6 -7 -21 0 -13 1 -16 4 -19 11 -10 16 -19 16 -30 0
-6 -1 -12 -3 -15 -7 -9 -1 -39 9 -44 8 -4 12 -11 12 -18 0 -12 -8 -17 -42 -27
-19 -5 -27 -5 -34 4 -4 5 -4 38 0 46 8 15 9 27 4 51 l-5 23 5 22 c7 37 4 67
-9 81 -22 24 -20 44 6 49 7 2 12 3 13 3 0 0 3 -3 7 -6z m-383 -2 c3 -3 3 -9 2
-43 0 -40 0 -41 5 -52 8 -16 23 -27 41 -28 14 -1 30 -7 33 -11 2 -3 3 -8 3
-13 0 -11 -6 -16 -30 -23 -23 -7 -33 -13 -41 -23 -10 -13 -11 -20 -11 -69 0
-42 -2 -63 -7 -59 0 1 -1 -2 -2 -6 -1 -4 -2 -6 -4 -6 -1 1 -1 0 1 -2 2 -2 2
-3 1 -2 -3 1 -5 -9 -6 -27 -2 -19 -19 -26 -40 -16 -15 7 -37 8 -47 2 -14 -10
-31 -16 -42 -16 -9 0 -15 6 -17 17 -2 23 -8 33 -22 45 -13 12 -17 22 -13 37 7
25 44 28 56 4 3 -5 6 -9 6 -9 1 0 2 -1 2 -3 0 -2 13 -15 26 -25 12 -9 25 -14
38 -15 13 -1 13 -1 27 7 8 5 16 10 19 11 4 1 6 6 6 14 2 62 2 63 -1 72 -5 12
-12 20 -23 27 -12 8 -16 15 -16 28 0 19 3 26 19 42 22 24 22 22 22 85 0 45 0
54 3 57 4 4 8 4 12 0z m74 0 c4 -3 7 -11 9 -21 1 -3 2 -9 2 -12 3 -13 3 -14
-6 -17 -10 -5 -17 -5 -23 1 -10 11 -11 43 -1 51 5 3 15 3 19 -2z m1023 -75 c7
-4 9 -9 11 -28 2 -18 7 -30 16 -41 8 -9 10 -14 10 -26 0 -9 -7 -36 -10 -38 -1
-1 -3 -4 -4 -7 l-2 -6 -4 8 c-2 4 -5 8 -6 9 -11 7 -22 19 -23 26 -4 26 -9 42
-17 50 -10 11 -13 14 -14 22 -2 10 0 23 6 29 7 7 27 8 37 2z m-263 -51 c5 -5
5 -11 0 -16 -10 -10 -27 5 -16 16 4 4 12 4 16 0z m475 -24 c7 -15 9 -28 6 -38
-5 -15 -4 -14 -16 -8 -21 11 -29 17 -28 21 1 2 2 5 2 6 0 3 9 10 14 10 6 1 10
5 13 13 3 7 5 6 9 -4z m-249 -77 c10 -2 14 -12 12 -26 -3 -10 -8 -16 -23 -24
-17 -8 -24 -20 -26 -49 -2 -16 -8 -23 -23 -23 -8 0 -11 1 -16 6 -9 9 -11 25
-4 32 7 7 18 22 21 27 1 3 4 8 6 12 3 3 6 9 7 13 3 9 14 26 21 30 7 4 12 5 25
2z m70 -15 c1 -2 2 -8 3 -15 2 -20 -11 -33 -19 -19 -2 5 -2 7 0 13 1 5 3 12 4
17 2 9 8 11 12 4z m87 -33 c6 -4 6 -6 6 -20 0 -14 0 -16 -6 -20 -4 -4 -7 -5
-18 -5 -16 0 -22 4 -26 19 -3 10 -1 17 8 26 7 7 28 7 36 0z m-468 -24 c3 -5 3
-5 0 -10 -2 -3 -5 -5 -7 -5 -2 0 -5 2 -7 5 -3 5 -3 5 0 10 2 3 5 5 7 5 2 0 5
-2 7 -5z m-333 -23 c3 -2 12 -9 18 -16 11 -11 16 -14 32 -21 21 -9 25 -12 28
-24 5 -22 -8 -39 -29 -38 -16 1 -23 6 -34 27 -7 13 -14 21 -32 36 -9 8 -13 14
-13 23 0 15 17 22 30 13z m-293 -6 c11 -11 4 -30 -11 -30 -16 0 -24 18 -14 29
6 7 19 7 25 1z m1280 -17 c7 -7 8 -22 2 -27 -6 -5 -23 8 -23 17 0 10 14 17 21
10z m-131 -23 c13 -3 16 -9 15 -21 -2 -18 -14 -35 -28 -39 -4 -1 -16 -3 -26
-6 -17 -4 -24 -7 -38 -19 -5 -4 -9 -5 -16 -5 -13 0 -19 6 -19 19 0 12 3 16 25
28 9 6 20 14 28 22 18 20 38 27 59 21z m161 -28 c3 -6 3 -6 0 -10 -3 -2 -4 -2
-5 0 0 1 -2 2 -3 2 -4 0 -4 6 0 10 5 5 4 5 8 -2z m-1363 0 c9 -9 3 -24 -10
-24 -8 0 -14 6 -14 14 0 12 15 18 24 10z m718 -27 c6 -5 6 -21 -1 -28 -3 -4
-6 -5 -14 -5 -5 0 -10 1 -12 2 -7 6 -47 12 -50 8 -1 -1 -3 0 -6 2 l-5 5 4 4
c3 3 6 4 7 3 6 -3 27 0 41 7 18 9 27 10 36 2z m-569 -4 c7 -11 -6 -22 -16 -13
-5 3 -5 5 2 16 2 4 11 2 14 -3z m-288 -22 c6 -6 7 -18 1 -25 -3 -5 -6 -5 -25
-6 -26 -2 -31 -4 -48 -20 -15 -14 -16 -15 -29 -15 -19 0 -27 8 -27 27 0 12 4
20 11 24 2 1 16 3 30 5 17 2 31 4 38 7 6 2 14 5 17 5 3 1 6 2 7 2 0 1 5 1 10
1 8 0 11 -1 15 -5z m1424 -31 c10 -6 14 -20 14 -55 0 -26 0 -30 -4 -32 -3 -2
-4 -2 -9 3 -3 3 -10 8 -16 12 -13 9 -18 19 -20 36 -1 14 3 23 12 28 3 2 7 6 9
8 4 5 6 5 14 0z m-628 -106 c11 -10 3 -28 -11 -28 -10 0 -16 6 -16 15 0 15 17
23 27 13z"/>
<path d="M179 3702 c-13 -7 -22 -22 -24 -42 -1 -5 -2 -14 -3 -20 -1 -6 -2 -46
-2 -90 0 -69 0 -81 3 -89 2 -5 4 -11 5 -12 1 -1 4 -5 7 -8 3 -4 10 -14 16 -22
9 -15 12 -17 25 -23 8 -4 15 -8 16 -8 0 1 3 0 6 -1 22 -6 23 -45 2 -53 -3 -1
-15 -2 -27 -2 -29 0 -39 -4 -47 -20 -6 -12 -6 -18 -3 -40 4 -21 4 -23 1 -43
-4 -27 -6 -284 -2 -286 1 -1 2 -3 2 -5 0 -8 20 -24 30 -24 9 0 21 7 35 21 15
14 28 21 45 22 l9 0 8 -16 c9 -19 16 -26 27 -29 5 -2 90 -2 289 -2 l282 1 8 5
c4 2 13 9 20 15 11 10 12 11 22 11 12 0 26 4 32 10 4 3 4 6 4 14 -1 9 -3 12
-17 31 -9 12 -8 15 9 35 14 17 13 8 13 216 l0 188 -5 11 c-3 6 -8 13 -11 15
-29 22 -29 34 0 56 3 2 8 9 11 15 7 14 7 44 1 70 -3 12 -4 23 -4 40 1 17 0 25
-2 29 -9 17 -39 32 -67 34 -28 1 -43 -8 -53 -35 -5 -13 -7 -39 -3 -47 4 -10
18 -14 41 -14 16 0 22 -4 22 -16 0 -13 -6 -16 -27 -16 -16 0 -37 -4 -42 -8 -8
-6 -30 -3 -36 5 -5 5 -15 62 -16 85 0 16 -7 30 -18 39 -7 6 -7 6 -32 6 -25 0
-35 -1 -35 -3 0 -1 -3 -3 -7 -5 -12 -5 -22 -21 -28 -43 -7 -29 -10 -33 -27
-38 -30 -9 -41 -4 -40 20 0 3 4 9 9 15 l9 9 0 17 -1 16 -15 6 c-11 4 -18 6
-28 6 -15 0 -24 -1 -24 -3 0 -1 -2 -2 -5 -3 -5 -1 -14 -12 -22 -27 -7 -12 -14
-16 -27 -17 -14 0 -21 4 -28 15 -7 12 -14 16 -30 17 -6 1 -11 2 -12 2 0 0 -2
0 -3 -2 -5 -5 -19 -4 -30 3 -20 12 -28 14 -44 15 -15 1 -17 1 -29 -5 -9 -5
-15 -9 -17 -14 -10 -15 -15 -18 -34 -18 l-12 0 -13 14 c-21 22 -40 29 -57 20z
m144 -61 c3 -3 3 -3 0 -6 -4 -5 -11 1 -7 6 4 4 4 4 7 0z m-77 -43 c5 -5 5 -15
0 -20 -9 -9 -24 -2 -24 10 0 8 6 14 14 14 3 0 8 -2 10 -4z m109 -18 c8 -9 8
-24 -1 -32 -5 -6 -7 -7 -16 -7 -15 0 -23 8 -23 23 0 15 7 22 23 22 10 0 12 -1
17 -6z m125 -47 c19 -11 34 -13 44 -8 12 6 36 3 45 -7 1 -2 4 -8 6 -13 5 -15
11 -25 21 -32 17 -11 51 -8 66 6 3 2 9 8 15 13 9 8 9 8 23 8 17 0 31 -5 36
-12 4 -6 4 -6 1 -16 -3 -5 -6 -10 -9 -11 -4 -2 -4 -3 -4 -17 0 -15 0 -16 7
-21 3 -2 9 -5 13 -6 16 -3 23 -11 23 -28 0 -18 -9 -27 -27 -28 -15 0 -28 8
-28 19 0 1 -2 7 -5 13 -6 12 -6 13 -7 18 0 1 -7 4 -15 7 l-14 4 -95 -1 c-52
-1 -104 -1 -114 -1 -10 0 -23 1 -29 1 -8 0 -11 1 -16 6 -6 6 -6 7 -5 18 1 17
7 24 20 24 5 0 13 1 17 1 5 1 8 1 8 0 -1 -2 5 -3 20 -4 12 0 29 5 26 9 -1 0
-1 1 1 1 2 0 6 12 6 22 0 3 1 6 2 6 2 0 0 2 -4 4 -10 5 -29 7 -33 4 -4 -3 -16
-1 -19 4 -5 10 1 22 11 22 2 0 8 -2 13 -5z m406 -67 c4 -4 5 -13 1 -15 -3 -1
-3 -3 -2 -11 3 -19 3 -21 11 -28 12 -11 14 -16 14 -28 0 -21 -17 -28 -44 -17
-35 14 -42 19 -42 31 0 9 6 15 16 17 13 3 23 10 25 19 0 2 2 6 3 9 1 4 1 7 0
8 0 1 -1 3 -1 6 -2 10 12 16 19 9z m-426 -123 c4 -4 4 -6 3 -19 -1 -15 -4 -22
-12 -27 -7 -4 -10 -4 -16 2 -6 4 -6 6 -6 22 0 15 1 17 5 22 7 7 19 7 26 0z
m201 -40 c6 -5 7 -23 1 -29 -7 -7 -14 -12 -16 -12 0 0 -3 -2 -6 -5 -12 -11
-23 -17 -30 -17 -9 0 -16 6 -16 16 0 9 4 12 20 22 7 3 15 9 18 14 15 15 20 17
29 11z m-430 -21 c3 0 5 -1 4 -3 0 -1 -2 -2 -3 -1 -1 0 -2 -1 -2 -2 0 -3 -7
-2 -13 1 -3 2 -3 3 -1 6 2 1 4 2 6 2 2 -1 6 -2 9 -3z m75 -1 c8 -4 25 -25 31
-38 5 -13 4 -30 -4 -36 -8 -8 -28 -7 -38 1 -13 10 -24 22 -38 44 l-13 22 10 1
c5 1 12 3 15 5 13 6 26 7 37 1z m482 -75 c1 0 5 -3 8 -6 5 -5 6 -7 6 -18 0
-11 -1 -13 -6 -18 -6 -6 -7 -6 -18 -6 -11 0 -12 0 -18 6 -5 5 -6 7 -6 17 0 14
3 20 12 24 5 2 8 2 22 1z m-218 -6 c21 -5 75 -6 94 -1 23 5 27 5 32 0 4 -4 4
-6 4 -21 -1 -16 -1 -17 -7 -23 -6 -6 -7 -6 -23 -6 -20 0 -33 -6 -42 -19 -3 -4
-6 -8 -7 -8 -1 0 -4 -1 -5 -3 -1 -2 -5 -3 -9 -3 -3 0 -11 -1 -16 -3 -5 -1 -9
-2 -10 -1 -1 0 -1 0 0 -1 1 -2 0 -3 -2 -3 -1 0 -3 -1 -3 -2 -1 0 -6 -5 -11
-10 -10 -8 -12 -9 -21 -9 -12 0 -19 6 -26 22 -7 16 -14 26 -23 31 -22 13 -38
8 -46 -14 -2 -5 -4 -10 -4 -12 -1 -2 -1 -6 -1 -9 0 -5 -2 -8 -8 -16 -16 -17
-20 -22 -20 -25 0 -4 -5 -16 -7 -16 0 0 -1 -1 0 -2 3 -4 -7 -12 -15 -12 -19 0
-22 23 -5 36 6 5 15 18 16 24 0 3 1 7 2 8 3 5 6 49 5 66 l-1 17 6 6 6 6 37 -1
c31 0 40 1 54 4 22 5 35 5 56 0z m163 -95 c3 -5 3 -5 0 -10 -2 -3 -5 -5 -7 -5
-2 0 -5 2 -7 5 -3 5 -3 5 0 10 2 3 5 5 7 5 2 0 5 -2 7 -5z m-456 -20 c5 -8 1
-16 -8 -16 -9 0 -13 8 -8 16 2 3 5 5 8 5 3 0 6 -2 8 -5z m418 -102 c5 -8 1
-16 -8 -16 -9 0 -13 8 -8 16 2 3 5 5 8 5 3 0 6 -2 8 -5z m-339 -18 l-5 -5 -4
4 -5 5 4 4 5 5 4 -4 5 -5 -4 -4z"/>
</g>
</svg>
