<?xml version="1.0" standalone="no"?>
<!DOCTYPE svg PUBLIC "-//W3C//DTD SVG 20010904//EN"
 "http://www.w3.org/TR/2001/REC-SVG-20010904/DTD/svg10.dtd">
<svg version="1.0" xmlns="http://www.w3.org/2000/svg"
 width="1100.000000pt" height="2850.000000pt" viewBox="0 0 1100.000000 2850.000000"
 preserveAspectRatio="xMidYMid meet">
<metadata>
Created by potrace 1.15, written by Peter Selinger 2001-2017
</metadata>
<g transform="translate(0.000000,2850.000000) scale(0.500000,-0.500000)"
fill="#000000" stroke="none">
<path d="M279 3805 c-2 0 -3 -1 -3 0 0 1 -3 0 -6 -2 -6 -3 -14 -13 -18 -22 -3
-7 -3 -6 -5 -16 -2 -10 -1 -8 -9 -34 -7 -26 -7 -37 0 -46 6 -6 22 -11 34 -10
15 1 26 -6 30 -20 2 -10 0 -23 -6 -30 -10 -12 -36 -11 -47 3 -4 5 -6 5 -20 5
-18 0 -22 -3 -29 -22 -6 -18 -23 -60 -36 -91 -17 -40 -47 -99 -65 -127 -2 -5
-5 -9 -6 -11 0 -2 -5 -8 -9 -15 -4 -7 -9 -15 -11 -18 -4 -8 -3 -35 2 -45 2 -6
3 -14 3 -40 0 -31 0 -38 6 -59 1 -4 2 -15 2 -25 0 -10 1 -17 3 -19 6 -9 17
-19 22 -22 11 -6 15 -17 15 -42 0 -18 1 -24 4 -29 5 -8 13 -12 16 -8 2 3 2 2
2 0 0 -2 2 -7 4 -11 5 -7 5 -12 6 -45 1 -22 3 -42 5 -49 2 -11 5 -28 6 -41 0
-2 -1 -5 -2 -7 -2 -1 -2 -3 -2 -4 1 0 1 -1 0 -1 -1 0 -2 -2 -2 -4 0 -2 1 -4 1
-4 1 0 2 1 2 2 0 0 7 1 15 0 13 0 15 -1 16 -5 0 -2 1 -1 1 4 0 4 1 9 3 11 5 4
15 4 20 -1 3 -3 3 -4 0 -33 -4 -33 -5 -34 -22 -50 -13 -12 -20 -19 -25 -25 -2
-2 -4 -6 -6 -7 -8 -11 -10 -23 -10 -73 0 -27 -1 -50 -1 -51 0 -1 -1 -16 -1
-34 0 -32 0 -34 5 -45 5 -10 10 -16 21 -23 7 -5 13 -12 16 -20 3 -9 5 -45 3
-61 -2 -10 -1 -16 2 -31 6 -23 6 -25 2 -35 -4 -10 -11 -13 -22 -10 -14 3 -39
-11 -43 -25 -4 -16 -8 -44 -7 -65 0 -20 0 -24 -5 -39 -6 -16 -6 -18 -5 -38 1
-22 -1 -34 -9 -42 -8 -9 -15 -22 -25 -52 -13 -39 -20 -58 -25 -69 -2 -5 -4 -9
-4 -10 0 0 -4 -9 -8 -18 -14 -31 -8 -48 22 -63 13 -7 21 -11 48 -27 17 -10 40
-24 44 -27 1 -2 8 -6 13 -10 6 -4 13 -9 16 -11 4 -4 8 -5 16 -5 19 0 24 3 36
29 14 28 15 36 4 59 -6 13 -7 16 -7 26 1 14 5 19 18 23 26 9 38 22 45 45 7 22
18 66 25 100 10 46 9 50 -12 73 -18 17 -16 24 9 35 14 6 27 20 25 29 0 0 1 1
2 1 1 0 4 2 7 5 8 8 34 7 46 -2 4 -3 7 -5 6 -5 0 0 1 -6 4 -13 2 -8 4 -18 5
-23 1 -23 6 -28 34 -29 26 -1 32 -6 32 -26 0 -21 -13 -35 -33 -36 -38 -2 -49
-14 -49 -55 0 -17 6 -42 13 -50 4 -5 2 -26 -3 -37 -6 -13 -6 -26 -1 -35 8 -14
31 -40 41 -45 l9 -6 52 0 c52 0 63 1 63 3 0 1 1 2 3 2 4 0 15 13 18 22 4 10 4
18 2 36 -2 23 -2 32 2 37 4 5 5 5 24 5 36 0 37 -1 49 -23 4 -8 9 -16 11 -17 3
-3 28 -6 29 -4 2 3 23 12 30 12 13 0 14 0 20 -6 5 -5 6 -7 6 -17 0 -21 -5 -25
-34 -26 -10 -1 -24 -2 -31 -3 -20 -3 -20 -3 -37 14 -15 16 -15 16 -26 17 -5 0
-10 -1 -10 -1 0 -1 -2 -2 -4 -3 -2 0 -5 -3 -6 -6 -7 -11 -7 -19 -1 -41 3 -12
6 -27 8 -35 6 -27 13 -35 36 -43 18 -5 69 5 100 20 65 33 95 86 100 176 1 23
4 34 8 34 1 0 3 2 4 4 0 3 1 3 1 0 0 -2 4 -13 10 -23 5 -11 10 -21 10 -21 0
-1 4 -9 8 -18 9 -19 22 -52 34 -86 8 -22 20 -42 23 -39 0 1 1 1 1 0 0 -1 6 -2
12 -2 14 1 21 6 23 16 1 3 2 7 2 8 1 0 1 9 1 18 0 16 0 18 4 22 8 9 25 5 27
-5 0 -3 1 -5 1 -5 0 0 1 -4 1 -9 0 -6 -1 -10 -1 -10 -1 0 -1 -2 -1 -4 0 -3 0
-8 -1 -12 -3 -10 -3 -15 1 -24 8 -17 17 -21 39 -15 19 5 21 8 21 28 -1 15 -1
16 -8 22 -12 11 -13 34 -1 43 7 6 28 6 35 -1 6 -4 6 -5 6 -24 1 -24 1 -31 3
-31 1 0 4 -2 7 -5 8 -7 21 -5 63 7 19 6 36 11 38 11 2 0 15 4 30 8 15 4 46 12
69 18 74 19 76 20 85 30 11 12 13 24 9 54 -2 12 -4 28 -5 35 -2 22 -8 27 -31
29 -6 0 -11 0 -11 -1 0 0 -4 -5 -8 -9 -4 -4 -8 -9 -8 -10 0 -2 -1 -3 -2 -3 -1
0 -2 -2 -2 -4 0 -2 -1 -4 -2 -4 -1 0 -2 -3 -3 -6 -1 -6 -9 -16 -13 -16 -4 0
-11 9 -11 16 -1 4 -1 9 -1 11 0 1 -2 5 -4 7 -5 5 -20 4 -26 -1 -6 -5 -28 -5
-36 1 -17 10 -26 31 -17 41 4 5 5 5 21 5 15 0 18 0 28 -6 10 -5 15 -6 24 -6
11 0 12 0 17 7 9 11 16 17 20 17 9 1 18 0 19 -2 0 -2 23 2 28 6 6 4 11 13 11
21 0 52 -11 73 -37 73 -8 0 -105 -19 -108 -21 0 0 -3 2 -6 4 l-6 6 0 49 c0 57
-1 61 -17 85 -11 16 -11 16 -11 31 0 25 8 40 21 40 4 0 12 -2 18 -4 34 -12 31
-12 72 -12 50 0 59 3 70 25 l6 11 -4 12 c-2 7 -6 15 -9 18 -6 6 -7 6 -20 5 -7
0 -17 -3 -23 -5 -14 -6 -27 -6 -40 1 -15 7 -27 9 -39 7 -5 -1 -10 -3 -11 -4
-1 -1 -7 -2 -14 -2 -11 0 -14 1 -18 5 -6 4 -6 6 -6 20 0 14 0 16 6 20 8 7 25
7 39 0 15 -8 32 -7 49 2 8 3 23 10 34 14 43 16 41 14 41 39 0 10 -1 11 -6 16
-11 8 -13 16 -12 38 1 17 -9 34 -22 38 -4 1 -23 2 -51 2 -23 -1 -43 0 -43 0 0
1 -5 4 -10 7 -6 3 -10 5 -9 5 0 0 -1 2 -3 4 -4 4 -26 12 -35 12 -3 0 -7 2 -11
6 -6 6 -6 7 -5 20 0 7 2 19 3 25 3 22 -4 35 -28 48 -5 2 -11 6 -13 7 -6 5 -15
15 -20 20 -2 3 -6 6 -8 6 -3 0 -9 1 -14 3 -6 1 -12 3 -15 4 -6 1 -9 4 -22 19
-14 16 -19 18 -56 18 -20 0 -32 -1 -32 -2 0 -1 -1 -2 -3 -2 -4 0 -14 -12 -18
-21 -5 -11 -5 -174 0 -189 5 -15 14 -23 30 -25 2 0 3 -1 4 -1 1 -1 3 -1 4 -1
4 2 17 -3 20 -8 4 -5 4 -18 -1 -23 -2 -3 -7 -5 -14 -6 -6 -1 -13 -2 -15 -3 -2
0 -5 -1 -6 -1 -5 0 -21 -13 -21 -16 0 -2 -1 -4 -1 -5 -3 -2 -3 -5 -3 -158 0
-146 0 -151 4 -161 3 -10 18 -28 23 -30 1 -1 5 -6 9 -13 6 -10 7 -12 5 -16 -1
-3 -2 -5 -3 -5 -1 0 -3 -3 -5 -6 -4 -9 -9 -10 -31 -11 -26 -1 -35 -4 -49 -18
-3 -4 -12 -11 -20 -16 -19 -13 -23 -17 -23 -22 0 -3 -1 -4 -1 0 -1 2 -5 7 -9
10 -4 4 -9 9 -11 12 -16 29 -16 34 -7 50 14 25 15 26 16 56 0 25 0 28 -4 36
-5 11 -17 19 -29 19 -9 1 -10 0 -39 -10 -39 -14 -54 -10 -56 13 -1 23 4 28 37
32 12 2 25 4 28 5 3 1 11 2 17 3 21 1 36 9 42 22 4 8 4 12 4 54 0 30 -1 48 -2
54 -4 11 -15 21 -29 27 -17 7 -21 11 -21 23 0 11 0 11 14 21 20 15 31 31 33
48 1 5 2 12 3 16 1 4 2 84 2 188 0 176 0 182 -4 190 -2 5 -5 11 -7 13 -5 5
-27 13 -36 13 -13 0 -19 8 -20 31 -1 9 -2 15 -4 16 -2 1 -3 3 -2 3 0 1 -7 0
-17 0 -9 -1 -17 -2 -17 -3 -4 -11 -11 -18 -23 -24 -18 -10 -25 -16 -32 -26
-10 -16 -14 -19 -28 -21 -31 -4 -45 -18 -44 -45 0 -8 1 -16 3 -19 4 -10 6 -15
9 -18 1 -2 4 -8 6 -13 4 -10 4 -10 0 -14 -4 -5 -5 -5 -15 -2 -5 2 -15 5 -20 8
-6 3 -15 6 -20 8 -6 1 -13 4 -17 6 -8 4 -41 38 -50 52 -4 5 -10 15 -14 21 -13
19 -15 24 -10 29 4 4 5 4 13 2 4 -1 13 -5 18 -8 27 -13 25 -12 39 -9 12 3 20
10 23 18 3 8 14 17 21 16 9 -1 43 11 56 20 13 8 19 16 23 32 5 14 10 20 18 20
8 0 24 5 31 10 3 2 9 10 13 17 9 16 10 17 22 18 19 3 35 -8 35 -23 0 -10 6
-34 8 -34 1 0 2 -2 2 -3 0 -4 2 -4 15 -3 l15 0 5 11 c5 11 5 12 5 74 0 53 -1
64 -3 70 -4 9 -14 21 -18 21 -2 0 -3 1 -3 2 0 2 -1 2 -55 4 l-50 1 -7 6 c-3 3
-5 5 -4 5 2 0 18 26 21 36 5 14 1 27 -12 43 -9 11 -12 22 -9 33 3 12 -1 40 -6
43 -7 5 -14 18 -14 28 0 16 7 23 23 23 11 0 12 0 24 -12 25 -26 42 -24 64 9 7
10 8 12 7 23 0 15 -4 22 -13 29 -5 3 -8 7 -9 7 -1 1 -5 4 -10 7 -5 3 -9 6 -10
7 -1 1 -5 4 -10 7 -5 3 -9 6 -10 7 -2 3 -21 14 -37 22 -15 8 -20 9 -30 9 -6
-1 -12 -2 -14 -3 -1 -1 -3 -1 -3 -1 -2 1 -10 -7 -21 -20 -7 -8 -17 -12 -30
-10 -6 1 -11 5 -23 15 -15 14 -20 16 -34 16 -10 0 -19 -7 -20 -16 0 -4 -1 -10
-2 -14 -1 -4 -1 -6 0 -6 1 0 2 -1 2 -3 0 -5 -7 -9 -21 -10 -8 -1 -20 -3 -28
-5 -24 -6 -41 1 -41 16 0 3 -1 6 -2 7 -2 1 -1 35 1 44 0 2 6 21 12 43 10 36
11 39 9 48 -5 23 -21 34 -40 26 -4 -2 -8 -5 -9 -6 -4 -5 -9 -22 -10 -35 -2
-14 -7 -20 -18 -23 -11 -2 -24 0 -29 6 -9 8 -9 27 -2 39 5 7 5 28 2 36 -4 7
-17 13 -53 21 -31 8 -42 9 -48 5z m131 -188 c10 -4 13 -12 12 -28 -2 -18 -9
-25 -27 -26 -15 -1 -25 7 -29 20 -2 10 0 23 6 30 8 9 25 11 38 4z m-121 -58
c12 -12 3 -31 -13 -31 -11 0 -18 7 -18 18 0 11 7 18 18 18 6 0 9 -1 13 -5z
m162 -56 c6 -4 6 -6 6 -20 0 -14 0 -16 -6 -20 -4 -4 -7 -5 -18 -5 -11 0 -14 1
-18 5 -6 4 -6 6 -6 20 0 14 0 16 6 20 4 4 7 5 18 5 11 0 14 -1 18 -5z m182
-53 c8 -4 11 -12 12 -32 1 -19 5 -33 11 -35 2 -1 4 -2 4 -3 0 -1 5 -4 11 -7
14 -7 17 -11 17 -26 0 -10 -1 -12 -6 -17 -3 -3 -7 -6 -9 -6 -19 -1 -26 1 -36
14 -3 4 -9 9 -12 11 -3 2 -6 4 -7 5 -1 1 -6 4 -12 7 -19 9 -20 12 -20 32 -1
20 3 41 7 49 5 11 23 14 40 8z m-391 -34 c5 -5 5 -11 0 -16 -10 -10 -27 5 -16
16 4 4 12 4 16 0z m250 -8 c12 -3 17 -6 21 -15 3 -7 4 -4 -25 -55 -21 -36 -19
-35 -69 -36 -30 -1 -39 -2 -44 -4 -8 -5 -15 -12 -16 -18 0 -2 -2 -6 -3 -8 -1
-2 -2 -8 -3 -13 0 -4 -3 -13 -5 -19 -8 -20 -5 -42 6 -49 11 -8 22 -14 30 -16
8 -3 11 -6 7 -10 -3 -3 -5 -3 -14 -1 -16 3 -30 3 -36 -1 -3 -2 -5 -4 -5 -5 0
-1 -2 -3 -4 -5 -5 -6 -19 -31 -22 -39 -2 -5 -4 -8 -4 -8 -1 0 -2 -1 -2 -3 0
-1 -2 -3 -4 -4 -3 -1 -14 -16 -17 -25 -2 -6 -4 -41 -3 -66 0 -16 0 -18 8 -32
4 -8 7 -16 7 -18 -1 -2 1 -2 9 -2 15 1 30 -2 35 -6 1 -1 3 -5 3 -9 1 -6 1 -6
1 -1 1 4 2 5 5 5 3 -1 4 -2 2 -3 -3 -2 -3 -2 0 -2 2 0 2 -1 0 -3 -3 -3 -3 -4
0 -2 2 1 2 0 -1 -3 -2 -2 -4 -3 -5 -3 -1 1 -2 0 -2 -2 0 -7 -6 -11 -16 -11
-11 0 -17 4 -24 17 -3 5 -6 9 -6 9 -1 0 -2 3 -2 6 0 4 -1 6 -4 7 -2 0 -4 0 -4
-1 0 -1 -9 -1 -20 -1 -22 1 -28 3 -32 11 -3 5 -3 25 0 29 5 6 14 40 14 53 0 7
4 14 12 23 3 3 6 7 6 8 0 2 1 3 2 3 1 0 4 5 5 14 1 2 1 10 2 20 0 9 2 18 3 21
2 2 2 4 2 4 -1 0 2 7 12 30 11 24 12 27 12 40 0 15 0 20 -6 38 -7 19 -4 27 16
48 15 15 18 19 32 48 9 18 17 35 18 38 6 14 12 16 44 17 24 1 32 2 48 7 21 7
20 7 36 3z m161 -171 c10 -9 4 -31 -8 -31 -18 0 -28 -2 -34 -5 l-8 -4 0 -13
c0 -16 1 -18 16 -26 15 -9 19 -14 19 -26 0 -22 -24 -28 -44 -10 -2 2 -9 6 -15
10 -7 4 -15 10 -19 13 -6 7 -6 8 -5 17 0 6 4 21 9 34 4 12 8 24 8 26 0 8 8 11
33 15 13 2 24 4 25 4 0 1 5 1 9 1 7 0 10 -1 14 -5z m-483 -43 c5 -5 6 -7 6
-17 0 -15 -6 -21 -24 -25 l-13 -3 -4 6 c-4 5 -5 9 -5 22 0 9 1 12 6 17 5 5 7
6 17 6 10 0 12 -1 17 -6z m267 -97 c3 -3 3 -4 1 -9 -3 -8 -10 -7 -13 0 -3 4
-2 5 2 8 5 5 6 5 10 1z m-69 -24 c19 -5 28 -6 28 -3 0 2 4 -1 8 -6 7 -7 8 -8
6 -12 -4 -7 -2 -33 3 -44 6 -12 11 -18 24 -27 13 -10 23 -21 29 -33 3 -5 7
-13 10 -17 15 -24 20 -45 12 -54 -4 -4 -7 -5 -13 -5 -10 0 -17 6 -24 20 -9 19
-11 22 -18 28 -7 8 -21 14 -32 15 -5 0 -9 1 -12 5 -2 2 -8 5 -13 6 -5 1 -7 2
-5 2 8 0 10 7 10 41 0 25 0 27 -5 34 -6 8 -22 18 -34 20 -9 2 -14 8 -14 19 -2
17 10 20 40 11z m-61 -205 c5 -7 4 -25 -2 -31 -3 -3 -6 -5 -8 -5 -3 0 -5 -6
-5 -20 0 -14 3 -20 12 -24 4 -2 8 -5 10 -7 3 -3 3 -20 0 -24 -4 -5 -10 -26
-10 -39 -1 -22 -6 -23 -16 -2 -7 14 -17 25 -30 29 -14 5 -18 10 -18 26 0 11 0
12 7 18 4 4 9 7 12 7 3 0 5 1 5 2 0 1 1 2 2 2 3 0 9 6 10 10 2 5 -1 26 -5 29
-4 5 -4 23 1 29 7 9 27 9 35 0z m348 -46 c5 -5 6 -7 6 -16 0 -10 -1 -10 -17
-26 -18 -18 -19 -21 -12 -38 2 -5 6 -15 8 -22 4 -12 15 -26 20 -27 12 -3 18
-3 31 0 23 5 30 5 38 -3 8 -8 8 -24 -1 -33 l-6 -6 -21 1 c-12 0 -25 -1 -30 -2
-19 -5 -34 -31 -33 -56 1 -10 0 -12 -5 -17 -4 -3 -8 -6 -11 -6 -3 0 -7 3 -11
6 l-6 6 0 62 c0 34 0 69 -1 78 0 12 0 16 3 19 2 2 3 4 3 5 0 0 3 4 7 8 6 7 7
8 6 19 0 7 -2 15 -4 17 -6 9 -5 24 2 31 9 9 24 9 34 0z m81 -4 c5 -5 5 -11 0
-16 -10 -10 -27 5 -16 16 4 4 12 4 16 0z m376 -16 c4 -6 4 -7 -9 -37 -2 -7 -5
-16 -6 -21 -3 -19 -8 -24 -26 -24 -18 0 -24 5 -24 22 -1 17 1 21 17 30 7 5 15
10 17 12 2 2 4 4 5 4 1 0 2 2 3 4 1 4 14 14 17 14 1 0 3 -2 6 -4z m-708 -99
c4 -4 8 -8 9 -10 1 -5 9 -14 19 -20 12 -8 15 -14 11 -20 -2 -2 -7 -7 -11 -10
-17 -11 -25 -27 -24 -48 1 -11 1 -12 -5 -18 -4 -3 -8 -6 -10 -7 -2 0 -12 -3
-22 -7 -10 -4 -20 -7 -22 -7 -10 -1 -16 0 -20 5 -5 5 -5 6 -4 18 1 16 2 17 20
26 19 10 25 15 29 23 6 11 5 16 -6 38 -11 22 -12 29 -5 35 6 6 8 7 22 7 9 0
13 -1 19 -5z m783 -62 c5 -5 2 -18 -5 -30 -4 -6 -9 -17 -11 -25 -10 -28 -14
-33 -31 -33 -18 0 -33 14 -37 34 -3 14 13 37 33 48 20 11 43 14 51 6z m76 -4
c3 -5 3 -5 0 -10 -2 -3 -5 -5 -7 -5 -2 0 -5 2 -7 5 -3 5 -3 5 0 10 2 3 5 5 7
5 2 0 5 -2 7 -5z m-720 -37 c7 -6 7 -19 1 -25 -6 -7 -19 -7 -25 -1 -7 6 -7 19
-1 25 6 7 19 7 25 1z m194 -19 c6 -4 6 -6 6 -20 0 -14 0 -16 -6 -20 -4 -4 -7
-5 -18 -5 -11 0 -14 1 -18 5 -6 4 -6 6 -6 20 0 14 0 16 6 20 4 4 7 5 18 5 11
0 14 -1 18 -5z m-334 -97 c9 -9 6 -25 -11 -58 -5 -9 -10 -18 -13 -19 -2 -2
-12 -4 -22 -5 -9 -1 -25 -5 -34 -7 -19 -7 -27 -7 -37 -3 -12 5 -18 19 -14 35
3 11 6 14 25 22 19 8 26 13 34 23 11 14 23 18 50 17 15 0 18 -1 22 -5z m310
-14 c8 -8 8 -24 0 -32 -6 -6 -22 -10 -29 -7 -5 2 -11 15 -11 25 1 20 25 29 40
14z m458 -13 c6 -4 8 -8 10 -18 1 -9 7 -27 13 -43 3 -8 4 -14 4 -23 -2 -17 -4
-19 -38 -25 -10 -2 -29 -3 -39 -2 -2 0 -6 3 -9 6 -9 9 -9 25 1 40 11 16 19 38
19 51 0 15 25 24 39 14z m-593 -2 c12 -5 18 -21 14 -36 -3 -11 -6 -13 -24 -22
-19 -9 -26 -18 -33 -43 -5 -15 -11 -20 -24 -20 -12 0 -17 4 -28 27 -15 31 -13
38 13 50 11 6 18 11 31 24 22 22 34 27 51 20z m477 -18 c4 -4 5 -7 5 -15 0
-14 -6 -20 -20 -20 -14 0 -20 6 -20 20 0 14 6 20 20 20 8 0 11 -1 15 -5z
m-398 -42 c3 -3 3 -3 0 -6 -4 -5 -11 1 -7 6 4 4 4 4 7 0z m-424 -24 c2 -2 13
-11 23 -21 19 -18 20 -20 18 -37 -1 -14 -29 -19 -39 -6 -5 7 -13 21 -21 37 -7
13 -7 22 -2 29 3 4 14 2 21 -2z m387 -25 c3 -2 6 -3 6 -3 1 1 4 -4 7 -9 8 -17
9 -41 6 -147 l-1 -48 -5 -5 c-8 -8 -14 -8 -22 -1 l-6 6 1 36 c0 33 0 38 -5 56
-6 24 -6 32 -1 52 5 18 4 27 -3 41 -8 16 -9 23 -5 28 4 3 5 3 14 0 5 -1 11 -4
14 -6z m517 -78 c6 -5 7 -18 2 -22 -1 -1 -3 -4 -3 -7 -1 -6 -11 -6 -18 1 -9 8
-10 20 -4 27 6 6 17 7 23 1z m-72 -48 c-1 -11 0 -24 1 -28 2 -9 -2 -18 -8 -18
-4 0 -11 9 -9 12 0 1 1 6 2 11 0 6 1 17 2 25 1 13 1 14 -2 14 -3 0 -3 1 2 5 5
4 6 4 9 2 3 -3 4 -6 3 -23z m-794 5 c3 -3 3 -3 0 -6 -4 -5 -11 1 -7 6 4 4 4 4
7 0z m-61 -17 c6 -4 10 -18 9 -30 -1 -7 -2 -10 -8 -13 -12 -8 -31 -8 -39 1 -9
8 -8 33 0 41 8 7 28 8 38 1z m939 -7 c4 -4 7 -10 7 -12 0 -5 -12 -19 -17 -19
-6 0 -11 22 -6 26 2 1 3 5 3 7 0 7 5 6 13 -2z m-21 -59 c5 -10 5 -20 0 -25 -9
-10 -26 -3 -26 10 0 8 11 20 21 23 1 0 3 -4 5 -8z m-867 1 c3 -3 3 -3 0 -6 -4
-5 -11 1 -7 6 3 4 4 4 7 0z m247 -43 c10 -4 22 -8 26 -9 10 -2 16 -8 16 -17 0
-15 -13 -20 -33 -11 -15 7 -36 15 -39 15 -2 0 -5 2 -8 5 -3 3 -4 5 -3 5 1 0 1
1 -1 3 -1 2 -1 3 0 5 2 1 2 2 1 2 -1 0 0 2 3 5 6 7 12 6 38 -3z m272 -5 l-5
-5 -4 4 -5 5 4 4 5 5 4 -4 5 -5 -4 -4z m268 -15 c5 -6 5 -12 0 -18 -7 -8 -22
-2 -22 9 0 11 15 17 22 9z m159 -27 c5 -8 1 -16 -8 -16 -9 0 -13 8 -8 16 2 3
5 5 8 5 3 0 6 -2 8 -5z"/>
<path d="M982 3728 c-3 -1 -6 -1 -7 0 0 0 -1 0 -1 -2 0 -1 -1 -2 -3 -2 -4 0
-14 -12 -18 -21 -2 -5 -3 -14 -3 -32 0 -23 0 -26 5 -36 6 -12 16 -21 31 -28
15 -8 21 -13 26 -21 9 -15 2 -27 -16 -25 -6 0 -15 0 -21 -2 l-10 -2 -1 -13
c-1 -13 -1 -15 8 -24 5 -5 10 -14 10 -17 0 -5 -6 -14 -14 -21 -4 -3 -10 -11
-13 -17 l-5 -11 0 -124 c0 -122 0 -125 4 -133 2 -5 6 -9 7 -9 2 0 3 -1 3 -2 0
-1 3 -3 7 -4 6 -2 9 -2 32 -2 12 0 20 -8 20 -22 0 -14 -8 -22 -20 -22 -23 0
-26 0 -32 -2 -4 -1 -7 -3 -7 -4 0 -1 -1 -2 -3 -2 -4 0 -11 -16 -11 -25 0 -16
8 -30 23 -39 27 -18 26 -18 40 -18 7 0 13 1 13 2 0 1 3 3 7 4 4 1 7 3 7 4 0 4
10 2 13 -3 3 -5 3 -6 1 -11 -4 -6 -12 -8 -14 -3 -2 2 -5 3 -15 2 -8 0 -13 1
-14 2 0 1 -1 1 -1 -1 0 -2 -2 -4 -5 -6 -5 -3 -10 -10 -14 -23 -4 -12 -17 -39
-19 -39 -1 0 1 -24 3 -28 2 -4 14 -10 21 -10 3 0 4 -1 2 -2 -1 -1 0 -2 4 -6 5
-4 8 -4 30 -4 19 0 25 1 28 3 5 5 19 7 57 7 38 0 52 -2 57 -7 4 -4 59 -4 61
-1 4 6 15 7 107 8 106 1 102 1 118 16 6 6 30 37 37 49 6 9 11 12 20 14 10 2
21 -2 26 -8 3 -5 3 -6 -1 -14 -5 -8 -6 -10 -11 -16 -1 -1 -3 -8 -3 -15 l0 -14
11 -5 10 -6 75 0 75 -1 10 5 c7 3 15 10 23 18 18 21 31 21 49 1 15 -17 30 -20
47 -12 5 3 13 5 17 5 11 1 31 7 37 11 14 12 14 55 0 77 -2 4 -5 7 -6 7 -4 0
-11 15 -11 21 2 18 6 32 10 40 16 33 18 39 17 68 -1 29 -3 32 -25 54 -14 14
-33 35 -43 47 -3 3 -4 8 -4 15 0 22 7 29 29 29 23 -1 36 5 40 18 4 9 4 187 1
195 -3 8 -13 17 -22 19 -8 2 -11 2 -26 2 -11 0 -20 6 -28 19 -3 5 -8 12 -11
15 -6 6 -29 18 -33 18 -3 0 -12 10 -12 13 0 7 6 11 16 11 6 0 13 2 18 4 8 4 8
4 8 13 -1 7 -2 10 -5 12 -2 1 -6 5 -10 9 -3 3 -7 6 -9 6 -5 0 -23 7 -30 11
-15 11 -33 14 -41 7 -5 -4 -11 -18 -15 -35 -3 -11 -6 -19 -10 -24 -7 -8 -16
-30 -16 -38 0 -4 7 -23 10 -25 1 -1 2 -2 3 -4 0 -2 3 -7 6 -11 8 -14 4 -27 -8
-27 -5 0 -25 13 -25 16 0 1 -7 6 -15 12 -19 13 -21 16 -21 30 0 8 2 13 7 23 8
15 12 32 10 43 -2 12 3 23 12 31 5 4 10 7 11 7 2 0 2 0 0 2 -1 1 -2 6 -2 16 1
25 21 22 -181 21 -96 0 -175 -1 -177 -1 -7 -3 -15 -7 -23 -12 -9 -6 -9 -6 -9
-18 0 -7 1 -13 2 -14 0 -1 3 -6 5 -12 5 -10 5 -11 1 -15 -4 -6 -7 -6 -15 1 -4
5 -5 7 -3 8 2 2 -6 10 -11 10 -12 1 -31 -3 -31 -7 0 -1 -3 -5 -7 -10 -4 -5
-10 -16 -15 -25 -9 -20 -15 -26 -22 -18 -4 5 -4 12 1 33 4 18 5 49 0 56 -4 8
-11 15 -19 20 -7 4 -11 4 -84 4 -42 1 -79 0 -82 -1z m509 -51 c3 -5 3 -5 0
-10 -2 -3 -5 -5 -7 -5 -2 0 -5 2 -7 5 -3 5 -3 5 0 10 2 3 5 5 7 5 2 0 5 -2 7
-5z m-73 -95 c2 0 8 -5 14 -11 13 -13 22 -16 45 -15 14 0 17 -1 20 -4 6 -5 7
-21 2 -23 -2 -1 -2 -3 -1 -8 1 -3 2 -9 3 -13 1 -6 3 -9 8 -13 l8 -6 36 0 36 0
6 -6 c9 -9 9 -23 0 -32 -5 -5 -8 -6 -16 -6 -31 -1 -43 -24 -25 -49 12 -17 13
-27 7 -47 -4 -12 -13 -15 -32 -10 -13 4 -17 8 -24 28 -3 8 -9 20 -12 25 -4 5
-8 10 -8 12 -1 2 -2 3 -3 4 -1 1 -5 6 -9 13 -4 6 -10 13 -14 15 -3 2 -7 4 -8
5 -4 3 -12 4 -41 4 -29 0 -40 -1 -40 -3 0 -1 -3 -3 -7 -5 -4 -1 -9 -6 -12 -10
-9 -12 -15 -17 -23 -17 -8 0 -14 5 -23 17 -3 4 -8 9 -12 10 -4 2 -7 4 -7 5 0
1 -1 1 -2 2 -2 0 -8 0 -14 1 -13 2 -33 -4 -53 -16 -14 -9 -22 -11 -44 -12 -10
-1 -23 -3 -29 -4 -6 -2 -15 -5 -21 -6 -10 -3 -15 -3 -26 1 -12 5 -15 27 -6 45
8 16 19 19 44 11 16 -5 29 -6 40 -3 4 2 13 4 19 5 7 1 11 3 11 4 -1 1 -1 2 0
2 2 0 2 31 0 34 0 0 -5 3 -10 6 -11 6 -16 13 -16 27 0 26 20 34 52 22 16 -6
19 -8 25 -15 4 -5 4 -6 1 -12 -2 -3 -6 -6 -8 -6 -3 0 -3 -1 -1 -1 3 -1 3 -4 3
-15 -1 -11 0 -16 2 -19 l3 -5 62 0 c65 0 80 2 85 10 2 3 5 30 3 31 -1 0 -5 5
-10 10 -8 10 -9 12 -9 21 0 15 10 24 24 23 2 0 5 -1 7 -1z m-296 -9 c11 -12 3
-33 -16 -41 -27 -11 -43 1 -33 25 7 18 38 28 49 16z m571 -103 c4 -4 5 -7 5
-20 -1 -18 1 -34 5 -44 3 -9 8 -39 7 -49 -1 -5 -3 -10 -5 -12 -8 -8 -45 -3
-54 7 -3 3 -4 8 -4 19 -1 15 1 21 11 32 8 10 11 21 9 43 -1 17 -1 19 3 23 6 7
18 7 23 1z m136 -26 c7 -6 7 -19 1 -25 -6 -7 -19 -7 -25 -1 -7 6 -7 19 -1 25
6 7 19 7 25 1z m-231 -142 c5 -6 5 -17 0 -34 -4 -15 -4 -28 0 -54 5 -29 9 -36
28 -44 8 -4 18 -13 18 -16 0 -10 -17 -47 -26 -55 -10 -10 -35 -6 -43 6 -5 8
-10 31 -7 31 1 0 1 1 -1 3 -1 2 -3 5 -4 7 -1 4 -2 4 -3 2 -1 -2 -2 -2 -2 -1 0
4 -14 6 -26 3 -14 -3 -23 -3 -29 1 -5 3 -23 3 -32 -1 -18 -7 -29 -40 -23 -65
7 -27 -16 -46 -42 -36 -12 5 -18 21 -14 36 2 9 4 11 17 23 7 6 15 18 12 18 -1
0 -1 1 1 3 5 5 3 25 -2 25 -1 0 -2 1 -2 3 0 4 -8 10 -18 15 -16 7 -103 5 -125
-4 -8 -3 -30 -8 -41 -9 -5 -1 -19 -3 -31 -5 -32 -6 -43 -2 -47 15 -4 18 1 28
20 38 8 4 18 10 22 13 17 13 19 13 45 6 l22 -6 118 0 c125 0 127 0 135 9 4 5
12 26 13 33 1 7 6 15 19 26 5 5 10 10 10 11 0 1 3 4 6 7 6 6 6 6 17 3 7 -2 13
-4 15 -7z m107 -19 c4 -4 3 -14 -3 -22 -4 -5 -23 -13 -31 -13 -13 0 -19 13
-11 26 6 12 36 18 45 9z m34 -137 c6 -4 10 -12 10 -24 0 -14 -2 -16 -14 -26
-10 -7 -17 -15 -18 -20 0 -2 -1 -4 -1 -6 -4 -10 -5 -18 -4 -21 3 -4 0 -19 -5
-24 -8 -10 -32 -11 -41 -1 -9 8 -9 33 0 40 15 12 18 15 21 19 2 3 4 6 4 7 0 2
1 4 1 6 4 10 5 18 4 21 -3 4 0 19 5 24 7 8 26 11 38 5z m-405 -95 c4 -4 4 -4
1 -14 -3 -8 -6 -11 -15 -17 -6 -4 -12 -8 -13 -8 -3 0 -20 -13 -29 -22 -16 -16
-29 -20 -44 -12 -9 4 -13 12 -13 25 0 19 8 26 29 28 16 1 36 8 48 15 16 11 29
12 36 5z m479 -1 c21 -5 26 -9 24 -19 -2 -17 -15 -21 -45 -14 -18 4 -26 11
-26 21 0 16 15 20 47 12z m-759 -115 c-10 -1 -26 -1 -35 0 -10 0 -2 0 17 0 19
0 27 0 18 0z m177 0 c-13 -1 -33 -1 -45 0 -13 0 -3 0 22 0 25 0 35 0 23 0z"/>
<path d="M1816 3728 c-5 -1 -5 -2 -6 -19 0 -12 -1 -17 -3 -17 -1 0 3 -2 10 -4
19 -7 21 -9 21 -30 0 -9 1 -20 2 -23 1 -3 1 -5 1 -5 -1 0 1 -4 3 -8 8 -15 10
-17 10 -14 0 1 4 2 14 2 12 -1 15 0 19 4 5 5 5 5 5 43 0 31 -1 40 -3 46 -4 9
-14 21 -18 21 -2 0 -3 1 -3 2 0 2 -1 2 -26 3 -12 0 -23 0 -26 -1z"/>
<path d="M1167 2920 c0 -1 -1 -9 -1 -18 l-1 -16 -6 0 c-4 0 -3 -1 4 -2 6 -1
14 -4 18 -7 4 -3 9 -5 9 -5 1 0 4 -2 6 -4 2 -2 9 -5 15 -7 7 -2 13 -4 14 -5 2
-2 23 7 29 14 8 7 11 20 8 30 -3 6 -14 18 -17 18 -2 0 -3 1 -3 2 0 2 -73 3
-75 0z"/>
<path d="M1469 2920 c-2 -1 -5 -1 -6 0 0 0 -1 0 -1 -2 0 -1 -1 -2 -3 -2 -4 0
-14 -12 -18 -21 -4 -11 -4 -65 0 -79 4 -11 14 -23 24 -28 10 -5 15 -12 14 -18
-2 -7 -8 -16 -15 -19 -7 -4 -17 -14 -21 -21 -5 -9 -5 -21 1 -44 l4 -19 -5 -25
c-6 -28 -7 -55 -3 -69 4 -14 5 -15 21 -15 l15 0 1 -8 c0 -9 0 -9 1 1 0 13 4
17 19 17 13 0 19 -6 19 -20 0 -13 -5 -19 -20 -21 -11 -2 -18 0 -18 4 0 4 -6 3
-13 -2 -5 -3 -5 -4 -4 -19 0 -21 -2 -34 -10 -51 -12 -25 -16 -57 -10 -72 2 -6
13 -19 13 -16 0 1 2 0 4 -1 4 -2 13 -4 24 -5 5 -1 10 -2 12 -2 2 -1 3 -2 4 -2
6 -1 18 -6 19 -8 0 -1 -2 -7 -4 -13 -3 -6 -6 -15 -6 -19 -1 -4 -1 -12 -2 -16
0 -5 1 -14 2 -20 l3 -12 -7 -7 c-3 -4 -7 -8 -8 -8 0 0 -4 -3 -7 -7 -3 -4 -11
-10 -17 -13 -5 -4 -11 -8 -11 -9 -1 -1 -2 -1 -2 0 0 1 -3 -2 -7 -6 -8 -8 -10
-19 -8 -33 l1 -8 16 1 c10 0 16 -1 16 -2 0 -1 3 4 7 12 10 21 14 23 34 21 6 0
11 -10 11 -21 0 -11 -5 -17 -21 -25 -5 -2 -13 -8 -17 -12 -4 -5 -8 -8 -9 -8
-2 0 -24 -18 -28 -24 -6 -7 -10 -24 -8 -34 2 -8 2 -11 4 -22 3 -22 13 -41 24
-47 8 -4 13 -14 16 -28 5 -27 10 -35 30 -50 39 -28 81 -37 162 -36 41 0 42 0
53 5 6 3 14 9 18 12 13 12 15 13 31 12 8 0 19 -1 26 -3 27 -7 31 -8 43 -5 18
4 39 20 65 50 3 4 23 37 23 39 0 0 3 7 6 14 14 31 27 79 35 133 9 58 9 68 -1
87 -7 15 -30 30 -61 40 -27 9 -39 9 -62 -2 -3 -2 -9 -3 -13 -4 -4 -1 -14 -3
-22 -5 -27 -8 -33 -8 -35 -5 -1 3 -3 3 -12 2 -10 -1 -28 -9 -26 -10 0 -1 -1
-5 -2 -9 -3 -5 -4 -16 -4 -37 -1 -41 -4 -49 -16 -56 -14 -7 -34 -6 -42 3 -10
11 -6 35 8 51 4 4 9 13 12 19 l6 11 1 65 c1 65 1 65 6 73 3 4 6 8 6 9 1 0 5 3
9 6 4 3 12 9 18 13 7 4 16 12 21 17 l9 9 -1 13 c-1 8 -2 15 -4 17 -4 5 -26 15
-32 14 -25 -3 -31 -8 -39 -33 -11 -32 -45 -58 -57 -44 -7 8 -3 22 13 40 14 15
20 47 15 73 -4 19 -4 20 -7 29 -6 17 -1 28 12 28 5 0 18 -9 15 -11 -1 0 2 -6
6 -17 4 -8 8 -11 17 -13 12 -3 16 -3 27 0 14 4 27 2 33 -5 4 -5 15 -18 17 -22
2 -2 17 -13 22 -16 10 -5 35 -2 45 6 25 20 29 29 29 60 0 19 1 20 25 42 15 14
21 19 30 21 6 2 14 6 17 9 7 5 7 6 7 18 -1 12 -2 16 -11 26 -2 3 -5 6 -5 7 -2
2 -16 20 -26 33 -1 1 -3 3 -4 5 -1 1 -8 10 -15 19 -15 18 -22 25 -37 37 -5 4
-13 12 -16 17 -10 14 -13 16 -30 16 l-14 0 -16 -20 c-15 -19 -25 -30 -57 -66
-8 -9 -16 -18 -16 -20 -2 -3 -2 -3 -2 1 0 1 -1 3 -2 3 -4 0 -8 12 -8 32 0 16
-1 22 -4 29 -5 9 -18 21 -23 21 -2 0 -6 3 -9 6 l-6 6 6 6 c3 3 7 6 9 6 5 0 18
12 23 21 5 12 6 48 1 60 -4 9 -14 21 -18 21 -2 0 -3 1 -3 2 0 1 -2 2 -3 2 -7
1 -211 1 -216 0z m76 -42 c7 -1 19 -2 27 -2 12 0 16 -1 18 -5 8 -8 2 -19 -13
-27 -4 -2 -11 -6 -14 -9 -5 -5 -15 -24 -15 -29 0 -2 -2 -7 -5 -10 -5 -6 -7 -6
-15 -6 -18 1 -20 7 -15 32 2 11 3 20 2 33 -1 22 1 28 12 26 3 0 11 -2 18 -3z
m24 -155 c5 -8 1 -16 -8 -16 -9 0 -13 8 -8 16 2 3 5 5 8 5 3 0 6 -2 8 -5z
m282 -41 c7 -6 7 -19 1 -25 -6 -7 -19 -7 -25 -1 -7 6 -7 19 -1 25 6 7 19 7 25
1z m-179 -14 c0 -1 1 -2 2 -2 3 1 6 0 6 -2 0 -1 -2 -2 -4 -2 -2 0 -4 -1 -4 -2
-1 -2 -2 -2 -5 0 -3 3 -3 4 -1 7 3 3 6 4 6 1z m-65 -45 c12 -12 3 -31 -13 -31
-11 0 -18 7 -18 18 0 11 7 18 18 18 6 0 9 -1 13 -5z m8 -125 c10 -9 3 -26 -10
-26 -8 0 -15 7 -15 15 0 13 16 20 25 11z m-48 -114 c6 -6 7 -17 1 -23 -6 -6
-17 -7 -27 -2 -5 2 -8 4 -8 4 -2 1 4 13 5 13 1 0 2 1 2 2 0 4 9 10 16 10 4 0
8 -2 11 -4z m82 -37 c5 -8 1 -16 -8 -16 -9 0 -13 8 -8 16 2 3 5 5 8 5 3 0 6
-2 8 -5z m-26 -75 c6 -4 9 -9 13 -23 8 -28 -1 -41 -27 -39 -3 0 -8 4 -13 9
-12 12 -19 16 -34 21 -14 5 -21 10 -22 17 0 3 1 5 4 6 2 1 4 2 4 3 0 1 5 1 12
1 11 -1 41 3 48 7 5 3 8 2 15 -2z m212 -47 c3 -5 3 -5 0 -10 -2 -3 -5 -5 -7
-5 -2 0 -5 2 -7 5 -3 5 -3 5 0 10 2 3 5 5 7 5 2 0 5 -2 7 -5z m96 -10 c3 -5 3
-5 0 -10 -2 -3 -5 -5 -7 -5 -2 0 -5 2 -7 5 -3 5 -3 5 0 10 2 3 5 5 7 5 2 0 5
-2 7 -5z m-351 -140 c21 -8 30 -13 33 -19 4 -8 -1 -13 -18 -17 -38 -8 -76 -7
-83 1 -5 6 -5 24 0 30 8 10 48 13 68 5z m166 -22 c15 -6 30 -8 38 -5 6 2 25 3
39 2 2 0 6 -3 9 -6 5 -5 6 -7 6 -18 0 -11 -1 -13 -6 -18 -3 -3 -7 -6 -9 -6
-14 -1 -20 0 -34 7 -17 9 -30 10 -45 4 -5 -2 -15 -4 -22 -4 -12 -1 -14 -1 -19
4 -6 4 -6 6 -6 20 0 14 0 16 6 20 5 5 7 5 19 4 7 0 18 -2 24 -4z"/>
<path d="M1759 2351 c-8 -7 -13 -18 -12 -31 1 -21 10 -31 26 -30 6 0 11 -1 11
-3 1 -1 2 -1 2 2 0 2 4 7 9 12 9 8 10 9 11 21 1 13 -3 22 -14 30 -8 6 -25 5
-33 -1z"/>
</g>
</svg>
