<?xml version="1.0" standalone="no"?>
<!DOCTYPE svg PUBLIC "-//W3C//DTD SVG 20010904//EN"
 "http://www.w3.org/TR/2001/REC-SVG-20010904/DTD/svg10.dtd">
<svg version="1.0" xmlns="http://www.w3.org/2000/svg"
 width="1000.000000pt" height="2850.000000pt" viewBox="0 0 1000.000000 2850.000000"
 preserveAspectRatio="xMidYMid meet">
<metadata>
Created by potrace 1.15, written by Peter Selinger 2001-2017
</metadata>
<g transform="translate(0.000000,2850.000000) scale(0.500000,-0.500000)"
fill="#000000" stroke="none">
<path d="M1198 3811 c-29 -6 -36 -10 -54 -26 -14 -13 -17 -14 -30 -13 -8 0
-32 -5 -42 -10 -12 -5 -19 -6 -27 -3 -3 1 -7 3 -8 3 -1 0 -4 1 -7 2 -10 4 -27
2 -33 -5 -3 -3 -7 -25 -6 -27 1 -1 2 -4 2 -6 0 -2 3 -10 5 -18 3 -8 5 -16 5
-18 1 -2 2 -8 5 -14 l3 -11 -5 -6 c-5 -5 -6 -5 -23 -5 -29 0 -36 -5 -35 -25 0
-9 -1 -13 -2 -13 -2 0 -1 -1 2 -2 6 -3 8 -11 8 -25 -2 -16 -7 -21 -25 -21 -18
0 -23 5 -25 21 0 14 2 22 8 25 3 1 4 2 2 2 -1 0 -2 4 -2 13 1 15 -2 20 -14 23
-7 2 -315 2 -345 0 -27 -2 -35 -7 -46 -24 -4 -6 -8 -12 -9 -12 -2 -1 0 -25 2
-31 1 -3 6 -8 11 -13 7 -7 9 -10 9 -16 0 -15 -16 -21 -31 -11 -4 3 -8 6 -9 7
-1 1 -10 6 -21 12 -12 5 -22 12 -23 14 -3 6 -2 16 3 27 4 8 6 12 5 21 0 15 -1
17 -11 22 -8 5 -8 5 -63 5 -55 0 -66 -1 -66 -3 0 -1 -1 -2 -3 -2 -1 0 -5 -3
-8 -6 -8 -8 -10 -21 -6 -36 4 -15 4 -21 -1 -40 -4 -15 -5 -24 -6 -77 l-1 -60
-5 -6 c-6 -5 -6 -5 -6 -1 0 8 -11 24 -20 28 -8 4 -23 5 -30 2 -1 -1 -8 -4 -14
-7 -6 -2 -22 -10 -36 -17 -14 -6 -31 -14 -39 -18 -8 -4 -23 -11 -35 -16 -11
-6 -21 -10 -21 -10 -4 0 -22 -14 -24 -19 -9 -16 -9 -25 1 -52 10 -29 16 -47
23 -66 13 -35 17 -39 53 -54 5 -1 10 -6 13 -11 10 -14 21 -26 30 -31 15 -9 19
-18 11 -27 -4 -5 -13 -5 -18 -1 -2 2 -8 3 -17 3 -17 1 -20 -1 -24 -12 -3 -6
-2 -8 5 -34 5 -15 9 -29 9 -31 3 -16 17 -62 20 -67 6 -10 13 -15 26 -16 12 -1
13 0 45 17 8 5 21 12 28 15 7 4 13 8 14 9 0 1 3 -2 6 -5 l6 -7 -1 -54 c-2 -77
-2 -80 3 -90 2 -4 11 -16 21 -26 17 -17 18 -19 17 -33 0 -11 -9 -19 -21 -19
-11 0 -16 3 -31 15 -5 5 -10 8 -12 8 -1 0 -2 1 -2 2 0 1 -1 2 -2 2 -1 0 -10 5
-19 11 -15 10 -18 12 -29 12 -13 1 -13 1 -26 -8 -22 -17 -33 -25 -42 -29 -8
-5 -18 -11 -48 -30 -7 -4 -19 -11 -27 -17 -40 -24 -44 -29 -47 -48 -1 -9 0
-13 4 -26 4 -9 6 -17 7 -19 0 -2 4 -13 9 -26 5 -13 9 -25 10 -28 1 -3 7 -19
13 -37 6 -18 16 -46 22 -62 16 -46 20 -51 42 -52 11 -1 13 0 19 6 8 6 14 11
25 20 3 2 20 16 39 31 18 14 34 26 35 26 4 0 7 -6 7 -13 0 -8 -13 -70 -21
-104 -4 -15 -8 -34 -8 -42 -2 -27 -3 -33 -9 -45 -4 -7 -7 -12 -8 -12 -2 0 -12
-24 -27 -62 -11 -28 -39 -85 -54 -110 -11 -19 -22 -35 -23 -36 -4 -3 -8 -15
-8 -23 0 -15 5 -22 25 -38 10 -7 21 -16 24 -19 6 -5 9 -6 18 -6 13 0 16 2 30
13 12 11 23 12 31 4 5 -5 6 -19 1 -23 -2 -1 -3 -4 -3 -5 0 -1 -2 -4 -4 -5 -5
-5 -9 -19 -7 -29 1 -7 4 -11 21 -29 12 -12 25 -26 30 -32 l10 -10 15 0 c11 0
16 1 19 4 6 4 36 49 50 73 2 3 8 14 13 23 12 21 51 99 51 103 0 1 2 5 4 10 25
54 61 172 79 256 7 33 19 94 22 113 8 49 9 58 10 69 1 7 2 14 2 16 4 22 16
147 18 190 1 14 2 28 2 31 3 16 4 131 4 348 l0 247 6 6 6 6 75 0 c96 1 81 1
185 0 103 -1 105 -1 120 14 4 4 11 12 14 17 3 5 10 10 16 13 5 3 11 6 12 8 1
1 4 3 5 4 6 2 10 10 8 16 0 2 -1 12 0 20 1 14 1 15 11 24 8 9 9 10 9 20 0 11
-6 22 -10 20 -1 -1 -2 0 -2 1 0 1 -1 4 -3 5 -4 4 -4 16 1 24 8 12 30 20 37 13
7 -8 0 -31 -11 -37 -6 -3 -7 -5 -6 -10 0 -1 -1 -1 -2 0 -1 1 -2 -3 -2 -11 0
-7 1 -12 2 -12 1 0 2 -1 1 -2 -1 -1 3 -5 8 -9 5 -5 12 -13 16 -20 4 -6 8 -12
9 -14 5 -6 12 -13 13 -13 1 -1 4 -4 6 -8 3 -6 3 -6 -1 -11 -4 -5 -5 -5 -13 -2
-4 2 -10 5 -13 7 -3 2 -10 4 -18 5 -12 1 -13 1 -17 -4 -2 -3 -4 -4 -5 -4 -2 1
0 -25 2 -28 10 -13 16 -17 24 -21 9 -5 10 -5 89 -6 74 -1 81 -1 88 -5 4 -2 10
-4 12 -5 4 -2 4 -2 0 -2 -4 0 -6 -3 -10 -11 l-5 -11 0 -124 c0 -124 -1 -145
-7 -149 -3 -2 -1 -13 3 -21 1 -3 3 -17 3 -32 1 -28 0 -45 -6 -57 -1 -3 -3 -8
-4 -10 0 -3 -1 -2 -1 2 0 7 -4 14 -14 22 -19 16 -20 18 -20 30 l0 12 13 12
c15 14 21 25 21 34 0 19 -24 37 -49 37 -21 1 -28 -4 -39 -25 -6 -12 -12 -19
-17 -19 -14 -2 -24 3 -26 11 0 2 -1 4 -1 4 0 0 0 3 -1 7 0 9 -10 29 -11 24 0
-2 -1 -3 -3 -3 -2 1 -3 0 -3 -1 0 -1 -1 -2 -2 -1 -1 1 -6 1 -11 0 -8 -1 -10
-3 -14 -9 -4 -7 -4 -8 -6 -100 0 -51 -1 -95 -2 -98 0 -3 -1 -19 -2 -36 -1 -16
-2 -32 -2 -34 -1 -3 -1 -12 -1 -22 0 -9 -1 -15 -2 -14 -1 1 -2 0 -3 -4 -2 -9
-11 -16 -11 -8 0 5 -13 20 -17 20 -2 0 -3 1 -3 2 0 2 0 2 -33 4 -15 1 -34 3
-42 4 -26 4 -35 5 -36 4 -1 -2 -17 0 -22 3 -7 5 -9 9 -12 39 -4 26 -4 28 0 33
2 3 5 5 7 5 6 0 17 -7 21 -14 2 -3 5 -6 6 -6 0 0 1 -1 1 -2 0 -5 26 -4 31 1
13 12 12 41 -2 54 -6 7 -26 15 -34 15 -9 0 -15 8 -15 21 0 13 6 21 15 21 8 0
28 8 34 15 8 8 11 19 11 40 -1 16 -1 16 5 22 6 6 7 6 25 6 25 0 36 2 33 7 -1
1 0 2 1 2 1 0 2 -1 3 -2 0 -2 1 5 1 15 1 12 0 17 -1 17 -7 0 -12 17 -7 26 1 2
9 8 18 13 27 15 28 19 28 80 0 38 -1 48 -3 54 -4 9 -14 21 -18 21 -2 0 -3 1
-3 2 0 3 -13 3 -150 3 l-139 0 -12 -6 c-11 -5 -13 -7 -18 -18 -10 -21 -11 -23
-11 -26 0 -5 -10 -11 -18 -11 -9 0 -15 7 -13 15 2 9 2 9 0 17 -2 12 -6 24 -7
22 -1 -1 -5 -2 -11 -2 -10 -1 -15 -5 -22 -16 l-5 -8 0 -86 c0 -74 0 -87 3 -93
4 -9 14 -21 18 -21 2 0 3 -1 3 -2 0 -2 1 -2 28 -3 14 -1 26 -1 31 1 11 3 25
12 32 22 8 11 15 14 27 14 9 0 11 -1 16 -6 5 -5 6 -7 6 -17 0 -13 -5 -20 -15
-22 -5 -1 -7 -3 -9 -8 -3 -8 -3 -29 1 -33 2 -3 15 -8 49 -18 13 -4 15 -5 17
-11 4 -10 4 -20 -2 -25 -6 -6 -33 -12 -49 -12 -17 1 -34 -3 -41 -9 -9 -8 -11
-15 -11 -40 0 -24 2 -33 14 -56 8 -18 9 -33 0 -41 -3 -3 -7 -6 -9 -6 -9 -1
-21 0 -37 3 -10 2 -20 3 -25 2 -4 -1 -9 -2 -9 -1 -1 0 -2 -1 -2 -2 0 -1 -1 -2
-3 -2 -4 0 -14 -12 -18 -21 -5 -11 -5 -177 0 -188 4 -9 14 -21 18 -21 2 0 3
-1 3 -2 0 0 2 -2 6 -2 9 -2 55 -1 67 1 28 5 41 -2 41 -22 0 -9 -1 -12 -5 -17
-3 -3 -6 -6 -7 -6 -3 0 -14 -13 -13 -16 1 -1 0 -2 -1 -1 -1 1 -2 -4 -2 -13 l0
-14 6 0 c3 -1 8 -1 10 -1 1 0 4 -1 4 -2 1 -1 2 -1 2 1 0 1 4 2 13 2 11 0 14
-1 18 -5 6 -4 6 -6 6 -20 0 -14 0 -16 -6 -20 -4 -4 -7 -5 -18 -5 -7 0 -13 1
-13 2 0 2 -21 -3 -27 -6 -4 -2 -11 -12 -12 -16 0 -1 -1 -23 -1 -49 l0 -46 -5
-8 c-3 -5 -6 -8 -7 -8 -1 0 -11 -2 -22 -6 -32 -10 -38 -19 -35 -52 1 -14 1
-16 -3 -20 -4 -4 -7 -5 -13 -5 -10 0 -12 2 -20 18 -3 5 -6 10 -7 9 -1 0 -9 -1
-17 -1 l-17 -1 0 -9 c-1 -5 -1 -13 0 -17 2 -9 13 -61 16 -73 3 -15 17 -31 31
-37 9 -4 16 -3 47 3 15 3 30 0 35 -7 2 -4 2 -12 -1 -22 -1 -3 -2 -10 -2 -15 0
-14 4 -17 20 -16 14 1 46 13 184 67 7 2 27 10 45 17 46 18 50 20 63 40 13 20
18 26 29 31 16 8 26 19 30 32 4 11 4 11 -3 47 -9 50 -11 60 -17 72 -3 6 -6 14
-8 19 -4 9 -18 24 -26 27 -16 5 -19 4 -44 -7 -5 -2 -12 -5 -15 -6 -3 -1 -6 -3
-6 -4 -1 -1 -2 -1 -2 1 0 1 -2 4 -4 6 l-5 4 -1 80 -1 81 6 6 6 6 26 0 c36 -1
41 -3 41 -24 0 -13 -5 -23 -15 -31 -2 -2 -3 -6 -3 -15 0 -12 1 -14 7 -20 7 -7
10 -9 43 -19 28 -10 32 -10 41 -8 7 2 20 15 18 18 -1 1 0 2 1 2 1 0 2 3 4 8 1
4 4 14 7 22 8 24 7 32 -8 57 -6 9 -13 24 -13 28 0 5 7 11 14 10 5 0 21 -8 24
-11 1 -1 9 -6 23 -13 10 -5 12 -5 22 -4 17 2 27 11 30 27 1 4 3 17 4 27 1 5 2
10 2 13 1 3 1 9 2 13 1 4 1 10 2 13 2 11 9 86 10 112 2 31 3 36 3 11 0 -13 1
-17 3 -17 1 0 3 4 5 11 5 27 -4 -114 -12 -179 -3 -24 -3 -22 0 -33 2 -7 6 -13
13 -20 6 -6 12 -11 12 -11 4 0 9 -12 9 -19 0 -9 -5 -14 -21 -21 -27 -11 -34
-22 -42 -64 -1 -6 -10 -42 -16 -63 -13 -44 -30 -93 -49 -138 -6 -14 -38 -78
-44 -88 -5 -7 -8 -14 -8 -14 0 -2 -13 -22 -43 -66 -4 -5 -5 -10 -5 -17 0 -17
4 -23 23 -38 7 -5 14 -10 16 -12 11 -9 25 -21 48 -45 15 -14 28 -27 29 -29 6
-4 25 -6 34 -4 8 2 23 15 21 18 -1 1 0 2 1 2 1 0 2 1 2 3 0 6 10 16 18 19 18
6 40 18 45 25 5 6 6 8 5 16 -1 15 -4 22 -17 31 -12 9 -13 11 -13 24 0 8 1 11
5 15 6 6 21 7 31 2 7 -3 27 -2 35 3 8 4 26 40 31 61 4 16 -8 36 -25 46 -14 8
-18 28 -8 38 6 6 4 6 36 2 24 -3 34 6 43 36 14 43 34 126 40 162 1 6 4 26 8
45 3 19 6 39 7 44 0 5 2 19 4 32 5 41 7 70 6 77 -2 10 -9 21 -20 32 -13 12
-15 17 -16 29 0 14 4 21 17 30 21 14 27 25 29 47 0 4 1 29 1 55 l1 47 -5 11
c-3 7 -8 14 -12 16 -6 5 -13 15 -13 20 0 5 9 18 15 20 0 1 4 5 7 10 10 14 7
33 -7 49 -14 16 -13 45 1 57 2 1 3 3 3 5 0 1 1 3 3 5 1 2 4 9 7 17 2 8 6 17 7
20 1 3 2 7 1 8 0 1 1 1 2 0 1 -1 2 1 2 3 0 3 1 4 1 2 2 -5 11 -14 14 -14 2 0
3 -1 3 -2 0 -2 10 -3 47 -3 l36 0 6 -6 6 -6 0 -50 c-1 -47 -1 -50 3 -55 6 -8
11 -11 22 -11 5 0 10 -1 12 -2 1 -1 2 0 2 2 0 3 6 5 19 5 13 0 20 -7 23 -24 6
-31 17 -38 58 -40 1 0 5 -3 8 -6 5 -5 6 -7 6 -18 0 -11 -1 -13 -6 -18 -6 -6
-7 -6 -20 -6 -10 0 -14 2 -23 13 l-7 9 -17 0 -17 0 -4 -8 c-8 -16 -12 -20 -27
-27 -9 -4 -18 -10 -21 -13 -7 -7 -13 -22 -12 -29 1 -5 -1 -7 -5 -12 l-6 -6
-31 0 c-33 0 -42 -1 -42 -3 0 -1 -1 -2 -3 -2 -4 0 -14 -12 -18 -21 -5 -11 -5
-161 0 -172 4 -9 14 -21 18 -21 2 0 3 -1 3 -2 0 -2 9 -3 42 -3 l31 0 6 -6 6
-6 -1 -115 c0 -122 0 -128 9 -134 7 -5 30 -10 33 -7 1 2 7 3 13 3 10 0 12 -1
17 -6 6 -6 7 -7 5 -21 0 -8 -1 -16 -2 -19 -1 -3 -2 -15 -2 -27 -1 -21 -1 -22
-7 -27 -8 -9 -17 -9 -41 2 l-22 9 -70 0 c-70 0 -81 0 -81 -3 0 -1 -1 -2 -3 -2
-4 0 -14 -12 -18 -21 -3 -7 -3 -14 -3 -37 1 -33 3 -39 18 -53 18 -19 20 -28
10 -43 -3 -4 -7 -8 -8 -8 -3 0 -16 -18 -17 -25 -1 -3 -1 -8 0 -12 1 -8 14 -23
18 -23 2 0 3 -1 3 -2 0 -2 10 -3 42 -3 26 0 32 1 39 4 10 5 22 16 31 29 9 14
16 18 31 18 14 0 19 -3 25 -15 8 -17 14 -24 23 -30 9 -6 11 -6 35 -7 23 0 26
0 33 4 10 6 17 20 18 38 1 17 6 22 20 22 14 0 19 -5 20 -22 1 -18 8 -32 18
-38 8 -4 9 -4 56 -4 l48 1 12 6 c19 10 24 17 32 54 2 6 6 15 9 19 19 26 20 28
20 78 0 33 -1 43 -3 49 -4 9 -14 21 -18 21 -2 0 -3 1 -3 2 0 2 -10 3 -58 3
l-47 0 -6 6 -6 6 0 165 0 165 6 6 6 6 28 0 c30 0 39 1 39 3 0 1 1 2 3 2 4 0
14 12 18 21 5 13 4 76 -2 111 -3 15 -5 32 -5 38 -1 20 -12 38 -27 45 -10 5
-13 5 -32 5 l-22 -1 -6 6 -6 6 0 142 0 142 6 6 6 6 42 0 c43 0 53 1 53 3 0 1
1 2 3 2 4 0 14 12 18 21 5 11 5 163 0 174 -4 9 -14 21 -18 21 -2 0 -3 1 -3 2
0 2 -10 3 -61 3 -28 0 -63 0 -77 0 -291 0 -286 0 -286 -3 0 -1 -1 -2 -3 -2 -3
0 -13 -10 -13 -14 0 -2 -1 -1 -3 1 -5 4 -9 0 -7 -6 1 -3 1 -5 0 -5 -3 0 5 -27
15 -46 7 -13 7 -15 7 -26 -1 -7 -3 -14 -7 -19 -3 -5 -5 -11 -5 -13 0 -3 -1 -4
-1 -3 -1 2 -3 2 -5 2 -2 -1 -6 -1 -7 0 -2 1 -5 1 -5 1 -1 0 -2 1 -2 3 0 6 -19
38 -30 49 -10 12 -15 27 -10 36 1 2 9 7 17 11 15 8 23 14 23 18 0 2 2 2 5 2
l5 -1 -1 31 c-1 29 -2 33 -6 43 -4 7 -6 10 -10 10 -4 0 -4 0 0 2 2 1 8 3 12 5
8 4 15 4 222 5 212 1 214 1 223 5 5 3 14 9 20 14 5 5 14 11 19 14 6 3 11 7 12
7 18 15 21 24 16 52 -3 15 -3 18 1 39 4 22 4 24 1 32 -5 13 -11 18 -25 19
l-12 0 -10 -10 c-13 -13 -20 -18 -26 -18 -5 0 -11 8 -9 13 0 2 1 6 2 9 0 3 2
8 3 12 6 18 8 34 5 42 -3 7 -3 9 -3 12 0 1 -2 4 -5 8 -9 11 -15 12 -59 12 -39
0 -40 0 -59 -6 -10 -3 -21 -6 -24 -6 -3 0 -14 3 -24 6 l-19 6 -181 0 c-131 0
-182 1 -186 2 -7 4 -10 9 -15 24 -18 59 -35 108 -41 117 -7 9 -20 17 -33 18
-5 0 -18 -1 -32 -4z m18 -82 c3 -3 4 -7 4 -14 0 -13 -6 -19 -19 -19 -13 0 -19
6 -19 19 0 7 1 11 4 14 7 8 23 8 30 0z m-845 -187 c7 -6 7 -19 1 -25 -6 -7
-19 -7 -25 -1 -7 6 -7 19 -1 25 6 7 19 7 25 1z m533 -48 c1 0 5 -3 8 -6 5 -5
6 -7 6 -18 0 -11 -1 -13 -6 -18 -6 -6 -7 -6 -18 -6 -11 0 -12 0 -18 6 -5 5 -6
7 -6 17 0 14 3 20 12 24 5 2 8 2 22 1z m-353 -26 c7 -6 7 -19 1 -25 -6 -7 -19
-7 -25 -1 -7 6 -7 19 -1 25 6 7 19 7 25 1z m1042 -3 c3 -3 3 -3 0 -6 -3 -3 -3
-3 -6 0 -3 2 -3 3 -1 6 4 4 4 4 7 0z m-854 -3 c7 -6 7 -19 1 -25 -6 -7 -19 -7
-25 -1 -7 6 -7 19 -1 25 6 7 19 7 25 1z m-423 -74 c4 -1 6 -1 8 0 2 3 8 -2 8
-5 0 -4 -8 -12 -9 -10 -3 6 -13 -12 -14 -25 0 -4 -1 -12 -2 -19 0 -7 -2 -17
-4 -24 -2 -7 -4 -20 -5 -29 -2 -18 -6 -29 -16 -42 -5 -7 -17 -14 -23 -14 -13
0 -20 32 -14 65 2 10 3 23 3 30 0 21 3 30 14 41 5 5 10 9 11 8 2 -1 9 6 13 14
6 13 8 14 17 13 4 -1 10 -2 13 -3z m180 -63 c7 -3 11 -13 11 -24 0 -14 -4 -20
-18 -28 -6 -4 -17 -12 -23 -18 -16 -15 -20 -17 -31 -17 -13 0 -19 6 -19 19 0
11 2 15 17 31 6 6 13 16 17 23 4 6 8 12 11 13 10 6 24 6 35 1z m1077 -113 c10
-9 3 -26 -10 -26 -8 0 -15 7 -15 15 0 13 16 20 25 11z m-1281 -68 c5 -5 5 -11
0 -16 -10 -10 -27 5 -16 16 4 4 12 4 16 0z m571 -8 c10 -9 3 -26 -10 -26 -8 0
-15 7 -15 15 0 13 16 20 25 11z m-444 -122 c11 -10 4 -27 -12 -29 -7 -1 -8 -1
-11 5 -8 14 -2 28 12 28 4 0 8 -2 11 -4z m685 -15 c5 -4 10 -18 10 -28 0 -23
-7 -33 -25 -33 -13 0 -20 5 -23 17 -3 15 4 40 13 45 8 4 19 4 25 -1z m-716
-47 c6 -3 13 -18 13 -29 0 -19 -9 -28 -28 -28 -19 0 -28 9 -28 28 0 18 5 23
25 29 9 2 14 2 18 0z m816 -22 c3 0 4 -9 4 -24 0 -21 0 -22 -3 -23 -2 0 -3 -4
-3 -8 l0 -8 -2 8 c-3 10 -6 13 -21 21 -6 3 -14 7 -16 9 -3 3 -3 3 1 7 3 2 9 5
14 7 14 6 22 12 22 20 1 6 1 6 1 -1 1 -5 2 -8 3 -8z m95 0 c5 -5 6 -7 6 -16 0
-9 -1 -11 -7 -16 -5 -6 -7 -7 -16 -7 -9 0 -11 1 -16 7 -9 8 -9 23 -1 32 9 9
24 9 34 0z m95 -112 c5 -5 5 -11 0 -16 -10 -10 -27 5 -16 16 4 4 12 4 16 0z
m245 -55 c6 -4 6 -6 6 -20 0 -14 0 -16 -6 -20 -8 -7 -28 -7 -36 0 -7 6 -11 24
-7 33 1 3 3 6 3 5 1 0 3 1 5 3 6 6 28 6 35 -1z m-641 -2 c0 2 8 -7 8 -9 0 -1
1 -2 2 -1 1 1 2 0 2 -3 0 -2 2 -9 5 -16 10 -25 5 -48 -13 -55 -18 -7 -37 9
-37 32 0 12 3 17 15 31 6 6 11 13 11 16 2 7 3 9 5 6 1 -2 2 -2 2 -1z m323 -31
c5 -5 6 -7 6 -16 0 -9 -1 -11 -7 -16 -5 -6 -7 -7 -16 -7 -9 0 -11 1 -16 7 -9
8 -9 23 -1 32 9 9 24 9 34 0z m-539 -8 c6 -3 12 -11 13 -17 0 -5 5 -9 12 -9 3
0 10 -1 15 -3 5 -2 11 -3 13 -3 3 0 7 -2 10 -5 6 -4 6 -6 6 -20 0 -14 0 -16
-6 -20 -4 -4 -7 -5 -18 -5 -14 0 -22 4 -24 14 -1 3 -3 10 -5 14 -3 5 -4 12 -4
15 0 8 -2 11 -10 12 -8 0 -22 12 -22 18 0 10 9 14 20 9z m936 -21 c3 -4 8 -11
10 -16 4 -10 11 -17 28 -30 5 -3 10 -8 12 -11 4 -8 2 -27 -6 -46 -6 -15 -7
-17 -16 -21 -7 -3 -9 -4 -11 -1 -2 3 -5 3 -12 2 -3 0 -12 -8 -10 -8 1 0 2 -4
2 -9 0 -6 1 -18 2 -27 l1 -18 -6 -6 c-5 -5 -7 -6 -17 -6 -15 0 -23 7 -23 20 0
5 -1 12 -2 16 -1 4 -3 10 -3 13 -1 3 -5 12 -10 19 -8 11 -9 14 -9 23 0 17 9
23 31 21 10 -1 25 2 25 4 0 1 1 3 3 5 2 2 4 8 5 15 2 10 2 13 -3 27 -6 21 -7
30 -2 35 5 5 5 5 11 -1z m-186 -37 c5 -5 5 -15 0 -20 -9 -9 -24 -2 -24 10 0 8
6 14 14 14 3 0 8 -2 10 -4z m-1331 -48 c7 -3 12 -13 12 -25 0 -19 -9 -28 -28
-28 -19 0 -28 9 -28 28 0 17 6 24 22 28 5 1 14 -1 22 -3z m166 -32 c5 -5 6 -7
6 -16 0 -9 -1 -11 -7 -16 -5 -6 -7 -7 -16 -7 -9 0 -11 1 -16 7 -9 8 -9 23 -1
32 9 9 24 9 34 0z m92 0 c11 -10 3 -28 -11 -28 -9 0 -16 6 -16 16 0 14 17 22
27 12z m863 -26 c5 -5 6 -7 6 -17 0 -10 -1 -12 -6 -17 -5 -5 -7 -6 -17 -6 -10
0 -12 1 -17 6 -5 5 -6 7 -6 17 0 10 1 12 6 17 5 5 7 6 17 6 10 0 12 -1 17 -6z
m301 -147 c3 -3 3 -3 0 -6 -3 -3 -3 -3 -6 0 -3 2 -3 3 -1 6 4 4 4 4 7 0z m116
-36 c4 -4 5 -7 5 -15 0 -14 -6 -20 -20 -20 -14 0 -20 6 -20 20 0 14 6 20 20
20 8 0 11 -1 15 -5z m-776 -22 c3 -5 3 -5 0 -10 -2 -3 -5 -5 -7 -5 -2 0 -5 2
-7 5 -3 5 -3 5 0 10 2 3 5 5 7 5 2 0 5 -2 7 -5z m-645 -37 c5 -5 5 -15 0 -20
-9 -9 -24 -2 -24 10 0 8 6 14 14 14 3 0 8 -2 10 -4z m477 -19 c4 -4 5 -7 5
-13 0 -11 -7 -18 -18 -18 -11 0 -18 7 -18 18 0 11 7 18 18 18 6 0 9 -1 13 -5z
m108 -34 c20 -1 26 -2 29 -4 4 -3 4 -4 0 -9 -2 -3 -6 -7 -9 -7 -3 -1 -5 -2 -5
-3 0 -1 -2 -2 -5 -3 -2 0 -11 -8 -20 -16 l-15 -15 -11 0 c-10 0 -12 1 -17 6
-6 6 -6 7 -6 20 1 8 3 16 5 20 5 8 16 14 23 13 3 -1 17 -2 31 -2z m-552 -26
c4 -4 5 -7 5 -15 0 -14 -6 -20 -20 -20 -14 0 -20 6 -20 20 0 14 6 20 20 20 8
0 11 -1 15 -5z m-125 -41 c9 -9 2 -24 -10 -24 -8 0 -14 6 -14 15 0 12 15 18
24 9z m993 -11 c3 -3 3 -3 0 -6 -3 -3 -3 -3 -6 0 -3 2 -3 3 -1 6 4 4 4 4 7 0z
m-464 -30 c3 -3 3 -3 0 -6 -3 -3 -3 -3 -6 0 -3 2 -3 3 -1 6 4 4 4 4 7 0z m404
-164 c6 -6 6 -7 0 -13 l-5 -4 -6 6 -7 5 4 6 c5 6 7 6 14 0z"/>
<path d="M610 2073 c-1 0 -4 -1 -9 -2 -14 -2 -23 -15 -20 -31 2 -13 23 -21 40
-15 13 4 15 7 15 24 0 17 -2 20 -17 23 -5 1 -9 1 -9 1z"/>
</g>
</svg>
