<?xml version="1.0" standalone="no"?>
<!DOCTYPE svg PUBLIC "-//W3C//DTD SVG 20010904//EN"
 "http://www.w3.org/TR/2001/REC-SVG-20010904/DTD/svg10.dtd">
<svg version="1.0" xmlns="http://www.w3.org/2000/svg"
 width="1100.000000pt" height="2850.000000pt" viewBox="0 0 1100.000000 2850.000000"
 preserveAspectRatio="xMidYMid meet">
<metadata>
Created by potrace 1.15, written by Peter Selinger 2001-2017
</metadata>
<g transform="translate(0.000000,2850.000000) scale(0.500000,-0.500000)"
fill="#000000" stroke="none">
<path d="M441 3656 c-29 -3 -43 -6 -67 -11 -24 -6 -58 -17 -74 -24 -52 -24
-82 -43 -116 -72 -19 -16 -46 -45 -60 -63 -3 -3 -7 -9 -10 -12 -2 -3 -4 -6 -4
-7 0 0 -4 -6 -8 -13 -7 -10 -24 -42 -29 -55 -10 -23 -16 -39 -18 -49 -5 -16
-13 -52 -14 -62 -4 -33 -5 -52 -5 -77 1 -87 19 -155 62 -230 4 -8 26 -40 28
-41 0 -1 4 -4 7 -8 5 -8 41 -44 52 -54 8 -7 36 -28 46 -34 55 -36 115 -59 181
-69 25 -4 111 -5 138 -1 19 2 36 10 45 20 4 5 7 8 9 8 1 0 3 1 4 3 3 4 11 4
26 -1 28 -9 35 -8 76 8 49 20 120 58 127 69 5 6 11 26 11 35 0 3 2 7 4 9 3 5
4 5 19 2 17 -3 33 -1 40 4 30 25 43 38 52 56 9 17 14 23 31 30 7 3 12 6 12 7
0 1 1 2 3 2 5 0 54 54 100 111 4 6 11 14 15 18 4 4 10 11 13 15 41 50 109 115
155 146 53 36 123 64 177 69 30 3 43 8 52 20 9 12 19 21 23 21 5 0 12 -7 19
-19 8 -13 17 -22 28 -27 30 -13 40 -19 55 -34 43 -42 59 -110 43 -188 -5 -26
-25 -61 -45 -79 -41 -36 -119 -50 -197 -34 -20 5 -31 4 -41 0 l-9 -4 1 -15 c1
-17 0 -17 21 -27 16 -8 20 -13 20 -28 0 -12 -4 -21 -12 -24 -8 -5 -24 -4 -33
0 -4 2 -9 3 -17 2 -19 -1 -25 -6 -34 -27 -33 -82 -34 -82 -31 -94 2 -13 8 -21
20 -27 9 -4 37 -14 48 -16 3 0 11 -2 18 -4 46 -11 135 -14 184 -6 3 0 9 1 14
2 5 1 12 2 16 3 4 1 15 4 25 6 17 4 56 18 67 23 3 1 10 5 17 8 16 8 50 27 51
29 0 1 2 2 3 2 2 0 3 1 3 2 0 0 3 3 7 5 3 2 9 6 13 9 3 3 9 8 13 11 7 6 11 15
11 27 0 12 -3 18 -19 33 -23 23 -24 25 -16 50 2 9 7 22 9 30 2 8 6 16 8 18 9
8 32 8 40 -1 11 -10 9 -33 -3 -43 -11 -11 -14 -21 -12 -37 2 -12 9 -17 28 -15
14 1 14 1 23 11 6 6 10 11 10 12 0 1 4 9 10 17 18 28 37 71 47 106 13 46 17
83 16 139 -2 89 -18 150 -60 224 -10 18 -12 20 -13 20 -1 0 -2 1 -2 2 0 1 -3
6 -6 11 -4 4 -8 9 -8 10 -5 6 -21 24 -36 39 -16 16 -24 23 -47 42 -5 3 -37 24
-47 30 -9 4 -14 6 -21 6 -11 0 -24 -6 -28 -11 0 -2 -2 -3 -4 -3 -1 0 -4 -1 -5
-3 -3 -4 -14 -4 -19 0 -2 1 -4 8 -6 14 -7 32 -17 40 -54 47 -88 16 -194 7
-288 -25 -35 -12 -49 -17 -53 -20 -3 -4 -11 -8 -27 -14 -19 -7 -42 -20 -77
-43 -20 -13 -63 -44 -66 -48 -1 -1 -6 -5 -12 -10 -25 -20 -87 -79 -117 -112
-6 -7 -13 -15 -16 -18 -7 -8 -41 -48 -49 -58 -4 -5 -10 -13 -14 -17 -4 -4 -11
-13 -16 -19 -34 -40 -76 -83 -105 -109 -9 -8 -16 -15 -17 -15 -1 -1 -9 -7 -19
-15 -10 -7 -19 -14 -20 -15 -2 -1 -6 -4 -10 -6 -5 -3 -9 -6 -11 -7 -15 -12
-86 -42 -115 -48 -44 -9 -73 -13 -106 -12 -28 1 -28 1 -51 7 -87 24 -129 111
-107 224 1 5 8 25 12 34 15 33 44 59 79 72 41 15 97 17 150 7 9 -2 21 -4 26
-4 8 1 24 6 24 10 0 0 1 1 3 1 2 0 3 3 3 11 0 12 -3 20 -10 26 -11 10 -9 19 4
22 19 4 31 9 36 15 2 3 15 33 28 66 l25 59 -3 11 c-4 19 -13 26 -46 37 -44 13
-86 19 -144 20 -24 0 -49 0 -57 -1z m854 -97 c12 -12 3 -31 -13 -31 -16 0 -24
18 -14 31 6 7 20 7 27 0z m412 -66 c5 -8 1 -16 -8 -16 -9 0 -13 8 -8 16 2 3 5
5 8 5 3 0 6 -2 8 -5z m-422 -58 c4 -4 5 -7 5 -15 0 -14 -6 -20 -20 -20 -14 0
-20 6 -20 20 0 14 6 20 20 20 8 0 11 -1 15 -5z m571 -175 c5 -5 6 -7 6 -17 0
-16 -7 -23 -23 -23 -10 0 -12 1 -17 6 -5 5 -6 7 -6 17 0 16 7 23 23 23 10 0
12 -1 17 -6z m-996 -110 c5 -5 5 -15 0 -20 -9 -9 -24 -2 -24 10 0 8 6 14 14
14 3 0 8 -2 10 -4z m97 -36 c5 -5 6 -7 6 -16 0 -15 -8 -23 -23 -23 -9 0 -11 1
-16 7 -9 8 -9 23 -1 32 9 9 24 9 34 0z m-700 -117 c5 -8 1 -16 -8 -16 -9 0
-13 8 -8 16 2 3 5 5 8 5 3 0 6 -2 8 -5z m302 -86 c5 -8 1 -16 -8 -16 -9 0 -13
8 -8 16 2 3 5 5 8 5 3 0 6 -2 8 -5z m1040 -28 c5 -8 1 -16 -8 -16 -9 0 -13 8
-8 16 2 3 5 5 8 5 3 0 6 -2 8 -5z"/>
<path d="M318 2632 c-3 -1 -6 -1 -7 0 0 0 -1 0 -1 -2 0 -1 -1 -2 -3 -2 -4 0
-14 -12 -18 -21 -5 -11 -5 -193 0 -204 4 -9 14 -21 18 -21 2 0 3 -1 3 -2 0 0
2 -2 6 -2 3 -1 311 -1 684 -1 373 0 681 0 685 1 3 0 5 2 5 2 0 1 1 2 3 2 4 0
14 12 18 21 5 11 5 193 0 204 -4 9 -14 21 -18 21 -2 0 -3 1 -3 2 0 1 -1 2 -2
2 -9 2 -539 2 -552 0 -16 -2 -42 -12 -54 -19 -13 -8 -29 -14 -38 -14 -11 0
-16 3 -28 15 -11 10 -13 12 -24 16 -10 4 -14 4 -340 4 -181 0 -331 -1 -334 -2z
m632 -129 c21 -9 20 -45 -2 -54 -10 -5 -28 -1 -34 6 -9 10 -9 32 0 42 7 8 24
11 36 6z"/>
<path d="M318 2276 c-3 -1 -6 -1 -7 0 0 0 -1 0 -1 -2 0 -1 -1 -2 -3 -2 -4 0
-14 -12 -18 -21 -3 -6 -3 -20 -3 -101 0 -102 0 -104 12 -116 15 -15 2 -14 245
-14 l218 0 20 6 c24 7 30 7 54 0 l20 -6 159 0 159 0 12 6 c7 3 13 7 15 9 7 8
19 15 26 15 8 0 13 -3 24 -13 4 -4 12 -9 18 -12 l12 -5 202 1 c112 0 204 1
206 1 1 0 2 1 2 2 0 1 1 2 3 2 4 0 14 12 18 21 4 11 4 63 0 91 -4 19 -4 21 0
41 4 26 4 62 0 72 -4 9 -14 21 -18 21 -2 0 -3 1 -3 2 0 0 -2 2 -5 2 -4 1 -209
1 -457 1 -248 0 -453 0 -456 -1 -4 0 -6 -1 -6 -2 0 -1 -3 -3 -6 -4 -3 -1 -10
-7 -14 -12 -12 -16 -15 -17 -24 -17 -9 0 -12 1 -24 17 -4 5 -11 11 -14 12 -3
1 -6 3 -6 4 0 1 -1 2 -2 2 -6 1 -354 2 -358 0z m1141 -67 c3 -5 3 -5 0 -10 -2
-3 -5 -5 -7 -5 -2 0 -5 2 -7 5 -3 5 -3 5 0 10 2 3 5 5 7 5 2 0 5 -2 7 -5z
m-956 -38 c7 -11 -7 -23 -15 -13 -5 6 -5 8 -1 14 4 6 12 5 16 -1z m288 -24 c3
-5 3 -5 0 -10 -2 -3 -5 -5 -7 -5 -2 0 -5 2 -7 5 -3 5 -3 5 0 10 2 3 5 5 7 5 2
0 5 -2 7 -5z m-200 -28 c12 -7 14 -33 3 -43 -8 -9 -32 -9 -40 0 -9 8 -9 32 0
41 7 7 27 8 37 2z m-117 -8 c10 -11 2 -29 -13 -29 -22 0 -24 32 -2 34 8 1 11
0 15 -5z"/>
</g>
</svg>
