<?xml version="1.0" standalone="no"?>
<!DOCTYPE svg PUBLIC "-//W3C//DTD SVG 20010904//EN"
 "http://www.w3.org/TR/2001/REC-SVG-20010904/DTD/svg10.dtd">
<svg version="1.0" xmlns="http://www.w3.org/2000/svg"
 width="1100.000000pt" height="2850.000000pt" viewBox="0 0 1100.000000 2850.000000"
 preserveAspectRatio="xMidYMid meet">
<metadata>
Created by potrace 1.15, written by Peter Selinger 2001-2017
</metadata>
<g transform="translate(0.000000,2850.000000) scale(0.500000,-0.500000)"
fill="#000000" stroke="none">
<path d="M1063 3829 c-5 -2 -11 -3 -13 -4 -21 -5 -114 -29 -119 -31 -3 -1 -13
-5 -22 -10 -19 -9 -27 -11 -49 -12 -9 0 -19 -1 -22 -2 -17 -5 -28 -18 -28 -36
-1 -9 8 -35 15 -45 2 -2 3 -6 3 -8 0 -2 2 -6 4 -8 1 -1 5 -5 7 -7 11 -10 7
-28 -5 -22 -6 3 -10 8 -9 10 1 1 -1 3 -4 5 -3 2 -6 4 -7 5 -1 1 -5 3 -10 6
l-9 4 -201 0 -201 0 -19 -6 c-22 -6 -25 -6 -48 1 l-17 5 -85 0 c-95 0 -98 0
-111 -13 -11 -11 -14 -22 -10 -45 2 -10 3 -21 4 -24 4 -15 3 -39 -2 -58 -5
-19 -5 -20 -4 -70 0 -28 2 -56 2 -63 1 -7 0 -22 -1 -33 -2 -20 -2 -23 1 -30 4
-10 14 -22 18 -22 2 0 3 -1 3 -2 0 -2 1 -2 73 -4 l68 -1 10 -5 c5 -4 9 -6 7
-6 -2 0 -8 -7 -14 -15 -6 -9 -15 -19 -20 -23 -5 -4 -10 -8 -12 -10 -2 -2 -7
-5 -12 -7 -8 -3 -8 -3 -11 2 -2 2 -7 10 -10 17 -9 20 -21 24 -56 16 -29 -7
-38 -14 -40 -34 -1 -9 -1 -11 10 -31 6 -12 13 -24 15 -27 2 -3 4 -6 4 -7 0 -1
10 -20 23 -43 12 -22 25 -46 29 -53 3 -7 9 -15 11 -18 11 -15 13 -30 5 -42 -9
-13 -8 -34 2 -45 3 -2 17 -10 32 -18 37 -18 81 -42 100 -54 10 -7 18 -9 38
-10 24 -1 27 -2 34 -18 9 -18 17 -27 37 -42 11 -8 27 -21 35 -28 9 -6 18 -13
21 -14 12 -5 30 -1 38 7 2 3 13 14 23 25 10 11 22 24 25 27 11 11 30 32 46 49
12 14 17 18 22 19 9 2 16 0 20 -5 4 -3 10 -7 21 -14 4 -2 10 -5 14 -7 4 -3 10
-6 14 -8 4 -3 10 -6 14 -8 4 -3 10 -6 14 -8 4 -3 10 -6 14 -8 4 -3 10 -6 14
-8 4 -3 10 -6 14 -8 4 -3 10 -6 14 -8 4 -3 10 -6 15 -9 4 -2 10 -6 12 -7 12
-8 34 -2 39 10 4 9 8 23 7 23 -2 0 6 7 8 7 17 2 39 8 45 13 10 9 41 50 59 76
24 37 25 39 36 58 15 25 15 27 13 40 -3 14 -11 22 -33 32 -9 4 -20 8 -24 10
-54 24 -55 24 -64 23 -10 -1 -20 -5 -27 -13 -9 -9 -14 -12 -25 -12 -8 0 -10 1
-16 7 -4 4 -7 7 -6 7 1 0 0 1 -3 3 -2 1 -11 3 -18 3 -16 0 -19 -2 -29 -18 -7
-12 -8 -25 -4 -34 2 -4 5 -7 6 -7 1 0 4 -1 6 -2 2 -2 8 -3 14 -4 14 -2 19 -8
19 -22 0 -11 -6 -21 -12 -21 -2 0 -15 -2 -29 -4 -21 -3 -28 -3 -34 -1 -11 3
-29 4 -36 1 -3 -1 -6 -2 -7 -2 0 1 -1 0 -2 -1 -3 -5 -15 -13 -18 -13 -5 0 -7
2 -15 13 -12 15 -97 68 -172 107 -21 11 -22 18 -2 28 14 7 18 20 14 54 -2 20
4 29 23 29 12 0 19 -5 24 -15 17 -31 36 -33 81 -9 3 1 11 5 18 8 47 21 73 35
84 46 6 6 12 13 14 16 4 6 15 11 25 12 32 4 39 6 85 33 23 13 26 16 26 29 1
18 -2 22 -17 32 -8 4 -18 10 -22 13 -4 3 -28 18 -52 33 -25 15 -49 29 -55 31
-18 6 -83 8 -80 2 1 -1 0 -2 -2 -2 -2 0 -12 -4 -23 -9 -36 -16 -58 -25 -145
-57 -22 -8 -73 -24 -76 -24 -2 0 -3 -1 -3 -2 0 -1 -2 0 -5 3 l-6 5 -1 43 -1
42 6 6 6 6 122 0 c82 -1 121 0 121 1 0 1 1 2 2 1 1 -1 2 0 2 1 0 1 1 2 2 1 1
-1 2 0 2 1 0 1 2 3 5 4 2 1 6 6 9 11 2 5 7 10 11 12 7 4 24 4 35 1 3 -1 6 -1
6 -1 0 1 4 -1 10 -3 12 -6 43 -16 69 -24 19 -6 22 -6 47 -6 38 1 42 4 45 30 0
3 1 7 2 7 0 1 0 3 -2 4 -5 5 -4 18 2 24 11 12 31 4 31 -13 0 -4 -1 -9 -3 -11
-2 -1 -2 -3 -2 -4 1 0 2 -4 2 -7 3 -29 2 -29 84 -30 l65 0 12 5 c14 7 36 28
42 42 3 7 5 15 5 28 1 23 5 27 24 30 13 2 13 2 18 -3 5 -4 5 -6 4 -18 -1 -11
-2 -14 -8 -21 -13 -15 -15 -20 -15 -33 0 -7 0 -14 1 -16 2 -6 -13 -38 -21 -44
-1 -1 -7 -9 -13 -19 -7 -10 -13 -19 -14 -20 -2 -2 -5 -6 -7 -10 -3 -5 -6 -9
-7 -11 -2 -1 -3 -3 -3 -4 0 -1 -1 -3 -2 -4 -2 -2 -6 -7 -9 -12 -3 -5 -7 -9 -7
-10 -1 0 -2 -1 -2 -3 0 -1 -2 -4 -4 -6 -9 -10 -12 -17 -12 -26 0 -23 12 -32
59 -42 15 -3 89 -24 146 -40 36 -10 41 -11 64 -4 23 7 27 7 35 -2 9 -8 9 -13
0 -19 -4 -4 -7 -4 -21 -3 -9 1 -47 2 -86 2 -77 1 -82 1 -94 -10 -6 -6 -15 -25
-15 -32 0 -4 -5 -10 -17 -23 -12 -13 -16 -23 -24 -56 -7 -27 -9 -48 -5 -48 1
0 2 -1 2 -3 0 -1 2 -4 4 -6 6 -6 23 -4 49 4 30 10 41 11 46 5 6 -6 7 -22 3
-32 -4 -8 -17 -15 -35 -17 -14 -2 -33 -14 -33 -20 0 -2 -1 -3 -2 -3 -2 0 -8
-11 -7 -13 2 -1 -17 -19 -19 -19 -2 1 -4 4 -6 7 -2 5 -2 7 2 19 2 7 4 14 4 16
0 1 1 2 2 2 1 0 1 1 1 3 0 1 1 6 2 11 2 12 1 12 -16 14 -13 0 -23 -3 -23 -9 0
-4 -9 -22 -13 -26 -2 -2 -5 -7 -7 -10 -1 -3 -4 -7 -6 -9 -2 -2 -6 -7 -8 -12
-2 -5 -8 -12 -12 -15 -4 -3 -11 -10 -16 -14 -5 -5 -16 -14 -25 -21 -9 -6 -17
-13 -18 -14 -16 -12 -91 -50 -101 -50 -2 0 -8 -2 -13 -5 -9 -5 -53 -20 -70
-25 -73 -19 -133 -33 -154 -35 -12 -2 -19 -5 -25 -12 -5 -5 -6 -7 -6 -19 0 -8
1 -15 3 -17 3 -4 8 -21 10 -34 2 -9 8 -22 17 -36 14 -21 34 -58 44 -78 8 -16
20 -33 26 -34 2 0 7 -1 12 -3 7 -2 11 -2 28 2 27 6 37 3 31 -8 -5 -11 -28 -44
-37 -56 -4 -4 -16 -28 -16 -30 0 -8 -13 -22 -28 -30 -8 -4 -20 -13 -26 -18
-23 -21 -30 -20 -54 6 -10 10 -20 22 -23 25 -3 4 -12 14 -20 22 -40 45 -54 60
-67 74 l-14 14 -17 1 c-24 1 -27 -1 -26 -21 1 -13 3 -22 7 -25 3 -3 8 -15 8
-22 0 -15 -17 -21 -32 -11 -8 5 -14 7 -25 8 -12 1 -18 -2 -31 -15 -11 -11 -11
-13 -12 -23 0 -13 4 -22 13 -31 9 -8 29 -38 33 -47 1 -6 1 -7 -2 -11 -4 -3 -5
-3 -14 0 -5 1 -13 5 -17 8 -5 3 -9 6 -11 6 -1 0 -7 5 -14 12 -17 15 -19 16
-33 16 l-12 0 -25 -24 c-14 -13 -35 -34 -48 -46 -12 -11 -26 -24 -30 -28 -4
-4 -15 -14 -24 -22 -22 -20 -30 -27 -49 -46 -9 -8 -19 -17 -23 -20 -4 -3 -8
-6 -10 -7 -1 -2 -3 -3 -4 -3 -1 0 -4 -3 -6 -6 -8 -12 -6 -36 4 -46 2 -3 13
-18 23 -34 16 -24 24 -33 43 -52 96 -93 93 -91 111 -89 6 0 13 2 15 3 6 5 62
63 142 148 14 14 18 26 19 49 2 24 3 25 27 29 11 1 20 3 21 4 1 1 4 2 7 3 7 2
25 21 30 32 4 9 5 13 8 34 3 18 7 22 29 28 22 6 31 11 38 20 8 8 18 13 26 13
7 0 33 -13 94 -49 11 -7 22 -13 23 -13 0 0 3 -2 6 -4 9 -7 42 -2 45 7 1 2 2 3
4 3 1 0 3 1 5 3 6 5 19 4 31 -2 11 -6 26 -8 35 -5 10 4 45 44 80 93 14 20 43
66 51 83 7 15 5 32 -7 43 -14 13 -37 17 -50 8 -6 -4 -14 -17 -15 -26 -3 -17
-27 -24 -39 -12 -8 8 -9 17 -3 33 12 31 4 46 -32 61 -21 9 -18 16 10 24 60 17
71 22 77 32 5 9 7 26 4 38 -9 35 28 51 57 25 4 -4 8 -7 8 -8 -1 -1 0 -1 2 -2
1 0 7 -1 13 -2 7 0 11 0 11 0 -1 1 0 3 2 3 5 2 0 23 -5 23 -1 0 -1 2 -1 6 5
27 9 32 27 32 16 0 17 -1 26 -14 10 -15 20 -21 33 -22 8 0 11 2 27 12 17 11
41 29 44 32 1 1 6 5 11 9 6 4 19 17 30 28 30 28 32 28 73 9 22 -11 27 -13 43
-14 19 -3 32 -7 34 -12 2 -5 19 -22 27 -26 11 -5 23 -7 39 -4 28 5 32 3 45
-23 10 -20 15 -26 32 -33 23 -11 30 -14 42 -24 14 -11 22 -16 45 -30 16 -9 29
-8 46 3 6 4 12 7 14 7 2 0 3 1 3 2 0 1 4 2 9 2 5 0 9 -1 9 -2 0 -1 2 -2 4 -2
8 0 11 -7 11 -27 0 -30 3 -36 19 -36 15 0 16 1 54 46 28 33 27 32 44 52 8 10
17 20 20 23 9 9 18 22 18 24 -1 1 1 4 3 7 2 4 3 9 2 12 -2 11 -16 18 -23 12
-2 -2 -6 -4 -10 -6 -4 -2 -13 -10 -20 -17 -7 -7 -16 -14 -19 -15 -15 -5 -31 3
-31 17 -1 15 0 16 18 34 20 20 22 26 17 42 -5 14 -11 19 -42 37 -38 21 -43 22
-73 11 -22 -7 -37 1 -37 20 0 12 5 19 19 27 14 9 24 17 37 31 7 7 21 22 32 33
10 11 20 23 22 27 6 17 13 35 13 38 0 2 1 6 3 9 3 7 3 24 -1 30 -2 5 -19 21
-21 19 -1 -1 -1 0 -2 7 0 3 3 5 7 7 4 2 9 6 11 8 4 6 4 25 0 32 -2 3 -3 10 -3
17 0 10 1 12 6 17 3 3 7 6 8 6 22 0 42 2 44 3 2 1 4 2 6 2 5 1 12 10 24 28 40
61 38 57 37 67 -1 21 -8 28 -50 44 -31 12 -40 11 -63 -5 -19 -12 -36 -9 -40 8
-4 15 -14 33 -20 35 -3 1 -4 2 -2 2 1 0 7 2 12 5 8 4 12 4 68 5 63 2 64 2 64
4 0 1 1 2 3 2 4 0 14 12 18 21 3 6 3 21 3 111 0 110 0 105 -10 129 -5 11 -6
28 -2 34 3 6 3 25 -1 31 -1 2 -4 6 -6 7 -2 1 -4 2 -5 3 -1 1 -2 1 -4 2 -7 2
-625 2 -635 0 -15 -3 -25 -15 -25 -30 0 -7 1 -9 17 -25 15 -14 17 -18 17 -24
0 -21 -39 -22 -47 0 -3 7 -13 14 -16 12 0 -1 -1 -1 -1 0 0 6 -29 0 -47 -8 -17
-8 -39 -3 -41 10 0 2 -1 6 -3 7 -2 1 -2 4 -2 5 1 3 1 3 -1 2 -4 -2 -32 -5 -31
-2 1 0 7 1 14 1 14 0 22 5 23 13 1 9 9 13 31 15 34 4 47 14 47 38 0 11 -1 13
-18 52 -19 41 -38 78 -43 82 -13 11 -30 14 -50 9z m10 -81 c10 -9 3 -26 -10
-26 -8 0 -15 7 -15 15 0 13 16 20 25 11z m-94 -65 c4 -2 17 -15 17 -17 0 -3
18 -14 34 -20 14 -6 17 -8 19 -13 1 -3 3 -7 4 -7 2 -2 3 -14 0 -16 -1 -2 -3
-5 -4 -8 -2 -11 -26 -17 -39 -10 -5 3 -18 16 -18 18 0 3 -19 15 -34 20 -13 5
-17 8 -19 13 -4 8 -4 24 0 32 5 11 26 16 40 8z m-202 -74 c6 -6 7 -17 2 -25
-3 -4 -25 -19 -43 -29 -4 -2 -12 -3 -21 -4 -18 0 -21 3 -20 25 0 21 2 22 32
31 31 8 43 9 50 2z m-587 -4 c7 -2 21 -4 30 -4 20 -2 26 -6 26 -19 0 -15 -13
-22 -29 -16 -8 3 -43 12 -47 12 -10 0 -16 17 -8 25 5 6 9 6 28 2z m1637 -43
c3 -3 5 -7 5 -11 0 -7 -7 -27 -10 -29 -4 -3 -16 -23 -36 -62 -4 -8 -16 -8 -25
1 -8 8 -9 15 -4 51 4 27 5 29 20 39 22 14 42 19 50 11z m-1443 -41 c3 -3 4 -7
4 -14 0 -13 -6 -19 -19 -19 -13 0 -19 6 -19 19 0 7 1 11 4 14 7 8 23 8 30 0z
m291 0 c4 -3 4 -5 0 -5 -1 0 -3 -1 -3 -2 -1 -2 -2 -2 -5 1 -3 2 -3 4 -1 6 3 4
4 4 9 0z m-398 -34 c12 -12 3 -31 -13 -31 -11 0 -18 7 -18 18 0 11 7 18 18 18
6 0 9 -1 13 -5z m1005 -11 c3 -2 9 -6 14 -9 16 -13 17 -13 144 -13 l115 1 6
-6 6 -6 -1 -28 c0 -27 0 -28 -5 -33 -4 -4 -7 -5 -9 -4 -2 1 -49 14 -62 17 -1
0 -18 5 -37 10 -18 5 -40 10 -48 12 -8 2 -20 5 -27 7 -21 6 -48 12 -54 12 -3
0 -14 -3 -25 -6 -18 -6 -21 -6 -27 -4 -9 3 -29 22 -31 30 -4 18 23 32 41 20z
m522 -56 c7 -7 8 -12 2 -18 -6 -6 -20 -2 -20 7 0 5 7 17 9 17 2 0 6 -3 9 -6z
m-429 -62 c11 -10 3 -28 -11 -28 -9 0 -16 6 -16 16 0 14 17 22 27 12z m-174
-12 c9 -8 13 -12 12 -14 -2 -3 5 -6 11 -7 12 -1 24 -10 24 -17 0 -5 -6 -11
-12 -12 -6 -1 -27 16 -25 20 2 3 -5 6 -11 7 -18 1 -29 15 -20 25 5 5 12 5 21
-2z m424 -25 c3 -3 4 -5 3 -5 -1 0 -2 -2 -2 -5 0 -8 -5 -13 -14 -13 -16 0 -20
21 -5 27 7 3 10 2 18 -4z m-1163 -17 c5 -5 5 -11 0 -16 -10 -10 -27 5 -16 16
4 4 12 4 16 0z m1169 -56 c14 -13 9 -42 -9 -49 -11 -5 -38 1 -38 8 0 3 -1 8
-3 14 -3 11 5 27 14 31 8 4 30 1 36 -4z m-70 -72 c2 -2 4 -6 4 -9 1 -6 10 -27
11 -27 1 0 2 -1 2 -3 0 -3 15 -17 18 -17 1 0 4 -1 6 -2 1 -1 13 -6 26 -10 27
-10 47 -19 49 -23 1 -2 -1 -4 -5 -5 -3 -1 -5 -2 -5 -2 0 1 -2 0 -3 -1 -2 -1
-5 -3 -8 -4 -3 0 -8 -4 -12 -7 -17 -15 -31 -17 -51 -6 -21 11 -40 7 -50 -10
-8 -16 -6 -32 6 -49 10 -13 11 -34 1 -43 -6 -7 -18 -8 -32 -5 -10 2 -14 2 -31
-1 -28 -4 -31 -4 -58 8 -32 13 -36 19 -30 40 6 19 7 24 12 48 7 32 17 96 18
107 0 9 1 10 6 13 5 2 7 2 25 -4 25 -8 32 -7 52 6 20 12 41 15 49 6z m-1199
-31 c3 -3 4 -7 4 -14 0 -13 -6 -19 -19 -19 -13 0 -19 6 -19 19 0 7 1 11 4 14
7 8 23 8 30 0z m95 -21 c12 -6 9 -13 -7 -21 -15 -6 -28 -2 -28 11 0 13 18 18
35 10z m653 -232 c6 -8 6 -23 -1 -29 -5 -7 -18 -7 -24 -1 -9 8 -5 30 5 30 2 0
5 1 8 3 7 4 7 4 12 -3z m-53 -73 c6 -4 6 -6 6 -20 0 -14 0 -16 -6 -20 -4 -4
-7 -5 -18 -5 -11 0 -14 1 -18 5 -6 4 -6 6 -6 20 0 14 0 16 6 20 4 4 7 5 18 5
11 0 14 -1 18 -5z m114 -19 c10 -9 3 -26 -10 -26 -8 0 -15 7 -15 15 0 13 16
20 25 11z m-260 -75 c12 -7 14 -33 3 -43 -8 -9 -32 -9 -40 0 -9 8 -9 32 0 41
7 7 27 8 37 2z m-98 -27 c7 -6 7 -19 1 -25 -6 -7 -19 -7 -25 -1 -7 6 -7 19 -1
25 6 7 19 7 25 1z m907 -31 c5 -5 6 -21 2 -26 -3 -4 -11 -8 -17 -8 -6 0 -14 4
-17 8 -4 5 -3 21 2 26 7 8 23 8 30 0z m-924 -350 l-5 -5 -4 4 -5 5 4 4 5 5 4
-4 5 -5 -4 -4z m-457 -234 c5 -8 1 -16 -8 -16 -9 0 -13 8 -8 16 2 3 5 5 8 5 3
0 6 -2 8 -5z"/>
<path d="M238 2848 c-5 -2 -14 -10 -21 -17 -7 -7 -24 -25 -38 -40 -14 -15 -33
-34 -41 -43 -42 -44 -44 -47 -46 -61 -1 -20 5 -27 42 -47 11 -5 29 -15 40 -22
12 -6 22 -12 23 -12 1 0 5 -2 10 -5 4 -4 10 -7 12 -8 51 -31 124 -81 133 -91
4 -5 33 -26 37 -28 15 -6 27 -1 45 17 7 7 15 14 17 14 3 1 5 3 5 4 0 2 3 6 6
9 3 3 7 8 9 11 1 3 6 10 10 14 15 16 34 37 47 51 7 8 18 20 23 26 13 14 18 22
19 36 1 22 -13 36 -87 83 -6 4 -14 9 -18 11 -3 2 -17 10 -31 18 -30 17 -28 16
-46 26 -8 4 -17 8 -19 10 -6 3 -25 7 -33 7 -4 0 -7 1 -7 2 1 0 0 1 -2 1 -2 0
-3 1 -3 2 0 2 -1 2 -1 1 -1 0 -4 3 -6 7 -3 5 -8 9 -13 11 -4 2 -13 6 -20 10
-17 8 -33 9 -46 3z m88 -71 c1 -19 -4 -25 -19 -25 -13 0 -19 6 -19 19 0 12 3
16 18 21 l11 4 4 -7 c3 -3 5 -9 5 -12z m-21 -79 c10 -9 3 -26 -10 -26 -8 0
-15 7 -15 15 0 13 16 20 25 11z m120 -5 c6 -4 6 -6 6 -20 0 -14 0 -16 -6 -20
-4 -4 -7 -5 -18 -5 -11 0 -14 1 -18 5 -6 4 -6 6 -6 20 0 14 0 16 6 20 4 4 7 5
18 5 11 0 14 -1 18 -5z"/>
<path d="M1218 2646 c-8 -2 -15 -6 -18 -10 -5 -5 -12 -16 -12 -17 0 -1 -3 -5
-6 -10 -6 -6 -7 -7 -15 -7 -5 0 -9 1 -10 2 -2 3 -20 2 -29 -1 -11 -4 -14 -10
-18 -37 -18 -122 -44 -194 -91 -252 -20 -24 -63 -61 -93 -79 -13 -8 -26 -19
-29 -27 -2 -3 -5 -11 -9 -18 -9 -21 -17 -25 -37 -18 -20 7 -36 5 -39 -5 -3
-11 -4 -23 -1 -28 7 -12 0 -25 -12 -25 -6 0 -15 7 -15 12 0 1 -3 8 -6 14 -5 9
-8 12 -14 15 -11 5 -16 5 -52 -5 -17 -4 -32 -9 -34 -9 -11 -3 -79 -17 -90 -19
-29 -5 -36 -11 -38 -31 0 -11 0 -13 5 -18 3 -3 8 -9 12 -14 3 -4 7 -9 9 -11 2
-2 5 -6 7 -9 2 -3 6 -8 8 -11 4 -4 29 -43 38 -56 1 -3 9 -18 17 -33 12 -23 26
-45 26 -40 0 1 2 0 5 -2 12 -8 20 -8 70 4 7 2 17 5 24 6 15 3 66 18 82 23 64
21 97 32 131 47 37 17 85 41 101 51 8 5 21 13 28 19 8 5 15 9 16 9 1 0 10 6
19 13 3 2 8 6 11 8 3 2 10 7 15 12 5 4 9 7 10 7 1 0 3 2 4 5 3 6 13 16 22 21
15 10 62 63 60 70 0 5 3 11 7 12 2 0 13 1 24 1 13 0 23 2 26 4 7 3 19 3 27 0
14 -6 18 -22 12 -40 -7 -17 -7 -35 -2 -40 6 -5 16 -7 27 -4 9 3 16 4 26 3 2 0
6 -3 9 -6 l6 -6 -1 -24 c-1 -25 0 -35 7 -43 3 -3 41 -29 56 -37 5 -3 13 -7 17
-10 4 -3 19 -10 32 -16 13 -7 26 -13 28 -14 7 -4 23 0 38 10 21 15 33 12 36
-6 2 -15 10 -31 18 -37 9 -7 34 -15 88 -28 52 -14 65 -9 86 30 5 9 10 20 13
24 2 4 6 11 8 15 2 3 6 9 8 12 2 3 6 10 10 16 4 6 8 11 9 13 1 1 5 7 9 12 7
10 7 11 7 27 0 11 -1 19 -3 22 -2 3 -3 12 -3 27 0 34 -4 39 -43 47 -58 13
-125 33 -154 47 -10 4 -16 15 -17 30 -1 9 -9 25 -13 25 0 0 -3 3 -5 7 -3 5 -4
11 -5 36 0 28 0 29 4 34 11 12 24 4 37 -24 11 -22 12 -23 35 -22 13 0 13 0 24
10 22 21 41 41 55 56 8 9 16 18 19 21 15 15 16 18 16 32 0 13 0 14 -7 20 -7 7
-37 21 -49 23 -4 1 -10 0 -13 -1 -3 -1 -6 -2 -6 -2 0 1 -3 -1 -5 -4 -5 -7 -8
-14 -9 -24 -3 -20 -7 -23 -28 -22 -16 0 -21 24 -8 40 6 8 7 10 7 22 0 16 -3
21 -20 28 -6 3 -15 6 -19 8 -54 23 -63 26 -73 25 -18 -3 -23 -8 -41 -38 -13
-23 -15 -26 -38 -61 -41 -62 -45 -65 -78 -63 -25 2 -27 4 -21 25 7 25 6 31 -9
61 -11 23 -30 69 -32 77 -3 15 -3 28 0 51 6 49 3 61 -19 71 -9 4 -13 4 -83 4
-41 0 -76 -1 -79 -2z m-46 -252 c1 0 5 -3 8 -6 9 -8 8 -24 0 -39 -7 -13 -9
-29 -5 -41 4 -13 4 -19 -3 -32 -5 -11 -15 -36 -17 -46 0 -3 -4 -9 -8 -13 -4
-5 -7 -10 -7 -11 0 -1 -1 -2 -2 -2 -2 0 -5 -10 -7 -23 -1 -5 -3 -11 -5 -13 -5
-5 -24 -3 -48 4 -12 3 -23 6 -24 6 -9 0 -16 13 -15 30 0 15 5 23 18 29 4 2 14
7 21 12 8 5 17 10 20 10 4 1 9 3 12 4 3 2 6 3 7 3 5 0 17 13 22 23 3 5 7 12 9
14 2 2 3 7 3 19 0 13 -1 17 -7 27 -10 19 -8 38 6 44 5 2 8 2 22 1z m188 -12
c9 -8 10 -34 1 -42 -7 -6 -22 -6 -28 1 -10 9 -5 35 8 42 8 4 14 4 19 -1z m218
-129 l-5 -5 -4 4 -5 5 4 4 5 5 4 -4 5 -5 -4 -4z m-310 2 c6 -6 7 -19 3 -28 -4
-9 -5 -9 -18 2 -9 8 -11 10 -11 16 0 13 16 20 26 10z m-98 -102 l4 -4 -4 -4
-5 -5 -6 5 c-7 4 -6 9 1 12 5 1 5 1 10 -4z m473 0 c6 -4 6 -6 6 -20 0 -14 0
-16 -6 -20 -4 -4 -7 -5 -18 -5 -11 0 -14 1 -18 5 -6 4 -6 6 -6 20 0 14 0 16 6
20 4 4 7 5 18 5 11 0 14 -1 18 -5z m-831 -124 c8 0 22 1 31 2 l17 2 6 -7 c9
-8 9 -25 0 -34 l-6 -6 -26 0 c-15 0 -31 -1 -35 -2 -7 -2 -13 -3 -24 -2 -2 0
-6 3 -9 6 -5 5 -6 7 -6 17 0 19 9 27 27 25 6 0 17 -1 25 -1z"/>
</g>
</svg>
