<?xml version="1.0" standalone="no"?>
<!DOCTYPE svg PUBLIC "-//W3C//DTD SVG 20010904//EN"
 "http://www.w3.org/TR/2001/REC-SVG-20010904/DTD/svg10.dtd">
<svg version="1.0" xmlns="http://www.w3.org/2000/svg"
 width="687.000000pt" height="2850.000000pt" viewBox="0 0 687.000000 2850.000000"
 preserveAspectRatio="xMidYMid meet">
<metadata>
Created by potrace 1.15, written by Peter Selinger 2001-2017
</metadata>
<g transform="translate(0.000000,2850.000000) scale(0.500000,-0.500000)"
fill="#000000" stroke="none">
<path d="M161 3235 c-7 -6 -14 -23 -13 -34 0 -6 -4 -22 -7 -25 -2 -2 -5 -8 -7
-14 -3 -9 -4 -15 -4 -48 0 -25 1 -42 2 -47 3 -8 18 -25 23 -25 4 0 17 -14 17
-19 0 -5 -13 -19 -17 -19 -5 0 -20 -17 -23 -25 -3 -12 -3 -319 0 -329 2 -4 4
-9 7 -12 4 -5 27 -16 33 -16 6 0 12 -8 12 -16 0 -8 -7 -16 -13 -16 -5 0 -28
-11 -32 -16 -9 -10 -9 -8 -9 -241 0 -199 0 -223 3 -230 4 -9 14 -21 18 -21 2
0 3 -1 3 -2 0 -2 1 -2 27 -3 28 -2 39 2 56 18 7 6 19 15 28 19 9 5 18 10 20
12 12 11 28 15 35 8 4 -4 6 -18 2 -18 -2 0 2 -20 6 -29 6 -12 -12 -11 338 -11
l319 1 6 -6 6 -6 -1 -74 c0 -81 0 -83 11 -94 3 -3 11 -8 19 -12 21 -11 21 -17
0 -28 -16 -8 -23 -14 -27 -24 -5 -11 -4 -113 0 -124 4 -9 14 -21 18 -21 2 0 3
-1 3 -2 0 -2 9 -3 31 -3 18 0 21 1 31 5 17 9 26 12 32 12 6 0 24 -6 31 -11 2
-1 8 -4 13 -5 8 -2 11 -2 19 2 8 3 25 19 25 22 0 1 3 3 6 5 5 3 7 3 12 0 3 -2
6 -4 6 -5 0 0 1 -3 3 -5 2 -3 6 -3 19 -3 l17 0 4 10 c3 6 5 12 5 14 0 6 9 11
19 13 11 1 27 8 33 14 7 7 10 17 11 37 1 10 2 24 2 30 0 6 1 18 2 27 1 9 2 21
2 27 1 6 5 66 10 134 l9 123 0 109 c0 82 -1 110 -2 116 -3 7 -6 10 -8 9 -1 -1
-2 0 -2 0 0 1 -6 2 -13 1 -8 -1 -13 0 -14 1 0 1 -1 0 -1 -3 0 -4 -6 -16 -9
-18 0 0 0 -1 0 -2 3 -4 -7 -12 -15 -12 -8 0 -18 8 -15 12 1 1 1 2 0 2 -2 0 -6
8 -8 16 -1 3 -4 7 -7 8 -7 3 -28 3 -32 -1 -10 -10 -31 -14 -44 -9 -13 5 -13
-3 -12 180 0 176 0 176 -9 184 -6 6 -25 12 -33 12 -4 0 -8 1 -10 4 -8 9 -2 22
10 22 13 -1 38 12 38 18 0 2 1 4 2 5 1 1 2 2 1 3 0 1 -1 4 -2 8 -1 8 -5 14
-15 25 -12 13 -14 17 -14 27 0 10 2 13 16 30 17 18 16 9 16 180 0 134 0 152
-3 159 -4 9 -14 21 -18 21 -2 0 -3 1 -3 2 0 2 -1 2 -27 3 -21 1 -23 1 -34 -4
-12 -5 -15 -10 -25 -29 -7 -16 -11 -18 -23 -18 -12 0 -16 2 -23 18 -10 19 -13
24 -25 29 l-11 5 -81 -1 c-85 -1 -87 -1 -87 -3 0 -1 -1 -2 -3 -2 -4 0 -14 -12
-18 -21 -2 -6 -3 -17 -3 -66 l0 -58 6 -6 c4 -5 7 -6 13 -6 4 0 7 1 7 1 0 1 1
1 3 1 2 0 2 0 2 -1 -1 -1 1 -2 3 -3 2 0 4 -2 4 -5 0 -4 1 -4 2 1 1 3 2 5 2 4
0 -2 1 -2 3 -2 2 1 3 1 3 0 -2 -5 5 -19 10 -21 3 -2 7 -4 9 -6 1 -1 3 -2 3 -1
0 0 5 -1 11 -4 6 -3 13 -5 14 -5 2 0 6 -3 9 -6 5 -5 6 -7 6 -18 0 -11 -1 -13
-6 -18 -6 -6 -7 -6 -21 -6 -11 0 -15 4 -25 21 -4 8 -10 17 -13 20 -3 3 -5 6
-5 6 0 1 -5 2 -12 1 -13 -1 -18 -5 -24 -16 -4 -8 -4 -18 -4 -321 0 -330 0
-326 9 -335 1 -2 3 -5 4 -6 1 -2 5 -7 8 -11 7 -9 10 -20 7 -31 -2 -11 -7 -16
-18 -18 -16 -4 -21 -1 -50 27 -14 14 -27 27 -29 29 -4 3 -27 4 -46 1 -10 -2
-19 2 -28 10 -2 2 -9 6 -15 9 -11 5 -11 5 -62 5 l-51 0 -6 6 -6 6 0 93 c0 51
0 102 0 112 0 10 0 60 0 111 1 88 1 93 -3 101 -5 12 -10 18 -25 28 -15 10 -17
12 -17 26 0 14 2 16 17 26 15 10 20 16 25 28 4 8 4 16 4 149 0 124 0 141 -3
148 -4 9 -14 21 -18 21 -2 0 -3 1 -3 2 0 1 -1 2 -2 2 -2 0 -74 1 -161 1 l-158
1 -8 -7z m809 -72 c3 -3 4 -7 4 -14 0 -13 -6 -19 -19 -19 -13 0 -19 6 -19 19
0 7 1 11 4 14 7 8 23 8 30 0z m-581 -55 c10 -4 19 -8 21 -8 2 0 9 0 16 -1 23
-1 31 -9 31 -28 0 -18 -9 -27 -27 -28 -13 0 -21 4 -27 14 -7 13 -22 28 -30 32
-5 2 -10 6 -12 10 -3 6 -3 7 0 12 4 7 7 6 28 -3z m466 -8 c-2 -10 -7 -20 -10
-19 -1 1 -2 3 -2 4 0 2 0 7 -1 11 -1 7 -1 9 2 13 4 5 5 5 8 2 3 -3 4 -5 3 -11z
m-572 -50 c2 -1 7 -7 10 -11 7 -10 20 -23 27 -26 10 -5 16 -14 16 -25 0 -13
-11 -45 -18 -52 -13 -14 -23 -2 -27 31 -2 16 -10 36 -17 45 -10 11 -16 22 -16
27 0 12 16 19 25 11z m120 -99 c5 -8 1 -16 -8 -16 -9 0 -13 8 -8 16 2 3 5 5 8
5 3 0 6 -2 8 -5z m674 -72 c12 -7 14 -33 3 -43 -8 -9 -32 -9 -40 0 -9 8 -9 32
0 41 7 7 27 8 37 2z m-208 -5 c2 -3 3 -6 3 -7 0 -4 -8 -12 -12 -11 -3 0 -10 8
-10 11 0 5 6 11 11 11 3 0 6 -2 8 -4z m32 -61 c7 -4 9 -12 9 -26 -2 -16 -7
-21 -25 -21 -17 0 -23 5 -24 18 -2 15 0 24 7 28 3 2 5 4 4 5 -2 3 24 -1 29 -4z
m-674 -108 c4 -4 5 -7 5 -13 0 -11 -7 -18 -18 -18 -11 0 -18 7 -18 18 0 11 7
18 18 18 6 0 9 -1 13 -5z m107 -77 c5 -5 5 -11 0 -16 -10 -10 -27 5 -16 16 4
4 12 4 16 0z m519 -5 c3 -3 3 -3 0 -6 -3 -3 -3 -3 -6 0 -3 2 -3 3 -1 6 4 4 4
4 7 0z m-413 -47 c1 0 5 -3 8 -6 5 -5 6 -7 6 -18 0 -11 -1 -13 -6 -18 -6 -6
-7 -6 -18 -6 -11 0 -12 0 -18 6 -5 5 -6 7 -6 17 0 14 3 20 12 24 5 2 8 2 22 1z
m-166 -122 c1 0 5 -3 8 -6 5 -5 6 -7 6 -18 0 -11 -1 -13 -6 -18 -6 -6 -7 -6
-18 -6 -11 0 -12 0 -18 6 -5 5 -6 7 -6 17 0 14 3 20 12 24 5 2 8 2 22 1z m103
-41 c4 -4 5 -7 5 -15 0 -14 -6 -20 -20 -20 -14 0 -20 6 -20 20 0 14 6 20 20
20 8 0 11 -1 15 -5z m646 -103 c11 -10 3 -28 -11 -28 -9 0 -16 6 -16 16 0 14
17 22 27 12z m-411 -62 c1 0 5 -3 8 -6 5 -5 6 -7 6 -18 0 -11 -1 -13 -6 -18
-6 -6 -7 -6 -18 -6 -11 0 -12 0 -18 6 -5 5 -6 7 -6 17 0 14 3 20 12 24 5 2 8
2 22 1z m-167 -43 c12 -7 14 -33 3 -43 -8 -9 -32 -9 -40 0 -9 8 -9 32 0 41 7
7 27 8 37 2z m840 -8 c4 -4 5 -7 5 -13 0 -11 -7 -18 -18 -18 -11 0 -18 7 -18
18 0 11 7 18 18 18 6 0 9 -1 13 -5z m-79 -125 c9 -11 -1 -44 -16 -51 -26 -13
-51 6 -44 34 4 16 18 23 41 22 13 0 15 -1 19 -5z m3 -167 c6 -4 6 -6 6 -20 0
-14 0 -16 -6 -20 -3 -3 -7 -5 -10 -5 -3 0 -7 -1 -9 -2 -3 -2 -4 -2 -3 0 1 1
-2 2 -6 3 -11 2 -14 7 -14 24 0 14 0 16 6 20 4 4 7 5 18 5 11 0 14 -1 18 -5z
m-32 -85 c-1 -1 2 -2 5 -3 10 -2 14 -10 14 -23 0 -11 -1 -13 -6 -18 -6 -6 -7
-6 -18 -6 -11 0 -12 0 -18 6 -5 5 -6 7 -6 17 0 17 5 23 20 26 4 1 7 2 8 2 1 2
2 1 1 -1z"/>
</g>
</svg>
