<?xml version="1.0" standalone="no"?>
<!DOCTYPE svg PUBLIC "-//W3C//DTD SVG 20010904//EN"
 "http://www.w3.org/TR/2001/REC-SVG-20010904/DTD/svg10.dtd">
<svg version="1.0" xmlns="http://www.w3.org/2000/svg"
 width="1000.000000pt" height="2850.000000pt" viewBox="0 0 1000.000000 2850.000000"
 preserveAspectRatio="xMidYMid meet">
<metadata>
Created by potrace 1.15, written by Peter Selinger 2001-2017
</metadata>
<g transform="translate(0.000000,2850.000000) scale(0.500000,-0.500000)"
fill="#000000" stroke="none">
<path d="M407 3635 c-7 -2 -21 -10 -71 -37 -7 -3 -24 -12 -38 -20 -74 -38 -76
-39 -81 -52 -6 -16 -5 -20 18 -63 4 -8 12 -22 17 -32 5 -10 14 -27 20 -39 7
-12 16 -30 21 -40 16 -31 24 -34 63 -29 13 2 20 -3 20 -16 0 -7 -1 -10 -11
-19 -6 -6 -11 -13 -13 -15 -3 -6 -5 -25 -3 -27 2 -2 8 -15 16 -29 7 -14 15
-28 17 -30 4 -5 13 -8 29 -12 13 -3 19 -6 19 -11 0 -1 -2 -7 -5 -13 -8 -18 -9
-32 -2 -43 2 -5 10 -20 17 -33 7 -13 15 -29 19 -35 3 -6 11 -21 17 -34 7 -13
16 -29 20 -37 16 -29 27 -51 36 -68 5 -10 14 -26 19 -36 18 -34 26 -50 36 -68
5 -10 13 -24 17 -31 8 -18 15 -25 36 -37 18 -10 21 -15 20 -27 0 -4 -1 -15 -1
-24 0 -18 -1 -15 18 -52 14 -25 26 -48 39 -74 7 -12 15 -27 19 -35 4 -8 12
-23 18 -35 6 -12 16 -29 21 -39 5 -10 14 -26 18 -35 5 -9 13 -24 18 -33 5 -9
12 -23 16 -31 12 -23 16 -26 46 -36 18 -6 21 -10 15 -27 -6 -20 -4 -37 7 -48
3 -3 9 -12 12 -21 3 -8 9 -17 12 -20 4 -5 27 -15 31 -14 7 1 14 -1 18 -5 9 -9
7 -24 -7 -46 -1 -3 -2 -6 -3 -17 -1 -9 0 -12 7 -27 5 -10 12 -21 16 -25 7 -7
8 -8 19 -8 8 0 13 1 16 4 3 2 5 4 4 4 -1 0 0 2 1 4 1 2 3 12 4 22 3 18 3 18
11 27 27 25 32 31 42 49 9 18 21 42 39 75 4 8 12 23 18 34 6 11 14 27 19 35
26 50 33 64 35 78 3 19 8 29 21 41 6 6 12 13 14 16 7 9 28 53 32 63 2 5 5 11
6 14 3 3 3 7 2 16 0 6 -1 12 -1 13 0 3 -15 18 -23 24 -10 7 -11 32 -1 41 7 8
27 9 38 2 3 -2 8 -2 18 -2 17 2 23 5 30 19 3 6 9 17 13 25 5 8 13 24 19 35 6
11 14 26 18 34 4 8 13 24 19 37 7 13 16 29 20 37 4 8 12 23 17 33 6 10 14 25
18 33 4 8 13 24 20 37 6 13 15 29 19 37 7 13 11 21 37 71 6 10 14 25 18 33 21
39 26 49 56 107 6 10 14 25 18 33 4 8 12 23 18 34 6 11 14 26 18 34 4 8 13 24
19 37 7 13 16 29 20 37 4 8 12 23 18 33 5 10 13 25 17 33 4 8 13 24 19 37 7
13 16 30 21 39 18 34 20 38 20 46 0 10 -7 24 -15 30 -6 4 -16 10 -69 38 -12 6
-27 14 -35 18 -77 41 -77 41 -85 41 -11 0 -23 -5 -29 -13 -3 -3 -11 -16 -17
-28 -13 -26 -36 -68 -46 -88 -10 -18 -24 -46 -62 -119 -16 -30 -30 -56 -40
-76 -9 -16 -14 -27 -40 -74 -22 -43 -31 -59 -40 -77 -12 -23 -28 -52 -62 -119
-12 -22 -27 -51 -39 -74 -6 -11 -7 -14 -7 -23 2 -16 8 -21 30 -25 20 -4 20 -4
45 -34 2 -2 4 -7 6 -11 10 -25 -6 -38 -32 -27 -23 9 -37 19 -45 30 l-6 8 -18
0 c-16 0 -18 -1 -19 -3 -1 -4 -1 -3 -15 -29 -5 -11 -14 -28 -20 -38 -5 -11
-14 -28 -20 -39 -13 -24 -39 -74 -62 -118 -36 -69 -37 -71 -44 -71 -5 0 -11 8
-22 29 -6 11 -15 29 -21 40 -14 28 -32 61 -43 82 -5 10 -14 27 -19 37 -6 10
-15 28 -21 39 -5 10 -14 27 -20 38 -42 81 -50 95 -60 113 -5 9 -13 26 -19 37
-16 31 -33 62 -43 82 -5 10 -14 27 -19 37 -6 10 -15 28 -20 38 -6 10 -15 28
-20 38 -6 10 -15 28 -20 38 -6 10 -15 28 -20 38 -6 10 -14 25 -18 33 -11 22
-23 29 -47 26 -34 -4 -45 2 -45 26 0 12 3 18 14 28 16 15 19 33 10 49 -2 5
-10 20 -17 33 -7 13 -16 30 -20 38 -13 25 -34 65 -46 88 -6 12 -14 25 -17 28
-9 11 -26 16 -40 10z m1202 -314 c4 -4 5 -7 5 -15 0 -14 -6 -20 -20 -20 -14 0
-20 6 -20 20 0 14 6 20 20 20 8 0 11 -1 15 -5z m-1054 -84 c3 -3 3 -3 0 -6 -3
-3 -3 -3 -6 0 -3 2 -3 3 -1 6 4 4 4 4 7 0z m899 -10 l-5 -5 -4 4 -5 5 4 4 5 5
4 -4 5 -5 -4 -4z m-66 -61 c5 -5 5 -11 0 -16 -10 -10 -27 5 -16 16 4 4 12 4
16 0z m84 -69 l-5 -5 -4 4 -5 5 4 4 5 5 4 -4 5 -5 -4 -4z m-666 -261 c5 -5 6
-7 6 -17 0 -10 -1 -12 -6 -17 -5 -5 -7 -6 -17 -6 -10 0 -12 1 -17 6 -5 5 -6 7
-6 17 0 10 1 12 6 17 5 5 7 6 17 6 10 0 12 -1 17 -6z m467 -56 c4 -6 4 -24 -1
-30 -7 -9 -27 -9 -34 0 -5 6 -5 24 0 30 7 9 27 9 35 0z m-554 -75 c3 -5 3 -5
0 -10 -2 -3 -5 -5 -7 -5 -2 0 -5 2 -7 5 -3 5 -3 5 0 10 2 3 5 5 7 5 2 0 5 -2
7 -5z m47 -62 c3 -3 4 -7 4 -14 0 -13 -6 -19 -19 -19 -13 0 -19 6 -19 19 0 7
1 11 4 14 7 8 23 8 30 0z m355 -100 c3 -3 3 -3 0 -6 -3 -3 -3 -3 -6 0 -3 2 -3
3 -1 6 4 4 4 4 7 0z m-141 -41 c5 -5 5 -11 0 -16 -10 -10 -27 5 -16 16 4 4 12
4 16 0z m61 -58 c7 -6 7 -19 1 -25 -6 -7 -19 -7 -25 -1 -7 6 -7 19 -1 25 6 7
19 7 25 1z"/>
</g>
</svg>
