<?xml version="1.0" standalone="no"?>
<!DOCTYPE svg PUBLIC "-//W3C//DTD SVG 20010904//EN"
 "http://www.w3.org/TR/2001/REC-SVG-20010904/DTD/svg10.dtd">
<svg version="1.0" xmlns="http://www.w3.org/2000/svg"
 width="1100.000000pt" height="2850.000000pt" viewBox="0 0 1100.000000 2850.000000"
 preserveAspectRatio="xMidYMid meet">
<metadata>
Created by potrace 1.15, written by Peter Selinger 2001-2017
</metadata>
<g transform="translate(0.000000,2850.000000) scale(0.500000,-0.500000)"
fill="#000000" stroke="none">
<path d="M1274 3812 c-3 -4 -6 -9 -6 -10 0 -2 -1 -4 -2 -4 -1 0 -2 -1 -1 -2 1
-1 0 -2 -1 -2 -1 0 -3 -2 -4 -5 -2 -6 -4 -6 -24 4 -20 9 -21 10 -33 9 -11 0
-19 -3 -26 -11 -9 -10 -26 -15 -32 -9 -4 3 -33 12 -40 12 -3 0 -16 -2 -28 -4
-12 -2 -25 -5 -28 -5 -24 -4 -38 -7 -43 -10 -3 -1 -6 -2 -6 -2 -3 0 -14 -15
-16 -22 -3 -9 -2 -18 4 -41 2 -9 5 -22 6 -28 2 -7 3 -12 4 -12 1 0 -1 -3 -4
-6 l-6 -6 -251 0 -251 0 -3 -5 c-3 -5 -4 -10 -4 -20 0 -10 0 -11 0 -4 -1 6 -2
11 -3 12 -2 1 -2 1 -1 -1 2 -5 0 -6 -17 -7 -16 -1 -27 3 -52 14 -16 8 -21 10
-35 10 -29 2 -37 -3 -39 -25 -1 -11 0 -14 2 -19 7 -11 5 -25 -5 -44 -13 -25
-13 -27 -13 -64 0 -39 2 -48 22 -87 12 -23 17 -37 17 -42 0 -2 -1 -5 -1 -7 0
-3 -7 -12 -17 -21 -17 -18 -21 -26 -21 -44 0 -10 -4 -22 -7 -22 -2 0 -3 -2 -4
-3 0 -3 -1 -2 -1 1 0 5 -2 10 -12 33 -2 3 -11 27 -32 77 -5 12 -18 28 -24 30
-16 3 -24 2 -36 -4 -11 -6 -22 -17 -23 -24 0 -1 -1 -3 -1 -3 0 -1 0 -2 0 -2 0
-1 -1 -4 -2 -6 -2 -2 -3 -9 -3 -15 -2 -18 -4 -19 -40 -32 l-32 -11 -9 5 c-5 2
-12 6 -16 8 -5 3 -10 4 -18 4 -10 -1 -11 -1 -15 -8 -10 -15 -8 -34 7 -69 1 -2
4 -9 6 -16 2 -7 7 -22 12 -35 4 -13 18 -52 29 -87 12 -35 22 -66 23 -69 1 -3
4 -12 6 -20 6 -20 8 -21 26 -20 l16 0 6 9 c4 6 8 9 12 10 3 1 9 3 15 4 13 4
18 3 22 -6 3 -6 3 -8 1 -15 -1 -4 -2 -10 -2 -14 0 -13 -12 -26 -21 -22 -17 7
-29 9 -36 7 -20 -5 -21 -35 -2 -48 12 -8 37 -5 44 5 7 11 16 18 32 21 10 2 23
7 37 15 11 6 23 12 25 13 3 1 5 3 5 4 0 1 3 -2 6 -6 l6 -8 -1 -35 c-1 -49 1
-54 26 -54 12 0 12 0 18 8 17 23 51 20 57 -6 3 -12 -3 -31 -13 -45 -12 -15
-18 -18 -42 -18 -12 -1 -23 -2 -25 -3 -2 -1 -4 -2 -4 -1 -1 0 -8 -6 -16 -14
-16 -17 -26 -22 -99 -55 -5 -2 -18 -8 -27 -12 -33 -16 -41 -20 -67 -31 -15 -6
-28 -13 -31 -16 -10 -10 -11 -31 -3 -46 3 -5 7 -15 8 -20 5 -18 18 -34 36 -46
12 -7 14 -10 17 -20 1 -7 1 -11 0 -18 -4 -15 -13 -20 -36 -21 -31 -1 -41 -7
-45 -29 -2 -11 -2 -14 9 -53 12 -42 18 -53 29 -58 15 -7 22 -5 46 9 4 3 9 6
11 6 2 1 4 3 6 4 2 1 8 5 13 8 14 7 17 11 21 20 5 10 5 20 0 34 -9 27 -3 43
18 43 13 0 17 -3 26 -16 7 -12 22 -28 25 -28 1 0 6 -2 10 -4 4 -2 9 -4 10 -4
1 0 5 -3 8 -6 11 -12 4 -31 -12 -30 -28 2 -47 -9 -54 -33 -2 -6 -4 -12 -5 -14
-1 -2 -7 -18 -14 -35 -7 -17 -13 -33 -15 -35 -1 -2 -5 -13 -9 -23 -7 -22 -9
-26 -15 -30 -4 -3 -13 -18 -19 -29 -1 -2 -4 -6 -22 -34 -13 -20 -47 -65 -50
-67 -7 -3 -11 -27 -5 -35 4 -6 14 -9 28 -9 13 0 16 -4 18 -21 1 -22 7 -34 21
-47 7 -6 19 -17 26 -24 18 -17 26 -19 62 -15 l16 2 7 -9 c5 -4 10 -11 13 -16
3 -4 9 -10 13 -13 8 -5 22 -8 24 -5 1 1 3 2 6 3 9 2 20 10 27 21 4 5 9 11 11
13 2 2 5 7 8 11 2 4 5 8 7 10 1 1 5 6 7 11 3 4 10 15 16 24 11 16 36 59 41 70
2 3 4 7 5 7 2 2 -2 25 -6 31 -2 3 -8 8 -14 13 -12 9 -14 15 -12 32 1 16 6 18
37 17 24 0 26 0 33 5 8 6 9 6 8 16 0 8 -2 14 -5 19 -16 27 -16 34 3 41 22 7
31 14 38 27 12 25 58 214 58 241 -1 5 -3 18 -7 28 -8 24 -8 24 1 37 7 10 8 11
11 8 2 -1 4 -3 4 -4 0 -2 1 -3 2 -3 0 0 3 -3 5 -7 12 -24 21 -27 63 -29 32 -1
34 -1 39 -6 4 -4 5 -5 2 -13 -2 -4 -6 -20 -11 -35 -5 -15 -11 -36 -15 -47 -4
-11 -8 -21 -8 -23 -1 -4 -17 -45 -28 -72 -12 -29 -35 -76 -44 -88 -7 -10 -26
-29 -36 -37 -6 -4 -16 -20 -15 -23 0 -1 -1 -4 -1 -8 -1 -4 0 -10 5 -22 3 -8 9
-23 12 -32 3 -9 7 -19 8 -21 1 -3 12 -32 23 -66 23 -68 25 -73 41 -78 13 -4
20 -3 45 6 36 12 112 29 192 43 26 5 47 11 47 14 0 1 1 2 3 2 7 0 8 29 2 37
-12 12 -14 24 -7 31 8 8 21 3 31 -12 2 -4 6 -10 9 -13 3 -3 6 -6 6 -7 0 -2 23
1 27 4 5 4 12 13 17 23 11 23 38 25 56 5 12 -14 23 -16 64 -10 10 1 11 1 16
-4 5 -6 5 -6 4 -19 -3 -18 -4 -19 -14 -30 -18 -19 -21 -29 -17 -54 4 -28 13
-40 32 -44 10 -2 14 -2 23 1 106 34 145 46 148 46 1 0 2 1 2 2 0 2 3 -1 6 -4
l6 -7 0 -35 c0 -28 1 -37 3 -43 4 -9 14 -21 18 -21 2 0 3 -1 3 -2 0 -2 8 -3
26 -3 32 0 51 13 67 45 12 24 14 26 30 26 19 0 23 -4 25 -25 2 -26 6 -30 29
-28 10 1 15 2 20 6 3 3 10 8 15 12 12 8 17 19 18 36 1 26 -4 35 -28 48 -28 14
-28 24 0 38 24 13 26 16 28 51 1 21 2 27 6 36 4 8 6 9 7 6 0 -2 4 -6 9 -8 9
-5 11 -5 43 -5 154 2 235 55 254 166 3 14 4 40 4 108 1 98 2 94 -10 123 -6 16
-6 24 0 40 11 27 11 27 11 96 0 62 0 66 -5 84 -5 21 -5 29 1 52 4 14 4 20 4
55 -1 46 -2 48 -20 69 -13 13 -16 23 -9 28 2 1 3 3 3 4 0 1 5 6 11 12 16 18
19 35 7 52 -9 13 -38 25 -61 25 -20 0 -27 -2 -27 -7 0 -1 -1 -2 -1 -1 -1 2 -2
2 -4 2 -1 -1 -4 1 -7 3 -9 8 -14 53 -6 62 7 8 16 5 25 -9 5 -8 12 -12 25 -13
10 -1 12 -1 28 7 33 15 37 24 35 77 -2 47 -2 69 0 87 1 14 1 18 -2 25 -4 10
-14 22 -18 22 -2 0 -3 1 -3 2 0 2 -2 2 -109 3 -76 1 -106 1 -113 -1 -15 -4
-26 -20 -29 -41 -3 -13 -10 -20 -25 -20 -15 0 -22 7 -25 20 -3 21 -14 36 -29
41 -5 1 -34 2 -98 2 -91 0 -91 0 -100 -5 -14 -6 -18 -12 -18 -24 0 -10 1 -12
8 -18 4 -5 10 -10 13 -12 13 -10 15 -28 5 -48 -7 -14 -12 -34 -12 -46 0 -5 -2
-13 -5 -19 -6 -14 -7 -23 -8 -46 0 -11 -1 -21 -2 -23 -5 -8 -6 -20 -6 -78 -1
-67 -1 -73 10 -82 7 -6 20 -11 32 -12 4 -1 9 -2 11 -3 10 -5 25 -9 43 -10 44
-4 52 -4 63 -2 13 4 27 2 33 -4 5 -5 7 -25 2 -34 -6 -12 -2 -37 8 -48 10 -11
10 -33 1 -42 -4 -5 -18 -9 -24 -7 -2 0 -5 1 -9 2 -3 1 -7 4 -11 10 -5 9 -5 10
-3 19 1 5 3 11 4 13 5 6 4 28 -1 38 -6 13 -23 22 -40 22 -12 0 -14 -2 -29 -23
-13 -17 -16 -19 -31 -19 -12 0 -20 3 -20 9 0 2 -1 2 -1 1 -1 -2 -5 -3 -12 -3
-14 0 -21 -3 -21 -10 l-1 -5 0 5 c-1 4 -3 6 -5 7 -2 1 -4 2 -3 3 0 1 -1 1 -3
1 -3 0 -4 -1 -4 -5 0 -5 0 -5 -2 1 -3 9 -12 17 -23 20 -9 3 -25 3 -92 3 l-82
-1 -6 6 c-5 5 -6 8 -6 16 -1 14 -7 26 -21 40 -11 11 -28 39 -28 46 0 2 -6 11
-13 18 -4 5 -6 5 -19 4 -10 0 -15 -2 -17 -4 -1 -2 -5 -3 -12 -3 -11 0 -18 5
-20 15 -1 7 -9 26 -11 27 -1 0 -2 2 -2 3 0 2 -6 8 -14 13 -15 11 -17 15 -17
31 1 17 9 24 27 24 19 0 25 -7 27 -26 2 -21 8 -35 21 -50 16 -18 22 -23 25
-22 2 0 8 1 13 1 7 0 11 1 14 4 4 4 9 5 20 4 3 0 12 -5 20 -10 25 -16 26 -16
102 -15 70 1 72 1 72 3 0 1 1 2 3 2 4 0 14 12 18 21 5 11 5 197 0 208 -4 9
-14 21 -18 21 -2 0 -3 1 -3 2 0 1 -1 2 -2 2 -8 2 -146 2 -149 0 -4 -2 -13 3
-13 8 0 1 -1 3 -3 4 -2 1 -3 2 -1 3 1 1 2 19 2 63 0 56 0 62 -4 70 -4 10 -11
17 -17 19 -3 0 -3 1 2 1 3 0 6 1 6 3 1 1 2 2 4 3 1 0 6 1 10 2 4 1 34 2 66 2
l58 0 11 5 c8 4 12 8 18 18 4 6 8 13 8 14 0 7 8 11 19 11 13 0 18 -3 24 -13
15 -29 24 -35 60 -35 32 0 41 3 60 20 22 21 35 21 58 1 23 -21 22 -21 109 -21
83 0 82 0 108 14 24 12 30 12 57 -2 24 -12 32 -12 49 -1 5 3 15 10 23 15 18
11 25 19 26 27 5 41 6 43 19 47 9 2 18 9 18 13 0 2 1 3 2 2 1 0 2 5 2 13 0 12
-1 15 -4 20 -10 14 -3 36 13 39 3 0 9 2 12 3 l5 2 0 18 -1 19 -10 2 c-5 2 -17
5 -25 8 -28 9 -34 9 -87 9 -27 -1 -52 -2 -55 -3 -2 0 -6 -1 -8 -2 -11 -4 -31
-2 -47 3 -2 0 -75 1 -162 2 l-158 1 -6 5 c-3 3 -6 6 -6 7 -3 13 -10 34 -13 35
-2 0 -4 1 -4 2 0 0 -7 1 -15 0 -8 0 -15 -1 -15 -2 1 -3 -7 -19 -12 -22 -6 -5
-17 -5 -34 -1 -16 4 -31 3 -46 -5 -10 -5 -28 -20 -28 -24 0 0 -4 -5 -8 -10
-10 -10 -22 -11 -30 -3 -8 9 -6 18 9 36 7 9 13 17 13 18 0 1 2 6 4 10 2 4 4 9
4 11 0 5 6 14 11 16 3 1 12 3 20 4 18 3 39 13 38 18 0 2 0 4 1 4 0 0 3 3 5 7
4 7 7 9 10 7 1 0 2 -1 3 -1 1 0 4 -2 8 -4 31 -13 52 20 29 44 -6 7 -7 7 -20 7
-12 0 -13 0 -19 -6z m-780 -197 c6 -2 13 -7 20 -14 14 -14 28 -21 44 -22 2 0
4 -2 6 -5 2 -5 2 -6 -1 -11 -3 -5 -12 -7 -14 -3 -1 1 -16 6 -21 7 -1 0 -2 1
-3 2 -2 2 -16 1 -22 -1 -14 -6 -35 -1 -38 9 0 2 -1 10 -1 17 -1 23 7 28 30 21z
m1117 -12 c12 -7 14 -33 3 -43 -8 -9 -32 -9 -40 0 -9 8 -9 32 0 41 7 7 27 8
37 2z m-513 -19 c7 -7 10 -29 11 -77 l1 -44 -6 -5 c-7 -7 -17 -9 -27 -5 -16 6
-17 20 -3 57 8 22 8 24 8 46 0 18 1 23 4 27 4 6 7 6 12 1z m-428 -27 c3 -3 4
-7 4 -14 0 -13 -6 -19 -19 -19 -13 0 -19 6 -19 19 0 7 1 11 4 14 7 8 23 8 30
0z m-237 -20 c5 -8 1 -16 -8 -16 -9 0 -13 8 -8 16 4 6 11 6 16 0z m812 -6 c7
-4 10 -11 10 -23 0 -17 -5 -25 -18 -26 -12 -2 -24 0 -29 6 -9 8 -9 32 0 41 7
7 27 8 37 2z m-747 -47 c5 -5 5 -11 0 -16 -10 -10 -27 5 -16 16 4 4 12 4 16 0z
m267 -4 c3 -4 3 -7 2 -17 -2 -28 1 -41 12 -48 4 -3 26 -9 32 -10 2 0 3 -1 4
-2 0 -2 3 -3 6 -3 5 0 5 -1 2 -1 -12 -3 -23 -24 -19 -36 6 -15 19 -25 38 -28
11 -2 16 -8 16 -18 0 -9 -6 -17 -12 -17 -6 0 -25 -8 -31 -12 -8 -6 -13 -21
-13 -33 1 -9 0 -11 -5 -16 l-6 -6 -70 0 c-39 0 -72 0 -74 -1 -9 -2 -12 -8 -11
-22 0 -9 0 -13 -2 -14 -2 -1 -2 -2 1 -2 2 0 5 -1 7 -2 1 -2 10 -3 27 -2 l25 0
6 -6 c9 -9 9 -26 0 -34 l-6 -7 -23 2 c-20 1 -23 1 -27 -3 -5 -4 -8 -13 -6 -19
3 -8 0 -22 -9 -41 -15 -29 -11 -42 16 -55 7 -3 12 -6 13 -6 3 0 16 -10 28 -20
13 -11 17 -13 39 -23 9 -4 13 -5 38 -5 l28 0 6 -6 6 -6 0 -50 0 -50 -6 -6 -6
-6 -86 0 -86 1 -4 5 c-4 4 -4 8 -4 16 0 5 1 34 2 63 2 57 1 68 -8 73 -5 4 -32
5 -35 1 -4 -3 -10 -3 -13 1 -9 8 4 45 21 63 10 9 15 19 22 43 4 11 9 25 12 33
4 11 5 14 4 22 -1 5 -1 13 0 19 7 32 -6 95 -20 100 -2 1 -7 5 -11 9 -19 18
-15 45 9 59 9 5 24 36 20 40 -1 1 1 4 5 8 l6 6 40 -1 c55 0 62 2 64 26 1 6 2
11 2 12 1 0 0 2 -2 3 -4 5 -4 23 1 29 7 9 27 9 35 0z m-212 -77 c3 -5 3 -6 0
-12 -4 -7 -20 -19 -34 -25 -10 -5 -11 -5 -16 1 -3 5 -3 6 0 12 5 10 33 28 43
29 2 0 5 -2 7 -5z m502 -72 c3 -5 3 -5 0 -10 -2 -3 -5 -5 -7 -5 -2 0 -5 2 -7
5 -3 5 -3 5 0 10 2 3 5 5 7 5 2 0 5 -2 7 -5z m37 -130 c-1 -5 -2 -11 -2 -14 0
-3 -2 -8 -6 -11 -5 -5 -7 -6 -17 -6 -10 0 -12 1 -17 6 -9 8 -9 26 0 34 3 3 8
6 10 6 3 0 9 1 14 3 9 3 9 2 15 -3 6 -6 6 -7 3 -15z m-928 -2 l-5 -5 -4 4 -5
5 4 4 5 5 4 -4 5 -5 -4 -4z m223 3 c3 -3 7 -8 9 -13 3 -5 6 -9 6 -9 1 0 2 -1
2 -2 0 -3 10 -14 13 -14 2 0 3 -1 3 -2 0 -1 4 -3 10 -6 12 -6 17 -11 20 -21 5
-22 -8 -39 -29 -38 -17 1 -22 5 -30 26 -7 21 -11 25 -35 43 -7 5 -13 19 -11
27 1 7 1 7 7 8 2 0 4 1 4 1 0 3 12 5 20 5 4 -1 9 -3 11 -5z m464 -24 c4 -6 4
-11 0 -14 -5 -4 -6 -32 0 -51 2 -7 -4 -11 -21 -15 -9 -2 -19 -6 -22 -7 -7 -4
-20 -17 -27 -28 -7 -10 -14 -15 -24 -15 -16 0 -22 17 -12 33 3 4 6 10 6 12 1
1 2 3 3 3 2 0 5 7 16 38 3 6 8 10 18 13 10 2 32 14 34 17 2 5 17 18 21 18 3 0
6 -2 8 -4z m354 -12 c5 -5 6 -7 6 -16 0 -15 -8 -23 -23 -23 -9 0 -11 1 -16 7
-9 8 -9 23 -1 32 9 9 24 9 34 0z m-210 1 c12 -12 3 -31 -13 -31 -11 0 -18 7
-18 18 0 11 7 18 18 18 6 0 9 -1 13 -5z m-724 -63 c14 -6 16 -43 2 -49 -22 -9
-39 -10 -45 -2 -4 5 -3 32 3 43 5 11 23 14 40 8z m813 -6 c5 -6 5 -12 0 -18
-7 -8 -22 -2 -22 9 0 11 15 17 22 9z m431 -7 c12 -12 3 -31 -13 -31 -11 0 -18
7 -18 18 0 11 7 18 18 18 6 0 9 -1 13 -5z m157 -12 c14 -5 20 -16 13 -24 -4
-3 -16 -10 -24 -12 -9 -2 -20 -15 -23 -25 -1 -7 -2 -43 -2 -116 0 -93 0 -106
3 -113 5 -13 10 -18 25 -28 18 -12 22 -20 18 -38 -2 -7 -11 -19 -16 -19 -1 0
-6 -5 -12 -10 -19 -18 -18 -11 -18 -159 l0 -130 -6 -5 c-5 -5 -7 -5 -21 -6 -9
0 -16 0 -17 -1 0 0 -4 3 -7 6 l-6 6 0 285 c0 237 0 288 -3 302 -4 24 -1 46 8
58 4 5 7 9 8 9 8 3 12 5 15 8 2 2 8 7 12 11 l8 6 18 -1 c10 0 22 -2 27 -4z
m143 -55 c2 0 3 -1 3 -2 0 -1 1 -2 3 -2 5 0 13 -11 14 -20 2 -14 -6 -24 -34
-45 -32 -24 -36 -27 -48 -27 -13 0 -19 6 -19 20 0 12 4 17 19 25 14 7 27 20
32 30 3 7 25 26 27 23 0 -1 2 -2 3 -2z m-320 -29 c7 -4 10 -11 10 -24 0 -8 -1
-13 -4 -17 -9 -11 -31 -13 -42 -3 -10 8 -11 32 -1 42 7 7 27 8 37 2z m-597
-51 c5 -6 5 -12 0 -18 -7 -8 -22 -2 -22 9 0 11 15 17 22 9z m-375 -80 c11 -10
3 -28 -11 -28 -9 0 -16 6 -16 16 0 14 17 22 27 12z m1203 -9 c2 -2 6 -8 9 -13
8 -17 23 -26 42 -26 5 0 9 -1 11 -4 7 -8 4 -18 -11 -44 -12 -19 -16 -23 -30
-23 -13 0 -20 8 -22 22 0 6 -2 13 -3 15 -1 2 -2 4 -1 4 3 0 -8 17 -19 27 -12
11 -13 13 -12 27 0 8 8 17 15 18 8 2 18 0 21 -3z m-585 -65 c4 -6 4 -24 -1
-30 -7 -9 -27 -9 -34 0 -5 6 -5 24 0 30 7 9 27 9 35 0z m-652 -21 c3 -5 3 -5
0 -10 -2 -3 -5 -5 -7 -5 -2 0 -5 2 -7 5 -3 5 -3 5 0 10 2 3 5 5 7 5 2 0 5 -2
7 -5z m951 -12 l-5 -5 -4 4 -5 5 4 4 5 5 4 -4 5 -5 -4 -4z m-438 -75 c5 -5 6
-7 6 -17 0 -16 -7 -23 -23 -23 -16 0 -23 7 -23 23 0 16 7 23 23 23 10 0 12 -1
17 -6z m-539 -7 c5 -8 1 -16 -8 -16 -9 0 -13 8 -8 16 2 3 5 5 8 5 3 0 6 -2 8
-5z m-194 -36 c5 -8 1 -16 -8 -16 -9 0 -13 8 -8 16 2 3 5 5 8 5 3 0 6 -2 8 -5z
m493 -4 c6 -7 6 -22 0 -28 -7 -7 -26 -8 -32 -1 -5 6 -4 23 2 29 7 8 23 8 30 0z
m476 -2 c2 -2 4 -6 4 -8 0 -5 7 -24 11 -30 4 -7 14 -13 23 -14 14 -3 37 9 38
19 1 4 3 0 7 -12 l5 -17 0 -164 c-1 -90 -2 -166 -3 -168 -1 -2 -3 -3 -4 -2 -2
0 -3 -1 -4 -4 0 -3 -1 -3 -1 2 0 3 -1 10 -3 15 -9 26 -21 64 -23 69 -10 33
-24 66 -33 76 -8 9 -11 17 -14 40 -7 48 -21 65 -60 70 -8 1 -14 4 -25 11 -25
17 -27 17 -89 0 -28 -8 -54 -15 -57 -16 -3 -2 -6 -3 -7 -3 0 0 -4 -2 -8 -5 -9
-7 -15 -25 -11 -36 3 -12 16 -47 18 -50 1 -2 2 -5 2 -7 0 -2 1 -5 2 -7 1 -1 5
-13 9 -25 7 -22 7 -22 4 -28 -4 -5 -11 -8 -30 -10 -7 -1 -17 -2 -23 -3 -30 -5
-65 -8 -71 -6 -8 3 -8 6 2 27 15 31 12 43 -14 59 -11 8 -13 11 -13 23 0 16 14
25 29 18 14 -8 42 -1 48 11 6 12 35 82 40 100 7 20 8 21 60 22 47 2 49 2 49 4
0 1 3 3 7 5 4 1 9 6 12 10 16 22 31 23 44 3 3 -6 4 -6 20 -6 l16 0 5 13 c2 7
4 14 4 16 0 13 23 18 34 8z m190 -12 c4 -2 11 -6 16 -10 5 -4 12 -8 16 -10 16
-8 21 -25 11 -35 -7 -7 -18 -5 -48 10 -27 13 -29 15 -29 29 0 17 17 25 34 16z
m-574 -27 c4 -2 7 -10 9 -27 2 -12 7 -25 13 -30 8 -7 13 -19 11 -28 -2 -11 -5
-15 -15 -18 -14 -4 -26 4 -39 24 -6 11 -7 22 -2 64 2 15 12 21 23 15z m874 -9
c17 -8 20 -35 5 -66 -6 -14 -12 -18 -27 -18 -20 0 -26 7 -27 30 -1 15 6 40 12
47 8 9 25 12 37 7z m-243 -113 c7 -6 7 -19 1 -25 -6 -7 -19 -7 -25 -1 -7 6 -7
19 -1 25 6 7 19 7 25 1z m-1013 -90 c5 -5 5 -11 0 -16 -10 -10 -27 5 -16 16 4
4 12 4 16 0z m918 -18 c5 -6 5 -12 0 -18 -7 -8 -22 -2 -22 9 0 11 15 17 22 9z
m272 -26 c4 -3 6 -8 7 -15 2 -14 8 -29 17 -44 6 -11 8 -22 6 -32 -8 -31 -65
-46 -76 -21 -5 11 -3 24 5 39 8 15 9 31 4 46 -3 11 -2 21 4 27 9 9 25 9 33 0z
m-853 -2 c10 -9 3 -26 -10 -26 -8 0 -15 7 -15 15 0 13 16 20 25 11z m-434 -18
c28 -3 33 -5 33 -19 0 -14 -6 -18 -36 -20 -23 -2 -42 -14 -57 -36 -7 -13 -11
-14 -34 -16 -11 -1 -25 -2 -32 -3 -25 -5 -34 -1 -36 16 -1 9 -1 11 3 15 3 3 6
5 9 5 7 0 42 12 62 22 13 7 17 10 35 29 4 5 10 9 13 9 5 1 6 1 40 -2z m345
-26 c6 -5 11 -32 11 -66 0 -15 0 -17 -6 -21 -8 -7 -28 -7 -36 0 l-6 5 1 29 c0
17 0 32 1 34 0 2 1 6 1 9 0 2 2 6 5 9 6 6 22 7 29 1z m507 -10 c9 -8 12 -28 5
-36 -4 -4 -6 -5 -19 -5 -16 0 -22 3 -25 13 -3 6 1 23 6 27 8 7 26 7 33 1z
m-239 -2 c9 -9 2 -24 -10 -24 -12 0 -18 13 -11 24 4 5 15 6 21 0z m207 -93 c5
-4 6 -6 7 -16 1 -22 -4 -28 -28 -30 -14 -2 -14 -2 -20 3 -6 6 -6 8 -2 29 3 15
9 19 25 19 11 0 14 -1 18 -5z"/>
</g>
</svg>
