<?xml version="1.0" standalone="no"?>
<!DOCTYPE svg PUBLIC "-//W3C//DTD SVG 20010904//EN"
 "http://www.w3.org/TR/2001/REC-SVG-20010904/DTD/svg10.dtd">
<svg version="1.0" xmlns="http://www.w3.org/2000/svg"
 width="1000.000000pt" height="2850.000000pt" viewBox="0 0 1000.000000 2850.000000"
 preserveAspectRatio="xMidYMid meet">
<metadata>
Created by potrace 1.15, written by Peter Selinger 2001-2017
</metadata>
<g transform="translate(0.000000,2850.000000) scale(0.500000,-0.500000)"
fill="#000000" stroke="none">
<path d="M722 3811 c-12 -4 -19 -10 -24 -20 -6 -13 -5 -23 5 -35 4 -5 26 -16
32 -16 2 0 6 -3 9 -6 5 -5 6 -7 6 -17 0 -10 -1 -12 -6 -17 -3 -4 -8 -6 -11 -6
-6 0 -26 -7 -34 -13 -8 -6 -13 -18 -15 -45 -1 -14 -2 -27 -3 -30 0 -3 -1 -9
-1 -14 -1 -11 -8 -19 -18 -21 -9 -2 -20 -8 -27 -15 -9 -8 -18 -12 -25 -12 -7
0 -18 5 -21 10 -6 7 -27 15 -48 16 -18 2 -346 1 -352 0 -2 0 -3 -1 -3 -2 0 -1
-1 -2 -3 -2 -4 0 -14 -12 -18 -21 -5 -11 -5 -231 0 -242 4 -9 14 -21 18 -21 2
0 3 -1 3 -2 0 -2 2 -2 60 -3 64 -1 66 -1 84 17 15 15 17 16 25 12 4 -1 13 -3
24 -4 15 0 17 0 17 3 0 2 1 3 2 2 2 -1 5 5 5 13 0 2 2 6 4 7 8 6 22 2 22 -7 0
-5 3 -12 10 -26 7 -16 30 -23 47 -14 10 5 12 9 13 22 0 6 1 11 2 11 0 1 -1 3
-3 4 -10 7 -2 25 11 25 13 0 20 -18 11 -25 -2 -1 -3 -3 -3 -4 1 0 2 -5 2 -11
1 -6 2 -12 3 -14 3 -5 15 -11 25 -13 4 0 9 -3 12 -5 l5 -4 -18 -18 c-19 -19
-31 -30 -54 -47 -8 -6 -19 -14 -24 -17 -4 -4 -13 -13 -18 -22 -15 -22 -16 -22
-43 -23 -22 -1 -25 -2 -42 -9 -10 -4 -19 -8 -20 -8 -1 0 -5 -2 -10 -4 -10 -5
-72 -26 -75 -26 -8 0 -10 -5 -10 -21 0 -18 2 -21 12 -25 9 -3 13 -11 13 -24 0
-19 -8 -27 -27 -27 -13 0 -20 4 -24 11 -4 7 -3 24 0 32 7 14 5 26 -5 31 -7 4
-30 4 -34 1 -2 -2 -3 -2 -3 -1 0 0 -5 -1 -10 -2 -6 -2 -13 -4 -16 -4 -3 -1 -9
-2 -13 -3 -10 -3 -32 -8 -40 -9 -14 -3 -30 -8 -36 -11 -8 -5 -11 -12 -11 -26
l0 -11 15 -15 c15 -16 16 -17 59 -29 41 -11 47 -23 26 -48 -3 -4 -7 -10 -8
-14 -2 -9 -3 -22 0 -23 1 -1 13 -21 20 -38 4 -7 9 -19 13 -27 12 -25 29 -35
53 -30 4 1 7 2 8 2 0 1 3 -1 6 -4 l6 -6 0 -96 c0 -84 0 -98 3 -104 4 -9 14
-21 18 -21 2 0 3 -1 3 -2 0 -2 1 -2 1 -2 1 1 4 1 7 0 4 -1 36 -2 71 -2 54 0
66 -1 71 -3 3 -2 6 -4 6 -5 0 -1 2 -2 4 -2 2 0 1 -1 -2 -2 -15 -4 -37 -18 -49
-29 -2 -2 -15 -9 -29 -15 -21 -10 -41 -23 -46 -28 -1 -1 -6 -5 -13 -11 -15
-13 -36 -34 -44 -45 -3 -5 -6 -9 -7 -10 -2 -2 -16 -25 -16 -27 0 -1 -2 -6 -5
-12 -17 -38 -20 -109 -6 -161 9 -32 31 -76 50 -98 17 -19 40 -40 47 -41 7 -2
30 1 38 5 10 5 18 -1 22 -17 4 -15 11 -30 19 -36 13 -10 92 -35 125 -40 4 0
16 -2 27 -4 42 -7 78 -9 159 -10 86 -2 93 -1 103 8 6 5 12 19 14 32 3 23 7 27
26 27 19 0 23 -4 26 -27 3 -22 12 -35 27 -39 5 -1 61 -2 168 -2 l161 1 9 6 c6
3 12 9 15 14 12 19 17 23 28 23 11 0 16 -4 28 -23 3 -5 9 -11 15 -14 9 -6 10
-6 42 -7 l32 0 24 7 c13 4 26 8 29 8 3 -1 16 -4 28 -8 l22 -7 49 1 c88 2 136
8 188 25 21 7 53 22 65 30 5 3 10 6 11 6 1 0 2 1 2 2 0 0 2 3 6 4 14 9 46 41
46 47 0 0 1 1 2 1 6 0 32 41 45 71 13 27 14 35 3 56 -3 7 -6 13 -6 15 -2 4 4
14 7 14 2 0 3 1 3 2 0 0 5 4 11 7 l11 5 0 14 c0 10 -1 14 -4 17 -5 4 -24 13
-29 13 -3 0 -7 2 -10 5 -6 4 -6 6 -6 20 0 14 0 16 6 20 4 4 7 5 19 5 8 0 19 2
27 4 12 4 13 4 18 15 4 8 5 13 4 18 -5 21 -20 33 -48 39 -18 4 -18 4 -46 11
-48 13 -106 35 -139 51 -15 7 -18 8 -27 7 -18 -1 -28 -15 -30 -41 -2 -20 -5
-47 -7 -60 -1 -6 -2 -14 -3 -17 -4 -23 -17 -58 -27 -73 -13 -21 -39 -32 -79
-35 -9 0 -60 -1 -115 -1 -105 0 -107 0 -112 -10 -1 -2 -2 -9 -2 -16 0 -9 -1
-12 -3 -13 -3 0 -3 -1 0 -1 7 0 11 -7 11 -21 0 -11 0 -12 -8 -19 -4 -4 -13
-10 -19 -15 -7 -4 -15 -10 -19 -13 -9 -7 -18 -10 -28 -8 -12 3 -14 8 -14 28 1
20 -1 27 -7 41 -9 20 -21 35 -33 41 l-11 6 -218 -1 c-120 0 -219 -1 -220 -1
-2 0 -3 -1 -3 -2 0 -1 -2 -2 -5 -3 -3 -1 -8 -6 -14 -13 -15 -23 -19 -26 -32
-26 -13 0 -18 4 -27 19 -6 10 -14 19 -18 19 -1 0 -2 1 -2 2 0 1 -4 3 -9 4 -12
3 -12 3 -39 5 -44 2 -74 11 -81 23 -4 7 -4 20 0 29 12 23 98 57 259 101 16 5
31 9 32 9 2 0 9 2 15 4 17 4 58 14 91 22 42 10 42 10 54 13 6 1 11 2 12 3 1 0
4 1 8 2 4 1 11 2 15 3 4 1 10 3 13 3 3 1 25 6 49 11 53 12 45 11 75 17 14 3
29 6 33 7 4 1 19 4 33 7 14 3 33 7 43 9 10 2 31 7 47 10 127 26 126 26 138 38
3 3 9 12 13 21 9 19 12 21 28 21 14 0 14 0 32 -17 4 -4 9 -7 10 -7 1 0 4 -1 7
-3 8 -4 17 -4 39 1 31 6 52 13 71 23 28 14 29 15 30 35 0 15 -1 17 -20 33 -18
14 -32 16 -53 6 -34 -16 -56 1 -47 36 4 17 3 34 -4 42 -2 3 -9 9 -16 14 -7 4
-20 15 -29 24 -29 27 -44 32 -74 24 -3 -1 -162 -2 -353 -2 -384 -1 -359 0
-369 -14 -5 -7 -11 -23 -11 -30 0 -8 -4 -13 -11 -16 -12 -5 -25 3 -25 16 0 7
-6 23 -11 30 -10 13 -12 13 -108 13 l-87 -1 -5 -5 c-7 -7 -11 -30 -6 -36 3 -2
4 -6 3 -18 0 -11 -9 -19 -22 -19 -13 0 -22 8 -22 19 -1 12 0 16 3 18 2 2 2 7
2 14 -1 12 -4 20 -10 23 -6 3 -9 6 -9 9 0 1 -1 2 -2 2 -2 0 -2 1 0 2 2 1 2 2
-2 3 -5 0 -4 0 1 1 5 0 40 12 77 26 22 9 31 18 39 38 3 8 6 17 7 19 4 11 24
15 37 8 12 -5 29 -4 46 4 8 4 20 8 26 10 7 2 15 5 19 7 17 7 75 48 103 73 21
17 66 64 80 81 7 8 12 15 13 16 5 5 44 62 44 65 0 0 4 7 9 16 21 36 29 56 29
80 0 7 1 13 3 16 3 5 4 5 12 4 4 -1 10 -2 12 -3 7 -4 27 0 38 7 5 4 12 7 15 7
5 0 16 -6 21 -11 2 -2 7 -5 12 -8 8 -4 10 -4 78 -4 l70 0 9 6 c8 4 20 18 20
23 0 3 15 18 19 18 2 0 6 0 9 0 11 0 12 0 18 -6 5 -5 6 -7 6 -17 0 -14 -3 -19
-15 -25 -16 -9 -25 -16 -31 -27 -3 -5 -3 -14 -3 -73 0 -39 1 -75 3 -86 1 -10
3 -23 3 -28 1 -11 2 -13 6 -31 16 -72 56 -129 108 -154 32 -15 58 -23 95 -28
l22 -3 16 5 c21 7 26 12 33 34 3 9 5 18 5 20 0 12 21 18 30 8 5 -5 5 -17 1
-24 -6 -8 -3 -32 4 -39 l5 -5 80 0 c43 0 86 1 95 2 68 6 125 37 161 88 22 30
48 93 57 137 0 3 3 14 5 24 4 20 13 80 15 101 3 37 -31 66 -53 45 -3 -2 -4 -4
-3 -4 1 0 1 -1 0 -2 -5 -2 -6 -20 -2 -32 4 -15 4 -34 -1 -40 -3 -4 -4 -4 -13
-3 -9 1 -29 12 -38 21 -8 7 -10 21 -5 36 4 14 5 33 2 41 -1 2 -4 7 -7 9 -9 9
-17 16 -19 16 -1 0 -2 1 -2 2 -1 0 -8 4 -16 8 -45 22 -62 31 -74 38 -24 14
-44 10 -51 -10 -4 -14 -4 -53 0 -72 4 -17 3 -26 -4 -48 -3 -8 -6 -20 -6 -27
-1 -17 -1 -16 -4 -19 -1 -2 -3 -6 -5 -10 -3 -8 -9 -14 -16 -16 -6 -1 -77 -2
-82 0 -1 1 -5 3 -8 6 -7 7 -8 17 -8 151 0 118 0 121 -4 132 -3 6 -5 11 -6 11
-1 0 -2 1 -2 2 0 1 -3 6 -6 10 -7 8 -7 10 -7 23 0 13 0 15 7 23 3 4 6 9 6 10
0 1 1 2 2 2 3 0 10 22 10 30 0 14 -13 36 -21 36 -2 0 -3 1 -3 2 0 1 -1 2 -2 2
-2 0 -102 1 -223 1 l-220 1 -20 -6 c-12 -3 -25 -6 -29 -6 -15 0 -23 13 -20 33
2 13 3 26 7 68 2 19 3 39 4 45 1 6 2 25 2 43 2 37 0 46 -13 55 -13 10 -17 10
-92 10 -69 0 -90 -1 -90 -6 0 -1 -1 -2 -3 -2 -1 0 -6 -4 -12 -9 -11 -11 -19
-15 -27 -15 -7 0 -12 3 -25 15 -6 5 -11 9 -12 9 -2 0 -3 1 -3 2 0 1 -4 3 -9 4
-10 2 -8 2 -17 -1z m160 -57 c2 -5 2 -6 0 -11 -4 -7 -12 -11 -28 -12 -12 -1
-14 -1 -17 3 -2 3 -3 6 -3 8 0 5 9 14 16 15 3 1 6 2 7 2 1 0 6 1 12 0 8 0 10
-1 13 -5z m331 -256 c23 -10 26 -44 3 -44 -14 0 -26 13 -29 30 -2 16 8 21 26
14z m-709 -47 l-5 -5 -4 4 -5 5 4 4 5 5 4 -4 5 -5 -4 -4z m177 -2 c3 -5 3 -5
0 -10 -2 -3 -5 -5 -7 -5 -2 0 -5 2 -7 5 -3 5 -3 5 0 10 2 3 5 5 7 5 2 0 5 -2
7 -5z m320 -27 c7 -6 7 -19 1 -25 -6 -7 -19 -7 -25 -1 -7 6 -7 19 -1 25 6 7
19 7 25 1z m174 -46 c16 -7 15 -43 -2 -50 -7 -3 -21 -3 -29 0 -17 7 -17 43 -1
50 12 4 20 4 32 0z m238 -48 c10 -3 15 -9 15 -18 0 -18 -9 -31 -24 -34 -10 -2
-23 0 -28 6 -9 8 -9 32 0 41 6 6 23 9 37 5z m-767 -17 c3 -3 4 -7 4 -14 0 -13
-6 -19 -19 -19 -9 0 -19 5 -19 10 0 1 -1 2 -2 2 -4 0 -2 11 4 18 9 11 24 12
32 3z m-62 -141 c5 -5 5 -11 0 -16 -10 -10 -27 5 -16 16 4 4 12 4 16 0z m1158
-9 c6 -7 6 -22 -1 -28 -7 -7 -22 -7 -29 0 -7 7 -7 21 0 28 7 8 23 8 30 0z
m-1119 -63 c7 -6 7 -18 1 -24 -5 -3 -7 -4 -26 -3 -20 1 -23 0 -36 -4 -7 -3
-16 -5 -20 -5 -15 0 -22 20 -11 31 5 5 6 5 16 4 5 -1 14 -2 19 -2 10 -2 35 2
37 5 2 4 16 2 20 -2z m740 -35 c3 -2 6 -5 7 -7 4 -7 3 -27 -1 -33 -8 -12 -35
-16 -45 -6 -9 9 -7 35 2 44 8 7 28 8 37 2z m188 -47 c4 -6 4 -24 -1 -30 -7 -9
-27 -9 -34 0 -5 6 -5 24 0 30 7 9 27 9 35 0z m52 -67 c3 -5 3 -5 0 -10 -2 -3
-5 -5 -7 -5 -2 0 -5 2 -7 5 -3 5 -3 5 0 10 2 3 5 5 7 5 2 0 5 -2 7 -5z m-522
-213 c11 -10 3 -28 -11 -28 -9 0 -16 6 -16 16 0 14 17 22 27 12z m-388 -29
c11 -5 15 -17 8 -29 -4 -7 -10 -9 -20 -6 -8 3 -13 9 -13 18 0 9 3 14 11 17 8
4 6 3 14 0z m42 -71 c11 -3 16 -9 19 -19 7 -27 -16 -46 -42 -36 -17 8 -20 36
-6 51 7 7 15 8 29 4z m287 -35 c16 -7 20 -37 7 -48 -12 -11 -34 -11 -43 0 -9
10 -9 32 0 42 7 8 24 11 36 6z m-446 -65 c5 -5 5 -11 0 -16 -10 -10 -27 5 -16
16 4 4 12 4 16 0z m21 -101 c4 -4 5 -7 5 -15 0 -14 -6 -20 -20 -20 -14 0 -20
6 -20 20 0 14 6 20 20 20 8 0 11 -1 15 -5z m1147 -142 c3 -3 4 -7 4 -14 0 -13
-6 -19 -19 -19 -13 0 -19 6 -19 19 0 7 1 11 4 14 7 8 23 8 30 0z m-271 -116
c12 -7 14 -33 3 -43 -9 -10 -34 -9 -42 2 -7 10 -7 30 2 39 7 7 27 8 37 2z
m-676 -6 c12 -7 14 -33 3 -43 -8 -9 -32 -9 -40 0 -8 8 -9 32 -1 39 8 9 28 10
38 4z m-125 -14 c16 -7 20 -37 7 -48 -12 -11 -34 -11 -43 0 -9 10 -9 32 0 42
7 8 24 11 36 6z m1167 -33 c5 -5 7 -15 4 -25 0 -2 -1 -5 -1 -5 0 -1 -4 -3 -8
-6 -15 -7 -34 0 -34 14 -1 13 0 17 5 22 9 9 25 9 34 0z m-440 -29 c3 -3 3 -3
0 -6 -3 -3 -3 -3 -6 0 -3 2 -3 3 -1 6 4 4 4 4 7 0z m357 -10 c12 -9 12 -34 1
-43 -8 -6 -29 -6 -36 1 -6 4 -6 6 -6 20 0 14 0 16 6 20 7 6 27 7 35 2z m-788
-25 c5 -5 5 -11 0 -16 -10 -10 -27 5 -16 16 4 4 12 4 16 0z"/>
</g>
</svg>
