<?xml version="1.0" standalone="no"?>
<!DOCTYPE svg PUBLIC "-//W3C//DTD SVG 20010904//EN"
 "http://www.w3.org/TR/2001/REC-SVG-20010904/DTD/svg10.dtd">
<svg version="1.0" xmlns="http://www.w3.org/2000/svg"
 width="1100.000000pt" height="2850.000000pt" viewBox="0 0 1100.000000 2850.000000"
 preserveAspectRatio="xMidYMid meet">
<metadata>
Created by potrace 1.15, written by Peter Selinger 2001-2017
</metadata>
<g transform="translate(0.000000,2850.000000) scale(0.500000,-0.500000)"
fill="#000000" stroke="none">
<path d="M305 3816 c-15 -2 -22 -9 -25 -22 -1 -5 -1 -14 0 -19 3 -12 2 -26 -1
-34 -3 -8 -3 -36 1 -42 1 -3 2 -8 2 -13 0 -16 -17 -21 -32 -10 -8 5 -10 6 -24
6 -11 0 -16 -1 -18 -3 -5 -6 -10 -19 -15 -34 -6 -22 -10 -29 -21 -44 -6 -10
-13 -23 -21 -42 -17 -44 -19 -51 -21 -73 -2 -22 -4 -28 -17 -50 -9 -16 -16
-40 -29 -94 -6 -29 -17 -84 -19 -97 0 -4 -2 -12 -3 -18 -4 -21 1 -34 19 -53
11 -11 13 -13 13 -20 0 -8 -5 -14 -19 -21 -26 -14 -34 -35 -25 -74 4 -19 3
-26 -7 -53 -2 -5 -4 -15 -5 -23 -1 -20 -1 -226 1 -265 3 -80 10 -158 18 -209
1 -3 1 -9 2 -13 3 -21 6 -44 8 -52 1 -2 2 -8 2 -13 1 -9 14 -69 21 -96 11 -45
26 -99 39 -134 4 -11 8 -23 9 -26 2 -8 11 -18 19 -21 7 -2 23 -1 36 1 6 1 8 1
11 -3 7 -8 4 -18 -9 -25 -13 -6 -19 -14 -21 -29 -2 -9 -1 -11 23 -59 26 -54
53 -102 60 -107 4 -4 5 -4 22 -4 9 0 12 1 20 6 7 5 11 6 18 7 16 0 20 -2 29
-15 12 -16 17 -20 29 -23 13 -3 34 0 49 7 4 1 8 3 9 3 1 0 4 3 8 7 9 12 9 26
2 40 -9 15 -29 56 -39 76 -13 28 -46 110 -49 121 0 1 -5 18 -12 37 -6 19 -13
44 -16 55 -3 11 -9 25 -12 32 -18 32 -18 31 -16 58 1 22 1 28 -5 60 -3 20 -7
38 -7 41 0 3 -1 10 -2 15 -1 6 -1 12 -2 15 0 3 -3 23 -5 45 -3 35 -7 65 -8 78
-1 2 -2 5 -3 5 -1 1 -1 2 0 2 2 0 2 10 -1 63 -1 20 -3 53 -3 74 -2 59 -2 59
-6 69 -5 11 -10 15 -28 25 -16 9 -17 10 -19 23 -3 15 -1 17 13 19 3 1 7 3 9 4
2 2 4 3 5 3 4 0 15 11 19 20 4 8 5 13 5 40 1 20 1 34 -1 40 -1 5 -3 24 -4 42
-1 18 -2 38 -3 45 -1 9 -1 14 3 21 4 10 4 28 0 36 -2 4 -24 18 -28 18 -5 0
-10 11 -10 23 l0 12 13 12 c15 14 18 19 19 32 l0 11 -11 5 c-11 5 -13 5 -41 5
-18 0 -26 18 -16 38 2 5 5 11 6 12 14 14 13 29 -2 49 -5 6 -8 12 -8 15 0 7 6
14 11 14 7 0 26 -6 38 -11 18 -8 19 -11 21 -40 1 -13 2 -25 3 -26 2 -4 34 -4
37 0 2 1 6 18 10 37 4 19 10 50 14 68 5 18 9 34 9 36 2 7 27 92 31 103 11 30
36 93 50 122 17 36 23 49 34 69 12 21 12 24 12 33 -2 19 -14 29 -46 36 -8 2
-19 4 -23 5 -4 1 -10 2 -12 3 -2 0 -13 3 -24 6 -27 6 -29 7 -38 5z m-70 -334
c7 -6 7 -19 1 -25 -6 -7 -19 -7 -25 -1 -7 6 -7 19 -1 25 6 7 19 7 25 1z m-111
-551 c5 -7 6 -13 2 -14 -2 -1 -4 -2 -4 -3 0 -3 -11 -1 -14 3 -5 4 -5 10 0 15
4 4 12 4 16 -1z m60 -31 l6 -7 -6 -4 c-6 -5 -9 -4 -14 1 -5 5 -5 8 0 12 5 5 7
5 14 -2z m-26 -153 c4 -4 16 -27 17 -33 1 -3 0 -2 11 -8 5 -2 13 -7 18 -10 7
-5 8 -7 8 -14 0 -12 -6 -18 -17 -18 -10 0 -17 7 -30 31 -2 3 -16 9 -31 13 -11
3 -15 9 -13 21 1 14 9 21 23 21 6 0 11 -1 14 -3z m68 -154 c6 -8 2 -18 -8 -18
-6 0 -12 6 -12 11 0 10 14 15 20 7z m-75 -133 c10 -9 3 -26 -10 -26 -8 0 -15
7 -15 15 0 13 16 20 25 11z m40 -158 c4 -6 4 -24 -1 -30 -7 -9 -27 -9 -34 0
-5 6 -5 24 0 30 7 9 27 9 35 0z"/>
<path d="M1679 3816 c-4 -1 -21 -5 -38 -9 -16 -4 -33 -8 -37 -9 -4 -1 -11 -3
-17 -4 -11 -2 -24 -9 -30 -16 -5 -6 -6 -25 -2 -34 11 -22 19 -29 45 -39 17 -7
16 -6 24 -26 3 -9 10 -22 15 -29 13 -17 14 -28 5 -50 -8 -22 -8 -32 1 -57 11
-29 31 -95 34 -111 2 -9 14 -24 23 -29 7 -4 22 -9 26 -9 6 0 14 -11 14 -18 1
-15 0 -17 -21 -36 -7 -6 -14 -21 -14 -31 0 -4 2 -20 5 -35 2 -15 5 -30 5 -33
1 -3 1 -9 2 -12 0 -3 1 -11 2 -17 1 -6 2 -18 3 -26 2 -13 4 -43 9 -101 0 -5 1
-23 2 -38 1 -15 2 -35 2 -44 1 -9 2 -73 2 -143 0 -145 -1 -135 18 -164 6 -9
11 -18 11 -19 0 -1 2 -5 5 -8 6 -6 5 -8 -1 -22 -3 -6 -8 -11 -15 -17 -19 -14
-29 -32 -29 -54 0 -25 14 -38 43 -41 13 -1 20 -5 23 -13 4 -9 3 -24 -1 -31 -4
-9 -19 -14 -30 -11 -7 2 -22 0 -31 -4 -9 -4 -17 -18 -19 -31 -2 -18 -13 -80
-17 -101 -3 -12 -4 -21 -3 -27 1 -4 1 -9 2 -11 0 -5 18 -22 29 -29 17 -9 30
-23 30 -32 0 -15 -13 -19 -41 -12 -12 3 -16 2 -32 -5 -9 -4 -11 -6 -17 -17 -7
-14 -21 -57 -23 -68 -3 -29 -7 -42 -20 -58 -4 -5 -9 -14 -12 -21 -3 -6 -17
-35 -31 -64 -26 -52 -27 -52 -25 -63 1 -16 12 -26 34 -31 6 -1 13 -3 17 -4 4
-1 21 -5 38 -9 17 -4 34 -8 38 -9 14 -4 31 2 42 14 8 8 12 14 43 68 15 27 57
111 68 137 4 10 9 22 11 26 12 26 38 101 50 143 23 81 37 148 51 252 9 66 9
82 -3 94 -5 4 -22 10 -32 11 -10 1 -16 3 -24 11 -13 12 -12 11 -30 15 -6 1
-14 2 -17 1 -15 -3 -34 9 -31 20 7 23 23 29 44 16 14 -9 33 -12 45 -8 5 2 13
3 17 3 49 -3 65 47 24 73 -26 16 -25 26 4 44 10 7 13 10 17 19 l6 12 -2 75 c0
41 -1 77 -2 80 0 3 -1 17 -2 32 -2 41 -11 138 -14 153 0 2 -1 9 -2 16 -1 7 -2
14 -2 16 -1 3 -1 8 -2 12 -2 12 -9 51 -10 58 -18 93 -37 166 -65 241 -16 45
-19 51 -25 59 -4 7 -4 7 -19 7 -16 0 -22 -3 -22 -9 0 -2 -3 -7 -7 -11 -9 -10
-18 -11 -25 -3 -6 6 -5 14 3 26 9 14 13 30 13 44 0 7 1 16 3 20 6 17 6 45 0
45 -3 0 -18 26 -22 40 -1 3 -4 9 -7 13 -2 4 -7 12 -10 17 -19 33 -29 45 -41
48 -15 3 -18 3 -26 2z m53 -113 c10 -3 15 -13 13 -26 -3 -18 -10 -23 -34 -21
-2 0 -6 3 -9 6 -5 5 -6 7 -6 17 0 14 3 20 12 24 6 2 17 2 24 0z m101 -337 c4
-6 4 -24 -1 -30 -7 -9 -27 -9 -34 0 -5 6 -5 24 0 30 7 9 27 9 35 0z m1 -110
c5 -5 5 -11 0 -16 -10 -10 -27 5 -16 16 4 4 12 4 16 0z m63 -223 c4 -4 5 -7 5
-15 0 -14 -6 -20 -20 -20 -14 0 -20 6 -20 20 0 14 6 20 20 20 8 0 11 -1 15 -5z
m-63 -228 c21 -9 20 -45 -2 -54 -10 -5 -28 -1 -34 6 -9 10 -9 32 0 42 7 8 24
11 36 6z m-34 -379 c4 -3 9 -7 11 -9 6 -5 18 -13 29 -19 20 -10 22 -32 4 -41
-33 -17 -77 15 -75 54 2 18 15 24 31 15z"/>
<path d="M747 3587 c-6 -3 -12 -6 -14 -8 -4 -6 -10 -20 -12 -30 -2 -10 -9 -19
-15 -19 -6 1 -26 -6 -31 -10 -2 -2 -4 -4 -5 -4 -2 0 -6 -18 -5 -22 1 -3 6 -14
11 -25 5 -11 11 -26 13 -33 4 -15 10 -23 28 -37 7 -5 7 -7 7 -16 0 -12 -5 -18
-17 -20 -20 -2 -33 -10 -39 -22 -4 -8 -4 -10 -2 -19 3 -9 17 -26 23 -26 4 0
17 -14 17 -19 0 -5 -9 -14 -23 -23 -18 -12 -18 -13 -19 -91 -1 -37 -2 -70 -3
-73 -4 -14 -17 -18 -32 -9 -33 20 -53 19 -58 -4 -3 -12 -3 -25 -1 -26 1 -1 2
-6 2 -11 0 -14 -6 -20 -20 -20 -13 0 -20 6 -20 17 0 11 -6 28 -12 34 -9 9 -17
10 -47 5 -30 -5 -39 -8 -44 -15 -5 -8 -7 -25 -4 -41 1 -5 0 -10 -5 -19 -6 -13
-12 -36 -12 -47 0 -11 -9 -19 -22 -19 -14 0 -20 6 -22 22 -1 12 0 13 14 29 6
6 11 15 15 24 5 13 5 14 2 24 -7 21 -27 28 -50 18 -4 -1 -8 -3 -9 -4 -1 -1 -3
-2 -5 -3 -4 -1 -9 -10 -11 -16 0 -1 -1 -3 -2 -4 -1 -2 -2 -6 -2 -10 -1 -12 6
-60 8 -64 1 -2 2 -12 3 -22 3 -41 6 -57 18 -94 12 -35 15 -44 21 -50 3 -4 26
-15 31 -15 1 0 3 -1 4 -2 1 -1 7 -2 36 -5 11 -1 24 1 84 11 16 3 20 3 48 8 14
2 28 4 30 5 2 0 15 2 29 4 13 2 24 5 24 5 0 2 1 1 12 -8 3 -2 3 -4 2 -5 -1 -1
-2 -44 -2 -137 l0 -135 5 -20 c5 -19 6 -31 2 -45 -6 -27 -6 -30 1 -45 8 -17
12 -20 25 -19 14 0 17 2 29 13 14 14 35 16 46 6 6 -5 16 -20 16 -24 0 -1 3 -5
6 -9 5 -7 6 -7 18 -7 7 0 12 1 12 2 0 1 1 1 1 -1 1 -1 2 -1 5 2 5 5 12 10 18
10 19 2 26 -4 26 -21 0 -17 -7 -23 -26 -21 -6 1 -8 1 -17 10 -11 9 -21 15 -21
12 0 -2 -1 -2 -2 -1 -2 4 -18 4 -19 0 -2 -5 -45 -3 -52 3 -8 6 -34 4 -43 -3
-7 -6 -14 -25 -14 -36 0 -17 13 -55 28 -84 4 -7 8 -15 9 -17 1 -2 4 -5 7 -5 2
-1 4 -2 4 -4 0 -1 1 -1 1 0 3 2 18 -13 22 -21 2 -5 4 -9 5 -10 1 -1 2 -3 3 -5
2 -8 52 -37 62 -37 17 0 29 8 32 21 1 6 3 11 3 13 2 5 11 10 17 9 3 -1 10 -2
15 -2 12 -2 19 -7 21 -16 1 -4 2 -10 3 -13 1 -3 2 -5 2 -6 -1 -2 7 -15 13 -21
10 -10 15 -11 90 -11 l68 0 22 6 c27 8 27 8 55 0 22 -6 39 -8 46 -3 2 2 2 1 1
-1 -1 -1 1 -1 4 1 3 2 5 3 4 2 -1 -2 0 -3 4 -3 4 0 5 1 4 3 -1 1 1 0 4 -2 3
-2 5 -2 4 -1 -1 2 -1 3 1 1 3 -3 55 -3 73 0 19 3 34 6 40 7 37 11 61 21 81 36
42 29 67 62 93 118 3 7 3 18 0 29 -2 7 -14 16 -24 20 -34 12 -37 13 -40 20 -4
7 -5 22 -1 31 7 17 40 17 55 0 4 -5 23 -6 32 -2 11 5 22 41 17 59 -2 9 -13 29
-16 29 -1 0 -4 3 -6 7 -9 14 -6 44 4 63 5 9 7 13 7 24 0 19 -2 22 -27 30 -12
3 -24 7 -28 9 -4 2 -13 5 -21 8 -32 11 -82 34 -114 52 -21 13 -22 13 -33 13
-20 -2 -27 -12 -29 -44 -2 -41 -5 -74 -10 -116 0 -4 -3 -17 -5 -29 -2 -11 -4
-27 -4 -35 1 -46 -3 -50 -44 -40 -27 7 -35 7 -53 -2 -9 -5 -13 -8 -13 -10 0
-6 -10 -23 -13 -25 -2 0 -5 0 -6 2 -2 2 -5 3 -6 3 -2 0 -3 1 -3 2 0 0 -4 3
-10 6 -5 2 -14 8 -19 12 -18 16 -24 17 -79 19 -43 1 -47 3 -63 23 -5 7 -12 15
-16 18 -3 3 -8 9 -10 13 -4 7 -4 7 0 15 2 5 5 10 6 11 14 14 17 26 17 76 0 41
0 43 -5 51 -6 9 -8 10 -22 11 -5 0 -10 1 -10 2 -1 0 -3 -1 -4 -3 -7 -10 -25
-2 -25 11 0 12 18 21 24 11 2 -3 4 -3 7 -2 2 1 4 2 5 1 1 0 14 3 19 4 1 1 3 2
2 3 -1 1 0 2 1 2 1 0 1 1 2 3 2 13 4 53 5 85 2 56 -1 64 -33 83 -13 8 -15 10
-24 25 -5 9 -14 21 -20 27 -12 13 -15 24 -12 39 2 12 3 13 18 22 14 8 14 8 14
25 0 17 -1 18 -22 17 -12 -1 -20 -6 -20 -13 0 -1 -3 -4 -6 -7 -6 -4 -11 -5
-29 -4 -2 0 -7 4 -12 9 l-8 8 -16 1 c-15 0 -16 0 -22 -7 -5 -5 -10 -8 -24 -12
-36 -11 -51 -8 -51 9 0 11 7 18 28 28 26 13 36 14 47 3 4 -4 8 -7 9 -7 22 -1
34 1 38 8 3 6 9 8 29 9 10 0 20 1 21 2 3 3 4 3 8 3 1 0 6 4 13 10 8 7 13 10
20 11 18 3 37 -3 50 -16 4 -4 10 -8 13 -9 6 -3 32 -4 33 -2 1 1 6 4 13 8 37
19 62 13 63 -16 0 -20 -7 -26 -35 -34 -17 -5 -36 -5 -44 -1 -9 4 -28 7 -38 6
-12 -2 -28 -16 -32 -27 -3 -11 -4 -22 -3 -22 1 0 4 -4 7 -10 4 -9 9 -16 17
-24 5 -5 22 -7 38 -4 14 2 14 2 28 -5 27 -14 23 -14 109 0 4 1 25 4 48 8 23 4
63 10 89 15 26 4 51 9 55 9 24 4 116 19 120 20 3 0 8 1 13 2 14 2 79 13 97 16
31 6 45 16 50 36 1 7 -3 50 -7 67 -3 17 -19 25 -46 24 -15 0 -21 4 -21 17 0
10 6 16 18 18 4 0 13 3 19 6 l11 6 -1 13 c-1 14 -3 17 -23 31 -9 6 -12 11 -12
24 0 12 2 16 12 27 8 8 8 9 8 21 0 16 -3 20 -19 23 -10 2 -12 2 -24 -2 -14 -4
-14 -4 -28 -17 -16 -14 -18 -15 -41 -7 -10 3 -21 6 -24 7 -6 1 -41 -4 -45 -7
-1 -1 -4 -2 -7 -3 -3 0 -8 -3 -11 -6 -8 -6 -26 -12 -33 -10 -4 0 -13 2 -21 3
-12 2 -18 2 -30 -1 -9 -1 -34 -6 -57 -10 -23 -4 -43 -7 -46 -8 -5 -1 -58 -10
-69 -12 -3 0 -14 -2 -23 -4 -9 -2 -20 -4 -24 -4 -4 -1 -24 -4 -44 -8 l-37 -7
-5 5 c-5 5 -6 6 -6 30 -1 31 -4 37 -22 48 -23 15 -24 16 -24 26 1 10 5 14 21
22 12 6 19 14 23 25 3 11 3 177 -1 188 -4 11 -10 19 -21 27 -10 7 -12 10 -17
28 -2 7 -7 15 -10 19 -10 12 -12 12 -89 12 -69 0 -69 0 -79 -5z m39 -67 c5 -5
5 -15 0 -20 -9 -9 -24 -2 -24 10 0 8 6 14 14 14 3 0 8 -2 10 -4z m11 -131 c3
-3 3 -3 0 -6 -4 -5 -11 1 -7 6 4 4 4 4 7 0z m101 -51 c5 -5 5 -7 1 -14 -3 -5
-5 -6 -9 -6 -6 1 -12 7 -12 12 0 10 13 15 20 8z m-150 -120 c2 -2 5 -5 7 -8 8
-12 21 -17 45 -17 24 -1 31 -3 35 -12 4 -7 5 -22 1 -31 -7 -17 -42 -17 -51 0
-7 14 -26 26 -47 30 -19 3 -26 10 -26 24 0 17 19 24 36 14z m709 -61 c12 -12
3 -31 -13 -31 -11 0 -18 7 -18 18 0 11 7 18 18 18 6 0 9 -1 13 -5z m-202 -164
c4 -4 5 -7 5 -15 0 -14 -6 -20 -20 -20 -14 0 -20 6 -20 20 0 14 6 20 20 20 8
0 11 -1 15 -5z m-752 -51 c7 -6 7 -19 1 -25 -6 -7 -19 -7 -25 -1 -7 6 -7 19
-1 25 6 7 19 7 25 1z m286 -46 c2 -3 3 -8 3 -16 0 -10 0 -11 -8 -18 -21 -18
-24 -22 -36 -54 -2 -3 -5 -8 -9 -9 -8 -5 -25 -5 -32 0 -3 2 -5 3 -5 2 0 -2
-12 5 -12 7 0 1 -1 3 -1 5 0 1 1 6 2 10 6 16 10 21 21 27 17 9 28 21 38 39 4
10 6 11 15 13 8 2 19 -1 24 -6z m-206 -3 c4 -4 5 -7 5 -15 0 -14 -6 -20 -20
-20 -14 0 -20 6 -20 20 0 14 6 20 20 20 8 0 11 -1 15 -5z m-93 -49 c5 -6 5
-12 0 -18 -7 -8 -22 -2 -22 9 0 11 15 17 22 9z m364 -14 c5 -5 5 -11 0 -16
-10 -10 -27 5 -16 16 4 4 12 4 16 0z m27 -285 c3 -5 3 -5 0 -10 -2 -3 -5 -5
-7 -5 -2 0 -5 2 -7 5 -3 5 -3 5 0 10 2 3 5 5 7 5 2 0 5 -2 7 -5z m575 -17 c5
-6 5 -12 0 -18 -7 -8 -22 -2 -22 9 0 11 15 17 22 9z m-284 -170 c0 -1 4 -3 9
-5 8 -4 22 -12 26 -16 24 -22 27 -26 27 -40 0 -10 -6 -17 -17 -17 -16 0 -52
18 -58 29 -4 8 -3 39 1 47 3 4 12 6 12 2z m128 -12 c5 -5 5 -15 0 -20 -9 -9
-24 -2 -24 10 0 8 6 14 14 14 3 0 8 -2 10 -4z m-17 -106 c10 -10 4 -25 -11
-27 -9 -1 -15 5 -14 15 1 14 15 21 25 12z m-497 -6 c10 -6 17 -15 14 -19 -1
-2 -8 -4 -24 -6 -10 -1 -17 6 -15 15 3 13 14 18 25 10z m50 -26 c0 -1 2 -2 4
-3 7 -2 7 -13 -1 -17 -4 -1 -6 -1 -11 3 -4 3 -8 5 -8 5 -1 0 -4 2 -6 4 -3 3
-3 4 0 6 2 2 2 2 0 1 -2 -1 -2 -1 -1 0 0 1 4 2 7 2 4 1 7 1 7 2 2 1 9 -1 9 -3z
m403 -22 c2 -3 4 -7 4 -9 0 -2 -1 -7 -1 -11 0 -12 -7 -18 -21 -18 -16 0 -21 5
-21 21 0 14 4 19 16 21 17 3 19 2 23 -4z m-18 -64 c0 -5 0 -1 0 8 0 9 0 13 0
9 1 -5 1 -13 0 -17z"/>
</g>
</svg>
