<?xml version="1.0" standalone="no"?>
<!DOCTYPE svg PUBLIC "-//W3C//DTD SVG 20010904//EN"
 "http://www.w3.org/TR/2001/REC-SVG-20010904/DTD/svg10.dtd">
<svg version="1.0" xmlns="http://www.w3.org/2000/svg"
 width="1100.000000pt" height="2850.000000pt" viewBox="0 0 1100.000000 2850.000000"
 preserveAspectRatio="xMidYMid meet">
<metadata>
Created by potrace 1.15, written by Peter Selinger 2001-2017
</metadata>
<g transform="translate(0.000000,2850.000000) scale(0.500000,-0.500000)"
fill="#000000" stroke="none">
<path d="M861 3810 c-10 -5 -18 -13 -22 -23 -3 -7 -3 -20 -3 -109 l1 -101 -6
-6 -6 -6 -62 0 c-61 0 -73 -1 -73 -3 0 -1 -3 -3 -6 -4 -3 -1 -10 -7 -14 -12
-12 -16 -15 -17 -24 -17 -9 0 -12 1 -24 17 -4 5 -11 11 -14 12 -3 1 -6 3 -6 4
0 2 -9 3 -27 3 -15 0 -17 -1 -25 -6 -10 -7 -16 -17 -21 -34 -5 -15 -10 -19
-26 -19 -10 0 -13 1 -19 5 -4 3 -6 5 -5 5 1 0 0 1 -2 3 -6 4 -8 11 -11 33 -3
19 -2 24 5 32 7 10 6 32 -3 44 -8 13 -8 21 1 30 3 4 8 9 11 10 7 4 15 17 17
27 1 9 -4 30 -9 36 -18 22 -34 28 -56 23 -17 -4 -25 -16 -28 -45 -2 -23 -6
-27 -25 -27 -19 0 -24 5 -24 22 -1 29 -7 42 -20 48 -9 4 -13 4 -69 3 -62 -1
-64 -1 -64 -3 0 -1 -1 -2 -3 -2 -4 0 -14 -12 -18 -21 -5 -13 -4 -95 2 -106 4
-8 20 -24 25 -26 11 -4 12 -27 4 -63 -4 -17 -6 -20 -16 -32 -17 -22 -18 -27
-18 -76 0 -33 1 -44 3 -52 6 -18 19 -27 44 -32 26 -5 44 6 59 36 5 11 11 20
15 24 7 6 8 6 19 6 11 0 12 0 18 -6 10 -10 7 -32 -6 -52 -8 -12 -3 -31 10 -38
7 -5 9 -5 49 -5 43 0 53 1 53 3 0 1 1 2 3 2 3 0 14 10 18 18 11 22 21 30 36
29 11 -1 16 -3 27 -12 8 -7 9 -7 22 -7 12 0 15 1 24 7 11 7 12 7 24 7 10 0 15
-3 21 -13 18 -29 26 -34 52 -34 10 0 20 0 22 2 2 1 5 2 6 2 3 0 4 29 1 31 -2
1 1 2 6 2 5 0 8 -1 6 -2 -3 -2 -2 -31 1 -31 1 0 4 -1 6 -2 3 -2 20 -3 47 -3
42 0 60 -2 63 -8 1 -1 3 -2 6 -2 l4 0 -4 -2 c-3 -1 -5 -4 -6 -7 -2 -8 -1 -22
1 -23 1 0 2 -1 2 -3 0 -2 12 -15 24 -26 19 -17 8 -42 -18 -42 -11 0 -17 4 -26
17 -10 13 -18 20 -29 23 -14 4 -120 4 -134 0 -10 -3 -27 -15 -27 -19 0 -1 -1
-3 -2 -5 -1 -1 -4 -5 -7 -9 -3 -3 -8 -7 -12 -9 -6 -3 -29 -2 -34 1 -4 2 -19
-2 -22 -6 -2 -2 -3 -5 -3 -7 0 -2 0 -14 0 -26 0 -20 0 -22 -5 -26 -7 -7 -22
-7 -31 0 -8 7 -11 14 -17 41 -3 13 -6 26 -7 30 -3 11 -13 25 -24 31 l-9 6 -51
0 -51 0 -10 -6 c-8 -5 -11 -9 -18 -21 -4 -8 -11 -20 -16 -27 -8 -11 -19 -36
-19 -41 0 -20 -42 -26 -51 -7 -7 13 -4 32 8 43 18 17 22 36 10 47 -13 12 -20
13 -64 12 -44 -1 -45 -1 -45 -3 0 -1 -1 -2 -3 -2 -4 0 -14 -12 -18 -21 -3 -7
-3 -18 -3 -79 0 -73 1 -78 9 -91 1 -3 5 -11 8 -17 l5 -11 -4 -10 c-3 -6 -5
-12 -6 -12 -2 -1 -4 -6 -10 -19 -3 -9 -3 -78 1 -87 4 -9 14 -21 18 -21 2 0 3
-1 3 -2 0 -2 3 -3 127 -3 121 -1 138 -2 138 -7 0 -2 1 -4 3 -4 2 -1 1 -2 -2
-2 -3 0 -11 -2 -17 -5 -16 -6 -75 -25 -119 -37 -20 -6 -43 -12 -50 -14 -20 -6
-24 -11 -24 -29 l0 -14 10 -8 c14 -12 72 -71 85 -87 7 -8 18 -22 24 -31 25
-32 31 -37 49 -40 16 -2 30 10 43 35 3 8 10 18 15 23 12 13 17 37 9 45 -2 2
-3 4 -3 6 0 1 -1 2 -2 2 0 0 -2 2 -3 5 -4 9 -24 14 -43 10 -11 -2 -15 2 -12
12 2 4 3 7 4 7 4 0 24 23 30 34 10 19 26 26 36 15 2 -2 4 -5 4 -6 0 -3 12 -27
15 -30 2 -2 3 -4 3 -5 0 -1 1 -2 2 -2 2 0 5 -2 17 -12 15 -13 13 -34 -3 -51
-10 -10 -10 -11 -10 -23 0 -15 4 -20 16 -21 9 -1 23 3 67 22 26 12 43 13 57 3
7 -5 23 -5 32 0 7 4 14 16 17 30 2 10 9 14 24 14 11 0 14 -1 18 -5 6 -4 6 -6
6 -20 0 -15 0 -15 -8 -23 -11 -12 -40 -25 -63 -29 -3 -1 -15 -3 -26 -6 -17 -5
-94 -22 -106 -24 -3 -1 -18 -4 -35 -7 -30 -6 -81 -15 -92 -17 -27 -4 -57 -9
-63 -10 -17 -3 -33 -13 -45 -27 -18 -20 -61 -24 -75 -7 -4 4 -13 9 -24 12 -20
5 -39 -5 -40 -23 0 -5 -1 -11 -1 -13 0 -2 1 -6 2 -8 6 -9 5 -20 0 -36 -9 -26
-8 -35 6 -64 6 -13 16 -36 22 -51 13 -31 17 -38 26 -45 14 -10 30 -12 48 -4
10 4 29 21 29 25 0 4 13 10 21 10 8 0 11 -1 33 -14 7 -5 25 -9 31 -7 3 1 9 2
12 2 3 1 8 2 11 2 3 1 7 1 9 2 8 1 17 -8 24 -23 10 -21 10 -25 5 -41 -3 -8 -5
-15 -5 -16 0 -1 -2 -5 -4 -9 -1 -4 -3 -17 -4 -30 -2 -23 -1 -24 4 -36 4 -7 9
-16 12 -19 10 -10 13 -17 13 -26 0 -9 -2 -13 -16 -29 -10 -12 -14 -24 -14 -53
0 -29 2 -37 11 -47 4 -5 27 -16 32 -16 2 0 6 -3 9 -6 6 -5 6 -6 6 -24 -1 -22
4 -34 16 -40 9 -5 42 -5 49 1 1 1 5 3 8 5 4 2 10 9 14 15 10 16 15 20 27 20
12 0 17 -4 27 -20 4 -6 10 -13 14 -15 3 -2 7 -4 8 -5 3 -3 11 -4 34 -4 24 0
33 1 33 3 0 1 1 2 3 2 4 0 14 12 18 21 1 4 2 7 2 7 0 0 2 3 6 7 6 6 6 6 25 6
13 0 21 1 25 3 6 3 13 11 14 16 0 2 1 4 2 5 0 2 2 9 2 16 2 17 6 23 17 23 12
0 19 -5 38 -29 12 -16 21 -24 32 -30 9 -4 9 -4 179 -5 94 0 173 0 176 1 10 2
18 10 21 20 1 6 3 12 4 15 1 2 1 4 0 4 -1 0 -2 3 -2 8 0 14 18 22 28 11 4 -4
6 -19 2 -19 -1 0 -2 -1 -1 -2 1 -1 3 -7 4 -13 4 -14 13 -24 23 -26 7 -1 16 2
51 15 18 7 39 7 46 0 4 -4 5 -6 5 -10 -1 -3 -1 -6 0 -6 1 -1 2 -4 3 -8 2 -12
9 -22 18 -26 8 -4 11 -4 91 -3 86 1 88 1 88 3 0 1 1 2 3 2 4 0 14 12 18 21 3
7 3 22 3 125 0 123 0 124 -9 141 -6 11 -23 19 -40 19 -23 0 -33 8 -33 25 0 10
1 12 6 17 6 6 7 6 21 5 7 0 14 -1 14 -2 1 -2 5 -2 13 0 7 1 12 2 12 2 0 -1 2
1 5 4 8 7 11 17 11 35 0 14 0 16 6 21 3 2 6 4 6 4 1 -1 6 -1 11 -2 6 -1 15 -2
22 -3 13 -3 19 -2 45 9 18 8 21 8 34 -1 8 -5 10 -6 23 -6 16 1 15 0 29 24 4 8
9 16 10 18 1 2 3 5 4 7 1 2 4 6 6 9 1 3 7 12 11 19 9 15 43 64 47 69 2 2 6 7
9 11 3 4 6 8 7 9 7 6 15 20 16 27 1 19 -9 30 -31 32 -22 2 -108 11 -116 12
-22 3 -93 11 -99 12 -20 3 -35 5 -49 7 -25 4 -33 4 -41 2 -12 -3 -22 -14 -28
-30 -2 -7 -6 -13 -9 -15 -7 -5 -25 -4 -40 3 -14 6 -19 11 -21 20 -7 27 -18 42
-36 47 -6 2 -39 8 -73 15 -73 14 -84 18 -90 32 -6 18 -9 28 -7 29 0 0 0 1 -2
1 -1 0 -2 2 -3 4 -4 11 -30 17 -70 16 -25 -1 -27 -1 -30 2 -8 9 -4 15 15 24 7
4 21 11 31 17 10 6 22 12 27 14 5 2 12 6 16 8 19 12 33 15 44 10 16 -6 20 -20
14 -41 -6 -19 -3 -41 6 -52 8 -10 12 -14 17 -17 7 -3 28 -4 30 -1 1 1 10 8 21
16 10 7 26 21 35 29 9 9 21 19 26 23 13 8 23 18 23 21 0 2 1 3 2 3 0 0 2 3 4
7 4 11 11 17 30 27 17 8 23 12 43 34 13 14 17 20 18 26 0 5 8 14 11 14 2 0 18
1 36 1 36 0 34 0 62 15 14 8 24 8 38 0 29 -16 23 -15 86 -15 57 0 68 1 68 3 0
1 1 2 3 2 4 0 14 12 18 21 2 6 3 14 3 35 0 37 -3 44 -24 65 -14 15 -15 16 -24
15 -16 0 -19 -2 -19 -8 -2 -45 -10 -53 -47 -42 -7 2 -17 5 -21 6 -9 2 -19 11
-19 15 0 4 11 14 20 19 6 4 12 10 17 17 4 7 10 14 12 15 5 5 17 8 22 6 7 -3
14 5 22 23 9 21 11 24 21 27 18 6 36 20 36 28 0 2 1 4 2 5 4 2 3 91 -1 100 -4
9 -14 21 -18 21 -2 0 -3 1 -3 2 0 1 -1 2 -2 2 -2 0 -122 1 -268 1 l-265 1 -13
-5 c-14 -5 -14 -5 -14 -24 0 -9 0 -13 4 -16 2 -3 4 -5 4 -7 0 -1 1 -3 3 -4 4
-3 4 -14 0 -20 -4 -5 -17 -6 -21 -1 -3 3 -6 13 -7 23 -4 20 -54 54 -82 54 -13
0 -18 2 -24 8 -22 24 -26 26 -52 27 -8 1 -21 2 -29 4 -15 4 -17 4 -40 1 -34
-5 -37 -5 -56 -15 -13 -6 -24 -10 -35 -12 -7 -1 -14 4 -21 16 -5 9 -17 21 -29
29 -11 8 -11 19 0 25 6 4 7 4 26 0 13 -2 22 -3 29 -2 23 3 27 2 38 -2 12 -5
16 -6 34 -9 15 -2 17 -2 24 4 7 5 7 6 8 21 0 10 0 16 -2 18 -7 7 1 15 10 10 6
-3 9 -13 4 -13 -2 0 -2 -1 0 -1 2 -1 4 -3 6 -4 1 -2 4 -3 7 -3 6 0 33 -11 55
-22 l19 -9 72 0 c39 0 75 0 78 1 10 2 13 7 13 26 l0 10 8 0 8 0 0 -10 c0 -19
3 -24 13 -26 8 -1 276 -1 284 0 3 0 5 2 5 2 0 1 2 2 4 3 6 2 18 14 22 23 4 7
13 16 16 16 4 0 26 15 28 18 4 7 2 24 -4 36 -14 28 -17 47 -7 57 8 10 32 11
41 2 2 -2 9 -13 15 -26 l11 -22 0 -18 -1 -18 -10 -5 c-19 -9 -23 -13 -26 -26
-7 -23 20 -45 50 -42 1 0 3 1 3 2 0 1 1 2 3 2 4 0 14 12 18 22 5 12 3 42 -2
49 -4 5 -5 6 -19 5 l-14 0 0 13 0 13 14 0 c24 -1 23 -5 23 84 0 89 1 87 -29
108 -12 8 -15 15 -15 36 0 16 1 18 4 22 3 2 5 6 6 8 1 3 3 4 11 6 1 0 4 2 8 3
3 2 6 2 6 2 0 -1 2 1 4 3 7 7 7 38 1 47 -4 8 -15 12 -26 11 -4 -1 -7 0 -7 1 0
4 -8 -22 -8 -26 0 -2 1 -10 1 -17 2 -22 -2 -31 -14 -29 -28 5 -38 13 -47 37
-7 17 -8 20 -16 28 -7 7 -10 8 -26 11 -8 1 -27 -9 -38 -21 -9 -10 -21 -16 -32
-16 -10 0 -11 1 -18 8 -5 5 -10 12 -13 16 -3 5 -8 10 -12 11 -4 2 -7 4 -7 5 0
2 -9 3 -22 3 -14 0 -22 -1 -22 -3 0 -1 -1 -2 -3 -2 -1 0 -5 -3 -8 -6 -17 -18
-18 -51 -2 -65 7 -6 26 -13 34 -13 6 0 13 -9 13 -18 0 -9 -7 -18 -13 -18 -4 0
-5 0 -17 -4 -28 -10 -32 -27 -10 -51 14 -16 15 -19 11 -29 -4 -10 -14 -14 -30
-14 -9 0 -15 4 -25 15 -4 4 -12 10 -19 13 l-12 6 -116 0 c-112 0 -116 0 -124
-4 -12 -6 -21 -21 -24 -39 -3 -20 -9 -23 -43 -24 -35 -1 -41 -5 -41 -25 0 -9
5 -22 10 -28 6 -5 4 -23 -3 -31 -13 -13 -38 -4 -38 13 -1 13 0 15 6 22 3 4 6
8 5 9 0 0 1 2 3 3 4 2 3 31 -1 36 -4 5 -4 15 2 19 2 3 9 6 15 9 28 11 35 19
33 37 -1 12 -10 26 -16 28 -6 2 -27 16 -31 22 -6 7 -5 19 1 25 5 5 14 5 42 2
17 -2 17 -2 29 3 7 4 13 9 17 15 l6 8 1 56 c0 48 0 58 -3 65 -4 9 -14 21 -18
21 -2 0 -3 1 -3 2 0 2 -2 2 -50 3 l-45 1 -19 -7 c-24 -9 -30 -10 -43 -6 -14 5
-31 5 -38 0 -9 -7 -14 -22 -11 -32 4 -16 15 -22 40 -24 14 -2 19 -7 17 -19 0
-4 -2 -18 -2 -30 -2 -24 -4 -30 -14 -30 -9 0 -14 7 -12 20 2 14 -4 31 -10 33
-12 3 -23 3 -31 0 -29 -15 -56 11 -42 40 3 5 7 11 10 13 2 2 3 4 2 4 -2 0 -2
3 -1 11 1 12 -1 18 -8 22 -7 5 -13 5 -22 1z m-557 -163 c15 -3 37 -12 37 -17
0 -1 1 -3 3 -4 2 -1 2 -2 1 -2 -1 0 3 -2 8 -5 23 -11 27 -28 9 -35 -8 -3 -22
8 -22 17 0 6 -5 13 -9 13 -2 0 -3 1 -3 2 0 2 -15 8 -23 9 -23 4 -27 5 -30 10
-3 5 -3 5 0 10 5 6 8 6 29 2z m27 -84 c7 -8 6 -22 -4 -39 -33 -61 -43 -73 -64
-73 -10 0 -20 8 -21 16 -2 17 2 24 17 33 15 9 21 19 22 40 2 23 6 26 35 28 9
0 11 -1 15 -5z m625 -33 c6 -5 6 -6 6 -24 0 -18 4 -37 11 -48 2 -2 3 -8 3 -13
0 -13 -6 -19 -19 -19 -14 0 -21 8 -19 22 1 6 -10 39 -14 42 -4 4 -8 15 -8 24
0 15 7 22 23 22 10 0 12 -1 17 -6z m725 -7 c3 -5 3 -5 0 -10 -2 -3 -5 -5 -7
-5 -2 0 -5 2 -7 5 -3 5 -3 5 0 10 2 3 5 5 7 5 2 0 5 -2 7 -5z m-1247 -7 c0 -1
2 -2 4 -3 6 -2 4 -14 -2 -19 -14 -12 -33 7 -20 20 4 4 18 6 18 2z m433 -3 c12
-12 3 -31 -13 -31 -11 0 -18 7 -18 18 0 11 7 18 18 18 6 0 9 -1 13 -5z m485
-19 c6 -6 5 -18 0 -23 -4 -3 -6 -3 -12 -1 -17 5 -15 28 2 28 3 0 8 -2 10 -4z
m-843 -43 c10 -9 5 -33 -8 -41 -8 -5 -18 -5 -23 0 -8 7 -8 33 1 41 7 7 23 7
30 0z m885 -7 c14 -4 19 -20 10 -31 -7 -6 -24 -12 -26 -9 -6 8 -7 12 -6 22 1
19 6 23 22 18z m-646 -12 c5 -5 5 -12 1 -20 -1 -4 -4 -10 -6 -14 -1 -4 -5 -15
-8 -24 -8 -24 -13 -28 -31 -28 -12 0 -15 1 -20 5 -7 7 -11 20 -8 32 3 10 4 12
18 21 7 5 14 11 17 14 18 18 30 22 37 14z m151 -24 c7 -6 7 -19 1 -25 -6 -7
-19 -7 -25 -1 -7 6 -7 19 -1 25 6 7 19 7 25 1z m464 -28 c4 -8 4 -23 0 -29 -3
-4 -5 -5 -15 -5 -14 0 -18 4 -18 16 0 10 5 16 16 20 12 5 13 5 17 -2z m-238
-183 c12 -7 14 -33 3 -43 -8 -9 -32 -9 -40 0 -9 8 -9 32 0 41 7 7 27 8 37 2z
m596 -8 c7 -7 8 -14 6 -28 -5 -24 -15 -37 -31 -37 -16 0 -22 14 -15 36 1 5 2
9 2 10 1 6 15 28 15 23 0 -1 1 -1 2 0 4 4 16 2 21 -4z m-976 0 c4 -5 3 -21 -3
-39 -6 -18 -10 -22 -27 -22 -18 0 -24 5 -24 22 -1 16 1 21 15 30 17 12 32 15
39 9z m827 -14 c5 -4 16 -19 16 -24 0 -2 1 -3 2 -4 4 -2 4 -21 1 -31 -4 -11
-20 -45 -23 -47 -1 0 -3 -6 -5 -12 -2 -6 -5 -11 -5 -11 -3 0 -2 -10 0 -14 3
-5 15 -8 28 -7 14 2 31 -5 38 -15 6 -8 4 -23 -3 -30 -5 -4 -20 -6 -25 -3 -4 2
-20 1 -28 -2 -11 -5 -13 -10 -14 -48 -1 -35 -1 -35 -6 -40 -4 -3 -6 -4 -7 -2
0 1 -7 6 -14 12 -8 5 -18 12 -22 15 -4 3 -13 9 -20 12 -7 3 -14 8 -17 11 -3 3
-8 8 -10 11 -12 12 -50 37 -56 36 -1 0 -4 1 -7 1 -3 1 -16 0 -29 -2 -12 -2
-28 -3 -35 -3 -14 0 -27 -5 -32 -13 -5 -7 -11 -24 -11 -31 0 -4 -2 -8 -5 -11
-10 -11 -31 -4 -31 11 0 7 -6 24 -10 31 -9 12 -7 12 -116 13 -97 1 -99 1 -109
6 -13 6 -29 6 -40 0 -12 -6 -36 -32 -47 -50 -7 -13 -10 -16 -17 -19 -10 -4
-11 -4 -17 2 -11 11 -10 41 1 55 8 8 11 21 6 23 -1 0 0 1 2 1 4 0 5 1 4 8 0 8
-4 14 -15 21 -8 5 -12 18 -6 20 2 0 1 1 -1 1 -4 0 -5 2 -8 11 -3 10 -3 12 1
29 7 36 14 45 34 45 13 0 20 -4 24 -11 4 -7 4 -31 0 -46 -3 -13 -3 -15 0 -27
4 -18 15 -27 37 -34 9 -3 17 -6 19 -6 2 -1 42 -1 90 -1 79 0 88 1 95 4 10 4
14 10 17 24 2 5 4 10 5 10 1 0 0 1 -2 3 -4 2 -4 3 0 8 2 3 5 5 7 5 2 0 5 -2 7
-5 4 -5 4 -6 0 -8 -2 -2 -3 -3 -2 -3 1 0 3 -5 5 -10 3 -14 7 -20 17 -24 8 -4
15 -4 127 -4 115 0 119 0 127 4 9 4 16 14 18 26 1 4 2 7 3 8 0 1 1 5 1 10 1 5
3 17 7 27 11 36 12 44 3 53 -4 4 -7 5 -15 5 -6 0 -12 1 -15 1 -14 0 -20 21
-10 31 5 5 6 5 15 4 26 -3 41 -3 50 0 12 4 21 4 28 0z m-251 -67 c7 -11 1 -24
-11 -24 -12 0 -18 13 -11 24 2 3 5 4 11 4 6 0 9 -1 11 -4z m374 -48 c13 -13 4
-38 -13 -38 -10 -1 -19 2 -24 6 -6 6 -4 25 3 32 9 9 24 9 34 0z m-1266 1 c3
-5 3 -6 -3 -15 -2 -3 -7 -1 -11 5 -3 5 -3 5 0 10 5 6 9 6 14 0z m201 -2 c2 -2
4 -6 4 -8 0 -5 7 -24 11 -30 4 -7 14 -12 26 -15 9 -2 25 -12 19 -12 -10 0 -20
-22 -23 -50 -1 -6 -2 -13 -4 -16 -6 -11 -23 -14 -43 -7 -23 8 -29 7 -82 -19
-26 -13 -49 -24 -52 -25 -3 -1 -10 -4 -17 -7 -16 -7 -20 -8 -32 -9 -10 -1 -17
3 -11 5 1 0 2 1 1 2 -1 1 0 3 2 5 9 9 13 51 6 80 -6 25 -6 40 -1 50 6 12 6 12
48 5 6 -1 27 -2 46 -2 47 0 54 3 64 30 2 6 4 13 4 15 0 13 23 18 34 8z m-301
-146 c5 -8 1 -16 -8 -16 -9 0 -13 8 -8 16 2 3 5 5 8 5 3 0 6 -2 8 -5z m1122
-13 c4 -5 4 -6 -1 -11 -4 -6 -7 -6 -12 -2 -5 4 -5 8 0 13 4 5 8 5 13 0z m-84
-27 c39 -4 43 -7 40 -29 -2 -15 -8 -21 -20 -23 -24 -4 -59 -5 -65 -2 -14 5
-20 20 -16 36 5 20 15 22 61 18z m-500 -6 c3 -5 3 -5 0 -10 -2 -3 -5 -5 -7 -5
-2 0 -5 2 -7 5 -3 5 -3 5 0 10 2 3 5 5 7 5 2 0 5 -2 7 -5z m254 -14 c4 -4 5
-7 5 -15 0 -14 -6 -20 -20 -20 -14 0 -20 6 -20 20 0 14 6 20 20 20 8 0 11 -1
15 -5z m-135 -7 c11 -11 6 -38 -7 -38 -3 0 -4 -1 -2 -1 2 -1 3 -4 3 -13 0 -6
1 -13 1 -15 2 -6 16 -11 34 -11 19 0 27 -2 28 -6 1 -2 3 -4 5 -4 1 0 0 -1 -4
-3 -7 -3 -18 -8 -46 -21 -35 -16 -48 -15 -109 12 -10 5 -21 9 -25 10 -5 1 -6
2 -2 2 2 0 4 1 4 3 0 5 12 7 42 7 21 0 32 1 38 3 11 4 12 6 12 23 0 9 1 12 4
13 1 0 0 1 -3 1 -8 0 -13 8 -13 22 0 15 7 22 23 22 10 0 12 -1 17 -6z m-218
-27 c2 -2 8 -11 12 -20 8 -17 13 -23 28 -30 9 -4 29 -11 38 -12 7 0 7 0 -1 -1
-12 0 -18 -7 -24 -30 -5 -19 -11 -24 -28 -25 -9 -1 -14 1 -28 10 -5 4 -18 10
-28 14 -22 9 -27 14 -27 27 0 16 16 61 25 67 6 4 27 4 33 0z m-225 -72 c3 -3
3 -3 0 -6 -4 -5 -11 1 -7 6 4 4 4 4 7 0z m540 -121 c5 -1 11 -5 21 -15 8 -8
18 -16 23 -19 6 -2 12 -7 14 -10 3 -6 3 -6 0 -11 -4 -5 -10 -6 -24 -3 -5 1 -9
1 -10 0 -1 -1 -3 -1 -3 -1 -2 1 -3 -6 -4 -15 0 -9 8 -23 14 -25 2 -1 4 -2 3
-3 -1 -2 34 -18 41 -18 11 0 16 -19 8 -27 -7 -7 -15 -6 -34 3 -22 11 -31 11
-42 4 l-9 -6 0 -14 0 -15 9 -6 c5 -4 13 -9 19 -11 5 -2 14 -6 19 -8 5 -2 13
-5 18 -6 5 -1 7 -2 5 -2 -3 0 -5 -1 -4 -3 1 -1 0 -3 -1 -4 -2 -1 -30 -2 -63
-3 l-60 -1 -9 -5 c-9 -6 -17 -16 -26 -33 -5 -10 -11 -13 -25 -13 -14 0 -20 3
-25 13 -15 30 -26 37 -53 39 -9 0 -23 -1 -29 -2 -15 -3 -34 -4 -44 -3 -6 1
-24 16 -20 17 1 1 4 7 6 15 6 18 12 22 28 22 10 0 24 -5 24 -9 0 -2 15 -12 20
-13 14 -4 22 -3 37 2 22 7 45 15 50 17 2 1 9 4 15 6 6 2 15 6 19 9 7 5 13 10
37 31 6 5 19 25 25 36 4 8 3 39 -1 46 -7 11 -6 31 2 39 3 3 12 6 19 7 1 0 5
-1 10 -2z m-296 -77 c10 -10 4 -35 -8 -35 -6 0 -24 -11 -24 -14 0 -2 -1 -6 -3
-9 -1 -4 -2 -12 -1 -24 2 -26 -3 -34 -23 -34 -17 0 -22 6 -26 27 -1 7 -4 17
-6 21 -2 5 -3 9 -2 10 0 1 -1 1 -3 0 -1 -1 -3 0 -3 1 0 3 -26 1 -29 -3 -4 -5
-20 -4 -26 2 -7 6 -7 22 0 28 5 6 22 7 26 2 1 -2 3 -3 5 -3 1 0 2 -1 2 -2 0
-2 4 -6 9 -11 9 -7 10 -7 21 -6 7 1 12 3 15 6 3 2 9 5 13 7 7 2 19 10 15 10
-1 0 0 1 2 3 1 2 6 8 9 14 8 13 10 15 23 15 7 0 10 -1 14 -5z m120 1 c10 -9 3
-26 -10 -26 -8 0 -15 7 -15 15 0 13 16 20 25 11z m773 -51 l-5 -5 -4 4 -5 5 4
4 5 5 4 -4 5 -5 -4 -4z m-307 -35 c6 -5 10 -18 8 -27 -3 -15 -29 -21 -41 -9
-9 8 -9 26 0 34 7 8 24 9 33 2z m-110 -2 c11 -10 3 -28 -12 -28 -9 0 -15 6
-15 16 0 14 17 22 27 12z m-1022 -5 c3 -5 3 -5 0 -10 -2 -3 -5 -5 -7 -5 -2 0
-5 2 -7 5 -3 5 -3 5 0 10 2 3 5 5 7 5 2 0 5 -2 7 -5z m110 -25 c4 -6 4 -24 -1
-30 -7 -9 -27 -9 -34 0 -5 6 -5 24 0 30 7 9 27 9 35 0z m1084 -19 c4 -5 8 -24
10 -42 1 -8 0 -11 -3 -14 -9 -11 -16 -2 -22 27 -2 12 -4 22 -4 24 -1 3 7 10
11 10 3 0 6 -2 8 -5z m-875 -29 c5 -3 14 -9 19 -15 l10 -10 0 -15 c0 -9 -1
-19 -3 -25 -3 -8 -4 -19 -4 -47 -1 -41 0 -44 12 -60 7 -10 9 -26 3 -34 -5 -5
-16 -8 -25 -6 -11 3 -13 6 -14 30 -1 22 -5 32 -13 41 -12 12 -15 28 -7 43 5
10 7 17 6 27 0 12 0 13 -9 22 -17 19 -21 36 -10 47 8 9 18 9 35 2z m207 -39
c3 -3 3 -3 0 -6 -4 -5 -11 1 -7 6 4 4 4 4 7 0z m803 -21 c5 -6 5 -12 0 -18 -7
-8 -22 -2 -22 9 0 11 15 17 22 9z m-712 -23 l-5 -5 -4 4 -5 5 4 4 5 5 4 -4 5
-5 -4 -4z m510 9 c7 -7 3 -19 -11 -35 -11 -12 -20 -17 -32 -18 -9 0 -10 1 -17
8 -6 7 -6 8 -5 17 1 10 5 15 18 21 20 11 41 13 47 7z m-382 -4 c5 -5 6 -7 6
-18 0 -16 -5 -22 -20 -24 -19 -2 -28 5 -28 25 0 10 1 12 6 17 5 5 7 6 18 6 11
0 13 -1 18 -6z m148 -18 c5 -5 5 -8 0 -14 -6 -9 -20 -5 -20 6 0 10 13 15 20 8z
m126 -21 c6 -7 6 -8 5 -16 -2 -18 5 -39 17 -46 12 -7 64 -5 87 4 12 5 30 4 36
-2 6 -4 6 -6 6 -20 0 -19 -4 -24 -23 -26 -15 -2 -31 -6 -44 -11 -5 -3 -17 -5
-26 -6 -26 -2 -36 -9 -46 -31 -6 -12 -11 -17 -18 -17 -8 0 -11 3 -20 21 -7 15
-9 17 -18 22 -10 5 -12 5 -46 5 -38 0 -44 -1 -52 -10 -6 -6 -14 -28 -12 -33 3
-4 0 -19 -5 -24 -5 -7 -18 -10 -29 -7 -5 1 -11 4 -13 7 -5 5 -8 20 -5 24 2 5
-6 27 -12 33 -9 10 -11 10 -104 10 -93 0 -95 0 -104 -10 -6 -6 -14 -28 -12
-33 3 -4 0 -19 -5 -24 -15 -18 -53 -4 -58 21 -2 9 -10 27 -12 29 -2 1 -3 3 -3
4 0 4 -14 9 -22 9 -4 0 -11 -1 -16 -2 -14 -3 -20 -2 -24 2 -6 7 -4 20 6 31 2
2 5 6 6 9 1 3 5 7 10 10 l7 5 127 1 127 1 11 6 c6 3 12 7 14 8 6 7 18 13 25
13 7 0 19 -6 25 -13 6 -5 23 -13 29 -13 6 0 13 2 28 9 16 7 21 8 28 8 10 -1
28 4 32 8 2 2 4 3 5 3 2 0 12 15 15 21 0 2 7 6 14 9 8 3 16 7 18 8 9 5 30 11
37 11 5 -1 9 -3 14 -8z m-324 -165 c6 0 12 -10 12 -20 0 -14 -6 -20 -20 -20
-14 0 -20 6 -20 19 0 5 1 11 2 13 3 5 12 10 19 9 2 0 5 -1 7 -1z m-462 -52 c5
-6 5 -12 0 -18 -7 -8 -22 -2 -22 9 0 11 15 17 22 9z m1053 -8 c5 -5 6 -7 6
-16 0 -15 -8 -23 -23 -23 -9 0 -11 1 -16 7 -9 8 -9 23 -1 32 9 9 24 9 34 0z
m-820 -14 c11 -10 3 -28 -11 -28 -9 0 -16 6 -16 16 0 14 17 22 27 12z"/>
</g>
</svg>
