<?xml version="1.0" standalone="no"?>
<!DOCTYPE svg PUBLIC "-//W3C//DTD SVG 20010904//EN"
 "http://www.w3.org/TR/2001/REC-SVG-20010904/DTD/svg10.dtd">
<svg version="1.0" xmlns="http://www.w3.org/2000/svg"
 width="1000.000000pt" height="2850.000000pt" viewBox="0 0 1000.000000 2850.000000"
 preserveAspectRatio="xMidYMid meet">
<metadata>
Created by potrace 1.15, written by Peter Selinger 2001-2017
</metadata>
<g transform="translate(0.000000,2850.000000) scale(0.500000,-0.500000)"
fill="#000000" stroke="none">
<path d="M1060 3825 c-6 -2 -9 -10 -9 -24 -1 -12 0 -14 5 -20 5 -5 7 -6 20 -7
7 0 15 1 18 2 9 5 12 22 6 35 -5 11 -26 18 -40 14z"/>
<path d="M964 3789 c-15 -5 -29 -13 -38 -21 -15 -14 -19 -15 -44 -16 -25 -2
-37 -5 -48 -16 -6 -6 -10 -18 -10 -28 0 -6 11 -30 14 -32 3 -1 -8 -10 -13 -11
-2 -1 -48 -1 -101 -2 -95 0 -97 0 -105 -4 -8 -5 -19 -13 -16 -13 2 0 -5 -11
-10 -16 -14 -13 -46 -11 -53 2 -6 10 -16 21 -27 27 -8 4 -9 4 -137 4 -127 0
-140 0 -140 -3 0 -1 -1 -2 -3 -2 -4 0 -14 -12 -18 -21 -5 -11 -5 -183 0 -194
4 -9 14 -21 18 -21 2 0 3 -1 3 -2 0 -2 10 -3 42 -3 36 0 41 2 60 21 8 8 16 13
35 22 35 17 40 17 60 -2 9 -9 20 -16 32 -22 18 -9 21 -12 23 -24 1 -5 0 -8 -2
-11 -5 -5 -5 -16 0 -26 5 -10 19 -18 34 -20 11 -2 18 -10 19 -22 0 -8 -5 -22
-9 -25 -1 -1 -2 -2 -2 -4 -1 -2 -6 -5 -12 -8 l-11 -6 -50 0 c-58 0 -60 -1 -77
-18 -12 -13 -23 -20 -30 -20 -9 0 -34 7 -39 11 -2 2 -9 8 -15 12 -18 15 -20
15 -100 14 -74 -1 -76 -1 -76 -3 0 -1 -1 -2 -3 -2 -4 0 -15 -12 -16 -19 -2 -6
-3 -33 -4 -130 -1 -57 -1 -67 2 -74 4 -9 14 -21 18 -21 2 0 3 -1 3 -2 0 -1 1
-2 3 -2 1 0 51 -1 111 -1 84 -1 109 0 112 2 2 2 2 1 1 -1 -1 -1 1 -1 4 1 3 2
5 3 4 2 -1 -2 0 -3 4 -3 4 0 5 1 4 3 -1 1 1 0 4 -2 3 -2 5 -2 4 -1 -1 2 -1 3
1 1 3 -2 49 -3 206 -3 194 0 203 0 211 4 8 4 17 11 18 16 0 2 2 6 3 9 1 3 3 9
3 13 1 4 3 12 6 17 5 12 6 43 2 47 -2 2 -3 8 -3 15 0 10 1 12 6 17 6 6 7 6 18
6 11 0 12 0 18 -6 5 -5 6 -7 6 -17 0 -6 -2 -14 -4 -19 -7 -16 -5 -39 3 -48 2
-1 7 -8 12 -14 7 -9 8 -12 9 -23 l0 -13 -14 -15 c-17 -16 -22 -25 -23 -40 0
-7 -1 -11 -4 -13 -5 -4 -3 -20 4 -35 3 -6 4 -11 3 -11 0 0 2 -2 5 -4 9 -4 28
-19 38 -29 9 -8 9 -9 9 -21 0 -11 -1 -13 -6 -18 -3 -3 -7 -6 -9 -6 -20 -1 -27
2 -37 16 -3 5 -9 13 -13 17 -13 15 -18 29 -13 39 1 2 4 4 6 4 2 0 2 1 1 2 -2
0 -3 6 -4 13 0 7 -2 12 -3 13 -1 0 -2 1 -1 2 1 2 -10 8 -17 9 -3 1 -14 0 -24
-2 -22 -4 -34 -4 -55 0 -25 4 -60 4 -75 -1 -17 -6 -21 -7 -37 -18 -18 -11 -26
-16 -32 -16 -11 -1 -15 0 -20 6 -3 4 -10 11 -16 16 -15 16 -14 16 -131 16
l-101 -1 -9 -6 c-9 -6 -19 -21 -21 -32 -2 -10 -9 -15 -20 -15 -10 0 -19 5 -19
12 0 6 -11 27 -17 32 -9 8 -23 7 -32 -2 -13 -12 -13 -15 -12 -99 0 -77 0 -81
6 -93 8 -17 10 -19 18 -28 16 -16 18 -17 71 -18 45 0 48 0 67 5 24 6 26 6 50
0 l19 -5 103 0 c101 1 102 1 110 5 4 3 11 8 15 12 19 17 33 17 52 0 17 -16 15
-16 93 -17 69 -1 69 -1 73 -6 2 -2 3 -5 3 -7 -1 -6 -6 -19 -9 -23 -2 -3 -4 -7
-5 -10 0 -2 -1 -4 -2 -4 -1 0 -5 -2 -8 -6 l-6 -5 -125 0 c-123 0 -136 0 -136
-3 0 -1 -1 -2 -2 -2 -4 0 -15 -10 -19 -18 -11 -22 -19 -28 -34 -29 -15 -1 -25
7 -36 29 -4 8 -15 18 -18 18 -2 0 -3 1 -3 2 0 2 -10 3 -63 3 -53 0 -63 -1 -63
-3 0 -1 -1 -2 -3 -2 -1 0 -5 -3 -9 -7 -5 -6 -6 -9 -6 -17 0 -8 1 -10 6 -15 8
-7 25 -11 35 -9 15 3 25 -5 25 -20 0 -15 -6 -20 -21 -20 -6 0 -11 1 -11 2 0 1
-6 0 -14 -2 -11 -2 -14 -4 -16 -8 -4 -7 -3 -16 3 -29 9 -20 9 -21 6 -32 -2 -5
-5 -11 -6 -13 -1 -2 -5 -8 -8 -14 l-5 -10 0 -116 1 -115 5 -8 c6 -8 22 -18 34
-20 3 -1 7 -3 8 -4 1 -2 4 -3 5 -3 2 0 5 -4 6 -9 1 -6 -11 -18 -20 -20 -11 -2
-27 -12 -33 -20 l-5 -8 -1 -98 c0 -86 0 -99 3 -106 4 -9 14 -21 18 -21 2 0 3
-1 3 -2 0 -1 4 -1 9 -2 7 0 13 2 28 9 24 12 31 12 53 1 27 -12 28 -12 103 -11
71 1 73 1 73 3 0 1 1 2 3 2 4 0 14 12 18 21 2 5 3 13 3 17 -1 8 0 10 5 15 l6
6 157 0 c150 0 168 0 168 3 0 1 3 3 7 5 4 1 8 5 10 8 2 3 4 6 5 7 1 1 3 5 6 9
12 21 44 21 56 0 3 -4 5 -8 6 -9 1 -1 2 -3 4 -5 6 -13 39 -16 65 -6 11 5 16
10 24 25 4 9 8 13 10 14 7 1 39 -18 48 -28 2 -2 5 -4 6 -4 1 0 4 -2 7 -5 2 -3
8 -7 14 -9 9 -5 10 -5 78 -6 47 0 69 1 70 2 1 1 2 0 4 -3 1 -2 5 -6 8 -8 3 -1
4 -3 3 -3 -4 0 -4 -16 0 -25 4 -9 14 -21 18 -21 2 0 3 -1 3 -2 0 -2 2 -2 68
-3 69 -1 66 -2 97 10 7 3 15 5 18 5 3 0 11 -2 18 -5 29 -11 33 -11 54 -10 24
1 25 1 25 3 0 1 1 2 3 2 4 0 14 12 18 21 3 7 3 23 3 138 0 147 0 143 -15 162
-14 17 -15 19 -15 31 0 12 1 14 15 32 12 14 16 29 13 43 -3 12 -8 23 -10 23
-1 0 -2 1 -2 3 0 2 -1 3 -2 3 -3 0 -11 19 -11 28 0 9 8 28 11 28 1 0 2 1 2 3
0 2 1 3 2 3 2 0 5 8 9 20 5 14 4 173 0 183 -4 9 -14 21 -18 21 -2 0 -3 1 -3 2
0 0 -2 2 -5 2 -4 1 -96 1 -206 1 -188 0 -201 0 -206 -4 -6 -4 -10 -12 -12 -23
-1 -5 -2 -10 -3 -10 -1 -1 -1 -2 1 -3 4 -1 4 -9 -1 -15 -8 -9 -22 -2 -22 10 0
4 1 6 3 6 1 0 1 1 0 2 -1 0 -3 3 -4 6 -5 21 -28 27 -93 24 -18 -1 -24 2 -31
18 -6 13 -18 33 -20 34 -3 1 -9 15 -9 19 0 3 6 10 10 11 3 0 18 -6 21 -9 13
-12 27 -14 52 -9 19 4 29 4 309 4 322 0 295 -1 321 14 8 4 16 8 18 8 9 0 30
13 36 22 l6 8 1 57 c0 66 1 63 -18 101 -22 41 -20 40 -92 40 -61 0 -67 -1 -86
-17 -5 -4 -13 -11 -18 -15 -11 -9 -15 -13 -22 -24 -11 -16 -14 -18 -29 -19 -8
0 -15 0 -17 1 -2 1 -6 2 -11 3 -10 2 -19 10 -20 19 0 4 0 9 1 10 2 3 -2 19 -7
28 -2 4 -6 8 -12 10 -7 4 -14 4 -80 4 -85 0 -85 0 -103 -18 -7 -7 -15 -14 -17
-15 -7 -5 -20 -4 -34 1 -7 2 -16 4 -20 4 -4 0 -13 -2 -20 -4 -14 -5 -27 -6
-34 -1 -2 1 -10 8 -17 15 -11 11 -14 13 -17 12 -1 -1 -3 3 -6 8 -3 4 -6 8 -7
8 0 0 -1 11 -1 25 l0 26 6 6 6 6 34 0 34 0 8 6 c10 8 16 25 13 38 -3 8 1 24 7
28 10 10 21 10 47 2 9 -2 23 -6 30 -7 17 -4 22 -8 24 -24 5 -33 26 -51 48 -40
10 5 12 8 13 22 0 6 1 11 2 11 0 1 -1 3 -3 4 -5 4 -5 12 0 27 6 18 32 40 47
40 6 0 11 -4 11 -9 0 -5 -6 -17 -10 -22 -2 -2 -6 -8 -8 -12 -2 -4 -6 -11 -9
-15 -2 -5 -6 -9 -9 -10 -3 -1 -4 -2 -3 -2 2 0 3 -4 3 -11 -1 -20 9 -27 36 -26
22 0 36 6 47 20 4 5 12 14 17 19 l9 10 14 0 c16 0 18 -2 31 -24 6 -10 10 -15
17 -19 l10 -6 117 0 c115 0 128 0 128 3 0 1 1 2 3 2 4 0 14 12 18 21 5 11 5
191 0 202 -4 9 -14 21 -18 21 -2 0 -3 1 -3 2 0 1 -1 2 -2 2 -10 2 -344 2 -349
0 -10 -3 -17 -10 -22 -20 -6 -14 -14 -24 -17 -24 -2 0 -6 4 -9 9 -5 7 -6 10
-6 20 0 16 2 29 4 31 1 0 8 9 14 19 7 10 12 18 13 19 1 1 7 9 14 20 12 19 12
19 11 30 0 6 -2 11 -3 12 -2 0 4 6 11 9 2 1 61 3 130 3 69 1 127 2 129 2 1 0
2 1 2 2 0 1 1 2 3 2 4 0 14 12 18 21 5 11 5 183 0 194 -4 9 -14 21 -18 21 -2
0 -3 1 -3 2 0 2 0 1 -20 3 -21 2 -32 -3 -39 -18 -3 -6 -5 -12 -5 -15 0 -3 -1
-4 -6 -4 -5 0 -6 1 -6 4 0 3 -2 9 -5 15 -8 16 -15 19 -53 19 -27 0 -33 -1 -54
-6 l-24 -6 -20 5 c-22 6 -32 6 -41 2 -11 -5 -24 -8 -30 -8 -6 0 -23 5 -26 7
-8 5 -23 6 -90 6 l-70 -1 -10 -6 c-5 -3 -12 -9 -15 -13 -3 -4 -6 -8 -8 -9 -2
0 -5 -2 -6 -3 -3 -2 -5 -2 -7 0 -2 1 -5 3 -7 3 -2 1 -5 5 -8 9 -3 4 -10 10
-15 13 -9 5 -12 6 -33 7 -20 1 -24 2 -30 6 -4 3 -7 6 -7 7 -1 1 -6 13 -12 25
-12 26 -19 33 -37 41 -6 3 -14 7 -17 8 -7 3 -22 3 -33 -1 -6 -3 -16 -12 -16
-15 0 -6 -11 -34 -14 -38 -6 -7 -16 -7 -22 0 -3 3 -6 12 -10 33 -3 16 -6 30
-6 31 1 4 -6 20 -11 25 -7 7 -19 8 -33 3z m-45 -150 c5 -8 1 -16 -8 -16 -9 0
-13 8 -8 16 2 3 5 5 8 5 3 0 6 -2 8 -5z m827 -16 c0 -1 -1 -3 -3 -4 -3 -3 -3
-3 -6 0 -4 4 -4 5 3 5 3 0 6 -1 6 -1z m-1108 -19 c8 -7 2 -19 -8 -19 -6 0 -12
7 -12 13 0 9 13 13 20 6z m814 -21 l-5 -5 -4 4 -5 5 4 4 5 5 4 -4 5 -5 -4 -4z
m-934 -3 c13 -5 31 -9 40 -11 10 -2 13 -6 22 -26 4 -10 9 -18 10 -19 3 -2 12
-18 12 -23 0 -6 -6 -13 -13 -13 -4 0 -16 5 -19 8 -2 3 -24 12 -34 15 -10 2
-19 6 -22 9 -1 1 -7 6 -15 12 -18 13 -22 18 -22 30 0 8 1 11 6 16 8 9 16 9 35
2z m1233 -22 c10 -9 5 -21 -10 -30 -6 -3 -8 -4 -11 -1 -2 1 -4 3 -4 3 0 4 0 5
-2 7 -1 2 -1 4 1 11 4 13 17 18 26 10z m-1407 -31 c6 -7 6 -22 0 -28 -4 -4 -7
-5 -15 -5 -8 0 -11 1 -15 5 -6 6 -6 21 0 28 7 8 23 8 30 0z m753 -8 c4 -4 5
-7 5 -13 0 -11 -7 -18 -18 -18 -11 0 -18 7 -18 18 0 11 7 18 18 18 6 0 9 -1
13 -5z m-183 -1 c2 -2 4 -5 4 -7 0 -4 -7 -18 -10 -20 -2 -1 -9 -9 -17 -18 -7
-9 -15 -16 -16 -17 -2 0 -1 -31 1 -33 1 0 4 -2 7 -4 6 -3 22 -3 155 -3 164 0
155 -1 180 14 17 10 39 16 46 12 9 -5 10 -9 7 -27 -3 -18 -8 -25 -19 -25 -9 0
-33 -11 -41 -18 -5 -5 -9 -13 -15 -29 -19 -51 -19 -51 -43 -53 -27 -2 -36 -10
-35 -28 1 -22 19 -33 55 -33 28 -1 34 -4 39 -20 3 -11 0 -25 -7 -30 -11 -10
-22 -10 -47 -1 -13 4 -23 6 -35 7 -28 1 -33 6 -34 33 0 7 -2 15 -3 17 -1 2 -2
3 -1 3 1 0 0 1 -1 3 -1 2 -2 3 -1 3 1 0 -1 2 -5 5 -7 5 -22 10 -30 9 -12 -1
-16 0 -27 11 -22 20 -27 21 -78 21 -28 0 -50 -1 -60 -3 -9 -1 -17 -2 -19 -2
-6 0 -29 -13 -36 -21 -3 -4 -9 -10 -13 -13 -6 -7 -8 -8 -21 -7 -11 0 -19 9
-19 22 0 11 4 17 16 25 11 7 16 14 19 27 2 9 2 11 -1 17 -3 6 -6 14 -21 46 -3
7 -8 16 -10 19 -2 3 -4 6 -3 6 0 1 1 5 2 9 1 4 5 16 10 26 5 10 9 19 9 21 0 4
5 8 15 12 5 2 13 7 18 10 23 16 70 38 78 37 2 0 6 -2 7 -3z m806 -1 c3 -4 4
-7 3 -14 -2 -22 -4 -25 -17 -25 -19 0 -34 11 -34 23 0 7 7 15 14 15 3 0 8 1
12 3 10 3 17 3 22 -2z m-949 -8 c3 -3 3 -3 0 -6 -3 -3 -3 -3 -6 0 -3 2 -3 3
-1 6 4 4 4 4 7 0z m545 -23 c19 -8 39 -18 43 -23 4 -5 5 -16 2 -25 -3 -13 -24
-17 -39 -7 -4 3 -8 6 -8 7 0 2 -4 3 -16 5 -6 1 -14 10 -14 14 0 2 -1 3 -2 3
-1 0 -1 2 -1 5 3 24 13 30 35 21z m193 -8 c6 -3 11 -11 11 -18 0 -3 3 -10 6
-17 7 -14 7 -14 2 -17 -8 -4 -19 -6 -28 -4 -5 1 -12 2 -15 3 -9 1 -18 6 -22
12 -3 4 -3 5 0 12 2 4 3 9 3 11 0 17 21 26 43 18z m-810 -201 c3 -3 3 -3 0 -6
-3 -3 -3 -3 -6 0 -3 2 -3 3 -1 6 4 4 4 4 7 0z m625 -29 c5 -5 5 -15 0 -20 -9
-9 -24 -2 -24 10 0 8 6 14 14 14 3 0 8 -2 10 -4z m-770 -2 c5 -5 5 -11 0 -16
-10 -10 -27 5 -16 16 4 4 12 4 16 0z m1229 0 c11 -10 3 -28 -11 -28 -9 0 -16
6 -16 16 0 14 17 22 27 12z m-1609 -4 c5 -5 5 -15 0 -20 -9 -9 -24 -2 -24 10
0 8 6 14 14 14 3 0 8 -2 10 -4z m771 -13 c4 -4 5 -7 5 -15 0 -14 -6 -20 -20
-20 -14 0 -20 6 -20 20 0 14 6 20 20 20 8 0 11 -1 15 -5z m-305 -11 c5 -5 5
-15 0 -20 -9 -9 -24 -2 -24 10 0 8 6 14 14 14 3 0 8 -2 10 -4z m-280 -5 c3 -1
6 -6 11 -15 4 -7 9 -16 12 -19 6 -5 24 -15 30 -15 5 0 11 -10 11 -18 0 -8 -4
-15 -12 -21 -14 -11 -23 -21 -28 -31 -9 -16 -15 -20 -27 -20 -8 0 -11 1 -14 5
-14 14 -11 44 5 62 8 8 7 28 -2 43 -11 19 -5 34 14 29z m697 -51 c7 -7 19 -47
19 -65 0 -8 -5 -25 -11 -34 -7 -11 -29 -15 -42 -8 -11 5 -15 25 -8 41 9 22 9
23 11 44 1 15 2 19 6 22 7 5 18 5 25 0z m688 -49 c4 -4 5 -7 5 -15 0 -14 -6
-20 -20 -20 -14 0 -20 6 -20 20 0 14 6 20 20 20 8 0 11 -1 15 -5z m-1520 -10
c3 -3 3 -3 0 -6 -3 -3 -3 -3 -6 0 -3 2 -3 3 -1 6 4 4 4 4 7 0z m132 -53 c0 -5
0 -2 0 7 0 9 0 13 0 9 1 -5 1 -12 0 -16z m1400 -157 c27 -15 40 -45 26 -59
-11 -11 -27 -8 -52 8 -8 5 -17 11 -22 13 -7 4 -15 14 -15 20 0 6 6 14 12 17
16 7 39 7 51 1z m-185 -50 c6 -3 31 -27 36 -35 3 -3 4 -9 4 -16 0 -19 -11 -23
-53 -22 -29 2 -36 7 -36 28 0 16 15 37 30 44 10 5 12 5 19 1z m-235 -43 c10
-9 3 -26 -10 -26 -8 0 -15 7 -15 15 0 13 16 20 25 11z m284 -208 c3 -3 15 -19
15 -21 0 -2 12 -19 15 -20 6 -5 11 -16 11 -24 0 -13 -6 -19 -19 -19 -10 0 -17
4 -23 14 -2 4 -11 15 -20 24 -16 16 -17 18 -16 32 0 8 8 17 15 18 8 2 18 0 22
-4z m-105 -1 c16 -7 20 -37 7 -48 -12 -11 -34 -11 -43 0 -9 10 -9 32 0 42 7 8
24 11 36 6z m-491 -3 c18 -5 36 -13 42 -18 5 -5 6 -7 6 -16 0 -13 -8 -22 -19
-22 -15 -1 -16 0 -31 15 -18 17 -24 30 -18 38 3 5 8 6 20 3z m314 -15 c13 -9
10 -38 -5 -47 -8 -4 -22 -7 -22 -4 0 1 -3 5 -6 8 -6 5 -7 7 -7 15 0 12 5 23
13 27 6 5 22 5 27 1z m-670 -18 c11 -6 31 -22 34 -27 8 -11 7 -32 -1 -41 -7
-8 -24 -11 -36 -6 -9 4 -33 28 -38 38 -6 11 -5 30 3 36 8 7 26 7 38 0z m126
-45 c3 -3 6 -9 7 -14 1 -5 6 -13 11 -19 20 -24 20 -34 0 -47 -17 -11 -16 -10
-15 -24 0 -12 1 -14 5 -18 10 -7 19 -8 81 -8 56 1 59 1 67 5 11 6 21 17 27 27
3 5 18 12 27 11 10 0 22 -6 25 -11 6 -10 16 -21 27 -27 8 -4 11 -4 58 -4 27
-1 49 0 49 1 0 3 8 4 9 0 0 -2 1 6 1 16 0 14 1 20 3 21 1 0 -1 1 -6 1 -15 0
-24 9 -24 27 0 18 9 27 27 28 14 0 21 -4 28 -16 8 -14 16 -20 28 -22 5 -1 10
-1 12 -2 6 0 17 11 30 31 6 8 12 15 16 16 3 1 8 4 11 5 6 3 7 3 16 -6 9 -8 9
-9 9 -21 0 -11 -1 -13 -6 -18 -3 -3 -7 -6 -9 -6 -7 -1 -20 -6 -30 -11 -8 -5
-8 -5 -7 -17 0 -12 3 -20 7 -20 2 0 4 -1 5 -2 5 -4 11 -5 55 -5 22 0 41 0 41
-1 0 -2 14 -8 26 -11 17 -4 24 -4 29 -2 7 4 20 2 31 -4 6 -3 13 -7 16 -8 6 -3
26 -7 33 -7 18 2 25 -4 25 -21 0 -17 -7 -23 -26 -21 -3 0 -6 1 -7 2 -5 4 -25
6 -38 5 -8 0 -18 -1 -22 -2 -4 0 -10 1 -13 2 -3 2 -8 2 -17 0 -10 -1 -13 -2
-19 -9 -9 -10 -10 -18 -3 -33 7 -14 9 -16 61 -41 43 -22 43 -22 56 -21 9 0 15
1 19 4 9 7 15 8 24 8 16 -1 23 -6 27 -20 6 -22 -8 -39 -29 -38 -10 0 -15 3
-28 12 -9 7 -10 7 -25 7 -11 0 -16 -1 -18 -3 -3 -2 -7 -4 -14 -4 -8 0 -12 2
-26 11 -9 7 -21 14 -26 17 -5 3 -15 9 -21 15 -6 5 -15 12 -21 15 l-11 5 -269
0 c-268 0 -270 0 -280 -4 -6 -2 -14 -7 -18 -10 -20 -16 -31 -16 -60 1 -17 10
-34 13 -69 13 l-30 -1 -6 6 c-6 6 -6 7 -5 22 0 17 -2 24 -15 50 -6 13 -10 24
-13 39 -5 25 -5 33 -2 45 7 25 39 28 58 4 18 -22 49 -29 70 -17 10 6 13 13 22
44 1 5 11 11 25 16 10 3 13 8 13 25 0 8 -1 15 -1 15 -3 1 -9 15 -9 19 0 5 7
10 12 10 3 0 7 -2 9 -5z m-414 -62 c10 -9 3 -26 -10 -26 -8 0 -15 7 -15 15 0
13 16 20 25 11z m1072 -13 c5 -8 1 -16 -8 -16 -9 0 -13 8 -8 16 2 3 5 5 8 5 3
0 6 -2 8 -5z m161 -107 c5 -5 5 -11 0 -16 -10 -10 -27 5 -16 16 4 4 12 4 16 0z
m-1186 -68 c6 -3 9 -10 13 -27 6 -26 10 -35 18 -41 10 -6 25 -14 28 -14 1 0 4
-2 7 -4 4 -4 4 -4 1 -7 -3 -3 -5 -3 -16 -1 -17 3 -29 2 -35 -4 -2 -2 -4 -5 -4
-6 0 -2 -2 -3 -5 -3 -3 0 -5 1 -5 1 0 1 -3 3 -6 5 -4 2 -10 7 -14 11 -4 4 -9
8 -12 10 -5 3 -5 5 -5 19 0 9 -1 23 -2 32 -2 19 1 25 11 30 7 3 20 2 26 -1z
m136 -23 c6 -7 6 -22 0 -28 -9 -9 -27 -7 -32 3 -4 7 -3 20 2 25 7 8 23 8 30 0z
m535 -53 c7 -3 12 -13 12 -25 0 -19 -9 -28 -28 -28 -19 0 -28 9 -28 28 0 17 6
24 22 28 5 1 14 -1 22 -3z m234 -16 c11 -10 3 -28 -11 -28 -9 0 -16 6 -16 16
0 14 17 22 27 12z m-593 -9 c3 -3 4 -7 4 -14 0 -13 -6 -19 -19 -19 -13 0 -19
6 -19 19 0 7 1 11 4 14 7 8 23 8 30 0z m197 -13 c11 -10 3 -28 -11 -28 -9 0
-16 6 -16 16 0 14 17 22 27 12z m-489 -15 c3 -2 8 -6 13 -9 7 -6 7 -8 7 -17 0
-13 -6 -19 -19 -19 -13 0 -19 6 -19 19 0 6 1 11 2 12 4 2 8 14 7 16 -2 1 3 0
9 -2z m985 -11 c3 -2 8 -11 12 -20 9 -18 11 -33 6 -47 -3 -8 -3 -13 -2 -30 2
-37 1 -40 -20 -42 -14 -2 -20 3 -20 13 0 8 -9 19 -14 17 -2 0 -3 0 -3 1 0 0
-5 1 -12 1 -7 0 -12 -1 -12 -1 0 -3 -16 -9 -20 -9 -3 0 -6 1 -8 1 -1 0 -4 2
-7 5 -7 7 -7 23 0 30 3 3 6 5 7 5 40 1 48 3 55 17 3 7 3 10 1 23 -3 21 -3 31
2 36 7 9 26 9 35 0z m-137 -36 c5 -6 5 -7 0 -12 -7 -7 -47 -11 -52 -5 -2 3 -2
4 1 7 6 6 10 8 27 11 21 4 20 4 24 -1z m-392 -31 l-5 -5 -4 4 -5 5 4 4 5 5 4
-4 5 -5 -4 -4z m-309 -24 c4 -4 5 -7 5 -15 0 -14 -6 -20 -20 -20 -8 0 -11 1
-15 5 -4 4 -5 7 -5 15 0 14 6 20 20 20 8 0 11 -1 15 -5z"/>
</g>
</svg>
