<?xml version="1.0" standalone="no"?>
<!DOCTYPE svg PUBLIC "-//W3C//DTD SVG 20010904//EN"
 "http://www.w3.org/TR/2001/REC-SVG-20010904/DTD/svg10.dtd">
<svg version="1.0" xmlns="http://www.w3.org/2000/svg"
 width="1000.000000pt" height="2850.000000pt" viewBox="0 0 1000.000000 2850.000000"
 preserveAspectRatio="xMidYMid meet">
<metadata>
Created by potrace 1.15, written by Peter Selinger 2001-2017
</metadata>
<g transform="translate(0.000000,2850.000000) scale(0.500000,-0.500000)"
fill="#000000" stroke="none">
<path d="M948 3813 c-1 0 -10 -1 -22 -2 -107 -7 -229 -39 -330 -87 -14 -7 -27
-13 -29 -14 -12 -5 -21 -28 -15 -42 3 -8 20 -14 42 -15 14 -1 18 -2 31 -8 7
-4 14 -7 14 -7 0 0 4 0 9 -1 8 -1 12 0 32 8 70 27 152 48 214 54 20 2 33 9 43
25 12 18 17 22 24 22 7 0 12 -4 23 -19 12 -15 23 -21 47 -22 34 -2 54 -3 69
-5 8 -1 19 -3 23 -3 21 -3 41 -7 88 -17 56 -13 149 -49 203 -79 10 -6 19 -11
19 -11 1 0 5 -3 10 -6 5 -3 9 -6 10 -6 0 0 9 -6 20 -13 18 -12 20 -13 31 -13
13 0 22 3 31 12 11 10 22 11 42 5 6 -2 11 -2 15 -1 3 1 6 1 7 0 0 0 1 0 1 2 0
1 1 2 2 1 0 0 1 4 2 10 0 7 -1 11 -2 11 -1 0 -2 1 -1 2 2 4 -19 23 -44 40 -5
4 -10 7 -11 8 -2 2 -36 24 -57 37 -26 15 -33 17 -60 17 -25 0 -28 1 -38 16
-14 22 -25 29 -54 40 -18 7 -31 7 -52 0 -7 -2 -19 -5 -28 -7 -9 -2 -23 -5 -31
-7 -23 -5 -36 0 -36 14 0 3 -1 9 -3 13 -1 4 -2 7 -2 7 2 0 -7 16 -12 21 -8 6
-18 8 -40 4 -17 -2 -17 -2 -34 3 -9 3 -20 7 -25 9 -8 3 -17 4 -67 4 -32 1 -59
1 -59 0z"/>
<path d="M449 3638 c-29 -20 -39 -29 -67 -51 -33 -27 -96 -90 -116 -116 -3 -3
-6 -7 -7 -9 -2 -1 -6 -6 -9 -10 -3 -4 -6 -8 -8 -10 -7 -7 -24 -36 -21 -36 2 0
-9 -18 -14 -24 -3 -3 -7 -6 -10 -7 -2 0 -5 -3 -7 -5 -14 -24 -30 -51 -39 -68
-11 -20 -11 -21 -10 -32 1 -12 4 -20 12 -27 8 -8 11 -14 11 -24 0 -11 -6 -19
-15 -19 -32 -1 -46 -7 -55 -24 -3 -7 -10 -27 -21 -62 -8 -27 -16 -60 -15 -68
0 -7 7 -26 10 -28 4 -2 12 -18 12 -23 0 -6 -6 -16 -12 -20 -27 -16 -36 -45
-22 -76 12 -27 12 -29 4 -46 -12 -23 -14 -31 -13 -57 2 -40 11 -50 46 -53 6
-1 12 -3 13 -4 1 -2 4 -3 5 -3 1 0 4 -2 7 -5 4 -6 5 -6 18 -5 7 1 14 2 16 3 6
4 8 17 6 42 -1 13 -3 40 -3 60 -1 40 -2 45 -12 67 -10 20 -9 34 3 47 10 12 17
28 22 59 10 56 34 137 50 173 1 2 7 16 13 30 7 14 13 29 15 33 2 3 8 13 12 22
5 8 10 18 12 21 8 13 3 36 -10 45 -11 7 -14 13 -15 24 0 8 1 11 4 14 6 6 22 6
33 -1 10 -6 29 -7 38 -2 3 1 12 11 20 22 8 10 15 19 16 19 2 1 3 7 3 13 1 11
0 15 -6 26 -8 16 -9 23 -3 29 4 4 17 6 19 2 1 -2 18 -8 25 -9 10 -2 21 2 29
10 5 5 15 13 21 19 7 6 14 12 15 13 8 8 57 44 73 54 38 25 40 27 40 45 0 11 0
11 -7 15 -5 2 -14 4 -23 4 -13 1 -26 5 -26 9 0 1 -4 4 -9 8 -8 5 -12 6 -22 6
-12 0 -13 -1 -26 -10z"/>
<path d="M1580 3520 c-5 -5 -6 -7 -6 -17 0 -6 1 -13 2 -15 1 -2 14 -16 29 -30
14 -15 32 -34 39 -42 7 -8 13 -15 14 -16 1 -1 15 -19 18 -23 1 -1 7 -8 13 -16
10 -14 24 -35 41 -62 13 -21 14 -21 19 -31 2 -5 7 -13 10 -19 28 -51 63 -148
76 -210 1 -5 9 -47 10 -52 9 -54 13 -138 9 -193 -3 -33 -9 -89 -11 -92 -1 -2
3 -20 6 -26 2 -3 6 -8 10 -13 4 -4 7 -7 7 -8 0 0 3 -6 7 -13 10 -16 18 -22 32
-23 10 -1 10 -1 20 7 17 16 22 31 31 99 6 44 6 52 -2 67 -4 8 -6 9 -23 22 -12
9 -14 15 -12 32 1 9 2 10 14 20 1 1 5 3 8 5 8 4 13 15 13 28 0 8 0 8 -11 13
-7 3 -14 6 -17 7 -3 1 -6 3 -8 4 -3 4 2 9 15 16 16 8 23 17 23 32 0 15 -11 72
-25 128 -13 53 -50 147 -63 160 -5 6 -22 14 -35 16 -10 3 -12 8 -6 30 4 16 5
21 3 27 -3 10 -12 26 -22 38 -10 13 -17 15 -44 14 -22 0 -24 0 -29 5 -8 6 -9
23 -3 37 6 15 7 35 3 43 -4 6 -28 34 -41 46 -11 11 -29 14 -47 8 -12 -4 -17
-5 -23 -2 -9 3 -13 3 -26 4 -12 0 -13 0 -18 -5z"/>
<path d="M76 2701 c-7 -8 -8 -14 -3 -46 1 -6 0 -13 -2 -20 -6 -21 -5 -29 14
-86 8 -23 21 -57 30 -78 25 -56 56 -113 68 -126 4 -4 13 -10 22 -15 18 -10 20
-13 22 -25 2 -16 5 -29 9 -37 3 -6 20 -28 24 -32 1 -1 3 -4 6 -7 5 -6 15 -18
41 -46 l19 -20 17 -5 c23 -6 32 -16 33 -34 0 -5 8 -12 31 -31 35 -28 42 -32
57 -33 14 0 22 2 32 8 3 2 12 7 22 12 9 5 16 9 16 10 0 1 1 2 3 2 1 0 3 2 4 4
1 4 2 4 7 -6 4 -10 5 -12 3 -18 -3 -10 -8 -19 -12 -21 -11 -4 -13 -32 -3 -42
5 -5 7 -6 17 -5 13 0 17 2 32 15 7 6 10 7 18 7 11 0 17 -4 23 -17 3 -4 11 -15
20 -23 8 -8 19 -19 23 -25 11 -14 13 -16 22 -21 14 -9 89 -30 128 -37 3 0 11
-2 16 -3 6 -1 14 -2 18 -3 4 0 18 -2 31 -4 70 -9 169 -8 249 2 16 2 33 17 37
32 3 8 -2 34 -8 49 -4 10 -15 22 -20 23 -2 0 -4 1 -6 2 -7 2 -13 3 -24 1 -25
-4 -76 -7 -112 -7 -117 0 -227 22 -338 68 -15 6 -33 12 -40 14 -7 2 -18 6 -25
9 -7 3 -16 6 -20 6 -5 1 -11 3 -15 5 -3 1 -6 2 -6 1 0 -1 -2 -1 -5 -1 -4 1 -5
3 -8 16 -2 10 -4 16 -7 16 -6 3 -65 45 -76 55 -5 5 -6 5 -19 4 -16 -1 -20 -4
-28 -18 -6 -9 -9 -11 -23 -15 -12 -4 -18 -4 -18 0 0 2 -1 3 -2 2 -1 0 -2 2 -3
6 -2 4 -1 9 2 19 3 10 5 13 12 18 11 8 15 16 15 30 0 11 0 12 -13 25 -32 33
-70 79 -93 115 -22 32 -30 46 -30 47 0 1 -1 3 -3 5 -4 5 -21 39 -35 69 -7 15
-13 30 -14 32 -8 18 -26 71 -35 107 -8 31 -13 41 -22 48 -7 5 -27 17 -30 17
-7 1 -20 6 -22 7 -2 1 -6 2 -11 3 -6 1 -8 0 -12 -4z"/>
<path d="M1812 2577 c-3 -8 -6 -15 -6 -16 0 -3 -21 -54 -31 -76 -14 -31 -33
-66 -46 -86 -4 -5 -12 -19 -20 -30 -11 -17 -18 -27 -33 -46 -5 -7 -17 -22 -20
-25 -4 -5 -14 -20 -15 -24 0 -1 -2 -7 -3 -12 -2 -8 -2 -11 2 -21 2 -6 6 -12 7
-14 2 -1 3 -3 3 -4 0 -4 15 -17 22 -19 22 -8 41 0 49 19 2 8 3 14 2 25 -1 18
2 24 13 24 10 0 28 5 36 10 7 4 14 12 36 46 18 28 20 35 13 62 -4 16 -5 20 -3
27 3 10 9 16 17 18 21 5 45 22 51 37 1 4 4 10 5 13 14 33 15 37 14 45 -2 15
-10 24 -28 30 -9 3 -11 6 -19 20 l-5 11 -17 1 -18 0 -6 -15z"/>
<path d="M1572 2208 c-6 -3 -13 -8 -16 -11 -6 -5 -23 -19 -29 -23 -1 -1 -7 -6
-13 -11 -11 -8 -36 -25 -65 -43 -21 -13 -21 -13 -33 -20 -6 -3 -16 -8 -22 -11
-25 -14 -81 -37 -115 -49 -7 -2 -18 -6 -26 -8 -19 -7 -27 -14 -31 -31 -2 -9
-3 -16 -2 -19 1 -4 1 -11 0 -17 -3 -16 1 -29 8 -36 8 -6 20 -10 29 -8 10 2 54
17 74 24 41 16 50 20 55 25 8 7 13 25 11 40 -1 13 3 20 11 20 5 0 20 -9 20
-12 0 -3 15 -10 25 -11 11 -2 11 -1 36 14 2 2 7 4 10 6 6 3 42 28 46 30 1 1 6
5 12 9 11 8 35 26 37 28 1 1 4 3 8 6 16 12 21 19 27 38 3 9 3 12 1 22 -3 17
-6 24 -12 34 -8 12 -15 17 -24 19 -10 1 -12 1 -22 -5z"/>
</g>
</svg>
