<?xml version="1.0" standalone="no"?>
<!DOCTYPE svg PUBLIC "-//W3C//DTD SVG 20010904//EN"
 "http://www.w3.org/TR/2001/REC-SVG-20010904/DTD/svg10.dtd">
<svg version="1.0" xmlns="http://www.w3.org/2000/svg"
 width="1100.000000pt" height="2850.000000pt" viewBox="0 0 1100.000000 2850.000000"
 preserveAspectRatio="xMidYMid meet">
<metadata>
Created by potrace 1.15, written by Peter Selinger 2001-2017
</metadata>
<g transform="translate(0.000000,2850.000000) scale(0.500000,-0.500000)"
fill="#000000" stroke="none">
<path d="M623 3621 c-8 -2 -28 -15 -24 -15 0 0 -1 -2 -3 -4 -2 -3 -4 -5 -4 -6
0 -3 -14 -10 -20 -10 -6 0 -20 7 -20 10 0 1 -2 3 -4 6 -2 2 -4 4 -3 4 1 0 -1
2 -4 4 -4 3 -7 4 -18 4 -12 -1 -13 -1 -17 -7 -6 -9 -6 -18 -1 -39 5 -20 5 -21
-2 -47 -5 -20 -5 -23 -5 -74 0 -49 1 -54 4 -61 4 -9 5 -9 23 -8 l11 0 0 -11 0
-12 -17 1 c-19 0 -19 0 -17 -17 l1 -8 16 -1 c10 0 16 -1 17 -3 2 -2 2 9 2 36
0 19 2 23 15 23 14 0 23 -11 26 -31 2 -11 11 -30 17 -36 16 -15 49 -14 64 2 2
2 5 6 5 7 0 2 1 6 3 9 1 3 3 10 4 15 2 12 8 16 20 16 12 0 18 -4 20 -16 1 -5
3 -12 4 -15 2 -3 3 -7 3 -9 1 -4 10 -12 18 -16 8 -4 17 -4 166 -4 l159 0 6 -5
c4 -4 6 -7 7 -16 1 -7 2 -17 3 -23 1 -6 5 -30 9 -54 19 -112 21 -121 38 -139
16 -16 18 -27 11 -52 -5 -15 -6 -30 -3 -40 6 -29 18 -75 32 -127 8 -30 26 -90
39 -128 7 -19 12 -36 13 -38 1 -4 14 -38 20 -55 3 -8 7 -17 8 -21 6 -16 27
-66 38 -90 13 -29 18 -36 31 -51 12 -14 13 -14 18 -38 5 -24 15 -44 49 -100
24 -39 59 -93 64 -99 2 -1 4 -4 5 -7 2 -2 3 -5 4 -6 1 -1 7 -9 13 -17 14 -18
19 -25 23 -30 2 -2 5 -6 8 -10 3 -4 11 -13 17 -21 7 -8 17 -19 21 -25 10 -11
95 -98 111 -112 22 -19 58 -38 74 -38 14 0 26 6 32 16 3 4 10 14 16 22 5 7 12
16 14 19 2 3 5 6 6 8 1 1 9 11 18 22 9 11 23 28 32 38 8 10 22 25 30 34 8 9
31 33 52 54 l39 39 0 13 c0 17 -2 22 -18 31 -7 5 -13 9 -14 10 -1 1 -6 4 -13
7 -18 8 -30 17 -36 26 -3 5 -12 15 -20 22 -42 37 -102 101 -132 140 -6 9 -13
17 -13 18 -8 9 -21 27 -24 33 -3 4 -5 7 -6 8 -1 1 -5 6 -9 13 -9 14 -17 23
-32 32 -16 11 -16 10 -20 43 -2 17 -14 42 -23 46 -3 1 -11 2 -18 2 -15 -1 -15
-1 -15 -27 0 -19 -3 -27 -9 -27 -3 0 -9 7 -9 12 -1 5 -6 24 -11 37 -2 7 -4 16
-4 19 0 5 1 6 16 19 2 1 5 4 8 5 5 3 10 14 10 25 1 8 -1 13 -6 25 -25 50 -82
210 -91 252 0 2 -2 10 -5 17 -2 8 -4 17 -5 20 -1 3 -3 7 -6 10 -2 3 -4 5 -4 6
1 0 -2 0 -5 0 -3 0 -11 0 -18 -1 -7 0 -13 -1 -15 -3 -4 -4 -7 -4 -11 2 -5 5
-5 5 0 11 4 4 4 4 12 2 7 -2 9 -2 9 -1 1 2 3 2 4 2 2 -1 3 0 3 1 0 1 1 2 2 2
2 -1 4 2 7 6 6 11 5 35 -3 60 -6 18 -12 42 -13 52 -1 5 -2 11 -2 14 -1 3 -2 6
-2 8 0 1 -3 5 -5 10 -12 19 -14 28 -11 54 1 8 2 16 2 17 -1 3 -7 43 -10 58 0
2 -1 9 -2 14 -1 6 -2 16 -3 24 -1 8 -3 17 -3 21 -1 4 -3 13 -5 21 -6 23 -8 33
-8 57 0 13 -2 32 -3 43 -1 11 -3 28 -4 37 -2 31 -12 47 -32 55 -8 3 -13 3 -35
2 -14 -1 -29 -1 -35 -1 -5 0 -150 1 -322 1 -255 1 -314 0 -320 -2z m372 -83
c11 -10 3 -28 -11 -28 -9 0 -16 6 -16 16 0 14 17 22 27 12z m274 -100 c12 -10
7 -52 -8 -59 -13 -7 -35 -3 -40 8 -8 15 0 43 14 50 12 7 27 7 34 1z m-102
-147 c7 -6 9 -22 4 -35 -6 -16 -5 -23 3 -40 5 -9 8 -17 8 -18 0 -4 -7 -9 -12
-9 -9 0 -12 5 -11 18 2 15 -5 26 -22 39 -12 9 -14 15 -12 32 1 13 7 18 24 18
10 0 14 -1 18 -5z m62 -156 c3 -3 3 -3 0 -6 -4 -5 -11 1 -7 6 4 4 4 4 7 0z
m29 -62 c2 -2 5 -7 7 -12 3 -7 3 -7 -3 -13 l-6 -6 -8 4 c-10 4 -14 9 -14 16 0
12 15 18 24 11z m50 -40 c6 -1 13 -6 16 -10 3 -6 5 -32 2 -34 -1 -1 -2 -2 -1
-3 1 -1 -1 -3 -4 -5 -4 -3 -6 -3 -18 0 -18 5 -22 9 -27 27 -4 17 -3 22 6 27 3
2 7 2 13 1 4 -1 10 -3 13 -3z m56 -74 c6 -4 14 -9 18 -12 3 -3 13 -7 21 -9 7
-3 15 -6 17 -8 8 -8 2 -24 -9 -24 -3 0 -12 3 -21 7 -8 4 -15 8 -17 8 -1 0 -5
1 -9 3 -4 1 -9 2 -10 2 -11 -2 -17 4 -21 19 -2 11 -2 11 2 17 7 8 12 7 29 -3z
m-13 -351 c10 -9 3 -26 -10 -26 -8 0 -15 7 -15 15 0 13 16 20 25 11z m127 -38
c5 -6 5 -12 0 -18 -7 -8 -22 -2 -22 9 0 11 15 17 22 9z m283 -314 c4 -6 4 -24
-1 -30 -7 -9 -27 -9 -34 0 -5 6 -5 24 0 30 7 9 27 9 35 0z m-122 -25 c9 -9 6
-24 -5 -30 -18 -9 -28 -3 -26 16 2 14 6 19 18 19 6 0 10 -1 13 -5z m-46 -59
c13 -15 -8 -37 -22 -24 -9 9 -5 21 9 27 7 3 8 3 13 -3z m217 -16 c5 -6 5 -12
0 -18 -7 -8 -22 -2 -22 9 0 11 15 17 22 9z"/>
</g>
</svg>
