<?xml version="1.0" standalone="no"?>
<!DOCTYPE svg PUBLIC "-//W3C//DTD SVG 20010904//EN"
 "http://www.w3.org/TR/2001/REC-SVG-20010904/DTD/svg10.dtd">
<svg version="1.0" xmlns="http://www.w3.org/2000/svg"
 width="1000.000000pt" height="2850.000000pt" viewBox="0 0 1000.000000 2850.000000"
 preserveAspectRatio="xMidYMid meet">
<metadata>
Created by potrace 1.15, written by Peter Selinger 2001-2017
</metadata>
<g transform="translate(0.000000,2850.000000) scale(0.500000,-0.500000)"
fill="#000000" stroke="none">
<path d="M1419 3811 c-11 -4 -18 -12 -23 -25 -4 -10 -4 -12 -2 -100 3 -163 4
-153 -2 -159 l-5 -5 -124 -1 c-68 0 -125 -1 -126 -1 -2 0 -3 -1 -3 -2 0 -1 -1
-2 -2 -2 -6 0 -15 -12 -18 -22 -3 -11 -3 -12 0 -18 4 -8 10 -11 24 -12 5 0 10
-1 10 -3 1 -1 2 -1 2 1 0 8 18 11 26 4 3 -2 5 -8 9 -30 4 -23 5 -27 10 -32 7
-8 19 -13 36 -16 16 -3 23 -8 23 -17 0 -13 -13 -19 -26 -12 -3 2 -11 3 -19 3
-15 0 -21 -3 -27 -14 -4 -8 -13 -14 -18 -12 -5 1 -14 11 -14 14 0 2 -1 2 -2 1
0 -1 -8 -2 -17 -2 l-16 0 -2 -9 c-2 -7 -3 -66 -3 -278 0 -278 0 -284 -8 -320
-4 -14 -12 -27 -19 -29 -7 -1 -34 10 -39 15 -4 5 -5 22 -2 28 1 2 7 7 14 11
14 10 17 13 22 24 5 12 5 24 1 39 -5 15 -24 34 -37 38 -25 6 -36 3 -60 -15
-14 -11 -23 -15 -33 -14 -20 1 -29 12 -29 38 0 13 8 21 20 21 4 0 15 3 23 6
23 9 45 16 51 16 5 0 19 9 17 11 0 1 0 3 2 4 3 4 4 9 1 9 -1 0 0 4 1 10 2 5 3
17 4 27 0 17 0 19 -6 28 -17 27 -19 44 -7 68 6 11 14 26 16 28 6 6 16 24 19
33 3 8 3 17 2 73 -1 35 -1 114 -1 176 0 78 -1 114 -2 121 -3 9 -10 22 -21 38
-9 13 -7 31 6 45 4 4 9 13 13 23 4 10 4 16 4 49 0 43 -2 51 -12 62 -14 14 22
13 -473 12 -246 0 -449 -1 -450 -1 -2 0 -3 -1 -3 -2 0 -1 -1 -2 -3 -2 -4 0
-14 -12 -18 -21 -3 -7 -3 -26 -2 -167 0 -87 1 -162 2 -165 1 -3 2 -7 2 -8 0
-2 0 -2 1 -2 1 1 2 0 2 -1 0 -1 6 -1 15 -1 l15 2 0 -12 0 -12 -15 2 c-9 0 -15
0 -15 -1 0 -1 -1 -2 -2 -1 -1 0 -1 0 -1 -2 0 -1 -1 -5 -2 -8 -3 -12 -3 -23 -1
-30 9 -29 22 -54 33 -62 3 -3 13 -8 21 -12 13 -5 16 -8 18 -13 4 -9 3 -24 -1
-31 -4 -9 -20 -15 -29 -11 -6 2 -29 -5 -35 -10 -9 -9 -9 -9 -9 -166 0 -100 0
-151 2 -154 5 -15 20 -23 40 -25 17 -1 24 -6 28 -20 2 -7 2 -11 0 -17 -4 -15
-11 -20 -30 -21 -6 0 -15 -2 -19 -4 -4 -1 -7 -2 -7 -2 0 1 -3 -2 -7 -5 -9 -8
-11 -16 -12 -54 0 -18 -1 -40 -2 -48 -1 -15 -3 -70 -4 -81 0 -7 4 -20 8 -23 6
-5 28 -7 32 -3 8 8 23 0 23 -11 0 -12 -15 -19 -23 -11 -4 4 -22 5 -32 2 -10
-3 -12 -9 -18 -84 l-4 -40 5 -17 c7 -24 7 -32 2 -42 -4 -10 -10 -20 -12 -22
-1 -1 -1 -6 0 -13 1 -10 2 -12 9 -18 4 -4 13 -9 19 -11 16 -6 20 -11 20 -26 0
-11 -1 -13 -6 -18 -6 -6 -8 -7 -19 -6 -11 0 -32 -8 -38 -14 -8 -10 -9 -11 -23
-79 -1 -4 -4 -17 -7 -29 -9 -34 -5 -49 20 -70 24 -22 82 -81 101 -104 5 -6 11
-13 13 -15 1 -2 3 -4 3 -5 0 -5 28 -6 36 -2 2 1 6 5 8 10 11 22 43 147 58 226
5 27 7 34 12 34 3 0 6 -5 7 -14 1 -5 3 -17 4 -27 2 -10 3 -20 4 -22 0 -2 1 -8
2 -14 7 -56 11 -67 29 -75 11 -6 19 -7 28 -5 5 1 10 2 41 6 11 2 25 4 32 5 22
3 53 8 98 15 18 3 29 5 37 6 2 1 8 1 14 2 6 1 11 2 12 2 1 0 6 1 12 2 30 4 57
9 65 13 5 3 13 9 18 15 19 21 18 20 34 23 8 1 22 2 29 2 13 0 15 0 20 -6 6 -6
12 -28 21 -75 5 -27 13 -37 33 -41 8 -2 10 -1 19 3 6 2 12 6 14 8 5 5 11 25
11 38 0 13 6 19 16 19 8 0 13 -3 22 -16 7 -10 17 -16 30 -19 13 -2 39 11 45
24 8 14 8 21 0 57 -11 54 -15 63 -33 75 -4 3 -10 8 -12 12 -4 7 -4 10 3 29 5
11 7 25 6 30 -1 3 -2 10 -2 16 l-1 11 4 -5 c2 -3 10 -18 19 -34 24 -47 55
-100 68 -112 1 -2 6 -8 11 -15 26 -33 39 -42 67 -44 13 -2 21 -7 21 -13 0 -2
1 -6 2 -8 2 -6 4 -13 4 -14 1 -3 9 -16 13 -20 16 -15 92 -55 132 -70 8 -2 19
-6 24 -8 6 -2 13 -4 17 -4 9 0 27 9 30 14 1 3 5 6 9 7 10 4 12 2 21 -18 10
-23 19 -27 90 -36 50 -6 70 -7 80 -5 9 3 24 9 26 12 3 3 17 8 24 8 8 0 14 -3
25 -11 15 -13 21 -14 61 -14 49 1 92 7 124 18 16 6 56 25 56 27 0 1 1 2 3 2 2
0 3 1 3 2 0 1 2 2 5 4 5 2 16 18 22 31 7 20 12 27 19 32 13 9 26 23 32 36 5
11 19 51 21 63 0 3 2 11 4 18 5 23 6 29 6 42 0 23 -10 34 -47 53 -19 10 -30
12 -45 8 -23 -5 -25 -4 -30 18 -5 20 -7 23 -25 36 -16 12 -17 12 -29 12 -16 0
-24 -5 -30 -18 -6 -12 -13 -44 -13 -60 0 -15 -3 -25 -8 -29 -2 -2 -7 -12 -10
-22 -7 -20 -7 -20 -3 -61 1 -11 1 -15 -2 -21 -7 -13 -38 -21 -46 -12 -4 5 -4
10 -2 27 3 20 -3 31 -20 39 -7 3 -15 4 -49 5 -22 0 -43 0 -47 -1 -8 -2 -23
-15 -23 -20 0 -2 -1 -4 -2 -5 -1 0 -3 -6 -5 -12 -5 -17 -10 -22 -25 -24 -25
-5 -71 -31 -85 -49 -10 -13 -16 -16 -29 -16 -9 0 -11 1 -16 6 -5 5 -6 7 -6 17
0 13 3 18 19 28 6 4 17 14 24 22 8 8 15 15 18 16 5 2 20 8 27 12 5 2 5 3 5 17
1 13 0 15 -4 18 -2 2 -5 4 -6 4 -2 0 -3 1 -3 2 0 1 -2 2 -5 3 -61 14 -114 37
-153 66 -19 14 -20 15 -49 44 -22 22 -31 30 -42 35 -24 13 -27 17 -27 46 0 16
-8 42 -28 85 -3 7 -6 20 -6 26 0 10 5 15 15 15 8 0 10 1 20 11 20 19 73 58
135 99 59 39 68 45 71 43 0 -1 1 -1 1 1 0 1 2 2 5 2 13 0 -1 -19 -40 -55 -12
-11 -23 -21 -25 -23 -5 -5 -44 -37 -55 -45 -13 -8 -17 -18 -17 -31 1 -13 2
-15 26 -40 3 -3 10 -11 16 -18 6 -7 12 -13 12 -14 2 -1 46 -60 50 -66 2 -2 5
-8 8 -12 3 -4 6 -10 8 -13 2 -3 7 -10 11 -15 7 -8 9 -8 20 -10 14 -1 21 0 28
7 2 2 13 12 24 21 29 25 55 50 80 77 22 23 28 22 47 -6 16 -24 28 -38 49 -55
14 -13 15 -13 34 -23 12 -7 15 -7 24 -6 12 1 20 5 29 13 10 10 14 12 26 12 9
0 14 -1 20 -5 5 -3 10 -6 12 -7 20 -11 33 -9 61 12 34 25 60 65 79 125 7 22
17 64 19 78 1 3 2 10 3 15 5 20 12 80 11 88 -3 16 -12 29 -29 40 -10 6 -34 24
-36 26 -1 1 -6 5 -13 11 -27 22 -60 58 -63 68 -3 9 -2 27 3 34 10 20 46 107
61 147 3 9 9 25 12 34 10 28 11 30 8 42 -1 6 -3 12 -4 13 -1 1 -3 7 -5 13 l-4
12 5 5 c3 3 9 8 15 11 15 8 22 18 28 37 4 11 5 17 4 24 -1 4 -2 9 -1 9 0 1 -4
6 -8 10 -12 14 -24 16 -50 8 -11 -3 -24 -2 -30 2 -3 1 -10 8 -17 15 -18 20
-33 25 -72 25 -18 0 -34 -8 -42 -21 -6 -10 -6 -20 -2 -39 2 -7 3 -17 3 -23 0
-10 0 -10 -18 -27 -10 -9 -18 -18 -18 -19 0 -10 -14 8 -14 18 0 7 -2 22 -2 23
0 0 0 1 0 2 -1 0 -3 5 -5 10 -5 10 -12 17 -24 25 -11 6 -16 12 -20 23 -5 15
-5 23 0 31 8 14 13 23 12 23 -1 0 0 2 1 4 1 2 3 10 3 17 1 11 2 15 6 19 7 7
19 6 33 -2 13 -7 29 -8 35 -2 5 5 7 14 7 27 0 6 2 16 4 23 6 19 5 30 -3 47
-17 34 -3 47 37 33 9 -3 19 -6 21 -7 21 -3 29 -10 29 -24 0 -9 0 -11 -7 -16
-5 -4 -9 -7 -10 -7 -4 0 -15 -12 -19 -21 -6 -14 -6 -25 -1 -40 6 -18 9 -22 20
-27 16 -7 26 -6 50 6 21 11 35 14 42 8 4 -3 27 -2 29 2 0 1 1 2 2 1 2 -1 11
10 11 13 0 0 3 13 6 27 l7 25 -6 24 -6 24 6 24 c7 28 8 60 3 73 -4 9 -14 21
-18 21 -2 0 -3 1 -3 2 0 2 1 1 -28 4 -13 1 -25 2 -27 3 -7 1 -26 9 -23 9 2 0
3 2 3 8 0 8 -2 10 -12 19 -10 9 -11 11 -11 19 0 11 7 18 17 18 5 0 10 -1 12
-3 5 -3 12 -20 11 -26 -1 -9 0 -11 8 -13 4 -1 8 -1 8 0 0 0 3 1 6 1 12 1 17 5
20 13 6 16 5 21 -8 47 -6 13 -15 29 -20 35 -9 10 -19 26 -21 32 -11 28 -15 36
-44 79 -19 29 -25 33 -42 34 -13 0 -15 -1 -53 -27 -7 -5 -12 -8 -13 -8 -2 0
-33 -21 -33 -22 0 -3 -4 1 -9 8 -2 4 -3 10 -3 19 0 7 -1 16 -3 20 -4 9 -14 21
-18 21 -2 0 -3 1 -3 2 0 2 -2 2 -101 3 -81 1 -97 0 -104 -2z m55 -59 c5 -5 5
-11 0 -16 -10 -10 -27 5 -16 16 4 4 12 4 16 0z m273 -38 c4 -6 4 -24 -1 -30
-7 -9 -27 -9 -34 0 -5 6 -5 24 0 30 7 9 27 9 35 0z m-835 -55 c3 -3 4 -7 4
-14 0 -13 -6 -19 -19 -19 -13 0 -19 6 -19 19 0 7 1 11 4 14 7 8 23 8 30 0z
m-685 -26 c15 -5 21 -12 21 -22 0 -13 -7 -18 -21 -16 -6 0 -16 3 -22 6 -19 9
-26 22 -17 33 3 4 4 4 16 3 7 0 18 -2 23 -4z m262 -27 c10 -5 30 -12 38 -13 1
0 4 -1 6 -2 l4 -3 -4 -3 c-2 -2 -9 -3 -16 -3 -16 0 -27 -2 -35 -5 -9 -5 -22
-4 -28 2 -6 6 -6 21 0 28 8 8 16 8 35 -1z m1195 -61 l6 -13 -6 -5 c-4 -3 -8
-5 -11 -5 -8 -1 -9 -1 -11 -4 -2 -3 -2 -2 -2 1 0 2 -2 6 -5 9 -6 5 -6 6 -6 26
0 11 1 23 2 27 1 3 1 6 1 7 0 0 2 2 4 4 3 3 4 3 28 -47z m-744 31 c7 -2 9 -5
17 -22 4 -7 9 -17 12 -22 19 -29 18 -39 -5 -46 -21 -6 -24 -7 -22 -9 1 -1 2
-1 2 0 1 4 4 -11 4 -19 0 -6 2 -11 5 -16 13 -19 10 -44 -7 -51 -16 -6 -34 0
-45 16 -12 20 -36 25 -66 14 -20 -7 -26 -20 -19 -48 11 -41 -5 -60 -33 -42
-17 11 -19 12 -44 16 -20 3 -25 8 -25 24 0 10 1 12 6 17 5 6 7 6 18 6 16 -1
28 2 32 6 5 3 7 14 5 23 -1 9 -19 35 -27 42 -15 10 -25 11 -54 4 -12 -3 -22
-6 -24 -6 -37 -8 -96 -20 -101 -20 -3 -1 -15 -3 -27 -5 -24 -5 -23 -5 -55 -9
-13 -2 -26 -4 -28 -4 -2 0 -9 -1 -16 -2 -7 -1 -13 -2 -15 -2 -2 0 -8 -1 -14
-2 -6 -1 -17 -2 -25 -3 -8 -1 -20 -2 -26 -3 -7 -1 -14 -2 -16 -2 -3 -1 -6 1
-10 5 -5 5 -5 6 -5 35 l-1 30 7 6 c3 4 6 6 6 6 0 -1 4 1 8 3 7 4 19 20 15 20
-1 0 -1 1 1 2 1 2 2 5 2 7 0 3 1 5 3 6 1 0 1 1 -1 1 -5 0 -5 2 0 7 l5 5 4 -4
c6 -6 6 -8 2 -8 -3 0 -3 -1 -1 -1 1 -1 2 -3 2 -6 0 -2 1 -5 2 -7 2 -1 2 -2 1
-2 -4 0 8 -16 15 -20 8 -4 12 -4 200 -4 l193 0 9 -5 c4 -3 9 -5 11 -5 1 0 3
-1 4 -3 1 -2 7 -5 14 -8 l11 -5 14 5 c7 3 16 6 20 7 8 3 22 10 24 13 1 0 3 1
4 1 5 -1 4 31 -1 35 -6 5 -10 20 -7 31 2 10 7 15 16 19 6 3 19 2 26 -1z m659
-46 c3 -3 5 -9 6 -13 1 -7 1 -9 -3 -12 -6 -4 -20 -4 -25 0 -6 4 -6 22 0 26 6
5 18 4 22 -1z m-71 -9 c0 -1 -2 -3 -3 -5 -4 -4 -4 -4 -8 0 l-5 5 4 4 c4 5 5 5
8 2 2 -2 4 -5 4 -6z m-1269 2 c4 -4 5 -7 5 -13 0 -11 -7 -18 -18 -18 -11 0
-18 7 -18 18 0 11 7 18 18 18 6 0 9 -1 13 -5z m1390 -45 c3 -4 3 -4 0 -9 -5
-6 -8 -6 -13 -1 -5 5 -6 9 -2 11 5 4 11 4 15 -1z m221 -11 l-5 -5 -4 4 -5 5 4
4 5 5 4 -4 5 -5 -4 -4z m-478 -28 c3 -3 4 -7 4 -14 0 -13 -6 -19 -19 -19 -13
0 -19 6 -19 19 0 7 1 11 4 14 7 8 23 8 30 0z m-1220 -68 c6 -7 6 -22 -1 -28
-6 -7 -21 -7 -27 -2 -5 5 -6 27 0 32 7 6 21 5 28 -2z m134 -10 c12 -13 12 -16
3 -22 -9 -6 -27 4 -27 14 0 13 15 17 24 8z m77 -29 c2 -3 3 -8 3 -15 0 -13 -3
-17 -20 -25 -15 -9 -22 -19 -22 -35 0 -27 19 -46 46 -45 9 0 41 2 49 3 2 0 5
1 6 1 2 0 5 2 9 5 6 5 6 6 6 20 0 9 -1 15 -3 18 -2 2 -3 8 -3 14 0 9 1 12 5
16 10 10 35 5 42 -8 6 -13 3 -23 -10 -42 -9 -12 -13 -26 -10 -33 0 -2 1 -16 1
-32 l1 -29 -6 -6 -6 -6 -46 0 c-47 0 -57 -1 -57 -3 0 -1 -1 -2 -3 -2 -4 0 -14
-12 -18 -21 -3 -6 -3 -21 -3 -113 0 -75 1 -107 2 -113 3 -10 12 -23 19 -28 16
-12 20 -18 20 -32 0 -13 -3 -17 -15 -30 -13 -12 -24 -34 -23 -46 1 -9 6 -20
10 -25 3 -3 23 -11 36 -13 5 -1 18 -16 26 -29 13 -21 14 -31 7 -39 -9 -10 -26
-6 -37 9 -6 7 -7 8 -17 8 -17 0 -19 -1 -24 -12 -4 -10 -4 -14 -4 -57 0 -38 1
-48 3 -54 4 -9 14 -21 18 -21 2 0 3 -1 3 -2 0 -2 10 -3 57 -3 l46 0 6 -6 6 -6
-1 -102 0 -102 -6 -6 c-3 -4 -6 -6 -6 -6 -1 0 -9 0 -20 -1 -10 -1 -24 -2 -31
-3 -61 -5 -113 -11 -118 -13 -8 -3 -9 -3 -12 5 -3 7 -2 19 2 47 1 6 10 83 12
100 1 6 2 20 3 31 1 11 2 24 3 29 1 14 9 111 10 133 1 11 2 25 2 32 5 60 4 67
-11 94 -12 20 -12 28 1 48 12 17 16 31 18 57 1 9 2 103 2 207 1 105 2 193 2
197 1 4 2 6 5 6 3 0 4 1 4 10 0 5 -1 10 -2 11 -1 1 -2 5 -3 8 0 3 -1 8 -2 11
0 3 -1 8 -2 11 0 3 -2 9 -3 12 -3 8 -2 18 2 22 2 2 8 3 17 4 7 0 14 1 14 2 2
2 16 -3 20 -7z m966 -5 c3 -5 3 -5 0 -10 -3 -4 -6 -5 -12 -5 -4 0 -9 -1 -12
-3 -3 -2 -5 -3 -5 -2 0 0 -7 -3 -15 -7 -17 -9 -24 -10 -30 -4 -6 6 -6 15 -1
22 4 4 5 4 15 3 7 0 14 0 20 2 6 2 13 3 17 4 4 1 8 2 10 3 5 3 9 2 13 -3z
m179 -5 c5 -5 5 -15 0 -20 -9 -9 -24 -2 -24 10 0 8 6 14 14 14 3 0 8 -2 10 -4z
m-932 -32 c5 -3 8 -7 10 -15 2 -10 -1 -26 -6 -30 -9 -8 -32 -8 -40 1 -9 8 -9
32 0 41 6 6 26 8 36 3z m811 -34 c4 -4 5 -7 5 -17 1 -23 9 -38 28 -51 14 -10
16 -13 16 -24 0 -10 -3 -16 -14 -25 -8 -7 -16 -19 -17 -26 0 -3 -1 -6 -2 -7
-2 -3 7 -83 10 -97 2 -7 4 -12 5 -13 1 0 2 -1 2 -3 0 -5 27 -15 43 -15 11 0
17 -6 17 -17 0 -9 -6 -17 -14 -17 -8 0 -25 -6 -31 -10 -8 -6 -11 -14 -13 -33
-3 -19 -4 -21 -10 -16 -13 12 -28 12 -48 0 -8 -5 -16 -10 -16 -12 -2 -1 -2 -1
-2 0 0 1 -3 4 -6 5 -3 1 -7 5 -9 8 -6 7 -17 18 -27 25 -9 6 -12 11 -12 24 0
13 3 18 12 24 16 11 22 17 27 28 l5 11 0 126 -1 127 6 6 c6 6 6 6 23 5 16 0
18 -1 23 -6z m-596 -34 c2 -69 2 -78 -3 -88 -5 -10 -6 -10 -9 -6 -5 4 -7 4
-23 5 -11 1 -16 0 -34 -6 -23 -8 -32 -8 -47 -3 -12 4 -19 15 -19 30 0 11 -5
28 -11 36 -15 21 -17 25 -17 36 0 9 1 11 6 16 5 5 7 6 17 6 7 0 16 -1 20 -2
15 -4 34 -2 67 4 18 3 35 7 37 8 3 1 5 0 9 -4 6 -5 6 -6 7 -32z m392 2 c12 -4
45 -25 48 -29 4 -6 4 -31 1 -48 -3 -15 -8 -21 -19 -21 -11 0 -15 5 -20 22 -6
21 -12 31 -27 39 -12 8 -16 25 -7 34 5 5 15 7 24 3z m-266 -24 c6 -7 10 -26 6
-33 -4 -8 -9 -13 -16 -13 -5 -1 -7 -3 -13 -11 -3 -5 -9 -13 -13 -17 -6 -7 -7
-8 -17 -8 -14 0 -20 6 -20 19 0 11 3 16 15 28 5 4 11 12 15 17 11 18 16 22 28
22 8 0 11 -1 15 -4z m-681 -18 c5 -5 5 -15 0 -20 -9 -9 -24 -2 -24 10 0 8 6
14 14 14 3 0 8 -2 10 -4z m724 -38 c4 -6 4 -6 1 -11 -4 -5 -11 -7 -11 -3 0 1
-2 2 -4 3 -2 1 -4 2 -3 3 1 1 0 2 -1 3 -3 2 8 13 11 12 1 -1 4 -4 7 -7z m622
-2 c6 -6 5 -21 -1 -27 -11 -12 -31 -4 -31 13 0 10 5 16 15 18 9 1 12 1 17 -4z
m-1023 -51 c4 -4 5 -7 5 -15 0 -14 -6 -20 -20 -20 -14 0 -20 6 -20 20 0 14 6
20 20 20 8 0 11 -1 15 -5z m266 -22 c5 -2 11 -3 13 -3 1 0 5 -2 7 -4 9 -9 4
-23 -9 -27 -11 -3 -24 -10 -24 -13 0 -3 0 -3 -1 0 -1 2 -4 8 -6 14 -6 12 -6
17 1 31 4 8 5 10 7 8 1 -1 6 -4 12 -6z m-396 -7 c4 -6 4 -24 -1 -30 -7 -9 -27
-9 -34 0 -5 6 -5 24 0 30 7 9 27 9 35 0z m1226 -5 c3 -6 9 -16 14 -23 8 -12 9
-14 9 -25 0 -10 -1 -12 -6 -17 -3 -3 -7 -6 -9 -6 -11 -1 -17 0 -28 3 -13 3
-29 4 -42 1 -11 -2 -21 1 -25 6 -4 5 -5 22 -2 28 2 4 16 12 41 22 8 3 15 7 15
8 0 1 1 2 2 2 1 0 6 3 11 7 11 8 13 8 20 -6z m-1084 -94 c12 -7 14 -33 3 -43
-9 -9 -32 -9 -41 0 -8 10 -9 30 0 39 7 9 28 11 38 4z m308 -4 c7 -4 9 -10 10
-26 1 -13 1 -15 -4 -20 -5 -5 -7 -5 -20 -4 -15 1 -21 2 -21 5 0 3 -22 1 -27
-2 -3 -1 -5 -4 -6 -7 0 -6 0 -6 -1 0 0 4 -1 9 -2 12 -4 11 -4 19 0 32 2 10 4
12 5 9 1 -4 2 -4 14 -4 10 0 14 1 16 3 5 7 27 8 36 2z m-436 -5 c6 -6 7 -17 1
-22 -10 -9 -26 -2 -26 11 0 13 16 20 25 11z m781 -41 c4 -4 4 -6 3 -19 -1 -9
0 -23 1 -36 3 -26 2 -31 -10 -35 -10 -5 -46 -12 -54 -12 -11 1 -18 10 -19 22
0 12 6 21 20 32 13 9 16 14 28 35 3 6 7 12 10 14 6 5 15 5 21 -1z m456 -13 c7
-6 8 -16 5 -26 -2 -5 -2 -8 -2 -8 1 0 0 -2 -1 -5 -1 -3 -4 -13 -5 -22 -4 -16
-6 -20 -18 -33 -14 -15 -15 -25 -4 -46 13 -27 8 -42 -12 -42 -11 0 -14 2 -28
22 -16 24 -19 31 -19 40 0 12 2 14 19 24 17 10 27 21 30 32 3 8 0 24 -6 41 -4
12 -4 17 1 23 8 9 31 10 40 0z m-1188 -77 c1 -53 2 -72 3 -72 2 -1 2 -2 -1 -5
-1 -2 -4 -3 -4 -3 -1 1 -4 0 -6 -1 -2 -1 -4 -1 -5 0 -1 1 -6 3 -10 4 -10 3
-31 13 -35 17 -5 5 -5 17 0 22 2 2 9 6 16 9 27 13 30 19 30 65 0 19 0 34 0 35
0 1 2 1 6 1 l5 0 1 -72z m148 -2 l0 -74 -6 0 c-6 0 -6 0 -6 8 0 5 -1 9 -2 10
-2 1 -2 2 0 3 2 1 2 2 1 2 -2 0 -3 1 -3 2 0 1 -2 5 -4 7 -2 3 -4 5 -4 4 0 -1
-6 -2 -12 -2 l-13 1 0 7 0 7 13 1 c6 0 12 -1 12 -2 0 -1 2 1 4 4 2 2 4 6 4 7
0 1 1 2 3 2 1 0 1 1 -1 2 -2 1 -2 2 0 3 1 1 2 13 2 41 0 21 0 39 0 40 0 1 3 1
6 1 l6 0 0 -74z m172 -19 c1 -28 7 -86 19 -180 3 -25 15 -34 45 -35 10 0 16
-4 16 -10 0 -4 -7 -11 -12 -12 -8 -1 -20 -8 -25 -13 -9 -10 -10 -19 -4 -46 3
-14 6 -29 7 -35 3 -11 10 -29 15 -36 3 -3 7 -4 13 -5 5 0 11 -1 13 -2 4 -2 5
-1 7 3 2 2 3 4 4 5 1 1 4 7 8 13 7 16 12 19 26 19 9 0 11 -1 16 -6 5 -5 6 -7
6 -17 0 -16 -4 -20 -27 -26 -11 -2 -19 -4 -20 -4 0 1 -2 -2 -3 -5 -1 -3 -3 -6
-4 -6 -2 0 -12 -21 -15 -34 -3 -11 -9 -24 -9 -19 0 1 -1 1 -2 -1 -1 -1 -4 1
-11 9 -6 7 -11 13 -12 15 -2 1 -3 3 -3 4 0 3 -24 26 -31 30 -12 5 -19 15 -19
23 0 8 6 21 11 25 5 4 4 28 -1 34 -7 7 -22 6 -50 -2 -12 -3 -23 -6 -26 -7 -3
0 -6 -3 -7 -5 -1 -4 -8 -6 -24 -7 -21 -2 -45 -10 -45 -17 0 -3 0 -3 -1 0 -1 2
-3 6 -6 9 -3 4 -4 10 -5 20 -1 14 -1 14 5 20 l6 6 49 0 c50 0 60 1 60 3 0 1 1
2 3 2 4 0 14 12 18 21 4 11 4 148 0 154 -2 2 -2 4 -2 5 2 3 -12 7 -22 7 -5 0
-11 0 -11 2 -1 1 -2 1 -2 -1 0 -5 -10 -9 -21 -9 -19 0 -28 9 -28 28 0 19 9 28
28 28 11 0 21 -4 21 -9 0 -2 1 -2 2 -1 0 2 6 2 11 2 10 0 24 4 22 7 -1 0 0 3
2 5 2 3 3 12 3 28 0 13 1 24 1 25 0 0 3 -1 5 -2 4 -2 4 -2 4 12 0 8 0 14 1 14
0 -1 1 -12 1 -26z m-228 -1 c5 -5 5 -18 1 -23 -8 -9 -25 -1 -25 11 0 12 15 20
24 12z m801 -31 c5 -5 6 -7 6 -16 0 -12 -4 -17 -20 -25 -14 -7 -25 -17 -33
-32 -7 -12 -10 -14 -18 -15 -19 -2 -26 4 -26 20 0 14 3 18 16 24 5 3 10 6 10
7 0 0 1 1 2 1 4 0 15 13 22 24 9 17 14 20 28 19 4 -1 9 -3 13 -7z m-238 -35
c5 -8 1 -16 -8 -16 -9 0 -13 8 -8 16 2 3 5 5 8 5 3 0 6 -2 8 -5z m-609 -5 c14
1 22 -18 12 -29 -6 -6 -19 -7 -25 -1 -8 6 -13 18 -11 23 2 4 11 9 15 7 1 0 5
-1 9 0z m687 -19 c5 -8 1 -16 -8 -16 -9 0 -13 8 -8 16 2 3 5 5 8 5 3 0 6 -2 8
-5z m514 -35 c5 -4 2 -48 -4 -60 -6 -14 -17 -1 -17 22 0 10 5 27 9 32 1 2 3 6
5 9 2 4 3 5 4 3 0 -2 2 -4 3 -6z m-1044 -23 c10 -3 22 -6 27 -6 16 -3 24 -16
14 -26 -6 -6 -13 -6 -23 -2 -13 6 -16 7 -29 11 -7 2 -14 4 -16 4 -4 0 -10 8
-10 13 0 2 2 6 4 9 4 5 8 5 33 -3z m-185 -27 c5 -6 5 -12 0 -18 -7 -8 -22 -2
-22 9 0 11 15 17 22 9z m1328 -25 c7 -5 19 -12 25 -15 18 -9 21 -14 21 -25 0
-7 -1 -11 -4 -14 -7 -7 -15 -7 -42 2 -13 4 -27 7 -32 8 -11 2 -18 8 -20 19 -7
32 21 46 52 25z m-192 -13 c5 -6 5 -12 0 -18 -7 -8 -22 -2 -22 9 0 11 15 17
22 9z m-299 -102 c6 -6 6 -8 0 -14 -6 -5 -13 -5 -17 2 -2 5 -2 6 1 11 4 6 10
6 16 1z m54 -9 c3 -3 3 -3 0 -6 -1 -2 -3 -3 -4 -3 -1 0 -3 6 -2 9 1 2 2 3 2 3
1 0 3 -1 4 -3z m-648 -43 c6 -6 7 -17 1 -23 -6 -6 -17 -7 -23 -1 -6 5 -7 18
-2 22 2 1 3 4 3 5 0 5 16 2 21 -3z m325 -6 c4 -5 6 -20 3 -30 -2 -9 3 -18 12
-22 9 -4 14 -12 11 -18 -1 -2 -7 -6 -14 -9 -7 -3 -12 -7 -12 -7 0 -3 -7 -9
-13 -12 -5 -2 -8 -2 -11 0 -14 7 -16 17 -5 23 3 2 7 5 8 6 1 2 2 3 3 2 1 0 1
7 1 16 -1 18 -1 23 -3 22 0 -1 -3 1 -5 3 -7 6 -7 19 -1 25 6 7 20 7 26 1z
m-399 -83 c5 -14 9 -26 9 -27 0 -1 -2 -4 -5 -7 -7 -7 -15 -7 -21 -1 -6 5 -6 5
-6 29 0 26 2 36 7 41 4 3 4 3 5 -3 1 -3 6 -18 11 -32z m416 -44 c11 -5 16 -12
16 -23 0 -9 -1 -11 -7 -16 -13 -14 -37 -6 -38 12 -1 8 1 19 5 27 3 5 4 5 11 4
4 -1 10 -3 13 -4z m-269 -37 c5 -6 5 -12 0 -18 -7 -8 -22 -2 -22 9 0 11 15 17
22 9z m964 -82 c8 -9 2 -22 -9 -22 -10 0 -19 18 -11 21 2 1 4 2 4 3 0 4 13 2
16 -2z m-554 -11 c3 -3 4 -7 4 -14 0 -14 -4 -17 -34 -25 -32 -8 -46 -8 -53 -1
-6 4 -6 6 -6 20 0 25 4 26 57 26 25 -1 27 -1 32 -6z m589 -121 c4 -6 4 -24 -1
-30 -7 -9 -27 -9 -34 0 -5 6 -5 24 0 30 7 9 27 9 35 0z"/>
</g>
</svg>
