<?xml version="1.0" standalone="no"?>
<!DOCTYPE svg PUBLIC "-//W3C//DTD SVG 20010904//EN"
 "http://www.w3.org/TR/2001/REC-SVG-20010904/DTD/svg10.dtd">
<svg version="1.0" xmlns="http://www.w3.org/2000/svg"
 width="1000.000000pt" height="2850.000000pt" viewBox="0 0 1000.000000 2850.000000"
 preserveAspectRatio="xMidYMid meet">
<metadata>
Created by potrace 1.15, written by Peter Selinger 2001-2017
</metadata>
<g transform="translate(0.000000,2850.000000) scale(0.500000,-0.500000)"
fill="#000000" stroke="none">
<path d="M1090 3590 c-22 -3 -52 -9 -73 -16 -51 -17 -111 -55 -139 -86 -6 -7
-18 -19 -26 -28 -9 -8 -21 -22 -27 -30 -6 -8 -12 -17 -14 -19 -2 -2 -6 -8 -9
-14 -4 -5 -7 -11 -8 -13 -16 -26 -36 -66 -51 -104 -2 -5 -4 -11 -5 -14 -7 -16
-26 -77 -29 -92 0 -3 -2 -11 -4 -18 -4 -15 -14 -68 -16 -79 0 -4 -3 -20 -5
-34 -6 -40 -11 -93 -14 -152 -2 -31 -1 -190 1 -214 0 -8 1 -21 2 -30 2 -26 7
-70 11 -99 1 -7 3 -17 3 -21 1 -4 2 -10 4 -13 1 -3 2 -5 2 -6 0 -1 2 -4 3 -8
12 -24 12 -26 13 -51 0 -25 1 -29 12 -64 22 -67 67 -154 89 -174 5 -4 14 -10
20 -12 16 -7 21 -14 28 -37 3 -11 15 -24 36 -38 37 -28 55 -38 65 -37 15 1 19
3 32 17 12 14 13 14 23 14 13 0 20 -6 20 -16 0 -10 5 -30 10 -36 4 -6 17 -14
24 -15 8 -2 25 -2 31 0 10 2 16 10 20 25 1 6 2 13 1 13 -6 4 -3 28 5 34 8 8
32 8 40 0 3 -3 8 -22 6 -26 -2 -7 5 -27 12 -32 10 -7 27 -6 40 2 l10 6 1 15
c0 13 0 16 -3 19 -2 2 -8 9 -12 14 -4 6 -11 14 -15 18 -16 16 -20 32 -11 41 7
7 18 5 33 -6 9 -7 28 -8 40 -2 20 8 38 5 47 -8 8 -11 14 -15 28 -15 12 -1 17
0 17 3 0 1 1 4 3 5 1 2 5 11 8 21 7 22 9 25 25 33 13 7 21 14 30 27 4 6 5 9 5
19 0 11 -4 24 -8 25 -4 2 -9 14 -9 20 0 7 6 14 13 14 3 0 9 2 15 4 5 2 10 3
11 3 0 -1 5 3 10 7 7 8 9 12 14 26 7 22 8 33 4 55 -3 22 -3 26 10 52 12 24 13
32 12 104 -1 89 -11 155 -33 218 -11 30 -30 71 -43 90 -2 3 -5 7 -6 9 -11 18
-23 33 -45 54 l-14 14 -13 -1 c-12 0 -14 -1 -19 -6 -10 -11 -15 -32 -15 -62
-1 -25 -3 -36 -8 -38 -2 0 -3 -2 -3 -4 0 -2 -1 -3 -2 -3 -1 0 -2 -1 -1 -2 1
-2 1 -2 0 -2 -1 1 -3 1 -4 0 -3 -2 -31 10 -33 15 -5 9 -6 18 -3 31 3 13 5 46
2 50 -1 1 -1 6 0 11 1 7 3 11 9 17 8 7 8 8 8 20 0 7 -1 15 -2 18 -2 5 -3 6
-11 5 -12 -1 -16 -3 -30 -17 -12 -13 -20 -15 -27 -9 -4 2 -14 20 -14 23 0 9
-26 24 -38 21 -3 0 -9 -1 -14 -2 -21 -3 -48 -12 -73 -26 -11 -5 -32 -19 -38
-24 -1 -1 -4 -3 -5 -4 -2 -1 -10 -8 -19 -16 -13 -13 -16 -15 -24 -16 -13 -2
-15 -2 -22 0 -3 0 -14 1 -24 1 -17 0 -18 0 -23 6 -5 5 -6 7 -6 17 0 10 1 12 6
17 6 6 7 6 19 5 45 -4 52 1 57 42 1 12 3 24 3 26 1 2 2 13 4 23 2 11 3 21 4
22 0 2 1 6 2 11 3 20 20 74 32 97 25 52 64 77 117 76 19 0 33 -3 46 -8 13 -6
29 -6 46 1 30 12 44 4 47 -27 1 -10 4 -14 12 -15 6 -1 27 6 30 11 2 2 5 6 9
10 3 4 10 15 14 24 9 18 15 25 33 35 7 4 15 10 19 14 l7 7 0 24 c0 15 1 24 2
25 2 2 10 3 22 3 22 1 28 4 36 16 6 7 7 29 3 37 -4 6 -39 40 -56 53 -3 3 -8 7
-10 9 -11 8 -41 29 -46 30 -8 3 -13 4 -37 6 -13 1 -22 6 -28 15 -4 5 -5 6 -20
6 -16 1 -21 -1 -21 -8 0 -1 -1 -4 -2 -7 -2 -2 -3 -6 -3 -9 -2 -15 -11 -22 -27
-23 -12 0 -22 4 -25 12 -4 7 -5 24 -1 30 3 6 -1 26 -6 33 -7 11 -15 13 -55 13
-20 0 -43 0 -51 -1z m-10 -197 l-5 -5 -4 4 -5 5 4 4 5 5 4 -4 5 -5 -4 -4z
m118 2 c16 -3 20 -4 23 -8 3 -5 3 -5 0 -10 l-4 -5 -29 1 c-26 1 -29 2 -32 6
-5 5 -5 11 0 17 3 5 7 5 42 -1z m-269 -52 c5 -8 1 -16 -8 -16 -9 0 -13 8 -8
16 2 3 5 5 8 5 3 0 6 -2 8 -5z m-107 -130 c3 -3 4 -7 4 -14 0 -13 -6 -19 -19
-19 -13 0 -19 6 -19 19 0 7 1 11 4 14 7 8 23 8 30 0z m204 -336 c6 -7 6 -21 0
-28 -3 -3 -6 -5 -7 -5 -2 0 -5 -1 -7 -2 -1 -1 -7 -4 -13 -6 -5 -3 -13 -6 -16
-9 -16 -12 -30 -14 -38 -6 -6 6 -7 18 -1 25 1 2 10 7 17 11 8 4 18 11 23 15 8
9 11 9 26 10 10 0 12 -1 16 -5z m290 -74 c13 -7 17 -11 17 -23 0 -9 -1 -11 -7
-16 -13 -14 -38 -6 -38 12 -1 12 0 16 3 19 2 1 3 4 3 5 0 1 1 2 2 2 1 0 2 1 2
3 0 4 8 3 18 -2z m-411 -64 c4 -4 5 -7 5 -15 0 -14 -6 -20 -20 -20 -14 0 -20
6 -20 20 0 14 6 20 20 20 8 0 11 -1 15 -5z m216 -3 c24 -7 42 -26 52 -57 2 -5
8 -19 13 -30 13 -25 13 -29 9 -54 -1 -11 -3 -37 -4 -57 -1 -57 -10 -110 -22
-138 -4 -9 -3 -32 1 -40 1 -2 3 -9 3 -15 1 -10 1 -12 -3 -16 -7 -7 -18 -7 -32
1 -16 9 -35 16 -44 16 -9 0 -27 8 -37 16 -14 11 -37 16 -58 12 -20 -3 -37 -3
-49 1 -7 2 -12 4 -12 5 0 1 -4 2 -8 4 -10 2 -22 12 -22 18 0 4 5 11 10 12 3 0
18 -6 20 -8 6 -7 16 -9 29 -7 7 1 11 3 21 13 20 19 24 33 18 59 -5 21 -10 46
-11 56 -1 4 -2 10 -2 13 -1 2 -2 9 -2 15 -1 5 -2 11 -2 11 -3 4 -3 39 -1 49 5
24 25 66 41 85 15 18 35 32 52 36 11 2 31 2 40 0z m-222 -215 c4 -4 5 -7 5
-15 0 -14 -6 -20 -20 -20 -14 0 -20 6 -20 20 0 14 6 20 20 20 8 0 11 -1 15 -5z
m411 -135 c5 -5 6 -7 6 -17 0 -10 -1 -12 -6 -17 -5 -5 -7 -6 -17 -6 -10 0 -12
1 -17 6 -5 5 -6 7 -6 17 0 10 1 12 6 17 5 5 7 6 17 6 10 0 12 -1 17 -6z"/>
<path d="M398 3563 c-5 -2 -22 -11 -34 -17 -7 -4 -16 -7 -25 -8 -21 -3 -39
-10 -57 -20 -30 -17 -72 -37 -105 -49 -17 -6 -24 -11 -27 -20 -3 -10 -3 -28 0
-32 5 -6 3 -23 -4 -38 -7 -13 -7 -15 -7 -35 0 -27 -1 -28 -21 -28 -16 0 -29
-3 -44 -10 -5 -2 -10 -3 -11 -3 0 1 -2 0 -4 -1 -2 -1 -8 -3 -13 -6 -18 -8 -24
-19 -24 -46 0 -19 4 -32 11 -38 5 -4 25 -12 31 -12 2 0 13 -4 24 -9 l19 -10
62 0 62 0 6 -6 6 -6 -1 -74 c0 -91 0 -91 28 -101 6 -2 14 -4 18 -4 10 0 16 -7
16 -20 0 -12 -6 -20 -17 -20 -7 0 -25 -6 -32 -11 -3 -2 -7 -7 -9 -12 -4 -8 -4
-18 -4 -301 0 -329 -1 -305 15 -325 15 -18 15 -20 15 -33 0 -8 -2 -15 -4 -18
-4 -7 -12 -14 -13 -12 0 0 -3 -5 -6 -11 -6 -12 -6 -12 -7 -64 0 -44 0 -53 3
-60 4 -9 14 -21 18 -21 2 0 3 -1 3 -2 0 -3 13 -3 149 -3 136 0 149 0 149 3 0
1 1 2 3 2 4 0 14 12 18 21 3 7 3 18 2 85 -1 91 1 87 -22 86 -14 0 -15 0 -16 4
0 4 -1 4 -1 -1 0 -5 -2 -9 -10 -16 -9 -9 -22 -30 -22 -36 0 -1 -2 -5 -5 -8 -5
-5 -6 -6 -17 -6 -13 0 -30 6 -35 12 -5 4 -6 26 -3 33 2 2 8 8 13 11 17 12 19
14 28 26 12 15 17 18 29 18 13 0 20 -6 22 -15 1 -5 2 -6 2 -2 0 4 1 4 14 4 14
-1 15 0 19 5 l4 5 0 424 c0 344 0 425 -3 432 -5 18 -25 29 -56 30 -8 0 -14 9
-14 21 0 17 7 23 26 21 3 0 6 -1 7 -2 0 -1 6 -1 12 0 26 4 30 11 29 51 -1 24
-2 29 -5 36 -3 4 -6 13 -8 20 -3 11 -3 12 0 24 2 6 5 15 8 20 4 8 4 11 5 76 0
59 0 69 -3 76 -4 9 -14 21 -18 21 -2 0 -3 1 -3 2 0 1 -1 2 -2 2 -5 1 -161 2
-164 1z m135 -84 c3 -5 3 -5 0 -10 -2 -3 -5 -5 -7 -5 -2 0 -5 2 -7 5 -3 5 -3
5 0 10 2 3 5 5 7 5 2 0 5 -2 7 -5z m-226 -40 c4 -4 5 -7 5 -13 0 -11 -7 -18
-18 -18 -11 0 -18 7 -18 18 0 11 7 18 18 18 6 0 9 -1 13 -5z m167 -25 c5 -5 5
-15 0 -20 -9 -9 -24 -2 -24 10 0 8 6 14 14 14 3 0 8 -2 10 -4z m-103 -493 c6
-4 6 -6 6 -20 0 -14 0 -16 -6 -20 -8 -7 -28 -7 -36 0 -10 8 -10 31 0 40 8 7
28 7 36 0z m36 -109 c4 -6 4 -24 -1 -30 -7 -9 -27 -9 -34 0 -5 6 -5 24 0 30 7
9 27 9 35 0z m-87 -12 c5 -5 5 -11 0 -16 -10 -10 -27 5 -16 16 4 4 12 4 16 0z
m115 -89 c5 -8 1 -16 -8 -16 -9 0 -13 8 -8 16 2 3 5 5 8 5 3 0 6 -2 8 -5z
m-71 -153 c5 -5 6 -7 6 -17 0 -10 -1 -12 -6 -17 -5 -5 -7 -6 -17 -6 -10 0 -12
1 -17 6 -5 5 -6 7 -6 17 0 10 1 12 6 17 5 5 7 6 17 6 10 0 12 -1 17 -6z m-49
-339 c3 -5 3 -6 1 -11 -4 -7 -13 -8 -17 -2 -4 6 -4 9 1 14 5 5 11 5 15 -1z"/>
<path d="M52 3431 c-5 -2 -8 -4 -8 -5 0 -1 -1 -2 -2 -2 -8 0 -18 -18 -17 -29
0 -3 1 -7 1 -8 0 -9 24 -24 40 -26 3 0 10 -1 16 -2 11 -1 11 -1 16 5 5 5 5 7
4 13 -1 5 -2 12 -3 18 -3 27 -27 45 -47 36z"/>
<path d="M1732 2517 c-1 0 -6 -1 -11 -2 -26 -3 -45 -10 -56 -23 -19 -20 -21
-22 -33 -25 -6 -2 -12 -4 -13 -4 -32 -6 -75 -69 -87 -126 -6 -25 -7 -75 -2
-98 11 -56 45 -113 85 -142 4 -3 8 -6 9 -7 3 -3 14 -10 16 -10 1 0 3 -1 4 -3
4 -3 28 -14 42 -19 10 -3 23 -5 34 -4 12 0 21 25 14 38 -4 7 -1 22 6 41 3 10
6 23 7 30 2 18 6 23 18 23 15 0 20 -10 15 -29 -1 -4 -3 -21 -3 -38 0 -22 -1
-30 -3 -31 -1 0 -2 -1 -1 -2 1 -1 1 -5 2 -9 2 -11 6 -18 11 -20 14 -4 32 -1
59 12 12 6 37 21 39 23 1 1 3 3 5 4 8 5 24 21 33 32 5 6 9 11 10 12 4 3 15 21
22 36 18 37 24 63 25 102 0 53 -8 85 -26 96 -9 5 -25 6 -32 0 -7 -6 -21 -12
-27 -12 -5 0 -12 7 -12 13 0 4 6 19 8 19 2 0 -1 29 -3 32 -1 2 -7 7 -13 11 -9
5 -12 9 -13 13 -2 11 -6 23 -7 25 -1 2 -1 3 -2 7 0 4 -13 16 -20 20 -8 4 -31
11 -44 13 -9 2 -55 3 -56 2z m-11 -223 c7 -3 12 -13 12 -25 0 -19 -9 -28 -28
-28 -19 0 -28 9 -28 28 0 17 6 24 22 28 5 1 14 -1 22 -3z m-129 -16 c5 -5 5
-11 0 -16 -10 -10 -27 5 -16 16 4 4 12 4 16 0z"/>
</g>
</svg>
