<?xml version="1.0" standalone="no"?>
<!DOCTYPE svg PUBLIC "-//W3C//DTD SVG 20010904//EN"
 "http://www.w3.org/TR/2001/REC-SVG-20010904/DTD/svg10.dtd">
<svg version="1.0" xmlns="http://www.w3.org/2000/svg"
 width="1000.000000pt" height="2850.000000pt" viewBox="0 0 1000.000000 2850.000000"
 preserveAspectRatio="xMidYMid meet">
<metadata>
Created by potrace 1.15, written by Peter Selinger 2001-2017
</metadata>
<g transform="translate(0.000000,2850.000000) scale(0.500000,-0.500000)"
fill="#000000" stroke="none">
<path d="M151 3692 c-28 -2 -39 -8 -46 -25 -2 -6 -3 -16 -3 -53 l0 -45 7 -22
c4 -11 7 -22 7 -24 0 -2 -3 -13 -7 -24 -7 -21 -7 -23 -7 -49 0 -21 1 -29 3
-35 4 -9 14 -21 18 -21 2 0 3 -1 3 -2 0 -1 1 -2 3 -2 1 0 62 -1 135 -1 130 -1
133 -1 145 3 12 4 29 13 39 21 2 2 8 7 12 10 10 9 19 13 29 13 11 0 17 -5 22
-18 2 -4 4 -7 5 -8 0 -1 3 -3 4 -6 2 -3 9 -8 15 -11 l11 -5 55 0 56 1 11 5 c6
4 15 9 21 12 13 8 23 8 36 0 25 -15 30 -17 55 -17 22 0 23 0 29 -6 5 -5 6 -7
6 -18 0 -22 9 -32 43 -49 11 -5 11 -37 0 -42 -22 -11 -32 -19 -37 -28 l-6 -9
0 -214 0 -214 -6 -6 -6 -6 -112 1 -112 0 -5 5 c-3 3 -6 6 -5 7 0 0 1 8 2 16 1
8 2 17 2 19 2 10 29 289 34 353 0 7 1 20 2 28 2 20 -2 33 -13 43 -10 8 -18 10
-44 12 -12 1 -27 2 -34 2 -7 0 -23 1 -35 2 -12 1 -27 2 -33 2 -6 0 -22 1 -36
2 -14 1 -29 2 -33 2 -34 3 -51 0 -67 -12 -21 -18 -36 -37 -39 -51 0 -3 -1 -5
-1 -5 0 0 -1 -5 -1 -12 -2 -26 -9 -115 -10 -125 -1 -6 -2 -21 -3 -33 -1 -12
-3 -27 -3 -34 -1 -14 -10 -105 -12 -119 -5 -49 -14 -124 -18 -156 -3 -21 -6
-52 -7 -68 -1 -16 -2 -31 -3 -33 -2 -8 -3 -11 -6 -23 -4 -14 0 -28 12 -44 11
-15 13 -18 13 -27 0 -8 -8 -19 -15 -19 -2 0 -3 -1 -2 -1 2 -1 3 -7 3 -18 0
-16 0 -16 5 -19 4 -1 75 -2 278 -2 l272 0 16 5 c21 7 32 7 53 0 l17 -5 168 0
168 1 10 5 c6 3 12 7 13 8 6 6 19 12 25 12 6 0 19 -6 25 -12 1 -1 7 -5 13 -8
l10 -5 106 -1 106 0 6 -6 c4 -3 6 -6 5 -6 -1 0 -2 -2 -2 -4 0 -7 -10 -60 -18
-95 -17 -74 -41 -138 -62 -160 -12 -13 -31 -22 -61 -27 -20 -4 -309 -3 -347 1
-20 2 -76 3 -83 1 -17 -4 -38 -8 -45 -8 -4 0 -13 3 -22 7 -19 10 -32 11 -45 5
-5 -2 -9 -5 -9 -6 0 -1 0 -8 0 -15 0 -13 0 -14 6 -16 3 -2 6 -2 6 -2 0 1 2 0
4 -1 2 -1 12 -2 22 -3 20 0 25 -3 32 -18 3 -5 5 -9 6 -9 1 0 2 -1 2 -2 0 -1 3
-6 6 -11 18 -27 18 -34 2 -52 -10 -11 -12 -15 -14 -24 -2 -10 -2 -12 6 -35 4
-13 10 -32 12 -42 2 -11 6 -24 7 -31 5 -20 15 -31 33 -37 11 -4 56 -5 227 -5
234 0 312 7 386 35 21 8 65 31 65 35 0 0 1 1 2 1 2 0 20 13 33 24 13 11 44 44
50 52 3 5 7 9 7 10 3 2 22 36 30 52 5 9 9 19 10 21 8 14 31 82 39 115 1 1 3
12 6 23 8 33 26 126 30 152 1 8 2 18 6 41 1 4 2 15 2 25 l2 18 -10 20 c-8 16
-10 22 -10 30 0 12 2 15 14 27 5 5 9 10 9 11 0 1 1 4 3 5 3 3 10 20 10 29 1 6
3 26 11 84 2 17 4 38 5 48 1 17 1 19 -4 29 -5 9 -8 12 -17 17 l-11 5 -341 0
-341 -1 -6 6 c-7 7 -7 10 -7 78 0 54 0 57 7 64 l6 6 142 -1 c121 0 144 0 155
3 17 4 39 4 55 0 7 -2 21 -3 33 -3 26 0 34 3 49 19 17 18 19 18 37 -1 18 -18
20 -18 78 -17 52 1 54 1 54 3 0 1 1 2 3 2 4 0 14 12 18 21 3 7 3 17 3 72 l-1
64 -7 14 c-3 7 -7 13 -8 13 -4 0 -12 17 -12 25 0 8 8 25 12 25 3 0 12 20 12
28 0 6 -2 10 -7 16 -4 4 -9 8 -10 8 -2 0 -3 1 -3 2 0 0 -2 2 -5 2 -4 1 -139 1
-302 1 l-296 0 -6 6 c-3 3 -6 7 -6 7 1 1 1 30 1 66 1 70 2 87 10 95 8 8 16 7
25 -4 5 -6 11 -13 15 -16 14 -14 -11 -13 346 -12 178 0 324 1 326 1 1 0 2 1 2
2 0 1 1 2 3 2 4 0 14 12 18 21 5 11 5 241 0 252 -4 9 -14 21 -18 21 -2 0 -3 1
-3 2 0 0 -2 2 -5 2 -5 1 -516 1 -557 0 -8 0 -270 0 -581 1 -311 0 -575 0 -586
-1z m1182 -44 c7 -9 7 -27 0 -35 -9 -11 -32 -10 -40 1 -5 8 -4 26 2 34 5 6 6
6 19 6 13 0 14 0 19 -6z m52 -84 c4 -4 7 -9 7 -10 0 -1 5 -7 11 -13 16 -18 17
-20 17 -34 0 -10 -1 -12 -6 -17 -3 -3 -7 -6 -9 -6 -19 -1 -28 2 -31 11 -8 20
-19 53 -20 60 -1 10 6 17 16 17 6 0 9 -1 15 -8z m-354 -116 c4 -6 4 -24 -1
-30 -7 -9 -27 -9 -34 0 -5 6 -5 24 0 30 7 9 27 9 35 0z m-131 -235 c16 -7 20
-37 7 -48 -12 -11 -34 -11 -43 0 -9 10 -9 32 0 42 7 8 24 11 36 6z m247 -23
c2 -3 3 -6 3 -8 0 -3 -9 -13 -18 -21 -6 -5 -11 -13 -17 -26 -8 -17 -9 -18 -31
-28 -22 -10 -37 -15 -45 -15 -9 0 -15 7 -15 16 0 10 4 16 18 32 6 6 14 14 17
18 6 7 13 10 23 11 4 0 11 2 15 4 5 1 9 2 9 2 1 -1 3 1 5 3 2 2 5 4 6 4 2 0 3
1 3 2 0 3 14 10 19 10 3 0 6 -2 8 -4z m572 -84 c4 -6 4 -24 -1 -30 -7 -9 -27
-9 -34 0 -5 6 -5 24 0 30 7 9 27 9 35 0z m-255 -20 c5 -5 5 -15 0 -20 -9 -9
-24 -2 -24 10 0 8 6 14 14 14 3 0 8 -2 10 -4z m-1083 -99 c5 -8 1 -16 -8 -16
-9 0 -13 8 -8 16 2 3 5 5 8 5 3 0 6 -2 8 -5z m528 -27 c10 -9 3 -26 -10 -26
-8 0 -15 7 -15 15 0 13 16 20 25 11z m-388 -196 c4 -6 4 -24 -1 -30 -7 -9 -27
-9 -34 0 -5 6 -5 24 0 30 7 9 27 9 35 0z m1113 -18 c5 -6 5 -12 0 -18 -7 -8
-22 -2 -22 9 0 11 15 17 22 9z m-99 -4 c7 -6 7 -19 1 -25 -6 -7 -19 -7 -25 -1
-7 6 -7 19 -1 25 6 7 19 7 25 1z m182 0 c7 -6 7 -19 1 -25 -6 -7 -19 -7 -25
-1 -7 6 -7 19 -1 25 6 7 19 7 25 1z m-607 -44 c5 -6 5 -12 0 -18 -7 -8 -22 -2
-22 9 0 11 15 17 22 9z m331 -12 c4 -6 4 -24 -1 -30 -7 -9 -27 -9 -34 0 -5 6
-5 24 0 30 7 9 27 9 35 0z m-138 -67 c6 -4 6 -6 6 -20 0 -14 0 -16 -6 -20 -4
-4 -7 -5 -18 -5 -11 0 -14 1 -18 5 -6 4 -6 6 -6 20 0 14 0 16 6 20 4 4 7 5 18
5 11 0 14 -1 18 -5z m-199 -65 c5 -6 5 -12 0 -18 -7 -8 -22 -2 -22 9 0 11 15
17 22 9z m478 -38 c5 -5 5 -11 0 -16 -10 -10 -27 5 -16 16 4 4 12 4 16 0z
m102 -195 c16 -7 20 -37 7 -48 -15 -14 -31 -11 -62 10 -18 13 -21 18 -16 26 4
5 6 6 41 13 11 2 23 1 30 -1z m-141 -138 c4 -4 5 -7 5 -13 0 -11 -7 -18 -18
-18 -11 0 -18 7 -18 18 0 11 7 18 18 18 6 0 9 -1 13 -5z m103 -69 c5 -5 5 -11
0 -16 -10 -10 -27 5 -16 16 4 4 12 4 16 0z m-572 -3 c16 -7 20 -37 7 -48 -12
-11 -34 -11 -43 0 -9 10 -9 32 0 42 7 8 24 11 36 6z m372 -107 c5 -6 5 -12 0
-18 -7 -8 -22 -2 -22 9 0 11 15 17 22 9z"/>
</g>
</svg>
