<?xml version="1.0" standalone="no"?>
<!DOCTYPE svg PUBLIC "-//W3C//DTD SVG 20010904//EN"
 "http://www.w3.org/TR/2001/REC-SVG-20010904/DTD/svg10.dtd">
<svg version="1.0" xmlns="http://www.w3.org/2000/svg"
 width="1100.000000pt" height="2850.000000pt" viewBox="0 0 1100.000000 2850.000000"
 preserveAspectRatio="xMidYMid meet">
<metadata>
Created by potrace 1.15, written by Peter Selinger 2001-2017
</metadata>
<g transform="translate(0.000000,2850.000000) scale(0.500000,-0.500000)"
fill="#000000" stroke="none">
<path d="M941 3778 c-2 -1 -5 -1 -5 -1 -1 1 -2 0 -2 -1 0 -1 -2 -2 -5 -3 -4
-1 -5 -2 -5 -17 l-1 -16 9 -4 c10 -5 17 -5 30 0 6 2 13 4 16 4 4 0 4 1 1 1 -4
1 -4 2 -3 15 l1 13 -7 5 c-7 6 -21 7 -29 4z"/>
<path d="M1025 3773 c-7 -6 -7 -7 -7 -19 0 -7 -1 -12 -2 -13 -2 0 -2 -1 0 -1
9 0 12 -23 4 -39 -3 -7 -10 -16 -23 -29 -10 -10 -20 -20 -20 -23 -1 -3 -3 -5
-4 -6 -2 0 -3 -2 -3 -4 0 -2 -1 -3 -2 -3 -1 0 -2 -1 -2 -3 0 -7 -3 -2 -8 13
-2 8 -5 18 -6 22 -2 7 -7 9 -13 6 -1 -1 -6 -3 -10 -4 -5 -1 -10 -4 -13 -7 l-5
-5 -1 -105 c0 -71 1 -107 2 -113 3 -11 10 -22 20 -29 10 -7 26 -4 43 7 16 10
33 11 42 3 6 -4 6 -6 6 -20 0 -17 -3 -21 -15 -25 -11 -4 -28 -12 -35 -17 -6
-5 -13 -8 -33 -16 -7 -3 -15 -8 -18 -10 -11 -11 -12 -14 -12 -131 0 -59 0
-108 1 -110 3 -5 13 -36 13 -41 0 -14 -18 -20 -28 -10 -4 4 -6 19 -2 19 1 0 1
2 0 5 -1 2 -3 8 -4 14 -3 11 -11 18 -21 20 -13 3 -86 0 -87 -3 0 -1 -3 1 -6 6
l-6 9 0 57 c0 51 0 58 -4 65 -6 14 -19 20 -40 22 -21 2 -29 9 -29 28 0 19 8
26 29 28 20 2 33 8 39 19 7 13 2 25 -16 43 -15 15 -16 18 -7 41 3 9 3 14 3 25
-3 35 -2 40 4 48 22 29 21 20 21 146 0 95 0 110 -3 116 -4 9 -14 21 -18 21 -2
0 -3 1 -3 2 0 2 -8 3 -26 3 -14 0 -16 -1 -23 -6 -8 -6 -14 -22 -13 -36 0 -7
-2 -13 -9 -25 -6 -12 -9 -22 -11 -32 -5 -28 -9 -32 -35 -30 -2 0 -6 3 -9 6 -5
5 -6 7 -6 17 0 13 2 17 16 31 6 5 12 15 16 23 l7 14 -3 13 c-4 14 -7 18 -17
23 -6 3 -24 3 -150 3 l-143 0 -25 -7 -25 -7 -15 4 c-33 9 -45 2 -48 -30 -2
-14 -7 -20 -17 -20 -10 0 -15 6 -17 20 -2 26 -16 41 -35 39 -5 -1 -10 -1 -11
-1 -2 -1 -3 -1 -3 -2 0 -1 -1 -2 -3 -2 -4 0 -14 -12 -18 -21 -5 -11 -5 -231 0
-242 4 -9 14 -21 18 -21 2 0 3 -1 3 -2 0 -2 2 -2 94 -3 l88 -1 13 6 c9 4 15 9
23 18 9 10 13 12 22 15 48 13 63 22 81 46 12 15 14 35 6 52 -9 18 -1 33 16 33
13 0 19 -6 19 -18 -2 -36 -1 -45 5 -54 6 -10 9 -27 5 -36 -1 -3 -6 -9 -12 -13
-25 -19 -34 -31 -38 -54 -4 -25 -2 -44 7 -54 5 -6 16 -13 19 -13 3 0 10 -8 10
-12 0 -4 -7 -12 -10 -12 -3 0 -14 -7 -19 -13 -6 -7 -9 -17 -9 -28 1 -8 0 -10
-5 -16 -6 -6 -6 -6 -23 -5 -30 1 -47 -9 -52 -31 -1 -6 -2 -16 -1 -20 3 -21 -8
-35 -28 -36 -22 -1 -34 15 -29 39 5 21 -1 38 -16 44 -10 4 -13 4 -60 4 l-49
-1 -9 -5 c-17 -11 -22 -23 -23 -65 0 -30 0 -30 6 -39 5 -8 25 -20 33 -20 6 0
12 -9 12 -16 0 -9 -7 -16 -15 -16 -6 0 -25 -7 -32 -12 -6 -5 -11 -17 -12 -26
-1 -4 -2 -25 -4 -48 -2 -23 -4 -45 -4 -50 0 -5 -1 -16 -2 -24 -1 -8 -2 -17 -2
-20 0 -2 -1 -13 -2 -24 -1 -10 -2 -24 -3 -31 -1 -7 -3 -26 -5 -44 -4 -42 -17
-158 -24 -205 -2 -21 -1 -30 6 -43 3 -7 3 -7 17 -7 10 0 15 1 18 4 9 7 20 10
30 9 27 -3 43 -12 35 -21 -2 -3 -7 -4 -21 -4 -23 -1 -27 -4 -49 -29 -7 -9 -11
-11 -16 -11 -3 0 -5 -1 -3 -1 2 -1 3 -4 3 -16 0 -21 -1 -21 16 -22 8 0 76 -1
152 -2 l137 -1 7 -5 c3 -3 7 -5 9 -5 1 0 2 -1 1 -2 -2 -3 13 -15 28 -23 8 -4
15 -9 17 -11 21 -24 26 -32 26 -46 0 -9 -1 -11 -6 -16 -9 -9 -31 -8 -38 3 -1
1 -12 2 -27 1 -4 0 -14 -9 -14 -12 0 -2 -2 -13 -3 -25 -15 -138 -29 -192 -54
-210 -16 -11 -23 -37 -14 -52 11 -20 22 -41 22 -44 0 -1 -2 -4 -4 -7 -5 -5
-10 -5 -19 2 -4 3 -13 10 -21 15 -15 11 -20 18 -20 27 0 9 -5 27 -9 33 -8 12
-29 17 -43 11 -12 -5 -19 -14 -24 -29 -3 -8 -6 -17 -7 -20 -2 -7 -12 -12 -24
-12 -18 0 -25 7 -28 26 -5 38 -45 57 -68 33 -4 -5 -7 -27 -4 -32 15 -22 43
-92 54 -134 4 -17 9 -26 14 -26 21 -1 29 0 34 4 9 9 28 9 36 0 3 -5 4 -22 1
-28 -5 -9 -19 -11 -32 -6 -7 3 -21 2 -28 -2 -3 -3 -3 -3 -1 -11 3 -11 8 -21 9
-21 1 0 3 -1 4 -2 10 -10 13 -10 69 -9 134 2 147 3 156 11 10 9 15 14 20 25 7
13 8 13 31 24 8 3 18 9 21 11 12 10 18 13 27 13 11 0 16 -4 25 -16 13 -17 30
-21 46 -11 18 10 23 28 15 52 -5 13 -3 23 4 31 5 5 6 5 26 6 36 0 42 6 57 55
3 10 3 12 0 18 -3 7 -5 7 -19 8 -10 0 -22 -4 -25 -8 -2 -3 -13 -2 -16 1 -6 6
-7 12 -3 19 5 7 10 12 12 11 1 0 4 1 7 4 3 3 5 5 4 5 -1 0 0 2 2 4 2 2 7 9 11
15 6 10 9 13 20 18 6 3 12 7 12 8 0 0 1 1 3 1 3 0 9 7 15 17 4 9 9 43 16 107
5 47 5 57 2 67 l-3 7 -16 0 c-16 1 -17 1 -20 -5 -9 -14 -23 -19 -31 -11 -8 8
-5 16 8 30 17 17 20 26 12 46 -7 16 -7 22 -2 28 7 8 19 4 22 -7 1 -6 1 -6 17
-5 24 0 25 1 25 12 0 5 1 12 1 16 0 4 1 19 2 33 1 15 2 31 2 36 0 6 1 20 2 33
1 13 1 28 2 35 1 7 1 23 2 37 1 14 2 28 2 31 1 4 0 12 -2 18 -4 12 -8 15 -25
15 -9 1 -10 0 -13 -5 -2 -3 -3 -8 -4 -10 0 -3 -1 -6 -2 -7 -1 -2 -2 -9 -2 -16
-1 -18 -6 -34 -12 -41 -6 -7 -21 -8 -28 0 -9 8 -5 31 8 44 2 2 3 7 3 15 0 11
-1 15 -12 33 -3 4 -6 13 -7 18 -1 11 -7 26 -13 32 -3 3 -9 6 -14 7 -10 2 -11
2 -16 -3 -5 -5 -6 -9 -8 -20 -1 -7 -1 -13 0 -13 4 -2 6 -18 4 -26 -2 -11 -7
-16 -18 -18 -17 -4 -31 3 -34 18 -2 8 0 24 4 26 3 1 -2 26 -5 31 -8 8 -13 9
-80 9 l-63 0 -7 6 c-3 3 -6 7 -5 8 0 5 -5 18 -8 18 -1 0 -2 1 -2 3 0 2 -1 3
-2 2 -1 -1 -2 -1 -2 0 0 1 -6 2 -12 2 l-13 0 -8 -14 c-9 -14 -10 -16 -16 -21
-4 -3 -11 -2 -15 2 -2 2 -3 7 -4 19 0 16 -1 30 -3 39 -1 6 2 20 7 25 9 10 28
11 44 1 5 -3 22 -3 30 0 10 4 13 13 16 41 5 60 10 96 12 106 6 21 22 19 32 -4
11 -23 36 -31 62 -20 7 3 16 8 19 11 19 17 38 16 54 -2 2 -2 9 -6 17 -9 13 -5
13 -5 61 -5 38 1 48 2 49 4 0 1 3 -1 6 -6 l6 -9 0 -91 c0 -50 1 -92 1 -93 1 0
2 -3 2 -6 1 -8 5 -15 8 -15 2 0 3 -1 3 -2 0 -1 4 -3 9 -5 7 -3 16 -3 64 -3
l56 1 6 -6 6 -6 -1 -253 c-1 -271 -1 -259 -11 -289 -4 -12 -4 -22 0 -32 3 -6
7 -11 20 -23 3 -3 8 -9 10 -13 2 -5 5 -8 5 -9 4 -3 15 -30 16 -38 0 -8 0 -10
-5 -15 -8 -8 -21 -6 -43 8 -4 3 -11 6 -14 8 -3 1 -12 7 -20 13 -12 9 -16 11
-26 12 -15 2 -19 0 -24 -10 -7 -16 -6 -25 7 -45 12 -19 12 -18 33 -61 17 -34
28 -60 41 -97 14 -40 18 -45 40 -46 9 0 12 1 30 12 17 11 54 29 86 44 28 13
53 24 81 36 17 7 34 15 37 16 3 2 12 5 19 8 7 3 14 6 15 7 1 1 3 2 4 2 2 0 8
2 13 5 31 13 134 57 135 57 1 0 6 2 11 5 6 2 16 7 22 9 18 8 30 16 34 23 6 10
10 26 8 37 -1 5 -2 16 -3 24 -1 8 -2 20 -2 25 -1 13 -2 29 -4 68 -2 46 -5 53
-28 66 -5 3 -12 8 -13 10 -4 4 -5 13 -2 16 2 3 -5 23 -9 27 -9 6 -27 2 -77
-17 -26 -10 -49 -19 -52 -20 -8 -6 -22 0 -21 8 0 1 1 6 2 11 3 27 3 55 -1 73
-5 23 -5 28 0 52 4 19 4 21 4 152 l-1 134 6 6 6 6 28 -1 c27 -1 29 -1 34 -6 3
-3 6 -7 6 -9 0 -2 1 -6 2 -8 0 -2 2 -12 5 -22 5 -22 10 -40 28 -105 12 -43 15
-49 20 -54 4 -4 6 -8 5 -9 0 -2 0 -3 1 -3 0 0 1 -3 1 -6 1 -12 7 -25 15 -34 7
-8 8 -8 20 -9 20 -1 25 1 27 10 3 22 1 27 -15 34 -11 5 -18 10 -20 16 -3 7 2
24 10 37 7 11 14 31 14 40 0 6 6 14 10 14 5 0 9 -9 9 -22 1 -15 2 -23 5 -30 6
-13 8 -18 12 -31 2 -7 4 -15 4 -17 0 -2 1 -4 2 -4 0 1 7 -2 15 -6 7 -3 15 -6
16 -6 1 0 4 -2 7 -5 6 -7 6 -21 0 -29 -10 -12 -31 -28 -51 -37 -11 -6 -21 -12
-22 -14 -5 -7 -6 -25 -3 -37 1 -5 3 -17 4 -27 1 -11 3 -22 5 -25 2 -4 3 -7 3
-9 0 -2 50 -103 60 -121 5 -8 11 -19 15 -25 3 -5 7 -13 9 -16 8 -14 16 -27 20
-33 2 -3 8 -12 13 -20 6 -8 11 -16 11 -17 1 -1 9 -12 18 -24 9 -12 17 -23 19
-25 1 -2 6 -7 10 -13 4 -5 8 -10 9 -11 1 -1 3 -4 6 -7 2 -3 10 -12 17 -20 34
-39 37 -41 72 -44 7 -1 14 -3 16 -4 5 -3 9 -14 9 -21 0 -9 9 -30 15 -38 14
-15 30 -19 46 -12 7 3 11 8 24 26 15 22 34 48 41 57 35 42 56 67 69 80 17 17
19 29 10 52 -5 12 -5 15 -4 25 7 47 -11 65 -53 55 -14 -3 -24 -2 -33 5 -8 5
-34 5 -45 -1 -9 -4 -13 -3 -16 4 -4 7 2 16 10 14 16 -4 37 4 45 17 4 5 5 8 4
19 -1 15 -1 16 -28 50 -11 14 -24 32 -29 39 -5 7 -10 13 -10 14 -1 1 -8 11
-15 23 -18 29 -18 29 -23 38 -3 4 -6 9 -7 11 -1 2 -8 13 -14 26 -9 18 -15 27
-27 39 -22 24 -23 26 -28 58 -4 32 -9 44 -24 59 -16 15 -16 17 -16 44 l0 25
-11 37 -12 37 4 5 c5 5 7 5 32 6 27 1 30 2 34 5 1 1 5 3 8 5 4 2 10 8 13 14
15 22 33 22 48 -1 13 -19 36 -23 64 -11 8 3 18 7 21 8 3 1 7 3 8 4 6 5 20 3
29 -4 22 -15 27 -17 40 -17 6 -1 12 0 12 1 0 1 1 2 3 2 4 0 14 12 18 21 5 11
5 234 0 247 -3 9 -14 22 -18 22 -2 0 -3 1 -3 2 0 3 -14 3 -166 3 -146 0 -155
0 -162 -4 -11 -5 -16 -8 -19 -11 -13 -11 -32 -14 -46 -6 -5 2 -9 5 -10 6 -1 1
-3 3 -6 4 -10 5 -16 10 -19 16 -4 7 -4 7 0 8 9 4 16 20 17 41 2 24 3 24 30 24
17 0 23 1 28 3 3 2 22 20 41 39 57 58 77 79 85 94 16 29 15 28 36 44 11 9 17
15 29 32 2 2 10 12 18 22 8 10 18 23 22 29 20 29 27 39 28 40 1 1 4 5 7 10 3
5 7 9 8 10 0 0 1 1 1 2 0 1 6 11 13 21 11 17 47 74 47 76 0 0 3 6 7 12 7 12
10 30 6 34 -1 1 -2 2 -2 3 0 4 -6 10 -14 14 -14 8 -61 20 -81 21 -22 1 -30 4
-47 12 -18 10 -27 13 -79 27 -55 15 -62 15 -78 1 -6 -6 -24 -33 -24 -36 0 -1
-3 -6 -7 -12 -27 -42 -38 -58 -39 -59 -1 -1 -4 -5 -8 -11 -6 -9 -24 -33 -26
-35 -1 -1 -6 -8 -13 -16 -25 -32 -48 -57 -89 -99 -45 -45 -44 -43 -42 -83 0
-9 0 -15 -3 -19 -6 -12 -22 -15 -42 -8 -15 5 -29 4 -41 -4 -39 -24 -41 -28
-39 -48 1 -11 1 -12 32 -37 10 -8 19 -16 21 -18 2 -2 7 -2 18 -2 19 1 23 4 32
26 11 26 16 36 19 36 1 0 3 1 3 2 1 3 22 4 28 1 14 -5 20 -20 16 -36 -2 -8 -6
-13 -23 -30 -24 -23 -28 -31 -26 -48 l0 -11 33 -33 c35 -34 35 -34 24 -40 -2
-1 -43 -2 -92 -3 l-89 -1 -6 6 -6 6 1 82 c1 46 2 83 3 85 2 3 1 42 -1 45 0 1
-1 40 -2 87 -1 99 0 94 -22 116 -12 11 -14 15 -15 28 -1 14 -2 17 -8 34 -3 8
-8 21 -10 29 -12 31 -16 51 -14 72 1 21 3 28 14 38 7 6 10 14 9 25 0 10 -1 12
-7 17 -12 10 -20 11 -84 11 l-59 0 -7 -7z m48 -150 c3 -3 3 -3 0 -6 -4 -5 -11
1 -7 6 4 4 4 4 7 0z m-84 -27 c6 -11 1 -22 -10 -22 -9 0 -18 15 -11 19 1 0 2
4 3 8 1 4 2 7 4 8 2 0 9 -5 14 -13z m608 -64 c11 -10 3 -28 -11 -28 -9 0 -16
6 -16 16 0 14 17 22 27 12z m-7 -99 c3 -3 4 -7 4 -14 0 -13 -6 -19 -19 -19
-13 0 -19 6 -19 19 0 7 1 11 4 14 7 8 23 8 30 0z m-135 -42 c3 -5 3 -5 0 -10
-2 -3 -5 -5 -7 -5 -2 0 -5 2 -7 5 -3 5 -3 5 0 10 2 3 5 5 7 5 2 0 5 -2 7 -5z
m-417 -71 c5 -5 5 -15 0 -20 -9 -9 -24 -2 -24 10 0 8 6 14 14 14 3 0 8 -2 10
-4z m-41 -126 c10 -9 3 -26 -10 -26 -8 0 -15 7 -15 15 0 13 16 20 25 11z m899
-144 c11 -7 13 -31 3 -41 -8 -10 -32 -11 -41 -1 -9 8 -9 32 0 41 7 7 28 8 38
1z m-1575 -18 c11 -10 3 -28 -11 -28 -9 0 -16 6 -16 16 0 14 17 22 27 12z
m1004 -39 c5 -8 1 -16 -8 -16 -9 0 -13 8 -8 16 2 3 5 5 8 5 3 0 6 -2 8 -5z
m-1097 -57 c18 -11 33 -15 47 -13 8 1 10 1 13 -3 5 -6 5 -12 0 -18 -4 -5 -8
-5 -21 -1 -13 4 -26 4 -39 -1 -27 -9 -42 -2 -42 19 0 10 1 12 6 17 8 8 23 8
36 0z m635 -13 c3 -3 3 -3 0 -6 -4 -5 -11 1 -7 6 4 4 4 4 7 0z m218 -32 c10
-4 21 -13 30 -24 3 -3 9 -11 15 -16 11 -12 15 -22 13 -35 -3 -17 -16 -24 -39
-20 -7 2 -18 2 -26 1 -7 0 -19 -2 -25 -2 -12 -1 -13 -1 -18 4 l-5 5 0 40 c1
44 2 46 15 50 8 3 28 1 40 -3z m296 -17 c4 -6 4 -24 -1 -30 -7 -9 -27 -9 -34
0 -5 6 -5 24 0 30 7 9 27 9 35 0z m-954 -147 c3 -3 3 -3 0 -6 -4 -5 -11 1 -7
6 4 4 4 4 7 0z m11 -54 c12 -3 17 -10 17 -25 0 -19 -8 -27 -27 -27 -19 0 -27
8 -27 27 0 15 5 22 16 25 11 3 11 3 21 0z m579 -111 c10 -9 3 -26 -10 -26 -8
0 -15 7 -15 15 0 13 16 20 25 11z m593 -50 c4 -4 4 -6 3 -13 -1 -4 -2 -21 -2
-38 0 -28 0 -29 -5 -33 -7 -6 -25 -6 -31 1 -7 7 -6 14 1 27 8 15 12 30 12 42
0 16 13 24 22 14z m45 -144 c5 -5 6 -7 6 -16 0 -15 -8 -23 -23 -23 -9 0 -11 1
-16 7 -9 8 -9 23 -1 32 9 9 24 9 34 0z m-437 -24 c3 -1 4 -11 1 -14 -1 -1 -5
-3 -8 -5 -5 -3 -6 -3 -10 1 -4 4 -4 5 -3 9 6 10 12 13 20 9z m104 -129 c21 -9
20 -45 -2 -54 -10 -5 -28 -1 -34 6 -9 10 -9 32 0 42 7 8 24 11 36 6z m-700
-22 c5 -5 6 -25 1 -30 -5 -5 -25 -4 -31 2 -6 6 -6 21 0 28 7 8 21 8 30 0z
m-95 -136 c3 -3 3 -3 0 -6 -4 -5 -11 1 -7 6 4 4 4 4 7 0z"/>
</g>
</svg>
