<?xml version="1.0" standalone="no"?>
<!DOCTYPE svg PUBLIC "-//W3C//DTD SVG 20010904//EN"
 "http://www.w3.org/TR/2001/REC-SVG-20010904/DTD/svg10.dtd">
<svg version="1.0" xmlns="http://www.w3.org/2000/svg"
 width="1000.000000pt" height="2850.000000pt" viewBox="0 0 1000.000000 2850.000000"
 preserveAspectRatio="xMidYMid meet">
<metadata>
Created by potrace 1.15, written by Peter Selinger 2001-2017
</metadata>
<g transform="translate(0.000000,2850.000000) scale(0.500000,-0.500000)"
fill="#000000" stroke="none">
<path d="M208 3704 c-3 -1 -6 -1 -7 0 0 0 -1 0 -1 -2 0 -1 -1 -2 -3 -2 -4 0
-14 -12 -18 -21 -5 -11 -5 -229 0 -240 4 -9 14 -21 18 -21 2 0 3 -1 3 -2 0 -1
1 -2 3 -2 1 0 105 -1 230 -2 l229 -1 5 -5 c3 -3 4 -5 3 -6 -1 0 -2 -3 -3 -6
-6 -20 -31 -67 -51 -96 -36 -54 -75 -94 -130 -135 -12 -8 -23 -17 -25 -18 -2
-2 -8 -6 -14 -9 -5 -3 -16 -10 -23 -14 -36 -23 -113 -59 -176 -83 -19 -7 -40
-20 -43 -26 -2 -6 -17 -15 -25 -15 -10 0 -35 -5 -45 -10 -11 -5 -10 -5 -37 -3
-23 1 -24 1 -34 -4 -5 -3 -10 -6 -9 -7 0 0 0 -2 -2 -3 -2 -2 -3 -8 -3 -16 0
-12 0 -13 10 -23 21 -23 34 -40 61 -81 11 -17 21 -32 23 -35 2 -3 4 -6 4 -7 0
0 4 -7 8 -14 4 -7 8 -14 8 -15 0 -1 1 -2 2 -2 0 0 3 -3 4 -6 4 -6 5 -6 14 -6
6 0 13 0 16 -1 3 -1 4 -1 4 0 -1 1 0 3 3 6 2 3 5 9 7 13 1 5 3 12 5 15 5 15
40 16 48 0 4 -8 4 -24 0 -32 -3 -6 -5 -8 -23 -14 -19 -6 -25 -9 -24 -11 0 -2
1 -9 2 -16 l1 -13 10 -3 c11 -3 28 0 38 5 3 2 8 3 9 3 2 0 4 1 5 2 1 1 4 -1 7
-3 l5 -5 1 -64 c1 -59 2 -74 6 -74 1 0 4 -2 6 -5 6 -5 24 -11 35 -11 12 0 17
-7 17 -19 0 -13 -5 -18 -20 -21 -14 -3 -31 -11 -35 -17 -9 -14 -9 -16 -9 -134
l0 -111 5 -11 c5 -10 20 -25 26 -25 1 0 4 -1 5 -1 5 -1 21 4 33 10 12 6 15 6
20 0 3 -5 3 -5 -1 -11 -3 -4 -7 -7 -12 -8 -8 -2 -21 -15 -31 -29 -3 -5 -11
-12 -18 -17 -14 -9 -19 -14 -24 -27 -5 -11 -5 -216 0 -228 4 -9 14 -21 18 -21
2 0 3 -1 3 -2 0 -3 13 -3 139 -3 126 0 139 0 139 3 0 1 1 2 3 2 4 0 14 12 18
21 2 6 3 13 3 21 -1 12 -1 13 5 19 l6 6 158 0 c87 0 169 1 183 1 14 1 32 0 39
-1 17 -2 29 1 37 10 4 4 12 27 12 34 0 12 21 18 30 8 2 -2 4 -6 4 -8 0 -7 8
-30 12 -34 2 -2 7 -5 11 -7 8 -4 17 -4 145 -4 l137 0 20 10 c18 10 23 11 38
10 2 0 6 -3 9 -6 5 -5 6 -7 6 -18 0 -11 -1 -13 -6 -18 -3 -3 -7 -6 -9 -6 -15
-1 -25 1 -25 4 0 1 -1 2 -2 1 -1 0 -6 -1 -11 -2 -9 -1 -27 -9 -22 -9 2 0 3 -1
2 -2 0 -13 1 -17 9 -24 4 -4 10 -8 13 -10 5 -2 40 -2 145 -1 76 0 140 1 142 1
1 0 2 1 2 2 0 1 1 2 3 2 4 0 14 12 18 21 3 7 3 15 3 43 -1 38 0 35 -16 63 -8
14 -8 20 0 34 16 28 15 25 16 62 0 37 0 41 -11 67 -3 7 -6 14 -6 15 -2 11 -14
45 -17 50 -3 4 -4 16 -2 23 1 6 6 13 16 23 20 22 20 21 19 99 -1 80 -1 83 0
240 1 113 1 128 -2 135 -4 9 -14 21 -18 21 -2 0 -3 1 -3 2 0 0 -2 2 -5 2 -4 1
-111 1 -240 1 l-234 0 -10 -9 c-5 -5 -12 -11 -15 -14 -12 -12 -22 -17 -33 -17
-12 0 -20 4 -26 12 -24 34 -61 39 -86 11 -4 -4 -7 -8 -7 -9 0 -4 -13 -13 -19
-13 -2 0 -11 1 -18 3 -8 2 -22 3 -31 3 -19 0 -23 2 -35 15 -15 18 -16 18 -85
19 -53 0 -63 0 -75 -3 -17 -5 -42 -5 -58 0 -17 4 -208 5 -232 0 -32 -6 -47 -4
-53 8 -4 9 5 25 17 32 5 3 11 5 12 5 2 0 3 1 2 3 -1 1 2 -2 6 -6 6 -8 8 -9 19
-10 7 -1 15 -2 17 -1 5 0 31 13 49 23 7 4 16 9 19 11 10 5 70 43 80 50 1 1 8
6 15 12 7 5 14 12 16 15 3 6 4 25 1 42 -1 6 -1 13 0 16 3 12 20 15 39 7 13 -6
25 -7 35 -4 7 2 53 49 77 78 5 6 10 12 11 14 4 4 30 38 38 51 11 16 33 51 33
52 0 0 2 4 5 8 9 13 44 87 56 116 6 16 16 43 21 60 11 33 12 34 20 40 5 3 23
3 205 3 l201 1 7 -6 c4 -4 6 -7 5 -9 -1 -2 -2 -12 -3 -22 -1 -10 -2 -26 -3
-34 -1 -8 -2 -19 -3 -24 -1 -5 -2 -15 -3 -22 -1 -7 -2 -17 -3 -21 -1 -8 -7
-42 -8 -46 0 -1 -1 -6 -2 -10 -8 -43 -22 -82 -34 -94 -3 -4 -13 -10 -21 -14
-12 -5 -16 -8 -17 -12 -1 -3 -2 -5 -3 -4 -1 0 -1 -4 -1 -10 -1 -10 -1 -10 1
-2 l1 8 1 -8 c0 -6 -1 -9 -2 -9 -5 0 5 -8 12 -10 4 -1 9 -4 11 -6 l5 -4 -5
-10 c-6 -12 -17 -21 -25 -21 -1 1 -6 -1 -12 -3 -14 -6 -25 -5 -34 1 -7 4 -24
19 -29 25 -1 1 -4 5 -7 8 -3 3 -7 7 -8 9 -2 4 -27 10 -35 8 -7 -1 -14 4 -26
20 -9 12 -19 15 -57 18 -35 3 -39 3 -50 -3 -6 -4 -8 -6 -10 -15 -3 -14 -3 -16
2 -23 2 -3 9 -17 15 -31 24 -53 36 -64 63 -59 6 1 14 3 17 5 3 2 11 3 17 3 9
0 11 -1 16 -6 5 -5 6 -7 6 -17 0 -10 -1 -12 -6 -17 -5 -5 -7 -6 -16 -6 -6 0
-12 1 -14 2 -5 2 -23 -1 -30 -5 -9 -7 -11 -18 -7 -40 2 -10 4 -21 4 -25 3 -20
8 -34 18 -43 14 -13 18 -14 128 -12 97 1 129 2 171 8 24 3 67 12 73 15 2 1 5
3 7 3 7 1 44 19 58 28 25 15 55 42 70 63 5 7 10 13 10 14 1 0 2 2 2 3 0 2 1 3
2 3 1 0 1 7 0 20 0 6 -11 17 -22 22 -6 2 -14 7 -18 9 -10 7 -27 7 -38 1 -4 -3
-9 -5 -9 -6 -2 -3 -18 -2 -21 1 -1 1 -4 3 -7 3 -8 2 -5 16 6 24 5 5 19 5 23 1
7 -6 38 -5 38 1 0 1 1 2 3 2 2 0 3 1 3 2 0 2 17 12 21 12 2 0 8 -2 12 -3 11
-4 25 -4 37 1 10 4 22 35 19 51 -1 10 -6 21 -10 25 -5 6 -11 18 -11 24 0 5 6
12 17 19 17 11 25 26 28 52 0 6 2 24 5 42 5 37 12 111 12 121 0 9 -9 27 -17
33 -21 17 -23 19 -25 28 -2 7 -2 11 0 18 3 10 6 14 21 22 28 15 32 24 36 84 1
11 2 22 2 25 0 3 1 17 2 31 1 14 2 31 2 37 1 9 0 14 -4 20 -4 10 -9 13 -23 15
-5 1 -9 1 -10 2 -1 0 -3 -1 -6 -3 -3 -1 -9 -3 -15 -3 -10 0 -15 2 -39 14 -9 4
-9 4 -195 4 -178 0 -186 0 -195 -4 -6 -2 -10 -4 -10 -5 0 -1 -1 -2 -3 -2 -1 0
-4 -1 -5 -3 -5 -6 -18 -11 -27 -11 -9 0 -22 5 -27 11 -1 2 -4 3 -5 3 -2 0 -3
1 -3 2 0 1 -4 3 -9 5 -10 4 -20 4 -291 4 l-281 0 -19 -9 c-26 -13 -32 -13 -57
-1 -23 11 -32 13 -47 7 -15 -5 -21 -12 -26 -31 -5 -17 -9 -22 -16 -22 -7 0
-11 5 -14 15 -1 5 -5 14 -7 19 -5 9 -7 12 -17 16 l-11 6 -114 0 c-63 1 -116 0
-119 -1z m747 -49 c3 -2 12 -10 20 -18 8 -8 17 -17 21 -20 10 -9 13 -21 10
-34 -4 -13 -14 -21 -29 -20 -12 1 -18 4 -24 12 -13 17 -22 25 -33 31 -15 8
-20 13 -20 21 0 12 6 20 18 26 6 3 12 5 14 5 6 2 19 0 23 -3z m628 -21 c7 -3
12 -13 12 -25 0 -19 -9 -28 -28 -28 -19 0 -28 9 -28 28 0 17 6 24 22 28 5 1
14 -1 22 -3z m-126 -7 c5 -8 1 -16 -8 -16 -9 0 -13 8 -8 16 2 3 5 5 8 5 3 0 6
-2 8 -5z m-263 -48 c16 -5 24 -22 20 -39 -4 -16 -11 -20 -32 -21 -15 -1 -32
-5 -38 -11 -9 -7 -18 -10 -28 -10 -9 0 -11 1 -16 6 -5 5 -6 7 -6 17 0 14 4 19
22 26 17 6 23 10 38 24 13 14 19 15 40 8z m-558 -2 c16 -7 20 -37 7 -48 -12
-11 -34 -11 -43 0 -9 10 -9 32 0 42 7 8 24 11 36 6z m185 -19 c10 -9 3 -26
-10 -26 -8 0 -15 7 -15 15 0 13 16 20 25 11z m-567 -30 c5 -5 5 -15 0 -20 -9
-9 -24 -2 -24 10 0 8 6 14 14 14 3 0 8 -2 10 -4z m1414 -52 c5 -5 6 -7 6 -17
0 -10 -1 -12 -6 -17 -5 -5 -7 -6 -17 -6 -10 0 -12 1 -17 6 -5 5 -6 7 -6 17 0
10 1 12 6 17 5 5 7 6 17 6 10 0 12 -1 17 -6z m-90 -49 l-5 -5 -4 4 -5 5 4 4 5
5 4 -4 5 -5 -4 -4z m32 -57 c5 -5 5 -11 0 -16 -10 -10 -27 5 -16 16 4 4 12 4
16 0z m-903 -82 c11 -10 3 -28 -11 -28 -9 0 -16 6 -16 16 0 14 17 22 27 12z
m-96 -98 c5 -1 11 -5 19 -13 7 -7 17 -15 26 -20 21 -12 25 -16 25 -29 0 -22
-22 -30 -42 -16 -5 3 -9 7 -10 8 -2 3 -34 18 -38 18 -5 0 -13 9 -15 18 -4 16
3 31 16 34 9 2 10 2 19 0z m876 -42 c7 -6 7 -19 1 -25 -6 -7 -19 -7 -25 -1 -6
6 -7 17 -1 25 6 7 18 7 25 1z m171 -13 c7 -3 11 -13 11 -24 0 -19 -12 -30 -29
-28 -14 1 -21 6 -24 13 -4 9 -3 24 1 31 6 12 26 16 41 8z m-130 -60 c6 -4 8
-11 9 -29 0 -16 4 -35 7 -33 1 1 2 -2 3 -6 1 -7 1 -8 -6 -14 -12 -12 -23 -8
-31 11 -2 5 -8 14 -13 22 -10 13 -10 13 -10 28 0 14 0 15 6 19 3 3 8 5 10 6 6
1 20 -1 25 -4z m-935 -10 c4 -4 5 -7 5 -15 0 -14 -6 -20 -20 -20 -14 0 -20 6
-20 20 0 14 6 20 20 20 8 0 11 -1 15 -5z m812 -68 c7 -9 0 -23 -11 -23 -3 0
-8 2 -10 4 -5 5 -5 16 -1 20 6 5 19 4 22 -1z m-114 -69 c10 -9 3 -26 -10 -26
-8 0 -15 7 -15 15 0 13 16 20 25 11z m178 -10 c4 -6 4 -24 -1 -30 -7 -9 -27
-9 -34 0 -5 6 -5 24 0 30 7 9 27 9 35 0z m-952 -2 c11 -5 16 -27 8 -41 -2 -6
-17 -15 -23 -15 -1 0 -2 -1 -2 -2 0 -1 -1 -1 -3 -1 -2 1 -3 1 -2 0 1 -2 -1 -2
-4 0 -3 1 -6 4 -7 8 -1 3 -3 5 -4 5 -6 0 -9 27 -3 37 5 12 23 15 40 9z m-127
-118 c6 -6 6 -12 0 -18 -5 -5 -14 -5 -18 0 -11 13 6 30 18 18z m864 -67 l-5
-5 -4 4 -5 5 4 4 5 5 4 -4 5 -5 -4 -4z m345 -32 c3 -5 3 -6 0 -9 -2 -2 -3 -6
-3 -9 0 -5 0 -5 -4 -3 -2 1 -4 4 -4 5 0 2 -1 5 -3 7 -3 3 -3 4 0 9 2 3 5 5 7
5 2 0 5 -2 7 -5z m-557 -6 c6 -6 6 -22 0 -28 -7 -7 -35 -12 -46 -7 -14 6 -7
26 14 35 15 7 25 7 32 0z m-444 -21 c5 -5 5 -11 0 -16 -10 -10 -27 5 -16 16 4
4 12 4 16 0z m1008 -25 c0 -2 1 -5 3 -7 3 -3 3 -4 0 -9 -2 -3 -5 -5 -7 -5 -2
0 -5 2 -7 5 -3 5 -3 6 0 9 2 2 3 6 3 9 0 5 0 5 4 3 2 -1 4 -4 4 -5z m-1135
-54 c4 -4 5 -7 5 -15 0 -14 -6 -20 -20 -20 -14 0 -20 6 -20 20 0 14 6 20 20
20 8 0 11 -1 15 -5z m154 0 c6 -4 6 -6 6 -20 0 -14 0 -16 -6 -20 -4 -4 -7 -5
-18 -5 -11 0 -14 1 -18 5 -6 4 -6 6 -6 20 0 14 0 16 6 20 4 4 7 5 18 5 11 0
14 -1 18 -5z m907 1 c2 -2 4 -6 4 -9 0 -4 -1 -9 -8 -30 -1 -3 -3 -14 -5 -23
-4 -23 -6 -24 -30 -24 -18 0 -20 19 -4 45 5 8 11 20 14 27 3 6 8 13 10 15 5 4
14 4 19 -1z m-553 -36 c3 -2 8 -6 9 -9 10 -20 17 -29 25 -35 20 -14 4 -13 203
-14 100 -1 183 -2 186 -3 3 0 14 -1 25 -1 25 0 30 -3 28 -14 -1 -9 -9 -17 -15
-16 -8 1 -27 -5 -34 -11 -3 -3 -6 -8 -8 -13 -3 -11 -3 -144 1 -154 3 -9 11
-17 23 -23 10 -5 18 -12 18 -16 0 -1 -1 -4 -3 -7 -4 -5 -12 -5 -31 -1 -7 2
-21 3 -31 3 -16 0 -22 -1 -39 -7 -11 -4 -24 -7 -28 -7 -4 0 -17 3 -28 7 l-20
7 -208 0 c-136 0 -210 -1 -214 -2 -10 -3 -20 -11 -24 -20 -1 -4 -4 -9 -6 -12
-3 -4 -4 -6 -3 -6 1 0 0 -2 -3 -5 -4 -4 -7 -5 -13 -5 -6 0 -9 1 -13 5 -3 3 -4
5 -3 5 1 0 0 2 -3 6 -2 3 -5 8 -6 12 -4 9 -14 17 -24 20 -5 1 -27 2 -56 2
l-49 -1 -6 6 -6 6 0 117 0 117 6 6 6 6 43 0 c49 0 53 1 67 18 19 23 35 23 54
0 7 -9 21 -17 29 -17 13 0 24 12 31 34 3 12 7 16 14 16 7 0 11 -4 14 -16 8
-26 17 -34 40 -36 17 -1 27 4 31 14 3 8 5 26 4 26 -1 0 -2 3 -3 7 -2 12 8 18
20 11z m-557 -74 c5 -5 6 -7 6 -17 0 -10 -1 -12 -6 -17 -5 -5 -7 -6 -17 -6
-10 0 -12 1 -17 6 -5 5 -6 7 -6 15 0 6 1 12 1 14 2 7 11 11 23 11 9 0 11 -1
16 -6z m1174 -34 c5 -5 5 -11 0 -16 -10 -10 -27 5 -16 16 4 4 12 4 16 0z
m-135 -129 c3 -5 3 -5 0 -10 -2 -3 -5 -5 -7 -5 -2 0 -5 2 -7 5 -3 5 -3 5 0 10
2 3 5 5 7 5 2 0 5 -2 7 -5z m-968 -46 c12 -7 14 -33 3 -43 -8 -9 -32 -9 -40 0
-9 8 -9 32 0 41 7 7 27 8 37 2z m680 -106 c5 -8 1 -16 -8 -16 -9 0 -13 8 -8
16 2 3 5 5 8 5 3 0 6 -2 8 -5z m-218 -6 c3 -3 3 -3 0 -6 -3 -3 -3 -3 -6 0 -3
2 -3 3 -1 6 4 4 4 4 7 0z m-572 -28 c3 -3 3 -3 0 -6 -3 -3 -3 -3 -6 0 -3 2 -3
3 -1 6 4 4 4 4 7 0z m210 -15 c16 -7 16 -37 -1 -56 -3 -3 -10 -12 -17 -20 -12
-17 -15 -19 -31 -19 -17 1 -25 9 -25 27 0 9 2 13 6 20 3 5 6 9 7 10 1 1 6 9
12 18 15 23 27 28 49 20z m148 -20 c7 -6 7 -19 1 -25 -6 -7 -19 -7 -25 -1 -7
6 -7 19 -1 25 6 7 19 7 25 1z"/>
</g>
</svg>
