<?xml version="1.0" standalone="no"?>
<!DOCTYPE svg PUBLIC "-//W3C//DTD SVG 20010904//EN"
 "http://www.w3.org/TR/2001/REC-SVG-20010904/DTD/svg10.dtd">
<svg version="1.0" xmlns="http://www.w3.org/2000/svg"
 width="1100.000000pt" height="2850.000000pt" viewBox="0 0 1100.000000 2850.000000"
 preserveAspectRatio="xMidYMid meet">
<metadata>
Created by potrace 1.15, written by Peter Selinger 2001-2017
</metadata>
<g transform="translate(0.000000,2850.000000) scale(0.500000,-0.500000)"
fill="#000000" stroke="none">
<path d="M1066 3830 c-25 -6 -155 -32 -167 -34 -27 -5 -39 -15 -42 -36 -1 -6
0 -11 3 -18 9 -23 12 -31 12 -33 0 -2 1 -3 2 -3 2 0 0 -2 -3 -5 l-5 -6 -216
-1 c-232 -1 -216 0 -230 -10 0 0 -1 -6 0 -14 0 -14 0 -14 -5 -14 -5 0 -5 0 -5
13 1 16 1 16 -8 20 -8 4 -13 4 -92 4 -82 0 -94 0 -94 -3 0 -1 -1 -2 -3 -2 -4
0 -14 -12 -18 -21 -5 -11 -5 -195 0 -206 4 -9 14 -21 18 -21 2 0 3 -1 3 -2 0
-2 1 -2 143 -4 l138 -1 8 -5 c5 -4 6 -5 3 -6 -1 0 -21 -11 -43 -25 l-40 -24
-1 -12 c0 -15 2 -22 10 -26 5 -3 36 -11 81 -22 14 -4 10 -3 48 -13 17 -4 32
-8 34 -9 19 -4 55 -15 59 -17 12 -6 2 -11 -42 -21 -31 -7 -114 -24 -127 -26
-15 -3 -97 -17 -104 -18 -14 -2 -27 -9 -30 -17 -5 -13 -4 -25 4 -35 3 -6 8
-14 11 -18 7 -13 20 -34 22 -35 1 0 2 -2 2 -3 0 -2 2 -3 4 -3 3 0 3 -1 0 -1
-2 -1 -4 -2 -4 -3 0 0 -2 -2 -5 -4 -3 -3 -19 -3 -95 -4 -95 -2 -96 -2 -96 -4
0 -1 -1 -2 -3 -2 -4 0 -14 -12 -18 -21 -5 -11 -5 -198 0 -218 3 -11 3 -19 2
-34 -1 -11 -2 -24 -2 -29 -1 -10 3 -19 9 -22 6 -3 28 -8 28 -6 0 1 4 2 9 3 9
1 10 1 13 -3 5 -5 5 -15 1 -29 -4 -18 -9 -24 -22 -27 -13 -4 -31 -14 -35 -21
-6 -10 -8 -20 -9 -59 -2 -61 -5 -98 -16 -168 -14 -92 -50 -198 -92 -270 -5 -9
-22 -35 -23 -36 -1 -1 -5 -6 -10 -13 -7 -11 -8 -13 -8 -25 0 -17 4 -23 20 -33
8 -5 28 -19 40 -28 8 -5 16 -12 19 -14 3 -2 7 -5 8 -6 1 -1 11 -9 22 -18 35
-28 55 -46 88 -78 9 -9 20 -18 23 -19 7 -3 24 -2 30 2 17 9 82 115 104 168 1
4 6 13 9 21 4 8 9 21 12 30 3 9 6 17 7 18 3 4 25 74 35 115 14 52 31 147 31
167 0 13 -2 20 -13 38 -10 17 -10 25 2 39 6 6 11 11 11 12 4 3 12 21 13 28 4
31 6 80 6 178 l0 89 6 6 6 6 82 0 c45 -1 154 -1 243 -2 89 0 162 -1 163 -1 1
0 2 -2 1 -4 0 -3 1 -4 5 -4 3 0 1 -1 -6 -2 -7 -1 -24 -4 -39 -8 -22 -5 -54
-12 -91 -19 -7 -1 -74 -13 -80 -14 -33 -6 -57 -9 -63 -10 -4 -1 -10 -2 -14 -2
-4 -1 -10 -2 -14 -2 -4 -1 -16 -2 -28 -4 -12 -2 -35 -5 -52 -7 -17 -2 -31 -5
-32 -6 0 -1 -2 -2 -3 -2 -6 0 -11 -10 -11 -23 0 -13 0 -13 10 -23 6 -6 13 -14
15 -18 8 -10 29 -18 47 -18 8 0 12 -7 10 -20 -4 -23 -2 -34 10 -52 4 -6 11
-16 14 -22 4 -6 10 -15 12 -19 6 -9 18 -18 26 -20 17 -4 21 -4 68 4 26 5 51
10 54 11 17 7 24 20 25 44 1 24 7 31 27 31 16 0 20 -4 30 -24 9 -18 14 -23 29
-27 16 -3 55 8 65 19 4 5 14 30 14 37 0 8 8 14 20 14 11 0 11 0 24 -14 13 -14
24 -20 36 -20 7 0 75 20 126 37 24 7 44 14 45 14 5 2 49 18 65 24 10 4 18 7
19 7 0 0 5 2 10 4 24 11 77 32 84 34 5 2 12 5 15 8 3 3 7 6 9 6 6 0 21 16 28
30 19 40 21 48 21 71 -1 21 4 26 24 25 4 0 9 -3 16 -11 6 -5 15 -13 20 -16 l9
-6 136 0 c134 0 147 0 147 3 0 1 1 2 3 2 4 0 14 12 18 21 5 11 5 199 0 210 -4
9 -14 21 -18 21 -2 0 -3 1 -3 2 0 2 -1 2 -1 2 -1 -1 -4 -1 -8 0 -3 1 -57 2
-120 2 -104 0 -115 0 -119 3 -7 5 -11 9 -8 9 2 0 25 15 28 18 1 1 10 7 20 14
28 18 26 16 26 34 0 15 0 16 -7 21 -3 3 -17 8 -31 13 -14 5 -32 11 -41 14 -9
3 -19 7 -23 8 -4 1 -38 13 -75 25 -65 22 -69 24 -84 24 -9 0 -19 -2 -22 -3 -9
-3 -22 -3 -28 2 -4 4 -5 6 -5 14 0 13 6 18 29 21 19 3 23 4 52 20 39 21 110
65 115 71 1 2 2 9 2 16 1 24 0 24 77 24 35 0 67 1 72 2 9 2 20 9 34 23 l10 11
14 0 14 0 11 -11 c13 -13 21 -19 24 -19 1 0 2 -1 2 -2 0 -4 20 1 26 7 14 13
14 13 14 119 0 83 0 97 -3 103 -4 9 -14 21 -18 21 -2 0 -3 1 -3 2 0 1 -1 2 -2
2 -2 0 -142 1 -312 1 l-309 1 -8 6 c-4 3 -8 6 -7 7 3 1 -20 52 -27 60 -5 5
-36 21 -40 21 -3 0 -10 8 -16 19 -13 23 -28 29 -57 23z m-642 -181 c3 -6 -2
-15 -9 -15 -7 0 -12 9 -9 15 1 4 3 5 9 5 6 0 8 -1 9 -5z m578 -76 c21 -9 20
-45 -2 -54 -10 -5 -28 -1 -34 6 -9 10 -9 32 0 42 7 8 24 11 36 6z m417 -11
c20 -3 22 -6 24 -29 0 -9 2 -19 3 -21 1 -2 2 -4 1 -4 0 0 1 -5 4 -10 2 -8 4
-15 4 -25 0 -12 0 -14 -6 -18 -17 -15 -61 3 -61 25 0 11 -12 32 -24 44 -12 11
-12 12 -12 23 0 7 1 12 4 15 6 8 13 8 63 0z m-530 -84 c1 -1 5 -6 8 -10 3 -4
7 -10 10 -14 5 -8 19 -17 27 -19 3 -1 53 -1 113 -1 92 0 108 -1 113 -3 3 -2 6
-4 5 -5 -1 -1 1 -2 3 -2 4 0 3 -1 -2 -2 -4 -1 -22 -8 -41 -16 -39 -16 -52 -19
-66 -17 -9 1 -37 8 -102 26 -14 4 -27 7 -29 7 -4 0 -4 1 -2 2 4 3 -9 6 -22 5
-32 -3 -43 -2 -50 3 -7 5 -12 15 -12 23 0 5 8 19 12 22 8 5 26 5 35 1z m666
-23 c13 -6 12 -14 -1 -15 -6 0 -8 1 -12 5 -4 5 -4 6 -1 9 4 5 7 5 14 1z m-879
-272 c12 -6 18 -21 13 -38 -2 -5 -5 -11 -7 -13 -2 -1 -4 -3 -4 -5 0 -1 -1 -3
-2 -3 -4 -2 -3 -34 1 -39 3 -5 3 -6 0 -10 -5 -6 -9 -6 -14 0 -3 5 -3 6 0 9 2
3 2 5 0 20 -1 9 -4 14 -16 25 -13 12 -16 22 -13 36 3 10 7 14 15 18 7 3 20 3
27 0z m-204 -24 c10 -5 14 -25 8 -39 -7 -17 -43 -17 -50 1 -4 8 -3 23 1 30 6
12 26 16 41 8z m633 -20 c11 -4 23 -8 26 -9 3 -1 19 -6 35 -12 16 -6 30 -11
31 -11 1 0 7 -2 14 -5 6 -2 14 -4 17 -4 4 0 4 -1 1 -2 -2 0 -4 -2 -4 -4 0 -4
-8 -5 -40 -6 -30 0 -38 -2 -61 -14 -9 -5 -14 -6 -23 -6 -9 0 -14 1 -23 6 -27
14 -26 14 -102 14 -70 0 -83 1 -81 7 0 2 -1 3 -4 4 -3 0 -2 1 3 1 5 0 67 18
95 28 3 1 19 6 34 11 15 5 29 9 31 10 7 2 32 -1 51 -8z m-68 -177 c16 -7 16
-43 -1 -50 -15 -6 -34 -2 -39 9 -4 8 -4 24 0 32 5 12 23 15 40 9z m236 -97
c12 -12 3 -31 -13 -31 -11 0 -18 7 -18 18 0 11 7 18 18 18 6 0 9 -1 13 -5z
m-452 -172 c4 -4 5 -7 5 -15 0 -14 -6 -20 -20 -20 -14 0 -20 6 -20 20 0 14 6
20 20 20 8 0 11 -1 15 -5z m-484 -287 c11 -10 3 -28 -11 -28 -9 0 -16 6 -16
16 0 14 17 22 27 12z"/>
<path d="M1457 2710 c-5 -2 -11 -6 -13 -8 -5 -5 -31 -22 -34 -22 -1 0 -2 -1
-2 -2 0 -1 -1 -2 -2 -2 -1 0 -7 -3 -14 -7 -7 -4 -24 -13 -38 -20 -102 -51
-242 -98 -395 -134 -35 -8 -41 -11 -46 -18 -5 -7 -6 -27 -2 -35 2 -3 3 -11 3
-17 0 -10 -1 -12 -6 -17 -6 -6 -7 -6 -18 -6 -11 0 -12 0 -17 5 -5 4 -6 6 -7
20 -2 18 -8 31 -16 36 -4 2 -7 4 -8 3 -1 0 -3 1 -5 1 -2 1 -17 -1 -33 -4 -38
-7 -34 -6 -56 -10 -10 -2 -21 -3 -24 -4 -9 -2 -47 -7 -77 -11 -44 -6 -53 -12
-53 -34 0 -9 1 -11 9 -21 18 -23 37 -48 37 -49 0 -1 2 -3 4 -5 4 -5 32 -46 37
-57 2 -3 5 -8 6 -10 1 -2 6 -11 12 -21 11 -21 19 -30 29 -35 16 -8 19 -8 101
7 48 9 51 10 59 17 4 4 7 5 11 5 18 -3 24 -3 46 2 13 3 24 6 25 6 1 0 5 1 10
2 22 3 144 35 207 54 67 20 168 56 198 70 4 2 7 3 8 3 1 0 28 12 51 22 9 5 17
8 18 8 1 0 29 14 63 31 34 17 63 31 65 31 2 0 4 1 4 2 0 1 2 2 3 2 2 0 7 3 10
7 3 3 10 8 14 11 12 7 60 38 62 41 1 1 5 3 7 5 22 15 23 17 22 35 -1 7 -3 13
-5 15 -2 3 -37 21 -77 40 -40 20 -88 44 -107 53 -39 19 -50 22 -66 15z m-52
-185 c2 -2 2 -10 2 -37 -1 -40 -2 -43 -17 -47 -18 -6 -33 1 -36 17 -3 14 0 23
13 36 7 6 15 15 18 20 7 12 15 16 20 11z m-513 -219 c5 -6 5 -11 1 -18 -2 -3
-4 -5 -4 -6 -1 -1 -11 3 -15 6 -5 5 -5 12 0 18 4 5 13 5 18 0z"/>
<path d="M1589 2469 c-8 -8 -17 -16 -20 -18 -3 -3 -8 -7 -11 -9 -23 -18 -66
-47 -85 -58 -18 -10 -20 -12 -23 -18 -3 -7 -4 -33 -2 -39 2 -4 2 -6 -1 -10 -5
-8 -13 -6 -29 11 -4 4 -9 8 -9 7 -1 0 -3 0 -4 1 -3 3 -17 3 -23 0 -3 -1 -11
-4 -18 -8 -61 -28 -171 -66 -267 -91 -36 -9 -45 -11 -56 -14 -28 -7 -136 -29
-164 -34 -3 0 -17 -3 -29 -5 -13 -2 -32 -5 -42 -7 -11 -2 -22 -3 -25 -4 -7 -1
-59 -8 -72 -10 -34 -4 -62 -8 -102 -12 -90 -10 -84 -9 -92 -14 -8 -5 -11 -11
-12 -25 -1 -8 0 -11 3 -15 3 -2 13 -17 23 -32 23 -35 24 -37 30 -48 2 -4 9
-17 16 -28 11 -22 18 -35 29 -61 10 -24 16 -35 22 -41 10 -11 25 -15 43 -13 7
1 16 2 21 3 5 1 11 2 13 2 10 1 21 3 41 6 77 11 91 15 97 24 4 6 6 29 2 34
-10 13 9 29 19 17 3 -4 4 -7 3 -12 -1 -7 2 -24 5 -24 1 0 2 -1 2 -3 0 -4 13
-9 25 -9 10 0 68 11 124 23 13 3 28 6 33 7 4 1 12 3 17 4 4 1 10 3 13 3 9 2
52 13 87 22 14 4 27 8 29 8 19 4 105 32 170 54 15 5 64 24 73 28 3 2 11 5 17
7 40 16 144 67 180 88 6 5 13 8 13 8 1 0 5 2 10 5 4 3 11 8 15 10 26 16 76 50
90 61 10 7 20 15 23 17 3 2 7 5 9 7 2 2 5 4 7 6 25 20 49 41 66 57 8 8 8 9 9
20 1 20 -4 24 -40 41 -9 4 -26 12 -37 17 -11 5 -25 12 -32 15 -7 3 -20 9 -30
14 -10 5 -23 11 -30 14 -7 3 -21 10 -32 15 -45 21 -46 21 -62 21 l-15 -1 -15
-14z m-160 -291 c16 -7 16 -43 -1 -50 -15 -6 -34 -2 -39 9 -4 8 -4 24 0 32 5
12 23 15 40 9z"/>
</g>
</svg>
