<?xml version="1.0" standalone="no"?>
<!DOCTYPE svg PUBLIC "-//W3C//DTD SVG 20010904//EN"
 "http://www.w3.org/TR/2001/REC-SVG-20010904/DTD/svg10.dtd">
<svg version="1.0" xmlns="http://www.w3.org/2000/svg"
 width="1100.000000pt" height="2850.000000pt" viewBox="0 0 1100.000000 2850.000000"
 preserveAspectRatio="xMidYMid meet">
<metadata>
Created by potrace 1.15, written by Peter Selinger 2001-2017
</metadata>
<g transform="translate(0.000000,2850.000000) scale(0.500000,-0.500000)"
fill="#000000" stroke="none">
<path d="M472 3718 c-6 -2 -18 -4 -25 -5 -20 -2 -34 -9 -36 -19 0 -2 -1 -5 -2
-5 0 -1 -1 -5 -1 -8 0 -4 -1 -7 -2 -8 -2 0 -2 -1 1 -1 9 0 0 -17 -9 -17 -9 0
-18 17 -8 17 2 0 2 1 1 1 -2 1 -3 4 -3 8 0 3 -1 7 -1 8 -1 0 -2 3 -2 6 -1 5
-10 12 -19 15 -6 2 -266 2 -273 0 -2 0 -3 -1 -3 -2 0 -1 -2 -2 -4 -3 -4 -1 -4
-2 -4 -16 1 -9 0 -15 -1 -16 -1 0 0 -1 2 -1 2 0 7 -4 12 -9 15 -15 14 -17 -15
-43 -13 -13 -14 -18 -14 -91 0 -53 1 -64 3 -70 4 -9 14 -21 18 -21 2 0 3 -1 3
-2 0 -1 1 -1 3 -2 1 0 7 0 14 -1 10 -1 15 -1 27 3 18 6 27 13 39 35 10 18 16
22 29 22 12 0 20 -5 23 -14 4 -15 10 -28 12 -30 2 -1 3 -3 3 -4 0 -1 4 -4 9
-7 8 -5 9 -5 60 -5 l53 0 6 -5 c6 -7 14 -27 16 -41 0 -8 0 -10 -4 -14 -6 -6
-17 -7 -26 -2 -5 3 -10 3 -18 2 -21 -2 -21 -1 -51 -62 -29 -58 -33 -65 -48
-91 -5 -9 -9 -17 -9 -17 0 -1 -4 -8 -15 -26 -2 -2 -5 -8 -8 -13 -6 -9 -28 -41
-32 -45 -1 -2 -5 -6 -9 -11 -4 -5 -13 -15 -20 -23 -7 -7 -14 -16 -16 -18 -2
-5 -10 -39 -9 -39 1 0 -1 -2 -2 -4 -3 -2 -6 -3 -11 -3 -31 4 -43 -2 -42 -21 0
-6 1 -13 3 -16 2 -3 5 -8 7 -11 2 -3 6 -10 8 -15 13 -23 24 -43 37 -69 17 -36
18 -37 25 -55 9 -22 15 -27 30 -28 14 0 17 1 31 15 5 6 16 14 22 19 7 4 17 13
22 19 18 23 24 25 87 25 40 0 51 2 63 9 5 3 23 9 28 9 8 0 12 -8 10 -25 -1
-19 -9 -45 -16 -55 -6 -8 -11 -26 -17 -57 -6 -29 -5 -35 1 -48 17 -31 16 -29
12 -36 -2 -4 -7 -8 -13 -10 -5 -3 -11 -7 -13 -9 -7 -6 -18 -8 -23 -4 -6 5 -25
48 -51 119 -5 15 -17 28 -27 31 -13 4 -21 2 -63 -13 -14 -5 -27 -9 -29 -9 -1
0 -5 -1 -9 -3 -3 -1 -10 -4 -15 -6 -28 -10 -39 -19 -53 -40 -9 -12 -12 -15
-22 -16 -10 -1 -24 -8 -28 -14 -4 -6 -4 -25 0 -34 2 -3 4 -9 6 -13 1 -4 3 -9
4 -12 2 -5 14 -38 17 -45 1 -2 5 -12 9 -21 4 -9 9 -23 13 -30 3 -6 6 -13 6
-13 0 -4 43 -89 55 -109 2 -4 5 -9 7 -12 7 -13 22 -38 33 -54 18 -27 19 -39 4
-59 -14 -22 -14 -37 0 -67 13 -26 15 -40 9 -62 0 -3 -1 -18 -1 -34 -1 -26 -2
-29 -6 -34 -3 -3 -6 -4 -12 -4 -10 1 -16 6 -23 21 -11 23 -12 27 -12 44 1 15
-4 35 -8 35 0 -1 -4 0 -9 1 -11 2 -21 -2 -33 -13 -19 -18 -27 -25 -39 -34 -10
-8 -14 -15 -16 -25 0 -6 -7 -15 -9 -14 -1 1 -2 0 -2 -1 0 -2 -1 -2 -1 -1 -2 2
-7 -4 -8 -10 -1 -5 0 -5 6 -5 4 0 7 1 7 2 0 1 1 2 2 1 1 -1 2 0 2 1 0 1 1 2 2
1 1 -1 3 0 5 2 3 4 6 2 9 -7 2 -7 2 -9 -1 -15 -4 -9 -6 -24 -4 -34 1 -5 4 -8
12 -15 6 -4 12 -9 13 -10 2 -2 6 -6 10 -9 23 -19 99 -93 110 -107 6 -8 16 -12
29 -12 11 0 13 1 23 8 6 4 11 9 12 10 1 0 4 3 8 6 4 3 12 11 19 17 7 6 13 11
13 11 1 0 7 25 7 30 0 2 -19 11 -28 14 -13 3 -18 8 -21 19 -5 22 8 39 29 38
15 -1 23 -6 27 -20 4 -12 8 -22 11 -24 2 -1 3 -2 2 -3 -1 -2 30 4 31 6 1 2 17
21 18 22 10 9 14 18 14 30 0 14 -1 16 -22 32 -8 7 -8 8 -8 17 0 13 6 19 19 19
7 0 11 -1 17 -6 8 -6 35 -20 47 -24 4 -1 11 -4 14 -7 4 -2 9 -4 16 -4 15 -1
23 5 31 22 7 15 10 17 24 18 9 1 10 1 14 -5 4 -7 7 -22 9 -43 3 -26 13 -43 34
-53 35 -17 47 -20 58 -18 5 2 10 2 10 2 1 -2 19 18 19 20 0 2 12 7 16 7 5 0
10 -7 10 -14 0 -4 1 -7 2 -8 1 -1 2 -2 1 -3 -2 -3 7 -14 14 -17 6 -3 12 -3 27
-2 23 2 23 1 40 -14 10 -10 24 -18 36 -20 4 -1 10 -2 13 -3 7 -2 33 -6 61 -9
5 -1 12 -2 15 -2 14 -3 92 -10 130 -12 11 -1 28 -1 38 -2 10 -1 53 -2 96 -2
l78 -2 11 5 c10 5 20 14 20 19 0 1 2 5 5 9 3 4 4 8 4 8 -1 1 1 3 4 6 7 6 21 6
28 0 3 -3 5 -5 4 -6 0 0 1 -4 4 -8 3 -4 5 -8 5 -9 0 -5 10 -14 19 -18 l11 -5
84 0 85 1 9 5 c5 2 13 9 19 14 18 19 36 19 57 0 5 -4 14 -11 20 -14 l11 -5 70
0 70 0 9 6 c8 4 20 18 20 22 0 1 3 5 6 9 3 4 8 16 11 26 3 10 7 17 7 17 3 -2
1 3 -2 7 -4 4 -11 4 -19 0 -6 -3 -12 -4 -22 -1 -7 2 -11 8 -12 21 -1 10 -1 12
3 16 4 4 6 4 16 3 13 -1 15 -3 22 -12 l5 -8 16 -1 c19 0 22 2 28 29 0 1 4 10
7 19 14 35 6 53 -25 54 -27 1 -36 8 -36 28 0 15 4 20 17 28 l10 5 0 14 c0 19
-1 22 -9 24 -13 3 -93 1 -113 -2 -12 -2 -24 -3 -34 -2 -66 5 -74 4 -92 -16 -7
-6 -12 -12 -12 -13 0 -3 -13 -9 -22 -9 -11 0 -21 6 -27 15 -4 7 -16 17 -26 21
-9 4 -94 4 -108 1 -8 -3 -19 -8 -21 -10 -2 -3 -14 -8 -20 -8 -4 0 -13 3 -22 9
-25 14 -37 10 -52 -16 -5 -8 -10 -16 -12 -18 -4 -5 -18 -12 -32 -16 -12 -3
-35 -16 -37 -20 0 -1 -1 -1 -1 1 0 2 -1 2 -3 0 -2 -2 -2 -4 1 -9 4 -6 5 -10 6
-16 0 -1 2 -4 5 -7 4 -5 11 -20 11 -25 0 -5 -7 -10 -14 -10 -9 1 -24 9 -34 19
-15 15 -14 27 5 41 3 2 7 6 9 7 3 2 5 3 6 3 2 -1 2 1 1 7 -1 4 -2 11 -2 16 -2
29 -14 48 -33 54 -4 1 -23 2 -43 3 -20 1 -39 2 -43 2 -24 2 -39 1 -51 -3 -6
-3 -13 -7 -15 -9 -6 -5 -18 -9 -25 -9 -7 0 -12 3 -26 16 -22 20 -60 29 -73 16
-2 -2 -4 -3 -4 -2 0 2 -8 -10 -12 -19 -2 -4 -5 -10 -8 -12 -3 -3 -4 -3 -7 1
-2 2 -4 8 -4 13 -2 29 -13 41 -39 41 -17 0 -24 -6 -26 -26 -2 -10 -2 -16 0
-19 5 -11 -7 -20 -38 -31 l-11 -3 -5 5 c-3 3 -6 10 -8 16 -3 6 -7 18 -11 26
-6 11 -8 17 -8 28 -1 17 -6 32 -13 39 -2 3 -14 10 -25 15 -57 27 -87 44 -93
52 -6 8 -5 18 2 39 16 46 34 104 43 141 2 7 4 14 4 16 9 33 9 36 6 54 -1 5 -3
9 -6 11 -5 3 -22 2 -27 -2 -13 -12 -33 10 -19 23 7 7 16 5 24 -6 4 -4 7 -7 7
-6 0 2 4 2 14 2 11 -1 15 0 18 2 3 3 19 76 28 131 1 7 2 15 3 18 1 3 2 12 3
19 1 7 4 24 6 37 2 13 4 29 5 34 1 6 1 13 2 17 7 51 6 59 -7 74 -1 3 -11 8
-21 13 -20 9 -22 11 -23 19 -1 12 0 16 11 26 14 15 15 18 20 27 5 12 26 33 31
33 1 0 2 6 2 14 0 12 -1 14 -6 19 -8 8 -19 10 -38 7 -15 -2 -16 -2 -27 3 -6 3
-11 6 -11 7 0 1 -6 4 -13 8 -20 8 -50 14 -77 14 -22 0 -32 2 -37 8 -4 5 9 35
21 48 13 16 25 38 70 129 28 56 35 74 33 86 -1 3 -5 14 -9 24 -7 20 -9 32 -3
42 3 7 8 10 25 13 16 3 33 12 38 19 8 13 26 56 26 65 0 15 -8 29 -24 39 -8 6
-15 11 -17 12 -1 1 -9 7 -17 12 -8 5 -16 11 -18 12 -1 2 -3 3 -4 3 -1 0 -3 2
-5 4 -26 23 -46 24 -64 3 -6 -6 -14 -14 -19 -17 -11 -7 -20 -16 -27 -28 -2 -5
-8 -12 -11 -15 -13 -13 -38 -4 -38 13 -1 14 0 16 13 29 13 12 17 19 17 29 0
11 -6 17 -17 19 -12 3 -17 2 -27 -1z m-184 -58 c1 0 5 -3 8 -6 11 -11 7 -37
-7 -41 -2 -1 -9 -4 -15 -8 -12 -7 -16 -8 -16 -4 0 1 -1 -1 -3 -6 -1 -4 -2 -9
-2 -10 1 -1 -2 -6 -6 -10 -8 -9 -14 -9 -19 -1 -3 5 -2 6 1 13 4 8 9 13 13 14
5 0 8 3 7 5 -1 2 0 3 1 4 2 1 2 2 1 2 -2 0 -2 2 -1 9 1 4 3 13 4 18 1 12 4 17
12 20 5 2 8 2 22 1z m149 -93 c5 -5 5 -5 4 -25 -2 -34 1 -39 33 -49 15 -5 20
-11 15 -20 -2 -4 -5 -8 -8 -9 -7 -3 -33 -3 -48 0 -20 4 -24 11 -19 34 2 13 1
30 -5 43 -7 18 -1 31 15 31 6 0 9 -1 13 -5z m130 -145 c9 -9 5 -29 -7 -34 -10
-5 -37 -9 -50 -7 -14 2 -20 7 -20 18 0 13 5 16 33 22 31 6 38 6 44 1z m-178
-140 c7 -6 7 -19 1 -25 -6 -7 -19 -7 -25 -1 -7 6 -7 19 -1 25 6 7 19 7 25 1z
m30 -162 c6 -6 6 -15 0 -24 -4 -7 -9 -9 -22 -10 -14 0 -22 14 -14 28 5 10 28
13 36 6z m94 -28 c27 -11 44 -40 30 -53 -3 -3 -6 -5 -8 -5 -5 0 -34 -12 -39
-17 -15 -13 -18 -15 -31 -15 -17 0 -23 5 -24 18 -2 18 0 23 14 34 8 5 17 15
22 20 15 20 22 23 36 18z m-241 -8 c5 -6 5 -12 0 -18 -7 -8 -22 -2 -22 9 0 11
15 17 22 9z m-39 -127 c5 -8 1 -16 -8 -16 -9 0 -13 8 -8 16 2 3 5 5 8 5 3 0 6
-2 8 -5z m347 -3 c5 -5 5 -15 0 -20 -9 -9 -24 -2 -24 10 0 8 6 14 14 14 3 0 8
-2 10 -4z m-59 -109 c3 -5 3 -5 0 -10 -2 -3 -5 -5 -7 -5 -2 0 -5 2 -7 5 -3 5
-3 5 0 10 2 3 5 5 7 5 2 0 5 -2 7 -5z m18 -153 c11 -10 3 -28 -11 -28 -9 0
-16 6 -16 16 0 14 17 22 27 12z m-31 -139 c3 -3 4 -7 4 -14 0 -13 -6 -19 -19
-19 -13 0 -19 6 -19 19 0 7 1 11 4 14 7 8 23 8 30 0z m-175 -51 c4 -1 9 -3 12
-3 39 -8 45 -12 45 -30 0 -10 -1 -12 -6 -17 -7 -7 -14 -8 -55 -1 -37 5 -38 6
-38 28 0 14 0 16 6 20 6 6 22 7 36 3z m17 -186 c4 -4 4 -4 1 -13 -2 -5 -6 -10
-8 -11 -6 -3 -10 -13 -10 -24 0 -9 1 -11 6 -24 3 -7 3 -8 0 -13 -8 -10 -16 -3
-16 12 0 5 0 9 -1 9 -1 0 -2 1 -2 2 1 3 -3 10 -13 22 -10 12 -11 15 -11 23 0
16 11 23 36 22 11 0 15 -1 18 -5z m253 -137 c3 -5 3 -5 0 -10 -5 -6 -10 -6
-14 0 -3 5 -3 5 0 10 5 6 9 6 14 0z m781 -12 c5 -5 5 -14 0 -29 -5 -13 -5 -33
-2 -46 4 -13 -2 -29 -12 -33 -9 -4 -21 -5 -28 -2 -19 8 -23 34 -7 52 3 5 7 10
9 13 4 7 10 28 10 35 0 10 7 16 18 14 4 0 10 -2 12 -4z m-611 -16 c2 -2 4 -6
5 -13 1 -13 -5 -20 -16 -20 -11 0 -17 7 -16 20 1 10 4 14 12 17 5 3 7 2 15 -4z
m919 1 c2 -2 5 -8 7 -13 2 -6 5 -12 6 -15 2 -3 3 -7 3 -9 0 -6 6 -9 20 -9 13
0 19 3 28 13 9 10 33 11 42 1 5 -4 8 -15 8 -29 0 -7 -1 -10 -5 -14 -5 -5 -6
-5 -20 -4 -10 0 -17 2 -20 4 -11 8 -18 11 -26 11 -8 0 -23 -6 -29 -11 -1 -2
-9 -7 -18 -11 -8 -5 -23 -13 -32 -18 -9 -6 -17 -10 -18 -10 -2 0 -10 -7 -23
-18 -5 -6 -11 -10 -12 -10 -2 0 -3 -1 -3 -2 0 -2 -10 -2 -18 0 -10 3 -14 8
-16 19 -2 14 -9 32 -15 39 -2 3 -6 8 -8 12 -3 7 -2 8 2 12 4 4 7 4 22 4 31 0
34 0 51 2 20 3 27 5 36 12 8 6 16 24 17 35 1 12 13 17 21 9z m-549 -25 c5 -8
1 -16 -8 -16 -9 0 -13 8 -8 16 2 3 5 5 8 5 3 0 6 -2 8 -5z m-76 -7 c7 -6 7
-19 1 -25 -6 -7 -19 -7 -25 -1 -7 6 -7 19 -1 25 6 7 19 7 25 1z m396 -67 c12
-7 14 -33 3 -43 -8 -9 -32 -9 -40 0 -9 8 -9 29 0 40 6 8 27 9 37 3z m-572 -21
c7 -6 7 -19 1 -25 -6 -7 -19 -7 -25 -1 -7 6 -7 19 -1 25 6 7 19 7 25 1z m163
-4 c9 -9 2 -24 -10 -24 -3 0 -8 2 -10 4 -9 9 -2 24 10 24 3 0 8 -2 10 -4z"/>
<path d="M856 3706 c-3 -1 -13 -5 -23 -9 -15 -6 -19 -7 -26 -6 -16 3 -32 2
-40 -3 -7 -4 -7 -5 -7 -15 0 -6 1 -11 2 -12 1 -1 3 -8 5 -15 l3 -13 -7 -22 -7
-23 0 -64 c1 -58 1 -66 5 -75 5 -13 5 -35 0 -48 -4 -9 -4 -18 -5 -113 0 -128
0 -127 25 -125 l13 2 0 -9 0 -9 -12 1 c-7 1 -14 1 -16 1 -3 -2 -8 -11 -7 -16
0 -1 0 -3 -1 -2 -3 2 -6 -9 -4 -13 1 -2 3 -4 4 -4 0 0 1 -2 1 -4 1 -9 11 -18
28 -26 19 -9 21 -12 21 -25 0 -9 -1 -10 -13 -23 -15 -15 -18 -20 -30 -59 l-9
-28 0 -76 c0 -91 0 -90 19 -111 22 -24 22 -40 0 -64 -15 -17 -19 -27 -19 -52
0 -14 1 -22 6 -38 7 -25 7 -29 0 -54 l-6 -20 0 -67 c0 -73 -1 -67 11 -97 6
-17 16 -34 21 -39 11 -11 11 -11 134 -11 l113 1 11 5 c6 3 13 8 16 10 4 3 10
8 15 12 25 19 30 28 35 57 2 11 4 21 4 23 3 10 22 14 29 6 5 -5 5 -7 11 -66 3
-28 7 -37 21 -44 9 -4 11 -4 134 -4 l126 0 19 6 c22 6 30 6 55 -1 16 -5 20 -5
60 -5 49 0 55 1 62 15 4 8 8 22 7 26 -4 14 5 25 19 25 11 0 15 -2 22 -17 6
-12 17 -25 24 -27 5 -2 10 -3 30 -11 36 -14 38 -14 71 1 10 5 20 9 22 9 17 3
33 17 38 31 3 9 3 211 0 220 -3 10 -14 19 -26 23 -12 4 -13 4 -20 5 -13 0 -22
17 -18 34 2 12 7 16 23 19 23 5 35 13 40 27 2 5 3 55 3 192 0 175 0 185 -4
193 -4 10 -13 18 -26 23 -25 12 -25 29 1 42 11 5 18 12 24 24 4 9 4 9 4 142 0
133 0 133 -4 141 -4 8 -18 21 -21 21 -1 0 -6 2 -10 5 -4 3 -8 4 -8 4 -1 -1 -3
1 -5 4 -5 4 -6 9 -5 19 0 5 10 18 13 18 5 0 11 34 7 39 -1 1 -2 4 -2 7 -1 13
0 15 13 28 18 17 22 26 23 50 0 16 0 22 -3 28 -4 10 -14 22 -18 22 -2 0 -3 1
-3 2 0 3 -12 3 -95 3 l-84 0 -9 -6 c-5 -4 -10 -9 -13 -15 -7 -14 -8 -18 -9
-24 0 -7 -8 -14 -17 -16 -18 -4 -35 5 -35 18 0 3 -1 6 -2 6 -1 0 -2 3 -4 8 -1
4 -4 8 -6 10 -6 3 -28 8 -33 7 -7 -3 -14 -1 -35 6 l-20 7 -59 0 c-51 0 -60 0
-67 -3 -8 -4 -21 -17 -23 -23 -1 -2 -4 -5 -7 -7 -5 -3 -7 -3 -12 0 -3 2 -6 5
-7 7 -1 2 -5 8 -10 13 -14 15 -26 13 -63 -11 -8 -6 -17 -13 -19 -17 -4 -6 -10
-24 -12 -37 -2 -12 -9 -16 -24 -16 -18 0 -24 5 -24 22 -1 16 1 21 13 28 l9 5
0 14 c-1 18 -2 23 -8 24 -2 1 -44 1 -92 1 -87 -1 -88 -1 -96 -5 -9 -6 -23 -21
-30 -32 -4 -8 -7 -9 -18 -6 -7 2 -21 11 -21 13 0 3 -18 20 -25 24 -8 4 -24 7
-31 4z m565 -56 c5 -5 6 -7 6 -16 0 -15 -8 -23 -23 -23 -9 0 -11 1 -16 7 -9 8
-9 23 -1 32 9 9 24 9 34 0z m335 -8 c1 0 5 -3 8 -6 5 -5 6 -7 6 -18 0 -11 -1
-13 -6 -18 -6 -6 -7 -6 -21 -6 -8 0 -17 5 -18 10 -1 2 -2 4 -3 4 -3 0 0 20 3
25 2 3 6 6 9 8 5 2 8 2 22 1z m-784 -12 c4 -6 4 -6 1 -11 -5 -6 -9 -6 -14 0
-3 5 -3 6 0 12 4 8 7 7 13 -1z m-115 -23 c12 -12 3 -31 -13 -31 -11 0 -18 7
-18 18 0 11 7 18 18 18 6 0 9 -1 13 -5z m659 -16 l-5 -5 -4 4 -5 5 4 4 5 5 4
-4 5 -5 -4 -4z m162 1 c6 -5 6 -17 0 -21 -11 -7 -24 -1 -24 11 0 12 14 18 24
10z m-365 -35 c6 -4 7 -6 12 -24 2 -7 8 -20 13 -29 7 -11 10 -18 9 -21 0 -3 0
-5 1 -5 0 0 3 -5 5 -12 3 -12 8 -17 19 -23 5 -3 18 -3 97 -3 l92 1 6 -6 6 -6
-1 -230 c0 -166 0 -232 2 -238 5 -17 27 -31 48 -30 7 0 13 1 14 2 2 1 4 2 5 2
4 1 14 9 19 16 3 5 10 10 19 14 18 8 32 18 36 23 4 7 16 14 24 14 14 0 15 0
21 -6 5 -5 6 -7 6 -17 0 -6 -1 -13 -2 -15 -2 -4 -22 -18 -26 -18 -1 0 -19 -17
-26 -25 -9 -11 -12 -12 -39 -11 -18 0 -26 -3 -40 -16 -7 -7 -14 -12 -15 -12
-11 -1 -30 -10 -36 -17 -10 -11 -10 -12 -10 -127 0 -133 -1 -129 26 -130 10
-1 14 0 15 1 1 3 18 11 22 11 1 0 4 -2 5 -5 3 -4 4 -6 2 -17 -4 -25 0 -35 22
-51 8 -6 11 -10 19 -26 16 -33 18 -44 11 -51 -8 -8 -22 -3 -37 11 -3 3 -8 7
-10 9 -3 2 -13 11 -22 20 -9 9 -19 17 -23 19 -10 4 -24 15 -24 18 0 2 -3 10
-7 18 l-7 15 -14 0 c-13 0 -14 0 -21 -8 -8 -9 -11 -15 -15 -27 -7 -22 -17 -47
-18 -46 -1 1 -4 2 -6 2 -3 1 -5 2 -6 3 0 1 -4 3 -7 5 -4 2 -8 5 -9 7 -3 6 -2
19 2 28 2 5 3 10 3 18 -1 15 -1 16 -7 21 -8 6 -11 6 -71 6 -10 -1 -54 0 -99 0
-75 1 -82 1 -88 -2 -9 -5 -12 -11 -11 -24 0 -9 -1 -11 -3 -11 -2 0 -2 -1 1 -2
7 -3 10 -8 10 -18 0 -15 -8 -23 -23 -23 -15 0 -23 8 -23 23 0 10 3 15 10 18 3
1 3 2 1 2 -2 0 -3 2 -3 11 1 22 -6 27 -46 27 -37 0 -43 -2 -53 -23 -4 -8 -8
-15 -9 -15 -2 0 -3 -1 -2 -2 0 -2 -1 -3 -3 -3 -2 0 -3 1 -2 3 0 1 -1 2 -3 2
-3 0 -9 17 -9 26 0 3 -1 10 -3 15 -2 7 -3 21 -3 48 0 48 -2 51 -27 56 l-12 2
-18 -9 c-10 -5 -23 -13 -29 -18 -10 -7 -11 -8 -23 -8 -25 0 -30 14 -20 60 1 3
2 10 3 16 5 22 14 25 49 13 12 -4 25 -7 28 -8 4 -1 7 -2 8 -3 1 -2 26 3 31 6
10 7 10 -2 10 210 0 215 0 208 -12 221 -3 4 -10 10 -16 14 -14 8 -16 12 -16
23 0 11 2 15 16 23 28 18 28 20 28 115 l-1 75 6 6 c3 3 5 7 5 8 0 2 1 3 2 3 6
-2 26 25 26 35 0 1 3 5 6 8 5 5 8 6 16 6 8 0 11 -1 16 -6 3 -3 6 -7 6 -8 0 -5
13 -27 19 -32 11 -8 18 -9 73 -9 l51 1 9 6 c6 4 11 10 15 17 6 13 6 20 -3 46
-9 28 -8 43 6 49 8 3 21 2 27 -2z m-410 -31 c11 -3 23 -5 40 -5 32 -1 38 -5
38 -27 0 -21 -6 -25 -35 -28 -17 -1 -23 -3 -36 -9 -36 -17 -53 -5 -51 37 1 26
5 31 27 36 1 0 8 -2 17 -4z m876 -187 c5 -8 1 -16 -8 -16 -9 0 -13 8 -8 16 2
3 5 5 8 5 3 0 6 -2 8 -5z m-95 -42 c25 -12 29 -45 4 -50 -4 -1 -8 -2 -10 -2
-5 -1 -28 3 -34 6 -15 8 -14 43 1 49 14 5 23 4 39 -3z m-741 -104 c4 -4 5 -7
5 -15 0 -14 -6 -20 -20 -20 -14 0 -20 6 -20 20 0 14 6 20 20 20 8 0 11 -1 15
-5z m-125 -27 c12 -12 -3 -30 -18 -22 -5 3 -6 21 0 24 5 3 14 2 18 -2z m90
-97 l6 -6 -4 -5 c-6 -7 -18 -8 -26 -1 -6 5 -6 5 -2 10 6 9 17 9 26 2z m-80
-129 c5 -5 5 -11 0 -16 -10 -10 -27 5 -16 16 4 4 12 4 16 0z m125 -5 c15 -7
19 -10 21 -21 2 -9 -2 -29 -11 -54 -6 -16 -10 -20 -23 -20 -12 0 -20 6 -20 16
0 13 -8 42 -16 53 -4 8 -3 23 2 28 7 7 29 6 47 -2z m833 -61 c15 -7 20 -20 13
-32 -8 -13 -41 -19 -52 -9 -6 4 -6 6 -6 20 0 14 0 16 6 20 7 7 25 7 39 1z m-3
-105 c12 -7 14 -33 3 -43 -8 -9 -32 -9 -40 0 -9 8 -9 32 0 41 7 7 27 8 37 2z
m5 -222 c3 -3 4 -7 4 -14 0 -13 -6 -19 -19 -19 -13 0 -19 6 -19 19 0 7 1 11 4
14 7 8 23 8 30 0z m-871 -10 c3 -5 3 -5 0 -10 -2 -3 -5 -5 -7 -5 -2 0 -5 2 -7
5 -3 5 -3 5 0 10 2 3 5 5 7 5 2 0 5 -2 7 -5z m399 -18 c5 -5 5 -7 5 -30 0 -23
0 -25 -5 -30 -3 -3 -7 -5 -11 -5 -4 0 -8 2 -11 5 -5 5 -5 7 -5 30 0 23 0 25 5
30 3 3 7 5 11 5 4 0 8 -2 11 -5z m-276 -27 c5 -5 6 -7 6 -17 0 -9 -1 -12 -10
-24 -5 -8 -12 -19 -15 -25 -6 -14 -13 -19 -19 -13 -3 4 -3 6 -2 19 1 8 1 24 1
34 l-2 20 7 6 c8 9 25 9 34 0z m369 -3 c3 -5 3 -5 0 -10 -2 -3 -5 -5 -7 -5 -2
0 -5 2 -7 5 -3 5 -3 5 0 10 2 3 5 5 7 5 2 0 5 -2 7 -5z m105 -10 c7 -4 14 -13
14 -20 0 -12 -15 -17 -24 -9 -5 5 -5 16 0 27 3 6 3 6 10 2z m-672 -13 c1 0 5
-3 8 -6 5 -5 6 -7 6 -18 0 -11 -1 -13 -6 -18 -6 -6 -7 -6 -18 -6 -11 0 -12 0
-18 6 -5 5 -6 7 -6 17 0 14 3 20 12 24 5 2 8 2 22 1z m639 -62 c11 -10 3 -28
-11 -28 -9 0 -16 6 -16 16 0 14 17 22 27 12z"/>
<path d="M1096 3370 c-3 -1 -6 -1 -7 0 0 0 -1 0 -1 -2 0 -1 -1 -2 -3 -2 -4 0
-14 -12 -18 -21 -2 -6 -3 -14 -3 -34 0 -38 3 -44 28 -52 6 -2 14 -4 17 -3 11
1 18 -8 16 -20 -1 -11 -2 -19 -3 -19 0 -1 -1 -2 -1 -2 -2 -8 -3 -9 -10 -5 -4
3 -7 5 -7 6 0 1 -1 2 -1 1 -1 0 -6 -1 -12 -2 -12 -2 -18 -6 -23 -15 -4 -8 -4
-11 -4 -47 1 -42 0 -36 16 -68 7 -13 7 -14 4 -50 -2 -23 -2 -27 -10 -44 -8
-19 -9 -21 -9 -38 0 -16 1 -20 8 -37 9 -24 9 -28 0 -52 l-8 -19 -1 -75 c0 -65
0 -76 3 -83 4 -9 14 -21 18 -21 2 0 3 -1 3 -2 0 -2 1 -2 47 -3 38 -1 42 -1 50
3 4 2 9 6 11 8 3 6 8 28 6 29 -3 2 -2 21 1 28 6 12 24 19 47 19 11 1 20 -8 20
-18 0 -8 -6 -28 -9 -29 -3 -1 -1 -27 3 -32 5 -9 7 -9 125 -8 115 0 117 1 117
3 0 1 1 2 3 2 4 0 14 12 18 21 5 13 4 83 -2 93 -3 6 -17 20 -19 20 -3 0 -19
15 -25 24 -23 35 -34 48 -47 56 -17 11 -21 24 -11 34 10 9 20 5 38 -16 4 -6
12 -13 18 -17 6 -4 11 -8 11 -9 0 -2 27 1 31 4 6 4 9 20 9 54 0 31 -2 41 -10
48 -4 4 -30 10 -31 7 0 -1 -5 -2 -11 -2 -15 0 -23 8 -23 23 0 9 1 11 6 16 7 5
25 16 28 15 2 0 9 12 13 26 5 16 9 24 17 38 5 8 6 12 5 21 0 10 -1 11 -11 21
-17 17 -18 19 -11 29 3 4 7 8 8 8 1 0 2 7 2 18 0 17 0 17 -7 21 -3 3 -8 6 -10
8 -3 2 -6 3 -8 4 -2 0 -8 2 -12 3 -5 1 -11 1 -14 1 -34 -4 -32 -4 -39 3 -5 5
-6 7 -6 16 0 12 3 17 14 28 4 4 10 12 14 17 4 6 8 12 10 14 5 5 10 22 10 32
-1 7 -2 10 -6 14 -8 6 -19 12 -27 12 -8 0 -26 -9 -34 -16 -9 -8 -17 -12 -27
-12 -10 0 -18 4 -27 12 -3 3 -11 8 -17 11 l-11 5 -107 0 c-59 1 -109 0 -112
-1z m186 -86 c5 -6 5 -12 0 -18 -6 -7 -51 -11 -57 -6 -7 7 4 16 32 24 16 5 21
5 25 0z m81 -60 c10 -9 3 -26 -10 -26 -8 0 -15 7 -15 15 0 13 16 20 25 11z
m-220 -53 c-4 -1 -8 -2 -10 -3 -4 -2 -6 -2 -9 2 -4 5 -4 11 0 21 l2 5 11 -11
11 -12 -5 -2z m61 1 c6 -5 6 -20 0 -27 -7 -7 -17 -7 -25 1 -4 3 -7 7 -7 8 0 1
-1 2 -2 2 -1 0 -2 2 -2 4 0 5 5 10 11 10 1 0 3 1 3 2 0 5 16 5 22 0z m103 -25
l6 -6 -1 -23 c-1 -37 3 -46 30 -61 22 -12 22 -22 0 -34 -29 -17 -30 -20 -29
-86 0 -26 1 -57 3 -68 3 -19 3 -21 -1 -25 -7 -9 -26 -13 -41 -8 -12 4 -14 8
-14 26 0 19 -5 35 -15 50 -21 31 -26 47 -19 56 2 2 5 4 7 4 2 0 6 2 8 4 3 2 7
4 8 4 4 0 9 11 9 20 0 11 -4 16 -11 16 -2 0 -7 1 -10 2 -3 1 -5 1 -5 0 0 -2
-5 -2 -15 -2 -12 1 -15 2 -21 7 -19 15 -41 27 -49 27 -1 0 -5 3 -8 6 -5 5 -6
8 -6 16 0 23 19 29 45 15 13 -7 29 -12 43 -14 4 0 8 -2 9 -3 2 -2 4 -1 22 4 9
3 17 12 19 20 1 4 1 16 1 27 -1 20 -1 20 5 26 8 9 21 9 30 0z m44 -408 c3 -3
3 -3 0 -6 -4 -5 -11 1 -7 6 4 4 4 4 7 0z"/>
</g>
</svg>
