<?xml version="1.0" standalone="no"?>
<!DOCTYPE svg PUBLIC "-//W3C//DTD SVG 20010904//EN"
 "http://www.w3.org/TR/2001/REC-SVG-20010904/DTD/svg10.dtd">
<svg version="1.0" xmlns="http://www.w3.org/2000/svg"
 width="1100.000000pt" height="2850.000000pt" viewBox="0 0 1100.000000 2850.000000"
 preserveAspectRatio="xMidYMid meet">
<metadata>
Created by potrace 1.15, written by Peter Selinger 2001-2017
</metadata>
<g transform="translate(0.000000,2850.000000) scale(0.500000,-0.500000)"
fill="#000000" stroke="none">
<path d="M279 3785 c-15 -4 -22 -10 -28 -22 -4 -9 -5 -15 -8 -46 -3 -36 -6
-65 -11 -115 -8 -69 -7 -74 18 -92 15 -11 16 -13 16 -25 0 -12 -3 -16 -17 -26
-7 -4 -18 -14 -25 -21 -15 -16 -15 -16 -56 -16 -14 0 -31 -1 -38 -1 -7 0 -20
0 -28 1 -17 0 -22 0 -22 -2 0 -1 -1 -2 -3 -2 -4 0 -14 -12 -18 -21 -4 -9 -4
-53 -1 -63 5 -13 12 -20 29 -28 19 -9 21 -12 21 -24 0 -10 -15 -42 -25 -52
-30 -31 -36 -65 -14 -87 3 -4 7 -7 8 -7 2 0 3 -1 3 -2 0 -1 1 -1 3 -2 1 0 7 0
12 -1 23 -3 36 5 42 25 2 7 3 15 3 18 0 6 6 22 10 25 2 2 6 4 10 6 7 3 8 3 13
-2 8 -8 6 -26 -8 -61 -3 -8 -5 -17 -6 -21 -1 -6 -13 -72 -23 -120 -2 -9 1 -22
9 -41 8 -21 8 -24 -11 -42 -19 -18 -22 -25 -31 -64 -4 -16 -8 -32 -9 -36 -4
-13 4 -34 16 -41 7 -4 15 -25 16 -44 0 -1 2 -7 4 -13 6 -14 6 -23 1 -37 -6
-16 -2 -34 8 -45 7 -8 8 -8 22 -7 11 0 16 1 18 3 1 2 6 6 10 8 l8 4 5 -5 c3
-4 4 -5 2 -7 -4 -6 -7 -19 -7 -32 l0 -13 22 -22 c13 -12 35 -34 50 -48 52 -49
50 -47 49 -65 -2 -10 -8 -21 -40 -74 -8 -14 -18 -31 -21 -39 -7 -16 -12 -23
-26 -32 -6 -4 -15 -12 -20 -17 -35 -36 -61 -62 -76 -73 -4 -3 -9 -7 -10 -8 -1
-1 -8 -7 -16 -12 -8 -5 -15 -11 -16 -12 -2 -2 -6 -5 -10 -7 -5 -3 -13 -8 -18
-11 -6 -4 -11 -7 -12 -7 0 0 -5 -3 -11 -6 -13 -8 -16 -14 -16 -31 0 -11 1 -13
7 -19 3 -4 10 -12 14 -17 4 -5 10 -12 12 -14 2 -3 10 -13 18 -24 18 -24 31
-31 59 -31 18 0 22 -10 13 -34 -3 -10 -5 -17 -4 -25 1 -12 0 -12 20 -42 9 -14
17 -19 32 -19 11 0 13 1 32 13 11 8 22 16 25 18 3 2 7 5 10 7 56 38 136 113
187 174 14 17 26 32 27 33 0 1 4 6 8 11 4 5 16 21 26 36 19 30 19 30 28 31 8
1 15 -5 31 -29 7 -9 12 -17 13 -18 1 -1 4 -5 7 -9 7 -12 12 -15 26 -15 14 -1
21 1 21 5 0 4 8 -4 10 -11 1 -2 2 -46 2 -98 l0 -93 6 -6 c4 -5 7 -6 16 -7 6 0
12 -1 12 -1 1 -1 2 0 2 1 0 2 1 1 2 -2 l2 -5 0 6 c0 3 1 7 2 10 2 2 3 6 3 9 0
3 2 7 3 10 l4 5 22 -8 c13 -4 28 -8 34 -8 13 -2 17 -4 27 -16 4 -4 12 -11 17
-14 l11 -6 228 -1 c250 0 240 -1 256 12 4 3 12 9 16 12 11 9 29 9 40 0 4 -3
12 -9 16 -12 16 -13 1 -12 298 -11 149 0 271 1 273 1 1 0 2 1 2 2 0 1 1 2 3 2
4 0 14 12 18 21 5 12 5 162 -1 177 -4 13 -12 27 -19 33 -2 3 -7 8 -11 13 -10
12 -25 19 -43 19 -12 0 -14 1 -20 6 l-6 6 1 80 c0 104 1 102 -30 106 -3 0 -7
1 -8 2 0 0 -2 0 -3 -2 -4 -5 -21 -4 -26 2 -7 6 -7 22 -1 28 7 7 28 8 28 2 0
-3 1 -3 2 -2 0 1 5 3 10 5 10 2 10 3 10 16 0 9 -3 14 -14 28 -12 14 -14 18
-14 28 0 7 1 9 7 14 5 3 9 6 10 6 2 0 13 8 18 14 10 10 11 18 11 68 l-1 47 -9
20 c-13 25 -13 29 -1 54 15 31 15 54 -2 71 -3 3 -7 6 -8 6 -2 0 -3 1 -3 2 0 3
-11 3 -84 3 -82 0 -78 1 -102 -16 -14 -10 -15 -11 -27 -11 -12 0 -13 1 -27 11
-25 18 0 16 -264 16 l-235 0 -20 -10 c-26 -12 -30 -12 -56 0 -20 10 -20 10
-42 11 -24 0 -41 -2 -45 -7 -2 -2 -3 -8 -2 -17 0 -13 0 -14 -4 -15 -5 0 -5 0
0 -1 8 0 12 -6 12 -17 0 -9 -5 -19 -11 -19 -4 0 -23 -9 -23 -10 0 -1 -1 -2 -3
-2 -1 0 -7 -5 -12 -11 -13 -15 -17 -16 -27 -13 -20 8 -49 10 -58 6 -2 -1 -7
-3 -12 -6 -11 -5 -17 -10 -21 -20 -3 -7 -3 -23 -3 -117 0 -95 0 -110 -3 -117
-2 -4 -4 -7 -5 -7 -1 1 -2 0 -2 -2 0 -3 -1 -3 -3 1 -5 11 -21 27 -28 30 -8 3
-28 2 -35 -1 -4 -2 -15 -3 -35 -4 -17 0 -33 -1 -37 -1 -12 -1 -14 0 -20 6 -5
5 -6 7 -6 18 0 11 1 13 6 18 3 3 7 6 9 6 7 1 16 0 25 -1 20 -2 38 16 38 37 0
5 4 23 9 39 5 17 9 34 9 40 0 8 -6 27 -12 38 -4 6 -3 20 1 26 2 2 9 8 15 13 7
4 12 9 12 10 0 1 1 3 3 5 6 5 11 23 18 60 8 39 9 53 4 64 -3 8 -5 9 -19 10 -9
1 -12 0 -14 -2 -1 -2 -6 -3 -11 -3 -11 0 -17 6 -17 18 0 12 5 16 17 16 8 0 10
-1 13 -6 5 -6 5 -6 20 -6 19 1 25 6 27 25 0 3 2 12 3 19 8 50 3 63 -28 75 -14
6 -18 9 -18 18 0 7 6 12 16 15 16 4 27 9 32 14 7 6 16 27 17 38 7 69 7 86 0
94 -2 1 -3 3 -3 4 0 2 -22 10 -32 11 -12 2 -18 8 -18 17 0 11 6 18 25 28 30
15 41 30 44 56 0 7 1 30 2 50 1 20 2 40 2 43 1 3 0 9 -1 13 -8 26 -21 34 -63
38 -13 1 -27 3 -31 3 -85 11 -115 10 -122 -3 -5 -10 -7 -29 -3 -33 2 -2 3 -7
3 -13 0 -14 -6 -20 -20 -20 -14 0 -20 6 -20 20 0 5 1 11 3 12 3 3 1 22 -3 30
-4 7 -12 11 -24 12 -14 0 -21 7 -20 18 0 4 -2 14 -5 23 -8 25 -9 32 -1 48 7
14 7 15 7 39 0 24 0 25 6 35 21 35 24 63 11 87 -14 25 -15 28 -14 39 1 5 3 13
5 16 5 7 5 21 1 25 -5 5 -9 6 -19 3 -17 -5 -29 -3 -53 13 -3 1 -6 3 -7 3 -1 1
-6 2 -12 5 -7 2 -16 4 -31 4 -11 0 -22 1 -24 1 -2 0 -18 1 -36 2 -18 1 -33 2
-34 2 -1 0 -5 -1 -9 -2z m41 -105 c5 -5 5 -15 0 -20 -9 -9 -24 -2 -24 10 0 8
6 14 14 14 3 0 8 -2 10 -4z m115 -17 c6 -4 6 -5 6 -22 0 -29 -8 -41 -28 -41
-7 0 -10 1 -14 5 -12 12 -12 49 1 59 7 6 28 6 35 -1z m120 -474 c3 -5 3 -5 0
-10 -2 -3 -5 -5 -7 -5 -2 0 -5 2 -7 5 -3 5 -3 5 0 10 2 3 5 5 7 5 2 0 5 -2 7
-5z m-226 -51 c3 -3 3 -4 1 -10 -3 -7 -10 -13 -47 -39 -11 -7 -24 -16 -28 -19
-8 -6 -11 -7 -21 -7 -19 0 -27 8 -27 27 0 16 4 20 25 31 11 5 20 11 22 12 10
8 28 11 54 10 13 -1 18 -2 21 -5z m157 -13 l5 -5 -2 -25 c-3 -27 -12 -104 -14
-114 -8 -44 -9 -75 -2 -80 2 -2 3 -3 2 -3 -1 0 -1 -1 0 -2 4 -4 26 -5 28 -1 4
5 11 3 15 -3 2 -5 2 -6 -1 -11 -3 -5 -13 -7 -13 -3 0 4 -12 8 -26 8 -8 0 -13
-1 -13 -2 1 -1 0 -2 -1 -2 -3 0 -7 -10 -11 -29 -16 -86 -22 -99 -37 -87 -3 2
-9 6 -14 8 -17 10 -20 15 -22 37 -2 24 -5 30 -21 38 -7 4 -14 7 -17 7 -3 0 -8
2 -11 5 -6 4 -6 6 -6 20 0 14 0 16 6 20 5 5 7 5 27 5 12 0 23 0 27 2 9 4 18
14 20 24 0 1 2 10 4 18 4 18 24 122 26 132 0 4 2 14 4 22 1 7 2 14 2 14 -1 0
2 3 5 6 6 5 8 6 21 6 12 0 14 -1 19 -5z m179 -13 c5 -5 6 -7 6 -16 0 -15 -8
-23 -23 -23 -9 0 -11 1 -16 7 -9 8 -9 23 -1 32 9 9 24 9 34 0z m-434 -107 c5
-8 1 -16 -8 -16 -9 0 -13 8 -8 16 2 3 5 5 8 5 3 0 6 -2 8 -5z m411 -66 c9 -5
13 -20 9 -37 -3 -18 -42 -20 -50 -3 -4 8 -4 24 0 32 6 12 26 16 41 8z m-72
-156 c7 -4 11 -9 14 -19 2 -8 2 -11 -4 -28 -12 -37 -8 -73 12 -94 17 -18 17
-31 2 -67 -9 -21 -16 -27 -33 -28 -21 -1 -34 16 -29 38 3 11 13 37 18 46 4 7
5 33 2 42 -1 3 -3 11 -4 17 -4 25 -6 33 -14 44 -9 12 -9 33 0 43 7 8 24 11 36
6z m715 -38 c12 -12 3 -31 -13 -31 -11 0 -18 7 -18 18 0 11 7 18 18 18 6 0 9
-1 13 -5z m-903 -67 c5 -5 5 -11 0 -16 -10 -10 -27 5 -16 16 4 4 12 4 16 0z
m768 -9 c12 -5 18 -21 14 -36 -5 -19 -23 -25 -46 -16 -7 3 -15 4 -35 4 -35 1
-40 4 -40 24 1 8 2 11 7 16 5 5 7 6 17 5 29 -1 46 -1 54 2 9 4 21 4 29 1z
m208 -4 c6 -7 6 -22 -1 -29 -2 -3 -5 -7 -5 -9 -1 -2 -2 -4 -3 -3 0 0 -3 0 -5
0 -3 0 -4 1 -3 1 0 1 -3 4 -7 7 -10 7 -10 8 -10 19 0 7 1 11 4 14 7 8 23 8 30
0z m-117 -6 c3 -5 3 -5 0 -10 -2 -3 -5 -5 -7 -5 -2 0 -5 2 -7 5 -3 5 -3 5 0
10 2 3 5 5 7 5 2 0 5 -2 7 -5z m-382 -22 c3 -5 3 -5 0 -10 -2 -3 -5 -5 -7 -5
-2 0 -5 2 -7 5 -3 5 -3 5 0 10 2 3 5 5 7 5 2 0 5 -2 7 -5z m492 -33 c2 0 3 -1
2 -1 -1 -2 16 -13 19 -13 3 0 8 -8 10 -16 3 -14 0 -23 -14 -36 -14 -13 -19
-27 -17 -44 1 -9 -1 -21 -5 -29 -7 -14 -7 -32 -2 -48 4 -15 4 -23 -3 -44 -8
-26 -7 -36 7 -51 18 -18 18 -24 0 -42 -12 -13 -15 -22 -15 -51 l0 -26 -6 -6
c-5 -5 -8 -6 -16 -6 -8 0 -11 1 -16 6 -6 6 -6 7 -5 18 0 14 -4 30 -10 39 -2 3
-5 9 -7 14 -3 9 -3 10 0 18 2 5 5 11 7 14 9 13 10 22 10 78 0 34 -1 55 -2 61
-3 10 -12 23 -19 28 -19 14 -20 15 -19 53 0 9 -1 22 -2 28 -4 19 -3 28 4 34 3
3 7 6 9 6 12 1 20 0 24 -2 8 -6 20 -8 30 -7 10 1 29 10 29 14 0 1 1 3 3 5 2 3
3 4 1 4 -1 0 -2 3 -2 10 l1 9 0 -8 c1 -7 2 -9 4 -9z m-399 11 c3 -2 21 -5 38
-6 20 -2 24 -4 24 -16 0 -14 -9 -21 -41 -31 -33 -10 -58 -4 -63 17 -4 16 2 31
15 36 6 2 23 3 27 0z m842 -11 c8 -6 11 -35 4 -42 -5 -4 -5 -4 -10 0 -9 8 -12
34 -4 43 3 4 4 4 10 -1z m-70 -5 c21 -9 20 -45 -2 -54 -10 -5 -28 -1 -34 6 -9
10 -9 32 0 42 7 8 24 11 36 6z m-646 -70 c15 -5 18 -19 8 -36 -3 -5 -8 -14
-10 -19 l-5 -9 0 -131 0 -131 -6 -6 c-5 -5 -8 -6 -15 -6 -7 0 -10 1 -15 6 l-6
6 0 159 0 159 6 6 c6 6 6 6 22 5 9 -1 18 -2 21 -3z m516 -2 l6 -6 -1 -15 c0
-8 -1 -22 -2 -30 -1 -10 -1 -19 1 -25 5 -18 29 -30 47 -23 3 1 11 2 17 2 14 0
20 -4 20 -13 0 -7 -7 -25 -12 -30 -2 -2 -8 -12 -13 -22 -10 -19 -16 -27 -20
-27 -4 1 -25 -10 -30 -15 -10 -11 -11 -15 -11 -70 l1 -50 -6 -6 c-5 -5 -8 -6
-17 -6 -9 0 -12 1 -17 6 l-6 6 1 103 c0 118 0 117 -14 127 -7 4 -16 7 -29 8
-14 2 -19 7 -19 20 0 11 0 11 22 27 8 6 24 27 24 31 0 1 2 3 4 5 6 6 13 8 32
8 14 0 16 -1 22 -5z m-430 -67 c5 -6 5 -12 0 -18 -7 -8 -22 -2 -22 9 0 11 15
17 22 9z m-679 -72 c5 -5 6 -7 6 -16 0 -15 -8 -23 -23 -23 -9 0 -11 1 -16 7
-9 8 -9 23 -1 32 9 9 24 9 34 0z m450 -22 c7 -6 7 -19 1 -25 -6 -7 -19 -7 -25
-1 -7 6 -7 19 -1 25 6 7 19 7 25 1z m508 -25 c3 -3 3 -3 0 -6 -4 -5 -11 1 -7
6 4 4 4 4 7 0z m-671 -12 c0 0 1 -12 2 -26 1 -14 3 -31 5 -37 8 -28 8 -29 3
-47 -4 -15 -6 -18 -11 -22 -4 -2 -7 -4 -7 -5 0 -1 -19 -1 -43 -1 -44 1 -49 2
-49 8 0 2 -1 3 -2 3 -2 0 -1 1 9 13 2 2 5 7 8 11 2 4 5 8 6 10 2 1 3 3 3 4 0
1 1 3 3 4 1 2 7 10 12 18 5 8 10 15 11 16 1 1 6 8 11 16 6 8 14 21 20 28 5 8
9 15 9 16 0 1 2 0 5 -3 3 -3 5 -6 5 -6z m1001 -23 c5 -3 9 -11 10 -22 2 -23 9
-39 21 -51 10 -10 11 -20 3 -35 -4 -9 -10 -25 -12 -34 -4 -18 11 -57 23 -61 1
-1 5 -4 7 -8 3 -7 3 -8 -1 -12 -5 -5 -10 -5 -28 4 -11 6 -21 9 -32 10 -13 1
-21 6 -26 17 -8 19 -4 32 13 47 11 10 16 16 18 25 5 23 5 26 2 33 -6 16 -8 19
-9 19 -1 0 -2 1 -2 3 0 2 -6 8 -14 13 -8 6 -14 12 -15 14 -3 10 -3 15 -1 22 2
10 7 16 16 18 8 2 21 1 27 -2z m-610 -5 c12 -12 3 -31 -13 -31 -11 0 -18 7
-18 18 0 11 7 18 18 18 6 0 9 -1 13 -5z m-714 -29 c5 -5 6 -7 6 -16 0 -15 -8
-23 -23 -23 -9 0 -11 1 -16 7 -9 8 -9 23 -1 32 9 9 24 9 34 0z m185 -8 c12
-11 6 -37 -9 -38 -22 -2 -31 6 -29 26 1 18 25 26 38 12z m-358 -46 c1 0 5 -3
8 -6 5 -5 6 -7 6 -18 0 -11 -1 -13 -6 -18 -6 -6 -7 -6 -18 -6 -11 0 -12 0 -18
6 -5 5 -6 7 -6 17 0 14 3 20 12 24 5 2 8 2 22 1z m941 -9 c13 -6 16 -16 10
-34 -7 -19 -20 -35 -30 -35 -4 0 -15 10 -15 13 0 2 -3 6 -8 11 -7 8 -23 14
-38 14 -14 0 -21 16 -11 26 4 3 7 4 29 4 14 0 27 1 30 2 9 3 25 2 33 -1z m422
-61 c5 -5 6 -7 6 -16 0 -15 -8 -23 -23 -23 -9 0 -11 1 -16 7 -11 10 -7 36 6
36 2 0 4 1 4 2 0 5 17 0 23 -6z m-1255 -31 l-5 -5 -4 4 -5 5 4 4 5 5 4 -4 5
-5 -4 -4z m663 -13 c11 -10 3 -28 -11 -28 -9 0 -16 6 -16 16 0 14 17 22 27 12z
m556 -49 c7 -4 10 -11 10 -23 0 -22 -7 -26 -39 -27 -21 0 -24 -1 -37 -7 -16
-7 -24 -8 -30 -2 -9 8 -4 28 7 28 4 0 24 7 30 10 3 1 10 7 15 12 14 14 31 17
44 9z m-711 -19 c1 0 5 -3 8 -6 5 -5 6 -7 6 -18 0 -11 -1 -13 -6 -18 -6 -6 -7
-6 -18 -6 -11 0 -12 0 -18 6 -5 5 -6 7 -6 17 0 14 3 20 12 24 5 2 8 2 22 1z
m802 -28 c5 -5 5 -11 0 -16 -10 -10 -27 5 -16 16 4 4 12 4 16 0z"/>
<path d="M940 3737 c-2 -1 -11 -5 -22 -8 -20 -8 -29 -9 -40 -4 -9 4 -30 2 -33
-2 -1 -2 -3 -3 -4 -3 -6 0 -10 -18 -8 -36 1 -9 2 -23 1 -31 0 -8 -1 -182 -1
-387 -1 -338 -1 -374 2 -381 4 -9 14 -21 18 -21 2 0 3 -1 3 -2 0 -1 1 -2 3 -2
7 -2 471 -2 477 0 11 3 16 9 18 25 1 7 1 13 0 13 -4 2 -6 18 -4 26 2 11 7 16
18 18 17 4 31 -3 34 -18 2 -8 0 -24 -4 -26 -1 0 -1 -6 0 -13 2 -16 7 -22 18
-25 6 -2 360 -2 368 0 1 0 2 1 2 2 0 1 1 2 3 2 4 0 14 12 18 21 3 7 3 17 3 67
0 77 -2 82 -33 97 -22 12 -33 25 -39 46 -3 11 0 25 7 30 5 4 21 8 25 6 1 0 6
1 12 2 6 2 11 3 12 3 2 1 11 11 13 17 4 10 4 27 -1 44 -6 21 -6 30 -1 51 4 16
5 24 5 51 0 47 -3 53 -25 53 -10 0 -13 1 -14 4 0 2 -1 2 -1 -1 0 -9 -10 -12
-29 -11 -2 0 -6 3 -9 6 -5 5 -6 7 -6 18 0 11 1 13 6 18 3 3 7 6 9 6 19 1 29
-2 29 -11 0 -3 1 -3 1 0 1 2 4 3 14 3 14 0 19 3 23 14 3 9 3 300 0 310 -2 9
-4 10 -24 10 -13 1 -13 1 -18 -6 -8 -10 -14 -14 -23 -15 -14 0 -18 3 -31 17
-7 8 -16 16 -21 19 l-8 4 -248 0 -249 1 -7 -7 c-7 -6 -11 -21 -8 -28 0 -1 0
-3 -2 -4 -1 0 0 -1 2 -1 1 0 7 -4 13 -9 5 -6 13 -12 18 -15 13 -8 22 -17 22
-24 0 -10 -5 -19 -11 -21 -7 -1 -22 3 -29 8 -4 2 -16 9 -27 14 -23 11 -27 15
-27 29 0 12 2 18 5 18 2 0 3 1 2 2 -1 2 -2 6 -2 9 0 3 -1 8 -1 11 0 2 -3 8 -7
11 l-7 7 -89 0 c-48 0 -89 -1 -91 -1z m-38 -100 c2 -2 6 -12 10 -23 3 -10 8
-21 9 -24 4 -8 4 -25 0 -30 -7 -8 -28 -9 -35 0 -5 6 -5 73 0 78 4 4 12 4 16
-1z m791 -7 c5 -5 5 -7 5 -15 -2 -36 0 -43 13 -59 6 -7 7 -10 7 -20 0 -16 -6
-22 -22 -26 -24 -5 -27 -2 -26 37 1 31 1 33 -9 47 -10 14 -11 27 -2 36 9 9 24
9 34 0z m-651 -22 c2 -1 6 -5 8 -9 10 -16 19 -25 34 -34 11 -7 16 -11 18 -15
6 -15 0 -40 -12 -44 -5 -2 -17 0 -39 6 -8 2 -26 1 -37 -2 -28 -8 -38 13 -17
35 12 13 13 17 13 38 0 16 0 18 5 22 5 5 20 7 27 3z m401 -22 c5 -5 6 -7 6
-16 0 -15 -8 -23 -23 -23 -9 0 -11 1 -16 7 -9 8 -9 23 -1 32 9 9 24 9 34 0z
m216 -100 c4 -4 5 -11 3 -13 -1 -1 -2 -2 -1 -3 2 -3 -6 -10 -12 -10 -11 0 -17
13 -9 21 7 9 14 11 19 5z m-716 -6 c7 -6 7 -19 1 -25 -6 -7 -19 -7 -25 -1 -7
6 -7 19 -1 25 6 7 19 7 25 1z m572 -9 c6 -6 6 -6 5 -24 -1 -27 6 -40 30 -58 9
-7 13 -24 8 -36 -7 -14 -39 -21 -56 -12 -11 6 -15 35 -6 41 3 2 3 2 0 2 -1 0
-2 1 -1 2 2 3 -3 23 -7 27 -7 9 -11 9 -100 9 -84 0 -85 0 -93 -5 -6 -3 -9 -7
-13 -14 -6 -14 -6 -22 2 -34 6 -11 11 -14 23 -16 29 -4 33 -7 33 -24 0 -16 -8
-23 -24 -21 -9 1 -12 3 -20 13 -14 18 -15 18 -55 14 -21 -2 -34 16 -29 38 1 5
3 9 4 9 1 0 2 1 1 2 -1 1 -2 6 -2 11 -3 24 -10 27 -58 27 l-36 -1 -6 6 c-6 6
-6 7 -6 22 0 15 0 16 6 22 l6 6 194 0 194 0 6 -6z m-620 -110 c3 -5 3 -5 0
-10 -2 -3 -5 -5 -7 -5 -2 0 -5 2 -7 5 -3 5 -3 5 0 10 2 3 5 5 7 5 2 0 5 -2 7
-5z m202 -29 c4 -6 4 -24 -1 -30 -7 -9 -27 -9 -34 0 -5 6 -5 24 0 30 7 9 27 9
35 0z m296 -72 c2 0 7 -4 13 -9 8 -7 12 -10 19 -12 10 -3 20 -5 28 -5 12 0 20
-6 19 -15 -1 -3 -1 -5 0 -5 1 -1 2 -4 3 -8 1 -8 6 -17 11 -22 5 -4 22 -11 22
-8 0 1 3 -1 7 -5 6 -6 6 -6 6 -23 0 -16 0 -17 -6 -23 l-6 -6 -186 1 c-164 0
-188 0 -195 -3 -5 -2 -10 -3 -11 -4 -2 0 -13 -14 -20 -26 -6 -10 -9 -12 -17
-13 -11 -1 -16 0 -21 5 -10 10 -4 37 8 37 2 0 9 2 16 5 11 5 14 7 19 15 6 9 9
19 8 26 -1 2 2 6 5 9 l6 6 98 0 c106 0 104 0 119 11 10 8 13 16 16 40 2 19 4
24 9 28 4 3 15 6 22 5 3 -1 7 -1 8 -1z m-456 -13 c3 -5 3 -5 0 -10 -2 -3 -5
-5 -7 -5 -2 0 -5 2 -7 5 -3 5 -3 5 0 10 2 3 5 5 7 5 2 0 5 -2 7 -5z m20 -103
c7 -6 7 -19 1 -25 -6 -7 -19 -7 -25 -1 -7 6 -7 19 -1 25 6 7 19 7 25 1z m600
-112 c7 -6 6 -15 -1 -25 -13 -20 -16 -34 -9 -45 5 -7 5 -26 0 -33 -5 -7 -11
-10 -23 -10 -19 0 -27 8 -27 27 0 14 2 16 14 26 5 4 13 11 17 16 6 9 6 9 5 24
-1 13 -1 15 3 19 6 6 15 6 21 1z m-632 -6 c3 -3 8 -7 10 -8 8 -8 30 -12 39 -8
9 4 31 7 37 6 11 -3 16 -16 11 -29 -4 -12 -31 -30 -43 -29 -10 0 -31 -4 -38
-7 -3 -2 -9 -8 -13 -13 -12 -16 -16 -18 -27 -17 -11 0 -19 6 -19 13 0 5 6 22
10 29 5 9 6 16 6 38 0 19 0 21 4 25 5 5 15 5 23 0z m753 -8 c5 -5 6 -7 6 -17
l0 -12 -14 -13 c-13 -13 -17 -18 -19 -28 -3 -9 -5 -20 -6 -24 -3 -16 -37 -17
-40 -1 0 2 -1 12 -2 21 0 10 -1 25 -2 34 -1 14 -1 16 2 17 2 1 3 2 3 4 0 1 2
3 6 4 3 2 13 7 22 12 21 12 35 13 44 3z"/>
<path d="M806 2800 c-3 -1 -6 -1 -7 0 0 0 -1 0 -1 -1 0 -2 -2 -3 -5 -4 -4 -1
-5 -2 -5 -17 l-1 -16 10 -4 c6 -2 12 -5 14 -6 9 -4 66 -1 85 5 9 3 19 5 22 5
4 0 4 1 1 1 -4 1 -4 3 -4 15 1 16 -1 18 -14 22 -9 2 -87 3 -95 0z"/>
</g>
</svg>
