<?xml version="1.0" standalone="no"?>
<!DOCTYPE svg PUBLIC "-//W3C//DTD SVG 20010904//EN"
 "http://www.w3.org/TR/2001/REC-SVG-20010904/DTD/svg10.dtd">
<svg version="1.0" xmlns="http://www.w3.org/2000/svg"
 width="1100.000000pt" height="2850.000000pt" viewBox="0 0 1100.000000 2850.000000"
 preserveAspectRatio="xMidYMid meet">
<metadata>
Created by potrace 1.15, written by Peter Selinger 2001-2017
</metadata>
<g transform="translate(0.000000,2850.000000) scale(0.500000,-0.500000)"
fill="#000000" stroke="none">
<path d="M346 3782 c-3 -1 -6 -1 -7 0 0 0 -1 0 -1 -2 0 -1 -1 -2 -3 -2 -4 0
-14 -12 -18 -21 -3 -6 -3 -16 -3 -58 0 -61 1 -62 20 -84 8 -9 14 -18 14 -20 0
-2 0 -10 0 -18 0 -21 3 -35 12 -43 4 -5 8 -8 9 -8 2 0 3 -1 3 -1 0 -1 6 -2 13
-1 12 0 13 1 15 5 1 3 3 5 4 6 1 1 5 8 9 16 9 17 14 21 29 22 12 0 21 -4 25
-12 7 -12 2 -54 -7 -63 -3 -3 -7 -4 -48 -7 -15 -1 -26 1 -32 7 -1 1 -5 3 -10
6 -12 6 -24 6 -34 -1 -19 -15 -22 -22 -22 -57 -1 -28 -1 -31 -6 -28 -3 2 -4 1
-5 -5 0 -7 0 -6 -1 3 0 15 -12 75 -16 86 -6 12 -12 19 -30 28 -19 11 -19 12
-15 44 7 56 6 74 -4 82 -8 6 -18 7 -35 3 -8 -2 -17 -4 -19 -4 -2 -1 -8 -2 -12
-3 -4 -1 -10 -3 -13 -3 -3 -1 -9 -2 -13 -3 -4 -1 -10 -3 -13 -3 -3 -1 -9 -2
-13 -3 -4 -1 -10 -3 -12 -3 -34 -7 -48 -15 -54 -34 -3 -11 -3 -11 3 -44 6 -29
7 -33 13 -41 4 -5 7 -8 7 -7 0 1 1 1 2 -1 2 -4 27 -4 43 0 7 2 25 4 40 5 27 1
29 1 33 -3 8 -8 4 -22 -9 -29 -13 -7 -15 -10 -16 -24 0 -7 0 -16 1 -19 4 -9
24 -29 38 -36 18 -9 20 -11 20 -21 0 -11 -6 -17 -17 -17 -5 0 -9 1 -10 2 -3 2
-21 3 -29 1 -14 -3 -16 -7 -18 -34 0 -13 -2 -24 -3 -25 -1 -1 -7 -3 -13 -5
-27 -7 -34 -14 -32 -30 2 -11 9 -19 25 -27 15 -8 17 -13 11 -24 -8 -13 -11
-23 -13 -33 -2 -13 11 -36 23 -42 9 -3 29 -4 38 -1 2 1 12 4 22 6 9 2 28 7 42
10 14 3 27 7 30 7 11 2 14 3 17 6 3 3 3 3 3 0 0 -2 1 -3 2 -3 1 0 5 -5 10 -11
4 -7 8 -12 9 -11 0 1 2 0 3 -1 2 -5 23 -5 32 -1 11 6 29 3 36 -5 2 -2 5 -8 6
-13 5 -21 9 -30 17 -39 4 -4 10 -11 12 -14 3 -5 3 -5 0 -10 -2 -2 -4 -4 -4 -5
0 0 -2 0 -5 -1 -7 -1 -21 -8 -24 -12 -8 -9 -10 -28 -5 -33 2 -1 3 -4 3 -7 0
-3 0 -4 2 -1 2 2 2 2 1 -1 0 -2 -1 -4 -1 -4 0 0 -5 -3 -10 -6 -13 -7 -23 -7
-29 0 -5 5 -5 6 -4 23 1 14 0 23 -3 41 -7 36 -10 50 -12 51 -1 0 -2 1 -2 3 0
3 -14 15 -20 17 -1 1 -7 0 -12 -2 -21 -8 -30 -9 -53 -3 -16 4 -27 5 -45 5 -14
0 -26 1 -27 2 -2 2 -3 2 -3 1 0 -1 -1 -1 -2 0 -2 1 -1 2 0 4 3 3 2 3 -7 2 -18
-1 -25 -4 -34 -14 -10 -10 -16 -25 -15 -38 0 -10 -6 -17 -15 -17 -9 0 -15 7
-15 17 1 11 -5 28 -11 34 -12 11 -33 3 -41 -17 -4 -7 -4 -14 -4 -55 0 -53 1
-61 13 -74 4 -4 8 -10 8 -13 1 -3 3 -6 5 -7 3 -3 3 -3 0 -3 -2 0 -4 -2 -5 -5
0 -4 -4 -10 -8 -14 -19 -22 -17 -67 5 -85 13 -11 23 -13 65 -13 l38 0 5 -6 6
-6 -1 -35 c-1 -47 -3 -108 -4 -122 -1 -6 -1 -22 -2 -36 -1 -32 -5 -82 -6 -88
-1 -2 0 -5 0 -7 1 -1 2 -3 2 -4 3 -20 24 -27 45 -15 28 15 51 5 51 -22 -1 -14
-5 -21 -17 -26 -17 -6 -38 -12 -48 -13 -6 0 -12 -2 -14 -3 -2 -1 -4 -2 -4 -1
0 2 -15 -6 -17 -9 -5 -6 -11 -18 -12 -25 -4 -24 -10 -55 -13 -69 -8 -38 -4
-49 24 -56 4 -1 10 -2 13 -2 9 1 11 0 17 -6 5 -5 6 -7 6 -18 0 -12 0 -12 -10
-23 -11 -11 -11 -12 -12 -25 0 -10 0 -15 3 -19 5 -8 7 -20 5 -30 -6 -23 -34
-27 -54 -9 -10 8 -16 10 -29 10 -11 0 -12 -1 -19 -8 -9 -9 -13 -16 -24 -35
-14 -24 -14 -27 -13 -38 3 -18 16 -24 44 -19 15 3 15 3 20 -2 4 -4 4 -6 4 -29
0 -27 2 -32 14 -37 6 -3 26 -3 45 -1 7 0 12 -1 21 -4 7 -3 14 -6 16 -7 4 -2 5
-3 3 -7 -1 -2 -1 -5 -1 -6 1 0 1 -1 -1 -1 -1 0 -2 -1 -1 -2 1 -1 0 -2 -1 -2
-4 0 -18 -39 -18 -49 0 -9 11 -29 18 -34 4 -2 10 -3 19 -3 11 0 13 1 18 5 6 6
20 29 35 58 6 11 12 21 14 23 5 4 29 55 42 87 11 27 12 37 7 54 -1 5 -2 9 -2
9 0 0 0 3 -2 7 -3 9 -2 18 4 26 3 4 6 7 7 7 1 0 6 4 12 10 10 9 16 18 19 29 1
3 2 7 2 8 0 1 2 7 4 13 5 19 19 38 24 34 2 -1 6 -2 10 -2 30 1 29 1 35 -6 8
-7 8 -15 2 -38 -5 -19 -4 -27 3 -42 8 -17 8 -27 2 -46 -7 -22 -6 -30 3 -60 11
-34 17 -40 37 -40 13 0 13 0 28 11 8 6 15 11 16 11 1 0 4 2 8 5 12 8 28 17
104 55 23 12 43 23 43 24 0 1 1 2 3 2 2 0 3 3 3 15 l0 15 -11 11 c-10 10 -11
13 -11 20 0 11 6 17 17 17 10 0 13 -3 21 -19 9 -19 22 -29 37 -29 14 0 23 3
61 20 38 18 38 18 49 20 7 1 8 1 8 -2 0 -5 -10 -14 -25 -23 -23 -14 -28 -34
-15 -55 16 -27 47 -94 64 -139 9 -24 21 -58 23 -65 4 -13 12 -24 21 -28 13 -6
22 -5 47 6 24 11 104 38 122 41 3 1 5 2 6 2 1 1 4 2 5 2 2 0 21 5 41 11 20 6
38 11 40 11 2 0 7 2 11 3 4 1 14 3 21 5 30 8 44 19 53 41 9 24 18 26 36 9 6
-6 13 -12 16 -12 3 -1 5 -2 5 -3 0 -1 1 -1 3 -1 19 -2 29 0 43 7 21 10 26 27
21 62 -4 27 -4 34 -6 53 -4 48 -5 63 -7 73 -1 6 -3 20 -3 31 0 12 -1 22 -2 23
-1 2 -2 4 -2 6 -1 5 -10 12 -21 15 -10 3 -12 2 -67 -9 l-57 -11 -5 4 -5 5 0
89 -1 90 6 6 6 6 62 0 c62 0 73 1 73 3 0 1 1 2 3 2 4 0 14 12 18 21 3 6 3 20
3 97 0 91 -1 102 -8 105 -5 2 -32 4 -32 2 0 -1 -2 -4 -4 -6 -6 -8 -9 -20 -8
-35 1 -26 1 -28 -5 -34 -3 -3 -8 -6 -10 -6 -3 0 -7 -1 -10 -2 -3 -1 -7 -3 -9
-3 -9 -2 -24 -10 -31 -18 l-8 -9 -12 4 c-15 5 -17 7 -20 22 -5 20 -6 39 -2 45
5 6 7 6 21 -1 10 -6 15 -7 33 -6 12 0 14 35 3 51 -3 5 -6 9 -6 10 0 2 -13 13
-15 13 -2 0 -3 1 -3 2 0 1 -8 3 -22 3 -9 0 -12 1 -17 6 l-6 6 1 31 c0 31 0 32
-6 49 -6 15 -18 35 -27 45 -12 12 -17 20 -17 28 0 5 -1 12 -2 14 -2 3 -3 5 -2
6 1 2 -1 7 -4 10 -6 5 -22 6 -30 1 -22 -12 -35 -14 -50 -6 -27 14 -29 15 -52
15 -20 0 -21 0 -26 -5 -5 -6 -13 -31 -10 -34 1 -1 2 -7 2 -13 0 -9 -1 -11 -6
-16 -6 -6 -7 -6 -23 -6 -29 0 -41 -4 -47 -19 -7 -16 -7 -25 1 -50 9 -28 9 -33
0 -60 l-7 -22 0 -46 c0 -50 1 -55 12 -78 8 -17 8 -27 -1 -46 -11 -23 -9 -32
10 -54 16 -17 16 -27 0 -44 -20 -23 -21 -25 -21 -86 -1 -35 -1 -50 -4 -56 -4
-15 -11 -11 -17 12 -1 8 -3 15 -4 17 -3 13 -16 74 -20 94 -8 41 -14 50 -34 52
l-13 1 -3 -7 c-4 -9 -5 -27 -1 -39 2 -11 0 -24 -6 -29 -11 -12 -44 -7 -44 6 0
4 -16 26 -18 25 -1 -1 -2 0 -2 1 -1 3 -24 8 -24 6 0 -2 -3 0 -6 4 -6 6 -6 8
-6 21 0 13 0 15 -6 21 -6 6 -7 6 -19 6 -7 -1 -13 0 -13 1 0 0 -2 -1 -5 -4 -10
-10 -27 -4 -27 9 0 15 13 30 36 41 20 10 25 15 30 26 4 9 4 16 3 143 l0 133 6
6 6 6 57 0 c58 0 68 1 68 3 0 1 1 2 3 2 4 0 14 12 18 21 4 11 5 147 0 162 -7
24 -28 57 -41 66 -5 3 -15 12 -23 19 -9 8 -18 16 -22 17 -7 4 -24 5 -27 2 -1
-2 -4 -2 -5 -2 -5 2 -21 -27 -21 -39 0 -8 -6 -14 -14 -16 -15 -3 -28 4 -28 15
0 8 -8 28 -15 34 -9 9 -18 11 -55 11 l-33 -1 -6 6 c-3 3 -7 5 -8 5 -2 0 -2 1
-2 3 1 4 -8 9 -20 11 -6 1 -12 2 -13 3 -1 0 -2 0 -3 -2 -2 -5 -17 -4 -23 2 -6
6 -6 19 1 25 6 5 20 6 23 1 1 -2 2 -3 2 -3 0 3 12 -2 12 -4 0 -1 1 -2 2 -1 1
1 2 0 2 -1 0 -1 1 -2 3 -2 1 0 4 -1 5 -3 5 -6 24 -2 24 5 0 1 1 2 2 2 1 -1 13
5 23 11 9 6 20 6 26 2 2 -1 8 -9 13 -17 10 -17 14 -22 17 -22 2 0 3 -1 3 -2 0
-1 3 -3 7 -4 3 -1 8 -3 11 -5 6 -2 38 -2 40 0 0 1 3 4 6 6 7 4 14 16 21 35 7
19 30 91 35 108 8 27 13 41 14 45 2 4 10 31 17 55 1 5 7 23 12 41 28 95 27 91
22 128 -5 33 -11 55 -18 62 -2 2 -3 5 -4 7 -1 2 -2 4 -3 4 -1 0 -2 1 -2 3 0 3
-23 14 -34 16 -5 1 -12 2 -15 3 -3 1 -9 2 -12 3 -7 1 -67 14 -81 17 -19 4 -39
-6 -46 -23 -2 -4 -5 -18 -7 -30 -5 -38 -19 -116 -29 -165 -12 -60 -12 -63 11
-92 6 -7 7 -10 7 -20 0 -14 -3 -18 -20 -27 -18 -9 -28 -18 -37 -36 -8 -17 -11
-20 -20 -19 -3 0 -10 0 -14 0 -7 0 -10 1 -14 5 -6 6 -6 14 1 39 2 8 5 19 5 23
3 25 7 32 24 40 3 2 7 4 8 5 1 1 4 4 6 6 3 2 7 8 10 13 l5 11 0 74 c0 84 0 83
-17 102 -16 17 -16 20 -1 37 18 20 22 36 12 52 -4 7 -16 11 -27 9 -3 -1 -5 0
-5 1 0 1 -1 1 -1 -1 -2 -4 -7 -8 -15 -12 -15 -8 -25 -2 -23 15 1 12 9 34 13
39 2 1 4 5 6 8 1 3 3 7 5 10 3 6 4 19 1 27 -1 3 -6 7 -12 10 l-11 6 -79 0
c-43 1 -81 0 -84 -1z m458 -186 c5 -5 5 -11 0 -16 -10 -10 -27 5 -16 16 4 4
12 4 16 0z m-18 -177 l-5 -5 -4 4 -5 5 4 4 5 5 4 -4 5 -5 -4 -4z m-351 4 c12
-12 3 -31 -13 -31 -11 0 -18 7 -18 18 0 11 7 18 18 18 6 0 9 -1 13 -5z m-108
-84 c2 -3 21 -9 31 -10 15 -1 22 -7 26 -20 4 -15 -4 -34 -16 -40 -19 -10 -45
-14 -62 -10 -12 2 -23 13 -26 24 -3 14 0 24 12 37 6 6 10 12 10 14 0 2 1 2 2
1 1 -2 4 -1 10 2 11 6 11 6 13 2z m146 -98 c4 -4 5 -7 5 -15 0 -14 -6 -20 -20
-20 -14 0 -20 6 -20 20 0 14 6 20 20 20 8 0 11 -1 15 -5z m-226 -178 c8 -4 12
-7 20 -19 6 -8 12 -18 15 -21 3 -3 7 -8 9 -12 4 -7 4 -7 0 -15 -2 -3 -7 -8
-10 -10 -6 -3 -11 -8 -25 -24 l-9 -10 -12 0 c-20 2 -25 14 -11 30 8 8 8 9 8
22 0 15 -1 20 -5 20 -7 0 -19 20 -19 32 0 12 20 16 39 7z m198 -60 c3 -5 3 -5
0 -10 -4 -5 -11 -7 -11 -3 0 1 -2 2 -4 3 -3 1 -6 3 -8 5 -4 4 -4 4 3 4 4 0 8
1 8 3 2 5 8 3 12 -2z m164 -6 c6 -4 6 -6 6 -20 0 -17 -2 -20 -18 -28 -26 -12
-44 -14 -52 -6 -13 12 -2 35 26 53 11 8 30 8 38 1z m-466 -2 c14 -9 13 -40 -1
-47 -5 -3 -21 -4 -28 -1 -9 2 -19 18 -17 27 0 4 2 7 3 8 1 0 2 2 2 4 0 12 28
18 41 9z m674 -6 c6 -4 6 -6 6 -20 0 -14 0 -16 -6 -20 -4 -4 -7 -5 -18 -5 -11
0 -14 1 -18 5 -6 4 -6 6 -6 20 0 14 0 16 6 20 4 4 7 5 18 5 11 0 14 -1 18 -5z
m-382 -73 c11 -10 3 -28 -11 -28 -9 0 -16 6 -16 16 0 14 17 22 27 12z m-189
-18 c5 -6 14 -16 20 -23 19 -20 21 -28 13 -50 -5 -14 -5 -17 -3 -27 1 -7 4
-15 6 -19 7 -11 6 -26 -2 -33 -5 -6 -7 -7 -16 -7 -18 0 -28 15 -21 32 5 12 2
32 -6 46 -4 6 -10 19 -12 27 -3 8 -8 21 -10 29 -9 24 -5 35 13 35 8 0 9 -1 18
-10z m377 -32 c9 -8 13 -14 11 -14 -4 0 1 -4 12 -10 15 -8 18 -13 16 -35 -1
-17 0 -22 9 -61 1 -7 4 -18 6 -24 6 -19 6 -24 1 -29 -10 -11 -26 -3 -26 12 0
9 -12 37 -15 37 -2 0 -3 1 -2 2 0 1 -2 3 -4 5 -2 2 -7 10 -11 18 -6 14 -8 26
-4 34 3 5 3 27 0 30 -2 2 -2 3 -1 3 0 0 -1 2 -4 6 -12 13 -13 15 -13 19 0 13
15 17 25 7z m-88 -14 c16 -7 16 -40 0 -51 -8 -6 -25 -23 -26 -27 -1 -2 -2 -4
-3 -4 -1 0 -3 -3 -4 -6 -1 -3 -7 -9 -13 -13 -30 -22 -30 -21 -31 -97 0 -61 0
-61 4 -70 4 -6 8 -10 15 -14 6 -2 13 -6 16 -7 3 -2 6 -3 6 -2 2 2 9 -7 9 -12
-1 -4 -8 -12 -9 -10 -1 0 -4 0 -7 -2 -3 -1 -9 -5 -15 -7 -18 -9 -19 -12 -20
-82 -1 -74 -5 -94 -26 -122 -6 -9 -30 -34 -32 -34 -1 0 -2 3 -4 7 -3 7 -3 9 2
40 7 47 15 106 20 161 4 41 9 111 10 148 1 16 2 30 2 32 0 2 1 19 1 37 1 31 0
35 -3 46 -9 23 -9 28 -4 45 3 8 5 16 6 17 1 5 16 13 22 12 8 -2 28 2 37 6 3 2
7 3 8 2 1 -1 2 0 2 2 0 2 6 6 15 8 5 1 14 -1 22 -3z m-189 -36 c5 -5 5 -15 0
-20 -9 -9 -24 -2 -24 10 0 12 15 19 24 10z m258 -93 c5 -4 5 -9 1 -15 -8 -10
-24 2 -16 13 4 6 10 7 15 2z m547 -64 c3 -5 3 -5 0 -10 -2 -3 -5 -5 -7 -5 -2
0 -5 2 -7 5 -3 5 -3 5 0 10 2 3 5 5 7 5 2 0 5 -2 7 -5z m-160 -12 c3 -5 3 -5
0 -10 -2 -3 -5 -5 -7 -5 -2 0 -5 2 -7 5 -3 5 -3 5 0 10 2 3 5 5 7 5 2 0 5 -2
7 -5z m308 -112 c-5 -5 -10 1 -7 7 3 4 3 4 7 0 3 -4 3 -4 0 -7z m-724 -23 c8
-8 8 -24 -1 -32 -8 -9 -24 -9 -32 -1 -6 6 -10 22 -6 24 1 1 2 2 1 3 -2 3 4 9
11 11 11 3 20 2 27 -5z m573 -54 c10 -5 13 -18 9 -38 -2 -8 -3 -22 -3 -30 1
-57 1 -55 -3 -60 -3 -3 -6 -4 -14 -4 -14 0 -21 7 -21 20 2 28 1 36 -3 41 -5 7
-20 15 -27 15 -3 0 -8 2 -11 5 -6 4 -6 6 -6 20 0 20 3 23 29 29 28 6 41 7 50
2z m-547 -93 c3 -5 3 -5 0 -10 -2 -3 -5 -5 -7 -5 -2 0 -5 2 -7 5 -3 5 -3 5 0
10 2 3 5 5 7 5 2 0 5 -2 7 -5z m-309 -4 c13 -7 30 -33 30 -48 0 -20 -47 -44
-59 -31 -13 15 -20 58 -11 73 5 10 26 13 40 6z m475 -32 c8 -6 10 -21 4 -35
-6 -15 -14 -19 -36 -18 -2 0 -6 3 -9 6 -12 12 -6 41 9 49 10 5 26 4 32 -2z
m420 -77 c1 -1 3 -5 3 -7 0 -3 0 -3 2 -1 1 2 2 1 2 -5 0 -5 -1 -9 -2 -9 -1 0
-2 -1 -2 -3 0 -10 -23 -13 -31 -4 -7 6 -7 21 -1 28 7 7 21 8 29 1z m121 -46
c5 -6 5 -12 0 -18 -7 -8 -22 -2 -22 9 0 11 15 17 22 9z m-259 -22 c11 -5 16
-27 8 -41 -7 -15 -36 -17 -48 -5 -5 6 -5 8 -5 18 1 26 19 38 45 28z m-782 -82
c4 -6 4 -24 -1 -30 -7 -9 -27 -9 -34 0 -5 6 -5 24 0 30 7 9 27 9 35 0z m805
-82 c9 -9 2 -24 -10 -24 -12 0 -19 15 -10 24 2 2 7 4 10 4 3 0 8 -2 10 -4z
m-831 -11 c3 -5 3 -5 0 -10 -4 -5 -9 -5 -19 -1 l-6 3 5 4 c4 3 7 6 8 7 3 3 8
2 12 -3z"/>
<path d="M928 3728 c-3 -1 -6 -1 -7 0 0 0 -1 0 -1 -2 0 -1 -1 -2 -3 -2 -4 0
-14 -12 -18 -21 -5 -12 -4 -90 1 -101 9 -19 14 -35 15 -51 1 -8 2 -11 7 -15 4
-3 8 -6 9 -6 1 0 4 -1 7 -1 3 0 10 -1 17 -2 14 -2 21 -7 23 -18 4 -18 -3 -32
-17 -35 -8 -2 -22 -1 -24 2 -2 3 -26 -2 -32 -5 -2 -1 -4 -5 -6 -10 -5 -11 -5
-488 0 -500 4 -9 14 -21 18 -21 2 0 3 -1 3 -2 0 0 2 -1 5 -2 3 0 7 -1 8 -2 1
-1 19 -2 41 -2 23 0 38 -1 38 -2 0 -1 1 -2 2 -1 1 0 3 0 5 -2 6 -4 39 -4 38 0
-1 1 0 3 2 4 3 1 -7 2 -26 3 l-30 1 33 1 c30 0 33 0 49 6 10 3 21 6 26 6 5 0
16 -3 26 -6 9 -3 20 -6 23 -6 6 0 6 -1 3 -2 -3 -1 -2 -2 5 -2 11 -1 15 0 16 2
0 1 2 2 5 2 6 0 22 13 23 19 1 2 1 4 3 9 2 3 4 10 5 17 2 10 3 12 12 19 11 8
14 14 14 29 0 9 -1 13 -6 19 -5 7 -6 11 -6 18 0 14 6 20 20 20 10 0 13 -2 29
-17 20 -19 42 -10 52 21 11 35 -5 66 -43 81 -12 5 -14 5 -52 5 l-39 -1 -6 6
c-9 9 -9 25 0 34 l6 6 31 -1 c46 -1 53 3 52 26 -1 11 -1 12 3 13 3 0 2 1 -1 1
-12 0 -15 20 -10 52 2 10 4 16 7 19 6 6 7 6 12 2 2 -2 5 -3 7 -3 10 0 27 -29
27 -47 0 -13 -5 -23 -13 -23 -3 0 -4 -1 -1 -1 4 -1 4 -2 3 -14 0 -11 0 -13 5
-18 5 -5 6 -5 14 -4 11 1 23 7 31 16 11 10 17 13 27 13 10 0 16 -3 28 -14 17
-17 16 -17 84 -17 l60 0 6 -6 c9 -9 9 -25 0 -34 l-6 -6 -59 0 c-66 -1 -71 -2
-73 -14 -1 -4 -1 -11 -1 -15 1 -4 0 -8 -1 -9 -1 0 0 -1 1 -1 5 0 17 -11 21
-18 5 -9 4 -19 -2 -25 -5 -6 -12 -6 -27 -3 -16 4 -30 -1 -74 -24 -9 -4 -10 -9
-11 -22 0 -8 1 -13 4 -15 2 -2 5 -7 7 -11 2 -5 13 -17 25 -29 11 -11 22 -23
24 -26 7 -10 16 -19 24 -24 8 -4 10 -4 119 -5 107 0 112 0 119 4 9 4 17 12 18
17 0 2 2 7 4 11 1 4 2 8 2 9 -2 1 3 18 7 22 6 7 24 11 34 6 12 -5 34 -22 44
-34 17 -20 28 -28 43 -30 3 0 11 -1 17 -2 6 -1 12 -2 12 -1 1 0 5 0 8 0 3 1 6
2 6 2 0 1 1 2 3 2 3 0 16 13 16 17 0 1 1 5 2 9 1 5 0 11 -5 26 -4 11 -6 23 -7
29 0 9 5 29 9 34 6 8 6 27 6 331 0 278 0 310 -3 317 -4 9 -14 21 -18 21 -2 0
-3 1 -3 2 0 2 -2 2 -80 3 -75 1 -75 1 -84 -3 -12 -7 -18 -19 -19 -39 -1 -15
-2 -20 -7 -26 -9 -10 -31 -11 -43 -1 -5 4 -7 11 -8 27 -1 20 -7 33 -19 39 -8
4 -12 4 -38 4 -44 0 -62 -6 -87 -31 -7 -7 -16 -12 -31 -19 -11 -4 -20 -10 -28
-17 -15 -13 -18 -15 -28 -15 -13 0 -14 0 -20 6 -5 5 -6 7 -6 18 0 9 1 13 4 16
2 2 3 4 3 4 0 1 -1 6 -2 12 -2 24 -5 25 -59 25 l-41 0 -9 -6 c-10 -7 -16 -16
-21 -32 -5 -16 -10 -20 -28 -19 -19 1 -29 7 -50 27 -33 31 -31 31 -138 31 -47
0 -88 -1 -91 -2z m158 -42 c7 -4 9 -7 14 -20 19 -45 12 -72 -19 -71 -15 1 -22
6 -29 22 -9 22 -13 41 -10 52 5 19 25 27 44 17z m411 -49 c2 -2 3 -6 3 -9 -1
-7 2 -20 5 -23 1 -2 1 -3 0 -3 -4 0 7 -13 19 -23 8 -7 15 -13 16 -13 3 -4 21
-10 31 -11 24 -3 26 -11 12 -48 -7 -19 -7 -20 -6 -35 l2 -15 -6 -6 -6 -6 -37
1 c-49 0 -57 -2 -69 -24 -6 -10 -14 -18 -17 -18 -4 0 -12 9 -16 17 -11 22 -33
30 -53 19 -8 -5 -9 -8 -11 -22 l-1 -11 13 -12 c15 -14 18 -21 19 -33 0 -23
-15 -33 -42 -27 -8 1 -34 30 -46 51 -1 1 -2 8 -2 16 -1 19 -7 32 -17 38 -7 5
-9 5 -53 5 -57 0 -59 1 -59 23 -1 17 8 22 36 22 26 0 38 12 41 41 2 22 9 28
35 27 21 0 33 4 45 15 18 17 36 19 50 6 10 -8 11 -37 2 -45 -6 -4 -30 -8 -34
-4 -1 1 -3 1 -5 1 -2 -1 -5 -1 -7 -2 -2 0 -7 -1 -11 -1 -4 0 -6 -1 -4 -1 2 -1
3 -4 2 -14 -1 -14 0 -16 12 -22 8 -4 34 -5 36 -1 0 1 1 2 2 2 3 0 20 13 22 17
1 1 2 1 2 0 0 -1 1 -1 3 0 4 4 18 8 25 7 8 0 20 -6 26 -13 2 -1 8 -5 14 -8 10
-6 13 -6 39 -7 38 0 48 5 51 28 l1 11 -9 7 c-5 3 -10 6 -11 6 -1 0 -3 1 -3 2
-1 1 -9 3 -19 5 -35 6 -53 16 -53 29 0 5 4 24 10 47 1 4 2 9 2 10 0 0 2 3 4 5
4 4 12 4 17 -1z m217 -38 c30 -9 46 -31 35 -46 -6 -9 -29 -11 -52 -6 -14 3
-19 7 -21 19 -4 17 3 31 16 34 10 2 10 2 22 -1z m-571 -63 c4 -4 5 -7 5 -13 0
-11 -4 -15 -15 -17 -12 -2 -19 4 -19 17 0 15 18 23 29 13z m573 -56 c3 -2 8
-5 10 -9 6 -9 11 -12 25 -13 14 0 21 1 21 5 0 6 21 9 33 4 15 -6 19 -29 7 -46
-3 -5 -6 -12 -6 -16 -1 -15 0 -26 3 -30 4 -7 15 -44 16 -57 2 -15 0 -17 -23
-24 -15 -4 -19 -6 -20 -9 -1 -5 -7 -14 -14 -21 -11 -13 -30 -5 -30 11 0 9 9
21 15 21 10 0 14 25 7 44 -5 15 -3 26 7 40 6 8 6 10 6 25 0 16 0 17 -7 23 -4
4 -9 8 -12 9 -10 3 -32 1 -32 -3 0 -6 -25 -9 -36 -4 -17 7 -17 43 -1 50 12 4
20 4 31 0z m-611 -15 c8 -12 2 -25 -14 -29 -7 -2 -8 -2 -13 3 -8 11 -1 30 13
31 8 1 10 0 14 -5z m-46 -50 c2 -2 3 -3 2 -3 -1 0 0 -1 1 -3 3 -4 1 -19 -5
-24 -3 -4 -6 -5 -12 -5 -11 0 -17 6 -17 17 0 10 4 15 17 18 10 3 9 3 14 0z
m461 -34 c6 -7 6 -22 -1 -28 -6 -7 -22 -7 -28 0 -7 6 -8 21 -1 28 7 8 23 8 30
0z m-445 -126 c3 -3 3 -3 0 -6 -4 -5 -11 1 -7 6 4 4 4 4 7 0z m654 -72 c7 -7
-1 -42 -12 -54 -3 -4 -6 -5 -14 -5 -24 0 -26 23 -5 50 11 13 23 17 31 9z
m-694 -26 c3 -2 9 -11 14 -22 8 -18 12 -23 21 -30 9 -7 12 -13 12 -24 0 -13
-6 -19 -19 -19 -11 0 -16 2 -20 10 -8 15 -21 22 -43 23 -18 0 -20 6 -13 30 4
13 12 26 18 31 7 5 24 6 30 1z m596 -99 c12 -4 17 -10 17 -22 0 -14 -5 -22
-18 -28 -13 -5 -30 -6 -39 -1 -11 5 -15 24 -9 39 5 12 28 18 49 12z m-151 -18
c1 0 5 -3 8 -6 5 -5 6 -7 6 -18 0 -11 -1 -13 -6 -18 -6 -6 -7 -6 -18 -6 -11 0
-12 0 -18 6 -5 5 -6 7 -6 17 0 14 3 20 12 24 5 2 8 2 22 1z m-428 -26 c5 -6 5
-12 0 -18 -7 -8 -22 -2 -22 9 0 11 15 17 22 9z"/>
<path d="M118 3439 c0 -1 -3 -2 -6 -1 -9 0 -18 -4 -17 -9 0 -1 0 -3 -1 -2 -3
2 -4 -17 -2 -21 2 -2 2 -2 1 -1 -2 1 -3 1 -3 0 0 -4 22 -7 32 -4 4 1 3 27 -1
35 -2 3 -3 4 -3 3z"/>
<path d="M1269 3041 c-5 -7 -4 -29 2 -38 3 -4 3 -8 2 -20 0 -9 0 -18 2 -21 1
-3 2 -6 2 -8 2 -9 23 -21 32 -19 17 4 30 16 33 29 2 14 -6 41 -15 52 -2 2 -7
8 -11 13 -8 10 -17 16 -24 16 -2 0 -4 0 -4 1 0 0 -3 1 -8 1 -6 0 -8 -1 -11 -6z"/>
<path d="M1471 2920 c-15 -6 -19 -12 -34 -45 -2 -5 -5 -9 -5 -9 -3 0 -14 -18
-17 -27 -4 -12 -4 -84 -1 -95 2 -4 5 -11 9 -15 5 -7 6 -7 17 -7 10 1 12 1 18
8 4 4 9 10 11 14 11 19 39 15 39 -5 0 -9 -3 -14 -15 -27 -5 -6 -12 -16 -15
-23 -10 -23 -11 -24 -16 -26 -3 -2 -9 -4 -14 -5 -13 -4 -26 -14 -31 -24 l-5
-9 0 -171 c0 -191 -1 -174 15 -206 11 -21 13 -28 12 -41 -1 -8 -5 -20 -9 -23
-5 -5 -10 -18 -11 -26 -1 -13 4 -18 22 -27 6 -3 13 -7 15 -10 l5 -5 -6 -7 c-3
-4 -6 -7 -7 -7 -4 0 -18 -16 -21 -24 -4 -11 -4 -13 2 -33 9 -32 30 -70 40 -75
9 -4 26 -3 39 3 23 11 39 5 41 -16 2 -23 10 -37 24 -43 11 -5 39 -8 81 -8 40
0 57 3 77 14 24 13 30 15 40 11 4 -2 10 -5 12 -7 5 -5 20 -10 28 -10 13 0 40
12 63 27 53 36 90 112 107 223 7 46 9 72 7 81 -3 12 -11 24 -18 27 -3 2 -6 4
-6 4 0 1 -1 1 -2 2 -10 1 -112 38 -147 54 -7 2 -18 9 -25 13 -21 14 -39 11
-50 -9 -4 -7 -4 -12 -6 -44 -3 -53 -4 -71 -6 -91 -1 -10 -2 -19 -2 -20 -1 -2
-1 -3 -2 -3 -1 0 -4 -2 -6 -4 -6 -5 -8 -5 -14 1 -4 4 -4 7 -5 34 -1 41 -4 52
-12 56 -4 2 -11 3 -17 3 -6 0 -10 1 -11 3 0 1 -1 1 -1 -1 0 -6 -5 -8 -15 -8
-13 0 -19 6 -19 19 0 10 1 12 15 23 5 3 19 -5 19 -12 0 -2 1 -2 1 0 1 1 5 2
11 2 21 0 29 10 24 28 -2 5 -8 17 -8 14 0 -2 -25 6 -26 9 -1 1 -2 0 -2 -2 0
-3 -2 -5 -4 -6 -3 0 -4 0 -4 3 0 1 -1 4 -3 6 -3 3 -3 4 0 9 5 6 11 7 11 2 0
-3 1 -3 2 -2 0 1 6 4 12 5 11 3 20 10 31 25 3 4 7 9 8 10 2 0 4 2 5 4 2 1 10
7 19 13 9 6 16 11 17 12 1 0 6 4 13 9 6 4 15 11 19 16 13 12 34 46 37 57 4 17
2 24 -9 31 -8 6 -29 12 -32 10 -4 -2 -20 2 -25 6 -10 8 -11 32 -1 41 5 6 18 8
28 6 7 -1 11 -5 21 -15 11 -12 13 -14 26 -17 8 -2 18 -4 23 -4 8 0 20 -5 20
-8 0 -1 4 -4 9 -8 7 -5 10 -6 21 -5 12 0 14 1 26 10 13 10 25 19 43 31 18 13
23 19 24 31 2 13 0 18 -9 29 -14 18 -23 23 -56 32 -6 1 -11 4 -14 7 -4 4 -9
20 -7 22 1 2 -3 18 -7 22 -4 6 -32 7 -38 2 -6 -5 -20 0 -20 7 0 4 6 15 13 22
6 7 6 10 7 21 0 12 0 13 -7 22 -9 11 -18 15 -29 15 -15 0 -17 -2 -42 -30 -42
-47 -82 -89 -92 -94 -16 -8 -32 -6 -42 4 -5 5 -6 7 -6 17 0 15 3 19 20 28 31
15 32 19 32 91 0 46 -1 57 -3 63 -4 9 -14 21 -18 21 -2 0 -3 1 -3 2 0 2 -4 2
-19 3 -16 0 -25 -5 -41 -23 -13 -14 -17 -17 -35 -19 -8 -1 -9 -1 -15 5 -3 3
-7 9 -8 13 -3 9 -7 13 -19 19 -7 4 -12 5 -34 5 -15 1 -28 0 -32 -1z m79 -60
c4 -5 4 -8 3 -18 -2 -18 -8 -25 -23 -25 -15 0 -23 8 -23 23 0 13 6 20 21 23
15 4 17 4 22 -3z m147 -246 c4 -6 4 -24 -1 -30 -7 -9 -27 -9 -34 0 -5 6 -5 24
0 30 7 9 27 9 35 0z m-90 -130 c8 -2 20 -4 29 -4 12 0 16 -1 19 -4 7 -6 7 -18
0 -24 -5 -5 -5 -5 -24 -2 -12 2 -26 2 -38 1 -17 -1 -21 -1 -23 2 -7 6 -44 4
-51 -3 -3 -4 -14 -2 -18 2 -10 9 -3 26 10 26 4 0 7 -1 8 -2 1 -1 7 -2 13 -2
10 0 14 1 26 8 17 9 25 9 49 2z m-108 -95 c6 -4 6 -6 6 -20 0 -14 0 -16 -6
-20 -4 -4 -7 -5 -18 -5 -11 0 -14 1 -18 5 -6 4 -6 6 -6 20 0 14 0 16 6 20 4 4
7 5 18 5 11 0 14 -1 18 -5z m386 -157 c6 -4 10 -12 10 -24 0 -6 -1 -13 -2 -14
-5 -8 1 -31 12 -46 8 -10 9 -21 3 -28 -4 -6 -22 -9 -49 -10 -17 0 -18 0 -32 8
-8 4 -16 8 -19 9 -3 0 -9 2 -14 3 -4 1 -9 2 -10 1 -2 -1 -14 5 -17 10 -4 5 -4
20 -1 27 4 12 18 15 36 10 6 -1 12 -2 15 -1 3 1 6 2 7 2 11 3 16 10 16 22 0
20 6 30 18 33 8 2 21 1 27 -2z m-284 -15 c10 -8 10 -31 0 -40 -8 -7 -28 -7
-36 0 -6 4 -6 6 -6 20 0 14 0 16 6 20 8 7 28 7 36 0z m65 -77 c7 -9 3 -32 -5
-32 -2 0 -3 -1 -3 -2 0 -6 -22 1 -26 8 -3 5 -3 19 0 24 5 10 27 11 34 2z m8
-80 c2 -1 2 -3 1 -5 -3 -5 -6 -6 -9 -1 -3 6 2 10 8 6z m38 -47 c2 -2 4 -8 5
-12 3 -15 -12 -24 -23 -14 -4 5 -5 20 -1 28 3 6 4 6 9 5 3 -1 7 -4 10 -7z"/>
<path d="M103 2252 c-5 -4 -5 -6 -5 -14 1 -6 2 -10 3 -10 0 0 1 -1 1 -2 0 -6
10 -11 23 -12 13 -1 17 4 19 23 1 17 -1 19 -21 19 -12 0 -16 -1 -20 -4z"/>
</g>
</svg>
