<?xml version="1.0" standalone="no"?>
<!DOCTYPE svg PUBLIC "-//W3C//DTD SVG 20010904//EN"
 "http://www.w3.org/TR/2001/REC-SVG-20010904/DTD/svg10.dtd">
<svg version="1.0" xmlns="http://www.w3.org/2000/svg"
 width="1000.000000pt" height="2850.000000pt" viewBox="0 0 1000.000000 2850.000000"
 preserveAspectRatio="xMidYMid meet">
<metadata>
Created by potrace 1.15, written by Peter Selinger 2001-2017
</metadata>
<g transform="translate(0.000000,2850.000000) scale(0.500000,-0.500000)"
fill="#000000" stroke="none">
<path d="M1016 3824 c-54 -13 -76 -18 -84 -19 -3 -1 -21 -5 -40 -9 -71 -16
-76 -17 -85 -28 -6 -7 -9 -22 -5 -31 1 -3 4 -9 5 -13 2 -4 7 -15 11 -25 l9
-18 -5 -5 -4 -5 -339 -1 c-186 -1 -339 -2 -340 -2 -2 0 -3 -1 -3 -2 0 -1 -1
-2 -3 -2 -4 0 -14 -12 -18 -21 -5 -11 -5 -211 0 -222 4 -9 14 -21 18 -21 2 0
3 -1 3 -2 0 -2 1 -2 99 -4 78 -1 95 -1 98 -4 3 -2 5 -4 5 -4 0 -1 2 -2 4 -3 3
0 3 -1 0 -1 -2 0 -8 -8 -15 -23 -13 -26 -32 -58 -43 -75 -5 -6 -9 -13 -11 -15
-6 -10 -29 -40 -41 -54 -23 -29 -58 -64 -90 -92 -31 -26 -30 -25 -30 -41 0
-16 4 -22 21 -31 11 -6 18 -10 43 -26 23 -15 34 -15 60 0 15 9 34 7 40 -5 2
-3 2 -10 1 -20 -2 -21 -2 -20 0 -29 1 -12 6 -20 13 -24 3 -2 8 -7 11 -10 6 -6
22 -14 25 -12 0 0 3 -3 6 -6 5 -8 5 -8 6 -71 1 -46 2 -65 4 -69 3 -7 14 -19
17 -19 2 0 3 -1 3 -2 0 -2 2 -2 73 -3 45 -1 70 -1 75 1 10 3 19 11 23 23 2 6
5 11 7 13 2 1 2 2 0 2 -2 0 -1 1 1 3 3 3 3 3 6 0 2 -2 3 -3 1 -3 -2 0 -2 -1 0
-2 2 -2 5 -6 6 -10 4 -12 9 -19 18 -24 l9 -4 273 0 c286 0 277 0 312 8 11 3
23 12 28 21 6 13 13 19 18 19 4 -1 7 -4 13 -17 9 -19 16 -26 27 -29 4 -1 26
-2 61 -2 l54 1 6 -6 c7 -9 7 -19 0 -28 l-6 -6 -368 1 -367 0 -22 -9 c-27 -11
-28 -11 -56 0 l-19 8 -88 1 c-96 0 -97 0 -112 -11 -7 -5 -16 -21 -18 -31 -1
-3 -2 -7 -2 -8 -1 -2 -1 -6 -2 -7 0 -2 -7 -27 -15 -56 -13 -51 -16 -61 -24
-87 -2 -7 -8 -27 -13 -44 -5 -17 -13 -43 -17 -57 -8 -24 -9 -26 -6 -35 3 -14
11 -27 20 -34 29 -21 34 -28 32 -49 0 -3 -5 -9 -10 -15 -10 -10 -16 -20 -17
-27 0 -1 -1 -3 -1 -4 -1 -1 -1 -4 0 -6 1 -3 1 -5 1 -5 -1 0 1 -2 4 -5 3 -3 5
-7 5 -7 0 -3 9 -11 18 -15 l9 -4 323 1 c429 1 416 1 423 5 3 1 8 5 11 7 4 5
14 26 14 31 0 7 9 13 19 13 12 0 18 -4 40 -26 10 -10 23 -20 29 -23 11 -6 12
-6 44 -7 44 -1 52 2 66 28 4 6 7 12 7 14 0 1 3 6 5 11 2 5 4 12 4 18 0 11 -2
14 -18 32 -10 10 -10 11 -10 23 0 11 1 13 6 18 6 6 7 6 18 6 11 0 12 0 18 -6
6 -6 6 -6 6 -24 -1 -20 0 -31 5 -47 3 -8 3 -10 0 -19 -2 -5 -5 -10 -7 -12 -2
-2 -3 -6 -2 -16 l0 -14 10 -5 9 -6 60 -1 c57 -1 59 -1 63 -5 2 -2 4 -5 6 -6 2
0 2 -1 0 -1 -1 0 -4 -3 -7 -6 -10 -11 -24 -18 -49 -22 -17 -2 -218 0 -241 3
-3 0 -19 1 -34 2 -15 1 -33 2 -40 2 -15 2 -29 -3 -34 -12 -4 -10 -4 -23 0 -31
29 -49 57 -133 66 -196 1 -9 9 -22 16 -29 14 -13 18 -13 142 -13 102 0 131 0
169 3 7 0 22 1 32 2 96 6 165 32 217 84 23 22 33 37 51 68 25 43 51 121 69
203 18 84 26 131 25 146 0 16 -9 29 -24 35 -8 3 -22 3 -141 2 l-132 0 -17 -7
c-20 -8 -26 -8 -46 0 l-17 7 -434 1 -435 1 -5 5 -4 5 4 12 c4 13 7 17 14 21 4
1 65 2 228 2 153 0 225 1 228 2 3 1 8 4 10 6 6 6 14 25 13 33 0 8 6 15 13 15
7 0 13 -7 13 -15 -1 -8 7 -27 13 -33 2 -2 7 -5 10 -6 7 -3 207 -3 217 0 13 3
25 19 29 37 2 10 9 15 18 15 9 0 16 -5 18 -15 4 -18 16 -34 29 -37 7 -2 214
-2 222 0 1 0 2 1 2 2 0 1 1 2 3 2 4 0 16 14 19 24 2 7 2 11 0 25 -1 10 -2 22
-1 32 1 9 2 97 3 197 1 128 2 182 3 186 3 5 15 18 17 18 1 0 3 1 5 3 1 1 7 5
12 9 6 3 13 9 16 13 18 21 22 24 44 32 14 4 29 13 33 17 1 1 10 8 22 15 41 27
51 45 39 71 -4 8 -14 19 -47 52 -54 54 -56 55 -70 60 -23 7 -30 14 -37 33 -2
6 -5 11 -6 11 -1 1 -6 5 -11 9 -31 27 -42 33 -72 36 -10 1 -20 7 -20 11 0 5
-16 36 -19 37 -4 0 -4 1 0 1 1 0 3 1 3 2 0 1 2 3 6 4 4 2 29 3 133 4 70 1 129
2 131 2 1 0 2 1 2 2 0 1 1 2 3 2 4 0 14 12 18 21 2 6 3 16 3 52 0 48 0 49 -13
75 -10 21 -10 27 0 48 14 28 15 34 10 47 -4 9 -14 21 -18 21 -2 0 -3 1 -3 2 0
2 -2 2 -83 3 -77 1 -79 1 -88 -3 -12 -6 -22 -24 -21 -38 0 -7 -5 -17 -11 -21
-7 -5 -23 -5 -30 0 -6 4 -8 8 -10 21 -2 16 -10 32 -21 37 l-9 5 -103 0 c-115
0 -113 0 -121 -15 -4 -8 -8 -22 -7 -26 0 -1 0 -5 0 -9 0 -10 -7 -16 -19 -16
-12 0 -19 6 -19 16 0 4 0 8 0 9 1 4 -3 18 -7 26 -7 13 -10 14 -68 15 -64 1
-62 0 -76 30 -10 20 -36 71 -45 86 -2 5 -7 13 -9 18 -6 11 -18 24 -22 24 -2 0
-3 1 -3 2 0 1 -1 1 -2 2 -2 0 -7 1 -11 2 -10 2 -4 3 -63 -10z m-107 -154 c5
-7 4 -25 -2 -31 -7 -7 -19 -16 -21 -15 -1 0 -2 -1 -2 -2 0 -1 -1 -2 -2 -2 -1
0 -2 1 -1 2 1 1 0 2 -1 2 -1 1 -3 4 -3 7 -1 3 -3 8 -5 11 -9 13 -3 31 12 34 9
2 20 -1 25 -6z m847 -59 c6 0 18 1 27 2 l17 2 6 -7 c5 -5 6 -7 6 -17 0 -10 -1
-12 -6 -17 -7 -8 -21 -8 -36 -1 -13 6 -35 11 -44 11 -5 0 -9 2 -12 5 -3 3 -4
5 -3 5 1 0 1 1 0 2 -3 3 -2 7 4 14 4 4 5 4 17 3 7 -1 18 -2 24 -2z m-876 -20
c2 -4 2 -6 -1 -10 -4 -7 -12 -7 -16 0 -3 5 -3 6 0 13 2 4 6 9 8 10 4 4 4 4 6
-3 1 -3 2 -8 3 -10z m-361 -6 c4 -4 5 -7 5 -13 0 -11 -7 -18 -18 -18 -11 0
-18 7 -18 18 0 11 7 18 18 18 6 0 9 -1 13 -5z m-136 -16 c12 -7 14 -33 3 -43
-8 -9 -32 -9 -40 0 -9 8 -9 32 0 41 7 7 27 8 37 2z m572 -36 c3 -5 3 -5 0 -10
-2 -3 -5 -5 -7 -5 -2 0 -5 2 -7 5 -3 5 -3 5 0 10 2 3 5 5 7 5 2 0 5 -2 7 -5z
m-286 -23 c4 -6 4 -24 -1 -30 -7 -9 -27 -9 -34 0 -5 6 -5 24 0 30 7 9 27 9 35
0z m834 4 c11 -10 3 -28 -11 -28 -9 0 -16 6 -16 16 0 14 17 22 27 12z m-480
-13 c5 -8 1 -16 -8 -16 -9 0 -13 8 -8 16 2 3 5 5 8 5 3 0 6 -2 8 -5z m211 -7
c5 -5 5 -15 0 -20 -9 -9 -24 -2 -24 10 0 8 6 14 14 14 3 0 8 -2 10 -4z m-723
-28 c6 -7 8 -25 2 -30 -5 -6 -1 -29 6 -36 5 -5 6 -5 37 -5 l33 0 6 -6 c6 -6 6
-6 5 -22 -1 -14 -2 -17 -6 -23 -4 -3 -6 -5 -6 -4 0 1 -44 14 -66 19 -1 0 -21
6 -43 12 -22 6 -43 11 -47 11 -6 1 -6 1 -1 1 5 1 5 2 3 5 -2 2 -2 2 0 1 1 -1
2 0 2 1 0 1 1 2 2 2 0 0 2 0 4 1 2 0 7 1 13 2 16 2 20 8 22 30 0 5 -1 9 -2 11
-3 2 -4 6 -3 18 0 18 25 26 39 12z m616 -27 c5 -5 7 -16 3 -23 -3 -5 -22 -14
-29 -14 -7 0 -12 4 -12 11 0 7 10 26 14 29 7 4 19 2 24 -3z m-197 -39 l21 -6
54 0 c40 0 55 1 59 3 5 2 9 1 17 -6 3 -3 4 -4 1 -12 -3 -13 -3 -182 0 -193 2
-4 4 -8 4 -8 1 0 3 -2 6 -4 3 -2 6 -4 7 -4 1 0 6 -1 11 -2 6 -1 10 -1 10 0 1
2 45 16 50 16 4 0 10 -4 10 -8 0 -4 -6 -13 -14 -22 -5 -5 -11 -11 -12 -13 -6
-8 -13 -11 -23 -11 -6 0 -11 1 -11 2 0 1 -4 1 -9 0 -6 -1 -11 -2 -12 -2 -1 0
-4 -2 -7 -4 -3 -2 -5 -4 -6 -4 -4 0 -6 -19 -6 -62 0 -41 0 -47 4 -55 2 -5 5
-9 6 -9 1 0 1 -1 1 -3 -2 -3 8 -23 12 -23 1 0 1 0 0 -2 -4 -2 -9 -16 -10 -28
-2 -20 -8 -27 -27 -27 -19 0 -25 7 -27 27 -1 17 -10 34 -19 39 -6 4 -12 4 -58
5 -43 1 -52 2 -59 5 -4 2 -11 4 -14 5 l-6 2 6 0 c4 0 8 2 12 7 13 12 13 15 13
81 0 59 0 60 -5 76 -7 21 -7 31 0 52 5 16 5 18 5 68 0 43 -1 53 -3 61 -2 5 -4
11 -5 12 -1 1 -4 5 -8 9 -13 16 -16 30 -7 39 6 7 14 6 39 -1z m564 -11 c3 -3
6 -5 8 -6 2 0 2 -1 -1 -1 -3 0 -7 -2 -9 -4 -3 -2 -11 -7 -18 -11 -15 -8 -17
-10 -32 -19 -6 -4 -16 -10 -23 -14 -7 -4 -12 -7 -13 -8 0 -1 -3 0 -6 3 -5 5
-5 6 -6 29 l-1 25 6 6 6 6 42 -1 c40 -1 43 -1 47 -5z m-889 -130 c14 -9 17
-32 8 -52 -12 -26 -13 -31 -13 -46 0 -21 5 -32 22 -50 15 -15 30 -36 35 -46 3
-8 3 -9 0 -14 -3 -4 -5 -5 -10 -4 -11 3 -30 0 -37 -6 -4 -3 -9 -11 -9 -15 0
-12 14 -30 24 -30 l6 0 -6 -2 c-3 -1 -10 -3 -14 -5 -7 -3 -17 -4 -71 -5 -71
-2 -106 -1 -115 3 -11 6 -11 7 -3 15 7 7 8 9 8 18 0 13 -4 23 -11 27 -13 8
-17 14 -17 25 0 14 6 20 19 20 9 0 21 -5 21 -8 0 -5 14 -10 26 -10 12 0 13 0
18 7 10 11 64 89 71 102 4 8 7 28 6 44 0 15 3 21 16 29 11 8 18 8 26 3z m1118
-15 c-1 -1 0 -2 1 -2 5 -2 2 -34 -5 -41 -8 -10 -32 -11 -41 -1 -9 8 -9 31 -1
40 4 5 8 6 26 9 12 2 14 2 17 -1 2 -2 3 -4 3 -4z m-890 -5 c3 -5 3 -5 0 -10
-2 -3 -5 -5 -7 -5 -2 0 -5 2 -7 5 -3 5 -3 5 0 10 2 3 5 5 7 5 2 0 5 -2 7 -5z
m-79 -11 c5 -5 5 -11 0 -16 -10 -10 -27 5 -16 16 4 4 12 4 16 0z m675 -57 c20
-17 45 -40 52 -46 2 -2 8 -6 13 -9 10 -5 24 -19 24 -24 0 -1 12 -14 26 -29 14
-14 31 -32 37 -39 7 -7 14 -15 18 -19 3 -3 5 -6 5 -7 0 -1 1 -2 3 -2 3 0 3 0
1 -3 -10 -9 -8 -9 -99 -9 -51 0 -89 -1 -93 -2 -4 -1 -9 -4 -12 -7 -5 -5 -11
-29 -7 -33 3 -4 2 -22 -2 -29 -2 -5 -6 -8 -19 -13 -9 -3 -24 -10 -33 -15 -14
-8 -19 -10 -28 -10 -13 0 -22 5 -25 13 -10 25 -14 34 -22 44 -3 4 -9 14 -15
22 -5 7 -10 14 -11 14 -1 0 2 4 7 9 16 16 38 18 62 7 13 -6 44 -11 45 -8 1 1
7 5 15 8 8 4 14 8 14 9 0 1 2 6 5 12 4 9 4 12 4 56 0 47 -1 54 -8 68 -2 2 -4
9 -6 15 -4 11 -4 11 0 23 5 14 9 20 17 22 3 1 6 2 6 3 1 1 3 0 5 -2 1 -2 11
-11 21 -19z m137 7 c4 -4 4 -7 3 -13 -4 -24 -13 -37 -27 -37 -11 0 -15 5 -13
18 3 26 26 45 37 32z m-1220 -2 c5 -5 5 -15 0 -20 -9 -9 -24 -2 -24 10 0 8 6
14 14 14 3 0 8 -2 10 -4z m1294 -29 l-5 -5 -4 4 -5 5 4 4 5 5 4 -4 5 -5 -4 -4z
m-440 -55 c5 -5 5 -11 0 -16 -10 -10 -27 5 -16 16 4 4 12 4 16 0z m-420 -107
c4 -2 10 -4 13 -5 5 -1 5 -2 1 -2 -6 0 -17 -7 -22 -14 -6 -8 -17 -15 -23 -13
-3 0 -10 6 -17 13 -7 7 -15 12 -18 13 -8 2 -9 3 -4 3 2 0 7 1 10 3 14 7 45 8
60 2z m-271 -51 c10 -9 3 -26 -10 -26 -8 0 -15 7 -15 15 0 13 16 20 25 11z
m1004 -8 c5 -5 6 -7 6 -16 0 -9 -1 -11 -7 -16 -5 -6 -7 -7 -16 -7 -9 0 -11 1
-16 7 -9 8 -9 23 -1 32 9 9 24 9 34 0z m-560 -14 c19 -5 30 -24 25 -43 -4 -13
-14 -21 -29 -20 -21 1 -33 16 -33 41 0 16 3 21 14 24 8 2 11 1 23 -2z m483
-175 l-5 -5 -4 4 -5 5 4 4 5 5 4 -4 5 -5 -4 -4z m-734 -97 c5 -5 6 -7 6 -17 0
-10 -1 -12 -6 -17 -5 -5 -7 -6 -17 -6 -10 0 -12 1 -17 6 -5 5 -6 7 -6 17 0 10
1 12 6 17 5 5 7 6 17 6 10 0 12 -1 17 -6z m789 -2 c4 -6 4 -24 -1 -30 -7 -9
-27 -9 -34 0 -5 6 -5 24 0 30 7 9 27 9 35 0z m-366 -7 c4 -4 5 -7 5 -15 0 -14
-6 -20 -20 -20 -14 0 -20 6 -20 20 0 14 6 20 20 20 8 0 11 -1 15 -5z m-261
-65 c5 -6 5 -12 0 -18 -7 -8 -22 -2 -22 9 0 11 15 17 22 9z m-452 -98 c5 -6 5
-12 0 -18 -7 -8 -22 -2 -22 9 0 11 15 17 22 9z m72 -35 l-5 -5 -4 4 -5 5 4 4
5 5 4 -4 5 -5 -4 -4z m879 -46 c5 -8 1 -16 -8 -16 -9 0 -13 8 -8 16 2 3 5 5 8
5 3 0 6 -2 8 -5z m75 -9 c5 -5 5 -15 0 -20 -9 -9 -24 -2 -24 10 0 8 6 14 14
14 3 0 8 -2 10 -4z m151 -38 c4 -6 4 -24 -1 -30 -7 -9 -27 -9 -34 0 -5 6 -5
24 0 30 7 9 27 9 35 0z m-755 -22 c5 -5 6 -7 6 -17 0 -10 -1 -12 -6 -17 -5 -5
-7 -6 -17 -6 -10 0 -12 1 -17 6 -5 5 -6 7 -6 17 0 10 1 12 6 17 5 5 7 6 17 6
10 0 12 -1 17 -6z m138 -16 c5 -6 5 -12 0 -18 -7 -8 -22 -2 -22 9 0 11 15 17
22 9z m401 -212 c5 -5 6 -7 6 -16 0 -9 -1 -11 -7 -16 -5 -6 -7 -7 -16 -7 -9 0
-11 1 -16 7 -9 8 -9 23 -1 32 9 9 24 9 34 0z m-125 -32 c5 -5 5 -11 0 -16 -10
-10 -27 5 -16 16 4 4 12 4 16 0z"/>
<path d="M224 2290 c-13 -2 -18 -6 -26 -21 -2 -6 -6 -13 -8 -17 -2 -5 -3 -7 0
-10 2 -4 2 -4 0 -3 -2 1 -2 1 -1 -1 2 -1 8 -3 16 -3 13 0 15 1 20 5 3 4 7 6 8
6 0 0 1 1 1 3 0 1 1 4 3 5 4 3 4 29 0 34 -1 2 -4 3 -13 2z"/>
</g>
</svg>
