<?xml version="1.0" standalone="no"?>
<!DOCTYPE svg PUBLIC "-//W3C//DTD SVG 20010904//EN"
 "http://www.w3.org/TR/2001/REC-SVG-20010904/DTD/svg10.dtd">
<svg version="1.0" xmlns="http://www.w3.org/2000/svg"
 width="1000.000000pt" height="2850.000000pt" viewBox="0 0 1000.000000 2850.000000"
 preserveAspectRatio="xMidYMid meet">
<metadata>
Created by potrace 1.15, written by Peter Selinger 2001-2017
</metadata>
<g transform="translate(0.000000,2850.000000) scale(0.500000,-0.500000)"
fill="#000000" stroke="none">
<path d="M834 3823 c-24 -6 -30 -17 -38 -76 -3 -24 -7 -47 -8 -51 -1 -3 -4
-18 -7 -33 -5 -29 -8 -33 -21 -33 -9 0 -18 7 -18 14 0 7 -8 27 -14 33 -11 11
-15 11 -88 11 l-67 -1 -18 -8 c-23 -10 -31 -10 -54 0 l-18 8 -61 1 c-33 0 -64
0 -67 -1 -10 -2 -18 -10 -21 -20 -1 -6 -3 -12 -4 -14 -1 -3 -1 -5 0 -5 1 0 2
-3 2 -8 0 -14 -18 -22 -28 -11 -4 4 -6 19 -2 19 1 0 2 1 1 2 -1 1 -3 7 -4 13
-6 22 -15 26 -46 24 -10 -1 -25 -1 -31 -2 -14 -1 -31 -8 -35 -15 -9 -12 -9
-14 -9 -91 0 -87 1 -92 19 -112 4 -4 9 -11 10 -14 7 -12 19 -27 24 -28 3 -1 5
-2 5 -3 0 -1 1 -2 3 -2 1 0 111 -1 244 -2 l243 -1 5 -5 c3 -4 4 -6 3 -8 -1 -2
-2 -6 -3 -10 -3 -17 -9 -22 -34 -31 -26 -9 -33 -9 -59 0 l-22 7 -161 -1 c-89
0 -163 -1 -164 -1 -2 0 -3 -1 -3 -2 0 -1 -1 -2 -3 -2 -4 0 -14 -12 -18 -21 -5
-11 -5 -195 0 -206 4 -9 14 -21 18 -21 2 0 3 -1 3 -2 0 -2 2 -2 69 -3 70 -1
70 -1 97 13 16 8 30 8 46 0 25 -13 29 -14 77 -14 41 0 45 0 52 4 5 3 8 4 10 2
3 -3 7 -17 5 -19 -1 -1 -3 -8 -6 -15 -3 -9 -7 -15 -11 -18 l-6 -5 -260 -1
c-143 -1 -261 -2 -262 -2 -2 0 -3 -1 -3 -2 0 -1 -1 -2 -3 -2 -4 0 -14 -12 -18
-21 -5 -12 -4 -54 1 -65 5 -12 11 -18 16 -19 2 0 4 0 4 -1 0 -1 17 -6 22 -6
13 0 19 -25 9 -35 -3 -3 -7 -5 -9 -5 -5 0 -22 -5 -22 -6 0 -1 -2 -1 -4 -1 -5
-1 -11 -7 -16 -19 -5 -11 -6 -53 -1 -65 4 -9 14 -21 18 -21 2 0 3 -1 3 -2 0
-1 1 -2 3 -2 1 0 87 -1 191 -2 l190 -1 5 -5 c3 -3 4 -5 3 -7 -1 -1 -9 -12 -17
-25 -8 -13 -21 -33 -30 -46 -9 -12 -17 -24 -19 -27 -4 -6 -14 -19 -17 -22 -1
-1 -4 -5 -6 -8 -2 -3 -5 -7 -7 -9 -2 -2 -5 -6 -8 -10 -3 -4 -6 -8 -8 -10 -2
-2 -8 -9 -14 -16 -6 -7 -14 -16 -18 -21 -4 -4 -10 -10 -12 -13 -14 -16 -61
-63 -92 -90 -21 -19 -23 -20 -44 -37 -8 -6 -21 -18 -29 -26 -11 -11 -19 -17
-33 -24 -11 -5 -25 -14 -33 -18 -8 -5 -18 -12 -24 -16 -12 -7 -24 -15 -30 -18
-4 -2 -11 -11 -11 -15 0 -2 0 -8 0 -14 0 -11 4 -17 17 -25 12 -8 32 -24 48
-39 9 -8 20 -19 25 -23 23 -19 52 -47 89 -84 60 -60 54 -59 130 -3 19 14 38
29 42 32 5 4 12 10 17 14 5 4 13 11 19 16 6 5 16 14 24 21 72 63 145 143 209
226 6 9 12 18 12 19 0 3 13 -11 15 -16 1 -2 5 -8 8 -12 8 -9 24 -15 34 -13 17
3 17 4 16 24 -1 11 0 13 3 14 2 0 2 1 -1 1 -6 0 -12 7 -19 19 -3 6 -6 10 -6 9
0 -3 -7 -2 -10 2 -6 7 -6 17 1 31 7 13 13 17 29 17 17 0 20 -4 27 -29 3 -11 6
-26 8 -33 4 -12 4 -12 0 -15 -2 -2 -3 -3 -1 -3 1 0 2 -1 1 -1 0 -1 0 -4 1 -6
1 -3 2 -8 2 -12 1 -4 1 -7 2 -7 2 0 4 -10 2 -10 -4 -2 -3 -9 2 -11 4 -2 4 -3
1 -3 -7 0 -180 -108 -185 -116 -3 -6 -4 -35 -1 -38 1 0 6 -5 10 -11 4 -5 9
-11 10 -12 4 -5 10 -13 16 -20 3 -4 7 -9 8 -10 1 -1 4 -5 7 -9 3 -3 7 -9 9
-12 33 -41 96 -132 111 -159 13 -25 21 -31 39 -31 10 0 11 1 44 22 11 7 29 19
41 26 27 18 32 22 34 28 4 9 4 26 1 33 -10 25 10 49 39 47 5 0 18 -7 22 -12 1
-1 4 -3 8 -6 8 -4 28 -6 33 -2 17 14 19 15 27 10 7 -3 8 -5 27 -54 9 -22 17
-41 19 -44 6 -8 21 -16 39 -20 18 -4 23 -8 25 -20 3 -14 0 -23 -13 -35 -11
-11 -18 -21 -20 -33 -2 -14 9 -30 28 -38 10 -4 11 -5 60 -3 89 2 96 3 103 20
4 7 5 14 5 25 -1 16 3 22 13 22 8 0 12 -4 14 -15 4 -22 16 -35 32 -35 14 0 36
7 42 13 5 5 6 7 6 19 0 11 -1 14 -6 21 -5 6 -6 10 -6 17 0 18 7 22 38 21 20 0
22 0 27 -5 4 -4 5 -6 4 -16 -1 -7 0 -12 0 -11 1 0 3 0 4 -2 2 -3 4 -3 21 3 21
7 21 8 30 34 7 19 7 19 29 40 10 9 19 29 20 42 1 7 0 17 -2 26 -5 22 -4 29 5
49 l7 18 1 119 c1 65 2 120 3 121 1 2 6 29 8 45 0 5 6 12 9 12 4 0 9 -7 9 -15
1 -8 9 -24 14 -28 9 -9 12 -9 108 -8 95 1 97 1 97 3 0 1 1 2 3 2 4 0 14 12 18
21 5 11 5 215 0 226 -4 9 -14 21 -18 21 -2 0 -3 1 -3 2 0 1 -1 2 -2 2 -2 0
-56 1 -120 1 l-116 1 -7 6 c-4 3 -6 6 -5 6 1 0 2 8 2 21 0 23 -4 38 -12 41 -4
1 -4 2 -2 2 2 0 7 2 11 5 l8 4 143 1 c79 1 144 2 146 2 1 0 2 1 2 2 0 1 1 2 3
2 4 0 15 13 18 22 4 11 2 19 -7 39 -4 9 -30 37 -34 37 -4 0 -10 14 -10 23 0
10 6 19 13 19 5 0 26 11 30 16 9 10 11 18 11 50 0 22 -1 31 -3 37 -4 9 -14 21
-18 21 -2 0 -3 1 -3 2 0 1 -1 2 -2 2 -2 0 -142 1 -312 1 -286 1 -311 1 -330
-2 -18 -3 -23 -3 -38 -1 -10 1 -21 2 -24 1 -7 -2 -20 -16 -18 -19 1 -1 0 -3
-2 -6 -1 -3 -3 -11 -4 -19 -2 -19 -7 -23 -25 -23 -18 0 -23 4 -25 23 -1 8 -3
16 -4 19 -2 3 -3 5 -2 6 2 3 -8 15 -16 19 -3 1 -25 2 -63 3 l-59 1 -5 6 c-3 3
-4 5 -3 5 1 0 3 5 4 11 3 13 7 20 13 24 6 4 27 4 365 5 197 1 360 2 362 2 1 0
2 1 2 2 0 1 1 2 3 2 4 0 14 12 18 21 2 6 3 16 3 58 0 54 -1 62 -10 70 -7 6
-26 12 -34 11 -6 -1 -14 7 -14 15 0 8 8 16 14 15 7 -1 26 5 33 10 8 7 11 14 8
25 -2 9 -13 23 -18 23 -2 0 -3 1 -3 2 0 2 -2 2 -79 3 -68 1 -75 1 -81 -2 -6
-4 -13 -14 -15 -22 0 -2 -2 -6 -3 -9 -1 -4 -1 -6 0 -6 1 0 2 -3 2 -7 0 -13
-17 -20 -26 -10 -4 4 -6 17 -2 17 1 0 1 2 0 6 -1 3 -3 7 -3 9 -2 8 -9 18 -15
21 -7 4 -21 4 -217 4 l-209 0 -6 6 c-4 3 -5 6 -4 7 1 1 2 2 1 3 0 0 -1 5 -2
10 -1 10 -5 18 -11 24 -5 5 -10 16 -10 21 0 6 6 13 12 13 6 0 20 -9 20 -12 0
-3 14 -16 21 -20 5 -3 34 -3 329 -4 231 0 326 0 332 2 14 4 16 7 16 22 -1 11
0 13 3 14 4 2 4 2 0 2 -11 0 -15 16 -6 24 2 2 4 4 5 4 3 -1 26 11 30 16 9 9
10 16 10 86 0 55 0 67 -3 73 -4 9 -14 21 -18 21 -2 0 -3 1 -3 2 0 1 -1 2 -2 2
-2 0 -149 1 -328 1 l-325 1 -6 6 c-4 3 -6 6 -6 7 1 1 2 3 4 19 1 6 2 11 2 12
8 30 -2 52 -25 61 -5 1 -36 6 -70 10 -34 4 -64 8 -68 8 -4 1 -29 4 -57 7 -27
3 -53 6 -56 7 -3 0 -10 0 -15 -2z m478 -180 c10 -7 11 -32 1 -44 -11 -14 -35
-23 -42 -16 -10 10 -6 49 6 59 7 6 25 6 35 1z m-886 -27 c5 -5 5 -11 0 -16
-10 -10 -27 5 -16 16 4 4 12 4 16 0z m1271 -2 c11 -10 3 -28 -11 -28 -9 0 -16
6 -16 16 0 14 17 22 27 12z m-1112 -17 c5 -8 1 -16 -8 -16 -9 0 -13 8 -8 16 2
3 5 5 8 5 3 0 6 -2 8 -5z m83 3 c1 0 5 -3 8 -6 5 -5 6 -7 6 -18 0 -11 -1 -13
-6 -18 -6 -6 -7 -6 -20 -6 -15 0 -23 8 -23 24 0 11 5 19 13 23 5 2 8 2 22 1z
m130 -28 c5 -5 6 -7 6 -17 0 -10 -1 -12 -6 -17 -5 -5 -7 -6 -17 -6 -10 0 -12
1 -17 6 -5 5 -6 7 -6 17 0 10 1 12 6 17 5 5 7 6 17 6 10 0 12 -1 17 -6z m753
-40 c4 -6 4 -24 -1 -30 -7 -9 -27 -9 -34 0 -5 6 -5 24 0 30 7 9 27 9 35 0z
m-1187 -24 c10 0 16 -8 16 -21 0 -9 -1 -12 -5 -16 -7 -7 -20 -7 -34 -1 -10 5
-12 7 -16 17 -2 8 -2 9 2 14 3 4 7 6 15 7 6 1 12 1 14 1 1 -1 5 -1 8 -1z m364
-222 c1 0 5 -3 8 -6 5 -5 6 -7 6 -18 0 -11 -1 -13 -6 -18 -6 -6 -7 -6 -18 -6
-11 0 -12 0 -18 6 -5 5 -6 7 -6 17 0 14 3 20 12 24 5 2 8 2 22 1z m669 -14 c7
-6 7 -19 1 -25 -6 -7 -19 -7 -25 -1 -7 6 -7 19 -1 25 6 7 19 7 25 1z m-814
-17 c12 -7 14 -33 3 -43 -8 -9 -32 -9 -40 0 -9 8 -9 32 0 41 7 7 27 8 37 2z
m104 -72 c6 -4 6 -6 6 -20 0 -14 0 -15 -6 -21 -7 -6 -28 -18 -32 -18 -6 0 -9
6 -9 16 0 5 0 11 -1 13 -1 2 -1 8 -1 14 2 16 7 21 25 21 11 0 14 -1 18 -5z m8
-189 c10 -9 3 -26 -10 -26 -8 0 -15 7 -15 15 0 13 16 20 25 11z m627 -12 c5
-5 6 -7 6 -17 0 -10 -1 -12 -6 -17 -5 -5 -7 -6 -17 -6 -10 0 -12 1 -17 6 -5 5
-6 7 -6 17 0 10 1 12 6 17 5 5 7 6 17 6 10 0 12 -1 17 -6z m467 -38 c4 -6 4
-24 -1 -30 -7 -9 -27 -9 -34 0 -5 6 -5 24 0 30 7 9 27 9 35 0z m-962 -13 c3
-5 3 -5 0 -15 -5 -11 -14 -21 -23 -25 -7 -3 -8 -3 -12 2 -3 4 -3 5 -1 13 2 5
5 12 8 15 3 3 5 6 5 7 1 2 13 8 16 8 2 0 5 -2 7 -5z m-598 -5 c7 -3 12 -13 12
-25 0 -19 -9 -28 -28 -28 -19 0 -28 9 -28 28 0 17 6 24 22 28 5 1 14 -1 22 -3z
m872 -4 c7 -3 12 -13 12 -25 0 -19 -9 -28 -28 -28 -19 0 -28 9 -28 28 0 17 6
24 22 28 5 1 14 -1 22 -3z m549 -18 c1 0 5 -3 8 -6 5 -5 6 -7 6 -18 0 -11 -1
-13 -6 -18 -6 -6 -7 -6 -18 -6 -11 0 -12 0 -18 6 -5 5 -6 7 -6 17 0 14 3 20
12 24 5 2 8 2 22 1z m-756 -18 c5 -6 5 -12 0 -18 -7 -8 -22 -2 -22 9 0 11 15
17 22 9z m-289 -72 c4 -6 4 -24 -1 -30 -7 -9 -27 -9 -34 0 -5 6 -5 24 0 30 7
9 27 9 35 0z m374 -22 l18 -9 147 -1 147 -1 9 -4 c5 -3 11 -5 12 -5 2 0 1 -1
-1 -2 -4 -2 -15 -21 -19 -35 -1 -4 -4 -11 -5 -14 -2 -4 -3 -8 -3 -10 0 -2 -2
-5 -4 -7 -2 -3 -5 -7 -6 -10 -2 -3 -3 -5 -4 -5 -3 2 -15 -13 -21 -26 -9 -19
-16 -25 -32 -24 -15 1 -21 5 -28 21 -8 18 -15 25 -26 31 l-10 5 -161 0 -161 0
-9 6 c-6 3 -9 7 -10 10 0 3 -4 10 -8 17 -14 22 -10 32 15 34 11 0 18 3 32 9
15 7 21 9 34 10 14 1 20 3 36 11 29 13 29 13 58 -1z m-311 -95 c7 -4 11 -9 14
-19 2 -9 2 -11 -3 -24 -9 -24 -9 -30 -8 -51 l1 -21 -6 -6 c-6 -6 -7 -6 -18 -6
-11 0 -12 0 -18 6 -5 5 -6 7 -6 17 0 6 1 14 3 19 4 12 4 33 0 47 -7 23 5 41
28 40 4 0 10 -1 13 -2z m918 -22 c4 -5 4 -5 1 -17 -4 -16 -8 -20 -21 -20 -14
0 -20 6 -20 20 0 13 4 18 17 20 17 2 18 2 23 -3z m115 -46 c6 -6 7 -16 6 -61
0 -35 0 -36 -5 -41 -3 -4 -7 -5 -12 -5 -13 0 -19 11 -20 40 0 7 -1 17 -2 21
-1 4 -2 15 -2 25 0 15 0 17 5 21 7 7 23 7 30 0z m-666 -17 c9 -9 6 -32 -6 -42
-8 -6 -29 -6 -36 1 -5 4 -6 6 -6 17 -1 15 1 22 11 27 10 5 30 3 37 -3z m188
-80 c8 -8 8 -24 0 -32 -11 -11 -44 -13 -54 -4 -10 9 -5 27 10 35 20 10 34 10
44 1z m254 -43 c9 -6 13 -41 7 -53 -1 -3 -13 -15 -25 -27 l-23 -23 -13 0 c-17
0 -23 5 -24 18 -2 15 0 23 9 32 5 5 12 14 16 20 17 22 23 27 33 32 10 4 14 4
20 1z m-1025 -11 c1 0 5 -3 8 -6 10 -10 8 -29 -4 -45 -1 -1 -4 -5 -7 -8 -3 -3
-8 -10 -12 -16 -16 -24 -50 -22 -57 4 -3 12 1 25 9 34 26 25 35 33 40 35 6 3
9 3 23 2z m830 -174 l-1 -102 -6 -5 -5 -6 -98 0 c-94 0 -97 0 -105 -4 -9 -5
-14 -5 -23 0 -6 3 -7 4 -32 38 -9 12 -18 23 -19 24 -1 1 -4 5 -7 9 -3 4 -6 8
-7 9 -1 1 -3 4 -5 6 -3 5 -16 20 -30 36 -5 6 -11 13 -14 16 -8 9 -29 34 -31
36 -1 1 -10 11 -20 22 -10 11 -20 20 -22 21 -3 1 -3 2 0 2 1 0 3 1 3 2 0 1 2
3 6 4 4 3 38 3 205 4 l200 1 6 -6 6 -6 -1 -101z m-1031 51 c6 -4 6 -6 6 -20 0
-14 0 -16 -6 -20 -4 -4 -7 -5 -17 -5 -7 0 -14 1 -16 2 -12 6 -14 34 -3 43 8 7
28 7 36 0z m555 -42 c3 -3 4 -7 4 -14 0 -13 -6 -19 -19 -19 -13 0 -19 6 -19
19 0 7 1 11 4 14 7 8 23 8 30 0z m-614 -41 c8 -10 2 -24 -10 -24 -12 0 -19 15
-10 24 5 5 15 5 20 0z m1123 -153 c5 -8 1 -16 -8 -16 -9 0 -13 8 -8 16 2 3 5
5 8 5 3 0 6 -2 8 -5z"/>
<path d="M1771 3441 c0 -8 0 -11 0 -8 1 4 1 10 0 14 0 5 0 2 0 -6z"/>
</g>
</svg>
