<?xml version="1.0" standalone="no"?>
<!DOCTYPE svg PUBLIC "-//W3C//DTD SVG 20010904//EN"
 "http://www.w3.org/TR/2001/REC-SVG-20010904/DTD/svg10.dtd">
<svg version="1.0" xmlns="http://www.w3.org/2000/svg"
 width="1100.000000pt" height="2850.000000pt" viewBox="0 0 1100.000000 2850.000000"
 preserveAspectRatio="xMidYMid meet">
<metadata>
Created by potrace 1.15, written by Peter Selinger 2001-2017
</metadata>
<g transform="translate(0.000000,2850.000000) scale(0.500000,-0.500000)"
fill="#000000" stroke="none">
<path d="M356 3784 c-3 -1 -6 -1 -7 0 0 0 -1 0 -1 -2 0 -1 -1 -2 -3 -2 -4 0
-14 -12 -18 -21 -3 -6 -3 -21 -3 -108 0 -96 0 -101 4 -109 2 -5 5 -11 7 -13 5
-5 21 -11 34 -12 9 -1 15 -4 40 -20 18 -12 22 -16 24 -27 2 -11 -2 -20 -11
-32 -12 -16 -15 -26 -14 -58 0 -21 1 -31 5 -45 10 -36 10 -45 1 -54 -7 -7 -22
-8 -31 -2 -5 4 -19 30 -19 36 0 3 0 3 -2 1 -1 -2 -5 -2 -15 -2 -8 1 -15 0 -16
-1 -6 -6 -7 -18 -7 -60 l0 -43 8 -8 c6 -7 9 -8 19 -9 9 -2 14 -2 17 0 11 6 27
2 39 -10 4 -4 10 -8 13 -10 7 -4 29 -11 33 -11 5 0 11 -7 11 -13 0 -3 -2 -7
-5 -11 -6 -7 -12 -8 -25 -3 -9 3 -33 5 -51 3 -6 -1 -12 -1 -15 1 -3 2 -8 2
-17 0 -10 -1 -13 -2 -19 -9 l-8 -8 0 -66 c0 -47 1 -67 3 -73 l2 -9 17 1 c9 0
16 -1 16 -2 0 -1 3 4 7 12 8 18 12 21 27 21 15 0 22 -7 22 -23 0 -14 -4 -18
-21 -27 -19 -9 -22 -13 -22 -31 0 -10 1 -16 4 -22 5 -11 5 -27 0 -35 -3 -3 -9
-7 -17 -9 -32 -12 -37 -20 -38 -63 -1 -17 0 -32 1 -33 0 -2 1 -3 1 -4 0 -1 0
-4 2 -7 1 -3 2 -4 2 -3 0 2 6 3 16 3 l16 1 0 -9 c0 -5 1 2 2 16 1 18 2 27 5
31 3 5 24 13 34 13 6 -1 13 -5 11 -8 0 -1 0 -3 1 -6 0 -3 1 -8 2 -13 1 -4 2
-10 4 -15 5 -11 5 -31 1 -47 -7 -23 -14 -26 -44 -22 -6 1 -12 2 -13 3 -1 1 -6
0 -10 -2 -8 -4 -10 -6 -12 -16 -1 -6 -5 -21 -12 -41 l-7 -21 0 -47 c0 -46 2
-60 8 -67 1 -2 4 -5 6 -8 2 -4 5 -6 7 -6 1 0 4 -3 7 -7 l5 -7 -6 -6 c-3 -3 -7
-7 -8 -8 -1 -2 -4 -7 -7 -11 -7 -10 -8 -21 -5 -36 3 -12 2 -30 -2 -34 -7 -7
-17 -11 -31 -12 -26 -1 -34 5 -34 25 0 14 3 18 18 28 11 7 18 15 23 27 3 6 3
19 3 86 0 84 0 85 -11 108 -9 20 -9 30 0 50 11 24 11 25 11 115 l-1 83 -8 19
c-9 24 -9 30 1 54 l7 19 1 107 c0 70 0 109 -2 114 -3 10 -9 15 -21 18 -5 1
-12 3 -13 4 -2 1 -4 1 -4 0 -2 -5 -18 -3 -22 2 -6 6 -4 19 2 24 5 4 20 5 20 2
0 -1 1 -2 2 -1 1 1 7 3 13 4 25 7 25 5 25 111 0 75 0 89 -3 95 -4 9 -14 21
-18 21 -2 0 -3 1 -3 2 0 2 -4 2 -30 2 -33 0 -41 -3 -59 -21 -21 -21 -32 -22
-51 0 -14 15 -25 21 -36 21 -4 -1 -8 -2 -8 -2 0 -1 -1 -2 -3 -2 -4 0 -14 -12
-18 -21 -2 -6 -3 -16 -3 -52 0 -49 1 -52 14 -78 8 -17 8 -29 -1 -47 -12 -25
-13 -31 -13 -66 1 -34 4 -43 15 -54 12 -11 18 -12 43 -2 10 3 19 6 20 6 5 -1
10 -8 10 -12 0 -6 -3 -8 -23 -18 -34 -16 -53 -45 -53 -80 0 -6 -1 -16 -3 -21
-9 -27 -9 -36 -9 -168 l0 -127 8 -8 c5 -5 10 -8 15 -9 5 -1 10 -2 12 -3 3 -1
5 -1 5 0 1 1 3 2 6 2 19 2 26 -4 26 -21 0 -17 -7 -23 -26 -21 -3 0 -5 1 -6 2
0 1 -2 1 -5 0 -2 -1 -7 -2 -12 -3 -5 -1 -10 -4 -15 -9 l-8 -8 1 -104 c1 -142
1 -133 0 -189 -2 -63 -1 -67 15 -83 6 -6 13 -12 16 -14 14 -9 14 -41 0 -50 -3
-2 -10 -8 -16 -14 -14 -13 -17 -24 -16 -47 3 -33 20 -56 47 -63 8 -2 53 1 93
7 15 2 32 11 42 21 10 10 15 12 33 13 9 0 18 1 20 3 1 1 3 1 4 1 0 -1 1 -1 1
1 0 1 1 2 2 1 2 -2 8 6 12 16 4 11 4 11 4 18 0 11 9 15 35 18 13 2 13 2 24 21
12 20 15 23 27 23 15 0 23 -8 23 -23 0 -14 -7 -21 -21 -23 -5 0 -12 -2 -15 -3
-3 -1 -5 -1 -5 0 0 1 -3 1 -6 0 -3 -1 -6 -3 -6 -4 0 -1 -4 -7 -8 -14 -6 -9 -8
-14 -7 -17 1 -2 2 -6 2 -8 0 -2 1 -4 1 -4 0 0 1 -2 1 -4 1 -4 6 -11 12 -13 6
-4 17 -4 44 -1 44 5 47 5 53 8 5 3 16 13 13 13 -1 0 0 1 1 3 2 2 3 10 3 27 0
24 0 24 6 29 4 4 7 5 17 5 10 0 15 -2 42 -15 17 -9 36 -20 42 -24 9 -8 11 -9
21 -9 10 0 24 6 31 15 8 9 29 13 41 6 15 -7 16 -40 1 -48 -4 -2 -13 -3 -29 -4
-21 0 -23 0 -37 -7 -8 -4 -21 -10 -28 -14 -18 -8 -24 -16 -24 -29 0 -8 1 -10
7 -17 4 -4 9 -8 10 -8 2 0 3 -1 3 -2 0 -3 11 -3 88 -3 77 0 88 0 88 3 0 1 1 2
3 2 4 0 14 12 18 21 3 7 3 14 3 32 -1 27 -3 33 -17 48 -13 14 -15 18 -15 26 0
8 4 16 11 22 8 5 17 20 17 26 1 3 1 7 2 8 1 1 1 78 1 170 0 163 0 168 -5 186
l-4 18 5 20 c4 20 4 21 4 210 0 105 -1 196 -1 202 -1 8 -4 18 -8 25 -18 36
-18 44 -1 66 10 14 11 21 11 107 l-1 78 -5 11 c-3 6 -7 13 -9 14 -4 5 -9 15
-9 21 0 6 5 16 9 21 13 12 19 49 12 67 -4 9 -14 21 -18 21 -2 0 -3 1 -3 2 0 2
-2 2 -31 3 -17 1 -27 0 -27 -1 0 -1 -1 -2 -3 -2 -6 0 -10 -8 -11 -22 -1 -11
-1 -14 2 -16 2 -1 3 -5 3 -17 0 -14 0 -16 -6 -20 -7 -7 -28 -7 -36 -1 -4 4 -8
13 -8 21 0 6 4 17 6 18 4 2 1 28 -4 33 -2 2 -5 4 -6 4 -2 0 -3 1 -3 2 0 1 -9
2 -23 1 -27 -1 -29 -1 -29 -3 0 -1 -1 -2 -2 -2 -8 0 -12 -7 -12 -21 l0 -13 12
-9 c13 -10 15 -14 17 -27 1 -11 7 -28 10 -32 1 -2 4 -7 6 -12 3 -9 2 -10 -2
-14 -4 -3 -5 -3 -9 -1 -10 5 -38 -2 -42 -11 -1 -4 -2 -32 -2 -119 0 -139 -3
-125 30 -156 8 -8 8 -14 0 -22 -22 -21 -24 -23 -27 -33 -3 -10 -3 -27 -3 -181
1 -163 1 -170 5 -178 8 -18 19 -24 47 -26 25 -2 33 -8 33 -29 -1 -9 -5 -22 -9
-22 -2 0 -22 -20 -22 -23 0 -2 -1 -3 -1 -3 -1 -1 -5 -7 -9 -14 -4 -9 -9 -16
-14 -19 -26 -20 -29 -26 -30 -73 -1 -34 -1 -38 -5 -43 l-5 -5 -5 5 -5 6 0 82
c0 92 -1 100 -11 106 -8 5 -26 6 -30 2 -5 -5 -18 -4 -23 2 -8 8 -5 20 10 35 4
4 9 12 12 19 3 7 7 13 8 14 1 1 2 2 1 3 0 1 5 7 12 15 20 21 20 20 20 76 1 39
0 48 -2 52 -2 2 -3 5 -2 5 2 3 -12 7 -22 7 -5 0 -11 0 -11 2 -1 1 -2 1 -2 -1
0 -5 -9 -8 -34 -11 -5 -1 -11 -1 -14 -2 -3 0 -11 -2 -19 -3 -8 -1 -17 -3 -19
-4 -3 -1 -7 -1 -9 -1 -2 1 -6 1 -8 1 -4 1 -5 2 -5 9 -1 4 0 8 0 8 1 1 2 2 1 3
-1 1 0 2 1 2 1 0 3 4 4 8 3 10 8 15 21 23 8 5 18 18 19 26 0 5 5 16 7 19 4 4
10 0 27 -16 8 -8 15 -14 17 -14 2 0 3 -1 3 -2 0 -1 2 -2 4 -3 2 -1 4 -3 4 -5
0 -2 1 -2 2 -1 0 2 6 2 11 2 10 0 24 4 22 7 0 1 0 3 2 5 2 3 3 24 3 123 0 119
0 120 -4 129 -5 10 -18 21 -24 21 -2 0 -5 2 -7 4 -3 2 -5 3 -6 3 -1 -2 -15 5
-15 7 0 1 -3 3 -8 5 -7 3 -12 11 -12 20 0 4 8 12 12 13 8 1 24 -11 24 -17 0
-3 1 -3 1 -1 1 1 6 2 17 2 l15 0 4 10 c4 12 5 111 1 124 -3 10 -12 20 -25 27
-23 13 -23 25 2 37 10 5 19 15 23 26 1 5 2 53 2 175 0 149 0 169 -3 176 -4 9
-14 21 -18 21 -2 0 -3 1 -3 2 0 1 -1 2 -2 2 -7 1 -178 2 -182 0z m71 -51 c7
-6 9 -25 4 -34 -3 -6 -6 -23 -6 -29 0 -2 1 -8 2 -13 1 -13 -3 -20 -8 -14 -2 2
-3 5 -3 7 0 1 -1 3 -1 4 0 1 -1 2 -1 3 -1 1 -2 3 -2 5 0 2 -1 4 -2 4 -1 0 -2
2 -2 4 0 2 -5 9 -11 16 l-12 13 0 14 c0 14 0 16 6 20 8 7 28 7 36 0z m55 -181
c5 -5 5 -15 0 -20 -9 -9 -24 -2 -24 10 0 8 6 14 14 14 3 0 8 -2 10 -4z m32
-101 c7 -7 6 -22 -1 -28 -8 -7 -23 -7 -29 0 -6 6 -6 21 0 28 7 8 23 8 30 0z
m-279 -41 c7 -6 7 -19 1 -25 -6 -7 -19 -7 -25 -1 -7 6 -7 19 -1 25 6 7 19 7
25 1z m274 -115 c5 -8 1 -16 -8 -16 -9 0 -13 8 -8 16 2 3 5 5 8 5 3 0 6 -2 8
-5z m-270 -191 c5 -5 6 -7 6 -16 0 -15 -8 -23 -23 -23 -9 0 -11 1 -16 7 -9 8
-9 23 -1 32 9 9 24 9 34 0z m460 -165 c21 -12 30 -35 18 -46 -7 -7 -20 -6 -48
2 -16 5 -23 11 -23 22 0 4 1 10 3 13 8 11 36 16 50 9z m-485 -24 c3 -3 4 -7 4
-14 0 -13 -6 -19 -19 -19 -13 0 -19 6 -19 19 0 7 1 11 4 14 7 8 23 8 30 0z
m456 -136 c3 -3 4 -7 4 -14 0 -13 -6 -19 -19 -19 -13 0 -19 6 -19 19 0 7 1 11
4 14 7 8 23 8 30 0z m-245 -149 c6 -2 13 -11 13 -16 0 -8 -7 -18 -17 -22 -24
-10 -42 -3 -42 18 0 20 20 29 46 20z m-268 -88 c5 -7 4 -25 -2 -31 -6 -6 -21
-7 -29 -3 -14 7 -11 36 4 39 3 1 6 2 7 2 5 1 16 -3 20 -7z m607 -10 c5 -6 5
-12 0 -18 -7 -8 -22 -2 -22 9 0 11 15 17 22 9z m-347 -20 c8 -7 21 -31 24 -43
1 -6 -4 -15 -9 -15 -7 0 -28 12 -40 23 -1 2 -6 4 -10 5 -4 2 -8 4 -8 5 0 4 9
19 14 24 8 7 21 8 29 1z m292 -62 c9 0 26 -28 31 -49 2 -10 2 -11 -1 -14 -3
-2 -5 -4 -7 -5 -9 -2 -47 19 -53 28 -4 7 -4 26 0 32 6 7 12 9 30 8z m-317
-145 l-5 -5 -4 4 -5 5 4 4 5 5 4 -4 5 -5 -4 -4z m371 -27 c10 -9 3 -26 -10
-26 -8 0 -15 7 -15 15 0 13 16 20 25 11z"/>
<path d="M856 3726 c-3 -1 -6 -1 -7 0 0 0 -1 0 -1 -2 0 -1 -1 -2 -3 -2 -4 0
-14 -12 -18 -22 -3 -7 -3 -13 -2 -47 1 -49 2 -77 0 -79 -2 -3 5 -26 9 -30 3
-4 6 -4 16 -4 12 1 14 1 19 7 5 6 22 39 28 56 6 16 12 21 28 22 30 2 41 -35
17 -60 -4 -5 -18 -26 -18 -28 0 -3 -6 -10 -12 -14 -6 -4 -24 -4 -28 -1 -1 2
-2 2 -2 2 0 -1 -4 -1 -8 0 -20 5 -35 -11 -48 -52 -3 -9 -3 -157 0 -166 2 -4 5
-10 8 -13 8 -7 27 -15 34 -13 39 13 47 14 61 13 27 -2 45 -10 64 -28 12 -11 7
-23 -9 -23 -14 0 -38 4 -45 7 -8 4 -25 4 -34 0 -7 -3 -13 -10 -22 -27 -6 -10
-8 -12 -23 -19 -29 -15 -34 -22 -36 -53 -1 -24 3 -39 11 -50 3 -4 9 -13 14
-20 5 -7 12 -17 16 -21 l7 -8 23 0 c44 0 55 -7 60 -32 3 -14 12 -32 21 -40 13
-11 16 -17 16 -27 0 -18 -9 -23 -44 -21 -11 0 -23 1 -24 2 -5 2 -10 10 -13 23
-5 18 -13 33 -22 42 -5 5 -9 10 -9 11 0 4 -12 21 -14 21 -1 0 -2 2 -2 4 0 2
-1 2 -1 1 -1 -2 -4 -3 -7 -3 -4 0 -6 1 -5 2 1 1 -1 1 -4 0 -3 -1 -7 -2 -8 -1
-3 1 -8 -7 -12 -21 -2 -7 -3 -23 -3 -68 0 -78 1 -80 26 -81 8 0 14 1 14 2 0 2
16 26 21 29 5 4 17 7 22 5 11 -3 15 -24 7 -34 -12 -16 -50 -37 -50 -28 0 1 0
1 -2 0 0 -1 -6 -4 -12 -6 -25 -7 -26 -9 -26 -89 0 -69 0 -71 14 -91 11 -15 28
-19 51 -11 33 13 51 -7 35 -40 -4 -9 -5 -15 -5 -22 1 -15 5 -20 31 -32 11 -5
15 -12 15 -25 0 -13 -12 -37 -34 -71 -5 -8 -12 -19 -15 -24 -10 -20 -24 -26
-34 -15 -8 8 -5 18 10 37 13 15 18 30 18 53 l0 21 -11 21 c-6 12 -11 23 -11
25 1 2 -1 8 -4 13 -5 13 -12 16 -28 14 -10 -1 -17 -7 -26 -25 l-5 -11 -1 -87
c0 -48 0 -90 1 -93 2 -10 10 -18 20 -21 6 -1 12 -3 15 -4 2 -1 4 -1 4 0 0 1 3
2 8 2 14 0 22 -18 11 -28 -4 -4 -19 -6 -19 -2 0 1 -2 1 -4 0 -3 -1 -9 -3 -15
-4 -10 -3 -18 -11 -20 -21 -1 -3 -1 -35 -1 -71 l1 -65 6 -9 c3 -6 9 -13 15
-16 24 -17 24 -29 -1 -46 -5 -3 -11 -10 -14 -16 l-6 -9 -1 -74 c0 -64 0 -75 3
-82 4 -9 14 -21 18 -21 2 0 3 -1 3 -2 0 -2 2 -2 74 -3 78 -1 76 -2 107 14 41
20 46 26 46 59 0 21 0 21 6 27 6 5 8 6 20 6 23 0 36 11 44 39 2 6 7 15 10 20
8 11 14 32 12 43 -2 15 4 29 15 33 14 6 41 4 49 -4 10 -9 5 -26 -12 -44 -29
-31 -26 -54 11 -64 7 -2 11 -1 29 3 31 8 38 6 52 -9 4 -4 12 -10 19 -13 12 -5
12 -5 54 -5 l41 1 10 6 c9 6 13 10 23 29 6 11 11 14 23 14 13 0 17 -3 25 -18
4 -7 9 -13 10 -13 2 -1 4 -2 3 -3 -1 -2 3 -2 22 -5 6 0 7 0 8 6 4 19 4 22 1
30 -8 25 16 46 42 36 12 -5 18 -22 14 -36 -5 -15 2 -42 12 -43 2 0 4 0 5 0 0
0 1 -1 1 -3 0 -1 3 -5 6 -8 3 -2 5 -5 5 -6 -3 -2 4 -19 8 -22 2 -2 9 -3 16 -3
10 0 13 -1 14 -3 0 -3 1 -3 1 0 0 6 8 11 17 12 15 0 18 -2 30 -18 13 -17 20
-21 61 -35 l25 -8 30 1 c34 1 35 1 35 3 0 1 1 2 3 2 4 0 14 12 18 21 2 6 3 15
3 36 0 42 -3 49 -31 63 -20 10 -23 13 -23 27 0 14 3 17 23 27 18 9 25 16 29
28 1 5 2 54 2 179 -1 158 -1 173 -4 180 -5 12 -12 18 -30 28 -5 2 -8 4 -8 5 0
2 -16 6 -26 6 -8 0 -18 -3 -18 -6 0 -1 -1 -2 -2 -2 -1 0 -4 -1 -5 -3 -5 -5
-22 -4 -28 2 -7 7 -7 23 0 30 6 6 23 7 28 2 8 -8 33 -9 43 -2 7 4 7 5 6 15 -1
15 -4 21 -16 31 -12 11 -16 23 -11 37 5 16 13 22 30 20 5 0 16 2 24 6 15 7 19
26 9 41 -6 8 -6 9 -19 9 -12 1 -13 1 -19 -5 -4 -4 -8 -7 -8 -7 -1 0 -4 -2 -7
-5 -5 -6 -13 -7 -20 -3 -3 1 -5 1 -5 1 -1 -1 -4 2 -7 5 -5 5 -6 8 -6 16 0 13
8 21 20 23 19 2 42 9 52 16 20 14 27 28 27 55 0 31 -6 46 -27 62 -14 12 -19
20 -19 32 0 15 3 19 18 29 26 17 28 23 28 76 0 38 -2 52 -7 59 -1 1 -7 2 -16
2 l-15 0 0 10 0 10 15 0 c9 0 15 1 16 3 8 9 9 44 3 57 -4 8 -10 11 -24 13 -5
1 -10 2 -10 2 -1 1 -2 0 -2 -1 0 -3 -10 -5 -25 -4 -2 0 -6 3 -9 6 -5 5 -6 7
-6 18 0 11 1 13 6 18 3 3 7 6 9 6 15 1 25 -1 25 -4 0 -1 1 -2 2 -1 0 0 5 1 10
2 14 2 20 5 24 13 4 8 4 13 4 148 0 141 -1 160 -7 172 -6 11 -22 19 -43 21
-12 1 -16 3 -35 16 -17 11 -23 18 -23 27 0 11 5 14 24 14 24 0 36 0 41 -2 3
-1 9 0 17 3 24 8 26 12 26 64 0 31 -1 40 -3 46 -4 9 -14 21 -18 21 -2 0 -3 1
-3 2 0 2 -2 2 -91 3 -73 1 -87 1 -96 -2 -14 -4 -22 -12 -26 -26 -4 -11 -4 -12
0 -21 2 -5 4 -12 4 -16 l0 -7 10 -1 c16 0 35 -5 39 -10 6 -7 5 -25 -1 -31 -6
-6 -21 -7 -29 -3 -6 3 -18 28 -18 35 l1 6 -12 0 c-20 0 -37 3 -42 8 -3 3 -6 8
-8 18 -5 22 -9 32 -16 38 -12 12 -21 13 -84 13 -55 0 -56 0 -66 -5 -10 -4 -19
-14 -19 -19 0 -1 -1 -2 -2 -2 -2 0 -2 -12 1 -17 2 -2 3 -5 3 -7 0 -6 20 -25
30 -28 18 -5 25 -6 37 -3 16 4 36 5 44 0 10 -5 14 -19 16 -53 2 -19 1 -20 -3
-25 -4 -4 -7 -5 -13 -5 -9 0 -13 3 -30 22 -6 7 -17 16 -20 16 -1 0 -5 2 -9 5
-8 5 -40 15 -50 15 -8 0 -13 5 -19 18 -16 36 -30 42 -61 27 -27 -13 -45 -8
-44 13 1 9 -1 21 -4 25 0 1 -1 3 -1 5 -1 2 -4 6 -8 9 -20 17 -49 9 -71 -20 -5
-7 -10 -10 -27 -14 -22 -5 -36 -2 -48 10 -7 7 -33 17 -41 16 -2 0 -12 4 -22 8
l-19 8 -98 0 c-54 1 -100 0 -103 -1z m269 -115 c3 -3 3 -3 0 -6 -4 -5 -11 1
-7 6 4 4 4 4 7 0z m-73 -13 c5 -6 6 -8 6 -18 0 -13 -3 -17 -14 -18 -13 -1 -16
0 -22 6 -8 8 -9 23 -1 31 8 8 23 7 31 -1z m322 -21 c9 -4 21 -8 25 -10 4 -2
10 -4 12 -4 14 -3 19 -34 7 -45 -8 -9 -18 -9 -50 0 -35 9 -38 10 -42 15 -6 7
-8 20 -6 30 6 21 22 25 54 14z m297 -38 c6 -4 9 -14 10 -40 1 -20 1 -23 -3
-31 -2 -5 -4 -8 -4 -6 0 2 -1 1 -2 -1 -1 -3 -3 -5 -3 -5 -1 0 -4 -1 -6 -1 -4
0 -5 1 -7 5 -1 3 -3 6 -5 7 -1 0 -2 4 -3 9 0 5 -2 15 -5 23 -8 23 -7 37 4 41
7 3 20 2 24 -1z m-165 -85 c18 -5 24 -5 40 0 17 5 24 5 48 -2 16 -5 22 -6 25
-4 4 1 5 1 10 -4 l5 -6 0 -81 c0 -71 -1 -82 -3 -90 -6 -13 -9 -19 -9 -15 0 2
-3 5 -6 6 -3 2 -6 3 -6 4 0 2 -13 3 -73 3 l-62 0 -5 6 c-4 4 -6 8 -6 9 0 6 -5
17 -9 20 -7 5 -30 10 -33 7 -1 -2 -5 -3 -9 -3 -11 0 -36 -7 -45 -13 -16 -11
-21 -31 -14 -58 2 -8 5 -15 5 -17 0 -2 1 -3 1 -3 0 0 1 -1 1 -3 0 -2 4 -10 8
-18 8 -17 9 -22 3 -28 -9 -10 -28 -4 -31 9 -1 4 -5 8 -11 13 -15 10 -35 31
-40 42 -7 16 -5 24 13 35 9 6 22 23 18 23 -1 0 0 1 1 3 1 1 3 7 3 12 2 11 7
19 14 19 10 0 40 13 46 20 2 2 6 6 9 7 7 4 25 4 28 0 2 -2 5 -2 16 1 23 5 26
11 26 47 0 24 -3 39 -8 39 -1 0 -1 2 1 4 2 1 6 6 9 10 5 6 13 9 22 10 2 0 10
-2 18 -4z m-273 -13 c4 -3 8 -5 9 -5 2 0 2 -1 0 -1 -6 -3 -7 -13 -7 -86 l0
-72 -6 -6 -6 -6 -60 0 c-66 0 -68 0 -73 -6 -3 -2 -4 -3 -4 -1 0 1 -2 5 -4 9
-5 6 -5 7 -6 87 l-1 81 6 6 6 6 70 -1 c69 -1 70 -1 76 -5z m473 -12 c12 -11 6
-29 -10 -29 -15 0 -20 15 -12 33 3 7 12 5 22 -4z m-813 2 c5 -8 1 -16 -8 -16
-9 0 -13 8 -8 16 2 3 5 5 8 5 3 0 6 -2 8 -5z m943 -107 c1 0 5 -3 8 -6 5 -5 6
-7 6 -18 0 -11 -1 -13 -6 -18 -6 -6 -7 -6 -18 -6 -11 0 -12 0 -18 6 -5 5 -6 7
-6 17 0 14 3 20 12 24 5 2 8 2 22 1z m-533 -166 c6 -3 11 -6 11 -5 0 3 12 -5
14 -9 4 -8 3 -20 -2 -24 -4 -5 -5 -5 -15 -1 -5 2 -12 5 -14 8 -2 2 -6 5 -9 6
-5 3 -12 15 -12 20 0 4 8 11 13 11 2 0 8 -3 14 -6z m347 -21 c2 -2 8 -4 13 -6
10 -4 12 -4 18 -5 2 0 6 -3 9 -6 5 -5 6 -7 6 -18 0 -11 -1 -13 -6 -18 -3 -3
-7 -6 -9 -6 -6 -1 -8 -1 -18 -5 -12 -4 -16 -7 -18 -12 0 -4 -1 -4 -1 0 0 3 -2
6 -5 7 -4 2 -7 5 -9 6 -1 2 -3 5 -5 6 -3 4 -9 20 -9 25 0 9 12 32 16 31 3 -1
12 4 12 6 0 2 1 2 1 0 1 -2 3 -4 5 -5z m-148 -11 c5 -5 6 -7 6 -17 0 -16 -7
-23 -23 -23 -10 0 -12 1 -17 6 -5 5 -6 7 -6 17 0 16 7 23 23 23 10 0 12 -1 17
-6z m-479 -4 c5 -4 5 -5 2 -13 -4 -8 -17 -23 -28 -30 -3 -2 -9 -3 -17 -4 -16
0 -21 7 -20 27 0 10 7 16 25 20 21 5 33 5 38 0z m829 -51 c3 -3 4 -5 4 -16 0
-12 -1 -14 -7 -24 -4 -6 -10 -18 -14 -26 -9 -20 -12 -23 -24 -23 -21 0 -26 17
-11 40 4 7 10 20 14 29 3 9 8 18 10 20 6 4 21 4 28 0z m-561 -33 c5 -4 13 -10
16 -14 14 -16 21 -22 35 -29 8 -5 16 -10 18 -12 3 -4 3 -20 0 -25 -12 -14 -14
-24 -12 -61 0 -8 0 -10 -6 -15 -9 -10 -23 -9 -56 6 -14 7 -16 7 -28 3 -10 -3
-16 -10 -21 -22 -4 -8 -10 -15 -13 -15 -1 0 -8 6 -16 14 -19 19 -25 21 -55 19
-28 -1 -29 -1 -29 -3 0 -1 -1 -2 -3 -2 -4 0 -14 -12 -18 -21 -3 -7 -3 -22 -3
-128 l1 -120 5 -10 c2 -5 8 -15 12 -20 l9 -11 -5 -13 c-2 -6 -8 -15 -11 -20
-6 -6 -7 -8 -7 -18 0 -13 2 -15 21 -15 l14 0 8 10 c9 12 15 14 37 12 31 -3 44
-7 50 -14 14 -19 30 -28 52 -29 21 -1 29 -9 29 -29 -1 -18 -10 -27 -28 -27
-13 0 -20 4 -27 15 -11 17 -24 25 -47 27 -5 1 -17 3 -26 6 -34 9 -53 1 -70
-29 -3 -5 -6 -9 -7 -10 -1 -1 -4 -6 -6 -12 -5 -13 -6 -61 -1 -73 4 -9 14 -21
18 -21 2 0 3 -1 3 -2 0 -2 10 -3 59 -3 54 0 54 0 70 16 4 5 11 10 14 12 8 3
14 1 26 -12 17 -17 26 -19 53 -8 24 9 26 9 53 -1 l22 -8 78 1 c81 1 83 1 83 3
0 1 1 2 3 2 4 0 14 12 18 22 3 8 3 25 0 37 0 2 -2 9 -4 16 -4 15 -4 21 0 36 2
7 4 14 5 17 0 3 1 14 1 26 0 18 -1 22 -4 28 -4 7 -5 7 -19 8 -15 1 -15 1 -21
-5 -11 -11 -15 -13 -28 -13 -18 0 -23 5 -25 22 0 10 1 16 4 24 5 14 12 18 34
19 20 2 30 4 38 11 10 7 11 8 14 17 4 9 4 15 0 36 -3 14 -3 17 2 42 9 52 7 75
-7 81 -9 3 -27 6 -29 4 -3 -3 -20 -3 -25 1 -8 5 -12 26 -6 32 8 7 26 10 32 5
2 -2 3 -2 3 0 0 1 1 2 2 1 2 -1 20 3 20 5 0 1 1 2 2 1 6 -4 15 34 11 50 0 2
-1 6 -1 7 0 5 -14 20 -17 20 -2 0 -3 1 -3 2 0 2 -2 2 -51 3 -57 1 -55 2 -55
-21 -1 -14 -1 -15 -5 -16 -3 0 -5 1 -5 2 0 1 1 2 2 2 5 -1 5 1 6 18 0 17 0 18
-5 22 -6 5 -6 5 -5 25 1 33 -5 43 -31 55 -18 8 -21 12 -21 23 0 17 14 21 45
13 15 -4 21 -4 82 -3 67 1 71 1 71 3 0 0 3 2 6 4 3 1 6 4 6 6 0 2 3 -2 6 -8
l5 -11 1 -78 c1 -74 1 -78 5 -85 8 -13 26 -21 38 -16 10 4 29 2 34 -2 6 -6 7
-18 2 -26 -8 -11 -12 -14 -45 -23 -22 -6 -32 -16 -33 -37 -2 -14 0 -21 15 -52
4 -9 4 -23 0 -32 -15 -32 -17 -38 -15 -54 1 -7 1 -20 1 -28 0 -8 -1 -69 -1
-135 -1 -118 0 -139 5 -136 1 1 2 1 2 0 0 -1 7 -2 15 -1 13 0 15 0 16 -3 0 -2
1 -1 1 3 0 3 1 8 2 10 1 1 4 12 7 23 8 34 19 47 39 48 15 0 22 -4 26 -15 6
-14 10 -24 8 -23 0 0 -3 -1 -5 -4 -1 -2 -5 -7 -8 -10 -3 -4 -11 -10 -17 -14
-12 -7 -23 -21 -25 -30 -1 -3 -2 -5 -3 -5 -1 0 -3 -4 -5 -8 -6 -16 -16 -25
-33 -30 -14 -3 -31 8 -40 26 -2 4 -5 6 -10 7 -12 2 -184 1 -192 -1 -15 -4 -23
-20 -22 -44 0 -20 -9 -28 -28 -24 -10 2 -12 6 -15 24 -4 22 -10 34 -21 40 l-9
5 -118 0 -118 0 -6 6 -6 6 0 246 c0 277 2 252 -16 270 -17 18 -19 26 -9 41 9
13 10 33 2 45 -10 14 -8 25 7 41 12 12 16 22 17 49 1 21 2 25 6 30 2 4 4 8 4
9 0 2 1 1 4 -1 1 -2 5 -4 8 -5 10 -2 130 -1 132 1 0 1 3 3 5 4 4 2 11 15 14
23 1 3 4 7 6 10 5 6 5 6 15 3 6 -2 15 -7 21 -11z m500 -141 c12 -12 3 -31 -13
-31 -11 0 -18 7 -18 18 0 11 7 18 18 18 6 0 9 -1 13 -5z m-303 -54 c5 -5 8
-11 11 -28 3 -15 -26 -30 -43 -22 -19 8 -23 37 -8 50 9 7 31 7 40 0z m-159
-77 c4 -4 5 -9 6 -24 1 -10 2 -23 3 -29 1 -5 3 -12 3 -15 3 -16 15 -35 24 -37
3 0 8 -4 11 -8 l7 -6 0 -39 0 -39 -6 -6 -6 -6 -25 0 -25 0 -6 6 -6 6 1 38 0
39 -8 21 c-9 24 -9 29 -5 50 1 8 3 21 4 29 2 18 6 24 17 24 5 0 9 -1 11 -4z
m108 -22 c16 -7 16 -43 -1 -50 -11 -5 -28 -4 -33 1 -10 10 -13 28 -6 40 5 12
23 15 40 9z m-413 -29 l-5 -5 -4 4 -5 5 4 4 5 5 4 -4 5 -5 -4 -4z m-8 -77 c1
0 5 -3 8 -6 5 -5 6 -7 6 -18 0 -11 -1 -13 -6 -18 -6 -6 -7 -6 -18 -6 -11 0
-12 0 -18 6 -5 5 -6 7 -6 17 0 14 3 20 12 24 5 2 8 2 22 1z m161 -35 c3 -5 3
-5 0 -10 -5 -6 -7 -6 -13 -2 -5 4 -5 8 0 13 4 5 8 5 13 -1z m658 -251 c13 -7
20 -33 11 -43 -7 -9 -30 -11 -45 -5 -6 3 -15 20 -16 30 -1 5 13 19 21 21 3 1
6 2 7 2 4 1 16 -1 22 -5z m-50 -103 c20 -12 31 -16 42 -14 8 1 9 1 12 -4 3 -5
3 -6 1 -11 -4 -6 -8 -7 -17 -3 -4 2 -8 3 -9 3 -1 0 -5 1 -8 3 -6 3 -17 4 -31
2 -11 -2 -19 4 -19 14 0 14 14 19 29 10z m-155 -28 c2 -1 5 -6 6 -11 2 -12 6
-17 23 -28 16 -11 19 -15 19 -29 0 -23 -4 -25 -54 -28 -26 -2 -27 -1 -31 19
-3 13 -12 37 -16 42 -3 4 -2 25 2 31 4 7 9 9 24 11 14 1 19 0 27 -7z m-351 -7
c7 -6 7 -19 1 -25 -6 -7 -19 -7 -25 -1 -7 6 -7 19 -1 25 6 7 19 7 25 1z m-361
-8 c5 -5 6 -7 6 -17 0 -16 -7 -23 -21 -23 -19 0 -25 6 -25 24 0 15 7 22 23 22
10 0 12 -1 17 -6z m426 -48 c5 -6 5 -8 1 -14 -8 -10 -24 2 -16 13 4 6 10 7 15
1z m443 -56 c4 -6 4 -24 -1 -30 -7 -9 -27 -9 -34 0 -5 6 -5 24 0 30 7 9 27 9
35 0z m-867 -145 l-5 -5 -4 4 -5 5 4 4 5 5 4 -4 5 -5 -4 -4z"/>
<path d="M1272 2987 c0 -4 -1 -5 -5 -3 -2 1 -6 1 -8 0 -1 -1 -3 -1 -3 -1 0 1
-1 1 -2 -1 -1 -2 -2 -2 -2 0 0 2 -1 2 -3 -1 -2 -1 -3 -4 -3 -5 0 -1 -1 -2 -2
-2 -2 0 -2 -4 1 -6 0 -1 1 -3 2 -5 0 -3 1 -4 2 -5 9 -1 14 -2 16 -4 2 -2 3 -2
4 0 0 2 1 1 3 -2 l2 -5 0 6 c0 3 1 8 1 11 1 3 0 10 -1 16 -1 6 -2 9 -2 7z"/>
<path d="M344 3456 c-6 -1 -11 -6 -16 -18 -7 -14 -5 -64 3 -66 0 0 8 0 16 0
12 0 15 -1 16 -3 0 -2 1 0 1 4 0 5 1 9 2 10 1 1 2 3 2 4 0 2 2 8 5 15 4 7 6
16 7 26 l1 14 -8 7 c-8 8 -15 9 -29 7z"/>
</g>
</svg>
