<?xml version="1.0" standalone="no"?>
<!DOCTYPE svg PUBLIC "-//W3C//DTD SVG 20010904//EN"
 "http://www.w3.org/TR/2001/REC-SVG-20010904/DTD/svg10.dtd">
<svg version="1.0" xmlns="http://www.w3.org/2000/svg"
 width="1100.000000pt" height="2850.000000pt" viewBox="0 0 1100.000000 2850.000000"
 preserveAspectRatio="xMidYMid meet">
<metadata>
Created by potrace 1.15, written by Peter Selinger 2001-2017
</metadata>
<g transform="translate(0.000000,2850.000000) scale(0.500000,-0.500000)"
fill="#000000" stroke="none">
<path d="M1154 3813 c-19 -7 -25 -13 -26 -28 -1 -12 -1 -12 8 -25 8 -12 8 -14
7 -23 -1 -11 -4 -18 -13 -28 -3 -3 -6 -8 -6 -11 -2 -9 -3 -10 -9 -17 l-6 -6
-45 1 c-65 0 -71 -2 -75 -28 -1 -4 -2 -8 -2 -10 -1 -1 0 -3 2 -3 4 -2 4 -14
-1 -19 -9 -9 -24 -2 -24 10 0 3 1 7 3 9 2 2 3 5 2 7 0 3 -1 9 -2 13 -1 4 -3
10 -5 12 -8 9 -5 9 -146 8 -136 0 -138 0 -138 -3 0 -1 -1 -2 -3 -2 -4 0 -16
-13 -16 -18 -1 -5 -2 -12 -3 -14 0 -1 0 -2 0 -3 0 -1 0 -8 0 -15 -2 -87 -2
-189 0 -191 1 -1 2 -3 2 -5 0 -9 19 -19 40 -21 13 -2 18 -8 18 -20 0 -13 -5
-18 -19 -20 -35 -3 -44 -13 -46 -47 -1 -23 -4 -59 -6 -68 -1 -3 -1 -9 -2 -13
-4 -32 -15 -86 -27 -124 -3 -10 -10 -23 -14 -24 -1 -1 -5 2 -10 7 -4 5 -12 14
-17 20 -6 6 -18 20 -27 31 -10 11 -20 23 -24 27 -3 4 -11 12 -17 19 -44 51
-40 47 -58 47 -13 -1 -16 -3 -28 -21 -12 -17 -33 -26 -37 -16 -5 13 5 43 14
43 1 0 3 1 4 3 2 1 6 4 11 6 4 2 11 8 15 13 10 11 8 8 23 31 6 10 12 18 13 19
1 1 4 5 7 9 6 9 7 27 2 37 -4 7 -33 30 -38 30 0 0 -7 4 -14 8 -15 9 -75 40
-100 51 -9 4 -17 8 -19 9 -9 5 -87 36 -107 42 -17 6 -34 2 -47 -12 -4 -4 -4
-6 -3 -15 1 -13 5 -21 18 -33 20 -19 22 -47 7 -79 -8 -17 -12 -19 -27 -19 -11
0 -14 1 -18 5 -6 5 -6 5 -6 28 0 27 -1 29 -16 29 -10 0 -12 -1 -18 -7 -4 -4
-8 -7 -9 -7 0 0 -3 -3 -5 -8 -3 -4 -8 -12 -13 -18 -7 -10 -8 -12 -8 -24 0 -12
1 -14 6 -20 5 -5 44 -26 49 -26 2 0 111 -54 117 -58 3 -2 11 -7 18 -10 18 -10
43 -25 70 -43 15 -10 25 -15 31 -16 11 -2 14 -7 8 -17 -2 -4 -41 -44 -86 -89
-81 -81 -108 -107 -150 -144 -24 -21 -29 -26 -31 -35 -2 -8 -1 -20 2 -25 4 -8
152 -156 157 -158 17 -7 30 -3 51 19 33 34 51 54 51 57 1 2 2 7 2 11 1 4 2 7
2 8 1 0 -1 3 -3 6 -5 7 -10 9 -20 8 -27 -2 -36 1 -41 11 -4 8 -4 24 0 32 8 16
39 16 49 0 5 -10 8 -12 18 -23 8 -8 9 -8 17 -7 10 1 30 10 37 17 3 3 9 13 14
23 11 20 16 26 38 41 17 10 34 29 92 97 24 28 34 32 26 10 -10 -28 -30 -59
-75 -115 -5 -6 -15 -24 -15 -27 0 -1 -3 -8 -7 -15 -6 -12 -7 -16 -7 -27 0 -17
3 -22 30 -38 22 -13 74 -47 76 -49 1 -1 7 -5 14 -10 7 -5 22 -16 34 -25 11 -9
22 -17 24 -18 3 -2 3 -3 -4 -7 l-7 -5 -210 -1 -210 -1 -19 -7 c-10 -5 -21 -8
-24 -8 -2 0 -15 4 -27 8 -23 9 -24 9 -52 6 -2 -1 -3 -1 -3 -2 0 -1 -1 -2 -3
-2 -4 0 -14 -12 -18 -21 -5 -11 -5 -187 0 -198 4 -9 14 -21 18 -21 2 0 3 -1 3
-2 0 -1 1 -2 3 -2 1 0 83 -1 183 -2 l181 -1 8 -5 c5 -4 6 -6 4 -6 -1 -1 -13
-11 -27 -24 -13 -13 -32 -31 -42 -40 -11 -10 -23 -22 -29 -27 -5 -5 -20 -18
-33 -29 l-22 -19 0 -14 c0 -24 3 -25 63 -37 44 -9 55 -9 83 -4 16 3 21 2 45
-14 9 -6 22 -12 32 -15 16 -5 25 -11 25 -17 0 -3 -8 -19 -20 -42 -6 -11 -17
-22 -23 -22 -19 -1 -22 0 -32 20 -9 16 -22 29 -30 32 -6 2 -12 2 -28 -1 -22
-3 -30 -2 -43 6 -14 10 -27 11 -72 7 -1 -1 -6 -4 -11 -9 -9 -9 -13 -18 -14
-36 -1 -12 -3 -19 -8 -23 -6 -5 -30 -12 -42 -12 -13 0 -18 5 -21 22 -5 28 -12
38 -32 47 -12 5 -14 5 -42 5 -40 0 -44 -1 -53 -5 -11 -5 -15 -12 -16 -25 l-1
-11 9 -9 c6 -5 16 -13 24 -17 21 -11 24 -15 22 -32 -4 -48 -4 -44 4 -65 4 -10
10 -28 13 -40 16 -55 27 -63 80 -59 34 3 44 6 57 21 18 18 25 20 44 11 35 -16
43 -18 75 -18 15 0 85 7 128 12 4 0 21 2 39 4 18 2 36 5 41 7 11 4 24 16 31
29 8 17 14 20 32 19 3 0 10 -5 17 -12 22 -22 29 -23 76 -15 43 7 49 11 59 37
2 5 6 12 8 14 5 5 6 5 21 -10 19 -20 47 -22 55 -5 4 8 3 32 -2 37 -8 9 0 24
12 24 10 0 16 -8 14 -19 -1 -10 2 -23 5 -23 1 0 2 -1 1 -3 0 -2 0 -3 1 -3 0 1
3 0 5 -2 14 -7 36 -2 117 24 20 6 41 13 47 14 19 4 33 24 30 44 -3 20 8 34 28
35 19 1 34 -16 30 -35 -2 -7 -9 -24 -11 -24 -2 0 0 -23 2 -27 5 -9 17 -11 37
-5 16 5 20 5 45 -3 9 -2 22 -5 29 -6 17 -2 22 -5 30 -19 12 -19 25 -26 77 -43
57 -18 116 -37 150 -49 16 -6 37 -13 46 -16 14 -5 19 -6 29 -5 15 1 18 2 80
44 54 35 61 42 72 63 4 9 5 15 6 34 1 13 3 27 4 31 11 29 7 43 -18 56 -10 5
-13 5 -25 4 -7 0 -18 -2 -24 -5 -19 -6 -34 -1 -37 14 -3 17 -18 37 -31 43 -4
1 -26 7 -49 14 -42 11 -54 14 -108 28 -15 4 -31 8 -34 9 -5 2 -11 9 -11 12 0
2 20 21 57 57 19 18 22 30 17 57 -5 22 3 29 35 34 8 1 19 4 26 8 11 6 13 8 19
19 3 7 7 20 9 30 2 10 6 23 8 29 7 14 9 28 8 47 -1 14 -1 15 4 20 7 7 23 7 30
0 6 -6 6 -3 2 -41 -2 -13 3 -30 10 -42 3 -4 5 -9 5 -10 0 -3 13 -15 20 -19 6
-3 12 -4 45 -5 50 -1 56 2 68 26 10 21 10 21 33 18 11 -1 25 -3 30 -4 21 -3
38 3 44 16 7 13 3 47 -5 52 -1 1 -8 2 -15 2 -11 0 -14 1 -15 4 0 1 -1 0 -1 -3
0 -8 -8 -13 -22 -13 -15 0 -22 7 -22 22 0 9 5 23 10 26 2 2 11 16 15 26 6 14
12 21 19 23 8 1 25 10 30 15 5 5 3 24 -4 31 -2 3 -6 5 -7 5 -2 0 -3 1 -3 2 0
2 -2 2 -65 3 -59 1 -81 0 -81 -5 0 -1 -1 -2 -3 -2 -1 0 -6 -3 -9 -6 -4 -3 -10
-7 -14 -9 -8 -3 -8 -3 -15 0 -5 2 -11 6 -15 9 -3 3 -8 6 -9 6 -2 0 -3 1 -3 2
0 3 -20 7 -29 5 -26 -3 -52 -33 -60 -69 -5 -23 -6 -24 -11 -28 -5 -4 -12 -5
-25 -4 -2 0 -6 3 -9 6 -5 5 -6 7 -6 17 0 11 1 14 8 25 7 11 9 14 8 23 0 17 -1
17 -12 24 l-11 6 -65 0 c-53 0 -66 -1 -69 -3 -2 -1 -3 -2 -3 -1 0 1 -1 0 -3
-2 -1 -2 -2 -8 -1 -17 l0 -14 -11 0 -12 0 0 14 c1 8 0 14 -2 17 -2 2 -3 3 -3
2 0 -1 -1 0 -3 1 -3 3 -29 3 -150 3 l-146 0 -19 -9 c-10 -5 -21 -10 -24 -11
-9 -2 -22 2 -27 8 -6 7 -8 24 -4 32 5 11 9 13 32 15 19 2 42 7 60 11 2 1 6 2
9 2 7 2 56 15 71 19 55 17 57 18 57 40 0 13 0 14 -7 22 -4 4 -14 12 -23 17
-22 13 -27 21 -18 31 5 5 6 5 32 -2 11 -3 26 -6 32 -7 15 -2 19 -7 23 -23 7
-31 23 -39 51 -28 14 5 32 5 45 1 11 -4 27 -7 28 -5 1 0 4 1 7 1 4 1 9 3 11 5
2 1 3 2 2 1 -1 -3 4 -3 6 0 1 1 1 1 -1 0 -2 -1 -3 -1 -1 1 3 4 3 11 -1 18 -2
5 -2 6 1 11 5 6 9 6 14 0 3 -5 3 -5 -3 -14 -5 -8 -6 -11 -6 -23 1 -18 -1 -17
57 -35 16 -5 31 -10 33 -10 1 0 15 -4 29 -8 31 -8 38 -9 47 -2 8 5 12 12 12
21 0 6 -2 10 -11 20 -16 17 -19 22 -19 30 0 21 24 21 45 1 2 -2 3 -3 4 -3 1 0
2 -1 4 -2 1 -1 6 -5 11 -8 4 -3 10 -7 11 -10 5 -6 5 -22 0 -28 -4 -6 -4 -24 0
-33 4 -8 14 -14 25 -16 7 -1 68 -11 76 -12 28 -5 30 -5 41 -2 22 7 40 31 40
52 -1 15 -5 23 -22 38 -19 17 -23 23 -23 37 0 15 7 22 22 22 12 0 19 -4 26
-14 10 -14 13 -16 28 -16 l14 0 5 10 c6 13 6 23 2 44 -5 23 -4 32 2 37 3 3 6
5 7 4 1 -1 2 0 2 1 0 1 1 2 3 1 1 0 1 0 1 0 -1 1 -2 8 -2 17 0 21 -2 23 -47
27 -9 1 -18 2 -20 2 -5 1 -19 3 -29 4 -38 5 -122 19 -129 21 -11 5 -20 16 -13
18 0 1 4 6 7 12 8 16 12 20 30 29 16 8 36 26 50 44 3 5 7 9 9 11 2 2 5 6 8 10
3 4 6 8 8 9 1 2 2 4 2 5 0 1 1 2 2 2 0 0 4 4 7 10 4 5 10 13 13 18 30 43 66
109 66 123 0 18 -10 31 -30 38 -24 9 -42 19 -44 25 -1 5 -1 6 7 14 9 9 14 19
42 77 6 13 16 35 21 48 6 13 12 28 14 32 5 12 26 65 35 88 6 17 7 22 6 30 -1
10 -10 23 -18 27 -3 1 -7 3 -9 4 -3 1 -18 5 -24 5 -6 0 -19 -5 -23 -9 -3 -3
-8 -11 -11 -18 -8 -16 -10 -18 -17 -18 -8 0 -13 6 -13 19 1 19 -6 34 -18 40
-8 4 -56 13 -71 13 -6 0 -19 -1 -28 -3 -12 -2 -43 -3 -121 -3 -58 0 -107 -1
-110 -1 -3 -1 -13 -4 -22 -7 -21 -7 -25 -7 -30 -2 -6 6 -5 13 2 23 8 12 11 19
13 29 2 13 0 14 -20 17 -4 1 -9 2 -9 2 -1 1 -2 0 -2 -1 0 0 -4 -3 -8 -6 -5 -2
-13 -7 -18 -11 -16 -11 -24 -15 -34 -16 -20 -2 -32 -9 -45 -26 -5 -7 -11 -13
-14 -14 -26 -11 -34 -27 -27 -55 2 -9 2 -10 -1 -13 -8 -8 -17 -5 -42 12 -18
11 -21 16 -23 39 -1 10 -2 26 -2 34 0 20 1 21 24 23 17 1 39 6 43 9 2 1 8 3
14 3 7 0 16 1 20 2 8 2 25 10 25 13 0 3 17 19 30 28 8 6 16 12 17 13 0 2 3 3
6 3 2 0 3 1 2 2 -1 0 -2 6 -2 11 0 6 -1 13 -3 16 -5 10 -7 10 -100 10 -48 1
-88 0 -90 0z m213 -189 c4 -6 4 -24 -1 -30 -7 -9 -27 -9 -34 0 -5 6 -5 24 0
30 7 9 27 9 35 0z m238 -33 c12 -7 14 -33 3 -43 -8 -9 -32 -9 -40 0 -9 8 -9
32 0 41 7 7 27 8 37 2z m-546 -15 c4 -6 4 -24 -1 -30 -7 -9 -27 -9 -34 0 -5 6
-5 24 0 30 7 9 27 9 35 0z m-132 1 c5 -8 1 -16 -8 -16 -9 0 -13 8 -8 16 2 3 5
5 8 5 3 0 6 -2 8 -5z m-206 -44 c5 -8 1 -16 -8 -16 -9 0 -13 8 -8 16 2 3 5 5
8 5 3 0 6 -2 8 -5z m561 -64 c21 -9 20 -45 -2 -54 -10 -5 -28 -1 -34 6 -9 10
-9 32 0 42 7 8 24 11 36 6z m-143 -11 c9 -8 6 -21 -6 -39 -10 -14 -13 -26 -13
-42 1 -13 1 -14 -5 -20 l-6 -6 -75 1 -75 0 -5 6 c-5 5 -5 6 -5 34 l0 29 6 6 6
6 58 0 c65 0 67 0 83 16 16 14 28 17 37 9z m285 -20 l22 -6 50 1 c27 0 55 1
61 2 11 1 13 1 17 -3 5 -5 5 -11 -1 -17 -4 -5 -5 -7 -5 -21 0 -23 3 -26 29
-26 10 0 20 -1 21 -1 0 0 5 -1 10 -2 12 -2 17 -8 10 -13 -7 -6 -20 -7 -41 -3
-27 5 -132 4 -142 -2 -9 -4 -21 -15 -21 -18 0 -2 -1 -3 -2 -3 -1 0 -3 -2 -4
-5 -3 -8 -8 -14 -15 -16 -10 -4 -39 -8 -52 -7 -2 0 -6 3 -9 6 -5 5 -6 7 -6 18
0 11 1 13 6 18 3 3 7 6 9 6 10 1 15 1 19 -1 7 -1 26 3 32 8 3 2 5 6 5 8 -3 22
-5 24 -24 35 -16 9 -20 14 -20 26 0 8 1 11 6 16 9 9 13 9 45 0z m327 -13 c3
-3 3 -3 0 -6 -4 -5 -11 1 -7 6 4 4 4 4 7 0z m-937 -82 c13 -8 37 -17 45 -17 5
0 11 -8 11 -13 0 -2 -2 -6 -4 -9 -4 -5 -4 -5 -18 -2 -16 3 -32 1 -35 -4 -5 -6
-4 -26 2 -36 4 -7 6 -12 6 -20 0 -19 -8 -27 -27 -27 -19 0 -27 8 -27 28 0 9 1
13 7 21 9 13 11 31 4 45 -14 29 8 51 36 34z m421 -17 c16 -7 16 -43 -1 -50
-15 -6 -34 -2 -39 9 -4 8 -4 24 0 32 5 12 23 15 40 9z m-936 -37 c3 -3 3 -3 0
-6 -4 -5 -11 1 -7 6 4 4 4 4 7 0z m770 -17 c10 -9 3 -26 -10 -26 -8 0 -15 7
-15 15 0 13 16 20 25 11z m570 -22 c2 -2 6 -12 9 -22 9 -30 11 -33 34 -51 16
-12 17 -14 20 -24 4 -15 0 -25 -16 -41 -7 -7 -15 -16 -18 -20 -9 -14 -23 -18
-31 -10 -6 6 -6 9 1 37 5 19 6 26 5 37 -3 35 -11 41 -50 40 l-23 0 -6 6 c-5 5
-6 7 -6 16 0 17 7 24 31 30 4 1 9 2 10 2 20 6 35 5 40 0z m-375 -24 c1 0 5 -3
8 -6 5 -5 6 -7 6 -18 0 -11 -1 -13 -6 -18 -5 -5 -9 -7 -14 -6 -1 0 -10 -2 -20
-5 -19 -5 -29 -9 -31 -14 -1 -1 -4 -3 -7 -5 -3 -1 -8 -5 -11 -7 -14 -13 -33
-17 -47 -11 -17 7 -17 43 -1 50 7 2 30 6 42 6 11 0 30 10 46 24 4 3 10 7 13 9
5 2 8 2 22 1z m129 -49 c20 -11 24 -13 40 -17 20 -5 25 -10 25 -25 0 -13 -5
-20 -17 -23 -27 -8 -35 -11 -47 -18 -19 -11 -27 -14 -42 -15 -16 -1 -32 -5
-32 -7 0 -1 -1 -2 -2 -2 -1 0 -7 -4 -12 -10 -9 -9 -11 -10 -19 -10 -13 0 -18
7 -16 19 3 16 2 42 -1 43 -2 0 10 8 17 9 2 1 13 2 25 3 21 1 30 4 36 11 4 4
12 27 12 34 0 13 17 17 33 8z m-936 -42 c4 -4 5 -7 5 -15 0 -14 -6 -20 -20
-20 -14 0 -20 6 -20 20 0 14 6 20 20 20 8 0 11 -1 15 -5z m590 -5 c6 -6 7 -16
2 -20 -8 -6 -12 -8 -15 -5 -1 1 -2 1 -2 0 0 -1 -2 0 -5 3 -6 6 -7 15 -1 21 6
6 15 6 21 1z m-300 -6 c4 -6 4 -24 -1 -30 -7 -9 -27 -9 -34 0 -5 6 -5 24 0 30
7 9 27 9 35 0z m192 -24 c39 -47 47 -55 57 -57 12 -2 24 1 32 10 12 10 30 13
44 6 13 -7 14 -31 2 -55 -3 -5 -5 -12 -5 -19 0 -11 -1 -12 -7 -17 -4 -4 -11
-7 -15 -8 -14 -4 -82 -18 -112 -23 -17 -3 -32 -5 -35 -6 -18 -3 -27 -10 -41
-30 -11 -17 -17 -22 -30 -22 -18 -1 -22 2 -27 22 -3 13 1 28 10 32 4 2 13 4
22 4 15 1 30 5 35 9 8 7 10 15 9 38 0 27 1 31 12 44 12 12 21 27 23 38 0 2 1
6 2 9 1 3 2 9 3 13 2 8 9 18 13 18 1 0 5 -3 8 -6z m583 -39 c3 -3 4 -7 4 -14
0 -13 -6 -19 -19 -19 -13 0 -19 6 -19 19 0 7 1 11 4 14 7 8 23 8 30 0z m-1109
-104 c3 -5 3 -5 0 -10 -2 -3 -5 -5 -7 -5 -2 0 -5 2 -7 5 -3 5 -3 5 0 10 2 3 5
5 7 5 2 0 5 -2 7 -5z m1046 -1 c11 -10 3 -28 -11 -28 -9 0 -16 6 -16 16 0 14
17 22 27 12z m-283 -10 c5 -5 6 -7 6 -17 0 -16 -7 -23 -23 -23 -10 0 -12 1
-17 6 -5 5 -6 7 -6 17 0 16 7 23 23 23 10 0 12 -1 17 -6z m-395 -89 c3 -3 5
-7 5 -8 0 -2 1 -3 2 -3 1 0 2 -1 1 -2 -1 -2 4 -4 11 -4 3 0 9 -1 14 -3 5 -2
11 -4 15 -4 8 -2 9 -3 16 -15 9 -19 14 -22 34 -22 10 0 19 5 25 12 2 4 19 8
29 8 16 0 21 -5 23 -21 1 -21 -5 -28 -26 -30 -7 -1 -22 -2 -33 -3 -24 -3 -26
-2 -57 8 -36 12 -52 8 -72 -22 -3 -4 -8 -11 -13 -15 -10 -10 -21 -25 -20 -27
1 -1 0 -2 -1 -2 -2 0 -2 -4 -1 -12 1 -7 1 -18 1 -23 0 -6 1 -10 2 -10 1 1 2 0
3 -2 0 -2 2 -3 4 -3 1 0 4 -1 5 -3 1 -1 7 -5 13 -8 5 -3 11 -7 13 -8 4 -3 9
-23 11 -40 1 -5 1 -14 2 -18 3 -22 -10 -37 -30 -36 -17 1 -24 7 -27 24 -5 29
-10 36 -27 43 -8 3 -11 4 -19 2 -5 0 -11 -1 -13 -1 -3 0 -4 0 -4 -1 1 -1 0 -2
-1 -2 -1 0 -3 -3 -5 -6 -2 -3 -5 -6 -7 -6 -1 0 -5 -2 -8 -3 -5 -4 -6 -3 -17 1
-18 7 -31 7 -38 0 -6 -6 -9 -20 -9 -38 0 -12 0 -12 -12 -25 -15 -17 -19 -30
-14 -49 5 -18 -6 -35 -23 -37 -2 0 -9 -1 -14 -2 -9 -1 -11 -1 -15 4 -5 5 -7
12 -4 14 1 1 1 3 0 6 -2 6 0 22 5 27 1 2 7 7 13 11 5 4 10 8 9 9 0 1 -1 8 -1
17 0 10 -1 15 -3 15 -5 0 -38 14 -46 19 -11 8 -13 10 -16 19 -4 11 1 17 19 22
20 7 33 6 46 -2 12 -7 27 -9 37 -5 4 1 7 2 8 2 0 -1 1 3 3 7 1 5 4 11 7 14 6
5 10 5 31 -5 11 -6 15 -7 22 -6 4 1 10 1 15 1 4 0 7 1 7 2 0 1 1 1 3 1 1 0 3
1 3 2 2 7 19 18 29 20 l6 0 -6 1 c-7 0 -7 0 -7 9 0 10 2 12 9 14 9 1 13 8 12
18 -1 6 0 8 5 12 8 7 17 24 15 31 -1 9 -3 17 -5 23 -2 9 5 29 13 39 11 13 14
22 12 47 -1 23 -1 23 4 28 7 7 26 7 32 0z m322 -45 c4 -6 4 -24 -1 -30 -7 -9
-27 -9 -34 0 -5 6 -5 24 0 30 7 9 27 9 35 0z m317 -185 c6 -4 18 -11 27 -15
10 -6 16 -11 18 -15 5 -8 4 -24 0 -33 -6 -11 -9 -24 -10 -41 -2 -18 -5 -23
-15 -23 -10 0 -13 5 -15 26 -1 29 -6 36 -23 36 -16 0 -22 -4 -29 -22 -6 -16
-11 -20 -22 -20 -8 0 -17 7 -17 14 0 6 -5 18 -10 23 -6 6 -18 10 -34 9 -16 0
-22 4 -22 17 0 10 6 16 17 18 11 1 26 6 52 16 41 16 43 17 58 17 13 0 15 -1
25 -7z m-1141 -2 c3 -5 3 -5 0 -10 -2 -3 -5 -5 -7 -5 -2 0 -5 2 -7 5 -3 5 -3
5 0 10 2 3 5 5 7 5 2 0 5 -2 7 -5z m111 -28 l-5 -5 -4 4 -5 5 4 4 5 5 4 -4 5
-5 -4 -4z m543 -39 c4 -6 4 -24 -1 -30 -7 -9 -27 -9 -34 0 -5 6 -5 24 0 30 7
9 27 9 35 0z m603 -46 c10 -6 20 -43 13 -50 -8 -9 -30 0 -42 18 -5 8 -4 23 2
29 5 6 20 7 27 3z m-889 -50 c6 -1 10 -4 16 -11 8 -10 9 -10 23 -11 12 0 15 0
23 5 12 6 22 7 28 1 9 -8 6 -21 -11 -58 -8 -16 -10 -20 -16 -22 -12 -5 -24 -3
-38 5 -12 8 -34 15 -45 15 -13 0 -17 8 -17 34 0 29 4 39 18 42 9 2 10 2 19 0z
m247 -16 c4 -2 9 -5 11 -8 4 -4 15 -8 23 -8 5 0 12 3 26 13 14 9 25 8 44 -7
17 -13 13 -13 124 -14 99 -1 100 -1 104 -5 1 -3 4 -5 6 -6 2 0 2 -1 -1 -1 -2
0 -8 -5 -14 -10 -11 -11 -21 -32 -21 -44 0 -7 7 -28 13 -40 7 -13 6 -27 -1
-37 -7 -9 -14 -21 -15 -27 -8 -37 -10 -40 -30 -40 -11 0 -14 1 -18 5 -12 10
-8 36 10 69 4 7 5 12 5 20 0 16 0 17 -6 24 -8 10 -24 11 -44 2 -20 -9 -32 -9
-60 -3 -13 3 -67 14 -120 26 -53 12 -99 23 -102 24 -11 7 -10 11 16 37 7 7 16
16 19 20 7 8 16 14 21 14 1 0 5 -2 10 -4z m571 -116 c6 -6 7 -17 1 -24 -10
-10 -28 -2 -28 12 0 14 17 22 27 12z m-1006 -31 c3 -3 3 -3 0 -6 -4 -5 -11 1
-7 6 4 4 4 4 7 0z m318 -2 c12 -12 3 -31 -13 -31 -11 0 -18 7 -18 18 0 11 7
18 18 18 6 0 9 -1 13 -5z m173 -19 c7 -7 2 -19 -8 -19 -6 0 -12 6 -12 11 0 10
13 15 20 8z m78 -24 c1 0 5 -3 8 -6 11 -11 7 -37 -6 -41 -2 -1 -4 -3 -5 -5 -1
-2 -3 -4 -6 -4 -4 0 -12 5 -10 7 1 0 -1 1 -3 2 -7 2 -12 11 -12 22 0 12 3 19
11 23 5 3 9 3 23 2z m-2 -88 c0 -2 2 -4 3 -6 7 -6 0 -20 -10 -20 -10 0 -17 14
-10 20 1 2 3 5 4 6 1 5 11 4 13 0z m-260 -20 c1 0 5 -3 8 -6 5 -5 6 -7 6 -18
0 -11 -1 -13 -6 -18 -6 -6 -7 -6 -18 -6 -11 0 -12 0 -18 6 -5 5 -6 7 -6 17 0
14 3 20 12 24 5 2 8 2 22 1z m532 -12 c5 -6 5 -12 0 -18 -7 -8 -22 -2 -22 9 0
11 15 17 22 9z m-915 -58 c7 -3 12 -13 12 -25 0 -13 -2 -15 -18 -32 -8 -8 -16
-18 -19 -24 -5 -11 -11 -15 -16 -10 -2 2 -2 5 0 21 2 15 2 20 -1 31 -4 20 0
34 10 39 12 4 20 4 32 0z m1106 -23 c12 -7 14 -33 3 -43 -10 -11 -32 -9 -44 3
-9 8 -37 20 -46 19 -3 0 -10 8 -10 12 0 4 5 11 10 12 1 0 6 -1 10 -2 14 -4 30
-4 44 0 14 4 26 3 33 -1z m109 -17 c5 -6 7 -27 3 -34 -4 -7 -8 -7 -21 -4 -4 1
-10 2 -15 3 -14 2 -21 14 -14 27 7 14 38 20 47 8z m31 -58 c11 -6 14 -16 7
-24 -7 -8 -17 -5 -23 8 -2 6 -2 7 3 12 5 7 6 7 13 4z"/>
<path d="M309 3794 c-13 -3 -20 -10 -36 -32 -8 -11 -19 -26 -23 -32 -49 -69
-47 -65 -47 -83 0 -12 1 -17 6 -27 12 -24 22 -33 45 -43 9 -4 19 -8 21 -9 20
-9 25 -10 34 -9 10 1 14 2 16 3 6 4 23 8 27 7 4 -1 18 -13 44 -38 5 -4 11 -11
14 -15 9 -12 20 -21 33 -29 8 -4 19 -10 25 -13 9 -5 12 -6 21 -5 18 2 19 3 47
44 18 27 28 48 28 57 0 1 2 5 4 8 2 3 3 6 3 7 -1 0 0 1 0 0 1 0 5 2 8 4 4 3 8
5 9 5 1 0 5 6 9 13 15 22 17 42 5 61 -14 23 -25 30 -82 54 -25 10 -33 14 -50
22 -5 2 -13 5 -18 7 -5 1 -14 5 -21 8 -7 2 -19 6 -28 7 -12 2 -17 4 -21 8 -4
3 -10 7 -14 8 -4 1 -15 4 -25 8 -18 6 -21 7 -34 4z m67 -61 c4 -5 -3 -11 -7
-6 -3 2 -3 3 -1 6 4 4 5 4 8 0z m90 -50 c3 -3 8 -9 10 -13 12 -19 22 -28 41
-37 11 -5 20 -9 21 -9 1 0 3 -2 6 -5 3 -3 4 -5 3 -5 0 0 1 -3 2 -7 4 -10 4
-14 -3 -18 -15 -8 -54 -12 -61 -6 -1 2 -3 3 -4 3 -2 0 -13 16 -13 19 0 3 -12
15 -28 28 -16 13 -19 17 -18 34 2 16 7 21 25 21 11 0 14 -1 19 -5z"/>
<path d="M1918 2937 c-8 -3 -10 -7 -10 -20 0 -16 2 -17 21 -17 l14 0 -1 12 c0
19 -1 21 -8 23 -11 2 -13 3 -16 2z"/>
<path d="M1880 2106 c-14 -4 -22 -15 -22 -29 0 -24 37 -32 54 -11 1 1 2 8 2
16 0 12 0 13 -7 19 -8 7 -15 9 -27 5z"/>
</g>
</svg>
