<?xml version="1.0" standalone="no"?>
<!DOCTYPE svg PUBLIC "-//W3C//DTD SVG 20010904//EN"
 "http://www.w3.org/TR/2001/REC-SVG-20010904/DTD/svg10.dtd">
<svg version="1.0" xmlns="http://www.w3.org/2000/svg"
 width="1100.000000pt" height="2850.000000pt" viewBox="0 0 1100.000000 2850.000000"
 preserveAspectRatio="xMidYMid meet">
<metadata>
Created by potrace 1.15, written by Peter Selinger 2001-2017
</metadata>
<g transform="translate(0.000000,2850.000000) scale(0.500000,-0.500000)"
fill="#000000" stroke="none">
<path d="M1189 3808 c-5 -2 -10 -6 -13 -9 -4 -7 -6 -25 -2 -29 3 -4 -7 -15
-17 -19 -8 -4 -18 -16 -21 -25 -1 -4 -2 -31 -2 -70 l1 -63 -6 -6 -6 -6 -140 1
c-158 1 -147 0 -163 17 -14 14 -44 49 -52 58 -10 13 -27 16 -50 8 -10 -4 -10
-4 -14 1 -5 6 -5 5 2 21 4 9 6 16 6 24 0 11 0 11 -15 29 -9 9 -20 23 -26 29
-11 13 -25 21 -39 21 -8 0 -44 -13 -71 -26 -33 -16 -241 -78 -299 -89 -3 -1
-6 -2 -8 -2 -1 -1 -11 -3 -23 -5 -24 -5 -38 -11 -47 -21 -15 -16 -18 -26 -21
-60 -1 -9 -2 -18 -4 -20 -5 -9 -25 -10 -33 -2 -2 2 -3 9 -4 25 -2 31 -4 36
-17 42 -18 8 -28 7 -40 -6 -5 -5 -6 -8 -7 -18 0 -10 1 -13 12 -39 17 -41 28
-73 50 -145 6 -17 15 -28 28 -33 12 -4 13 -4 78 6 32 5 61 9 63 10 1 0 3 1 3
2 0 0 2 -1 6 -4 l5 -6 1 -68 1 -68 -6 -6 -6 -6 -100 0 c-99 0 -111 0 -111 -3
0 -1 -1 -2 -3 -2 -4 0 -14 -12 -18 -21 -5 -13 -3 -177 2 -201 3 -10 4 -19 3
-24 -2 -14 5 -38 11 -38 2 0 3 -1 3 -2 2 -4 7 -5 90 -6 l82 -1 5 -5 c3 -3 4
-6 3 -7 -1 -1 -4 -10 -8 -19 -7 -18 -7 -15 -3 -57 2 -17 -1 -24 -15 -31 -18
-11 -27 -20 -38 -44 -36 -75 -64 -126 -94 -176 -2 -3 -6 -10 -9 -16 -6 -11
-27 -43 -30 -47 -1 -1 -6 -7 -10 -14 -4 -7 -12 -18 -17 -25 -20 -25 -19 -36 8
-85 8 -15 47 -92 55 -110 10 -23 25 -59 36 -87 6 -17 10 -20 29 -20 l15 0 11
17 c16 24 23 35 29 45 3 5 6 10 7 12 16 25 66 122 66 128 0 3 1 4 1 2 1 -2 3
-5 6 -6 3 -3 4 -8 5 -23 2 -29 6 -36 27 -48 23 -13 23 -23 0 -36 -13 -7 -22
-17 -25 -27 -4 -13 -3 -66 2 -86 6 -21 6 -35 0 -56 -3 -14 -4 -23 -4 -50 0
-36 2 -46 10 -55 6 -5 27 -15 34 -15 11 0 17 -23 8 -33 -3 -3 -6 -5 -8 -5 -7
0 -28 -10 -34 -15 -10 -11 -13 -31 -7 -46 4 -9 14 -21 18 -21 2 0 3 -1 3 -2 0
-2 1 -2 27 -3 25 -2 36 1 44 12 5 7 11 25 11 35 0 12 13 19 28 16 9 -2 14 -8
14 -16 0 -9 6 -28 11 -35 11 -16 47 -17 78 0 6 3 21 19 21 22 0 15 3 38 4 42
1 3 5 7 8 9 12 6 20 14 22 22 3 9 3 23 0 25 -6 6 -6 39 0 39 2 0 2 12 -1 24
-1 5 -9 16 -11 16 -1 0 -3 3 -5 6 -4 8 -1 17 7 20 3 1 6 3 6 4 0 1 2 2 4 2 4
0 11 9 15 20 2 7 3 19 3 58 0 71 -4 80 -37 93 -14 5 -21 12 -21 20 0 8 7 16
14 15 8 -1 27 6 34 11 9 8 10 14 11 110 l0 89 6 5 c3 3 5 4 5 3 0 -5 39 -81
43 -83 13 -8 34 -5 41 6 2 3 9 14 16 23 7 10 14 20 16 22 2 2 10 14 19 25 8
12 15 22 15 24 0 3 1 3 3 -1 2 -3 5 -6 6 -7 1 -1 5 -5 8 -9 7 -11 18 -14 40
-14 17 0 18 0 23 -6 9 -8 9 -26 0 -34 -5 -6 -6 -6 -24 -6 -23 0 -34 -4 -40
-16 -4 -8 -4 -9 -4 -245 0 -246 0 -243 8 -255 8 -11 40 -26 57 -26 10 0 13 1
34 13 15 9 27 8 48 -5 10 -5 22 -11 26 -12 6 -2 93 -2 328 -2 l320 1 6 -6 c5
-5 6 -8 5 -13 -1 -12 13 -36 21 -36 2 0 3 -1 3 -2 0 -3 13 -3 130 -3 117 0
130 0 130 3 0 1 1 2 3 2 4 0 14 12 18 20 4 11 4 284 0 295 -3 8 -11 20 -13 21
-6 2 -15 14 -15 20 0 5 11 20 15 20 6 0 14 33 9 35 -2 0 -4 3 -5 6 -1 2 -5 6
-7 7 -3 1 -7 5 -9 9 -4 8 -4 8 0 16 2 4 6 8 9 9 5 3 14 16 17 27 2 9 2 142 -1
151 -3 11 -6 16 -7 14 -1 -2 -2 -2 -2 -1 0 2 -4 2 -13 2 l-13 -1 0 7 0 7 13
-1 c9 0 13 0 13 2 0 1 1 1 2 -1 3 -4 8 12 9 30 1 14 -4 30 -9 30 -31 1 -29 1
-33 -4 -2 -4 -5 -6 -6 -6 -2 0 -3 -2 -4 -4 -1 -3 -1 -5 -1 -5 0 0 0 -2 -2 -5
l-2 -4 -8 6 c-4 3 -10 9 -14 13 -26 28 -19 26 -113 26 -79 0 -91 0 -91 -3 0
-1 -1 -2 -3 -2 -4 0 -14 -12 -18 -21 -3 -7 -3 -23 -3 -138 0 -72 1 -133 2
-135 1 -1 3 -6 5 -11 2 -4 6 -11 10 -15 13 -14 15 -18 15 -30 0 -12 -2 -15
-14 -29 -14 -16 -20 -18 -63 -19 l-38 -1 -6 6 c-3 4 -6 9 -7 12 0 3 -4 14 -9
24 -12 25 -12 31 1 57 l9 19 1 160 c0 168 0 168 -9 188 -5 12 -7 21 -5 26 1 2
1 7 0 10 -3 8 -1 13 7 15 3 0 46 1 95 1 110 -1 108 -1 108 21 -1 9 0 11 4 14
2 2 4 5 4 6 0 2 -1 2 -11 3 -7 0 -10 2 -16 8 -3 5 -3 5 0 10 5 6 8 6 14 2 2
-2 5 -3 7 -3 2 0 5 -1 5 -2 4 -6 11 -8 25 -8 7 0 14 0 16 1 6 4 19 -2 30 -12
19 -21 36 -23 57 -8 39 26 66 65 86 122 3 11 7 21 7 22 0 1 1 5 2 9 3 11 2 21
-3 43 -6 25 -5 30 9 53 10 14 10 16 10 26 -1 13 -7 21 -19 28 -6 4 -46 17 -70
24 -27 7 -115 47 -117 52 0 1 -1 1 -3 1 -1 0 -7 -1 -13 -2 -20 -2 -25 -12 -27
-50 -2 -42 -5 -69 -9 -88 -2 -10 -4 -12 -11 -16 -8 -5 -10 -5 -34 -4 -26 0
-26 0 -32 6 l-6 6 -1 124 c0 68 0 130 -1 138 0 13 0 14 6 20 l6 6 108 -1 c80
0 110 0 117 2 23 7 50 23 58 35 10 14 10 19 10 50 -1 28 -2 31 -7 44 -8 19 -8
33 0 52 7 18 10 59 4 74 -4 9 -14 21 -18 21 -2 0 -3 1 -3 2 0 2 0 2 -36 4 -30
1 -38 3 -38 6 0 1 -2 3 -4 4 -3 1 -4 2 -2 2 2 0 10 7 18 15 l15 14 1 15 c0 10
-1 16 -3 19 -3 5 -36 32 -57 46 -7 6 -13 10 -14 11 -2 2 -44 29 -61 39 -5 3
-14 8 -19 11 -17 11 -35 20 -62 33 -35 18 -47 18 -67 3 -18 -15 -26 -27 -33
-52 -5 -20 -9 -23 -30 -26 -10 -1 -22 -4 -28 -7 -11 -4 -33 -22 -35 -27 0 -2
-1 -2 -1 1 0 1 -1 3 -2 3 -6 0 -8 14 -8 50 0 28 -1 37 -3 43 -4 9 -14 21 -18
21 -2 0 -3 1 -3 2 0 2 -2 3 -112 3 -101 1 -107 1 -115 -3z m-589 -87 c12 -6
17 -34 9 -45 -5 -7 -13 -9 -31 -7 -16 2 -29 7 -33 14 -3 5 -3 6 0 16 6 21 35
32 55 22z m669 -7 c10 -9 3 -26 -10 -26 -8 0 -15 7 -15 15 0 13 16 20 25 11z
m366 -41 c32 -16 36 -19 36 -33 0 -9 -1 -11 -6 -16 -9 -9 -18 -8 -46 1 -12 4
-26 8 -30 9 -10 2 -15 7 -17 18 -4 16 3 31 16 34 11 3 20 0 47 -13z m-174 -43
c4 -3 20 -11 34 -20 14 -8 27 -16 29 -17 2 0 2 -1 0 -1 -2 0 -4 -1 -4 -2 0 -5
-10 -7 -39 -8 l-30 -1 -6 6 c-6 6 -6 7 -5 23 1 14 2 17 6 20 2 2 4 5 4 6 0 2
1 2 1 0 1 -1 5 -4 10 -6z m-735 -34 c7 -4 10 -7 13 -14 l5 -9 -4 -4 c-11 -11
-44 6 -44 22 0 11 14 13 30 5z m524 -9 c3 -3 4 -7 4 -14 0 -13 -6 -19 -19 -19
-13 0 -19 6 -19 19 0 7 1 11 4 14 7 8 23 8 30 0z m-945 0 c5 -8 1 -16 -8 -16
-9 0 -13 8 -8 16 2 3 5 5 8 5 3 0 6 -2 8 -5z m1434 -32 c4 -4 5 -7 5 -15 0
-14 -6 -20 -20 -20 -14 0 -20 6 -20 20 0 14 6 20 20 20 8 0 11 -1 15 -5z
m-945 -131 c0 -79 0 -93 3 -99 4 -9 14 -21 18 -21 2 0 3 -1 3 -2 0 -2 2 -2 89
-3 92 -1 101 -1 109 9 8 7 15 26 16 37 0 2 3 6 6 9 5 5 7 6 17 6 10 0 12 -1
17 -6 3 -3 6 -7 6 -9 1 -17 16 -43 24 -43 2 0 5 -2 7 -5 1 -2 4 -6 6 -8 2 -2
2 -3 1 -3 -2 0 -2 -18 1 -42 2 -16 -1 -23 -15 -33 -10 -8 -18 -19 -28 -39 -14
-27 -42 -70 -52 -80 -1 -1 -7 -7 -13 -15 -29 -33 -65 -64 -101 -88 -13 -9 -25
-17 -28 -19 -12 -8 -68 -37 -83 -43 -5 -2 -13 -7 -17 -11 l-8 -8 0 -14 c1 -14
1 -15 10 -22 12 -11 39 -37 51 -51 6 -6 11 -10 12 -10 1 2 26 -5 29 -8 1 -1 3
-4 3 -5 0 -2 1 -5 3 -8 1 -3 2 -10 3 -16 1 -9 3 -13 9 -19 4 -5 13 -16 20 -26
19 -25 26 -33 33 -36 9 -5 22 -6 29 -3 9 3 65 31 73 35 23 14 35 21 36 21 0 0
10 6 20 13 16 11 20 15 22 20 2 9 0 25 -5 35 -12 24 7 41 28 22 13 -11 16 -12
30 -12 11 0 13 1 20 8 19 16 46 44 56 56 6 7 13 14 14 16 11 11 15 32 9 48 -7
21 -1 36 15 36 8 0 28 5 31 8 2 3 5 2 5 0 0 -1 2 -5 4 -8 3 -4 5 -12 8 -37 4
-37 8 -54 15 -76 5 -14 20 -45 23 -47 1 -1 3 -4 6 -8 11 -16 37 -38 52 -43 5
-2 6 -3 2 -3 -2 0 -4 -1 -3 -1 0 -1 -1 -3 -2 -5 -2 -1 -3 -2 -3 -1 0 1 -1 1
-3 -1 -1 -1 -32 -2 -94 -2 -51 0 -95 -1 -99 -2 -3 -1 -6 -1 -7 0 0 0 -1 0 -1
-2 0 -1 -1 -2 -3 -2 -4 0 -14 -12 -18 -21 -2 -5 -3 -14 -3 -31 0 -37 4 -44 31
-58 19 -9 21 -12 21 -25 0 -13 -2 -16 -21 -25 -19 -10 -25 -16 -29 -29 -2 -6
-2 -41 -2 -124 l1 -116 5 -9 c3 -5 10 -12 14 -16 24 -16 24 -26 2 -41 -5 -3
-11 -10 -14 -14 -3 -4 -7 -9 -9 -11 -2 -1 -5 -4 -7 -6 -3 -3 -9 -3 -44 -3
l-41 0 -6 6 -6 6 1 36 c0 47 -3 58 -20 66 -4 2 -9 4 -10 5 -2 1 -6 2 -10 3
-16 3 -20 7 -20 22 -1 10 0 12 5 17 4 3 9 6 14 7 4 0 9 2 11 3 1 1 6 3 11 5 9
5 14 12 14 21 0 12 -7 19 -26 28 -19 9 -21 12 -21 24 0 12 2 15 21 24 17 8 24
15 29 28 3 11 3 66 -1 75 -4 9 -14 21 -18 21 -2 0 -3 1 -3 2 0 2 -1 2 -119 4
-63 0 -115 2 -117 3 -10 6 -10 7 -1 19 12 16 15 22 15 34 0 13 -3 21 -14 32
-57 62 -64 69 -71 73 -8 4 -20 6 -37 8 -21 2 -25 6 -27 29 -2 33 -3 34 -45 77
-21 20 -38 37 -36 37 1 0 2 2 2 4 0 2 1 4 3 4 1 0 40 1 86 2 88 2 89 2 89 4 0
1 1 2 3 2 4 0 14 12 18 21 2 6 3 15 3 42 0 51 -3 59 -32 75 -15 8 -18 13 -18
27 0 14 3 19 18 27 17 10 25 17 29 30 4 12 4 33 0 43 -4 9 -14 21 -18 21 -2 0
-3 1 -3 2 0 2 -1 2 -39 3 -38 1 -45 1 -53 -6 -6 -5 -15 -27 -14 -35 0 -5 -6
-11 -12 -11 -6 0 -12 6 -12 11 1 8 -8 30 -14 35 -7 5 -16 8 -26 7 -5 -1 -8 0
-13 5 l-6 6 1 42 c0 39 0 43 -4 52 -6 15 -21 28 -43 37 -33 13 -35 15 -35 31
0 17 17 25 36 15 9 -4 27 -4 35 1 5 3 7 6 9 14 3 12 11 24 17 25 13 2 107 30
138 42 l16 5 6 -5 5 -6 0 -92z m-624 89 c4 -5 4 -5 1 -10 -2 -3 -5 -5 -7 -5
-2 0 -5 2 -7 5 -3 5 -3 5 1 10 3 3 5 5 6 5 1 0 3 -2 6 -5z m829 -16 c12 -7 14
-33 3 -43 -8 -9 -32 -9 -40 0 -9 8 -9 32 0 41 7 7 27 8 37 2z m278 -15 c7 -6
7 -19 1 -25 -6 -7 -19 -7 -25 -1 -7 6 -7 19 -1 25 6 7 19 7 25 1z m495 -16
c-1 -2 -8 -11 -15 -18 -7 -7 -16 -17 -21 -21 -7 -9 -8 -9 -21 -9 -11 0 -14 1
-18 5 -6 4 -6 6 -6 20 0 19 4 24 22 26 7 1 17 2 23 4 25 6 29 7 33 2 4 -3 4
-4 3 -9z m-887 -74 c11 -10 3 -28 -11 -28 -9 0 -16 6 -16 16 0 14 17 22 27 12z
m400 -64 c9 -4 11 -12 13 -42 3 -46 3 -47 -4 -54 -5 -5 -7 -6 -17 -6 -18 0
-23 6 -32 46 -7 32 -4 51 8 56 12 4 20 4 32 0z m259 -60 c5 -6 5 -12 0 -18 -7
-8 -22 -2 -22 9 0 11 15 17 22 9z m-80 -60 c5 -5 5 -15 0 -20 -9 -9 -24 -2
-24 10 0 8 6 14 14 14 3 0 8 -2 10 -4z m-931 -37 c4 -4 5 -7 5 -15 0 -14 -6
-20 -20 -20 -14 0 -20 6 -20 20 0 14 6 20 20 20 8 0 11 -1 15 -5z m-243 -17
c11 -6 25 -17 28 -21 6 -10 5 -26 -2 -33 -7 -7 -22 -8 -34 -2 -8 5 -26 21 -31
29 -8 13 -2 32 11 33 5 1 22 -3 28 -6z m1071 -1 c3 -5 3 -5 0 -9 -2 -2 -5 -4
-7 -4 -2 0 -5 2 -7 4 -3 4 -3 4 0 9 2 3 5 5 7 5 2 0 5 -2 7 -5z m26 -66 c16
-10 30 -16 43 -19 13 -3 20 -17 16 -34 -5 -22 -32 -26 -52 -7 -15 14 -19 17
-20 16 -5 -3 -24 8 -29 18 -3 5 -4 22 -1 27 3 6 13 10 21 9 4 0 14 -5 22 -10z
m445 -48 c21 -9 20 -45 -2 -54 -10 -5 -28 -1 -34 6 -9 10 -9 32 0 42 7 8 24
11 36 6z m-1289 -153 c11 -10 3 -28 -11 -28 -9 0 -16 6 -16 16 0 14 17 22 27
12z m-144 -11 c12 -7 14 -33 3 -43 -8 -9 -32 -9 -40 0 -9 8 -9 32 0 41 7 7 27
8 37 2z m575 -5 c9 -9 2 -24 -11 -24 -10 0 -16 6 -14 14 3 13 16 19 25 10z
m-63 -35 c7 -4 7 -4 6 -12 -2 -11 -8 -17 -20 -20 -1 0 -3 -1 -4 -1 -1 0 -5 0
-8 1 -8 2 -9 8 -5 18 9 17 17 21 31 14z m672 -22 c5 -8 1 -16 -8 -16 -9 0 -13
8 -8 16 2 3 5 5 8 5 3 0 6 -2 8 -5z m-257 -97 c5 -5 5 -11 0 -16 -10 -10 -27
5 -16 16 4 4 12 4 16 0z m-881 -114 c11 -10 3 -28 -11 -28 -9 0 -16 6 -16 16
0 14 17 22 27 12z m255 -19 l-5 -5 -4 4 -5 5 4 4 5 5 4 -4 5 -5 -4 -4z m1173
-13 c-1 -2 -1 -2 1 -2 5 2 14 -10 14 -20 0 -8 -4 -12 -11 -12 -10 0 -17 14
-10 20 2 1 3 6 3 9 0 4 1 7 2 7 1 0 2 -1 1 -2z m-430 -43 c4 -3 4 -9 0 -23 -4
-14 -4 -26 0 -35 1 -4 3 -12 4 -18 2 -14 -3 -21 -14 -21 -6 0 -21 8 -21 12 0
1 -2 3 -4 5 -2 3 -7 10 -11 16 -13 20 -10 33 8 47 5 3 10 8 12 9 12 10 21 13
26 8z m-464 -27 c4 -6 4 -23 0 -29 -3 -5 -10 -7 -22 -10 -6 -1 -8 0 -12 4 -6
6 -7 28 -1 35 7 9 27 9 35 0z m-54 -67 c3 -5 3 -6 -1 -10 l-5 -5 -4 4 -5 5 4
5 c5 7 7 7 11 1z m-411 -23 c1 0 5 -3 8 -6 5 -5 6 -7 6 -18 0 -11 -1 -13 -6
-18 -6 -6 -7 -6 -18 -6 -11 0 -12 0 -18 6 -5 5 -6 7 -6 17 0 14 3 20 12 24 5
2 8 2 22 1z m760 -18 c5 -6 5 -12 0 -18 -7 -8 -22 -2 -22 9 0 11 15 17 22 9z
m-842 -39 c3 -3 4 -7 4 -14 0 -13 -6 -19 -19 -19 -13 0 -19 6 -19 19 0 7 1 11
4 14 7 8 23 8 30 0z m575 -17 c1 -1 1 -7 1 -12 1 -14 -5 -20 -19 -20 -13 0
-19 6 -19 19 0 11 5 18 14 19 6 1 21 -3 23 -6z m768 -176 c5 -5 6 -7 6 -16 0
-15 -8 -23 -23 -23 -9 0 -11 1 -16 7 -9 8 -9 23 -1 32 9 9 24 9 34 0z m-134
-26 c10 -9 3 -26 -10 -26 -8 0 -15 7 -15 15 0 13 16 20 25 11z m184 -59 c4 -4
5 -7 5 -15 0 -14 -6 -20 -19 -20 -16 0 -25 8 -22 21 0 2 1 5 1 7 0 6 10 12 20
12 8 0 11 -1 15 -5z m-790 -19 c4 -6 4 -24 -1 -30 -7 -9 -27 -9 -34 0 -5 6 -5
24 0 30 7 9 27 9 35 0z m713 -19 c7 -4 9 -10 6 -20 -6 -20 -36 -17 -36 5 0 16
16 23 30 15z"/>
</g>
</svg>
