<?xml version="1.0" standalone="no"?>
<!DOCTYPE svg PUBLIC "-//W3C//DTD SVG 20010904//EN"
 "http://www.w3.org/TR/2001/REC-SVG-20010904/DTD/svg10.dtd">
<svg version="1.0" xmlns="http://www.w3.org/2000/svg"
 width="1100.000000pt" height="2850.000000pt" viewBox="0 0 1100.000000 2850.000000"
 preserveAspectRatio="xMidYMid meet">
<metadata>
Created by potrace 1.15, written by Peter Selinger 2001-2017
</metadata>
<g transform="translate(0.000000,2850.000000) scale(0.500000,-0.500000)"
fill="#000000" stroke="none">
<path d="M461 3811 c-4 -1 -10 -5 -12 -7 -7 -6 -16 -27 -18 -38 -1 -5 -2 -13
-2 -17 -1 -4 -1 -7 0 -7 1 1 3 0 4 -2 3 -3 3 -3 3 0 0 7 6 6 16 -4 7 -7 8 -10
8 -16 0 -12 -16 -19 -23 -10 -2 2 -4 3 -5 3 -1 -1 -2 1 -2 3 0 6 -2 10 -5 10
-2 0 -3 1 -2 2 1 2 -4 6 -6 5 0 -1 -1 -1 -1 1 0 1 -1 2 -3 1 -2 0 -3 0 -3 1 0
1 -1 2 -2 1 -1 -1 -2 0 -2 1 0 1 -1 2 -2 1 -2 -1 -2 -1 -1 0 0 1 -3 6 -7 11
-4 5 -8 8 -8 8 -3 -13 -3 -34 0 -36 1 -2 1 -3 -1 -5 -2 -3 -4 -3 -9 0 -6 3 -7
4 -3 6 2 2 4 3 5 3 3 0 2 5 -2 8 -5 4 -35 6 -37 2 -1 -1 -2 -2 -4 -1 -2 1 -14
-7 -20 -14 -10 -12 -10 -8 -11 -121 l0 -105 5 -20 c6 -26 6 -27 0 -55 -6 -24
-12 -36 -20 -38 -10 -1 -18 -7 -22 -15 -4 -9 -5 -33 -1 -37 4 -5 3 -19 -3 -24
-6 -6 -19 -6 -25 1 -4 5 -6 18 -2 22 6 6 5 40 -2 46 -8 9 -28 23 -31 23 -1 0
-5 1 -8 3 -10 4 -53 8 -64 5 -11 -3 -19 -10 -25 -20 -4 -10 -4 -8 -7 -79 -1
-14 0 -35 1 -46 1 -17 1 -21 -4 -41 -3 -11 -7 -34 -9 -49 -2 -15 -4 -31 -4
-34 -3 -20 -4 -39 -2 -47 2 -5 3 -9 2 -10 0 -1 5 -2 13 -2 12 0 14 0 20 6 9 8
24 9 31 1 7 -7 7 -23 0 -30 -5 -5 -20 -7 -27 -3 -4 2 -11 17 -10 22 0 3 0 3
-2 0 -1 -2 -5 -3 -17 -2 l-15 1 -3 -6 c-4 -7 -11 -43 -11 -54 0 -5 1 -12 3
-16 3 -8 4 -8 13 -9 7 0 12 1 18 4 8 4 14 5 27 4 2 0 6 -3 9 -6 5 -5 6 -7 6
-18 0 -11 -1 -12 -9 -23 -5 -7 -12 -16 -15 -21 -15 -23 -36 -24 -36 -2 -1 18
-1 20 -3 22 -2 1 -8 2 -16 2 -10 -1 -13 0 -12 2 0 1 0 2 -1 2 -1 0 -2 -4 -2
-9 -1 -5 -3 -11 -6 -13 -2 -3 -4 -6 -4 -7 0 -1 -3 -9 -6 -17 -14 -33 -5 -52
29 -66 9 -4 23 -10 31 -13 24 -12 40 -17 61 -20 2 0 3 -1 4 -1 2 -3 28 4 40 9
7 3 14 6 16 5 2 0 8 -1 14 -1 21 -3 36 4 38 17 4 26 9 45 19 68 7 16 9 23 12
42 1 7 2 9 2 5 0 -6 4 -10 4 -5 0 5 5 -2 5 -7 1 -15 7 -27 22 -42 25 -26 25
-40 0 -65 -22 -24 -21 -14 -21 -151 l0 -116 5 -6 c2 -2 4 -5 4 -6 -1 0 5 -6
12 -13 7 -7 13 -13 13 -13 0 -1 2 -4 5 -8 7 -10 7 -12 1 -15 -3 -1 -6 -3 -6
-4 0 -1 -4 -4 -8 -7 -10 -6 -17 -13 -21 -22 -4 -5 -4 -15 -5 -96 0 -87 0 -90
4 -98 6 -12 19 -20 39 -22 15 -2 21 -14 15 -32 -3 -10 -2 -27 1 -40 6 -23 4
-27 -23 -36 -18 -5 -28 -13 -31 -23 -1 -3 -2 -6 -3 -8 0 -2 -1 -27 -1 -57 -1
-50 -1 -55 3 -70 9 -33 9 -36 3 -55 -7 -20 0 -35 21 -45 10 -4 12 -5 54 -5 49
0 56 1 67 11 6 5 12 21 16 36 1 5 11 9 19 9 9 0 18 -6 18 -12 0 -2 2 -9 4 -15
8 -22 26 -32 47 -27 23 5 48 28 55 52 4 12 5 47 2 49 -1 1 -2 3 -2 5 0 5 -17
22 -21 22 -4 0 -17 13 -17 18 0 5 13 18 17 18 4 0 21 17 21 22 0 2 1 4 2 5 6
3 0 32 -9 41 -17 20 -37 16 -53 -13 -5 -8 -11 -16 -13 -17 -6 -4 -20 -2 -32 3
-7 3 -16 7 -21 8 -34 10 -37 12 -43 27 -15 40 -19 78 -9 89 9 10 22 6 36 -11
9 -11 17 -14 32 -13 10 1 38 13 53 22 4 3 17 11 28 16 31 16 33 20 33 71 0 49
-3 55 -26 54 -12 -1 -12 -1 -13 5 0 5 0 4 -1 -2 0 -16 -21 -25 -40 -18 -20 9
-20 45 0 54 19 7 40 -2 40 -18 1 -7 1 -7 2 -2 1 6 1 6 14 6 17 0 21 3 21 17 0
11 -2 20 -3 20 -1 0 -3 3 -5 6 -2 4 -9 9 -21 15 -19 10 -23 14 -23 28 1 9 8
21 14 21 1 0 8 3 14 6 13 6 21 14 25 26 3 9 3 177 0 185 -3 8 -5 9 -21 9 -10
0 -15 1 -16 3 0 1 -1 0 -1 -2 -1 -17 -33 -25 -46 -11 -9 8 -9 32 0 40 8 9 31
9 41 0 3 -3 7 -4 16 -4 14 0 18 2 24 14 4 9 4 10 5 149 0 137 0 141 -4 148 -2
5 -5 9 -7 11 -6 4 -24 10 -35 10 -12 0 -18 6 -18 19 0 13 6 19 18 19 10 0 30
6 33 9 2 2 5 4 8 6 2 2 6 7 8 11 2 3 5 6 5 6 1 0 2 2 2 4 0 4 0 4 3 1 2 -2 4
-3 5 -3 3 -1 4 -1 13 -4 4 -1 11 -2 15 -2 11 0 17 -3 21 -10 5 -9 1 -18 -11
-24 -9 -4 -24 -19 -24 -23 -1 -19 -1 -20 7 -28 4 -5 11 -11 15 -14 7 -5 13
-14 15 -22 0 -2 3 -9 6 -15 4 -10 7 -12 13 -15 11 -4 22 -4 29 1 4 2 8 4 11 5
3 1 11 4 18 8 14 6 20 7 23 1 1 -2 2 -17 1 -35 0 -22 0 -34 2 -38 5 -12 7 -16
11 -22 12 -18 13 -22 7 -47 -1 -5 -2 -12 -3 -16 -1 -9 -6 -21 -9 -25 -7 -9
-11 -59 -5 -74 4 -9 14 -21 18 -21 2 0 3 -1 3 -2 0 -3 12 -3 92 -3 l81 0 19 9
19 10 31 1 c34 1 33 1 59 -13 9 -6 13 -7 23 -7 5 0 8 -2 13 -6 l6 -6 -1 -112
c0 -121 0 -120 10 -134 4 -4 7 -5 16 -6 9 -1 19 -7 17 -10 -1 0 0 -1 1 -1 2 0
3 -2 4 -5 0 -5 -7 -12 -22 -20 -14 -8 -21 -15 -24 -26 -2 -9 -2 -102 1 -125 1
-9 1 -10 -3 -14 -5 -4 -5 -4 -15 0 -5 2 -11 5 -13 7 -3 2 -11 6 -18 9 -2 0
-34 1 -73 1 -68 1 -87 0 -87 -5 0 -1 -1 -2 -3 -2 -2 0 -11 -8 -11 -11 0 -1 -1
-2 -2 -4 -10 -12 -15 -17 -18 -17 -3 0 -11 7 -16 14 -6 10 -15 17 -25 19 -1 0
-4 1 -7 2 -6 2 -34 -5 -42 -11 -3 -1 -9 -7 -14 -12 -5 -4 -12 -10 -14 -11 -10
-7 -18 -16 -23 -25 -10 -19 -18 -24 -38 -26 -14 0 -15 0 -21 6 -5 4 -8 8 -9
16 -3 13 -9 26 -12 26 0 0 -1 1 0 2 1 2 -2 3 -14 4 -10 0 -23 -6 -23 -12 -1
-10 1 -20 4 -27 3 -4 6 -10 7 -13 5 -9 2 -21 -8 -38 -6 -10 -9 -23 -9 -45 0
-34 6 -45 25 -46 7 -1 13 -2 13 -4 1 -1 2 0 3 3 1 3 3 4 6 4 5 0 20 -5 24 -8
1 -1 5 -4 8 -7 3 -3 7 -5 7 -5 3 0 11 -15 10 -21 0 -8 -7 -15 -16 -15 -13 0
-40 23 -40 34 0 2 0 2 -2 0 -1 -1 -5 -2 -13 -2 -10 1 -12 0 -16 -4 -9 -10 -12
-31 -6 -45 4 -9 14 -21 18 -21 2 0 3 -1 3 -2 0 -2 1 -3 120 -3 l115 -1 13 6
c28 12 39 14 51 9 4 -2 15 -6 23 -9 l15 -6 50 0 c64 0 68 1 67 26 -1 7 0 12 1
13 1 0 0 1 -2 1 -5 0 -17 12 -18 18 -6 33 -8 43 -11 54 -2 7 -4 14 -4 15 1 3
-2 16 -6 24 -5 8 -13 15 -26 21 -11 5 -15 9 -18 19 -3 11 0 25 7 30 9 9 17 10
44 5 25 -4 62 -3 79 2 19 6 27 6 35 -2 12 -12 5 -36 -13 -39 -4 -1 -7 -2 -8
-2 -1 0 -4 -2 -7 -4 -11 -7 -14 -14 -14 -35 -1 -19 -5 -34 -9 -34 -4 0 -8 -13
-7 -24 0 -9 1 -13 8 -22 7 -11 10 -26 5 -26 -1 0 -1 -2 0 -4 1 -3 3 -9 4 -15
3 -10 11 -18 21 -20 3 -1 46 -1 94 -1 l88 1 19 10 c11 5 22 9 25 9 3 0 14 -4
25 -9 l19 -10 34 -1 c38 0 44 1 68 13 21 10 29 10 49 0 20 -10 31 -13 46 -13
21 0 37 8 49 24 8 10 15 14 26 14 11 0 18 -4 26 -14 7 -10 21 -19 31 -22 5 -1
30 -2 70 -1 64 1 66 1 66 3 0 1 1 2 3 2 4 0 14 12 18 21 4 10 4 15 -1 26 -5
11 -11 17 -27 26 -17 10 -20 13 -19 24 0 12 17 45 29 55 2 1 3 3 3 4 0 2 3 6
6 10 10 13 12 23 12 65 0 49 0 50 -26 53 -12 1 -14 1 -15 -2 -1 -5 -14 -11
-24 -11 -11 -1 -21 4 -34 18 -18 18 -26 20 -70 18 -20 -1 -45 -1 -55 -1 -10 0
-72 0 -136 1 l-117 1 -13 6 c-24 12 -40 8 -46 -12 -4 -14 -4 -15 -4 -19 0 -2
-3 -6 -6 -9 -5 -5 -7 -6 -17 -6 -13 0 -18 4 -27 22 -15 28 -20 31 -69 33 -50
2 -57 6 -58 29 0 14 4 21 18 30 6 5 15 12 19 16 4 4 10 8 14 10 6 4 7 4 13 0
4 -2 9 -6 12 -10 2 -4 8 -12 13 -18 l8 -10 13 0 c15 0 18 1 30 11 8 8 14 8 28
5 13 -4 25 -10 35 -20 l9 -9 14 1 c23 2 25 7 24 66 0 50 1 44 -17 76 -8 14 -8
22 0 36 18 32 17 25 18 80 0 42 0 50 -3 57 -2 5 -4 9 -4 8 -1 0 -3 0 -4 2 -2
2 -7 3 -15 2 -9 0 -12 1 -13 3 0 2 -1 1 -1 -1 0 -6 -8 -9 -20 -9 -15 0 -22 7
-22 23 0 12 4 18 15 25 10 6 12 13 11 26 -1 8 -2 13 -5 16 -9 8 -10 19 -4 46
3 14 7 28 9 32 7 14 18 8 30 -17 7 -14 10 -19 17 -23 8 -6 32 -16 43 -19 3 -1
11 -6 18 -13 8 -8 16 -13 23 -16 14 -5 12 -5 33 1 21 6 31 6 52 0 l17 -5 82 1
c88 1 87 1 87 3 0 1 1 2 3 2 4 0 14 12 18 21 2 6 3 15 3 40 0 34 -1 41 -11 59
-3 6 -7 14 -9 17 -3 7 -3 25 0 32 2 3 6 11 10 18 9 17 9 29 1 37 -3 3 -8 6
-11 7 -3 0 -8 2 -12 3 -4 1 -8 1 -9 1 -2 -3 -17 -1 -22 2 -4 4 -5 6 -3 19 1 8
-2 26 -4 26 -1 0 -2 1 -1 2 1 2 -7 10 -14 13 -11 5 -97 4 -110 0 -12 -4 -13
-5 -14 -22 -1 -10 -2 -13 -4 -12 -2 0 -3 0 -4 -1 -1 -1 1 -2 4 -2 3 0 10 -2
15 -5 5 -2 11 -5 14 -6 3 0 11 -6 17 -12 6 -6 13 -11 16 -12 3 -1 8 -2 11 -2
3 -1 13 -1 23 -1 24 0 29 -5 26 -25 -3 -21 -23 -28 -43 -15 -8 5 -11 6 -18 5
-20 -2 -25 -6 -27 -23 -2 -15 -7 -20 -20 -20 -19 0 -23 8 -23 44 0 32 -5 71
-8 69 -1 -1 -6 1 -12 4 -5 2 -12 5 -16 7 -4 1 -12 7 -18 12 -18 16 -25 19 -55
20 -28 0 -32 1 -64 16 -7 3 -14 6 -15 6 -7 0 -13 9 -11 18 1 8 5 14 9 14 3 0
23 11 27 15 6 6 7 27 2 33 -8 8 -18 11 -39 11 -18 1 -21 2 -33 8 -15 8 -29 10
-44 6 -20 -5 -30 -1 -43 19 -10 16 -14 18 -28 18 -11 0 -15 -2 -26 -10 -9 -7
-22 -12 -34 -12 -10 0 -28 5 -28 8 0 1 -1 2 -2 1 -2 -1 -6 -2 -9 -2 -12 0 -20
-10 -23 -30 -1 -9 -1 -33 0 -37 2 -5 11 -13 27 -24 13 -9 13 -9 12 -22 -2 -21
-7 -28 -23 -32 -17 -4 -143 -8 -189 -6 -19 1 -20 1 -26 -4 -6 -4 -8 -7 -11
-16 -1 -3 -1 -12 0 -32 1 -14 -2 -18 -14 -25 -5 -3 -9 -6 -10 -7 -1 -1 -4 -3
-8 -6 -4 -3 -11 -9 -17 -13 -11 -10 -19 -12 -25 -5 -5 6 -5 13 1 23 9 15 17
31 17 34 0 15 -21 39 -39 44 -13 4 -17 7 -19 15 -1 4 -1 6 1 6 6 0 20 10 26
18 1 3 4 10 6 16 4 11 3 14 -5 45 -2 8 -5 16 -5 19 -2 10 -32 96 -34 99 -3 3
-10 20 -13 32 -2 6 -7 20 -13 33 -5 13 -13 32 -18 43 -10 24 -10 30 3 32 4 1
9 2 12 2 3 1 12 8 21 18 8 9 17 17 18 17 1 0 4 2 6 4 3 2 5 3 6 3 0 -1 1 -1 1
1 0 1 1 2 3 1 2 0 3 0 3 1 0 1 1 2 2 1 1 -1 2 -2 1 -3 -1 -1 0 -2 1 -3 1 -1 2
-3 2 -5 0 -2 5 -8 10 -13 26 -23 53 -29 117 -29 42 0 43 0 63 6 26 8 28 8 55
0 14 -4 24 -6 30 -6 7 1 9 0 14 -5 l6 -6 -1 -61 c0 -68 0 -72 7 -79 4 -4 7 -5
18 -5 10 0 13 -1 14 -3 0 -3 1 -2 1 1 0 12 22 30 36 30 2 0 10 -3 15 -6 15 -8
31 -10 43 -4 29 14 44 25 56 41 8 13 17 16 33 15 2 0 7 -2 10 -5 12 -11 41 -8
49 5 2 4 8 9 12 12 22 14 23 15 29 28 4 8 5 13 5 21 -1 9 0 11 5 16 l6 6 30 0
c37 0 40 1 41 22 0 8 1 15 3 15 1 1 0 2 -2 2 -3 0 -6 2 -8 8 -9 18 -16 27 -27
32 -13 7 -17 8 -24 9 -10 2 -15 8 -21 26 -6 19 -7 20 -13 35 -4 9 -5 24 -2 30
1 2 8 8 16 13 8 6 18 13 21 16 13 13 25 17 33 9 8 -8 4 -19 -9 -33 -7 -6 -7
-8 -7 -20 0 -11 1 -14 7 -23 3 -5 9 -15 14 -22 6 -11 18 -22 25 -23 2 0 5 -1
7 -2 2 0 6 -1 9 -2 14 -2 20 -8 24 -20 3 -14 -3 -33 -11 -33 -3 0 -3 -1 -2 -2
2 0 3 -7 3 -15 1 -23 -2 -22 86 -23 49 0 77 0 86 2 18 3 38 3 58 0 9 -2 19 -2
25 -1 6 1 11 2 12 1 0 0 1 1 1 2 0 1 1 2 3 2 4 0 14 12 18 21 3 7 3 21 3 123
l-1 115 -6 12 c-7 15 -14 22 -28 28 -12 6 -13 6 -51 6 -37 1 -41 1 -48 -3 -9
-5 -9 -5 -8 -22 l0 -12 -12 0 c-7 0 -12 1 -10 1 4 2 3 26 -2 30 -4 4 -26 6
-26 2 0 -1 -1 -1 -3 0 -4 1 -4 -29 -1 -31 2 -1 -2 -2 -9 -2 l-13 0 0 11 c0 13
-1 17 -5 21 -4 4 -2 4 -41 5 -47 2 -62 -3 -75 -22 -8 -14 -16 -20 -24 -22 -14
-2 -24 2 -31 12 -20 28 -31 33 -69 33 -26 0 -39 -3 -62 -12 -18 -7 -26 -7 -53
0 -32 8 -61 12 -88 12 -35 0 -41 -4 -42 -25 0 -6 -1 -12 -1 -13 -1 -1 0 -2 2
-2 2 0 5 -4 7 -9 4 -9 4 -10 1 -18 -2 -4 -3 -11 -3 -15 1 -7 -2 -15 -8 -20 -3
-4 -23 -4 -26 0 -2 1 -5 2 -8 2 -3 0 -7 2 -11 6 -5 5 -5 7 -5 16 2 37 -2 46
-21 56 -18 10 -34 9 -52 -3 -19 -12 -46 -11 -64 4 -28 22 -24 21 -122 21 -56
0 -84 -1 -87 -2 -2 -2 -3 -5 -2 -18 0 -12 0 -17 -2 -18 -2 -1 -2 -2 2 -2 2 0
6 -1 8 -2 1 -1 7 -2 12 -3 13 -1 28 -7 31 -12 5 -7 2 -30 -5 -35 -3 -2 -10
-16 -15 -29 -4 -13 -4 -15 -2 -28 3 -17 6 -27 11 -32 5 -6 12 -19 11 -21 -1
-2 -19 -8 -23 -8 -4 0 -25 -14 -31 -21 -4 -3 -9 -11 -12 -16 -7 -13 -13 -19
-18 -19 -3 0 -5 -1 -5 -2 0 -2 -1 0 -3 3 -10 20 -36 34 -62 34 -16 0 -49 -9
-50 -14 -1 -2 -3 -1 -7 4 l-6 8 0 87 c0 99 0 101 -15 119 -14 17 -15 19 -15
31 0 11 6 24 14 29 1 0 2 7 2 15 l0 15 -12 11 c-8 7 -13 14 -15 20 -7 20 -18
33 -33 38 -10 3 -73 3 -83 -1z m1294 -175 c3 -3 3 -6 2 -20 -1 -9 -2 -21 -2
-25 0 -5 1 -11 4 -16 4 -8 24 -29 27 -29 3 0 12 -13 13 -20 2 -16 10 -36 17
-43 8 -9 11 -15 11 -27 0 -19 -8 -27 -27 -27 -20 0 -25 6 -28 33 -2 19 -10 39
-17 48 -2 2 -7 7 -11 11 -3 5 -11 12 -17 16 -13 9 -15 12 -18 28 -5 21 -12 30
-28 38 -6 3 -12 7 -14 9 -4 6 -4 18 0 24 3 4 4 4 44 4 37 0 41 0 44 -4z
m-1318 -23 c12 -12 3 -31 -13 -31 -11 0 -18 7 -18 18 0 11 7 18 18 18 6 0 9
-1 13 -5z m1396 -6 c3 -3 3 -3 0 -6 -4 -5 -11 1 -7 6 4 4 4 4 7 0z m-621 -43
c10 -4 11 -5 17 -25 5 -14 15 -26 23 -28 3 -1 6 -2 7 -3 1 -1 3 -2 6 -2 13 0
19 -23 8 -33 -5 -6 -21 -7 -26 -3 -3 2 -25 10 -34 11 -5 1 -10 2 -12 2 -2 0
-6 1 -9 1 -2 0 -6 2 -9 5 -6 6 -7 20 -2 37 2 6 4 17 4 23 0 13 3 19 8 19 2 0
3 1 3 2 0 1 1 1 4 0 1 -1 7 -4 12 -6z m-242 -37 l-5 -5 -4 4 -5 5 4 4 5 5 4
-4 5 -5 -4 -4z m85 -9 c2 -2 1 -7 -1 -23 -4 -19 -4 -22 -1 -28 3 -7 3 -8 -1
-12 -4 -6 -7 -6 -14 0 -5 5 -5 5 -2 8 2 1 4 5 5 8 2 12 6 21 7 21 2 0 2 11 0
18 -1 3 0 6 1 7 3 3 3 3 6 1z m291 -16 c5 -6 5 -12 0 -18 -7 -8 -22 -2 -22 9
0 11 15 17 22 9z m-845 -7 c12 -12 3 -31 -13 -31 -11 0 -18 7 -18 18 0 11 7
18 18 18 6 0 9 -1 13 -5z m930 -14 c3 -3 3 -3 0 -6 -4 -5 -11 1 -7 6 4 4 4 4
7 0z m-554 -14 c1 -2 3 -5 3 -7 0 -6 -8 -17 -14 -20 -6 -3 -6 -3 -7 4 -1 3 -4
8 -8 11 -3 3 -5 5 -4 5 1 0 0 1 -2 3 -3 2 -3 2 0 4 2 0 3 2 2 3 -1 2 -1 2 0 1
1 0 5 0 8 1 8 2 17 0 22 -5z m113 -12 c12 -8 14 -13 9 -28 -5 -13 -11 -17 -25
-17 -11 0 -13 1 -18 6 -5 5 -6 7 -6 17 0 14 3 20 12 24 8 3 21 2 28 -2z m223
-28 c9 -9 8 -42 -1 -52 -5 -6 -8 -6 -15 -3 -2 2 -6 3 -8 3 -9 2 -13 16 -11 38
1 15 6 19 20 19 8 0 11 -1 15 -5z m-706 -23 c31 -13 34 -15 35 -26 1 -19 -18
-25 -34 -11 -5 4 -15 11 -21 15 -18 12 -22 19 -16 28 5 6 8 5 36 -6z m160
-136 c24 -24 26 -25 70 -25 38 0 41 -1 46 -12 4 -11 1 -27 -6 -33 -6 -4 -28
-6 -32 -2 -2 1 -9 4 -36 14 -14 5 -23 9 -28 14 -2 2 -5 4 -6 4 -2 0 -3 1 -3 2
0 1 -2 2 -4 3 -15 5 -24 7 -29 7 -9 0 -15 8 -15 20 0 14 6 20 20 20 10 0 11 0
23 -12z m-475 5 c10 -5 14 -25 8 -39 -4 -10 1 -32 10 -41 10 -11 12 -16 12
-27 0 -15 -7 -22 -23 -22 -10 0 -12 1 -17 6 l-7 6 2 18 c2 23 -2 35 -15 47 -5
4 -11 10 -12 13 -4 7 -3 24 1 31 6 12 26 16 41 8z m120 -106 c5 -4 5 -8 1 -14
-4 -6 -6 -6 -12 -1 -6 5 -6 9 -2 14 4 5 9 5 13 1z m473 -26 c3 -3 3 -3 0 -6
-4 -5 -11 1 -7 6 4 4 4 4 7 0z m-430 -17 c24 0 29 -3 31 -21 0 -11 0 -14 -8
-29 -9 -17 -9 -17 -9 -38 0 -27 -2 -30 -18 -30 -11 1 -23 -1 -26 -4 -2 -2 -3
-2 -3 -1 0 1 -2 0 -4 -2 -3 -3 -4 -3 -7 3 -2 3 -5 6 -7 6 -2 0 -4 1 -4 2 0 1
-1 2 -3 1 -2 0 -3 1 -4 3 -1 2 -5 6 -9 9 -17 13 -19 22 -13 42 3 7 6 11 13 16
24 17 32 24 37 31 6 10 11 14 14 13 1 -1 10 -1 20 -1z m896 -19 c3 -5 3 -6 1
-11 -4 -6 -8 -7 -15 -3 -6 4 -6 7 -2 14 5 7 12 7 16 0z m78 -54 c14 -14 -2
-38 -20 -30 -19 8 -13 35 7 35 6 0 9 -1 13 -5z m-808 -35 c7 -6 7 -19 1 -25
-6 -7 -19 -7 -25 -1 -7 6 -7 19 -1 25 6 7 19 7 25 1z m785 -48 c2 -2 4 -8 5
-13 1 -10 8 -32 11 -36 7 -10 8 -21 8 -76 0 -13 -29 -21 -49 -12 -8 3 -10 7
-13 24 -3 15 -3 16 4 52 2 8 2 14 0 23 -5 21 -5 33 -1 38 7 8 28 9 35 0z
m-876 -4 c3 -1 10 -7 15 -13 11 -9 16 -13 25 -17 3 -1 7 -5 9 -8 3 -6 3 -6 0
-11 -3 -4 -5 -5 -10 -4 -11 3 -30 3 -37 0 -7 -3 -16 -20 -21 -42 -5 -25 -12
-35 -19 -30 -3 2 -1 24 2 36 2 8 2 32 -1 67 -1 13 -1 14 5 20 5 5 7 6 16 6 7
0 13 -1 16 -4z m673 -25 c3 -5 3 -5 0 -10 -2 -3 -5 -5 -7 -5 -2 0 -5 2 -7 5
-3 5 -3 5 0 10 2 3 5 5 7 5 2 0 5 -2 7 -5z m418 -22 c3 -2 3 -5 2 -12 -1 -4
-2 -13 -2 -19 -1 -15 -12 -24 -27 -21 -19 4 -18 20 3 42 12 13 19 15 24 10z
m-344 -35 c7 -3 17 -8 23 -11 16 -7 17 -8 21 -31 2 -9 5 -16 10 -21 2 -3 8
-13 12 -24 4 -11 8 -20 9 -21 1 -1 2 -3 3 -4 0 -2 6 -7 11 -12 13 -10 16 -16
17 -28 0 -19 -9 -29 -28 -29 -12 0 -21 5 -28 14 -3 4 -10 12 -16 18 -13 13
-17 19 -17 27 0 7 4 18 10 26 2 2 4 9 5 16 l1 12 -8 9 c-12 12 -19 16 -31 15
-17 -1 -21 -4 -32 -21 -7 -11 -14 -15 -27 -15 -15 0 -22 7 -22 22 0 13 2 15
20 34 7 8 16 17 20 22 11 13 23 14 47 2z m-173 -12 c7 -7 5 -16 -3 -23 -4 -4
-9 -7 -10 -7 -4 0 -19 -13 -27 -24 -10 -13 -12 -14 -39 -29 -27 -14 -37 -15
-70 -2 -12 5 -13 6 -18 16 -5 9 -7 21 -3 21 0 0 4 2 7 5 3 3 7 5 9 5 2 0 11 0
21 1 19 0 27 3 45 16 4 3 10 5 18 6 15 2 35 8 45 14 10 6 20 6 25 1z m561 -8
c5 0 13 -9 15 -17 2 -9 3 -36 1 -41 -2 -6 -10 -9 -18 -6 -15 4 -28 20 -38 47
-3 8 -3 9 1 12 6 6 15 7 39 5z m202 -11 l6 -5 0 -38 c-1 -47 -2 -49 -20 -50
-12 0 -12 0 -21 10 -7 7 -12 10 -17 11 -14 2 -22 2 -26 0 -9 -5 -24 -4 -30 2
-11 11 -4 37 9 37 30 1 38 3 50 18 17 20 16 20 31 20 11 0 14 -1 18 -5z
m-1299 -49 c5 -6 5 -12 0 -18 -7 -8 -22 -2 -22 9 0 11 15 17 22 9z m-76 -66
c5 -5 5 -15 0 -20 -9 -9 -24 -2 -24 10 0 8 6 14 14 14 3 0 8 -2 10 -4z m82
-37 c3 -3 4 -7 4 -14 0 -13 -6 -19 -19 -19 -13 0 -19 6 -19 19 0 7 1 11 4 14
7 8 23 8 30 0z m829 -53 c5 -5 6 -7 6 -16 0 -15 -8 -23 -23 -23 -9 0 -11 1
-16 7 -9 8 -9 23 -1 32 9 9 24 9 34 0z m-933 -58 c5 -5 5 -11 0 -16 -10 -10
-27 5 -16 16 4 4 12 4 16 0z m1018 -12 c2 -2 4 -6 4 -8 0 -6 -13 -21 -20 -23
-2 -1 -5 -4 -5 -7 -1 -3 -4 -10 -7 -16 -5 -13 -6 -31 -1 -48 10 -32 4 -48 -17
-48 -13 0 -14 0 -20 6 -6 6 -6 6 -6 26 0 18 -2 33 -8 47 -3 7 -3 23 1 29 2 6
5 7 29 16 13 5 18 8 20 13 2 3 6 7 8 9 3 2 6 4 7 5 3 4 11 3 15 -1z m-973 -69
c7 -7 7 -19 0 -26 -6 -6 -18 -7 -25 -2 -10 7 -15 27 -6 27 1 0 5 1 7 3 6 5 18
4 24 -2z m826 -11 c7 -6 7 -20 1 -26 -8 -6 -22 -12 -26 -10 -10 5 -9 25 0 36
6 6 19 6 25 0z m-803 -125 c24 -8 30 -16 33 -42 2 -22 -5 -35 -19 -35 -9 0
-13 3 -32 22 -8 7 -15 14 -16 14 -1 0 -4 3 -7 7 -8 10 -8 25 0 33 9 9 16 9 41
1z m381 -198 c15 -15 -4 -39 -23 -29 -8 4 -14 28 -7 28 1 0 3 1 4 3 2 5 20 4
26 -2z m473 -12 c4 -2 8 -4 7 -5 -1 -1 0 -2 1 -2 1 -1 2 -6 3 -11 2 -13 -3
-19 -13 -19 -16 0 -25 18 -17 33 4 7 7 8 19 4z m206 -26 c21 -9 20 -45 -2 -54
-10 -5 -28 -1 -34 6 -9 10 -9 32 0 42 7 8 24 11 36 6z m317 -3 c9 -4 20 -33
18 -46 0 -2 -1 -4 -1 -5 0 -1 -2 -4 -4 -7 -5 -6 -21 -5 -37 3 -15 7 -20 15
-20 30 0 24 19 34 44 25z m-852 -31 c3 -2 14 -12 24 -23 11 -10 24 -22 28 -26
11 -9 13 -16 8 -22 -4 -5 -8 -5 -52 -1 -21 2 -33 -1 -45 -12 -13 -12 -21 -16
-30 -14 -4 1 -9 2 -11 2 -3 0 -7 1 -10 2 -3 0 -10 1 -15 2 -5 1 -10 2 -11 2
-13 3 -17 4 -24 8 -5 3 -14 6 -19 7 -6 1 -12 3 -14 5 -6 6 -2 19 6 19 5 0 25
-9 29 -13 7 -7 30 -11 48 -8 13 2 20 11 33 37 2 2 3 4 4 4 1 0 2 1 2 2 0 1 4
7 10 12 17 19 28 24 39 17z m-467 -75 c11 -12 0 -23 -23 -25 -6 0 -16 -5 -10
-5 0 0 -5 -6 -12 -13 -12 -12 -14 -13 -22 -13 -11 0 -17 6 -17 17 0 12 5 16
24 18 8 1 16 2 17 2 2 0 6 4 10 8 14 14 26 19 33 11z"/>
<path d="M1385 3237 c-4 -4 -9 -20 -9 -29 0 -8 19 -22 33 -25 20 -4 33 -3 51
4 6 3 9 5 11 12 8 21 -3 33 -30 33 -6 0 -12 1 -12 2 -1 1 -3 2 -5 2 -1 0 -6 1
-9 3 -9 5 -24 4 -30 -2z"/>
<path d="M1440 2713 c-4 -6 -3 -22 1 -31 1 -4 3 -6 3 -4 0 2 2 3 11 3 11 -1
26 4 22 7 -4 2 -7 10 -5 10 3 0 -7 8 -14 12 -2 1 -5 2 -6 1 -1 -1 -2 0 -2 0 0
1 -2 3 -4 4 -3 3 -4 2 -6 -2z"/>
</g>
</svg>
