<?xml version="1.0" standalone="no"?>
<!DOCTYPE svg PUBLIC "-//W3C//DTD SVG 20010904//EN"
 "http://www.w3.org/TR/2001/REC-SVG-20010904/DTD/svg10.dtd">
<svg version="1.0" xmlns="http://www.w3.org/2000/svg"
 width="1100.000000pt" height="2850.000000pt" viewBox="0 0 1100.000000 2850.000000"
 preserveAspectRatio="xMidYMid meet">
<metadata>
Created by potrace 1.15, written by Peter Selinger 2001-2017
</metadata>
<g transform="translate(0.000000,2850.000000) scale(0.500000,-0.500000)"
fill="#000000" stroke="none">
<path d="M1015 3811 c-6 -2 -8 -7 -7 -23 1 -9 0 -12 -2 -13 -2 0 -1 -1 2 -1 8
0 31 -9 36 -13 6 -5 5 -17 -1 -23 -6 -5 -13 -5 -32 1 -8 3 -21 6 -29 7 -12 2
-17 4 -24 10 -24 20 -37 23 -50 12 -14 -13 -14 -15 -14 -105 0 -90 0 -92 14
-104 6 -6 7 -6 15 -5 5 1 9 1 9 0 0 -1 2 -1 5 0 3 2 4 3 4 4 -1 1 0 2 1 2 1 0
14 24 14 27 0 1 4 10 8 21 7 15 9 21 9 35 1 12 2 17 6 21 5 5 14 5 20 0 5 -4
5 -5 4 -28 -1 -19 -1 -25 2 -34 5 -15 3 -32 -4 -37 -5 -4 -39 -16 -46 -17 -2
0 -3 -2 -4 -4 -2 -7 -8 -12 -31 -23 -22 -11 -27 -23 -25 -55 2 -33 1 -43 -2
-46 -3 -3 -14 -3 -77 -3 -75 0 -80 0 -80 -3 0 -1 -1 -2 -2 -2 -5 0 -12 -8 -12
-12 0 -5 0 -5 -2 0 -1 3 -3 9 -5 13 -2 4 -4 14 -4 22 -1 8 -3 18 -4 22 -4 9
-14 21 -18 21 -2 0 -3 1 -3 2 0 2 -11 3 -73 3 -58 0 -71 -1 -73 -3 -1 -1 -3
-2 -5 -3 -7 -4 -11 -12 -12 -22 0 -13 5 -20 21 -31 14 -9 20 -16 20 -26 0 -6
-5 -18 -9 -20 -5 -4 -1 -39 4 -41 7 -3 10 -27 4 -38 -1 -4 -7 -8 -13 -12 -6
-3 -11 -6 -13 -7 -1 -1 -4 -4 -6 -6 -3 -2 -7 -8 -10 -14 l-5 -10 0 -116 c1
-107 1 -118 5 -124 1 -4 3 -8 3 -9 0 -1 4 -9 8 -17 10 -19 16 -38 16 -48 0 -7
-7 -19 -15 -26 -5 -4 -12 -16 -15 -25 -1 -6 -2 -59 -2 -194 0 -224 -2 -207 25
-206 7 0 13 -1 13 -2 0 -2 8 12 9 16 4 15 13 25 22 25 12 0 19 -11 19 -29 0
-16 -6 -25 -23 -38 -3 -3 -10 -8 -15 -13 -10 -9 -19 -12 -38 -12 -7 0 -14 0
-16 -1 -2 0 -6 -1 -9 -2 -4 -1 -7 -2 -7 -3 0 -1 -1 -2 -2 -2 -2 0 -5 -2 -9 -5
-21 -15 -37 -18 -47 -8 -5 5 -6 8 -7 21 -1 8 -2 22 -3 31 -2 13 -1 16 2 20 4
6 7 6 13 1 5 -4 17 -21 17 -24 0 0 7 -1 15 -1 15 0 17 1 22 14 3 7 4 129 1
135 -1 1 -3 6 -5 11 -2 4 -6 11 -10 15 -13 14 -15 18 -15 30 0 12 2 16 15 30
4 4 8 11 10 15 2 5 4 10 5 11 1 2 2 33 2 68 0 62 0 64 -5 76 -8 23 -9 32 -6
49 3 16 3 21 -2 39 -5 20 -4 31 9 58 3 6 3 21 3 135 0 146 1 137 -18 153 -23
20 -23 20 -23 34 l0 13 11 10 c15 14 18 21 17 46 0 19 1 22 7 40 l7 20 0 44
c0 45 0 45 -6 62 -3 9 -7 23 -8 31 -3 25 -6 31 -18 46 -10 12 -11 20 -2 30 3
3 7 6 8 6 4 0 20 18 23 28 4 13 4 39 0 49 -4 9 -14 21 -18 21 -2 0 -3 1 -3 2
0 2 -11 3 -80 3 -69 0 -80 -1 -80 -3 0 -1 -1 -2 -3 -2 -4 0 -14 -12 -18 -22
-6 -14 0 -36 15 -52 8 -8 19 -32 21 -43 1 -4 2 -18 1 -30 0 -25 0 -26 13 -29
5 -1 8 -1 10 1 4 4 21 5 30 2 8 -3 13 -10 13 -22 0 -15 -7 -36 -12 -38 -2 0
-4 0 -3 1 1 1 0 2 -2 3 -4 1 -19 -1 -20 -3 -1 -1 -2 -2 -3 -1 -4 2 -18 -7 -25
-16 -3 -5 -11 -14 -16 -20 -22 -21 -24 -34 -12 -58 9 -18 9 -22 1 -37 -13 -26
-13 -28 -13 -112 0 -42 0 -86 0 -96 0 -10 0 -102 0 -203 -1 -202 -2 -197 11
-218 4 -6 7 -12 7 -13 0 -1 1 -4 3 -7 3 -6 3 -26 1 -35 0 -3 -5 -13 -10 -21
-13 -22 -13 -28 -13 -84 1 -44 1 -49 5 -55 8 -13 27 -22 36 -16 2 2 7 4 10 5
13 6 12 5 13 18 0 3 3 6 7 8 7 4 7 4 11 0 4 -4 4 -4 -1 -13 -3 -6 -5 -9 -9
-10 -2 0 -4 -2 -4 -4 0 -1 -1 -7 -1 -12 -3 -38 -6 -45 -25 -47 -8 -1 -25 -7
-31 -13 -8 -7 -11 -16 -11 -41 0 -20 -1 -27 -6 -43 -3 -11 -7 -20 -8 -20 -1 0
-2 -1 -2 -2 0 -4 -9 -10 -15 -10 -7 0 -14 6 -24 19 -3 4 -7 9 -8 10 -16 17
-13 42 5 41 9 -1 30 5 35 10 9 7 11 15 11 37 -1 21 -5 33 -14 42 -1 2 -5 8 -7
13 -4 8 -4 8 0 17 2 4 6 10 7 12 11 12 13 19 14 65 0 48 -2 65 -11 70 -4 2
-22 3 -31 2 -1 0 -4 -3 -8 -6 -6 -5 -33 -18 -38 -18 -1 0 -9 -4 -17 -8 -16 -9
-27 -10 -34 -5 -3 2 -3 5 -3 16 1 25 1 30 -3 39 -3 5 -8 13 -12 17 -8 8 -8 8
-17 7 -14 -2 -21 -7 -26 -16 -4 -7 -4 -12 -4 -64 0 -70 1 -73 26 -85 7 -3 12
-7 12 -8 0 -1 2 -3 4 -4 3 -1 3 -1 0 -4 -2 -1 -4 -3 -4 -4 0 -1 -5 -5 -12 -8
-14 -7 -19 -11 -23 -21 -3 -7 -3 -30 -3 -188 0 -175 0 -181 4 -190 5 -10 7
-12 16 -17 12 -7 19 -6 28 3 5 4 8 8 8 8 -1 0 0 5 2 12 2 8 3 12 2 14 -3 3 -2
28 1 38 5 14 1 43 -7 51 -3 3 -2 15 2 19 5 5 14 5 19 1 3 -2 4 -5 4 -17 0 -18
5 -29 17 -43 8 -10 15 -26 14 -37 -1 -14 9 -33 21 -38 12 -5 12 -5 97 5 42 5
86 10 97 11 27 3 38 8 54 23 6 5 13 11 14 13 5 4 27 3 34 0 13 -7 14 -10 13
-53 0 -32 0 -39 3 -46 4 -9 14 -21 18 -21 2 0 3 -1 3 -2 0 -2 2 -2 67 -3 59
-1 63 -1 71 3 19 8 24 19 26 52 1 14 3 27 3 29 1 2 2 59 3 126 l1 122 6 7 c3
3 5 5 5 4 0 -2 4 -7 9 -12 15 -17 24 -27 32 -37 4 -5 9 -11 10 -12 1 -1 7 -9
14 -17 17 -21 18 -22 34 -22 17 0 20 3 31 24 8 14 8 23 5 54 -1 14 -1 15 4 21
2 4 8 8 13 10 4 2 8 5 8 7 0 2 1 2 1 0 1 -2 2 -4 3 -4 1 0 4 -3 6 -6 4 -6 5
-9 4 -24 0 -9 -1 -81 -1 -158 l-1 -142 5 -11 c5 -10 6 -11 18 -17 l13 -6 21 5
c28 6 35 6 41 0 5 -5 5 -17 0 -25 -9 -16 -35 -38 -45 -38 -3 -1 -7 -1 -11 -1
-3 0 -11 -3 -18 -7 -13 -6 -14 -7 -19 -17 -5 -10 -5 -13 -5 -39 0 -21 1 -29 3
-35 4 -9 14 -21 18 -21 2 0 3 -1 3 -2 0 -2 2 -2 90 -3 74 -1 87 -1 98 2 26 7
42 18 50 35 3 6 3 29 4 220 l1 212 4 4 c2 2 5 4 6 6 0 2 1 2 1 0 0 -2 1 -4 2
-4 6 -2 61 -53 75 -70 3 -4 14 -16 23 -26 9 -10 19 -22 23 -26 3 -4 11 -13 17
-20 12 -16 12 -16 29 -16 17 0 20 3 35 33 21 43 25 53 23 62 -1 9 -6 23 -9 29
-4 7 -3 22 1 26 2 2 8 6 15 9 17 8 28 17 28 23 0 5 0 5 2 1 0 -3 2 -7 4 -9 5
-5 5 -7 6 -41 1 -39 4 -47 19 -55 11 -6 11 -6 43 -3 15 1 16 1 21 -3 6 -5 7
-16 2 -23 -1 -3 -9 -12 -18 -22 -10 -9 -17 -19 -17 -21 0 -2 -2 -6 -6 -9 -15
-17 -22 -35 -21 -53 1 -9 -3 -24 -7 -24 -1 0 -5 -6 -8 -13 l-7 -14 -1 -88 c0
-77 0 -89 3 -96 4 -9 14 -21 18 -21 2 0 3 -1 3 -2 0 -2 2 -2 60 -3 67 -1 71 0
81 17 10 18 25 22 52 15 24 -7 40 -2 49 15 4 9 4 10 4 92 l0 83 -5 17 c-3 9
-7 21 -10 25 -2 4 -4 8 -4 9 1 1 -4 1 -9 0 -13 -1 -25 -7 -29 -14 -8 -15 -22
-21 -31 -11 -3 4 -4 7 -4 37 -1 40 1 45 16 51 12 5 36 -1 36 -10 0 -2 1 -3 2
-2 1 2 6 3 14 2 11 0 13 1 18 6 l5 5 1 74 c1 55 2 75 3 76 2 0 4 4 6 8 3 7 3
7 3 2 0 -4 3 -8 11 -15 14 -12 16 -17 14 -34 -1 -8 -2 -16 -2 -19 -1 -11 3
-19 20 -35 9 -9 19 -21 22 -26 3 -6 7 -10 7 -9 1 1 3 0 4 -1 5 -4 30 -4 30 0
0 3 75 79 99 100 9 8 18 17 21 20 3 3 8 9 12 13 12 12 19 25 19 39 0 7 0 12
-1 13 -1 1 -7 14 -14 29 -7 15 -15 33 -18 40 -3 7 -13 30 -22 52 -22 55 -18
50 -34 49 -20 0 -21 -1 -27 -13 -8 -15 -11 -17 -22 -17 -15 0 -19 5 -19 27 -1
19 3 39 7 46 2 3 9 8 15 11 15 7 19 11 23 19 6 10 6 21 0 37 -3 8 -6 18 -7 21
-7 24 -17 53 -21 62 -6 13 -10 28 -14 50 -2 10 -4 21 -5 24 -3 8 -15 55 -22
84 -1 4 -5 15 -7 23 -3 8 -8 23 -10 34 -8 34 -15 45 -32 53 -21 10 -24 11 -28
16 -10 10 -9 12 14 28 13 8 18 19 21 39 1 11 3 19 7 25 7 12 11 24 13 42 1 9
4 18 5 21 8 15 41 14 48 -1 7 -12 3 -35 -7 -42 -2 -1 -4 -3 -3 -3 0 -1 1 -6 1
-12 1 -24 6 -27 53 -25 38 1 39 1 39 3 0 1 1 2 3 2 4 0 14 12 18 21 4 11 4 99
0 115 -6 21 -17 27 -46 26 -10 0 -20 1 -22 1 -1 1 -8 8 -13 16 -10 15 -15 19
-34 31 -8 5 -11 8 -18 23 -5 9 -9 17 -10 17 -1 0 -2 1 -2 3 0 1 -4 2 -14 1
-12 -1 -14 -2 -18 -6 -4 -6 -13 -22 -13 -26 -2 -9 -19 -15 -33 -12 -11 2 -16
7 -18 18 -3 11 -2 15 9 39 7 15 9 24 9 42 0 10 -1 19 -2 20 -1 1 -2 3 -2 5 0
5 -11 17 -22 22 -18 9 -22 13 -22 23 0 10 4 14 22 23 11 5 22 17 22 22 0 2 1
4 2 5 1 1 2 36 2 99 0 85 0 99 -3 105 -4 9 -14 21 -18 21 -2 0 -3 1 -3 2 0 3
-12 3 -111 3 -99 0 -111 0 -111 -3 0 -1 -1 -2 -2 -2 -2 0 -5 -2 -8 -5 -5 -4
-5 -6 -5 -17 -1 -12 0 -12 8 -18 4 -3 13 -8 19 -10 11 -4 14 -6 22 -17 10 -14
20 -23 29 -27 3 -1 8 -5 10 -9 3 -6 3 -7 0 -12 -2 -3 -5 -5 -7 -5 -3 0 -17 6
-24 10 -4 2 -9 4 -20 7 -7 2 -9 2 -18 -2 -12 -6 -24 -17 -24 -23 0 -2 -1 -4
-2 -5 -1 -1 -2 -7 -2 -14 0 -19 7 -32 27 -52 10 -9 32 -11 44 -5 13 7 26 6 33
-2 14 -13 6 -38 -12 -38 -14 -1 -16 0 -28 11 -11 11 -21 18 -23 15 0 0 -1 0
-1 2 0 1 -1 1 -5 0 -3 -1 -6 -2 -7 -1 0 0 -2 -1 -3 -2 -3 -3 -4 -15 -3 -32 0
-3 4 -9 9 -14 9 -8 9 -9 9 -20 0 -12 0 -12 -21 -30 -10 -9 -10 -9 -11 -22 l0
-13 8 -6 c5 -4 12 -9 15 -11 10 -5 14 -12 14 -23 0 -16 -8 -22 -26 -23 -18 -1
-22 -5 -21 -18 0 -9 3 -17 9 -29 8 -14 0 -26 -16 -26 -12 0 -27 -4 -42 -11
-23 -10 -39 -5 -39 14 0 5 1 11 2 13 3 6 8 25 8 35 1 8 -5 21 -12 28 -2 3 -4
6 -4 7 0 2 -1 2 -1 1 -1 -1 -6 -2 -13 -1 -14 0 -15 -1 -22 -16 -4 -8 -4 -12
-3 -53 1 -57 1 -74 0 -119 -1 -31 -1 -37 2 -45 4 -9 14 -21 18 -21 2 0 3 -1 3
-2 0 -2 9 -3 39 -3 33 0 41 2 58 20 12 13 17 15 29 16 12 0 21 -4 25 -12 4 -7
5 -24 1 -31 -2 -4 -20 -26 -24 -30 -1 -1 -3 -4 -6 -8 -6 -9 -9 -11 -23 -18
-25 -11 -33 -23 -33 -47 0 -16 -4 -32 -11 -47 -5 -11 -11 -25 -12 -33 -1 -2
-2 -5 -2 -7 -1 -4 -3 -12 -11 -41 -3 -13 -7 -27 -8 -31 -3 -9 2 -28 12 -45 6
-11 8 -22 6 -31 -3 -11 -6 -15 -20 -22 -15 -8 -32 -20 -32 -22 0 -1 -1 -2 -2
-1 -1 0 -4 -7 -7 -17 -3 -9 -7 -24 -10 -32 -3 -8 -6 -16 -6 -18 -1 -3 -19 -51
-30 -78 -2 -7 -8 -21 -13 -31 -4 -10 -9 -21 -10 -24 -1 -3 -6 -13 -10 -22 -5
-10 -8 -22 -10 -31 -2 -16 -6 -23 -15 -28 -5 -3 -10 -10 -19 -28 -2 -3 -6 -10
-10 -17 -5 -6 -8 -13 -8 -14 0 -5 -7 3 -10 10 -1 3 -2 44 -2 122 0 120 0 121
8 138 1 2 2 5 3 7 1 3 1 2 1 0 0 -3 2 -3 15 -3 15 1 16 1 23 8 9 9 15 11 36
13 26 2 43 12 51 29 2 3 5 8 7 11 2 2 4 5 4 6 0 1 1 2 3 2 1 -1 2 0 2 2 -1 1
0 2 1 2 0 0 1 11 2 24 0 19 1 28 4 36 9 23 11 32 8 41 -2 9 -45 75 -54 83 -5
5 -16 22 -16 26 0 2 -12 21 -14 22 -1 0 -2 2 -2 3 0 1 -1 3 -2 3 0 1 -5 6 -9
13 -4 7 -8 12 -9 13 -1 0 -2 2 -2 3 0 2 -1 3 -2 3 -1 0 -2 1 -2 3 0 1 -4 2
-14 1 -19 -1 -22 -4 -25 -28 -1 -13 -3 -18 -11 -26 -6 -6 -6 -7 -6 -21 0 -14
1 -16 6 -23 9 -12 9 -30 0 -38 -6 -6 -7 -6 -18 -6 -11 0 -12 0 -18 6 -9 8 -9
26 0 38 5 7 6 9 6 23 0 14 0 15 -6 21 -9 10 -13 22 -10 35 4 15 2 36 -5 49
-10 20 -6 40 9 47 9 4 10 6 11 23 0 6 1 11 1 11 1 0 3 1 4 3 3 1 4 1 4 0 1 -3
26 -5 71 -5 41 0 51 1 51 3 0 1 1 2 3 2 4 0 14 12 18 21 4 11 4 37 -1 51 -2 6
-7 17 -13 25 -8 12 -9 15 -9 25 0 10 1 13 9 25 14 20 17 31 17 59 0 17 -1 26
-3 31 -4 9 -14 21 -18 21 -2 0 -3 1 -3 2 0 2 0 2 -55 4 -54 2 -75 5 -91 15
-10 6 -12 10 -12 22 0 13 4 18 19 25 18 10 22 13 28 25 l5 11 0 113 c0 124 -1
139 -13 161 -8 13 -9 14 -20 19 -10 5 -12 5 -58 5 -30 0 -50 -1 -54 -3z m86
-222 c5 -8 1 -16 -8 -16 -9 0 -13 8 -8 16 2 3 5 5 8 5 3 0 6 -2 8 -5z m-699
-51 c1 -2 2 -2 2 -1 0 1 1 1 3 -1 1 -1 9 -4 17 -6 18 -5 23 -9 26 -21 3 -12 0
-22 -10 -37 -4 -6 -7 -12 -8 -14 -3 -12 -3 -21 -3 -33 1 -14 1 -15 -4 -20 -11
-12 -41 -3 -50 14 -4 8 -4 20 0 38 2 8 3 23 4 34 0 10 2 20 3 22 1 1 3 6 4 11
4 16 5 18 10 17 3 -1 5 -2 6 -3z m1224 -115 c7 -3 11 -9 14 -19 4 -14 -5 -36
-16 -38 -6 -2 -28 4 -33 8 -10 9 -10 33 -1 43 7 8 24 11 36 6z m-442 -70 l-5
-5 -4 4 -5 5 4 4 5 5 4 -4 5 -5 -4 -4z m-333 -23 c5 -5 6 -7 6 -16 0 -13 -7
-21 -21 -23 -14 -2 -36 -11 -45 -18 -11 -9 -29 -13 -36 -8 -5 3 -31 -4 -34 -9
0 -2 -1 -2 -1 0 0 1 -2 2 -4 2 -7 0 -10 -9 -10 -32 0 -12 0 -23 -1 -26 -1 -3
-2 -8 -3 -12 -1 -4 -2 -5 -2 -3 0 6 -4 7 -17 7 -7 0 -11 1 -12 3 0 1 -1 1 -1
-1 0 -9 -26 -12 -37 -5 -11 7 -13 25 -4 44 6 13 13 38 13 48 0 9 8 15 21 15
14 0 31 3 35 8 2 2 4 3 6 4 4 0 14 12 16 19 1 4 2 5 2 2 0 -3 2 -5 10 -7 5 -1
11 -3 14 -4 3 -1 6 -1 9 1 2 2 7 2 13 2 11 -1 35 5 49 11 15 7 25 7 34 -2z
m166 3 c5 -8 1 -16 -8 -16 -9 0 -13 8 -8 16 2 3 5 5 8 5 3 0 6 -2 8 -5z m643
-3 c5 -5 5 -11 0 -16 -7 -7 -21 -1 -19 9 1 11 11 15 19 7z m-206 -61 c3 -3 4
-7 4 -14 0 -13 -6 -19 -19 -19 -13 0 -19 6 -19 19 0 7 1 11 4 14 7 8 23 8 30
0z m-346 -22 c2 -2 5 -7 6 -12 2 -8 8 -15 15 -16 6 -1 27 -2 27 -1 0 1 10 6
13 6 2 0 9 -8 9 -11 0 -4 -11 -15 -18 -18 -3 -2 -6 -4 -5 -5 1 -1 0 -2 -2 -2
-3 0 -3 -1 -2 -2 4 -2 5 -10 2 -14 -4 -5 -21 -17 -21 -14 0 2 -7 6 -12 7 -4 1
-11 6 -18 13 -5 5 -14 12 -19 16 -14 9 -18 16 -17 31 2 17 11 24 31 25 4 0 9
-1 11 -3z m-381 -89 c2 -2 5 -4 7 -4 1 0 2 -1 2 -2 0 -2 1 -2 65 -4 l61 -1 5
-5 c3 -3 4 -6 4 -6 0 -1 -3 -12 -6 -25 -3 -13 -6 -28 -7 -32 -1 -4 -2 -9 -3
-11 0 -2 -1 -4 -1 -5 -2 -3 4 -23 8 -29 7 -9 13 -12 33 -15 25 -4 29 -8 29
-22 0 -8 -1 -11 -5 -14 -7 -6 -24 -13 -48 -17 -39 -8 -45 -14 -58 -55 -5 -17
-11 -34 -12 -39 -2 -5 -5 -14 -7 -21 -4 -14 -6 -17 -22 -60 -15 -40 -33 -86
-43 -105 -4 -8 -7 -16 -7 -18 0 -2 -1 -2 -1 0 -1 2 -2 2 -3 0 -1 -1 -3 -1 -6
1 -2 2 -3 4 -3 5 2 3 1 41 0 49 -2 9 -8 21 -13 27 -8 9 -12 18 -12 29 0 5 -2
17 -3 26 -6 27 -6 28 -2 34 2 4 8 10 13 14 18 16 17 8 18 159 1 133 1 133 6
142 2 5 4 11 4 13 0 3 1 3 1 -1 1 -2 3 -6 6 -8z m876 -8 c2 -1 6 -7 9 -12 9
-15 19 -19 43 -18 19 0 19 0 24 -6 3 -4 5 -7 5 -8 0 0 1 -3 1 -4 1 -6 -9 -14
-21 -18 -34 -11 -46 -14 -62 -15 -19 -1 -21 -1 -27 -5 -3 -1 -5 -1 -6 0 -1 0
-1 0 0 -1 1 -2 0 -3 -1 -3 -3 0 -3 -32 1 -38 3 -4 3 -4 0 -9 -5 -6 -9 -6 -14
0 -3 5 -3 5 0 10 2 3 3 6 1 13 -1 4 -1 8 -1 8 1 0 1 1 0 3 -1 1 -2 3 -2 5 -1
2 -2 3 -3 4 -1 0 -2 1 -2 3 0 1 -4 5 -8 8 -4 3 -9 8 -10 12 -3 7 -3 23 0 29 4
8 43 44 48 45 3 1 6 2 7 2 3 1 15 -2 18 -5z m-999 -14 c3 -2 7 -6 10 -9 2 -3
6 -9 9 -12 10 -11 16 -22 23 -37 10 -26 12 -40 5 -51 -5 -7 -8 -27 -6 -41 1
-10 1 -13 -2 -16 -3 -4 -4 -4 -7 -1 -2 2 -4 5 -4 7 0 9 -13 35 -21 44 -5 5
-11 13 -13 18 -3 5 -6 10 -7 12 -5 6 -11 31 -10 37 1 3 2 7 2 10 0 2 1 9 2 16
1 7 1 13 1 13 -1 2 8 12 11 12 1 0 5 -1 7 -2z m362 -18 c5 -5 5 -11 0 -16 -10
-10 -27 5 -16 16 4 4 12 4 16 0z m717 -103 c4 -4 5 -7 5 -15 0 -14 -6 -20 -20
-20 -14 0 -20 6 -20 20 0 14 6 20 20 20 8 0 11 -1 15 -5z m-198 -9 c7 -7 8
-21 1 -33 -9 -15 -24 -34 -29 -38 -10 -7 -25 0 -25 11 0 14 15 56 21 62 8 7
23 6 32 -2z m-251 -73 c4 -5 -3 -11 -7 -6 -3 2 -3 3 -1 6 4 4 5 4 8 0z m465
-23 c6 -6 14 -28 16 -43 1 -13 -1 -19 -10 -21 -9 -1 -30 15 -40 31 -6 9 -5 24
2 31 8 9 24 9 32 2z m-691 -26 c6 -6 6 -7 6 -19 -1 -12 -4 -19 -13 -35 -11
-19 -19 -24 -34 -25 -9 -1 -14 1 -27 10 -12 8 -25 11 -44 11 -15 0 -17 1 -21
5 -7 7 -7 23 0 30 6 6 20 7 30 2 7 -4 28 -6 36 -4 3 1 10 5 15 11 15 15 23 20
36 20 9 0 11 -1 16 -6z m-598 -12 c5 -5 6 -7 6 -17 0 -16 -7 -23 -23 -23 -16
0 -23 7 -23 23 0 16 7 23 23 23 10 0 12 -1 17 -6z m1104 -41 c14 -7 18 -12 18
-24 0 -31 -43 -23 -55 10 -4 9 -3 12 1 17 4 5 21 4 36 -3z m-264 -23 c1 0 5
-3 8 -6 5 -5 6 -7 6 -18 0 -11 -1 -13 -6 -18 -6 -6 -7 -6 -18 -6 -11 0 -12 0
-18 6 -5 5 -6 7 -6 17 0 14 3 20 12 24 5 2 8 2 22 1z m-629 -72 c11 -10 3 -28
-11 -28 -9 0 -16 6 -16 16 0 14 17 22 27 12z m-224 -5 c3 -3 3 -3 0 -6 -4 -5
-11 1 -7 6 4 4 4 4 7 0z m1263 -24 l-5 -5 -4 4 -5 5 4 4 5 5 4 -4 5 -5 -4 -4z
m-795 6 c7 -3 10 -6 13 -13 7 -16 9 -29 10 -45 0 -15 0 -16 -5 -21 -6 -6 -20
-6 -28 -1 -8 6 -27 51 -27 63 0 19 16 26 37 17z m-158 -61 c-1 -6 -3 -14 -5
-18 -5 -9 -24 -28 -29 -28 -1 0 -3 -2 -4 -4 -7 -10 -30 -14 -40 -7 -7 4 -9 10
-10 23 0 23 6 37 21 43 8 4 30 1 30 -3 0 -2 18 1 28 5 10 3 10 2 9 -11z m267
5 c16 -7 20 -37 7 -48 -12 -11 -34 -11 -44 1 -6 6 -6 34 0 40 8 9 24 12 37 7z
m750 -9 c5 -5 5 -15 0 -20 -9 -9 -24 -2 -24 10 0 8 6 14 14 14 3 0 8 -2 10 -4z
m-1284 -83 l-5 -5 -4 4 -5 5 4 4 5 5 4 -4 5 -5 -4 -4z m405 6 c4 -4 5 -7 5
-15 0 -14 -6 -20 -20 -20 -14 0 -20 6 -20 20 0 14 6 20 20 20 8 0 11 -1 15 -5z
m730 -6 c2 -1 7 -5 10 -8 3 -3 11 -8 17 -12 13 -9 19 -9 44 -2 21 6 28 6 31
-3 4 -12 -1 -19 -15 -21 -4 0 -17 -4 -29 -7 -21 -6 -23 -6 -36 -4 -8 1 -23 1
-33 1 -25 -1 -38 3 -38 14 0 10 7 35 12 40 7 7 27 8 37 2z m-472 -37 c7 -3 12
-13 12 -25 0 -17 -4 -22 -23 -29 -10 -4 -18 -7 -19 -8 -4 -3 -27 -12 -31 -12
-6 0 -10 9 -9 15 1 3 5 11 10 18 5 8 12 19 16 26 9 18 23 22 44 15z m292 -9
c3 -2 7 -7 9 -12 l4 -9 -4 -9 c-6 -13 -12 -16 -33 -15 -2 0 -6 3 -9 6 -5 5 -6
7 -6 17 0 14 3 20 12 24 7 3 21 2 27 -2z m100 -3 l11 -6 -3 -10 c-5 -18 -9
-24 -21 -30 -14 -8 -22 -7 -29 3 -3 3 -5 8 -5 10 0 2 -2 5 -4 7 -3 3 -3 4 -1
5 1 1 1 1 0 2 -2 1 -2 2 1 5 2 2 4 6 4 8 0 8 14 15 28 13 5 -1 13 -4 19 -7z
m-231 -38 c7 -7 2 -19 -8 -19 -7 0 -20 15 -15 16 2 1 4 2 6 4 5 4 13 3 17 -1z
m432 -13 c9 -8 15 -27 12 -41 -1 -6 -2 -11 -3 -11 0 -1 -7 2 -14 5 -8 3 -16 6
-19 6 -19 0 -19 42 0 42 3 0 6 1 8 2 5 3 9 2 16 -3z m-79 -63 c3 -5 -5 -19
-10 -19 -4 0 -5 -1 -5 -10 0 -5 -1 -12 -1 -15 -1 -3 -1 -8 -1 -11 2 -19 1 -35
-3 -38 -6 -5 -8 -6 -20 -2 -13 5 -26 18 -28 28 -2 9 0 24 3 28 3 3 36 20 39
19 2 0 9 4 9 6 -1 7 1 12 6 15 6 3 8 3 11 -1z m-293 -20 c5 -5 6 -7 6 -17 0
-16 -7 -23 -23 -23 -10 0 -12 1 -17 6 -5 5 -6 7 -6 17 0 16 7 23 23 23 10 0
12 -1 17 -6z m-1168 -35 l-5 -5 -4 4 -5 5 4 4 5 5 4 -4 5 -5 -4 -4z m179 -54
c4 -4 5 -7 5 -15 0 -14 -6 -20 -20 -20 -14 0 -20 6 -20 20 0 14 6 20 20 20 8
0 11 -1 15 -5z m133 -7 c5 -5 6 -7 6 -17 0 -18 -12 -28 -30 -23 -11 3 -16 10
-16 23 0 16 7 23 23 23 10 0 12 -1 17 -6z m163 -42 c4 -5 5 -7 4 -17 -1 -20
-11 -33 -33 -41 -22 -9 -31 -3 -29 17 1 16 12 37 20 41 14 8 31 8 38 0z m938
-44 c7 -6 7 -19 1 -25 -6 -7 -19 -7 -25 -1 -7 6 -7 19 -1 25 6 7 19 7 25 1z
m-496 -224 c4 -6 4 -24 -1 -30 -7 -9 -27 -9 -34 0 -5 6 -5 24 0 30 7 9 27 9
35 0z m520 -22 c6 -7 6 -11 0 -15 -7 -4 -13 -3 -17 3 -6 12 8 21 17 12z"/>
<path d="M176 3484 c-13 -4 -26 -25 -26 -41 0 -6 -8 -13 -15 -13 -8 0 -14 6
-16 16 -2 15 -5 23 -5 20 0 -3 -2 -4 -15 -4 -12 0 -15 -1 -19 -4 l-4 -4 0
-269 0 -270 4 -8 c7 -15 26 -23 41 -17 11 4 12 5 22 26 12 23 16 27 32 27 19
0 28 -9 28 -28 0 -18 -8 -26 -25 -28 -5 0 -11 -1 -14 -2 -3 -1 -8 -2 -11 -2
-5 0 -7 -1 -10 -6 -2 -4 -4 -7 -5 -7 -1 0 -3 -6 -6 -13 -4 -11 -13 -21 -16
-18 -1 0 -4 -3 -8 -8 -6 -8 -12 -33 -8 -30 1 1 2 0 2 -2 0 -1 2 -3 5 -4 5 -1
17 1 16 3 -1 2 8 1 15 -3 7 -4 12 -10 12 -16 0 -2 1 -5 2 -6 1 -1 2 -6 4 -10
6 -22 17 -27 67 -28 23 0 36 8 46 29 12 23 11 37 -4 53 -20 21 -20 29 0 50 12
13 18 31 13 41 -7 14 -11 20 -18 25 -17 13 -17 25 0 38 8 5 11 11 18 25 3 8 2
172 -2 192 -2 12 -2 16 0 29 1 8 3 33 3 58 1 47 1 48 -11 77 -3 8 -6 16 -6 19
0 4 7 24 10 28 7 9 10 44 5 59 -3 9 -14 22 -18 22 -2 0 -3 1 -3 2 0 1 -1 2 -2
2 -7 1 -74 2 -78 0z m-18 -180 c5 -6 5 -12 0 -18 -7 -8 -22 -2 -22 9 0 11 15
17 22 9z m35 -120 c4 -6 4 -24 -1 -30 -7 -9 -27 -9 -34 0 -5 6 -5 24 0 30 7 9
27 9 35 0z"/>
<path d="M1886 3414 c-14 -7 -19 -13 -19 -25 0 -12 4 -17 21 -30 11 -8 16 -9
32 -6 11 1 15 5 19 16 3 8 3 10 1 18 -3 10 -14 25 -19 25 -2 0 -3 1 -3 2 0 1
-1 1 -2 1 -2 1 -7 1 -12 2 -7 1 -11 0 -18 -3z"/>
</g>
</svg>
