<?xml version="1.0" standalone="no"?>
<!DOCTYPE svg PUBLIC "-//W3C//DTD SVG 20010904//EN"
 "http://www.w3.org/TR/2001/REC-SVG-20010904/DTD/svg10.dtd">
<svg version="1.0" xmlns="http://www.w3.org/2000/svg"
 width="1100.000000pt" height="2850.000000pt" viewBox="0 0 1100.000000 2850.000000"
 preserveAspectRatio="xMidYMid meet">
<metadata>
Created by potrace 1.15, written by Peter Selinger 2001-2017
</metadata>
<g transform="translate(0.000000,2850.000000) scale(0.500000,-0.500000)"
fill="#000000" stroke="none">
<path d="M1274 3817 c-12 -4 -20 -13 -26 -31 -6 -18 -9 -21 -28 -30 -11 -5
-22 -12 -30 -19 -7 -7 -18 -16 -25 -21 -14 -12 -19 -18 -29 -41 -10 -23 -12
-25 -35 -25 -22 0 -36 -4 -49 -12 -5 -3 -23 -13 -41 -22 l-31 -16 -5 7 c-5 6
-5 8 -5 29 0 17 -1 26 -3 31 -4 9 -14 21 -18 21 -2 0 -3 1 -3 2 0 2 -2 2 -54
3 l-49 1 -21 -6 c-25 -7 -29 -7 -50 -1 -16 5 -20 6 -70 7 -52 1 -53 1 -60 6
-5 3 -8 6 -8 6 0 2 -3 6 -17 29 -1 2 -3 5 -4 6 -2 2 -3 4 -3 5 -1 3 -20 5 -27
3 -6 -1 -11 -13 -11 -22 1 -13 0 -17 -6 -23 -5 -5 -7 -6 -17 -6 -17 0 -22 6
-24 27 -4 47 -7 53 -32 53 -15 0 -18 -2 -22 -9 -8 -14 -27 -18 -46 -9 -6 3
-12 7 -14 8 -3 2 -10 5 -23 8 -4 1 -11 0 -22 -2 -21 -5 -26 -8 -29 -14 -4 -8
-4 -27 1 -36 7 -13 8 -19 5 -25 -4 -7 -8 -11 -14 -11 -7 0 -19 -10 -24 -21 -3
-5 -6 -19 -8 -29 -6 -36 -9 -46 -23 -58 -6 -6 -14 -15 -17 -19 -3 -4 -7 -9 -8
-9 -1 -1 -1 -5 0 -10 1 -9 -4 -15 -15 -21 -15 -7 -42 -1 -34 8 3 3 6 22 4 26
-4 10 0 20 14 37 5 5 8 10 8 11 0 6 34 51 38 51 2 0 2 0 0 2 -1 1 -2 5 -2 11
1 11 -3 18 -14 23 -11 6 -70 6 -81 -1 -11 -6 -18 -21 -17 -35 1 -17 0 -21 -6
-27 -5 -5 -7 -6 -16 -6 -6 0 -11 1 -11 2 -1 3 -27 -3 -31 -7 -8 -7 -10 -17
-10 -44 0 -19 1 -28 3 -33 4 -9 14 -21 18 -21 2 0 3 -1 3 -2 0 -2 0 -2 37 -4
29 -1 33 -2 43 -7 6 -3 10 -5 9 -5 -4 0 -7 -7 -9 -18 -1 -9 -1 -12 4 -24 3 -8
6 -17 7 -21 1 -4 2 -7 3 -7 1 0 0 -3 -4 -6 l-5 -6 -49 0 c-43 -1 -50 -1 -56
-5 -8 -4 -18 -14 -18 -17 -1 -15 -1 -20 2 -24 2 -3 4 -6 4 -7 0 -5 27 -29 34
-30 11 -2 22 -3 30 -1 24 7 39 1 44 -17 7 -29 -18 -47 -45 -34 -14 7 -30 13
-37 13 -8 0 -13 -3 -24 -13 -7 -8 -8 -9 -8 -19 0 -10 1 -12 7 -18 3 -3 7 -6 9
-6 1 0 2 -1 2 -2 0 -1 1 -1 3 -1 11 -1 37 -6 43 -8 4 -2 10 -4 13 -5 l6 -2 -6
0 c-7 0 -17 -9 -22 -21 -4 -10 -5 -130 -1 -144 4 -11 15 -21 29 -27 17 -7 21
-11 21 -23 0 -10 -2 -13 -18 -25 -5 -3 -12 -10 -16 -14 -16 -20 -18 -33 -18
-112 0 -77 0 -77 32 -94 12 -7 16 -12 13 -20 -1 -2 -3 -4 -5 -5 -2 -1 -3 -2
-3 -3 1 -2 1 -9 1 -18 0 -8 0 -14 1 -14 1 1 4 0 8 -1 4 -2 10 -3 14 -3 6 0 7
-1 5 -2 -2 -1 -1 -2 4 -3 3 -1 7 -3 8 -4 2 -3 15 -3 81 -3 l79 0 0 5 0 5 -82
1 -83 0 84 1 83 0 0 -7 0 -7 -82 0 c-95 0 -88 1 -109 -21 -7 -7 -16 -15 -19
-17 -12 -7 -20 -15 -20 -19 0 -2 -1 -5 -2 -6 -1 -1 -3 -5 -4 -9 -3 -9 -10 -16
-14 -16 -6 0 -25 -8 -31 -12 -17 -14 -17 -53 0 -72 15 -16 15 -16 132 -16 112
0 112 0 121 11 5 6 8 19 8 29 0 4 1 11 2 15 1 4 2 12 3 16 4 25 8 34 14 29 4
-4 5 -20 6 -63 1 -29 2 -39 4 -44 3 -5 3 -12 3 -31 0 -14 -1 -29 -1 -34 0 -9
8 -32 11 -32 4 1 8 0 10 -2 5 -5 7 -5 56 -6 45 -1 47 -1 53 -5 4 -3 8 -5 9 -5
2 0 2 -1 0 -2 -7 -6 -8 -16 -6 -35 0 -2 2 -5 10 -15 3 -3 10 -18 10 -22 0 -5
-9 -22 -14 -28 -8 -9 -9 -7 -11 19 -1 8 -1 15 -2 17 -2 10 -4 14 -5 14 -1 0
-2 1 -2 3 0 8 -33 27 -46 27 -15 0 -33 -14 -43 -34 -11 -21 -24 -34 -32 -34
-1 0 -4 2 -6 5 -4 6 -3 34 2 63 3 14 -1 29 -7 37 -9 10 -19 11 -46 8 -23 -3
-21 -3 -45 12 -9 6 -14 7 -20 7 -19 -1 -28 -13 -46 -60 -5 -12 -10 -26 -12
-29 -1 -3 -4 -9 -5 -13 -1 -4 -3 -8 -4 -9 -1 -1 -4 -9 -8 -17 -20 -52 -67
-142 -115 -222 -8 -15 -1 -38 14 -47 16 -10 25 -12 35 -9 13 4 15 10 15 39 0
23 0 23 6 28 8 7 28 7 36 0 l6 -5 1 -32 c1 -30 1 -32 6 -37 19 -22 43 -33 81
-41 18 -4 25 -8 25 -15 0 -7 13 -32 19 -38 8 -8 20 -9 33 -3 11 6 15 12 47 81
9 18 55 127 55 128 0 1 2 5 4 10 2 5 13 31 23 57 11 27 21 53 23 59 2 5 4 11
4 13 0 3 1 4 2 3 1 -1 3 0 4 1 2 2 2 2 2 -1 0 -2 1 -3 2 -2 0 0 1 -3 1 -8 1
-18 8 -33 22 -43 18 -14 18 -19 -2 -38 -9 -9 -17 -26 -14 -33 0 -1 1 -8 2 -14
3 -23 24 -80 33 -87 1 -1 2 -2 2 -3 2 -4 12 -17 23 -28 12 -12 22 -18 50 -28
19 -7 22 -8 44 -8 27 0 29 -1 39 -15 13 -16 35 -24 71 -27 8 0 16 -1 17 -2 1
-1 4 0 7 1 4 2 5 4 5 21 l0 18 -6 3 c-19 8 -15 36 5 36 9 0 18 -5 21 -12 1 -3
4 -7 7 -10 2 -3 5 -7 6 -9 0 -1 3 -4 4 -4 6 -3 29 -24 29 -27 0 -2 14 -9 16
-9 1 1 5 1 11 1 l9 1 4 13 c3 8 4 16 3 18 -4 17 -7 27 -11 31 -2 3 -6 9 -8 14
-4 8 -4 9 -1 21 2 8 4 22 4 36 1 22 1 23 7 29 5 5 7 6 16 6 15 0 23 -8 23 -23
0 -9 -5 -20 -11 -24 -6 -4 -15 -23 -14 -31 0 -13 3 -18 19 -30 15 -11 19 -16
19 -25 0 -9 5 -29 9 -35 2 -3 7 -7 12 -9 l10 -4 175 1 c103 0 180 1 187 3 7 1
17 2 22 3 6 1 14 2 19 3 5 1 12 3 15 3 30 6 98 40 102 53 3 8 0 31 -5 34 -6 4
-10 17 -9 27 1 13 11 34 19 40 5 5 21 7 23 3 2 -3 29 -1 35 2 7 4 19 1 22 -6
13 -27 54 -138 57 -154 2 -6 8 -8 24 -8 14 0 13 -1 25 15 4 4 7 5 14 5 7 0 12
-1 27 -9 6 -3 25 -3 28 0 3 2 4 7 6 22 0 3 0 8 -2 11 -3 9 -3 14 0 17 9 9 18
4 24 -12 5 -12 15 -20 26 -22 10 -2 29 6 42 18 16 15 21 17 39 19 27 2 35 7
38 25 1 8 1 11 -7 30 -11 28 -11 27 -28 27 l-15 0 -8 -9 c-8 -8 -10 -9 -17 -9
-10 0 -13 3 -26 21 -5 7 -11 13 -12 13 -2 0 -3 1 -3 2 0 1 -2 2 -4 3 -4 1 -12
13 -12 18 0 4 6 10 11 11 4 0 14 -5 24 -15 8 -8 21 -15 34 -19 6 -1 9 -1 13 2
7 4 8 6 8 22 0 12 0 14 -15 45 -11 24 -19 41 -25 53 -4 9 -10 16 -17 19 -6 3
-26 3 -29 1 -7 -6 -20 -36 -20 -46 0 -11 -17 -18 -30 -11 -7 4 -10 12 -11 36
-1 23 -2 26 -5 25 -2 -1 -7 1 -12 4 -5 3 -13 7 -17 8 -9 3 -13 9 -13 19 0 15
12 20 32 14 14 -4 18 -6 17 -11 0 -2 0 -4 1 -5 3 -2 3 -11 0 -11 -3 0 -3 -15
0 -17 1 -1 3 0 3 3 1 4 3 5 8 4 1 0 1 1 0 2 0 1 0 3 2 4 2 1 2 3 2 5 -1 1 -1
1 0 0 2 0 3 0 4 2 0 2 3 2 9 1 8 -1 8 -1 8 4 0 4 -1 6 -3 6 -5 0 -11 11 -8 14
1 1 1 2 0 2 -4 0 -1 12 3 17 2 2 4 5 4 7 0 10 18 31 30 34 11 3 15 6 43 41 23
28 24 30 25 40 2 26 -5 34 -28 32 -8 0 -17 -2 -21 -4 -16 -8 -36 -2 -46 13
-11 15 -10 17 4 24 12 6 15 6 24 5 6 -1 13 -2 15 -3 3 -2 8 -2 15 -1 5 1 10 2
11 2 2 0 11 7 11 9 0 0 1 3 2 6 3 7 3 9 -6 28 -12 24 -37 36 -56 27 -10 -5
-31 -36 -31 -44 0 -3 -1 -5 -2 -5 0 0 -1 -2 -1 -4 -1 -6 -7 -12 -11 -12 -2 0
-14 -5 -27 -12 -28 -14 -37 -16 -44 -10 -11 11 -3 21 23 31 10 3 20 8 23 11 3
3 8 4 13 4 9 0 13 4 11 10 -1 2 0 8 1 14 2 8 2 11 -3 26 -7 23 -7 24 -6 31 1
4 3 8 7 9 5 4 53 11 66 10 6 0 22 -8 22 -12 0 0 3 -4 7 -7 10 -8 29 -8 37 0
23 22 10 82 -18 91 -4 1 -13 3 -20 5 -29 8 -27 23 4 27 10 1 21 3 25 5 18 9
28 55 16 80 -5 10 -6 11 -20 18 -8 4 -16 7 -19 7 -2 0 -7 3 -10 6 -6 5 -6 7
-6 22 0 9 -1 26 -2 38 -4 33 0 41 23 43 12 1 17 3 10 3 -4 0 -4 1 -3 14 0 12
0 14 -3 15 -3 0 -2 1 2 1 14 1 26 13 18 18 -1 1 -1 2 1 2 2 0 5 2 6 4 1 2 3 5
5 6 2 3 6 12 8 20 2 8 4 82 3 84 -1 2 -9 2 -20 2 -16 0 -18 0 -19 3 0 3 -1 3
-1 -1 -2 -23 -9 -30 -32 -31 -12 -1 -14 0 -18 3 -2 3 -4 5 -4 6 0 0 -1 2 -1 4
0 2 -1 5 -2 8 -1 9 -9 24 -14 30 -11 12 -12 12 -105 12 -82 0 -85 0 -95 -4
-10 -5 -17 -10 -17 -13 0 -1 -4 -6 -8 -11 -7 -8 -10 -10 -14 -10 -7 0 -14 6
-14 13 0 8 13 23 20 23 2 0 2 1 0 2 -2 1 -1 2 4 2 7 0 23 7 19 8 -1 1 32 1 73
2 78 2 80 2 80 4 0 1 1 2 3 2 4 0 14 12 18 21 2 6 3 14 3 34 0 27 0 27 6 33 4
4 6 5 9 4 2 -1 12 -3 22 -5 29 -6 45 1 62 26 4 7 10 15 13 19 3 4 11 14 17 23
12 16 14 19 23 29 2 3 9 13 15 23 7 10 12 18 13 19 5 2 0 35 -6 37 -1 1 -5 2
-8 4 -3 1 -9 3 -14 4 -17 2 -126 22 -153 28 -29 6 -39 14 -29 21 3 1 11 8 18
15 12 13 23 21 44 33 7 4 21 16 33 27 l21 20 1 13 c1 12 1 14 -5 26 -9 17 -9
29 0 45 6 11 6 13 5 25 -1 16 0 15 -24 31 -19 13 -28 18 -36 21 -6 2 -107 0
-113 -2 -10 -4 -12 -8 -12 -22 0 -9 -1 -14 -2 -15 -2 0 -1 -1 1 -1 10 0 16
-30 9 -45 -5 -12 -18 -17 -33 -12 -11 4 -17 10 -20 22 -5 16 1 35 10 35 3 0 3
1 2 2 -2 0 -3 7 -3 15 -1 12 -2 14 -6 18 -13 9 -41 4 -55 -11 -15 -16 -23 -17
-69 -9 -9 2 -23 10 -26 15 -3 8 -4 22 -1 23 4 1 4 11 1 22 -4 14 -17 22 -41
26 -3 0 -23 4 -43 8 -20 4 -39 7 -42 8 -3 0 -15 2 -27 5 -24 5 -30 5 -43 1z
m140 -104 c6 -4 10 -11 10 -17 0 -2 0 -14 2 -26 3 -35 -2 -48 -16 -48 -4 0 -5
-1 -2 -1 4 -1 4 -2 4 -16 -1 -11 0 -15 2 -15 1 0 2 -1 2 -2 0 -4 17 -6 43 -6
25 1 27 1 41 8 9 4 19 8 22 9 10 2 23 -4 25 -10 0 -3 5 -8 10 -11 7 -6 8 -8 8
-13 0 -8 7 -13 24 -14 12 -2 16 -4 20 -11 5 -10 6 -19 1 -22 -8 -4 -26 -8 -49
-10 -24 -2 -33 -4 -33 -6 0 -1 -1 -2 -2 -1 -1 1 -7 -4 -13 -10 l-11 -11 0 -14
c1 -12 2 -17 7 -27 11 -21 7 -35 -9 -35 -11 0 -15 6 -17 23 -2 28 -9 37 -34
45 -18 6 -22 11 -20 28 4 40 -1 49 -36 61 -17 6 -28 6 -52 0 -14 -4 -23 -2
-48 12 -18 10 -23 16 -23 28 0 15 11 20 42 16 10 -2 23 -3 27 -2 4 0 10 0 13
-1 2 -1 4 -1 3 0 0 1 2 1 5 0 4 0 6 0 6 2 0 1 1 2 2 1 0 0 3 1 5 2 3 3 3 3 0
3 -5 0 -8 10 -5 18 1 2 2 14 3 26 2 36 4 44 15 49 8 3 21 2 28 -2z m-970 -45
c5 -6 5 -12 0 -18 -7 -8 -22 -2 -22 9 0 11 15 17 22 9z m463 -21 c12 -7 14
-33 3 -43 -8 -9 -18 -9 -48 0 -32 9 -38 13 -33 21 2 3 6 6 10 8 3 1 9 4 13 6
4 2 8 3 9 3 0 0 5 2 10 4 14 6 27 7 36 1z m-282 -57 c7 -7 7 -18 0 -24 -5 -5
-7 -5 -28 -5 -21 0 -23 0 -28 5 -7 6 -7 16 0 22 10 9 47 11 56 2z m1131 -16
c5 -5 5 -11 0 -16 -10 -10 -27 5 -16 16 4 4 12 4 16 0z m-756 -45 c20 -15 23
-18 56 -51 18 -18 34 -32 38 -33 4 -2 10 -6 13 -10 4 -4 7 -6 8 -6 0 1 3 0 5
-1 3 -1 4 -1 3 0 0 1 1 1 2 1 3 0 4 -3 4 -16 0 -8 0 -15 1 -14 2 0 32 -15 38
-20 5 -4 8 -5 14 -4 18 2 23 5 33 20 4 6 10 11 13 13 30 11 34 12 48 25 13 12
15 13 24 13 14 0 20 -6 20 -20 0 -11 -5 -18 -18 -25 -8 -3 -26 -19 -26 -23 0
-1 -1 -2 -2 -2 -1 0 -3 -3 -5 -7 -3 -5 -8 -9 -19 -15 -13 -7 -34 -26 -34 -30
0 -2 -8 -14 -19 -28 -6 -9 -7 -25 -2 -32 6 -6 23 -8 33 -3 4 2 14 7 23 12 17
8 27 17 34 29 10 16 21 20 35 15 3 -2 9 -3 12 -2 3 0 8 1 12 1 7 1 17 9 28 24
6 8 14 8 34 -2 17 -9 26 -10 45 -5 16 4 26 3 57 -7 l25 -8 18 4 c10 2 21 5 24
5 7 2 21 -4 21 -8 0 -2 2 -4 4 -5 3 -2 3 -2 0 -2 -9 0 2 -15 23 -31 7 -5 10
-17 5 -17 -2 0 -1 -1 1 -2 8 -5 -1 -14 -12 -13 -16 2 -23 5 -25 10 -2 3 -3 5
-4 5 -1 0 -3 4 -5 8 -5 13 -12 21 -22 26 -8 4 -12 4 -57 4 -61 0 -66 -2 -69
-25 -1 -6 -2 -11 -3 -12 -2 -2 -2 -3 1 -3 4 0 6 -7 2 -13 -6 -10 -22 -2 -18 9
1 2 3 4 4 4 3 0 3 1 1 3 -1 1 -2 6 -3 12 -2 17 -11 24 -31 25 -7 0 -14 1 -17
2 -7 2 -17 -3 -29 -14 -5 -4 -15 -12 -23 -16 -13 -7 -25 -18 -25 -22 0 -4 0
-5 -2 -7 -2 -2 -2 -3 -1 -3 1 0 0 -2 -2 -5 -5 -11 -1 -49 6 -57 4 -4 24 -14
35 -18 7 -2 33 -1 49 1 19 4 25 2 48 -13 19 -13 22 -15 25 -28 4 -16 -3 -31
-21 -39 -4 -2 -9 -7 -12 -11 -3 -4 -7 -8 -8 -8 -1 -1 -1 -2 -1 -3 1 -1 0 -5
-1 -9 -2 -4 -4 -10 -4 -14 -1 -10 -5 -18 -9 -18 -2 0 -2 0 0 -2 1 -1 2 -4 2
-8 -1 -14 0 -18 4 -20 4 0 1 -2 -10 -4 -14 -4 -16 -4 -30 0 -11 2 -14 4 -10 4
4 2 5 6 4 20 0 4 1 7 2 8 2 2 2 2 0 2 -8 0 -11 23 -6 36 2 4 6 8 13 12 15 8
17 12 17 30 0 13 0 14 -4 15 -2 1 -4 2 -4 3 0 2 -13 5 -33 9 -10 1 -24 5 -32
8 l-14 6 -76 0 c-54 1 -78 1 -84 -1 -9 -3 -19 -11 -15 -13 1 -1 2 -6 2 -12 0
-10 0 -11 -4 -11 -3 0 -3 -1 2 -2 10 -2 15 -9 15 -24 0 -19 -8 -27 -27 -27
-19 0 -27 8 -27 28 0 14 5 21 15 23 5 1 5 2 3 2 -5 0 -5 1 -5 11 0 6 1 11 2
12 4 2 -6 10 -15 13 -6 2 -18 2 -38 1 -34 -1 -35 -1 -35 -3 0 -1 -1 -2 -3 -2
-4 0 -14 -12 -18 -21 -4 -11 -4 -95 0 -106 4 -9 14 -21 18 -21 2 0 3 -1 3 -2
0 -1 1 -1 3 -1 6 0 27 -6 34 -9 4 -2 10 -4 12 -5 3 0 3 -1 -1 -1 -5 0 -9 -4
-14 -16 -4 -8 -4 -13 -4 -104 0 -53 1 -96 2 -96 1 0 2 -3 3 -6 1 -7 11 -18 24
-24 16 -8 19 -14 18 -31 -1 -19 5 -36 16 -46 5 -4 9 -7 10 -7 1 0 9 -16 10
-22 0 -2 -1 -5 -2 -8 -5 -9 3 -32 13 -37 14 -7 22 -5 28 6 3 4 6 27 4 27 -3 0
-6 14 -4 21 4 9 9 13 20 13 14 0 20 -6 20 -20 0 -6 -1 -11 -3 -13 -2 -1 -2 -3
-2 -3 0 -1 1 -7 1 -13 1 -11 0 -14 -4 -19 -3 -3 -6 -6 -7 -6 -1 0 -5 -2 -9 -4
-7 -5 -7 -5 -2 -6 5 -2 5 -2 -1 -2 -3 0 -14 -3 -26 -7 -11 -4 -32 -10 -46 -14
-27 -7 -41 -14 -43 -19 -7 -28 -13 -28 -40 0 -26 28 -27 29 -28 91 -1 36 -2
54 -4 58 -3 7 -14 19 -17 19 -2 0 -3 1 -3 2 0 1 -1 2 -1 2 -1 -1 -6 0 -11 1
-5 0 -18 1 -29 2 -21 1 -31 3 -31 7 0 1 -37 2 -112 2 l-112 0 0 -5 0 -5 118
-1 117 0 -118 -1 -119 0 0 7 0 7 113 0 c74 0 115 1 117 2 3 2 4 4 4 18 0 11 1
16 3 16 1 0 0 1 -3 2 -8 3 -14 14 -14 26 0 20 12 56 24 70 7 8 10 29 6 39 -9
22 -8 31 0 58 6 17 4 26 -10 50 -8 13 -8 23 0 36 16 28 15 19 16 103 0 65 0
76 -3 83 -5 11 -14 21 -22 21 l-6 0 6 2 c3 1 8 2 10 4 4 2 34 8 41 9 1 0 2 0
2 1 0 1 1 2 3 2 5 0 22 24 21 30 0 0 0 0 0 1 0 1 1 2 1 3 0 1 1 3 1 5 0 1 2 4
4 6 2 2 4 5 5 7 0 2 1 2 1 0 0 -5 9 -22 16 -29 10 -11 30 -12 48 -3 17 9 34
10 46 4 4 -2 8 -5 8 -6 0 -5 15 -11 26 -10 13 0 18 3 24 14 11 24 8 33 -24 66
-25 26 -28 30 -28 44 0 9 4 22 9 24 0 0 1 5 1 11 0 8 -1 11 -5 15 -3 3 -5 4
-4 3 1 -2 0 -3 -2 -2 -2 1 -3 2 -3 3 0 3 -37 -2 -91 -13 -17 -3 -28 -3 -50 1
-33 6 -98 6 -110 0 -8 -3 -15 -10 -16 -16 0 -2 -1 -4 -2 -6 0 -2 -2 -11 -3
-20 -2 -22 -6 -26 -25 -26 -25 0 -31 15 -19 50 5 17 7 28 12 74 1 13 -3 27 -9
30 -1 1 -1 2 2 2 1 0 3 1 3 2 0 6 12 7 80 8 73 2 74 2 74 4 0 1 1 2 3 2 1 0 7
4 12 10 4 5 11 11 14 12 3 2 5 3 5 5 0 1 2 0 4 -3 1 -2 9 -8 16 -13z m-665 -9
c7 -6 7 -19 1 -25 -7 -7 -19 -7 -27 1 -3 3 -6 6 -6 8 0 2 1 4 1 6 0 2 2 6 4 9
6 7 20 7 27 1z m344 0 c11 -2 21 -10 21 -17 1 -27 -10 -41 -31 -40 -21 1 -32
17 -27 38 5 17 16 23 37 19z m-95 -11 c7 -5 11 -9 9 -9 -1 0 -3 -3 -5 -6 -4
-10 -19 -43 -26 -56 -6 -13 -17 -20 -31 -20 -15 0 -36 -8 -47 -17 -11 -9 -22
-14 -28 -12 -3 0 -15 -1 -27 -2 -12 -2 -24 -4 -26 -4 -9 -1 -15 17 -15 40 0
16 3 23 11 23 5 0 12 -9 14 -20 1 -6 2 -6 3 -3 2 3 5 3 20 3 l17 -1 1 16 c0
16 -3 30 -10 46 -2 5 -4 10 -4 11 0 1 -1 2 -2 2 -2 0 4 7 9 10 3 1 26 2 68 2
57 0 65 0 69 -3z m1083 -5 c7 -8 8 -20 2 -24 -7 -6 -20 -5 -26 2 -3 4 -5 7 -5
9 0 1 -1 4 -1 6 -3 10 23 15 30 7z m-476 -37 c7 -2 8 -8 4 -13 -7 -6 -44 -14
-63 -12 -2 0 -3 1 -3 3 0 2 0 2 1 2 1 -1 2 0 2 1 0 2 25 17 31 19 6 1 23 1 28
0z m-868 -34 c3 -5 3 -5 0 -10 -2 -3 -5 -5 -7 -5 -2 0 -5 2 -7 5 -3 5 -3 5 0
10 2 3 5 5 7 5 2 0 5 -2 7 -5z m1327 -20 c10 -5 20 -33 17 -49 -4 -19 -12 -24
-38 -22 -12 0 -20 7 -21 17 0 4 -1 12 -2 17 -2 12 -1 22 3 30 6 11 27 14 41 7z
m-1165 -89 c16 -7 15 -50 -2 -50 -4 0 -5 -1 -3 -1 1 -1 2 -6 2 -16 0 -9 1 -15
2 -15 1 0 2 -1 2 -3 0 -4 22 -6 30 -3 15 5 25 25 24 48 -1 20 12 28 37 24 7
-1 17 -2 24 -3 7 -1 14 -2 17 -2 23 -4 39 -3 51 1 29 11 43 6 43 -14 0 -5 -1
-11 -3 -13 -3 -4 -2 -17 1 -29 2 -7 3 -8 9 -8 5 -1 5 -1 1 -1 -6 -2 -29 -9
-43 -15 -25 -9 -48 -31 -54 -50 -1 -2 -4 -6 -8 -8 -7 -4 -7 -4 -12 -1 -6 4 -8
6 -27 26 -10 11 -15 12 -30 9 -17 -3 -21 -8 -19 -21 2 -13 5 -20 14 -32 10
-13 10 -24 1 -32 -7 -5 -23 -13 -28 -13 -2 0 -2 0 0 -2 2 -1 3 -7 4 -16 l0
-15 10 -4 c8 -3 17 -3 64 -3 l55 1 5 -5 c3 -4 5 -9 5 -17 2 -28 9 -36 41 -46
42 -12 46 -13 59 -7 9 5 28 10 35 10 7 0 14 -8 14 -15 0 -12 -14 -21 -42 -27
-10 -2 -14 -2 -25 1 -24 6 -29 7 -48 10 -10 1 -22 2 -28 2 -5 -1 -12 -1 -14
-1 -1 0 -3 -1 -2 -2 0 -1 -1 -2 -4 -4 -5 -2 -19 1 -19 4 0 1 -2 2 -5 3 -8 2
-15 20 -11 30 2 5 -5 27 -10 30 -3 3 -16 4 -23 2 -4 -1 -11 -14 -11 -21 0 -2
-1 -4 -2 -5 -1 -1 -1 -2 0 -4 3 -4 0 -16 -6 -22 -5 -5 -7 -6 -15 -6 -10 0 -21
5 -24 9 -2 4 -1 19 1 20 1 0 -1 6 -3 13 -10 27 -11 27 -81 27 -30 0 -59 1 -64
2 -11 2 -24 8 -24 10 0 1 -3 5 -8 10 -7 8 -7 8 -20 8 -13 0 -22 -3 -22 -9 0
-4 -14 -10 -23 -10 -20 -1 -33 14 -39 43 -4 17 0 22 15 22 15 0 47 -11 47 -17
0 -1 2 -4 5 -7 2 -3 5 -7 5 -8 1 -2 6 -2 16 -2 9 0 14 -1 14 -2 0 -2 3 0 6 4
3 4 8 7 12 8 13 2 70 -9 76 -16 5 -5 12 -8 22 -8 9 0 11 1 17 7 16 17 17 18
16 31 -2 20 -9 29 -26 34 -12 3 -18 13 -16 26 1 8 6 20 9 20 2 0 0 20 -2 27
-4 8 -11 12 -25 13 -16 0 -30 3 -37 7 -3 2 -8 3 -10 3 -4 0 -4 1 1 2 10 2 14
6 24 18 6 7 14 17 19 23 11 14 11 14 13 19 1 2 2 4 3 4 1 0 3 4 5 8 6 14 23
19 42 12z m-155 -7 c6 -3 7 -6 10 -17 2 -7 -1 -26 -4 -26 -2 0 0 -22 3 -28 2
-4 5 -6 8 -6 4 0 4 -1 0 -1 -6 -2 -7 -4 -8 -10 -1 -4 0 -5 6 -5 l6 0 -6 -2
c-4 -1 -8 -4 -9 -7 -4 -6 -8 -25 -7 -28 1 -1 1 -5 1 -10 0 -15 -14 -21 -33
-15 -7 2 -31 26 -31 30 0 4 -18 24 -24 27 -3 2 -8 3 -10 3 -5 0 -5 1 0 2 11 3
14 5 13 6 -1 1 0 2 1 2 3 0 2 6 -1 7 -3 0 -2 1 1 1 7 0 8 3 9 18 1 6 2 12 2
13 0 2 -1 4 -3 6 -10 9 -3 19 25 32 28 14 37 15 51 8z m402 -147 c10 -11 -8
-40 -26 -44 -9 -2 -20 1 -24 6 -5 6 -5 24 0 30 9 11 43 16 50 8z m1036 -93 c4
-2 10 -3 13 -3 3 -1 4 -1 4 -2 -1 -1 0 -2 2 -3 2 0 3 -2 2 -3 -1 -1 0 -2 1 -3
3 -2 5 -22 2 -32 -4 -19 0 -41 7 -41 3 0 3 -1 2 -2 -4 -2 -5 -18 -1 -18 2 0 1
-1 -1 -2 -3 -1 -10 -7 -16 -13 -15 -14 -17 -14 -33 1 -7 7 -13 12 -14 12 -1 0
-2 1 -2 2 1 2 -2 12 -4 12 -1 0 -1 1 -1 3 1 2 0 3 -2 3 -3 0 -2 1 2 2 3 1 5 3
5 5 0 1 1 4 1 6 4 14 3 17 -3 23 -3 4 -6 8 -6 9 0 1 -1 1 -2 0 -1 -1 -3 0 -3
2 -1 2 -3 5 -6 7 -3 3 -3 4 0 7 2 2 5 6 8 9 5 6 15 14 25 18 9 5 9 5 20 1z
m-98 -42 c1 -2 4 -3 5 -3 3 0 5 -4 3 -9 -2 -7 6 -30 12 -32 3 -2 4 -3 2 -3 -2
0 -8 -2 -13 -4 -5 -3 -14 -5 -19 -5 -5 0 -14 2 -19 5 -5 2 -11 4 -13 4 -2 0
-2 1 1 2 5 2 10 11 12 20 1 4 2 7 3 8 1 0 1 2 0 5 -2 11 19 21 26 12z m-428
-38 c25 -15 26 -16 49 -17 16 -1 25 -3 31 -6 5 -2 11 -4 13 -5 2 0 2 -1 -2 -1
-4 0 -7 -1 -7 -1 1 -1 0 -4 -1 -6 -2 -2 -4 -10 -7 -17 -4 -11 -5 -14 -13 -18
-10 -6 -25 -6 -46 -1 -21 5 -28 10 -37 28 -2 3 -6 8 -9 12 -6 7 -13 20 -12 22
1 0 0 1 -2 1 -3 0 24 16 28 16 1 0 7 -3 15 -7z m-89 -8 c5 -2 11 -6 14 -10 3
-3 6 -7 7 -8 2 -2 1 -3 -1 -3 -2 0 -7 -3 -11 -7 -13 -13 -18 -15 -29 -15 -11
0 -16 2 -29 15 -4 4 -9 7 -11 7 -2 0 -3 1 -1 3 1 1 4 5 7 8 9 12 34 16 54 10z
m-670 -25 c3 -3 3 -4 -3 -8 l-6 -4 -4 5 c-4 4 -4 4 -1 8 5 4 10 4 14 -1z m903
-38 c6 -6 10 -23 9 -33 -1 -17 -12 -21 -31 -12 -7 4 -19 22 -17 26 1 0 0 2 -1
4 -3 4 0 13 7 17 10 7 27 6 33 -2z m-730 -4 c4 -4 5 -6 4 -17 0 -7 -1 -16 -1
-22 0 -8 -1 -11 -6 -16 l-6 -6 -28 0 -28 0 -19 -9 c-25 -13 -32 -13 -54 1 -4
3 -24 1 -30 -2 -2 -2 -7 -8 -11 -13 -14 -22 -32 -22 -47 0 -3 6 -9 12 -13 14
-3 2 -7 4 -8 5 -3 2 -10 4 -20 4 -6 0 -9 1 -14 6 l-6 6 6 6 c5 5 7 6 17 5 8 0
17 1 32 6 25 7 29 7 54 0 20 -6 20 -6 72 -6 48 0 53 0 61 4 9 4 17 12 23 24 2
5 5 9 7 9 2 1 3 3 3 4 0 4 6 3 12 -3z m997 -40 c10 -9 3 -26 -10 -26 -8 0 -15
7 -15 15 0 13 16 20 25 11z m-1455 -6 c5 -6 5 -12 0 -18 -7 -8 -22 -2 -22 9 0
11 15 17 22 9z m588 -10 c5 -5 5 -11 0 -16 -10 -10 -27 5 -16 16 4 4 12 4 16
0z m-67 -38 c7 -6 7 -19 1 -25 -11 -11 -30 -4 -30 11 0 16 18 24 29 14z m466
-5 c14 -14 -2 -38 -20 -30 -19 8 -13 35 7 35 6 0 9 -1 13 -5z m173 -15 c5 -2
11 -4 13 -4 3 0 3 -1 -1 -2 -12 -3 -24 -22 -24 -36 0 -16 8 -30 25 -41 16 -11
17 -12 17 -38 l0 -21 7 -7 c10 -10 14 -20 11 -26 -1 -3 -3 -5 -4 -6 -2 0 -14
-4 -29 -9 -14 -4 -26 -8 -28 -8 -3 0 -10 8 -10 12 -1 4 7 10 12 10 3 0 5 1 6
2 1 1 2 2 3 1 2 -1 4 9 4 25 0 16 -2 17 -17 15 -5 0 -9 -1 -10 -1 -1 0 -1 -1
1 -2 3 -2 3 -2 0 -2 -2 0 -7 -4 -11 -9 -5 -5 -8 -9 -7 -9 0 0 -1 -2 -4 -4 -2
-2 -4 -5 -4 -7 0 -2 -1 -3 -3 -3 -2 0 -3 -1 -3 -2 0 -1 -2 -2 -4 -3 -3 0 -7
-4 -9 -7 -4 -6 -4 -6 -11 3 -3 3 -3 17 -4 89 l-1 85 6 6 6 6 32 -1 c27 -1 33
-2 41 -6z m299 4 c20 -5 20 -26 1 -56 -7 -11 -10 -40 -6 -54 5 -15 12 -20 44
-35 8 -3 10 -10 9 -25 0 -13 -4 -18 -16 -24 -22 -10 -29 -14 -38 -23 -16 -16
-20 -18 -35 -17 -5 0 -7 2 -12 9 -14 20 -12 19 -33 19 l-18 -1 0 7 c1 4 4 19
9 34 4 14 8 28 9 31 0 2 1 6 2 8 3 12 11 49 12 59 1 6 2 13 2 15 4 19 -5 43
-17 43 -5 1 -5 1 0 1 3 1 7 3 10 5 2 1 8 3 12 4 11 2 56 2 65 0z m-1119 -23
c3 -2 9 -7 14 -12 10 -11 25 -20 38 -24 12 -3 16 -10 11 -18 -3 -5 -11 -7 -14
-4 0 1 -2 2 -4 2 -1 0 -6 2 -11 3 -12 3 -27 3 -35 -1 -11 -5 -28 -2 -35 6 -9
10 -9 32 0 42 7 8 24 11 36 6z m1232 -27 c1 0 5 -3 8 -6 5 -5 6 -7 6 -18 0
-11 -1 -13 -6 -18 -6 -6 -7 -6 -18 -6 -11 0 -12 0 -18 6 -5 5 -6 7 -6 17 0 14
3 20 12 24 5 2 8 2 22 1z m-574 -16 c1 0 5 -3 8 -6 5 -5 6 -7 6 -18 0 -11 -1
-13 -6 -18 -6 -6 -7 -6 -18 -6 -11 0 -12 0 -18 6 -5 5 -6 7 -6 17 0 14 3 20
12 24 5 2 8 2 22 1z m302 -44 c9 -5 20 -33 16 -43 -5 -13 -25 -15 -43 -4 -11
6 -14 12 -13 28 2 16 7 21 24 21 7 0 14 -1 16 -2z m-1051 -44 c4 -6 4 -24 -1
-30 -7 -9 -27 -9 -34 0 -5 6 -5 24 0 30 7 9 27 9 35 0z m414 -18 c3 -3 5 -6 5
-7 0 -4 12 -27 18 -34 13 -15 14 -18 9 -23 -4 -4 -6 -4 -17 -4 -8 1 -13 2 -15
5 -14 13 -14 13 -32 13 -15 -1 -17 -1 -19 -5 -3 -8 -10 -11 -28 -13 -10 -1
-25 -4 -33 -6 -20 -5 -23 -5 -28 0 -6 6 -6 15 -1 21 3 4 19 15 21 15 2 0 15
10 19 14 8 8 14 11 27 11 16 -1 35 4 48 11 12 7 20 7 26 2z m-319 -19 c11 -3
35 -3 46 0 6 2 16 3 23 3 28 0 37 -6 37 -26 0 -20 -10 -26 -41 -25 -10 0 -18
2 -23 4 -13 7 -31 11 -49 11 -16 0 -18 0 -22 5 -7 7 -7 19 0 26 5 6 14 6 29 2z
m154 -113 l21 -11 65 -1 c47 -1 66 -2 70 -4 10 -5 15 -8 13 -8 -2 0 -4 -3 -9
-15 -3 -5 -2 -18 2 -32 7 -25 5 -33 -11 -40 -12 -5 -17 -5 -23 0 -6 6 -20 7
-19 1 0 -2 -1 -3 -5 -3 -3 0 -6 0 -6 1 0 2 -9 1 -13 -2 -3 -1 -21 -2 -57 -2
-43 0 -57 -1 -75 -4 -32 -5 -45 -3 -57 11 -2 3 -3 5 -2 5 4 0 6 14 7 36 0 31
1 33 24 44 14 7 21 12 31 22 15 15 17 15 44 2z m805 -19 c3 -3 13 -9 21 -12 8
-4 31 -15 50 -24 35 -17 39 -19 75 -25 14 -2 17 -4 29 -19 7 -10 8 -16 1 -21
-3 -3 -32 -13 -77 -27 -80 -25 -89 -29 -97 -37 -10 -11 -12 -27 -5 -41 12 -26
4 -29 -37 -14 -30 10 -65 24 -86 34 -25 13 -43 9 -53 -11 -5 -10 -2 -27 9 -41
13 -17 14 -24 8 -37 -4 -10 -19 -20 -51 -36 -29 -13 -35 -14 -155 -14 -93 0
-99 0 -120 -4 l-23 -5 -20 5 c-22 4 -53 5 -88 2 -21 -1 -41 4 -53 15 -10 9
-26 15 -42 15 -6 0 -15 0 -19 0 -9 0 -62 17 -67 22 -9 9 -8 33 2 41 9 8 18 8
49 -1 27 -7 28 -8 38 -5 25 6 27 13 28 63 1 35 1 37 6 40 3 2 4 5 4 10 l1 7 1
-8 c1 -5 3 -11 5 -13 3 -3 7 -8 9 -11 11 -14 22 -22 34 -27 20 -10 26 -15 29
-28 10 -33 23 -59 42 -80 16 -18 58 -26 82 -16 7 2 54 32 57 36 1 1 6 4 12 8
6 4 11 8 12 8 0 1 2 2 3 2 1 0 3 1 3 2 1 0 12 8 25 17 42 28 44 31 38 64 -1 7
3 11 16 16 9 3 50 17 55 18 23 6 50 27 53 41 4 14 14 32 20 35 8 4 22 3 37 -3
14 -5 30 -6 39 0 13 8 35 26 54 43 11 10 21 19 23 20 7 4 16 2 23 -4z m-400
-51 c8 -5 15 -11 17 -13 4 -5 10 -30 9 -39 -1 -12 -3 -22 -5 -22 -3 0 -10 -16
-11 -27 -2 -15 -7 -21 -21 -23 -29 -6 -42 0 -34 15 10 16 15 33 14 52 0 10 0
21 0 24 0 11 2 32 4 38 4 8 11 7 27 -5z m-802 -117 c5 -8 1 -16 -8 -16 -9 0
-13 8 -8 16 2 3 5 5 8 5 3 0 6 -2 8 -5z m747 -8 c7 -2 8 -8 2 -20 -3 -6 -6
-13 -8 -17 -3 -10 -22 -16 -33 -10 -8 5 -10 8 -11 21 0 12 0 13 6 19 4 4 8 6
12 6 4 0 9 1 11 2 4 1 12 1 21 -1z m578 -79 c3 -2 5 -8 8 -22 2 -10 6 -24 8
-30 6 -15 7 -32 3 -38 -8 -9 -26 -9 -39 1 -4 3 -8 6 -9 6 -1 0 -5 3 -8 6 -3 3
-8 6 -11 6 -3 1 -6 2 -7 3 -1 1 -6 3 -10 4 -14 4 -18 8 -18 21 1 14 5 19 21
27 7 3 19 9 26 13 15 8 29 9 36 3z m-1371 -67 c3 -2 8 -7 11 -11 3 -4 5 -7 6
-8 2 -1 6 -14 6 -18 0 -10 -15 -15 -37 -11 -19 2 -24 9 -20 29 1 4 2 8 3 8 1
0 2 1 2 3 0 3 14 11 19 11 2 0 6 -1 10 -3z m1249 -1 c4 -3 5 -5 4 -10 -2 -20
-30 -22 -30 -2 0 14 14 21 26 12z m-688 -35 c7 -8 6 -27 -2 -35 -6 -6 -7 -6
-18 -6 -11 0 -12 0 -18 6 -5 5 -6 7 -6 17 0 14 3 20 12 24 9 4 26 0 32 -6z
m624 -4 c5 -4 5 -6 4 -11 -2 -8 -6 -11 -13 -12 -12 -3 -27 5 -27 15 0 13 24
18 36 8z m-796 -3 c5 -6 5 -12 0 -18 -7 -8 -22 -2 -22 9 0 11 15 17 22 9z
m684 -2 c18 -4 26 -17 22 -36 -5 -22 -27 -25 -62 -9 -13 6 -18 12 -18 23 -1
22 18 30 58 22z m408 -19 l-5 -5 -4 4 -5 5 4 4 5 5 4 -4 5 -5 -4 -4z m-645
-10 c16 -10 12 -43 -6 -49 -10 -3 -24 -1 -30 5 -10 8 -11 32 -1 42 7 7 27 8
37 2z m110 -8 c8 -5 10 -10 8 -28 -2 -23 -1 -34 3 -47 3 -9 4 -16 4 -24 -2
-20 -13 -24 -49 -17 -9 1 -22 3 -30 4 -10 1 -15 2 -18 6 -10 10 -4 37 8 37 2
0 8 2 14 5 15 8 19 16 21 39 1 19 3 23 12 27 7 3 21 2 27 -2z"/>
<path d="M1211 3224 c-3 -1 -10 -4 -14 -6 -5 -3 -14 -8 -20 -12 -19 -9 -22
-12 -22 -26 0 -12 1 -13 5 -17 3 -3 7 -5 8 -5 1 0 2 -1 2 -2 0 -2 2 -2 25 -3
19 -1 22 -1 33 4 6 3 15 9 20 14 l9 9 -1 13 c-2 27 -17 37 -45 31z"/>
<path d="M788 2432 c-5 -3 -5 -17 -1 -22 3 -4 5 -4 19 -6 10 0 12 0 14 3 2 5
1 18 -2 22 -1 1 -2 3 -1 3 2 2 -26 2 -29 0z"/>
<path d="M74 2676 c-4 -4 -5 -7 -6 -17 -1 -12 -1 -12 6 -17 7 -5 26 -9 26 -6
0 1 3 4 7 6 6 4 6 6 5 9 -2 2 -3 8 -3 13 0 8 0 10 -5 13 -8 4 -24 4 -30 -1z"/>
</g>
</svg>
