<?xml version="1.0" standalone="no"?>
<!DOCTYPE svg PUBLIC "-//W3C//DTD SVG 20010904//EN"
 "http://www.w3.org/TR/2001/REC-SVG-20010904/DTD/svg10.dtd">
<svg version="1.0" xmlns="http://www.w3.org/2000/svg"
 width="1000.000000pt" height="2850.000000pt" viewBox="0 0 1000.000000 2850.000000"
 preserveAspectRatio="xMidYMid meet">
<metadata>
Created by potrace 1.15, written by Peter Selinger 2001-2017
</metadata>
<g transform="translate(0.000000,2850.000000) scale(0.500000,-0.500000)"
fill="#000000" stroke="none">
<path d="M266 3813 c-1 0 -3 -1 -6 -1 -8 -1 -15 -8 -19 -16 -2 -7 -2 -14 0
-34 1 -9 0 -15 -5 -32 -5 -19 -6 -24 -6 -48 0 -39 5 -50 28 -65 14 -8 16 -12
16 -23 0 -11 -2 -15 -16 -23 -14 -10 -21 -18 -25 -30 -3 -9 -3 -23 -3 -100 l1
-90 -6 -6 -6 -6 -65 0 c-65 0 -76 -1 -76 -3 0 -1 -1 -2 -3 -2 -4 0 -14 -12
-18 -21 -7 -16 -3 -42 10 -63 5 -9 8 -12 18 -17 10 -5 14 -6 32 -6 23 -1 30
-3 33 -13 1 -3 5 -10 8 -17 8 -19 6 -23 -15 -24 -11 -1 -15 -2 -45 -20 -7 -4
-15 -9 -18 -10 -8 -4 -17 -14 -21 -21 -5 -10 -6 -39 -2 -50 4 -10 14 -22 18
-22 2 0 3 -1 3 -2 0 -2 2 -2 53 -3 l48 -1 23 6 22 7 6 -4 c6 -6 7 -16 3 -40
-2 -12 -3 -30 -3 -70 0 -60 0 -62 14 -88 8 -15 8 -19 0 -34 -14 -28 -14 -24
-14 -124 0 -61 1 -94 2 -100 3 -13 12 -18 32 -20 2 0 4 -1 4 -2 0 -1 1 0 2 2
1 2 5 3 9 3 13 0 20 -17 11 -25 -7 -6 -20 -11 -20 -7 0 1 -4 -2 -8 -6 -10 -8
-20 -25 -25 -41 -2 -7 -4 -13 -5 -15 0 -2 -1 -57 -1 -124 -1 -136 -1 -134 12
-147 7 -7 11 -9 18 -9 5 -1 10 0 11 0 2 3 14 -5 14 -10 1 -7 -5 -26 -9 -30 -2
-2 -9 -6 -16 -8 -15 -6 -25 -16 -29 -28 -2 -7 -2 -34 -2 -106 1 -95 1 -97 5
-106 6 -13 18 -22 33 -27 13 -5 14 -5 126 -4 62 0 114 1 116 1 1 0 2 1 2 2 0
1 1 2 3 2 4 0 14 12 18 20 2 6 3 25 3 108 l1 101 -5 11 c-3 6 -9 14 -12 18 -9
9 -14 17 -14 21 0 4 5 12 14 21 14 15 15 20 15 67 0 48 0 49 -16 66 -13 14
-15 18 -15 26 0 8 2 12 15 26 16 17 16 16 17 87 0 44 0 66 -2 72 -3 10 -12 20
-25 27 -15 8 -19 13 -19 21 1 7 10 16 19 19 5 1 12 -5 22 -20 6 -8 23 -23 28
-23 0 0 9 -5 20 -12 11 -7 20 -12 20 -12 1 0 7 -4 15 -9 8 -5 21 -12 29 -14
20 -7 22 -9 29 -19 3 -5 9 -11 13 -14 5 -3 8 -5 9 -6 1 -1 7 -6 15 -11 13 -9
15 -10 26 -10 15 1 19 1 19 3 0 1 1 2 2 2 3 0 9 7 16 20 4 6 8 12 9 14 20 33
51 94 61 119 5 13 1 29 -12 45 -13 15 -9 30 7 30 9 0 31 7 36 12 3 3 7 8 9 12
7 13 36 102 46 141 12 45 16 60 17 65 0 3 3 16 7 30 8 36 5 50 -13 62 -11 7
-24 10 -50 10 -16 1 -22 2 -39 8 -10 3 -44 12 -74 18 -30 6 -55 12 -56 13 0 1
-3 3 -5 4 -3 2 -4 4 -3 8 0 3 1 58 1 121 1 102 1 116 -2 123 -4 9 -14 21 -18
21 -2 0 -3 1 -3 2 0 2 -10 3 -54 3 -43 0 -43 0 -56 -6 -7 -3 -15 -6 -16 -7 -6
-3 -23 -2 -28 2 -2 1 -6 10 -9 19 -3 8 -9 22 -13 30 -6 12 -8 17 -8 25 0 12 1
14 15 31 16 19 15 12 15 189 0 139 0 158 -3 165 -4 9 -14 21 -18 21 -2 0 -3 1
-3 2 0 2 -10 3 -58 3 -45 0 -48 0 -53 -4 -7 -5 -13 -13 -14 -18 0 -2 -2 -7 -3
-10 -2 -3 -3 -6 -3 -7 -1 -4 -6 -10 -9 -10 -3 0 -8 6 -9 10 0 1 -1 4 -3 7 -1
3 -3 8 -3 10 -1 5 -7 13 -14 18 -5 4 -9 4 -41 5 -19 0 -36 0 -36 -1z m189
-299 c10 -6 14 -30 6 -41 -5 -8 -10 -9 -39 -10 -15 0 -31 -1 -35 -3 -24 -7
-40 -1 -45 17 -5 23 8 40 30 38 16 -2 51 -1 57 1 6 2 20 1 26 -2z m-134 -147
c3 -3 3 -3 0 -6 -3 -3 -3 -3 -6 0 -3 2 -3 3 -1 6 4 4 4 4 7 0z m-59 -76 c16
-7 20 -37 7 -48 -12 -11 -34 -11 -43 0 -9 10 -9 32 0 42 7 8 24 11 36 6z m371
-106 c4 -4 5 -7 5 -15 0 -14 -6 -20 -20 -20 -14 0 -20 6 -20 20 0 14 6 20 20
20 8 0 11 -1 15 -5z m-102 -12 c6 -4 6 -6 6 -20 0 -14 0 -16 -6 -20 -4 -4 -7
-5 -18 -5 -11 0 -14 1 -18 5 -6 4 -6 6 -6 20 0 14 0 16 6 20 4 4 7 5 18 5 11
0 14 -1 18 -5z m-339 -5 c7 -7 7 -9 3 -16 -4 -5 -7 -5 -14 -1 -15 8 -19 20 -6
21 3 0 6 1 7 1 2 2 4 1 10 -5z m275 -84 c4 -6 4 -24 -1 -30 -7 -9 -27 -9 -34
0 -5 6 -5 24 0 30 7 9 27 9 35 0z m206 -45 c3 -2 7 -5 9 -6 3 -1 2 -1 0 -1 -4
0 -5 -5 -14 -47 -3 -17 -6 -32 -7 -33 0 -2 -1 -5 -2 -8 0 -3 -3 -16 -7 -29 -3
-13 -7 -25 -7 -27 -2 -7 -10 -35 -18 -59 -22 -64 -44 -115 -71 -164 -4 -7 -7
-14 -8 -17 -1 -4 -2 -4 -2 -1 0 2 -2 5 -4 7 -5 4 -5 4 -6 73 -1 76 -2 80 -13
89 -6 4 -25 12 -30 12 -2 0 -6 2 -8 4 -9 9 -4 30 7 30 6 0 25 8 31 12 2 2 6 8
9 13 4 9 4 11 4 77 l-1 69 6 6 6 6 60 -1 c59 0 60 0 66 -5z m26 -481 c6 -6 7
-20 2 -24 -6 -5 -12 -8 -19 -9 -5 0 -6 1 -10 7 -4 10 -4 19 3 26 5 6 18 6 24
0z m-285 -195 c16 -7 20 -37 7 -48 -12 -11 -34 -11 -43 0 -9 10 -9 32 0 42 7
8 24 11 36 6z m-89 -115 c4 -4 9 -17 9 -20 -1 -4 -10 -10 -14 -10 -2 0 -6 -2
-10 -4 -6 -3 -7 -3 -12 0 -7 4 -8 10 -5 20 5 14 10 18 20 18 6 0 9 -1 12 -4z
m75 -38 c5 -5 6 -7 6 -17 0 -10 -1 -12 -6 -17 -5 -5 -7 -6 -17 -6 -15 0 -21 6
-25 22 -3 13 -2 18 4 19 2 1 4 2 4 3 0 0 6 1 14 2 13 0 14 0 20 -6z m-55 -166
c12 -3 17 -10 17 -23 0 -10 -1 -12 -6 -17 -5 -5 -7 -6 -17 -6 -17 -1 -22 0
-38 2 -18 3 -23 8 -23 22 0 14 5 19 21 21 7 1 13 2 14 2 4 1 24 1 32 -1z"/>
<path d="M1038 3806 c-3 -1 -6 -1 -7 0 0 0 -1 0 -1 -2 0 -1 -1 -2 -3 -2 -4 0
-14 -12 -18 -21 -3 -7 -3 -26 -3 -165 l1 -157 -6 -6 -6 -6 -113 0 c-112 0
-124 0 -124 -3 0 -1 -1 -2 -3 -2 -4 0 -14 -12 -18 -21 -5 -11 -5 -245 0 -256
4 -9 14 -21 18 -21 2 0 3 -1 3 -2 0 -1 1 -2 3 -2 1 0 53 -1 116 -1 l114 -1 5
-5 c5 -6 5 -6 4 -25 -3 -33 -10 -113 -11 -118 0 -3 -2 -16 -4 -30 -9 -73 -26
-160 -43 -221 -9 -35 -24 -83 -30 -100 -14 -37 -22 -61 -24 -64 -1 -2 -3 -7
-5 -11 -11 -27 -18 -43 -39 -86 l-25 -48 2 -12 c0 -6 2 -15 4 -20 8 -23 1 -38
-18 -41 -30 -4 -41 -11 -59 -36 -7 -10 -14 -19 -15 -20 -2 -2 -6 -7 -21 -27
-30 -39 -108 -117 -144 -146 -11 -9 -13 -15 -12 -32 2 -12 4 -15 20 -26 6 -4
13 -9 15 -11 3 -2 7 -6 10 -8 3 -2 7 -5 8 -6 1 -1 11 -10 22 -19 30 -26 92
-86 109 -106 12 -15 16 -18 23 -21 10 -4 20 -4 30 1 14 7 19 20 21 48 1 21 1
23 7 27 5 5 7 5 24 5 30 -1 37 3 59 26 21 23 30 33 42 48 5 6 10 13 12 15 12
14 20 25 42 54 16 21 20 31 28 62 2 9 4 11 23 26 12 9 17 14 25 28 18 31 54
100 63 122 3 7 8 17 11 24 10 22 13 28 30 74 12 29 26 71 32 91 2 7 6 22 10
33 6 22 6 27 0 39 -4 7 -18 16 -32 20 -11 3 -16 10 -16 23 0 10 1 12 6 17 l6
7 18 -2 c39 -3 48 5 55 51 1 9 3 18 4 20 2 3 16 90 21 132 3 28 10 89 11 106
1 9 2 24 3 32 1 20 -2 32 -11 38 -8 5 -23 10 -32 10 -13 0 -20 17 -10 26 2 2
7 4 10 4 18 0 46 14 42 20 -1 1 0 2 1 2 2 0 6 2 9 5 7 5 7 5 51 5 l43 0 5 -5
c5 -5 5 -6 4 -44 -1 -98 -5 -294 -7 -335 -1 -13 -1 -40 -2 -60 -1 -20 -2 -45
-2 -55 0 -10 -1 -30 -2 -44 -1 -25 -2 -37 -4 -79 -2 -30 -3 -46 -4 -62 -3 -27
-2 -49 2 -58 5 -14 9 -28 9 -36 0 -8 -5 -22 -8 -22 -3 0 -8 -14 -8 -22 0 -8 3
-18 6 -20 13 -11 19 -26 16 -40 -2 -12 -9 -17 -22 -19 -6 -1 -13 -2 -15 -2 -2
-1 -6 -2 -9 -2 -3 -1 -13 -5 -22 -10 -20 -10 -30 -13 -54 -14 -9 -1 -25 -3
-35 -5 -23 -5 -27 -5 -51 1 -13 3 -27 5 -47 6 -15 1 -32 2 -36 2 -5 1 -12 0
-17 -2 -8 -4 -20 -15 -20 -21 0 -1 -1 -6 -1 -9 0 -4 4 -17 12 -36 7 -16 17
-43 23 -59 5 -16 12 -34 15 -40 12 -25 14 -29 14 -61 1 -34 1 -37 8 -50 6 -12
9 -16 22 -21 23 -10 41 -1 44 22 2 11 2 11 -1 21 -3 14 5 37 16 47 12 9 34 9
42 0 10 -9 8 -36 -2 -51 -8 -11 -2 -34 11 -40 13 -6 84 -2 145 8 25 4 59 16
82 27 21 10 25 13 49 31 3 2 7 6 8 10 5 8 5 30 0 38 -5 10 -4 24 2 30 4 5 6 5
22 5 32 -1 42 6 54 35 8 21 18 60 24 94 10 56 19 139 24 224 1 10 2 23 2 29 0
6 1 24 2 40 2 33 3 39 8 38 2 0 3 1 3 2 0 5 2 0 3 -6 1 -4 2 -12 3 -19 1 -7 3
-15 3 -18 1 -3 2 -8 2 -11 1 -2 2 -8 2 -13 1 -4 2 -10 2 -13 1 -3 2 -8 2 -11
6 -36 12 -48 31 -53 10 -3 13 -3 36 4 12 3 22 7 24 7 2 0 15 4 29 7 14 3 27 6
29 7 2 0 16 4 31 8 15 4 30 8 33 8 7 2 25 7 36 10 16 6 28 21 28 36 0 7 -9 21
-17 26 -9 6 -17 19 -17 27 0 4 3 13 6 21 3 8 7 17 7 21 1 4 2 8 2 10 1 1 -4
22 -9 46 -6 23 -11 45 -11 48 -1 3 -2 9 -3 13 -1 4 -4 15 -6 24 -4 16 -28 111
-37 145 -2 10 -8 31 -12 46 -20 78 -37 135 -43 143 -11 16 -28 23 -49 18 -6
-2 -29 -7 -49 -11 -20 -4 -37 -8 -38 -9 0 0 -3 2 -6 5 l-5 5 2 111 c4 186 4
217 0 235 -4 19 -12 37 -20 45 -11 12 -12 12 -98 12 -89 0 -90 0 -108 -15 -22
-19 -26 -20 -51 -14 -7 1 -21 3 -32 4 -19 1 -24 3 -43 16 -8 6 -25 10 -36 9
-6 -1 -9 0 -14 5 l-6 6 1 104 c0 78 0 106 -2 112 -3 9 -12 16 -22 18 -4 1 -9
2 -11 3 -3 1 -5 1 -6 -1 -1 -3 -32 -2 -45 2 -12 4 -16 9 -16 22 0 7 1 10 5 14
5 5 6 5 22 4 11 0 19 -2 26 -5 10 -5 14 -5 26 -3 25 5 31 44 10 67 -3 3 -7 6
-8 6 -2 0 -3 1 -3 2 0 1 -1 2 -2 2 -7 1 -240 2 -244 0z m135 -185 c5 -8 1 -16
-8 -16 -9 0 -13 8 -8 16 2 3 5 5 8 5 3 0 6 -2 8 -5z m44 -189 c11 -10 3 -28
-11 -28 -9 0 -16 6 -16 16 0 14 17 22 27 12z m175 -111 l-5 -5 -4 4 -5 5 4 4
5 5 4 -4 5 -5 -4 -4z m-209 -45 c7 -3 12 -13 12 -25 0 -19 -9 -28 -28 -28 -19
0 -28 9 -28 28 0 17 6 24 22 28 5 1 14 -1 22 -3z m446 -1 c12 -7 14 -33 3 -43
-8 -9 -32 -9 -40 0 -9 8 -9 32 0 41 7 7 27 8 37 2z m-261 -10 c7 -7 6 -22 -1
-28 -28 -23 -43 -17 -34 15 1 5 4 12 6 14 6 7 22 6 29 -1z m-321 -6 c4 -4 5
-7 5 -15 0 -14 -6 -20 -20 -20 -14 0 -20 6 -20 20 0 14 6 20 20 20 8 0 11 -1
15 -5z m-165 -12 c3 -3 4 -7 4 -14 0 -13 -6 -19 -19 -19 -13 0 -19 6 -19 19 0
7 1 11 4 14 7 8 23 8 30 0z m594 -15 c5 -6 5 -12 0 -18 -7 -8 -22 -2 -22 9 0
11 15 17 22 9z m-154 -18 c1 0 2 0 2 0 1 0 1 -3 1 -6 0 -9 -10 -14 -15 -9 -2
3 -2 4 1 10 2 6 5 7 11 5z m397 -300 c2 -3 6 -12 9 -20 5 -16 7 -20 17 -33 5
-7 6 -9 6 -22 0 -14 0 -16 -6 -20 -8 -7 -28 -7 -36 0 -5 4 -6 6 -7 28 -1 15
-3 29 -6 37 -5 17 -5 24 0 29 6 7 18 7 23 1z m-575 -13 c3 -3 4 -7 4 -14 0
-13 -6 -19 -19 -19 -13 0 -19 6 -19 19 0 7 1 11 4 14 7 8 23 8 30 0z m92 3 c5
-5 5 -15 0 -20 -9 -9 -24 -2 -24 10 0 8 6 14 14 14 3 0 8 -2 10 -4z m368 -12
c5 -6 5 -12 0 -18 -7 -8 -22 -2 -22 9 0 11 15 17 22 9z m-589 -93 c3 -3 3 -3
0 -6 -3 -3 -3 -3 -6 0 -3 2 -3 3 -1 6 4 4 4 4 7 0z m193 -1 c1 0 5 -3 8 -6 5
-5 6 -7 6 -18 0 -11 -1 -13 -6 -18 -6 -6 -7 -6 -18 -6 -11 0 -12 0 -18 6 -5 5
-6 7 -6 17 0 14 3 20 12 24 5 2 8 2 22 1z m-83 -32 c10 -9 3 -26 -10 -26 -8 0
-15 7 -15 15 0 13 16 20 25 11z m547 -22 c5 -6 5 -12 0 -18 -7 -8 -22 -2 -22
9 0 11 15 17 22 9z m85 -28 c4 -6 4 -24 -1 -30 -7 -9 -27 -9 -34 0 -5 6 -5 24
0 30 7 9 27 9 35 0z m-281 -46 c5 -5 5 -15 0 -20 -9 -9 -24 -2 -24 10 0 8 6
14 14 14 3 0 8 -2 10 -4z m-361 -44 c4 -6 4 -24 -1 -30 -7 -9 -27 -9 -34 0 -5
6 -5 24 0 30 7 9 27 9 35 0z m723 -4 c5 -5 5 -11 0 -16 -10 -10 -27 5 -16 16
4 4 12 4 16 0z m-197 -21 c3 -3 3 -3 0 -6 -3 -3 -3 -3 -6 0 -3 2 -3 3 -1 6 4
4 4 4 7 0z m-569 -95 c5 -6 5 -12 0 -18 -7 -8 -22 -2 -22 9 0 11 15 17 22 9z
m-71 -83 c6 -4 6 -6 6 -20 0 -14 0 -16 -6 -20 -4 -4 -7 -5 -18 -5 -11 0 -14 1
-18 5 -6 4 -6 6 -6 20 0 14 0 16 6 20 4 4 7 5 18 5 11 0 14 -1 18 -5z m-92
-112 c3 -5 3 -5 0 -10 -2 -3 -5 -5 -7 -5 -2 0 -5 2 -7 5 -3 5 -3 5 0 10 2 3 5
5 7 5 2 0 5 -2 7 -5z m-78 -37 c5 -5 6 -7 6 -16 0 -9 -1 -11 -7 -16 -5 -6 -7
-7 -16 -7 -9 0 -11 1 -16 7 -9 8 -9 23 -1 32 9 9 24 9 34 0z m508 -111 c6 -6
7 -24 1 -31 -7 -9 -27 -9 -34 0 -3 3 -4 8 -4 15 0 16 5 21 21 21 9 0 12 -1 16
-5z m-610 -132 c3 -3 3 -3 0 -6 -3 -3 -3 -3 -6 0 -3 2 -3 3 -1 6 4 4 4 4 7 0z"/>
</g>
</svg>
