<?xml version="1.0" standalone="no"?>
<!DOCTYPE svg PUBLIC "-//W3C//DTD SVG 20010904//EN"
 "http://www.w3.org/TR/2001/REC-SVG-20010904/DTD/svg10.dtd">
<svg version="1.0" xmlns="http://www.w3.org/2000/svg"
 width="1100.000000pt" height="2850.000000pt" viewBox="0 0 1100.000000 2850.000000"
 preserveAspectRatio="xMidYMid meet">
<metadata>
Created by potrace 1.15, written by Peter Selinger 2001-2017
</metadata>
<g transform="translate(0.000000,2850.000000) scale(0.500000,-0.500000)"
fill="#000000" stroke="none">
<path d="M867 3793 c-12 -4 -24 -7 -33 -8 -33 -2 -37 -5 -54 -36 -3 -7 -8 -13
-9 -15 -1 -2 -5 -8 -7 -14 -11 -28 -16 -36 -29 -48 -7 -7 -16 -17 -20 -22 -3
-5 -9 -14 -14 -19 -4 -6 -10 -13 -13 -16 -14 -20 -49 -60 -71 -82 -7 -8 -16
-17 -18 -21 -3 -5 -6 -8 -7 -8 -2 0 -13 -10 -36 -31 -10 -9 -34 -29 -45 -38
-4 -3 -9 -8 -12 -10 -2 -2 -8 -6 -12 -9 -12 -8 -13 -11 -13 -27 0 -17 1 -19
21 -32 39 -27 74 -56 114 -96 13 -13 26 -25 28 -26 8 -5 36 -7 52 -3 4 1 10 3
13 3 7 2 19 8 22 12 5 6 10 7 17 4 4 -2 7 -5 8 -7 1 -2 4 -7 8 -11 14 -15 17
-21 17 -34 0 -10 -1 -13 -3 -14 -4 -1 -3 -29 1 -35 2 -2 7 -9 11 -15 5 -7 12
-15 15 -18 8 -7 28 -15 39 -15 4 0 9 -2 12 -4 4 -5 15 -32 16 -42 1 -6 1 -6
10 -7 8 -1 20 -6 28 -13 5 -4 4 -18 -2 -24 -6 -5 -18 -5 -24 0 -3 2 -5 4 -4 4
1 0 0 2 -2 4 -4 5 -9 18 -8 21 1 3 1 3 -10 4 -4 0 -12 2 -17 4 -5 2 -10 3 -13
3 -6 0 -13 5 -17 14 -4 8 -22 28 -24 27 -1 -1 -6 0 -11 2 -5 1 -10 2 -12 1 -4
-3 -8 -1 -13 9 -2 4 -6 10 -8 12 -2 3 -4 6 -4 7 0 1 -1 2 -2 2 0 0 -2 3 -4 7
l-2 6 -87 0 c-87 0 -93 -1 -93 -3 0 -1 -2 -2 -5 -3 -4 -1 -11 -12 -9 -15 0 -1
-1 -2 -1 -2 -1 0 -2 -3 -2 -7 0 -7 1 -8 8 -12 8 -4 22 -8 26 -7 14 4 25 -5 25
-19 0 -14 -11 -23 -25 -19 -4 1 -18 -3 -26 -7 -9 -5 -14 -14 -16 -28 0 -4 -3
-10 -5 -14 l-4 -6 -11 10 c-5 6 -17 16 -25 23 -8 7 -16 14 -17 15 -17 16 -21
19 -33 19 -16 0 -22 -4 -33 -20 -15 -22 -12 -38 8 -56 4 -3 10 -12 13 -20 4
-7 7 -15 9 -17 1 -2 2 -10 3 -17 1 -17 -5 -25 -20 -28 -23 -5 -34 3 -37 28 -1
16 -5 20 -20 20 -11 0 -13 -1 -18 -6 -4 -3 -7 -8 -8 -10 -1 -2 -2 -4 -3 -4 -1
0 -2 -1 -2 -3 0 -1 -2 -4 -4 -6 -9 -10 -23 -35 -25 -44 -5 -21 2 -34 28 -51
16 -11 18 -14 18 -31 -1 -11 -5 -18 -14 -22 -11 -5 -25 -19 -25 -25 -1 -3 0
-10 2 -17 4 -17 2 -31 -5 -36 -8 -7 -28 -7 -36 0 -6 4 -6 6 -6 20 0 8 1 17 3
19 2 5 11 12 14 11 3 0 15 13 16 19 4 21 -25 24 -44 5 -2 -2 -5 -3 -7 -3 -8 0
-24 -6 -33 -12 -8 -5 -21 -19 -36 -39 0 -1 -3 -5 -6 -8 -3 -4 -8 -10 -11 -14
-3 -4 -13 -17 -22 -28 -9 -11 -18 -22 -20 -24 -2 -3 -4 -10 -4 -16 -2 -17 3
-24 32 -48 14 -11 27 -21 28 -22 1 -1 7 -6 12 -10 6 -4 16 -13 23 -19 7 -6 14
-11 16 -13 8 -6 43 -34 47 -37 2 -2 4 -4 5 -4 1 0 2 -2 1 -4 0 -3 -1 -7 -1 -9
0 -2 -2 -7 -5 -10 -13 -15 -13 -15 -13 -111 0 -77 0 -90 3 -98 l4 -9 15 1 c11
0 15 0 16 -2 2 -3 2 -3 2 0 0 2 6 17 12 28 6 13 55 22 68 13 3 -3 6 -7 7 -10
4 -15 10 -28 12 -30 2 -1 3 -3 3 -4 0 -1 4 -4 9 -7 8 -5 9 -5 61 -6 55 0 63 1
73 8 4 4 20 32 18 32 -1 0 1 2 3 4 1 2 5 3 8 3 3 0 7 -1 9 -3 1 -2 3 -4 2 -4
-2 0 13 -27 16 -30 11 -10 13 -10 119 -10 106 0 107 0 114 9 3 3 6 31 4 31 -1
0 -9 7 -18 17 -15 13 -18 17 -20 26 -5 22 7 39 29 38 12 0 22 -6 35 -21 25
-28 29 -39 32 -88 1 -19 2 -37 1 -39 -1 -5 -12 -14 -19 -16 -3 -1 -6 -2 -6 -3
0 -1 -2 -2 -5 -2 -3 0 -11 -2 -19 -5 -13 -5 -14 -5 -82 -5 -87 0 -89 -1 -94
-28 -1 -6 -1 -13 0 -15 1 -2 2 -9 2 -16 0 -10 -1 -12 -6 -17 -3 -3 -7 -6 -9
-6 -26 -2 -33 4 -33 28 -1 39 -17 54 -56 54 -16 0 -25 -3 -33 -11 -5 -5 -15
-24 -16 -31 -2 -10 -24 -10 -26 0 -1 7 -11 26 -16 31 -10 10 -15 11 -67 11
-38 0 -50 -1 -55 -3 -8 -3 -15 -10 -15 -14 0 -1 -1 -4 -1 -6 -1 -2 -2 -11 -2
-20 0 -20 -3 -25 -16 -25 -5 0 -9 1 -10 2 -1 1 -4 2 -8 3 -16 3 -42 18 -41 23
2 4 -13 29 -21 34 l-8 5 -57 0 c-57 0 -68 -1 -68 -3 0 -1 -1 -2 -3 -2 -4 0
-14 -12 -18 -21 -5 -11 -5 -185 0 -196 4 -9 14 -21 18 -21 2 0 3 -1 3 -2 0 -3
11 -3 84 -3 75 0 81 0 87 5 2 1 3 2 4 0 2 -3 10 -3 12 0 1 2 2 1 4 0 2 -2 6
-3 9 -4 3 -1 202 -1 442 -1 l437 0 8 5 c4 2 13 9 20 15 16 15 20 15 36 0 7 -6
16 -13 20 -15 l8 -5 277 -1 c207 0 279 0 286 2 11 3 20 13 26 27 2 6 4 13 4
14 0 8 23 37 40 49 15 11 18 15 23 25 5 11 5 12 5 54 0 41 -2 55 -7 63 -1 1
-33 3 -33 2 0 -1 -2 -7 -5 -13 -3 -7 -6 -13 -6 -14 -1 -5 -7 -9 -12 -9 -5 0
-11 4 -12 9 0 1 -3 7 -6 14 -12 26 -15 27 -76 27 -59 0 -62 -1 -84 -21 -22
-19 -35 -19 -56 -2 -10 9 -21 13 -34 13 -6 0 -7 -1 -10 -8 -7 -20 -7 -21 -4
-27 3 -5 4 -11 3 -17 -1 -9 -23 -8 -33 1 -5 4 -7 21 -3 21 1 0 1 2 0 5 -1 2
-2 8 -3 12 -1 5 -4 10 -8 14 -6 7 -10 8 -20 7 -2 0 -15 0 -28 0 -13 1 -93 1
-177 1 l-153 0 -6 6 -6 6 1 20 c1 19 7 39 12 39 1 0 3 1 4 3 6 5 19 11 25 11
6 0 19 -6 25 -12 1 -1 7 -5 13 -8 l10 -5 80 -1 c77 0 81 0 91 4 7 2 14 6 16 9
3 2 9 8 15 13 9 8 9 8 22 8 13 0 13 0 23 -8 5 -5 10 -10 11 -12 2 -3 6 -4 17
-4 17 0 22 5 24 20 1 14 -8 30 -32 54 -24 25 -24 25 -24 38 0 8 1 11 5 15 8 8
22 7 34 -1 4 -3 9 -6 11 -7 6 -4 8 -6 21 -18 l13 -12 -1 -30 c-2 -33 1 -41 16
-55 14 -14 16 -14 92 -13 71 1 73 1 73 3 0 1 1 2 3 2 4 0 14 12 18 21 5 11 4
109 0 123 -4 11 -11 20 -26 29 -10 7 -13 11 -13 22 0 16 -3 27 -10 36 -6 7
-15 9 -51 9 -33 0 -35 1 -42 5 -3 2 -8 5 -9 6 -2 0 -1 1 2 1 10 0 46 33 63 57
14 20 41 75 41 86 1 5 17 17 23 17 1 0 10 4 20 9 10 5 20 9 22 9 2 0 12 -4 23
-9 l19 -10 31 0 c32 0 42 1 42 3 0 1 1 2 3 2 1 0 5 3 9 7 10 10 10 21 2 42 -8
20 -8 23 2 49 8 21 8 22 8 48 0 19 -1 28 -3 33 -4 9 -14 21 -18 21 -2 0 -3 1
-3 2 0 2 -2 2 -62 3 l-58 1 -5 6 c-2 3 -4 6 -4 6 1 1 7 44 7 55 1 3 1 5 2 5 1
0 3 4 6 8 3 4 6 8 7 8 4 0 14 13 18 21 3 7 11 16 15 17 3 0 20 -6 24 -9 2 -3
34 -19 51 -26 4 -2 9 -4 11 -5 6 -3 22 1 28 7 13 12 14 18 14 73 0 46 0 49 -5
55 -2 4 -6 8 -8 9 -6 3 -27 8 -27 6 0 -1 -6 -2 -13 -2 -12 0 -14 1 -20 7 -4 3
-7 8 -8 10 0 4 -1 7 -7 21 -5 14 -16 21 -37 22 -14 0 -17 1 -23 6 -3 3 -5 6
-5 6 1 2 11 129 11 145 0 12 -2 18 -9 24 -6 5 -23 12 -28 11 -19 -2 -27 4 -27
19 0 12 4 18 14 21 4 1 15 6 24 10 l17 8 -1 12 c0 6 -1 12 -1 14 -1 2 -2 4 -1
4 0 1 -4 4 -9 6 -8 4 -11 4 -69 4 -77 -1 -74 0 -92 -33 -5 -9 -14 -21 -20 -27
-8 -9 -23 -31 -23 -37 0 -4 -14 -15 -29 -24 -15 -8 -18 -9 -29 -9 -11 0 -14 1
-18 5 -6 4 -6 6 -6 20 0 19 2 21 25 29 20 7 28 14 35 29 5 11 6 18 3 20 -1 1
-2 2 -1 3 1 2 -7 14 -14 19 -5 4 -6 4 -181 5 -120 0 -177 0 -182 -2 -14 -4
-23 -20 -22 -39 0 -10 -5 -17 -13 -17 -8 0 -13 7 -13 17 1 18 -7 33 -19 38 -9
4 -48 4 -57 0 -19 -8 -23 -29 -10 -43 4 -5 9 -13 11 -18 3 -9 3 -10 0 -15 -4
-6 -5 -6 -19 -2 -23 7 -36 20 -36 36 0 16 -3 27 -10 36 -6 7 -15 9 -51 9 l-34
0 -8 6 c-4 4 -6 6 -5 6 2 0 5 2 6 6 1 3 7 7 12 10 9 5 10 5 61 6 60 1 62 2 77
20 17 21 38 38 53 43 l11 4 4 -5 c2 -3 4 -8 4 -11 -1 -13 6 -31 14 -38 8 -7 9
-7 22 -7 8 0 14 1 15 2 1 1 2 2 3 1 2 -1 6 4 7 10 2 8 6 19 7 19 1 0 5 -11 7
-19 1 -7 4 -10 13 -15 7 -4 12 -4 93 -4 86 1 86 1 94 6 8 4 20 16 25 23 9 16
43 10 83 -14 13 -8 25 -13 30 -14 14 -2 61 0 80 4 18 4 34 3 54 -3 3 -1 38 -2
81 -2 68 0 77 0 94 4 10 2 21 4 25 4 16 -1 34 7 39 19 11 23 -1 48 -26 52 -2
1 -6 2 -7 3 -1 0 -4 1 -6 1 -2 0 -5 2 -7 5 -4 8 1 15 11 17 16 3 24 15 23 38
-1 12 0 16 5 27 9 17 10 21 8 29 -1 8 -14 23 -18 23 -2 0 -3 1 -3 2 0 2 -8 3
-20 3 -10 0 -23 -6 -32 -13 -6 -5 -11 -8 -28 -17 -4 -3 -14 -9 -20 -13 -16
-10 -26 -13 -43 -11 -15 1 -26 4 -31 8 -4 3 -18 26 -18 28 0 2 -13 13 -15 13
-2 0 -3 1 -3 2 0 1 -1 2 -2 2 -2 0 -83 1 -180 1 l-177 1 -11 -5 c-11 -6 -20
-18 -24 -32 -9 -34 -12 -37 -34 -33 -8 1 -24 3 -34 3 -13 1 -21 2 -26 4 -7 3
-8 5 -11 16 0 0 -1 2 -1 4 0 5 -16 23 -25 29 -17 12 -25 13 -75 15 -63 1 -72
4 -72 24 0 9 0 11 7 16 l7 6 0 16 c-1 19 -4 22 -21 24 -8 2 -6 1 -62 12 -27 5
-52 9 -56 9 -5 0 -16 -3 -26 -7z m7 -84 c3 -3 4 -7 4 -14 0 -13 -6 -19 -19
-19 -13 0 -19 6 -19 19 0 7 1 11 4 14 7 8 23 8 30 0z m301 -99 c5 -4 5 -10 1
-24 -2 -9 -8 -14 -18 -14 -12 -1 -14 0 -19 5 -6 6 -7 24 -1 31 6 8 29 9 37 2z
m347 -4 c5 -5 6 -7 6 -17 0 -16 -7 -23 -23 -23 -10 0 -12 1 -17 6 -5 5 -6 7
-6 17 0 16 7 23 23 23 10 0 12 -1 17 -6z m204 -24 c5 -6 5 -12 0 -17 -11 -13
-29 3 -18 17 4 5 13 5 18 0z m53 -57 c3 -5 3 -5 0 -10 -2 -3 -5 -5 -7 -5 -2 0
-5 2 -7 5 -3 5 -3 5 0 10 2 3 5 5 7 5 2 0 5 -2 7 -5z m-574 -14 c4 -4 2 -7 -3
-7 -5 0 -7 3 -4 7 4 4 4 4 7 0z m-477 -9 c1 0 5 -3 8 -6 5 -5 6 -7 6 -18 0
-11 -1 -13 -6 -18 -3 -3 -7 -6 -8 -6 -16 0 -30 -2 -35 -4 -3 -2 -7 -3 -8 -3
-1 0 -2 -1 -2 -2 0 -2 -1 -3 -1 -4 -4 -4 -2 -22 4 -34 15 -27 5 -50 -21 -50
-20 0 -25 7 -29 32 -2 15 -6 25 -17 46 -10 17 -7 38 6 44 4 3 12 4 28 4 21 0
30 2 37 8 8 6 22 12 28 12 4 -1 8 -1 10 -1z m595 -124 c11 -10 3 -28 -11 -28
-9 0 -16 6 -16 16 0 14 17 22 27 12z m-563 -16 c5 -6 5 -12 0 -18 -7 -8 -22
-2 -22 9 0 11 15 17 22 9z m656 -25 c2 -2 3 -9 3 -17 1 -13 6 -38 9 -41 3 -3
2 -13 -1 -14 -2 -1 -2 -2 -1 -3 1 0 2 -5 3 -10 4 -24 9 -27 49 -28 30 0 31 0
37 -6 4 -4 6 -6 5 -8 -1 -3 -4 -33 -5 -52 0 -4 -1 -9 -3 -10 -6 -7 -18 -43
-19 -54 -1 -21 -10 -31 -28 -31 -23 0 -29 8 -27 38 0 8 -5 24 -10 29 -5 5 -11
8 -25 11 -11 2 -26 8 -26 11 -2 9 -3 10 -16 10 -6 0 -14 -2 -17 -3 -20 -10
-30 -11 -37 -5 -11 10 -5 24 15 34 5 2 10 5 11 7 9 7 15 13 15 15 0 6 13 14
25 15 18 1 27 9 31 24 1 7 3 13 4 13 2 1 1 2 -1 3 -3 1 -4 8 -1 12 2 4 -1 29
-5 42 -3 10 -3 11 0 16 4 6 11 7 15 2z m-422 -19 c5 -6 5 -12 0 -18 -7 -8 -22
-2 -22 9 0 11 15 17 22 9z m-101 -50 c7 -7 7 -19 -1 -27 -8 -8 -16 -15 -21
-16 -5 -1 -9 -9 -8 -15 1 -5 -12 -18 -17 -18 -4 0 -10 7 -10 12 0 4 13 22 16
23 4 1 9 12 7 14 0 1 0 5 2 8 2 4 3 9 3 11 0 11 20 16 29 8z m206 -50 c5 -3 7
-5 5 -6 -17 -5 -16 -43 1 -52 12 -6 18 -10 15 -10 -2 0 -5 -2 -6 -4 -3 -5 -4
-5 -47 -6 l-44 0 -6 6 c-4 3 -6 6 -5 8 2 4 12 49 13 55 0 2 3 7 7 10 7 5 7 5
33 5 25 0 27 -1 34 -6z m96 -48 c6 -6 6 -13 2 -27 -2 -7 -3 -17 -3 -32 0 -26
-3 -31 -16 -31 -14 0 -18 11 -19 49 -1 21 0 21 -4 22 -3 0 -3 1 0 1 3 0 6 3 9
8 9 14 22 19 31 10z m473 -12 c5 -5 5 -11 0 -16 -10 -10 -27 5 -16 16 4 4 12
4 16 0z m169 -71 c10 -10 4 -25 -16 -35 -38 -18 -57 -16 -57 7 0 5 1 11 2 12
7 8 42 21 57 21 6 0 9 -1 14 -5z m-1094 -18 c9 -10 9 -38 0 -46 -8 -7 -28 -7
-36 0 -6 4 -6 6 -6 20 0 18 2 21 19 27 14 4 18 4 23 -1z m369 -49 c5 -5 5 -11
0 -16 -10 -10 -27 5 -16 16 4 4 12 4 16 0z m443 -16 c4 -6 4 -24 -1 -30 -7 -9
-27 -9 -34 0 -5 6 -5 24 0 30 7 9 27 9 35 0z m-902 -33 c9 -9 12 -40 6 -62 -2
-6 -5 -20 -9 -31 -4 -17 -6 -26 -6 -43 0 -30 -1 -33 -13 -54 -10 -17 -22 -46
-22 -53 0 -2 1 -7 3 -13 3 -9 5 -12 22 -28 7 -6 8 -9 8 -16 0 -10 -6 -17 -16
-17 -29 0 -53 -21 -49 -42 0 -3 1 -7 1 -8 0 -6 10 -16 18 -20 7 -4 24 -6 117
-14 119 -11 116 -11 122 -16 5 -4 5 -5 2 -12 -2 -5 -3 -15 -3 -36 0 -29 0 -31
-5 -42 -5 -11 -7 -13 -16 -17 -14 -6 -17 -6 -32 1 -7 4 -15 8 -20 11 -10 5
-24 6 -37 2 -11 -4 -12 -6 -12 -23 0 -9 -1 -12 -3 -13 -2 0 -1 -1 2 -1 8 0 13
-8 13 -22 0 -15 -7 -22 -23 -22 -16 0 -23 7 -23 22 0 14 5 22 13 22 3 0 4 1 3
1 -3 1 -4 4 -4 13 0 27 2 26 -100 26 -71 0 -80 0 -86 -4 -14 -7 -22 -29 -15
-40 3 -3 7 -11 11 -18 7 -16 23 -33 36 -39 15 -8 21 -15 21 -27 0 -15 -7 -22
-23 -23 -18 -1 -33 -6 -45 -16 -13 -11 -23 -14 -35 -11 -9 2 -16 7 -17 13 0 3
-2 6 -3 8 -2 4 -3 11 -2 17 0 2 2 4 4 5 12 4 18 41 9 51 -10 11 -13 20 -13 40
0 10 0 19 -1 20 -1 0 -4 3 -6 6 -1 3 -3 4 -3 3 0 -1 -4 -2 -10 -1 -8 0 -10 0
-12 -4 -1 -2 -3 -4 -3 -3 -2 1 -9 -12 -10 -18 -3 -12 -18 -12 -20 -1 0 2 -2 9
-5 16 -5 13 -7 15 -29 29 -8 5 -12 9 -11 9 2 0 4 2 5 4 1 2 2 4 3 4 1 0 2 2 3
4 1 2 2 5 4 6 1 2 10 15 20 30 10 15 18 28 19 29 3 3 71 107 92 139 11 18 24
38 35 55 6 9 12 19 14 22 2 3 6 10 9 14 3 5 11 18 18 29 7 12 17 28 22 37 6 8
10 16 10 16 0 1 1 3 3 5 8 10 15 27 15 37 l-1 10 14 13 c9 9 17 19 21 27 4 6
8 13 9 14 3 4 13 4 16 0z m813 -13 c9 -5 17 -17 20 -27 1 -6 3 -11 4 -12 1 -1
1 -3 0 -6 -1 -2 -3 -16 -5 -30 -3 -24 -4 -26 -9 -32 l-6 -5 -39 0 c-38 0 -40
0 -47 5 -4 3 -9 5 -10 5 -2 0 -2 1 0 1 3 2 3 9 0 19 -2 7 -31 38 -38 41 -2 0
-2 1 1 1 1 0 3 1 3 2 0 5 12 8 39 8 32 1 39 4 52 19 14 15 23 18 35 11z m248
-14 c8 -7 8 -22 2 -34 -2 -4 -4 -10 -5 -12 -2 -17 -7 -21 -31 -23 -8 0 -15 -2
-17 -3 -4 -4 -17 -2 -22 2 -9 8 -6 26 6 34 6 5 18 18 24 27 7 11 14 15 27 15
9 0 11 -1 16 -6z m-671 -23 c5 -3 8 -5 6 -5 -2 0 -3 -2 -3 -12 0 -17 2 -20 17
-32 8 -6 14 -11 15 -12 0 -1 2 -2 3 -2 3 0 3 0 1 -3 -10 -9 -9 -9 -73 -9 l-61
0 -5 5 c-3 3 -5 7 -4 9 4 11 14 54 14 56 0 1 3 4 7 7 l7 5 33 0 c32 -1 33 -1
43 -7z m-249 -16 c11 -12 2 -47 -12 -47 -9 0 -18 16 -17 33 1 13 7 19 17 19 5
0 9 -1 12 -5z m-318 -32 c8 -4 12 -10 13 -24 2 -17 -6 -23 -25 -16 -14 4 -27
7 -39 7 -8 0 -11 1 -14 5 -3 5 -3 5 0 10 2 3 6 5 8 5 2 0 14 4 26 8 27 9 24 9
31 5z m1246 -8 c3 -6 3 -7 -1 -11 l-4 -4 -4 4 c-4 5 -5 12 -1 12 1 0 2 2 2 5
0 6 3 4 8 -6z m-445 -8 c3 -5 3 -5 0 -10 -2 -3 -5 -5 -7 -5 -2 0 -5 2 -7 5 -3
5 -3 5 0 10 2 3 5 5 7 5 2 0 5 -2 7 -5z m-510 -52 c12 -12 3 -31 -13 -31 -11
0 -18 7 -18 18 0 11 7 18 18 18 6 0 9 -1 13 -5z m78 -7 c10 -9 3 -26 -10 -26
-8 0 -15 7 -15 15 0 13 16 20 25 11z m523 -6 c5 -6 5 -12 0 -18 -7 -8 -22 -2
-22 9 0 11 15 17 22 9z m-389 -4 c5 -2 9 -4 9 -5 1 -3 16 -12 24 -15 5 -1 29
-1 39 0 23 4 32 -16 19 -40 -4 -6 -9 -17 -13 -23 -7 -14 -9 -16 -18 -26 -6 -6
-6 -7 -5 -20 1 -17 1 -18 15 -22 9 -3 19 -3 88 -2 78 1 84 1 82 3 -1 0 1 3 3
7 5 9 8 27 5 33 -5 9 -4 21 2 27 6 6 14 6 39 2 19 -3 29 -8 31 -13 2 -8 -10
-20 -21 -20 -4 0 -4 -1 -2 -2 2 -1 3 -5 3 -16 l0 -16 -6 -1 c-18 -4 -35 -10
-34 -13 0 -2 -1 -4 -2 -5 -4 -1 -9 -13 -9 -21 0 -3 3 -14 8 -24 11 -29 20 -58
29 -98 0 -2 -2 -6 -5 -9 -5 -4 -6 -5 -52 -6 l-47 -1 -7 6 -7 7 2 31 c1 29 1
31 -4 40 -8 16 -24 19 -44 7 -17 -10 -27 -10 -46 1 -23 14 -32 17 -47 15 -6
-1 -12 -2 -11 -3 1 -1 0 -1 -2 -1 -4 2 -8 -10 -9 -22 0 -5 -1 -10 -1 -11 -1
-1 1 -2 3 -3 10 -3 12 -33 2 -44 -9 -11 -31 -11 -43 0 -12 10 -9 45 4 45 2 0
3 1 2 1 -2 1 -3 6 -3 15 0 21 -5 24 -49 24 -30 0 -31 0 -37 6 -5 4 -5 5 -3 7
3 3 13 32 13 38 0 4 14 13 22 13 14 0 25 6 29 14 4 8 7 26 4 28 -1 1 0 3 2 5
3 3 9 4 9 1 0 -1 2 -2 4 -3 5 -1 4 -5 -2 -5 -8 0 14 -6 27 -7 l14 -1 11 9 c18
16 21 28 14 45 -5 10 -6 10 -17 24 -5 5 -12 13 -16 18 -4 4 -7 8 -7 7 0 -2 -8
13 -8 15 0 3 5 8 7 8 2 0 7 -2 12 -4z m676 -6 c7 -6 7 -19 1 -25 -6 -7 -19 -7
-25 -1 -7 6 -7 19 -1 25 6 7 19 7 25 1z m-103 -71 c14 -6 34 -8 42 -5 9 4 20
3 25 -2 5 -5 5 -6 4 -27 0 -15 5 -30 14 -40 12 -14 14 -35 3 -45 -8 -9 -32 -9
-40 0 -7 6 -10 32 -4 35 3 2 2 28 -2 37 -6 16 -24 21 -58 17 -13 -2 -20 5 -20
17 0 17 13 22 36 13z m-1175 -26 c4 -4 5 -7 5 -15 0 -14 -6 -20 -20 -20 -14 0
-20 6 -20 20 0 14 6 20 20 20 8 0 11 -1 15 -5z m1142 -175 c16 -5 21 -9 25
-20 1 -4 4 -10 6 -11 3 -4 3 -4 -2 -12 -10 -15 -31 -20 -47 -13 -11 5 -18 20
-24 44 -1 4 0 7 3 11 5 6 19 7 39 1z m-441 -51 c3 -3 4 -7 4 -14 0 -12 -5 -17
-19 -20 -12 -3 -20 -2 -24 3 -3 4 -3 4 0 13 5 14 12 23 19 23 9 1 16 0 20 -5z
m-47 -37 c4 -4 4 -9 1 -31 -3 -26 -8 -32 -27 -32 -19 0 -26 12 -25 40 1 14 2
17 6 22 5 5 5 5 24 4 12 0 19 -1 21 -3z m404 -25 c6 -6 7 -21 2 -28 -5 -7 -24
-13 -44 -14 -17 -1 -18 -1 -23 4 -6 6 -6 21 -1 27 8 8 30 16 49 16 10 0 13 -1
17 -5z m156 -1 c10 -9 3 -26 -10 -26 -8 0 -15 7 -15 15 0 13 16 20 25 11z
m-675 -11 c21 -8 22 -35 1 -35 -19 0 -33 10 -33 24 0 13 13 17 32 11z m-519
-38 c6 -6 6 -7 -1 -12 -7 -4 -8 -4 -13 2 -3 5 -3 5 0 10 5 6 7 6 14 0z m578
-66 c12 -7 14 -33 3 -43 -8 -9 -32 -9 -40 0 -9 8 -9 32 0 41 7 7 27 8 37 2z
m-48 -162 c33 -8 37 -11 37 -26 0 -19 -14 -23 -54 -16 -24 5 -34 11 -40 26 -6
13 -5 17 8 23 5 3 19 0 49 -7z m110 0 c3 -3 3 -3 0 -6 -4 -5 -11 1 -7 6 4 4 4
4 7 0z m341 -14 c5 -3 18 -25 18 -31 0 -1 1 -2 2 -2 1 0 2 -2 3 -4 1 -3 4 -9
8 -15 4 -8 6 -12 6 -21 0 -21 -8 -27 -32 -26 -23 0 -28 3 -30 15 -1 6 -2 11
-2 12 0 0 -1 3 -1 6 0 3 -2 8 -5 11 -10 9 -34 6 -45 -6 -9 -10 -27 -12 -40 -5
-14 7 -14 42 -1 48 10 4 19 5 27 3 20 -5 38 -2 51 10 4 3 10 6 13 7 3 1 6 2 7
2 3 1 16 -1 21 -4z m248 -19 c16 0 26 -7 30 -21 6 -22 -8 -39 -29 -38 -18 1
-24 6 -29 29 -4 20 -4 24 -1 24 2 0 3 1 3 2 0 2 9 6 13 5 2 -1 7 -1 13 -1z
m-1414 -28 c5 -5 5 -16 0 -21 -5 -4 -15 -4 -20 1 -9 9 -2 24 10 24 3 0 8 -2
10 -4z m538 -4 c5 -5 5 -15 0 -20 -9 -9 -24 -2 -24 10 0 8 6 14 14 14 3 0 8
-2 10 -4z m339 -12 c6 -6 6 -15 1 -21 -4 -4 -7 -5 -21 -5 -25 0 -36 -3 -52
-14 -8 -5 -15 -10 -15 -11 0 -2 -1 -3 -2 -3 -1 0 -2 -1 -2 -2 1 -4 -9 -25 -14
-29 -6 -5 -21 -4 -27 2 -4 3 -5 7 -5 14 0 12 2 14 21 25 8 5 15 10 15 11 0 2
1 3 2 3 2 0 2 1 1 1 -1 2 6 15 12 23 l5 6 23 -1 c16 -1 25 0 32 2 15 4 21 4
26 -1z m-808 -18 c4 -5 4 -7 4 -37 -1 -31 -2 -37 -8 -37 -4 0 -8 6 -10 13 -2
12 -3 15 -8 30 -6 19 -6 26 0 31 6 5 17 5 22 0z m881 -8 c5 -6 5 -12 0 -18 -7
-8 -22 -2 -22 9 0 11 15 17 22 9z m621 -11 c4 -4 5 -7 5 -15 0 -14 -6 -20 -20
-20 -8 0 -11 1 -15 5 -4 4 -5 7 -5 15 0 14 6 20 20 20 8 0 11 -1 15 -5z m-448
-3 c8 -5 9 -7 4 -12 -12 -12 -18 -13 -23 -4 -4 7 2 16 13 18 1 0 3 -1 6 -2z
m162 -5 c4 -4 5 -7 5 -15 0 -14 -6 -20 -20 -20 -8 0 -11 1 -15 5 -4 4 -5 7 -5
15 0 14 6 20 20 20 8 0 11 -1 15 -5z m-1218 -62 c0 -7 1 -13 2 -14 1 0 -1 0
-4 0 -3 0 -5 0 -4 0 1 1 2 7 2 14 -1 10 0 13 2 13 2 0 3 -3 2 -13z"/>
<path d="M319 3792 c-13 -2 -19 -6 -46 -35 -15 -16 -37 -38 -49 -51 l-22 -23
0 -13 c0 -13 2 -19 9 -25 9 -9 12 -22 5 -28 -7 -6 -19 -10 -21 -6 -1 4 -15 9
-21 8 -4 0 -6 1 -6 2 0 1 -1 0 -3 -2 -4 -6 -2 -14 6 -21 4 -3 6 -6 5 -7 0 -1
0 -1 1 0 3 1 17 -14 17 -18 0 -2 2 -4 5 -5 3 -2 5 -3 5 -4 0 -1 1 -2 3 -2 2 0
3 -1 3 -2 0 0 2 -3 6 -4 8 -5 84 -62 96 -72 2 -2 7 -6 11 -9 19 -14 54 -46 65
-57 12 -13 22 -18 35 -17 5 1 12 3 15 4 4 3 27 27 38 40 3 3 10 11 15 16 26
28 44 48 45 51 1 2 2 8 3 14 3 20 -5 23 -83 34 -6 1 -14 2 -17 3 -6 2 -12 11
-9 15 1 2 2 8 2 13 1 30 6 39 24 39 9 0 22 -5 26 -10 5 -6 37 -18 48 -18 6 0
13 -8 18 -21 7 -19 11 -20 37 -16 4 0 11 9 13 15 3 6 2 19 -1 27 -5 12 -50 49
-108 88 -11 8 -20 14 -21 15 -3 3 -78 52 -92 59 -3 2 -8 5 -11 7 -23 14 -33
18 -46 16z m99 -227 c3 -2 4 -3 3 -1 -1 1 0 2 2 1 2 -1 3 -2 3 -3 0 -1 1 -2 2
-1 3 2 2 -5 -3 -20 -6 -14 -10 -18 -19 -19 -19 -2 -26 4 -26 21 0 16 5 21 32
25 1 0 3 -2 6 -3z"/>
<path d="M1056 3760 c-4 -2 -5 -6 -6 -14 0 -11 0 -12 6 -16 4 -3 9 -4 17 -4
16 0 16 0 15 14 -1 11 -6 21 -9 19 0 -1 -1 -1 -1 0 0 1 -1 2 -2 2 -2 1 -6 1
-9 2 -5 1 -7 0 -11 -3z"/>
<path d="M199 3429 c-3 -1 -9 -6 -13 -11 -4 -5 -8 -10 -10 -12 -4 -2 -8 -7
-24 -24 -2 -3 -13 -14 -23 -25 -10 -11 -20 -22 -23 -25 -3 -3 -14 -15 -25 -27
-24 -26 -25 -27 -25 -40 0 -19 0 -19 60 -58 12 -7 21 -14 22 -15 1 0 9 -6 18
-13 31 -21 61 -42 83 -60 6 -4 14 -11 18 -14 9 -7 34 -28 41 -35 9 -8 19 -16
21 -16 1 0 4 -1 7 -1 12 -2 23 3 35 16 7 8 13 15 14 16 9 9 39 44 43 51 4 4 9
15 12 23 8 18 12 25 18 31 15 12 17 30 7 62 -5 15 -11 24 -23 34 -7 6 -13 13
-13 16 -3 9 -12 31 -16 36 -10 12 -21 19 -70 50 -23 14 -58 -9 -70 -46 -3 -8
-5 -16 -5 -18 0 -11 -20 -16 -27 -7 -4 4 -13 29 -17 49 -3 12 1 26 9 37 3 4 4
9 4 15 0 8 0 9 -6 12 -7 3 -14 3 -22 -1z m-5 -170 l-5 -5 -4 4 -5 5 4 4 5 5 4
-4 5 -5 -4 -4z"/>
</g>
</svg>
