<?xml version="1.0" standalone="no"?>
<!DOCTYPE svg PUBLIC "-//W3C//DTD SVG 20010904//EN"
 "http://www.w3.org/TR/2001/REC-SVG-20010904/DTD/svg10.dtd">
<svg version="1.0" xmlns="http://www.w3.org/2000/svg"
 width="1100.000000pt" height="2850.000000pt" viewBox="0 0 1100.000000 2850.000000"
 preserveAspectRatio="xMidYMid meet">
<metadata>
Created by potrace 1.15, written by Peter Selinger 2001-2017
</metadata>
<g transform="translate(0.000000,2850.000000) scale(0.500000,-0.500000)"
fill="#000000" stroke="none">
<path d="M1284 3812 c-3 -1 -6 -1 -7 0 0 0 -1 0 -1 -2 0 -1 -1 -2 -3 -2 -4 0
-14 -12 -18 -21 -3 -7 -3 -17 -3 -67 1 -56 1 -59 5 -68 5 -9 18 -23 31 -32 4
-3 9 -9 11 -14 3 -7 3 -8 0 -13 -2 -3 -5 -5 -7 -5 -5 0 -21 -6 -27 -11 -11 -7
-13 -14 -13 -56 0 -43 2 -49 19 -66 6 -7 12 -14 12 -17 2 -6 -3 -15 -13 -24
-4 -3 -10 -11 -13 -17 l-5 -11 0 -126 1 -127 -6 -6 -6 -6 -101 0 c-100 0 -112
0 -112 -3 0 -1 -1 -2 -3 -2 -4 0 -14 -12 -18 -21 -5 -12 -5 -214 0 -226 2 -5
4 -9 5 -9 2 0 -1 -8 -5 -11 -1 -2 -3 -2 -4 -2 0 1 -1 1 -1 -1 0 -1 -1 -2 -2
-1 -1 1 -2 0 -3 -1 -1 -1 -3 -2 -6 -2 -2 1 -7 0 -11 -1 -11 -3 -26 -2 -41 3
-13 4 -19 4 -78 4 -77 0 -79 0 -98 -18 -20 -18 -22 -18 -43 1 -18 17 -19 17
-116 17 l-83 0 -6 5 c-2 2 -6 5 -7 6 -2 0 -2 1 0 1 2 0 4 3 6 6 1 3 5 10 9 17
4 6 7 12 7 13 0 0 4 3 9 6 7 5 10 5 46 6 41 2 43 2 43 4 0 1 3 3 7 5 4 1 10 7
14 12 3 6 10 14 15 20 9 10 9 10 10 24 0 13 0 15 -4 19 -11 11 -12 36 -1 45
12 11 34 11 43 0 6 -7 8 -20 6 -30 -2 -9 -4 -10 -17 -21 -8 -7 -10 -12 -10
-28 1 -8 2 -13 4 -15 2 -3 7 -8 10 -14 4 -5 10 -11 14 -12 4 -2 7 -4 7 -5 0
-3 15 -3 110 -3 98 0 110 0 110 3 0 1 1 2 3 2 4 0 14 12 18 21 3 7 3 30 3 212
l0 204 -5 19 c-6 23 -6 25 0 48 l5 19 0 130 c0 115 0 131 -3 138 -4 9 -14 21
-18 21 -2 0 -3 1 -3 2 0 1 -1 2 -2 2 -8 2 -638 2 -647 0 -14 -3 -16 -6 -15
-22 0 -13 0 -14 -4 -15 -5 0 -5 0 0 -1 13 0 17 -22 7 -31 -6 -7 -22 -7 -28 0
-10 9 -6 31 7 31 5 1 5 1 0 1 -4 1 -4 2 -4 15 1 9 0 15 -2 17 -4 5 -21 8 -48
6 -29 -1 -30 -1 -30 -3 0 -1 -1 -2 -3 -2 -4 0 -14 -12 -18 -21 -5 -12 -5 -758
0 -770 4 -9 14 -21 18 -21 2 0 3 -1 3 -2 0 -2 0 -2 36 -4 29 -1 30 -1 35 -7 3
-3 4 -5 3 -5 -2 0 -8 -13 -10 -24 -1 -7 -1 -15 0 -24 3 -21 0 -28 -17 -41 -16
-13 -18 -16 -28 -36 -8 -17 -13 -21 -27 -22 -15 -2 -32 -7 -39 -12 -3 -2 -14
-12 -23 -21 -10 -10 -29 -27 -42 -39 -31 -26 -34 -30 -34 -45 0 -13 1 -16 19
-35 8 -8 20 -21 27 -29 7 -8 14 -16 16 -18 2 -2 8 -8 13 -15 6 -7 10 -12 11
-13 1 -1 5 -5 9 -11 4 -5 8 -10 9 -11 1 -1 4 -5 9 -11 14 -17 36 -20 51 -7 3
2 7 6 10 8 22 19 33 29 58 54 17 16 33 30 36 31 3 2 6 2 5 1 -1 -1 0 -2 1 -2
5 0 -1 -39 -7 -47 -3 -2 -10 -7 -17 -11 -15 -7 -26 -16 -39 -34 -5 -7 -11 -14
-11 -14 -1 -1 -4 -4 -7 -8 -20 -27 -98 -104 -129 -128 -5 -4 -11 -9 -13 -10
-2 -2 -4 -4 -5 -4 -4 0 -11 -13 -11 -23 -2 -13 2 -20 14 -32 8 -8 31 -34 38
-42 1 -2 8 -10 13 -17 6 -8 18 -23 26 -35 16 -24 21 -27 38 -27 15 0 18 3 70
55 26 26 27 27 45 48 7 8 16 18 20 23 12 13 56 69 65 82 3 4 9 13 15 20 5 7
13 21 18 30 5 10 13 21 17 25 4 4 8 7 8 8 0 0 8 13 18 28 10 15 20 32 23 38 3
5 8 15 11 20 3 6 10 17 15 26 10 19 17 24 23 21 8 -4 30 -28 30 -33 2 -26 -12
-42 -42 -50 -15 -4 -32 -12 -37 -18 -2 -2 -12 -20 -22 -39 -9 -19 -21 -42 -25
-50 -5 -8 -10 -18 -12 -21 -3 -6 -10 -17 -15 -26 -2 -2 -4 -7 -6 -10 -3 -5
-33 -50 -49 -74 -13 -19 -51 -66 -69 -85 -17 -18 -50 -50 -54 -53 -7 -5 -11
-15 -11 -27 0 -13 3 -19 20 -35 27 -26 46 -49 86 -102 0 -1 3 -4 5 -7 10 -16
36 -19 49 -5 18 17 52 55 67 74 4 6 8 10 9 11 1 1 4 5 7 9 3 4 8 10 9 12 2 2
6 7 9 12 13 19 27 37 29 37 5 2 11 -1 13 -6 12 -23 31 -102 36 -148 1 -15 14
-35 24 -39 2 -1 4 -1 4 -1 0 0 2 0 5 -2 3 -2 16 -2 45 -2 44 0 53 2 62 12 4 5
11 29 9 32 -4 7 -7 24 -4 27 6 5 12 7 26 7 17 1 26 -3 30 -11 11 -30 13 -35
25 -39 10 -4 19 -2 34 6 56 34 94 90 115 170 3 13 6 25 8 27 4 9 12 44 11 50
-1 5 1 25 8 62 4 24 -3 40 -24 54 -8 5 -13 10 -18 20 -4 8 -14 20 -21 29 -8 8
-14 17 -14 19 -2 21 5 30 22 30 10 0 11 -1 18 -9 4 -4 9 -11 10 -15 l2 -7 18
0 17 0 3 10 c2 5 5 27 8 53 2 24 4 49 5 54 4 38 11 143 10 145 -1 1 -2 4 -2 7
-1 2 -4 11 -7 20 -8 20 -8 29 -1 42 18 33 19 35 22 92 1 13 2 26 2 29 0 6 -4
21 -7 25 -2 2 -1 4 3 8 4 6 5 6 24 5 11 0 23 -1 28 -2 5 -1 20 -2 34 -3 21 -1
60 -6 49 -7 -2 0 -3 -2 -3 -9 1 -10 3 -13 13 -15 9 -1 14 -8 14 -19 0 -19 -13
-24 -37 -15 -16 6 -29 16 -30 22 0 1 -1 3 -2 4 -1 2 -1 5 0 6 1 2 1 2 -1 2 -2
-1 -3 -2 -3 -3 1 -1 -2 -2 -6 -1 -9 1 -23 -3 -23 -7 0 -2 1 -3 2 -2 1 1 4 -1
7 -4 2 -3 4 -5 3 -5 -1 -1 -2 -8 -2 -17 0 -14 1 -20 13 -55 19 -58 43 -123 59
-159 27 -61 48 -105 69 -144 20 -36 23 -44 23 -50 0 -8 -3 -17 -8 -21 -57 -51
-80 -69 -131 -103 -34 -23 -46 -29 -92 -53 -13 -6 -27 -12 -30 -13 -5 -1 -5
-2 -5 -19 0 -20 1 -22 17 -26 14 -4 16 -7 18 -36 2 -27 6 -37 25 -57 12 -13
18 -21 26 -38 3 -8 9 -17 12 -22 3 -4 9 -14 13 -22 4 -8 9 -15 10 -16 2 -1 4
-3 6 -4 5 -6 25 -21 31 -22 3 -1 6 -3 7 -4 0 -2 2 -3 4 -3 4 0 4 0 0 2 -3 1
-3 2 -1 2 3 0 3 0 0 2 -2 2 -2 2 0 2 4 0 2 21 -4 28 l-4 5 6 4 5 4 6 -4 6 -5
-4 -8 c-3 -4 -4 -8 -3 -8 1 0 2 -1 1 -1 -2 -4 44 -4 48 -1 2 1 6 4 11 7 13 8
20 12 36 23 9 5 17 10 18 10 1 0 2 1 2 2 0 1 1 2 3 2 2 0 3 1 3 2 0 0 3 3 6 5
18 10 22 20 23 53 0 22 0 22 6 27 5 5 7 5 19 4 7 0 17 -2 22 -4 11 -4 28 -4
35 0 4 1 14 10 23 18 9 8 20 17 23 19 11 7 23 4 36 -9 7 -7 51 -44 66 -57 37
-29 93 -67 130 -86 15 -8 31 -17 35 -19 14 -11 46 -26 56 -25 19 0 27 6 43 32
4 6 32 49 43 65 2 2 6 8 9 12 5 7 6 9 6 19 -1 27 -20 43 -54 45 -13 1 -19 3
-21 5 -8 8 -2 24 9 24 2 0 8 -1 14 -3 12 -4 34 -4 44 0 10 3 17 2 29 -3 11 -6
28 -7 36 -4 3 1 13 10 23 20 l17 18 0 14 c0 14 0 15 -7 21 -4 4 -16 10 -31 16
-27 11 -90 41 -111 54 -2 1 -8 5 -14 8 -13 7 -50 31 -51 33 -1 1 -7 6 -15 11
-17 12 -38 28 -45 34 -3 3 -8 7 -11 10 -8 5 -15 16 -15 24 0 7 3 12 21 42 7
12 16 27 19 33 3 6 9 16 12 22 7 12 31 60 45 90 17 35 46 107 58 140 21 61 30
90 43 135 5 20 10 38 11 40 0 2 1 8 3 12 1 4 2 10 3 13 0 3 4 19 8 35 4 17 7
32 8 35 0 3 2 10 3 15 3 13 3 17 -2 29 l-3 11 -15 1 c-12 0 -16 -1 -19 -3 -8
-7 -18 -13 -24 -13 -8 0 -15 7 -15 15 0 5 7 19 10 19 3 0 16 15 21 23 10 17 3
40 -16 50 -5 2 -48 17 -95 32 -8 2 -38 3 -48 0 -4 -1 -31 -2 -61 -2 l-54 -2
-12 7 c-6 3 -11 6 -10 6 3 0 -8 9 -19 17 -14 8 -16 12 -16 23 0 11 2 15 16 23
24 16 28 25 28 71 0 22 -1 39 -3 50 -5 30 2 44 26 45 15 1 26 -7 29 -21 1 -6
2 -11 0 -14 -1 -3 0 -8 2 -16 5 -16 7 -19 17 -24 9 -4 10 -4 135 -3 129 0 130
1 130 3 0 1 1 2 3 2 4 0 14 12 18 21 5 11 5 221 0 232 -4 9 -14 21 -18 21 -2
0 -3 1 -3 2 0 3 -13 3 -168 3 l-157 0 -6 6 -6 6 1 99 c0 87 0 100 -3 107 -4 9
-14 21 -18 21 -2 0 -3 1 -3 2 0 1 -1 2 -2 2 -7 1 -248 2 -252 0z m86 -69 c21
-9 20 -45 -2 -54 -10 -5 -28 -1 -34 6 -9 10 -9 32 0 42 7 8 24 11 36 6z m-609
-54 c9 -4 13 -10 13 -23 0 -15 -7 -22 -23 -22 -16 0 -23 7 -23 22 0 13 4 19
13 23 8 4 12 4 20 0z m725 -26 c21 -9 20 -45 -2 -54 -10 -5 -28 -1 -34 6 -9
10 -9 32 0 42 7 8 24 11 36 6z m-1160 -64 l-5 -5 -4 4 -5 5 4 4 5 5 4 -4 5 -5
-4 -4z m482 -47 c5 -5 5 -11 0 -16 -10 -10 -27 5 -16 16 4 4 12 4 16 0z m-66
-67 c3 -3 4 -7 4 -14 0 -15 -3 -17 -35 -25 -13 -3 -17 -10 -18 -24 0 -6 0 -12
1 -12 1 0 3 -3 4 -6 2 -4 4 -8 5 -8 1 -1 2 -8 3 -15 0 -12 0 -13 -6 -19 -5 -5
-7 -6 -17 -6 -16 0 -23 7 -23 21 0 13 2 19 5 19 2 0 3 1 2 2 -1 2 -2 6 -2 9 0
3 -1 8 -1 11 0 2 -3 8 -7 11 l-7 7 -108 -1 -107 0 -6 6 c-5 6 -6 8 -6 20 0 12
1 14 6 20 l6 6 125 -1 c96 0 129 1 144 3 23 3 31 2 38 -4z m594 1 c11 -11 -6
-26 -17 -16 -7 7 -1 19 9 19 3 0 7 -2 8 -3z m-481 -20 c7 -6 7 -19 1 -25 -6
-7 -19 -7 -25 -1 -7 6 -7 19 -1 25 6 7 19 7 25 1z m891 -41 c10 -2 24 -5 30
-6 15 -2 20 -7 20 -22 0 -13 -6 -21 -15 -21 -7 0 -56 -2 -64 -3 -19 -1 -32 17
-27 38 6 21 19 24 56 14z m-306 -36 c21 -9 20 -45 -2 -54 -10 -5 -28 -1 -34 6
-9 10 -9 32 0 42 7 8 24 11 36 6z m-107 -54 c5 -8 1 -16 -8 -16 -9 0 -13 8 -8
16 2 3 5 5 8 5 3 0 6 -2 8 -5z m-597 -50 c3 -3 4 -7 4 -14 0 -13 -6 -19 -19
-19 -13 0 -19 6 -19 19 0 7 1 11 4 14 7 8 23 8 30 0z m675 -19 c28 -8 30 -10
30 -29 0 -14 0 -16 -6 -20 -7 -6 -24 -7 -35 -1 -18 9 -40 24 -43 28 -5 9 -4
19 2 25 5 5 6 5 18 4 6 0 22 -3 34 -7z m-801 -40 c19 -16 30 -20 51 -20 17 1
18 1 24 -5 6 -6 6 -6 5 -22 -1 -15 -8 -35 -12 -35 -1 0 -5 -3 -9 -6 -13 -11
-65 -32 -78 -33 -13 -1 -23 5 -35 22 -8 12 -12 16 -22 20 l-11 6 -44 0 -44 0
-6 6 c-6 6 -6 7 -6 21 0 14 0 15 6 21 l6 6 47 -1 c56 0 59 1 82 20 19 17 27
17 46 0z m-304 2 c5 -6 5 -12 0 -18 -7 -8 -22 -2 -22 9 0 11 15 17 22 9z m572
-6 c5 -6 5 -12 0 -18 -7 -8 -22 -2 -22 9 0 11 15 17 22 9z m579 -99 c3 -3 3
-3 0 -6 -4 -5 -11 1 -7 6 4 4 4 4 7 0z m-322 -91 c10 -9 3 -26 -10 -26 -8 0
-15 7 -15 15 0 13 16 20 25 11z m-224 -17 c6 -4 6 -6 6 -20 0 -20 -1 -21 -34
-30 -14 -4 -28 -8 -31 -9 -6 -2 -19 -1 -26 1 -12 5 -18 21 -14 36 4 14 11 19
29 21 6 0 16 2 24 3 26 4 40 4 46 -2z m508 -65 c5 -5 6 -7 6 -16 0 -15 -8 -23
-23 -23 -9 0 -11 1 -16 7 -9 8 -9 23 -1 32 9 9 24 9 34 0z m-261 -1 c17 -5 23
-11 25 -21 3 -13 -13 -18 -30 -10 -16 9 -31 22 -31 28 0 9 13 10 36 3z m107
-24 c7 -7 0 -41 -11 -51 -14 -12 -38 -9 -38 5 1 3 0 7 -1 9 -1 1 -2 5 -2 9 -1
6 0 8 11 17 17 15 33 19 41 11z m444 -45 c-4 -5 -7 -5 -11 -1 -4 4 -4 4 0 8
l5 5 4 -4 c5 -4 5 -5 2 -8z m-197 -38 l27 0 7 -6 c3 -3 5 -6 4 -6 -1 0 -1 -1
-1 -2 -1 -2 -2 -6 -3 -9 -1 -3 -5 -15 -9 -26 -4 -11 -8 -22 -9 -23 -1 -2 -2
-15 -2 -29 0 -28 1 -25 -21 -44 -9 -7 -13 -14 -27 -42 -16 -32 -21 -39 -28
-39 -8 0 -17 16 -48 85 -9 20 -40 100 -41 105 -1 6 -8 24 -9 24 -1 0 0 2 3 6
5 5 6 5 35 6 16 1 44 1 62 1 18 -1 45 -1 60 -1z m155 -5 c4 -6 3 -14 -3 -38
-7 -26 -10 -32 -22 -33 -18 -2 -26 4 -26 20 0 8 4 20 8 24 1 1 4 6 8 11 14 21
27 27 35 16z m-1190 -78 c4 -4 5 -7 5 -15 0 -14 -6 -20 -20 -20 -14 0 -20 6
-20 20 0 14 6 20 20 20 8 0 11 -1 15 -5z m7 -105 c5 -5 5 -11 0 -16 -10 -10
-27 5 -16 16 4 4 12 4 16 0z m269 -30 c9 -4 12 -12 12 -36 1 -18 0 -21 -4 -30
-10 -19 -13 -18 -33 5 -20 22 -24 37 -14 54 5 10 23 13 39 7z m626 -122 c10
-9 3 -26 -10 -26 -8 0 -15 7 -15 15 0 13 16 20 25 11z m-653 -23 c0 -1 1 -3 2
-3 4 -2 1 -46 -7 -112 -16 -123 -33 -194 -52 -214 -12 -12 -22 -15 -60 -15
-31 0 -35 1 -40 4 -7 6 -8 9 -1 18 3 5 6 10 6 10 0 1 2 4 4 7 2 3 6 10 10 17
4 7 9 16 12 21 26 47 66 128 76 155 2 6 5 13 7 16 11 24 37 89 37 94 0 1 1 3
1 4 3 2 5 1 5 -2z m-320 -13 c3 -3 6 -8 6 -10 0 -3 1 -8 1 -12 1 -11 -6 -17
-22 -18 -12 0 -13 0 -19 6 -5 5 -6 7 -6 17 0 16 7 23 23 23 10 0 12 -1 17 -6z
m-170 -132 c5 -6 5 -12 0 -18 -7 -8 -22 -2 -22 9 0 11 15 17 22 9z m1288 -90
c1 0 5 -3 8 -6 5 -5 6 -7 6 -17 0 -16 -3 -19 -22 -28 -8 -5 -17 -10 -18 -12
-6 -6 -15 -23 -17 -29 -1 -6 -12 -15 -21 -17 -7 -2 -23 5 -27 12 -5 7 -5 27 0
34 2 3 6 6 9 7 28 12 34 16 46 37 5 9 9 15 13 17 5 3 9 3 23 2z m-837 -235 c6
-4 13 -18 14 -30 1 -8 1 -8 -6 -12 -6 -3 -19 -4 -32 -3 -2 0 -6 3 -9 6 -5 5
-6 7 -6 17 0 14 3 20 12 24 8 3 21 2 27 -2z"/>
</g>
</svg>
