<?xml version="1.0" standalone="no"?>
<!DOCTYPE svg PUBLIC "-//W3C//DTD SVG 20010904//EN"
 "http://www.w3.org/TR/2001/REC-SVG-20010904/DTD/svg10.dtd">
<svg version="1.0" xmlns="http://www.w3.org/2000/svg"
 width="1000.000000pt" height="2850.000000pt" viewBox="0 0 1000.000000 2850.000000"
 preserveAspectRatio="xMidYMid meet">
<metadata>
Created by potrace 1.15, written by Peter Selinger 2001-2017
</metadata>
<g transform="translate(0.000000,2850.000000) scale(0.500000,-0.500000)"
fill="#000000" stroke="none">
<path d="M1269 3814 c-6 -2 -17 -12 -18 -16 0 -2 -1 -4 -1 -5 -3 -4 -5 -16 -4
-27 0 -9 0 -11 -6 -16 -6 -6 -7 -6 -18 -6 -11 0 -12 0 -18 6 -6 5 -6 7 -6 16
1 11 -1 23 -4 27 0 1 -1 3 -1 5 -1 1 -4 6 -7 9 -6 6 -7 6 -17 5 -12 -2 -20 -9
-25 -22 -3 -7 -4 -13 -4 -45 0 -49 2 -54 25 -60 6 -1 12 -3 13 -4 1 -1 2 0 2
1 0 4 15 2 20 -3 9 -9 2 -27 -10 -27 -3 0 -14 2 -24 5 l-19 5 -220 0 c-121 0
-223 -1 -227 -2 -3 -1 -6 -1 -7 0 0 0 -1 0 -1 -2 0 -1 -1 -2 -3 -2 -3 0 -14
-12 -17 -19 -2 -5 -3 -28 -4 -98 -1 -91 -1 -92 -5 -100 -3 -4 -5 -9 -5 -11 0
-2 -1 -2 -1 0 -2 5 -11 14 -14 14 -2 0 -3 1 -3 2 0 2 -10 3 -61 3 l-50 0 -6 6
-6 6 1 159 c0 141 0 160 -3 167 -4 9 -14 21 -18 21 -2 0 -3 1 -3 2 0 2 -9 3
-35 3 -21 0 -25 -1 -32 -5 -6 -3 -9 -5 -9 -8 0 -6 -10 -18 -18 -22 -6 -3 -8
-3 -20 -1 -12 3 -14 4 -24 15 -18 19 -24 21 -58 21 -30 0 -40 -1 -40 -3 0 -1
-1 -2 -3 -2 -4 0 -14 -12 -18 -21 -3 -7 -3 -26 -3 -167 l1 -159 -6 -6 -6 -6
-67 0 c-67 0 -78 -1 -78 -3 0 -1 -1 -2 -3 -2 -4 0 -14 -12 -18 -21 -5 -11 -5
-229 0 -240 4 -9 14 -21 18 -21 2 0 3 -1 3 -2 0 -2 9 -3 34 -3 24 0 34 1 34 3
0 1 3 2 6 3 4 2 9 8 18 20 6 10 13 19 15 20 5 2 25 1 29 -1 2 -1 5 -5 8 -9 8
-12 10 -28 12 -70 l1 -40 8 -16 c10 -22 10 -30 0 -52 -8 -16 -8 -16 -9 -42 0
-27 2 -37 11 -48 5 -5 22 -11 33 -12 15 -1 22 -7 26 -20 3 -11 0 -25 -7 -30
-10 -10 -22 -10 -44 -2 -26 10 -32 10 -72 0 -16 -4 -47 -11 -68 -15 -21 -5
-43 -10 -50 -11 -32 -9 -43 -27 -35 -63 3 -9 5 -19 5 -22 2 -10 17 -83 21
-101 2 -10 8 -35 12 -56 9 -42 13 -53 26 -59 15 -7 19 -7 65 6 24 7 47 14 50
15 8 4 15 11 15 14 0 2 1 3 2 3 2 0 6 16 7 31 2 19 8 26 27 26 12 0 16 -2 26
-11 3 -3 9 -9 14 -13 11 -10 16 -17 16 -25 0 -13 -10 -17 -34 -12 -8 2 -13 2
-19 0 -10 -2 -22 -13 -24 -21 -1 -3 -2 -76 -3 -162 l-1 -157 -6 -5 -5 -6 -66
0 c-60 0 -66 0 -73 -4 -9 -4 -13 -10 -16 -24 -2 -8 -2 -11 0 -15 6 -10 32 -96
37 -121 6 -26 17 -35 49 -39 15 -1 23 -5 28 -14 6 -10 7 -20 5 -31 -4 -16 0
-33 9 -39 9 -6 19 -8 28 -6 5 1 14 2 21 3 46 4 58 5 77 10 26 6 49 14 69 24
17 8 47 28 49 32 3 9 3 21 -1 32 -2 7 -5 13 -5 15 -1 2 1 5 3 8 4 4 5 4 12 3
9 -3 30 0 37 4 11 7 22 41 29 92 4 24 5 381 2 393 -4 13 -5 14 -21 14 l-15 0
0 10 0 10 15 0 c9 0 15 1 16 3 4 5 7 19 7 36 0 18 1 23 9 30 1 1 28 10 59 19
68 20 75 22 84 30 11 9 17 27 14 43 -1 7 -2 17 -3 22 -1 6 -2 16 -3 24 -1 8
-3 25 -5 38 -14 109 -15 116 -19 126 -5 13 -10 18 -23 22 -11 3 -11 3 -31 -2
-26 -6 -25 -6 -36 -9 -5 -1 -15 -4 -22 -6 l-14 -4 -5 6 -5 5 0 94 -1 94 6 6 6
6 50 0 c51 0 61 1 61 3 0 1 1 2 3 2 3 0 14 12 17 19 2 5 3 31 4 111 1 104 1
105 6 113 2 4 4 9 4 11 0 2 1 2 1 0 2 -5 11 -14 14 -14 2 0 3 -1 3 -2 0 0 2
-2 6 -2 3 -1 101 -1 218 -1 l213 0 6 -6 c8 -9 8 -17 0 -26 l-6 -6 -66 0 c-47
1 -67 0 -70 -2 -2 -1 -5 -2 -6 -2 -1 0 -2 -7 -2 -17 0 -16 0 -16 -5 -16 -5 0
-5 0 -5 16 0 10 -1 17 -2 17 -1 0 -4 1 -6 3 -4 1 -32 2 -114 1 -61 0 -111 -1
-112 -1 -2 0 -3 -1 -3 -2 0 -1 -1 -2 -3 -2 -4 0 -14 -12 -18 -21 -3 -6 -3 -20
-3 -102 0 -90 0 -95 4 -103 7 -16 10 -18 23 -18 11 1 13 1 19 8 8 9 10 11 15
18 9 14 39 14 48 0 9 -13 19 -24 28 -29 8 -4 8 -4 143 -4 l135 0 6 -6 c5 -6 6
-8 6 -19 0 -11 -1 -13 -6 -19 l-6 -6 -113 0 -113 0 -7 -4 c-6 -4 -16 -18 -16
-23 0 -4 -11 -20 -14 -20 -4 0 -12 9 -12 14 0 7 -11 24 -18 28 -10 7 -38 8
-50 2 -19 -9 -30 -27 -27 -45 3 -16 20 -24 42 -19 24 5 35 -1 36 -18 2 -28
-12 -41 -39 -33 -12 4 -30 4 -33 1 -1 0 -2 -1 -2 -1 -12 -3 -20 -21 -26 -56
-5 -29 -4 -40 7 -56 9 -15 12 -21 12 -30 0 -13 -4 -18 -19 -29 -8 -5 -14 -11
-16 -13 -1 -3 -2 -5 -3 -5 -2 0 -7 -12 -6 -17 0 -14 4 -21 19 -36 10 -10 11
-12 11 -20 0 -8 -6 -17 -11 -17 -1 0 -8 -3 -16 -7 -22 -11 -26 -19 -36 -65 -3
-14 -7 -33 -9 -42 -5 -20 -4 -29 3 -40 10 -16 -3 -15 195 -16 l177 -1 7 -5 c3
-4 5 -6 4 -6 -1 0 -6 -7 -11 -17 -8 -15 -20 -35 -23 -37 -1 -1 -6 -7 -11 -15
-5 -8 -12 -16 -14 -19 -37 -45 -84 -86 -135 -121 -13 -8 -25 -17 -26 -20 -5
-6 -10 -22 -11 -36 -1 -17 -2 -21 -8 -24 -9 -6 -31 -3 -37 6 -2 2 -28 0 -32
-3 -5 -4 -5 -6 -11 -21 -4 -10 -7 -14 -12 -16 -9 -5 -24 -4 -34 1 -25 12 -37
13 -67 3 -40 -13 -44 -17 -44 -39 0 -11 1 -13 7 -19 7 -7 29 -32 38 -44 3 -4
7 -9 9 -11 2 -2 5 -6 7 -9 2 -3 6 -8 8 -11 3 -3 8 -9 12 -15 19 -27 31 -44 33
-46 1 -2 5 -8 9 -14 9 -13 9 -13 18 -29 17 -29 34 -36 64 -25 52 18 160 68
195 91 9 6 13 8 20 11 3 2 9 7 13 10 7 6 7 7 7 20 0 14 0 15 -11 30 -6 9 -5
26 2 38 10 15 11 22 11 49 l-1 24 6 5 c8 7 28 7 36 0 9 -7 9 -24 2 -40 -4 -9
-6 -16 -7 -27 l0 -15 9 -9 c5 -6 11 -10 15 -11 9 -1 24 -1 24 1 1 0 8 7 16 14
8 7 19 16 23 21 4 4 9 7 9 7 1 0 2 7 2 16 l0 16 -11 11 c-6 7 -11 14 -11 16
-1 18 1 23 19 32 6 3 13 7 16 8 4 3 10 10 23 26 7 8 17 9 34 3 12 -4 14 -4 26
-2 12 2 13 3 21 13 9 14 15 16 23 12 3 -2 6 -4 6 -5 0 -1 19 -32 23 -37 1 -1
5 -7 10 -14 9 -14 21 -26 30 -30 12 -6 21 -17 29 -35 6 -14 8 -18 30 -39 23
-23 25 -25 42 -39 5 -4 10 -8 12 -10 7 -6 19 -15 29 -22 5 -5 12 -10 15 -12 3
-2 6 -4 8 -4 1 0 2 -1 2 -2 0 -1 6 -5 13 -9 6 -4 18 -11 25 -15 15 -10 75 -41
94 -49 7 -3 16 -7 19 -8 25 -11 76 -29 99 -35 30 -8 46 0 63 33 5 10 12 21 14
25 3 5 5 8 5 9 0 2 13 22 38 58 25 38 29 44 42 59 2 2 5 6 7 8 6 8 24 29 27
32 2 2 2 6 1 16 0 10 -2 13 -6 18 -6 6 -8 7 -43 16 -9 2 -31 8 -48 13 -30 9
-32 9 -57 9 -21 0 -27 1 -29 3 -1 2 -4 3 -5 3 -2 0 -3 1 -3 2 0 6 -37 36 -44
36 -4 0 -12 9 -16 15 -4 8 -2 15 4 21 6 6 12 8 12 4 0 -1 2 -2 4 -3 1 0 5 -4
8 -8 13 -20 28 -25 51 -18 36 13 60 29 82 54 21 27 36 62 42 101 0 5 2 12 3
16 5 24 -7 42 -29 42 -5 0 -8 -1 -12 -6 -6 -8 -14 -26 -17 -38 -3 -11 -9 -15
-27 -14 -18 0 -21 29 -5 44 10 10 22 35 22 47 0 2 3 6 6 9 6 6 7 6 19 5 39 -3
52 4 54 29 2 22 3 54 4 93 1 22 2 49 2 60 1 17 0 21 -4 30 -10 22 -34 29 -47
14 -3 -4 -12 -25 -13 -31 -2 -11 -18 -11 -20 0 -1 7 -10 27 -14 31 -9 11 -6
11 -190 10 l-170 0 -8 -6 c-8 -6 -14 -22 -13 -37 0 -11 -6 -18 -16 -18 -10 0
-16 7 -16 17 0 11 -4 47 -6 50 0 1 -1 9 -1 17 0 14 0 15 7 21 3 4 8 7 9 7 6 0
22 10 30 18 11 11 18 15 30 15 12 0 19 -4 30 -15 4 -5 13 -11 18 -14 l10 -5
144 0 c141 0 155 0 155 3 0 1 1 2 3 2 4 0 14 12 18 21 5 12 5 500 0 512 -4 9
-14 21 -18 21 -2 0 -3 1 -3 2 0 2 -2 2 -108 3 -115 1 -112 2 -135 -13 -15 -9
-37 -25 -36 -27 2 -1 -11 -13 -16 -14 -7 -2 -17 10 -11 14 1 1 0 6 -1 13 -2 6
-3 13 -4 15 -3 11 -13 13 -64 13 l-42 -1 -6 6 c-8 9 -8 17 0 26 l6 6 183 0
183 0 10 6 c8 5 11 9 19 24 11 20 15 23 30 24 16 0 28 -8 28 -20 0 -3 0 -3 2
-1 1 2 5 2 16 2 8 -1 14 0 14 1 0 1 1 1 1 0 1 -2 2 -2 4 0 2 2 3 21 3 99 0 86
0 98 -3 105 -4 9 -14 21 -18 21 -2 0 -3 1 -3 2 0 2 -9 3 -37 3 -27 0 -37 -1
-37 -3 0 -1 -3 -3 -6 -4 -3 -1 -10 -7 -14 -12 -12 -16 -15 -17 -24 -17 -9 0
-12 1 -24 17 -4 5 -11 11 -14 12 -3 1 -6 3 -6 4 0 3 -16 3 -159 3 l-148 0 -6
6 -6 6 1 54 c0 46 0 55 -3 62 -4 9 -14 21 -18 21 -2 0 -3 1 -3 2 0 1 -1 2 -2
2 -7 1 -138 1 -143 0z m-810 -58 c5 -5 6 -7 6 -16 0 -9 -1 -11 -7 -16 -5 -6
-7 -7 -16 -7 -15 0 -21 7 -24 25 -2 13 -2 13 3 18 5 4 7 4 19 3 11 -1 14 -2
19 -7z m913 -103 c12 -5 18 -21 14 -36 -3 -11 -8 -16 -23 -20 -7 -2 -12 -4
-13 -5 0 -1 -1 -2 -2 -2 -8 0 -17 -22 -18 -39 0 -18 -17 -23 -39 -11 -28 15
-35 21 -35 32 0 10 9 22 22 27 30 13 38 19 50 36 13 19 27 25 44 18z m-941
-67 c10 -9 3 -26 -10 -26 -8 0 -15 7 -15 15 0 13 16 20 25 11z m1233 -67 l-5
-5 -4 4 -5 5 4 4 5 5 4 -4 5 -5 -4 -4z m-1526 -133 c4 -3 7 -6 8 -6 2 -3 16
-10 22 -11 3 -1 8 -2 11 -3 3 -1 8 -2 12 -2 12 0 19 -9 19 -23 0 -10 -1 -12
-6 -17 -11 -11 -33 -7 -46 9 -4 4 -32 15 -41 15 -12 0 -20 8 -20 22 0 8 1 11
6 16 9 9 23 9 35 0z m862 -74 c6 -5 6 -7 6 -20 0 -11 -1 -15 -4 -19 -9 -10
-33 -11 -42 -1 -10 9 -9 33 1 42 4 3 8 4 19 4 13 0 15 0 20 -6z m64 -35 l-5
-5 -4 4 -5 5 4 4 5 5 4 -4 5 -5 -4 -4z m77 -54 c18 -7 23 -11 23 -22 0 -11 -6
-17 -16 -17 -9 0 -16 3 -30 13 -18 12 -22 20 -17 28 4 5 5 5 15 4 6 -1 17 -4
25 -6z m-249 -2 c3 -3 4 -7 4 -14 0 -13 -6 -19 -19 -19 -13 0 -19 6 -19 19 0
7 1 11 4 14 7 8 23 8 30 0z m870 -7 c5 -5 5 -11 0 -16 -10 -10 -27 5 -16 16 4
4 12 4 16 0z m-163 -119 c5 -6 6 -8 6 -19 0 -11 -1 -13 -6 -19 l-6 -6 -72 0
-72 0 -6 6 c-5 6 -6 8 -6 19 0 11 1 13 6 19 l6 6 72 0 72 0 6 -6z m-365 -10
l-5 -5 -4 4 -5 5 4 4 5 5 4 -4 5 -5 -4 -4z m-54 -103 c1 0 5 -3 8 -6 5 -5 6
-7 6 -18 0 -11 -1 -13 -6 -18 -6 -6 -7 -6 -18 -6 -11 0 -12 0 -18 6 -5 5 -6 7
-6 17 0 14 3 20 12 24 5 2 8 2 22 1z m399 -68 c9 -4 32 -10 39 -10 2 0 6 -1 7
-3 5 -5 0 -8 -14 -10 -13 -1 -28 -5 -37 -10 -10 -5 -25 -5 -31 2 -6 6 -7 24
-1 31 6 8 21 9 37 0z m-213 -2 c1 0 5 -3 8 -6 5 -5 6 -7 6 -18 0 -11 -1 -13
-6 -18 -6 -6 -7 -6 -18 -6 -11 0 -12 0 -18 6 -5 5 -6 7 -6 17 0 14 3 20 12 24
5 2 8 2 22 1z m-920 -23 c3 -3 4 -7 4 -14 0 -13 -6 -19 -19 -19 -13 0 -19 6
-19 19 0 7 1 11 4 14 7 8 23 8 30 0z m152 -43 c5 -5 6 -7 6 -17 0 -10 -1 -12
-6 -17 -5 -5 -7 -6 -17 -6 -10 0 -12 1 -17 6 -5 5 -6 7 -6 17 0 10 1 12 6 17
5 5 7 6 17 6 10 0 12 -1 17 -6z m531 -60 c5 -5 6 -6 4 -12 0 -3 -1 -9 -1 -13
1 -5 0 -7 -5 -11 l-7 -6 -51 0 -52 0 -6 6 c-4 4 -6 6 -5 8 1 2 2 8 2 13 1 8 2
11 7 15 l6 6 51 0 52 0 5 -6z m173 -89 l-5 -5 -4 4 -5 5 4 4 5 5 4 -4 5 -5 -4
-4z m393 2 c5 -8 1 -16 -8 -16 -9 0 -13 8 -8 16 2 3 5 5 8 5 3 0 6 -2 8 -5z
m-1292 -4 c4 -4 5 -7 5 -15 0 -14 -6 -20 -20 -20 -14 0 -20 6 -20 20 0 14 6
20 20 20 8 0 11 -1 15 -5z m488 -106 c4 -4 5 -7 5 -15 0 -14 -6 -20 -20 -20
-14 0 -20 6 -20 20 0 14 6 20 20 20 8 0 11 -1 15 -5z m560 -3 c14 -9 24 -34
26 -65 l0 -9 16 -9 c9 -5 24 -11 34 -14 17 -5 20 -5 69 -5 l51 0 6 -6 c5 -5 5
-5 1 -12 -2 -5 -7 -9 -18 -15 -7 -4 -14 -8 -13 -9 1 0 -1 -2 -3 -3 -2 -2 -3
-6 -4 -11 0 -4 -1 -10 -2 -13 -1 -4 -1 -5 1 -5 4 0 6 -8 2 -13 -3 -5 -7 -6
-16 -5 -3 0 -8 -3 -14 -9 -5 -4 -9 -8 -9 -7 0 0 -1 0 -2 -1 0 -1 -3 -3 -6 -4
-5 -1 -7 0 -14 7 -12 12 -19 21 -29 34 -5 6 -12 14 -16 17 -4 3 -8 7 -10 9 -1
1 -3 2 -4 2 -1 0 -5 3 -10 6 -14 10 -16 13 -16 37 0 12 1 21 1 21 1 0 2 1 2 2
0 1 -1 1 -3 1 -3 0 -26 14 -30 20 -9 9 -12 51 -5 59 4 5 8 5 15 0z m-977 -7
c3 -3 4 -5 4 -17 0 -17 -3 -20 -19 -20 -13 0 -19 6 -19 20 0 14 6 20 19 20 6
0 12 -1 15 -3z m1289 -30 c3 -5 3 -5 0 -10 -2 -3 -5 -5 -7 -5 -2 0 -5 2 -7 5
-3 5 -3 5 0 10 2 3 5 5 7 5 2 0 5 -2 7 -5z m-700 -6 c5 -8 1 -16 -8 -16 -9 0
-13 8 -8 16 2 3 5 5 8 5 3 0 6 -2 8 -5z m70 -98 c3 -5 3 -5 0 -10 -2 -3 -5 -5
-7 -5 -2 0 -5 2 -7 5 -3 5 -3 5 0 10 2 3 5 5 7 5 2 0 5 -2 7 -5z m125 -121 c5
-6 5 -14 0 -19 -12 -10 -29 6 -18 19 4 5 13 5 18 0z m-794 -81 l-5 -5 -4 4 -5
5 4 4 5 5 4 -4 5 -5 -4 -4z m-62 -8 l-5 -5 -4 4 -5 5 4 4 5 5 4 -4 5 -5 -4 -4z
m1019 -2 c5 -8 1 -16 -8 -16 -9 0 -13 8 -8 16 2 3 5 5 8 5 3 0 6 -2 8 -5z"/>
<path d="M1580 2448 c-3 -1 -6 -1 -7 -1 -2 2 -13 -12 -13 -16 0 -3 -1 -7 -2
-10 -3 -9 5 -14 24 -13 22 0 23 0 21 15 -2 23 -8 30 -23 25z"/>
</g>
</svg>
