<?xml version="1.0" standalone="no"?>
<!DOCTYPE svg PUBLIC "-//W3C//DTD SVG 20010904//EN"
 "http://www.w3.org/TR/2001/REC-SVG-20010904/DTD/svg10.dtd">
<svg version="1.0" xmlns="http://www.w3.org/2000/svg"
 width="1000.000000pt" height="2850.000000pt" viewBox="0 0 1000.000000 2850.000000"
 preserveAspectRatio="xMidYMid meet">
<metadata>
Created by potrace 1.15, written by Peter Selinger 2001-2017
</metadata>
<g transform="translate(0.000000,2850.000000) scale(0.500000,-0.500000)"
fill="#000000" stroke="none">
<path d="M376 3808 c-10 -2 -16 -4 -24 -11 -4 -3 -5 -6 -5 -15 1 -10 4 -19 9
-24 1 -1 4 -4 7 -9 l6 -7 -5 -20 c-2 -10 -5 -26 -5 -35 -1 -9 -2 -18 -3 -20
-3 -5 -11 -9 -21 -10 -15 -2 -28 -6 -43 -14 -7 -4 -14 -7 -15 -7 -2 0 -10 -2
-19 -5 -17 -6 -28 -14 -43 -34 -3 -4 -7 -9 -8 -10 -16 -17 -27 -33 -36 -52
-10 -19 -18 -31 -23 -31 -1 0 -8 -4 -15 -8 -11 -6 -25 -19 -67 -58 -3 -3 -11
-10 -19 -17 -18 -14 -23 -24 -23 -39 0 -11 1 -12 12 -28 7 -8 15 -18 19 -21 9
-7 17 -19 25 -39 9 -23 19 -31 50 -41 21 -7 26 -18 21 -45 -4 -19 -3 -31 4
-39 7 -7 27 -10 37 -4 17 12 111 102 154 149 9 10 20 21 23 25 17 19 35 38 51
58 10 12 20 24 22 26 1 2 7 8 11 14 4 5 9 11 10 12 8 10 20 26 33 44 7 10 16
23 22 29 5 6 12 15 17 21 4 5 8 11 9 12 1 1 2 4 4 6 1 3 3 6 5 7 1 2 7 10 13
19 6 9 12 17 13 18 1 1 11 16 22 34 11 18 23 34 25 37 5 7 5 22 0 32 -5 11
-15 17 -64 35 -26 10 -55 21 -65 24 -10 4 -19 8 -20 8 -1 0 -4 1 -7 2 -5 2
-46 18 -72 27 -10 4 -15 5 -22 4z m84 -118 c2 -2 4 -8 5 -14 1 -5 3 -12 4 -16
2 -4 5 -13 7 -20 4 -11 4 -13 1 -17 -2 -3 -4 -5 -5 -5 -6 0 -22 7 -22 10 -2
20 -7 43 -10 45 -3 2 -2 12 2 17 4 5 13 5 18 0z m-45 -69 c1 -1 2 -2 3 -2 0 0
3 -1 6 -2 5 -1 6 -2 4 -5 -1 -2 -4 -4 -7 -5 -3 -1 -5 -2 -5 -3 0 -4 -7 -2 -11
3 -3 5 -3 5 0 10 4 5 7 6 10 4z m-274 -215 c10 -9 3 -26 -10 -26 -8 0 -15 7
-15 15 0 13 16 20 25 11z m170 -47 c3 -3 3 -3 0 -6 -3 -3 -3 -3 -6 0 -3 2 -3
3 -1 6 4 4 4 4 7 0z"/>
<path d="M1632 3803 c-1 0 -4 -1 -7 -2 -4 0 -17 -4 -31 -7 -62 -15 -206 -42
-266 -51 -4 -1 -12 -2 -18 -3 -6 -1 -14 -2 -17 -3 -13 -2 -24 -3 -28 -4 -8 -2
-53 -8 -79 -11 -9 -1 -17 -2 -18 -3 0 0 -7 -1 -15 -2 -8 -1 -15 -2 -17 -2 -2
-1 -70 -9 -137 -17 -27 -3 -34 -4 -101 -11 -59 -6 -66 -7 -75 -12 -10 -5 -23
-19 -23 -25 0 -1 -3 -3 -7 -6 l-7 -4 -7 5 c-3 2 -6 5 -7 6 -2 5 -16 15 -25 18
-8 3 -13 3 -38 1 -41 -3 -53 -10 -61 -33 0 -2 -1 -82 -2 -177 l-1 -173 -5 -6
c-4 -3 -6 -4 -6 -3 0 1 -1 2 -2 2 -1 0 -10 3 -20 7 -9 4 -38 15 -64 25 -26 10
-60 24 -77 30 -32 13 -41 14 -54 8 -10 -4 -18 -13 -26 -28 -27 -49 -84 -130
-136 -194 -34 -41 -68 -79 -113 -124 -35 -35 -54 -53 -78 -74 -7 -6 -14 -12
-15 -13 -1 -1 -6 -5 -10 -9 -11 -8 -17 -20 -17 -34 0 -8 2 -14 14 -37 7 -16
17 -35 21 -44 4 -9 11 -24 15 -33 5 -9 11 -23 14 -30 16 -38 34 -84 42 -104
12 -31 15 -34 34 -35 l15 -1 9 9 c20 18 26 25 34 46 10 24 13 27 26 27 8 0 11
-1 15 -5 8 -8 7 -19 -5 -42 l-9 -20 -1 -343 c0 -314 0 -343 3 -351 4 -9 14
-21 18 -21 2 0 3 -1 3 -2 0 -3 13 -3 124 -3 111 0 124 0 124 3 0 1 1 2 3 2 4
0 14 12 18 21 4 11 5 215 0 226 -4 8 -11 20 -14 20 -3 0 -19 18 -27 30 -8 12
-10 14 -23 20 -8 4 -17 8 -21 9 -16 6 -18 41 -1 49 8 4 24 4 32 0 7 -3 8 -5
14 -26 2 -7 4 -12 5 -11 1 1 9 2 18 2 16 1 17 1 18 6 1 3 2 28 2 56 0 46 0 53
-4 66 -5 19 -5 31 0 50 4 15 4 17 4 292 0 268 0 277 -4 285 -2 6 -6 10 -10 12
-9 5 -25 9 -28 7 -5 -3 -17 0 -23 6 -5 5 -6 7 -6 16 0 9 1 11 7 16 8 9 21 9
34 1 11 -7 33 -9 40 -3 5 3 15 17 33 46 5 8 12 20 16 25 25 39 29 49 34 79 2
12 3 15 9 21 6 6 10 6 25 2 10 -3 11 -4 11 -9 -1 -3 -1 -6 -2 -6 -1 0 -3 -4
-4 -8 -3 -8 -1 -21 5 -32 8 -15 15 -45 15 -63 0 -6 -5 -15 -9 -15 -5 0 -27
-13 -31 -17 -7 -10 -8 -18 -8 -59 1 -38 1 -39 6 -51 3 -6 9 -15 12 -19 17 -21
16 -42 -2 -58 -5 -5 -16 -26 -16 -31 0 -7 7 -22 11 -24 6 -2 27 -1 29 2 4 3
17 9 21 9 1 0 4 -2 6 -5 5 -7 2 -12 -11 -24 -6 -5 -13 -15 -17 -21 -4 -6 -14
-17 -22 -25 -18 -17 -21 -26 -22 -57 -1 -24 -3 -66 -4 -93 -1 -25 3 -37 20
-54 15 -15 19 -25 15 -40 -3 -10 -5 -12 -20 -23 -19 -15 -25 -26 -28 -63 -3
-31 -3 -31 -9 -86 -6 -53 -13 -101 -20 -143 -4 -24 -5 -32 -3 -36 1 -3 1 -6 0
-5 -1 1 -1 0 -1 -2 1 -2 2 -3 3 -3 1 0 2 -1 2 -1 -1 -4 0 -7 2 -6 1 1 2 0 2
-1 2 -4 21 -3 27 1 8 5 24 5 30 -2 4 -4 5 -7 5 -16 0 -16 -7 -23 -24 -21 -9 1
-12 3 -17 10 l-5 8 -16 0 c-20 0 -21 -1 -25 -22 -5 -22 0 -38 14 -46 9 -5 14
-15 11 -19 -1 -1 -8 -4 -15 -6 -8 -2 -15 -5 -15 -6 -1 -1 -2 -8 -2 -15 0 -16
2 -18 20 -28 7 -4 17 -10 22 -13 18 -9 85 -52 88 -55 1 -1 5 -3 9 -6 8 -5 41
-30 48 -35 11 -10 21 -12 37 -9 11 3 11 25 -1 43 -14 21 -9 39 12 45 4 1 13 5
19 9 9 5 12 8 18 20 4 8 7 16 7 17 0 2 3 12 6 24 3 12 7 29 9 40 2 10 5 20 5
22 1 6 11 51 12 56 2 14 5 30 6 37 1 5 1 10 2 13 1 3 2 10 3 15 1 6 2 15 3 21
1 6 1 11 2 12 0 0 1 6 2 12 0 6 2 15 2 19 2 12 1 17 -4 27 -6 14 -14 17 -38
17 -19 1 -20 1 -26 7 -5 5 -6 7 -6 16 0 13 4 18 24 30 9 6 25 19 37 30 28 28
31 34 35 80 4 48 4 59 -1 70 -4 9 -5 10 -21 21 -17 11 -33 8 -50 -10 -12 -13
-19 -15 -32 -12 -17 3 -38 -2 -52 -14 -8 -7 -28 -7 -36 0 -6 4 -6 6 -6 20 0
14 0 16 6 20 5 5 7 5 20 4 34 -3 43 -2 56 5 11 6 13 6 28 6 15 0 27 3 27 6 0
1 2 2 4 3 2 0 7 6 12 12 7 11 9 13 20 17 16 6 29 17 33 30 2 5 3 20 4 38 l1
29 -7 22 c-4 11 -7 23 -7 26 0 4 4 17 12 37 4 10 5 15 5 58 1 45 1 47 -4 61
-7 19 -12 25 -32 35 -10 5 -19 11 -21 14 -10 12 -1 31 13 30 7 -1 25 5 33 10
5 3 10 13 11 20 1 4 -3 14 -8 26 -10 24 -11 33 -4 40 8 7 25 4 37 -8 1 -1 7
-5 13 -8 l10 -5 101 0 101 0 9 6 c10 7 20 24 23 40 2 11 14 19 28 18 16 -1 23
-6 27 -20 3 -10 1 -17 -9 -43 -7 -18 -8 -23 -10 -70 -2 -26 -2 -28 -7 -33 l-5
-5 -120 -1 c-66 0 -121 -1 -122 -1 -2 0 -3 -1 -3 -2 0 -1 -1 -2 -3 -2 -4 0
-15 -12 -18 -21 -2 -7 -2 -10 0 -17 6 -24 6 -39 -1 -61 -2 -11 -2 -35 2 -45 7
-19 38 -52 57 -61 13 -6 19 -12 19 -17 0 -3 -10 -15 -21 -23 -2 -3 -7 -9 -11
-14 -7 -11 -12 -17 -23 -23 -11 -7 -17 -13 -21 -23 -4 -9 -4 -17 -4 -178 0
-118 1 -170 2 -175 1 -4 6 -14 11 -24 10 -21 10 -27 0 -48 -5 -10 -10 -20 -11
-24 -1 -5 -2 -50 -2 -149 0 -126 0 -143 3 -150 4 -9 14 -21 18 -21 2 0 3 -1 3
-2 0 -2 2 -2 77 -3 l72 -1 11 5 c8 5 12 8 18 17 11 20 18 26 26 26 12 1 16 0
18 -3 3 -3 20 -2 29 1 6 2 11 10 12 16 0 4 13 20 13 16 0 -1 17 -1 18 0 1 1 5
3 10 5 5 2 13 6 18 10 14 9 22 13 29 13 7 0 19 -6 25 -13 2 -1 8 -5 14 -8 l11
-6 72 0 72 0 6 -6 c6 -6 6 -6 5 -22 -1 -29 10 -45 31 -45 6 0 9 1 11 4 5 5 10
22 10 29 -2 30 4 38 26 38 22 0 28 -8 26 -38 0 -7 5 -24 10 -29 8 -9 14 -10
60 -10 46 0 53 1 61 10 6 6 7 28 3 31 -9 5 -24 19 -27 24 -4 6 -4 14 -1 20 6
9 8 33 5 47 -4 19 -1 32 10 37 11 6 37 3 37 -5 0 -2 1 -2 2 -1 0 2 6 2 11 2
10 0 24 4 22 7 -1 0 0 3 2 5 3 6 4 56 1 70 -2 6 -5 15 -9 20 -3 6 -8 13 -10
16 -4 7 -4 21 0 28 2 3 7 11 10 16 11 17 11 20 11 133 0 91 0 105 -3 112 -2 5
-4 8 -4 7 -1 0 -3 0 -4 2 -2 2 -7 3 -15 2 -9 0 -12 1 -13 3 0 2 -1 1 -1 -1 0
-6 -8 -9 -20 -9 -9 0 -11 1 -16 6 -5 5 -6 7 -6 17 0 10 1 12 6 17 5 5 7 6 16
6 12 0 20 -3 20 -9 0 -2 1 -3 1 -1 1 2 4 3 13 3 8 -1 13 0 15 2 1 2 3 2 4 2 0
-1 2 2 4 7 5 13 4 63 -1 75 -6 13 -20 20 -41 22 -18 2 -26 10 -26 28 0 14 4
20 17 28 28 17 38 33 30 49 -4 8 -12 15 -21 17 -6 2 -21 -3 -39 -12 -10 -6
-16 -8 -37 -10 -35 -5 -40 -5 -48 3 -5 5 -6 7 -6 16 0 9 1 11 6 16 8 8 12 8
48 3 15 -2 30 -3 34 -2 8 1 34 12 38 15 1 1 4 2 6 2 7 0 27 8 32 12 7 6 11 19
11 34 0 22 -7 35 -25 46 -23 13 -23 27 0 40 15 9 25 24 25 38 0 12 -14 34 -21
34 -2 0 -3 1 -3 2 0 3 -18 2 -25 -1 -4 -2 -12 -6 -17 -11 -15 -12 -19 -14 -28
-14 -10 0 -12 1 -29 15 -13 10 -28 16 -37 14 -7 -2 -19 -7 -36 -16 -6 -3 -12
-5 -19 -5 -7 0 -13 2 -19 5 -24 13 -31 16 -45 17 -12 0 -15 2 -20 6 -5 4 -6 6
-5 8 2 4 3 37 2 43 -3 9 -13 23 -22 30 -11 10 -15 21 -12 36 3 13 9 17 25 17
13 0 13 0 22 -8 6 -5 12 -11 15 -13 2 -3 9 -7 15 -9 11 -4 14 -4 172 -3 88 0
161 1 163 1 1 0 2 1 2 2 0 1 1 2 3 2 4 0 14 12 18 21 5 11 5 201 0 212 -4 9
-14 21 -18 21 -2 0 -3 1 -3 2 0 2 -10 3 -61 3 l-50 0 -10 -6 c-5 -3 -11 -9
-13 -13 -2 -4 -5 -9 -7 -11 -2 -4 -2 -4 -4 -19 -3 -24 -9 -34 -21 -34 -4 0 -9
2 -11 4 -5 4 -12 21 -14 36 -1 5 -3 11 -5 14 -1 2 -4 7 -6 11 -2 3 -8 9 -13
12 l-10 6 -58 1 -59 0 -6 6 c-3 3 -5 6 -5 7 3 2 1 40 -1 42 -2 1 -2 1 1 0 2 0
3 0 3 2 -1 1 0 5 1 8 2 11 4 42 4 94 l0 51 6 5 c10 10 32 6 40 -7 5 -10 18
-20 30 -23 10 -3 11 -3 54 6 24 5 51 11 60 13 9 2 26 6 39 9 35 8 42 14 42 36
l0 10 -95 95 c-73 73 -98 97 -105 100 -9 4 -26 7 -28 5z m-411 -128 c7 -4 10
-11 10 -23 0 -19 -8 -27 -27 -27 -19 0 -27 8 -27 27 0 14 5 22 15 25 8 3 23 2
29 -2z m-243 -93 c3 -2 9 -7 12 -10 3 -3 11 -9 18 -13 7 -4 15 -10 16 -12 8
-9 1 -25 -10 -25 -5 0 -18 6 -24 11 -2 1 -11 6 -20 11 -20 10 -24 14 -24 24 0
16 16 23 32 14z m-167 -24 c5 -5 6 -7 6 -16 0 -9 -1 -11 -7 -16 -5 -6 -7 -7
-16 -7 -9 0 -11 1 -16 7 -9 8 -9 23 -1 32 9 9 24 9 34 0z m726 3 c6 -4 6 -6 6
-20 0 -14 0 -16 -6 -20 -4 -4 -7 -5 -18 -5 -11 0 -14 1 -18 5 -6 4 -6 6 -6 20
0 14 0 16 6 20 4 4 7 5 18 5 11 0 14 -1 18 -5z m-613 -70 c27 -10 34 -14 44
-29 15 -20 28 -27 50 -25 6 0 17 1 24 2 7 1 17 2 22 2 46 5 72 7 77 8 6 1 19
2 37 4 24 3 75 9 76 10 0 0 3 -2 6 -4 6 -6 6 -6 6 -26 0 -31 4 -40 25 -52 6
-3 15 -7 18 -8 11 -2 22 -9 26 -15 2 -3 3 -10 3 -16 0 -16 -7 -21 -26 -20 -3
0 -13 4 -23 9 -10 5 -22 10 -27 11 -6 1 -38 2 -98 2 -99 -1 -94 0 -110 -16 -4
-3 -10 -7 -12 -9 -5 -2 -5 -3 -5 -16 1 -8 2 -14 3 -15 1 0 2 -1 2 -2 0 -2 4
-6 8 -11 7 -8 8 -10 8 -19 0 -14 -6 -20 -20 -20 -14 0 -20 6 -20 20 0 5 1 11
3 12 4 6 7 13 7 26 1 6 0 12 0 12 -1 0 -2 3 -3 6 0 3 -3 7 -4 7 -2 1 -8 5 -12
9 -7 7 -10 8 -20 9 -10 1 -11 1 -16 -3 -7 -7 -14 -26 -15 -37 0 -2 -3 -6 -6
-9 -5 -5 -7 -6 -17 -6 -10 0 -12 1 -17 6 -6 6 -6 7 -6 19 1 11 2 14 8 21 3 4
6 9 6 10 0 1 1 2 2 2 1 0 4 5 6 12 7 18 5 52 -3 68 -6 14 -13 21 -28 29 -7 3
-15 9 -18 12 -6 6 -7 8 -7 17 0 21 14 25 46 13z m508 -10 l-5 -5 -4 4 -5 5 4
4 5 5 4 -4 5 -5 -4 -4z m108 -62 c6 -6 5 -23 -1 -29 -6 -6 -22 -6 -28 1 -7 6
-7 21 -1 28 7 8 23 8 30 0z m-284 -135 c12 -4 18 -20 14 -35 -5 -17 -14 -21
-46 -20 -38 1 -46 6 -46 27 0 9 1 13 5 17 9 11 56 18 73 11z m371 -19 c4 -4 5
-7 5 -13 0 -11 -7 -18 -18 -18 -11 0 -18 7 -18 18 0 11 7 18 18 18 6 0 9 -1
13 -5z m-878 -16 c7 -4 10 -11 10 -23 0 -19 -8 -27 -27 -27 -8 1 -14 2 -24 7
l-14 7 3 7 c1 4 4 10 7 14 2 3 4 6 4 7 0 4 8 9 14 11 9 2 22 1 27 -3z m142
-46 c5 -8 1 -16 -8 -16 -9 0 -13 8 -8 16 2 3 5 5 8 5 3 0 6 -2 8 -5z m500
-156 c3 -5 3 -5 0 -10 -2 -3 -5 -5 -7 -5 -2 0 -5 2 -7 5 -3 5 -3 5 0 10 2 3 5
5 7 5 2 0 5 -2 7 -5z m106 -32 c3 -3 3 -3 0 -6 -3 -3 -3 -3 -6 0 -3 2 -3 3 -1
6 4 4 4 4 7 0z m-1234 -56 c12 -10 7 -48 -8 -62 -19 -18 -35 0 -35 36 0 25 5
31 25 31 11 0 14 -1 18 -5z m1024 -38 c4 -4 5 -7 5 -15 0 -14 -6 -20 -20 -20
-14 0 -20 6 -20 20 0 14 6 20 20 20 8 0 11 -1 15 -5z m292 -16 c5 -8 1 -16 -8
-16 -9 0 -13 8 -8 16 2 3 5 5 8 5 3 0 6 -2 8 -5z m-394 -4 c12 -7 14 -33 3
-43 -8 -9 -32 -9 -40 0 -9 8 -9 32 0 41 7 7 27 8 37 2z m239 -3 c13 -7 13 -41
1 -49 -15 -9 -29 5 -29 30 0 9 1 12 5 16 5 5 16 7 23 3z m-1278 -11 c3 -3 4
-7 4 -14 0 -13 -6 -19 -19 -19 -13 0 -19 6 -19 19 0 7 1 11 4 14 7 8 23 8 30
0z m267 -10 c10 -10 4 -35 -8 -35 -11 0 -28 0 -31 0 -5 1 -13 10 -10 10 1 0 2
1 1 2 -1 1 0 3 2 5 1 1 4 5 7 9 8 14 29 19 39 9z m-63 -37 c3 -2 3 -9 -3 -21
-3 -6 -5 -12 -5 -13 0 -11 -9 -21 -25 -26 -4 -2 -9 -4 -11 -6 -3 -3 -27 -14
-30 -14 -3 0 -10 8 -10 11 0 3 12 17 15 17 5 0 20 16 28 30 6 11 10 16 16 19
8 4 20 6 25 3z m427 -23 c3 -5 3 -5 0 -10 -2 -3 -5 -5 -7 -5 -2 0 -5 2 -7 5
-3 5 -3 5 0 10 2 3 5 5 7 5 2 0 5 -2 7 -5z m764 -100 c3 0 14 -12 14 -15 0 -2
1 -11 3 -20 2 -15 2 -18 -1 -27 -3 -8 -3 -15 0 -29 2 -10 9 -14 29 -18 18 -4
24 -10 24 -25 0 -15 -3 -19 -16 -26 -6 -3 -10 -7 -10 -7 0 -1 -1 -2 -3 -2 -1
0 -3 -1 -3 -2 -1 -1 -3 2 -6 7 -5 8 -7 10 -26 19 -20 10 -30 17 -30 21 0 6
-15 32 -24 41 -5 6 -10 13 -11 16 -2 10 -14 30 -20 35 -11 9 -17 9 -105 9
l-83 -1 -6 6 -6 6 6 6 6 6 102 -1 c56 0 107 1 114 2 10 1 42 1 52 -1z m-658
-10 c3 -5 3 -5 0 -10 -2 -3 -5 -5 -7 -5 -2 0 -5 2 -7 5 -3 5 -3 5 0 10 2 3 5
5 7 5 2 0 5 -2 7 -5z m245 -36 c20 -9 20 -45 0 -54 -9 -3 -20 -3 -33 2 -14 6
-33 6 -46 0 -9 -4 -13 -3 -17 3 -2 5 -2 6 1 11 3 4 5 5 12 5 14 -1 28 6 41 21
5 5 12 11 15 12 7 3 20 3 27 0z m241 -129 c5 -3 11 -11 11 -17 0 -6 12 -29 18
-34 10 -8 17 -9 71 -9 54 1 57 2 68 13 6 6 13 16 13 19 0 1 1 2 3 2 1 0 3 2 4
4 1 2 2 4 3 4 1 0 3 2 5 4 4 4 4 3 8 -8 l3 -12 -5 -12 c-3 -7 -6 -12 -7 -12
-6 0 -8 -24 -3 -40 3 -12 3 -15 -2 -20 -5 -5 -10 -3 -24 10 -18 17 -15 16
-147 16 l-115 -1 -6 6 c-8 8 -8 14 0 22 5 5 7 6 13 5 10 -1 20 3 28 9 6 5 18
28 18 34 0 16 22 25 43 17z m-1014 -31 c4 -4 5 -7 5 -14 0 -9 -2 -12 -14 -31
-8 -12 -17 -23 -20 -25 -4 -3 -5 -3 -9 1 -3 3 -4 6 -4 9 0 2 1 9 2 14 5 46 8
51 25 51 8 0 11 -1 15 -5z m374 -53 c10 -9 3 -26 -10 -26 -8 0 -15 7 -15 15 0
13 16 20 25 11z m824 -90 c4 -6 4 -24 -1 -30 -7 -9 -27 -9 -34 0 -5 6 -5 24 0
30 7 9 27 9 35 0z m-269 -24 c14 -3 20 -15 12 -22 -5 -4 -30 -6 -39 -2 -6 2
-12 11 -10 16 3 8 20 12 37 8z m-606 -31 l-5 -5 -4 4 -5 5 4 4 5 5 4 -4 5 -5
-4 -4z m871 -80 c3 -3 6 -7 5 -8 0 -1 1 -4 2 -7 1 -4 1 -7 -1 -10 -4 -8 -9
-10 -17 -8 -5 1 -57 2 -136 2 l-129 -1 -6 6 c-8 9 -8 17 0 26 l6 6 135 0 135
0 6 -6z m-1174 -37 c5 -5 6 -7 6 -16 0 -9 -1 -11 -7 -16 -5 -6 -7 -7 -16 -7
-9 0 -11 1 -16 7 -9 8 -9 23 -1 32 9 9 24 9 34 0z m1207 -16 c2 -5 2 -7 0 -9
-3 -4 -6 -4 -12 1 -4 3 -5 4 -2 9 2 4 7 7 10 6 1 -1 3 -4 4 -7z m-1121 -44 c4
-6 4 -24 -1 -30 -7 -9 -27 -9 -34 0 -5 6 -5 24 0 30 7 9 27 9 35 0z m1193 0
c5 -5 6 -7 6 -16 0 -6 -1 -13 -3 -15 -10 -14 -13 -24 -13 -36 0 -7 0 -14 2
-16 1 -3 2 -10 2 -16 0 -10 -1 -12 -6 -17 -6 -6 -7 -6 -18 -6 -11 0 -12 0 -18
6 -5 5 -6 7 -6 17 0 10 1 14 6 20 12 16 13 24 9 58 -2 21 2 27 23 27 9 0 11
-1 16 -6z m-302 -45 l-5 -5 -4 4 -5 5 4 4 5 5 4 -4 5 -5 -4 -4z m-57 -49 c3
-5 4 -22 1 -28 -4 -7 -12 -10 -28 -8 -1 0 -4 2 -7 5 -6 6 -7 24 -1 31 7 9 27
9 35 0z m-816 -33 c3 -3 3 -3 0 -6 -3 -3 -3 -3 -6 0 -3 2 -3 3 -1 6 4 4 4 4 7
0z"/>
<path d="M1816 2012 c0 -1 -2 -5 -5 -8 -5 -5 -5 -7 -5 -19 0 -7 0 -14 1 -16 3
-10 22 -10 34 0 9 8 12 17 11 33 -1 5 -11 9 -23 9 -5 0 -11 0 -11 2 -1 1 -2 1
-2 -1z"/>
</g>
</svg>
