<?xml version="1.0" standalone="no"?>
<!DOCTYPE svg PUBLIC "-//W3C//DTD SVG 20010904//EN"
 "http://www.w3.org/TR/2001/REC-SVG-20010904/DTD/svg10.dtd">
<svg version="1.0" xmlns="http://www.w3.org/2000/svg"
 width="1100.000000pt" height="2850.000000pt" viewBox="0 0 1100.000000 2850.000000"
 preserveAspectRatio="xMidYMid meet">
<metadata>
Created by potrace 1.15, written by Peter Selinger 2001-2017
</metadata>
<g transform="translate(0.000000,2850.000000) scale(0.500000,-0.500000)"
fill="#000000" stroke="none">
<path d="M1350 3815 c-1 -1 -36 -10 -45 -12 -5 -1 -41 -10 -82 -21 -18 -5 -36
-9 -40 -10 -4 -1 -12 -3 -17 -5 -6 -1 -10 -2 -10 -2 0 1 -2 0 -5 -2 -4 -1 -6
-2 -7 -2 -1 0 -3 -2 -6 -5 -10 -9 -16 -30 -11 -40 2 -4 7 -18 12 -32 5 -14 10
-28 11 -30 1 -3 5 -16 9 -29 4 -13 8 -25 9 -27 1 -2 0 -5 -3 -8 l-5 -5 -187
-1 c-102 -1 -187 -2 -188 -2 -2 0 -3 -1 -3 -2 0 -1 -1 -2 -3 -2 -4 0 -14 -12
-18 -21 -4 -10 -4 -29 0 -41 4 -12 15 -22 31 -30 20 -11 25 -22 18 -44 -4 -15
-5 -22 -1 -59 2 -14 -1 -19 -18 -27 -18 -10 -22 -13 -28 -25 l-5 -11 0 -63 c0
-53 1 -64 3 -70 4 -9 14 -21 18 -21 2 0 3 -1 3 -2 0 -2 -1 -2 31 -4 19 -1 28
-2 35 -6 5 -2 11 -4 13 -5 3 0 3 -1 -1 -1 -7 0 -12 -8 -12 -20 0 -10 0 -10 14
-25 19 -21 19 -25 1 -44 -20 -23 -20 -21 -21 -87 0 -49 0 -58 3 -65 4 -9 14
-21 18 -21 2 0 3 -1 3 -2 0 -2 2 -2 111 -3 l106 -1 10 5 c10 5 12 7 18 20 5
10 6 16 6 20 -3 14 11 22 33 21 15 -1 21 -6 24 -21 2 -5 3 -11 4 -13 1 -2 4
-8 7 -14 2 -6 6 -12 7 -14 4 -3 11 -15 10 -15 0 0 1 -2 2 -5 4 -8 6 -17 3 -20
-1 -1 -4 -4 -5 -6 -2 -2 -4 -5 -4 -6 0 -2 -2 -8 -4 -14 -6 -16 -6 -207 -1
-239 3 -19 4 -23 1 -38 -6 -35 -3 -43 19 -64 l15 -14 0 -11 0 -11 -15 -14
c-13 -13 -20 -22 -24 -37 -2 -7 -11 -17 -11 -13 0 2 -3 9 -8 15 -16 28 -39 77
-44 98 -4 17 -15 35 -27 48 -22 22 -21 27 13 39 22 8 24 33 3 54 -5 6 -13 12
-16 14 -10 6 -23 19 -26 27 -4 8 -7 22 -5 22 1 0 2 2 3 6 3 11 11 16 28 17 10
1 26 6 31 10 12 8 16 32 10 47 -2 6 -3 6 -17 5 -11 0 -15 1 -15 3 0 5 -3 2 -4
-3 0 -10 -8 -15 -23 -15 -14 0 -22 4 -24 13 -2 11 -14 31 -20 36 -11 9 -18 9
-84 9 l-62 -1 -9 -5 c-17 -10 -21 -22 -23 -62 -2 -42 -3 -63 -6 -99 -1 -7 -1
-18 -2 -26 -1 -13 -8 -76 -10 -94 -3 -26 -12 -75 -20 -112 -5 -23 -10 -45 -10
-48 -3 -14 11 -31 30 -37 12 -3 14 -6 10 -15 -3 -8 -14 -19 -19 -19 -3 0 -8
-12 -8 -19 0 -8 -10 -20 -17 -21 -3 0 -12 -2 -19 -4 -16 -5 -22 -11 -33 -33
-18 -35 -46 -79 -62 -98 -12 -12 -15 -26 -9 -40 4 -13 8 -15 23 -16 11 -1 13
-1 18 4 3 2 5 5 5 6 0 1 2 6 5 12 8 17 9 17 44 16 l30 -2 14 8 c13 6 20 7 21
2 1 -10 4 -32 5 -33 2 -4 -3 -21 -8 -25 -10 -10 -19 -10 -50 -2 -23 6 -30 6
-39 -3 -6 -6 -7 -9 -6 -13 0 -1 1 -6 1 -11 1 -6 3 -10 6 -13 2 -2 10 -11 18
-20 7 -9 16 -18 18 -21 9 -11 30 -39 42 -56 17 -26 20 -29 38 -28 13 1 14 1
21 9 10 12 23 28 29 36 2 3 6 8 9 12 6 7 13 32 11 40 -1 6 -11 9 -21 8 -14 -1
-22 5 -22 16 0 5 13 21 17 21 1 0 8 6 14 13 12 13 17 18 33 33 12 10 18 29 15
43 -2 9 -2 10 4 16 6 7 7 7 15 5 7 -2 10 -2 18 1 5 2 11 3 14 3 9 1 22 -7 30
-19 5 -5 10 -12 12 -15 3 -3 8 -10 12 -14 9 -12 50 -53 62 -63 9 -6 10 -7 22
-7 11 0 13 1 26 9 16 11 29 12 37 4 5 -5 5 -6 4 -25 -2 -22 0 -32 9 -40 2 -4
5 -6 6 -6 1 0 8 -3 16 -7 16 -7 65 -24 79 -27 4 -1 16 -3 26 -6 10 -2 21 -4
25 -5 4 0 18 -2 31 -4 34 -5 39 -3 65 23 25 26 26 27 33 44 6 16 10 20 24 20
13 0 19 -6 19 -20 0 -11 0 -11 -13 -24 l-14 -13 1 -13 c0 -12 1 -13 7 -18 19
-13 47 -8 63 12 12 15 15 17 24 17 9 0 12 -1 24 -17 4 -5 11 -11 14 -12 3 -1
6 -3 6 -4 0 -2 3 -3 90 -3 l85 -1 10 5 c19 9 26 21 32 58 0 3 5 20 9 38 5 18
9 33 9 35 3 13 21 66 30 88 12 29 12 32 9 44 -6 20 -31 22 -48 4 -17 -18 -38
-19 -58 0 -15 14 -22 15 -84 14 -69 -1 -159 0 -208 1 -21 1 -40 2 -41 2 -2 0
-3 0 -3 1 0 3 -22 11 -41 16 -7 1 -9 1 -10 -1 -2 -5 -18 -4 -23 2 -6 6 -6 19
1 25 5 5 20 6 22 1 1 -2 3 -2 8 -1 3 1 9 2 13 3 19 3 20 9 20 80 0 70 0 70
-21 93 -16 17 -18 24 -15 39 2 10 7 15 18 17 15 4 34 -5 34 -15 0 -3 7 -16 13
-25 2 -3 8 -8 14 -11 l10 -5 69 0 69 1 9 6 c13 8 18 20 20 44 2 16 3 21 6 24
5 5 25 15 39 20 22 6 37 17 43 30 5 11 6 112 1 124 -4 9 -14 21 -18 21 -2 0
-3 1 -3 2 0 2 -1 3 -124 3 -109 1 -120 1 -127 -2 -9 -4 -13 -11 -14 -24 0 -5
-1 -10 -2 -11 -1 -1 0 -2 1 -2 3 0 6 -18 4 -27 -4 -13 -11 -19 -27 -20 -9 -1
-14 1 -30 12 -13 9 -18 10 -39 11 -8 0 -18 2 -22 3 -14 5 -40 13 -47 13 -2 0
-5 2 -8 5 -7 7 -7 16 2 33 8 15 8 14 7 56 -1 14 -1 15 5 19 8 7 28 7 36 0 6
-4 6 -6 6 -20 0 -14 0 -15 -8 -23 -8 -9 -9 -10 -9 -23 0 -8 1 -15 1 -16 2 -4
11 -7 29 -10 3 -1 10 -3 16 -5 21 -7 39 -5 46 6 2 2 5 7 8 11 2 3 4 7 4 9 0 2
1 4 2 5 0 1 1 2 1 3 0 1 1 3 1 4 0 0 0 16 0 35 0 36 -2 48 -11 57 -4 4 -27 16
-32 16 -2 0 -6 3 -9 6 -5 5 -6 7 -6 17 0 13 2 16 12 27 7 7 12 18 11 20 -1 1
0 2 1 2 1 0 2 1 2 3 0 3 11 8 20 10 4 1 11 -1 25 -8 l20 -10 50 -1 c47 0 50 0
68 5 10 2 25 5 33 6 19 1 30 6 44 19 8 8 12 10 17 10 9 0 20 -5 29 -14 31 -29
64 -30 76 0 4 7 4 14 4 61 0 53 0 53 -5 64 -6 11 -9 14 -25 24 -12 9 -14 12
-14 24 0 12 2 15 14 24 19 12 19 12 19 27 l0 14 -11 5 c-8 3 -16 5 -26 6 -15
1 -38 8 -38 11 0 1 -2 2 -4 3 -5 0 -5 0 -1 1 5 0 12 8 20 24 9 16 14 18 50 15
23 -2 33 0 50 11 9 6 15 11 19 18 l5 9 1 151 c0 134 0 152 -3 159 -4 9 -14 21
-18 21 -2 0 -3 1 -3 2 0 1 -1 2 -2 2 -2 0 -90 1 -197 2 l-194 1 -6 5 c-5 4 -7
8 -9 16 -2 10 -9 22 -16 27 -7 6 -28 13 -40 13 -14 0 -19 23 -9 38 3 5 6 8 7
8 1 0 4 4 7 9 9 15 8 27 -3 51 -23 51 -27 57 -44 62 -7 2 -24 3 -26 1z m-13
-152 c3 -3 3 -3 0 -6 -4 -5 -11 1 -7 6 4 4 4 4 7 0z m101 -209 c5 -6 5 -12 0
-18 -7 -8 -22 -2 -22 9 0 11 15 17 22 9z m191 0 c7 -6 7 -19 1 -25 -6 -7 -19
-7 -25 -1 -7 6 -7 19 -1 25 6 7 19 7 25 1z m-450 -11 c4 -4 5 -7 5 -15 0 -14
-6 -20 -20 -20 -14 0 -20 6 -20 20 0 14 6 20 20 20 8 0 11 -1 15 -5z m471 -97
c7 -7 8 -20 2 -49 -5 -27 -6 -29 -18 -37 -6 -4 -12 -8 -13 -9 -2 -2 -4 -3 -5
-3 -3 -2 -10 -15 -11 -21 -1 -4 -2 -8 -2 -9 -1 -1 2 -4 5 -8 6 -5 13 -8 24 -8
3 0 6 -1 6 -2 0 -2 1 -1 2 2 2 3 3 4 7 4 5 -1 7 -4 15 -17 6 -12 10 -17 14
-19 l5 -2 -5 0 c-3 0 -6 -1 -7 -2 -3 -5 -20 -6 -119 -7 -113 -1 -108 -1 -138
-15 -5 -2 -12 -4 -16 -4 -4 0 -11 2 -16 4 -30 14 -31 14 -92 14 -53 -1 -56 -1
-61 -5 -11 -8 -17 -27 -13 -41 4 -14 -3 -30 -14 -35 -25 -10 -49 10 -42 35 4
14 -2 33 -13 41 -5 4 -9 4 -48 5 -37 1 -43 2 -51 5 -5 3 -11 5 -13 6 -3 0 -3
1 1 1 5 0 11 7 16 19 1 4 2 23 2 63 l-1 57 6 6 6 6 254 -1 c284 0 264 -1 283
15 20 16 22 17 34 17 9 0 11 -1 16 -6z m-732 -12 c5 -5 5 -11 0 -16 -10 -10
-27 5 -16 16 4 4 12 4 16 0z m826 -263 l-5 -5 -4 4 -5 5 4 4 5 5 4 -4 5 -5 -4
-4z m-315 -4 c4 -4 5 -7 5 -15 0 -14 -6 -20 -20 -20 -14 0 -20 6 -20 20 0 14
6 20 20 20 8 0 11 -1 15 -5z m240 -17 c11 -10 4 -26 -11 -29 -4 -1 -9 -2 -12
-4 -3 -1 -6 -2 -7 -2 -4 -1 -14 -9 -20 -15 -3 -4 -6 -12 -9 -27 -5 -26 -9 -31
-20 -31 -12 0 -15 5 -17 28 0 17 -1 20 -10 36 -7 14 -9 20 -9 27 0 13 6 19 19
19 9 0 24 -6 25 -10 1 -2 7 -3 16 -3 15 0 16 1 26 8 13 8 22 9 29 3z m-603 -8
c3 -2 8 -6 11 -11 6 -10 12 -15 20 -16 22 -3 25 -3 25 -1 0 1 3 2 6 2 7 0 14
-6 14 -13 0 -5 -6 -13 -10 -13 -2 0 -5 -1 -6 -3 -2 -2 -3 -2 -4 -1 -1 2 -12
-2 -12 -4 0 -1 -1 -2 -3 -2 -3 0 -3 0 -1 -3 2 -3 2 -3 1 -2 -2 1 -3 0 -3 -1 0
-6 -19 -18 -28 -18 -5 0 -10 4 -27 21 -24 23 -26 26 -26 40 0 24 19 34 43 25z
m-132 -51 c3 -3 4 -7 4 -14 0 -13 -6 -19 -19 -19 -13 0 -19 6 -19 19 0 7 1 11
4 14 7 8 23 8 30 0z m509 -57 c10 -13 4 -24 -12 -24 -10 0 -17 6 -17 16 0 16
20 22 29 8z m-161 -87 c9 -6 23 -23 27 -34 5 -11 4 -19 -2 -25 -17 -16 -69 19
-69 47 0 14 29 22 44 12z m-264 -118 c3 -2 7 -6 9 -11 3 -9 4 -22 1 -22 -1 0
-2 -2 -2 -4 0 -5 -12 -18 -22 -23 -4 -1 -10 -5 -12 -9 -5 -5 -6 -6 -12 -3 -11
4 -18 14 -18 25 0 16 11 41 21 46 10 6 24 6 35 1z m-15 -107 c4 -4 7 -9 7 -11
0 -6 -7 -13 -13 -13 -10 0 -17 14 -10 20 2 1 3 4 3 6 0 8 5 7 13 -2z m602 -75
c15 -5 29 -9 30 -9 12 0 18 -27 8 -37 -4 -5 -10 -6 -20 -5 -2 0 -15 4 -29 8
-14 4 -27 8 -30 8 -8 0 -32 9 -36 14 -8 10 -3 27 9 31 12 3 40 -1 68 -10z
m-190 -18 c6 -4 6 -6 6 -20 0 -17 -2 -21 -18 -26 -5 -2 -11 -5 -13 -6 -1 -2
-4 -3 -5 -3 -2 0 -3 -1 -3 -2 0 -1 -1 -2 -2 -1 -3 0 -4 -3 -9 -16 -11 -31 -9
-44 10 -62 19 -19 34 -24 58 -20 10 2 17 -3 17 -13 0 -12 -11 -17 -24 -11 -10
5 -41 5 -48 1 -3 -3 -9 -4 -16 -4 -9 0 -11 1 -16 6 l-7 6 2 19 c2 24 -1 31
-14 46 -6 6 -11 13 -11 16 -1 18 1 23 17 31 6 3 11 6 13 7 1 2 3 3 4 2 3 -2 8
4 9 10 0 3 2 10 4 15 1 5 3 12 4 15 2 11 9 15 24 15 11 0 14 -1 18 -5z m-432
-87 c4 -6 4 -24 -1 -30 -7 -9 -27 -9 -34 0 -5 6 -5 24 0 30 7 9 27 9 35 0z
m-81 -64 c12 -3 19 -18 13 -27 -3 -5 -4 -5 -16 -4 -15 2 -22 8 -20 18 2 13 9
17 23 13z m168 -32 c6 -12 14 -24 14 -21 0 1 2 0 5 -2 4 -2 10 -4 22 -4 26 -1
34 -8 34 -29 -1 -10 -3 -17 -11 -24 -8 -8 -14 -17 -15 -22 -1 -3 -3 -7 -5 -10
-1 -2 -2 -5 -1 -5 1 -2 -5 -13 -7 -13 -3 0 -6 9 -5 19 2 31 -12 53 -37 60 -10
2 -17 3 -23 2 -11 -1 -17 0 -17 4 0 2 -1 3 -2 3 -3 0 0 21 4 29 8 15 23 27 34
26 3 0 6 -3 10 -13z m-109 -60 c16 -2 32 -4 33 -5 4 0 12 -8 12 -12 1 -8 -1
-24 -2 -27 -1 -2 -4 -5 -7 -7 -5 -4 -25 -6 -25 -3 0 1 -1 2 -3 2 -2 0 -3 1 -3
2 0 1 -1 2 -2 2 -1 0 -7 4 -13 9 -7 5 -13 9 -19 10 -5 1 -10 2 -11 2 -1 0 -3
1 -4 1 -2 0 -4 3 -7 6 -4 7 -3 8 4 19 3 6 11 6 47 1z m-66 -41 c4 -4 5 -7 5
-21 0 -14 0 -16 -5 -20 -3 -2 -6 -4 -7 -4 -5 0 -27 -23 -24 -25 0 0 1 -4 2 -8
0 -5 1 -9 2 -10 6 -6 -8 -29 -18 -29 -5 0 -10 16 -7 21 2 2 2 4 2 5 -1 1 0 3
2 4 2 1 3 3 3 4 0 2 6 10 13 19 2 1 2 3 1 3 -1 0 -1 3 -2 6 0 3 -2 10 -4 15
-4 8 -5 13 -4 25 0 6 8 12 21 16 14 5 14 5 20 -1z m408 -17 c10 -9 3 -26 -10
-26 -8 0 -15 7 -15 15 0 13 16 20 25 11z m-343 -39 c9 -16 10 -29 1 -34 -6 -4
-26 3 -31 12 -10 15 -3 27 16 27 10 0 11 -1 14 -5z m406 -85 c5 -5 5 -11 0
-16 -10 -10 -27 5 -16 16 4 4 12 4 16 0z m217 -7 c3 -5 3 -5 0 -10 -2 -3 -5
-5 -7 -5 -2 0 -5 2 -7 5 -3 5 -3 5 0 10 2 3 5 5 7 5 2 0 5 -2 7 -5z m-286 -26
c5 -8 1 -16 -8 -16 -9 0 -13 8 -8 16 2 3 5 5 8 5 3 0 6 -2 8 -5z m123 -65 c9
-9 2 -24 -10 -24 -12 0 -19 15 -10 24 2 2 7 4 10 4 3 0 8 -2 10 -4z m421 -4
c5 -5 6 -7 6 -16 0 -15 -8 -23 -23 -23 -9 0 -11 1 -16 7 -9 8 -9 23 -1 32 9 9
24 9 34 0z"/>
<path d="M282 3782 c-3 -1 -6 -1 -7 0 0 0 -1 0 -1 -2 0 -1 -1 -2 -3 -2 -4 0
-14 -12 -18 -21 -5 -12 -4 -63 1 -75 4 -9 14 -19 23 -24 16 -8 16 -24 0 -32
-9 -5 -20 -17 -24 -26 -3 -8 -3 -20 -3 -128 l1 -119 -6 -6 -6 -6 -69 0 c-69 0
-80 -1 -80 -3 0 -1 -1 -2 -3 -2 -4 0 -14 -12 -18 -21 -3 -9 -4 -33 -1 -39 1
-2 1 -4 1 -4 -1 0 -2 -6 -2 -14 0 -8 1 -14 2 -14 0 0 0 -2 -1 -4 -1 -2 -2 -33
-2 -85 0 -69 0 -82 3 -88 4 -9 14 -21 18 -21 2 0 3 -1 3 -2 0 -2 1 -2 38 -3
31 -1 33 -1 41 3 5 2 9 6 10 8 0 2 3 9 5 16 3 10 3 13 1 15 -2 2 -2 3 2 8 2 3
5 6 5 7 3 1 2 15 0 25 -2 6 -6 12 -11 18 -4 5 -11 14 -14 20 -7 14 -10 18 -24
33 -6 7 -13 16 -15 21 -3 4 -5 8 -6 9 -4 3 -16 28 -16 35 0 10 7 17 18 17 10
0 16 -5 23 -18 10 -19 18 -32 25 -40 11 -14 15 -18 25 -25 15 -10 19 -15 19
-28 0 -6 -1 -11 -2 -12 -2 -1 -2 -15 0 -26 2 -6 6 -12 10 -17 10 -11 12 -14
12 -23 0 -5 1 -11 2 -13 1 -3 3 -11 4 -19 1 -8 4 -17 5 -20 2 -5 3 -19 3 -55
0 -44 0 -49 5 -68 6 -25 6 -27 0 -53 l-5 -21 1 -79 c1 -104 1 -97 -1 -182 l-1
-75 -6 -6 c-3 -3 -7 -6 -8 -6 -1 0 -21 -6 -45 -14 -24 -7 -56 -18 -73 -23 -58
-18 -61 -19 -69 -26 -9 -8 -12 -16 -12 -29 0 -8 70 -236 80 -259 6 -16 17 -24
32 -26 7 -1 13 0 34 9 14 5 64 25 111 44 95 38 148 60 149 62 0 1 1 2 2 2 3 0
15 9 22 16 18 17 24 20 46 22 28 3 38 9 47 28 7 15 15 19 31 14 15 -5 28 -7
34 -7 7 1 36 12 63 24 8 4 26 11 40 17 33 14 40 18 46 31 11 22 5 32 -27 44
-5 2 -9 3 -9 3 -7 -2 -13 1 -28 17 -11 12 -18 17 -22 18 -11 2 -16 13 -9 20 3
2 4 2 21 -4 21 -8 28 -8 39 1 11 8 15 19 15 35 0 30 -14 43 -42 40 -36 -4 -46
1 -46 25 0 18 6 24 24 27 4 1 9 3 13 4 3 2 6 3 7 3 2 0 3 2 4 5 2 6 0 28 -2
30 0 1 -8 2 -17 2 -14 0 -17 -1 -19 -4 -2 -2 -3 -3 -3 -2 0 1 -1 1 -3 0 -2 -3
-13 -6 -21 -8 -5 -1 -85 -28 -88 -30 -1 -1 -4 1 -7 4 -4 5 -5 8 -6 26 -1 12
-1 29 0 40 1 21 -1 34 -10 43 -4 4 -27 16 -32 16 -2 0 -6 3 -9 6 -5 5 -6 7 -6
19 0 26 -8 40 -28 46 -6 2 -16 5 -22 6 -13 4 -23 10 -31 17 -6 6 -6 7 -6 21 0
14 0 16 6 20 4 4 7 5 17 5 15 0 18 -1 28 -16 9 -13 18 -19 32 -26 12 -5 22
-14 22 -21 0 -2 1 -3 1 -2 1 1 8 2 19 1 13 0 18 0 17 2 -1 1 0 2 1 2 4 0 3
159 -1 171 -2 6 -5 9 -7 9 -2 0 -9 0 -15 0 -10 0 -13 0 -13 2 0 2 -1 1 -2 -2
-2 -8 -10 -13 -23 -13 -16 0 -19 2 -32 22 -6 9 -13 18 -15 20 -13 11 -18 19
-18 30 0 13 4 19 14 21 13 3 19 -1 36 -18 9 -9 17 -16 19 -16 16 -1 22 1 39
12 12 7 15 7 37 0 l18 -7 54 0 c54 0 65 1 65 3 0 1 1 2 3 2 4 0 14 12 18 21 5
11 5 237 0 248 -4 9 -14 21 -18 21 -2 0 -3 1 -3 2 0 2 0 2 -23 3 -16 1 -20 1
-37 -5 -24 -7 -26 -7 -50 0 -11 4 -22 6 -26 6 -6 -1 -8 0 -11 4 -3 4 -6 6 -9
6 -4 0 -4 0 -2 2 5 3 5 59 1 80 -4 18 -4 37 0 54 8 37 -3 57 -34 56 -28 -1
-34 1 -39 10 -4 7 -3 27 1 33 6 9 9 10 38 9 16 0 28 5 33 16 4 7 4 11 4 73 0
54 0 66 -3 72 -4 9 -14 21 -18 21 -2 0 -3 1 -3 2 0 2 -2 2 -58 3 -49 1 -54 1
-68 -3 -32 -9 -32 -9 -64 0 -15 4 -42 5 -52 2z m94 -193 c14 -6 26 -12 27 -14
8 -7 7 -31 -1 -39 -5 -6 -18 -8 -28 -6 -9 2 -11 4 -23 19 -3 4 -9 11 -12 15
-14 16 -17 26 -9 34 6 6 17 4 46 -9z m125 -228 c6 -4 6 -6 6 -20 0 -14 0 -16
-6 -20 -4 -4 -7 -5 -18 -5 -11 0 -14 1 -18 5 -6 4 -6 6 -6 20 0 14 0 16 6 20
4 4 7 5 18 5 11 0 14 -1 18 -5z m74 -189 c16 -7 16 -43 -1 -50 -15 -6 -34 -2
-39 9 -4 8 -4 24 0 32 5 12 23 15 40 9z m-240 -19 c5 -8 1 -16 -8 -16 -9 0
-13 8 -8 16 2 3 5 5 8 5 3 0 6 -2 8 -5z m-188 -54 c6 -5 7 -9 2 -9 -2 0 -4 -1
-4 -3 -2 -5 -8 -3 -12 2 -3 5 -3 5 0 10 5 6 7 6 14 0z m232 -163 c10 -9 3 -26
-10 -26 -8 0 -15 7 -15 15 0 13 16 20 25 11z m28 -174 c4 -5 4 -22 0 -30 -5
-10 -8 -27 -6 -40 3 -29 0 -40 -19 -56 -14 -12 -28 -26 -28 -28 0 -1 -4 -5 -8
-8 -11 -8 -22 -8 -29 -1 -8 8 -7 17 9 51 3 7 7 17 8 21 4 12 7 18 15 26 12 12
19 31 19 52 0 5 1 10 4 13 7 9 27 9 35 0z m34 -282 c11 -10 3 -28 -11 -28 -9
0 -16 6 -16 16 0 14 17 22 27 12z m-119 -102 c1 0 5 -3 8 -6 5 -5 6 -7 6 -18
0 -14 1 -13 -22 -32 -5 -4 -10 -9 -10 -10 1 -3 0 -6 -2 -5 -1 0 -1 -7 -1 -17
-1 -22 -1 -23 -25 -34 -9 -5 -19 -11 -22 -13 -13 -13 -18 -16 -28 -16 -9 0
-11 1 -16 7 -13 12 -6 35 10 39 7 1 33 13 40 18 25 20 30 30 29 55 -2 20 1 26
11 31 5 2 8 2 22 1z m58 -102 c5 -5 5 -15 0 -20 -9 -9 -24 -2 -24 10 0 8 6 14
14 14 3 0 8 -2 10 -4z"/>
<path d="M1769 2483 c-7 -9 -14 -20 -14 -23 -1 -2 0 -7 1 -13 5 -26 41 -24 50
2 4 11 4 14 0 21 -5 10 -9 12 -21 13 -7 0 -12 1 -13 1 -1 1 -2 1 -3 -1z"/>
</g>
</svg>
