<?xml version="1.0" standalone="no"?>
<!DOCTYPE svg PUBLIC "-//W3C//DTD SVG 20010904//EN"
 "http://www.w3.org/TR/2001/REC-SVG-20010904/DTD/svg10.dtd">
<svg version="1.0" xmlns="http://www.w3.org/2000/svg"
 width="1000.000000pt" height="2850.000000pt" viewBox="0 0 1000.000000 2850.000000"
 preserveAspectRatio="xMidYMid meet">
<metadata>
Created by potrace 1.15, written by Peter Selinger 2001-2017
</metadata>
<g transform="translate(0.000000,2850.000000) scale(0.500000,-0.500000)"
fill="#000000" stroke="none">
<path d="M262 3800 c-3 -1 -6 -1 -7 0 0 0 -1 0 -1 -2 0 -1 -1 -2 -3 -2 -4 0
-14 -12 -18 -21 -4 -9 -4 -33 0 -51 4 -17 4 -36 0 -55 -2 -9 -3 -22 -3 -33 1
-19 1 -19 -5 -25 l-6 -6 -64 0 c-64 0 -75 -1 -75 -3 0 -1 -1 -2 -3 -2 -1 0 -5
-3 -9 -7 -6 -6 -7 -8 -6 -17 0 -12 6 -23 16 -30 9 -7 12 -14 12 -26 0 -12 -3
-19 -12 -26 -3 -2 -8 -8 -12 -13 -9 -15 -8 -30 4 -41 2 -2 9 -9 17 -17 8 -7
14 -13 13 -13 0 0 0 -1 2 -2 1 -1 2 -3 1 -5 0 -2 -2 -3 -3 -2 -1 1 -5 0 -9 -1
-6 -2 -6 -3 -5 -11 0 -4 1 -9 2 -10 2 -1 2 -1 1 2 -1 2 0 3 3 3 2 0 5 1 5 3 1
2 3 3 4 3 2 0 3 1 3 2 0 1 3 2 7 3 7 2 8 2 3 4 -2 1 -4 3 -4 4 0 1 -1 1 -2 -1
-2 -3 -2 -2 -2 1 0 3 3 4 5 1 1 -1 3 -2 5 -1 2 1 6 2 9 2 3 1 8 3 10 4 6 4 22
4 28 0 3 -1 6 -6 7 -10 4 -13 13 -27 19 -32 7 -5 19 -10 25 -9 3 1 7 -1 11 -5
l6 -6 -1 -111 c0 -96 0 -112 3 -121 4 -12 11 -20 25 -30 14 -8 16 -12 16 -23
0 -11 -2 -15 -16 -23 -6 -4 -13 -10 -16 -14 -11 -12 -12 -18 -12 -101 0 -70 0
-78 4 -85 4 -10 9 -14 19 -18 11 -5 21 -13 21 -17 0 -1 -1 -5 -3 -7 -3 -4 -3
-4 -21 0 -22 5 -75 6 -93 2 -15 -4 -33 -4 -48 0 -7 2 -18 2 -28 2 -20 -1 -21
-1 -21 -3 0 -1 -1 -2 -3 -2 -4 0 -14 -12 -18 -21 -5 -11 -5 -199 0 -210 4 -9
14 -21 18 -21 2 0 3 -1 3 -2 0 -2 9 -3 37 -3 l26 0 6 -6 6 -6 -1 -23 c0 -17 1
-25 3 -32 4 -12 4 -25 0 -35 -4 -11 -4 -39 0 -49 4 -10 10 -15 24 -22 7 -4 14
-9 16 -11 3 -5 3 -5 -1 -10 -3 -3 -10 -8 -17 -11 -14 -6 -20 -13 -23 -24 -2
-6 -2 -118 0 -204 1 -7 0 -24 -1 -38 -1 -22 -1 -27 2 -34 4 -10 14 -22 18 -22
2 0 3 -1 3 -2 0 -2 2 -2 110 -3 l104 -1 20 5 c24 7 27 7 50 0 l19 -5 87 0 c84
0 92 0 105 6 10 4 23 7 28 7 6 0 23 -5 26 -7 8 -6 23 -6 168 -6 139 1 152 1
155 4 1 1 5 3 10 5 10 5 23 4 28 -1 14 -16 30 -35 37 -44 2 -2 5 -6 7 -8 4 -5
8 -10 22 -30 15 -22 20 -25 31 -27 20 -3 30 6 72 59 11 15 15 20 19 28 3 5 6
10 8 12 13 14 13 15 13 46 0 21 1 30 3 32 1 2 8 5 16 8 7 2 15 6 17 7 6 4 17
2 22 -3 5 -6 9 -18 18 -55 8 -31 13 -59 14 -75 2 -20 12 -37 24 -43 12 -6 21
-4 40 6 24 13 31 13 59 -1 l21 -11 25 0 c22 1 36 2 70 6 25 3 44 10 71 26 4 2
12 5 16 7 19 6 30 23 29 46 0 13 6 19 18 17 41 -6 47 -3 64 21 20 30 21 34 17
58 -1 9 -2 19 -2 21 2 13 6 21 12 28 4 5 11 16 16 26 10 20 13 34 20 104 2 17
4 36 5 42 1 11 0 16 -5 35 -4 15 -6 24 -6 31 2 19 7 54 10 62 11 27 11 28 9
35 -4 12 -14 20 -35 28 -8 3 -10 11 -6 17 2 3 5 5 7 5 6 0 28 11 32 15 8 9 10
19 11 62 1 39 1 41 -3 50 -3 6 -6 9 -11 11 -11 3 -20 4 -28 2 -10 -2 -21 1
-25 6 -6 7 -5 25 1 31 6 6 22 8 28 3 2 -1 8 -1 16 0 16 3 24 9 26 22 2 12 5
133 9 308 1 50 2 108 3 129 4 157 4 174 -4 182 -1 1 -8 2 -16 1 -11 0 -15 0
-15 2 0 5 -8 -19 -9 -27 -1 -11 -4 -17 -8 -21 -12 -10 -34 -9 -43 1 -4 4 -9
21 -7 22 0 1 -1 5 -2 9 -2 4 -4 9 -4 11 -1 6 -11 15 -20 18 -8 3 -15 3 -60 2
-67 -2 -84 -2 -133 0 l-41 1 -6 6 c-4 3 -6 6 -6 6 1 2 1 135 0 141 -2 10 -6
16 -20 30 l-14 13 4 33 c4 36 4 35 15 48 15 17 17 24 18 57 1 40 -3 49 -25 58
-5 2 -12 5 -16 5 -3 0 -16 4 -28 8 l-22 7 -86 -1 c-89 -1 -91 -1 -91 -3 0 -1
-1 -2 -3 -2 -4 0 -14 -12 -18 -21 -3 -7 -3 -23 -3 -133 0 -139 0 -138 13 -155
14 -18 17 -29 10 -42 -2 -3 -3 -7 -3 -9 0 -2 -1 -4 -2 -5 -1 -2 -5 -16 -8 -36
-1 -9 -3 -13 -7 -17 -8 -6 -26 -5 -48 4 -12 5 -21 7 -33 8 -14 1 -19 2 -24 6
-7 5 -8 5 -5 10 4 7 4 51 1 63 -4 10 -14 20 -31 29 -11 6 -14 8 -18 17 -10 20
-14 39 -11 56 5 28 3 37 -14 48 -8 5 -11 6 -22 6 -11 0 -13 1 -19 6 l-6 6 1
28 c0 18 -1 30 -2 33 -1 2 -1 4 -1 4 1 0 2 6 2 14 0 8 -1 14 -2 14 0 0 0 2 1
4 3 6 3 52 -1 61 -4 9 -14 21 -18 21 -2 0 -3 1 -3 2 0 2 -9 3 -25 3 -16 0 -32
-7 -40 -18 -15 -19 -35 -19 -50 0 -2 3 -9 9 -15 12 l-11 6 -42 0 c-43 0 -53
-1 -53 -3 0 -1 -1 -2 -3 -2 -4 0 -14 -12 -18 -21 -3 -7 -3 -16 -3 -55 l1 -47
6 -10 c5 -8 9 -11 24 -20 16 -8 20 -11 25 -20 4 -5 9 -12 11 -14 3 -2 6 -4 8
-6 1 -1 5 -3 8 -5 8 -4 14 -15 11 -21 -3 -8 -7 -8 -30 0 -12 4 -27 7 -34 8
-11 1 -18 3 -33 10 l-20 10 -94 0 -94 0 -6 6 c-6 6 -6 7 -6 20 1 20 -3 28 -20
47 -11 12 -15 17 -16 23 -2 14 2 23 13 34 17 16 22 25 20 37 -1 8 -3 12 -8 17
-4 4 -8 7 -9 7 -2 0 -3 1 -3 2 0 1 -1 2 -2 2 -7 1 -218 2 -222 0z m709 -92
c11 -10 3 -28 -11 -28 -9 0 -16 6 -16 16 0 14 17 22 27 12z m-626 -13 c17 -7
23 -40 9 -54 -8 -9 -39 -4 -45 7 -8 12 -7 32 1 41 7 7 24 11 35 6z m1073 -31
c5 -5 6 -7 6 -17 0 -10 -1 -12 -6 -17 -5 -5 -7 -6 -17 -6 -10 0 -12 1 -17 6
-5 5 -6 7 -6 17 0 10 1 12 6 17 5 5 7 6 17 6 10 0 12 -1 17 -6z m-926 -107 c3
-3 4 -7 4 -14 0 -13 -6 -19 -19 -19 -13 0 -19 6 -19 19 0 7 1 11 4 14 7 8 23
8 30 0z m-291 -3 c11 -10 3 -28 -11 -28 -9 0 -16 6 -16 16 0 14 17 22 27 12z
m736 -32 c8 -8 8 -24 0 -32 -3 -3 -7 -6 -9 -6 -3 0 -20 -6 -31 -11 -9 -4 -25
-9 -28 -9 -5 0 -11 8 -11 12 0 6 6 15 12 19 6 3 11 8 26 22 7 6 14 11 16 11
11 2 19 0 25 -6z m496 -11 c3 -5 3 -5 0 -10 -2 -3 -5 -5 -7 -5 -2 0 -5 2 -7 5
-3 5 -3 5 0 10 2 3 5 5 7 5 2 0 5 -2 7 -5z m-745 -4 c12 -4 18 -7 23 -11 6 -7
6 -8 0 -15 -5 -6 -35 -17 -47 -17 -13 0 -14 0 -20 6 -5 5 -6 7 -6 17 0 26 14
31 50 20z m210 -85 c10 -3 14 -9 14 -22 0 -11 0 -11 -10 -20 -24 -21 -26 -23
-27 -29 -1 -3 -2 -7 -3 -8 -1 -1 -3 -6 -4 -10 -1 -4 -5 -11 -8 -16 -3 -4 -6
-9 -6 -10 0 -2 -1 -3 -3 -3 -2 0 -3 -1 -3 -2 0 -1 -2 -2 -5 -3 -4 -1 -6 0 -9
3 -2 3 -4 6 -4 7 0 4 9 20 20 33 7 8 12 16 12 18 0 1 2 4 3 6 3 3 4 9 4 23 1
24 2 26 10 31 7 5 9 5 19 2z m-145 -7 c8 -8 7 -21 -2 -34 -11 -16 -17 -30 -18
-40 0 -8 -1 -11 -6 -16 l-6 -6 -47 1 c-39 0 -48 0 -55 -3 -9 -3 -19 -12 -26
-22 -10 -13 -13 -15 -21 -16 -7 -1 -8 -1 -14 5 -3 4 -7 9 -7 10 -1 2 -2 4 -3
4 -1 0 -2 1 -2 2 0 4 -8 12 -11 12 -2 0 -3 1 -3 2 -1 1 -4 3 -7 3 -3 0 -5 1
-5 2 0 2 -2 5 -5 7 -8 7 -8 18 0 27 6 6 7 6 22 6 17 0 29 4 38 13 6 5 20 12
26 13 13 1 30 8 36 15 14 14 24 17 33 11 3 -3 4 -5 4 -11 -1 -6 0 -9 3 -11 1
-1 2 -3 2 -4 -2 -2 16 -3 23 -2 4 1 8 2 9 1 0 0 1 1 1 2 0 1 1 4 3 5 2 2 3 7
3 11 0 12 7 18 20 18 8 0 11 -1 15 -5z m300 -17 c4 -4 13 -18 21 -32 10 -19
10 -19 7 -25 -7 -12 0 -38 13 -50 3 -4 6 -8 6 -9 0 -1 1 -3 3 -5 1 -1 3 -5 5
-9 1 -6 1 -7 -3 -11 -3 -2 -5 -4 -5 -5 0 -1 -3 -5 -7 -9 -13 -14 -15 -21 -15
-81 0 -45 0 -54 3 -61 4 -9 14 -21 18 -21 2 0 3 -1 3 -2 0 -2 1 -2 33 -3 24
-1 29 -1 32 2 1 2 4 3 5 3 1 0 2 2 3 4 2 4 4 30 3 30 -4 0 -8 13 -9 22 0 19 9
29 28 29 14 0 22 -5 27 -16 2 -6 7 -15 11 -20 16 -25 18 -32 13 -50 -1 -6 -2
-13 -1 -17 1 -9 5 -20 7 -20 1 0 2 -2 3 -3 1 -3 3 -4 7 -4 4 -1 8 -2 10 -3 1
-2 2 -2 1 -1 0 2 1 4 5 5 6 3 16 12 25 23 10 12 33 14 43 3 9 -8 9 -32 0 -40
-7 -8 -20 -9 -39 -3 -8 3 -11 3 -27 -1 -9 -1 -26 -11 -36 -20 -2 -2 -6 -8 -8
-13 -7 -14 -4 -29 11 -54 12 -21 11 -35 -4 -53 -15 -18 -20 -29 -22 -51 -1 -7
-3 -29 -5 -49 -5 -45 -5 -51 6 -61 9 -7 16 -9 34 -10 17 -1 24 -6 28 -20 2
-10 0 -23 -6 -30 -1 -2 -9 -6 -17 -10 -16 -7 -30 -19 -34 -30 -5 -10 -10 -16
-20 -24 -19 -15 -24 -25 -34 -67 -5 -20 -5 -25 -4 -38 3 -30 3 -32 -12 -48 -5
-4 -11 -12 -13 -18 -3 -5 -6 -9 -6 -10 -1 0 -2 -2 -2 -3 0 -5 -22 -58 -37 -90
-3 -5 -7 -15 -9 -21 -2 -7 -7 -15 -10 -18 -3 -3 -6 -7 -6 -8 0 0 -2 -4 -5 -8
-3 -4 -5 -9 -5 -11 0 -2 -1 -3 -2 -2 -1 0 -4 1 -7 2 -3 0 -9 4 -14 9 -4 4 -9
8 -10 8 -2 0 -3 1 -3 2 0 1 -1 2 -1 2 -1 -1 -6 0 -11 1 -5 0 -12 1 -16 2 -4 0
-7 1 -7 1 -1 0 -2 1 -3 1 -3 0 -12 9 -9 9 1 0 8 3 14 7 7 4 14 8 16 10 2 1 9
5 16 10 6 4 14 8 17 10 6 3 22 17 19 17 0 0 0 2 2 5 6 8 4 23 -3 37 -12 22
-32 55 -37 60 -7 7 -20 12 -37 13 -24 2 -28 8 -21 29 5 13 5 34 0 38 -2 3 -1
4 5 8 7 5 7 5 65 6 56 1 58 1 65 6 6 3 12 10 10 11 -1 0 0 2 1 3 3 4 4 17 2
32 -1 11 -1 11 7 19 4 4 10 10 14 13 3 2 8 9 11 15 l5 11 0 60 c0 50 -1 61 -3
67 -4 9 -14 21 -18 21 -2 0 -3 1 -3 2 0 2 -10 3 -57 3 l-46 0 -5 6 c-3 3 -8 5
-11 5 -5 0 -5 1 -2 2 3 1 3 1 0 4 -2 1 -2 3 -2 5 1 1 0 1 -2 -1 -2 -2 -3 -2
-3 -1 1 1 -3 2 -11 1 -12 0 -13 0 -13 4 0 4 1 4 13 4 8 -1 12 0 11 1 0 1 1 1
3 -1 2 -1 3 -2 3 -1 -1 2 2 10 6 17 1 2 2 76 2 165 0 159 0 161 -4 170 -6 13
-11 16 -24 17 -10 1 -11 1 -18 -6 -5 -4 -8 -9 -8 -10 0 -2 -2 -8 -5 -13 -3 -5
-4 -9 -3 -9 0 0 -1 -2 -4 -5 -3 -4 -7 -5 -13 -5 -11 0 -17 6 -17 17 0 9 4 15
16 23 4 3 8 6 10 7 1 2 3 3 4 3 2 0 3 4 4 9 1 1 2 3 3 4 2 2 5 6 7 10 3 5 13
16 22 25 13 12 19 21 23 29 6 12 6 13 6 45 0 18 -1 41 -1 51 -1 18 -1 19 5 25
9 9 24 10 34 0z m397 -27 c3 -4 -2 -13 -8 -13 -6 0 -10 -2 -19 -11 -11 -11
-22 -17 -28 -17 -8 0 -15 7 -15 15 0 10 6 14 25 17 9 1 17 4 19 5 7 6 22 8 26
4z m-160 -86 c16 -7 20 -37 7 -48 -12 -11 -34 -11 -43 0 -9 10 -9 32 0 42 7 8
24 11 36 6z m-115 -28 c7 -7 7 -19 0 -26 -6 -6 -18 -7 -24 -2 -6 4 -12 16 -10
22 3 10 26 15 34 6z m581 0 c7 -3 11 -9 14 -18 2 -10 0 -25 -6 -30 -2 -1 -7
-7 -12 -12 l-10 -8 0 -15 c0 -11 1 -15 3 -17 2 -1 3 -5 3 -12 0 -13 -6 -19
-19 -19 -13 0 -19 6 -19 19 0 7 1 11 3 12 2 1 3 3 3 4 0 1 2 3 4 5 2 1 3 3 3
4 -1 1 0 2 1 2 1 0 2 6 2 15 0 13 -1 16 -4 19 -11 11 -12 36 -2 45 9 8 24 10
36 6z m-1351 -12 c5 -4 6 -6 7 -16 1 -22 -5 -28 -27 -30 -14 -1 -14 -1 -18 4
-3 5 -4 10 -4 22 0 14 0 16 6 20 8 7 28 7 36 0z m315 -39 c4 -3 6 -8 7 -12 0
-4 1 -9 2 -12 2 -6 3 -12 3 -17 0 -2 2 -4 3 -4 7 -3 21 -22 21 -29 0 -4 -5
-16 -8 -18 -5 -4 -18 -33 -15 -35 0 -1 -2 -4 -6 -8 l-6 -6 -64 1 c-63 0 -64 0
-83 -5 -10 -3 -21 -6 -24 -7 -5 -2 -18 -6 -26 -7 -10 -3 -26 -3 -30 -1 -9 5
-13 24 -8 48 4 19 7 21 34 21 24 0 32 -1 52 -7 13 -4 17 -4 27 -1 11 3 20 19
22 38 2 18 4 20 24 30 15 7 22 12 33 23 8 7 16 14 19 14 9 2 18 0 23 -6z m89
3 c3 -3 3 -3 0 -6 -3 -3 -3 -3 -6 0 -3 2 -3 3 -1 6 4 4 4 4 7 0z m836 -31 c7
-3 12 -13 12 -25 0 -19 -9 -28 -28 -28 -19 0 -28 9 -28 28 0 17 6 24 22 28 5
1 14 -1 22 -3z m-1293 -8 c3 -5 4 -11 4 -20 0 -11 -1 -13 -6 -18 -6 -6 -7 -6
-18 -6 -11 0 -12 0 -18 6 -5 5 -6 7 -6 17 0 19 7 25 29 27 11 0 11 0 15 -6z
m1254 -101 c4 -4 5 -8 5 -11 0 -3 -1 -29 -1 -58 -1 -52 -1 -53 4 -61 6 -11 15
-19 30 -25 17 -7 21 -12 21 -28 0 -16 -4 -22 -21 -27 -18 -7 -28 -14 -33 -25
-9 -17 -8 -45 1 -55 6 -7 23 -13 35 -13 9 0 15 -6 15 -14 0 -8 -6 -14 -16 -14
-4 0 -11 -1 -16 -2 l-9 -1 0 -13 c1 -16 6 -25 19 -29 13 -4 16 -9 16 -23 0
-11 -6 -20 -14 -20 -6 0 -28 -11 -33 -16 -10 -10 -11 -17 -14 -76 -2 -42 -5
-82 -6 -97 0 -5 -1 -17 -2 -26 -2 -22 -3 -31 -6 -64 -5 -45 -7 -61 -12 -84 -4
-17 -5 -44 -2 -54 1 -3 2 -12 2 -19 1 -13 1 -14 -5 -20 -7 -8 -17 -8 -42 -1
-17 4 -24 5 -71 5 -64 1 -72 0 -79 -10 -4 -6 -17 -14 -23 -14 -1 0 -4 2 -5 5
-3 4 -3 6 -2 11 1 4 2 11 2 16 0 5 1 10 2 10 2 1 0 2 -3 2 -10 0 -11 1 -11 2
0 1 -1 2 -3 2 -2 0 -3 1 -3 2 0 1 -4 3 -8 5 -15 7 -22 21 -18 38 4 14 11 19
27 20 15 1 23 -5 30 -21 l5 -11 17 1 c10 0 17 1 19 3 3 5 39 117 45 144 1 2 4
15 7 28 3 13 6 26 7 29 0 3 2 13 4 22 6 23 2 37 -12 54 -7 7 -12 15 -14 22 -2
6 -8 20 -14 32 -7 13 -11 22 -11 27 0 17 20 23 33 11 l6 -7 17 1 c23 1 24 3
24 32 1 12 0 22 0 24 -13 38 -13 42 2 63 5 6 6 10 6 17 0 13 -3 18 -20 29 -17
11 -18 13 -18 24 0 11 3 15 15 21 16 8 20 14 21 31 0 6 -2 12 -4 17 -5 10 -5
24 1 42 2 6 4 20 4 31 1 22 4 30 13 44 9 14 14 32 14 50 1 14 2 17 6 22 l5 5
33 0 33 0 5 -5z m-701 -21 c3 -4 5 -9 6 -20 1 -20 6 -33 14 -39 3 -2 14 -7 24
-11 9 -4 19 -9 20 -11 4 -6 4 -24 0 -29 -2 -2 -16 -8 -30 -14 -33 -13 -36 -14
-46 -13 -22 4 -26 27 -11 60 7 16 7 21 0 42 -7 19 -7 28 -2 34 6 7 20 7 25 1z
m-92 -47 c7 -4 10 -11 10 -23 0 -13 -4 -20 -11 -24 -4 -2 -15 -3 -38 -3 -31 1
-33 1 -37 5 -6 6 -6 15 -1 21 4 5 42 25 53 28 6 1 19 -1 24 -4z m955 -1 c19
-3 29 -7 31 -12 3 -10 -6 -15 -33 -18 -10 -1 -21 -3 -24 -4 -9 -4 -33 -8 -42
-8 -12 0 -18 6 -18 19 0 15 6 19 36 24 11 1 34 1 50 -1z m-1115 -68 c10 -9 3
-26 -10 -26 -8 0 -15 7 -15 15 0 13 16 20 25 11z m118 -69 c5 -4 6 -6 7 -16 1
-16 -2 -21 -12 -29 -20 -13 -29 -15 -91 -16 -37 -1 -58 -2 -62 -4 l-7 -2 1
-16 0 -16 -8 0 -9 0 1 13 c0 6 0 14 -1 15 -4 7 -21 10 -68 11 -25 0 -47 1 -48
2 -1 1 -5 0 -8 -2 -4 -1 -11 -5 -17 -7 -5 -2 -13 -7 -17 -11 -4 -4 -10 -7 -13
-8 -4 -1 -7 -2 -9 -2 -1 -1 -9 1 -17 2 -8 2 -25 4 -38 4 -24 1 -32 3 -34 11
-1 1 -2 5 -3 6 -3 5 -3 17 0 19 1 1 2 3 2 5 0 10 17 15 39 11 9 -2 25 -3 37
-3 14 1 23 0 26 -2 15 -8 49 -13 55 -7 1 2 4 3 5 3 5 0 18 10 17 12 -1 1 0 2
2 2 4 0 19 8 19 10 0 0 40 1 88 0 87 0 89 0 101 4 6 3 17 7 22 10 14 8 32 8
40 1z m203 -32 c2 -4 2 -6 0 -10 -3 -6 -8 -6 -13 0 -3 5 -3 5 0 10 5 6 10 6
13 0z m-349 -73 c11 -4 14 -7 28 -27 6 -8 10 -12 15 -13 9 -2 20 -3 25 -1 12
3 16 3 21 -2 4 -5 5 -6 4 -29 -2 -34 -5 -39 -26 -38 -18 0 -38 11 -38 21 0 4
-12 30 -16 34 -4 4 -21 13 -27 13 -6 0 -25 10 -26 15 -3 9 -2 25 2 28 6 4 25
4 38 -1z m276 -2 c7 -6 7 -19 1 -25 -6 -7 -19 -7 -25 -1 -7 6 -7 19 -1 25 6 7
19 7 25 1z m-774 -24 c4 -6 4 -24 -1 -30 -7 -9 -27 -9 -34 0 -5 6 -5 24 0 30
7 9 27 9 35 0z m932 -5 c4 -4 5 -7 5 -13 0 -11 -7 -18 -18 -18 -11 0 -18 7
-18 18 0 11 7 18 18 18 6 0 9 -1 13 -5z m-513 -21 c5 -5 5 -6 0 -11 -5 -6 -8
-6 -13 0 -3 5 -3 5 0 10 5 6 8 6 13 1z m405 -37 c6 -4 6 -6 6 -20 0 -14 0 -16
-6 -20 -4 -4 -7 -5 -18 -5 -11 0 -14 1 -18 5 -6 4 -6 6 -6 20 0 14 0 16 6 20
4 4 7 5 18 5 11 0 14 -1 18 -5z m-711 -16 c6 -3 9 -9 12 -24 1 -8 1 -10 -4
-16 -3 -4 -8 -8 -12 -9 -4 -1 -8 -3 -9 -4 -2 -2 -5 -1 -9 1 -4 1 -9 3 -12 4
-10 3 -14 27 -7 40 6 12 26 16 41 8z m319 -36 c5 -8 1 -16 -8 -16 -9 0 -13 8
-8 16 2 3 5 5 8 5 3 0 6 -2 8 -5z m-232 -5 c5 -5 6 -7 6 -16 0 -9 -1 -11 -7
-16 -5 -6 -7 -7 -16 -7 -14 0 -22 7 -23 23 -1 9 -1 11 4 15 10 10 26 11 36 1z
m542 -28 c14 -5 20 -16 18 -33 -2 -14 -10 -20 -24 -19 -6 0 -15 1 -19 2 -6 2
-11 2 -19 0 -10 -2 -19 -9 -34 -30 -6 -6 -16 -8 -38 -6 -27 3 -40 7 -60 18
-16 9 -18 10 -31 10 -14 0 -14 0 -23 -9 -9 -9 -19 -15 -23 -15 -7 2 -10 8 -9
16 1 4 1 7 1 8 -1 0 2 2 5 4 7 5 20 5 32 1 12 -4 27 -4 32 1 4 4 8 5 28 7 8 1
20 3 28 5 8 2 22 5 31 7 22 4 31 9 46 23 7 6 15 12 17 12 8 2 36 0 42 -2z
m-438 -4 c2 -4 6 -10 8 -14 6 -12 13 -20 16 -20 2 0 3 -1 3 -2 0 -1 3 -2 6 -3
4 -1 9 -3 12 -5 10 -6 10 -8 0 -28 -6 -10 -12 -21 -14 -24 -5 -8 -5 -24 0 -34
4 -6 6 -8 16 -11 15 -5 20 -10 20 -20 0 -18 -17 -23 -34 -10 -8 7 -10 8 -23 8
-13 0 -21 -2 -21 -6 0 -1 -2 -4 -5 -8 -3 -3 -5 -8 -5 -10 0 -3 -1 -2 -4 1 -2
2 -4 5 -4 6 0 1 -1 2 -2 2 -1 0 -2 1 -2 3 0 2 -1 3 -2 3 -1 0 -2 1 -2 3 0 9
-23 21 -42 21 -12 0 -18 6 -18 19 0 13 6 19 18 19 11 0 29 6 35 10 9 8 11 16
11 53 0 45 3 53 19 53 8 0 9 -1 14 -6z m-203 -22 c8 -3 10 -7 10 -17 0 -13 -6
-19 -19 -19 -13 0 -19 6 -19 19 0 10 2 14 10 18 6 2 11 2 18 -1z m1081 -45 c7
-3 12 -7 21 -15 6 -7 18 -17 26 -23 17 -12 19 -15 19 -32 -1 -10 -3 -14 -13
-25 -9 -10 -14 -15 -21 -26 -9 -13 -13 -15 -30 -14 -3 0 -7 2 -10 5 -6 6 -7
22 -1 33 4 7 6 28 4 36 -1 3 -15 16 -18 16 -6 0 -25 11 -28 17 -8 13 -3 28 10
31 9 2 28 1 41 -3z m379 -1 c4 -4 5 -13 2 -14 -1 -1 -3 -5 -4 -9 l-1 -8 -6 6
c-3 4 -7 8 -8 10 -9 11 7 25 17 15z m7 -50 c21 -18 22 -19 21 -30 0 -18 -5
-38 -13 -49 -8 -11 -25 -15 -39 -10 -23 10 -18 48 8 72 6 5 10 10 10 12 0 2 1
3 2 3 1 0 2 1 2 3 0 4 3 4 9 -1z m-784 -5 c9 -5 16 -9 19 -14 l4 -7 -6 -22
c-3 -13 -7 -30 -9 -38 -4 -19 -9 -24 -24 -27 -12 -3 -51 9 -59 18 -9 9 -7 30
5 44 4 6 9 15 12 21 10 22 12 24 17 28 8 7 24 5 41 -3z m-728 0 c3 -3 3 -3 0
-6 -3 -3 -3 -3 -6 0 -3 2 -3 3 -1 6 4 4 4 4 7 0z m576 -24 c8 -3 16 -5 18 -5
2 0 5 -2 7 -4 4 -4 4 -5 2 -21 -3 -22 -2 -33 7 -43 4 -4 12 -17 18 -29 20 -39
22 -42 23 -43 2 0 1 -1 -1 -12 -2 -13 -19 -15 -44 -7 -16 6 -17 6 -82 7 l-66
1 -6 5 c-5 4 -6 6 -3 8 5 5 46 69 73 114 22 37 25 39 54 29z m1045 -25 c6 -6
6 -28 -1 -35 -5 -5 -5 -5 -10 -2 -8 7 -9 29 -1 37 4 5 6 5 12 0z m-1527 -49
c5 -8 1 -16 -8 -16 -9 0 -13 8 -8 16 2 3 5 5 8 5 3 0 6 -2 8 -5z m927 -17 c5
-5 13 -23 17 -41 2 -10 3 -15 1 -22 -4 -15 -11 -19 -31 -20 -7 -1 -21 -3 -30
-6 -27 -8 -30 -8 -36 -3 -7 6 -7 17 0 23 3 3 9 7 14 9 17 8 24 18 30 36 3 10
5 18 4 18 0 1 2 3 5 6 7 5 19 5 26 0z m-700 -11 c2 -2 6 -8 9 -14 3 -5 8 -14
12 -19 20 -27 9 -57 -20 -55 -11 1 -17 3 -29 14 -16 14 -25 18 -48 18 -18 0
-19 0 -25 6 -6 6 -6 7 -5 18 1 6 3 13 4 15 6 7 7 7 10 4 3 -2 20 -12 35 -19 6
-4 19 -2 27 2 2 2 7 8 9 15 6 12 10 18 14 18 1 0 4 -2 7 -3z m-220 -40 c2 -2
3 -9 4 -18 2 -20 7 -35 14 -42 9 -10 12 -16 12 -26 0 -13 -6 -19 -20 -19 -13
0 -20 6 -20 18 0 10 -4 27 -7 34 -2 3 -7 10 -12 16 -8 9 -9 11 -9 21 0 13 4
19 14 21 8 2 19 -1 24 -5z m159 -78 c4 -4 10 -9 12 -10 6 -4 28 -11 35 -11 12
0 19 -17 10 -25 -3 -3 -13 -7 -22 -11 -9 -3 -21 -8 -26 -11 -15 -8 -30 -5 -43
9 -5 5 -11 21 -11 29 0 8 6 25 11 31 8 10 22 9 34 -1z m542 -6 c5 -8 1 -16 -8
-16 -9 0 -13 8 -8 16 2 3 5 5 8 5 3 0 6 -2 8 -5z m216 -12 c5 -4 6 -6 6 -17 1
-8 0 -15 -1 -18 -5 -9 -32 -19 -54 -18 -14 0 -20 5 -20 19 0 12 8 22 25 32 18
9 35 10 44 2z m-122 -3 l5 -5 -5 -5 c-4 -4 -5 -4 -7 -1 -1 2 -4 3 -5 3 -2 0
-3 2 -3 5 0 3 1 5 2 4 1 -1 3 0 4 2 4 4 4 4 9 -3z m521 -57 c17 -10 14 -44 -4
-51 -12 -5 -26 -3 -35 5 -10 8 -10 32 -1 42 8 9 28 11 40 4z m-549 -5 c5 -5 6
-7 6 -16 0 -9 -1 -11 -7 -16 -5 -6 -7 -7 -16 -7 -9 0 -11 1 -16 7 -9 8 -9 23
-1 32 9 9 24 9 34 0z m412 -8 c4 -6 4 -24 -1 -30 -7 -9 -27 -9 -34 0 -5 6 -5
24 0 30 7 9 27 9 35 0z m-1197 -8 c5 -5 6 -7 6 -17 0 -10 -1 -12 -6 -17 -5 -5
-7 -6 -17 -6 -10 0 -12 1 -17 6 -5 5 -6 7 -6 17 0 10 1 12 6 17 5 5 7 6 17 6
10 0 12 -1 17 -6z m631 1 c10 -10 5 -27 -13 -44 -15 -14 -20 -17 -30 -17 -16
0 -27 12 -29 34 -2 16 1 18 27 26 27 7 39 8 45 1z m-164 -7 c10 -9 3 -26 -10
-26 -8 0 -15 7 -15 15 0 13 16 20 25 11z m495 -57 c6 -6 5 -20 -1 -25 -6 -5
-19 -5 -24 0 -7 6 -7 19 -1 25 6 7 20 7 26 0z"/>
<path d="M716 3152 c-2 -1 -9 -2 -16 -2 -9 -1 -13 -1 -15 -5 -5 -5 -5 -18 -1
-26 l4 -6 14 1 c17 1 23 6 22 19 -1 4 0 7 0 7 1 0 1 2 1 4 -1 2 -2 4 -3 4 -1
0 -2 1 -2 3 -1 2 -2 2 -4 1z"/>
</g>
</svg>
