<?xml version="1.0" standalone="no"?>
<!DOCTYPE svg PUBLIC "-//W3C//DTD SVG 20010904//EN"
 "http://www.w3.org/TR/2001/REC-SVG-20010904/DTD/svg10.dtd">
<svg version="1.0" xmlns="http://www.w3.org/2000/svg"
 width="1000.000000pt" height="2850.000000pt" viewBox="0 0 1000.000000 2850.000000"
 preserveAspectRatio="xMidYMid meet">
<metadata>
Created by potrace 1.15, written by Peter Selinger 2001-2017
</metadata>
<g transform="translate(0.000000,2850.000000) scale(0.500000,-0.500000)"
fill="#000000" stroke="none">
<path d="M286 3810 c-3 -1 -6 -1 -7 0 0 0 -1 0 -1 -2 0 -1 -1 -2 -3 -2 -1 0
-5 -3 -8 -6 -20 -21 -16 -56 8 -74 18 -14 18 -20 0 -34 -8 -6 -12 -11 -16 -19
-5 -11 -5 -13 -5 -41 0 -17 1 -32 2 -34 4 -7 7 -15 6 -17 0 -1 1 -1 2 0 1 1 8
1 15 2 12 0 13 0 13 -4 0 -4 -1 -5 -12 -5 -7 -1 -14 0 -15 1 -2 1 -3 1 -3 0 1
-2 -2 -10 -6 -17 -1 -2 -2 -25 -1 -51 0 -55 1 -57 19 -77 11 -12 18 -31 20
-55 0 -13 0 -15 -4 -19 -9 -9 -22 -4 -39 15 -16 18 -39 29 -65 32 -7 0 -22 2
-33 4 -25 3 -36 1 -47 -11 -9 -9 -11 -18 -14 -50 -1 -14 -2 -30 -3 -36 -3 -36
-19 -170 -23 -194 -1 -6 -2 -15 -3 -21 -1 -5 -2 -12 -2 -14 -1 -2 -3 -15 -5
-29 -4 -21 -25 -125 -27 -134 0 -2 -2 -8 -4 -14 -4 -15 -4 -23 2 -35 3 -7 7
-12 13 -16 7 -5 87 -34 116 -42 5 -1 14 -4 20 -7 12 -5 23 -5 33 -1 10 4 14 9
19 21 5 10 14 52 14 66 1 8 1 8 1 2 1 -5 2 -6 5 -5 3 1 4 1 3 -1 0 -1 0 -2 1
-3 1 -1 2 -97 2 -285 0 -206 1 -285 2 -290 2 -4 5 -10 7 -13 5 -6 6 -7 18 -7
l12 -1 8 11 c16 20 18 22 25 22 3 0 8 -2 10 -4 4 -4 4 -6 3 -17 -4 -25 -1 -46
8 -65 1 -4 3 -9 4 -12 1 -7 6 -13 10 -13 7 0 12 -4 16 -12 3 -6 3 -7 0 -12 -2
-3 -5 -5 -7 -5 -3 0 -20 11 -22 15 -1 1 -2 1 -2 0 0 -1 -1 -1 -2 1 -1 1 -3 2
-5 2 -15 0 -23 -2 -29 -6 -4 -2 -9 -4 -12 -4 -10 0 -30 -12 -37 -22 l-6 -8 -1
-115 c0 -100 0 -115 3 -122 4 -9 14 -21 18 -21 2 0 3 -1 3 -2 0 -2 1 -2 40 -3
41 -2 47 0 70 15 13 9 17 10 25 10 8 0 12 -1 25 -10 20 -13 33 -17 48 -15 6 1
12 1 14 1 1 1 2 1 2 2 0 1 1 2 3 2 4 0 14 12 18 21 3 7 3 45 3 386 l0 379 -5
11 c-6 12 -10 15 -28 25 -15 7 -17 10 -17 24 0 11 2 14 17 24 9 7 17 22 19 41
1 9 4 21 6 26 4 12 5 31 2 31 -1 0 -2 1 -2 3 0 2 -7 9 -27 25 -7 6 -10 19 -7
31 2 8 4 10 19 22 8 7 33 36 33 39 0 1 1 1 3 -1 6 -6 20 -6 38 0 34 11 49 24
49 42 0 9 -1 10 -9 18 -5 5 -14 11 -20 14 -13 7 -18 14 -22 33 -3 15 -2 30 4
35 7 8 25 7 37 -3 8 -6 18 -22 18 -29 0 -10 11 -31 19 -40 5 -4 12 -10 15 -13
5 -5 6 -7 6 -15 0 -11 -3 -17 -14 -26 -8 -7 -14 -17 -18 -28 -2 -7 -1 -10 2
-23 6 -19 5 -31 0 -50 -4 -14 -4 -19 -4 -126 0 -104 0 -111 4 -118 5 -10 9
-13 24 -19 8 -3 15 -7 17 -9 3 -3 3 -4 -1 -7 -2 -2 -9 -5 -16 -8 -28 -11 -27
-10 -29 -100 -1 -64 -1 -77 -5 -94 -11 -53 -35 -102 -69 -139 -11 -12 -13 -18
-13 -31 1 -10 2 -12 8 -18 23 -21 28 -28 36 -42 4 -9 14 -25 22 -37 15 -21 30
-43 30 -45 0 -3 16 -27 21 -31 5 -5 7 -6 20 -6 l14 0 15 15 c26 25 63 54 113
86 10 7 22 15 24 19 6 5 12 18 14 27 5 28 6 30 17 33 5 1 12 0 21 -2 17 -5 33
-5 41 -1 7 4 17 16 25 31 3 6 9 14 14 18 4 4 15 14 24 23 23 22 28 21 43 -9
10 -18 15 -23 33 -31 23 -9 35 -8 68 8 13 7 25 11 27 11 8 -1 6 -13 -2 -25 -4
-5 -12 -16 -19 -26 -11 -15 -24 -34 -32 -43 -1 -2 -5 -7 -8 -11 -6 -8 -10 -14
-14 -18 -1 -1 -8 -10 -16 -19 -8 -9 -16 -20 -19 -23 -13 -14 -28 -31 -40 -43
-13 -13 -20 -26 -24 -42 -2 -8 -2 -11 1 -22 2 -7 6 -15 9 -18 5 -7 24 -20 30
-21 18 -4 25 -5 32 -5 7 0 21 -5 35 -12 10 -5 15 -5 27 0 5 3 13 6 18 8 10 5
22 4 27 -1 6 -5 6 -22 1 -28 -2 -3 -4 -5 -4 -4 0 2 -15 -5 -18 -9 -5 -6 -7
-15 -5 -25 1 -8 2 -10 11 -15 7 -5 11 -6 19 -6 19 0 19 0 55 40 8 8 17 20 22
25 4 5 13 16 21 25 17 20 21 29 17 45 -3 13 -5 16 -13 20 -8 4 -29 4 -37 0
-10 -5 -25 -5 -31 2 -7 7 -7 25 0 32 7 7 20 7 35 0 12 -7 30 -7 43 0 9 5 13 6
32 6 25 0 30 1 37 7 5 3 35 47 53 76 5 8 14 23 20 33 6 10 11 18 11 18 0 1 2
4 4 7 3 4 6 10 7 14 2 4 3 5 3 4 0 -2 1 -4 2 -4 0 0 3 -3 4 -6 3 -5 4 -13 4
-66 0 -34 0 -63 1 -66 0 -3 1 -13 2 -22 3 -49 19 -88 48 -117 18 -18 20 -19
46 -32 33 -16 56 -19 125 -19 l49 1 9 5 c7 5 8 8 11 17 2 7 3 17 3 24 0 9 1
12 5 16 7 7 23 7 30 0 3 -3 5 -6 5 -7 0 -4 12 -22 16 -23 1 -1 8 -2 14 -3 13
-2 17 1 37 22 35 35 56 90 62 163 0 7 2 21 3 31 3 33 7 96 7 122 0 24 0 26 -6
37 -8 16 -21 25 -33 24 -13 -1 -15 -2 -18 -8 -4 -11 -2 -22 8 -38 16 -27 4
-53 -23 -52 -23 1 -29 11 -29 53 0 21 1 26 4 34 10 19 6 41 -6 47 -4 2 -11 6
-16 10 -8 6 -10 7 -20 6 -13 -1 -19 -5 -24 -15 -3 -6 -4 -14 -4 -73 -1 -38 -2
-75 -3 -87 -2 -12 -3 -27 -4 -34 -1 -10 -3 -13 -8 -17 -5 -5 -7 -5 -22 -4 -15
1 -17 1 -22 6 l-6 6 0 259 c-1 142 -1 261 -2 263 -1 4 -2 4 -18 5 -11 0 -18 1
-19 3 -2 1 -2 1 -2 -1 0 -5 -8 -20 -13 -23 -6 -4 -26 -5 -33 -1 -12 7 -15 26
-4 45 6 13 12 32 12 42 0 4 1 9 3 13 6 11 2 38 -7 48 -2 3 -2 6 -1 13 3 19 2
45 -2 54 -8 16 -5 28 14 59 5 8 9 15 9 16 0 3 10 8 14 8 5 -1 12 -7 12 -9 -1
-5 3 -37 4 -47 2 -12 0 -24 -7 -33 -9 -13 -13 -28 -13 -53 -1 -26 8 -38 28
-41 19 -3 37 6 50 25 10 14 15 18 25 19 13 1 20 -2 26 -11 3 -4 7 -7 8 -8 0 0
1 -2 1 -3 0 -3 13 -15 20 -17 3 -1 11 -2 19 -2 25 1 34 0 49 -2 8 -1 18 -2 23
-1 4 1 9 2 10 1 0 0 1 1 1 2 0 1 1 2 3 2 4 0 14 12 18 21 5 11 5 182 0 199 -4
14 -12 24 -24 30 -10 5 -10 5 -96 6 l-86 0 -5 6 c-5 4 -5 6 -3 13 2 10 -2 31
-5 31 -1 0 -2 1 -2 3 0 1 -3 4 -6 6 -6 3 -10 4 -30 4 -25 -1 -32 1 -39 12 -4
6 -26 17 -35 16 -9 0 -14 4 -10 8 2 1 5 2 7 1 2 -1 11 -2 20 -2 12 0 17 1 26
5 7 3 17 5 31 7 24 3 27 4 36 11 12 10 21 28 23 43 2 14 9 112 10 136 1 14 2
28 2 32 0 4 1 18 1 32 1 24 1 25 6 31 5 5 7 5 24 5 25 0 38 4 49 15 10 9 19
14 29 16 30 5 38 10 48 28 7 14 8 23 8 71 0 51 -1 60 -11 75 -9 14 -12 20 -17
36 -5 16 -13 25 -26 29 -10 3 -417 3 -425 0 -7 -3 -16 -11 -18 -17 -2 -7 -5
-21 -3 -21 3 0 10 -18 11 -27 3 -16 -10 -19 -31 -8 -16 10 -22 17 -22 29 0 13
-5 30 -12 36 -18 19 -49 11 -66 -17 -5 -8 -6 -11 -5 -17 1 -4 2 -9 2 -10 1 -2
4 -10 7 -18 5 -13 15 -46 19 -63 1 -6 -2 -21 -7 -26 -9 -11 -31 -11 -43 0 -9
7 -10 18 -3 50 3 16 7 31 8 33 1 2 2 12 1 22 -1 16 -1 19 -6 24 -3 4 -5 7 -5
8 0 3 -10 13 -17 17 -5 4 -21 5 -21 3 0 -1 -1 -2 -3 -2 -4 0 -14 -12 -18 -21
-5 -11 -5 -207 0 -218 4 -9 14 -21 18 -21 2 0 3 -1 3 -2 0 -2 1 -2 41 -3 37
-1 43 0 52 8 5 4 13 20 14 28 0 8 5 15 9 15 4 0 9 -7 9 -15 1 -3 3 -10 5 -15
9 -21 14 -22 65 -22 38 0 55 2 55 6 0 1 1 2 3 2 1 0 2 4 1 15 0 14 0 15 4 15
3 0 1 1 -3 2 -10 1 -16 10 -16 25 0 19 9 28 28 28 19 0 28 -9 28 -28 0 -17 -6
-25 -19 -25 l-5 0 5 -2 c3 -1 4 -2 3 -2 -3 0 -4 -17 -2 -27 2 -9 19 -16 35
-14 16 1 23 2 32 7 14 6 34 2 40 -8 4 -7 3 -27 -1 -33 -7 -11 -26 -13 -42 -5
-15 8 -30 13 -38 11 -15 -3 -28 -24 -30 -47 -1 -7 -1 -17 -2 -22 -5 -50 -4
-59 7 -84 10 -20 9 -28 -6 -48 -10 -14 -16 -31 -20 -67 -2 -19 -6 -44 -7 -56
-2 -12 -4 -24 -4 -27 0 -3 -3 -7 -6 -10 -6 -5 -8 -6 -21 -6 -29 0 -42 7 -43
25 -3 18 -1 22 19 35 20 13 28 24 32 41 1 7 3 15 3 18 5 24 -1 36 -19 42 -8 3
-14 3 -24 2 -12 -1 -13 -1 -17 4 -4 4 -4 6 -4 15 2 25 15 54 27 60 2 1 10 2
19 3 28 1 41 11 46 37 8 37 3 52 -18 62 -7 4 -14 4 -95 4 -86 0 -87 0 -96 -4
-21 -11 -26 -21 -32 -66 -2 -17 -5 -33 -5 -36 -1 -3 -2 -11 -3 -18 -1 -8 -3
-22 -5 -31 -1 -10 -3 -22 -4 -27 -1 -5 -2 -12 -2 -15 -2 -10 4 -28 9 -30 9 -2
25 -1 30 2 3 3 7 3 19 2 8 -1 16 -1 18 -1 12 -1 35 7 35 12 0 3 12 8 23 9 11
1 12 1 16 -4 4 -4 4 -6 4 -16 -2 -21 -8 -26 -32 -22 -14 2 -32 -5 -43 -16 -5
-5 -17 -13 -30 -19 -18 -9 -23 -13 -38 -28 -31 -32 -46 -53 -46 -66 0 -4 -1
-4 -2 -2 0 2 -2 4 -3 3 -4 0 -6 9 -7 26 0 20 -1 24 -4 32 -2 5 -2 5 -17 5 -10
0 -15 -1 -15 -2 -1 -2 -1 3 -2 11 l-1 14 -1 -16 c0 -23 -7 -31 -27 -32 -23 -1
-35 18 -28 43 3 15 10 19 31 19 17 -1 24 -4 24 -10 0 -3 1 -3 1 -1 1 2 3 3 7
3 5 -1 6 0 7 4 2 6 2 11 0 17 -2 10 3 31 12 49 5 10 10 21 11 24 1 3 2 24 2
59 0 50 0 54 -5 71 -6 23 -6 33 0 56 9 32 6 63 -5 73 -6 5 -27 11 -36 10 -10
-1 -16 6 -16 17 0 7 1 10 9 18 4 5 9 10 11 13 4 4 6 26 4 35 -4 12 1 23 17 39
16 17 20 26 18 39 -1 10 -10 23 -15 23 -2 0 -4 1 -4 2 0 1 -3 3 -6 4 -6 3 -15
12 -25 26 -3 6 -8 10 -16 13 l-11 5 -134 0 -135 -1 -9 -5 c-9 -6 -17 -16 -26
-33 -5 -10 -12 -14 -26 -14 -13 1 -21 6 -28 19 -13 23 -27 33 -46 33 -11 0
-16 -1 -18 -3 -1 -1 -4 -2 -7 -4 -8 -4 -24 -28 -29 -46 -5 -14 -5 -17 -5 -69
0 -30 1 -56 1 -58 1 -2 4 -9 6 -16 5 -15 5 -23 0 -38 -2 -7 -5 -14 -5 -16 0
-1 -1 -4 -2 -5 0 -1 -1 -7 -1 -13 -1 -15 -3 -22 -7 -20 -2 0 -3 -1 -4 -4 0 -2
-1 -1 -1 4 0 10 -9 27 -17 35 -6 5 -9 6 -19 6 -11 0 -11 0 -21 -10 -14 -14
-21 -18 -32 -18 -13 1 -16 7 -15 29 1 20 1 120 0 144 0 10 0 29 1 43 2 30 -1
41 -14 57 -14 17 -15 19 -15 29 0 9 7 24 12 24 1 0 -1 28 -3 32 -3 7 -14 8
-115 8 -55 0 -101 -1 -104 -2z m109 -109 c6 -4 8 -8 9 -17 1 -14 0 -20 -4 -25
-9 -10 -33 -11 -42 -1 -9 8 -9 32 0 41 7 7 27 8 37 2z m64 -4 c3 -3 3 -3 0 -6
-3 -3 -3 -3 -6 0 -3 2 -3 3 -1 6 4 4 4 4 7 0z m1222 -88 c6 -4 6 -6 6 -20 0
-14 0 -16 -6 -20 -4 -4 -7 -5 -18 -5 -11 0 -14 1 -18 5 -6 4 -6 6 -6 20 0 14
0 16 6 20 4 4 7 5 18 5 11 0 14 -1 18 -5z m-1368 -23 c1 -2 3 -5 3 -5 0 -3 2
-10 5 -17 12 -27 16 -29 54 -31 24 -1 36 -9 45 -30 2 -6 5 -11 6 -11 1 0 2 -1
2 -2 0 -2 4 -7 8 -13 6 -8 9 -11 12 -10 6 1 12 -10 8 -14 -3 -2 -5 -2 -17 0
-17 4 -35 3 -41 -2 -5 -5 -22 -5 -29 0 -2 2 -7 10 -11 16 -7 15 -16 23 -32 29
-17 7 -20 11 -20 27 0 9 -2 18 -6 31 -6 19 -7 26 -4 32 3 4 12 4 17 0z m457
-2 c5 -6 5 -12 0 -18 -7 -8 -22 -2 -22 9 0 11 15 17 22 9z m299 -1 c12 -7 14
-33 3 -43 -8 -9 -32 -9 -40 0 -9 8 -9 32 0 41 7 7 27 8 37 2z m-175 -47 c5 -6
5 -12 0 -18 -7 -8 -22 -2 -22 9 0 11 15 17 22 9z m55 -75 l6 -6 0 -41 0 -41
-6 -6 -6 -6 -25 1 c-23 1 -35 3 -64 11 -6 2 -13 3 -16 4 -3 1 -9 4 -12 8 -4 3
-10 8 -13 10 -7 5 -29 13 -36 13 -12 0 -18 20 -9 29 5 6 19 7 25 2 20 -13 43
-20 57 -15 5 2 10 3 11 2 0 0 1 1 1 2 0 1 1 2 3 2 6 0 18 13 18 20 0 3 1 6 2
6 2 0 5 2 7 6 5 5 5 5 28 5 l23 0 6 -6z m102 -3 c11 -10 3 -28 -11 -28 -9 0
-16 6 -16 16 0 14 17 22 27 12z m658 -47 c3 -3 3 -3 0 -6 -3 -3 -3 -3 -6 0 -3
2 -3 3 -1 6 4 4 4 4 7 0z m-1222 -62 c7 -6 9 -16 8 -34 0 -16 -1 -18 -6 -23
-6 -6 -8 -7 -17 -7 -9 0 -11 1 -16 6 -8 8 -8 17 -3 35 7 22 23 33 34 23z
m1124 -17 c10 -9 3 -26 -10 -26 -8 0 -15 7 -15 15 0 13 16 20 25 11z m-868
-20 c5 -5 6 -7 6 -16 0 -9 -1 -11 -7 -16 -5 -6 -7 -7 -16 -7 -9 0 -11 1 -16 7
-9 8 -9 23 -1 32 9 9 24 9 34 0z m335 -3 c5 -5 5 -8 1 -36 -1 -3 -2 -12 -2
-20 -2 -14 -8 -25 -15 -25 -1 0 -2 -1 -1 -3 1 -3 1 -3 -1 -2 -1 1 -2 4 -3 6 0
2 -1 6 -2 8 -1 2 -3 9 -3 15 0 6 0 13 -1 16 0 3 -1 12 -2 21 -1 14 -1 16 3 20
7 7 20 7 26 0z m615 -26 c5 -8 1 -16 -8 -16 -9 0 -13 8 -8 16 2 3 5 5 8 5 3 0
6 -2 8 -5z m-1049 -2 c9 -5 12 -11 12 -24 0 -10 -1 -12 -6 -17 -6 -6 -7 -6
-18 -6 -11 0 -12 0 -18 6 -5 5 -6 7 -6 18 0 9 1 13 4 17 7 8 22 11 32 6z m305
-18 c6 -4 6 -6 6 -20 0 -15 0 -16 -6 -20 -5 -5 -7 -5 -21 -4 -19 1 -47 9 -53
15 -9 9 -5 23 9 27 11 3 32 7 45 7 13 0 16 -1 20 -5z m108 -57 c1 0 2 -3 3 -5
0 -2 3 -7 6 -11 8 -10 9 -26 3 -32 -5 -6 -22 -5 -32 0 -7 4 -13 17 -13 26 0 5
11 15 16 17 2 1 4 2 4 3 0 1 2 2 5 3 2 0 4 1 5 1 1 0 2 -1 3 -2z m-611 -31 c4
-4 4 -6 3 -20 l-1 -16 10 -9 c21 -19 22 -21 22 -26 1 -18 -4 -24 -19 -24 -19
0 -23 13 -16 46 1 2 0 4 -1 3 -1 -1 -2 1 -3 3 -3 8 -12 17 -20 18 -8 1 -26 -4
-30 -9 -13 -15 -33 -18 -43 -7 -6 5 -7 7 -7 16 0 9 1 11 6 16 7 7 17 9 28 5
11 -4 26 -4 40 2 6 2 12 5 12 6 4 3 15 1 19 -4z m244 -19 c5 -5 5 -11 0 -16
-10 -10 -27 5 -16 16 4 4 12 4 16 0z m107 -9 c1 -2 4 -3 5 -3 1 0 4 -4 7 -10
12 -22 20 -28 39 -28 12 0 17 4 24 16 3 6 5 9 12 15 6 6 14 6 37 1 10 -2 18
-4 20 -4 1 1 5 -2 8 -5 l6 -6 0 -43 0 -43 -6 -6 -6 -6 -24 1 c-20 1 -25 2 -32
6 -5 2 -10 4 -12 4 -2 0 -3 1 -2 2 0 2 -9 8 -21 14 -32 17 -37 20 -54 24 -19
5 -23 9 -26 28 -3 19 -1 38 4 43 5 4 17 4 21 0z m-519 -21 c5 -6 5 -14 0 -19
-13 -11 -29 5 -18 19 4 5 13 5 18 0z m1314 -83 c16 -7 20 -37 7 -48 -12 -11
-34 -11 -43 0 -9 10 -9 32 0 42 7 8 24 11 36 6z m-178 -24 c7 -8 12 -24 12
-40 1 -10 0 -12 -5 -17 -10 -10 -31 -9 -36 3 -8 15 -2 51 10 57 9 5 12 4 19
-3z m-614 1 c1 0 5 -3 8 -6 8 -8 8 -25 0 -38 -16 -28 -24 -36 -37 -36 -13 0
-18 7 -16 22 1 14 9 42 14 50 2 2 6 5 9 7 5 2 8 2 22 1z m-593 -22 c4 -4 5 -7
5 -17 0 -15 -2 -21 -10 -29 -6 -6 -12 -7 -21 -5 -7 2 -8 7 -3 22 2 7 4 16 4
19 0 12 16 18 25 10z m658 -57 c3 -5 3 -5 0 -10 -2 -3 -5 -5 -7 -5 -2 0 -5 2
-7 5 -3 5 -3 5 0 10 2 3 5 5 7 5 2 0 5 -2 7 -5z m-695 1 c1 0 1 -2 1 -5 0 -5
-2 -7 -9 -10 l-9 -5 -4 4 c-5 5 -5 5 2 14 2 2 10 3 19 2z m1020 -1 c13 -6 18
-21 13 -40 -7 -28 -7 -34 7 -70 7 -18 14 -35 17 -39 8 -12 30 -19 44 -13 19 7
66 14 108 16 10 0 20 1 23 2 2 0 4 0 4 -2 0 -1 2 -4 5 -6 5 -4 7 4 -17 -70 -9
-27 -17 -50 -17 -51 0 -1 -1 -3 -2 -5 -3 -7 -3 -8 -1 -16 3 -15 5 -20 12 -33
6 -11 1 -19 -18 -27 -18 -7 -24 -15 -30 -33 -5 -18 -8 -23 -20 -39 -5 -7 -17
-29 -28 -50 -18 -37 -23 -43 -30 -39 -4 2 -5 4 -26 60 -9 23 -18 46 -20 51 -2
4 -8 19 -14 33 -17 41 -23 50 -38 66 -15 15 -15 15 -18 42 -1 18 -2 21 -14 45
-13 27 -18 35 -24 35 -2 0 -2 0 0 2 1 1 2 2 0 3 -1 0 -1 3 -1 6 1 3 2 4 4 4 1
-1 1 0 0 3 0 2 1 8 3 14 3 5 5 15 5 23 0 8 1 16 2 18 2 5 9 13 11 13 1 0 7 2
13 4 9 4 11 5 14 12 4 10 3 26 -3 32 -9 10 -9 33 0 43 7 8 24 11 36 6z m113
-9 c11 -3 20 -4 33 -4 18 0 19 0 23 -5 10 -11 5 -31 -9 -34 -28 -6 -47 -2 -64
15 -13 13 -16 21 -11 30 4 5 3 5 28 -2z m478 -5 c3 -5 3 -5 0 -10 -2 -3 -5 -5
-7 -5 -2 0 -5 2 -7 5 -3 5 -3 5 0 10 2 3 5 5 7 5 2 0 5 -2 7 -5z m-851 -29 c5
-5 5 -15 0 -20 -9 -9 -24 -2 -24 10 0 8 6 14 14 14 3 0 8 -2 10 -4z m498 -38
c9 -9 3 -24 -10 -24 -6 0 -9 1 -11 4 -7 11 -1 24 11 24 3 0 8 -2 10 -4z m107
-8 c4 -6 4 -24 -1 -30 -7 -9 -27 -9 -34 0 -5 6 -5 24 0 30 7 9 27 9 35 0z
m-686 -16 c6 -7 7 -12 7 -28 0 -15 -1 -19 -5 -19 -5 0 -13 -8 -16 -15 -5 -12
-11 -16 -24 -16 -10 0 -12 1 -17 6 -5 5 -6 7 -6 16 0 12 3 17 16 31 5 5 11 12
13 16 10 13 25 17 32 9z m-448 -33 c5 -2 7 -5 10 -13 2 -6 4 -13 4 -17 1 -3 2
-13 4 -22 5 -31 -2 -44 -27 -44 -14 1 -19 3 -23 11 -4 8 -6 30 -3 41 1 4 3 10
3 13 6 30 15 38 32 31z m521 -4 c3 -2 9 -7 13 -11 14 -14 23 -17 46 -17 23 0
32 3 45 17 18 19 29 19 47 1 4 -4 8 -7 9 -7 1 0 2 -1 3 -3 1 -4 -1 -9 -3 -9
-3 0 -15 -8 -16 -10 0 -1 -1 -2 -3 -2 -1 0 -19 -8 -41 -17 -69 -31 -70 -31
-70 -52 0 -9 1 -14 5 -21 7 -10 8 -27 2 -37 -4 -8 -3 -30 3 -42 5 -11 5 -16 1
-38 -4 -22 -9 -29 -28 -39 -9 -4 -21 -10 -27 -14 l-11 -6 -6 6 -5 6 0 116 c0
96 -1 118 -3 130 -2 8 -4 22 -4 30 -2 14 -1 15 3 18 7 5 33 6 40 1z m620 -34
c16 -7 20 -37 7 -48 -12 -11 -34 -11 -43 0 -9 10 -9 32 0 42 7 8 24 11 36 6z
m-757 -56 c3 -5 3 -5 0 -10 -2 -3 -5 -5 -7 -5 -2 0 -5 2 -7 5 -3 5 -3 5 0 10
2 3 5 5 7 5 2 0 5 -2 7 -5z m-436 -35 c8 -14 1 -30 -15 -30 -11 0 -18 7 -18
18 0 12 7 18 19 18 9 0 11 -1 14 -6z m735 -16 c5 -5 5 -11 0 -16 -10 -10 -27
5 -16 16 4 4 12 4 16 0z m505 -42 c4 -6 4 -24 -1 -30 -7 -9 -27 -9 -34 0 -5 6
-5 24 0 30 7 9 27 9 35 0z m-1150 -61 c3 -5 3 -5 0 -10 -2 -3 -5 -5 -7 -5 -2
0 -5 2 -7 5 -3 5 -3 5 0 10 2 3 5 5 7 5 2 0 5 -2 7 -5z m-112 -85 c5 -3 40
-38 43 -44 4 -7 3 -24 -1 -31 -3 -8 -12 -12 -24 -12 -16 0 -20 4 -30 25 -18
38 -21 50 -12 59 5 6 16 7 24 3z m748 -4 c4 -1 10 -5 13 -8 6 -5 7 -7 7 -16 0
-18 -10 -24 -38 -24 -30 0 -39 6 -39 26 0 20 9 26 34 25 8 0 18 -2 23 -3z
m-247 -82 c8 -9 2 -22 -10 -22 -3 0 -6 1 -6 2 0 3 -13 2 -21 -1 -4 -2 -12 -7
-17 -13 -8 -8 -9 -10 -10 -21 l0 -12 7 -6 c5 -4 12 -9 17 -11 11 -6 15 -12 15
-26 0 -19 -8 -27 -27 -27 -13 0 -20 4 -24 11 -3 6 -3 27 -1 30 7 9 7 37 1 33
-2 -1 -2 -1 -1 0 0 2 -5 6 -11 10 -16 10 -18 13 -18 28 0 10 1 12 6 17 3 3 7
6 9 6 13 1 20 0 25 -4 9 -5 29 -5 36 0 3 2 7 4 10 5 2 1 4 2 4 3 0 4 13 2 16
-2z m792 2 c1 0 5 -3 8 -6 5 -5 6 -7 6 -18 0 -11 -1 -13 -6 -18 -6 -6 -7 -6
-18 -6 -11 0 -12 0 -18 6 -5 5 -6 7 -6 17 0 14 3 20 12 24 5 2 8 2 22 1z
m-253 -17 c4 -9 9 -33 9 -41 0 -13 -18 -19 -28 -9 -4 5 -4 6 -4 30 1 23 2 26
6 30 4 5 5 5 9 1 3 -1 6 -6 8 -11z m-914 -4 c3 -3 3 -3 0 -6 -3 -3 -3 -3 -6 0
-3 2 -3 3 -1 6 4 4 4 4 7 0z m216 -100 c7 -4 10 -11 10 -23 0 -19 -8 -27 -27
-27 -15 0 -21 4 -25 17 -4 11 -2 24 5 31 7 7 27 8 37 2z m1142 -116 c12 -2 17
-8 17 -20 0 -13 -6 -19 -19 -19 -12 0 -18 5 -20 17 -1 4 -2 9 -2 11 -1 4 9 14
12 13 1 0 7 -1 12 -2z m-642 -44 c3 -3 3 -3 0 -6 -3 -3 -3 -3 -6 0 -3 2 -3 3
-1 6 4 4 4 4 7 0z m-743 -51 c1 0 5 -3 8 -6 5 -5 6 -7 6 -18 0 -11 -1 -13 -6
-18 -6 -6 -7 -6 -18 -6 -11 0 -12 0 -18 6 -5 5 -6 7 -6 17 0 14 3 20 12 24 5
2 8 2 22 1z m1213 -41 c12 -6 30 -7 50 -4 12 2 19 -3 19 -15 0 -11 -7 -17 -18
-15 -22 4 -40 3 -52 -2 -15 -7 -29 -7 -36 1 -5 5 -6 7 -6 17 0 10 1 12 6 17 8
8 21 8 37 1z"/>
</g>
</svg>
