<?xml version="1.0" standalone="no"?>
<!DOCTYPE svg PUBLIC "-//W3C//DTD SVG 20010904//EN"
 "http://www.w3.org/TR/2001/REC-SVG-20010904/DTD/svg10.dtd">
<svg version="1.0" xmlns="http://www.w3.org/2000/svg"
 width="1000.000000pt" height="2850.000000pt" viewBox="0 0 1000.000000 2850.000000"
 preserveAspectRatio="xMidYMid meet">
<metadata>
Created by potrace 1.15, written by Peter Selinger 2001-2017
</metadata>
<g transform="translate(0.000000,2850.000000) scale(0.500000,-0.500000)"
fill="#000000" stroke="none">
<path d="M1256 3839 c-15 -5 -63 -19 -105 -32 -12 -4 -24 -8 -27 -9 -4 -1 -6
-1 -6 -1 0 1 -3 0 -7 -2 -5 -1 -21 -7 -37 -12 -17 -5 -30 -10 -30 -11 0 -1 -1
-2 -2 -2 -7 0 -14 -14 -14 -27 0 -9 9 -31 15 -35 0 -1 -1 -3 -4 -6 -5 -5 -7
-5 -32 -6 -33 -1 -38 -4 -50 -21 -3 -4 -5 -8 -5 -8 0 -1 -3 -5 -6 -10 -6 -6
-7 -7 -15 -7 -8 0 -9 1 -15 7 -3 5 -6 9 -6 9 0 1 -2 5 -5 9 -5 7 -5 7 -19 8
-13 0 -15 -1 -17 -4 -14 -25 -17 -29 -26 -29 -7 0 -12 5 -20 19 -7 12 -17 22
-27 25 -5 1 -32 2 -87 2 l-79 0 -8 6 c-5 3 -8 6 -7 6 2 0 -4 13 -9 19 -8 9
-17 12 -114 41 -115 35 -106 35 -141 1 -11 -11 -22 -22 -24 -25 -5 -8 -5 -19
-1 -34 4 -17 5 -25 2 -30 -1 -3 -12 -14 -23 -25 -12 -11 -21 -22 -21 -23 0 -3
-11 -34 -15 -42 -3 -6 -2 -21 3 -40 4 -14 4 -17 1 -19 -1 -2 -3 -4 -3 -5 -1
-1 -7 -4 -14 -8 -12 -6 -28 -23 -28 -28 0 -1 -4 -11 -9 -21 -5 -11 -9 -20 -9
-20 0 -1 -4 -10 -10 -21 -5 -12 -11 -26 -13 -32 -5 -15 -12 -28 -23 -45 -5 -8
-14 -23 -20 -34 -6 -11 -12 -22 -14 -25 -2 -3 -4 -6 -4 -7 0 -1 -32 -54 -45
-74 -15 -23 -50 -73 -59 -84 -11 -14 -17 -28 -16 -41 2 -14 25 -64 34 -72 7
-5 30 -10 39 -8 9 2 19 -1 23 -6 3 -3 4 -8 4 -15 0 -11 0 -12 -9 -20 -6 -5
-11 -9 -11 -9 -3 0 -9 -12 -11 -22 -3 -13 -4 -9 15 -59 5 -13 14 -29 22 -38
10 -11 19 -15 37 -19 10 -2 12 -2 23 2 7 2 14 6 17 9 l4 4 5 -7 5 -7 1 -433
c1 -253 2 -435 3 -437 6 -13 19 -32 29 -43 18 -19 16 -18 126 -17 96 1 98 1
98 3 0 1 1 2 3 2 4 0 14 12 18 21 2 5 3 14 3 29 0 23 -3 33 -12 37 -7 4 -26 4
-31 0 -7 -6 -19 -4 -38 6 -10 5 -24 11 -32 14 -12 4 -16 7 -20 13 -9 13 -21
21 -39 26 -15 5 -20 15 -12 23 3 5 50 21 59 21 6 0 14 -6 32 -24 9 -9 20 -20
25 -23 5 -3 9 -6 10 -7 15 -15 23 -18 31 -12 1 1 3 1 4 0 1 0 1 2 0 5 -1 3 -2
7 -2 10 0 2 -1 4 -1 4 0 0 -1 3 -1 7 -1 8 -6 15 -13 19 -7 4 -18 15 -19 20 0
2 -2 7 -3 10 -4 9 -3 21 2 26 5 5 14 7 19 5 2 -1 3 -1 3 -1 0 1 4 3 10 4 13 4
19 8 24 18 4 7 4 10 4 426 0 452 1 427 -10 436 -9 8 -19 10 -40 8 -16 -1 -26
6 -30 21 -3 11 -1 50 2 63 4 15 18 27 34 30 9 1 27 10 33 16 11 10 11 12 11
107 0 83 0 89 -4 97 -4 10 -11 18 -18 22 -11 6 -18 14 -18 21 0 13 8 18 26 18
19 0 20 1 20 21 0 10 -1 17 -3 17 -1 0 -1 1 0 1 0 1 -3 4 -9 6 -11 5 -13 8
-16 26 -3 15 -2 19 5 24 6 3 26 3 39 -1 11 -3 26 -2 34 2 9 4 22 26 22 36 0 4
1 6 1 4 1 -2 3 -5 5 -7 5 -5 5 -7 7 -34 2 -29 2 -54 0 -76 -1 -16 -1 -20 2
-27 4 -10 14 -22 18 -22 2 0 3 -1 3 -2 0 -1 1 -1 3 -2 1 0 13 -1 26 -2 14 -1
28 -3 32 -5 5 -2 11 -4 14 -5 l6 -2 -6 0 c-7 0 -17 -9 -22 -21 -5 -11 -5 -161
0 -172 4 -9 14 -21 18 -21 2 0 3 -1 3 -2 0 -2 1 -2 44 -3 58 -2 58 -1 60 23 1
9 0 16 0 16 -1 0 -4 3 -7 6 -8 7 -12 21 -9 33 3 11 7 14 20 20 6 3 11 6 12 7
0 1 1 2 2 2 4 0 14 11 20 23 8 16 12 19 23 19 13 0 18 -4 22 -24 6 -29 6 -34
0 -40 -2 -3 -9 -7 -15 -9 -11 -4 -24 -15 -31 -26 -4 -5 -6 -27 -3 -27 1 0 2
-1 2 -1 -1 -7 7 -16 16 -18 3 -1 8 -2 11 -3 3 -1 8 -2 10 -2 6 0 20 -10 23
-15 1 -3 5 -14 9 -25 4 -10 8 -20 9 -21 3 -4 12 -28 12 -33 0 -13 -17 -18 -26
-9 -3 3 -4 5 -3 5 0 0 -2 5 -4 11 -9 17 -20 24 -39 26 -13 1 -18 3 -33 17 -18
17 -26 19 -66 17 -36 -1 -37 -1 -37 -3 0 -1 -1 -2 -3 -2 -4 0 -14 -12 -18 -21
-5 -11 -5 -161 0 -172 4 -9 14 -21 18 -21 2 0 3 -1 3 -2 0 -3 11 -3 85 -3 l74
0 6 -6 c4 -4 6 -7 5 -7 -4 0 -2 -4 2 -4 2 0 2 -1 -1 -2 -3 -1 -6 -4 -8 -6 l-4
-5 -130 0 c-128 0 -141 0 -141 -3 0 -1 -1 -2 -3 -2 -4 0 -14 -12 -17 -20 -5
-11 -5 -200 -1 -211 4 -9 14 -21 18 -21 2 0 3 -1 3 -2 0 -2 1 -2 68 -4 l63 -1
5 -5 5 -5 -23 -23 c-13 -12 -30 -29 -39 -37 -9 -8 -17 -15 -18 -16 -3 -3 -43
-36 -48 -39 -21 -15 -64 -43 -73 -47 -16 -9 -19 -14 -19 -31 l0 -13 37 -37
c20 -20 38 -37 40 -38 8 -3 27 -1 36 4 13 6 30 6 37 -1 6 -4 6 -6 6 -19 0 -14
-1 -16 -6 -23 -7 -10 -10 -18 -11 -30 0 -9 1 -11 7 -19 4 -5 9 -12 12 -16 4
-6 8 -8 12 -8 l6 -1 -5 0 c-4 -1 -6 -2 -6 -3 0 -4 -15 -7 -47 -10 -2 -1 -3 -1
-3 -2 0 -1 -1 -2 -3 -2 -4 0 -14 -12 -18 -21 -5 -11 -5 -199 0 -210 4 -9 14
-21 18 -21 2 0 3 -1 3 -2 0 -3 13 -3 133 -3 114 0 122 0 129 4 11 5 16 8 19
11 16 14 40 14 56 0 3 -3 8 -6 19 -11 7 -4 22 -4 317 -4 171 0 311 1 312 2 1
0 2 9 1 18 0 16 0 17 4 18 3 0 1 1 -3 1 -12 0 -21 9 -21 20 0 24 31 25 40 1 1
-4 3 -7 4 -7 1 0 2 -2 2 -4 0 -6 4 -7 24 -4 36 5 39 4 54 -19 7 -10 12 -16 17
-18 4 -2 7 -4 7 -5 0 -2 12 -3 64 -3 54 0 64 1 64 3 0 1 1 2 3 2 4 0 14 12 18
21 5 11 5 199 0 210 -4 9 -14 21 -18 21 -2 0 -3 1 -3 2 0 2 5 2 -154 3 l-148
1 -11 -5 c-8 -3 -12 -7 -17 -13 -9 -14 -17 -22 -21 -22 -4 0 -15 7 -26 17 -16
14 -45 24 -63 23 -6 -1 -8 0 -13 5 -6 6 -6 7 -6 27 0 20 0 21 6 27 l6 6 75 0
c75 0 86 0 86 3 0 1 1 2 3 2 4 0 14 12 18 21 6 16 2 37 -10 53 -16 18 -18 25
-11 31 7 7 17 3 33 -14 16 -16 31 -24 54 -28 16 -2 20 -6 28 -26 8 -21 11 -25
20 -34 13 -12 20 -17 32 -21 18 -6 25 -11 35 -24 4 -4 12 -5 19 -3 2 1 8 9 15
19 12 17 21 26 28 27 3 1 5 1 5 1 5 9 10 15 12 17 9 11 11 13 11 22 0 13 -4
21 -14 32 -8 8 -10 11 -10 17 0 10 7 17 17 16 7 -1 9 -2 16 -7 8 -8 12 -9 25
-9 l13 0 34 33 33 33 0 14 c0 13 -1 15 -6 20 l-6 7 -25 0 c-30 -1 -31 0 -38
17 -8 16 -17 27 -30 35 -7 4 -13 8 -13 9 0 1 -2 2 -4 3 -4 2 -47 34 -50 37 -1
1 -7 6 -15 12 -8 7 -17 14 -20 18 -4 3 -8 6 -9 6 -3 0 5 8 11 10 3 1 15 2 27
2 12 0 22 1 22 2 0 1 -1 2 -2 2 -2 0 -3 5 -3 17 l0 17 11 0 c17 0 10 2 -9 2
-19 1 -33 4 -40 10 -7 6 -10 20 -7 31 5 20 20 24 65 16 21 -4 31 -8 31 -14 0
-2 1 -3 2 -2 1 2 6 3 14 2 11 0 13 1 18 6 l5 5 1 67 c0 59 0 69 -3 76 -4 9
-14 21 -18 21 -2 0 -3 1 -3 2 0 3 -13 3 -135 3 l-124 0 -6 6 c-7 8 -7 10 0 18
l6 6 40 -1 40 0 20 6 c38 12 52 20 58 35 5 11 4 147 0 158 -4 9 -14 21 -18 21
-2 0 -3 1 -3 2 0 2 -11 3 -74 3 l-63 0 -6 6 c-5 5 -6 7 -5 13 0 4 -1 15 -3 24
-7 35 -3 46 17 46 13 0 20 -6 20 -17 0 -3 2 -12 5 -19 10 -26 12 -27 82 -25
57 1 59 1 59 3 0 1 1 2 3 2 4 0 14 12 18 21 5 11 5 161 0 172 -5 12 -15 21
-22 21 l-6 0 6 2 c3 1 9 3 12 4 10 4 11 4 48 6 41 2 41 2 41 4 0 1 1 2 3 2 4
0 14 12 18 21 5 11 5 257 0 268 -4 9 -14 21 -18 21 -2 0 -3 1 -3 2 0 2 -2 2
-60 3 -51 1 -55 1 -62 -3 -9 -5 -10 -7 -10 -22 0 -7 -1 -12 -2 -13 -2 0 -2 -1
0 -1 5 0 8 -6 8 -18 0 -16 -11 -24 -28 -20 -10 2 -14 8 -14 20 0 12 3 18 8 18
2 0 2 1 1 1 -2 1 -3 6 -3 13 0 15 -1 17 -10 22 -7 4 -12 4 -66 3 -66 0 -65 0
-85 -17 -15 -13 -21 -13 -36 0 -20 17 -19 17 -82 18 -55 1 -56 1 -64 6 -5 3
-9 6 -9 7 0 1 -3 8 -6 15 -3 6 -6 12 -6 13 0 4 -48 84 -57 93 -12 13 -33 17
-57 9z m-95 -86 c3 -5 3 -5 0 -10 -2 -3 -5 -5 -7 -5 -2 0 -5 2 -7 5 -3 5 -3 5
0 10 2 3 5 5 7 5 2 0 5 -2 7 -5z m86 -57 c4 -6 4 -24 -1 -30 -7 -9 -27 -9 -34
0 -5 6 -5 24 0 30 7 9 27 9 35 0z m102 -14 c4 -6 4 -24 -1 -30 -7 -9 -27 -9
-34 0 -5 6 -5 24 0 30 7 9 27 9 35 0z m-992 -56 c7 -6 7 -19 1 -25 -6 -7 -19
-7 -25 -1 -7 7 -7 20 0 26 7 5 18 5 24 0z m1483 -8 c5 -5 5 -11 0 -16 -10 -10
-27 5 -16 16 4 4 12 4 16 0z m-684 -14 c1 0 5 -3 8 -6 5 -5 6 -7 6 -18 0 -11
-1 -13 -6 -18 -6 -6 -7 -6 -18 -6 -11 0 -12 0 -18 6 -5 5 -6 7 -6 17 0 14 3
20 12 24 5 2 8 2 22 1z m-319 -10 c7 -6 7 -19 1 -25 -6 -7 -19 -7 -25 -1 -7 6
-7 19 -1 25 6 7 19 7 25 1z m568 -24 c8 -6 9 -32 3 -52 -2 -9 -3 -16 -2 -22 2
-11 6 -22 9 -22 2 0 3 -1 3 -2 0 -1 3 -2 8 -2 7 -1 7 -1 1 -1 -4 -1 -7 -2 -7
-3 0 -5 -36 -9 -53 -6 -7 1 -14 2 -17 2 -3 0 -6 2 -8 4 -4 4 -4 4 0 4 5 0 20
13 22 18 3 13 4 17 3 21 -1 2 -1 13 -1 23 -1 20 2 34 7 38 7 6 25 6 32 0z
m-743 -40 c18 -14 21 -42 3 -42 -6 0 -24 7 -27 10 -6 7 -10 14 -10 21 0 17 18
23 34 11z m-222 0 c3 -2 4 -4 2 -4 -1 0 -2 -1 -1 -1 0 -1 -1 -4 -3 -5 -4 -4
-4 -4 -7 2 -3 5 -3 7 -1 9 4 4 4 4 10 -1z m1035 -3 c3 -3 3 -3 0 -6 -3 -3 -3
-3 -6 0 -3 2 -3 3 -1 6 4 4 4 4 7 0z m114 -25 c2 -2 6 -5 7 -8 2 -3 5 -7 7 -8
6 -6 12 -27 13 -47 1 -11 2 -21 2 -23 2 -8 32 -13 41 -7 10 7 17 3 35 -18 3
-4 9 -9 14 -10 4 -2 5 -3 3 -3 -2 0 -6 -1 -8 -3 -12 -8 -70 -9 -85 -1 -4 2
-11 4 -15 4 -4 0 -7 1 -7 2 0 1 -17 5 -26 6 -16 0 -24 9 -24 26 0 4 -1 11 -3
15 -3 6 -3 8 -3 11 0 5 -13 16 -19 16 -6 0 -6 1 -1 2 6 1 8 12 3 12 -3 0 -2 1
1 2 11 3 18 8 25 18 10 13 15 18 21 18 7 1 14 0 19 -4z m-1189 -10 c9 -11 2
-28 -11 -28 -13 0 -20 17 -10 25 3 4 6 5 16 7 1 0 3 -2 5 -4z m459 -18 c6 -2
14 -4 17 -4 2 0 4 0 4 -1 -2 -2 10 -13 15 -13 2 0 1 -1 -4 -2 -4 -1 -9 -3 -11
-4 -4 -4 -28 -14 -28 -12 0 1 -4 4 -8 7 -16 11 -20 19 -12 29 4 5 12 5 27 0z
m473 -11 c4 -1 7 -3 7 -5 -1 -1 1 -2 4 -2 3 0 2 -1 -3 -2 -9 -3 -19 -12 -23
-23 -2 -5 -3 -18 -4 -37 -1 -35 -4 -48 -11 -56 -11 -10 -25 -9 -35 2 -24 26
-27 27 -64 27 l-30 0 -7 7 c-4 4 -6 7 -6 7 1 0 -3 14 -6 19 -4 6 -23 28 -38
43 -9 9 -12 11 -18 11 -5 0 -6 1 -2 1 3 1 7 3 10 5 2 1 9 3 14 4 14 2 204 1
212 -1z m463 -45 c-4 -5 -7 -5 -11 -1 -4 4 -4 4 0 8 l5 5 4 -4 c5 -4 5 -5 2
-8z m-4 -19 c0 -7 1 -13 2 -14 1 0 -1 0 -4 0 -3 0 -5 0 -4 0 1 1 2 7 2 14 -1
10 0 13 2 13 2 0 3 -3 2 -13z m-934 -18 c3 -2 3 -3 0 -4 -2 0 -3 -2 -3 -4 0
-2 -1 -2 -4 1 -2 2 -6 4 -9 4 -5 0 -5 1 1 2 5 1 8 3 9 6 2 4 2 4 3 1 0 -2 2
-5 3 -6z m643 -3 c5 -5 6 -7 6 -17 0 -10 -1 -12 -6 -17 -5 -5 -7 -6 -17 -6
-10 0 -12 1 -17 6 -5 5 -6 7 -6 17 0 10 1 12 6 17 5 5 7 6 17 6 10 0 12 -1 17
-6z m305 1 c1 0 -8 -1 -19 -1 -14 0 -18 1 -13 2 10 1 31 1 32 -1z m-704 -69
c10 -9 3 -26 -10 -26 -8 0 -15 7 -15 15 0 13 16 20 25 11z m-710 -18 c4 -2 7
-5 7 -6 0 -2 24 -26 26 -26 4 0 10 -14 10 -23 0 -13 -6 -19 -19 -19 -9 0 -23
6 -23 10 0 2 -24 26 -26 26 -1 0 -4 3 -6 7 -6 9 -6 24 1 30 6 7 21 7 30 1z
m637 -9 c4 -5 5 -11 3 -26 -3 -18 2 -28 23 -46 14 -13 11 -43 -6 -50 -19 -7
-38 1 -42 19 -2 8 -2 11 2 22 4 12 5 28 2 33 0 1 -1 3 -1 4 0 2 -4 7 -8 12 -9
11 -10 24 -3 32 7 8 23 8 30 0z m189 2 c4 -4 5 -7 5 -13 0 -11 -7 -18 -18 -18
-11 0 -18 7 -18 18 0 11 7 18 18 18 6 0 9 -1 13 -5z m-911 -65 c12 -6 15 -31
5 -43 -8 -10 -32 -11 -41 -1 -9 8 -9 32 0 41 6 6 26 8 36 3z m1003 -83 c7 -8
7 -8 0 -16 l-6 -6 -64 0 c-59 1 -65 0 -66 -3 0 -2 -1 -2 -1 1 0 3 -3 7 -6 9
-6 6 -6 7 1 15 l6 6 65 0 65 0 6 -6z m-968 -6 c3 -3 3 -3 0 -6 -3 -3 -3 -3 -6
0 -3 2 -3 3 -1 6 4 4 4 4 7 0z m1106 -4 c4 -4 5 -7 5 -13 0 -11 -7 -18 -18
-18 -11 0 -18 7 -18 18 0 11 7 18 18 18 6 0 9 -1 13 -5z m-416 -43 c6 -6 8
-20 4 -28 -4 -7 -12 -25 -18 -40 -7 -16 -12 -20 -26 -20 -10 0 -12 1 -17 6 -5
5 -6 7 -6 16 0 9 2 14 13 37 7 14 15 28 17 30 8 8 24 8 33 -1z m-740 -6 c10
-9 3 -26 -10 -26 -8 0 -15 7 -15 15 0 13 16 20 25 11z m897 -6 c5 -6 5 -12 0
-18 -7 -8 -22 -2 -22 9 0 11 15 17 22 9z m377 -67 c5 -8 1 -16 -8 -16 -9 0
-13 8 -8 16 2 3 5 5 8 5 3 0 6 -2 8 -5z m-56 -54 c4 -4 5 -7 5 -13 0 -11 -7
-18 -18 -18 -11 0 -18 7 -18 18 0 11 7 18 18 18 6 0 9 -1 13 -5z m-215 -46 c9
-3 10 -5 15 -15 7 -16 7 -16 0 -23 -6 -6 -6 -6 -22 -5 -9 0 -19 -1 -23 -2 -14
-4 -23 -20 -22 -41 0 -11 -5 -17 -14 -17 -9 0 -14 6 -14 17 1 27 -14 45 -35
43 -5 -1 -7 0 -12 5 -7 8 -7 10 0 18 l6 6 32 0 c32 0 32 0 45 6 26 13 29 13
44 8z m-340 -27 c12 -4 18 -20 14 -35 -4 -14 -15 -21 -35 -21 -12 0 -15 3 -23
18 -5 12 -5 18 -1 27 5 12 28 18 45 11z m-45 -90 c7 -12 1 -26 -12 -26 -13 0
-20 17 -10 25 9 9 17 9 22 1z m125 -3 c12 -7 30 -10 41 -7 20 6 31 0 31 -17 0
-20 -16 -25 -39 -13 -10 5 -13 6 -26 5 -8 0 -17 -1 -21 -2 -9 -3 -20 0 -24 5
-5 6 -5 24 0 30 7 9 22 9 38 -1z m292 3 c5 -5 5 -11 0 -16 -10 -10 -27 5 -16
16 4 4 12 4 16 0z m-551 -67 c3 -3 3 -3 0 -6 -3 -3 -3 -3 -6 0 -3 2 -3 3 -1 6
4 4 4 4 7 0z m900 -32 c6 -4 6 -6 6 -20 0 -14 0 -16 -6 -20 -4 -4 -7 -5 -18
-5 -11 0 -14 1 -18 5 -6 4 -6 6 -6 20 0 14 0 16 6 20 4 4 7 5 18 5 11 0 14 -1
18 -5z m-813 -35 c5 -5 5 -11 0 -16 -10 -10 -27 5 -16 16 4 4 12 4 16 0z m482
-14 c10 -14 13 -16 30 -16 15 0 16 0 23 7 3 4 8 7 10 7 22 1 27 -1 47 -26 15
-19 18 -32 9 -47 -8 -13 -10 -17 -10 -27 -1 -11 5 -26 10 -26 2 0 1 -2 -3 -5
-6 -5 -9 -6 -27 -7 l-20 -1 -6 6 c-6 6 -6 6 -5 27 0 15 -1 23 -3 29 -4 9 -14
21 -18 21 -2 0 -3 1 -3 2 0 0 -2 1 -5 2 -3 0 -6 0 -7 1 -1 1 -17 1 -35 1 -20
0 -38 2 -44 3 -5 1 -11 2 -11 2 -1 -1 -1 0 -1 2 1 3 -8 3 -88 4 l-90 0 92 1
91 0 8 5 c6 4 11 11 17 21 10 18 12 19 19 20 9 2 16 0 20 -6z m368 -41 c3 -2
6 -4 6 -5 0 -1 1 -3 1 -5 0 -2 -1 -5 -5 -7 -3 -2 -6 -4 -6 -4 0 -4 -13 -2 -16
2 -12 14 4 28 20 19z m-616 -3 c5 -1 10 -4 12 -5 3 -2 18 -3 92 -4 l89 0 -93
-1 c-61 0 -94 -1 -94 -2 0 -1 -1 -2 -3 -2 -4 0 -14 -12 -18 -21 -2 -6 -3 -14
-3 -29 1 -21 1 -21 -5 -27 l-6 -6 -22 1 c-12 1 -24 2 -27 4 -10 5 -14 8 -12 8
2 1 -2 11 -11 25 -6 10 -6 14 -1 19 2 2 5 3 10 3 8 -1 27 -1 32 0 13 2 15 4
24 20 4 8 7 11 15 14 12 6 10 5 21 3z m-190 -5 c10 -5 14 -25 8 -39 -7 -16
-41 -17 -49 -1 -7 13 -3 35 7 40 10 5 24 5 34 0z m731 -17 c6 -6 6 -13 2 -27
-6 -16 -16 -36 -21 -39 -3 -2 -18 -8 -34 -13 -31 -10 -40 -10 -49 -2 -10 9
-10 33 0 42 5 5 19 8 25 5 6 -2 23 1 31 5 3 3 9 9 12 14 12 19 13 19 21 19 6
0 10 -1 13 -4z m-333 -92 c12 -7 28 -29 28 -38 0 -4 -6 -11 -10 -12 -9 -1 -42
13 -49 21 -5 7 -5 22 1 28 7 7 20 8 30 1z m-65 -69 c6 -4 6 -6 6 -20 0 -14 0
-16 -6 -20 -6 -6 -27 -7 -35 -2 -12 9 -12 34 0 43 7 6 28 6 35 -1z m522 -10
c12 -7 14 -33 3 -43 -8 -9 -32 -9 -40 0 -9 8 -9 32 0 41 7 7 27 8 37 2z
m-1366 -23 c8 -8 8 -24 0 -32 -5 -5 -7 -6 -17 -6 -10 0 -12 1 -17 6 -8 8 -8
24 0 32 9 9 24 9 34 0z m755 -5 c9 -7 11 -14 8 -27 -3 -11 -10 -16 -23 -16
-10 0 -12 1 -17 6 -5 5 -6 7 -6 17 0 10 1 12 6 17 5 5 7 6 16 6 7 0 13 -1 16
-3z m114 -72 l-5 -5 -4 4 -5 5 4 4 5 5 4 -4 5 -5 -4 -4z m-401 -2 c2 -4 3 -10
3 -14 0 -13 14 -35 21 -35 2 0 3 -1 3 -2 0 -3 11 -3 94 -3 63 0 84 -1 86 -2 5
-5 36 -12 51 -11 6 0 10 -1 13 -4 9 -9 2 -25 -11 -24 -15 1 -43 -8 -37 -12 2
-1 1 -2 -2 -2 -3 0 -8 -2 -11 -5 l-6 -6 -175 1 c-151 1 -176 1 -179 4 -3 2 -5
4 -5 4 0 1 -2 2 -3 3 -3 0 -3 1 1 1 4 0 8 3 33 20 4 4 10 8 13 9 5 4 42 33 44
35 1 1 7 6 15 13 8 7 19 17 26 23 6 6 13 12 14 13 2 0 3 3 3 4 0 5 5 -1 9 -10z
m-460 -8 c6 -6 7 -15 2 -26 -5 -11 -5 -36 0 -44 2 -3 3 -10 3 -16 0 -13 -6
-19 -20 -19 -14 0 -20 6 -20 20 0 5 1 10 2 11 1 1 3 7 5 15 3 13 3 26 -1 36
-6 15 1 28 16 28 6 0 9 -1 13 -5z m1393 -18 c8 -8 8 -23 0 -23 -1 0 -2 -1 -2
-2 0 -1 -4 -2 -8 -2 -9 1 -14 6 -14 16 0 12 14 18 24 11z m-481 -28 c3 -5 3
-5 0 -10 -2 -3 -5 -5 -7 -5 -2 0 -5 2 -7 5 -3 5 -3 5 0 10 2 3 5 5 7 5 2 0 5
-2 7 -5z m-95 -1 c5 -6 5 -12 0 -18 -7 -8 -22 -2 -22 9 0 11 15 17 22 9z
m-113 -202 c16 -5 30 -11 33 -15 6 -7 8 -20 6 -30 -4 -13 -14 -21 -29 -20 -15
1 -21 5 -31 25 -14 27 -15 34 -10 41 4 6 10 5 31 -1z m-224 -4 c4 -6 4 -24 -1
-30 -7 -9 -27 -9 -34 0 -5 6 -5 24 0 30 7 9 27 9 35 0z m-182 -4 c7 -6 7 -19
1 -25 -6 -7 -19 -7 -25 -1 -7 6 -7 19 -1 25 6 7 19 7 25 1z m89 -7 c6 -6 6
-20 0 -30 -15 -22 -23 -31 -28 -35 l-6 -4 -5 4 c-5 5 -5 3 1 38 3 16 6 24 9
27 6 8 22 8 29 0z m670 -17 c9 -9 2 -24 -10 -24 -12 0 -19 15 -10 24 2 2 7 4
10 4 3 0 8 -2 10 -4z"/>
<path d="M1870 2647 c0 -5 -6 -9 -13 -9 -4 0 -5 -1 -2 -1 4 -1 4 -2 3 -12 0
-12 4 -23 9 -23 2 0 3 -1 3 -2 0 -1 3 -1 7 1 3 2 7 2 8 2 0 -1 4 2 8 7 10 9
13 13 12 14 -1 1 0 4 1 7 1 6 1 7 -3 11 -4 4 -7 5 -18 5 -7 -1 -12 0 -13 2 -1
1 -2 1 -2 -2z"/>
</g>
</svg>
