<?xml version="1.0" standalone="no"?>
<!DOCTYPE svg PUBLIC "-//W3C//DTD SVG 20010904//EN"
 "http://www.w3.org/TR/2001/REC-SVG-20010904/DTD/svg10.dtd">
<svg version="1.0" xmlns="http://www.w3.org/2000/svg"
 width="1100.000000pt" height="2850.000000pt" viewBox="0 0 1100.000000 2850.000000"
 preserveAspectRatio="xMidYMid meet">
<metadata>
Created by potrace 1.15, written by Peter Selinger 2001-2017
</metadata>
<g transform="translate(0.000000,2850.000000) scale(0.500000,-0.500000)"
fill="#000000" stroke="none">
<path d="M357 3808 c-4 -2 -9 -5 -11 -7 -4 -4 -12 -27 -12 -34 0 -12 -21 -18
-30 -8 -2 2 -4 6 -4 8 0 9 -8 30 -14 35 -5 5 -7 5 -21 4 -5 0 -16 -11 -19 -20
-4 -8 -4 -15 -4 -104 0 -91 0 -96 4 -109 3 -8 5 -15 6 -17 3 -3 3 -27 0 -30
-5 -7 -10 -31 -10 -49 1 -17 1 -18 -4 -23 -5 -3 -6 -6 -6 -12 0 -7 0 -7 -2 -1
l-1 6 -36 1 c-33 0 -36 0 -44 -4 -10 -5 -21 -18 -21 -26 0 -4 -1 -7 -3 -7 -2
-1 -2 -3 2 -9 3 -4 5 -9 5 -10 0 -1 2 -2 4 -2 2 0 4 -1 5 -3 0 -2 3 -3 5 -3 6
0 26 -10 29 -14 1 -3 3 -9 4 -13 1 -12 3 -17 8 -37 9 -29 5 -40 -14 -40 -12 0
-16 4 -22 22 -6 19 -9 23 -18 27 -11 5 -17 5 -28 2 -10 -4 -25 -11 -27 -13 -1
-1 -3 -3 -6 -5 -3 -1 -8 -7 -11 -12 -6 -10 -6 -11 -7 -44 -1 -46 0 -47 35 -78
23 -21 33 -25 46 -19 8 4 16 19 18 37 2 12 8 17 20 17 12 0 18 -5 20 -17 3
-26 15 -40 33 -42 15 -1 20 -3 23 -8 2 -3 2 -5 1 -5 -8 0 -11 -53 -3 -76 8
-27 8 -29 3 -47 -2 -9 -5 -18 -6 -21 -3 -6 -2 -52 0 -60 4 -12 11 -19 29 -28
19 -10 21 -12 21 -26 0 -19 -9 -23 -41 -18 -21 3 -39 1 -36 -4 1 -1 0 -2 -1
-3 -3 -2 -3 -30 1 -33 1 -1 4 -4 7 -6 9 -6 9 -31 1 -40 -3 -3 -15 -10 -35 -19
-14 -6 -29 -20 -43 -40 -8 -13 -16 -18 -27 -18 -15 0 -23 8 -23 23 0 14 6 23
28 39 11 8 18 14 30 26 l11 11 -1 13 c-1 20 -12 29 -37 29 -15 0 -65 -11 -79
-17 -15 -7 -23 -19 -23 -36 0 -6 39 -193 48 -232 6 -21 29 -35 51 -30 10 2 65
17 87 23 l20 5 5 -5 5 -6 0 -96 c0 -100 0 -103 9 -115 5 -7 19 -16 28 -18 10
-2 13 -7 13 -16 0 -13 -2 -16 -20 -25 -24 -12 -29 -21 -31 -51 -1 -15 -1 -17
-6 -22 l-6 -6 -47 0 c-26 0 -56 0 -66 1 -22 1 -32 -1 -41 -11 -11 -11 -11 -20
-1 -47 9 -27 20 -60 26 -84 5 -20 9 -26 18 -30 8 -3 29 -1 34 3 2 2 7 3 13 3
13 0 19 -6 19 -19 0 -15 -5 -19 -24 -20 -25 -1 -37 -10 -36 -29 0 -32 13 -53
35 -60 11 -3 94 1 106 5 4 2 11 5 15 8 25 17 28 17 47 11 22 -8 34 -7 56 2 2
1 7 3 11 4 14 5 35 17 52 28 64 43 93 114 93 227 -1 82 -1 82 -20 103 -16 17
-18 24 -15 39 1 6 8 16 14 21 2 1 3 19 2 29 0 5 -6 14 -25 37 -12 15 -14 30
-6 38 2 2 6 4 8 4 5 0 24 8 30 12 2 2 6 8 9 13 4 9 4 12 4 77 l0 67 6 7 c3 4
6 7 8 8 6 1 67 18 92 25 14 4 27 8 30 8 16 3 43 24 51 39 5 11 9 31 8 41 -1 6
-2 13 -2 17 -2 12 -3 18 -5 34 -1 8 -3 19 -3 23 -5 42 -10 67 -14 77 -13 25
-54 38 -84 27 -14 -6 -22 -5 -43 3 -11 4 -19 6 -25 6 -7 -1 -9 0 -13 5 -4 3
-6 7 -6 9 0 6 -7 21 -11 24 -5 4 -25 12 -32 12 -6 0 -13 8 -13 15 0 7 7 15 13
15 7 0 28 8 32 12 10 9 11 18 11 64 l-1 43 6 6 6 6 68 0 c67 0 79 1 79 3 0 1
2 2 5 3 5 1 5 2 5 17 0 9 -1 16 -2 16 -1 0 -4 2 -7 5 -3 3 -7 5 -7 5 -5 0 -12
12 -12 19 0 9 4 14 17 23 6 4 13 16 19 31 3 7 4 27 5 82 1 46 1 54 -2 62 -4 9
-14 21 -18 21 -2 0 -3 1 -3 2 0 2 -11 3 -68 3 -55 0 -57 0 -65 -4 -5 -3 -10
-6 -12 -8 -3 -4 -16 -11 -19 -11 -4 0 -8 5 -8 9 0 4 4 16 6 20 6 10 8 26 8 55
-1 30 -1 31 -9 50 -9 24 -9 28 0 52 l8 19 1 74 c0 64 0 75 -3 82 -4 9 -14 21
-18 21 -2 0 -3 1 -3 2 0 2 -2 2 -78 3 -68 1 -74 1 -81 -3z m6 -188 c16 -7 16
-43 -1 -50 -15 -6 -34 -2 -39 9 -4 8 -4 24 0 32 5 12 23 15 40 9z m-103 -195
c30 -3 38 -7 38 -20 0 -15 -8 -21 -37 -32 -27 -10 -41 -5 -41 15 0 12 6 20 14
20 4 0 4 1 1 2 -3 1 -3 2 -1 3 1 1 2 2 1 3 -1 1 0 3 2 4 2 1 2 3 2 4 -1 1 0 1
2 1 3 -1 3 -1 2 1 -1 1 -1 2 0 2 1 -1 9 -2 17 -3z m147 -81 c10 -9 3 -26 -10
-26 -8 0 -15 7 -15 15 0 13 16 20 25 11z m185 -27 l-5 -5 -4 4 -5 5 4 4 5 5 4
-4 5 -5 -4 -4z m-114 -3 c5 -6 5 -12 0 -18 -7 -8 -22 -2 -22 9 0 11 15 17 22
9z m-170 -24 c5 -5 5 -15 0 -20 -9 -9 -24 -2 -24 10 0 8 6 14 14 14 3 0 8 -2
10 -4z m113 -63 c7 -5 10 -11 10 -23 0 -19 -8 -27 -27 -27 -16 0 -45 16 -51
29 -5 11 -3 15 9 20 13 6 51 6 59 1z m-141 -58 c0 -6 -2 -8 -10 -10 -6 0 -8 0
-10 4 -1 3 -1 4 5 7 8 5 14 4 15 -1z m46 -83 c5 -5 5 -15 0 -20 -9 -9 -24 -2
-24 10 0 8 6 14 14 14 3 0 8 -2 10 -4z m109 -105 c5 -8 1 -16 -8 -16 -9 0 -13
8 -8 16 2 3 5 5 8 5 3 0 6 -2 8 -5z m120 -204 c3 -3 3 -3 0 -6 -4 -5 -11 1 -7
6 4 4 4 4 7 0z m-50 -70 c12 -12 3 -31 -13 -31 -11 0 -18 7 -18 18 0 11 7 18
18 18 6 0 9 -1 13 -5z m-89 -60 c4 -3 6 -7 6 -9 0 -2 1 -6 2 -9 1 -3 3 -8 4
-10 4 -10 7 -16 13 -21 3 -3 5 -7 5 -8 0 -1 1 -3 3 -4 4 -4 4 -15 -1 -20 -8
-8 -21 -3 -28 10 -5 10 -17 23 -27 29 -12 8 -16 14 -16 25 0 8 1 11 6 16 9 9
24 9 33 1z m-17 -233 c5 -5 6 -7 6 -16 0 -13 -7 -21 -20 -23 -4 -1 -12 -2 -17
-3 -5 -1 -9 -1 -10 -1 -1 0 -2 -1 -4 -2 -1 -2 -2 -3 -1 -3 2 0 -14 -15 -19
-18 -15 -10 -29 1 -23 17 2 3 19 13 24 13 5 0 9 5 21 22 5 8 11 16 12 17 8 6
23 5 31 -3z m59 -195 c8 -5 11 -14 11 -32 0 -14 0 -16 -6 -20 -4 -4 -7 -5 -18
-5 -18 0 -23 5 -25 21 -2 28 18 47 38 36z m-20 -108 c3 -3 4 -7 4 -14 0 -13
-6 -19 -19 -19 -13 0 -19 6 -19 19 0 7 1 11 4 14 7 8 23 8 30 0z m-138 -4 c15
-8 14 -41 -1 -48 -11 -6 -70 -4 -77 3 -5 5 -5 14 -1 20 3 4 44 26 54 28 7 2
18 0 25 -3z"/>
<path d="M1102 3744 c-3 -1 -6 -1 -7 0 0 0 -1 0 -1 -2 0 -1 -1 -2 -3 -2 -4 0
-14 -12 -18 -21 -4 -10 -5 -431 0 -444 3 -12 8 -20 14 -25 17 -14 17 -32 0
-46 -3 -2 -7 -7 -9 -11 -7 -14 -8 -20 -8 -94 0 -71 0 -72 5 -81 3 -6 7 -10 14
-14 6 -2 12 -5 14 -6 2 -1 7 -3 11 -3 4 0 11 -3 17 -7 5 -3 14 -9 21 -12 l11
-5 68 -1 c80 0 83 0 99 16 8 8 10 12 15 26 7 23 13 30 26 30 15 0 19 -5 19
-22 -1 -23 4 -38 13 -43 2 -1 4 -2 5 -3 3 -3 27 -3 236 -3 220 0 236 0 236 3
0 1 1 2 3 2 4 0 14 12 18 21 3 7 3 32 3 245 l-1 238 -11 20 -10 20 1 32 1 31
10 19 c9 19 9 19 10 42 0 19 0 27 -4 41 -2 10 -5 19 -5 20 0 1 -1 3 -2 5 -1 1
-4 7 -7 12 -4 8 -8 13 -15 17 l-10 6 -96 1 c-53 0 -101 0 -106 -1 -16 -2 -23
-9 -25 -24 -1 -6 -1 -11 0 -11 0 0 0 -1 -2 -2 -3 -2 -3 -2 0 -2 6 0 6 -7 2
-27 -3 -14 -4 -23 -3 -32 1 -16 -1 -26 -7 -31 -8 -9 -32 -9 -40 0 -11 10 -9
32 4 45 4 4 8 9 8 11 0 1 1 2 2 2 1 0 4 7 8 15 4 9 8 15 11 16 3 1 3 2 1 3 -2
1 -2 2 -2 2 1 0 1 5 0 11 -2 15 -9 22 -25 24 -5 1 -79 1 -163 1 l-153 -1 -15
-7 c-27 -13 -31 -13 -59 0 l-14 7 -40 0 c-22 1 -42 0 -45 -1z m222 -74 c54
-13 54 -37 0 -50 -30 -7 -45 1 -45 25 0 17 6 24 22 28 2 0 4 1 5 1 1 0 8 -2
18 -4z m168 -69 l-5 -5 -4 4 -5 5 4 4 5 5 4 -4 5 -5 -4 -4z m-4 -59 c3 -3 9
-10 13 -15 16 -19 19 -20 70 -20 l44 0 6 -6 c5 -5 6 -7 5 -15 0 -5 0 -10 2
-13 6 -13 8 -16 14 -20 8 -6 17 -9 29 -10 16 -2 22 -9 22 -27 0 -24 -5 -26
-52 -27 -47 0 -51 1 -56 18 -2 6 -3 12 -2 14 0 1 0 4 -1 7 -2 3 -3 6 -3 8 -3
13 -10 21 -23 24 -5 1 -44 2 -108 2 l-101 -1 -6 6 c-9 9 -9 25 0 34 l6 6 32 0
c37 0 43 2 58 20 18 21 17 21 32 21 12 0 14 -1 19 -6z m-264 -40 c10 -10 13
-37 5 -43 -5 -3 -5 -3 -11 1 -7 5 -11 14 -13 29 -2 17 8 25 19 13z m71 -108
c4 -6 4 -24 -1 -30 -7 -9 -27 -9 -34 0 -5 6 -5 24 0 30 7 9 27 9 35 0z m237
-10 c1 0 5 -3 8 -6 5 -5 6 -7 6 -18 0 -11 -1 -13 -6 -18 -6 -6 -7 -6 -18 -6
-11 0 -12 0 -18 6 -5 5 -6 7 -6 17 0 14 3 20 12 24 5 2 8 2 22 1z m-381 -55
c5 -8 1 -16 -8 -16 -9 0 -13 8 -8 16 2 3 5 5 8 5 3 0 6 -2 8 -5z m469 -63 c11
-11 11 -40 1 -51 l-6 -6 -134 0 -134 0 -6 6 c-9 9 -9 25 0 34 l6 6 103 0 103
0 18 8 c24 11 39 12 49 3z m-341 -33 c3 -5 3 -5 0 -10 -2 -3 -5 -5 -7 -5 -2 0
-5 2 -7 5 -3 5 -3 5 0 10 2 3 5 5 7 5 2 0 5 -2 7 -5z m497 -19 c1 0 5 -3 8 -6
5 -5 6 -7 6 -18 0 -12 0 -13 -8 -20 -10 -9 -13 -10 -25 -4 -12 5 -15 11 -15
24 0 13 3 19 12 23 5 2 8 2 22 1z m11 -86 c5 0 13 -9 15 -16 6 -22 7 -47 4
-51 -3 -3 -10 -3 -10 -1 0 1 -1 2 -3 2 -2 0 -19 24 -25 35 -3 8 -2 18 3 26 3
4 6 7 7 6 1 -1 2 0 2 1 0 2 1 2 2 0 2 -1 4 -2 5 -2z m-158 -9 c6 -4 6 -6 6
-20 0 -14 0 -16 -6 -20 -4 -4 -7 -5 -18 -5 -11 0 -14 1 -18 5 -6 4 -6 6 -6 20
0 14 0 16 6 20 4 4 7 5 18 5 11 0 14 -1 18 -5z"/>
<path d="M780 3561 c-11 -4 -21 -14 -25 -26 -5 -16 -4 -73 1 -88 3 -6 5 -11 6
-11 1 0 2 -1 2 -2 0 -1 3 -6 7 -10 6 -8 6 -10 6 -23 0 -13 0 -15 -6 -23 -4 -4
-7 -9 -7 -10 0 -1 -1 -2 -2 -2 -1 0 -3 -5 -6 -11 -5 -15 -6 -54 0 -65 5 -11
19 -18 34 -16 23 1 26 1 32 -6 5 -5 6 -7 6 -18 0 -11 -1 -13 -6 -18 -6 -7 -9
-7 -32 -6 -15 2 -29 -5 -34 -16 -6 -11 -6 -114 0 -127 4 -9 20 -27 24 -27 3 0
10 -13 10 -20 0 -7 -7 -20 -10 -20 -4 0 -20 -18 -24 -27 -4 -9 -4 -13 -4 -119
1 -125 0 -115 20 -138 7 -7 12 -14 12 -15 -1 -4 10 -25 15 -30 11 -11 10 -11
124 -11 71 0 109 1 114 2 10 3 17 10 23 23 4 11 5 13 7 34 3 32 5 38 11 48 13
22 28 28 55 20 7 -2 19 -10 25 -16 3 -5 8 -10 11 -13 8 -9 9 -14 9 -29 -1 -17
3 -28 11 -36 4 -4 7 -7 8 -7 0 0 7 -4 14 -9 8 -5 17 -11 20 -12 4 -2 8 -6 9
-9 2 -3 4 -6 5 -6 1 0 1 -1 0 -2 -1 -2 -4 -8 -6 -15 -8 -28 -14 -40 -21 -44
l-7 -5 -169 0 -169 0 -12 -6 c-7 -3 -15 -9 -19 -14 -11 -11 -16 -14 -27 -14
-11 0 -16 3 -27 15 -5 5 -13 11 -20 14 -12 5 -14 5 -33 4 -24 -1 -25 -1 -25
-3 0 -1 -1 -2 -3 -2 -4 0 -14 -12 -18 -21 -5 -11 -5 -195 0 -206 4 -9 14 -21
18 -21 2 0 3 -1 3 -2 0 -3 14 -3 155 -3 l144 0 18 7 c26 9 30 9 47 -8 11 -11
15 -14 22 -15 5 -1 10 -2 11 -2 0 0 7 -1 14 -1 17 0 23 -5 23 -20 0 -14 -6
-20 -20 -20 -10 0 -28 5 -32 9 -7 6 -36 23 -43 25 -7 2 -11 2 -26 -1 -8 -2
-27 -12 -31 -17 -1 -1 -11 -7 -23 -15 -68 -42 -159 -77 -263 -100 -35 -8 -41
-13 -42 -34 0 -10 1 -12 9 -24 5 -7 9 -13 9 -12 0 1 1 0 3 -1 4 -3 24 -3 36 0
7 2 9 2 12 -1 3 -3 3 -3 0 -9 -2 -3 -4 -6 -5 -5 -1 1 -2 0 -3 -1 -1 -1 -2 -2
-3 -1 -2 1 -3 -2 -2 -5 0 -1 -1 -2 -2 -2 -2 0 -2 -1 -3 -17 -1 -11 -1 -12 14
-44 19 -38 21 -41 33 -72 12 -28 18 -38 28 -43 14 -7 21 -7 49 1 77 22 80 24
80 49 0 11 -1 16 -4 21 -2 3 -4 9 -4 15 0 20 9 29 28 29 14 0 22 -6 28 -17 13
-24 22 -31 39 -33 8 -1 11 -1 29 8 10 5 20 9 20 9 2 0 52 27 62 33 4 3 11 6
14 8 6 3 44 27 48 30 1 1 5 4 9 6 3 2 6 5 6 5 0 1 2 2 4 3 1 0 6 3 9 6 7 6 8
7 18 14 4 3 9 7 10 8 1 1 7 6 12 10 10 8 19 16 34 30 9 8 9 9 9 20 0 13 -3 20
-13 32 -4 4 -7 8 -7 9 0 1 -2 6 -4 11 -13 29 -13 49 0 67 3 4 8 19 13 47 3 11
9 15 27 17 18 2 32 8 37 15 8 12 9 14 13 23 6 11 12 15 26 15 19 0 27 -8 27
-28 0 -14 -5 -21 -18 -25 -23 -8 -33 -14 -56 -37 -12 -12 -24 -25 -26 -29 -7
-15 -2 -35 12 -48 13 -12 29 -30 33 -35 4 -7 22 -32 24 -33 0 -1 5 -5 9 -11
16 -20 21 -25 40 -34 16 -8 27 -16 27 -22 0 -1 3 -8 7 -16 7 -15 10 -19 27
-33 6 -5 12 -10 14 -12 4 -5 32 -26 44 -34 6 -4 11 -8 13 -9 2 -2 19 -13 33
-22 28 -18 90 -50 119 -61 13 -5 23 -4 44 5 8 4 15 5 30 6 26 1 34 5 46 24 6
8 10 14 11 15 1 1 5 6 9 13 7 10 39 54 49 66 20 23 29 34 45 51 l13 14 0 12
c-2 19 -11 27 -34 32 -5 1 -16 4 -23 6 -36 10 -55 1 -73 -35 -10 -18 -14 -23
-23 -23 -13 0 -16 6 -14 27 2 33 2 38 -3 51 -6 18 -13 27 -32 36 -20 10 -37
20 -45 25 -15 9 -34 22 -35 23 -6 7 -40 23 -41 20 -2 -4 -16 16 -18 23 0 4
-18 22 -23 24 -2 0 -2 1 0 1 1 0 4 2 6 4 2 3 7 5 18 6 16 2 35 9 40 15 5 6 17
12 26 14 16 2 33 8 49 16 7 4 9 4 16 0 3 -2 8 -3 11 -3 2 0 4 -1 4 -2 0 -3 24
-2 30 1 9 4 24 5 31 0 3 -1 8 -7 11 -12 16 -24 30 -30 63 -28 24 1 25 1 25 3
0 1 1 2 3 2 4 0 14 12 18 21 5 11 5 195 0 206 -4 9 -14 21 -18 21 -2 0 -3 1
-3 2 0 3 -11 3 -87 3 -75 0 -76 0 -83 -4 -6 -4 -16 -18 -16 -23 0 -4 -11 -20
-14 -20 -3 0 -14 16 -14 20 0 5 -10 19 -16 23 -7 4 -9 4 -76 5 l-69 0 -5 5 -5
5 6 27 c18 70 28 131 23 131 -1 0 -2 1 -1 3 0 1 -5 2 -17 3 -15 0 -18 0 -18
-3 0 -7 -25 -13 -36 -8 -22 9 -23 45 -2 54 6 2 20 3 24 1 5 -3 22 -4 21 -1 -1
1 0 1 1 1 8 -3 23 9 33 26 12 20 16 30 14 37 -1 10 -7 21 -12 24 -2 1 -4 3 -5
3 -4 5 -22 9 -60 13 -15 2 -24 3 -46 6 -50 8 -63 4 -80 -25 -11 -18 -23 -19
-54 -4 -11 6 -25 12 -31 14 -5 2 -16 7 -23 10 -17 8 -47 11 -63 5 -9 -3 -35
-23 -31 -23 1 0 1 -3 0 -6 -3 -10 4 -22 18 -32 14 -10 16 -13 16 -26 0 -19
-10 -27 -29 -24 -18 3 -20 6 -18 31 1 17 0 21 -3 28 -4 9 -15 18 -24 20 -3 0
-8 2 -11 3 -7 3 -8 3 -11 4 -3 0 -16 12 -16 15 0 2 -1 4 -3 4 -2 1 -3 2 -2 3
3 4 -6 6 -23 6 -18 -1 -19 -1 -25 5 l-6 6 1 126 c0 142 1 137 -15 146 -8 4
-22 8 -26 7 -14 -4 -25 5 -25 19 0 14 11 23 25 19 4 -1 18 3 26 7 16 8 15 3
15 142 0 107 0 123 -3 130 -4 9 -14 21 -18 21 -2 0 -3 1 -3 2 0 2 -10 3 -55 3
-55 0 -56 0 -58 -30 0 -5 0 -9 1 -9 2 -1 8 -22 8 -28 0 -4 -12 -15 -15 -15 -1
0 -4 1 -6 3 -3 1 -6 2 -6 2 -5 -1 -14 3 -18 7 -5 7 -5 25 0 29 5 6 1 29 -6 36
-5 5 -6 5 -42 5 -28 1 -38 0 -45 -2z m168 -95 c2 -3 2 -5 -1 -7 -2 -2 -4 -3
-5 -2 0 2 -3 3 -6 4 -4 1 -3 5 4 8 5 1 5 1 8 -3z m-55 -28 c3 -3 5 -5 5 -6 0
-6 12 -26 22 -36 14 -15 17 -25 14 -39 -7 -26 -42 -28 -57 -4 -8 14 -14 20
-27 28 -6 4 -12 9 -14 12 -8 9 -3 24 13 35 22 16 34 19 44 10z m-58 -305 c12
-12 3 -31 -13 -31 -11 0 -18 7 -18 18 0 11 7 18 18 18 6 0 9 -1 13 -5z m105
-42 l-5 -5 -4 4 -5 5 4 4 5 5 4 -4 5 -5 -4 -4z m165 -206 c4 -4 5 -5 3 -10 -5
-12 -17 -17 -24 -9 -9 10 -2 22 13 24 2 0 5 -2 8 -5z m323 -78 c3 -3 4 -7 4
-14 0 -13 -6 -19 -19 -19 -13 0 -19 6 -19 19 0 7 1 11 4 14 7 8 23 8 30 0z
m185 -275 c9 -12 0 -37 -15 -43 -20 -9 -32 -4 -32 12 0 12 7 29 12 33 11 7 28
6 35 -2z m-263 -52 c5 -5 5 -11 0 -16 -10 -10 -27 5 -16 16 4 4 12 4 16 0z
m-258 -34 c5 -5 5 -11 0 -16 -10 -10 -27 5 -16 16 4 4 12 4 16 0z m-148 -20
c5 -6 5 -12 0 -18 -7 -8 -22 -2 -22 9 0 11 15 17 22 9z m581 -100 c10 -9 3
-26 -10 -26 -8 0 -15 7 -15 15 0 13 16 20 25 11z m87 -60 c5 -6 5 -7 4 -18 -3
-21 -11 -30 -25 -30 -14 0 -15 0 -21 6 -5 5 -6 7 -6 17 0 19 7 26 28 28 6 1
11 2 12 2 1 2 2 1 8 -5z m-461 -32 c10 -9 3 -26 -10 -26 -8 0 -15 7 -15 15 0
13 16 20 25 11z m-134 -39 c4 -4 5 -7 5 -15 0 -11 0 -11 -23 -31 -6 -5 -14
-14 -17 -20 -7 -14 -12 -17 -25 -17 -13 0 -19 6 -19 20 0 11 0 11 23 31 6 5
14 14 17 20 7 14 12 17 25 17 7 0 10 -1 14 -5z m656 -34 c5 -8 1 -16 -8 -16
-9 0 -13 8 -8 16 2 3 5 5 8 5 3 0 6 -2 8 -5z m-578 -70 c3 -3 3 -3 0 -6 -4 -5
-11 1 -7 6 4 4 4 4 7 0z m584 -7 c5 -5 6 -7 6 -16 0 -15 -8 -23 -23 -23 -9 0
-11 1 -16 7 -9 8 -9 23 -1 32 9 9 24 9 34 0z"/>
<path d="M69 3437 c-12 -5 -19 -36 -11 -51 6 -11 9 -13 27 -15 3 0 5 -1 6 -1
1 -1 4 1 7 5 3 3 5 6 5 7 -1 0 0 2 1 3 1 2 3 8 5 14 2 9 2 11 -1 15 -2 3 -4 6
-4 7 0 1 -3 6 -6 10 -5 8 -5 8 -14 7 -6 -1 -10 -1 -10 0 -1 1 -3 1 -5 -1z"/>
</g>
</svg>
