<?xml version="1.0" standalone="no"?>
<!DOCTYPE svg PUBLIC "-//W3C//DTD SVG 20010904//EN"
 "http://www.w3.org/TR/2001/REC-SVG-20010904/DTD/svg10.dtd">
<svg version="1.0" xmlns="http://www.w3.org/2000/svg"
 width="1000.000000pt" height="2850.000000pt" viewBox="0 0 1000.000000 2850.000000"
 preserveAspectRatio="xMidYMid meet">
<metadata>
Created by potrace 1.15, written by Peter Selinger 2001-2017
</metadata>
<g transform="translate(0.000000,2850.000000) scale(0.500000,-0.500000)"
fill="#000000" stroke="none">
<path d="M1112 3812 c-3 -1 -6 -1 -7 0 0 0 -1 0 -1 -2 0 -1 -1 -2 -3 -2 -3 0
-14 -12 -17 -19 -2 -5 -3 -45 -4 -191 l-1 -186 -4 -3 c-7 -4 -7 -19 -1 -18 2
1 3 2 3 4 -1 1 3 -3 8 -8 6 -6 17 -14 25 -18 21 -11 21 -17 0 -28 -27 -14 -30
-21 -30 -61 l1 -29 -6 -6 -6 -6 -209 0 c-115 0 -211 0 -214 -1 -4 0 -6 -2 -6
-2 0 -1 -1 -2 -3 -2 -4 0 -14 -12 -18 -21 -2 -4 -3 -11 -3 -16 0 -8 5 -27 8
-29 1 -1 3 -4 5 -7 14 -21 16 -27 8 -39 -5 -10 -12 -19 -13 -20 -1 -1 -3 -5
-5 -11 -3 -9 -3 -47 -3 -477 0 -456 0 -468 4 -477 4 -10 10 -16 20 -21 29 -13
29 -23 0 -36 -10 -5 -16 -11 -20 -21 -4 -9 -4 -15 -4 -74 0 -60 0 -65 4 -73 7
-15 8 -16 22 -16 7 1 12 0 13 -1 0 -1 1 0 1 2 0 1 1 3 2 3 1 0 5 7 10 16 8 17
10 19 22 28 6 5 20 27 20 32 0 1 2 5 4 8 5 8 13 8 17 1 3 -4 3 -6 0 -14 -1 -5
-4 -16 -5 -24 -3 -18 -2 -22 14 -39 10 -12 20 -17 36 -20 29 -5 43 -2 69 11
13 7 20 9 29 10 12 1 27 6 33 11 2 2 5 7 7 11 4 7 4 14 4 64 0 39 -1 60 -3 68
-3 13 -3 48 1 58 4 14 -5 32 -23 44 -15 10 -19 15 -19 28 0 12 4 18 20 30 5 4
11 10 12 13 2 3 3 5 4 6 7 7 7 6 8 192 0 210 2 196 -20 221 -17 20 -18 37 -1
57 21 24 21 25 21 100 0 60 0 61 -6 83 -5 24 -5 24 -3 37 1 5 1 9 1 9 -1 1 8
8 13 10 2 1 133 2 318 3 l314 1 6 -6 6 -6 -1 -41 c0 -39 1 -49 6 -61 1 -2 4
-9 7 -16 7 -16 7 -28 0 -44 -13 -30 -13 -27 -13 -103 0 -86 0 -86 25 -93 6 -1
12 -3 13 -4 1 -1 2 0 2 1 0 4 15 2 20 -3 6 -6 5 -17 -1 -23 -4 -4 -19 -6 -19
-2 0 1 -1 2 -2 1 -1 -1 -7 -3 -13 -4 -25 -6 -25 -8 -25 -84 0 -40 1 -63 2 -66
1 -3 7 -14 12 -25 12 -25 12 -31 0 -56 -14 -29 -14 -26 -14 -74 0 -46 -1 -55
-9 -62 l-5 -5 -54 0 c-41 -1 -56 -2 -68 -4 -11 -3 -18 -3 -29 -2 -30 3 -39 2
-48 -6 -8 -7 -12 -15 -14 -27 -1 -7 0 -12 6 -27 11 -27 35 -101 38 -117 0 -2
3 -12 6 -24 2 -12 6 -27 7 -34 1 -6 3 -13 4 -13 1 -1 2 -3 2 -5 0 -6 14 -19
25 -24 10 -4 11 -4 67 -3 64 1 76 2 111 6 43 5 68 10 95 18 17 5 59 24 64 28
2 2 4 3 5 3 6 0 46 36 57 52 19 25 34 67 39 107 1 3 2 11 2 16 1 6 2 111 2
235 l1 225 -7 23 c-6 19 -8 26 -8 42 0 11 0 20 1 21 1 1 2 2 1 3 0 0 2 3 4 5
3 3 5 4 5 3 0 0 1 0 2 2 1 2 2 17 2 33 0 29 0 30 -5 35 -3 3 -7 4 -18 4 -10 0
-15 1 -16 3 0 1 -1 1 -1 -2 0 -1 -2 -7 -5 -11 -9 -14 -9 -34 1 -51 8 -13 2
-25 -13 -25 -9 0 -13 2 -27 14 -5 5 -10 9 -11 10 -4 2 -12 6 -20 11 -9 5 -14
13 -14 26 0 11 5 21 13 29 2 2 7 8 11 13 4 6 12 14 18 19 10 9 21 20 34 36 5
4 9 8 11 9 4 0 19 8 26 13 3 2 8 9 11 15 l5 11 0 81 c0 76 0 81 -4 92 -2 7 -6
18 -9 25 l-4 12 4 13 c3 6 7 17 9 24 5 16 6 80 1 92 -4 9 -14 21 -18 21 -2 0
-3 1 -3 2 0 1 -1 2 -2 2 -2 0 -79 1 -171 1 -121 1 -171 1 -180 -1 -15 -3 -41
-3 -56 0 -7 1 -15 2 -19 2 -6 -1 -8 0 -12 5 l-6 7 0 32 c0 30 0 35 5 48 5 14
7 36 4 39 -3 2 -7 -2 -7 -8 0 -11 -2 -12 -22 -12 -16 0 -18 0 -19 4 0 3 -1 2
-1 -1 0 -11 -25 -17 -39 -9 -16 8 -16 40 0 48 14 8 39 2 39 -9 0 -3 1 -4 1 -1
1 4 2 4 13 3 15 -1 21 3 24 13 2 6 2 37 2 101 -1 90 -1 93 -5 100 -6 9 -15 15
-31 20 -16 5 -20 9 -20 20 0 11 4 15 20 20 16 5 25 11 31 20 4 6 4 11 5 53 0
38 0 47 -3 54 -4 9 -14 21 -18 21 -2 0 -3 1 -3 2 0 1 -1 2 -2 2 -7 1 -258 2
-262 0z m152 -128 c5 -5 6 -7 6 -17 0 -10 -1 -12 -6 -17 -5 -5 -7 -6 -17 -6
-10 0 -12 1 -17 6 -5 5 -6 7 -6 17 0 10 1 12 6 17 5 5 7 6 17 6 10 0 12 -1 17
-6z m-89 -56 c9 -6 17 -35 13 -51 -3 -12 -10 -17 -23 -17 -20 0 -28 13 -28 45
0 14 1 16 6 21 8 8 23 9 32 2z m173 -92 c5 -6 5 -12 0 -18 -7 -8 -22 -2 -22 9
0 11 15 17 22 9z m-46 -66 c12 -13 -7 -30 -19 -18 -5 4 -4 12 1 19 4 4 14 4
18 -1z m-53 -40 c3 -2 5 -5 6 -8 1 -7 -2 -24 -6 -27 -7 -8 -27 -7 -33 1 -5 6
-5 24 0 30 5 7 23 9 33 4z m-43 -187 l-5 -5 -4 4 -5 5 4 4 5 5 4 -4 5 -5 -4
-4z m147 -10 c3 -5 3 -5 0 -10 -2 -3 -5 -5 -7 -5 -2 0 -5 2 -7 5 -3 5 -3 5 0
10 2 3 5 5 7 5 2 0 5 -2 7 -5z m296 -85 c7 -6 7 -19 1 -25 -6 -7 -19 -7 -25
-1 -7 6 -7 19 -1 25 6 7 19 7 25 1z m-358 -8 c24 -5 26 -8 26 -27 0 -14 0 -16
-6 -20 -4 -4 -7 -5 -17 -5 -7 0 -14 1 -17 3 -34 21 -43 29 -43 40 0 3 2 8 5
11 4 4 5 4 19 3 9 0 23 -3 33 -5z m486 -35 c9 -5 12 -19 9 -32 -3 -11 -7 -15
-27 -19 -26 -6 -31 -1 -27 27 3 18 7 24 18 27 9 2 22 1 27 -3z m-658 -37 c7
-6 7 -19 1 -25 -6 -7 -19 -7 -25 -1 -7 6 -7 19 -1 25 6 7 19 7 25 1z m452 -20
c7 -9 2 -38 -9 -46 -7 -5 -15 -5 -21 -1 -9 7 -12 38 -5 47 7 9 27 9 35 0z
m150 -5 c0 0 2 -2 3 -5 3 -4 3 -5 1 -13 -6 -19 -3 -31 9 -47 9 -12 33 -35 42
-42 12 -8 14 -11 14 -24 0 -16 -7 -21 -26 -20 -8 1 -13 5 -20 19 -7 13 -12 21
-18 27 -2 1 -4 4 -4 5 0 1 -1 3 -3 5 -2 2 -3 8 -4 15 0 6 -1 11 -2 11 -1 0 -1
1 0 2 1 2 -8 15 -20 26 -9 8 -10 11 -9 24 0 6 7 14 12 14 2 0 4 1 5 2 1 1 2 2
3 1 0 0 3 0 5 1 3 1 11 1 12 -1z m-878 -7 c4 -6 4 -24 -1 -30 -7 -9 -27 -9
-34 0 -5 6 -5 24 0 30 7 9 27 9 35 0z m-84 -58 c10 -9 3 -26 -10 -26 -8 0 -15
7 -15 15 0 13 16 20 25 11z m-16 -86 c11 -10 3 -28 -11 -28 -9 0 -16 6 -16 16
0 14 17 22 27 12z m70 -142 c5 -5 6 -7 6 -16 0 -9 -1 -11 -7 -16 -5 -6 -7 -7
-16 -7 -9 0 -11 1 -16 7 -9 8 -9 23 -1 32 9 9 24 9 34 0z m901 -202 c5 -5 5
-15 0 -20 -9 -9 -24 -2 -24 10 0 8 6 14 14 14 3 0 8 -2 10 -4z m-877 -222 c2
-2 8 -10 11 -16 4 -7 8 -12 8 -12 1 0 2 -1 2 -3 0 -1 2 -4 4 -6 4 -5 10 -18
10 -23 0 -2 -3 -5 -6 -7 -7 -3 -7 -3 -16 1 -5 2 -11 6 -15 8 -4 4 -8 5 -17 5
-10 0 -12 -1 -23 -8 -22 -15 -35 -19 -51 -17 -15 2 -20 13 -13 33 5 14 16 24
33 29 8 2 22 8 31 12 19 9 33 11 42 4z m875 -97 c5 -4 6 -5 6 -9 0 -1 2 -4 5
-6 2 -3 6 -9 7 -14 2 -9 2 -10 -1 -13 -3 -3 -4 -3 -10 0 -4 2 -7 4 -7 5 1 4
-1 6 -5 10 -6 7 -10 23 -7 27 4 4 5 4 12 0z m-71 -71 c7 -3 12 -13 12 -25 0
-19 -9 -28 -28 -28 -19 0 -28 9 -28 28 0 17 6 24 22 28 5 1 14 -1 22 -3z
m-115 -66 c3 -3 4 -10 5 -29 0 -14 2 -31 4 -37 4 -14 2 -26 -5 -32 -4 -5 -17
-8 -26 -7 -25 5 -56 14 -61 19 -7 6 -10 20 -7 31 3 10 7 16 19 21 4 3 16 12
25 22 18 18 23 21 36 18 4 -1 8 -4 10 -6z m209 -55 c3 -5 3 -5 0 -10 -2 -3 -5
-5 -7 -5 -2 0 -5 2 -7 5 -3 5 -3 5 0 10 2 3 5 5 7 5 2 0 5 -2 7 -5z"/>
<path d="M400 3805 c-13 -4 -19 -11 -23 -24 -4 -15 -13 -42 -31 -93 -22 -63
-21 -54 -12 -96 2 -10 -1 -16 -16 -24 -15 -9 -22 -19 -33 -46 -22 -54 -40 -93
-70 -157 -11 -23 -11 -29 -1 -51 6 -12 8 -27 4 -29 -3 -2 -7 -19 -7 -29 1 -9
6 -21 11 -23 5 -2 12 -14 13 -24 1 -7 1 -9 -3 -13 -8 -8 -45 -3 -52 8 -9 14
-13 16 -29 16 l-15 0 -6 -9 c-3 -5 -10 -16 -16 -26 -11 -18 -13 -23 -16 -46
-3 -18 -4 -19 -25 -31 -14 -8 -20 -14 -33 -30 -10 -12 -13 -20 -13 -33 0 -11
1 -15 21 -55 12 -24 25 -50 29 -60 9 -19 18 -28 37 -38 8 -4 16 -9 18 -11 6
-6 6 -18 0 -34 -8 -23 -8 -28 4 -60 17 -48 18 -50 38 -51 13 0 14 0 19 5 10
10 17 20 17 23 0 5 8 -6 10 -14 1 -4 2 -150 2 -417 0 -371 0 -411 3 -418 4 -9
14 -21 18 -21 2 0 3 -1 3 -2 0 -3 13 -3 128 -3 115 0 128 0 128 3 0 1 1 2 3 2
4 0 14 12 18 21 3 7 3 30 3 217 l0 210 -5 11 c-4 8 -8 13 -16 19 -18 14 -18
20 0 34 21 15 25 35 16 69 -6 23 -6 33 0 56 7 26 7 36 -4 81 -1 6 -2 16 -1 22
1 15 1 19 -2 30 -2 10 -4 12 -17 30 -6 7 -7 10 -7 19 0 11 3 17 16 28 9 8 13
15 17 28 2 6 3 64 3 266 0 282 0 269 -12 285 -3 4 -7 10 -8 14 -3 7 -2 8 2 13
2 2 9 6 15 8 16 5 26 16 34 36 11 26 11 31 1 62 -7 21 -2 32 20 44 19 10 29
21 37 43 2 7 5 14 6 16 0 2 3 10 6 18 8 22 10 26 17 26 4 0 7 -2 12 -10 9 -13
28 -43 40 -64 14 -23 14 -24 22 -32 4 -5 10 -14 12 -21 3 -6 10 -21 16 -33 26
-50 49 -99 64 -136 14 -36 21 -43 41 -44 12 -1 20 3 28 13 8 8 12 27 9 41 -2
9 0 23 6 29 5 6 12 7 44 8 17 0 33 1 36 1 3 1 10 0 15 -1 24 -7 41 -3 63 13
12 10 16 17 16 34 0 12 -3 21 -27 68 -12 25 -43 81 -49 90 -2 3 -5 8 -7 13 -7
13 -14 18 -26 18 -5 1 -11 0 -13 0 -5 -1 -10 -14 -9 -22 2 -15 1 -23 -2 -32
-7 -19 -16 -21 -52 -9 -22 7 -27 12 -27 22 0 7 6 16 12 16 2 0 16 7 21 12 8 7
10 18 9 44 0 8 1 12 7 21 10 15 12 32 6 43 -4 7 -32 46 -35 48 -1 1 -3 4 -6 8
-14 20 -29 30 -45 30 -3 0 -19 -7 -37 -16 -59 -30 -107 -52 -110 -52 -1 1 -6
8 -11 16 -4 8 -9 16 -11 18 -4 3 -19 10 -24 11 -1 0 -22 6 -45 13 -23 7 -43
13 -45 13 -4 1 -75 22 -102 30 -26 8 -27 8 -40 4z m395 -108 c3 -5 3 -5 0 -10
-5 -6 -9 -6 -14 0 -3 5 -3 5 1 10 6 6 8 6 13 0z m-278 -54 c5 -8 1 -16 -8 -16
-9 0 -13 8 -8 16 2 3 5 5 8 5 3 0 6 -2 8 -5z m276 -113 c5 -7 4 -25 -2 -31
-10 -10 -35 -5 -38 7 -3 13 3 27 13 29 3 1 6 2 7 2 5 1 16 -3 20 -7z m-464
-243 c3 -3 3 -3 0 -6 -3 -3 -3 -3 -6 0 -3 2 -3 3 -1 6 4 4 4 4 7 0z m34 -69
c10 -9 3 -26 -10 -26 -8 0 -15 7 -15 15 0 13 16 20 25 11z m100 -27 c3 -3 3
-3 0 -6 -3 -3 -3 -3 -6 0 -3 2 -3 3 -1 6 4 4 4 4 7 0z m-318 -131 c4 -6 4 -24
-1 -30 -7 -9 -27 -9 -34 0 -5 6 -5 24 0 30 7 9 27 9 35 0z m251 -37 c7 -4 19
-9 26 -11 15 -6 20 -11 20 -24 0 -10 -5 -32 -9 -36 -6 -7 -9 -20 -8 -41 0 -22
-2 -26 -11 -26 -9 0 -13 6 -10 16 2 12 1 34 -3 42 -1 3 -7 10 -11 14 -9 8 -32
23 -36 23 -7 0 -13 19 -10 32 4 21 24 25 52 11z m-93 -158 c4 -4 5 -7 5 -15 0
-14 -6 -20 -20 -20 -14 0 -20 6 -20 20 0 14 6 20 20 20 8 0 11 -1 15 -5z m148
-286 c8 -7 7 -20 -1 -27 -4 -4 -9 -7 -12 -8 -4 -2 -6 -3 -6 -4 0 -1 -2 -2 -5
-2 -3 0 -5 -1 -5 -2 0 -1 -1 -2 -2 -1 -3 2 -4 -3 -2 -17 1 -15 4 -21 19 -32
14 -11 17 -17 17 -30 0 -8 -1 -11 -5 -15 -11 -12 -47 -12 -60 -1 -6 5 -7 12
-8 47 l-1 35 8 8 c5 4 11 9 15 10 5 2 7 4 8 8 3 10 12 30 16 33 6 5 18 4 24
-2z m-88 -236 c6 -4 6 -6 6 -20 0 -14 0 -16 -6 -20 -4 -4 -7 -5 -18 -5 -11 0
-14 1 -18 5 -6 4 -6 6 -6 20 0 14 0 16 6 20 4 4 7 5 18 5 11 0 14 -1 18 -5z
m-54 -116 c5 -8 1 -16 -8 -16 -9 0 -13 8 -8 16 2 3 5 5 8 5 3 0 6 -2 8 -5z
m66 -87 c5 -5 6 -7 6 -16 0 -9 -1 -11 -7 -16 -5 -6 -7 -7 -16 -7 -9 0 -11 1
-16 7 -9 8 -9 23 -1 32 9 9 24 9 34 0z"/>
<path d="M1619 3768 c-19 -4 -28 -14 -38 -41 -10 -29 -43 -111 -52 -128 -2 -6
-5 -12 -6 -15 -2 -7 -21 -46 -43 -90 -20 -39 -23 -47 -41 -79 -18 -31 -19 -34
-23 -39 -5 -7 -6 -32 -1 -37 7 -9 14 -14 28 -19 50 -19 79 -31 86 -34 4 -1 8
-3 9 -3 1 0 4 -2 9 -4 4 -1 8 -3 9 -3 1 0 9 -3 18 -7 9 -4 19 -7 22 -7 8 0 20
4 20 6 0 2 1 2 1 1 2 -2 18 21 20 28 2 9 11 26 16 33 3 3 12 9 20 13 8 4 17
10 20 14 6 6 27 37 45 66 5 8 14 23 21 33 25 40 29 47 36 60 5 7 9 14 10 16
20 33 20 33 20 43 0 6 -3 17 -6 25 -5 15 -5 16 -2 21 2 4 5 5 16 6 34 3 52 24
43 50 -3 8 -15 18 -25 21 -4 2 -20 7 -34 11 -14 5 -50 16 -80 26 -30 10 -66
21 -81 26 -15 5 -27 9 -28 9 -1 0 -5 -1 -9 -2z m46 -77 c6 -4 6 -6 6 -20 0
-14 0 -16 -6 -20 -4 -4 -7 -5 -18 -5 -11 0 -14 1 -18 5 -6 4 -6 6 -6 20 0 14
0 16 6 20 4 4 7 5 18 5 11 0 14 -1 18 -5z m-49 -117 c5 -5 6 -7 6 -17 0 -10
-1 -12 -6 -17 -5 -5 -7 -6 -17 -6 -10 0 -12 1 -17 6 -5 5 -6 7 -6 17 0 10 1
12 6 17 5 5 7 6 17 6 10 0 12 -1 17 -6z"/>
<path d="M992 2892 c-3 -1 -6 -1 -7 0 0 0 -1 0 -1 -2 0 -1 -1 -2 -3 -2 -4 0
-14 -12 -18 -21 -3 -9 -4 -73 -1 -82 2 -5 2 -5 19 -4 14 0 17 -1 17 -3 0 -2 1
1 2 5 3 11 12 21 21 25 7 2 7 2 13 -4 3 -3 5 -6 5 -7 -1 0 -2 -3 -2 -6 -1 -7
-6 -16 -13 -25 -6 -8 -8 -23 -6 -40 2 -12 2 -14 -1 -17 -5 -5 -13 -5 -16 -2
-1 2 -4 3 -9 2 -4 -1 -9 -1 -13 -2 -7 -1 -14 -7 -17 -17 -1 -5 -2 -49 -2 -155
0 -141 0 -148 4 -158 2 -5 6 -12 9 -15 20 -22 20 -34 0 -56 -10 -10 -13 -22
-13 -57 0 -26 1 -34 3 -40 4 -9 14 -21 18 -21 2 0 3 -1 3 -2 0 -3 12 -3 101
-3 89 0 101 0 101 3 0 1 1 2 3 2 4 0 14 12 18 21 3 7 3 14 3 32 l-1 24 6 6 6
6 39 0 c22 0 50 0 64 0 13 0 28 0 34 0 11 0 18 1 18 3 0 1 3 3 7 5 7 3 18 18
26 34 3 4 6 11 8 14 1 3 5 12 9 20 10 20 23 24 49 15 24 -8 37 -4 45 11 l5 10
1 98 c0 76 0 100 -2 106 -5 14 -18 21 -43 22 -25 1 -32 10 -31 40 1 16 5 26
13 31 2 2 2 25 0 31 -1 3 -5 7 -9 10 -11 7 -13 11 -13 28 -1 29 10 53 25 53
12 1 16 0 18 -3 4 -3 22 -2 30 2 8 4 12 14 12 34 0 12 -1 21 -3 26 -4 9 -14
21 -18 21 -2 0 -3 1 -3 2 0 1 -1 1 -2 2 -25 2 -31 2 -40 0 -5 -1 -10 -3 -10
-4 0 -1 -1 -2 -3 -2 -1 0 -6 -4 -12 -9 -14 -13 -18 -15 -26 -15 -8 0 -12 2
-26 15 -6 5 -11 9 -12 9 -2 0 -3 1 -3 2 0 3 -18 6 -41 6 -23 0 -41 -3 -41 -6
0 -1 -1 -2 -3 -2 -1 0 -6 -3 -9 -6 -4 -3 -10 -7 -14 -9 -8 -3 -8 -3 -15 0 -5
2 -11 6 -15 9 -3 3 -8 6 -9 6 -2 0 -3 1 -3 2 0 4 -20 6 -54 6 -35 0 -38 0 -46
-5 -11 -5 -19 -20 -22 -39 -2 -16 -6 -20 -26 -24 l-15 -3 -4 6 c-3 4 -4 8 -4
19 0 19 -8 35 -21 41 -9 5 -24 6 -34 3z m290 -124 c5 -5 6 -7 6 -17 0 -10 -1
-12 -6 -17 -5 -5 -7 -6 -17 -6 -10 0 -12 1 -17 6 -5 5 -6 7 -6 17 0 10 1 12 6
17 5 5 7 6 17 6 10 0 12 -1 17 -6z m-9 -183 l0 -54 -6 -6 -6 -6 -34 1 c-35 1
-35 1 -40 6 l-6 6 5 9 c2 4 5 9 7 10 4 1 9 15 9 25 -1 8 -2 10 -10 16 -5 3
-10 6 -11 6 -4 0 -15 12 -15 16 0 5 8 13 19 18 5 2 9 5 9 6 0 1 1 2 3 2 1 0 7
2 12 4 8 4 15 5 31 6 l21 1 6 -6 6 -6 0 -54z m-221 4 c6 -3 8 -7 13 -26 4 -15
2 -20 -8 -24 -7 -3 -29 -2 -37 1 -17 7 -17 43 -1 50 12 4 23 4 33 -1z m76 -56
c11 -9 12 -32 3 -42 -4 -5 -10 -7 -39 -12 -6 -1 -17 -7 -14 -7 1 0 -1 -6 -4
-13 -3 -7 -6 -14 -6 -16 0 -5 -9 -13 -17 -15 -11 -2 -24 0 -29 6 -9 8 -9 32 0
41 3 3 12 6 38 10 6 1 17 7 13 7 0 0 0 3 2 6 2 3 3 11 3 18 0 11 1 12 6 17 6
4 8 4 22 4 13 0 18 -2 22 -4z"/>
<path d="M1484 2729 c-5 -3 -6 -9 -7 -23 0 -10 1 -13 5 -17 2 -3 4 -6 4 -7 0
-1 1 -2 2 -1 1 1 5 2 9 2 15 2 21 5 25 13 5 11 3 22 -5 28 -6 5 -29 8 -33 5z"/>
</g>
</svg>
