<?xml version="1.0" standalone="no"?>
<!DOCTYPE svg PUBLIC "-//W3C//DTD SVG 20010904//EN"
 "http://www.w3.org/TR/2001/REC-SVG-20010904/DTD/svg10.dtd">
<svg version="1.0" xmlns="http://www.w3.org/2000/svg"
 width="1000.000000pt" height="2850.000000pt" viewBox="0 0 1000.000000 2850.000000"
 preserveAspectRatio="xMidYMid meet">
<metadata>
Created by potrace 1.15, written by Peter Selinger 2001-2017
</metadata>
<g transform="translate(0.000000,2850.000000) scale(0.500000,-0.500000)"
fill="#000000" stroke="none">
<path d="M1351 3829 c-4 -1 -10 -4 -13 -6 -4 -1 -16 -7 -26 -11 -27 -12 -65
-29 -94 -41 -14 -6 -36 -16 -49 -22 -26 -11 -37 -17 -34 -17 1 0 0 -1 -2 -2
-2 -1 -5 -5 -6 -9 -3 -8 -4 -28 -1 -30 1 -1 3 -4 5 -8 2 -3 4 -7 5 -9 5 -8 39
-70 48 -88 3 -6 6 -11 7 -12 2 -1 -9 -10 -14 -11 -2 0 -12 -1 -22 -2 -22 -1
-23 -1 -23 -3 0 -1 -2 -2 -5 -3 -5 -1 -14 -12 -22 -27 -7 -12 -14 -16 -27 -17
-14 0 -21 4 -29 17 -11 19 -28 30 -50 32 -14 1 -205 1 -213 0 -4 0 -6 -2 -6
-2 0 -1 -1 -2 -3 -2 -3 0 -14 -12 -17 -19 -2 -4 -3 -26 -4 -86 -1 -71 -1 -81
-4 -84 -2 -1 -4 -2 -5 -2 0 1 -1 0 -1 -2 0 -2 -2 1 -4 6 -4 11 -10 25 -28 62
-14 29 -21 36 -39 38 -10 1 -12 0 -45 -14 -19 -8 -36 -14 -38 -13 -8 2 -8 4
-8 175 0 144 0 163 -3 170 -4 9 -14 21 -18 21 -2 0 -3 1 -3 2 0 3 -13 3 -130
3 -117 0 -130 0 -130 -3 0 -1 -1 -2 -3 -2 -4 0 -14 -12 -18 -21 -3 -7 -3 -28
-3 -197 l0 -189 -6 -6 c-3 -2 -6 -4 -7 -4 0 1 -4 2 -9 2 -5 1 -14 2 -20 3 -25
4 -48 0 -58 -11 -9 -8 -18 -11 -29 -10 -18 2 -34 2 -40 -1 -7 -4 -13 -14 -14
-26 -9 -87 -11 -105 -16 -134 -1 -3 -2 -13 -3 -23 -1 -10 -3 -20 -3 -23 -1 -3
-2 -11 -3 -18 -1 -7 -2 -16 -3 -19 -5 -34 -26 -139 -32 -163 -2 -6 -3 -13 -4
-16 -1 -7 -2 -9 -9 -36 -8 -26 -8 -37 -1 -50 7 -14 14 -17 88 -43 11 -4 23 -8
26 -10 3 -1 15 -5 25 -9 10 -3 21 -7 23 -8 25 -11 39 -14 48 -13 11 1 18 5 23
10 6 7 12 21 12 28 0 5 1 6 1 4 1 -5 5 -7 5 -2 0 1 1 -1 3 -5 3 -5 3 -35 3
-205 0 -195 0 -198 4 -206 11 -23 47 -27 95 -11 20 7 35 1 39 -15 3 -15 0 -24
-14 -39 -8 -7 -16 -18 -20 -24 -11 -17 -19 -22 -33 -21 -15 1 -31 13 -31 24 0
3 -1 3 -2 2 0 -2 -8 -3 -17 -3 -12 -1 -16 -2 -18 -5 -5 -6 -4 -391 0 -402 4
-9 14 -21 18 -21 2 0 3 -1 3 -2 0 -3 13 -3 130 -3 117 0 130 0 130 3 0 1 1 2
3 2 4 0 14 12 18 21 3 7 3 27 3 181 0 188 0 182 -11 194 -5 5 -23 14 -31 15
-12 2 -19 8 -22 21 -5 18 5 35 22 37 8 1 26 10 31 15 14 15 14 45 1 56 -6 5
-27 11 -36 10 -9 -1 -16 6 -16 17 0 11 7 18 16 17 9 -1 30 5 36 10 8 7 10 15
10 50 0 43 -1 44 -32 73 -9 9 -9 23 0 32 32 29 32 30 32 77 0 31 -1 37 -4 45
-4 10 -12 18 -23 22 -5 2 -10 6 -13 9 l-4 6 4 6 c3 3 8 7 13 9 11 4 19 12 23
22 4 9 4 16 4 113 0 58 1 105 2 108 1 3 3 4 5 3 2 -1 3 1 3 5 0 3 2 -1 3 -8 1
-7 4 -17 5 -21 1 -4 3 -10 3 -12 4 -20 6 -25 10 -33 5 -11 14 -17 28 -19 9 -2
7 -2 46 16 8 4 19 9 26 12 22 10 42 19 50 23 4 3 11 5 17 5 9 0 9 0 9 -6 -1
-5 -8 -15 -27 -39 -2 -2 -5 -6 -7 -9 -2 -3 -5 -7 -7 -9 -2 -2 -6 -7 -10 -12
-4 -5 -11 -13 -16 -19 -8 -8 -9 -10 -10 -21 -1 -22 0 -23 46 -54 14 -9 30 -20
36 -25 6 -5 20 -15 31 -23 28 -21 84 -66 92 -73 8 -8 14 -10 29 -11 15 -1 17
-2 23 -8 3 -4 9 -13 12 -21 10 -25 22 -51 42 -92 11 -23 17 -33 25 -42 15 -16
17 -19 23 -42 5 -18 7 -23 19 -43 3 -5 6 -11 8 -14 2 -3 8 -14 15 -25 17 -27
17 -27 17 -34 0 -14 -2 -17 -38 -49 -9 -8 -17 -15 -18 -16 -1 -1 -6 -5 -12
-10 -6 -5 -12 -10 -14 -11 -10 -9 -52 -40 -59 -45 -4 -3 -8 -5 -9 -6 -4 -4
-67 -44 -69 -44 -1 0 -5 -2 -9 -5 -29 -18 -108 -56 -154 -74 -8 -3 -18 -9 -21
-12 -7 -6 -7 -7 -7 -21 0 -14 0 -14 8 -23 15 -14 37 -40 46 -51 5 -6 9 -11 10
-12 1 -1 4 -5 8 -10 4 -5 8 -10 9 -11 1 -1 4 -5 7 -9 3 -4 8 -11 12 -16 4 -5
10 -14 14 -19 4 -6 7 -10 8 -11 1 -1 7 -10 14 -20 23 -37 27 -40 46 -43 10 -1
10 -2 44 15 17 8 52 25 68 33 31 17 57 31 62 35 9 6 13 8 16 9 11 5 88 57 121
82 38 28 84 67 106 89 7 6 25 4 33 -4 7 -7 34 -30 45 -39 7 -5 13 -11 14 -12
1 -1 5 -4 9 -7 3 -3 8 -7 10 -9 3 -1 8 -4 13 -5 7 -2 12 -2 40 1 13 2 19 -2
21 -16 4 -18 4 -19 6 -24 5 -14 7 -17 17 -23 24 -17 81 -50 123 -70 35 -17 70
-34 71 -34 1 0 5 -2 10 -4 17 -8 29 -12 35 -12 15 0 32 11 39 25 7 13 66 100
71 105 1 1 8 10 16 20 8 10 15 19 16 20 1 1 6 7 12 14 6 7 18 20 27 30 20 20
20 20 19 33 0 20 -7 26 -45 38 -1 0 -3 1 -5 2 -31 12 -37 13 -63 6 -21 -6 -22
-5 -32 16 -8 18 -13 22 -43 38 -26 13 -48 25 -60 33 -4 2 -8 5 -10 5 -3 2 -59
39 -64 42 -2 2 -10 8 -18 13 -8 6 -17 13 -19 14 -12 10 -31 25 -34 27 -2 1 -5
3 -6 4 -1 1 -7 5 -12 10 -15 13 -17 29 -4 48 24 36 85 154 101 194 4 9 8 21
11 26 2 6 10 25 17 44 16 42 20 47 38 49 11 1 16 3 28 11 8 5 25 16 38 25 13
8 34 22 48 31 14 9 36 23 49 32 69 45 66 42 72 56 6 14 4 23 -12 48 -24 37
-59 89 -61 91 -1 1 -6 8 -11 16 -5 8 -10 15 -12 17 -1 1 -3 4 -4 6 -2 2 -9 13
-17 23 -7 10 -16 23 -20 27 -14 19 -38 53 -53 73 -9 11 -18 25 -21 29 -3 4 -8
11 -11 14 -3 3 -6 7 -7 8 -1 1 1 4 3 7 l5 5 88 1 c91 2 92 2 92 4 0 1 1 2 3 2
4 0 14 12 18 21 3 7 3 16 3 63 -1 62 -1 62 -17 79 -5 6 -10 12 -12 14 -6 9 -2
25 7 32 7 5 18 22 20 32 2 7 2 10 -1 17 -4 10 -14 22 -18 22 -2 0 -3 1 -3 2 0
2 -1 2 -1 2 -1 -1 -4 -1 -8 0 -3 1 -91 2 -197 2 l-192 0 -6 5 c-3 3 -7 5 -8 5
-2 0 -1 1 2 2 6 3 12 17 12 29 0 10 1 9 -31 68 -5 10 -11 20 -13 23 -2 3 -4 6
-4 7 0 1 -27 45 -41 68 -25 41 -35 54 -44 59 -8 4 -25 4 -32 1z m96 -198 c6
-4 6 -6 6 -20 0 -12 -1 -16 -4 -19 -9 -9 -31 -9 -40 0 -3 3 -4 6 -4 19 0 14 0
16 6 20 4 4 7 5 18 5 11 0 14 -1 18 -5z m76 -131 c11 -10 3 -28 -11 -28 -9 0
-16 6 -16 16 0 14 17 22 27 12z m-255 -26 c5 -6 5 -12 0 -18 -7 -8 -22 -2 -22
9 0 11 15 17 22 9z m-623 -90 c5 -5 6 -7 6 -16 0 -9 -1 -11 -7 -16 -5 -6 -7
-7 -16 -7 -9 0 -11 1 -16 7 -9 8 -9 23 -1 32 9 9 24 9 34 0z m442 -18 c7 -3
12 -13 12 -25 0 -19 -9 -28 -28 -28 -19 0 -28 9 -28 28 0 17 6 24 22 28 5 1
14 -1 22 -3z m-603 -97 l-5 -5 -4 4 -5 5 4 4 5 5 4 -4 5 -5 -4 -4z m771 5 c15
-4 23 -4 148 -4 138 0 139 0 147 -8 3 -3 3 -4 -1 -5 -2 0 -8 -4 -14 -7 -5 -4
-15 -10 -21 -13 -19 -12 -25 -15 -30 -19 -3 -1 -10 -6 -16 -9 -20 -12 -26 -21
-26 -38 0 -11 1 -12 31 -56 37 -56 68 -104 97 -150 5 -8 12 -18 15 -23 25 -38
31 -49 28 -52 -5 -5 -19 -3 -73 11 -79 21 -72 20 -84 17 -12 -3 -22 -11 -27
-21 -2 -3 -7 -19 -12 -34 -5 -15 -10 -30 -12 -33 -2 -4 -3 -11 -2 -20 0 -13 0
-15 6 -20 6 -5 8 -6 19 -6 17 0 32 -5 31 -11 -4 -22 -23 -31 -38 -16 -7 8 -17
10 -32 8 -7 -1 -9 -2 -12 -9 -8 -16 -4 -36 10 -47 19 -14 19 -15 19 -26 0 -13
-6 -19 -19 -19 -5 0 -10 1 -12 2 -2 1 -10 3 -19 3 -19 1 -25 2 -31 6 -10 6
-59 105 -84 168 -18 44 -20 48 -27 55 -7 7 -20 12 -29 12 -5 0 -14 -2 -44 -10
-13 -4 -33 -9 -45 -12 l-21 -6 -5 6 c-5 5 -5 7 -4 11 1 3 2 7 2 10 0 6 8 14
21 21 16 9 23 17 36 39 7 10 15 24 19 30 9 15 10 28 4 50 -4 16 -4 23 1 33 3
6 7 8 26 13 24 7 34 15 45 37 34 63 34 64 27 79 -4 8 -17 17 -29 20 -3 0 -12
7 -20 14 -8 8 -16 13 -19 13 -2 0 -3 1 -1 1 2 1 6 4 9 7 12 12 41 15 68 8z
m-321 -10 c3 -3 5 -6 4 -6 0 0 -4 -6 -8 -13 -4 -8 -15 -27 -24 -44 -9 -16 -18
-35 -20 -41 -6 -18 -10 -23 -17 -30 -5 -4 -10 -9 -11 -12 -4 -7 -10 -8 -15 -2
-2 2 -8 17 -13 33 -6 17 -12 35 -14 40 -2 6 -8 23 -14 38 -6 15 -11 29 -12 30
-2 2 4 9 9 11 2 1 32 2 66 2 l62 0 7 -6z m-583 -6 c24 -13 28 -15 30 -19 4 -7
2 -11 -6 -14 -6 -3 -11 -3 -19 -2 -6 1 -16 2 -23 2 -16 2 -21 7 -21 20 0 20
16 25 39 13z m360 -25 c3 -5 3 -5 0 -10 -2 -3 -5 -5 -7 -5 -2 0 -5 2 -7 5 -3
5 -3 5 0 10 2 3 5 5 7 5 2 0 5 -2 7 -5z m-559 -29 c1 0 5 -3 8 -6 5 -5 6 -7 6
-18 0 -11 -1 -13 -6 -18 -6 -6 -7 -6 -20 -6 -15 0 -23 8 -23 24 0 11 5 19 13
23 5 2 8 2 22 1z m216 -31 c0 -5 -6 -11 -11 -11 -6 0 -12 8 -10 13 0 2 3 6 6
7 6 4 6 4 11 -1 2 -3 4 -7 4 -8z m565 -47 c4 -3 5 -7 5 -13 0 -11 -6 -17 -17
-17 -10 0 -16 6 -18 17 -1 8 -1 9 3 13 7 6 21 5 27 0z m-560 -53 c3 -5 3 -5 0
-10 -2 -3 -5 -5 -7 -5 -2 0 -5 2 -7 5 -3 5 -3 5 0 10 2 3 5 5 7 5 2 0 5 -2 7
-5z m1338 1 c10 -9 3 -26 -10 -26 -8 0 -15 7 -15 15 0 13 16 20 25 11z m113
-69 l-5 -5 -4 4 -5 5 4 4 5 5 4 -4 5 -5 -4 -4z m-1609 -16 c9 -3 13 -10 13
-23 0 -15 -4 -20 -19 -26 -26 -9 -53 -9 -61 0 -8 7 -9 26 -4 37 3 6 11 9 27
12 18 3 35 3 44 0z m1298 -181 c11 -10 3 -27 -12 -25 -10 1 -18 5 -18 9 0 1 1
3 1 4 0 1 3 5 6 9 8 8 16 9 23 3z m-356 -64 c5 -5 6 -7 6 -16 0 -9 -1 -11 -7
-16 -5 -6 -7 -7 -16 -7 -9 0 -11 1 -16 7 -9 8 -9 23 -1 32 9 9 24 9 34 0z
m-774 -160 c5 -5 6 -7 6 -16 0 -9 -1 -11 -7 -16 -5 -6 -7 -7 -16 -7 -9 0 -11
1 -16 7 -9 8 -9 23 -1 32 9 9 24 9 34 0z m1072 -85 c16 -4 21 -9 21 -23 0 -10
-5 -22 -10 -26 -4 -3 -12 -23 -16 -39 -6 -24 -11 -29 -29 -30 -15 -1 -25 7
-29 20 -3 12 0 25 8 33 10 10 12 15 11 32 -1 8 -2 15 -3 16 -4 2 -4 10 -1 15
4 4 5 5 20 5 9 0 21 -1 28 -3z m-125 -29 c1 0 5 -3 8 -6 5 -5 6 -7 6 -18 0
-11 -1 -13 -6 -18 -6 -6 -7 -6 -18 -6 -11 0 -12 0 -18 6 -5 5 -6 7 -6 17 0 14
3 20 12 24 5 2 8 2 22 1z m-233 -350 c4 -6 4 -24 -1 -30 -7 -9 -27 -9 -34 0
-5 6 -5 24 0 30 7 9 27 9 35 0z"/>
</g>
</svg>
