<?xml version="1.0" standalone="no"?>
<!DOCTYPE svg PUBLIC "-//W3C//DTD SVG 20010904//EN"
 "http://www.w3.org/TR/2001/REC-SVG-20010904/DTD/svg10.dtd">
<svg version="1.0" xmlns="http://www.w3.org/2000/svg"
 width="1000.000000pt" height="2850.000000pt" viewBox="0 0 1000.000000 2850.000000"
 preserveAspectRatio="xMidYMid meet">
<metadata>
Created by potrace 1.15, written by Peter Selinger 2001-2017
</metadata>
<g transform="translate(0.000000,2850.000000) scale(0.500000,-0.500000)"
fill="#000000" stroke="none">
<path d="M387 3799 c-1 0 -7 -2 -13 -4 -19 -6 -38 -24 -42 -40 -2 -8 -2 -31 1
-35 3 -5 26 0 31 7 1 1 8 2 15 3 12 0 13 0 19 -6 5 -5 6 -7 6 -17 0 -10 -1
-12 -6 -17 -5 -5 -7 -6 -16 -6 -14 0 -19 4 -25 17 l-5 11 -16 0 c-18 -1 -19
-2 -24 -19 -1 -5 -6 -22 -10 -36 -5 -14 -11 -33 -13 -42 -3 -9 -7 -22 -10 -29
-2 -7 -5 -16 -7 -20 -6 -18 -23 -64 -27 -75 -12 -31 -34 -85 -36 -90 -3 -6 -3
-9 -1 -18 3 -13 7 -18 24 -27 15 -8 18 -12 18 -27 0 -10 -1 -12 -6 -17 -3 -3
-7 -6 -9 -6 -12 -1 -19 0 -25 3 -9 5 -29 5 -38 0 -4 -3 -9 -10 -19 -30 -15
-29 -25 -48 -38 -71 -5 -8 -9 -16 -10 -18 -1 -3 -1 -3 -21 -36 -8 -13 -17 -27
-19 -31 -2 -3 -4 -6 -5 -7 -1 0 -2 -1 -2 -2 0 -2 -12 -20 -14 -22 -5 -4 -18
-28 -20 -35 -4 -14 -1 -23 18 -62 20 -40 30 -62 40 -85 3 -8 8 -19 10 -23 2
-4 7 -16 11 -26 4 -9 10 -20 14 -24 11 -13 17 -29 20 -58 2 -13 6 -22 13 -29
4 -4 7 -5 17 -6 14 0 21 2 21 9 0 7 9 -8 13 -22 2 -7 4 -15 5 -19 5 -14 18
-21 44 -23 14 -2 30 -8 30 -13 0 0 4 -5 9 -10 11 -13 14 -22 8 -28 -6 -6 -16
-2 -47 18 -18 12 -42 9 -43 -6 0 -3 1 -12 3 -21 4 -16 4 -33 0 -38 -12 -15
-14 -96 -3 -108 7 -8 19 -12 36 -14 14 -2 19 -7 19 -20 0 -6 -1 -11 -3 -13 -2
-2 -3 -4 -3 -5 0 -1 -2 -4 -4 -6 -7 -8 -11 -24 -10 -41 0 -15 -1 -17 -17 -29
-12 -9 -16 -13 -20 -22 l-5 -11 0 -103 c0 -96 0 -103 4 -111 5 -13 16 -23 27
-27 3 -1 8 -4 11 -7 5 -5 6 -7 6 -16 0 -9 -1 -11 -6 -16 -3 -3 -8 -6 -11 -7
-11 -4 -22 -14 -27 -27 -5 -12 -6 -73 -1 -85 4 -9 14 -21 18 -21 2 0 3 -1 3
-2 0 -3 13 -3 125 -3 112 0 125 0 125 3 0 1 1 2 3 2 4 0 14 12 18 21 3 7 3 20
3 109 l-1 101 -9 20 c-5 11 -9 23 -9 27 0 4 4 16 9 27 l9 20 0 284 0 284 -4 8
c-3 5 -6 14 -8 20 -3 12 -3 13 0 24 2 7 5 15 7 19 11 21 3 46 -18 56 -29 13
-29 23 0 36 10 5 16 11 20 22 4 9 4 4 2 196 0 9 1 30 1 46 1 28 1 31 -3 42 -2
7 -5 12 -6 12 -1 0 -2 1 -2 2 0 1 -3 6 -6 10 -7 8 -10 22 -7 33 1 3 8 12 17
21 19 18 22 24 46 90 9 25 17 47 18 48 1 2 2 7 2 10 0 4 1 5 1 4 1 -2 2 -4 3
-4 3 0 6 -7 7 -15 2 -15 15 -35 22 -35 2 0 3 -1 3 -2 0 -2 2 -2 65 -3 57 -1
75 0 79 5 1 0 3 2 5 3 2 1 7 7 10 12 14 20 17 23 28 23 11 0 16 -4 28 -23 8
-13 20 -19 40 -21 23 -1 41 8 50 25 1 3 6 8 10 10 6 4 7 4 14 -1 4 -2 7 -6 8
-8 2 -7 15 -18 24 -22 7 -3 14 -4 57 -4 56 0 56 0 83 16 20 11 29 11 49 -1 8
-5 20 -10 25 -12 l10 -4 18 6 c22 7 34 7 50 1 12 -5 14 -5 110 -5 96 -1 99 -1
108 3 9 4 17 12 23 24 4 8 11 14 15 14 4 0 11 -6 15 -14 6 -12 14 -20 23 -24
9 -4 13 -4 189 -3 100 0 182 1 184 1 1 0 2 1 2 2 0 1 1 2 3 2 4 0 14 12 18 21
6 14 3 30 -8 41 -4 5 -26 16 -31 16 -1 0 -4 1 -6 2 -1 1 -13 6 -24 12 -26 12
-28 15 -28 27 0 13 6 19 18 19 5 0 11 -1 13 -2 14 -7 32 -14 37 -14 12 0 23 9
29 22 2 6 3 16 3 49 0 36 0 42 -4 49 -6 15 -11 18 -22 19 -10 1 -12 1 -25 -6
-13 -7 -15 -8 -36 -8 -21 -1 -27 -3 -27 -8 1 -8 0 -9 -8 -9 l-9 0 0 14 c1 8 1
16 1 17 0 1 1 1 3 0 1 -1 0 0 -2 2 -2 1 -4 2 -5 2 -1 -1 -4 0 -5 1 -3 3 -4 3
-2 0 1 -2 1 -3 -1 -1 -2 2 -9 2 -18 2 -14 0 -17 -1 -35 -10 -26 -12 -30 -12
-56 0 l-20 10 -265 0 -266 0 -5 -4 c-5 -4 -6 -6 -7 -18 0 -8 -1 -15 -3 -15 -1
-1 0 -2 2 -2 9 0 19 -30 16 -51 -2 -14 -7 -21 -18 -23 -16 -4 -28 1 -36 15
-12 22 -10 59 4 59 3 0 3 1 2 2 -2 0 -3 7 -3 15 -1 12 -2 14 -7 18 -5 4 -7 4
-94 5 l-89 0 -12 -5 c-6 -3 -14 -8 -18 -12 -11 -10 -16 -13 -23 -13 -6 0 -19
8 -25 15 -2 2 -8 6 -15 9 l-12 6 -77 0 -77 0 -7 5 c-4 3 -9 5 -10 5 -1 0 -1 1
-1 3 3 6 -20 22 -38 26 -3 1 -12 4 -20 7 -13 5 -84 26 -96 29 -2 0 -17 4 -32
9 -24 7 -41 9 -48 7z m141 -132 c5 -6 6 -22 1 -26 -2 -1 -3 -4 -3 -6 0 -2 -1
-3 -3 -3 -2 0 -3 -2 -3 -4 0 -2 -1 -4 -2 -5 -1 -1 -2 -5 -1 -10 0 -4 -1 -9 -2
-11 -2 -1 -2 -3 -2 -5 2 -3 7 -4 7 -1 0 1 2 2 4 1 2 0 4 1 5 2 1 3 8 2 18 -2
4 -2 8 -2 9 -2 1 1 2 0 2 0 0 -8 34 -13 42 -6 2 2 4 3 6 3 1 0 4 2 6 4 6 6 21
6 27 -1 7 -6 7 -22 0 -28 -6 -7 -21 -7 -27 -1 -3 3 -5 3 -12 2 -5 -1 -8 -1 -8
0 0 1 -1 2 -2 1 -2 -1 -4 -2 -6 -2 -3 -1 -12 -10 -12 -13 0 -1 -1 -4 -2 -6 -5
-9 -12 -27 -12 -33 0 -5 -1 -5 -2 3 -2 10 -7 14 -24 23 -9 5 -14 9 -17 15 -6
10 -19 24 -22 24 -2 0 -3 1 -3 2 0 1 -4 2 -8 2 -12 2 -14 2 -18 7 -6 4 -5 10
2 17 5 6 7 7 17 7 12 0 12 0 13 6 0 4 -1 9 -3 13 -3 9 0 27 6 34 6 7 22 6 29
-1z m1301 -3 c4 -5 2 -26 -3 -32 -7 -9 -28 -8 -34 0 -6 7 -5 25 1 31 4 4 7 5
19 5 11 0 14 -1 17 -4z m-454 -99 c3 -5 3 -5 0 -10 -2 -3 -5 -5 -7 -5 -2 0 -5
2 -7 5 -3 5 -3 5 0 10 2 3 5 5 7 5 2 0 5 -2 7 -5z m-670 -68 c5 -8 1 -16 -8
-16 -9 0 -13 8 -8 16 2 3 5 5 8 5 3 0 6 -2 8 -5z m-248 -73 c5 -5 6 -7 6 -16
0 -9 -1 -11 -7 -16 -5 -6 -7 -7 -16 -7 -9 0 -11 1 -16 7 -9 8 -9 23 -1 32 9 9
24 9 34 0z m-116 -18 c4 -6 4 -24 -1 -30 -7 -9 -27 -9 -34 0 -5 6 -5 24 0 30
7 9 27 9 35 0z m67 -286 c1 0 5 -3 8 -6 5 -5 6 -7 6 -18 0 -11 -1 -13 -6 -18
-6 -6 -7 -6 -18 -6 -11 0 -12 0 -18 6 -5 5 -6 7 -6 17 0 14 3 20 12 24 5 2 8
2 22 1z m-161 -22 c11 -10 3 -28 -11 -28 -9 0 -16 6 -16 16 0 14 17 22 27 12z
m120 -191 c3 -5 3 -5 0 -10 -2 -3 -5 -5 -7 -5 -2 0 -5 2 -7 5 -3 5 -3 5 0 10
2 3 5 5 7 5 2 0 5 -2 7 -5z m-142 -38 c3 -3 4 -7 4 -17 0 -12 -1 -14 -5 -18
-6 -5 -8 -5 -13 0 -6 4 -10 18 -8 26 3 13 14 17 22 9z m193 -243 c5 -5 5 -11
0 -16 -10 -10 -27 5 -16 16 4 4 12 4 16 0z m-41 -630 c5 -5 6 -7 6 -16 0 -9
-1 -11 -7 -16 -5 -6 -7 -7 -16 -7 -9 0 -11 1 -16 7 -9 8 -9 23 -1 32 9 9 24 9
34 0z"/>
<path d="M632 3352 c-3 -1 -6 -1 -7 0 0 0 -1 0 -1 -2 0 -1 -1 -2 -3 -2 -4 0
-15 -13 -18 -23 -6 -17 3 -34 24 -43 6 -3 13 -6 14 -6 1 0 5 -3 8 -6 8 -8 8
-24 0 -32 -3 -3 -7 -6 -8 -6 -1 0 -8 -3 -14 -6 -13 -6 -21 -14 -25 -26 -3 -10
-3 -42 1 -64 3 -19 3 -21 0 -39 -3 -18 -3 -48 -3 -332 0 -332 0 -319 9 -329 5
-5 29 -12 35 -10 2 1 8 1 14 0 15 -3 30 0 46 11 13 9 17 10 33 9 2 0 6 -3 9
-6 5 -5 6 -7 6 -15 0 -24 -9 -34 -26 -32 -26 3 -39 0 -50 -10 -11 -10 -24 -15
-33 -11 -5 2 -29 -5 -34 -10 -7 -8 -9 -17 -9 -43 0 -19 1 -27 4 -36 14 -39 13
-36 9 -47 -5 -19 -6 -31 -2 -35 2 -2 4 -4 3 -5 -2 -2 25 -7 28 -5 4 3 43 2 53
-1 5 -1 11 -4 13 -8 4 -5 4 -6 3 -28 -1 -28 -5 -46 -11 -50 -5 -4 -16 -5 -22
-2 -4 2 -13 17 -15 26 0 3 -2 7 -4 9 -16 18 -21 23 -21 21 0 -1 -1 -2 -2 -1
-3 2 -22 -3 -22 -5 0 -2 -1 -2 -1 -1 -2 1 -6 -3 -10 -10 -2 -5 -3 -12 -3 -26
0 -25 4 -37 14 -47 32 -29 32 -27 0 -56 -11 -11 -14 -22 -14 -54 0 -19 1 -28
3 -33 4 -9 14 -21 18 -21 2 0 3 -1 3 -2 0 -3 12 -3 107 -3 95 0 107 0 107 3 0
1 1 2 3 2 4 0 14 12 18 21 5 12 4 158 -1 187 -4 22 -4 22 0 43 3 20 4 34 4
158 1 138 1 144 8 149 1 1 2 3 3 5 0 3 1 3 1 -1 0 -7 9 -15 22 -19 l11 -4 32
9 33 9 5 -5 5 -6 0 -65 c0 -62 0 -65 5 -82 6 -21 6 -34 2 -48 -2 -6 -3 -15 -3
-21 0 -9 1 -11 6 -17 4 -3 7 -6 7 -5 0 1 20 -3 21 -5 1 -1 2 -1 2 2 0 5 13 4
18 -1 5 -5 5 -15 0 -20 -5 -5 -18 -6 -18 0 0 2 -1 2 -2 1 -1 -2 -21 -6 -21 -5
0 1 -3 -2 -7 -5 -3 -3 -7 -9 -8 -14 -3 -12 -11 -18 -23 -19 -24 -1 -46 -17
-56 -39 -8 -16 -8 -30 -3 -47 8 -29 14 -47 18 -64 9 -37 12 -42 31 -65 23 -27
32 -32 58 -31 39 0 77 8 105 19 34 15 47 24 70 47 14 15 14 15 14 26 0 12 -2
17 -13 27 -8 7 -8 7 -21 7 -8 -1 -18 -3 -27 -7 -12 -5 -17 -6 -30 -5 -2 0 -6
3 -9 6 -5 5 -6 7 -6 18 0 11 1 13 6 18 3 3 7 6 9 6 11 1 15 0 25 -2 14 -3 29
-1 43 6 7 3 14 6 17 7 20 6 34 18 40 35 4 11 4 21 4 377 l0 366 -7 20 c-9 25
-9 33 0 58 l7 20 0 183 c0 202 0 196 -12 209 -4 4 -8 7 -9 7 -2 0 -3 1 -3 2 0
0 -2 2 -5 2 -4 1 -99 1 -212 1 l-207 0 -7 -6 c-8 -7 -17 -24 -17 -35 0 -6 -8
-14 -14 -14 -2 0 -8 1 -12 2 -6 2 -8 4 -16 20 -14 30 -21 34 -59 34 -14 0 -28
-1 -31 -2z m449 -53 c3 -3 3 -3 0 -6 -3 -3 -3 -3 -6 0 -3 2 -3 3 -1 6 4 4 4 4
7 0z m-87 -74 c-1 -4 -6 -9 -10 -11 -4 -2 -12 -9 -17 -14 -14 -15 -18 -18 -31
-18 -9 0 -11 1 -16 6 -5 5 -6 7 -6 17 0 15 6 22 22 24 6 0 20 3 32 6 21 5 21
5 25 1 5 -4 5 -5 1 -11z m-12 -224 c0 -52 -1 -95 -1 -97 -1 -2 -1 -4 -1 -6 0
-1 -1 -2 -2 -1 -1 1 -2 0 -2 -1 0 -2 0 -2 -2 0 -1 2 -2 1 -3 -3 0 -6 0 -5 -1
1 -1 21 -15 42 -32 46 -10 3 -18 2 -42 -4 -9 -2 -18 -4 -19 -4 -2 -1 -3 -1 -3
-2 0 -1 -3 1 -6 4 l-6 7 0 54 c0 30 -1 56 -1 59 -1 3 -2 13 -2 22 0 9 -1 18
-2 18 -1 1 -1 2 1 2 1 0 5 2 8 5 4 4 6 4 54 5 l51 1 6 -6 6 -6 -1 -94z m-167
83 c3 -6 3 -6 0 -12 -7 -12 -19 -9 -21 5 -1 12 15 17 21 7z m-25 -54 c4 -5 5
-10 6 -19 1 -22 -7 -29 -33 -27 -2 0 -6 3 -9 6 -5 5 -6 7 -6 18 0 14 4 21 18
25 15 4 19 4 24 -3z m271 -155 c4 -3 6 -7 6 -13 2 -17 0 -23 -11 -31 -17 -13
-24 -20 -33 -31 -8 -11 -16 -16 -24 -16 -7 0 -16 5 -19 10 -3 5 -2 23 1 36 2
6 3 16 4 23 2 16 4 22 10 20 2 -1 9 -2 14 -2 6 0 11 -1 11 -2 1 -1 2 -1 2 1 0
10 29 14 39 5z m-331 -25 c3 -1 9 -4 13 -7 4 -3 15 -9 23 -12 8 -4 16 -9 18
-11 5 -6 5 -15 0 -20 -4 -4 -7 -4 -34 -4 -17 -1 -33 -1 -36 -1 -18 -1 -31 18
-26 38 3 10 7 14 15 18 7 3 20 3 27 -1z m355 -131 c5 -8 1 -16 -8 -16 -9 0
-13 8 -8 16 2 3 5 5 8 5 3 0 6 -2 8 -5z m-265 -57 c2 -2 4 -3 5 -3 1 1 3 -1 5
-4 3 -10 11 -49 11 -61 l0 -11 -8 -1 c-7 -1 -9 -1 -10 2 0 2 -1 2 -1 -1 0 -11
-28 -12 -41 -2 -14 11 -20 35 -12 51 4 9 16 23 25 29 9 6 23 7 26 1z m-125 -6
c5 -5 6 -7 6 -16 0 -9 -1 -11 -7 -16 -5 -6 -7 -7 -16 -7 -9 0 -11 1 -16 7 -9
8 -9 23 -1 32 9 9 24 9 34 0z m323 -9 l-5 -5 -4 4 -5 5 4 4 5 5 4 -4 5 -5 -4
-4z m-275 -116 c4 -4 5 -7 5 -15 0 -14 -6 -20 -20 -20 -14 0 -20 6 -20 20 0
14 6 20 20 20 8 0 11 -1 15 -5z m398 -146 c3 -3 3 -3 0 -6 -3 -3 -3 -3 -6 0
-3 2 -3 3 -1 6 4 4 4 4 7 0z m-379 -308 l-5 -5 -4 4 -5 5 4 4 5 5 4 -4 5 -5
-4 -4z"/>
<path d="M1287 3349 c-4 -3 -7 -6 -6 -6 0 -1 0 -3 -1 -4 -3 -4 -4 -24 -1 -29
5 -7 4 -21 -2 -32 -3 -6 -6 -11 -7 -12 -1 -1 -4 -5 -6 -11 l-5 -10 -1 -148 0
-147 6 -22 c7 -26 7 -30 0 -56 l-6 -21 0 -340 c0 -256 1 -342 2 -347 3 -8 10
-14 14 -13 1 0 2 0 2 -1 0 -1 5 -1 10 -1 6 0 10 -1 10 -2 0 -1 1 0 3 3 5 6 19
6 25 -1 6 -6 6 -19 -1 -25 -6 -6 -20 -6 -24 0 -2 3 -3 4 -3 3 0 -1 -4 -2 -10
-2 -5 0 -10 0 -10 -1 0 -1 -1 -1 -2 -1 -4 1 -11 -5 -14 -13 -4 -11 -3 -116 2
-129 l3 -10 16 -1 17 0 7 14 c10 21 14 24 30 25 23 1 35 -17 27 -43 -4 -15 -4
-33 1 -42 4 -8 18 -20 29 -25 8 -4 12 -4 47 -4 39 0 49 1 49 3 0 1 1 2 3 2 4
0 14 12 18 21 5 12 5 191 0 221 -4 19 -4 21 0 41 4 27 4 54 -1 75 -6 21 -6 35
0 56 3 15 4 23 4 61 0 33 1 46 3 54 2 6 4 11 5 11 1 0 2 2 3 4 0 3 1 3 1 0 0
-4 16 -10 25 -10 2 0 21 4 42 10 l39 9 5 -4 5 -5 0 -141 0 -140 -5 -12 c-4
-11 -16 -35 -20 -41 -1 -2 -2 -4 -2 -6 -1 -5 -7 -9 -18 -13 -29 -9 -32 -12
-39 -30 -5 -17 -5 -43 1 -74 3 -13 6 -31 7 -39 4 -26 12 -41 28 -49 11 -6 87
-5 125 2 34 6 51 11 75 22 16 8 34 19 38 23 1 1 5 4 9 8 25 21 45 57 54 96 8
31 9 55 8 203 0 162 1 149 -15 165 -11 10 -21 15 -45 20 -24 6 -27 9 -23 26 3
15 16 43 23 47 3 2 9 3 14 3 13 0 31 5 37 11 9 8 10 16 9 67 -1 26 -1 57 -1
70 0 13 1 160 1 328 l1 304 -4 6 c-6 8 -11 11 -22 11 -5 0 -10 1 -12 2 -1 1
-2 0 -2 -2 0 -6 -24 -7 -33 -1 -3 2 -9 8 -12 14 -4 6 -10 13 -13 16 -13 12
-35 16 -57 11 -15 -4 -29 -4 -44 0 -10 2 -45 3 -210 3 l-198 0 -8 -5z m290
-112 c3 -5 3 -5 0 -10 -2 -3 -5 -5 -7 -5 -2 0 -5 2 -7 5 -3 5 -3 5 0 10 2 3 5
5 7 5 2 0 5 -2 7 -5z m-172 -25 c3 -2 7 -5 8 -9 7 -12 3 -37 -7 -40 -5 -2 -18
-16 -19 -21 -2 -10 -2 -19 0 -24 4 -8 4 -25 -1 -30 -7 -9 -27 -9 -34 0 -3 3
-4 8 -4 16 0 10 1 11 8 18 11 10 13 16 14 29 0 8 -1 13 -4 18 -6 9 -6 25 -1
34 5 12 23 15 40 9z m445 -30 c9 -9 9 -23 -2 -40 -8 -15 -13 -28 -15 -44 -2
-21 -7 -24 -37 -25 -11 -1 -26 -2 -32 -3 -27 -5 -36 0 -36 17 0 13 4 18 15 21
19 5 40 12 44 16 2 1 6 6 9 9 5 7 14 33 14 40 0 2 3 6 6 9 5 5 7 6 17 6 10 0
12 -1 17 -6z m-215 -85 c3 -3 6 -7 6 -7 -1 -1 -1 -44 -1 -96 0 -52 -1 -95 -1
-97 -1 -1 -3 -2 -5 -2 -3 1 -4 0 -5 -4 0 -5 0 -4 -1 2 0 4 -2 13 -5 19 l-5 10
-15 0 c-14 0 -16 0 -20 -5 -15 -19 -23 -21 -44 -11 -8 4 -14 7 -15 7 -1 -1 -3
3 -6 8 l-6 9 0 80 -1 81 6 6 6 6 53 0 53 0 6 -6z m194 -169 c7 -3 12 -13 12
-25 0 -19 -9 -28 -28 -28 -19 0 -28 9 -28 28 0 17 6 24 22 28 5 1 14 -1 22 -3z
m-353 -192 c5 -5 5 -15 0 -20 -9 -9 -24 -2 -24 10 0 8 6 14 14 14 3 0 8 -2 10
-4z m293 -23 c13 -8 14 -35 1 -45 -10 -9 -43 -24 -52 -24 -5 0 -12 7 -12 12 0
7 12 37 16 40 1 1 3 4 5 7 1 4 4 7 6 9 7 6 27 7 36 1z m-56 -132 c9 -14 -10
-30 -22 -19 -3 3 -5 6 -5 7 0 4 7 15 10 16 8 2 14 1 17 -4z m-322 -32 c3 -5 3
-5 0 -10 -2 -3 -5 -5 -7 -5 -2 0 -5 2 -7 5 -3 5 -3 5 0 10 2 3 5 5 7 5 2 0 5
-2 7 -5z m111 -21 c13 -13 13 -52 1 -72 l-3 -4 -3 4 c-3 4 -21 14 -27 15 -9 2
-15 19 -12 33 2 8 9 18 13 18 1 0 6 3 11 6 11 7 12 7 20 0z m-176 -216 c6 -6
5 -17 0 -21 -11 -7 -24 -1 -24 11 0 8 6 14 14 14 3 0 8 -2 10 -4z m73 -24 c10
-9 3 -26 -10 -26 -8 0 -15 7 -15 15 0 13 16 20 25 11z m358 -7 c4 -4 5 -7 5
-15 0 -14 -6 -20 -20 -20 -14 0 -20 6 -20 20 0 14 6 20 20 20 8 0 11 -1 15 -5z
m-327 -70 c3 -3 4 -7 4 -14 0 -13 -6 -19 -19 -19 -13 0 -19 6 -19 19 0 7 1 11
4 14 7 8 23 8 30 0z m243 -191 c5 -5 6 -7 6 -16 0 -9 -1 -11 -7 -16 -5 -6 -7
-7 -16 -7 -9 0 -11 1 -16 7 -9 8 -9 23 -1 32 9 9 24 9 34 0z"/>
</g>
</svg>
