<?xml version="1.0" standalone="no"?>
<!DOCTYPE svg PUBLIC "-//W3C//DTD SVG 20010904//EN"
 "http://www.w3.org/TR/2001/REC-SVG-20010904/DTD/svg10.dtd">
<svg version="1.0" xmlns="http://www.w3.org/2000/svg"
 width="1000.000000pt" height="2850.000000pt" viewBox="0 0 1000.000000 2850.000000"
 preserveAspectRatio="xMidYMid meet">
<metadata>
Created by potrace 1.15, written by Peter Selinger 2001-2017
</metadata>
<g transform="translate(0.000000,2850.000000) scale(0.500000,-0.500000)"
fill="#000000" stroke="none">
<path d="M678 3812 c-10 -3 -20 -10 -24 -17 -6 -10 -8 -19 -9 -47 -1 -15 -2
-33 -2 -40 -1 -19 -5 -64 -6 -85 -1 -10 -2 -20 -2 -23 0 -3 -3 -7 -6 -10 l-6
-6 -215 -1 c-118 0 -216 -1 -217 -1 -2 0 -3 -1 -3 -2 0 -1 -1 -2 -3 -2 -4 0
-14 -12 -18 -21 -5 -11 -5 -237 0 -248 4 -9 14 -21 18 -21 2 0 3 -1 3 -2 0 -1
1 -2 3 -2 1 0 78 -1 171 -1 l169 -1 6 -5 7 -5 -9 -12 c-15 -22 -36 -48 -56
-67 -12 -13 -23 -26 -28 -35 -12 -20 -15 -23 -35 -28 -15 -4 -37 -13 -43 -18
-4 -3 -28 -16 -52 -28 -61 -30 -120 -52 -200 -75 -59 -17 -63 -20 -63 -43 0
-11 0 -12 10 -22 6 -6 15 -17 22 -25 6 -8 11 -14 12 -15 2 -2 24 -31 27 -37 2
-3 5 -7 6 -8 2 -2 6 -9 10 -15 4 -7 10 -16 12 -19 3 -4 5 -7 5 -8 0 -1 3 -5 6
-9 6 -7 7 -7 22 -8 12 0 17 0 22 3 11 5 20 4 44 -7 17 -8 25 -13 31 -19 4 -4
7 -8 7 -9 0 -2 7 -10 9 -10 1 0 3 -1 4 -3 7 -6 19 -6 42 2 12 4 23 8 25 9 1 2
2 2 2 1 0 -2 27 13 32 18 3 3 8 11 12 17 3 5 11 15 18 22 13 14 17 19 21 28 7
13 14 18 24 18 11 0 17 -3 24 -11 8 -11 31 -17 44 -11 11 5 15 30 7 47 -8 17
-4 41 6 41 5 0 19 -10 28 -20 10 -12 18 -16 31 -16 9 0 17 5 44 27 5 4 12 10
15 12 20 16 63 58 67 65 2 3 3 9 4 12 3 18 16 32 34 38 7 2 9 4 17 16 5 8 10
14 10 14 1 0 3 4 5 8 4 9 4 30 1 41 -4 17 4 28 24 36 18 6 26 14 37 37 9 18
25 57 26 63 0 1 3 4 6 7 l6 5 137 1 137 1 6 -6 6 -6 0 -85 c0 -97 1 -126 8
-170 20 -121 77 -187 183 -210 9 -2 20 -4 23 -4 10 0 25 6 30 12 3 4 5 6 5 5
0 -1 2 2 4 6 3 5 6 9 8 10 2 1 4 2 4 3 0 1 2 2 6 2 6 -1 13 -8 17 -17 5 -11
14 -20 24 -24 7 -3 19 -3 106 -2 54 0 101 1 105 2 4 0 11 1 16 2 25 4 62 16
78 26 5 3 8 5 9 5 3 0 31 23 42 33 22 23 45 63 60 102 12 32 26 90 24 97 0 1
-1 3 -1 4 1 2 -8 17 -11 20 -2 2 -10 7 -17 11 -8 4 -14 8 -14 10 0 4 -11 10
-21 11 -14 1 -23 -3 -27 -10 -2 -3 -6 -6 -9 -7 -3 -1 -13 -5 -21 -9 -13 -6
-16 -9 -19 -16 -8 -18 -22 -25 -31 -16 -7 7 -5 16 6 27 6 5 11 9 12 9 1 0 2 1
1 2 -1 2 -1 2 2 1 2 -1 3 0 3 5 0 3 2 10 4 17 2 6 4 13 4 15 0 16 36 24 46 10
9 -11 10 -12 25 -12 15 0 25 3 25 8 0 1 2 5 5 8 5 4 6 7 5 17 0 20 -3 25 -20
30 -17 4 -99 35 -114 43 -13 7 -19 8 -29 7 -12 -1 -17 -3 -24 -11 -2 -3 -6 -6
-7 -6 -1 0 -3 -1 -4 -3 -1 -2 -4 -3 -7 -3 -5 1 -17 -3 -27 -8 -11 -5 -14 -13
-18 -46 -4 -30 -9 -55 -15 -74 -5 -16 -19 -20 -37 -12 -21 10 -35 14 -54 15
-14 0 -20 1 -24 4 -11 9 -11 0 -12 195 -1 98 -2 181 -3 184 -2 6 -10 19 -13
21 -4 3 -12 17 -12 22 0 4 6 17 8 17 1 0 1 6 0 14 0 11 -1 16 -4 20 -2 2 -4 4
-4 3 0 -1 -1 -1 -2 1 -2 1 -47 2 -191 2 l-189 0 -18 -7 c-26 -10 -35 -10 -59
0 -18 7 -20 7 -40 7 -20 0 -22 0 -27 5 l-5 5 2 27 c9 88 12 151 8 165 -2 7
-11 19 -20 23 -8 4 -12 4 -144 4 -75 1 -138 0 -141 -1z m227 -155 c6 -4 6 -6
6 -20 0 -14 0 -16 -6 -20 -4 -4 -7 -5 -18 -5 -11 0 -14 1 -18 5 -6 4 -6 6 -6
20 0 14 0 16 6 20 4 4 7 5 18 5 11 0 14 -1 18 -5z m-521 -123 c5 -5 5 -15 0
-20 -9 -9 -24 -2 -24 10 0 8 6 14 14 14 3 0 8 -2 10 -4z m593 -60 c7 -3 12
-13 12 -25 0 -19 -9 -28 -28 -28 -19 0 -28 9 -28 28 0 17 6 24 22 28 5 1 14
-1 22 -3z m-465 -5 c5 -5 6 -15 1 -29 -2 -6 -4 -18 -4 -27 -1 -12 -3 -17 -6
-20 -4 -5 -4 -5 -8 -1 -2 2 -5 12 -7 23 -2 11 -6 23 -7 27 -5 9 -4 21 1 27 7
8 23 8 30 0z m894 -20 c9 -9 5 -25 -9 -40 -3 -3 -7 -9 -9 -13 -6 -13 -14 -26
-18 -28 -2 -1 -8 -2 -13 -2 -11 0 -19 6 -19 16 -1 4 -1 10 -1 14 0 3 0 6 1 6
1 0 2 1 2 3 0 2 10 14 13 15 0 0 2 0 4 0 1 0 4 3 5 6 4 12 17 28 23 28 10 1
17 0 21 -5z m-93 -8 c6 -6 6 -6 2 -11 -5 -5 -11 -5 -16 1 -3 5 -3 5 0 10 5 6
8 6 14 0z m-487 -10 l-5 -5 -4 4 -5 5 4 4 5 5 4 -4 5 -5 -4 -4z m362 -47 c1 0
5 -3 8 -6 5 -5 6 -7 6 -18 0 -11 -1 -13 -6 -18 -6 -6 -7 -6 -18 -6 -11 0 -12
0 -18 6 -5 5 -6 7 -6 17 0 14 3 20 12 24 5 2 8 2 22 1z m-526 -139 c3 -4 6 -9
7 -11 1 -2 2 -4 3 -4 1 0 2 -2 2 -4 0 -4 2 -6 17 -16 14 -10 17 -14 17 -23 0
-11 -6 -17 -17 -17 -8 0 -10 1 -15 8 -3 4 -7 9 -7 12 -1 2 -2 4 -3 4 -1 0 -2
2 -2 5 0 4 -1 5 -7 6 -16 2 -24 1 -30 -4 -10 -8 -18 -11 -29 -11 -9 0 -11 1
-16 6 -5 5 -6 7 -6 17 0 15 4 19 22 25 8 2 21 7 29 9 20 7 27 7 35 -2z m726
-17 c1 -2 2 -5 2 -7 0 -3 12 -22 13 -20 1 0 4 0 7 -1 8 -4 26 -5 28 -2 1 2 3
2 5 -1 3 -3 3 -3 0 -6 -3 -3 -4 -3 -5 -1 -1 2 -4 2 -9 1 -5 0 -12 -1 -16 -1
-4 0 -7 -1 -6 -2 2 -1 5 -12 6 -24 1 -7 5 -20 9 -24 1 -1 2 -6 2 -10 0 -9 -6
-16 -16 -16 -8 0 -15 6 -22 20 -5 11 -17 22 -29 29 -12 6 -16 10 -19 20 -3 13
0 24 12 39 16 19 31 22 38 6z m-644 -138 c3 -2 7 -8 8 -13 1 -6 3 -11 4 -12 1
-2 1 -7 0 -14 0 -3 -9 -8 -16 -9 -10 -1 -26 2 -32 7 -5 4 -5 6 -5 20 0 14 0
16 6 20 7 7 28 7 35 1z m694 -46 c6 -6 10 -17 11 -33 2 -16 -1 -22 -11 -22
-10 0 -17 12 -19 36 -1 13 -1 15 2 18 5 5 13 5 17 1z m-886 -53 c4 -5 6 -16 3
-28 0 -2 -1 -5 -1 -6 0 -1 -1 -4 -3 -6 -3 -3 -3 -3 -14 2 -16 8 -19 13 -19 24
0 7 1 11 4 14 7 8 23 8 30 0z m823 -8 c6 -4 6 -6 6 -20 0 -14 0 -16 -6 -20 -4
-4 -7 -5 -18 -5 -11 0 -14 1 -18 5 -6 4 -6 6 -6 20 0 14 0 16 6 20 4 4 7 5 18
5 11 0 14 -1 18 -5z m283 -9 c5 -5 6 -7 6 -17 0 -10 -1 -12 -6 -17 -5 -5 -7
-6 -17 -6 -10 0 -12 1 -17 6 -5 5 -6 7 -6 17 0 10 1 12 6 17 5 5 7 6 17 6 10
0 12 -1 17 -6z m-1361 -6 c7 -6 7 -19 1 -25 -6 -7 -19 -7 -25 -1 -7 6 -7 19
-1 25 6 7 19 7 25 1z m1234 -69 c3 -3 3 -3 0 -6 -3 -3 -3 -3 -6 0 -3 2 -3 3
-1 6 4 4 4 4 7 0z"/>
<path d="M850 2958 c-3 -1 -6 -1 -7 0 0 0 -1 0 -1 -2 0 -1 -1 -2 -3 -2 -4 0
-14 -12 -18 -21 -3 -7 -3 -22 -3 -129 l1 -121 -6 -6 -6 -6 -106 1 c-118 0
-119 0 -131 -12 -6 -7 -9 -13 -18 -36 -3 -8 -12 -13 -25 -13 -13 0 -22 5 -25
13 -9 23 -12 29 -18 36 -4 4 -11 8 -16 10 -7 2 -53 2 -197 1 -103 0 -189 -1
-190 -1 -2 0 -3 -1 -3 -2 0 -1 -1 -2 -3 -2 -4 0 -14 -12 -18 -21 -5 -11 -5
-243 0 -254 4 -9 14 -21 18 -21 2 0 3 -1 3 -2 0 -2 1 -2 28 -3 21 -1 24 -1 43
5 41 12 50 17 72 39 21 20 25 23 38 24 14 1 24 -5 31 -21 5 -11 10 -16 12 -15
1 1 2 0 2 -1 0 -2 25 -8 29 -7 3 2 16 -5 24 -12 3 -3 7 -5 8 -5 2 0 3 -1 3 -2
0 -6 24 -6 230 -6 l209 1 6 -6 6 -6 -1 -107 c0 -113 0 -119 9 -126 6 -6 25
-12 33 -12 12 0 18 -13 10 -22 -2 -3 -6 -4 -10 -4 -8 0 -27 -6 -33 -12 -7 -5
-10 -18 -7 -30 2 -9 13 -28 16 -28 1 0 10 -7 17 -14 10 -9 10 -35 0 -44 -7 -7
-16 -14 -17 -14 -1 0 -4 -4 -8 -9 -7 -10 -9 -20 -6 -29 3 -6 14 -18 17 -18 2
0 3 -1 3 -2 0 -3 13 -3 142 -3 129 0 142 0 142 3 0 1 1 2 3 2 4 0 15 13 18 23
7 20 -6 38 -36 48 -12 5 -17 11 -17 24 0 14 4 19 22 26 18 7 28 17 32 29 2 7
2 47 2 164 l-1 155 6 6 6 6 63 -1 c35 0 67 0 71 1 9 1 23 11 24 17 0 2 1 4 2
6 4 10 2 15 -8 25 -5 6 -14 12 -19 14 -17 8 -22 18 -14 27 4 4 14 6 17 2 9 -9
43 -24 55 -24 2 0 6 -2 9 -5 4 -4 5 -7 5 -15 -1 -9 1 -21 4 -25 0 -1 1 -3 1
-5 1 -5 14 -15 22 -17 3 -1 115 -1 247 -1 l242 0 2 5 c1 3 2 11 2 19 0 11 1
14 4 15 3 1 -6 2 -11 1 -4 0 -11 8 -11 13 0 7 5 12 21 20 15 8 24 15 28 26 5
11 4 172 0 182 -4 9 -14 21 -18 21 -2 0 -3 1 -3 2 0 0 -2 2 -5 2 -4 1 -120 1
-260 1 l-254 0 -9 -5 c-5 -2 -14 -10 -20 -16 -18 -18 -28 -18 -46 0 -21 21
-20 21 -85 21 l-56 0 -6 6 -6 6 1 121 c0 107 0 122 -3 129 -4 9 -14 21 -18 21
-2 0 -3 1 -3 2 0 1 -1 2 -2 2 -7 1 -270 2 -274 0z m123 -204 c4 -6 4 -24 -1
-30 -7 -9 -27 -9 -34 0 -5 6 -5 24 0 30 7 9 27 9 35 0z m-672 -130 c11 -3 17
-10 17 -19 0 -14 -12 -22 -29 -20 -18 2 -27 11 -29 25 0 8 0 10 5 14 5 4 8 4
17 3 6 0 14 -2 19 -3z m101 -28 c12 -6 15 -32 5 -43 -10 -10 -33 -11 -42 0 -8
9 -8 31 1 40 7 6 27 8 36 3z m579 -2 c7 -3 12 -13 12 -25 0 -19 -9 -28 -28
-28 -19 0 -28 9 -28 28 0 17 6 24 22 28 5 1 14 -1 22 -3z m248 -29 c3 -5 3 -5
0 -10 -2 -3 -5 -5 -7 -5 -2 0 -5 2 -7 5 -3 5 -3 5 0 10 2 3 5 5 7 5 2 0 5 -2
7 -5z m158 -30 c4 -4 5 -7 5 -13 0 -11 -7 -18 -18 -18 -11 0 -18 7 -18 18 0
11 7 18 18 18 6 0 9 -1 13 -5z m-931 -23 c6 -7 5 -12 -6 -37 -3 -7 -8 -22 -9
-27 -3 -16 -27 -23 -39 -11 -6 6 -7 11 -6 24 0 3 5 10 11 16 5 6 12 13 14 16
3 3 6 7 8 11 7 11 21 15 27 8z m445 -1 c4 -4 5 -7 5 -13 0 -11 -7 -18 -18 -18
-11 0 -18 7 -18 18 0 11 7 18 18 18 6 0 9 -1 13 -5z m592 -22 c5 -5 8 -18 6
-26 -1 -7 -8 -11 -15 -9 -11 3 -14 4 -17 11 -7 16 -1 30 14 29 5 -1 9 -2 12
-5z m-612 -86 c3 -5 3 -5 0 -10 -2 -3 -5 -5 -7 -5 -2 0 -5 2 -7 5 -3 5 -3 5 0
10 2 3 5 5 7 5 2 0 5 -2 7 -5z m59 -110 c15 -8 14 -41 -1 -48 -16 -9 -48 0
-55 16 -4 7 -4 8 -1 15 8 17 39 26 57 17z m153 -223 c6 -6 6 -17 1 -24 -9 -10
-28 -3 -28 12 0 14 17 22 27 12z"/>
</g>
</svg>
