<?xml version="1.0" standalone="no"?>
<!DOCTYPE svg PUBLIC "-//W3C//DTD SVG 20010904//EN"
 "http://www.w3.org/TR/2001/REC-SVG-20010904/DTD/svg10.dtd">
<svg version="1.0" xmlns="http://www.w3.org/2000/svg"
 width="1100.000000pt" height="2850.000000pt" viewBox="0 0 1100.000000 2850.000000"
 preserveAspectRatio="xMidYMid meet">
<metadata>
Created by potrace 1.15, written by Peter Selinger 2001-2017
</metadata>
<g transform="translate(0.000000,2850.000000) scale(0.500000,-0.500000)"
fill="#000000" stroke="none">
<path d="M500 3813 c-1 -1 -2 -10 -2 -19 0 -12 -1 -18 -2 -19 -4 -1 4 -1 27
-1 25 0 30 0 28 1 -2 1 -3 7 -3 18 0 15 0 17 -4 19 -5 3 -42 4 -44 1z"/>
<path d="M1224 3811 c-4 -2 -9 -3 -10 -4 -2 -1 -4 -2 -4 -3 0 -1 -2 -3 -4 -5
-3 -4 -7 -14 -12 -34 -3 -12 -10 -17 -23 -17 -11 0 -21 5 -21 11 0 3 -32 2
-35 -1 -5 -5 -8 -22 -8 -41 0 -26 2 -31 23 -53 l14 -14 11 0 c12 0 25 4 25 9
0 3 8 10 13 12 7 2 16 -4 19 -13 1 -4 3 -9 5 -12 1 -3 1 -6 1 -7 0 -2 1 -6 3
-9 4 -8 14 -10 22 -5 10 7 32 10 41 6 14 -5 20 -20 16 -36 -4 -13 -14 -21 -29
-20 -16 1 -22 6 -28 24 l-4 11 -14 0 c-20 0 -22 0 -28 -14 -7 -15 -11 -18 -26
-18 -15 0 -19 3 -26 17 -11 24 -26 32 -56 30 -25 -2 -37 -7 -42 -19 -2 -7 -5
-22 -3 -22 2 0 11 -22 13 -30 2 -11 -3 -17 -13 -15 -15 3 -30 3 -37 2 -10 -2
-40 -32 -43 -43 -3 -11 -2 -23 2 -31 1 -3 3 -13 3 -23 1 -21 4 -32 11 -46 3
-5 6 -12 6 -14 0 -2 1 -4 2 -5 1 0 3 -5 6 -10 2 -5 7 -12 12 -17 8 -8 17 -22
14 -22 -1 0 -2 -2 -3 -4 -1 -3 -2 -5 -3 -6 0 -1 -6 -9 -12 -18 -24 -36 -59
-75 -91 -100 -9 -7 -17 -15 -18 -18 -4 -8 -3 -24 1 -36 5 -14 5 -15 0 -20 -3
-3 -4 -3 -12 -2 -2 0 -7 4 -12 8 -21 20 -40 19 -60 -3 -7 -7 -16 -23 -18 -32
-2 -8 1 -29 6 -41 7 -15 5 -37 -4 -44 -4 -3 -6 -11 -6 -21 -1 -10 0 -12 4 -16
12 -11 56 -12 56 -2 0 2 3 5 8 7 7 4 26 21 41 38 24 27 64 10 55 -25 -4 -13
-14 -21 -29 -20 -4 0 -14 -1 -22 -1 -8 -1 -21 -2 -30 -3 -9 -1 -17 -2 -18 -3
-1 -1 -3 -1 -4 -1 -3 1 -4 -1 -2 -4 0 -1 -1 -2 -2 -3 -10 -6 -11 -32 -2 -57
l5 -14 -5 -5 c-5 -5 -5 -5 -47 -6 -40 -1 -41 -1 -50 -6 -7 -5 -11 -9 -15 -17
-6 -12 -6 -15 -7 -54 -1 -27 -1 -28 -6 -33 l-6 -6 -43 0 c-42 0 -44 0 -54 -5
-15 -7 -20 -13 -19 -26 0 -6 0 -12 1 -13 1 0 3 -3 4 -4 0 -2 6 -7 13 -12 15
-11 18 -14 18 -28 0 -13 -3 -17 -16 -26 -13 -9 -13 -11 -14 -27 l0 -14 14 -5
c7 -2 16 -4 19 -4 16 0 24 -28 11 -40 -3 -4 -8 -6 -11 -6 -13 0 -32 -8 -38
-16 -3 -5 -6 -9 -6 -10 0 -1 -1 -3 -1 -4 0 -1 -2 -2 -3 -3 -3 0 -3 -1 -1 -1 2
0 4 -3 5 -8 1 -8 14 -26 17 -23 0 0 2 0 3 -1 3 -2 14 -3 28 -1 7 1 18 1 29 -1
16 -2 19 -3 25 -9 4 -4 6 -7 5 -7 -1 0 -2 -2 -2 -3 1 -5 -7 -41 -15 -73 -8
-31 -19 -67 -31 -97 -10 -25 -10 -25 -10 -41 0 -17 1 -19 9 -19 4 0 7 0 7 1 0
1 1 2 2 1 1 -1 2 0 2 1 0 1 1 1 3 1 1 0 7 1 14 2 10 0 14 0 21 -4 7 -3 12 -4
22 -4 15 1 20 4 29 17 3 4 11 12 19 18 7 6 16 14 20 18 14 17 27 20 46 10 16
-7 20 -24 12 -46 -9 -26 -15 -33 -30 -37 -30 -8 -39 -16 -43 -35 -2 -11 -8
-25 -12 -27 -2 -2 -7 -3 -12 -3 -8 0 -8 0 -24 18 -7 8 -13 13 -13 11 0 -1 -1
0 -3 1 -2 1 -3 2 -3 1 0 -1 -2 0 -4 1 -3 2 -10 3 -17 3 -20 1 -26 5 -33 24 -7
19 -10 21 -28 16 -10 -2 -12 -4 -17 -13 -3 -5 -7 -10 -8 -12 -2 -1 -3 -4 -4
-6 -1 -2 -2 -4 -3 -4 -1 0 -2 -2 -2 -4 0 -4 -1 -3 -6 4 -5 8 -6 9 -6 35 0 26
-1 32 -10 52 -7 15 -5 31 4 54 6 14 7 26 3 46 -2 9 -3 25 -3 34 1 29 -4 39
-19 50 -23 16 -23 29 1 44 12 8 18 14 20 24 2 5 3 8 4 8 1 0 1 17 1 39 0 22 0
40 -1 40 -1 0 -2 4 -3 9 -3 9 -11 18 -23 25 -23 13 -26 24 -11 42 9 11 9 11 9
26 0 15 0 16 -5 19 -16 8 -26 22 -26 38 0 15 5 21 21 26 25 9 37 23 37 41 -1
38 -8 66 -19 76 -6 6 -19 14 -22 14 -4 0 -14 13 -16 21 -1 1 -2 2 -3 1 -2 0
-3 1 -3 1 0 1 -6 2 -14 2 -7 0 -13 -1 -13 -1 1 -1 0 -2 -2 -2 -3 0 -3 -2 -3
-10 1 -5 1 -9 2 -9 1 1 1 2 1 3 -1 2 -1 2 1 1 1 -1 2 -3 1 -4 0 -2 0 -3 1 -3
0 0 2 -5 3 -10 2 -6 3 -13 4 -15 1 -5 -5 -13 -9 -13 -5 0 -9 9 -9 19 0 8 -2
13 -11 28 -11 19 -12 26 -5 32 7 7 17 13 21 12 4 -1 12 7 13 13 1 13 12 25 22
24 4 -1 8 -3 14 -11 l8 -11 15 0 c16 0 18 1 19 8 2 9 1 20 -2 29 -4 14 -4 26
2 47 3 11 5 25 5 32 1 15 1 18 5 18 2 0 3 -1 3 -2 0 -2 1 1 2 5 1 8 1 8 2 -3
0 -13 4 -28 11 -41 4 -8 11 -19 11 -16 0 1 1 0 3 -2 4 -3 17 -7 26 -7 6 0 18
4 56 19 24 10 29 13 34 23 6 9 7 23 4 40 -2 14 6 22 17 16 3 -2 7 -2 17 -1 16
3 24 10 22 18 0 2 -1 8 -2 13 -5 45 -65 218 -89 258 -6 9 -15 13 -31 15 -9 2
-25 -8 -35 -21 -8 -11 -20 -16 -34 -15 -12 1 -13 2 -21 9 -12 10 -14 16 -9 24
1 2 1 4 1 4 -1 0 -1 1 0 2 6 3 7 18 7 92 0 74 0 76 -4 85 -6 13 -25 25 -39 25
-7 0 -13 8 -12 17 1 9 4 19 6 19 1 0 4 -2 6 -4 3 -3 5 -4 5 -3 0 1 3 2 6 2 3
0 10 2 14 3 7 2 7 3 8 12 0 7 -1 10 -2 10 -2 0 -2 1 -1 1 1 2 -3 13 -5 12 -1
-1 -2 0 -2 1 0 2 -16 3 -21 1 -2 -1 -5 -5 -7 -9 -3 -4 -6 -8 -6 -8 -1 0 -2 -1
-1 -2 1 -1 -11 -2 -13 0 -1 1 -5 3 -10 6 -6 3 -13 9 -18 15 -11 15 -20 22 -29
25 -10 2 -40 0 -54 -5 -10 -3 -13 -4 -49 -6 -27 -2 -35 -13 -33 -45 1 -16 0
-19 -12 -27 -15 -9 -22 -18 -26 -29 -3 -8 -3 -25 -3 -130 l0 -120 -6 -9 c-4
-6 -6 -8 -7 -6 -2 6 -17 8 -31 4 -11 -3 -15 -6 -33 -23 -11 -10 -23 -21 -25
-24 -5 -7 -16 -14 -22 -14 -6 0 -10 7 -9 17 0 4 0 9 -1 11 -1 2 -3 6 -4 10 -2
6 -3 6 -12 6 -9 0 -11 -1 -17 -7 -4 -4 -8 -7 -9 -7 -2 0 -12 -17 -19 -34 -5
-13 -7 -21 -8 -35 -2 -37 -7 -100 -8 -108 -3 -32 -3 -37 0 -54 5 -29 3 -44 -9
-65 -2 -5 -6 -17 -7 -27 -2 -19 -5 -38 -6 -39 0 0 0 -3 1 -7 1 -3 3 -8 3 -9 1
-7 5 -12 14 -19 12 -10 14 -13 16 -19 1 -5 -4 -14 -8 -14 -4 0 -28 -11 -32
-15 -2 -2 -5 -8 -8 -14 -5 -9 -5 -10 -3 -21 4 -21 18 -33 47 -41 7 -2 15 -4
19 -6 4 -2 25 -8 46 -15 21 -7 43 -14 49 -16 12 -5 23 -5 32 -1 15 6 22 17 26
42 4 23 1 38 -13 53 -2 3 -4 6 -4 7 0 2 -1 3 -2 3 0 0 -3 3 -5 7 -6 10 -20 22
-34 30 -14 8 -18 12 -20 23 -4 18 -10 33 -18 40 -9 8 -17 20 -17 25 0 13 42
21 58 11 12 -7 23 -27 28 -48 1 -5 3 -12 4 -15 l3 -6 17 0 c9 0 16 -1 16 -2 0
-5 6 16 9 32 4 25 13 41 17 31 2 -6 8 -13 24 -27 16 -14 18 -15 28 -21 12 -7
16 -15 11 -19 -2 -3 -5 -3 -20 -1 -20 3 -29 1 -37 -8 -14 -16 -13 -10 -14
-130 0 -135 -1 -133 25 -131 l13 2 0 -9 0 -9 -12 2 c-7 0 -14 0 -16 -1 -4 -2
-11 -17 -9 -20 1 -1 2 -5 2 -9 2 -12 12 -28 19 -31 9 -5 27 -6 37 -3 18 7 28
2 31 -14 1 -6 2 -11 3 -12 0 -1 1 -5 2 -9 1 -4 2 -8 3 -9 1 -1 4 -8 6 -15 4
-11 4 -12 1 -17 -3 -5 -8 -6 -16 -3 -2 1 -10 0 -18 -2 -15 -2 -15 -3 -25 -15
-6 -7 -16 -17 -23 -24 -19 -18 -22 -26 -22 -61 0 -23 1 -30 3 -36 6 -13 8 -22
9 -40 1 -28 2 -30 20 -31 14 -1 37 21 38 35 0 1 1 4 2 7 2 3 2 9 1 16 -3 19
-3 47 1 54 8 15 40 16 48 1 2 -4 4 -13 4 -23 1 -14 1 -20 6 -39 3 -13 3 -15
-1 -19 -2 -3 -8 -6 -13 -8 -23 -7 -30 -22 -27 -56 1 -11 3 -27 3 -35 2 -34 11
-42 45 -41 16 1 16 1 22 -5 5 -5 6 -7 6 -17 0 -17 3 -34 9 -46 15 -31 9 -48
-23 -63 -21 -10 -36 -10 -47 0 -4 4 -11 21 -11 28 0 2 -2 10 -4 16 -6 18 -14
24 -36 31 -6 2 -12 5 -14 7 -2 2 -4 3 -5 3 0 -1 -5 -2 -10 -2 -14 -1 -16 -2
-22 -11 -4 -7 -5 -11 -5 -27 0 -21 3 -30 11 -38 7 -5 25 -13 31 -13 5 0 12 -8
12 -15 0 -7 -7 -15 -13 -15 -5 0 -23 -8 -30 -13 -10 -9 -11 -15 -11 -74 0 -45
1 -56 3 -62 4 -9 14 -21 18 -21 2 0 3 -1 3 -2 0 -2 2 -2 72 -3 45 -1 66 0 66
1 0 1 1 2 2 1 2 -1 13 12 13 16 0 2 0 8 1 12 1 8 1 9 -6 11 -9 3 -35 5 -37 2
-1 -1 -4 -2 -8 -2 -13 0 -20 17 -10 26 5 4 15 5 19 2 1 -2 9 -3 18 -3 13 -1
16 0 27 5 14 8 23 8 41 3 7 -3 18 -5 24 -6 6 -1 12 -2 14 -2 5 -1 26 8 31 13
3 3 7 10 10 18 3 7 7 14 8 16 1 2 3 4 4 6 1 3 1 3 1 0 0 -2 5 -6 13 -9 6 -3
16 -7 21 -9 11 -5 13 -10 16 -29 7 -44 18 -59 44 -59 12 0 14 1 52 40 28 28
49 53 74 88 4 5 10 13 13 18 3 5 9 14 14 20 l7 10 5 -4 c3 -3 7 -8 8 -12 5
-11 16 -25 25 -31 5 -3 13 -10 19 -16 7 -7 15 -13 26 -18 9 -4 17 -9 18 -10 4
-4 11 -15 11 -17 0 0 3 -4 6 -7 3 -3 6 -5 6 -4 0 1 1 1 2 -1 1 -1 5 -3 10 -3
16 -2 31 12 35 30 2 7 -5 19 -17 32 -5 5 -11 15 -14 23 -13 27 -17 34 -25 42
-24 21 -24 54 -1 63 12 6 52 -1 58 -9 4 -5 4 -5 0 -15 -2 -5 -6 -10 -8 -12 -4
-2 -4 -5 -4 -16 0 -15 1 -17 14 -24 14 -7 17 -10 26 -32 9 -23 16 -30 38 -42
16 -8 23 -9 36 -4 11 5 16 14 18 35 1 15 7 24 16 24 12 1 19 0 24 -4 4 -3 17
-24 24 -40 1 -3 3 -5 4 -6 1 -1 6 -7 11 -14 5 -7 10 -13 11 -14 2 -1 27 -40
32 -49 2 -3 7 -11 10 -17 6 -12 14 -21 23 -24 7 -3 20 -3 26 0 6 4 40 29 43
33 2 2 12 11 22 19 23 18 46 42 51 51 5 8 4 27 -2 33 -2 2 -11 8 -20 12 -19 9
-21 12 -21 26 0 8 1 11 5 15 6 7 22 7 31 2 4 -3 6 -5 18 -15 19 -16 44 -8 59
19 12 21 14 25 18 27 7 5 12 -4 20 -37 6 -29 12 -60 16 -96 1 -9 6 -20 10 -24
2 -2 4 -4 5 -6 3 -6 21 -7 36 -3 7 2 16 4 19 3 3 0 6 -1 7 -1 1 0 6 -2 12 -4
20 -7 29 -8 56 -5 52 5 80 15 124 41 23 14 48 41 63 67 7 12 7 15 6 24 -1 13
-3 17 -16 31 l-11 11 -1 17 c-1 9 -1 27 -1 40 1 22 1 23 7 27 3 3 7 5 9 5 2 0
6 1 8 2 1 1 8 4 14 7 19 9 23 19 25 62 1 12 2 26 2 31 0 5 1 27 2 49 1 22 2
48 2 57 1 19 -2 34 -10 42 -5 7 -25 18 -30 18 -2 0 -6 2 -9 6 -8 7 -9 18 -4
35 2 7 5 22 7 33 3 22 4 24 17 28 4 1 8 3 8 4 0 1 1 2 3 2 5 0 16 12 20 21 2
8 3 15 2 33 0 23 0 24 -6 32 -5 8 -8 10 -19 13 -7 3 -15 5 -18 5 -10 -1 -12 0
-18 6 -5 5 -6 7 -6 18 0 7 1 13 3 14 2 2 2 5 0 15 -5 28 0 27 -114 27 l-94 0
-10 -5 c-9 -4 -19 -13 -19 -16 0 -1 -3 -5 -6 -10 -5 -8 -6 -8 -4 -20 1 -7 3
-14 5 -16 3 -5 15 -14 15 -12 0 2 12 -5 13 -7 1 -2 2 -12 2 -23 0 -20 3 -30
11 -47 2 -3 2 -5 0 -10 -5 -9 -11 -8 -30 5 -5 3 -12 7 -15 9 -3 1 -8 3 -10 4
-4 2 -10 4 -15 4 -12 0 -22 25 -22 53 0 7 -1 13 -1 14 -1 0 -2 4 -2 7 -1 4 -3
11 -6 17 -10 21 -8 28 9 30 4 1 9 1 11 2 2 0 4 1 5 1 1 -1 5 1 9 4 19 11 26
31 25 75 -1 30 -4 38 -14 48 -11 10 -17 11 -93 11 -38 1 -66 1 -61 1 6 1 8 2
6 3 -3 2 -3 2 0 4 2 1 -12 2 -42 2 -24 0 -44 0 -44 1 1 0 30 1 66 1 93 1 112
4 116 18 3 10 2 25 -2 32 -6 9 -5 20 1 26 10 9 28 3 43 -15 25 -27 27 -29 42
-29 7 -1 13 0 14 0 4 6 19 15 33 20 28 11 37 16 57 36 37 36 44 52 34 79 -8
22 -3 40 11 44 2 1 9 5 16 9 14 9 22 20 26 37 1 2 3 11 5 20 2 10 4 22 4 37 0
14 1 26 4 36 5 21 3 28 -13 53 -7 11 -14 20 -16 21 -1 1 -8 2 -15 2 -15 1 -20
-2 -20 -9 0 -2 -3 -13 -7 -25 -7 -24 -11 -28 -28 -30 -33 -2 -48 15 -34 42 3
5 6 10 7 11 1 1 4 6 6 13 2 6 5 13 6 15 1 2 2 6 4 9 3 9 11 13 24 13 14 0 18
-3 26 -15 7 -11 13 -14 26 -14 9 0 11 1 17 7 3 3 11 9 16 13 28 17 29 38 5 63
-9 8 -18 35 -18 49 1 7 5 13 10 13 2 0 6 1 9 2 10 4 14 6 16 5 0 0 1 1 1 2 0
1 2 2 5 3 10 2 14 21 21 93 2 30 -6 47 -28 54 -11 3 -48 3 -56 -2 -14 -7 -17
-16 -13 -50 1 -14 1 -14 -5 -20 l-6 -6 -27 0 c-15 1 -27 2 -27 3 0 0 -3 -2 -6
-5 -6 -5 -7 -7 -8 -21 0 -13 0 -16 4 -19 2 -2 4 -4 5 -4 2 0 21 -19 25 -25 6
-9 5 -26 -1 -32 -7 -7 -19 -7 -36 0 -12 5 -28 7 -34 3 -5 -2 -12 -16 -14 -25
0 -2 -1 -4 -1 -4 0 0 -1 -2 -1 -4 -3 -22 -9 -27 -34 -28 -11 0 -16 -1 -22 -6
-9 -6 -22 -9 -37 -9 -15 0 -18 4 -18 24 0 6 1 8 7 14 22 19 27 24 32 33 3 5 6
13 6 17 2 17 5 37 7 41 2 2 7 8 12 13 11 11 16 17 19 25 2 4 6 10 10 14 6 6 7
7 17 7 13 0 38 5 46 9 3 2 9 7 13 11 8 8 8 9 8 22 l0 14 -11 5 -11 6 -153 1
c-172 2 -170 2 -178 9 -3 4 0 7 16 13 27 9 30 15 33 56 1 7 2 24 3 37 4 49 -1
64 -26 73 -11 3 -179 3 -188 -1z m89 -92 c4 -4 5 -7 5 -15 0 -14 -6 -20 -20
-20 -14 0 -20 6 -20 20 0 14 6 20 20 20 8 0 11 -1 15 -5z m-903 -10 c4 -4 4
-6 3 -18 -2 -20 -8 -30 -21 -34 -7 -2 -15 0 -20 6 -4 4 -1 24 4 35 7 16 24 21
34 11z m6 -100 c10 -9 2 -27 -12 -27 -15 0 -22 19 -11 28 3 2 7 4 8 3 2 -1 3
0 2 1 -2 4 7 0 13 -5z m787 -83 c7 -5 20 -12 30 -17 22 -10 25 -14 25 -29 0
-23 -18 -28 -47 -15 -26 12 -38 9 -53 -15 -11 -17 -22 -22 -38 -18 -11 2 -16
7 -18 18 -4 16 2 28 15 35 4 2 7 5 7 5 0 1 1 2 3 2 3 0 18 16 24 27 7 12 13
15 28 15 11 0 13 -1 24 -8z m-719 -4 c5 -2 8 -3 8 -4 0 -1 2 -3 6 -4 3 -2 8
-9 12 -16 4 -7 10 -16 13 -20 4 -4 7 -8 7 -9 0 -1 2 -6 4 -10 5 -9 5 -11 1
-11 -1 0 -4 -1 -5 -3 -4 -8 -42 -5 -53 3 -2 2 -7 10 -10 19 -3 8 -7 16 -8 18
-5 5 -17 26 -17 30 0 1 1 4 3 7 3 4 4 4 18 3 8 -1 17 -2 21 -3z m867 -38 c5
-5 6 -7 6 -16 0 -15 -8 -23 -23 -23 -9 0 -11 1 -16 7 -9 8 -9 23 -1 32 9 9 24
9 34 0z m110 -6 c7 -6 7 -19 1 -25 -6 -7 -19 -7 -25 -1 -7 6 -7 19 -1 25 6 7
19 7 25 1z m-897 -24 c1 -2 -1 -3 -11 -3 -9 1 -11 0 -6 -1 l6 -2 -6 1 c-11 0
-8 5 3 6 6 0 11 0 11 1 0 0 1 -1 3 -2z m858 -73 c3 -5 6 -9 6 -10 0 0 2 -4 5
-8 13 -19 16 -20 62 -21 43 -1 44 -2 46 -14 2 -14 15 -34 21 -34 1 0 4 -3 6
-7 4 -7 4 -7 1 -11 -2 -2 -10 -6 -17 -8 -19 -6 -26 -14 -32 -32 -14 -45 -14
-46 -32 -51 -6 -1 -20 -3 -32 -4 -22 -1 -35 -4 -45 -12 -4 -3 -11 -7 -17 -10
-12 -5 -17 -4 -33 7 -11 7 -26 13 -37 15 -11 1 -8 0 -15 6 -4 4 -5 6 -3 7 3 2
8 18 7 26 0 3 -3 13 -5 21 -3 9 -4 17 -4 25 1 10 2 11 17 27 21 21 24 26 20
42 -8 33 -7 31 -4 36 3 4 4 5 13 4 11 0 32 4 42 9 4 2 11 4 15 4 8 0 10 -1 15
-7z m-793 -11 c4 -6 4 -24 -1 -30 -7 -9 -27 -9 -34 0 -5 6 -5 24 0 30 7 9 27
9 35 0z m-315 -2 c17 -7 21 -12 21 -28 0 -16 -4 -21 -21 -28 -20 -7 -23 -7
-28 2 -7 13 -6 41 1 54 5 7 7 7 27 0z m964 -11 c3 -3 4 -7 4 -14 0 -13 -6 -19
-19 -19 -13 0 -19 6 -19 19 0 7 1 11 4 14 7 8 23 8 30 0z m-102 0 c8 -4 10
-12 11 -40 0 -20 1 -29 5 -39 5 -14 4 -23 -3 -34 -2 -4 -5 -10 -7 -13 -2 -3
-7 -10 -12 -14 -17 -18 -30 -9 -30 21 0 13 -5 22 -21 38 -8 7 -15 15 -15 17 0
5 5 16 12 26 4 6 10 16 14 23 4 7 9 13 11 15 10 5 25 5 35 0z m-668 -4 c7 -4
12 -10 12 -17 0 -7 12 -40 16 -43 6 -6 13 -7 32 -7 24 0 31 -5 23 -20 -2 -5
-5 -6 -21 -10 -12 -2 -19 -3 -24 -2 -4 1 -9 1 -10 0 -5 -3 -17 -2 -21 1 -2 1
-7 9 -11 16 -7 14 -17 25 -31 36 l-8 6 0 16 c0 12 1 16 4 18 8 9 28 11 39 6z
m1123 -18 c4 -5 4 -7 0 -13 -6 -8 -19 -3 -19 8 0 1 2 4 3 7 4 5 10 5 16 -2z
m-1357 -44 c5 -2 10 -4 10 -5 0 -1 1 -2 3 -2 2 0 3 -2 3 -3 0 -4 0 -4 2 -1 2
2 2 2 1 -3 0 -4 0 -6 3 -7 8 -2 26 -16 27 -20 2 -7 1 -21 -1 -27 -1 -2 -6 -7
-12 -11 -6 -4 -12 -8 -14 -9 -6 -7 -47 12 -63 29 -8 8 -16 28 -16 39 1 13 9
19 28 20 8 0 16 1 16 2 2 1 1 2 13 -2z m115 -76 c0 -2 4 -3 8 -3 5 0 7 -1 7
-3 0 -2 1 -3 2 -2 0 0 3 0 5 -1 3 -1 3 -2 -2 -2 -4 0 -8 1 -9 4 -2 3 -2 3 -1
0 1 -3 0 -4 -4 -4 -3 0 -6 -1 -6 -3 -2 -5 -9 -4 -12 2 -3 4 -3 5 0 10 4 5 10
7 12 2z m60 -4 c3 -5 3 -5 0 -10 -4 -5 -10 -7 -12 -2 0 2 -4 3 -8 3 -5 0 -7 1
-7 3 0 2 -1 3 -1 2 -1 0 -4 0 -6 1 -3 1 -3 2 2 2 4 0 8 -1 9 -3 2 -4 2 -4 1 0
-1 2 0 3 4 3 3 0 6 1 6 3 2 5 8 3 12 -2z m1312 -43 c7 -6 7 -19 1 -25 -6 -7
-19 -7 -25 -1 -7 6 -7 19 -1 25 6 7 19 7 25 1z m-1399 -7 c3 -3 5 -9 7 -21 2
-9 5 -24 7 -33 6 -23 5 -34 -2 -41 -6 -6 -7 -6 -18 -6 -11 0 -12 0 -18 6 -4 4
-6 8 -7 16 -1 6 -3 20 -6 31 -6 26 -6 37 0 44 8 9 30 12 37 4z m679 -2 c3 -2
7 -7 8 -11 2 -4 5 -11 7 -16 2 -5 4 -9 4 -9 -2 -1 23 -23 28 -25 6 -4 21 -19
26 -27 5 -8 5 -23 0 -29 -3 -4 -6 -5 -16 -6 -19 -1 -26 4 -29 20 -2 9 -9 26
-14 31 -11 13 -14 15 -30 23 -9 5 -18 10 -20 13 -4 5 -4 25 0 31 7 9 26 12 36
5z m-872 -12 c12 -12 3 -31 -13 -31 -11 0 -18 7 -18 18 0 11 7 18 18 18 6 0 9
-1 13 -5z m1050 -9 c5 -5 5 -6 5 -21 -1 -28 0 -33 5 -43 13 -29 26 -75 34
-120 1 -4 2 -12 3 -18 4 -21 13 -29 33 -31 10 -1 11 -1 13 5 3 8 2 33 -3 37
-4 5 -4 23 1 29 7 9 27 9 35 0 5 -7 4 -24 -3 -32 -3 -4 -7 -9 -8 -12 -4 -7 -4
-28 0 -32 5 -6 30 -18 38 -18 4 0 6 -1 5 -2 -1 -1 1 -2 3 -2 7 0 7 0 11 -4 4
-4 7 -4 34 -4 16 1 27 0 25 0 -1 -1 -16 -2 -31 -2 -37 0 -42 -2 -55 -27 -5
-12 -12 -49 -11 -65 0 -12 0 -13 -6 -19 -6 -6 -7 -6 -25 -6 -21 0 -28 -1 -30
-4 -1 -1 -13 2 -27 7 -13 4 -28 8 -31 8 -4 0 -18 -4 -32 -8 l-26 -9 -25 9 -26
8 -59 0 -59 0 -5 6 c-5 4 -5 7 -5 16 1 17 -10 52 -23 71 -3 5 -6 11 -6 14 0 6
7 17 14 20 22 12 51 29 52 31 0 0 3 3 6 5 7 6 7 26 0 33 -5 6 -23 16 -27 16
-9 0 -16 21 -13 35 4 15 14 21 34 20 16 -1 24 -6 24 -13 0 -11 2 -17 7 -27 3
-6 5 -9 5 -8 0 0 2 -1 5 -4 4 -5 22 -10 24 -7 1 1 2 2 3 1 1 -1 2 0 3 1 1 1 3
2 5 2 7 0 47 33 82 67 l16 17 0 13 c-1 12 -1 14 -7 21 -4 4 -9 8 -11 9 -11 4
-15 27 -5 37 9 9 24 9 34 0z m254 -7 c4 -3 5 -7 5 -13 0 -4 1 -9 1 -10 1 -6
-5 -25 -10 -31 -6 -10 -12 -14 -26 -19 -30 -10 -50 3 -52 35 -1 11 -1 13 4 19
3 3 6 6 7 5 0 0 2 0 3 1 1 1 7 3 13 5 6 1 16 5 23 8 16 6 26 7 32 0z m197 -87
c20 -8 32 -44 19 -57 -10 -10 -47 -4 -56 10 -8 12 -8 32 1 42 7 8 24 11 36 5z
m-139 -5 c3 -5 3 -5 0 -10 -2 -3 -5 -5 -7 -5 -2 0 -5 2 -7 5 -3 5 -3 5 0 10 2
3 5 5 7 5 2 0 5 -2 7 -5z m-610 -185 c4 -4 5 -5 4 -17 -1 -18 -6 -23 -20 -23
-13 0 -19 6 -19 17 -1 15 4 20 21 25 8 2 8 2 14 -2z m-507 -89 c16 -10 30 -28
30 -38 0 -12 -22 -13 -48 -4 -17 6 -22 11 -22 21 -1 12 0 15 5 20 8 9 22 9 35
1z m-77 -58 c10 -7 4 -25 -8 -25 -10 0 -13 3 -13 14 0 14 9 18 21 11z m458 -1
c6 -1 10 -5 20 -16 8 -8 17 -16 21 -18 13 -7 22 -17 22 -24 0 -9 5 -29 10 -40
6 -11 30 -27 56 -37 19 -8 28 -15 28 -22 2 -22 -4 -29 -27 -30 -8 -1 -16 -1
-18 0 -2 1 -5 1 -5 1 -1 0 -2 1 -2 2 0 1 -5 3 -11 4 -13 3 -21 8 -31 24 -9 14
-10 17 -17 39 -7 24 -11 31 -22 41 -9 7 -39 24 -43 24 -7 0 -16 10 -17 18 -2
18 4 31 17 34 9 2 10 2 19 0z m465 -58 c9 -6 11 -41 3 -61 -3 -7 -5 -13 -5
-15 0 -2 -1 -1 -3 2 -1 3 -3 5 -4 5 -1 0 -5 1 -8 3 -3 1 -7 2 -10 2 -8 1 -32
-8 -38 -15 -9 -8 -15 -26 -13 -40 8 -45 5 -51 -19 -53 -28 -1 -40 6 -40 24 0
7 2 11 6 18 11 16 12 19 17 33 5 14 5 16 0 53 -3 17 -3 18 2 23 7 8 20 10 81
14 10 1 27 9 27 13 0 2 1 2 1 -1 1 -2 2 -4 3 -5z m205 2 c4 -3 5 -7 5 -13 0
-4 1 -12 2 -16 1 -4 3 -10 3 -12 1 -2 4 -8 8 -14 4 -6 10 -16 13 -22 3 -7 9
-14 12 -18 5 -6 27 -17 33 -17 2 0 8 -2 13 -4 13 -6 18 -14 18 -27 0 -14 -4
-18 -22 -28 -9 -4 -20 -11 -27 -18 -14 -14 -18 -17 -28 -17 -14 -1 -15 0 -21
6 -9 8 -9 26 0 38 3 4 7 8 8 9 1 1 2 8 2 16 0 14 0 15 -6 20 -3 2 -10 6 -15 8
-6 2 -16 8 -23 13 -10 8 -14 10 -21 10 -25 0 -41 -26 -35 -58 4 -19 3 -25 -7
-46 -7 -15 -9 -23 -11 -38 -3 -23 -3 -24 -17 -33 -23 -16 -29 -24 -39 -57 -3
-12 -7 -23 -8 -25 -1 -2 -4 -10 -7 -17 -5 -15 -25 -56 -27 -58 -1 -1 -7 -14
-14 -33 -3 -9 -11 -18 -15 -16 -8 3 -10 10 -6 23 2 7 4 15 6 19 1 3 4 9 5 13
3 10 11 91 15 152 1 9 1 23 2 30 0 7 1 22 2 33 1 17 2 22 7 33 6 11 7 12 8 9
1 -3 4 -6 6 -7 3 -2 6 -3 6 -5 4 -5 30 -3 30 3 0 1 1 2 2 2 3 0 6 4 12 13 5
10 5 22 2 44 -5 26 -2 38 10 43 32 12 43 19 64 40 1 1 4 3 8 6 4 3 9 7 10 9
12 11 29 14 37 7z m-743 -8 c5 -5 5 -8 1 -14 -8 -10 -24 2 -16 13 4 6 10 6 15
1z m1048 -6 c5 -5 5 -15 0 -20 -9 -9 -24 -2 -24 10 0 8 6 14 14 14 3 0 8 -2
10 -4z m-1000 -70 c5 -5 13 -12 17 -17 11 -10 15 -20 10 -24 -4 -4 -13 -3 -35
6 -10 4 -18 7 -19 7 -6 0 -11 10 -11 19 0 22 22 27 38 9z m296 -9 c3 -3 4 -7
4 -14 0 -13 -6 -19 -19 -19 -13 0 -19 6 -19 19 0 7 1 11 4 14 7 8 23 8 30 0z
m-592 -35 c5 -5 6 -7 6 -17 0 -16 -7 -23 -23 -23 -16 0 -23 7 -23 23 0 16 7
23 23 23 10 0 12 -1 17 -6z m1266 -6 c6 -6 4 -23 -3 -30 -7 -6 -21 -9 -36 -6
-22 5 -26 10 -18 25 5 8 9 11 23 14 17 3 29 2 34 -3z m-831 -38 c3 -2 9 -9 12
-16 l6 -11 16 -1 c17 0 22 3 24 14 1 5 11 16 14 16 6 0 28 -12 34 -18 13 -13
16 -17 14 -28 -1 -11 -5 -17 -14 -23 -4 -2 -8 -6 -9 -9 -3 -6 -5 -30 -3 -32 4
-2 9 -16 9 -22 0 -4 -1 -12 -2 -19 -3 -18 0 -35 7 -41 19 -17 54 -18 88 0 18
8 30 9 38 1 5 -4 5 -6 5 -25 -1 -24 2 -31 15 -48 10 -12 10 -27 1 -36 -9 -9
-26 -9 -34 0 l-7 6 2 19 c1 20 -1 29 -8 32 -8 3 -24 1 -33 -4 -17 -9 -36 -6
-42 7 -3 5 -19 18 -26 21 -7 3 -17 1 -26 -5 -13 -7 -17 -13 -29 -41 -5 -12 -7
-13 -16 -18 -5 -2 -15 -5 -21 -6 -10 -1 -12 -1 -18 5 -3 3 -5 6 -4 6 2 1 21
57 29 85 13 44 22 83 21 90 -3 17 -15 26 -37 28 -16 1 -26 6 -36 18 -12 12
-16 20 -16 32 0 8 5 23 8 23 0 0 4 1 8 3 11 4 23 3 30 -3z m751 -20 c-1 -1 -2
-16 -3 -33 -2 -71 -3 -107 -4 -119 -1 -7 -1 -21 -2 -30 -2 -27 -5 -44 -11 -66
-2 -7 -3 -15 -3 -18 0 -3 1 -6 1 -7 1 -7 11 -14 24 -16 23 -4 31 -13 44 -52 9
-28 5 -43 -13 -47 -20 -5 -34 4 -36 22 -2 15 -9 27 -15 28 -1 0 -2 0 -2 0 -6
2 -10 2 -17 2 -4 0 -15 0 -23 -1 -20 0 -32 5 -37 18 -1 4 -3 10 -3 12 0 7 -4
28 -6 33 -2 7 -12 15 -18 17 -4 1 -6 2 -6 3 0 2 -2 2 -5 1 -4 0 -7 1 -10 5
l-5 5 5 5 c4 3 6 4 7 2 1 -2 6 -3 14 -3 25 0 32 5 38 27 10 37 20 79 21 91 1
4 2 11 3 14 1 3 2 11 3 16 1 12 2 20 6 41 2 15 6 43 6 49 0 1 3 4 6 7 10 9 26
9 35 1 4 -3 6 -7 6 -7z m156 -17 c21 -9 20 -45 -2 -54 -10 -5 -28 -1 -34 6 -9
10 -9 32 0 42 7 8 24 11 36 6z m-705 -13 c4 -6 4 -24 -1 -30 -7 -9 -27 -9 -34
0 -5 6 -5 24 0 30 7 9 27 9 35 0z m435 -31 c11 -6 13 -23 5 -47 -2 -8 -5 -20
-6 -26 -3 -27 -4 -28 -17 -34 -39 -18 -58 -30 -64 -41 -6 -9 -6 -30 -1 -37 2
-3 3 -9 3 -17 0 -10 -1 -12 -6 -17 -6 -6 -7 -6 -21 -6 -11 0 -35 15 -38 24 0
3 -2 8 -3 12 -2 9 3 15 15 17 10 2 22 8 25 13 3 6 5 22 2 25 -5 6 -5 25 1 43
6 18 6 21 2 52 -3 22 2 27 26 29 8 1 18 2 20 3 3 1 5 2 5 1 0 0 5 1 11 3 20 8
29 9 41 3z m302 -88 c7 -4 22 -21 28 -32 9 -15 2 -31 -13 -31 -13 0 -20 7 -27
32 -5 18 -6 24 -2 29 4 6 6 6 14 2z m-81 -126 c3 -3 3 -3 0 -6 -4 -5 -11 1 -7
6 4 4 4 4 7 0z m-394 -22 c3 -3 3 -3 0 -6 -4 -5 -11 1 -7 6 4 4 4 4 7 0z
m-793 -53 c13 -8 30 -38 27 -46 -2 -5 -13 -10 -17 -8 -8 5 -30 38 -30 47 0 4
7 11 12 11 2 0 5 -2 8 -4z m680 -4 c2 -1 7 -8 11 -16 4 -7 9 -14 10 -16 2 -1
4 -3 4 -5 5 -6 17 -13 33 -18 16 -5 26 -12 26 -18 0 -5 -8 -13 -19 -17 -7 -3
-13 -5 -14 -6 -6 -4 -23 -9 -30 -9 -15 0 -27 9 -27 20 0 7 -11 34 -18 46 -15
22 -9 41 11 41 5 0 11 -1 13 -2z m-535 -50 c11 -10 3 -28 -11 -28 -9 0 -16 6
-16 16 0 14 17 22 27 12z m-199 -6 c5 -6 5 -12 0 -18 -7 -8 -22 -2 -22 9 0 11
15 17 22 9z m1142 -38 c9 -9 2 -24 -10 -24 -12 0 -19 15 -10 24 2 2 7 4 10 4
3 0 8 -2 10 -4z"/>
<path d="M839 3621 c-1 -2 -3 -2 -4 -1 -1 0 -1 0 0 -2 1 -1 0 -3 -2 -3 -2 -1
-3 -5 -2 -15 0 -11 -1 -14 -3 -14 -4 0 18 -6 22 -6 4 0 24 -8 27 -10 7 -6 27
-8 48 -6 21 2 28 5 46 16 l8 5 -1 12 c0 14 -3 18 -15 23 -11 5 -119 6 -124 1z"/>
<path d="M853 3516 c-2 -2 -6 -5 -9 -9 -3 -3 -9 -10 -14 -16 -10 -10 -10 -10
-10 -24 0 -12 1 -15 4 -18 17 -15 21 -34 10 -48 -3 -4 -8 -11 -11 -14 -6 -6
-6 -7 -5 -17 1 -12 7 -22 13 -22 2 0 3 -1 3 -2 0 -2 1 -2 39 -3 l34 -1 11 5
c23 12 25 31 8 67 -13 29 -14 33 -11 48 3 21 -2 32 -25 51 -6 4 -30 6 -37 3z"/>
</g>
</svg>
