<?xml version="1.0" standalone="no"?>
<!DOCTYPE svg PUBLIC "-//W3C//DTD SVG 20010904//EN"
 "http://www.w3.org/TR/2001/REC-SVG-20010904/DTD/svg10.dtd">
<svg version="1.0" xmlns="http://www.w3.org/2000/svg"
 width="1100.000000pt" height="2850.000000pt" viewBox="0 0 1100.000000 2850.000000"
 preserveAspectRatio="xMidYMid meet">
<metadata>
Created by potrace 1.15, written by Peter Selinger 2001-2017
</metadata>
<g transform="translate(0.000000,2850.000000) scale(0.500000,-0.500000)"
fill="#000000" stroke="none">
<path d="M427 3729 c-9 -4 -17 -13 -21 -25 -2 -7 -3 -12 -3 -13 2 -1 3 -11 3
-28 0 -15 0 -18 -4 -22 -4 -4 -7 -5 -13 -5 -12 1 -16 6 -24 29 -7 19 -16 28
-34 30 -8 2 -9 2 -25 0 -11 -1 -21 4 -32 15 -7 8 -8 8 -21 8 -12 0 -15 -1 -25
-7 -8 -6 -12 -8 -20 -8 -9 0 -10 1 -34 18 -9 6 -11 6 -20 5 -14 -2 -18 -6 -28
-31 -3 -7 -5 -20 -5 -35 0 -14 0 -16 7 -25 18 -26 18 -32 1 -57 -12 -16 -13
-24 -13 -72 0 -40 0 -45 5 -65 5 -20 5 -23 3 -40 -1 -10 -2 -34 -3 -53 l-1
-35 8 -16 c15 -31 32 -48 51 -54 6 -1 34 -2 109 -2 100 0 112 0 112 3 0 1 1 2
3 2 4 0 14 12 18 21 4 10 4 98 0 109 -4 12 -18 22 -38 25 -3 1 -8 3 -11 5 -18
11 -25 15 -33 18 -6 2 -13 5 -17 8 l-7 5 3 6 c2 4 5 8 7 8 2 1 7 4 10 7 17 17
30 20 42 9 4 -4 7 -8 7 -10 0 -4 36 -1 44 4 3 2 6 4 6 5 0 1 14 1 32 1 30 0
31 0 40 5 9 6 17 16 26 33 8 17 50 29 70 21 6 -3 12 -11 12 -17 0 -4 7 -20 12
-27 4 -6 5 -6 17 -6 12 0 14 1 20 6 3 3 9 7 13 9 7 3 8 3 17 0 5 -2 14 -4 21
-4 11 -1 13 -1 16 3 2 3 4 6 4 8 0 2 1 4 2 5 2 1 2 2 0 3 -4 2 -3 21 1 27 2 4
35 25 39 25 2 0 4 5 4 11 0 5 7 13 12 13 1 0 4 -1 6 -3 3 -3 3 -4 0 -12 -2 -4
-6 -10 -9 -12 -5 -4 -6 -7 -6 -15 -1 -18 -3 -31 -5 -33 -2 -3 5 -29 9 -33 9
-8 8 -8 193 -7 97 0 178 1 180 1 1 0 2 1 2 2 0 1 1 2 3 2 2 0 15 11 15 13 0 1
3 5 6 10 3 4 6 10 7 11 5 14 41 14 46 0 1 -1 4 -7 7 -11 3 -5 6 -9 6 -10 0 -2
13 -13 16 -13 1 0 2 -1 2 -2 0 -2 1 -2 19 -3 14 -1 31 5 28 9 -1 1 0 2 1 2 1
1 3 6 3 13 1 7 2 13 4 13 1 1 1 2 -1 2 -9 0 -11 19 -3 27 11 11 31 4 31 -12 0
-9 -3 -15 -8 -15 -2 0 -2 -1 -1 -2 2 0 3 -6 4 -13 0 -7 2 -12 3 -13 1 0 2 -1
1 -2 -1 -1 2 -4 6 -6 7 -3 13 -4 37 -4 29 0 29 0 41 6 9 4 15 9 20 16 10 12
17 17 29 17 12 0 19 -5 29 -17 8 -11 27 -22 38 -22 4 0 11 -2 15 -5 4 -3 9 -5
10 -5 1 0 2 -1 2 -2 0 -5 24 -22 34 -23 17 -3 17 -47 0 -50 -5 -1 -23 -11 -28
-16 -18 -17 -18 -43 -1 -67 4 -5 8 -11 9 -14 4 -9 15 -13 33 -12 10 1 16 2 19
5 5 5 15 4 23 -2 4 -3 7 -6 7 -8 0 -3 12 -16 21 -21 7 -4 11 -5 22 -5 11 0 15
1 22 5 9 5 21 18 21 21 0 1 2 4 5 7 3 3 5 6 5 6 0 1 1 4 3 5 6 6 3 34 -3 39
-8 7 -10 22 -4 28 7 7 17 5 34 -9 4 -3 15 -9 24 -13 9 -4 17 -9 19 -10 4 -3 9
-15 9 -22 0 -6 -4 -18 -7 -18 0 0 -1 -1 0 -2 1 -1 2 -6 2 -11 1 -13 5 -19 10
-19 7 0 27 8 27 10 0 1 2 6 4 11 4 7 4 12 4 56 0 35 -1 53 -3 68 -4 19 -4 22
0 40 5 29 5 184 0 204 -3 13 -3 39 0 58 1 8 -2 17 -9 24 -7 7 -23 7 -37 1 -17
-8 -20 -7 -42 2 l-20 9 -123 1 -123 0 -22 -5 -23 -6 -22 6 -23 5 -124 -1
c-124 0 -129 -1 -129 -3 0 -1 -3 -3 -7 -5 -4 -1 -8 -5 -10 -8 -2 -3 -4 -6 -5
-7 -1 -1 -3 -5 -6 -9 -12 -21 -44 -21 -56 0 -3 4 -5 8 -6 9 -1 1 -3 3 -5 6 -7
12 -27 17 -38 10 -33 -20 -41 -21 -61 -9 -7 4 -17 9 -22 12 l-9 4 -267 0
c-219 1 -268 0 -273 -2z m885 -43 c1 0 5 -3 8 -6 5 -5 6 -7 6 -17 0 -15 -2
-18 -23 -31 -10 -6 -20 -13 -24 -17 -8 -8 -15 -13 -21 -13 -19 -1 -26 4 -26
20 0 14 1 16 20 29 8 6 18 15 22 20 8 10 18 16 28 16 4 -1 8 -1 10 -1z m-677
-11 c7 -3 9 -5 12 -12 3 -8 3 -9 0 -14 -6 -8 -22 -11 -34 -6 -8 3 -11 8 -11
18 0 15 14 21 33 14z m1145 -1 c5 -5 5 -15 0 -20 -9 -9 -24 -2 -24 10 0 8 6
14 14 14 3 0 8 -2 10 -4z m-1546 -46 c5 -5 5 -15 0 -20 -9 -9 -24 -2 -24 10 0
8 6 14 14 14 3 0 8 -2 10 -4z m1456 -4 c1 0 5 -3 8 -6 5 -5 6 -7 6 -18 0 -17
-8 -26 -22 -24 -4 0 -29 -6 -35 -9 -11 -5 -22 -17 -34 -37 -9 -16 -14 -20 -22
-20 -6 0 -13 6 -13 11 0 2 3 15 6 29 3 15 6 28 6 30 0 5 10 14 17 14 7 1 29 7
36 10 2 2 7 6 12 9 4 4 10 8 13 10 5 2 8 2 22 1z m-797 -31 c3 -3 3 -3 0 -6
-4 -5 -11 1 -7 6 4 4 4 4 7 0z m251 -11 c3 -5 2 -6 -1 -13 -2 -4 -7 -10 -10
-14 -4 -3 -7 -7 -7 -7 0 -4 -18 -30 -21 -31 -8 -3 -21 -1 -26 4 -5 5 -7 18 -4
26 1 3 27 21 30 21 1 0 4 3 8 6 15 15 26 17 31 8z m629 -25 c7 -11 -7 -23 -15
-13 -5 6 -5 8 -1 14 4 6 12 5 16 -1z m-35 -52 c5 -2 10 -4 12 -6 2 -1 6 -4 10
-5 5 -1 10 -5 12 -8 4 -6 4 -7 2 -12 -3 -5 -5 -5 -19 -6 -24 -2 -33 -8 -39
-22 -10 -28 -13 -32 -24 -32 -5 0 -9 1 -12 5 -5 6 -5 14 3 34 2 7 4 13 4 13
-1 0 0 2 1 4 1 2 2 9 3 16 2 25 16 30 47 19z m-1456 -28 c12 -14 13 -19 3 -24
-16 -7 -31 -1 -31 13 0 15 18 22 28 11z m30 -102 c2 -2 8 -11 12 -21 5 -9 10
-21 12 -26 10 -21 6 -36 -10 -36 -10 0 -18 6 -25 16 -5 8 -7 11 -17 23 -7 7
-9 8 -19 9 -12 1 -24 -3 -34 -11 -8 -7 -28 -7 -36 0 -6 4 -6 6 -6 20 0 14 0
16 6 20 7 7 25 7 37 1 13 -7 33 -6 45 2 12 7 27 8 35 3z"/>
<path d="M513 3422 c-16 -5 -24 -11 -29 -21 -9 -17 -10 -26 -10 -63 l1 -35 11
-27 11 -28 -4 -5 -4 -4 4 -4 c7 -6 28 -2 41 7 4 3 10 5 21 5 14 1 16 1 20 -3
3 -3 5 -6 5 -7 0 -5 9 -9 25 -9 18 -1 19 0 19 17 0 13 6 19 20 19 14 0 19 -5
21 -22 1 -17 8 -31 17 -36 6 -4 10 -5 34 -5 l28 -1 7 7 c4 3 7 9 7 11 0 3 1 8
1 11 0 3 1 7 2 9 1 1 0 2 -2 2 -3 0 -5 6 -5 19 0 14 7 21 23 21 16 0 23 -7 23
-21 0 -13 -2 -19 -5 -19 -2 0 -3 -1 -2 -2 1 -2 2 -6 2 -9 0 -3 1 -8 1 -11 0
-2 3 -7 7 -11 9 -8 18 -9 32 -2 10 5 11 6 18 20 3 8 7 17 8 21 2 11 9 16 24
16 12 0 17 -2 27 -11 3 -3 14 -10 25 -16 11 -6 24 -14 28 -18 16 -16 17 -16
80 -16 62 0 56 -1 85 15 17 10 25 9 80 -7 l31 -9 116 1 c120 0 121 1 121 3 0
1 1 2 3 2 1 0 5 3 8 7 19 18 17 53 -2 76 -13 16 -15 20 -15 29 0 9 2 13 15 29
14 17 18 36 12 52 -4 9 -14 21 -18 21 -2 0 -3 1 -3 2 0 2 -1 2 -34 3 -31 1
-38 1 -59 -7 -15 -5 -25 -5 -40 0 -7 2 -15 5 -19 6 -11 3 -320 3 -328 0 -13
-5 -20 -11 -28 -29 -9 -18 -12 -21 -24 -21 -12 0 -15 3 -24 21 -13 28 -20 31
-73 31 -57 0 -62 -2 -64 -27 0 -5 -1 -10 -2 -10 0 -1 0 -3 2 -4 5 -5 4 -18 -2
-23 -10 -10 -22 -4 -31 15 -7 13 -14 25 -20 30 -6 6 -29 16 -38 18 -9 2 -27
-6 -37 -15 -17 -16 -26 -16 -48 1 -15 11 -26 14 -57 15 -23 0 -31 -1 -39 -4z
m833 -89 c16 -7 20 -36 7 -49 -12 -12 -44 -15 -54 -6 -8 7 -5 30 5 44 9 11 28
16 42 11z"/>
<path d="M258 3158 c-3 -1 -6 -1 -7 0 0 0 -1 0 -1 -2 0 -1 -1 -2 -3 -2 -4 0
-14 -12 -18 -21 -5 -13 -3 -41 5 -53 18 -28 18 -42 0 -70 -14 -21 -7 -71 13
-82 3 -2 7 -4 8 -5 4 -3 8 -4 44 -5 27 0 38 0 44 3 l8 2 -1 16 c0 11 0 16 2
17 2 1 1 2 -2 2 -3 0 -6 1 -7 2 -1 1 -7 3 -13 6 -16 6 -20 8 -24 16 -5 9 -5
12 -1 22 7 18 46 23 59 7 10 -13 35 -23 55 -23 31 0 39 -5 41 -23 4 -34 13
-44 37 -47 29 -2 42 3 63 25 l11 11 13 0 c19 0 27 -7 29 -25 1 -5 2 -12 4 -16
2 -4 3 -9 3 -11 0 -7 8 -20 17 -26 11 -8 11 -12 1 -13 -17 -2 -20 -2 -25 0 -4
2 -7 5 -8 8 -1 6 -5 7 -24 6 l-16 0 -3 -13 c-4 -17 -10 -23 -24 -23 -9 0 -22
7 -22 11 0 4 -16 18 -22 21 -13 5 -21 4 -51 -6 -31 -10 -74 -23 -115 -34 -30
-8 -43 -14 -48 -21 -6 -7 -8 -25 -5 -34 2 -4 3 -12 3 -18 0 -9 -1 -11 -6 -16
-5 -5 -7 -6 -18 -6 -14 0 -17 2 -27 21 -11 23 -16 28 -29 28 -15 0 -21 -7 -21
-23 0 -12 3 -16 16 -28 3 -3 8 -7 11 -10 4 -3 9 -11 13 -18 3 -6 8 -14 10 -17
13 -16 33 -44 44 -59 7 -9 15 -20 19 -23 6 -7 22 -13 32 -13 10 0 60 17 64 22
1 1 4 3 8 5 13 6 34 21 38 26 4 6 8 21 8 32 0 13 -10 38 -18 47 -9 9 -12 15
-12 25 0 13 6 19 20 19 14 0 18 -4 20 -21 2 -16 6 -27 15 -42 3 -7 7 -16 7
-20 2 -10 9 -24 15 -28 12 -7 25 -5 81 18 13 5 24 9 25 9 2 0 11 7 10 8 -1 1
0 1 2 2 1 0 6 1 11 3 5 1 15 5 23 7 20 6 37 15 45 24 9 11 10 12 10 14 0 1 1
2 2 2 1 0 3 4 6 10 19 43 18 42 39 47 l13 4 3 -5 c13 -18 26 -24 51 -23 13 1
16 1 20 -3 5 -4 5 -4 2 -10 -3 -5 -6 -9 -12 -11 -5 -3 -14 -8 -20 -12 -6 -4
-11 -7 -12 -7 -1 0 -2 -1 -2 -2 -1 -1 -9 -5 -18 -10 -20 -11 -29 -19 -37 -35
-9 -17 -13 -20 -28 -18 -42 5 -48 4 -58 -8 -5 -5 -6 -7 -6 -22 0 -9 1 -19 2
-24 3 -13 -11 -22 -23 -15 -2 1 -8 7 -12 13 -9 13 -16 16 -30 18 -9 1 -13 0
-38 -10 -28 -10 -82 -30 -88 -32 -2 0 -18 -6 -35 -12 -18 -6 -34 -11 -35 -11
-2 0 -9 -3 -16 -6 -14 -7 -25 -17 -33 -32 -11 -21 -22 -24 -49 -10 -23 11 -30
12 -55 5 -29 -8 -35 -13 -35 -33 0 -10 1 -12 11 -22 6 -6 15 -17 21 -24 6 -7
11 -13 12 -14 1 -1 6 -7 12 -15 6 -7 14 -15 19 -18 8 -5 31 -13 36 -13 2 0 6
-2 9 -6 5 -4 5 -7 6 -22 2 -20 5 -29 14 -33 11 -6 20 -5 46 4 14 5 28 10 32
11 4 1 10 4 13 5 3 2 13 5 22 8 15 5 111 43 130 51 4 2 14 6 22 10 8 3 18 7
23 9 14 5 14 6 14 24 l0 16 -10 9 c-10 9 -10 9 -10 22 0 11 1 13 6 18 3 3 7 6
9 6 31 2 35 -1 35 -22 0 -9 0 -17 1 -18 1 -1 0 -2 -1 -2 -3 0 6 -15 10 -16 15
-2 26 -1 41 7 44 21 116 57 120 61 3 2 4 5 5 15 1 16 -2 21 -17 30 -14 8 -16
10 -18 21 -4 24 13 38 39 31 20 -6 51 -19 59 -25 17 -15 32 -16 52 -4 7 4 15
8 18 9 6 4 16 4 20 0 5 -6 3 -14 -7 -26 -3 -3 -4 -8 -5 -17 -1 -12 0 -15 6
-30 6 -13 4 -26 -4 -31 -6 -4 -25 -5 -32 -1 -28 15 -35 15 -37 3 -1 -5 -1 -8
0 -8 1 0 2 -3 4 -8 1 -5 3 -9 4 -9 3 0 0 -12 -4 -16 -9 -9 -24 0 -28 16 -2 7
-3 8 -10 10 -16 4 -23 3 -43 -9 -28 -17 -34 -25 -37 -53 -2 -20 -6 -28 -16
-34 -4 -3 -8 -6 -8 -7 0 -2 -1 -3 -2 -3 -5 0 -7 -26 -3 -33 8 -12 0 -27 -13
-27 -19 0 -21 20 -4 40 3 3 2 28 -2 32 -7 8 -25 16 -37 15 -11 0 -12 0 -24
-13 -7 -7 -14 -15 -15 -18 -6 -8 -17 -12 -36 -11 -21 1 -32 -1 -57 -11 -11 -5
-39 -16 -63 -24 -24 -9 -46 -17 -49 -19 -3 -1 -6 -2 -7 -2 -3 0 -30 -10 -34
-12 -9 -5 -14 -11 -17 -20 -5 -16 -4 -22 7 -40 20 -33 22 -41 13 -49 -8 -8
-24 -3 -39 13 -8 9 -9 9 -21 9 -15 0 -17 -2 -17 -20 0 -12 1 -15 5 -18 17 -18
14 -38 -5 -38 -10 0 -19 11 -21 26 -1 6 -10 19 -19 26 -12 9 -16 14 -17 24 -1
12 -8 29 -14 33 -10 6 -18 7 -34 3 -9 -2 -18 -5 -21 -5 -3 -1 -9 -2 -13 -3 -4
-1 -10 -3 -12 -3 -20 -4 -28 -6 -38 -11 -33 -16 -41 -44 -19 -68 9 -10 11 -13
19 -25 4 -6 12 -16 17 -21 4 -5 11 -15 15 -23 4 -8 9 -17 11 -20 10 -16 18
-32 18 -33 0 -1 4 -5 9 -10 8 -10 21 -16 32 -16 6 -1 60 15 105 29 15 5 28 9
28 9 1 0 9 3 18 6 18 7 33 20 41 34 7 14 15 16 41 10 25 -6 23 -6 62 9 7 2 17
6 22 9 6 2 10 4 11 4 1 0 8 3 16 6 8 4 17 8 21 9 4 2 11 5 15 7 5 2 9 4 10 4
0 0 15 6 32 14 48 23 51 24 61 27 6 2 12 5 14 7 2 2 18 11 35 19 56 28 95 49
127 69 2 1 7 4 11 6 12 7 20 13 25 21 6 8 6 10 10 32 3 17 8 22 22 20 5 0 12
-2 13 -3 4 -4 27 -5 36 -2 8 3 20 16 22 24 0 3 2 9 3 14 1 5 2 13 2 19 0 8 1
10 6 15 6 6 7 6 18 6 11 0 12 0 18 -6 5 -5 6 -7 6 -18 0 -13 0 -13 -9 -21 -30
-26 -32 -28 -34 -68 -1 -22 1 -32 10 -40 5 -5 24 -15 26 -15 5 2 21 -8 21 -12
0 -5 13 -22 19 -26 6 -4 10 -4 28 -4 27 0 31 -3 33 -22 2 -25 -2 -31 -22 -29
-19 1 -19 2 -29 17 -5 8 -10 14 -11 14 -1 0 -3 2 -5 4 -4 3 -14 4 -37 1 -8 0
-12 1 -23 6 -11 6 -15 7 -25 7 -14 -1 -16 -2 -30 -15 -6 -6 -15 -13 -21 -16
-9 -4 -15 -6 -32 -10 -6 -2 -94 -2 -116 -1 -11 1 -29 2 -40 3 -29 2 -33 2 -42
-2 -15 -7 -17 -25 -6 -49 8 -17 17 -38 17 -41 0 -4 12 -17 19 -20 6 -3 17 -4
40 -3 12 1 20 -3 23 -11 1 -4 6 -26 13 -59 2 -11 1 -12 -3 -17 -5 -6 -16 -7
-20 -2 -4 4 -28 4 -32 -1 -6 -6 -8 -28 -4 -41 3 -10 17 -27 24 -27 2 0 4 -1 5
-2 2 -1 9 -3 18 -3 18 -2 29 2 37 11 6 6 14 25 14 32 0 5 8 14 13 14 2 0 6 1
8 3 2 1 7 3 11 4 5 1 9 3 13 9 3 4 7 8 8 8 0 0 1 1 1 3 0 1 3 6 7 10 7 7 7 7
19 7 16 -2 20 -6 20 -20 0 -13 -4 -17 -25 -23 -29 -9 -38 -22 -28 -43 7 -15
15 -17 72 -14 30 2 48 5 54 12 7 7 10 33 5 41 -4 6 2 15 9 15 5 0 14 -12 12
-17 0 -2 1 -4 3 -5 2 -2 4 -4 4 -5 0 -8 27 -12 39 -6 10 7 29 19 31 22 7 7 14
34 14 50 0 9 7 13 31 14 33 1 39 5 63 44 19 29 35 68 31 75 0 1 0 3 2 4 2 1 2
3 2 4 -1 1 0 2 1 2 1 0 2 1 2 3 0 1 1 3 3 4 2 0 5 11 9 28 5 23 6 28 4 35 -3
11 -12 21 -25 25 -6 2 -12 6 -14 8 -3 5 -3 5 0 10 3 3 6 5 9 5 6 0 26 7 31 12
8 6 9 13 9 45 0 28 -4 70 -7 84 -3 11 -13 24 -25 32 -21 15 -21 15 -21 32 0
20 5 25 22 25 13 0 40 -5 49 -9 5 -2 10 -3 12 -3 2 0 9 -2 15 -4 6 -2 15 -4
20 -5 7 -1 12 -4 20 -11 6 -5 18 -13 26 -17 21 -11 26 -19 17 -29 -4 -5 -8 -5
-23 -1 -22 5 -37 1 -41 -11 -6 -19 -3 -27 13 -43 15 -15 16 -19 18 -37 1 -8 3
-19 4 -25 5 -16 35 -70 63 -112 2 -2 6 -7 9 -12 3 -4 9 -12 12 -16 2 -4 7 -10
9 -13 3 -3 7 -9 10 -12 24 -31 78 -86 111 -112 24 -19 35 -27 57 -41 30 -20
37 -22 53 -15 11 5 14 9 23 24 11 18 36 54 62 89 3 3 8 10 12 14 4 5 10 12 14
17 9 11 15 17 33 36 18 18 20 25 14 46 -1 6 0 5 -41 28 -14 7 -62 39 -69 45
-2 2 -9 8 -14 12 -6 4 -11 9 -13 11 -31 29 -57 56 -65 67 -2 3 -5 4 -14 4 -14
0 -19 -2 -30 -10 -9 -8 -18 -9 -25 -2 -9 9 -2 23 15 31 8 3 12 12 11 25 0 9
-1 13 -10 27 -16 26 -42 75 -53 102 -3 5 -6 13 -8 17 -7 16 -2 21 35 34 27 9
111 43 143 56 45 19 49 23 49 44 0 14 1 13 -41 58 -3 4 -12 14 -20 22 -8 9
-18 20 -23 26 -13 13 -16 17 -35 38 -46 51 -48 52 -70 51 l-12 -1 -19 -21
c-18 -19 -31 -28 -41 -28 -12 0 -38 -12 -46 -21 -9 -9 -15 -11 -34 -12 -25 -2
-38 -6 -90 -31 -5 -2 -9 -4 -10 -4 -1 0 -11 -5 -24 -11 -28 -13 -34 -16 -44
-19 -9 -3 -49 -18 -83 -31 -30 -13 -37 -19 -39 -39 -1 -8 -1 -11 4 -19 10 -18
24 -25 53 -28 22 -2 29 -9 29 -29 -1 -22 -16 -31 -40 -25 -30 8 -47 16 -64 32
-6 5 -12 9 -14 9 -3 0 -8 3 -12 6 -6 5 -7 8 -7 15 0 12 4 25 8 31 6 9 12 26
14 44 1 8 2 17 4 19 3 6 5 22 3 31 -2 11 -27 41 -67 82 -20 20 -47 45 -55 50
-2 1 -5 4 -7 6 -7 6 -12 10 -14 10 -1 0 0 2 3 5 5 5 6 6 35 7 16 1 31 2 32 3
11 7 13 11 14 27 1 4 2 8 3 8 1 1 1 2 -1 2 -4 0 -6 4 -6 10 0 5 6 12 12 12 7
1 19 9 23 15 3 5 4 9 3 29 l0 22 6 6 c6 6 7 6 18 6 11 0 12 0 18 -6 6 -6 6 -7
6 -20 -1 -31 6 -45 29 -53 7 -2 12 -10 14 -18 3 -21 14 -36 29 -41 10 -3 415
-3 416 0 0 1 1 2 2 1 2 -1 5 15 4 26 -1 8 0 9 3 10 2 0 1 1 -3 1 -27 1 -33 3
-38 13 -2 2 -5 8 -7 12 -5 8 -14 18 -27 31 -9 7 -13 18 -15 37 -2 26 -11 40
-30 49 -13 6 -22 17 -17 20 1 1 2 2 0 3 -1 0 -2 4 -3 8 -2 13 -7 21 -15 25 -7
4 -12 4 -94 3 l-87 0 -19 -8 c-11 -5 -22 -9 -24 -9 -2 0 -13 4 -23 8 -11 4
-22 8 -25 8 -8 0 -22 -6 -33 -16 -19 -17 -26 -17 -58 -1 -40 20 -31 19 -241
19 -199 0 -193 0 -202 -12 -5 -7 -11 -26 -10 -33 1 -14 -17 -22 -31 -13 -6 4
-13 11 -13 13 0 3 -26 24 -32 27 -9 3 -33 4 -39 0 -9 -4 -26 -3 -39 4 -29 15
-15 14 -188 14 -85 0 -157 -1 -160 -2z m1158 -68 l6 -6 0 -26 c0 -15 0 -33 1
-40 1 -11 1 -13 -3 -17 -7 -8 -19 -7 -30 2 -5 4 -14 10 -20 15 -18 12 -19 15
-14 30 3 7 5 12 6 12 1 0 4 6 8 13 9 18 15 23 29 23 10 0 12 -1 17 -6z m-280
-16 c8 -9 1 -25 -12 -32 -16 -8 -28 -27 -28 -46 -1 -16 -13 -24 -22 -14 -6 6
-5 12 3 26 8 16 10 23 9 39 0 16 4 22 20 27 15 5 26 5 30 0z m-124 -6 c5 -5 5
-11 0 -16 -10 -10 -27 5 -16 16 4 4 12 4 16 0z m514 -8 c14 -10 13 -37 -1 -40
-5 -1 -16 6 -19 12 -10 22 2 40 20 28z m-848 -9 c3 -3 4 -7 4 -14 0 -13 -6
-19 -19 -19 -13 0 -19 6 -19 19 0 7 1 11 4 14 7 8 23 8 30 0z m286 -57 c5 -5
6 -7 6 -17 0 -16 -7 -23 -23 -23 -16 0 -23 7 -23 23 0 16 7 23 23 23 10 0 12
-1 17 -6z m-239 -74 c2 -3 3 -8 3 -15 l0 -12 -15 -14 c-8 -8 -16 -17 -18 -21
-3 -6 -13 -14 -17 -14 -4 0 -20 8 -20 10 0 1 -1 2 -3 2 -3 0 -3 1 -3 5 1 3 0
5 -1 6 -1 0 0 0 2 0 4 -1 15 4 19 8 4 4 14 33 14 38 0 13 29 19 39 7z m272
-19 c20 -8 16 -27 -5 -25 -16 2 -24 13 -17 24 4 5 12 5 22 1z m-211 -43 c2 -3
4 -7 4 -9 0 -5 -11 -17 -15 -17 -5 0 -11 10 -11 16 0 12 15 19 22 10z m145
-10 c11 -10 3 -28 -11 -28 -9 0 -16 6 -16 16 0 14 17 22 27 12z m120 -15 c5
-8 1 -16 -8 -16 -9 0 -13 8 -8 16 5 6 12 6 16 0z m-447 -61 c5 -5 6 -7 6 -16
0 -19 -9 -28 -26 -25 -15 3 -20 9 -20 25 0 15 7 22 23 22 10 0 12 -1 17 -6z
m1147 -24 c2 0 6 -3 9 -6 13 -12 5 -32 -12 -32 -22 0 -28 31 -8 39 2 0 4 0 6
0 1 -1 4 -1 5 -1z m-1392 -29 c4 -4 4 -10 -2 -23 -12 -24 -29 -33 -40 -22 -8
7 -5 25 4 31 2 0 4 3 6 4 5 5 21 13 26 13 2 0 5 -1 6 -3z m604 -18 c7 -4 10
-11 10 -23 0 -14 -3 -19 -14 -24 -11 -5 -25 -4 -32 3 -10 8 -11 32 -1 42 7 7
27 8 37 2z m676 -20 c11 -11 2 -44 -16 -55 -10 -6 -25 -6 -32 1 -6 6 -7 21 -1
33 9 22 36 34 49 21z m-478 -83 c4 -5 3 -5 -2 -9 l-6 -5 -4 4 -5 5 4 4 c6 6 8
6 13 1z m-450 -34 c7 -6 7 -20 1 -25 -7 -6 -22 -7 -28 -2 -5 4 -5 5 -3 13 1 5
4 12 6 14 5 6 18 6 24 0z m923 -309 c3 -1 9 -8 13 -14 11 -15 19 -22 33 -28 6
-3 17 -9 25 -13 28 -14 36 -18 45 -19 5 -1 12 -1 15 -2 3 0 9 -1 14 -2 16 -2
21 -9 21 -26 0 -10 -1 -12 -6 -17 -3 -3 -7 -6 -8 -6 -32 -1 -39 -2 -63 -10
-16 -6 -26 -4 -35 6 -10 11 -18 21 -18 24 0 1 -1 2 -1 2 -1 0 -4 3 -7 8 -12
18 -17 25 -22 30 -5 5 -29 16 -33 16 -6 0 -15 6 -17 12 -4 9 -3 24 1 31 6 12
28 16 43 8z m-329 -68 c5 -4 6 -10 5 -19 0 -5 -5 -10 -17 -18 -6 -3 -13 -9
-17 -14 -3 -4 -9 -10 -13 -15 -10 -11 -29 -13 -37 -3 -5 6 -5 30 0 35 3 3 23
11 25 10 0 -1 6 4 12 10 16 16 21 19 30 19 5 0 9 -1 12 -5z m-1051 -36 c6 -7
6 -22 0 -28 -7 -6 -19 -7 -28 -2 -6 4 -6 5 -6 15 0 9 1 12 5 15 7 8 22 8 29 0z
m818 -35 c5 -4 7 -8 9 -22 2 -11 -1 -26 -7 -32 -5 -5 -7 -6 -17 -6 -22 0 -30
18 -18 44 8 18 22 25 33 16z m109 -46 c6 -6 7 -18 1 -23 -10 -8 -26 -1 -26 12
0 13 16 20 25 11z"/>
<path d="M1693 3155 c-16 -6 -21 -9 -28 -17 -8 -12 -10 -27 -4 -37 5 -7 26
-17 41 -19 14 -2 16 -3 16 -8 0 -2 1 -2 2 -1 0 1 4 2 7 3 12 0 22 7 27 17 5
11 5 29 1 40 -4 9 -14 21 -18 21 -2 0 -3 1 -3 2 0 1 -1 1 -2 2 -2 0 -8 0 -14
1 -9 1 -14 0 -25 -4z"/>
<path d="M1177 2956 c7 -1 11 -1 10 -2 -4 0 -4 -26 0 -30 2 -4 5 -4 7 -1 3 4
2 31 0 31 -2 0 1 1 5 2 5 1 1 1 -13 1 -18 0 -19 0 -9 -1z"/>
</g>
</svg>
