<?xml version="1.0" standalone="no"?>
<!DOCTYPE svg PUBLIC "-//W3C//DTD SVG 20010904//EN"
 "http://www.w3.org/TR/2001/REC-SVG-20010904/DTD/svg10.dtd">
<svg version="1.0" xmlns="http://www.w3.org/2000/svg"
 width="1000.000000pt" height="2850.000000pt" viewBox="0 0 1000.000000 2850.000000"
 preserveAspectRatio="xMidYMid meet">
<metadata>
Created by potrace 1.15, written by Peter Selinger 2001-2017
</metadata>
<g transform="translate(0.000000,2850.000000) scale(0.500000,-0.500000)"
fill="#000000" stroke="none">
<path d="M282 3768 c-4 -2 -21 -13 -24 -16 -1 -1 -8 -6 -16 -11 -8 -5 -15 -10
-16 -11 -1 -1 -8 -6 -16 -11 -8 -5 -15 -10 -16 -11 -1 -1 -5 -4 -10 -7 -5 -3
-10 -7 -12 -8 -1 -2 -3 -3 -4 -3 -1 0 -3 -1 -4 -2 -2 -2 -7 -6 -12 -9 -5 -3
-9 -7 -10 -7 -1 -1 -3 -3 -6 -4 -12 -6 -26 -21 -31 -32 -2 -5 -5 -12 -6 -15
-6 -14 -2 -43 7 -53 6 -7 10 -13 25 -33 7 -10 14 -19 16 -21 6 -7 36 -55 45
-71 20 -36 24 -45 24 -54 0 -5 -1 -12 -3 -15 -3 -4 -39 -33 -77 -61 -19 -13
-60 -40 -69 -45 -3 -2 -10 -7 -15 -11 l-9 -9 0 -15 0 -16 12 -13 c6 -6 15 -14
20 -17 14 -10 17 -15 25 -37 2 -7 8 -20 14 -30 5 -9 10 -19 12 -22 2 -3 5 -8
8 -11 2 -4 4 -7 4 -8 0 0 7 -12 15 -26 7 -14 18 -33 22 -42 12 -23 12 -24 30
-25 14 0 15 0 17 4 4 7 4 9 4 24 0 34 20 61 43 59 8 -1 36 -10 41 -14 7 -6 10
-16 14 -62 6 -64 7 -63 -33 -121 -10 -14 -40 -54 -49 -65 -1 -3 -6 -8 -9 -12
-29 -37 -108 -119 -133 -138 -14 -11 -20 -26 -20 -49 0 -4 -2 -9 -3 -12 -3 -4
-5 -4 -11 -3 -9 1 -21 -2 -26 -7 -8 -6 -2 -29 9 -41 2 -2 7 -8 10 -12 3 -4 8
-10 9 -12 15 -17 78 -114 78 -119 0 -1 1 -3 3 -4 1 -2 6 -10 10 -18 10 -18 15
-26 18 -26 2 0 3 -1 3 -2 0 -1 1 -1 3 -2 1 0 6 0 11 -1 12 -2 15 0 30 13 16
14 72 69 86 84 l10 12 4 -6 c5 -7 5 -17 1 -61 -5 -53 -6 -61 -13 -93 -5 -20
-5 -23 -3 -34 1 -8 5 -14 13 -27 13 -19 7 -37 -13 -37 -7 0 -11 1 -21 8 -28
19 -39 21 -120 22 -30 1 -34 0 -41 -3 -10 -6 -15 -12 -16 -24 -1 -9 0 -12 6
-25 3 -9 12 -31 18 -51 6 -20 13 -39 15 -42 7 -13 10 -27 10 -51 0 -11 1 -29
2 -39 1 -10 2 -25 3 -33 1 -22 8 -35 23 -43 l12 -6 41 1 c23 0 53 1 67 2 24 2
73 9 76 11 1 0 4 1 8 2 14 2 42 12 58 19 54 26 89 63 117 120 14 31 19 42 19
44 0 1 1 4 2 6 2 3 11 31 13 38 0 3 4 18 8 33 9 34 14 65 16 86 1 8 3 24 5 36
9 46 16 129 19 228 l2 42 -5 11 c-6 12 -13 19 -26 25 -12 6 -14 8 -15 20 -2
14 1 18 14 25 6 3 10 6 11 6 1 1 3 2 5 4 3 1 7 6 10 12 l6 9 1 50 c2 52 2 53
6 60 1 3 2 6 2 8 0 2 1 3 2 2 1 -1 2 -3 2 -5 0 -4 12 -16 16 -16 1 0 2 -1 2
-2 0 -2 10 -3 61 -3 l50 0 6 -6 6 -6 -1 -77 c0 -93 0 -94 16 -110 6 -6 13 -12
16 -14 14 -9 14 -41 0 -50 -3 -2 -10 -8 -16 -14 -16 -15 -16 -18 -16 -88 0
-51 1 -60 4 -66 6 -12 11 -20 14 -21 6 -2 16 -16 16 -22 0 -10 -7 -28 -13 -31
-3 -2 -4 -4 -3 -5 0 -1 0 -1 -1 0 -2 0 -6 -2 -10 -5 l-7 -6 0 -174 c0 -154 0
-174 3 -181 4 -9 14 -21 18 -21 2 0 3 -1 3 -2 0 -1 1 -2 2 -2 0 1 5 0 10 -1 7
-1 13 0 26 3 21 6 31 6 52 0 16 -4 20 -4 80 -3 66 1 68 1 68 3 0 1 1 2 3 2 4
0 14 12 18 21 3 7 3 22 3 130 l-1 122 6 6 6 6 192 0 192 0 6 -6 c6 -6 6 -7 5
-16 -1 -6 -4 -11 -7 -15 -5 -5 -6 -5 -38 -6 -17 0 -34 0 -37 -1 -10 -2 -22
-10 -29 -19 -5 -5 -14 -14 -20 -21 -21 -20 -22 -30 -8 -72 12 -35 19 -61 25
-86 6 -31 13 -42 32 -50 l11 -6 53 2 c57 1 64 2 75 6 2 1 10 4 17 6 15 6 30 9
42 7 16 -3 31 -2 42 2 5 2 11 4 11 5 1 0 3 1 4 1 5 0 33 14 47 23 13 8 39 32
47 44 16 21 30 60 34 94 1 6 2 11 2 11 1 1 1 15 2 31 1 30 1 31 -4 42 -5 12
-8 14 -32 26 -16 8 -22 17 -24 35 -1 11 -1 12 3 16 3 3 8 4 13 4 21 -1 33 5
40 17 4 8 4 9 5 255 0 253 0 253 -7 270 -2 4 -5 11 -6 16 -2 9 -2 10 2 14 4 4
4 4 14 0 5 -2 11 -5 13 -7 3 -2 13 -7 19 -9 5 -1 57 -1 66 0 3 0 5 2 5 2 0 1
1 2 3 2 4 0 14 12 18 21 5 12 5 358 0 370 -4 9 -14 21 -18 21 -2 0 -3 1 -3 2
0 1 -1 2 -2 2 -7 1 -118 3 -118 2 0 -1 -3 1 -6 4 l-7 7 1 74 c0 48 -1 77 -2
81 -3 11 -9 18 -23 24 -7 3 -14 8 -17 11 -4 5 -4 5 -1 10 2 3 5 7 7 8 12 7 22
27 30 56 5 17 5 22 5 77 1 72 1 73 -19 92 -7 7 -15 15 -16 18 -3 6 -3 25 -1
28 3 4 -1 25 -6 32 -3 3 -7 6 -11 7 -9 4 -479 4 -487 1 -14 -5 -23 -23 -23
-44 0 -14 -6 -20 -20 -20 -13 0 -19 5 -22 18 -3 13 -9 29 -14 35 -2 2 -7 6
-13 8 l-10 5 -98 0 c-80 0 -100 -1 -108 -3 -9 -3 -24 -12 -37 -22 -3 -2 -8 -6
-12 -9 -4 -3 -12 -10 -19 -15 -6 -6 -13 -11 -15 -11 -5 0 -24 -10 -30 -15 -6
-6 -10 -13 -12 -25 -1 -6 -4 -13 -6 -16 -2 -3 -4 -7 -5 -9 -1 -4 -1 -4 -1 0 0
6 -5 9 -33 28 -13 9 -34 22 -46 30 -12 8 -34 22 -48 31 -14 10 -34 23 -45 30
-18 11 -19 12 -30 12 -19 0 -25 -4 -42 -30 -5 -7 -11 -15 -13 -18 -2 -3 -7
-10 -11 -15 -4 -6 -7 -10 -8 -11 -1 -1 -4 -5 -7 -9 -3 -4 -7 -9 -8 -10 -1 -1
-4 -5 -7 -9 -3 -4 -6 -8 -7 -9 -1 -1 -6 -7 -11 -13 -16 -20 -20 -22 -29 -20
-5 2 -9 6 -18 19 -27 39 -70 93 -102 129 -10 11 -30 17 -43 12z m696 -125 l-5
-5 -4 4 -5 5 4 4 5 5 4 -4 5 -5 -4 -4z m270 -19 c5 -5 6 -7 6 -17 0 -10 -1
-12 -6 -17 l-6 -7 -17 2 c-17 1 -33 -1 -38 -6 -2 -1 -7 -6 -12 -10 -8 -8 -9
-8 -38 -12 -17 -3 -31 -4 -32 -3 -1 1 -4 1 -6 1 -3 0 -5 0 -5 1 0 2 -1 2 -3 1
-1 0 -3 0 -5 1 -2 1 1 3 7 6 6 3 10 5 11 6 1 1 8 4 16 7 18 6 23 10 31 22 11
17 15 20 33 23 8 1 20 3 26 5 6 1 16 3 22 3 9 0 11 -1 16 -6z m-452 -44 c1 0
2 -2 3 -3 1 -2 2 -82 3 -178 l1 -174 -6 -6 -6 -6 -49 0 c-50 0 -60 -1 -60 -3
0 -1 -1 -2 -3 -2 -4 0 -14 -12 -18 -22 -4 -11 -3 -30 2 -41 5 -9 18 -19 31
-23 21 -6 25 -10 25 -28 0 -18 -4 -22 -25 -28 -12 -4 -26 -14 -31 -23 -4 -7
-4 -12 -5 -65 0 -36 -1 -56 -2 -55 -1 1 -2 2 -1 3 1 1 0 2 -2 2 -2 0 -3 1 -3
3 -1 1 -1 -6 -2 -16 -1 -16 -1 -15 -2 14 0 18 -1 34 -1 36 0 2 -2 16 -3 31 -2
24 -6 65 -9 83 -1 7 -7 45 -8 55 -5 34 -21 106 -36 159 -3 11 -3 15 -2 24 3
10 5 14 30 43 37 43 46 54 79 95 8 10 16 20 18 22 2 2 5 7 8 11 3 4 7 9 9 11
2 2 6 9 10 14 7 10 40 57 46 64 2 2 3 6 3 8 0 4 0 4 2 0 1 -3 3 -5 4 -5z m253
-12 c3 -2 8 -4 10 -5 8 -4 17 -6 19 -5 2 1 3 1 3 -1 0 -2 0 -2 -1 -2 -1 1 -2
0 -2 -2 0 -1 -2 -5 -6 -8 -3 -3 -5 -7 -4 -9 0 -4 -11 -20 -14 -20 -4 0 -16
-13 -27 -31 -12 -18 -15 -20 -32 -19 -15 0 -20 22 -10 39 8 13 20 39 22 48 3
16 25 23 42 15z m418 -73 c6 -6 6 -6 5 -25 -1 -24 2 -37 13 -57 12 -22 12 -30
0 -52 -12 -23 -13 -30 -13 -87 l1 -49 -6 -6 c-6 -5 -8 -6 -20 -6 -12 0 -14 1
-20 6 l-6 6 1 101 c0 88 0 102 -3 109 -4 9 -14 21 -18 21 -2 0 -3 1 -3 2 0 3
-13 3 -154 3 l-143 0 -6 6 c-8 9 -8 19 0 28 l6 6 180 0 180 0 6 -6z m132 -74
c6 -4 6 -6 6 -20 0 -14 0 -16 -6 -20 -4 -4 -7 -5 -18 -5 -11 0 -14 1 -18 5 -6
4 -6 6 -6 20 0 14 0 16 6 20 4 4 7 5 18 5 11 0 14 -1 18 -5z m-1252 -60 c4 -4
5 -7 5 -15 0 -14 -6 -20 -20 -20 -14 0 -20 6 -20 20 0 14 6 20 20 20 8 0 11
-1 15 -5z m759 -1 c1 0 5 -3 8 -6 5 -5 6 -7 6 -18 0 -11 -1 -13 -6 -18 -6 -6
-7 -6 -18 -6 -11 0 -12 0 -18 6 -5 5 -6 7 -6 17 0 14 3 20 12 24 5 2 8 2 22 1z
m-922 -94 c3 -3 4 -8 4 -14 0 -14 -6 -20 -20 -20 -14 0 -20 6 -20 19 0 12 3
17 10 20 8 3 22 1 26 -5z m983 -7 c5 -6 6 -8 6 -20 0 -12 -1 -14 -6 -20 l-6
-6 -30 0 -30 0 -6 6 c-5 6 -6 8 -6 20 0 12 1 14 6 20 l6 6 30 0 30 0 6 -6z
m583 -65 c5 -4 5 -4 3 -21 -3 -21 -7 -25 -26 -25 -11 0 -14 1 -18 5 -6 4 -6 6
-6 20 0 14 0 16 6 20 5 4 7 5 21 5 12 0 16 -1 20 -4z m-631 -33 c12 -7 14 -33
3 -43 -8 -9 -32 -9 -40 0 -9 8 -9 32 0 41 7 7 27 8 37 2z m-665 -62 c16 -7 20
-37 7 -48 -12 -11 -34 -11 -43 0 -9 10 -9 32 0 42 7 8 24 11 36 6z m1253 -5
c7 -3 12 -13 12 -25 0 -19 -9 -28 -28 -28 -19 0 -28 9 -28 28 0 17 6 24 22 28
5 1 14 -1 22 -3z m-871 -42 c5 -5 6 -7 6 -16 0 -14 -4 -20 -18 -29 -32 -21
-56 -20 -56 3 0 12 5 20 18 32 15 13 21 16 34 16 9 0 11 -1 16 -6z m-274 -25
c14 -7 14 -41 0 -48 -3 -2 -12 -4 -19 -4 -8 -1 -14 -2 -15 -2 -1 -1 -5 -2 -8
-2 -5 -1 -7 -3 -24 -14 -18 -12 -36 -5 -36 14 0 11 5 18 15 20 13 2 30 13 42
25 6 7 13 12 16 13 4 1 7 2 8 2 3 1 16 -1 21 -4z m864 -59 l195 -1 12 -5 c23
-9 33 -19 33 -31 0 -15 -11 -20 -30 -15 -18 5 -34 4 -34 -3 0 -2 -1 -3 -2 -3
0 0 -1 -4 0 -8 0 -6 0 -9 -2 -10 -2 -2 -2 -2 0 -2 3 0 6 -4 7 -10 0 -1 1 -5 2
-7 1 -6 -2 -21 -7 -26 -3 -4 -10 -7 -17 -8 -6 -1 -55 8 -64 12 -10 4 -14 11
-13 25 1 20 1 29 0 32 -3 9 -5 12 -11 16 l-6 5 -117 1 c-83 0 -121 0 -131 -2
-17 -3 -30 -3 -51 0 -12 2 -45 2 -113 2 l-96 -1 -9 -6 c-8 -4 -20 -18 -20 -23
0 -1 -3 -5 -8 -10 -7 -8 -8 -8 -19 -8 -10 0 -12 1 -17 6 -5 5 -6 7 -6 17 0 12
5 20 15 25 17 8 32 23 28 27 -1 0 0 1 1 1 2 0 6 2 9 6 l6 5 110 -1 c61 0 115
1 122 2 7 1 18 1 25 0 7 0 101 -1 208 -2z m-606 -24 c5 -6 5 -12 0 -18 -7 -8
-22 -2 -22 9 0 11 15 17 22 9z m934 -43 c3 -3 4 -7 4 -14 0 -13 -6 -19 -19
-19 -13 0 -19 6 -19 19 0 7 1 11 4 14 7 8 23 8 30 0z m-467 -15 c10 -3 15 -9
15 -19 0 -24 -35 -22 -39 2 -1 7 0 9 4 14 5 6 8 6 20 3z m-935 -88 c1 0 5 -3
8 -6 5 -5 6 -7 6 -18 0 -11 -1 -13 -6 -18 -6 -6 -7 -6 -18 -6 -11 0 -12 0 -18
6 -5 5 -6 7 -6 17 0 14 3 20 12 24 5 2 8 2 22 1z m974 -22 c5 -5 5 -11 0 -16
-10 -10 -27 5 -16 16 4 4 12 4 16 0z m-742 -10 c5 -6 5 -12 0 -18 -7 -8 -22
-2 -22 9 0 11 15 17 22 9z m-95 -4 c7 -6 7 -19 1 -25 -6 -7 -19 -7 -25 -1 -7
6 -7 19 -1 25 6 7 19 7 25 1z m947 -30 c2 -2 4 -5 4 -7 0 -6 10 -26 16 -31 7
-7 18 -11 25 -10 3 1 6 0 7 -2 2 -2 5 -5 8 -6 4 -2 5 -3 4 -7 0 -5 0 -5 4 -3
2 1 10 2 18 2 13 -1 14 -1 16 5 1 3 6 9 10 13 7 7 8 8 19 8 10 0 12 -1 17 -6
5 -5 6 -7 6 -17 0 -10 -1 -12 -6 -17 -3 -4 -8 -6 -11 -6 -6 0 -23 -5 -32 -10
-17 -8 -25 -12 -28 -12 -4 0 -14 11 -18 19 -2 4 -4 7 -6 7 -1 0 -6 2 -12 5
l-10 5 -183 0 -183 -1 -6 6 -6 6 6 6 6 6 137 -1 c94 0 139 1 144 2 5 1 11 5
14 8 6 5 16 25 16 31 0 5 8 11 14 11 3 0 8 -2 10 -4z m229 -53 c4 -4 5 -7 5
-13 0 -11 -7 -18 -18 -18 -11 0 -18 7 -18 18 0 11 7 18 18 18 6 0 9 -1 13 -5z
m-1421 -39 c4 -3 8 -6 9 -7 1 -1 7 -5 13 -9 6 -4 13 -10 14 -14 4 -5 4 -6 -1
-9 -2 -3 -5 -4 -7 -4 -2 0 -11 2 -21 3 -17 3 -22 3 -33 4 -8 0 -14 9 -14 21 0
13 4 19 14 21 9 2 18 0 26 -6z m318 -38 c7 -2 15 -5 17 -7 9 -9 5 -26 -7 -41
-3 -3 -7 -9 -10 -13 -10 -13 -24 -17 -31 -8 -4 3 -5 8 -6 23 -1 10 -2 24 -2
30 -2 20 9 25 39 16z m427 -8 c6 -6 7 -18 1 -25 -7 -9 -31 -23 -40 -23 -5 0
-10 4 -10 8 0 3 5 17 6 18 1 1 3 4 6 8 10 17 27 23 37 14z m169 -22 c5 -5 6
-7 6 -17 0 -10 -1 -12 -6 -17 -5 -5 -7 -6 -17 -6 -10 0 -12 1 -17 6 -5 5 -6 7
-6 17 0 10 1 12 6 17 5 5 7 6 17 6 10 0 12 -1 17 -6z m-913 -36 c10 -9 3 -26
-10 -26 -8 0 -15 7 -15 15 0 13 16 20 25 11z m154 -47 c11 -11 4 -31 -12 -31
-9 0 -17 5 -17 9 0 2 -2 2 -9 1 -18 -4 -18 7 -1 16 4 2 8 4 8 3 0 -1 2 1 5 3
8 6 20 5 26 -1z m1092 -62 l7 -7 -7 -6 c-4 -4 -8 -7 -10 -7 -10 -2 -23 -7 -23
-9 0 -1 -1 -2 -3 -2 -1 0 -5 -3 -9 -7 -10 -10 -17 -14 -29 -14 -12 0 -19 4
-29 14 -4 4 -8 7 -9 7 0 0 -3 1 -4 3 -8 7 -34 9 -40 3 -4 -4 -5 -8 -5 -21 l0
-11 -8 0 -8 0 0 11 c0 16 -3 24 -11 25 -11 2 -62 2 -70 0 -9 -2 -34 -16 -28
-16 0 0 -3 -4 -7 -9 -8 -8 -10 -9 -17 -9 -7 0 -9 1 -17 9 -4 5 -7 9 -7 9 1 0
-2 3 -8 7 -11 8 -25 12 -39 11 -8 -1 -9 0 -15 6 l-7 6 7 7 6 6 192 0 192 0 6
-6z m127 -17 c5 -5 5 -12 1 -17 -2 -3 -3 -8 -3 -18 1 -12 1 -14 6 -19 3 -3 6
-6 6 -7 0 -2 1 -4 3 -5 3 -2 3 -5 2 -14 -2 -15 -10 -40 -15 -44 -9 -8 -21 -3
-26 10 -1 4 -3 8 -4 9 -1 1 -2 3 -2 5 0 9 -10 24 -23 34 -3 2 -8 8 -10 13 l-5
8 4 5 c5 4 16 6 21 2 4 -2 19 0 18 2 -1 1 0 2 1 1 2 -1 4 2 6 5 4 6 4 6 -1 11
-4 5 -4 6 -2 11 5 12 16 16 23 8z m-281 -46 c5 -7 4 -19 -2 -25 -11 -11 -31
-4 -31 12 0 13 4 17 18 17 10 0 12 -1 15 -4z m-274 -48 c7 -6 7 -19 1 -25 -6
-7 -19 -7 -25 -1 -7 6 -7 19 -1 25 6 7 19 7 25 1z m-194 -36 c12 -3 17 -9 17
-21 0 -13 -6 -19 -19 -19 -14 0 -19 6 -19 21 0 12 4 21 9 21 2 0 7 -1 12 -2z
m-621 -242 c1 0 5 -3 8 -6 5 -5 6 -7 6 -18 0 -11 -1 -13 -6 -18 -6 -6 -7 -6
-18 -6 -11 0 -12 0 -18 6 -5 5 -6 7 -6 17 0 14 3 20 12 24 5 2 8 2 22 1z"/>
</g>
</svg>
