<?xml version="1.0" standalone="no"?>
<!DOCTYPE svg PUBLIC "-//W3C//DTD SVG 20010904//EN"
 "http://www.w3.org/TR/2001/REC-SVG-20010904/DTD/svg10.dtd">
<svg version="1.0" xmlns="http://www.w3.org/2000/svg"
 width="1100.000000pt" height="2850.000000pt" viewBox="0 0 1100.000000 2850.000000"
 preserveAspectRatio="xMidYMid meet">
<metadata>
Created by potrace 1.15, written by Peter Selinger 2001-2017
</metadata>
<g transform="translate(0.000000,2850.000000) scale(0.500000,-0.500000)"
fill="#000000" stroke="none">
<path d="M1370 3817 c-14 -3 -13 -3 -59 -11 -41 -8 -36 -7 -65 -14 -14 -3 -33
-7 -42 -8 -19 -2 -27 -5 -37 -15 -7 -7 -19 -25 -23 -35 -1 -4 -3 -8 -4 -9 -5
-6 -5 -25 0 -40 3 -8 5 -15 6 -15 1 0 0 -2 -3 -5 l-5 -6 -43 -1 c-34 -1 -43
-2 -50 -5 -4 -2 -8 -4 -9 -5 -2 -2 -23 -12 -26 -12 -4 0 -24 10 -26 13 -3 3
-25 4 -39 0 -17 -5 -45 -3 -78 4 -22 5 -27 5 -75 5 -45 0 -52 0 -59 -4 -8 -4
-17 -12 -18 -16 0 -2 -1 -6 -3 -9 -3 -7 -3 -9 -1 -20 1 -6 1 -8 -4 -12 -3 -2
-8 -5 -11 -6 -3 0 -7 -2 -9 -3 -1 -1 -4 -4 -7 -6 -3 -2 -8 -9 -11 -15 -5 -11
-5 -11 -5 -65 0 -52 0 -55 -4 -62 -2 -4 -5 -9 -5 -11 -1 -3 -2 -3 -5 0 -4 5
-6 6 -38 7 -33 1 -40 -1 -64 -14 -33 -17 -55 -9 -55 20 1 14 4 20 20 31 7 5
16 18 19 28 3 12 3 168 0 180 -3 9 -14 20 -22 22 -3 1 -6 2 -7 3 -1 1 -5 3 -9
4 -10 3 -14 9 -14 18 0 9 4 15 14 18 4 1 8 3 9 4 1 1 4 2 7 3 3 0 9 4 13 8 8
7 11 19 7 29 -3 6 -14 18 -17 18 -2 0 -3 1 -3 2 0 2 -10 3 -61 3 l-50 0 -9 -6
c-7 -5 -11 -9 -17 -23 -11 -20 -14 -24 -28 -31 -16 -7 -27 -9 -33 -3 -5 5 -5
16 0 21 2 3 3 6 2 10 -1 3 -1 9 -1 13 0 10 -8 19 -18 19 -14 0 -17 -2 -25 -9
-14 -12 -16 -19 -16 -63 0 -37 0 -39 5 -45 7 -11 20 -17 38 -16 19 0 21 -15 8
-54 -5 -12 -7 -14 -22 -22 -13 -8 -25 -18 -25 -24 0 -2 -1 -4 -2 -5 -1 -2 -2
-24 -2 -65 l1 -63 -6 -6 c-6 -5 -8 -6 -19 -6 -18 -1 -40 -12 -40 -20 0 -2 -1
-3 -2 -3 -1 -1 -5 -8 -9 -17 -8 -17 -11 -19 -24 -19 -11 0 -19 4 -20 12 -7 32
-18 47 -37 46 -4 -1 -8 -1 -8 -2 0 -1 -1 -2 -3 -2 -4 0 -14 -12 -18 -21 -5
-11 -5 -231 0 -242 4 -9 14 -21 18 -21 2 0 3 -1 3 -2 0 -2 2 -2 66 -3 l61 -1
5 -6 c5 -4 5 -6 4 -11 -8 -26 -6 -40 5 -52 5 -5 16 -12 23 -14 1 0 4 -1 7 -2
24 -5 24 -45 1 -54 -5 -2 -9 -2 -29 0 -13 1 -26 -3 -33 -12 -12 -12 -22 -55
-17 -69 1 -2 2 -4 2 -5 1 -5 9 -14 18 -21 10 -8 14 -15 14 -28 -1 -17 -8 -25
-25 -27 -10 -1 -30 -7 -35 -11 -13 -10 -15 -26 -4 -38 4 -5 23 -14 29 -14 2 0
6 -3 9 -6 8 -9 8 -24 -1 -32 -7 -8 -22 -9 -30 -3 -4 2 -9 3 -20 3 -14 -1 -15
-1 -22 -8 -8 -8 -8 -8 -5 -25 2 -10 22 -25 32 -25 2 0 6 -3 9 -6 5 -5 6 -7 6
-18 0 -11 -1 -13 -6 -18 -5 -5 -9 -7 -15 -6 -6 1 -42 -5 -49 -8 -19 -10 -29
-21 -45 -51 -7 -14 -17 -32 -21 -39 -10 -17 -13 -31 -10 -42 1 -4 7 -19 14
-32 7 -14 14 -28 16 -32 1 -4 5 -10 7 -13 3 -4 8 -13 11 -21 5 -13 13 -25 16
-28 4 -3 12 -24 15 -38 1 -8 8 -29 15 -47 7 -18 12 -33 12 -34 0 -1 2 -6 6
-10 l5 -8 15 -1 c12 0 16 0 18 3 4 5 16 27 26 49 4 8 10 22 14 30 7 16 16 40
16 44 0 4 15 42 19 47 2 3 3 7 3 10 l0 6 2 -5 c1 -3 2 -4 2 -2 0 1 1 2 2 1 1
-1 2 -2 1 -3 -1 -1 0 -2 1 -2 2 -1 3 -14 4 -51 1 -28 3 -54 4 -59 2 -11 1 -42
-2 -54 -1 -6 -2 -19 -2 -32 1 -29 4 -36 22 -47 21 -14 21 -14 27 -26 7 -14 10
-18 20 -27 21 -19 21 -19 21 -32 0 -10 -1 -13 -5 -18 -10 -11 -32 -9 -40 3 -3
5 -4 9 -5 25 0 5 -1 6 -1 3 -1 -5 -2 -5 -20 -5 -14 0 -19 -1 -19 -2 0 -2 0
-39 0 -83 0 -69 1 -82 3 -88 4 -9 14 -21 18 -21 2 0 3 -1 3 -2 0 -3 12 -3 116
-3 104 0 116 0 116 3 0 1 1 2 3 2 4 0 14 12 18 21 2 6 3 15 3 42 l0 34 6 7 c3
3 6 5 6 4 2 -3 29 -14 40 -16 6 -1 19 -2 29 -2 20 0 22 -1 34 -23 8 -15 20
-29 31 -36 4 -2 8 -5 9 -6 1 0 8 -5 15 -10 12 -9 13 -9 25 -9 12 1 12 1 21 10
6 6 11 13 13 16 1 4 5 10 8 13 6 7 19 32 20 39 1 8 10 34 16 46 9 21 13 32 26
77 20 70 21 77 15 91 -3 7 -19 14 -33 15 -27 2 -69 17 -69 26 0 5 10 13 22 17
7 2 18 6 24 9 13 5 28 5 35 0 6 -4 27 -4 35 0 11 6 13 10 26 89 7 45 8 46 10
64 1 8 2 17 3 20 0 3 1 10 2 15 2 23 3 28 6 35 2 3 4 6 4 6 1 0 1 -1 0 -2 -1
-2 -1 -2 2 0 3 3 3 4 8 -13 12 -43 40 -116 64 -166 15 -32 12 -47 -16 -78 -1
-2 -5 -6 -9 -11 -16 -20 -44 -47 -70 -69 -10 -8 -13 -30 -7 -44 4 -9 4 -24 0
-31 -11 -21 -9 -34 7 -59 17 -26 29 -46 39 -63 10 -20 16 -27 24 -31 8 -4 25
-4 29 0 5 3 8 16 9 33 0 9 0 16 1 16 1 0 2 2 3 4 1 4 1 4 4 1 3 -3 12 -3 28 1
8 2 21 14 21 20 0 6 6 10 23 14 30 8 37 13 65 46 6 7 12 14 13 15 1 1 5 6 8
10 3 4 10 10 16 12 l9 5 5 -4 c5 -5 7 -10 3 -10 -3 0 -1 -32 2 -38 5 -10 27
-26 49 -36 5 -2 9 -5 9 -6 0 -1 1 -2 2 -1 1 1 2 0 3 -1 1 -2 40 -21 57 -28 22
-9 56 -20 81 -26 28 -7 32 -7 59 2 19 7 29 5 47 -9 12 -9 27 -14 42 -15 23 -1
34 12 36 41 1 18 6 23 20 23 12 0 13 -1 24 -21 12 -23 20 -32 38 -38 l14 -6
63 0 64 0 6 6 c3 3 6 6 6 7 -1 0 1 4 2 7 1 3 2 12 2 20 0 19 3 22 23 20 9 0
20 -3 30 -7 19 -7 32 -8 44 -2 9 5 11 8 17 33 6 27 18 68 24 88 4 10 7 20 7
21 0 2 4 11 7 19 11 25 7 41 -12 51 -9 4 -15 4 -28 1 -10 -2 -27 -16 -33 -28
-8 -14 -26 -18 -39 -9 -9 6 -16 8 -32 9 -9 1 -15 1 -17 -1 -4 -4 -20 -3 -27 1
-3 2 -9 7 -13 12 -16 16 -20 17 -114 18 -45 0 -86 1 -92 2 -113 11 -202 41
-258 87 -1 1 -4 3 -7 5 -13 8 -13 28 -1 56 7 17 28 88 34 113 0 1 2 8 4 14 2
6 3 14 3 18 0 6 1 6 2 2 l1 -5 4 6 c3 4 4 11 4 26 1 11 3 31 6 44 6 28 18 105
20 121 1 6 2 16 3 23 4 24 -6 41 -30 53 -14 7 -17 11 -20 22 -5 18 5 35 22 37
3 0 6 1 21 8 9 5 13 8 13 13 l0 5 2 -5 c1 -3 3 -9 5 -13 3 -7 4 -14 5 -55 1
-32 2 -49 4 -53 3 -7 14 -19 17 -19 2 0 3 -1 3 -2 0 -2 9 -3 31 -3 24 0 29 3
48 20 13 12 20 14 28 7 l4 -5 1 -90 1 -90 -6 -6 -6 -6 -68 0 c-68 0 -79 -1
-79 -3 0 -1 -1 -2 -3 -2 -2 0 -11 -9 -19 -19 -4 -5 -5 -10 -4 -14 0 -2 1 -44
2 -94 1 -68 2 -91 4 -96 3 -7 14 -19 17 -19 2 0 3 -1 3 -2 0 -2 10 -3 48 -3
34 0 38 0 45 4 5 3 10 6 12 8 5 5 16 11 21 11 5 0 16 -6 21 -11 10 -9 27 -12
37 -6 21 12 27 30 22 60 -3 17 -1 24 9 34 3 3 5 7 6 9 1 4 16 11 23 10 16 -2
15 -19 -1 -37 -10 -12 -11 -17 -10 -32 1 -8 2 -15 4 -17 7 -10 35 -17 49 -12
11 4 21 2 45 -10 20 -10 23 -11 38 -12 20 -1 33 3 37 11 2 5 2 8 5 24 0 2 0 5
-2 7 -2 3 -2 24 1 29 1 2 7 8 13 13 7 5 12 10 13 11 0 0 2 1 3 1 2 0 3 1 3 2
0 1 3 3 6 5 13 8 14 28 0 50 -12 19 -3 40 18 40 15 0 23 -8 23 -23 0 -7 -2
-11 -4 -14 -2 -3 -4 -8 -4 -17 -1 -14 1 -19 9 -32 6 -10 6 -24 0 -33 -3 -4
-11 -13 -19 -21 l-14 -14 1 -11 c4 -26 9 -29 57 -27 36 1 37 1 37 3 0 1 1 2 3
2 4 0 14 12 18 21 4 11 5 181 0 196 -4 14 -10 21 -22 26 -11 5 -11 5 -69 5
l-59 -1 -6 6 -6 6 1 46 c0 43 0 47 -4 55 -4 9 -12 20 -15 20 -1 0 -4 2 -6 4
-3 2 -11 6 -19 8 -19 6 -23 11 -19 25 3 9 13 23 17 23 1 0 4 3 7 7 8 10 8 32
0 43 -7 11 -7 26 1 34 8 9 26 9 34 0 7 -7 9 -24 2 -32 -13 -18 -13 -43 1 -52
3 -3 7 -6 8 -7 4 -4 14 -10 21 -13 11 -5 78 -4 78 0 0 1 1 2 3 2 4 0 14 12 18
20 4 11 4 196 0 207 -4 9 -14 21 -18 21 -2 0 -3 1 -3 2 0 2 -1 2 -44 3 -33 1
-41 1 -46 -2 -6 -3 -6 -3 -13 5 -5 7 -6 9 -5 12 1 2 2 33 2 74 l0 70 6 7 c3 4
6 6 6 6 2 -1 57 10 94 19 49 12 54 16 54 38 0 10 -1 12 -4 14 -8 3 -14 5 -28
6 -11 1 -13 2 -17 7 -4 5 -4 5 0 12 2 4 6 9 8 10 12 8 20 32 14 43 -3 5 -41
89 -43 94 -5 15 -18 25 -33 28 -9 2 -13 1 -33 -5 -13 -4 -25 -8 -28 -8 -3 -1
-8 -2 -11 -3 -3 -1 -15 -4 -26 -7 -11 -3 -23 -6 -27 -7 -4 -1 -22 -5 -39 -9
-51 -11 -56 -14 -75 -39 -8 -11 -24 -11 -46 0 -17 9 -28 11 -45 8 -13 -3 -77
-12 -87 -13 -5 -1 -10 -2 -12 -2 -7 -2 -32 -4 -47 -4 -20 0 -26 3 -46 21 -8 8
-17 14 -19 15 -2 1 -4 2 -4 3 0 1 -1 2 -2 2 -1 0 -4 2 -7 5 -3 3 -6 5 -7 5 -1
0 -4 2 -7 5 -21 18 -44 21 -73 9 -29 -11 -34 -12 -79 -14 -40 -1 -42 -1 -50
-6 -9 -6 -18 -15 -22 -22 -5 -9 -13 -14 -21 -14 -8 0 -16 5 -21 14 -12 23 -43
35 -55 21 -3 -2 -4 -3 -4 -1 0 1 -2 5 -4 9 -7 8 -9 43 -3 47 3 2 5 16 2 19 -1
0 -2 2 -2 4 -1 4 -7 12 -13 17 -3 2 -5 5 -5 7 1 1 1 1 -1 0 -2 -1 -8 6 -8 12
0 2 2 7 4 11 7 14 25 19 48 12 9 -2 27 1 31 5 5 5 6 22 2 34 -7 24 -2 35 16
35 13 0 19 -6 19 -19 0 -11 5 -29 9 -38 6 -10 11 -13 54 -22 3 -1 7 -3 9 -6 4
-3 8 -4 16 -5 14 0 21 2 30 12 9 10 20 13 32 10 16 -3 22 -16 18 -36 -2 -7 -2
-14 -1 -17 1 -3 2 -6 2 -7 2 -6 4 -10 10 -14 l6 -5 127 -1 c111 0 128 0 135 3
8 3 19 12 20 17 0 2 1 6 3 9 1 3 3 11 4 17 3 16 8 20 25 20 l13 0 14 -13 c9
-8 20 -16 32 -22 9 -5 19 -10 20 -12 14 -13 30 -16 51 -10 14 4 20 4 43 -3 24
-7 28 -7 40 -1 10 4 17 17 18 29 1 9 -12 37 -18 39 -2 1 -4 2 -4 3 0 1 -4 4
-9 6 -6 3 -13 8 -16 11 -6 6 -7 8 -7 18 0 19 12 26 36 23 5 -1 11 -7 10 -13 0
-7 9 -24 15 -30 4 -5 20 -12 28 -14 18 -3 23 -11 24 -34 1 -19 7 -32 18 -39 8
-4 10 -4 36 -3 32 1 33 1 33 3 0 1 1 2 3 2 3 0 14 12 18 20 2 6 2 24 3 99 l0
92 -5 10 -5 11 -15 0 c-15 1 -15 1 -22 -6 -17 -19 -36 -18 -54 2 -5 6 -9 9 -9
9 0 -1 -1 0 -3 2 -3 4 -6 4 -26 4 -19 0 -23 -1 -27 -4 -6 -4 -9 -10 -8 -13 0
-1 -1 -2 -2 -2 -1 0 -1 -4 0 -8 1 -5 1 -9 0 -9 -5 -3 18 -10 30 -9 21 2 35 -2
37 -10 2 -8 -1 -28 -4 -33 -5 -8 -11 -10 -27 -10 -16 1 -16 1 -26 19 -7 13
-21 19 -40 18 -25 -2 -34 3 -37 18 -1 10 -10 28 -15 33 -1 1 -7 5 -12 7 -8 4
-9 5 -20 2 -11 -2 -31 -13 -29 -16 1 -1 0 -2 -1 -2 -1 0 -3 -2 -4 -5 -4 -7
-14 -13 -22 -13 -7 0 -21 7 -28 13 -7 7 -28 18 -36 20 -17 3 -30 -5 -41 -27
-8 -16 -11 -18 -24 -18 -13 0 -19 6 -19 19 0 10 5 22 12 25 6 3 14 22 14 32 0
13 -33 101 -44 117 -10 15 -30 21 -54 16z m-19 -108 c6 -5 9 -17 6 -30 -1 -6
-3 -8 -14 -15 -15 -11 -24 -19 -29 -30 -5 -11 -19 -24 -24 -24 -2 0 -4 -1 -6
-2 -2 -2 -2 -2 -1 0 1 1 0 2 -1 2 -3 0 -10 16 -10 23 0 7 4 14 14 23 9 7 18
25 22 41 3 13 9 17 25 17 10 0 14 -1 18 -5z m-933 -50 c3 -3 4 -7 4 -14 0 -13
-6 -19 -19 -19 -13 0 -19 6 -19 19 0 7 1 11 4 14 7 8 23 8 30 0z m339 -79 c3
-2 7 -7 9 -13 2 -5 5 -12 6 -14 1 -2 5 -10 7 -19 5 -13 5 -16 3 -24 -3 -14
-14 -22 -29 -21 -24 1 -31 13 -26 50 2 12 3 26 2 30 0 4 0 9 1 10 4 7 18 8 27
1z m440 -2 c4 -6 4 -24 -1 -30 -7 -9 -27 -9 -34 0 -5 6 -5 24 0 30 7 9 27 9
35 0z m84 0 c2 -6 26 -30 37 -35 13 -8 17 -14 15 -24 -3 -15 -19 -17 -40 -5
-8 5 -19 11 -26 14 -17 8 -22 13 -22 26 0 12 5 17 18 24 9 4 17 5 18 0z m135
-54 c1 0 5 -3 8 -6 5 -5 6 -7 6 -18 0 -11 -1 -13 -6 -18 -6 -6 -7 -6 -18 -6
-11 0 -12 0 -18 6 -5 5 -6 7 -6 17 0 14 3 20 12 24 5 2 8 2 22 1z m-559 -12
c10 -9 3 -26 -10 -26 -8 0 -15 7 -15 15 0 13 16 20 25 11z m-264 -140 c4 -3 7
-5 7 -6 0 -2 15 -17 25 -25 4 -4 7 -8 7 -10 0 -3 1 -3 2 -2 0 2 5 3 10 3 6 1
8 2 8 4 0 2 1 -1 2 -5 2 -8 0 -32 -2 -27 -1 2 -4 3 -9 4 -4 0 -9 1 -9 3 -1 1
-2 1 -2 -1 0 -5 -6 -8 -15 -8 -9 0 -14 3 -21 14 -2 3 -6 7 -9 8 -7 5 -29 8
-35 6 -7 -3 -10 -2 -14 3 -10 9 4 27 30 39 10 5 16 5 25 0z m-254 -45 c6 -4 6
-6 6 -20 0 -14 0 -16 -6 -20 -4 -4 -7 -5 -18 -5 -11 0 -14 1 -18 5 -6 4 -6 6
-6 20 0 14 0 16 6 20 4 4 7 5 18 5 11 0 14 -1 18 -5z m-125 -16 c10 -5 14 -25
8 -39 -6 -14 -47 -26 -64 -19 -17 7 -22 30 -11 47 7 13 50 20 67 11z m1061
-11 c4 -6 4 -24 -1 -30 -7 -9 -27 -9 -34 0 -5 6 -5 24 0 30 7 9 27 9 35 0z
m-451 -13 c12 -5 18 -21 14 -35 -4 -15 -11 -20 -28 -21 -5 -1 -19 -4 -31 -8
-13 -4 -25 -7 -28 -7 -9 0 -15 7 -15 17 0 10 4 14 19 23 11 6 18 11 28 21 12
12 27 15 41 10z m325 -12 c4 -4 5 -7 5 -15 0 -14 -6 -20 -20 -20 -14 0 -20 6
-20 20 0 14 6 20 20 20 8 0 11 -1 15 -5z m-572 -10 c4 -6 4 -18 -1 -30 -2 -6
-4 -13 -5 -15 0 -3 -2 -10 -3 -16 -5 -25 -2 -47 8 -57 5 -6 21 -5 28 2 4 4 11
15 9 15 0 0 0 4 2 8 2 4 2 9 2 11 -2 4 3 19 6 23 2 2 8 6 14 9 5 3 12 7 14 9
3 2 4 2 12 -6 13 -14 15 -26 7 -56 l-6 -23 0 -81 c-1 -45 0 -83 0 -85 2 -5 10
-23 16 -34 9 -15 4 -39 -9 -48 -5 -3 -12 -4 -20 -3 -5 0 -18 15 -20 22 -11 35
-14 42 -25 58 -6 9 -15 20 -20 24 -8 6 -10 6 -21 6 -9 -1 -12 -2 -17 -7 -9
-11 -6 -31 7 -41 20 -16 25 -26 21 -42 -4 -17 -12 -20 -55 -20 -46 1 -44 -1
-42 76 0 15 0 28 -1 29 0 1 -1 3 -1 4 -4 22 -18 52 -29 63 -4 4 -11 9 -17 12
-13 7 -17 12 -25 30 -9 24 -18 31 -43 35 -22 3 -29 8 -29 24 0 13 2 16 19 24
13 6 29 19 29 26 0 1 1 3 1 4 0 5 11 13 14 12 7 -2 10 -9 6 -12 -1 -1 -4 -5
-5 -8 -4 -10 -1 -39 4 -43 1 -1 3 -4 5 -8 2 -4 5 -8 6 -10 2 -1 3 -3 2 -4 -1
-1 0 -2 1 -2 1 0 5 -3 9 -7 8 -7 12 -9 33 -19 6 -2 13 -7 17 -10 6 -6 9 -7 21
-8 19 -1 25 3 32 21 1 2 3 7 4 10 3 8 2 21 -3 40 -6 21 -6 30 2 49 2 7 5 17 6
21 1 4 2 9 2 11 0 2 1 5 1 8 0 16 28 23 37 9z m-120 3 c7 -6 7 -20 1 -25 -6
-6 -22 -8 -29 -5 -7 4 -8 10 -3 19 2 4 3 7 3 7 -1 0 1 2 3 4 7 5 19 5 25 0z
m467 -18 c3 -3 8 -15 8 -21 0 -7 -5 -19 -8 -21 -1 0 -2 -2 -2 -5 0 -2 -1 -3
-1 -1 -1 3 -19 10 -25 10 -6 0 -12 8 -12 17 0 8 6 17 12 17 7 0 24 7 24 10 0
2 1 2 1 -1 1 -2 2 -4 3 -5z m675 1 c3 -5 3 -5 0 -10 -2 -3 -5 -5 -7 -5 -2 0
-5 2 -7 5 -3 5 -3 5 0 10 2 3 5 5 7 5 2 0 5 -2 7 -5z m-1314 -24 c3 -5 3 -5 0
-10 -2 -3 -5 -5 -7 -5 -2 0 -5 2 -7 5 -3 5 -3 5 0 10 2 3 5 5 7 5 2 0 5 -2 7
-5z m762 -40 c13 -8 14 -35 2 -44 -4 -4 -8 -5 -19 -5 -11 0 -15 1 -19 5 -10 8
-11 32 -1 42 7 7 27 8 37 2z m160 -5 c7 -6 7 -19 1 -25 -6 -7 -19 -7 -25 -1
-7 6 -7 19 -1 25 6 7 19 7 25 1z m302 -20 c-1 -14 -5 -19 -17 -21 -9 -2 -18
-5 -18 -7 0 -1 -3 -5 -7 -10 -7 -7 -8 -9 -8 -17 0 -6 1 -11 2 -13 1 -2 1 -2
-1 -1 -3 2 -2 0 3 -5 5 -6 7 -7 18 -6 9 0 20 5 24 11 8 12 13 24 13 30 0 12 8
14 18 4 7 -7 7 -11 0 -39 -11 -42 2 -80 40 -119 15 -14 16 -16 16 -23 0 -10
-5 -19 -13 -23 -4 -2 -7 -5 -7 -5 0 -1 -6 -4 -13 -6 -12 -4 -13 -4 -20 -1 -4
2 -7 4 -7 5 0 6 -15 22 -24 27 -10 6 -88 6 -88 1 0 -1 -1 -2 -2 -2 -2 0 -4 -1
-6 -3 -2 -2 -8 -3 -15 -3 -6 -1 -11 -2 -11 -3 0 -1 -1 0 -2 2 -3 9 -19 13 -56
17 -54 6 -55 8 -41 37 5 11 9 20 9 20 0 1 3 7 6 13 12 28 34 82 51 126 2 5 5
11 6 12 5 4 11 -3 13 -15 1 -5 3 -10 4 -11 1 -1 2 -3 2 -5 1 -2 2 -4 3 -4 2 1
2 -1 1 -6 -1 -5 0 -9 3 -16 5 -13 11 -18 24 -22 16 -5 20 -1 21 20 1 14 1 15
-3 16 -8 2 -14 14 -12 26 2 19 9 24 32 23 11 0 22 2 35 5 17 4 19 4 24 1 3 -2
4 -4 3 -10z m-474 -41 c0 -9 1 -16 2 -17 1 0 3 -1 5 -2 1 -2 4 -3 7 -3 2 0 5
-1 6 -1 3 0 16 -12 13 -12 -1 0 -2 -1 -2 -3 0 -4 -28 -68 -47 -107 -19 -39
-31 -58 -59 -85 l-12 -13 -5 4 c-3 3 -4 7 -5 27 -2 25 -3 29 -14 52 -10 19 -9
27 6 52 8 14 10 25 10 50 0 21 1 25 4 31 2 4 5 9 5 11 1 3 2 3 5 0 2 -2 4 -4
6 -5 7 -2 53 -2 57 1 2 1 5 2 6 2 1 0 2 7 2 17 0 16 0 16 5 16 5 0 5 0 5 -15z
m631 -3 c1 0 5 -3 8 -6 5 -5 6 -7 6 -18 0 -11 -1 -13 -6 -18 -6 -6 -7 -6 -18
-6 -11 0 -12 0 -18 6 -5 5 -6 7 -6 17 0 14 3 20 12 24 5 2 8 2 22 1z m-421
-63 c4 -4 5 -7 5 -15 0 -14 -6 -20 -20 -20 -14 0 -20 6 -20 20 0 14 6 20 20
20 8 0 11 -1 15 -5z m-454 -70 c3 -2 7 -7 9 -11 2 -4 12 -15 21 -24 17 -17 18
-19 17 -32 0 -6 -8 -14 -14 -14 -13 -1 -15 0 -32 17 -9 9 -20 19 -24 21 -16 9
-20 29 -9 40 8 8 22 9 32 3z m-474 -32 c12 -7 14 -33 3 -43 -8 -9 -32 -9 -40
0 -9 8 -9 32 0 41 7 7 27 8 37 2z m1456 -20 c4 -4 7 -13 6 -15 -1 -1 -2 -7 -2
-13 -2 -22 -9 -27 -34 -25 -2 0 -6 3 -9 6 -5 5 -6 7 -6 18 0 17 6 23 33 30 9
2 8 2 12 -1z m-696 -51 c7 -3 16 -10 30 -22 13 -11 39 -13 51 -5 5 3 55 13 65
13 22 0 37 -23 31 -46 -1 -5 -6 -12 -17 -22 -16 -17 -18 -21 -20 -46 -2 -24
-6 -27 -29 -25 -13 1 -20 4 -20 9 0 2 2 8 4 14 6 16 4 34 -7 49 -2 3 -7 9 -10
14 -3 4 -10 10 -15 12 -10 5 -31 8 -34 4 0 -1 -5 -4 -11 -7 -6 -3 -17 -12 -26
-21 -12 -13 -19 -18 -29 -23 -14 -6 -28 -10 -32 -10 -4 1 -10 8 -10 11 0 7 7
22 15 35 13 21 29 52 29 58 0 1 2 4 5 7 6 6 21 7 30 1z m552 -37 l6 -5 0 -27
c0 -29 1 -35 6 -44 4 -8 4 -25 -1 -31 -7 -9 -27 -9 -34 0 -3 3 -4 8 -4 21 0
18 -3 31 -11 47 -7 15 -7 32 2 39 8 7 28 7 36 0z m-874 -20 c6 -5 6 -9 1 -14
-9 -9 -24 3 -17 14 4 6 9 6 16 0z m67 -30 c6 -7 6 -22 -1 -28 -6 -7 -21 -7
-28 -1 -4 4 -9 16 -9 23 0 11 29 16 38 6z m-497 -9 c5 -5 6 -7 6 -16 0 -15 -8
-23 -23 -23 -9 0 -11 1 -16 7 -9 8 -9 23 -1 32 9 9 24 9 34 0z m1547 -6 c5 -6
5 -12 0 -18 -7 -8 -22 -2 -22 9 0 11 15 17 22 9z m-1191 -24 c4 -6 4 -24 -1
-30 -7 -9 -27 -9 -34 0 -5 6 -5 24 0 30 7 9 27 9 35 0z m263 2 c0 -1 7 -16 16
-34 8 -17 17 -35 19 -39 5 -13 11 -17 28 -17 l15 0 8 10 c7 8 13 13 27 23 27
21 72 30 87 18 3 -3 7 -5 9 -5 4 0 4 0 0 -2 -1 -1 -3 -3 -2 -4 1 -1 0 -2 -1
-2 -4 0 1 -15 7 -18 11 -5 20 -8 28 -8 15 0 23 -15 13 -25 -5 -5 -17 -7 -19
-3 -1 2 -15 3 -25 0 -14 -3 -21 -13 -25 -39 -1 -8 -8 -16 -11 -14 -1 1 -5 7
-8 14 -8 17 -18 25 -35 25 -4 0 -38 -12 -76 -26 l-70 -25 -4 4 c-7 6 -21 46
-21 58 -1 10 2 17 14 37 7 12 10 22 11 40 1 18 4 28 9 32 3 3 6 3 6 0z m-535
-31 c5 -8 1 -16 -8 -16 -9 0 -13 8 -8 16 2 3 5 5 8 5 3 0 6 -2 8 -5z m202 -40
c2 -3 5 -7 7 -8 1 -2 2 -4 2 -5 0 -3 12 -14 15 -14 3 0 6 -3 8 -8 6 -12 5 -28
-1 -84 -4 -31 2 -42 27 -55 17 -8 16 -5 19 -46 l3 -29 -5 -5 c-5 -5 -16 -7
-22 -3 -3 2 -26 -1 -31 -5 -9 -6 -11 -12 -19 -53 -10 -54 -16 -83 -25 -116 -9
-35 -8 -32 -18 -66 -12 -38 -14 -44 -20 -61 -3 -7 -5 -16 -5 -19 0 -3 -1 -4
-1 -1 -1 1 -3 3 -4 3 -2 0 -3 1 -2 2 1 1 0 2 -1 2 -2 1 -3 9 -3 21 -2 36 -8
45 -29 46 l-12 0 -7 -12 c-5 -7 -9 -14 -11 -17 -1 -3 -5 -8 -8 -11 -13 -13
-38 -4 -38 13 -1 14 0 15 15 32 8 9 17 20 18 23 6 11 14 17 24 17 12 0 30 5
37 11 10 8 12 29 6 70 -1 11 -1 19 0 28 1 8 3 47 3 88 1 86 1 87 -15 111 -9
13 -10 16 -10 26 0 8 1 13 5 18 2 4 7 12 10 17 3 6 8 16 9 24 3 12 14 33 14
28 0 -3 13 -9 18 -9 6 0 16 6 20 12 4 7 5 24 2 33 -1 5 -1 7 3 10 4 5 4 5 11
1 4 -2 9 -6 11 -9z m-244 -66 c7 -9 2 -20 -12 -26 -39 -17 -55 -19 -65 -9 -5
5 -6 7 -6 17 0 22 8 25 55 23 22 -1 26 -1 28 -5z m913 -54 c3 -3 4 -7 4 -14 0
-13 -6 -19 -19 -19 -13 0 -19 6 -19 19 0 7 1 11 4 14 7 8 23 8 30 0z m-458
-23 c9 -9 4 -21 -14 -34 -29 -21 -54 -18 -54 5 0 16 4 20 32 28 19 6 31 6 36
1z m-390 -44 c3 -4 7 -10 9 -13 4 -10 12 -18 27 -27 18 -11 20 -14 20 -28 0
-15 -7 -22 -22 -22 -14 0 -18 3 -26 18 -4 6 -10 15 -13 20 -7 7 -8 8 -18 8 -8
0 -12 -1 -15 -4 -5 -5 -20 -27 -20 -30 0 -6 -16 -14 -27 -13 -16 1 -23 6 -27
21 -5 19 6 35 25 37 18 1 36 13 45 27 11 17 29 20 42 6z m650 -47 l-5 -5 -4 4
-5 5 4 4 5 5 4 -4 5 -5 -4 -4z m501 -5 c4 -6 4 -27 0 -32 -6 -6 -28 -6 -34 1
-6 6 -7 24 -1 31 7 9 27 9 35 0z m-1473 -10 c7 -7 3 -18 -6 -20 -5 -1 -14 7
-14 12 2 11 13 15 20 8z m1346 -9 c2 -2 4 -7 5 -11 1 -4 2 -7 2 -8 1 -1 2 -10
3 -20 3 -30 -1 -40 -18 -44 -17 -4 -31 3 -34 17 -3 15 5 58 13 66 6 8 22 8 29
0z m-1095 -95 c9 -5 23 -10 31 -11 26 -6 31 -11 31 -30 0 -19 -9 -28 -28 -28
-13 0 -20 4 -31 19 -5 8 -12 14 -14 15 -2 1 -4 2 -4 3 0 1 -1 2 -2 2 -2 0 -8
5 -15 12 -6 6 -6 15 -1 21 7 7 13 6 33 -3z m791 -35 c8 -9 3 -31 -11 -46 -9
-10 -12 -21 -13 -52 0 -12 -6 -19 -18 -19 -6 0 -9 1 -13 5 -8 8 -6 19 6 43 5
11 10 23 10 26 4 33 6 40 10 44 7 7 22 6 29 -1z m59 -87 c3 -2 6 -8 7 -13 4
-15 14 -32 21 -38 11 -9 13 -11 22 -29 5 -9 11 -18 12 -19 2 -2 3 -4 3 -5 0
-1 3 -6 7 -12 4 -6 7 -11 7 -12 0 -5 12 -14 22 -17 13 -4 52 -4 71 0 28 6 42
-3 42 -26 0 -19 -10 -28 -29 -28 -8 1 -13 2 -24 10 -8 4 -21 11 -28 14 l-12 6
-26 -3 c-34 -3 -35 -3 -39 30 -1 8 -6 20 -11 24 -5 6 -21 14 -29 15 -9 2 -16
9 -16 17 0 8 -5 22 -7 22 -1 0 -2 1 -2 3 0 3 -17 19 -20 19 -4 0 -10 14 -10
24 0 15 7 22 23 22 8 0 12 -1 16 -4z m-461 -77 c21 -9 20 -45 -2 -54 -10 -5
-28 -1 -34 6 -9 10 -9 32 0 42 7 8 24 11 36 6z m975 -17 c7 -6 7 -19 1 -25 -6
-7 -19 -7 -25 -1 -7 6 -7 19 -1 25 6 7 19 7 25 1z m-1070 -47 c6 -4 6 -6 6
-20 0 -27 -8 -29 -57 -20 -32 6 -36 9 -36 23 0 12 5 15 34 19 35 4 47 4 53 -2z
m1131 -24 c3 -3 4 -7 4 -14 0 -13 -6 -19 -19 -19 -13 0 -19 6 -19 19 0 7 1 11
4 14 7 8 23 8 30 0z m-797 -24 c3 -2 3 -4 2 -5 -2 0 -3 -3 -3 -5 l-1 -4 -2 4
c-1 2 -3 5 -4 5 -1 1 0 3 1 5 4 4 4 4 7 0z m-621 -9 c5 -5 5 -11 0 -16 -10
-10 -27 5 -16 16 4 5 11 5 16 0z"/>
<path d="M497 3077 c-4 -2 -10 -7 -11 -11 -3 -12 -3 -16 -1 -24 5 -15 9 -18
27 -18 17 1 22 4 23 18 2 8 -5 27 -12 33 -3 3 -17 4 -26 2z"/>
<path d="M969 3450 c-2 -1 -7 -2 -10 -2 -4 0 -5 -1 -2 -1 2 -1 3 -4 3 -16 l0
-15 7 -3 c12 -5 16 -5 25 -2 10 4 13 9 12 23 0 9 1 12 2 12 2 0 -2 2 -8 3 -12
3 -23 4 -29 1z"/>
</g>
</svg>
