<?xml version="1.0" standalone="no"?>
<!DOCTYPE svg PUBLIC "-//W3C//DTD SVG 20010904//EN"
 "http://www.w3.org/TR/2001/REC-SVG-20010904/DTD/svg10.dtd">
<svg version="1.0" xmlns="http://www.w3.org/2000/svg"
 width="1100.000000pt" height="2850.000000pt" viewBox="0 0 1100.000000 2850.000000"
 preserveAspectRatio="xMidYMid meet">
<metadata>
Created by potrace 1.15, written by Peter Selinger 2001-2017
</metadata>
<g transform="translate(0.000000,2850.000000) scale(0.500000,-0.500000)"
fill="#000000" stroke="none">
<path d="M316 3812 c-3 -1 -6 -1 -7 0 0 0 -1 0 -1 -2 0 -1 -1 -2 -3 -2 -4 0
-14 -12 -18 -21 -3 -7 -3 -26 -3 -181 l1 -173 -6 -6 -6 -6 -86 0 c-87 0 -97
-1 -97 -3 0 -1 -1 -2 -3 -2 -4 0 -14 -12 -18 -21 -5 -11 -5 -231 0 -242 4 -9
14 -21 18 -21 2 0 3 -1 3 -2 0 -2 2 -2 55 -3 63 -2 62 -2 88 28 10 12 15 12
27 0 4 -4 8 -16 9 -30 2 -21 -45 -179 -87 -295 -32 -86 -83 -202 -112 -253 -3
-5 -6 -12 -8 -14 -1 -2 -3 -10 -5 -17 -4 -16 -7 -21 -17 -28 -13 -8 -19 -27
-15 -44 2 -8 4 -13 27 -53 8 -14 16 -27 18 -30 3 -6 18 -22 29 -29 11 -7 12
-12 15 -38 1 -14 3 -25 6 -31 2 -5 9 -20 14 -33 5 -14 11 -26 13 -28 4 -4 30
-5 34 -2 5 4 15 20 35 56 19 35 56 112 56 119 0 4 0 4 2 0 1 -2 2 -3 2 -2 0 1
2 0 4 -3 3 -5 3 -21 4 -244 1 -191 2 -240 4 -245 3 -7 14 -19 17 -19 2 0 3 -1
3 -2 0 -3 13 -3 125 -3 112 0 125 0 125 3 0 1 1 2 3 2 4 0 14 12 18 21 4 10 5
177 1 189 -4 13 -12 20 -28 28 -17 8 -20 12 -20 22 0 10 3 14 20 22 17 9 24
16 28 29 3 11 2 264 -2 283 -3 21 0 42 8 54 6 8 7 9 9 6 2 -4 4 -6 18 -16 15
-11 17 -17 18 -39 1 -28 3 -34 10 -49 8 -15 9 -16 28 -16 14 0 17 2 27 20 3 6
8 15 10 20 15 27 20 35 30 55 6 12 12 23 13 24 2 0 3 2 3 3 0 1 12 24 27 51
15 27 27 50 27 50 0 1 2 5 5 9 8 13 9 30 3 43 -5 10 -21 33 -35 50 -4 4 -7 9
-7 10 0 2 -1 3 -2 3 -1 0 -6 6 -11 13 -5 7 -10 14 -12 16 -1 1 -6 7 -11 14 -5
7 -10 13 -11 14 -1 1 -5 6 -8 10 -3 4 -6 8 -7 9 -1 1 -6 7 -11 14 -5 7 -11 14
-13 16 -1 1 -6 8 -11 14 -4 6 -9 12 -10 13 -2 2 -15 18 -23 30 -2 2 -5 6 -7 9
-3 3 -5 6 -5 6 0 1 -4 6 -8 11 -4 5 -8 10 -8 12 0 1 -2 4 -5 6 -23 14 -26 23
-27 90 l-1 54 6 6 c4 4 7 6 8 6 0 -1 21 -1 45 -1 l46 0 6 -6 c3 -3 6 -6 5 -6
-1 -1 -10 -13 -20 -28 -10 -14 -25 -37 -35 -50 -10 -13 -19 -25 -20 -28 -3 -5
-4 -32 -2 -33 1 -1 2 -3 2 -4 0 -2 6 -9 12 -15 7 -6 14 -12 15 -13 1 -2 7 -8
13 -15 31 -33 87 -103 106 -132 7 -11 17 -15 31 -14 11 1 12 2 20 11 5 6 9 11
9 13 0 5 8 -6 10 -14 1 -4 2 -112 2 -302 0 -286 0 -295 4 -305 2 -6 7 -13 10
-17 8 -8 14 -19 14 -25 0 -6 -6 -17 -14 -25 -13 -15 -14 -17 -14 -111 0 -73 0
-85 3 -92 4 -9 14 -21 18 -21 2 0 3 -1 3 -2 0 -2 2 -2 67 -3 l62 -1 22 8 c13
4 25 8 27 8 2 0 14 -4 27 -8 17 -6 23 -8 28 -7 3 1 7 2 8 1 0 0 1 1 1 2 0 1 1
2 3 2 3 0 14 12 17 19 2 4 3 25 4 79 1 72 1 72 6 76 2 2 4 5 4 6 0 2 2 0 5 -4
3 -4 9 -10 13 -15 5 -5 16 -16 24 -25 8 -9 17 -19 20 -22 2 -3 8 -9 12 -14 4
-5 12 -14 18 -20 l10 -11 16 0 15 0 23 18 c12 10 31 25 41 34 34 30 46 40 55
49 39 37 39 38 45 37 8 -1 10 -4 24 -32 41 -81 89 -135 147 -163 16 -8 22 -9
64 -15 4 0 12 -2 18 -3 17 -4 58 0 91 8 40 11 79 35 108 68 9 11 17 22 17 24
0 1 1 2 2 2 1 1 20 33 20 35 0 1 3 8 7 16 18 38 35 104 46 173 11 69 14 98 11
108 -5 19 -13 27 -40 41 -8 5 -18 10 -21 12 -4 2 -12 7 -19 12 -11 6 -59 40
-65 46 -2 1 -5 4 -7 6 -12 9 -32 27 -39 34 -5 5 -9 8 -9 8 -1 0 -7 -1 -13 -1
-11 -1 -14 -1 -18 -6 -7 -8 -9 -14 -9 -40 0 -14 -1 -30 -1 -36 0 -6 -1 -22 -2
-36 -3 -59 -10 -122 -18 -151 -3 -12 -10 -18 -18 -15 -12 5 -36 74 -50 144 -7
34 -6 36 30 91 8 12 16 26 19 30 3 4 6 9 7 11 1 2 4 7 7 12 2 4 8 14 13 22 4
7 11 18 14 24 4 6 8 14 10 18 28 47 81 151 110 213 3 6 8 18 13 28 4 9 10 22
12 28 2 5 6 13 7 16 22 49 25 57 23 68 -3 21 -13 28 -52 38 -12 3 -22 6 -24 6
-2 1 -18 5 -37 10 -19 5 -36 9 -38 10 -2 0 -16 4 -30 8 -64 17 -68 18 -79 15
-6 -1 -14 -5 -18 -7 -5 -5 -6 -6 -6 -16 0 -13 7 -23 22 -32 12 -7 17 -16 17
-29 0 -10 -6 -24 -10 -24 -1 0 -4 -1 -5 -3 -3 -3 -12 -3 -27 0 -5 1 -23 -3
-26 -5 -2 -1 -4 1 -8 8 -5 10 -6 16 -8 41 -4 66 -4 60 1 65 6 7 25 11 44 9 11
0 15 0 24 4 6 3 16 5 21 6 6 1 14 2 18 3 4 1 13 2 18 3 6 1 26 4 46 7 20 3 40
7 44 7 4 1 19 3 32 5 13 2 27 5 32 5 52 7 67 15 73 39 3 12 -1 33 -10 48 -14
25 -16 33 -13 48 4 17 3 33 -2 57 0 3 -1 8 -2 12 -3 19 -7 43 -9 49 -7 23 -29
36 -49 27 -16 -7 -21 -8 -38 -8 -15 0 -20 1 -26 4 -5 3 -9 4 -10 3 -1 0 -1 1
1 2 1 2 5 5 8 7 5 2 41 21 72 38 10 5 28 14 39 20 11 6 23 13 27 16 13 11 18
32 11 48 -2 5 -4 10 -5 12 -3 6 -16 37 -22 51 -23 50 -36 72 -50 85 -9 10 -13
17 -20 40 -5 17 -27 56 -51 92 -13 20 -22 27 -38 27 -9 1 -17 -3 -89 -39 l-79
-40 -5 6 c-3 5 -4 10 -4 25 -1 19 -2 20 -7 26 -8 9 -18 11 -43 10 -9 0 -18 5
-18 11 0 5 -13 28 -19 32 -12 9 -16 9 -99 9 -88 0 -93 -1 -105 -12 -14 -14
-14 -7 -12 -201 1 -179 2 -251 4 -263 1 -4 3 -10 5 -12 5 -5 20 -12 26 -13 2
0 4 -1 5 -2 0 -2 2 -2 4 -2 4 2 11 -2 11 -7 0 -1 1 -5 3 -8 6 -13 5 -31 -3
-39 -5 -5 -17 -7 -43 -7 -12 0 -27 -1 -32 -2 -6 -1 -14 -2 -18 -3 -4 -1 -12
-2 -17 -3 -5 -1 -14 -2 -19 -3 -6 -1 -21 -3 -35 -5 -14 -3 -27 -4 -29 -4 -3 0
-5 -1 -5 -2 0 -1 -3 1 -6 4 l-6 6 0 59 c1 69 0 61 27 127 28 67 58 145 79 207
5 13 10 27 11 31 13 34 21 64 21 72 -1 17 -15 34 -32 37 -3 0 -7 1 -9 2 -8 2
-103 25 -157 39 -62 15 -64 15 -76 11 -18 -6 -22 -14 -34 -56 -5 -17 -11 -40
-15 -53 -4 -13 -9 -27 -10 -32 -2 -6 -4 -15 -6 -20 -10 -34 -10 -31 -5 -53 3
-11 5 -22 5 -23 0 -2 -1 -6 -1 -8 0 -4 -15 -20 -19 -20 -1 0 -7 -5 -13 -12
-10 -10 -12 -15 -21 -36 -11 -30 -15 -39 -19 -49 -2 -4 -7 -16 -11 -26 -4 -10
-8 -21 -10 -24 -1 -3 -6 -14 -10 -23 -4 -9 -10 -22 -13 -29 -3 -7 -9 -19 -13
-28 -4 -9 -9 -20 -11 -24 -3 -4 -5 -10 -6 -13 -1 -3 -2 -4 -2 -1 0 1 -1 3 -3
3 -6 0 -7 12 -7 64 0 43 -1 53 -3 59 -4 9 -14 21 -18 21 -2 0 -3 1 -3 2 0 2
-11 3 -82 3 l-71 0 -6 6 -6 6 1 173 c0 154 0 174 -3 181 -4 9 -14 21 -18 21
-2 0 -3 1 -3 2 0 1 -1 2 -2 2 -7 1 -236 2 -240 0z m736 -180 c5 -6 5 -12 0
-18 -7 -8 -22 -2 -22 9 0 11 15 17 22 9z m-594 -26 c5 -5 6 -7 6 -17 0 -16 -7
-23 -23 -23 -16 0 -23 7 -23 23 0 16 7 23 23 23 10 0 12 -1 17 -6z m925 -17
c3 -5 3 -5 0 -10 -2 -3 -5 -5 -7 -5 -2 0 -5 2 -7 5 -3 5 -3 5 0 10 2 3 5 5 7
5 2 0 5 -2 7 -5z m252 -85 c20 -39 35 -73 49 -106 8 -21 24 -64 24 -67 0 -3 8
-19 10 -20 1 -1 2 -2 2 -4 0 -3 -13 -13 -19 -14 -18 -3 -69 -11 -82 -13 -9 -1
-17 -3 -19 -4 -1 -1 -5 1 -8 4 l-6 6 -1 137 c0 144 0 154 8 155 4 1 7 -4 42
-74z m-1286 -132 c11 -10 3 -28 -11 -28 -9 0 -16 6 -16 16 0 14 17 22 27 12z
m-90 -10 c5 -5 6 -7 6 -16 0 -15 -8 -23 -23 -23 -9 0 -11 1 -16 7 -9 8 -9 23
-1 32 9 9 24 9 34 0z m1106 -17 c10 -9 5 -29 -8 -33 -4 -2 -7 -3 -7 -4 0 -4
-9 0 -12 6 -5 12 -5 25 1 31 7 7 19 7 26 0z m143 -46 l-5 -5 -4 4 -5 5 4 4 5
5 4 -4 5 -5 -4 -4z m-1317 -100 c3 -3 3 -3 0 -6 -4 -5 -11 1 -7 6 4 4 4 4 7 0z
m1090 -179 c11 -10 3 -28 -11 -28 -9 0 -16 6 -16 16 0 14 17 22 27 12z m-436
-13 c12 -7 14 -33 3 -43 -8 -9 -32 -9 -40 0 -9 8 -9 32 0 41 7 7 27 8 37 2z
m302 -54 c6 -15 14 -23 27 -27 l12 -3 39 6 c21 4 42 7 47 8 5 1 11 2 14 2 3 1
7 -1 10 -4 5 -4 6 -6 7 -24 7 -120 10 -139 23 -150 6 -5 19 -12 28 -15 12 -4
16 -10 16 -24 0 -13 -4 -20 -16 -26 -27 -14 -32 -29 -25 -82 2 -13 3 -27 4
-31 4 -30 7 -55 10 -73 0 -3 1 -9 2 -14 1 -5 2 -14 3 -21 3 -18 2 -32 -2 -41
-12 -28 -136 -159 -193 -203 -6 -4 -11 -9 -12 -11 0 -2 -1 -2 -1 1 0 1 -1 3
-2 3 0 0 -2 2 -4 5 -2 3 -3 17 -4 81 -1 87 -1 83 -17 101 -21 22 -21 30 0 52
17 18 16 11 17 122 0 64 0 100 -2 105 -2 6 -14 23 -14 19 0 0 -3 1 -7 2 -4 2
-13 3 -21 4 -22 1 -29 7 -29 27 0 20 7 26 29 27 8 1 17 2 21 4 4 1 7 2 7 2 0
-4 12 13 14 19 1 4 2 44 3 97 l0 90 5 0 c3 0 4 1 4 7 0 4 1 -1 2 -10 1 -9 3
-20 5 -25z m-629 -85 c10 -3 14 -9 14 -21 0 -16 -7 -25 -25 -30 -22 -8 -37 -3
-41 15 -2 10 0 22 5 28 7 8 32 12 47 8z m1181 -34 c16 -7 16 -43 -1 -50 -15
-6 -34 -2 -39 9 -7 12 -2 39 6 39 1 0 3 1 4 3 2 5 14 5 30 -1z m-1050 -109
c12 -12 3 -31 -13 -31 -11 0 -18 7 -18 18 0 11 7 18 18 18 6 0 9 -1 13 -5z
m50 -132 c18 -11 11 -46 -10 -50 -17 -2 -29 4 -33 19 -3 10 0 23 6 29 7 7 27
8 37 2z m-598 -77 c10 -9 3 -26 -10 -26 -13 0 -22 19 -13 26 6 5 18 5 23 0z
m1555 -422 c1 0 5 -3 8 -6 5 -5 6 -7 6 -18 0 -11 -1 -13 -6 -18 -6 -6 -7 -6
-18 -6 -11 0 -12 0 -18 6 -5 5 -6 7 -6 17 0 14 3 20 12 24 5 2 8 2 22 1z m131
-11 c2 -2 3 -5 2 -8 0 -2 -1 -6 -2 -9 -2 -8 -4 -13 -5 -14 -1 -1 -2 -6 -2 -12
-1 -11 -5 -20 -10 -20 -5 0 -10 9 -9 15 3 8 12 27 13 27 1 0 1 1 2 3 1 12 2
15 4 18 4 4 4 4 7 0z"/>
</g>
</svg>
