<?xml version="1.0" standalone="no"?>
<!DOCTYPE svg PUBLIC "-//W3C//DTD SVG 20010904//EN"
 "http://www.w3.org/TR/2001/REC-SVG-20010904/DTD/svg10.dtd">
<svg version="1.0" xmlns="http://www.w3.org/2000/svg"
 width="1100.000000pt" height="2850.000000pt" viewBox="0 0 1100.000000 2850.000000"
 preserveAspectRatio="xMidYMid meet">
<metadata>
Created by potrace 1.15, written by Peter Selinger 2001-2017
</metadata>
<g transform="translate(0.000000,2850.000000) scale(0.500000,-0.500000)"
fill="#000000" stroke="none">
<path d="M1267 3812 c-11 -3 -19 -8 -30 -21 -9 -9 -16 -14 -28 -20 -22 -11
-29 -22 -29 -44 0 -14 5 -26 18 -40 15 -17 15 -20 -1 -37 -17 -18 -17 -21 -17
-81 l1 -52 -6 -6 -6 -6 -172 0 c-163 0 -172 0 -178 -4 -6 -4 -9 -10 -10 -22 0
-5 -1 -10 -2 -11 0 0 0 -2 2 -3 5 -4 4 -20 -1 -26 -3 -3 -6 -5 -8 -5 -5 0 -28
-12 -30 -16 -3 -4 -8 -1 -9 6 0 2 -1 5 -2 6 -1 2 -2 53 -2 115 -1 123 -1 122
-14 135 -3 3 -7 6 -8 6 -2 0 -3 1 -3 2 0 2 -1 2 -34 3 -30 1 -40 0 -49 -7 -6
-5 -13 -23 -14 -37 -1 -16 -5 -24 -16 -30 -30 -18 -32 -20 -42 -36 -5 -9 -11
-15 -15 -18 -7 -4 -8 -4 -15 0 -4 2 -13 4 -20 4 -18 2 -20 0 -24 -23 -2 -10
-10 -16 -14 -10 -1 1 -8 2 -16 2 -16 0 -21 -2 -32 -13 -6 -6 -13 -6 -17 1 -3
5 -2 6 1 13 5 9 12 15 17 14 3 -1 4 1 5 13 3 37 5 42 23 47 18 5 30 13 46 27
8 8 16 14 17 14 2 0 3 1 2 2 0 0 -1 7 -1 14 -1 18 -1 19 -10 22 -15 4 -33 0
-51 -13 -12 -8 -19 -11 -27 -11 -6 0 -18 6 -24 12 -1 1 -7 5 -13 8 l-10 5 -62
1 -63 0 -21 -7 c-27 -9 -33 -9 -60 0 l-21 7 -51 -1 c-53 -1 -55 -1 -55 -3 0
-1 -1 -2 -3 -2 -4 0 -14 -12 -18 -21 -2 -6 -3 -17 -3 -63 0 -61 1 -66 11 -74
8 -6 19 -9 37 -8 12 1 14 0 20 -6 4 -3 6 -8 6 -11 0 -9 6 -31 11 -40 6 -10 11
-20 18 -37 6 -15 10 -19 22 -26 8 -4 11 -4 42 -4 24 1 34 2 35 4 1 1 2 0 5 -5
1 -4 4 -8 5 -8 2 -1 3 -22 2 -100 0 -85 0 -101 3 -110 3 -10 11 -23 18 -28 13
-11 12 -41 -3 -49 -2 -1 -12 -2 -21 -2 -17 0 -37 -5 -41 -9 0 -1 -4 -4 -8 -8
-12 -8 -18 -7 -34 9 -18 18 -27 21 -55 19 -23 -1 -23 -1 -23 -3 0 -1 -1 -2 -3
-2 -4 0 -14 -12 -18 -21 -3 -6 -3 -21 -3 -115 0 -103 0 -108 4 -116 7 -16 16
-22 42 -26 6 -1 14 -3 18 -3 10 -2 23 1 29 6 5 4 6 7 6 16 1 9 0 11 -11 27
-12 16 -13 19 -13 28 0 20 9 29 29 29 13 -1 21 -5 25 -16 3 -9 4 -12 3 -45 0
-24 2 -30 12 -40 8 -8 23 -13 29 -11 3 2 6 1 11 0 4 -2 6 -3 5 -3 0 0 1 -2 4
-5 4 -3 5 -5 3 -5 -2 0 -4 -3 -6 -9 -2 -8 -2 -10 2 -18 7 -15 18 -19 52 -21 1
0 5 -3 8 -6 5 -5 6 -7 6 -18 0 -14 -5 -21 -17 -24 -28 -8 -37 -18 -47 -58 l-6
-24 0 -63 0 -64 -6 -8 c-3 -4 -6 -7 -6 -7 0 1 -4 1 -8 0 -5 -1 -11 -3 -13 -3
-18 -4 -23 -5 -30 -7 -4 -1 -10 -2 -12 -3 -3 -1 -12 -4 -21 -7 -10 -4 -19 -7
-21 -7 -1 0 -4 -1 -5 -2 -1 0 -11 -2 -22 -3 -36 -4 -71 -14 -81 -23 -6 -6 -11
-16 -11 -26 0 -5 4 -22 12 -46 6 -21 16 -53 22 -71 6 -18 14 -45 19 -60 5 -15
12 -36 15 -47 4 -11 7 -20 8 -21 1 0 2 -2 2 -4 0 -4 7 -7 21 -8 5 0 11 -1 11
-1 3 -2 7 5 10 19 5 17 7 20 13 20 12 0 33 9 43 17 5 4 13 11 17 14 8 6 17 19
18 27 1 2 2 5 2 6 1 1 2 6 2 10 1 5 3 11 6 14 10 10 44 3 52 -10 7 -13 4 -29
-8 -39 -4 -3 -5 -5 -5 -18 0 -20 3 -22 21 -17 11 3 34 10 52 15 13 3 17 9 17
25 0 6 1 13 3 14 2 2 2 3 -1 1 -3 -3 -21 6 -27 13 -5 5 -5 18 1 33 4 14 7 28
9 44 2 14 7 20 18 23 15 3 24 0 37 -14 11 -11 24 -18 41 -21 7 -2 11 -8 11
-18 0 -15 -14 -22 -28 -14 -6 3 -24 4 -33 1 -7 -3 -11 -9 -15 -26 -1 -5 -4
-12 -6 -16 -3 -4 -4 -10 -4 -15 1 -10 2 -10 26 -10 13 0 21 2 60 15 25 8 48
15 52 17 4 1 21 7 37 12 33 11 49 17 49 19 0 1 2 2 4 3 3 1 14 15 20 27 5 10
29 32 41 39 14 7 30 3 42 -9 9 -9 25 -15 41 -13 19 2 25 6 33 21 4 8 13 10 15
4 1 -2 2 0 2 4 0 7 5 13 12 13 5 0 13 -6 11 -8 0 -1 0 -4 2 -7 1 -3 5 -9 7
-14 8 -17 13 -19 58 -20 53 -1 58 2 67 28 2 6 4 14 3 17 0 5 1 8 5 12 11 11
32 3 31 -12 -1 -7 5 -25 10 -33 1 -2 5 -6 8 -7 6 -3 22 -4 22 -1 0 1 1 2 3 2
4 0 14 12 18 21 4 11 4 61 0 62 -3 1 4 9 7 9 1 0 2 1 2 2 1 1 15 2 35 3 36 1
39 1 39 3 0 1 3 3 7 5 9 5 21 19 25 32 10 26 16 33 30 32 8 0 10 -1 13 -7 3
-4 5 -8 5 -11 0 -4 -11 -23 -18 -31 -8 -8 -11 -15 -16 -29 -4 -14 -4 -18 -4
-174 0 -153 0 -159 4 -167 6 -13 13 -20 27 -27 3 -1 10 -6 15 -9 12 -10 36
-20 46 -20 4 0 12 -9 17 -23 7 -16 14 -26 23 -30 10 -5 28 -6 42 -2 12 3 17 3
22 -4 5 -6 -5 -21 -18 -30 -4 -2 -9 -5 -11 -7 -2 -2 -4 -4 -5 -4 0 0 -1 -6 -1
-13 l0 -13 10 -6 10 -7 48 0 c49 0 59 1 59 3 0 1 1 2 3 2 4 0 14 12 18 21 3 7
3 22 3 127 0 131 0 134 -12 146 -7 7 -12 22 -12 35 0 9 5 22 16 37 7 10 8 22
8 90 0 51 1 69 3 76 3 10 2 41 -1 45 -2 2 -3 8 -3 13 0 15 8 23 23 23 15 0 23
-8 23 -23 0 -6 -1 -11 -2 -12 -3 -3 -1 -20 3 -28 5 -12 13 -14 44 -14 l27 1 6
-6 6 -6 -1 -22 c0 -16 1 -24 3 -30 4 -9 14 -21 18 -21 2 0 3 -1 3 -2 0 -1 1
-2 2 -2 0 1 5 0 10 -1 17 -3 36 7 49 23 8 10 15 14 26 14 11 0 18 -4 26 -14
20 -26 51 -31 91 -15 20 8 29 9 39 5 3 -1 7 -2 8 -2 1 0 5 0 9 1 10 1 18 5 23
12 4 5 4 7 4 136 1 144 1 142 -11 155 -8 8 -20 14 -27 14 -5 1 -37 -12 -42
-16 -3 -4 -13 -2 -17 2 -8 9 -2 20 15 29 6 3 12 6 13 7 12 12 23 20 26 20 7 0
28 10 34 15 10 11 10 10 10 193 0 166 0 171 -4 182 -6 15 -10 19 -23 20 -10 1
-14 0 -23 -4 -20 -10 -32 -7 -49 13 -10 12 -20 18 -31 20 -4 1 -8 2 -10 3 -2
1 -7 2 -11 3 -17 3 -24 11 -24 28 0 19 9 28 28 28 9 0 14 -3 38 -15 36 -18 37
-19 46 -35 6 -11 10 -15 15 -16 1 0 2 -1 3 -1 3 -3 19 -2 25 1 7 4 10 9 16 24
4 11 4 16 4 53 0 56 -3 64 -25 65 -9 1 -15 0 -23 -3 -13 -5 -18 -5 -22 0 -5 5
-5 14 -1 19 2 2 3 5 3 6 0 1 6 11 13 22 11 17 15 21 28 30 13 8 17 12 21 21 6
11 6 11 6 50 0 44 -1 50 -13 62 -8 9 -24 9 -36 0 -23 -16 -31 -16 -54 0 -16
12 -18 12 -131 12 -77 0 -104 -1 -106 -3 -2 -2 -2 -1 -1 1 1 1 -1 1 -4 -1 -3
-2 -5 -3 -4 -1 1 1 0 2 -4 2 -4 0 -5 -1 -4 -2 1 -2 -1 -1 -4 1 -3 2 -5 2 -4 1
1 -2 1 -3 -1 -1 -2 2 -13 2 -33 2 l-30 0 -6 6 -6 6 1 131 c0 116 0 132 -3 139
-4 9 -14 21 -18 21 -2 0 -3 1 -3 2 0 2 -1 2 -45 3 l-41 1 -21 -7 c-26 -9 -26
-9 -52 0 -20 7 -30 8 -42 5z m84 -94 c7 -3 12 -13 12 -25 0 -21 -11 -29 -35
-27 -3 0 -12 4 -21 10 -9 5 -19 10 -22 12 -6 3 -15 13 -15 17 0 6 6 11 15 11
4 0 17 1 28 3 21 3 28 2 38 -1z m-1184 -84 c16 -7 16 -43 -1 -50 -15 -6 -34
-2 -39 9 -4 8 -4 24 0 32 5 12 23 15 40 9z m1202 -56 c4 -3 9 -19 9 -29 0 -11
-4 -23 -10 -27 -7 -6 -27 -6 -35 0 -11 9 -10 42 1 53 9 9 27 10 35 3z m-702
-43 c5 -8 1 -16 -8 -16 -9 0 -13 8 -8 16 2 3 5 5 8 5 3 0 6 -2 8 -5z m-304
-65 c5 -7 4 -25 -2 -31 -6 -7 -21 -7 -32 -2 -11 6 -42 3 -50 -5 -2 -1 -7 -4
-11 -5 -5 -2 -7 -2 -10 2 -3 3 -3 4 -2 5 2 1 2 2 0 2 -9 0 -11 25 -3 33 6 7
21 7 32 2 7 -4 28 -4 39 0 20 7 32 7 39 -1z m1231 -9 c3 -3 4 -7 4 -14 0 -13
-6 -19 -19 -19 -13 0 -19 6 -19 19 0 14 5 19 19 19 8 0 11 -1 15 -5z m-476
-21 c3 -6 4 -4 -10 -31 -7 -12 -9 -19 -11 -29 -1 -3 -1 -7 -2 -10 -3 -16 -25
-19 -47 -7 -7 3 -21 9 -31 13 -22 8 -26 12 -29 23 -4 15 2 31 14 36 13 5 24 3
42 -9 10 -7 13 -8 23 -8 11 0 21 6 24 14 2 5 15 14 20 14 2 -1 5 -3 7 -6z
m-201 -13 c3 -3 3 -3 0 -6 -4 -5 -11 1 -7 6 4 4 4 4 7 0z m-219 -9 c4 -2 9 -5
11 -6 7 -6 8 -7 19 -7 15 0 18 2 18 7 0 4 1 4 1 2 1 -2 2 -4 3 -4 1 0 2 -1 2
-3 0 -2 1 -3 2 -3 0 0 1 -2 1 -5 1 -4 3 -15 6 -27 6 -25 7 -34 1 -56 -4 -17
-4 -21 -4 -193 0 -191 -1 -181 12 -195 5 -6 7 -7 14 -7 5 0 10 -1 12 -2 2 -1
3 -1 3 1 1 1 2 2 4 2 1 0 5 5 8 12 3 6 8 15 12 19 5 7 7 7 16 7 13 0 19 -6 19
-19 0 -10 -5 -19 -11 -19 -2 0 -6 -1 -9 -3 -4 -2 -9 -4 -12 -4 -9 -1 -13 -3
-16 -8 -1 -3 -4 -6 -7 -7 -3 -1 -9 -5 -13 -8 -5 -3 -10 -6 -11 -6 -4 0 -15
-13 -18 -21 -4 -9 -4 -45 0 -54 3 -7 11 -16 14 -16 1 0 7 -2 12 -4 6 -1 11 -2
12 -1 1 0 9 1 18 1 23 1 39 10 49 27 21 37 23 40 35 40 16 0 22 -15 13 -32 -8
-17 -30 -46 -30 -41 0 1 -3 0 -7 -2 -5 -2 -10 -4 -12 -4 -8 -2 -31 -25 -31
-32 0 -3 -8 -10 -13 -12 -6 -2 -21 -3 -22 -1 -1 1 -6 0 -12 -1 -5 -2 -11 -4
-12 -4 -8 -1 -17 -18 -17 -31 0 -22 7 -32 25 -33 5 -1 11 -1 12 -2 2 0 3 0 3
1 2 6 25 5 32 -1 5 -5 5 -25 1 -31 -6 -7 -30 -9 -33 -2 0 1 -1 1 -3 1 -1 -1
-7 -1 -12 -2 -21 -1 -24 -8 -26 -56 0 -23 -1 -32 -4 -36 -1 -4 -2 -7 -1 -8 0
-1 0 -1 -1 0 -2 1 -3 -1 -4 -4 0 -6 0 -6 -1 0 0 7 -5 12 -22 25 -4 3 -9 9 -11
13 -2 4 -5 8 -5 9 -1 1 -2 3 -3 5 -1 6 -15 18 -17 16 -1 -1 -2 0 -3 1 -2 4
-14 2 -41 -5 -15 -4 -30 -8 -34 -8 -4 -1 -9 -2 -11 -4 -4 -2 -7 -3 -17 -4 -5
-1 -8 -2 -8 -3 0 -1 -2 1 -5 4 l-6 5 -1 56 -1 57 -6 8 c-7 10 -20 18 -28 18
-3 0 -16 -1 -27 -1 -21 -1 -22 -1 -27 4 -4 4 -5 7 -5 14 0 13 2 16 18 24 20
10 26 20 27 48 1 23 7 30 27 30 9 -1 14 -2 27 -9 23 -11 30 -12 84 -11 51 1
53 1 53 3 0 1 1 2 3 2 4 0 14 12 18 21 4 9 4 28 0 44 -4 15 -4 39 0 54 4 18 4
131 0 142 -4 9 -14 21 -18 21 -2 0 -3 1 -3 2 0 2 -11 3 -71 3 l-60 0 -6 6 c-6
6 -6 6 -5 22 1 27 -3 35 -29 55 -13 11 -19 19 -24 33 -6 18 -1 33 10 30 7 -1
26 6 32 11 9 8 11 18 11 51 0 45 -3 52 -27 62 l-12 5 -13 -6 c-8 -3 -18 -9
-24 -12 -21 -12 -38 -6 -38 13 0 13 5 18 18 20 6 1 19 4 30 8 27 10 32 11 47
3 24 -13 31 -14 65 -14 25 0 34 1 40 3 9 4 20 10 22 14 2 2 15 8 18 9 2 0 6
-2 10 -4z m960 -50 c8 -3 10 -9 12 -24 1 -14 1 -14 -7 -21 -14 -13 -49 -20
-68 -12 -9 4 -13 28 -6 40 3 8 21 16 41 20 13 2 18 2 28 -3z m176 0 c5 -6 5
-12 0 -18 -7 -8 -22 -2 -22 9 0 11 15 17 22 9z m-1345 -56 c6 -6 7 -18 2 -25
-3 -5 -5 -5 -12 -4 -11 2 -17 8 -17 17 0 14 17 22 27 12z m452 -8 c16 -7 16
-43 -1 -50 -15 -6 -34 -2 -39 9 -4 8 -4 24 0 32 5 12 23 15 40 9z m403 -46 c8
-4 20 -32 21 -52 1 -9 1 -11 -3 -15 -9 -10 -24 -5 -33 10 -12 19 -15 33 -12
50 1 8 17 13 27 7z m274 -18 c1 0 5 -3 8 -6 7 -7 8 -19 2 -38 -8 -26 -3 -38
17 -46 7 -2 15 -5 18 -5 21 -1 46 -27 46 -49 0 -19 -8 -27 -26 -27 -13 0 -25
6 -39 18 -12 11 -32 21 -44 22 -6 1 -10 0 -18 -4 -13 -6 -18 -12 -24 -32 -5
-16 -9 -19 -23 -19 -10 0 -19 6 -19 13 0 7 -9 21 -15 24 -3 2 -10 4 -16 4 -10
1 -12 1 -20 -5 -20 -14 -29 -18 -41 -19 -14 -2 -17 3 -21 31 -4 33 -4 42 2 48
6 5 21 6 28 1 6 -4 19 -17 19 -19 0 0 6 -1 14 0 23 2 27 9 26 45 l-1 22 6 6 6
6 25 0 c25 0 33 2 43 9 1 1 6 5 11 9 5 4 11 9 14 10 5 2 8 2 22 1z m-558 -21
l22 -9 44 0 43 1 6 -5 c3 -4 6 -6 7 -6 0 0 2 -2 4 -5 3 -8 9 -15 13 -16 2 0 6
-1 7 -2 2 -1 8 -2 12 -4 18 -5 17 -21 -2 -33 -12 -8 -22 -17 -21 -19 1 0 1 -1
-1 -1 -1 0 -7 -2 -12 -5 -11 -5 -12 -5 -62 -5 l-51 -1 -6 6 -6 6 1 24 c0 15
-1 26 -2 30 -3 6 -12 22 -14 23 -4 1 -10 8 -13 13 -3 6 -3 7 0 12 5 7 6 6 31
-4z m-78 -39 c5 -5 6 -7 6 -17 0 -16 -7 -23 -23 -23 -16 0 -23 7 -23 23 0 16
7 23 23 23 10 0 12 -1 17 -6z m-568 -65 c3 -3 4 -6 4 -12 0 -7 -2 -10 -20 -26
-13 -11 -16 -29 -8 -42 11 -17 12 -23 7 -29 -4 -3 -13 -1 -31 7 -6 2 -16 6
-22 8 -21 7 -28 20 -20 43 2 7 6 15 8 18 2 2 4 5 4 6 0 5 15 25 21 27 18 8 49
8 57 0z m194 -61 c7 -6 20 -15 29 -19 18 -9 22 -15 22 -30 0 -13 -5 -22 -13
-25 -17 -7 -37 -17 -42 -22 -3 -3 -7 -6 -8 -6 -1 0 -3 -1 -4 -3 -1 -2 -6 -3
-9 -3 -9 0 -14 6 -24 25 -4 8 -9 17 -12 19 -9 10 -11 15 -11 25 0 11 4 19 18
33 20 20 33 21 54 6z m611 -5 c12 -7 14 -33 3 -43 -8 -9 -32 -9 -40 0 -9 8 -9
32 0 41 7 7 27 8 37 2z m-240 -59 c3 -3 20 -26 30 -44 15 -23 -6 -42 -29 -26
-4 3 -8 7 -8 8 0 1 -5 7 -11 13 -7 6 -14 14 -15 17 -5 7 -5 24 0 30 6 8 25 9
33 2z m785 -17 c3 -3 4 -6 4 -14 0 -16 -6 -30 -19 -42 -12 -11 -14 -18 -13
-34 1 -7 3 -10 8 -14 9 -8 14 -18 14 -28 0 -19 -14 -24 -38 -15 -17 6 -23 14
-25 32 -2 16 -5 25 -11 28 -6 3 -27 3 -31 -1 -6 -4 -19 -4 -24 1 -9 9 -5 39 7
52 6 6 7 6 18 5 12 -1 32 2 39 7 3 1 8 6 13 11 14 17 46 23 58 12z m-235 -24
c5 -8 1 -16 -8 -16 -9 0 -13 8 -8 16 2 3 5 5 8 5 3 0 6 -2 8 -5z m-194 -9 c9
-3 13 -8 13 -15 0 -8 -5 -13 -19 -18 -5 -2 -11 -5 -13 -7 -2 -2 -5 -4 -6 -4
-2 0 -2 -1 -1 -1 0 -1 0 -4 -2 -7 -3 -6 -5 -14 -6 -22 0 -3 -1 -6 -1 -8 0 -6
-13 -18 -19 -18 -4 0 -5 1 -5 6 0 3 -1 7 -1 9 0 2 1 6 3 9 3 5 4 37 1 55 -2
13 2 20 12 23 8 2 36 1 44 -2z m-221 -9 c10 -5 13 -10 13 -27 0 -13 -1 -16 -4
-20 -10 -12 -32 -12 -44 -1 -10 8 -10 32 -1 42 7 8 24 11 36 6z m97 -21 c8 -8
8 -24 -1 -32 -8 -9 -23 -9 -32 -1 -9 8 -9 26 0 33 9 9 24 9 33 0z m-893 -35
c20 -9 20 -45 0 -54 -5 -2 -19 -3 -37 -3 -13 0 -20 13 -12 23 1 2 4 9 6 14 4
12 8 17 16 20 7 3 20 3 27 0z m1144 -5 c5 -5 7 -12 5 -15 -5 -6 -9 -8 -12 -5
-2 1 -4 2 -4 1 -2 -1 -9 7 -9 11 0 10 13 15 20 8z m151 -35 c6 -7 7 -13 7 -31
0 -27 10 -44 31 -54 8 -4 13 -5 36 -5 36 -1 42 -5 42 -27 0 -12 -3 -18 -10
-23 -7 -5 -26 -5 -34 0 -14 7 -23 10 -63 22 l-25 7 -47 0 -47 -1 -6 6 -6 6 1
42 c0 29 -1 41 -2 41 -1 0 1 2 4 6 4 3 7 5 7 6 1 1 13 1 27 0 24 0 28 0 43 5
28 9 35 9 42 0z m-336 -1 c-1 -2 0 -7 1 -11 2 -5 3 -10 3 -12 0 -2 2 -6 4 -8
6 -6 10 -18 8 -24 -2 -7 -12 -10 -35 -9 -23 2 -30 5 -35 16 -4 10 -4 17 1 27
2 6 6 9 20 16 19 9 34 12 33 5z m-102 -9 c4 -4 6 -7 5 -7 0 0 -1 -19 0 -41 l1
-42 -5 -6 c-4 -3 -6 -7 -6 -9 0 -1 -1 -2 -2 -1 -3 2 -19 -10 -25 -19 -14 -19
-38 -20 -52 -2 -6 8 -19 20 -21 19 -1 -1 -4 3 -6 8 -3 5 -5 9 -6 9 -1 0 -1 19
-1 42 l0 43 6 6 6 6 50 0 50 0 6 -6z m711 2 c6 -6 1 -15 -14 -23 -6 -4 -15
-10 -21 -14 -10 -7 -28 -14 -35 -14 -6 0 -12 7 -12 13 0 6 7 19 14 25 17 15
58 24 68 13z m-890 -83 c12 -11 7 -37 -8 -43 -18 -7 -30 -1 -33 16 -3 21 6 33
24 33 10 0 12 -1 17 -6z m-586 -53 l-5 -5 -4 4 -5 5 4 4 5 5 4 -4 5 -5 -4 -4z
m495 8 c12 -12 3 -31 -13 -31 -11 0 -18 7 -18 18 0 11 7 18 18 18 6 0 9 -1 13
-5z m532 -2 c10 -7 14 -26 8 -37 -3 -6 -7 -7 -18 -3 -10 4 -17 15 -17 28 0 13
15 20 27 12z m105 -17 c9 -5 11 -19 5 -37 -4 -12 -3 -25 3 -38 6 -14 7 -22 3
-26 -5 -5 -8 -5 -28 0 -24 5 -31 4 -43 -12 -5 -6 -10 -14 -12 -16 -3 -7 -11
-10 -16 -6 -3 1 -5 5 -5 7 -1 5 -7 18 -9 19 -4 2 -22 3 -23 1 -2 -4 -17 -2
-21 2 -5 5 -5 15 0 20 5 5 14 5 19 1 2 -2 5 -4 7 -4 1 0 3 -1 3 -1 0 -1 22 -1
22 0 1 1 2 2 3 1 1 -1 3 1 4 4 7 17 13 27 14 26 1 -1 2 0 2 1 0 1 2 2 5 3 14
3 27 20 33 43 4 13 20 19 34 12z m-182 -2 c4 -2 11 -14 12 -19 1 -7 -2 -19 -7
-24 -9 -10 -32 -11 -41 -1 -9 8 -9 32 0 41 7 6 26 8 36 3z m-871 -21 c7 -7 6
-15 -2 -34 -6 -15 -10 -32 -9 -39 0 -5 -4 -21 -8 -25 -6 -7 -24 -11 -34 -6
-16 7 -21 21 -13 44 5 15 20 43 30 53 10 12 27 16 36 7z m771 -2 c6 -7 6 -22
0 -28 -4 -4 -7 -5 -15 -5 -8 0 -11 1 -15 5 -6 6 -6 21 0 28 7 8 23 8 30 0z
m29 -82 c4 -4 5 -7 5 -15 0 -14 -6 -20 -20 -20 -14 0 -20 6 -20 20 0 14 6 20
20 20 8 0 11 -1 15 -5z m-665 -41 c2 -3 4 -8 4 -12 0 -7 6 -26 9 -29 0 -1 1
-3 1 -5 0 -1 2 -6 3 -9 4 -7 4 -8 0 -22 -6 -24 -16 -36 -25 -28 -5 4 -4 23 0
39 2 7 2 10 -1 20 -2 6 -4 12 -5 13 -1 1 -2 3 -2 5 0 2 -1 6 -3 9 -4 7 -4 13
1 19 4 5 13 5 18 0z m315 -7 c3 -3 3 -4 0 -10 -4 -7 -4 -7 -7 -4 -8 8 -6 13 4
17 0 0 2 -1 3 -3z m-548 -6 c19 -9 26 -11 42 -12 21 -1 28 -8 28 -27 0 -19 -8
-27 -27 -27 -14 0 -17 2 -27 16 -9 14 -18 22 -28 27 -15 8 -21 18 -13 26 5 5
9 4 25 -3z m1370 -9 c3 -3 3 -4 1 -9 -3 -5 -5 -7 -16 -8 -4 0 -8 1 -12 4 -5 4
-5 5 -2 10 5 9 21 11 29 3z m-844 -17 c5 -7 0 -30 -7 -35 -12 -10 -30 -1 -30
14 0 9 4 14 16 21 10 5 17 5 21 0z m378 -20 c12 -12 2 -33 -16 -32 -2 0 -6 0
-9 1 -7 0 -16 9 -16 16 0 16 29 27 41 15z m-263 -14 c7 -8 7 -11 2 -17 -9 -8
-28 0 -28 11 0 14 16 17 26 6z m-280 -4 c5 -1 6 -1 8 -5 7 -13 3 -31 -8 -32
-5 -1 -6 0 -9 7 -3 9 -3 10 0 18 2 4 3 10 3 12 0 2 1 3 2 2 0 -1 2 -2 4 -2z
m-253 -45 c7 -6 11 -31 7 -47 -3 -9 -8 -12 -22 -15 -9 -1 -10 -1 -12 3 -14 24
-13 54 1 61 7 4 20 3 26 -2z m920 -72 c14 -3 21 -17 17 -34 -4 -17 -35 -38
-53 -37 -10 1 -22 9 -27 20 -6 12 -6 29 -1 36 9 12 44 20 64 15z m-111 -112
c5 -6 5 -12 0 -17 -11 -13 -29 3 -18 17 4 5 13 5 18 0z m73 -55 c10 -3 29 -2
44 1 19 4 21 -11 4 -31 -5 -6 -19 -33 -19 -37 0 -7 -17 -15 -38 -18 -18 -2
-29 0 -36 7 -4 6 -5 7 -3 27 1 23 4 41 8 46 6 8 23 10 40 5z m62 -126 c3 -3 3
-4 0 -18 -4 -16 -11 -34 -17 -39 -6 -6 -17 -7 -23 -2 l-5 5 5 15 c14 38 27 52
40 39z"/>
<path d="M67 3466 c-14 0 -14 0 -19 -7 -7 -11 -8 -25 -2 -39 3 -5 6 -9 7 -9 0
1 1 1 1 0 0 -1 6 -2 14 -2 l14 0 5 12 c5 11 5 13 3 20 -3 11 -3 11 -5 17 -2 3
-3 6 -3 7 -1 1 -7 2 -15 1z"/>
</g>
</svg>
