<?xml version="1.0" standalone="no"?>
<!DOCTYPE svg PUBLIC "-//W3C//DTD SVG 20010904//EN"
 "http://www.w3.org/TR/2001/REC-SVG-20010904/DTD/svg10.dtd">
<svg version="1.0" xmlns="http://www.w3.org/2000/svg"
 width="1100.000000pt" height="2850.000000pt" viewBox="0 0 1100.000000 2850.000000"
 preserveAspectRatio="xMidYMid meet">
<metadata>
Created by potrace 1.15, written by Peter Selinger 2001-2017
</metadata>
<g transform="translate(0.000000,2850.000000) scale(0.500000,-0.500000)"
fill="#000000" stroke="none">
<path d="M1076 3802 c-23 -9 -45 -18 -51 -20 -75 -28 -78 -29 -82 -53 -2 -12
-2 -14 3 -22 7 -13 6 -20 -1 -25 -3 -1 -6 -4 -7 -4 0 -1 -2 -2 -3 -2 -1 0 -4
-3 -5 -7 -1 -4 -4 -7 -6 -8 -2 -1 -5 -3 -7 -5 -3 -2 -10 -6 -16 -10 -15 -7
-39 -30 -45 -42 -5 -11 -10 -26 -10 -30 0 -7 -9 -13 -22 -13 -26 0 -35 9 -34
38 0 32 -7 44 -29 50 -3 1 -45 2 -93 2 -99 1 -98 1 -107 -14 -4 -8 -8 -22 -7
-26 1 -7 -1 -23 -7 -41 -7 -20 -10 -23 -21 -24 -8 0 -10 1 -25 13 -9 7 -17 13
-18 13 -1 0 -6 2 -10 4 -4 2 -9 4 -11 4 -11 0 -18 10 -19 28 -1 13 -6 27 -12
33 -8 10 -17 11 -60 11 l-39 -1 -5 -5 c-5 -5 -6 -8 -7 -20 -1 -9 0 -15 1 -16
4 -5 12 -33 14 -52 1 -11 -2 -17 -16 -26 -7 -5 -11 -10 -15 -18 l-6 -11 0 -45
c0 -41 0 -45 4 -52 5 -11 17 -16 33 -16 24 1 27 0 38 -5 10 -6 20 -18 22 -27
5 -20 -1 -32 -16 -32 -9 0 -34 7 -38 10 -2 1 -8 3 -13 3 -10 0 -12 1 -19 8 -7
6 -28 18 -40 22 -7 2 -22 -5 -31 -16 -4 -6 -8 -11 -8 -12 0 -3 -11 -11 -17
-12 -10 -2 -13 5 -7 19 5 16 6 42 0 45 -3 2 -10 19 -10 24 0 3 2 8 4 11 4 4 5
4 19 3 27 -3 39 5 40 25 0 10 -1 11 -6 15 -3 3 -10 5 -14 6 -4 1 -9 2 -11 2
-5 1 -21 -5 -25 -10 -7 -8 -14 -11 -29 -14 -9 -1 -20 -4 -24 -7 -5 -2 -28 -11
-52 -21 -46 -20 -54 -24 -60 -38 -6 -14 -5 -21 6 -54 11 -35 25 -81 34 -116 9
-36 10 -37 32 -37 12 0 15 1 19 4 7 6 16 8 29 5 15 -4 41 -1 49 5 5 4 21 3 26
-3 7 -6 7 -22 1 -28 -4 -4 -6 -4 -31 -4 l-26 0 -8 -8 c-5 -5 -8 -9 -8 -10 2
-1 -11 2 -22 6 -8 3 -12 3 -15 1 -2 -1 -4 -2 -4 -1 0 1 -3 0 -6 -2 -5 -3 -9
-8 -8 -11 0 -1 -1 -2 -2 -2 -5 0 1 -38 8 -55 5 -11 7 -13 23 -13 l15 -1 3 7
c1 4 4 12 5 18 5 22 9 35 12 34 1 0 3 1 4 2 2 2 2 2 2 1 0 -2 2 -3 4 -3 2 0 4
-1 4 -2 0 -1 1 -2 2 -2 3 1 16 -6 19 -10 4 -6 4 -26 0 -32 -2 -2 -7 -8 -11
-13 -11 -11 -22 -33 -22 -43 1 -2 0 -6 -1 -10 -1 -5 0 -8 3 -12 6 -7 28 -7 46
1 31 15 40 19 52 24 7 3 13 6 14 7 0 1 7 -1 16 -3 9 -2 16 -4 16 -4 0 1 1 1 3
-1 3 -2 16 -5 26 -6 3 0 7 -2 10 -5 11 -11 4 -37 -9 -37 -10 0 -19 -2 -25 -4
-3 -2 -7 -3 -7 -3 -2 0 -10 -7 -13 -11 -5 -7 -7 -18 -7 -50 0 -33 0 -34 -5
-43 -3 -5 -7 -9 -8 -9 -1 0 -14 -6 -28 -13 -33 -16 -89 -43 -118 -56 -24 -11
-31 -21 -32 -49 0 -8 -5 -16 -9 -16 -3 0 -18 10 -18 12 0 3 -17 10 -26 11 -17
1 -36 -15 -40 -34 -3 -10 -2 -11 24 -100 25 -85 31 -103 39 -112 11 -12 39
-26 56 -27 13 0 13 0 31 9 7 4 14 11 15 17 3 14 5 28 4 32 -1 5 5 14 9 14 1 0
8 -3 15 -7 11 -6 16 -8 26 -8 12 0 18 3 38 18 20 17 49 18 57 3 7 -13 2 -36
-9 -40 -14 -5 -21 -9 -21 -10 0 -1 -1 -2 -3 -2 -4 0 -9 -6 -19 -23 -5 -8 -14
-19 -21 -26 -13 -14 -19 -25 -26 -48 -3 -9 -11 -31 -17 -49 -14 -36 -13 -32
-12 -76 1 -16 -2 -21 -15 -29 -22 -13 -33 -23 -42 -38 -1 -3 -7 -12 -12 -22
-11 -17 -13 -21 -19 -57 -4 -22 2 -42 15 -55 3 -3 8 -9 10 -12 2 -3 11 -13 20
-21 9 -8 33 -32 54 -52 42 -42 47 -45 74 -45 23 0 35 7 48 28 6 9 13 18 16 20
13 8 28 27 43 53 11 21 7 39 -13 54 -18 13 -35 40 -35 55 0 8 7 15 15 15 11 0
26 -8 44 -21 10 -8 31 -5 42 6 4 4 7 8 7 9 0 1 5 14 10 28 10 23 19 49 21 56
0 2 4 11 7 20 6 15 26 84 29 96 0 3 2 10 4 16 1 6 3 14 4 17 0 3 2 8 3 12 1 3
2 9 3 12 0 3 2 12 4 19 1 7 3 18 4 24 1 11 6 34 10 52 1 6 4 18 5 26 1 8 3 18
3 21 14 87 14 108 2 122 -18 22 -20 38 -4 49 13 10 24 28 26 42 2 25 1 48 -3
48 -1 0 -2 1 -2 3 0 6 -24 17 -40 17 -10 0 -18 7 -26 22 -2 5 -9 14 -16 20 -6
5 -13 12 -15 14 -3 3 -5 9 -7 17 -2 13 -2 13 2 17 9 8 32 1 41 -12 4 -7 18
-22 20 -22 1 0 3 -1 5 -3 2 -3 5 -3 13 -2 18 2 29 12 33 31 3 16 2 89 -3 102
-8 26 -8 30 -3 46 5 16 5 17 7 108 1 41 1 44 -3 52 -2 4 -6 9 -9 10 -6 4 -25
8 -28 7 -1 -1 -5 -1 -10 -1 -11 0 -17 6 -17 19 0 10 2 15 14 27 9 9 14 22 15
42 l2 13 14 14 c13 13 23 27 20 29 -1 1 1 2 4 4 2 1 6 5 8 8 1 3 3 4 3 3 0 -2
13 -3 59 -3 52 0 60 0 75 4 21 5 29 5 49 0 24 -5 33 -3 54 17 16 15 21 15 42
-2 22 -18 46 -22 85 -15 23 4 23 4 45 0 20 -4 33 -4 172 -4 161 0 159 0 168
10 3 3 4 7 4 16 0 6 1 11 1 12 3 2 -26 13 -37 14 -24 2 -23 27 1 26 21 0 31 9
32 31 0 11 6 23 12 27 4 3 12 27 12 36 0 3 2 7 5 10 11 10 48 -1 74 -21 4 -3
15 -11 24 -17 9 -6 17 -12 18 -14 9 -22 0 -48 -19 -48 -11 0 -20 3 -28 11 -8
7 -9 7 -23 7 -17 0 -21 -2 -25 -14 -9 -32 11 -52 47 -45 5 1 8 1 10 -1 1 -1 3
-2 5 -2 2 0 7 -4 11 -9 23 -29 41 -34 60 -20 6 5 15 19 19 32 3 9 9 13 21 13
12 0 18 -4 21 -13 3 -9 11 -24 15 -29 4 -4 17 -11 19 -10 1 0 5 0 8 0 15 2 22
27 11 44 -7 11 -10 22 -7 33 3 11 6 14 25 23 13 6 21 11 31 22 8 8 16 14 19
14 20 2 30 -5 30 -22 0 -11 -4 -18 -15 -24 -9 -5 -20 -15 -20 -19 0 -1 -1 -3
-2 -4 -1 -1 -2 -6 -2 -11 -1 -9 -1 -9 8 -12 6 -3 11 -4 19 -3 23 2 26 2 32 0
4 -2 9 -6 12 -10 19 -25 29 -32 48 -32 16 0 25 6 32 20 3 5 5 11 5 13 0 2 1 4
2 4 1 0 1 2 1 4 -2 5 3 25 8 37 4 9 12 35 16 54 1 3 4 7 10 12 19 13 26 18 29
24 2 3 5 9 7 12 7 9 11 27 10 38 -1 10 -9 21 -14 21 -2 0 -3 1 -3 2 0 2 -1 2
-1 2 -1 -1 -4 -1 -8 0 -3 1 -142 2 -327 2 l-322 0 -9 5 c-5 4 -10 8 -12 13 -4
9 -31 55 -46 77 -13 20 -19 25 -27 26 -5 0 -9 2 -18 11 -10 10 -12 12 -12 22
0 4 -2 6 -6 7 -17 6 -21 6 -64 -11z m66 -38 c1 -2 1 -9 0 -19 -4 -29 -8 -35
-25 -35 -13 0 -19 6 -19 19 0 16 8 27 26 37 10 6 14 5 18 -2z m-123 -77 c7 -4
10 -11 10 -23 0 -19 -8 -27 -27 -27 -16 0 -24 6 -26 18 0 1 -2 4 -3 6 -2 1 -3
3 -2 3 1 0 0 1 -1 3 -1 1 -1 3 -1 4 1 0 1 1 0 1 -1 0 -2 2 -2 5 0 3 1 4 1 4 1
-1 2 0 2 1 0 1 3 2 7 3 3 1 6 2 7 2 1 0 2 1 4 2 9 3 24 3 31 -2z m113 -50 l-5
-5 -4 4 -5 5 4 4 5 5 4 -4 5 -5 -4 -4z m-453 -73 c11 -10 3 -28 -12 -28 -9 0
-15 6 -15 16 0 14 17 22 27 12z m638 1 c3 -3 3 -3 0 -6 -4 -5 -11 1 -7 6 4 4
4 4 7 0z m-346 -32 c3 -3 3 -3 0 -6 -4 -5 -11 1 -7 6 4 4 4 4 7 0z m260 -7 c4
-6 6 -19 3 -41 -3 -26 -8 -32 -28 -32 -19 0 -27 8 -27 27 0 13 3 18 17 33 15
16 28 21 35 13z m-624 -10 c5 -1 10 -4 12 -7 9 -12 8 -32 -2 -41 -8 -6 -33
-22 -35 -22 -1 0 -2 -1 -2 -2 0 -3 -8 -10 -13 -11 -7 -2 -27 4 -32 9 -6 6 -7
25 0 37 14 29 44 44 72 37z m-119 -148 c5 -5 6 -7 6 -17 0 -16 -7 -23 -23 -23
-16 0 -23 7 -23 23 0 16 7 23 23 23 10 0 12 -1 17 -6z m-308 -63 l5 -5 -6 -5
-6 -5 -4 4 -5 5 4 5 c5 7 6 7 12 1z m160 -46 c8 -3 15 -22 14 -36 0 -7 -6 -18
-14 -27 -3 -3 -7 -8 -10 -12 -6 -7 -17 -14 -21 -14 -9 2 -11 7 -9 22 2 15 2
13 6 28 2 6 4 15 5 21 1 7 3 11 8 16 8 7 10 8 21 2z m197 -144 c3 -5 3 -5 0
-10 -2 -3 -5 -5 -7 -5 -2 0 -5 2 -7 5 -3 5 -3 5 0 10 2 3 5 5 7 5 2 0 5 -2 7
-5z m-83 -126 c5 -5 11 -27 8 -33 -5 -9 -8 -10 -22 -6 -16 5 -20 9 -20 22 0
14 6 20 20 20 6 0 11 -1 14 -3z m-169 -261 c10 -9 3 -26 -10 -26 -8 0 -15 7
-15 15 0 13 16 20 25 11z m86 -108 c7 -6 7 -19 1 -25 -7 -8 -22 -7 -27 1 -4 8
-4 18 1 23 6 7 19 7 25 1z m-57 -271 c3 -2 7 -5 8 -9 2 -5 2 -9 2 -31 0 -7 1
-19 2 -28 3 -20 0 -24 -22 -26 -3 0 -5 -1 -5 -2 1 -2 -16 -9 -23 -9 -4 0 -6 6
-3 9 2 2 3 5 3 6 0 2 2 3 4 3 3 0 3 2 4 18 0 17 0 18 -5 21 -9 6 -13 28 -6 40
6 12 26 16 41 8z m86 -32 l-5 -5 -4 4 -5 5 4 4 5 5 4 -4 5 -5 -4 -4z"/>
<path d="M677 3366 c-43 -2 -53 -10 -60 -48 -6 -36 -3 -58 10 -64 8 -3 27 -6
28 -4 1 1 4 2 7 2 19 2 26 -4 26 -21 0 -17 -7 -23 -26 -21 -3 0 -6 1 -7 2 -1
2 -20 -1 -28 -4 -13 -6 -17 -29 -9 -61 4 -15 4 -21 3 -32 -3 -24 -2 -34 4 -44
3 -5 6 -9 7 -9 1 0 2 -1 2 -2 0 -1 4 -8 10 -15 5 -8 9 -14 8 -16 0 -1 0 -1 1
-1 1 1 5 -1 10 -5 4 -4 13 -9 20 -12 6 -2 21 -9 33 -14 33 -15 47 -13 69 11
17 19 25 25 37 32 21 11 42 8 48 -6 9 -23 12 -29 18 -36 12 -12 11 -12 159
-11 138 0 139 1 139 3 0 1 1 2 3 2 5 0 17 16 17 22 0 3 1 7 1 9 0 1 -1 6 -2
11 -2 5 -3 13 -4 18 -1 12 -6 29 -11 36 -4 5 -13 11 -26 16 -9 3 -13 11 -13
24 0 16 4 22 21 27 24 9 35 21 37 40 2 10 -6 27 -14 33 -2 2 -5 5 -6 6 -1 1
-6 4 -10 7 -12 7 -15 12 -15 24 0 12 3 17 15 24 4 3 9 6 10 7 1 1 4 4 6 6 6 4
15 22 15 28 0 10 -15 32 -21 32 -2 0 -3 1 -3 2 0 2 -1 2 -37 3 -42 2 -57 -3
-70 -23 -2 -4 -8 -9 -12 -11 l-7 -4 -8 6 c-6 4 -9 5 -22 5 -26 0 -28 -2 -20
-22 7 -17 11 -21 32 -32 22 -11 27 -16 30 -27 3 -11 0 -22 -9 -36 -3 -5 -8
-13 -10 -17 -13 -29 -15 -32 -26 -32 -16 0 -19 8 -15 33 3 15 0 30 -7 38 -7 8
-11 16 -13 26 -2 7 -3 12 -4 15 0 0 0 0 0 1 0 0 -2 5 -5 10 -4 8 -14 18 -24
25 -1 0 -7 9 -14 19 -7 10 -13 18 -16 19 -4 2 -6 3 -7 4 -1 1 -2 1 -4 2 -5 2
-211 2 -241 0z m84 -57 c12 -12 3 -31 -13 -31 -11 0 -18 7 -18 18 0 11 7 18
18 18 6 0 9 -1 13 -5z m113 -23 c5 -5 5 -11 0 -16 -10 -10 -27 5 -16 16 4 4
12 4 16 0z m-55 -85 c12 -12 3 -31 -13 -31 -11 0 -18 7 -18 18 0 11 7 18 18
18 6 0 9 -1 13 -5z m116 -10 c8 -9 8 -21 0 -30 l-6 -6 -24 0 -24 0 -6 6 c-8 9
-8 21 0 30 l6 6 24 0 24 0 6 -6z m-195 -66 l-5 -5 -4 4 -5 5 4 4 5 5 4 -4 5
-5 -4 -4z m351 -32 c12 -12 3 -31 -13 -31 -11 0 -18 7 -18 18 0 11 7 18 18 18
6 0 9 -1 13 -5z"/>
<path d="M1324 3363 c-6 -2 -15 -8 -20 -11 -5 -4 -16 -11 -24 -15 -16 -7 -24
-13 -29 -24 -4 -5 -4 -15 -5 -102 0 -64 1 -99 2 -104 3 -10 9 -15 23 -17 6 -1
12 -2 12 -3 1 0 3 1 5 3 2 1 10 4 16 6 15 4 17 3 24 -9 2 -5 6 -9 8 -10 2 -1
4 -2 4 -3 0 -3 20 -9 24 -7 2 0 4 0 4 -2 0 -1 4 5 9 13 9 13 9 15 8 24 -1 14
-5 20 -12 22 -10 3 -27 1 -36 -3 l-8 -4 -4 6 c-8 14 -2 23 19 28 8 2 21 6 28
9 22 10 36 6 36 -10 0 -8 8 -36 10 -36 1 0 2 -1 2 -2 0 -1 3 -5 7 -9 9 -10 10
-13 10 -25 0 -19 -8 -27 -27 -27 -8 0 -13 2 -19 5 -4 2 -11 5 -18 5 -12 1 -13
1 -25 -22 -5 -10 -8 -13 -11 -13 -3 0 -3 -1 -2 -2 2 0 3 -7 3 -15 1 -23 -3
-22 88 -22 l75 0 8 5 c5 2 12 8 16 13 5 5 11 11 14 13 13 8 26 4 40 -13 9 -11
21 -17 34 -18 11 0 21 1 21 3 0 1 3 3 7 5 4 2 9 6 11 10 20 26 34 26 54 0 2
-4 7 -8 11 -10 4 -2 7 -4 7 -5 0 -2 12 -3 47 -3 43 0 42 -1 43 22 0 8 1 15 3
15 1 1 1 2 -1 2 -2 0 -6 3 -10 7 -11 14 -7 30 9 34 12 3 27 12 33 20 l5 8 0
59 1 59 -5 4 c-4 4 -7 5 -19 5 -8 0 -14 1 -14 2 -1 1 -3 -1 -5 -5 -2 -5 -5 -9
-7 -11 -3 -3 -9 -17 -8 -17 1 0 0 -2 -1 -3 -2 -2 -4 -9 -6 -17 -4 -19 -13 -27
-30 -26 -27 1 -36 25 -20 54 4 7 5 11 4 20 -1 14 -2 16 -6 21 -10 12 -12 29
-5 48 8 25 18 34 35 35 11 1 16 -2 30 -16 18 -18 18 -17 30 -16 10 0 12 1 17
9 8 11 12 27 8 38 -3 10 -15 24 -19 24 -2 0 -3 1 -3 2 0 2 3 2 -108 3 -117 1
-113 2 -139 -15 -18 -12 -29 -17 -43 -19 -10 -1 -11 0 -29 19 -15 16 -14 16
-100 16 -75 0 -76 0 -87 -5z m187 -115 c2 -1 4 -7 6 -13 7 -25 22 -38 41 -38
15 0 23 -8 23 -22 0 -5 -1 -9 -1 -9 -1 0 -4 -4 -6 -9 -3 -6 -6 -11 -8 -12 -3
-3 -8 -11 -14 -26 -1 -2 -2 -7 -3 -10 -4 -19 -36 -25 -49 -10 -8 9 -9 20 -2
46 l6 25 -3 10 c-4 12 -4 11 -14 23 -11 14 -13 17 -13 28 0 13 4 19 14 21 8 1
19 0 23 -4z m-203 -36 c5 -6 5 -12 0 -18 -7 -8 -22 -2 -22 9 0 11 15 17 22 9z"/>
<path d="M1284 3054 c0 -4 -1 -4 -16 -4 -9 0 -17 0 -18 -1 -4 -4 -5 -24 -1
-34 3 -9 17 -27 17 -22 0 1 1 1 2 0 2 -4 16 -7 22 -5 10 4 12 8 12 22 0 9 1
14 3 15 1 0 0 1 -2 1 -6 0 -15 14 -17 25 -1 4 -2 6 -2 3z"/>
<path d="M789 2969 c-18 -5 -27 -28 -19 -45 5 -9 5 -30 2 -37 -2 -2 -6 -13
-10 -25 -8 -22 -12 -27 -22 -29 -9 -2 -21 14 -18 24 2 5 -3 27 -7 39 -3 7 -5
16 -6 19 0 3 -1 6 -1 6 0 0 -1 2 -1 5 -1 3 -2 6 -3 7 -1 1 -2 5 -2 8 0 3 -1 5
-1 4 -1 -2 -6 -3 -15 -3 -8 0 -14 -1 -16 -2 -1 -2 -2 -2 -2 -1 0 1 -2 -2 -3
-7 -2 -7 -3 -22 -3 -61 0 -67 1 -72 22 -74 6 -1 12 -2 14 -3 3 -1 4 -1 5 1 0
2 3 3 7 3 6 0 10 -4 14 -16 3 -10 10 -17 18 -19 8 -2 8 -2 27 -1 23 1 32 -7
32 -27 0 -27 -25 -37 -51 -20 -12 7 -14 8 -28 8 -14 0 -16 0 -31 -9 -25 -15
-28 -20 -29 -61 0 -29 0 -33 4 -41 6 -13 13 -20 27 -27 3 -1 9 -5 12 -8 13
-10 13 -35 1 -47 -8 -7 -11 -17 -12 -32 0 -12 0 -14 7 -25 8 -13 17 -23 21
-23 1 0 2 -1 2 -1 0 -1 5 -4 10 -7 6 -3 16 -10 23 -17 8 -9 17 -16 29 -22 17
-8 22 -14 22 -22 0 -5 11 -28 16 -32 13 -13 38 -15 61 -5 15 6 22 11 35 28 12
16 18 19 35 17 28 -5 41 1 52 24 10 20 17 24 33 17 6 -3 18 -22 18 -29 0 -8
11 -26 25 -40 15 -15 16 -17 15 -31 0 -3 -2 -7 -5 -10 -4 -4 -6 -4 -19 -4 -28
1 -35 0 -44 -4 -4 -2 -8 -5 -9 -6 -1 -1 -3 -3 -6 -4 -7 -3 -39 -24 -39 -26 0
-1 -1 -3 -3 -4 -10 -11 -12 -16 -13 -40 -1 -34 -6 -36 -17 -9 -3 8 -10 20 -14
27 -8 11 -9 14 -9 23 0 24 -11 43 -27 46 -4 1 -22 1 -41 0 -33 0 -36 -1 -52
-7 -20 -8 -25 -8 -47 1 l-18 6 -47 0 c-46 0 -58 -1 -58 -3 0 -1 -3 -3 -7 -5
-4 -1 -9 -6 -12 -10 -12 -17 -24 -21 -34 -13 -4 3 -8 3 -19 3 -18 0 -21 -3
-18 -20 5 -22 14 -32 38 -40 18 -6 20 -7 21 -12 4 -13 -5 -21 -20 -18 -13 3
-32 0 -38 -6 -6 -6 -7 -18 -2 -27 2 -5 31 -24 33 -23 1 1 4 -1 6 -4 3 -3 4 -5
3 -5 0 0 1 -4 4 -8 3 -4 5 -8 5 -9 0 -4 10 -14 19 -18 l10 -5 187 0 c178 0
187 0 195 4 8 4 17 12 18 16 0 2 1 6 3 9 1 3 3 10 4 15 2 11 8 16 19 16 13 0
16 -2 24 -18 8 -17 13 -21 24 -24 9 -2 11 -3 28 -2 20 1 28 -8 24 -25 -4 -13
-7 -17 -34 -31 -11 -6 -14 -14 -14 -39 0 -23 -2 -29 -10 -43 -8 -13 -7 -26 2
-36 4 -4 9 -8 10 -8 2 0 3 -1 3 -2 0 -2 2 -2 88 -3 56 -1 86 -1 93 1 12 3 19
9 25 25 l5 11 -3 12 c-2 6 -5 13 -6 15 -3 7 -8 23 -8 27 0 6 7 12 14 12 5 0 9
-3 21 -14 l14 -15 12 0 c12 1 16 3 23 19 4 7 4 12 4 38 l-1 29 6 6 6 6 35 -1
c49 0 57 3 56 26 0 6 1 11 3 12 1 1 0 2 -2 2 -5 0 -21 18 -21 22 0 4 -18 30
-26 38 -8 7 -14 18 -14 23 0 3 6 10 10 11 3 0 22 -6 26 -9 1 -1 10 -2 20 -3
l17 -1 8 9 c7 7 7 9 7 21 l0 13 -11 6 c-12 7 -21 15 -26 25 -2 4 -5 7 -5 7 -1
0 -2 1 -2 3 0 4 -10 12 -20 16 -7 2 -14 3 -32 3 -18 -1 -24 0 -26 2 -2 2 -6 5
-8 7 -3 1 -4 3 -3 3 2 0 3 3 4 6 0 4 2 6 3 5 1 -1 2 0 2 1 0 3 4 2 13 -2 7 -4
12 -4 77 -4 65 0 69 0 77 4 10 5 13 8 14 14 0 2 1 5 2 5 0 1 1 5 1 8 0 4 1 7
3 8 1 0 1 1 -1 1 -9 0 1 20 10 20 8 0 14 -20 7 -20 -3 0 -3 -1 -1 -1 1 -1 2
-4 2 -8 0 -3 1 -7 1 -8 1 0 2 -3 2 -5 1 -6 4 -9 14 -14 8 -4 12 -4 90 -3 87 1
87 1 87 3 0 1 1 2 3 2 1 0 5 3 9 7 9 10 11 22 5 37 -8 19 -8 23 0 47 9 26 9
51 3 79 -5 21 -5 32 -1 50 5 20 5 26 1 34 -5 10 -10 13 -22 15 -10 2 -12 2
-12 6 0 4 2 4 12 6 23 3 26 11 26 67 0 50 -1 57 -15 73 -16 19 -17 21 -17 34
0 14 5 25 20 39 11 10 14 20 11 37 -2 11 -2 12 -21 11 -12 0 -16 0 -16 2 0 3
-7 -23 -9 -35 -2 -9 -7 -13 -22 -14 -18 -1 -29 5 -33 20 -3 13 0 25 11 35 14
13 18 17 24 29 6 10 6 12 0 26 -9 21 -21 23 -48 6 -24 -16 -30 -16 -54 0 -21
13 -29 16 -47 15 -17 -1 -18 -2 -18 -22 0 -11 -1 -16 -2 -16 -2 0 0 -1 3 -3 8
-3 11 -8 11 -20 0 -14 -7 -20 -22 -18 -32 4 -41 3 -52 -1 -25 -9 -32 -4 -32
24 0 11 -1 22 -2 26 -3 9 -13 22 -19 23 -3 1 -5 2 -5 4 0 1 0 1 -1 1 -1 -1 -4
-1 -8 0 -14 3 -32 -19 -38 -45 -5 -24 -49 -24 -54 0 -3 16 -13 33 -23 40 l-9
6 -71 0 c-70 0 -71 0 -80 -5 -5 -2 -11 -7 -15 -11 -3 -3 -9 -8 -12 -9 -6 -4
-19 -5 -19 -2 0 2 -1 2 -1 1 -1 0 -4 0 -6 1 -5 2 -13 4 -19 5 -2 0 -3 0 -4 1
-1 1 -5 3 -9 5 -4 2 -8 6 -8 7 0 4 -8 5 -12 2 -2 -1 -3 -1 -5 0 -1 2 -4 3 -5
4 -5 1 -265 2 -270 1z m288 -23 c0 -10 0 -14 -2 -14 -2 0 -3 4 -2 13 0 7 -1
13 -2 14 -1 0 0 1 2 0 4 0 4 -1 4 -13z m4 -19 c4 -3 4 -3 -1 -8 l-5 -5 -4 4
c-5 4 -5 5 -2 8 4 5 7 5 12 1z m-179 -15 c10 -3 14 -8 14 -21 0 -17 -7 -23
-26 -21 -12 1 -38 18 -43 27 -3 6 -3 6 1 10 3 3 7 5 10 6 8 1 36 1 44 -1z
m732 -69 c4 -2 7 -7 11 -16 3 -8 9 -21 13 -29 8 -17 9 -28 3 -46 -3 -11 -3
-25 0 -48 2 -11 -4 -18 -16 -18 -15 0 -21 13 -14 30 4 10 6 27 3 35 -2 9 -7
15 -26 35 -7 7 -15 15 -16 18 -4 7 -3 24 1 31 6 12 26 16 41 8z m-758 -35 c5
-5 5 -15 0 -20 -9 -9 -24 -2 -24 10 0 8 6 14 14 14 3 0 8 -2 10 -4z m133 -28
c20 -8 34 -10 54 -10 18 1 18 1 24 -5 4 -4 6 -7 6 -7 0 -1 1 -7 3 -14 6 -22 7
-31 2 -36 -8 -8 -18 -2 -26 15 -10 21 -23 26 -59 24 -50 -3 -52 -3 -56 3 -2 3
-5 6 -6 7 -1 1 -2 3 -1 5 7 15 11 22 12 22 0 -1 2 0 4 1 11 4 24 3 43 -5z
m512 -10 c7 -6 7 -19 1 -25 -6 -6 -14 -6 -39 -1 -26 6 -90 5 -101 -1 -13 -7
-20 -16 -27 -40 -6 -20 -13 -22 -43 -16 -8 1 -21 3 -28 4 -19 2 -27 8 -31 22
-3 11 -3 12 1 16 3 3 10 6 16 8 15 4 23 8 32 15 8 8 14 10 25 11 4 1 17 2 27
3 10 1 45 3 76 4 32 0 58 2 59 3 1 0 8 1 15 1 10 0 14 -1 17 -4z m-90 -82 c3
-2 11 -8 17 -14 6 -5 12 -10 12 -10 6 0 13 -26 15 -55 1 -17 12 -43 18 -43 1
0 5 -2 8 -4 2 -2 9 -5 15 -6 21 -4 42 -12 46 -17 5 -7 5 -22 0 -35 -7 -17 -12
-32 -13 -42 -3 -15 -13 -21 -29 -18 -14 3 -18 17 -11 39 2 5 4 11 5 13 1 3 0
12 -1 19 -1 5 -9 13 -18 18 -7 3 -12 4 -32 5 -23 0 -25 0 -37 -5 -13 -6 -28
-21 -32 -30 -1 -4 -5 -14 -7 -25 -5 -20 -8 -24 -16 -24 -10 0 -13 6 -12 24 1
15 -2 28 -6 28 0 0 -1 1 0 2 1 2 1 2 0 1 -2 0 -4 0 -5 2 -3 3 -29 3 -32 -1 -2
-1 -6 -2 -10 -2 -16 0 -22 18 -10 29 6 5 12 6 22 3 5 -1 6 -1 14 7 5 4 5 8 -4
36 -6 21 -2 36 14 42 6 3 21 2 28 -1 8 -3 9 -5 13 -23 0 -3 4 -11 7 -18 5 -11
7 -13 16 -18 13 -6 19 -6 29 -1 11 4 14 9 18 22 l3 10 -8 17 c-8 17 -13 22
-35 34 -12 6 -17 14 -17 26 0 13 6 19 19 19 6 0 12 -1 16 -4z m-198 -56 c7 -6
7 -19 1 -25 -6 -7 -19 -7 -25 -1 -7 6 -7 19 -1 25 6 7 19 7 25 1z m539 -13 c0
-7 -4 -10 -9 -5 l-5 5 4 4 c5 6 10 4 10 -4z m-834 0 c3 -4 4 -7 5 -17 0 -25
-9 -29 -28 -16 -11 8 -11 8 -11 19 0 7 1 11 4 14 7 8 23 8 30 0z m161 -2 c4
-2 7 -5 8 -7 1 -2 2 -4 3 -4 1 0 4 -5 7 -11 5 -10 6 -14 6 -27 0 -14 0 -15 -7
-20 -3 -3 -9 -6 -12 -7 -3 -1 -36 -2 -74 -3 l-69 -1 -5 6 c-2 3 -6 5 -7 5 -2
0 -2 1 1 5 2 2 6 6 8 9 2 3 4 3 4 2 1 -2 10 -3 35 -4 38 0 48 1 57 10 6 6 14
27 14 35 0 13 16 19 31 12z m607 -42 l-5 -5 -4 4 -5 5 4 4 5 5 4 -4 5 -5 -4
-4z m-466 -75 c9 -8 8 -21 -1 -41 -4 -9 -9 -23 -10 -32 -4 -18 -6 -25 -15 -36
-7 -9 -13 -36 -9 -39 1 0 4 -4 6 -7 1 -3 5 -8 7 -11 3 -3 5 -6 5 -7 0 -2 -1
-4 -1 -5 0 -1 -1 -2 -2 -2 -8 1 -19 0 -23 -3 -6 -5 -5 -38 1 -34 1 1 5 -2 10
-6 4 -4 8 -7 8 -7 1 0 3 -3 6 -7 2 -4 8 -10 13 -13 11 -7 9 -7 47 -3 15 2 22
-3 22 -14 0 -12 -22 -23 -51 -26 -11 -2 -18 2 -32 14 -5 5 -31 18 -33 17 -1 0
-3 2 -6 5 -5 6 -6 22 -1 26 2 2 3 7 4 16 1 13 1 14 -6 20 -3 3 -10 8 -14 10
-13 8 -14 12 -13 46 0 10 -1 21 -3 28 -4 15 -4 28 0 35 1 3 8 7 16 11 23 12
28 18 33 45 5 22 9 26 25 26 10 0 12 -1 17 -6z m-286 -18 c5 -6 5 -12 0 -18
-7 -8 -22 -2 -22 9 0 11 15 17 22 9z m791 -22 c4 -4 5 -7 5 -13 0 -12 -5 -16
-26 -20 -37 -7 -50 -3 -50 14 0 12 6 16 24 20 24 4 42 4 47 -1z m-120 -17 c3
-5 3 -5 -1 -11 -6 -7 -10 -7 -14 0 -2 5 -2 6 1 11 5 6 9 6 14 0z m-252 -53 c4
-4 11 -30 9 -30 -1 0 -1 -1 -1 -2 3 -9 -10 -11 -22 -3 -15 10 -20 25 -11 34 6
7 20 7 25 1z m-122 -67 c5 2 10 -8 7 -14 -3 -7 -7 -8 -15 -4 -4 2 -9 3 -11 3
-2 0 -4 1 -4 2 0 1 -1 2 -2 1 -1 -1 -1 1 0 4 1 5 3 6 10 8 5 1 10 2 11 1 1 -1
3 -1 4 -1z m-380 -79 c10 -9 3 -26 -10 -26 -8 0 -15 7 -15 15 0 13 16 20 25
11z m328 -113 c8 -11 -6 -22 -16 -13 -5 5 -5 8 1 14 4 6 11 5 15 -1z m90 -27
c10 -9 3 -26 -10 -26 -8 0 -15 7 -15 15 0 13 16 20 25 11z"/>
<path d="M700 2418 c0 -4 -2 -4 -16 -4 -19 -1 -19 -1 -21 -2 -3 -3 -1 -40 2
-47 4 -9 14 -21 18 -21 2 0 3 -1 3 -2 0 -1 1 -1 3 -2 29 -3 29 -3 39 3 l11 5
0 15 0 15 -14 9 c-18 11 -19 13 -22 25 -2 5 -3 7 -3 6z"/>
<path d="M1596 2318 c-9 -3 -17 -11 -21 -22 -4 -10 -3 -16 8 -40 9 -17 9 -20
9 -31 -1 -13 -8 -21 -17 -21 -14 0 -47 -20 -47 -29 -1 -12 -10 -37 -15 -39 -2
-1 -3 -2 -2 -2 2 0 3 -4 3 -12 0 -6 1 -13 2 -16 6 -10 11 -10 109 -10 108 0
104 -1 125 20 13 12 15 14 22 14 7 0 9 -2 22 -14 19 -19 23 -20 78 -20 36 0
45 1 50 3 3 2 6 4 6 4 0 1 -1 1 -2 0 -2 -1 -2 -1 -1 1 1 2 3 9 3 16 0 7 1 14
1 14 1 1 0 2 -2 2 -1 0 -4 2 -7 5 -4 5 -5 7 -5 20 0 15 0 16 6 20 33 28 34 29
35 72 0 26 0 33 -3 40 -4 9 -14 21 -18 21 -2 0 -3 1 -3 2 0 1 -5 2 -10 2 -9 0
-14 -1 -29 -9 -24 -12 -28 -12 -52 0 l-20 10 -36 1 c-36 0 -37 0 -52 -5 -27
-10 -36 -19 -38 -39 -1 -9 -1 -13 2 -19 6 -13 5 -14 -4 -28 -12 -17 -12 -30
-3 -46 8 -15 8 -29 0 -37 -5 -5 -7 -6 -17 -6 -10 0 -12 1 -17 6 -8 8 -9 24 0
35 8 12 9 17 9 28 -1 10 -4 17 -8 23 -3 3 -4 9 -3 22 0 2 5 9 11 15 10 11 10
12 11 23 0 14 -3 18 -19 24 -14 4 -47 6 -61 2z m167 -80 c10 -9 3 -26 -10 -26
-5 0 -8 2 -12 6 -6 8 -6 11 0 18 7 7 16 8 22 2z"/>
</g>
</svg>
