<?xml version="1.0" standalone="no"?>
<!DOCTYPE svg PUBLIC "-//W3C//DTD SVG 20010904//EN"
 "http://www.w3.org/TR/2001/REC-SVG-20010904/DTD/svg10.dtd">
<svg version="1.0" xmlns="http://www.w3.org/2000/svg"
 width="1100.000000pt" height="2850.000000pt" viewBox="0 0 1100.000000 2850.000000"
 preserveAspectRatio="xMidYMid meet">
<metadata>
Created by potrace 1.15, written by Peter Selinger 2001-2017
</metadata>
<g transform="translate(0.000000,2850.000000) scale(0.500000,-0.500000)"
fill="#000000" stroke="none">
<path d="M1386 3817 c-16 -4 -54 -14 -94 -25 -21 -5 -54 -14 -73 -19 -19 -5
-36 -10 -38 -10 -32 -7 -45 -19 -45 -40 -1 -8 3 -18 17 -54 10 -24 18 -44 19
-45 1 0 0 -2 -3 -5 -3 -3 -6 -5 -6 -5 0 -1 -84 -1 -186 -2 -102 -1 -187 -2
-188 -2 -2 0 -3 -1 -3 -2 0 -1 -1 -2 -3 -2 -4 0 -14 -12 -18 -21 -5 -11 -5
-215 0 -226 4 -9 14 -21 18 -21 2 0 3 -1 3 -2 0 0 2 -2 6 -2 3 -1 260 -1 572
-1 312 0 569 0 573 1 3 0 5 2 5 2 0 1 1 2 3 2 4 0 14 12 18 22 3 7 3 11 2 26
-2 18 -2 29 0 127 1 56 1 64 -2 72 -4 9 -14 21 -18 21 -2 0 -3 1 -3 2 0 2 -2
2 -54 3 -61 2 -64 1 -84 -19 -19 -19 -23 -19 -41 -1 -21 21 -12 20 -133 21
l-105 1 -7 5 c-4 2 -7 6 -7 8 -1 2 -4 11 -9 20 -4 9 -10 23 -13 31 -5 12 -16
37 -27 60 -16 33 -22 47 -22 48 0 1 -3 7 -7 13 -11 16 -30 24 -47 19z m-426
-254 c21 -9 20 -45 -2 -54 -10 -5 -28 -1 -34 6 -9 10 -9 32 0 42 7 8 24 11 36
6z m737 -8 c12 -12 3 -31 -13 -31 -11 0 -18 7 -18 18 0 11 7 18 18 18 6 0 9
-1 13 -5z m-444 -23 c10 -9 3 -26 -10 -26 -8 0 -15 7 -15 15 0 13 16 20 25 11z
m294 -23 c12 -12 3 -31 -13 -31 -11 0 -18 7 -18 18 0 11 7 18 18 18 6 0 9 -1
13 -5z m-16 -85 c4 -6 4 -24 -1 -30 -7 -9 -27 -9 -34 0 -5 6 -5 24 0 30 7 9
27 9 35 0z"/>
<path d="M260 3775 c-4 -2 -90 -69 -99 -78 -1 -1 -5 -4 -9 -7 -15 -11 -25 -23
-30 -35 -2 -7 -6 -15 -8 -19 -9 -17 -11 -22 -11 -36 l0 -13 12 -11 c35 -33 67
-67 90 -94 9 -10 16 -19 17 -20 8 -8 14 -20 14 -29 l0 -10 -18 -18 c-17 -15
-39 -35 -61 -53 -4 -3 -10 -8 -12 -10 -2 -1 -8 -6 -13 -10 -15 -11 -22 -18
-22 -21 0 -2 -1 -3 -2 -3 -2 0 -5 -18 -4 -29 1 -19 0 -22 -5 -27 -5 -5 -20 -6
-27 -1 -6 4 -30 4 -35 0 -7 -5 -6 -24 3 -35 34 -47 72 -111 107 -178 9 -19 20
-37 23 -40 6 -7 16 -11 28 -10 9 1 11 3 25 15 1 1 11 10 23 20 29 25 37 33 82
77 24 23 42 39 45 40 4 0 12 -10 14 -18 1 -3 4 -19 8 -36 13 -55 12 -71 -5
-100 -5 -7 -8 -13 -8 -13 0 -1 -29 -45 -45 -69 -13 -19 -63 -81 -77 -96 -2 -2
-7 -8 -13 -14 -33 -37 -91 -92 -125 -119 -2 -1 -7 -5 -12 -9 -5 -4 -10 -8 -11
-9 -2 -1 -13 -9 -26 -18 -28 -19 -31 -23 -31 -41 0 -12 4 -20 12 -28 3 -3 56
-81 65 -96 16 -27 33 -57 44 -80 14 -26 20 -31 37 -32 9 0 14 0 16 2 2 2 9 8
17 15 24 20 27 26 28 52 1 16 3 17 24 18 23 1 27 2 43 19 28 29 72 78 81 91 4
4 5 5 7 4 4 -4 8 -18 7 -27 0 -5 -1 -21 -2 -35 -1 -14 -2 -35 -3 -46 -2 -20
-1 -36 2 -38 1 -1 2 -3 2 -5 0 -3 7 -12 23 -26 7 -6 8 -10 7 -22 0 -7 -5 -10
-20 -18 -21 -11 -31 -24 -37 -51 -5 -19 -16 -42 -24 -51 -17 -17 -42 -22 -120
-22 -28 0 -65 1 -82 2 -32 2 -43 0 -50 -10 -7 -12 -6 -22 5 -46 9 -21 14 -34
15 -36 0 -1 3 -8 5 -17 15 -45 28 -108 28 -143 1 -11 7 -28 13 -36 11 -13 32
-16 113 -14 82 1 157 15 206 37 52 25 94 69 125 131 13 27 16 30 24 30 5 0 25
-11 29 -16 1 -1 4 -4 8 -6 11 -7 40 -28 42 -31 2 -1 6 -4 10 -7 4 -3 7 -5 8
-6 1 -1 7 -6 15 -12 16 -12 17 -14 33 -27 15 -12 22 -16 35 -14 14 2 17 4 36
30 29 39 31 42 38 58 13 27 14 29 21 36 7 8 16 9 25 4 8 -4 12 -13 17 -37 2
-12 7 -29 11 -39 12 -34 29 -89 32 -106 4 -19 17 -35 34 -42 8 -3 15 -4 77 -2
66 1 85 3 90 9 2 1 3 7 2 16 0 11 0 15 2 16 2 2 2 2 0 2 -2 0 -6 2 -9 4 -11 9
-4 28 11 28 16 0 22 -19 10 -29 -4 -3 -6 -5 -4 -5 2 0 2 -3 2 -13 -1 -14 -1
-14 5 -16 3 -1 7 -2 9 -3 9 -3 48 2 83 11 104 26 161 75 182 156 10 37 10 55
11 221 0 81 1 147 1 148 1 2 1 25 -1 84 l-1 53 6 6 6 6 155 0 c152 0 166 0
166 3 0 1 1 2 3 2 4 0 14 12 18 21 5 12 5 606 0 618 -4 9 -14 21 -18 21 -2 0
-3 1 -3 2 0 1 -1 2 -2 2 -2 0 -227 1 -501 1 l-498 1 -10 -5 c-12 -6 -15 -9
-21 -21 -4 -9 -4 -12 -4 -310 0 -272 0 -302 3 -309 4 -9 14 -21 18 -21 2 0 3
-1 3 -2 0 -3 14 -3 183 -3 l172 0 6 -6 6 -6 -1 -194 -1 -195 -5 -5 c-3 -3 -9
-6 -13 -7 -10 -3 -185 -1 -192 2 -6 2 -14 11 -11 12 1 0 9 12 17 26 9 14 18
29 19 32 2 3 5 7 6 9 1 2 3 6 5 8 9 15 19 33 30 51 18 32 19 34 30 54 6 10 12
23 15 27 6 10 27 51 27 54 7 22 -3 40 -26 49 -4 2 -24 9 -44 15 -39 12 -71 23
-123 39 -37 12 -46 13 -61 6 -12 -6 -13 -8 -39 -58 -18 -37 -40 -77 -52 -97
-2 -3 -5 -8 -6 -10 -1 -2 -5 -9 -9 -15 -4 -6 -11 -17 -16 -25 -20 -32 -32 -50
-33 -51 -1 -1 -6 -8 -12 -17 -11 -17 -15 -21 -19 -17 -2 2 -2 23 0 31 0 3 1 9
2 15 1 6 2 12 2 15 4 18 9 69 8 75 -2 10 -8 22 -17 35 -7 10 -8 13 -8 22 0 11
2 15 16 30 17 18 20 29 20 73 0 28 -2 35 -13 57 -10 19 -9 34 3 53 10 14 12
28 12 76 0 48 -2 70 -7 81 -12 26 -13 37 -7 58 6 19 3 31 -10 43 -2 2 -5 4 -6
4 -1 0 -5 3 -10 8 -14 12 -14 33 1 49 4 5 9 10 11 12 4 5 8 20 8 29 0 11 -10
73 -17 103 -3 12 -6 24 -6 27 -1 2 -3 9 -4 16 -2 6 -4 13 -4 15 -9 42 -42 135
-52 145 -4 4 -8 10 -9 13 -5 13 -2 45 5 52 1 2 4 5 6 8 2 3 6 8 8 11 3 3 8 9
10 13 3 4 8 11 10 14 6 7 6 7 15 20 4 6 8 11 9 13 4 4 25 35 38 56 7 9 17 25
23 34 10 16 11 18 11 28 0 13 -4 21 -14 30 -10 7 -8 6 -30 21 -10 7 -18 13
-19 14 0 0 -2 1 -3 1 -1 0 -3 1 -3 2 -1 0 -9 6 -19 13 -10 7 -19 13 -21 15 -1
1 -3 2 -4 2 -1 0 -3 1 -4 3 -2 1 -8 6 -15 10 -7 4 -12 8 -13 9 -1 1 -10 7 -21
15 l-21 13 -13 0 c-15 -1 -21 -5 -31 -19 -3 -6 -7 -11 -9 -13 -1 -2 -6 -9 -12
-17 -13 -20 -15 -22 -29 -41 -15 -20 -17 -22 -26 -22 -6 0 -8 2 -24 19 -31 33
-61 63 -90 87 -8 7 -16 14 -18 16 -8 8 -27 10 -40 5z m105 -332 c12 -12 3 -31
-13 -31 -11 0 -18 7 -18 18 0 11 7 18 18 18 6 0 9 -1 13 -5z m206 -98 c3 -3 3
-3 0 -6 -4 -5 -11 1 -7 6 4 4 4 4 7 0z m-228 -20 c4 -4 5 -7 5 -15 0 -14 -6
-20 -20 -20 -14 0 -20 6 -20 20 0 14 6 20 20 20 8 0 11 -1 15 -5z m634 -146
c12 -7 14 -33 3 -43 -8 -9 -32 -9 -40 0 -9 8 -9 32 0 41 7 7 27 8 37 2z m-68
-98 c12 -7 14 -33 3 -43 -8 -9 -32 -9 -40 0 -9 8 -9 32 0 41 7 7 27 8 37 2z
m636 -24 c5 -4 6 -6 6 -18 1 -31 6 -48 14 -54 6 -4 33 -8 39 -5 3 0 7 1 10 1
3 0 7 -1 9 -1 2 0 6 -3 9 -6 5 -5 6 -7 6 -18 0 -11 -1 -13 -6 -18 -6 -7 -9 -7
-32 -6 -23 2 -39 -12 -38 -33 1 -9 0 -11 -5 -16 l-6 -6 -215 0 -215 0 -6 6 -6
6 0 44 0 44 6 6 6 6 177 -1 c170 0 177 0 185 4 13 6 19 19 20 48 0 17 5 22 24
22 11 0 14 -1 18 -5z m-510 -92 c3 -3 3 -3 0 -6 -4 -5 -11 1 -7 6 4 4 4 4 7 0z
m310 -141 c10 -9 3 -26 -10 -26 -8 0 -15 7 -15 15 0 13 16 20 25 11z m-113
-80 c5 -5 5 -15 0 -20 -9 -9 -24 -2 -24 10 0 8 6 14 14 14 3 0 8 -2 10 -4z
m-718 -31 c21 -9 20 -45 -2 -54 -10 -5 -28 -1 -34 6 -9 10 -9 32 0 42 7 8 24
11 36 6z m-340 -137 c5 -6 5 -12 0 -18 -7 -8 -22 -2 -22 9 0 11 15 17 22 9z
m1132 -42 c5 -6 5 -12 0 -18 -7 -8 -22 -2 -22 9 0 11 15 17 22 9z m135 -14 c5
-5 6 -7 6 -16 0 -15 -8 -23 -23 -23 -9 0 -11 1 -16 7 -9 8 -9 23 -1 32 9 9 24
9 34 0z m-810 -9 c3 -5 3 -5 0 -10 -2 -3 -5 -5 -7 -5 -2 0 -5 2 -7 5 -3 5 -3
5 0 10 2 3 5 5 7 5 2 0 5 -2 7 -5z m-22 -127 c7 -6 7 -19 1 -25 -6 -7 -19 -7
-25 -1 -7 6 -7 19 -1 25 6 7 19 7 25 1z m630 -239 c3 -3 3 -3 0 -6 -4 -5 -11
1 -7 6 4 4 4 4 7 0z m-758 -62 c5 -8 1 -16 -8 -16 -9 0 -13 8 -8 16 2 3 5 5 8
5 3 0 6 -2 8 -5z"/>
<path d="M1719 2553 c-16 -6 -31 -11 -33 -12 -2 0 -9 -3 -17 -6 -8 -3 -15 -6
-17 -6 -2 0 -9 -3 -17 -6 -8 -3 -15 -5 -17 -6 -2 0 -9 -3 -17 -6 -8 -3 -15 -6
-17 -6 -15 -4 -33 -12 -38 -16 -1 -2 -3 -4 -5 -4 -8 -6 -11 -27 -6 -38 2 -5 6
-14 9 -21 4 -7 9 -18 12 -25 6 -12 11 -23 22 -49 8 -19 12 -21 30 -21 12 0 14
1 22 7 12 9 25 9 34 0 13 -12 6 -36 -11 -39 -13 -2 -25 -6 -25 -9 0 -1 -1 -2
-3 -2 -3 0 -6 -9 -7 -21 -1 -2 7 -24 17 -49 16 -38 34 -87 41 -106 1 -3 4 -11
7 -19 2 -8 7 -22 10 -32 10 -34 19 -45 39 -48 8 -1 16 2 110 39 55 22 105 42
109 45 17 8 25 21 25 38 0 6 -26 75 -41 108 -3 7 -6 15 -8 18 -1 3 -6 13 -10
22 -4 9 -7 17 -7 18 0 1 -6 13 -12 28 -12 25 -17 37 -29 62 -21 46 -73 151
-78 158 -7 9 -20 15 -32 15 -7 0 -20 -4 -40 -11z m87 -233 c5 -5 6 -7 6 -17 0
-16 -7 -23 -23 -23 -10 0 -12 1 -17 6 -5 5 -6 7 -6 17 0 16 7 23 23 23 10 0
12 -1 17 -6z m12 -152 c5 -5 6 -7 6 -17 0 -16 -7 -23 -23 -23 -10 0 -12 1 -17
6 -5 5 -6 7 -6 17 0 16 7 23 23 23 10 0 12 -1 17 -6z"/>
</g>
</svg>
