<?xml version="1.0" standalone="no"?>
<!DOCTYPE svg PUBLIC "-//W3C//DTD SVG 20010904//EN"
 "http://www.w3.org/TR/2001/REC-SVG-20010904/DTD/svg10.dtd">
<svg version="1.0" xmlns="http://www.w3.org/2000/svg"
 width="1000.000000pt" height="2850.000000pt" viewBox="0 0 1000.000000 2850.000000"
 preserveAspectRatio="xMidYMid meet">
<metadata>
Created by potrace 1.15, written by Peter Selinger 2001-2017
</metadata>
<g transform="translate(0.000000,2850.000000) scale(0.500000,-0.500000)"
fill="#000000" stroke="none">
<path d="M1318 3803 c-1 -1 -3 -1 -5 -2 -11 -2 -43 -12 -49 -15 -6 -3 -25 -21
-22 -21 2 0 -13 -27 -16 -29 -9 -5 -22 -3 -35 6 -12 8 -12 8 -25 7 -13 -1 -15
-2 -18 -13 -3 -11 -3 -15 6 -40 8 -21 16 -36 19 -32 0 0 6 1 13 0 13 -1 13 -1
21 7 14 13 31 8 31 -9 0 -13 -16 -20 -30 -14 -4 1 -6 1 -7 -2 -2 -1 -3 -2 -3
-1 0 1 -2 -1 -5 -4 -8 -7 -9 -30 -3 -43 7 -15 25 -32 39 -35 12 -3 19 -20 15
-36 -2 -7 -6 -13 -23 -30 -20 -20 -22 -22 -29 -22 -13 0 -26 6 -30 16 -4 7 -4
8 -1 15 5 10 7 40 3 49 -2 3 -5 11 -7 18 -5 14 -14 25 -24 29 -6 2 -26 2 -76
2 l-68 -1 -19 -7 -19 -7 -15 5 c-27 8 -35 6 -54 -18 -10 -12 -25 -17 -36 -11
-4 2 -7 2 -15 0 -5 -1 -10 -2 -11 -2 -1 0 -4 -2 -8 -5 -6 -5 -7 -6 -6 -19 0
-7 1 -14 2 -17 3 -6 2 -15 -2 -25 -4 -9 -4 -14 -4 -150 0 -124 0 -141 3 -148
8 -18 15 -22 45 -21 15 0 29 -1 38 -3 24 -5 43 -4 57 3 7 3 15 9 19 13 10 12
16 15 26 15 10 0 14 -2 28 -17 10 -9 20 -26 18 -30 -1 -3 -2 -13 -2 -20 -1 -7
3 -22 10 -41 7 -16 6 -25 -2 -33 -8 -8 -24 -8 -32 0 -3 3 -6 6 -5 7 0 0 -1 3
-3 6 -2 3 -4 6 -4 7 0 6 -13 19 -22 23 -10 4 -12 4 -85 3 -77 -1 -79 -1 -79
-3 0 -1 -1 -2 -3 -2 -4 0 -14 -12 -18 -21 -5 -11 -5 -217 0 -228 4 -9 14 -21
18 -21 2 0 3 -1 3 -2 0 -2 1 -2 81 -4 l77 -1 5 -5 c4 -4 4 -5 2 -13 -2 -4 -8
-30 -14 -56 -19 -78 -54 -201 -70 -241 -1 -4 -7 -19 -12 -33 -5 -14 -14 -38
-20 -53 -10 -24 -11 -28 -11 -39 1 -7 2 -12 4 -13 1 0 2 -2 2 -3 0 -3 20 -13
25 -13 10 0 16 -24 10 -45 -4 -13 -9 -17 -23 -18 -8 0 -10 1 -18 8 -8 6 -10 7
-21 7 -7 0 -15 -1 -18 -2 -5 -2 -5 -3 -4 -11 1 -14 6 -22 15 -27 16 -10 20
-24 10 -45 -5 -11 -13 -16 -28 -15 -30 2 -42 1 -44 -2 -2 -3 -2 -2 -2 1 0 1
-1 3 -2 3 -3 0 -8 21 -8 34 0 10 -2 18 -7 33 -13 36 -14 38 -14 56 0 18 0 18
10 38 l10 20 1 232 c0 210 0 233 -3 242 -4 13 -13 22 -28 31 -14 8 -17 12 -17
26 0 14 3 18 17 26 15 9 24 18 28 30 4 14 4 88 0 99 -4 9 -14 21 -18 21 -2 0
-3 1 -3 2 0 2 2 2 -123 3 -65 1 -120 1 -122 2 -4 1 -17 11 -15 11 1 0 0 7 -1
15 -2 15 -2 22 0 40 1 4 1 15 2 24 1 9 2 18 2 20 1 5 9 14 20 22 17 13 24 25
34 63 4 14 7 28 8 30 1 5 2 10 4 17 2 6 6 26 13 57 6 25 8 29 13 33 5 4 9 4
93 5 91 2 92 2 92 4 0 1 1 2 3 2 4 0 14 12 18 21 4 9 5 107 1 122 -3 10 -13
23 -25 31 -3 3 -8 7 -10 10 -4 8 -5 32 -2 39 2 3 3 7 3 8 0 2 3 6 6 9 5 6 5 6
2 10 -3 2 -6 4 -7 3 -2 0 -3 1 -4 4 0 3 0 3 -1 -1 0 -3 -2 -7 -4 -9 -3 -2 -4
-3 -3 -3 1 0 0 -1 -2 -2 -7 -3 -28 7 -36 18 -6 7 -14 14 -22 19 -7 3 -12 4
-43 5 -40 1 -46 0 -55 -8 -12 -11 -16 -35 -12 -83 1 -20 1 -21 -4 -26 -7 -7
-23 -7 -30 0 -5 5 -6 6 -4 22 4 42 4 56 0 68 -7 25 -13 27 -62 27 -40 0 -46
-1 -54 -10 -6 -6 -12 -27 -11 -36 0 -4 -1 -8 -4 -11 -5 -5 -6 -5 -23 -4 -15 1
-21 1 -33 -3 -25 -7 -25 -7 -29 -1 -3 4 -3 14 0 23 4 10 -3 31 -11 34 -3 1 -6
3 -6 4 0 3 -13 3 -96 3 -84 0 -96 0 -96 -3 0 -1 -1 -2 -3 -2 -4 0 -14 -12 -18
-21 -2 -6 -3 -15 -3 -40 0 -34 1 -41 9 -48 3 -4 16 -9 23 -10 3 -1 6 -2 6 -4
1 -1 2 -1 2 2 0 4 2 4 8 -2 l4 -4 -5 -5 c-5 -5 -7 -5 -7 0 0 2 -1 2 -2 1 0 -2
-3 -3 -6 -4 -7 -1 -20 -6 -23 -10 -8 -8 -9 -13 -9 -60 0 -36 1 -46 3 -52 4 -9
14 -21 18 -21 2 0 3 -1 3 -2 0 -2 2 -2 82 -3 l76 -1 9 -6 c4 -3 8 -6 9 -7 0
-1 4 -5 8 -10 16 -17 15 -23 -4 -32 -19 -8 -27 -18 -32 -39 -11 -46 -43 -154
-61 -205 -36 -101 -83 -198 -126 -262 -26 -37 -29 -47 -21 -70 2 -8 5 -15 6
-16 2 -2 2 -3 1 -3 -1 0 0 -2 1 -4 1 -2 7 -18 12 -36 12 -36 15 -45 22 -52 7
-5 23 -11 39 -13 7 -1 13 -3 16 -6 6 -5 13 -28 13 -42 0 -12 -2 -14 -16 -20
-22 -9 -29 -16 -28 -30 0 -13 12 -68 17 -76 9 -18 26 -22 43 -11 11 7 14 11
14 18 0 3 1 4 1 2 1 -2 2 -4 3 -4 1 -1 2 -3 3 -4 0 -2 1 -4 1 -5 1 -1 3 -8 4
-14 2 -15 5 -23 11 -29 4 -5 21 -13 30 -15 10 -2 15 -5 16 -12 4 -15 -1 -28
-11 -30 -13 -3 -29 -10 -35 -16 -11 -10 -11 -13 -11 -123 l0 -100 5 -11 c5
-11 13 -19 28 -27 21 -11 21 -45 0 -56 -23 -13 -33 -28 -33 -51 0 -7 1 -16 3
-20 4 -9 14 -21 18 -21 2 0 3 -1 3 -2 0 -3 12 -3 108 -3 96 0 108 0 108 3 0 1
1 2 3 2 4 0 14 12 18 21 3 7 3 16 3 57 l-1 49 6 6 6 6 24 -1 c27 0 36 2 49 12
16 12 27 13 42 1 16 -12 22 -13 64 -13 38 0 39 0 45 -5 4 -3 7 -5 8 -5 1 0 2
-5 2 -10 -1 -24 13 -34 51 -35 11 -1 22 -1 24 -2 5 -2 14 -13 20 -25 6 -12 15
-21 29 -30 7 -4 13 -8 14 -8 1 -1 11 -8 21 -14 10 -7 26 -18 36 -24 22 -17 38
-18 52 -6 6 4 35 47 49 70 10 17 16 27 31 54 9 16 17 31 19 34 4 7 12 8 16 1
4 -6 13 -29 17 -42 1 -3 6 -18 11 -32 4 -14 11 -36 15 -48 15 -51 28 -59 70
-44 29 10 84 24 122 30 4 1 16 3 28 5 12 2 35 6 53 9 18 3 32 6 33 6 1 0 6 1
12 2 11 1 30 4 37 6 2 0 8 1 14 2 23 3 36 13 37 31 0 9 -1 11 -6 18 -11 15
-14 21 -14 33 0 10 1 12 6 17 3 3 7 6 9 6 13 1 20 0 25 -3 5 -4 17 -22 24 -38
7 -13 21 -33 24 -33 1 0 2 -1 2 -2 0 -5 30 -11 42 -7 5 1 14 3 26 4 11 1 12 1
18 -5 3 -3 6 -7 6 -10 0 -2 4 -19 9 -39 5 -19 10 -41 11 -48 3 -18 9 -28 18
-33 16 -8 17 -8 126 36 123 49 120 48 128 63 6 12 7 22 3 36 -2 7 -4 13 -4 15
0 2 -1 5 -2 7 0 2 -1 6 -2 9 0 2 -1 6 -2 8 -1 2 -2 5 -2 8 -2 13 -20 69 -24
76 -3 5 -7 17 -9 26 -6 27 -21 67 -27 75 -16 19 -18 21 -29 21 -8 0 -10 -1
-10 -3 0 -2 -1 -5 -1 -7 0 -2 1 -5 3 -7 3 -4 3 -17 0 -28 -4 -11 -11 -16 -25
-16 -20 0 -28 8 -28 27 0 12 1 14 10 25 10 13 14 31 8 46 -1 4 -2 11 -2 14 1
7 9 22 16 27 4 4 10 23 8 31 0 3 -4 13 -8 21 -4 9 -7 16 -7 17 0 0 -3 7 -7 16
-4 8 -7 15 -7 16 0 1 -18 40 -32 69 -10 20 -19 27 -39 29 -5 1 -12 0 -24 -5
-9 -3 -37 -14 -63 -23 -26 -10 -49 -18 -52 -20 -3 -1 -6 -2 -7 -2 -1 0 -11 -5
-22 -10 -10 -5 -20 -9 -22 -9 -1 0 -4 -1 -5 -3 -1 -2 -4 -3 -5 -3 -1 0 -6 -3
-10 -7 -9 -8 -13 -7 -16 4 -1 4 -18 38 -22 44 -4 5 -4 7 -2 10 4 8 12 12 22
14 12 1 28 6 35 11 9 7 17 24 16 38 0 14 -1 18 -5 25 -4 9 -21 25 -25 25 -1 0
-2 1 -2 2 0 1 -3 3 -7 4 -18 6 -28 23 -23 41 1 4 4 10 6 12 3 3 13 8 20 10 10
2 10 3 10 19 0 9 -1 16 -2 15 0 -1 -2 1 -3 3 -2 2 -5 4 -7 4 -1 0 -9 2 -16 4
-7 2 -14 5 -16 5 -2 0 -34 10 -72 21 -72 21 -75 22 -89 15 -9 -5 -17 -14 -19
-22 -2 -7 -31 -108 -33 -114 -3 -11 -5 -26 -4 -31 2 -10 11 -23 18 -27 4 -2 7
-4 7 -6 0 -1 2 -4 5 -6 l4 -3 -5 -4 c-4 -5 -6 -5 -12 -3 -5 2 -9 2 -16 0 -6
-1 -10 -2 -10 -2 0 3 -13 -6 -16 -12 -5 -8 -5 -14 0 -38 5 -25 3 -32 -12 -44
-32 -25 -29 -22 -52 -73 -21 -47 -37 -77 -41 -74 -1 2 4 23 7 32 1 3 2 7 3 9
0 2 8 26 17 52 9 27 17 55 18 62 3 21 7 35 15 53 13 30 17 50 17 79 l0 26 11
19 c18 32 26 69 17 83 -6 10 -14 14 -31 13 -11 0 -11 0 -24 13 -16 15 -30 24
-45 27 -15 3 -21 6 -26 11 -4 4 -4 5 -1 10 5 7 7 7 31 8 24 2 23 2 39 -17 4
-4 12 -11 18 -15 7 -5 13 -9 14 -10 2 -4 28 -4 35 0 6 3 10 10 10 18 0 7 -5
18 -15 33 -11 16 -11 22 -3 48 8 22 10 28 16 33 5 4 16 3 32 -3 10 -3 14 -4
35 -3 23 1 23 1 28 -4 7 -7 7 -23 0 -30 -6 -6 -22 -7 -28 -2 -5 4 -28 4 -35 0
-3 -1 -7 -7 -10 -13 l-5 -10 4 -13 c4 -13 11 -21 20 -25 3 -1 47 -2 133 -2
l128 0 11 5 c7 3 11 5 11 8 0 1 1 3 3 3 1 0 1 0 -1 2 -3 2 8 17 16 21 8 4 32
3 42 -2 4 -2 11 -8 16 -14 7 -9 12 -13 21 -17 l12 -6 108 1 c111 0 113 1 113
3 0 1 1 2 3 2 4 0 14 12 18 21 5 12 4 60 -1 79 -5 16 -6 34 -2 43 4 10 3 25
-2 33 -5 6 -27 24 -30 24 -3 0 -8 11 -11 27 -6 30 -16 42 -38 47 -7 2 -64 2
-192 2 l-182 -1 -9 -5 c-5 -2 -12 -6 -14 -9 -7 -6 -20 -11 -26 -10 -8 2 -30
-4 -36 -10 -2 -2 -6 -7 -8 -11 -5 -10 -9 -12 -20 -12 -10 0 -17 4 -31 17 -3 3
-30 8 -33 6 -1 0 -3 1 -4 4 -3 6 1 19 7 21 6 2 14 20 16 37 1 3 2 11 3 18 4
23 8 64 8 72 0 4 -2 12 -5 18 -5 10 -7 12 -18 17 -11 5 -17 6 -103 16 -50 6
-93 10 -95 11 -7 0 -14 11 -15 21 -1 8 0 10 5 15 l6 6 206 0 c113 0 217 0 231
0 55 1 56 1 63 -6 l6 -6 -1 -57 c0 -48 0 -58 3 -65 4 -9 14 -21 18 -21 2 0 3
-1 3 -2 0 -3 13 -3 131 -3 118 0 131 0 131 3 0 1 1 2 3 2 4 0 14 12 18 21 3 7
3 18 3 84 -1 73 -1 76 -5 84 -3 5 -6 14 -8 20 -3 12 -3 13 1 27 5 17 4 28 -3
44 -7 15 -7 23 4 45 10 20 10 20 11 43 0 17 0 24 -3 31 -4 9 -14 21 -18 21 -2
0 -3 1 -3 2 0 2 -9 3 -39 3 -33 0 -40 -2 -55 -17 -3 -4 -6 -6 -7 -6 -2 0 -3
-1 -3 -2 -1 -2 -5 -3 -10 -3 -5 0 -9 1 -10 3 0 1 -1 2 -3 2 -1 0 -4 2 -7 6
-14 14 -22 17 -52 17 -25 0 -26 0 -35 -6 -8 -5 -11 -9 -19 -24 -11 -20 -15
-24 -31 -24 -16 0 -20 4 -31 24 -13 25 -20 30 -49 31 -23 1 -34 6 -36 16 -1 3
-2 6 -3 7 -1 1 -2 3 -2 5 0 6 -12 18 -22 21 -5 2 -16 4 -25 4 -14 2 -17 2 -21
7 -5 5 -6 7 -6 16 0 12 2 16 13 27 13 14 18 34 11 44 -9 12 -31 13 -45 3 -8
-6 -11 -7 -21 -7 -17 0 -24 6 -27 22 -2 15 -12 28 -24 33 -5 2 -22 3 -23 1z
m-1135 -151 c15 -11 24 -14 45 -15 23 -1 28 -3 44 -18 6 -6 15 -12 20 -15 31
-16 32 -19 35 -55 2 -20 -1 -37 -6 -43 -10 -11 -49 -11 -61 -2 -2 2 -3 7 -3
17 0 25 -9 40 -28 47 -34 13 -42 19 -51 37 -3 5 -6 11 -8 13 -6 6 -14 22 -14
27 0 13 14 17 27 7z m534 -87 c3 -5 3 -5 0 -10 -2 -3 -5 -5 -7 -5 -2 0 -5 2
-7 5 -3 5 -3 5 0 10 2 3 5 5 7 5 2 0 5 -2 7 -5z m142 -49 c3 -4 3 -4 0 -9 -5
-6 -8 -6 -13 -1 -5 5 -5 8 0 11 4 4 9 4 13 -1z m-19 -4 c0 -3 -3 -3 -14 -2
-13 1 -13 4 0 4 10 1 14 0 14 -2z m241 -26 c11 -5 16 -28 9 -41 -10 -16 -41
-16 -49 0 -4 8 -4 24 0 32 5 12 23 15 40 9z m-574 -12 c4 -4 4 -5 3 -12 -2
-11 -7 -16 -15 -16 -12 0 -19 13 -13 24 4 8 17 10 25 4z m912 -10 c11 -5 16
-27 8 -41 -3 -8 -22 -17 -47 -23 -31 -7 -45 0 -45 26 0 22 6 26 44 36 22 6 28
6 40 2z m-276 -33 c3 -3 3 -3 0 -6 -3 -3 -3 -3 -6 0 -3 2 -3 3 -1 6 4 4 4 4 7
0z m-741 -17 c1 0 5 -3 8 -6 5 -5 6 -7 6 -17 0 -20 -9 -27 -28 -25 -15 2 -20
8 -20 24 0 13 3 19 12 23 5 2 8 2 22 1z m599 -37 c5 -8 1 -16 -8 -16 -9 0 -13
8 -8 16 2 3 5 5 8 5 3 0 6 -2 8 -5z m-631 -56 c8 -1 20 -3 27 -3 24 -1 31 -7
31 -26 0 -11 -1 -13 -6 -18 -3 -3 -7 -6 -9 -6 -13 -1 -18 0 -40 8 -13 4 -27 8
-30 9 -10 2 -15 9 -15 20 0 19 10 22 42 16z m1411 -32 c6 -4 6 -6 6 -20 0 -14
0 -16 -6 -20 -4 -4 -7 -5 -18 -5 -11 0 -14 1 -18 5 -6 4 -6 6 -6 20 0 14 0 16
6 20 4 4 7 5 18 5 11 0 14 -1 18 -5z m-1414 -163 c7 -7 7 -18 -1 -25 -11 -10
-45 -13 -51 -4 -4 5 -4 15 1 20 5 6 22 12 35 13 10 0 12 -1 16 -4z m1342 -64
c7 -3 12 -13 12 -25 0 -11 -3 -17 -11 -25 -4 -5 -5 -7 -4 -19 0 -15 3 -20 13
-24 10 -4 19 -4 43 4 12 4 24 7 27 7 9 0 15 -7 15 -17 0 -10 -4 -14 -22 -23
-16 -8 -22 -11 -24 -14 0 -1 -4 -4 -8 -8 -12 -9 -20 -9 -46 -1 -13 4 -28 9
-35 10 -8 2 -13 5 -16 8 -4 5 -8 21 -6 25 1 1 1 15 1 32 0 35 2 41 15 57 13
16 27 20 46 13z m-1114 -4 c14 -16 2 -42 -21 -49 -28 -7 -40 -3 -40 16 0 12 4
19 15 25 21 12 39 15 46 8z m-372 -36 c4 -4 5 -7 5 -15 0 -15 7 -38 12 -43 4
-4 9 -16 9 -25 0 -19 -10 -28 -29 -28 -24 1 -32 19 -23 47 4 11 3 22 0 49 -1
8 -1 10 3 14 6 6 17 7 23 1z m968 -2 c11 -5 16 -29 8 -42 -6 -9 -27 -32 -34
-36 -10 -6 -25 -6 -32 1 -10 10 -6 29 11 58 14 22 25 27 47 19z m-266 -21 c4
-4 5 -7 5 -14 0 -11 -2 -15 -14 -27 -8 -7 -14 -18 -15 -27 -2 -12 -4 -16 -8
-20 -8 -10 -25 -3 -25 9 0 6 2 9 11 24 3 4 5 9 6 10 0 2 1 4 2 5 0 2 2 10 2
19 2 21 6 26 21 26 8 0 11 -1 15 -5z m590 -28 c7 -7 7 -23 0 -30 -10 -11 -34
-4 -35 9 -2 18 4 26 20 26 8 0 11 -1 15 -5z m-1063 1 c1 0 4 -2 7 -5 7 -7 7
-20 0 -27 -5 -4 -7 -5 -18 -5 -12 0 -14 1 -18 6 -6 7 -7 18 -1 26 5 5 9 7 21
6 4 0 9 -1 9 -1z m989 -57 c3 -3 3 -3 0 -6 -3 -3 -3 -3 -6 0 -3 2 -3 3 -1 6 4
4 4 4 7 0z m140 -7 c6 -7 12 -20 9 -20 -2 0 -2 -1 -1 -1 0 -1 -1 -3 -4 -5 -10
-7 -29 3 -29 15 0 13 17 20 25 11z m-1046 -4 c7 -6 7 -19 1 -25 -6 -7 -19 -7
-25 -1 -7 6 -7 19 -1 25 6 7 19 7 25 1z m-125 -66 c7 -6 10 -11 9 -13 -1 -3
-11 -5 -13 -2 -1 1 -2 1 -2 -1 0 -7 -16 -8 -23 -2 -11 10 -3 28 11 28 6 0 9
-2 18 -10z m67 -15 l6 -6 0 -200 0 -200 -6 -6 c-5 -5 -8 -6 -14 -6 -6 0 -9 1
-14 6 l-6 6 0 57 c1 69 1 69 -20 92 -23 24 -22 36 1 61 20 22 20 20 20 99 0
77 -1 87 -11 90 -4 1 -5 2 -2 2 6 0 20 5 22 8 3 6 17 4 24 -3z m628 -85 c10
-9 3 -26 -10 -26 -8 0 -15 7 -15 15 0 13 16 20 25 11z m257 -58 c5 -5 5 -15 0
-20 -9 -9 -24 -2 -24 10 0 8 6 14 14 14 3 0 8 -2 10 -4z m-192 -38 c5 -6 5
-12 0 -18 -7 -8 -22 -2 -22 9 0 11 15 17 22 9z m-916 -10 c7 -7 5 -16 -4 -24
-21 -18 -26 -25 -32 -38 -4 -8 -10 -17 -16 -22 -5 -5 -12 -12 -15 -16 -6 -8
-11 -9 -13 -2 -1 3 -3 9 -4 14 -1 5 -4 12 -5 16 -3 7 -4 14 -3 27 0 9 7 16 16
17 12 0 34 10 42 18 5 5 9 8 10 8 1 0 3 1 4 3 4 4 15 4 20 -1z m359 -26 c10
-9 3 -26 -10 -26 -8 0 -15 7 -15 15 0 13 16 20 25 11z m750 -32 c6 -4 9 -11 9
-26 0 -8 2 -18 3 -22 4 -8 11 -15 14 -12 1 1 4 1 7 0 4 -1 6 -1 8 1 2 1 2 1 1
-1 -1 -2 0 -1 3 1 5 4 11 15 11 23 0 2 0 5 1 9 0 12 15 17 24 9 7 -7 9 -11 4
-16 -2 -2 -5 -7 -8 -11 -3 -4 -5 -8 -6 -9 -4 -4 -7 -16 -7 -25 1 -5 1 -13 1
-17 0 -9 -10 -53 -13 -60 -5 -10 -25 -14 -39 -8 -7 3 -33 33 -38 44 -5 10 -5
24 -1 35 1 4 2 8 2 10 0 1 -1 7 -2 12 -1 6 -3 16 -6 22 -3 6 -6 17 -7 23 l-3
12 6 5 c5 4 7 4 19 3 7 0 15 -1 17 -2z m-261 -58 c1 0 5 -3 8 -6 5 -5 6 -7 6
-18 0 -11 -1 -13 -6 -18 -6 -6 -7 -6 -18 -6 -11 0 -12 0 -18 6 -5 5 -6 7 -6
17 0 14 3 20 12 24 5 2 8 2 22 1z m-809 -23 c24 -26 35 -40 35 -45 1 -17 -4
-24 -19 -24 -12 0 -14 2 -22 18 -3 7 -8 15 -10 17 -5 6 -11 20 -11 27 0 8 6
14 14 14 4 0 8 -2 13 -7z m1218 -28 c1 1 2 -1 2 -7 1 -9 1 -11 10 -31 6 -14
27 -65 38 -92 l7 -18 -4 -5 c-6 -6 -13 -7 -65 -13 -25 -3 -55 -7 -66 -8 -46
-7 -65 -1 -65 19 0 12 6 16 23 16 17 -1 35 4 40 10 6 7 22 36 51 93 16 31 20
38 23 36 0 -1 1 0 1 1 0 2 1 2 1 1 1 -2 2 -2 4 -2z m-813 -5 c11 -8 11 -34 0
-42 -7 -6 -28 -6 -35 1 -6 4 -6 6 -6 20 0 14 0 16 6 20 7 7 28 7 35 1z m-253
-98 c4 -3 9 -13 9 -17 0 -4 -6 -10 -11 -11 -3 0 -9 2 -15 4 -8 4 -10 6 -13 13
-3 9 -3 9 2 13 4 3 6 3 15 2 6 -1 12 -3 13 -4z m588 -33 c5 -8 1 -16 -8 -16
-9 0 -13 8 -8 16 2 3 5 5 8 5 3 0 6 -2 8 -5z m-382 -7 c10 -9 3 -26 -10 -26
-8 0 -15 7 -15 15 0 13 16 20 25 11z m980 -32 c7 -6 7 -20 0 -26 -3 -3 -6 -4
-13 -4 -8 1 -10 2 -14 9 -7 10 -7 17 0 21 7 5 22 5 27 0z m-374 -20 c7 -3 12
-13 12 -25 0 -19 -9 -28 -28 -28 -19 0 -28 9 -28 28 0 17 6 24 22 28 5 1 14
-1 22 -3z m-616 -26 c7 -3 12 -13 12 -25 0 -19 -9 -28 -28 -28 -19 0 -28 9
-28 28 0 17 6 24 22 28 5 1 14 -1 22 -3z m726 -20 c4 -6 4 -24 -1 -30 -7 -9
-27 -9 -34 0 -5 6 -5 24 0 30 7 9 27 9 35 0z m333 1 c5 -5 16 -27 15 -30 -2
-4 -12 -8 -20 -8 -17 1 -19 1 -24 6 -7 7 -7 23 0 30 6 6 22 7 29 2z m-1287
-10 c12 -7 14 -33 3 -43 -8 -9 -32 -9 -40 0 -9 8 -9 32 0 41 7 7 27 8 37 2z
m1331 -36 c0 -1 1 -3 3 -4 1 0 1 -1 -1 -4 -3 -3 -4 -3 -11 0 l-8 3 5 4 c6 5
12 5 12 1z m-586 -4 c16 -7 20 -37 7 -48 -12 -11 -34 -11 -43 0 -9 10 -9 32 0
42 7 8 24 11 36 6z m720 -15 c11 -11 -2 -20 -39 -26 -13 -2 -13 -2 -17 2 -5 6
-5 6 0 12 3 4 16 9 26 11 2 1 8 2 12 3 11 3 14 2 18 -2z m-143 -87 c4 -4 5 -7
5 -13 0 -11 -7 -18 -18 -18 -11 0 -18 7 -18 18 0 11 7 18 18 18 6 0 9 -1 13
-5z"/>
<path d="M1538 2744 c2 -1 2 -2 0 -2 -1 0 -2 -3 -2 -11 0 -6 1 -11 2 -10 1 1
8 -8 13 -16 2 -4 5 -7 5 -7 1 0 2 -1 2 -3 0 -5 7 -7 23 -7 l14 0 5 8 c2 4 4 9
4 11 0 16 -13 32 -29 37 -12 3 -29 3 -29 0 0 -2 -1 -2 -2 0 -2 1 -4 2 -6 2 -3
0 -3 0 0 -2z"/>
</g>
</svg>
