<?xml version="1.0" standalone="no"?>
<!DOCTYPE svg PUBLIC "-//W3C//DTD SVG 20010904//EN"
 "http://www.w3.org/TR/2001/REC-SVG-20010904/DTD/svg10.dtd">
<svg version="1.0" xmlns="http://www.w3.org/2000/svg"
 width="1100.000000pt" height="2850.000000pt" viewBox="0 0 1100.000000 2850.000000"
 preserveAspectRatio="xMidYMid meet">
<metadata>
Created by potrace 1.15, written by Peter Selinger 2001-2017
</metadata>
<g transform="translate(0.000000,2850.000000) scale(0.500000,-0.500000)"
fill="#000000" stroke="none">
<path d="M1296 3792 c-3 -1 -6 -1 -7 0 0 0 -1 0 -1 -2 0 -1 -1 -2 -3 -2 -4 0
-14 -12 -18 -21 -3 -7 -3 -23 -3 -131 0 -129 0 -129 9 -150 7 -14 7 -26 0 -40
-9 -20 -9 -22 -9 -138 0 -106 0 -110 4 -118 7 -13 25 -19 40 -13 4 2 12 3 17
3 9 0 12 -1 18 -8 3 -3 8 -4 20 -4 l17 0 7 7 c4 5 7 9 7 9 0 2 10 12 11 12 3
0 7 6 8 12 0 4 3 10 6 13 5 6 7 7 16 7 8 0 13 1 19 5 9 5 23 18 24 23 2 3 31
19 43 23 13 4 33 15 37 21 7 10 7 19 1 39 -3 10 -6 22 -7 28 -2 10 -13 23 -19
23 -2 0 -3 1 -3 3 0 1 -1 1 -2 -1 -5 -8 -22 1 -22 11 0 11 18 19 21 9 1 -3 2
-4 3 -3 0 2 6 3 13 4 23 2 25 9 25 77 0 48 0 52 -5 69 -6 23 -6 33 0 56 5 17
5 20 5 81 0 54 -1 65 -3 71 -4 9 -14 21 -18 21 -2 0 -3 1 -3 2 0 1 -1 2 -2 2
-6 1 -114 2 -120 1 -9 -2 -19 -12 -23 -25 -4 -14 -4 -47 0 -63 7 -30 1 -43
-20 -43 -10 0 -12 1 -17 6 -5 5 -6 7 -6 19 0 15 -3 27 -9 44 -3 7 -5 15 -5 18
1 8 -6 29 -11 35 -8 9 -22 12 -35 8z m174 -59 l-5 -5 -4 4 -5 5 4 4 5 5 4 -4
5 -5 -4 -4z m-51 -182 c3 -5 3 -5 -1 -16 -2 -6 -6 -12 -8 -15 -2 -2 -4 -6 -5
-9 -2 -10 -7 -21 -10 -24 -7 -7 -21 0 -21 10 0 5 6 17 11 21 1 2 3 4 3 6 0 1
2 3 4 4 2 1 4 3 3 4 -1 1 0 2 1 2 1 0 2 2 2 5 0 6 9 17 14 17 2 0 5 -2 7 -5z
m44 -202 c5 -5 5 -6 4 -16 -1 -15 -8 -30 -18 -38 -7 -6 -9 -7 -20 -7 -18 0
-23 5 -25 21 -1 20 8 33 30 41 13 6 23 5 29 -1z"/>
<path d="M885 3786 c-7 -3 -15 -9 -20 -14 -11 -13 -17 -16 -28 -16 -11 0 -17
3 -28 16 -16 18 -33 21 -47 9 -4 -4 -9 -10 -10 -13 -2 -6 -1 -19 1 -23 1 -1 7
-8 14 -16 14 -19 14 -22 -1 -40 -7 -8 -12 -17 -13 -20 l0 -6 -1 6 c0 3 -1 6
-4 6 -2 1 -5 4 -6 6 -1 3 -3 5 -4 5 -1 0 -2 1 -2 3 0 3 -12 15 -16 15 -1 0 -2
1 -2 2 0 3 -1 3 -149 3 l-144 1 -15 -5 c-13 -5 -18 -6 -40 -6 -20 0 -28 -1
-37 -5 -16 -5 -14 -6 -37 6 l-19 9 -76 0 -76 0 -17 -8 c-17 -9 -32 -22 -40
-37 -2 -3 -4 -7 -6 -8 -2 -3 -10 -25 -14 -36 -1 -5 -2 -33 -1 -79 0 -68 0 -72
4 -81 7 -15 21 -28 38 -37 l16 -8 45 0 46 -1 6 6 c4 4 6 7 7 16 1 15 1 15 -10
35 -10 17 -10 17 -25 24 -8 4 -17 7 -19 7 -3 0 -10 4 -17 11 -7 6 -17 12 -27
17 -9 4 -18 8 -20 11 -7 5 -6 15 0 21 6 5 9 5 36 -3 13 -3 22 -5 33 -4 19 0
25 -4 30 -16 1 -4 4 -12 6 -17 3 -5 5 -11 6 -14 1 -2 3 -4 4 -3 1 1 2 1 2 0 0
-1 2 -3 5 -4 15 -8 23 -13 36 -25 8 -7 18 -16 23 -20 7 -6 10 -11 15 -22 7
-18 6 -22 -5 -26 -12 -4 -17 -6 -23 -11 -2 -2 -7 -5 -9 -7 -2 -2 -6 -8 -9 -13
l-5 -11 0 -109 1 -110 -6 -6 -6 -6 -66 0 c-66 0 -77 -1 -77 -3 0 -1 -1 -2 -3
-2 -4 0 -14 -12 -18 -21 -3 -6 -3 -19 -3 -88 0 -84 1 -91 9 -99 6 -6 31 -11
32 -7 2 5 8 3 12 -2 3 -5 3 -5 0 -10 -4 -5 -11 -7 -12 -2 -1 2 -3 2 -12 0 -13
-3 -14 -4 -17 -13 -5 -17 7 -36 28 -43 9 -2 19 -3 65 -3 30 0 56 1 58 2 2 1 7
0 10 -1 4 -1 7 -2 8 -1 0 0 1 -2 1 -5 0 -3 1 -5 3 -5 1 0 1 -1 0 -2 -5 -3 -7
-17 -7 -40 1 -33 3 -39 20 -56 16 -16 19 -20 19 -33 0 -13 -3 -17 -19 -33 -17
-17 -20 -24 -20 -56 0 -14 1 -26 2 -28 4 -7 7 -15 6 -17 0 -1 1 -1 2 0 1 1 8
1 15 2 13 0 13 0 13 -5 0 -5 0 -5 -13 -5 -7 1 -14 1 -15 2 -1 1 -2 1 -2 0 1
-2 -2 -10 -6 -17 -1 -2 -2 -25 -1 -52 l0 -47 9 -19 c11 -22 13 -31 5 -38 -10
-9 -23 -4 -32 13 -7 13 -14 19 -28 21 -7 2 -19 -1 -74 -16 -36 -10 -70 -20
-74 -21 -21 -9 -32 -31 -26 -53 2 -6 4 -14 4 -17 1 -6 13 -59 32 -148 15 -68
20 -77 44 -81 9 -1 14 0 36 7 14 5 33 11 41 13 8 3 24 8 35 11 11 4 39 13 62
20 42 14 63 21 65 25 2 4 29 12 43 13 13 1 35 7 62 17 6 2 32 10 58 19 54 17
60 20 68 29 5 6 13 25 13 32 0 8 20 14 26 7 1 -2 3 -3 4 -3 1 0 6 -3 11 -6 18
-11 23 -11 63 2 37 13 40 13 44 10 2 -4 2 -5 -2 -19 -4 -15 -9 -24 -14 -28 -3
-2 -8 -8 -11 -12 -3 -4 -9 -12 -14 -17 -12 -13 -15 -19 -15 -34 1 -11 2 -14 7
-21 4 -4 9 -12 12 -17 3 -5 7 -11 9 -13 2 -2 4 -4 4 -5 0 -1 6 -11 12 -23 23
-40 53 -102 63 -130 8 -21 16 -27 35 -27 11 0 13 1 25 10 17 11 37 23 73 41
26 14 31 17 51 39 8 9 8 9 39 12 24 2 33 5 76 25 7 3 14 5 17 6 2 1 8 4 11 7
6 5 7 6 8 20 0 12 0 15 -5 23 -7 13 -7 27 1 35 5 5 7 6 17 6 10 0 12 -1 17 -6
3 -3 6 -8 6 -10 1 -5 1 -6 5 -15 1 -4 3 -8 3 -9 0 -1 1 -2 2 -2 1 0 4 -2 6 -4
4 -5 25 -7 29 -4 1 1 7 4 14 6 15 6 27 17 34 32 3 6 6 11 7 12 1 1 3 4 5 8 4
10 6 11 11 7 5 -7 8 -13 12 -32 7 -36 12 -51 24 -77 3 -6 6 -13 6 -13 0 -1 4
-5 9 -10 5 -4 9 -9 9 -11 0 -1 1 -2 2 -2 0 0 2 -3 4 -7 2 -7 11 -17 26 -30 19
-17 64 -35 100 -41 25 -5 83 -7 100 -5 13 1 25 8 36 20 9 10 16 13 27 13 10 0
19 -4 23 -10 5 -6 21 -18 30 -21 12 -4 17 -3 41 9 22 11 24 12 53 6 17 -3 24
-2 43 8 50 26 88 73 114 140 11 28 20 57 24 80 1 3 2 8 3 11 2 5 6 30 9 47 1
4 2 12 3 17 3 18 8 63 7 65 -1 1 -2 4 -2 6 -3 17 -18 28 -46 37 -22 6 -51 17
-81 30 -34 15 -44 14 -64 -7 -11 -12 -12 -12 -21 -12 -10 0 -19 4 -19 9 0 2
-20 1 -29 -2 -12 -3 -17 -40 -11 -71 4 -20 2 -30 -11 -57 -15 -30 -14 -30 -55
-31 -29 -1 -31 -1 -37 -6 -6 -4 -10 -9 -10 -14 0 -1 -1 -2 -1 -3 -1 -1 -1 -10
-1 -20 1 -18 1 -19 -4 -24 -4 -4 -7 -5 -15 -5 -13 0 -19 5 -21 18 -1 5 -2 10
-3 11 0 1 -1 3 -1 4 -1 4 -7 16 -9 19 -6 6 -14 20 -14 25 0 8 6 15 22 26 16
11 23 21 28 38 1 6 2 39 2 101 l0 93 -5 9 c-6 12 -6 13 -21 23 -15 11 -16 13
-16 24 0 11 1 13 16 24 15 10 15 11 21 23 5 9 5 10 5 57 0 61 -2 67 -32 82
-17 9 -20 13 -20 27 0 14 3 18 20 27 23 11 30 22 32 46 2 13 9 30 14 32 2 1 6
4 9 7 4 3 9 7 13 10 4 3 12 9 18 14 6 6 12 10 12 10 3 0 11 15 15 31 7 25 7
25 26 25 24 0 29 2 55 25 7 7 21 19 31 27 10 9 21 18 25 22 4 3 12 11 19 17 6
5 13 12 16 14 2 2 11 10 19 17 12 10 47 42 63 57 2 1 10 8 18 16 16 15 21 22
21 34 0 12 -5 19 -29 44 -13 13 -40 41 -60 62 -20 20 -41 41 -47 45 -5 4 -15
14 -21 21 -19 23 -38 43 -43 46 -7 3 -23 4 -31 1 -2 -1 -12 -12 -22 -23 -29
-36 -44 -56 -58 -71 -5 -6 -16 -18 -24 -27 -28 -32 -41 -45 -53 -56 -3 -2 -10
-9 -17 -15 -20 -18 -33 -21 -54 -12 -12 4 -14 5 -27 2 -14 -2 -18 -5 -27 -17
-2 -2 -5 -5 -6 -5 -3 0 -7 -6 -8 -12 0 -3 -3 -9 -6 -14 -3 -4 -5 -8 -5 -9 0
-1 -4 -6 -8 -11 -4 -6 -8 -11 -7 -12 0 -1 -2 -5 -6 -9 l-7 -8 -14 1 c-25 1
-34 -5 -38 -24 -3 -15 -7 -20 -28 -41 -10 -10 -18 -19 -18 -20 0 -2 -1 -3 -2
-3 -1 0 -3 -2 -4 -5 -8 -18 -8 -10 -8 -324 l0 -301 5 -16 c8 -26 6 -48 -7 -68
-4 -5 -7 -12 -7 -17 -2 -9 -3 -12 -3 -5 0 6 -13 18 -19 20 -5 1 -21 18 -33 34
-3 4 -13 8 -23 10 -12 2 -11 3 -52 -14 -25 -10 -29 -9 -45 6 -6 7 -12 12 -12
11 0 -1 -3 4 -6 11 -3 7 -6 14 -6 16 0 6 -9 24 -15 29 -8 7 -26 18 -39 24 -7
4 -18 9 -25 12 -6 3 -12 7 -14 10 -6 10 -5 30 3 37 10 11 33 9 44 -3 l7 -8 14
1 c18 2 20 3 23 12 3 10 3 283 0 285 -1 1 -2 3 -2 5 0 4 -8 14 -16 19 -6 4
-17 4 -25 1 -18 -7 -48 -56 -58 -95 -6 -24 -9 -29 -19 -29 -7 0 -13 5 -15 13
-1 3 -4 17 -8 31 l-7 26 5 24 c7 34 8 40 14 43 6 4 17 4 28 1 6 -2 13 -2 20
-1 14 2 19 6 27 24 6 12 15 24 35 46 10 10 13 11 38 6 12 -3 26 -3 79 -2 68 1
70 1 70 3 0 1 1 2 3 2 4 0 14 12 18 21 3 6 3 20 3 96 0 82 0 89 -4 97 -5 12
-10 18 -25 28 -7 4 -14 10 -15 13 -8 14 -17 25 -26 30 l-9 6 -49 0 -49 0 -6 6
-6 6 1 39 c1 55 -2 61 -26 60 -11 -1 -12 -1 -13 3 0 3 -1 2 -1 -1 0 -11 -25
-17 -39 -9 -16 8 -16 40 0 48 14 8 39 2 39 -9 0 -3 1 -4 1 -1 1 4 2 4 13 3 25
-1 26 3 26 78 -1 67 -1 66 -22 88 -12 12 -15 17 -15 29 0 12 3 17 15 29 22 22
21 17 22 112 0 70 0 82 -3 89 -4 9 -14 21 -18 21 -2 0 -3 1 -3 2 0 2 -2 2 -70
3 l-65 1 -12 -6z m-682 -128 c10 -9 3 -26 -10 -26 -8 0 -15 7 -15 15 0 13 16
20 25 11z m538 -47 c2 -4 8 -26 7 -29 0 -1 3 -6 6 -12 6 -12 19 -22 34 -26 16
-4 18 -9 19 -31 0 -23 2 -27 13 -39 8 -9 8 -9 7 -20 -1 -14 -5 -18 -18 -18
-16 0 -20 6 -21 37 0 6 -1 8 -1 5 -1 -6 -6 -8 -19 -8 -10 0 -13 -1 -15 -7 0
-3 -1 -1 -1 3 0 4 -2 12 -4 18 -2 6 -4 16 -6 21 -4 18 -11 26 -28 36 -19 12
-22 15 -22 28 0 13 3 16 22 27 16 10 22 16 22 24 1 5 1 5 1 0 1 -3 3 -7 4 -9z
m-228 -54 c12 -7 14 -33 3 -43 -8 -9 -32 -9 -40 0 -9 8 -9 32 0 41 7 7 27 8
37 2z m420 -60 c12 -8 13 -28 2 -47 -4 -7 -10 -19 -14 -27 -9 -19 -12 -21 -30
-24 -15 -2 -15 -2 -21 2 -5 4 -6 7 -5 11 1 3 2 7 2 10 1 3 6 17 12 32 6 16 11
29 11 31 0 5 9 13 16 15 9 2 22 1 27 -3z m-193 -63 c2 0 2 -1 2 -1 -1 -1 0 -5
2 -9 2 -6 3 -18 4 -68 1 -47 2 -62 4 -67 3 -7 12 -19 14 -21 6 -4 12 -18 12
-27 0 -9 -6 -23 -12 -27 -4 -2 -12 -17 -15 -25 -5 -15 -4 -131 1 -141 5 -9 8
-12 15 -13 8 -2 19 -6 19 -7 0 -1 -11 -5 -19 -7 -7 -1 -10 -4 -15 -13 -4 -7
-4 -14 -4 -165 0 -182 -2 -166 22 -189 13 -12 14 -13 14 -21 0 -8 -1 -9 -14
-21 -22 -21 -22 -21 -22 -88 -1 -55 -1 -57 -5 -57 -3 0 -4 -2 -5 -7 -1 -6 -1
-5 -2 4 0 13 -5 38 -10 47 -7 14 -19 20 -43 22 -9 1 -14 3 -21 7 -25 17 -33
17 -71 5 -16 -5 -32 -11 -36 -13 -42 -26 -67 -26 -74 -1 -6 20 3 37 21 40 7 1
24 9 30 14 12 10 12 21 3 45 -9 24 -9 31 0 54 l8 19 1 65 c1 63 1 65 6 78 3 6
6 12 6 11 1 -1 3 2 5 5 12 26 14 28 32 40 8 5 18 12 24 16 18 13 37 7 37 -12
0 -9 -6 -24 -10 -24 -1 0 -2 -1 -1 -2 0 -2 1 -8 2 -15 0 -7 2 -13 4 -15 5 -6
18 -9 26 -6 4 1 7 1 8 0 0 0 1 0 1 2 0 1 1 2 3 2 4 0 14 12 18 21 4 9 4 49 1
62 -3 10 -12 22 -21 29 -6 5 -16 21 -20 33 -1 3 -4 11 -8 19 -5 10 -7 17 -7
23 0 10 0 10 17 25 9 8 14 16 17 28 2 8 1 10 -4 22 -12 23 -22 27 -67 26 -37
-1 -38 -2 -59 -21 -16 -15 -24 -18 -38 -15 -15 3 -23 17 -18 35 3 10 3 28 0
36 -2 3 -6 9 -10 13 -12 12 -14 16 -14 29 0 10 1 12 6 17 3 3 7 6 8 6 34 2 45
6 52 21 4 8 4 11 4 77 l-1 69 6 6 6 6 76 0 c76 0 87 0 87 3 0 1 1 2 2 2 5 0
16 13 16 18 1 5 1 5 1 1 1 -3 2 -5 3 -5z m-384 -19 c12 -5 18 -21 14 -36 -4
-13 -14 -21 -29 -20 -16 1 -22 5 -29 24 -3 7 -5 12 -6 13 0 1 -1 3 -1 5 -1 5
13 13 20 13 2 0 5 1 7 2 3 2 17 1 24 -1z m494 -25 c7 -5 7 -8 2 -19 -2 -5 -3
-9 -3 -9 1 -1 -1 -3 -4 -6 -3 -3 -7 -4 -14 -4 -13 0 -19 6 -19 19 0 12 4 17
19 20 5 2 10 3 11 3 1 0 4 -2 8 -4z m915 -67 c7 -10 0 -34 -11 -39 -8 -4 -16
-1 -16 8 -1 10 -1 11 1 19 3 16 18 23 26 12z m-911 -59 c5 -5 5 -15 0 -20 -9
-9 -24 -2 -24 10 0 8 6 14 14 14 3 0 8 -2 10 -4z m-449 -15 c3 -5 3 -5 0 -10
-2 -3 -5 -5 -7 -5 -2 0 -5 2 -7 5 -3 5 -3 5 0 10 2 3 5 5 7 5 2 0 5 -2 7 -5z
m1355 -32 c10 -6 19 -15 37 -39 10 -14 13 -21 13 -32 0 -14 -6 -21 -23 -23 -7
-1 -21 -4 -32 -6 -23 -6 -24 -6 -29 0 -5 4 -5 8 -1 14 2 3 3 15 1 33 0 2 -4 8
-8 13 -8 9 -8 11 -7 20 1 12 5 18 15 23 10 4 22 3 34 -3z m-774 1 c1 0 5 -3 8
-6 5 -5 6 -7 6 -18 0 -11 -1 -13 -6 -18 -6 -6 -7 -6 -18 -6 -11 0 -12 0 -18 6
-5 5 -6 7 -6 17 0 14 3 20 12 24 5 2 8 2 22 1z m667 -9 c3 -5 3 -5 0 -10 -2
-3 -5 -5 -7 -5 -2 0 -5 2 -7 5 -3 5 -3 5 0 10 2 3 5 5 7 5 2 0 5 -2 7 -5z
m-599 -73 c1 0 5 -3 8 -6 6 -5 6 -7 6 -21 0 -22 -7 -27 -31 -21 -12 3 -17 10
-17 24 0 13 3 19 12 23 5 2 8 2 22 1z m58 -77 c14 -15 -9 -61 -30 -63 -19 -2
-26 4 -26 20 0 10 5 23 11 30 2 2 3 4 2 4 0 3 9 14 13 16 7 2 25 -2 30 -7z
m338 6 c12 -5 18 -21 14 -36 -2 -7 -5 -11 -16 -21 -13 -12 -14 -13 -21 -35 -2
-4 -2 -8 -1 -9 6 -9 -18 -20 -30 -14 -2 1 -8 10 -12 19 -5 9 -10 19 -13 22
-18 25 -15 35 14 49 7 4 17 10 21 13 15 14 30 17 44 12z m-1073 -11 c4 -6 4
-24 -1 -30 -7 -9 -27 -9 -34 0 -5 6 -5 24 0 30 7 9 27 9 35 0z m528 1 c12 -7
14 -33 3 -43 -8 -9 -32 -9 -40 0 -9 8 -9 32 0 41 7 7 27 8 37 2z m-110 -24 c3
-3 3 -3 0 -6 -3 -4 -7 -2 -7 3 0 6 3 7 7 3z m-312 -4 c6 -4 6 -6 6 -21 1 -19
-1 -29 -7 -33 -4 -2 -6 -1 -20 6 -20 10 -22 13 -21 31 0 17 6 22 24 22 11 0
14 -1 18 -5z m1101 -13 c14 -10 23 -47 15 -59 -5 -8 -12 -10 -30 -9 -2 0 -6 3
-9 6 -7 7 -9 21 -6 40 4 24 16 32 30 22z m-1078 -56 c16 -9 18 -12 18 -23 0
-13 -6 -19 -19 -19 -15 0 -19 5 -19 23 0 13 4 28 8 27 1 -1 6 -4 12 -8z m988
-4 c1 0 5 -3 8 -6 5 -5 6 -7 6 -18 0 -11 -1 -13 -6 -18 -3 -3 -7 -6 -9 -6 -25
-2 -31 3 -35 24 -1 9 -1 12 2 15 6 5 17 10 24 10 4 -1 8 -1 10 -1z m-557 -22
c5 -5 6 -7 6 -16 0 -15 -8 -23 -23 -23 -9 0 -11 1 -16 7 -9 8 -9 23 -1 32 9 9
24 9 34 0z m-527 -44 c5 -6 5 -12 0 -18 -7 -8 -22 -2 -22 9 0 11 15 17 22 9z
m-134 -18 c2 -5 2 -6 -2 -12 -8 -11 -23 -12 -25 -1 -1 5 0 7 6 12 9 8 17 8 21
1z m1139 -1 c5 -8 1 -16 -8 -16 -9 0 -13 8 -8 16 2 3 5 5 8 5 3 0 6 -2 8 -5z
m-581 -33 c5 -5 5 -9 0 -26 -3 -10 0 -33 5 -41 4 -6 4 -23 -1 -29 -7 -9 -27
-9 -34 0 -5 6 -5 24 -1 29 2 1 3 4 3 5 0 2 1 5 3 8 4 5 6 35 3 37 -3 2 -2 13
2 17 5 5 15 5 20 0z m-401 -20 c18 -9 31 -21 33 -31 6 -26 -11 -42 -37 -34
-11 3 -31 15 -39 24 -10 10 -9 34 1 43 8 6 27 6 42 -2z m918 -21 c5 -8 1 -16
-8 -16 -9 0 -13 8 -8 16 2 3 5 5 8 5 3 0 6 -2 8 -5z m68 -101 c9 -9 6 -19 -13
-51 -8 -13 -11 -17 -22 -24 -34 -22 -37 -26 -49 -48 -8 -16 -17 -21 -24 -12
-4 7 -3 13 14 51 4 9 9 18 10 20 2 4 7 11 11 19 6 12 11 17 22 25 6 5 13 11
15 13 12 11 28 14 36 7z m-992 0 c17 -3 23 -7 23 -18 0 -16 -18 -21 -50 -13
-17 4 -24 10 -24 19 0 14 15 17 51 12z m548 -74 c7 -6 7 -19 1 -25 -6 -7 -19
-7 -25 -1 -7 6 -7 19 -1 25 6 7 19 7 25 1z m-600 -25 c12 -12 3 -31 -13 -31
-11 0 -18 7 -18 18 0 11 7 18 18 18 6 0 9 -1 13 -5z m-81 -23 c8 -7 2 -19 -8
-19 -9 0 -13 10 -8 19 3 4 12 4 16 0z m566 -60 c5 -5 5 -11 0 -16 -10 -10 -27
5 -16 16 4 4 12 4 16 0z m564 -15 c21 -9 20 -45 -2 -54 -10 -5 -28 -1 -34 6
-9 10 -9 32 0 42 7 8 24 11 36 6z m-571 -58 c10 -11 8 -50 -4 -63 -5 -5 -18
-5 -23 0 -13 13 -19 52 -9 63 8 10 28 10 36 0z m-344 -33 c5 -5 7 -19 3 -21
-2 -1 -1 -17 1 -27 1 -5 13 -19 13 -15 0 0 3 0 6 -2 3 -2 6 -3 6 -2 0 1 3 0 6
-2 8 -5 10 -11 10 -26 0 -15 -4 -19 -18 -23 -11 -2 -20 -1 -31 5 -14 7 -33 5
-45 -6 -11 -10 -33 -11 -42 -1 -6 5 -8 18 -6 28 2 10 0 9 27 28 l22 15 11 22
c6 13 13 25 15 27 5 5 16 5 22 0z m126 -7 c6 -5 9 -12 10 -28 3 -30 -8 -45
-30 -44 -17 1 -29 10 -29 23 0 26 12 49 27 52 7 2 17 0 22 -3z m312 -1 c16 -7
16 -43 -1 -50 -15 -6 -34 -2 -39 9 -4 8 -4 24 0 32 5 12 23 15 40 9z m-733
-65 c3 -3 6 -8 7 -12 2 -4 5 -11 7 -16 2 -5 4 -10 4 -11 0 -3 21 -23 28 -27 5
-3 12 -4 26 -4 16 0 21 -1 24 -4 l4 -4 -4 -4 c-2 -3 -11 -7 -19 -9 -29 -9 -42
-14 -51 -18 -5 -2 -10 -3 -10 -3 -1 0 -6 -4 -10 -9 -16 -16 -23 -19 -28 -11
-4 4 -4 6 -1 26 4 24 3 33 -7 44 -8 9 -22 12 -42 8 -9 -1 -10 -1 -13 4 -9 13
14 49 35 53 14 3 44 1 50 -3z m663 -33 c6 -6 8 -25 2 -30 -7 -8 -9 -31 -3 -35
2 -1 3 -3 3 -3 -1 -1 2 -4 6 -6 11 -7 15 -13 15 -25 0 -16 -7 -23 -23 -23 -10
0 -12 1 -17 6 -8 8 -9 24 -1 34 4 5 5 9 5 19 0 12 -1 13 -9 20 -18 15 -18 15
-17 31 0 18 25 26 39 12z m332 -6 c1 0 6 -8 9 -15 4 -8 8 -15 9 -15 0 0 1 1 0
2 -1 1 6 1 21 -1 2 0 4 0 4 1 0 1 1 2 2 2 1 0 2 -7 2 -18 l0 -18 -12 0 c-8 0
-12 1 -12 2 0 2 -3 0 -6 -4 -7 -7 -11 -8 -19 0 -8 6 -21 32 -23 43 0 8 0 10 4
14 7 8 16 11 21 7z m-218 -12 c1 -1 3 -4 3 -5 0 -1 1 -3 3 -5 1 -2 3 -6 5 -10
2 -5 1 -7 -3 -11 -6 -6 -29 -5 -36 2 -7 6 -7 21 -1 28 7 7 21 8 29 1z m65 -36
c1 0 5 -3 8 -6 5 -5 6 -7 6 -18 0 -11 -1 -13 -6 -18 -3 -3 -7 -6 -9 -6 -23 -1
-28 2 -35 22 -7 19 -7 17 1 23 7 4 10 4 35 3z m-286 -20 c5 -5 5 -7 1 -17 -2
-4 -3 -13 -3 -20 0 -13 0 -14 6 -20 4 -4 8 -7 9 -7 6 0 18 -8 21 -14 4 -5 4
-6 -1 -9 -9 -9 -52 -9 -60 0 -7 7 -6 17 1 30 8 15 11 33 7 48 -3 10 11 17 19
9z m1080 -31 c21 -9 20 -45 -2 -54 -10 -5 -28 -1 -34 6 -9 10 -9 32 0 42 7 8
24 11 36 6z m-455 -30 c3 -3 3 -3 0 -6 -4 -5 -11 1 -7 6 4 4 4 4 7 0z m86 -90
c12 -12 3 -31 -13 -31 -11 0 -18 7 -18 18 0 11 7 18 18 18 6 0 9 -1 13 -5z
m-107 -1 c5 -6 5 -12 0 -18 -7 -8 -22 -3 -22 9 0 11 15 17 22 9z"/>
<path d="M1710 2448 c-5 -5 -6 -8 -6 -13 1 -10 8 -14 23 -15 15 -1 15 -1 15
21 l0 14 -13 0 c-12 0 -13 0 -19 -7z"/>
</g>
</svg>
