<?xml version="1.0" standalone="no"?>
<!DOCTYPE svg PUBLIC "-//W3C//DTD SVG 20010904//EN"
 "http://www.w3.org/TR/2001/REC-SVG-20010904/DTD/svg10.dtd">
<svg version="1.0" xmlns="http://www.w3.org/2000/svg"
 width="1100.000000pt" height="2850.000000pt" viewBox="0 0 1100.000000 2850.000000"
 preserveAspectRatio="xMidYMid meet">
<metadata>
Created by potrace 1.15, written by Peter Selinger 2001-2017
</metadata>
<g transform="translate(0.000000,2850.000000) scale(0.500000,-0.500000)"
fill="#000000" stroke="none">
<path d="M1038 3814 c-22 -5 -40 -9 -60 -15 -11 -3 -31 -7 -40 -8 -13 -2 -14
-2 -42 -7 -30 -6 -31 -7 -32 -26 0 -8 -1 -16 -1 -17 -1 -1 -1 -1 1 0 1 0 2 0
2 -1 1 -2 6 -3 17 -3 16 0 17 -1 29 -8 7 -5 16 -9 19 -10 11 -3 25 -12 25 -16
0 -3 -10 -7 -19 -8 -31 -4 -55 -20 -58 -38 -1 -6 -4 -10 -8 -13 l-6 -5 -68 -1
c-72 -2 -73 -2 -73 -4 0 -1 -1 -2 -3 -2 -4 0 -14 -12 -18 -21 -5 -11 -5 -191
0 -202 4 -9 14 -21 18 -21 2 0 3 -1 3 -2 0 -2 -1 -1 25 -4 18 -1 22 -2 26 -6
4 -4 4 -5 2 -10 -2 -3 -11 -21 -20 -40 -32 -66 -53 -94 -78 -110 -17 -10 -21
-17 -21 -35 0 -13 1 -17 8 -33 11 -27 17 -43 23 -60 32 -89 31 -88 26 -110 -1
-7 -2 -12 -1 -12 0 0 0 -1 -2 -2 -4 -4 -3 -101 1 -113 4 -11 4 -10 14 -22 11
-14 13 -17 13 -28 0 -11 -2 -14 -13 -28 -10 -12 -10 -11 -14 -22 -3 -9 -3 -21
-3 -104 0 -112 -1 -106 21 -129 25 -25 25 -39 0 -64 -23 -25 -21 3 -21 -277 0
-218 0 -243 3 -250 4 -9 14 -21 18 -21 2 0 3 -1 3 -2 0 -2 1 -2 40 -3 40 -2
49 0 59 10 17 18 19 50 4 79 -10 18 -4 32 12 32 9 0 17 -6 17 -13 0 -10 11
-36 18 -44 9 -10 11 -14 13 -22 5 -29 25 -47 44 -41 4 1 7 1 8 0 0 0 1 0 1 2
0 1 1 2 3 2 3 0 14 12 17 19 2 4 3 19 4 39 1 25 2 33 4 34 2 1 4 1 4 1 1 -1 2
1 2 4 0 4 1 2 2 -4 1 -5 2 -12 3 -15 1 -6 5 -23 6 -29 2 -10 5 -21 9 -27 5 -7
19 -17 29 -19 13 -2 28 8 30 21 1 3 2 8 3 11 1 3 1 9 0 12 -2 8 1 22 6 28 9
10 31 11 43 1 5 -4 7 -11 8 -27 2 -29 16 -42 41 -38 19 4 40 10 48 14 3 1 11
6 19 9 22 11 45 29 58 47 3 4 7 8 7 9 1 1 5 7 9 15 8 16 11 19 16 20 6 1 11
-4 34 -33 16 -21 46 -64 50 -72 8 -16 18 -22 34 -22 10 0 12 1 23 10 36 30 78
74 71 74 0 0 0 3 2 8 1 4 3 13 4 20 1 15 8 23 18 25 9 1 32 10 39 15 2 2 9 10
15 18 5 7 11 14 12 16 6 3 15 3 19 -2 1 -3 4 -5 5 -7 1 -1 4 -5 7 -9 2 -4 8
-13 13 -19 4 -6 9 -13 11 -15 2 -2 5 -7 7 -10 3 -3 10 -12 17 -21 30 -38 100
-110 109 -112 3 -1 10 -1 16 -1 14 2 19 7 37 35 6 10 12 18 13 20 1 1 8 10 15
20 7 10 14 20 16 22 1 2 6 8 9 12 3 4 7 9 8 10 1 1 5 6 8 10 12 16 46 54 55
62 8 8 11 14 12 25 0 13 -4 22 -14 30 -5 4 -9 7 -10 8 -1 1 -5 5 -11 9 -43 35
-100 98 -137 152 -4 6 -8 10 -8 11 -1 1 -5 6 -9 13 -4 7 -10 17 -14 22 -8 12
-13 27 -13 37 0 4 6 26 14 49 13 40 26 83 33 111 2 7 4 14 4 16 10 37 26 110
36 165 4 22 8 45 9 51 1 6 2 15 3 19 1 4 2 16 4 25 2 9 3 22 4 27 1 6 2 14 2
18 6 44 13 102 13 109 1 17 -8 31 -27 39 -19 9 -41 7 -57 -5 -11 -9 -16 -11
-27 -11 -19 0 -28 10 -28 29 1 10 5 21 10 23 9 4 19 5 27 3 15 -4 32 1 48 13
6 4 13 7 19 8 16 2 20 3 27 7 12 6 19 17 21 31 1 7 4 53 6 85 1 14 2 22 4 24
2 1 5 5 6 7 2 3 5 5 6 4 2 0 3 0 3 1 0 1 1 2 3 2 4 0 14 12 18 21 3 6 3 18 3
82 0 80 -1 86 -10 93 -7 5 -28 8 -32 5 -1 -2 -7 -3 -15 -3 -16 0 -21 4 -26 19
-5 17 -11 27 -21 34 l-9 6 -94 1 -94 1 -5 5 c-3 3 -5 6 -4 6 1 1 3 8 20 86 20
94 26 129 24 137 -7 30 -30 41 -66 30 -29 -8 -39 -7 -53 8 -16 17 -28 22 -70
31 -34 7 -36 7 -48 4 -15 -4 -29 -25 -29 -43 0 -2 -2 -14 -4 -27 -2 -13 -4
-27 -5 -31 0 -5 -1 -11 -2 -13 0 -3 -1 -8 -2 -12 -2 -18 -20 -110 -29 -154 -6
-27 -11 -50 -11 -52 0 -2 -2 -7 -3 -11 -1 -5 -2 -12 -2 -16 l-1 -8 -1 8 -1 8
-3 -9 c-4 -13 -8 -20 -10 -19 -1 1 -2 0 -3 -1 0 -2 -1 -2 -4 0 -2 1 -8 3 -15
3 -6 0 -12 1 -12 2 -1 1 -2 1 -2 -1 0 -4 -12 -10 -21 -10 -17 0 -28 12 -28 30
1 13 5 20 17 29 6 4 12 9 13 11 2 2 5 4 8 5 6 1 8 2 27 11 22 10 24 16 24 61
0 27 -1 36 -3 42 -4 9 -14 21 -18 21 -2 0 -3 1 -3 2 0 2 -2 2 -55 3 -56 1 -67
0 -75 -9 -6 -5 -13 -21 -15 -30 -2 -13 -4 -16 -8 -20 -8 -6 -29 -6 -36 1 -9 8
-9 24 0 43 12 24 11 44 -3 75 -1 2 -3 9 -6 15 -15 42 -31 81 -39 91 -6 7 -19
14 -31 16 -6 0 -19 -2 -36 -5z m46 -185 c4 -4 4 -6 3 -17 -1 -14 -4 -20 -12
-24 -12 -6 -21 7 -19 26 3 19 17 27 28 15z m430 -227 c3 -2 7 -7 9 -12 2 -4 4
-8 5 -8 1 0 2 -1 2 -3 0 -2 1 -3 2 -3 1 0 2 -1 2 -3 0 -2 1 -3 3 -3 7 0 -3 -6
-17 -10 -20 -6 -34 -5 -41 1 -6 4 -6 6 -6 20 0 14 0 16 6 20 7 7 28 7 35 1z
m-162 -14 c4 -2 6 -15 3 -25 -1 -4 -2 -9 -2 -10 0 -1 -1 -4 -2 -6 -2 -2 -3 -7
-4 -11 -1 -4 -7 -25 -13 -46 -16 -53 -20 -56 -34 -26 -8 18 -21 33 -34 40 -13
7 -17 14 -15 29 2 23 2 34 -2 36 -2 2 -3 3 -1 3 1 0 5 2 8 5 6 5 7 5 41 5 31
0 35 0 42 4 9 4 9 4 13 2z m-199 -10 c4 -2 5 -4 3 -4 -2 0 -1 -1 2 -2 5 -2 5
-2 -2 -2 -3 0 -8 -1 -10 -2 -6 -3 -85 -28 -89 -28 -7 0 -8 8 -3 21 4 9 6 12
15 16 10 5 11 5 44 5 28 -1 35 -2 40 -4z m435 -15 c3 -3 4 -7 4 -14 0 -13 -6
-19 -19 -19 -11 0 -14 2 -25 17 -4 5 -8 11 -9 11 -4 3 9 8 24 9 4 1 8 1 8 2 2
2 13 -2 17 -6z m-174 -21 c5 -6 5 -12 0 -18 -7 -8 -22 -2 -22 9 0 11 15 17 22
9z m-372 -50 c12 -27 13 -29 10 -34 -3 -6 -7 -7 -25 -10 -14 -2 -17 -2 -29 2
-15 5 -15 5 -1 12 2 1 6 5 8 8 2 4 5 11 8 15 3 4 6 9 6 11 2 4 10 12 13 12 1
0 5 -7 10 -16z m-89 -2 c3 -3 9 -20 9 -27 0 -11 -31 -16 -41 -6 -6 6 -7 24 -1
31 6 8 25 9 33 2z m697 -60 c3 -3 6 -6 5 -6 0 -1 -1 -13 -2 -27 -1 -14 -2 -32
-2 -39 0 -7 -1 -22 -2 -32 -7 -113 -24 -270 -29 -277 -4 -4 -8 -4 -10 2 -3 8
-25 118 -33 166 -4 23 -8 44 -8 47 -1 8 -5 33 -8 55 -4 29 -2 42 12 83 11 33
12 34 46 34 25 0 25 0 31 -6z m-325 -86 c7 -3 12 -13 12 -25 0 -13 -3 -17 -15
-29 -12 -11 -18 -26 -18 -45 0 -12 -1 -13 -8 -23 -8 -10 -8 -10 -8 -24 1 -11
2 -15 5 -20 8 -10 7 -26 -1 -34 -5 -5 -7 -6 -17 -6 -13 0 -20 5 -23 16 -1 4
-4 10 -6 14 -3 5 -3 7 -1 13 2 8 16 20 21 18 2 -1 2 -1 1 0 0 1 0 3 1 4 4 5 3
19 -2 28 -5 10 -3 19 7 32 9 14 12 23 10 39 -4 31 0 40 20 45 5 1 14 -1 22 -3z
m-414 -26 c7 -6 7 -19 1 -25 -6 -6 -17 -7 -25 -1 -6 3 -7 4 -6 12 2 12 7 18
18 18 5 0 9 -1 12 -4z m-75 -33 c9 -3 15 -13 13 -22 0 -2 -1 -6 -1 -9 0 -2 -3
-7 -6 -10 -5 -5 -7 -6 -18 -6 -11 0 -13 1 -18 6 -5 5 -6 7 -6 17 0 14 3 20 12
24 6 2 17 2 24 0z m301 -55 c2 -2 5 -8 7 -14 2 -7 3 -10 6 -10 2 0 2 -1 0 -1
-2 -1 -6 -4 -9 -6 l-5 -5 -117 0 c-64 0 -118 1 -120 2 -2 1 -3 2 -1 2 5 0 2 6
-4 7 -5 0 -2 1 5 1 7 0 14 1 16 1 13 2 17 3 24 4 4 1 11 1 14 2 3 1 9 1 13 2
4 0 12 1 17 2 6 1 12 2 15 2 3 0 19 3 35 5 17 2 34 5 38 5 4 1 16 2 25 4 22 4
35 3 41 -3z m613 -90 c5 -6 5 -13 0 -18 -12 -12 -29 5 -18 18 4 5 13 5 18 0z
m54 -52 c8 -7 2 -19 -8 -19 -6 0 -12 5 -12 10 0 5 9 13 13 13 2 -1 5 -3 7 -4z
m-615 -38 c7 -6 7 -19 1 -25 -6 -7 -19 -7 -25 -1 -7 6 -7 19 -1 25 6 7 19 7
25 1z m553 -52 c5 -6 5 -12 0 -18 -7 -8 -22 -2 -22 9 0 11 15 17 22 9z m-393
-21 c4 -3 10 -6 15 -7 33 -8 34 -9 34 -42 0 -14 1 -29 2 -33 1 -4 3 -10 3 -13
5 -22 34 -132 43 -159 2 -7 6 -19 9 -28 7 -22 12 -38 22 -65 12 -33 11 -46 -1
-70 -15 -30 -33 -58 -58 -92 -9 -13 -17 -23 -18 -24 -1 -1 -3 -3 -4 -5 -3 -4
-23 -27 -31 -36 -2 -2 -9 -9 -14 -15 -9 -9 -11 -11 -13 -8 -8 8 -8 7 -8 162 0
174 1 162 -21 185 -22 23 -22 39 0 62 21 22 21 21 21 109 0 67 0 75 3 80 2 3
5 6 5 6 1 0 2 2 2 4 0 2 1 1 1 -2 1 -2 4 -6 8 -9z m-290 -24 c5 -6 6 -8 6 -19
0 -11 -1 -13 -6 -19 l-6 -6 -34 0 -34 0 -6 6 c-5 6 -6 8 -6 19 0 11 1 13 6 19
l6 6 34 0 34 0 6 -6z m141 -96 l-5 -5 -4 4 -5 5 4 4 5 5 4 -4 5 -5 -4 -4z
m-92 7 c5 -5 5 -15 0 -20 -9 -9 -24 -2 -24 10 0 8 6 14 14 14 3 0 8 -2 10 -4z
m-149 -8 c10 -9 3 -26 -10 -26 -8 0 -15 7 -15 15 0 13 16 20 25 11z m612 -7
c5 -8 1 -16 -8 -16 -9 0 -13 8 -8 16 2 3 5 5 8 5 3 0 6 -2 8 -5z m65 -113 c15
-6 20 -25 10 -35 -10 -11 -53 -3 -61 11 -4 7 -4 18 1 24 6 8 30 8 50 0z m-577
-39 c4 -4 6 -7 5 -11 -1 -10 8 -27 21 -41 15 -15 19 -25 15 -40 -4 -14 -11
-19 -27 -20 -17 -1 -28 8 -30 27 0 1 -2 6 -5 12 -3 9 -6 12 -11 15 -8 4 -23 4
-35 1 -9 -2 -10 -2 -14 2 -5 4 -5 6 -5 26 0 22 0 23 6 29 l6 6 34 0 34 0 6 -6z
m-233 -17 c5 -5 5 -15 0 -20 -9 -9 -24 -2 -24 10 0 8 6 14 14 14 3 0 8 -2 10
-4z m399 -23 c3 -5 3 -5 0 -10 -2 -3 -5 -5 -7 -5 -2 0 -5 2 -7 5 -3 5 -3 5 0
10 2 3 5 5 7 5 2 0 5 -2 7 -5z m422 -99 c4 -6 4 -24 -1 -30 -7 -9 -27 -9 -34
0 -5 6 -5 24 0 30 7 9 27 9 35 0z m-683 -18 c2 -5 2 -25 0 -21 -1 1 -2 1 -2
-2 0 -2 1 -3 4 -2 6 2 31 -24 41 -43 10 -19 21 -27 38 -27 16 -1 24 -7 21 -16
-1 -3 -2 -19 -2 -37 l0 -33 -7 -5 c-6 -5 -6 -5 -39 -5 l-33 0 -5 6 c-6 6 -6 6
-6 35 0 29 -2 41 -10 55 -7 15 -11 35 -7 40 1 0 2 2 2 4 1 1 2 5 3 9 1 4 1 10
0 13 -1 3 -3 8 -3 10 0 2 -2 7 -3 10 -2 5 -2 8 0 10 4 4 5 4 8 -1z m159 -28
c7 -6 10 -22 6 -36 -4 -14 -8 -18 -21 -20 -5 -1 -11 -2 -13 -3 -3 0 -7 1 -11
4 -8 5 -8 5 -4 34 2 21 6 25 25 25 9 0 14 -1 18 -4z m-314 -26 c16 -7 16 -43
-1 -50 -15 -6 -34 -2 -39 9 -4 8 -4 24 0 32 5 12 23 15 40 9z m901 -98 c5 -6
5 -12 0 -18 -7 -8 -22 -2 -22 9 0 11 15 17 22 9z m47 -106 c10 -9 3 -26 -10
-26 -8 0 -15 7 -15 15 0 13 16 20 25 11z"/>
<path d="M124 3720 c-3 -1 -6 -1 -7 0 0 0 -1 0 -1 -2 0 -1 -1 -2 -3 -2 -4 0
-14 -12 -18 -21 -4 -11 -4 -306 1 -332 2 -15 2 -19 0 -33 -5 -26 -6 -850 -1
-865 4 -12 10 -20 23 -29 12 -8 16 -13 16 -22 0 -9 -4 -14 -16 -22 -12 -9 -19
-17 -23 -28 -5 -15 -5 -270 0 -281 4 -9 14 -21 18 -21 2 0 3 -1 3 -2 0 -3 12
-3 105 -3 93 0 105 0 105 3 0 1 1 2 3 2 4 0 14 12 18 21 3 7 3 17 3 65 l-1 57
6 6 6 6 56 0 56 0 10 6 c5 3 12 9 15 13 3 4 6 8 8 9 2 0 5 2 7 3 2 2 4 2 7 0
1 -1 4 -3 6 -3 2 -1 5 -5 8 -9 3 -4 10 -10 15 -13 10 -6 11 -6 36 -6 28 0 37
1 37 3 0 1 1 2 2 2 1 0 5 2 9 6 5 4 6 6 6 16 0 13 -5 20 -20 26 -5 2 -9 5 -10
6 -1 1 -2 2 -3 1 -1 0 -4 2 -7 5 -8 8 -8 24 0 32 3 3 6 6 7 5 0 0 3 1 6 3 2 2
6 4 7 4 5 0 18 12 22 19 4 8 4 19 5 412 1 222 2 406 3 408 1 1 3 3 4 3 4 0 4
25 0 27 -1 1 -3 3 -3 5 -1 2 -1 3 -2 4 -3 3 -12 16 -12 17 0 1 -4 6 -8 12 -14
19 -15 34 -1 53 8 12 10 26 6 39 -2 6 -4 11 -5 12 -5 6 -3 21 5 37 14 27 13
19 13 172 0 125 0 142 -3 149 -4 9 -14 21 -18 21 -2 0 -3 1 -3 2 0 1 -1 2 -2
2 -6 1 -491 2 -496 0z m271 -90 c5 -5 6 -7 6 -16 0 -15 -8 -23 -23 -23 -9 0
-11 1 -16 7 -9 8 -9 23 -1 32 9 9 24 9 34 0z m-110 -16 c7 -6 7 -19 1 -25 -6
-7 -19 -7 -25 -1 -7 6 -7 19 -1 25 6 7 19 7 25 1z m87 -81 l-5 -5 -4 4 -5 5 4
4 5 5 4 -4 5 -5 -4 -4z m9 -88 c6 -6 6 -7 6 -20 -1 -21 0 -24 10 -31 5 -3 9
-5 10 -4 1 0 1 0 1 -1 -1 -1 1 -4 4 -7 2 -3 4 -6 4 -7 0 -1 1 -4 3 -7 1 -3 2
-11 3 -18 1 -25 -14 -35 -56 -40 -3 -1 -7 1 -11 5 l-6 6 0 59 0 59 6 6 c8 8
17 8 26 0z m64 -39 l-5 -5 -4 5 -5 4 5 5 5 5 4 -4 5 -5 -5 -5z m-131 -243 c3
-3 4 -7 4 -14 0 -13 -6 -19 -19 -19 -13 0 -19 6 -19 19 0 7 1 11 4 14 7 8 23
8 30 0z m-147 -9 c11 -10 3 -28 -11 -28 -9 0 -16 6 -16 16 0 14 17 22 27 12z
m214 -113 l6 -6 0 -60 0 -60 -6 -6 c-5 -4 -8 -6 -13 -6 -5 0 -8 2 -13 6 l-6 6
0 60 0 60 6 6 c8 8 17 8 26 0z m-117 -72 c7 -7 6 -22 -1 -28 -7 -7 -22 -7 -29
0 -6 6 -6 21 0 28 7 8 23 8 30 0z m227 1 c10 -9 3 -26 -10 -26 -8 0 -15 7 -15
15 0 13 16 20 25 11z m-194 -76 c10 -9 3 -26 -10 -26 -12 0 -19 14 -11 25 4 6
15 7 21 1z m215 -148 c8 -7 8 -21 1 -36 -8 -19 -10 -32 -7 -53 4 -27 3 -49 -1
-56 -8 -17 -43 -15 -49 1 -8 21 -15 31 -29 42 -2 1 -12 1 -17 -1 -3 -2 -5 -2
-9 -3 -4 0 -9 -6 -8 -9 0 -2 0 -3 -1 -3 -5 0 -6 -19 -6 -73 l1 -56 -6 -6 c-5
-4 -8 -6 -13 -6 -5 0 -8 2 -13 6 l-6 6 0 65 0 65 7 6 c3 4 8 7 10 7 2 0 5 1 6
3 1 1 3 2 5 2 3 -2 10 5 11 11 0 2 2 8 4 13 2 5 4 11 4 13 0 7 5 15 11 18 3 1
14 3 25 3 25 1 29 4 36 23 8 20 13 24 27 24 10 0 12 -1 17 -6z m-154 -11 l-5
-5 -4 4 -5 5 4 4 5 5 4 -4 5 -5 -4 -4z m-111 -123 c10 -9 3 -26 -10 -26 -8 0
-15 7 -15 15 0 13 16 20 25 11z m79 -169 c7 -7 7 -23 -2 -31 -5 -6 -7 -7 -16
-7 -9 0 -11 1 -16 7 -12 11 -6 36 9 38 7 2 20 -2 25 -7z m-116 -37 c5 -5 5
-15 0 -20 -9 -9 -24 -2 -24 10 0 8 6 14 14 14 3 0 8 -2 10 -4z m-62 -265 l-5
-5 -4 4 -5 5 4 4 5 5 4 -4 5 -5 -4 -4z"/>
</g>
</svg>
