<?xml version="1.0" standalone="no"?>
<!DOCTYPE svg PUBLIC "-//W3C//DTD SVG 20010904//EN"
 "http://www.w3.org/TR/2001/REC-SVG-20010904/DTD/svg10.dtd">
<svg version="1.0" xmlns="http://www.w3.org/2000/svg"
 width="1000.000000pt" height="2850.000000pt" viewBox="0 0 1000.000000 2850.000000"
 preserveAspectRatio="xMidYMid meet">
<metadata>
Created by potrace 1.15, written by Peter Selinger 2001-2017
</metadata>
<g transform="translate(0.000000,2850.000000) scale(0.500000,-0.500000)"
fill="#000000" stroke="none">
<path d="M1148 3805 c-12 -3 -23 -10 -26 -16 -2 -3 -4 -6 -4 -7 -3 -2 -6 -15
-6 -25 0 -8 1 -12 5 -17 4 -5 13 -9 18 -8 0 0 1 -1 1 -2 0 -1 1 -2 3 -1 15 0
22 -1 27 -7 5 -5 6 -7 6 -17 0 -10 -1 -12 -6 -17 -5 -5 -7 -6 -16 -6 -10 0
-24 6 -24 10 0 1 -8 2 -17 2 -16 0 -18 0 -22 -5 -3 -3 -5 -7 -5 -8 0 -3 -19
-54 -34 -91 -14 -33 -15 -39 -12 -52 1 -5 3 -11 3 -13 3 -13 3 -21 1 -23 -3
-2 -4 -16 -1 -28 2 -11 14 -14 45 -13 23 2 23 1 29 -3 5 -5 6 -7 7 -17 1 -26
-3 -28 -48 -30 -19 -1 -35 -1 -36 -1 -5 -1 -9 1 -15 6 -7 5 -9 6 -21 6 -18 0
-21 -1 -26 -10 -3 -5 -8 -13 -12 -20 -4 -6 -15 -26 -24 -44 -18 -34 -22 -42
-35 -64 -4 -7 -7 -13 -7 -13 0 -1 -2 -4 -4 -7 -2 -3 -11 -17 -21 -31 -29 -44
-39 -58 -60 -77 -20 -20 -31 -24 -33 -12 0 4 17 55 24 71 8 17 18 51 19 63 1
8 2 17 3 20 1 3 4 14 6 24 2 11 5 23 7 26 3 6 8 9 11 8 1 -1 4 2 7 6 5 5 5 7
4 16 -1 13 -3 18 -13 27 -11 11 -45 24 -65 24 -7 0 -13 1 -13 2 0 1 -1 0 -3
-2 -2 -2 -4 -3 -5 -2 -1 1 -2 0 -3 -1 -1 -1 -2 -2 -3 -1 -1 1 -2 0 -2 -1 0 -1
1 -2 2 -2 1 0 1 -2 1 -4 -1 -3 1 -10 4 -17 3 -6 5 -13 5 -15 0 -4 -8 -8 -19
-10 -22 -2 -23 27 -2 36 l6 2 -1 15 c-2 17 -3 20 -9 22 -4 1 -15 6 -51 20 -22
8 -24 9 -34 7 -22 -4 -27 -13 -37 -66 -4 -20 -9 -48 -12 -61 -3 -13 -5 -27 -5
-31 0 -5 -1 -6 -2 -4 -1 4 -5 3 -7 -3 -1 -3 3 -23 7 -29 1 -2 2 -11 3 -21 2
-21 -2 -29 -15 -33 -18 -6 -32 6 -32 26 0 12 2 15 17 31 5 5 9 11 9 12 0 1 2
4 4 7 5 5 9 17 6 18 -1 0 -2 53 -2 146 0 158 0 151 -12 175 -12 24 -12 34 0
58 12 23 15 41 9 56 -4 9 -14 21 -18 21 -2 0 -3 1 -3 2 0 2 0 2 -24 3 -23 2
-33 -2 -45 -15 -13 -14 -20 -20 -23 -20 -3 0 -10 6 -23 20 -13 15 -19 16 -63
15 -41 -1 -42 -1 -42 -3 0 -1 -1 -2 -3 -2 -4 0 -14 -12 -18 -21 -3 -7 -3 -25
-3 -165 0 -152 0 -159 4 -166 6 -12 11 -15 27 -15 5 0 7 -1 7 -3 0 -3 -9 -7
-21 -9 -3 0 -6 -1 -6 -1 0 0 3 -21 4 -26 1 -4 2 -7 12 -26 7 -13 4 -32 -8 -44
-8 -10 -15 -21 -15 -26 0 -3 -1 -6 -2 -7 -2 -1 -2 -1 -1 1 1 1 -1 3 -4 4 -3 2
-5 4 -5 5 0 1 -1 1 -2 -1 -2 -2 -2 -2 -2 2 0 3 -3 12 -6 20 -3 8 -7 20 -9 26
-4 15 -12 31 -19 36 -8 5 -16 8 -43 12 -53 8 -67 2 -84 -36 -3 -7 -17 -18 -24
-18 -5 0 -8 -8 -8 -23 l-1 -15 8 -2 c4 -1 8 -3 9 -4 1 -1 3 -1 4 -1 7 3 9 -14
9 -71 0 -11 -5 -18 -13 -21 -39 -11 -49 -22 -52 -56 -1 -7 -1 -14 -2 -17 0 -3
-2 -12 -3 -21 -5 -35 -4 -32 -10 -65 -3 -13 -5 -26 -5 -29 -3 -16 -14 -65 -20
-89 -8 -28 -8 -35 -1 -48 2 -4 7 -10 11 -13 8 -6 59 -26 69 -28 14 -1 42 9 35
13 -1 2 -1 2 0 2 2 0 3 4 3 11 0 16 11 36 23 43 7 3 27 6 47 7 30 1 47 10 51
30 3 18 13 81 16 105 0 5 1 13 2 17 2 13 10 101 12 124 0 7 1 27 1 46 1 34 1
34 2 12 1 -12 1 -21 2 -19 0 1 1 2 3 2 1 0 2 2 2 4 0 1 1 5 3 8 1 3 2 4 2 2 0
-2 0 -4 -1 -4 0 -1 -1 -68 -2 -149 -1 -81 -2 -152 -2 -157 0 -20 7 -34 24 -45
16 -10 19 -15 20 -26 0 -10 -7 -25 -15 -30 -13 -10 -24 -19 -24 -21 0 -1 -1
-3 -3 -4 -8 -8 -12 -21 -14 -44 -1 -14 -11 -89 -12 -97 -9 -53 -26 -131 -38
-175 -6 -22 -7 -27 -6 -34 2 -11 10 -21 23 -29 13 -9 15 -11 18 -23 4 -14 -2
-30 -14 -35 -6 -2 -20 -3 -24 -1 -4 2 -27 -2 -34 -6 -4 -2 -16 -17 -16 -20 0
-1 -6 -14 -13 -29 -17 -36 -17 -44 1 -68 7 -9 7 -13 3 -18 -2 -3 -5 -4 -23 -4
-25 0 -30 -2 -39 -16 -4 -6 -8 -11 -10 -13 -1 -2 -5 -7 -8 -12 -3 -5 -10 -14
-15 -21 -12 -15 -14 -20 -14 -32 0 -14 3 -19 27 -42 22 -22 43 -45 50 -54 2
-2 9 -10 14 -16 6 -7 14 -17 19 -23 10 -12 21 -19 38 -22 8 -2 11 -2 15 0 2 1
8 2 14 3 5 0 10 1 10 1 0 1 2 4 3 8 2 4 10 13 20 22 9 9 20 19 25 24 4 5 9 8
12 8 7 0 29 8 36 13 7 5 12 10 15 17 2 3 6 10 9 15 10 17 20 37 33 63 13 26
14 28 12 63 0 10 1 14 3 19 2 3 4 6 5 6 3 0 22 18 27 26 6 9 17 35 17 39 0 2
2 7 4 12 6 14 11 18 17 12 2 -2 25 -48 41 -81 3 -8 9 -20 12 -26 3 -7 11 -25
17 -39 6 -14 14 -32 17 -39 3 -6 6 -13 6 -15 0 -7 14 -17 27 -18 13 -2 19 0
22 7 3 8 4 33 1 38 -1 2 -2 9 -2 14 0 7 1 10 5 13 9 8 19 10 30 7 10 -3 11 -3
13 0 3 6 2 22 -2 26 -5 5 -10 17 -10 24 0 9 3 14 11 17 11 5 23 -1 28 -14 4
-11 11 -14 26 -12 9 0 15 2 16 4 2 2 12 14 33 36 21 23 22 40 3 70 -10 16 -15
25 -15 27 0 1 -1 3 -3 4 -1 1 -4 5 -6 9 -1 3 -21 36 -43 72 -22 36 -44 72 -48
80 -4 8 -14 24 -22 36 -7 12 -17 27 -20 33 -9 15 -35 56 -61 96 -17 26 -21 35
-22 52 -2 23 -7 35 -19 40 -3 1 -8 3 -11 4 -3 2 -8 3 -11 3 -3 1 -9 4 -13 7
-17 12 -30 16 -47 12 -22 -5 -32 0 -32 17 0 10 5 19 12 19 8 0 28 7 44 14 21
11 32 11 46 3 6 -3 10 -6 11 -7 2 -3 24 -2 29 1 7 5 12 18 13 34 1 15 3 82 4
120 0 23 -3 43 -7 43 -1 0 -2 1 -2 2 0 3 -10 12 -19 19 -11 6 -13 10 -13 24 0
10 1 12 6 17 3 3 7 6 9 6 24 2 31 -3 34 -21 1 -4 2 -10 4 -14 2 -3 3 -7 3 -9
0 -2 2 -6 4 -8 4 -3 18 -30 18 -35 0 -1 2 -7 5 -13 7 -13 14 -17 31 -17 17 1
21 1 37 9 22 10 27 16 40 50 14 37 18 33 46 -48 14 -39 20 -47 45 -58 9 -3 17
-6 18 -6 3 0 10 -9 12 -17 3 -12 0 -22 -11 -37 -6 -10 -8 -14 -8 -22 -1 -14 0
-17 8 -21 13 -6 23 -6 41 0 16 5 19 6 29 8 11 3 68 13 82 15 21 3 35 9 44 17
21 19 29 21 54 9 18 -8 27 -10 44 -8 19 2 137 14 239 24 47 5 87 9 89 9 10 2
24 9 34 19 12 11 17 14 25 14 6 0 20 -6 22 -8 0 -1 2 -2 3 -2 2 0 3 -1 3 -2 0
-1 4 -3 9 -5 11 -5 32 -5 62 -2 27 3 32 3 39 -4 5 -4 16 -30 32 -77 6 -19 16
-29 28 -30 16 -1 19 1 24 13 2 7 5 15 7 20 3 11 9 14 22 11 5 -1 14 -3 19 -4
12 -3 25 -1 36 5 5 3 15 9 23 13 8 4 19 10 26 14 7 4 18 10 26 14 8 4 22 12
32 17 18 10 31 20 31 24 0 2 1 3 2 3 2 0 2 1 3 15 1 10 0 14 -9 36 -5 14 -13
31 -16 38 -3 7 -6 13 -6 14 0 2 -54 111 -64 128 -21 39 -33 61 -39 71 -4 5 -7
10 -7 11 0 0 -5 8 -11 18 -6 10 -15 25 -20 34 -12 20 -16 22 -35 22 -14 0 -16
-1 -24 -6 -5 -4 -16 -9 -25 -11 -26 -8 -39 -3 -39 15 0 5 1 11 2 13 3 5 15 13
27 17 21 7 32 23 30 41 0 8 -20 38 -38 60 l-9 10 -15 0 -15 0 -8 -9 c-4 -6 -8
-11 -8 -11 0 -1 -7 -6 -14 -12 -16 -11 -22 -16 -32 -31 -10 -14 -15 -16 -35
-15 -2 0 -6 3 -9 6 -5 5 -6 7 -6 17 0 13 3 20 13 27 14 9 18 15 19 29 1 12 1
12 -5 16 -15 7 -19 6 -93 -31 -74 -37 -74 -37 -77 -56 -1 -9 1 -17 5 -23 13
-15 100 -148 100 -153 0 -1 -2 -3 -5 -6 -5 -4 -9 -5 -148 -15 -79 -6 -146 -11
-149 -11 -3 0 -8 2 -12 4 l-6 4 10 16 c5 9 10 16 10 17 0 1 3 6 7 12 3 5 9 15
12 21 7 13 13 22 19 32 4 8 9 21 11 31 1 3 2 7 3 10 2 4 2 7 2 8 0 1 1 1 2 0
1 0 3 1 4 4 1 2 4 5 7 7 2 1 6 5 8 9 3 5 10 19 17 32 20 39 54 106 70 142 7
16 7 22 1 46 l-4 14 4 5 c2 3 10 8 16 11 20 9 25 15 42 57 10 25 10 31 4 45
-4 7 -14 16 -24 19 -13 4 -33 -2 -41 -12 -4 -5 -11 -14 -15 -19 -1 -1 -5 -4
-8 -6 -4 -2 -7 -5 -7 -5 0 -1 -1 -2 -2 -2 -1 0 -5 -2 -8 -5 -11 -10 -12 -26
-4 -48 5 -13 5 -20 -1 -27 -5 -6 -24 -16 -30 -16 -2 0 -5 2 -7 4 -2 4 -3 8 -5
30 -1 12 -5 26 -9 39 -5 12 -5 27 -1 33 2 2 11 8 20 12 9 4 17 9 18 10 1 1 2
8 2 16 0 12 0 13 -5 18 -8 6 -15 9 -40 15 -12 3 -28 7 -36 9 -8 2 -17 5 -19 5
-2 0 -11 3 -19 5 -8 2 -19 5 -24 6 -5 1 -11 3 -14 4 -3 1 -8 1 -14 -1z m73
-203 c9 -8 13 -13 10 -14 -2 0 -3 -1 -3 -2 0 -1 -2 -3 -5 -4 -12 -4 -23 7 -16
17 3 5 9 6 14 3z m71 -24 c4 -11 3 -28 -3 -34 -6 -6 -21 -6 -28 0 -3 3 -5 6
-5 7 0 1 -1 4 -3 5 -2 1 -3 3 -2 3 0 1 0 4 -1 6 -2 4 -1 6 1 8 2 2 3 3 3 3 1
-1 3 0 6 1 3 1 6 1 8 1 1 0 2 1 2 2 0 2 14 8 17 7 1 -1 3 -5 5 -9z m-819 -56
c12 -5 15 -27 6 -45 -6 -12 -9 -25 -9 -39 0 -15 -4 -19 -24 -24 -24 -6 -77
-14 -82 -12 -8 3 -5 16 7 26 3 3 10 9 14 13 4 5 12 11 17 15 16 11 24 26 27
46 3 21 21 28 44 20z m763 -125 c7 -3 11 -14 13 -31 1 -9 1 -10 -5 -14 -8 -6
-23 -8 -51 -8 -22 0 -24 0 -28 4 -8 7 -5 21 5 29 7 6 35 22 41 23 7 2 18 0 25
-3z m-421 -32 c4 -4 7 -7 7 -8 -16 -8 -18 -9 -25 -2 -6 6 -6 10 0 14 6 4 10 4
18 -4z m-72 -103 c7 -3 12 -13 12 -25 0 -19 -9 -28 -28 -28 -19 0 -28 9 -28
28 0 17 6 24 22 28 5 1 14 -1 22 -3z m948 -9 c5 -8 1 -16 -8 -16 -9 0 -13 8
-8 16 2 3 5 5 8 5 3 0 6 -2 8 -5z m-1198 -80 c3 -5 3 -5 0 -10 -2 -3 -5 -5 -7
-5 -2 0 -5 2 -7 5 -3 5 -3 5 0 10 2 3 5 5 7 5 2 0 5 -2 7 -5z m1118 -19 c7 -6
7 -19 1 -25 -6 -7 -19 -7 -25 -1 -7 6 -7 19 -1 25 6 7 19 7 25 1z m-325 -32
c11 -13 2 -48 -12 -48 -5 0 -12 9 -14 19 -4 19 3 33 15 33 4 0 8 -2 11 -4z
m-1047 -2 c11 -10 3 -28 -11 -28 -9 0 -16 6 -16 16 0 14 17 22 27 12z m649
-15 l-5 -5 -4 4 -5 5 4 4 5 5 4 -4 5 -5 -4 -4z m936 -4 c20 -9 20 -45 0 -54
-9 -3 -20 -3 -32 2 -14 6 -26 9 -39 9 -6 1 -10 2 -13 5 -3 4 -4 4 0 8 2 3 10
7 18 10 8 3 19 7 23 10 18 13 30 15 43 10z m-376 -53 c8 -8 4 -19 -9 -33 -3
-3 -10 -15 -15 -26 -11 -23 -15 -26 -32 -26 -18 1 -27 10 -27 28 0 16 4 20 23
30 10 5 23 14 30 20 14 12 23 14 30 7z m-1211 -14 c10 -9 3 -26 -10 -26 -8 0
-15 7 -15 15 0 13 16 20 25 11z m255 -12 c12 -8 22 -13 36 -17 13 -5 18 -10
18 -19 0 -10 -5 -15 -22 -22 -20 -8 -38 -12 -47 -10 -7 2 -21 11 -21 14 0 1
-3 4 -6 6 -9 7 -29 8 -40 2 -5 -2 -11 -4 -14 -5 -8 -2 -22 2 -26 7 -9 8 -9 32
0 40 6 7 19 9 32 5 13 -4 34 -3 45 2 19 9 29 8 45 -3z m482 -39 l-5 -5 -4 4
-5 5 4 4 5 5 4 -4 5 -5 -4 -4z m-477 -412 c6 -9 0 -43 -10 -51 -9 -8 -23 -2
-23 10 0 10 11 40 15 40 1 0 4 1 5 3 4 4 9 4 13 -2z m152 -137 c7 -3 12 -13
12 -25 0 -19 -9 -28 -28 -28 -19 0 -28 9 -28 28 0 17 6 24 22 28 5 1 14 -1 22
-3z m-141 -46 c4 -3 6 -8 7 -12 1 -10 -6 -28 -14 -36 l-6 -6 -10 9 c-5 5 -9
10 -9 10 0 1 -1 3 -3 5 -2 3 -4 7 -4 14 0 8 1 11 6 16 9 9 24 9 33 0z m-147
-20 c10 -9 3 -26 -10 -26 -8 0 -15 7 -15 15 0 13 16 20 25 11z m362 -75 c3 -5
3 -5 -2 -11 l-5 -5 -5 5 c-5 6 -5 6 -2 11 2 3 5 5 7 5 2 0 5 -2 7 -5z m-436
-131 c5 -5 6 -7 6 -16 0 -9 -1 -11 -7 -16 -5 -6 -7 -7 -16 -7 -9 0 -11 1 -16
7 -9 8 -9 23 -1 32 9 9 24 9 34 0z"/>
<path d="M214 2840 c-4 -2 -12 -4 -18 -5 -6 -1 -12 -3 -15 -5 -5 -4 -5 -6 -5
-20 0 -15 0 -16 5 -17 2 -1 10 -4 17 -6 12 -5 14 -5 24 -3 14 3 22 9 27 22 8
17 6 32 -4 36 -9 3 -23 2 -31 -2z"/>
<path d="M966 2769 c-12 -3 -34 -15 -43 -24 -12 -12 -15 -21 -17 -38 -1 -26 7
-43 27 -57 9 -7 13 -14 13 -26 0 -12 -4 -19 -13 -26 -12 -8 -22 -21 -25 -31
-1 -6 -2 -43 -2 -113 0 -116 0 -112 15 -137 8 -14 10 -17 10 -27 0 -10 -2 -13
-10 -27 -16 -26 -15 -15 -15 -187 0 -136 0 -154 3 -161 4 -9 14 -21 18 -21 2
0 3 -1 3 -2 0 -2 1 -2 27 -3 21 -1 23 -1 43 6 11 4 23 7 26 7 3 0 15 -3 26 -7
11 -4 23 -7 25 -7 2 0 14 3 25 7 23 8 28 8 44 3 9 -4 18 -5 29 -4 5 0 17 12
20 21 2 6 3 13 3 24 -1 16 -1 16 5 22 6 6 7 6 29 6 18 0 24 1 29 4 7 3 13 10
14 15 0 2 1 4 2 6 1 1 2 8 2 15 2 17 6 22 20 20 15 -1 24 -8 39 -27 6 -8 14
-11 30 -13 11 -1 13 -1 17 2 2 3 8 7 13 10 12 6 20 14 28 26 12 16 28 21 44
13 12 -6 23 -22 21 -30 0 -2 0 -4 1 -4 1 0 2 -2 2 -4 0 -6 12 -28 14 -26 2 2
2 2 2 0 0 -5 6 -16 9 -17 1 -1 2 -6 1 -17 0 -12 1 -19 3 -25 4 -9 14 -21 18
-21 2 0 3 -1 3 -2 0 -3 12 -3 105 -3 91 0 94 0 102 4 4 2 13 7 18 10 6 3 16 7
23 9 26 8 34 17 36 41 1 16 -4 28 -12 33 -7 3 -28 6 -29 4 -1 -1 -7 -2 -14 -2
-11 0 -14 1 -18 5 -6 4 -6 6 -6 20 0 14 0 16 6 20 4 4 7 5 18 5 7 0 13 -1 14
-2 1 -2 22 1 29 4 2 2 6 6 8 10 4 8 4 16 4 308 0 293 0 301 -4 309 -4 10 -10
17 -19 22 -9 6 -19 18 -19 24 0 3 -1 5 -2 5 0 0 -2 2 -4 6 -6 14 -25 33 -41
40 l-13 6 -31 0 c-26 -1 -33 -2 -39 -5 -5 -2 -13 -5 -19 -7 -11 -3 -12 -3 -24
0 -7 2 -15 5 -19 7 -7 4 -15 4 -140 4 l-132 1 -19 -7 c-24 -10 -32 -10 -56 0
-18 7 -20 7 -44 7 -22 0 -26 -1 -38 -5 -7 -3 -14 -7 -16 -9 -7 -5 -17 -10 -23
-10 -9 0 -28 8 -36 14 -3 3 -8 6 -10 6 -2 0 -4 1 -3 2 0 0 -1 1 -3 1 -2 1 -4
0 -3 -1 1 -1 0 -2 -1 -3 -1 -1 -2 -8 -2 -17 0 -11 -1 -16 -2 -17 -2 0 -1 -1 2
-1 10 0 17 -7 27 -26 5 -10 10 -18 11 -17 2 1 20 -9 24 -14 12 -14 -7 -33 -21
-21 -6 4 -14 16 -16 21 0 2 -3 5 -6 6 -14 7 -25 11 -29 12 -10 2 -24 9 -29 16
-6 7 -7 20 -2 22 2 1 2 3 1 7 -1 3 -2 8 -3 12 -1 10 -8 17 -17 20 -7 2 -32 2
-42 1z m459 -49 c4 -6 4 -24 -1 -30 -7 -9 -27 -9 -34 0 -5 6 -5 24 0 30 7 9
27 9 35 0z m168 -8 c10 -9 3 -26 -10 -26 -8 0 -15 7 -15 15 0 13 16 20 25 11z
m-361 -36 c6 -7 9 -12 9 -14 -1 -1 0 -2 2 -2 1 0 1 -1 -1 -2 -2 -1 -2 -2 -1
-2 4 0 -14 -15 -19 -16 -9 -2 -20 1 -24 6 -5 6 -5 24 0 30 6 8 28 9 34 0z m78
-6 c1 0 5 -3 8 -6 5 -5 6 -7 6 -18 0 -11 -1 -13 -6 -18 -3 -3 -7 -6 -9 -6 -21
-1 -27 1 -34 16 -2 5 -5 10 -5 9 -1 0 -1 1 -1 4 0 3 1 4 2 4 0 -1 4 2 8 6 3 4
8 8 10 8 4 2 8 2 21 1z m111 -40 c11 -10 3 -28 -11 -28 -9 0 -16 6 -16 16 0
14 17 22 27 12z m201 -62 c5 -5 6 -7 6 -17 0 -10 -1 -12 -6 -17 -5 -5 -7 -6
-17 -6 -10 0 -12 1 -17 6 -5 5 -6 7 -6 17 0 10 1 12 6 17 5 5 7 6 17 6 10 0
12 -1 17 -6z m-234 -16 c5 0 14 -11 14 -18 0 -10 8 -28 16 -35 10 -10 18 -11
57 -11 l34 1 6 -6 c5 -6 6 -8 6 -19 0 -7 2 -14 4 -19 3 -5 6 -14 8 -20 3 -12
3 -13 0 -24 -2 -7 -5 -16 -8 -20 -4 -8 -4 -11 -4 -65 l0 -57 -6 -6 -6 -6 -150
0 -150 0 -6 6 -6 6 0 109 0 109 6 6 6 6 54 -1 c59 0 65 1 75 11 8 6 16 25 16
35 0 7 5 14 12 17 5 2 8 2 22 1z m-394 -80 c5 -5 6 -7 6 -17 0 -10 -1 -12 -6
-17 -5 -5 -7 -6 -17 -6 -10 0 -12 1 -17 6 -5 5 -6 7 -6 17 0 10 1 12 6 17 5 5
7 6 17 6 10 0 12 -1 17 -6z m731 -167 c4 -4 5 -7 5 -15 0 -14 -6 -20 -20 -20
-14 0 -20 6 -20 20 0 14 6 20 20 20 8 0 11 -1 15 -5z m-85 -93 c16 -4 18 -5
22 -11 4 -5 4 -9 0 -16 -3 -8 -5 -9 -31 -22 -25 -13 -30 -17 -45 -32 l-11 -11
-14 0 c-18 0 -23 5 -25 21 -1 18 1 21 21 34 9 6 19 14 21 18 3 3 5 6 6 7 1 1
2 3 4 5 1 3 6 6 10 9 11 4 23 4 42 -2z m-369 -44 c7 -3 12 -13 12 -25 0 -19
-9 -28 -28 -28 -19 0 -28 9 -28 28 0 17 6 24 22 28 5 1 14 -1 22 -3z m100 -10
c7 -6 7 -19 1 -25 -6 -7 -19 -7 -25 -1 -7 6 -7 19 -1 25 6 7 19 7 25 1z m-298
-13 c3 -3 3 -3 0 -6 -3 -3 -3 -3 -6 0 -3 2 -3 3 -1 6 4 4 4 4 7 0z m674 -5 c4
-6 4 -24 -1 -30 -7 -9 -27 -9 -34 0 -5 6 -5 24 0 30 7 9 27 9 35 0z m-568 -54
c10 -9 3 -26 -10 -26 -8 0 -15 7 -15 15 0 13 16 20 25 11z"/>
</g>
</svg>
