<?xml version="1.0" standalone="no"?>
<!DOCTYPE svg PUBLIC "-//W3C//DTD SVG 20010904//EN"
 "http://www.w3.org/TR/2001/REC-SVG-20010904/DTD/svg10.dtd">
<svg version="1.0" xmlns="http://www.w3.org/2000/svg"
 width="1000.000000pt" height="2850.000000pt" viewBox="0 0 1000.000000 2850.000000"
 preserveAspectRatio="xMidYMid meet">
<metadata>
Created by potrace 1.15, written by Peter Selinger 2001-2017
</metadata>
<g transform="translate(0.000000,2850.000000) scale(0.500000,-0.500000)"
fill="#000000" stroke="none">
<path d="M844 3814 c-3 -1 -6 -1 -7 0 0 0 -1 0 -1 -2 0 -1 -1 -2 -2 -2 -3 0
-16 -11 -16 -13 0 -1 -2 -4 -4 -7 -7 -9 -19 -34 -23 -45 -2 -8 -3 -16 -3 -28
1 -18 1 -18 -5 -24 l-6 -6 -84 0 c-84 0 -95 0 -95 -3 0 -1 -1 -2 -3 -2 -3 0
-17 -15 -17 -18 0 -2 -4 -6 -13 -14 -2 -1 -3 -1 -3 0 -1 2 -40 27 -68 44 -35
21 -100 54 -148 75 -12 5 -25 11 -30 14 -6 3 -13 4 -23 4 -12 0 -15 -1 -23 -6
-8 -5 -32 -35 -50 -61 -4 -5 -7 -9 -8 -10 -1 -1 -6 -8 -13 -16 -6 -8 -12 -16
-13 -17 0 -1 -4 -6 -7 -10 -3 -4 -8 -10 -11 -13 -2 -3 -4 -6 -4 -6 0 -1 -1 -3
-3 -4 -1 -2 -5 -7 -8 -11 -3 -4 -6 -8 -7 -9 -1 -1 -4 -5 -7 -9 -3 -4 -7 -8 -7
-9 -7 -6 -12 -18 -12 -27 0 -20 4 -24 36 -41 37 -18 72 -38 102 -56 26 -16 40
-25 41 -26 2 -3 25 -2 31 1 3 2 10 6 15 9 10 7 19 8 25 1 5 -5 5 -11 1 -23 -5
-15 -1 -38 8 -44 1 -1 4 -3 6 -5 2 -1 4 -3 5 -3 19 -5 30 -3 37 7 2 2 11 8 19
12 21 11 24 17 21 48 -1 14 -1 15 4 20 2 3 7 5 9 5 38 0 51 4 61 18 3 5 9 13
14 18 4 5 7 11 7 12 0 1 2 0 4 -2 6 -6 8 -15 8 -36 0 -11 1 -20 3 -25 4 -9 14
-21 18 -21 2 0 3 -1 3 -2 0 -3 12 -3 95 -3 l84 0 6 -6 c8 -9 9 -24 1 -31 -4
-2 -6 -6 -6 -8 0 -2 -1 -2 -2 -1 -2 3 -20 2 -22 -1 -1 -2 -2 -2 -2 -1 0 1 -2
-1 -5 -4 -6 -7 -12 -25 -11 -36 0 -12 -6 -19 -18 -19 -12 0 -18 7 -18 19 1 12
-5 29 -10 35 -9 10 -12 10 -101 10 -91 0 -96 -1 -108 -12 -12 -11 -13 -16 -13
-86 0 -75 1 -78 19 -97 6 -7 13 -16 15 -20 9 -16 15 -23 24 -28 l9 -6 104 -1
c100 0 119 1 119 6 0 1 1 2 3 2 1 0 2 4 1 15 0 14 0 15 4 15 3 0 1 1 -3 2 -10
1 -16 10 -16 25 0 19 9 28 28 28 19 0 28 -9 28 -28 0 -15 -6 -24 -16 -25 -4
-1 -6 -2 -3 -2 4 0 4 -1 4 -15 -1 -11 0 -15 2 -15 1 0 2 -1 2 -2 0 -6 21 -6
274 -6 l258 0 6 -6 c3 -3 5 -6 5 -7 -1 -1 -2 -2 -2 -4 0 -1 -2 -6 -4 -10 -4
-8 -4 -8 -7 -5 -1 2 -3 4 -5 4 -2 0 -3 1 -3 2 0 0 -2 2 -5 2 -4 1 -171 1 -372
1 -201 0 -368 0 -371 -1 -4 0 -6 -2 -6 -2 0 -1 -1 -2 -2 -2 -1 0 -9 -6 -17
-13 -12 -11 -14 -15 -15 -22 l-1 -8 -1 10 c0 10 -4 17 -16 26 -3 1 -9 6 -15
10 -10 8 -40 27 -45 30 -2 0 -6 3 -10 5 -26 17 -135 72 -156 80 -4 1 -11 4
-15 6 -32 14 -38 16 -47 16 -11 0 -21 -3 -28 -9 -4 -3 -39 -49 -50 -65 -2 -2
-23 -31 -48 -65 l-46 -60 0 -13 c1 -19 4 -23 34 -38 29 -14 57 -29 78 -41 8
-5 20 -11 27 -15 7 -4 18 -10 25 -15 7 -5 20 -13 29 -19 9 -5 17 -11 18 -12 1
-1 6 -4 11 -7 5 -3 18 -13 30 -22 21 -16 24 -19 32 -25 6 -5 25 -5 35 -1 4 2
10 7 13 12 7 10 19 26 29 40 4 6 12 16 16 22 4 6 12 17 17 24 5 6 13 17 17 23
5 6 12 16 16 21 4 6 15 21 25 35 10 14 19 26 21 28 2 2 3 7 3 11 1 7 1 7 1 2
1 -3 3 -9 6 -12 l4 -6 1 -200 c1 -159 2 -201 4 -206 3 -7 14 -19 17 -19 2 0 3
-1 3 -2 0 -2 10 -3 65 -3 l54 0 6 -6 c8 -8 8 -12 0 -20 l-6 -6 -51 0 c-53 0
-62 -1 -62 -4 0 -2 -33 0 -36 3 -2 2 -47 31 -94 59 -12 8 -26 16 -30 19 -75
47 -76 48 -92 44 -15 -4 -19 -10 -33 -55 -12 -36 -12 -35 -6 -57 9 -32 9 -35
-8 -44 -17 -8 -26 -21 -34 -44 -16 -46 -63 -175 -76 -209 -25 -64 -59 -148
-66 -164 -5 -11 -13 -29 -17 -40 -8 -19 -8 -20 -6 -31 3 -14 12 -23 35 -35 25
-13 41 -22 49 -26 4 -3 16 -9 27 -15 11 -6 22 -12 24 -13 8 -6 26 -4 42 4 23
10 28 8 30 -14 1 -14 7 -30 13 -35 2 -1 8 -4 13 -7 20 -10 39 -2 49 20 1 3 5
12 7 20 3 8 6 17 8 20 1 3 5 13 8 21 2 8 9 25 13 38 14 38 38 108 41 118 1 5
9 28 17 51 14 41 14 42 14 62 -1 30 -1 30 7 41 4 6 8 11 8 12 1 1 6 1 12 1 10
-1 12 -2 16 -6 16 -21 16 -40 -1 -60 -15 -17 -20 -45 -12 -60 2 -4 5 -9 7 -11
5 -4 24 -12 32 -13 3 -1 14 -4 24 -8 18 -7 19 -7 48 -7 32 0 38 1 58 10 18 8
23 9 30 9 16 -1 23 -7 27 -20 2 -10 0 -23 -6 -30 -8 -9 -25 -11 -38 -4 -28 15
-40 17 -57 7 -36 -21 -92 -48 -133 -65 -30 -12 -30 -12 -33 -20 -6 -15 -2 -31
9 -39 14 -8 67 -48 75 -55 2 -1 5 -4 8 -6 3 -2 7 -5 8 -6 3 -3 55 -45 60 -49
13 -10 30 -10 48 -1 30 16 103 61 119 73 4 4 9 9 10 13 3 9 2 27 -3 35 -2 4
-3 11 -3 15 0 13 6 19 19 19 10 0 15 -2 25 -11 10 -10 33 -11 42 -4 3 3 7 7
10 9 31 27 40 35 47 42 4 4 9 8 9 8 3 0 4 17 2 25 -1 5 -5 11 -8 14 -6 5 -43
19 -53 19 -5 1 -5 1 -1 1 2 1 4 2 3 3 0 1 0 2 1 4 2 3 15 3 86 4 88 0 97 0
104 -8 4 -3 4 -4 -1 -5 -2 0 -9 -4 -15 -8 -6 -4 -16 -10 -23 -14 -8 -5 -16
-10 -19 -11 -3 -2 -6 -5 -8 -5 -12 -6 -24 -16 -25 -20 -2 -7 -1 -25 1 -29 1
-2 9 -8 17 -13 7 -5 14 -10 15 -11 1 -1 6 -5 13 -9 7 -4 12 -8 13 -9 1 -1 10
-8 22 -16 12 -8 29 -21 38 -28 22 -17 21 -16 38 -30 6 -6 14 -11 17 -12 7 -3
28 -3 37 0 4 1 13 2 21 2 16 0 28 4 31 10 4 8 6 22 3 32 -5 21 3 35 21 35 9 0
11 -1 20 -9 12 -10 14 -11 37 -16 10 -2 19 -5 21 -6 4 -2 24 -26 39 -47 16
-21 19 -24 31 -24 17 -1 21 2 29 18 9 18 14 23 32 32 8 4 18 11 23 16 4 4 12
12 17 17 7 9 9 10 15 9 7 -1 14 -7 21 -19 3 -4 6 -9 8 -11 2 -2 6 -7 9 -11 18
-24 54 -52 83 -66 26 -12 41 -15 77 -15 59 1 104 15 138 44 9 7 28 27 32 32
21 28 25 37 28 66 2 19 5 26 16 39 4 5 9 13 12 17 4 8 12 37 16 57 8 41 10 52
15 88 5 36 5 38 2 48 -5 19 -12 25 -47 46 -9 5 -57 39 -61 43 -1 1 -6 5 -10 8
-10 7 -24 20 -41 37 l-13 12 -13 0 c-13 0 -14 0 -15 6 -3 8 -2 16 12 51 13 33
20 51 20 53 0 1 1 2 2 4 12 29 62 191 68 218 0 3 2 10 4 16 1 6 4 17 6 25 2 8
4 16 5 19 1 3 3 12 5 20 2 8 5 22 7 31 13 53 20 92 18 101 -4 15 -12 26 -25
31 -2 1 -44 11 -92 22 -71 16 -89 20 -95 19 -4 -1 -9 -2 -11 -3 -6 -2 -15 -9
-19 -18 -3 -7 -11 -39 -27 -119 -2 -7 -3 -19 -3 -27 0 -7 -1 -13 -2 -12 -2 2
-9 -15 -13 -31 -3 -12 -5 -16 -7 -15 -1 1 -3 1 -4 1 -3 0 -6 16 -7 38 -1 12
-2 25 -2 30 -1 9 -2 30 -4 65 -1 10 -2 24 -2 32 -1 8 -1 24 -2 36 -1 12 -2 27
-2 33 0 6 -1 26 -2 45 -1 19 -2 36 -2 39 0 3 2 7 5 11 l5 5 73 0 c63 0 73 0
80 3 8 4 21 17 23 23 1 2 4 5 7 7 5 3 7 3 12 0 3 -2 6 -5 7 -7 2 -6 16 -19 24
-23 6 -3 11 -3 32 -2 28 1 29 1 29 3 0 1 1 2 3 2 4 0 14 12 18 21 5 11 5 185
0 196 -4 9 -14 21 -18 21 -2 0 -3 1 -3 2 0 2 -1 2 -1 2 -1 -1 -4 -1 -7 0 -4 1
-23 2 -43 2 -35 0 -37 1 -43 5 -3 2 -6 5 -8 6 -2 0 -2 1 1 1 3 0 10 3 15 7 6
3 15 9 20 11 5 3 12 7 16 10 4 2 8 5 10 5 6 3 45 26 50 30 9 6 14 17 14 30 0
10 -1 14 -8 27 -5 8 -10 17 -12 20 -2 3 -4 6 -4 7 0 1 -2 4 -4 7 -2 3 -12 18
-23 34 -10 16 -21 32 -24 35 -17 24 -22 30 -23 31 -1 1 -7 9 -14 18 -8 9 -15
19 -18 22 -2 2 -7 8 -10 13 -4 4 -9 10 -12 13 -3 3 -10 12 -16 19 -13 15 -22
20 -37 21 -14 0 -33 -9 -49 -24 -9 -9 -36 -24 -42 -24 -1 0 -6 -2 -12 -5 l-9
-4 -5 4 c-4 5 -4 7 -5 34 0 30 -2 38 -13 48 -11 11 -15 11 -126 11 -117 0
-117 0 -129 -14 -3 -5 -8 -12 -9 -17 -2 -8 -2 -112 1 -165 0 -14 1 -66 1 -115
l1 -90 -5 -6 -5 -6 -114 0 -114 0 -6 6 c-9 9 -9 23 0 32 l6 6 95 0 c94 0 106
0 106 3 0 1 1 2 3 2 4 0 14 12 18 21 2 6 3 16 3 56 0 26 -1 51 -2 55 -2 8 -11
18 -16 20 -15 4 -19 5 -20 7 -1 1 -2 1 -2 0 0 -4 -16 0 -20 5 -6 7 -5 23 1 29
3 3 6 5 8 5 2 0 5 1 7 1 2 0 4 -1 4 -2 1 -1 2 -1 2 1 0 1 3 2 9 2 5 0 7 1 4 2
-4 1 -4 3 -4 16 0 25 8 23 -102 22 l-94 -1 -6 6 -6 6 1 41 c0 34 0 42 -3 49
-4 9 -14 21 -18 21 -2 0 -3 1 -3 2 0 1 -1 2 -2 2 -7 1 -204 2 -208 0z m565
-65 c3 -5 3 -5 0 -10 -2 -3 -5 -5 -7 -5 -2 0 -5 2 -7 5 -3 5 -3 5 0 10 2 3 5
5 7 5 2 0 5 -2 7 -5z m-358 -225 c11 -10 3 -28 -11 -28 -9 0 -16 6 -16 16 0
14 17 22 27 12z m565 -8 c2 -3 6 -10 10 -16 4 -6 13 -21 20 -33 7 -12 17 -29
21 -38 4 -9 8 -16 9 -17 1 0 -1 -3 -4 -6 -6 -6 -7 -6 -34 -6 l-27 -1 -6 6 c-5
5 -6 8 -6 15 1 5 1 29 1 52 1 42 1 44 6 48 2 2 4 5 4 7 0 1 1 0 2 -2 0 -2 2
-6 4 -9z m-814 -160 c5 -5 5 -11 0 -16 -10 -10 -27 5 -16 16 4 4 12 4 16 0z
m627 -34 c11 -10 3 -28 -11 -28 -9 0 -16 6 -16 16 0 14 17 22 27 12z m-533
-66 c5 -5 6 -7 6 -17 0 -10 -1 -12 -6 -17 -5 -5 -7 -6 -17 -6 -10 0 -12 1 -17
6 -5 5 -6 7 -6 17 0 10 1 12 6 17 5 5 7 6 17 6 10 0 12 -1 17 -6z m-603 -132
c11 -10 3 -28 -11 -28 -9 0 -16 6 -16 16 0 14 17 22 27 12z m864 -56 c10 -9 3
-26 -10 -26 -8 0 -15 7 -15 15 0 13 16 20 25 11z m-842 -76 c5 -5 6 -7 6 -16
0 -9 -1 -11 -7 -16 -5 -6 -7 -7 -16 -7 -9 0 -11 1 -16 7 -9 8 -9 23 -1 32 9 9
24 9 34 0z m510 -23 l7 -7 -7 -6 -6 -7 -23 0 -23 0 -6 7 -7 6 7 7 6 6 23 0 23
0 6 -6z m274 0 l7 -7 -7 -6 c-6 -7 -7 -7 -21 -7 -14 0 -15 0 -21 7 l-7 6 7 7
c6 6 7 6 21 6 14 0 15 0 21 -6z m255 -156 c2 -26 4 -52 5 -57 0 -5 1 -15 2
-22 5 -61 22 -200 28 -232 0 -3 2 -15 4 -28 4 -27 10 -64 14 -80 2 -9 2 -13 0
-20 -1 -4 -2 -8 -1 -8 0 0 0 -1 -1 -2 -3 -2 -15 1 -15 4 0 2 -15 3 -90 3 l-79
0 -6 6 c-8 8 -8 14 0 22 6 6 6 6 28 6 21 0 23 0 32 6 8 5 11 9 18 22 11 20 12
21 27 23 19 3 34 11 40 22 4 8 4 11 4 45 0 29 -1 38 -3 44 -4 9 -14 21 -18 21
-2 0 -3 1 -3 2 0 1 -1 2 -2 2 -4 0 -56 2 -96 3 -38 0 -44 2 -50 11 -3 6 -3 6
3 11 l5 6 55 1 c58 2 59 2 59 4 0 1 1 2 3 2 4 0 14 12 18 21 3 6 3 22 3 121 0
69 1 114 2 113 1 -1 1 -2 1 -4 -1 -1 1 -3 3 -4 4 -1 4 0 4 12 1 7 1 4 1 -8 1
-11 3 -42 5 -68z m-234 57 c5 -6 5 -12 0 -18 -7 -8 -22 -2 -22 9 0 11 15 17
22 9z m588 -10 c5 -5 5 -11 0 -16 -4 -4 -12 -4 -16 1 -5 7 -5 12 2 15 6 4 10
4 14 0z m-883 -63 l7 -7 -7 -6 -6 -7 -23 0 -23 0 -6 7 -7 6 7 7 6 6 23 0 23 0
6 -6z m274 -1 c7 -6 7 -7 3 -9 -2 -2 -4 -8 -6 -14 -1 -7 -3 -14 -3 -16 -1 -2
-2 -7 -2 -10 -1 -3 -2 -6 -3 -7 -1 0 -1 -2 1 -3 3 -2 3 -4 0 -20 -2 -10 -3
-24 -3 -32 0 -17 -4 -23 -13 -23 -5 0 -13 6 -13 11 0 1 1 9 3 18 2 8 3 22 3
30 0 12 1 15 3 16 2 1 2 2 1 3 -1 0 -2 5 -3 10 -1 5 -2 9 -3 10 -1 0 -2 2 -2
5 0 7 -4 18 -8 21 -4 4 -4 4 2 10 7 7 8 7 22 7 14 0 15 0 21 -7z m668 -42 c7
-3 12 -13 12 -25 0 -19 -9 -28 -28 -28 -19 0 -28 9 -28 28 0 17 6 24 22 28 5
1 14 -1 22 -3z m-800 -135 c8 -8 8 -12 0 -20 -5 -5 -7 -6 -17 -6 -10 0 -12 1
-17 6 -8 8 -8 12 0 20 5 5 7 6 17 6 10 0 12 -1 17 -6z m-432 -127 c5 1 7 -10
7 -31 0 -16 1 -25 3 -30 4 -9 14 -21 18 -21 2 0 3 -1 3 -2 0 -2 10 -3 62 -3
l51 0 6 -6 c8 -8 8 -14 0 -22 l-6 -6 -76 1 c-52 0 -79 0 -87 -2 -9 -2 -11 -2
-14 1 -5 6 -5 10 1 29 14 42 26 84 27 92 0 7 1 8 2 4 0 -2 2 -4 3 -4z m1230
-91 c4 -3 7 -18 6 -28 -1 -9 3 -31 5 -31 1 0 2 -1 2 -3 0 -2 6 -9 13 -16 15
-16 19 -25 15 -40 -2 -7 -5 -11 -11 -16 -13 -10 -26 -24 -30 -30 -8 -16 -1
-37 17 -54 9 -8 11 -16 9 -31 -1 -13 -7 -18 -24 -18 -15 0 -19 3 -26 16 -9 18
-27 65 -33 88 -10 34 -9 38 18 93 28 57 34 70 34 75 0 2 1 2 1 0 1 -2 3 -4 4
-5z m-798 -2 c8 -8 8 -14 0 -22 -5 -5 -7 -6 -17 -6 -10 0 -12 1 -17 6 -8 8 -8
14 0 22 5 5 7 6 17 6 10 0 12 -1 17 -6z m102 2 c6 -4 6 -6 6 -20 0 -14 0 -16
-6 -20 -4 -4 -7 -5 -18 -5 -11 0 -14 1 -18 5 -6 4 -6 6 -6 20 0 14 0 16 6 20
4 4 7 5 18 5 11 0 14 -1 18 -5z m-762 -126 c3 -5 3 -5 0 -10 -2 -3 -5 -5 -7
-5 -2 0 -5 2 -7 5 -3 5 -3 5 0 10 2 3 5 5 7 5 2 0 5 -2 7 -5z m1272 -43 c10
-9 3 -26 -10 -26 -8 0 -15 7 -15 15 0 13 16 20 25 11z m-375 -52 l21 -11 25
-1 c24 -1 34 -3 34 -8 0 -1 2 -2 4 -2 2 0 2 -1 0 -1 -2 -1 -15 -11 -43 -34 -9
-7 -22 -13 -29 -13 -8 -1 -21 7 -35 20 -4 5 -9 8 -10 8 -3 0 -19 19 -19 24 -1
11 1 17 5 22 10 10 19 9 47 -4z m-3 -111 c6 -7 6 -13 1 -19 -7 -8 -22 -2 -22
9 0 6 2 8 9 12 8 4 7 4 12 -2z"/>
<path d="M1322 3586 c0 -2 -1 -4 -1 -5 0 -1 -1 -3 -1 -5 0 -3 0 -3 -2 0 -1 2
-2 -1 -2 -9 1 -8 1 -10 1 -4 1 4 2 7 3 7 1 0 2 -3 3 -7 0 -5 0 -1 1 9 0 9 0
16 -1 16 -1 0 -1 -1 -1 -2z"/>
</g>
</svg>
