<?xml version="1.0" standalone="no"?>
<!DOCTYPE svg PUBLIC "-//W3C//DTD SVG 20010904//EN"
 "http://www.w3.org/TR/2001/REC-SVG-20010904/DTD/svg10.dtd">
<svg version="1.0" xmlns="http://www.w3.org/2000/svg"
 width="1000.000000pt" height="2850.000000pt" viewBox="0 0 1000.000000 2850.000000"
 preserveAspectRatio="xMidYMid meet">
<metadata>
Created by potrace 1.15, written by Peter Selinger 2001-2017
</metadata>
<g transform="translate(0.000000,2850.000000) scale(0.500000,-0.500000)"
fill="#000000" stroke="none">
<path d="M158 3746 c-3 -1 -6 -1 -7 0 0 0 -1 0 -1 -2 0 -1 -1 -2 -3 -2 -4 0
-14 -12 -18 -21 -5 -11 -5 -221 0 -232 4 -9 14 -21 18 -21 2 0 3 -1 3 -2 0 -1
6 -2 14 -3 2 0 13 3 26 7 l22 6 25 -7 25 -7 233 0 c243 0 239 0 248 -8 3 -4 3
-4 -1 -4 -2 0 -4 -1 -4 -1 -1 -2 -33 -24 -54 -36 -7 -4 -15 -10 -18 -11 -3 -2
-6 -5 -8 -5 -2 -1 -6 -4 -10 -6 -31 -19 -140 -75 -183 -93 -46 -20 -106 -44
-138 -55 -17 -6 -27 -14 -33 -25 -2 -5 -4 -8 -3 -8 2 0 -5 -12 -9 -16 -3 -4
-10 -5 -10 -2 0 1 -2 2 -4 2 -2 0 -5 1 -6 3 -3 4 -16 10 -25 12 -5 1 -18 -2
-50 -12 -24 -7 -53 -15 -65 -18 -38 -10 -42 -13 -42 -35 l0 -13 26 -26 c26
-28 41 -44 61 -66 7 -8 13 -15 14 -16 1 -1 7 -8 13 -15 6 -7 11 -13 12 -14 1
-1 5 -5 9 -11 4 -5 9 -12 11 -14 3 -2 11 -13 19 -23 34 -44 55 -42 190 12 73
29 112 46 198 89 61 30 75 38 105 55 8 4 15 8 15 8 1 0 4 2 9 5 4 2 12 7 17
10 18 10 44 26 45 28 1 2 8 -7 10 -13 1 -2 2 -13 2 -24 0 -18 1 -22 5 -31 3
-5 7 -11 10 -13 2 -2 5 -5 6 -6 1 -1 6 -4 10 -7 12 -7 15 -12 15 -24 0 -11 -2
-15 -13 -27 -8 -10 -23 -38 -23 -44 0 -3 -1 -7 -3 -10 -6 -10 -4 -22 7 -38 5
-8 13 -18 16 -21 3 -3 6 -6 6 -7 0 -1 2 -2 6 -2 l5 0 -5 -2 c-3 0 -8 -3 -11
-5 -6 -4 -10 -4 -259 -5 l-253 -1 -23 -7 -22 -6 -26 7 -25 7 -36 -1 c-40 -1
-41 -1 -41 -3 0 -1 -1 -2 -3 -2 -4 0 -14 -12 -18 -21 -2 -6 -3 -16 -3 -58 0
-54 1 -57 10 -66 5 -4 28 -9 32 -6 3 2 20 2 26 -1 15 -8 14 -42 -2 -55 -4 -2
-10 -3 -21 -4 -22 -1 -40 -9 -41 -17 -2 -12 0 -20 7 -28 4 -4 9 -8 10 -8 2 0
3 -1 3 -2 0 -2 2 -2 71 -3 87 -1 87 -1 87 25 0 9 1 12 4 13 1 0 0 1 -3 1 -7 0
-8 2 -20 24 -20 39 -20 38 -19 51 1 10 2 12 7 16 11 10 41 5 41 -6 0 -2 1 -5
2 -7 9 -16 22 -49 22 -57 0 -13 -5 -21 -13 -21 -3 0 -4 -1 -2 -1 2 -1 3 -4 3
-13 0 -17 1 -19 12 -23 8 -3 30 -3 182 -3 l174 1 7 6 c8 7 21 29 21 37 0 12
11 21 27 21 16 0 27 -9 27 -21 0 -6 12 -32 14 -31 1 1 2 0 2 -2 0 -3 1 -6 7
-16 2 -4 5 -79 5 -125 0 -14 0 -78 -1 -143 l0 -118 -6 -6 -6 -6 -90 0 -90 0
-6 6 -6 6 1 104 c0 68 -1 106 -2 111 -3 11 -9 18 -23 24 -19 9 -21 12 -21 32
-1 23 -4 29 -17 37 -11 7 -14 8 -34 11 -12 1 -14 3 -25 15 -5 5 -13 11 -20 14
l-12 5 -63 -1 c-67 -1 -69 -1 -69 -3 0 -1 -1 -2 -3 -2 -4 0 -14 -12 -18 -21
-3 -7 -3 -26 -3 -167 l1 -159 -6 -6 -6 -6 -105 0 c-104 0 -116 0 -116 -3 0 -1
-1 -2 -3 -2 -4 0 -14 -12 -18 -21 -5 -11 -5 -215 0 -226 4 -9 14 -21 18 -21 2
0 3 -1 3 -2 0 0 2 -2 6 -2 7 -1 718 -1 724 0 3 1 5 1 6 2 1 1 4 2 7 4 3 2 9 8
14 15 10 16 15 19 26 19 11 0 16 -3 26 -19 5 -7 11 -13 14 -15 3 -2 6 -3 7 -4
1 -1 2 -1 4 -2 4 -1 508 -2 515 -1 11 2 18 10 20 20 2 13 3 15 4 17 0 0 0 2
-2 3 -2 2 -3 7 -3 14 0 10 1 12 6 17 5 5 7 6 17 6 10 0 12 -1 17 -6 5 -5 6 -7
6 -17 0 -7 -1 -12 -3 -14 -2 -1 -2 -3 -2 -3 1 -2 2 -4 4 -17 2 -15 13 -21 36
-21 18 0 34 7 46 20 11 13 17 16 28 16 11 0 16 -3 29 -16 5 -6 13 -12 20 -15
l12 -5 114 1 c63 0 116 1 118 1 1 0 2 1 2 2 0 1 1 2 3 2 4 0 14 12 18 21 5 11
5 215 0 226 -4 9 -14 21 -18 21 -2 0 -3 1 -3 2 0 1 -1 2 -2 2 -2 0 -169 1
-372 2 l-369 1 -10 6 c-5 3 -9 5 -8 5 2 0 -6 12 -9 13 -2 1 -7 5 -11 9 -9 9
-13 19 -13 34 0 5 -2 17 -4 27 -6 25 -6 32 2 40 5 5 7 6 16 6 14 0 19 -6 26
-28 8 -24 12 -30 25 -36 19 -9 27 -10 45 -6 21 4 40 4 58 0 11 -3 40 -3 219
-2 113 0 207 1 209 1 1 0 2 1 2 2 0 1 1 2 3 2 1 0 5 3 9 7 11 12 8 30 -9 47
-10 9 -12 14 -12 26 0 12 2 17 12 26 8 8 14 19 18 29 4 13 4 91 0 102 -4 9
-14 21 -18 21 -2 0 -3 1 -3 2 0 1 -1 2 -2 2 -2 0 -101 1 -220 1 -240 1 -225 2
-240 -12 -4 -3 -9 -9 -11 -12 -1 -3 -6 -8 -10 -10 -6 -4 -7 -4 -14 1 -4 2 -7
6 -8 8 -3 10 -28 27 -37 26 -2 -1 -6 2 -9 5 -6 6 -6 7 -6 27 0 20 0 21 6 27
l6 6 264 0 c258 0 264 0 272 4 4 2 9 5 10 5 1 1 6 5 11 9 12 10 16 12 26 12
10 0 14 -2 26 -12 5 -4 10 -8 11 -9 5 -4 19 -9 24 -8 10 0 13 1 13 2 0 1 1 2
3 2 4 0 14 12 18 21 4 9 3 32 0 45 -2 4 -4 13 -7 21 l-4 14 5 17 c3 9 6 20 7
23 1 4 2 26 2 50 0 36 -1 46 -3 52 -4 9 -14 21 -18 21 -2 0 -3 1 -3 2 0 2 -11
3 -67 3 -64 0 -65 0 -80 -18 -18 -20 -30 -20 -48 0 -4 5 -11 11 -16 13 l-8 5
-142 0 -142 0 -9 -5 c-5 -2 -12 -6 -14 -9 -3 -3 -9 -6 -14 -8 -7 -3 -9 -3 -16
0 -5 2 -11 5 -14 8 -11 11 -20 14 -57 15 -28 1 -35 2 -42 5 -4 2 -10 4 -12 5
-4 2 -4 2 0 2 4 0 6 3 10 11 l5 11 0 122 c0 129 0 130 -9 140 -6 5 -29 12 -35
10 -9 -4 -25 2 -29 11 -4 7 -5 22 -1 31 7 18 39 16 61 -3 3 -3 18 -11 32 -18
36 -17 160 -79 184 -92 11 -6 35 -19 53 -29 18 -10 33 -18 34 -18 1 0 4 -2 6
-4 3 -2 10 -6 17 -10 6 -3 14 -8 17 -10 3 -2 8 -5 10 -6 3 -1 7 -3 9 -5 2 -1
11 -6 19 -11 8 -5 16 -10 18 -11 2 -1 8 -5 13 -8 14 -8 100 -64 103 -67 1 -1
6 -4 12 -8 6 -4 12 -8 13 -9 6 -6 17 -9 28 -8 12 1 17 4 29 17 31 34 48 52 55
59 13 12 23 26 31 43 10 20 12 22 33 34 17 10 34 24 39 33 3 6 3 22 -1 30 -3
7 -14 15 -42 32 -4 2 -13 8 -20 12 -8 5 -17 10 -21 13 -4 2 -20 11 -35 20 -15
9 -34 20 -42 24 -17 9 -24 13 -48 26 -48 27 -160 84 -210 108 -10 5 -23 11
-30 14 -43 20 -64 30 -100 45 -34 15 -48 12 -72 -10 -7 -7 -27 -25 -43 -41
-17 -16 -39 -37 -49 -47 -16 -16 -19 -18 -21 -15 -8 8 -8 12 -8 57 1 42 1 45
6 54 4 9 60 68 72 75 6 5 18 5 23 1 2 -1 11 -3 18 -4 15 0 15 0 21 7 5 5 7 9
7 16 2 16 9 23 27 23 18 0 25 -6 27 -25 0 -6 2 -12 3 -14 1 -2 3 -6 3 -8 1 -7
11 -16 20 -19 7 -3 34 -3 232 -2 123 0 225 1 227 1 1 0 2 1 2 2 0 1 1 2 3 2 4
0 14 12 18 21 5 11 5 221 0 232 -4 9 -14 21 -18 21 -2 0 -3 1 -3 2 0 1 -1 2
-2 2 -2 0 -66 1 -142 1 l-140 1 -18 -7 c-25 -10 -33 -10 -57 0 l-19 7 -322 0
c-318 0 -323 0 -332 -4 -8 -4 -24 -19 -24 -22 0 -1 -3 -3 -6 -5 -5 -3 -7 -3
-12 0 -3 2 -6 4 -6 5 0 3 -16 18 -24 22 -9 4 -14 4 -296 4 -158 0 -289 -1
-292 -2z m834 -90 c4 -1 16 -3 28 -3 24 -2 30 -5 30 -16 0 -6 -7 -15 -11 -15
-4 0 -35 -11 -47 -16 -16 -8 -32 -6 -40 3 -9 10 -9 32 0 42 7 8 24 10 40 5z
m553 -19 c4 -4 5 -7 5 -15 0 -14 -6 -20 -20 -20 -14 0 -20 6 -20 20 0 14 6 20
20 20 8 0 11 -1 15 -5z m-926 -4 c3 -5 3 -5 0 -10 -2 -3 -5 -5 -7 -5 -2 0 -5
2 -7 5 -3 5 -3 5 0 10 2 3 5 5 7 5 2 0 5 -2 7 -5z m1207 -15 c5 -6 5 -12 0
-18 -7 -8 -22 -2 -22 9 0 11 15 17 22 9z m-733 -116 c4 -6 4 -24 -1 -30 -7 -9
-27 -9 -34 0 -5 6 -5 24 0 30 7 9 27 9 35 0z m-123 -28 c1 0 5 -3 8 -6 5 -5 6
-7 6 -18 0 -11 -1 -13 -6 -18 -6 -6 -7 -6 -18 -6 -11 0 -12 0 -18 6 -5 5 -6 7
-6 17 0 14 3 20 12 24 5 2 8 2 22 1z m-111 -21 c4 -4 5 -7 5 -15 0 -14 -6 -20
-20 -20 -14 0 -20 6 -20 20 0 14 6 20 20 20 8 0 11 -1 15 -5z m218 -87 c7 -3
12 -13 12 -25 0 -19 -9 -28 -28 -28 -19 0 -28 9 -28 28 0 17 6 24 22 28 5 1
14 -1 22 -3z m334 -73 c4 -4 5 -7 5 -15 0 -10 -1 -11 -11 -23 -7 -6 -13 -12
-13 -13 -2 -1 -14 -27 -14 -30 0 -11 -12 -19 -28 -19 -18 1 -27 10 -27 28 0
14 4 20 17 27 16 10 23 17 32 32 9 16 12 18 25 18 7 0 10 -1 14 -5z m-154 -18
c4 -4 5 -7 5 -15 0 -14 -6 -20 -20 -20 -14 0 -20 6 -20 20 0 14 6 20 20 20 8
0 11 -1 15 -5z m-302 -53 c7 -6 7 -19 1 -25 -6 -7 -19 -7 -25 -1 -7 6 -7 19
-1 25 6 7 19 7 25 1z m-332 -46 c11 -10 3 -28 -11 -28 -9 0 -16 6 -16 16 0 14
17 22 27 12z m834 -347 c2 -1 4 -3 5 -3 3 -1 1 -11 -3 -15 -2 -1 -3 -4 -3 -5
0 -2 -1 -5 -3 -7 -3 -4 -6 -15 -11 -35 -2 -7 -10 -16 -15 -16 -2 0 -6 0 -9 0
-11 0 -12 0 -18 6 -5 5 -6 7 -6 17 0 14 2 18 16 27 5 4 10 8 10 9 1 1 2 1 2 0
0 0 3 2 7 6 8 10 9 11 15 15 6 5 9 5 13 1z m63 -19 c12 -12 -6 -26 -17 -15 -6
5 -6 12 -1 14 2 1 4 2 4 3 0 3 11 1 14 -2z m-386 -26 c5 -5 5 -11 0 -16 -10
-10 -27 5 -16 16 4 4 12 4 16 0z m-425 -37 c11 -7 13 -24 6 -43 -4 -9 -11 -42
-9 -43 1 -2 -8 -8 -12 -8 -5 0 -12 5 -12 10 0 4 -12 44 -14 46 -5 7 -3 29 4
36 7 7 27 8 37 2z m331 -23 c5 -5 5 -11 0 -16 -10 -10 -27 5 -16 16 4 4 12 4
16 0z m45 -75 c12 -7 14 -33 3 -43 -8 -9 -32 -9 -40 0 -9 8 -9 32 0 41 7 7 27
8 37 2z m-126 -48 c6 -4 6 -6 6 -20 0 -14 0 -16 -6 -20 -4 -4 -7 -5 -18 -5
-11 0 -14 1 -18 5 -6 4 -6 6 -6 20 0 14 0 16 6 20 4 4 7 5 18 5 11 0 14 -1 18
-5z m145 -118 c3 -3 4 -7 4 -14 0 -13 -6 -19 -19 -19 -13 0 -19 6 -19 19 0 7
1 11 4 14 7 8 23 8 30 0z m396 4 c6 -5 25 -25 30 -33 8 -13 2 -26 -10 -26 -8
0 -13 4 -19 13 -2 3 -6 9 -9 13 -3 4 -7 11 -9 16 -3 9 -3 10 0 15 4 6 9 6 17
2z m-32 -101 c5 -5 5 -15 0 -20 -9 -9 -24 -2 -24 10 0 8 6 14 14 14 3 0 8 -2
10 -4z m-913 -125 c12 -7 14 -33 3 -43 -8 -9 -32 -9 -40 0 -9 8 -9 32 0 41 7
7 27 8 37 2z m415 -14 c3 -3 4 -7 4 -14 0 -13 -6 -19 -19 -19 -13 0 -19 6 -19
19 0 7 1 11 4 14 7 8 23 8 30 0z m-549 -105 c10 -9 3 -26 -10 -26 -8 0 -15 7
-15 15 0 13 16 20 25 11z m465 -15 c16 -7 20 -37 7 -48 -12 -11 -34 -11 -43 0
-9 10 -9 32 0 42 7 8 24 11 36 6z m-426 -60 c8 -4 11 -13 13 -42 2 -21 -1 -39
-7 -44 -4 -3 -9 -4 -28 -5 -16 -1 -26 -3 -35 -6 -29 -11 -43 -6 -43 14 0 12 6
20 15 20 6 0 21 8 28 14 4 3 9 13 7 13 -1 0 0 2 1 3 2 2 3 7 4 12 3 16 7 21
22 25 6 1 17 -1 23 -4z m645 -36 c3 -3 3 -3 0 -6 -3 -3 -3 -3 -6 0 -3 2 -3 3
-1 6 4 4 4 4 7 0z m-377 -30 c3 -3 4 -7 4 -14 0 -13 -6 -19 -19 -19 -13 0 -19
6 -19 19 0 7 1 11 4 14 7 8 23 8 30 0z m657 -4 c5 -8 1 -16 -8 -16 -9 0 -13 8
-8 16 2 3 5 5 8 5 3 0 6 -2 8 -5z"/>
</g>
</svg>
