<?xml version="1.0" standalone="no"?>
<!DOCTYPE svg PUBLIC "-//W3C//DTD SVG 20010904//EN"
 "http://www.w3.org/TR/2001/REC-SVG-20010904/DTD/svg10.dtd">
<svg version="1.0" xmlns="http://www.w3.org/2000/svg"
 width="1000.000000pt" height="2850.000000pt" viewBox="0 0 1000.000000 2850.000000"
 preserveAspectRatio="xMidYMid meet">
<metadata>
Created by potrace 1.15, written by Peter Selinger 2001-2017
</metadata>
<g transform="translate(0.000000,2850.000000) scale(0.500000,-0.500000)"
fill="#000000" stroke="none">
<path d="M1064 3781 c-69 -24 -168 -50 -265 -69 -41 -8 -42 -9 -58 -25 -18
-18 -21 -20 -29 -16 -4 2 -9 3 -17 2 -15 -2 -18 -3 -21 -11 -3 -7 0 -17 11
-47 3 -8 6 -17 7 -20 2 -7 6 -20 13 -37 4 -13 18 -27 34 -36 9 -6 12 -9 18
-20 10 -18 16 -23 29 -28 11 -4 22 -4 39 0 16 4 25 19 27 44 1 21 6 26 26 24
13 -1 17 -7 16 -29 0 -9 -1 -31 -1 -50 l0 -34 -6 -6 -6 -6 -27 0 c-25 0 -28 0
-34 -5 -8 -4 -18 -21 -18 -28 0 -2 -1 -4 -2 -4 -1 0 -1 -2 -1 -4 2 -7 -6 -14
-15 -14 -9 0 -17 7 -15 14 0 2 0 4 -1 4 -1 0 -2 2 -2 4 0 7 -10 24 -18 28 -6
4 -10 5 -25 5 -20 0 -29 -1 -29 -3 0 -1 -1 -2 -3 -2 -4 0 -14 -12 -18 -21 -5
-11 -5 -199 0 -210 4 -9 14 -21 18 -21 2 0 3 -1 3 -2 0 -2 1 -2 51 -4 45 -1
46 -1 53 -6 3 -3 5 -5 4 -6 -3 -2 -14 -30 -15 -38 -2 -12 4 -24 17 -37 7 -6
12 -13 12 -16 1 -13 0 -18 -6 -23 -6 -7 -14 -8 -30 -4 -9 2 -13 2 -22 0 -16
-3 -17 -4 -27 -21 -18 -26 -35 -52 -44 -64 -7 -11 -8 -12 -8 -25 0 -10 1 -15
5 -22 11 -19 12 -38 1 -47 -11 -10 -24 -12 -38 -4 -13 6 -16 32 -5 51 2 3 6
12 8 18 4 13 4 17 4 394 0 339 0 382 -3 390 -3 9 -14 22 -18 22 -2 0 -3 1 -3
2 0 0 -2 2 -5 2 -4 1 -112 1 -242 1 -130 0 -238 0 -241 -1 -4 0 -6 -2 -6 -2 0
-1 -1 -2 -3 -2 -4 0 -14 -12 -18 -21 -3 -7 -3 -65 -3 -631 l0 -623 4 -17 c6
-22 6 -33 0 -56 -4 -18 -4 -23 -4 -72 1 -52 1 -53 6 -65 7 -15 10 -18 31 -32
19 -13 24 -19 24 -34 0 -13 -5 -22 -13 -25 -25 -9 -30 -12 -36 -18 -7 -7 -12
-19 -12 -27 0 -11 15 -33 21 -33 2 0 3 -1 3 -2 0 -3 12 -3 101 -3 89 0 101 0
101 3 0 1 1 2 3 2 4 0 14 12 18 21 3 7 3 17 3 65 l-1 57 6 6 6 6 110 -1 110
-1 6 -5 c2 -3 4 -6 3 -6 -1 -1 -12 -20 -24 -43 -4 -7 -1 -24 5 -33 3 -5 11
-11 21 -17 8 -5 21 -13 29 -18 8 -5 18 -11 22 -13 4 -3 10 -6 13 -8 6 -5 23
-5 32 0 3 2 9 8 13 13 11 18 13 19 28 19 l13 0 17 -17 c16 -16 17 -17 26 -17
8 -1 12 0 20 5 11 6 18 20 34 64 5 14 10 28 11 30 4 9 30 90 30 93 0 2 1 4 2
4 1 0 2 5 3 11 3 24 9 45 16 51 3 3 7 6 9 7 4 1 28 -9 32 -14 6 -7 8 -20 6
-29 -3 -12 -6 -15 -23 -23 -22 -10 -26 -16 -27 -33 -1 -9 6 -16 19 -17 6 -1
10 -1 11 -1 0 1 1 0 2 -2 1 -2 2 -2 2 0 0 1 3 2 9 2 11 0 17 -6 17 -17 0 -12
-6 -17 -18 -17 -11 1 -26 -2 -27 -4 -1 -1 -2 -2 -3 -1 -4 2 -12 -11 -14 -21
-1 -6 -1 -12 -1 -12 1 -1 2 -6 2 -11 7 -61 27 -112 58 -144 26 -26 62 -46 103
-56 48 -11 59 -12 184 -12 105 0 114 0 122 4 5 2 10 4 12 6 2 1 7 4 13 6 10 4
10 4 36 -8 19 -9 25 -10 63 -4 88 13 147 66 179 161 9 28 14 34 21 21 7 -15
16 -27 22 -30 10 -5 26 -5 36 1 5 3 19 11 32 18 48 26 50 29 51 63 1 14 2 23
4 27 6 12 28 14 43 5 5 -3 11 -6 13 -8 2 -1 4 -2 5 -3 2 -2 7 -3 17 -4 9 0 11
0 18 6 15 14 18 31 8 51 -11 23 -26 54 -37 74 -25 49 -34 65 -60 111 -56 100
-52 94 -74 96 -9 0 -16 -1 -20 -2 -8 -3 -22 -3 -30 0 -4 2 -8 6 -11 13 -3 5
-6 10 -7 11 -1 1 -2 3 -4 5 -3 6 -14 11 -25 11 -6 0 -13 -2 -25 -9 -9 -5 -37
-19 -61 -31 -50 -25 -55 -29 -59 -47 -2 -7 -3 -13 -3 -14 0 -2 -9 -3 -9 -1 0
1 -1 2 -2 1 -1 -1 -2 0 -2 0 0 1 -2 4 -4 7 -3 3 -9 10 -13 16 -5 6 -10 13 -12
15 -2 3 -6 7 -8 10 -2 3 -5 7 -7 9 -2 2 -5 6 -8 10 -3 4 -6 8 -7 9 -1 1 -10
11 -19 23 -9 12 -17 21 -18 22 -1 1 -7 8 -14 17 -7 9 -14 17 -15 18 -4 4 -7
13 -6 19 1 7 7 14 22 28 17 15 46 46 62 67 18 22 47 65 48 70 0 1 1 3 2 5 0 2
3 10 5 19 4 16 7 20 19 26 3 2 5 4 5 6 0 1 2 7 5 12 5 10 25 58 25 62 0 2 7 8
10 8 3 0 8 -10 20 -38 11 -27 38 -81 54 -106 9 -14 23 -36 24 -37 1 -1 3 -4 5
-7 2 -3 5 -7 6 -9 2 -1 9 -11 16 -20 15 -19 59 -64 72 -73 4 -3 10 -8 13 -11
3 -2 11 -8 18 -13 12 -8 15 -9 24 -9 17 0 27 7 37 26 3 6 11 21 18 33 15 26
23 40 26 47 2 3 5 8 7 11 2 3 6 9 8 13 2 4 11 17 19 30 12 18 16 25 16 32 3
19 -11 30 -33 28 -25 -2 -35 1 -38 12 -13 43 -13 43 -44 75 -15 16 -28 30 -28
31 0 1 -7 2 -16 2 l-16 0 -12 -11 c-11 -11 -13 -12 -22 -12 -9 0 -11 1 -16 7
-6 5 -7 7 -7 16 0 13 3 16 21 25 15 7 20 15 20 29 0 7 -4 16 -18 45 -10 20
-18 39 -18 42 0 9 7 10 24 5 20 -6 37 -2 49 10 5 5 53 103 53 107 0 1 4 10 9
21 5 10 15 33 22 50 7 17 15 34 16 37 6 15 37 90 46 111 7 18 3 35 -11 45 -10
7 -11 7 -70 22 -2 1 -10 3 -18 5 -49 14 -87 22 -92 21 -11 -2 -15 -3 -19 -6
-8 -5 -15 -16 -15 -22 0 -6 5 -23 8 -25 2 -2 12 -22 12 -25 0 -4 -7 -11 -16
-14 -12 -5 -26 -16 -26 -20 0 -2 -2 0 -6 7 l-5 11 -1 158 c0 174 0 167 -13
181 -3 3 -7 6 -8 6 -2 0 -3 1 -3 2 0 3 -12 3 -95 3 -83 0 -95 0 -95 -3 0 -1
-1 -2 -3 -2 -4 0 -14 -12 -18 -21 -3 -7 -3 -23 -3 -131 l0 -124 -4 -9 c-3 -4
-6 -10 -6 -12 -2 -4 -2 -4 -2 0 0 5 -15 13 -27 14 -3 1 -32 6 -64 11 -64 11
-72 11 -84 1 -11 -10 -13 -17 -17 -63 -2 -24 -4 -45 -5 -48 0 -3 -1 -12 -1
-20 l-1 -15 -1 11 c-1 6 -1 10 -2 9 0 -1 -2 -3 -4 -5 -3 -2 -4 -2 -4 0 1 2 0
8 -2 14 -3 11 -14 26 -19 26 -2 0 -3 1 -3 2 0 2 -10 3 -47 3 l-36 0 -6 6 -6 6
1 45 c1 45 1 45 6 51 3 3 6 6 8 6 6 1 65 17 92 26 29 10 38 14 43 21 2 4 4 19
3 29 0 2 -9 13 -19 26 -11 12 -23 26 -27 31 -4 5 -15 19 -26 31 -10 12 -21 25
-24 29 -3 4 -9 10 -13 15 -47 59 -53 61 -109 42z m-763 -267 c5 -5 6 -7 6 -16
0 -9 -1 -11 -7 -16 -5 -6 -7 -7 -16 -7 -9 0 -11 1 -16 7 -9 8 -9 23 -1 32 9 9
24 9 34 0z m92 -69 l6 -6 0 -59 0 -59 -6 -6 c-5 -4 -8 -6 -13 -6 -5 0 -8 2
-13 6 l-6 6 0 59 0 59 6 6 c8 8 17 8 26 0z m179 -16 c3 -2 6 -4 8 -6 4 -5 9
-20 7 -25 -4 -13 0 -36 9 -51 9 -14 9 -27 0 -35 -5 -6 -7 -7 -16 -7 -15 0 -22
7 -23 25 -1 19 -6 32 -16 44 -22 26 -12 59 18 57 4 0 10 -1 13 -2z m-343 -17
c7 -3 12 -13 12 -25 0 -19 -9 -28 -28 -28 -19 0 -28 9 -28 28 0 17 6 24 22 28
5 1 14 -1 22 -3z m1590 -14 c10 -9 3 -26 -10 -26 -8 0 -15 7 -15 15 0 13 16
20 25 11z m-357 -55 c3 -5 6 -17 8 -34 1 -10 3 -22 5 -26 l4 -8 14 -1 c8 0 15
-1 15 -1 1 -1 2 0 2 1 0 3 16 24 21 28 2 1 8 3 13 3 9 0 11 -1 16 -7 14 -13 5
-38 -12 -38 -6 0 -18 -2 -29 -5 -1 0 -3 0 -3 0 -1 0 -3 -2 -5 -4 -2 -2 -5 -5
-7 -6 -5 -3 -19 -15 -28 -23 -7 -7 -14 -20 -15 -30 -1 -5 -9 -42 -10 -48 -5
-20 -16 -54 -25 -76 -8 -20 -5 -32 14 -49 l13 -13 0 -15 c0 -14 0 -16 -6 -20
-6 -6 -24 -7 -35 -2 -8 3 -24 2 -33 -1 -5 -2 -13 -11 -27 -30 -16 -21 -55 -61
-67 -69 -12 -7 -16 -7 -14 2 1 5 10 22 13 25 4 3 28 43 28 46 1 11 1 14 -2 22
-2 10 -4 12 -42 52 -23 25 -30 30 -50 36 -7 2 -14 6 -16 8 -4 4 -9 16 -11 24
-2 11 -25 37 -47 54 l-6 5 4 4 c3 3 10 6 15 8 13 4 23 11 35 23 11 12 17 14
47 14 31 0 37 -1 44 -8 5 -5 6 -7 6 -16 0 -9 -1 -11 -6 -16 -3 -3 -9 -6 -12
-7 -3 0 -9 -2 -12 -4 -7 -3 -7 -3 -7 -19 -1 -9 0 -16 1 -16 1 0 1 -1 0 -1 0
-1 5 -4 11 -6 7 -3 19 -8 27 -11 8 -4 18 -8 23 -10 35 -16 48 -20 57 -19 13 2
22 8 28 18 14 22 39 97 48 145 1 3 2 9 3 15 4 19 -2 34 -18 46 -14 11 -16 14
-16 25 0 12 3 15 18 22 18 9 24 14 24 19 0 4 1 4 1 0 1 -2 2 -5 3 -6z m-110
-23 c5 -5 6 -7 6 -17 0 -10 -1 -12 -6 -17 -5 -5 -7 -6 -17 -6 -10 0 -12 1 -17
6 -5 5 -6 7 -6 17 0 10 1 12 6 17 5 5 7 6 17 6 10 0 12 -1 17 -6z m-265 -20
c4 -6 4 -24 -1 -30 -7 -9 -27 -9 -34 0 -5 6 -5 24 0 30 7 9 27 9 35 0z m-519
-143 c3 -3 4 -7 4 -14 0 -13 -6 -19 -19 -19 -13 0 -19 6 -19 19 0 7 1 11 4 14
7 8 23 8 30 0z m420 -3 c1 0 5 -3 8 -6 5 -5 6 -7 6 -18 0 -13 0 -14 -20 -30
-4 -4 -7 -7 -7 -8 1 -1 0 -2 -1 -3 -3 -2 -2 -17 2 -26 3 -8 4 -12 4 -22 -2
-16 -7 -21 -25 -21 -17 0 -23 5 -24 18 -2 18 0 23 15 34 7 5 13 11 14 13 1 13
0 26 -3 30 -4 5 -4 25 0 31 2 2 6 5 9 7 5 2 8 2 22 1z m707 -4 c5 -3 11 -20
10 -26 -2 -5 -13 -14 -18 -14 -20 -2 -30 5 -30 22 0 8 1 11 6 16 8 8 23 9 32
2z m-604 -19 c7 -4 8 -5 11 -14 5 -23 -7 -41 -29 -40 -15 1 -23 6 -27 20 -2 9
0 24 6 30 8 9 25 11 39 4z m463 -56 c3 -3 4 -7 4 -14 0 -13 -6 -19 -19 -19
-13 0 -19 6 -19 19 0 7 1 11 4 14 7 8 23 8 30 0z m-1161 -34 l6 -6 0 -60 0
-60 -6 -6 c-5 -4 -8 -6 -13 -6 -5 0 -8 2 -13 6 l-6 6 0 60 0 60 6 6 c8 8 17 8
26 0z m430 -145 c4 -6 4 -10 -1 -14 -6 -5 -12 -4 -16 2 -6 11 10 22 17 12z
m679 -27 c5 -5 10 -18 10 -26 0 -4 -8 -11 -16 -13 -11 -3 -25 -11 -38 -23 -14
-13 -18 -15 -30 -16 -12 0 -21 4 -25 12 -4 8 -4 24 0 32 3 7 5 8 26 14 13 4
19 7 35 17 17 11 29 12 38 3z m-1182 1 c1 0 5 -3 8 -6 5 -5 6 -7 6 -18 0 -11
-1 -13 -6 -18 -6 -6 -7 -6 -18 -6 -11 0 -12 0 -18 6 -5 5 -6 7 -6 17 0 14 3
20 12 24 5 2 8 2 22 1z m581 -5 c15 -9 15 -28 2 -56 -11 -23 -13 -36 -7 -49 5
-12 12 -21 22 -26 9 -5 14 -13 14 -24 0 -11 -5 -19 -14 -24 -10 -5 -17 -14
-22 -26 -5 -11 -5 -32 -1 -43 4 -9 14 -21 18 -21 2 0 3 -1 3 -2 0 -3 12 -3 95
-3 83 0 95 0 95 3 0 1 1 2 3 2 4 0 14 12 18 21 2 6 3 16 3 53 0 50 -1 56 -11
65 -5 4 -27 13 -30 13 -9 -1 -17 7 -17 18 0 9 7 18 13 18 13 0 41 15 41 22 0
3 7 16 12 21 3 3 4 3 4 0 0 -2 3 -7 6 -12 3 -6 7 -14 8 -18 2 -4 6 -11 10 -15
7 -8 8 -8 20 -8 11 0 15 1 19 4 3 2 8 5 12 5 6 1 7 1 12 -6 9 -10 46 -75 63
-110 21 -43 21 -48 -11 -67 -11 -7 -27 -16 -35 -22 -36 -23 -50 -32 -52 -32
-1 0 -2 -1 -3 -3 0 -2 -3 -2 -10 -1 -9 2 -25 7 -27 10 -3 3 -17 3 -113 3 -101
0 -113 0 -113 -3 0 -1 -1 -2 -3 -2 -3 0 -14 -12 -17 -19 -2 -4 -3 -19 -4 -38
-1 -31 -1 -33 -6 -38 -3 -3 -5 -4 -7 -3 -1 1 -7 4 -13 6 -6 2 -17 7 -24 10 -7
4 -19 9 -26 12 -7 2 -15 6 -17 7 -2 2 -9 5 -15 7 -6 2 -16 7 -22 9 -23 11 -29
13 -37 13 -20 0 -31 -12 -39 -41 -6 -22 -4 -34 7 -44 4 -4 20 -11 24 -11 1 0
4 -2 6 -4 10 -9 3 -26 -10 -26 -4 0 -7 1 -8 2 -2 3 -29 1 -36 -3 -8 -3 -15
-17 -15 -27 0 -6 -1 -6 -2 -2 -1 3 -2 5 -3 4 -6 -3 -7 8 -7 184 0 178 0 182 7
182 2 0 3 2 3 5 1 4 1 4 1 -1 1 -3 6 -17 11 -33 6 -15 14 -39 18 -53 12 -41
15 -43 36 -44 12 -1 13 0 19 5 7 8 32 39 41 52 4 6 7 10 8 11 5 4 38 58 54 89
14 27 15 35 8 62 -6 25 -4 34 12 42 10 6 21 6 29 0z m938 -3 c5 -5 6 -7 6 -16
0 -12 -4 -17 -22 -29 -8 -6 -15 -11 -15 -11 0 -1 -5 -4 -10 -7 -10 -5 -12 -5
-31 -4 -48 3 -49 3 -55 9 -5 5 -6 7 -6 17 0 10 1 12 6 17 7 7 19 8 35 3 11 -3
24 -4 31 -1 3 1 11 7 18 15 8 7 16 13 18 13 11 2 19 0 25 -6z m-1467 -84 c7
-7 9 -17 6 -34 -1 -7 -3 -15 -3 -18 0 -3 -1 -5 -1 -6 -1 -2 0 -11 1 -18 1 -3
0 -7 -1 -9 -1 -2 -2 -4 -1 -5 0 -1 0 -2 -1 -2 -2 -1 -3 -4 -2 -20 0 -8 1 -12
2 -10 1 2 2 1 3 -3 1 -4 11 -13 11 -10 0 1 2 -1 4 -5 2 -3 5 -7 7 -7 1 -1 2
-13 1 -54 0 -48 0 -56 4 -71 5 -22 5 -30 0 -35 -9 -10 -28 -4 -35 11 -4 8 -4
13 -5 79 -1 38 0 70 1 71 2 2 0 19 -2 19 -1 0 -3 1 -5 2 -8 7 -25 19 -26 19
-3 0 -8 14 -8 22 0 5 2 15 4 22 3 8 5 21 5 33 1 21 5 32 11 34 2 0 8 1 14 1 9
0 11 -1 16 -6z m83 -41 c6 -4 6 -6 6 -20 0 -14 0 -16 -6 -20 -4 -4 -7 -5 -18
-5 -13 0 -14 0 -22 9 -6 7 -8 11 -8 17 -1 4 0 8 1 7 1 -1 2 1 3 4 3 12 33 18
44 8z m1381 -9 c5 -5 5 -11 0 -16 -10 -10 -27 5 -16 16 4 4 12 4 16 0z m-460
-22 c5 -5 5 -15 0 -20 -9 -8 -24 -2 -24 10 0 8 6 14 14 14 3 0 8 -2 10 -4z
m-807 -52 c11 -10 3 -28 -11 -28 -9 0 -16 6 -16 16 0 14 17 22 27 12z m810
-143 c5 -8 1 -16 -8 -16 -9 0 -13 8 -8 16 2 3 5 5 8 5 3 0 6 -2 8 -5z m-178
-38 c20 -27 42 -57 58 -78 9 -13 21 -24 33 -30 14 -7 17 -12 21 -33 2 -13 6
-23 11 -32 13 -24 23 -32 42 -32 9 0 12 2 46 24 20 14 37 26 38 26 0 1 3 -1 5
-4 6 -7 7 -12 2 -49 -4 -30 -9 -54 -14 -61 -3 -3 -9 -7 -14 -10 l-10 -5 -106
0 c-104 0 -106 0 -123 5 -23 6 -28 8 -30 13 -5 8 -4 11 9 33 6 10 5 24 -2 35
-10 16 -11 19 -11 24 0 5 1 8 10 23 11 18 12 24 12 89 0 61 1 70 8 78 2 2 3 2
4 0 1 -1 6 -8 11 -16z m-958 -11 c10 -9 3 -26 -10 -26 -8 0 -15 7 -15 15 0 13
16 20 25 11z m1476 -38 c5 -5 6 -7 6 -16 0 -9 -1 -11 -7 -16 -5 -6 -7 -7 -16
-7 -9 0 -11 1 -16 7 -9 8 -9 23 -1 32 9 9 24 9 34 0z m-1339 -12 c5 -6 5 -12
0 -18 -7 -8 -22 -2 -22 9 0 11 15 17 22 9z m1186 -14 c3 -2 8 -7 12 -10 10 -8
13 -15 16 -34 2 -17 5 -29 8 -33 1 -1 2 -5 3 -8 2 -13 -7 -13 -36 0 -44 20
-59 30 -59 38 0 4 8 11 22 22 5 3 11 10 13 14 4 9 7 12 11 14 5 1 5 1 10 -3z
m-732 -47 c16 -7 20 -37 7 -48 -12 -11 -34 -11 -43 0 -9 10 -9 32 0 42 7 8 24
11 36 6z m-164 -42 c2 -1 4 -2 4 -3 0 -1 3 0 7 1 16 7 27 2 30 -13 1 -4 2 -8
2 -8 0 -1 1 -5 1 -9 0 -5 1 -8 4 -8 5 -2 26 -19 28 -23 4 -7 2 -18 -3 -23 -6
-6 -18 -7 -25 -1 -5 4 -9 18 -8 32 0 5 -1 8 -2 7 -1 -1 -1 0 -1 2 1 1 -1 3 -5
5 -6 3 -30 27 -28 29 0 1 -1 0 -4 -2 l-6 -3 0 16 c1 9 1 14 1 9 1 -5 2 -8 5
-8z m-417 -24 c6 -4 6 -6 6 -20 0 -14 0 -16 -6 -20 -4 -4 -7 -5 -18 -5 -11 0
-14 1 -18 5 -6 4 -6 6 -6 20 0 14 0 16 6 20 4 4 7 5 18 5 11 0 14 -1 18 -5z
m806 -70 c6 -4 6 -6 6 -20 0 -14 0 -16 -6 -20 -7 -7 -28 -7 -36 -1 -10 8 -10
34 0 42 8 6 29 6 36 -1z m574 0 c3 -3 3 -3 0 -6 -3 -3 -3 -3 -6 0 -3 2 -3 3
-1 6 4 4 4 4 7 0z m-398 -186 c12 -7 14 -33 3 -43 -8 -9 -32 -9 -40 0 -9 8 -9
32 0 41 7 7 27 8 37 2z m116 -24 c5 -8 1 -16 -8 -16 -9 0 -13 8 -8 16 2 3 5 5
8 5 3 0 6 -2 8 -5z"/>
</g>
</svg>
