<?xml version="1.0" standalone="no"?>
<!DOCTYPE svg PUBLIC "-//W3C//DTD SVG 20010904//EN"
 "http://www.w3.org/TR/2001/REC-SVG-20010904/DTD/svg10.dtd">
<svg version="1.0" xmlns="http://www.w3.org/2000/svg"
 width="1000.000000pt" height="2850.000000pt" viewBox="0 0 1000.000000 2850.000000"
 preserveAspectRatio="xMidYMid meet">
<metadata>
Created by potrace 1.15, written by Peter Selinger 2001-2017
</metadata>
<g transform="translate(0.000000,2850.000000) scale(0.500000,-0.500000)"
fill="#000000" stroke="none">
<path d="M1613 3770 c-4 -1 -12 -2 -18 -3 -18 -2 -57 -7 -76 -10 -16 -2 -25
-3 -83 -11 -26 -3 -50 -7 -53 -9 -4 -2 -8 -3 -9 -3 -1 0 -2 -1 -2 -2 0 -1 -1
-2 -3 -2 -1 0 -5 -3 -7 -7 -16 -26 -7 -62 18 -77 21 -13 23 -28 7 -45 -5 -5
-13 -23 -13 -31 -1 -12 7 -48 10 -48 1 0 2 -2 3 -5 0 -2 5 -8 9 -12 17 -16 17
-19 9 -47 -5 -16 -6 -23 -2 -37 20 -90 56 -198 82 -251 4 -8 7 -15 7 -16 0 -3
31 -63 45 -86 6 -11 8 -12 23 -12 15 0 18 2 24 13 6 12 11 15 24 15 9 0 11 -1
16 -6 8 -8 9 -25 1 -33 -4 -5 -26 -12 -37 -11 -5 0 -6 -1 -8 -8 -2 -7 -2 -9 0
-10 2 -1 1 -2 -2 -3 -3 0 -9 -5 -14 -9 -5 -4 -9 -8 -10 -8 0 0 -7 -5 -14 -12
-7 -7 -14 -12 -16 -12 -7 0 -30 -10 -36 -16 -3 -3 -7 -9 -10 -13 -9 -17 -23
-20 -43 -10 -20 9 -27 17 -38 38 -11 21 -17 27 -31 31 -10 3 -23 -3 -29 -12
-4 -9 -7 -24 -5 -29 3 -7 0 -18 -6 -24 -5 -5 -7 -6 -16 -6 -9 0 -11 1 -16 6
-6 6 -9 17 -6 24 2 5 -1 20 -5 28 -7 14 -9 14 -79 15 l-63 1 -6 5 c-6 5 -6 5
-3 9 10 11 42 72 42 81 0 4 0 15 -1 25 -2 20 1 30 9 32 2 1 4 2 4 3 0 1 1 2 2
2 4 0 20 14 25 23 5 7 8 15 21 51 5 13 5 31 1 46 -4 13 -4 27 -1 33 2 2 8 9
15 16 20 21 21 22 33 76 13 61 23 117 21 126 -2 13 -9 22 -25 31 -15 9 -18 13
-15 23 1 5 3 7 21 12 19 5 26 11 33 27 2 7 2 8 -2 21 -2 7 -6 15 -8 18 -5 5
-11 16 -17 30 -12 28 -16 30 -88 35 -31 2 -63 4 -70 5 -7 0 -20 1 -29 2 -9 1
-24 2 -34 2 -23 2 -26 2 -36 -3 -17 -7 -25 -23 -26 -49 0 -24 8 -35 36 -46 15
-7 19 -12 20 -27 0 -19 -7 -26 -26 -29 -24 -4 -37 -12 -43 -28 -2 -5 -6 -24
-9 -42 -9 -53 -27 -126 -41 -168 -4 -10 -4 -16 -4 -32 1 -39 0 -41 -15 -54 -6
-4 -13 -11 -17 -15 -7 -7 -7 -8 -6 -19 2 -24 11 -27 43 -19 17 4 18 4 23 0 9
-9 3 -19 -28 -52 -9 -10 -9 -10 -22 -10 -12 0 -14 1 -23 7 -9 6 -11 7 -23 7
-7 0 -14 -1 -16 -2 -2 -1 -11 -11 -19 -22 -9 -12 -18 -23 -20 -26 -3 -3 -5 -6
-5 -8 0 -1 -2 1 -5 4 l-6 7 -1 89 c-1 101 -1 99 -18 111 -18 14 -21 17 -19 29
1 12 5 19 17 32 10 12 14 19 18 30 3 9 3 268 0 279 -3 12 -11 20 -32 39 -29
24 -27 24 -104 24 -81 0 -83 -1 -82 -25 0 -9 -1 -13 -2 -13 -2 0 -1 -1 2 -2 6
-3 8 -11 8 -25 -2 -16 -7 -21 -25 -21 -18 0 -23 5 -25 21 0 14 2 22 8 25 3 1
4 2 2 2 -1 0 -2 4 -2 13 1 24 -3 25 -68 25 -38 0 -56 -1 -69 -3 -22 -4 -34 -4
-53 0 -31 7 -52 2 -70 -14 -4 -4 -10 -9 -11 -10 -5 -3 -25 -9 -24 -7 1 1 0 2
-1 2 -5 0 -15 7 -24 15 -9 8 -26 17 -35 17 -7 0 -25 -8 -29 -13 -10 -11 -12
-20 -12 -63 0 -30 1 -45 3 -56 4 -18 4 -37 0 -54 -2 -10 -3 -32 -3 -100 0 -83
0 -87 4 -95 6 -12 17 -18 39 -20 11 -2 17 -8 17 -18 0 -10 -6 -16 -17 -18 -22
-2 -33 -8 -39 -20 -3 -7 -4 -12 -4 -32 0 -25 3 -38 8 -40 2 -1 4 -2 4 -3 0 -3
16 -7 25 -6 20 1 25 0 31 -2 8 -3 13 -12 13 -25 0 -18 -9 -27 -25 -27 -4 0
-13 0 -21 0 -7 0 -14 0 -15 -1 -1 0 -2 -6 -2 -12 0 -10 1 -13 5 -19 3 -4 7
-10 10 -15 l6 -7 -4 -7 c-2 -4 -7 -9 -12 -12 -18 -11 -24 -26 -18 -49 4 -17 4
-27 -1 -48 -3 -15 -4 -26 -5 -102 -1 -47 -2 -94 -2 -106 -1 -23 2 -37 11 -57
10 -18 9 -30 -2 -50 -14 -25 -14 -25 -18 -76 -2 -30 -9 -110 -11 -125 0 -4 -2
-18 -4 -32 -3 -25 -3 -37 2 -43 2 -2 3 -6 3 -7 0 -2 1 -4 2 -4 1 0 7 -5 13
-11 9 -9 11 -12 11 -18 0 -8 -4 -12 -23 -21 -13 -6 -23 -15 -27 -25 -2 -5 -10
-41 -13 -60 -2 -12 -21 -85 -29 -109 -7 -22 -7 -26 -6 -34 1 -5 2 -10 2 -11 0
-1 9 -10 26 -26 3 -3 6 -8 6 -10 1 -10 0 -16 -4 -24 -3 -6 -4 -11 -3 -19 1
-18 5 -23 22 -31 7 -4 24 -12 36 -19 12 -7 22 -12 22 -12 1 0 4 -2 9 -5 11 -7
21 -8 40 -3 9 2 18 4 20 4 6 0 12 -7 12 -14 0 -8 6 -28 9 -31 1 -1 8 -2 16 -2
13 0 14 1 18 6 11 14 50 129 64 187 1 2 2 8 4 13 1 6 2 10 3 11 0 2 2 11 7 32
3 12 5 24 6 27 0 3 2 13 4 21 11 49 31 183 38 255 6 63 8 79 10 83 1 3 3 8 4
11 2 9 2 35 0 36 -3 3 -1 22 3 27 7 9 27 9 35 0 3 -5 5 -25 1 -27 -2 -1 1 -22
5 -29 3 -6 15 -13 21 -12 2 1 6 -2 9 -5 8 -8 7 -4 6 -159 -1 -63 -1 -87 1 -94
3 -11 14 -21 27 -25 10 -4 12 -4 18 -5 2 0 6 -3 9 -6 5 -5 6 -7 6 -17 0 -21
-8 -27 -34 -25 -31 3 -112 4 -120 1 -18 -6 -23 -25 -14 -51 17 -45 42 -151 47
-201 3 -25 13 -40 31 -47 10 -4 13 -4 40 -3 86 4 139 18 187 51 23 16 57 51
57 60 0 1 1 3 3 5 5 4 11 25 10 34 0 11 -4 16 -15 19 -7 2 -9 2 -12 -1 -2 -2
-7 -3 -14 -3 -14 0 -20 5 -20 19 0 13 6 19 19 19 9 0 11 0 16 -7 6 -7 7 -7 19
-7 12 0 14 1 21 6 5 4 8 7 7 8 0 0 1 9 2 18 1 12 2 66 2 169 -1 139 -1 153 -5
170 -3 16 -3 18 0 35 2 9 4 19 4 22 1 3 0 12 -2 21 -4 19 -4 38 0 55 2 11 3
40 3 158 0 88 1 148 2 151 1 3 3 6 5 8 4 4 4 4 9 -1 3 -3 9 -7 12 -10 8 -6 34
-27 42 -33 9 -8 13 -13 18 -20 3 -5 5 -8 6 -9 1 -1 3 -5 6 -10 2 -4 6 -10 8
-12 13 -14 13 -30 -1 -44 -4 -5 -13 -25 -14 -31 -1 -10 13 -31 20 -31 2 0 3
-1 3 -2 0 -2 2 -2 54 -3 l50 -1 5 -6 c5 -5 6 -6 5 -14 -1 -5 -2 -18 -3 -29 -1
-23 -6 -62 -10 -93 -3 -22 -4 -35 -2 -51 0 -6 0 -11 -1 -10 -3 0 -12 -17 -13
-26 -1 -9 -7 -35 -13 -55 -8 -29 -9 -33 -8 -40 3 -13 4 -16 6 -19 1 -1 3 -7 6
-12 3 -9 3 -10 0 -14 -2 -3 -14 -9 -18 -10 -3 -1 -20 -10 -23 -13 -1 -1 -7
-12 -13 -22 -9 -18 -33 -58 -36 -60 -1 -1 -5 -6 -9 -12 -13 -18 -15 -20 -46
-51 -17 -17 -32 -33 -33 -36 -5 -14 0 -30 13 -40 5 -3 26 -24 48 -46 22 -21
43 -42 48 -46 4 -4 9 -11 12 -15 2 -4 10 -13 16 -20 7 -8 17 -20 23 -28 13
-18 20 -24 30 -26 8 -2 24 -1 24 2 0 1 2 2 4 3 4 1 54 50 73 72 26 29 81 108
81 115 0 1 1 2 2 2 1 0 2 4 3 9 3 19 -8 31 -32 34 -5 1 -12 4 -15 6 -5 4 -5 6
-5 20 0 14 0 16 6 20 4 4 7 5 18 5 13 0 13 0 22 -8 8 -8 9 -8 21 -8 23 -1 22
-2 36 33 17 43 26 68 25 73 0 2 -1 5 -1 9 0 11 -22 25 -38 25 -13 0 -20 23 -9
33 5 6 20 7 28 2 4 -3 8 -3 17 -2 24 2 26 5 41 73 2 9 3 19 3 23 0 11 -6 36
-9 39 -2 1 -3 3 -2 4 1 1 0 2 -1 3 -1 1 0 3 3 6 3 3 5 6 5 7 0 1 2 4 5 7 6 7
12 19 15 28 2 8 -2 30 -8 42 -5 10 -19 25 -24 25 -5 0 -14 10 -14 15 0 5 9 11
19 12 18 2 33 9 38 19 1 3 3 12 3 20 1 14 1 15 7 20 l7 6 71 0 72 0 6 -6 c2
-3 4 -6 4 -6 0 -1 -1 -16 -2 -35 -1 -19 -2 -39 -2 -45 0 -6 -1 -24 -2 -39 -1
-15 -2 -34 -2 -42 0 -8 -1 -22 -2 -32 -2 -39 -6 -90 -8 -110 -2 -21 -9 -84
-11 -93 -2 -16 3 -34 13 -45 6 -7 11 -17 11 -23 0 -8 -7 -13 -25 -19 -17 -5
-40 -19 -44 -26 -1 -2 -3 -5 -4 -5 -1 -1 -1 -2 0 -2 1 0 1 -1 -1 -3 -1 -1 -2
-7 -3 -14 -1 -11 -1 -13 6 -28 8 -17 14 -27 19 -30 4 -2 10 -17 10 -24 0 -10
-7 -17 -17 -17 -10 0 -17 5 -24 15 -14 22 -25 27 -50 21 -18 -4 -27 -3 -33 3
-6 6 -7 11 -6 24 0 7 10 15 19 16 l8 1 0 20 c-1 15 -1 19 -4 21 -4 2 -18 0
-39 -5 -9 -2 -19 -4 -23 -4 -12 0 -25 -8 -29 -18 -2 -6 2 -19 13 -48 14 -36
32 -101 36 -131 1 -4 2 -9 2 -11 1 -2 1 -8 2 -15 3 -26 11 -40 28 -48 11 -5
13 -5 46 -5 31 0 36 0 57 6 12 3 25 5 27 5 2 0 10 -2 18 -3 19 -3 30 -3 58 2
64 11 114 36 147 73 7 8 16 18 20 22 14 15 15 26 4 48 -7 15 -8 29 -3 37 3 4
26 16 30 16 3 0 15 11 19 17 3 6 9 28 8 32 0 0 1 1 2 1 3 0 2 20 -2 27 -4 9
-2 31 5 46 3 7 7 15 8 19 4 9 11 79 16 149 1 10 2 21 2 24 1 7 -4 23 -9 31 -2
3 -10 9 -18 13 -20 10 -22 13 -22 26 0 9 1 12 5 16 3 3 6 5 9 5 2 0 4 1 6 2 1
2 2 2 2 1 0 -2 11 4 15 9 3 3 4 7 3 17 0 13 0 13 -9 21 -10 10 -14 20 -12 32
2 10 4 12 16 22 l11 8 0 15 c0 16 -2 20 -14 26 -6 3 -12 11 -12 17 0 5 5 10
21 20 16 10 24 22 24 37 3 47 1 54 -20 76 -13 14 -16 24 -13 38 3 11 7 14 23
22 21 10 30 17 46 38 17 24 22 29 24 32 1 1 7 9 14 17 6 8 28 31 47 50 34 34
36 36 37 45 3 18 -1 23 -27 45 -6 5 -15 12 -19 16 -29 27 -29 28 -61 32 -19 3
-21 6 -23 30 -1 23 -4 31 -14 46 -17 24 -25 36 -33 50 -9 16 -14 23 -23 26 -8
3 -25 2 -32 -1 -3 -2 -11 -3 -17 -3 -17 0 -22 5 -24 21 0 10 1 14 7 27 3 9 7
19 8 22 1 4 2 8 3 10 3 5 8 28 9 41 1 8 1 13 -2 19 -7 17 -32 110 -41 159 -7
32 -12 39 -38 50 -14 5 -17 7 -19 12 -3 8 1 15 14 25 15 11 20 21 20 38 0 31
-24 53 -52 48z m-41 -64 c5 -5 5 -11 0 -16 -10 -10 -27 5 -16 16 4 4 12 4 16
0z m-1155 -30 c4 -6 4 -24 -1 -30 -7 -9 -27 -9 -34 0 -5 6 -5 24 0 30 7 9 27
9 35 0z m-148 -5 c1 0 3 -1 5 -1 6 0 11 -10 11 -20 0 -9 -1 -11 -7 -16 -5 -6
-7 -7 -16 -7 -9 0 -11 1 -16 7 -6 5 -7 7 -7 16 0 10 5 20 11 20 2 0 4 1 5 2 1
1 12 1 14 -1z m903 -129 c1 0 5 -3 8 -6 5 -5 6 -7 6 -18 0 -11 -1 -13 -6 -18
-6 -6 -7 -6 -18 -6 -11 0 -12 0 -18 6 -5 5 -6 7 -6 17 0 14 3 20 12 24 5 2 8
2 22 1z m-850 -48 c5 -5 6 -7 6 -17 0 -10 -1 -12 -6 -17 -5 -5 -7 -6 -18 -6
-20 0 -42 -4 -51 -8 -3 -2 -11 -3 -22 -2 -2 0 -6 3 -9 6 -5 5 -6 7 -6 18 0 20
9 26 37 26 8 0 19 1 26 3 7 1 18 3 25 3 11 0 13 -1 18 -6z m769 -12 c8 -8 8
-21 -1 -35 -7 -10 -10 -26 -7 -38 1 -5 16 -20 28 -28 17 -11 22 -24 13 -33 -5
-5 -10 -5 -33 2 -11 4 -24 8 -30 9 -14 4 -19 10 -19 25 0 9 1 12 7 21 8 12 9
16 9 33 0 7 -1 12 -3 14 -2 3 -4 7 -4 14 0 8 1 11 6 16 9 9 24 9 34 0z m-590
-37 l6 -6 0 -64 0 -64 -6 -6 c-6 -6 -7 -6 -29 -6 -22 0 -23 0 -29 6 l-6 6 0
64 0 64 6 6 6 6 23 0 c22 0 23 0 29 -6z m-200 -62 c3 -5 3 -5 0 -10 -2 -3 -5
-5 -7 -5 -2 0 -5 2 -7 5 -3 5 -3 5 0 10 2 3 5 5 7 5 2 0 5 -2 7 -5z m302 -66
c3 -3 3 -3 0 -6 -3 -3 -3 -3 -6 0 -3 2 -3 3 -1 6 4 4 4 4 7 0z m488 -57 c7 -6
7 -19 1 -25 -6 -7 -19 -7 -25 -1 -7 6 -7 19 -1 25 6 7 19 7 25 1z m654 -63 c3
-5 3 -5 0 -10 -5 -6 -9 -6 -14 -2 -4 4 -4 6 1 12 4 6 8 6 13 0z m-1034 -7 c4
-6 4 -24 -1 -30 -7 -9 -27 -9 -34 0 -5 6 -5 24 0 30 7 9 27 9 35 0z m977 -14
c19 -11 22 -18 25 -51 2 -15 -1 -25 -8 -30 -4 -3 -6 -3 -13 0 -5 2 -11 5 -13
8 -9 12 -25 54 -25 68 0 7 7 13 14 13 3 0 12 -4 20 -8z m-1142 1 c13 -6 18
-21 13 -38 -3 -9 -4 -11 -10 -14 -20 -10 -40 -2 -45 16 -2 10 0 23 6 30 7 8
24 11 36 6z m-245 -42 c4 -3 7 -6 7 -7 0 -1 4 -6 10 -12 9 -10 16 -22 16 -25
0 -1 -2 -4 -4 -7 l-4 -5 -11 4 c-5 2 -11 5 -13 6 -2 1 -8 5 -14 8 -14 8 -20
15 -20 25 0 17 17 24 33 13z m732 -32 c4 -4 5 -7 5 -13 0 -11 -7 -18 -18 -18
-11 0 -18 7 -18 18 0 11 7 18 18 18 6 0 9 -1 13 -5z m-421 -14 l-5 -5 -4 4 -5
5 4 4 5 5 4 -4 5 -5 -4 -4z m334 -5 c5 -5 5 -11 0 -16 -10 -10 -27 5 -16 16 4
4 12 4 16 0z m-219 -57 c4 -4 5 -7 5 -13 0 -11 -7 -18 -18 -18 -11 0 -18 7
-18 18 0 11 7 18 18 18 6 0 9 -1 13 -5z m-226 -28 l6 -6 0 -69 0 -69 -6 -6
c-6 -6 -6 -6 -30 -6 l-24 0 -5 6 c-6 6 -6 6 -5 36 0 41 -4 47 -28 47 -7 0 -12
-1 -14 -3 -3 -3 -7 -4 -19 -3 -11 0 -19 9 -19 22 0 9 1 11 7 16 5 6 7 7 16 7
8 0 11 -2 15 -5 3 -3 6 -4 16 -3 7 0 14 2 16 3 5 3 12 16 11 22 -1 3 1 7 5 11
l6 6 23 0 c22 0 23 0 29 -6z m1260 -38 c11 -5 14 -19 7 -34 -9 -21 -37 -33
-56 -26 -21 9 -20 47 2 55 14 6 20 8 29 8 6 0 14 -1 18 -3z m-670 -135 c4 -4
7 -8 7 -9 0 -1 2 -4 5 -7 2 -3 6 -10 8 -15 3 -10 3 -11 0 -16 -6 -7 -13 -6
-39 7 -18 8 -22 13 -22 27 0 13 4 19 14 21 10 2 20 -1 27 -8z m159 -17 c16 -7
20 -37 7 -48 -12 -11 -34 -11 -43 0 -9 10 -9 32 0 42 7 8 24 11 36 6z m-516
-10 c7 -7 -1 -36 -13 -47 -6 -5 -9 -6 -18 -6 -10 0 -12 1 -17 6 -5 5 -6 7 -6
17 0 14 7 23 23 29 17 6 25 7 31 1z m807 -15 c2 -3 3 -8 3 -15 0 -21 -14 -26
-45 -16 -16 6 -27 14 -27 20 0 6 10 13 23 15 27 4 40 3 46 -4z m-1142 -12 c5
-5 6 -7 6 -16 0 -9 -1 -11 -7 -16 -5 -6 -7 -7 -16 -7 -9 0 -11 1 -16 7 -9 8
-9 23 -1 32 9 9 24 9 34 0z m227 -34 c5 -5 6 -7 6 -17 0 -10 -1 -12 -6 -17 -5
-5 -7 -6 -17 -6 -10 0 -12 1 -17 6 -5 5 -6 7 -6 17 0 10 1 12 6 17 5 5 7 6 17
6 10 0 12 -1 17 -6z m549 -36 c4 -6 4 -24 -1 -30 -7 -9 -27 -9 -34 0 -5 6 -5
24 0 30 7 9 27 9 35 0z m-936 -45 c8 -8 6 -27 -4 -51 -7 -14 -13 -19 -25 -19
-18 0 -27 15 -21 34 6 17 19 37 27 40 8 2 18 1 23 -4z m1003 -30 c12 -3 24 -8
24 -10 0 -4 -18 -36 -21 -38 -6 -4 -17 -5 -26 -3 -8 2 -10 4 -17 14 -2 3 -5 6
-6 8 -2 2 -3 4 -2 4 1 1 5 6 9 12 5 9 8 12 12 13 3 1 7 2 8 2 3 1 3 1 19 -2z
m-893 -2 c3 -3 3 -3 0 -6 -3 -3 -3 -3 -6 0 -3 2 -3 3 -1 6 4 4 4 4 7 0z m1245
-23 c2 -2 4 -9 5 -16 1 -7 3 -22 6 -33 6 -24 6 -28 1 -34 -6 -7 -19 -7 -25 -1
-3 3 -5 6 -5 7 0 3 -9 31 -12 36 -1 2 -3 7 -5 10 -4 9 -4 25 1 31 6 8 27 9 34
0z m-437 -3 c1 -3 -1 -9 -2 -9 -1 0 -3 1 -4 3 -3 2 -3 3 -1 6 4 4 5 4 7 0z
m24 -85 l22 -11 25 2 c21 0 26 0 27 -2 0 -2 2 -3 4 -3 2 0 5 -1 6 -3 3 -3 3
-3 0 -8 -2 -3 -5 -5 -7 -6 -2 -1 -4 -2 -4 -3 0 0 -16 -1 -35 -1 -41 0 -54 -3
-63 -12 -11 -12 -12 -17 -6 -46 2 -11 4 -22 4 -25 0 -7 -7 -14 -16 -14 -10 0
-15 6 -29 35 -9 20 -11 25 -11 35 0 11 0 11 12 23 6 7 12 15 14 19 1 4 4 10 5
13 2 4 3 7 3 8 0 1 2 4 5 7 6 7 18 5 44 -8z m-115 -6 c4 -4 5 -13 1 -16 -8 -6
-21 -1 -21 8 0 9 13 15 20 8z m-335 -7 c8 -5 10 -10 9 -24 -1 -12 -12 -39 -16
-39 -1 0 -4 -5 -6 -12 -3 -12 -3 -12 -8 -9 -32 17 -35 19 -33 37 1 22 13 43
27 49 7 3 21 2 27 -2z m-123 -4 c3 -3 4 -7 4 -14 0 -13 -6 -19 -19 -19 -13 0
-19 6 -19 19 0 7 1 11 4 14 7 8 23 8 30 0z m1094 -31 c5 -5 5 -11 0 -16 -10
-10 -27 5 -16 16 4 4 12 4 16 0z m-973 -66 c15 -9 19 -14 19 -25 0 -13 -6 -19
-19 -19 -11 0 -19 5 -19 15 -1 6 6 35 8 35 0 0 5 -3 11 -6z m-140 -12 c11 -10
3 -28 -11 -28 -9 0 -16 6 -16 16 0 14 17 22 27 12z m1095 -108 c5 -5 6 -7 6
-17 0 -10 -1 -12 -6 -17 -5 -5 -7 -6 -17 -6 -10 0 -12 1 -17 6 -5 5 -6 7 -6
17 0 10 1 12 6 17 5 5 7 6 17 6 10 0 12 -1 17 -6z m-977 -57 c5 -8 1 -16 -8
-16 -9 0 -13 8 -8 16 2 3 5 5 8 5 3 0 6 -2 8 -5z m1019 -36 c8 -5 9 -27 1 -34
-7 -8 -27 -7 -33 1 -5 6 -5 24 0 30 5 7 23 9 32 3z m-1489 -15 c4 -6 4 -24 -1
-30 -7 -9 -27 -9 -34 0 -5 6 -5 24 0 30 7 9 27 9 35 0z m1402 -29 c3 -5 3 -5
0 -10 -2 -3 -5 -5 -7 -5 -2 0 -5 2 -7 5 -3 5 -3 5 0 10 2 3 5 5 7 5 2 0 5 -2
7 -5z m-87 -65 c5 -5 6 -7 6 -16 0 -14 -2 -17 -19 -28 -15 -10 -25 -19 -25
-22 0 -1 -3 -2 -7 -4 -11 -3 -15 1 -11 14 1 5 4 10 5 12 2 2 3 5 4 8 0 3 1 5
1 5 0 0 1 1 1 3 8 30 11 34 28 34 10 0 12 -1 17 -6z m-566 -23 c6 -7 6 -22 0
-28 -9 -9 -27 -7 -32 3 -4 7 -3 20 2 25 7 8 23 8 30 0z m-747 -12 c5 -8 1 -16
-8 -16 -9 0 -13 8 -8 16 2 3 5 5 8 5 3 0 6 -2 8 -5z m374 -24 c5 -8 1 -16 -8
-16 -9 0 -13 8 -8 16 2 3 5 5 8 5 3 0 6 -2 8 -5z"/>
</g>
</svg>
