<?xml version="1.0" standalone="no"?>
<!DOCTYPE svg PUBLIC "-//W3C//DTD SVG 20010904//EN"
 "http://www.w3.org/TR/2001/REC-SVG-20010904/DTD/svg10.dtd">
<svg version="1.0" xmlns="http://www.w3.org/2000/svg"
 width="1100.000000pt" height="2850.000000pt" viewBox="0 0 1100.000000 2850.000000"
 preserveAspectRatio="xMidYMid meet">
<metadata>
Created by potrace 1.15, written by Peter Selinger 2001-2017
</metadata>
<g transform="translate(0.000000,2850.000000) scale(0.500000,-0.500000)"
fill="#000000" stroke="none">
<path d="M334 3812 c-3 -3 -4 -6 -3 -20 0 -13 -1 -16 -3 -16 -2 0 1 -1 5 -3
12 -4 17 -11 17 -24 0 -10 -1 -12 -6 -17 -13 -13 -40 -5 -40 12 0 3 -1 9 -3
14 -1 4 -2 8 -2 9 2 1 -3 13 -5 13 -1 0 -2 -1 -2 -2 -1 -1 -7 -3 -15 -4 -14
-1 -15 -2 -19 -12 -3 -9 -3 -65 0 -74 5 -14 21 -28 37 -31 3 0 10 -3 16 -6 14
-6 27 -8 42 -5 24 5 33 0 33 -17 0 -17 -9 -22 -33 -17 -12 2 -30 0 -39 -6 -4
-2 -14 -7 -23 -10 -28 -12 -33 -20 -35 -55 -1 -33 5 -45 24 -48 5 -1 11 -2 12
-3 2 -1 4 -1 5 0 2 3 9 2 14 -2 6 -5 4 -22 -3 -29 -5 -5 -7 -5 -26 -6 -24 -2
-36 -6 -36 -14 0 -3 -1 -5 -2 -5 -3 0 -3 -25 0 -27 2 -2 3 -7 3 -18 0 -14 0
-16 -6 -20 -4 -4 -7 -5 -18 -5 -11 0 -14 1 -18 5 -6 4 -6 6 -6 20 0 12 1 16 3
17 3 2 3 5 2 16 -1 14 -5 22 -11 22 -2 0 -3 1 -3 2 0 1 -17 2 -47 1 -51 -1
-53 -1 -53 -3 0 -1 -1 -2 -3 -2 -4 0 -14 -12 -18 -21 -5 -11 -5 -231 0 -242 4
-9 14 -21 18 -21 2 0 3 -1 3 -2 0 -2 0 -2 24 -3 18 -1 35 1 33 5 -1 1 0 2 1 2
1 0 2 1 1 2 -1 1 0 2 1 2 3 1 4 28 2 28 -1 0 -4 1 -5 3 -2 1 -9 6 -14 11 -13
10 -17 17 -18 30 0 19 9 29 28 29 14 0 19 -4 30 -21 l10 -14 14 0 15 0 10 10
c12 12 12 12 50 1 28 -8 32 -11 25 -26 -4 -7 -6 -9 -15 -12 -5 -2 -12 -3 -14
-4 -3 0 -11 -2 -17 -4 l-13 -4 0 -15 c0 -16 2 -18 20 -31 8 -5 12 -14 15 -32
2 -9 -11 -16 -32 -18 -20 -2 -34 -9 -41 -20 -5 -8 -14 -39 -19 -64 -4 -21 -9
-38 -13 -49 -3 -5 -10 -25 -16 -45 -15 -45 -25 -71 -42 -114 -15 -37 -17 -46
-14 -71 3 -18 0 -26 -10 -35 -5 -4 -10 -7 -11 -7 -2 0 -22 -14 -25 -19 -3 -3
-9 -14 -15 -24 -1 -2 -5 -9 -9 -15 -4 -6 -10 -17 -12 -24 -5 -14 -4 -24 4 -40
6 -12 13 -28 25 -56 11 -25 13 -28 27 -42 24 -25 28 -34 29 -78 0 -23 1 -29 6
-44 8 -23 10 -26 29 -26 l16 -1 6 10 c15 26 49 101 51 114 1 3 5 16 9 28 12
30 12 31 9 38 -3 7 -15 13 -24 13 -2 0 -8 0 -13 0 -4 0 -10 0 -12 1 -4 1 -21
23 -18 23 1 0 2 2 2 4 0 2 1 4 1 4 3 -1 10 2 13 5 3 3 19 4 24 1 10 -5 40 -2
45 5 5 7 20 10 27 7 9 -5 14 -15 17 -36 3 -24 8 -37 16 -41 10 -4 22 -7 36 -7
17 0 21 -2 26 -11 6 -12 5 -27 -4 -40 -12 -18 -18 -38 -13 -44 2 -2 3 -4 2 -5
0 0 1 -6 2 -11 2 -10 2 -13 -1 -28 -2 -8 -8 -19 -16 -26 -8 -8 -23 -8 -31 0
-9 9 -5 25 11 42 1 2 4 7 6 12 2 6 4 12 6 15 4 8 0 33 -7 42 -4 6 -7 8 -16 10
-7 1 -14 2 -17 1 -9 -2 -21 -13 -26 -24 -5 -11 -5 -11 -5 -73 0 -49 1 -64 3
-69 3 -7 9 -13 16 -14 2 0 8 -2 12 -3 5 -1 9 -1 9 0 1 1 9 4 19 7 10 3 22 7
27 10 10 4 27 3 35 -4 10 -8 11 -32 1 -41 -2 -3 -7 -5 -11 -6 -10 -2 -71 -3
-71 0 0 1 -4 1 -8 0 -5 -1 -11 -3 -12 -3 -13 -3 -19 -11 -17 -24 2 -11 6 -17
17 -27 19 -16 20 -17 20 -29 0 -12 0 -13 -21 -30 -5 -5 -11 -12 -14 -18 l-5
-11 0 -84 c0 -72 0 -85 3 -91 4 -9 14 -21 18 -21 2 0 3 -1 3 -2 0 -2 1 -2 86
-4 54 -1 83 0 84 1 4 2 11 13 9 13 -2 0 7 16 11 18 2 1 4 3 3 4 -1 1 1 2 3 2
3 0 4 0 1 6 -3 6 -8 8 -10 4 0 -2 -1 -2 -1 1 0 4 8 4 11 0 2 -3 3 -3 3 -1 -1
2 1 3 6 3 6 1 14 7 14 10 0 1 2 3 4 5 1 2 6 11 10 19 l7 16 1 334 c1 184 2
336 3 338 1 3 2 4 3 4 1 -1 3 1 4 3 2 5 2 5 2 0 0 -3 1 -8 3 -11 4 -7 14 -36
21 -57 6 -18 12 -25 25 -27 11 -2 24 1 26 6 1 4 15 25 17 27 1 1 6 8 11 16 6
8 11 16 12 18 2 1 3 3 3 4 0 1 1 3 3 4 1 2 7 10 12 18 l10 16 5 -5 c2 -2 5 -7
7 -11 7 -14 13 -18 31 -19 6 0 8 1 11 6 6 10 12 31 12 40 -1 6 0 9 3 12 6 6
18 7 22 2 4 -5 5 -16 2 -21 -5 -9 -8 -29 -7 -38 2 -11 8 -17 18 -19 9 -2 29 0
31 2 7 11 40 9 45 -2 4 -9 5 -19 3 -27 -3 -15 -4 -25 -2 -27 0 -1 1 -2 1 -3 0
-2 8 -10 17 -16 13 -9 18 -20 13 -33 -2 -8 -4 -10 -12 -12 -10 -3 -19 -2 -26
5 -6 6 -6 8 -4 34 0 12 0 13 -5 17 -6 5 -25 11 -34 11 -4 0 -12 3 -20 6 -7 3
-13 6 -13 6 0 0 -2 0 -5 2 -2 1 -12 3 -22 3 -11 0 -19 2 -21 3 -4 3 -19 3 -31
-1 -13 -4 -19 -33 -10 -52 7 -15 15 -18 56 -19 8 0 14 -9 14 -21 0 -19 -8 -24
-35 -20 -19 2 -30 -1 -39 -11 -18 -18 -18 -51 -2 -59 9 -5 13 -5 32 -5 24 0
28 -3 29 -22 2 -23 -6 -29 -37 -31 -18 -1 -19 -1 -24 -7 -7 -7 -10 -17 -10
-31 0 -12 0 -11 -23 -33 -9 -9 -17 -25 -17 -36 0 -3 -1 -6 -2 -6 0 0 -1 -2 -1
-4 -1 -3 -2 -6 -4 -8 -1 -2 -5 -11 -9 -21 -17 -54 -42 -110 -64 -147 -6 -10
-6 -12 -5 -23 1 -15 1 -17 3 -16 0 1 2 -1 3 -4 1 -3 17 -12 49 -28 26 -13 49
-26 52 -27 3 -2 5 -4 6 -4 2 0 43 -25 54 -33 26 -18 33 -22 45 -20 9 1 13 3
19 8 4 4 8 9 8 10 0 2 1 4 3 5 3 3 32 62 41 84 4 8 8 19 10 23 2 4 7 16 11 26
4 10 8 19 10 21 4 4 7 1 7 -6 0 -3 1 -6 2 -6 1 -1 7 -17 10 -27 1 -3 4 -12 6
-20 2 -8 5 -15 5 -17 0 -2 3 -12 6 -23 3 -11 7 -29 9 -39 5 -23 14 -41 24 -52
12 -12 35 -17 51 -11 9 4 51 15 73 19 27 6 37 11 43 23 3 5 5 9 4 9 0 0 1 3 2
7 2 4 3 10 3 15 0 11 7 19 21 22 20 4 31 0 40 -16 16 -28 28 -32 68 -25 14 3
27 5 28 5 2 1 5 3 9 7 4 5 5 8 6 19 l0 13 -14 13 c-13 10 -40 26 -46 26 -4 0
-10 11 -14 25 -2 9 -8 23 -12 32 -12 26 -11 42 5 48 11 5 31 -1 31 -9 0 -2 1
-5 3 -6 1 -1 3 -5 4 -8 1 -4 12 -23 15 -26 1 -1 5 -6 10 -13 8 -11 23 -25 26
-25 4 0 24 -14 26 -18 2 -3 2 -9 1 -18 -2 -24 -2 -31 4 -39 9 -12 34 -6 43 10
7 13 8 21 6 45 -3 35 -5 39 -35 66 -5 5 -7 8 -7 14 0 6 -3 21 -5 27 0 1 -1 4
-2 7 -2 9 -15 14 -39 16 -10 1 -25 4 -32 6 -7 2 -14 5 -16 5 -2 0 -3 1 -3 1 0
0 -2 1 -5 1 -3 1 -5 2 -6 3 -1 1 -3 1 -5 1 -2 0 -5 -1 -6 -1 -1 0 -1 -1 0 -2
1 -1 1 -2 0 -2 -6 1 -7 -1 -8 -10 0 -10 0 -10 -1 3 0 14 -1 16 -10 21 -2 1 -4
3 -4 5 0 5 -9 11 -19 12 -6 1 -11 2 -13 2 -2 0 -4 -1 -6 -2 -4 -4 -13 -4 -18
1 -5 5 -5 15 0 20 5 5 18 6 19 1 1 -2 2 -2 3 -2 2 1 5 2 8 2 13 2 21 7 20 14
0 0 1 1 2 1 1 0 3 5 4 11 3 13 8 19 14 19 5 0 18 6 18 8 0 1 1 2 3 2 6 0 12
23 9 35 -3 8 0 21 5 26 8 10 27 10 54 2 21 -6 27 -20 15 -36 -3 -4 -7 -10 -9
-12 -2 -3 -5 -11 -8 -18 -5 -14 -5 -21 1 -30 0 -1 1 -3 1 -5 1 -5 12 -14 20
-17 7 -3 12 -3 22 -2 6 1 13 1 15 1 1 1 2 1 2 2 0 1 1 2 3 2 3 0 13 10 13 14
0 2 0 2 2 1 2 -4 16 6 16 11 0 2 1 2 2 -1 1 -2 2 -3 2 -2 0 1 1 1 2 0 1 -3 28
-4 30 -2 3 6 15 9 31 10 22 1 32 4 44 15 7 7 14 11 24 15 15 5 24 9 41 22 18
12 38 7 38 -11 0 -10 -5 -16 -18 -24 -12 -7 -18 -12 -26 -22 -13 -16 -15 -18
-24 -20 -4 -1 -10 -2 -13 -1 -6 2 -27 -4 -37 -10 -4 -2 -10 -9 -14 -15 -3 -5
-12 -15 -19 -22 l-13 -12 0 -14 c0 -13 1 -15 7 -20 3 -3 8 -8 12 -11 5 -5 7
-13 4 -16 -1 -1 -2 -2 -2 -3 -1 -3 -4 -12 -4 -12 -1 0 -4 2 -7 4 -10 7 -19 9
-32 8 -14 -2 -17 -4 -21 -13 -7 -16 -5 -33 7 -64 6 -14 9 -20 19 -37 5 -7 21
-25 33 -35 12 -9 50 -26 69 -31 38 -8 53 -9 155 -10 103 0 102 0 118 14 4 5 8
10 8 11 0 1 3 5 10 12 8 8 24 6 37 -6 6 -5 23 -10 32 -8 8 1 34 20 45 32 13
14 20 22 20 24 0 1 1 3 3 5 5 5 22 42 28 58 6 17 14 51 16 64 1 5 2 12 3 15 3
13 -11 41 -21 41 -2 0 -3 1 -3 2 -1 1 -10 5 -22 9 -12 3 -32 11 -46 15 -76 28
-79 31 -37 47 13 5 24 10 26 12 2 2 4 3 5 3 4 0 13 24 12 36 0 5 -9 34 -14 43
-2 4 -6 17 -9 27 -6 25 -10 33 -21 43 -9 8 -9 8 -5 12 5 5 28 11 36 9 0 0 1 1
1 2 0 1 1 2 3 2 4 0 14 12 18 21 3 8 3 16 2 65 0 32 -1 67 -1 80 1 49 1 107 0
113 -1 8 -5 9 -23 11 -12 1 -15 0 -18 -2 -9 -9 -25 -1 -25 11 0 5 7 20 10 22
1 1 3 3 4 6 1 2 3 5 4 7 1 2 4 8 7 14 5 13 11 19 24 27 6 3 6 3 5 19 0 15 -1
16 -5 17 -3 1 -5 2 -5 3 0 2 -8 3 -22 3 -9 0 -14 -2 -31 -10 -14 -6 -23 -9
-28 -9 -5 0 -14 3 -28 9 l-20 10 -78 0 -78 0 -6 6 c-8 8 -8 12 0 20 l6 6 156
0 c153 0 167 0 167 3 0 1 1 2 3 2 4 0 14 12 18 21 5 11 5 139 0 150 -4 9 -14
21 -18 21 -2 0 -3 1 -3 2 0 2 -2 2 -75 3 l-70 1 -10 -5 c-10 -5 -11 -6 -19
-22 -9 -18 -12 -21 -21 -21 -5 0 -8 2 -14 8 -31 33 -29 31 -44 36 -12 4 -18 4
-54 4 -23 0 -43 -1 -46 -2 -6 -2 -17 -13 -17 -17 0 -1 -1 -4 -1 -6 -1 -5 -1
-13 -1 -26 1 -19 -5 -27 -24 -30 -12 -2 -20 -4 -40 -13 -14 -6 -20 -7 -33 -6
-2 0 -7 4 -11 8 -8 8 -8 9 -7 17 1 5 2 9 3 9 1 0 2 1 2 3 0 5 7 9 29 16 l22 7
-1 16 c0 15 -1 15 -6 19 -4 2 -13 4 -21 5 -18 2 -25 7 -29 19 -2 4 -4 9 -4 9
-1 1 0 3 3 6 5 5 8 5 33 6 32 2 32 2 32 4 0 1 1 2 3 2 4 0 14 12 18 20 1 5 3
15 3 24 0 11 1 19 3 22 2 3 3 4 1 3 -2 -1 -2 -1 -1 1 1 1 3 2 4 1 2 0 3 1 4 4
0 2 1 1 1 -3 1 -21 14 -48 26 -54 15 -7 22 -6 65 9 22 7 44 14 49 15 4 2 8 4
8 5 0 5 10 -11 13 -21 4 -11 15 -26 20 -26 2 0 3 -1 3 -2 0 -3 11 -3 90 -3 79
0 90 0 90 3 0 1 1 2 3 2 9 0 22 25 20 38 -2 12 -9 17 -24 17 -7 -1 -12 0 -13
2 -1 1 -2 0 -2 -2 0 -9 -24 -15 -36 -10 -14 5 -20 20 -16 36 5 18 24 25 45 16
5 -2 7 -4 7 -7 0 -3 1 -4 2 -3 1 2 6 3 14 2 11 0 13 1 16 5 5 6 4 12 -5 35 -4
9 -7 20 -7 23 0 6 5 22 8 24 1 1 3 4 4 7 7 13 8 27 8 76 -1 61 2 53 -44 101
-19 19 -30 23 -75 23 -27 0 -36 -3 -49 -16 -13 -12 -10 -27 9 -47 11 -11 11
-12 11 -23 0 -7 -1 -15 -3 -18 -5 -9 -9 -30 -9 -43 0 -13 -3 -20 -13 -33 -8
-10 -15 -21 -16 -24 -2 -9 -15 -27 -19 -27 -2 0 -18 8 -23 12 -8 5 -18 32 -17
41 1 5 10 17 13 17 5 0 36 16 39 20 1 2 3 7 3 11 1 5 2 9 2 9 1 1 0 8 -2 14
-2 7 -3 19 -4 26 0 7 -2 15 -3 18 -3 9 -15 20 -23 21 -4 1 -15 13 -16 17 -1 2
-2 4 -3 4 -1 0 -2 1 -2 3 0 3 -8 11 -12 11 -1 0 -2 1 -2 2 0 3 -17 6 -41 6
-23 0 -28 -1 -46 -6 -25 -7 -29 -7 -55 0 -19 6 -22 6 -45 6 -32 -1 -38 -5 -51
-31 l-9 -18 -12 -4 c-7 -2 -21 -6 -31 -9 -11 -3 -21 -6 -22 -6 -4 1 -8 6 -8
11 0 6 6 17 9 17 1 0 2 4 1 15 0 19 -6 26 -16 23 -17 -5 -23 -11 -29 -28 -2
-8 -2 -10 1 -15 1 -3 3 -7 2 -8 0 -1 1 -1 2 0 1 1 8 1 15 2 13 0 13 0 13 -5 0
-5 0 -5 -13 -5 -7 1 -14 1 -15 2 -1 1 -2 1 -2 0 1 -2 -2 -10 -6 -18 -1 -2 -2
-4 -1 -5 0 0 1 -4 2 -8 1 -11 3 -14 11 -24 18 -22 18 -34 2 -54 -4 -4 -7 -8
-8 -9 -6 -8 -8 -23 -8 -63 0 -34 -1 -41 -4 -46 -1 -3 -4 -6 -4 -6 -1 0 -2 -2
-2 -3 0 -2 -1 -3 -1 -2 -1 2 -14 2 -16 0 -1 0 -4 2 -7 5 l-6 6 0 126 c0 110 0
126 -3 133 -4 9 -14 21 -18 21 -2 0 -3 1 -3 2 0 3 -14 3 -167 3 l-156 0 -8 -5
c-7 -3 -21 -16 -27 -26 -8 -11 -34 -11 -42 0 -6 10 -20 23 -27 26 -8 5 -9 5
-55 5 -48 0 -58 -1 -58 -3 0 -1 -1 -2 -3 -2 -1 0 -6 -4 -10 -8 -9 -11 -10 -24
-1 -33 3 -3 6 -6 7 -6 1 0 7 -2 12 -4 6 -1 11 -2 12 -1 1 2 17 1 23 -1 20 -9
20 -45 0 -54 -6 -2 -22 -3 -23 -1 -1 1 -6 0 -12 -1 -5 -2 -11 -4 -12 -4 -1 0
-4 -2 -7 -5 -9 -10 -10 -14 -10 -72 0 -54 0 -54 5 -65 3 -5 7 -11 10 -13 2 -2
5 -5 6 -6 2 -1 7 -4 13 -7 12 -7 17 -14 17 -28 0 -12 -5 -21 -12 -25 -3 -2 -8
-4 -11 -6 -3 -2 -7 -4 -9 -4 -3 0 -3 0 -1 -2 2 -1 2 -5 2 -16 -1 -8 0 -14 1
-14 1 0 1 -1 0 -2 -3 -5 24 -6 93 -5 74 1 76 1 76 3 0 1 1 2 3 2 4 0 14 12 19
23 2 5 5 9 7 9 2 0 3 1 2 2 -1 1 0 2 1 2 1 0 2 2 3 4 0 2 1 1 1 -2 0 -13 18
-27 35 -28 8 -1 89 25 91 28 1 3 12 -11 15 -18 4 -8 15 -20 18 -20 2 0 3 -1 3
-2 0 -1 1 -2 2 -2 0 1 4 0 8 -1 20 -4 36 11 36 35 0 3 0 9 0 14 0 12 6 18 19
18 13 0 19 -6 19 -19 0 -5 -1 -10 -2 -12 -4 -5 -12 -29 -12 -37 0 -7 6 -26 9
-28 0 -1 -1 -3 -4 -6 l-5 -5 -86 -1 c-102 -1 -97 0 -107 -26 -3 -7 -5 -16 -5
-19 0 -7 -7 -17 -12 -17 -1 0 -8 -3 -15 -7 -13 -8 -14 -10 -26 -37 -4 -12 -12
-15 -32 -14 -2 0 -6 3 -9 6 -5 5 -6 7 -6 18 0 14 4 20 18 25 6 2 14 5 19 8 5
3 9 4 9 4 1 0 4 5 7 11 5 11 6 12 3 20 -4 13 -10 20 -19 24 -9 4 -13 4 -83 3
-78 -1 -80 -1 -80 -3 0 -1 -1 -2 -3 -2 -4 0 -17 -15 -18 -23 -3 -15 9 -34 24
-41 6 -3 13 -12 13 -17 0 -4 -7 -15 -9 -15 -6 0 -21 -15 -26 -25 -5 -10 -5
-11 -5 -56 0 -46 -1 -54 -8 -59 -1 -1 -2 -3 -3 -5 0 -4 -1 -4 -1 1 0 2 -1 4
-2 4 -1 0 -4 6 -7 13 -8 20 -24 44 -39 59 -13 13 -13 14 -22 38 -5 14 -10 26
-11 28 -1 2 -4 6 -7 11 -4 8 -4 7 -16 22 -11 13 -18 24 -18 28 0 6 -10 10 -24
9 -13 0 -14 -1 -21 -7 -8 -8 -17 -9 -23 -3 -4 4 -5 12 -2 18 2 4 16 10 24 10
6 0 11 6 10 12 -1 0 0 5 2 9 2 6 2 14 1 30 l-2 22 6 6 6 6 49 0 c50 0 60 1 60
3 0 1 1 2 3 2 4 0 14 12 18 21 2 6 3 15 3 42 0 46 0 47 -32 76 -9 9 -9 23 0
32 28 26 33 34 32 56 0 28 -10 46 -29 55 l-14 7 -45 0 -45 0 -6 6 -6 6 0 158
c0 120 0 160 -2 167 -1 4 -2 8 -1 8 0 0 -3 4 -7 8 -4 4 -9 8 -10 8 -2 0 -3 1
-3 2 0 2 -2 2 -50 3 -110 2 -110 2 -114 -1z m137 -180 c10 -9 3 -26 -10 -26
-8 0 -15 7 -15 15 0 13 16 20 25 11z m-30 -132 c10 -9 3 -26 -10 -26 -8 0 -15
7 -15 15 0 13 16 20 25 11z m781 -41 c3 -3 4 -7 4 -14 0 -13 -6 -19 -19 -19
-13 0 -19 6 -19 19 0 7 1 11 4 14 7 8 23 8 30 0z m-336 -96 c5 -3 10 -7 13 -9
2 -2 6 -5 9 -6 7 -3 9 -7 6 -12 -1 -2 -1 -4 -1 -5 3 -2 -27 -1 -36 2 -17 5
-25 21 -15 31 5 5 14 5 24 -1z m-96 -8 c21 -9 20 -45 -2 -54 -10 -5 -28 -1
-34 6 -9 10 -9 32 0 42 7 8 24 11 36 6z m249 -19 c6 -5 6 -6 5 -16 -1 -11 -12
-32 -12 -24 0 2 -4 5 -8 8 -4 3 -9 9 -11 13 -1 4 -5 9 -7 11 -2 2 -3 4 -1 4 1
0 5 2 8 5 8 7 19 7 26 -1z m464 -34 c3 -7 4 -15 1 -20 -3 -6 -27 -5 -33 1 -6
5 -6 14 -1 20 4 4 7 5 17 5 12 0 13 -1 16 -6z m261 -36 c7 -7 3 -19 -8 -19
-10 0 -15 11 -9 21 4 5 11 4 17 -2z m-428 -70 c12 -4 16 -10 16 -21 0 -13 -6
-19 -19 -19 -18 0 -25 15 -16 34 4 9 7 10 19 6z m-990 -29 l-5 -5 -4 4 -5 5 4
4 5 5 4 -4 5 -5 -4 -4z m-12 -74 c5 -6 4 -22 -2 -27 -6 -6 -19 -6 -27 -1 -4 2
-15 25 -13 26 1 0 3 1 6 3 11 6 28 6 36 -1z m969 -13 c2 -1 4 -6 5 -11 6 -25
12 -39 19 -47 6 -6 23 -10 44 -10 19 0 19 0 25 -6 4 -3 7 -6 8 -6 4 0 2 -14
-3 -22 -9 -14 -22 -16 -44 -6 -14 7 -15 7 -39 7 -29 -1 -31 0 -38 14 -8 15
-14 21 -29 28 -8 4 -16 7 -18 7 -2 0 -6 3 -9 6 -5 5 -6 7 -6 18 0 21 5 24 50
30 8 1 15 3 16 3 1 1 16 -3 19 -5z m-160 -71 c3 -3 3 -3 0 -6 -4 -5 -11 1 -7
6 4 4 4 4 7 0z m-727 -11 c5 -5 5 -13 1 -16 -2 -1 -3 -3 -3 -4 0 -2 -3 -6 -6
-9 -3 -4 -6 -6 -6 -6 0 1 -1 1 -2 -1 -2 -1 -3 -7 -4 -13 -1 -6 -2 -12 -3 -13
-1 0 -2 -2 -3 -4 -2 -9 -17 -12 -23 -4 -6 10 -3 19 13 34 5 5 9 10 9 10 -1 1
0 2 1 2 1 0 2 1 2 2 -2 10 8 26 16 25 3 0 7 -2 8 -3z m819 -34 c8 -8 5 -22 -9
-40 -4 -6 -5 -9 -5 -17 0 -10 6 -27 9 -27 1 0 2 -2 2 -5 0 -4 1 -5 1 -4 1 1 6
2 13 1 14 -1 33 3 35 7 1 1 9 2 21 2 19 0 19 0 25 -6 8 -8 8 -13 0 -19 -6 -5
-8 -6 -25 -6 -14 -1 -20 0 -22 2 -4 4 -20 2 -33 -4 -2 -1 -6 -2 -9 -2 -3 -1
-6 -2 -8 -3 -1 -2 -6 -3 -10 -3 -12 0 -17 6 -19 23 0 8 -3 21 -5 30 -6 22 -6
28 4 48 12 26 24 33 35 23z m540 -8 c7 -6 7 -19 1 -25 -6 -7 -19 -7 -25 -1 -7
6 -7 19 -1 25 6 7 19 7 25 1z m-1239 -10 c1 0 5 -3 8 -6 5 -5 6 -7 6 -18 0
-11 -1 -13 -6 -18 -6 -6 -7 -6 -18 -6 -11 0 -12 0 -18 6 -5 5 -6 7 -6 17 0 14
3 20 12 24 5 2 8 2 22 1z m1021 -6 c5 -6 4 -26 -1 -31 -4 -3 -60 -17 -66 -17
-1 1 -4 3 -6 5 -9 8 -3 16 24 34 11 8 23 15 26 15 8 2 19 -2 23 -6z m-624 -14
c5 -2 14 -10 21 -18 15 -17 30 -26 42 -27 5 0 9 -2 13 -6 8 -8 8 -12 0 -20 -6
-6 -7 -6 -20 -5 -11 0 -17 -1 -35 -7 -24 -8 -29 -8 -35 -4 -6 4 -9 15 -6 22 1
4 1 6 -2 9 -6 7 -19 7 -37 -1 -6 -3 -13 -4 -25 -3 -2 0 -6 3 -9 6 -5 5 -6 7
-6 18 0 11 1 13 6 18 3 3 7 6 8 6 2 0 9 0 17 1 19 0 27 3 45 12 7 4 14 3 23
-1z m-477 -47 c3 -3 4 -7 4 -14 0 -19 -13 -27 -48 -29 -45 -1 -54 3 -54 23 0
9 1 12 5 16 5 5 6 5 31 5 15 0 32 1 37 3 13 3 20 2 25 -4z m147 -22 c4 -3 9
-7 10 -8 1 -1 7 -6 13 -11 14 -11 18 -16 18 -25 0 -9 -7 -14 -18 -12 -16 2
-54 17 -60 22 -9 9 -7 28 4 36 8 5 24 4 33 -2z m-301 -22 c21 -9 20 -45 -2
-54 -10 -5 -28 -1 -34 6 -9 10 -9 32 0 42 7 8 24 11 36 6z m220 -16 c0 -1 -1
-3 -4 -6 l-5 -5 -4 4 -5 5 4 4 c5 5 5 5 9 2 2 -2 4 -4 5 -4z m799 -18 c3 -3 3
-3 0 -6 -3 -3 -4 -3 -6 0 -3 2 -3 3 -1 6 4 4 4 4 7 0z m114 -28 c12 -7 14 -33
3 -43 -8 -9 -32 -9 -40 0 -9 8 -9 32 0 41 7 7 27 8 37 2z m-168 -4 c15 -6 16
-7 17 -23 0 -13 0 -14 -6 -20 -6 -6 -7 -6 -20 -6 -15 0 -41 12 -47 21 -5 8 -4
22 1 28 7 8 32 8 55 0z m524 -15 c10 -9 3 -26 -10 -26 -8 0 -15 7 -15 15 0 13
16 20 25 11z m-988 -5 c3 -3 3 -3 0 -6 -4 -5 -11 1 -7 6 4 4 4 4 7 0z m851 -3
c2 -1 8 -8 13 -16 6 -7 13 -16 17 -19 15 -14 18 -28 9 -37 -3 -3 -6 -4 -9 -3
-2 0 -4 0 -4 -1 0 -2 -8 -4 -20 -5 -4 -1 -8 -2 -9 -3 -2 -2 -3 -2 -3 0 0 1 -1
1 -3 -1 -4 -3 -4 -6 0 -9 2 -2 2 -3 0 -8 -2 -3 -3 -8 -3 -11 1 -10 -8 -16 -26
-17 -8 -1 -14 0 -14 0 0 1 -3 4 -6 6 -4 3 -7 7 -8 9 -1 5 -6 15 -8 15 -1 0 -2
1 -2 3 0 2 -3 3 -8 4 -13 3 -16 2 -31 -5 -16 -7 -17 -7 -22 -1 -3 5 -3 5 0 10
5 5 9 8 15 8 2 1 5 2 6 3 1 2 2 2 2 1 0 -1 3 2 6 6 7 8 10 22 10 40 0 12 1 14
6 19 5 5 7 6 24 7 11 1 25 3 31 4 15 3 32 4 37 1z m-1436 -20 c5 -5 5 -11 0
-16 -10 -10 -27 5 -16 16 4 4 12 4 16 0z m714 -19 l-5 -5 -4 4 -5 5 4 4 5 5 4
-4 5 -5 -4 -4z m-740 -47 c6 0 12 -10 12 -20 0 -14 -6 -20 -20 -20 -14 0 -20
6 -20 19 0 5 1 11 2 13 3 5 12 10 19 9 2 0 5 -1 7 -1z m823 -22 c0 -9 -1 -11
-6 -17 l-6 -6 -20 1 c-19 0 -20 1 -25 6 -3 3 -5 6 -5 6 0 1 1 6 1 12 1 16 6
20 30 20 18 1 19 1 25 -5 5 -5 6 -7 6 -17z m312 17 c6 -6 6 -6 5 -19 -1 -8 -2
-15 -3 -16 -1 -2 -4 -7 -5 -13 -1 -5 -4 -14 -7 -19 -2 -5 -4 -11 -4 -14 -3
-13 -6 -19 -15 -22 -5 -2 -7 -3 -25 -5 -6 -1 -18 -4 -27 -7 -9 -3 -19 -6 -21
-6 -11 0 -17 15 -9 24 1 2 8 7 14 11 11 7 26 21 30 30 8 18 13 34 12 43 -1 5
0 8 5 13 6 6 6 6 25 6 18 0 19 0 25 -6z m460 -27 c4 -6 4 -24 -1 -30 -7 -9
-27 -9 -34 0 -5 6 -5 24 0 30 7 9 27 9 35 0z m-84 -47 c8 -8 7 -25 -1 -33 -5
-5 -7 -6 -17 -6 -16 0 -23 7 -23 22 0 21 5 26 23 24 11 -1 14 -2 18 -7z
m-1582 -4 c3 -2 7 -6 9 -9 5 -7 8 -17 4 -15 -1 1 -2 0 -2 -1 0 -1 -2 -2 -3 -2
-2 0 -6 -1 -8 -3 -12 -9 -29 0 -29 15 0 15 17 24 29 15z m314 -11 c2 -3 3 -8
3 -15 0 -11 -1 -13 -13 -22 -1 -2 -4 -4 -4 -6 -2 -3 -6 -3 -30 -3 -16 0 -24 7
-23 22 0 14 12 24 36 29 15 3 25 1 31 -5z m558 -1 c12 -12 3 -31 -13 -31 -11
0 -18 7 -18 18 0 11 7 18 18 18 6 0 9 -1 13 -5z m496 -21 c4 -6 4 -24 -1 -30
-7 -9 -27 -9 -34 0 -5 6 -5 24 0 30 7 9 27 9 35 0z m-392 1 c6 -6 51 -5 51 1
0 4 10 2 13 -2 6 -10 1 -18 -13 -19 -5 0 -9 -2 -10 -3 0 -1 -1 -2 -2 -1 -1 1
-2 0 -2 -1 0 -1 -1 -2 -2 -1 -3 1 -26 -19 -26 -23 0 -3 -24 -42 -28 -44 -5 -3
-25 -3 -30 0 -6 3 -10 13 -10 23 0 7 3 15 15 39 9 16 17 31 19 32 5 3 21 2 25
-1z m687 -25 c10 -9 8 -33 -4 -39 -7 -4 -22 -4 -27 0 -11 8 -11 33 0 41 10 7
23 6 31 -2z m-429 -30 c5 -4 7 -8 9 -20 5 -29 6 -66 1 -75 -1 -4 -2 -7 -1 -8
0 -1 0 -1 -1 0 -2 1 -3 0 -3 -3 0 -3 -1 -4 -1 -2 -2 5 -11 14 -14 14 -2 0 -3
1 -3 2 0 2 -2 2 -54 3 -45 1 -50 1 -64 -3 -8 -2 -17 -5 -19 -5 -8 -2 -24 -1
-30 3 -13 7 -22 39 -15 56 5 12 22 16 48 12 23 -3 29 -5 40 -16 14 -13 15 -14
27 -18 11 -4 11 -4 20 -1 5 2 10 5 12 7 4 4 13 30 11 31 -3 2 0 16 5 21 8 8
24 9 32 2z m-917 -6 c5 -5 5 -8 1 -14 -5 -6 -13 -5 -17 2 -3 5 -3 6 2 11 6 6
9 6 14 1z m506 -10 c2 -2 4 -6 4 -7 0 -11 20 -28 37 -30 4 -1 9 -3 11 -6 4 -4
4 -4 0 -16 -6 -19 -17 -35 -27 -38 l-6 -2 0 -20 c0 -19 0 -20 5 -21 3 0 4 0 3
2 -1 2 -1 2 2 0 2 -2 5 -4 8 -5 7 -4 17 -24 20 -46 2 -12 2 -17 -2 -21 -3 -4
-4 -4 -13 2 -8 5 -12 6 -20 6 -21 -1 -25 -6 -24 -31 0 -13 -1 -18 -4 -25 -5
-11 -23 -40 -32 -51 -7 -7 -20 -34 -28 -54 -3 -7 -8 -13 -8 -9 0 1 -1 2 -2 1
-2 -1 -2 -1 -2 0 1 1 0 5 -1 11 -3 13 2 30 14 43 3 2 4 7 6 15 0 3 2 10 4 16
7 28 10 79 5 98 -6 22 -3 31 11 46 4 3 8 9 9 12 2 4 3 5 5 5 1 -1 1 -1 1 0 -1
1 -1 3 0 4 1 2 2 3 1 3 0 0 0 3 1 7 1 5 1 8 -2 11 -2 3 -4 6 -4 7 0 3 -15 22
-22 28 -10 8 -14 15 -14 26 0 12 3 18 16 30 17 16 39 20 48 9z m638 -5 l-5 -5
-4 4 -5 5 4 4 5 5 4 -4 5 -5 -4 -4z m91 -43 c24 0 35 -3 34 -8 -1 -1 1 -2 4
-2 3 0 2 -1 -3 -2 -4 -1 -19 -7 -34 -13 l-28 -11 -4 5 c-8 8 -8 19 -1 26 3 3
7 6 7 6 1 -1 12 -1 25 -1z m-124 -9 c10 -4 17 -16 17 -31 0 -16 -7 -21 -26
-20 -13 1 -20 13 -21 33 0 19 10 25 30 18z m-401 -58 c5 -5 5 -16 0 -21 -9 -9
-24 -2 -24 10 0 12 15 18 24 11z m-115 -126 c8 -14 -9 -24 -17 -11 -4 7 -4 12
1 18 4 5 11 1 16 -7z m-331 1 c9 -8 9 -26 0 -34 -13 -13 -40 -5 -40 12 0 3 -1
7 -1 9 -1 11 9 19 25 19 9 0 11 -1 16 -6z m1048 -30 c5 -5 5 -14 0 -38 -3 -12
-12 -23 -25 -29 -8 -4 -18 -18 -20 -28 -1 -4 -2 -7 -3 -7 -1 0 -1 -2 -1 -4 2
-7 -6 -14 -15 -14 -9 0 -15 6 -17 17 -2 12 -7 23 -16 33 -4 5 -9 11 -11 13 -2
3 -4 8 -4 13 -2 13 3 19 23 27 9 4 17 6 18 7 1 0 8 1 15 3 11 2 23 4 35 5 1 1
5 2 8 3 8 4 8 4 13 -1z m-943 -80 c8 -8 8 -19 -1 -37 -13 -28 -23 -38 -39 -38
-13 0 -21 8 -22 22 0 18 25 57 37 59 10 2 19 0 25 -6z m-430 -37 c3 -2 6 -5 7
-7 4 -7 3 -27 -1 -33 -4 -6 -32 -20 -51 -25 -13 -3 -13 -3 -16 2 -5 6 -4 15 7
35 10 19 18 29 27 31 9 2 22 1 27 -3z m1079 -21 c0 -1 1 -2 3 -2 1 0 6 -3 11
-7 8 -7 8 -9 8 -18 0 -13 -6 -19 -19 -19 -13 0 -19 6 -19 19 0 5 1 11 3 13 1
3 3 7 4 11 1 5 9 8 9 3z m-488 -12 c5 -5 5 -15 0 -20 -9 -9 -24 -2 -24 10 0 8
6 14 14 14 3 0 8 -2 10 -4z m657 -48 c10 -9 3 -26 -10 -26 -8 0 -15 7 -15 15
0 13 16 20 25 11z m-1173 -53 c5 -4 13 -17 12 -18 -9 -7 -27 -9 -33 -3 -15 14
6 34 21 21z"/>
<path d="M790 3752 c-3 -1 -6 -1 -7 0 0 0 -1 0 -1 -2 0 -1 -2 -2 -4 -2 -4 0
-4 -1 -4 -9 1 -12 -2 -23 -5 -23 -4 0 3 -4 9 -6 4 -1 9 -4 13 -9 6 -7 6 -8 3
-13 -5 -9 -12 -8 -30 6 -7 6 -15 7 -40 9 -11 1 -26 6 -26 9 0 3 -23 -2 -28 -5
-11 -10 -12 -14 -12 -75 0 -46 1 -57 3 -63 4 -9 14 -21 18 -21 2 0 3 -1 3 -2
0 0 2 -2 6 -2 3 -1 130 -1 282 -1 152 0 279 0 283 1 3 0 5 2 5 2 0 1 1 2 3 2
4 0 14 12 18 21 4 11 5 103 0 114 -3 8 -11 19 -14 21 -1 1 -4 3 -5 4 -2 2 -4
4 -4 5 0 0 -2 3 -5 6 -3 3 -5 7 -6 9 -1 2 -2 4 -3 4 -1 0 -2 1 -2 3 0 3 -8 11
-12 11 -1 0 -2 1 -2 2 0 4 -18 6 -69 6 -66 0 -71 -1 -73 -20 0 -5 -1 -10 -3
-10 -1 -1 -1 -2 0 -2 2 0 -4 -6 -6 -6 -1 0 -3 -2 -5 -4 -2 -3 -4 -4 -15 -3
-14 1 -16 3 -28 21 -7 11 -11 15 -19 19 l-11 5 -101 0 c-56 0 -103 -1 -106 -2z
m400 -45 c2 -2 8 -15 12 -27 5 -13 10 -28 12 -34 9 -23 -4 -42 -27 -41 -20 1
-29 12 -29 37 0 23 -13 34 -40 34 -14 0 -16 0 -21 6 -8 7 -12 12 -10 12 1 0 1
1 -1 3 -2 3 0 7 6 8 2 0 4 0 4 1 0 1 4 1 10 0 17 -2 41 0 53 3 15 5 24 4 31
-2z m-452 -67 c5 -5 5 -15 0 -20 -9 -9 -24 -2 -24 10 0 8 6 14 14 14 3 0 8 -2
10 -4z m138 -26 c5 -5 5 -11 0 -16 -10 -10 -27 5 -16 16 4 4 12 4 16 0z"/>
<path d="M1334 3752 c-3 -1 -6 -1 -7 0 0 0 -1 0 -1 -2 0 -1 -1 -2 -3 -2 -4 0
-14 -12 -18 -21 -5 -11 -5 -147 0 -158 4 -9 14 -21 18 -21 2 0 3 -1 3 -2 0 -1
1 -1 3 -1 1 -1 5 -1 8 -1 3 0 14 2 24 4 21 6 20 6 48 -1 16 -4 24 -5 31 -4 5
1 9 1 10 1 1 0 1 1 2 2 1 0 3 2 6 3 3 2 10 9 16 17 11 15 14 31 14 58 -1 11 0
13 6 18 8 9 24 9 32 1 7 -7 8 -12 5 -37 -1 -12 -1 -14 3 -18 4 -4 6 -4 15 -4
6 1 12 2 13 3 1 3 11 5 21 6 14 1 21 -4 33 -24 8 -10 14 -18 18 -20 3 -1 5 -2
6 -3 3 -3 12 -3 87 -4 76 0 82 0 98 4 15 4 26 5 38 4 11 -1 37 10 37 16 0 5
23 32 28 32 2 0 11 16 13 25 4 12 4 38 0 50 -5 16 -13 24 -35 35 -15 7 -20 11
-28 21 -10 13 -19 20 -30 23 -4 1 -56 2 -136 2 -151 0 -144 1 -167 -21 -11
-10 -15 -12 -27 -12 -12 0 -16 2 -27 12 -21 20 -25 21 -95 21 -31 0 -59 -1
-62 -2z"/>
</g>
</svg>
