<?xml version="1.0" standalone="no"?>
<!DOCTYPE svg PUBLIC "-//W3C//DTD SVG 20010904//EN"
 "http://www.w3.org/TR/2001/REC-SVG-20010904/DTD/svg10.dtd">
<svg version="1.0" xmlns="http://www.w3.org/2000/svg"
 width="1000.000000pt" height="2850.000000pt" viewBox="0 0 1000.000000 2850.000000"
 preserveAspectRatio="xMidYMid meet">
<metadata>
Created by potrace 1.15, written by Peter Selinger 2001-2017
</metadata>
<g transform="translate(0.000000,2850.000000) scale(0.500000,-0.500000)"
fill="#000000" stroke="none">
<path d="M944 3827 c-13 -3 -14 -4 -39 -32 -7 -8 -18 -19 -24 -26 -7 -7 -13
-14 -15 -17 -5 -8 -8 -24 -8 -41 1 -14 0 -16 -5 -21 -7 -7 -16 -8 -28 -5 -9 3
-29 2 -38 -1 -3 -1 -12 -7 -20 -13 -16 -12 -20 -18 -27 -38 -7 -20 -6 -20 -35
-20 -21 0 -25 -1 -30 -4 -8 -5 -13 -8 -17 -10 -2 -1 -8 -5 -15 -9 -14 -9 -34
-20 -56 -31 -9 -4 -19 -10 -23 -13 -4 -3 -14 -8 -21 -11 -31 -11 -41 -18 -51
-40 -6 -13 -12 -21 -17 -21 -2 0 -11 2 -21 5 -10 3 -20 5 -24 5 -3 0 -22 -6
-42 -14 -93 -36 -189 -66 -300 -93 -37 -9 -45 -14 -48 -26 -3 -14 -2 -25 4
-29 2 -2 33 -42 39 -52 3 -5 7 -9 7 -10 2 -1 29 -43 41 -63 5 -9 12 -17 16
-19 8 -5 29 -5 38 -1 13 7 33 2 33 -8 0 -4 9 -21 14 -26 6 -6 25 -11 30 -8 3
2 4 1 9 -3 l5 -6 0 -120 c0 -129 0 -128 10 -137 4 -4 11 -7 25 -10 0 0 2 -1 3
-1 0 0 3 0 6 0 7 0 14 -6 14 -14 0 -8 -7 -14 -14 -14 -3 0 -6 0 -6 0 -1 0 -3
-1 -3 -1 -21 -5 -28 -9 -32 -20 -5 -11 -4 -136 0 -146 4 -9 14 -21 18 -21 2 0
3 -1 3 -2 0 0 2 -2 6 -2 3 -1 316 -1 695 -1 380 0 692 0 696 1 3 0 5 2 5 2 0
1 1 2 3 2 4 0 14 12 18 21 3 7 3 14 3 38 -1 28 -1 31 -9 54 l-7 23 7 24 8 23
1 158 0 158 5 5 c4 4 7 5 9 4 2 -1 13 -4 26 -8 39 -11 53 -6 73 25 8 12 32 45
40 55 2 2 8 9 13 16 23 28 54 64 76 87 l18 17 0 13 c0 12 0 13 -7 20 -4 3 -9
7 -13 7 -6 1 -22 -3 -37 -10 -10 -5 -24 -6 -31 -2 -2 1 -9 8 -15 15 -11 12
-25 22 -37 24 -2 0 -10 3 -19 5 -9 2 -18 4 -20 5 -15 3 -127 36 -163 48 -42
14 -130 47 -155 58 -3 1 -17 7 -30 13 -13 6 -38 17 -55 25 -29 14 -32 15 -40
14 -11 -2 -17 -5 -27 -14 -13 -12 -17 -9 -16 12 1 27 -4 36 -26 47 -13 6 -67
42 -83 55 -9 8 -14 13 -14 16 0 2 0 13 0 23 0 18 0 20 -5 26 -7 8 -2 6 -76 32
-10 3 -20 7 -22 8 -2 1 -12 5 -22 8 -40 14 -59 21 -70 25 -19 7 -43 15 -47 15
-2 0 -7 -1 -12 -3z m86 -309 c3 -1 8 -4 11 -7 4 -3 10 -9 14 -12 4 -3 11 -9
15 -12 4 -4 8 -7 9 -7 2 0 1 -2 -2 -5 l-5 -6 -51 -1 c-32 0 -52 1 -54 2 -1 1
-3 1 -4 1 0 -1 -2 0 -3 3 -2 2 -4 4 -6 4 -2 0 0 1 3 3 3 1 8 5 11 7 3 3 8 7
12 10 4 3 9 7 10 8 12 12 17 14 26 14 5 0 12 -1 14 -2z m241 -8 c7 -3 12 -13
12 -25 0 -19 -9 -28 -28 -28 -19 0 -28 9 -28 28 0 17 6 24 22 28 5 1 14 -1 22
-3z m-682 -7 c3 -5 3 -5 0 -10 -5 -6 -8 -6 -13 0 -5 5 -5 5 0 11 4 5 8 5 13
-1z m130 -6 c8 -5 9 -10 10 -31 1 -10 2 -25 4 -33 6 -29 4 -36 -16 -56 -13
-13 -19 -17 -27 -17 -15 0 -17 13 -7 47 4 14 3 24 -4 49 -8 26 -3 40 13 44 9
2 22 1 27 -3z m598 -111 c11 -10 3 -28 -11 -28 -9 0 -16 6 -16 16 0 14 17 22
27 12z m-349 -17 c3 -3 4 -7 4 -14 0 -13 -6 -19 -19 -19 -13 0 -19 6 -19 19 0
7 1 11 4 14 7 8 23 8 30 0z m580 -50 l-5 -5 -4 4 -5 5 4 4 5 5 4 -4 5 -5 -4
-4z m-773 -1 c4 -4 6 -8 7 -16 1 -6 3 -14 4 -17 2 -3 3 -7 3 -9 1 -5 12 -14
20 -17 7 -3 37 -3 269 -2 144 0 262 1 264 1 1 0 2 1 2 2 0 1 1 2 3 2 2 0 10 8
19 19 4 5 14 13 14 11 0 -1 7 -5 15 -9 7 -3 24 -11 37 -17 30 -15 42 -20 45
-20 5 0 -4 -8 -12 -10 -6 -2 -134 -2 -458 -2 -397 1 -449 1 -451 4 -1 2 -2 3
-3 3 -1 -1 -1 0 -1 1 0 0 -2 2 -4 2 -2 1 -2 2 2 2 2 0 14 5 27 11 12 6 26 12
31 14 4 2 8 5 8 6 0 1 1 1 3 0 1 -2 5 -3 8 -4 3 -1 9 -3 13 -6 5 -3 9 -5 10
-5 1 0 2 -1 2 -2 0 -2 0 -2 25 -3 15 -1 21 -1 28 2 8 3 19 12 20 17 0 2 1 6 3
9 1 3 3 11 4 17 3 16 8 20 25 20 10 0 14 -1 18 -4z m238 -271 c3 -3 3 -3 0 -6
-3 -3 -3 -3 -6 0 -3 2 -3 3 -1 6 4 4 4 4 7 0z m-154 -113 l0 -87 -6 -5 c-6 -5
-6 -5 -15 -2 -6 1 -10 3 -10 4 0 1 -1 2 -3 2 -2 0 -1 1 2 5 11 10 11 26 2 65
-2 7 -4 17 -5 21 -3 12 -20 67 -24 76 -3 8 -3 8 1 13 5 5 7 5 25 6 l21 1 6 -6
6 -6 0 -87z m313 92 c3 -3 5 -6 4 -6 -1 0 -1 -1 -1 -2 0 -4 -14 -51 -21 -75
-4 -11 -7 -23 -8 -26 -2 -8 -7 -22 -12 -35 -6 -15 -5 -30 3 -34 1 -1 1 -2 -1
-2 -2 0 -4 -2 -6 -4 -1 -4 -2 -4 -2 -2 0 2 -2 4 -5 5 -4 1 -5 2 -3 3 2 1 2 5
1 14 -1 7 -2 46 -3 86 l-1 73 6 6 c6 6 6 6 24 5 17 0 19 -1 25 -6z m-602 -2
c2 -1 5 -2 7 -2 4 0 4 0 0 -2 -5 -2 -11 -15 -11 -25 -1 -5 2 -19 13 -58 5 -16
15 -65 16 -78 1 -6 2 -11 3 -11 1 0 -1 -2 -4 -5 -4 -5 -7 -6 -22 -7 -17 -1
-17 -1 -23 5 l-6 6 0 87 0 87 5 4 c3 2 5 5 6 5 0 2 13 -3 16 -6z m864 -51 c0
1 2 0 4 -2 3 -3 3 -9 4 -51 1 -42 1 -48 5 -53 2 -4 5 -7 6 -7 2 0 3 -1 3 -2 0
-3 16 -6 33 -6 15 0 17 0 22 -5 6 -4 6 -6 6 -20 0 -14 0 -16 -6 -20 -4 -4 -7
-5 -18 -5 -13 0 -13 0 -23 9 -5 4 -10 9 -11 10 -1 1 -6 5 -11 8 -8 6 -10 6
-35 7 -14 0 -28 1 -30 1 -5 1 -16 10 -13 11 0 1 4 7 7 14 15 31 30 63 41 85 7
13 12 26 12 28 0 4 0 4 2 0 1 -2 2 -3 2 -2z m-952 -38 l-5 -5 -4 4 -5 5 4 4 5
5 4 -4 5 -5 -4 -4z m684 -113 c9 -5 14 -13 13 -20 -1 -2 -1 -5 1 -7 7 -9 6
-33 -3 -40 -12 -11 -34 -11 -43 0 -8 9 -9 31 -2 40 1 1 1 8 1 16 l-1 13 6 3
c7 3 15 1 28 -5z m-739 -83 c4 -4 5 -7 5 -13 0 -11 -7 -18 -18 -18 -11 0 -18
7 -18 18 0 11 7 18 18 18 6 0 9 -1 13 -5z"/>
<path d="M414 2614 c-3 -1 -6 -1 -7 0 0 0 -1 0 -1 -2 0 -1 -1 -2 -3 -2 -4 0
-14 -12 -18 -21 -3 -7 -3 -30 -3 -218 l1 -210 5 -11 c15 -31 15 -33 0 -64 l-5
-11 -1 -77 c0 -67 0 -78 3 -85 4 -9 14 -21 18 -21 2 0 3 -1 3 -2 0 -3 13 -3
133 -3 120 0 133 0 133 3 0 1 1 2 3 2 6 0 23 24 20 30 0 0 3 4 6 7 l6 6 246 0
246 0 9 5 c4 2 12 9 17 15 18 21 17 21 32 21 13 0 14 0 21 -8 6 -6 9 -13 13
-25 3 -9 6 -17 7 -18 1 -1 2 -3 2 -5 0 -5 13 -20 17 -20 2 0 3 -1 3 -2 0 -3
13 -3 140 -3 127 0 140 0 140 3 0 1 1 2 3 2 4 0 14 12 18 21 3 7 3 41 3 338
-1 327 -1 329 -5 332 -3 2 -8 3 -19 3 -11 -1 -14 0 -14 2 0 3 -5 -11 -7 -22
-1 -3 -3 -10 -5 -16 -2 -6 -5 -20 -7 -30 -5 -24 -8 -28 -22 -28 -12 0 -17 4
-25 23 -3 8 -7 16 -8 17 -4 7 -5 25 -2 31 3 6 3 22 1 29 -1 2 -2 3 -2 4 -1 3
-5 7 -8 10 -6 2 -1078 3 -1087 0z m946 -63 c3 -3 4 -7 4 -14 0 -13 -6 -19 -19
-19 -13 0 -19 6 -19 19 0 7 1 11 4 14 7 8 23 8 30 0z m-291 -18 c11 -6 14 -12
13 -28 -2 -16 -7 -21 -25 -21 -12 0 -14 1 -21 7 -10 9 -14 17 -15 30 -1 9 -1
11 3 15 4 4 6 4 20 3 12 0 18 -2 25 -6z m222 -134 l6 -6 -6 -6 -6 -6 -289 0
-289 0 -6 6 -6 6 6 6 6 6 289 0 289 0 6 -6z m-706 -160 c6 -4 6 -6 6 -20 0
-14 0 -16 -6 -20 -4 -4 -7 -5 -18 -5 -11 0 -14 1 -18 5 -6 4 -6 6 -6 20 0 14
0 16 6 20 4 4 7 5 18 5 11 0 14 -1 18 -5z m866 -39 c5 -5 6 -7 6 -16 0 -9 -1
-11 -7 -16 -5 -6 -7 -7 -16 -7 -9 0 -11 1 -16 7 -9 8 -9 23 -1 32 9 9 24 9 34
0z m-160 -35 l7 -7 -7 -6 -6 -7 -289 0 -289 0 -6 7 -7 6 7 7 6 6 289 0 289 0
6 -6z m-802 -14 c3 -3 3 -3 0 -6 -3 -3 -3 -3 -6 0 -3 2 -3 3 -1 6 4 4 4 4 7 0z
m1055 -49 c5 -5 6 -7 6 -17 0 -10 -1 -12 -6 -17 -5 -5 -7 -6 -17 -6 -10 0 -12
1 -17 6 -5 5 -6 7 -6 17 0 10 1 12 6 17 5 5 7 6 17 6 10 0 12 -1 17 -6z m-88
-119 l-5 -5 -4 4 -5 5 4 4 5 5 4 -4 5 -5 -4 -4z"/>
</g>
</svg>
