<?xml version="1.0" standalone="no"?>
<!DOCTYPE svg PUBLIC "-//W3C//DTD SVG 20010904//EN"
 "http://www.w3.org/TR/2001/REC-SVG-20010904/DTD/svg10.dtd">
<svg version="1.0" xmlns="http://www.w3.org/2000/svg"
 width="1000.000000pt" height="2850.000000pt" viewBox="0 0 1000.000000 2850.000000"
 preserveAspectRatio="xMidYMid meet">
<metadata>
Created by potrace 1.15, written by Peter Selinger 2001-2017
</metadata>
<g transform="translate(0.000000,2850.000000) scale(0.500000,-0.500000)"
fill="#000000" stroke="none">
<path d="M1032 3827 c-44 -10 -53 -14 -61 -24 -6 -7 -13 -27 -13 -35 0 -14
-23 -20 -34 -8 -22 26 -23 26 -33 29 -11 3 -12 3 -39 -3 -26 -6 -48 -13 -48
-16 0 -1 -1 -3 -3 -4 -3 -4 -7 -15 -7 -22 0 -6 5 -18 19 -46 l4 -10 -6 -5 -6
-5 -129 0 -129 0 -10 -5 c-9 -4 -21 -17 -21 -22 0 -1 -2 -4 -4 -7 -2 -3 -3 -6
-3 -6 1 -1 -2 -4 -5 -7 -5 -5 -8 -6 -16 -6 -8 0 -11 1 -16 6 -3 3 -6 6 -5 7 0
0 -1 3 -3 6 -2 3 -4 6 -4 7 0 5 -12 18 -21 22 -9 5 -13 5 -39 5 -32 0 -43 -2
-50 -10 -8 -7 -15 -26 -16 -37 0 -2 -3 -6 -6 -9 -5 -5 -7 -6 -17 -6 -10 0 -12
1 -17 6 -3 3 -6 7 -6 9 -1 11 -8 30 -16 37 -8 9 -18 10 -84 9 -62 -1 -64 -1
-64 -3 0 -1 -1 -2 -3 -2 -4 0 -14 -12 -18 -21 -5 -12 -5 -336 0 -348 4 -9 14
-21 18 -21 2 0 3 -1 3 -2 0 -2 1 -2 1 -2 1 1 4 1 7 0 4 -1 31 -2 60 -2 58 0
62 -1 62 -6 0 -2 2 -4 5 -5 3 0 2 -1 -3 -1 -3 0 -16 -3 -28 -6 -24 -7 -50 -13
-68 -17 -26 -6 -36 -16 -37 -35 0 -10 1 -13 11 -28 6 -9 11 -19 13 -21 1 -2 4
-7 6 -10 2 -3 5 -7 5 -8 1 -3 12 -21 20 -33 3 -5 8 -12 10 -16 10 -19 26 -24
76 -25 16 0 20 1 34 8 13 6 23 7 29 0 5 -5 7 -16 3 -23 -3 -6 -13 -10 -20 -8
-12 3 -37 -4 -47 -13 -7 -7 -7 -8 -7 -21 1 -16 5 -21 17 -23 10 -2 11 -1 54
12 32 10 35 10 41 6 6 -6 13 -32 10 -43 -2 -9 -7 -16 -12 -16 -2 0 -4 -1 -5
-1 -1 -1 -10 -2 -21 -2 -26 0 -33 -4 -44 -25 -8 -16 -9 -16 -22 -22 -29 -13
-29 -13 -39 -39 -6 -14 -8 -34 -4 -43 1 -2 2 -3 2 -4 0 -2 8 -12 10 -12 0 0 8
-5 16 -10 9 -6 20 -12 24 -14 4 -2 7 -4 5 -4 -1 0 -4 -2 -6 -4 -4 -5 -5 -5
-48 -6 -53 0 -116 -2 -119 -2 -2 0 -3 -1 -3 -2 0 -1 -1 -2 -3 -2 -4 0 -14 -12
-18 -21 -5 -11 -5 -179 0 -190 4 -9 14 -21 18 -21 2 0 3 -1 3 -2 0 0 2 -2 6
-2 5 -1 788 -1 842 0 14 0 198 0 410 -1 212 -1 388 -1 391 0 16 3 26 21 25 46
0 15 5 21 20 21 15 0 20 -6 20 -21 -1 -24 9 -43 23 -46 7 -2 20 4 25 12 5 8
10 25 8 30 -3 8 1 15 15 30 20 20 21 23 21 87 0 41 -1 51 -3 57 -4 9 -14 21
-18 21 -2 0 -3 1 -3 2 0 3 -13 2 -21 -1 -4 -2 -12 -8 -18 -13 -13 -13 -23 -18
-34 -17 -12 1 -17 4 -32 17 -22 19 -5 18 -223 18 -187 0 -206 -1 -206 -6 0 -1
-1 -2 -3 -2 -5 0 -14 -15 -22 -34 -4 -10 -11 -15 -23 -15 -12 0 -19 5 -23 15
-11 26 -15 31 -28 37 -10 5 -13 5 -41 5 l-31 -1 -6 6 c-6 6 -6 7 -7 31 l0 24
7 7 6 6 44 -1 c24 0 48 0 52 1 l9 1 -1 18 c0 18 0 18 5 19 4 0 3 0 -2 1 -9 0
-31 5 -38 9 -7 3 -11 13 -11 24 0 19 9 28 28 28 10 0 12 -1 45 -17 15 -6 24
-14 24 -20 1 -14 0 -19 -3 -22 -5 -6 -1 -29 6 -36 l5 -5 151 0 c147 0 161 0
161 3 0 1 1 2 3 2 4 0 14 12 18 21 2 6 3 16 3 50 0 47 -1 52 -14 76 -11 20 -9
40 4 47 8 4 26 3 35 -2 6 -4 9 -4 22 -4 17 1 20 3 29 19 4 6 10 16 14 23 12
19 10 33 -5 49 -12 12 -13 15 -13 28 0 10 1 12 6 17 3 3 7 6 9 6 11 1 17 0 26
-2 11 -4 24 -2 35 3 5 2 9 7 14 16 4 7 8 13 9 13 2 0 1 24 -2 30 -6 12 -12 15
-82 45 -9 4 -20 9 -24 11 -5 2 -11 4 -13 4 -4 0 -4 0 1 6 l6 5 64 1 c68 2 69
2 69 4 0 1 1 2 3 2 4 0 14 12 18 21 5 11 5 315 0 326 -4 9 -14 21 -18 21 -2 0
-3 1 -3 2 0 1 -1 2 -2 2 -2 0 -155 1 -341 2 l-338 1 -8 5 c-5 2 -8 5 -8 6 0 1
-1 4 -3 7 -2 3 -4 7 -4 9 0 5 -6 6 -22 6 -14 0 -18 -3 -23 -12 -4 -8 -9 -10
-20 -10 -12 0 -16 3 -22 15 -8 17 -15 22 -36 24 -7 1 -10 0 -14 -3 -9 -6 -12
-6 -16 0 -5 7 -5 21 1 27 4 4 7 5 16 5 10 0 38 6 46 10 1 1 7 3 12 5 15 7 22
16 22 31 0 8 -9 19 -20 25 -17 8 -23 8 -66 -2z m-20 -125 c5 -10 6 -35 1 -43
-8 -16 -40 -16 -48 0 -8 14 -3 36 8 41 11 4 32 10 34 9 1 0 3 -3 5 -7z m257
-77 c12 -7 14 -33 3 -43 -8 -9 -32 -9 -40 0 -9 8 -9 32 0 41 7 7 27 8 37 2z
m536 -10 c3 -3 3 -3 0 -6 -3 -3 -3 -3 -6 0 -3 2 -3 3 -1 6 4 4 4 4 7 0z
m-1080 -21 c5 -5 6 -7 6 -16 0 -9 -1 -11 -7 -16 -5 -6 -7 -7 -16 -7 -9 0 -11
1 -16 7 -9 8 -9 23 -1 32 9 9 24 9 34 0z m932 -1 c4 -4 5 -7 5 -13 0 -11 -7
-18 -18 -18 -11 0 -18 7 -18 18 0 11 7 18 18 18 6 0 9 -1 13 -5z m-1058 -10
c5 -8 1 -16 -8 -16 -9 0 -13 8 -8 16 2 3 5 5 8 5 3 0 6 -2 8 -5z m-249 -20
c16 -7 20 -37 7 -48 -12 -11 -34 -11 -43 0 -9 10 -9 32 0 42 7 8 24 11 36 6z
m1005 -59 c3 -5 5 -25 1 -27 -2 -1 1 -19 4 -27 4 -9 13 -14 21 -12 3 1 6 2 7
1 2 -2 18 11 21 17 13 26 18 30 32 30 12 0 17 -3 23 -14 10 -19 14 -23 23 -29
10 -6 10 -6 39 -6 l29 0 6 -6 6 -6 -1 -30 0 -30 -6 -7 c-3 -3 -6 -5 -6 -4 0 2
1 1 -57 21 -87 29 -151 49 -160 49 -6 0 -6 1 -1 2 4 1 4 1 -4 4 -5 1 -11 5
-14 8 -7 7 -7 7 -4 12 3 5 6 26 4 27 -4 2 -2 22 2 27 7 9 27 9 35 0z m-809 -7
c4 -4 6 -14 4 -20 -1 -4 3 -18 7 -26 7 -14 13 -15 61 -15 42 0 54 -2 54 -7 0
-2 1 -3 3 -3 1 0 0 -1 -2 -2 -17 -6 -103 -51 -109 -58 -3 -4 -18 -9 -34 -12
-16 -3 -72 -22 -95 -32 -3 -1 -5 0 -9 2 l-5 4 -1 49 -1 48 6 6 6 6 27 -1 c32
0 40 2 47 15 4 8 8 22 7 26 -2 6 0 16 4 20 7 8 23 8 30 0z m562 -5 c3 -1 10
-8 16 -15 6 -7 14 -14 16 -17 3 -3 10 -9 16 -13 12 -9 21 -21 18 -24 -1 -1 -7
-9 -12 -18 -12 -18 -31 -48 -47 -72 -10 -15 -26 -40 -33 -51 -4 -7 -3 -24 2
-33 5 -8 15 -13 52 -24 33 -11 51 -12 58 -5 5 4 4 18 -2 32 -10 27 6 46 32 40
11 -2 16 -7 18 -17 4 -17 -1 -29 -15 -35 -11 -5 -12 -6 -11 -22 0 -10 0 -14
-2 -14 -7 0 4 -6 22 -12 12 -4 25 -8 30 -10 9 -3 36 -13 38 -13 1 0 19 -7 25
-9 2 -1 27 -10 54 -20 66 -24 102 -39 143 -56 8 -4 17 -7 20 -7 2 -1 5 -2 5
-3 1 -1 4 -2 7 -2 4 0 5 0 1 -2 -2 -1 -3 -2 -2 -2 1 0 -1 -2 -4 -4 -6 -3 -21
-3 -185 -4 l-179 -1 -6 6 -6 6 1 45 c0 37 0 46 -3 53 -4 9 -14 21 -18 21 -2 0
-3 1 -3 2 0 3 -13 3 -140 3 -127 0 -140 0 -140 -3 0 -1 -1 -2 -3 -2 -4 0 -14
-12 -18 -21 -3 -7 -3 -16 -3 -53 l1 -45 -6 -6 -6 -6 -33 1 c-43 0 -54 -2 -64
-12 -5 -5 -8 -9 -8 -10 0 0 -4 -6 -10 -12 -9 -10 -10 -10 -20 -10 -23 0 -29
12 -20 43 1 4 1 13 1 20 -1 11 -2 15 -10 29 l-10 16 4 8 c4 8 10 12 38 26 21
11 35 19 59 32 9 5 19 10 22 12 3 2 14 8 24 14 10 6 22 13 27 16 4 2 16 10 26
16 9 6 25 16 36 23 21 13 21 14 21 34 -1 11 -1 14 -6 18 -8 8 -150 101 -153
101 -4 0 -4 1 0 1 1 1 3 2 3 3 0 1 3 3 7 5 6 3 21 3 135 3 139 0 136 0 147 11
6 7 13 21 14 31 3 17 22 24 39 14z m192 -124 c5 -5 5 -15 0 -20 -9 -9 -24 -2
-24 10 0 8 6 14 14 14 3 0 8 -2 10 -4z m398 0 c5 -5 5 -11 0 -16 -10 -10 -27
5 -16 16 4 4 12 4 16 0z m-294 -58 c5 -5 5 -15 0 -20 -9 -9 -24 -2 -24 10 0 8
6 14 14 14 3 0 8 -2 10 -4z m-1028 -8 c10 -10 -3 -24 -16 -18 -6 4 -8 6 -8 12
0 2 1 4 3 4 2 0 3 1 3 2 0 5 13 4 18 0z m165 -185 c4 -4 5 -7 5 -17 0 -21 5
-35 16 -44 17 -16 21 -29 13 -37 -7 -7 -12 -6 -62 12 -14 5 -18 11 -16 28 1
18 12 52 18 58 7 7 19 7 26 0z m530 -44 c4 -4 5 -7 5 -13 0 -8 -1 -9 -15 -23
-17 -16 -18 -19 -23 -44 -1 -7 -3 -11 -7 -14 -5 -5 -6 -5 -17 -5 -11 0 -12 0
-18 6 -5 5 -6 7 -6 18 0 14 3 19 16 25 4 2 8 5 8 6 0 0 1 1 3 1 2 0 15 11 15
14 1 3 1 5 5 13 1 4 3 8 3 9 0 5 10 12 18 12 6 0 9 -1 13 -5z m-429 -76 c7 -5
11 -13 11 -25 -1 -18 -10 -27 -28 -27 -19 0 -26 8 -28 31 -1 12 -1 13 4 19 6
6 7 6 20 6 10 0 17 -2 21 -4z m733 -21 c7 -6 7 -20 0 -26 -6 -6 -20 -5 -25 1
-5 6 -5 19 0 24 6 7 19 7 25 1z m-536 -53 c8 -2 25 -16 25 -21 0 -1 1 -2 2 -2
1 0 2 -1 1 -2 -1 -1 0 -3 2 -3 3 -2 3 -2 0 -4 -3 -2 -2 -3 6 -3 5 0 9 1 9 2 0
2 1 2 1 1 1 0 5 0 8 2 4 2 7 2 7 1 0 0 1 0 2 2 1 2 5 3 11 3 12 0 21 -5 38
-22 10 -10 22 -18 27 -18 1 0 2 -1 3 -2 1 -1 1 -1 0 0 -3 1 -4 -2 -3 -7 0 -1
-1 -2 -2 -2 -1 0 -4 -4 -6 -8 -2 -4 -6 -9 -9 -11 -7 -4 -21 -4 -30 0 -16 9
-44 38 -44 46 0 2 0 3 -1 3 -1 0 -2 2 -3 4 -1 4 -2 4 -16 3 -10 -1 -15 -2 -17
-4 -5 -7 -13 -11 -19 -11 -5 0 -5 -1 -1 -1 4 -1 4 -2 4 -16 -1 -10 0 -15 1
-16 2 0 3 0 4 2 0 1 1 -1 1 -4 0 -3 2 -8 6 -11 l5 -5 -1 -34 c0 -32 0 -34 6
-56 7 -25 6 -36 -2 -43 -9 -10 -33 -9 -41 1 -5 5 -8 20 -6 23 1 2 1 7 1 13 0
14 -6 26 -16 31 -8 4 -12 4 -113 4 l-104 0 -7 5 -7 6 5 5 c5 6 9 10 20 24 4 5
9 11 11 14 3 3 5 6 5 7 0 0 5 3 11 6 l10 5 83 0 c80 0 98 1 98 6 0 1 1 2 3 2
1 0 2 4 1 15 0 14 0 15 4 15 3 0 1 1 -3 2 -6 1 -9 2 -12 8 -4 8 -5 25 0 33 5
10 22 15 42 12z m213 -21 c5 -6 4 -19 -3 -32 -10 -17 -24 -23 -40 -15 -3 2 -9
3 -11 4 -3 0 -5 2 -5 5 0 2 0 4 1 3 0 -1 4 5 9 12 9 14 15 19 27 23 12 5 18 5
22 0z m-673 -1 c12 -2 18 -14 21 -41 2 -26 -5 -35 -20 -27 -8 4 -21 17 -26 27
-5 10 -5 25 -1 32 3 4 12 9 16 8 0 0 1 1 1 2 0 1 1 2 3 1 1 -1 4 -2 6 -2z
m746 -83 c10 -8 10 -34 0 -42 -8 -6 -29 -6 -36 1 -6 4 -6 6 -6 20 0 14 0 16 6
20 7 7 28 7 36 1z m-96 -147 c4 -4 5 -7 5 -13 0 -11 -7 -18 -18 -18 -11 0 -18
7 -18 18 0 11 7 18 18 18 6 0 9 -1 13 -5z m481 -8 c16 -7 20 -37 7 -48 -12
-11 -34 -11 -43 0 -9 10 -9 32 0 42 7 8 24 11 36 6z m-1242 -3 c5 -5 5 -15 0
-20 -9 -9 -24 -2 -24 10 0 8 6 14 14 14 3 0 8 -2 10 -4z m902 -22 c1 0 5 -3 8
-6 5 -5 6 -7 6 -18 0 -11 -1 -13 -6 -18 -6 -6 -7 -6 -18 -6 -11 0 -12 0 -18 6
-5 5 -6 7 -6 17 0 14 3 20 12 24 5 2 8 2 22 1z m89 -9 c5 -8 1 -16 -8 -16 -9
0 -13 8 -8 16 2 3 5 5 8 5 3 0 6 -2 8 -5z m-722 -4 c9 -5 12 -19 9 -32 -4 -16
-18 -22 -38 -16 -15 5 -15 5 -36 5 -19 0 -20 0 -23 5 -6 9 -1 15 19 21 10 3
22 8 27 12 5 4 12 7 16 8 8 2 21 0 26 -3z m380 -43 c10 -9 3 -26 -10 -26 -8 0
-15 7 -15 15 0 13 16 20 25 11z"/>
<path d="M716 3099 c0 -1 -1 -1 -1 0 -1 0 -2 -4 -2 -11 0 -6 1 -11 2 -11 0 -1
6 -1 13 -1 l12 0 0 10 c0 6 -1 10 -2 10 -1 0 -2 1 -2 3 0 1 -3 2 -10 2 -5 0
-10 -1 -10 -2z"/>
<path d="M365 2469 c-24 -9 -26 -12 -27 -36 0 -11 1 -15 3 -17 7 -6 0 -20 -10
-20 -3 0 -5 1 -5 3 0 1 0 1 -2 0 0 -1 -5 -3 -9 -4 -11 -2 -21 -8 -25 -17 -4
-7 -4 -22 -4 -235 0 -204 0 -229 3 -236 4 -9 14 -21 18 -21 2 0 3 -1 3 -2 0
-2 2 -2 69 -3 65 -1 78 0 92 6 14 7 27 10 33 10 7 0 27 -6 31 -9 2 -2 19 -7
21 -6 1 0 5 0 8 0 3 1 6 2 6 2 0 1 1 2 3 2 5 0 19 18 17 23 -1 1 15 16 17 16
1 0 9 3 18 7 20 8 27 8 48 -1 25 -10 31 -10 56 2 14 6 23 9 28 9 5 0 14 -3 28
-9 l20 -10 145 0 145 0 8 5 c9 5 21 18 21 21 0 2 3 5 7 8 8 6 19 7 23 2 1 -2
4 -3 5 -3 1 0 4 -3 7 -7 8 -12 13 -17 23 -22 l9 -5 117 0 c70 0 119 1 124 2
44 11 50 10 66 -15 7 -10 19 -18 32 -21 7 -2 37 -2 96 -1 89 1 91 1 91 3 0 1
1 2 3 2 4 0 14 12 18 21 3 6 3 20 3 104 0 66 -1 99 -2 103 -3 8 -14 20 -19 20
-2 0 -3 1 -3 2 0 2 -1 2 -1 1 -1 0 -3 0 -5 1 -2 1 -11 3 -19 3 -10 1 -18 3
-30 9 -9 4 -22 10 -29 12 -13 5 -22 11 -22 15 1 3 -2 16 -4 19 -2 1 -2 2 -1 2
2 0 -5 10 -9 14 -5 4 -18 10 -22 10 -12 0 -17 24 -8 33 6 6 13 6 37 1 11 -2
25 -4 32 -5 15 -1 20 -5 29 -22 10 -21 12 -23 25 -30 9 -5 15 -7 20 -7 4 1 7
2 7 2 0 1 1 2 3 2 5 0 16 12 19 20 1 4 2 39 2 112 0 92 0 107 -3 113 -4 9 -14
21 -18 21 -2 0 -3 1 -3 2 0 1 -1 2 -2 2 -2 0 -57 1 -124 1 -125 1 -132 1 -140
-7 -2 -2 -5 -4 -6 -4 -1 0 -2 -5 -3 -11 0 -7 -2 -12 -3 -13 -1 0 -3 -1 -5 -3
-7 -7 -10 -7 -18 0 -4 3 -9 10 -11 14 -5 11 -16 20 -25 23 -5 1 -37 2 -84 2
-95 0 -93 1 -104 -28 -3 -8 -7 -15 -9 -17 -3 -3 -4 -3 -8 2 -2 3 -5 10 -8 16
-5 15 -9 19 -19 24 -7 3 -17 3 -139 3 -108 -1 -132 -1 -136 -4 -10 -5 -23 -17
-32 -27 -7 -9 -10 -12 -19 -14 -10 -3 -11 -3 -16 0 -2 2 -6 8 -8 12 -8 17 -13
23 -24 28 l-11 5 -79 0 c-86 -1 -87 -1 -97 -12 -6 -6 -13 -24 -12 -32 0 -4 -2
-11 -5 -16 -10 -19 -15 -29 -16 -34 0 -3 -1 -7 -2 -8 -1 -2 1 -13 5 -22 0 -2
1 -4 1 -5 0 -1 4 -9 9 -17 8 -13 9 -16 9 -27 0 -22 -8 -29 -34 -27 -2 0 -6 3
-9 6 -6 6 -6 6 -6 23 1 22 -3 35 -13 49 -7 9 -8 14 -7 27 0 5 15 21 20 21 1 0
2 7 2 16 1 8 2 16 2 18 1 2 -1 3 -6 4 -4 1 -14 9 -23 16 -22 19 -24 20 -83 20
-45 0 -48 0 -61 -5z m971 -43 c5 -6 5 -12 0 -18 -7 -8 -22 -2 -22 9 0 11 15
17 22 9z m144 -12 c4 -6 4 -6 1 -11 -5 -6 -8 -6 -17 1 -8 6 -8 6 -4 10 4 5 10
8 13 7 1 -1 4 -4 7 -7z m172 0 c1 0 5 -3 8 -6 5 -5 6 -7 6 -18 0 -11 -1 -13
-6 -18 -6 -6 -7 -6 -18 -6 -11 0 -12 0 -18 6 -5 5 -6 7 -6 17 0 14 3 20 12 24
5 2 8 2 22 1z m-795 -34 c6 -6 6 -15 1 -21 -9 -10 -26 -3 -26 10 0 13 16 20
25 11z m663 -47 l-5 -5 -4 4 -5 5 4 4 5 5 4 -4 5 -5 -4 -4z m-533 -12 c5 -8 1
-16 -8 -16 -9 0 -13 8 -8 16 2 3 5 5 8 5 3 0 6 -2 8 -5z m396 -57 c2 0 9 -5
16 -12 7 -7 14 -12 15 -12 1 0 4 -4 6 -9 4 -8 5 -14 6 -32 l1 -22 -6 -6 -6 -6
-38 1 c-25 0 -41 -1 -47 -2 -9 -3 -21 -13 -23 -20 -2 -9 -6 -16 -8 -16 -1 0
-1 -1 0 -2 3 -4 -7 -12 -15 -12 -8 0 -18 8 -15 12 1 1 1 2 0 2 -2 0 -6 7 -8
16 -2 7 -13 17 -23 20 -4 1 -22 2 -45 2 -42 0 -50 -2 -58 -13 -5 -7 -11 -26
-11 -35 0 -12 -13 -19 -28 -16 -9 2 -14 8 -14 16 0 10 -6 28 -11 35 -10 13 -8
13 -146 13 -124 -1 -124 -1 -133 -5 -6 -3 -13 -8 -16 -11 -15 -14 -20 -17 -30
-17 -10 0 -15 3 -30 17 -15 14 -20 15 -68 15 l-43 0 -6 6 c-6 6 -6 7 -6 27 0
20 0 21 6 27 l6 6 351 -1 c405 0 362 -2 387 20 13 13 21 16 32 15 3 -1 7 -1 8
-1z m-853 -100 c5 -6 5 -12 0 -18 -7 -8 -22 -2 -22 9 0 11 15 17 22 9z m352
-42 c9 -4 13 -12 13 -25 0 -19 -9 -28 -28 -28 -19 0 -28 9 -28 28 0 12 4 21
13 25 9 5 20 5 30 0z m-349 -42 c10 -9 3 -26 -10 -26 -8 0 -15 7 -15 15 0 13
16 20 25 11z m987 -57 c6 -7 6 -22 0 -28 -4 -4 -8 -5 -21 -6 -12 -1 -21 -2
-29 -6 -27 -12 -33 -13 -42 -11 -5 1 -10 3 -12 6 -10 9 -9 33 1 41 6 5 19 8
26 5 8 -3 35 -2 49 2 15 4 22 3 28 -3z m-282 -4 c12 -5 18 -21 14 -35 -4 -14
-14 -22 -28 -22 -10 0 -26 8 -27 14 0 2 -1 5 -2 8 -2 8 2 25 7 29 9 8 24 10
36 6z m86 -12 l-5 -5 -4 4 -5 5 4 4 5 5 4 -4 5 -5 -4 -4z"/>
<path d="M325 2437 c0 -10 0 -14 0 -10 1 5 1 13 0 18 0 6 0 2 0 -8z"/>
</g>
</svg>
