<?xml version="1.0" standalone="no"?>
<!DOCTYPE svg PUBLIC "-//W3C//DTD SVG 20010904//EN"
 "http://www.w3.org/TR/2001/REC-SVG-20010904/DTD/svg10.dtd">
<svg version="1.0" xmlns="http://www.w3.org/2000/svg"
 width="1100.000000pt" height="2850.000000pt" viewBox="0 0 1100.000000 2850.000000"
 preserveAspectRatio="xMidYMid meet">
<metadata>
Created by potrace 1.15, written by Peter Selinger 2001-2017
</metadata>
<g transform="translate(0.000000,2850.000000) scale(0.500000,-0.500000)"
fill="#000000" stroke="none">
<path d="M758 3750 c-3 -1 -6 -1 -7 0 0 0 -1 0 -1 -2 0 -1 -1 -2 -3 -2 -4 0
-14 -12 -18 -21 -3 -8 -5 -65 -2 -73 0 -2 2 -7 3 -11 3 -9 10 -16 18 -18 3 -1
7 -2 10 -2 3 -1 10 -1 17 -1 22 0 28 -14 13 -34 -11 -15 -12 -22 -7 -56 1 -4
0 -9 -2 -13 -2 -5 -3 -10 0 -27 1 -4 4 -11 7 -16 12 -19 6 -38 -12 -38 -13 0
-31 -5 -38 -11 -10 -8 -10 -8 -10 -179 l1 -159 7 -12 c4 -7 8 -13 10 -15 17
-15 17 -37 0 -52 -2 -2 -6 -8 -10 -15 l-7 -12 -1 -63 c0 -69 0 -70 14 -96 9
-18 9 -30 0 -47 -15 -28 -14 -9 -14 -249 0 -177 0 -217 3 -223 4 -9 12 -18 22
-23 4 -2 10 -7 12 -10 l5 -5 -6 -7 c-3 -3 -9 -7 -13 -9 -7 -3 -16 -13 -20 -22
-2 -5 -3 -17 -3 -42 0 -50 2 -53 26 -59 11 -3 14 -3 16 -1 1 2 7 3 13 3 16 0
23 -7 23 -23 0 -16 -7 -23 -23 -23 -6 0 -12 1 -13 3 -2 2 -5 2 -16 -1 -26 -6
-26 -5 -26 -92 0 -59 0 -71 3 -77 4 -9 14 -21 18 -21 2 0 3 -1 3 -2 0 -3 12
-3 101 -3 89 0 101 0 101 3 0 1 1 2 3 2 4 0 14 12 18 21 3 7 3 32 3 235 l0
228 -5 11 c-6 12 -11 16 -31 27 -8 5 -10 7 -17 24 -5 11 -12 22 -17 28 -14 16
-16 20 -16 31 0 6 1 13 2 15 1 3 3 9 5 14 4 11 9 14 26 14 8 0 11 -1 12 -3 0
-2 2 -3 3 -2 1 0 5 1 9 2 17 3 20 8 23 41 1 13 3 26 4 30 1 4 2 43 2 87 0 91
-1 98 -13 104 -6 4 -17 15 -17 18 0 1 -1 4 -3 5 -1 1 -4 6 -5 11 -3 11 -1 13
13 20 9 4 20 20 23 31 1 5 2 20 2 36 l-1 27 6 6 6 6 63 0 c63 0 74 1 74 3 0 1
1 2 3 2 2 0 15 11 15 13 0 1 3 5 6 10 3 4 6 10 7 11 2 7 11 11 23 11 12 0 21
-4 23 -11 1 -1 4 -7 7 -11 3 -5 6 -9 6 -10 0 -2 13 -13 16 -13 1 0 2 -1 2 -2
0 -2 16 -4 29 -2 3 1 5 2 5 2 0 1 1 2 3 2 4 0 14 12 18 21 3 8 4 24 1 26 -1 1
-2 3 -2 5 0 5 -17 22 -21 22 -3 0 -15 13 -15 16 0 3 12 16 15 16 4 0 21 17 21
22 0 2 1 4 2 5 6 4 0 33 -10 47 -3 5 -7 12 -9 16 l-4 8 7 11 c4 7 8 13 9 15 8
9 9 20 9 103 0 75 0 81 -4 89 -5 13 -16 23 -27 27 -17 5 -23 28 -11 39 3 3 8
6 11 7 11 4 22 14 27 27 4 8 4 12 3 36 -1 36 -1 51 0 77 1 17 1 24 -1 29 -5
10 -13 20 -21 23 -10 4 -24 19 -17 19 1 0 2 2 3 5 1 3 2 5 3 5 1 0 4 1 7 2 3
2 7 3 7 2 3 0 16 17 18 23 3 9 -2 22 -10 30 -7 6 -26 8 -32 2 -5 -4 -14 -20
-14 -23 0 -2 -2 -6 -5 -9 -9 -10 -21 -5 -32 16 -7 12 -17 22 -27 25 -10 3 -50
3 -60 0 -10 -3 -21 -13 -23 -21 -1 -3 -2 -7 -3 -8 -1 -1 -2 -4 -3 -7 -1 -3 -4
-10 -6 -16 -7 -16 -8 -30 -3 -46 9 -25 -3 -44 -27 -43 -29 2 -34 19 -20 66 3
10 6 21 7 26 1 4 2 8 3 9 1 1 2 7 1 13 -1 13 -8 23 -21 27 -10 2 -246 3 -255
0z m416 -181 c13 -2 18 -8 18 -20 0 -21 -15 -25 -52 -13 -15 5 -22 10 -22 19
0 15 15 19 56 14z m-123 -30 c6 -6 6 -7 6 -28 0 -12 1 -24 1 -27 12 -44 9 -48
-26 -41 -12 3 -20 3 -36 2 -40 -3 -48 0 -48 17 0 9 8 26 12 26 4 0 15 27 15
36 0 7 1 10 6 15 l6 6 29 0 29 0 6 -6z m115 -123 c5 -6 5 -12 0 -18 -7 -8 -22
-2 -22 9 0 11 15 17 22 9z m-101 -45 c3 -2 4 -7 6 -33 2 -32 1 -39 -9 -61 -6
-14 -6 -17 -6 -57 0 -22 0 -41 1 -42 0 0 -3 -4 -6 -7 l-6 -6 -29 0 -29 0 -6 6
-6 6 0 36 0 36 6 6 c6 6 7 6 20 6 21 0 28 6 33 29 1 4 1 11 0 14 -1 3 -1 8 0
12 1 4 2 11 3 15 3 24 6 36 9 39 5 5 14 5 19 1z m151 -30 c6 -7 6 -22 0 -28
-9 -9 -27 -7 -32 3 -4 7 -3 20 2 25 7 8 23 8 30 0z m-61 -62 c3 -2 4 -7 5 -16
0 -12 0 -13 -6 -19 -8 -9 -25 -9 -34 0 -9 9 -9 26 0 34 6 6 7 6 19 6 9 -1 14
-2 16 -5z m-278 -43 c8 -7 7 -18 -2 -26 -16 -14 -33 -5 -27 14 6 16 19 21 29
12z m-36 -51 c3 -7 -1 -31 -6 -36 -7 -8 -27 -7 -33 1 -5 6 -5 24 0 30 4 5 28
14 32 12 2 -1 5 -4 7 -7z m101 -103 c8 -6 13 -25 15 -53 1 -17 1 -18 -4 -23
-6 -6 -20 -6 -28 -1 -5 4 -14 21 -20 39 -4 11 -4 28 0 34 7 9 27 12 37 4z
m-34 -205 c3 -2 7 -8 9 -12 4 -7 4 -7 0 -10 -2 -2 -4 -2 -5 -2 -1 1 -2 0 -3
-1 -1 -1 -5 -2 -10 -2 -12 0 -19 6 -19 16 0 15 17 22 28 11z m15 -82 c7 -9 5
-28 -3 -36 -8 -8 -24 -8 -32 1 -12 11 -6 36 9 38 17 3 22 2 26 -3z m-104 -117
c2 -2 5 -7 6 -11 1 -3 3 -9 4 -12 4 -10 6 -14 6 -17 0 -6 10 -12 39 -25 13 -5
18 -13 20 -32 0 -12 0 -13 -6 -19 -5 -6 -7 -7 -18 -7 -19 -1 -28 4 -34 19 -3
5 -5 11 -5 14 0 3 -2 9 -5 13 -2 5 -4 11 -5 14 -1 3 -2 5 -3 4 -1 -1 -4 1 -7
4 -4 2 -11 6 -16 8 -16 5 -18 9 -18 26 0 14 0 16 6 20 7 7 28 7 36 1z m-30
-99 c5 -8 1 -16 -8 -16 -9 0 -13 8 -8 16 2 3 5 5 8 5 3 0 6 -2 8 -5z m108
-340 c12 -7 14 -33 3 -43 -8 -9 -32 -9 -40 0 -9 8 -9 32 0 41 7 7 27 8 37 2z
m8 -224 c4 -6 4 -18 0 -23 -4 -5 -17 -8 -22 -4 -1 1 -5 2 -9 3 -11 2 -12 4 -7
10 2 2 7 7 10 11 8 9 21 11 28 3z m-72 -20 c1 -1 2 -2 3 -2 7 -1 16 -4 14 -5
-1 0 -3 -4 -5 -7 -1 -4 -5 -7 -7 -8 -2 -1 -4 -2 -4 -3 0 -4 -14 -2 -18 2 -5 5
-5 15 0 20 4 4 14 5 17 3z"/>
<path d="M1368 3750 c-3 -1 -6 -1 -7 0 0 0 -1 0 -1 -2 0 -1 -1 -2 -3 -2 -4 0
-14 -12 -18 -21 -3 -7 -3 -18 -3 -84 l0 -77 7 -7 c6 -7 7 -7 19 -7 7 0 12 -1
13 -2 0 -2 1 -2 1 0 0 6 8 9 20 9 19 0 27 -8 27 -27 0 -19 -8 -27 -27 -27 -12
0 -20 3 -20 9 0 2 -1 2 -1 1 -1 -2 -6 -3 -13 -3 -12 0 -13 0 -19 -7 l-7 -7 1
-43 c1 -58 0 -67 0 -107 -1 -40 -1 -44 13 -69 11 -19 11 -27 0 -46 -14 -26
-14 -23 -14 -117 0 -81 0 -86 4 -94 2 -5 5 -11 7 -13 5 -5 27 -13 36 -13 5 0
9 -2 16 -8 6 -5 12 -11 15 -13 2 -3 9 -7 15 -9 11 -4 15 -4 115 -4 l103 1 6
-6 6 -6 -1 -23 c0 -24 2 -33 9 -41 6 -6 16 -13 20 -13 1 0 5 -2 7 -5 2 -3 4
-5 4 -4 0 1 2 0 4 -1 3 -1 3 -3 3 -6 -2 -4 -7 -9 -7 -7 0 1 -1 0 -2 -1 -2 -3
-5 -4 -11 -4 -7 0 -10 -1 -15 -6 -11 -11 -12 -17 -12 -59 l1 -38 9 -19 c11
-25 11 -32 0 -57 -11 -25 -11 -35 0 -42 8 -5 27 -4 36 1 9 6 23 6 29 0 8 -9 7
-21 -3 -39 -14 -24 -21 -30 -33 -34 -14 -4 -29 -14 -34 -24 -4 -7 -4 -12 -5
-69 0 -59 0 -60 4 -68 5 -8 15 -15 26 -17 2 -1 6 -2 7 -3 1 0 4 -1 6 -1 2 0 5
-2 7 -5 2 -5 2 -6 -1 -11 -2 -3 -5 -5 -7 -5 -1 1 -4 0 -5 0 -1 -1 -5 -2 -7 -3
-11 -2 -21 -9 -26 -17 -8 -15 -5 -45 7 -59 5 -5 27 -13 36 -13 16 0 24 -27 11
-40 -3 -3 -9 -6 -13 -7 -14 -2 -14 -2 -13 -22 0 -19 2 -23 11 -23 16 0 23 -23
14 -44 -22 -50 -35 -55 -46 -16 -4 16 -13 25 -28 30 -6 1 -109 2 -113 1 -2 -1
-4 -2 -6 -2 -9 -2 -18 -20 -19 -40 -1 -12 -2 -16 -9 -29 -12 -21 -12 -32 0
-76 5 -18 10 -37 11 -41 4 -26 14 -40 33 -47 11 -4 13 -4 58 -3 90 2 147 10
180 24 41 18 59 30 79 50 18 18 21 22 32 44 17 35 29 103 21 120 -2 4 -14 15
-16 15 -1 0 -3 1 -3 1 -1 0 -5 1 -8 2 -4 1 -7 2 -7 4 0 1 -1 0 -3 -2 -2 -3 -3
-3 -7 1 l-4 4 4 5 c6 6 8 6 8 2 0 -3 1 -3 2 -2 0 2 3 3 6 4 24 4 32 15 32 41
0 28 -7 38 -32 45 -21 6 -24 10 -21 22 1 5 4 7 21 12 16 5 24 10 28 20 4 9 4
13 4 123 l-1 115 -5 9 c-3 5 -12 13 -20 20 -16 12 -22 23 -22 41 0 12 2 15 19
26 6 4 11 8 11 10 0 1 1 3 2 3 6 3 13 31 15 65 2 28 -4 37 -27 46 -5 2 -10 3
-12 3 -2 0 -5 3 -7 5 -3 5 -3 5 1 13 3 5 5 10 6 10 3 2 5 10 5 27 0 17 2 19
17 32 4 3 10 9 12 14 l5 8 1 285 c0 214 0 287 -2 294 -3 12 -9 21 -20 33 -11
12 -16 23 -16 38 0 10 0 10 15 24 20 19 22 24 22 56 1 27 -1 37 -7 37 -1 0 -2
1 -1 2 0 0 -6 1 -14 0 -14 -1 -15 -1 -16 3 0 2 -1 2 -1 -2 0 -17 -20 -21 -39
-8 -13 8 -29 12 -44 10 -21 -3 -29 2 -29 18 0 16 4 19 29 20 14 0 24 2 32 5
19 7 25 8 34 6 11 -3 17 -7 17 -15 0 -3 1 -4 1 -2 1 3 3 3 15 3 13 -1 15 0 18
4 5 6 7 20 4 31 -3 10 -14 25 -19 25 -2 0 -3 1 -3 2 0 2 -2 2 -78 3 l-72 1
-12 -5 c-6 -3 -13 -7 -16 -9 -6 -6 -10 -22 -10 -40 0 -13 -1 -16 -5 -20 -8 -8
-21 -4 -28 9 -7 14 -27 25 -44 25 -8 0 -13 4 -23 18 -6 9 -10 13 -18 17 l-11
4 -99 1 c-54 0 -101 -1 -104 -2z m407 -169 c4 -4 5 -7 5 -15 0 -14 -6 -20 -20
-20 -14 0 -20 6 -20 20 0 14 6 20 20 20 8 0 11 -1 15 -5z m-122 -42 c6 -6 6
-6 5 -21 -1 -24 3 -35 17 -49 17 -17 19 -20 19 -33 0 -13 -3 -18 -14 -24 -14
-7 -49 -14 -51 -10 -1 1 -3 2 -4 2 -4 0 -7 3 -16 17 -4 6 -10 13 -14 15 -3 2
-7 5 -9 6 -1 1 -3 2 -3 1 -1 0 -4 2 -6 6 -3 4 -6 7 -7 7 -2 0 -2 1 -1 1 1 2
-4 12 -9 17 -6 5 -25 11 -35 10 -12 0 -19 6 -19 18 0 12 7 18 19 18 11 0 26 4
33 9 3 2 4 3 3 3 -1 0 3 2 9 5 5 3 10 6 10 6 0 1 15 2 33 2 l34 0 6 -6z m-260
-138 c3 -5 3 -5 0 -10 -2 -3 -5 -5 -7 -5 -2 0 -5 2 -7 5 -3 5 -3 5 0 10 2 3 5
5 7 5 2 0 5 -2 7 -5z m239 -44 c10 -6 6 -20 -6 -20 -11 0 -16 14 -6 19 6 5 5
5 12 1z m-93 -18 c6 -6 6 -19 0 -32 -4 -8 -6 -8 -19 0 -9 6 -12 10 -12 20 0
16 20 23 31 12z m61 -55 c4 -2 10 -7 14 -10 3 -3 8 -6 9 -6 2 0 3 -1 3 -2 1
-2 20 -8 20 -6 0 1 3 -1 7 -5 l6 -6 -1 -21 c0 -19 3 -38 6 -38 1 0 3 -2 5 -4
4 -3 25 -11 32 -11 5 0 11 -6 11 -11 0 -4 -5 -11 -9 -11 -4 -1 -25 5 -34 10
-10 4 -11 4 -49 3 l-39 -1 -7 7 c-4 4 -6 7 -6 7 0 0 0 3 -1 7 -2 9 -10 23 -17
27 -3 1 -8 5 -12 8 -5 4 -9 5 -17 5 -17 0 -23 -4 -29 -18 -7 -18 -19 -25 -25
-15 -6 8 -3 62 4 68 4 5 4 5 35 4 l20 -1 9 9 c5 5 9 10 9 11 0 1 9 2 21 3 11
0 22 0 24 1 2 0 6 -2 11 -4z m87 -214 c16 -7 16 -43 -1 -50 -15 -6 -34 -2 -39
9 -4 8 -4 24 0 32 5 12 23 15 40 9z m102 -205 c3 -4 3 -6 1 -12 -3 -7 -12 -22
-14 -23 -1 0 -2 -6 -2 -12 0 -11 0 -12 9 -21 18 -19 19 -20 19 -32 0 -17 -7
-23 -26 -21 -8 1 -11 3 -23 21 -6 9 -15 19 -20 23 -8 6 -15 15 -15 20 0 1 -2
6 -4 10 -9 19 -4 25 20 26 8 1 18 5 23 11 4 5 20 15 24 15 3 0 6 -2 8 -5z m43
-738 c4 -6 3 -27 -2 -32 -8 -8 -28 -7 -34 1 -5 6 -5 24 0 30 6 8 29 9 36 1z
m-37 -96 c3 -3 3 -3 0 -6 -4 -5 -11 1 -7 6 4 4 4 4 7 0z"/>
<path d="M87 3732 c-9 -4 -9 -5 -12 -28 0 -7 0 -8 8 -9 8 -3 25 -2 37 0 5 1
11 0 16 -2 5 -2 14 -3 19 -4 6 0 10 -1 9 -2 -1 0 0 -2 2 -3 1 -1 1 -2 -2 -5
-1 -2 -8 -10 -14 -18 -6 -8 -12 -14 -16 -14 -13 -4 -26 0 -34 9 -3 3 -6 4 -18
3 -20 -1 -24 -5 -24 -27 0 -24 3 -31 18 -46 8 -8 17 -15 21 -16 11 -3 31 -1
41 4 17 9 39 5 44 -8 3 -8 3 -22 0 -30 -6 -13 -27 -17 -46 -7 -9 5 -14 6 -25
6 -17 0 -20 -2 -37 -19 -15 -14 -19 -28 -13 -42 4 -10 14 -22 18 -22 2 0 3 -1
3 -2 0 -2 2 -2 67 -3 l62 -1 5 -5 c4 -4 5 -7 5 -10 -4 -18 -5 -26 -4 -33 1 -8
12 -28 15 -28 5 0 10 -15 9 -25 -1 -14 -9 -33 -15 -39 -7 -7 -14 -12 -16 -12
-3 0 -16 -14 -21 -22 -4 -7 -10 -25 -14 -45 -3 -12 -20 -71 -31 -103 -13 -41
-18 -56 -36 -100 -10 -27 -12 -32 -10 -38 1 -5 1 -8 1 -9 -2 -1 19 -21 22 -21
5 0 13 -11 13 -18 0 -7 -3 -12 -14 -24 -7 -7 -11 -14 -20 -34 -5 -13 -15 -18
-26 -14 -11 4 -33 1 -40 -3 -8 -7 -12 -16 -12 -31 0 -8 1 -14 2 -15 1 -1 2 -5
3 -9 1 -5 3 -10 5 -13 2 -2 4 -7 5 -11 2 -9 16 -67 21 -84 5 -17 14 -27 30
-36 7 -4 15 -8 17 -11 4 -5 4 -16 0 -19 -2 -1 -3 -4 -3 -5 0 -1 -2 -4 -3 -5
-8 -7 -10 -11 -13 -22 l-4 -12 7 -40 c9 -51 9 -51 33 -52 12 -1 13 0 17 5 2 3
5 6 5 7 1 0 2 2 2 3 0 2 1 2 4 2 8 -3 13 -6 17 -14 3 -5 7 -10 8 -11 2 -2 5
-7 8 -13 2 -5 6 -15 9 -20 3 -6 5 -11 6 -11 1 0 2 -1 1 -2 0 -1 3 -6 8 -11 10
-10 23 -17 48 -23 8 -2 16 -4 18 -5 9 -4 13 -28 6 -40 -8 -16 -41 -16 -49 0
-5 10 -17 28 -25 38 -8 10 -11 11 -29 7 -18 -4 -18 -6 -18 -61 1 -40 1 -47 5
-53 4 -8 16 -19 25 -23 14 -6 18 -21 9 -37 -13 -21 -17 -33 -17 -48 0 -4 -3
-12 -9 -22 -15 -27 -15 -38 -3 -54 5 -8 19 -20 22 -20 3 0 8 -14 8 -23 0 -9
-5 -23 -8 -23 -3 0 -17 -12 -21 -18 -8 -11 -7 -25 2 -34 3 -3 7 -6 9 -6 1 0 2
-1 2 -2 0 -2 0 -2 24 -3 18 -1 36 1 36 5 0 1 1 2 3 2 3 0 10 8 16 20 8 16 13
20 22 20 9 0 14 -4 22 -20 6 -12 13 -20 16 -20 2 0 3 -1 3 -2 0 -3 18 -7 29
-5 5 1 11 1 13 1 1 1 2 1 2 2 0 1 1 2 3 2 4 0 14 12 18 21 3 7 3 16 3 57 l-1
49 6 6 c3 3 5 7 5 9 0 3 0 3 2 0 2 -3 17 -3 120 -3 117 0 130 0 130 3 0 1 1 2
3 2 4 0 14 12 18 21 3 6 3 20 3 103 l0 96 -5 11 c-4 8 -8 13 -14 18 -21 14
-25 19 -25 32 0 13 4 18 25 32 6 5 10 10 14 18 l5 11 0 65 c0 57 0 66 -3 72
-5 8 -10 13 -20 15 -4 1 -10 3 -12 4 -3 1 -5 1 -6 0 -1 -2 -3 -1 -6 2 -5 5 -5
9 4 27 2 5 6 15 8 22 5 15 8 20 18 29 7 6 7 7 7 20 0 10 -1 16 -4 22 -6 12 -6
21 2 36 9 18 12 28 12 41 0 28 -7 36 -46 54 -7 3 -10 10 -10 22 0 12 3 19 10
22 20 9 33 17 35 20 5 8 7 22 4 32 -4 13 -4 20 2 43 6 23 6 31 2 41 -3 7 -11
16 -14 16 -1 0 -7 2 -12 4 -6 1 -11 2 -12 1 -2 -3 -18 -1 -28 5 -5 2 -16 8
-23 11 l-13 7 -77 1 -78 1 -5 5 c-4 4 -4 5 -3 10 5 12 10 38 10 53 l1 16 -14
0 c-10 0 -16 -1 -21 -3 -9 -5 -18 -5 -28 1 -14 7 -26 10 -38 8 -23 -2 -27 -2
-32 0 -22 9 -23 45 -2 54 15 6 28 2 44 -14 l12 -11 13 0 c15 0 17 2 28 20 8
15 12 17 27 19 23 2 36 9 42 24 2 5 22 94 25 112 0 3 2 12 4 19 1 6 2 12 2 12
-1 0 2 3 6 6 l7 7 93 0 c95 0 99 1 99 3 0 1 1 2 3 2 4 0 14 12 18 21 5 11 5
224 0 236 -4 9 -14 21 -18 21 -2 0 -3 1 -3 2 0 2 -14 2 -21 -1 -3 -1 -11 -7
-18 -13 -17 -15 -20 -15 -36 1 -8 7 -9 8 -21 8 -11 0 -14 -1 -16 -4 -5 -5 -7
-15 -7 -22 4 -40 4 -38 -2 -43 -6 -6 -22 -6 -28 0 -5 6 -9 17 -9 31 0 14 -6
27 -14 33 -3 2 -6 4 -6 3 0 0 -4 0 -9 1 -5 1 -11 1 -14 0 -9 -3 -16 -4 -46 -5
-16 0 -33 -2 -36 -3 -8 -3 -19 -15 -21 -24 -3 -10 -9 -16 -18 -16 -9 0 -17 7
-16 14 1 6 -7 21 -11 23 -8 3 -26 1 -33 -4 -20 -13 -34 -11 -54 6 -17 15 -34
20 -44 12 -5 -3 -14 -20 -14 -26 0 -3 -1 -5 -3 -5 -4 0 -4 -1 0 -1 4 -2 4 -2
0 -7 -5 -4 -20 -5 -19 0 0 1 -1 2 -2 2 -1 0 -2 1 -2 2 0 1 1 2 2 2 4 -1 16 1
13 1 -3 1 -5 3 -5 4 0 2 -1 3 -1 2 -1 0 -2 3 -2 8 1 10 -5 20 -13 23 -3 1 -19
2 -36 2 -27 0 -32 -1 -39 -4z m209 -126 c5 -6 5 -12 0 -18 -7 -8 -22 -2 -22 9
0 11 15 17 22 9z m361 -29 c12 -7 14 -33 3 -43 -8 -9 -32 -9 -40 0 -9 8 -9 32
0 41 7 7 27 8 37 2z m-345 -45 c9 -10 19 -33 19 -47 0 -18 -8 -26 -27 -26 -23
0 -27 7 -27 43 0 27 0 28 5 33 8 8 20 7 30 -3z m245 -29 c5 -8 1 -16 -8 -16
-9 0 -13 8 -8 16 2 3 5 5 8 5 3 0 6 -2 8 -5z m-44 -524 c3 -5 3 -5 0 -10 -2
-3 -5 -5 -7 -5 -2 0 -5 2 -7 5 -3 5 -3 5 0 10 2 3 5 5 7 5 2 0 5 -2 7 -5z
m-275 -18 c5 -6 6 -16 1 -29 -2 -5 -3 -9 -3 -9 0 0 0 -2 -1 -4 -2 -6 -3 -6 -9
-2 -20 14 -23 20 -22 35 1 14 23 20 34 9z m101 -3 c10 -9 5 -25 -9 -29 -8 -2
-21 1 -24 6 -12 16 19 37 33 23z m-93 -60 c0 -1 3 -5 6 -9 10 -10 22 -37 22
-49 0 -16 -11 -23 -28 -20 -13 3 -15 8 -13 35 1 30 1 29 3 29 1 0 2 3 2 11 1
2 1 2 2 2 1 -1 2 0 2 1 0 1 1 2 2 2 1 0 2 -1 2 -2z m361 -59 c5 -3 8 -12 7
-23 -1 -18 -25 -26 -38 -12 -12 11 -6 36 9 38 7 2 18 0 22 -3z m-166 -16 c6
-4 6 -4 5 -25 0 -12 -1 -102 -2 -201 -1 -158 -1 -179 2 -179 2 0 1 -1 -1 -2
-3 -1 -6 -4 -8 -6 -4 -4 -6 -5 -19 -5 -14 0 -15 0 -21 6 l-6 6 1 120 c0 111 0
121 -3 127 -5 9 -15 15 -26 17 -5 1 -9 2 -9 4 0 1 -1 1 -2 0 -2 -4 -16 -7 -39
-8 -20 -2 -21 -2 -26 4 -4 4 -5 7 -5 15 0 12 6 20 16 20 10 0 22 0 26 -1 18
-5 27 -8 28 -10 2 -1 2 -1 2 0 0 2 4 3 8 4 11 2 22 7 21 9 0 1 0 2 2 3 5 2 3
16 -6 29 -2 2 -27 5 -32 4 -12 -4 -27 4 -27 15 -1 19 5 29 19 29 23 0 26 0 32
2 4 1 7 3 7 4 0 1 1 2 3 2 1 0 4 3 5 6 2 3 5 7 7 8 3 1 6 3 7 5 3 6 33 4 41
-2z m-345 -2 c14 -9 8 -29 -8 -29 -11 0 -16 6 -16 16 1 7 2 10 8 13 8 6 8 6
16 0z m178 -314 c3 -4 3 -17 0 -26 -7 -21 -38 -19 -38 2 0 22 26 39 38 24z
m251 -57 c5 -5 6 -7 6 -16 0 -15 -8 -23 -23 -23 -9 0 -11 1 -16 7 -9 8 -9 23
-1 32 9 9 24 9 34 0z m-113 -108 c5 -5 5 -11 0 -16 -10 -10 -27 5 -16 16 4 4
12 4 16 0z m207 -82 c10 -9 3 -26 -10 -26 -8 0 -15 7 -15 15 0 13 16 20 25 11z
m-91 -10 c5 -6 5 -12 0 -18 -7 -8 -22 -2 -22 9 0 11 15 17 22 9z m-143 -64 c6
-5 7 -17 2 -19 -2 -1 -2 -2 -2 -3 2 -3 -3 -10 -6 -9 -2 0 -5 1 -5 1 -5 0 -14
13 -14 19 0 13 16 20 25 11z m-102 -72 c10 -9 3 -26 -10 -26 -8 0 -15 7 -15
15 0 13 16 20 25 11z"/>
<path d="M1064 2908 c-3 -1 -6 -1 -7 0 0 0 -1 0 -1 -2 0 -1 -1 -2 -3 -2 -4 0
-14 -12 -18 -21 -2 -6 -3 -15 -3 -43 0 -38 1 -46 11 -56 5 -5 23 -14 31 -15
12 -2 19 -8 22 -20 5 -19 -5 -36 -22 -38 -8 -1 -26 -10 -31 -15 -10 -11 -11
-17 -11 -69 0 -76 5 -87 45 -107 18 -9 22 -13 22 -26 0 -14 -7 -22 -22 -23
-24 -2 -37 -10 -43 -25 -3 -10 -3 -60 1 -77 8 -36 8 -30 0 -66 -4 -21 -4 -107
0 -118 4 -9 14 -21 18 -21 2 0 3 -1 3 -2 0 -3 13 -3 140 -3 l129 0 18 6 c18 6
20 6 46 2 12 -2 29 2 35 8 21 19 35 19 56 0 13 -13 24 -16 47 -16 24 0 33 1
33 3 0 1 1 2 3 2 4 0 14 12 18 21 4 11 5 149 0 163 -4 11 -11 20 -15 20 -2 0
-4 1 -4 2 -1 2 -21 14 -24 14 -2 0 -2 1 0 3 1 2 4 3 5 3 2 0 4 2 5 4 2 2 6 5
9 6 3 2 5 3 5 4 0 1 2 2 4 2 1 0 5 3 7 6 9 11 11 21 11 53 0 28 0 32 -6 52 -8
26 -8 27 -5 39 6 22 -8 42 -31 45 -13 2 -20 8 -24 21 -5 19 5 35 24 37 3 0 11
3 18 7 13 6 14 7 19 17 6 13 6 17 0 30 -5 10 -14 19 -31 30 -11 7 -14 27 -6
42 8 17 9 38 1 44 -7 6 -25 7 -36 2 -10 -4 -21 -4 -27 -1 -7 4 -40 -2 -47 -8
-3 -3 -12 -2 -23 3 -55 24 -55 23 -57 42 -2 19 -11 33 -24 39 -8 4 -16 4 -134
4 -69 0 -128 -1 -131 -2z m246 -104 c4 -4 5 -12 2 -18 -2 -3 -4 -4 -12 -4 -8
0 -10 1 -12 4 -5 10 1 22 12 22 3 0 8 -2 10 -4z m-2 -36 c-1 -18 -1 -17 8 -21
5 -3 12 -4 29 -4 22 0 22 0 27 -5 2 -4 6 -6 8 -6 1 0 2 -1 1 -1 -4 -5 14 -20
27 -22 2 -1 6 -2 7 -3 1 0 4 -1 6 -1 2 0 5 -2 7 -5 2 -5 2 -6 -1 -11 -2 -3 -5
-5 -7 -5 -1 1 -4 0 -5 0 -1 -1 -5 -2 -7 -3 -20 -3 -31 -17 -30 -38 1 -13 1
-14 -5 -20 l-6 -6 -31 1 c-17 0 -34 0 -37 -1 -11 -2 -18 -10 -20 -20 -2 -13
-3 -15 -4 -17 0 0 0 -2 2 -3 2 -2 3 -7 3 -14 0 -16 -7 -23 -23 -23 -10 0 -12
1 -17 6 -6 6 -6 7 -5 19 3 30 3 49 1 56 -2 4 -3 22 -4 58 l-1 52 6 6 c6 6 7 6
23 6 12 0 19 1 25 4 8 4 8 3 7 21 l0 12 8 0 8 0 0 -12z m-149 -113 c9 -7 9
-26 2 -41 -10 -18 -31 -26 -49 -19 -17 8 -20 39 -5 53 15 13 42 16 52 7z m290
-86 c3 -3 3 -3 0 -6 -4 -5 -11 1 -7 6 4 4 4 4 7 0z m-87 -30 c3 -2 5 -4 6 -5
8 -9 32 -19 47 -20 2 0 6 -3 9 -6 5 -5 6 -7 6 -16 0 -7 -1 -13 -3 -15 -3 -5
-25 -17 -36 -21 -5 -2 -7 -4 -8 -7 0 -2 -1 -7 -2 -10 -1 -3 -2 -28 -2 -54 l0
-48 -6 -5 -7 -6 -51 0 c-59 0 -70 -1 -72 -6 0 -2 -1 -1 -1 2 0 4 -2 6 -10 10
-5 2 -10 4 -12 4 -1 0 -2 1 -1 2 1 2 -13 11 -26 15 -12 5 -17 11 -17 24 0 13
5 19 17 24 21 7 32 16 37 32 1 4 5 11 8 14 l5 6 50 -1 c51 0 70 2 72 7 1 2 2
2 3 2 1 -1 2 0 2 1 0 3 0 2 2 0 2 -4 4 3 5 17 1 11 0 12 -7 20 -4 4 -7 8 -8 8
-2 -1 -15 8 -19 13 -12 14 3 29 19 19z m139 -154 c2 -2 6 -3 9 -3 2 0 4 -1 4
-2 0 -1 1 -2 3 -1 3 0 1 -9 -3 -13 -2 -2 -5 -8 -8 -14 -9 -22 -31 -25 -38 -5
-4 12 -1 33 7 38 5 4 21 4 26 0z m-80 -91 c14 0 23 -26 12 -36 -7 -6 -25 -5
-32 2 -12 12 -3 38 12 35 2 -1 6 -1 8 -1z m-174 -12 c7 -11 1 -24 -11 -24 -12
0 -18 13 -11 24 2 3 5 4 11 4 6 0 9 -1 11 -4z"/>
<path d="M1496 2901 c0 -1 0 -30 0 -33 0 -1 1 -2 3 -1 1 1 3 2 5 2 3 0 3 11 0
13 -2 0 -1 1 0 2 2 1 2 2 -1 5 -2 2 -3 5 -3 7 0 3 -4 8 -4 5z"/>
</g>
</svg>
