<?xml version="1.0" standalone="no"?>
<!DOCTYPE svg PUBLIC "-//W3C//DTD SVG 20010904//EN"
 "http://www.w3.org/TR/2001/REC-SVG-20010904/DTD/svg10.dtd">
<svg version="1.0" xmlns="http://www.w3.org/2000/svg"
 width="1000.000000pt" height="2850.000000pt" viewBox="0 0 1000.000000 2850.000000"
 preserveAspectRatio="xMidYMid meet">
<metadata>
Created by potrace 1.15, written by Peter Selinger 2001-2017
</metadata>
<g transform="translate(0.000000,2850.000000) scale(0.500000,-0.500000)"
fill="#000000" stroke="none">
<path d="M260 3738 c-3 -1 -6 -1 -7 0 0 0 -1 0 -1 -2 0 -1 -1 -2 -3 -2 -4 0
-14 -12 -18 -21 -2 -6 -3 -16 -3 -50 0 -48 1 -52 18 -77 12 -18 12 -26 -2 -47
-17 -26 -16 -19 -15 -145 1 -138 1 -134 0 -244 -1 -88 -1 -91 3 -106 7 -26 6
-40 -4 -51 -2 -2 -4 -5 -4 -7 0 -1 -1 -2 -2 -2 -1 0 -2 -1 -2 -2 0 -2 -23 -45
-27 -50 -4 -5 -30 -31 -40 -40 -7 -6 -9 -12 -9 -26 0 -11 3 -17 10 -24 4 -4
32 -44 41 -59 15 -26 29 -53 39 -75 11 -24 16 -31 28 -36 12 -6 31 -6 43 0 1
1 3 2 3 1 0 0 4 1 10 2 9 2 10 2 15 -2 l5 -4 0 -146 0 -145 5 -11 c3 -6 9 -14
13 -17 8 -7 14 -16 14 -21 0 -5 -6 -14 -14 -21 -4 -3 -10 -11 -13 -17 l-5 -11
0 -182 c0 -161 0 -182 3 -189 4 -9 14 -21 18 -21 2 0 3 -1 3 -2 0 -2 2 -3 113
-3 118 -1 129 0 146 9 10 5 23 21 23 28 0 2 3 7 7 10 l6 7 61 0 c47 -1 64 0
73 2 15 4 31 4 46 0 8 -2 21 -3 41 -2 l29 0 16 8 c21 10 30 10 52 0 11 -5 18
-8 23 -7 9 0 25 9 31 17 15 17 29 17 44 0 2 -3 9 -9 15 -12 l11 -6 128 0 128
0 6 -6 c3 -3 6 -7 6 -7 -3 -6 14 -30 20 -30 2 0 3 -1 3 -2 0 -5 54 -4 62 1 1
1 7 2 14 2 11 1 18 0 34 -5 6 -1 150 -1 159 0 3 0 5 2 5 2 0 1 1 2 3 2 4 0 14
12 18 21 4 9 5 118 1 131 -4 12 -10 16 -24 17 -7 1 -12 3 -12 4 0 1 -1 0 -3
-2 -4 -8 -19 -3 -19 7 0 10 15 15 19 7 2 -2 3 -3 3 -2 0 1 5 3 12 4 14 1 20 5
24 17 1 5 2 80 2 276 l0 268 6 7 c3 4 6 6 10 5 2 0 12 1 22 2 66 9 115 33 151
76 7 8 23 33 23 36 0 1 1 2 2 2 1 0 4 5 6 11 2 5 5 14 8 18 5 12 15 41 19 59
1 2 1 6 2 8 4 15 9 42 8 47 -4 24 -13 32 -52 45 -23 8 -63 23 -81 32 -7 3 -15
6 -17 6 -3 0 -3 0 -1 3 2 1 3 2 4 2 0 0 2 1 4 3 3 3 8 4 43 4 21 0 41 1 45 2
3 1 6 1 7 0 0 0 1 0 1 2 0 1 1 2 3 2 4 0 14 12 18 21 4 10 4 74 1 85 -5 13
-18 20 -43 21 -23 1 -30 7 -30 27 0 20 7 26 30 27 10 0 20 2 25 4 l9 4 0 11
c0 5 -1 10 -1 10 -1 0 -2 2 -2 4 0 4 -7 9 -17 12 -12 3 -431 3 -435 -1 -2 -2
-2 -1 -1 1 1 1 -1 1 -4 -1 -3 -2 -5 -3 -4 -1 1 1 0 2 -4 2 -4 0 -5 -1 -4 -2 1
-2 -1 -1 -4 1 -3 2 -5 2 -4 1 1 -2 1 -3 -1 -1 -4 3 -33 4 -41 1 -5 -1 -16 -7
-26 -13 -15 -8 -19 -10 -28 -10 -18 0 -23 5 -31 27 -4 11 -4 12 0 18 5 7 5 7
19 10 9 1 17 1 35 -2 21 -4 31 -4 191 -3 92 0 169 1 171 1 1 0 2 1 2 2 0 1 1
2 3 2 4 0 14 12 18 21 3 7 3 23 3 137 0 122 0 130 -4 140 -2 6 -4 13 -6 15
-11 22 -11 34 0 56 10 19 14 56 7 72 -4 9 -14 21 -18 21 -2 0 -3 1 -3 2 0 0
-2 2 -5 2 -4 1 -142 1 -308 1 -166 0 -304 0 -307 -1 -4 0 -6 -1 -6 -2 0 -1 -3
-3 -7 -5 -4 -1 -9 -6 -12 -10 -3 -5 -7 -11 -10 -15 -7 -10 -12 -13 -25 -13
-13 0 -19 3 -25 13 -3 4 -7 10 -10 15 -3 4 -8 9 -12 10 -4 2 -7 4 -7 5 0 1 -1
2 -2 2 -6 1 -721 2 -726 0z m1012 -62 c5 -6 5 -12 0 -18 -7 -8 -22 -2 -22 9 0
11 15 17 22 9z m-279 -38 c11 -10 3 -28 -11 -28 -9 0 -16 6 -16 16 0 14 17 22
27 12z m-252 -43 c8 -5 9 -10 8 -24 -2 -18 -2 -24 0 -32 1 -7 9 -17 15 -19 1
0 26 -1 55 -1 60 0 60 0 81 21 18 18 28 18 46 0 6 -6 15 -14 20 -16 l9 -5 223
0 223 0 6 -6 c8 -8 8 -12 0 -20 l-6 -6 -268 0 c-147 0 -275 -1 -284 -1 -9 0
-33 0 -54 1 -42 2 -48 1 -59 -8 -6 -5 -18 -28 -18 -34 0 -11 -12 -20 -27 -20
-15 0 -27 9 -27 20 0 6 -12 29 -18 34 -10 8 -17 9 -67 9 -25 -1 -45 0 -45 0 0
1 -2 3 -5 5 -4 3 -9 3 -23 3 -13 0 -19 1 -20 3 -1 1 -2 1 -2 -1 0 -9 -19 -11
-27 -3 -7 7 -7 19 0 26 8 8 27 6 27 -3 0 -2 1 -2 2 -1 1 2 3 2 10 0 5 -2 14
-4 21 -4 11 -1 13 -1 15 2 2 4 5 4 46 3 45 0 45 0 55 5 12 6 18 14 30 37 8 17
19 30 29 35 8 5 22 5 29 0z m842 -24 c3 -3 3 -3 0 -6 -3 -3 -3 -3 -6 0 -3 2
-3 3 -1 6 4 4 4 4 7 0z m-694 -127 c4 -1 8 -4 10 -7 4 -6 4 -23 -1 -29 -7 -9
-27 -9 -34 0 -4 5 -5 22 -2 28 4 8 16 11 27 8z m692 -41 c4 -4 5 -7 5 -13 0
-11 -7 -18 -18 -18 -11 0 -18 7 -18 18 0 11 7 18 18 18 6 0 9 -1 13 -5z m-906
-80 c3 -3 5 -7 5 -12 0 -7 8 -29 12 -35 2 -1 7 -4 11 -6 7 -4 17 -4 142 -4
l134 0 7 -6 6 -6 -5 -7 c-3 -3 -8 -7 -11 -8 -8 -4 -12 -11 -14 -25 -1 -8 0
-12 1 -14 6 -5 3 -19 -8 -42 -6 -13 -12 -27 -13 -31 -4 -14 -12 -19 -27 -20
-15 -1 -25 7 -29 20 -4 15 0 25 17 42 8 9 15 16 15 17 0 2 2 5 9 13 3 3 4 6 3
15 -2 13 -4 18 -12 24 -5 4 -7 4 -184 3 l-179 0 -6 7 -7 6 7 7 6 6 26 -1 c28
0 39 2 46 10 5 5 13 28 13 35 0 11 7 17 20 17 8 0 11 -1 15 -5z m768 -111 c0
-5 0 -2 0 7 0 9 0 13 0 9 1 -5 1 -12 0 -16z m15 -15 c3 -3 4 -7 4 -14 0 -13
-6 -19 -19 -19 -13 0 -19 6 -19 19 0 14 5 19 19 19 8 0 11 -1 15 -5z m-1144
-14 l-5 -5 -4 4 -5 5 4 4 5 5 4 -4 5 -5 -4 -4z m860 -47 c5 -5 5 -14 1 -22 -6
-8 -31 -31 -39 -35 -13 -7 -30 -5 -38 4 -6 7 -8 20 -6 30 4 16 8 18 44 24 23
4 33 4 38 -1z m599 -4 c25 -10 36 -20 30 -29 -2 -3 -5 -6 -6 -7 -6 -3 -25 -6
-38 -6 -10 -1 -12 0 -17 6 -6 5 -7 7 -7 16 0 20 16 28 38 20z m-399 -12 c5 -6
5 -12 0 -18 -7 -8 -22 -2 -22 9 0 11 15 17 22 9z m-899 -71 c3 -3 3 -3 0 -6
-3 -3 -3 -3 -6 0 -3 2 -3 3 -1 6 4 4 4 4 7 0z m863 -7 c0 -1 2 -2 5 -4 6 -2 7
-8 1 -8 -2 0 -5 -1 -5 -3 -2 -5 -8 -3 -12 2 -3 5 -3 5 0 10 4 5 11 7 11 3z
m79 -10 c17 -11 17 -24 0 -33 -8 -3 -21 -4 -27 -1 -2 1 -7 7 -10 13 l-6 10 4
4 c3 3 6 5 6 5 1 0 4 1 5 3 5 4 20 4 28 -1z m-1056 -27 c4 -4 5 -7 5 -13 0
-11 -7 -18 -18 -18 -11 0 -18 7 -18 18 0 11 7 18 18 18 6 0 9 -1 13 -5z m711
-3 c4 -3 9 -9 13 -17 10 -21 25 -32 50 -36 10 -2 14 -8 12 -20 -3 -24 -1 -38
7 -48 22 -28 59 -65 63 -65 2 0 3 0 4 0 0 0 3 -1 7 -2 5 -1 13 -1 20 0 11 1
12 1 16 -3 3 -3 4 -5 4 -5 -1 0 -1 -4 0 -9 6 -32 6 -32 41 -53 23 -15 45 -26
51 -28 3 -1 4 -2 2 -2 -2 0 -4 -2 -5 -4 -1 -2 -2 -4 -3 -3 -1 1 -2 0 -3 -1 -2
-3 -661 -3 -661 0 0 1 1 1 3 1 1 -1 3 0 4 3 1 4 -1 4 -15 5 -11 0 -7 0 11 1
14 0 30 1 34 1 7 1 99 8 130 10 41 3 46 4 55 8 13 6 19 12 27 30 8 16 11 19
23 19 12 1 15 -2 25 -16 13 -19 19 -24 31 -24 11 0 18 6 25 20 3 8 4 14 4 53
1 42 3 91 7 121 2 23 -5 39 -22 46 -7 4 -13 4 -30 4 -12 0 -23 0 -25 -1 -2 0
-20 -1 -39 -2 -19 -1 -37 -2 -40 -2 -3 0 -20 -1 -38 -2 -18 -1 -37 -2 -41 -2
-4 0 -19 -1 -32 -2 -13 -1 -30 -2 -38 -2 -8 0 -27 -1 -43 -2 -16 -1 -36 -2
-45 -2 -9 -1 -23 -2 -32 -2 -24 -2 -35 -8 -48 -27 -11 -17 -19 -23 -32 -23
-27 -1 -39 26 -23 52 2 3 5 7 5 9 1 2 3 5 5 8 3 4 4 7 3 7 0 1 3 4 7 7 4 3 8
5 8 6 0 1 115 1 255 0 l256 -1 7 -5z m630 0 c3 -3 5 -6 4 -6 0 -1 -3 -7 -4
-14 -6 -20 -9 -28 -18 -33 -21 -14 -81 -10 -140 10 -20 7 -58 25 -68 33 -2 2
-6 4 -8 4 -2 0 -3 0 0 1 2 1 4 3 6 5 1 2 4 4 7 5 2 0 51 1 109 1 l106 0 6 -6z
m-791 -73 c3 -5 3 -5 0 -10 -2 -3 -5 -5 -7 -5 -2 0 -5 2 -7 5 -3 5 -3 5 0 10
2 3 5 5 7 5 2 0 5 -2 7 -5z m669 -82 l-5 -5 -4 4 -5 5 4 4 5 5 4 -4 5 -5 -4
-4z m-1054 5 c5 -5 5 -15 0 -20 -9 -9 -24 -2 -24 10 0 8 6 14 14 14 3 0 8 -2
10 -4z m1339 -15 c5 -8 1 -16 -8 -16 -9 0 -13 8 -8 16 2 3 5 5 8 5 3 0 6 -2 8
-5z m-407 -100 c16 -7 20 -37 7 -48 -12 -12 -35 -10 -51 3 -5 4 -10 16 -9 19
0 2 0 3 -2 4 -1 0 -1 1 1 1 2 0 7 4 11 8 11 14 28 19 43 13z m-197 -100 c3 -5
3 -5 0 -10 -2 -3 -5 -5 -7 -5 -2 0 -5 2 -7 5 -3 5 -3 5 0 10 2 3 5 5 7 5 2 0
5 -2 7 -5z m-251 -22 c6 -7 7 -19 0 -23 -12 -9 -28 -2 -28 12 0 15 18 22 28
11z m80 -34 c3 -2 7 -6 8 -9 7 -18 10 -24 16 -28 7 -5 21 -10 30 -10 14 0 21
-15 12 -25 -5 -6 -12 -6 -24 -2 -7 2 -15 3 -31 3 -25 -1 -28 0 -40 13 -10 11
-15 21 -16 34 -1 14 2 20 11 24 13 5 23 5 34 0z m-327 -48 c8 -5 10 -12 9 -34
0 -8 5 -24 10 -29 9 -10 15 -10 44 -3 l20 5 24 -6 24 -6 183 0 184 1 19 9 c11
4 22 8 24 8 2 0 13 -4 24 -8 10 -5 21 -9 23 -9 5 0 16 -11 16 -16 0 -2 -3 -6
-6 -10 l-6 -6 -229 1 -229 0 -26 -7 -25 -7 -25 7 c-31 9 -54 10 -80 3 -20 -6
-30 -6 -51 0 -9 2 -21 4 -25 4 -7 -1 -9 0 -14 5 -8 8 -8 12 0 20 6 6 6 6 24 5
19 0 28 2 35 10 6 6 12 27 10 34 -3 6 0 20 5 25 7 9 28 11 38 4z m-270 -17 c8
-8 8 -24 0 -32 -5 -5 -7 -6 -17 -6 -10 0 -12 1 -17 6 -8 8 -8 24 0 32 9 9 24
9 34 0z m-27 -87 c3 -3 4 -7 4 -14 0 -13 -6 -19 -19 -19 -13 0 -19 6 -19 19 0
14 5 19 19 19 8 0 11 -1 15 -5z m894 -75 c5 -5 5 -14 1 -19 -2 -3 -8 -4 -29
-7 -15 -2 -29 -4 -32 -4 -12 0 -18 14 -11 23 2 3 8 5 27 7 34 5 39 5 44 0z
m-295 -34 c4 -6 4 -24 -1 -30 -7 -9 -27 -9 -34 0 -5 6 -5 24 0 30 7 9 27 9 35
0z m-552 -4 c5 -5 6 -7 6 -16 0 -9 -1 -11 -7 -16 -5 -6 -7 -7 -16 -7 -9 0 -11
1 -16 7 -9 8 -9 23 -1 32 9 9 24 9 34 0z m1097 -98 c5 -5 5 -15 0 -20 -9 -9
-24 -2 -24 10 0 8 6 14 14 14 3 0 8 -2 10 -4z m-249 -15 c7 -8 7 -10 0 -18
l-6 -6 -313 1 c-338 0 -323 1 -333 -10 -4 -4 -11 -30 -9 -30 3 0 2 -5 -2 -10
-4 -4 -5 -4 -28 -4 l-25 1 -24 -9 c-25 -9 -36 -11 -47 -6 -17 7 -17 43 -1 50
3 1 14 3 24 5 10 2 22 5 26 8 7 4 20 18 18 21 0 1 3 3 7 6 4 3 8 5 8 6 0 1
157 1 350 1 l349 0 6 -6z m-262 -111 c7 -6 7 -19 1 -25 -6 -7 -19 -7 -25 -1
-7 6 -7 19 -1 25 6 7 19 7 25 1z m-162 -7 c12 -7 14 -33 3 -43 -8 -9 -32 -9
-40 0 -9 8 -9 32 0 41 7 7 27 8 37 2z m431 3 c1 0 5 -3 8 -6 5 -5 6 -7 6 -18
0 -11 -1 -13 -6 -18 -6 -6 -7 -6 -20 -6 -15 0 -23 8 -23 24 0 11 5 19 13 23 5
2 8 2 22 1z m-85 -7 c4 -4 5 -7 5 -15 0 -14 -6 -20 -20 -20 -14 0 -20 6 -20
20 0 14 6 20 20 20 8 0 11 -1 15 -5z m-865 -91 c4 -4 4 -6 3 -19 0 -8 -1 -16
-2 -18 0 -2 -1 -5 -1 -5 0 -2 -10 -14 -12 -14 0 0 -3 2 -6 4 -9 8 -10 44 -2
52 5 5 15 5 20 0z"/>
</g>
</svg>
