<?xml version="1.0" standalone="no"?>
<!DOCTYPE svg PUBLIC "-//W3C//DTD SVG 20010904//EN"
 "http://www.w3.org/TR/2001/REC-SVG-20010904/DTD/svg10.dtd">
<svg version="1.0" xmlns="http://www.w3.org/2000/svg"
 width="1100.000000pt" height="2850.000000pt" viewBox="0 0 1100.000000 2850.000000"
 preserveAspectRatio="xMidYMid meet">
<metadata>
Created by potrace 1.15, written by Peter Selinger 2001-2017
</metadata>
<g transform="translate(0.000000,2850.000000) scale(0.500000,-0.500000)"
fill="#000000" stroke="none">
<path d="M298 3786 c-3 -1 -6 -1 -7 0 0 0 -1 0 -1 -2 0 -1 -1 -2 -3 -2 -4 0
-15 -13 -18 -22 -2 -9 -2 -11 2 -28 6 -23 6 -31 0 -55 l-5 -19 0 -141 0 -141
-6 -8 c-5 -7 -5 -7 -9 -5 -4 3 -30 7 -59 10 -6 1 -18 2 -26 3 -8 1 -21 2 -29
3 -8 1 -15 2 -16 2 0 1 -6 0 -12 -2 -14 -4 -24 -14 -26 -24 -1 -4 -2 -7 -3 -8
-1 -1 -1 -19 1 -97 0 -10 -1 -22 -1 -25 -1 -3 -3 -10 -4 -14 -1 -4 -3 -20 -4
-34 -1 -14 -3 -39 -5 -54 -2 -15 -3 -33 -4 -40 -1 -6 -2 -13 -2 -15 0 -2 -1
-9 -2 -15 -1 -7 -2 -14 -2 -16 -1 -2 -3 -15 -5 -28 -6 -37 -12 -62 -20 -91
-10 -38 -8 -53 8 -69 8 -7 24 -6 43 4 14 8 27 9 34 4 5 -3 9 -14 10 -22 2 -24
15 -41 41 -54 14 -6 17 -7 24 -6 25 4 31 16 48 92 6 28 7 30 10 52 1 8 4 18 5
23 2 5 3 13 4 19 2 21 12 40 18 35 5 -4 16 -6 34 -6 17 0 18 0 23 -6 9 -8 9
-26 0 -34 -6 -6 -6 -6 -25 -6 -23 1 -33 -2 -39 -12 -8 -13 2 -32 23 -46 4 -2
9 -12 8 -15 0 -6 -5 -12 -12 -15 -10 -5 -22 -19 -26 -29 -3 -10 -7 -58 -5 -74
0 -4 2 -16 5 -25 7 -23 7 -23 -6 -49 -6 -13 -11 -26 -12 -32 -1 -5 -3 -25 -6
-44 -5 -28 -5 -34 -3 -41 3 -11 10 -19 21 -24 15 -7 21 -13 21 -22 0 -11 -6
-15 -24 -17 -28 -2 -39 -11 -45 -41 0 -1 -2 -6 -4 -13 -2 -7 -4 -13 -4 -14 -2
-11 -17 -57 -21 -66 -1 -2 -6 -16 -12 -31 -18 -47 -55 -122 -65 -134 -2 -2 -3
-4 -3 -5 0 -1 -18 -29 -48 -71 -9 -14 -10 -24 -5 -37 3 -8 28 -33 37 -38 8 -4
32 -6 40 -3 9 3 23 0 28 -6 7 -6 8 -18 5 -32 -5 -23 -3 -36 8 -50 10 -13 11
-14 19 -25 14 -18 16 -20 34 -20 16 -1 17 0 31 18 3 4 8 11 11 14 3 3 11 14
19 26 8 11 16 21 17 22 9 10 11 26 7 45 -7 30 -3 37 29 53 25 11 35 20 37 30
2 10 -1 24 -9 37 -7 13 -6 26 1 34 3 3 7 6 9 6 4 0 10 2 26 10 18 8 23 17 42
78 13 39 21 47 32 28 2 -5 9 -15 14 -23 5 -8 12 -19 16 -25 4 -6 9 -15 12 -19
3 -5 6 -9 6 -10 0 -3 17 -20 27 -28 5 -4 10 -10 12 -14 11 -25 13 -27 30 -27
10 0 12 1 18 8 10 10 77 80 125 132 11 12 14 20 13 33 -1 12 -6 19 -15 24 -4
2 -7 5 -8 5 -1 1 -5 3 -10 5 -6 2 -13 7 -18 12 -17 18 -23 23 -24 22 -1 -1 -2
0 -2 1 0 1 -5 3 -11 6 -9 3 -15 7 -25 18 -7 7 -19 17 -26 22 -7 5 -13 11 -14
13 -4 6 -3 23 1 33 5 15 4 37 -4 45 -3 3 -9 10 -18 22 -4 6 -17 21 -29 34 -28
34 -29 38 -26 77 4 45 5 80 2 92 -1 6 -3 13 -3 16 -1 3 -2 8 -4 11 -7 15 -14
41 -14 49 1 11 2 14 13 27 4 6 9 14 11 19 2 5 4 10 5 12 2 5 0 28 -4 38 -5 11
-18 18 -34 16 -2 0 -9 0 -17 -1 -15 -1 -15 -1 -21 5 -9 8 -9 25 0 34 8 9 24 9
36 0 14 -11 21 -13 44 -12 26 0 29 -2 33 -19 4 -16 13 -32 20 -38 13 -9 34 -2
45 15 10 16 16 17 25 5 10 -14 20 -16 59 -12 5 0 12 -1 15 -2 8 -4 33 -4 44
-1 9 3 17 3 29 1 5 -1 16 -2 24 -2 14 0 16 0 29 7 13 7 15 8 17 5 2 -3 2 -3
-2 -3 -2 0 -4 -1 -4 -2 0 0 -5 -4 -12 -8 -11 -6 -31 -24 -32 -29 -1 -3 -11
-10 -18 -13 -6 -2 -35 -7 -36 -6 0 1 -1 0 -2 -1 0 -1 -4 -3 -7 -5 -7 -3 -13
-15 -18 -33 -5 -20 -12 -22 -32 -9 -7 5 -17 9 -23 10 -11 3 -12 2 -25 -3 -8
-3 -19 -7 -25 -9 -46 -15 -53 -19 -69 -36 -15 -17 -20 -27 -20 -42 1 -11 1
-13 20 -41 11 -16 22 -31 25 -33 8 -5 20 -8 40 -8 16 0 18 -1 23 -5 6 -4 6 -6
6 -19 0 -14 -1 -16 -6 -24 -6 -8 -7 -10 -7 -22 0 -16 3 -19 16 -22 8 -1 20 1
34 7 2 1 4 2 5 2 4 1 38 15 43 18 5 3 6 3 11 -3 l5 -7 -1 -200 c0 -110 -1
-203 -2 -207 -5 -30 -15 -55 -27 -68 -20 -22 -22 -36 -11 -57 25 -47 42 -85
57 -127 13 -40 20 -51 30 -54 16 -3 20 -3 29 0 31 12 84 29 107 33 3 1 6 2 8
2 8 3 107 22 162 32 23 4 43 7 46 8 3 1 9 2 14 2 16 2 19 3 21 5 1 1 3 2 5 2
2 0 7 3 11 7 7 6 7 7 7 18 0 9 -1 14 -4 17 -14 19 -13 29 5 53 4 5 8 13 9 18
2 5 6 13 9 17 6 6 6 6 11 4 3 -2 20 -8 39 -14 19 -6 38 -12 42 -13 4 -2 22 -8
38 -13 17 -5 49 -16 73 -25 24 -8 46 -16 50 -17 4 -1 9 -3 11 -4 2 -1 9 -3 14
-5 6 -2 12 -4 14 -5 2 -1 21 -8 41 -15 20 -7 63 -23 94 -35 l57 -22 15 1 c8 0
18 1 23 2 9 1 17 -4 24 -16 19 -32 61 -41 78 -18 3 4 22 42 44 85 42 84 42 86
36 101 -6 16 -13 19 -93 50 -31 11 -32 16 -8 36 8 6 16 13 17 14 1 1 5 4 7 6
53 45 51 42 50 61 0 15 -3 18 -24 31 -9 6 -26 17 -37 25 -11 7 -31 20 -45 29
-45 30 -46 30 -58 31 -9 0 -12 0 -15 -3 -2 -2 -3 -2 -3 -1 0 1 -2 5 -4 9 l-5
6 -1 116 0 116 5 5 c5 5 6 5 11 4 8 -3 23 -1 32 3 17 7 22 9 37 13 8 3 15 5
15 6 0 1 1 2 3 2 5 0 13 8 22 23 6 7 10 14 11 15 1 1 4 6 8 11 13 19 52 66 75
90 l23 24 0 13 c0 19 -7 26 -32 32 -6 1 -15 4 -20 5 -90 27 -98 29 -155 51
-47 17 -54 20 -69 22 -17 3 -32 9 -41 17 -6 5 -28 17 -66 34 -9 4 -24 11 -34
16 -16 8 -19 9 -27 8 -9 -1 -25 -7 -26 -10 -1 -2 -14 -9 -16 -9 -4 0 -10 9 -9
13 2 5 -3 30 -7 37 -2 3 -7 8 -12 11 -18 11 -9 22 41 47 6 2 17 9 25 14 8 6
15 10 16 10 1 0 2 1 2 2 0 0 3 3 7 5 4 2 11 8 15 13 8 8 8 9 7 17 -1 4 -2 12
-2 16 -4 25 34 60 47 45 9 -10 3 -24 -22 -50 -14 -16 -17 -20 -17 -26 1 -3 1
-8 1 -11 0 -4 8 -13 29 -35 15 -16 31 -32 35 -36 18 -19 34 -37 45 -49 28 -32
32 -35 52 -32 13 1 15 5 14 21 0 13 -1 14 -10 24 -5 6 -9 13 -9 15 -2 20 5 30
22 30 10 0 19 -5 21 -11 2 -6 13 -16 21 -18 14 -4 22 -2 31 7 1 1 6 5 11 9 4
3 10 8 12 10 2 2 8 7 12 10 5 4 10 8 11 9 1 1 5 5 10 8 18 14 20 37 3 55 -8 8
-10 9 -39 14 -3 1 -4 0 -3 -3 0 -4 -7 -19 -13 -23 -14 -12 -33 7 -21 21 4 5
18 13 23 13 2 0 3 1 2 2 -1 1 0 2 1 2 1 0 0 5 -1 10 -2 6 -3 13 -3 16 0 3 -1
6 -2 6 0 0 -9 7 -18 17 -10 9 -30 28 -45 43 -39 36 -39 38 -15 75 8 11 17 27
22 36 5 9 9 17 10 18 1 1 7 12 13 24 27 55 39 84 43 104 3 16 9 33 18 52 11
25 24 80 22 92 -5 24 -15 30 -79 50 -52 16 -65 18 -87 16 -10 -2 -71 -3 -143
-3 -119 0 -126 0 -133 -4 -8 -4 -12 -10 -13 -23 0 -5 -1 -10 -2 -11 -1 -1 0
-2 1 -2 1 0 3 -4 4 -9 7 -28 -18 -47 -45 -34 -13 7 -21 24 -16 39 1 2 2 4 3 4
1 0 2 1 1 2 -1 1 -2 7 -2 13 -2 22 -8 26 -36 24 -23 -1 -23 -1 -23 -3 0 -1 -1
-2 -3 -2 -4 0 -14 -12 -18 -21 -5 -11 -5 -159 0 -170 4 -9 14 -21 18 -21 2 0
3 -1 3 -2 0 -1 1 -2 2 -2 0 1 5 0 10 -1 5 0 13 -1 18 -2 5 0 10 -2 13 -5 2 -2
6 -4 7 -4 2 0 1 -1 -2 -2 -6 -3 -19 -13 -37 -30 -21 -21 -23 -22 -34 -22 -11
0 -17 4 -25 17 -11 19 -26 29 -63 43 -13 6 -41 3 -50 -4 -4 -3 -22 -1 -28 3
-3 2 -6 5 -7 7 -3 6 -3 24 -1 30 2 3 5 11 8 18 3 7 7 17 9 21 2 4 3 8 3 9 0 1
1 7 3 13 5 24 -1 36 -23 43 -8 2 -16 4 -18 4 -2 0 -6 3 -9 6 -5 5 -6 7 -6 16
0 20 10 27 34 25 8 -1 13 -2 13 -3 -1 -1 6 -2 16 -2 22 0 26 -2 31 -13 8 -18
12 -28 18 -39 7 -16 7 -29 -2 -41 -4 -6 -10 -14 -13 -20 -17 -24 0 -53 29 -50
6 1 12 1 14 1 1 1 2 1 2 2 0 1 1 2 3 2 4 0 14 12 18 21 3 7 3 15 2 49 0 37 -1
43 -6 60 -3 12 -5 21 -4 24 1 3 1 6 1 7 0 1 -2 7 -3 13 -5 19 -17 26 -42 23
-26 -2 -30 -2 -36 -1 l-7 2 -1 -13 0 -12 -1 13 c0 12 -1 14 -5 18 -4 3 -6 7
-5 10 1 10 -14 34 -21 34 -2 0 -3 1 -3 2 0 3 -11 3 -88 3 -77 0 -88 0 -88 -3
0 -1 -1 -2 -3 -2 -4 0 -14 -12 -18 -21 -3 -6 -3 -19 -3 -87 l0 -79 -6 -5 c-4
-4 -6 -5 -9 -4 -2 1 -7 2 -11 3 -20 3 -45 7 -57 9 -8 1 -24 5 -35 8 -22 6 -22
6 -33 3 -22 -6 -27 -15 -40 -71 -7 -31 -9 -36 -17 -63 -3 -9 -5 -21 -5 -31 -1
-9 -2 -17 -2 -17 -1 0 -3 -1 -5 -2 -10 -3 -22 -3 -36 2 -8 3 -16 5 -18 6 -2 0
-11 4 -20 7 -27 10 -30 11 -41 8 -6 -1 -11 -3 -11 -4 0 -2 -1 -2 -1 -1 -4 3
-15 -17 -16 -30 -2 -17 -10 -37 -16 -37 0 0 -3 3 -5 7 -3 5 -10 10 -20 16 -19
12 -22 15 -22 28 0 13 3 16 22 28 22 13 27 20 28 49 1 31 -4 40 -30 53 -21 11
-21 17 0 28 16 8 23 14 27 24 5 11 4 141 0 152 -4 9 -14 21 -18 21 -2 0 -3 1
-3 2 0 1 -1 2 -2 2 -7 1 -198 2 -202 0z m702 -47 c7 -7 8 -14 3 -23 -7 -11
-32 -14 -41 -5 -9 10 -4 31 9 34 11 2 23 0 29 -6z m800 -83 c5 -6 5 -12 0 -18
-7 -8 -22 -2 -22 9 0 11 15 17 22 9z m-297 -38 c16 -7 16 -43 -1 -50 -15 -6
-34 -2 -39 9 -4 8 -4 24 0 32 5 12 23 15 40 9z m99 -34 c5 -6 5 -12 0 -18 -7
-8 -22 -2 -22 9 0 11 15 17 22 9z m-39 -80 c3 -4 4 -6 3 -6 -1 0 -2 -1 -2 -2
0 -2 -3 -7 -7 -12 -12 -17 -21 -16 -43 5 -5 5 -10 9 -12 9 -3 0 8 9 13 11 2 0
13 1 23 0 19 0 20 0 25 -5z m-1204 -27 c3 -3 3 -3 0 -6 -4 -5 -11 1 -7 6 4 4
4 4 7 0z m808 -16 c8 -3 11 -8 11 -20 0 -13 -6 -19 -20 -19 -14 0 -20 6 -20
20 0 10 2 13 10 19 6 4 10 4 19 0z m230 -8 c5 -8 1 -16 -8 -16 -9 0 -13 8 -8
16 2 3 5 5 8 5 3 0 6 -2 8 -5z m-316 -16 c6 -4 6 -6 6 -20 0 -14 0 -16 -6 -20
-4 -4 -7 -5 -18 -5 -11 0 -14 1 -18 5 -6 4 -6 6 -6 20 0 14 0 16 6 20 4 4 7 5
18 5 11 0 14 -1 18 -5z m-326 -10 c7 -4 10 -11 10 -23 0 -19 -8 -27 -27 -27
-12 0 -21 4 -23 11 -1 1 -3 6 -5 10 -1 4 -3 8 -3 10 -1 2 -2 3 -3 4 -3 1 0 10
3 10 2 0 5 1 8 3 12 7 31 8 40 2z m559 -50 c6 -7 22 -22 36 -35 13 -13 24 -25
24 -26 0 -1 1 -2 2 -2 1 0 2 -2 3 -5 1 -5 0 -7 -4 -10 -10 -8 -35 -22 -62 -35
-25 -12 -38 -21 -36 -24 1 -1 0 -2 -1 -2 -1 0 -2 -6 -2 -13 0 -12 0 -13 8 -22
10 -11 14 -13 24 -14 4 -1 9 -2 11 -2 2 0 8 1 13 2 24 7 36 1 36 -17 0 -14 -6
-20 -19 -20 -9 0 -25 6 -32 13 -2 1 -4 3 -5 3 -1 0 -5 3 -9 6 -5 4 -9 5 -12 5
-2 -1 -7 -2 -11 -2 -5 -1 -8 -2 -8 -3 0 -1 -1 -2 -2 -1 -2 1 -8 -1 -7 -3 1 -1
0 -2 -1 -3 -3 -2 -2 -16 1 -24 4 -10 4 -31 -1 -37 -4 -5 -6 -5 -19 -5 -17 1
-22 4 -26 17 -3 6 -3 10 -1 17 3 10 4 12 15 17 l8 4 -1 18 0 18 -8 2 c-15 4
-34 8 -37 8 -10 0 -14 13 -7 22 2 3 4 6 4 8 0 1 1 2 2 2 0 0 3 2 4 6 2 3 8 10
13 15 16 18 43 60 67 108 15 30 21 32 40 14z m-901 1 c7 -6 7 -19 1 -25 -6 -7
-19 -7 -25 -1 -7 6 -7 19 -1 25 6 7 19 7 25 1z m108 -47 c2 -9 2 -9 5 -16 6
-16 11 -24 16 -27 9 -5 11 -7 20 -17 6 -5 10 -10 10 -11 0 -3 11 -19 16 -24
12 -12 16 -30 10 -44 -7 -17 -43 -17 -50 0 -5 13 -10 18 -10 11 0 -2 -2 4 -5
13 -2 9 -6 20 -7 24 -5 10 -22 25 -36 30 -16 6 -19 9 -19 25 -1 14 1 21 9 24
13 6 31 16 34 18 3 4 6 2 7 -6z m579 -8 c2 -2 4 -5 4 -7 0 -2 2 -12 5 -23 8
-31 8 -38 3 -43 -5 -5 -14 -5 -19 0 -3 1 -8 11 -13 21 -4 10 -10 21 -11 24 -5
10 -4 22 1 28 7 8 21 8 30 0z m-98 -2 l4 -4 -6 -7 c-3 -3 -7 -6 -8 -6 -2 0 -5
-1 -7 -1 -5 -1 -39 1 -35 3 1 0 5 3 8 6 4 5 9 7 19 10 19 4 20 4 25 -1z m-114
-11 c2 -2 5 -4 6 -4 2 0 2 -1 0 -1 -2 -1 -9 -8 -17 -15 -32 -31 -36 -34 -43
-34 -7 0 8 44 17 53 10 8 31 9 37 1z m552 -14 c9 -9 2 -24 -10 -24 -7 0 -20
11 -20 17 0 9 22 15 30 7z m263 -68 c5 -5 6 -7 6 -16 0 -15 -8 -23 -23 -23 -9
0 -11 1 -16 7 -9 8 -9 23 -1 32 9 9 24 9 34 0z m-895 -39 c7 -8 3 -24 -8 -29
-3 -2 -9 -5 -13 -8 -24 -15 -90 -48 -95 -48 -5 0 -8 4 -8 10 0 8 18 63 23 68
6 6 12 5 24 -4 19 -15 35 -14 53 3 11 11 19 14 24 8z m324 -50 c1 -2 2 -3 1
-3 -1 0 0 -1 2 -3 1 -2 3 -4 3 -5 1 0 7 -4 15 -7 15 -6 19 -11 19 -22 0 -10
-7 -17 -17 -17 -10 0 -14 3 -20 13 -6 9 -14 17 -16 16 0 -1 -1 -1 -1 0 0 1 -2
2 -5 2 -7 0 -10 7 -5 13 10 14 18 18 24 13z m-145 -27 c11 -10 3 -28 -11 -28
-9 0 -16 6 -16 16 0 14 17 22 27 12z m330 -35 c4 -1 8 -5 9 -9 2 -6 3 -9 2
-34 0 -8 1 -20 2 -27 4 -24 1 -33 -15 -33 -11 0 -15 5 -20 22 -6 19 -8 21 -24
22 -15 0 -19 -3 -26 -19 -6 -16 -15 -20 -26 -13 -17 11 -25 52 -12 63 4 4 8 5
17 5 15 0 34 4 38 8 1 1 2 2 2 2 0 -1 5 3 10 8 l11 10 13 -1 c7 0 16 -2 19 -4z
m-1118 -38 c4 -4 5 -7 5 -15 0 -14 -6 -20 -20 -20 -14 0 -20 6 -20 20 0 14 6
20 20 20 8 0 11 -1 15 -5z m791 -103 c5 -5 6 -7 6 -17 0 -16 -7 -23 -23 -23
-16 0 -23 7 -23 23 0 16 7 23 23 23 10 0 12 -1 17 -6z m252 -44 c7 -10 10 -20
10 -32 0 -4 1 -9 3 -10 2 -1 3 -6 3 -10 0 -9 -6 -16 -16 -16 -11 0 -15 6 -17
21 0 9 -2 14 -6 21 -3 5 -8 11 -9 14 -5 7 -5 11 2 17 5 4 9 5 15 5 7 0 8 -1
15 -10z m-387 -27 c3 -5 3 -6 0 -15 -2 -5 -6 -12 -8 -15 -2 -3 -7 -11 -10 -17
-9 -15 -15 -20 -28 -20 -10 0 -12 1 -17 6 -8 8 -9 25 -1 34 3 3 6 6 7 6 1 0 6
4 11 10 16 14 40 20 46 11z m761 -43 c1 0 5 -3 8 -6 5 -5 6 -7 6 -18 0 -11 -1
-13 -6 -18 -6 -6 -7 -6 -18 -6 -11 0 -12 0 -18 6 -5 5 -6 7 -6 17 0 14 3 20
12 24 5 2 8 2 22 1z m-445 -8 c8 -9 8 -24 -1 -32 -5 -6 -7 -7 -18 -6 -7 0 -18
1 -25 3 -7 2 -18 3 -23 3 -9 0 -29 10 -24 12 2 0 8 4 15 9 16 11 27 15 46 17
20 1 23 1 30 -6z m221 -11 c9 -5 17 -9 19 -9 3 0 3 -1 1 -1 -2 -1 -5 -3 -7 -5
-13 -11 -35 -1 -36 17 -1 10 4 9 23 -2z m-680 -29 c1 0 5 -3 8 -6 5 -5 6 -7 6
-18 0 -11 -1 -13 -6 -18 -6 -6 -7 -6 -18 -6 -11 0 -12 0 -18 6 -5 5 -6 7 -6
17 0 14 3 20 12 24 5 2 8 2 22 1z m333 -42 c10 -9 3 -26 -10 -26 -8 0 -15 7
-15 15 0 13 16 20 25 11z m-57 -77 l-5 -5 -4 4 -5 5 4 4 5 5 4 -4 5 -5 -4 -4z
m641 5 c6 -5 9 -15 9 -26 0 -18 -3 -26 -16 -41 -7 -7 -13 -17 -14 -21 -5 -13
-13 -26 -18 -26 -4 0 -23 -10 -26 -13 -5 -6 -10 -24 -10 -35 0 -10 -1 -13 -6
-18 -5 -6 -6 -6 -19 -7 -11 0 -14 1 -16 4 -1 2 -2 4 -2 5 1 1 0 2 -1 3 -2 2
-14 60 -14 63 2 5 -8 26 -14 31 -2 1 -3 3 -3 4 1 0 1 1 0 1 -2 0 -2 3 -2 6 0
5 0 7 -4 8 -4 2 -4 2 1 2 4 0 6 1 14 8 10 10 19 14 29 14 14 0 20 -5 24 -20 2
-6 4 -11 5 -12 1 0 2 -2 2 -3 0 -4 8 -5 23 -5 l13 1 1 12 c1 7 2 20 2 29 0 23
7 36 20 40 7 2 18 0 22 -4z m-1245 -2 c5 -6 5 -12 0 -18 -7 -8 -22 -2 -22 9 0
11 15 17 22 9z m894 -56 c12 -4 17 -7 23 -16 3 -5 3 -6 0 -6 -2 0 -4 -1 -6 -2
-12 -10 -18 -16 -21 -21 -3 -5 -7 -8 -15 -10 -10 -3 -11 -3 -16 0 -3 2 -7 8
-9 12 -5 11 -15 21 -21 21 -3 0 -3 1 0 1 1 1 3 3 3 4 0 6 10 13 23 18 15 5 24
5 39 -1z m-431 -4 c10 -9 3 -26 -10 -26 -8 0 -15 7 -15 15 0 13 16 20 25 11z
m542 -16 c6 -1 8 -2 5 -2 -6 0 -8 -4 -7 -19 0 -8 -1 -11 -3 -12 -2 0 -1 -1 1
-1 11 0 12 -25 1 -46 -8 -16 -8 -21 -6 -31 2 -7 13 -21 17 -21 0 0 5 -4 10 -9
8 -8 9 -9 5 -9 -6 0 -16 -10 -27 -26 -9 -15 -17 -20 -30 -19 -13 0 -19 5 -30
22 -13 19 -17 23 -26 23 -5 1 -5 1 -1 1 6 1 18 13 17 15 -1 1 0 2 1 2 3 0 10
9 11 13 0 1 1 3 1 4 3 4 5 16 4 24 -1 15 15 54 24 57 3 1 4 2 2 2 -2 0 -3 2
-3 10 1 16 -1 20 -7 20 -7 1 11 3 22 4 5 0 14 -1 19 -2z m-981 -68 c5 -5 5
-11 0 -16 -10 -10 -27 5 -16 16 4 4 12 4 16 0z m584 -20 c5 -5 5 -16 1 -20 -6
-5 -16 -5 -21 0 -9 9 -2 24 10 24 3 0 8 -2 10 -4z m76 -55 c4 -2 10 -4 13 -5
6 -1 6 -2 1 -2 -10 0 -23 -13 -33 -31 -10 -18 -19 -22 -42 -21 -2 0 -6 3 -9 6
-8 8 -9 25 -1 36 3 4 5 9 5 9 0 3 9 8 20 10 13 3 35 2 46 -2z m435 -3 c3 -2 5
-4 4 -4 -1 0 0 -3 2 -6 7 -13 1 -26 -12 -26 -6 0 -9 2 -15 8 -15 18 -23 24
-28 24 l-5 0 5 2 c3 1 7 2 9 4 12 6 31 6 40 -2z m-569 0 c5 -5 5 -15 0 -20 -9
-9 -24 -2 -24 10 0 8 6 14 14 14 3 0 8 -2 10 -4z m662 -3 c3 -3 4 -7 4 -14 0
-13 -6 -19 -19 -19 -13 0 -19 6 -19 19 0 14 5 19 19 19 8 0 11 -1 15 -5z
m-398 -119 c12 -5 18 -11 19 -19 1 -7 3 -10 9 -24 6 -12 17 -20 31 -23 9 -2
21 -11 17 -12 -1 -1 -15 -25 -25 -46 -7 -14 -16 -16 -33 -7 -5 2 -11 5 -14 6
-3 0 -41 -3 -86 -8 l-81 -8 -5 5 c-6 5 -6 5 -6 26 0 12 -1 24 -2 28 -1 4 -2
10 -2 13 -1 4 -2 6 -3 6 -1 -1 -7 4 -14 12 -11 11 -13 14 -13 20 0 10 6 17 16
17 8 0 18 -8 15 -12 -1 -1 0 -2 0 -2 1 0 4 -5 6 -10 4 -13 14 -22 25 -26 4 -1
19 -2 32 -2 41 0 51 8 54 46 1 13 2 17 6 21 8 8 35 7 54 -1z m-295 -32 c4 -6
4 -24 -1 -30 -7 -9 -27 -9 -34 0 -5 6 -5 24 0 30 7 9 27 9 35 0z m679 -35 c5
-2 10 -5 12 -6 2 -2 5 -3 7 -3 2 0 2 -1 2 -3 -1 -3 13 -15 18 -15 7 0 14 -12
20 -32 4 -13 4 -19 0 -23 -2 -3 -9 -3 -9 -1 0 1 -1 2 -3 2 -1 0 -6 6 -11 13
-4 7 -9 13 -10 14 -4 2 -27 1 -28 -1 0 -1 -1 -2 -3 -2 -2 0 -11 -20 -11 -26 0
-13 -25 -19 -35 -9 -5 5 -5 6 -4 21 0 9 1 17 2 18 0 1 1 6 1 12 1 10 -6 30
-10 30 -3 0 4 7 10 10 13 7 36 7 52 1z m172 -55 c12 -9 12 -33 1 -42 -8 -6
-29 -6 -36 1 -6 4 -6 6 -6 20 0 14 0 16 6 20 7 7 28 7 35 1z m-753 -63 c3 -5
3 -5 0 -10 -2 -3 -5 -5 -7 -5 -2 0 -5 2 -7 5 -3 5 -3 5 0 10 2 3 5 5 7 5 2 0
5 -2 7 -5z m89 -2 c7 -8 7 -26 0 -31 -7 -5 -9 -5 -15 1 -7 6 -8 23 -1 30 6 6
10 6 16 0z"/>
</g>
</svg>
