<?xml version="1.0" standalone="no"?>
<!DOCTYPE svg PUBLIC "-//W3C//DTD SVG 20010904//EN"
 "http://www.w3.org/TR/2001/REC-SVG-20010904/DTD/svg10.dtd">
<svg version="1.0" xmlns="http://www.w3.org/2000/svg"
 width="1000.000000pt" height="2850.000000pt" viewBox="0 0 1000.000000 2850.000000"
 preserveAspectRatio="xMidYMid meet">
<metadata>
Created by potrace 1.15, written by Peter Selinger 2001-2017
</metadata>
<g transform="translate(0.000000,2850.000000) scale(0.500000,-0.500000)"
fill="#000000" stroke="none">
<path d="M378 3811 c-4 -1 -9 -4 -11 -5 -4 -3 -24 -10 -29 -10 -5 0 -26 7 -29
10 -1 1 -7 2 -12 2 -9 0 -12 -1 -18 -6 -14 -12 -13 -4 -13 -189 l1 -166 -6 -6
-6 -6 -57 0 c-56 0 -68 -1 -68 -3 0 -1 -3 -3 -7 -4 -3 -2 -9 -7 -12 -12 -3 -5
-10 -14 -16 -22 -8 -11 -16 -26 -18 -36 -3 -15 -5 -20 -10 -28 -3 -5 -8 -11
-9 -14 -9 -12 -10 -23 -10 -84 0 -48 1 -59 3 -65 4 -9 14 -21 18 -21 2 0 3 -1
3 -2 0 -2 11 -3 75 -3 l64 0 11 5 c6 3 13 7 15 9 12 11 28 14 39 8 14 -9 6
-36 -12 -42 -4 -1 -4 -3 -4 -20 l0 -18 15 -8 c17 -9 18 -10 25 -20 4 -5 6 -10
6 -16 0 -16 -14 -21 -38 -14 -29 9 -46 -2 -56 -35 -3 -10 -11 -37 -18 -60 -7
-23 -14 -44 -15 -48 -2 -4 -4 -10 -5 -14 -3 -11 -27 -76 -36 -100 -4 -8 -14
-33 -24 -55 -24 -56 -42 -91 -77 -152 -19 -31 -19 -33 -19 -45 0 -10 1 -14 6
-22 3 -5 6 -11 7 -14 1 -5 25 -59 30 -69 2 -3 3 -7 3 -8 0 -7 10 -11 25 -11
12 0 15 1 22 6 10 8 25 8 32 1 7 -7 7 -23 0 -30 -3 -3 -6 -5 -7 -5 -12 -1 -16
-2 -24 -5 -18 -8 -21 -23 -9 -54 4 -11 10 -30 14 -41 9 -28 13 -32 29 -32 6 0
14 1 17 2 9 4 53 98 82 174 3 7 6 15 7 16 1 2 2 6 2 9 l0 5 6 -5 5 -5 1 -183
c1 -172 1 -182 5 -189 2 -5 4 -8 5 -8 0 0 7 0 15 0 l13 0 0 -11 0 -11 -13 0
c-8 0 -15 0 -15 0 -4 0 -9 -16 -10 -33 -1 -37 9 -50 49 -61 7 -2 10 -4 15 -13
8 -13 12 -15 29 -15 l13 0 5 10 c3 5 9 13 13 18 11 11 13 16 13 39 0 17 1 21
4 25 4 4 21 7 52 9 19 1 21 1 24 -3 9 -9 10 -35 2 -43 -3 -4 -26 -12 -36 -13
-2 -1 -5 -4 -8 -9 -16 -24 13 -54 49 -50 6 1 12 1 14 1 1 1 2 1 2 2 0 1 1 2 3
2 4 0 14 12 18 21 4 10 4 44 0 55 l-3 6 -16 0 c-16 -1 -16 -1 -16 4 0 5 0 5
16 4 15 0 16 0 18 4 2 6 1 9 -4 15 -1 1 -2 3 -1 3 1 0 0 1 -2 3 -2 2 -3 3 -2
3 1 0 0 1 -2 3 -2 1 -5 2 -6 2 -1 -1 -1 -1 -1 0 1 1 -3 7 -8 13 -15 19 -18 43
-5 53 35 29 34 28 34 79 l0 35 -10 20 c-13 27 -13 33 0 60 l10 20 0 141 c0
154 0 148 -11 157 -8 5 -26 7 -32 2 -11 -6 -18 -28 -18 -50 1 -19 -5 -26 -22
-30 -3 0 -9 0 -13 1 -32 8 -42 4 -51 -21 -10 -26 -27 -27 -42 -4 -10 14 -28
24 -44 22 -12 -1 -12 -1 -16 6 -6 10 -6 27 1 33 7 7 20 6 34 -3 13 -8 25 -12
53 -16 26 -4 31 -2 41 15 9 14 10 15 24 27 8 7 23 32 23 39 0 5 7 11 20 18 24
14 28 16 32 20 9 8 23 3 28 -10 1 -3 4 -14 6 -25 6 -29 14 -51 21 -57 5 -5 7
-6 19 -6 15 0 15 0 29 19 3 4 6 8 7 9 1 1 6 7 11 14 5 7 10 13 11 14 1 1 6 7
11 14 6 7 10 13 11 14 1 1 4 5 7 9 3 4 8 11 11 14 l5 5 4 -7 c3 -7 3 -10 1
-28 -5 -41 -5 -47 1 -67 8 -27 7 -36 -6 -52 -15 -21 -16 -22 -28 -81 -9 -41
-8 -36 -11 -46 -4 -16 2 -32 19 -49 11 -10 13 -17 11 -26 -5 -17 0 -36 13 -47
11 -10 13 -15 14 -27 0 -15 -4 -20 -20 -32 -15 -11 -28 -27 -33 -41 -5 -13
-22 -16 -37 -6 -9 6 -15 8 -26 6 -13 -2 -19 -8 -33 -36 -12 -25 -12 -26 -13
-43 -1 -10 0 -20 1 -24 1 -4 2 -8 3 -9 4 -16 14 -28 32 -41 32 -21 91 -67 112
-87 11 -11 16 -13 26 -13 14 0 23 6 33 22 14 23 48 91 61 124 2 4 4 8 5 10 2
4 19 48 26 68 4 12 5 13 2 28 -2 15 -5 24 -8 24 -4 0 -2 7 2 10 2 1 4 3 4 5 0
1 3 4 7 6 7 4 23 21 32 33 3 5 6 9 5 9 0 0 0 1 1 3 0 2 1 13 2 25 0 12 3 28 5
36 2 8 5 23 8 35 2 12 5 24 6 28 1 4 2 16 2 27 0 13 1 25 3 32 2 7 4 18 4 25
1 13 0 14 -7 21 -4 5 -11 11 -16 14 -11 7 -13 10 -16 21 -3 10 0 24 7 30 2 2
11 6 20 9 22 7 42 7 54 -1 5 -4 9 -6 10 -6 0 0 10 -6 21 -12 18 -11 23 -13 32
-14 22 -1 34 11 54 51 12 24 10 35 -8 54 -12 11 -13 14 -12 27 1 8 8 14 18 14
5 0 10 1 12 2 3 1 5 0 8 -4 7 -6 8 -10 9 -24 4 -31 17 -65 35 -84 15 -17 17
-31 6 -43 -1 -2 -6 -8 -10 -13 -10 -12 -14 -17 -40 -43 -19 -20 -24 -27 -27
-36 -3 -7 -5 -22 -5 -31 0 -13 -3 -19 -15 -24 -16 -8 -25 -18 -32 -33 -4 -8
-9 -16 -11 -18 -5 -4 -21 -4 -26 0 -2 2 -4 3 -5 3 -1 0 -4 2 -6 4 -4 3 -9 4
-19 4 -18 0 -21 -3 -21 -22 0 -13 0 -13 10 -26 13 -17 17 -25 17 -32 -1 -8
-13 -18 -21 -19 -3 0 -9 -1 -12 -2 -5 -1 -5 -2 -2 -6 5 -5 11 -19 10 -21 -1
-1 0 -2 1 -2 1 0 2 -1 2 -3 0 -3 4 -5 25 -8 10 -2 13 -8 13 -22 0 -6 1 -16 2
-21 2 -9 4 -10 11 -14 14 -7 24 -5 46 10 8 5 16 10 17 10 1 0 2 1 2 2 1 2 18
13 25 16 7 3 20 3 26 0 10 -6 31 -24 31 -27 0 -5 -9 -12 -17 -14 -1 0 -11 -3
-21 -6 -10 -3 -21 -6 -24 -6 -3 -1 -9 -2 -13 -3 -13 -4 -11 -4 -69 -16 -36 -8
-101 -19 -115 -21 -9 -1 -18 -6 -22 -12 -5 -8 -7 -30 -3 -34 9 -7 54 -78 70
-109 12 -24 33 -35 59 -30 39 7 46 11 49 32 2 13 2 19 -1 21 -2 3 -1 13 3 17
8 8 24 2 24 -9 0 -9 2 -14 4 -15 1 0 2 -1 1 -2 -2 -3 11 -16 20 -18 9 -3 26 1
88 18 46 13 55 18 66 41 5 11 11 17 18 17 2 0 12 -3 21 -7 24 -10 31 -10 61 2
38 15 47 15 82 1 42 -17 54 -21 63 -20 8 0 25 6 28 10 1 0 5 3 9 5 7 3 8 3 15
0 5 -2 9 -6 13 -13 12 -22 30 -35 58 -41 7 -1 22 -5 34 -8 82 -19 177 -35 185
-30 1 1 4 2 6 2 3 1 8 3 12 7 6 5 11 12 32 47 7 13 24 39 26 41 10 9 15 28 11
47 0 4 -1 11 -2 15 -1 7 -5 20 -7 23 -1 1 -1 3 0 4 0 1 0 1 -1 0 -2 -1 -3 0
-3 2 0 2 -1 3 -2 2 -1 -1 -2 -1 -2 0 0 4 -19 3 -30 0 -6 -2 -14 -4 -18 -4 -8
-1 -23 6 -31 13 -13 11 -26 16 -48 20 -31 5 -44 -1 -53 -24 -2 -6 -7 -17 -11
-25 -6 -10 -7 -15 -7 -22 1 -17 4 -19 32 -24 9 -2 19 -4 21 -4 5 -2 8 -9 6
-16 -2 -11 -7 -12 -33 -7 l-23 5 -14 -7 c-19 -8 -28 -9 -33 -3 -4 4 -4 4 0 12
4 8 15 20 22 24 11 5 13 31 4 47 -3 6 -4 11 -4 19 2 32 -7 44 -36 50 -14 3
-28 9 -33 14 -1 1 -3 6 -4 10 -2 15 5 19 24 13 17 -5 43 -4 43 2 0 1 4 4 8 7
9 5 74 69 90 88 12 15 16 27 16 50 0 20 2 22 25 30 9 3 18 8 22 12 6 6 7 7 7
18 0 18 -6 26 -31 39 -7 3 -21 10 -31 16 -63 33 -63 33 -82 33 -126 -3 -135
-3 -152 -17 -20 -16 -30 -16 -50 0 -14 12 -25 14 -60 14 l-31 0 -8 6 c-6 4 -6
6 -4 7 3 1 3 3 3 8 -1 6 -1 7 8 12 8 4 12 5 29 5 18 0 21 1 37 7 25 11 27 11
38 8 5 -2 11 -5 14 -6 16 -9 35 -10 63 -5 6 1 10 2 11 2 3 0 23 7 28 10 10 7
13 29 6 43 -6 10 -6 28 -1 36 6 10 12 11 50 8 31 -3 37 -7 53 -33 2 -3 6 -10
9 -15 19 -32 23 -36 40 -38 10 -1 12 -1 28 8 22 12 38 20 70 38 4 2 14 8 22
12 17 9 23 14 27 24 6 12 5 21 -2 34 -4 7 -7 12 -8 13 -1 0 -2 1 -2 3 0 1 -2
4 -4 7 -2 3 -9 12 -15 21 -7 9 -13 17 -15 19 -6 5 -2 16 11 28 14 13 27 48 71
188 8 23 9 37 3 48 -4 7 -12 16 -18 17 -2 1 -6 2 -8 3 -6 2 -109 22 -118 22
-6 1 -7 1 -3 1 4 1 5 2 5 5 -2 4 2 5 27 7 20 2 20 1 20 3 0 1 1 2 3 2 4 0 14
12 18 21 3 7 3 14 3 41 -1 33 -1 33 -9 52 -10 26 -9 35 5 66 5 11 6 169 1 181
-4 9 -14 21 -18 21 -2 0 -3 1 -3 2 0 1 -1 2 -2 2 -2 0 -63 1 -136 1 l-132 1
-9 5 c-7 4 -9 6 -11 15 -7 20 -5 23 19 36 11 5 19 11 23 16 11 13 16 15 37 15
20 -1 43 -4 49 -7 2 -1 7 -8 10 -16 10 -19 13 -24 25 -29 l11 -5 78 1 c82 1
84 1 84 3 0 1 1 2 3 2 7 0 24 29 20 36 -1 2 -1 13 0 100 1 64 1 71 -9 82 -6 8
-23 18 -32 19 -3 1 -10 2 -16 3 -6 1 -29 2 -52 2 -41 0 -41 0 -52 -5 -8 -4
-12 -8 -18 -18 -10 -15 -14 -19 -22 -19 -8 0 -12 4 -22 19 -6 10 -10 14 -18
18 l-11 5 -124 0 c-148 0 -135 -2 -149 28 -14 32 -33 67 -40 75 -14 15 -30 17
-56 7 -9 -3 -18 -6 -20 -7 -7 -2 -20 -8 -20 -9 0 -1 -1 -2 -2 -2 -3 0 -15 -12
-19 -20 -7 -11 -12 -12 -42 -6 -11 2 -14 2 -21 0 -5 -1 -10 -3 -11 -3 -9 -3
-31 -11 -35 -13 -14 -8 -23 -22 -22 -34 1 -6 -5 -12 -19 -17 -14 -5 -24 -10
-30 -17 -17 -19 -33 -18 -50 0 -4 4 -12 10 -19 13 l-12 5 -51 0 c-56 -1 -58
-2 -74 -18 -12 -11 -18 -14 -28 -14 -10 0 -16 3 -28 14 -12 12 -22 17 -39 17
-17 0 -26 -1 -26 -3 0 -1 -1 -2 -3 -2 -4 0 -14 -12 -18 -21 -4 -11 -4 -182 1
-208 2 -15 2 -19 0 -33 -4 -21 -5 -191 -2 -195 1 -1 2 -4 2 -6 0 -4 17 -21 21
-21 4 0 17 -13 17 -18 0 -5 -13 -18 -17 -18 -4 0 -21 -17 -21 -21 0 -2 -1 -5
-2 -6 -2 -2 -3 -132 -1 -138 2 -6 5 -13 8 -18 1 -2 4 -9 8 -15 8 -16 7 -28 -6
-47 -11 -17 -15 -28 -16 -57 0 -17 -2 -26 -4 -30 -5 -10 -7 -10 -11 -2 -8 14
-17 23 -35 32 -22 11 -24 13 -22 35 2 23 -1 33 -11 50 -4 7 -8 14 -8 15 0 1
-2 3 -5 4 -3 1 -7 3 -9 4 -3 1 -6 2 -7 2 -7 2 -8 4 -10 19 -1 21 -4 29 -13 43
-4 6 -12 21 -19 31 -14 23 -20 38 -23 55 -1 11 -1 11 5 17 l6 6 38 0 c36 0 37
0 42 5 7 7 11 30 6 36 -2 1 -3 4 -3 6 0 21 -3 45 -6 53 -5 14 1 27 13 27 9 0
14 -6 21 -27 3 -10 6 -17 6 -16 0 1 6 2 14 2 14 0 15 0 19 6 4 5 4 7 4 84 l0
78 -6 12 c-6 13 -13 19 -29 25 -13 5 -20 5 -29 1 -10 -5 -14 -9 -19 -24 -7
-19 -10 -21 -22 -19 -10 2 -23 2 -52 -1 -11 -1 -12 -1 -17 4 -7 7 -7 18 2 44
l7 21 0 161 c0 142 0 161 -3 168 -4 9 -14 21 -18 21 -2 0 -3 1 -3 2 0 2 -2 2
-62 3 -44 1 -59 0 -66 -2z m27 -76 c3 -3 3 -3 0 -6 -3 -3 -3 -3 -6 0 -3 2 -3
3 -1 6 4 4 4 4 7 0z m1018 -90 c13 -4 25 -15 25 -22 1 -13 0 -18 -6 -24 -5 -5
-7 -6 -16 -6 -17 0 -30 15 -33 38 -2 16 8 21 30 14z m426 -123 c11 -10 3 -28
-11 -28 -9 0 -16 6 -16 16 0 14 17 22 27 12z m-458 -5 c6 -6 7 -22 1 -29 -4
-6 -18 -8 -26 -5 -7 3 -10 8 -10 20 0 13 6 19 20 19 8 0 11 -1 15 -5z m-478
-11 c24 -11 30 -18 21 -28 -4 -4 -6 -4 -30 -4 -37 1 -42 4 -42 23 0 22 18 25
51 9z m378 -42 c4 -3 9 -7 11 -9 3 -4 22 -14 22 -12 0 1 2 -1 5 -6 3 -4 6 -7
7 -7 3 0 1 -9 -5 -15 l-6 -6 -19 1 c-17 1 -20 2 -27 7 -4 3 -7 5 -6 5 1 0 0 1
-1 3 -3 4 -10 25 -10 31 0 2 2 7 4 9 6 7 15 6 25 -1z m-891 -18 c1 0 5 -3 8
-6 5 -5 6 -7 6 -18 0 -11 -1 -13 -6 -18 -6 -6 -7 -6 -18 -6 -11 0 -12 0 -18 6
-5 5 -6 7 -6 17 0 14 3 20 12 24 5 2 8 2 22 1z m633 -11 c8 -8 8 -12 0 -20
l-6 -6 -24 0 -24 0 -6 6 c-8 8 -8 12 0 20 l6 6 24 0 24 0 6 -6z m510 -65 c4
-6 4 -24 -1 -30 -7 -9 -27 -9 -34 0 -5 6 -5 24 0 30 7 9 27 9 35 0z m282 -20
c11 -10 3 -28 -11 -28 -9 0 -16 6 -16 16 0 14 17 22 27 12z m-618 -9 c3 -5 3
-5 0 -10 -2 -3 -5 -5 -7 -5 -2 0 -5 2 -7 5 -3 5 -3 5 0 10 2 3 5 5 7 5 2 0 5
-2 7 -5z m150 -62 c6 -4 6 -6 6 -19 0 -14 -1 -16 -6 -23 -13 -17 -19 -29 -17
-30 1 -1 -2 -3 -6 -6 -5 -3 -8 -7 -8 -10 0 -3 -1 -3 -2 -1 -1 2 -6 3 -18 3
-16 0 -17 0 -23 6 -6 7 -8 20 -4 24 2 1 5 6 7 10 2 4 4 7 4 6 0 -1 2 0 5 3 6
4 12 13 19 27 6 12 11 15 25 15 11 0 14 -1 18 -5z m-320 -41 c0 -16 1 -30 1
-31 1 -1 -2 -5 -5 -8 -6 -6 -6 -6 -30 -6 -24 0 -24 0 -30 6 -9 9 -9 20 1 28 3
4 6 6 6 5 0 -3 17 4 23 10 5 4 13 19 13 23 0 1 2 4 5 7 l6 6 5 -5 c4 -4 4 -6
5 -35z m-498 31 c4 -4 5 -7 5 -13 0 -11 -7 -18 -18 -18 -11 0 -18 7 -18 18 0
11 7 18 18 18 6 0 9 -1 13 -5z m256 -8 c3 -3 3 -3 0 -6 -3 -3 -3 -3 -6 0 -3 2
-3 3 -1 6 4 4 4 4 7 0z m811 -28 c19 0 28 -21 15 -34 -3 -3 -7 -6 -7 -6 -1 1
-9 0 -18 -2 -16 -3 -28 -4 -37 -3 -2 0 -6 3 -9 6 -5 5 -6 7 -6 17 0 22 8 27
35 25 10 -1 22 -2 27 -3z m-1253 -34 c6 -6 7 -17 2 -31 -2 -6 -4 -16 -4 -30 0
-23 -2 -27 -11 -27 -8 0 -12 5 -12 16 0 20 -2 31 -10 48 -3 5 0 19 5 24 7 7
23 7 30 0z m562 0 c3 -3 3 -3 0 -6 -3 -3 -3 -3 -6 0 -3 2 -3 3 -1 6 4 4 4 4 7
0z m812 -27 c5 -5 6 -7 6 -16 0 -9 -1 -11 -7 -16 -5 -6 -7 -7 -16 -7 -9 0 -11
1 -16 7 -9 8 -9 23 -1 32 9 9 24 9 34 0z m-388 -23 c3 -5 3 -5 0 -10 -2 -3 -5
-5 -7 -5 -2 0 -5 2 -7 5 -3 5 -3 5 0 10 2 3 5 5 7 5 2 0 5 -2 7 -5z m-273 -47
c5 -5 5 -11 0 -16 -10 -10 -27 5 -16 16 4 4 12 4 16 0z m668 -36 c2 -1 8 -10
12 -19 8 -16 11 -20 21 -25 5 -3 5 -4 2 -7 -2 -2 -4 -3 -5 -2 -1 1 -2 0 -2 -1
0 -2 -3 -3 -12 -6 -2 0 -15 -1 -29 -2 -31 -1 -41 -5 -50 -21 -10 -17 -16 -23
-25 -23 -9 0 -12 3 -23 20 -6 9 -10 14 -18 18 l-10 6 -79 0 c-86 0 -88 0 -98
-11 -6 -6 -13 -21 -15 -33 -3 -19 -22 -34 -33 -26 -4 4 -4 5 -3 15 0 7 2 12 3
13 1 1 1 6 0 11 -1 4 -2 9 -2 9 0 1 -3 5 -7 10 -6 7 -8 7 -17 7 -11 0 -19 -6
-27 -17 -16 -24 -29 -24 -44 0 -6 9 -21 19 -30 21 -6 1 -192 0 -196 -1 -2 0
-3 -1 -3 -2 0 -1 -3 -3 -7 -5 -5 -2 -10 -8 -17 -18 -12 -18 -17 -22 -31 -22
-19 0 -28 10 -27 29 0 19 1 21 7 26 l6 5 68 1 c79 1 77 1 97 22 13 13 14 14
23 14 5 0 9 -1 10 -2 1 -1 6 -3 13 -5 11 -3 22 -3 45 0 10 2 18 -2 29 -12 4
-4 11 -9 15 -12 l8 -4 196 0 196 0 9 6 c7 5 11 9 17 23 5 9 10 18 12 19 4 4
16 4 21 1z m-905 -88 c5 -5 6 -7 6 -16 0 -9 -1 -11 -7 -16 -5 -6 -7 -7 -16 -7
-9 0 -11 1 -16 7 -9 8 -9 23 -1 32 9 9 24 9 34 0z m-259 -1 c1 -2 4 -3 6 -3 6
0 6 -2 -1 -19 -7 -18 -13 -23 -24 -23 -14 0 -15 0 -21 6 -5 5 -6 7 -6 17 0 14
3 20 12 24 7 3 31 1 34 -2z m1035 -56 c3 -3 3 -3 0 -6 -3 -3 -3 -3 -6 0 -3 2
-3 3 -1 6 4 4 4 4 7 0z m-663 -38 l-5 -5 -4 4 -5 5 4 4 5 5 4 -4 5 -5 -4 -4z
m601 4 c4 -4 5 -7 5 -14 0 -16 -3 -19 -20 -19 -17 0 -20 3 -20 19 0 13 6 19
20 19 8 0 11 -1 15 -5z m-1168 -7 c11 -10 3 -28 -11 -28 -9 0 -16 6 -16 16 0
14 17 22 27 12z m1087 -31 c4 -5 5 -8 2 -26 -1 -4 -13 -9 -20 -9 -13 0 -20 14
-14 29 4 11 24 15 32 6z m77 -1 c-3 -18 -3 -19 -7 -19 -3 -1 -6 2 -9 7 -2 4
-4 7 -4 8 0 1 0 3 -1 5 -2 3 -1 3 10 3 11 0 11 0 11 -4z m310 -26 c6 -4 10
-12 10 -23 0 -13 -4 -21 -13 -26 -5 -2 -11 -7 -15 -10 -7 -6 -8 -8 -8 -17 0
-6 -1 -11 -4 -14 -2 -2 -2 -4 -1 -5 3 -2 -1 -10 -8 -15 -13 -9 -33 -3 -34 10
-1 13 0 15 13 28 10 10 13 15 14 21 1 4 2 10 3 13 1 3 1 7 0 9 -3 4 0 19 5 24
7 8 26 11 38 5z m-191 -14 c3 -3 5 -6 3 -7 -3 -1 -2 -27 2 -35 2 -3 4 -12 4
-18 0 -7 1 -13 2 -13 0 -1 0 -3 -2 -4 -1 -2 -3 -4 -3 -5 -1 -1 -3 -2 -6 -3 -6
0 -9 -6 -7 -17 0 -5 0 -8 0 -6 -1 1 -2 1 -3 1 -4 -3 -41 -2 -48 0 -5 2 -8 2
-8 2 0 -1 -15 5 -30 12 -5 3 -8 3 -18 1 -15 -2 -20 -7 -28 -24 -7 -17 -11 -20
-25 -22 -46 -7 -134 -7 -161 0 -30 8 -44 23 -44 46 0 19 9 27 29 26 8 -1 13
-3 27 -12 9 -6 17 -12 18 -12 0 -1 2 -2 3 -2 1 0 3 -1 3 -2 1 -1 3 -2 6 -3 3
0 8 -1 12 -2 5 -1 9 0 14 2 4 1 6 3 5 3 -1 0 0 1 1 3 1 2 3 5 3 8 3 19 8 25
19 25 12 0 16 -6 15 -24 -1 -23 4 -30 22 -30 l12 1 16 15 c9 9 18 17 20 19 2
2 11 11 20 20 l15 17 0 14 c0 11 -1 15 -4 18 -3 3 -3 3 4 9 l8 6 49 -1 50 -1
5 -5z m-559 3 c5 -1 9 -2 9 -1 0 0 1 -1 2 -2 1 -2 5 -4 8 -4 4 0 4 -1 1 -1 -6
-2 -13 -9 -17 -19 -5 -10 -15 -20 -17 -18 -1 1 -7 3 -13 5 -6 2 -16 6 -22 8
-14 6 -22 6 -35 2 -14 -5 -37 -18 -42 -24 0 -1 -1 -9 -1 -17 1 -16 -1 -15 21
-26 9 -5 13 -11 17 -24 2 -12 0 -25 -6 -30 -8 -9 -27 -9 -39 -2 -12 7 -17 39
-10 57 4 8 4 11 6 30 1 10 1 14 -3 22 -7 17 -3 41 8 46 2 0 30 1 63 1 46 0 63
-1 70 -3z m108 0 c5 -1 9 -2 10 -1 1 0 1 0 1 -2 0 -1 3 -3 7 -4 5 -1 5 -2 1
-2 -3 0 -9 -5 -17 -13 -11 -11 -14 -13 -20 -13 -6 0 -9 2 -20 13 -8 8 -14 13
-17 13 -4 0 -4 1 2 2 3 1 6 3 6 4 0 2 0 2 1 2 1 -1 5 0 10 1 11 4 24 4 36 0z
m-429 -13 c7 -4 22 -23 25 -32 4 -12 4 -19 -2 -24 -4 -4 -6 -4 -18 -3 -30 2
-54 19 -61 43 -3 9 3 15 14 14 4 0 9 1 11 2 5 4 23 4 31 0z m-255 -24 c5 -5 6
-7 6 -16 0 -13 -5 -19 -15 -22 -17 -5 -31 5 -31 22 0 8 1 11 6 16 9 9 24 9 34
0z m-270 -23 c3 -3 3 -3 0 -6 -3 -3 -3 -3 -6 0 -3 2 -3 3 -1 6 4 4 4 4 7 0z
m1442 -55 c5 -5 5 -21 -2 -27 -6 -7 -20 -7 -28 -2 -3 2 -6 4 -7 4 0 0 -1 2 -3
13 0 2 -1 6 -2 8 -1 2 0 5 2 7 3 3 4 3 8 3 1 0 3 1 4 3 3 3 4 2 14 -1 5 -2 12
-6 14 -8z m-1483 -75 c3 -3 4 -7 4 -14 0 -13 -6 -19 -19 -19 -13 0 -19 6 -19
19 0 7 1 11 4 14 7 8 23 8 30 0z m-139 -104 c3 -3 3 -3 0 -6 -3 -3 -3 -3 -6 0
-3 2 -3 3 -1 6 4 4 4 4 7 0z m1238 -45 c6 -2 13 -6 15 -7 2 -2 4 -3 5 -3 1 0
5 -3 9 -7 8 -8 8 -8 7 -18 0 -8 1 -14 5 -28 4 -10 7 -24 8 -30 0 -12 0 -13 -5
-18 -6 -7 -22 -7 -30 -1 -4 3 -21 30 -21 33 0 2 -13 20 -17 25 -3 3 -5 6 -5 6
0 4 -15 13 -22 14 -5 1 -16 1 -26 0 -18 -2 -19 -2 -22 2 -9 10 -2 22 11 22 9
0 37 7 45 11 8 4 28 4 43 -1z m-565 -13 l-5 -5 -4 4 -5 5 4 4 5 5 4 -4 5 -5
-4 -4z m928 -88 c3 -3 4 -7 4 -14 0 -13 -6 -19 -19 -19 -13 0 -19 6 -19 19 0
7 1 11 4 14 7 8 23 8 30 0z m-451 -9 c10 -9 3 -26 -10 -26 -8 0 -15 7 -15 15
0 13 16 20 25 11z m-824 -17 c3 -2 8 -8 12 -15 8 -11 18 -22 27 -28 8 -5 14
-13 14 -18 1 -19 -5 -25 -24 -24 -5 0 -7 1 -25 21 -6 6 -15 13 -21 16 -15 9
-20 15 -20 28 0 10 1 12 6 17 5 5 7 6 16 6 7 0 13 -1 15 -3z m1108 -39 c7 -6
7 -16 0 -22 -5 -4 -6 -4 -23 -3 -14 2 -19 3 -21 5 -2 4 0 6 12 14 17 12 25 13
32 6z m-167 -10 l19 -9 43 -1 c24 -1 46 -2 49 -3 6 -1 15 -9 10 -9 -3 0 -10
-7 -15 -17 -5 -10 -13 -15 -23 -15 -10 -1 -31 -4 -34 -6 -8 -5 -27 -7 -40 -3
-46 12 -53 15 -68 30 -11 12 -12 13 -11 20 1 8 7 14 18 18 19 9 26 8 52 -5z
m-127 -39 c8 -5 10 -10 8 -27 0 -8 -2 -25 -2 -38 -1 -19 -3 -27 -9 -45 -8 -24
-12 -30 -20 -24 -8 5 -12 25 -14 77 -2 51 -2 54 10 59 7 3 21 2 27 -2z m-792
-58 c4 -4 5 -7 5 -15 0 -14 -6 -20 -20 -20 -14 0 -20 6 -20 20 0 14 6 20 20
20 8 0 11 -1 15 -5z m372 -12 c8 -6 9 -8 6 -14 -3 -6 -7 -10 -18 -20 -10 -9
-19 -18 -19 -19 0 -3 -14 -10 -19 -10 -2 1 -5 3 -7 6 -3 7 0 14 12 29 4 6 8
11 8 12 0 2 8 13 13 17 6 5 16 5 24 -1z m700 -35 c15 -7 21 -22 17 -39 -3 -11
-20 -30 -36 -40 -16 -10 -37 -7 -44 5 -4 7 -3 25 0 32 2 4 8 15 12 24 5 10 11
19 13 21 9 6 22 5 38 -3z m-211 -74 c5 -5 5 -15 0 -20 -9 -9 -24 -2 -24 10 0
8 6 14 14 14 3 0 8 -2 10 -4z m-533 -5 c3 -3 3 -3 0 -6 -3 -3 -3 -3 -6 0 -3 2
-3 3 -1 6 4 4 4 4 7 0z m-402 -16 c6 -4 6 -6 6 -20 0 -14 0 -16 -6 -20 -7 -7
-28 -7 -36 -1 -5 4 -5 5 -5 21 0 16 0 17 5 21 8 6 29 6 36 -1z m1455 -86 c-4
-5 -5 -5 -8 -2 -5 4 -5 7 -1 11 4 4 4 4 8 0 l5 -5 -4 -4z"/>
</g>
</svg>
