<?xml version="1.0" standalone="no"?>
<!DOCTYPE svg PUBLIC "-//W3C//DTD SVG 20010904//EN"
 "http://www.w3.org/TR/2001/REC-SVG-20010904/DTD/svg10.dtd">
<svg version="1.0" xmlns="http://www.w3.org/2000/svg"
 width="1100.000000pt" height="2850.000000pt" viewBox="0 0 1100.000000 2850.000000"
 preserveAspectRatio="xMidYMid meet">
<metadata>
Created by potrace 1.15, written by Peter Selinger 2001-2017
</metadata>
<g transform="translate(0.000000,2850.000000) scale(0.500000,-0.500000)"
fill="#000000" stroke="none">
<path d="M1755 3793 c-11 -6 -26 -14 -33 -17 -7 -3 -22 -10 -33 -16 -17 -8
-28 -13 -44 -20 -27 -11 -34 -19 -36 -38 -1 -6 -2 -12 -1 -14 1 -7 13 -43 16
-49 3 -8 3 -24 -1 -32 -7 -15 -40 -16 -48 -1 -1 3 -4 16 -6 29 -4 26 -6 33
-17 43 -11 11 -25 14 -40 9 -6 -2 -12 -4 -13 -5 -1 0 -3 -1 -4 -1 -1 0 -10 -4
-19 -7 -9 -4 -20 -7 -24 -8 -4 -1 -13 -4 -18 -6 -6 -3 -15 -6 -20 -7 -36 -10
-98 -30 -106 -33 -10 -5 -21 -18 -24 -30 -2 -9 -2 -422 1 -456 0 -7 0 -20 -2
-29 -2 -20 2 -33 13 -43 11 -10 12 -10 14 -10 1 0 3 -3 5 -6 3 -5 3 -7 0 -12
-2 -3 -4 -6 -5 -6 -2 0 -4 -1 -14 -10 -14 -12 -13 -9 -15 -171 -1 -80 -2 -151
-2 -158 0 -7 -1 -26 -2 -43 -1 -32 -2 -53 -4 -76 -2 -29 -7 -90 -8 -98 -3 -31
-7 -64 -10 -81 -1 -11 -3 -24 -4 -29 0 -5 -2 -13 -3 -19 -1 -5 -4 -23 -7 -39
-7 -36 -7 -40 -8 -36 -1 1 -3 2 -4 2 -5 0 -5 7 -4 34 1 33 3 79 5 173 2 84 2
87 -10 97 -7 7 -19 10 -34 11 -15 1 -23 8 -23 23 0 9 1 11 6 16 6 6 20 9 22 6
2 -3 28 8 33 13 8 9 6 24 -4 34 -4 4 -8 7 -9 7 -2 0 -3 1 -3 2 0 1 -1 2 -2 2
-2 0 -125 1 -274 2 -149 0 -269 1 -267 2 6 0 6 8 0 8 -2 1 79 2 180 2 185 1
189 1 189 4 0 1 2 2 5 3 5 1 14 12 22 27 7 12 14 17 28 17 14 0 21 -5 28 -17
8 -15 17 -26 22 -27 3 -1 5 -2 5 -3 0 -2 4 -3 34 -3 30 0 34 1 34 3 0 1 1 2 3
2 4 0 14 12 18 21 5 11 5 251 0 262 -4 9 -14 21 -18 21 -2 0 -3 1 -3 2 0 1 -1
2 -2 1 -3 -2 -18 14 -15 16 1 1 8 19 15 40 14 42 14 49 6 62 -4 7 -18 16 -26
18 -3 0 -14 3 -26 6 -66 15 -87 17 -98 10 -7 -5 -12 -21 -12 -36 0 -9 -1 -14
-3 -17 -8 -9 -28 -9 -35 0 -5 5 -5 23 -1 29 1 2 2 6 2 9 -1 13 10 22 32 26 5
1 11 3 13 5 2 1 20 8 40 15 64 21 97 35 107 45 9 9 9 9 9 22 0 12 -1 14 -14
36 -8 13 -14 24 -14 25 0 0 -2 4 -5 7 -4 4 -4 5 -2 5 2 0 3 1 3 2 0 4 11 7 25
9 8 1 15 1 17 1 1 1 2 1 2 2 0 1 1 2 3 2 4 0 14 12 18 21 4 10 4 26 -1 37 -4
9 -15 21 -22 23 -2 1 -6 4 -8 8 l-4 7 4 7 c2 4 6 7 8 8 7 2 18 14 22 23 5 10
6 42 2 54 -5 14 -22 25 -41 27 -19 2 -26 10 -26 28 0 18 7 26 26 28 19 2 36
13 41 27 3 11 3 84 -1 93 -4 9 -14 21 -18 21 -2 0 -3 1 -3 2 0 0 -2 2 -5 2 -4
1 -249 1 -546 1 -297 0 -542 0 -546 -1 -3 0 -5 -2 -5 -2 0 -1 -1 -2 -3 -2 -4
0 -14 -12 -18 -21 -3 -7 -3 -22 -3 -126 1 -133 0 -124 17 -142 20 -21 20 -29
0 -50 -17 -18 -16 4 -17 -247 -1 -208 -1 -223 2 -232 4 -10 12 -17 31 -29 10
-7 14 -10 18 -19 6 -11 18 -23 29 -27 27 -11 34 -20 24 -31 -5 -5 -11 -5 -24
1 -6 2 -17 6 -25 8 l-15 3 -13 -6 c-13 -5 -24 -15 -26 -22 0 -2 -1 -5 -2 -8 0
-3 -1 -31 -2 -63 -1 -32 -2 -66 -2 -76 -3 -71 -3 -66 -6 -122 -1 -11 -2 -24
-2 -29 0 -5 -1 -15 -2 -23 -3 -40 -5 -67 -8 -93 -4 -43 -5 -49 -6 -52 0 -2 -1
-9 -2 -16 -1 -7 -2 -17 -3 -23 -1 -5 -2 -14 -3 -19 0 -5 -2 -17 -4 -27 -1 -10
-3 -21 -4 -26 -6 -39 -27 -132 -39 -171 -7 -24 -8 -36 -5 -44 1 -2 2 -4 2 -6
2 -7 16 -17 50 -34 20 -10 37 -20 39 -21 2 -1 6 -4 9 -5 12 -7 56 -35 81 -53
8 -5 11 -6 20 -6 20 0 28 8 37 38 6 17 5 25 -4 45 -4 8 -8 16 -8 18 -1 4 6 12
14 16 11 6 20 16 25 26 5 11 5 35 -1 41 -1 3 -2 5 -2 6 1 0 0 0 -2 0 -2 0 -5
0 -6 1 -3 3 -13 3 -23 1 -12 -2 -17 4 -15 19 2 13 -3 30 -13 46 -8 13 -9 28 0
36 5 5 7 6 17 6 10 0 12 -1 17 -6 7 -7 8 -20 3 -33 -4 -10 -3 -41 1 -46 2 -2
6 -3 16 -3 l13 0 4 -7 c1 -5 3 -10 4 -13 1 -3 3 -6 4 -6 1 -1 2 -3 2 -3 0 -1
1 -4 3 -7 1 -3 2 -10 3 -15 1 -6 2 -12 2 -13 1 -2 2 -6 2 -9 1 -4 2 -9 2 -13
1 -4 2 -8 1 -8 0 -4 8 -20 14 -26 3 -3 10 -8 15 -10 10 -5 13 -5 60 -1 6 1
104 8 216 17 231 18 209 18 218 0 7 -14 15 -20 28 -23 10 -2 13 -2 18 0 9 4
40 13 45 13 4 0 14 -11 14 -16 0 -1 1 -4 1 -6 0 -2 2 -12 4 -24 2 -12 3 -23 4
-25 3 -21 14 -35 32 -40 10 -3 14 -3 41 -1 48 3 85 14 111 32 13 9 41 37 46
47 8 13 14 27 18 39 3 10 11 18 16 18 2 0 6 -3 10 -6 3 -3 7 -6 8 -6 1 0 12
-7 44 -30 12 -8 56 -42 63 -48 3 -2 7 -6 10 -8 3 -3 9 -8 14 -12 8 -8 8 -8 23
-8 8 0 15 1 14 2 -1 0 1 2 3 3 7 3 12 13 24 44 12 31 12 37 1 61 -13 26 -10
36 13 48 20 10 33 27 37 49 0 3 2 10 3 14 8 32 26 124 33 174 2 12 4 27 5 34
1 7 2 17 3 23 1 6 2 16 3 24 5 34 15 148 17 198 1 14 2 31 2 38 3 37 6 139 6
219 l0 66 6 6 c4 4 8 6 12 6 4 0 8 -2 12 -6 l6 -6 -1 -232 c0 -206 0 -233 3
-240 3 -7 10 -15 16 -16 1 0 3 -1 5 -2 10 -3 16 -5 17 -3 1 1 4 1 17 0 1 0 5
-3 8 -6 5 -5 6 -7 6 -18 0 -11 -1 -13 -6 -18 -3 -3 -7 -6 -8 -6 -13 -1 -16 -1
-17 0 -1 2 -7 0 -17 -3 -2 -1 -4 -2 -5 -2 -6 -1 -13 -9 -16 -16 -3 -7 -3 -21
-2 -118 0 -61 1 -114 1 -120 0 -5 -1 -48 -1 -94 -1 -74 -1 -84 2 -92 4 -9 14
-21 18 -21 2 0 3 -1 3 -2 0 -3 12 -3 107 -3 95 0 107 0 107 3 0 1 1 2 3 2 3 0
14 12 17 18 2 6 1 17 -2 36 -3 13 -3 16 1 32 4 16 4 27 5 287 0 192 0 273 -2
280 -2 12 -12 24 -25 33 -9 7 -13 14 -13 26 0 12 4 19 13 26 13 9 23 21 25 33
2 7 2 45 2 123 l-1 113 6 6 6 6 36 0 c37 0 47 1 47 3 0 1 1 2 3 2 4 0 14 12
18 21 5 11 5 217 0 228 -4 9 -14 21 -18 21 -2 0 -3 1 -3 2 0 3 -15 3 -195 3
l-184 0 -6 6 -6 6 1 109 1 109 6 7 c3 3 5 6 5 5 0 -3 210 60 219 67 1 1 6 2
11 4 9 2 96 37 113 44 4 2 15 7 23 10 17 8 20 12 20 26 0 13 -5 22 -11 22 -3
0 -5 1 -6 2 -1 1 -5 2 -9 3 -16 3 -19 7 -20 34 -2 30 -4 36 -16 51 -5 6 -13
17 -17 23 -4 6 -13 18 -19 26 -12 16 -22 29 -29 39 -8 13 -17 18 -33 19 -13 1
-13 1 -33 -10z m-916 -76 c6 -4 7 -18 3 -29 -4 -10 -9 -14 -21 -14 -15 0 -21
14 -14 32 5 11 23 18 32 11z m-54 -103 c2 -4 6 -10 8 -14 6 -12 13 -20 16 -20
2 0 3 -1 3 -2 0 -5 18 -6 87 -6 71 0 72 0 90 5 10 3 21 5 25 5 15 0 22 -18 11
-28 l-5 -5 -315 -1 c-298 -1 -314 -1 -322 -5 -8 -3 -52 -48 -55 -56 -3 -6 -13
-19 -17 -22 -4 -3 -11 -4 -24 -3 -2 0 -6 3 -9 6 -5 5 -6 7 -6 17 0 6 1 13 2
15 2 4 21 18 24 18 0 0 7 5 14 12 19 18 31 27 32 27 1 -1 2 0 2 2 0 1 5 4 12
8 l12 5 172 0 c169 0 188 1 188 6 0 1 1 2 3 2 3 0 10 8 16 20 8 16 13 20 22
20 8 0 9 -1 14 -6z m332 -39 c12 -12 3 -31 -13 -31 -11 0 -18 7 -18 18 0 11 7
18 18 18 6 0 9 -1 13 -5z m476 -45 c5 -5 6 -7 6 -16 0 -15 -8 -23 -23 -23 -9
0 -11 1 -16 7 -9 8 -9 23 -1 32 9 9 24 9 34 0z m-1233 -109 c8 -4 13 -21 10
-29 -2 -8 4 -27 13 -37 13 -14 17 -19 15 -19 -1 0 -8 -13 -22 -45 -2 -5 -4
-10 -4 -12 0 -3 0 -3 -3 1 -2 3 -5 6 -6 6 -1 1 -2 12 -3 24 -1 13 -2 25 -3 28
0 3 -1 6 -1 6 0 3 -18 20 -26 26 -11 7 -15 15 -15 28 0 7 5 22 8 22 0 0 4 1 8
3 9 3 21 2 29 -2z m521 -8 c7 -4 9 -9 10 -21 1 -6 2 -11 2 -13 3 -4 5 -19 2
-18 -1 1 -1 0 0 -2 1 -2 0 -3 -3 -3 -2 0 -4 -1 -4 -2 0 -2 -1 -2 -2 0 -1 1 -2
2 -3 1 -2 0 -7 1 -13 3 -5 2 -13 4 -16 4 -4 0 -10 2 -15 5 -8 6 -8 6 -6 10 3
4 4 8 5 22 1 15 28 24 43 14z m92 -65 l50 -1 5 -5 c6 -6 6 -6 1 -6 -2 0 -6 -1
-8 -3 -6 -4 -67 -30 -85 -36 -12 -4 -34 -14 -36 -17 -1 -1 -5 -3 -10 -6 -5 -2
-11 -6 -12 -8 -2 -1 -9 -3 -15 -4 -7 -1 -15 -3 -18 -4 -19 -7 -33 0 -33 17 0
16 4 19 34 19 29 1 34 3 42 17 5 7 6 11 6 23 1 8 2 15 2 15 1 1 2 2 1 3 -1 1
1 1 3 1 2 0 4 0 6 1 1 1 6 0 10 -2 6 -3 14 -4 57 -4z m-779 -7 l-5 -5 -4 4 -5
5 4 4 5 5 4 -4 5 -5 -4 -4z m480 1 c4 -3 7 -6 6 -6 -2 -1 -3 -6 -4 -13 0 -9
-2 -14 -6 -20 -3 -4 -6 -7 -6 -5 0 3 -26 14 -44 19 -2 0 -15 5 -30 10 -15 5
-30 9 -33 9 -5 0 -5 1 -2 1 3 1 4 2 4 4 -2 5 13 7 60 7 l46 0 9 -6z m-294
-108 c5 -3 21 -9 42 -16 19 -6 40 -12 47 -15 7 -2 15 -5 19 -6 9 -2 20 -7 21
-10 3 -7 -6 -10 -70 -23 -35 -7 -65 -13 -66 -14 -3 -3 -13 11 -16 20 -1 5 -4
14 -7 20 -2 7 -4 15 -4 19 0 15 11 33 20 33 2 0 4 1 4 4 0 2 1 1 1 -2 1 -2 5
-7 9 -10z m288 -11 c0 1 1 0 3 -1 3 -2 2 -3 -1 -8 -2 -3 -4 -8 -4 -11 0 -4 -1
-2 -2 4 -2 12 0 24 2 18 1 -2 2 -3 2 -2z m866 -123 c1 0 5 -3 8 -6 5 -5 6 -7
6 -18 0 -11 -1 -13 -6 -18 -6 -6 -7 -6 -18 -6 -11 0 -12 0 -18 6 -5 5 -6 7 -6
17 0 14 3 20 12 24 5 2 8 2 22 1z m227 -6 c5 -5 6 -7 6 -16 0 -15 -8 -23 -23
-23 -9 0 -11 1 -16 7 -9 8 -9 23 -1 32 9 9 24 9 34 0z m-1093 -34 c1 0 2 -1 2
-3 0 -1 1 -4 3 -5 2 -1 3 -4 2 -5 0 -1 1 -6 3 -10 l4 -8 -9 -6 c-8 -5 -8 -5
-45 -5 -43 0 -51 1 -53 6 -1 2 -3 4 -5 5 -2 0 -1 1 2 1 9 0 78 24 85 29 4 2 7
5 7 7 0 2 1 1 1 -1 1 -3 2 -5 3 -5z m276 -18 c38 -7 43 -8 53 -10 4 -1 12 -2
17 -2 6 0 7 -1 3 -1 -4 -1 -5 -2 -4 -4 2 -6 -9 -7 -57 -7 l-47 0 -8 5 c-8 5
-8 6 -7 10 4 6 15 17 17 15 1 0 16 -3 33 -6z m-712 -104 c5 -6 5 -12 0 -18 -7
-8 -22 -2 -22 9 0 11 15 17 22 9z m441 -14 c7 -6 7 -19 1 -25 -6 -7 -19 -7
-25 -1 -7 6 -7 19 -1 25 6 7 19 7 25 1z m387 -3 c7 -3 11 -13 11 -24 0 -14 -4
-20 -18 -28 -6 -4 -12 -8 -13 -9 -2 -2 -25 -10 -34 -12 -8 -1 -9 -1 -16 6 -8
8 -8 8 -4 10 2 1 4 5 5 8 1 3 2 6 3 6 1 0 2 2 2 4 0 2 1 4 2 3 2 -1 10 9 17
23 3 6 8 11 10 13 10 5 25 5 35 0z m-118 -20 c6 -4 6 -18 0 -22 -7 -4 -14 -4
-19 1 -14 13 4 31 19 21z m-353 -32 c3 -3 6 -7 6 -8 0 -3 -12 -14 -16 -14 -4
0 -16 11 -16 14 0 3 12 14 16 14 2 0 6 -3 10 -6z m214 1 c7 -3 43 -6 44 -4 2
3 21 2 27 -1 7 -5 10 -11 8 -24 -3 -22 -28 -26 -50 -8 -7 5 -26 15 -31 16 -2
0 -7 0 -11 -1 -6 -1 -8 0 -14 6 -4 4 -6 7 -6 8 1 0 4 3 7 7 6 6 12 7 26 1z
m-317 -24 c5 -5 5 -13 1 -20 -4 -5 -15 -6 -21 0 -9 9 -2 24 10 24 3 0 8 -2 10
-4z m1203 -16 c16 -8 34 -10 41 -5 8 5 23 4 29 -2 7 -7 7 -23 0 -30 -9 -9 -25
-7 -37 5 -7 7 -38 13 -41 8 -2 -4 -15 -2 -20 2 -10 10 -4 28 10 28 3 0 11 -3
18 -6z m-694 -29 c3 -3 3 -3 0 -6 -4 -5 -11 1 -7 6 4 4 4 4 7 0z m-485 -36
l-5 -5 -4 4 -5 5 4 4 5 5 4 -4 5 -5 -4 -4z m-133 -58 c4 -3 9 -8 10 -11 1 -2
3 -4 5 -4 2 0 2 -1 -1 -2 -2 -1 -9 -7 -15 -14 l-12 -11 -4 4 c-7 7 -6 23 1 38
3 7 6 11 7 9 0 -2 4 -6 9 -9z m1118 -66 c6 -4 6 -6 6 -20 0 -14 0 -16 -6 -20
-4 -4 -7 -5 -18 -5 -11 0 -14 1 -18 5 -6 4 -6 6 -6 20 0 14 0 16 6 20 4 4 7 5
18 5 11 0 14 -1 18 -5z m-611 -118 l104 -1 4 -5 c5 -5 5 -6 4 -43 0 -22 -1
-49 -1 -61 0 -12 -1 -41 -2 -65 -1 -24 -2 -51 -2 -60 0 -9 -1 -30 -2 -45 -3
-64 -5 -79 -12 -79 -3 0 -6 4 -10 16 -7 18 -7 29 0 46 4 11 4 13 5 127 0 102
0 117 -3 124 -4 9 -14 21 -18 21 -2 0 -3 1 -3 2 0 2 -11 3 -70 3 l-60 0 -20
-10 c-12 -6 -23 -11 -25 -11 -18 -1 -25 4 -25 20 0 17 8 25 26 23 4 -1 53 -2
110 -2z m-325 -10 c0 -1 -2 -3 -4 -6 -3 -4 -5 -4 -12 -3 -8 2 -16 7 -14 9 1 0
0 1 -1 1 -2 0 3 2 10 5 l13 4 4 -4 c2 -2 4 -5 4 -6z m-226 -20 c12 -10 7 -42
-6 -49 -8 -3 -12 -2 -24 5 -12 8 -14 13 -12 31 1 13 7 18 24 18 11 0 14 -1 18
-5z m529 -62 c3 -3 4 -7 4 -14 0 -13 -6 -19 -19 -19 -13 0 -19 6 -19 19 0 7 1
11 4 14 7 8 23 8 30 0z m221 -24 c8 -5 10 -11 10 -34 0 -21 0 -23 -5 -28 -16
-17 -43 7 -44 39 0 14 3 21 12 25 7 3 21 2 27 -2z m261 -9 c5 -5 5 -11 0 -16
-10 -10 -27 5 -16 16 4 4 12 4 16 0z m-990 -27 l6 -13 0 -59 c0 -49 1 -60 3
-66 4 -9 14 -21 18 -21 2 0 3 -1 3 -2 0 -3 11 -3 89 -3 l78 0 6 -6 c4 -4 6 -7
5 -10 -1 -6 -10 -14 -17 -14 -3 0 -20 -1 -38 -2 -18 -1 -41 -2 -51 -2 -34 -2
-56 -3 -92 -4 -19 -1 -37 -2 -40 -3 -8 -3 -11 -2 -14 5 -3 6 -3 8 -1 20 2 8 3
18 4 22 0 4 2 17 4 27 1 10 3 23 4 28 0 5 2 18 4 29 1 11 4 31 5 45 2 13 3 24
4 24 1 0 2 1 2 2 0 3 8 16 10 16 1 0 4 -6 8 -13z m202 -6 c9 -8 9 -12 1 -20
l-7 -7 -6 7 c-4 3 -7 8 -7 10 0 3 7 12 12 17 0 0 4 -3 7 -7z m229 0 c3 -4 6
-8 6 -10 0 -4 -11 -16 -14 -16 -3 0 -14 12 -14 16 0 4 11 16 14 16 1 0 5 -3 8
-6z m-281 -85 c5 -5 5 -11 0 -16 -10 -10 -27 5 -16 16 4 4 12 4 16 0z m669
-46 c4 -6 4 -24 -1 -30 -7 -9 -27 -9 -34 0 -5 6 -5 24 0 30 7 9 27 9 35 0z
m67 -17 c7 -4 19 -4 26 -2 7 3 20 0 24 -5 6 -7 5 -23 -1 -29 -8 -8 -23 -7 -32
2 -7 7 -8 7 -17 7 -9 -1 -10 -1 -11 4 -2 5 0 25 2 31 2 4 2 4 3 -1 0 -2 3 -5
6 -7z m-468 -14 c3 -2 5 -4 6 -5 1 -1 2 -2 4 -3 3 -1 3 -1 0 -1 -2 0 -5 -4 -8
-10 -11 -22 -44 -21 -44 1 0 9 4 16 11 19 7 3 26 2 31 -1z m986 -37 c1 0 5 -3
8 -6 5 -5 6 -7 6 -18 0 -11 -1 -13 -6 -18 -6 -6 -7 -6 -18 -6 -11 0 -12 0 -18
6 -5 5 -6 7 -6 17 0 14 3 20 12 24 5 2 8 2 22 1z m-496 -66 c1 0 5 -3 8 -6 5
-5 6 -7 6 -17 0 -20 -9 -27 -28 -25 -15 2 -20 8 -20 24 0 13 3 19 12 23 5 2 8
2 22 1z m-300 -25 c0 -1 -2 -3 -4 -5 -5 -4 -5 -4 -10 1 l-4 4 4 4 c4 5 5 5 9
1 3 -1 5 -4 5 -5z m109 -10 c5 -8 1 -16 -8 -16 -9 0 -13 8 -8 16 2 3 5 5 8 5
3 0 6 -2 8 -5z m656 -16 c3 -3 3 -3 0 -6 -4 -5 -11 1 -7 6 4 4 4 4 7 0z"/>
</g>
</svg>
