<?xml version="1.0" standalone="no"?>
<!DOCTYPE svg PUBLIC "-//W3C//DTD SVG 20010904//EN"
 "http://www.w3.org/TR/2001/REC-SVG-20010904/DTD/svg10.dtd">
<svg version="1.0" xmlns="http://www.w3.org/2000/svg"
 width="1100.000000pt" height="2850.000000pt" viewBox="0 0 1100.000000 2850.000000"
 preserveAspectRatio="xMidYMid meet">
<metadata>
Created by potrace 1.15, written by Peter Selinger 2001-2017
</metadata>
<g transform="translate(0.000000,2850.000000) scale(0.500000,-0.500000)"
fill="#000000" stroke="none">
<path d="M1282 3810 c-3 -1 -6 -1 -7 0 0 0 -1 0 -1 -2 0 -1 -1 -2 -3 -2 -4 0
-15 -13 -18 -21 -2 -6 -2 -19 -2 -48 l0 -40 6 -11 c17 -33 16 -29 13 -42 -3
-18 -5 -42 -2 -47 1 -2 3 -7 5 -12 5 -12 31 -19 40 -9 6 7 15 11 26 11 17 0
21 -4 30 -24 19 -45 21 -54 12 -62 -5 -5 -7 -5 -15 -5 -9 1 -11 3 -18 10 -33
35 -33 35 -48 35 -15 -1 -28 -7 -31 -15 -1 -2 -2 -4 -3 -4 -1 0 -2 -1 -2 -3 0
-2 -1 -3 -2 -3 -2 0 -5 -8 -9 -20 -2 -7 -3 -21 -3 -54 0 -42 0 -45 -4 -51 -2
-3 -4 -5 -4 -4 0 1 -1 0 -2 -2 -2 -4 -2 -4 -2 0 0 5 -18 48 -25 61 -8 13 -21
18 -47 19 -22 1 -28 7 -29 26 0 6 2 13 4 18 3 6 3 11 2 28 -2 29 -2 31 -1 46
2 17 1 21 -16 57 -14 29 -21 38 -32 42 -5 2 -6 3 -19 6 -4 1 -18 2 -30 1 -24
0 -41 -6 -51 -16 -4 -4 -19 -37 -17 -37 2 0 -6 -7 -9 -7 -2 -1 -13 3 -26 6
l-24 8 -13 -4 c-8 -1 -19 -2 -25 -2 -12 1 -28 6 -28 9 0 1 -2 2 -4 3 -2 1 -5
2 -7 4 -1 1 -7 6 -14 10 -7 4 -12 8 -13 9 -1 1 -9 6 -19 13 -10 7 -18 12 -19
13 -2 2 -36 25 -43 28 -13 7 -28 9 -49 4 -15 -3 -27 -4 -66 -4 -32 0 -50 -1
-55 -3 l-7 -2 -1 -17 0 -17 14 -6 c17 -7 21 -12 21 -27 0 -10 -1 -11 -8 -18
-5 -4 -10 -8 -12 -9 -4 -1 -17 7 -31 19 -4 3 -16 10 -26 15 -18 9 -25 14 -25
22 0 2 -3 10 -7 18 -9 19 -19 25 -43 25 -32 0 -41 -6 -42 -30 -1 -4 -2 -8 -3
-8 -1 -1 -1 -2 1 -2 7 0 8 -11 2 -18 -9 -11 -26 1 -21 15 1 2 3 3 5 3 2 0 2 1
1 2 -1 0 -2 4 -3 8 -1 13 -2 17 -7 22 -8 7 -16 8 -58 8 -36 0 -40 0 -56 -5
-20 -6 -26 -7 -61 -7 -23 0 -27 0 -46 6 -17 5 -23 6 -31 5 -5 -1 -11 -1 -12
-1 -2 -1 -3 -1 -3 -2 0 -1 -1 -2 -3 -2 -4 0 -14 -12 -18 -21 -4 -11 -5 -205 0
-215 4 -10 12 -17 25 -23 l11 -4 158 -1 c87 0 160 -1 162 -2 2 -1 6 -3 8 -5
l4 -4 -4 -4 c-7 -7 -20 -23 -24 -30 -7 -10 -5 -35 3 -50 8 -17 17 -22 31 -21
l11 0 14 20 c14 20 17 23 30 22 18 0 21 -5 21 -43 0 -36 -1 -38 -18 -46 -23
-10 -31 -24 -28 -53 5 -48 -1 -65 -23 -65 -5 0 -11 1 -12 2 -9 7 -29 11 -48
10 -19 -1 -20 0 -34 6 -17 8 -19 9 -42 11 -26 3 -33 9 -33 29 0 26 21 35 50
22 25 -11 52 -12 78 -2 24 9 35 27 30 49 -1 5 -3 6 -18 11 -15 5 -18 5 -39 4
-12 -1 -26 -2 -31 -3 -19 -3 -29 4 -29 21 0 16 8 23 24 21 1 0 5 1 9 2 3 1 7
2 7 1 1 0 4 2 6 5 5 7 6 25 1 32 -6 8 -33 24 -41 24 -18 0 -27 -8 -35 -31 -5
-12 -7 -15 -12 -18 -11 -5 -17 -4 -33 5 -6 3 -29 3 -34 -1 -8 -5 -87 -84 -90
-88 -6 -12 -1 -31 10 -40 10 -7 9 -7 29 -20 10 -6 18 -12 19 -13 1 -1 6 -5 12
-9 6 -3 21 -14 34 -24 38 -28 72 -54 75 -56 1 -1 5 -5 10 -8 17 -13 20 -33 6
-47 -6 -6 -8 -7 -17 -7 -12 0 -18 5 -27 20 -10 17 -13 19 -27 19 -13 0 -15 -1
-24 -18 -5 -9 -5 -10 -1 -19 2 -5 5 -11 8 -14 9 -10 17 -21 17 -24 0 -1 -2 -5
-3 -7 -4 -4 -5 -4 -18 -2 -14 2 -25 3 -34 2 -6 0 -18 -11 -19 -16 -2 -11 0
-24 4 -28 4 -5 5 -8 4 -20 0 -9 -8 -17 -19 -19 -4 -1 -10 -2 -11 -2 -7 -1 -13
6 -14 17 -2 17 -1 20 17 36 7 6 7 7 7 20 -1 12 -2 15 -6 19 -3 2 -8 8 -12 12
-7 10 -14 13 -29 12 -8 0 -10 -1 -16 -7 -8 -10 -12 -16 -16 -22 -3 -5 -10 -10
-15 -11 -1 0 -6 -3 -13 -6 -23 -11 -28 -21 -27 -54 1 -23 5 -32 15 -40 11 -8
21 -9 37 -4 7 3 19 6 26 8 13 3 13 3 18 -2 4 -4 5 -7 4 -16 0 -14 -4 -22 -13
-25 -4 -2 -7 -3 -6 -3 1 -1 2 -8 2 -16 -1 -23 -1 -23 46 -23 l38 0 6 -5 c4 -4
6 -7 5 -8 -1 -1 -8 -14 -16 -29 -14 -28 -31 -59 -39 -72 -3 -4 -5 -8 -5 -9 0
0 -4 -6 -8 -12 -10 -15 -12 -24 -12 -48 0 -26 -2 -29 -21 -34 -8 -2 -15 -4
-15 -5 -1 -1 -2 -8 -2 -16 0 -7 -1 -14 -1 -16 -1 -2 3 -4 10 -8 8 -3 13 -7 17
-13 3 -4 7 -9 8 -10 1 -2 2 -4 2 -6 0 -1 2 -3 4 -4 2 -1 4 -2 3 -3 -1 -2 1 -4
9 -5 4 -1 8 -2 10 -3 2 -1 7 -2 11 -3 12 -2 19 -10 20 -23 1 -22 14 -36 35
-39 14 -2 22 -7 37 -23 15 -16 18 -17 35 -16 13 1 24 9 24 17 0 2 1 3 1 2 1
-2 2 -3 3 -3 3 0 11 -9 15 -16 2 -4 6 -9 9 -13 3 -3 7 -9 9 -13 3 -8 3 -8 0
-16 -2 -4 -6 -10 -9 -13 -11 -12 -15 -22 -15 -40 0 -24 3 -28 22 -27 14 0 15
0 16 -4 0 -4 1 -4 1 1 0 5 3 10 10 17 10 11 28 39 28 43 0 2 3 8 6 15 6 13 15
22 25 27 9 4 19 12 24 19 13 18 29 15 33 -5 5 -24 15 -48 21 -53 8 -6 13 -18
13 -28 0 -12 -6 -18 -19 -18 -9 0 -14 2 -29 14 -6 5 -11 7 -19 8 -26 2 -38
-11 -47 -54 -2 -9 -9 -18 -16 -18 -19 -1 -28 3 -30 14 -1 5 -2 6 -2 2 0 -4 -1
-4 -14 -4 -22 1 -23 -1 -24 -41 -1 -39 -2 -41 -29 -43 -11 -1 -25 -4 -37 -8
l-19 -6 -15 4 c-8 2 -16 5 -17 6 -2 2 -6 3 -20 5 -9 2 -28 -7 -32 -14 -6 -13
-6 -21 2 -39 3 -9 8 -21 9 -25 1 -4 3 -9 4 -10 0 -1 1 -3 1 -4 1 -1 4 -11 8
-23 4 -11 8 -24 8 -28 1 -5 2 -8 3 -8 1 0 2 -1 1 -2 -1 -1 0 -2 1 -3 1 -1 2
-5 3 -11 2 -13 14 -36 23 -46 4 -5 8 -10 8 -10 0 -4 29 -13 44 -14 8 -1 12 -6
13 -15 2 -11 7 -24 13 -29 5 -5 19 -11 22 -9 1 0 9 1 18 2 60 4 70 9 74 34 1
9 1 14 -1 21 -5 15 1 31 13 37 12 4 21 3 42 -7 7 -3 24 -14 26 -16 3 -4 22
-10 31 -9 12 1 21 7 37 25 30 33 32 46 13 74 -6 9 -7 13 -7 21 0 13 2 16 17
24 31 17 32 22 33 102 0 68 1 62 -13 94 -6 15 -6 19 0 34 14 33 13 18 13 163
l0 131 6 6 c3 3 6 5 6 4 1 -1 8 -3 16 -5 16 -5 23 -5 50 1 20 4 24 3 32 -12
10 -18 27 -31 42 -31 10 0 24 7 27 14 1 2 3 4 3 4 6 0 -5 37 -12 42 -7 5 -18
36 -18 51 -1 19 15 27 37 17 13 -5 27 -6 38 -2 5 2 8 5 13 16 8 19 38 127 38
141 0 5 1 5 2 2 1 -2 2 -3 2 -2 0 7 8 1 13 -10 10 -21 21 -32 45 -46 11 -7 15
-13 19 -26 5 -19 17 -42 23 -42 0 0 5 -2 9 -4 12 -7 11 -13 -5 -28 -3 -4 -7
-5 -13 -5 -5 0 -10 -1 -10 -1 -1 0 -5 -1 -9 -2 -9 -1 -22 -13 -28 -24 -2 -5
-8 -13 -14 -18 -13 -12 -15 -15 -18 -24 -6 -20 -3 -33 10 -40 6 -3 10 -7 14
-14 10 -18 8 -34 -9 -53 -20 -23 -19 -18 -19 -139 0 -108 1 -117 8 -131 4 -7
4 -35 -1 -47 -3 -10 -4 -22 -1 -33 1 -4 2 -13 3 -21 1 -22 6 -30 18 -32 10 -2
9 -3 22 1 17 4 28 -1 29 -13 1 -3 2 -5 2 -5 1 0 1 -1 1 -3 -1 -2 -1 -3 1 -3 1
0 1 -2 0 -4 0 -4 0 -4 2 -3 2 1 2 0 0 -1 -2 -2 -4 -5 -5 -8 -1 -3 -5 -12 -9
-20 -5 -8 -10 -21 -12 -29 -3 -16 -8 -23 -14 -23 -5 0 -27 -9 -31 -12 -15 -15
-9 -37 11 -47 14 -7 24 -11 26 -11 1 0 6 -3 10 -6 12 -7 20 -10 33 -10 9 0 11
1 19 8 12 11 13 12 15 11 2 -3 6 5 6 13 1 7 2 10 6 13 l6 5 5 -5 4 -4 -5 -11
c-3 -5 -6 -10 -7 -10 -4 1 -6 -1 -6 -9 0 -6 0 -13 -1 -17 -3 -16 10 -39 25
-45 10 -5 95 -4 106 0 9 4 9 4 8 24 0 8 0 11 2 11 2 0 0 1 -3 3 -6 3 -10 8
-12 19 -2 9 4 19 14 23 22 9 34 28 32 51 -3 33 -3 55 -1 68 3 16 1 25 -7 31
-4 5 -31 12 -31 9 0 -1 -4 -2 -9 -3 -14 -2 -19 4 -24 25 -1 3 0 10 1 16 3 14
9 18 24 18 14 0 31 5 38 11 11 11 11 23 -1 57 -3 10 -4 24 -1 34 1 4 3 16 5
28 2 12 4 24 5 27 3 5 11 11 18 11 9 0 41 15 43 21 0 2 2 3 4 3 1 0 4 1 5 3 4
4 15 4 20 -1 5 -5 5 -8 1 -24 -2 -8 -3 -18 -3 -25 1 -11 2 -14 9 -22 10 -12
19 -18 29 -21 5 -1 47 -2 112 -2 l105 1 6 -6 6 -6 -1 -38 c-1 -37 -1 -38 -6
-43 -3 -3 -7 -5 -10 -6 -4 -1 -80 -1 -145 0 -33 0 -43 -5 -46 -27 -1 -7 0 -11
7 -26 4 -9 8 -18 8 -18 0 -1 2 -6 5 -11 6 -13 21 -52 21 -54 0 -4 9 -16 14
-18 9 -5 29 -6 36 -2 2 1 8 2 14 2 16 0 24 -10 24 -31 0 -8 -1 -9 -8 -14 -4
-3 -8 -5 -9 -5 -7 0 -17 -24 -17 -39 0 -8 6 -29 8 -29 1 0 2 -1 2 -3 0 -7 18
-16 29 -14 20 2 23 6 24 28 0 7 -1 11 -3 15 -3 3 -5 10 -5 18 -2 17 2 20 22
20 12 0 14 0 19 -6 6 -6 6 -7 6 -19 -1 -8 -2 -14 -4 -15 -3 -2 -2 -25 2 -29 7
-8 14 -10 41 -8 35 1 62 6 77 14 8 4 22 19 30 31 1 1 5 4 9 6 8 4 17 4 34 0
24 -5 38 1 65 28 35 35 53 74 63 136 3 19 4 45 4 221 1 120 0 199 -1 199 -1 0
-2 2 -3 5 -1 3 -2 5 -3 5 0 -1 -3 0 -6 1 -3 2 -9 2 -15 2 -6 0 -9 1 -10 3 0 2
-1 1 -1 -1 0 -3 -2 -5 -7 -7 -21 -8 -38 -1 -43 17 -4 16 2 31 16 36 11 5 34 0
34 -8 0 -2 1 -3 1 -1 1 2 4 3 10 3 6 0 12 0 15 2 3 1 6 2 6 1 1 0 2 2 3 5 1 3
2 5 3 5 1 0 2 24 1 62 -1 33 -1 70 -1 82 1 45 1 121 0 126 -1 3 -4 14 -7 25
-9 35 -9 31 0 40 l9 9 0 73 0 74 -6 20 c-5 17 -6 23 -5 30 4 25 -3 44 -19 47
-5 1 -37 1 -80 1 -10 -1 -64 0 -119 1 l-101 1 -5 5 c-5 5 -5 11 2 38 2 9 2 15
1 19 -5 19 -1 53 7 58 2 1 4 3 5 6 2 4 2 4 2 -2 0 -4 4 -9 19 -24 17 -18 19
-19 29 -20 18 -2 28 8 31 32 3 20 18 26 42 18 12 -4 19 -9 23 -18 5 -8 1 -13
-14 -21 -7 -3 -13 -8 -14 -10 -3 -6 -2 -24 1 -30 3 -4 29 -18 37 -19 3 -1 27
-1 32 0 7 1 31 14 37 21 9 9 24 37 29 56 4 16 10 27 19 39 11 15 16 26 14 35
-2 12 -6 19 -15 26 -25 22 -23 18 -23 35 0 14 0 16 6 20 6 6 27 7 34 2 11 -7
34 -5 43 5 6 6 14 24 14 31 0 10 -4 22 -11 32 -11 17 -12 24 -6 46 3 10 7 21
8 25 5 9 3 22 -5 34 -5 9 -7 10 -20 11 -13 1 -24 -18 -24 -40 0 -2 -4 -9 -8
-15 -4 -6 -11 -17 -15 -25 -4 -8 -9 -15 -11 -17 -4 -4 -12 -4 -17 1 -3 3 -3 4
0 25 2 11 3 27 3 35 0 14 0 15 7 23 7 8 7 9 7 23 0 17 -3 22 -20 28 -8 3 -13
3 -26 2 -8 -1 -24 -2 -36 -2 -34 0 -39 -4 -51 -42 -11 -34 -12 -36 -10 -59 3
-29 3 -29 -13 -44 -26 -24 -35 -42 -38 -76 -3 -25 -3 -27 -20 -44 -7 -7 -14
-17 -18 -26 -10 -21 -19 -40 -21 -44 0 -2 -1 -2 -1 1 0 2 -1 3 -2 2 -1 0 -3 2
-5 6 -3 6 -3 20 -3 117 0 104 0 111 -4 118 -2 4 -5 9 -7 10 -4 3 -23 12 -28
13 -10 1 -15 13 -15 30 0 13 2 19 12 30 3 3 8 10 12 15 29 42 33 51 27 71 -7
25 -22 39 -42 38 -16 0 -21 -6 -30 -36 -5 -15 -25 -18 -44 -6 -11 6 -39 16
-45 15 -9 -1 -15 1 -20 6 -8 8 -14 16 -13 16 4 0 -16 13 -24 15 -10 3 -48 4
-57 1z m99 -107 c3 -5 3 -6 0 -19 -5 -25 -14 -38 -27 -38 -14 0 -20 14 -12 30
13 27 31 39 39 27z m-1092 -43 c6 -4 10 -12 10 -24 0 -14 -3 -19 -14 -25 -13
-8 -26 -24 -28 -35 0 -2 -1 -5 -2 -5 0 -1 -1 -4 -1 -7 0 -9 -8 -16 -17 -16 -9
0 -18 5 -27 15 -12 13 -31 26 -51 36 -24 11 -29 16 -29 27 0 16 11 21 34 15
16 -4 22 -4 48 5 48 17 65 20 77 14z m168 -39 c6 -4 6 -6 6 -20 0 -14 0 -16
-6 -20 -4 -4 -7 -5 -18 -5 -11 0 -14 1 -18 5 -6 4 -6 6 -6 20 0 14 0 16 6 20
4 4 7 5 18 5 11 0 14 -1 18 -5z m981 -21 c5 -6 5 -12 0 -18 -7 -8 -22 -2 -22
9 0 11 15 17 22 9z m-854 -12 c4 -6 4 -6 1 -11 -5 -6 -9 -6 -14 0 -3 5 -3 6 0
9 2 2 3 5 3 7 0 4 5 2 10 -5z m282 0 c3 -4 7 -10 8 -15 5 -17 7 -23 8 -23 1 0
12 -20 12 -23 0 -3 7 -9 13 -11 3 -1 11 -2 18 -2 12 0 14 1 22 7 15 12 22 10
22 -5 0 -15 -4 -19 -17 -26 -19 -9 -28 -20 -25 -36 1 -9 11 -31 20 -43 10 -15
14 -25 18 -53 2 -11 16 -50 21 -59 5 -8 11 -14 22 -23 12 -9 24 -9 44 1 8 4
17 8 20 8 9 2 47 1 51 -1 7 -3 26 -8 34 -8 9 0 26 7 68 26 8 4 13 7 13 9 0 3
1 3 1 1 1 -2 3 -6 6 -9 4 -6 4 -9 5 -52 l1 -46 -6 -6 -6 -6 -33 0 c-37 0 -40
-1 -57 -16 -2 -2 -7 -6 -11 -7 -7 -4 -7 -4 -14 -1 -4 2 -9 6 -11 8 -17 15 -19
16 -66 16 -39 0 -43 0 -49 -4 -9 -5 -17 -22 -19 -37 -2 -14 -7 -19 -18 -21
-10 -1 -16 -2 -26 -6 l-8 -4 1 -13 c2 -15 2 -15 22 -29 5 -4 14 -11 20 -17 6
-6 15 -13 19 -15 17 -8 23 -20 15 -29 -5 -6 -10 -5 -28 3 -15 7 -16 7 -31 6
-30 -2 -29 -2 -56 10 -27 12 -33 16 -33 20 0 2 -3 10 -6 18 -7 18 -14 26 -27
29 -4 1 -12 4 -17 5 -15 5 -30 6 -44 2 -25 -6 -94 -1 -94 7 0 1 -2 2 -3 2 -3
0 -3 1 -2 2 2 0 3 4 4 8 2 22 -19 34 -43 24 -6 -3 -15 -4 -25 -5 -22 -1 -27
-2 -36 -11 -11 -10 -17 -14 -23 -14 -8 0 -14 6 -14 14 0 5 5 14 8 14 1 0 4 1
7 2 3 2 8 3 11 3 6 1 16 12 24 28 4 7 8 13 9 14 2 0 4 4 4 9 2 9 2 8 4 13 3 8
9 11 28 18 5 2 9 4 9 5 0 1 4 6 10 12 5 5 17 18 26 28 9 10 20 21 23 25 18 19
24 26 43 48 47 53 62 72 64 79 2 9 3 32 0 43 -1 4 -2 18 -3 30 l-2 23 7 6 c4
4 12 11 18 16 5 5 10 10 10 11 0 3 10 21 14 26 5 6 18 4 26 -3z m134 -20 c6
-6 5 -15 -3 -23 -13 -12 -21 -13 -24 -1 -2 8 3 22 8 25 6 4 14 4 19 -1z m73
-23 c3 -5 3 -5 0 -10 -2 -3 -5 -5 -7 -5 -2 0 -5 2 -7 5 -3 5 -3 5 0 10 2 3 5
5 7 5 2 0 5 -2 7 -5z m-908 -28 c6 -5 6 -5 3 -10 -7 -11 -35 -15 -41 -7 -4 6
-4 9 1 14 7 9 29 11 37 3z m359 -5 c1 0 5 -3 8 -6 5 -5 6 -7 6 -18 0 -11 -1
-13 -6 -18 -3 -3 -7 -6 -9 -6 -13 -1 -20 0 -28 4 -13 6 -14 11 -2 34 1 3 5 6
8 8 5 3 9 3 23 2z m962 -75 c3 -3 4 -7 4 -14 0 -13 -6 -19 -19 -19 -13 0 -19
6 -19 19 0 7 1 11 4 14 7 8 23 8 30 0z m-873 -5 c7 -6 7 -19 1 -25 -6 -7 -19
-7 -25 -1 -7 6 -7 19 -1 25 6 7 19 7 25 1z m827 -136 c5 -6 5 -12 0 -18 -7 -8
-22 -2 -22 9 0 11 15 17 22 9z m-860 -34 c0 -1 2 -2 4 -3 6 -2 5 -9 -1 -14 -7
-5 -10 -4 -15 1 -5 6 -5 8 -1 14 3 4 13 6 13 2z m846 -78 c1 0 5 -3 8 -6 5 -5
6 -7 6 -18 0 -14 -3 -18 -18 -28 -6 -4 -14 -10 -18 -13 -4 -4 -8 -7 -8 -7 -1
0 -5 -3 -9 -6 l-7 -7 -7 4 c-7 4 -7 4 0 20 3 6 8 18 12 28 10 25 11 28 18 31
5 3 9 3 23 2z m221 -44 c18 -5 24 -9 27 -21 2 -10 0 -25 -5 -30 -4 -5 -16 -8
-24 -8 -12 0 -22 6 -30 18 -7 9 -10 11 -18 14 -10 3 -19 11 -15 13 1 0 2 2 2
3 0 4 5 10 13 14 7 4 26 3 50 -3z m-400 -17 c12 -7 14 -33 3 -43 -8 -9 -32 -9
-40 0 -9 8 -9 32 0 41 7 7 27 8 37 2z m321 -2 c8 -2 8 -8 0 -17 -6 -7 -7 -13
-6 -23 0 -2 7 -11 16 -19 16 -15 17 -16 17 -25 0 -12 -4 -18 -17 -32 -15 -16
-33 -23 -59 -23 -16 0 -17 0 -23 6 -5 5 -6 7 -6 18 0 15 4 20 21 26 31 10 43
18 43 32 1 11 0 14 -6 20 -10 10 -14 17 -14 24 0 7 7 13 15 15 6 0 7 0 19 -2z
m252 -20 l-5 -5 -4 4 -5 5 4 4 5 5 4 -4 5 -5 -4 -4z m-466 -9 c10 -5 8 -21 -3
-33 -9 -11 -27 -3 -27 11 0 8 5 14 16 20 9 4 9 4 14 2z m390 -16 c3 0 7 -3 10
-6 9 -9 6 -24 -9 -38 -5 -4 -13 -13 -19 -19 -17 -19 -24 -22 -32 -14 -5 4 -5
8 4 34 4 13 8 27 9 30 1 3 2 7 4 8 4 4 17 7 24 6 3 -1 7 -1 9 -1z m-991 -34
c8 -3 14 -7 15 -12 1 -5 -7 -19 -15 -27 -25 -23 -56 -21 -63 4 -4 16 2 30 15
36 7 3 38 2 48 -1z m532 -17 c4 -3 7 -6 7 -7 0 -1 3 -7 7 -13 7 -10 18 -18 29
-20 2 0 5 -1 6 -2 0 0 5 -1 9 -2 10 -1 17 -6 18 -11 1 -2 2 -4 3 -4 1 0 2 -3
3 -6 2 -13 8 -26 14 -32 9 -10 16 -10 104 -10 l82 1 6 -6 c5 -5 6 -8 6 -17 1
-9 8 -26 11 -26 1 0 2 -1 2 -3 0 -1 2 -3 4 -4 5 -2 18 -15 18 -18 0 -3 -7 -11
-10 -11 -5 0 -19 8 -26 15 -7 7 -22 9 -60 9 -37 -1 -46 -3 -57 -14 -7 -6 -20
-12 -27 -12 -7 0 -20 6 -27 12 -10 10 -21 13 -50 14 -42 1 -51 -3 -62 -26 -10
-23 -9 -44 3 -64 9 -15 9 -33 0 -42 -8 -9 -32 -9 -40 0 -5 5 -14 42 -15 62 0
12 1 17 5 25 6 12 5 27 -2 34 -3 3 -6 5 -7 4 -1 0 -4 3 -6 8 -2 4 -5 8 -8 9
-2 0 -3 1 -1 2 2 1 2 3 0 6 -1 2 -1 4 -1 4 1 0 2 6 1 14 -1 12 -1 14 2 14 2 0
5 2 7 6 l3 5 21 -1 c12 -1 22 -1 23 0 1 0 2 9 2 19 0 16 0 19 4 20 1 0 -1 1
-7 1 -17 0 -26 9 -32 30 -4 15 -2 29 4 36 9 9 23 9 34 1z m-117 -16 c12 -5 18
-21 14 -35 -3 -12 -8 -17 -19 -20 -11 -3 -24 0 -31 7 -9 10 -9 32 0 42 7 8 24
11 36 6z m261 -19 c10 -9 3 -26 -10 -26 -6 0 -16 7 -16 12 1 6 1 8 5 13 5 6
15 7 21 1z m403 -17 c7 -3 11 -9 15 -20 3 -10 4 -20 1 -24 -3 -5 -23 -12 -31
-12 -16 1 -23 6 -27 21 -2 9 0 22 6 29 7 8 24 11 36 6z m-974 -4 c21 -9 20
-45 -2 -54 -10 -5 -28 -1 -34 6 -9 10 -9 32 0 42 7 8 24 11 36 6z m204 -4 c3
-3 4 -7 4 -14 0 -19 -15 -24 -39 -15 -27 11 -23 31 8 35 12 1 22 -1 27 -6z
m-610 -43 c5 -5 6 -7 6 -17 l0 -12 -13 -13 c-14 -13 -19 -22 -22 -37 -1 -4 -2
-9 -3 -10 -3 -3 1 -22 5 -31 2 -3 6 -8 10 -11 8 -6 37 -15 49 -15 14 0 32 -5
36 -10 6 -7 5 -21 -3 -37 -7 -15 -11 -30 -11 -43 0 -12 -6 -17 -20 -19 -25 -3
-34 -14 -34 -39 0 -16 -5 -22 -20 -22 -15 0 -21 6 -19 21 0 10 1 12 5 26 4 14
1 35 -5 35 -1 0 -1 1 0 1 0 1 -2 5 -6 9 -13 15 -14 20 -14 49 0 24 0 27 4 33
4 5 5 8 4 21 0 14 0 15 -7 21 -4 3 -8 6 -10 7 -2 1 -5 3 -7 6 -3 5 -3 6 0 10
2 3 6 6 9 8 8 4 12 13 13 29 1 11 0 14 -2 16 -4 3 -4 9 0 16 2 3 4 5 4 6 2 2
24 8 34 8 10 0 12 -1 17 -6z m723 -11 c19 -8 13 -35 -7 -35 -19 0 -26 26 -8
35 6 4 7 4 15 0z m-858 -42 c6 -6 7 -16 2 -31 -4 -11 -3 -40 1 -44 3 -4 3 -23
-1 -30 -1 -3 -6 -8 -11 -12 -7 -7 -8 -8 -7 -19 0 -12 1 -17 3 -19 18 -16 22
-35 10 -46 -5 -6 -7 -7 -16 -7 -15 0 -23 8 -23 23 0 6 2 12 4 15 5 8 4 30 -2
46 -6 17 -6 39 1 52 5 12 8 31 6 41 -6 25 0 36 18 36 8 0 11 -1 15 -5z m460
-13 c10 -9 3 -26 -10 -26 -8 0 -15 7 -15 15 0 13 16 20 25 11z m1038 -8 c5 -5
6 -7 6 -16 0 -15 -8 -23 -23 -23 -9 0 -11 1 -16 7 -9 8 -9 23 -1 32 9 9 24 9
34 0z m-1267 -15 l-5 -5 -4 4 -5 5 4 4 5 5 4 -4 5 -5 -4 -4z m103 -13 c2 0 3
-1 2 -2 -1 -1 0 -2 2 -2 2 0 3 -1 3 -2 0 -2 20 -10 25 -10 2 0 6 -3 9 -6 5 -5
6 -7 6 -18 0 -11 -1 -13 -6 -18 -6 -6 -8 -7 -21 -6 -21 1 -29 0 -31 -3 -1 -1
-2 0 -2 2 0 1 -1 3 -2 3 -3 0 -7 15 -8 38 -1 21 -1 24 2 24 2 0 5 1 6 3 2 3 3
3 7 0 3 -2 6 -3 8 -3z m1075 -31 c5 -5 6 -28 2 -53 -4 -27 -7 -29 -39 -28 -14
0 -28 -1 -37 -3 -23 -5 -49 -6 -66 -2 -16 3 -29 2 -43 -2 -21 -6 -33 -1 -33
15 0 13 9 20 22 18 8 -1 29 5 41 12 15 9 37 13 63 11 30 -2 41 3 57 27 5 7 8
10 12 10 10 1 17 0 21 -5z m-659 -24 c3 -5 3 -5 0 -10 -5 -5 -11 -6 -20 -2 -6
3 -7 4 -3 7 1 2 4 4 5 4 1 0 4 1 5 3 4 4 8 4 13 -2z m129 -3 c5 -6 5 -12 0
-18 -7 -8 -22 -2 -22 9 0 11 15 17 22 9z m215 -79 c7 -3 10 -8 13 -24 3 -20
11 -33 23 -39 10 -5 11 -5 64 -6 l54 0 11 -6 c6 -3 13 -7 15 -10 4 -6 9 -9 19
-11 3 0 13 1 22 4 9 3 21 5 27 5 10 0 13 -2 31 -24 5 -7 13 -12 24 -18 9 -4
17 -10 18 -12 3 -6 2 -21 -1 -27 -11 -22 -10 -42 1 -54 3 -3 8 -10 11 -15 8
-12 25 -20 43 -21 20 -2 21 -4 21 -33 0 -12 1 -30 2 -38 1 -13 1 -16 -2 -20
-8 -9 -28 -9 -36 0 -3 4 -3 7 -2 19 1 8 1 16 2 18 0 1 0 3 1 3 1 0 2 5 2 14 0
2 -1 5 -2 6 -4 2 -30 3 -33 0 -4 -2 -15 -20 -23 -35 -11 -21 -14 -24 -25 -22
-17 3 -31 19 -32 38 -1 14 0 17 14 25 13 7 17 13 18 27 1 10 1 14 -2 18 -4 6
-4 21 0 29 4 8 7 29 5 37 -5 21 -34 39 -52 31 -4 -1 -9 -3 -11 -4 -2 -1 -9 -3
-15 -6 -14 -5 -14 -5 -43 6 l-24 10 -169 0 c-93 0 -177 0 -186 -1 -15 -1 -17
-1 -21 3 -10 9 -3 27 9 26 15 -2 40 12 41 23 0 3 1 5 2 5 2 0 5 2 7 6 l5 5 46
0 c46 0 57 1 57 3 0 1 3 3 6 4 10 4 16 13 28 42 8 21 19 27 37 19z m359 -21
c9 -10 2 -24 -13 -29 -12 -4 -18 -3 -23 2 -5 4 -5 6 -1 16 6 13 29 20 37 11z
m-741 -31 c16 -8 16 -40 0 -48 -8 -4 -25 -5 -31 -1 -3 2 -8 4 -11 5 -18 4 -25
12 -22 27 2 11 7 18 17 20 11 3 40 1 47 -3z m-807 -10 c7 -3 11 -9 14 -17 2
-10 0 -31 -3 -39 -3 -5 -4 -5 -13 -4 -6 0 -11 2 -13 3 -1 1 -5 2 -9 3 -23 4
-26 43 -5 53 8 4 20 4 29 1z m92 -61 c8 -8 2 -20 -10 -19 -4 1 -9 1 -11 2 -11
1 -10 9 3 16 10 5 13 5 18 1z m236 -19 l-5 -5 -4 4 -5 5 4 4 5 5 4 -4 5 -5 -4
-4z m-289 0 c1 -1 3 -2 3 -3 0 -1 2 -2 4 -2 2 -1 -1 -2 -7 -4 -7 -3 -10 -3
-13 -1 -7 4 -1 15 6 12 2 -1 5 -2 7 -2z m782 -18 c3 -3 3 -3 0 -6 -4 -5 -11 1
-7 6 4 4 4 4 7 0z m594 -40 c12 -12 3 -31 -13 -31 -15 0 -23 15 -16 28 5 9 22
11 29 3z m-248 -28 c3 -3 3 -3 0 -6 -4 -5 -11 1 -7 6 4 4 4 4 7 0z m-260 -182
c7 -4 10 -11 10 -23 0 -20 -8 -27 -30 -27 -12 0 -14 1 -18 6 -8 10 -8 33 1 42
7 7 27 8 37 2z m706 -18 c4 -4 5 -7 5 -15 0 -14 -6 -20 -20 -20 -14 0 -20 6
-20 20 0 14 6 20 20 20 8 0 11 -1 15 -5z m-90 -14 c5 -8 1 -16 -8 -16 -9 0
-13 8 -8 16 2 3 5 5 8 5 3 0 6 -2 8 -5z m-1264 -35 c4 -6 4 -24 -1 -30 -7 -9
-27 -9 -34 0 -5 6 -5 24 0 30 7 9 27 9 35 0z m590 -12 c1 -1 3 -5 3 -9 0 -6 2
-17 5 -30 0 -2 3 -9 5 -16 3 -8 5 -17 5 -26 0 -12 0 -14 -6 -18 -10 -9 -41 -5
-41 6 0 1 -1 5 -3 8 -2 4 -2 7 -1 10 1 3 2 7 1 10 -2 12 -5 24 -7 26 -2 3 -7
18 -6 21 1 8 5 14 11 17 12 7 26 8 34 1z m-671 -34 c8 -8 3 -20 -15 -37 -4 -4
-8 -18 -7 -30 0 -2 -2 -12 -4 -23 -2 -10 -4 -24 -5 -31 -2 -20 -8 -27 -27 -37
-15 -7 -30 -6 -37 3 -5 5 -12 33 -10 37 1 2 1 2 -1 1 -1 -1 -2 0 -2 2 0 2 -4
2 -19 3 -22 0 -26 2 -28 15 -4 18 -1 45 6 52 8 10 23 11 40 3 5 -3 15 -5 24
-5 13 -1 15 -1 25 4 18 9 22 11 22 13 0 2 1 2 1 1 2 -1 9 6 9 10 0 4 5 14 10
19 4 5 13 5 18 0z m1212 -45 l-5 -5 -4 4 -5 5 4 4 5 5 4 -4 5 -5 -4 -4z"/>
<path d="M441 2736 c-5 -8 -4 -28 1 -32 6 -5 22 -5 28 0 6 5 6 26 0 32 -7 6
-25 6 -29 0z"/>
<path d="M32 2534 c-22 -24 -25 -40 -11 -63 4 -6 7 -12 7 -12 0 0 6 -11 13
-24 8 -13 18 -32 22 -41 5 -9 11 -18 13 -19 7 -6 39 -2 43 5 2 3 14 2 18 -2 8
-9 -3 -26 -19 -26 -2 0 -5 -2 -7 -4 -10 -12 -12 -27 -4 -43 2 -5 7 -18 11 -28
14 -38 16 -40 36 -39 17 1 15 0 24 22 6 14 9 18 20 22 5 3 12 5 15 7 14 6 27
19 53 55 12 16 12 17 12 27 -2 15 -2 16 -12 26 -6 7 -27 16 -38 18 -7 1 -13
-1 -26 -5 -14 -4 -18 -5 -27 -4 -15 3 -25 8 -27 14 -2 3 -5 7 -8 8 -17 7 -27
28 -21 44 7 22 1 40 -16 48 -9 4 -14 9 -19 16 -7 10 -10 12 -24 12 l-14 1 -14
-15z"/>
</g>
</svg>
