<?xml version="1.0" standalone="no"?>
<!DOCTYPE svg PUBLIC "-//W3C//DTD SVG 20010904//EN"
 "http://www.w3.org/TR/2001/REC-SVG-20010904/DTD/svg10.dtd">
<svg version="1.0" xmlns="http://www.w3.org/2000/svg"
 width="1100.000000pt" height="2850.000000pt" viewBox="0 0 1100.000000 2850.000000"
 preserveAspectRatio="xMidYMid meet">
<metadata>
Created by potrace 1.15, written by Peter Selinger 2001-2017
</metadata>
<g transform="translate(0.000000,2850.000000) scale(0.500000,-0.500000)"
fill="#000000" stroke="none">
<path d="M1158 3820 c-4 -1 -8 -2 -10 -3 -2 0 -7 -2 -12 -3 -5 -2 -10 -3 -11
-3 -1 0 -28 -8 -59 -17 -31 -9 -58 -16 -60 -17 -2 0 -7 -2 -12 -3 -5 -2 -9 -3
-10 -3 -1 0 -12 -3 -25 -7 -33 -9 -43 -15 -48 -26 -11 -21 -3 -35 21 -41 13
-4 14 -4 28 1 8 3 16 5 18 5 2 1 7 2 12 3 20 3 30 -4 30 -20 0 -18 -3 -21 -32
-25 -12 -2 -24 -4 -28 -5 -13 -5 -26 -5 -50 -3 -20 2 -31 -2 -41 -12 -5 -5
-17 -29 -17 -33 0 -2 -8 -9 -14 -11 -3 -1 -13 -3 -22 -3 -9 0 -19 0 -21 -1 -7
-1 -15 11 -15 22 1 12 -7 24 -18 32 l-9 6 -33 1 c-46 0 -56 -4 -59 -26 -2 -10
-2 -12 -6 -12 -4 0 -4 2 -6 12 -1 5 -3 11 -4 14 -10 15 -55 17 -69 2 -6 -6
-13 -21 -13 -27 1 -8 9 -23 17 -31 11 -11 14 -17 14 -26 0 -10 -6 -16 -17 -16
-9 0 -14 4 -26 20 -7 10 -29 26 -41 30 -10 3 -29 16 -39 27 -19 21 -17 19 -30
19 -17 0 -19 -1 -26 -12 -13 -25 -22 -24 -37 0 -9 17 -15 21 -27 20 -17 -1
-25 -10 -31 -33 -3 -14 -10 -25 -21 -34 -16 -13 -22 -29 -21 -61 1 -34 8 -44
38 -55 17 -5 21 -11 21 -27 0 -16 -4 -22 -21 -27 -29 -11 -36 -21 -38 -52 -1
-19 -4 -29 -8 -29 -2 0 -2 -8 0 -10 1 -1 3 -11 5 -23 3 -20 3 -23 0 -30 -5
-13 -8 -18 -11 -17 -2 0 -8 -2 -13 -4 -11 -5 -18 -5 -23 0 -8 8 -3 32 7 38 3
2 5 3 5 4 0 1 1 2 2 2 4 0 16 11 20 18 7 15 6 23 -15 73 -19 48 -22 53 -35 58
-15 7 -22 6 -42 -5 -11 -5 -37 -19 -60 -31 -84 -43 -78 -38 -85 -63 -2 -9 -2
-10 11 -49 8 -22 19 -56 25 -76 12 -39 13 -40 19 -46 10 -9 18 -11 37 -12 28
-1 36 -7 36 -28 0 -15 -4 -20 -19 -28 -20 -10 -25 -15 -29 -29 -3 -10 -3 -12
2 -38 3 -15 6 -32 7 -39 3 -20 12 -30 31 -32 8 -1 24 5 41 17 3 2 6 4 7 4 0 0
6 3 13 7 7 4 19 11 26 15 7 3 15 8 18 10 3 2 7 4 10 6 4 1 6 3 6 4 0 4 8 -5
10 -11 2 -4 2 -25 1 -76 -1 -84 -1 -83 -24 -95 -8 -4 -22 -11 -31 -16 -78 -42
-111 -59 -160 -83 -32 -15 -36 -19 -40 -39 -2 -8 -1 -13 1 -20 5 -15 20 -66
30 -97 5 -16 10 -34 12 -38 1 -4 6 -19 10 -33 12 -39 16 -48 29 -53 12 -4 22
-3 37 7 8 5 28 18 44 29 17 11 32 21 35 23 9 6 11 6 15 1 4 -6 2 -19 -6 -51
-2 -7 -3 -11 -4 -15 -8 -37 -39 -128 -54 -160 -17 -37 -18 -41 -15 -62 3 -19
3 -29 -1 -33 -2 -2 -13 -9 -24 -14 -20 -9 -25 -14 -36 -29 -20 -27 -35 -47
-41 -53 -17 -19 -13 -38 12 -59 8 -7 20 -17 25 -22 16 -15 20 -17 35 -17 7 0
17 1 21 3 11 4 14 4 18 -2 3 -4 3 -6 0 -15 -6 -17 -4 -40 3 -46 0 -1 6 -7 13
-15 7 -8 12 -14 13 -15 1 -1 4 -5 8 -10 8 -10 17 -14 29 -14 15 1 21 6 47 40
4 5 7 9 8 10 1 1 8 10 15 20 l14 19 0 13 c-1 13 -1 13 -10 21 -6 6 -13 9 -26
14 -20 6 -25 10 -25 21 0 13 13 19 42 19 15 0 18 -1 27 -6 8 -5 11 -5 23 -5 8
1 14 2 17 4 4 4 55 106 55 112 0 0 2 5 4 9 8 17 25 64 25 73 2 12 -5 26 -17
39 -12 11 -14 22 -7 35 2 3 3 6 3 8 0 1 2 6 4 11 2 4 4 10 6 13 2 5 16 14 23
14 1 0 5 1 8 2 3 2 7 3 7 3 3 0 14 13 16 18 5 12 26 121 31 154 0 4 2 17 4 28
4 25 4 37 0 56 -3 12 -3 23 -3 46 1 29 1 30 8 43 10 21 14 32 15 48 1 8 2 19
2 23 0 4 1 24 2 43 2 54 2 58 10 57 6 0 6 -5 7 -78 0 -72 1 -76 12 -101 9 -20
9 -31 0 -48 -13 -25 -12 -14 -12 -187 0 -140 0 -159 3 -166 4 -9 14 -21 18
-21 2 0 3 -1 3 -2 0 0 2 -2 6 -2 3 -1 144 -1 313 -1 290 0 319 0 319 3 0 1 3
2 6 4 3 1 6 4 6 6 0 2 4 -5 8 -14 4 -9 8 -18 8 -20 0 -2 1 -5 3 -5 2 -1 3 -2
3 -3 0 -3 8 -10 12 -10 1 0 2 -1 2 -2 0 -3 12 -3 98 -3 l87 0 6 -6 6 -6 -1
-157 c0 -139 0 -158 3 -165 4 -9 14 -21 18 -21 2 0 3 -1 3 -2 0 -1 1 -2 3 -2
5 -1 89 -2 89 0 0 1 5 1 12 1 7 0 12 0 12 -1 0 0 6 -1 14 -2 11 0 18 1 38 7
14 4 25 7 25 6 2 -2 26 9 31 14 11 11 13 29 6 44 -5 10 -18 21 -24 21 -2 0 -6
2 -9 5 -3 3 -6 5 -7 5 -1 0 -4 4 -7 9 -3 4 -9 12 -13 16 -14 14 -16 18 -16 27
0 13 9 18 33 19 18 0 28 4 37 12 9 10 10 17 10 87 0 77 0 77 -20 96 -16 16
-19 20 -19 33 0 19 9 28 28 28 18 0 26 -7 28 -26 1 -11 7 -26 13 -32 10 -11
15 -11 99 -10 81 1 83 1 83 3 0 1 1 2 3 2 4 0 14 12 18 21 5 13 4 157 -2 167
-6 12 -15 21 -40 37 -21 15 -23 15 -97 15 l-65 0 -12 -6 c-9 -4 -13 -8 -16
-13 -8 -18 -23 -26 -31 -17 -8 9 -5 17 15 34 12 11 15 23 15 55 l-1 26 6 6 6
6 34 0 34 0 10 6 c8 5 11 9 18 22 11 20 15 23 30 24 22 1 35 7 41 20 4 8 4 12
4 59 0 53 -1 62 -9 73 -4 6 -5 7 -17 7 -15 1 -17 0 -34 -21 -6 -6 -18 -9 -28
-8 -10 2 -13 4 -19 13 -3 4 -7 10 -10 15 -3 4 -8 9 -12 10 -4 2 -7 4 -7 5 0 2
-9 3 -23 3 -11 0 -13 1 -18 6 -6 6 -6 6 -6 30 0 24 0 24 6 30 l6 6 61 0 c49 0
62 1 68 3 7 3 30 19 40 28 2 2 5 4 6 4 2 0 11 16 13 25 5 13 4 140 0 150 -4 9
-14 21 -18 21 -2 0 -3 1 -3 2 0 1 -1 1 -2 1 -4 1 -23 3 -27 4 -4 1 -17 11 -13
11 1 0 3 3 4 7 1 3 4 10 6 14 2 4 7 17 12 28 5 11 10 23 11 26 4 8 17 39 30
72 5 12 10 23 11 24 2 1 -1 25 -3 27 -1 0 -3 3 -4 5 -4 7 -18 13 -52 22 -17 5
-36 10 -42 12 -39 11 -54 15 -60 15 -5 0 -5 1 -1 1 3 1 4 2 3 4 -1 3 1 5 7 6
15 3 29 11 35 21 6 9 15 18 18 18 3 0 12 -9 18 -18 4 -6 9 -11 17 -15 10 -5
12 -5 30 -4 24 1 24 1 24 3 0 1 1 2 3 2 4 0 14 12 18 21 3 6 3 20 3 100 0 101
0 101 -12 115 -7 8 -30 12 -37 6 -2 -1 -3 -2 -4 0 -1 1 -3 2 -6 2 -3 0 -5 -1
-6 -2 -1 -2 -2 -1 -4 0 -2 2 -5 3 -7 4 -2 0 -107 1 -234 1 -262 1 -245 2 -262
-15 -21 -21 -25 -21 -46 0 -7 7 -12 11 -21 13 -15 4 -25 2 -49 -11 -33 -17
-55 -9 -55 19 0 12 4 20 17 33 13 15 19 28 17 42 -1 17 -22 59 -36 73 -6 6
-12 11 -12 11 -1 0 -4 1 -6 1 -8 2 -26 3 -33 1z m741 -177 c-1 -1 -2 -7 -2
-14 1 -10 0 -13 -2 -13 -2 0 -3 3 -2 13 0 7 -1 13 -2 14 -1 0 1 0 4 0 3 0 5 0
4 0z m-1237 -32 c1 -2 1 -3 -3 -7 l-4 -4 -5 5 c-3 3 -3 5 -2 7 4 3 11 3 14 -1z
m1238 0 c4 -3 4 -4 0 -9 -6 -7 -11 -8 -15 -1 -4 5 -4 6 1 9 6 5 10 5 14 1z
m-1130 -25 c3 0 8 -12 7 -17 -5 -26 -5 -28 -10 -32 -8 -7 -28 -7 -36 0 -6 4
-6 6 -6 20 0 20 3 23 30 28 3 1 6 2 7 2 0 1 2 1 4 0 1 -1 3 -1 4 -1z m1094 -3
c8 -5 9 -8 3 -27 -5 -18 -7 -20 -28 -23 -10 -2 -24 -5 -32 -8 -31 -12 -45 -8
-45 12 0 13 4 18 16 22 12 4 29 12 44 20 5 2 14 5 21 7 7 1 13 2 13 2 1 0 4
-2 8 -5z m-953 -52 c4 -4 5 -7 5 -15 0 -14 -6 -20 -20 -20 -14 0 -20 6 -20 20
0 14 6 20 20 20 8 0 11 -1 15 -5z m586 -12 c3 -3 3 -3 0 -6 -4 -5 -11 1 -7 6
4 4 4 4 7 0z m185 -13 c4 -1 11 -2 17 -3 5 -1 11 -3 15 -6 5 -4 5 -6 5 -20 0
-14 0 -16 -6 -20 -4 -4 -7 -5 -18 -5 -11 0 -14 1 -34 12 -12 7 -23 14 -25 17
-5 6 -5 18 1 25 4 4 5 4 21 3 9 -1 20 -2 24 -3z m-302 -8 c3 -1 9 -7 15 -13
10 -11 25 -17 43 -19 3 -1 7 -3 8 -4 9 -9 1 -20 -15 -22 -5 -1 -8 -2 -5 -2 5
0 6 0 6 -13 1 -7 0 -13 -1 -13 -1 0 -1 -1 0 -2 0 0 -3 -3 -7 -6 -4 -3 -8 -6
-8 -7 0 -1 -2 -3 -5 -4 l-6 -3 6 0 c6 0 5 -1 -2 -2 -7 -1 -23 -6 -65 -19 -9
-3 -23 -7 -29 -9 -18 -5 -28 -12 -33 -23 -6 -13 -5 -21 5 -46 10 -25 19 -50
25 -68 5 -16 15 -26 33 -33 8 -3 16 -6 18 -6 17 0 31 -11 31 -24 0 -11 -3 -13
-48 -34 -15 -7 -20 -10 -22 -13 -1 -1 -4 -4 -6 -7 -2 -3 -7 -11 -10 -17 -4
-10 -8 -14 -15 -19 -15 -10 -22 -19 -26 -30 -4 -14 -5 -116 0 -127 4 -9 14
-21 18 -21 2 0 3 -1 3 -2 0 -2 2 -2 29 -3 21 -1 24 0 32 3 8 4 9 6 10 13 3 17
2 22 -2 25 -5 5 -10 28 -7 41 3 15 9 19 25 19 18 0 23 -5 25 -22 1 -14 -3 -26
-11 -36 -6 -7 -6 -17 0 -29 5 -11 24 -16 54 -15 18 1 18 1 24 -5 6 -6 6 -6 6
-30 0 -24 0 -24 -6 -30 l-6 -6 -64 0 c-64 0 -75 -1 -75 -3 0 -1 -1 -2 -3 -2
-4 0 -14 -12 -18 -22 -3 -7 -3 -12 -2 -31 2 -26 2 -44 0 -97 -1 -33 -1 -39 2
-47 4 -9 14 -21 18 -21 2 0 3 -1 3 -2 0 -2 1 -2 73 -4 66 -1 69 -1 91 -7 30
-7 42 -7 66 1 22 7 20 7 25 1 3 -5 3 -5 0 -10 -2 -3 -9 -7 -15 -10 -6 -3 -16
-11 -25 -19 -7 -8 -15 -14 -17 -14 -15 -1 -36 -10 -39 -17 -1 -3 -4 -5 -5 -5
-2 0 -4 -1 -4 -2 0 -1 -1 -2 -3 -2 -1 0 -4 -2 -5 -3 -3 -4 -7 -4 -36 -4 -36 0
-35 0 -64 -16 -16 -10 -27 -10 -41 -2 -26 15 -32 17 -39 17 -5 -1 -8 -1 -8 -2
0 -1 -3 -2 -6 -4 -3 -1 -6 -4 -6 -6 0 -9 -12 22 -13 34 0 5 -2 12 -3 15 -2 5
-2 5 -18 5 -16 -1 -16 -1 -16 4 0 5 0 5 16 4 l16 0 3 6 c2 5 3 17 3 38 0 28 0
34 -5 52 -6 25 -6 29 0 53 l5 20 0 121 c0 107 0 122 -3 129 -4 9 -14 21 -18
21 -2 0 -3 1 -3 2 0 2 -1 2 -58 4 l-53 1 -6 5 c-5 4 -6 6 -4 7 3 2 42 77 47
92 2 4 7 16 12 25 25 55 28 69 17 89 -3 6 -18 19 -22 19 -1 0 -4 2 -7 4 -3 2
-8 5 -12 7 -4 3 -11 6 -15 9 -4 3 -11 6 -15 9 -4 2 -9 5 -12 7 -3 2 -6 4 -8 4
-1 0 -3 1 -4 3 -3 3 -15 4 -26 1 -4 -1 -12 -7 -19 -13 -13 -12 -16 -13 -54
-14 l-23 -1 -6 6 c-3 3 -9 10 -13 16 -5 5 -13 12 -18 14 -15 7 -20 15 -18 28
1 12 5 20 13 29 6 7 8 21 3 32 -4 9 -22 19 -36 19 -9 0 -9 1 -4 2 3 1 5 2 4 2
-2 0 -2 1 -2 3 1 2 2 3 3 2 1 -1 2 0 3 1 1 1 80 2 231 2 163 0 233 1 239 2 12
3 15 8 14 23 0 10 1 13 3 14 2 0 1 1 -2 1 -5 0 -30 15 -30 18 0 1 -2 4 -5 7
-5 5 -7 6 -18 6 -10 0 -10 0 -2 0 5 1 9 2 9 3 0 1 -1 2 -2 1 -2 -1 -2 -1 -1 1
1 1 2 2 3 1 1 -1 5 3 8 8 3 5 8 10 10 12 6 4 22 4 28 1z m-727 -15 c3 -3 3 -3
0 -6 -4 -5 -11 1 -7 6 4 4 4 4 7 0z m648 -3 c4 -5 6 -5 16 -5 6 0 7 0 3 0 -5
-1 -8 -2 -8 -3 0 -4 -1 -5 -9 -12 -14 -14 -33 -9 -33 9 0 17 19 24 31 11z
m-645 -57 c4 -1 9 -5 12 -8 3 -3 9 -7 14 -9 5 -3 10 -7 12 -10 1 -3 4 -6 5 -6
0 0 0 -2 -1 -3 -1 -2 -6 -15 -10 -29 -11 -32 -25 -69 -38 -99 -10 -24 -41 -88
-44 -90 0 -1 -1 -2 -1 -4 -1 -1 -2 -5 -3 -9 -1 -4 -1 -13 -1 -20 1 -17 -2 -21
-22 -31 -11 -6 -15 -9 -15 -12 0 -3 -1 -3 -1 -1 -1 2 -2 3 -3 4 0 1 -3 4 -4 7
-3 5 -4 15 -4 78 0 76 -1 80 -11 91 -4 5 -25 16 -30 16 -12 0 -18 25 -8 35 3
3 6 5 7 5 5 0 18 7 18 9 0 2 1 3 2 3 5 0 7 29 3 35 -7 10 -1 25 10 25 2 0 18
1 34 1 33 0 36 1 51 14 11 10 18 12 28 8z m1043 -27 c4 -2 10 -5 13 -6 5 -2 5
-2 1 -2 -7 0 -12 -11 -18 -32 -7 -27 -18 -64 -30 -103 -12 -37 -13 -48 -8 -67
3 -13 4 -27 1 -32 -1 -2 -6 -7 -12 -10 -5 -4 -9 -7 -10 -8 -1 -1 -5 -3 -9 -4
-4 -1 -9 -4 -11 -5 -2 -1 -13 -2 -30 -2 -26 0 -28 0 -32 5 -2 2 -5 4 -6 4 -2
0 -1 1 2 2 15 4 23 30 17 53 -9 35 -16 49 -27 61 -5 7 -12 12 -14 13 -6 2 -10
14 -8 25 3 25 1 38 -6 53 -17 37 -22 44 -26 46 -5 3 -5 3 -1 3 3 0 6 1 6 3 5
7 9 7 105 7 92 0 94 0 103 -4z m-1255 -34 c5 -6 5 -12 0 -18 -7 -8 -22 -2 -22
9 0 11 15 17 22 9z m1385 -96 c5 -5 6 -7 6 -16 0 -15 -8 -23 -23 -23 -9 0 -11
1 -16 7 -9 8 -9 23 -1 32 9 9 24 9 34 0z m-319 -91 l-5 -5 -4 4 -5 5 4 4 5 5
4 -4 5 -5 -4 -4z m-779 -49 c16 -7 16 -43 -1 -50 -15 -6 -34 -2 -39 9 -4 8 -4
24 0 32 5 12 23 15 40 9z m-501 -27 l-5 -5 -4 4 -5 5 4 4 5 5 4 -4 5 -5 -4 -4z
m1229 6 c9 -5 9 -6 1 -18 -6 -9 -8 -10 -15 -11 -20 -1 -24 28 -4 33 6 1 10 0
18 -4z m350 -2 c3 -5 3 -5 0 -10 -2 -3 -5 -5 -7 -5 -2 0 -5 2 -7 5 -3 5 -3 5
0 10 2 3 5 5 7 5 2 0 5 -2 7 -5z m-914 -31 l5 -5 -18 -34 c-22 -43 -21 -43
-60 -43 -15 0 -30 1 -33 2 -7 2 -14 9 -11 10 1 1 18 28 32 53 12 21 16 23 52
22 27 0 28 0 33 -5z m668 -1 c13 -13 0 -36 -18 -31 -20 6 -16 36 5 36 6 0 9
-1 13 -5z m-1188 -19 c10 -9 3 -26 -10 -26 -8 0 -15 7 -15 15 0 13 16 20 25
11z m303 -50 c5 -6 5 -12 0 -18 -7 -8 -22 -2 -22 9 0 11 15 17 22 9z m1098 -1
c6 -3 12 -14 17 -32 10 -32 -6 -39 -46 -19 -22 11 -27 16 -29 29 -1 10 3 18
12 21 15 6 35 7 46 1z m-230 -5 c8 -3 10 -7 10 -17 0 -13 -6 -19 -19 -19 -13
0 -19 6 -19 19 0 10 2 14 11 18 6 3 9 3 17 -1z m-1141 -27 c3 -3 3 -3 0 -6 -4
-5 -11 1 -7 6 4 4 4 4 7 0z m750 -164 c12 -7 14 -33 3 -43 -8 -9 -32 -9 -40 0
-9 8 -9 32 0 41 7 7 27 8 37 2z m-836 -4 c3 -5 3 -5 0 -10 -2 -3 -5 -5 -7 -5
-2 0 -5 2 -7 5 -3 5 -3 5 0 10 2 3 5 5 7 5 2 0 5 -2 7 -5z m490 -16 c6 -6 6
-7 6 -21 0 -14 0 -15 -6 -21 -5 -4 -8 -6 -13 -6 -5 0 -8 2 -13 6 -6 6 -6 7 -6
21 0 14 0 15 6 21 8 8 17 8 26 0z m218 0 c6 -6 6 -7 6 -21 0 -14 0 -15 -7 -21
-4 -4 -9 -7 -12 -7 -3 -1 -6 -2 -6 -3 0 0 -1 -1 -2 0 -3 2 -17 -14 -26 -28 -7
-11 -11 -13 -25 -13 -11 0 -14 1 -18 5 -6 4 -6 6 -6 20 0 14 0 16 6 20 3 3 8
5 12 5 9 0 31 8 36 13 4 4 12 21 10 22 0 1 2 4 6 8 8 8 18 8 26 0z m-705 -74
l-5 -5 -4 4 -5 5 4 4 5 5 4 -4 5 -5 -4 -4z m1425 -29 c10 -9 3 -26 -10 -26 -8
0 -15 7 -15 15 0 13 16 20 25 11z m-307 -5 c3 -3 4 -7 4 -14 0 -13 -6 -19 -19
-19 -13 0 -19 6 -19 19 0 7 1 11 4 14 7 8 23 8 30 0z m118 1 c1 0 5 -3 8 -6 5
-5 6 -7 6 -18 0 -11 -1 -13 -6 -18 -6 -6 -7 -6 -21 -6 -18 2 -25 6 -26 19 -2
18 11 31 29 30 4 -1 8 -1 10 -1z m-1406 -28 c5 -5 5 -11 0 -16 -10 -10 -27 5
-16 16 4 4 12 4 16 0z m1050 -86 c11 -6 14 -33 6 -43 -9 -10 -33 -11 -42 -1
-9 8 -9 32 0 41 7 6 26 8 36 3z m-743 -1 c3 -3 3 -3 0 -6 -4 -5 -11 1 -7 6 4
4 4 4 7 0z m291 -1 c5 -2 14 -6 19 -8 7 -3 14 -5 22 -5 11 0 13 -1 18 -6 6 -6
6 -7 6 -22 0 -15 0 -16 -6 -22 -8 -8 -17 -8 -26 0 -3 3 -7 5 -8 5 -2 0 -3 1
-2 2 1 2 -9 13 -13 14 -15 4 -19 5 -20 7 -1 1 -2 1 -2 0 0 -4 -16 0 -20 5 -6
7 -5 23 1 29 6 6 19 7 31 1z m277 -19 c6 -6 6 -7 6 -22 0 -15 0 -16 -6 -22 -5
-4 -8 -6 -13 -6 -5 0 -8 2 -13 6 -6 6 -6 7 -6 22 0 15 0 16 6 22 8 8 17 8 26
0z m79 -20 l-5 -5 -4 4 -5 5 4 4 5 5 4 -4 5 -5 -4 -4z m-222 -75 c5 -6 5 -12
0 -18 -7 -8 -22 -2 -22 9 0 11 15 17 22 9z m487 -26 c10 -9 3 -26 -10 -26 -8
0 -15 7 -15 15 0 13 16 20 25 11z m-674 -3 c12 -7 14 -33 3 -43 -8 -9 -32 -9
-40 0 -9 8 -9 32 0 41 7 7 27 8 37 2z m1124 -46 c5 -8 1 -16 -8 -16 -9 0 -13
8 -8 16 2 3 5 5 8 5 3 0 6 -2 8 -5z m-1529 -214 l-5 -5 -4 4 -5 5 4 4 5 5 4
-4 5 -5 -4 -4z m1325 -191 c8 -8 8 -24 0 -32 -5 -5 -7 -6 -17 -6 -10 0 -12 1
-17 6 -8 8 -8 24 0 32 9 9 24 9 34 0z"/>
<path d="M1192 2264 c-13 -2 -28 -10 -38 -21 -12 -12 -19 -16 -31 -16 -10 0
-23 6 -29 12 -8 7 -23 12 -37 12 -27 0 -85 -6 -91 -9 -7 -4 -15 -11 -15 -13
-1 -4 -5 -18 -7 -21 -1 -2 -1 -6 -1 -9 2 -7 -5 -15 -14 -15 -7 0 -15 7 -15 13
0 6 -8 24 -13 29 -9 9 -19 11 -54 8 -16 -1 -33 -3 -37 -3 -9 -1 -173 -14 -229
-18 -40 -3 -45 -4 -55 -9 -22 -11 -28 -35 -13 -53 5 -6 23 -16 34 -19 12 -3
17 -10 17 -23 0 -14 -2 -17 -16 -27 -14 -10 -21 -18 -24 -30 -3 -11 -3 -9 1
-36 5 -35 14 -49 33 -55 11 -3 19 -3 69 4 3 0 12 1 18 2 7 1 14 1 17 2 9 1 28
11 33 17 16 22 21 25 37 24 5 0 24 -12 24 -14 0 -1 1 -2 3 -2 2 0 3 -1 3 -2 0
-3 20 -9 30 -8 5 0 16 1 25 2 9 1 22 3 30 3 32 3 39 8 40 29 1 12 1 15 -3 19
-7 9 -6 28 2 35 6 6 7 6 18 6 11 0 12 0 18 -6 5 -5 6 -7 6 -17 0 -6 -1 -13 -2
-15 -1 -3 -1 -10 0 -16 4 -20 14 -24 50 -20 26 3 39 7 43 13 5 8 5 28 0 37 -8
13 -4 36 8 41 12 7 36 3 40 -6 4 -10 5 -18 3 -29 -4 -21 3 -36 19 -40 10 -2
117 10 133 15 26 9 38 37 28 65 -4 12 -11 20 -28 31 -14 8 -16 11 -16 26 0 10
1 12 6 17 8 7 14 12 16 12 3 0 16 16 19 25 13 34 -14 60 -55 53z m-520 -115
c3 -2 7 -6 9 -9 2 -3 5 -6 5 -6 1 0 2 -1 2 -2 0 -1 2 -5 5 -8 16 -19 20 -42 9
-52 -8 -9 -24 -9 -35 0 -10 7 -33 31 -37 38 -4 7 -3 24 1 31 6 12 26 16 41 8z"/>
</g>
</svg>
