<?xml version="1.0" standalone="no"?>
<!DOCTYPE svg PUBLIC "-//W3C//DTD SVG 20010904//EN"
 "http://www.w3.org/TR/2001/REC-SVG-20010904/DTD/svg10.dtd">
<svg version="1.0" xmlns="http://www.w3.org/2000/svg"
 width="1000.000000pt" height="2850.000000pt" viewBox="0 0 1000.000000 2850.000000"
 preserveAspectRatio="xMidYMid meet">
<metadata>
Created by potrace 1.15, written by Peter Selinger 2001-2017
</metadata>
<g transform="translate(0.000000,2850.000000) scale(0.500000,-0.500000)"
fill="#000000" stroke="none">
<path d="M534 3812 c-3 -1 -6 -1 -7 0 0 0 -1 0 -1 -2 0 -1 -1 -2 -3 -2 -4 0
-14 -12 -18 -21 -3 -7 -3 -16 -3 -60 l1 -52 -6 -6 -6 -6 -53 0 c-57 0 -57 0
-65 -6 -4 -3 -5 -5 -4 -17 l0 -14 -9 0 c-8 -1 -8 -1 -2 -1 14 -2 16 -3 18 -10
3 -11 -3 -28 -10 -33 -8 -4 -21 -3 -30 3 -5 3 -15 10 -24 15 -17 11 -24 17
-24 22 0 5 -11 29 -15 32 -10 9 -16 10 -82 10 -58 0 -65 0 -72 -4 -8 -4 -17
-12 -18 -16 0 -2 -2 -6 -3 -9 -1 -3 -3 -10 -3 -14 -1 -4 -6 -17 -11 -27 l-9
-19 0 -47 c0 -26 0 -59 1 -74 0 -15 0 -33 0 -40 0 -7 0 -16 1 -19 3 -9 11 -22
17 -25 3 -2 6 -4 6 -5 1 -1 9 -2 18 -3 22 -1 25 2 25 23 0 12 0 14 4 15 3 1 1
2 -4 2 -4 0 -10 1 -13 3 -3 1 -6 2 -7 2 -2 -1 -4 1 -6 4 -3 5 -3 6 0 14 4 10
17 25 26 30 13 6 28 2 34 -10 5 -10 11 -20 15 -24 2 -2 5 -8 7 -13 3 -5 6 -13
9 -19 11 -24 18 -27 64 -27 40 0 47 1 56 11 7 6 16 25 16 34 0 14 14 44 22 50
6 4 25 5 29 1 8 -7 9 -24 4 -44 -6 -19 -2 -32 10 -43 9 -8 18 -9 52 -9 l30 1
6 -6 c5 -5 6 -8 5 -14 0 -4 1 -12 2 -16 2 -9 13 -23 16 -23 4 0 22 -17 22 -21
0 -1 -1 -4 -3 -6 -2 -1 -2 -3 -2 -4 1 0 2 -6 2 -12 1 -13 4 -16 14 -21 7 -4
14 -4 122 -3 64 0 117 1 119 1 1 0 2 1 2 2 0 1 1 2 3 2 4 0 14 12 18 21 3 7 3
15 3 48 l-1 40 6 6 6 6 102 -1 102 0 23 6 c26 7 28 7 57 -1 17 -4 24 -5 40 -5
19 1 20 1 26 -5 l6 -6 -1 -40 c0 -33 0 -41 3 -48 4 -9 14 -21 18 -21 2 0 3 -1
3 -2 0 -3 13 -3 136 -3 123 0 136 0 136 3 0 1 1 2 3 2 4 0 14 12 18 21 2 5 3
14 3 29 0 19 -1 24 -7 43 -8 24 -8 26 -3 31 5 5 9 5 30 0 17 -4 26 -4 106 -4
53 0 92 1 97 2 12 3 17 9 18 24 0 6 1 11 2 12 1 1 0 2 -2 2 -3 0 -5 4 -5 13 0
13 18 20 28 10 6 -6 5 -23 -1 -23 -2 0 -3 -1 -2 -2 1 -1 2 -6 2 -12 2 -25 8
-27 76 -25 51 1 53 1 53 3 0 1 1 2 3 2 4 0 14 12 18 21 2 6 3 15 3 44 0 32 -1
38 -5 56 -7 27 -7 27 -1 52 5 20 6 26 6 55 0 31 0 33 -5 43 -7 14 -9 16 -21
21 l-11 4 -184 0 -184 -1 -6 6 -6 6 1 52 c0 58 -1 63 -13 75 -5 5 -9 7 -17 8
-5 1 -11 1 -11 0 -4 -3 -33 -14 -38 -14 -3 0 -11 2 -18 5 -15 7 -32 7 -41 2
-22 -15 -34 -16 -57 -2 -22 12 -29 14 -65 12 -35 -1 -36 -1 -36 -3 0 -1 -1 -2
-3 -2 -4 0 -14 -12 -18 -21 -2 -6 -3 -17 -3 -65 0 -59 -1 -75 -8 -84 -7 -10
-24 -14 -38 -8 -3 1 -11 7 -18 14 -21 20 -19 20 -119 20 -103 0 -100 1 -110
-27 -2 -7 -4 -13 -3 -14 2 -2 0 -15 -4 -20 -4 -6 -23 -11 -25 -7 -1 1 -3 2 -5
2 -2 0 -4 2 -5 4 -1 4 -3 4 -16 4 -10 0 -16 -1 -18 -2 -3 -3 -6 -17 -8 -32 -2
-15 -7 -20 -20 -20 -11 0 -14 2 -19 12 -10 20 -15 55 -9 64 5 7 17 11 31 10 5
0 15 -10 13 -12 -1 -1 0 -2 1 -3 3 -2 32 -2 32 -1 0 1 2 2 6 2 4 0 4 1 2 2 -2
0 -4 1 -3 2 0 2 -6 8 -8 6 -1 0 -1 1 0 3 0 1 0 3 -1 4 -1 1 -2 0 -3 -1 0 -2
-1 0 -1 5 0 9 -6 27 -9 28 -1 1 -2 17 -1 54 0 51 0 53 -4 62 -9 19 -26 26 -58
25 -18 -1 -23 -2 -32 -7 -12 -5 -23 -16 -31 -30 -6 -9 -7 -27 -1 -33 1 -2 5
-9 7 -15 l5 -10 -5 -5 -5 -5 -7 6 c-4 3 -7 6 -7 7 0 2 -5 7 -18 19 -13 11 -16
17 -16 27 1 15 -7 38 -13 38 -2 0 -3 1 -3 2 0 4 -15 6 -53 6 -22 0 -42 -1 -45
-2z m81 -93 c11 -11 4 -29 -12 -29 -11 0 -17 6 -17 17 0 16 18 23 29 12z m272
-167 c7 -3 11 -10 11 -21 0 -15 -9 -25 -27 -29 -6 -1 -6 0 -12 9 -18 27 -1 52
28 41z m323 -8 c5 -6 5 -12 0 -18 -7 -8 -22 -2 -22 9 0 11 15 17 22 9z m251
-15 c6 -4 6 -6 6 -20 0 -14 0 -16 -5 -20 -5 -4 -8 -5 -38 -6 -18 -1 -37 -1
-43 -1 -13 0 -24 -3 -46 -13 -14 -7 -27 -1 -27 13 0 11 7 17 19 15 18 -2 22
-2 32 0 6 2 11 2 11 2 0 -2 42 21 51 28 8 6 10 7 22 7 11 0 14 -1 18 -5z
m-1014 -4 c4 -4 5 -7 5 -14 0 -16 -8 -23 -24 -22 -11 1 -15 5 -16 19 0 10 0
12 5 17 7 7 23 7 30 0z m138 -20 c4 -4 5 -7 5 -15 0 -14 -6 -20 -20 -20 -14 0
-20 6 -20 20 0 14 6 20 20 20 8 0 11 -1 15 -5z m974 2 c6 -4 14 -27 11 -30 -4
-4 -12 -8 -17 -8 -2 0 -7 1 -11 1 -10 0 -16 8 -16 20 0 14 6 20 19 20 6 0 12
-1 14 -3z m130 -11 c5 -7 4 -25 -2 -31 -4 -4 -11 -6 -17 -5 -1 0 -5 0 -8 1 -9
1 -19 5 -20 7 -2 3 10 29 14 31 9 6 27 4 33 -3z m-824 -25 c1 -2 4 -5 6 -7 8
-7 8 -32 -1 -40 -5 -6 -18 -8 -28 -6 -11 2 -16 7 -18 18 -2 9 0 23 5 27 5 6
22 13 28 12 3 0 7 -2 8 -4z m108 -7 c11 -10 3 -28 -11 -28 -9 0 -16 6 -16 16
0 14 17 22 27 12z m276 -1 c5 -8 1 -16 -8 -16 -9 0 -13 8 -8 16 2 3 5 5 8 5 3
0 6 -2 8 -5z m359 -2 c1 1 5 0 10 -2 l8 -3 -4 -6 c-2 -3 -5 -7 -6 -7 -2 -1 -4
-2 -4 -3 0 -1 -2 -1 -5 -1 -7 0 -15 6 -15 12 -1 6 0 10 1 8 1 0 3 0 6 2 2 2 5
2 6 1 1 -1 3 -1 3 -1z m-1123 -21 c11 -10 3 -28 -11 -28 -9 0 -16 6 -16 16 0
14 17 22 27 12z m290 -30 c4 -6 4 -24 -1 -30 -7 -9 -27 -9 -34 0 -5 6 -5 24 0
30 7 9 27 9 35 0z m594 -5 c6 -4 6 -6 6 -20 0 -14 0 -16 -6 -20 -4 -4 -7 -5
-18 -5 -11 0 -14 1 -18 5 -6 4 -6 6 -6 20 0 14 0 16 6 20 4 4 7 5 18 5 11 0
14 -1 18 -5z m-756 -14 c5 -8 1 -16 -8 -16 -9 0 -13 8 -8 16 2 3 5 5 8 5 3 0
6 -2 8 -5z m647 -27 c5 -5 5 -15 0 -20 -9 -9 -24 -2 -24 10 0 8 6 14 14 14 3
0 8 -2 10 -4z"/>
<path d="M340 3292 c-6 -3 -27 -23 -76 -78 -8 -9 -17 -19 -20 -22 -14 -15 -42
-45 -46 -51 -10 -11 -16 -24 -16 -35 0 -14 9 -27 24 -38 6 -4 11 -8 12 -8 1
-1 16 -11 34 -23 28 -19 34 -22 43 -23 17 -1 23 4 29 24 4 13 13 22 25 22 4 1
7 2 7 3 0 1 3 -1 13 -13 1 -2 7 -9 12 -17 14 -19 20 -22 50 -27 12 -2 23 -8
23 -12 -1 0 2 -6 5 -13 6 -11 10 -17 18 -25 1 -2 3 -5 3 -5 0 -1 1 -3 3 -5 4
-5 3 -11 -6 -24 -7 -11 -9 -19 -5 -32 2 -6 5 -9 16 -16 13 -9 16 -10 25 -10
13 0 20 3 27 10 5 5 48 54 90 104 12 14 30 36 42 49 28 32 28 32 28 46 0 14
-4 22 -13 26 -16 7 -33 -1 -41 -19 -4 -9 -10 -16 -15 -16 -1 0 -4 2 -6 5 -3 4
-3 6 -1 11 1 3 3 8 4 11 2 3 3 6 3 7 0 1 1 3 2 5 2 5 0 22 -3 26 -12 14 -27
26 -50 39 -3 2 -13 7 -21 12 -9 5 -21 11 -28 13 -16 5 -23 9 -30 19 -1 3 -7 7
-12 10 -13 7 -33 19 -42 25 -4 3 -12 7 -16 9 -4 3 -10 6 -11 7 -53 32 -52 31
-64 31 -6 0 -13 -1 -16 -2z m161 -121 c6 -10 1 -23 -10 -23 -9 0 -16 12 -11
19 1 3 12 9 15 9 2 0 4 -2 6 -5z m-105 -22 c12 -5 18 -21 14 -36 -3 -11 -8
-16 -20 -20 -18 -6 -19 -5 -27 3 -16 19 -13 45 6 53 7 3 20 3 27 0z m138 -100
c6 -5 10 -22 9 -32 -2 -12 -8 -17 -19 -17 -19 -1 -29 13 -28 36 0 4 2 10 4 12
6 8 26 9 34 1z"/>
<path d="M868 3167 c-13 -4 -21 -13 -29 -30 -11 -23 -15 -25 -51 -24 -15 1
-27 1 -28 2 0 0 -5 -1 -12 -3 -12 -4 -24 -14 -24 -20 0 -2 -1 -4 -2 -4 -1 0
-2 -32 -2 -93 0 -80 0 -94 3 -100 4 -9 14 -21 18 -21 2 0 3 -1 3 -2 0 -3 14
-3 179 -3 l168 0 6 -6 6 -6 -1 -192 c0 -106 0 -195 1 -199 2 -9 11 -19 22 -22
12 -3 13 -3 15 -4 0 0 3 0 6 0 6 0 14 -6 14 -11 0 -1 1 -5 2 -8 2 -3 3 -7 3
-7 0 -1 1 -2 1 -2 0 -1 1 -2 1 -4 0 -2 3 -9 6 -17 3 -8 5 -16 5 -17 0 -8 5
-24 7 -27 2 -2 3 -3 2 -3 -1 0 0 -2 2 -3 3 -3 7 -4 20 -4 l16 0 7 -14 c4 -8 7
-16 8 -17 1 -6 14 -14 31 -19 13 -4 21 -9 30 -15 13 -10 23 -15 40 -21 10 -3
41 -4 61 -2 11 1 21 -4 19 -12 -2 -13 -13 -26 -28 -36 -20 -12 -28 -14 -45
-14 -22 0 -32 -3 -42 -13 -14 -13 -26 -20 -30 -19 -7 2 -20 16 -20 22 0 11 -7
28 -13 33 -6 5 -18 10 -29 11 -13 2 -21 9 -21 23 0 5 1 11 3 13 3 4 6 25 5 35
-1 7 -3 12 -7 17 -3 3 -6 7 -6 7 0 3 -26 2 -30 0 -2 -1 -6 -5 -8 -10 -2 -4 -9
-10 -16 -14 -14 -10 -22 -17 -21 -19 1 0 0 -1 -2 -1 -1 0 -6 -2 -10 -4 l-8 -5
-214 -1 c-118 -1 -215 -2 -216 -2 -2 0 -3 -1 -3 -2 0 -1 -1 -2 -3 -2 -4 0 -14
-12 -18 -21 -2 -6 -3 -17 -3 -63 0 -72 1 -75 26 -74 11 1 12 1 13 -3 0 -3 1
-2 1 1 0 8 10 13 23 13 20 0 28 -9 28 -34 0 -18 -4 -22 -24 -22 -18 1 -27 5
-27 13 0 3 -1 4 -1 1 -1 -4 -2 -4 -13 -3 -22 1 -26 -5 -26 -44 0 -19 1 -28 3
-33 4 -9 14 -21 18 -21 2 0 3 -1 3 -2 0 -2 1 -2 33 -3 40 -2 47 2 51 27 1 6 1
13 0 14 -1 2 -2 9 -3 16 -1 12 -1 13 4 18 5 5 6 6 20 5 15 -1 22 -5 25 -12 2
-6 3 -23 0 -27 -2 -3 1 -25 5 -31 7 -11 13 -11 81 -11 l63 1 17 8 c21 10 27
10 48 0 l17 -8 220 -1 220 0 10 5 c11 5 15 9 24 26 3 6 13 17 21 26 9 10 17
19 18 22 3 6 12 11 22 11 9 0 15 -3 24 -12 4 -4 14 -9 20 -11 1 0 3 -1 5 -2 5
-2 35 -3 40 0 2 1 5 2 6 2 2 0 7 3 12 7 11 7 14 17 15 45 1 6 2 10 5 13 4 4 4
4 9 0 2 -2 6 -9 9 -16 3 -7 9 -18 13 -24 10 -14 13 -24 10 -35 -3 -12 -7 -17
-16 -17 -4 0 -5 -1 -2 -1 4 -1 4 -2 4 -16 -1 -11 0 -15 2 -15 1 0 2 -1 2 -2 0
-5 18 -6 79 -6 78 0 77 0 98 28 7 10 8 10 24 16 14 5 24 14 27 24 1 5 2 36 2
103 0 84 0 98 -3 104 -4 9 -14 21 -18 21 -2 0 -3 1 -3 2 0 1 -1 2 -2 2 -8 2
-276 2 -282 0 -12 -3 -17 -10 -16 -24 0 -9 0 -12 -2 -12 -10 0 17 -6 33 -8 23
-1 27 -4 27 -20 0 -14 -6 -20 -19 -20 -9 0 -23 6 -23 10 0 2 -17 12 -24 13
-10 2 -10 3 -21 3 -11 0 -19 6 -19 16 0 7 -6 24 -11 31 -8 12 -16 13 -66 13
l-46 0 -6 5 c-6 4 -7 6 -5 9 4 7 2 51 -3 61 -4 8 -20 24 -25 26 -6 2 -10 13
-10 27 -1 15 3 21 16 27 12 6 18 15 18 28 0 10 -1 12 -9 20 -5 5 -9 9 -9 8 0
-1 -2 1 -4 6 -7 12 -5 16 12 34 14 15 16 23 16 54 0 15 -1 31 -2 35 -3 10 -12
20 -25 27 -23 13 -23 23 0 36 6 3 13 9 16 12 17 18 13 51 -8 68 -14 11 -21 19
-21 23 -1 5 -1 11 0 16 0 4 7 12 21 23 15 12 20 29 17 50 -2 11 8 18 19 14 8
-4 179 -4 188 -1 3 1 13 3 21 5 14 2 17 2 40 -2 23 -5 29 -5 73 -4 51 1 53 1
53 3 0 1 1 2 3 2 4 0 14 12 18 21 4 11 4 166 -1 192 -2 12 -2 20 -1 30 3 21 1
32 -7 40 -4 4 -8 7 -9 7 -2 0 -3 1 -3 2 0 1 -1 2 -2 2 -2 0 -165 1 -364 1
l-361 1 -10 -5 c-6 -2 -12 -7 -14 -10 -5 -8 -15 -27 -15 -30 0 -8 -25 -16 -52
-18 -15 -2 -16 -1 -21 3 -4 4 -5 7 -5 15 0 23 -6 36 -20 42 -9 4 -87 4 -100 0z
m646 -71 c5 -5 6 -7 6 -17 0 -10 -1 -12 -6 -17 -5 -5 -7 -6 -17 -6 -10 0 -12
1 -17 6 -5 5 -6 7 -6 17 0 10 1 12 6 17 5 5 7 6 17 6 10 0 12 -1 17 -6z m-630
-69 c3 -3 4 -7 4 -14 0 -13 -6 -19 -19 -19 -13 0 -19 6 -19 19 0 7 1 11 4 14
7 8 23 8 30 0z m754 -26 c15 -7 20 -31 9 -47 -3 -6 -20 -12 -32 -13 -9 0 -12
1 -16 5 -5 5 -6 7 -6 17 0 13 4 26 9 32 7 8 24 11 36 6z m-469 -59 c2 -1 2 -4
2 -5 -1 -2 -1 -3 0 -2 2 0 3 0 3 -1 1 -1 6 -2 12 -3 10 0 13 -2 16 -5 4 -5 4
-5 0 -9 -4 -4 -5 -5 -14 -2 -11 4 -14 6 -13 10 1 2 1 3 0 2 -2 0 -3 0 -3 1 -1
1 -6 2 -12 3 -10 0 -13 2 -16 5 -4 5 -4 5 0 9 4 4 5 5 14 2 5 -2 10 -4 11 -5z
m254 -26 c11 -12 13 -34 5 -37 -6 -2 -18 2 -27 9 -6 5 -7 8 -7 15 0 11 6 17
17 17 6 0 9 -1 12 -4z m-248 -124 c7 -6 7 -22 1 -27 -6 -5 -19 -4 -25 1 -7 6
-7 19 -1 25 6 7 19 7 25 1z m100 -55 c6 -4 9 -11 9 -23 0 -17 -7 -23 -35 -30
-35 -9 -52 -5 -57 15 -4 16 3 37 13 37 2 0 3 0 4 0 0 0 7 2 16 3 21 3 44 2 50
-2z m-46 -211 c26 -4 35 -12 35 -29 0 -13 -5 -20 -16 -23 -16 -5 -49 0 -57 8
-3 3 -4 6 -4 19 0 20 4 24 26 27 1 0 8 -1 16 -2z m148 -88 c-5 -5 -7 -5 -11 1
-4 4 -4 4 1 9 l4 4 5 -5 c5 -5 5 -5 1 -9z m-123 -50 c5 -5 5 -11 -1 -17 -10
-9 -16 -6 -18 7 -2 11 12 17 19 10z m256 -193 c4 -2 8 -6 10 -9 3 -6 3 -6 -2
-11 -8 -8 -29 -5 -37 5 -6 6 -6 10 -2 16 3 4 5 4 14 3 6 0 14 -2 17 -4z m-701
-14 c4 -4 5 -7 5 -13 0 -11 -7 -18 -18 -18 -11 0 -18 7 -18 18 0 11 7 18 18
18 6 0 9 -1 13 -5z m628 -52 c3 -2 11 -9 17 -15 6 -5 12 -10 13 -10 4 0 9 -14
9 -24 0 -14 -6 -21 -22 -23 -6 -1 -13 -2 -16 -3 -23 -8 -24 -8 -37 -25 -17
-21 -20 -24 -35 -24 -19 0 -27 8 -27 27 0 11 2 16 17 41 4 8 19 27 29 38 1 1
4 5 7 9 5 10 11 14 18 16 9 2 19 -1 27 -7z m-497 -12 c3 -3 4 -7 4 -14 0 -13
-6 -19 -19 -19 -13 0 -19 6 -19 19 0 7 1 11 4 14 7 8 23 8 30 0z m335 0 c6 -6
6 -12 1 -17 -7 -7 -20 -2 -20 9 0 2 1 5 3 6 2 0 3 2 3 4 0 5 7 4 13 -2z m567
-19 c5 -5 5 -11 0 -16 -10 -10 -27 5 -16 16 4 4 12 4 16 0z m-751 -47 c3 -5 3
-5 0 -10 -2 -3 -5 -5 -7 -5 -2 0 -5 2 -7 5 -3 5 -3 5 0 10 2 3 5 5 7 5 2 0 5
-2 7 -5z m-191 -25 c5 -6 5 -12 0 -18 -7 -8 -22 -2 -22 9 0 11 15 17 22 9z"/>
<path d="M418 2953 c-2 -6 -1 -28 0 -30 1 0 5 -1 10 -1 17 -1 26 0 26 2 0 1
-1 2 -2 1 -1 -1 -2 0 -2 1 0 4 0 5 -2 6 -1 1 -2 3 -3 6 -2 12 -12 20 -21 17
-2 0 -4 0 -5 2 0 1 -1 -1 -1 -4z"/>
<path d="M223 2945 c-6 -2 -25 -22 -75 -77 -8 -9 -17 -19 -20 -22 -3 -3 -9
-10 -15 -16 -5 -6 -18 -20 -28 -31 -22 -24 -23 -25 -23 -39 0 -16 4 -20 20
-20 8 0 16 1 21 4 13 6 26 5 32 -1 5 -5 5 -6 5 -19 -1 -28 5 -44 24 -55 12 -7
31 -13 51 -14 30 -3 40 -8 42 -25 2 -11 7 -28 11 -34 1 -2 12 -11 22 -19 20
-15 20 -15 33 -15 11 0 13 1 25 9 7 5 15 9 17 9 8 -2 14 -12 10 -17 -1 0 -2
-2 -2 -4 0 -2 -2 -6 -4 -9 -2 -4 -3 -11 -3 -17 0 -9 1 -11 5 -15 10 -8 27 -4
39 8 8 8 149 172 153 178 3 5 4 19 1 27 -3 8 -16 13 -34 13 -20 0 -22 2 -30
24 -8 21 -16 32 -32 42 -12 7 -54 35 -62 40 -3 2 -18 11 -33 21 -33 21 -53 33
-89 56 -14 10 -29 18 -31 19 -7 3 -23 2 -30 -1z m152 -154 c3 -3 3 -3 0 -6 -3
-3 -3 -3 -6 0 -3 2 -3 3 -1 6 4 4 4 4 7 0z m16 -64 c7 -7 7 -19 0 -26 -7 -7
-19 -7 -27 1 -7 6 -7 9 -3 19 3 8 8 11 18 11 5 0 9 -1 12 -5z m-81 -14 c2 -1
6 -6 8 -10 l5 -9 -5 -9 c-4 -8 -5 -9 -12 -9 -18 -2 -28 6 -28 21 0 17 14 25
32 16z"/>
<path d="M507 2579 c-4 -2 -11 -9 -16 -16 -11 -13 -38 -46 -53 -63 -5 -6 -11
-13 -13 -16 -2 -3 -10 -12 -17 -20 -7 -8 -15 -18 -18 -21 -6 -7 -38 -43 -50
-56 -27 -31 -36 -41 -47 -53 -19 -20 -20 -22 -20 -56 l0 -28 -6 -5 c-5 -5 -7
-5 -29 -5 -19 1 -25 0 -31 -3 -11 -5 -99 -91 -103 -101 -4 -9 -4 -26 1 -33 1
-2 13 -14 24 -27 12 -12 44 -44 70 -71 59 -61 55 -57 62 -59 10 -3 33 1 33 6
0 2 13 10 20 11 4 1 12 0 18 -2 13 -4 29 -4 39 0 3 1 12 10 21 20 8 10 19 22
23 27 4 5 10 12 12 14 2 3 9 11 16 19 11 13 19 24 24 34 4 7 9 13 24 28 12 12
48 54 65 77 3 4 6 8 7 9 2 2 18 22 26 32 0 1 4 5 7 9 9 11 16 25 19 43 2 9 5
18 6 20 2 3 11 8 20 13 22 11 29 18 48 46 6 8 8 12 9 22 1 14 -2 22 -16 37 -5
6 -11 13 -12 14 -1 3 -5 4 -16 5 -12 0 -15 0 -27 -6 -13 -7 -16 -7 -21 -1 -6
5 -4 12 5 23 4 4 8 10 9 12 3 8 1 25 -2 28 -7 8 -16 18 -34 41 -11 13 -21 26
-23 28 -2 2 -7 8 -11 13 -8 10 -12 12 -26 13 -8 1 -13 0 -17 -2z m-21 -156
c16 -7 20 -37 7 -48 -12 -11 -34 -11 -43 0 -9 10 -9 32 0 42 7 8 24 11 36 6z
m72 -82 l-5 -5 -4 4 -5 5 4 4 5 5 4 -4 5 -5 -4 -4z m-270 -156 c10 -5 14 -25
8 -39 -5 -11 -38 -30 -52 -30 -8 0 -16 7 -16 14 0 11 6 28 18 46 7 13 26 17
42 9z m103 -45 c5 -5 7 -15 3 -19 -3 -4 -10 -35 -10 -47 0 -10 -1 -14 -4 -17
-6 -7 -18 -7 -24 0 -5 6 -5 13 3 35 3 8 6 21 7 29 0 10 2 15 5 19 5 5 14 5 20
0z"/>
<path d="M1562 2002 c-5 -3 -5 -7 -4 -31 0 -3 10 -7 20 -8 5 0 7 1 12 5 5 5 6
7 6 18 0 7 1 12 3 13 1 0 0 1 -3 1 -3 0 -6 1 -6 2 -2 4 -23 4 -28 0z"/>
<path d="M1652 1999 c5 -1 5 -2 4 -14 0 -11 0 -13 4 -17 2 -2 4 -3 4 -3 0 1 1
1 3 0 4 -3 13 -3 13 0 0 2 1 3 3 3 1 0 2 4 1 15 0 14 0 15 4 16 3 0 -5 0 -18
0 -13 0 -21 0 -18 0z"/>
</g>
</svg>
