<?xml version="1.0" standalone="no"?>
<!DOCTYPE svg PUBLIC "-//W3C//DTD SVG 20010904//EN"
 "http://www.w3.org/TR/2001/REC-SVG-20010904/DTD/svg10.dtd">
<svg version="1.0" xmlns="http://www.w3.org/2000/svg"
 width="1000.000000pt" height="2850.000000pt" viewBox="0 0 1000.000000 2850.000000"
 preserveAspectRatio="xMidYMid meet">
<metadata>
Created by potrace 1.15, written by Peter Selinger 2001-2017
</metadata>
<g transform="translate(0.000000,2850.000000) scale(0.500000,-0.500000)"
fill="#000000" stroke="none">
<path d="M1438 3815 c-1 0 -12 -4 -24 -7 -64 -16 -104 -27 -135 -35 -19 -5
-35 -9 -37 -10 -27 -6 -37 -12 -42 -24 -6 -12 -5 -23 3 -41 4 -8 7 -17 7 -18
0 -1 1 -3 3 -3 4 -2 -10 -13 -16 -13 -9 0 -40 -12 -57 -21 -9 -5 -20 -11 -25
-12 -8 -3 -9 -3 -15 1 -3 3 -6 5 -6 6 0 3 -18 19 -25 22 -7 4 -14 4 -77 4 -62
0 -70 0 -76 -4 -8 -3 -14 -11 -15 -18 0 -3 -1 -5 -1 -5 0 0 -1 -9 -1 -21 0
-12 -1 -26 -2 -32 0 -6 1 -18 3 -27 3 -17 2 -24 -6 -28 -7 -4 -18 -8 -23 -10
-3 -1 -7 -4 -11 -7 -9 -7 -9 -22 -2 -34 8 -12 12 -24 10 -30 -1 -5 0 -22 4
-30 1 -4 5 -8 8 -10 7 -4 10 -4 108 -4 74 0 105 1 115 3 15 3 37 2 51 -1 6 -1
81 -2 214 -2 l204 0 25 6 24 6 15 -4 c14 -3 31 -7 38 -7 2 0 4 1 6 2 2 2 2 1
1 -1 -1 -1 1 -1 4 1 3 2 5 3 4 2 -1 -2 0 -3 4 -3 4 0 5 1 4 3 -1 1 1 0 4 -2 3
-2 5 -2 4 -1 -1 2 -1 3 1 1 2 -2 13 -3 35 -2 42 0 46 2 66 34 6 11 11 14 23
14 12 0 17 -3 23 -14 12 -18 16 -23 25 -28 8 -5 11 -6 28 -6 21 0 30 1 30 3 0
1 1 2 3 2 4 0 14 12 18 21 3 6 3 19 3 86 0 54 -1 81 -2 84 -5 12 -7 16 -15 27
-7 12 -24 28 -29 28 -1 0 -2 1 -2 2 0 7 -43 8 -56 1 -10 -5 -22 -19 -25 -29
-2 -7 3 -26 11 -39 5 -10 7 -14 7 -23 0 -14 0 -13 -21 -36 -10 -10 -18 -19
-18 -20 0 -3 -14 -10 -22 -10 -13 0 -14 0 -20 6 -5 5 -6 7 -6 18 0 10 1 13 7
21 4 6 9 12 11 13 15 15 30 44 30 62 1 11 -12 30 -26 37 -6 4 -14 4 -88 5 -89
0 -98 0 -106 -10 -7 -6 -14 -22 -15 -32 -2 -19 -12 -28 -30 -27 -16 1 -23 6
-27 20 -3 13 0 24 11 36 19 21 20 33 6 63 -19 43 -23 49 -39 67 -18 21 -22 25
-32 30 -8 3 -24 6 -26 4z m-74 -82 c2 -2 5 -7 6 -11 2 -6 1 -7 -3 -11 -10 -9
-29 -1 -29 12 0 13 17 20 26 10z m51 -35 c13 0 19 -6 19 -20 0 -14 -6 -20 -20
-20 -13 0 -18 5 -22 20 l-3 12 6 5 c3 3 7 5 9 4 1 -1 6 -1 11 -1z m-113 -41
c11 -3 17 -23 9 -34 -4 -5 -18 -9 -25 -8 -2 0 -4 1 -6 1 -1 0 -4 2 -7 5 -4 4
-5 7 -5 15 0 13 2 18 11 21 6 2 12 2 23 0z m-291 -59 c7 -3 12 -13 12 -25 0
-19 -9 -28 -28 -28 -19 0 -28 9 -28 28 0 17 6 24 22 28 5 1 14 -1 22 -3z m667
-4 c5 -5 5 -15 0 -20 -9 -9 -24 -2 -24 10 0 8 6 14 14 14 3 0 8 -2 10 -4z
m-281 -81 c3 -2 10 -6 15 -10 7 -5 15 -8 33 -12 0 0 2 -1 4 -1 12 -1 18 -25 8
-35 -4 -4 -7 -5 -15 -5 -10 0 -11 1 -18 8 -14 17 -25 26 -31 29 -15 6 -21 17
-13 25 4 4 9 5 17 1z m-351 -17 c5 -5 5 -15 0 -20 -9 -9 -24 -2 -24 10 0 8 6
14 14 14 3 0 8 -2 10 -4z m665 -16 c2 -3 3 -8 3 -15 0 -16 -5 -21 -21 -21 -16
0 -21 5 -21 21 0 7 1 12 4 15 7 9 27 9 35 0z m-18 -62 c0 -5 0 -1 0 8 0 9 0
13 0 9 1 -5 1 -13 0 -17z"/>
<path d="M354 3811 c-1 -2 -2 -10 -2 -20 1 -16 1 -17 -3 -18 -3 0 -3 -1 2 -1
3 0 6 -1 7 -1 1 0 4 -1 6 -1 2 0 9 -4 15 -9 13 -10 26 -15 44 -16 16 -1 21 -6
21 -20 1 -18 -15 -25 -34 -15 -12 5 -30 10 -37 9 -13 -2 -41 -28 -45 -42 -2
-5 -2 -16 -1 -29 1 -19 1 -23 -4 -39 -5 -17 -5 -19 -5 -80 0 -53 0 -63 -3 -68
-8 -14 -9 -16 -9 -15 0 1 -5 0 -11 -3 -18 -8 -24 -7 -54 7 -10 5 -11 5 -64 5
-54 0 -65 -1 -65 -3 0 -1 -1 -2 -3 -2 -6 0 -12 -10 -13 -22 -1 -7 -1 -12 0
-12 3 0 10 -23 10 -31 0 -4 -3 -15 -7 -25 -9 -24 -10 -26 -10 -80 l-1 -50 5
-11 c5 -11 14 -19 28 -27 8 -4 19 -4 37 1 20 6 24 6 28 1 9 -10 2 -22 -12 -22
-12 0 -31 -7 -39 -13 -3 -3 -7 -6 -8 -7 -1 0 -7 -5 -14 -9 -12 -8 -17 -14 -22
-26 -3 -8 -3 -23 -2 -148 0 -77 1 -144 1 -150 0 -5 -1 -55 -1 -111 -1 -90 -1
-101 2 -109 4 -9 14 -21 18 -21 2 0 3 -1 3 -2 0 -2 2 -2 59 -3 61 -1 68 0 78
10 7 6 15 26 15 34 0 10 16 20 34 21 8 1 11 0 15 -4 l6 -5 -1 -137 0 -137 -6
-5 c-3 -3 -7 -5 -9 -5 -83 -9 -87 -10 -107 -31 -12 -12 -18 -16 -29 -17 -3 -1
-9 -2 -12 -3 -3 -1 -11 -3 -17 -3 -10 -2 -14 -2 -21 -1 -1 0 -6 4 -11 8 -12
11 -16 14 -27 17 -8 2 -9 2 -20 -3 -20 -9 -26 -24 -22 -54 2 -10 5 -35 8 -55
3 -20 5 -39 6 -42 3 -17 13 -29 34 -40 15 -9 17 -11 17 -25 0 -11 0 -11 -12
-22 -13 -13 -18 -22 -18 -34 1 -14 19 -27 39 -26 8 0 55 7 111 17 3 0 46 8 96
16 50 8 110 18 133 22 23 4 45 8 48 8 40 7 136 24 141 25 11 4 16 7 16 8 0 1
1 2 3 2 1 0 4 2 6 4 6 4 18 10 24 10 11 0 17 -15 10 -24 -2 -2 -7 -6 -10 -7
-17 -9 -29 -29 -26 -44 2 -12 9 -25 17 -30 4 -3 8 -5 9 -5 0 0 4 -1 9 -3 17
-8 44 -7 66 1 48 17 74 26 79 29 3 1 8 3 11 4 21 6 35 20 40 38 2 8 2 10 -5
58 -1 4 -2 10 -2 12 0 2 -1 9 -2 15 -3 22 -13 70 -17 77 -2 5 -10 14 -19 22
-18 17 -19 19 -8 42 11 23 11 29 7 50 -7 29 -20 82 -28 114 -5 17 -9 32 -9 35
-3 16 -6 24 -7 22 -1 -2 -2 -1 -2 3 0 6 -13 50 -17 58 -8 14 -21 23 -35 23 -6
0 -38 -10 -51 -16 -2 -1 -16 -6 -31 -11 -15 -5 -29 -10 -31 -11 -2 -1 -12 -5
-23 -8 -27 -10 -34 -15 -43 -32 -4 -8 -8 -17 -9 -20 -2 -5 -2 -6 -7 -4 -14 6
-26 2 -41 -12 -2 -1 -6 -4 -11 -6 -8 -4 -8 -4 -12 0 -6 5 -5 8 12 41 12 24 13
26 26 28 20 3 36 12 40 25 2 4 3 14 3 22 0 15 2 21 8 34 1 2 2 5 2 7 0 2 1 3
2 3 1 0 3 3 4 6 1 3 4 9 6 12 2 3 4 6 3 6 -1 0 0 2 2 4 8 9 31 12 66 7 3 0 11
-1 17 -2 8 -1 13 -3 15 -5 3 -3 3 -4 1 -4 -2 0 -2 -1 0 -2 2 -2 5 -7 7 -13 8
-21 19 -26 52 -24 26 1 27 1 27 3 0 1 1 2 3 2 4 0 15 12 16 18 0 5 0 5 1 1 0
-3 1 -5 2 -5 2 0 2 -1 2 -1 -1 -1 0 -5 2 -9 2 -5 3 -18 4 -54 1 -27 2 -49 4
-52 3 -7 14 -20 17 -20 2 0 3 -1 3 -1 0 -3 19 -2 20 1 0 1 1 2 3 2 1 0 6 4 12
9 14 13 18 15 26 15 8 0 12 -2 26 -15 6 -5 11 -9 12 -9 2 0 3 -1 3 -2 0 -2 19
-7 26 -6 3 1 7 -1 11 -5 l6 -6 -1 -50 c0 -55 1 -61 13 -73 12 -12 16 -12 118
-12 l92 1 6 -6 6 -6 -1 -40 c0 -55 2 -63 27 -76 23 -12 44 -14 62 -6 21 10 40
-2 38 -23 -2 -18 -20 -24 -41 -13 -23 11 -36 11 -56 1 -17 -9 -22 -13 -27 -25
-6 -13 -12 -18 -26 -21 -7 -1 -17 -4 -21 -7 l-9 -4 -1 -14 -1 -14 8 -8 c5 -5
10 -10 12 -13 11 -17 -12 -56 -35 -59 -4 0 -12 1 -18 4 -14 4 -37 5 -46 0 -4
-2 -10 -6 -14 -9 -7 -5 -7 -6 -7 -21 -1 -12 0 -15 2 -15 2 0 3 -1 3 -2 0 -1 4
-4 10 -7 5 -3 12 -8 15 -12 6 -7 13 -28 13 -37 0 -3 2 -10 5 -15 10 -23 22
-30 48 -28 9 0 17 1 19 1 12 4 18 7 20 11 2 3 3 5 4 5 1 0 4 4 6 8 5 10 5 20
-2 47 -7 28 1 43 25 44 15 1 25 -7 29 -20 2 -9 0 -23 -4 -28 -3 -5 -8 -22 -8
-32 0 -9 1 -10 8 -17 8 -7 22 -13 29 -13 33 2 96 17 129 32 8 4 15 7 15 7 1 0
8 4 16 10 24 16 43 37 56 62 11 21 5 38 -18 52 -13 8 -16 13 -16 24 0 8 1 11
6 16 3 3 7 6 9 6 7 0 29 11 34 18 10 11 10 14 10 126 l-1 105 6 6 6 6 60 -1
c65 0 71 1 82 10 8 7 11 16 14 37 2 12 8 17 18 17 6 0 9 -1 10 -3 1 -2 2 -2 3
-2 1 1 7 2 13 3 22 4 26 11 25 49 l-1 24 6 6 6 6 67 0 c67 0 78 1 78 3 0 1 1
2 3 2 4 0 14 12 18 21 3 7 3 14 3 40 -1 30 -1 31 -7 39 -6 9 -27 22 -37 22
-12 0 -21 11 -21 27 0 16 9 27 21 27 10 0 31 13 37 22 l6 8 1 67 c0 57 0 67
-3 74 -4 9 -14 21 -18 21 -2 0 -3 1 -3 2 0 1 -1 1 -2 2 -2 0 -8 0 -15 1 -15 2
-28 -4 -33 -14 -5 -9 -9 -23 -8 -29 1 -6 -7 -14 -15 -14 -7 0 -22 12 -20 17 2
6 -30 12 -40 7 -5 -3 -23 -3 -29 0 -3 1 -10 7 -15 13 -6 6 -15 13 -20 15 l-10
5 -133 1 c-92 0 -136 0 -143 -2 -6 -1 -17 -6 -25 -12 -18 -11 -21 -12 -31 -13
-10 -1 -14 1 -32 13 -23 15 -13 14 -194 14 l-162 0 -13 -6 c-8 -4 -14 -9 -19
-16 -10 -12 -17 -17 -29 -17 -12 0 -19 5 -29 17 -5 7 -11 12 -20 16 -12 6 -14
6 -25 5 -6 -1 -12 -1 -13 -1 -2 -1 -3 -1 -3 -2 0 -1 -1 -2 -3 -2 -4 0 -15 -12
-16 -18 0 -5 0 -5 -1 0 0 2 -1 4 -2 4 -2 0 -2 1 -2 1 1 1 0 5 -2 9 -3 6 -3 22
-4 145 -1 76 -2 140 -3 143 -3 11 -29 21 -42 18 -11 -3 -26 2 -30 11 -4 8 -4
24 0 32 4 9 19 14 30 11 9 -2 37 5 37 10 0 0 0 1 0 2 1 3 1 18 0 18 -1 0 -2 2
-2 4 0 2 -5 9 -11 15 -15 15 -25 28 -25 31 0 3 -10 12 -16 14 -7 3 -28 2 -33
-1 -3 -2 -9 -3 -14 -3 -13 0 -19 6 -19 20 0 14 6 20 20 20 9 0 11 -1 20 -10 6
-5 12 -10 13 -10 2 0 3 -1 3 -2 1 -1 3 -3 5 -3 2 0 4 -1 4 -1 0 0 4 -1 9 -1 4
0 8 0 8 1 0 1 2 2 5 2 6 -1 26 7 32 12 3 3 6 8 7 11 3 9 3 43 -1 52 -4 9 -14
21 -18 21 -2 0 -3 1 -3 2 0 2 -1 2 -43 3 -37 1 -59 -1 -59 -5 0 -1 -1 -2 -3
-2 -1 0 -5 -3 -9 -6 -14 -12 -57 -30 -72 -30 -16 0 -23 10 -25 41 -2 28 -5 48
-10 57 -2 5 -5 9 -5 10 -1 0 -2 2 -2 3 0 2 -1 3 -2 3 0 0 -2 2 -3 4 -1 2 -4 7
-8 12 -5 7 -6 13 -5 25 0 3 6 11 14 20 20 22 20 19 20 112 0 68 0 79 -3 86 -4
9 -14 21 -18 21 -2 0 -3 1 -3 2 0 2 -1 2 -99 4 -71 1 -94 0 -95 -1z m141 -129
c-5 -5 -8 -5 -12 0 -3 4 -3 4 1 8 5 4 5 4 9 0 5 -4 5 -5 2 -8z m15 -53 c3 -5
3 -8 -2 -13 -5 -5 -11 -5 -15 0 -4 6 -4 9 1 14 4 4 12 4 16 -1z m-73 -24 c3
-3 3 -3 0 -6 -3 -3 -3 -3 -6 0 -3 2 -3 3 -1 6 4 4 4 4 7 0z m114 -237 c5 -5 6
-7 6 -16 0 -9 -1 -11 -7 -16 -5 -6 -7 -7 -16 -7 -9 0 -11 1 -16 7 -9 8 -9 23
-1 32 9 9 24 9 34 0z m-350 -11 c9 -4 22 -24 26 -38 7 -23 -6 -41 -28 -40 -23
1 -31 14 -27 43 3 18 7 29 12 34 6 5 8 5 17 1z m229 -33 c5 -5 5 -15 0 -20 -9
-9 -24 -2 -24 10 0 8 6 14 14 14 3 0 8 -2 10 -4z m-138 -115 c13 -8 33 -16 37
-15 1 1 5 -2 8 -5 l6 -6 0 -61 0 -61 9 -18 c5 -10 9 -21 9 -24 0 -3 -4 -14 -9
-24 l-9 -18 0 -32 0 -32 -6 -6 c-5 -4 -8 -6 -13 -6 -5 0 -8 2 -13 6 l-6 6 1
108 c0 76 0 110 -2 116 -3 10 -13 20 -26 24 -12 4 -13 4 -20 5 -13 0 -22 17
-18 34 5 21 26 25 52 9z m285 -20 l6 -6 -1 -22 c0 -23 1 -34 8 -48 10 -21 10
-30 0 -52 -7 -17 -8 -25 -8 -87 l1 -61 -6 -6 c-4 -3 -8 -6 -11 -6 -3 0 -7 3
-11 6 l-6 6 0 135 0 135 6 6 c8 8 14 8 22 0z m-153 -18 l-5 -5 -4 4 -5 5 4 4
5 5 4 -4 5 -5 -4 -4z m-275 -122 c3 -5 3 -5 0 -10 -2 -3 -5 -5 -7 -5 -2 0 -5
2 -7 5 -3 5 -3 5 0 10 2 3 5 5 7 5 2 0 5 -2 7 -5z m561 -56 c10 -8 20 -52 16
-70 -4 -13 -14 -21 -29 -20 -22 1 -28 11 -30 45 -2 22 1 38 8 44 7 5 28 6 35
1z m-213 -113 c8 -5 18 -11 22 -12 4 -2 7 -3 7 -4 0 -1 5 -3 12 -5 13 -3 18
-34 6 -45 -5 -6 -18 -8 -28 -6 -9 2 -22 14 -22 19 0 6 -33 7 -37 1 -3 -4 -6
-16 -7 -26 0 -8 -10 -14 -24 -14 -15 -1 -54 30 -54 42 -1 15 3 23 18 37 14 13
18 15 36 16 9 1 22 2 29 4 22 5 26 4 42 -7z m706 -31 c5 -2 13 -9 13 -11 0 -1
4 -10 9 -20 8 -17 18 -32 22 -32 1 0 4 -2 6 -4 3 -2 7 -4 9 -4 4 0 14 -5 14
-7 0 -1 1 -1 2 0 1 0 1 -2 1 -7 -1 -13 -3 -22 -5 -22 -1 0 -2 -1 -2 -3 0 -5
-9 -8 -17 -5 -13 4 -24 9 -32 14 -9 7 -21 11 -42 14 -24 4 -28 7 -32 24 -1 4
3 24 6 33 5 15 13 26 22 30 6 3 19 3 26 0z m-397 -31 c1 0 2 -2 2 -4 0 -2 1
-4 2 -5 3 -2 3 -44 0 -46 -1 -1 -2 -3 -2 -5 0 -2 -1 -4 -2 -4 -1 0 -2 -2 -2
-5 0 -6 0 -6 -2 0 -2 7 -8 15 -17 20 -4 2 -9 7 -12 10 l-5 6 4 5 c2 3 4 5 4 6
0 1 3 3 6 5 10 5 20 16 20 23 l1 5 0 -5 c1 -4 2 -6 3 -6z m511 -25 c3 -5 3 -5
0 -10 -5 -6 -7 -7 -16 -5 -6 2 -12 8 -7 8 1 0 2 1 2 3 0 2 1 3 3 3 1 0 4 1 5
3 4 4 8 4 13 -2z m-590 -19 c6 -4 7 -5 7 -12 -2 -26 -38 -27 -38 -2 0 16 16
23 31 14z m-553 -2 c5 -6 5 -12 0 -18 -7 -8 -22 -2 -22 9 0 11 15 17 22 9z
m916 -16 c5 -5 5 -15 0 -20 -9 -9 -24 -2 -24 10 0 8 6 14 14 14 3 0 8 -2 10
-4z m379 -3 c11 -11 4 -36 -11 -42 -26 -10 -41 5 -31 31 6 15 31 22 42 11z
m-1096 -5 c10 -9 3 -26 -10 -26 -8 0 -15 7 -15 15 0 13 16 20 25 11z m125 1
c15 -1 29 -7 32 -13 4 -7 2 -22 -3 -27 -6 -6 -26 -9 -47 -5 -22 4 -27 10 -26
32 0 5 8 13 16 14 2 0 5 1 6 1 0 0 2 0 5 0 2 0 10 -1 17 -2z m1060 -22 c3 -2
6 -4 8 -6 4 -5 9 -20 7 -24 0 -2 0 -7 2 -11 2 -4 2 -8 2 -8 -2 0 5 -11 9 -15
9 -8 16 -9 38 -9 l21 1 6 -6 6 -7 -3 -9 c-5 -16 -9 -23 -12 -24 -2 -1 -4 -2
-4 -3 0 -1 -4 -3 -8 -6 -15 -8 -31 -6 -45 7 -3 3 -11 8 -17 11 l-11 5 -69 1
c-75 0 -81 0 -89 -10 -5 -7 -9 -28 -6 -32 3 -4 2 -22 -2 -29 -3 -8 -12 -12
-24 -12 -17 0 -21 4 -33 28 -5 11 -15 19 -35 29 -9 5 -20 11 -24 14 -16 12
-20 12 -104 12 l-76 -1 -6 6 c-3 4 -6 8 -7 9 0 2 -1 4 -3 4 -1 1 -1 2 2 2 2 0
6 2 9 6 l5 5 73 -1 c83 0 90 0 100 11 7 9 14 27 13 35 -1 5 0 7 4 12 l6 6 12
-4 c12 -4 19 -10 19 -16 0 -7 8 -26 15 -33 3 -4 9 -8 14 -9 13 -3 133 -3 142
1 8 4 18 14 17 20 0 0 1 4 3 9 2 5 2 9 2 10 -2 4 3 22 7 25 9 8 24 10 36 6z
m-519 -41 c3 -2 5 -6 5 -8 0 -2 1 -4 2 -4 3 -1 4 -11 3 -16 -1 -4 -2 -4 -3 -2
-1 2 -2 1 -2 -2 0 -9 -8 -14 -23 -14 -11 0 -14 1 -18 5 -6 4 -6 6 -6 20 0 14
0 16 6 20 7 7 28 7 36 1z m-104 -2 c7 -3 12 -13 12 -25 0 -14 -5 -22 -22 -33
-22 -16 -27 -18 -41 -18 -17 0 -23 5 -24 22 0 17 3 22 21 38 24 20 35 23 54
16z m302 -108 c5 -3 10 -7 13 -10 3 -2 11 -8 18 -13 15 -10 19 -15 19 -28 -1
-14 -9 -22 -22 -22 -13 0 -19 5 -27 18 -3 5 -9 14 -13 18 -15 16 -18 28 -11
36 6 6 14 6 23 1z m452 -11 c5 -8 1 -16 -8 -16 -9 0 -13 8 -8 16 2 3 5 5 8 5
3 0 6 -2 8 -5z m-96 -22 c8 -5 10 -7 17 -22 16 -33 19 -59 8 -69 -8 -9 -31 -9
-40 -1 -1 1 -7 10 -11 18 -4 8 -8 15 -9 15 -1 0 -2 1 -2 3 0 1 -1 4 -3 5 -10
9 -15 33 -8 45 6 13 28 16 48 6z m-840 -5 c4 -6 4 -24 -1 -30 -7 -9 -27 -9
-34 0 -5 6 -5 24 0 30 7 9 27 9 35 0z m-151 -55 c20 -10 22 -13 22 -25 0 -7
-2 -11 -7 -20 -5 -6 -9 -11 -10 -12 0 0 -1 -1 0 -2 1 -1 0 -2 -1 -2 -1 0 -3
-6 -4 -12 -4 -23 -11 -29 -26 -26 -12 3 -38 1 -51 -4 -7 -2 -16 -4 -19 -4 -8
0 -13 7 -11 15 5 19 18 31 36 34 4 0 11 2 14 3 3 2 7 3 7 3 4 0 14 10 16 15 1
3 3 11 4 18 2 18 3 19 7 25 1 3 3 6 3 7 0 2 1 1 1 0 1 -2 9 -8 19 -13z m-176
-40 c3 -3 4 -7 4 -14 0 -13 -6 -19 -19 -19 -13 0 -19 6 -19 19 0 7 1 11 4 14
7 8 23 8 30 0z m1045 -4 c3 -5 3 -5 0 -10 -2 -3 -5 -5 -7 -5 -2 0 -5 2 -7 5
-3 5 -3 5 0 10 2 3 5 5 7 5 2 0 5 -2 7 -5z m-162 -95 c11 -10 3 -28 -11 -28
-9 0 -16 6 -16 16 0 14 17 22 27 12z m-574 -6 c10 -9 3 -26 -10 -26 -8 0 -15
7 -15 15 0 13 16 20 25 11z m-342 -3 c6 -4 6 -6 6 -20 0 -14 0 -16 -6 -20 -4
-4 -7 -5 -18 -5 -18 0 -24 6 -28 29 -1 5 3 15 6 15 2 0 5 1 6 3 2 2 7 3 16 3
11 0 14 -1 18 -5z m1027 -3 c23 -14 33 -37 21 -48 -6 -5 -23 -16 -40 -25 -15
-7 -20 -1 -24 30 -3 24 -2 35 5 42 7 7 27 8 38 1z m-1102 -123 c13 -7 19 -38
9 -48 -6 -7 -19 -7 -31 0 -11 5 -16 14 -16 29 0 9 1 11 6 16 5 5 7 6 16 6 6 0
13 -1 16 -3z m1103 -176 c5 -8 1 -16 -8 -16 -9 0 -13 8 -8 16 2 3 5 5 8 5 3 0
6 -2 8 -5z"/>
<path d="M956 3386 c-3 -1 -6 -1 -7 0 0 0 -1 0 -1 -2 0 -1 -1 -2 -3 -2 -4 0
-15 -13 -18 -22 -4 -11 -4 -18 1 -25 7 -12 21 -18 39 -17 11 0 17 -5 17 -14 0
-9 -6 -14 -17 -14 -18 1 -32 -5 -39 -17 -4 -6 -4 -11 -4 -122 0 -114 1 -127 7
-134 1 -2 7 -3 16 -3 l15 0 0 -10 0 -10 -15 0 c-9 0 -15 -1 -16 -2 -7 -9 -9
-38 -4 -51 4 -9 14 -21 18 -21 2 0 3 -1 3 -2 0 -1 6 -2 13 -2 7 0 13 1 13 2 0
1 2 2 5 3 3 1 8 5 12 11 6 8 7 10 7 21 0 15 -1 16 -19 28 l-15 9 0 14 c0 17 3
20 19 20 11 0 19 -6 19 -15 0 -3 1 -7 2 -9 1 -3 2 -9 3 -14 0 -8 0 -10 3 -9 2
0 4 -1 5 -2 0 -2 2 -3 3 -2 1 1 2 0 2 0 0 -2 17 -11 22 -12 3 -1 7 -5 19 -23
5 -7 11 -14 14 -16 3 -2 6 -3 7 -4 3 -3 15 -3 124 -4 l118 0 21 7 c29 10 33
10 60 1 l22 -8 75 0 75 0 11 6 c8 3 13 8 17 14 6 9 15 18 18 18 3 0 12 -9 18
-18 4 -6 9 -11 17 -14 10 -6 13 -6 33 -6 18 0 24 1 31 4 8 4 24 19 24 22 0 1
3 3 6 5 6 3 7 3 13 0 3 -2 9 -7 12 -12 6 -9 18 -17 27 -17 11 0 24 10 30 24 5
10 5 37 2 48 -3 8 -14 20 -19 20 -2 0 -3 1 -3 2 0 2 -1 2 -1 1 -1 0 -3 0 -5 1
-2 1 -8 3 -12 3 -10 2 -53 23 -58 29 -6 7 -5 18 1 24 5 5 5 5 29 2 12 -1 25
-2 27 -3 2 0 7 1 10 2 4 1 7 2 8 1 0 0 1 0 1 2 0 1 1 2 3 2 5 0 16 12 19 20 1
5 2 45 2 133 0 111 0 127 -3 134 -4 9 -14 21 -18 21 -2 0 -3 1 -3 2 0 2 -2 2
-65 3 -51 1 -61 1 -68 -2 -8 -3 -19 -12 -20 -17 0 -2 -2 -6 -3 -9 -1 -3 -3
-10 -4 -16 -2 -14 -9 -18 -26 -17 -8 1 -11 3 -18 13 -8 11 -15 15 -29 15 -11
0 -12 0 -16 -6 -3 -6 -12 -30 -14 -39 -2 -11 -9 -15 -24 -15 -14 0 -18 2 -28
16 -8 13 -15 19 -28 27 -14 8 -16 10 -23 22 -3 6 -7 11 -9 11 -8 2 -31 2 -31
0 0 -1 -4 -5 -8 -8 -7 -5 -11 -6 -18 -6 -10 0 -14 2 -29 16 -18 16 -14 15 -91
16 -82 0 -83 0 -104 -20 -24 -24 -41 -23 -65 1 -18 18 -23 19 -83 19 -27 0
-51 -1 -54 -2z m271 -116 c7 -3 12 -13 12 -25 0 -19 -9 -28 -28 -28 -19 0 -28
9 -28 28 0 17 6 24 22 28 5 1 14 -1 22 -3z m-103 -50 c1 0 5 -3 8 -6 5 -5 6
-7 6 -18 0 -11 -1 -13 -6 -18 -6 -6 -7 -6 -18 -6 -11 0 -12 0 -18 6 -5 5 -6 7
-6 17 0 14 3 20 12 24 5 2 8 2 22 1z m410 -17 c13 -6 18 -21 13 -39 -6 -24 -6
-23 -16 -29 -5 -2 -12 -3 -30 -3 -25 0 -33 -2 -48 -12 -4 -3 -11 -7 -15 -9
l-8 -4 -13 8 c-26 15 -27 16 -43 17 -17 0 -31 -4 -37 -13 -4 -6 -9 -25 -9 -35
0 -10 -5 -16 -14 -18 -16 -3 -28 4 -28 18 0 10 -5 30 -10 35 -3 3 -26 5 -26 1
0 -1 -1 -2 -2 -1 -1 1 -4 0 -6 -2 -1 -3 -8 -7 -15 -10 -21 -10 -47 -4 -47 12
0 7 5 16 13 23 5 4 12 16 11 18 0 1 2 2 4 3 2 1 6 3 9 6 l4 4 120 0 c119 0
120 0 129 4 5 3 14 8 19 13 15 14 30 19 45 13z m116 -107 c5 -6 5 -12 0 -18
-7 -8 -22 -2 -22 9 0 11 15 17 22 9z m-73 -40 c5 -5 6 -7 6 -16 0 -9 -1 -11
-7 -16 -5 -6 -7 -7 -16 -7 -9 0 -11 1 -16 7 -9 8 -9 23 -1 32 9 9 24 9 34 0z
m-439 -46 c1 0 5 -3 8 -6 5 -5 6 -7 6 -18 0 -11 -1 -13 -6 -18 -6 -6 -7 -6
-18 -6 -11 0 -12 0 -18 6 -5 5 -6 7 -6 17 0 14 3 20 12 24 5 2 8 2 22 1z m97
-23 c3 -3 3 -3 0 -6 -3 -3 -3 -3 -6 0 -3 2 -3 3 -1 6 4 4 4 4 7 0z"/>
<path d="M1025 2155 c-12 -5 -15 -10 -16 -23 -1 -5 -2 -9 -2 -10 -1 -5 13 -22
20 -23 1 0 3 -1 4 -1 5 -4 21 -4 30 -1 17 5 27 3 38 -7 2 -2 5 -4 6 -4 2 0 3
-1 3 -2 0 -1 4 -2 10 -2 7 0 8 1 6 3 -2 1 -3 5 -2 15 0 7 -1 12 -2 12 -1 0 -1
2 -1 4 1 1 1 2 0 2 -1 -1 -3 -1 -5 0 -1 2 -4 3 -6 3 -6 1 -18 11 -18 15 0 1
-3 5 -6 9 -16 14 -42 19 -59 10z"/>
</g>
</svg>
