<?xml version="1.0" standalone="no"?>
<!DOCTYPE svg PUBLIC "-//W3C//DTD SVG 20010904//EN"
 "http://www.w3.org/TR/2001/REC-SVG-20010904/DTD/svg10.dtd">
<svg version="1.0" xmlns="http://www.w3.org/2000/svg"
 width="1100.000000pt" height="2850.000000pt" viewBox="0 0 1100.000000 2850.000000"
 preserveAspectRatio="xMidYMid meet">
<metadata>
Created by potrace 1.15, written by Peter Selinger 2001-2017
</metadata>
<g transform="translate(0.000000,2850.000000) scale(0.500000,-0.500000)"
fill="#000000" stroke="none">
<path d="M486 3811 c-6 -1 -13 -1 -15 -2 -5 -1 -15 -16 -15 -21 0 -2 -3 -6 -6
-9 -6 -6 -20 -8 -28 -3 -27 13 -40 13 -61 4 -8 -4 -23 -10 -34 -14 -57 -23
-82 -39 -87 -59 -4 -15 -2 -23 13 -46 12 -18 27 -43 44 -73 15 -25 18 -30 28
-47 l4 -8 14 -1 c18 0 21 2 27 15 5 13 12 18 27 18 18 0 27 -9 27 -25 0 -4 0
-15 -1 -24 0 -9 0 -22 1 -29 2 -12 -1 -21 -8 -21 -5 0 -14 8 -18 17 -4 10 -11
18 -19 23 -7 3 -17 3 -30 -2 -10 -4 -18 -5 -58 -6 -43 -1 -47 -1 -56 -6 -34
-16 -36 -16 -70 0 -9 4 -13 5 -36 5 -28 0 -37 -1 -37 -3 0 -1 -1 -2 -3 -2 -1
0 -5 -3 -9 -7 -7 -7 -7 -8 -7 -22 0 -8 1 -20 2 -27 1 -10 0 -17 -3 -31 -5 -22
-6 -100 -1 -112 2 -6 11 -16 13 -17 1 0 6 -1 11 -2 14 -4 47 -3 65 2 11 3 22
2 29 -2 6 -3 13 -14 13 -20 0 -3 8 -20 13 -27 2 -3 8 -8 14 -10 l10 -5 86 0
c78 0 87 0 91 -3 7 -5 10 -9 8 -9 0 -1 -3 -5 -6 -10 -16 -32 -28 -54 -39 -73
-7 -13 -13 -23 -13 -24 0 -1 -2 -4 -5 -9 -2 -4 -11 -17 -18 -29 -18 -29 -63
-97 -67 -102 -2 -2 -5 -7 -6 -10 -2 -4 -4 -7 -4 -7 -1 0 -2 -1 -2 -3 0 -1 -4
-6 -9 -11 -5 -5 -12 -13 -15 -17 -3 -4 -7 -10 -9 -12 -2 -3 -6 -7 -8 -10 -2
-3 -5 -7 -6 -8 -1 -1 -6 -7 -10 -12 -4 -6 -11 -14 -16 -19 -4 -5 -13 -15 -20
-23 -32 -37 -67 -71 -103 -103 -9 -8 -18 -16 -19 -17 -2 -1 -7 -5 -12 -10 -12
-10 -15 -17 -15 -31 -1 -10 1 -13 8 -24 4 -7 9 -15 10 -17 1 -3 4 -8 7 -13 3
-4 12 -22 21 -39 13 -25 19 -35 28 -45 7 -7 12 -13 12 -14 0 -3 34 -27 44 -31
15 -5 19 -13 15 -32 -1 -4 -2 -10 -2 -12 0 -1 -1 -4 -2 -5 -2 -3 3 -16 7 -17
6 -2 12 -3 12 -1 0 0 4 3 8 5 5 2 17 12 29 24 11 11 25 24 30 28 5 4 10 10 11
12 1 3 2 3 2 1 0 -2 1 -4 2 -4 0 0 3 -3 4 -6 3 -4 4 -12 4 -53 0 -53 1 -58 11
-76 4 -7 8 -14 9 -15 4 -7 2 -16 -4 -27 -13 -23 -14 -27 -15 -39 -1 -11 2 -31
5 -35 5 -6 14 -27 14 -32 0 -5 -9 -26 -14 -32 -5 -7 -6 -25 -6 -129 0 -94 0
-109 3 -115 4 -9 14 -21 18 -21 2 0 3 -1 3 -2 0 -3 13 -3 127 -3 114 0 127 0
127 3 0 1 1 2 3 2 4 0 14 12 18 21 3 7 3 24 3 150 0 91 -1 145 -2 149 -5 17
-23 29 -48 30 -1 0 -5 3 -8 6 -5 5 -6 7 -6 18 0 11 1 13 6 18 3 3 7 6 8 6 25
1 43 13 48 30 1 4 2 44 2 106 0 97 1 112 6 112 1 0 3 2 4 5 2 4 2 4 2 0 0 -2
3 -8 6 -13 3 -5 6 -10 6 -11 0 -5 12 -9 25 -9 10 0 15 1 22 5 13 7 20 7 35 -4
11 -9 12 -9 25 -9 15 0 12 -3 40 30 15 17 18 20 24 20 8 0 14 -4 19 -14 2 -4
6 -11 9 -15 3 -4 7 -12 9 -16 16 -31 22 -40 29 -43 8 -4 30 -6 36 -3 2 2 11 3
19 4 8 0 17 1 20 2 4 1 27 12 32 15 1 2 2 2 2 0 0 -1 1 -2 2 -1 1 1 2 0 2 -1
0 -1 1 -2 2 -1 1 1 2 0 2 -1 0 -1 1 -2 2 -2 2 0 6 -2 9 -5 7 -5 25 -13 31 -14
3 0 10 -7 10 -10 0 -3 -6 -8 -10 -9 -5 0 -21 -6 -27 -11 -11 -7 -13 -15 -13
-50 0 -43 2 -49 25 -72 6 -6 11 -13 11 -15 1 -5 1 -11 0 -16 0 -2 -5 -10 -12
-16 -19 -19 -24 -29 -23 -43 1 -12 1 -40 0 -76 -2 -37 0 -45 10 -54 7 -6 23
-13 33 -14 18 -1 29 -18 24 -37 -4 -14 -11 -20 -24 -21 -18 -1 -38 -14 -42
-27 -4 -13 -2 -48 3 -55 7 -11 19 -16 39 -15 11 0 19 -3 31 -13 16 -14 23 -15
84 -15 49 0 56 0 69 4 8 2 20 5 26 5 17 2 34 7 40 12 6 5 11 17 10 27 -1 5 0
8 5 13 l6 6 103 -1 102 0 9 4 c12 6 20 23 19 41 0 9 6 19 12 18 1 0 4 -1 5 -1
4 0 10 -6 15 -14 7 -12 23 -20 43 -20 12 0 19 -6 19 -17 0 -8 -8 -26 -13 -29
-3 -1 -3 -2 -1 -2 2 0 2 -3 1 -11 0 -12 4 -21 10 -21 2 0 3 -1 3 -2 0 -3 13
-3 135 -3 122 0 135 0 135 3 0 1 1 2 3 2 4 0 14 12 18 21 2 6 3 15 3 45 0 40
-1 44 -14 72 -5 11 -5 21 0 32 3 5 7 15 9 22 l5 13 0 113 c0 121 0 123 -10
138 -2 3 -5 9 -7 14 -3 8 -3 9 0 18 2 5 5 11 7 14 9 13 10 22 10 86 0 65 -1
71 -10 88 -4 6 -8 9 -16 13 -11 5 -13 9 -9 15 1 2 4 7 7 12 2 5 8 15 13 22 5
7 10 16 11 20 2 4 3 35 3 80 1 94 3 90 -31 93 -8 0 -11 -3 -13 -19 -1 -3 -2
-5 -3 -6 -1 0 -1 -2 0 -5 1 -8 -7 -15 -16 -15 -9 0 -17 7 -16 15 1 3 1 5 0 5
-1 1 -2 4 -3 8 -2 12 -9 22 -19 26 -8 5 -10 5 -36 2 -18 -1 -32 -1 -42 0 -25
3 -199 2 -212 -1 -6 -1 -9 -3 -7 -3 3 0 3 -2 3 -16 l0 -16 -11 -1 c-11 0 -10
0 4 -1 23 0 40 -10 60 -38 12 -14 8 -30 -7 -30 -8 0 -15 4 -29 19 -17 18 -34
27 -51 27 -7 0 -17 -1 -22 -2 -14 -4 -22 -3 -28 3 -13 13 3 47 26 56 4 2 8 4
8 5 1 8 5 13 19 28 25 26 47 49 47 50 0 1 5 4 11 6 l10 5 144 1 144 1 10 5 c6
3 14 9 18 14 10 11 16 14 26 14 10 0 16 -3 26 -14 10 -10 25 -18 34 -18 4 1 7
2 7 2 0 1 1 2 3 2 1 0 5 3 9 7 5 5 6 8 6 16 0 13 -7 20 -28 31 -8 3 -15 8 -17
11 -8 13 -3 40 9 42 12 2 31 17 37 28 6 9 7 103 2 116 -4 9 -14 21 -18 21 -2
0 -3 1 -3 2 0 2 -1 2 -37 3 -30 1 -33 1 -42 -3 -5 -2 -10 -6 -12 -9 -4 -7 -9
-25 -9 -36 0 -8 -1 -10 -6 -15 -6 -6 -7 -6 -18 -6 -11 0 -12 0 -18 6 -5 5 -6
7 -6 15 0 11 -5 29 -9 36 -2 3 -7 6 -12 9 -4 2 -10 6 -13 9 -3 2 -7 5 -8 6 -2
0 -2 1 0 1 2 0 4 2 5 4 0 1 8 13 16 26 8 13 18 29 21 36 20 40 24 47 35 59 4
5 16 26 29 51 8 16 8 18 7 28 -2 15 -7 22 -21 33 -18 12 -24 23 -23 37 2 17
15 20 41 8 28 -13 46 -5 62 27 14 30 28 66 28 73 0 4 -3 12 -6 18 -4 10 -7 12
-17 17 -11 5 -13 6 -30 6 -10 0 -24 -1 -31 -2 -19 -2 -23 -1 -39 16 -22 22
-33 26 -59 21 -18 -4 -25 -3 -43 5 -10 4 -18 8 -19 9 -2 6 -34 -3 -38 -11 -4
-5 -1 -22 4 -27 4 -5 16 -11 24 -13 15 -2 19 -7 25 -23 4 -13 4 -16 -5 -25
-13 -14 -31 -14 -48 -1 -9 6 -30 7 -39 1 -5 -3 -19 -30 -19 -37 0 -3 -9 7 -11
13 -1 1 -2 3 -3 3 -1 0 -2 2 -2 4 0 7 -15 21 -27 24 -17 4 -35 -1 -42 -11 -4
-6 -5 -26 -2 -29 5 -4 4 -17 -2 -22 -6 -6 -17 -5 -23 1 -6 6 -5 23 1 23 2 0 3
1 2 2 -1 1 -2 6 -2 12 -1 5 -2 12 -4 15 -5 9 -17 11 -50 11 l-26 -1 -6 6 c-6
6 -6 6 -5 27 0 18 -1 22 -4 27 -7 12 -21 18 -39 17 -11 0 -17 5 -17 15 0 8 7
14 15 13 17 -2 34 5 41 16 5 9 6 36 1 47 -4 9 -14 21 -18 21 -2 0 -3 1 -3 2 0
2 -1 2 -38 3 -33 1 -34 1 -46 -4 -11 -5 -23 -16 -31 -28 -4 -5 -10 -9 -24 -13
-14 -4 -26 -23 -30 -46 -3 -14 -24 -20 -34 -9 -8 7 -7 21 2 32 10 12 13 21 14
33 1 11 1 11 -9 20 -14 14 -29 16 -39 5 -4 -3 -15 -24 -16 -29 -1 -3 -7 -12
-14 -21 -12 -15 -13 -23 -13 -77 l1 -45 -6 -6 -6 -6 -115 0 c-114 0 -126 0
-126 -3 0 -1 -1 -2 -3 -2 -4 0 -14 -12 -18 -22 -3 -7 -3 -12 -2 -25 2 -25 2
-28 9 -42 11 -23 13 -31 9 -41 -2 -5 -5 -11 -7 -14 -9 -11 -12 -25 -12 -55 0
-23 1 -29 4 -36 6 -13 23 -25 41 -29 4 -1 13 -3 20 -5 8 -2 17 -3 31 -3 27 1
35 6 48 31 11 20 15 24 31 24 16 0 20 -4 31 -24 12 -24 21 -30 44 -30 14 0 15
0 21 -6 l6 -6 -1 -25 c0 -20 1 -29 4 -44 8 -34 6 -40 -15 -54 -34 -22 -49 -22
-69 -2 -11 10 -13 12 -24 16 -10 4 -14 4 -114 3 -106 -1 -108 -1 -108 -3 0 -1
-1 -2 -3 -2 -4 0 -14 -12 -18 -21 -3 -6 -3 -19 -3 -85 0 -82 1 -89 10 -96 6
-5 25 -11 32 -10 9 0 13 -8 10 -16 -1 -4 -4 -8 -5 -9 -2 -2 -2 -3 -1 -3 4 0
-1 -9 -8 -16 -4 -4 -10 -10 -13 -15 -3 -4 -7 -8 -10 -9 -7 -4 -26 -2 -45 4
-22 8 -39 12 -51 12 -12 0 -39 -9 -46 -15 -14 -13 -26 -19 -41 -20 -6 0 -14
-2 -16 -3 -6 -3 -29 -3 -38 0 -11 3 -16 10 -16 23 0 8 1 12 4 16 7 9 26 12 42
6 16 -6 41 1 50 13 9 12 70 136 87 177 4 9 8 19 10 22 1 3 3 8 5 11 1 3 3 8 5
12 2 4 4 15 6 23 5 23 9 33 17 45 7 9 18 35 18 41 0 11 -5 23 -12 31 -13 15
-14 18 -14 30 0 10 1 12 8 22 l8 10 0 16 c-1 9 -2 17 -3 17 -1 1 -8 5 -15 9
-27 18 -46 30 -62 41 -33 21 -36 22 -63 22 -15 0 -24 1 -25 3 0 1 -2 2 -4 2
-1 0 10 7 25 14 41 21 43 23 46 43 1 8 1 12 -2 17 -4 8 -27 46 -37 62 -19 30
-59 91 -61 94 -2 1 -3 3 -3 4 0 1 -1 3 -3 4 -1 2 -6 9 -11 16 -5 7 -9 14 -10
15 -1 1 -7 9 -14 19 -7 9 -12 16 -12 16 -1 -1 -6 -1 -12 -1z m814 -75 c5 -6 5
-12 0 -18 -7 -8 -22 -2 -22 9 0 12 15 18 22 9z m-963 -51 c5 -8 1 -16 -8 -16
-9 0 -13 8 -8 16 2 3 5 5 8 5 3 0 6 -2 8 -5z m95 -38 c3 -3 4 -7 4 -14 0 -13
-6 -19 -19 -19 -13 0 -19 6 -19 19 0 7 1 11 4 14 7 8 23 8 30 0z m833 -6 c12
-12 3 -31 -13 -31 -11 0 -18 7 -18 18 0 11 7 18 18 18 6 0 9 -1 13 -5z m515
-33 c5 -5 5 -15 1 -18 -2 -1 -3 -3 -3 -4 0 -1 -2 -4 -3 -6 -11 -11 -13 -14
-17 -27 -6 -18 -10 -23 -21 -23 -11 0 -17 6 -17 17 0 5 1 10 3 11 2 1 3 4 3 5
0 1 3 5 6 9 3 3 6 7 5 8 -1 1 -1 2 0 2 1 0 5 5 9 11 4 6 9 12 12 13 3 1 6 3 6
4 0 4 13 2 16 -2z m-1282 -44 c5 -6 5 -12 0 -18 -7 -8 -22 -2 -22 9 0 11 15
17 22 9z m618 -19 c1 -1 5 -8 9 -16 5 -10 12 -20 21 -29 15 -16 18 -24 10 -32
-9 -9 -21 -3 -36 18 -3 4 -7 8 -9 9 -13 7 -24 14 -27 17 -5 6 -5 24 0 30 5 7
23 9 32 3z m127 -46 c3 -5 3 -5 0 -10 -2 -3 -5 -5 -7 -5 -2 0 -5 2 -7 5 -3 5
-3 5 0 10 2 3 5 5 7 5 2 0 5 -2 7 -5z m224 -10 c5 -8 1 -16 -8 -16 -9 0 -13 8
-8 16 2 3 5 5 8 5 3 0 6 -2 8 -5z m78 0 c3 -3 3 -3 0 -6 -4 -5 -11 1 -7 6 4 4
4 4 7 0z m-629 -19 c5 -5 5 -11 0 -16 -10 -10 -27 5 -16 16 4 4 12 4 16 0z
m-464 -46 c5 -5 5 -8 1 -14 -4 -6 -13 -5 -17 2 -2 5 -2 6 1 11 5 6 9 6 15 1z
m1152 -24 c6 -6 8 -20 5 -42 -2 -18 -8 -24 -24 -24 -10 0 -12 1 -17 6 -13 13
-3 45 18 59 8 6 13 6 18 1z m-153 -61 c5 -1 17 -11 14 -11 -1 0 -6 -6 -11 -13
-5 -6 -15 -19 -21 -28 -7 -10 -13 -18 -13 -19 0 -1 -1 -1 -3 0 -6 7 -8 14 -9
37 l-1 24 6 6 c6 6 7 6 20 5 8 0 16 -1 18 -1z m-795 -28 l-5 -5 -4 4 -5 5 4 4
5 5 4 -4 5 -5 -4 -4z m-35 -49 c2 -2 3 -6 3 -13 0 -9 0 -11 -7 -17 -11 -9 -23
-14 -26 -11 -7 6 -7 35 -1 42 7 8 23 7 31 -1z m-41 -58 c4 -7 4 -14 1 -14 -1
0 -3 -1 -4 -2 0 -2 -1 -2 -4 0 -2 3 -3 4 -1 8 1 3 2 7 3 9 1 4 2 4 5 -1z m877
-10 c7 -4 9 -6 12 -13 4 -9 3 -13 -7 -30 -2 -4 -3 -11 -3 -26 0 -17 -1 -21 -4
-24 -7 -7 -17 -2 -19 9 0 3 -1 6 -2 8 -1 2 -2 6 -3 9 -1 5 -7 19 -9 21 -9 8
-13 32 -7 42 7 10 25 12 42 4z m-192 -15 c13 -6 15 -25 6 -48 -9 -23 -16 -30
-33 -30 -9 0 -24 7 -24 11 0 1 -2 3 -3 5 -21 24 -27 34 -27 44 0 15 5 19 27
21 28 2 47 1 54 -3z m350 -2 c12 -12 3 -31 -13 -31 -11 0 -18 7 -18 18 0 11 7
18 18 18 6 0 9 -1 13 -5z m-698 -47 c10 -9 3 -26 -10 -26 -8 0 -15 7 -15 15 0
13 16 20 25 11z m-436 -19 c4 -4 5 -7 5 -15 0 -14 -6 -20 -20 -20 -14 0 -20 6
-20 20 0 14 6 20 20 20 8 0 11 -1 15 -5z m989 -58 c8 -9 2 -25 -11 -25 -13 0
-20 16 -10 26 7 9 13 9 21 -1z m217 -12 c3 -5 3 -6 0 -14 -6 -16 -24 -31 -36
-31 -8 0 -15 7 -15 15 0 12 12 24 31 31 13 5 16 5 20 -1z m-133 -27 c5 -6 5
-12 0 -18 -7 -8 -22 -2 -22 9 0 11 15 17 22 9z m-1135 -10 c10 -9 3 -26 -10
-26 -8 0 -15 7 -15 15 0 13 16 20 25 11z m527 -6 c8 -8 3 -18 -8 -18 -11 0
-16 10 -8 18 4 4 12 4 16 0z m348 -18 c9 -9 2 -24 -10 -24 -8 0 -28 -5 -30 -8
-2 -3 -23 -12 -28 -12 -5 0 -12 7 -12 13 0 8 6 12 18 14 12 1 23 6 38 16 9 6
18 7 24 1z m-351 -16 c-1 -12 0 -14 4 -17 7 -5 8 -5 32 -6 18 -1 23 -1 40 4
23 6 26 6 54 -1 13 -3 25 -6 26 -6 9 0 22 -8 26 -16 11 -26 -10 -41 -31 -22
-12 11 -19 14 -30 15 -9 1 -10 1 -52 -27 -43 -28 -53 -35 -84 -54 -20 -12 -25
-17 -34 -37 -11 -24 -12 -24 -38 -21 -26 3 -25 3 -58 -13 -29 -14 -37 -16 -52
-12 -17 4 -26 15 -26 30 0 17 11 25 28 21 10 -3 33 -2 40 1 6 3 68 79 72 88 5
13 0 34 -9 37 -2 1 -3 2 -1 2 1 0 5 2 8 5 5 4 8 5 29 5 12 0 25 1 27 1 3 1 6
1 7 2 2 0 5 2 8 4 4 3 5 5 4 17 0 14 0 14 5 14 5 0 5 0 5 -14z m-618 -57 c12
-8 18 -34 10 -48 -5 -11 -27 -15 -40 -8 -16 8 -16 48 0 56 12 5 22 5 30 0z
m198 -88 c5 -5 6 -6 4 -23 -3 -36 -2 -40 22 -59 13 -10 14 -12 17 -24 6 -26 9
-32 24 -48 l11 -11 0 -15 0 -15 -8 -7 c-9 -8 -17 -9 -28 -4 -7 4 -7 5 -18 33
-6 14 -16 28 -28 36 -2 2 -8 8 -12 13 -4 6 -14 16 -21 23 -11 10 -15 15 -16
21 -2 8 -1 20 2 24 2 3 16 45 16 48 0 12 25 18 35 8z m638 -16 c3 -3 3 -3 0
-6 -4 -5 -11 1 -7 6 4 4 4 4 7 0z m174 -19 c5 -5 6 -7 6 -16 0 -11 -5 -18 -16
-24 -4 -2 -16 -8 -25 -13 -20 -11 -32 -12 -39 -4 -4 3 -5 7 -5 14 0 13 2 15
37 39 20 14 31 15 42 4z m-346 -19 c3 -3 3 -3 0 -6 -4 -5 -11 1 -7 6 4 4 4 4
7 0z m819 -42 c10 -11 3 -32 -11 -33 -13 -1 -55 9 -59 15 -4 4 -4 4 1 9 3 3 7
5 8 6 2 0 13 2 25 5 24 5 30 4 36 -2z m-977 -8 c3 -5 3 -5 0 -10 -2 -3 -5 -5
-7 -5 -2 0 -5 2 -7 5 -3 5 -3 5 0 10 2 3 5 5 7 5 2 0 5 -2 7 -5z m-537 -9 c5
-5 5 -11 0 -16 -10 -10 -27 5 -16 16 4 4 12 4 16 0z m1061 -24 c7 -6 7 -18 1
-23 -3 -2 -11 -6 -19 -8 -8 -2 -21 -6 -29 -10 -23 -11 -36 -8 -36 9 0 10 6 14
23 19 8 2 20 6 28 10 17 8 26 9 32 3z m-1227 -4 c5 -6 5 -12 0 -18 -7 -8 -22
-2 -22 9 0 11 15 17 22 9z m1564 2 c5 0 15 -9 18 -16 4 -8 17 -22 21 -22 3 0
15 -14 15 -17 0 -3 -7 -11 -10 -11 -1 0 -9 3 -17 7 -18 9 -27 12 -37 14 -14 2
-21 10 -21 23 0 15 10 24 24 23 2 0 6 -1 7 -1z m-665 -36 c5 -5 6 -7 6 -16 0
-15 -8 -23 -23 -23 -9 0 -11 1 -16 7 -9 8 -9 23 -1 32 9 9 24 9 34 0z m591
-31 c10 -5 14 -25 8 -39 -2 -5 -6 -8 -18 -13 -15 -8 -29 -17 -27 -18 0 -1 -4
-4 -10 -7 -10 -6 -13 -6 -32 -6 -36 0 -46 -7 -60 -42 -4 -12 -19 -29 -31 -37
-20 -13 -44 -5 -47 15 -1 8 2 23 5 24 3 1 -2 26 -6 31 -8 8 -16 9 -75 9 l-56
-1 -6 6 c-6 6 -6 7 -6 23 0 16 0 17 6 23 l6 6 138 0 138 0 11 6 c5 3 12 8 15
10 15 14 32 18 47 10z m-1423 -4 c5 -4 6 -6 7 -16 0 -12 0 -13 -11 -35 -7 -13
-13 -24 -14 -24 -1 -1 -1 -2 0 -2 1 0 -1 -2 -4 -4 -8 -4 -13 -4 -17 0 -3 3 -4
9 -3 40 l0 36 6 5 c8 7 28 7 36 0z m160 0 c5 -8 1 -16 -8 -16 -9 0 -13 8 -8
16 2 3 5 5 8 5 3 0 6 -2 8 -5z m-76 -2 c3 -5 3 -5 0 -10 -2 -3 -5 -5 -7 -5 -2
0 -5 2 -7 5 -3 5 -3 5 0 10 2 3 5 5 7 5 2 0 5 -2 7 -5z m1556 -15 c4 -4 4 -6
-2 -8 -3 -1 -6 -3 -7 -4 -1 -1 -4 0 -7 2 l-5 4 4 5 c5 5 12 5 17 1z m-741 -34
c1 0 5 -3 8 -6 5 -5 6 -7 6 -18 0 -11 -1 -13 -6 -18 -6 -6 -7 -6 -18 -6 -11 0
-12 0 -18 6 -5 5 -6 7 -6 17 0 14 3 20 12 24 5 2 8 2 22 1z m113 -86 c9 -5 13
-28 7 -40 -6 -10 -29 -15 -40 -7 -3 2 -11 4 -18 4 -20 2 -25 -2 -36 -25 -11
-22 -13 -24 -24 -26 -6 -2 -12 -1 -25 2 -29 8 -40 14 -42 26 -2 10 4 14 24 19
20 4 26 6 37 13 8 5 30 13 33 12 1 0 5 0 8 1 17 4 26 8 35 15 13 10 28 12 41
6z m-697 -12 c1 0 5 -3 8 -6 5 -5 6 -7 6 -18 0 -11 -1 -13 -6 -18 -3 -3 -7 -6
-8 -6 -9 -1 -26 -6 -38 -12 -17 -8 -28 -29 -35 -60 -3 -13 -26 -17 -36 -7 -12
12 -3 90 13 110 6 8 13 10 34 10 10 1 25 3 33 5 8 1 17 3 20 3 3 -1 7 -1 9 -1z
m857 -45 c3 -3 3 -3 0 -6 -4 -5 -11 1 -7 6 4 4 4 4 7 0z m382 -25 c11 -10 3
-28 -11 -28 -9 0 -16 6 -16 16 0 14 17 22 27 12z m-444 -5 c3 -5 3 -5 0 -10
-2 -3 -5 -5 -7 -5 -2 0 -5 2 -7 5 -3 5 -3 5 0 10 2 3 5 5 7 5 2 0 5 -2 7 -5z
m511 -34 l-5 -5 -4 4 -5 5 4 4 5 5 4 -4 5 -5 -4 -4z m-402 -12 c3 -3 4 -7 4
-10 0 -3 0 -7 1 -9 0 -2 2 -7 4 -13 4 -11 6 -13 19 -16 7 -2 12 -2 24 1 l15 4
25 -6 c19 -5 28 -6 40 -6 15 1 15 1 21 -5 l6 -6 0 -26 c0 -14 1 -34 1 -44 1
-26 -2 -30 -22 -32 -21 -2 -24 -3 -37 -16 -9 -9 -13 -15 -15 -22 -3 -10 -2
-36 2 -40 4 -3 2 -23 -2 -30 -5 -8 -11 -10 -23 -8 -20 3 -27 21 -17 44 6 13 6
28 1 48 -12 41 -20 54 -45 68 -10 5 -13 6 -28 6 -17 0 -18 0 -38 -10 -11 -6
-23 -11 -26 -11 -3 0 -15 5 -25 10 -11 6 -22 10 -25 11 -3 0 -8 3 -11 6 -6 6
-6 7 -6 26 0 19 0 20 6 26 l6 6 44 0 c53 0 56 1 64 18 3 6 5 12 5 14 0 1 1 3
2 4 1 0 1 4 0 7 -2 14 19 22 30 11z m-987 -74 c12 -12 3 -31 -13 -31 -11 0
-18 7 -18 18 0 11 7 18 18 18 6 0 9 -1 13 -5z m645 1 c5 -5 5 -15 0 -20 -9 -9
-24 -2 -24 10 0 8 6 14 14 14 3 0 8 -2 10 -4z m708 -35 l-5 -5 -4 4 -5 5 4 4
5 5 4 -4 5 -5 -4 -4z m-567 -57 c2 0 8 -5 15 -11 11 -10 24 -20 34 -25 11 -5
16 -11 18 -19 4 -17 -5 -35 -17 -35 -42 -1 -61 -2 -62 -2 -7 -1 -13 1 -20 7
-4 4 -7 9 -7 10 0 1 -2 5 -5 8 -2 2 -4 5 -4 6 3 2 -22 10 -39 11 -17 1 -19 2
-23 7 -8 8 -7 25 1 33 7 7 20 8 33 3 11 -5 31 -4 42 1 13 6 19 8 26 7 3 -1 7
-1 8 -1z m-811 -78 c7 -5 18 -12 23 -16 13 -8 17 -13 17 -22 0 -16 -15 -20
-33 -10 -6 3 -18 9 -28 13 -18 9 -21 13 -21 26 0 13 6 19 20 19 9 0 11 -1 22
-10z m1012 -81 l-5 -5 -4 4 -5 5 4 4 5 5 4 -4 5 -5 -4 -4z m397 -18 c6 -4 6
-6 6 -20 0 -14 0 -16 -6 -20 -4 -4 -7 -5 -18 -5 -11 0 -14 1 -18 5 -6 4 -6 6
-6 20 0 14 0 16 6 20 4 4 7 5 18 5 11 0 14 -1 18 -5z m-1358 -4 c6 -4 6 -6 6
-20 0 -14 0 -16 -6 -20 -4 -4 -7 -5 -18 -5 -11 0 -14 1 -18 5 -6 4 -6 6 -6 20
0 14 0 16 6 20 4 4 7 5 18 5 11 0 14 -1 18 -5z"/>
<path d="M691 3032 c-11 -3 -16 -7 -18 -16 -2 -15 3 -26 15 -27 2 -1 5 -1 8
-2 15 -2 23 10 21 30 -1 17 -7 20 -26 15z"/>
</g>
</svg>
