<?xml version="1.0" standalone="no"?>
<!DOCTYPE svg PUBLIC "-//W3C//DTD SVG 20010904//EN"
 "http://www.w3.org/TR/2001/REC-SVG-20010904/DTD/svg10.dtd">
<svg version="1.0" xmlns="http://www.w3.org/2000/svg"
 width="1100.000000pt" height="2850.000000pt" viewBox="0 0 1100.000000 2850.000000"
 preserveAspectRatio="xMidYMid meet">
<metadata>
Created by potrace 1.15, written by Peter Selinger 2001-2017
</metadata>
<g transform="translate(0.000000,2850.000000) scale(0.500000,-0.500000)"
fill="#000000" stroke="none">
<path d="M1244 3813 c-15 -10 -29 -40 -34 -73 -1 -8 -3 -16 -5 -18 -8 -11 -10
-17 -10 -39 0 -9 -1 -17 -1 -18 -7 -9 -13 -15 -14 -15 -2 0 -6 -2 -28 -22 -11
-9 -14 -17 -14 -32 0 -9 1 -11 10 -21 12 -12 23 -17 47 -18 18 -1 46 -10 54
-18 6 -6 7 -7 7 -18 0 -22 -8 -27 -42 -26 -25 1 -39 -3 -50 -14 -9 -9 -8 -24
4 -44 6 -11 8 -16 8 -24 0 -11 -4 -22 -11 -24 -8 -4 -25 -21 -27 -28 -1 -3 -3
-15 -4 -26 -3 -28 -8 -34 -28 -34 -22 0 -26 6 -27 40 -1 25 -4 43 -9 43 -1 0
-2 1 -2 3 0 2 -6 10 -13 18 -12 13 -15 33 -6 42 3 3 6 5 8 5 5 0 21 6 28 11
13 9 21 43 15 64 -3 12 -8 15 -23 15 -14 0 -10 3 -45 -36 -33 -37 -86 -88
-124 -119 -10 -9 -20 -17 -21 -18 -4 -3 -9 -7 -22 -17 -7 -5 -13 -10 -15 -12
-2 -2 -11 -8 -21 -15 -18 -13 -19 -14 -19 -31 0 -9 1 -14 6 -21 4 -8 6 -14 7
-26 0 -9 1 -18 2 -20 0 -2 1 -8 2 -12 1 -4 2 -9 2 -11 0 -2 -1 -5 -3 -8 -4 -4
-4 -4 -16 -1 -13 3 -26 9 -32 14 -9 8 -45 17 -41 11 1 -1 2 -1 4 -1 1 1 0 -1
-2 -4 -1 -3 -2 -5 -1 -5 1 0 2 -1 2 -3 0 -2 1 -3 2 -2 1 1 2 1 2 0 -3 -8 17
-39 24 -39 1 0 6 -5 12 -11 10 -11 20 -17 33 -20 7 -2 9 -2 14 -3 12 -1 18
-22 8 -31 -8 -8 -18 -7 -32 4 -19 13 -20 14 -47 17 -16 2 -19 3 -24 13 -2 3
-6 8 -9 12 -6 6 -7 7 -20 7 l-15 1 -1 -6 c-1 -7 -1 -23 0 -28 1 -2 5 -7 9 -10
5 -3 13 -12 18 -19 5 -8 14 -18 19 -23 4 -6 13 -17 20 -25 10 -13 11 -14 29
-20 19 -7 22 -9 26 -20 7 -20 10 -24 18 -25 15 -2 17 -2 33 8 5 3 14 8 19 11
5 2 10 6 12 7 2 2 4 3 5 3 0 0 10 6 21 13 19 12 30 23 30 29 0 2 1 4 1 5 1 0
2 2 2 4 6 25 7 26 34 25 25 -1 33 2 50 19 8 8 11 12 13 20 1 6 3 11 3 12 1 1
1 4 2 8 2 10 7 12 27 13 20 1 27 4 38 14 4 3 13 12 21 19 20 18 95 93 102 102
3 4 11 13 18 19 14 15 63 73 65 78 1 3 12 8 18 8 4 0 8 -3 17 -11 6 -6 12 -11
14 -11 2 0 3 -1 3 -2 0 0 3 -3 6 -5 9 -5 15 -12 25 -30 9 -15 61 -67 113 -115
5 -4 22 -11 33 -13 7 -1 28 -12 35 -18 4 -3 7 -5 8 -5 2 0 11 -15 13 -22 4
-14 13 -30 21 -36 4 -3 8 -6 9 -6 0 0 3 -1 4 -3 2 -1 11 -8 20 -15 9 -7 19
-16 23 -19 3 -3 10 -8 14 -11 4 -3 14 -10 22 -16 8 -6 18 -13 22 -15 3 -2 6
-4 6 -5 0 -1 2 -2 5 -4 3 -1 7 -3 9 -5 2 -2 12 -9 22 -15 17 -11 19 -12 30
-12 14 0 21 3 29 12 3 4 6 8 7 9 3 4 8 20 9 33 2 21 4 24 30 32 12 4 27 20 35
34 11 22 13 25 32 38 33 23 44 40 41 65 -1 14 -11 36 -22 46 -8 8 -8 8 -19 8
-12 -1 -25 -9 -32 -20 -7 -11 -11 -13 -25 -13 -18 0 -23 5 -25 21 0 9 0 14 3
19 2 4 4 12 4 21 1 19 -2 24 -23 37 -33 20 -55 34 -56 36 -5 8 -33 11 -49 6
-11 -4 -24 -3 -31 1 -3 3 -7 10 -11 20 -5 15 -17 35 -23 40 -2 1 -8 9 -14 17
-12 17 -19 24 -46 47 -10 9 -20 17 -21 18 -1 2 -10 6 -19 11 -18 8 -26 15 -31
27 l-3 7 -16 0 c-16 -1 -16 -1 -21 -8 -3 -4 -6 -9 -7 -12 -3 -9 -11 -13 -24
-13 -27 0 -33 17 -20 54 3 10 8 26 11 35 3 9 7 20 10 24 2 4 7 14 10 22 3 8 9
19 12 24 7 9 8 10 6 24 -2 11 -6 14 -20 16 -8 1 -11 0 -14 -3 -4 -4 -11 -20
-11 -25 0 -11 -19 -16 -28 -7 -5 5 -5 16 -1 22 4 5 3 25 -2 35 -5 10 -10 12
-30 8 -5 -1 -16 -14 -21 -26 -8 -16 -13 -19 -28 -19 -16 0 -22 4 -28 21 -2 7
-5 15 -5 17 -1 5 -11 15 -18 18 -7 3 -21 16 -25 23 -8 12 -9 13 -22 13 -9 0
-13 -1 -18 -4z m108 -279 c3 -2 8 -9 11 -15 3 -6 8 -13 12 -16 7 -5 29 -13 36
-13 14 0 21 -26 10 -37 -8 -8 -22 -7 -34 1 -16 11 -19 12 -31 15 -6 2 -15 2
-20 2 -16 -1 -26 6 -30 20 -4 18 4 34 21 42 12 6 19 6 25 1z m218 -78 c7 -7 7
-9 4 -50 -3 -31 -5 -36 -18 -36 -7 0 -16 6 -16 11 0 5 -8 23 -10 22 0 0 -2 0
-3 1 -5 4 -27 5 -32 1 -11 -7 -25 -1 -25 11 0 11 9 16 25 14 6 -1 22 8 31 17
13 13 16 15 28 15 9 0 11 -1 16 -6z m-293 -22 c10 -9 3 -26 -10 -26 -8 0 -15
7 -15 15 0 13 16 20 25 11z m-66 -95 c3 -3 3 -3 0 -6 -4 -5 -11 1 -7 6 4 4 4
4 7 0z m484 -18 c5 -8 1 -16 -8 -16 -9 0 -13 8 -8 16 2 3 5 5 8 5 3 0 6 -2 8
-5z m-693 -2 c2 -3 2 -5 -2 -16 -5 -13 -6 -25 -3 -48 1 -11 -2 -22 -7 -27 -5
-4 -10 -22 -12 -38 -3 -27 -8 -33 -28 -33 -18 0 -25 6 -27 22 -2 20 -6 30 -16
45 -10 16 -11 18 -11 29 0 10 1 12 6 17 3 3 7 6 8 6 2 0 4 1 6 1 2 0 10 1 19
2 19 2 27 5 41 17 7 6 10 10 10 14 0 3 2 6 6 8 6 5 7 5 10 1z m812 -18 c11
-10 10 -50 0 -59 -17 -14 -40 14 -38 46 1 18 25 26 38 13z m-69 -86 c3 -5 3
-5 0 -10 -2 -3 -5 -5 -7 -5 -2 0 -5 2 -7 5 -3 5 -3 5 0 10 2 3 5 5 7 5 2 0 5
-2 7 -5z"/>
<path d="M395 3779 c-5 -2 -13 -17 -13 -25 0 -11 -5 -14 -21 -13 -16 1 -26 -2
-36 -9 -7 -5 -15 -35 -18 -65 0 -1 1 -6 1 -12 1 -6 1 -14 -1 -22 -2 -11 -2
-25 2 -33 1 -4 11 -11 11 -9 0 1 1 1 2 0 0 -2 9 -4 18 -5 24 -3 30 -8 30 -25
0 -15 -7 -24 -27 -34 -11 -5 -15 -13 -15 -29 l0 -12 13 -12 c6 -6 16 -15 21
-19 5 -4 12 -11 16 -15 13 -12 19 -14 45 -14 23 0 24 -1 25 -26 2 -29 5 -35
17 -37 6 -1 12 -3 15 -5 5 -2 6 -2 9 0 1 2 2 4 2 4 -2 2 7 21 11 24 7 6 16 5
40 -3 24 -8 37 -15 43 -21 9 -10 32 -10 41 0 3 3 7 11 9 18 10 35 17 44 45 56
21 9 25 18 21 53 -1 7 -1 15 0 19 3 10 -1 21 -8 27 -4 3 -8 4 -22 4 -22 0 -26
3 -24 17 5 29 0 52 -10 53 -10 1 -22 6 -24 9 -2 1 -3 2 -3 1 0 -4 -10 8 -13
16 -2 4 -4 8 -5 9 -1 1 -1 2 -1 4 0 4 -14 8 -35 10 -22 2 -29 5 -32 14 -18 48
-12 42 -80 91 -25 19 -37 23 -49 16z m13 -86 c7 -4 17 -15 20 -22 1 -3 2 -9 2
-14 0 -32 -48 -22 -55 11 -4 18 2 28 17 28 5 0 12 -1 16 -3z m189 -85 c1 -2 2
-4 3 -4 2 0 2 -5 2 -14 -1 -13 -2 -15 -8 -20 -8 -9 -24 -9 -32 0 -14 13 -6 36
12 39 4 1 8 2 9 3 2 3 13 0 14 -4z"/>
<path d="M1285 3233 c-7 -3 -13 -8 -19 -15 -5 -6 -10 -12 -11 -12 -1 -1 -3 -8
-4 -17 -1 -8 -2 -15 -1 -14 0 0 3 -1 7 -4 4 -3 11 -6 15 -7 20 -6 24 -11 25
-28 0 -19 -9 -29 -28 -29 -12 0 -22 5 -25 12 -4 11 -9 28 -8 28 1 0 -1 2 -3 5
-4 4 -6 4 -17 3 -7 -1 -14 -2 -16 -4 -26 -18 -59 -48 -59 -53 0 0 -1 -2 -2 -4
-1 -1 -2 -11 -3 -21 -1 -20 -3 -28 -12 -37 -8 -10 -15 -20 -19 -27 -6 -13 -17
-21 -29 -21 -8 0 -11 2 -22 19 -14 21 -36 20 -72 -5 -3 -2 -12 -7 -20 -11 -17
-8 -19 -11 -21 -20 -1 -4 -2 -7 -3 -7 -1 0 -2 -1 -1 -2 0 -1 -5 -2 -13 -2 -25
0 -38 -4 -49 -14 -3 -3 -7 -6 -8 -6 -1 0 -1 -1 0 -2 1 -1 1 -2 0 -2 -1 0 -2
-5 -2 -12 0 -7 1 -12 2 -12 1 0 1 -1 0 -2 -1 -2 0 -2 17 -3 15 0 23 -4 26 -14
2 -4 4 -7 5 -7 1 0 1 -1 0 -1 -1 -2 15 -15 17 -15 1 1 4 0 7 -2 3 -1 6 -2 8
-2 1 0 5 -3 8 -6 6 -6 6 -6 4 -38 0 -11 0 -19 2 -23 1 -3 3 -7 3 -8 0 -1 2 -3
3 -4 1 -1 6 -6 10 -12 4 -5 9 -10 9 -11 1 -1 6 -7 11 -14 16 -22 23 -26 41
-25 11 0 23 5 21 9 -1 1 0 2 1 3 1 1 2 7 2 14 0 12 0 13 -8 20 -10 11 -12 16
-13 27 0 19 9 29 28 29 13 0 22 -5 25 -13 10 -27 17 -34 34 -34 12 0 20 4 35
19 7 7 12 25 10 35 -1 4 -14 18 -35 37 -10 9 -13 21 -10 34 3 12 8 15 28 22 9
3 19 7 22 9 12 7 15 24 10 50 -3 18 0 34 8 40 5 3 5 3 11 0 4 -2 9 -6 11 -10
5 -7 17 -16 27 -21 22 -10 23 -31 2 -53 -2 -1 -6 -9 -10 -17 -10 -21 -8 -43 3
-47 18 -6 36 -1 54 16 2 2 8 7 13 11 6 4 11 9 12 10 1 1 9 7 16 14 8 7 20 18
27 25 7 7 21 20 31 29 10 8 20 18 22 22 4 7 7 37 3 44 -1 2 -6 14 -10 27 -14
37 -10 55 14 67 7 4 14 6 15 5 1 0 1 0 0 2 0 1 0 2 1 3 3 2 2 22 -1 28 -1 3
-4 6 -6 6 -4 1 -55 24 -76 33 -44 20 -53 21 -70 13z m-333 -294 c4 -6 4 -7 0
-10 -4 -4 -10 -3 -14 2 -2 2 -2 4 -1 5 1 0 3 3 5 6 3 6 5 5 10 -3z"/>
<path d="M86 3202 c-3 -1 -6 -1 -7 0 0 0 -1 0 -1 -2 0 -1 -1 -2 -3 -2 -4 0
-14 -12 -18 -21 -3 -7 -3 -14 -3 -36 1 -32 4 -39 19 -56 11 -11 13 -16 13 -28
0 -12 -2 -17 -13 -28 -16 -18 -18 -23 -19 -62 0 -27 0 -35 3 -42 4 -9 14 -21
18 -21 2 0 3 -1 3 -2 0 -2 2 -2 69 -3 51 -1 66 0 76 2 13 3 36 4 41 1 2 -1 8
-2 14 -2 9 -1 12 -2 17 -7 l6 -6 0 -155 -1 -156 8 -8 c6 -7 9 -8 19 -9 9 -2
14 -2 17 0 6 3 19 3 26 0 20 -9 20 -45 0 -54 -7 -3 -20 -3 -26 0 -8 4 -28 0
-35 -7 -7 -8 -7 -22 1 -29 6 -6 24 -13 31 -13 3 0 7 -2 9 -4 8 -10 3 -21 -12
-23 -4 0 -13 -3 -19 -6 -14 -7 -19 -16 -20 -40 -4 -71 -26 -135 -67 -196 -7
-11 -14 -21 -15 -23 -1 -2 -3 -3 -3 -4 -1 -1 -2 -3 -3 -6 -1 -3 -7 -10 -13
-16 -12 -11 -12 -12 -12 -21 1 -5 2 -9 2 -9 1 0 2 -1 1 -2 -2 -3 22 0 27 4 16
13 20 14 30 14 24 0 29 -18 13 -51 -13 -28 -10 -41 20 -72 10 -11 21 -23 29
-33 5 -6 11 -13 14 -16 2 -3 6 -9 9 -13 7 -11 12 -13 27 -13 15 0 17 1 29 14
18 19 21 22 27 34 8 15 14 21 28 26 11 5 30 14 32 16 1 1 7 6 15 12 16 13 22
24 28 50 4 16 11 22 24 20 19 -3 42 2 55 12 8 7 103 77 124 92 8 6 16 13 19
15 2 2 16 12 31 23 25 18 39 28 57 43 4 3 8 5 9 5 8 0 10 32 4 46 -7 12 -5 18
7 29 26 23 25 42 -3 69 -20 19 -33 25 -55 23 -20 -2 -25 -1 -36 3 -6 3 -10 6
-10 9 -1 3 -4 7 -8 11 -6 5 -9 5 -21 6 -11 0 -14 -1 -16 -3 -2 -2 -6 -6 -9 -9
-25 -23 -30 -32 -32 -55 -2 -27 -13 -34 -42 -27 -30 7 -36 13 -38 36 -1 12 -1
15 4 22 4 9 14 18 16 17 2 -1 9 7 9 10 0 2 1 5 2 7 3 5 3 608 0 633 -2 13 -2
23 0 35 1 13 1 18 -1 25 -3 10 -14 23 -18 23 -2 0 -3 1 -3 2 0 0 -2 1 -5 2
-13 2 -31 0 -31 -2 0 -1 -2 -2 -4 -3 -5 -1 -11 -7 -12 -11 0 -2 -1 -5 -2 -8
-1 -5 -1 -6 1 -29 2 -17 -2 -23 -16 -23 -10 0 -17 6 -25 22 -11 25 -12 27 -18
36 -4 4 -10 10 -13 12 -4 1 -7 3 -7 4 0 2 -3 2 -44 3 -37 1 -40 1 -60 -4 -11
-3 -26 -6 -32 -6 -6 0 -14 -2 -17 -3 -7 -3 -19 -15 -19 -19 0 -2 -1 -4 -3 -4
-2 -1 -3 -2 -1 -3 1 -1 0 -3 -3 -6 l-4 -4 -5 5 c-3 3 -4 5 -2 5 2 0 2 1 1 2
-1 0 -3 5 -5 9 -3 12 -10 21 -18 25 -6 4 -14 4 -79 4 -40 0 -74 -1 -77 -2z
m320 -113 c8 -7 12 -9 26 -9 12 0 17 2 24 8 2 1 8 2 14 2 11 -1 11 -1 18 -12
11 -16 11 -19 5 -23 -3 -2 -10 -4 -16 -4 -5 0 -12 -1 -15 -3 -2 -1 -5 -2 -6
-1 -1 1 -2 0 -2 0 0 -1 -3 -3 -7 -5 -4 -1 -9 -4 -12 -7 -21 -20 -39 -13 -55
20 -7 14 -7 31 0 37 6 6 18 4 26 -3z m152 -38 c6 -3 12 -16 12 -24 0 -9 -6
-21 -13 -24 -8 -4 -24 -4 -32 0 -6 2 -12 14 -14 23 0 1 -2 4 -4 9 -4 10 -3 14
8 17 17 4 33 4 43 -1z m-247 -35 c10 -4 13 -9 13 -21 0 -12 -4 -18 -19 -33
-15 -15 -21 -18 -28 -18 -11 0 -15 10 -15 42 0 29 3 34 27 34 8 0 16 -1 22 -4z
m-111 -26 c8 -9 3 -20 -10 -23 -4 -2 -16 -6 -26 -10 -23 -8 -27 -9 -32 -3 -8
9 -3 20 11 24 4 1 16 5 26 9 21 8 26 9 31 3z m364 -86 c5 -5 5 -11 0 -16 -10
-10 -27 5 -16 16 4 4 12 4 16 0z m-115 -154 c10 -10 18 -57 10 -64 -2 -1 -3
-3 -3 -4 0 -1 -3 -6 -7 -11 -3 -4 -8 -12 -11 -18 -8 -18 -13 -23 -22 -23 -19
0 -24 17 -10 36 5 7 8 13 8 17 1 14 -1 22 -4 30 -6 12 -5 30 3 36 8 7 28 7 36
1z m98 -31 c4 -3 9 -22 9 -31 0 -3 2 -12 5 -20 7 -20 8 -31 3 -35 -9 -9 -20
-3 -29 16 -4 8 -10 18 -13 22 -12 19 -16 38 -8 47 6 8 26 9 33 1z m-22 -141
c10 -9 4 -24 -10 -26 -7 -1 -15 7 -15 15 0 13 16 20 25 11z m24 -69 c9 -4 13
-10 14 -25 1 -12 1 -13 -4 -18 -4 -4 -6 -4 -18 -3 -19 2 -25 8 -25 23 0 13 3
19 13 23 8 4 12 4 20 0z m-135 -122 c3 -2 7 -5 9 -8 12 -16 31 -31 44 -35 5
-1 17 -2 28 -2 16 0 20 -1 23 -4 8 -8 2 -24 -8 -24 -18 -1 -41 -9 -49 -18 -4
-4 -7 -9 -7 -10 0 -3 -4 -7 -13 -11 -15 -8 -33 -1 -33 13 0 17 -13 42 -27 50
-11 7 -15 28 -8 41 6 12 26 16 41 8z m97 -136 c8 -6 11 -22 7 -37 -3 -9 -7
-14 -21 -21 -5 -3 -14 -9 -19 -13 -20 -17 -29 -20 -36 -12 -6 7 -5 12 4 29 11
22 16 34 17 41 1 8 7 14 17 15 4 1 8 2 9 2 4 2 17 -1 22 -4z m-171 -69 c1 0 5
-3 8 -6 5 -5 6 -7 6 -18 0 -11 -1 -13 -6 -18 -6 -6 -7 -6 -18 -6 -11 0 -12 0
-18 6 -5 5 -6 7 -6 17 0 14 3 20 12 24 5 2 8 2 22 1z"/>
<path d="M1460 3164 c-13 -4 -13 -3 -5 -33 2 -7 2 -15 2 -19 -2 -14 -2 -26 -1
-27 1 -1 2 -2 1 -3 0 -1 3 -1 8 -2 4 0 8 -1 9 -1 0 0 3 1 6 3 2 2 5 4 6 4 4 0
12 7 21 19 9 12 9 12 9 24 -1 9 -2 15 -5 18 -6 8 -20 15 -32 16 -5 1 -10 1
-11 2 0 0 -4 0 -8 -1z"/>
<path d="M1478 2999 c-5 -2 -12 -11 -27 -30 -8 -10 -15 -19 -16 -20 -1 -1 -6
-8 -12 -14 -31 -37 -88 -92 -131 -126 -9 -8 -19 -15 -20 -17 -8 -8 -9 -26 -5
-50 2 -8 -4 -18 -18 -33 -16 -17 -32 -23 -47 -15 -4 2 -11 6 -17 9 -14 7 -29
7 -40 0 -41 -28 -165 -95 -229 -124 -20 -9 -26 -20 -27 -48 0 -12 -2 -20 -4
-23 -7 -12 -8 -32 -3 -42 1 -3 13 -17 27 -33 13 -15 27 -32 30 -36 3 -4 7 -9
9 -11 1 -1 5 -7 9 -14 4 -6 8 -12 10 -13 1 -1 4 -6 6 -10 4 -8 11 -10 27 -8
10 1 15 5 20 17 5 10 10 13 24 15 51 5 63 41 24 72 -9 7 -12 13 -12 26 0 10 1
12 6 17 6 6 7 6 20 6 16 0 24 -10 28 -32 2 -15 10 -31 20 -43 21 -25 44 -32
64 -19 37 22 124 80 130 86 3 2 5 4 6 4 1 0 3 2 6 4 2 1 7 5 11 8 19 13 77 58
97 75 10 8 25 24 29 31 6 10 11 14 27 25 7 5 18 14 24 20 12 13 20 20 23 21 8
3 38 32 67 64 9 10 18 20 19 21 8 8 34 39 48 56 9 11 16 20 17 21 1 1 7 9 14
18 12 15 13 18 14 29 1 10 0 15 -5 20 -1 1 -7 2 -14 1 -10 -1 -14 -2 -23 -9
-13 -8 -18 -9 -30 -2 -7 4 -12 5 -24 5 -16 -1 -14 0 -29 -19 -5 -7 -19 -14
-25 -13 -16 4 -16 45 0 64 5 6 6 8 6 21 0 11 -1 16 -4 19 -3 4 -29 16 -36 16
-1 0 -11 3 -20 7 -17 7 -35 9 -44 6z m46 -197 c1 0 4 -2 7 -5 12 -13 -2 -29
-26 -29 -11 0 -17 6 -17 17 0 13 9 19 27 18 4 0 9 -1 9 -1z m-75 -58 c5 -5 6
-7 6 -16 0 -15 -8 -23 -23 -23 -9 0 -11 1 -16 7 -9 8 -9 23 -1 32 9 9 24 9 34
0z m-106 -78 c4 -6 4 -24 -1 -30 -7 -9 -27 -9 -34 0 -5 6 -5 24 0 30 7 9 27 9
35 0z"/>
<path d="M1653 2719 c-12 -4 -16 -8 -30 -31 -5 -9 -23 -36 -26 -39 -19 -25
-23 -32 -22 -42 0 -3 1 -8 1 -11 0 -3 3 -10 7 -16 25 -35 0 -68 -38 -50 -10 5
-29 7 -37 5 -3 0 -11 -6 -18 -13 -15 -14 -39 -36 -52 -47 -5 -5 -9 -9 -10 -9
-2 -3 -61 -47 -67 -51 -25 -16 -30 -24 -29 -53 0 -19 -1 -21 -5 -25 -6 -7 -17
-7 -28 0 -22 14 -38 16 -50 8 -4 -3 -7 -7 -7 -8 0 -2 -1 -3 -2 -3 -1 0 -2 -1
-1 -2 1 -1 0 -2 -1 -3 -2 -1 -5 -15 -5 -23 0 -8 16 -32 26 -41 10 -7 15 -15
15 -24 0 -10 -7 -17 -17 -17 -11 0 -14 3 -23 19 -15 26 -30 38 -60 48 -16 5
-27 2 -83 -20 -48 -20 -51 -22 -56 -29 -5 -8 -6 -29 -2 -35 5 -8 5 -19 -1 -34
-11 -26 -16 -40 -16 -42 0 -5 -11 -15 -16 -15 -3 0 -9 -2 -13 -4 -4 -2 -10 -5
-13 -5 -7 -2 -13 -7 -17 -15 -3 -7 -12 -13 -19 -13 -3 0 -10 6 -10 9 0 6 8 16
17 22 8 6 10 9 12 15 0 4 2 10 2 13 1 4 0 9 -4 15 -5 11 -14 18 -34 27 -5 3
-11 6 -11 7 -3 3 -21 9 -29 8 -10 -1 -19 -10 -28 -28 -4 -8 -9 -17 -12 -19 -7
-7 -37 -8 -37 -1 0 0 -1 1 -2 0 -1 -1 -4 1 -8 4 -3 3 -6 4 -7 3 -1 0 -1 0 0 1
2 5 -8 13 -18 13 l-9 0 0 -17 c0 -10 1 -19 2 -21 1 -1 6 -3 13 -3 8 -1 11 -2
12 -5 1 -2 2 -4 3 -4 1 0 1 -6 1 -13 0 -20 6 -37 18 -55 5 -8 10 -15 11 -16 3
-2 33 -50 41 -65 4 -8 8 -15 9 -16 1 -1 6 -11 12 -23 19 -38 34 -45 70 -34 30
9 37 13 41 20 4 10 4 29 0 36 -8 15 0 30 15 30 9 0 18 -7 18 -14 0 -2 2 -9 5
-14 10 -20 28 -25 46 -14 12 7 16 13 24 36 l6 19 14 8 c7 4 14 10 17 12 4 4
12 23 13 34 2 12 6 16 21 24 9 4 20 12 27 19 14 14 23 17 37 14 11 -2 16 -7
18 -18 3 -13 0 -24 -10 -33 -9 -8 -9 -8 -10 -22 0 -8 1 -15 2 -17 3 -5 18 -5
29 0 21 10 99 50 107 55 4 3 9 5 10 5 4 0 8 9 9 20 0 6 2 12 4 15 1 2 2 6 1 8
-1 2 -2 3 -2 2 0 -5 -7 -4 -11 1 -3 6 -3 6 0 9 2 3 4 3 6 1 5 -5 43 -1 43 5 0
2 1 3 2 3 1 0 2 1 2 3 0 3 9 13 12 13 6 0 34 13 41 20 12 11 16 13 33 12 20 0
42 6 49 13 1 1 5 4 9 7 7 5 18 14 20 16 1 1 5 4 10 9 6 4 11 8 12 10 2 1 6 5
10 8 21 17 85 79 108 104 30 33 48 55 71 84 8 11 18 23 21 27 7 9 59 86 65 97
4 8 5 9 13 21 4 8 6 24 2 32 -3 8 -12 17 -19 20 -11 3 -30 -2 -40 -11 -12 -12
-26 -14 -43 -8 -11 4 -16 10 -16 20 0 14 -7 33 -14 40 -5 5 -21 12 -56 26 -51
20 -57 21 -71 16z m63 -105 c5 -5 5 -15 0 -20 -9 -9 -24 -2 -24 10 0 8 6 14
14 14 3 0 8 -2 10 -4z m-98 -148 c5 -5 5 -11 0 -16 -10 -10 -27 5 -16 16 4 4
12 4 16 0z m106 -2 c5 -6 5 -12 0 -18 -7 -8 -22 -2 -22 9 0 11 15 17 22 9z
m-178 -28 c3 -3 9 -11 15 -17 5 -6 14 -14 18 -17 12 -8 17 -14 17 -23 0 -18
-18 -23 -34 -10 -13 9 -29 18 -41 22 -16 5 -18 8 -18 26 0 14 0 16 6 20 8 8
29 7 37 -1z m-110 -157 c2 -2 7 -12 8 -18 1 -2 -2 -7 -5 -11 -8 -8 -23 -9 -30
-1 -7 6 -7 21 -1 28 6 6 21 8 28 2z m65 -28 c8 -11 -6 -22 -16 -13 -5 6 -5 8
0 14 5 6 12 5 16 -1z m-436 -194 c12 -12 3 -31 -13 -31 -16 0 -25 19 -13 31 4
4 7 5 13 5 6 0 9 -1 13 -5z"/>
<path d="M767 2581 c-13 -10 -21 -16 -26 -19 -19 -13 -28 -19 -31 -24 -6 -9
-11 -28 -7 -34 1 -1 1 -3 0 -4 -1 -2 6 -4 21 -4 12 0 13 0 18 6 8 11 27 13 46
4 10 -4 13 -4 24 -3 5 1 8 3 10 6 7 13 -2 59 -14 70 -11 11 -29 12 -41 2z"/>
</g>
</svg>
