<?xml version="1.0" standalone="no"?>
<!DOCTYPE svg PUBLIC "-//W3C//DTD SVG 20010904//EN"
 "http://www.w3.org/TR/2001/REC-SVG-20010904/DTD/svg10.dtd">
<svg version="1.0" xmlns="http://www.w3.org/2000/svg"
 width="1000.000000pt" height="2850.000000pt" viewBox="0 0 1000.000000 2850.000000"
 preserveAspectRatio="xMidYMid meet">
<metadata>
Created by potrace 1.15, written by Peter Selinger 2001-2017
</metadata>
<g transform="translate(0.000000,2850.000000) scale(0.500000,-0.500000)"
fill="#000000" stroke="none">
<path d="M343 3821 c-16 -6 -18 -9 -44 -61 -28 -57 -31 -62 -40 -74 -7 -7 -7
-9 -7 -20 0 -6 2 -13 4 -16 3 -4 20 -14 25 -14 2 0 6 -3 9 -6 5 -5 6 -7 6 -18
0 -11 -1 -13 -6 -18 -6 -6 -7 -6 -21 -6 -8 0 -16 4 -19 10 0 1 -2 3 -3 3 -6 2
-33 1 -35 0 -2 -1 -1 -22 2 -26 1 -1 2 -5 3 -9 1 -4 2 -8 3 -8 4 -2 5 -27 1
-33 -8 -12 -25 -13 -42 -2 -11 6 -13 7 -26 7 l-14 0 -23 -23 c-13 -13 -27 -27
-31 -31 -5 -4 -15 -14 -24 -22 l-17 -15 0 -13 c0 -17 3 -21 19 -31 14 -9 30
-14 52 -16 13 -2 20 -7 26 -19 3 -9 20 -27 27 -31 3 -1 7 -5 10 -7 2 -2 6 -4
7 -4 4 0 -4 -12 -9 -15 -16 -9 -24 -25 -24 -44 0 -19 5 -34 17 -46 18 -20 18
-40 0 -60 -8 -8 -12 -15 -15 -28 -4 -15 -1 -27 10 -48 13 -25 13 -31 0 -57
l-11 -20 0 -21 c0 -28 4 -35 29 -50 2 -1 9 -5 15 -8 28 -17 34 -44 8 -42 -30
4 -40 1 -48 -13 -4 -7 -4 -12 -5 -135 -1 -116 -2 -141 -5 -198 -2 -30 -7 -91
-10 -116 -2 -13 -3 -28 -4 -34 -1 -5 -2 -12 -2 -15 -1 -3 -2 -14 -3 -26 -2
-21 -7 -48 -10 -51 -3 -3 3 -23 10 -31 18 -19 42 -11 63 20 19 29 41 30 41 1
0 -21 -6 -37 -20 -51 -6 -7 -15 -18 -19 -25 -13 -23 -31 -26 -55 -11 -11 6
-18 7 -30 4 -10 -3 -16 -11 -24 -32 -7 -18 -8 -30 -3 -41 3 -7 11 -17 14 -17
1 0 3 -3 5 -6 3 -9 0 -12 -13 -12 -26 0 -34 -5 -46 -26 -7 -13 -9 -17 -9 -27
0 -20 5 -26 33 -41 23 -12 65 -37 88 -53 23 -16 29 -17 54 -17 15 0 22 -1 28
-3 11 -5 28 -3 37 3 4 3 9 11 15 23 29 62 38 85 36 96 -1 12 -7 22 -17 30 -12
9 -15 14 -15 25 0 14 8 21 21 23 5 0 11 2 14 3 2 1 4 2 4 1 0 -1 4 1 10 4 12
7 18 16 23 39 0 2 3 13 6 25 4 19 7 36 12 62 1 3 2 14 4 23 8 47 19 140 19
170 1 19 1 20 1 8 l1 -16 5 2 5 2 0 -181 c0 -160 0 -181 3 -188 4 -9 14 -21
18 -21 2 0 3 -1 3 -2 0 -2 11 -3 72 -3 61 0 72 1 72 3 0 1 1 2 3 2 4 0 14 12
18 22 7 16 -2 36 -22 53 -6 5 -11 11 -12 14 -2 7 -12 30 -14 33 -1 1 -4 4 -6
7 -5 5 -11 18 -11 22 0 4 6 10 11 11 4 0 14 -5 24 -14 7 -8 28 -20 35 -21 1 0
8 -6 15 -13 15 -13 30 -20 44 -20 14 0 30 -9 29 -15 0 -3 4 -16 10 -29 11 -29
19 -52 29 -85 6 -20 8 -24 16 -32 8 -8 30 -18 38 -18 8 1 14 3 15 5 1 2 2 2 2
1 0 -1 13 8 17 12 9 10 28 12 36 4 6 -6 7 -22 2 -29 -6 -6 -16 -8 -26 -5 -9 3
-29 3 -32 0 -1 0 -3 -1 -5 -1 -2 0 -7 -3 -11 -6 -8 -7 -8 -7 -8 -20 1 -16 4
-23 13 -25 11 -2 21 -1 42 4 12 3 23 6 25 6 1 0 11 -1 21 -2 16 -3 40 -3 55 0
52 11 63 14 88 26 46 23 85 60 85 81 0 9 -7 23 -15 28 -15 11 -19 23 -10 32 5
5 13 5 21 0 6 -4 16 -16 16 -20 0 -1 2 -4 5 -6 2 -3 6 -8 9 -11 28 -36 40 -48
50 -54 7 -4 11 -12 19 -32 11 -28 32 -62 41 -67 13 -7 27 -7 44 0 24 10 28 12
45 20 10 5 18 8 18 8 2 0 15 6 60 28 42 21 46 24 68 48 11 12 15 14 34 17 14
2 27 7 40 14 11 7 65 43 70 47 1 1 10 8 19 14 9 7 17 13 18 14 1 0 5 4 9 7 4
3 13 11 19 17 6 5 15 13 20 17 16 10 34 27 76 69 l39 39 1 11 c0 14 -1 17 -12
30 -9 10 -14 24 -13 35 1 3 1 7 1 9 1 4 12 1 22 -5 5 -3 10 -7 12 -8 2 -1 3
-3 4 -3 4 -5 24 -8 36 -5 6 1 6 2 6 12 0 14 -2 19 -13 29 -15 15 -24 19 -37
20 -18 0 -21 -2 -22 -15 -1 -6 -3 -12 -5 -15 -2 -2 -3 -4 -2 -4 3 -4 -15 1
-22 5 -14 9 -18 13 -17 24 1 9 11 31 17 39 9 12 25 14 42 4 12 -7 20 -8 54 -6
8 0 13 -1 20 -5 12 -6 30 -7 39 -2 3 1 10 11 17 22 11 17 13 21 13 29 0 20 -8
31 -30 38 -5 2 -12 5 -15 6 -12 5 -29 3 -46 -5 -13 -6 -18 -8 -26 -8 -15 1
-19 4 -28 22 -9 20 -15 28 -26 34 -7 4 -27 12 -34 14 -1 0 -3 1 -4 1 -6 4 -25
9 -33 8 -19 -1 -27 -7 -43 -32 -10 -15 -35 -50 -43 -59 -3 -3 -12 -14 -20 -23
l-14 -17 0 -12 c1 -12 3 -21 6 -21 1 0 2 -2 2 -4 0 -2 1 -5 3 -6 4 -3 4 -13
-1 -18 -4 -4 -5 -4 -16 -3 -7 1 -15 2 -17 2 -14 3 -25 3 -29 1 -5 -3 -5 -5 -4
-21 l0 -17 9 -4 c5 -2 10 -6 12 -9 6 -10 5 -30 -3 -37 -8 -9 -32 -9 -40 -1 -2
2 -5 9 -7 16 -2 7 -5 14 -6 17 -2 2 -3 5 -2 6 1 2 -5 4 -7 3 -1 -1 -2 0 -2 1
0 2 -25 0 -27 -3 -2 -2 -45 -31 -62 -41 -4 -2 -9 -7 -12 -11 -6 -7 -13 -30
-13 -40 0 -8 -7 -15 -16 -15 -3 0 -12 3 -19 6 -22 10 -29 10 -52 -1 -37 -17
-125 -53 -137 -56 -2 0 -6 -2 -8 -3 -2 -1 -4 -2 -5 -2 -2 0 -15 13 -15 15 0 1
-3 5 -6 8 -3 3 -7 10 -9 16 -3 10 -3 11 1 19 4 10 8 16 11 18 0 1 3 6 5 12 4
10 4 17 4 157 0 94 1 149 2 152 2 6 10 16 10 13 0 -1 4 -6 9 -10 12 -11 45
-45 51 -52 2 -3 7 -8 11 -12 4 -4 11 -13 16 -19 6 -7 11 -13 12 -14 1 -1 4 -5
7 -9 8 -10 16 -20 23 -26 3 -3 10 -9 14 -13 10 -9 21 -14 34 -16 10 -1 11 -1
63 25 29 15 57 29 62 32 14 8 54 31 60 34 3 2 6 5 8 5 2 1 9 6 16 10 7 5 22
14 32 21 10 6 20 13 21 13 1 1 11 8 21 15 10 7 23 15 27 19 4 3 12 9 16 12 4
2 10 7 13 10 3 2 8 6 11 8 3 2 6 5 8 6 1 1 4 3 6 5 3 2 9 7 14 11 6 5 17 14
25 21 48 40 116 108 154 154 32 38 32 39 32 50 0 17 -5 24 -21 32 -14 6 -79
32 -98 38 -10 4 -20 8 -23 10 -3 2 -7 4 -8 4 -1 0 -13 5 -26 10 -27 11 -36 12
-47 7 -9 -5 -14 -13 -18 -32 -4 -18 -9 -24 -26 -26 -14 -2 -32 -10 -39 -17 -8
-7 -16 -11 -31 -16 -23 -7 -28 -9 -51 -29 -4 -3 -11 -9 -16 -13 -5 -4 -9 -7
-10 -8 -5 -6 -108 -76 -111 -76 -1 0 -3 -1 -5 -3 -2 -1 -7 -5 -13 -8 -5 -3
-19 -11 -31 -17 -49 -28 -116 -60 -169 -81 -16 -7 -23 -10 -23 -13 0 -2 -1 -2
-1 0 -1 2 -4 6 -6 9 -5 5 -5 6 -5 41 l0 36 -8 21 c-10 27 -10 33 0 60 l8 21
-1 71 c0 48 -1 74 -3 82 -4 20 -16 33 -31 36 -3 1 -6 2 -7 2 -1 1 -7 2 -13 2
-21 2 -26 9 -25 30 2 16 7 21 25 21 7 0 13 -1 14 -1 0 -1 4 -2 7 -2 3 0 7 -1
9 -2 5 -1 14 -12 14 -17 0 -2 0 -6 1 -10 0 -7 1 -8 9 -13 7 -4 21 -18 57 -55
18 -19 48 -53 59 -67 3 -4 7 -9 8 -10 1 -1 6 -7 11 -14 10 -14 15 -18 23 -22
7 -4 26 -6 29 -3 2 1 8 3 13 6 38 15 149 72 191 98 3 2 7 5 11 7 4 3 58 38 69
45 11 8 28 19 32 23 3 2 7 5 10 7 2 2 6 4 7 5 1 1 5 4 9 7 9 6 12 13 12 27 0
9 -2 15 -5 22 -9 18 -6 38 6 44 7 4 26 4 47 1 18 -3 27 -3 41 1 11 3 14 5 33
25 12 12 26 26 31 33 6 6 13 15 16 19 17 19 13 43 -9 54 -4 2 -7 4 -8 4 -1 0
-9 3 -18 7 -5 2 -10 2 -18 1 -12 -2 -16 -4 -24 -13 -3 -4 -7 -7 -8 -7 -1 0 -3
-1 -4 -3 -5 -6 -32 1 -47 12 -5 4 -7 8 -9 15 -1 6 -5 17 -9 25 -8 18 -7 23 9
31 17 9 24 18 24 34 0 8 -2 13 -13 31 -20 36 -21 37 -23 37 -1 0 1 2 4 6 l7 5
107 1 c111 2 112 2 112 4 0 1 1 2 3 2 4 0 14 12 18 21 5 11 5 183 0 194 -4 9
-14 21 -18 21 -2 0 -3 1 -3 2 0 2 -5 2 -25 2 -26 -1 -36 -1 -58 1 -14 0 -23 0
-32 -2 -14 -3 -32 -4 -44 -1 -21 5 -29 4 -41 -4 -5 -3 -20 -30 -18 -31 1 -1
-1 -3 -4 -6 -3 -3 -7 -5 -11 -5 -4 0 -8 2 -11 5 -3 3 -5 5 -4 6 2 1 -13 28
-18 31 -11 8 -16 8 -112 8 -96 0 -99 0 -106 8 -3 2 -2 4 3 16 10 18 9 32 -3
45 -7 7 -14 10 -42 17 -13 3 -27 7 -31 8 -7 2 -58 14 -70 17 -7 2 -60 15 -80
20 -24 6 -35 6 -46 1 -15 -7 -18 -11 -31 -42 -23 -53 -76 -140 -106 -176 -2
-2 -6 -7 -9 -11 -3 -4 -6 -8 -7 -9 -6 -6 -22 -26 -22 -28 0 -2 -1 -2 -1 0 -1
2 -4 4 -6 6 -4 3 -4 6 -5 50 -1 32 -2 49 -4 53 -3 7 -14 19 -17 19 -2 0 -3 1
-3 2 0 1 -1 2 -2 2 -2 0 -80 1 -175 2 -95 1 -172 1 -172 2 -1 0 -3 2 -6 5 -3
2 -4 5 -4 5 5 2 13 26 12 32 -3 19 -8 25 -23 32 -9 4 -13 4 -35 4 -26 -1 -33
1 -44 10 -6 6 -26 12 -43 13 -16 1 -25 4 -39 13 -10 7 -24 13 -48 19 -20 5
-26 6 -38 2z m1300 -219 c10 -9 4 -24 -9 -24 -8 0 -14 6 -14 14 0 12 14 18 23
10z m-308 -29 c4 -4 5 -7 5 -15 0 -14 -6 -20 -20 -20 -14 0 -20 6 -20 20 0 14
6 20 20 20 8 0 11 -1 15 -5z m-438 -24 c4 -4 2 -14 -3 -19 -2 -2 -7 -8 -11
-14 -10 -15 -15 -19 -24 -20 -10 -1 -17 6 -17 16 0 9 6 16 19 23 6 3 11 7 12
8 2 3 14 9 19 9 1 0 4 -1 5 -3z m-508 -5 c7 -3 12 -13 12 -25 0 -19 -9 -28
-28 -28 -19 0 -28 9 -28 28 0 17 6 24 22 28 5 1 14 -1 22 -3z m1093 -4 c6 -6
6 -27 1 -38 -3 -7 -25 18 -25 29 0 7 6 13 14 13 3 0 8 -2 10 -4z m24 -55 c7
-9 7 -15 2 -21 -7 -8 -22 -2 -22 10 -1 8 0 21 1 25 1 3 2 3 7 -1 4 -3 9 -8 12
-13z m-125 -12 c8 -8 7 -22 -2 -34 -17 -22 -17 -33 -2 -57 12 -18 24 -31 36
-37 4 -2 9 -5 11 -6 8 -4 10 -10 11 -33 1 -41 14 -57 49 -59 7 0 13 -2 14 -3
3 -2 -5 -11 -18 -20 -4 -3 -10 -7 -13 -10 -21 -16 -89 -60 -108 -70 -3 -2 -14
-8 -23 -13 -40 -22 -93 -47 -147 -70 -34 -13 -37 -14 -42 -12 -3 2 -5 4 -5 6
0 1 0 50 0 108 l0 107 5 11 c4 9 10 17 24 30 10 10 24 25 32 34 8 9 15 17 17
19 2 2 4 7 5 10 1 4 3 9 4 13 2 3 3 5 2 5 -1 0 6 9 12 14 2 2 7 4 11 5 4 0 8
2 8 3 0 3 11 14 18 17 5 2 27 7 36 8 1 0 2 0 2 1 0 1 3 3 7 5 4 1 9 6 12 10 2
5 8 11 12 16 6 6 8 7 17 7 8 0 11 -1 15 -5z m-332 -8 c3 -5 3 -5 0 -10 -2 -3
-5 -5 -7 -5 -2 0 -5 2 -7 5 -3 5 -3 5 0 10 2 3 5 5 7 5 2 0 5 -2 7 -5z m163
-22 c2 -2 5 -9 7 -15 3 -11 3 -11 -2 -15 -6 -5 -10 -6 -21 -3 -21 6 -18 36 4
36 4 0 9 -1 12 -3z m-344 -13 c6 -3 10 -6 8 -6 -4 0 -1 -16 4 -21 6 -7 33 -19
41 -19 11 0 22 7 29 17 11 19 21 24 30 15 4 -4 6 -17 2 -18 -4 -2 -5 -34 -2
-41 2 -5 4 -5 35 -22 10 -5 21 -11 24 -13 3 -2 8 -4 10 -4 2 0 3 -1 1 -1 -1
-1 -4 -4 -7 -6 l-5 -5 -122 0 c-68 0 -126 -1 -130 -2 -11 -2 -18 -7 -31 -19
-16 -15 -21 -15 -35 0 -6 5 -11 11 -11 13 0 1 1 3 1 5 0 4 14 10 42 19 48 15
52 17 58 31 9 18 3 34 -13 39 -9 3 -27 1 -34 -3 -4 -3 -11 -4 -24 -3 -2 0 -6
3 -9 6 -5 5 -6 7 -6 17 0 8 1 14 3 17 7 9 12 10 73 9 l57 0 11 -5z m-406 0 c4
-3 8 -6 9 -8 2 -6 13 -25 19 -31 8 -8 17 -25 22 -43 6 -18 11 -30 21 -43 18
-24 17 -45 -3 -45 -9 0 -12 3 -25 24 -6 10 -9 13 -18 17 -10 5 -11 5 -71 5
-39 0 -62 1 -64 2 -6 3 -12 10 -10 10 1 0 4 2 7 5 2 3 11 13 19 23 19 21 62
75 62 77 0 3 16 11 21 11 2 0 7 -2 11 -4z m984 -14 c5 -5 5 -15 0 -20 -9 -9
-24 -2 -24 10 0 8 6 14 14 14 3 0 8 -2 10 -4z m-774 -42 c5 -5 5 -11 0 -16
-10 -10 -27 5 -16 16 4 4 12 4 16 0z m960 -122 c5 -6 5 -12 0 -18 -7 -8 -22
-2 -22 9 0 11 15 17 22 9z m-854 -29 c7 -8 -8 -22 -30 -28 -11 -4 -13 -3 -18
2 -11 10 1 22 28 28 11 3 15 2 20 -2z m-324 -5 c5 -6 5 -12 0 -18 -7 -8 -22
-2 -22 9 0 11 15 17 22 9z m483 -18 c4 -6 4 -24 -1 -30 -7 -9 -27 -9 -34 0 -5
6 -5 24 0 30 7 9 27 9 35 0z m-354 -30 c5 -5 6 -7 6 -16 0 -9 -1 -11 -7 -16
-5 -6 -7 -7 -16 -7 -9 0 -11 1 -16 7 -9 8 -9 23 -1 32 9 9 24 9 34 0z m949 -4
c3 -2 6 -7 8 -12 1 -5 5 -14 9 -21 6 -12 8 -14 29 -24 13 -7 16 -12 16 -25 0
-9 -1 -11 -6 -16 -5 -5 -7 -6 -16 -6 -14 0 -19 3 -26 20 -4 7 -8 15 -9 17 -2
1 -3 3 -2 3 4 0 -19 12 -29 15 -5 2 -11 5 -13 7 -8 9 -8 32 1 41 7 7 28 8 38
1z m-1116 -38 c7 -2 20 -14 20 -19 0 -4 12 -18 20 -22 9 -6 10 -6 46 -7 20 -1
39 -2 43 -4 3 -1 5 -1 5 0 0 0 1 -1 2 -2 1 -2 5 -4 8 -4 4 0 4 -1 1 -1 -12 -3
-19 -17 -21 -39 -2 -27 -6 -31 -39 -49 -13 -8 -14 -10 -14 -26 0 -10 1 -16 5
-23 6 -11 10 -32 10 -50 0 -14 -1 -16 -5 -20 -6 -6 -21 -6 -28 0 -5 4 -5 7 -9
32 -1 8 -4 18 -6 22 l-4 9 -11 -1 c-5 0 -11 -1 -11 -3 -1 -1 -2 0 -2 2 0 3 -2
9 -4 14 -4 9 -4 14 -5 58 -1 59 -2 65 -24 89 -9 9 -15 24 -14 31 1 13 18 18
37 13z m360 -24 c20 -21 28 -24 63 -24 l28 1 6 -6 6 -6 -1 -29 c-1 -23 -2 -31
-6 -40 -2 -6 -4 -13 -4 -15 0 -3 0 -3 -2 -1 -3 4 -26 6 -26 3 0 -3 -12 -9 -18
-9 -7 0 -14 4 -23 13 -9 9 -22 16 -33 16 -13 0 -21 8 -21 24 -1 16 -7 28 -22
38 -7 5 -14 11 -16 13 -6 6 -23 6 -35 0 -11 -6 -24 -6 -35 -1 -4 2 -10 4 -13
5 l-5 2 5 0 c3 0 8 2 12 4 4 2 11 3 18 3 7 0 14 -1 18 -3 4 -3 11 -4 20 -4
l14 0 15 15 14 15 14 0 14 0 13 -14z m-495 -3 c3 -5 3 -5 0 -10 -2 -3 -5 -5
-7 -5 -2 0 -5 2 -7 5 -3 5 -3 5 0 10 2 3 5 5 7 5 2 0 5 -2 7 -5z m394 -98 c5
-8 1 -16 -8 -16 -9 0 -13 8 -8 16 2 3 5 5 8 5 3 0 6 -2 8 -5z m754 -26 c10 -9
12 -36 3 -45 -4 -4 -4 -4 -11 -1 -8 4 -13 15 -14 30 -1 9 -1 11 3 15 5 5 14 5
19 1z m-821 -24 c16 -7 20 -37 7 -48 -12 -11 -34 -11 -43 0 -9 10 -9 32 0 42
7 8 24 11 36 6z m-270 -34 c3 -3 4 -7 4 -14 0 -18 -11 -23 -42 -17 -17 3 -23
6 -27 11 -2 4 -2 5 0 9 4 5 9 7 32 13 20 5 27 4 33 -2z m665 -31 c11 -10 3
-28 -11 -28 -9 0 -16 6 -16 16 0 14 17 22 27 12z m768 -4 c10 -9 3 -26 -10
-26 -8 0 -15 7 -15 15 0 13 16 20 25 11z m-691 -45 c3 -3 4 -7 4 -14 0 -13 -6
-19 -19 -19 -13 0 -19 6 -19 19 0 7 1 11 4 14 7 8 23 8 30 0z m-203 -22 c4 -4
10 -9 13 -11 2 -2 6 -4 8 -5 2 0 4 0 4 -1 0 -1 17 -6 22 -6 2 0 6 -2 9 -5 11
-10 4 -35 -9 -35 -6 0 -20 -4 -20 -6 0 -1 -7 5 -15 13 -22 21 -24 21 -84 21
l-48 -1 -6 6 c-8 8 -8 14 0 22 l6 6 44 0 c44 0 55 1 55 3 0 1 2 2 4 3 2 0 5 3
6 5 1 5 1 5 2 1 0 -2 4 -7 9 -10z m-446 3 c2 0 3 -1 3 -2 0 -2 10 -3 53 -3 23
0 43 -1 43 -2 1 0 4 -3 8 -6 4 -3 6 -5 5 -5 -1 0 5 -20 7 -23 4 -5 6 -22 3
-32 -2 -12 -7 -17 -17 -17 -21 -1 -29 2 -34 13 -15 29 -26 38 -49 38 -19 0
-25 -1 -25 -5 0 -2 -1 -1 -3 2 -1 3 -4 8 -6 10 -2 3 -3 7 -3 9 0 6 6 21 8 21
1 0 2 2 2 5 0 3 1 3 1 1 1 -2 3 -4 4 -4z m-162 1 c3 -3 3 -3 0 -6 -3 -3 -3 -3
-6 0 -3 2 -3 3 -1 6 4 4 4 4 7 0z m1504 -22 c5 -8 1 -16 -8 -16 -9 0 -13 8 -8
16 2 3 5 5 8 5 3 0 6 -2 8 -5z m-1071 -31 c5 -6 5 -12 0 -18 -7 -8 -22 -2 -22
9 0 11 15 17 22 9z m91 -38 c5 -5 6 -7 6 -16 0 -9 -1 -11 -7 -16 -5 -6 -7 -7
-16 -7 -9 0 -11 1 -16 7 -9 8 -9 23 -1 32 9 9 24 9 34 0z m718 -5 c11 -6 29
-6 43 0 21 10 34 4 47 -22 12 -23 10 -42 -3 -49 -7 -4 -26 -3 -32 0 -9 6 -31
11 -41 9 -24 -3 -36 0 -43 11 -9 15 -11 20 -12 32 0 11 0 14 3 18 7 8 22 9 38
1z m-1153 1 c5 -6 5 -12 0 -18 -7 -8 -22 -2 -22 9 0 11 15 17 22 9z m242 -21
c13 -5 18 -23 10 -32 -9 -10 -27 -3 -32 11 -6 20 2 29 22 21z m-166 -115 c3 0
6 -1 6 -2 1 0 97 -1 213 0 171 1 212 1 213 4 0 1 3 -1 6 -5 l6 -8 0 -202 c0
-111 -1 -200 -1 -197 -1 5 -1 6 -5 2 -2 -2 -2 -4 -1 -4 1 -1 0 -2 -2 -2 -4 0
-4 1 -3 24 1 25 -3 42 -9 49 -2 1 -3 4 -3 5 0 1 -1 3 -3 4 -1 1 -4 6 -6 11 -3
9 -3 9 1 17 5 11 8 17 11 18 0 1 3 6 5 12 4 10 4 16 4 117 0 93 0 108 -3 114
-4 9 -14 21 -18 21 -2 0 -3 1 -3 2 0 0 -2 1 -5 2 -3 0 -7 1 -8 2 -1 1 -3 1 -4
0 -1 -1 -5 -2 -8 -2 -3 -1 -5 -2 -5 -2 0 -1 -1 -2 -2 -2 -4 0 -15 -10 -19 -18
-11 -22 -19 -28 -34 -29 -15 -1 -25 7 -36 29 -4 8 -15 18 -18 18 -2 0 -3 1 -3
2 0 0 -2 1 -5 2 -3 0 -6 0 -7 1 -1 1 -54 1 -118 1 -64 0 -117 0 -118 -1 -1 -1
-4 -1 -7 -1 -3 -1 -5 -2 -5 -2 0 -1 -1 -2 -2 -2 -4 0 -12 -7 -14 -12 -1 -4 -2
-3 -6 9 -3 10 -3 14 -2 16 1 2 2 3 1 3 -1 0 1 2 3 4 2 3 4 6 4 7 0 1 1 1 3 -1
1 -2 4 -3 7 -4z m929 3 c3 -3 3 -3 0 -6 -3 -3 -3 -3 -6 0 -3 2 -3 3 -1 6 4 4
4 4 7 0z m26 -66 c5 -8 1 -16 -8 -16 -9 0 -13 8 -8 16 2 3 5 5 8 5 3 0 6 -2 8
-5z m-1123 -103 c15 -5 17 -6 21 -13 3 -7 4 -8 1 -13 -2 -3 -5 -5 -8 -5 -3 0
-7 -1 -9 -2 -2 -2 -5 -3 -6 -3 -11 -1 -21 -9 -29 -23 -7 -12 -10 -14 -18 -15
-19 -2 -26 4 -26 21 0 11 1 12 7 18 4 4 9 7 9 7 2 0 5 2 19 14 18 17 24 19 39
14z m258 -8 c6 -3 16 -24 15 -30 -3 -8 -12 -10 -25 -6 -14 5 -18 10 -18 21 0
13 15 22 28 15z m149 -54 c0 -5 -2 -8 -6 -13 -6 -5 -7 -6 -17 -5 -14 0 -30 -5
-43 -16 -13 -10 -22 -14 -32 -13 -16 1 -23 7 -27 21 -1 5 -4 13 -5 17 -2 7 -2
9 0 14 1 4 2 7 2 8 -1 0 5 0 13 0 8 0 20 0 27 1 7 1 26 3 44 4 l32 1 6 -6 c4
-4 6 -8 6 -13z m345 -12 c5 -5 6 -7 6 -17 0 -10 -1 -12 -6 -17 -5 -5 -7 -6
-18 -6 -16 0 -21 4 -22 21 0 12 0 13 6 19 5 5 7 6 17 6 10 0 12 -1 17 -6z
m-219 -37 c3 -5 3 -5 0 -10 -2 -3 -5 -5 -7 -5 -2 0 -5 2 -7 5 -3 5 -3 5 0 10
2 3 5 5 7 5 2 0 5 -2 7 -5z m164 -40 c4 -4 5 -7 5 -15 0 -14 -6 -20 -20 -20
-14 0 -20 6 -20 20 0 14 6 20 20 20 8 0 11 -1 15 -5z m-660 -7 c11 -10 3 -28
-11 -28 -9 0 -16 6 -16 16 0 14 17 22 27 12z m755 -53 c3 -2 7 -8 10 -13 3 -5
8 -12 12 -16 9 -10 12 -17 12 -29 0 -13 -6 -19 -19 -19 -12 0 -14 1 -32 33
-15 27 -16 36 -9 44 6 7 19 7 26 0z m583 -3 c21 -5 31 -11 36 -18 10 -19 -6
-35 -36 -34 -17 0 -21 1 -35 7 -14 7 -19 13 -19 25 0 22 20 29 54 20z m-825
-4 c3 -3 4 -6 4 -15 0 -7 0 -12 2 -13 3 -1 -11 -8 -16 -8 -5 0 -17 7 -15 9 1
0 1 6 1 12 0 13 4 19 14 19 3 0 8 -2 10 -4z m481 -110 c4 -4 11 -18 12 -25 0
-5 -4 -10 -11 -11 -2 -1 -4 -2 -4 -3 -1 -1 -6 -2 -12 -2 -9 0 -11 1 -16 7 -9
8 -9 23 -1 32 8 8 24 9 32 2z m-383 -22 c1 0 5 -3 8 -6 5 -5 6 -7 6 -17 0 -20
-9 -27 -29 -25 -14 2 -18 5 -19 21 -1 15 3 22 12 26 5 2 8 2 22 1z m441 -23
c3 -5 3 -5 0 -10 -5 -6 -8 -6 -14 -1 -6 6 -6 9 0 13 6 4 9 4 14 -2z m70 0 c3
-5 3 -5 0 -10 -2 -3 -5 -5 -7 -5 -2 0 -5 2 -7 5 -3 5 -3 5 0 10 2 3 5 5 7 5 2
0 5 -2 7 -5z"/>
</g>
</svg>
