<?xml version="1.0" standalone="no"?>
<!DOCTYPE svg PUBLIC "-//W3C//DTD SVG 20010904//EN"
 "http://www.w3.org/TR/2001/REC-SVG-20010904/DTD/svg10.dtd">
<svg version="1.0" xmlns="http://www.w3.org/2000/svg"
 width="1000.000000pt" height="2850.000000pt" viewBox="0 0 1000.000000 2850.000000"
 preserveAspectRatio="xMidYMid meet">
<metadata>
Created by potrace 1.15, written by Peter Selinger 2001-2017
</metadata>
<g transform="translate(0.000000,2850.000000) scale(0.500000,-0.500000)"
fill="#000000" stroke="none">
<path d="M420 3810 c-3 -1 -6 -1 -7 0 0 0 -1 0 -1 -2 0 -1 -1 -2 -3 -2 -3 0
-14 -12 -17 -19 -3 -8 -3 -15 3 -37 l5 -20 -6 -25 c-5 -20 -6 -27 -6 -41 1
-17 1 -17 -5 -23 -6 -5 -8 -6 -19 -6 -15 -1 -26 -5 -37 -17 -12 -11 -18 -14
-28 -14 -10 0 -16 3 -28 14 -4 4 -11 10 -16 12 -8 5 -8 5 -84 5 -76 0 -87 0
-87 -3 0 -1 -1 -2 -3 -2 -4 0 -14 -12 -18 -21 -5 -11 -5 -205 0 -216 4 -9 14
-21 18 -21 2 0 3 -1 3 -2 0 -1 1 -1 3 -2 1 0 7 0 12 -1 12 -2 34 0 32 3 -1 1
0 2 1 2 2 1 2 6 2 16 0 14 0 16 3 17 3 0 3 1 -1 1 -13 0 -22 17 -18 34 1 7 8
17 14 22 6 4 11 22 11 39 0 9 2 20 3 23 7 17 43 17 50 1 5 -15 4 -27 -4 -38
-4 -4 -5 -9 -6 -20 -1 -15 1 -22 8 -29 2 -2 7 -8 11 -13 4 -5 10 -12 13 -15 3
-3 8 -9 12 -15 9 -12 16 -18 26 -24 11 -6 70 -7 95 -1 27 6 38 5 45 -2 5 -5 6
-7 6 -15 0 -12 -8 -38 -13 -43 -3 -2 -6 -6 -8 -8 -3 -3 -10 -7 -21 -11 l-18
-6 -13 5 c-21 6 -37 4 -46 -7 -15 -16 -32 -17 -43 -2 -4 6 -13 13 -21 18 -7 3
-11 4 -32 4 -26 0 -35 -1 -35 -3 0 -1 -1 -2 -3 -2 -4 0 -14 -12 -18 -21 -3 -7
-3 -41 -3 -340 1 -379 -1 -338 20 -360 7 -8 14 -17 18 -26 9 -20 14 -24 32
-28 15 -3 30 19 30 43 0 16 9 22 31 21 14 -1 25 -4 29 -10 4 -4 5 -17 2 -17
-1 0 -1 -1 0 -4 1 -2 2 -6 3 -9 3 -19 14 -27 38 -27 17 0 26 3 32 10 6 6 12
27 11 36 -1 14 19 22 30 11 6 -6 5 -15 -3 -34 -11 -27 -11 -34 1 -41 9 -5 27
-8 30 -5 3 3 22 2 29 -2 8 -3 12 -13 12 -25 -1 -24 -14 -31 -46 -24 -16 4 -22
4 -51 3 -18 -1 -95 -2 -170 -2 -75 0 -138 -1 -139 -1 -2 0 -3 -1 -3 -2 0 -1
-1 -2 -3 -2 -4 0 -14 -12 -18 -21 -5 -14 -4 -68 2 -81 8 -15 25 -28 42 -31 22
-4 33 -12 33 -22 0 -10 -11 -18 -33 -22 -31 -6 -54 -37 -44 -61 4 -10 14 -22
18 -22 2 0 3 -1 3 -2 0 -3 14 -3 163 -3 l152 0 6 -6 c6 -6 6 -6 5 -23 0 -20 4
-31 12 -36 7 -3 28 -6 29 -4 1 1 7 2 14 2 11 0 14 -1 18 -5 6 -4 6 -6 6 -20 0
-14 0 -16 -6 -20 -4 -4 -7 -5 -18 -5 -7 0 -13 1 -14 2 -2 3 -26 -2 -31 -7 -6
-6 -5 -20 4 -37 6 -12 7 -13 5 -28 0 -8 -1 -17 -2 -20 -1 -3 -2 -11 -3 -19 -1
-8 -3 -16 -4 -19 -3 -8 3 -30 9 -35 10 -9 15 -9 131 -8 115 0 116 1 116 3 0 1
1 2 3 2 4 0 14 12 18 21 3 7 3 22 3 129 l-1 121 6 6 6 6 68 0 c90 1 118 1 150
0 28 0 37 1 37 3 0 1 1 2 3 2 3 0 16 13 17 17 1 9 4 65 4 100 0 50 -2 54 -26
62 -9 3 -14 4 -18 3 -8 -4 -25 2 -29 10 -6 11 -5 30 1 34 3 2 3 2 0 2 -1 0 -2
1 -1 2 2 3 -3 23 -8 28 -7 8 -14 8 -108 8 l-90 -1 -6 6 c-6 6 -6 7 -5 19 0 14
-3 24 -14 45 -14 26 -10 43 12 43 10 0 11 -1 18 -8 21 -23 24 -26 34 -29 12
-3 61 -4 72 -1 13 3 25 19 29 37 2 10 9 15 18 15 9 0 16 -5 18 -15 2 -10 9
-22 14 -27 3 -3 6 -6 8 -7 4 -4 20 0 27 6 14 13 14 12 14 126 0 115 1 109 -15
134 -12 19 -12 24 0 42 5 8 9 14 9 14 0 0 0 3 1 7 1 5 0 12 -2 21 -5 17 -5 21
2 43 7 24 7 69 1 87 -3 6 -5 11 -6 11 -1 0 -2 1 -2 3 0 2 -11 15 -14 15 0 0
-3 1 -5 1 -9 3 -28 1 -37 -2 -16 -7 -31 -5 -39 5 -5 6 -7 19 -5 29 5 20 25 26
49 14 20 -9 43 -7 49 5 2 3 4 5 4 6 1 1 4 6 6 12 4 10 4 14 4 88 0 66 0 79 -3
85 -4 9 -14 21 -18 21 -2 0 -3 1 -3 2 0 2 -1 2 -29 3 -25 2 -59 -1 -76 -6 -5
-2 -13 -3 -16 -4 -4 -1 -9 -2 -11 -3 -7 -2 -27 -3 -31 0 -12 7 -31 13 -41 13
-7 0 -12 1 -12 1 0 1 -3 3 -7 4 -4 2 -7 4 -7 4 0 1 -3 2 -6 2 -3 0 -6 1 -6 2
0 3 -23 7 -28 6 -6 -3 -20 0 -25 5 -10 8 -11 32 -1 41 5 6 18 9 28 6 32 -8 28
-8 179 -7 79 0 145 1 147 1 1 0 2 1 2 2 0 1 1 2 3 2 7 0 21 23 20 32 -2 11 -6
24 -10 34 -6 16 -6 16 0 24 9 10 11 23 11 84 0 46 -1 57 -3 63 -4 9 -14 21
-18 21 -2 0 -3 1 -3 2 0 3 -13 3 -139 3 l-128 0 -10 -5 c-12 -6 -24 -17 -28
-26 -1 -4 -3 -14 -4 -23 -1 -9 -2 -18 -2 -20 0 -2 -1 -5 -1 -6 0 -2 -1 -3 -2
-3 -2 0 -4 -1 -5 -3 -4 -5 -20 -4 -26 1 -5 5 -5 6 -5 28 1 35 3 41 16 51 27
18 33 27 42 59 6 20 6 23 6 56 0 32 0 35 -5 45 -6 12 -8 13 -24 13 -18 0 -27
-14 -27 -40 0 -25 -10 -26 -15 -2 -5 28 -11 37 -30 46 -10 5 -10 5 -82 5 -40
1 -74 0 -77 -1z m299 -268 c11 -10 3 -28 -11 -28 -10 0 -16 6 -16 17 0 14 17
20 27 11z m52 -51 c3 -3 3 -3 0 -6 -3 -3 -3 -3 -6 0 -3 2 -3 3 -1 6 4 4 4 4 7
0z m166 -13 c11 -9 12 -20 1 -24 -15 -8 -28 -2 -28 12 0 14 16 21 27 12z
m-473 -32 c5 -5 6 -7 6 -17 0 -10 -1 -12 -6 -17 -5 -5 -7 -6 -17 -6 -10 0 -12
1 -17 6 -5 5 -6 7 -6 17 0 10 1 12 6 17 5 5 7 6 17 6 10 0 12 -1 17 -6z m23
-103 c3 -5 3 -5 0 -10 -2 -3 -5 -5 -7 -5 -2 0 -5 2 -7 5 -3 5 -3 5 0 10 2 3 5
5 7 5 2 0 5 -2 7 -5z m8 -160 c3 -2 5 -13 8 -32 6 -34 6 -34 1 -39 -9 -9 -47
-3 -56 9 -6 8 -6 25 0 35 14 22 38 36 47 27z m-76 -134 c0 -17 0 -18 -6 -24
-5 -5 -7 -6 -15 -5 -12 1 -22 -3 -28 -9 -6 -6 -8 -28 -4 -35 8 -12 6 -32 -3
-39 -3 -3 -9 -5 -16 -6 -13 -2 -34 -8 -39 -12 -16 -13 -32 -15 -46 -6 -22 14
-32 27 -32 43 0 21 18 27 42 14 9 -5 12 -6 22 -6 6 0 12 1 14 3 1 1 2 1 2 0 0
-2 12 9 16 16 3 3 5 8 6 12 2 10 1 28 -2 32 -4 5 -3 22 1 28 9 11 34 21 60 23
15 1 16 1 22 -5 6 -6 6 -7 6 -24z m251 24 c7 -6 7 -7 7 -24 0 -17 0 -18 -6
-24 l-7 -7 -6 7 c-7 6 -7 7 -7 24 0 18 2 22 12 31 0 0 4 -3 7 -7z m-93 -82 c7
-4 10 -10 10 -21 0 -19 -9 -26 -34 -24 -2 0 -6 3 -9 6 -5 5 -6 7 -6 17 0 14 3
20 12 24 7 3 21 2 27 -2z m244 -6 c7 -7 7 -17 0 -29 -8 -13 -11 -33 -9 -43 6
-20 0 -31 -17 -31 -20 0 -26 17 -13 37 7 11 12 33 10 41 -5 18 1 30 16 30 6 0
9 -1 13 -5z m-164 -11 c10 -9 3 -26 -10 -26 -8 0 -15 7 -15 15 0 13 16 20 25
11z m-90 -102 c7 -6 7 -19 1 -25 -6 -7 -19 -7 -25 -1 -7 6 -7 19 -1 25 6 7 19
7 25 1z m-236 -19 c5 -8 1 -16 -8 -16 -9 0 -13 8 -8 16 2 3 5 5 8 5 3 0 6 -2
8 -5z m-109 -4 c3 -3 4 -7 4 -14 0 -13 -6 -19 -19 -19 -13 0 -19 6 -19 19 0 7
1 11 4 14 7 8 23 8 30 0z m209 -33 c7 -7 6 -16 -3 -37 -5 -11 -8 -20 -7 -21 0
0 -2 -3 -6 -5 -4 -3 -7 -6 -7 -7 0 0 -6 -1 -12 -1 -12 0 -14 1 -19 6 -6 6 -6
7 -6 25 0 11 1 19 1 20 1 1 4 5 7 9 3 4 5 7 5 6 0 0 6 1 14 4 17 6 27 6 33 1z
m239 -15 c6 -6 7 -8 7 -17 0 -6 1 -13 1 -16 6 -23 7 -32 3 -37 -3 -5 -4 -5
-10 -4 -14 2 -17 10 -19 43 l-1 25 6 6 c3 4 6 7 6 7 0 0 4 -3 7 -7z m-150 -39
c5 -5 5 -11 0 -16 -10 -10 -27 5 -16 16 4 4 12 4 16 0z m-234 -8 c1 0 5 -3 8
-6 5 -5 6 -7 6 -18 0 -11 -1 -13 -6 -18 -6 -6 -7 -6 -18 -6 -11 0 -12 0 -18 6
-5 5 -6 7 -6 17 0 14 3 20 12 24 5 2 8 2 22 1z m574 -70 c8 -8 2 -20 -10 -19
-4 1 -7 2 -8 3 0 1 -2 2 -3 2 -3 0 -4 1 -2 8 1 2 3 4 4 4 2 0 4 1 4 3 2 3 11
3 15 -1z m-641 -8 c5 -5 6 -7 6 -16 0 -9 -1 -11 -7 -16 -5 -6 -7 -7 -16 -7 -9
0 -11 1 -16 7 -9 8 -9 23 -1 32 9 9 24 9 34 0z m327 -10 c7 -8 10 -37 6 -52
-3 -11 -10 -16 -23 -16 -13 0 -20 5 -23 16 -4 15 -1 44 6 52 6 8 28 8 34 0z
m260 -11 c0 0 -2 -2 -5 -4 -5 -3 -5 -3 -8 0 -5 5 0 9 7 7 4 -2 6 -3 6 -3z
m-505 -265 c8 -3 26 -19 32 -28 8 -14 1 -30 -13 -30 -11 0 -16 4 -24 17 -4 5
-7 10 -8 11 -1 1 -8 20 -8 24 0 3 6 9 10 9 2 1 7 -1 11 -3z m392 -10 c5 -5 6
-7 6 -16 0 -9 -1 -11 -7 -16 -5 -6 -7 -7 -16 -7 -9 0 -11 1 -16 7 -9 8 -9 23
-1 32 9 9 24 9 34 0z m-96 -2 c7 -3 12 -13 12 -25 0 -19 -9 -28 -28 -28 -19 0
-28 9 -28 28 0 17 6 24 22 28 5 1 14 -1 22 -3z m216 -53 c5 -8 1 -16 -8 -16
-9 0 -13 8 -8 16 2 3 5 5 8 5 3 0 6 -2 8 -5z m-538 -29 c4 -6 4 -24 -1 -30 -7
-9 -27 -9 -34 0 -5 6 -5 24 0 30 7 9 27 9 35 0z m574 -59 c3 -3 3 -3 0 -6 -3
-3 -3 -3 -6 0 -3 2 -3 3 -1 6 4 4 4 4 7 0z m-298 -76 c4 -4 5 -7 5 -15 0 -14
-6 -20 -20 -20 -14 0 -20 6 -20 20 0 14 6 20 20 20 8 0 11 -1 15 -5z m-16
-129 c4 -4 5 -7 5 -13 0 -15 -15 -25 -41 -28 -10 -1 -11 -1 -15 3 -10 12 1 29
24 38 12 5 22 5 27 0z"/>
<path d="M1391 3770 c-9 -3 -18 -7 -21 -8 -5 -2 -26 -3 -29 0 -3 2 -26 -3 -32
-7 -2 -2 -5 -8 -7 -12 -2 -6 -2 -85 -2 -320 l1 -312 6 -10 6 -10 13 -1 c12 -1
14 -1 20 4 4 3 10 7 14 9 7 3 8 3 11 -2 4 -4 4 -4 1 -13 -3 -4 -6 -9 -9 -10
-3 -2 -5 -4 -6 -6 -1 -3 -3 -7 -8 -14 -3 -4 -18 -18 -20 -18 -4 0 -18 -12 -23
-20 l-5 -9 -1 -150 c0 -105 1 -153 2 -159 3 -13 14 -27 27 -34 10 -5 11 -7 10
-11 -3 -9 -9 -18 -20 -30 -19 -20 -18 -15 -18 -104 l0 -78 8 -19 c9 -23 9 -30
0 -54 -7 -18 -8 -21 -8 -40 0 -21 0 -21 -6 -27 -5 -5 -8 -6 -14 -6 -6 0 -9 1
-14 6 l-6 6 1 135 0 134 -5 11 c-5 10 -6 11 -20 18 -8 4 -17 7 -20 7 -2 0 -7
2 -10 5 -6 4 -6 6 -6 20 0 14 0 16 6 20 3 3 8 5 10 5 3 0 12 3 20 7 14 7 15 8
20 18 l5 11 0 80 c0 74 0 82 -4 89 -2 4 -5 9 -7 11 -6 5 -21 10 -33 11 -21 2
-29 9 -29 28 0 19 8 26 29 28 12 1 27 6 33 11 2 2 5 7 7 11 4 7 4 14 4 80 l0
71 -5 11 c-5 10 -13 18 -26 26 -15 9 -17 20 -8 49 2 5 3 11 4 12 1 6 7 16 9
15 1 -1 2 0 3 1 1 2 -8 5 -12 4 -2 0 -3 2 -3 4 0 4 -1 5 -1 1 -2 -7 -7 -17 -9
-17 -9 5 -12 8 -18 15 -4 5 -7 10 -7 11 0 2 -1 6 -2 10 0 4 0 6 2 5 1 -1 1 0
0 2 0 2 0 3 1 2 1 -1 2 0 2 1 0 1 1 2 2 2 0 -1 4 0 8 1 6 1 8 3 13 12 3 6 7
11 9 11 3 0 3 0 0 2 -2 1 -2 2 -2 2 1 0 0 5 -1 10 -1 6 -2 10 -1 10 3 0 -12
12 -17 14 -15 5 -32 -1 -37 -12 -4 -10 -3 -26 2 -35 3 -4 5 -8 6 -9 2 -2 2
-12 0 -11 -1 1 -2 0 -3 -1 -1 -1 -2 -2 -3 -1 -1 1 -2 0 -2 -1 0 -4 -20 0 -25
4 -3 4 -7 14 -10 29 -3 15 -10 24 -24 31 l-14 7 -35 0 c-36 0 -46 -1 -46 -3 0
-1 -1 -2 -3 -2 -4 0 -14 -12 -18 -21 -5 -12 -4 -111 1 -123 5 -12 12 -20 23
-27 11 -7 15 -14 15 -26 0 -12 -4 -19 -15 -26 -28 -18 -34 -46 -20 -90 4 -12
8 -25 8 -29 0 -4 -4 -18 -8 -31 l-8 -23 4 -14 c2 -8 5 -14 8 -17 6 -5 23 -10
37 -10 11 0 16 -5 21 -21 2 -6 4 -10 5 -10 1 0 2 -1 2 -2 0 -2 2 -5 9 -13 8
-8 11 -14 11 -24 0 -13 -6 -19 -20 -19 -15 0 -19 5 -21 23 -1 15 -7 30 -12 32
-2 0 -9 1 -16 1 l-12 0 -5 -8 c-10 -18 -10 -13 -10 -246 0 -217 0 -220 4 -229
2 -6 8 -13 12 -17 17 -17 16 -27 -1 -45 -4 -4 -10 -12 -12 -17 -3 -9 -3 -11 0
-20 2 -5 8 -17 13 -25 14 -21 14 -29 2 -47 -18 -26 -18 -26 -18 -103 0 -58 0
-70 3 -76 4 -9 14 -21 18 -21 2 0 3 -1 3 -2 0 -1 1 -2 3 -2 1 0 113 -1 248 -1
225 -1 248 -1 269 2 22 3 25 3 46 0 12 -2 24 -3 27 -3 5 1 7 -1 12 -5 l6 -6 0
-28 c0 -36 3 -48 17 -61 16 -16 15 -16 133 -15 105 1 107 1 107 3 0 1 1 2 3 2
4 0 14 12 18 21 2 6 3 15 3 42 0 33 0 36 -5 46 -3 6 -9 13 -14 18 -21 17 -21
18 -21 30 0 12 0 13 21 30 5 5 11 12 14 18 l5 11 0 92 c0 89 0 93 -4 101 -7
15 -18 19 -52 21 -1 0 -5 3 -8 6 -5 5 -6 7 -6 18 0 11 1 13 6 18 3 3 7 6 8 6
34 2 45 6 52 21 4 8 4 9 4 468 0 416 0 461 -3 468 -4 9 -14 21 -18 21 -2 0 -3
1 -3 2 0 2 -1 2 -45 3 l-40 1 -21 -7 c-26 -9 -32 -9 -58 0 -20 7 -22 7 -43 6
-26 -1 -27 -1 -27 -3 0 -1 -1 -2 -3 -2 -4 0 -14 -12 -18 -21 -3 -7 -3 -27 -3
-187 0 -171 0 -180 4 -188 5 -13 16 -23 27 -27 3 -1 8 -4 11 -7 5 -5 6 -7 6
-16 0 -12 -6 -19 -20 -25 -11 -4 -19 -14 -22 -27 -2 -9 -2 -11 1 -14 6 -6 30
-9 35 -5 2 3 6 4 18 3 16 0 24 -19 15 -37 -5 -11 -7 -27 -6 -45 1 -15 1 -17
-3 -21 -6 -7 -20 -7 -25 -1 -2 3 -3 4 -3 3 0 -1 -4 -2 -10 -2 -5 0 -10 0 -10
-1 0 -1 -1 -1 -2 -1 -5 1 -11 -6 -14 -14 -2 -6 -2 -63 -2 -207 l1 -199 -6 -6
c-5 -5 -8 -6 -16 -6 -8 0 -11 1 -16 6 l-6 6 0 112 c0 171 0 171 -13 184 -5 4
-9 7 -11 7 -2 0 -6 3 -10 7 -9 10 -9 16 1 26 6 6 8 10 9 18 2 14 0 23 -7 25
-3 1 -6 3 -6 4 0 1 -1 1 -3 1 -2 -1 -4 1 -6 4 -3 5 -3 6 -1 11 2 3 4 5 6 5 5
0 27 9 31 13 2 2 5 6 7 10 4 7 4 13 4 90 l0 82 -5 11 c-5 11 -10 15 -29 29
-12 10 -15 20 -11 39 3 13 3 30 0 54 -2 9 2 13 18 22 13 7 22 17 25 27 3 10 3
85 0 94 -5 14 -23 25 -43 27 -16 2 -22 10 -22 27 0 18 6 25 22 27 21 2 38 13
43 27 3 9 3 106 0 116 -1 4 -6 14 -11 24 -10 21 -10 27 0 48 5 10 10 20 11 24
1 5 2 43 2 121 0 100 0 115 -3 122 -4 9 -14 21 -18 21 -2 0 -3 1 -3 2 0 2 -2
2 -77 3 l-72 1 -16 -6z m63 -316 c22 -8 21 -34 -1 -34 -10 0 -29 -5 -29 -8 0
-1 -2 -1 -4 -1 -2 0 -4 0 -4 -1 0 0 0 -2 0 -2 0 -1 -1 -3 -1 -3 0 -1 -1 -4 -3
-6 -2 -5 -2 -10 3 -22 11 -31 11 -34 11 -45 -2 -15 -7 -20 -25 -20 -11 0 -14
1 -18 5 l-6 5 -1 39 0 40 12 13 c6 6 12 12 14 12 1 0 3 5 5 10 5 16 9 20 26
20 8 0 17 -1 21 -2z m-385 -174 c11 -10 3 -28 -11 -28 -9 0 -16 6 -16 16 0 14
17 22 27 12z m402 -130 c5 -5 6 -7 6 -16 0 -9 -1 -11 -7 -16 -5 -6 -7 -7 -16
-7 -9 0 -11 1 -16 7 -9 8 -9 23 -1 32 9 9 24 9 34 0z m-306 -49 c4 -4 5 -7 5
-13 0 -11 -7 -18 -18 -18 -11 0 -18 7 -18 18 0 11 7 18 18 18 6 0 9 -1 13 -5z
m652 -15 c10 -9 3 -26 -10 -26 -8 0 -15 7 -15 15 0 13 16 20 25 11z m-378 -33
c7 -4 10 -11 10 -23 0 -19 -8 -27 -27 -27 -12 0 -19 3 -23 10 -5 7 -5 26 0 33
7 11 29 14 40 7z m286 -42 c3 -1 8 -4 10 -6 3 -5 3 -6 0 -12 -3 -7 -11 -11
-29 -17 -24 -9 -38 -3 -38 15 0 18 7 23 34 22 10 0 20 -1 23 -2z m-255 -143
c5 -5 5 -15 0 -20 -9 -9 -24 -2 -24 10 0 8 6 14 14 14 3 0 8 -2 10 -4z m-86
-180 c12 -12 -5 -24 -21 -17 -7 3 -7 3 -3 9 2 3 5 7 7 7 1 1 3 2 3 3 0 3 11 1
14 -2z m351 -100 c4 -6 4 -24 -1 -30 -7 -9 -27 -9 -34 0 -5 6 -5 24 0 30 7 9
27 9 35 0z m-559 -94 c4 -4 5 -11 2 -19 -3 -8 -8 -26 -11 -42 -3 -15 -6 -19
-15 -19 -12 0 -17 11 -12 23 3 8 8 26 11 42 2 9 4 15 6 16 5 4 14 4 19 -1z
m506 -20 c-5 -4 -5 -4 -10 1 l-4 4 4 4 5 5 5 -5 5 -5 -5 -4z m86 9 c7 -4 11
-9 14 -19 2 -8 2 -11 -2 -22 -2 -6 -6 -15 -9 -19 -3 -4 -5 -8 -5 -9 0 -3 -12
-20 -17 -23 -4 -3 -12 -4 -24 -3 -2 0 -6 3 -9 6 -7 7 -8 16 -3 36 2 7 3 16 4
20 1 8 6 18 9 18 1 0 2 2 3 5 3 10 25 15 39 10z m42 -221 c10 -5 32 -39 36
-52 2 -9 0 -22 -6 -29 -8 -10 -24 -11 -43 -2 -13 5 -16 6 -37 6 -28 0 -32 2
-32 16 0 7 1 9 8 15 19 19 28 28 34 37 3 5 9 10 12 12 8 3 21 2 28 -3z m-245
-8 c11 -10 3 -28 -11 -28 -9 0 -16 6 -16 16 0 14 17 22 27 12z m-42 -111 c12
-7 14 -33 3 -43 -8 -9 -31 -9 -44 0 -5 3 -6 5 -5 12 1 14 5 25 9 29 7 7 27 8
37 2z m-135 -7 c5 -1 13 -7 21 -16 13 -12 28 -24 32 -24 4 0 11 -10 11 -16 0
-28 -15 -36 -47 -25 -22 7 -35 11 -38 11 -10 0 -16 30 -11 54 2 10 5 12 13 16
8 2 10 2 19 0z"/>
<path d="M1660 2795 c0 -6 0 -6 -12 -6 -6 0 -11 1 -11 2 2 2 -6 -2 -8 -5 -3
-4 -2 -21 1 -20 1 0 2 -1 2 -2 0 -1 1 -2 2 -2 0 0 7 0 13 0 12 0 13 0 14 -5 0
-4 1 5 1 19 0 13 0 24 -1 24 -1 0 -1 -2 -1 -5z"/>
</g>
</svg>
