<?xml version="1.0" standalone="no"?>
<!DOCTYPE svg PUBLIC "-//W3C//DTD SVG 20010904//EN"
 "http://www.w3.org/TR/2001/REC-SVG-20010904/DTD/svg10.dtd">
<svg version="1.0" xmlns="http://www.w3.org/2000/svg"
 width="1000.000000pt" height="2850.000000pt" viewBox="0 0 1000.000000 2850.000000"
 preserveAspectRatio="xMidYMid meet">
<metadata>
Created by potrace 1.15, written by Peter Selinger 2001-2017
</metadata>
<g transform="translate(0.000000,2850.000000) scale(0.500000,-0.500000)"
fill="#000000" stroke="none">
<path d="M538 3812 c-3 -1 -6 -1 -7 0 0 0 -1 0 -1 -2 0 -1 -1 -2 -3 -2 -4 0
-14 -12 -18 -21 -3 -7 -3 -14 -3 -35 l1 -27 -6 -6 -6 -6 -200 0 c-110 0 -202
0 -205 -1 -4 0 -6 -2 -6 -2 0 -1 -1 -2 -3 -2 -4 0 -14 -12 -18 -21 -5 -11 -5
-185 0 -196 4 -9 14 -21 18 -21 2 0 3 -1 3 -2 0 -2 2 -2 28 -3 l24 -1 7 7 c7
6 7 7 7 19 0 7 1 12 3 13 1 0 1 1 -1 1 -13 0 -11 39 2 43 1 1 5 2 7 3 5 3 22
0 28 -5 5 -4 7 -10 10 -25 1 -3 1 -7 2 -9 1 -3 0 -5 -2 -6 -2 -2 -2 -3 1 -7 4
-4 6 -5 23 -6 19 -1 31 -6 40 -14 2 -2 8 -6 13 -9 9 -4 9 -4 114 -4 97 0 105
0 109 -3 2 -2 6 -5 9 -6 3 -2 6 -4 6 -5 0 -6 10 -11 21 -12 6 0 11 1 11 1 0 1
2 2 4 3 2 1 4 2 3 3 -1 1 0 2 2 3 2 0 6 6 9 12 8 14 12 17 25 17 13 0 19 -6
19 -20 0 -12 -5 -18 -19 -24 -5 -2 -13 -8 -18 -13 -8 -8 -10 -11 -10 -17 0
-10 3 -16 8 -18 2 -1 3 -2 1 -2 -2 0 -7 -2 -12 -4 -5 -3 -14 -5 -20 -6 -20 -3
-29 -10 -48 -36 -24 -36 -32 -46 -35 -47 -11 -3 -16 -3 -23 -1 -11 2 -16 7
-18 18 -2 8 0 24 4 26 3 1 -2 26 -6 31 -9 9 -14 10 -37 4 -25 -6 -26 -6 -50 0
-19 5 -21 5 -68 5 -54 -1 -55 -1 -72 -17 -2 -2 -7 -6 -11 -8 -8 -4 -8 -4 -16
0 -4 2 -8 5 -9 7 -1 3 -4 3 -16 2 -26 -2 -25 2 -25 -104 0 -74 0 -87 3 -93 4
-9 14 -21 18 -21 2 0 3 -1 3 -2 0 -1 1 -2 3 -2 1 0 78 -1 170 -2 170 -1 181
-2 181 -8 0 -1 2 -2 5 -2 2 0 3 -1 2 -2 -2 0 -3 -6 -3 -13 -1 -11 0 -12 5 -15
3 -2 13 -6 23 -9 10 -4 17 -7 19 -10 6 -8 2 -31 -7 -38 -2 -2 -25 -10 -33 -12
-8 -1 -17 -8 -21 -14 -4 -7 -5 -8 -9 -28 -3 -14 -6 -19 -14 -19 -7 0 -13 7
-13 16 0 11 -5 30 -9 34 -4 4 -13 10 -19 12 -2 0 -18 1 -37 1 -27 1 -35 1 -44
-2 -13 -5 -28 -12 -31 -16 -4 -4 -15 -9 -23 -9 -7 -1 -13 3 -24 13 -11 10 -27
16 -39 14 -5 -1 -10 -1 -11 -2 -2 0 -3 0 -3 -1 0 -1 -1 -2 -3 -2 -1 0 -5 -3
-9 -7 -12 -12 -10 -24 6 -54 5 -9 6 -26 2 -34 -2 -3 -6 -11 -9 -17 -9 -17 -11
-25 -11 -52 0 -36 5 -46 26 -49 10 -2 12 -2 12 -6 0 -4 -2 -4 -12 -6 -12 -2
-18 -6 -22 -16 -4 -7 -4 -14 -4 -87 l0 -80 8 -23 c4 -13 7 -26 7 -28 0 -2 -4
-14 -8 -27 l-7 -23 1 -213 c0 -170 1 -216 3 -229 2 -13 2 -18 0 -33 -5 -31 -5
-41 0 -51 5 -11 12 -16 25 -17 10 -1 11 -1 18 6 7 7 17 28 20 39 3 9 15 17 28
16 14 -1 23 -6 26 -17 3 -9 12 -26 14 -26 1 0 1 -1 0 -1 -2 -3 5 -9 10 -9 3 0
5 -1 6 -2 1 -1 6 -3 12 -5 13 -4 17 -9 17 -22 0 -11 -3 -17 -8 -17 -2 0 -2 -1
0 -1 1 -1 2 -6 2 -13 0 -15 1 -17 10 -22 7 -4 11 -4 49 -3 45 1 47 1 47 3 0 1
1 2 3 2 4 0 14 12 18 21 3 6 3 21 3 116 0 108 -1 123 -7 133 -1 1 -3 8 -4 14
-3 10 -3 14 0 24 1 6 3 13 4 14 7 12 10 90 4 118 -4 17 -4 33 0 50 7 32 -1 56
-24 67 -7 4 -17 13 -17 16 0 2 -1 3 -2 3 -5 2 -4 10 2 17 3 4 6 7 6 8 0 10 32
25 34 17 1 -3 25 -5 30 -2 2 1 7 7 11 13 10 15 13 18 25 18 9 0 11 -1 16 -7 9
-8 9 -23 1 -32 -6 -7 -28 -12 -32 -7 -4 5 -13 0 -13 -7 0 -7 10 -33 14 -36 3
-2 21 -17 35 -29 14 -12 15 -13 25 -13 13 0 18 2 28 12 4 4 10 9 13 9 10 3 20
-12 22 -32 2 -12 -3 -22 -12 -27 -3 -2 -8 -6 -11 -10 -11 -14 -12 -20 -12 -71
0 -60 2 -64 29 -72 6 -2 12 -3 14 -3 15 2 23 -5 23 -21 0 -16 -8 -23 -23 -21
-4 0 -26 -6 -30 -9 -11 -7 -16 -30 -11 -47 2 -7 13 -19 17 -19 1 0 3 -1 5 -1
8 -4 12 -4 20 -5 12 -2 15 -3 22 -15 8 -12 22 -25 34 -31 11 -6 15 -13 17 -26
1 -11 8 -27 15 -33 8 -9 19 -10 74 -9 52 1 54 1 54 3 0 1 1 2 3 2 4 0 15 13
18 22 4 12 1 25 -7 28 -3 1 -4 2 -2 2 1 0 4 2 6 4 2 2 6 4 9 5 3 0 107 1 230
2 123 0 226 1 228 1 1 0 3 1 3 2 0 1 1 2 2 2 2 0 4 1 6 3 6 5 11 5 17 0 3 -3
5 -4 5 -3 0 2 5 -7 5 -10 0 -2 1 -6 2 -10 0 -4 1 -9 2 -10 1 -1 2 -4 2 -5 0
-2 3 -13 6 -23 3 -10 8 -32 11 -47 7 -33 8 -36 15 -45 12 -14 17 -15 63 -15
49 0 87 4 101 9 11 4 15 8 35 29 5 5 10 9 13 9 2 0 5 1 7 1 2 0 8 -1 13 -3 6
-2 12 -3 14 -3 2 0 8 1 12 2 9 1 21 12 21 19 0 6 11 23 16 25 3 2 12 4 20 6
28 6 33 11 47 40 12 25 17 43 22 78 5 35 3 47 -7 56 -4 4 -21 8 -28 7 -20 -2
-41 4 -49 15 -7 9 -7 21 0 27 6 6 28 6 41 1 19 -9 44 2 47 20 1 3 1 44 1 90
l-1 84 -8 16 c-9 17 -20 29 -35 36 -13 6 -16 6 -30 1 -10 -4 -12 -5 -23 -11
-11 -5 -29 -4 -38 3 -15 11 -22 27 -21 45 1 10 2 13 7 17 6 4 6 4 23 3 24 -2
39 -2 53 2 14 3 28 2 32 -4 1 -2 3 -3 3 -2 1 1 6 1 11 1 13 1 21 5 24 11 2 5
3 35 2 135 0 149 2 137 -22 160 -13 13 -14 15 -13 28 1 8 7 20 16 30 4 5 8 11
9 13 1 1 2 3 3 3 2 0 7 16 6 22 -1 8 -9 21 -18 27 -4 3 -9 5 -9 5 -4 0 -16 14
-32 36 -20 29 -27 36 -38 43 -8 4 -9 4 -116 5 -106 1 -107 1 -111 5 -2 2 -4 5
-6 6 -2 0 -2 1 1 1 1 0 3 1 3 2 0 1 7 12 16 26 14 21 16 25 16 33 0 11 -3 21
-8 22 -2 0 -2 1 1 1 3 0 6 1 7 3 1 2 4 3 5 3 4 0 17 7 23 12 6 5 13 29 10 34
-2 1 -2 6 -2 11 1 8 6 15 18 30 2 3 4 9 5 17 2 9 8 18 13 18 4 0 19 -14 22
-21 1 -3 2 -9 2 -12 1 -4 1 -7 2 -7 2 0 0 -7 -4 -17 -3 -6 -17 -21 -19 -21 -1
0 -2 -5 -1 -14 1 -14 5 -20 16 -24 2 -1 45 -2 95 -2 103 0 102 0 110 15 4 8 8
22 7 26 0 1 0 5 0 9 0 9 6 14 21 20 14 6 25 16 29 27 3 12 3 98 0 110 -2 6 -6
13 -11 18 -15 16 -8 15 -196 15 -91 0 -170 -1 -176 -2 -6 -1 -11 -3 -14 -6 -9
-9 -12 -11 -20 -16 -4 -2 -9 -4 -12 -4 -4 0 -17 5 -19 8 -1 1 -4 3 -7 5 -4 2
-5 3 -2 3 1 0 3 1 3 2 0 0 1 3 1 5 1 3 -12 15 -17 15 -2 0 -2 1 -1 2 4 2 5 26
2 26 -6 0 -11 10 -11 22 0 11 1 13 6 18 6 6 7 6 18 6 11 0 12 0 18 -6 5 -5 6
-7 6 -17 0 -6 -1 -14 -3 -17 -2 -4 -2 -11 -2 -16 1 -9 7 -25 7 -20 0 3 6 7 11
6 0 0 1 1 1 2 0 1 1 2 3 1 6 0 9 1 9 4 0 2 1 3 2 2 0 0 3 1 5 2 2 2 3 3 3 3
-1 0 0 4 1 9 2 6 2 9 1 12 -2 2 -2 8 -1 16 1 6 2 21 2 31 0 17 1 20 5 24 8 8
14 6 30 -10 21 -21 15 -20 139 -20 121 1 109 -1 135 24 12 12 17 15 29 18 13
3 28 -1 35 -10 2 -3 18 -10 19 -9 0 1 1 1 1 -1 0 -1 1 -2 3 -2 1 0 6 -3 11 -6
10 -6 13 -6 18 1 3 4 3 24 0 27 -1 2 -2 5 -3 8 -1 2 -3 4 -4 4 -5 0 -9 9 -9
19 0 10 5 17 19 24 17 8 25 22 27 43 0 15 -3 34 -6 34 -1 0 -3 2 -5 4 -5 4
-26 10 -34 8 -8 -2 -37 7 -45 14 -15 12 -25 16 -35 15 -7 0 -12 -2 -15 -4 -4
-4 -12 -22 -15 -33 -3 -14 -23 -16 -39 -6 -6 4 -10 7 -10 8 0 1 -9 6 -19 11
-11 5 -21 10 -23 11 -3 2 -12 13 -17 24 -4 8 -15 18 -18 18 -2 0 -3 1 -3 2 0
2 -2 2 -56 3 -34 1 -53 1 -58 -1 -14 -4 -23 -20 -22 -41 0 -11 -5 -17 -14 -17
-11 0 -13 5 -14 30 0 25 0 25 -4 38 -6 21 -7 24 -13 29 -7 5 -19 10 -30 12
-10 2 -14 6 -22 22 -8 16 -15 23 -28 27 -6 2 -29 2 -79 2 -62 -1 -72 -1 -77
-4 -9 -5 -16 -12 -26 -25 -5 -7 -10 -13 -12 -15 -9 -9 -24 -37 -22 -42 0 -3
-2 -5 -8 -8 l-8 -5 -170 -1 -170 -1 -6 6 -6 6 1 27 c0 21 -1 29 -3 35 -4 9
-14 21 -18 21 -2 0 -3 1 -3 2 0 1 -1 2 -2 2 -7 1 -248 2 -252 0z m865 -130 c4
-6 4 -24 -1 -30 -7 -9 -27 -9 -34 0 -5 6 -5 24 0 30 7 9 27 9 35 0z m-506 -19
c5 -8 1 -16 -8 -16 -9 0 -13 8 -8 16 2 3 5 5 8 5 3 0 6 -2 8 -5z m181 0 c3 -2
7 -6 9 -9 8 -10 19 -20 33 -28 16 -10 19 -14 18 -31 -2 -15 -5 -19 -25 -22
-16 -3 -23 -2 -23 1 0 1 -2 2 -4 3 -4 1 -10 12 -10 15 1 9 -3 13 -24 25 -19
11 -23 16 -27 27 -3 9 -2 10 2 15 3 3 8 5 14 6 6 1 11 1 13 2 7 1 19 -1 24 -4z
m220 0 c20 -9 20 -45 0 -54 -15 -6 -28 -2 -48 14 -15 12 -16 12 -21 19 -8 13
-2 19 20 21 22 3 43 2 49 0z m-544 -9 c5 -6 5 -12 0 -18 -7 -8 -22 -2 -22 9 0
11 15 17 22 9z m-599 -32 c4 -4 5 -7 5 -13 0 -10 -4 -15 -16 -16 -7 -1 -9 -1
-13 3 -7 6 -7 19 -1 25 6 7 19 7 25 1z m1401 -36 c5 -5 5 -11 0 -16 -10 -10
-27 5 -16 16 4 4 12 4 16 0z m-1186 -11 c3 -3 4 -7 4 -14 0 -13 -6 -19 -19
-19 -13 0 -19 6 -19 19 0 7 1 11 4 14 7 8 23 8 30 0z m701 -15 c6 -6 6 -11 1
-23 -4 -10 -9 -13 -19 -13 -10 0 -17 7 -17 17 0 11 4 16 16 20 12 4 14 4 19
-1z m-320 -14 c4 -6 4 -24 -1 -30 -7 -9 -27 -9 -34 0 -5 6 -5 24 0 30 7 9 27
9 35 0z m507 -6 c2 -2 4 -6 4 -9 0 -7 5 -24 13 -40 8 -18 9 -27 2 -34 -4 -4
-7 -5 -13 -5 -12 0 -18 7 -18 20 0 16 -3 31 -9 47 -6 15 -1 25 11 25 3 0 8 -2
10 -4z m-360 -29 c2 -2 4 -5 4 -6 0 -5 12 -26 18 -31 8 -7 14 -13 13 -14 0 0
0 -2 1 -4 2 -3 0 -4 -11 -8 -13 -4 -33 -15 -37 -20 -8 -8 -22 -35 -22 -41 0
-6 -16 -13 -33 -13 -7 0 -13 -2 -20 -5 -9 -5 -12 -7 -22 -24 -6 -9 -14 -11
-45 -11 -31 0 -35 1 -42 11 -1 2 -6 7 -9 10 -4 4 -6 7 -5 7 0 0 3 3 4 6 3 4 6
7 14 9 18 5 36 18 46 33 12 18 13 19 28 24 12 5 29 15 27 17 0 1 4 4 9 6 6 3
10 6 10 7 0 1 3 2 7 3 3 0 9 3 13 7 6 5 18 26 18 31 0 1 2 4 5 6 7 8 21 8 29
0z m279 -59 c0 -1 -1 -10 -1 -20 -1 -21 -3 -29 -8 -32 -3 -1 -4 -1 -5 2 -2 5
-6 11 -17 24 -2 3 -7 9 -10 14 -2 5 -6 10 -8 12 -2 1 -2 2 0 2 1 0 4 2 6 4 3
4 6 5 17 6 13 1 14 1 20 -5 3 -3 6 -6 6 -7z m-500 -9 c3 -3 3 -3 0 -6 -3 -3
-3 -3 -6 0 -3 2 -3 3 -1 6 4 4 4 4 7 0z m428 -30 c15 -7 12 -42 -4 -46 -17 -4
-34 -14 -45 -28 -12 -14 -26 -17 -35 -8 -10 10 -5 27 11 35 4 2 10 7 14 10 7
7 20 26 20 30 0 1 2 4 5 6 7 5 24 6 34 1z m61 -75 c2 -3 5 -7 5 -9 1 -4 -2
-39 -4 -47 0 -1 -1 -5 -1 -10 0 -9 -6 -16 -13 -16 -8 0 -13 7 -13 19 0 5 -1
12 -1 13 0 2 -1 12 -2 22 -1 17 -1 19 3 24 6 9 20 10 26 4z m229 -14 c6 -6 7
-17 1 -23 -10 -10 -28 -3 -28 11 0 14 17 22 27 12z m181 -18 c3 -3 6 -8 7 -11
1 -6 3 -16 3 -19 1 -4 -3 -11 -9 -13 -5 -2 -7 -2 -15 1 -4 2 -9 4 -11 4 -1 0
-5 3 -8 6 -8 8 -8 24 0 32 9 9 24 9 33 0z m-715 -37 c6 -6 7 -17 2 -25 -7 -12
-43 -18 -51 -10 -5 5 -5 8 0 17 8 19 38 30 49 18z m511 -20 c10 -9 2 -29 -11
-29 -10 0 -33 -7 -45 -14 -14 -7 -18 -8 -50 -2 -14 2 -26 5 -27 5 -4 0 -9 7
-9 11 0 8 6 11 35 17 15 3 32 5 37 5 11 0 37 5 44 9 6 4 21 3 26 -2z m107 -7
c10 -9 3 -26 -10 -26 -8 0 -15 7 -15 15 0 13 16 20 25 11z m-1310 -1 c3 -3 3
-3 0 -6 -3 -3 -3 -3 -6 0 -3 2 -3 3 -1 6 4 4 4 4 7 0z m1521 -21 c5 -5 5 -11
0 -16 -5 -5 -12 -4 -17 2 -3 6 -3 6 0 12 4 6 12 7 17 2z m-671 -2 c10 -9 3
-26 -10 -26 -8 0 -15 7 -15 15 0 13 16 20 25 11z m-361 -66 c5 -6 5 -8 0 -15
l-3 -5 -7 5 c-7 6 -7 9 -3 15 5 5 8 5 13 0z m285 -14 c15 -4 22 -4 134 -4
l118 0 6 -6 c3 -3 4 -6 3 -6 -1 0 -2 -1 -2 -3 0 -2 -5 -19 -12 -39 -6 -19 -12
-36 -12 -38 -2 -6 -15 -13 -26 -15 -6 0 -11 -2 -13 -3 -3 -2 -27 -2 -31 1 -2
1 -16 2 -40 3 -36 0 -39 0 -46 -4 -5 -2 -10 -6 -12 -8 -5 -4 -12 -26 -12 -37
0 -13 -4 -17 -22 -27 -15 -7 -18 -8 -29 -8 -13 1 -19 5 -19 12 0 5 7 21 12 27
6 8 5 23 0 31 -8 11 -17 14 -50 14 -28 0 -29 0 -37 5 -5 4 -10 9 -14 17 -3 7
-12 18 -20 27 -13 13 -15 16 -17 27 -1 6 -3 13 -4 15 -1 3 0 6 5 12 5 6 8 7
18 8 48 6 97 5 122 -1z m509 -6 c5 -3 8 -5 8 -6 0 -1 2 -2 4 -2 2 0 2 -1 0 -1
-2 -1 -6 -7 -10 -13 -7 -14 -10 -16 -23 -16 -13 0 -17 5 -19 19 -1 9 -1 12 2
15 8 9 26 11 38 4z m-105 -1 c3 -3 3 -3 0 -6 -3 -3 -3 -3 -6 0 -3 2 -3 3 -1 6
4 4 4 4 7 0z m-652 -26 c13 -5 17 -11 17 -25 0 -11 -1 -13 -6 -18 -6 -6 -7 -6
-18 -6 -11 0 -12 0 -18 6 -5 5 -6 7 -6 17 0 10 3 22 7 27 2 3 12 3 24 -1z m86
-96 c9 -9 6 -25 -6 -30 -6 -3 -8 -3 -14 0 -19 8 -13 35 7 35 6 0 9 -1 13 -5z
m560 -25 c5 -5 6 -7 6 -16 0 -9 -1 -11 -7 -16 -5 -6 -7 -7 -16 -7 -9 0 -11 1
-16 7 -9 8 -9 23 -1 32 9 9 24 9 34 0z m-213 0 c1 -3 2 -8 3 -12 0 -4 1 -9 2
-12 1 -3 2 -10 2 -17 1 -10 1 -13 -2 -16 -4 -3 -4 -3 -7 0 -2 3 -4 10 -5 18 0
8 -2 18 -2 24 -1 6 -1 11 1 14 3 6 5 6 8 1z m382 -7 c16 -7 20 -37 7 -48 -12
-11 -34 -11 -43 0 -9 10 -9 32 0 42 7 8 24 11 36 6z m189 -23 c11 -10 3 -28
-12 -28 -10 0 -15 4 -15 15 0 15 16 23 27 13z m-904 -28 c11 -11 7 -30 -7 -39
-10 -6 -20 -17 -26 -29 -6 -12 -6 -14 -5 -27 0 -8 3 -21 6 -28 5 -16 5 -16 0
-38 -4 -20 -2 -30 9 -41 15 -15 18 -26 10 -34 -6 -6 -16 -4 -44 9 -17 8 -25
13 -30 20 -7 7 -8 8 -21 9 -13 0 -25 -2 -25 -7 0 -4 -7 -8 -26 -17 -19 -9 -30
-15 -40 -24 -3 -3 -8 -7 -12 -10 -4 -3 -8 -6 -10 -8 -2 -2 -6 -5 -9 -7 -3 -2
-6 -5 -8 -6 -3 -3 -51 -40 -57 -43 -3 -2 -6 -5 -7 -7 -2 -2 -3 -1 -7 5 l-5 7
-1 82 c-1 46 0 83 0 83 1 0 4 3 7 7 2 4 5 6 5 6 3 -3 18 8 31 21 7 8 15 14 17
14 1 0 5 1 8 1 12 1 29 -10 42 -28 7 -10 17 -12 65 -11 37 1 41 1 49 6 16 8
19 26 7 54 -4 9 -8 23 -10 30 -3 12 -3 13 1 16 2 3 7 5 14 5 12 1 21 2 25 5 1
0 3 1 4 1 0 0 4 4 7 9 13 20 15 22 30 20 4 0 9 -2 13 -6z m208 -22 c7 -8 8
-23 1 -31 -9 -9 -26 -10 -35 -1 -5 5 -6 7 -6 16 0 17 7 24 24 23 8 -1 11 -2
16 -7z m641 -1 c4 -1 5 -5 7 -13 6 -25 -6 -42 -28 -41 -21 1 -32 16 -27 38 3
9 7 14 15 18 7 3 25 2 33 -2z m-230 -20 l-5 -5 -4 4 -5 5 4 4 5 5 4 -4 5 -5
-4 -4z m-521 6 c3 -3 3 -3 0 -6 -3 -3 -3 -3 -6 0 -3 2 -3 3 -1 6 4 4 4 4 7 0z
m660 -33 c3 -4 3 -7 2 -21 0 -9 -2 -19 -3 -21 -4 -7 -4 -37 0 -47 3 -9 2 -9
-3 -16 -4 -3 -7 -6 -8 -6 -4 2 -18 -19 -21 -28 -1 -4 -2 -18 -2 -30 0 -21 -3
-35 -8 -35 -1 0 -2 -2 -3 -3 0 -4 -1 -4 -1 0 0 1 -1 3 -1 3 -2 0 -7 4 -17 12
-5 5 -20 9 -37 9 -10 1 -20 2 -22 4 -2 1 -7 8 -10 16 -6 14 -7 15 -27 15 -9 0
-15 -1 -19 -4 -3 -2 -13 -6 -22 -9 -13 -4 -19 -7 -26 -15 -13 -12 -21 -16 -32
-16 -13 0 -19 6 -19 19 0 15 8 27 25 35 6 4 10 4 25 3 12 0 18 0 22 2 3 2 6 2
6 2 1 -1 2 7 2 16 l0 17 -11 7 c-7 4 -14 8 -17 9 -3 1 -4 2 -2 2 2 0 4 2 6 4
1 2 3 4 4 3 1 -1 2 0 3 1 1 1 24 2 58 2 78 0 78 0 98 46 10 25 47 40 60 24z
m-934 -7 c3 -5 3 -5 0 -10 -5 -6 -8 -6 -13 -2 -5 4 -5 8 0 13 4 5 8 5 13 -1z
m472 -32 c4 -3 7 -6 7 -7 0 -2 7 -10 15 -16 8 -6 20 -5 38 1 32 12 52 4 52
-22 0 -19 -9 -28 -28 -28 -9 0 -13 2 -21 7 -9 6 -13 7 -23 7 -16 0 -21 -3 -27
-16 -3 -6 -10 -15 -18 -23 l-14 -14 0 -14 c0 -17 -5 -12 42 -41 27 -16 86 -54
88 -57 1 0 6 -4 12 -8 6 -5 15 -11 20 -14 5 -4 11 -8 14 -9 4 -2 4 -3 2 -3 -2
0 -4 -1 -4 -2 0 -1 -3 -3 -7 -5 -5 -2 -24 -3 -101 -3 -92 0 -95 0 -101 -4 -8
-5 -10 -9 -10 -23 1 -5 0 -11 -2 -11 -1 -1 -1 -2 1 -2 9 0 12 -27 4 -38 -16
-26 -61 -34 -70 -12 -4 10 -3 25 2 32 5 9 16 18 22 18 3 0 4 1 2 1 -2 1 -3 4
-2 12 1 15 -1 19 -8 23 -5 3 -14 4 -80 4 -42 0 -78 1 -81 2 -8 2 -23 10 -19
10 3 0 -3 11 -9 16 -17 13 -14 26 7 33 21 7 31 7 46 0 11 -5 28 -7 36 -3 5 2
25 19 56 50 l28 27 0 13 c0 17 -3 23 -27 40 l-19 15 -17 0 c-9 0 -20 -1 -25
-1 -11 -2 -15 2 -16 13 0 4 0 8 -1 9 -1 1 2 4 5 6 7 5 9 5 57 6 59 1 62 2 81
25 11 13 11 13 50 12 32 -1 36 -2 43 -6z m-865 -18 c-5 -6 -10 -4 -10 4 0 7 4
10 9 5 l5 -5 -4 -4z m176 -17 c5 -5 6 -7 6 -17 0 -10 -1 -12 -6 -17 -5 -5 -7
-6 -17 -6 -10 0 -12 1 -17 6 -5 5 -6 7 -6 17 0 10 1 12 6 17 5 5 7 6 17 6 10
0 12 -1 17 -6z m1376 -38 c5 -5 5 -10 -1 -30 -2 -7 -3 -20 -4 -35 0 -22 0 -24
-5 -31 -5 -6 -5 -8 -5 -29 0 -26 -1 -29 -12 -25 -4 1 -11 5 -15 7 -4 3 -13 8
-21 12 -12 5 -16 8 -22 17 -4 6 -10 13 -13 16 -7 6 -23 12 -33 13 -10 1 -23 8
-23 14 0 1 -1 5 -3 9 -2 4 -5 10 -6 14 -4 8 -4 15 0 18 2 1 11 3 22 3 27 1 33
-2 41 -19 8 -15 12 -18 29 -18 l14 0 9 10 c11 11 14 17 21 38 3 8 7 16 8 18 6
3 15 2 19 -2z m-1515 -10 c5 -5 6 -7 6 -16 0 -9 -1 -11 -7 -16 -5 -6 -7 -7
-16 -7 -9 0 -11 1 -16 7 -9 8 -9 23 -1 32 9 9 24 9 34 0z m1335 -1 c7 -4 8 -6
6 -9 -1 -2 -1 -4 0 -5 0 -1 0 -1 -1 0 -2 1 -3 0 -3 0 0 -1 -3 -2 -7 -1 -4 0
-7 2 -7 3 0 1 -2 4 -4 6 l-5 3 5 4 c6 5 7 5 16 -1z m-1254 -53 c8 -9 2 -22
-10 -22 -7 -1 -12 4 -12 12 0 12 14 19 22 10z m880 0 c5 -5 5 -11 0 -16 -10
-10 -27 5 -16 16 4 4 12 4 16 0z m-927 -47 c3 -4 5 -7 4 -10 0 -2 -1 -6 -1 -9
0 -7 -9 -14 -18 -14 -11 0 -18 7 -18 18 0 10 5 16 16 18 5 1 10 2 10 2 1 0 4
-2 7 -5z m1267 -39 c9 -9 -1 -22 -17 -25 -11 -2 -12 -3 -15 -12 -1 -5 -3 -9
-4 -9 -2 0 -5 -8 -7 -20 -2 -10 -3 -202 -1 -208 0 -3 1 -10 0 -16 -1 -9 -1
-11 4 -15 4 -3 7 -5 8 -4 2 1 2 1 1 0 0 -2 1 -3 4 -4 5 -1 19 -14 19 -17 0 -2
2 1 3 6 4 11 4 29 1 31 -2 0 -2 2 2 6 5 5 10 5 38 -1 20 -5 26 -10 26 -20 0
-10 -6 -15 -19 -17 -21 -3 -24 -4 -32 -11 -6 -5 -6 -6 -3 -8 5 -3 -7 -24 -13
-24 -5 0 -25 -10 -31 -15 -2 -2 -6 -7 -7 -10 -2 -3 -7 -9 -10 -13 l-7 -6 -53
1 -52 1 -5 6 c-9 8 -10 31 -7 168 2 71 2 75 10 83 1 1 4 2 7 1 13 -1 19 3 42
27 32 35 44 55 44 77 0 7 1 10 5 13 5 6 19 11 27 11 4 0 8 1 9 3 2 2 3 3 2 3
-3 0 5 12 11 17 8 6 15 6 20 1z m-881 -27 c3 -3 3 -3 0 -6 -3 -3 -3 -3 -6 0
-3 2 -3 3 -1 6 4 4 4 4 7 0z m760 -7 c4 -6 4 -24 -1 -30 -7 -9 -27 -9 -34 0
-5 6 -5 24 0 30 7 9 27 9 35 0z m-682 -52 c5 -5 6 -7 6 -16 0 -9 -1 -11 -7
-16 -5 -6 -7 -7 -16 -7 -9 0 -11 1 -16 7 -9 8 -9 23 -1 32 9 9 24 9 34 0z
m-366 -3 c3 -2 5 -5 5 -7 0 -1 1 -2 3 -3 1 0 1 -1 -1 -1 -2 0 -6 -2 -8 -4 -2
-2 -11 -6 -20 -10 l-16 -5 -3 7 c-4 10 -4 12 1 18 8 10 30 13 39 5z m961 -7
c6 -3 14 -21 13 -29 -1 -9 -5 -13 -14 -14 -5 -1 -10 -3 -13 -4 -8 -4 -17 -4
-22 1 -9 9 -2 34 12 44 7 4 18 5 24 2z m229 -35 c3 -3 3 -3 0 -6 -3 -3 -3 -3
-6 0 -3 2 -3 3 -1 6 4 4 4 4 7 0z m-1301 -6 c22 -11 34 -13 47 -6 14 8 19 8
22 -3 0 -3 3 -7 5 -10 3 -3 7 -11 11 -18 5 -11 6 -15 6 -28 0 -13 0 -15 -6
-19 -4 -4 -7 -5 -18 -5 -13 0 -14 0 -21 8 -4 5 -9 14 -12 21 -3 7 -7 15 -11
18 -8 7 -25 13 -41 13 -8 0 -11 1 -15 5 -7 7 -7 19 0 26 7 7 16 7 33 -2z m890
-15 c-3 -16 -3 -17 0 -17 2 0 3 1 3 2 -1 2 6 -4 15 -13 l16 -16 0 -11 c0 -7
-1 -12 -4 -15 -7 -9 -27 -9 -34 0 -5 5 -5 22 -2 28 5 9 4 21 -1 31 -7 15 -8
21 -4 25 4 4 4 4 8 -1 4 -4 4 -6 3 -13z m498 -40 c9 -8 3 -24 -10 -24 -8 0
-14 5 -14 13 0 13 14 20 24 11z m-895 -11 c12 -6 16 -9 20 -19 3 -7 3 -8 -2
-12 -4 -4 -6 -4 -17 -3 -22 2 -34 10 -34 23 0 15 14 20 33 11z m823 -20 l-5
-5 -4 4 -5 5 4 4 5 5 4 -4 5 -5 -4 -4z m-1325 -10 c4 -4 7 -8 7 -9 0 -4 14
-18 22 -22 4 -2 9 -7 11 -10 3 -6 3 -7 0 -14 -4 -9 -13 -14 -30 -15 -12 -2
-17 2 -22 17 -1 5 -6 17 -9 26 -7 20 -7 25 -2 30 6 6 15 5 23 -3z m820 -36 c7
-8 7 -7 8 -14 1 -3 4 -8 7 -10 7 -6 25 -11 38 -11 15 0 23 -13 19 -29 -1 -3
-4 -6 -7 -8 -8 -6 -20 -4 -41 6 l-20 10 -99 1 c-107 1 -106 1 -123 -10 -22
-14 -25 -15 -42 -14 -2 0 -6 3 -9 6 -5 5 -6 7 -6 18 0 11 1 13 6 18 3 3 7 6 9
6 15 1 25 -1 25 -4 0 -1 1 -2 2 -1 1 0 6 1 11 2 6 1 12 3 15 4 5 3 13 17 12
21 -1 1 2 5 5 9 l6 6 89 0 89 0 6 -6z m215 -18 c16 -7 20 -37 7 -48 -12 -11
-34 -11 -43 0 -9 10 -9 32 0 42 7 8 24 11 36 6z m-440 -119 c5 -6 5 -12 0 -18
-7 -8 -22 -2 -22 9 0 11 15 17 22 9z m809 -2 c10 -9 3 -26 -10 -26 -8 0 -15 7
-15 15 0 13 16 20 25 11z m-1382 -13 c5 -4 6 -6 7 -18 0 -13 0 -14 -6 -21 -5
-6 -7 -6 -19 -6 -11 0 -14 1 -18 5 -6 4 -6 6 -6 20 0 14 0 16 6 20 8 7 28 7
36 0z m76 -45 c7 -6 7 -19 1 -25 -6 -7 -20 -7 -26 0 -5 6 -5 18 1 25 5 6 18 6
24 0z m739 -14 c9 -9 3 -24 -10 -24 -6 0 -9 1 -11 4 -7 11 -1 24 11 24 3 0 8
-2 10 -4z m583 -20 c4 -6 4 -24 -1 -30 -7 -9 -27 -9 -34 0 -5 6 -5 24 0 30 7
9 27 9 35 0z m-835 2 c6 -3 26 -33 26 -40 0 -4 -5 -9 -7 -7 0 1 -1 1 -1 0 0
-2 -4 -2 -9 -2 -4 0 -9 -1 -11 -2 -4 -2 -21 -2 -28 1 -17 7 -17 43 -1 50 12 4
20 4 31 0z m594 -6 c13 -13 -6 -32 -19 -20 -10 8 -4 24 9 24 3 0 8 -2 10 -4z
m108 -4 c5 -5 5 -9 -4 -27 -4 -9 -8 -19 -9 -22 -1 -3 -2 -8 -3 -11 -1 -3 -2
-7 -3 -10 0 -3 -6 -11 -13 -17 -7 -8 -13 -16 -14 -21 -11 -29 -13 -32 -25 -32
-11 0 -17 6 -17 16 0 7 5 19 8 22 2 2 8 15 9 19 0 3 2 8 3 12 1 5 2 12 2 16 0
7 1 9 9 16 9 8 25 24 38 37 6 7 13 8 19 2z"/>
<path d="M626 2041 c-12 -12 -11 -29 2 -40 4 -4 7 -5 16 -5 11 0 12 0 17 8 7
11 8 25 0 35 -6 8 -7 8 -17 8 -10 0 -12 -1 -18 -6z"/>
<path d="M266 1960 c-7 -10 -16 -29 -15 -32 0 -2 2 -7 3 -11 4 -16 18 -26 38
-25 12 1 25 6 27 11 0 2 1 9 1 15 0 8 1 12 3 12 1 0 0 1 -2 2 -3 1 -5 3 -5 4
0 1 -4 9 -9 16 l-10 14 -13 0 c-13 0 -14 0 -18 -6z"/>
</g>
</svg>
