<?xml version="1.0" standalone="no"?>
<!DOCTYPE svg PUBLIC "-//W3C//DTD SVG 20010904//EN"
 "http://www.w3.org/TR/2001/REC-SVG-20010904/DTD/svg10.dtd">
<svg version="1.0" xmlns="http://www.w3.org/2000/svg"
 width="1100.000000pt" height="2850.000000pt" viewBox="0 0 1100.000000 2850.000000"
 preserveAspectRatio="xMidYMid meet">
<metadata>
Created by potrace 1.15, written by Peter Selinger 2001-2017
</metadata>
<g transform="translate(0.000000,2850.000000) scale(0.500000,-0.500000)"
fill="#000000" stroke="none">
<path d="M128 3740 c-3 -1 -6 -1 -7 0 0 0 -1 0 -1 -2 0 -1 -1 -2 -3 -2 -4 0
-14 -12 -18 -21 -5 -11 -5 -209 0 -220 4 -9 14 -21 18 -21 2 0 3 -1 3 -2 0 -2
10 -3 40 -3 32 0 31 0 58 15 7 4 14 6 19 6 5 0 12 -2 19 -6 28 -16 24 -15 82
-16 53 0 67 1 81 7 14 7 27 10 33 10 7 0 27 -6 31 -9 1 -1 8 -3 14 -5 15 -4
124 -5 126 -1 2 4 13 -12 13 -19 0 -17 11 -29 32 -34 6 -2 8 -2 10 0 2 3 5 3
10 2 9 -2 10 -2 10 -7 0 -8 -13 -16 -25 -15 -11 1 -273 1 -279 0 -6 -2 -18 -7
-21 -9 -8 -8 -24 -18 -26 -18 -4 0 -14 6 -20 11 -16 14 -22 16 -50 16 -26 0
-35 -1 -35 -3 0 -1 -1 -2 -3 -2 -4 0 -14 -12 -18 -21 -4 -9 -4 -57 -1 -66 5
-13 7 -16 11 -22 12 -17 19 -39 13 -39 -1 0 -2 -1 -1 -2 0 0 -2 -3 -6 -6 -6
-4 -11 -13 -17 -27 -4 -10 2 -24 15 -39 16 -18 16 -21 0 -38 -15 -17 -20 -35
-15 -52 5 -15 19 -22 43 -23 20 -1 27 -5 31 -20 2 -7 2 -11 0 -17 -4 -16 -11
-20 -31 -21 -24 -1 -38 -8 -43 -23 -4 -11 -3 -163 1 -173 4 -9 14 -21 18 -21
2 0 3 -1 3 -2 0 -1 1 -2 3 -2 1 0 236 -1 523 -1 l521 -1 11 5 c17 9 20 17 17
52 -2 17 -2 17 5 23 11 11 30 8 48 -10 3 -2 11 -8 18 -12 16 -10 17 -10 27
-30 7 -12 10 -16 18 -21 l10 -6 54 -1 54 0 21 7 c26 9 28 9 54 0 l21 -7 54 1
c57 1 59 1 59 3 0 1 1 2 3 2 4 0 14 12 18 21 5 11 4 98 0 100 -2 0 -10 1 -19
1 -11 0 -16 1 -17 3 0 1 -1 1 -1 -2 0 -5 -9 -18 -14 -21 -2 -1 -8 -2 -14 -2
-16 0 -24 10 -34 43 -6 17 -6 24 -1 34 5 10 9 35 9 50 -1 15 3 22 11 24 13 3
18 -11 13 -33 -2 -9 2 -25 7 -29 2 -2 9 -3 17 -3 l12 0 12 12 c7 6 14 16 17
21 l4 10 0 175 c0 175 0 176 -4 181 -8 11 -16 14 -38 13 -20 0 -20 0 -39 9
l-19 8 -159 0 -159 0 -6 6 c-6 6 -6 6 -6 30 0 24 0 24 6 30 l6 6 43 0 43 0 19
10 c11 5 22 9 26 9 4 0 15 -4 26 -9 l19 -10 82 0 82 0 8 6 c5 4 7 7 8 13 1 4
2 10 3 13 1 5 1 7 -1 8 -5 2 -4 18 2 23 6 6 19 6 25 -1 5 -5 6 -20 1 -22 -2
-1 -2 -3 -1 -8 1 -3 2 -9 3 -13 1 -6 3 -9 8 -13 l8 -6 56 0 c56 0 67 1 67 3 0
1 1 2 3 2 4 0 14 12 18 21 2 6 3 16 3 56 0 54 -1 61 -13 77 -18 25 -18 30 0
56 9 13 10 17 9 32 0 5 -14 20 -17 20 -2 0 -3 1 -3 2 0 2 -2 2 -73 3 l-68 1
-12 -6 c-9 -4 -15 -9 -20 -16 -10 -12 -18 -17 -27 -16 -7 0 -17 -2 -29 -5 -2
0 -10 -3 -17 -6 -7 -3 -14 -5 -15 -5 -4 0 -10 10 -7 13 2 2 -3 22 -7 29 -2 2
-7 6 -12 8 -9 4 -13 4 -101 4 -106 -1 -97 1 -120 -21 -23 -22 -37 -22 -60 0
-24 22 0 20 -217 21 l-190 0 -9 -4 c-5 -3 -15 -10 -21 -17 -7 -7 -14 -13 -15
-13 -1 0 -8 6 -15 13 -7 7 -13 13 -14 13 -2 0 -4 1 -5 3 -3 3 -16 2 -23 -2 -9
-4 -20 -15 -25 -25 -2 -4 -15 -11 -24 -11 -4 -1 -10 -1 -14 -2 -7 -1 -8 0 -15
8 -5 5 -8 10 -9 14 0 6 -4 11 -17 18 l-8 4 -233 1 -233 0 -16 -5 c-24 -7 -27
-7 -49 -1 -19 6 -34 7 -44 4z m867 -47 c3 -3 3 -3 0 -6 -4 -5 -11 1 -7 6 4 4
4 4 7 0z m106 -4 c4 -4 5 -7 5 -15 0 -14 -6 -20 -20 -20 -14 0 -20 6 -20 20 0
14 6 20 20 20 8 0 11 -1 15 -5z m-380 -7 c3 -2 4 -6 4 -8 -4 -22 -10 -29 -30
-36 -24 -8 -37 -4 -37 12 0 16 10 25 36 33 19 5 21 5 27 -1z m-361 -9 c-4 -5
-5 -5 -8 -2 -2 2 -4 3 -6 3 -4 0 -2 3 4 8 l5 4 5 -5 4 -4 -4 -4z m-58 -7 c0
-1 2 -2 4 -3 5 -2 5 -5 -1 -11 -6 -5 -9 -5 -14 1 -3 5 -3 5 0 10 4 5 11 7 11
3z m1389 -42 c11 -10 3 -28 -11 -28 -9 0 -16 6 -16 16 0 14 17 22 27 12z
m-474 -9 c5 -8 1 -16 -8 -16 -9 0 -13 8 -8 16 2 3 5 5 8 5 3 0 6 -2 8 -5z
m296 -36 c4 -4 5 -7 5 -15 0 -14 -6 -20 -20 -20 -14 0 -20 6 -20 20 0 14 6 20
20 20 8 0 11 -1 15 -5z m-737 -22 c21 -9 20 -45 -2 -54 -10 -5 -28 -1 -34 6
-9 10 -9 32 0 42 7 8 24 11 36 6z m-100 -24 c3 -3 4 -7 4 -14 0 -11 -5 -17
-16 -21 -6 -3 -9 -3 -14 -2 -3 0 -8 16 -8 24 0 18 22 26 34 13z m201 -13 c7
-7 12 -21 9 -22 -1 0 -2 -1 -2 -3 0 -7 -21 -6 -30 2 -5 5 -5 16 0 22 6 7 18 7
23 1z m260 -21 c3 -3 3 -3 0 -6 -4 -5 -11 1 -7 6 4 4 4 4 7 0z m-199 -26 c20
-5 23 -5 77 -5 l56 1 6 -6 c6 -6 6 -6 6 -30 l0 -24 -8 -7 c-4 -5 -8 -8 -9 -7
-1 1 -2 0 -2 -1 0 -1 -2 -2 -5 -3 -3 -1 -8 -6 -14 -14 -16 -22 -16 -22 -33
-28 -31 -12 -43 -13 -48 -7 -4 5 -5 16 -2 16 1 0 -2 17 -6 26 -4 9 -11 12 -28
14 -9 1 -17 2 -18 3 -1 0 -12 1 -24 1 -22 0 -23 1 -27 5 -3 5 -3 5 0 10 3 3 6
5 10 5 8 0 24 7 29 12 2 2 4 4 4 3 1 0 1 0 1 1 0 0 1 4 2 9 2 5 2 10 1 16 -2
7 -2 8 2 11 6 5 5 5 30 -1z m-162 -21 c4 -4 5 -12 2 -18 -3 -5 -12 -8 -34 -10
-10 -1 -22 -2 -26 -3 -14 -1 -18 3 -13 14 8 15 22 21 50 21 14 0 18 -1 21 -4z
m-48 -90 c5 -5 5 -11 0 -16 -10 -10 -27 5 -17 16 5 5 12 5 17 0z m483 -1 c3
-3 3 -3 0 -6 -4 -5 -11 1 -7 6 4 4 4 4 7 0z m-724 -23 c10 -9 3 -26 -10 -26
-8 0 -15 7 -15 15 0 13 16 20 25 11z m358 -3 c7 -4 10 -11 10 -23 0 -20 -8
-27 -29 -27 -11 0 -13 1 -18 7 -9 10 -9 31 0 41 7 7 27 8 37 2z m785 -2 c8 -4
14 -20 18 -48 2 -15 0 -28 -6 -33 -8 -9 -32 -9 -40 -1 -5 5 -13 30 -15 42 0 5
-2 11 -3 12 -2 3 -1 6 4 17 6 15 25 20 42 11z m-1237 -3 c10 -9 3 -26 -10 -26
-12 0 -19 14 -11 25 4 6 15 7 21 1z m1145 -11 c9 -9 9 -25 0 -33 -7 -6 -23 -5
-29 1 -7 7 -7 23 0 30 6 6 22 7 29 2z m-887 -9 c5 -5 6 -7 6 -16 0 -15 -8 -23
-23 -23 -9 0 -11 1 -16 7 -9 8 -9 23 -1 32 9 9 24 9 34 0z m387 -20 c15 -3 22
-8 22 -17 0 -13 -16 -19 -52 -19 -21 0 -26 4 -26 19 0 15 5 19 26 19 9 0 23
-1 30 -2z m-244 -44 c9 -10 9 -32 0 -40 -8 -9 -32 -9 -40 0 -9 8 -9 32 0 41 9
9 32 8 40 -1z m-498 -14 c12 -13 -6 -30 -18 -18 -3 3 -6 7 -7 10 -2 4 -2 5 3
8 7 5 18 5 22 0z m1435 -3 c12 -12 3 -31 -13 -31 -11 0 -18 7 -18 18 0 11 7
18 18 18 6 0 9 -1 13 -5z m-446 -3 c11 -10 3 -28 -11 -28 -9 0 -16 6 -16 16 0
14 17 22 27 12z m-172 -26 c3 -1 6 -4 8 -7 4 -5 4 -3 -6 -38 -3 -10 -5 -21 -6
-25 -1 -11 -3 -14 -12 -28 -13 -20 -15 -29 -15 -64 l1 -29 -6 -6 -6 -6 -76 0
-76 0 -6 6 -6 6 0 78 0 78 6 6 6 6 63 -1 c68 0 72 0 87 10 24 17 31 19 44 14z
m-510 -18 c6 -2 14 -4 17 -5 3 0 8 -3 11 -6 l6 -6 0 -78 0 -78 -6 -6 c-6 -6
-6 -6 -25 -6 -18 0 -20 0 -37 -9 -23 -11 -27 -11 -50 0 -10 5 -19 9 -20 9 -1
0 -5 3 -8 6 l-6 6 0 78 0 78 6 6 c6 6 6 6 23 5 16 0 22 1 47 8 15 4 23 4 42
-2z m894 -11 l6 -6 -1 -86 c-1 -82 -1 -87 -6 -99 -6 -19 -12 -24 -29 -24 -15
0 -15 0 -32 21 -14 16 -22 20 -48 20 -22 0 -22 0 -28 6 l-6 6 0 78 0 78 6 6 6
6 63 0 63 0 6 -6z m-1145 -36 l-5 -5 -4 4 -5 5 4 4 5 5 4 -4 5 -5 -4 -4z m827
-48 c6 -4 6 -6 6 -20 0 -14 0 -16 -6 -20 -8 -7 -28 -7 -36 0 -5 4 -6 6 -7 19
0 14 0 14 6 20 9 8 28 9 37 1z m-372 -4 c12 -12 3 -31 -13 -31 -11 0 -18 7
-18 18 0 11 7 18 18 18 6 0 9 -1 13 -5z m-434 -16 c12 -12 3 -31 -13 -31 -11
0 -18 7 -18 18 0 11 7 18 18 18 6 0 9 -1 13 -5z m488 -74 c12 -12 3 -31 -13
-31 -11 0 -18 7 -18 18 0 11 7 18 18 18 6 0 9 -1 13 -5z m-448 -15 c8 -8 6
-24 -5 -29 -18 -9 -33 3 -26 22 4 10 23 15 31 7z m-103 -30 c5 -5 6 -7 6 -17
0 -16 -7 -23 -23 -23 -16 0 -23 7 -23 23 0 16 7 23 23 23 10 0 12 -1 17 -6z
m1229 -32 c16 -7 16 -43 -1 -50 -15 -6 -34 -2 -39 9 -4 8 -4 24 0 32 5 12 23
15 40 9z m-822 -29 c-5 -4 -6 -5 -8 -2 -2 1 -4 3 -5 4 -2 0 -1 2 3 6 l6 5 5
-5 4 -4 -5 -4z m-338 -10 c5 -8 1 -16 -8 -16 -9 0 -13 8 -8 16 2 3 5 5 8 5 3
0 6 -2 8 -5z m851 -10 l-5 -5 -4 4 -5 5 4 4 5 5 4 -4 5 -5 -4 -4z m-560 3 c2
-2 3 -5 3 -6 -3 -15 -4 -18 -8 -22 -7 -6 -22 -6 -28 1 -11 10 -5 32 9 33 7 1
19 -2 24 -6z"/>
</g>
</svg>
