<?xml version="1.0" standalone="no"?>
<!DOCTYPE svg PUBLIC "-//W3C//DTD SVG 20010904//EN"
 "http://www.w3.org/TR/2001/REC-SVG-20010904/DTD/svg10.dtd">
<svg version="1.0" xmlns="http://www.w3.org/2000/svg"
 width="1000.000000pt" height="2850.000000pt" viewBox="0 0 1000.000000 2850.000000"
 preserveAspectRatio="xMidYMid meet">
<metadata>
Created by potrace 1.15, written by Peter Selinger 2001-2017
</metadata>
<g transform="translate(0.000000,2850.000000) scale(0.500000,-0.500000)"
fill="#000000" stroke="none">
<path d="M424 3819 c-2 -1 -8 -5 -13 -8 -6 -4 -11 -7 -12 -7 -1 0 -4 -2 -8 -5
-3 -2 -10 -7 -15 -9 -10 -6 -14 -9 -38 -24 -9 -6 -16 -10 -17 -10 -1 0 -6 -4
-13 -8 -6 -4 -12 -8 -13 -8 -1 0 -5 -3 -10 -6 -4 -3 -12 -8 -18 -11 -5 -3 -13
-8 -16 -10 -12 -7 -18 -16 -19 -30 0 -12 0 -14 6 -23 9 -14 14 -18 28 -20 17
-4 22 -1 34 18 6 8 10 16 10 17 0 1 2 4 4 6 2 2 4 5 4 6 0 4 21 14 36 16 30 6
39 8 46 13 15 10 35 19 45 19 19 0 27 -8 28 -28 0 -24 -14 -32 -44 -26 -23 5
-29 4 -50 -6 -10 -5 -21 -10 -24 -10 -21 -4 -31 -17 -34 -43 -1 -8 -9 -26 -11
-26 -2 0 -6 -10 -8 -19 -4 -19 7 -33 35 -43 11 -4 20 -9 26 -15 6 -5 11 -9 13
-9 1 0 2 -1 2 -2 0 -1 4 -3 10 -6 15 -6 22 -13 22 -22 0 -9 -7 -16 -14 -16 -3
0 -15 3 -27 7 -13 4 -27 7 -37 8 -8 1 -19 2 -23 3 -4 1 -22 2 -39 2 -35 0 -46
-3 -62 -17 -21 -17 -39 -16 -61 1 -13 11 -29 17 -42 15 -5 -1 -11 -1 -12 -1
-2 -1 -3 -1 -3 -2 0 -1 -1 -2 -3 -2 -4 0 -14 -12 -18 -21 -7 -18 -1 -43 15
-61 11 -12 13 -16 13 -28 0 -12 -2 -16 -13 -28 -15 -17 -18 -28 -18 -73 0 -29
1 -38 3 -44 6 -14 16 -22 31 -24 12 -2 17 6 19 28 0 5 0 9 -1 9 -3 0 -6 19 -4
26 3 12 4 14 18 22 12 8 19 14 31 28 8 9 13 12 25 12 9 0 11 -1 16 -6 5 -5 6
-7 6 -16 0 -12 -3 -18 -15 -28 -9 -8 -11 -10 -10 -12 1 -1 0 -2 -1 -2 -1 0 -4
-4 -7 -8 -3 -5 -8 -11 -10 -13 -3 -1 -4 -5 -4 -7 0 -1 1 -7 1 -12 l0 -10 10 0
c6 0 10 1 9 2 0 0 2 1 5 1 3 0 8 3 11 6 3 3 7 5 8 5 1 0 4 1 5 3 5 6 11 3 22
-7 22 -22 31 -26 47 -22 8 2 31 16 27 16 -2 0 3 6 11 15 4 5 9 7 12 7 16 1 20
-1 30 -15 8 -9 14 -14 23 -19 14 -7 27 -17 24 -18 -1 -1 -5 -6 -8 -13 -4 -7
-14 -23 -22 -37 -8 -13 -16 -27 -18 -30 -5 -8 -8 -21 -8 -35 0 -17 -3 -21 -20
-28 -18 -8 -27 -15 -43 -37 -7 -10 -14 -19 -15 -20 -1 -1 -6 -7 -11 -14 -9
-11 -31 -38 -36 -43 -1 -1 -8 -9 -15 -17 -19 -22 -23 -25 -45 -48 -41 -42 -84
-80 -124 -110 -22 -16 -27 -23 -28 -39 -1 -10 -1 -12 14 -42 8 -17 15 -31 15
-32 0 -1 5 -13 11 -27 15 -36 35 -90 48 -130 14 -41 15 -45 24 -50 7 -5 27 -6
31 -1 2 1 10 8 18 15 30 26 84 77 86 83 1 3 2 3 2 1 0 -2 1 -4 2 -4 1 0 3 -3
5 -7 3 -6 3 -24 3 -166 0 -174 0 -166 12 -190 12 -24 12 -34 0 -58 -21 -41
-14 -67 22 -85 14 -7 17 -11 20 -21 2 -7 2 -11 0 -17 -3 -11 -6 -15 -20 -22
-13 -6 -30 -22 -30 -28 0 -2 -1 -4 -2 -5 -6 -4 10 -35 19 -35 2 0 3 -1 3 -2 0
-3 12 -3 120 -3 108 0 120 0 120 3 0 1 1 2 3 2 4 0 14 12 18 21 3 7 3 27 3
189 0 204 1 192 -16 209 -18 20 -19 34 -1 53 8 7 14 19 16 29 0 3 1 36 1 73
l0 66 5 5 c7 7 7 20 0 40 -11 32 -3 55 18 55 14 0 15 0 21 -6 5 -5 6 -7 6 -17
0 -15 -3 -19 -17 -26 -17 -8 -21 -15 -21 -30 0 -10 1 -14 5 -18 2 -3 8 -11 12
-18 20 -31 24 -34 52 -41 22 -6 23 -8 18 -31 -4 -20 -2 -36 6 -39 7 -3 24 -2
30 0 3 2 13 14 27 38 13 19 28 43 34 52 6 9 13 22 17 27 6 9 10 16 28 44 3 5
11 16 16 24 14 22 15 38 5 54 -3 5 -28 31 -56 59 l-50 50 0 9 c0 11 -7 3 78
83 6 5 22 20 36 31 13 12 24 23 24 25 0 2 0 2 2 0 1 -2 5 -4 9 -5 3 -1 8 -2
11 -4 3 -1 6 -2 7 -2 21 -6 23 -6 26 -4 2 2 7 2 14 2 20 -3 40 -2 49 2 23 9
36 5 36 -12 0 -9 -6 -17 -14 -17 -10 0 -34 -9 -41 -15 -7 -7 -8 -7 -6 -20 0
-8 2 -16 7 -23 14 -27 3 -47 -22 -42 -11 3 -14 8 -14 24 0 7 -1 18 -3 23 -2
10 -11 28 -11 23 0 -1 -4 -2 -11 -2 -9 0 -12 -1 -17 -5 -9 -9 -10 -13 -10 -65
0 -39 1 -49 3 -55 4 -9 14 -21 18 -21 2 0 3 -1 3 -2 0 -2 1 -2 51 -3 l46 -1 6
-6 c4 -3 6 -6 6 -7 -1 -1 -2 -6 -5 -43 -1 -14 -3 -25 -3 -26 -1 -1 0 -6 2 -12
3 -10 7 -15 23 -29 6 -6 10 -10 10 -12 0 -3 -12 -11 -24 -15 -12 -4 -19 -11
-25 -23 -4 -6 -5 -26 -2 -31 1 -2 2 -4 2 -5 1 -4 7 -12 15 -18 11 -10 14 -13
14 -22 0 -12 -5 -16 -24 -18 -26 -2 -37 -9 -47 -30 -9 -17 -10 -28 -4 -49 2
-11 5 -23 6 -28 1 -5 3 -17 6 -26 6 -21 6 -28 1 -33 -5 -5 -20 -9 -32 -9 -10
0 -11 -1 -10 -9 0 0 -1 -3 -3 -4 -9 -10 -10 -12 -12 -42 -2 -24 -5 -29 -18
-29 -6 0 -10 1 -14 6 -3 3 -8 6 -10 7 -3 1 -3 2 -1 2 1 1 1 2 1 4 -1 1 -1 1 0
1 6 -6 17 38 12 51 -1 5 8 18 11 15 1 -1 5 -1 9 0 4 1 8 1 9 0 1 -1 5 -1 9 0
l7 0 -1 14 c-2 26 -4 28 -22 28 -13 0 -15 -2 -19 -15 -5 -16 -12 -22 -29 -26
-8 -2 -15 -5 -16 -6 -2 -2 -6 -5 -10 -7 l-7 -4 0 -16 c0 -16 0 -17 7 -26 4 -6
10 -11 13 -12 3 -2 4 -3 2 -3 -1 -1 -1 -2 -1 -3 1 -2 1 -2 -1 -1 -1 1 -2 0 -2
-1 0 -1 -3 -4 -6 -8 -6 -5 -8 -6 -16 -6 -8 1 -9 2 -15 11 -11 16 -10 15 -27
15 l-16 -1 -8 -22 c-4 -12 -10 -27 -13 -34 -6 -13 -6 -24 1 -40 3 -7 15 -24
20 -29 2 -2 33 -45 41 -56 4 -7 10 -17 14 -23 4 -5 7 -11 7 -11 0 -3 23 -41
27 -45 6 -5 16 -9 25 -9 10 0 36 13 73 35 2 2 5 3 7 4 7 4 48 32 65 44 28 21
44 35 65 55 l19 18 0 13 c1 11 0 16 -4 25 -12 26 -1 38 25 29 10 -4 27 -3 36
2 3 2 8 6 10 10 3 5 5 8 6 9 1 1 4 6 8 12 4 6 11 16 14 22 14 21 39 72 53 107
16 38 17 42 15 53 -1 6 -3 11 -4 12 -1 0 -2 1 -2 3 0 1 -4 5 -8 9 -21 17 -20
17 -20 27 0 12 6 19 17 19 10 1 33 8 33 10 0 2 1 2 1 1 2 -2 10 9 14 19 4 11
15 72 18 99 1 6 3 23 5 40 2 19 3 32 2 38 -2 8 -2 10 -6 26 -6 25 0 32 29 35
l18 1 6 -6 c4 -4 6 -7 6 -7 -1 0 7 -21 9 -22 2 -1 12 -22 12 -26 0 -4 -10 -26
-12 -26 -1 0 -4 -5 -6 -12 -4 -10 -4 -15 -4 -37 1 -21 2 -25 5 -30 4 -6 5 -6
19 -5 l14 0 0 -12 0 -12 -14 0 c-14 1 -15 1 -19 -5 -4 -5 -4 -6 -4 -149 0
-171 1 -195 11 -244 2 -6 3 -12 3 -13 1 -1 1 -4 2 -7 8 -37 30 -75 57 -101 27
-24 78 -47 99 -44 16 2 24 8 44 32 15 18 18 20 25 23 10 4 13 0 15 -20 1 -22
6 -29 23 -39 6 -4 11 -4 54 -5 73 -1 88 3 110 26 25 28 34 35 46 39 28 8 36
12 45 17 5 3 10 8 10 9 1 2 2 4 3 5 5 3 33 69 37 87 0 2 3 11 5 19 3 13 12 57
15 75 0 3 1 9 2 13 1 8 2 14 6 54 4 33 3 41 -6 55 -8 10 -14 14 -43 23 -14 4
-27 9 -29 10 -2 1 -17 7 -32 13 -26 10 -67 29 -86 40 -12 6 -26 15 -26 17 -1
0 -7 1 -13 0 -11 0 -14 -1 -18 -6 -10 -9 -12 -17 -13 -69 -2 -80 -7 -129 -14
-137 -7 -7 -17 -7 -24 0 l-6 5 -1 48 c0 51 -1 57 -10 65 -6 5 -25 13 -32 12
-10 0 -15 8 -20 32 -6 30 -1 42 16 42 11 0 29 6 35 10 2 2 5 6 7 10 4 8 4 13
4 124 l-1 117 6 6 6 6 80 0 c80 0 91 0 91 3 0 1 1 2 3 2 4 0 14 12 18 21 3 7
3 26 3 169 0 173 0 171 -10 186 -2 3 -5 9 -7 14 -3 8 -3 9 0 18 2 5 5 11 7 14
10 15 10 16 10 150 0 110 0 126 -3 133 -4 9 -14 21 -18 21 -2 0 -3 1 -3 2 0 2
-1 2 -47 4 -40 1 -42 1 -45 6 -2 2 -5 4 -6 4 -2 0 -2 1 -1 1 4 2 42 80 91 184
5 10 12 25 15 33 4 8 8 17 10 20 1 2 2 11 2 19 0 12 -1 16 -6 24 -6 12 -17 23
-26 28 -3 1 -49 16 -101 32 -52 16 -104 32 -115 35 -22 7 -30 7 -44 0 -14 -7
-19 -19 -33 -68 -7 -22 -19 -62 -28 -88 -9 -26 -18 -54 -20 -62 -2 -8 -8 -23
-12 -33 -5 -10 -13 -29 -18 -43 -6 -14 -12 -29 -14 -33 -2 -5 -4 -9 -4 -10 0
-1 -4 -9 -8 -18 -4 -9 -8 -17 -8 -18 0 -3 -6 -7 -13 -10 -9 -4 -127 -4 -134
-1 -6 4 -12 10 -8 10 1 0 8 3 15 6 21 11 29 29 23 50 -5 15 -24 61 -31 73 -3
6 -8 15 -10 21 -8 17 -14 24 -31 32 -7 4 -13 8 -15 9 -8 7 -44 14 -49 9 -2 -1
-3 -1 -7 3 l-4 4 5 5 c2 2 5 3 6 3 3 -4 23 -5 32 -2 6 2 12 13 12 21 -1 13 -3
17 -29 58 -41 62 -47 70 -55 75 -17 10 -33 9 -48 -3 -10 -8 -15 -15 -22 -34
-6 -16 -9 -19 -17 -21 -23 -5 -44 -19 -51 -33 -4 -8 -14 -13 -27 -13 -9 0 -12
2 -24 9 -22 16 -36 18 -48 9 -12 -10 -16 -31 -8 -45 7 -11 12 -19 29 -51 10
-16 19 -32 22 -35 4 -4 15 -11 15 -9 0 1 2 0 4 -1 2 -1 10 -3 17 -4 10 -1 12
-2 15 -6 2 -5 2 -6 -5 -20 -4 -9 -8 -19 -8 -26 -1 -11 -1 -12 11 -37 17 -35
21 -39 51 -49 8 -2 16 -6 18 -8 10 -9 10 -35 0 -43 -15 -14 -39 -10 -49 8 -3
4 -5 8 -6 9 -1 1 -3 4 -5 7 -2 3 -6 7 -10 8 -4 2 -7 4 -7 5 0 2 -11 3 -39 3
-27 0 -29 0 -39 -6 -13 -6 -19 -13 -23 -28 -2 -6 -3 -27 -3 -73 0 -64 0 -65 5
-74 8 -17 19 -20 47 -15 20 4 30 -2 30 -18 0 -13 -8 -18 -26 -17 -30 1 -38 0
-46 -9 -10 -11 -10 -13 -10 -121 l0 -102 -5 -5 c-2 -3 -5 -7 -6 -9 0 -2 -1 -2
-1 1 0 2 -5 8 -11 13 -5 6 -16 15 -23 22 -7 7 -24 23 -38 36 -28 26 -38 36
-54 51 -14 13 -18 15 -28 15 -17 0 -24 -6 -44 -38 -9 -14 -23 -36 -38 -57 -4
-5 -11 -14 -16 -19 -5 -5 -8 -8 -6 -7 3 2 2 -14 -3 -22 -6 -13 -16 -15 -16 -3
0 3 0 6 1 6 1 0 2 2 2 4 0 2 1 4 2 4 2 0 9 13 8 16 0 1 1 2 2 1 2 -1 2 -1 2 1
-1 3 30 66 34 70 1 1 4 7 8 15 4 8 16 32 28 53 11 21 21 43 22 48 2 5 3 9 3
10 0 1 1 4 2 7 1 4 5 11 10 17 5 6 9 11 9 12 0 2 3 9 7 17 5 11 7 18 7 25 0
10 -6 22 -11 22 -2 0 -3 1 -3 2 0 1 -11 5 -28 10 -8 2 -13 10 -13 24 0 14 4
20 17 27 12 7 34 15 46 16 14 1 25 5 31 10 5 4 6 6 5 16 0 7 -2 14 -4 18 -3 4
-25 23 -68 57 -4 3 -8 6 -9 7 -1 1 -11 9 -22 18 -35 28 -43 31 -76 25 -26 -5
-40 -4 -45 1 -2 3 -4 5 -6 6 -2 0 -2 1 1 1 3 0 5 1 5 2 1 0 8 6 17 12 9 6 17
12 19 13 2 2 7 6 13 10 22 14 26 44 7 51 -7 3 -25 3 -32 -1 -11 -4 -17 -5 -26
-3 -11 2 -16 7 -18 18 -3 14 0 23 12 34 13 11 17 18 17 31 0 10 -1 12 -24 46
-13 19 -24 35 -25 35 -1 0 -2 1 -2 2 0 2 -10 19 -12 20 -1 0 -2 1 -2 2 0 2 -5
9 -11 17 -5 8 -12 16 -13 19 -7 11 -30 19 -42 15z m679 -110 c3 -5 3 -6 1 -11
-4 -7 -14 -7 -18 0 -2 5 -2 6 1 11 5 6 12 6 16 0z m494 -107 c11 -10 3 -28
-11 -28 -9 0 -16 6 -16 16 0 14 17 22 27 12z m-374 -51 c6 -4 6 -6 6 -20 0
-14 0 -16 -6 -20 -8 -7 -28 -7 -36 0 -6 4 -6 6 -6 20 0 14 0 16 6 20 8 7 28 7
36 0z m361 -33 c5 -6 5 -12 0 -18 -7 -8 -22 -2 -22 9 0 11 15 17 22 9z m-994
-78 c2 -3 4 -6 4 -8 0 -6 -7 -16 -11 -17 -3 -1 -5 -2 -5 -3 0 -1 -2 -2 -4 -3
-2 -1 -9 -6 -14 -12 -15 -14 -20 -17 -29 -17 -13 0 -22 15 -15 28 2 4 24 16
28 16 1 0 3 1 5 2 1 1 7 6 14 10 14 9 22 10 27 4z m1076 -18 c5 -5 6 -7 6 -17
0 -6 -1 -11 -2 -12 -1 -1 -2 -2 -1 -3 2 -3 -7 -10 -14 -10 -19 0 -29 8 -29 25
0 10 1 12 6 17 5 5 7 6 17 6 10 0 12 -1 17 -6z m-1385 -19 c4 -4 5 -7 5 -15 0
-14 -6 -20 -20 -20 -14 0 -20 6 -20 20 0 14 6 20 20 20 8 0 11 -1 15 -5z m141
-33 c5 -5 5 -15 0 -20 -9 -9 -24 -2 -24 10 0 8 6 14 14 14 3 0 8 -2 10 -4z
m846 -10 c5 -5 6 -7 6 -17 0 -10 -1 -12 -6 -17 -5 -5 -7 -6 -17 -6 -10 0 -12
1 -17 6 -5 5 -6 7 -6 17 0 10 1 12 6 17 5 5 7 6 17 6 10 0 12 -1 17 -6z m436
-14 c6 -3 8 -8 8 -20 0 -6 -1 -11 -4 -14 -7 -9 -27 -9 -34 0 -7 9 -4 30 5 37
3 2 19 0 25 -3z m-719 -34 c5 -5 6 -7 6 -16 0 -9 -1 -11 -7 -16 -5 -6 -7 -7
-16 -7 -9 0 -11 1 -16 7 -9 8 -9 23 -1 32 9 9 24 9 34 0z m-700 -24 c11 -10 3
-28 -12 -28 -9 0 -15 6 -15 16 0 14 17 22 27 12z m212 -1 c6 -4 6 -6 6 -20 0
-14 0 -16 -6 -20 -4 -4 -7 -5 -18 -5 -11 0 -14 1 -18 5 -6 4 -6 6 -6 20 0 14
0 16 6 20 4 4 7 5 18 5 11 0 14 -1 18 -5z m1051 -1 c5 -6 5 -12 0 -18 -7 -8
-22 -2 -22 9 0 11 15 17 22 9z m-479 -36 c6 -6 7 -19 1 -25 -7 -9 -39 -22 -54
-22 -8 0 -11 1 -14 5 -8 10 -3 21 14 28 5 3 11 6 14 8 15 10 32 13 39 6z
m-409 -37 c5 -5 9 -17 8 -26 -1 -8 -14 -14 -28 -13 -17 1 -26 25 -13 38 9 9
24 9 33 1z m984 -35 c4 -4 6 -17 2 -19 -2 0 -3 -4 -3 -13 1 -15 5 -26 14 -34
8 -7 12 -21 9 -33 -4 -15 -11 -19 -33 -20 -13 0 -14 0 -18 4 -9 12 -8 37 2 48
3 4 6 7 7 9 2 2 3 12 2 30 0 3 -1 7 -3 9 -8 8 -1 23 11 23 3 0 8 -2 10 -4z
m-165 -14 c4 -3 11 -9 17 -13 11 -10 26 -16 36 -15 5 1 8 0 13 -5 l6 -6 -1
-21 c0 -22 2 -34 9 -45 4 -6 18 -15 24 -15 3 -1 5 -2 5 -3 0 0 1 -1 2 0 1 0 3
-1 6 -4 4 -4 4 -7 4 -17 0 -17 -2 -23 -10 -28 -16 -8 -30 -18 -30 -21 0 -2 -1
-3 -3 -3 -2 0 -6 -3 -11 -7 -4 -5 -8 -8 -9 -8 -2 0 -8 -3 -23 -9 -5 -3 -13 -5
-19 -5 -10 0 -14 2 -38 13 l-10 5 -137 0 -137 0 -6 6 -6 6 0 78 0 78 6 6 6 6
114 -1 c128 0 125 0 143 15 20 16 22 17 33 17 7 0 12 -1 16 -4z m-466 -16 c11
-10 3 -28 -11 -28 -9 0 -16 6 -16 16 0 14 17 22 27 12z m-26 -114 c7 -3 12
-13 12 -25 0 -19 -9 -28 -28 -28 -19 0 -28 9 -28 28 0 17 6 24 22 28 5 1 14
-1 22 -3z m115 -44 c1 0 5 -3 8 -6 5 -5 6 -7 6 -18 0 -11 -1 -13 -6 -18 -6 -6
-7 -6 -18 -6 -11 0 -12 0 -18 6 -5 5 -6 7 -6 17 0 14 3 20 12 24 5 2 8 2 22 1z
m-335 -29 c6 -4 6 -6 6 -20 0 -14 0 -16 -6 -20 -5 -5 -7 -5 -19 -5 -20 1 -23
5 -23 25 0 14 0 16 6 20 4 4 7 5 18 5 11 0 14 -1 18 -5z m1042 -6 c6 -4 6 -6
6 -20 0 -14 0 -16 -6 -20 -4 -4 -7 -5 -18 -5 -11 0 -14 1 -18 5 -6 4 -6 6 -6
20 0 14 0 16 6 20 4 4 7 5 18 5 11 0 14 -1 18 -5z m-1424 -9 c10 -9 3 -26 -10
-26 -8 0 -15 7 -15 15 0 13 16 20 25 11z m252 -39 c16 -8 29 -11 40 -12 4 0
11 -2 15 -4 7 -2 8 -4 11 -14 7 -23 -4 -39 -26 -40 -17 -1 -21 3 -36 32 -8 16
-12 22 -15 22 -2 0 -5 3 -8 8 -4 7 -4 8 -1 11 5 5 3 5 20 -3z m936 -28 c5 -8
1 -16 -8 -16 -9 0 -13 8 -8 16 2 3 5 5 8 5 3 0 6 -2 8 -5z m-474 -8 c4 -4 5
-7 5 -15 0 -14 -6 -20 -20 -20 -14 0 -20 6 -20 20 0 14 6 20 20 20 8 0 11 -1
15 -5z m-772 -64 c8 -3 12 -7 16 -13 5 -7 5 -9 4 -20 -2 -21 -5 -24 -24 -28
-24 -5 -46 14 -46 39 0 26 21 35 50 22z m935 -1 c5 -5 5 -15 0 -20 -9 -9 -24
-2 -24 10 0 8 6 14 14 14 3 0 8 -2 10 -4z m-99 -14 c11 -10 3 -28 -11 -28 -9
0 -16 6 -16 16 0 14 17 22 27 12z m-779 -66 c4 -5 5 -11 1 -15 -11 -11 -28 4
-18 15 4 5 13 5 17 0z m86 -15 c12 -5 18 -21 14 -36 -4 -13 -14 -21 -29 -20
-17 1 -24 7 -27 24 -3 9 -2 12 1 19 7 13 25 19 41 13z m738 -5 c5 -5 5 -15 0
-20 -9 -9 -24 -2 -24 10 0 8 6 14 14 14 3 0 8 -2 10 -4z m-927 -4 c3 -2 5 -5
5 -7 0 -1 3 -9 7 -17 4 -8 8 -16 7 -17 -1 -3 4 -7 9 -7 7 0 11 -2 15 -9 4 -7
4 -7 1 -12 -5 -6 -7 -6 -15 -2 -7 5 -12 10 -12 14 0 4 -2 5 -14 6 -5 1 -12 2
-15 3 -3 1 -8 2 -12 2 -4 0 -9 2 -12 5 -6 4 -6 6 -6 20 0 14 0 16 6 20 7 7 28
7 36 1z m1208 -44 c6 -5 9 -18 10 -44 1 -18 1 -19 -3 -23 -5 -5 -5 -5 -13 -1
-13 6 -34 28 -36 37 -3 13 0 25 6 30 7 7 28 7 36 1z m-1239 -52 c5 -5 5 -11 0
-16 -10 -10 -27 5 -16 16 4 4 12 4 16 0z m842 -52 c4 -5 9 -8 10 -8 2 0 2 -1
0 -2 -6 -4 28 0 35 4 10 6 24 5 30 -1 7 -6 7 -20 1 -31 -3 -4 -5 -7 -6 -8 -1
-1 -6 -8 -13 -16 -13 -18 -15 -19 -28 -21 -13 -1 -23 -4 -42 -10 -16 -6 -18
-6 -23 0 -8 7 -4 15 12 23 5 3 9 5 10 5 3 1 12 6 12 7 0 0 1 3 1 5 0 2 1 7 3
12 4 12 -1 25 -7 19 -2 -2 -13 5 -15 9 -1 3 -3 5 -4 5 -3 0 -1 6 3 11 6 6 13
5 21 -3z m409 -23 c3 -5 3 -5 0 -10 -2 -3 -5 -5 -7 -5 -2 0 -5 2 -7 5 -3 5 -3
5 0 10 2 3 5 5 7 5 2 0 5 -2 7 -5z m-72 -19 c5 -5 6 -7 6 -16 0 -9 -1 -11 -7
-16 -5 -6 -7 -7 -16 -7 -6 0 -11 2 -15 4 -4 4 -5 5 -5 19 0 13 0 15 5 18 10 7
23 6 32 -2z m-966 -196 c15 -8 23 -18 23 -32 0 -10 -8 -15 -25 -15 -17 -1 -27
2 -34 10 -6 7 -7 25 -2 33 7 10 24 12 38 4z m1078 -13 c3 -5 3 -5 0 -10 -2 -3
-5 -5 -7 -5 -2 0 -5 2 -7 5 -3 5 -3 5 0 10 2 3 5 5 7 5 2 0 5 -2 7 -5z m-414
-39 c10 -9 3 -26 -10 -26 -8 0 -15 7 -15 15 0 13 16 20 25 11z m-752 -22 c8
-10 8 -15 1 -24 -6 -8 -9 -9 -22 -8 -19 1 -19 36 0 38 10 2 16 0 21 -6z m57
-27 c-4 -4 -5 -5 -8 -2 -2 1 -5 3 -7 4 -3 1 -3 2 3 6 l7 4 5 -4 4 -4 -4 -4z
m643 -14 c5 -6 4 -22 -1 -28 -7 -8 -23 -8 -31 0 -6 6 -7 22 -1 29 7 9 27 8 33
-1z m788 -12 c4 -4 5 -7 5 -13 0 -11 -7 -18 -18 -18 -11 0 -18 7 -18 18 0 11
7 18 18 18 6 0 9 -1 13 -5z m-115 -14 c7 -3 11 -13 11 -24 0 -19 -9 -28 -28
-28 -20 0 -28 9 -28 33 0 11 1 15 4 18 6 6 30 7 41 1z m-283 -12 c4 -4 5 -7 5
-13 0 -11 -7 -18 -18 -18 -11 0 -18 7 -18 18 0 11 7 18 18 18 6 0 9 -1 13 -5z"/>
</g>
</svg>
