<?xml version="1.0" standalone="no"?>
<!DOCTYPE svg PUBLIC "-//W3C//DTD SVG 20010904//EN"
 "http://www.w3.org/TR/2001/REC-SVG-20010904/DTD/svg10.dtd">
<svg version="1.0" xmlns="http://www.w3.org/2000/svg"
 width="1100.000000pt" height="2850.000000pt" viewBox="0 0 1100.000000 2850.000000"
 preserveAspectRatio="xMidYMid meet">
<metadata>
Created by potrace 1.15, written by Peter Selinger 2001-2017
</metadata>
<g transform="translate(0.000000,2850.000000) scale(0.500000,-0.500000)"
fill="#000000" stroke="none">
<path d="M524 3782 c-3 -1 -6 -1 -7 0 0 0 -1 0 -1 -2 0 -1 -1 -2 -3 -2 -4 0
-14 -12 -18 -21 -3 -7 -3 -29 -3 -200 l0 -193 5 -11 c6 -12 9 -15 31 -26 19
-9 39 -12 53 -6 27 10 46 0 46 -24 0 -25 -22 -35 -48 -22 -12 6 -30 9 -40 8
-7 -2 -23 -9 -31 -15 -3 -2 -8 -9 -11 -15 l-5 -11 0 -109 c0 -94 0 -110 3
-116 5 -12 13 -23 17 -23 5 0 16 -6 17 -10 1 -2 2 -4 3 -4 1 0 2 -2 2 -5 0 -6
-5 -12 -11 -13 -4 0 -19 9 -22 13 0 2 -3 3 -5 3 -2 0 -4 1 -4 2 0 1 -5 2 -12
2 -11 0 -13 -1 -24 -8 -6 -4 -17 -11 -25 -16 -8 -5 -16 -10 -19 -12 -3 -2 -6
-4 -8 -5 -2 0 -6 -3 -9 -5 -3 -2 -7 -5 -9 -5 -1 -1 -8 -5 -15 -9 -7 -5 -14 -8
-16 -8 -2 0 -3 -1 -3 -2 0 -2 -14 -9 -30 -14 -18 -5 -31 -14 -35 -23 -5 -13
-6 -22 -2 -30 2 -4 5 -14 8 -21 3 -7 8 -22 12 -33 4 -11 8 -23 9 -27 1 -4 5
-16 9 -27 4 -11 8 -22 8 -24 1 -2 6 -18 11 -35 13 -39 20 -49 42 -53 8 -1 27
3 35 8 10 7 19 25 20 43 2 19 10 27 29 27 12 -1 21 -5 23 -12 2 -3 4 -9 5 -13
7 -19 7 -21 2 -27 -6 -8 -12 -11 -33 -19 -10 -3 -23 -8 -29 -11 -6 -3 -24 -9
-39 -15 -15 -6 -31 -11 -35 -13 -4 -1 -20 -7 -36 -12 -30 -10 -40 -15 -51 -26
-12 -12 -17 -14 -36 -9 -20 5 -37 3 -37 -5 0 -2 -1 -3 -2 -3 -1 0 -3 -5 -4
-11 -2 -10 -2 -12 2 -22 2 -7 5 -13 7 -15 7 -8 33 -13 42 -7 7 5 24 4 32 0 20
-10 13 -51 -8 -51 -6 0 -29 -12 -32 -16 -8 -14 -8 -19 4 -63 14 -54 16 -57 24
-66 12 -12 25 -14 49 -7 40 10 73 15 83 10 l8 -3 -8 -5 c-4 -3 -12 -8 -18 -11
-5 -3 -11 -6 -12 -7 -1 -1 -15 -8 -30 -16 -15 -8 -31 -17 -34 -20 -5 -5 -12
-16 -10 -16 1 0 0 -2 -1 -4 -1 -2 -3 -12 -4 -22 -2 -24 -6 -28 -25 -28 -12 0
-19 3 -27 12 -2 3 -14 10 -14 9 0 -1 -1 0 -3 1 -4 3 -23 3 -30 -1 -4 -1 -18
-7 -33 -13 -15 -5 -29 -11 -32 -12 -6 -2 -13 -5 -14 -5 -7 -2 -31 -10 -36 -13
-11 -5 -14 -11 -14 -26 1 -14 2 -16 16 -27 13 -10 43 -36 70 -61 15 -13 30
-15 52 -6 12 5 29 5 35 -1 6 -6 6 -23 1 -35 -5 -11 -5 -31 -1 -40 4 -7 22 -24
29 -26 13 -6 26 -5 43 3 29 13 98 49 124 64 8 4 19 10 25 14 6 3 15 8 19 11 5
3 9 6 10 6 1 0 5 3 10 6 5 3 12 7 16 9 11 6 102 66 107 70 3 4 16 4 21 0 4 -3
21 -40 35 -75 10 -26 17 -40 20 -45 13 -16 18 -26 18 -38 0 -4 1 -12 2 -16 2
-4 3 -9 2 -10 -1 -3 8 -12 17 -17 10 -5 11 -5 59 -5 l49 0 22 7 21 6 24 -4
c22 -4 24 -4 47 0 27 4 35 7 40 16 4 8 4 29 0 35 -5 7 -5 24 0 32 3 8 12 12
24 12 18 0 26 -8 28 -26 1 -15 8 -28 17 -32 14 -5 22 -4 46 11 44 26 72 63 85
113 10 39 5 53 -26 67 -18 9 -22 12 -25 24 -5 18 4 33 23 37 8 2 26 12 30 18
8 11 9 17 9 77 l0 58 6 6 c3 3 9 6 13 8 5 1 15 5 24 9 19 9 25 9 48 1 20 -7
27 -7 67 -5 38 2 49 8 63 33 10 16 13 18 37 20 28 2 36 6 52 23 9 10 16 16 25
21 15 7 25 15 31 26 9 14 14 18 23 18 11 0 17 -6 17 -17 0 -9 -3 -13 -15 -22
-10 -7 -13 -10 -13 -13 0 -1 -1 -2 -2 -2 -1 -1 -6 -9 -10 -19 -9 -17 -9 -19
-8 -32 1 -11 2 -14 6 -18 3 -2 5 -4 6 -4 2 -1 15 -3 20 -4 8 -1 18 -7 24 -13
17 -18 28 -31 37 -43 18 -24 23 -27 40 -27 12 0 13 0 34 15 12 9 27 19 33 24
6 4 13 10 16 12 10 5 16 12 18 19 3 9 1 25 -4 34 -6 13 -6 29 2 36 3 3 7 6 9
6 19 1 25 -1 35 -12 7 -9 14 -12 28 -12 19 0 31 11 33 31 2 16 -3 23 -52 72
-60 60 -58 58 -73 62 -19 4 -26 9 -31 18 -2 4 -4 9 -4 10 0 0 -1 1 -1 2 0 0
-1 3 -1 6 -1 3 -2 7 -4 7 -2 2 -13 11 -25 21 -7 5 -46 37 -53 42 -3 3 -8 7
-11 9 -6 4 -59 44 -84 63 -34 25 -59 42 -66 44 -13 5 -33 1 -42 -7 -2 -2 -11
-8 -21 -15 -10 -7 -18 -12 -19 -13 -1 -1 -6 -5 -13 -9 -7 -4 -12 -8 -13 -9 -1
-1 -10 -7 -28 -20 -9 -5 -21 -16 -27 -23 -7 -7 -13 -14 -15 -16 -1 -1 -6 -6
-11 -10 l-9 -8 0 -15 c0 -15 1 -17 14 -25 15 -9 27 -23 30 -33 2 -7 2 -10 -2
-19 -6 -15 -12 -19 -25 -19 -13 0 -18 4 -26 19 -11 21 -24 30 -46 30 -14 0
-87 -3 -105 -4 -8 -1 -30 -1 -48 -2 -38 -1 -38 -1 -55 -9 -7 -3 -19 -15 -28
-28 -21 -27 -25 -29 -48 -28 -2 0 -6 3 -9 6 -5 5 -6 7 -6 18 0 18 3 20 43 38
6 3 15 9 21 16 18 19 21 20 39 14 14 -5 26 -6 37 -4 1 0 3 3 5 7 2 4 4 7 5 7
1 0 1 6 0 12 -1 14 -5 19 -26 30 -14 7 -17 11 -20 22 -5 20 6 36 27 37 11 1
27 -7 27 -13 0 -7 15 -33 24 -42 20 -19 41 -21 70 -6 21 10 31 19 37 31 12 27
13 28 35 25 10 -1 22 -2 26 -1 6 1 34 15 62 33 13 8 33 19 37 22 6 3 16 13 17
16 0 2 0 6 1 9 3 16 3 16 -72 92 -100 102 -93 94 -92 100 1 6 6 13 9 13 4 0
50 23 60 30 29 20 45 19 69 -2 4 -5 9 -8 9 -8 1 0 3 -1 5 -3 7 -7 114 -61 122
-61 1 0 3 -1 4 -2 3 -2 52 -22 82 -32 25 -9 72 -23 97 -30 38 -11 55 -6 70 22
12 21 18 34 19 44 0 6 1 16 2 22 1 13 5 18 19 25 20 11 27 17 44 39 9 13 17
23 18 24 1 1 7 8 14 17 7 9 17 20 22 26 8 9 9 10 8 21 0 14 -4 22 -10 27 -8 5
-39 14 -82 23 -43 9 -44 9 -71 -1 -21 -8 -28 -6 -37 7 -12 20 -21 27 -45 35
-9 3 -18 6 -20 7 -7 4 -31 3 -40 -2 l-9 -4 0 -15 c0 -15 1 -17 12 -29 6 -6 7
-9 6 -22 0 -11 -9 -19 -21 -19 -13 0 -19 5 -27 18 -3 5 -10 14 -15 19 -16 16
-18 20 -18 43 0 24 5 38 18 50 17 15 34 19 51 13 12 -5 20 -5 33 -2 8 2 11 5
24 21 26 31 38 46 46 59 3 5 6 9 7 10 2 2 23 34 31 48 15 24 49 87 49 90 0 1
1 4 3 7 4 9 17 37 17 39 0 0 2 5 5 11 5 9 8 19 10 26 1 8 7 24 17 47 9 21 10
24 8 32 -4 20 -14 29 -41 39 -8 3 -27 9 -43 15 -69 24 -74 26 -93 26 -17 0
-18 0 -25 -6 -4 -3 -9 -9 -10 -13 -3 -9 -4 -23 -2 -24 1 -1 2 -7 2 -13 0 -11
-1 -13 -6 -18 -6 -6 -7 -6 -18 -6 -11 0 -12 0 -18 6 -5 5 -6 7 -6 17 0 7 1 13
2 14 3 3 -3 27 -8 32 -3 3 -7 6 -11 7 -5 2 -727 2 -734 0 -2 0 -3 -1 -3 -2 0
-1 -1 -2 -3 -2 -6 0 -19 -19 -19 -28 0 -7 6 -18 11 -21 7 -5 26 -11 33 -11 11
0 25 -20 27 -41 1 -8 1 -10 -3 -14 -5 -5 -6 -5 -17 -4 -27 3 -41 -1 -48 -14
-6 -11 -7 -97 -2 -110 4 -9 14 -21 18 -21 2 0 3 -1 3 -2 0 -2 1 -2 55 -4 58
-1 59 -2 70 -21 19 -33 61 -101 65 -105 1 -1 8 -11 17 -24 10 -13 19 -25 22
-28 2 -3 5 -7 7 -9 2 -3 7 -9 12 -15 15 -17 15 -30 2 -57 -5 -10 -10 -19 -12
-21 -5 -6 -16 -10 -25 -10 -10 0 -13 1 -26 12 -16 13 -32 15 -52 8 -26 -10
-40 -14 -43 -14 -5 0 -19 -7 -24 -13 -8 -7 -11 -22 -8 -34 6 -25 -9 -39 -36
-35 -9 1 -12 3 -18 10 -4 4 -8 10 -8 12 0 2 0 3 -2 0 -2 -3 -2 -2 -2 1 0 1 -1
3 -2 3 -1 0 -2 1 -1 2 2 3 -7 5 -17 4 -4 -1 -7 0 -7 0 1 1 0 2 -1 3 -1 1 -2
-3 -2 -10 0 -7 1 -11 1 -11 1 2 9 -4 19 -14 6 -6 12 -23 15 -41 0 -4 0 -8 -1
-9 -2 -2 -2 -2 -2 0 0 1 -1 2 -2 1 -3 -2 -27 13 -44 28 -3 3 -5 5 -6 5 -1 0
-3 4 -6 8 -4 7 -5 13 -6 30 -2 33 -7 40 -36 56 -11 6 -12 7 -15 17 -6 19 1 34
20 42 24 11 31 25 31 58 0 33 -5 42 -29 59 -7 4 -14 10 -15 12 -4 7 -2 23 3
34 7 13 8 41 2 47 0 1 -1 7 -1 12 0 12 0 13 21 30 5 5 11 12 14 18 l5 11 0
105 c0 91 0 106 -3 112 -4 9 -14 21 -18 21 -2 0 -3 1 -3 2 0 2 -10 3 -52 3
-38 0 -42 0 -49 -4 -4 -3 -13 -7 -20 -11 -7 -3 -14 -6 -17 -6 -3 0 -10 3 -17
6 -7 4 -16 8 -20 11 -9 4 -46 7 -57 3z m588 -68 c6 -3 8 -9 9 -19 0 -13 -7
-19 -21 -19 -14 0 -20 6 -20 19 0 5 1 11 2 13 4 8 20 11 30 6z m90 -31 c3 -2
8 -6 11 -10 3 -4 9 -11 13 -15 13 -15 15 -24 5 -28 -7 -3 -55 1 -62 5 -8 4
-12 13 -12 27 0 10 1 12 6 17 3 3 8 6 11 6 3 1 6 2 7 2 3 1 16 -1 21 -4z
m-571 -26 c12 -7 14 -33 3 -43 -8 -9 -32 -9 -40 0 -9 8 -9 32 0 41 7 7 27 8
37 2z m739 -37 c5 -6 5 -12 0 -18 -7 -8 -22 -2 -22 9 0 11 15 17 22 9z m-652
-51 l-5 -5 -4 4 -5 5 4 4 5 5 4 -4 5 -5 -4 -4z m1028 -15 c5 -5 6 -7 6 -17 0
-16 -7 -23 -23 -23 -10 0 -12 1 -17 6 -5 5 -6 7 -6 17 0 16 7 23 23 23 10 0
12 -1 17 -6z m-669 -18 c11 -10 3 -28 -11 -28 -9 0 -16 6 -16 16 0 14 17 22
27 12z m221 -7 c2 -2 6 -7 9 -13 7 -10 12 -16 22 -22 8 -5 10 -5 55 -6 44 -1
47 -1 50 -5 2 -2 4 -5 6 -6 3 0 3 -1 0 -1 -4 0 -20 -18 -22 -26 -3 -10 -3 -32
-1 -37 4 -7 1 -18 -5 -23 -11 -12 -31 -7 -48 10 -5 5 -15 15 -23 21 -14 12
-40 36 -60 57 -17 18 -23 39 -12 49 6 6 21 7 29 2z m265 -16 c5 -8 1 -16 -8
-16 -9 0 -13 8 -8 16 2 3 5 5 8 5 3 0 6 -2 8 -5z m-892 -56 c6 -4 6 -6 6 -20
0 -14 0 -16 -6 -20 -4 -4 -7 -5 -18 -5 -11 0 -14 1 -18 5 -6 4 -6 6 -6 20 0
14 0 16 6 20 4 4 7 5 18 5 11 0 14 -1 18 -5z m827 -96 l-5 -5 -4 4 -5 5 4 4 5
5 4 -4 5 -5 -4 -4z m-354 -7 c4 -2 9 -14 6 -14 -1 0 -2 -2 -2 -4 0 -8 -15 -11
-22 -4 -12 12 3 30 18 22z m189 -9 c3 -4 3 -6 1 -11 -3 -8 -3 -28 0 -36 1 -3
6 -9 10 -14 9 -10 10 -17 4 -24 -7 -8 -52 -4 -78 7 -11 5 -16 6 -29 8 -10 2
-25 9 -27 14 -1 2 -5 6 -8 10 -11 11 -15 24 -10 31 6 9 11 8 25 -6 8 -8 14
-11 29 -13 17 -2 49 10 55 21 4 7 17 18 21 18 2 0 5 -2 7 -5z m107 -71 c5 -6
5 -12 0 -18 -7 -8 -22 -2 -22 9 0 11 15 17 22 9z m-81 -68 c7 -6 7 -19 1 -25
-6 -7 -19 -7 -25 -1 -7 6 -7 19 -1 25 6 7 19 7 25 1z m-644 -44 c4 -6 4 -24
-1 -30 -7 -9 -27 -9 -34 0 -5 6 -5 24 0 30 7 9 27 9 35 0z m-98 -18 c10 -9 3
-26 -10 -26 -8 0 -15 7 -15 15 0 13 16 20 25 11z m892 -21 c12 -7 14 -33 3
-43 -8 -9 -32 -9 -40 0 -9 8 -9 32 0 41 7 7 27 8 37 2z m-881 -72 c3 -3 4 -7
4 -14 0 -13 -6 -19 -19 -19 -13 0 -19 6 -19 19 0 7 1 11 4 14 7 8 23 8 30 0z
m493 -8 c6 -6 7 -22 1 -29 -4 -6 -18 -8 -26 -5 -7 3 -10 8 -10 20 0 13 6 19
20 19 8 0 11 -1 15 -5z m-82 -64 c3 -2 8 -6 13 -11 5 -5 13 -9 23 -13 20 -7
21 -9 4 -22 -5 -4 -10 -8 -11 -9 -1 -1 -9 -6 -20 -11 -17 -8 -35 -11 -93 -12
-32 -1 -54 -2 -55 -3 0 -1 -2 -2 -3 -2 -4 0 -5 -7 -5 -22 l1 -12 -9 0 -8 0 0
14 1 13 -10 5 c-8 4 -18 5 -35 6 -3 0 -8 2 -11 5 l-5 4 10 7 c6 4 11 7 12 8 1
1 8 6 16 12 8 5 19 13 24 17 9 7 16 11 21 11 5 0 13 -8 17 -17 8 -17 23 -27
40 -27 4 0 8 2 15 9 8 8 10 13 17 34 3 8 6 12 13 16 8 4 32 4 38 0z m-645
-116 c14 -9 33 -12 45 -9 13 3 34 3 38 0 6 -5 7 -9 4 -18 -7 -21 -31 -30 -51
-20 -13 7 -22 8 -57 5 -13 -1 -15 -1 -20 4 -8 6 -9 26 -3 36 7 13 25 13 44 2z
m537 -6 c13 -2 20 -10 20 -23 0 -9 -1 -11 -7 -17 -6 -6 -7 -6 -21 -6 -37 1
-53 12 -53 35 0 13 3 14 30 13 13 0 27 -1 31 -2z m-245 -22 l-5 -5 -4 4 -5 5
4 4 5 5 4 -4 5 -5 -4 -4z m121 -3 c4 -6 4 -24 -1 -30 -7 -9 -27 -9 -34 0 -5 6
-5 24 0 30 7 9 27 9 35 0z m326 -4 c7 -6 7 -19 1 -25 -6 -7 -19 -7 -25 -1 -7
6 -7 19 -1 25 6 7 19 7 25 1z m313 -153 c21 -9 20 -45 -2 -54 -10 -5 -28 -1
-34 6 -9 10 -9 32 0 42 7 8 24 11 36 6z m-573 -88 c3 -3 3 -3 0 -6 -4 -5 -11
1 -7 6 4 4 4 4 7 0z m873 -13 l5 -7 -3 -14 c-4 -16 -7 -19 -16 -21 -18 -4 -28
4 -28 21 0 13 3 17 17 23 14 5 19 5 25 -2z m-1039 -8 c6 -6 7 -17 2 -27 -5 -8
-20 -24 -28 -28 -20 -10 -37 7 -26 28 4 8 20 24 27 28 8 4 20 4 25 -1z m428
-17 c3 -5 3 -5 0 -10 -2 -3 -5 -5 -7 -5 -2 0 -5 2 -7 5 -3 5 -3 5 0 10 2 3 5
5 7 5 2 0 5 -2 7 -5z m362 -16 c5 -8 1 -16 -8 -16 -9 0 -13 8 -8 16 2 3 5 5 8
5 3 0 6 -2 8 -5z m-935 -4 c4 -4 4 -6 4 -14 -2 -11 -5 -15 -16 -16 -11 -2 -17
4 -17 16 0 17 18 26 29 14z m253 -18 c5 -8 1 -16 -8 -16 -9 0 -13 8 -8 16 2 3
5 5 8 5 3 0 6 -2 8 -5z m492 -6 c3 -3 3 -3 0 -6 -4 -5 -11 1 -7 6 4 4 4 4 7 0z
m-910 -24 c3 -3 3 -3 0 -6 -4 -5 -11 1 -7 6 4 4 4 4 7 0z m126 -19 c12 -11 13
-38 2 -47 -12 -11 -34 -11 -43 0 -9 10 -9 32 0 42 8 9 33 12 41 5z m353 -10
c6 -6 6 -7 6 -20 -1 -15 -6 -25 -15 -27 -3 -1 -10 -3 -15 -6 -5 -2 -15 -4 -21
-5 -12 0 -13 0 -19 6 -5 5 -6 7 -6 16 0 13 4 20 15 28 26 16 45 19 55 8z m263
-2 c14 -8 13 -40 -1 -48 -9 -5 -26 -3 -39 4 -11 6 -13 6 -26 5 -7 0 -16 -2
-19 -4 -8 -6 -23 -5 -30 3 -9 8 -9 24 0 32 7 8 22 9 30 3 3 -2 11 -4 19 -4 12
-1 14 -1 26 5 6 3 14 6 16 7 5 1 19 -1 24 -3z m-228 -70 l5 -5 -4 -5 c-5 -7
-7 -7 -11 0 -2 5 -2 6 1 10 4 5 4 5 9 0z m-183 -2 c2 -2 3 -7 3 -15 0 -15 4
-26 12 -32 6 -5 25 -5 74 -2 44 2 54 3 55 6 2 1 2 1 2 -1 0 -1 2 -4 5 -7 l5
-5 0 -75 -1 -75 -6 -6 c-5 -5 -8 -6 -20 -7 -23 -1 -35 -8 -48 -27 -12 -17 -13
-18 -26 -18 -11 0 -15 4 -27 23 -7 11 -15 17 -32 22 -14 4 -22 11 -20 17 3 6
1 49 -2 60 -3 10 -18 27 -32 35 -9 6 -51 24 -73 32 -3 1 -3 2 -1 3 2 1 2 2 1
2 -5 0 7 6 17 8 14 3 29 10 36 16 7 7 15 12 27 19 5 3 11 7 14 9 2 3 7 7 10
10 14 12 20 14 27 8z m-184 -28 c10 -13 13 -20 11 -23 -6 -10 -34 -11 -43 -2
-6 6 -6 21 0 28 8 9 24 8 32 -3z m92 -197 c-4 -6 -5 -6 -10 0 -4 4 -4 4 1 9
l4 4 4 -4 c5 -4 5 -5 1 -9z m411 -35 c16 -7 16 -43 -1 -50 -15 -6 -34 -2 -39
9 -4 8 -4 24 0 32 5 12 23 15 40 9z m-744 -42 c4 -6 4 -24 -1 -30 -6 -8 -26
-9 -34 -1 -5 5 -6 25 0 31 7 9 27 9 35 0z m482 -72 c11 -10 3 -28 -11 -28 -9
0 -16 6 -16 16 0 14 17 22 27 12z"/>
<path d="M269 3690 c-13 -6 -22 -21 -24 -39 -2 -13 -10 -20 -23 -20 -13 0 -21
7 -23 20 -1 10 -9 29 -11 29 -1 0 -2 1 -2 3 0 1 -3 2 -10 1 -18 -1 -19 -1 -25
-13 l-5 -11 0 -151 0 -151 5 -11 c3 -6 8 -13 11 -15 6 -4 22 -13 26 -13 8 -2
11 -9 11 -24 0 -15 -3 -22 -11 -24 -4 0 -20 -9 -26 -13 -3 -2 -8 -9 -11 -15
l-5 -11 0 -72 c0 -61 0 -73 3 -79 4 -9 14 -21 18 -21 2 0 3 -1 3 -2 0 -3 12
-3 120 -3 108 0 120 0 120 3 0 1 1 2 3 2 4 0 14 12 18 21 4 10 5 258 1 269 -3
9 -9 14 -18 15 -4 1 -10 2 -13 3 -5 1 -7 1 -8 -1 -2 -5 -18 -4 -23 2 -6 6 -6
19 1 25 5 5 20 6 22 1 1 -2 3 -2 8 -1 3 1 9 2 13 3 17 3 25 22 18 46 -3 8 -18
25 -22 25 -3 0 -16 10 -32 25 -7 7 -18 15 -23 19 -20 14 -19 44 3 53 12 5 36
-1 36 -10 0 -2 1 -3 2 -2 1 2 6 3 14 2 11 0 13 1 17 5 5 5 6 8 7 24 1 30 -5
42 -30 54 l-16 8 -8 17 c-7 15 -11 19 -18 24 l-9 6 -38 1 c-34 0 -39 0 -46 -4z"/>
<path d="M1457 2341 c-11 -4 -48 -27 -51 -33 -4 -7 -4 -25 0 -37 4 -10 4 -10
0 -14 l-5 -5 -8 5 c-4 2 -8 5 -7 6 1 1 -7 7 -13 8 -8 2 -25 3 -25 1 0 -1 -3
-3 -7 -5 -4 -2 -7 -5 -7 -5 0 -1 -1 -2 -3 -2 -1 0 -3 -1 -3 -2 -1 -1 -15 -11
-33 -22 -18 -12 -34 -23 -35 -25 -2 -2 -3 -9 -4 -17 0 -13 0 -13 7 -21 4 -4 8
-7 9 -7 1 0 5 -2 10 -5 7 -5 35 -21 49 -28 4 -2 13 -7 18 -10 6 -4 14 -9 20
-12 5 -3 12 -8 15 -9 3 -2 7 -5 9 -6 4 -2 31 -18 73 -45 16 -10 38 -21 48 -26
24 -9 26 -11 40 -25 13 -13 19 -18 27 -23 3 -2 6 -4 7 -5 1 -1 9 -7 20 -14 10
-7 26 -18 36 -26 29 -22 42 -22 70 -3 51 35 55 38 57 44 4 9 4 26 0 38 -3 8
-3 9 0 14 5 7 9 7 34 -5 10 -5 14 -5 25 -3 10 1 16 5 46 25 26 18 29 21 30 36
1 14 -3 22 -12 27 -3 2 -7 4 -8 5 -6 6 -15 11 -26 16 -11 6 -26 15 -44 29 -11
9 -23 17 -37 24 -5 3 -13 8 -18 11 -5 3 -10 6 -11 6 -1 0 -2 1 -2 2 0 1 -15 1
-24 -1 -2 -1 -10 -7 -17 -14 -12 -13 -13 -13 -22 -13 -17 0 -25 13 -17 29 11
23 1 49 -19 52 -15 2 -19 3 -26 6 -4 1 -7 2 -8 1 -1 0 -1 0 -1 1 2 7 -8 19
-21 26 -5 2 -19 10 -31 16 -43 23 -81 41 -88 42 -4 0 -11 -1 -17 -2z m162
-107 c2 -4 4 -9 4 -12 1 -5 2 -8 4 -17 1 -2 1 -3 -1 -2 -1 1 -2 0 -2 -1 0 -4
-7 -17 -13 -23 -3 -3 -5 -6 -5 -7 0 -4 -17 -22 -20 -22 -7 0 -10 7 -14 34 -6
42 -4 46 25 55 14 4 17 3 22 -5z"/>
</g>
</svg>
