<?xml version="1.0" standalone="no"?>
<!DOCTYPE svg PUBLIC "-//W3C//DTD SVG 20010904//EN"
 "http://www.w3.org/TR/2001/REC-SVG-20010904/DTD/svg10.dtd">
<svg version="1.0" xmlns="http://www.w3.org/2000/svg"
 width="1000.000000pt" height="2850.000000pt" viewBox="0 0 1000.000000 2850.000000"
 preserveAspectRatio="xMidYMid meet">
<metadata>
Created by potrace 1.15, written by Peter Selinger 2001-2017
</metadata>
<g transform="translate(0.000000,2850.000000) scale(0.500000,-0.500000)"
fill="#000000" stroke="none">
<path d="M376 3813 c-2 -1 -7 -3 -11 -3 -5 0 -18 -13 -22 -22 -2 -4 -5 -18 -6
-31 -2 -12 -4 -24 -4 -27 -1 -3 -2 -13 -4 -23 -8 -46 -15 -74 -20 -79 l-5 -5
-78 -1 c-81 -2 -82 -2 -82 -4 0 -1 -1 -2 -3 -2 -4 0 -14 -12 -18 -21 -4 -11
-5 -321 0 -331 4 -10 12 -15 24 -15 6 0 11 -1 11 -2 0 -1 1 0 3 3 1 3 6 6 13
9 12 4 12 4 16 0 7 -6 10 -15 11 -29 1 -12 1 -14 -3 -19 -6 -6 -16 -8 -28 -5
-13 3 -18 3 -28 1 -13 -3 -18 -13 -17 -32 1 -8 0 -22 -2 -30 -2 -9 -3 -19 -3
-24 0 -10 4 -25 6 -24 1 1 2 1 2 0 -2 -8 0 -9 15 -8 15 1 15 1 15 -4 0 -5 0
-5 -15 -4 -15 1 -17 0 -15 -8 0 -1 -1 -1 -2 0 -5 3 -6 -22 -6 -120 l1 -100 9
-20 c12 -24 13 -30 3 -50 -12 -23 -13 -27 -10 -38 2 -9 13 -23 18 -23 2 0 3
-1 3 -2 0 -2 10 -3 61 -3 48 0 50 0 58 4 8 5 17 12 21 18 7 10 11 11 48 9 47
-1 47 -1 35 -39 -4 -12 -7 -22 -6 -23 0 0 -1 -2 -3 -5 -2 -2 -4 -5 -4 -6 0 -4
-4 -10 -9 -16 -2 -2 -6 -8 -8 -13 -9 -14 -13 -18 -21 -18 -9 0 -11 3 -25 24
-6 10 -9 13 -18 17 l-11 5 -84 -1 c-88 -1 -90 -1 -90 -3 0 -1 -1 -2 -3 -2 -4
0 -14 -12 -18 -22 -3 -6 -3 -11 -2 -22 1 -7 1 -23 1 -35 -1 -40 -1 -104 0
-108 7 -22 26 -33 43 -24 3 1 9 7 13 11 4 5 10 11 12 14 5 6 24 13 24 10 0 -1
1 -2 3 -2 2 0 5 -2 8 -5 5 -4 5 -6 5 -23 -1 -19 2 -28 8 -36 7 -7 11 -8 57 -8
46 0 57 -1 70 -7 6 -3 13 -13 13 -20 0 -3 -9 -13 -12 -13 -3 0 -12 -13 -13
-19 -1 -3 -2 -13 -2 -21 0 -11 -1 -16 -3 -18 -5 -5 -22 -14 -24 -13 -1 1 -2 0
-2 -2 0 -2 -1 -3 -2 -3 -1 0 -2 -1 -2 -3 0 -1 -1 -3 -3 -4 -1 0 -5 -6 -9 -14
-9 -18 -16 -23 -31 -22 -8 0 -23 6 -23 9 0 1 -4 5 -9 8 -12 7 -31 9 -38 3 -3
-2 -10 -8 -17 -13 -14 -11 -18 -19 -24 -41 -6 -24 -8 -26 -52 -28 -16 -1 -22
-2 -28 -5 -9 -5 -10 -8 -10 -25 0 -11 0 -11 13 -25 6 -7 14 -15 16 -17 12 -13
34 -38 40 -45 4 -5 9 -11 11 -13 6 -5 27 -11 37 -11 28 0 39 -13 32 -40 -6
-22 -3 -42 7 -49 7 -4 26 -6 33 -3 9 5 32 26 62 56 l29 30 0 11 c0 14 -4 21
-15 32 -7 6 -8 7 -8 19 -1 16 1 21 14 28 13 7 29 20 29 24 0 6 14 19 20 19 11
0 12 -4 13 -32 0 -21 1 -29 5 -38 4 -11 4 -15 4 -100 0 -82 0 -89 4 -97 5 -13
11 -18 24 -18 10 -1 11 -1 16 5 3 3 7 9 9 13 4 9 12 15 16 13 1 0 3 0 4 0 0 1
3 2 6 2 2 0 11 1 19 2 15 1 23 0 21 -3 -1 -1 0 -2 1 -2 2 0 6 -7 10 -15 6 -12
8 -15 16 -18 10 -6 23 -6 44 -3 7 1 19 2 27 2 21 0 23 0 31 2 9 3 16 9 20 20
4 8 4 15 4 103 l0 95 -5 11 c-6 12 -10 15 -28 25 -15 7 -17 10 -17 23 0 10 3
16 9 23 6 6 8 12 10 29 1 7 1 11 -1 12 -4 2 -2 16 3 21 6 6 17 5 23 -1 5 -6 5
-14 -1 -26 -4 -6 -6 -14 -6 -23 -2 -13 -1 -14 6 -26 5 -7 10 -17 12 -21 2 -4
5 -9 6 -10 1 -2 8 -11 15 -21 7 -10 15 -21 17 -24 3 -2 6 -7 7 -10 4 -8 12
-13 25 -14 16 -1 19 1 37 25 9 11 17 21 19 23 1 2 7 9 13 17 32 42 39 49 43
49 4 0 2 -13 -5 -31 -3 -9 -6 -17 -6 -18 0 -4 -10 -22 -15 -28 -4 -3 -9 -10
-12 -16 -3 -5 -8 -13 -11 -17 -4 -6 -4 -9 -4 -19 1 -10 2 -12 8 -17 4 -3 10
-7 15 -8 11 -4 17 -9 26 -25 6 -11 12 -17 31 -32 17 -13 24 -18 40 -32 19 -15
33 -29 48 -43 9 -9 16 -11 29 -9 12 2 17 5 27 21 5 7 10 15 12 18 15 23 61
110 65 124 1 3 4 10 7 17 3 7 9 21 13 32 4 11 9 25 11 32 5 14 5 29 -2 44 -9
22 -9 24 14 42 17 13 23 25 29 55 0 3 4 19 8 37 4 18 7 35 8 39 0 4 2 14 4 22
1 8 3 20 4 26 1 10 2 14 4 24 1 3 1 9 2 13 0 4 2 19 4 32 10 70 9 77 -4 109
-9 22 -8 26 7 48 6 11 8 28 3 42 -5 14 -4 27 1 39 13 28 13 28 14 89 0 38 0
59 -2 64 -3 10 -13 16 -27 17 -9 1 -10 0 -16 -6 -20 -21 -32 -28 -45 -27 -5 0
-11 0 -13 0 -2 0 -7 2 -10 5 l-5 4 2 26 c3 45 5 47 34 47 30 0 59 9 71 22 16
17 14 54 -4 68 -2 2 -5 5 -6 6 -2 1 -7 4 -13 7 -12 7 -16 14 -17 27 0 19 9 29
28 29 13 0 22 -5 25 -13 11 -29 16 -37 28 -43 11 -5 17 -5 27 0 8 3 8 4 7 22
l0 11 9 0 9 0 0 -11 c0 -7 0 -14 0 -15 0 -4 9 -10 17 -11 2 -1 56 -1 119 -1
146 0 140 -1 141 27 0 5 1 11 2 11 1 1 0 2 -2 3 -2 0 -6 5 -9 10 -4 9 -4 9 -1
14 5 6 6 6 14 1 5 -3 8 -7 9 -12 2 -6 5 -9 9 -12 4 -3 8 -5 10 -7 1 -1 7 -6
14 -11 7 -5 12 -9 13 -10 1 -1 6 -4 12 -7 l11 -6 140 0 c138 0 151 0 151 3 0
1 1 2 3 2 8 0 21 22 21 36 0 23 -18 41 -44 43 -5 1 -13 6 -16 11 -2 5 -12 53
-12 62 0 10 6 16 17 16 7 0 10 -1 13 -5 2 -3 4 -4 4 -3 0 2 2 2 7 1 4 -1 11
-1 16 0 12 2 14 8 15 40 0 20 -1 28 -3 34 -4 9 -14 21 -18 21 -2 0 -3 1 -3 2
0 0 -2 2 -5 2 -6 1 -57 1 -92 0 -11 0 -54 1 -96 1 l-76 2 -7 6 c-3 3 -5 5 -4
5 1 0 5 6 9 13 4 6 11 17 14 23 4 5 9 16 12 24 7 20 15 33 26 45 5 5 9 11 9
12 0 2 1 3 2 3 1 1 6 10 12 21 6 11 15 28 20 39 9 16 11 20 10 29 0 21 -6 27
-49 55 -10 6 -25 16 -35 22 -9 6 -22 15 -28 19 -7 4 -13 7 -15 8 -2 0 -10 3
-17 6 -23 8 -28 8 -28 -6 0 -6 1 -9 7 -15 4 -4 7 -9 7 -11 0 -1 3 -7 8 -13 4
-6 9 -16 11 -21 3 -8 3 -9 0 -14 -5 -8 -15 -6 -32 8 -14 11 -34 10 -46 -3 -3
-3 -7 -9 -9 -14 -15 -32 -18 -32 -53 -21 -12 4 -26 7 -31 8 -13 2 -18 8 -18
21 0 9 1 13 10 26 5 9 11 19 13 23 2 4 4 7 5 7 3 0 -3 22 -7 28 -7 8 -16 12
-29 11 -13 -1 -34 -4 -56 -8 -20 -4 -20 -4 -29 -7 -7 -2 -10 -1 -20 2 -6 2
-13 5 -14 6 -1 1 -5 3 -9 4 -4 2 -10 5 -13 8 -6 4 -6 5 -3 8 2 2 5 3 7 3 8 -1
26 -6 29 -8 4 -3 19 -3 23 -1 12 9 15 14 18 25 2 10 2 12 -1 20 -3 7 -3 9 -1
14 2 6 2 7 -2 9 -3 1 -6 1 -11 -1 -4 -1 -12 -4 -19 -7 -15 -5 -37 -6 -47 0 -6
3 -7 4 -6 10 0 4 1 8 2 9 3 4 4 11 2 18 -4 9 -4 12 -4 12 3 0 -9 13 -15 17 -5
3 -26 10 -41 13 -3 0 -13 3 -23 6 -49 13 -52 13 -68 6 -12 -5 -20 -16 -27 -40
-7 -19 -21 -56 -32 -82 l-10 -24 0 -25 c0 -27 -1 -30 -18 -39 -5 -3 -12 -9
-16 -13 -7 -8 -8 -8 -31 -49 -20 -34 -55 -86 -78 -115 -10 -13 -19 -25 -20
-27 -2 -4 -2 -4 -7 3 l-5 7 -1 95 c-1 72 -2 96 -4 101 -3 7 -14 19 -17 19 -2
0 -3 1 -3 2 0 2 -1 2 -29 3 -27 2 -38 -1 -48 -10 -6 -6 -15 -25 -15 -33 0 -2
-6 -9 -13 -17 -7 -7 -16 -17 -18 -22 -3 -4 -7 -10 -9 -12 -2 -2 -4 -5 -4 -6 0
-1 -2 -4 -4 -6 -3 -2 -8 -12 -13 -21 -11 -21 -14 -24 -30 -24 -11 0 -14 1 -18
5 -6 4 -6 6 -6 20 l0 15 8 7 c4 4 9 7 10 7 1 0 4 2 7 4 2 1 9 7 15 12 14 11
30 34 32 45 3 13 -9 30 -25 35 -13 4 -46 1 -46 -4 0 -1 -1 -2 -3 -2 -1 0 -6
-4 -12 -9 -14 -13 -18 -15 -27 -15 -12 0 -17 7 -15 21 0 6 2 13 3 15 3 6 10
24 16 43 3 10 10 25 15 33 18 30 22 50 16 65 l-3 7 -14 0 c-13 -1 -15 -1 -19
-7 -5 -5 -9 -8 -17 -12 -4 -2 -12 3 -17 11 -15 22 -25 29 -53 32 -31 4 -43 -2
-53 -24 -8 -19 -5 -38 9 -59 8 -10 8 -25 1 -32 -6 -6 -22 -7 -29 -1 -5 3 -5 6
-6 25 -2 23 -6 35 -16 47 -1 2 -2 6 -2 10 -1 10 -8 33 -11 37 -8 8 -31 16 -35
12z m870 -103 c1 0 6 -3 11 -7 7 -7 8 -8 7 -12 -1 -4 -1 -5 0 -5 2 0 1 -2 -1
-4 -6 -7 -2 -20 7 -20 3 0 3 0 0 -2 -2 -1 -2 -2 0 -2 1 0 2 -1 1 -2 -2 -3 -6
-2 -10 1 -2 2 -3 2 -4 1 -1 -1 -2 -2 -3 -1 -4 2 -18 -9 -18 -14 0 -5 -10 -13
-16 -13 -8 0 -13 7 -16 20 -4 18 1 50 9 56 5 4 19 6 33 4z m-112 -111 c10 -5
11 -12 9 -46 -1 -17 0 -19 5 -32 10 -23 8 -42 -5 -48 -11 -6 -32 -4 -38 4 -9
11 -41 8 -50 -5 -4 -4 -21 -3 -26 3 -7 6 -7 22 0 28 6 6 22 7 26 2 3 -4 25 -5
33 -3 6 3 14 11 14 16 1 11 -1 22 -7 35 -12 27 -7 44 14 49 7 2 18 0 25 -3z
m-927 -33 c10 -9 3 -26 -10 -26 -8 0 -15 7 -15 15 0 13 16 20 25 11z m1114
-10 c11 -10 5 -22 -13 -29 -19 -7 -26 -11 -33 -18 -11 -9 -16 -11 -27 -12 -19
0 -29 9 -29 28 0 12 5 22 13 25 3 1 17 3 31 3 18 0 28 1 34 4 11 4 19 4 24 -1z
m-509 -83 c16 -7 20 -37 7 -48 -12 -11 -34 -11 -43 0 -9 10 -9 32 0 42 7 8 24
11 36 6z m522 -11 c1 0 5 -3 8 -6 5 -5 6 -7 6 -15 0 -11 5 -29 9 -36 2 -2 8
-7 14 -10 12 -6 22 -14 20 -15 -1 -1 -4 -5 -7 -11 -3 -5 -11 -20 -17 -32 -7
-12 -13 -22 -13 -23 0 -1 -5 -4 -10 -7 l-11 -5 -69 0 c-60 0 -70 0 -75 3 -17
9 -16 9 -12 9 2 0 3 1 2 1 -1 2 9 17 15 22 3 2 7 7 8 10 21 36 22 38 33 42 4
2 13 3 21 3 16 0 30 5 35 13 4 7 9 25 9 35 0 10 4 17 12 21 5 2 8 2 22 1z
m148 -44 c2 -3 4 -6 4 -8 0 -2 1 -5 1 -7 2 -11 -7 -33 -14 -33 -7 0 -16 22
-14 33 0 2 1 5 1 7 0 11 15 16 22 8z m-897 -12 c10 -2 20 -4 21 -3 1 0 9 -7 9
-10 0 -3 -8 -10 -9 -10 -1 1 -11 -1 -21 -3 -24 -5 -27 -5 -53 0 -19 4 -22 4
-31 2 l-9 -3 0 -16 c0 -12 -1 -17 -2 -17 -2 0 2 -2 7 -4 27 -10 28 -11 31 -26
3 -15 2 -21 -7 -26 -15 -8 -38 -4 -60 12 -35 26 -44 33 -61 50 -17 17 -33 40
-27 40 1 0 1 1 1 1 -1 1 0 3 3 6 4 4 4 4 71 3 60 0 69 0 84 4 22 5 30 5 53 0z
m567 -33 c6 -6 6 -22 -1 -29 -7 -6 -22 -6 -28 1 -7 6 -7 21 -1 28 7 8 21 8 30
0z m-920 -20 l-5 -5 -4 4 -5 5 4 4 5 5 4 -4 5 -5 -4 -4z m742 -9 c22 -3 28 -8
28 -25 0 -10 -1 -12 -6 -17 -6 -6 -7 -6 -21 -6 -23 1 -39 -3 -43 -11 -6 -9 -5
-20 3 -37 10 -19 10 -26 1 -56 -4 -13 -9 -30 -10 -38 -1 -10 -2 -95 -3 -238 0
-123 -1 -228 -2 -234 -1 -13 -2 -35 -4 -73 -1 -22 -1 -28 2 -38 5 -17 16 -27
37 -34 9 -3 18 -5 19 -5 2 0 5 -2 8 -5 7 -7 7 -23 0 -30 -6 -6 -19 -7 -31 -1
-16 7 -38 3 -42 -6 -1 -3 -2 -4 -2 -2 0 1 -3 2 -8 2 -4 0 -8 1 -8 2 0 1 -3 6
-8 10 -19 20 -25 34 -20 54 2 9 4 13 14 24 24 25 27 61 7 82 -3 3 -7 6 -8 6
-2 0 -3 1 -3 2 0 3 -12 3 -107 3 -90 0 -96 0 -104 -4 -9 -4 -12 -6 -19 -13 -3
-4 -6 -6 -7 -6 -2 0 -3 -1 -3 -2 -2 -4 -14 -4 -18 0 -5 5 -4 14 5 40 10 26 16
31 33 30 7 0 48 -1 90 -1 l78 -1 11 5 c20 9 34 28 43 57 4 14 -6 34 -26 51
-34 30 -52 65 -40 79 4 4 5 4 14 3 17 -3 30 -2 37 1 7 3 17 19 17 28 0 9 -5
23 -15 39 -13 22 -12 30 1 53 14 26 14 26 13 100 0 58 -1 67 -4 82 l-5 16 5 2
c2 1 5 4 7 7 1 3 3 5 4 5 6 0 15 31 12 40 -4 8 0 26 7 41 13 26 14 27 71 19z
m566 -23 c7 -3 10 -7 19 -25 4 -8 12 -18 17 -24 13 -14 15 -17 15 -30 0 -13
-4 -20 -11 -24 -6 -3 -26 -3 -30 -1 -5 3 -34 31 -42 40 -12 16 -15 46 -4 58 7
8 24 11 36 6z m-1204 -26 c3 -3 4 -7 4 -14 0 -13 -6 -19 -19 -19 -13 0 -19 6
-19 19 0 7 1 11 4 14 7 8 23 8 30 0z m269 -4 c12 -7 14 -33 3 -43 -5 -6 -18
-8 -28 -6 -11 2 -16 7 -18 17 -6 21 0 30 18 35 7 2 20 0 25 -3z m818 -1 c7 -6
7 -19 1 -25 -6 -7 -21 -7 -26 0 -5 6 -5 18 0 24 6 7 19 7 25 1z m-1001 -43 c8
-8 5 -29 -4 -29 -2 0 -2 -1 0 -1 1 -1 2 -5 2 -11 0 -6 1 -13 3 -17 5 -10 12
-11 104 -11 78 1 80 1 84 -3 5 -5 5 -7 0 -12 -4 -4 -6 -4 -25 -3 -35 1 -41 -3
-43 -25 -1 -7 -2 -12 -2 -13 0 0 1 -2 3 -5 10 -10 2 -27 -12 -27 -15 0 -42 21
-51 41 -2 4 -4 7 -5 7 -1 0 -2 1 -2 3 0 3 -7 10 -15 14 -14 7 -25 3 -44 -16
-10 -10 -16 -14 -27 -18 -17 -6 -18 -6 -20 0 -1 2 -3 4 -5 4 -3 0 -6 -7 -4
-11 0 0 1 -6 2 -11 1 -6 2 -11 2 -11 1 -2 6 -21 8 -30 2 -11 -2 -24 -8 -29 -8
-8 -25 -7 -33 1 -3 3 -6 8 -6 11 -1 3 -1 7 -1 11 -1 10 -7 27 -11 32 -10 9
-14 12 -30 18 -21 8 -27 15 -26 31 0 11 0 14 4 27 4 13 10 16 39 19 18 1 26 1
29 0 5 -2 19 -5 37 -8 5 0 9 1 12 3 2 2 6 4 8 4 4 0 9 12 9 24 0 6 1 10 3 11
1 0 1 1 -1 1 -9 0 -12 21 -4 29 7 8 23 8 30 0z m410 -1 c6 -5 6 -6 4 -8 -2 -1
-4 -2 -5 -2 -2 0 -3 -1 -3 -2 0 -4 -7 -2 -11 3 -3 5 -3 5 0 10 5 6 7 6 15 -1z
m531 -20 c13 -1 23 -20 19 -37 -4 -13 -14 -21 -29 -20 -16 1 -23 6 -27 21 -4
15 2 30 15 35 6 2 8 2 22 1z m-587 -72 c28 -29 32 -36 32 -50 0 -16 -7 -22
-26 -20 -8 1 -11 3 -23 19 -6 8 -13 17 -15 19 -2 2 -4 5 -4 7 0 2 -1 3 -2 3
-1 0 -2 5 -2 11 0 15 5 21 20 21 10 0 11 -1 20 -10z m290 4 c5 -6 5 -12 0 -18
-7 -8 -22 -2 -22 9 0 11 15 17 22 9z m213 -56 c6 -6 7 -19 2 -24 -5 -5 -22 -5
-27 -1 -6 5 -5 18 0 24 6 7 19 7 25 1z m-577 -4 c8 -8 2 -22 -9 -22 -3 0 -7 2
-9 4 -11 13 6 30 18 18z m-525 -7 c3 -5 3 -6 1 -11 -6 -10 -18 -7 -18 5 0 12
11 15 17 6z m277 -38 l-5 -5 -4 4 -5 5 4 4 5 5 4 -4 5 -5 -4 -4z m550 -68 c11
-5 20 -17 20 -27 0 -21 -29 -22 -38 0 -10 25 -4 35 18 27z m-787 -3 c11 -10 3
-28 -11 -28 -9 0 -16 6 -16 16 0 14 17 22 27 12z m403 -36 c3 -2 5 -4 5 -6 2
-14 8 -23 12 -16 3 4 18 -7 28 -21 2 -3 4 -4 5 -4 1 1 4 -4 7 -9 l5 -11 -5 -5
c-4 -4 -4 -4 -12 -1 -4 2 -8 6 -8 8 -1 2 -4 7 -8 10 -4 3 -8 8 -9 11 -1 2 -5
6 -9 8 -3 2 -5 4 -3 4 2 0 2 1 -1 3 -4 3 -24 2 -38 -1 -8 -2 -10 -2 -20 3 -7
3 -12 6 -13 7 -5 8 -55 13 -71 8 -14 -5 -24 -22 -23 -43 0 -12 -6 -19 -18 -19
-12 0 -18 7 -18 19 1 12 -5 29 -10 35 -7 7 -17 10 -32 10 -14 0 -23 -3 -32
-11 -6 -5 -20 -11 -25 -11 -8 0 -15 7 -15 15 0 8 7 15 15 15 3 0 7 0 9 1 4 1
20 3 28 4 4 0 9 1 10 2 2 1 55 2 118 3 106 1 115 1 119 -2 2 -2 6 -5 9 -6z
m421 -92 c2 0 7 -2 10 -5 l6 -5 -3 -12 c-3 -16 -9 -28 -15 -29 -7 -2 -26 4
-31 10 -5 7 -6 26 -1 33 5 6 13 9 22 8 5 0 10 0 12 0z m-390 -28 c4 -5 5 -8 5
-18 0 -11 -1 -13 -6 -18 -3 -3 -7 -6 -9 -6 -2 0 -7 0 -11 0 -4 0 -10 0 -12 0
-4 0 -14 9 -13 13 0 1 1 7 2 12 3 18 10 25 29 23 8 0 11 -1 15 -6z m425 -57
c10 -4 15 -12 15 -26 0 -19 -9 -28 -28 -28 -19 0 -28 9 -28 28 0 10 5 20 13
28 3 4 15 3 28 -2z m-492 -10 c0 -1 -1 -1 -3 -1 -1 0 -3 -1 -3 -2 -1 -2 -2 -2
-5 1 -3 3 -3 3 0 7 4 4 4 4 7 0 2 -2 4 -4 4 -5z m134 -139 c5 -5 6 -7 6 -17 0
-10 -1 -12 -6 -17 -5 -5 -7 -6 -17 -6 -10 0 -12 1 -17 6 -5 5 -6 7 -6 17 0 10
1 12 6 17 5 5 7 6 17 6 10 0 12 -1 17 -6z m-104 -34 c5 -5 5 -11 0 -16 -10
-10 -27 5 -16 16 4 4 12 4 16 0z m-79 -7 c5 -8 1 -16 -8 -16 -9 0 -13 8 -8 16
2 3 5 5 8 5 3 0 6 -2 8 -5z m-372 -11 c4 -6 4 -24 0 -30 -4 -4 -23 -11 -23 -8
0 1 -1 2 -3 2 -2 0 -5 2 -8 5 -6 6 -7 24 -1 31 7 9 27 9 35 0z m114 -31 c3 -3
3 -3 0 -6 -3 -3 -3 -3 -6 0 -3 2 -3 3 -1 6 4 4 4 4 7 0z m309 -64 c7 -3 11 -8
17 -22 3 -7 9 -20 13 -29 8 -16 9 -18 8 -32 0 -39 -9 -56 -27 -56 -14 0 -15 0
-21 6 -6 5 -7 13 -9 37 -1 10 -1 12 -4 20 -2 6 -5 11 -10 20 -15 25 -13 48 6
56 7 3 20 3 27 0z m520 -45 c5 -5 5 -11 0 -16 -10 -10 -27 5 -16 16 4 4 12 4
16 0z m-218 -11 c1 -6 2 -17 2 -26 0 -16 2 -28 8 -34 2 -2 4 -5 3 -5 -2 -2 13
-3 22 -2 3 1 10 2 15 4 15 4 22 2 27 -7 7 -14 4 -42 -6 -52 -4 -6 -17 -7 -22
-2 -1 2 -4 3 -5 3 -1 0 -5 7 -9 16 -10 21 -11 22 -26 22 -17 -1 -21 -4 -28
-20 -4 -10 -7 -15 -10 -17 -6 -2 -9 -1 -30 17 -12 10 -16 12 -22 12 -5 0 -11
1 -16 2 -4 1 -7 1 -8 0 -1 -2 -2 -1 -3 0 -1 2 -1 0 -1 -4 1 -6 0 -8 -5 -15 -8
-8 -14 -9 -19 -3 -3 6 -4 9 -1 13 1 1 5 5 8 10 3 4 6 7 6 6 0 -1 1 -1 2 0 1 1
1 5 0 10 -1 4 -2 11 -3 16 -1 4 -2 7 -4 7 -1 0 -3 1 -3 2 -1 0 -10 8 -21 17
-11 9 -20 17 -21 18 0 0 -2 1 -5 1 -3 0 -3 1 0 1 1 1 3 2 3 3 0 6 10 7 80 8
73 1 75 1 80 6 5 5 9 2 12 -7z m105 -16 c3 -5 3 -5 0 -10 -4 -6 -8 -6 -13 -2
-5 4 -5 6 0 12 4 6 8 6 13 0z m-476 -105 c5 -7 4 -24 -1 -31 -6 -6 -22 -15
-40 -22 -15 -5 -37 -16 -41 -20 -1 -2 -2 -6 -1 -16 1 -13 1 -14 12 -24 14 -13
17 -17 17 -30 0 -19 -9 -28 -28 -28 -18 0 -26 8 -28 28 -1 13 -4 23 -8 30 -1
3 -3 8 -4 10 -1 1 -3 3 -4 3 -1 0 -5 3 -8 7 -4 5 -5 9 -5 19 0 16 4 20 25 28
14 5 20 9 31 19 17 16 42 30 61 33 7 2 18 -2 22 -6z m252 -48 c5 -5 6 -7 6
-16 0 -9 -1 -11 -7 -16 -5 -6 -7 -7 -16 -7 -9 0 -11 1 -16 7 -9 8 -9 23 -1 32
9 9 24 9 34 0z m268 -3 c5 -8 1 -16 -8 -16 -9 0 -13 8 -8 16 2 3 5 5 8 5 3 0
6 -2 8 -5z m-844 -105 c11 -10 3 -28 -11 -28 -9 0 -16 6 -16 16 0 14 17 22 27
12z m680 -17 c7 -4 10 -11 10 -23 0 -19 -8 -27 -27 -27 -20 0 -27 8 -27 29 0
11 1 14 4 18 9 8 30 9 40 3z m-362 -102 c4 -4 5 -7 5 -13 0 -11 -7 -18 -18
-18 -11 0 -18 7 -18 18 0 11 7 18 18 18 6 0 9 -1 13 -5z"/>
<path d="M1534 3649 c-6 -1 -16 -1 -22 -2 l-10 -1 0 -18 c1 -15 0 -18 -2 -19
-2 0 0 -1 3 -1 3 0 8 -1 12 -3 7 -3 24 -2 32 1 3 1 7 2 10 2 3 0 5 1 5 2 0 0
3 2 6 3 6 3 6 3 6 18 0 10 -1 15 -2 15 -2 0 -7 1 -13 1 -5 0 -11 1 -12 1 -1 1
-7 1 -13 1z"/>
<path d="M1281 3019 c-5 -2 -9 -2 -10 -2 -1 2 -7 -6 -8 -10 0 -2 -1 -9 -1 -14
0 -11 0 -11 -6 -12 -6 0 -6 0 1 -1 11 0 15 -5 15 -17 0 -8 -7 -17 -13 -17 -8
0 -14 -2 -20 -4 -3 -2 -7 -3 -8 -3 -4 0 -15 -12 -17 -19 -3 -10 -3 -164 0
-174 3 -8 4 -10 11 -27 7 -16 7 -28 0 -44 -7 -17 -8 -19 -11 -27 -3 -10 -3
-123 1 -133 3 -11 11 -25 15 -26 2 -1 7 -5 11 -9 16 -15 16 -37 0 -52 -4 -4
-9 -8 -11 -9 -10 -3 -14 -33 -6 -40 6 -4 26 -13 32 -13 2 0 6 -2 9 -5 7 -7 7
-25 0 -32 -3 -3 -7 -5 -9 -5 -7 0 -28 -9 -34 -15 -9 -10 -10 -19 -10 -73 l1
-49 7 -14 c9 -20 10 -26 7 -41 -4 -16 -4 -28 0 -42 2 -6 4 -19 5 -30 3 -28 11
-42 35 -56 11 -7 17 -15 25 -38 7 -19 30 -34 70 -47 25 -8 40 -8 64 2 31 12
45 12 63 -4 3 -3 7 -5 8 -5 2 0 3 -1 3 -2 0 -5 23 -6 140 -5 99 0 122 1 134 4
8 1 18 3 21 4 19 4 49 17 68 30 17 12 25 21 32 36 9 17 13 23 26 36 10 11 18
25 27 51 6 17 6 17 5 42 l-1 24 11 23 c10 21 12 26 14 44 2 12 2 21 1 22 -1 1
-2 3 -1 4 1 0 0 1 0 0 -1 0 -3 0 -4 2 -2 2 -8 3 -18 3 -12 0 -15 -1 -19 -5
-11 -10 -30 -4 -30 10 0 12 -8 33 -15 40 -10 9 -27 16 -38 14 -14 -2 -31 -6
-34 -9 -4 -4 -17 -2 -28 3 -8 4 -12 5 -23 5 -15 -1 -22 -5 -27 -18 -3 -7 -3
-11 -6 -31 -6 -43 -12 -61 -23 -69 -10 -7 -27 -8 -122 -8 -98 1 -99 1 -108 13
-4 7 -7 25 -8 52 0 21 -1 23 -9 46 -9 23 -9 30 0 53 l8 19 0 67 c0 83 0 83
-27 87 -5 1 -10 2 -10 2 -1 1 -2 0 -2 -1 0 -3 -10 -5 -25 -4 -2 0 -6 3 -9 6
-5 5 -6 7 -6 18 0 11 1 13 6 18 3 3 7 6 9 6 15 1 25 -1 25 -4 0 -1 1 -2 2 -1
2 1 18 4 24 4 7 -1 14 -7 19 -17 3 -6 5 -8 5 -5 0 2 2 -1 3 -7 5 -19 19 -45
30 -55 10 -9 13 -23 10 -44 -6 -31 -4 -40 9 -53 11 -11 17 -13 48 -13 58 -1
104 6 143 20 19 7 31 15 43 29 10 12 17 19 35 32 5 3 11 10 14 15 6 9 16 31
18 39 0 3 2 11 4 19 5 21 1 34 -15 49 -11 11 -15 16 -19 28 -3 8 -3 8 1 9 1 1
4 3 6 5 1 2 3 4 5 4 5 0 21 17 25 27 4 8 4 14 4 45 0 43 -2 49 -18 71 -15 19
-14 34 0 59 17 28 17 24 18 107 0 49 -1 77 -2 83 l-2 8 -17 0 c-17 1 -18 1
-25 -5 -9 -9 -14 -9 -26 3 -15 15 -22 20 -31 22 -11 4 -22 2 -33 -3 -8 -4 -10
-8 -11 -21 0 -6 -1 -11 -2 -11 0 -1 1 -3 3 -5 4 -3 18 -34 18 -39 0 -3 19 -21
30 -28 16 -11 20 -19 12 -26 -5 -5 -6 -6 -25 -2 -9 2 -24 3 -33 4 -18 1 -26 4
-30 13 -3 7 -3 14 0 47 2 23 3 29 6 31 2 2 3 4 3 5 -1 0 -2 5 -2 11 -1 13 -3
17 -13 22 -7 4 -12 4 -78 4 -196 1 -300 1 -309 -1z m224 -45 c10 -9 3 -26 -10
-26 -8 0 -15 7 -15 15 0 13 16 20 25 11z m92 -144 c26 -11 33 -18 33 -30 0 -7
-5 -12 -18 -18 -32 -14 -39 -38 -25 -86 l5 -20 -5 -19 c-3 -12 -6 -27 -6 -37
-1 -17 -2 -18 -7 -24 l-7 -6 -34 0 c-36 1 -47 -1 -47 -8 0 -2 -1 -2 -2 1 0 2
-3 7 -5 11 -4 7 -4 12 -5 77 l-1 70 6 6 c6 6 7 6 29 6 19 0 22 1 27 4 11 8 17
27 13 41 -2 9 0 23 6 29 8 9 26 11 43 3z m-194 -4 c5 -3 11 -14 11 -21 0 -4
-2 -8 -5 -11 -10 -10 -42 -7 -50 5 -4 6 -4 22 1 27 6 8 27 8 43 0z m352 0 c7
-3 12 -13 12 -25 0 -19 -9 -28 -28 -28 -19 0 -28 9 -28 28 0 17 6 24 22 28 5
1 14 -1 22 -3z m-63 -121 c10 -5 13 -18 9 -41 -1 -10 -3 -19 -4 -20 -1 -1 1
-4 4 -7 4 -4 7 -5 17 -5 7 0 12 1 12 2 0 3 14 8 25 8 13 0 19 -5 24 -19 6 -21
5 -25 -15 -30 -25 -8 -55 -27 -62 -40 -4 -7 -7 -27 -6 -34 6 -19 0 -31 -17
-31 -13 0 -17 4 -20 21 -2 6 -3 13 -4 14 -2 9 -6 19 -9 26 -3 7 -4 13 -4 33 1
19 0 28 -3 36 -4 15 -4 26 2 49 7 25 11 35 16 37 10 6 24 6 35 1z m-401 -82
c4 -4 5 -7 5 -15 0 -13 -3 -16 -16 -16 -13 0 -20 6 -20 18 0 11 7 18 18 18 6
0 9 -1 13 -5z m43 -68 l-5 -5 -4 4 -5 5 4 4 5 5 4 -4 5 -5 -4 -4z m473 -320
c7 -1 20 -14 25 -23 6 -11 5 -27 -1 -33 -6 -7 -22 -7 -30 -2 -11 7 -17 49 -9
57 2 2 5 4 6 3 2 0 5 -1 9 -2z m-125 -121 c2 -3 4 -6 4 -8 0 -9 -9 -34 -18
-50 -6 -9 -14 -24 -19 -33 -6 -12 -10 -17 -15 -19 -21 -11 -33 -3 -27 17 2 8
6 13 19 26 19 20 20 22 28 44 3 10 7 20 9 23 5 5 15 5 19 0z m-207 -31 c4 -4
5 -7 5 -15 0 -14 -6 -20 -20 -20 -14 0 -20 6 -20 20 0 14 6 20 20 20 8 0 11
-1 15 -5z m115 -99 c4 -5 4 -6 2 -17 -3 -14 -9 -19 -21 -19 -7 0 -11 1 -14 5
-4 3 -5 7 -5 14 0 12 5 18 18 21 13 2 16 2 20 -4z"/>
</g>
</svg>
