<?xml version="1.0" standalone="no"?>
<!DOCTYPE svg PUBLIC "-//W3C//DTD SVG 20010904//EN"
 "http://www.w3.org/TR/2001/REC-SVG-20010904/DTD/svg10.dtd">
<svg version="1.0" xmlns="http://www.w3.org/2000/svg"
 width="1000.000000pt" height="2850.000000pt" viewBox="0 0 1000.000000 2850.000000"
 preserveAspectRatio="xMidYMid meet">
<metadata>
Created by potrace 1.15, written by Peter Selinger 2001-2017
</metadata>
<g transform="translate(0.000000,2850.000000) scale(0.500000,-0.500000)"
fill="#000000" stroke="none">
<path d="M420 3798 c-18 -3 -25 -11 -38 -43 -7 -19 -21 -52 -30 -73 -8 -18
-13 -27 -31 -64 -10 -20 -18 -38 -18 -40 -1 -5 3 -24 6 -26 9 -10 17 -22 17
-26 0 -9 -10 -16 -28 -20 -14 -3 -35 -14 -43 -21 -7 -7 -13 -15 -13 -17 0 -2
-12 -23 -18 -32 -1 -2 -3 -4 -3 -6 -1 -2 -5 -8 -9 -14 -3 -6 -9 -14 -11 -18
-23 -37 -55 -83 -65 -95 -9 -9 -14 -19 -20 -34 -7 -22 -10 -24 -38 -33 -15 -5
-23 -9 -32 -18 -14 -13 -13 -35 1 -48 7 -6 11 -20 12 -39 1 -24 5 -29 27 -31
14 -1 14 0 27 9 8 5 19 11 25 13 11 4 11 4 15 0 4 -4 5 -5 2 -12 -2 -5 -6 -12
-10 -16 -3 -4 -7 -9 -9 -11 -3 -5 -9 -8 -25 -15 -23 -10 -28 -23 -20 -52 8
-26 16 -36 35 -40 9 -2 12 -2 29 3 24 7 57 13 89 18 47 7 52 7 59 0 3 -3 5 -6
4 -8 -1 -5 11 -19 23 -25 16 -8 21 -8 26 -1 5 5 5 7 5 30 1 25 4 39 10 42 4 1
35 -11 40 -16 6 -5 8 -12 8 -38 0 -12 1 -29 2 -37 1 -15 1 -16 -4 -21 -4 -5
-6 -5 -25 -5 -23 0 -28 -1 -44 -11 -9 -7 -12 -8 -22 -8 -6 0 -13 1 -15 3 -5 2
-19 22 -19 26 0 1 -2 3 -4 5 -2 1 -3 3 -3 4 2 1 -13 5 -21 5 -10 0 -18 -6 -34
-25 -35 -43 -100 -112 -115 -123 -11 -8 -27 -18 -40 -25 -16 -8 -26 -18 -28
-27 -2 -11 -2 -19 -1 -21 4 -5 33 -84 44 -120 8 -24 15 -32 36 -39 8 -2 17 -5
19 -6 2 -1 7 -7 11 -15 11 -23 23 -27 53 -20 10 3 20 6 23 6 3 1 15 3 27 6 12
3 37 8 56 12 18 4 36 8 40 10 11 7 14 17 14 41 -1 19 -1 21 4 25 10 11 35 4
35 -9 0 -8 8 -28 14 -33 2 -3 8 -6 12 -7 9 -3 2 -4 137 19 42 7 77 13 78 13 4
0 13 -10 14 -17 5 -22 20 -37 38 -37 6 0 37 9 53 15 2 1 3 2 4 2 1 0 2 1 4 2
6 2 39 13 42 14 13 3 73 25 79 29 11 7 19 20 19 34 0 5 0 7 -4 21 -3 11 -2 17
3 19 4 2 48 -13 143 -50 28 -11 31 -11 45 -7 16 5 22 12 34 46 6 16 6 20 5 28
-2 11 -6 19 -12 24 -3 2 -7 7 -8 11 -4 6 -4 7 -1 11 2 2 11 8 19 12 24 10 27
17 37 84 2 12 5 29 6 38 3 20 0 40 -7 45 -1 1 -5 6 -9 12 -8 12 -9 18 -4 22 2
1 3 4 3 5 0 2 2 3 4 4 6 2 17 15 22 24 7 14 7 44 0 56 -7 13 -18 18 -38 16
-14 -1 -16 -1 -20 3 -9 9 -2 24 10 24 3 0 9 -2 13 -4 14 -8 41 -3 44 8 3 10 8
96 8 125 -1 9 -7 23 -14 31 -9 9 -15 11 -68 21 -17 4 -44 -1 -40 -7 1 -1 0 -2
-1 -2 -1 -1 -2 -2 -3 -4 0 -2 -1 -5 -2 -8 -2 -3 -2 -7 -1 -10 5 -12 -1 -22
-12 -22 -8 0 -14 6 -14 15 0 4 1 7 2 7 4 2 6 23 3 32 -2 10 -12 15 -34 19 -31
5 -47 -3 -55 -27 -1 -4 -2 -20 -3 -37 -1 -34 -2 -46 -6 -108 -2 -31 -9 -100
-12 -130 -1 -5 -2 -12 -2 -14 -1 -8 -4 -28 -4 -32 -2 -8 -3 -16 -4 -25 -1 -5
-2 -16 -4 -25 -5 -25 -4 -35 4 -43 7 -8 17 -14 29 -15 11 -2 16 -8 16 -18 0
-9 -6 -17 -12 -17 -4 0 -32 -9 -38 -12 -7 -3 -19 -17 -27 -30 -7 -12 -14 -16
-17 -12 -1 1 -9 21 -17 44 -14 41 -34 97 -39 108 -1 3 -6 17 -12 32 -6 15 -11
28 -12 29 -1 1 -3 7 -5 12 -9 26 -19 35 -38 35 -9 0 -10 -1 -18 -9 -4 -6 -15
-17 -23 -25 -8 -8 -17 -18 -19 -21 -8 -11 -16 -17 -22 -17 -13 0 -19 12 -12
25 4 7 2 27 -2 30 -2 1 -2 3 -2 3 2 3 -13 6 -19 5 -3 -1 -6 -2 -7 -2 -1 0 -7
-2 -14 -4 -20 -7 -53 -1 -63 12 -5 5 -5 7 0 13 3 4 5 4 28 5 42 1 57 9 75 37
3 5 7 10 8 12 2 1 3 3 3 4 0 1 1 3 3 4 4 5 23 34 26 41 4 8 8 14 11 16 1 0 5
6 9 12 7 11 7 13 6 23 -1 13 -3 16 -16 28 -9 9 -9 10 -9 21 0 20 13 27 37 18
9 -4 24 -3 31 1 5 3 10 12 12 25 1 5 2 11 3 12 1 6 6 12 17 19 13 9 20 17 28
31 23 41 25 46 19 59 -2 4 -4 8 -5 7 0 0 -3 1 -6 3 -3 1 -11 3 -19 3 -10 0
-20 2 -29 6 -8 3 -20 6 -27 6 -20 2 -24 2 -29 5 -12 4 -17 18 -14 37 3 17 1
33 -6 41 -3 4 -17 15 -32 24 -29 19 -36 21 -51 15 -10 -4 -13 -10 -42 -66 -30
-59 -31 -64 -27 -86 3 -17 3 -27 -1 -31 -2 -2 -13 -9 -24 -14 -11 -5 -22 -12
-24 -14 -4 -4 -18 -26 -28 -45 -1 -2 -6 -10 -11 -17 -5 -7 -13 -22 -18 -34
-10 -23 -14 -27 -31 -27 -12 0 -21 4 -28 14 -3 4 -12 12 -19 17 -16 11 -18 13
-28 32 -11 21 -20 25 -48 21 -15 -1 -16 -1 -21 3 -7 6 -7 18 0 24 3 3 6 4 22
4 18 0 24 1 38 4 12 4 21 3 26 -2 3 -3 5 -6 5 -7 0 -2 2 -7 4 -11 4 -9 11 -12
26 -12 l11 0 17 16 c13 13 22 25 38 49 33 50 46 71 57 88 5 9 10 18 12 20 6
11 12 20 15 26 2 3 10 17 17 30 22 36 31 55 34 66 2 5 5 14 8 18 3 4 5 9 5 10
0 1 1 4 2 5 1 3 1 4 0 5 -2 1 -2 2 0 3 1 1 -3 1 -9 0 -7 0 -13 -2 -15 -3 -2
-1 -5 -3 -8 -4 -3 0 -7 -3 -9 -6 -3 -6 -8 -10 -27 -23 -9 -7 -17 -8 -22 -2 -9
11 -3 21 19 32 7 4 15 9 17 11 11 11 18 20 18 23 0 2 3 5 6 7 6 3 7 3 14 0 4
-2 7 -4 7 -5 -2 -3 4 -8 10 -8 3 0 5 1 5 3 0 2 2 3 5 3 13 0 23 13 23 28 0 18
-9 30 -27 38 -5 2 -13 6 -16 7 -50 24 -61 26 -83 20 -21 -6 -26 -6 -31 -1 -3
3 -8 10 -11 17 -7 15 -16 24 -30 31 -14 7 -17 8 -28 6z m26 -210 c6 -3 9 -8
11 -21 3 -16 1 -27 -7 -34 -3 -3 -8 -10 -11 -14 -7 -12 -12 -15 -24 -15 -7 0
-10 1 -14 5 -5 5 -6 6 -4 24 1 22 7 46 13 52 6 6 26 8 36 3z m54 -71 l-4 -5
-6 5 -6 4 5 5 5 4 5 -4 5 -5 -4 -4z m152 -54 l-5 -5 -4 4 -5 5 4 4 5 5 4 -4 5
-5 -4 -4z m80 -104 c20 -9 20 -46 1 -53 -21 -8 -38 -1 -43 17 -2 10 0 23 6 30
7 8 24 11 36 6z m-531 -118 c3 -5 3 -5 0 -10 -2 -3 -5 -5 -7 -5 -2 0 -5 2 -7
5 -3 5 -3 5 0 10 2 3 5 5 7 5 2 0 5 -2 7 -5z m378 -8 c15 -12 21 -14 44 -14 8
1 17 0 19 -1 10 -5 28 -52 22 -59 -5 -6 -11 -3 -26 11 -6 4 -11 8 -12 8 0 0
-3 2 -6 4 -5 5 -28 9 -25 4 1 -2 1 -2 -1 -1 -1 1 -4 -1 -6 -3 -3 -3 -3 -5 -2
-6 2 0 2 -1 0 -2 -2 -1 -1 -4 1 -11 6 -18 -1 -41 -15 -50 -11 -7 -26 -7 -33 0
-11 10 -4 36 10 43 3 2 10 6 15 9 l8 6 0 12 c0 9 -1 13 -2 13 -2 0 -2 1 -1 1
1 1 -9 11 -11 11 -2 0 -6 14 -6 19 0 2 2 6 4 9 5 6 13 5 23 -3z m483 -90 l-5
-5 -4 4 -5 5 4 4 5 5 4 -4 5 -5 -4 -4z m-792 -23 c5 -5 5 -15 0 -20 -9 -9 -24
-2 -24 10 0 8 6 14 14 14 3 0 8 -2 10 -4z m91 -30 c5 -5 6 -7 6 -21 -1 -16 -4
-25 -11 -25 -6 0 -24 9 -30 15 -7 7 -7 23 1 31 9 9 24 9 34 0z m200 -174 c4
-3 10 -7 12 -10 5 -6 23 -10 37 -10 18 1 21 0 28 -5 10 -9 24 -41 24 -57 0
-15 -7 -22 -22 -22 -9 0 -14 1 -31 9 -15 7 -24 8 -49 4 -14 -2 -29 -4 -33 -4
-4 -1 -12 -2 -18 -3 -18 -3 -35 0 -35 7 0 1 6 9 12 14 1 2 2 4 2 5 0 1 1 2 2
2 3 1 4 28 1 48 -1 13 -1 14 4 19 5 5 8 6 26 5 4 0 11 1 15 2 12 3 16 2 25 -4z
m232 -136 c7 -6 7 -19 1 -25 -6 -7 -19 -7 -25 -1 -7 6 -7 19 -1 25 6 7 19 7
25 1z m258 0 c11 -10 3 -28 -11 -28 -9 0 -16 6 -16 16 0 14 17 22 27 12z
m-382 -49 c4 -4 5 -7 5 -13 0 -11 -7 -18 -18 -18 -11 0 -18 7 -18 18 0 11 7
18 18 18 6 0 9 -1 13 -5z m161 -39 c5 -5 5 -15 0 -20 -9 -9 -24 -2 -24 10 0 8
6 14 14 14 3 0 8 -2 10 -4z m-567 -9 c4 -4 5 -7 5 -13 0 -11 -7 -18 -18 -18
-11 0 -18 7 -18 18 0 11 7 18 18 18 6 0 9 -1 13 -5z"/>
<path d="M1056 3702 c-9 -3 -18 -8 -29 -18 -16 -14 -20 -13 -37 1 -12 11 -13
11 -25 11 -11 0 -13 0 -22 -9 -12 -11 -22 -25 -26 -38 -5 -15 -4 -197 0 -208
4 -9 14 -21 18 -21 2 0 3 -1 3 -2 0 -3 13 -3 143 -3 l132 0 6 -6 5 -7 -1 -33
c0 -19 -1 -65 -2 -103 -1 -38 -2 -77 -2 -87 0 -10 -1 -33 -2 -52 -1 -19 -2
-39 -2 -46 -1 -7 -1 -21 -2 -32 -1 -11 -3 -38 -4 -59 -5 -59 -5 -79 1 -90 2
-5 5 -9 6 -10 1 -1 4 -5 7 -11 10 -17 7 -34 -8 -50 -11 -12 -34 -71 -40 -100
-2 -10 -4 -22 -5 -26 -36 -151 -64 -226 -120 -328 -14 -26 -60 -92 -76 -110
-6 -7 -10 -26 -9 -46 l2 -19 -7 -6 -6 -7 -20 1 c-11 1 -21 2 -24 4 -5 3 -5 5
1 24 3 12 3 21 -2 27 -3 3 -6 4 -19 5 -19 1 -21 0 -28 -15 -3 -6 -5 -10 -6
-11 -2 -2 -2 -21 1 -24 1 -2 8 -6 14 -9 23 -10 22 -13 -29 -53 -27 -21 -27
-21 -28 -35 -1 -19 3 -24 30 -38 27 -14 28 -14 38 -31 10 -16 13 -21 32 -41 9
-9 16 -17 16 -18 0 -2 5 -3 16 -3 l17 0 11 12 c13 13 18 16 29 15 11 -1 17 -3
30 -15 6 -5 15 -12 20 -14 4 -3 10 -6 13 -7 7 -4 27 -4 37 1 12 5 79 74 83 86
4 11 2 24 -6 38 -10 18 -11 26 -3 50 9 30 14 36 35 42 20 6 30 14 35 29 6 16
14 25 24 25 18 0 44 10 52 21 4 5 19 34 28 54 1 3 5 11 8 17 3 6 5 12 5 12 0
1 3 8 6 15 23 50 61 170 77 242 0 2 4 18 8 36 9 40 10 52 2 64 -7 10 -13 12
-39 11 -23 0 -24 0 -29 5 -6 4 -6 6 -6 20 0 14 0 16 6 20 8 7 24 7 40 0 12 -5
23 -6 33 -3 11 4 20 24 23 51 1 7 2 14 2 16 3 26 10 76 12 100 l3 30 -7 22 -7
22 1 38 c0 40 1 44 11 56 8 10 14 26 15 42 0 8 1 20 2 28 0 8 1 29 2 47 1 18
2 41 2 50 1 24 4 129 4 143 0 11 1 12 6 17 6 6 7 6 28 6 21 0 22 0 28 -6 4 -3
6 -6 5 -6 -1 -1 -2 -31 -3 -68 -1 -61 -2 -80 -4 -150 -1 -31 2 -40 21 -58 12
-11 14 -14 14 -20 0 -7 -7 -20 -10 -20 -4 0 -19 -18 -24 -27 -6 -14 -8 -48 -3
-63 4 -12 3 -11 17 -26 13 -15 28 -49 28 -63 0 -4 -7 -10 -11 -10 -2 0 -7 -1
-11 -3 -4 -1 -7 -3 -8 -3 -6 -1 -14 -6 -17 -12 -8 -11 -6 -24 7 -48 9 -16 9
-26 0 -40 -3 -5 -9 -16 -13 -24 -6 -14 -7 -15 -8 -46 -1 -18 -2 -37 -2 -43 0
-6 -1 -20 -2 -32 -1 -12 -3 -39 -4 -61 -4 -49 -4 -64 0 -70 4 -8 13 -15 20
-16 5 -1 9 -2 10 -3 2 -1 3 -1 4 0 5 8 14 -2 20 -22 2 -6 5 -13 6 -15 2 -2 3
-5 3 -7 0 -7 9 -10 20 -9 11 0 22 4 22 7 0 1 1 2 3 2 1 0 4 1 5 3 7 8 24 0 24
-12 0 -12 -16 -20 -24 -12 -2 2 -8 3 -16 3 -13 1 -14 1 -26 -8 -21 -14 -32
-10 -35 12 -1 17 -6 39 -6 37 -1 -2 -6 -3 -16 -3 -8 0 -15 -1 -17 -3 -4 -3 -7
-15 -10 -38 -3 -22 -1 -33 6 -43 5 -7 23 -14 38 -15 15 -2 20 -7 20 -20 0 -16
-4 -19 -30 -20 -31 -1 -36 -3 -46 -24 -4 -9 -10 -25 -13 -36 -6 -22 -14 -43
-19 -51 -2 -3 -4 -7 -4 -8 0 -1 -6 -7 -14 -14 -18 -16 -29 -27 -39 -39 -4 -5
-9 -9 -11 -9 -2 0 -5 -1 -6 -3 -1 -2 -5 -3 -8 -3 -3 0 -7 1 -8 3 -1 2 -4 3 -6
3 -1 0 -6 2 -9 5 -12 9 -30 11 -37 5 -2 -2 -4 -4 -3 -4 0 0 0 -2 -1 -5 -1 -3
-1 -7 0 -11 1 -3 1 -9 0 -15 -2 -9 -1 -9 -26 -20 -21 -9 -25 -25 -17 -54 11
-39 19 -73 24 -108 4 -26 4 -27 9 -36 5 -10 9 -14 21 -19 10 -5 12 -5 64 -5
80 1 120 5 169 17 34 9 70 24 88 38 4 3 9 6 11 8 7 5 36 35 41 42 3 4 7 10 10
13 5 6 6 12 4 29 0 5 -18 26 -22 26 -5 0 -5 11 1 14 2 2 5 4 6 5 1 2 9 3 18 2
9 0 18 1 21 1 3 1 6 2 8 2 3 1 10 9 14 16 5 9 18 60 21 81 1 4 1 8 2 9 0 0 1
6 2 11 1 9 2 15 4 27 1 3 1 10 2 15 1 6 2 11 2 11 0 1 1 9 2 19 1 10 2 18 2
19 0 1 -2 4 -4 8 -6 12 -17 15 -46 13 -12 -1 -13 -1 -19 5 -7 7 -8 13 -2 49 5
30 8 35 20 35 4 0 12 -2 17 -4 11 -5 26 -5 34 1 8 5 13 18 15 35 2 22 -3 36
-14 48 -12 12 -16 19 -16 26 0 6 6 18 9 18 3 0 21 21 20 22 0 1 1 5 4 10 3 7
4 11 3 13 -1 2 -2 4 -1 6 2 2 3 5 4 16 0 4 1 11 2 15 1 6 2 21 4 73 1 9 1 26
2 38 2 43 3 64 4 91 1 27 2 58 4 100 0 13 1 41 2 62 1 21 2 44 2 50 3 35 -16
50 -61 48 -25 -1 -28 -3 -46 -22 -13 -13 -15 -14 -30 -18 -19 -5 -25 -8 -30
-13 -5 -5 -8 -25 -6 -33 3 -11 2 -25 -2 -30 -7 -9 -27 -9 -34 0 -5 5 -5 24 -1
28 4 4 3 39 -2 48 -5 10 -5 25 2 36 8 15 13 25 14 32 1 4 2 7 2 8 4 6 5 37 2
44 -1 1 -2 4 -2 6 0 2 -5 7 -11 12 -12 11 -14 16 -15 28 0 19 9 29 28 29 23 0
30 -11 26 -43 -1 -16 4 -33 14 -41 7 -7 26 -12 50 -14 7 0 17 -2 24 -4 7 -2
14 -2 16 -2 3 1 7 1 10 2 5 1 11 6 25 23 5 6 12 14 16 17 7 8 13 20 15 27 0 3
1 5 1 5 0 0 1 14 1 30 1 26 1 32 -3 46 -7 27 -7 35 0 59 7 20 7 23 8 55 0 19
1 37 1 41 0 8 -3 22 -8 30 -4 6 -16 18 -23 21 -8 4 -12 14 -13 25 0 15 4 21
18 30 18 12 23 19 24 32 0 7 -2 12 -5 17 -11 19 -13 24 -12 47 1 16 -10 29
-29 38 -9 4 -15 9 -23 18 -7 8 -14 13 -22 17 l-12 5 -151 0 c-171 -1 -157 0
-173 -17 -17 -18 -22 -22 -32 -26 -6 -2 -14 -7 -20 -11 -17 -13 -20 -15 -31
-15 -8 0 -10 1 -15 6 -6 6 -9 20 -6 22 1 1 1 3 0 5 -1 1 -3 7 -5 12 -6 17 -20
23 -47 22 -9 -1 -19 -2 -22 -4 -5 -2 -5 -3 -4 -17 0 -15 0 -15 -4 -15 -4 0 -4
-1 -1 -1 2 -1 6 -2 8 -2 7 -1 12 -12 12 -24 0 -19 -9 -28 -28 -28 -19 0 -28 9
-28 28 0 15 6 24 16 25 4 1 6 2 3 2 -4 0 -4 1 -4 15 1 11 0 15 -1 15 -2 0 -3
1 -3 2 0 5 -18 6 -103 6 -48 0 -90 -1 -93 -2z m59 -133 c12 -5 35 -19 42 -26
16 -14 12 -42 -7 -50 -6 -3 -19 -2 -27 1 -5 2 -30 27 -40 40 -8 9 -8 24 0 32
8 8 17 9 32 3z m199 -32 c5 -5 5 -5 2 -23 -2 -20 -8 -38 -13 -44 -5 -6 -19 -5
-25 1 -4 4 -4 6 -4 15 2 17 10 44 15 50 7 8 18 8 25 1z m159 -25 c5 -4 9 -20
7 -30 -3 -13 -7 -16 -25 -16 -18 0 -31 -4 -39 -12 -8 -9 -15 -12 -23 -12 -10
0 -17 7 -17 17 0 11 4 16 18 20 14 5 13 4 17 5 2 0 10 7 19 15 10 10 17 16 21
17 7 1 18 0 22 -4z m238 -82 c4 -6 3 -26 -2 -35 -8 -12 -29 -11 -34 2 -4 10
-4 28 1 33 7 9 27 9 35 0z m-290 -124 c10 -9 3 -26 -10 -26 -8 0 -15 7 -15 15
0 13 16 20 25 11z m376 -19 c5 -8 1 -16 -8 -16 -9 0 -13 8 -8 16 2 3 5 5 8 5
3 0 6 -2 8 -5z m-485 -63 c4 -5 4 -7 3 -27 -1 -26 -5 -36 -13 -37 -10 -1 -12
5 -12 34 0 21 1 26 4 30 4 5 13 5 18 0z m119 -58 c10 -9 3 -26 -10 -26 -8 0
-15 7 -15 15 0 13 16 20 25 11z m-56 -128 c7 -3 12 -13 12 -25 0 -19 -9 -28
-28 -28 -19 0 -28 9 -28 28 0 17 6 24 22 28 5 1 14 -1 22 -3z m452 -96 c11
-10 3 -28 -11 -28 -9 0 -16 6 -16 16 0 14 17 22 27 12z m-384 -27 c5 -8 1 -16
-8 -16 -9 0 -13 8 -8 16 2 3 5 5 8 5 3 0 6 -2 8 -5z m364 -60 c3 -3 3 -3 0 -6
-3 -3 -3 -3 -6 0 -3 2 -3 3 -1 6 4 4 4 4 7 0z m-1 -115 c5 -5 6 -7 6 -17 0
-10 -1 -12 -6 -17 -5 -5 -7 -6 -17 -6 -10 0 -12 1 -17 6 -5 5 -6 7 -6 17 0 10
1 12 6 17 5 5 7 6 17 6 10 0 12 -1 17 -6z m-177 -7 c3 -5 3 -5 0 -10 -2 -3 -5
-5 -7 -5 -2 0 -5 2 -7 5 -3 5 -3 5 0 10 2 3 5 5 7 5 2 0 5 -2 7 -5z m90 -106
c3 -3 3 -3 0 -6 -3 -3 -3 -3 -6 0 -3 2 -3 3 -1 6 4 4 4 4 7 0z m100 -40 c5 -8
1 -16 -8 -16 -9 0 -13 8 -8 16 2 3 5 5 8 5 3 0 6 -2 8 -5z m-104 -39 c7 -6 7
-19 1 -25 -6 -7 -19 -7 -25 -1 -7 6 -7 19 -1 25 6 7 19 7 25 1z m-356 -15 c8
-4 11 -10 12 -23 2 -12 -3 -18 -14 -18 -15 0 -25 27 -14 40 5 5 7 5 16 1z
m-90 -15 c28 -14 31 -18 31 -34 0 -7 -1 -14 -6 -24 -9 -18 -9 -19 -14 -33 -5
-16 -11 -22 -24 -22 -9 0 -11 1 -16 6 -8 8 -8 16 -1 40 3 11 5 21 5 24 0 6 -5
18 -9 23 -1 2 -4 8 -6 13 -3 10 -3 11 0 16 5 7 9 6 40 -9z m-61 -231 c21 -5
27 -11 29 -36 1 -7 1 -8 -5 -12 -7 -4 -24 -6 -34 -3 -15 4 -26 18 -29 36 -3
18 9 22 39 15z m474 -60 c20 -9 20 -45 0 -54 -6 -2 -20 -3 -25 -1 -2 1 -6 2
-9 3 -10 2 -14 8 -12 19 4 21 8 28 19 33 7 3 20 3 27 0z m-568 -13 c5 -5 5
-11 0 -16 -10 -10 -27 5 -16 16 4 4 12 4 16 0z m497 -46 l7 -6 -4 -12 c-5 -17
-11 -22 -25 -22 -10 0 -12 1 -17 6 -5 5 -6 7 -6 17 0 10 1 12 6 17 5 5 7 6 19
6 13 0 15 -1 20 -6z m-596 -57 c3 -5 3 -5 0 -10 -2 -3 -5 -5 -7 -5 -2 0 -5 2
-7 5 -3 5 -3 5 0 10 2 3 5 5 7 5 2 0 5 -2 7 -5z m414 -6 c6 -2 11 -5 13 -6 4
-3 10 -17 10 -23 0 -9 -12 -16 -28 -16 -22 0 -32 8 -32 24 0 15 2 17 12 22 6
3 10 6 10 6 0 1 1 1 3 -1 1 -1 7 -4 12 -6z m-310 -26 c3 -5 3 -5 0 -10 -2 -3
-5 -5 -7 -5 -2 0 -5 2 -7 5 -3 5 -3 5 0 10 2 3 5 5 7 5 2 0 5 -2 7 -5z m571
-21 c0 -1 2 -2 5 -2 3 0 5 -1 4 -2 -1 -1 -3 -2 -5 -2 -2 0 -4 -1 -4 -2 -1 -2
-2 -2 -5 0 -3 3 -3 4 -1 7 3 3 6 4 6 1z"/>
<path d="M728 2540 c-17 -7 -40 -15 -51 -19 -41 -15 -56 -21 -65 -25 -14 -7
-39 -12 -48 -9 -7 1 -11 1 -32 -5 -14 -3 -34 -8 -46 -11 -34 -9 -32 -7 -33
-27 0 -10 1 -17 2 -17 0 1 1 0 1 -1 0 -1 1 -2 2 -2 0 0 1 0 2 0 1 0 4 -1 7 -1
13 -2 19 -10 19 -26 0 -13 -4 -21 -16 -29 -22 -17 -43 -23 -55 -15 -5 3 -22 3
-29 -1 -8 -4 -11 -22 -8 -45 7 -45 17 -146 20 -194 1 -18 3 -36 3 -40 0 -4 1
-15 1 -24 1 -27 10 -42 30 -47 8 -2 11 -2 32 4 28 8 36 12 43 21 6 7 15 28 15
33 0 5 8 12 14 12 11 1 15 0 23 -7 24 -22 38 -26 58 -16 16 8 27 25 27 41 0 8
-7 22 -14 27 -5 5 -27 14 -31 13 -6 -1 -10 1 -15 6 -8 8 -8 23 0 40 7 15 11
34 9 43 0 3 0 9 1 13 2 8 4 11 15 23 3 3 7 11 9 17 4 11 5 19 1 43 -3 21 -3
27 0 35 1 5 3 7 3 6 0 -2 1 -4 2 -4 1 0 2 -1 2 -1 0 -1 0 -3 1 -5 8 -19 41
-127 58 -191 6 -22 18 -32 37 -33 9 0 46 13 61 23 6 3 11 11 12 19 1 2 1 6 2
9 1 4 0 11 -2 17 -4 13 -2 21 5 34 9 15 16 31 17 37 0 3 -1 12 -2 20 -2 8 -3
20 -3 27 0 11 1 13 6 18 3 3 7 6 9 6 4 0 5 0 13 3 4 2 8 2 9 2 0 -1 1 0 2 2 1
2 3 3 4 3 4 0 8 6 11 16 3 11 2 16 -8 39 -1 3 -3 7 -3 8 -1 3 -34 87 -38 96
-16 37 -22 45 -36 49 -13 3 -21 2 -53 -10z m-4 -148 c5 -5 5 -15 0 -20 -9 -9
-24 -2 -24 10 0 8 6 14 14 14 3 0 8 -2 10 -4z m-179 -80 c4 -1 9 -3 11 -6 10
-9 9 -34 -1 -42 -7 -5 -29 -9 -48 -7 -25 1 -31 6 -31 25 0 17 6 23 28 28 20 4
30 5 41 2z m-86 -193 c3 -5 3 -5 0 -10 -2 -3 -5 -5 -7 -5 -2 0 -5 2 -7 5 -3 5
-3 5 0 10 2 3 5 5 7 5 2 0 5 -2 7 -5z"/>
<path d="M161 2467 c-6 -2 -12 -5 -15 -9 -3 -3 -6 -5 -7 -5 0 1 -2 -3 -3 -8
-3 -9 -3 -11 -1 -18 4 -9 10 -16 16 -18 3 0 7 -2 10 -3 3 -1 10 -3 15 -3 16
-2 23 -9 23 -27 0 -19 -8 -27 -27 -27 -6 0 -13 1 -14 2 -3 2 -8 2 -17 0 -2 0
-6 -1 -8 -1 -5 0 -16 -13 -19 -21 -1 -5 -5 -23 -9 -41 -9 -40 -21 -91 -28
-113 -2 -9 -4 -17 -4 -17 0 -1 1 -4 2 -7 1 -9 4 -17 9 -22 6 -5 14 -19 14 -20
-1 -1 1 -6 3 -11 1 -5 3 -11 4 -14 0 -7 4 -12 8 -13 2 0 5 -3 6 -8 3 -6 3 -7
0 -10 -3 -4 -5 -4 -12 0 -3 1 -6 5 -6 7 -1 7 -5 10 -11 10 -3 0 -6 1 -7 2 -1
1 -6 2 -11 2 -15 0 -27 -9 -36 -28 -9 -17 -10 -28 -4 -41 6 -13 23 -21 57 -28
18 -3 102 -30 120 -38 8 -4 12 -4 19 -3 17 3 25 8 32 22 7 13 33 96 47 148 16
60 21 82 21 86 -1 19 -13 29 -41 33 -5 1 -12 3 -14 6 -10 8 -10 31 -1 43 3 4
5 5 18 5 8 0 15 -1 16 -3 4 -3 23 -3 32 1 10 4 14 13 20 42 3 15 5 23 8 25 2
3 4 5 4 6 0 1 1 3 1 4 1 3 3 15 4 22 1 5 3 12 4 16 l4 8 10 0 c11 -1 11 -1 15
7 5 10 6 25 2 27 -2 1 -2 2 -1 2 1 0 0 1 -2 3 -4 3 -5 3 -12 0 -4 -2 -7 -4 -7
-5 0 -1 -3 -1 -7 0 -5 1 -13 0 -18 -1 -10 -3 -12 -3 -16 0 -4 3 -45 12 -88 19
-13 2 -35 7 -49 10 -34 8 -38 8 -49 5z m87 -155 l-4 -5 -5 5 -5 5 4 5 5 4 4
-5 c5 -5 5 -5 1 -9z m17 -157 c4 -4 5 -7 5 -13 0 -11 -7 -18 -18 -18 -11 0
-18 7 -18 18 0 11 7 18 18 18 6 0 9 -1 13 -5z"/>
<path d="M991 1922 c-1 -2 -2 -8 -2 -14 l0 -12 16 0 c9 0 15 1 14 1 -4 2 -4
20 0 22 1 0 1 1 -1 1 -2 0 -4 1 -4 2 0 2 -21 2 -23 0z"/>
</g>
</svg>
