<?xml version="1.0" standalone="no"?>
<!DOCTYPE svg PUBLIC "-//W3C//DTD SVG 20010904//EN"
 "http://www.w3.org/TR/2001/REC-SVG-20010904/DTD/svg10.dtd">
<svg version="1.0" xmlns="http://www.w3.org/2000/svg"
 width="1000.000000pt" height="2850.000000pt" viewBox="0 0 1000.000000 2850.000000"
 preserveAspectRatio="xMidYMid meet">
<metadata>
Created by potrace 1.15, written by Peter Selinger 2001-2017
</metadata>
<g transform="translate(0.000000,2850.000000) scale(0.500000,-0.500000)"
fill="#000000" stroke="none">
<path d="M1457 3811 c-5 -2 -13 -4 -17 -4 -18 -3 -38 -17 -44 -30 -4 -7 -4
-14 -4 -69 0 -71 1 -76 15 -84 6 -3 23 -3 30 0 26 11 50 -8 43 -35 -5 -18 -24
-25 -43 -17 -8 3 -22 3 -31 -1 -11 -6 -13 -12 -13 -43 0 -45 7 -59 39 -75 9
-4 19 -10 22 -12 15 -9 14 -41 -1 -48 -6 -4 -29 -4 -51 -1 -6 0 -28 0 -48 0
-41 -2 -42 -2 -42 -4 0 -1 -1 -2 -3 -2 -4 0 -14 -12 -18 -21 -2 -6 -3 -15 -3
-40 l0 -33 8 -21 c11 -29 11 -47 -1 -60 l-4 -5 -16 6 c-20 6 -24 11 -24 28 0
7 1 13 3 14 3 4 3 28 -2 36 -6 13 -42 30 -66 31 -13 1 -16 1 -24 -4 -13 -6
-21 -14 -25 -22 -2 -5 -18 -56 -20 -67 0 -2 -6 -20 -12 -40 -9 -31 -12 -38
-17 -42 -7 -7 -10 -7 -17 -1 l-5 4 7 20 c4 11 9 23 10 26 2 4 3 7 3 8 0 2 11
32 14 40 4 10 39 114 46 138 2 8 5 16 6 18 4 9 32 105 43 147 4 15 9 34 11 42
7 27 10 43 11 57 1 8 3 17 5 21 5 12 4 13 -15 14 -19 0 -20 -1 -22 -9 -2 -10
-11 -27 -16 -32 -6 -7 -12 -9 -22 -9 -14 0 -16 3 -24 37 -7 30 -8 38 -5 40 4
2 0 37 -5 37 -1 0 -1 1 0 1 1 2 -14 11 -18 11 -2 0 -8 2 -14 5 -7 3 -20 9 -29
13 -42 19 -53 21 -66 15 -13 -7 -18 -15 -21 -32 -6 -36 -19 -112 -28 -152 -8
-41 -13 -62 -19 -88 -1 -4 -2 -10 -3 -12 -1 -7 -17 -70 -22 -88 -29 -109 -42
-149 -63 -204 -10 -25 -27 -59 -33 -66 -3 -3 -7 -8 -8 -11 l-4 -6 -5 7 -5 6
-1 64 c-1 35 -2 66 -3 69 -2 7 -10 12 -24 13 -6 1 -11 3 -11 4 0 1 -1 0 -2 -1
-4 -8 -23 -2 -32 9 -2 2 -8 6 -15 9 -12 6 -12 6 -51 6 -36 0 -40 0 -47 -4 -11
-6 -16 -11 -21 -22 -8 -16 -13 -22 -21 -22 -14 0 -19 14 -10 29 3 4 7 12 9 16
7 12 10 24 10 38 -1 11 -1 12 5 18 l6 6 77 -1 c70 0 78 0 84 3 9 5 12 11 11
24 0 9 1 11 3 11 2 0 2 1 -1 2 -7 3 -10 8 -10 18 0 8 1 11 6 16 3 3 7 6 8 6 6
0 27 12 31 18 9 12 10 18 10 74 0 44 -1 55 -3 61 -4 9 -14 21 -18 21 -2 0 -3
1 -3 2 0 3 -12 3 -103 3 l-92 0 -6 6 -6 6 1 66 c0 57 0 67 -3 74 -4 9 -14 21
-18 21 -2 0 -3 1 -3 2 0 2 -2 2 -70 3 -58 1 -66 1 -74 -2 -8 -3 -20 -10 -22
-14 -2 -2 -16 -9 -19 -9 -3 0 -13 6 -15 9 -1 1 -2 1 -2 -1 0 -1 -3 -2 -11 -2
-26 1 -27 0 -27 -62 0 -67 1 -68 25 -68 9 0 13 -1 13 -2 0 -2 1 0 2 3 3 9 12
14 25 14 13 0 22 -5 25 -13 1 -4 3 -10 5 -13 1 -3 4 -9 5 -12 1 -3 3 -8 3 -10
1 -5 5 -7 12 -7 3 1 9 0 14 -2 11 -4 35 3 45 13 15 14 27 17 36 8 6 -6 5 -15
-4 -44 -9 -29 -9 -30 -21 -37 -12 -7 -15 -9 -20 -17 -5 -7 -11 -26 -11 -34 0
-3 -2 -8 -6 -11 -5 -5 -7 -6 -17 -6 -10 0 -12 1 -17 6 -5 5 -6 7 -6 17 0 11 0
12 9 20 l9 9 0 16 c0 13 -1 17 -4 20 -2 2 -7 9 -12 16 -7 11 -9 14 -10 20 0 1
-6 2 -13 3 -28 2 -33 3 -39 6 -3 2 -7 5 -7 8 -1 4 -2 5 -4 3 -3 -3 -20 -3 -23
0 -1 2 -4 1 -10 -6 -4 -4 -8 -9 -8 -11 0 -3 -7 -10 -13 -12 -13 -5 -28 -1 -44
11 -19 15 -25 16 -85 15 -56 -1 -58 -1 -58 -3 0 -1 -1 -2 -3 -2 -4 0 -14 -12
-18 -21 -2 -6 -3 -15 -3 -47 0 -35 0 -40 4 -47 6 -12 19 -20 39 -22 12 -2 17
-8 17 -20 0 -12 -5 -18 -17 -20 -20 -2 -33 -10 -39 -22 -5 -10 -5 -18 -1 -28
4 -9 14 -21 18 -21 2 0 3 -1 3 -2 0 -3 12 -3 102 -3 l91 0 6 -6 c6 -6 6 -7 6
-24 0 -17 0 -18 -6 -24 l-6 -6 -79 0 c-79 0 -90 0 -90 -3 0 -1 -1 -2 -3 -2 -4
0 -14 -12 -18 -21 -3 -7 -3 -23 -3 -134 0 -116 0 -127 4 -133 3 -8 11 -11 25
-10 5 1 9 0 10 -1 0 -1 1 -1 1 1 0 5 13 12 20 12 13 0 19 -14 11 -30 -3 -5 -8
-15 -11 -23 -3 -8 -9 -19 -12 -26 -9 -16 -10 -26 -7 -51 1 -8 1 -10 -6 -16 -3
-5 -7 -8 -8 -8 -4 0 -17 -11 -21 -19 l-5 -8 -1 -148 c0 -132 0 -149 3 -156 4
-9 14 -21 18 -21 2 0 3 -1 3 -2 0 -3 11 -3 90 -3 l79 0 6 -6 c6 -6 6 -7 6 -25
0 -18 0 -19 -6 -25 l-6 -6 -101 0 c-101 0 -112 -1 -112 -3 0 -1 -1 -2 -3 -2
-4 0 -14 -12 -18 -21 -5 -11 -5 -197 0 -208 4 -9 14 -21 18 -21 2 0 3 -1 3 -2
0 -3 12 -3 112 -3 l101 0 6 -6 6 -6 0 -102 c0 -56 1 -105 2 -108 1 -6 9 -17 9
-14 0 1 6 2 12 2 l13 -1 0 -7 0 -7 -13 -1 c-6 0 -12 1 -12 2 0 3 -8 -9 -9 -13
0 -2 -1 -4 -1 -5 -1 -1 -1 -5 1 -10 1 -5 2 -9 2 -9 -1 0 2 -4 6 -8 4 -4 9 -8
10 -8 2 0 3 -1 3 -2 0 -3 12 -3 108 -3 96 0 108 0 108 3 0 1 1 2 3 2 4 0 14
12 18 21 3 7 3 23 3 138 l-1 130 6 5 6 6 85 1 c88 1 90 1 90 3 0 1 1 2 3 2 8
0 21 22 21 36 0 12 2 20 6 21 2 1 4 3 5 6 0 3 1 2 1 -2 0 -4 1 -12 3 -18 2 -7
4 -14 4 -17 10 -46 17 -58 39 -61 8 -1 11 0 21 5 7 3 19 8 27 12 16 7 26 13
37 23 6 6 20 9 38 9 14 0 22 1 35 5 26 8 138 39 150 42 2 0 13 3 23 6 l20 5 5
-6 c4 -4 6 -9 7 -18 3 -25 12 -38 30 -42 10 -2 12 -2 30 5 21 8 22 8 28 4 3
-2 4 -6 5 -15 l0 -12 -9 -8 c-24 -22 -26 -26 -42 -55 -30 -55 -28 -50 -26 -61
2 -13 6 -20 24 -34 24 -19 41 -35 60 -54 22 -23 26 -27 38 -41 5 -7 10 -12 11
-13 1 -1 5 -6 9 -11 12 -17 15 -19 31 -19 13 0 15 1 20 6 8 8 28 42 49 80 4 8
8 16 10 18 2 3 0 21 -4 27 -4 6 -20 17 -25 17 -12 0 -17 24 -7 33 5 6 20 7 27
2 3 -2 9 -3 14 -4 12 -1 17 -5 23 -16 7 -12 14 -41 22 -90 1 -10 5 -23 7 -29
4 -8 6 -10 12 -11 11 -2 24 -1 27 3 6 7 18 14 25 14 7 0 20 -7 29 -17 2 -2 8
-5 14 -7 14 -5 27 -5 63 2 27 5 40 11 47 18 7 8 14 27 15 40 1 19 14 26 36 21
19 -5 37 1 48 16 25 34 43 85 51 150 1 6 2 12 2 14 0 2 2 11 3 20 6 42 16 171
15 183 -1 3 -2 6 -3 6 -1 0 -2 1 -1 2 1 2 -12 14 -16 14 -18 1 -18 1 -28 -9
-23 -25 -24 -25 -30 -25 -8 0 -15 6 -15 13 0 5 1 7 11 29 12 27 14 33 13 54
-2 21 -7 42 -19 68 -7 13 -7 16 -7 27 2 16 7 21 25 21 17 0 22 -4 25 -20 4
-22 13 -57 14 -54 1 3 24 3 24 0 0 -2 1 -2 1 0 1 1 3 2 5 2 3 0 7 8 9 17 0 2
1 21 2 41 1 20 2 45 2 54 2 46 5 126 6 182 1 23 2 54 2 70 4 125 4 129 0 138
-3 5 -7 11 -9 13 -6 6 -26 13 -35 13 -4 0 -9 2 -12 5 -6 4 -6 6 -6 20 0 15 0
16 6 20 3 2 9 7 13 11 3 3 7 6 8 6 1 0 2 3 4 8 1 4 3 11 4 15 2 4 3 10 2 12 0
6 4 13 15 24 7 8 17 25 17 30 0 5 -6 21 -11 28 -2 4 -6 11 -7 16 -3 10 -4 7
13 38 3 6 5 12 5 14 1 2 2 5 2 6 1 1 1 18 1 38 0 33 0 37 -4 44 -11 20 -20 23
-67 23 -41 0 -47 -1 -71 -16 -12 -7 -16 -9 -25 -9 -9 0 -13 2 -25 9 -21 13
-31 16 -55 16 -20 0 -21 0 -27 6 -4 3 -6 6 -6 6 0 1 1 24 1 53 0 67 0 69 -27
76 -8 2 -13 2 -16 1 -7 -3 -21 0 -26 5 -10 9 -10 33 0 42 5 5 19 8 26 5 6 -2
27 2 33 7 11 10 12 11 12 101 0 92 0 95 -13 108 -11 11 -17 12 -99 12 -57 0
-75 -1 -83 -3z m-1003 -69 c5 -5 6 -7 6 -17 0 -10 -1 -12 -6 -17 -5 -5 -7 -6
-17 -6 -10 0 -12 1 -17 6 -5 5 -6 7 -6 17 0 10 1 12 6 17 5 5 7 6 17 6 10 0
12 -1 17 -6z m603 -35 c4 -4 5 -7 5 -21 0 -10 1 -27 1 -39 2 -31 -3 -37 -32
-35 -2 0 -6 3 -9 6 -7 6 -8 17 -4 38 2 10 4 34 4 43 0 7 9 13 20 13 8 0 11 -1
15 -5z m-496 -180 c6 -4 6 -6 6 -20 0 -14 0 -16 -6 -20 -4 -4 -7 -5 -18 -5
-11 0 -14 1 -18 5 -6 4 -6 6 -6 20 0 14 0 16 6 20 4 4 7 5 18 5 11 0 14 -1 18
-5z m1005 -66 c16 -7 20 -37 7 -48 -12 -11 -34 -11 -43 0 -9 10 -9 32 0 42 7
8 24 11 36 6z m-540 -20 c2 -2 5 -6 7 -10 2 -3 5 -7 6 -8 1 -2 4 -6 7 -11 4
-7 8 -10 14 -11 4 -1 18 -9 22 -12 7 -7 5 -18 -9 -40 -2 -3 -6 -13 -10 -23 -7
-22 -12 -27 -27 -27 -5 0 -12 2 -15 4 -8 5 -18 18 -22 31 -3 10 -3 10 1 15 3
3 7 5 10 5 10 0 12 4 12 21 0 18 -2 20 -15 23 -14 2 -19 9 -19 23 0 10 1 12 6
17 5 5 7 6 16 6 7 0 13 -1 16 -3z m-618 -45 c5 -5 5 -15 0 -20 -9 -9 -24 -2
-24 10 0 8 6 14 14 14 3 0 8 -2 10 -4z m1261 -81 c6 -4 6 -6 6 -20 0 -15 0
-16 -6 -20 -5 -5 -7 -5 -22 -4 -9 1 -19 2 -23 2 -8 0 -27 -4 -33 -8 -10 -6
-30 -5 -37 3 -9 8 -9 32 0 40 6 7 19 9 32 5 14 -4 34 -3 45 3 12 6 31 5 38 -1z
m-254 -1 c7 -3 12 -13 12 -26 0 -9 -1 -12 -12 -27 -6 -9 -11 -17 -11 -18 0 -3
-10 -23 -13 -26 -4 -4 -13 -3 -17 1 -4 4 -4 6 -3 17 2 12 2 29 1 52 -1 18 4
26 21 30 5 1 14 -1 22 -3z m-88 -130 c11 -5 12 -7 14 -22 1 -10 1 -12 -4 -16
-4 -4 -5 -4 -17 -2 -16 2 -20 6 -20 22 0 14 5 24 13 23 3 0 9 -3 14 -5z m393
-3 c6 -6 6 -22 0 -28 -7 -7 -25 -9 -31 -3 -4 4 -4 6 -4 16 1 8 2 12 5 15 7 8
23 8 30 0z m-1460 -7 c5 -6 5 -12 0 -18 -7 -8 -22 -2 -22 9 0 11 15 17 22 9z
m614 -27 l-5 -5 -4 4 -5 5 4 4 5 5 4 -4 5 -5 -4 -4z m-442 -9 c10 -10 -4 -30
-25 -37 -12 -4 -14 -4 -18 2 -3 5 -3 6 0 14 3 9 11 16 24 21 10 4 15 4 19 0z
m959 -67 c-1 -52 -3 -106 -4 -159 -1 -46 0 -51 12 -58 6 -4 19 -7 26 -6 29 2
38 -4 38 -26 0 -19 -8 -27 -27 -27 -7 0 -13 1 -15 3 -1 1 -3 2 -3 1 -1 0 -5
-1 -11 -2 -18 -2 -26 -12 -28 -32 -1 -7 -3 -34 -5 -60 -4 -43 -6 -66 -9 -92
-1 -4 -2 -15 -3 -24 -2 -16 -4 -21 -9 -21 -4 0 -6 6 -11 27 -2 9 -11 39 -18
67 -18 64 -24 74 -47 78 -10 1 -13 1 -39 -8 -34 -11 -39 -12 -42 -5 -2 4 -1 6
4 16 3 7 8 20 11 29 4 14 7 20 12 25 4 4 7 7 7 8 0 1 2 6 5 12 10 22 29 63 29
64 0 1 3 7 6 14 3 6 9 20 13 30 4 10 10 23 12 28 2 6 12 30 22 55 10 25 18 47
19 49 14 36 18 47 18 52 1 8 9 15 19 15 7 1 9 0 13 -5 l6 -7 -1 -41z m282 46
c5 -2 9 -5 10 -8 0 -2 4 -6 9 -8 25 -11 24 -24 -2 -37 -13 -7 -19 -12 -23 -22
-3 -8 -3 -17 -6 -132 -1 -25 -1 -63 -2 -84 -1 -21 0 -48 1 -59 1 -14 0 -27 -1
-37 -3 -21 -4 -39 -6 -100 -1 -26 -2 -48 -2 -48 -1 -2 3 -22 6 -29 4 -9 11
-30 11 -35 0 -4 -9 -29 -12 -33 -1 -1 -4 -8 -7 -15 -5 -14 -5 -19 3 -41 6 -16
19 -29 38 -38 8 -4 16 -8 16 -8 1 1 3 -1 6 -4 6 -7 6 -22 -1 -28 -6 -7 -20 -7
-29 -1 -4 3 -9 4 -19 4 -12 0 -14 0 -20 -6 -6 -6 -7 -9 -8 -22 -5 -59 -14
-106 -24 -133 -2 -5 -3 -15 -3 -28 0 -29 -5 -34 -23 -25 -4 3 -8 5 -9 6 -5 6
-20 12 -36 15 -3 1 -7 3 -10 6 l-4 4 4 12 c8 23 5 33 -15 52 -15 14 -16 17
-15 30 0 7 7 13 15 13 4 0 10 1 14 3 4 1 7 2 7 2 0 -1 3 1 8 3 8 4 14 10 18
19 6 12 30 130 39 193 0 4 2 16 4 28 1 12 3 25 4 30 0 5 2 19 4 31 3 27 2 38
-7 47 -6 6 -25 14 -33 14 -9 0 -15 8 -15 20 0 15 5 19 26 20 32 3 42 13 42 44
0 9 1 26 3 36 2 17 3 25 6 60 0 6 1 22 2 36 1 14 1 28 2 32 0 4 1 22 2 41 1
19 2 39 2 46 1 14 4 101 4 118 0 10 1 13 6 17 4 4 6 5 9 4 2 -1 7 -3 11 -5z
m-1122 -32 c6 -6 6 -7 6 -29 0 -22 0 -23 -6 -29 -3 -3 -7 -6 -8 -6 -1 0 -5 3
-8 6 -6 6 -6 7 -6 29 0 22 0 23 6 29 3 3 7 6 8 6 1 0 5 -3 8 -6z m-233 -31
c-1 -33 -3 -37 -23 -43 -8 -3 -15 -5 -16 -4 -1 0 -4 0 -6 -1 -3 -1 -5 -1 -5 0
0 1 -1 2 -2 1 -1 0 -4 1 -6 3 -4 4 -5 7 -6 23 -1 10 -1 19 -1 21 1 2 7 7 15
11 8 4 16 10 17 11 1 2 3 4 5 4 2 0 6 2 10 5 l7 4 6 -5 6 -5 -1 -25z m802 32
c9 -10 4 -17 -18 -33 -6 -4 -15 -10 -20 -14 -16 -13 -34 -8 -34 10 0 11 2 13
33 28 26 14 34 15 39 9z m-391 -13 c3 -2 5 -5 5 -8 0 -3 1 -3 1 0 2 5 12 4 18
-2 6 -6 5 -5 6 -16 0 -10 -1 -11 -13 -11 -8 0 -10 1 -11 4 0 2 -1 2 -1 -1 0
-6 -7 -11 -17 -12 -4 -1 -18 -4 -29 -6 -26 -6 -28 -6 -32 -1 -7 9 -4 17 10 29
2 1 5 3 6 3 0 0 6 5 13 10 7 6 14 12 17 13 8 3 21 2 27 -2z m-263 -9 c5 -5 5
-15 0 -20 -9 -9 -24 -2 -24 10 0 8 6 14 14 14 3 0 8 -2 10 -4z m762 -40 c5 -5
5 -11 0 -16 -10 -10 -27 5 -16 16 4 4 12 4 16 0z m-970 -29 c2 -5 2 -7 -2 -23
-6 -23 -11 -28 -29 -29 -20 -1 -31 12 -31 35 0 14 11 22 39 25 4 0 8 1 8 2 2
2 12 -5 15 -10z m521 4 c2 -2 3 -4 3 -6 0 -1 1 -1 2 1 2 2 2 2 2 -2 0 -2 3
-16 7 -31 4 -14 10 -35 12 -45 3 -10 5 -20 6 -22 0 -2 2 -9 4 -17 6 -26 20
-39 41 -36 4 0 18 13 18 17 0 1 1 2 2 2 0 0 3 4 5 9 5 13 12 19 20 19 4 0 8
-1 9 -3 1 -2 4 -3 5 -3 1 0 4 -2 5 -3 11 -12 27 -18 45 -16 10 1 13 1 16 -3
l5 -4 -4 -10 c-8 -19 -32 -77 -34 -81 -1 -2 -9 -19 -17 -37 -29 -66 -51 -110
-80 -163 -11 -19 -13 -28 -8 -48 5 -21 4 -29 -2 -35 -5 -5 -9 -6 -18 -7 -18
-2 -32 -6 -43 -14 -6 -4 -12 -7 -15 -8 -2 -1 -48 -2 -101 -2 l-97 0 -6 6 c-6
6 -6 7 -6 25 0 18 0 19 6 25 l6 6 86 0 c85 0 97 0 97 3 0 1 1 2 3 2 1 0 6 4
10 8 8 9 9 19 4 31 -6 15 -7 18 -7 25 0 6 3 18 6 23 5 8 8 26 8 43 -1 15 -2
19 -8 31 -4 7 -10 16 -13 18 -6 5 -13 17 -13 24 0 1 4 7 9 12 5 6 9 9 9 8 0
-3 11 14 13 22 5 12 1 30 -7 35 -5 3 -30 6 -30 4 0 -3 -8 -6 -16 -6 -13 0 -14
0 -20 6 -5 5 -6 7 -6 18 0 11 1 13 6 18 6 6 7 6 20 6 8 0 16 -3 16 -6 0 -2 25
1 30 4 7 5 9 14 9 36 0 26 -2 31 -21 50 l-14 14 0 11 c0 12 0 12 11 22 5 5 13
14 17 19 7 9 8 9 13 5z m234 -24 c6 -4 6 -6 6 -20 0 -14 0 -16 -6 -20 -4 -4
-7 -5 -18 -5 -11 0 -14 1 -18 5 -6 4 -6 6 -6 20 0 14 0 16 6 20 4 4 7 5 18 5
11 0 14 -1 18 -5z m-662 -10 c3 -3 3 -3 0 -6 -3 -3 -3 -3 -6 0 -3 2 -3 3 -1 6
4 4 4 4 7 0z m160 -24 c12 -7 14 -33 3 -43 -8 -9 -32 -9 -40 0 -9 8 -9 32 0
41 7 7 27 8 37 2z m-197 -29 c5 -5 6 -7 6 -17 0 -14 -4 -20 -19 -24 -14 -4
-34 -13 -35 -15 0 -1 -1 -2 -2 -2 -1 0 -6 -2 -10 -5 -14 -10 -37 -7 -43 6 -4
8 -4 24 0 32 3 8 9 10 28 13 7 1 15 3 17 4 16 8 32 14 42 14 9 0 11 -1 16 -6z
m88 0 c5 -5 5 -15 0 -20 -9 -9 -24 -2 -24 10 0 12 16 18 24 10z m116 -73 c3
-2 9 -7 14 -12 5 -5 10 -9 11 -9 2 0 3 -1 3 -2 0 -1 2 -5 5 -9 3 -5 4 -9 5
-32 l1 -26 -6 -6 c-8 -8 -9 -8 -16 0 -4 4 -6 7 -6 7 1 0 -5 15 -9 20 -2 3 -9
8 -15 11 -11 6 -13 7 -21 5 -12 -3 -20 -7 -31 -18 -5 -6 -11 -10 -13 -10 -11
0 -18 22 -19 55 0 28 0 28 44 29 37 1 45 1 53 -3z m-365 -6 c3 -3 3 -3 0 -6
-3 -3 -3 -3 -6 0 -3 2 -3 3 -1 6 4 4 4 4 7 0z m1029 -8 c2 -2 5 -8 5 -13 1 -8
1 -10 -4 -15 -7 -7 -23 -8 -30 0 -7 6 -7 21 -1 28 7 8 23 8 30 0z m616 -28
l-5 -5 -4 4 -5 5 4 4 5 5 4 -4 5 -5 -4 -4z m-1485 5 c6 -5 6 -6 6 -29 0 -23 0
-24 -5 -29 l-6 -6 -5 6 c-6 5 -6 6 -6 29 0 23 0 24 5 29 3 3 5 6 5 6 1 0 3 -3
6 -6z m752 -19 c12 -7 14 -33 3 -43 -8 -9 -32 -9 -40 0 -9 8 -9 32 0 41 7 7
27 8 37 2z m671 -62 l-5 -5 -4 4 -5 5 4 4 5 5 4 -4 5 -5 -4 -4z m-1520 -39 c5
-5 5 -11 0 -16 -10 -10 -27 5 -16 16 4 4 12 4 16 0z m988 -10 c9 -5 11 -21 3
-29 -11 -11 -31 -4 -31 12 0 8 4 16 9 19 3 2 14 1 19 -2z m-628 -29 c3 -3 4
-7 4 -14 0 -13 -6 -19 -19 -19 -13 0 -19 6 -19 19 0 7 1 11 4 14 7 8 23 8 30
0z m548 -70 c4 -5 7 -13 10 -30 2 -12 2 -13 -3 -20 -3 -4 -8 -10 -10 -12 -5
-6 -7 -28 -2 -37 2 -3 3 -11 3 -16 0 -17 -6 -49 -9 -55 -8 -11 -18 -3 -30 23
-18 36 -15 65 10 112 7 12 13 23 13 24 0 0 2 4 4 7 5 8 10 9 14 4z m-715 -42
c3 -3 3 -3 0 -6 -3 -3 -3 -3 -6 0 -3 2 -3 3 -1 6 4 4 4 4 7 0z m542 -39 c5 -5
6 -7 6 -16 0 -9 -1 -11 -7 -16 -5 -6 -7 -7 -16 -7 -9 0 -11 1 -16 7 -9 8 -9
23 -1 32 9 9 24 9 34 0z m-595 -68 c1 0 5 -3 8 -6 8 -8 9 -26 1 -36 -4 -6 -5
-9 -5 -17 0 -5 2 -11 3 -12 1 -2 1 -3 0 -3 -1 0 2 -4 7 -8 4 -4 9 -8 10 -8 4
0 9 -13 9 -23 0 -19 -9 -28 -28 -28 -19 0 -28 9 -28 28 0 11 3 17 9 23 3 3 4
7 4 16 -1 13 -3 18 -15 29 -8 8 -9 9 -9 19 0 6 1 13 1 15 2 6 14 12 23 12 4
-1 8 -1 10 -1z m-174 -18 c2 -5 2 -6 -1 -11 -5 -7 -13 -6 -17 1 -2 5 -2 6 1
11 4 7 13 6 17 -1z m1261 -6 c2 -4 3 -8 3 -23 0 -21 1 -25 16 -40 12 -12 15
-20 12 -29 -3 -9 -7 -12 -18 -12 -17 0 -20 4 -21 28 0 13 -1 19 -3 20 -1 0 -2
1 -2 3 0 1 -6 8 -13 14 -13 12 -13 12 -13 24 0 7 1 12 4 15 7 9 27 9 35 0z
m-972 -9 c5 -8 1 -16 -8 -16 -9 0 -13 8 -8 16 2 3 5 5 8 5 3 0 6 -2 8 -5z
m-238 -39 c7 -6 7 -19 1 -25 -6 -7 -19 -7 -25 -1 -7 6 -7 19 -1 25 6 7 19 7
25 1z m1590 -56 c7 -3 12 -13 12 -25 0 -19 -9 -28 -28 -28 -19 0 -28 9 -28 28
0 17 6 24 22 28 5 1 14 -1 22 -3z m-1246 -24 c5 -5 6 -7 6 -16 0 -9 -1 -11 -7
-16 -5 -6 -7 -7 -16 -7 -9 0 -11 1 -16 7 -9 8 -9 23 -1 32 9 9 24 9 34 0z
m-169 -123 c3 -3 4 -7 4 -14 0 -13 -6 -19 -19 -19 -13 0 -19 6 -19 19 0 7 1
11 4 14 7 8 23 8 30 0z m1236 -105 c5 -6 5 -12 0 -18 -7 -8 -22 -2 -22 9 0 11
15 17 22 9z m-1194 -32 c29 -14 34 -18 38 -27 4 -8 4 -10 2 -14 -3 -7 -6 -8
-26 -3 -11 2 -26 4 -34 5 -24 1 -30 6 -30 25 0 9 1 11 6 16 6 6 7 6 19 6 8 -1
16 -3 25 -8z m-95 -52 c14 -13 -6 -35 -19 -23 -5 5 -5 18 -1 23 5 5 15 5 20 0z"/>
</g>
</svg>
