<?xml version="1.0" standalone="no"?>
<!DOCTYPE svg PUBLIC "-//W3C//DTD SVG 20010904//EN"
 "http://www.w3.org/TR/2001/REC-SVG-20010904/DTD/svg10.dtd">
<svg version="1.0" xmlns="http://www.w3.org/2000/svg"
 width="1100.000000pt" height="2850.000000pt" viewBox="0 0 1100.000000 2850.000000"
 preserveAspectRatio="xMidYMid meet">
<metadata>
Created by potrace 1.15, written by Peter Selinger 2001-2017
</metadata>
<g transform="translate(0.000000,2850.000000) scale(0.500000,-0.500000)"
fill="#000000" stroke="none">
<path d="M1749 3808 c-9 -2 -21 -5 -28 -7 -7 -1 -27 -6 -45 -10 -98 -21 -92
-19 -100 -46 -3 -11 -3 -13 -1 -15 7 -6 -1 -21 -8 -19 -6 2 -14 12 -14 17 0 2
0 4 -1 4 -1 0 -2 1 -1 2 1 1 0 2 -1 3 -2 1 -2 2 0 3 2 1 2 2 1 2 -2 0 -3 2 -4
5 -3 11 -23 17 -36 11 l-9 -4 0 -17 0 -17 7 -3 c3 -1 8 -3 11 -4 12 -3 13 -8
6 -28 -7 -18 -13 -23 -29 -24 -27 -1 -40 30 -22 52 8 9 6 28 -3 33 -7 4 -22 4
-49 0 -15 -2 -32 -5 -37 -5 -5 -1 -11 -2 -14 -2 -3 -1 -7 -2 -10 -2 -2 -1 -9
-3 -16 -4 -6 -2 -27 -4 -47 -5 -40 -2 -39 -2 -63 -8 -10 -2 -26 -3 -40 -4 -20
0 -32 -1 -72 -5 -27 -3 -141 -12 -175 -14 -47 -3 -50 -3 -58 -7 -5 -3 -8 -5
-9 -7 0 -1 0 -4 -1 -7 -4 -13 -4 -23 -2 -26 5 -4 4 -18 -2 -23 -4 -4 -7 -5
-16 -5 -44 -1 -52 -15 -38 -61 4 -13 8 -25 8 -27 0 -2 3 -14 7 -28 3 -14 6
-28 7 -32 2 -11 10 -27 17 -33 11 -9 22 -11 54 -10 46 2 53 6 56 30 1 7 1 14
0 14 -4 2 -2 22 2 27 7 9 27 9 34 0 3 -4 4 -8 4 -23 -1 -21 2 -28 11 -36 4 -4
6 -8 6 -12 0 -5 -1 -6 -14 -10 -8 -3 -15 -5 -17 -6 -2 0 -17 -6 -35 -12 -18
-6 -38 -13 -46 -16 -32 -11 -34 -12 -37 -35 -2 -9 -2 -13 1 -18 5 -10 4 -24
-4 -40 -7 -14 -11 -33 -8 -39 1 -2 2 -4 2 -5 0 -1 13 -36 15 -41 3 -8 24 -70
27 -81 2 -6 4 -12 5 -14 3 -6 -7 -13 -21 -15 -13 -1 -17 -1 -19 -3 -1 -1 -3
-2 -5 -3 -6 -4 -11 -11 -13 -22 l-1 -11 7 -4 c10 -5 25 -8 33 -6 5 2 10 1 15
0 10 -3 9 -3 17 -5 8 -1 11 -8 11 -22 0 -11 -4 -16 -16 -21 -9 -4 -13 -5 -35
-4 -16 0 -28 -5 -33 -16 -4 -7 -4 -11 -4 -66 0 -48 1 -59 3 -65 4 -9 14 -21
18 -21 2 0 3 -1 3 -2 0 -2 2 -2 106 -3 113 -1 114 -1 126 11 6 7 9 13 18 36 7
17 43 17 50 0 9 -23 12 -29 18 -36 11 -11 19 -12 59 -12 30 1 35 2 42 5 28 15
33 17 40 17 12 0 18 -6 18 -18 0 -11 -2 -13 -21 -22 -6 -3 -13 -7 -15 -9 -5
-6 -11 -26 -11 -36 0 -15 -10 -20 -28 -14 -10 4 -30 4 -37 1 -6 -3 -16 -18
-19 -30 -1 -5 -2 -20 -2 -35 l1 -26 -6 -6 c-6 -6 -7 -6 -25 -5 -18 0 -22 -1
-42 -7 -27 -9 -31 -9 -58 0 l-22 7 -129 -1 c-130 0 -133 -1 -133 -3 0 -1 -2
-2 -4 -3 -2 0 -5 -3 -6 -5 -1 -4 -2 -4 -2 -1 0 13 -16 24 -36 25 -6 0 -12 1
-12 3 -2 1 -2 1 -2 -1 0 -7 -12 -10 -18 -4 -2 2 -4 6 -4 9 0 7 15 16 21 11 2
-2 16 7 19 12 6 12 13 30 17 45 l5 18 -1 65 c-1 84 -1 90 0 148 1 55 1 62 -10
71 -5 4 -27 13 -30 13 -14 -2 -21 6 -21 21 0 13 6 21 15 21 10 0 28 6 36 13
11 10 11 0 11 245 l0 226 -8 23 c-4 14 -7 26 -6 30 0 3 1 9 1 13 0 4 1 7 2 7
2 -2 1 0 -2 7 -7 14 -15 20 -30 21 -17 1 -23 9 -20 27 1 12 -3 29 -9 35 -8 9
-15 9 -87 9 l-68 -1 -18 -7 c-10 -3 -22 -6 -26 -6 -4 0 -16 3 -26 6 l-18 7
-148 0 c-145 0 -159 0 -159 -3 0 -1 -1 -2 -3 -2 -4 0 -14 -12 -18 -21 -4 -9
-4 -55 -1 -68 4 -11 13 -19 28 -25 17 -6 22 -11 22 -20 0 -8 -5 -14 -14 -17
-3 -1 -6 -2 -7 -3 -1 -1 -4 -2 -7 -3 -8 -2 -19 -13 -22 -22 -3 -13 -3 -269 1
-278 3 -7 12 -16 15 -14 1 1 2 0 2 -1 0 -1 4 -2 9 -3 5 -1 9 -2 9 -4 0 -1 1
-1 2 1 3 5 16 -2 16 -10 0 -8 -13 -15 -16 -10 -2 2 -2 2 -2 1 0 -2 -2 -3 -5
-3 -9 0 -15 -8 -15 -20 0 -13 5 -22 15 -29 15 -9 22 -33 15 -48 -2 -3 -8 -9
-13 -13 -17 -10 -17 -11 -21 -14 -2 -2 -6 -8 -9 -13 l-5 -10 -1 -162 c0 -89
-1 -168 -2 -175 0 -7 -1 -31 -2 -54 -1 -23 -2 -45 -2 -49 0 -4 -1 -21 -2 -37
-1 -16 -2 -32 -2 -36 0 -4 -1 -16 -2 -27 -2 -39 -7 -91 -13 -139 -4 -31 -4
-34 -1 -43 2 -6 5 -12 7 -14 3 -4 26 -15 31 -15 6 0 11 -9 11 -19 0 -14 -6
-19 -20 -19 -28 0 -47 -13 -49 -33 -2 -11 -15 -76 -20 -94 -2 -7 -6 -22 -9
-35 -4 -13 -12 -40 -19 -62 -14 -40 -14 -44 -11 -57 3 -12 13 -20 37 -31 12
-6 27 -13 34 -16 30 -15 91 -49 114 -65 8 -5 17 -12 21 -14 12 -9 32 -6 42 6
5 6 10 16 17 38 2 9 10 31 16 50 6 19 15 54 21 77 18 73 20 75 36 26 11 -36
18 -67 29 -118 0 -2 2 -11 3 -21 1 -10 3 -20 3 -22 3 -18 15 -32 31 -38 15 -6
102 -1 145 8 56 11 66 19 65 47 -1 46 -2 42 5 47 4 4 7 5 18 5 12 0 13 -1 22
-8 9 -7 11 -8 23 -8 7 0 15 0 17 1 8 3 29 43 37 71 5 16 5 22 1 40 -5 22 -4
25 5 47 l9 20 1 98 c1 97 1 98 6 106 2 4 4 9 4 11 0 2 1 2 2 -2 1 -2 4 -5 6
-5 2 -1 4 -2 4 -3 0 -2 4 -3 161 -3 l156 -1 10 5 c10 5 12 7 17 18 3 7 7 15 7
18 1 2 1 6 2 9 3 14 24 21 41 15 18 -8 19 -19 19 -161 l0 -92 -6 -5 -6 -6 -37
0 c-20 0 -57 0 -80 1 -40 0 -44 0 -51 -3 -16 -8 -21 -27 -13 -45 5 -9 10 -23
31 -78 7 -18 22 -72 29 -103 8 -35 16 -46 36 -53 9 -3 85 -2 124 0 70 5 138
21 152 36 9 9 10 14 8 51 -1 20 19 28 40 16 13 -7 33 -7 42 0 10 8 25 43 32
71 9 37 10 57 9 183 l0 112 6 6 6 6 194 0 c190 0 205 0 205 3 0 1 1 2 3 2 4 0
14 12 18 21 3 6 3 18 3 74 l0 66 -5 10 -5 10 -13 1 c-8 0 -14 1 -15 1 0 0 -3
-2 -6 -6 -4 -6 -16 -13 -21 -13 -1 0 -4 2 -5 5 -4 5 -2 17 6 39 10 28 5 53
-12 60 -20 8 -33 0 -37 -23 -1 -4 -2 -8 -3 -9 -1 0 -1 -2 1 -3 6 -4 0 -14 -8
-14 -8 0 -14 10 -8 14 2 1 2 3 1 3 -1 1 -2 5 -3 9 -2 10 -6 18 -14 24 -5 4 -7
4 -139 5 -73 1 -134 2 -135 2 -2 0 -3 2 -3 4 0 2 -1 4 -2 4 -3 0 1 4 10 10 11
7 12 10 12 23 0 11 -1 13 -6 18 -6 5 -7 6 -29 6 -32 1 -38 5 -38 27 0 19 8 27
27 27 9 0 13 -2 21 -7 17 -10 40 -8 48 5 9 14 29 15 50 4 11 -5 16 -7 24 -7
15 0 16 0 66 45 10 9 25 22 33 29 43 38 74 69 74 74 0 1 6 7 10 8 7 3 20 15
24 21 5 8 6 29 0 36 -3 5 -23 21 -25 21 -1 0 -4 3 -8 6 -13 13 -22 20 -31 22
-12 3 -24 9 -24 12 0 2 -1 2 -1 1 -2 -1 -9 14 -9 18 0 1 -5 6 -10 10 -19 15
-20 26 -5 53 11 19 16 34 18 56 2 16 0 14 27 38 10 10 14 16 26 40 24 47 25
50 30 69 5 22 9 29 20 41 14 14 19 24 17 37 -3 24 -4 24 -85 55 -15 6 -37 14
-50 19 -16 7 -25 9 -33 9 -19 0 -24 -6 -26 -30 -2 -19 -5 -27 -17 -43 -13 -16
-21 -20 -49 -29 -9 -3 -19 -13 -25 -28 -7 -14 -10 -17 -28 -26 -16 -9 -26 -20
-34 -40 -3 -8 -8 -19 -10 -23 -8 -18 -3 -33 12 -42 12 -7 14 -6 41 3 28 9 27
9 34 4 6 -6 10 -14 12 -27 3 -15 0 -22 -8 -22 -2 -1 -11 -3 -20 -5 -21 -6 -24
-9 -22 -26 1 -7 2 -13 3 -15 1 -1 4 -4 6 -6 1 -2 10 -7 19 -10 l15 -6 -5 -5
-5 -5 -136 -1 c-101 0 -137 1 -141 2 -3 2 -7 3 -7 2 -1 0 -2 1 -2 2 0 1 1 2 3
2 1 0 0 1 -3 2 l-5 2 5 0 c6 0 14 2 55 17 18 6 43 15 56 19 28 10 29 11 30 31
1 18 1 18 -29 33 -22 11 -45 18 -63 20 -19 2 -16 23 3 25 20 2 30 12 33 33 0
3 8 14 10 14 1 0 5 3 8 6 4 3 7 6 6 6 -1 0 0 1 2 3 4 4 6 20 3 28 -1 3 -6 18
-11 32 -5 14 -12 35 -16 46 -4 11 -9 22 -10 25 -3 3 -3 5 0 9 5 7 10 8 43 12
30 3 127 16 140 18 4 1 9 2 11 2 6 -1 15 -10 15 -16 0 -16 30 -21 46 -7 3 4 4
7 4 13 0 7 1 10 5 12 8 5 35 15 44 16 13 2 33 11 42 19 18 16 23 17 48 10 25
-6 26 -6 91 9 41 10 50 17 50 40 0 8 -1 11 -10 23 -6 7 -12 15 -14 18 -2 2 -8
12 -15 21 -6 9 -15 21 -20 28 -4 6 -15 20 -23 32 -8 11 -19 26 -24 33 -10 15
-31 44 -38 53 -11 13 -30 18 -53 13z m-1433 -107 c6 -4 8 -12 8 -26 -2 -16 -7
-21 -25 -21 -11 0 -14 1 -18 5 -6 4 -6 6 -6 20 0 13 1 16 4 19 8 8 26 9 37 3z
m1286 -8 c2 -1 5 -5 7 -8 3 -6 3 -7 0 -12 -5 -8 -14 -6 -21 6 -3 6 3 16 10 17
1 0 2 -1 4 -3z m-1388 -9 c7 -7 3 -18 -6 -20 -5 -1 -14 7 -14 11 0 11 13 16
20 9z m1568 -19 c4 -4 5 -9 4 -19 0 -3 -4 -10 -10 -17 -6 -7 -11 -13 -12 -14
-1 -1 -3 -6 -6 -12 -10 -20 -21 -26 -31 -17 -6 6 -6 13 0 25 12 22 17 32 17
35 0 2 1 4 2 5 1 1 2 3 2 6 0 13 24 19 34 8z m-1111 -18 c5 -8 1 -16 -8 -16
-9 0 -13 8 -8 16 2 3 5 5 8 5 3 0 6 -2 8 -5z m931 -40 c21 -9 20 -45 -2 -54
-10 -5 -28 -1 -34 6 -9 10 -9 32 0 42 7 8 24 11 36 6z m-480 -24 c3 -3 4 -7 4
-14 0 -13 -6 -19 -19 -19 -13 0 -19 6 -19 19 0 7 1 11 4 14 7 8 23 8 30 0z
m-667 -15 c16 -7 16 -43 -1 -50 -15 -6 -34 -2 -39 9 -4 8 -4 24 0 32 5 12 23
15 40 9z m864 -12 c4 -6 4 -23 0 -29 -2 -3 -6 -6 -11 -7 -12 -4 -31 -14 -37
-19 -3 -3 -8 -7 -12 -8 -4 -2 -7 -4 -7 -4 0 -1 1 -1 2 0 1 1 2 -4 2 -13 0 -12
0 -14 3 -13 2 0 3 0 2 -1 -1 -1 0 -2 1 -2 4 0 -6 -6 -10 -6 -2 0 -5 -1 -6 -3
-1 -2 -4 -3 -5 -2 -2 0 -3 0 -2 -1 1 -1 2 -2 4 -2 5 1 7 0 6 -2 -1 -1 0 -2 1
-2 3 0 -2 -2 -48 -16 -22 -7 -35 -14 -39 -23 -5 -10 -7 -25 -5 -31 6 -14 43
-135 47 -152 0 -2 3 -12 6 -23 3 -11 6 -22 6 -25 1 -3 2 -8 3 -11 1 -3 3 -13
5 -22 4 -21 5 -22 8 -26 2 -2 2 -3 1 -3 -1 0 -5 -2 -8 -5 l-5 -5 -59 0 c-64 0
-72 1 -73 6 -1 2 -3 4 -5 5 -2 0 -1 1 2 1 4 0 49 17 68 26 17 7 25 16 28 34 1
8 0 12 -10 42 -15 43 -39 103 -43 108 -3 3 -5 3 -11 2 -3 -1 -10 -2 -14 -1 -6
0 -8 -1 -15 -6 -5 -4 -11 -7 -14 -7 -10 0 -17 14 -10 23 3 4 16 7 23 4 16 -7
26 21 15 48 -12 28 -20 41 -28 41 -4 0 -4 0 0 3 12 10 21 12 67 14 55 3 99 8
97 11 -1 1 0 1 2 1 4 -2 7 5 7 21 1 13 0 15 -3 15 -5 1 -9 7 -9 13 0 7 6 15
16 20 8 5 20 17 29 29 9 11 29 13 38 3z m-828 -105 l6 -6 0 -69 0 -69 -6 -6
-6 -6 -27 0 -27 0 -6 6 -6 6 0 69 0 69 6 6 6 6 27 0 27 0 6 -6z m-122 -44 c4
-4 5 -7 5 -15 0 -14 -6 -20 -20 -20 -14 0 -20 6 -20 20 0 14 6 20 20 20 8 0
11 -1 15 -5z m326 -33 c10 -9 3 -26 -10 -26 -8 0 -15 7 -15 15 0 13 16 20 25
11z m1088 -14 c11 -10 3 -28 -11 -28 -9 0 -16 6 -16 16 0 14 17 22 27 12z
m-449 -6 c9 -10 2 -23 -12 -22 -12 0 -16 0 -15 2 1 1 0 2 -1 3 -3 2 1 8 8 15
6 7 15 8 20 2z m-1036 -7 c7 -4 8 -8 8 -22 0 -14 -7 -21 -23 -21 -16 0 -23 7
-23 23 0 10 1 12 6 17 7 7 22 8 32 3z m-91 -5 c10 -9 3 -26 -10 -26 -8 0 -15
7 -15 15 0 13 16 20 25 11z m1085 -23 c3 -4 -3 -17 -11 -24 -5 -7 -18 -7 -24
-1 -10 10 -4 30 9 30 3 0 7 1 9 2 5 2 15 -2 17 -7z m428 -46 c11 -9 19 -34 13
-42 -9 -14 -32 5 -36 31 -2 14 12 21 23 11z m-1462 -33 c0 -1 2 -2 4 -3 l5 -1
-5 -4 c-5 -4 -5 -4 -9 0 -3 3 -3 4 -1 7 3 3 6 4 6 1z m340 -10 c5 -6 5 -12 0
-18 -7 -8 -22 -2 -22 9 0 11 15 17 22 9z m-171 -8 c8 -8 8 -24 -1 -32 -8 -9
-23 -9 -32 -1 -9 8 -9 26 0 33 9 9 24 9 33 0z m-87 -2 c5 -4 8 -12 8 -18 0 -7
-6 -24 -10 -29 -8 -8 -32 -8 -41 1 -3 3 -6 12 -8 29 -1 7 -1 9 4 12 3 2 7 4 8
4 1 0 7 2 13 4 12 3 21 2 26 -3z m377 -44 c7 -6 7 -19 1 -25 -6 -7 -19 -7 -25
-1 -7 6 -7 19 -1 25 6 7 19 7 25 1z m-469 -73 l-5 -5 -4 4 -5 5 4 4 5 5 4 -4
5 -5 -4 -4z m194 -8 c13 -6 18 -21 13 -38 -3 -9 -4 -11 -8 -11 -2 0 -3 -1 -1
-1 2 -1 3 -4 3 -10 0 -6 0 -12 2 -15 1 -3 2 -6 1 -6 0 -1 2 -2 5 -3 3 -1 5 -2
5 -3 0 -1 5 -2 11 -2 12 0 31 -9 31 -13 0 -1 4 -6 9 -11 13 -13 15 -18 15 -29
0 -11 -2 -16 -16 -29 -12 -13 -16 -24 -15 -52 l0 -23 -6 -6 -6 -6 -29 0 -28 0
-3 5 c-2 4 -5 6 -6 6 -2 0 -2 1 -1 5 0 2 1 35 1 73 0 58 0 69 3 71 4 3 0 20
-7 35 -3 5 -5 11 -5 12 0 1 -2 2 -4 2 -6 0 -16 6 -16 9 0 4 14 32 17 35 9 7
24 9 35 5z m876 0 c0 -1 -2 -4 -3 -7 -5 -6 -13 -26 -13 -30 0 -6 -8 -12 -16
-12 -8 0 -16 6 -16 13 0 2 -1 6 -3 9 -4 7 -4 10 3 15 8 8 14 12 22 13 11 2 26
1 26 -1z m-332 -5 c6 -5 6 -15 0 -20 -7 -6 -19 -5 -24 1 -5 7 -5 12 1 18 7 6
16 6 23 1z m-661 -32 c15 0 28 -1 30 -1 1 -1 2 -2 3 -2 1 0 4 -1 7 -2 7 -1 16
-9 11 -9 -1 0 -2 -1 -2 -3 0 -2 -1 -5 -3 -8 -2 -2 -3 -11 -4 -19 -1 -21 -3
-32 -5 -37 -1 -1 -10 -7 -20 -12 -10 -5 -19 -11 -22 -14 -5 -6 -8 -21 -8 -38
0 -20 -3 -25 -24 -38 -14 -10 -25 -14 -35 -15 -4 0 -16 -2 -26 -3 -24 -4 -28
-4 -33 1 -9 9 -4 21 13 33 4 3 11 9 15 13 4 3 13 10 20 15 28 19 31 38 16 90
-6 21 -6 32 1 42 4 6 17 9 28 8 6 -1 22 -2 38 -1z m1441 -45 c5 -6 5 -11 0
-18 -5 -6 -7 -6 -14 1 -7 8 -7 9 -2 16 6 7 10 8 16 1z m-691 -34 c6 -4 6 -6 6
-20 0 -14 0 -16 -6 -20 -4 -4 -7 -5 -18 -5 -11 0 -14 1 -18 5 -6 4 -6 6 -6 20
0 14 0 16 6 20 4 4 7 5 18 5 11 0 14 -1 18 -5z m605 -18 l-5 -5 -4 4 -5 5 4 4
5 5 4 -4 5 -5 -4 -4z m119 9 c11 -5 15 -10 15 -19 0 -10 -6 -15 -16 -15 -13 0
-22 18 -14 30 3 7 7 7 15 4z m-409 -10 c3 -4 10 -13 16 -20 5 -7 14 -16 20
-20 21 -15 26 -26 18 -36 -4 -4 -5 -4 -14 -3 -6 1 -22 2 -35 2 -13 0 -25 1
-27 1 -6 0 -14 9 -16 17 -3 15 6 54 15 62 6 5 16 4 23 -3z m-174 -6 c2 -2 6
-9 10 -16 3 -7 7 -15 9 -16 1 -2 4 -7 6 -12 3 -9 3 -9 -2 -14 l-4 -4 -8 4 c-4
3 -7 6 -7 7 0 1 -3 5 -6 9 -16 17 -22 25 -22 32 0 12 14 18 24 10z m-535 -66
c7 -6 7 -19 1 -25 -6 -7 -19 -7 -25 -1 -7 6 -7 19 -1 25 6 7 19 7 25 1z m-307
-54 c5 -5 5 -11 0 -16 -10 -10 -27 5 -16 16 4 4 12 4 16 0z m163 -109 c6 -6 7
-18 2 -25 -2 -2 -11 -7 -19 -11 -17 -8 -17 -9 -30 -21 -5 -6 -12 -10 -15 -11
-3 -1 -7 -2 -9 -2 -1 -1 -10 1 -20 3 -19 5 -32 4 -41 -1 -5 -4 -17 -20 -23
-32 -7 -13 -12 -17 -27 -17 -17 0 -23 5 -24 18 -2 15 0 22 11 33 9 10 18 23
24 34 9 17 15 19 47 15 24 -4 68 4 92 16 15 7 25 8 32 1z m-269 -38 c9 -4 13
-18 10 -34 -3 -18 -6 -27 -11 -32 -5 -5 -6 -5 -14 -2 -22 8 -36 41 -26 60 6
12 26 16 41 8z m1163 -76 c3 -5 3 -5 0 -10 -2 -3 -5 -5 -7 -5 -2 0 -5 2 -7 5
-3 5 -3 5 0 10 2 3 5 5 7 5 2 0 5 -2 7 -5z m-625 -48 c4 -2 9 -5 13 -6 3 -2 5
-3 5 -2 0 1 2 -1 4 -4 l4 -5 -4 -5 c-2 -3 -4 -5 -4 -4 0 1 -2 0 -5 -2 -4 -1
-9 -4 -13 -6 -5 -2 -8 -5 -8 -7 0 -2 -1 -2 -1 0 -1 2 -3 6 -5 10 -4 9 -4 19 1
28 1 4 3 8 3 10 0 2 1 2 1 0 1 -2 5 -5 9 -7z m-308 -26 c20 -7 29 -11 33 -20
4 -6 4 -7 0 -13 -2 -3 -8 -9 -14 -12 -7 -5 -11 -10 -15 -18 l-6 -11 0 -129 0
-129 -7 -6 c-6 -6 -8 -7 -18 -7 -9 0 -18 -2 -34 -8 l-22 -7 -11 3 c-6 2 -13 4
-15 6 -3 1 -7 2 -10 2 -4 0 -6 2 -10 7 l-4 7 6 39 c9 52 9 61 -1 72 -3 4 -26
15 -31 15 -7 0 -13 8 -13 16 0 10 5 16 20 23 19 8 21 9 28 15 9 7 20 28 21 40
2 18 7 80 8 93 0 15 0 16 6 21 l6 6 34 0 c31 0 35 0 49 -5z m614 -26 l-5 -5
-4 4 -5 5 4 4 5 5 4 -4 5 -5 -4 -4z m-418 7 c1 0 5 -3 8 -6 5 -5 6 -7 6 -18 0
-11 -1 -13 -6 -18 -6 -6 -7 -6 -18 -6 -11 0 -12 0 -18 6 -5 5 -6 7 -6 17 0 14
3 20 12 24 5 2 8 2 22 1z m847 -52 c10 -9 3 -26 -10 -26 -8 0 -15 7 -15 15 0
13 16 20 25 11z m138 -6 c7 -6 7 -19 1 -25 -6 -7 -19 -7 -25 -1 -7 6 -7 19 -1
25 6 7 19 7 25 1z m-254 -69 c3 -5 3 -6 0 -12 -7 -13 -16 -13 -18 1 -3 13 11
22 18 11z m-25 -48 c2 -5 4 -12 4 -17 0 -9 0 -10 -7 -16 -5 -3 -12 -8 -17 -10
-5 -3 -12 -8 -16 -11 -8 -8 -15 -11 -19 -6 -5 5 -3 11 9 23 3 3 6 7 6 9 0 6
17 26 26 31 12 5 11 5 14 -3z m-100 -144 c3 -3 4 -7 4 -14 0 -13 -6 -19 -19
-19 -13 0 -19 6 -19 19 0 7 1 11 4 14 7 8 23 8 30 0z m-179 -80 c3 -5 3 -5 0
-10 -2 -3 -5 -5 -7 -5 -2 0 -5 2 -7 5 -3 5 -3 5 0 10 2 3 5 5 7 5 2 0 5 -2 7
-5z m-568 -3 c5 -5 6 -11 3 -22 -3 -12 -4 -18 -5 -37 -2 -22 -6 -27 -19 -27
-16 0 -22 13 -15 31 2 6 6 20 5 20 0 0 1 4 3 10 2 5 3 12 3 15 0 12 16 18 25
10z m805 -12 c5 -5 5 -15 0 -20 -9 -9 -24 -2 -24 10 0 8 6 14 14 14 3 0 8 -2
10 -4z m-1221 -1 c3 -1 14 -11 25 -21 22 -22 26 -30 22 -47 -4 -14 -11 -19
-27 -20 -11 -1 -27 7 -27 13 0 1 -7 17 -14 33 -5 9 -8 22 -8 28 0 14 16 22 29
14z m1102 -133 c10 -9 3 -26 -10 -26 -8 0 -15 7 -15 15 0 13 16 20 25 11z"/>
<path d="M816 3688 c-2 -1 -4 -2 -4 -1 0 3 -6 -5 -8 -10 -3 -9 -2 -27 2 -29 5
-3 20 -2 30 0 l9 3 0 11 c0 7 -1 12 -2 12 -1 0 -1 1 -1 2 1 3 -5 9 -11 11 -2
0 -6 1 -8 2 -2 0 -6 0 -7 -1z"/>
</g>
</svg>
