<?xml version="1.0" standalone="no"?>
<!DOCTYPE svg PUBLIC "-//W3C//DTD SVG 20010904//EN"
 "http://www.w3.org/TR/2001/REC-SVG-20010904/DTD/svg10.dtd">
<svg version="1.0" xmlns="http://www.w3.org/2000/svg"
 width="1000.000000pt" height="2850.000000pt" viewBox="0 0 1000.000000 2850.000000"
 preserveAspectRatio="xMidYMid meet">
<metadata>
Created by potrace 1.15, written by Peter Selinger 2001-2017
</metadata>
<g transform="translate(0.000000,2850.000000) scale(0.500000,-0.500000)"
fill="#000000" stroke="none">
<path d="M348 3810 c-3 -1 -6 -1 -7 0 0 0 -1 0 -1 -2 0 -1 -1 -2 -3 -2 -4 0
-14 -12 -18 -21 -3 -6 -3 -18 -3 -81 l0 -74 5 -11 c3 -6 8 -13 11 -15 3 -3 9
-8 13 -11 5 -3 12 -10 17 -14 5 -5 13 -11 18 -14 11 -7 18 -15 25 -28 6 -12 7
-13 23 -20 15 -7 20 -13 20 -23 0 -14 -15 -23 -28 -16 -4 2 -18 24 -18 28 0 3
-7 10 -9 10 -2 0 -6 2 -10 5 -5 3 -10 6 -12 8 -2 1 -7 5 -10 8 -6 6 -7 6 -22
5 -8 -1 -15 -2 -16 -2 -3 -5 -6 -19 -7 -43 -1 -37 -3 -40 -22 -40 -7 0 -22 2
-33 4 -17 3 -29 3 -87 2 -70 -1 -72 -1 -72 -3 0 -1 -1 -2 -3 -2 -4 0 -14 -12
-18 -21 -4 -10 -4 -78 -1 -92 5 -16 24 -23 44 -16 13 4 19 4 24 -2 5 -5 5 -13
-1 -33 -4 -12 -4 -12 -7 -28 -4 -12 -10 -19 -21 -21 -4 0 -9 -2 -11 -3 -1 -1
-6 -3 -11 -5 -8 -4 -13 -10 -16 -21 -4 -11 -4 -204 0 -222 4 -17 4 -35 0 -52
-4 -17 -4 -38 0 -47 3 -8 11 -14 21 -17 8 -2 12 -2 24 -2 12 1 14 0 20 -6 5
-5 6 -7 6 -18 0 -11 -1 -13 -6 -18 -6 -6 -8 -7 -20 -6 -18 1 -29 -2 -37 -8
-11 -9 -11 -7 -11 -143 0 -109 0 -125 3 -132 4 -9 14 -21 18 -21 2 0 3 -1 3
-2 0 -1 1 -1 3 -2 1 0 7 0 12 -1 8 -1 14 0 29 5 11 3 21 6 24 6 13 0 30 8 45
19 12 10 19 9 28 -2 18 -22 32 -31 44 -28 3 1 7 2 8 1 0 0 1 1 1 2 0 0 3 2 6
4 3 1 6 4 6 6 0 3 1 3 1 -1 1 -1 2 -3 3 -2 1 1 2 0 2 0 0 -1 2 -2 4 -2 2 -1 4
0 4 1 0 1 -1 2 -2 2 -3 0 4 39 8 41 1 1 2 4 2 7 0 5 0 5 2 1 2 -5 16 -9 32 -9
11 0 22 -5 22 -9 0 -1 2 -4 4 -7 2 -3 4 -6 4 -7 0 -1 4 -6 8 -11 20 -21 21
-28 12 -50 -2 -6 -7 -19 -11 -29 -7 -20 -10 -23 -24 -23 -13 0 -19 4 -19 14
-1 6 -1 6 -1 2 -1 -6 -1 -6 -16 -6 -9 0 -15 -1 -17 -3 -4 -5 -5 -14 -5 -55
l-1 -41 -6 -5 c-5 -5 -14 -8 -42 -11 -8 -1 -24 -4 -49 -8 -10 -1 -23 -3 -29
-4 -19 -2 -23 -3 -24 -6 -1 -1 -2 -1 -2 0 0 1 -2 0 -4 -2 -2 -2 -4 -2 -5 -2 0
1 -1 0 -1 -2 0 -3 -1 -3 -2 -1 -2 3 -29 3 -60 -2 -33 -5 -46 -11 -53 -23 -9
-16 -10 -8 21 -186 8 -48 15 -60 38 -65 7 -1 15 0 48 6 21 5 41 9 43 9 6 2 7
6 7 25 l0 15 -9 5 c-9 5 -33 7 -52 3 -8 -1 -10 -1 -14 3 -6 6 -7 16 -1 21 4 4
8 4 30 4 19 0 27 1 32 3 16 8 24 6 37 -8 10 -10 35 -26 41 -26 1 0 8 -3 15 -8
27 -15 25 -15 107 2 39 7 73 14 76 15 8 1 24 9 27 14 2 2 3 10 3 17 1 10 0 13
-3 17 -10 10 -15 30 -8 35 3 2 8 23 6 28 0 2 -1 7 -3 13 -3 8 -4 9 -9 9 -19 1
-26 1 -28 -1 -2 -2 -3 -3 -4 -3 -1 0 -5 -3 -9 -7 -5 -4 -9 -7 -11 -7 -2 0 -6
0 -9 0 -11 0 -12 0 -18 6 -5 5 -6 7 -6 18 0 11 1 13 6 18 3 3 7 6 9 6 13 1 20
0 25 -3 10 -7 14 -9 24 -9 13 0 23 4 29 12 4 4 21 3 26 -3 6 -5 7 -22 2 -26
-4 -3 -7 -16 -7 -27 1 -10 7 -20 15 -24 10 -5 24 -17 28 -23 2 -3 5 -9 8 -11
2 -3 5 -7 7 -10 6 -9 32 -14 45 -9 3 1 6 0 10 -4 6 -5 8 -14 12 -46 1 -4 1
-10 2 -13 1 -3 1 -10 2 -16 2 -14 9 -30 16 -35 3 -2 9 -4 15 -5 9 -3 16 -1 39
8 3 1 8 3 10 4 22 8 30 12 44 20 19 11 27 19 34 35 11 20 23 27 33 16 5 -5 4
3 3 -95 -1 -69 -1 -76 2 -82 3 -7 11 -16 11 -13 0 1 1 1 3 0 1 -1 3 -2 5 -2 2
-1 6 -1 9 -2 4 -1 9 0 12 1 3 2 10 3 14 3 7 0 12 -1 30 -9 23 -10 23 -10 105
-9 78 1 82 1 82 3 0 0 3 2 6 4 5 2 6 3 6 17 1 15 1 15 -5 18 -8 5 -19 17 -19
22 0 4 10 16 18 22 3 1 8 7 11 12 7 13 9 37 4 59 -4 17 -4 39 0 55 2 9 3 25 3
58 0 45 0 45 5 50 2 3 5 6 6 7 0 2 1 2 1 0 0 -2 2 -5 5 -7 7 -4 47 -40 52 -47
8 -10 18 -15 31 -16 15 0 21 3 32 17 5 7 9 12 10 13 1 1 5 6 10 13 5 7 11 14
13 16 2 2 6 10 10 18 11 21 7 34 -12 50 -13 10 -17 16 -17 26 0 10 7 17 18 17
7 0 10 -1 19 -10 l10 -10 16 0 15 0 5 9 c8 14 13 23 24 43 5 10 11 20 13 22 5
5 11 4 16 -2 7 -9 16 -23 16 -25 0 -4 10 -7 23 -7 12 0 13 1 23 8 9 7 12 9 20
9 19 0 27 -14 21 -35 -2 -8 -3 -12 -1 -18 3 -13 10 -17 27 -18 11 -1 17 -5 17
-12 0 -4 -5 -11 -9 -11 -1 -1 -6 -1 -11 -2 -12 -2 -24 -5 -29 -7 -11 -6 -15
-36 -6 -50 8 -13 14 -16 28 -16 14 0 16 1 33 18 3 3 9 8 12 11 4 3 14 12 23
20 8 7 17 15 19 17 8 6 9 7 19 19 15 18 23 23 36 23 14 0 17 -3 30 -26 7 -13
9 -16 19 -21 17 -9 22 -14 22 -23 0 -16 -17 -22 -30 -9 -10 9 -18 19 -17 21 1
1 -2 2 -7 4 -4 1 -10 3 -14 5 -6 2 -8 2 -17 -1 -21 -7 -29 -17 -29 -38 0 -21
-5 -33 -14 -36 -4 -1 -162 -1 -177 0 -19 2 -38 -8 -40 -19 -2 -14 -1 -19 9
-45 12 -30 19 -42 33 -53 19 -14 20 -20 13 -54 -5 -20 -5 -20 -1 -39 6 -29 14
-46 26 -50 11 -4 22 -2 31 5 5 3 13 9 18 12 16 11 25 23 30 41 6 20 10 24 23
24 15 0 20 -6 19 -25 0 -4 -3 -8 -10 -15 -9 -9 -10 -10 -10 -21 -1 -25 4 -28
45 -26 29 1 33 2 59 5 32 5 43 7 68 13 20 6 36 12 55 21 7 4 14 8 16 9 3 1 5
3 5 4 0 0 1 1 3 1 4 0 34 27 42 38 24 32 35 61 42 105 7 48 3 63 -20 74 -17 9
-23 14 -23 22 0 7 5 12 18 19 13 5 22 13 26 23 4 8 4 18 4 202 0 206 0 201
-10 210 -6 5 -23 9 -37 7 -12 0 -13 0 -18 5 -5 5 -5 6 -5 22 1 21 0 27 -7 37
-10 15 -11 18 -11 24 0 8 5 14 15 20 9 4 10 4 13 -4 3 -7 4 -11 4 -25 1 -13 6
-27 13 -34 2 -2 3 -4 3 -5 0 -3 26 3 30 7 7 7 10 16 10 34 0 20 -4 33 -11 41
-8 9 -16 11 -38 9 -8 0 -8 0 -12 10 -2 7 -4 15 -4 24 0 12 0 14 6 18 3 3 8 5
12 5 9 0 31 8 36 13 2 2 5 8 7 13 4 8 4 13 4 62 0 44 -1 55 -3 61 -4 9 -14 21
-18 21 -2 0 -3 1 -3 2 0 1 -1 2 -1 2 -1 -1 -6 0 -11 1 -18 3 -35 -6 -45 -26
-8 -14 -13 -19 -20 -19 -7 0 -12 5 -20 19 -7 12 -17 22 -27 25 -5 1 -40 2
-119 2 -125 0 -154 2 -166 10 -13 9 -8 18 15 28 15 7 25 23 24 39 -1 6 0 9 5
14 l6 6 46 -1 c48 0 53 1 63 9 4 4 11 15 9 15 0 0 0 4 2 8 2 4 2 9 2 11 -2 4
3 19 7 24 9 11 31 11 43 0 5 -3 10 -21 8 -25 0 -1 0 -5 2 -10 2 -4 2 -8 2 -8
-2 0 5 -11 9 -15 10 -8 16 -9 53 -8 40 1 41 1 41 3 0 1 1 2 3 2 4 0 14 12 18
21 6 15 3 34 -7 45 -2 2 -4 5 -4 6 -1 2 -25 12 -28 12 -2 0 -6 3 -9 6 -8 8 -8
24 0 32 3 3 7 6 9 6 3 0 27 10 28 12 0 1 2 4 5 7 8 9 9 18 8 45 -1 14 -1 36
-1 49 2 319 2 368 -1 376 -4 9 -14 21 -18 21 -2 0 -3 1 -3 2 0 2 -2 2 -76 3
-91 1 -89 2 -97 -27 -1 -7 -2 -12 -1 -12 1 0 2 -4 3 -9 1 -6 4 -19 6 -29 8
-30 9 -36 2 -42 -4 -3 -8 -5 -12 -5 -3 0 -7 1 -8 1 -4 0 -14 10 -16 14 0 3 -5
16 -9 30 -9 24 -11 38 -6 40 2 0 -3 20 -7 28 -1 2 -6 6 -11 8 -7 4 -12 4 -51
4 -41 -1 -42 -1 -53 -6 -12 -6 -22 -14 -27 -23 -10 -15 -20 -27 -27 -30 -18
-9 -40 -2 -43 14 -3 11 -13 31 -20 36 -10 8 -19 8 -40 2 -23 -7 -27 -7 -53 1
-27 8 -36 8 -50 -2 -5 -3 -18 -27 -18 -31 0 -3 -12 -14 -20 -19 -4 -2 -12 -9
-18 -16 -6 -6 -16 -14 -22 -18 -15 -10 -17 -11 -30 -27 -12 -15 -15 -20 -15
-32 0 -9 4 -15 16 -22 12 -7 15 -12 15 -26 0 -10 -1 -12 -6 -17 -3 -3 -7 -6
-9 -6 -13 -1 -19 0 -30 6 -12 6 -16 7 -27 7 -9 0 -15 -1 -18 -4 -8 -5 -28 -4
-35 2 -6 4 -6 6 -6 20 0 14 0 16 6 20 8 8 28 6 41 -2 8 -5 11 -6 25 -7 l17 0
2 5 c4 9 3 23 0 28 -4 5 -34 24 -43 28 -4 2 -14 4 -23 4 -10 1 -16 3 -18 5 -5
5 -5 15 0 20 5 5 6 5 32 -1 16 -3 25 -2 34 2 9 5 27 24 35 37 6 9 9 12 13 12
4 0 4 1 1 1 -4 1 -4 2 -3 13 0 14 -3 21 -14 24 -5 2 -37 2 -98 1 -94 -1 -96
-1 -96 -3 0 -1 -1 -2 -3 -2 -4 0 -14 -12 -18 -21 -3 -7 -3 -26 -3 -170 0 -173
0 -171 9 -181 6 -5 29 -12 35 -10 4 2 11 1 21 -2 16 -7 16 -43 0 -50 -10 -3
-17 -4 -21 -2 -6 2 -29 -5 -35 -10 -5 -6 -9 -17 -9 -30 0 -24 8 -35 31 -46 19
-9 21 -12 21 -24 0 -12 -2 -15 -21 -24 -25 -11 -34 -27 -28 -45 3 -10 14 -23
18 -23 2 0 3 -1 3 -2 0 -3 14 -3 173 -3 l162 0 6 -6 6 -6 -1 -28 c-1 -15 -1
-32 -1 -37 0 -8 -1 -10 -6 -14 l-6 -6 -194 -1 c-107 0 -195 -1 -196 -1 -2 0
-3 -1 -3 -2 0 -1 -1 -2 -3 -2 -4 0 -14 -12 -18 -21 -3 -8 -3 -15 -2 -60 2 -65
2 -81 0 -139 l-1 -48 7 -22 c4 -12 7 -24 7 -26 0 -2 -3 -14 -7 -25 l-7 -22 0
-118 c0 -79 1 -121 2 -125 3 -8 4 -10 11 -27 7 -17 7 -28 -1 -46 -7 -15 -12
-21 -18 -21 -2 0 -4 -1 -4 -2 0 -2 -1 0 -3 3 -1 3 -5 8 -7 11 -18 18 -19 26
-13 53 7 30 8 25 -10 97 -4 16 -8 32 -8 35 -1 3 -4 15 -7 26 -3 11 -7 27 -9
35 -2 8 -6 18 -8 22 -5 6 -6 6 -20 6 -18 0 -19 -1 -19 -24 1 -24 -7 -33 -27
-33 -14 0 -20 4 -29 18 -11 17 -15 20 -35 22 -6 1 -11 0 -24 -5 -20 -8 -20 -8
-26 -2 -3 4 -5 8 -5 15 -1 9 0 10 5 16 l6 6 27 -1 c23 0 29 1 42 4 31 9 47 7
61 -6 l8 -8 17 0 c13 0 17 1 22 4 7 5 23 10 25 9 0 -1 1 -1 1 1 0 1 1 2 3 2 4
0 14 12 18 21 3 6 3 19 3 93 0 78 0 87 -4 104 -5 23 -5 26 0 52 l5 21 -6 21
c-6 26 -6 27 0 50 5 19 5 20 5 110 l0 92 -5 17 c-6 21 -6 29 0 50 5 16 5 21 5
60 0 37 0 43 -4 53 -2 6 -5 11 -6 13 -1 1 -3 7 -5 13 -3 9 -3 11 0 20 2 6 5
14 8 17 5 10 3 23 -5 32 -4 4 -8 7 -9 7 -2 0 -3 1 -3 2 0 3 -11 3 -96 3 l-85
0 -6 6 -6 6 1 151 c0 134 0 152 -3 159 -4 9 -14 21 -18 21 -2 0 -3 1 -3 2 0 2
-10 3 -53 3 -60 0 -59 0 -59 -22 0 -15 0 -15 -5 -16 -5 0 -5 0 1 -1 10 0 14
-6 14 -19 0 -17 -10 -25 -28 -21 -10 2 -14 8 -14 21 0 13 4 19 14 19 6 1 6 1
2 1 -6 1 -6 1 -6 16 0 14 -2 18 -10 21 -6 2 -67 2 -72 0z m77 -137 c6 -4 6 -6
6 -20 0 -14 0 -16 -6 -20 -4 -4 -7 -5 -18 -5 -11 0 -14 1 -18 5 -6 4 -6 6 -6
20 0 14 0 16 6 20 4 4 7 5 18 5 11 0 14 -1 18 -5z m899 -26 c16 -7 20 -37 7
-48 -12 -11 -37 -11 -45 1 -2 2 -4 3 -5 3 0 -1 -1 0 -1 2 0 2 -1 3 -2 2 0 -1
-6 -2 -12 -2 l-11 0 0 -13 c0 -7 1 -18 1 -24 2 -12 -1 -16 -10 -16 -7 0 -11 4
-17 17 -3 6 -6 13 -7 14 -1 1 -4 5 -8 9 -10 13 -12 17 -12 27 0 13 6 19 20 19
8 0 11 -1 18 -7 9 -7 9 -7 22 -7 11 1 13 2 18 7 3 4 6 8 6 9 0 1 4 3 9 6 8 4
20 4 29 1z m203 -19 c5 -5 6 -7 6 -16 0 -9 -1 -11 -7 -16 -5 -6 -7 -7 -16 -7
-9 0 -11 1 -16 7 -9 8 -9 23 -1 32 9 9 24 9 34 0z m269 -74 c5 -5 5 -15 0 -20
-9 -9 -24 -2 -24 10 0 8 6 14 14 14 3 0 8 -2 10 -4z m-545 -18 c-1 -12 0 -14
4 -17 3 -2 7 -4 9 -5 2 0 61 -1 131 -1 l128 0 7 -7 c4 -4 6 -7 6 -8 -1 -4 3
-12 10 -16 8 -4 26 -8 29 -6 7 5 19 18 22 22 2 3 4 12 4 22 2 20 6 25 18 23
10 -1 15 -6 16 -17 1 -8 1 -11 -4 -18 -16 -24 -16 -23 -15 -57 0 -11 -5 -24
-11 -29 -2 -1 -3 -4 -3 -5 0 -2 -1 -3 -2 -3 -1 0 -3 -3 -5 -7 -11 -23 -22 -31
-60 -44 l-14 -5 -82 0 c-78 0 -83 0 -102 -5 -23 -5 -22 -5 -48 1 -18 4 -25 4
-61 4 l-41 -1 -6 6 -6 6 0 66 0 66 6 6 c6 6 7 6 25 6 22 1 24 1 31 6 4 3 5 5
4 17 0 14 0 14 5 14 5 0 5 0 5 -14z m-545 -131 c16 -7 20 -37 7 -48 -12 -11
-34 -11 -43 0 -9 10 -9 32 0 42 7 8 24 11 36 6z m-112 -21 c3 -14 7 -21 16
-32 7 -8 8 -11 8 -19 0 -20 -15 -25 -40 -12 -16 8 -26 9 -40 4 -13 -5 -24 -4
-30 2 -7 7 -9 25 -5 40 5 15 11 20 27 22 7 1 19 4 40 11 13 3 13 3 17 0 3 -2
6 -9 7 -16z m-141 -54 c4 -6 4 -24 -1 -30 -7 -9 -27 -9 -34 0 -5 6 -5 24 0 30
7 9 27 9 35 0z m677 -29 c3 -3 4 -7 4 -14 0 -13 -6 -19 -19 -19 -13 0 -19 6
-19 19 0 7 1 11 4 14 7 8 23 8 30 0z m242 -9 c5 -5 6 -7 6 -17 0 -10 -1 -12
-6 -17 -5 -5 -7 -6 -17 -6 -10 0 -12 1 -17 6 -4 3 -6 8 -6 11 0 3 -1 7 -1 9 0
4 3 13 8 17 3 2 7 3 15 3 11 0 13 -1 18 -6z m181 -2 c7 -6 7 -19 1 -25 -6 -7
-19 -7 -25 -1 -7 6 -7 19 -1 25 6 7 19 7 25 1z m-1159 -35 c6 -1 14 -9 14 -13
1 -20 -4 -29 -19 -31 -4 -1 -9 -2 -11 -3 -4 -2 -19 -1 -21 1 -3 2 -1 17 3 24
2 4 4 9 4 10 0 3 10 12 15 13 4 1 8 1 15 -1z m311 -19 c4 -6 4 -8 -1 -14 -6
-6 -17 -10 -34 -11 -12 -1 -13 -1 -17 4 -6 9 3 18 24 22 19 4 24 4 28 -1z
m506 -11 c6 -4 6 -6 6 -20 0 -14 0 -16 -6 -20 -7 -7 -21 -7 -43 0 -10 2 -22 5
-28 6 -13 2 -20 7 -20 16 0 11 6 14 30 17 12 1 24 3 27 4 3 1 11 2 17 2 10 0
13 -1 17 -5z m-861 -24 c1 -1 2 -3 2 -5 0 -2 1 -4 3 -4 1 0 1 -1 0 -2 -6 -4
-7 -16 -7 -82 0 -75 0 -77 16 -94 14 -17 16 -20 16 -30 0 -10 -4 -17 -17 -31
-11 -12 -14 -22 -14 -49 l0 -25 -6 -6 c-4 -3 -8 -6 -9 -6 -1 0 -5 3 -9 6 l-6
6 0 27 c-1 68 -1 85 0 153 2 89 1 90 -23 94 -4 1 -9 2 -11 2 -2 0 -5 0 -7 -2
-1 -1 -7 -2 -14 -2 -19 0 -27 8 -27 27 0 13 4 20 11 24 6 3 26 3 30 1 5 -3 10
-4 29 -4 15 0 19 1 24 4 6 5 11 4 19 -2z m206 -4 l7 -6 0 -30 c0 -29 0 -30 5
-39 6 -9 12 -14 29 -23 10 -6 25 -32 21 -39 -1 -2 -3 -4 -4 -3 -1 1 -2 0 -2
-1 -1 -1 -6 -2 -11 -3 -13 -1 -26 -9 -33 -21 l-5 -9 0 -72 0 -72 -6 -6 -7 -7
-6 7 -7 6 0 156 0 156 6 6 c3 4 6 7 6 7 0 0 4 -3 7 -7z m851 -8 c5 -8 1 -16
-8 -16 -9 0 -13 8 -8 16 2 3 5 5 8 5 3 0 6 -2 8 -5z m-82 -1 c4 -4 5 -8 5 -17
0 -16 3 -29 9 -42 6 -12 7 -26 1 -33 -7 -9 -27 -9 -34 0 -5 5 -5 16 -2 32 2 9
2 15 0 26 -5 29 -5 28 0 33 6 6 16 7 21 1z m-1132 -84 c5 -5 6 -7 6 -16 0 -9
-1 -11 -7 -16 -5 -6 -7 -7 -16 -7 -9 0 -11 1 -16 7 -9 8 -9 23 -1 32 9 9 24 9
34 0z m465 -52 c8 0 14 -8 14 -19 0 -10 -2 -14 -10 -17 -13 -6 -22 -2 -30 13
-4 7 -7 13 -7 14 -1 4 6 12 8 10 1 0 4 0 6 1 2 1 6 1 9 0 2 -1 7 -2 10 -2z
m-411 -79 c4 -6 2 -14 -7 -23 -9 -10 -24 -13 -29 -8 -8 9 1 25 19 33 10 4 12
4 17 -2z m416 1 c1 -1 5 -3 9 -4 5 -1 10 -5 12 -9 10 -13 23 -27 27 -27 2 0 6
-3 13 -11 7 -7 8 -15 1 -29 -9 -20 -21 -30 -36 -30 -13 0 -16 2 -26 23 -5 11
-13 24 -18 29 -11 12 -14 17 -14 29 0 14 5 22 14 25 5 1 9 3 10 4 1 1 3 2 4 2
1 0 3 -1 4 -2z m-201 -25 c2 -2 4 -5 4 -7 0 -2 1 -7 3 -11 2 -4 2 -7 2 -7 -1
0 0 -1 1 -3 1 -2 2 -3 1 -3 -2 0 6 -15 9 -17 4 -3 10 -18 11 -30 2 -13 -1 -25
-7 -31 -9 -12 -24 5 -24 28 0 6 -8 26 -10 28 -1 0 -2 1 -2 3 0 1 -5 7 -11 14
-11 11 -12 15 -11 27 1 14 22 20 34 9z m1274 1 c5 -6 5 -12 0 -18 -7 -8 -22
-2 -22 9 0 11 15 17 22 9z m-72 -23 l-5 -5 -4 4 -5 5 4 4 5 5 4 -4 5 -5 -4 -4z
m-143 -14 c4 -5 11 -12 14 -15 4 -4 13 -11 22 -16 17 -9 19 -12 19 -27 0 -7 0
-15 1 -18 2 -7 10 -24 14 -26 6 -5 11 -14 11 -23 0 -11 7 -37 10 -35 1 1 2 0
2 -2 0 -6 10 -21 14 -21 1 0 2 -1 1 -1 -2 -3 10 -13 18 -15 4 -1 15 -2 24 -2
27 0 71 -15 71 -25 0 -7 -7 -10 -34 -16 -40 -8 -51 -12 -63 -24 -9 -9 -11 -12
-16 -28 -4 -17 -5 -21 -5 -50 0 -31 0 -32 7 -54 13 -37 10 -48 -13 -57 -27
-10 -35 -16 -43 -34 -6 -13 -12 -18 -22 -18 -14 0 -23 14 -23 36 0 17 3 21 24
31 16 8 29 20 33 30 4 9 2 30 -3 38 -3 5 -12 18 -41 56 -2 3 -5 7 -7 9 -2 2
-5 7 -8 10 -3 4 -11 14 -18 23 -8 9 -14 17 -14 18 0 1 -1 4 -3 7 -3 6 -4 32
-1 39 1 2 2 9 2 15 1 14 9 22 22 22 10 0 25 7 29 13 6 10 12 40 11 60 0 16
-12 36 -24 42 -9 5 -29 6 -36 2 -9 -4 -20 -4 -25 1 -6 6 -6 16 -2 32 7 24 15
32 33 32 10 0 11 0 19 -9z m-461 -3 c3 -3 6 -8 7 -13 1 -4 2 -9 3 -11 1 -2 2
-6 2 -8 0 -4 20 -26 23 -26 4 0 9 -12 9 -19 0 -10 -7 -17 -17 -17 -10 0 -16 4
-19 14 -1 4 -4 9 -5 11 -2 4 -2 5 -3 10 0 2 -1 3 -3 3 -1 0 -3 2 -5 4 -1 2 -7
7 -13 11 -15 10 -18 13 -18 25 0 8 1 11 6 16 9 9 24 9 33 0z m219 -32 c5 -5 6
-7 6 -16 0 -9 -1 -11 -7 -16 -5 -6 -7 -7 -16 -7 -9 0 -11 1 -16 7 -9 8 -9 23
-1 32 9 9 24 9 34 0z m-300 -56 c18 -6 36 -15 40 -20 4 -7 4 -24 -1 -31 -3 -5
-19 -17 -39 -29 -16 -10 -58 -13 -73 -5 -7 4 -11 13 -11 25 1 13 5 21 19 31 5
4 13 12 17 17 14 17 23 19 48 12z m318 -56 c5 -5 6 -7 6 -16 0 -9 -1 -11 -7
-16 -5 -6 -7 -7 -16 -7 -5 0 -11 2 -13 3 -2 1 -6 3 -11 3 -4 0 -8 1 -8 1 -3 0
-8 6 -8 8 0 1 1 2 2 1 2 -1 2 -1 1 2 0 2 0 3 1 3 1 0 4 3 6 7 12 18 34 23 47
11z m-81 -28 c0 -1 1 -2 3 -2 2 0 6 -1 10 -3 3 -1 7 -3 9 -4 2 0 1 -1 -2 -1
-8 0 -15 -10 -17 -22 -3 -16 -24 -87 -38 -126 -5 -15 -5 -22 0 -44 2 -6 3 -15
3 -19 0 -8 -11 -41 -15 -46 -6 -8 -19 -18 -27 -21 -3 -1 -6 -3 -6 -4 0 -1 -4
0 -8 2 -15 6 -18 22 -9 55 5 19 5 22 5 64 -1 38 -2 45 -5 51 -4 9 -14 18 -28
26 -12 7 -22 14 -37 29 -9 8 -13 21 -10 34 4 14 14 21 30 20 14 -1 22 -1 26 1
2 1 6 2 8 2 3 0 10 2 16 5 10 4 14 5 52 5 25 0 40 -1 40 -2z m-673 -15 c4 -4
5 -7 5 -13 0 -11 -7 -18 -18 -18 -11 0 -18 7 -18 18 0 11 7 18 18 18 6 0 9 -1
13 -5z m833 -27 c3 -5 3 -7 -1 -13 -4 -9 -6 -9 -13 -1 -7 8 -7 9 -3 16 5 6 13
5 17 -2z m-951 -10 c10 -9 3 -26 -10 -26 -8 0 -15 7 -15 15 0 13 16 20 25 11z
m878 -15 c6 -4 6 -6 6 -20 0 -14 0 -16 -6 -20 -4 -4 -7 -5 -18 -5 -11 0 -14 1
-18 5 -6 4 -6 6 -6 20 0 14 0 16 6 20 4 4 7 5 18 5 11 0 14 -1 18 -5z m107
-17 c6 0 16 -5 19 -8 3 -4 4 -7 4 -19 0 -14 0 -16 -6 -20 -8 -7 -28 -7 -36 0
-5 4 -6 6 -7 19 0 11 0 16 3 22 4 9 7 10 16 8 3 -1 6 -2 7 -2z m-1133 -5 c5
-8 1 -16 -8 -16 -9 0 -13 8 -8 16 2 3 5 5 8 5 3 0 6 -2 8 -5z m1442 -76 c6 -6
11 -12 11 -13 0 -2 0 -2 -2 0 -1 2 -2 2 -2 1 0 -2 -19 -7 -27 -7 -11 0 -17 17
-9 25 8 8 16 7 29 -6z m58 -15 c11 -10 3 -28 -11 -28 -6 0 -9 2 -20 12 l-12
12 6 2 c17 7 31 7 37 2z m-787 -26 c7 -3 8 -7 8 -21 0 -7 -1 -12 -3 -15 -5 -6
-34 -19 -38 -18 -9 3 -10 44 -2 52 8 8 24 9 35 2z m475 -5 c3 -5 3 -5 0 -10
-2 -3 -5 -5 -7 -5 -2 0 -5 2 -7 5 -3 5 -3 5 0 10 2 3 5 5 7 5 2 0 5 -2 7 -5z
m-515 -62 c1 -3 2 -7 2 -9 -1 -15 -1 -45 0 -55 4 -26 -5 -39 -27 -40 -15 -1
-26 7 -29 21 -2 9 -2 11 3 23 17 47 21 55 30 60 4 2 7 4 7 5 0 1 2 1 5 1 4 0
7 -2 9 -6z m827 -10 c3 -5 3 -5 0 -10 -2 -3 -5 -5 -7 -5 -2 0 -5 2 -7 5 -3 5
-3 5 0 10 2 3 5 5 7 5 2 0 5 -2 7 -5z m-557 -1 c2 -2 4 -5 4 -6 0 -5 8 -27 14
-41 8 -18 8 -35 -1 -42 -8 -7 -28 -7 -36 0 -7 6 -9 21 -4 38 2 7 3 20 3 30 1
18 1 19 6 22 6 3 10 3 14 -1z m-575 -9 c3 -3 3 -3 0 -6 -3 -3 -3 -3 -6 0 -3 2
-3 3 -1 6 4 4 4 4 7 0z m45 -87 c5 -5 6 -7 6 -17 0 -10 -1 -12 -6 -17 -5 -5
-7 -6 -17 -6 -10 0 -12 1 -17 6 -5 5 -6 7 -6 17 0 10 1 12 6 17 5 5 7 6 17 6
10 0 12 -1 17 -6z m-525 -75 c0 -3 0 0 0 8 0 8 0 11 0 6 1 -4 1 -10 0 -14z
m1644 14 c5 -8 1 -16 -8 -16 -9 0 -13 8 -8 16 2 3 5 5 8 5 3 0 6 -2 8 -5z
m-1635 -26 c16 -6 49 -16 53 -15 5 1 10 -1 14 -5 7 -7 7 -23 0 -30 -5 -5 -6
-5 -16 -4 -5 0 -19 4 -30 8 -11 4 -24 7 -29 8 -13 2 -18 8 -18 20 0 16 12 24
26 18z m887 -70 c4 -4 5 -7 5 -18 0 -18 -4 -29 -13 -34 -7 -4 -7 -4 -14 0 -9
5 -13 16 -13 34 0 18 5 23 20 23 8 0 11 -1 15 -5z m-144 -29 c7 -6 7 -19 1
-25 -6 -7 -19 -7 -25 -1 -7 6 -7 19 -1 25 6 7 19 7 25 1z m-186 -45 c3 -3 3
-3 0 -6 -3 -3 -3 -3 -6 0 -3 2 -3 3 -1 6 4 4 4 4 7 0z m896 -31 c5 -5 6 -7 6
-16 0 -9 -1 -11 -7 -16 -5 -6 -7 -7 -16 -7 -9 0 -11 1 -16 7 -9 8 -9 23 -1 32
9 9 24 9 34 0z m176 -32 c2 -2 3 -7 2 -20 -1 -27 -5 -36 -16 -36 -9 0 -14 7
-12 18 2 15 9 33 14 38 6 5 7 5 12 0z m-818 -53 c4 -4 5 -7 5 -13 0 -11 -7
-18 -18 -18 -11 0 -18 7 -18 18 0 11 7 18 18 18 6 0 9 -1 13 -5z"/>
<path d="M339 2531 c-3 -1 -6 -4 -7 -5 -2 -2 -2 -2 -2 0 0 1 -1 2 -2 1 -1 -1
-2 0 -2 2 0 3 -1 2 -3 -2 -5 -9 -2 -51 3 -58 2 -2 8 -3 17 -3 15 0 15 0 16 -5
0 -6 0 -5 1 1 0 4 3 11 8 18 7 11 9 18 8 33 0 2 -4 7 -8 11 -10 10 -18 11 -29
7z"/>
</g>
</svg>
