<?xml version="1.0" standalone="no"?>
<!DOCTYPE svg PUBLIC "-//W3C//DTD SVG 20010904//EN"
 "http://www.w3.org/TR/2001/REC-SVG-20010904/DTD/svg10.dtd">
<svg version="1.0" xmlns="http://www.w3.org/2000/svg"
 width="1000.000000pt" height="2850.000000pt" viewBox="0 0 1000.000000 2850.000000"
 preserveAspectRatio="xMidYMid meet">
<metadata>
Created by potrace 1.15, written by Peter Selinger 2001-2017
</metadata>
<g transform="translate(0.000000,2850.000000) scale(0.500000,-0.500000)"
fill="#000000" stroke="none">
<path d="M1038 3804 c-3 -1 -6 -1 -7 0 0 0 -1 0 -1 -2 0 -1 -1 -2 -3 -2 -4 0
-14 -12 -18 -21 -5 -13 -4 -55 2 -66 5 -10 16 -18 33 -24 17 -5 21 -11 21 -27
0 -16 -4 -22 -21 -27 -21 -8 -32 -17 -34 -28 -1 -2 -4 -6 -7 -8 -3 -1 -6 -4
-6 -6 -1 -1 -5 -2 -16 -1 -13 0 -17 -1 -37 -8 -22 -7 -27 -8 -43 -6 -7 1 -24
-4 -29 -9 -10 -7 -10 -11 -10 -118 0 -87 0 -102 3 -108 4 -9 14 -21 18 -21 2
0 3 -1 3 -2 0 -2 1 -2 35 -3 24 -1 35 0 51 3 39 6 45 0 37 -41 -3 -14 -3 -57
-3 -312 0 -305 0 -306 8 -313 3 -2 3 -4 1 -10 -1 -4 -2 -6 -3 -5 0 1 -3 2 -5
2 -2 -1 -12 -1 -21 -2 -23 0 -33 -5 -49 -26 -12 -14 -25 -45 -23 -54 0 -1 -3
-5 -6 -9 -5 -6 -7 -6 -17 -6 -14 1 -30 -3 -36 -8 -2 -2 -4 -4 -5 -4 -4 0 -6
-19 -6 -50 0 -33 -3 -55 -8 -58 -1 -1 -2 -3 -3 -5 0 -3 -1 -3 -1 1 0 7 -11 17
-22 20 -10 3 -19 1 -68 -11 -23 -6 -22 -5 -46 -11 -9 -2 -19 -5 -22 -5 -3 -1
-6 -2 -6 -1 -1 0 -2 -1 -2 -2 0 -1 -2 1 -5 4 l-6 5 -1 84 -1 84 6 6 6 6 58 -1
58 0 11 6 c9 4 13 8 21 21 6 9 14 20 18 25 13 13 16 25 17 49 0 18 0 22 -4 29
-5 11 -17 16 -33 16 -35 -1 -42 3 -42 26 0 23 7 27 42 26 16 0 28 5 33 16 5
10 5 26 1 37 -4 9 -14 21 -18 21 -2 0 -3 1 -3 2 0 2 -2 2 -74 3 l-69 1 -22 -7
c-25 -8 -32 -9 -37 -2 -4 4 -4 6 -3 28 2 35 3 41 15 53 19 20 22 35 11 52 -3
6 -7 10 -8 10 -2 0 -8 6 -12 13 -3 5 -3 5 1 10 5 5 9 5 31 -4 l14 -6 65 0 c65
0 76 1 76 3 0 1 1 2 3 2 4 0 14 12 18 21 2 6 3 14 3 39 0 32 -2 40 -9 49 -5 5
-28 13 -38 13 -4 0 -8 0 -9 1 -6 5 -26 7 -58 6 -33 0 -33 0 -47 -7 -7 -3 -13
-7 -13 -8 0 -2 -6 -2 -19 2 -7 2 -19 6 -27 8 -18 6 -23 11 -17 20 3 6 2 5 24
16 19 9 34 13 62 18 14 3 23 0 36 -12 8 -7 16 -10 26 -10 2 0 11 3 21 7 9 4
19 8 22 7 8 0 32 8 37 13 9 11 9 6 9 255 0 250 0 247 -9 258 -18 23 -42 19
-58 -8 -11 -19 -15 -23 -27 -23 -10 0 -11 1 -17 8 -3 3 -9 12 -13 19 -6 9 -10
12 -18 17 l-11 5 -161 0 -161 -1 -18 -9 c-25 -12 -25 -12 -48 -1 l-20 10 -66
0 c-66 0 -77 -1 -77 -3 0 -1 -1 -2 -3 -2 -3 0 -14 -12 -17 -19 -1 -3 -2 -8 -2
-11 0 -6 8 -23 12 -28 6 -6 12 -19 12 -25 0 -7 -6 -19 -12 -25 -1 -2 -5 -8 -8
-15 -5 -11 -6 -14 -6 -33 0 -35 5 -44 25 -45 5 -1 11 -1 12 -2 2 0 3 0 3 1 1
3 14 5 22 4 11 -3 14 -8 14 -24 0 -26 -12 -38 -28 -31 -6 3 -8 5 -8 9 0 3 -1
4 -1 3 -1 -2 -6 -3 -15 -3 -12 0 -15 -1 -19 -5 -5 -5 -5 -6 -5 -35 0 -41 4
-48 26 -54 5 -1 13 -2 18 -2 11 0 18 -6 18 -16 0 -10 -7 -16 -18 -16 -10 1
-25 -3 -31 -7 -18 -11 -17 -48 2 -65 4 -5 8 -8 9 -8 3 0 20 -12 21 -15 1 -4 1
-20 0 -24 -1 -3 -18 -15 -21 -15 -1 0 -5 -3 -9 -8 -14 -13 -15 -19 -15 -84 0
-72 1 -75 31 -90 12 -6 13 -6 25 -4 14 2 28 12 31 20 3 9 28 14 37 7 2 -2 8
-11 13 -20 7 -13 10 -17 18 -22 l10 -6 47 -1 c51 -1 63 -4 88 -16 13 -7 16
-10 16 -20 0 -10 -3 -14 -20 -22 -27 -14 -32 -27 -20 -56 7 -18 8 -25 1 -42
-11 -27 -11 -27 -11 -97 0 -69 0 -73 8 -82 5 -4 30 -11 33 -9 1 1 7 2 13 2 9
0 11 -1 16 -6 5 -5 6 -7 6 -16 0 -6 -1 -13 -3 -15 -3 -4 -2 -23 1 -32 2 -3 7
-10 12 -15 10 -9 10 -9 10 -22 0 -11 -1 -13 -6 -18 -6 -6 -7 -7 -20 -6 -11 0
-30 7 -30 11 0 2 -9 2 -19 0 -5 -1 -8 -9 -5 -12 2 -2 2 -3 1 -3 0 0 0 -2 2 -5
2 -5 2 -7 -2 -18 -3 -8 -6 -16 -8 -19 -8 -16 -9 -23 -9 -64 1 -37 1 -40 5 -45
3 -3 5 -6 6 -5 1 1 2 0 3 -1 2 -5 23 -5 32 -1 11 6 29 3 36 -5 9 -10 9 -34 -1
-43 -2 -2 -11 -6 -19 -9 -9 -3 -20 -8 -24 -12 -18 -13 -23 -17 -26 -17 -3 0
-18 10 -18 12 0 2 -1 2 -1 1 -1 -1 -4 5 -7 13 -6 15 -6 16 -6 56 0 43 -1 51
-9 60 -4 5 -27 16 -33 16 -6 0 -12 8 -12 16 0 8 7 16 13 16 5 0 28 11 32 16 9
10 9 12 9 168 0 164 0 166 -12 175 -5 4 -23 5 -35 1 -8 -2 -9 -2 -12 1 -3 3
-3 3 0 7 3 2 7 4 11 4 7 0 10 2 23 14 l14 14 -1 11 c-3 16 -6 22 -16 26 -10 4
-29 4 -41 0 -6 -2 -17 -8 -25 -13 -22 -14 -28 -14 -50 0 -37 24 -65 21 -78 -8
-2 -5 -6 -12 -7 -16 -2 -4 -8 -11 -12 -16 -15 -17 -17 -23 -17 -62 0 -44 4
-53 31 -65 13 -6 16 -9 20 -24 2 -7 3 -12 3 -12 0 0 2 -6 4 -13 7 -24 3 -34
-14 -34 -10 1 -25 -3 -31 -7 -3 -2 -7 -7 -9 -11 -4 -8 -4 -11 -4 -184 l0 -175
-4 -7 c-5 -6 -7 -7 -25 -11 -33 -7 -44 -16 -49 -36 -1 -8 0 -18 13 -80 9 -38
18 -82 21 -98 7 -31 11 -43 18 -53 8 -11 24 -24 34 -27 20 -6 22 -6 73 8 26 7
65 18 85 23 31 9 40 12 60 22 l23 13 27 1 c25 1 30 2 75 15 26 7 59 16 73 20
28 8 37 13 41 22 3 8 4 28 2 31 -6 8 -5 29 3 36 9 10 33 9 41 -1 3 -3 5 -9 6
-13 5 -27 23 -42 45 -36 5 2 10 3 11 3 2 0 29 8 60 17 32 9 62 17 68 17 5 1
11 2 12 2 2 0 3 0 4 -1 2 -3 -9 -11 -28 -21 -11 -5 -22 -12 -25 -15 -6 -6 -6
-7 -6 -20 l0 -15 15 -14 c23 -21 68 -66 84 -84 8 -9 17 -19 21 -23 3 -4 11
-13 18 -21 6 -8 12 -15 13 -16 1 -1 4 -5 6 -8 2 -3 7 -9 11 -12 6 -7 7 -7 21
-7 l15 0 7 9 c10 12 17 16 32 19 19 4 34 9 43 16 5 3 13 8 17 11 21 13 71 49
80 58 2 1 4 3 5 3 1 0 4 4 7 8 6 9 10 25 12 43 2 13 9 23 17 23 3 0 14 1 24 1
25 0 32 4 56 27 22 23 25 27 31 48 7 21 11 26 32 36 28 14 32 20 31 42 -1 9
-2 13 -6 16 -8 7 -68 36 -75 36 -8 0 -21 -4 -32 -11 -7 -4 -12 -5 -19 -5 -12
0 -16 5 -20 22 -4 22 -4 24 -6 24 -1 0 -2 1 -2 3 0 5 -13 17 -20 18 l-6 1 6 6
7 5 207 0 207 1 8 -6 c4 -3 6 -6 5 -6 -2 0 -14 -6 -26 -13 -13 -8 -27 -16 -32
-19 -5 -2 -15 -8 -22 -12 -6 -5 -13 -8 -14 -8 -4 0 -20 -17 -27 -30 -10 -18
-11 -19 -31 -21 -23 -1 -26 -3 -26 -21 0 -13 0 -14 6 -19 13 -13 24 -23 42
-40 l18 -17 15 -1 c14 -1 15 -1 16 3 1 2 2 4 3 4 1 0 7 11 9 19 2 8 10 13 22
13 10 0 12 -1 17 -6 5 -5 6 -7 6 -16 0 -14 -3 -19 -16 -25 -5 -2 -9 -4 -10 -4
-3 0 -14 -9 -13 -11 0 0 1 -7 2 -13 1 -12 2 -13 13 -24 6 -6 16 -13 22 -16 6
-3 14 -7 17 -9 10 -5 15 -10 20 -24 8 -19 11 -24 25 -40 31 -35 37 -39 68 -41
17 -2 22 -6 22 -18 0 -5 0 -9 0 -10 -1 -1 0 -6 1 -12 2 -14 7 -20 19 -21 9 0
12 1 40 17 39 23 38 22 45 27 3 2 9 5 12 7 3 2 11 6 16 10 6 4 18 11 27 16 19
11 48 38 48 45 0 1 4 4 10 7 5 3 12 8 14 12 5 7 9 30 6 32 -1 1 -6 7 -11 15
-5 8 -12 17 -16 21 -3 3 -11 12 -17 19 l-12 12 -12 0 c-14 0 -19 -2 -27 -9 -3
-3 -7 -6 -8 -7 -2 -1 -5 -2 -8 -2 -10 0 -17 14 -10 20 2 1 3 3 3 4 0 2 3 5 6
9 5 6 5 8 6 20 l0 13 -13 13 c-7 6 -19 18 -28 26 -9 8 -18 16 -20 18 -18 18
-32 29 -49 37 -20 10 -24 14 -32 28 -9 14 -37 42 -44 42 -8 0 13 11 25 12 15
2 19 4 37 14 21 12 31 12 53 -1 23 -13 27 -13 87 -12 56 1 58 1 58 3 0 1 1 2
3 2 3 0 14 12 17 19 3 7 6 109 4 109 -1 0 -2 1 -2 2 1 0 -1 3 -3 6 -1 3 -3 4
-3 3 0 -1 -6 -2 -15 -1 -13 0 -15 1 -15 5 -1 2 -2 -4 -3 -14 -2 -20 -5 -25
-15 -25 -8 0 -14 6 -14 15 0 3 1 7 2 8 4 5 16 39 16 48 0 4 6 10 10 10 4 0 26
9 32 14 10 8 13 33 7 48 -4 9 -14 21 -18 21 -2 0 -3 1 -3 2 0 2 -1 2 -1 2 -1
-1 -4 -1 -7 0 -9 3 -153 3 -164 0 -13 -3 -32 -3 -37 0 -8 4 -11 10 -11 23 0
10 1 12 6 17 3 3 7 6 9 6 11 1 20 0 26 -2 10 -3 27 -1 32 5 8 7 11 18 11 33
-1 14 -1 15 -8 22 -5 5 -10 8 -15 9 -5 1 -10 2 -12 3 -3 1 -5 1 -5 0 -1 -1 -3
-2 -6 -2 -19 -2 -26 4 -26 21 0 17 7 23 26 21 3 0 5 -1 6 -2 0 -1 2 -1 5 0 2
1 7 2 12 3 5 1 10 4 15 9 l8 8 -1 247 0 246 6 6 6 6 39 0 c39 0 39 0 51 6 14
6 18 9 23 20 9 18 10 22 10 92 0 71 0 73 -10 88 -13 17 -39 15 -60 -5 -14 -13
-16 -24 -9 -45 10 -29 5 -41 -15 -41 -8 0 -11 1 -15 5 -5 5 -5 6 -4 25 1 17 1
22 -3 37 -5 20 -5 27 3 44 3 6 5 15 5 20 0 8 -6 20 -12 22 -2 1 -5 3 -6 6 -1
2 -5 6 -9 8 -4 2 -7 4 -7 5 1 1 -1 5 -4 14 -1 2 -2 8 -2 12 0 7 1 11 6 23 7
17 8 22 8 70 0 40 -1 50 -3 56 -4 9 -14 21 -18 21 -2 0 -3 1 -3 2 0 3 -13 3
-128 3 -115 0 -128 0 -128 -3 0 -1 -1 -2 -3 -2 -4 0 -14 -12 -18 -21 -3 -7 -3
-19 -3 -92 l1 -84 -6 -6 -6 -6 -58 1 c-38 0 -62 -1 -70 -2 -7 -1 -21 -3 -33
-3 -26 -1 -32 -3 -48 -19 -12 -12 -14 -13 -28 -12 -11 0 -19 9 -19 22 0 15 8
22 23 23 6 0 13 1 17 3 3 1 5 1 5 1 0 -3 12 5 17 11 8 10 9 21 9 91 0 54 0 66
-3 72 -4 9 -14 21 -18 21 -2 0 -3 1 -3 2 0 1 -1 2 -2 2 -7 1 -234 2 -238 0z
m199 -44 c10 -9 3 -26 -10 -26 -8 0 -15 7 -15 15 0 13 16 20 25 11z m-900 -81
c6 -7 6 -13 1 -19 -7 -8 -22 -2 -22 9 0 6 9 15 14 15 1 0 5 -2 7 -5z m846 -6
c3 -5 3 -5 0 -10 -2 -3 -5 -5 -7 -5 -2 0 -5 2 -7 5 -3 5 -3 5 0 10 2 3 5 5 7
5 2 0 5 -2 7 -5z m-688 -31 c6 -6 6 -14 2 -25 -4 -10 -5 -36 -1 -45 2 -4 2
-10 1 -18 -1 -15 -9 -44 -12 -44 -2 0 -2 -4 0 -12 1 -2 1 -3 1 -4 0 -1 2 -4 4
-8 6 -11 16 -16 32 -15 12 0 13 0 19 -6 l6 -6 0 -47 0 -47 6 -10 c3 -5 8 -11
11 -12 8 -6 18 -18 18 -22 0 -9 -12 -18 -30 -24 -15 -4 -20 -5 -52 -5 -46 0
-51 -3 -51 -26 0 -6 -1 -12 -2 -12 -1 -1 -1 -2 1 -2 1 0 6 -3 11 -8 8 -7 25
-15 38 -17 12 -3 17 -14 9 -23 -4 -4 -9 -5 -19 -1 -13 4 -33 5 -46 2 -17 -4
-31 0 -36 10 -6 11 -3 37 5 37 2 0 2 1 1 2 -1 0 -2 6 -2 12 0 13 -3 18 -11 23
-4 2 -6 2 -7 1 0 -2 -1 -2 -1 0 0 2 -2 6 -5 8 l-6 5 0 78 0 78 6 6 6 6 27 0
c23 -1 28 0 34 3 7 4 13 12 15 20 0 2 2 6 3 10 1 5 1 6 -1 6 -3 0 -7 9 -13 28
-6 17 -18 38 -25 41 -3 2 -7 5 -9 6 -1 2 -3 3 -5 3 -1 0 -4 2 -7 5 -5 5 -6 8
-6 14 0 12 6 17 19 17 12 0 27 4 36 10 17 13 28 15 36 8z m1088 -18 c11 -10 3
-28 -11 -28 -9 0 -16 6 -16 16 0 14 17 22 27 12z m-917 -90 c5 -5 5 -11 0 -16
-10 -10 -27 5 -16 16 4 4 12 4 16 0z m1057 -49 c5 -3 17 -7 27 -9 11 -3 21 -6
23 -8 5 -5 -2 -10 -16 -11 -15 -2 -37 -6 -40 -9 -2 -2 -8 -3 -13 -3 -9 0 -11
1 -16 7 -6 5 -7 7 -7 16 0 21 19 29 42 17z m-410 -8 c6 -4 6 -6 6 -20 0 -14 0
-16 -6 -20 -4 -4 -7 -5 -18 -5 -11 0 -14 1 -18 5 -6 4 -6 6 -6 20 0 14 0 16 6
20 4 4 7 5 18 5 11 0 14 -1 18 -5z m-995 -11 c5 -5 6 -7 6 -17 0 -10 -1 -12
-6 -17 -5 -5 -7 -6 -17 -6 -10 0 -12 1 -17 6 -5 5 -6 7 -6 17 0 10 1 12 6 17
5 5 7 6 17 6 10 0 12 -1 17 -6z m625 -1 c4 -4 5 -7 5 -15 0 -14 -6 -20 -20
-20 -14 0 -20 6 -20 20 0 14 6 20 20 20 8 0 11 -1 15 -5z m633 -1 c1 0 5 -3 8
-6 5 -5 6 -7 6 -18 0 -11 -1 -13 -6 -18 -6 -6 -7 -6 -18 -6 -11 0 -12 0 -18 6
-5 5 -6 7 -6 17 0 14 3 20 12 24 5 2 8 2 22 1z m-479 -39 c3 -3 3 -3 0 -6 -3
-3 -3 -3 -6 0 -3 2 -3 3 -1 6 4 4 4 4 7 0z m-314 -51 c5 -7 4 -21 -4 -43 -9
-27 -19 -35 -27 -24 -8 10 -11 59 -5 67 8 9 28 9 36 0z m429 -37 c5 -6 5 -14
0 -28 -6 -18 -15 -25 -31 -26 -21 -1 -34 16 -29 38 4 13 11 18 32 22 10 1 23
-1 28 -6z m-968 3 c21 -4 43 -13 48 -18 5 -5 6 -7 6 -17 0 -15 -7 -23 -20 -23
-24 -1 -56 5 -63 11 -10 8 -11 32 -1 42 3 3 10 6 18 7 1 0 7 -1 12 -2z m1245
-10 c4 -2 10 -6 13 -8 3 -3 8 -7 11 -9 3 -2 8 -6 12 -9 7 -6 26 -15 37 -17 4
-1 8 -2 9 -2 0 0 3 -1 6 -1 3 0 8 -3 11 -6 5 -5 6 -7 6 -16 0 -6 -1 -13 -3
-16 -4 -7 -22 -16 -34 -17 -7 -1 -9 -1 -15 6 -4 3 -9 11 -12 16 -5 7 -8 10
-17 14 l-11 5 -94 0 -95 -1 -6 6 c-5 6 -6 8 -6 18 0 10 1 12 6 18 l6 6 60 -1
c66 0 60 -1 92 13 14 6 14 6 24 1z m228 -32 c11 -10 3 -28 -11 -28 -9 0 -16 6
-16 16 0 14 17 22 27 12z m-1008 -22 c6 -6 7 -16 1 -21 -10 -9 -26 -3 -26 10
0 13 16 20 25 11z m-455 -54 c5 -5 6 -7 6 -17 0 -10 -1 -12 -6 -17 -5 -5 -7
-6 -17 -6 -10 0 -12 1 -17 6 -5 5 -6 7 -6 17 0 10 1 12 6 17 5 5 7 6 17 6 10
0 12 -1 17 -6z m1096 -52 c5 -5 5 -11 0 -16 -10 -10 -27 5 -16 16 4 4 12 4 16
0z m232 -46 c5 -5 5 -15 0 -20 -9 -9 -24 -2 -24 10 0 8 6 14 14 14 3 0 8 -2
10 -4z m-1056 -14 c5 -5 6 -7 6 -17 0 -10 -1 -12 -6 -17 -5 -5 -7 -6 -17 -6
-10 0 -12 1 -17 6 -5 5 -6 7 -6 17 0 10 1 12 6 17 5 5 7 6 17 6 10 0 12 -1 17
-6z m160 -10 c9 -9 2 -26 -11 -26 -14 0 -20 16 -10 27 6 6 13 6 21 -1z m819
-12 c10 -9 3 -26 -10 -26 -8 0 -15 7 -15 15 0 13 16 20 25 11z m-209 -20 c5
-5 5 -13 1 -16 -1 -2 -3 -5 -3 -6 -3 -8 -20 4 -20 13 0 11 15 17 22 9z m-735
-57 c5 -8 1 -16 -8 -16 -9 0 -13 8 -8 16 2 3 5 5 8 5 3 0 6 -2 8 -5z m840 0
l86 0 6 -5 c3 -4 6 -6 7 -6 1 0 2 -1 2 -3 0 -4 11 -13 20 -15 8 -2 12 -2 24
-2 12 1 14 0 20 -6 5 -5 6 -7 6 -18 0 -11 -1 -13 -6 -18 -6 -6 -7 -6 -18 -6
-3 0 -7 0 -9 0 -1 0 -9 5 -18 11 -9 6 -21 11 -25 13 -7 1 -33 2 -96 2 l-87 -1
-6 6 c-6 6 -6 7 -6 21 0 13 1 15 6 21 3 3 5 7 5 9 0 3 0 3 2 0 2 -3 14 -3 87
-3z m-176 -38 c8 -7 7 -20 -2 -36 -6 -12 -14 -35 -13 -40 2 -8 -1 -16 -6 -21
-5 -5 -7 -6 -17 -6 -10 0 -12 1 -17 6 -5 5 -6 7 -6 16 0 9 5 23 9 26 4 3 13
24 16 38 3 18 7 22 21 22 8 0 11 -1 15 -5z m-692 -24 c25 -5 30 -10 30 -29 0
-26 -20 -34 -51 -20 -28 12 -34 19 -34 33 0 20 13 24 55 16z m1054 -70 c4 -4
5 -7 5 -15 0 -14 -6 -20 -20 -20 -14 0 -20 6 -20 20 0 14 6 20 20 20 8 0 11
-1 15 -5z m-257 -68 c6 -7 6 -21 0 -27 -5 -5 -19 -5 -34 -1 -17 5 -22 15 -13
25 9 10 39 12 47 3z m320 -9 c7 -7 4 -20 -6 -24 -13 -5 -22 3 -18 17 4 11 16
15 24 7z m-940 -41 c3 -3 4 -7 4 -14 0 -13 -6 -19 -19 -19 -13 0 -19 6 -19 19
0 7 1 11 4 14 7 8 23 8 30 0z m895 -2 c7 -7 9 -21 5 -36 -4 -14 -11 -19 -27
-20 -15 -1 -25 7 -29 20 -4 16 2 31 15 36 8 3 33 3 36 0z m-986 -7 c5 -5 6 -7
6 -16 0 -9 -1 -11 -7 -16 -5 -6 -7 -7 -16 -7 -9 0 -11 1 -16 7 -9 8 -9 23 -1
32 9 9 24 9 34 0z m620 -36 c10 -9 3 -26 -10 -26 -8 0 -15 7 -15 15 0 13 16
20 25 11z m253 -23 c4 -4 6 -8 6 -11 0 -2 1 -4 2 -5 1 -1 2 -3 2 -5 0 -6 13
-17 22 -20 4 -1 8 -3 9 -4 1 -1 3 -2 4 -2 5 0 11 -8 11 -13 0 -2 -2 -6 -4 -9
-5 -5 -12 -5 -26 2 -27 12 -38 13 -136 13 l-69 0 -6 6 c-6 6 -6 7 -6 24 0 17
0 18 6 24 l6 6 87 0 87 0 5 -6z m-375 -35 c11 -10 4 -23 -13 -28 -10 -3 -25
-10 -29 -13 -14 -14 -29 -18 -40 -11 -7 5 -19 23 -19 29 0 5 1 5 11 5 5 0 11
0 12 0 12 -3 38 4 47 12 11 10 24 13 31 6z m572 -86 c2 -15 0 -42 -4 -49 -4
-8 -10 -11 -28 -13 -13 -1 -14 -1 -20 5 -5 5 -6 6 -4 20 1 18 3 23 18 37 23
21 35 21 38 0z m-710 -28 c6 -8 6 -8 0 -16 -10 -11 -25 -6 -27 10 -1 14 19 19
27 6z m188 -6 c4 -5 4 -21 0 -30 -3 -7 -3 -25 0 -40 1 -5 0 -8 -2 -11 -3 -4
-3 -4 -6 0 -2 2 -3 6 -3 8 0 4 -10 25 -12 27 -1 1 -5 5 -9 11 -6 8 -7 11 -7
20 0 7 1 12 4 15 7 9 27 9 35 0z m-101 -1 c15 -8 14 -41 -1 -48 -8 -4 -24 -4
-32 0 -12 6 -17 27 -9 39 7 13 26 17 42 9z m333 1 c10 -9 3 -26 -10 -26 -8 0
-15 7 -15 15 0 13 16 20 25 11z m-1204 -14 c7 -6 7 -19 1 -25 -6 -7 -19 -7
-25 -1 -7 6 -7 19 -1 25 6 7 19 7 25 1z m1424 -29 c4 -4 5 -7 4 -12 -4 -22 -8
-27 -24 -27 -13 0 -19 6 -19 20 0 12 4 17 17 21 15 3 16 3 22 -2z m140 -16 c3
-5 3 -5 0 -10 -2 -3 -5 -5 -7 -5 -2 0 -5 2 -7 5 -3 5 -3 5 0 10 2 3 5 5 7 5 2
0 5 -2 7 -5z m-632 -77 c6 -7 13 -19 14 -24 2 -10 -12 -12 -37 -5 -2 1 -3 1
-4 1 0 0 -1 1 -3 3 -5 5 -3 12 8 25 2 3 6 4 11 4 5 0 9 -1 11 -4z m-212 -11
c6 -4 13 -10 17 -13 4 -3 7 -5 8 -6 2 -2 13 -6 17 -7 22 -4 34 -5 60 -5 32 0
36 -1 43 -7 l5 -3 -9 -10 c-12 -12 -30 -32 -36 -39 -5 -6 -25 -23 -38 -33 -4
-3 -8 -6 -9 -7 -2 -2 -17 -15 -25 -20 -1 -1 -3 -3 -5 -4 -1 -1 -11 -9 -22 -17
-11 -8 -21 -15 -23 -17 -18 -14 -25 -16 -32 -12 -1 1 -2 7 -2 15 0 7 -1 23 -3
35 -2 12 -4 25 -4 28 0 3 -2 13 -3 21 -1 8 -3 18 -3 22 -1 4 -2 12 -2 17 -2
12 -2 46 1 54 1 5 1 5 17 6 9 0 15 -1 15 -2 0 -1 1 -1 1 1 3 6 10 12 16 12 5
0 9 -2 16 -9z m-613 -11 c-5 -7 -5 -7 -10 -2 -5 6 -5 6 0 11 l5 5 4 -4 5 -5
-4 -5z m-32 -39 c3 -4 3 -6 0 -10 -4 -8 -12 -9 -17 -3 -4 7 -4 9 2 15 6 6 11
6 15 -2z m301 -15 c10 -9 3 -26 -10 -26 -8 0 -15 7 -15 15 0 13 16 20 25 11z
m114 -55 c12 -7 14 -33 3 -43 -8 -9 -32 -9 -40 0 -9 8 -9 32 0 41 7 7 27 8 37
2z m1006 -36 c3 -3 3 -3 0 -6 -3 -3 -3 -3 -6 0 -3 2 -3 3 -1 6 4 4 4 4 7 0z
m-592 -125 c10 -9 3 -26 -10 -26 -8 0 -15 7 -15 15 0 13 16 20 25 11z m712
-33 c2 -1 10 -13 18 -26 12 -21 14 -26 14 -36 2 -14 -2 -20 -13 -23 -15 -3
-20 0 -45 28 -4 5 -10 11 -12 14 -8 9 -8 32 1 41 7 7 27 8 37 2z"/>
</g>
</svg>
