<?xml version="1.0" standalone="no"?>
<!DOCTYPE svg PUBLIC "-//W3C//DTD SVG 20010904//EN"
 "http://www.w3.org/TR/2001/REC-SVG-20010904/DTD/svg10.dtd">
<svg version="1.0" xmlns="http://www.w3.org/2000/svg"
 width="1100.000000pt" height="2850.000000pt" viewBox="0 0 1100.000000 2850.000000"
 preserveAspectRatio="xMidYMid meet">
<metadata>
Created by potrace 1.15, written by Peter Selinger 2001-2017
</metadata>
<g transform="translate(0.000000,2850.000000) scale(0.500000,-0.500000)"
fill="#000000" stroke="none">
<path d="M1226 3810 c-3 -1 -6 -1 -7 0 0 0 -1 0 -1 -2 0 -1 -1 -2 -3 -2 -4 0
-14 -12 -18 -21 -3 -7 -3 -17 -3 -65 l1 -57 -6 -6 -6 -6 -149 0 c-146 0 -160
0 -160 -3 0 -1 -1 -2 -3 -2 -4 0 -14 -12 -18 -21 -5 -11 -5 -191 0 -202 4 -9
14 -21 18 -21 2 0 3 -1 3 -2 0 -3 14 -3 160 -3 l149 0 6 -6 6 -6 0 -42 0 -42
-6 -6 -6 -6 -191 1 -192 0 -4 5 c-2 3 -3 6 -2 7 1 1 16 28 26 47 4 8 2 24 -4
34 -3 4 -11 11 -21 18 -45 29 -46 29 -77 25 -26 -3 -27 -3 -36 24 -3 11 -7 20
-8 20 0 0 -2 2 -3 4 -2 5 -16 15 -45 32 -29 18 -49 12 -62 -19 -13 -31 -78
-160 -92 -185 -11 -17 -17 -22 -37 -24 -14 -1 -22 0 -27 5 -4 3 -3 4 2 13 3 5
10 16 15 24 5 8 12 19 15 24 3 5 7 10 7 12 1 2 4 7 7 11 5 9 26 44 35 61 3 6
6 12 7 13 2 2 10 18 26 47 24 46 76 154 83 173 2 6 4 11 5 12 2 3 1 13 -2 24
-4 14 -11 17 -85 47 -25 10 -47 19 -48 20 -3 3 -20 0 -27 -4 -7 -4 -13 -13
-17 -26 -5 -14 -11 -18 -26 -18 -18 0 -23 5 -25 21 0 9 0 14 3 19 4 8 5 31 1
38 -3 5 -19 6 -28 1 -6 -3 -17 -18 -19 -26 -6 -27 -51 -148 -74 -198 -3 -5 -8
-18 -13 -28 -37 -85 -83 -171 -115 -219 -32 -48 -54 -72 -76 -85 -19 -11 -25
-20 -28 -36 -1 -7 1 -14 11 -41 18 -46 40 -112 52 -149 10 -34 30 -45 61 -34
14 4 56 13 75 16 15 2 26 5 32 8 4 2 9 4 13 4 3 0 5 0 3 0 -1 -1 -2 -2 -1 -3
1 -1 0 -2 -1 -2 -1 0 -1 -2 0 -5 1 -5 0 -8 -11 -22 -7 -9 -13 -19 -15 -21 -2
-3 -6 -8 -9 -12 -3 -4 -8 -10 -10 -13 -19 -26 -68 -82 -97 -110 -22 -22 -33
-31 -55 -42 -28 -15 -32 -20 -34 -39 -1 -9 -1 -13 5 -25 16 -37 44 -116 57
-161 10 -34 18 -44 34 -47 12 -2 18 -1 33 4 37 13 146 36 228 48 34 5 68 10
76 12 3 0 12 2 21 3 9 1 32 4 51 7 55 8 54 8 60 2 4 -3 6 -7 7 -16 2 -14 9
-31 15 -36 6 -4 4 -11 -5 -17 -4 -2 -21 -9 -38 -14 -16 -6 -34 -12 -38 -14
-22 -10 -33 -14 -38 -14 -6 0 -149 -26 -160 -30 -6 -1 -37 1 -42 4 -2 1 -8 2
-12 3 -4 1 -17 2 -27 4 -35 6 -43 7 -52 8 -5 1 -11 1 -14 2 -3 1 -14 2 -26 4
-12 2 -24 4 -28 5 -9 2 -28 -3 -34 -9 -12 -11 -13 -15 -19 -106 -1 -24 -7 -78
-10 -106 -2 -13 -3 -28 -4 -33 -7 -60 -30 -167 -44 -205 -2 -7 -2 -10 0 -20 4
-18 13 -25 40 -33 39 -12 100 -33 124 -41 25 -10 36 -11 47 -5 6 3 16 14 16
17 0 2 1 3 2 3 2 1 15 50 25 98 5 21 7 32 8 37 0 3 3 21 7 40 3 19 6 39 7 45
1 6 2 13 2 15 1 6 11 83 11 90 1 4 2 6 4 5 1 0 4 1 5 2 2 1 2 1 2 -1 0 -1 1
-7 2 -13 0 -6 2 -23 3 -38 1 -15 3 -32 3 -38 1 -11 3 -47 4 -64 0 -5 1 -30 2
-55 1 -51 3 -58 14 -69 4 -4 7 -6 7 -5 0 0 2 0 3 -1 6 -3 16 -4 26 -2 6 1 12
3 15 3 143 26 143 26 155 39 6 7 12 22 12 30 0 2 -1 16 -2 32 -1 33 -6 98 -8
108 -1 4 -2 17 -2 30 -1 18 0 22 2 22 2 0 3 1 3 2 0 3 3 1 3 -2 0 0 1 -3 2 -6
0 -3 4 -19 7 -36 8 -41 12 -51 25 -57 12 -6 21 -6 40 1 10 3 22 7 27 9 5 1 26
9 47 16 21 7 41 14 44 15 18 5 31 17 36 33 3 11 3 12 -3 39 -3 15 -7 29 -7 31
-1 2 -2 6 -2 9 -2 7 -8 32 -15 56 -8 28 -10 41 -5 43 5 2 32 -26 59 -63 23
-29 26 -32 39 -34 14 -3 19 0 63 28 31 21 40 26 45 26 7 0 15 -3 17 -6 2 -2
13 -16 16 -20 2 -2 5 -6 8 -10 3 -4 7 -9 9 -11 2 -3 7 -8 10 -12 3 -4 12 -14
18 -22 13 -14 15 -19 11 -27 -5 -8 -8 -10 -18 -12 -6 -1 -19 -5 -29 -8 -10 -4
-21 -7 -24 -8 -3 -1 -23 -7 -43 -13 -30 -8 -58 -16 -92 -24 -2 0 -23 -5 -47
-10 -49 -9 -58 -13 -63 -22 -6 -9 -5 -26 1 -34 8 -13 19 -29 28 -44 3 -5 7
-11 8 -13 11 -19 46 -90 57 -116 16 -38 32 -47 66 -39 123 28 248 73 363 130
52 26 50 26 97 2 19 -9 36 -17 36 -17 1 0 10 -4 20 -9 63 -29 208 -77 232 -75
19 1 28 13 29 38 1 15 4 22 10 26 11 5 30 4 37 -4 8 -7 9 -34 2 -38 -4 -3 -2
-31 3 -36 7 -7 15 -11 28 -11 22 0 36 8 47 28 2 3 6 11 10 18 10 18 43 70 46
73 1 1 5 6 9 13 8 13 10 15 38 50 11 13 22 26 24 28 4 4 4 6 3 18 -2 20 -9 25
-42 30 -14 2 -38 5 -61 9 -33 6 -31 5 -48 9 -9 2 -18 3 -21 4 -3 0 -9 2 -14 3
-5 1 -12 2 -16 3 -4 1 -10 2 -13 3 -3 1 -8 2 -11 3 -16 3 -77 20 -111 30 -16
5 -23 11 -23 17 0 2 7 11 16 19 13 15 34 37 43 48 10 12 20 24 23 28 2 2 4 5
5 7 2 1 6 6 9 10 3 4 5 7 6 8 1 1 3 4 5 7 2 3 6 8 8 11 3 5 42 62 49 73 1 2 3
5 3 7 1 2 6 9 10 17 8 13 45 85 45 88 0 0 3 8 8 17 22 48 25 63 18 79 -3 8
-17 21 -21 21 -2 0 -3 1 -3 2 0 1 -1 2 -2 2 -4 0 -8 5 -7 10 1 2 6 6 11 9 5 3
14 10 19 16 6 7 15 17 20 23 11 12 15 17 40 46 9 10 23 27 32 37 24 27 25 28
25 38 0 14 -4 23 -12 29 -7 5 -77 41 -116 59 -8 3 -22 10 -30 14 -8 3 -22 10
-31 14 -52 24 -72 33 -76 33 -4 0 -4 0 0 2 2 1 3 2 2 2 -1 0 0 2 2 4 3 3 12 3
103 4 103 2 104 2 104 4 0 1 1 2 3 2 4 0 14 12 18 21 5 11 5 195 0 206 -4 9
-14 21 -18 21 -2 0 -3 1 -3 2 0 3 -15 3 -198 3 l-187 0 -6 6 -6 6 0 42 0 42 6
6 6 6 146 0 c143 0 157 0 157 3 0 1 1 2 3 2 4 0 14 12 18 21 5 11 5 191 0 202
-4 9 -14 21 -18 21 -2 0 -3 1 -3 2 0 3 -13 3 -157 3 l-146 0 -6 6 -6 6 1 57
c0 48 0 58 -3 65 -4 9 -14 21 -18 21 -2 0 -3 1 -3 2 0 1 -1 2 -2 2 -7 1 -248
2 -252 0z m175 -102 c5 -5 6 -7 6 -16 0 -15 -8 -23 -23 -23 -9 0 -11 1 -16 7
-9 8 -9 23 -1 32 9 9 24 9 34 0z m-109 -84 c5 -5 5 -15 0 -20 -9 -9 -24 -2
-24 10 0 8 6 14 14 14 3 0 8 -2 10 -4z m-524 -391 c0 -1 1 -40 2 -87 1 -63 2
-87 4 -91 3 -7 14 -19 17 -19 2 0 3 -1 3 -2 0 -3 11 -3 87 -3 73 0 87 1 87 3
0 1 3 2 6 3 4 2 9 8 17 20 13 19 19 24 32 24 18 1 31 -12 31 -29 0 -19 -5 -24
-34 -33 -14 -5 -32 -14 -79 -39 -18 -10 -97 -49 -125 -63 -11 -5 -22 -9 -24
-9 -9 0 -13 9 -24 46 -14 49 -19 57 -41 62 -10 2 -12 2 -59 -11 -52 -14 -60
-16 -65 -12 -4 3 -2 11 6 20 3 3 9 12 15 20 5 8 9 14 10 15 1 1 4 5 7 10 3 5
6 9 7 10 3 3 61 92 75 115 5 9 12 19 14 22 4 7 6 9 15 24 3 6 6 12 6 13 0 2 9
-6 10 -9z m-534 -5 c5 -5 5 -11 0 -16 -10 -10 -27 5 -16 16 4 4 12 4 16 0z
m1360 -60 c5 -5 5 -15 0 -20 -9 -9 -24 -2 -24 10 0 8 6 14 14 14 3 0 8 -2 10
-4z m-1087 -6 c5 -5 8 -23 10 -61 2 -24 -5 -31 -32 -29 -2 0 -6 3 -9 6 -8 7
-8 13 -1 51 6 32 9 37 21 37 5 0 9 -1 11 -4z m1146 -74 c1 -2 3 -7 3 -11 0 -3
2 -11 4 -17 5 -17 3 -20 -13 -20 -7 0 -23 8 -29 15 -5 7 -6 27 0 33 7 9 27 9
35 0z m-1348 -30 c3 -3 5 -7 5 -11 0 -12 -12 -30 -21 -34 -7 -3 -16 -3 -14 -1
1 1 2 6 2 10 0 4 1 9 2 10 1 2 1 7 1 12 0 16 14 24 25 14z m1150 -34 l7 -4
-11 -11 c-5 -5 -18 -19 -28 -30 -10 -11 -20 -22 -23 -25 -8 -8 -9 -11 -8 -25
1 -14 5 -20 18 -26 48 -23 198 -97 246 -122 12 -6 25 -12 30 -14 15 -6 35 -16
39 -19 2 -2 4 -4 5 -4 1 0 2 -1 2 -3 0 -1 1 -3 2 -3 5 -2 -4 -8 -14 -10 -21
-4 -29 -2 -44 11 -15 14 -9 14 -152 13 -122 0 -129 0 -143 -4 -8 -3 -19 -5
-25 -5 -15 -2 -22 4 -22 17 0 15 4 17 31 17 35 0 43 5 40 25 -1 11 -6 18 -16
23 -5 3 -32 10 -86 20 -70 14 -78 16 -84 21 l-6 5 5 4 c6 6 7 7 57 40 61 40
57 36 57 54 0 10 -1 16 -3 19 -3 4 -52 30 -58 30 -3 0 -3 0 0 3 9 9 10 9 96 9
81 -1 82 -1 88 -6z m-890 -115 c9 -9 10 -15 7 -31 -1 -7 -3 -16 -3 -20 -2 -14
-12 -19 -41 -22 -13 -1 -26 -3 -29 -3 -7 -1 -19 4 -19 7 0 2 5 8 29 38 1 2 5
7 8 11 3 4 7 10 9 12 2 2 4 4 4 5 0 3 14 10 21 10 6 0 8 -1 14 -7z m496 -146
c0 -3 -4 -10 -8 -15 -8 -10 -57 -60 -72 -74 -5 -4 -16 -14 -25 -22 -14 -12
-34 -29 -49 -41 -23 -17 -46 -33 -53 -37 -6 -2 -10 -5 -10 -6 0 -1 -9 -8 -20
-15 -12 -7 -23 -15 -26 -17 -3 -2 -9 -6 -14 -8 -5 -3 -15 -9 -22 -13 -16 -9
-21 -9 -33 1 -21 19 -18 22 49 43 46 14 48 15 57 24 9 9 14 21 13 33 0 4 -3
22 -6 41 -7 38 -9 50 -5 55 3 6 3 5 21 -12 21 -20 27 -23 43 -22 13 1 15 2 63
33 19 13 50 32 70 44 7 5 14 8 14 8 1 -1 2 0 2 1 0 1 2 2 6 3 3 0 5 1 5 1 0 0
0 -2 0 -5z m-422 -5 c10 -9 3 -26 -10 -26 -8 0 -15 7 -15 15 0 13 16 20 25 11z
m899 -107 l-5 -5 -4 4 -5 5 4 4 5 5 4 -4 5 -5 -4 -4z m-77 -135 c3 -3 4 -6 3
-6 0 -1 -4 -5 -8 -10 -20 -27 -73 -79 -103 -103 -5 -4 -11 -9 -11 -10 -1 -1
-5 -2 -10 -4 -13 -4 -22 -1 -39 12 -17 14 -59 56 -72 72 -6 7 -10 12 -11 13
-3 3 -14 18 -17 24 -3 6 -3 6 0 11 2 3 5 5 7 6 2 0 60 0 129 0 l127 0 5 -5z
m-5 -226 c5 -5 5 -15 0 -20 -9 -9 -24 -2 -24 10 0 8 6 14 14 14 3 0 8 -2 10
-4z m-1254 -28 c4 -5 4 -14 1 -30 -1 -3 -2 -10 -3 -17 -3 -13 -7 -19 -16 -19
-9 0 -15 7 -13 16 2 15 11 42 17 48 6 7 9 7 14 2z m888 -67 c3 -4 4 -5 1 -7
-2 -1 -3 -4 -3 -5 0 -2 -1 -3 -3 -3 -2 0 -3 1 -3 3 0 1 -1 4 -3 5 -3 2 -2 3 1
7 1 3 4 5 5 5 1 0 4 -2 5 -5z m476 -19 c3 -2 8 -12 8 -17 0 -3 -11 -9 -17 -9
-11 0 -17 16 -9 24 4 4 12 5 18 2z m-473 -36 c13 -13 7 -32 -10 -32 -17 0 -23
18 -11 31 8 9 13 9 21 1z m532 -3 c3 -5 3 -5 0 -10 -5 -6 -8 -6 -13 -1 -6 5
-6 9 0 12 7 5 8 5 13 -1z m-464 -46 c3 -5 3 -5 0 -10 -2 -3 -5 -5 -7 -5 -2 0
-5 2 -7 5 -3 5 -3 5 0 10 2 3 5 5 7 5 2 0 5 -2 7 -5z"/>
</g>
</svg>
