<?xml version="1.0" standalone="no"?>
<!DOCTYPE svg PUBLIC "-//W3C//DTD SVG 20010904//EN"
 "http://www.w3.org/TR/2001/REC-SVG-20010904/DTD/svg10.dtd">
<svg version="1.0" xmlns="http://www.w3.org/2000/svg"
 width="1000.000000pt" height="2850.000000pt" viewBox="0 0 1000.000000 2850.000000"
 preserveAspectRatio="xMidYMid meet">
<metadata>
Created by potrace 1.15, written by Peter Selinger 2001-2017
</metadata>
<g transform="translate(0.000000,2850.000000) scale(0.500000,-0.500000)"
fill="#000000" stroke="none">
<path d="M664 3812 c-3 -1 -6 -1 -7 0 0 0 -1 0 -1 -2 0 -1 -1 -2 -3 -2 -4 0
-14 -12 -18 -21 -2 -6 -3 -13 -3 -23 1 -14 1 -15 -5 -21 l-6 -6 -136 0 c-131
1 -136 1 -143 -3 -9 -5 -10 -7 -10 -22 0 -7 -1 -12 -2 -13 -2 0 -2 -1 0 -1 5
0 8 -6 8 -18 0 -12 -4 -18 -14 -20 -11 -2 -19 1 -31 12 -6 5 -14 11 -18 12
-10 3 -44 0 -57 -5 -21 -8 -24 -15 -24 -62 0 -29 1 -38 3 -44 4 -9 14 -21 18
-21 2 0 3 -1 3 -2 0 -2 2 -2 74 -3 l70 -1 17 5 c22 6 32 6 54 0 l17 -5 85 0
86 1 6 -6 c5 -6 6 -7 5 -13 -1 -4 -2 -20 -2 -36 1 -40 1 -39 -4 -45 -10 -10
-34 -11 -43 0 -5 5 -8 20 -5 24 2 5 -6 27 -12 33 -3 3 -8 7 -11 8 -3 1 -47 2
-133 2 l-128 0 -11 -5 c-12 -5 -21 -16 -25 -29 -1 -5 -3 -22 -5 -37 -4 -35 -5
-39 -7 -54 -1 -7 -2 -17 -3 -23 -1 -6 -2 -12 -2 -14 0 -2 -1 -7 -2 -13 -1 -5
-4 -28 -8 -51 -4 -23 -7 -45 -8 -49 -1 -4 -6 -30 -11 -58 -11 -55 -12 -58 -6
-70 8 -19 15 -21 72 -21 44 0 45 0 54 5 13 7 19 18 21 40 2 21 44 33 85 24 32
-7 43 -11 47 -18 3 -7 4 -26 1 -31 -9 -17 -37 -29 -128 -57 -5 -1 -13 -4 -19
-5 -5 -1 -13 -3 -17 -4 -20 -5 -61 -13 -92 -18 -39 -7 -51 -8 -71 -11 -5 -1
-12 -2 -15 -2 -3 0 -16 -2 -29 -3 -14 -2 -27 -4 -31 -6 -7 -3 -18 -14 -15 -14
1 0 1 -1 0 -2 -1 -2 -1 -7 -1 -13 0 -8 2 -12 18 -34 16 -20 29 -40 42 -63 2
-3 9 -14 15 -24 6 -10 18 -32 26 -48 16 -32 20 -37 32 -44 9 -5 27 -7 44 -4
12 2 50 8 56 9 3 0 6 1 7 2 1 1 2 0 2 -1 0 -1 3 -3 7 -4 3 -1 12 -6 20 -9 8
-4 18 -7 21 -7 5 0 8 -2 11 -5 3 -5 3 -5 0 -10 -3 -3 -6 -5 -10 -5 -14 0 -33
-12 -37 -23 -3 -8 -3 -249 0 -260 1 -4 5 -11 9 -14 6 -7 26 -15 34 -15 9 0 15
-8 15 -21 0 -13 -6 -21 -15 -21 -8 0 -28 -8 -34 -15 -10 -10 -11 -17 -11 -75
0 -44 1 -55 3 -61 4 -9 14 -21 18 -21 2 0 3 -1 3 -2 0 -1 1 -2 2 -2 0 1 5 0
10 -1 5 0 19 -1 31 -2 19 0 22 -1 25 -5 3 -3 6 -4 11 -4 7 -1 8 -1 2 -1 -4 -1
-7 -3 -8 -5 0 -2 0 -4 1 -3 1 1 2 -4 2 -11 l-1 -13 -1 10 -1 10 -1 -9 c0 -8 1
-10 7 -17 4 -4 7 -9 7 -11 0 -5 -6 -11 -12 -11 -9 0 -16 12 -10 19 3 3 4 16 1
16 -1 0 -1 1 0 1 2 2 -3 7 -11 10 -9 4 -24 4 -39 0 -56 -14 -91 -22 -164 -36
-2 0 -17 -3 -33 -6 -16 -3 -31 -5 -34 -6 -3 -1 -9 -2 -15 -2 -13 -2 -30 -10
-32 -16 0 -2 -1 -9 -1 -16 l0 -12 14 -12 c21 -17 38 -19 56 -7 21 16 41 18 55
5 11 -9 10 -34 -1 -45 -11 -9 -14 -16 -14 -30 l0 -13 14 -15 c8 -8 22 -24 33
-35 29 -31 29 -32 40 -37 15 -7 25 -6 80 10 53 15 64 18 132 41 66 22 74 25
85 35 14 12 19 16 25 17 7 1 25 8 31 12 2 1 8 7 12 12 10 13 14 14 32 10 20
-4 32 -4 44 2 17 7 18 9 41 44 6 11 11 12 30 10 33 -4 38 -3 64 10 33 17 50
27 53 33 1 3 2 10 1 17 0 11 -1 12 -8 18 -4 4 -9 7 -10 7 -1 0 -7 2 -12 5 -17
8 -29 13 -34 13 -3 0 -3 1 0 1 1 1 3 2 3 3 0 1 4 3 8 5 7 3 19 3 86 3 76 0 77
0 85 5 10 5 17 19 18 35 2 14 7 20 17 20 8 0 16 -6 16 -13 0 -5 5 -21 8 -27 8
-16 19 -20 51 -20 13 0 25 -1 28 -2 6 -2 14 -9 11 -10 -1 -1 -9 -8 -17 -16
l-16 -15 1 -14 c0 -22 3 -24 47 -40 45 -16 178 -68 198 -78 4 -2 16 -7 28 -12
55 -24 101 -44 106 -47 2 -1 11 -5 20 -9 28 -13 41 -19 76 -36 19 -10 41 -19
48 -20 13 -4 13 -4 19 0 5 4 5 5 4 27 0 27 2 31 14 34 11 2 20 -1 29 -10 10
-11 18 -14 31 -14 10 1 11 1 16 9 4 4 8 12 10 16 5 11 14 17 31 23 29 10 39
24 42 57 5 42 1 54 -16 63 -23 12 -198 82 -205 82 -4 0 -4 0 1 5 5 5 10 6 43
9 1 1 2 1 2 2 0 1 1 2 3 2 4 0 14 12 18 21 3 6 3 18 3 74 0 65 0 66 -5 85 -7
23 -7 27 0 50 l5 19 0 206 0 206 6 6 c3 4 6 7 6 6 2 -2 34 5 51 11 17 6 50 23
58 30 15 14 23 22 27 28 3 4 6 7 6 8 3 2 19 37 24 50 10 32 20 95 19 125 0 14
-1 20 -5 29 -12 26 -12 35 2 63 10 19 12 28 6 39 -5 13 -15 20 -26 20 -10 0
-12 -1 -36 -19 -7 -6 -10 -7 -18 -7 -10 0 -12 1 -29 15 -15 12 -27 16 -50 15
-18 -1 -23 -2 -25 -4 -1 -1 -4 -2 -7 -4 -3 -2 -10 -10 -16 -18 -12 -17 -14
-18 -26 -18 -12 0 -14 1 -26 18 -6 8 -13 16 -16 18 -3 2 -6 3 -7 4 -3 3 -19 3
-128 3 l-117 0 -6 6 c-8 9 -8 21 0 30 l6 6 184 0 c180 0 195 0 195 3 0 1 1 2
3 2 4 0 14 12 18 21 3 7 3 27 3 180 0 164 0 173 -4 183 -4 10 -12 20 -18 20
-2 0 -6 1 -10 1 -11 2 -16 -5 -18 -22 -1 -7 -1 -13 0 -13 1 -1 3 -5 4 -10 2
-10 0 -23 -6 -28 -8 -9 -32 -9 -40 0 -6 5 -8 18 -6 28 1 5 3 9 4 10 3 1 -2 26
-6 31 -9 10 -28 11 -55 4 -16 -5 -33 -4 -50 0 -13 4 -21 4 -82 4 l-69 0 -20
-11 c-17 -8 -23 -11 -30 -11 -18 0 -25 9 -24 27 1 10 7 30 10 31 1 1 1 6 0 18
0 4 -12 17 -15 17 -2 0 -3 1 -3 2 0 3 -13 3 -127 3 -114 0 -127 0 -127 -3 0
-1 -1 -2 -3 -2 -4 0 -14 -12 -18 -21 -2 -6 -3 -13 -3 -23 1 -14 1 -15 -5 -21
l-6 -6 -63 0 -63 0 -6 6 c-6 6 -6 7 -5 21 0 10 -1 17 -3 23 -4 9 -14 21 -18
21 -2 0 -3 1 -3 2 0 1 -1 2 -2 2 -7 1 -228 2 -232 0z m128 -83 c16 -7 20 -37
7 -48 -12 -11 -34 -11 -43 0 -9 10 -9 32 0 42 7 8 24 11 36 6z m373 -58 c3 -5
3 -5 0 -10 -2 -3 -5 -5 -7 -5 -2 0 -5 2 -7 5 -3 5 -3 5 0 10 2 3 5 5 7 5 2 0
5 -2 7 -5z m-712 -13 c11 -10 3 -28 -11 -28 -9 0 -16 6 -16 16 0 14 17 22 27
12z m612 -117 c8 -8 8 -14 0 -22 l-6 -6 -63 0 -63 0 -6 6 c-8 8 -8 14 0 22 l6
6 63 0 63 0 6 -6z m426 0 c8 -8 8 -14 0 -22 l-6 -6 -51 0 -51 0 -6 6 c-8 8 -8
14 0 22 l6 6 51 0 51 0 6 -6z m169 -57 c5 -5 5 -11 0 -16 -10 -10 -27 5 -16
16 4 4 12 4 16 0z m-885 -36 c7 -6 7 -19 1 -25 -6 -7 -19 -7 -25 -1 -7 6 -7
19 -1 25 6 7 19 7 25 1z m-284 -39 c6 -4 6 -6 6 -20 0 -14 0 -16 -6 -20 -4 -4
-7 -5 -18 -5 -11 0 -14 1 -18 5 -6 4 -6 6 -6 20 0 14 0 16 6 20 4 4 7 5 18 5
11 0 14 -1 18 -5z m701 -9 c-5 -7 -9 -7 -16 -3 -6 4 -5 6 4 12 l7 5 4 -4 5 -5
-4 -5z m-35 -13 c6 -4 6 -8 2 -19 -2 -4 -3 -7 -3 -8 -1 -2 -2 -7 -4 -13 -5
-11 -26 -15 -42 -8 -10 4 -13 11 -11 25 3 23 10 28 40 27 8 -1 15 -2 18 -4z
m-470 -7 c5 -5 6 -7 6 -16 0 -9 -1 -11 -6 -16 -3 -3 -9 -6 -13 -7 -20 -3 -19
-3 -25 3 -3 4 -5 8 -4 10 1 2 2 7 2 12 1 10 8 19 16 20 10 2 18 0 24 -6z m606
-26 c7 -3 12 -13 12 -25 0 -19 -9 -28 -28 -28 -19 0 -28 9 -28 28 0 17 6 24
22 28 5 1 14 -1 22 -3z m-314 -24 l22 -8 29 0 29 1 6 -6 c5 -5 6 -8 6 -16 0
-5 0 -9 -1 -9 -1 0 -3 -4 -6 -8 -3 -4 -6 -8 -8 -9 -2 -1 -10 -7 -18 -15 -8 -8
-16 -14 -18 -14 -2 0 -6 0 -8 0 -2 0 -6 0 -8 0 -2 0 -10 6 -17 13 -17 17 -30
23 -46 23 -10 0 -12 1 -17 6 -4 4 -5 6 -4 15 2 15 10 29 18 32 11 4 17 3 41
-5z m-354 -13 c5 -4 6 -7 5 -9 -1 -2 -2 -6 -2 -9 0 -4 -2 -8 -5 -11 l-6 -6
-48 0 -47 0 -6 6 c-5 5 -5 6 -3 15 4 18 4 18 58 19 25 1 47 1 47 2 1 0 4 -3 7
-7z m140 -71 c5 -7 4 -25 -2 -31 -4 -4 -11 -6 -17 -5 -1 0 -5 0 -8 0 -3 1 -8
3 -10 5 -4 4 -4 6 -3 16 1 6 3 13 5 15 7 9 28 8 35 0z m148 -8 c7 -3 12 -13
12 -25 0 -19 -9 -28 -28 -28 -19 0 -28 9 -28 28 0 17 6 24 22 28 5 1 14 -1 22
-3z m549 1 c9 -5 12 -11 12 -24 0 -10 -1 -12 -6 -17 -6 -6 -7 -6 -18 -6 -11 0
-12 0 -18 6 -5 5 -6 7 -6 17 0 13 2 18 11 23 7 5 17 5 25 1z m-1101 -8 c9 -9
6 -25 -5 -30 -13 -5 -26 3 -26 17 0 11 7 18 18 18 6 0 9 -1 13 -5z m908 -17
c5 -5 6 -7 6 -16 0 -9 -1 -11 -7 -16 -5 -6 -7 -7 -16 -7 -9 0 -11 1 -16 7 -9
8 -9 23 -1 32 9 9 24 9 34 0z m-581 -14 c9 -3 13 -10 11 -23 -1 -9 -3 -13 -7
-17 -6 -6 -7 -6 -18 -6 -11 0 -12 0 -18 6 -5 5 -6 7 -6 17 0 14 3 20 12 24 7
2 19 2 26 -1z m1082 -42 c5 -5 5 -15 0 -20 -9 -9 -24 -2 -24 10 0 8 6 14 14
14 3 0 8 -2 10 -4z m-290 -56 l20 -11 45 -1 44 0 5 -6 6 -5 -7 -6 c-9 -9 -20
-10 -64 -8 -33 1 -35 1 -43 -3 -5 -3 -10 -7 -11 -9 -5 -7 -6 -23 -2 -30 2 -5
2 -7 0 -9 -5 -7 -11 -8 -50 -9 l-39 -1 -6 7 -7 6 0 31 0 31 6 6 c5 5 8 6 14 6
6 0 14 3 30 11 28 14 31 14 59 0z m-553 2 c6 -2 14 -6 19 -8 9 -5 11 -5 61 -5
l52 0 6 -6 6 -6 0 -31 0 -31 -6 -6 -6 -6 -109 1 -109 1 -6 5 c-5 4 -6 6 -4 7
1 2 3 4 5 6 4 6 30 49 30 51 0 4 24 24 34 27 14 6 15 6 27 1z m-305 -104 c5
-5 5 -15 0 -20 -9 -9 -24 -2 -24 10 0 8 6 14 14 14 3 0 8 -2 10 -4z m1121 -11
c4 -4 5 -7 5 -15 0 -14 -6 -20 -20 -20 -14 0 -20 6 -20 20 0 14 6 20 20 20 8
0 11 -1 15 -5z m-152 -18 c12 -7 14 -33 4 -43 -5 -5 -35 -14 -39 -12 -11 6
-12 43 -2 53 7 7 27 8 37 2z m-682 -41 c7 -6 7 -19 1 -25 -6 -7 -19 -7 -25 -1
-7 6 -7 19 -1 25 6 7 19 7 25 1z m-350 -17 c4 -4 5 -7 5 -13 0 -11 -7 -18 -18
-18 -11 0 -18 7 -18 18 0 11 7 18 18 18 6 0 9 -1 13 -5z m982 -19 c4 -7 4 -6
-2 -13 -6 -6 -9 -6 -14 0 -3 5 -3 5 1 12 5 9 11 9 15 1z m-323 -22 c2 -2 4 -6
4 -9 -1 -4 7 -26 11 -31 1 -2 5 -5 8 -7 6 -4 9 -4 70 -4 l64 0 6 -6 c7 -8 7
-10 0 -18 l-6 -6 -324 0 -324 0 -8 -4 c-5 -3 -13 -9 -18 -13 -15 -13 -21 -13
-37 1 -6 5 -14 10 -17 11 -4 2 -7 3 -7 4 0 1 -2 4 -5 7 -7 8 -7 10 0 18 l6 6
44 0 44 0 19 10 c11 5 21 9 23 9 2 0 12 -4 23 -9 l19 -10 178 0 c174 0 178 0
184 4 3 2 7 5 8 7 4 5 12 27 11 31 0 6 7 13 14 13 3 0 8 -2 10 -4z m221 -130
c5 -7 4 -24 -1 -31 -7 -7 -26 -8 -33 0 -6 6 -7 24 -1 31 7 9 27 9 35 0z m-130
-53 c8 -5 10 -12 9 -34 0 -7 5 -24 10 -29 7 -8 16 -10 32 -10 9 1 16 0 16 0 0
-3 13 -10 18 -10 4 0 4 -1 2 -2 -2 -1 -1 -2 2 -3 3 -1 5 -2 6 -1 1 0 2 -1 3
-2 1 -1 4 -1 7 -1 3 0 7 -1 9 -1 2 -1 3 -1 3 0 0 1 1 2 2 2 1 0 7 3 14 8 10 6
18 9 15 4 -1 -1 0 -2 1 -2 1 0 2 -4 3 -9 1 -5 2 -10 3 -10 3 -2 2 -21 -1 -27
-2 -3 -5 -9 -8 -13 -5 -7 -8 -21 -9 -35 -1 -4 -3 -9 -5 -11 l-3 -5 -6 4 c-3 3
-7 8 -8 13 -4 15 -21 46 -30 56 -1 2 -3 5 -4 8 -3 5 -5 6 -16 7 -3 1 -61 1
-130 1 l-125 0 -11 -6 c-6 -3 -12 -7 -14 -8 -6 -7 -18 -13 -25 -13 -7 0 -19 6
-25 13 -2 1 -8 5 -14 8 l-11 6 -189 0 -189 0 -6 6 c-7 8 -7 10 0 18 l6 6 300
-1 c323 0 305 -1 315 10 6 6 12 27 10 34 -3 6 0 20 5 25 7 9 28 11 38 4z m178
-20 c8 -7 7 -23 -1 -31 -8 -8 -26 -17 -27 -14 0 2 -2 7 -4 13 -4 14 -4 25 1
32 6 7 24 7 31 0z m-939 -148 l-5 -5 -4 4 -5 5 4 4 5 5 4 -4 5 -5 -4 -4z m664
-41 c5 -6 5 -12 0 -18 -7 -8 -22 -2 -22 9 0 11 15 17 22 9z m437 -64 c7 -6 7
-19 1 -25 -6 -7 -19 -7 -25 -1 -7 6 -7 19 -1 25 6 7 19 7 25 1z m-268 -9 c8
-8 8 -12 0 -20 l-6 -6 -228 0 c-125 0 -229 -1 -231 -1 -2 -1 -6 -3 -9 -5 -4
-3 -5 -5 -4 -17 0 -14 0 -14 -5 -14 -5 0 -5 0 -5 14 1 12 0 14 -4 17 -3 2 -7
4 -9 5 -2 0 -56 1 -121 1 l-118 1 -6 6 c-8 6 -8 11 0 19 l6 6 367 0 367 0 6
-6z m-474 -68 c7 -5 1 -18 -9 -18 -3 0 -6 1 -8 3 -8 8 -3 18 8 18 3 0 7 -1 9
-3z m-257 -5 c5 -5 5 -11 0 -16 -10 -10 -27 5 -16 16 4 4 12 4 16 0z m1009
-14 c5 -5 6 -7 6 -16 0 -9 -1 -11 -7 -16 -5 -6 -7 -7 -16 -7 -9 0 -11 1 -16 7
-9 8 -9 23 -1 32 9 9 24 9 34 0z m-502 -20 c4 -6 4 -24 -1 -30 -7 -9 -27 -9
-34 0 -5 6 -5 24 0 30 7 9 27 9 35 0z m-664 -7 c3 -5 3 -5 0 -10 -2 -3 -5 -5
-7 -5 -2 0 -5 2 -7 5 -3 5 -3 5 0 10 2 3 5 5 7 5 2 0 5 -2 7 -5z m958 -11 c11
-10 3 -28 -11 -28 -9 0 -16 6 -16 16 0 14 17 22 27 12z m101 -73 c3 -2 6 -5 7
-6 2 -3 1 -17 -2 -23 -2 -3 -3 -7 -3 -10 0 -7 5 -26 8 -32 4 -7 3 -24 -1 -31
-3 -8 -12 -12 -24 -12 -12 0 -21 4 -24 12 -5 8 -4 24 1 35 5 12 8 30 7 46 -1
13 -1 14 4 19 6 6 18 7 27 2z m-288 -5 c5 -5 6 -7 6 -17 0 -10 -1 -12 -6 -17
-5 -5 -7 -6 -17 -6 -12 0 -14 1 -26 16 -5 6 -5 7 0 16 4 10 13 14 27 14 9 0
11 -1 16 -6z m-548 -22 c5 -6 5 -12 0 -18 -7 -8 -22 -2 -22 9 0 11 15 17 22 9z
m92 -32 c5 -5 5 -15 0 -20 -6 -6 -17 -5 -21 0 -7 11 -1 24 11 24 3 0 8 -2 10
-4z m904 -56 c5 -5 5 -15 0 -20 -9 -9 -24 -2 -24 10 0 8 6 14 14 14 3 0 8 -2
10 -4z m-1295 -63 c12 -7 14 -33 3 -43 -8 -9 -32 -9 -40 0 -9 8 -9 32 0 41 7
7 27 8 37 2z"/>
</g>
</svg>
