<?xml version="1.0" standalone="no"?>
<!DOCTYPE svg PUBLIC "-//W3C//DTD SVG 20010904//EN"
 "http://www.w3.org/TR/2001/REC-SVG-20010904/DTD/svg10.dtd">
<svg version="1.0" xmlns="http://www.w3.org/2000/svg"
 width="1100.000000pt" height="2850.000000pt" viewBox="0 0 1100.000000 2850.000000"
 preserveAspectRatio="xMidYMid meet">
<metadata>
Created by potrace 1.15, written by Peter Selinger 2001-2017
</metadata>
<g transform="translate(0.000000,2850.000000) scale(0.500000,-0.500000)"
fill="#000000" stroke="none">
<path d="M710 3812 c-3 -1 -6 -1 -7 0 0 0 -1 0 -1 -1 0 -2 -2 -3 -5 -4 -4 -1
-5 -2 -5 -17 -1 -9 0 -16 0 -16 1 0 6 -3 12 -6 8 -4 13 -6 20 -6 9 0 12 1 36
6 11 3 12 3 16 -2 7 -8 2 -22 -8 -22 -5 0 -23 -5 -39 -10 -4 -2 -8 -5 -8 -6
-1 -2 -2 -4 -3 -4 -1 0 -2 -7 -2 -15 0 -16 4 -26 10 -28 8 -2 12 -20 8 -32 -2
-6 -4 -7 -16 -11 -16 -5 -23 -4 -40 7 -28 18 -15 17 -182 17 l-147 0 -12 -6
c-7 -3 -14 -8 -17 -11 -7 -8 -17 -13 -23 -13 -7 1 -29 -6 -34 -10 -2 -2 -5 -6
-7 -10 -4 -7 -4 -13 -4 -91 0 -71 0 -84 3 -90 4 -9 14 -21 18 -21 2 0 3 -1 3
-2 0 -2 8 -2 79 -3 l68 0 9 6 c10 7 16 17 21 33 4 12 9 16 22 16 13 0 18 -4
22 -16 5 -16 11 -26 21 -33 l9 -6 54 0 c51 0 63 1 65 3 1 1 4 2 7 4 3 2 9 8
14 15 11 16 15 19 26 19 20 0 26 -21 12 -37 -4 -4 -8 -10 -9 -13 -3 -7 -2 -22
1 -22 1 0 1 -1 -1 -1 -1 -1 0 -3 3 -5 4 -3 9 -4 22 -5 20 -1 24 -2 28 -8 8
-13 8 -31 -2 -44 -7 -11 -12 -25 -14 -41 0 -5 -2 -10 -4 -12 -3 -4 -4 -4 -11
-1 -4 2 -7 4 -8 6 0 1 -8 10 -18 19 -9 9 -21 22 -26 27 -4 6 -12 13 -17 15
l-8 5 -99 1 -100 0 -19 -8 c-25 -10 -29 -10 -53 0 l-20 8 -126 -1 c-131 0
-132 -1 -132 -3 0 -1 -1 -2 -3 -2 -4 0 -14 -12 -18 -21 -3 -6 -3 -20 -3 -104
0 -90 0 -97 4 -105 4 -11 16 -22 23 -22 2 0 6 -1 8 -1 10 -3 26 22 25 38 0 8
6 15 13 15 7 0 13 -7 13 -15 -1 -9 7 -28 14 -34 9 -7 12 -7 92 -7 l73 1 12 6
c22 10 25 11 34 11 9 0 11 -1 34 -11 18 -8 64 -10 72 -2 1 2 3 3 4 3 1 0 8 6
15 13 14 13 16 14 30 13 17 0 26 -25 13 -38 -5 -5 -8 -6 -18 -7 -16 -1 -36
-11 -39 -19 -8 -23 20 -58 53 -68 3 -1 10 -3 14 -3 5 -1 10 -3 14 -7 13 -13 4
-38 -13 -38 -13 -1 -15 0 -27 11 -11 11 -12 12 -24 13 -11 0 -15 0 -24 -5 -32
-15 -44 7 -22 41 12 17 2 48 -20 62 -7 4 -26 7 -30 4 -2 -1 -27 -10 -54 -18
-15 -5 -32 -22 -34 -35 -2 -7 -9 -24 -15 -34 -5 -6 -8 -13 -8 -14 0 -4 0 -5
-3 -14 -2 -4 -3 -9 -3 -12 0 -11 -17 -17 -26 -8 -5 5 -5 9 -1 24 6 24 3 38
-12 45 -16 8 -23 7 -52 -2 -14 -4 -30 -9 -34 -10 -9 -2 -22 -13 -24 -19 -2 -9
-4 -20 -3 -30 0 -8 -1 -11 -4 -14 -10 -11 -24 -4 -33 16 -4 9 -12 14 -24 17
-9 2 -9 2 -44 -8 -8 -3 -16 -10 -19 -16 -1 -4 -1 -15 0 -26 0 -1 2 -4 5 -7 3
-3 10 -11 15 -18 11 -14 14 -19 18 -22 1 -2 2 -4 2 -5 0 -2 10 -9 12 -10 1 0
2 0 4 -1 7 -2 20 -2 30 -1 9 2 11 1 14 -3 5 -5 5 -5 -1 -18 -4 -7 -6 -14 -6
-25 l-1 -15 7 -5 c9 -6 26 -10 43 -10 11 0 13 -1 18 -6 6 -6 7 -6 5 -22 -1
-19 1 -29 8 -36 10 -10 18 -8 119 26 87 30 104 34 105 28 2 -3 -15 -19 -29
-28 -6 -4 -9 -27 -4 -35 5 -10 27 -11 45 -3 13 6 30 3 37 -5 9 -10 9 -34 -1
-43 -8 -8 -37 -11 -37 -4 0 4 -24 9 -45 8 l-21 0 -11 10 c-20 18 -32 19 -54 5
-8 -6 -14 -11 -15 -11 -1 -1 -6 -5 -13 -9 -44 -28 -46 -29 -46 -48 0 -10 1
-14 6 -22 5 -8 6 -12 5 -23 0 -17 4 -34 10 -43 3 -4 6 -7 6 -7 1 0 28 -20 30
-22 1 -1 15 -12 31 -26 33 -26 35 -28 56 -47 7 -6 17 -14 21 -16 14 -8 34 -6
45 5 3 2 6 4 7 4 1 0 7 18 6 21 0 0 1 2 3 2 2 1 2 2 1 6 -2 2 -3 4 -3 5 1 1
-7 4 -16 7 -22 7 -26 12 -26 29 0 19 8 27 27 27 20 0 26 -7 27 -32 1 -13 1
-17 -2 -19 -2 -3 -2 -4 0 -5 1 0 0 -1 -3 -2 -4 -2 -4 -3 -1 -4 2 0 3 0 3 1 0
2 1 2 3 0 2 -2 3 -1 4 2 0 4 1 3 1 -2 0 -3 1 -8 2 -10 1 -1 3 -6 5 -10 6 -15
31 -26 45 -20 8 3 22 3 30 0 16 -7 17 -41 1 -49 -7 -4 -24 -5 -31 -1 -7 4 -28
-1 -34 -7 -8 -9 -8 -14 -8 -71 0 -68 1 -69 20 -88 16 -16 19 -20 19 -33 0 -13
-3 -17 -19 -33 l-14 -13 1 -12 c0 -11 1 -12 6 -17 4 -4 8 -6 9 -6 1 0 2 -1 2
-2 0 0 2 -2 6 -2 7 -1 228 -1 233 0 5 2 19 13 19 16 0 1 1 2 2 2 1 0 2 1 1 2
0 1 0 4 2 6 3 6 3 19 0 24 -1 2 -1 2 1 1 3 -2 3 -1 0 2 -1 2 -2 6 -2 11 1 7 1
8 -4 9 -3 0 -2 1 3 1 6 0 9 1 12 6 l3 5 51 -1 51 0 24 6 24 6 25 -6 c40 -10
70 -7 88 9 2 2 7 5 10 7 25 14 28 17 28 25 2 38 5 45 21 45 16 0 35 -9 42 -21
5 -8 5 -25 1 -30 -2 -1 -2 -3 -2 -3 1 -2 2 -4 4 -17 2 -10 9 -18 19 -20 11 -2
25 -11 28 -17 1 -3 6 -10 10 -14 12 -14 14 -20 16 -45 2 -24 15 -81 21 -90 6
-9 12 -12 28 -12 8 0 16 1 19 1 7 2 10 -3 22 -26 10 -22 18 -28 41 -36 14 -4
15 -4 101 -1 68 3 128 14 164 30 8 4 15 7 15 7 3 0 29 16 40 25 66 49 100 114
128 242 7 33 7 45 -2 54 -7 7 -22 13 -36 13 -12 0 -19 8 -19 23 0 10 1 12 6
17 6 6 7 6 19 5 29 -3 41 0 49 11 5 6 5 8 7 20 1 4 1 9 2 11 0 2 1 16 1 31 1
20 2 31 5 46 6 23 8 34 14 102 3 29 4 56 4 59 -1 3 -2 6 -2 7 0 3 -7 16 -12
26 -12 19 -10 29 11 52 9 11 14 26 16 56 1 15 2 33 3 40 2 29 3 72 1 71 -1 0
-2 0 -2 1 -1 1 -8 2 -18 3 -15 0 -16 0 -17 -5 -4 -12 -31 -17 -42 -7 -8 6 -9
25 -3 37 2 5 5 9 6 10 2 2 14 21 19 32 6 14 10 17 26 19 11 1 18 3 11 3 -2 0
-3 4 -3 18 1 15 0 18 -2 19 -2 1 -60 1 -128 1 -108 0 -126 0 -133 -3 -9 -4
-12 -10 -11 -24 1 -9 1 -11 -2 -12 -3 0 -3 -1 0 -1 7 0 12 -9 12 -22 0 -19 -8
-27 -27 -27 -19 0 -27 8 -27 27 0 13 5 22 12 22 3 0 3 1 0 1 -3 1 -3 3 -2 12
2 27 0 27 -91 26 -74 -1 -76 -1 -76 -3 0 -1 -2 -2 -4 -3 -5 -2 -20 -16 -21
-21 -1 -2 -2 -4 -3 -4 -1 0 -2 -1 -1 -2 1 -2 -5 -16 -8 -18 -5 -4 -39 11 -65
29 -31 21 -33 22 -79 23 -45 0 -47 0 -73 -12 -21 -11 -27 -11 -49 0 -19 9 -29
10 -49 5 -22 -5 -34 2 -34 19 0 13 6 20 16 20 4 0 10 1 14 2 4 1 10 3 13 3 7
1 15 6 20 13 11 15 25 25 48 37 13 6 29 14 35 17 6 3 12 7 13 10 2 3 5 10 7
15 5 11 15 19 25 19 21 1 26 -2 36 -20 7 -10 10 -14 20 -20 l8 -5 65 -1 c63 0
64 0 83 5 23 6 27 6 50 0 l18 -5 230 1 c127 0 231 1 233 1 1 0 2 1 2 2 0 1 1
2 3 2 4 0 14 12 18 21 3 6 3 19 3 90 0 76 0 83 -4 90 -5 11 -13 19 -25 25 -6
3 -22 13 -25 16 -1 1 -7 5 -13 8 l-10 5 -80 1 c-79 0 -81 0 -91 -4 -6 -3 -12
-7 -14 -11 -3 -3 -6 -7 -7 -9 -2 -1 -3 -3 -3 -5 0 -5 -12 -15 -18 -15 -6 0
-18 10 -18 15 0 2 -6 11 -13 18 -2 2 -8 6 -13 8 l-10 3 -19 -7 c-27 -10 -47
-10 -50 1 -1 5 2 18 5 18 1 0 3 2 5 4 2 2 10 8 17 13 7 5 14 11 15 12 1 1 5 4
9 7 4 3 11 8 15 12 48 40 49 41 72 62 23 20 23 20 23 35 0 11 -3 18 -8 23 -5
4 -8 14 -8 21 0 15 7 20 24 19 3 0 9 -3 14 -8 10 -10 15 -12 29 -12 11 0 12 0
23 12 23 21 32 40 32 65 0 24 -10 45 -26 54 -7 4 -40 24 -46 27 -3 2 -8 6 -12
8 -20 12 -58 35 -64 38 -7 5 -19 12 -31 19 -17 9 -35 6 -49 -7 -26 -26 -36
-38 -38 -43 -4 -9 -2 -23 3 -33 10 -20 10 -36 1 -47 -8 -9 -25 -11 -38 -4 -8
4 -12 6 -22 11 -2 0 -8 1 -14 0 -9 -1 -13 -2 -22 -10 -7 -5 -12 -10 -12 -12 0
-5 -11 11 -12 18 -1 9 -16 30 -21 30 -2 0 -3 1 -3 2 0 1 -1 2 -2 2 -2 0 -91 1
-199 2 l-196 1 -8 5 c-4 3 -7 6 -7 7 0 2 -14 24 -20 29 -12 12 -15 26 -9 35 2
3 8 6 14 8 28 8 39 20 36 38 -1 8 -14 23 -18 23 -2 0 -3 1 -3 2 0 1 -1 2 -2 2
-7 1 -254 2 -258 0z m112 -180 c1 0 5 -3 8 -6 5 -5 6 -7 6 -18 0 -11 -1 -13
-6 -18 -6 -6 -7 -6 -18 -6 -11 0 -12 0 -18 6 -5 5 -6 7 -6 17 0 14 3 20 12 24
5 2 8 2 22 1z m153 -65 c4 -4 5 -7 5 -14 0 -10 -2 -16 -16 -37 -6 -9 -11 -18
-12 -25 -1 -5 -2 -13 -3 -16 -1 -3 -2 -8 -2 -11 -3 -16 -27 -23 -39 -10 -6 5
-7 7 -6 19 0 19 5 50 9 58 2 3 6 8 9 11 3 3 9 9 13 14 12 13 16 16 28 16 7 0
10 -1 14 -5z m-306 -22 c5 -8 1 -16 -8 -16 -9 0 -13 8 -8 16 2 3 5 5 8 5 3 0
6 -2 8 -5z m786 -13 c11 -10 4 -27 -12 -29 -7 -1 -9 -1 -12 4 -11 18 9 39 24
25z m-1103 -7 c21 -9 20 -45 -2 -54 -10 -5 -28 -1 -34 6 -9 10 -9 32 0 42 7 8
24 11 36 6z m972 -15 c6 -6 6 -7 5 -20 -3 -31 -3 -36 -2 -42 l2 -6 14 0 c15 0
22 4 28 18 6 12 9 14 24 17 13 2 14 2 18 -2 5 -3 6 -6 6 -17 2 -17 0 -21 -13
-31 -19 -15 -19 -16 -29 -35 -4 -7 -9 -15 -11 -17 -11 -7 -33 -2 -58 15 -16 9
-19 16 -17 31 3 23 2 39 -3 44 -7 8 -24 12 -34 9 -4 -2 -9 -3 -12 -3 -6 0 -14
-6 -14 -10 0 -1 -4 -4 -8 -5 -7 -2 -8 -2 -11 1 -3 3 -3 4 0 10 3 6 5 7 10 7 2
0 7 6 10 12 1 4 4 9 6 12 2 2 6 7 8 10 5 6 14 7 49 8 l26 0 6 -6z m-180 -54
c4 -4 5 -12 2 -12 -2 0 -2 -1 0 -2 1 -2 2 -7 3 -11 3 -16 1 -23 -10 -23 -5 -1
-17 -11 -14 -13 0 -1 -2 -3 -6 -5 -4 -2 -15 -9 -24 -15 -16 -10 -25 -16 -41
-25 -5 -2 -10 -6 -12 -7 -3 -3 -25 -10 -32 -11 -3 -1 -7 1 -11 4 l-6 5 0 26 0
26 6 6 6 6 50 0 c30 -1 49 0 49 1 0 1 1 2 3 2 3 0 13 12 12 14 -1 1 0 2 1 2 1
0 2 3 3 8 1 4 2 8 3 10 2 1 2 2 0 2 -3 0 -2 8 2 12 4 4 12 4 16 0z m369 -9 c5
-8 1 -16 -8 -16 -9 0 -13 8 -8 16 2 3 5 5 8 5 3 0 6 -2 8 -5z m-724 -20 c7 -7
7 -19 0 -26 -7 -8 -23 -7 -28 1 -8 14 -1 30 15 30 6 0 9 -1 13 -5z m424 -24
c4 -4 5 -7 5 -15 0 -14 -6 -20 -19 -20 -12 0 -15 2 -23 14 -4 5 -7 10 -8 10
-1 0 -1 1 1 3 2 2 3 4 3 5 0 3 14 8 25 8 9 0 12 -1 16 -5z m250 -17 c9 -12 0
-30 -15 -30 -16 0 -24 18 -14 31 7 8 21 7 29 -1z m-254 -73 c4 -4 5 -7 5 -15
0 -14 -6 -20 -20 -20 -14 0 -20 6 -20 20 0 14 6 20 20 20 8 0 11 -1 15 -5z
m-295 -48 c9 -6 18 -29 18 -47 0 -22 -29 -25 -39 -4 -5 10 -9 26 -9 36 0 15
15 23 30 15z m216 -42 c3 -3 4 -7 4 -14 0 -13 -6 -19 -19 -19 -13 0 -19 6 -19
19 0 7 1 11 4 14 7 8 23 8 30 0z m-102 -18 l-5 -5 -4 4 -5 5 4 4 5 5 4 -4 5
-5 -4 -4z m575 -8 c6 -4 6 -6 6 -20 0 -14 0 -16 -6 -20 -4 -4 -7 -5 -18 -5
-11 0 -14 1 -18 5 -6 4 -6 6 -6 20 0 14 0 16 6 20 4 4 7 5 18 5 11 0 14 -1 18
-5z m-1158 -27 c4 -6 4 -24 -1 -30 -7 -9 -27 -9 -34 0 -5 6 -5 24 0 30 7 9 27
9 35 0z m1334 1 c6 -4 6 -6 6 -20 0 -14 0 -16 -6 -20 -4 -4 -7 -5 -18 -5 -11
0 -14 1 -18 5 -6 4 -6 6 -6 20 0 14 0 16 6 20 4 4 7 5 18 5 11 0 14 -1 18 -5z
m-1074 -28 c9 -9 7 -23 -7 -43 -6 -8 -8 -28 -4 -36 3 -7 17 -22 20 -22 1 0 3
-1 4 -3 2 -1 7 -4 11 -7 13 -6 17 -12 17 -26 0 -11 -1 -13 -6 -18 -6 -6 -7 -6
-20 -6 -8 0 -19 5 -26 13 -4 4 -8 6 -29 17 -20 10 -22 12 -25 23 -5 20 11 77
27 99 9 12 13 14 23 14 8 0 11 -1 15 -5z m415 -6 c6 -6 6 -11 0 -16 -4 -4 -6
-4 -9 -3 -3 1 -5 1 -5 1 0 -1 -2 1 -4 3 -12 12 5 26 18 15z m-88 -16 c3 -3 4
-7 4 -14 0 -13 -6 -19 -19 -19 -13 0 -19 6 -19 19 0 7 1 11 4 14 7 8 23 8 30
0z m-207 -89 c7 -6 7 -19 1 -25 -6 -7 -19 -7 -25 -1 -7 6 -7 19 -1 25 6 7 19
7 25 1z m-440 -62 c10 -9 3 -26 -10 -26 -8 0 -16 8 -15 15 2 14 16 20 25 11z
m280 -18 c10 -9 3 -26 -10 -26 -8 0 -15 7 -15 15 0 13 16 20 25 11z m164 -57
c22 -23 32 -28 65 -32 6 -1 11 -3 14 -6 4 -5 4 -5 1 -10 -2 -3 -8 -6 -12 -8
-4 -2 -14 -7 -22 -12 -19 -11 -23 -13 -32 -12 -10 0 -17 3 -21 8 -4 4 -9 21
-7 22 1 2 -5 21 -12 41 -5 13 -5 14 -2 19 6 9 11 7 28 -10z m522 -2 c20 -8 22
-10 22 -28 0 -14 0 -16 -6 -20 -8 -7 -28 -7 -36 0 -6 4 -6 6 -6 20 0 17 5 33
10 33 1 0 9 -2 16 -5z m-988 -13 c7 -6 7 -19 1 -25 -6 -7 -19 -7 -25 -1 -7 6
-7 19 -1 25 6 7 19 7 25 1z m350 -24 c9 -10 8 -30 -1 -38 -5 -5 -7 -5 -16 0
-12 5 -16 28 -8 37 6 7 20 7 25 1z m-252 -21 c12 -10 11 -45 -2 -58 -13 -13
-25 -11 -25 4 0 6 -2 11 -6 17 -8 13 -9 28 0 36 8 8 25 9 33 1z m660 -18 c5
-8 1 -16 -8 -16 -9 0 -13 8 -8 16 2 3 5 5 8 5 3 0 6 -2 8 -5z m550 2 c3 -3 3
-3 0 -6 -4 -5 -11 1 -7 6 4 4 4 4 7 0z m-304 -44 c4 -3 6 -6 7 -18 1 -8 2 -16
4 -18 2 -4 2 -5 2 -9 0 -1 2 -4 5 -8 9 -11 16 -12 54 -12 30 0 35 0 42 4 10 5
13 8 14 14 0 2 1 5 2 5 0 1 1 5 1 8 0 4 1 7 3 8 1 0 1 1 -1 1 -10 0 -1 17 8
17 9 0 18 -17 9 -17 -3 0 -3 -1 -1 -1 1 -1 2 -4 2 -8 0 -3 1 -7 1 -8 1 0 2 -3
2 -6 1 -4 11 -14 19 -17 3 -1 15 -2 30 -1 l26 2 5 -6 c7 -7 7 -19 0 -26 -4 -4
-7 -5 -16 -5 -16 1 -30 -2 -37 -9 -8 -7 -10 -13 -12 -40 -1 -14 -3 -32 -3 -39
-2 -15 -2 -15 0 -23 3 -13 9 -21 25 -30 20 -12 22 -15 22 -30 0 -10 -1 -12 -6
-17 -3 -3 -7 -6 -8 -6 -11 -1 -30 -10 -37 -17 -8 -8 -12 -21 -14 -38 -4 -38
-21 -131 -30 -160 -11 -37 -21 -61 -32 -72 -8 -9 -35 -24 -50 -27 -23 -5 -30
-8 -38 -15 -7 -7 -8 -9 -8 -13 1 -4 1 -6 -1 -6 -6 0 1 -14 7 -15 2 -1 4 -2 5
-3 0 -1 7 -6 15 -10 17 -10 20 -12 23 -23 2 -10 0 -23 -6 -30 -9 -11 -31 -11
-43 0 -5 4 -10 21 -8 25 1 1 1 10 1 19 0 13 -1 17 -4 19 -2 2 -4 5 -6 9 -1 3
-6 7 -9 10 -4 3 -9 7 -12 10 -2 2 -8 7 -12 10 -4 3 -8 6 -9 7 -3 3 -24 11 -40
14 -12 2 -20 5 -22 7 -9 9 -9 34 0 42 2 1 4 3 3 3 -1 0 -1 1 1 2 3 2 5 24 2
24 -1 0 -2 1 -1 2 0 1 -3 4 -6 8 -9 10 -37 16 -55 12 -9 -2 -20 1 -24 6 -6 7
-5 25 1 31 8 8 20 7 37 -1 8 -4 16 -7 23 -7 16 -2 23 3 37 28 9 14 13 19 19
22 4 2 8 4 9 5 3 3 6 2 7 -2 1 -4 1 -4 4 -1 4 5 4 27 0 35 -2 4 -3 6 -3 5 0
-1 -2 1 -4 4 -5 6 -5 12 1 36 1 8 3 19 3 25 1 11 9 24 15 24 4 0 21 17 21 22
0 2 1 4 2 5 4 2 3 115 -1 124 -4 9 -14 21 -18 21 -2 0 -3 1 -3 2 0 1 -1 2 -2
2 -8 2 -498 2 -504 0 -11 -3 -16 -9 -18 -25 -1 -7 -1 -13 0 -13 4 -2 6 -18 4
-26 -2 -11 -7 -16 -18 -18 -10 -2 -23 0 -28 6 -8 7 -9 33 -3 38 1 0 2 2 3 4 1
5 13 22 23 33 5 5 9 9 8 9 -1 0 -1 1 1 2 2 1 2 2 1 2 -1 0 4 7 12 15 12 11 18
16 27 19 14 5 23 10 27 14 5 5 11 25 11 33 0 10 6 17 16 17 10 0 15 -6 17 -20
1 -16 8 -30 18 -36 l8 -4 79 1 c82 1 84 1 84 3 0 1 2 2 4 3 2 1 10 7 16 13 7
7 14 13 17 13 6 2 17 -5 23 -13 2 -3 7 -8 12 -10 4 -3 7 -5 8 -6 2 -2 9 -3 44
-4 36 0 36 0 47 5 6 3 12 8 14 11 6 9 13 22 13 25 0 7 9 13 26 17 9 2 23 6 30
8 19 5 34 5 41 -1z m-840 -22 c3 -3 3 -3 0 -6 -4 -5 -11 1 -7 6 4 4 4 4 7 0z
m156 -2 c12 -12 3 -31 -13 -31 -11 0 -18 7 -18 18 0 11 7 18 18 18 6 0 9 -1
13 -5z m1046 -89 c5 -5 6 -7 6 -16 0 -15 -8 -23 -23 -23 -9 0 -11 1 -16 7 -9
8 -9 23 -1 32 9 9 24 9 34 0z m49 -86 c3 -3 4 -8 4 -14 0 -14 -6 -20 -20 -20
-14 0 -20 6 -20 19 0 12 3 17 10 20 8 3 22 1 26 -5z m-1351 -1 c4 -5 4 -17 -1
-22 -10 -11 -28 -3 -28 11 0 15 19 23 29 11z m476 -23 c7 -6 7 -19 1 -25 -6
-7 -19 -7 -25 -1 -7 6 -7 19 -1 25 6 7 19 7 25 1z m-579 -8 c5 -5 6 -7 6 -17
0 -16 -7 -23 -23 -23 -16 0 -23 7 -23 23 0 16 7 23 23 23 10 0 12 -1 17 -6z
m301 -27 c2 -2 4 -14 6 -25 2 -16 4 -23 7 -28 6 -9 16 -18 20 -18 1 0 2 -1 2
-2 0 -2 15 -5 19 -4 4 1 11 -2 13 -7 4 -10 1 -31 -6 -37 -9 -10 -29 -8 -49 5
-6 4 -14 17 -20 34 -3 10 -10 18 -18 23 -3 1 -6 2 -6 2 0 0 -5 1 -10 3 -10 3
-19 9 -19 13 0 5 7 14 13 17 8 5 11 7 19 16 4 4 8 7 9 7 1 0 3 1 4 3 5 5 12 4
16 -2z m116 -23 c4 -4 5 -7 5 -13 0 -17 -5 -24 -16 -26 -20 -4 -21 -4 -26 3
-9 13 -1 40 13 42 9 2 18 0 24 -6z m479 -52 c5 -5 6 -7 6 -17 0 -16 -7 -23
-23 -23 -10 0 -12 1 -17 6 -5 5 -6 7 -6 17 0 16 7 23 23 23 10 0 12 -1 17 -6z
m-396 -10 c17 -8 9 -7 129 -9 l72 -1 11 -6 c7 -3 13 -6 13 -8 2 -3 22 -27 30
-35 1 -1 6 -6 10 -12 13 -17 8 -41 -8 -41 -17 -1 -21 1 -39 18 -20 19 -48 30
-66 27 -4 -1 -15 -5 -24 -8 -23 -10 -32 -10 -55 0 l-18 8 -53 0 -53 0 -6 6 -6
6 1 21 c2 19 5 33 9 37 1 1 6 3 13 5 13 4 18 3 40 -8z m144 -139 c3 -3 4 -7 4
-14 0 -13 -6 -19 -19 -19 -13 0 -19 6 -19 19 0 7 1 11 4 14 7 8 23 8 30 0z
m664 -17 c12 -6 15 -32 5 -43 -9 -10 -32 -11 -41 -1 -9 8 -9 32 0 41 6 6 26 8
36 3z m-964 -50 c5 -5 5 -11 0 -16 -10 -10 -27 5 -16 16 4 4 12 4 16 0z m1008
-43 l-5 -5 -4 4 -5 5 4 4 5 5 4 -4 5 -5 -4 -4z m-182 -44 c21 -9 20 -45 -2
-54 -10 -5 -28 -1 -34 6 -8 9 -9 31 -1 41 6 8 25 12 37 7z m-775 -19 c4 -6 4
-24 -1 -30 -7 -9 -27 -9 -34 0 -5 6 -5 24 0 30 7 9 27 9 35 0z m897 -68 c9 -9
2 -24 -10 -24 -3 0 -8 2 -10 4 -9 9 -2 24 10 24 3 0 8 -2 10 -4z"/>
<path d="M1283 2308 c-8 -6 -23 -23 -23 -28 0 -1 -2 -3 -5 -5 -3 -3 -4 -7 -5
-12 0 -4 -1 -11 -1 -14 -1 -3 -1 -5 0 -5 1 1 3 0 4 -2 1 -3 8 -9 15 -13 7 -5
15 -11 19 -14 3 -3 5 -4 5 -3 0 1 5 2 11 2 15 -1 19 2 25 20 4 14 1 68 -4 68
-1 0 -3 2 -5 4 -4 3 -19 8 -25 8 -2 0 -7 -3 -11 -6z"/>
</g>
</svg>
