<?xml version="1.0" standalone="no"?>
<!DOCTYPE svg PUBLIC "-//W3C//DTD SVG 20010904//EN"
 "http://www.w3.org/TR/2001/REC-SVG-20010904/DTD/svg10.dtd">
<svg version="1.0" xmlns="http://www.w3.org/2000/svg"
 width="1100.000000pt" height="2850.000000pt" viewBox="0 0 1100.000000 2850.000000"
 preserveAspectRatio="xMidYMid meet">
<metadata>
Created by potrace 1.15, written by Peter Selinger 2001-2017
</metadata>
<g transform="translate(0.000000,2850.000000) scale(0.500000,-0.500000)"
fill="#000000" stroke="none">
<path d="M568 3812 c-3 -1 -6 -1 -7 0 0 0 -1 0 -1 -2 0 -1 -1 -2 -3 -2 -4 0
-14 -12 -18 -21 -3 -7 -3 -14 -3 -37 l1 -29 -6 -6 -6 -6 -210 0 c-206 0 -221
0 -221 -3 0 -1 -1 -2 -3 -2 -4 0 -14 -12 -18 -21 -5 -11 -5 -217 0 -228 4 -9
14 -21 18 -21 2 0 3 -1 3 -2 0 -1 1 -2 3 -2 6 -1 297 -3 359 -2 l69 1 6 -6 c6
-6 6 -7 5 -24 -1 -14 -2 -18 -6 -22 -4 -4 -5 -4 -10 -2 -3 1 -12 5 -20 9 -8 4
-22 10 -30 13 -17 8 -25 9 -37 3 -9 -4 -11 -9 -16 -32 -4 -18 -11 -24 -28 -25
-9 0 -14 1 -25 8 -13 9 -41 6 -46 -4 -2 -6 -44 -69 -46 -71 -1 -1 -4 -5 -8
-11 -4 -5 -13 -17 -20 -26 -17 -23 -19 -29 -17 -54 2 -26 -1 -30 -22 -32 -15
-1 -29 -5 -31 -8 -1 -1 -2 -1 -2 0 0 1 -14 -12 -31 -29 -36 -37 -54 -51 -81
-65 -14 -7 -25 -18 -27 -26 -3 -16 -3 -17 11 -54 29 -77 28 -75 41 -81 9 -5
29 -12 29 -11 0 1 2 -1 4 -3 6 -6 4 -15 -8 -29 -21 -22 -12 -57 16 -67 9 -3
17 -3 29 1 13 4 66 13 76 13 5 0 10 -1 13 -4 l4 -4 -10 -9 c-8 -8 -21 -19 -31
-28 -9 -8 -28 -24 -42 -35 -2 -2 -4 -4 -6 -5 -14 -13 -41 -29 -64 -39 -24 -11
-30 -17 -33 -36 -1 -8 -1 -12 4 -25 16 -41 41 -114 53 -157 8 -26 11 -36 17
-44 4 -6 5 -12 2 -12 -5 0 -26 -21 -30 -29 -3 -6 -5 -18 -7 -42 -2 -19 -5 -49
-7 -67 -2 -18 -4 -39 -5 -46 -1 -7 -2 -14 -2 -14 0 -1 -1 -6 -2 -13 -1 -6 -2
-13 -2 -16 -1 -2 -2 -11 -3 -19 -5 -36 -16 -93 -26 -137 -5 -19 -4 -30 4 -41
6 -9 23 -17 41 -21 22 -4 103 -28 138 -42 21 -7 22 -8 33 -5 18 3 25 13 32 43
13 53 34 165 39 202 1 5 2 10 2 11 0 0 1 6 2 12 5 44 5 47 11 47 4 0 5 -2 6
-7 2 -9 12 -101 15 -136 1 -7 2 -23 3 -36 1 -13 2 -37 3 -54 2 -46 9 -58 35
-64 5 -1 8 -1 9 0 1 0 3 1 5 1 1 1 7 2 11 3 4 1 22 5 40 9 18 4 39 9 48 11 9
3 18 5 21 5 27 6 54 14 54 17 0 1 2 2 4 3 5 2 12 13 15 24 2 8 1 18 -2 56 -6
59 -7 62 -34 76 -18 9 -21 12 -21 20 0 5 2 8 7 13 4 4 12 11 17 16 10 9 14 11
17 7 3 -2 10 -15 10 -18 0 -1 2 -7 4 -14 4 -15 9 -33 10 -38 0 -2 3 -11 5 -20
2 -9 5 -18 5 -21 1 -3 3 -12 5 -20 2 -8 4 -19 5 -24 2 -12 10 -25 18 -28 11
-4 26 -6 30 -4 3 1 10 2 17 3 23 2 29 4 78 21 16 6 35 12 42 14 17 6 42 18 41
20 -1 1 0 2 1 2 2 0 6 9 9 19 1 3 3 9 6 12 l5 6 11 -4 c7 -1 29 -6 49 -11 20
-4 51 -11 67 -15 17 -4 32 -8 35 -8 9 -2 11 -3 22 -6 10 -2 41 -10 51 -12 5
-1 5 -1 31 -8 10 -3 21 -5 24 -6 3 0 7 -1 9 -2 2 0 14 -4 27 -7 13 -3 32 -8
43 -11 10 -3 27 -7 38 -10 42 -11 131 -36 177 -49 27 -8 57 -17 67 -19 10 -3
20 -6 22 -7 2 -1 27 -9 54 -17 28 -9 51 -16 52 -17 6 -5 32 4 40 12 5 6 7 8
35 63 11 21 25 49 32 62 7 13 17 33 22 43 6 11 11 20 12 21 2 2 0 22 -3 29 -3
6 -8 10 -17 15 -6 3 -74 23 -113 33 -9 2 -18 5 -20 6 -3 1 -33 9 -44 11 -2 1
-6 2 -10 3 -3 1 -8 2 -11 3 -3 0 -23 5 -45 11 -22 6 -47 12 -56 14 -9 2 -20 5
-24 6 -4 1 -10 2 -13 3 -3 0 -9 2 -14 3 -17 4 -32 4 -47 1 -23 -5 -31 -4 -47
10 -16 13 -26 17 -72 27 -25 5 -48 10 -51 11 -3 0 -21 4 -39 8 -18 4 -36 7
-39 8 -3 0 -32 6 -63 12 -96 19 -101 18 -128 -32 -5 -9 -12 -20 -14 -25 -19
-32 -28 -48 -34 -59 -4 -7 -8 -14 -9 -16 -18 -31 -19 -32 -25 -29 -3 2 -6 6
-7 12 -4 17 -55 180 -68 216 -4 10 -7 20 -8 22 -3 14 -16 34 -23 36 -3 1 -6 3
-6 4 0 1 -1 2 -2 1 -2 -1 -6 5 -6 9 0 2 17 9 36 15 41 12 53 29 44 63 -5 21
-7 34 -3 34 5 0 14 -13 36 -56 14 -25 22 -32 41 -35 9 -1 31 5 61 16 7 2 16 5
21 7 5 1 12 4 16 5 69 25 79 28 84 27 7 -2 7 -7 -1 -17 -14 -20 -68 -90 -69
-91 -1 0 -2 -7 -2 -14 0 -24 7 -28 62 -41 13 -3 28 -7 35 -8 7 -2 14 -3 16 -4
2 0 13 -3 24 -6 11 -3 21 -5 23 -6 10 -2 139 -37 183 -49 23 -7 48 -14 55 -16
40 -12 158 -49 215 -69 29 -9 33 -10 41 -9 18 3 25 8 35 24 3 5 6 9 7 10 1 1
7 10 15 22 8 12 14 21 15 22 1 1 7 10 15 22 8 12 14 21 15 22 1 1 8 11 16 22
13 21 14 22 14 34 0 21 -7 27 -46 39 -25 8 -115 35 -120 36 -2 0 -9 3 -17 5
-26 8 -148 41 -157 43 -3 0 -12 3 -21 5 -44 12 -62 16 -81 21 -12 3 -27 6 -34
8 -20 5 -39 9 -43 10 -2 0 -12 3 -21 5 -9 2 -19 4 -22 5 -35 6 -51 13 -49 20
1 1 12 8 26 14 14 6 41 20 62 30 33 16 37 18 50 19 l15 0 32 -16 c109 -53 201
-86 326 -117 65 -16 67 -16 81 -12 15 4 23 11 35 33 5 10 10 18 10 19 0 1 34
56 36 57 1 1 3 5 6 9 7 11 40 55 54 71 l11 13 0 14 c0 13 -1 15 -7 22 -7 7
-28 22 -39 27 -3 1 -16 4 -28 7 -25 5 -33 4 -56 -6 -22 -10 -25 -10 -40 6 -7
8 -13 14 -13 15 0 2 -24 13 -31 15 -21 4 -84 22 -90 26 -5 3 -7 8 -6 12 1 3
13 13 43 38 27 22 102 94 109 105 4 7 4 27 -1 42 -4 11 -4 12 -1 17 3 5 8 6
16 3 14 -6 47 0 47 8 0 1 3 5 7 9 4 5 7 9 7 9 0 1 2 4 4 6 2 3 9 12 16 21 6 9
11 16 12 17 3 3 16 23 24 38 8 17 6 32 -5 45 -4 4 -94 58 -106 63 -2 1 -7 4
-10 6 -41 25 -55 29 -81 23 -17 -4 -26 -9 -30 -15 -3 -7 -8 -30 -6 -31 4 -3 2
-17 -3 -22 -7 -7 -21 -7 -27 0 -4 6 -6 22 -2 23 1 1 0 7 -2 14 -3 14 -8 21
-18 24 -2 1 -58 2 -129 2 -69 0 -126 0 -126 0 0 1 -2 3 -4 6 -2 5 -2 6 0 7 6
2 15 21 14 29 -1 4 -2 7 -3 8 -1 0 2 3 7 5 8 5 14 6 34 7 30 2 29 2 29 4 0 1
1 2 3 2 4 0 14 12 18 21 2 6 3 14 3 37 l-1 29 6 6 6 6 142 -1 c136 0 142 0
150 4 6 2 10 6 12 10 5 9 9 25 7 28 -1 1 -1 6 -1 10 3 25 43 25 46 0 0 -4 0
-9 -1 -10 -2 -3 2 -19 7 -28 5 -11 18 -15 40 -13 22 1 23 1 30 7 10 6 13 18
14 42 0 12 2 25 3 30 1 5 2 41 2 88 0 68 0 81 -3 87 -4 9 -14 21 -18 21 -2 0
-3 1 -3 2 0 3 -15 3 -189 3 l-178 0 -18 -7 c-31 -14 -44 -10 -52 14 0 2 -1 17
-1 33 0 39 -5 48 -25 58 l-11 5 -123 -1 c-128 0 -129 -1 -129 -3 0 -1 -1 -2
-3 -2 -4 0 -14 -12 -18 -21 -3 -7 -3 -14 -3 -36 l1 -28 -6 -6 -6 -6 -146 0
-146 0 -6 6 -6 6 1 29 c0 23 0 30 -3 37 -4 9 -14 21 -18 21 -2 0 -3 1 -3 2 0
1 -1 2 -2 2 -7 1 -250 2 -254 0z m1046 -232 c5 -5 5 -11 0 -16 -10 -10 -27 5
-16 16 4 4 12 4 16 0z m-1210 -91 l-5 -5 -4 4 -5 5 4 4 5 5 4 -4 5 -5 -4 -4z
m314 -27 c5 -5 5 -15 0 -20 -9 -9 -24 -2 -24 10 0 8 6 14 14 14 3 0 8 -2 10
-4z m439 -39 c6 -6 6 -6 5 -22 -1 -14 -2 -17 -6 -23 -4 -3 -6 -5 -6 -4 0 4
-24 1 -33 -4 -11 -5 -17 -12 -27 -31 -23 -44 -43 -76 -76 -120 -10 -14 -20
-27 -21 -28 -1 -1 -5 -6 -8 -10 -3 -4 -10 -12 -14 -17 -4 -5 -11 -12 -15 -17
-19 -21 -74 -75 -88 -85 -3 -3 -8 -6 -9 -7 -2 -2 -3 -3 -4 -3 -1 0 -3 -1 -5
-3 -5 -4 -13 -2 -10 2 1 2 2 3 1 3 -1 0 0 2 2 5 2 4 4 10 4 18 0 19 -5 26 -29
38 -8 5 -20 11 -27 15 -7 4 -17 9 -24 13 -7 4 -17 9 -24 13 -7 4 -17 10 -24
13 -7 4 -16 9 -21 12 -65 35 -73 39 -80 39 -19 0 -28 -7 -41 -29 -18 -31 -31
-51 -73 -111 -22 -31 -27 -34 -58 -35 -20 0 -22 0 -29 5 -6 4 -6 5 -3 6 1 1
24 23 50 49 52 53 61 63 95 102 8 9 15 17 16 17 3 2 1 25 -3 32 -2 4 -4 6 -4
5 0 0 -2 1 -5 4 -3 3 -8 6 -11 7 -11 4 -18 29 -12 40 7 14 45 12 43 -2 -1 -6
4 -17 9 -21 8 -5 32 -5 35 0 4 5 4 24 1 26 -2 0 -2 1 -1 1 1 0 7 4 12 9 17 16
33 18 64 7 16 -5 17 -5 63 -5 48 0 58 1 58 3 0 1 1 2 3 2 4 0 14 12 18 21 2 6
3 14 3 36 l-1 28 6 6 6 6 146 0 146 0 6 -6z m198 -168 c6 -4 3 -12 -7 -17 -10
-5 -12 -5 -17 1 -3 5 -3 5 0 10 6 9 16 12 24 6z m340 -239 c4 -6 4 -24 -1 -30
-7 -9 -27 -9 -34 0 -5 6 -5 24 0 30 7 9 27 9 35 0z m-249 0 c3 -4 5 -6 4 -6
-2 0 -8 -4 -14 -8 -14 -11 -29 -22 -54 -39 -29 -19 -38 -20 -64 -1 -8 6 -16
12 -18 13 -1 2 -6 5 -10 8 -4 3 -13 11 -19 16 -7 6 -14 11 -15 11 -3 0 8 9 13
11 2 0 41 0 87 0 l83 0 7 -5z m-274 -60 c5 -6 5 -12 0 -18 -7 -8 -22 -2 -22 9
0 11 15 17 22 9z m-707 -3 c3 -3 3 -3 0 -6 -4 -5 -11 1 -7 6 4 4 4 4 7 0z
m312 -6 c8 -4 42 -39 58 -58 9 -11 29 -35 33 -40 1 -1 6 -7 11 -13 9 -12 10
-14 26 -37 6 -10 13 -18 17 -20 9 -5 23 -6 30 -2 6 2 42 30 56 42 3 3 6 5 6 5
4 0 11 14 17 31 8 22 11 27 20 27 9 0 14 -6 18 -23 3 -14 6 -21 14 -34 4 -6 4
-7 1 -12 -2 -4 -7 -8 -11 -10 -22 -10 -102 -40 -115 -42 -2 0 -5 -2 -7 -3 -5
-4 -94 -31 -143 -43 -29 -8 -34 -6 -44 21 -31 82 -35 89 -57 94 -11 2 -12 2
-30 -3 -23 -6 -35 -6 -35 1 0 2 7 11 17 20 13 15 38 41 56 61 16 17 32 36 33
37 2 3 15 8 19 7 2 -1 7 -3 10 -6z m349 -70 l-5 -5 -4 4 -5 5 4 4 5 5 4 -4 5
-5 -4 -4z m-594 -171 l4 -6 -5 -5 c-6 -6 -14 -7 -24 -2 -4 2 -7 4 -7 4 0 1 3
4 8 8 9 9 18 9 24 1z m519 -5 c12 -12 3 -31 -13 -31 -11 0 -18 7 -18 18 0 11
7 18 18 18 6 0 9 -1 13 -5z m-329 -213 c5 -5 5 -7 1 -15 -3 -6 -4 -7 -9 -6 -6
2 -12 8 -12 13 0 10 13 15 20 8z m-117 -34 c3 -3 6 -5 7 -5 0 0 0 -2 1 -4 3
-15 11 -26 22 -31 4 -2 10 -5 12 -7 3 -4 3 -5 -2 -8 -3 -2 -16 -7 -29 -11 -24
-9 -32 -10 -61 -7 -17 2 -16 2 -61 -8 -23 -5 -54 -11 -69 -15 -15 -3 -33 -7
-39 -9 -16 -5 -33 -5 -51 2 -11 4 -84 19 -144 30 -12 2 -19 9 -14 13 3 2 24 9
37 11 3 1 10 2 17 4 7 2 26 5 42 8 17 3 32 5 35 6 14 3 175 22 222 27 21 2 64
7 68 8 1 0 4 -2 7 -4z m742 -68 c5 -5 6 -7 6 -16 0 -15 -8 -23 -23 -23 -9 0
-11 1 -16 7 -9 8 -9 23 -1 32 9 9 24 9 34 0z m304 -24 c11 -10 3 -28 -11 -28
-9 0 -16 6 -16 16 0 14 17 22 27 12z m-43 -339 c3 -3 4 -7 4 -14 0 -13 -6 -19
-19 -19 -13 0 -19 6 -19 19 0 7 1 11 4 14 7 8 23 8 30 0z m-1395 -19 c7 -6 7
-19 1 -25 -6 -7 -19 -7 -25 -1 -7 6 -7 19 -1 25 6 7 19 7 25 1z"/>
</g>
</svg>
