<?xml version="1.0" standalone="no"?>
<!DOCTYPE svg PUBLIC "-//W3C//DTD SVG 20010904//EN"
 "http://www.w3.org/TR/2001/REC-SVG-20010904/DTD/svg10.dtd">
<svg version="1.0" xmlns="http://www.w3.org/2000/svg"
 width="1000.000000pt" height="2850.000000pt" viewBox="0 0 1000.000000 2850.000000"
 preserveAspectRatio="xMidYMid meet">
<metadata>
Created by potrace 1.15, written by Peter Selinger 2001-2017
</metadata>
<g transform="translate(0.000000,2850.000000) scale(0.500000,-0.500000)"
fill="#000000" stroke="none">
<path d="M332 3781 c-7 -2 -24 -16 -56 -47 -7 -6 -19 -18 -26 -24 -19 -18 -76
-72 -84 -80 -9 -10 -11 -16 -10 -30 1 -12 2 -12 15 -26 12 -12 15 -14 26 -17
9 -2 17 -3 27 -2 13 1 15 1 19 -3 4 -4 5 -6 5 -20 0 -37 7 -43 55 -44 6 0 10
-1 14 -5 5 -4 6 -6 7 -25 2 -30 5 -37 24 -56 8 -9 23 -24 32 -34 24 -26 28
-28 71 -28 3 0 7 -2 10 -5 5 -5 5 -6 4 -20 -2 -22 -2 -27 2 -33 4 -4 6 -5 17
-6 11 0 13 0 17 5 3 3 5 4 5 3 0 0 1 0 2 1 1 2 38 40 82 85 44 45 82 84 83 86
4 7 4 25 0 33 -3 8 -15 20 -58 64 -39 39 -60 59 -101 95 -8 7 -16 14 -18 16
-5 5 -34 30 -52 45 -9 8 -21 19 -27 24 -6 5 -14 10 -19 12 -18 5 -26 12 -32
26 -3 6 -5 9 -8 10 -10 2 -19 2 -26 0z m40 -79 c5 -23 6 -27 4 -35 -4 -14 -11
-19 -27 -20 -15 -1 -26 7 -29 21 -2 11 0 20 10 44 7 17 11 22 21 25 10 3 14
-3 21 -35z m139 -201 c5 -8 1 -16 -8 -16 -9 0 -13 8 -8 16 2 3 5 5 8 5 3 0 6
-2 8 -5z"/>
<path d="M820 3670 c-3 -1 -6 -1 -7 0 0 0 -1 0 -1 -2 0 -1 -1 -2 -3 -2 -4 0
-14 -12 -18 -21 -3 -6 -3 -19 -3 -83 0 -86 0 -89 15 -105 20 -21 20 -29 1 -49
-7 -8 -8 -9 -8 -20 0 -11 1 -13 6 -17 3 -3 6 -5 8 -5 1 0 2 -1 2 -2 0 -1 1 -2
2 -2 0 1 5 0 11 -1 6 -1 15 -1 24 1 9 1 24 3 34 3 17 1 30 4 45 10 4 2 15 4
24 4 20 1 25 3 30 13 3 6 3 8 0 10 -3 3 -2 27 3 36 8 15 41 15 48 -1 6 -11 3
-37 -5 -37 -2 0 -2 -1 -1 -2 1 0 2 -6 2 -12 0 -20 7 -25 33 -26 14 0 20 1 36
6 25 8 41 8 47 1 3 -3 5 -6 5 -7 0 0 1 -3 1 -5 1 -2 1 -8 1 -13 0 -22 9 -37
30 -46 13 -6 18 -12 18 -19 0 -7 -5 -13 -18 -19 -13 -5 -22 -13 -26 -23 -4 -7
-4 -14 -4 -75 0 -88 1 -91 25 -89 l13 2 0 -9 0 -9 -13 2 c-23 2 -25 -4 -25
-67 0 -49 0 -46 13 -77 6 -15 6 -19 0 -34 -13 -31 -13 -28 -13 -79 0 -56 1
-59 21 -79 18 -18 18 -22 1 -38 -7 -7 -14 -16 -17 -22 l-5 -11 0 -121 c0 -129
0 -131 9 -141 8 -9 21 -12 48 -9 28 2 40 -31 20 -54 -4 -4 -6 -9 -6 -9 1 -1 0
-2 -1 -2 -3 0 -7 -28 -4 -32 3 -5 31 -4 35 1 2 1 5 3 6 3 2 0 3 1 3 2 0 7 29
4 36 -4 3 -3 21 -12 34 -17 18 -7 22 -12 22 -27 0 -11 -1 -13 -6 -18 -5 -6 -9
-7 -16 -6 -6 1 -31 -7 -44 -13 -17 -8 -24 -9 -30 -2 -5 5 -5 5 -2 22 3 24 1
39 -7 42 -7 4 -32 4 -35 0 -7 -6 -21 1 -19 10 0 2 0 9 -2 14 -2 6 -3 9 -3 8 0
-1 -1 0 -2 2 -3 5 -14 9 -25 9 -7 0 -10 -1 -14 -6 -7 -6 -10 -10 -11 -13 0 -1
-2 -5 -3 -8 -2 -4 -3 -9 -3 -11 0 -3 -1 -4 -6 -4 -5 0 -6 1 -6 4 0 3 -2 9 -5
15 -4 9 -7 11 -14 15 -10 4 -10 4 -22 1 -7 -2 -14 -5 -17 -6 -22 -15 -36 -17
-53 -8 -6 3 -11 6 -12 7 -1 1 -6 4 -11 5 -8 3 -20 4 -102 5 l-94 1 -5 6 c-3 3
-4 5 -3 5 1 0 9 6 18 14 8 7 19 16 24 20 5 4 11 9 13 11 2 2 7 6 11 9 4 3 10
8 13 11 3 2 9 8 14 11 30 25 47 40 47 44 1 18 -1 27 -7 37 -4 5 -9 16 -11 24
-8 27 -12 38 -22 61 -11 26 -14 29 -25 32 -11 3 -29 4 -30 2 -2 -4 -14 -2 -19
3 -9 10 -5 18 16 32 17 10 21 29 12 52 -2 6 -7 14 -10 18 -5 5 -7 6 -20 7 -12
0 -15 0 -18 -3 -2 -2 -7 -7 -12 -11 -4 -3 -10 -8 -12 -10 -2 -2 -8 -7 -12 -10
-4 -3 -10 -8 -12 -10 -2 -2 -8 -7 -12 -10 -4 -3 -10 -8 -12 -10 -2 -2 -8 -7
-12 -10 -4 -3 -10 -8 -12 -10 -2 -2 -13 -11 -25 -21 -12 -10 -24 -20 -27 -23
-6 -5 -6 -5 -12 4 -3 4 -4 11 -4 28 0 23 -4 39 -8 39 -1 -1 -2 0 -2 1 0 0 -7
1 -14 1 -12 0 -16 -1 -18 -3 -5 -6 -19 -12 -26 -12 -4 0 -16 -2 -27 -5 -23 -6
-30 -6 -34 -2 -3 3 -8 16 -10 30 -1 3 -3 13 -5 21 -7 28 1 43 25 43 15 0 21
-5 29 -20 3 -7 6 -13 6 -14 0 -4 7 -6 20 -7 l15 -2 7 11 c3 5 6 12 7 15 1 3 5
9 10 14 22 20 25 28 25 70 0 47 -3 55 -35 70 -19 10 -30 14 -47 15 -11 1 -14
2 -17 6 -3 5 -3 5 0 10 3 3 6 5 11 5 6 0 12 1 28 5 9 2 41 18 47 24 14 14 17
42 8 78 -7 27 -7 27 -1 52 6 21 6 24 6 69 0 39 -1 49 -3 55 -4 9 -14 21 -18
21 -2 0 -3 1 -3 2 0 2 -2 2 -97 3 -99 1 -101 1 -112 -9 -6 -5 -10 -20 -12 -37
-1 -16 -5 -23 -17 -33 -25 -22 -58 -21 -58 1 0 8 4 20 10 26 3 4 21 13 26 13
3 0 3 0 0 2 -2 1 -3 5 -3 18 0 12 -1 17 -3 18 -3 2 -230 2 -237 0 -2 0 -3 -1
-3 -2 0 -1 -1 -2 -3 -2 -4 0 -14 -12 -18 -21 -3 -7 -3 -21 -3 -119 0 -73 1
-112 2 -115 2 -3 2 -4 0 -5 -2 -1 5 -2 16 -2 14 0 20 -1 21 -2 0 -2 1 0 1 3 0
8 6 16 14 19 16 7 38 0 41 -13 5 -19 15 -34 28 -40 10 -5 11 -5 63 -5 52 0 68
-2 83 -9 13 -5 12 -28 -3 -50 -17 -26 -16 -18 -16 -161 l1 -127 5 -9 c2 -5 8
-14 14 -20 11 -12 13 -19 11 -34 -1 -8 -13 -42 -17 -47 -3 -4 -18 -44 -19 -52
-3 -21 -15 -59 -28 -85 -10 -22 -25 -48 -27 -48 -1 0 -2 -1 -2 -3 0 -1 -1 -3
-1 -3 -1 -1 -6 -7 -11 -14 -5 -7 -9 -13 -10 -14 -1 -1 -4 -5 -8 -10 -13 -17
-37 -43 -56 -61 -22 -21 -22 -40 1 -59 29 -24 36 -31 73 -68 33 -33 59 -62 65
-73 6 -8 19 -12 38 -11 2 0 15 12 30 27 34 33 50 48 115 104 29 25 56 48 60
52 4 3 12 10 19 16 7 5 12 10 13 11 1 1 6 5 13 11 7 5 13 11 14 12 2 1 9 8 17
14 8 7 25 22 38 32 24 20 33 28 47 39 5 4 9 8 9 10 0 2 1 2 1 0 1 -2 2 -4 3
-4 1 0 4 -3 5 -7 3 -6 3 -26 3 -119 0 -97 0 -112 3 -119 4 -9 14 -21 18 -21 2
0 3 -1 3 -2 0 -2 2 -2 49 -3 50 -1 58 0 77 15 22 18 39 18 60 0 5 -3 14 -9 20
-11 11 -5 11 -5 105 -5 56 0 97 1 101 2 4 1 10 5 13 8 6 7 13 27 11 34 -3 7 1
19 9 31 l8 12 0 24 c0 29 2 33 16 33 11 0 17 -6 17 -17 0 -5 -1 -9 -1 -10 -2
-2 -3 -7 -4 -20 -1 -10 0 -15 4 -25 6 -17 7 -23 5 -28 -2 -7 5 -27 11 -34 3
-3 9 -7 13 -8 4 -1 71 -2 177 -2 187 0 181 0 191 11 6 7 12 21 13 32 2 12 10
20 23 20 11 0 15 -2 27 -17 14 -18 25 -26 51 -37 l17 -8 73 0 c73 0 84 0 84 3
0 1 1 2 3 2 4 0 14 12 18 21 3 7 3 22 3 129 0 115 0 122 -4 130 -5 12 -13 19
-25 22 -15 3 -22 -4 -27 -26 -1 -5 -1 -10 -1 -11 4 -5 1 -17 -6 -27 -7 -10 -7
-11 -6 -22 0 -7 1 -14 1 -15 0 -2 5 -5 9 -8 11 -7 15 -14 15 -24 0 -20 -24
-22 -55 -4 -20 11 -23 25 -10 42 3 6 8 14 10 18 3 7 6 31 5 45 0 17 -8 30 -20
34 -2 1 -38 2 -79 2 -68 0 -75 0 -82 -4 -9 -4 -24 -18 -26 -24 -1 -2 -3 -4 -5
-5 -2 -1 -4 -2 -4 -3 0 -1 -3 -2 -6 -2 -3 0 -6 1 -6 2 0 1 -2 2 -4 3 -2 1 -4
3 -5 5 -2 6 -19 22 -28 25 -7 3 -15 3 -50 3 l-42 -1 -6 6 -6 6 1 79 0 80 -5
11 c-3 6 -6 11 -7 10 -4 -2 -24 -2 -26 1 -2 3 -2 3 -2 0 0 -3 -9 -16 -16 -24
-10 -12 -28 -5 -28 10 0 7 4 13 18 25 9 8 17 24 21 44 1 6 4 9 22 22 10 7 14
11 18 20 l5 11 0 132 c0 153 1 143 -21 167 -19 21 -19 37 -2 55 25 26 26 38 3
63 -21 23 -21 39 1 63 20 22 19 16 19 150 l-1 115 6 6 6 6 66 -1 c87 0 87 0
87 26 0 9 1 12 4 13 1 0 0 1 -3 1 -8 0 -13 8 -13 22 0 9 1 11 6 16 10 10 29 8
43 -5 7 -6 33 -16 43 -17 9 0 15 -6 23 -23 13 -28 26 -34 71 -32 33 1 34 1 34
3 0 1 1 2 3 2 4 0 14 12 18 21 5 11 5 247 0 258 -4 9 -14 21 -18 21 -2 0 -3 1
-3 2 0 1 -1 2 -2 2 -2 0 -117 1 -256 1 l-252 1 -12 -5 c-7 -3 -15 -9 -20 -15
-5 -5 -14 -13 -19 -18 -6 -5 -15 -16 -21 -25 -11 -16 -14 -18 -22 -19 -11 -1
-16 0 -21 5 -10 9 -5 37 7 37 2 0 2 1 1 1 -2 1 -3 6 -3 15 0 12 -1 15 -5 19
l-5 5 -204 0 c-113 0 -207 -1 -210 -2z m689 -64 c4 -6 4 -24 -1 -30 -7 -9 -27
-9 -34 0 -5 6 -5 24 0 30 7 9 27 9 35 0z m-362 -4 c18 -3 24 -7 27 -19 2 -11
0 -24 -6 -29 -9 -10 -22 -9 -56 1 -23 7 -29 12 -29 27 0 8 1 11 6 16 3 3 7 6
10 6 7 1 31 0 48 -2z m444 -42 c14 -6 15 -27 3 -51 -4 -9 -9 -22 -11 -28 -4
-15 -9 -21 -16 -21 -10 0 -13 6 -13 26 0 10 -2 23 -4 33 -7 27 -1 39 19 44 5
1 14 -1 22 -3z m-702 -21 c4 -4 5 -7 5 -13 0 -11 -7 -18 -18 -18 -11 0 -18 7
-18 18 0 11 7 18 18 18 6 0 9 -1 13 -5z m550 -18 c4 -4 5 -7 5 -13 0 -11 -7
-18 -18 -18 -11 0 -18 7 -18 18 0 11 7 18 18 18 6 0 9 -1 13 -5z m-167 -79 c5
-5 6 -7 6 -17 0 -10 -1 -12 -6 -17 -5 -5 -7 -6 -17 -6 -10 0 -12 1 -17 6 -5 5
-6 7 -6 17 0 10 1 12 6 17 5 5 7 6 17 6 10 0 12 -1 17 -6z m163 -12 c6 -5 6
-13 2 -23 -7 -16 -7 -33 -1 -48 9 -21 4 -39 -12 -39 -10 0 -16 5 -19 17 -3 11
-1 25 3 33 4 8 6 28 3 45 -1 8 -1 10 3 14 6 6 15 7 21 1z m-86 -163 c6 -4 6
-6 6 -20 0 -14 0 -16 -6 -20 -5 -4 -7 -5 -25 -5 -22 0 -27 -1 -35 -9 -5 -5 -5
-7 -4 -17 2 -18 12 -30 51 -59 12 -8 14 -13 13 -29 0 -17 -6 -22 -25 -22 l-13
0 -22 23 c-13 13 -23 25 -24 28 -8 29 -11 36 -19 46 -12 14 -14 17 -14 29 0 9
1 11 6 16 5 5 7 6 17 6 26 1 28 1 36 7 4 3 11 11 15 17 9 14 9 14 25 14 11 0
14 -1 18 -5z m-135 -193 c12 -12 -3 -30 -18 -22 -5 3 -6 21 0 24 5 3 14 2 18
-2z m-680 -6 c1 0 5 -3 8 -6 5 -5 6 -7 6 -18 0 -11 -1 -13 -6 -18 -6 -6 -7 -6
-18 -6 -11 0 -12 0 -18 6 -5 5 -6 7 -6 17 0 14 3 20 12 24 5 2 8 2 22 1z
m-139 -24 c7 -6 7 -19 1 -25 -6 -7 -19 -7 -25 -1 -7 6 -7 19 -1 25 6 7 19 7
25 1z m972 -92 c19 -2 26 -5 28 -12 4 -12 -20 -37 -39 -41 -9 -1 -22 2 -26 7
-6 5 -8 18 -6 28 3 12 8 17 24 20 1 0 9 -1 19 -2z m-963 -10 c1 0 5 -3 8 -6 5
-5 6 -7 6 -17 0 -20 -7 -26 -29 -25 -20 0 -24 6 -20 26 3 13 5 18 13 21 5 2 8
2 22 1z m149 -149 c3 -3 3 -4 -1 -7 -5 -6 -13 -9 -36 -13 l-18 -4 -4 5 c-5 6
-5 12 0 18 3 3 6 4 19 5 24 1 37 0 40 -4z m853 -71 c5 -5 5 -15 0 -20 -9 -9
-24 -2 -24 10 0 8 6 14 14 14 3 0 8 -2 10 -4z m-165 -80 c5 -5 6 -7 6 -16 0
-9 -1 -11 -7 -16 -5 -6 -7 -7 -16 -7 -9 0 -11 1 -16 7 -9 8 -9 23 -1 32 9 9
24 9 34 0z m-424 -202 c5 -5 6 -7 6 -16 0 -9 -1 -11 -7 -16 -5 -6 -7 -7 -16
-7 -7 0 -11 2 -14 4 -3 3 -7 4 -19 4 -14 0 -24 -4 -33 -12 -3 -2 -8 -4 -14 -4
-9 0 -11 1 -16 7 -6 5 -7 7 -7 16 0 9 1 11 7 16 5 6 7 7 16 7 7 0 11 -2 14 -4
6 -6 30 -5 41 1 4 2 9 6 11 7 7 6 23 5 31 -3z m-360 -58 c5 -5 6 -7 6 -16 0
-7 -1 -11 -3 -12 -2 -1 -2 -2 -1 -2 1 0 0 -3 -2 -6 -4 -7 -11 -8 -21 -3 -3 2
-6 2 -6 2 -1 -1 -4 2 -7 5 -8 8 -8 24 0 32 9 9 24 9 34 0z m32 -74 c5 -2 11
-9 17 -17 6 -6 12 -15 15 -19 5 -5 6 -9 7 -19 0 -12 0 -13 -6 -19 -5 -5 -7 -6
-16 -6 -12 0 -23 5 -25 12 -1 2 -2 4 -3 4 -1 0 -2 1 -2 2 0 1 -3 7 -7 12 -10
14 -13 21 -13 31 0 9 4 20 9 24 3 2 14 0 24 -5z m643 -45 c0 -1 -1 -3 -3 -4
-3 -3 -3 -3 -6 0 -4 4 -4 5 3 5 3 0 6 -1 6 -1z m-325 -80 c5 -8 1 -16 -8 -16
-9 0 -13 8 -8 16 2 3 5 5 8 5 3 0 6 -2 8 -5z m787 -6 c3 -3 4 -7 4 -14 0 -13
-6 -19 -19 -19 -13 0 -19 6 -19 19 0 7 1 11 4 14 7 8 23 8 30 0z m-739 -53 c6
-4 11 -17 12 -31 2 -12 -3 -19 -12 -19 -11 0 -17 15 -16 37 1 15 7 21 16 13z
m672 -21 c5 -8 1 -16 -8 -16 -9 0 -13 8 -8 16 2 3 5 5 8 5 3 0 6 -2 8 -5z
m-1148 -11 c10 -9 3 -26 -10 -26 -8 0 -15 7 -15 15 0 13 16 20 25 11z"/>
</g>
</svg>
