<?xml version="1.0" standalone="no"?>
<!DOCTYPE svg PUBLIC "-//W3C//DTD SVG 20010904//EN"
 "http://www.w3.org/TR/2001/REC-SVG-20010904/DTD/svg10.dtd">
<svg version="1.0" xmlns="http://www.w3.org/2000/svg"
 width="1100.000000pt" height="2850.000000pt" viewBox="0 0 1100.000000 2850.000000"
 preserveAspectRatio="xMidYMid meet">
<metadata>
Created by potrace 1.15, written by Peter Selinger 2001-2017
</metadata>
<g transform="translate(0.000000,2850.000000) scale(0.500000,-0.500000)"
fill="#000000" stroke="none">
<path d="M1301 3794 c-2 -1 -5 -1 -5 -1 -1 1 -2 0 -2 -1 0 -1 -1 -2 -3 -2 -4
0 -14 -12 -18 -21 -3 -7 -3 -16 -3 -62 1 -61 1 -61 17 -78 21 -22 21 -30 0
-52 -16 -17 -16 -16 -16 -87 l0 -63 -6 -6 -6 -6 -69 1 c-76 0 -86 -1 -94 -10
-7 -6 -14 -22 -15 -32 -1 -4 -3 -14 -6 -21 -5 -12 -6 -18 -6 -35 0 -18 -1 -22
-6 -32 -3 -6 -5 -13 -5 -14 0 -2 -1 -4 -2 -5 -8 -9 -7 -34 1 -60 3 -8 5 -17 5
-18 0 -1 2 -10 5 -18 6 -19 15 -30 29 -38 l11 -6 41 -1 c49 0 51 0 75 15 28
18 43 16 51 -9 5 -12 18 -26 32 -34 15 -8 18 -12 18 -26 0 -10 0 -11 -11 -21
-6 -6 -12 -13 -13 -16 -2 -9 -1 -25 3 -33 5 -9 3 -27 -3 -35 -5 -8 -8 -24 -4
-33 2 -5 11 -11 15 -10 12 3 23 -5 23 -17 0 -12 -6 -17 -20 -17 -31 1 -46 -13
-44 -41 1 -9 0 -11 -5 -16 l-6 -6 -30 0 c-30 0 -41 -1 -41 -3 0 -1 -3 -3 -7
-5 -4 -1 -9 -6 -12 -10 -3 -5 -7 -11 -10 -15 -6 -10 -12 -13 -25 -13 -13 0
-18 3 -25 13 -3 4 -7 10 -10 15 -3 4 -8 9 -12 10 -4 2 -7 4 -7 5 0 2 -11 3
-48 3 -38 0 -48 -1 -48 -3 0 -1 -1 -2 -3 -2 -4 0 -15 -13 -18 -22 -4 -12 -1
-23 10 -37 5 -6 10 -13 12 -17 7 -13 3 -43 -8 -58 -6 -9 -8 -32 -3 -36 4 -5
22 -12 30 -13 15 -2 21 -10 21 -27 0 -17 -6 -25 -21 -27 -4 0 -13 -3 -20 -7
-13 -6 -14 -7 -19 -17 l-5 -11 0 -164 c0 -184 0 -177 14 -190 4 -3 8 -7 9 -8
3 -2 15 -6 26 -7 19 -2 29 -6 39 -16 5 -5 10 -9 12 -9 1 0 2 -1 2 -1 0 -3 22
-2 24 1 3 2 5 6 12 19 8 15 32 29 53 32 13 2 16 0 43 -42 11 -16 6 -31 -10
-31 -8 0 -20 9 -20 15 0 1 -1 3 -3 4 -4 1 -38 1 -36 0 0 -1 -1 -6 -2 -11 -2
-5 -3 -11 -3 -14 0 -2 -2 -6 -5 -9 -6 -6 -22 -7 -29 -1 -2 1 -6 5 -9 7 -3 2
-6 5 -8 6 -1 2 -5 3 -8 4 -3 1 -7 1 -10 2 -3 1 -9 0 -12 -1 -12 -4 -23 -3 -31
3 -4 3 -8 6 -8 7 0 2 -26 0 -31 -2 -7 -4 -9 -16 -9 -50 1 -37 4 -43 19 -56 23
-20 23 -20 23 -34 0 -14 0 -14 -23 -34 -22 -19 -25 -52 -6 -71 3 -4 7 -7 8 -7
2 0 3 -1 3 -2 0 -3 12 -3 92 -3 73 0 82 0 91 4 11 3 19 9 22 17 6 11 9 20 9
22 0 4 11 12 23 18 7 3 14 8 17 11 4 6 9 18 8 21 -1 1 2 5 5 9 l6 6 93 -1 c99
0 104 0 113 10 6 7 13 27 11 34 -4 9 2 25 11 29 12 6 25 5 43 -6 9 -5 20 -10
24 -12 9 -3 18 -14 13 -16 -1 0 -1 -1 1 -1 1 0 2 -2 2 -3 0 -10 14 -32 18 -30
1 1 2 0 2 -2 0 -1 2 -5 6 -8 5 -6 5 -7 4 -27 -1 -34 2 -39 25 -40 7 0 13 -1
13 -1 1 -1 2 0 2 2 0 2 1 3 2 3 0 0 3 3 5 6 2 3 3 6 2 6 -1 0 -1 1 1 3 1 1 2
11 1 29 l-1 26 6 6 c8 9 26 9 34 0 8 -8 8 -23 1 -36 -7 -14 -7 -33 0 -42 6 -7
17 -13 32 -17 18 -5 129 -4 143 2 22 8 34 31 31 60 -1 9 -2 25 -1 37 2 151 2
270 -1 284 -4 18 -4 36 0 54 2 12 3 31 3 100 0 79 0 86 -4 96 -2 6 -5 11 -5
12 -3 2 -7 8 -11 18 -4 8 -4 9 -1 17 2 5 5 10 6 11 2 1 3 4 3 5 0 2 1 3 2 3 5
0 10 23 9 37 -1 18 -1 31 0 46 2 16 -2 28 -13 47 -9 14 -11 19 -11 27 0 10 6
25 9 25 1 0 -1 24 -3 28 -1 2 -4 5 -7 7 -5 4 -8 4 -64 4 -59 0 -70 -1 -70 -3
0 -1 -1 -2 -2 -2 -4 0 -15 -10 -19 -18 -11 -22 -19 -28 -34 -29 -15 -1 -25 7
-36 29 -4 8 -15 18 -18 18 -2 0 -3 1 -3 2 0 2 1 2 -27 4 -17 1 -24 2 -32 6 -6
3 -10 6 -10 6 1 2 -14 12 -27 19 -18 9 -20 35 -5 52 5 5 10 15 14 30 5 19 9
27 16 36 11 13 13 22 13 68 0 46 -2 53 -16 61 -7 4 -11 5 -28 8 -5 1 -14 4
-21 6 -13 4 -21 5 -43 3 -16 -2 -16 -2 -22 5 -5 5 -6 7 -6 17 0 15 5 20 23 24
23 5 33 9 44 18 7 5 17 12 23 14 28 13 36 18 47 30 20 24 19 23 34 23 18 0 24
-5 24 -22 1 -17 -1 -21 -18 -31 -20 -10 -40 -32 -39 -42 1 -14 5 -23 11 -28
l6 -4 167 0 c164 0 178 0 178 3 0 1 1 2 3 2 4 0 14 12 18 21 5 11 5 159 0 170
-4 10 -12 21 -16 21 -2 0 -3 1 -3 2 0 3 -14 8 -23 8 -4 0 -14 -1 -22 -3 -33
-8 -43 -3 -46 21 0 6 -3 17 -5 23 -4 10 -5 11 -14 16 -16 8 -37 7 -65 -2 -12
-4 -25 -7 -29 -7 -4 0 -17 3 -29 7 l-21 7 -52 0 -51 0 -11 5 c-7 4 -12 7 -13
9 -1 4 -25 25 -40 34 -14 9 -18 16 -17 33 2 16 7 21 24 21 24 0 41 9 46 24 3
10 3 52 0 63 -2 7 -14 21 -18 21 0 -1 -3 0 -6 2 -3 1 -11 2 -18 2 -21 1 -30 7
-34 21 -4 15 2 31 14 36 6 2 22 3 23 1 1 -1 6 0 12 1 5 2 11 4 12 4 3 0 11 9
14 16 4 10 4 50 0 60 -4 9 -14 21 -18 21 -2 0 -3 1 -3 2 0 2 -2 2 -64 3 -50 1
-60 1 -67 -2 -9 -3 -19 -12 -20 -17 0 -2 -1 -4 -1 -5 -6 -9 1 -26 19 -45 l12
-12 0 -15 c0 -15 0 -16 -7 -21 -12 -11 -16 -18 -16 -31 0 -7 1 -14 3 -16 8
-12 8 -34 -2 -42 -12 -11 -34 -11 -43 0 -6 7 -8 20 -6 30 2 9 5 12 14 19 5 4
6 5 5 18 0 8 1 14 2 15 1 0 -1 2 -5 5 -5 3 -10 4 -19 4 -21 0 -23 0 -28 5 -10
10 -6 30 9 45 3 3 14 27 14 30 0 1 -1 4 -2 7 -2 3 -3 7 -3 9 -1 4 -10 12 -18
16 -9 4 -12 5 -18 2z m10 -411 c8 -3 11 -8 11 -19 0 -16 -9 -23 -25 -20 -10 2
-15 8 -15 19 0 20 11 28 29 20z m104 -54 c3 -5 3 -5 0 -10 -2 -3 -5 -5 -7 -5
-2 0 -5 2 -7 5 -3 5 -3 5 0 10 2 3 5 5 7 5 2 0 5 -2 7 -5z m382 -14 c14 -2 19
-7 19 -20 0 -7 -1 -11 -4 -14 -6 -7 -41 -15 -62 -15 -12 0 -13 0 -20 8 -14 14
-13 36 2 41 5 3 45 2 65 0z m-516 -17 c14 -7 22 -23 22 -45 0 -14 0 -16 -6
-20 -4 -4 -7 -5 -18 -5 -15 0 -21 4 -32 21 -2 5 -6 10 -7 11 -18 17 -21 37 -7
42 8 3 38 1 48 -4z m549 -92 c5 -5 5 -11 0 -16 -10 -10 -27 5 -16 16 4 4 12 4
16 0z m-377 -135 c6 -4 8 -8 11 -21 5 -25 4 -42 -3 -47 -11 -9 -33 4 -47 27
-7 11 -6 31 2 39 7 7 27 8 37 2z m-336 -362 c3 -5 3 -5 0 -10 -2 -3 -5 -5 -7
-5 -2 0 -5 2 -7 5 -3 5 -3 5 0 10 2 3 5 5 7 5 2 0 5 -2 7 -5z m635 -3 c11 -5
16 -12 16 -26 0 -18 -13 -26 -37 -22 -25 5 -35 14 -35 32 0 23 24 30 56 16z
m99 -26 c7 -6 7 -19 1 -25 -6 -7 -19 -7 -25 -1 -7 6 -7 19 -1 25 6 7 19 7 25
1z m-398 -29 c3 -5 3 -5 0 -10 -2 -3 -5 -5 -7 -5 -2 0 -5 2 -7 5 -3 5 -3 5 0
10 2 3 5 5 7 5 2 0 5 -2 7 -5z m-227 -45 c1 0 5 -3 8 -6 6 -5 6 -7 6 -19 0 -8
0 -16 0 -18 0 -5 -6 -13 -10 -13 -7 0 -29 10 -33 15 -4 4 -5 8 -5 17 0 13 3
19 12 23 5 2 8 2 22 1z m582 0 c15 -4 19 -9 19 -28 0 -21 -6 -28 -26 -29 -21
-1 -35 16 -29 38 5 17 17 23 36 19z m-421 -38 c2 0 9 -6 17 -13 24 -21 23 -21
110 -21 l73 1 6 -6 6 -6 -1 -27 c0 -27 1 -32 8 -52 5 -16 4 -36 -6 -61 -4 -10
3 -24 18 -39 12 -13 14 -15 14 -22 0 -7 -1 -9 -11 -19 -12 -11 -12 -11 -13
-25 -1 -10 0 -15 3 -21 13 -27 0 -42 -30 -32 -12 4 -19 12 -31 32 -8 14 -10
17 -20 21 l-10 6 -47 0 c-57 0 -65 -2 -72 -19 -5 -12 -5 -18 0 -31 10 -25 12
-38 6 -53 -4 -9 -28 -13 -40 -6 -4 1 -8 6 -10 10 -5 11 -11 14 -27 13 -12 0
-24 -5 -24 -8 0 -1 -3 -2 -6 -2 -12 0 -18 12 -10 21 4 5 16 8 20 5 9 -6 30 23
27 37 -6 41 -44 41 -70 0 -4 -6 -11 -9 -23 -10 -31 -2 -42 30 -19 57 22 25 21
21 21 132 0 62 -1 92 -2 92 -2 0 -1 2 8 12 4 5 6 5 8 3 1 -1 11 -2 27 -3 31
-1 41 3 60 20 13 13 21 16 32 15 3 -1 7 -1 8 -1z m358 -72 c4 -5 6 -11 8 -23
0 -3 1 -7 1 -8 0 -1 13 -14 28 -28 3 -3 6 -8 6 -10 1 -13 0 -18 -6 -24 -5 -5
-7 -6 -18 -5 -24 1 -26 1 -32 -3 -5 -5 -16 -22 -16 -27 0 -10 -22 -16 -32 -9
-9 6 -14 19 -15 35 -1 15 -1 16 4 21 6 6 17 7 30 2 11 -4 26 -1 34 6 8 8 7 24
-3 36 -11 15 -14 20 -14 26 0 13 17 20 25 11z m-556 -84 c16 -7 16 -43 -1 -50
-15 -6 -34 -2 -39 9 -4 8 -4 24 0 32 5 12 23 15 40 9z m-144 -69 c7 -4 33 -31
38 -37 4 -8 4 -17 -1 -22 -7 -7 -22 -4 -61 14 -12 5 -15 11 -15 24 0 13 3 19
12 23 8 3 21 2 27 -2z m688 -72 c3 -3 3 -3 0 -6 -4 -5 -11 1 -7 6 4 4 4 4 7 0z
m-247 -85 c1 0 5 -3 8 -6 5 -5 6 -7 6 -18 0 -11 -1 -13 -6 -18 -6 -6 -7 -6
-18 -6 -11 0 -12 0 -18 6 -5 5 -6 7 -6 17 0 14 3 20 12 24 5 2 8 2 22 1z m287
-81 c12 -7 14 -33 3 -43 -8 -9 -32 -9 -40 0 -9 8 -9 32 0 41 7 7 27 8 37 2z
m-130 -9 c4 -6 4 -24 -1 -30 -7 -9 -27 -9 -34 0 -5 6 -5 24 0 30 7 9 27 9 35
0z m-551 -91 c21 -9 20 -45 -2 -54 -10 -5 -28 -1 -34 6 -9 10 -9 32 0 42 7 8
24 11 36 6z"/>
<path d="M144 3742 c-3 -1 -6 -1 -7 0 0 0 -1 0 -1 -2 0 -1 -1 -2 -3 -2 -4 0
-14 -12 -18 -21 -4 -11 -4 -42 1 -53 5 -14 20 -28 32 -31 11 -3 14 -9 11 -25
-2 -13 -4 -15 -18 -24 -15 -10 -20 -16 -25 -28 -4 -8 -4 -17 -4 -205 0 -216 0
-209 12 -222 3 -4 10 -10 16 -13 16 -11 19 -14 19 -26 0 -8 -2 -11 -7 -18 -3
-4 -8 -8 -10 -8 -2 0 -2 0 0 -2 1 -1 2 -6 2 -16 0 -8 0 -14 0 -15 10 -7 11 -7
57 -7 48 0 53 1 61 10 6 6 10 22 10 37 0 12 0 14 6 19 5 5 7 6 16 6 13 0 16
-2 29 -15 6 -6 15 -12 24 -16 28 -13 28 -11 29 -85 0 -58 0 -59 5 -70 4 -7 8
-12 14 -17 21 -14 25 -19 25 -32 0 -13 -4 -18 -25 -32 -6 -5 -10 -10 -14 -18
l-5 -11 1 -230 c0 -127 1 -237 2 -243 1 -11 1 -13 -3 -17 -5 -5 -8 -5 -14 0
-9 8 -9 8 -10 199 -1 197 -1 190 -12 201 -5 5 -26 6 -31 1 -2 -2 -7 -5 -13 -7
-9 -3 -9 -3 -14 0 -3 3 -4 5 -4 14 1 5 2 10 3 10 1 0 1 1 0 1 0 1 1 5 4 9 2 4
6 13 8 20 3 12 9 22 13 22 4 0 28 12 33 17 9 8 14 22 12 36 0 11 -7 30 -11 33
-2 2 -11 21 -14 29 -3 12 -10 23 -19 30 l-7 6 -85 0 c-83 0 -95 0 -95 -3 0 -1
-1 -2 -3 -2 -4 0 -14 -12 -18 -21 -3 -7 -3 -23 -3 -132 0 -83 1 -128 2 -134 3
-10 10 -15 23 -16 5 -1 11 -1 12 -2 2 0 3 0 3 1 3 7 27 5 32 -2 5 -6 5 -24 1
-30 -6 -7 -30 -9 -33 -2 0 1 -1 1 -3 1 -1 -1 -7 -1 -12 -2 -13 -1 -20 -6 -23
-16 -1 -5 -2 -65 -2 -170 0 -89 0 -165 0 -168 0 -9 -8 -15 -19 -15 -9 0 -10 1
-16 7 -7 7 -7 7 -20 7 -17 0 -21 -2 -20 -7 1 -2 1 -9 2 -15 1 -10 3 -21 6 -30
0 -2 1 -5 2 -8 1 -3 2 -7 2 -9 1 -2 2 -6 2 -8 1 -2 2 -6 2 -8 1 -2 2 -5 2 -7
1 -5 3 -13 4 -18 4 -19 21 -31 46 -33 18 -2 23 -6 23 -20 0 -10 -2 -13 -17
-24 -20 -14 -26 -29 -20 -48 4 -10 18 -26 21 -24 1 1 2 0 3 -1 0 -1 5 -2 9 -3
7 -1 16 1 50 11 22 7 58 17 79 23 44 13 50 15 57 22 7 7 13 23 16 41 2 17 7
22 23 22 15 0 20 -2 29 -14 9 -12 19 -19 31 -21 9 -1 10 -1 95 24 261 78 242
71 254 94 8 15 14 23 19 23 4 0 19 -7 23 -11 2 -1 8 -4 15 -6 10 -3 13 -3 22
-1 16 4 19 9 19 26 -1 8 0 14 1 14 1 0 -4 5 -11 11 -2 1 -6 6 -9 11 -3 5 -11
14 -17 20 -14 14 -16 17 -16 30 0 15 7 22 22 22 10 0 22 -5 22 -8 0 -3 9 -16
21 -33 6 -8 11 -16 11 -17 0 -1 1 -2 2 -2 1 0 1 -6 -1 -19 0 -4 0 -11 2 -16 1
-6 3 -9 3 -8 0 2 3 4 7 5 4 1 7 3 6 4 -1 1 0 1 2 1 3 -1 3 -1 2 1 -1 2 -1 2 1
1 2 -1 17 10 15 12 -1 0 0 1 2 2 3 1 1 11 -3 13 -2 1 -3 12 -3 29 0 16 -1 34
-3 42 -1 8 -3 17 -3 21 -2 15 -12 30 -27 40 -19 12 -19 13 -26 33 -10 30 -18
38 -42 42 -11 2 -33 -4 -41 -10 -8 -6 -10 -29 -3 -40 5 -9 5 -16 -1 -30 -8
-18 -25 -27 -32 -16 -4 6 -3 18 3 37 l5 12 -4 8 c-8 14 -29 18 -52 9 -11 -3
-15 0 -20 15 -9 31 -13 35 -45 45 -6 2 -13 6 -15 8 -3 5 -3 5 0 10 4 4 5 5 15
5 35 -1 47 15 46 61 -1 20 -1 20 5 26 l6 6 61 -1 c54 0 62 0 70 3 8 3 28 16
38 24 14 12 14 12 14 27 l0 14 -10 7 c-13 10 -16 16 -16 29 0 13 3 19 16 29 7
5 12 11 15 19 6 11 6 12 7 51 0 33 0 41 -3 48 -4 9 -14 21 -18 21 -2 0 -3 1
-3 2 0 3 -11 3 -88 3 l-77 0 -18 -6 c-36 -12 -54 -5 -54 22 0 16 4 20 24 31
15 7 19 11 24 18 11 19 8 47 -7 56 -9 5 -22 9 -32 10 -2 0 -7 2 -9 5 -5 5 -5
6 -4 16 2 21 16 33 39 33 24 0 66 -12 84 -25 14 -10 24 -11 72 -10 49 1 50 1
50 3 0 1 1 2 3 2 4 0 14 12 18 22 5 11 3 23 -7 44 -11 21 -11 25 0 47 l9 18 0
30 0 31 -5 5 c-5 5 -7 6 -18 6 -8 -1 -13 0 -14 2 -1 1 -2 0 -2 -2 0 -9 -24
-15 -36 -10 -8 3 -12 7 -18 19 -3 7 -8 14 -11 17 -7 6 -27 17 -32 17 -2 0 -5
2 -8 5 -6 6 -7 24 -1 31 7 9 28 9 35 -1 4 -5 5 -6 20 -5 17 2 20 3 25 15 5 11
8 13 21 15 18 3 31 10 38 22 5 10 5 11 6 49 2 42 1 51 -9 66 -6 10 -12 13 -37
19 -19 5 -21 7 -23 20 -2 17 4 24 20 24 15 0 18 0 26 2 9 2 19 11 22 19 3 7 3
26 0 38 -3 13 -10 17 -26 17 -6 0 -10 1 -11 3 0 1 -1 0 -1 -2 0 -6 -2 -7 -20
-14 -24 -9 -31 -15 -40 -34 -4 -9 -10 -18 -12 -19 -6 -3 -19 -2 -29 2 -8 4
-12 4 -21 3 -16 -1 -18 -2 -27 -7 -4 -2 -12 -6 -18 -8 -15 -6 -22 -15 -27 -31
-3 -8 -6 -17 -9 -20 -2 -3 -4 -6 -3 -6 0 -1 0 -4 0 -7 0 -5 -1 -6 -2 -4 -3 5
-1 -21 3 -28 6 -12 4 -21 -4 -28 -5 -3 -9 -6 -10 -6 -2 0 -13 -8 -18 -14 -10
-9 -11 -18 -11 -54 l1 -33 -6 -6 -6 -6 -73 0 c-40 0 -81 0 -90 -1 -9 0 -23 0
-30 1 -16 2 -23 -1 -36 -15 -11 -12 -16 -14 -33 -14 -23 -1 -43 5 -43 12 0 4
-15 26 -21 31 -3 3 -11 8 -17 11 -15 8 -18 12 -18 27 0 10 1 12 6 17 3 3 7 6
9 6 12 1 19 0 24 -3 13 -6 25 -8 44 -6 22 1 24 0 30 -24 5 -18 7 -20 24 -19
17 1 19 4 33 34 7 17 8 22 7 67 l0 44 6 6 6 6 90 -1 c50 0 93 0 96 1 3 1 9 3
12 6 5 5 6 6 5 16 0 14 -1 17 -7 30 -7 16 -5 27 7 43 5 6 13 20 18 31 8 18 11
21 16 23 4 1 12 4 17 6 6 3 13 5 16 6 8 3 10 5 13 18 1 9 1 14 -1 25 -2 8 -3
17 -3 21 1 10 -2 28 -4 28 -1 0 -2 1 -1 2 0 1 -1 3 -3 6 -10 10 -8 10 -155 10
-133 0 -138 0 -145 -4 -7 -4 -19 -20 -15 -20 1 0 1 -1 -1 -2 -1 -2 -2 -5 -2
-7 0 -3 -1 -5 -2 -6 -2 0 -2 -1 1 -1 4 0 4 -2 -1 -8 l-4 -5 -5 5 c-6 6 -6 8
-1 8 2 0 2 1 1 1 -2 1 -3 3 -3 6 0 2 -1 5 -2 7 -2 1 -2 2 -1 2 0 0 -1 4 -3 8
-8 16 -9 16 -98 16 -44 0 -81 -1 -84 -2z m64 -76 c8 -9 2 -22 -10 -22 -9 0
-14 5 -12 13 2 12 15 17 22 9z m119 -17 c8 -8 4 -20 -7 -20 -12 0 -16 13 -5
21 7 5 5 5 12 -1z m219 -8 c25 -11 17 -58 -11 -65 -17 -4 -26 4 -31 29 -2 11
0 23 6 30 7 8 24 11 36 6z m-103 -63 c9 -9 4 -30 -7 -30 -6 0 -33 -10 -44 -16
-6 -3 -14 -6 -17 -6 -14 0 -20 17 -10 26 3 3 5 4 5 3 0 -1 10 3 28 12 5 2 13
6 17 9 10 8 22 8 28 2z m186 -330 c2 -3 4 -6 4 -6 0 -1 1 -2 1 -3 2 -1 0 -3
-6 -9 -3 -2 -5 -2 -10 1 -8 5 -9 10 -5 16 4 6 11 6 16 1z m53 -41 c9 -8 2 -25
-11 -25 -7 0 -14 6 -17 16 -4 14 15 21 28 9z m-434 -331 c1 0 5 -3 8 -6 5 -5
6 -7 6 -18 0 -11 -1 -13 -6 -18 -6 -6 -7 -6 -18 -6 -11 0 -12 0 -18 6 -5 5 -6
7 -6 17 0 14 3 20 12 24 5 2 8 2 22 1z m262 -9 c4 -2 9 -14 4 -13 0 1 -3 0 -5
-2 -4 -2 -5 -1 -8 5 -3 6 -3 8 -1 10 3 4 3 4 10 0z m33 -33 c3 -3 8 -7 11 -10
3 -2 11 -8 18 -13 24 -16 42 -43 42 -63 0 -10 -6 -24 -13 -31 -1 -1 -4 -5 -6
-8 -3 -5 -20 -24 -29 -33 -1 -1 -5 -6 -7 -11 -3 -4 -9 -11 -12 -14 -6 -7 -8
-7 -21 -7 -22 0 -28 8 -23 35 1 6 9 15 24 24 21 13 32 32 31 55 0 15 0 17 -8
31 -5 9 -10 17 -11 18 -2 2 -3 4 -3 6 0 1 -2 5 -5 7 -4 5 -7 17 -3 15 1 -1 3
0 3 2 2 4 5 3 12 -3z m-301 -72 c6 -7 6 -20 1 -24 -11 -9 -29 -2 -29 12 0 14
18 22 28 12z m511 -62 c7 -4 11 -14 14 -31 2 -15 -12 -22 -26 -13 -12 7 -14
35 -3 44 6 5 6 5 15 0z m-274 -81 c4 -4 7 -8 7 -9 0 -2 2 -4 5 -7 9 -8 23 -11
38 -8 25 5 27 -8 8 -45 -7 -15 -13 -19 -28 -19 -15 0 -22 5 -27 18 -7 18 -12
27 -21 36 -12 13 -15 17 -15 25 0 17 20 22 33 9z m-249 -123 c3 -2 5 -9 7 -19
6 -32 3 -43 -14 -49 -27 -10 -43 -4 -43 16 0 12 2 15 16 32 6 6 10 11 10 12 0
2 14 12 18 12 1 0 4 -2 6 -4z m295 -12 c9 -4 14 -11 14 -22 0 -19 -18 -28 -37
-19 -14 6 -19 29 -9 38 6 6 21 7 32 3z m-333 -110 c6 -6 6 -20 -1 -27 -11 -11
-31 -4 -31 12 0 5 1 10 3 13 6 8 23 9 29 2z m275 -4 c5 -5 6 -7 6 -16 0 -15
-11 -24 -27 -23 -17 2 -26 26 -13 39 9 9 24 9 34 0z m150 -75 c8 -9 8 -13 2
-18 -13 -12 -32 5 -21 19 4 6 13 5 19 -1z m-116 -6 c3 -3 3 -3 0 -6 -4 -5 -11
1 -7 6 4 4 4 4 7 0z m188 -24 c7 -4 10 -11 10 -23 0 -19 -8 -27 -28 -27 -15 0
-21 5 -25 19 -7 20 -7 25 -1 29 10 7 35 8 44 2z m-319 -19 c13 -13 -4 -31 -19
-21 -11 7 -4 25 9 25 3 0 8 -2 10 -4z m-61 -46 c7 -8 1 -22 -10 -22 -6 0 -13
7 -13 13 0 11 15 17 23 9z m163 -34 c5 -5 5 -11 0 -16 -10 -10 -27 5 -16 16 4
4 12 4 16 0z m-67 -37 c6 -6 6 -9 0 -15 -4 -4 -6 -4 -10 -2 -7 3 -10 11 -5 17
4 6 9 6 15 0z m-205 -9 c5 -5 6 -7 6 -17 0 -16 -7 -23 -23 -23 -16 0 -23 7
-23 23 0 16 7 23 23 23 10 0 12 -1 17 -6z"/>
<path d="M727 3741 c-7 -3 -15 -11 -14 -13 1 -1 0 -2 -1 -2 -2 0 -5 -18 -4
-28 1 -24 -12 -66 -21 -68 -5 0 -6 -2 -8 -12 -4 -22 -4 -21 0 -32 5 -9 7 -11
15 -10 1 0 2 -1 2 -1 0 -1 5 -2 10 -2 6 0 10 1 10 1 0 1 2 3 5 4 20 12 25 15
30 19 4 3 9 13 13 21 4 9 9 18 14 22 13 13 20 28 20 49 0 6 1 11 3 13 2 1 2 5
2 11 -2 15 -3 20 -7 25 -4 5 -5 5 -34 6 -21 0 -31 -1 -35 -3z"/>
<path d="M933 3413 c-11 -3 -21 -25 -21 -45 0 -6 -2 -13 -9 -25 -13 -26 -13
-23 -13 -106 0 -65 0 -78 3 -84 4 -9 14 -21 18 -21 2 0 3 -1 3 -2 0 -2 10 -3
54 -3 l43 0 10 6 c6 3 12 8 13 10 3 6 1 30 -2 34 -1 2 -3 8 -3 15 0 7 -1 14
-1 15 0 1 -2 4 -4 7 -2 2 -3 5 -3 6 1 1 0 2 -1 2 -1 0 -1 2 -1 4 0 2 0 4 -1 4
-1 0 -3 2 -5 4 -4 3 -15 5 -15 2 0 -1 -1 -2 -3 -2 -2 0 -3 -1 -2 -2 0 -1 0 -2
-2 -3 -2 0 -2 -2 -2 -4 1 -2 0 -3 -1 -3 -1 0 -2 -1 -1 -2 1 -1 2 -2 3 -1 3 2
2 -9 -2 -17 -2 -4 -4 -9 -5 -10 -2 -9 -27 -14 -39 -8 -13 7 -15 26 -4 46 7 13
7 14 7 38 1 24 1 25 6 30 5 5 7 6 17 6 10 0 12 -1 20 -8 9 -7 10 -8 22 -8 14
0 23 1 21 4 -1 1 0 2 1 2 1 0 2 1 2 3 0 1 1 5 3 9 3 5 3 8 1 18 -4 22 -13 27
-43 25 -18 -1 -19 -1 -24 4 -4 4 -5 6 -5 16 1 15 -4 33 -11 39 -5 4 -16 7 -24
5z"/>
</g>
</svg>
