<?xml version="1.0" standalone="no"?>
<!DOCTYPE svg PUBLIC "-//W3C//DTD SVG 20010904//EN"
 "http://www.w3.org/TR/2001/REC-SVG-20010904/DTD/svg10.dtd">
<svg version="1.0" xmlns="http://www.w3.org/2000/svg"
 width="1000.000000pt" height="2850.000000pt" viewBox="0 0 1000.000000 2850.000000"
 preserveAspectRatio="xMidYMid meet">
<metadata>
Created by potrace 1.15, written by Peter Selinger 2001-2017
</metadata>
<g transform="translate(0.000000,2850.000000) scale(0.500000,-0.500000)"
fill="#000000" stroke="none">
<path d="M431 3811 c-13 -6 -23 -21 -28 -40 -2 -7 -8 -12 -25 -18 -17 -7 -28
-16 -32 -28 -1 -6 -2 -32 -2 -93 0 -54 -1 -84 -2 -85 -1 -1 -2 -2 -1 -3 0 0
-1 -2 -2 -4 -2 -2 -3 -2 -3 0 0 2 -1 0 -2 -3 l-2 -6 0 7 c0 12 -31 107 -38
120 -7 11 -15 17 -27 20 -12 3 -11 3 -40 -5 -11 -3 -27 -7 -34 -9 -8 -2 -22
-6 -29 -8 -36 -9 -46 -12 -60 -16 -23 -6 -34 -12 -39 -22 -3 -6 -6 -18 -5 -25
0 -6 12 -40 16 -44 5 -7 17 -13 33 -17 15 -4 19 -8 19 -17 0 -4 -3 -8 -12 -17
-23 -22 -24 -30 -9 -92 1 -3 2 -6 2 -8 0 -2 3 -13 5 -26 2 -13 5 -27 6 -32 1
-5 2 -11 3 -13 1 -7 8 -22 13 -27 4 -4 23 -13 35 -17 8 -2 13 -10 13 -22 0
-12 -4 -19 -16 -25 -23 -12 -34 -33 -27 -53 7 -21 25 -31 47 -24 6 1 25 7 43
11 18 5 38 10 46 12 8 2 16 5 18 5 2 0 11 3 20 5 19 5 18 5 28 1 4 -1 10 -3
12 -3 2 0 5 -1 7 -2 1 -2 2 -2 2 -2 0 1 4 0 10 -1 6 -2 10 -2 10 -1 1 2 6 3
12 3 9 0 11 -1 16 -7 6 -5 7 -7 7 -16 0 -9 -1 -11 -7 -16 -5 -6 -7 -7 -16 -7
-6 0 -11 1 -11 2 -1 3 -37 0 -44 -3 -5 -2 -36 -3 -133 -3 -129 0 -134 0 -134
-3 0 -1 -1 -2 -3 -2 -4 0 -14 -12 -18 -21 -5 -11 -5 -233 0 -244 4 -9 14 -21
18 -21 2 0 3 -1 3 -2 0 -2 1 -2 99 -4 116 -1 110 1 95 -31 -29 -66 -60 -127
-86 -174 -5 -7 -8 -14 -8 -14 0 -1 -3 -6 -7 -12 -4 -6 -7 -12 -7 -12 0 -1 -2
-5 -5 -10 -3 -4 -7 -10 -8 -11 -1 -2 -5 -8 -8 -13 -16 -26 -63 -95 -77 -112
-2 -2 -10 -12 -18 -21 -16 -20 -20 -27 -21 -41 -1 -10 -1 -12 17 -46 42 -82
65 -130 86 -185 20 -52 20 -52 26 -56 6 -5 30 -6 34 -1 5 5 28 35 28 37 0 1 2
3 4 5 3 4 26 39 37 56 3 6 10 17 16 26 5 9 12 21 15 28 4 7 8 14 10 17 6 8 36
68 36 71 0 3 0 3 3 1 9 -9 9 -12 9 -85 0 -75 0 -77 11 -100 9 -20 9 -30 0 -50
-11 -23 -11 -25 -11 -97 0 -61 0 -68 4 -75 6 -14 14 -20 40 -33 30 -14 31 -14
79 -14 l42 0 22 8 c27 9 31 9 59 -1 17 -5 23 -7 28 -5 3 1 6 1 7 0 0 0 1 0 1
2 0 1 1 2 3 2 4 0 14 12 18 21 3 7 3 33 3 248 0 158 -1 241 -2 242 -1 1 -2 3
-2 5 0 5 -17 22 -21 22 -4 0 -17 13 -17 18 0 6 13 17 21 19 3 0 8 -1 11 -2 5
-3 22 -21 22 -23 0 -1 6 -12 13 -23 7 -12 15 -26 17 -31 3 -5 8 -13 11 -19 3
-5 7 -14 9 -18 11 -20 23 -30 39 -30 16 0 27 11 50 46 9 13 16 24 17 25 1 1
19 28 41 61 22 33 40 60 41 61 6 5 12 21 12 31 0 14 -4 21 -24 43 -18 20 -23
25 -69 73 -33 34 -135 137 -149 150 -5 5 -10 10 -11 12 0 2 -2 3 -3 3 -1 0 -1
1 1 3 1 2 3 4 3 5 1 2 25 3 109 4 59 1 109 1 111 2 2 1 4 2 5 3 5 5 30 -7 43
-20 l9 -9 0 -15 0 -15 -9 -9 c-6 -5 -11 -9 -12 -9 -5 -2 -12 -18 -12 -28 0 -9
1 -11 7 -18 4 -4 9 -8 10 -8 2 0 3 -1 3 -2 0 -3 12 -3 113 -3 l102 0 14 7 c19
10 31 10 50 0 11 -6 16 -7 27 -7 11 0 13 -1 19 -6 l6 -6 -1 -159 c0 -156 0
-160 4 -169 4 -9 20 -27 24 -27 3 0 10 -13 10 -20 0 -7 -7 -20 -10 -20 -4 0
-20 -18 -24 -27 -4 -9 -4 -14 -4 -182 0 -153 0 -173 3 -180 4 -9 14 -21 18
-21 2 0 3 -1 3 -2 0 -3 13 -3 138 -3 125 0 138 0 138 3 0 1 1 2 3 2 4 0 14 12
18 21 3 7 3 36 3 284 l-1 276 -4 8 c-3 4 -6 13 -8 20 -3 11 -3 12 0 24 2 6 5
15 8 20 4 8 4 10 4 80 l0 72 6 6 6 6 170 0 c167 0 181 0 181 3 0 1 1 2 3 2 4
0 14 12 18 21 5 11 5 259 0 270 -4 9 -14 21 -18 21 -2 0 -3 1 -3 2 0 2 -10 3
-45 3 -27 0 -38 -1 -53 -4 -20 -5 -29 -4 -55 3 -5 1 -40 2 -103 2 l-95 -1 -6
6 -6 6 0 40 c0 47 0 47 -20 68 l-13 14 0 19 c-1 24 -1 27 -3 38 -2 15 1 23 16
38 13 14 18 22 20 32 0 3 1 35 1 71 l0 66 6 6 c3 4 8 7 13 8 10 2 29 6 61 13
14 4 26 7 28 7 2 0 12 3 24 6 12 3 22 5 24 6 13 3 74 20 105 30 35 10 47 16
52 23 2 4 4 19 3 29 0 1 -7 10 -16 18 -15 14 -52 51 -167 164 -48 47 -53 49
-95 34 -34 -11 -156 -44 -178 -48 -3 -1 -23 -5 -45 -10 -22 -5 -50 -11 -63
-13 -13 -2 -25 -5 -27 -5 -7 -2 -132 -23 -141 -24 -5 -1 -14 -2 -21 -3 -7 -1
-15 -2 -20 -3 -4 0 -11 -1 -15 -2 -4 0 -15 -2 -24 -3 -9 -1 -20 -3 -23 -3 -38
-5 -82 -9 -92 -8 -7 1 -30 5 -52 9 -22 4 -43 8 -46 9 -3 0 -8 1 -10 2 -2 0
-33 7 -69 14 -70 14 -73 14 -87 6 -9 -5 -18 -20 -20 -33 0 -4 -5 -29 -10 -57
-6 -32 -10 -59 -11 -76 -2 -36 -7 -47 -21 -48 -10 -1 -23 15 -23 30 0 11 2 16
16 29 15 16 16 20 16 94 0 55 0 66 -3 73 -2 4 -2 7 -2 7 1 0 -1 2 -3 4 -5 4
-9 5 -23 7 -3 1 -7 3 -7 4 -1 1 -2 1 -2 -1 0 -5 -10 -4 -14 1 -5 4 -5 10 0 15
4 4 14 5 14 0 0 -2 1 -2 2 -1 0 1 4 3 7 4 14 2 18 3 23 7 2 2 4 4 3 4 0 0 0 3
2 7 4 10 4 19 0 28 -4 9 -14 21 -18 21 -2 0 -3 1 -3 2 0 2 -1 2 -47 3 -34 1
-43 1 -54 -2 -22 -5 -33 -6 -50 -2 -26 6 -33 6 -44 0z m978 -164 c4 -4 5 -7 5
-15 0 -14 -6 -20 -20 -20 -14 0 -20 6 -20 20 0 14 6 20 20 20 8 0 11 -1 15 -5z
m-64 -77 c11 -10 3 -28 -11 -28 -9 0 -16 6 -16 16 0 14 17 22 27 12z m356 -9
c5 -8 1 -16 -8 -16 -9 0 -13 8 -8 16 2 3 5 5 8 5 3 0 6 -2 8 -5z m-738 -52 c9
-26 16 -46 24 -78 11 -43 13 -49 29 -57 21 -11 33 -5 45 21 9 19 11 21 20 21
17 0 26 -4 41 -18 21 -20 26 -21 66 -17 17 2 37 4 43 5 12 1 13 1 18 -4 l5 -5
1 -118 c0 -65 1 -120 1 -122 1 -2 4 -9 6 -16 5 -15 5 -23 0 -38 -6 -18 -7 -19
-7 -30 0 -8 -1 -11 -6 -16 l-6 -6 -154 0 c-85 0 -156 0 -159 -1 -3 -1 -6 -3
-8 -5 -3 -3 -4 -3 -5 0 0 2 -3 7 -5 11 -4 6 -4 10 -4 37 0 23 -1 32 -3 38 -4
9 -14 21 -18 21 -2 0 -3 1 -3 2 0 3 -12 3 -117 3 l-106 0 -6 6 c-5 5 -6 8 -6
16 0 6 -1 18 -1 28 -1 16 -1 17 4 22 4 4 7 5 15 5 11 0 17 -4 24 -16 11 -16
24 -25 47 -31 7 -2 15 -4 17 -5 12 -3 33 0 39 5 1 2 3 3 4 3 3 0 12 15 12 21
0 10 -4 20 -9 27 -7 8 -10 18 -6 21 2 2 19 9 27 10 6 1 11 5 17 11 5 6 23 52
51 128 5 13 10 27 12 33 5 12 5 26 1 44 -6 25 -4 32 12 42 5 3 13 10 19 16 5
6 11 11 12 10 1 -1 2 0 2 1 0 6 8 -8 15 -25z m-114 15 c4 -6 4 -24 -1 -30 -7
-9 -27 -9 -34 0 -5 6 -5 24 0 30 7 9 27 9 35 0z m281 -8 c5 -5 5 -11 0 -16
-10 -10 -27 5 -16 16 4 4 12 4 16 0z m131 -40 c10 -9 3 -26 -10 -26 -8 0 -15
7 -15 15 0 13 16 20 25 11z m266 -25 c3 -5 3 -5 0 -10 -2 -3 -5 -5 -7 -5 -2 0
-5 2 -7 5 -3 5 -3 5 0 10 2 3 5 5 7 5 2 0 5 -2 7 -5z m-148 -23 c4 -6 4 -24
-1 -30 -7 -9 -27 -9 -34 0 -5 6 -5 24 0 30 7 9 27 9 35 0z m-1195 -72 c5 -6 5
-12 0 -18 -11 -12 -29 5 -18 18 4 5 13 5 18 0z m576 -17 c16 -7 20 -37 7 -48
-12 -11 -34 -11 -43 0 -9 10 -9 32 0 42 7 8 24 11 36 6z m604 -31 c1 0 5 -3 8
-6 5 -5 6 -7 6 -18 0 -11 -1 -13 -6 -18 -6 -6 -7 -6 -18 -6 -11 0 -12 0 -18 6
-5 5 -6 7 -6 17 0 14 3 20 12 24 5 2 8 2 22 1z m-842 -141 c4 -5 3 -18 -3 -51
-3 -16 -5 -20 -15 -22 -17 -4 -28 4 -28 21 0 10 6 22 18 36 3 4 6 8 7 10 1 4
10 11 15 11 2 0 5 -2 6 -5z m861 -98 c6 -4 6 -6 6 -20 0 -14 0 -16 -6 -20 -4
-4 -7 -5 -18 -5 -11 0 -14 1 -18 5 -6 4 -6 6 -6 20 0 14 0 16 6 20 4 4 7 5 18
5 11 0 14 -1 18 -5z m-1153 -114 c2 -2 6 -8 9 -13 3 -5 11 -15 18 -23 14 -15
17 -23 9 -31 -8 -8 -16 -6 -31 10 -8 7 -18 16 -22 19 -14 9 -17 14 -17 24 0 7
1 11 4 14 7 8 21 8 30 0z m1528 -27 c4 -1 11 -6 15 -10 15 -14 19 -27 11 -35
-12 -13 -36 3 -45 29 -3 9 -3 11 0 15 4 6 9 6 19 1z m-1255 -10 c7 -4 14 -18
14 -31 0 -21 -9 -30 -28 -30 -17 0 -27 9 -30 26 -3 18 4 34 17 37 8 2 21 1 27
-2z m-139 -10 c5 -5 5 -15 0 -20 -9 -9 -24 -2 -24 10 0 8 6 14 14 14 3 0 8 -2
10 -4z m942 -69 l-5 -5 -4 4 -5 5 4 4 5 5 4 -4 5 -5 -4 -4z m244 -43 c5 -5 5
-11 0 -16 -10 -10 -27 5 -16 16 4 4 12 4 16 0z m-1241 -120 c5 -6 5 -16 0 -21
-8 -10 -25 -3 -25 10 0 13 17 20 25 11z m90 -1 c7 -4 10 -11 10 -23 0 -19 -8
-27 -28 -27 -8 0 -13 1 -16 4 -8 6 -14 29 -9 32 1 1 2 3 2 5 0 12 28 18 41 9z
m259 -27 c5 -6 5 -12 0 -18 -7 -8 -22 -2 -22 9 0 11 15 17 22 9z m711 -25 c3
-3 3 -3 0 -6 -3 -3 -3 -3 -6 0 -3 2 -3 3 -1 6 4 4 4 4 7 0z m-796 -23 c7 -3
12 -13 12 -25 0 -19 -9 -28 -28 -28 -19 0 -28 9 -28 28 0 17 6 24 22 28 5 1
14 -1 22 -3z m819 -71 c3 -3 4 -7 4 -14 0 -13 -6 -19 -19 -19 -13 0 -19 6 -19
19 0 7 1 11 4 14 7 8 23 8 30 0z m-1069 -29 c5 -5 6 -7 6 -16 0 -9 -1 -11 -7
-16 -5 -6 -7 -7 -16 -7 -9 0 -11 1 -16 7 -9 8 -9 23 -1 32 9 9 24 9 34 0z
m138 1 c3 -5 3 -5 0 -10 -2 -3 -5 -5 -7 -5 -2 0 -5 2 -7 5 -3 5 -3 5 0 10 2 3
5 5 7 5 2 0 5 -2 7 -5z m900 -84 c4 -4 5 -7 5 -15 0 -14 -6 -20 -20 -20 -14 0
-20 6 -20 20 0 14 6 20 20 20 8 0 11 -1 15 -5z m-1157 -112 c16 -7 20 -37 7
-48 -12 -11 -34 -11 -43 0 -9 10 -9 32 0 42 7 8 24 11 36 6z m1124 -56 l-5 -5
-4 4 -5 5 4 4 5 5 4 -4 5 -5 -4 -4z m89 -78 c5 -8 1 -16 -8 -16 -9 0 -13 8 -8
16 2 3 5 5 8 5 3 0 6 -2 8 -5z m-828 -88 c12 -7 14 -33 3 -43 -8 -9 -32 -9
-40 0 -9 8 -9 32 0 41 7 7 27 8 37 2z"/>
</g>
</svg>
