<?xml version="1.0" standalone="no"?>
<!DOCTYPE svg PUBLIC "-//W3C//DTD SVG 20010904//EN"
 "http://www.w3.org/TR/2001/REC-SVG-20010904/DTD/svg10.dtd">
<svg version="1.0" xmlns="http://www.w3.org/2000/svg"
 width="1000.000000pt" height="2850.000000pt" viewBox="0 0 1000.000000 2850.000000"
 preserveAspectRatio="xMidYMid meet">
<metadata>
Created by potrace 1.15, written by Peter Selinger 2001-2017
</metadata>
<g transform="translate(0.000000,2850.000000) scale(0.500000,-0.500000)"
fill="#000000" stroke="none">
<path d="M631 3804 c1 -1 0 -2 -1 -2 -1 0 -2 -6 -2 -17 0 -13 1 -17 3 -18 2 0
5 -4 6 -8 2 -5 7 -15 11 -24 14 -28 10 -43 -11 -43 -14 0 -18 5 -20 25 -3 34
-6 38 -25 37 -17 -1 -20 -3 -32 -29 -6 -11 -13 -25 -16 -31 -4 -6 -10 -17 -14
-25 -4 -7 -8 -15 -9 -17 -1 -2 -5 -7 -8 -13 -3 -5 -8 -14 -11 -18 -2 -4 -7
-11 -9 -15 -8 -13 -48 -73 -49 -74 -1 -1 -4 -5 -8 -11 -7 -11 -48 -65 -50 -67
0 -1 -10 -12 -20 -25 -11 -13 -22 -26 -24 -29 -14 -16 -26 -30 -36 -41 -18
-20 -98 -99 -116 -115 -9 -8 -21 -19 -27 -24 -5 -5 -14 -13 -19 -17 -6 -4 -11
-8 -12 -10 -2 -1 -9 -7 -17 -13 -8 -6 -14 -11 -15 -12 -1 -2 -22 -17 -37 -28
-18 -13 -19 -14 -19 -31 0 -17 2 -19 24 -35 8 -6 16 -12 17 -13 2 -1 4 -3 5
-4 10 -7 23 -18 30 -25 15 -13 33 -11 51 8 6 5 12 10 14 10 2 0 6 0 9 0 11 0
12 0 18 -6 5 -5 6 -7 6 -17 0 -13 -3 -18 -13 -27 -8 -7 -11 -14 -11 -27 0 -9
1 -13 4 -15 1 -2 12 -13 23 -26 21 -24 27 -28 42 -28 10 0 21 7 38 23 6 5 11
9 11 8 0 -2 1 -3 2 -3 1 0 4 -3 5 -7 3 -6 3 -47 3 -289 0 -253 0 -282 3 -289
4 -9 14 -21 18 -21 2 0 3 -1 3 -2 0 -1 1 -2 3 -2 1 0 60 -1 130 -1 127 -1 145
0 145 5 0 1 1 2 2 1 2 -1 11 10 15 20 6 15 2 42 -8 57 -2 4 -6 11 -8 16 -4 8
-4 8 0 17 2 4 6 11 8 14 3 4 6 11 8 17 3 10 3 11 0 20 -4 9 -7 15 -18 29 -5 7
-6 9 -6 22 0 13 1 15 6 22 11 14 14 20 18 29 3 8 3 24 3 183 l-1 174 6 6 6 6
293 0 293 0 10 5 c5 2 14 9 20 15 13 13 17 16 30 16 13 0 17 -3 30 -16 15 -15
26 -20 45 -20 13 0 15 0 21 -6 l6 -6 -1 -135 c0 -102 0 -137 2 -144 3 -10 15
-23 27 -29 10 -4 16 -11 16 -20 0 -7 -1 -8 -14 -15 -16 -9 -25 -19 -29 -30 -1
-6 -2 -38 -2 -118 0 -60 0 -111 -1 -112 -3 -4 -10 -6 -15 -3 -7 4 -24 4 -33 0
-3 -1 -11 -6 -17 -10 -9 -6 -12 -7 -21 -7 -14 0 -20 5 -23 18 -3 13 -4 14 -7
23 -4 13 -12 21 -28 28 -27 12 -38 16 -47 16 -10 -1 -24 -5 -24 -7 0 -1 -1 -2
-2 -2 -4 0 -16 -14 -19 -21 -4 -9 -4 -24 0 -38 3 -11 3 -17 -1 -28 -4 -9 -12
-12 -41 -13 -28 -1 -41 -5 -54 -18 -9 -8 -20 -16 -23 -16 -5 0 -3 3 29 65 7
14 16 31 19 36 6 10 28 64 29 70 0 2 2 8 4 13 10 26 28 101 34 133 0 3 2 17 5
30 2 13 5 33 6 44 1 11 4 32 6 47 4 27 8 73 11 110 2 28 -4 41 -22 49 l-11 5
-133 0 -134 -1 -9 -5 c-15 -8 -21 -21 -23 -46 -3 -38 -7 -88 -10 -112 -6 -45
-5 -50 16 -72 15 -15 16 -16 15 -30 0 -7 -8 -18 -14 -18 -4 0 -29 -12 -34 -17
-5 -5 -14 -23 -18 -37 -3 -12 -22 -56 -29 -69 -7 -12 -31 -48 -36 -54 -16 -18
-20 -28 -19 -53 0 -12 0 -14 -4 -18 -5 -5 -8 -5 -25 -2 -16 3 -34 0 -40 -6 -3
-3 -5 -4 -5 -3 0 0 -3 0 -6 -1 -7 -3 -20 -12 -18 -13 1 -1 -2 -3 -6 -5 -37
-19 -51 -25 -77 -35 -40 -16 -57 -23 -69 -26 -5 -1 -17 -5 -27 -8 -19 -6 -59
-17 -66 -18 -3 -1 -14 -3 -25 -6 -19 -4 -75 -16 -88 -18 -3 -1 -15 -3 -27 -5
-12 -2 -55 -9 -95 -15 -45 -6 -76 -12 -80 -14 -8 -4 -12 -10 -13 -24 -1 -10
-1 -11 6 -21 4 -6 8 -11 9 -12 3 -2 44 -67 44 -69 0 0 5 -10 12 -21 12 -22 28
-57 38 -83 3 -8 8 -19 11 -22 6 -8 23 -17 33 -17 15 -1 147 24 208 38 15 3 29
7 31 7 2 1 13 3 24 6 11 3 22 5 24 6 14 3 61 17 88 25 63 20 70 25 77 49 2 8
4 17 4 20 0 9 7 15 19 15 6 0 11 -1 13 -3 2 -2 4 -3 5 -3 1 0 3 -2 5 -4 5 -5
21 -12 30 -12 5 0 17 5 41 17 19 10 35 19 37 20 2 2 4 3 4 3 1 0 9 5 19 11 58
34 109 76 156 128 10 11 20 16 25 13 1 -1 3 -6 4 -12 3 -14 11 -20 39 -31 12
-5 27 -11 33 -14 5 -3 11 -5 11 -5 1 0 4 -1 8 -3 6 -3 36 -16 66 -30 9 -4 17
-7 18 -7 0 0 9 -4 19 -9 60 -28 53 -25 68 -22 8 2 12 4 17 10 4 4 7 7 9 7 1 0
3 1 4 3 1 2 4 3 6 3 6 0 8 -8 9 -25 0 -12 1 -18 4 -24 4 -8 15 -14 81 -46 9
-5 42 -21 73 -37 85 -43 101 -52 150 -79 16 -8 32 -16 36 -16 14 -3 25 2 44
18 10 9 18 16 19 17 1 0 5 4 9 8 7 6 22 19 49 43 6 6 18 16 26 23 8 7 17 15
19 17 3 3 11 10 19 17 8 7 15 13 16 14 1 1 7 6 14 13 15 13 19 20 17 34 -2 12
-7 18 -21 24 -9 4 -13 5 -20 4 -5 0 -9 -2 -10 -3 0 -1 -1 -2 -2 -1 -3 2 -13
-10 -13 -15 -1 -6 -10 -14 -15 -14 -3 1 -6 3 -8 6 -2 5 -2 6 1 13 4 8 4 29 0
38 -2 4 -6 7 -13 11 -14 6 -34 15 -47 21 -5 3 -18 8 -28 13 -10 4 -29 13 -42
19 -50 22 -51 23 -90 23 -4 0 -9 4 -22 17 -15 14 -19 17 -34 24 -10 4 -20 8
-22 9 -2 1 -8 4 -14 6 -5 2 -13 6 -16 7 -4 2 -12 5 -19 8 l-12 4 4 5 c2 2 4 4
5 4 0 1 54 1 120 2 66 1 121 2 123 2 1 0 2 1 2 2 0 1 1 2 3 2 4 0 14 12 18 21
3 7 3 26 2 171 l0 163 -6 20 -5 19 5 20 6 19 0 221 c1 198 1 222 -2 229 -4 9
-14 21 -18 21 -2 0 -3 1 -3 2 0 1 -1 2 -2 2 -2 0 -75 1 -163 2 l-160 1 -6 5
c-5 4 -6 6 -4 7 3 4 66 98 75 113 2 4 12 22 23 40 31 53 34 58 32 71 -1 18 -6
23 -30 39 -7 4 -20 12 -29 18 -17 11 -18 12 -28 11 -6 -1 -14 -3 -17 -5 -6 -3
-15 -18 -15 -25 0 -12 -5 -26 -10 -31 -5 -5 -7 -6 -17 -6 -20 0 -25 9 -26 49
0 21 1 25 5 34 5 12 5 28 -1 38 -3 7 -21 18 -30 20 -18 3 -21 3 -36 0 -15 -4
-28 -4 -205 -4 l-189 0 -8 6 c-4 3 -7 5 -5 5 1 0 3 5 4 11 1 7 3 13 5 14 4 6
10 12 14 15 5 4 24 41 27 53 4 18 -5 35 -24 45 -12 6 -43 12 -52 10 -12 -3
-18 -6 -24 -13 -18 -19 -20 -21 -27 -21 -9 0 -19 8 -28 21 -12 19 -26 31 -41
36 -22 7 -66 13 -79 10 -2 0 -6 0 -9 1 -3 1 -4 1 -3 0z m215 -113 c4 -3 7 -10
9 -22 1 -5 0 -8 -4 -12 -4 -6 -6 -6 -19 -7 -13 0 -14 0 -20 6 -5 5 -6 7 -6 16
0 13 4 19 12 23 8 3 23 1 28 -4z m-246 -87 c5 -5 5 -15 1 -20 -5 -5 -16 -5
-21 0 -9 9 -2 24 10 24 3 0 8 -2 10 -4z m60 -48 c5 -5 5 -17 1 -19 -3 -1 -3
-3 -2 -12 0 -7 1 -14 2 -16 2 -4 14 -17 17 -17 3 0 8 -13 8 -22 0 -9 -1 -11
-6 -16 -5 -5 -7 -6 -17 -6 -10 0 -12 1 -17 6 -8 8 -8 23 -1 34 4 6 5 10 5 20
1 7 0 13 -2 15 -1 1 -2 3 -2 3 0 2 -2 5 -7 11 -4 4 -4 14 0 19 5 5 16 5 21 0z
m199 -61 c4 -4 5 -7 5 -15 0 -14 -6 -20 -20 -20 -14 0 -20 6 -20 20 0 14 6 20
20 20 8 0 11 -1 15 -5z m-370 -73 l5 -5 -4 -8 c-3 -4 -7 -10 -10 -13 -3 -3 -8
-12 -12 -23 -8 -21 -12 -25 -27 -25 -10 0 -12 1 -17 6 -5 5 -6 7 -6 16 0 14 3
19 17 25 24 10 29 14 31 18 2 3 14 13 18 13 0 0 3 -2 5 -4z m581 -76 c4 -4 5
-6 4 -7 -3 -3 -4 -5 -11 -18 -3 -5 -8 -13 -11 -18 -38 -58 -37 -56 -46 -61 -9
-5 -10 -5 -92 -6 -52 -1 -86 -2 -91 -4 -11 -3 -30 -3 -48 1 -11 3 -24 3 -55 3
l-39 -1 -16 -8 c-24 -12 -42 -10 -47 4 -4 10 -2 14 10 29 7 8 19 24 27 34 8
10 15 21 17 22 2 2 7 9 11 15 6 8 11 13 18 16 l10 5 176 0 176 0 7 -6z m145
-42 c7 -3 12 -13 12 -25 0 -19 -9 -28 -28 -28 -19 0 -28 9 -28 28 0 17 6 24
22 28 5 1 14 -1 22 -3z m92 -32 c10 -9 3 -26 -10 -26 -8 0 -15 7 -15 15 0 13
16 20 25 11z m-869 -86 c5 -5 5 -15 0 -20 -9 -9 -24 -2 -24 10 0 8 6 14 14 14
3 0 8 -2 10 -4z m1251 -180 c11 -9 11 -29 -1 -38 -4 -4 -7 -4 -18 -4 -8 1 -13
2 -14 4 -1 2 -3 3 -3 2 -1 0 -8 1 -14 2 -7 1 -18 2 -25 2 -12 -1 -13 -1 -16 4
-2 5 -2 6 1 11 2 4 5 5 12 5 14 0 28 3 40 10 15 7 30 8 38 2z m-1196 -10 c7
-6 7 -19 1 -25 -6 -7 -19 -7 -25 -1 -7 6 -7 19 -1 25 6 7 19 7 25 1z m37 -115
c12 -5 17 -19 14 -40 -1 -8 -2 -23 -2 -34 0 -17 -1 -21 -4 -25 -6 -8 -27 -9
-34 0 -2 2 -4 8 -5 13 -1 6 -4 21 -7 35 -7 26 -6 36 2 45 7 8 24 11 36 6z
m-114 -116 c3 -3 4 -7 4 -14 0 -13 -6 -19 -19 -19 -13 0 -19 6 -19 19 0 7 1
11 4 14 7 8 23 8 30 0z m1235 -84 c6 -4 6 -6 6 -20 0 -14 0 -16 -6 -20 -4 -4
-7 -5 -18 -5 -11 0 -14 1 -18 5 -6 4 -6 6 -6 20 0 14 0 16 6 20 4 4 7 5 18 5
11 0 14 -1 18 -5z m-698 -91 c11 -10 3 -28 -11 -28 -9 0 -16 6 -16 16 0 14 17
22 27 12z m536 -1 c3 -3 3 -3 0 -6 -3 -3 -3 -3 -7 0 -4 3 -4 4 0 6 4 4 4 4 7
0z m66 -20 c3 -5 3 -5 0 -10 -2 -3 -5 -5 -7 -5 -2 0 -5 2 -7 5 -3 5 -3 5 0 10
2 3 5 5 7 5 2 0 5 -2 7 -5z m-56 -52 c4 -4 5 -7 5 -15 0 -14 -6 -20 -20 -20
-14 0 -20 6 -20 20 0 14 6 20 20 20 8 0 11 -1 15 -5z m-343 -277 c5 -6 5 -12
0 -18 -7 -8 -22 -2 -22 9 0 11 15 17 22 9z m359 -35 c5 -8 1 -16 -8 -16 -9 0
-13 8 -8 16 2 3 5 5 8 5 3 0 6 -2 8 -5z m135 -71 c5 -5 5 -15 0 -20 -9 -9 -24
-2 -24 10 0 8 6 14 14 14 3 0 8 -2 10 -4z m-1210 -21 c16 -7 20 -37 7 -48 -12
-11 -34 -11 -43 0 -9 10 -9 32 0 42 7 8 24 11 36 6z m-150 -65 c1 0 5 -3 8 -6
5 -5 6 -7 6 -18 0 -11 -1 -13 -6 -18 -6 -6 -7 -6 -18 -6 -11 0 -12 0 -18 6 -5
5 -6 7 -6 17 0 14 3 20 12 24 5 2 8 2 22 1z"/>
</g>
</svg>
