<?xml version="1.0" standalone="no"?>
<!DOCTYPE svg PUBLIC "-//W3C//DTD SVG 20010904//EN"
 "http://www.w3.org/TR/2001/REC-SVG-20010904/DTD/svg10.dtd">
<svg version="1.0" xmlns="http://www.w3.org/2000/svg"
 width="1000.000000pt" height="2850.000000pt" viewBox="0 0 1000.000000 2850.000000"
 preserveAspectRatio="xMidYMid meet">
<metadata>
Created by potrace 1.15, written by Peter Selinger 2001-2017
</metadata>
<g transform="translate(0.000000,2850.000000) scale(0.500000,-0.500000)"
fill="#000000" stroke="none">
<path d="M342 3805 c-4 -1 -10 -4 -12 -6 -5 -5 -12 -19 -16 -30 -12 -42 -19
-66 -22 -74 -9 -24 -11 -33 -9 -51 l1 -18 -8 -3 c-9 -3 -14 -7 -14 -11 0 -3
-33 -85 -48 -119 -20 -44 -20 -46 -22 -49 -1 -2 -5 -11 -9 -21 -4 -10 -10 -22
-13 -28 -8 -17 -10 -23 -10 -40 l0 -17 -7 -3 c-4 -2 -7 -3 -8 -3 0 0 -7 -6
-14 -13 -12 -12 -24 -29 -37 -49 -5 -9 -5 -9 -9 -30 -3 -16 -8 -22 -15 -22 -6
0 -24 -6 -24 -8 0 -1 -1 -2 -3 -2 -3 0 -9 -12 -9 -20 0 -3 3 -13 6 -21 3 -9
11 -30 17 -47 6 -17 12 -34 14 -38 2 -4 8 -24 15 -46 8 -25 15 -41 18 -46 11
-14 28 -18 50 -11 17 5 42 10 75 16 17 3 35 6 41 8 38 11 55 7 60 -15 2 -9 2
-11 -1 -20 -5 -15 -24 -22 -43 -14 -11 5 -27 5 -38 0 -5 -3 -11 -9 -21 -22 -8
-11 -18 -23 -21 -27 -19 -23 -48 -57 -58 -67 -16 -18 -19 -25 -19 -52 0 -16 1
-27 4 -35 2 -7 4 -14 4 -16 0 -2 1 -5 2 -7 1 -5 -5 -14 -9 -14 -4 0 -14 9 -14
12 0 4 -14 25 -20 31 -5 5 -19 11 -27 11 -2 0 -7 -1 -11 -2 -8 -3 -11 -7 -14
-22 -2 -9 -1 -12 12 -45 7 -20 15 -41 18 -48 2 -7 7 -20 10 -29 4 -9 8 -22 10
-29 20 -68 25 -79 39 -85 12 -5 22 -5 39 1 16 5 44 13 66 18 17 4 59 13 67 14
3 1 18 3 33 6 27 5 86 15 97 16 3 1 15 3 26 4 11 2 23 4 26 4 3 1 11 2 18 3
14 2 70 10 82 11 12 2 18 -5 20 -20 2 -14 9 -31 15 -36 3 -2 9 -4 13 -5 7 -2
13 -6 13 -9 0 -2 -14 -9 -22 -11 -10 -3 -14 -9 -15 -24 -1 -10 -1 -13 4 -21 6
-11 6 -15 1 -21 -5 -5 -13 -5 -18 1 -4 3 -4 6 -3 13 1 10 -3 21 -9 24 -2 1 -8
2 -14 2 -6 0 -11 0 -11 1 -1 0 -8 -1 -15 -4 -8 -3 -16 -5 -18 -4 -5 1 -142
-22 -162 -28 -15 -4 -34 -4 -56 1 -9 2 -21 4 -25 5 -9 1 -45 6 -54 8 -5 1 -18
3 -39 6 -37 6 -45 7 -46 8 -1 1 -21 -5 -27 -9 -12 -9 -14 -19 -18 -80 -1 -10
-2 -26 -2 -34 -1 -12 0 -19 3 -33 6 -27 5 -37 -7 -59 -4 -7 -9 -25 -10 -38 0
-6 -3 -22 -5 -35 -4 -26 -9 -70 -9 -91 0 -15 3 -22 14 -36 9 -11 10 -25 2 -33
-3 -3 -6 -5 -8 -5 -2 0 -5 -1 -7 -2 -1 -1 -8 -4 -15 -7 l-11 -5 0 -15 c0 -8 1
-15 2 -15 1 0 4 -2 7 -5 4 -3 16 -8 35 -14 51 -16 67 -21 74 -24 4 -2 18 -7
31 -11 13 -5 27 -10 31 -12 6 -4 17 -5 25 -3 5 1 5 3 5 17 0 9 -1 16 -2 17 -1
1 -4 5 -7 10 -5 7 -5 9 -4 19 1 18 7 25 31 38 12 6 21 15 24 24 7 17 21 81 27
124 0 4 3 23 6 42 2 19 5 42 6 52 1 13 2 16 4 15 2 -1 5 0 6 1 2 1 2 1 2 -1 1
-1 1 -8 2 -16 2 -29 3 -39 6 -80 2 -35 3 -43 4 -77 1 -19 2 -40 3 -46 2 -6 3
-12 2 -13 0 -1 1 -1 2 0 1 0 2 0 3 -2 1 -2 4 -3 16 -3 11 0 15 -1 15 -2 0 -2
1 0 2 3 2 10 11 14 31 13 4 0 17 -13 24 -23 4 -6 15 -12 26 -15 8 -1 14 0 31
8 9 4 10 6 10 22 l0 13 -11 10 c-9 8 -12 12 -13 19 -2 10 0 23 6 28 9 10 33 9
42 -1 4 -5 4 -7 5 -27 0 -16 8 -45 10 -39 1 1 6 2 12 2 21 -1 26 9 24 46 -1
29 -2 41 -11 142 -1 12 -2 24 -1 26 0 2 1 9 2 15 2 11 3 12 8 7 4 -4 30 -4 33
0 1 1 4 10 6 20 5 20 8 25 18 25 7 0 14 -6 14 -13 0 -5 -10 -40 -14 -47 -3 -5
-8 -11 -11 -11 -2 -1 -5 -1 -7 -2 -10 -1 -22 -9 -26 -16 -5 -7 -5 -18 -1 -39
5 -25 10 -35 22 -41 13 -7 19 -6 46 3 41 14 48 21 55 53 2 11 5 19 8 21 8 9
32 9 40 0 5 -4 9 -18 7 -26 -1 -3 -5 -12 -9 -21 -4 -9 -9 -22 -11 -29 -4 -17
-8 -23 -17 -33 -12 -13 -14 -17 -14 -27 0 -18 9 -28 41 -41 10 -4 35 -14 55
-23 122 -51 114 -48 125 -47 20 3 26 9 41 41 24 49 58 141 58 154 0 5 0 5 5 3
2 -1 4 -3 4 -3 -1 -1 0 -2 1 -2 1 0 1 -1 1 -2 3 -58 11 -110 20 -128 6 -12 15
-22 30 -30 14 -8 14 -8 21 -30 8 -26 15 -34 29 -34 11 0 25 6 30 13 7 8 13 11
26 11 16 0 19 -3 27 -20 6 -15 17 -30 21 -30 1 0 3 -1 5 -2 3 -4 9 -5 38 -5
31 0 35 1 49 16 12 13 18 15 26 12 3 -2 10 -7 14 -12 13 -14 19 -16 45 -17 38
-1 81 6 107 18 7 3 14 6 14 6 2 0 23 15 33 23 11 10 30 31 33 37 0 2 3 6 5 9
12 19 38 84 38 97 0 5 7 12 11 12 4 -1 14 -28 26 -66 8 -26 17 -35 35 -36 8 0
12 1 25 8 20 11 31 21 39 38 8 16 14 21 28 20 26 -1 36 2 41 14 3 7 4 13 3 34
-1 17 17 24 34 14 10 -6 30 -6 35 0 5 6 5 19 -2 38 -14 42 -58 133 -86 177 -2
5 -5 9 -6 11 0 2 -3 5 -5 8 -1 3 -7 11 -11 18 -4 7 -16 26 -27 42 -16 25 -22
33 -30 43 -1 1 -3 5 -5 8 -4 5 -15 21 -28 38 -17 23 -26 29 -43 29 -12 0 -10
1 -91 -42 -54 -29 -74 -37 -73 -28 1 4 2 5 13 17 5 5 10 13 12 16 4 8 4 31 1
40 -2 5 -2 11 1 21 1 2 6 7 11 11 6 4 11 10 13 13 3 6 4 32 2 32 -1 0 -5 3 -8
6 -7 6 -57 49 -66 56 -3 2 -9 6 -12 9 -8 6 -33 24 -46 34 -6 4 -13 9 -14 10
-4 4 -67 45 -76 49 -11 6 -12 8 -4 14 6 4 12 5 34 7 30 3 36 5 42 14 5 8 7 27
2 33 -2 3 -3 9 -3 17 0 10 1 12 6 17 3 3 7 6 9 6 28 2 34 -4 32 -31 -2 -29 5
-42 25 -44 8 -1 43 6 47 9 3 3 19 3 30 1 12 -3 21 -10 26 -20 10 -19 22 -27
48 -31 21 -3 24 -5 31 -19 6 -10 15 -20 20 -20 0 0 2 -1 4 -2 5 -1 20 -2 20
-1 0 1 7 5 17 10 9 5 24 13 33 20 9 6 28 16 41 22 45 22 57 30 63 41 6 11 5
25 -2 38 -9 20 -24 48 -27 51 -2 2 -3 4 -3 5 0 1 -3 6 -6 12 -4 5 -9 14 -12
19 -2 5 -6 10 -7 12 -2 2 -3 4 -3 5 0 6 -19 23 -33 30 -18 9 -20 13 -22 31 -2
21 -3 28 -8 37 -3 8 -38 61 -41 63 -1 1 -6 9 -13 19 -7 10 -12 18 -13 19 -1 1
-7 10 -15 21 -7 11 -18 27 -24 35 -6 8 -15 22 -20 30 -5 8 -10 15 -11 16 -1 1
-2 2 -2 4 -1 2 -3 5 -4 7 -2 2 -4 5 -4 6 0 2 -1 3 -1 3 -1 -1 -4 0 -6 1 -2 2
-7 3 -11 4 -21 3 -17 4 -82 -28 -33 -17 -62 -31 -64 -31 -2 -1 -5 0 -8 1 -6 2
-4 6 15 32 20 27 27 37 41 57 9 13 10 16 9 23 0 4 -1 10 -1 11 0 6 -10 16 -23
22 -7 4 -25 12 -41 19 -34 16 -48 22 -90 42 -45 21 -66 29 -73 30 -16 1 -28
-10 -35 -34 -3 -10 -6 -14 -23 -25 -18 -11 -26 -20 -40 -43 -7 -11 -13 -19
-13 -19 -1 0 -2 -1 -2 -3 0 -1 -1 -3 -1 -3 -1 -1 -6 -7 -12 -15 -5 -8 -13 -20
-18 -27 -11 -15 -47 -63 -52 -69 -2 -3 -6 -7 -8 -10 -2 -3 -5 -7 -7 -9 -2 -2
-5 -6 -8 -10 -3 -3 -7 -8 -9 -11 -2 -2 -8 -9 -12 -14 -8 -10 -20 -23 -36 -41
-6 -6 -9 -12 -11 -19 -5 -22 -14 -30 -34 -34 -6 -1 -11 -5 -19 -13 -10 -9 -45
-39 -54 -46 -1 0 -8 -4 -15 -8 -17 -9 -33 -20 -38 -26 -2 -3 -5 -10 -7 -16 -3
-12 -1 -23 7 -41 5 -10 25 -68 44 -125 16 -48 21 -57 34 -64 13 -7 24 -7 46
-1 12 3 23 6 25 6 2 1 9 2 14 3 6 1 12 3 15 3 3 0 11 2 18 3 18 3 69 11 86 13
74 9 72 9 80 5 8 -4 8 -6 -3 -14 -14 -10 -18 -19 -18 -43 -1 -26 -2 -27 -21
-22 -19 4 -33 3 -43 -5 -7 -6 -7 -6 -6 -21 0 -18 2 -21 25 -35 17 -10 59 -38
70 -46 4 -3 16 -12 27 -20 11 -8 22 -16 25 -17 3 -2 4 -3 3 -3 -2 0 -5 -2 -8
-5 -5 -5 -6 -5 -41 -5 -39 0 -47 -2 -57 -11 -6 -6 -13 -21 -16 -35 -2 -9 -10
-13 -26 -12 -8 0 -15 8 -15 18 0 5 -1 7 -1 6 -1 -4 -4 -4 -19 -4 -15 0 -18 0
-17 -3 1 -2 0 -5 -1 -6 -3 -3 -3 -4 0 -2 2 1 3 1 1 -1 -2 -2 -2 -4 -2 -5 1 0
-2 -5 -6 -9 -4 -4 -7 -7 -7 -6 0 1 -2 2 -6 2 -3 0 -8 1 -11 2 -5 1 -12 0 -28
-4 -27 -7 -31 -7 -39 -1 -24 17 -36 23 -49 23 -9 0 -33 -8 -45 -16 -5 -3 -10
-6 -11 -6 -8 0 -12 -31 -6 -44 4 -11 1 -21 -13 -32 -10 -10 -16 -22 -22 -49
-4 -18 -6 -25 -10 -25 -4 0 -7 7 -16 36 -19 64 -33 111 -38 121 -2 3 -5 8 -8
10 -7 7 -28 13 -42 13 -6 0 -16 1 -22 2 -6 1 -12 2 -13 2 -5 1 -5 6 1 11 13
10 30 17 54 20 17 2 32 6 57 14 47 16 44 13 43 31 0 19 -1 21 -8 24 -22 9 -24
28 -4 48 18 17 18 24 5 81 -14 62 -24 101 -28 110 -3 7 -14 16 -20 18 -2 0 -7
2 -11 3 -4 1 -11 2 -15 2 -10 0 -16 4 -23 17 -6 11 -17 18 -31 20 -4 0 -9 2
-10 3 -3 3 -3 4 0 10 2 3 4 6 4 5 3 -3 16 8 18 15 1 3 4 9 5 10 1 1 4 5 6 10
6 11 8 28 4 37 -3 6 -3 6 -16 5 -14 -1 -18 -1 -38 -7 -10 -3 -23 -6 -27 -7 -4
-1 -14 -4 -22 -6 -16 -5 -27 -4 -27 2 0 4 12 24 16 28 2 2 54 80 70 106 8 13
18 28 21 33 4 6 7 11 7 12 0 0 3 5 6 9 3 5 8 13 10 18 13 23 38 65 40 68 4 5
11 8 16 8 2 0 11 -5 20 -11 38 -28 45 -32 47 -34 10 -9 52 -41 63 -46 8 -5 19
-14 27 -23 14 -14 15 -15 25 -16 13 -1 27 5 34 14 2 3 11 12 20 21 43 46 92
107 125 157 6 8 11 16 12 17 1 1 7 11 14 22 7 11 15 23 17 26 9 14 14 27 19
48 4 21 9 33 13 33 1 0 8 6 15 14 12 11 16 17 24 34 6 12 11 24 12 28 3 17 10
34 22 51 8 12 16 27 23 45 10 26 11 27 8 38 -1 5 -4 13 -6 16 -4 5 -17 13 -25
15 -5 1 -86 21 -149 37 -50 12 -59 14 -66 10 -2 -1 -4 -2 -4 -1 0 1 -2 0 -4
-1 -12 -6 -18 -16 -27 -38 -6 -16 -6 -17 -20 -49 -11 -26 -31 -67 -40 -83 -4
-6 -9 -15 -11 -20 -9 -17 -42 -71 -47 -75 -1 -2 -6 -9 -11 -16 -9 -13 -38 -51
-40 -53 -1 -1 -5 -6 -9 -11 -8 -10 -16 -19 -29 -33 -8 -9 -25 -18 -32 -18 -5
0 -17 -11 -15 -16 1 -1 2 -6 2 -10 1 -7 1 -8 -5 -14 -8 -7 -16 -8 -28 -1 -5 3
-18 10 -30 15 -23 12 -27 17 -27 33 1 7 2 13 7 22 5 9 6 13 5 23 0 12 -4 21
-11 23 -1 1 -4 3 -6 4 -2 2 -9 6 -17 10 -13 7 -16 8 -37 9 -28 2 -32 4 -40 17
-4 6 -8 12 -10 13 -4 2 -28 2 -31 0 -3 -2 -12 -20 -21 -41 -17 -40 -40 -88
-73 -152 -16 -32 -20 -35 -45 -36 -14 -1 -16 0 -21 4 -5 5 -5 5 -2 10 2 3 5 8
7 11 2 4 7 13 11 20 18 30 29 51 33 69 5 22 6 24 22 40 10 12 15 19 30 50 24
49 40 83 40 84 0 1 4 11 10 23 16 35 40 95 40 101 0 22 -10 33 -45 46 -70 28
-104 41 -142 56 -23 9 -45 17 -48 17 -2 0 -8 -1 -13 -3z m137 -117 c4 -4 15
-35 13 -37 0 -1 0 -1 2 0 1 1 2 0 2 -2 0 -1 2 -4 4 -5 2 -1 4 -5 6 -10 2 -7 2
-8 -1 -11 -3 -3 -4 -3 -10 -1 -4 2 -8 5 -9 7 -1 3 -5 6 -9 8 -21 11 -31 18
-33 21 -3 6 -2 23 2 28 6 8 26 9 33 2z m677 -10 c1 0 5 -3 8 -6 5 -5 6 -7 6
-18 0 -11 -1 -13 -6 -18 -6 -6 -7 -6 -18 -6 -11 0 -12 0 -18 6 -5 5 -6 7 -6
17 0 14 3 20 12 24 5 2 8 2 22 1z m-816 -47 c8 -8 7 -37 -2 -42 -1 -1 -7 2
-14 5 -11 6 -14 9 -19 19 -4 7 -8 13 -9 15 -2 2 -2 3 0 2 2 -1 6 0 10 2 15 6
27 6 34 -1z m76 -17 c4 -3 6 -14 2 -14 -1 0 -2 -2 -3 -4 -1 -2 -2 -4 -3 -4 -1
0 -4 -1 -5 -3 -7 -7 -17 5 -13 16 4 12 12 15 22 9z m-35 -36 c8 -8 8 -10 4
-25 -4 -13 -9 -17 -19 -17 -10 0 -16 5 -18 17 -3 15 2 29 11 29 2 0 3 1 3 2 0
4 13 0 19 -6z m-125 -210 c12 -5 31 -17 36 -23 5 -6 5 -19 0 -24 -6 -6 -14 -6
-31 0 -16 6 -32 6 -39 0 -2 -2 -6 -4 -9 -5 -3 -1 -8 -5 -11 -9 -2 -4 -5 -6 -7
-6 -1 1 -1 1 0 -1 1 -2 1 -7 1 -13 0 -9 0 -11 6 -17 17 -18 14 -45 -6 -53 -6
-3 -19 -2 -26 0 -12 5 -18 21 -14 35 3 11 5 14 15 20 9 5 17 13 17 16 0 1 1 2
2 1 0 0 1 5 2 11 0 9 -1 13 -3 15 -8 8 -8 12 -2 18 4 4 7 6 8 5 0 0 7 6 14 13
22 23 28 25 47 17z m1014 -56 c5 -5 6 -7 6 -17 0 -10 -1 -12 -6 -17 -5 -5 -7
-6 -17 -6 -10 0 -12 1 -17 6 -5 5 -6 7 -6 17 0 10 1 12 6 17 5 5 7 6 17 6 10
0 12 -1 17 -6z m-302 -12 c5 -5 5 -11 0 -16 -10 -10 -27 5 -16 16 4 4 12 4 16
0z m-333 -6 c4 -6 4 -24 -1 -30 -7 -9 -27 -9 -34 0 -5 6 -5 24 0 30 7 9 27 9
35 0z m-92 -109 c3 -3 3 -3 0 -6 -3 -3 -3 -3 -6 0 -3 2 -3 3 -1 6 4 4 4 4 7 0z
m1100 -4 c5 -5 5 -6 4 -18 -1 -14 -7 -33 -14 -41 -7 -8 -18 -8 -25 -1 -4 4 -4
7 -4 20 0 19 4 37 10 42 7 5 23 4 29 -2z m-236 -3 c5 -2 10 -8 23 -28 9 -14
23 -34 30 -45 13 -20 13 -21 10 -25 -4 -5 -12 -8 -22 -8 -4 0 -10 -1 -14 -2
-8 -2 -21 -11 -22 -15 0 -1 -1 -4 -2 -7 -1 -3 -3 -12 -3 -20 -2 -22 -5 -24
-28 -24 -10 0 -24 -1 -31 -2 -30 -5 -39 -2 -44 15 -2 6 -5 13 -7 17 -4 8 -4
24 0 33 2 3 7 9 11 13 4 4 12 13 19 21 7 7 14 15 16 18 10 11 17 19 29 33 12
15 25 28 28 28 1 0 4 -1 7 -2z m-1080 -5 c3 -3 3 -3 0 -6 -3 -3 -3 -3 -6 0 -3
2 -3 3 -1 6 4 4 4 4 7 0z m1215 -19 c5 -5 5 -11 0 -16 -10 -10 -27 5 -16 16 4
4 12 4 16 0z m-496 -57 c3 -3 4 -7 4 -14 0 -13 -6 -19 -19 -19 -12 0 -17 4
-21 18 -3 13 -3 15 4 21 5 4 5 4 16 1 6 -1 13 -5 16 -7z m-555 -2 c4 -4 5 -7
5 -13 0 -11 -7 -18 -18 -18 -11 0 -18 7 -18 18 0 11 7 18 18 18 6 0 9 -1 13
-5z m671 -21 c5 -6 5 -12 0 -18 -7 -8 -22 -2 -22 9 0 11 15 17 22 9z m329 -92
c7 -6 7 -19 1 -25 -6 -7 -19 -7 -25 -1 -7 6 -7 19 -1 25 6 7 19 7 25 1z
m-1076 -9 c12 -7 14 -33 3 -43 -9 -10 -33 -9 -41 1 -8 9 -8 31 1 40 7 7 28 8
37 2z m872 -24 c13 -13 0 -35 -21 -37 -12 -2 -15 30 -4 38 7 6 19 5 25 -1z
m509 -46 l-5 -5 -4 4 -5 5 4 4 5 5 4 -4 5 -5 -4 -4z m-221 5 c6 -6 7 -18 2
-23 -5 -6 -12 -11 -10 -7 1 1 0 2 -3 1 -7 -1 -16 8 -16 17 0 14 17 22 27 12z
m-1039 -8 c2 -3 7 -16 10 -29 6 -22 6 -23 3 -28 -4 -6 -5 -6 -30 -9 -23 -3
-36 -3 -41 0 -5 3 -5 6 1 12 9 12 12 16 28 37 18 24 22 27 29 17z m712 -16 c0
-2 -1 -4 -3 -4 -1 0 -3 -1 -4 -2 0 -2 -1 -2 -4 0 -3 3 -3 4 0 11 l3 8 4 -5 c2
-3 4 -7 4 -8z m-179 3 c11 -5 15 -12 15 -24 0 -17 -13 -25 -37 -20 -13 2 -19
10 -19 24 0 10 1 12 6 17 5 5 7 6 16 6 6 0 15 -2 19 -3z m224 -118 c3 -5 3 -5
0 -10 -2 -3 -5 -5 -7 -5 -2 0 -5 2 -7 5 -3 5 -3 5 0 10 2 3 5 5 7 5 2 0 5 -2
7 -5z m-657 -51 c5 -5 5 -15 0 -20 -9 -9 -24 -2 -24 10 0 8 6 14 14 14 3 0 8
-2 10 -4z m-217 -49 c4 -4 5 -7 5 -13 0 -11 -7 -18 -18 -18 -11 0 -18 7 -18
18 0 11 7 18 18 18 6 0 9 -1 13 -5z m256 -35 c10 -9 3 -26 -10 -26 -8 0 -15 7
-15 15 0 13 16 20 25 11z m1026 -150 c7 -6 7 -19 1 -25 -6 -7 -19 -7 -25 -1
-7 6 -7 19 -1 25 6 7 19 7 25 1z m-296 -33 c18 -18 34 -32 38 -34 15 -6 28 -3
44 13 5 6 13 12 17 14 l8 4 4 -4 c2 -3 4 -6 4 -8 1 -8 2 -15 5 -17 9 -9 28
-12 42 -9 25 7 41 1 45 -18 1 -6 1 -11 0 -15 -1 -4 -1 -15 0 -25 1 -29 0 -68
-2 -71 -5 -7 -22 -2 -66 18 -14 6 -32 15 -40 19 -14 8 -16 8 -26 7 -21 -1 -27
-12 -29 -47 -1 -15 0 -24 2 -32 4 -12 5 -14 20 -30 11 -11 14 -21 11 -34 -4
-18 -10 -20 -65 -21 l-41 -1 -6 6 -7 7 -1 148 c0 140 0 149 3 154 5 8 8 11 9
9 0 0 14 -15 31 -33z m-469 -15 c5 -6 5 -12 0 -18 -7 -8 -22 -2 -22 9 0 11 15
17 22 9z m-214 -14 c5 -5 5 -15 0 -20 -9 -9 -24 -2 -24 10 0 8 6 14 14 14 3 0
8 -2 10 -4z m-386 -46 c13 -8 15 -39 3 -62 -2 -3 -3 -6 -4 -6 0 0 -4 3 -8 8
-5 4 -13 11 -18 15 -9 8 -9 9 -9 19 0 14 4 19 16 25 4 2 8 5 8 5 0 2 5 0 12
-4z m795 -23 c7 -7 7 -19 0 -26 -4 -4 -7 -5 -16 -5 -14 1 -18 4 -16 17 1 13 8
19 19 19 6 0 10 -1 13 -5z m667 -7 c1 0 5 -3 8 -6 5 -5 6 -7 6 -17 0 -20 -5
-25 -32 -26 -10 -1 -26 -3 -35 -5 -32 -7 -45 0 -46 24 0 24 8 29 44 28 14 0
29 1 33 2 5 1 9 1 22 0z m-1335 -23 c4 -4 5 -7 5 -15 0 -14 -6 -20 -20 -20
-14 0 -20 6 -20 20 0 14 6 20 20 20 8 0 11 -1 15 -5z m1183 -122 c4 -4 12 -19
12 -25 0 -1 -4 -6 -8 -10 -6 -7 -10 -8 -16 -8 -21 -1 -24 2 -26 21 0 12 0 13
6 19 5 5 7 6 16 6 7 0 13 -1 16 -3z m-55 -73 c4 -4 6 -28 3 -34 -5 -8 -13 -11
-31 -10 -2 0 -6 3 -9 6 -5 5 -6 7 -6 17 0 14 3 20 12 24 8 3 27 1 31 -3z
m-1344 -41 c7 -4 10 -11 10 -23 0 -14 -3 -19 -14 -24 -11 -5 -25 -4 -32 3 -10
8 -11 32 -1 42 7 7 27 8 37 2z m992 0 c3 -3 3 -3 0 -6 -3 -3 -3 -3 -6 0 -3 2
-3 3 -1 6 4 4 4 4 7 0z m187 -67 c17 -4 38 -12 41 -17 2 -2 3 -8 3 -14 0 -21
-16 -25 -45 -11 -26 12 -36 28 -25 39 5 6 11 6 26 3z"/>
<path d="M1568 3754 c-3 0 -29 -10 -59 -21 -30 -12 -60 -24 -67 -26 -26 -10
-34 -19 -35 -39 0 -10 1 -13 14 -35 7 -13 14 -25 15 -27 1 -2 10 -17 20 -34
10 -17 22 -37 27 -44 5 -7 15 -22 22 -34 8 -12 15 -22 16 -24 2 -1 3 -4 4 -6
1 -2 2 -4 3 -4 1 0 2 -2 3 -3 0 -2 4 -7 7 -11 3 -4 7 -9 7 -10 1 -2 2 -4 3 -4
0 0 3 -3 5 -6 8 -14 21 -30 28 -33 10 -5 29 -6 39 -2 13 4 27 3 32 -3 2 -2 3
-5 3 -7 -1 -6 -7 -17 -12 -21 -8 -7 -11 -16 -11 -30 l0 -13 19 -19 c10 -11 25
-27 34 -37 18 -20 66 -68 79 -80 7 -7 9 -7 21 -7 16 0 23 3 30 13 3 5 7 9 8
10 1 2 3 4 4 5 34 44 129 144 137 144 5 0 8 13 8 26 -1 14 -1 15 -7 20 -4 2
-14 8 -23 11 -20 8 -23 11 -33 28 -6 11 -15 21 -40 46 -34 34 -76 79 -93 101
-4 5 -9 11 -11 13 -2 3 -6 7 -9 11 -3 4 -9 12 -14 18 -10 13 -19 25 -29 40 -4
6 -8 11 -9 12 -2 2 -26 39 -34 53 -11 19 -19 22 -52 24 -10 0 -21 2 -24 3 -7
2 -19 4 -26 2z m50 -247 l-5 -5 -4 4 -5 5 4 4 5 5 4 -4 5 -5 -4 -4z m141 -4
c5 -5 5 -6 4 -19 -3 -28 0 -41 11 -53 11 -11 12 -34 2 -43 -8 -9 -32 -9 -40 0
-8 7 -9 27 -3 37 2 2 3 9 3 18 0 12 -1 16 -6 26 -12 23 -6 39 14 39 8 0 11 -1
15 -5z"/>
</g>
</svg>
