<?xml version="1.0" standalone="no"?>
<!DOCTYPE svg PUBLIC "-//W3C//DTD SVG 20010904//EN"
 "http://www.w3.org/TR/2001/REC-SVG-20010904/DTD/svg10.dtd">
<svg version="1.0" xmlns="http://www.w3.org/2000/svg"
 width="1100.000000pt" height="2850.000000pt" viewBox="0 0 1100.000000 2850.000000"
 preserveAspectRatio="xMidYMid meet">
<metadata>
Created by potrace 1.15, written by Peter Selinger 2001-2017
</metadata>
<g transform="translate(0.000000,2850.000000) scale(0.500000,-0.500000)"
fill="#000000" stroke="none">
<path d="M526 3812 c-3 -1 -6 -1 -7 0 0 0 -1 0 -1 -2 0 -1 -1 -2 -3 -2 -4 0
-14 -12 -18 -21 -3 -7 -3 -15 -3 -48 l1 -40 -6 -6 -6 -6 -186 0 c-182 0 -197
0 -197 -3 0 -1 -1 -2 -3 -2 -4 0 -14 -12 -18 -21 -5 -11 -5 -225 0 -236 4 -9
14 -21 18 -21 2 0 3 -1 3 -2 0 -2 10 -3 54 -3 49 0 50 0 73 16 30 20 37 20 60
-1 17 -16 19 -16 114 -16 l82 1 6 -6 6 -6 -1 -22 c0 -16 1 -24 3 -30 4 -9 14
-21 18 -21 2 0 3 -1 3 -2 0 -1 45 -2 132 -2 87 0 132 1 132 2 0 1 1 2 3 2 4 0
14 12 18 21 2 7 3 14 3 30 l-1 22 6 6 6 6 90 0 c84 -1 90 -1 97 3 9 5 12 8 13
15 2 8 6 19 7 19 1 0 5 -11 7 -19 1 -7 4 -10 13 -15 7 -4 12 -4 67 -3 l60 0 6
-6 6 -6 -1 -22 c0 -16 1 -23 3 -30 4 -9 14 -21 18 -21 2 0 3 -1 3 -2 0 -1 7
-2 17 -2 14 -1 15 -1 4 -1 -7 -1 -13 -2 -15 -4 -7 -6 -22 -7 -218 -7 -197 0
-211 1 -218 7 -3 3 -22 3 -126 3 -104 0 -123 0 -126 -3 -6 -6 -22 -7 -111 -7
-50 0 -93 -1 -97 -2 -3 -1 -6 -1 -7 0 0 0 -1 0 -1 -2 0 -1 -1 -2 -3 -2 -4 0
-14 -12 -18 -21 -2 -6 -3 -15 -3 -36 0 -41 3 -48 29 -60 18 -9 21 -12 21 -21
0 -9 -3 -12 -21 -21 -16 -7 -24 -15 -27 -27 -1 -4 -2 -77 -3 -193 0 -102 -1
-190 -2 -196 0 -5 -1 -19 -2 -31 -2 -31 -5 -64 -8 -90 -2 -13 -3 -27 -4 -32
-1 -10 -2 -17 -5 -31 -1 -5 -2 -13 -3 -16 -2 -13 -11 -55 -17 -77 -7 -24 -7
-33 -4 -43 2 -7 16 -21 21 -21 2 0 3 -1 3 -2 0 -1 1 -2 3 -2 4 0 9 -8 9 -14 0
-10 -7 -15 -17 -13 -17 3 -40 0 -42 -6 -1 -2 -2 -3 -4 -3 -2 0 -5 -5 -12 -23
-4 -12 -31 -66 -38 -77 -3 -4 -5 -8 -5 -9 0 -1 -33 -50 -39 -59 -4 -5 -5 -26
-1 -34 1 -3 4 -8 6 -12 5 -10 3 -23 -3 -30 -3 -3 -7 -6 -9 -6 -8 0 -23 -4 -28
-8 -4 -3 -5 -5 -5 -18 l-1 -15 12 -7 c6 -4 13 -9 15 -11 2 -1 17 -12 33 -24
16 -12 29 -22 30 -23 1 -1 7 -5 13 -11 7 -5 14 -10 15 -12 2 -1 7 -5 11 -9 15
-13 40 -35 45 -41 10 -12 29 -16 43 -10 6 2 32 28 48 48 4 5 10 11 12 14 8 10
11 13 21 27 13 17 39 56 46 70 3 5 10 17 15 26 10 17 24 45 34 67 3 7 6 14 7
16 1 1 5 10 8 19 7 16 7 25 1 36 -3 5 -24 18 -30 18 -21 0 -27 41 -8 51 8 5
25 5 32 0 9 -6 34 -3 40 6 2 2 7 6 11 9 l7 5 154 1 154 1 6 -6 6 -6 -1 -176
c0 -157 0 -177 3 -184 4 -9 14 -21 18 -21 2 0 3 -1 3 -2 0 -2 1 -2 26 -3 24
-2 33 0 43 8 6 5 18 25 20 36 2 9 10 13 24 13 14 0 22 -4 24 -13 2 -11 14 -31
20 -36 11 -8 19 -9 57 -8 39 1 40 1 40 3 0 1 1 2 3 2 4 0 14 12 18 21 5 11 4
92 0 106 -2 5 -4 11 -5 12 -1 1 -4 5 -8 9 -16 20 -16 32 0 52 4 4 7 8 8 9 1 1
3 7 5 12 3 9 3 20 3 85 l-1 75 6 6 6 6 45 -1 c40 0 45 0 52 4 10 5 11 7 17 22
4 13 4 13 1 19 -2 2 -4 9 -5 14 0 8 1 10 6 9 0 0 1 1 1 2 0 3 7 2 17 -2 6 -3
11 -5 11 -4 5 1 10 -10 11 -22 1 -18 8 -32 18 -37 11 -6 49 -7 82 -1 14 2 24
3 30 2 4 -1 8 -1 9 -1 1 1 5 -4 9 -11 5 -9 4 -105 -1 -115 -6 -12 -4 -12 -128
-12 -104 0 -114 0 -119 -4 -14 -7 -18 -25 -9 -44 10 -21 38 -91 42 -104 1 -3
3 -10 5 -15 4 -12 8 -24 17 -60 4 -17 9 -34 10 -37 4 -10 14 -19 26 -24 l11
-6 54 2 c110 2 138 6 151 20 6 7 12 25 11 34 -1 9 7 13 25 13 7 0 13 -4 22
-17 6 -9 16 -15 28 -16 4 -1 7 -2 8 -2 0 -1 7 2 38 16 52 24 95 74 113 133 6
20 6 19 9 40 5 34 6 52 5 167 0 145 4 128 -34 160 -10 8 -10 34 0 42 22 18 26
22 30 31 l4 9 1 374 c0 337 0 375 -3 382 -4 9 -14 21 -18 21 -2 0 -3 1 -3 2 0
2 -1 2 -1 2 -1 -1 -4 -1 -7 0 -4 1 -67 2 -141 2 -133 0 -148 1 -155 7 -3 2
-16 3 -75 4 l-72 0 77 1 c49 0 76 1 76 2 0 1 1 2 3 2 4 0 14 12 18 21 2 6 3
14 3 30 l-1 22 6 6 6 6 134 -1 c88 0 136 1 141 2 15 4 24 17 27 39 3 23 7 27
26 27 19 0 23 -4 26 -28 3 -18 9 -30 20 -35 5 -3 21 -3 21 -1 0 1 1 2 3 2 4 0
14 12 18 21 3 6 3 21 3 112 0 114 0 113 -11 125 -11 12 -61 27 -74 22 -7 -2
-23 -14 -23 -18 0 0 -3 -5 -8 -10 -10 -11 -16 -11 -26 0 -5 5 -8 10 -8 10 0 1
-3 5 -7 9 -15 14 -11 13 -143 13 l-119 -1 -6 6 -6 6 1 34 c0 54 -8 70 -42 79
-7 2 -39 2 -125 1 -120 0 -121 -1 -121 -3 0 -1 -1 -2 -3 -2 -4 0 -14 -12 -18
-21 -3 -7 -3 -15 -3 -48 l1 -40 -6 -6 -6 -6 -177 0 -177 0 -6 6 -6 6 1 40 c0
33 0 41 -3 48 -4 9 -14 21 -18 21 -2 0 -3 1 -3 2 0 1 -1 2 -2 2 -7 1 -250 2
-254 0z m855 -45 c5 -8 1 -16 -8 -16 -9 0 -13 8 -8 16 2 3 5 5 8 5 3 0 6 -2 8
-5z m-741 -93 c5 -5 6 -7 6 -17 0 -16 -7 -23 -23 -23 -16 0 -23 7 -23 23 0 16
7 23 23 23 10 0 12 -1 17 -6z m-28 -98 c5 -5 6 -7 6 -19 0 -22 -5 -44 -10 -49
-6 -5 -7 -5 -11 -1 -1 2 -3 3 -4 3 -1 0 -6 8 -11 18 -12 23 -13 39 -4 48 8 9
25 9 34 0z m237 -86 c7 -6 7 -19 1 -25 -6 -7 -19 -7 -25 -1 -7 6 -7 19 -1 25
6 7 19 7 25 1z m178 -45 c4 -4 2 -7 -3 -7 -5 0 -7 3 -4 7 4 4 4 4 7 0z m298
-142 c4 -1 7 -3 6 -3 -1 -1 31 -1 71 -2 l73 -1 -74 -1 -74 0 -9 -6 c-6 -5 -10
-10 -16 -23 -9 -18 -12 -21 -24 -21 -12 0 -15 3 -24 21 -11 23 -19 29 -39 29
l-14 1 13 0 c7 1 12 2 11 3 -1 1 -1 2 0 2 1 0 7 1 12 3 14 4 77 3 88 -2z
m-543 -6 c3 0 -35 -1 -84 -1 -92 0 -90 0 -102 -8 0 0 -1 -6 0 -14 0 -14 0 -14
-5 -14 -5 0 -5 0 -5 14 1 8 0 14 0 14 -11 7 -14 8 -43 8 l-30 1 32 1 c32 1
227 0 237 -1z m-182 -44 c3 -6 -2 -15 -9 -15 -7 0 -12 9 -9 15 1 4 3 5 9 5 6
0 8 -1 9 -5z m1063 -47 c28 -10 35 -15 35 -26 0 -6 -1 -10 -4 -13 -4 -5 -6 -5
-30 -5 -52 1 -57 3 -57 27 0 14 0 16 6 20 8 8 23 7 50 -3z m-918 -31 c3 -5 3
-5 0 -10 -2 -3 -5 -5 -7 -5 -2 0 -5 2 -7 5 -3 5 -3 5 0 10 2 3 5 5 7 5 2 0 5
-2 7 -5z m104 -92 c6 -5 7 -18 3 -28 -4 -8 -4 -19 -1 -19 2 0 3 -1 3 -2 -1 -2
7 -6 17 -10 21 -9 25 -13 25 -27 0 -14 -3 -19 -18 -31 -6 -5 -11 -9 -11 -10 1
0 -3 -3 -9 -5 -5 -3 -10 -6 -11 -7 -1 -1 -3 -2 -5 -2 -4 0 -14 -5 -16 -8 -1
-1 -1 -8 0 -15 l0 -13 -8 0 -8 0 0 13 c1 17 1 16 -7 20 -7 4 -16 4 -103 4
l-95 0 -6 6 c-6 6 -6 7 -6 28 0 21 0 22 6 28 l6 6 78 0 78 0 17 9 c21 10 38
25 37 33 0 3 -1 5 -1 5 -1 0 0 2 1 6 2 3 3 7 3 10 0 7 9 14 18 14 6 0 9 -1 13
-5z m622 -78 c6 -6 6 -7 6 -28 0 -21 0 -22 -6 -28 l-6 -6 -148 0 -148 0 -6 6
c-6 6 -6 7 -6 28 0 21 0 22 6 28 l6 6 148 0 148 0 6 -6z m120 -72 c6 -4 6 -6
6 -20 0 -14 0 -16 -6 -20 -4 -4 -7 -5 -18 -5 -11 0 -14 1 -18 5 -6 4 -6 6 -6
20 0 14 0 16 6 20 4 4 7 5 18 5 11 0 14 -1 18 -5z m-761 -33 c5 -10 -1 -22
-12 -22 -11 0 -17 12 -12 22 2 3 4 4 12 4 8 0 10 -1 12 -4z m333 -3 c3 -3 3
-3 0 -6 -4 -5 -11 1 -7 6 4 4 4 4 7 0z m-206 -77 c10 -9 3 -26 -10 -26 -8 0
-15 7 -15 15 0 13 16 20 25 11z m-305 -12 c5 -5 5 -11 0 -16 -10 -10 -27 5
-16 16 4 4 12 4 16 0z m892 -122 c5 -6 5 -12 0 -18 -7 -8 -22 -2 -22 9 0 11
15 17 22 9z m-687 -57 c0 -21 0 -22 -6 -28 l-6 -6 -127 1 c-70 1 -128 2 -129
3 -2 1 -5 2 -7 2 -20 4 -36 7 -42 8 -10 0 -14 8 -9 16 3 5 12 7 13 3 1 -1 6 0
15 2 11 3 15 5 21 11 4 6 5 8 4 9 -2 2 -2 2 0 2 2 0 5 2 8 5 l5 5 124 0 124 1
6 -6 c6 -6 6 -6 6 -28z m614 28 c6 -6 6 -7 6 -28 0 -21 0 -22 -6 -28 l-6 -6
-148 0 -148 0 -6 6 c-6 6 -6 7 -6 28 0 21 0 22 6 28 l6 6 148 0 148 0 6 -6z
m178 0 c6 -6 6 -10 0 -16 -13 -12 -30 3 -19 17 4 5 12 5 19 -1z m67 -7 c9 -9
2 -24 -10 -24 -7 0 -16 8 -16 13 0 12 18 19 26 11z m7 -108 c10 -9 3 -26 -10
-26 -8 0 -15 7 -15 15 0 13 16 20 25 11z m-1258 -91 c3 -5 3 -5 0 -10 -2 -3
-5 -5 -7 -5 -2 0 -5 2 -7 5 -3 5 -3 5 0 10 2 3 5 5 7 5 2 0 5 -2 7 -5z m804
-13 c4 -1 9 -4 11 -7 6 -8 4 -50 -3 -49 -1 1 -5 0 -9 -1 -4 -1 -7 -1 -9 1 -1
1 -8 3 -14 5 -17 4 -20 8 -20 26 0 13 1 16 4 19 7 7 26 10 40 6z m124 -383 c6
-4 6 -6 6 -20 0 -14 0 -16 -6 -20 -4 -4 -7 -5 -18 -5 -11 0 -14 1 -18 5 -6 4
-6 6 -6 20 0 14 0 16 6 20 4 4 7 5 18 5 11 0 14 -1 18 -5z m120 -89 c-3 -6 -7
-7 -12 -2 l-5 5 4 4 5 5 5 -4 c5 -4 6 -5 3 -8z"/>
</g>
</svg>
