<?xml version="1.0" standalone="no"?>
<!DOCTYPE svg PUBLIC "-//W3C//DTD SVG 20010904//EN"
 "http://www.w3.org/TR/2001/REC-SVG-20010904/DTD/svg10.dtd">
<svg version="1.0" xmlns="http://www.w3.org/2000/svg"
 width="1000.000000pt" height="2850.000000pt" viewBox="0 0 1000.000000 2850.000000"
 preserveAspectRatio="xMidYMid meet">
<metadata>
Created by potrace 1.15, written by Peter Selinger 2001-2017
</metadata>
<g transform="translate(0.000000,2850.000000) scale(0.500000,-0.500000)"
fill="#000000" stroke="none">
<path d="M544 3812 c-3 -1 -6 -1 -7 0 0 0 -1 0 -1 -2 0 -1 -1 -2 -3 -2 -4 0
-14 -12 -18 -21 -3 -7 -3 -16 -3 -53 l1 -45 -6 -6 -6 -6 -149 1 c-101 0 -152
0 -159 -2 -12 -3 -19 -9 -25 -24 -4 -10 -5 -13 -6 -24 0 -6 -10 -16 -17 -16
-7 0 -29 -11 -34 -16 -10 -11 -11 -18 -11 -88 0 -55 0 -67 3 -73 4 -9 14 -21
18 -21 2 0 3 -1 3 -2 0 -3 15 -3 194 -3 l183 0 6 -6 6 -6 -1 -40 c0 -33 0 -41
3 -48 4 -9 14 -21 18 -21 2 0 3 -1 3 -2 0 -2 1 -2 1 -2 1 1 4 1 7 0 4 -1 42
-2 86 -2 80 0 82 0 90 -8 4 -4 4 -4 0 -5 -1 -1 -6 -4 -10 -8 -4 -3 -10 -8 -13
-10 -9 -7 -15 -12 -20 -16 -2 -2 -6 -5 -9 -7 -3 -2 -12 -10 -21 -16 -51 -39
-122 -88 -165 -114 -23 -14 -24 -14 -33 -20 -4 -3 -9 -6 -11 -7 -2 0 -6 -3 -9
-5 -3 -2 -7 -5 -9 -5 -2 -1 -7 -4 -13 -8 -24 -14 -49 -25 -93 -40 -11 -4 -21
-15 -24 -28 -2 -10 -2 -12 6 -33 4 -12 8 -22 8 -23 0 -1 2 -4 5 -7 4 -4 8 -5
19 -5 15 -1 15 -1 20 7 8 9 15 13 27 13 19 0 28 -10 28 -29 -1 -21 -13 -29
-39 -26 -13 1 -22 -1 -28 -9 -6 -9 -5 -22 5 -56 5 -16 10 -34 11 -38 7 -29 28
-39 59 -31 19 5 54 12 72 15 4 1 10 2 13 2 3 1 26 4 51 7 49 6 58 8 70 20 11
10 20 22 18 24 0 1 -1 5 -2 11 -1 11 -4 16 -15 28 -5 5 -11 13 -16 18 -4 6 -8
12 -10 14 -13 12 -15 27 -9 47 4 11 3 30 -2 44 -1 4 -4 13 -5 21 -1 7 -4 16
-6 20 -2 3 -5 10 -7 15 -3 10 -3 10 0 15 2 3 5 5 6 5 5 0 13 -9 15 -16 1 -4 7
-13 14 -20 15 -17 16 -19 16 -37 0 -17 4 -31 11 -40 5 -7 11 -20 22 -47 7 -17
7 -18 6 -36 -2 -23 0 -29 14 -42 7 -7 9 -7 20 -8 13 0 24 3 30 9 4 5 10 29 12
46 2 17 8 24 23 24 13 0 22 -8 22 -19 1 -14 0 -16 -9 -25 -5 -6 -11 -12 -13
-15 -5 -8 -8 -12 -17 -21 -7 -7 -9 -9 -16 -8 -4 0 -8 -1 -9 -2 0 -1 -4 -4 -7
-6 -3 -2 -7 -4 -8 -5 -1 -1 -4 -4 -6 -6 -5 -3 -28 -15 -58 -29 -9 -4 -33 -16
-53 -25 -20 -10 -40 -19 -43 -21 -16 -8 -40 -18 -55 -25 -39 -17 -73 -33 -80
-35 -18 -8 -17 -7 -18 -24 0 -15 0 -17 6 -25 8 -10 8 -19 1 -26 -5 -5 -9 -5
-34 1 -11 3 -15 3 -25 1 -26 -6 -30 -5 -44 8 -8 7 -20 13 -30 15 -5 1 -9 0
-17 -5 -12 -7 -16 -12 -19 -25 -2 -9 -1 -13 3 -24 3 -8 6 -17 7 -20 12 -34 39
-123 48 -157 11 -39 27 -48 66 -37 22 6 18 5 53 12 29 5 61 11 75 12 5 1 19 3
31 4 12 2 26 3 30 4 4 1 12 1 16 2 9 1 135 14 154 16 7 0 27 2 45 4 18 2 37 3
41 4 4 0 15 1 23 2 8 1 19 1 24 2 5 0 15 1 22 2 7 1 18 2 24 2 24 2 32 3 48 4
9 1 19 2 22 2 3 0 15 1 28 2 21 1 24 1 29 -3 l6 -4 -12 -5 c-51 -23 -134 -55
-157 -62 -21 -6 -34 -21 -34 -38 0 -8 1 -9 9 -16 4 -4 12 -9 17 -11 14 -7 20
-13 20 -22 0 -17 -22 -22 -34 -8 -5 5 -20 15 -34 22 -11 5 -18 9 -20 13 -1 3
-3 5 -4 5 -1 0 -2 1 -2 3 0 3 -13 11 -24 13 -8 2 -11 2 -27 -3 -28 -7 -112
-29 -129 -32 -3 -1 -19 -4 -36 -8 -39 -8 -87 -18 -123 -24 -2 0 -12 -2 -22 -4
-10 -2 -20 -3 -22 -4 -2 0 -8 -1 -14 -2 -5 -1 -11 -2 -13 -2 -2 0 -7 -1 -12
-2 -5 -1 -12 -1 -14 -2 -3 0 -9 -1 -15 -2 -5 -1 -10 -2 -11 -2 -1 0 -8 -1 -17
-2 -26 -2 -42 -11 -58 -34 -7 -9 -11 -11 -22 -11 -9 0 -11 0 -32 16 -13 10
-26 12 -52 9 -36 -4 -42 -9 -43 -33 -1 -8 0 -11 8 -23 11 -17 35 -55 41 -65
28 -48 47 -86 67 -128 10 -23 18 -31 37 -35 8 -2 13 -2 26 0 9 2 28 5 43 7 38
6 47 11 54 33 2 7 4 14 4 15 -1 8 1 15 6 20 5 5 7 6 16 6 14 0 19 -3 26 -18 8
-15 17 -25 24 -27 10 -3 13 -3 15 -3 3 -1 71 13 117 23 23 5 45 10 49 11 4 1
26 6 48 12 22 6 41 10 43 11 45 11 119 33 166 48 29 10 40 17 42 27 1 5 1 22
0 41 -1 18 8 28 27 28 12 0 21 -4 25 -13 2 -4 6 -11 8 -15 9 -17 28 -22 51
-13 21 8 21 9 22 28 0 13 -1 16 -6 23 -7 11 -7 21 0 28 6 6 2 6 45 1 15 -2 24
-4 31 -8 5 -3 13 -7 18 -9 15 -9 19 -8 74 21 42 22 69 36 95 52 3 2 13 7 21
12 16 10 72 46 76 50 1 1 4 2 6 4 3 1 6 3 7 5 2 1 8 6 14 10 6 4 15 10 20 14
5 4 13 10 18 13 5 4 11 8 13 10 2 2 15 12 28 23 62 50 123 110 173 168 16 19
30 35 34 41 3 4 6 8 7 9 4 4 45 59 47 63 1 2 6 9 10 15 7 9 11 20 15 40 1 6 7
17 9 16 0 0 5 1 10 4 6 3 10 7 16 18 9 15 9 15 6 39 -1 4 -15 15 -24 19 -22 8
-53 18 -95 33 -9 3 -26 10 -39 14 -13 5 -24 9 -26 9 -2 1 -9 3 -17 6 -8 3 -15
6 -17 6 -2 0 -10 4 -19 7 -35 13 -53 6 -71 -30 -4 -9 -12 -22 -16 -28 -4 -7
-12 -20 -17 -28 -5 -9 -10 -17 -11 -18 -2 -2 -7 -9 -12 -16 -5 -7 -12 -17 -16
-22 -4 -5 -9 -12 -12 -16 -3 -4 -7 -8 -9 -11 -2 -2 -6 -7 -9 -11 -10 -13 -23
-17 -62 -19 -14 -1 -29 -2 -34 -2 -5 0 -19 -1 -31 -2 -25 -1 -46 -3 -65 -4 -7
-1 -22 -2 -32 -2 -19 -1 -29 -4 -45 -11 -18 -8 -25 -9 -42 -4 -29 8 -31 8 -45
7 -21 -2 -41 -2 -46 0 -5 1 -11 7 -10 8 1 0 10 5 22 11 12 5 28 14 37 19 36
19 71 38 81 44 15 9 37 22 47 27 4 2 11 6 15 9 4 2 9 5 12 7 11 6 45 27 52 31
4 2 14 9 23 14 22 14 138 89 146 96 4 2 62 43 65 45 2 1 3 6 4 14 1 15 -3 24
-14 30 -12 7 -14 15 -15 39 0 32 1 31 -68 89 -32 28 -61 52 -65 53 -8 4 -26 2
-33 -2 -2 -1 -11 -8 -19 -15 -23 -19 -23 -19 -31 -25 -4 -3 -8 -6 -9 -7 -1 -1
-5 -4 -9 -7 -4 -3 -8 -6 -9 -7 -1 -1 -6 -5 -11 -9 -12 -8 -13 -9 -13 -26 -1
-11 0 -14 6 -23 11 -19 6 -34 -12 -34 -8 0 -14 4 -21 15 -8 11 -31 18 -50 15
-4 -1 -19 -2 -33 -3 -14 -1 -30 -2 -36 -2 -6 0 -21 -1 -34 -2 -13 -1 -28 -2
-35 -2 -7 0 -23 -1 -36 -2 -13 -1 -27 -2 -30 -2 -3 0 -14 -1 -24 -1 -17 0 -19
0 -24 4 l-5 5 9 5 c4 2 8 5 9 6 1 1 7 5 14 10 7 5 13 9 14 10 1 1 6 5 12 9 6
4 15 10 20 14 5 4 13 9 17 12 4 3 8 6 9 7 1 1 5 4 9 7 4 3 9 7 10 8 1 1 5 4 8
6 9 6 49 39 52 42 2 2 5 4 7 5 6 3 12 17 12 26 0 13 -4 19 -24 34 -4 3 -8 6
-9 7 -1 1 -6 5 -10 8 -4 3 -9 7 -11 8 -5 4 -53 42 -59 46 -3 2 -7 5 -8 6 -1 1
-6 5 -10 8 -4 3 -9 7 -10 8 -1 1 -5 4 -9 7 -4 3 -13 10 -21 16 -23 19 -26 20
-41 20 -14 0 -23 -4 -29 -12 l-4 -5 -4 5 c-3 2 -5 5 -5 7 0 1 -1 3 -2 4 -1 2
10 14 14 14 1 0 4 1 6 1 2 0 4 1 4 3 0 1 1 4 3 6 2 2 4 8 5 14 1 6 2 12 3 13
0 1 0 2 -2 3 -5 2 -4 17 2 23 6 6 19 6 25 -1 5 -5 6 -20 1 -22 -2 -1 -2 -2 -2
-3 1 -1 2 -7 3 -13 2 -13 7 -20 18 -23 5 -1 49 -2 127 -2 l120 1 6 -6 6 -6 -1
-40 c0 -33 0 -41 3 -48 4 -9 14 -21 18 -21 2 0 3 -1 3 -2 0 -1 1 -2 3 -2 1 0
59 -1 128 -1 139 -1 138 -1 151 12 11 11 12 20 12 64 l-1 38 6 6 c6 6 7 6 21
6 24 0 32 6 48 35 6 11 11 14 23 14 12 0 17 -3 23 -14 10 -19 14 -23 23 -29
l10 -6 35 -1 c43 0 50 2 58 17 3 4 5 8 4 8 0 0 1 3 2 6 1 3 3 8 3 11 1 16 23
16 24 0 0 -3 2 -8 3 -11 1 -3 2 -6 2 -7 0 -1 2 -4 5 -8 7 -14 15 -16 54 -16
47 0 51 2 51 27 1 10 0 14 -3 17 -3 3 -4 10 -3 21 0 5 7 12 21 24 17 14 18 17
19 86 0 51 0 61 -3 68 -4 9 -14 21 -18 21 -2 0 -3 1 -3 2 0 2 -2 2 -95 3 -88
1 -107 0 -107 -5 0 -1 -1 -2 -3 -2 -2 0 -11 -8 -11 -11 0 -1 -1 -2 -2 -4 -10
-12 -15 -17 -18 -17 -4 0 -14 10 -14 14 0 3 -35 3 -38 -1 -1 -1 -3 -7 -5 -12
-2 -6 -5 -12 -7 -14 -6 -5 -19 -7 -28 -5 -9 2 -11 3 -36 31 -10 12 -25 22 -28
20 -1 -1 -2 0 -2 1 0 1 -2 6 -5 10 -5 7 -5 7 -5 52 0 37 -1 47 -3 53 -4 9 -14
21 -18 21 -2 0 -3 1 -3 2 0 3 -13 3 -135 3 -122 0 -135 0 -135 -3 0 -1 -1 -2
-3 -2 -4 0 -14 -12 -18 -21 -3 -7 -3 -16 -3 -53 l1 -45 -6 -6 -6 -6 -158 0
-158 0 -6 6 -6 6 1 45 c0 37 0 46 -3 53 -4 9 -14 21 -18 21 -2 0 -3 1 -3 2 0
1 -1 2 -2 2 -7 1 -254 2 -258 0z m867 -178 c5 -5 6 -7 6 -16 0 -9 -1 -11 -7
-16 -5 -6 -7 -7 -16 -7 -9 0 -11 1 -16 7 -9 8 -9 23 -1 32 9 9 24 9 34 0z
m-1021 -8 c12 -10 18 -13 28 -18 7 -4 18 -14 18 -18 0 0 -2 -3 -4 -5 -3 -4 -4
-5 -16 -3 -7 1 -22 2 -33 3 -11 1 -24 3 -29 4 -5 2 -16 4 -24 6 -9 2 -17 5
-20 8 l-4 4 5 5 c3 3 7 6 9 6 2 0 12 3 22 7 26 9 37 9 48 1z m355 -5 c3 -5 3
-5 0 -10 -2 -3 -5 -5 -7 -5 -2 0 -5 2 -7 5 -3 5 -3 5 0 10 2 3 5 5 7 5 2 0 5
-2 7 -5z m348 -52 c4 -4 5 -7 5 -13 0 -11 -7 -18 -18 -18 -11 0 -18 7 -18 18
0 11 7 18 18 18 6 0 9 -1 13 -5z m522 -10 c4 -4 5 -7 5 -13 0 -11 -7 -18 -18
-18 -11 0 -18 7 -18 18 0 11 7 18 18 18 6 0 9 -1 13 -5z m-997 -23 c5 -6 5
-12 0 -18 -7 -8 -22 -2 -22 9 0 11 15 17 22 9z m657 -27 c6 -4 6 -6 6 -20 0
-21 -2 -24 -22 -25 -13 0 -15 0 -20 5 -6 4 -6 6 -6 20 0 14 0 16 6 20 4 4 7 5
18 5 11 0 14 -1 18 -5z m227 -7 c9 -5 13 -11 13 -23 -1 -20 -19 -27 -41 -17
-15 6 -22 24 -16 36 5 10 28 12 44 4z m-1116 -9 c3 -3 4 -7 4 -14 0 -13 -6
-19 -19 -19 -13 0 -19 6 -19 19 0 7 1 11 4 14 7 8 23 8 30 0z m957 -55 c5 -5
6 -7 6 -16 0 -9 -1 -11 -7 -16 -5 -6 -7 -7 -16 -7 -9 0 -11 1 -16 7 -6 5 -7 7
-7 16 0 12 4 19 13 21 11 3 20 2 27 -5z m-714 -37 c5 -5 5 -6 5 -19 -2 -27
-14 -42 -34 -42 -9 0 -11 1 -16 6 -12 12 -6 41 12 54 12 8 26 8 33 1z m290
-148 c5 -8 1 -16 -8 -16 -9 0 -13 8 -8 16 2 3 5 5 8 5 3 0 6 -2 8 -5z m-174
-64 c5 -8 1 -16 -8 -16 -9 0 -13 8 -8 16 2 3 5 5 8 5 3 0 6 -2 8 -5z m-77
-105 c8 -1 26 -3 39 -5 46 -5 51 -8 51 -28 0 -10 -1 -12 -6 -17 -10 -11 -26
-8 -60 9 -8 4 -22 10 -30 12 -18 6 -22 9 -26 16 -2 4 -2 5 1 10 4 6 7 6 31 3z
m674 -38 c5 -5 5 -15 0 -20 -9 -9 -24 -2 -24 10 0 8 6 14 14 14 3 0 8 -2 10
-4z m-148 -52 c9 -5 13 -13 13 -26 -1 -18 -10 -27 -28 -27 -19 0 -28 9 -28 28
0 8 5 23 8 23 0 0 4 1 8 3 11 4 18 4 27 -1z m-690 -56 c5 -6 5 -7 -2 -33 -4
-12 -7 -29 -7 -37 -2 -27 -7 -38 -19 -38 -8 0 -13 6 -16 19 -4 18 -1 34 8 54
4 9 9 19 11 24 2 4 5 9 7 11 4 5 14 5 18 0z m419 -7 c4 -4 5 -7 5 -15 0 -14
-6 -20 -20 -20 -14 0 -20 6 -20 20 0 14 6 20 20 20 8 0 11 -1 15 -5z m169 -16
c3 -3 4 -7 4 -14 0 -13 -6 -19 -19 -19 -13 0 -19 6 -19 19 0 7 1 11 4 14 7 8
23 8 30 0z m677 -165 c2 -1 5 -8 7 -16 l5 -13 -9 -9 c-5 -4 -10 -8 -12 -8 -2
0 -10 -6 -19 -14 -10 -9 -18 -14 -21 -14 -17 -1 -24 4 -24 19 0 10 1 12 29 42
10 11 16 16 21 17 8 1 19 0 23 -4z m-884 0 c7 -3 12 -13 12 -25 0 -19 -9 -28
-28 -28 -19 0 -28 9 -28 28 0 17 6 24 22 28 5 1 14 -1 22 -3z m677 -97 c16 -7
20 -37 7 -48 -12 -11 -34 -11 -43 0 -9 10 -9 32 0 42 7 8 24 11 36 6z m-501
-140 c8 -8 7 -23 -1 -31 -7 -7 -13 -7 -23 -3 -8 3 -11 8 -11 20 0 13 6 19 20
19 8 0 11 -1 15 -5z m-488 -16 c9 -10 13 -45 5 -53 -4 -4 -11 -5 -19 -2 -3 1
-8 3 -11 3 -7 2 -7 1 -3 15 3 13 5 22 5 29 0 12 14 17 23 8z m394 -12 c5 -8 1
-16 -8 -16 -9 0 -13 8 -8 16 2 3 5 5 8 5 3 0 6 -2 8 -5z m-614 -16 c4 -4 5 -7
5 -13 0 -11 -7 -18 -18 -18 -11 0 -18 7 -18 18 0 11 7 18 18 18 6 0 9 -1 13
-5z m156 -15 c6 -3 10 -5 11 -5 1 1 3 -1 6 -3 4 -3 4 -4 1 -10 -12 -28 -19
-34 -36 -35 -21 -1 -35 16 -29 38 5 20 24 26 47 15z m698 -2 c1 -1 4 -6 6 -12
6 -20 11 -28 24 -41 13 -14 14 -15 13 -29 0 -17 -25 -26 -38 -13 -3 3 -6 7 -6
9 0 5 -8 27 -12 32 -2 3 -8 10 -14 15 -10 10 -10 11 -10 21 0 14 4 20 14 22 8
1 19 0 23 -4z m-132 -18 c6 -6 6 -10 0 -17 -7 -7 -22 -7 -28 -1 -4 4 -4 4 4
11 4 4 9 8 10 9 3 3 10 2 14 -2z m-75 -183 c3 -3 4 -7 4 -14 0 -13 -6 -19 -19
-19 -13 0 -19 6 -19 19 0 7 1 11 4 14 7 8 23 8 30 0z m-403 -60 c12 -7 14 -33
3 -43 -8 -9 -32 -9 -40 0 -9 8 -9 32 0 41 7 7 27 8 37 2z m93 -52 l-5 -5 -4 4
-5 5 4 4 5 5 4 -4 5 -5 -4 -4z m-237 -40 c6 -4 6 -6 6 -20 0 -14 0 -16 -6 -20
-4 -4 -7 -5 -18 -5 -11 0 -14 1 -18 5 -6 4 -6 6 -6 20 0 14 0 16 6 20 4 4 7 5
18 5 11 0 14 -1 18 -5z m-239 -10 c10 -9 10 -33 1 -42 -6 -6 -18 -7 -26 -1
-10 8 -10 33 -1 44 7 6 19 6 26 -1z"/>
<path d="M859 3400 c-1 -1 6 -2 14 -2 10 0 15 1 13 2 -4 2 -26 2 -27 0z"/>
</g>
</svg>
