<?xml version="1.0" standalone="no"?>
<!DOCTYPE svg PUBLIC "-//W3C//DTD SVG 20010904//EN"
 "http://www.w3.org/TR/2001/REC-SVG-20010904/DTD/svg10.dtd">
<svg version="1.0" xmlns="http://www.w3.org/2000/svg"
 width="1100.000000pt" height="2850.000000pt" viewBox="0 0 1100.000000 2850.000000"
 preserveAspectRatio="xMidYMid meet">
<metadata>
Created by potrace 1.15, written by Peter Selinger 2001-2017
</metadata>
<g transform="translate(0.000000,2850.000000) scale(0.500000,-0.500000)"
fill="#000000" stroke="none">
<path d="M1216 3742 c-3 -1 -6 -1 -7 0 0 0 -1 0 -1 -2 0 -1 -1 -2 -3 -2 -4 0
-14 -12 -18 -22 -3 -6 -3 -11 -2 -22 1 -14 2 -54 1 -75 -1 -7 0 -19 1 -28 2
-13 2 -21 0 -33 -1 -11 -2 -43 -2 -92 l0 -75 5 -11 c3 -6 7 -13 10 -15 16 -18
16 -40 0 -58 -12 -12 -16 -29 -11 -51 4 -19 4 -23 -1 -46 -4 -18 -4 -26 -4
-222 l0 -202 5 -11 c6 -11 9 -14 25 -24 12 -9 14 -12 14 -24 0 -12 -2 -15 -14
-24 -16 -10 -19 -13 -25 -24 -5 -10 -5 -12 -5 -50 0 -31 1 -40 3 -46 4 -9 14
-21 18 -21 2 0 3 -1 3 -2 0 -1 1 -2 2 -2 5 2 20 -3 24 -8 5 -5 5 -6 4 -20 -1
-8 -2 -23 -3 -32 0 -9 -2 -29 -4 -45 -5 -40 -1 -50 25 -64 15 -8 18 -11 18
-22 0 -10 -7 -17 -18 -17 -28 0 -46 -12 -52 -35 -5 -19 -21 -55 -38 -87 l-5
-9 -6 7 -5 6 0 195 c0 133 -1 197 -2 202 -3 10 -9 19 -23 32 -10 9 -11 11 -12
21 -3 22 2 38 18 56 21 25 19 -16 19 383 0 336 0 349 -4 359 -5 17 -9 24 -19
33 -22 22 -22 37 1 65 22 28 22 49 2 66 -12 10 -16 18 -16 30 0 12 5 22 14 27
3 2 4 3 2 3 -2 0 -2 3 -1 14 1 16 -2 21 -13 23 -4 1 -43 1 -86 1 l-79 -1 -10
-6 c-8 -5 -11 -9 -18 -22 -11 -20 -14 -23 -28 -23 -5 0 -14 -1 -18 -2 -4 -1
-10 -3 -12 -3 -3 -1 -9 -4 -22 -13 -5 -3 -9 -6 -11 -6 -17 -2 -26 5 -26 19 0
11 3 17 8 17 2 0 2 1 1 2 -2 1 -3 6 -3 12 0 14 -3 19 -13 23 -11 4 -38 3 -44
-2 -1 -1 -5 -3 -8 -5 -4 -2 -10 -9 -14 -15 -10 -16 -15 -20 -27 -20 -14 0 -17
3 -33 29 -2 2 -5 3 -17 2 l-15 0 -5 -10 c-4 -9 -4 -13 -4 -46 0 -38 1 -44 13
-68 7 -14 7 -24 0 -38 -14 -28 -13 -4 -13 -286 0 -231 0 -256 3 -263 4 -9 14
-21 18 -21 2 0 3 -1 3 -2 0 -3 12 -3 125 -3 l114 0 6 -6 6 -6 -1 -112 c0 -118
0 -124 9 -132 8 -7 23 -12 40 -13 4 0 7 -3 22 -20 7 -7 12 -11 18 -12 4 -1 10
-3 11 -4 2 -1 7 -2 10 -2 10 0 16 -8 16 -21 0 -17 -7 -23 -26 -21 -8 1 -12 3
-17 13 -3 4 -9 11 -13 15 -6 6 -8 7 -18 7 -6 0 -11 0 -12 -1 -1 -1 -5 -3 -9
-5 -8 -3 -12 -7 -21 -17 -4 -6 -9 -22 -10 -32 -1 -20 8 -36 28 -48 12 -7 21
-8 62 -6 9 0 11 0 16 -6 6 -5 7 -7 7 -16 0 -19 -13 -26 -36 -21 -26 7 -48 2
-63 -13 -11 -12 -14 -22 -14 -59 0 -33 1 -40 10 -49 6 -6 8 -7 20 -7 4 0 8 -1
8 -2 0 -2 15 17 19 24 1 4 5 12 7 18 5 13 12 18 27 18 19 0 28 -10 28 -29 -1
-11 -5 -21 -11 -23 -2 -1 -4 -2 -4 -3 0 -1 -1 -2 -3 -2 -1 0 -7 -4 -12 -8 -8
-9 -12 -13 -21 -30 -5 -10 -9 -13 -22 -14 -14 -2 -22 -4 -26 -6 -2 -1 -4 -2
-4 -1 0 1 -2 -1 -5 -4 -11 -11 -11 -14 -11 -86 l0 -67 -6 -6 c-8 -8 -25 -9
-33 -1 -3 3 -8 5 -10 5 -3 0 -3 1 -2 2 5 2 -7 7 -20 8 -9 0 -12 -1 -16 -4 -9
-7 -26 -6 -33 2 -5 5 -6 7 -6 17 0 16 7 23 23 23 11 0 21 -5 21 -11 0 -3 30 0
33 3 5 6 7 18 7 48 0 32 -1 37 -11 62 -5 12 -5 14 -4 33 2 25 0 30 -14 36 -7
3 -12 4 -18 3 -5 -1 -11 0 -15 1 -8 4 -27 32 -25 38 1 3 30 10 39 9 17 -1 28
2 37 8 9 8 11 15 11 47 0 30 -3 45 -10 53 -2 2 -4 4 -4 6 -1 1 -3 3 -6 3 -5 1
-15 8 -18 13 -3 6 7 33 18 45 20 21 19 11 20 149 0 107 0 122 -3 129 -4 9 -14
21 -18 21 -2 0 -3 1 -3 2 0 4 -35 4 -58 -1 -17 -3 -19 -3 -35 1 -16 3 -34 3
-176 3 -155 0 -169 0 -169 -3 0 -1 -1 -2 -3 -2 -1 0 -5 -3 -8 -6 -13 -14 -13
-3 -14 -222 0 -109 -1 -201 -2 -204 0 -3 -1 -17 -2 -32 -1 -21 -7 -92 -10
-108 0 -2 -1 -7 -2 -13 -10 -66 -20 -101 -29 -104 -7 -1 -26 17 -26 26 0 5 6
14 14 21 13 10 18 24 18 45 0 20 -1 26 -13 49 -10 21 -10 27 0 48 13 27 13 25
13 101 0 85 0 85 -25 97 -7 3 -14 8 -17 11 l-5 5 5 5 c3 3 10 8 17 11 14 6 20
13 23 24 3 11 2 220 -2 241 -2 13 -2 18 0 33 1 9 3 19 3 22 0 2 3 7 6 11 l6 6
77 -1 c84 0 88 0 98 11 6 7 12 21 13 32 1 10 9 19 19 20 4 0 9 0 10 -1 3 -2
19 2 28 7 4 2 8 6 10 12 4 8 4 15 4 150 0 106 -1 144 -2 150 -3 7 -20 27 -24
27 -1 0 -3 3 -5 6 -3 5 -3 7 0 12 2 3 4 6 5 6 1 0 6 4 11 10 13 12 16 21 15
46 -2 28 -6 36 -32 57 -18 13 -18 37 0 50 29 24 31 28 31 69 1 18 0 32 -1 33
-1 1 -1 5 -1 9 l1 8 -18 0 c-17 0 -18 0 -19 5 0 2 -1 -1 -1 -8 0 -10 -1 -12
-6 -17 -11 -11 -38 -7 -52 8 -3 3 -6 8 -6 9 0 1 -2 7 -5 13 -13 25 -20 28 -79
28 -48 0 -56 -1 -70 -12 -5 -3 -8 -6 -7 -6 1 0 -3 -4 -7 -9 -8 -8 -10 -9 -17
-9 -7 0 -9 1 -17 9 -4 5 -7 9 -7 9 1 0 -2 3 -8 7 -14 10 -23 11 -87 11 l-57
-1 -13 -7 c-15 -7 -19 -12 -26 -31 -4 -10 -4 -17 -4 -167 l0 -158 7 -7 c6 -7
7 -7 19 -7 7 0 12 -1 13 -2 0 -2 1 -2 1 0 0 6 8 9 20 9 19 0 27 -8 27 -27 0
-19 -8 -27 -27 -27 -12 0 -20 3 -20 9 0 2 -1 2 -1 1 -1 -2 -6 -3 -13 -3 -12 0
-13 0 -19 -7 l-7 -7 0 -207 c0 -207 0 -218 7 -226 1 -2 7 -3 16 -3 l15 0 0
-10 0 -10 -15 0 c-16 0 -17 -1 -21 -13 -3 -12 -3 -539 0 -549 2 -4 4 -9 7 -12
4 -5 27 -16 33 -16 6 0 12 -8 12 -16 0 -8 -7 -16 -13 -16 -5 0 -28 -11 -32
-16 -9 -10 -9 -12 -9 -157 0 -122 0 -139 3 -146 4 -9 14 -21 18 -21 2 0 3 -1
3 -2 0 -2 2 -2 88 -3 109 -2 110 -1 109 24 0 7 1 13 2 14 1 0 1 1 -1 1 -2 0
-5 2 -8 5 -4 4 -16 10 -29 15 -31 13 -32 22 -1 31 19 5 24 7 33 15 14 12 23
31 18 42 -3 7 -7 12 -9 11 -1 -1 -2 0 -2 1 0 1 -3 2 -7 3 -5 1 -10 2 -13 3 -4
1 -6 1 -7 -1 -2 -5 -16 -4 -21 2 -6 6 -5 17 1 23 5 5 18 6 20 1 1 -1 3 -2 5
-2 2 1 9 0 15 -2 27 -8 29 -8 31 -5 1 2 2 2 2 1 0 -2 4 -5 10 -7 19 -10 36
-20 60 -35 40 -26 36 -24 50 -23 12 2 14 2 20 10 11 12 36 73 52 130 9 29 15
28 25 -5 9 -29 14 -50 19 -74 5 -26 12 -37 28 -46 6 -3 12 -4 40 -4 51 1 89 7
119 21 24 11 31 24 31 54 -1 24 7 33 27 33 26 0 35 -21 22 -49 -3 -7 -7 -13
-7 -14 -1 -1 -1 -6 -1 -11 0 -14 5 -20 22 -24 10 -2 13 -3 19 -1 4 2 16 3 26
3 28 0 35 -5 35 -27 0 -13 -4 -20 -11 -24 -7 -4 -24 -3 -31 0 -8 4 -26 3 -33
-2 -4 -2 -7 -6 -9 -12 -3 -8 -3 -9 1 -18 8 -16 23 -26 41 -27 16 -1 57 3 76 7
6 2 10 3 11 3 19 4 35 13 50 27 7 7 16 14 21 16 6 2 15 7 22 10 13 7 26 8 32
2 5 -3 27 -36 43 -63 7 -13 16 -19 28 -21 13 -1 17 0 33 12 21 15 23 17 30 22
3 3 7 6 7 6 5 0 12 23 13 39 2 24 4 26 26 28 24 1 34 6 44 19 14 18 35 50 44
66 l7 15 -1 24 c-1 25 0 33 8 40 3 2 13 21 14 25 0 2 1 7 2 11 2 4 3 10 4 13
0 3 6 11 13 18 20 21 26 39 38 112 4 27 2 38 -12 61 -12 20 -9 35 9 54 17 20
21 30 21 60 l1 24 1 -17 c1 -9 1 -16 2 -14 0 1 1 2 3 2 1 0 3 1 4 3 0 1 1 -9
1 -22 0 -13 1 -27 2 -31 1 -4 4 -15 6 -24 4 -18 13 -38 19 -45 8 -8 11 -17 11
-26 0 -12 -4 -18 -15 -27 -17 -13 -23 -30 -18 -49 4 -14 4 -21 -1 -43 -5 -24
-6 -111 -1 -125 5 -14 13 -25 21 -27 4 -1 8 -4 11 -6 5 -5 12 -5 19 -2 5 2 6
5 6 13 -2 26 1 38 12 49 5 4 15 20 18 28 2 3 5 7 6 7 2 1 4 2 4 3 0 6 46 -6
54 -14 3 -3 4 -6 4 -12 0 -4 1 -9 3 -11 2 -1 2 -3 2 -3 -1 -1 1 -3 4 -6 6 -6
23 -8 36 -4 8 2 10 2 11 -1 1 -2 4 -3 6 -3 4 0 4 0 1 -4 -2 -3 -4 -7 -6 -10
-1 -3 -5 -8 -9 -11 -8 -7 -33 -38 -33 -43 -3 -13 -1 -26 4 -34 5 -6 6 -9 6
-22 0 -13 0 -15 -6 -19 -4 -4 -7 -5 -18 -5 -13 0 -16 1 -30 14 -5 4 -13 11
-19 16 -6 5 -16 14 -22 21 -11 10 -12 11 -21 11 -14 0 -17 -2 -21 -11 -4 -10
-4 -34 1 -54 3 -12 5 -15 13 -22 10 -10 34 -26 44 -29 4 -2 8 -3 9 -4 7 -5 49
-15 55 -13 2 1 6 2 9 2 8 2 12 4 25 16 14 13 23 16 49 16 23 0 27 -2 40 -15
15 -15 30 -20 50 -16 23 5 38 15 51 34 4 6 7 7 29 16 17 7 27 16 33 27 2 3 4
7 5 9 2 2 3 3 3 4 0 1 0 5 1 9 0 4 1 15 2 23 1 11 3 17 8 29 11 20 15 32 16
47 2 15 2 33 1 39 -6 22 -10 27 -22 31 -7 1 -27 -1 -31 -4 -7 -6 -25 -14 -28
-13 -5 2 -11 19 -11 34 0 22 21 28 45 13 14 -8 26 -10 38 -7 6 2 16 23 14 31
-3 20 -11 28 -46 43 -21 9 -56 26 -60 29 -1 1 -8 5 -16 9 -8 4 -21 12 -30 18
-16 11 -16 11 -28 11 -10 -1 -12 -2 -17 -8 -8 -8 -10 -17 -10 -48 0 -15 -1
-41 -2 -59 -1 -35 -1 -58 1 -79 1 -12 0 -14 -4 -18 -6 -6 -14 -7 -18 -2 -2 2
-7 5 -10 5 -5 1 -7 2 -5 3 2 1 2 2 1 2 -1 0 0 1 1 3 2 3 3 21 4 97 0 109 1
106 -18 131 -15 19 -15 35 0 54 17 22 18 29 18 73 l-1 35 7 6 c3 4 6 6 6 5 0
-1 89 1 96 2 1 0 2 1 2 2 0 1 1 2 3 2 4 0 14 12 18 21 5 11 5 1123 0 1134 -4
9 -14 21 -18 21 -2 0 -3 1 -3 2 0 2 -8 3 -26 3 -22 0 -32 -6 -43 -28 -9 -18
-11 -21 -22 -31 -23 -23 -51 -21 -51 4 0 5 1 11 3 13 3 4 0 25 -4 33 -8 11
-35 14 -52 5 -11 -5 -16 -11 -26 -27 -6 -12 -10 -14 -21 -14 -11 0 -15 2 -21
14 -10 16 -15 22 -26 27 l-10 5 -173 0 c-95 0 -175 -1 -178 -2z m217 -49 c3
-5 3 -5 0 -10 -2 -3 -5 -5 -7 -5 -2 0 -5 2 -7 5 -3 5 -3 5 0 10 2 3 5 5 7 5 2
0 5 -2 7 -5z m-402 -5 c5 -5 6 -7 6 -16 0 -15 -8 -23 -23 -23 -9 0 -11 1 -16
7 -9 8 -9 23 -1 32 9 9 24 9 34 0z m323 -49 c21 -9 20 -45 -2 -54 -10 -5 -28
-1 -34 6 -9 10 -9 32 0 42 7 8 24 11 36 6z m-578 -9 c22 -3 26 -7 26 -23 0
-13 -6 -21 -15 -21 -13 -1 -29 0 -45 2 -22 3 -26 7 -26 23 0 22 11 25 60 19z
m745 -23 c6 -4 6 -6 6 -20 0 -14 0 -16 -6 -20 -4 -4 -7 -5 -18 -5 -11 0 -14 1
-18 5 -6 4 -6 6 -6 20 0 14 0 16 6 20 4 4 7 5 18 5 11 0 14 -1 18 -5z m128
-12 c13 -8 14 -34 2 -44 -11 -10 -35 -7 -42 4 -6 10 -5 30 3 38 7 7 27 8 37 2z
m-664 -6 c12 -7 14 -33 3 -43 -9 -10 -33 -9 -41 1 -8 10 -8 31 1 40 7 7 27 8
37 2z m-552 -31 c4 -6 4 -23 0 -29 -2 -3 -7 -6 -13 -8 -25 -8 -33 -12 -31 -16
0 -1 -1 -3 -2 -5 -2 -1 -4 -4 -4 -7 -1 -3 -4 -8 -8 -12 -6 -5 -8 -6 -15 -5 -6
0 -9 -1 -10 -2 -2 -2 -2 -2 -2 0 0 2 -2 6 -5 8 -8 7 -8 18 0 27 3 3 7 6 9 5 2
0 7 1 11 3 4 2 9 3 11 3 4 0 8 4 9 8 0 4 13 29 16 32 7 7 27 6 34 -2z m441
-32 c8 -4 17 -7 19 -7 1 -1 3 -2 3 -3 0 -1 2 -4 6 -7 11 -12 3 -31 -15 -37 -7
-2 -15 -9 -32 -28 -3 -3 -8 -6 -11 -6 -14 -1 -18 1 -36 16 -15 13 -21 16 -45
19 -27 4 -31 7 -31 22 0 20 11 23 43 14 10 -3 20 -6 23 -6 10 -2 24 4 38 17
15 14 17 15 38 6z m738 -25 c5 -7 5 -17 0 -39 -3 -10 -4 -22 -4 -26 1 -6 0 -8
-5 -13 -6 -6 -7 -6 -29 -6 -30 0 -34 -2 -56 -29 -9 -10 -14 -13 -26 -13 -10 1
-17 5 -26 16 -7 9 -7 9 -19 9 -17 -1 -19 -2 -28 -19 -7 -15 -9 -16 -17 -19 -5
-2 -9 -4 -10 -4 -1 -2 -11 -5 -12 -4 -1 0 -2 -1 -2 -2 0 -1 -1 -2 -2 -1 -2 1
-5 -4 -6 -11 -1 -3 -2 -7 -3 -9 -2 -2 -3 -4 -3 -5 0 -4 -5 -20 -7 -22 -5 -7
-24 -14 -36 -13 -11 1 -17 8 -18 21 -1 23 11 42 25 42 3 0 8 1 12 2 4 1 10 2
13 3 6 1 14 8 12 12 0 1 2 6 4 10 3 4 5 10 5 13 0 9 5 18 15 28 10 9 18 30 17
42 0 6 6 15 9 13 0 -1 2 0 5 1 8 5 44 9 87 10 47 1 49 2 75 14 13 6 25 5 30
-1z m-299 -59 c14 -6 16 -35 3 -48 -8 -8 -20 -8 -37 -1 -9 4 -13 28 -6 40 5
12 23 15 40 9z m-985 -1 c2 -1 3 -3 3 -4 -1 0 0 -1 2 -1 5 0 10 -12 10 -23 0
-19 -9 -28 -28 -28 -19 0 -28 9 -28 28 0 15 5 22 17 27 13 4 20 5 24 1z m1286
-79 c1 0 5 -3 8 -6 5 -5 6 -7 6 -18 0 -11 -1 -13 -6 -18 -6 -6 -7 -6 -18 -6
-11 0 -12 0 -18 6 -5 5 -6 7 -6 17 0 14 3 20 12 24 5 2 8 2 22 1z m-533 -27
c6 -4 6 -6 6 -20 0 -14 0 -16 -6 -20 -4 -4 -7 -5 -18 -5 -11 0 -14 1 -18 5 -6
4 -6 6 -6 20 0 14 0 16 6 20 4 4 7 5 18 5 11 0 14 -1 18 -5z m-598 -63 c10 -6
13 -29 6 -42 -7 -12 -19 -26 -27 -31 -8 -5 -39 -7 -41 -2 -1 2 -2 2 -7 -3 -7
-7 -9 -13 -12 -38 -4 -29 -13 -36 -36 -26 -13 6 -21 18 -21 33 0 6 1 12 2 13
3 3 0 29 -4 40 -2 5 -4 14 -5 21 -1 12 -1 12 5 18 9 8 24 9 31 1 2 -4 5 -6 7
-6 1 0 2 -2 2 -4 1 -3 2 -6 4 -8 2 -2 2 -4 2 -5 -1 -1 1 0 4 1 3 1 10 2 15 2
9 0 10 0 11 -5 0 -6 0 -6 1 1 0 12 22 39 34 41 3 1 6 2 7 2 3 1 17 -1 22 -3z
m418 -17 c9 -9 9 -23 0 -32 -5 -5 -7 -6 -18 -6 -16 0 -24 7 -24 22 0 15 8 22
24 22 11 0 13 -1 18 -6z m912 -18 c4 -4 5 -7 5 -15 0 -11 -4 -17 -17 -24 -11
-6 -28 -22 -34 -33 -7 -12 -21 -17 -32 -13 -25 10 -38 42 -24 56 6 6 8 6 22 7
20 1 32 6 45 18 9 8 11 9 20 9 8 0 11 -1 15 -5z m-1082 -3 c16 -7 16 -43 -1
-50 -15 -6 -34 -2 -39 9 -4 8 -4 24 0 32 5 12 23 15 40 9z m620 -18 c16 -7 16
-43 -1 -50 -15 -6 -34 -2 -39 9 -4 8 -4 24 0 32 5 12 23 15 40 9z m252 -35 c6
-6 6 -6 6 -30 0 -24 0 -24 -6 -30 l-6 -6 -65 0 -65 0 -6 6 c-6 6 -6 6 -6 30 0
24 0 24 6 30 l6 6 65 0 65 0 6 -6z m-298 -62 c4 -3 5 -6 5 -14 0 -13 -6 -19
-19 -19 -13 0 -19 6 -19 19 0 13 5 19 18 19 7 0 11 -1 15 -5z m-346 -19 c10
-9 3 -26 -10 -26 -8 0 -15 7 -15 15 0 13 16 20 25 11z m734 -112 c4 -6 4 -24
-1 -30 -7 -9 -27 -9 -34 0 -5 6 -5 24 0 30 7 9 27 9 35 0z m-644 -21 c3 -5 3
-5 0 -10 -2 -3 -5 -5 -7 -5 -2 0 -5 2 -7 5 -3 5 -3 5 0 10 2 3 5 5 7 5 2 0 5
-2 7 -5z m450 -3 c10 -9 3 -26 -10 -26 -8 0 -15 7 -15 15 0 13 16 20 25 11z
m-1223 -3 c6 -7 5 -25 -4 -45 -6 -12 -12 -16 -23 -16 -16 0 -22 10 -18 28 2 7
9 23 13 28 9 11 24 13 32 5z m1503 -35 c4 -6 4 -24 -1 -30 -7 -9 -27 -9 -34 0
-5 6 -5 24 0 30 7 9 27 9 35 0z m-420 -29 c12 -12 3 -31 -13 -31 -11 0 -18 7
-18 18 0 11 7 18 18 18 6 0 9 -1 13 -5z m244 -18 l6 -6 0 -25 0 -25 -6 -6 -6
-6 -65 0 -65 0 -6 6 -6 6 0 25 0 25 6 6 6 6 65 0 65 0 6 -6z m-1430 0 c7 -7 7
-23 0 -30 -6 -6 -21 -7 -29 -2 -6 5 -6 29 0 34 8 5 23 4 29 -2z m630 -8 c6 -4
6 -6 6 -20 0 -14 0 -16 -6 -20 -4 -4 -7 -5 -18 -5 -11 0 -14 1 -18 5 -6 4 -6
6 -6 20 0 14 0 16 6 20 4 4 7 5 18 5 11 0 14 -1 18 -5z m455 -39 c5 -5 5 -15
0 -20 -9 -9 -24 -2 -24 10 0 8 6 14 14 14 3 0 8 -2 10 -4z m-707 -15 c4 -4 5
-7 5 -15 0 -14 -6 -20 -20 -20 -14 0 -20 6 -20 20 0 14 6 20 20 20 8 0 11 -1
15 -5z m141 -23 c11 -11 -6 -26 -18 -16 -4 4 -4 7 2 15 3 5 12 5 16 1z m-473
-22 c11 -10 3 -28 -11 -28 -9 0 -16 6 -16 16 0 14 17 22 27 12z m418 -11 c4
-2 7 -5 7 -6 0 -9 2 -42 3 -43 0 0 -3 -4 -6 -7 -6 -6 -7 -6 -21 -6 -14 0 -15
0 -21 6 l-6 6 4 16 c4 19 6 24 13 31 6 6 18 8 27 3z m1117 -12 c21 -9 20 -45
-2 -54 -10 -5 -28 -1 -34 6 -9 10 -9 32 0 42 7 8 24 11 36 6z m77 -8 c3 -5 3
-5 0 -10 -2 -3 -5 -5 -7 -5 -2 0 -5 2 -7 5 -3 5 -3 5 0 10 2 3 5 5 7 5 2 0 5
-2 7 -5z m-499 -16 c3 -3 4 -7 4 -14 0 -13 -6 -19 -19 -19 -13 0 -19 6 -19 19
0 7 1 11 4 14 7 8 23 8 30 0z m-541 -8 c3 -5 3 -5 0 -10 -2 -3 -5 -5 -7 -5 -2
0 -5 2 -7 5 -3 5 -3 5 0 10 2 3 5 5 7 5 2 0 5 -2 7 -5z m1012 -74 c6 -4 6 -6
6 -20 0 -12 -1 -16 -4 -19 -9 -9 -31 -9 -40 0 -3 3 -4 7 -4 19 0 14 0 16 6 20
4 4 7 5 18 5 11 0 14 -1 18 -5z m-1329 -1 c9 -1 21 -2 27 -2 11 -1 17 -5 17
-12 0 -6 -6 -11 -13 -11 -3 -1 -18 -2 -32 -3 -25 -3 -25 -3 -30 2 -10 9 -4 28
9 28 3 0 13 -1 22 -2z m-283 -13 c3 -5 3 -5 0 -10 -2 -3 -5 -5 -7 -5 -2 0 -5
2 -7 5 -3 5 -3 5 0 10 2 3 5 5 7 5 2 0 5 -2 7 -5z m1411 -60 c28 -4 30 -6 30
-26 0 -23 3 -29 20 -42 13 -9 14 -12 14 -26 0 -10 -1 -12 -6 -17 -6 -6 -7 -6
-18 -6 -11 0 -12 0 -18 6 -7 6 -8 17 -4 36 5 21 -7 36 -35 45 -24 8 -32 17
-23 29 4 5 11 5 40 1z m-958 -12 l-5 -5 -4 4 -5 5 4 4 5 5 4 -4 5 -5 -4 -4z
m162 3 l4 -4 -6 -3 c-5 -3 -6 -3 -9 0 -3 2 -3 4 -1 7 4 5 6 5 12 0z m-159 -70
c0 -6 3 -11 15 -33 13 -24 6 -44 -16 -44 -13 0 -21 8 -23 20 -2 20 -8 33 -17
38 -3 2 -6 4 -6 5 0 1 -2 4 -4 7 -6 8 -6 11 0 17 5 5 7 6 22 6 16 1 17 1 23
-5 3 -4 6 -8 6 -11z m104 -26 c1 0 6 -4 11 -8 12 -9 10 -12 -8 -13 -18 -1 -26
9 -16 19 3 3 5 3 13 2z m-226 -23 c7 -7 6 -16 -2 -33 -4 -8 -7 -14 -6 -14 0 0
0 -2 -1 -5 -1 -4 -2 -13 -2 -21 0 -18 -4 -24 -17 -24 -16 0 -22 14 -12 32 2 5
5 12 6 15 1 3 2 7 3 9 0 2 0 10 0 20 0 15 0 17 5 21 7 7 19 7 26 0z m555 -116
c3 -3 4 -7 4 -14 0 -13 -6 -19 -19 -19 -13 0 -19 6 -19 19 0 7 1 11 4 14 7 8
23 8 30 0z m618 -13 c3 -2 7 -6 9 -9 3 -6 3 -7 0 -12 -4 -5 -5 -5 -14 -4 -13
1 -20 5 -24 12 -3 6 -3 7 0 12 4 5 5 5 14 4 5 0 12 -2 15 -3z m-1000 -26 c9
-9 2 -24 -10 -24 -7 1 -26 -7 -32 -12 -5 -5 -9 -13 -10 -20 -1 -3 -3 -8 -6
-11 l-6 -5 -27 0 c-19 1 -29 0 -32 -2 -4 -1 -5 -1 -7 1 -3 3 -7 14 -6 16 2 10
8 42 7 42 0 1 2 4 6 7 l7 6 35 0 c24 0 40 1 47 3 17 4 29 4 34 -1z m276 -30
c5 -5 5 -11 0 -16 -10 -10 -27 5 -16 16 4 4 12 4 16 0z m156 -65 c5 -5 4 -11
-3 -26 -5 -11 -6 -12 -20 -24 -5 -4 -9 -9 -9 -10 0 -2 -1 -3 -2 -3 -2 0 -7
-18 -9 -31 -2 -11 -9 -21 -16 -21 -21 -1 -27 2 -35 17 -5 9 -11 34 -9 39 0 2
1 5 2 8 1 4 5 9 13 14 6 5 18 16 27 25 l16 17 21 0 c18 0 21 -1 24 -5z m-710
-40 l-5 -5 -4 4 -5 5 4 4 5 5 4 -4 5 -5 -4 -4z m1478 -3 c2 -5 -5 -11 -9 -7
-2 2 -2 4 0 10 4 7 6 6 9 -3z m-1165 -2 c10 -9 3 -26 -10 -26 -8 0 -15 7 -15
15 0 13 16 20 25 11z m474 -57 c6 -4 6 -6 6 -20 0 -14 0 -16 -6 -20 -4 -4 -7
-5 -18 -5 -11 0 -14 1 -18 5 -6 4 -6 6 -6 20 0 14 0 16 6 20 4 4 7 5 18 5 11
0 14 -1 18 -5z m664 -58 c7 -7 7 -23 0 -30 -6 -7 -23 -7 -30 0 -7 7 -7 23 0
30 7 7 23 7 30 0z"/>
</g>
</svg>
