<?xml version="1.0" standalone="no"?>
<!DOCTYPE svg PUBLIC "-//W3C//DTD SVG 20010904//EN"
 "http://www.w3.org/TR/2001/REC-SVG-20010904/DTD/svg10.dtd">
<svg version="1.0" xmlns="http://www.w3.org/2000/svg"
 width="1100.000000pt" height="2850.000000pt" viewBox="0 0 1100.000000 2850.000000"
 preserveAspectRatio="xMidYMid meet">
<metadata>
Created by potrace 1.15, written by Peter Selinger 2001-2017
</metadata>
<g transform="translate(0.000000,2850.000000) scale(0.500000,-0.500000)"
fill="#000000" stroke="none">
<path d="M543 3813 c-6 -2 -17 -11 -19 -17 -8 -19 -5 -36 11 -69 14 -29 7 -47
-15 -47 -7 0 -13 1 -16 3 -4 3 -16 26 -16 31 0 0 -2 4 -5 8 -6 6 -12 8 -25 9
-13 0 -34 -16 -41 -33 -7 -14 -7 -18 -7 -49 l1 -32 -6 -6 -6 -6 -105 0 c-104
0 -116 0 -116 -3 0 -1 -1 -2 -3 -2 -4 0 -14 -12 -18 -21 -4 -9 -5 -112 -1
-131 6 -32 6 -32 0 -67 -2 -10 -2 -15 0 -23 3 -9 14 -24 19 -24 2 0 3 -1 3 -2
0 -3 12 -3 116 -3 l105 0 6 -6 6 -6 0 -46 0 -46 -6 -6 c-5 -5 -7 -6 -14 -5
-18 1 -33 -10 -40 -31 -7 -23 -7 -23 -23 -43 -2 -3 -4 -6 -4 -7 0 -2 -1 -3 -2
-3 -1 0 -2 -2 -4 -5 -4 -11 -28 -15 -41 -8 -11 5 -15 24 -9 39 3 7 20 18 28
18 3 0 4 1 2 1 -2 1 -3 4 -2 17 0 8 -1 16 -2 18 -2 3 -15 3 -97 3 -95 0 -107
0 -107 -3 0 -1 -1 -2 -3 -2 -4 0 -14 -12 -18 -21 -4 -10 -4 -32 0 -45 3 -7 8
-15 16 -24 22 -24 22 -40 0 -64 -17 -19 -19 -26 -19 -63 0 -21 1 -30 3 -36 4
-9 14 -21 18 -21 2 0 3 -1 3 -2 0 -3 12 -3 118 -3 l107 0 6 -6 c5 -6 5 -7 4
-22 0 -9 -1 -25 -1 -35 0 -18 0 -20 -5 -26 -4 -5 -6 -5 -10 -4 -3 1 -44 10
-59 13 -3 0 -11 2 -18 4 -7 1 -16 3 -20 4 -4 0 -12 2 -18 4 -11 2 -19 2 -26 0
-2 -1 -4 -2 -6 -2 -2 -1 -6 -4 -10 -8 -13 -14 -8 -33 11 -47 20 -14 39 -51 38
-70 -1 -12 -22 -26 -44 -29 -10 -2 -33 -15 -40 -24 -10 -11 -10 -22 1 -36 4
-5 22 -15 29 -15 14 0 21 -26 10 -38 -7 -7 -17 -9 -26 -5 -6 2 -17 2 -26 0 -2
0 -5 -1 -7 -1 -9 0 -20 -21 -21 -39 -1 -18 3 -25 20 -35 15 -9 19 -16 11 -24
-2 -2 -5 -3 -10 -2 -26 3 -44 -1 -50 -12 -15 -26 -15 -47 -3 -61 6 -7 36 -22
56 -28 21 -6 25 -9 41 -24 16 -13 17 -15 19 -15 1 0 8 -4 16 -10 8 -5 17 -10
19 -11 8 -2 24 1 30 7 6 5 18 27 27 50 2 7 6 14 7 16 2 2 4 5 5 8 2 6 6 5 4
-1 0 -3 0 -7 1 -9 1 -2 3 -7 4 -12 2 -5 6 -14 9 -21 12 -22 9 -30 -16 -40 -19
-7 -28 -16 -39 -36 -4 -9 -11 -21 -15 -28 -4 -7 -8 -15 -10 -18 -2 -4 -4 -7
-5 -7 -1 0 -2 -1 -2 -2 0 -1 -1 -3 -2 -5 -1 -1 -6 -8 -11 -15 -15 -21 -32 -39
-59 -65 -35 -34 -34 -34 -33 -35 1 -1 0 -2 -1 -3 -2 -1 1 -20 4 -23 3 -4 30
-2 37 2 7 3 10 2 14 -3 3 -5 3 -5 -1 -17 -4 -12 -6 -33 -3 -38 1 -2 6 -8 10
-12 4 -5 10 -12 13 -16 3 -4 9 -11 13 -17 4 -5 11 -14 14 -19 3 -5 7 -9 7 -10
1 -1 8 -11 15 -23 19 -31 22 -33 41 -33 11 0 21 7 51 37 30 31 33 34 34 48 0
7 0 13 -1 14 -3 5 -14 11 -25 14 -15 4 -19 7 -40 26 -12 10 -15 17 -16 29 0
19 8 27 28 29 20 2 26 4 48 18 25 17 44 -1 30 -27 -9 -17 -11 -23 -12 -33 -2
-14 2 -18 22 -18 l15 0 13 21 c7 12 16 27 20 35 10 18 14 20 21 11 3 -4 6 -8
6 -9 0 -3 8 -26 17 -50 4 -9 6 -23 8 -39 2 -14 3 -27 4 -29 0 -3 1 -8 2 -12 2
-18 4 -22 8 -31 5 -10 11 -15 24 -21 7 -3 13 -3 44 -2 20 1 43 2 51 3 8 1 20
2 25 3 14 2 49 10 62 15 12 5 30 21 39 35 6 10 5 9 33 21 26 11 36 22 34 37 0
6 -1 12 -2 14 0 2 -1 5 -1 5 0 1 -2 4 -4 6 -12 12 -15 27 -8 35 13 16 40 17
54 1 30 -33 66 -78 86 -108 5 -7 11 -15 12 -17 2 -2 5 -6 7 -10 6 -13 19 -21
37 -24 15 -2 28 8 31 24 0 3 1 9 2 13 1 6 0 10 -4 17 -3 5 -5 11 -5 13 0 2 -1
4 -2 4 -1 0 -5 3 -10 7 -5 4 -13 9 -18 12 -12 6 -14 11 -13 27 0 17 6 22 24
22 15 0 22 -4 24 -16 4 -24 9 -37 20 -47 6 -5 14 -15 19 -21 4 -7 9 -12 10
-12 1 0 2 -1 1 -2 -1 -2 13 -6 22 -6 9 -1 38 11 103 42 24 12 31 18 35 30 4
10 4 18 2 32 -2 16 0 21 9 25 12 6 24 5 39 -5 16 -9 33 -11 43 -4 10 6 17 11
19 13 1 1 5 4 8 6 3 2 8 6 10 8 3 2 9 8 14 12 9 7 15 13 45 41 16 15 21 14 26
-2 4 -11 12 -21 19 -24 2 -1 6 -3 8 -4 11 -8 25 -16 26 -16 0 0 6 -3 12 -7 13
-8 25 -13 39 -14 26 -3 31 -5 40 -19 10 -16 19 -24 38 -36 9 -6 29 -18 44 -27
15 -9 30 -18 33 -20 3 -2 25 -16 49 -32 24 -16 49 -32 55 -35 27 -15 25 -14
37 -13 15 2 22 6 29 17 3 5 12 18 19 29 8 11 20 29 27 41 7 12 17 27 22 34 49
76 47 72 48 81 1 17 -7 30 -25 40 -10 5 -11 6 -33 4 -21 -1 -24 0 -27 3 -2 2
-4 4 -4 5 0 4 -15 32 -20 36 -5 6 -32 22 -68 41 -8 4 -19 10 -24 12 -10 6 -32
17 -71 38 -13 7 -27 14 -31 16 -4 2 -8 4 -10 4 -1 0 1 2 4 6 l7 5 91 1 c95 2
96 2 96 4 0 1 1 2 3 2 4 0 14 12 18 21 3 7 3 18 3 80 -1 70 -1 72 -5 81 -4 8
-16 21 -27 28 -11 8 -11 34 0 42 11 7 23 20 27 28 4 8 4 12 4 54 1 50 -1 58
-12 71 -16 18 -16 30 -1 47 15 16 17 36 7 65 -10 30 -11 41 -4 64 8 24 7 32
-3 53 -12 22 -12 30 0 54 5 11 11 22 12 25 1 3 2 41 2 121 0 101 0 116 -3 123
-4 9 -14 21 -18 21 -2 0 -3 1 -3 2 0 3 -14 3 -164 3 l-153 0 -6 6 -6 6 0 29 0
29 6 6 6 6 27 -1 c35 0 47 2 51 11 2 4 3 11 3 17 0 6 1 10 3 11 1 0 1 1 -1 1
-10 0 -12 21 -3 29 6 7 22 7 28 0 9 -8 7 -29 -3 -29 -2 0 -2 -1 0 -1 1 -1 2
-5 2 -11 0 -6 1 -13 3 -17 5 -11 10 -11 138 -10 118 0 119 1 119 3 0 1 1 2 3
2 4 0 14 12 18 21 5 11 5 223 0 234 -4 9 -14 21 -18 21 -2 0 -3 1 -3 2 0 2 -2
2 -81 3 -84 1 -87 1 -99 -11 -5 -5 -18 -29 -18 -34 0 -3 -9 -9 -24 -17 -11 -5
-19 -11 -28 -20 -10 -11 -13 -13 -19 -13 -16 0 -20 15 -7 30 24 29 23 48 -3
61 -10 5 -11 5 -49 5 l-39 -1 -6 6 -6 6 1 27 c0 21 -1 29 -3 35 -4 9 -14 21
-18 21 -2 0 -3 1 -3 2 0 3 -13 3 -131 3 -118 0 -131 0 -131 -3 0 -1 -1 -2 -3
-2 -4 0 -14 -12 -18 -21 -4 -11 -4 -142 0 -156 10 -27 24 -32 58 -20 9 4 12 3
17 -1 7 -7 3 -18 -8 -20 -11 -1 -32 -9 -35 -12 -4 -5 -5 -28 -2 -38 6 -18 3
-31 -10 -40 -9 -7 -18 -20 -21 -30 -3 -13 -2 -99 2 -107 3 -6 3 -10 1 -19 -1
-3 -2 -4 -3 -2 -1 1 -3 1 -7 0 -5 -1 -7 -1 -8 1 0 1 -25 2 -95 2 -94 0 -106 0
-106 -3 0 -1 -1 -2 -3 -2 -4 0 -14 -12 -18 -21 -2 -6 -3 -16 -3 -58 0 -48 0
-50 5 -58 5 -10 19 -17 36 -18 15 -2 21 -6 21 -17 0 -9 -7 -16 -14 -16 -17 0
-37 -10 -42 -21 -7 -12 -7 -69 -1 -83 3 -5 6 -14 8 -19 4 -12 3 -18 -8 -41 -4
-9 -4 -12 -4 -80 l0 -71 6 -7 c5 -5 9 -6 18 -8 6 -1 12 -2 13 -3 1 0 2 0 3 2
2 5 17 4 23 -2 6 -6 6 -19 -1 -25 -5 -5 -20 -6 -22 -1 -1 2 -3 2 -11 0 -12 -3
-20 0 -25 10 -2 4 -4 10 -5 11 -1 2 -2 5 -2 7 0 1 -2 4 -4 6 -3 3 -4 3 -5 0 0
-3 -1 -3 -1 1 0 6 -28 73 -34 83 -4 6 -12 13 -17 14 -15 4 -22 4 -27 3 -3 -1
-16 -6 -30 -10 -13 -4 -26 -8 -27 -8 -2 0 -3 -1 -3 -2 0 -1 -2 0 -5 3 -6 5 -6
6 -7 30 -1 14 -3 30 -6 39 -7 28 -5 41 10 44 16 3 28 -4 28 -18 0 -10 5 -29 9
-35 7 -10 20 -14 43 -12 25 1 26 1 26 3 0 1 1 2 3 2 4 0 14 12 18 21 2 6 3 17
3 67 0 67 0 69 -15 93 -12 21 -13 32 -3 49 3 5 7 10 9 10 1 0 1 1 -1 2 -1 1
-2 5 -2 11 1 11 -4 21 -9 21 -2 0 -3 1 -3 2 0 1 -1 2 -1 2 -1 -1 -6 0 -11 1
-7 1 -15 0 -25 -2 -19 -4 -36 -4 -55 0 -12 2 -27 3 -74 3 l-59 -1 -6 6 -6 6 0
46 0 46 6 6 6 6 97 0 c96 0 108 0 108 3 0 1 1 2 3 2 4 0 14 12 18 21 4 9 4 55
1 64 -3 8 -4 8 -21 9 -7 0 -14 1 -15 1 -1 1 -2 0 -2 -1 0 -3 -12 -20 -17 -22
-6 -4 -26 -3 -32 1 -2 1 -7 7 -9 12 -6 13 -6 12 -23 13 -15 0 -23 -3 -23 -11
0 -3 -13 -17 -19 -19 -5 -2 -10 -6 -29 -19 -23 -16 -41 -12 -47 10 -7 22 -1
32 29 50 9 6 21 14 26 19 16 15 28 19 46 17 21 -1 32 3 30 11 0 3 10 21 14 25
8 6 22 4 50 -8 16 -6 35 3 41 20 4 11 4 43 0 52 -4 9 -14 21 -18 21 -2 0 -3 1
-3 2 0 2 -2 2 -69 3 -53 1 -66 1 -81 -2 -19 -4 -38 -4 -47 -1 -4 1 -7 1 -7 1
0 -2 -5 3 -9 9 -2 4 -3 10 -3 39 0 48 -4 56 -32 70 -17 9 -20 13 -20 28 0 11
0 12 7 18 8 7 8 10 7 40 0 1 -1 2 -3 2 -2 -1 -8 0 -14 2 -9 3 -92 4 -102 2z
m785 -141 c5 -5 5 -15 0 -20 -9 -9 -24 -2 -24 10 0 8 6 14 14 14 3 0 8 -2 10
-4z m169 -5 c8 -4 10 -10 8 -22 -2 -11 -4 -14 -14 -21 -9 -6 -10 -7 -16 -3 -3
1 -8 3 -10 4 -2 0 -5 1 -7 2 -2 0 -5 1 -8 2 -5 1 -5 2 -4 5 1 7 17 31 21 34 6
3 22 2 30 -1z m-61 -45 c2 -1 5 -2 6 -1 1 1 1 0 1 -2 -1 -2 -2 -2 -3 -2 -1 1
-2 0 -2 -1 0 -1 -1 -2 -3 -2 -2 0 -6 -1 -9 -3 -5 -3 -6 -3 -11 1 l-5 4 4 6 c5
6 11 6 22 0z m407 -2 c10 -6 14 -29 6 -40 -6 -10 -3 -30 7 -45 16 -22 9 -44
-14 -44 -18 0 -27 15 -21 34 3 7 3 15 0 30 -1 3 -5 10 -10 15 -18 20 -15 47 5
52 8 2 21 1 27 -2z m-365 -40 c7 -7 3 -19 -8 -19 -9 0 -17 15 -9 18 2 1 3 3 3
4 0 4 9 2 14 -3z m-1237 -44 c16 -7 16 -43 -1 -50 -15 -6 -34 -2 -39 9 -4 8
-4 24 0 32 5 12 23 15 40 9z m151 -37 c9 -8 8 -29 -2 -35 -7 -4 -22 -2 -27 3
-7 7 -7 23 0 30 6 6 22 7 29 2z m176 -1 c5 -6 5 -11 0 -18 -4 -6 -13 -14 -16
-14 -1 0 -2 -5 -3 -11 -1 -9 -3 -13 -7 -17 -6 -6 -5 -7 4 -7 1 1 2 0 2 -1 0
-1 2 -1 4 -1 8 -1 35 -10 39 -13 3 -3 4 -7 4 -19 0 -14 0 -16 -6 -20 -7 -7
-26 -7 -36 -1 -6 4 -12 13 -10 16 0 0 -1 3 -2 7 -2 3 -4 10 -4 15 -1 13 -1 13
-10 15 -18 3 -29 3 -42 0 -30 -7 -43 -3 -47 15 -3 12 -2 18 6 26 5 5 7 6 17 6
7 0 19 -1 27 -3 16 -3 30 -1 34 4 1 2 3 3 4 3 1 0 6 4 10 8 4 4 9 8 10 8 1 0
3 1 4 3 4 4 14 4 18 -1z m896 0 c1 0 5 -3 8 -6 5 -5 6 -7 6 -18 0 -11 -1 -13
-6 -18 -6 -6 -7 -6 -18 -6 -11 0 -12 0 -18 6 -5 5 -6 7 -6 17 0 14 3 20 12 24
5 2 8 2 22 1z m-1154 -48 c1 0 5 -3 8 -6 5 -5 6 -7 6 -18 0 -11 -1 -13 -6 -18
-6 -6 -7 -6 -18 -6 -11 0 -12 0 -18 6 -5 5 -6 7 -6 17 0 14 3 20 12 24 5 2 8
2 22 1z m193 -87 c12 -12 3 -31 -13 -31 -11 0 -18 7 -18 18 0 11 7 18 18 18 6
0 9 -1 13 -5z m907 -15 c5 -6 5 -12 0 -18 -7 -8 -22 -2 -22 9 0 11 15 17 22 9z
m-152 -40 c12 -7 15 -16 8 -24 -9 -11 -33 4 -32 21 1 3 2 6 2 7 3 2 17 0 22
-4z m229 -27 c6 -4 6 -6 6 -20 0 -14 0 -16 -6 -20 -4 -4 -7 -5 -18 -5 -11 0
-14 1 -18 5 -6 4 -6 6 -6 20 0 14 0 16 6 20 4 4 7 5 18 5 11 0 14 -1 18 -5z
m107 -17 c1 0 5 -3 8 -6 5 -5 6 -7 6 -18 0 -11 -1 -13 -6 -18 -6 -6 -7 -6 -18
-6 -11 0 -12 0 -18 6 -5 5 -6 7 -6 17 0 14 3 20 12 24 5 2 8 2 22 1z m164 -17
c14 -7 28 -11 40 -12 8 -1 12 -3 15 -6 5 -8 0 -14 -17 -17 -7 -1 -21 -6 -30
-10 -29 -15 -48 -11 -54 11 -7 29 17 47 46 34z m-411 -19 c7 -6 7 -18 1 -23
-3 -3 -11 -7 -19 -9 -11 -4 -16 -7 -26 -16 -6 -7 -13 -13 -14 -14 -1 -1 -9 -4
-18 -6 -27 -7 -47 -20 -50 -33 -1 -5 -7 -13 -7 -10 0 3 -15 9 -23 9 -3 0 -13
-2 -22 -4 -26 -7 -30 -6 -48 13 -14 15 -18 23 -12 28 3 4 9 4 22 0 17 -5 27
-3 43 11 14 11 18 12 33 13 17 1 29 5 41 12 6 4 13 7 15 8 2 0 10 2 17 3 15 2
28 8 41 16 10 7 20 8 26 2z m108 -113 c5 -4 6 -6 7 -17 0 -6 0 -13 -1 -15 -3
-3 2 -27 7 -28 2 0 2 -1 -1 -1 -2 0 -6 -1 -8 -3 -4 -3 -16 -6 -22 -6 -6 0 -18
3 -22 6 -2 2 -6 3 -8 3 -3 0 -3 1 -1 1 5 1 10 25 7 28 -1 2 -1 9 -1 15 2 17 7
22 25 22 11 0 14 -1 18 -5z m320 -6 c4 -4 5 -7 5 -15 0 -14 -6 -20 -20 -20
-14 0 -20 6 -20 20 0 14 6 20 20 20 8 0 11 -1 15 -5z m-543 -16 c0 -2 1 -4 3
-5 6 -5 0 -16 -8 -16 -3 0 -6 2 -8 5 -3 4 -3 5 0 15 l4 11 4 -4 c3 -3 5 -5 5
-6z m-571 -33 c10 -9 3 -26 -10 -26 -8 0 -15 7 -15 15 0 13 16 20 25 11z m646
-24 c4 -2 9 -4 11 -4 2 0 2 -1 -2 -2 -2 -1 -6 -6 -8 -11 -4 -9 -4 -14 -4 -195
l1 -185 5 -9 c2 -4 6 -10 8 -13 2 -2 6 -8 9 -13 l5 -9 -4 -5 c-2 -3 -4 -6 -4
-7 0 -1 -4 -7 -12 -17 -5 -6 -10 -26 -11 -51 l-1 -27 9 -20 c5 -11 9 -22 9
-25 0 -6 -6 -13 -19 -22 -5 -4 -11 -8 -13 -10 -8 -10 -12 -17 -12 -21 0 -3 -1
-4 -1 -3 -1 2 -3 2 -6 1 -5 -2 -10 -1 -22 3 -9 3 -21 4 -24 3 -2 -2 -10 -3
-18 -2 -3 0 -7 2 -10 5 -11 10 -4 41 8 40 8 -1 19 -3 20 -5 1 -2 20 1 28 4 3
2 7 6 9 10 4 8 4 12 4 182 l-1 173 -5 9 c-3 7 -6 10 -11 12 -8 2 -21 3 -26 1
-2 -1 -7 -3 -11 -4 -14 -6 -26 -1 -26 12 0 7 4 12 23 25 9 6 21 16 32 29 25
29 25 28 25 94 l-1 52 6 6 c6 6 6 6 20 5 8 -1 16 -4 20 -6z m-843 0 c5 -5 6
-7 6 -16 0 -13 -4 -20 -23 -37 -8 -8 -15 -14 -15 -15 0 -5 -15 -22 -21 -25 -9
-4 -13 -4 -17 1 -5 6 -3 15 9 40 5 11 9 20 9 22 0 5 13 26 18 31 9 8 26 7 34
-1z m1138 3 c13 -4 16 -6 20 -14 5 -12 2 -28 -12 -49 -7 -11 -8 -22 -8 -123 0
-93 0 -101 4 -116 4 -14 16 -39 20 -42 3 -2 10 -17 11 -23 1 -6 -4 -12 -17
-23 -4 -3 -10 -9 -12 -14 l-5 -8 -1 -132 -1 -133 -5 -5 c-4 -3 -6 -4 -6 -3 0
3 -21 2 -29 -1 -5 -2 -11 -7 -16 -13 -11 -14 -16 -13 -21 3 -4 12 -10 23 -12
23 -2 0 -10 15 -10 19 0 3 7 12 9 11 3 -2 33 10 37 16 8 9 14 29 19 62 6 44 7
56 3 65 -4 10 -14 17 -27 20 -4 1 -7 2 -7 4 0 1 -1 0 -3 -2 -2 -3 -2 -3 -7 2
l-4 4 5 5 c4 4 5 4 7 1 1 -2 2 -3 2 -1 0 1 1 2 3 2 6 0 15 7 16 12 2 7 -1 32
-3 36 -3 6 1 16 10 30 4 6 8 15 10 20 3 14 3 112 0 123 -3 7 -20 27 -24 27 -1
0 -3 3 -5 6 -3 5 -3 7 0 12 2 3 4 6 5 6 1 0 6 4 11 10 15 13 15 15 15 90 0 59
0 64 -4 73 -2 5 -6 10 -8 11 -5 2 -5 2 -1 2 2 0 5 1 6 2 3 3 17 8 21 8 1 0 8
-1 14 -3z m-480 -39 c27 -10 36 -20 36 -38 0 -9 -1 -11 -6 -16 -11 -11 -28 -8
-58 12 -21 13 -23 16 -22 32 1 16 22 20 50 10z m620 -35 c3 -3 4 -7 4 -14 0
-13 -6 -19 -19 -19 -13 0 -19 6 -19 19 0 7 1 11 4 14 7 8 23 8 30 0z m-1159
-46 c1 -1 2 -51 1 -146 0 -104 0 -146 2 -152 5 -19 20 -29 59 -38 22 -6 31
-11 31 -17 0 -7 -11 -14 -41 -26 -44 -18 -51 -26 -51 -56 0 -14 2 -22 12 -45
6 -13 6 -14 5 -30 -1 -16 -4 -35 -6 -37 0 0 0 -3 1 -6 1 -3 3 -6 3 -8 2 -8 6
-14 16 -25 l11 -11 -4 -6 c-3 -3 -9 -8 -13 -10 -10 -5 -18 -14 -22 -23 -2 -5
-3 -19 -3 -55 l0 -48 -6 -6 -6 -6 -49 0 -49 1 -6 6 c-3 3 -5 7 -4 8 2 4 0 18
-6 37 l-6 19 3 15 c2 10 3 24 3 38 -1 33 1 35 26 45 20 8 32 20 37 35 2 10 10
51 14 72 8 53 8 58 6 68 -3 12 -10 21 -20 29 -4 4 -12 12 -17 18 -6 8 -13 14
-19 17 -6 3 -10 4 -10 4 0 -1 -2 0 -3 1 -2 2 -7 3 -11 4 -13 2 -19 5 -22 12
-4 8 -4 24 0 32 7 15 33 16 51 2 5 -4 22 -9 30 -9 17 0 26 14 27 42 1 15 3 26
9 39 5 13 6 17 7 35 1 10 1 24 2 30 1 12 4 113 4 135 0 8 1 15 2 16 2 3 9 3
12 0z m1220 -60 c18 -9 29 -33 19 -43 -11 -11 -32 2 -41 24 -4 12 -4 15 1 20
4 4 13 4 21 -1z m-121 -43 c1 0 5 -3 8 -6 5 -5 6 -7 6 -18 0 -11 -1 -13 -6
-18 -6 -6 -7 -6 -18 -6 -11 0 -12 0 -18 6 -5 5 -6 7 -6 17 0 14 3 20 12 24 5
2 8 2 22 1z m-884 -28 c7 -4 12 -10 16 -20 4 -8 4 -11 3 -27 -1 -11 0 -24 1
-32 7 -40 -4 -51 -43 -43 -12 3 -24 4 -37 4 -28 -1 -34 4 -34 24 0 19 12 28
31 25 33 -6 53 11 44 37 -5 17 -6 27 -2 31 4 5 13 5 21 1z m605 -34 c7 -6 7
-19 1 -25 -6 -7 -19 -7 -25 -1 -7 6 -7 19 -1 25 6 7 19 7 25 1z m-1132 -36
c11 -10 3 -28 -11 -28 -9 0 -16 6 -16 16 0 14 17 22 27 12z m96 -4 c7 -6 7
-20 1 -25 -8 -7 -19 -8 -25 -2 -7 6 -7 20 -1 26 6 7 19 7 25 1z m650 -14 c6
-6 6 -7 6 -21 0 -14 0 -16 -6 -20 -8 -7 -28 -7 -36 0 -7 6 -9 24 -4 36 7 14
28 17 40 5z m-683 -77 c14 -6 15 -16 4 -27 -7 -8 -8 -8 -16 -7 -15 3 -26 12
-27 24 0 4 7 13 12 14 6 1 20 -1 27 -4z m1394 -8 c5 -7 6 -26 0 -33 -15 -23
-60 -30 -69 -11 -5 8 -4 24 0 32 4 9 22 17 40 19 16 1 23 0 29 -7z m-343 -38
c3 -5 3 -5 0 -10 -5 -6 -8 -6 -13 -1 -5 5 -6 10 -2 11 2 1 4 2 4 3 0 4 7 2 11
-3z m-399 -83 c1 -2 2 -28 2 -74 0 -59 0 -71 3 -77 4 -9 14 -21 18 -21 2 0 3
-1 3 -2 0 -2 2 -2 88 -3 103 -1 109 -1 119 8 4 4 8 7 9 7 1 0 6 4 11 8 l9 8 3
-8 c7 -17 1 -23 -24 -29 -7 -1 -33 -25 -48 -44 -6 -7 -22 -17 -33 -20 -3 -1
-13 -7 -24 -13 -10 -6 -25 -13 -32 -16 -13 -4 -31 -12 -43 -17 -28 -12 -115
-40 -137 -44 -3 -1 -9 -2 -13 -3 -10 -3 -8 -3 -32 -8 -11 -2 -22 -6 -24 -7 -4
-2 -5 -2 -10 4 l-5 7 0 154 1 155 5 9 c2 5 4 10 4 12 0 2 1 1 2 -2 2 -4 5 -7
11 -9 13 -4 19 -4 34 2 8 3 17 6 20 7 14 4 72 25 73 26 0 2 7 -4 10 -10z
m-242 3 c4 -4 5 -9 4 -19 0 -4 -5 -11 -17 -23 -9 -10 -17 -19 -18 -21 -1 -5
-12 -10 -19 -10 -15 0 -21 16 -11 31 3 4 6 8 7 9 2 2 20 28 20 30 0 2 8 7 14
8 8 2 15 0 20 -5z m429 -9 c10 -9 5 -28 -7 -28 -8 0 -18 9 -18 17 0 13 16 20
25 11z m557 -7 c6 -6 26 -58 26 -68 0 -11 -6 -17 -19 -17 -13 0 -16 3 -30 34
-13 30 -14 41 -6 49 6 6 22 7 29 2z m-1329 -106 c6 -4 6 -6 6 -20 0 -14 0 -16
-6 -20 -4 -4 -7 -5 -18 -5 -11 0 -14 1 -18 5 -6 4 -6 6 -6 20 0 14 0 16 6 20
4 4 7 5 18 5 11 0 14 -1 18 -5z m895 -133 c17 -9 31 -11 44 -7 16 5 27 4 31
-2 6 -9 0 -18 -17 -24 -8 -3 -16 -7 -18 -9 -3 -2 -5 -4 -6 -4 -1 0 -8 -6 -15
-13 -14 -15 -23 -18 -37 -15 -10 2 -16 7 -23 20 -14 25 -13 52 2 58 14 5 23 4
39 -4z m-603 -7 c12 -12 3 -31 -13 -31 -11 0 -18 7 -18 18 0 11 7 18 18 18 6
0 9 -1 13 -5z m386 -89 c4 -6 4 -24 0 -29 -2 -1 -3 -3 -3 -4 0 -8 -26 -5 -32
3 -5 6 -5 24 0 30 7 9 27 9 35 0z m-525 -25 c4 -1 17 -18 19 -25 1 -2 2 -4 3
-4 1 0 2 -1 2 -3 0 -1 1 -3 2 -3 1 -1 4 -6 7 -11 7 -16 7 -31 -1 -39 -6 -6 -7
-6 -18 -6 -3 0 -7 0 -9 0 -5 0 -15 10 -24 24 -5 7 -12 17 -15 21 -13 18 -8 43
10 47 7 2 17 1 24 -1z m636 -9 c0 -1 -2 -3 -5 -4 -4 -2 -6 -2 -9 1 l-4 4 4 4
c4 5 5 5 9 1 3 -1 5 -4 5 -6z m-76 -47 c7 -8 6 -25 -2 -33 -5 -5 -7 -6 -17 -6
-10 0 -12 1 -17 6 -11 10 -7 33 6 40 6 5 23 0 30 -7z m-427 -6 c5 -8 1 -16 -8
-16 -9 0 -13 8 -8 16 2 3 5 5 8 5 3 0 6 -2 8 -5z"/>
<path d="M431 3807 c-10 -4 -16 -13 -16 -24 0 -5 1 -9 1 -9 1 0 2 -2 3 -4 1
-5 9 -8 20 -8 8 0 11 1 17 7 7 6 7 6 6 18 -2 19 -15 27 -31 20z"/>
</g>
</svg>
