<?xml version="1.0" standalone="no"?>
<!DOCTYPE svg PUBLIC "-//W3C//DTD SVG 20010904//EN"
 "http://www.w3.org/TR/2001/REC-SVG-20010904/DTD/svg10.dtd">
<svg version="1.0" xmlns="http://www.w3.org/2000/svg"
 width="1000.000000pt" height="2850.000000pt" viewBox="0 0 1000.000000 2850.000000"
 preserveAspectRatio="xMidYMid meet">
<metadata>
Created by potrace 1.15, written by Peter Selinger 2001-2017
</metadata>
<g transform="translate(0.000000,2850.000000) scale(0.500000,-0.500000)"
fill="#000000" stroke="none">
<path d="M477 3812 c-12 0 -16 -4 -21 -19 -3 -10 -14 -25 -19 -26 -2 -1 -9 -4
-14 -8 -9 -5 -11 -7 -13 -14 -3 -14 -3 -34 2 -39 2 -3 4 -8 6 -12 4 -10 4 -10
17 -13 7 -2 15 -4 19 -5 10 -3 14 -8 14 -21 0 -13 -4 -19 -14 -21 -9 -2 -20 1
-24 5 -5 8 -16 27 -16 30 -1 2 -2 4 -4 4 -1 -1 -2 0 -2 2 0 2 -1 3 -3 1 -3 -1
-7 0 -13 2 -6 2 -12 4 -14 4 -2 0 -7 3 -10 6 -5 5 -6 7 -6 18 0 16 -5 31 -12
36 -3 2 -9 4 -14 5 -9 1 -13 0 -35 -11 -33 -16 -41 -24 -41 -45 0 -6 24 -56
30 -64 8 -9 18 -19 25 -24 10 -8 13 -14 15 -39 2 -20 5 -32 10 -41 1 -2 3 -8
5 -12 2 -4 4 -9 5 -11 2 -4 -11 -18 -16 -18 -5 0 -17 -9 -28 -19 -18 -17 -34
-17 -55 2 -23 22 -22 21 -110 20 -77 -1 -79 -1 -79 -3 0 -1 -1 -2 -3 -2 -4 0
-14 -12 -18 -21 -5 -11 -5 -189 0 -200 4 -9 14 -21 18 -21 2 0 3 -1 3 -2 0 0
2 -2 6 -2 3 -1 139 -1 302 -1 l297 0 18 9 c12 6 21 9 26 9 5 0 14 -3 26 -9
l18 -9 22 0 c13 0 24 -1 25 -2 4 -4 3 -11 -6 -33 -4 -13 -9 -26 -10 -29 -1 -3
-2 -5 -2 -3 0 1 -1 2 -1 2 -4 -1 -13 5 -13 7 0 4 -14 19 -17 19 -2 0 -3 1 -3
2 0 2 -2 2 -85 3 -79 1 -81 1 -91 -3 -9 -4 -22 -17 -22 -23 0 -1 -2 -4 -4 -7
-2 -3 -3 -6 -3 -6 1 -1 -3 -6 -8 -12 -5 -5 -9 -11 -9 -12 0 -1 -1 -2 -2 -2 -3
0 -3 -20 -1 -36 2 -11 -4 -18 -15 -18 -16 0 -20 15 -10 32 7 12 8 15 8 30 0 7
-1 12 -3 14 -2 2 -3 4 -2 4 1 0 -1 3 -3 6 -2 3 -4 6 -4 7 0 5 -12 18 -21 22
-10 5 -10 5 -98 5 -95 0 -96 0 -105 -11 -5 -7 -9 -19 -8 -32 0 -11 -5 -17 -14
-17 -9 0 -14 6 -14 17 1 21 -8 37 -22 41 -5 2 -16 2 -32 1 -29 -1 -30 -1 -30
-3 0 -1 -1 -2 -3 -2 -4 0 -14 -12 -18 -21 -5 -11 -5 -179 0 -190 4 -9 14 -21
18 -21 2 0 3 -1 3 -2 0 -2 2 -2 49 -3 l44 -1 19 6 c24 7 26 7 49 0 l19 -6 207
1 c113 0 207 1 209 1 1 0 2 1 2 2 0 1 1 2 3 2 4 0 14 12 18 21 2 5 3 14 3 33
0 25 0 26 6 33 3 4 6 7 6 5 0 -1 6 -5 13 -8 13 -7 33 -18 54 -31 8 -5 15 -9
16 -9 0 0 7 -4 14 -8 7 -5 17 -11 21 -14 5 -3 21 -13 37 -23 16 -11 29 -19 33
-19 5 -1 5 -1 0 -1 -3 -1 -5 -2 -6 -3 -1 -1 -4 -3 -7 -5 -5 -2 -15 -3 -61 -3
-31 0 -58 -1 -62 -2 -3 -1 -6 -1 -7 0 0 0 -1 0 -1 -2 0 -1 -1 -2 -3 -2 -4 0
-14 -12 -18 -21 -5 -11 -5 -237 0 -248 4 -9 14 -21 18 -21 2 0 3 -1 3 -2 0 -1
2 -2 14 -2 7 0 12 0 14 2 1 1 3 2 6 3 4 2 10 10 18 20 12 19 18 24 31 24 14 1
21 -4 34 -24 8 -12 13 -18 17 -20 3 -1 6 -2 6 -3 0 -2 12 -3 52 -3 39 0 41 0
49 5 7 3 21 16 27 26 8 12 34 11 43 -2 2 -2 6 -7 10 -11 4 -4 8 -11 10 -14 6
-13 7 -17 5 -18 -1 -1 -3 -8 -6 -16 -7 -24 -25 -68 -38 -93 -4 -9 -10 -22 -12
-30 -2 -8 -5 -16 -6 -17 -1 -1 -1 -3 0 -4 0 -1 0 -1 -1 0 -2 1 -3 0 -3 -1 0
-1 -3 -4 -7 -6 -4 -3 -7 -6 -7 -7 0 -3 -41 -62 -53 -74 -1 -1 -6 -7 -11 -13
-13 -16 -58 -61 -77 -77 -20 -17 -25 -21 -49 -39 -10 -8 -20 -15 -21 -15 -1
-1 -9 -6 -17 -12 -8 -5 -19 -12 -23 -15 -4 -3 -12 -7 -18 -10 -12 -6 -17 -14
-18 -30 -1 -12 -1 -14 5 -22 3 -5 6 -11 7 -14 1 -4 2 -6 3 -6 3 0 10 -8 14
-18 4 -8 4 -9 2 -14 -2 -3 -5 -5 -8 -6 -6 -1 -15 10 -17 20 0 4 -2 8 -3 8 -1
0 -2 1 -2 3 0 2 -1 3 -2 2 -1 0 -3 3 -5 8 -2 5 -5 10 -6 10 -2 1 -3 3 -3 5 0
2 -2 12 -5 23 -5 18 -5 22 -5 84 0 59 0 66 -4 74 -4 10 -12 16 -28 25 -19 10
-19 20 0 30 16 8 24 15 28 25 4 7 4 15 4 111 0 90 0 105 -3 111 -4 9 -14 21
-18 21 -2 0 -3 1 -3 2 0 2 -2 2 -81 3 -83 1 -85 1 -98 -12 -3 -3 -9 -10 -13
-15 -8 -8 -9 -8 -17 -7 -15 3 -30 1 -46 -4 l-16 -5 -6 4 c-3 3 -7 9 -9 14 -5
12 -11 18 -21 22 -10 5 -15 5 -42 0 -22 -4 -22 -4 -44 0 -33 6 -180 6 -199 0
-20 -6 -29 -15 -35 -35 -4 -13 -5 -484 -1 -498 4 -13 10 -17 23 -18 7 -1 13
-2 13 -4 1 -1 2 0 3 3 3 10 21 2 21 -9 0 -11 -18 -19 -21 -9 -1 3 -2 4 -3 3 0
-2 -6 -3 -13 -4 -22 -2 -25 -9 -25 -73 0 -39 1 -49 3 -55 4 -9 14 -21 18 -21
2 0 3 -1 3 -2 0 0 2 -2 6 -2 7 -1 162 -1 168 0 10 2 12 6 12 21 0 15 0 15 6
16 4 0 4 0 -2 1 -10 0 -14 6 -14 20 0 16 7 22 26 20 3 0 5 -1 6 -2 1 0 10 -1
22 -1 191 4 196 4 196 9 0 1 2 2 5 3 8 2 15 13 18 29 2 8 3 17 3 20 0 3 2 8 5
11 l4 6 7 -4 c6 -3 13 -4 22 -2 5 0 29 10 31 11 3 3 14 2 18 -1 4 -4 12 -17
11 -18 -6 -3 -19 -7 -25 -7 -4 0 -10 0 -12 -1 -13 -3 -18 -5 -23 -9 -5 -5 -5
-6 -4 -17 2 -20 15 -27 45 -27 11 0 18 1 24 4 9 4 17 12 17 18 0 2 1 4 1 5 1
0 2 3 2 5 1 2 1 5 1 5 0 1 0 5 -2 8 -2 6 -1 14 2 12 1 -1 2 0 2 0 2 4 23 13
29 13 11 0 28 -10 36 -21 4 -5 12 -15 17 -21 10 -11 26 -28 42 -47 4 -4 13
-15 19 -23 7 -8 12 -15 13 -16 1 -1 6 -7 12 -15 19 -26 43 -31 58 -12 5 5 16
31 16 37 0 11 14 17 33 13 25 -6 38 -3 56 12 2 1 10 7 19 13 17 12 18 14 18
28 0 13 -3 20 -12 27 -11 8 -13 12 -13 25 0 19 8 27 27 27 14 0 20 -4 25 -14
2 -4 7 -11 10 -14 7 -7 8 -7 20 -7 15 0 12 -2 52 37 25 25 31 31 49 53 12 14
12 15 12 25 1 15 -3 21 -16 32 l-12 10 -16 -2 c-15 -1 -15 -1 -23 -10 -6 -7
-10 -10 -17 -11 -10 -2 -23 0 -28 6 -9 8 -9 32 0 40 8 9 31 9 41 0 4 -4 13 -5
31 -4 2 0 8 5 14 10 10 10 10 10 22 10 12 0 20 -3 24 -8 3 -4 11 -6 23 -6 16
0 18 2 32 23 4 7 10 15 12 19 3 4 8 14 13 22 5 8 10 15 13 16 7 4 15 -4 27
-28 4 -7 5 -9 15 -24 3 -5 8 -14 11 -20 5 -9 36 -59 41 -65 1 -1 4 -5 6 -8 2
-3 4 -7 5 -8 1 -1 9 -12 18 -24 19 -26 17 -22 34 -43 16 -19 57 -63 84 -90 17
-17 20 -19 42 -29 14 -6 18 -10 25 -21 9 -16 22 -20 49 -17 11 1 13 1 17 -3 3
-3 5 -5 5 -6 0 -1 2 -5 5 -9 4 -6 4 -6 21 -7 14 0 16 0 17 3 2 4 25 41 29 46
2 2 24 32 34 45 1 2 4 6 6 8 2 2 5 7 8 10 3 4 8 11 12 15 11 14 34 39 59 64
13 14 24 26 25 27 3 5 2 21 -1 29 -2 4 -6 9 -15 14 -6 4 -12 7 -13 7 -2 0 -57
36 -69 45 -4 3 -10 8 -13 10 -3 2 -7 5 -9 7 -2 2 -8 6 -12 10 -41 33 -97 89
-122 122 -4 5 -8 10 -9 11 -10 11 -55 74 -68 97 -3 4 -8 12 -12 19 -4 6 -7 12
-7 12 0 1 -2 4 -4 7 -2 3 -14 26 -27 51 l-22 44 5 6 6 5 146 0 145 0 10 5 c12
5 14 8 25 30 6 11 9 14 15 18 17 9 23 14 29 23 l5 9 1 90 c1 49 0 89 -1 89 -1
0 -1 1 0 2 1 1 1 2 0 2 -1 0 -4 3 -5 6 -4 7 -18 14 -26 14 -4 0 -6 1 -6 3 0 9
-2 1 -5 -18 -1 -4 -3 -9 -4 -9 -1 -1 -1 -2 2 -2 5 0 4 -13 -1 -18 -9 -9 -24
-2 -24 11 0 5 1 7 4 7 2 0 2 1 1 2 -2 1 -6 19 -5 22 0 3 -14 14 -21 15 -3 1
-18 1 -31 1 -27 -1 -38 -4 -48 -15 -3 -3 -9 -6 -14 -8 -7 -3 -9 -3 -16 0 -5 2
-11 5 -14 8 -2 3 -9 7 -14 9 -9 5 -11 5 -65 5 -51 0 -57 0 -64 -4 -9 -4 -12
-6 -19 -13 -3 -4 -6 -6 -7 -6 -2 0 -3 -1 -3 -2 -1 -3 -18 -4 -20 -1 0 1 -3 3
-5 4 -2 2 -6 8 -9 16 -4 13 -5 16 -4 47 1 18 1 70 1 115 l0 82 6 6 c6 6 7 6
20 5 21 0 32 8 36 25 0 2 2 6 3 10 1 3 1 5 0 5 -1 0 -2 3 -2 7 0 13 17 20 26
10 4 -4 6 -17 2 -17 -1 0 -1 -2 0 -5 1 -4 3 -8 3 -10 2 -8 9 -18 15 -22 13 -6
22 -4 57 15 13 7 39 16 48 16 8 1 21 -4 21 -8 0 -1 4 -5 9 -10 12 -13 22 -17
44 -16 22 2 30 6 37 20 2 5 5 11 7 13 1 2 2 6 2 8 1 7 5 19 9 27 5 11 6 192 1
205 -4 10 -4 10 -21 11 -7 0 -14 1 -14 1 -1 1 -2 0 -2 -3 0 -2 -1 -6 -3 -9 -2
-4 -4 -11 -5 -16 -2 -13 -7 -17 -20 -17 -12 0 -18 4 -20 16 -1 5 -3 12 -4 15
-2 3 -3 7 -3 9 -1 5 -12 14 -20 17 -7 3 -22 3 -114 3 l-106 -1 -6 6 c-3 4 -6
7 -6 8 -1 7 -4 15 -8 17 -5 4 -31 8 -31 6 -1 -1 -5 -3 -10 -4 -10 -2 -23 0
-28 6 -9 8 -9 32 0 40 5 6 18 8 28 6 5 -1 9 -3 10 -4 0 -2 26 2 31 6 8 6 9 13
9 108 0 77 0 91 -3 97 -4 9 -14 21 -18 21 -2 0 -3 1 -3 2 0 3 -13 3 -133 3
-123 0 -131 -1 -131 -3 0 -1 -1 -2 -3 -2 -4 0 -14 -12 -18 -21 -2 -6 -3 -19
-4 -45 -1 -43 -1 -42 -4 -42 -1 0 -1 -1 0 -1 0 -1 0 -3 -1 -6 -2 -2 -3 -7 -4
-11 l-2 -7 0 8 c0 5 -1 10 -3 12 -2 2 -3 3 -2 3 1 0 1 1 -1 2 -5 3 -28 2 -37
-2 -16 -7 -24 -5 -39 13 -5 5 -10 9 -11 9 -2 0 -3 1 -3 2 0 1 -2 3 -5 3 -4 1
-7 2 -8 3 -1 1 -10 3 -20 5 -10 1 -21 3 -25 4 -27 5 -44 2 -48 -9 -3 -7 -3
-20 0 -27 1 -3 4 -13 7 -21 5 -17 9 -20 32 -28 15 -6 19 -11 19 -26 0 -11 -1
-13 -6 -18 -3 -3 -7 -6 -9 -6 -13 -1 -20 0 -24 3 -6 4 -6 5 -14 28 -5 18 -8
21 -32 29 -15 6 -19 11 -19 26 0 11 1 13 7 19 6 7 7 9 7 22 0 7 -1 14 -2 14
-1 1 -2 2 -1 3 1 1 1 2 0 2 -1 -1 -5 1 -8 3 -8 4 -15 4 -26 1 -16 -5 -27 -22
-30 -45 0 -7 -2 -19 -3 -28 -1 -9 -2 -19 -3 -22 -1 -12 -3 -26 -4 -31 -1 -3
-2 -11 -3 -19 -2 -16 -3 -17 -8 -50 -2 -13 -5 -26 -5 -28 0 -2 -4 -18 -7 -36
-11 -55 -9 -65 14 -68 17 -2 33 13 40 36 2 7 4 15 4 19 0 14 12 21 28 18 10
-2 14 -8 14 -21 0 -10 -1 -12 -10 -22 -9 -10 -13 -17 -15 -31 -1 -4 -2 -7 -2
-8 0 0 0 -3 1 -7 3 -8 -1 -23 -7 -28 -14 -13 -38 -10 -48 6 -4 6 -5 6 -19 6
-19 1 -23 -2 -27 -21 -2 -7 -5 -19 -7 -26 -2 -7 -4 -16 -4 -20 0 -6 -1 -6 -2
-2 -1 3 -2 4 -3 2 -2 -4 -9 1 -13 11 -3 8 -7 12 -29 30 -7 5 -10 18 -7 30 2 8
3 10 19 22 7 6 8 7 8 20 1 11 1 15 -2 17 -2 2 -3 5 -3 5 0 3 -15 23 -22 30
-13 13 -14 13 -103 13 l-80 -1 -14 -7 c-13 -6 -29 -16 -31 -18 -1 -1 -4 -3 -7
-5 -4 -1 -8 -4 -9 -6 -13 -12 -33 -15 -41 -6 -9 8 -6 26 6 38 2 2 9 11 16 18
6 8 13 16 16 17 5 3 26 3 29 1 9 -7 34 -11 45 -7 3 1 6 2 7 2 1 0 5 4 9 9 8 8
13 19 13 29 0 8 -26 65 -39 85 -5 7 -12 22 -17 32 -8 19 -38 76 -46 87 -2 3
-4 6 -5 8 0 2 -3 7 -6 11 -3 4 -6 11 -8 14 -11 19 -21 26 -38 25z m823 -60 c5
-6 5 -12 0 -18 -7 -8 -22 -2 -22 9 0 11 15 17 22 9z m-89 -116 c2 0 3 2 3 3 0
7 2 1 4 -11 3 -18 13 -38 19 -38 1 0 4 -1 5 -3 1 -2 3 -3 4 -2 1 1 3 -2 4 -5
2 -5 2 -6 -3 -12 -23 -23 -28 -33 -28 -59 0 -19 0 -20 -6 -26 -5 -5 -7 -6 -13
-5 -7 0 -18 9 -17 13 0 1 1 5 2 8 0 3 4 24 8 46 3 22 7 44 8 48 0 4 2 13 3 20
1 7 2 19 2 27 1 11 1 12 1 6 1 -7 2 -10 4 -10z m106 -20 c2 -3 3 -8 3 -15 0
-16 -7 -22 -22 -21 -12 0 -33 7 -31 10 3 6 8 17 10 19 6 9 9 12 15 13 9 2 20
-1 25 -6z m-171 -8 c5 -6 5 -12 0 -18 -7 -8 -22 -2 -22 9 0 11 15 17 22 9z
m-119 -71 c19 -8 13 -35 -7 -35 -20 0 -26 27 -7 35 8 4 6 3 14 0z m30 -91 c7
-6 7 -19 1 -25 -6 -7 -19 -7 -25 -1 -7 6 -7 19 -1 25 6 7 19 7 25 1z m-640
-38 c11 -10 3 -28 -11 -28 -9 0 -16 6 -16 16 0 14 17 22 27 12z m1162 -50 c17
-9 46 -21 70 -28 23 -7 29 -12 29 -21 0 -12 -5 -14 -40 -16 -39 -2 -35 -3 -55
7 -10 4 -22 9 -27 11 -22 8 -25 12 -23 31 0 11 1 13 6 17 8 8 25 7 40 -1z
m219 -8 c13 -4 18 -9 18 -18 0 -9 -7 -16 -15 -16 -7 0 -29 7 -37 12 -6 3 -14
12 -14 14 0 1 2 4 4 7 3 5 4 5 19 4 9 0 20 -2 25 -3z m-719 -34 c5 -5 6 -7 6
-16 0 -9 -1 -11 -7 -16 -5 -6 -7 -7 -16 -7 -9 0 -11 1 -16 7 -9 8 -9 23 -1 32
9 9 24 9 34 0z m365 -65 c14 -7 14 -41 0 -48 -3 -2 -11 -3 -17 -3 -14 0 -22 4
-25 12 -4 9 -3 24 1 31 6 12 26 16 41 8z m-234 -13 c4 -4 5 -14 2 -18 -3 -3
-3 -25 -1 -37 1 -6 9 -15 14 -15 2 0 3 -1 2 -1 0 -1 1 -4 3 -7 7 -10 12 -22
12 -28 0 -6 -2 -12 -16 -34 -7 -13 -8 -21 -9 -77 -1 -30 -2 -54 -2 -55 -1 -1
5 -16 9 -22 5 -7 26 -18 34 -18 2 0 6 -3 9 -6 5 -5 6 -8 6 -16 0 -9 -1 -11 -7
-16 -5 -6 -7 -7 -16 -7 -12 0 -15 3 -31 27 -10 16 -18 20 -37 22 -32 2 -45
-12 -44 -46 0 -10 -1 -15 -3 -18 -8 -9 -28 -9 -35 0 -3 3 -4 8 -4 20 0 11 -1
17 -3 23 -4 7 -4 7 -16 7 -11 0 -14 -1 -24 -8 -11 -7 -13 -8 -24 -8 -11 0 -14
1 -20 6 -12 9 -32 28 -29 28 2 -1 3 0 3 1 -1 2 0 2 2 2 1 -1 5 0 8 1 3 1 5 2
3 2 -2 0 0 1 4 3 9 3 12 9 11 21 -1 13 -2 17 -9 25 -7 10 -10 20 -10 37 0 19
4 34 9 39 6 6 17 7 25 2 7 -4 26 -4 34 0 4 2 9 5 11 8 2 3 10 25 18 49 18 56
16 54 53 54 30 0 28 0 34 3 8 4 12 10 13 18 1 4 2 10 2 13 1 2 0 5 -2 7 -8 8
0 23 11 23 3 0 8 -2 10 -4z m-285 -77 c12 -7 14 -33 3 -43 -8 -9 -32 -9 -40 0
-9 8 -9 32 0 41 7 7 27 8 37 2z m528 -11 c7 -6 10 -20 7 -31 -3 -10 -4 -12
-17 -20 -9 -6 -15 -12 -16 -17 0 -1 -1 -4 -3 -7 -1 -3 -2 -9 -2 -15 1 -29 2
-27 -19 -52 -18 -21 -23 -25 -35 -25 -9 0 -11 1 -16 7 -10 9 -9 20 2 41 12 23
21 36 27 39 5 3 16 14 20 20 3 4 4 25 3 31 -2 8 1 22 6 28 5 6 10 7 24 6 11 0
15 -1 19 -5z m-1054 -23 c5 -8 1 -16 -8 -16 -9 0 -13 8 -8 16 2 3 5 5 8 5 3 0
6 -2 8 -5z m1078 -235 c5 -5 6 -7 6 -16 0 -9 -1 -11 -7 -16 -5 -6 -7 -7 -16
-7 -9 0 -11 1 -16 7 -9 8 -9 23 -1 32 9 9 24 9 34 0z m197 -19 c5 -5 6 -16 2
-27 -3 -10 -2 -31 1 -41 4 -12 4 -26 0 -34 -8 -16 -40 -16 -48 0 -5 8 -5 25 0
32 4 6 11 28 11 35 0 3 0 11 0 18 0 10 0 13 4 17 7 8 23 8 30 0z m-711 -8 c3
-5 3 -5 0 -10 -2 -3 -5 -5 -7 -5 -2 0 -5 2 -7 5 -3 5 -3 5 0 10 2 3 5 5 7 5 2
0 5 -2 7 -5z m361 -61 c8 -5 11 -19 8 -29 -5 -13 -12 -16 -33 -15 -2 0 -6 3
-9 6 -5 5 -6 7 -6 17 0 14 3 20 12 24 8 3 22 2 28 -3z m-157 -2 c10 -9 3 -26
-10 -26 -8 0 -15 7 -15 15 0 13 16 20 25 11z m238 -25 c1 -2 2 -3 3 -3 1 0 4
-2 7 -5 2 -3 5 -4 6 -4 0 1 1 1 1 -1 0 -1 1 -2 2 -1 1 1 2 0 2 -1 0 -3 28 -1
31 3 3 5 20 5 25 0 8 -8 8 -24 0 -32 -5 -4 -22 -5 -25 0 -1 2 -3 3 -4 3 -1 0
-3 2 -6 5 -2 3 -5 4 -6 4 0 -1 -1 -1 -1 1 0 1 -1 2 -2 1 -1 -1 -2 0 -2 1 0 3
-28 1 -31 -3 -4 -5 -20 -5 -26 1 -8 7 -7 25 1 31 6 5 24 5 25 0z m144 -38 c3
-5 3 -6 1 -11 -6 -10 -18 -7 -18 5 0 12 11 15 17 6z m-174 -64 c3 -3 3 -3 0
-6 -3 -3 -3 -3 -6 0 -3 2 -3 3 -1 6 4 4 4 4 7 0z m87 -2 c4 -4 5 -7 5 -21 0
-22 -6 -35 -17 -35 -11 0 -17 13 -17 35 0 19 5 26 17 26 5 0 9 -1 12 -5z
m-785 -91 c11 -10 3 -28 -11 -28 -9 0 -16 6 -16 16 0 14 17 22 27 12z m-217
-32 c5 -6 4 -19 -3 -38 -8 -20 -14 -26 -27 -26 -25 0 -28 26 -4 52 15 16 27
20 34 12z m-247 -53 c4 -4 5 -7 5 -13 0 -11 -7 -18 -18 -18 -11 0 -18 7 -18
18 0 11 7 18 18 18 6 0 9 -1 13 -5z m384 -34 c4 -4 5 -7 5 -13 0 -11 -7 -18
-18 -18 -11 0 -18 7 -18 18 0 11 7 18 18 18 6 0 9 -1 13 -5z m562 -17 c4 -3 5
-7 5 -13 0 -11 -6 -17 -17 -17 -10 0 -17 6 -18 18 -1 7 -1 9 3 12 7 6 21 5 27
0z m-666 -65 l6 -6 0 -57 0 -57 -6 -6 -6 -6 -42 0 -42 0 -6 6 -6 6 0 57 0 57
6 6 6 6 42 0 42 0 6 -6z m718 -13 c11 -14 -4 -51 -24 -61 -20 -10 -40 -2 -45
16 -6 23 9 42 40 50 13 3 23 1 29 -5z m-127 -54 c5 -5 5 -11 0 -16 -10 -10
-27 5 -16 16 4 4 12 4 16 0z m407 -4 c4 -6 4 -24 -1 -30 -7 -9 -27 -9 -34 0
-5 6 -5 24 0 30 7 9 27 9 35 0z m-1263 -109 l-5 -5 -4 4 -5 5 4 4 5 5 4 -4 5
-5 -4 -4z m467 -5 c5 -5 6 -7 6 -16 0 -9 -1 -11 -7 -16 -5 -6 -7 -7 -16 -7 -9
0 -11 1 -16 7 -9 8 -9 23 -1 32 9 9 24 9 34 0z m-142 -23 c6 -6 7 -20 2 -29
-4 -6 -8 -7 -24 -6 -12 1 -18 25 -8 35 4 4 7 5 15 5 8 0 11 -1 15 -5z m27 -73
c0 -1 1 -2 3 -2 4 0 3 -6 -1 -11 -3 -2 -4 -2 -7 3 -3 5 -3 6 -1 9 3 3 6 4 6 1z"/>
<path d="M160 2922 c-3 -1 -6 -1 -7 0 0 0 -1 0 -1 -2 0 -1 -1 -2 -3 -2 -4 0
-14 -12 -18 -21 -5 -11 -5 -179 0 -190 4 -9 14 -21 18 -21 2 0 3 -1 3 -2 0 -2
9 -3 37 -3 l26 0 15 8 c20 11 28 11 48 0 14 -7 16 -8 31 -8 18 0 29 4 39 16
23 25 20 23 35 23 15 0 12 2 35 -23 11 -13 20 -16 44 -16 17 0 22 1 27 4 6 3
6 3 5 18 0 13 0 15 3 16 3 0 2 1 -1 1 -9 0 -14 8 -14 22 0 11 1 13 6 18 6 6 7
6 18 6 11 0 12 0 18 -6 5 -5 6 -7 6 -18 0 -14 -5 -22 -14 -22 -3 0 -4 -1 -1
-1 3 -1 3 -3 3 -16 -1 -14 -1 -15 5 -18 8 -5 34 -6 46 -3 16 4 27 19 30 41 3
13 10 20 25 20 15 0 22 -7 25 -20 3 -20 15 -37 27 -40 4 -1 12 -1 20 0 7 1 17
1 22 1 23 0 27 0 34 3 9 3 15 10 19 20 5 11 5 179 0 190 -4 9 -14 21 -18 21
-2 0 -3 1 -3 2 0 2 -2 2 -111 3 -112 1 -116 1 -128 -8 -6 -5 -15 -19 -19 -32
-3 -9 -9 -13 -21 -13 -12 0 -18 4 -21 13 -7 21 -17 34 -32 39 -8 2 -250 3
-258 0z m236 -87 c16 -7 20 -37 7 -48 -12 -11 -34 -11 -43 0 -9 10 -9 32 0 42
7 8 24 11 36 6z"/>
<path d="M347 1952 l-6 -2 6 0 5 0 0 -16 c0 -13 1 -16 2 -12 1 2 3 4 3 3 1 0
2 5 1 12 l0 13 6 0 c6 1 6 1 -2 2 -5 1 -12 0 -15 0z"/>
</g>
</svg>
