<?xml version="1.0" standalone="no"?>
<!DOCTYPE svg PUBLIC "-//W3C//DTD SVG 20010904//EN"
 "http://www.w3.org/TR/2001/REC-SVG-20010904/DTD/svg10.dtd">
<svg version="1.0" xmlns="http://www.w3.org/2000/svg"
 width="1100.000000pt" height="2850.000000pt" viewBox="0 0 1100.000000 2850.000000"
 preserveAspectRatio="xMidYMid meet">
<metadata>
Created by potrace 1.15, written by Peter Selinger 2001-2017
</metadata>
<g transform="translate(0.000000,2850.000000) scale(0.500000,-0.500000)"
fill="#000000" stroke="none">
<path d="M1275 3809 c-16 -8 -20 -13 -34 -50 -4 -10 -10 -25 -14 -33 -10 -20
-11 -27 -4 -49 6 -19 6 -20 -5 -28 -2 -2 -3 -3 0 -5 2 -1 1 -2 -3 -3 -3 0 -12
-2 -20 -4 -8 -2 -30 -4 -53 -5 -34 -1 -40 -2 -49 -6 -5 -2 -14 -6 -19 -9 -5
-2 -13 -4 -19 -4 -10 0 -14 2 -38 14 -10 4 -12 4 -95 5 -85 1 -86 1 -90 6 -3
2 -7 4 -8 4 -3 0 -3 0 0 2 4 2 1 12 -9 33 -8 15 -32 57 -37 64 -1 1 -6 8 -11
15 -6 7 -10 13 -11 14 -1 1 -3 3 -4 5 -10 15 -25 28 -34 30 -18 4 -21 4 -82
-15 -64 -20 -66 -21 -70 -30 -3 -8 -2 -31 3 -36 5 -5 5 -20 0 -27 -7 -11 -28
-25 -37 -25 -9 0 -25 -10 -29 -19 -3 -6 -3 -8 -2 -8 2 -1 -2 -4 -8 -7 l-11 -6
-47 0 c-37 0 -50 -1 -56 -3 -4 -2 -7 -3 -6 -3 1 0 1 -1 -1 -2 -3 -2 -3 -5 -3
-16 1 -12 1 -14 -2 -14 -3 0 -2 -1 1 -2 13 -5 13 -34 -1 -43 -7 -5 -28 -4 -34
2 -10 8 -9 37 1 41 3 1 4 2 2 2 -1 0 -2 4 -2 13 1 24 -4 26 -70 24 -52 -1 -54
-1 -54 -3 0 -1 -1 -2 -3 -2 -4 0 -14 -12 -18 -21 -5 -11 -5 -153 0 -164 4 -9
14 -21 18 -21 2 0 3 -1 3 -2 0 -2 10 -3 52 -3 41 0 41 0 51 5 6 3 12 7 13 8 6
6 19 12 25 12 6 0 19 -6 25 -12 1 -1 7 -5 13 -8 l10 -5 102 0 102 0 8 5 c5 2
12 7 15 11 23 25 20 23 35 23 15 0 12 2 35 -23 14 -15 16 -16 76 -16 l53 0 6
-6 6 -6 -6 -6 -6 -6 -45 0 c-50 0 -55 -1 -70 -16 -20 -18 -30 -18 -50 0 -4 4
-11 9 -16 12 l-9 4 -170 0 c-167 0 -181 0 -181 -3 0 -1 -1 -2 -3 -2 -4 0 -14
-12 -18 -21 -4 -11 -4 -67 0 -94 3 -15 3 -22 2 -31 -3 -17 -1 -29 7 -37 4 -4
8 -7 9 -7 2 0 3 -1 3 -2 0 -3 1 -3 156 -3 l151 -1 9 4 c12 6 18 19 19 39 1 15
2 20 7 26 9 10 31 11 43 1 5 -4 7 -11 8 -27 1 -20 7 -33 19 -39 9 -4 10 -4 69
-4 l60 1 6 -6 c8 -8 8 -11 0 -18 -4 -4 -7 -6 -7 -5 0 1 -57 -1 -62 -2 -2 -1
-4 -2 -5 -3 -1 -1 -5 -3 -8 -5 -4 -2 -10 -9 -15 -16 -9 -14 -13 -16 -25 -16
-12 0 -16 2 -25 16 -5 7 -11 14 -15 16 -3 2 -7 4 -8 5 -1 1 -4 2 -7 3 -6 1
-543 1 -550 0 -4 0 -6 -2 -6 -2 0 -1 -1 -2 -3 -2 -4 0 -14 -12 -18 -21 -5 -11
-5 -165 0 -176 4 -9 14 -21 18 -21 2 0 3 -1 3 -2 0 -1 1 -2 3 -2 1 0 79 -1
172 -1 168 -1 187 -1 187 5 0 1 1 2 3 2 1 0 5 3 7 7 5 6 8 11 16 29 5 11 13
16 29 17 10 1 11 1 16 -4 3 -3 5 -8 5 -12 0 -16 10 -37 17 -37 2 0 3 -1 3 -2
0 -5 19 -6 207 -6 l191 0 24 6 24 6 24 -6 c12 -3 30 -6 39 -7 8 0 18 -2 23 -4
4 -2 10 -4 13 -5 l6 -2 -6 0 c-4 0 -8 -2 -13 -7 -12 -12 -7 -32 12 -46 11 -8
14 -15 14 -28 0 -10 -1 -12 -6 -17 -6 -6 -7 -6 -18 -6 -3 0 -7 0 -9 0 -1 0 -9
5 -19 11 -23 15 -26 15 -99 15 l-62 -1 -6 6 c-6 6 -6 7 -5 22 0 11 -1 18 -3
24 -4 9 -14 21 -18 21 -2 0 -3 1 -3 2 0 3 -3 3 -121 3 -118 0 -121 0 -121 -3
0 -1 -1 -2 -2 -2 -2 0 -5 -2 -8 -5 -5 -4 -6 -6 -6 -17 0 -12 0 -12 12 -25 7
-9 12 -16 12 -19 1 -9 0 -15 -4 -21 -3 -7 -4 -33 -1 -46 2 -10 -3 -17 -12 -17
-10 0 -12 4 -12 29 0 29 -3 34 -22 42 l-14 6 -170 0 c-167 0 -181 0 -181 -3 0
-1 -1 -2 -3 -2 -4 0 -14 -12 -18 -21 -5 -11 -5 -129 0 -140 4 -9 14 -21 18
-21 2 0 3 -1 3 -2 0 -3 11 -3 86 -3 77 0 83 0 89 5 2 1 3 2 4 0 1 -1 3 -2 6
-2 3 0 5 1 6 2 1 2 2 1 4 0 6 -5 12 -5 96 -5 l82 0 6 -6 6 -6 -6 -6 -6 -6
-171 0 -171 0 -12 -6 c-15 -7 -20 -11 -28 -21 -14 -19 -16 -26 -26 -72 -18
-88 -37 -164 -56 -233 -12 -40 -12 -52 1 -63 12 -10 11 -10 183 -10 136 0 162
0 168 -3 4 -1 7 -4 7 -5 0 -1 2 -2 4 -2 2 0 2 -1 0 -1 -2 -1 -7 -5 -12 -9 -46
-38 -127 -76 -215 -102 -12 -3 -28 -8 -35 -10 -19 -6 -24 -11 -24 -28 -1 -15
-1 -16 16 -28 4 -3 8 -6 9 -7 1 -2 7 -7 12 -11 20 -17 36 -31 47 -42 18 -17
52 -51 65 -64 22 -23 36 -29 56 -26 35 7 143 49 188 73 34 19 51 29 68 42 11
8 26 19 28 20 1 1 6 5 11 9 4 3 9 9 11 12 4 7 4 27 0 38 -9 25 4 38 28 29 9
-3 27 -2 36 2 9 4 34 42 55 83 4 8 8 16 8 17 0 1 3 4 8 7 l7 5 105 1 105 1 6
-6 6 -6 -1 -142 c0 -126 0 -143 3 -150 4 -9 14 -21 18 -21 2 0 3 -1 3 -2 0 -3
13 -3 124 -3 111 0 124 0 124 3 0 1 1 2 3 2 4 0 14 12 18 21 3 6 3 18 3 74 0
71 -1 78 -11 89 -4 4 -27 16 -32 16 -2 0 -6 3 -9 6 -5 5 -6 7 -6 18 0 15 4 20
23 27 19 7 24 12 30 24 4 9 5 13 5 24 -1 13 -1 14 5 20 l6 6 95 -1 95 -1 6 -5
c4 -4 6 -7 6 -12 0 -4 2 -14 3 -23 3 -14 3 -16 -1 -22 -4 -7 -6 -8 -14 -4 -2
2 -8 4 -12 5 -4 1 -9 3 -10 4 -7 5 -24 8 -56 9 -35 1 -43 0 -55 -9 -5 -4 -20
-27 -20 -31 0 -2 -4 -6 -9 -10 -10 -9 -16 -19 -19 -32 -2 -10 -2 -11 5 -24 4
-8 8 -16 10 -18 9 -9 12 -22 9 -37 -3 -19 -1 -28 7 -37 14 -14 19 -15 92 -15
l61 0 12 5 c7 4 14 10 20 17 13 16 17 19 28 19 10 0 17 -4 29 -16 11 -11 31
-14 49 -8 45 15 83 43 105 78 18 27 36 72 44 107 14 68 25 138 30 200 1 14 -1
29 -5 32 0 1 -2 3 -3 5 -1 2 -7 6 -13 10 -10 5 -13 5 -34 5 -35 0 -41 -4 -51
-28 -3 -8 -7 -15 -9 -17 -3 -3 -4 -3 -8 2 -2 3 -5 10 -8 16 -2 7 -6 14 -8 16
-5 6 -17 11 -27 11 -10 0 -32 -8 -38 -14 -7 -5 -17 -10 -22 -10 -5 0 -15 5
-22 10 -2 2 -10 6 -17 9 l-13 5 -116 0 -116 -1 -6 6 c-3 3 -6 5 -7 5 -1 0 -2
1 -1 2 1 2 -3 10 -14 28 -16 25 -5 38 35 38 24 0 71 -18 77 -30 4 -7 18 -22
22 -22 2 0 3 -1 3 -2 0 -2 9 -3 32 -3 24 0 28 1 48 20 11 9 14 11 20 11 6 0 9
-2 20 -11 23 -21 19 -20 84 -20 57 0 68 1 68 3 0 1 1 2 3 2 4 0 14 12 18 21 5
12 5 344 0 356 -4 9 -14 21 -18 21 -2 0 -3 1 -3 2 0 3 -1 3 -150 3 -107 1
-147 1 -154 -1 -9 -3 -21 -13 -23 -20 -1 -3 -2 -7 -3 -9 -1 -2 -3 -7 -5 -12
-5 -12 -29 -20 -36 -13 -3 4 -5 14 -3 15 2 1 2 4 -2 17 -1 4 -3 7 -4 7 -1 -1
-2 2 -3 6 -2 7 -2 6 -6 16 -2 5 -3 13 -3 26 0 32 -10 47 -31 47 -10 0 -13 -4
-18 -20 -3 -10 -4 -14 -3 -18 3 -7 -1 -21 -6 -27 -3 -3 -10 -7 -17 -8 -2 -1
-6 -2 -8 -3 -2 -1 -8 -3 -13 -5 -4 -2 -11 -6 -14 -9 -20 -19 -33 -22 -45 -12
-11 11 -10 25 5 57 9 19 1 45 -15 45 l-6 0 6 2 c3 1 10 4 15 6 12 6 31 10 47
9 16 -1 54 -8 60 -12 7 -4 17 -4 29 1 11 5 12 5 139 6 144 1 127 -1 155 17 21
14 27 13 51 -2 10 -6 21 -12 26 -13 6 -2 159 -2 167 0 1 0 2 1 2 2 0 1 1 2 3
2 4 0 14 12 18 21 2 6 3 15 3 45 0 37 0 39 -5 49 -5 8 -7 11 -16 19 -1 0 -6 3
-11 6 -5 3 -10 7 -12 9 -5 6 -8 20 -6 28 3 17 -5 34 -21 40 -16 6 -43 6 -362
6 l-322 0 -6 6 c-7 8 -7 10 0 18 l6 6 61 -1 c57 0 61 0 69 4 12 6 18 17 20 39
2 14 7 19 20 19 13 0 18 -5 20 -19 2 -22 8 -33 20 -39 8 -4 12 -4 166 -3 162
0 163 0 163 3 0 1 1 2 3 2 4 0 14 12 18 21 5 11 5 137 0 148 -4 9 -14 21 -18
21 -2 0 -3 1 -3 2 0 3 -13 2 -20 -1 -8 -4 -18 -20 -18 -28 0 -1 -1 -3 -2 -4
-1 0 -1 -4 0 -7 1 -9 -6 -16 -17 -16 -11 0 -18 7 -17 16 1 3 1 7 0 7 -1 1 -2
3 -2 4 0 2 -2 8 -5 14 -9 20 7 18 -202 18 -100 0 -193 -1 -206 -1 -46 -2 -74
5 -86 22 -4 4 -7 10 -7 12 0 6 7 12 14 11 5 0 21 -8 24 -11 1 -1 5 -3 9 -5 7
-4 16 -4 112 -5 99 0 103 0 112 4 6 2 10 6 11 9 2 6 3 27 0 27 -2 0 -10 18
-10 24 0 13 12 17 39 11 25 -6 34 -11 38 -22 2 -5 4 -11 4 -12 0 -10 26 -17
43 -11 9 3 12 2 29 -14 12 -11 12 -11 23 -10 13 0 20 6 27 18 11 22 19 28 34
29 15 1 25 -7 36 -29 4 -8 15 -18 19 -18 1 0 2 -1 2 -2 0 -2 0 -2 24 -3 15 -1
23 -1 38 3 11 2 22 4 24 4 5 0 22 5 29 10 3 1 7 6 9 10 4 9 4 10 4 81 l-1 72
-7 13 c-5 12 -7 14 -16 19 -14 6 -23 6 -44 0 -16 -5 -18 -7 -22 -13 -7 -13 -5
-25 6 -41 9 -11 8 -27 0 -35 -5 -5 -7 -6 -17 -6 -10 0 -12 1 -17 6 -8 8 -8 22
0 37 5 8 6 13 6 21 0 18 -4 23 -28 31 l-17 5 -61 0 -61 0 -7 5 -7 6 6 6 c7 7
37 42 53 61 9 13 10 14 10 24 0 7 -1 13 -3 16 -2 2 -3 4 -2 4 5 0 -16 10 -24
12 -19 3 -33 -5 -47 -28 -7 -11 -11 -14 -21 -14 -10 0 -15 5 -18 21 -4 20 -10
30 -20 36 -8 5 -21 8 -74 17 -36 7 -68 12 -72 13 -17 3 -28 3 -38 -2z m158
-123 c16 -7 16 -43 -1 -50 -15 -6 -34 -2 -39 9 -4 8 -4 24 0 32 5 12 23 15 40
9z m-803 -8 c4 -4 4 -6 3 -15 -1 -13 -11 -34 -19 -40 -11 -10 -30 -4 -30 10 0
7 8 31 13 38 8 10 26 14 33 7z m147 -75 c5 -3 7 -9 3 -9 -1 0 -1 -2 0 -5 2
-13 -17 -20 -27 -11 -6 6 -7 17 -1 23 6 6 18 7 25 2z m519 -13 c2 -2 5 -8 6
-13 1 -6 4 -13 5 -17 2 -4 5 -13 7 -21 4 -12 4 -14 1 -18 -7 -11 -17 -4 -21
13 -2 8 -8 21 -15 33 -7 12 -8 18 -3 23 5 5 14 5 20 0z m-365 -168 c11 -10 3
-28 -11 -28 -9 0 -16 6 -16 16 0 14 17 22 27 12z m122 -20 c11 -10 3 -28 -11
-28 -9 0 -16 6 -16 16 0 14 17 22 27 12z m-280 -120 c7 -6 7 -19 1 -25 -6 -7
-19 -7 -25 -1 -7 6 -7 19 -1 25 6 7 19 7 25 1z m86 -167 c22 -13 33 -44 20
-56 -13 -13 -47 -1 -59 20 -4 7 -5 25 -2 31 7 12 25 14 41 5z m329 -8 c3 -3 4
-7 4 -14 0 -13 -6 -19 -19 -19 -13 0 -19 6 -19 19 0 7 1 11 4 14 7 8 23 8 30
0z m-873 1 c11 -10 3 -28 -11 -28 -9 0 -16 6 -16 16 0 14 17 22 27 12z m86
-44 c7 -6 7 -19 1 -25 -6 -7 -19 -7 -25 -1 -7 6 -7 19 -1 25 6 7 19 7 25 1z
m1323 0 c8 -4 13 -11 15 -20 2 -13 -11 -19 -29 -13 -11 4 -16 10 -16 20 0 15
14 22 30 13z m-168 -15 c3 -3 4 -7 4 -14 0 -13 -6 -19 -19 -19 -13 0 -19 6
-19 19 0 7 1 11 4 14 7 8 23 8 30 0z m-764 -12 c10 -3 14 -6 16 -17 4 -17 -3
-31 -18 -34 -17 -4 -31 3 -34 18 -4 17 3 31 16 34 10 2 10 2 20 -1z m142 -43
c5 -5 5 -11 0 -16 -10 -10 -27 5 -16 16 4 4 12 4 16 0z m282 -218 c0 -1 3 -3
6 -5 7 -4 11 -13 11 -25 -1 -18 -10 -27 -28 -27 -19 0 -28 9 -28 28 0 8 5 23
8 23 0 0 5 2 10 4 11 3 21 4 21 2z m163 -3 c6 -6 2 -25 -7 -33 -11 -10 -30 -1
-30 13 0 11 3 15 15 20 10 5 18 5 22 0z m120 -33 c5 -5 6 -7 6 -16 0 -15 -8
-23 -23 -23 -9 0 -11 1 -16 7 -9 8 -9 23 -1 32 9 9 24 9 34 0z m-1092 -48 c-4
-5 -7 -5 -11 -1 -4 4 -4 4 0 8 l5 5 4 -4 c5 -4 5 -5 2 -8z m1259 -6 c5 -5 5
-15 0 -20 -9 -9 -24 -2 -24 10 0 8 6 14 14 14 3 0 8 -2 10 -4z m-1263 -13 c0
-7 1 -13 2 -14 1 0 -1 0 -4 0 -3 0 -5 0 -4 0 1 1 2 7 2 14 -1 10 0 13 2 13 2
0 3 -3 2 -13z m668 -30 l6 -6 -6 -6 -6 -6 -82 0 -82 0 -6 6 -6 6 6 6 6 6 82 0
82 0 6 -6z m428 2 c15 -3 21 -10 21 -22 0 -6 -1 -9 -5 -13 -7 -6 -17 -5 -40 6
-17 9 -19 9 -36 9 -26 0 -34 -5 -47 -30 -11 -21 -13 -23 -29 -23 -17 0 -23 5
-24 18 -2 16 0 22 12 34 6 6 10 11 10 12 -1 0 4 3 10 6 l10 6 53 0 c39 0 56
-1 65 -3z m-645 -67 c4 -4 7 -29 5 -37 0 -2 -1 -7 -1 -10 0 -5 -2 -9 -5 -12
l-6 -5 -8 5 c-17 9 -29 47 -19 59 6 8 27 9 34 0z m-193 1 c3 -5 3 -5 0 -10 -2
-3 -5 -5 -7 -5 -2 0 -5 2 -7 5 -3 5 -3 5 0 10 2 3 5 5 7 5 2 0 5 -2 7 -5z m4
-89 c4 -6 4 -24 0 -30 -8 -9 -34 -8 -38 2 -3 6 -1 25 3 29 8 8 28 7 35 -1z
m-398 -31 c12 -12 3 -31 -13 -31 -11 0 -18 7 -18 18 0 11 7 18 18 18 6 0 9 -1
13 -5z m864 -4 c3 -5 3 -5 0 -10 -5 -6 -10 -6 -13 0 -2 4 -2 6 0 10 3 6 8 6
13 0z m-61 -38 l-5 -6 -83 1 c-82 1 -83 1 -89 6 l-6 4 6 5 c6 4 7 4 89 5 l83
1 5 -5 6 -6 -6 -5z m-479 10 l5 -5 -5 -5 -6 -5 -64 0 -65 0 -5 5 -6 4 6 6 6 5
64 0 64 0 6 -5z m191 -26 c3 -3 4 -7 4 -14 0 -13 -6 -19 -19 -19 -13 0 -19 6
-19 19 0 7 1 11 4 14 7 8 23 8 30 0z m371 -26 c8 -6 9 -22 4 -38 -3 -9 -4 -16
-3 -28 2 -43 2 -43 -5 -48 -8 -7 -28 -7 -36 0 -8 6 -9 22 -4 38 3 9 4 16 3 28
-2 43 -2 43 5 48 8 7 28 7 36 0z m-152 -33 c7 -6 7 -19 1 -25 -6 -7 -19 -7
-25 -1 -7 6 -7 19 -1 25 6 7 19 7 25 1z m825 -28 c3 -3 4 -8 4 -14 0 -14 -6
-20 -20 -20 -14 0 -20 6 -20 19 0 12 3 17 10 20 8 3 22 1 26 -5z m-1285 -29
c6 -6 7 -20 2 -29 -4 -6 -15 -14 -23 -15 -10 -2 -12 2 -13 21 -1 17 -1 18 4
23 7 7 23 7 30 0z m1187 -7 c5 -5 5 -11 0 -16 -10 -10 -27 5 -16 16 4 4 12 4
16 0z m-482 -67 l-5 -5 -4 4 -5 5 4 4 5 5 4 -4 5 -5 -4 -4z m-57 -80 c5 -8 1
-16 -8 -16 -9 0 -13 8 -8 16 2 3 5 5 8 5 3 0 6 -2 8 -5z m431 -5 c21 -5 26
-11 27 -28 0 -19 -9 -29 -28 -29 -11 0 -22 5 -24 10 -6 14 -4 33 3 44 5 5 8 6
22 3z"/>
<path d="M474 3730 c-2 -1 -5 -2 -7 -3 -4 -1 -7 -9 -8 -20 l-1 -9 15 0 c13 0
16 1 19 4 3 4 4 13 1 20 -1 2 -2 4 -2 5 0 0 -1 1 -2 1 -1 0 -3 1 -3 3 -2 1 -2
1 -2 0 0 -2 -2 -3 -4 -3 -4 0 -4 0 -2 2 4 2 0 2 -4 0z"/>
</g>
</svg>
