<?xml version="1.0" standalone="no"?>
<!DOCTYPE svg PUBLIC "-//W3C//DTD SVG 20010904//EN"
 "http://www.w3.org/TR/2001/REC-SVG-20010904/DTD/svg10.dtd">
<svg version="1.0" xmlns="http://www.w3.org/2000/svg"
 width="1000.000000pt" height="2850.000000pt" viewBox="0 0 1000.000000 2850.000000"
 preserveAspectRatio="xMidYMid meet">
<metadata>
Created by potrace 1.15, written by Peter Selinger 2001-2017
</metadata>
<g transform="translate(0.000000,2850.000000) scale(0.500000,-0.500000)"
fill="#000000" stroke="none">
<path d="M630 3812 c-3 -1 -6 -1 -7 0 0 0 -1 0 -1 -1 0 -2 -3 -4 -6 -5 -9 -4
-22 -20 -23 -31 -1 -4 -1 -11 -2 -14 0 -3 -1 -10 -1 -15 0 -11 -5 -18 -13 -18
-10 0 -12 4 -13 30 -1 22 -2 24 -8 33 -3 5 -9 11 -13 13 -3 2 -7 5 -8 6 -3 2
-23 2 -23 0 0 -1 -1 -2 -3 -2 -4 0 -14 -12 -18 -21 -2 -5 -3 -14 -3 -28 0 -17
-1 -22 -5 -32 -3 -7 -5 -13 -5 -15 0 -1 -1 -2 -1 -1 -1 0 -5 -3 -9 -8 -18 -23
-43 -22 -62 2 -7 8 -12 13 -21 17 l-12 6 -124 -1 c-68 0 -125 -1 -126 -1 -2 0
-3 -1 -3 -2 0 -1 -1 -2 -3 -2 -4 0 -5 -4 -4 -19 0 -7 -1 -13 -2 -13 -1 0 -1
-1 1 -2 2 0 9 -4 15 -9 14 -8 18 -14 18 -29 -1 -13 -4 -18 -22 -30 -13 -9 -17
-13 -21 -22 -6 -10 -6 -13 -6 -38 0 -31 2 -40 11 -48 4 -3 8 -5 8 -5 1 0 4 -1
6 -2 8 -3 10 -3 19 -4 5 -1 14 -4 21 -7 28 -13 18 -12 174 -12 l142 1 6 -6 c6
-6 6 -7 5 -20 0 -16 5 -33 11 -33 4 0 3 -1 0 -2 -2 0 -8 -3 -13 -5 -5 -3 -12
-5 -16 -6 -9 -1 -22 -10 -26 -18 -2 -4 -6 -12 -9 -20 -2 -7 -10 -22 -17 -34
-7 -12 -13 -24 -15 -29 -6 -18 -18 -30 -29 -30 -7 0 -14 7 -14 14 0 8 6 25 12
38 6 13 13 36 12 45 0 9 -8 21 -18 28 l-9 6 -106 0 c-105 0 -117 0 -117 -3 0
-1 -1 -2 -3 -2 -4 0 -14 -12 -18 -21 -5 -11 -5 -223 0 -234 4 -9 14 -21 18
-21 2 0 3 -1 3 -2 0 -1 1 -1 3 -2 31 -3 35 -3 42 -8 6 -5 7 -5 4 -10 -5 -9 -4
-138 0 -151 5 -13 19 -27 34 -33 l12 -5 224 0 224 0 6 -6 c6 -6 6 -7 6 -27 0
-20 0 -21 -6 -27 l-6 -6 -156 1 c-154 0 -173 -1 -173 -6 0 -1 -1 -2 -3 -2 -3
0 -12 -10 -15 -18 -2 -3 -5 -7 -9 -9 l-6 -4 -6 4 c-4 2 -7 6 -9 9 -3 8 -12 18
-15 18 -2 0 -3 1 -3 2 0 4 -18 6 -40 5 -27 -1 -28 -1 -28 -3 0 -1 -1 -2 -3 -2
-4 0 -14 -12 -18 -21 -3 -7 -3 -22 -3 -128 0 -86 1 -123 2 -130 3 -11 11 -15
27 -16 l11 0 6 12 c8 16 14 31 14 34 0 2 2 5 5 8 4 4 7 5 15 5 14 0 20 -6 20
-20 0 -8 -1 -11 -7 -18 -16 -20 -24 -40 -19 -47 1 -1 3 -7 5 -13 7 -19 24 -31
53 -38 24 -6 26 -10 26 -54 0 -35 -2 -40 -16 -40 -10 0 -14 5 -24 25 -15 33
-20 42 -27 51 -4 5 -7 8 -7 7 0 -1 -5 3 -11 8 -12 10 -25 15 -40 15 -10 0 -11
-1 -16 -7 -17 -22 -17 -17 -17 -175 0 -99 1 -141 2 -146 5 -15 19 -22 43 -23
7 0 15 -2 19 -4 4 -2 11 -4 16 -4 9 -1 28 3 30 6 5 8 13 11 25 11 17 0 23 -5
24 -18 2 -18 0 -23 -14 -33 -8 -6 -14 -13 -18 -19 -3 -6 -5 -10 -4 -10 1 0 0
-3 -2 -7 -1 -4 -2 -7 -2 -8 2 -2 -5 -22 -9 -26 -8 -7 -35 -5 -41 3 -2 2 -6 10
-11 19 -4 8 -10 18 -13 22 -6 6 -7 6 -18 6 -9 0 -12 -1 -17 -6 -9 -9 -10 -15
-10 -84 0 -54 1 -66 3 -72 4 -9 14 -21 18 -21 2 0 3 -1 3 -2 0 -3 12 -3 123
-3 111 0 123 0 123 3 0 1 1 2 3 2 4 0 15 13 19 23 2 6 5 13 8 16 l5 6 70 0
c69 0 70 0 78 5 5 2 11 6 13 9 7 6 20 13 25 13 5 0 18 -7 25 -13 2 -3 8 -7 13
-9 l8 -5 102 -1 c85 0 104 0 117 3 18 4 34 4 52 0 13 -3 47 -3 256 -3 132 1
240 0 240 0 0 -3 13 -10 18 -10 2 0 4 -1 4 -2 0 -2 4 -2 13 -1 11 1 13 0 14
-3 0 -2 1 -2 1 1 0 6 6 12 15 17 15 8 24 4 27 -10 1 -5 3 -11 3 -14 2 -9 10
-20 17 -24 8 -4 10 -4 47 -3 40 1 43 1 43 3 0 1 3 3 7 5 5 2 10 8 17 18 6 9
13 17 15 19 3 1 15 3 27 4 24 2 29 3 37 12 11 13 13 23 12 63 0 42 -1 44 -20
64 -19 20 -19 28 0 48 22 23 20 6 21 182 0 168 0 168 -11 173 -5 2 -8 2 -24 5
-2 0 -5 0 -7 -2 -3 -2 -24 -2 -30 1 -7 4 -11 11 -11 24 0 19 8 27 27 27 7 0
13 -1 14 -2 2 -3 12 -2 24 1 10 3 11 4 15 13 5 12 5 184 0 199 -4 13 -12 20
-29 30 -7 4 -14 9 -15 12 -3 6 -4 25 -1 27 2 1 -3 23 -6 29 -8 13 -39 16 -58
6 -9 -4 -12 -7 -20 -21 -13 -20 -14 -21 -25 -21 -11 0 -12 1 -25 21 -8 14 -11
17 -20 21 l-10 6 -116 0 c-110 0 -117 0 -125 -4 -9 -4 -14 -9 -22 -21 -7 -12
-12 -14 -20 -10 -4 2 -7 5 -8 8 0 2 -2 10 -4 18 -2 8 -4 25 -5 38 l-1 24 6 6
c6 6 7 6 26 6 18 0 21 1 30 5 6 3 21 9 34 13 28 9 31 11 31 26 0 9 -1 12 -5
16 -5 5 -20 9 -34 9 -10 0 -20 4 -27 12 -6 6 -12 18 -12 24 0 2 -2 5 -4 7 -2
3 -3 5 -3 5 2 2 -16 6 -24 6 -4 0 -11 -2 -15 -5 -11 -6 -25 -5 -32 3 -6 5 -7
7 -7 16 0 15 7 21 25 23 7 1 19 2 26 4 28 6 24 7 44 -14 15 -14 23 -20 34 -26
16 -8 17 -8 44 -12 10 -2 22 -5 28 -8 5 -2 19 -9 31 -16 13 -6 26 -14 31 -18
4 -4 8 -7 8 -6 0 1 1 1 2 -1 3 -3 25 -3 31 0 2 2 6 4 8 7 5 5 9 8 21 16 4 3 9
7 11 9 8 12 31 16 40 7 9 -9 6 -28 -6 -41 -2 -1 -6 -7 -9 -12 -4 -5 -7 -9 -8
-10 -3 -2 3 -24 9 -30 9 -10 15 -10 90 -9 71 1 73 1 73 3 0 1 1 2 3 2 4 0 14
12 18 22 3 7 3 16 0 28 -6 25 -6 39 1 61 0 2 1 18 1 35 1 25 1 33 -2 37 -3 6
-3 6 4 11 7 4 18 7 39 8 1 1 2 1 2 2 0 1 1 2 3 2 4 0 14 12 18 21 5 11 5 223
0 234 -4 9 -14 21 -18 21 -2 0 -3 1 -3 2 0 1 -1 2 -2 2 -2 0 -80 1 -174 2
l-171 1 -8 5 c-4 2 -9 4 -11 4 -2 0 -2 1 1 2 7 3 11 17 11 33 -1 13 -1 14 5
20 l6 6 175 -1 c194 0 187 -1 201 13 9 9 13 22 13 44 1 21 0 22 -22 21 -10 0
-15 0 -16 2 -1 2 -2 2 -2 -1 0 -4 -9 -11 -14 -11 -3 0 -11 8 -13 14 -4 8 -11
12 -23 13 -7 1 -12 0 -16 -2 -6 -3 -13 -4 -25 -3 -2 0 -6 3 -9 6 -5 5 -6 7 -6
18 0 11 1 13 6 18 3 3 7 6 9 6 13 1 20 0 24 -3 11 -7 39 -2 50 8 2 2 8 5 14 6
32 8 43 20 43 48 0 9 -1 18 -3 22 -4 9 -14 21 -18 21 -2 0 -3 1 -3 2 0 3 -14
3 -188 3 l-177 0 -6 6 -6 6 1 20 c0 14 -1 21 -3 28 -4 9 -14 21 -18 21 -2 0
-3 1 -3 2 0 2 -9 3 -25 3 -13 0 -15 -1 -22 -6 -8 -7 -17 -24 -17 -35 0 -16
-36 -30 -46 -18 -5 5 -5 15 -1 18 2 1 3 3 2 4 -1 1 -3 15 -3 24 -1 1 -1 2 -2
2 -1 0 -2 1 -2 3 0 6 -15 10 -32 9 -18 -2 -29 -6 -38 -15 -7 -6 -20 -13 -25
-13 -5 0 -18 7 -25 13 -2 3 -7 6 -11 8 -7 4 -23 6 -23 3 0 -1 -1 -2 -3 -2 -4
0 -14 -12 -18 -21 -2 -6 -3 -13 -3 -28 1 -19 1 -20 -5 -26 l-6 -6 -136 1
c-143 0 -146 0 -157 -9 -5 -4 -16 -26 -17 -32 0 -4 -6 -14 -12 -20 -3 -3 -9
-12 -13 -19 -5 -8 -10 -15 -11 -16 -14 -9 -37 -5 -43 6 -4 7 -3 27 1 33 3 5
26 17 34 17 2 0 3 1 1 1 -2 1 -3 4 -2 18 1 15 1 17 -2 17 -6 0 -7 0 -12 7 -2
4 -5 7 -6 7 0 0 -1 4 -1 9 0 9 -6 21 -13 30 -12 14 -29 29 -33 29 -2 0 -3 1
-3 2 0 4 -20 6 -68 6 -28 0 -53 -1 -56 -2z m84 -46 c5 -5 5 -11 0 -16 -10 -10
-27 5 -16 16 4 4 12 4 16 0z m888 -107 c3 -3 4 -7 4 -14 0 -13 -6 -19 -19 -19
-13 0 -19 6 -19 19 0 7 1 11 4 14 7 8 23 8 30 0z m-1323 -3 c5 -5 6 -7 6 -16
0 -5 -1 -11 -3 -12 -8 -10 -10 -39 -3 -52 8 -15 3 -37 -9 -42 -15 -6 -34 -2
-39 9 -5 8 -5 25 0 32 12 19 15 35 11 52 -4 13 -3 23 3 29 9 9 24 9 34 0z
m168 -25 c7 -3 14 -8 28 -22 10 -11 20 -19 21 -19 4 0 14 -13 14 -17 0 -5 -5
-12 -10 -13 -1 0 -12 3 -25 7 -12 4 -26 7 -31 8 -18 2 -25 14 -23 37 0 12 1
15 5 18 6 5 9 5 21 1z m924 -38 c3 -5 3 -5 0 -10 -2 -3 -5 -5 -7 -5 -2 0 -5 2
-7 5 -3 5 -3 5 0 10 2 3 5 5 7 5 2 0 5 -2 7 -5z m308 -8 c4 -4 5 -7 5 -15 0
-14 -6 -20 -20 -20 -14 0 -20 6 -20 20 0 14 6 20 20 20 8 0 11 -1 15 -5z
m-817 -2 c5 -4 8 -11 8 -22 0 -13 -3 -18 -13 -24 -6 -3 -14 -8 -18 -11 l-8 -5
0 -14 c0 -14 0 -14 7 -19 l7 -5 167 0 167 0 6 -6 c6 -6 6 -7 5 -20 0 -15 4
-30 11 -33 3 -1 3 -2 1 -2 -2 0 -8 -2 -12 -5 l-9 -5 -186 0 c-180 1 -186 1
-194 5 -4 2 -10 4 -12 5 -3 1 -3 2 -1 2 5 0 11 21 9 33 -3 22 -8 32 -25 49
-19 19 -24 27 -24 37 0 9 6 13 23 15 16 2 33 9 50 20 15 10 30 12 41 5z m-165
-25 c10 -8 10 -33 0 -41 -7 -6 -27 -7 -35 -2 -11 8 -12 33 -1 43 7 6 28 6 36
0z m574 1 c10 -9 17 -46 9 -53 -11 -10 -25 2 -29 24 -4 15 -3 24 1 28 5 5 14
5 19 1z m213 -13 c5 -6 5 -12 0 -18 -7 -8 -22 -2 -22 9 0 11 15 17 22 9z
m-872 -42 c4 -2 5 -6 6 -15 0 -10 0 -11 -5 -16 -7 -7 -23 -7 -30 0 -7 7 -7 23
0 30 6 6 22 7 29 1z m804 -70 l12 -12 -4 -9 c-5 -11 -17 -17 -33 -17 -16 0
-28 6 -33 17 l-4 9 12 12 11 12 14 0 14 0 11 -12z m-785 -93 c3 -2 9 -10 15
-18 5 -8 11 -15 13 -17 10 -8 15 -18 15 -29 0 -13 -4 -19 -14 -21 -14 -3 -19
0 -41 22 -26 27 -27 29 -27 42 0 13 3 19 12 23 7 3 21 2 27 -2z m557 -17 c5
-5 6 -7 6 -17 0 -10 -1 -12 -6 -17 -5 -5 -7 -6 -17 -6 -10 0 -12 1 -17 6 -5 5
-6 7 -6 17 0 10 1 12 6 17 5 5 7 6 17 6 10 0 12 -1 17 -6z m-94 -4 c7 -4 10
-11 10 -24 0 -11 -1 -15 -4 -19 -9 -10 -33 -11 -42 -1 -9 8 -9 32 0 41 7 6 26
8 36 3z m606 -5 c1 -2 3 -6 3 -9 1 -11 7 -33 13 -44 7 -13 7 -18 2 -24 l-4 -5
-20 4 c-10 2 -28 4 -38 5 -25 1 -28 4 -29 22 -2 20 -2 19 50 49 10 6 18 6 23
2z m-212 -42 l-5 -5 -4 4 -5 5 4 4 5 5 4 -4 5 -5 -4 -4z m-189 3 c11 -10 3
-28 -11 -28 -9 0 -16 6 -16 16 0 14 17 22 27 12z m-430 -3 c16 -2 23 -9 23
-23 0 -11 -6 -20 -13 -20 -10 -1 -17 0 -23 4 -9 5 -12 10 -13 21 -1 7 -1 9 4
13 5 6 7 6 22 5z m519 -23 c6 -5 9 -19 6 -21 -1 -1 1 -7 3 -14 10 -26 14 -28
71 -27 l43 1 15 7 c17 7 32 9 37 3 5 -4 9 -20 9 -31 0 -6 1 -13 3 -16 3 -5 2
-5 -5 -10 -5 -4 -10 -5 -22 -6 -21 -2 -38 -10 -58 -29 -17 -17 -24 -21 -37
-21 -12 0 -17 3 -23 14 -10 19 -14 23 -23 29 l-10 6 -407 1 c-298 0 -409 0
-415 -2 -4 -1 -16 -6 -25 -10 -21 -11 -27 -11 -46 -1 -24 11 -31 13 -52 13
-23 0 -36 -4 -45 -13 -9 -8 -20 -15 -26 -15 -8 0 -17 7 -17 13 0 5 13 16 24
20 3 2 8 6 11 10 6 7 14 25 11 25 -1 0 1 3 5 7 l6 6 43 0 c41 0 43 0 51 4 5 3
10 6 12 8 5 5 16 11 21 11 5 0 16 -6 21 -11 2 -2 7 -5 12 -8 l8 -4 365 -1
c394 0 375 -1 385 10 4 4 13 30 11 31 -3 2 0 16 5 21 9 9 25 9 33 0z m-676
-173 c16 -7 20 -37 7 -48 -12 -11 -34 -11 -43 0 -9 10 -9 32 0 42 7 8 24 11
36 6z m-320 -49 c1 0 5 -3 8 -6 5 -5 6 -7 6 -18 0 -11 -1 -13 -6 -18 -6 -6 -7
-6 -18 -6 -11 0 -12 0 -18 6 -5 5 -6 7 -6 17 0 14 3 20 12 24 5 2 8 2 22 1z
m216 -10 c9 -10 13 -33 7 -42 -4 -5 -10 -5 -20 1 -10 5 -14 13 -16 27 -1 9 -1
11 3 15 7 7 18 7 26 -1z m226 -23 l-5 -5 -4 4 -5 5 4 4 5 5 4 -4 5 -5 -4 -4z
m349 7 c12 -4 15 -11 13 -25 -1 -7 -4 -18 -6 -25 -6 -18 -4 -36 7 -53 6 -10
11 -22 10 -29 0 -8 8 -28 13 -34 16 -18 15 -17 19 -64 3 -39 -15 -63 -46 -62
-9 0 -15 8 -15 20 0 11 2 17 12 26 9 9 14 32 10 40 -6 12 -23 23 -40 29 -12 4
-17 22 -12 46 5 21 3 37 -5 55 -9 18 -11 33 -7 55 3 22 7 25 25 25 8 0 17 -2
22 -4z m551 -12 c5 -6 5 -12 0 -18 -7 -8 -22 -2 -22 9 0 11 15 17 22 9z m-693
-77 l6 -6 0 -22 c-1 -12 -1 -23 -1 -23 0 -1 -2 -4 -5 -7 l-5 -6 -19 2 c-11 1
-30 2 -42 2 -22 0 -22 0 -28 6 -6 6 -6 7 -6 27 0 20 0 21 6 27 l6 6 41 0 41 0
6 -6z m-193 -13 c5 -5 5 -15 0 -20 -9 -9 -24 -2 -24 10 0 8 6 14 14 14 3 0 8
-2 10 -4z m-44 -91 c2 -3 3 -17 1 -26 -5 -24 -8 -31 -16 -31 -3 0 -6 2 -8 5
-3 4 -3 6 1 24 3 10 5 19 6 19 1 0 2 1 2 3 0 3 7 9 10 9 1 0 3 -1 4 -3z m75
-13 c11 -10 3 -28 -11 -28 -9 0 -16 6 -16 16 0 14 17 22 27 12z m704 -17 c4
-4 5 -7 5 -15 0 -14 -6 -20 -20 -20 -14 0 -20 6 -20 20 0 14 6 20 20 20 8 0
11 -1 15 -5z m-1286 -18 c4 -4 5 -7 5 -15 0 -14 -6 -20 -20 -20 -14 0 -20 6
-20 20 0 14 6 20 20 20 8 0 11 -1 15 -5z m277 -17 c5 -5 5 -14 2 -18 -10 -12
-33 -15 -34 -4 -2 10 13 26 23 26 3 0 7 -2 9 -4z m442 -2 c5 -2 12 -6 15 -9 3
-3 6 -5 7 -5 1 -1 3 -4 6 -9 4 -7 4 -8 0 -13 -4 -7 -16 -16 -20 -16 -2 0 -2 0
0 -2 2 -1 2 -5 2 -15 -1 -13 0 -15 7 -17 1 0 4 -4 7 -8 2 -5 5 -8 6 -8 0 0 1
-13 1 -30 -1 -98 21 -150 76 -186 11 -6 40 -19 51 -21 56 -12 64 -12 203 -12
l116 0 6 -6 c8 -8 8 -16 0 -24 l-6 -6 -112 0 -112 0 -12 -8 c-7 -5 -15 -10
-21 -11 -9 -2 -11 -1 -20 3 -5 3 -14 7 -20 10 l-11 6 -74 1 -74 0 -10 -5 c-9
-4 -21 -16 -21 -20 0 -1 -3 -6 -10 -12 -9 -9 -20 -6 -31 8 -2 1 -3 4 -3 4 0 1
-2 4 -4 7 -4 4 -6 5 -19 6 l-14 0 -4 -6 c-4 -7 -5 -24 -2 -39 4 -20 -2 -29
-18 -29 -8 0 -11 1 -14 5 -5 4 -5 6 -5 25 0 32 -3 39 -24 51 -7 4 -11 4 -97 5
-89 1 -91 1 -95 5 -3 3 -6 5 -8 6 -2 0 -2 1 1 1 3 0 18 7 34 16 4 3 10 6 12 7
2 1 8 5 12 8 5 3 10 5 11 5 3 0 8 14 8 24 0 5 -2 14 -4 20 -6 16 -8 54 -3 61
2 3 5 5 7 5 2 0 15 -6 29 -13 23 -12 27 -14 39 -14 19 -1 25 2 37 14 6 7 11
12 11 13 0 1 3 5 6 8 3 4 7 10 9 14 2 3 5 6 5 6 1 0 2 1 2 3 0 1 1 3 2 3 3 1
22 36 25 47 3 8 3 14 2 34 -2 30 -1 31 17 41 17 10 25 16 35 31 9 13 33 38 41
42 7 4 10 4 20 -1z m317 -4 c9 -8 6 -20 -8 -41 -9 -12 -9 -26 -1 -34 14 -13
16 -13 75 -13 50 0 54 0 62 4 8 4 21 18 21 23 0 1 3 5 6 9 l6 6 4 -4 c4 -4 5
-5 5 -49 1 -25 1 -47 2 -48 0 -2 -12 -15 -14 -14 0 1 -35 1 -77 1 -42 0 -82 1
-89 2 -17 3 -20 7 -24 30 -4 26 -9 34 -32 51 -4 3 -8 7 -9 9 -3 5 -4 26 -2 26
1 0 2 1 2 2 -1 3 4 10 11 14 5 3 9 6 11 7 1 2 3 3 4 3 1 0 3 2 6 4 20 17 32
20 41 12z m-803 -29 c10 -3 2 -19 -10 -19 -4 0 -12 8 -9 10 1 0 4 3 5 6 4 6 5
6 14 3z m1085 -5 c10 -2 15 -7 17 -17 3 -14 1 -22 -16 -45 -23 -31 -24 -31
-40 -30 -7 0 -14 8 -14 16 -1 7 7 34 13 47 2 3 4 10 5 14 2 6 5 9 12 13 10 4
12 5 23 2z m-1094 -29 c0 -7 1 -13 2 -14 1 0 -1 0 -4 0 -3 0 -5 0 -4 0 1 1 2
7 2 14 -1 9 0 13 2 13 2 0 2 -4 2 -13z m-2 -21 c3 0 5 1 6 2 1 2 2 1 4 0 5 -4
7 -4 61 -6 51 -1 52 -1 57 -6 3 -3 4 -6 3 -7 -3 -4 -6 -20 -7 -37 -1 -28 -6
-32 -33 -33 -10 0 -19 -1 -21 -3 -1 -1 -3 -2 -3 -1 -1 1 -3 -1 -6 -4 -4 -4 -5
-8 -6 -17 0 -11 0 -13 5 -19 19 -25 24 -36 23 -53 -1 -9 -2 -12 -7 -16 -5 -4
-7 -4 -20 -4 -13 1 -14 2 -20 9 -4 4 -7 9 -7 10 0 2 -1 3 -2 3 -1 0 -4 6 -7
13 -3 7 -7 15 -9 18 -10 11 -11 13 -16 15 -8 4 -18 6 -19 3 0 -1 -1 0 -1 2 0
1 -1 3 -2 3 0 0 -2 2 -4 5 -2 3 -3 15 -4 56 l-1 52 6 5 c3 2 5 5 5 7 0 1 2 2
6 2 3 0 7 1 8 2 2 2 3 3 5 1 1 -1 4 -2 6 -2z m241 -8 c5 -6 5 -12 0 -18 -7 -8
-22 -2 -22 9 0 11 15 17 22 9z m-365 -53 c3 -5 3 -5 0 -10 -2 -3 -5 -5 -7 -5
-2 0 -5 2 -7 5 -3 5 -3 5 0 10 2 3 5 5 7 5 2 0 5 -2 7 -5z m762 -79 c10 -9 3
-26 -10 -26 -8 0 -15 7 -15 15 0 13 16 20 25 11z m455 -41 c12 -5 18 -21 14
-36 -2 -7 -5 -11 -12 -17 -13 -10 -14 -13 -15 -28 -1 -9 0 -14 2 -17 8 -13 1
-29 -14 -29 -11 0 -17 6 -17 16 0 7 5 18 10 22 1 1 2 8 3 17 1 15 0 16 -4 21
-12 11 -13 36 -3 45 9 8 24 10 36 6z m-367 -12 c3 -3 3 -3 0 -6 -3 -3 -3 -3
-6 0 -3 2 -3 3 -1 6 4 4 4 4 7 0z m-729 -25 c11 -9 20 -17 20 -18 1 -1 27 -31
41 -45 l6 -6 -6 -5 c-5 -5 -7 -5 -44 -6 -22 -1 -39 -1 -40 0 0 1 -3 3 -6 6 -3
3 -6 5 -6 6 0 1 -1 6 -2 11 -1 6 -2 11 -3 13 -2 1 -2 2 -1 2 1 0 0 2 -2 5 -2
3 -2 5 -1 5 2 0 4 5 5 13 3 14 8 28 12 32 3 3 5 6 5 8 0 1 1 1 2 -1 0 -2 10
-11 20 -20z m-89 -19 c10 -8 10 -30 -1 -38 -10 -7 -34 -2 -34 7 0 2 -1 4 -2 5
-2 1 -2 12 1 14 0 1 1 3 1 5 0 10 24 14 35 7z m-162 -84 c1 -2 3 -3 4 -3 2 0
3 -1 3 -2 0 -1 1 -2 3 -2 1 0 3 -1 4 -3 1 -4 33 -3 38 2 5 5 22 4 28 -2 7 -7
7 -23 0 -30 -8 -8 -23 -7 -32 2 -12 10 -15 11 -31 10 -10 0 -15 -2 -17 -4 -4
-5 -20 -5 -26 2 -11 10 -5 32 9 33 8 1 16 0 17 -3z m294 -24 c5 -8 1 -16 -8
-16 -9 0 -13 8 -8 16 2 3 5 5 8 5 3 0 6 -2 8 -5z m744 -5 c5 -5 6 -7 6 -16 0
-11 -4 -17 -15 -24 -8 -5 -20 -18 -21 -23 0 -1 -1 -4 -2 -5 -1 -2 -2 -5 -2 -7
0 -2 -1 -4 -1 -4 -1 0 -2 -11 -2 -20 0 -14 6 -26 16 -31 7 -4 12 -4 84 -4 83
0 88 1 103 12 19 13 30 15 38 8 6 -5 6 -13 3 -31 -2 -8 -4 -13 -7 -16 -3 -2
-6 -4 -8 -6 -1 -1 -49 -2 -190 -2 -220 0 -200 2 -199 -22 0 -14 0 -15 -4 -16
-4 0 -4 -1 1 -1 10 0 15 -8 15 -22 0 -11 -3 -18 -10 -22 -4 -2 -48 -8 -63 -8
-14 0 -17 2 -27 16 -5 6 -12 15 -17 20 -7 8 -19 24 -19 27 0 5 -13 19 -23 24
l-11 5 -51 -1 c-55 -1 -57 -1 -57 -3 0 -1 -1 -2 -3 -2 -6 0 -24 -22 -35 -43
-7 -13 -10 -22 -11 -36 0 -5 -3 -15 -6 -23 -5 -12 -7 -15 -14 -19 l-7 -4 -11
4 c-10 4 -25 5 -55 3 -7 0 -10 1 -14 5 -9 9 -4 33 8 33 2 0 11 2 19 5 18 7 26
11 44 28 6 6 7 7 7 18 0 7 -1 14 -1 16 -2 6 -21 14 -37 17 -20 3 -216 3 -227
0 -8 -3 -20 -14 -26 -24 -2 -4 -6 -9 -8 -11 -5 -3 -5 -3 -10 0 -12 9 -7 39 7
48 2 1 5 4 8 7 3 3 11 7 17 11 l11 5 321 0 c260 0 322 1 331 3 7 1 19 3 28 3
21 0 34 5 36 14 2 13 3 20 2 25 -4 14 2 27 15 34 9 4 26 18 26 21 0 0 1 3 2 6
2 3 4 9 5 13 4 14 7 18 14 20 10 4 20 2 27 -5z m-668 3 c3 -3 3 -3 0 -6 -3 -3
-3 -3 -6 0 -3 2 -3 3 -1 6 4 4 4 4 7 0z m1115 -16 c4 -4 4 -6 3 -19 -2 -20
-11 -46 -17 -51 -5 -3 -12 -4 -25 -3 -2 0 -6 3 -9 6 -5 5 -6 7 -6 17 0 12 4
22 15 37 14 18 29 23 39 13z m-587 -12 c3 -5 3 -5 0 -10 -2 -3 -5 -5 -7 -5 -2
0 -5 2 -7 5 -3 5 -3 5 0 10 2 3 5 5 7 5 2 0 5 -2 7 -5z m472 -151 c2 -2 5 -9
7 -16 6 -16 13 -27 25 -34 12 -9 14 -11 17 -21 3 -11 -1 -25 -7 -32 -6 -6 -31
-21 -43 -25 -16 -6 -47 2 -53 14 -3 7 -4 17 -1 22 1 2 9 7 18 11 26 13 26 13
26 29 0 10 -1 15 -4 18 -6 8 -10 17 -10 23 0 13 17 20 25 11z m-127 -76 c2 -3
4 -6 4 -9 0 -8 -13 -19 -24 -19 -12 -1 -14 11 -2 24 8 9 16 11 22 4z m-986
-28 c5 -6 5 -12 0 -18 -7 -8 -22 -2 -22 9 0 11 15 17 22 9z m954 -9 c0 -8 -10
-30 -16 -33 -7 -4 -18 -2 -23 3 -6 5 -7 18 -2 24 5 7 19 13 30 12 10 0 10 0
11 -6z m-1126 -23 c7 -4 10 -10 10 -23 0 -10 -1 -12 -6 -17 -6 -6 -7 -6 -18
-6 -11 0 -12 0 -18 6 -5 5 -6 7 -6 18 0 14 3 21 11 24 5 2 21 1 27 -2z"/>
<path d="M1547 2957 c7 -1 13 -2 12 -3 -2 -3 1 -2 4 1 3 3 1 3 -13 3 l-17 -1
14 0z"/>
</g>
</svg>
