<?xml version="1.0" standalone="no"?>
<!DOCTYPE svg PUBLIC "-//W3C//DTD SVG 20010904//EN"
 "http://www.w3.org/TR/2001/REC-SVG-20010904/DTD/svg10.dtd">
<svg version="1.0" xmlns="http://www.w3.org/2000/svg"
 width="1100.000000pt" height="2850.000000pt" viewBox="0 0 1100.000000 2850.000000"
 preserveAspectRatio="xMidYMid meet">
<metadata>
Created by potrace 1.15, written by Peter Selinger 2001-2017
</metadata>
<g transform="translate(0.000000,2850.000000) scale(0.500000,-0.500000)"
fill="#000000" stroke="none">
<path d="M1150 3812 c-3 -1 -6 -1 -7 0 0 0 -1 0 -1 -2 0 -1 -1 -2 -3 -2 -4 0
-14 -12 -18 -21 -3 -7 -3 -14 -3 -37 l1 -29 -6 -6 c-6 -6 -7 -6 -20 -5 -39 1
-45 -9 -48 -85 0 -14 -2 -28 -3 -31 -4 -11 -15 -16 -33 -15 -13 0 -19 3 -19
11 0 2 -3 9 -6 15 -7 13 -7 13 -16 23 -12 15 -15 28 -9 38 3 4 5 4 23 4 l19 1
-17 0 -18 1 0 11 c0 13 -1 17 -5 21 -4 5 -1 4 -65 5 l-58 1 -21 -7 c-27 -9
-33 -9 -60 0 -21 7 -23 7 -38 6 -21 -1 -21 -1 -21 -3 0 -1 -1 -2 -3 -2 -1 0
-5 -3 -8 -6 -13 -14 -13 -6 -14 -191 0 -138 -1 -172 -4 -192 -5 -42 -15 -82
-24 -107 -5 -12 -5 -16 -2 -30 1 -7 8 -14 20 -22 8 -5 14 -11 15 -14 4 -9 1
-27 -4 -33 -13 -14 -50 -22 -62 -14 -3 3 -10 13 -16 27 -7 13 -24 42 -39 65
-30 47 -32 50 -51 50 -12 0 -15 -2 -26 -11 -3 -2 -6 -5 -7 -5 -1 -1 -6 -5 -11
-9 -5 -4 -10 -8 -11 -9 -1 -1 -8 -6 -16 -12 -12 -9 -13 -10 -14 -20 -2 -15 0
-20 8 -26 11 -7 19 -7 50 2 21 6 31 1 31 -14 0 -12 -5 -15 -26 -20 -11 -2 -23
-6 -32 -10 -18 -10 -30 -10 -38 -2 -3 3 -6 8 -7 11 -5 26 -7 31 -11 29 -1 -1
-2 0 -3 1 0 1 -6 0 -13 -1 -22 -3 -33 -20 -34 -49 0 -8 -6 -16 -12 -16 -2 0
-10 1 -17 3 -20 5 -29 3 -46 -8 -8 -6 -14 -10 -15 -11 -1 -1 -6 -5 -13 -9 -7
-4 -12 -8 -13 -9 -1 0 -11 -8 -24 -16 -25 -17 -38 -32 -50 -59 -14 -31 -5 -45
30 -46 10 0 17 -1 19 -3 4 -3 4 -14 -1 -24 -4 -7 -5 -18 -4 -34 0 -2 2 -6 5
-9 7 -7 15 -19 24 -36 11 -20 33 -50 42 -54 12 -6 31 -3 40 6 1 1 5 4 8 6 3 2
6 5 8 6 1 1 6 5 10 8 19 14 60 48 64 52 2 3 4 7 4 9 4 17 4 22 4 30 -1 8 0 11
3 13 5 5 6 5 20 2 7 -2 17 -3 21 -2 4 0 10 1 11 1 2 0 5 1 6 3 2 1 9 7 17 13
19 15 24 21 32 37 9 17 13 22 22 25 10 3 26 -1 41 -10 11 -6 61 -43 64 -46 1
-1 7 -5 13 -11 7 -5 14 -10 15 -12 18 -17 34 -27 43 -27 3 0 8 -2 12 -7 l7 -6
-4 -14 c-4 -20 -8 -23 -23 -23 -17 0 -26 -2 -32 -7 -5 -5 -11 -20 -11 -30 0
-3 -2 -8 -4 -11 -4 -4 -5 -4 -19 -3 -17 1 -25 4 -31 14 -10 16 -32 27 -47 21
-3 -1 -18 -5 -33 -10 -28 -9 -39 -16 -41 -26 0 -2 -1 -5 -2 -6 -1 -1 -1 -18
-2 -37 -1 -49 -4 -57 -17 -57 -10 0 -18 12 -29 46 -10 31 -22 42 -45 42 -2 0
-11 -2 -20 -4 -9 -2 -23 -5 -31 -7 -8 -1 -21 -4 -29 -6 -8 -2 -24 -5 -35 -7
-11 -2 -22 -4 -24 -5 -2 0 -8 -1 -14 -2 -17 -2 -30 -9 -45 -25 -19 -20 -29
-21 -50 -8 -11 6 -28 13 -35 13 -11 0 -47 -6 -52 -8 -11 -5 -16 -12 -16 -25
l-1 -13 15 -17 c8 -9 18 -21 22 -27 12 -15 24 -26 34 -31 12 -5 19 -18 21 -37
1 -9 34 -63 44 -72 3 -3 8 -4 16 -4 15 -1 21 2 30 16 13 19 30 22 60 11 19 -7
25 -7 40 -3 8 3 11 5 18 14 17 21 23 27 32 27 4 0 11 -2 17 -5 12 -6 30 -11
44 -11 10 0 20 -3 34 -12 14 -8 24 -8 47 -1 29 9 30 10 31 30 1 11 1 13 -4 21
-13 20 1 58 21 58 12 0 18 -16 13 -37 -3 -12 -3 -18 1 -27 3 -5 4 -7 9 -6 0 0
1 -1 1 -3 0 -3 4 -11 7 -13 0 -1 2 -7 2 -13 1 -7 3 -16 4 -20 4 -9 14 -21 18
-21 2 0 3 -1 3 -2 0 -2 9 -3 31 -3 22 0 29 2 44 15 12 11 14 16 14 40 1 27 3
33 16 35 2 1 4 1 4 2 0 0 3 7 7 15 4 8 9 17 10 20 3 9 11 13 24 13 19 0 27 -8
27 -27 0 -17 -6 -24 -21 -27 -4 0 -10 -2 -14 -4 -5 -2 -9 -3 -11 -3 -5 0 -24
-17 -27 -25 -1 -3 -3 -11 -3 -17 -2 -12 -2 -12 7 -20 13 -13 23 -17 40 -17 14
0 16 1 34 10 22 10 24 11 30 5 3 -3 5 -7 5 -16 0 -12 0 -13 -6 -19 l-6 -6
-231 0 -231 0 -11 -6 c-13 -6 -18 -12 -23 -25 -4 -13 -4 -128 0 -139 4 -9 14
-21 18 -21 2 0 3 -1 3 -2 0 -2 0 -2 66 -4 56 -1 62 -2 72 -6 5 -2 13 -4 17 -4
3 0 4 -1 3 -1 -6 -2 -5 -8 1 -11 3 -1 10 -2 16 -2 13 0 19 -4 19 -14 0 -9 -4
-13 -18 -22 -6 -4 -15 -10 -19 -13 -16 -13 -27 -15 -55 -8 -16 4 -36 5 -36 1
0 -1 -3 -3 -7 -5 -4 -1 -9 -6 -12 -10 -2 -5 -8 -11 -12 -15 -6 -7 -7 -8 -17
-8 -10 0 -11 1 -17 8 -4 4 -10 10 -12 15 -3 4 -8 9 -12 10 -4 2 -7 4 -7 5 0 2
-14 3 -86 3 -75 0 -86 0 -86 -3 0 -1 -1 -2 -3 -2 -4 0 -14 -12 -18 -21 -4 -9
-4 -81 -1 -90 5 -13 7 -16 13 -22 4 -4 8 -10 11 -14 l4 -7 -4 -8 c-3 -4 -6 -8
-8 -9 -5 -2 -3 -33 2 -34 2 -1 4 -2 4 -3 0 -2 3 -3 139 -3 146 -1 147 -1 160
10 6 5 7 7 7 17 1 20 -11 33 -42 48 -13 6 -18 16 -13 23 2 3 5 5 7 5 3 0 24
-6 31 -10 8 -4 24 -10 35 -13 17 -5 32 -12 35 -18 3 -5 4 -7 6 -25 2 -19 10
-30 28 -35 8 -3 27 -3 117 -3 100 0 108 0 115 4 9 4 17 12 18 18 0 2 2 6 3 8
1 2 3 8 3 14 1 12 5 19 13 22 7 3 8 3 39 1 15 -1 23 -1 32 2 21 5 38 -2 39
-17 1 -11 1 -13 3 -21 1 -5 2 -9 3 -9 1 0 2 -2 3 -5 2 -8 25 -13 32 -7 1 2 3
4 2 4 0 0 1 4 2 9 2 4 3 13 3 19 0 12 3 17 18 27 23 17 36 20 42 13 8 -9 3
-21 -14 -32 -5 -4 -9 -7 -10 -8 0 -1 -2 -2 -5 -2 -2 0 -3 -1 -1 -1 1 -1 2 -5
2 -12 0 -13 6 -22 18 -25 5 -2 49 -2 136 -2 l129 1 18 9 c24 12 32 12 56 0
l18 -9 94 -1 94 0 10 5 c10 5 11 6 18 20 3 8 7 17 8 21 2 12 9 16 25 16 l13 0
9 -10 c6 -6 10 -12 10 -12 0 -2 14 -17 22 -22 4 -3 15 -8 24 -12 l16 -6 63 1
c65 1 67 1 67 3 0 1 1 2 3 2 4 0 14 12 18 21 6 16 4 143 -3 143 -1 0 -4 2 -6
5 -6 5 -19 9 -34 10 -12 1 -18 3 -30 14 -19 17 -23 18 -70 18 l-41 0 -18 -6
c-21 -8 -26 -9 -47 -1 -22 7 -24 8 -43 8 -13 1 -16 1 -20 5 -3 3 -6 5 -7 6 -2
0 -2 1 0 1 2 0 9 8 16 16 12 16 13 17 12 26 0 5 -1 10 -3 10 -1 1 -1 2 1 2 2
0 7 2 11 4 7 4 12 5 35 6 32 2 32 2 32 4 0 1 1 2 3 2 1 0 5 3 8 7 5 5 7 8 7
17 1 5 0 10 0 10 -1 0 -2 1 -2 3 0 1 -4 8 -9 15 -12 18 -13 28 -1 45 19 26 23
51 13 72 -3 6 -6 11 -7 11 -1 0 -2 2 -2 4 0 4 1 5 19 3 10 0 22 -2 26 -4 5 -1
11 -3 14 -4 3 0 9 -2 13 -3 22 -7 48 3 57 21 2 3 7 12 12 19 4 7 12 19 17 27
5 7 10 15 11 16 4 4 20 30 24 38 6 11 17 27 25 34 4 3 13 14 21 23 8 9 20 24
28 34 l15 16 0 12 c0 23 -9 28 -62 34 -20 3 -50 7 -66 9 -25 4 -31 4 -38 2 -9
-3 -21 -14 -19 -17 1 -1 1 -2 0 -2 -1 0 -2 -4 -1 -9 0 -7 2 -10 11 -19 5 -6
12 -13 14 -14 12 -9 15 -28 6 -37 -10 -10 -29 -6 -39 9 -5 8 -25 28 -28 28 -4
0 -8 14 -7 23 3 18 2 36 -1 42 -5 8 -14 12 -46 18 -31 6 -43 4 -58 -5 -23 -16
-24 -16 -65 -11 -27 3 -35 6 -35 13 0 2 -1 4 -2 5 -1 0 -2 3 -3 6 -3 13 -12
23 -24 29 -6 3 -14 6 -16 6 -2 0 -9 1 -14 3 -6 2 -15 4 -21 6 -42 10 -149 42
-200 60 -29 11 -44 10 -54 -4 -2 -2 -4 -7 -4 -9 0 -9 -4 -20 -8 -22 -1 -1 -7
-2 -12 -3 -18 -3 -32 -11 -41 -25 -6 -9 -14 -13 -26 -13 -19 0 -28 9 -28 28 0
20 10 28 30 27 24 -2 41 -1 46 3 3 1 6 3 7 3 5 0 11 11 11 21 1 8 2 11 9 19 5
6 8 10 7 10 -5 0 7 5 13 5 7 0 34 9 51 17 5 2 10 4 11 4 1 0 7 2 13 5 7 3 14
6 16 7 2 1 15 6 28 12 22 10 25 11 39 11 18 0 19 0 105 -42 32 -15 42 -18 66
-20 18 -1 23 -4 35 -19 13 -16 18 -20 60 -44 47 -26 51 -28 71 -40 15 -9 18
-10 28 -10 20 0 21 1 57 57 16 24 21 35 25 54 4 18 6 21 23 33 22 16 28 25 28
40 0 16 -4 24 -18 38 -18 18 -22 20 -93 57 -27 13 -91 44 -114 53 -17 7 -27
15 -27 22 0 4 1 5 24 30 26 29 33 39 43 63 5 13 8 17 20 28 13 11 16 16 25 34
5 11 11 22 12 23 10 11 18 24 30 49 13 26 14 30 13 38 -3 16 -8 23 -28 33 -10
5 -19 9 -20 8 -1 0 -1 1 0 3 1 1 2 3 4 3 1 0 4 1 7 3 3 1 8 3 11 4 12 3 14 7
13 22 l-1 14 -15 10 c-16 11 -18 13 -19 24 -2 15 11 25 31 25 7 0 10 -1 14 -5
3 -3 5 -6 5 -7 0 -2 10 -23 11 -24 1 0 2 -1 2 -3 0 -1 3 -5 7 -8 4 -3 9 -8 11
-9 2 -3 6 -4 17 -4 16 0 23 2 28 9 11 17 60 157 59 170 -1 25 -12 34 -50 41
-69 12 -94 16 -101 14 -4 -1 -9 -3 -11 -3 -3 -1 -7 -2 -10 -4 -15 -11 -30 -14
-37 -8 -2 2 -5 3 -6 3 -2 0 -5 1 -7 3 -2 2 -9 6 -14 8 l-11 5 -112 -1 -112 0
-6 6 -6 6 1 24 c1 38 -5 52 -26 63 -8 5 -11 5 -40 5 -29 0 -40 -1 -42 -3 -1
-1 -4 -2 -7 -4 -3 -2 -9 -8 -14 -15 -10 -16 -15 -19 -26 -19 -11 0 -16 3 -26
19 -5 7 -11 13 -14 15 -3 2 -6 3 -7 4 -3 3 -52 5 -60 2z m169 -97 c6 -4 6 -6
6 -20 0 -14 0 -16 -6 -20 -4 -4 -7 -5 -18 -5 -11 0 -14 1 -18 5 -6 4 -6 6 -6
20 0 14 0 16 6 20 4 4 7 5 18 5 11 0 14 -1 18 -5z m-439 -56 c3 -3 8 -15 13
-30 15 -42 15 -43 5 -63 -5 -10 -6 -13 -6 -28 0 -9 1 -17 2 -17 4 -2 2 -22 -2
-27 -7 -9 -27 -9 -34 0 -5 6 -5 21 -1 31 5 13 3 36 -4 48 -3 4 -4 11 -6 29 -1
5 -2 15 -3 23 -4 20 -3 27 3 33 9 9 24 9 33 1z m281 -30 c5 -8 1 -16 -8 -16
-9 0 -13 8 -8 16 2 3 5 5 8 5 3 0 6 -2 8 -5z m645 -36 l-5 -5 -4 4 -5 5 4 4 5
5 4 -4 5 -5 -4 -4z m-383 -3 c12 -7 14 -44 1 -44 -2 0 -2 -1 0 -1 1 -1 2 -6 2
-13 0 -12 0 -13 7 -19 l7 -7 51 0 c54 0 51 0 67 -9 2 -1 3 -3 3 -4 -2 -4 7
-15 13 -18 6 -3 12 -4 32 -4 20 0 26 -1 32 -4 6 -3 23 -16 29 -22 3 -3 4 -8 1
-6 -1 0 -2 -1 -4 -4 -1 -2 -9 -8 -19 -12 -19 -9 -29 -10 -57 -3 -22 5 -31 5
-36 0 -2 -2 -5 -4 -6 -4 -1 0 -1 -1 -1 -3 2 -5 -7 -27 -12 -30 -7 -5 -20 -4
-32 3 -13 7 -29 12 -45 13 -17 1 -22 4 -28 18 -9 17 -14 37 -16 60 -1 14 0 19
1 19 2 0 3 2 3 6 0 3 1 6 1 8 0 2 -2 5 -4 7 -2 1 -3 3 -2 3 1 0 -5 7 -14 15
-12 12 -16 16 -17 23 -2 10 0 23 6 29 7 6 26 8 37 3z m246 -32 c7 -8 7 -19 1
-24 -12 -9 -28 -2 -28 12 0 14 18 22 27 12z m-693 -9 c2 -2 5 -8 7 -13 6 -12
13 -20 24 -26 8 -4 10 -4 54 -4 l46 1 6 -6 c3 -4 6 -7 7 -8 0 -1 1 -5 2 -9 1
-3 6 -13 11 -21 14 -23 13 -35 -4 -53 -4 -4 -11 -16 -16 -27 -9 -20 -13 -24
-32 -30 -20 -7 -29 -12 -35 -19 -5 -7 -12 -12 -9 -6 1 1 0 2 -1 3 -1 1 -2 2
-1 3 1 1 -1 6 -4 11 -6 10 -6 21 -1 27 3 4 22 14 26 14 7 0 23 11 27 19 2 4 4
8 5 8 1 1 1 6 0 11 0 13 -5 18 -17 24 -11 5 -15 5 -28 1 -11 -4 -31 -4 -41 -1
-8 2 -25 3 -27 1 -1 -2 -2 -2 -7 -3 -2 0 -7 -8 -12 -17 -11 -21 -13 -23 -25
-23 -13 0 -19 6 -19 19 0 7 1 11 4 14 3 3 5 5 6 4 0 0 5 2 10 5 5 3 11 6 14 7
4 1 6 4 10 11 6 15 7 26 2 49 -2 11 -4 22 -4 25 0 7 9 14 17 13 1 0 3 -2 5 -4z
m323 -31 c11 -10 4 -27 -12 -29 -10 -1 -15 5 -15 16 0 15 17 23 27 13z m-66
-50 c14 -4 29 -12 35 -18 2 -2 7 -6 11 -9 7 -5 15 -14 15 -18 0 -1 -2 -4 -4
-7 -4 -4 -4 -4 -16 -1 -11 3 -43 18 -63 30 -6 4 -13 13 -13 18 0 1 1 4 3 7 4
5 9 5 32 -2z m60 -124 c3 -3 7 -9 10 -14 2 -5 9 -12 14 -15 8 -6 14 -8 35 -12
4 -1 8 -6 18 -21 2 -2 5 -8 8 -11 6 -7 9 -16 8 -21 -1 -4 -2 -5 -22 -21 -9 -8
-20 -17 -23 -21 -7 -8 -19 -14 -27 -14 -7 0 -16 8 -26 23 -3 6 -8 11 -10 12
-2 1 -4 2 -4 3 0 3 -28 14 -35 14 -3 0 -5 1 -3 1 2 1 4 3 6 5 2 3 7 4 13 5 6
1 14 2 19 2 5 1 10 2 10 2 3 0 4 3 4 17 1 11 2 16 4 17 3 3 2 3 -2 3 -4 0 -6
1 -6 2 0 1 -4 4 -10 7 -15 8 -20 27 -9 36 7 7 23 7 28 1z m173 -24 c9 -8 9
-26 0 -34 -9 -9 -32 -10 -40 -2 -1 2 -1 8 0 18 2 19 7 24 23 24 10 0 12 -1 17
-6z m-428 -9 c0 -4 0 -7 0 -8 0 -1 1 -3 3 -5 1 -2 4 -8 7 -15 12 -30 38 -28
53 5 7 15 12 20 21 20 12 0 23 -16 17 -25 -3 -5 -10 -12 -13 -14 -4 -3 -12
-14 -13 -19 0 -3 -1 -7 -2 -10 -1 -3 -1 -6 -2 -8 -1 -7 9 -31 15 -37 12 -10
16 -18 12 -24 -3 -7 -11 -9 -17 -6 -5 2 -26 0 -27 -3 0 -2 -1 -2 -2 0 -2 2 -2
2 -2 0 0 -2 1 -4 3 -4 4 0 5 -7 2 -13 -11 -26 -13 -28 -18 -31 -9 -3 -18 -4
-26 -2 -10 3 -11 5 -20 21 -4 7 -9 15 -12 18 -6 5 -22 11 -32 11 -9 0 -41 -10
-46 -15 -10 -9 -5 -35 7 -41 6 -3 61 -24 66 -24 1 -1 4 -3 6 -5 4 -6 -4 -12
-24 -16 -2 0 -20 -4 -41 -9 -44 -9 -49 -10 -54 -4 -3 4 -3 5 5 22 4 11 8 21 9
24 1 3 3 7 4 8 8 6 3 22 -14 43 0 1 -3 4 -5 8 -2 3 -5 5 -6 4 -3 -2 -1 8 3 15
4 9 13 16 28 24 16 8 29 28 29 45 0 6 11 27 16 29 2 1 6 4 9 7 6 6 30 20 37
22 8 3 20 11 20 14 0 5 4 3 4 -2z m-185 -144 c4 -5 9 -8 11 -8 2 1 2 1 0 -1
-1 -1 -3 -3 -3 -5 0 -2 -1 -4 -1 -4 0 -1 -1 -2 -1 -2 -1 -5 -8 -15 -11 -18 -8
-5 -28 -4 -35 2 -6 4 -6 6 -6 20 0 14 0 16 6 20 4 4 7 5 18 5 13 0 13 0 22 -9z
m421 -42 c12 -5 18 -21 14 -36 -3 -11 -8 -15 -24 -21 -31 -11 -30 -10 -31 -16
-2 -7 -9 -20 -14 -25 -9 -11 -27 -3 -27 11 0 6 1 9 8 15 5 4 11 8 15 10 8 4
10 7 10 12 0 2 1 8 3 12 2 5 3 9 3 10 -2 1 3 18 7 22 7 8 24 11 36 6z m205
-72 c9 -5 12 -19 9 -32 -4 -17 -17 -22 -45 -14 -18 5 -30 7 -44 7 -16 0 -23
20 -12 31 5 5 7 5 25 5 12 0 43 5 46 7 2 2 17 -1 21 -4z m120 -16 c6 -5 6 -11
3 -27 -1 -6 -2 -21 -2 -33 0 -26 -3 -31 -18 -31 -16 0 -20 9 -16 32 1 6 2 21
2 33 0 20 1 22 5 26 7 7 19 7 26 0z m-702 -44 c9 -5 14 -15 12 -27 -2 -11 -7
-17 -21 -22 -16 -6 -34 -15 -54 -27 -15 -10 -36 -19 -42 -19 -3 0 -3 1 -3 4 1
2 2 4 3 4 1 0 2 1 1 2 0 1 1 3 4 5 6 6 21 22 33 37 10 12 16 20 28 37 6 7 19
13 26 12 3 -1 9 -3 13 -6z m-462 -25 c11 -10 3 -28 -11 -28 -9 0 -16 6 -16 16
0 14 17 22 27 12z m297 -7 c3 -3 4 -7 4 -14 0 -13 -6 -19 -19 -19 -13 0 -19 6
-19 19 0 7 1 11 4 14 7 8 23 8 30 0z m-459 -1 c7 -6 7 -19 1 -25 -6 -6 -19 -7
-26 -1 -6 6 -6 18 0 25 6 7 19 7 25 1z m884 -3 c13 -8 13 -31 2 -46 -5 -7 -7
-15 -2 -15 1 0 1 -1 -1 -1 -1 -1 -1 -2 -1 -3 1 -2 0 -2 -1 -2 -2 1 -4 3 -5 6
-2 4 -15 13 -15 11 0 -1 -1 -1 -2 0 -2 1 -4 2 -6 2 -13 2 -18 34 -6 46 7 7 27
8 37 2z m577 -32 l-5 -5 -4 4 -5 5 4 4 5 5 4 -4 5 -5 -4 -4z m-814 -69 c5 -5
5 -11 0 -16 -10 -10 -27 5 -16 16 4 4 12 4 16 0z m341 -79 c9 -9 6 -29 -6 -37
-2 -1 -8 -7 -13 -12 -9 -10 -18 -16 -22 -16 -5 0 -8 6 -7 13 3 15 15 50 19 54
7 5 23 4 29 -2z m-470 -12 c16 -4 14 -3 30 -7 13 -3 19 -8 19 -16 0 -9 -6 -14
-18 -14 -19 0 -34 -6 -40 -16 -3 -5 -6 -8 -6 -8 -1 0 -2 -2 -2 -4 0 -7 -9 -12
-23 -12 -13 0 -20 4 -33 18 -2 2 -8 6 -14 9 -6 3 -14 9 -17 12 l-7 7 5 5 c4 4
6 5 8 3 4 -4 36 -5 43 -2 3 1 10 7 14 12 16 17 19 18 41 13z m652 -32 c12 -12
3 -31 -13 -31 -11 0 -18 7 -18 18 0 11 7 18 18 18 6 0 9 -1 13 -5z m-426 -11
c6 -3 17 -10 26 -15 8 -6 18 -12 21 -13 3 -2 6 -5 8 -5 2 -1 8 -5 14 -9 6 -3
15 -9 21 -11 5 -3 8 -5 6 -5 -2 0 -3 -1 -2 -2 3 -5 -9 -7 -40 -8 -29 -1 -33
-1 -38 -5 -11 -8 -17 -27 -13 -41 2 -6 2 -10 0 -16 -4 -15 -11 -20 -28 -21
-16 -1 -35 -10 -42 -19 -12 -13 -30 -17 -39 -7 -10 10 -4 35 8 35 4 0 25 11
31 16 2 1 7 7 10 11 6 8 6 9 3 19 -5 23 -10 26 -46 28 -25 1 -36 4 -34 8 1 1
0 2 -2 2 -4 0 -4 1 0 1 4 2 17 10 64 41 38 25 35 24 50 23 10 0 14 -1 22 -7z
m303 -33 l-5 -5 -4 4 -5 5 4 4 5 5 4 -4 5 -5 -4 -4z m-947 5 c12 -3 17 -10 17
-24 0 -11 -1 -13 -6 -18 -3 -3 -7 -6 -9 -6 -28 -2 -41 6 -41 25 0 11 3 17 13
21 9 4 15 5 26 2z m-109 -63 c5 -6 0 -32 -11 -50 -7 -12 -9 -13 -20 -13 -16 0
-26 11 -26 29 1 11 5 17 18 25 19 13 34 16 39 9z m1275 -8 c8 -8 29 -53 29
-62 0 -13 -10 -31 -18 -31 -1 0 -5 -3 -9 -7 -6 -5 -7 -7 -6 -17 0 -18 1 -20
16 -20 11 0 27 6 27 10 0 1 1 2 3 2 1 0 4 1 5 3 5 7 24 1 24 -7 0 -2 1 -4 2
-5 1 -1 3 -6 5 -11 4 -12 12 -22 22 -25 4 -2 6 -3 4 -3 -2 0 -3 -1 -2 -3 0 -1
-1 -3 -3 -4 -5 -3 -472 -4 -481 -1 -9 3 -40 6 -52 6 -9 0 -15 4 -31 23 -4 5
-8 9 -10 10 -2 1 -5 5 -7 9 -3 7 -3 8 0 13 2 3 5 5 6 5 4 0 17 -6 26 -12 23
-16 30 -18 43 -17 16 2 24 8 31 27 6 15 14 25 24 28 8 3 10 2 16 -3 3 -3 3 -5
2 -14 -1 -6 -2 -11 -3 -12 -2 -1 2 -21 5 -27 2 -2 8 -7 13 -9 8 -5 11 -5 29
-4 30 1 48 11 65 35 3 4 8 10 12 15 7 7 8 7 21 7 16 0 22 -4 25 -18 1 -5 2 -7
2 -5 0 3 2 3 18 3 16 0 17 0 17 4 1 6 14 18 16 16 3 -3 24 -9 29 -8 16 1 23 6
31 20 3 6 6 12 6 13 0 0 1 2 1 3 0 1 5 7 11 13 13 15 15 21 15 44 0 10 1 14 4
17 4 4 12 4 17 -1z m-854 -16 c8 -7 10 -29 4 -37 -3 -4 -7 -5 -10 -5 -3 0 -9
1 -14 1 -12 0 -19 9 -19 23 0 10 1 12 6 17 8 8 25 9 33 1z m1067 -67 c1 0 5
-3 8 -6 5 -5 6 -7 6 -18 0 -11 -1 -13 -6 -18 -6 -6 -7 -6 -18 -6 -11 0 -12 0
-18 6 -5 5 -6 7 -6 17 0 14 3 20 12 24 5 2 8 2 22 1z m-782 -125 c4 -3 9 -10
15 -21 5 -9 11 -20 13 -24 7 -11 8 -27 2 -33 -9 -9 -27 -5 -38 8 -3 3 -10 11
-16 17 -7 6 -13 14 -14 17 -3 8 -2 25 1 31 7 9 25 12 37 5z m-299 -25 c5 -5 6
-7 6 -16 0 -17 -10 -24 -32 -22 -13 1 -18 27 -8 38 9 9 24 9 34 0z m197 -26
c5 -5 5 -15 0 -20 -9 -9 -24 -2 -24 10 0 8 6 14 14 14 3 0 8 -2 10 -4z m-80
-22 c5 -5 6 -7 6 -17 0 -16 -7 -23 -23 -23 -16 0 -23 7 -23 23 0 16 7 23 23
23 10 0 12 -1 17 -6z m606 -21 c21 -9 20 -45 -2 -54 -10 -5 -28 -1 -34 6 -9
10 -9 32 0 42 7 8 24 11 36 6z m-770 -10 c3 -3 4 -7 4 -14 0 -13 -6 -19 -19
-19 -13 0 -19 6 -19 19 0 7 1 11 4 14 7 8 23 8 30 0z m613 -42 c3 -3 10 -8 14
-12 4 -4 8 -7 9 -7 3 0 9 -7 13 -13 3 -6 2 -7 -1 -14 -2 -4 -8 -17 -14 -29
-20 -43 -33 -50 -66 -36 -8 4 -19 7 -23 7 -7 0 -9 1 -12 5 -4 6 -5 6 -20 6
l-16 1 13 0 c10 1 14 2 15 4 1 2 0 3 -2 2 -1 -1 -1 -1 0 1 2 2 2 11 2 25 l0
22 7 6 c3 4 7 7 8 7 5 0 20 8 26 14 11 10 19 16 23 16 8 2 18 0 24 -5z m-402
-32 l6 -6 -1 -33 c-1 -18 -3 -37 -4 -41 -4 -12 -17 -38 -22 -43 -8 -8 -17 -24
-23 -39 -3 -8 -6 -16 -7 -19 -3 -6 -12 -12 -20 -12 -11 0 -17 6 -26 24 -11 20
-16 24 -32 26 -10 0 -14 0 -22 -4 -6 -3 -18 -7 -26 -9 -35 -8 -38 -14 -36 -62
1 -14 -7 -22 -22 -22 -9 0 -11 1 -16 6 -9 9 -9 20 0 38 7 15 8 25 5 51 -2 17
-1 18 17 37 7 8 14 17 14 18 0 1 4 6 8 11 l8 9 19 -3 c12 -2 24 -2 33 -1 7 1
19 1 26 1 14 0 33 5 28 8 -2 1 -2 2 1 3 3 1 2 14 -2 24 -2 6 -13 23 -17 28 -4
5 -3 7 6 12 4 3 35 4 70 4 l29 0 6 -6z m241 -25 c5 -2 11 -7 15 -10 3 -3 7 -6
7 -6 1 0 4 -4 7 -8 8 -12 7 -26 -8 -51 -15 -29 -18 -31 -30 -31 -14 0 -19 6
-19 20 0 15 -3 31 -8 36 -6 7 -20 9 -39 4 -13 -3 -20 -1 -22 7 -3 12 2 18 15
20 4 0 9 1 12 3 6 2 7 2 11 2 1 0 6 2 10 5 22 15 33 17 49 9z m302 -34 c5 -6
5 -12 0 -18 -7 -8 -22 -2 -22 9 0 11 15 17 22 9z m-427 -61 c12 -12 3 -31 -13
-31 -11 0 -18 7 -18 18 0 11 7 18 18 18 6 0 9 -1 13 -5z m363 -34 c12 -5 18
-21 14 -35 -4 -14 -11 -20 -26 -21 -13 -1 -28 -5 -43 -12 -18 -9 -34 -10 -42
-2 -6 4 -6 6 -6 20 0 14 0 16 6 20 3 3 8 5 11 5 7 0 37 11 44 16 16 11 29 14
42 9z m138 -27 c14 -3 21 -11 21 -24 0 -21 -18 -28 -41 -18 -9 4 -13 8 -17 14
-14 22 2 35 37 28z"/>
<path d="M316 3785 c-14 -5 -20 -13 -25 -35 -6 -26 -8 -29 -33 -42 -6 -3 -29
-25 -35 -34 -1 -3 -6 -9 -10 -15 -13 -18 -14 -39 -2 -51 9 -10 25 -20 33 -20
19 0 32 11 45 39 10 20 19 31 27 31 17 1 24 -4 24 -18 0 -11 -5 -20 -19 -35
-10 -9 -10 -10 -10 -22 -1 -18 6 -26 24 -34 8 -4 23 -10 33 -15 10 -5 25 -11
32 -15 17 -7 72 -35 85 -42 6 -3 12 -7 15 -8 10 -6 28 -3 38 6 7 5 9 9 15 28
9 25 10 28 27 42 9 7 18 16 21 20 3 5 6 8 7 9 1 1 4 5 7 10 3 5 11 16 17 25
13 18 15 24 13 38 -2 14 -11 22 -38 34 -19 8 -24 10 -33 10 -12 -1 -26 -7 -26
-12 0 -2 -1 -3 -2 -3 0 0 -2 -3 -4 -6 -4 -11 -10 -16 -17 -16 -12 0 -18 15
-11 27 3 7 3 27 -1 34 -2 4 -5 8 -8 9 -12 8 -166 64 -175 64 -3 0 -9 -2 -14
-3z m150 -128 c0 -1 -2 -3 -3 -5 -4 -4 -4 -4 -8 0 l-5 5 4 4 c4 5 5 5 8 2 2
-2 4 -5 4 -6z m41 -63 c7 -6 7 -19 1 -25 -6 -7 -19 -7 -25 -1 -7 6 -7 19 -1
25 6 7 19 7 25 1z"/>
<path d="M214 3513 c-5 -3 -12 -14 -12 -19 0 -6 -8 -10 -22 -11 -28 -2 -40 -9
-43 -26 -3 -20 13 -31 34 -22 7 3 19 6 28 8 6 1 21 -3 25 -8 2 -2 3 -7 3 -18
0 -15 0 -15 -7 -21 -25 -22 -26 -23 -34 -44 -3 -6 3 -27 9 -36 6 -10 16 -17
52 -34 48 -25 74 -39 111 -63 19 -13 22 -14 33 -14 18 -1 23 2 43 30 9 13 19
27 21 31 3 8 4 25 2 41 -1 11 3 15 21 21 22 7 37 18 43 30 4 7 4 22 0 31 -8
20 -47 35 -68 26 -13 -5 -29 -20 -45 -44 -8 -11 -14 -23 -14 -26 0 -7 -13 -16
-25 -19 -7 -1 -13 -3 -14 -4 -2 -2 -3 -2 -3 -1 0 1 -5 -2 -18 -11 -15 -10 -22
-6 -26 12 -3 13 -1 37 3 43 2 3 11 9 21 14 9 5 18 10 18 12 0 1 1 7 1 12 1 6
2 11 4 11 1 1 2 4 2 6 1 5 5 8 7 7 3 -2 11 11 8 13 -4 4 -12 0 -15 -7 -3 -7
-3 -7 -12 -7 -6 0 -12 2 -14 3 -2 2 -6 3 -9 3 -9 0 -16 10 -16 21 1 26 0 34
-4 43 -2 5 -4 8 -4 8 0 -1 -2 0 -4 2 -4 4 -8 5 -32 7 -29 3 -43 3 -48 0z"/>
</g>
</svg>
