<?xml version="1.0" standalone="no"?>
<!DOCTYPE svg PUBLIC "-//W3C//DTD SVG 20010904//EN"
 "http://www.w3.org/TR/2001/REC-SVG-20010904/DTD/svg10.dtd">
<svg version="1.0" xmlns="http://www.w3.org/2000/svg"
 width="1100.000000pt" height="2850.000000pt" viewBox="0 0 1100.000000 2850.000000"
 preserveAspectRatio="xMidYMid meet">
<metadata>
Created by potrace 1.15, written by Peter Selinger 2001-2017
</metadata>
<g transform="translate(0.000000,2850.000000) scale(0.500000,-0.500000)"
fill="#000000" stroke="none">
<path d="M940 3766 c-10 -3 -21 -12 -26 -20 -9 -15 -16 -22 -25 -23 -20 -2
-33 -10 -39 -22 -4 -8 -4 -12 -4 -69 0 -52 1 -63 3 -69 4 -9 14 -21 18 -21 2
0 3 -1 3 -2 0 -3 14 -3 178 -3 l167 0 6 -6 c8 -8 8 -14 0 -22 l-6 -6 -162 1
c-179 0 -172 1 -185 -12 -6 -6 -16 -24 -17 -30 -1 -2 -11 -14 -13 -16 -1 0 -2
-2 -2 -3 0 -2 -1 -3 -2 -3 -1 0 -3 -3 -4 -6 -6 -22 -17 -40 -23 -40 -4 0 -21
-17 -21 -22 0 -2 -1 -4 -2 -5 -1 -1 -2 -34 -2 -93 0 -79 0 -93 3 -99 4 -9 14
-21 18 -21 2 0 3 -1 3 -2 0 -2 1 -2 65 -4 57 -1 61 -1 72 -6 6 -2 11 -5 11 -6
0 -5 36 -22 48 -22 3 0 4 -1 3 -2 -2 0 -3 -2 -3 -3 0 -1 -2 -4 -4 -6 -4 -7
-33 -9 -52 -4 -8 2 -19 2 -28 2 -19 -1 -20 -1 -20 -3 0 -1 -1 -2 -3 -2 -4 0
-14 -12 -18 -21 -5 -11 -5 -109 0 -120 4 -9 14 -21 18 -21 2 0 3 -1 3 -2 0 -1
1 -1 3 -2 16 -1 41 -5 47 -7 4 -2 10 -4 13 -5 l6 -2 -6 0 c-4 0 -8 -2 -12 -6
-11 -12 -13 -19 -13 -51 0 -33 3 -43 15 -58 15 -18 17 -21 17 -33 0 -23 -20
-29 -47 -14 -27 16 -28 16 -78 15 -46 -1 -49 -1 -49 -3 0 0 -3 -2 -6 -4 -3 -1
-6 -4 -7 -6 -1 -4 -8 13 -11 25 -1 6 -2 11 -3 13 0 2 -1 4 -1 4 0 1 -3 6 -7
10 -12 13 -17 14 -90 14 l-64 -1 -6 6 c-6 6 -6 7 -6 27 0 20 0 21 6 27 l6 6
46 0 c47 0 57 1 57 3 0 1 1 2 3 2 4 0 14 12 18 21 5 11 5 163 0 174 -4 9 -14
21 -18 21 -2 0 -3 1 -3 2 0 2 -8 3 -26 3 -17 0 -26 -1 -26 -3 0 -1 -2 -2 -5
-4 -6 -3 -16 -13 -22 -23 -7 -13 -14 -16 -34 -15 -2 0 -6 3 -9 6 -9 8 -8 21 1
48 6 18 7 22 7 37 -1 16 -1 16 5 22 l6 6 44 0 c45 0 55 1 55 3 0 1 1 2 3 2 4
0 14 12 18 21 5 11 5 126 0 142 -8 29 -21 40 -45 42 -11 1 -11 0 -20 -8 -5 -4
-13 -13 -17 -19 -10 -16 -17 -22 -25 -22 -10 0 -16 7 -16 17 1 12 -2 33 -5 39
-4 7 -14 16 -19 16 -2 0 -5 1 -6 3 -2 2 -6 4 -9 6 -12 5 -17 12 -17 23 0 9 1
11 6 16 3 3 8 6 11 7 17 6 28 21 31 45 2 15 7 22 17 22 7 0 9 -2 27 -21 14
-15 17 -16 48 -16 29 0 38 1 38 3 0 1 1 2 3 2 4 0 14 12 18 21 5 11 5 175 0
186 -4 9 -14 21 -18 21 -2 0 -3 1 -3 2 0 0 -2 2 -5 2 -4 1 -134 1 -290 1 -156
0 -286 0 -289 -1 -4 0 -6 -2 -6 -2 0 -1 -1 -2 -3 -2 -4 0 -14 -12 -18 -21 -3
-7 -3 -42 -3 -355 0 -346 0 -364 6 -364 1 0 4 -2 6 -5 8 -7 19 -9 57 -10 42
-1 43 -2 45 -27 1 -20 -1 -32 -6 -38 -4 -5 -5 -5 -31 1 -35 8 -54 6 -65 -4 -2
-3 -5 -5 -6 -5 -5 0 -6 -20 -6 -155 0 -122 0 -139 3 -146 4 -9 14 -21 18 -21
2 0 3 -1 3 -2 0 -1 1 -2 3 -2 1 0 92 -1 201 -1 l199 -1 5 -5 c5 -5 5 -6 5 -21
-1 -11 -2 -19 -5 -24 -3 -6 -3 -11 -3 -23 1 -25 1 -32 -1 -37 -2 -6 -5 -6 -20
-3 -2 0 -5 0 -5 -1 -2 -4 -8 -2 -12 3 -3 5 -3 5 0 10 2 3 6 5 9 6 13 3 22 13
22 23 0 17 -6 23 -23 25 -9 2 -11 1 -67 -21 -17 -6 -23 -8 -29 -7 -8 1 -29 -2
-64 -10 -14 -3 -21 -4 -37 -6 -11 -2 -23 -13 -26 -25 -1 -4 -3 -8 -4 -9 -1 -1
-2 -3 -2 -5 0 -7 -8 -14 -19 -17 -6 -2 -11 -4 -11 -5 0 -3 -10 3 -13 8 -2 2
-4 7 -5 11 -4 14 -14 31 -23 38 -5 4 -9 7 -10 7 -1 0 -16 6 -35 13 -31 13 -37
14 -50 12 -12 -2 -25 -21 -26 -38 0 -9 -1 -24 -4 -49 -1 -9 -2 -21 -3 -25 -1
-14 -7 -62 -8 -67 -1 -3 -2 -9 -2 -15 -1 -5 -2 -12 -2 -15 -1 -3 -2 -11 -3
-19 -3 -16 -3 -20 -6 -36 -1 -7 -2 -15 -3 -19 -2 -18 -14 -77 -18 -98 -8 -35
-6 -49 8 -62 6 -5 30 -18 34 -18 1 0 9 -3 17 -7 37 -16 60 -15 80 3 12 9 18
31 25 77 1 4 1 9 2 12 0 2 1 8 2 12 1 4 2 13 3 19 1 6 2 18 3 26 1 16 3 21 3
10 0 -6 0 -6 3 -4 2 1 4 2 4 1 1 0 1 -17 1 -37 -1 -51 -1 -50 3 -58 9 -19 24
-25 48 -22 58 8 71 16 81 48 2 8 5 14 6 15 1 1 2 3 2 6 0 4 0 4 2 0 5 -10 25
-16 41 -12 5 1 14 3 19 4 18 3 33 9 41 18 11 12 14 22 13 46 -1 21 -1 27 4 29
2 0 4 2 4 3 1 1 2 1 2 0 0 -6 22 -12 31 -8 3 2 8 -1 11 -7 3 -5 -1 -44 -7 -67
-8 -29 -15 -34 -54 -34 -28 -1 -35 -2 -48 -12 -17 -13 -19 -35 -8 -79 6 -26
14 -66 16 -86 1 -5 2 -11 2 -14 2 -18 15 -35 31 -40 20 -7 101 -1 144 11 14 3
42 17 46 21 1 1 4 3 8 6 15 10 37 36 48 55 12 24 23 58 28 96 3 21 14 41 18
35 1 -2 24 -10 28 -10 2 0 5 -2 8 -5 7 -7 6 -19 -3 -34 -13 -23 -14 -41 -1
-55 4 -6 5 -6 19 -6 8 0 15 1 17 3 3 2 9 19 14 40 3 12 7 16 24 25 12 6 27 18
30 24 3 6 2 23 -1 36 -6 24 -3 30 18 36 8 3 15 6 15 7 0 1 2 -2 6 -6 l5 -8 1
-90 c1 -102 1 -100 18 -112 10 -8 20 -17 20 -20 0 -3 -8 -12 -17 -17 l-9 -6 0
-15 c0 -14 0 -15 6 -17 3 -2 6 -3 6 -4 0 -3 15 -3 93 -3 82 0 93 0 93 3 0 1 1
2 3 2 4 0 14 12 18 21 3 7 3 24 3 147 0 145 0 143 -9 163 -7 15 -8 22 -4 28 7
11 18 4 21 -12 4 -24 12 -42 21 -52 4 -4 7 -5 19 -5 l13 -1 9 8 c4 5 8 10 8
11 0 1 4 8 8 15 13 22 10 38 -11 55 -11 8 -12 10 -11 24 1 14 18 18 35 10 10
-5 25 -7 25 -3 0 1 3 -3 6 -9 l5 -11 1 -105 c1 -114 1 -111 12 -121 6 -5 25
-15 30 -15 11 0 17 -24 8 -33 -3 -3 -6 -5 -8 -5 -5 0 -27 -11 -31 -16 -9 -9
-11 -18 -11 -42 0 -15 1 -24 3 -29 4 -9 14 -21 18 -21 2 0 3 -1 3 -2 0 -3 11
-3 93 -3 82 0 93 0 93 3 0 1 1 2 3 2 4 0 15 13 19 23 2 6 5 13 8 16 l5 6 36
-1 c31 0 38 0 44 3 5 2 9 4 11 4 4 1 8 5 11 13 7 14 16 22 25 22 15 0 22 -18
11 -28 -11 -9 -19 -14 -24 -14 -5 0 -5 -1 -2 -2 4 -1 4 -3 4 -16 1 -12 1 -15
4 -16 2 0 3 -1 3 -2 0 -3 13 -3 98 -3 86 0 98 0 98 3 0 1 1 2 3 2 4 0 14 12
18 21 3 7 3 28 3 194 0 202 0 200 -11 211 -7 8 -13 18 -13 24 0 4 6 17 10 20
4 3 10 14 11 20 0 5 1 9 1 10 1 1 -1 5 -5 9 -6 8 -27 13 -35 9 -7 -4 -24 -3
-31 1 -16 8 -16 40 0 48 7 4 24 5 31 1 3 -2 7 -2 17 0 13 2 19 7 23 17 3 8 2
174 -1 182 -6 16 -20 25 -43 26 -15 1 -19 3 -22 9 -5 9 12 22 28 22 4 0 29 14
32 19 7 9 8 16 8 66 0 42 -1 52 -3 58 -4 9 -14 21 -18 21 -2 0 -3 1 -3 2 0 1
-1 2 -2 2 -8 2 -485 2 -492 0 -15 -4 -30 -26 -30 -43 0 -8 -5 -15 -16 -23 -14
-11 -20 -20 -22 -33 -4 -19 -6 -27 -9 -30 -1 -1 -3 -4 -4 -6 0 -3 -1 -3 -1 0
0 1 -1 3 -3 3 -2 0 -3 1 -3 2 0 2 -10 3 -59 3 l-48 0 -6 6 -6 6 1 53 c0 45 0
54 -3 61 -5 11 -14 21 -22 21 l-6 0 6 2 c3 1 10 3 15 5 14 5 27 8 29 7 0 0 1
1 1 2 0 1 1 2 3 2 4 0 14 12 18 21 4 9 5 98 1 100 -1 1 -2 3 -2 5 0 6 -12 17
-24 23 -12 6 -37 15 -43 15 -2 0 -3 1 -2 2 1 0 2 2 2 4 0 2 1 4 2 6 1 1 1 2
-1 2 -2 0 5 2 14 5 28 7 52 22 52 33 0 2 1 4 2 5 4 2 3 91 -1 100 -4 9 -14 21
-18 21 -2 0 -3 1 -3 2 0 1 -30 2 -87 2 l-87 0 0 7 0 7 90 0 89 -1 -88 0 -89
-1 0 -5 0 -5 82 0 c69 0 82 0 84 3 2 3 12 5 22 6 3 0 6 1 7 1 1 1 4 -1 8 -5
l6 -6 -1 -164 c0 -146 0 -165 3 -172 4 -9 14 -21 18 -21 2 0 3 -1 3 -2 0 -3
12 -3 107 -3 95 0 107 0 107 3 0 1 1 2 3 2 5 0 17 16 18 24 1 5 2 7 4 7 2 -1
4 0 4 2 1 2 2 2 3 2 1 -1 2 23 2 56 0 33 -1 57 -2 56 -2 -1 -4 4 -5 11 -1 3
-2 5 -3 6 -1 0 -2 2 -2 5 0 8 -7 20 -19 32 -22 23 -22 39 0 62 18 19 24 36 24
64 0 19 -2 28 -4 29 -1 1 -1 2 1 2 2 0 5 3 7 6 2 3 5 5 7 5 2 -1 23 -1 48 -2
43 -1 58 -3 58 -7 0 -1 20 -2 47 -2 l47 0 0 5 0 5 -54 1 -55 0 56 1 55 0 0 -7
0 -7 -49 0 c-44 0 -51 0 -55 -4 -12 -7 -18 -19 -20 -38 -2 -17 -11 -43 -17
-52 -3 -4 -10 -10 -19 -14 -15 -8 -17 -10 -26 -18 -12 -11 -2 -40 14 -40 8 0
7 -2 -1 -2 -2 -1 -4 -2 -4 -2 1 -1 0 -4 -1 -6 -2 -3 -2 -4 1 -4 2 0 1 -1 -3
-2 -8 -3 -17 -10 -21 -18 -4 -7 -4 -122 -1 -129 4 -6 14 -17 17 -17 2 0 3 -1
3 -2 0 -3 13 -3 142 -3 129 0 142 0 142 3 0 1 1 2 3 2 4 0 14 12 18 21 5 11 5
109 0 120 -4 9 -14 21 -18 21 -2 0 -3 1 -3 2 0 1 -1 1 -2 2 -32 2 -48 5 -54 8
-3 2 -8 4 -11 4 -2 0 0 1 4 2 10 2 24 16 22 21 0 2 0 3 2 3 1 0 5 2 8 6 l6 5
65 0 c65 0 76 1 76 3 0 1 1 2 3 2 4 0 14 12 18 21 5 11 5 291 0 302 -4 9 -14
21 -18 21 -2 0 -3 1 -3 2 0 3 -15 3 -217 3 l-206 0 -6 6 c-3 4 -6 8 -6 11 0 5
11 18 15 16 5 -1 16 2 22 7 7 6 15 25 14 34 0 8 6 15 13 15 7 0 13 -7 13 -15
-1 -9 7 -28 14 -34 9 -7 13 -7 80 -7 54 1 62 2 69 5 4 2 8 4 9 5 1 0 2 2 4 3
2 1 7 5 11 8 14 11 32 11 46 0 4 -3 9 -7 11 -8 2 -1 3 -3 4 -3 3 -4 20 -9 30
-9 13 0 22 1 22 3 0 1 2 2 5 3 4 1 5 2 5 17 1 16 1 16 -5 19 -26 16 -29 37 -7
51 10 7 16 13 20 21 6 13 6 19 1 38 -3 10 -6 25 -7 34 -2 22 -8 35 -20 41 l-9
4 -451 0 c-248 0 -453 -1 -456 -2z m-480 -76 c5 -6 5 -12 0 -18 -7 -8 -22 -2
-22 9 0 11 15 17 22 9z m597 -27 c3 -3 3 -3 0 -6 -4 -5 -11 1 -7 6 4 4 4 4 7
0z m-836 -56 c3 -3 3 -3 0 -6 -4 -5 -11 1 -7 6 4 4 4 4 7 0z m1092 -20 c12
-12 3 -31 -13 -31 -11 0 -18 7 -18 18 0 11 7 18 18 18 6 0 9 -1 13 -5z m-936
-88 l6 -6 0 -36 0 -36 -6 -6 c-6 -6 -7 -6 -22 -6 -15 0 -16 0 -22 6 l-6 6 0
36 0 36 6 6 c6 6 7 6 22 6 15 0 16 0 22 -6z m1000 -89 c5 -5 6 -7 6 -16 0 -15
-8 -23 -23 -23 -9 0 -11 1 -16 7 -9 8 -9 23 -1 32 9 9 24 9 34 0z m-846 -118
c7 -6 7 -19 1 -25 -6 -7 -19 -7 -25 -1 -7 6 -7 19 -1 25 6 7 19 7 25 1z m1262
-26 c5 -7 4 -25 -2 -31 -3 -3 -7 -5 -9 -5 -3 0 -9 -1 -13 -1 -7 -1 -10 0 -15
4 l-6 6 3 8 c2 4 3 9 3 11 0 14 29 20 39 8z m-432 -2 c11 -10 3 -28 -11 -28
-9 0 -16 6 -16 16 0 14 17 22 27 12z m367 -47 c3 -2 5 -4 6 -4 0 0 -1 -3 -2
-6 -4 -10 -15 -18 -26 -20 -9 -1 -12 -2 -12 -6 0 -2 -5 -5 -10 -8 l-11 -5 -4
4 c-5 4 -5 5 -1 11 2 3 5 6 7 7 2 0 5 1 7 1 2 1 3 1 4 1 0 0 7 7 7 8 0 3 11
11 19 15 11 6 10 6 16 2z m-1351 -36 l6 -6 0 -25 0 -25 -6 -6 c-6 -6 -7 -6
-22 -6 -15 0 -16 0 -22 6 l-6 6 0 25 0 25 6 6 c6 6 7 6 22 6 15 0 16 0 22 -6z
m1110 -192 c0 -18 0 -4 0 30 0 34 0 48 0 32 1 -17 1 -45 0 -62z m-131 15 c5
-6 5 -12 0 -18 -7 -8 -22 -2 -22 9 0 11 15 17 22 9z m295 -2 c10 -9 3 -26 -10
-26 -8 0 -15 7 -15 15 0 13 16 20 25 11z m-984 -37 c3 -5 3 -5 0 -10 -2 -3 -5
-5 -7 -5 -2 0 -5 2 -7 5 -3 5 -3 5 0 10 2 3 5 5 7 5 2 0 5 -2 7 -5z m-290 -84
c6 -6 6 -6 6 -27 0 -21 0 -21 -6 -27 -6 -6 -7 -6 -22 -6 -15 0 -16 0 -22 6 -6
6 -6 6 -6 27 0 20 0 21 6 27 6 6 7 6 22 6 15 0 16 0 22 -6z m707 -21 c5 -6 5
-12 0 -18 -7 -8 -22 -2 -22 9 0 11 15 17 22 9z m545 -102 c8 -5 10 -11 9 -38
0 -5 2 -22 5 -33 0 -3 2 -7 3 -9 2 -3 3 -9 4 -14 1 -8 0 -10 -5 -15 l-6 -6
-44 0 -44 0 -6 6 c-8 9 -8 19 0 28 4 4 7 6 11 5 9 -1 21 7 26 17 4 8 6 26 3
31 -2 3 1 18 6 23 7 8 26 11 38 5z m-1406 -21 c3 -5 3 -5 0 -10 -2 -3 -5 -5
-7 -5 -2 0 -5 2 -7 5 -3 5 -3 5 0 10 2 3 5 5 7 5 2 0 5 -2 7 -5z m1199 -21 c5
-6 5 -11 1 -17 -2 -3 -4 -10 -4 -19 0 -18 3 -24 16 -30 15 -6 21 -20 17 -37
-5 -21 -25 -26 -54 -13 -24 10 -30 17 -30 35 0 12 3 16 17 26 15 10 18 15 18
28 0 1 0 3 2 3 1 0 0 1 -1 3 -1 2 -2 3 -1 3 1 0 1 1 -1 2 -3 4 -3 10 2 16 4 5
13 5 18 0z m-1101 -36 c4 -6 4 -24 -1 -30 -7 -9 -27 -9 -34 0 -5 6 -5 24 0 30
7 9 27 9 35 0z m872 -64 c3 -5 5 -25 1 -27 -1 0 -1 -6 0 -12 5 -27 10 -30 56
-28 37 1 38 1 38 3 0 1 1 2 3 2 1 0 3 2 4 4 0 2 1 2 1 -1 0 -3 1 -5 2 -5 1 0
3 -4 5 -8 4 -12 4 -133 0 -142 -2 -3 -4 -6 -5 -6 -1 0 -2 -2 -2 -3 0 -4 0 -4
-2 -1 0 2 -9 12 -19 23 -10 11 -23 26 -30 33 -7 7 -24 25 -38 40 -29 29 -36
40 -35 53 0 5 -3 15 -9 30 -10 25 -11 37 -5 45 7 9 27 9 35 0z m551 -7 c14 -9
22 -34 14 -42 -11 -13 -29 1 -34 27 -4 19 5 25 20 15z m-953 -55 c2 0 3 -1 3
-2 0 -2 2 -2 49 -3 24 -1 46 -1 48 -2 4 -1 17 -11 13 -11 -1 0 -3 -5 -6 -10
-2 -6 -13 -28 -23 -49 -10 -21 -19 -40 -20 -42 -2 -7 2 -20 8 -26 5 -5 19 -11
26 -11 3 0 7 -2 10 -5 10 -8 9 -36 -1 -41 -11 -6 -14 -6 -20 -5 -13 2 -14 3
-21 12 -7 9 -8 9 -22 11 -19 1 -21 0 -29 -17 -4 -9 -9 -21 -11 -28 -5 -16 -7
-19 -18 -26 -5 -3 -9 -6 -9 -8 0 -3 -6 3 -10 12 -4 8 -4 10 -2 33 2 22 2 26
-1 33 -3 8 -14 20 -25 27 -13 8 -15 11 -16 23 -1 17 2 21 16 30 29 17 32 24
34 68 1 28 2 33 6 42 l5 11 7 -8 c3 -4 8 -8 9 -8z m912 -91 c11 -11 3 -33 -11
-31 -1 0 -6 -2 -12 -4 -13 -4 -27 -14 -25 -17 0 -2 0 -3 -2 -3 -1 0 -5 -2 -8
-5 -5 -5 -8 -6 -14 -5 -9 0 -25 -4 -25 -6 0 -1 -1 -2 -3 -2 -5 0 -12 -10 -11
-18 0 -5 -1 -9 -3 -10 -4 -5 0 -12 9 -15 24 -8 35 -28 24 -40 -6 -7 -20 -7
-25 0 -5 4 -11 20 -12 31 0 6 -2 8 -11 12 -1 1 -4 3 -5 5 -1 2 -3 5 -5 7 -2 2
-5 6 -7 10 -2 3 -4 6 -5 6 -1 0 -2 4 -4 10 -1 5 -5 13 -8 17 -4 5 -7 10 -8 13
-4 10 -19 12 -45 6 -8 -1 -9 -1 -13 3 -4 4 -4 5 -1 9 5 6 16 11 33 15 14 3 15
3 35 -2 19 -5 23 -5 61 -5 40 1 41 1 50 6 28 16 31 18 39 18 5 0 9 -1 12 -5z
m-1228 -56 c8 -9 9 -15 4 -28 -3 -9 -9 -12 -17 -11 -10 3 -15 33 -7 42 5 6 12
5 20 -3z m-98 -11 c7 7 23 -2 23 -13 0 -9 -7 -15 -19 -15 -5 0 -10 -1 -12 -2
-2 -1 -3 -2 -3 -1 0 1 -1 0 -3 -1 -2 -2 -3 -1 -6 6 -4 10 -4 17 0 23 3 4 4 4
10 3 5 -2 8 -2 10 0z m1041 -10 c5 -6 5 -12 0 -18 -7 -8 -22 -2 -22 9 0 11 15
17 22 9z m-1163 -66 c4 -2 9 -4 11 -4 6 0 12 -8 12 -17 0 -8 -6 -17 -12 -17
-5 0 -28 -12 -30 -16 -3 -6 -5 -5 -8 6 -4 21 -2 37 7 50 4 6 5 6 20 -2z m735
-9 l-5 -5 -4 4 -5 5 4 4 5 5 4 -4 5 -5 -4 -4z m-527 4 c8 -5 15 -31 15 -56 -1
-8 -1 -10 -5 -12 -5 -4 -8 -2 -15 5 -1 1 -5 4 -10 7 -13 7 -16 12 -16 25 0 10
0 11 11 22 13 13 13 13 20 9z m450 -14 c3 -5 3 -5 0 -10 -5 -6 -9 -6 -14 0 -3
5 -3 5 1 10 6 6 8 6 13 0z m794 -19 c5 -5 6 -7 6 -16 0 -15 -8 -23 -23 -23 -9
0 -11 1 -16 7 -9 8 -9 23 -1 32 9 9 24 9 34 0z m-1044 -76 c10 -9 3 -26 -10
-26 -8 0 -15 7 -15 15 0 13 16 20 25 11z m982 -13 c5 -6 6 -8 6 -19 0 -11 -1
-13 -6 -19 l-6 -6 -44 0 -44 0 -6 6 c-5 6 -6 8 -6 19 0 11 1 13 6 19 l6 6 44
0 44 0 6 -6z m-167 -61 c1 0 5 -3 8 -6 8 -8 9 -27 2 -35 -6 -6 -27 -12 -49
-14 -14 -2 -15 -1 -18 4 -3 5 -3 6 0 14 4 9 25 31 35 36 5 2 8 2 22 1z m87
-74 c16 -7 16 -43 -1 -50 -15 -6 -34 -2 -39 9 -4 8 -4 24 0 32 5 12 23 15 40
9z"/>
</g>
</svg>
