<?xml version="1.0" standalone="no"?>
<!DOCTYPE svg PUBLIC "-//W3C//DTD SVG 20010904//EN"
 "http://www.w3.org/TR/2001/REC-SVG-20010904/DTD/svg10.dtd">
<svg version="1.0" xmlns="http://www.w3.org/2000/svg"
 width="1100.000000pt" height="2850.000000pt" viewBox="0 0 1100.000000 2850.000000"
 preserveAspectRatio="xMidYMid meet">
<metadata>
Created by potrace 1.15, written by Peter Selinger 2001-2017
</metadata>
<g transform="translate(0.000000,2850.000000) scale(0.500000,-0.500000)"
fill="#000000" stroke="none">
<path d="M123 3741 c-11 -4 -22 -14 -32 -30 -5 -7 -11 -15 -17 -22 -1 -1 -3
-7 -5 -12 -4 -13 -4 -96 0 -120 2 -9 3 -23 3 -31 0 -26 7 -42 22 -46 2 0 41
-1 87 -2 106 -1 96 2 117 -39 12 -25 14 -30 14 -40 0 -10 -1 -12 -6 -17 -3 -3
-7 -6 -8 -6 -2 0 -5 -1 -7 -1 -29 -4 -48 -6 -108 -7 -75 -2 -75 -2 -75 -4 0
-1 -1 -2 -3 -2 -4 0 -14 -12 -18 -21 -2 -4 -3 -13 -3 -22 0 -20 5 -30 22 -47
13 -12 14 -13 14 -21 0 -8 -1 -9 -14 -21 -22 -21 -22 -21 -22 -90 0 -62 1 -66
11 -81 3 -4 5 -7 5 -6 0 1 4 -3 10 -8 l10 -9 0 -18 c0 -9 1 -22 3 -28 1 -6 2
-12 2 -14 0 -2 -1 -5 -1 -7 0 -5 -7 -12 -21 -24 -19 -15 -18 -11 -19 -134 0
-127 -1 -121 21 -144 22 -23 22 -39 0 -62 -22 -23 -21 -16 -21 -148 1 -100 1
-113 5 -123 9 -29 8 -37 -3 -68 -1 -3 -2 -72 -2 -169 1 -164 1 -164 5 -173 6
-12 14 -19 27 -22 6 -1 162 -1 171 0 3 0 5 2 5 2 0 1 1 2 3 2 4 0 14 12 18 21
3 7 3 15 3 45 l-1 37 6 6 c4 3 7 6 9 5 4 -1 18 4 24 10 9 7 12 27 5 35 -3 2
-8 10 -11 17 -12 23 -5 46 13 46 3 0 11 1 16 3 5 2 10 2 11 2 1 -1 7 2 13 7 5
5 19 12 22 12 1 0 4 -2 6 -5 3 -5 3 -5 -1 -12 -2 -3 -6 -8 -8 -11 -7 -7 -8
-30 -2 -38 4 -6 9 -23 7 -25 0 -1 0 -4 1 -7 1 -3 3 -6 3 -8 3 -13 10 -21 23
-24 5 -1 40 -2 95 -2 l88 1 6 -6 6 -6 -1 -23 c0 -17 1 -25 3 -31 4 -9 14 -21
18 -21 2 0 3 -1 3 -2 0 -3 11 -3 89 -3 74 0 78 0 87 4 l9 4 -1 15 c0 10 0 14
2 14 2 0 0 2 -4 4 -3 3 -8 8 -10 12 -5 9 -3 11 16 19 19 8 21 10 31 38 2 6 4
9 5 7 1 -2 2 -1 3 2 0 4 1 4 1 -1 0 -4 1 -10 3 -14 2 -5 6 -17 9 -29 6 -20 10
-29 17 -38 4 -4 31 -18 36 -18 3 0 11 -9 15 -15 1 -3 5 -3 18 -3 19 0 21 1 23
7 1 6 10 28 11 29 1 1 3 4 6 8 8 10 20 16 35 16 17 0 25 -4 32 -17 6 -12 15
-21 26 -24 10 -3 11 -3 46 5 20 5 38 9 41 9 3 1 22 5 42 9 20 4 54 11 74 15
69 14 79 25 69 81 -1 6 -2 16 -6 59 -3 31 -4 53 -6 97 -1 23 -7 36 -20 42 -13
6 -21 6 -59 0 -33 -6 -51 -9 -55 -9 -2 0 -3 0 -3 -1 0 -1 -2 0 -5 3 l-6 6 -1
86 -1 86 6 6 c6 6 7 6 22 6 21 -1 32 4 38 17 7 14 10 21 10 26 0 2 2 6 4 7 8
6 22 2 22 -7 0 -5 2 -9 9 -25 4 -10 12 -16 20 -15 12 0 14 0 21 6 14 13 18 31
12 51 -4 11 -4 10 -14 22 -11 14 -13 17 -13 28 0 11 2 14 13 28 10 12 10 11
14 22 4 14 4 71 0 82 -4 9 -14 21 -18 21 -2 0 -3 1 -3 2 0 2 -11 3 -69 3 -54
0 -57 0 -60 -4 -3 -3 -3 -3 -3 0 0 1 -1 3 -2 3 -2 0 -10 7 -10 10 0 1 -1 2 -2
2 -2 0 -2 1 0 2 4 3 6 100 2 114 -4 12 -14 22 -29 28 -17 6 -24 10 -31 16 -3
3 -11 8 -17 11 -10 6 -10 6 -48 7 -41 0 -46 0 -57 -11 -4 -4 -7 -10 -10 -20
-7 -22 -9 -26 -20 -32 -6 -3 -17 -10 -24 -15 -8 -6 -16 -10 -18 -10 -7 0 -28
-10 -34 -15 -10 -11 -10 -4 -10 -265 0 -138 -1 -249 -2 -257 -1 -8 -4 -20 -6
-26 -2 -7 -5 -18 -6 -26 -3 -22 -4 -25 -9 -25 -3 0 -7 -1 -8 -3 -2 -1 -5 -2
-6 -2 -3 0 -4 -1 -5 -7 l-1 -7 -1 8 c0 5 -2 12 -5 17 -2 5 -6 14 -8 19 -3 10
-9 17 -27 33 -11 11 -11 19 0 30 17 15 24 23 27 32 4 12 5 375 0 387 -4 11
-11 22 -16 25 -3 1 -7 5 -9 9 -4 8 -4 8 0 16 2 4 6 8 9 9 11 5 17 29 9 39 -14
22 -15 33 -4 54 14 26 14 27 14 83 0 58 -2 64 -16 79 -19 20 -19 34 0 54 16
16 16 17 16 115 0 71 0 90 -3 102 -2 8 -3 19 -3 25 0 11 -4 27 -9 34 -1 3 -7
6 -12 9 -8 4 -11 4 -68 4 l-60 -1 -6 6 -6 6 0 44 0 44 6 6 6 6 65 0 c65 0 76
1 76 3 0 1 1 2 3 2 4 0 14 12 18 21 5 11 5 201 0 212 -4 9 -14 21 -18 21 -2 0
-3 1 -3 2 0 3 -1 3 -155 3 -156 1 -160 1 -171 -7 -5 -4 -15 -21 -16 -29 -1 -7
-10 -13 -16 -12 -7 2 -9 4 -17 22 -11 22 -20 27 -48 27 -14 0 -21 -1 -39 -7
-12 -4 -25 -7 -29 -7 -4 0 -17 3 -29 7 l-22 7 -99 0 c-79 0 -102 -1 -108 -3z
m457 -69 c10 -6 32 -11 47 -11 24 -1 31 -5 35 -20 9 -34 -29 -51 -56 -26 -7 6
-25 14 -39 18 -14 4 -19 8 -19 20 -1 18 3 23 19 21 5 0 12 -1 13 -2z m-295
-43 c7 -3 11 -7 20 -26 6 -12 12 -21 18 -27 13 -12 15 -16 15 -28 0 -16 -7
-22 -26 -20 -8 1 -11 3 -18 14 -8 11 -23 25 -32 30 -11 6 -15 11 -18 21 -2 10
0 23 6 30 7 7 24 11 35 6z m454 -74 c12 -12 3 -31 -13 -31 -11 0 -18 7 -18 18
0 11 7 18 18 18 6 0 9 -1 13 -5z m-242 -28 c9 -6 12 -15 12 -47 2 -46 5 -52
29 -60 8 -2 15 -4 17 -4 8 1 12 0 17 -6 5 -5 6 -7 6 -18 0 -11 -1 -13 -6 -18
-6 -6 -6 -6 -25 -6 -64 1 -96 0 -117 -5 -21 -5 -27 -5 -39 0 -9 4 -13 28 -6
40 4 9 19 14 30 11 11 -3 30 4 39 13 5 5 3 21 -4 28 -6 6 -28 17 -34 17 -16 0
-26 22 -18 42 4 10 11 12 41 13 14 1 29 2 32 3 8 2 21 1 26 -3z m230 -222 c5
-3 14 -8 20 -11 33 -18 59 -28 75 -28 7 0 14 -8 14 -16 0 -12 -16 -27 -23 -21
-1 2 -3 2 -4 2 0 -1 -1 -1 -1 1 0 1 -4 2 -12 1 -14 -1 -17 -2 -32 -5 -15 -4
-24 -1 -44 14 -7 6 -17 13 -23 17 -13 8 -15 13 -14 29 0 11 1 13 6 17 8 7 25
7 38 0z m-266 -16 c3 -3 3 -3 0 -6 -4 -5 -11 1 -7 6 4 4 4 4 7 0z m353 -76
c-1 -8 0 -12 2 -13 1 0 2 -2 2 -3 0 -2 3 -4 6 -6 8 -4 11 -10 11 -23 0 -19 -8
-27 -27 -27 -19 0 -27 8 -27 27 0 13 5 22 15 26 3 2 5 4 5 5 -1 0 1 2 5 4 6 2
6 3 6 11 0 6 1 10 1 10 1 0 1 -5 1 -11z m-123 -29 c2 -3 3 -8 3 -15 0 -13 -4
-18 -20 -26 -13 -6 -16 -11 -17 -27 -1 -10 -1 -13 2 -18 11 -14 12 -19 11 -52
0 -24 6 -33 32 -45 25 -12 33 -24 24 -35 -3 -3 -6 -4 -21 -4 -33 0 -48 -10
-56 -37 -2 -5 -3 -27 -3 -65 -1 -54 0 -57 3 -65 5 -8 16 -44 15 -44 -1 0 0 -2
2 -4 1 -2 2 -3 1 -3 -2 0 10 -21 18 -32 8 -11 16 -18 23 -19 2 0 5 -1 6 -2 3
-2 10 -3 19 -4 10 -1 15 -5 33 -24 21 -21 22 -24 22 -38 0 -11 -1 -12 -8 -19
-4 -4 -7 -8 -7 -9 3 -2 -10 1 -18 6 -11 4 -30 23 -49 46 -10 13 -18 17 -32 17
-10 0 -11 0 -16 -8 -10 -15 -12 -22 -11 -54 l0 -29 -6 -6 -6 -6 -154 0 -154 0
-6 6 -6 6 1 25 c1 24 3 34 8 34 1 0 2 2 2 4 0 2 1 2 1 0 2 -4 19 -19 24 -20 7
-3 21 -2 28 1 9 4 25 28 26 39 1 13 -2 21 -15 34 -7 7 -12 14 -12 16 0 28 -4
51 -15 93 -2 9 -8 23 -12 26 -4 4 -23 5 -23 1 0 -5 -6 14 -9 28 -3 15 -2 32 1
43 6 21 6 27 1 47 -6 23 -6 52 -1 68 1 6 4 11 4 12 1 1 2 3 3 5 l1 4 0 -4 c0
-6 8 -14 22 -24 9 -6 13 -10 15 -14 5 -20 10 -34 17 -46 9 -16 9 -16 3 -43 -5
-19 -5 -23 -4 -46 2 -25 4 -34 13 -53 3 -5 5 -9 6 -9 1 0 2 -2 3 -3 0 -2 2 -5
3 -7 1 -2 2 -6 3 -10 2 -12 5 -14 22 -14 8 0 16 1 17 3 4 3 11 36 17 79 1 5 2
10 2 12 3 10 4 61 4 142 0 98 0 99 9 99 9 0 9 -1 9 -96 0 -103 0 -101 18 -116
14 -12 21 -19 21 -24 1 -17 -1 -22 -16 -33 -18 -14 -23 -27 -22 -53 1 -37 15
-75 34 -95 9 -9 33 -23 45 -25 3 -1 9 -1 12 -2 3 -1 8 -2 11 -2 13 -3 31 10
33 25 1 4 2 8 3 10 1 1 1 5 0 8 -2 5 -1 9 2 19 2 8 5 19 6 25 2 14 4 67 2 70
-1 2 -2 2 -2 -1 0 -2 -1 -1 -2 3 -1 4 -2 37 -2 73 0 71 -2 91 -8 110 -4 10
-10 22 -14 25 -1 1 -4 5 -7 9 -9 14 -6 33 10 59 4 7 9 16 11 19 5 8 8 26 8 37
0 16 10 34 24 44 10 7 28 6 35 -2z m-371 -19 c10 -5 18 -20 15 -32 -6 -25 -15
-45 -21 -45 -1 0 -2 -3 -3 -6 0 -7 0 -7 -1 0 0 7 -2 10 -15 23 -17 18 -21 27
-17 42 3 10 7 14 15 18 7 3 20 3 27 0z m-139 -95 c10 -10 4 -28 -10 -28 -7 0
-21 6 -21 9 0 5 4 14 8 19 6 5 17 6 23 0z m84 -86 c11 -10 3 -28 -11 -28 -9 0
-16 6 -16 16 0 14 17 22 27 12z m522 -106 c7 -9 1 -62 -7 -71 -6 -7 -18 -7
-23 0 -9 8 -13 62 -5 71 7 9 27 9 35 0z m409 -158 c3 -2 10 -3 16 -3 22 -1 25
-6 24 -53 0 -16 -9 -25 -27 -25 -14 0 -21 5 -33 19 -14 19 -18 27 -18 40 0 13
3 19 12 23 7 3 20 2 26 -1z m57 -127 c3 -3 3 -3 0 -6 -4 -5 -11 1 -7 6 4 4 4
4 7 0z m-458 -31 c1 -1 3 -2 5 -2 9 0 15 -18 12 -32 -2 -11 -7 -16 -18 -18
-10 -2 -23 0 -28 6 -9 9 -9 33 0 41 3 1 7 5 10 7 3 3 5 3 11 2 3 -2 7 -3 8 -4z
m334 -39 c6 -4 6 -6 6 -20 0 -14 0 -16 -6 -20 -4 -4 -7 -5 -18 -5 -11 0 -14 1
-18 5 -6 4 -6 6 -6 20 0 14 0 16 6 20 4 4 7 5 18 5 11 0 14 -1 18 -5z m-763
-59 c5 -5 5 -11 0 -16 -10 -10 -27 5 -16 16 4 4 12 4 16 0z m258 -16 c5 -5 5
-15 0 -20 -9 -9 -24 -2 -24 10 0 8 6 14 14 14 3 0 8 -2 10 -4z m-207 -98 l18
-9 100 0 100 0 6 -6 c6 -6 6 -6 6 -30 0 -24 0 -24 -6 -30 l-6 -6 -29 0 c-32 0
-43 -3 -58 -17 -12 -11 -16 -13 -28 -13 -12 0 -16 2 -28 13 -4 3 -12 9 -18 12
l-11 5 -68 0 -68 0 -6 6 c-6 6 -6 6 -6 30 0 24 0 24 6 30 5 5 8 6 14 6 4 0 13
3 20 6 25 12 28 13 36 12 4 0 16 -4 26 -9z m652 -8 c16 -7 16 -43 -1 -50 -15
-6 -34 -2 -39 9 -4 8 -4 24 0 32 5 12 23 15 40 9z m-311 -32 c1 0 5 -3 8 -6 5
-5 6 -7 6 -18 0 -11 -1 -13 -6 -18 -6 -6 -7 -6 -18 -6 -11 0 -12 0 -18 6 -5 5
-6 7 -6 17 0 14 3 20 12 24 5 2 8 2 22 1z m-557 -47 c7 -9 0 -26 -14 -33 -22
-11 -43 13 -25 30 7 7 11 8 26 7 8 0 11 -1 13 -4z m878 -26 c12 -12 3 -31 -13
-31 -11 0 -18 7 -18 18 0 11 7 18 18 18 6 0 9 -1 13 -5z m-268 -17 c10 -9 3
-26 -10 -26 -8 0 -15 7 -15 15 0 13 16 20 25 11z m132 -19 c6 -3 13 -12 13
-17 0 -4 -6 -12 -10 -12 -2 0 -4 -1 -5 -2 -3 -2 -17 3 -17 6 0 1 -1 2 -2 2 -1
0 -5 2 -8 5 l-6 4 7 4 c3 2 6 4 7 3 0 0 2 2 5 5 6 6 8 6 16 2z m300 -6 c7 -4
10 -11 10 -23 0 -19 -8 -27 -27 -27 -9 0 -13 1 -19 6 -13 8 -36 9 -50 0 -8 -5
-24 -4 -30 2 -7 7 -7 25 0 32 7 7 21 7 32 1 10 -5 43 -2 43 4 0 2 8 7 15 8 8
2 21 0 26 -3z m-1017 -5 c7 -7 2 -19 -8 -19 -5 0 -12 5 -12 9 0 1 2 5 3 8 4 7
11 7 17 2z m675 -22 c2 -2 3 -4 2 -4 -1 0 1 -2 4 -5 6 -7 6 -7 -1 -22 -5 -9
-8 -14 -12 -15 -10 -4 -22 6 -22 20 0 8 7 20 12 20 5 0 12 8 12 15 l1 6 0 -6
c1 -3 3 -8 4 -9z m143 -18 c7 0 14 -9 13 -18 -1 -9 -7 -21 -15 -33 -4 -6 -12
-17 -17 -27 -12 -19 -15 -22 -28 -22 -12 0 -19 6 -19 17 0 14 14 69 18 74 6 6
23 10 37 10 3 -1 8 -1 11 -1z m-515 -7 c4 -4 5 -7 5 -15 0 -14 -6 -20 -20 -20
-14 0 -20 6 -20 20 0 14 6 20 20 20 8 0 11 -1 15 -5z m812 -60 c6 -4 6 -6 6
-20 0 -14 0 -16 -6 -20 -9 -8 -23 -7 -49 3 -13 5 -23 8 -26 7 -10 -2 -15 -3
-29 -8 -7 -3 -15 -5 -18 -5 -5 0 -11 7 -11 13 0 5 6 13 10 13 4 0 26 8 38 13
15 7 20 8 52 9 27 0 28 0 33 -5z m-195 -35 c5 -6 5 -12 0 -18 -7 -8 -22 -2
-22 9 0 11 15 17 22 9z"/>
<path d="M964 3740 c-3 -1 -6 -1 -7 0 0 0 -1 0 -1 -2 0 -1 -1 -2 -3 -2 -4 0
-14 -12 -18 -21 -3 -7 -3 -23 -3 -130 0 -144 -1 -137 22 -161 l9 -10 15 0 c18
0 20 1 34 20 9 11 19 15 39 14 2 0 6 -3 9 -6 11 -11 7 -35 -7 -43 -3 -2 -11
-7 -16 -13 -10 -9 -10 -9 -10 -20 0 -11 2 -13 17 -30 13 -15 27 -51 26 -68 -2
-18 -7 -21 -25 -15 -12 4 -14 9 -16 27 -2 20 -6 32 -13 38 -6 5 -31 16 -37 16
-3 0 -5 1 -6 2 -1 2 -21 -2 -29 -6 -12 -7 -12 -10 -12 -111 1 -82 1 -91 5 -97
4 -7 14 -17 21 -21 7 -4 14 -13 14 -20 0 -6 -7 -14 -14 -18 -7 -4 -17 -14 -21
-21 -6 -10 -7 -57 -2 -69 4 -9 14 -21 18 -21 2 0 3 -1 3 -2 0 -3 17 -3 263 -3
l252 0 20 9 c26 11 27 11 52 0 39 -16 69 -13 91 8 8 7 11 12 17 29 10 26 15
32 29 32 9 0 11 -1 16 -7 6 -5 6 -7 6 -16 -2 -33 2 -44 15 -51 11 -6 51 -7 75
-2 11 3 21 3 32 2 28 -1 39 3 46 21 4 8 4 16 4 180 0 153 0 173 -3 192 -4 19
-4 21 0 41 4 29 5 218 0 232 -4 10 -10 21 -18 29 -10 9 -12 14 -12 26 0 12 3
17 12 26 4 4 5 7 5 16 0 14 -3 20 -12 24 -6 4 -19 4 -169 4 -157 0 -179 -1
-179 -6 0 -1 -1 -2 -3 -2 -1 0 -6 -4 -12 -9 -22 -21 -30 -21 -52 0 -6 5 -11 9
-12 9 -2 0 -3 1 -3 2 0 3 -19 7 -27 4 -6 -2 -19 -14 -19 -18 -1 -3 -2 -7 -4
-13 -1 -3 -3 -7 -3 -9 -1 -6 -3 -11 -15 -38 -4 -9 -12 -18 -16 -18 -4 0 -25
-11 -29 -15 -4 -3 -11 -18 -11 -22 0 -4 -7 -11 -10 -11 -2 0 -5 2 -6 5 -4 4
-4 5 -1 17 3 9 4 20 4 34 -1 25 1 29 16 31 18 2 35 9 39 15 2 2 4 4 6 4 2 0 2
1 1 1 -1 1 -2 5 -2 9 0 9 -5 18 -14 25 -5 4 -8 4 -61 5 -62 0 -66 -1 -72 -14
-4 -8 -6 -25 -3 -28 1 -1 2 -6 2 -12 0 -8 -1 -11 -6 -16 -3 -3 -7 -6 -8 -6 -5
0 -29 -11 -42 -19 -14 -8 -22 -9 -30 -3 -4 3 -5 6 -5 12 0 9 4 14 19 23 6 3
15 10 21 15 l9 9 -1 11 c-2 14 -6 21 -15 25 -8 3 -159 4 -169 1z m677 -81 c3
-5 3 -6 0 -12 -2 -4 -5 -7 -6 -7 -3 0 -27 -16 -32 -21 -3 -3 -5 -5 -6 -5 -1 0
-3 -1 -5 -3 -3 -2 -7 -4 -14 -4 -15 0 -23 8 -23 23 0 16 7 21 26 23 8 1 22 3
31 6 22 6 25 6 29 0z m-540 -61 c1 -1 3 -2 5 -2 6 0 11 -10 11 -20 0 -15 -8
-23 -23 -23 -9 0 -11 1 -16 7 -13 12 -6 36 10 39 10 1 12 1 13 -1z m646 -9 c4
-4 5 -7 5 -15 0 -14 -6 -20 -20 -20 -14 0 -20 6 -20 20 0 14 6 20 20 20 8 0
11 -1 15 -5z m-385 -8 c6 -7 6 -22 -1 -28 -7 -7 -22 -7 -29 0 -6 7 -6 24 0 29
10 7 23 6 30 -1z m-372 -30 l-5 -5 -4 4 -5 5 4 4 5 5 4 -4 5 -5 -4 -4z m227
-23 c12 -13 18 -18 26 -23 8 -4 8 -4 168 -5 l160 -1 9 -5 c6 -3 10 -6 10 -7 0
-1 1 -4 3 -5 16 -13 15 -47 -1 -54 -15 -6 -31 -2 -44 11 -4 4 -8 7 -9 7 -2 0
-3 1 -3 2 0 1 -3 3 -16 8 -2 0 -41 1 -87 1 -92 1 -91 1 -110 -11 -4 -3 -11 -7
-15 -9 l-8 -4 -13 8 c-27 16 -27 16 -44 16 -14 0 -16 0 -22 6 -3 3 -7 5 -8 5
-2 0 -3 1 -3 2 1 4 -5 12 -17 24 -13 13 -14 15 -13 28 1 17 24 20 37 6z m476
-32 c5 -5 6 -7 6 -16 0 -15 -8 -23 -23 -23 -9 0 -11 1 -16 7 -9 8 -9 23 -1 32
9 9 24 9 34 0z m75 -79 c12 -5 18 -21 14 -35 -4 -14 -10 -19 -27 -21 -9 -1
-27 -7 -43 -13 -5 -2 -13 -4 -16 -4 -16 0 -22 19 -10 32 4 3 7 6 8 6 4 0 20
12 29 22 15 14 30 19 45 13z m-616 -41 c1 0 5 -3 8 -6 5 -5 6 -7 6 -17 0 -13
-4 -22 -11 -24 -3 -1 -11 -2 -22 -1 -2 0 -6 3 -9 6 -5 5 -6 7 -6 17 0 14 3 20
12 24 5 2 8 2 22 1z m203 -22 c7 -7 7 -18 -1 -26 -4 -3 -7 -6 -8 -6 -3 0 -18
-15 -18 -19 0 -2 -1 -5 -2 -7 -11 -20 -7 -46 7 -57 l8 -6 106 -1 c131 0 125
-2 141 31 11 22 17 27 33 26 21 -1 32 -17 27 -37 -4 -14 -11 -20 -27 -21 -4 0
-10 -2 -13 -3 -3 -1 -6 -2 -7 -2 -6 -1 -14 -8 -17 -16 -3 -5 -5 -9 -4 -9 0 0
-2 -3 -6 -7 -7 -7 -8 -7 -19 -7 -16 0 -29 -9 -32 -22 0 -2 -2 -7 -3 -10 -2 -3
-3 -6 -3 -7 -1 -4 -6 -10 -9 -10 -3 0 -8 6 -9 10 0 1 -1 4 -3 7 -1 3 -3 8 -3
10 -1 5 -7 13 -14 18 -5 4 -7 4 -128 4 l-124 0 -6 6 c-3 3 -6 8 -6 9 -1 5 -6
13 -12 16 -7 4 -27 7 -29 6 -3 -4 -11 -1 -14 4 -3 6 -1 13 8 26 2 2 5 8 6 13
1 4 5 14 8 20 5 14 3 12 32 24 6 2 14 4 17 4 53 -4 53 -4 64 2 5 3 12 6 15 7
4 1 7 5 9 9 2 4 6 12 10 16 9 11 18 12 26 5z m-256 -127 c11 -4 15 -9 15 -22
0 -13 -6 -19 -20 -19 -16 0 -21 6 -20 24 1 20 6 23 25 17z m620 -43 c5 -6 4
-23 -1 -32 -10 -15 -32 -36 -41 -38 -18 -4 -32 3 -35 17 -4 17 0 26 18 40 28
21 48 25 59 13z m-601 -48 c5 -5 6 -7 6 -18 0 -11 -1 -13 -6 -18 -5 -5 -7 -6
-17 -6 -6 0 -13 1 -16 2 -5 4 -37 3 -42 0 -14 -7 -29 0 -29 14 0 12 5 15 28
17 17 1 21 2 33 8 19 9 35 10 43 1z m327 -55 c6 -4 6 -6 6 -20 0 -14 0 -16 -6
-20 -4 -4 -7 -5 -18 -5 -11 0 -14 1 -18 5 -6 4 -6 6 -6 20 0 14 0 16 6 20 4 4
7 5 18 5 11 0 14 -1 18 -5z m-354 -34 c11 -5 34 -6 43 -2 12 5 25 4 32 -3 5
-5 6 -7 6 -17 0 -24 -19 -30 -46 -15 -15 7 -15 7 -36 7 -25 -1 -30 2 -30 16 0
15 13 21 31 14z m182 -11 c7 -5 17 -12 23 -15 13 -7 18 -13 14 -18 -2 -3 -6
-3 -22 -2 -10 1 -20 1 -21 1 -22 -1 -27 -1 -33 5 -9 9 -9 24 -1 33 10 11 23 9
40 -4z"/>
<path d="M1454 2920 c-3 -1 -6 -1 -7 0 0 0 -1 0 -1 -2 0 -1 -1 -2 -3 -2 -4 0
-14 -12 -18 -21 -2 -6 -3 -16 -3 -52 0 -42 0 -46 4 -54 5 -9 18 -21 23 -21 2
0 6 -3 9 -6 l6 -6 -6 -6 c-3 -3 -7 -6 -9 -6 -5 0 -18 -12 -23 -21 l-4 -9 1
-217 c0 -119 1 -227 1 -241 0 -14 0 -39 -1 -56 -1 -37 2 -85 7 -115 1 -6 6
-21 11 -32 7 -18 10 -24 11 -32 4 -20 13 -39 26 -53 4 -5 8 -10 8 -10 0 -3 26
-2 31 1 2 1 6 4 8 6 18 18 33 14 33 -9 -1 -34 9 -44 48 -48 19 -2 180 -1 189
1 3 0 9 2 12 2 33 6 69 27 94 53 15 16 17 24 17 49 0 20 1 22 19 36 15 12 23
24 26 38 0 2 2 7 3 11 2 7 9 42 11 54 0 4 2 16 4 27 3 19 4 29 2 35 -2 9 -10
22 -18 28 -5 4 -11 9 -14 12 -2 2 -5 6 -6 7 -2 2 -3 4 -3 5 0 1 -5 6 -10 12
-12 12 -20 16 -57 31 -13 5 -34 15 -47 21 -39 21 -38 21 -50 20 -13 0 -20 -5
-27 -17 -8 -13 -9 -18 -10 -54 -1 -34 -4 -65 -7 -86 -3 -21 -17 -30 -28 -18
l-5 5 -1 61 c0 37 -1 63 -2 69 -3 9 -9 21 -14 26 -6 7 -12 18 -12 26 0 9 4 13
21 22 7 3 14 7 15 9 6 6 9 20 10 38 0 22 3 28 14 31 8 2 10 2 24 -5 17 -9 31
-9 42 -3 4 3 7 5 8 6 1 1 4 3 8 6 4 3 8 6 10 8 1 1 10 8 19 15 9 6 17 13 18
13 1 1 7 6 13 11 23 17 25 18 27 20 1 1 7 6 14 11 7 5 13 10 15 11 2 2 13 10
25 19 24 18 30 26 32 44 2 13 -9 32 -31 60 -9 12 -18 22 -19 24 -2 2 -16 20
-32 40 -16 20 -31 38 -32 40 -24 29 -30 34 -42 34 -13 0 -20 -4 -29 -16 -5 -6
-12 -13 -14 -16 -3 -3 -9 -10 -14 -15 -24 -26 -48 -52 -54 -59 -5 -4 -8 -8 -8
-10 0 -1 -2 1 -5 4 l-6 7 -1 90 c-1 68 -2 91 -4 96 -3 7 -14 19 -17 19 -2 0
-3 1 -3 2 0 0 -2 2 -5 2 -7 1 -117 1 -146 0 -11 0 -30 0 -43 1 -13 0 -25 0
-28 -1z m106 -176 c5 -5 6 -7 6 -17 0 -16 -7 -23 -23 -23 -10 0 -12 1 -17 6
-5 5 -6 7 -6 17 0 16 7 23 23 23 10 0 12 -1 17 -6z m79 -61 c12 -7 14 -33 3
-43 -5 -6 -18 -8 -28 -6 -11 2 -16 7 -18 17 -4 17 3 32 16 35 9 2 22 1 27 -3z
m113 -27 c5 -5 5 -6 0 -22 -9 -29 -10 -36 -1 -53 7 -16 12 -21 26 -31 6 -3 12
-9 13 -13 4 -6 4 -7 -1 -11 -3 -3 -8 -4 -27 -5 -13 0 -28 -2 -34 -2 -16 -2
-18 1 -29 32 -12 33 -13 38 -12 46 2 7 7 17 9 17 3 0 24 21 29 30 10 16 19 20
27 12z m141 -22 c5 -5 6 -7 6 -16 0 -15 -8 -23 -23 -23 -9 0 -11 1 -16 7 -9 8
-9 23 -1 32 9 9 24 9 34 0z m-331 -60 c5 -5 5 -11 0 -16 -10 -10 -27 5 -16 16
4 4 12 4 16 0z m81 -29 c12 -12 3 -31 -13 -31 -11 0 -18 7 -18 18 0 11 7 18
18 18 6 0 9 -1 13 -5z m-56 -115 c4 -6 4 -24 -1 -30 -7 -9 -27 -9 -34 0 -5 6
-5 24 0 30 7 9 27 9 35 0z m52 -186 c6 -6 7 -17 1 -23 -4 -5 -14 -10 -18 -9
-4 0 -10 12 -10 20 0 14 17 21 27 12z m233 -8 c5 -5 5 -15 0 -20 -9 -9 -24 -2
-24 10 0 8 6 14 14 14 3 0 8 -2 10 -4z m-260 -56 c0 -2 1 -5 3 -7 9 -12 0 -29
-15 -29 -24 0 -25 31 -1 39 9 3 13 2 13 -3z m135 -168 c4 -6 4 -24 -1 -30 -7
-9 -27 -9 -34 0 -5 6 -5 24 0 30 7 9 27 9 35 0z"/>
</g>
</svg>
