<?xml version="1.0" standalone="no"?>
<!DOCTYPE svg PUBLIC "-//W3C//DTD SVG 20010904//EN"
 "http://www.w3.org/TR/2001/REC-SVG-20010904/DTD/svg10.dtd">
<svg version="1.0" xmlns="http://www.w3.org/2000/svg"
 width="1000.000000pt" height="2850.000000pt" viewBox="0 0 1000.000000 2850.000000"
 preserveAspectRatio="xMidYMid meet">
<metadata>
Created by potrace 1.15, written by Peter Selinger 2001-2017
</metadata>
<g transform="translate(0.000000,2850.000000) scale(0.500000,-0.500000)"
fill="#000000" stroke="none">
<path d="M196 3746 c-13 -3 -32 -13 -29 -17 1 0 1 -1 0 -1 -1 0 -2 -6 -3 -13
0 -11 0 -13 4 -16 8 -5 22 -10 28 -9 4 0 8 -2 10 -4 9 -9 2 -24 -10 -24 -7 1
-26 -7 -32 -12 -10 -10 -10 -5 -10 -185 0 -184 -1 -176 12 -181 8 -2 28 -3 28
0 0 5 14 10 26 10 17 0 22 -5 24 -21 0 -9 -1 -14 -3 -19 -4 -8 -27 -25 -37
-27 -2 0 -5 -2 -8 -4 -3 -1 -6 -3 -8 -3 -5 0 -16 -8 -23 -15 -11 -12 -11 -17
-11 -165 0 -155 -1 -150 16 -164 4 -4 13 -10 19 -13 17 -9 18 -10 18 -49 0
-40 0 -40 -23 -52 -28 -15 -32 -24 -32 -81 0 -28 1 -41 4 -58 5 -25 5 -26 -5
-57 -2 -9 -5 -24 -6 -32 -5 -65 -12 -116 -20 -167 -3 -14 -15 -74 -18 -82 -4
-15 2 -34 16 -44 17 -13 19 -16 19 -28 0 -13 -6 -21 -14 -21 -38 -1 -52 -9
-62 -33 -7 -19 -30 -65 -38 -78 -7 -10 -8 -14 -8 -23 0 -18 6 -27 28 -38 14
-7 48 -28 55 -33 3 -2 11 -7 17 -11 6 -4 11 -7 12 -8 1 0 10 -7 21 -15 11 -7
23 -16 27 -19 12 -8 33 -25 34 -26 1 -1 5 -4 10 -8 7 -5 10 -6 20 -6 13 0 21
4 30 16 5 8 7 13 22 39 7 11 7 22 3 34 -2 4 -4 10 -4 13 -1 2 -2 4 -3 4 -1 0
-2 2 -2 5 0 3 1 5 2 5 1 0 2 2 2 5 0 2 1 6 3 8 1 2 3 10 3 18 0 15 0 15 -5 17
-3 2 -9 5 -13 7 -9 6 -19 6 -31 3 -5 -2 -10 -3 -13 -3 -3 0 -7 1 -9 1 -2 0 -6
3 -9 6 -5 5 -6 7 -6 18 0 11 1 13 6 18 6 6 7 6 20 6 10 0 15 -2 22 -13 8 -11
22 -24 28 -24 3 0 10 -1 15 -2 22 -3 39 0 47 8 4 4 13 26 15 35 0 3 3 15 7 27
3 12 6 24 7 26 0 2 1 5 2 7 0 2 1 5 2 8 0 3 2 9 3 13 13 55 13 60 -5 78 -11
11 -17 19 -17 22 0 4 7 10 16 14 18 7 25 13 29 23 7 15 21 139 26 221 0 11 1
27 2 36 4 63 4 72 -2 84 -5 12 -17 21 -31 25 -12 4 -16 10 -16 21 0 9 5 19 11
19 5 0 26 10 31 15 4 4 8 11 11 19 0 2 1 18 1 35 0 29 1 31 5 36 3 3 5 6 6 7
0 2 1 2 1 0 0 -2 4 -10 9 -17 6 -8 13 -20 17 -28 4 -7 9 -15 11 -17 2 -2 5
-11 8 -19 5 -14 5 -17 5 -68 0 -35 1 -56 2 -61 3 -10 12 -20 25 -27 14 -8 19
-13 19 -20 0 -7 -5 -12 -19 -20 -13 -7 -22 -17 -25 -27 -1 -5 -2 -35 -2 -101
0 -82 0 -96 3 -102 4 -9 14 -21 18 -21 2 0 3 -1 3 -2 0 -2 0 -1 20 -3 20 -2
34 4 44 17 9 14 17 22 21 22 4 0 12 -8 21 -22 4 -6 10 -10 17 -13 l10 -5 84 0
c46 0 91 1 101 2 19 2 33 0 39 -6 6 -6 6 -22 1 -38 -2 -7 -5 -19 -6 -26 -5
-25 -14 -25 -23 0 -3 8 -8 17 -10 20 -9 9 -28 9 -45 0 -7 -4 -12 -13 -15 -29
-1 -6 -4 -8 -17 -8 -22 -1 -27 -3 -60 -20 -32 -16 -87 -39 -125 -51 -45 -15
-129 -38 -138 -38 -3 0 -5 -1 -6 -2 -1 -1 -4 -2 -7 -3 -3 -1 -6 -2 -5 -3 1 -2
-4 -4 -18 -5 -7 -1 -13 -1 -14 -1 -2 -1 -3 -2 -3 -4 0 -2 -1 -2 -1 -1 -2 4 -5
1 -9 -7 -3 -6 -3 -23 1 -27 3 -3 26 -2 30 1 1 1 3 2 5 2 2 0 6 2 8 4 3 2 6 3
8 2 4 -1 10 -8 10 -11 0 -3 -11 -19 -15 -22 -3 -2 -7 -21 -6 -27 0 -2 4 -8 8
-15 4 -7 11 -16 14 -22 9 -14 16 -26 31 -57 15 -29 18 -34 22 -34 1 0 2 -1 2
-2 0 -3 16 -8 24 -8 6 0 32 6 103 25 21 5 23 7 22 27 0 8 1 14 2 14 1 0 0 2
-3 4 -12 9 -14 11 -14 23 0 17 10 25 28 21 12 -3 15 -8 13 -30 -1 -13 0 -20 1
-21 1 -1 2 -2 1 -3 -1 -1 1 -2 3 -3 2 -1 4 -2 4 -3 0 -4 27 -3 37 2 2 1 13 5
24 9 46 17 107 46 156 74 62 36 112 74 157 119 29 29 34 35 34 39 0 3 1 3 1 1
1 -2 4 -4 10 -5 4 -1 9 -1 10 -1 1 -1 3 -2 5 -3 1 -2 3 -3 5 -3 1 0 4 -1 6 -1
9 -2 14 -2 20 2 8 6 30 13 39 13 10 0 16 -6 16 -16 0 -7 -12 -33 -16 -36 -1
-1 -4 -6 -8 -11 l-6 -11 -11 1 c-30 3 -41 0 -47 -14 -4 -9 -4 -51 1 -61 24
-61 57 -92 115 -112 30 -10 97 -20 116 -17 10 1 27 9 33 15 13 12 32 14 47 5
5 -3 11 -7 15 -10 3 -2 9 -4 17 -5 12 -1 13 -1 17 5 3 3 5 6 5 7 1 3 1 5 4 11
1 3 3 8 3 11 0 7 5 12 11 12 6 0 20 -6 24 -11 1 -2 4 -3 6 -3 2 0 6 -2 9 -5 3
-3 9 -7 14 -10 10 -5 17 -11 14 -11 -1 0 1 -3 4 -6 4 -3 6 -6 6 -6 -1 -2 -5
-2 80 -2 64 0 77 0 82 3 9 4 30 7 53 7 13 0 21 0 22 2 0 1 2 2 3 2 2 0 8 4 13
10 12 13 17 15 34 15 23 1 30 3 42 17 25 26 28 32 28 45 -1 12 -3 13 -20 13
-14 0 -16 -1 -17 -3 -3 -6 -14 -16 -20 -18 -17 -6 -32 4 -32 21 0 13 5 18 21
26 21 10 28 11 45 7 26 -5 38 -1 47 16 16 27 11 49 -11 59 -5 2 -12 5 -16 5
-8 2 -13 6 -21 18 -13 21 -21 26 -55 38 -25 9 -45 18 -51 24 -2 2 -8 12 -13
22 -10 20 -17 28 -33 38 -12 7 -15 10 -22 22 -7 11 -13 16 -23 21 -11 5 -14 5
-24 3 -11 -2 -16 -5 -13 -7 2 -1 -2 -2 -9 -2 -12 0 -13 0 -14 5 -2 6 -5 6 -10
2 -1 -1 -7 -3 -13 -4 -8 -1 -14 -4 -22 -9 -9 -7 -12 -8 -22 -8 -11 0 -13 1
-18 6 -5 5 -6 7 -6 16 0 13 5 21 17 30 6 4 12 9 14 11 15 14 33 18 42 9 3 -3
5 -5 4 -6 0 0 1 -4 4 -8 6 -10 8 -16 5 -25 -1 -6 -1 -7 1 -7 2 0 3 1 3 2 0 0
2 1 4 1 26 2 37 7 44 20 1 2 4 5 6 6 2 0 4 2 6 3 6 5 18 -2 26 -15 4 -6 7 -10
8 -9 1 1 6 2 13 2 6 0 12 0 12 1 1 0 2 7 3 15 1 11 1 14 -1 14 -2 0 -3 1 -3 3
0 1 -2 3 -4 4 -6 2 -12 13 -12 23 0 10 3 14 13 26 4 3 9 11 11 16 l5 9 1 114
c0 109 0 115 -4 131 -5 22 -5 33 0 54 2 9 4 20 4 25 0 7 1 11 6 17 3 5 6 8 6
7 0 -2 15 7 20 12 5 5 25 38 36 58 3 7 4 22 1 35 -5 18 -4 29 2 35 3 3 6 5 8
5 27 1 50 9 57 21 2 3 8 10 15 17 l12 13 -1 13 c0 13 0 14 -6 16 -12 5 -27 -1
-39 -15 -10 -11 -20 -17 -31 -18 -13 -2 -18 3 -24 22 -5 18 -14 28 -30 34 -27
11 -111 24 -107 17 1 -1 0 -2 -1 -2 -2 0 -3 -4 -4 -9 0 -1 -2 -5 -3 -8 -2 -4
-2 -8 -1 -14 3 -13 -2 -19 -22 -21 -23 -3 -36 -1 -43 8 -4 6 -4 26 0 31 3 5 4
22 2 30 -3 13 -8 17 -32 25 -10 3 -30 11 -45 17 -15 6 -28 11 -30 11 -1 0 0 2
3 5 3 3 6 5 6 5 0 1 69 1 153 2 84 1 154 2 156 2 1 0 2 1 2 2 0 1 1 2 3 2 4 0
14 12 18 21 3 7 3 17 3 71 -1 69 -1 70 -14 82 -6 5 -25 9 -27 6 -1 -1 -4 -2
-7 -2 -6 0 -10 -4 -10 -12 0 -2 -4 -10 -8 -18 -5 -8 -10 -17 -11 -20 -4 -8 -8
-28 -6 -36 1 -8 -2 -21 -7 -27 -6 -7 -24 -11 -34 -6 -19 8 -22 29 -8 55 6 11
14 36 14 46 0 7 10 15 21 17 6 1 13 3 17 4 3 2 10 3 14 3 6 0 6 1 2 2 -3 1 -5
2 -5 5 0 2 -1 5 -2 5 -1 1 -1 4 -1 7 0 8 -6 16 -12 18 -3 1 -18 2 -33 3 -24 1
-29 2 -37 6 -5 2 -10 6 -10 7 -2 3 -25 31 -30 35 -2 2 -11 12 -21 23 -26 29
-29 31 -31 31 -2 0 -2 1 -1 2 4 2 0 12 -4 12 -2 0 -3 1 -3 2 0 1 -1 2 -3 2 -2
0 -3 1 -3 2 0 3 -28 2 -34 -1 -3 -2 -6 -5 -8 -8 -4 -7 -17 -13 -24 -10 -12 5
-15 8 -15 16 0 6 1 8 6 12 7 5 22 11 29 11 2 1 4 2 4 3 0 1 2 3 4 5 2 1 4 3 4
5 0 3 6 17 11 28 2 4 8 9 16 14 12 7 26 20 36 33 3 5 8 8 12 9 3 1 7 2 8 3 1
1 8 3 14 6 7 2 14 6 16 8 2 2 8 7 14 12 9 8 9 8 22 8 18 0 23 -5 25 -21 1 -19
-5 -27 -20 -30 -23 -3 -38 -13 -49 -32 -4 -6 -9 -10 -22 -18 -9 -5 -19 -12
-22 -15 -3 -3 -7 -6 -8 -6 -2 0 -1 -13 2 -26 1 -6 9 -12 18 -13 8 -1 239 0
245 1 1 0 2 1 2 2 0 1 1 2 3 2 4 0 14 12 18 21 3 7 3 20 3 102 0 108 0 106
-16 123 -17 18 12 17 -345 17 -308 0 -312 0 -320 -4 -11 -6 -16 -17 -19 -42
-2 -16 -8 -21 -23 -21 -15 0 -21 5 -23 21 -3 25 -8 36 -19 42 -7 4 -12 4 -66
4 -54 0 -58 0 -65 -4 -4 -2 -8 -5 -9 -6 -12 -12 -14 -21 -10 -41 4 -19 4 -24
-1 -44 -4 -14 -4 -18 -2 -25 2 -7 11 -20 18 -24 2 -1 5 -5 7 -9 3 -7 3 -8 0
-13 -5 -6 -6 -6 -21 1 -7 3 -16 6 -19 7 -3 1 -7 2 -9 2 -2 1 -7 2 -12 3 -13 2
-17 5 -23 18 -10 20 -9 40 2 54 3 4 7 25 6 32 -1 7 -9 24 -11 24 -1 0 -2 1 -2
3 0 6 -10 12 -23 13 -12 0 -12 0 -21 -8 -14 -13 -17 -15 -30 -15 -12 0 -16 2
-27 12 -21 20 -28 22 -83 20 -47 -1 -50 -1 -50 -3 0 -1 -3 -3 -7 -5 -4 -1 -9
-6 -12 -10 -2 -5 -8 -11 -12 -15 -6 -7 -7 -8 -17 -8 -10 0 -11 1 -17 8 -4 4
-10 10 -12 15 -3 4 -8 9 -12 10 -4 2 -7 4 -7 5 0 1 -1 2 -2 2 -7 2 -410 1
-418 0z m146 -83 c3 -2 7 -5 7 -7 1 -2 2 -4 3 -4 1 0 6 -9 11 -19 10 -20 10
-20 10 -42 1 -12 1 -24 2 -27 1 -3 2 -7 2 -9 0 -6 4 -11 9 -11 1 0 9 0 15 -1
13 -2 13 -1 16 5 3 6 5 13 6 30 2 21 9 29 28 29 18 0 27 -9 28 -27 0 -13 -4
-20 -13 -27 -10 -8 -15 -18 -16 -30 0 -11 1 -14 15 -28 11 -12 22 -13 42 -6
16 7 24 6 44 -2 l18 -8 211 -1 211 0 4 -5 c3 -3 6 -5 7 -5 2 0 2 0 1 -2 -2 0
-6 -11 -10 -24 -7 -21 -7 -25 -7 -48 0 -15 -1 -27 -2 -30 -5 -9 -15 -10 -44
-4 -27 6 -68 5 -82 -1 -26 -12 -30 -12 -56 0 -9 4 -11 4 -152 4 -141 0 -154 0
-154 -3 0 -1 -1 -2 -3 -2 -4 0 -14 -12 -18 -21 -5 -11 -5 -165 0 -176 4 -9 14
-21 18 -21 2 0 3 -1 3 -2 0 -2 1 -2 120 -4 63 -1 115 -1 115 -2 1 0 3 -2 6 -5
5 -5 5 -5 1 -5 -2 0 -4 -1 -5 -2 -1 -2 -5 -4 -40 -21 -44 -23 -88 -40 -143
-58 -26 -9 -43 -17 -50 -26 -7 -8 -16 -12 -31 -10 -14 1 -16 2 -22 11 -3 4 -3
12 -3 77 0 74 -1 80 -8 94 -2 4 -5 8 -7 9 -6 5 -13 17 -13 22 0 3 3 10 6 17 7
15 7 30 0 43 -7 13 -6 25 4 39 17 24 17 24 17 79 0 47 0 49 -5 59 -2 6 -6 12
-8 14 -3 4 -22 13 -35 17 -9 3 -19 11 -19 16 0 2 -2 10 -5 18 -2 9 -4 16 -3
17 0 1 0 1 -1 0 -1 0 -7 2 -13 6 -6 4 -12 7 -13 7 -4 0 -15 15 -18 24 -6 20
-7 23 -13 27 -9 5 -33 6 -39 2 -7 -4 -12 -4 -16 2 -6 9 2 19 16 19 6 0 21 14
30 27 3 6 9 11 12 13 8 4 21 3 29 -1z m997 -64 c12 -4 16 -10 16 -25 0 -9 -1
-14 -4 -18 -12 -15 -42 -18 -56 -5 -10 8 -10 33 0 43 9 9 28 11 44 5z m-620
-10 c7 -7 7 -19 0 -26 -5 -5 -6 -5 -17 -4 -6 1 -20 2 -30 2 l-19 0 -18 -12
c-10 -6 -21 -13 -24 -15 -15 -8 -29 -2 -29 12 0 9 4 13 20 23 27 17 28 18 56
18 18 0 27 1 33 3 12 5 22 5 28 -1z m736 -113 c3 -2 5 -4 5 -5 0 -2 2 -3 4 -4
2 0 2 -1 -1 -1 -7 0 -11 -10 -11 -24 0 -9 1 -13 6 -19 7 -10 11 -23 8 -32 -5
-23 7 -46 29 -57 10 -5 31 -7 39 -4 4 2 10 3 15 3 14 0 20 -4 29 -20 10 -16
10 -15 18 -25 10 -13 13 -18 13 -29 0 -8 -1 -10 -7 -15 -5 -6 -7 -7 -15 -7
-13 0 -18 4 -31 20 -6 7 -11 13 -12 13 -1 0 -3 2 -6 4 -9 9 -20 10 -44 3 -12
-3 -19 -4 -25 -3 -13 3 -29 2 -41 -1 -24 -6 -39 0 -44 19 -3 13 3 32 11 32 3
0 3 1 2 2 -2 0 -3 7 -3 15 -1 12 -2 14 -7 18 -5 4 -8 4 -61 5 l-56 1 -5 5 c-3
3 -4 6 -3 7 1 1 6 15 11 31 10 31 10 35 4 49 -2 4 -6 8 -8 8 -3 1 -3 2 3 4 19
9 21 9 101 9 52 0 79 -1 82 -2z m106 -58 c5 -4 4 -18 -1 -23 -6 -7 -19 -7 -25
-1 -6 6 -7 20 -2 24 10 8 18 8 28 0z m-482 -24 c11 -10 3 -28 -11 -28 -9 0
-16 6 -16 16 0 14 17 22 27 12z m-768 -11 c12 -7 14 -33 3 -43 -8 -9 -32 -9
-40 0 -9 8 -9 32 0 41 7 7 27 8 37 2z m904 -132 c4 -4 5 -7 5 -13 0 -11 -7
-18 -18 -18 -11 0 -18 7 -18 18 0 11 7 18 18 18 6 0 9 -1 13 -5z m-441 -32 c3
-2 6 -6 8 -8 1 -2 6 -8 11 -12 10 -10 18 -13 42 -14 22 0 25 -3 34 -24 17 -38
19 -53 10 -62 -5 -5 -10 -6 -21 -5 -8 1 -13 5 -20 17 -3 7 -8 14 -11 17 -5 6
-21 16 -25 16 -3 0 -23 10 -24 12 -1 2 -1 6 -1 9 1 6 1 8 -4 13 -8 9 -17 12
-34 12 -12 0 -15 1 -19 4 -4 4 -4 5 -2 9 3 6 8 9 26 14 18 6 24 6 30 2z m-535
-54 c13 -7 34 -8 41 -4 7 5 22 4 27 -2 7 -6 7 -22 0 -28 -6 -7 -20 -7 -29 -1
-4 3 -7 6 -8 6 -1 2 -12 6 -19 8 -8 1 -14 1 -24 -1 -7 -1 -9 -1 -13 3 -8 8 -3
24 9 24 3 0 10 -2 16 -5z m816 -9 c11 -10 3 -28 -11 -28 -9 0 -16 6 -16 16 0
14 17 22 27 12z m412 -11 c3 -2 3 -3 -3 -7 l-7 -4 -4 4 -5 5 4 4 c5 5 6 5 15
-2z m-287 -15 c5 -2 13 -9 18 -14 7 -8 13 -12 32 -21 13 -6 24 -13 25 -14 0
-2 6 -6 12 -10 17 -13 25 -20 25 -24 1 -12 10 -36 16 -44 11 -12 79 -62 109
-80 3 -2 10 -5 14 -8 24 -14 41 -23 69 -36 16 -8 31 -15 31 -15 3 0 26 -12 30
-15 8 -7 9 -14 5 -19 -2 -3 -4 -6 -4 -7 0 -2 -1 -3 -2 -3 -1 0 -3 -4 -5 -10
-4 -12 -8 -16 -20 -17 -19 -2 -29 -7 -41 -19 -13 -13 -17 -16 -27 -16 -8 0
-14 6 -17 18 -4 17 -3 22 5 28 5 3 8 4 15 3 11 -2 14 -2 27 1 6 1 8 2 6 2 -4
0 -5 1 -5 12 -1 7 0 12 1 12 1 0 0 1 -2 2 -2 2 -6 5 -8 8 -6 6 -18 7 -23 1 -2
-2 -3 -5 -3 -6 1 -1 1 -1 0 0 -2 1 -5 -3 -6 -8 0 -2 -17 -13 -19 -12 -1 1 -2
0 -2 -1 -1 -1 -3 -2 -5 -3 -2 0 -5 -1 -6 -1 -2 -2 -17 -3 -26 -2 -3 0 -11 6
-18 13 -23 22 -33 25 -50 16 -21 -11 -29 -15 -35 -15 -6 0 -29 10 -33 14 -5 5
-28 1 -33 -6 -2 -2 -16 -10 -18 -10 -4 0 -8 6 -8 10 0 6 4 13 17 32 16 25 18
28 34 55 13 22 15 26 14 33 0 4 -1 9 -1 10 0 2 -2 6 -5 9 -4 5 -6 6 -15 7 -7
0 -12 -1 -15 -3 -27 -18 -36 -18 -60 -2 -22 15 -28 16 -65 18 -16 1 -31 2 -33
2 -6 1 -24 -4 -28 -9 -2 -2 -8 -12 -12 -21 -6 -12 -9 -16 -13 -17 -6 -1 -9 3
-13 16 -2 6 -4 12 -5 14 -2 1 -2 2 -1 2 4 0 -4 8 -10 10 -5 1 -9 4 -10 5 -1 1
-9 7 -17 13 -22 14 -23 16 -21 41 1 11 1 27 1 36 0 19 3 25 14 25 9 0 13 -5
18 -24 5 -18 15 -44 18 -44 1 0 2 -1 2 -3 0 -5 10 -9 23 -10 l12 -1 25 24 c26
26 45 47 57 63 11 14 22 19 43 19 9 0 16 -1 22 -4z m-352 -105 c3 -1 10 -6 15
-12 6 -5 12 -11 15 -12 13 -8 17 -27 7 -36 -6 -7 -21 -7 -28 -1 -3 3 -5 6 -5
7 0 1 -4 10 -8 20 -10 22 -11 30 -8 34 4 4 6 4 12 0z m-59 -39 c16 -7 16 -43
0 -50 -12 -4 -34 -10 -35 -9 0 1 -2 0 -4 -2 -2 -1 -2 -1 -1 0 0 2 -1 3 -3 4
-3 0 -4 2 -4 3 1 2 1 5 0 7 -1 2 -1 7 0 11 1 4 3 11 3 15 3 15 7 20 22 24 5 1
14 -1 22 -3z m-382 -32 c7 -6 7 -19 1 -25 -6 -7 -19 -7 -25 -1 -7 6 -7 19 -1
25 6 7 19 7 25 1z m562 -3 c3 -9 1 -18 -14 -66 -4 -12 -8 -23 -8 -24 0 -1 -3
-4 -7 -7 l-7 -6 -63 0 c-64 0 -67 1 -75 8 -3 3 -3 4 0 4 3 0 56 26 76 38 6 3
13 7 17 10 16 9 40 23 56 34 18 12 23 14 25 9z m-231 -25 c0 0 2 -3 3 -7 2 -7
2 -9 -2 -16 -3 -5 -4 -9 -3 -9 0 0 -1 -2 -4 -5 -3 -4 -7 -5 -13 -5 -11 0 -17
6 -17 17 0 8 1 10 8 15 5 3 11 7 13 7 3 1 5 2 5 3 0 1 2 1 5 0 3 -1 5 -1 5 0z
m275 -43 c3 -3 3 -3 0 -6 -3 -3 -3 -3 -6 0 -3 2 -3 3 -1 6 4 4 4 4 7 0z m690
-24 c7 -11 -6 -22 -15 -13 -5 5 -5 10 0 14 5 5 11 5 15 -1z m-1383 -40 l-5 -5
-4 4 -5 5 4 4 5 5 4 -4 5 -5 -4 -4z m380 -32 l-5 -5 -4 4 -5 5 4 4 5 5 4 -4 5
-5 -4 -4z m580 -51 c3 -1 8 -5 11 -8 3 -4 6 -8 7 -9 1 -2 2 -4 2 -5 0 -1 4 -5
8 -9 15 -13 19 -13 111 -13 75 1 82 1 85 -2 5 -5 15 -7 32 -9 7 0 13 -1 14 -2
0 0 2 0 3 2 2 2 7 3 13 3 8 0 11 -1 15 -5 5 -5 5 -6 4 -23 -1 -19 -1 -21 -6
-35 -5 -13 -12 -18 -25 -18 -14 0 -19 4 -28 24 -7 16 -22 32 -24 27 0 -2 -1
-2 -2 0 -1 2 -9 3 -32 4 -37 0 -42 0 -51 -9 -7 -7 -15 -29 -13 -34 3 -4 0 -19
-5 -24 -2 -3 -8 -6 -12 -7 -12 -3 -25 0 -30 7 -5 5 -8 20 -5 24 1 3 -3 21 -8
31 -3 5 -15 6 -26 2 -5 -2 -18 -17 -18 -22 0 -2 -13 -8 -16 -8 -6 2 -10 8 -9
14 2 7 2 10 0 21 -2 17 -7 24 -21 30 -9 4 -13 8 -16 19 -2 9 0 22 6 29 7 8 24
11 36 5z m-973 -4 c9 -11 10 -25 2 -32 -4 -3 -20 1 -26 6 -7 6 -7 19 -1 25 6
7 20 7 25 1z m456 2 c5 0 17 -12 21 -22 5 -11 4 -20 -1 -20 -2 0 -7 -1 -12 -3
-9 -3 -14 -4 -26 -3 -2 0 -6 3 -9 6 -5 5 -6 7 -6 17 0 14 3 20 12 24 5 2 9 2
21 1z m241 -47 c5 -6 5 -6 4 -34 -1 -27 -1 -27 -8 -33 -5 -6 -7 -7 -16 -7 -12
0 -17 4 -27 20 -4 6 -10 13 -14 15 -3 2 -7 4 -8 5 -4 4 -12 4 -63 4 l-51 0 -6
7 c-4 3 -8 9 -8 11 -1 3 -3 5 -5 5 -2 0 2 3 8 6 l11 6 89 0 89 0 5 -5z m-654
1 c24 -4 31 -10 31 -29 0 -14 -5 -22 -15 -26 -19 -8 -43 -15 -50 -15 -18 0
-21 18 -6 36 2 2 5 9 7 15 3 9 6 13 11 16 4 3 7 5 8 5 0 0 7 -1 14 -2z m1336
-43 c10 -2 25 -10 28 -15 2 -3 3 -10 3 -16 0 -19 -8 -27 -27 -27 -21 0 -42 19
-44 39 -1 18 11 24 40 19z m-503 -78 c3 -5 3 -6 1 -11 -4 -6 -11 -8 -16 -3 -5
4 -5 10 -1 15 5 6 12 5 16 -1z m-154 -20 c3 -3 3 -3 0 -6 -3 -3 -3 -3 -6 0 -3
2 -3 3 -1 6 4 4 4 4 7 0z m104 -19 c4 -2 4 -4 4 -11 -2 -18 -8 -24 -30 -32 -7
-3 -16 -7 -20 -10 -5 -4 -10 -7 -11 -8 -2 0 -4 -2 -4 -3 -1 -9 -2 -14 -4 -19
-1 -3 -2 -6 -2 -7 0 -1 -2 -3 -4 -5 -10 -10 -26 -3 -26 10 0 6 2 9 11 18 5 5
12 11 14 12 3 2 4 5 4 9 0 4 1 10 2 13 2 3 3 8 4 11 2 11 20 23 38 25 4 1 8 2
9 2 1 1 11 -2 15 -5z m-868 -5 c6 -4 6 -6 6 -20 0 -14 0 -16 -6 -20 -4 -4 -7
-5 -18 -5 -11 0 -14 1 -18 5 -6 4 -6 6 -6 20 0 14 0 16 6 20 4 4 7 5 18 5 11
0 14 -1 18 -5z m706 -19 c3 -4 4 -6 3 -6 -1 0 -2 -3 -3 -6 -1 -4 -5 -9 -8 -11
-5 -4 -8 -4 -74 -5 l-68 -1 -6 6 c-8 8 -8 16 0 24 l6 6 72 -1 73 -1 5 -5z
m542 -11 c0 -3 -2 -8 -6 -12 l-6 -6 -39 1 c-42 0 -47 -1 -57 -11 -6 -5 -7 -7
-7 -17 0 -11 1 -12 7 -16 7 -6 26 -16 30 -16 1 0 8 -4 14 -9 14 -10 24 -15 42
-20 14 -4 19 -10 19 -23 0 -13 -5 -23 -18 -36 -5 -6 -13 -15 -18 -21 -11 -14
-35 -37 -48 -46 -10 -7 -11 -7 -15 -4 -6 6 -7 7 -7 15 0 16 -13 36 -25 36 l-6
0 6 2 c3 1 9 3 13 5 4 1 13 3 20 4 27 2 29 3 32 7 1 3 2 4 1 3 -1 0 -2 6 -2
14 0 12 0 14 4 15 3 1 1 2 -4 2 -5 0 -9 1 -10 2 -1 1 -6 2 -11 3 -7 1 -13 4
-20 9 -14 10 -27 14 -46 14 -18 -1 -24 4 -24 18 0 8 8 30 12 30 0 0 1 6 0 12
-1 22 -8 26 -46 28 -25 1 -26 1 -30 6 -3 4 -3 6 -2 10 1 2 2 5 1 5 0 1 2 4 5
7 l7 5 111 1 111 1 6 -6 c4 -4 6 -8 6 -12z m133 -13 c12 -8 18 -34 10 -44 -8
-9 -40 -8 -49 2 -8 9 -8 32 1 41 7 7 28 8 38 1z m-493 -52 c2 -2 9 -8 15 -14
6 -6 14 -14 19 -17 11 -8 17 -24 13 -34 -1 -2 -1 -6 0 -8 2 -2 1 -5 -1 -9 -7
-13 -10 -14 -23 -7 -3 2 -8 3 -10 3 -10 -1 -15 3 -23 18 -3 7 -7 14 -9 16 -22
24 -24 52 -4 56 8 1 19 0 23 -4z m-78 -58 c3 -5 3 -6 0 -11 -5 -7 -13 -6 -17
1 -2 5 -2 6 1 11 4 7 12 6 16 -1z m55 -55 c2 -2 4 -8 4 -17 0 -13 0 -15 -6
-20 -6 -6 -7 -6 -20 -6 -16 0 -23 8 -22 27 2 18 8 24 28 22 10 -1 13 -2 16 -6z
m145 -2 c2 -1 7 -3 10 -4 l6 0 -6 -1 c-7 0 -12 -6 -17 -21 -2 -4 -3 -9 -4 -10
-1 -1 -1 -3 0 -5 2 -4 -3 -20 -8 -24 -6 -6 -20 -5 -25 0 -5 5 -7 18 -3 24 2 3
-1 22 -4 30 -1 3 -4 6 -6 6 -3 0 -3 0 0 2 2 1 4 2 5 2 1 1 5 2 9 3 9 4 36 3
43 -2z m-982 -73 c7 -6 7 -18 1 -23 -4 -4 -9 -5 -33 -6 -15 -1 -30 -2 -33 -2
-6 0 -12 5 -12 11 0 4 6 11 10 11 10 2 41 9 44 11 6 4 18 2 23 -2z m534 -14
c11 -6 16 -11 15 -22 0 -12 -6 -18 -19 -18 -13 0 -17 4 -20 20 -2 10 -2 13 0
15 2 2 3 4 3 6 0 2 1 3 2 2 1 0 2 1 3 3 1 5 1 5 3 2 2 -2 7 -6 13 -8z m601
-32 c7 -4 10 -10 10 -22 0 -12 -3 -18 -14 -31 -3 -3 -6 -8 -7 -12 -1 -3 -2 -5
-2 -3 -1 1 -2 2 -3 1 -1 -1 -4 2 -8 5 -12 13 -18 46 -10 56 7 9 23 12 34 6z
m229 -75 c9 -1 21 -1 26 1 13 2 23 -2 34 -14 4 -4 10 -8 15 -10 4 -1 5 -2 3
-2 -3 0 -9 -2 -14 -4 -6 -2 -14 -5 -20 -5 -25 -3 -36 -9 -55 -32 -5 -7 -28
-17 -37 -17 -2 0 -7 -2 -11 -3 -4 -2 -14 -4 -23 -5 -18 -1 -21 1 -21 14 0 5 0
12 -1 16 -3 17 -8 22 -23 25 -13 3 -14 3 -13 7 0 3 -1 4 -7 4 -4 0 0 1 8 2 8
1 19 2 23 3 33 5 43 8 52 12 14 7 28 11 39 10 5 -1 16 -2 25 -2z m130 -25 c6
-5 6 -9 2 -16 -3 -4 -5 -4 -11 -3 -14 2 -22 5 -25 8 -3 3 -3 4 3 9 9 8 24 8
31 2z m-557 -11 c22 -4 25 -12 26 -54 0 -23 0 -27 -4 -30 -2 -3 -4 -5 -5 -5
-3 0 -17 7 -17 8 0 3 -20 22 -22 22 -1 0 -6 3 -9 7 -7 7 -7 8 -7 20 1 8 2 14
4 16 2 1 4 5 6 9 4 9 10 11 28 7z m401 -97 c8 -9 8 -24 0 -32 -6 -6 -8 -6 -18
-6 -9 -1 -14 0 -18 3 -5 4 -5 4 -4 17 2 18 8 24 24 24 9 0 11 -1 16 -6z m117
-5 c8 -3 14 -13 14 -23 0 -16 -30 -15 -37 2 -4 10 -4 14 1 20 4 5 11 5 22 1z"/>
</g>
</svg>
