<?xml version="1.0" standalone="no"?>
<!DOCTYPE svg PUBLIC "-//W3C//DTD SVG 20010904//EN"
 "http://www.w3.org/TR/2001/REC-SVG-20010904/DTD/svg10.dtd">
<svg version="1.0" xmlns="http://www.w3.org/2000/svg"
 width="1100.000000pt" height="2850.000000pt" viewBox="0 0 1100.000000 2850.000000"
 preserveAspectRatio="xMidYMid meet">
<metadata>
Created by potrace 1.15, written by Peter Selinger 2001-2017
</metadata>
<g transform="translate(0.000000,2850.000000) scale(0.500000,-0.500000)"
fill="#000000" stroke="none">
<path d="M1101 3840 c-7 -2 -7 -2 -24 -7 -18 -4 -52 -13 -53 -14 -3 -2 -43
-12 -54 -14 -7 -1 -43 -10 -75 -19 -9 -2 -20 -5 -24 -6 -28 -7 -40 -31 -29
-56 l4 -10 -5 -5 -5 -5 -149 0 -149 -1 -7 -6 c-8 -7 -21 -29 -21 -37 0 -7 -5
-15 -12 -18 -3 -1 -7 -5 -9 -9 l-3 -6 -2 5 c-1 3 -2 4 -2 2 0 -2 -1 -2 -2 -1
0 1 -6 5 -11 9 -6 3 -11 8 -11 10 0 8 -16 36 -24 42 -14 10 -19 10 -163 9
-138 0 -139 -1 -139 -3 0 -1 -1 -2 -3 -2 -4 0 -14 -12 -18 -21 -4 -10 -5 -99
0 -111 4 -14 16 -21 40 -23 19 -2 23 -12 21 -65 0 -10 -8 -16 -19 -16 -9 1
-28 -4 -33 -9 -2 -1 -5 -5 -8 -9 -4 -7 -4 -10 -4 -51 0 -36 1 -46 3 -52 4 -9
14 -21 18 -21 2 0 3 -1 3 -2 0 -2 1 -2 33 -3 28 -1 28 -1 39 4 8 4 13 9 17 15
6 9 15 18 18 18 3 0 13 -9 13 -11 0 -2 4 -3 15 -3 7 0 16 -1 17 -1 6 -1 9 6
13 25 1 3 3 7 5 9 8 9 10 14 9 31 0 11 -1 17 -4 20 -7 8 -1 18 14 22 20 5 29
10 38 22 15 20 20 20 47 7 19 -10 19 -10 41 -11 29 -1 48 5 64 21 12 11 27 19
36 19 10 0 16 -3 24 -16 4 -5 9 -10 11 -11 3 -2 4 -3 3 -3 -3 0 -3 -19 0 -20
1 -1 1 -2 -1 -2 -6 0 -14 -20 -14 -30 1 -7 0 -10 -5 -15 l-6 -6 -76 1 c-74 1
-76 1 -88 6 -7 2 -12 5 -13 6 -1 1 -4 3 -8 6 -8 4 -35 6 -37 2 -1 -1 -2 -2 -3
-1 -3 2 -6 -7 -6 -19 0 -12 0 -13 9 -21 11 -11 14 -16 14 -28 0 -10 -7 -27
-16 -37 -9 -10 -12 -48 -6 -63 4 -9 14 -21 18 -21 2 0 3 -1 3 -2 0 -2 2 -2 60
-3 l54 -1 11 5 c14 7 16 9 19 18 1 4 4 10 7 14 6 8 8 8 29 2 11 -3 15 -5 24
-16 8 -9 14 -24 16 -37 1 -8 0 -10 -5 -15 -6 -6 -6 -6 -26 -5 -35 1 -44 -5
-43 -27 1 -10 1 -11 -3 -12 -2 0 -2 -1 2 -1 22 -1 24 -44 3 -53 -18 -7 -37 1
-42 18 -4 17 4 35 17 35 4 0 4 1 2 1 -4 1 -4 2 -3 12 1 25 -6 28 -61 26 -42
-1 -43 -1 -43 -3 0 -1 -1 -2 -3 -2 -4 0 -14 -12 -18 -21 -4 -11 -4 -101 0
-112 4 -9 14 -21 18 -21 2 0 3 -1 3 -2 0 -3 12 -3 101 -3 l90 0 6 -6 c8 -9 8
-17 0 -26 l-6 -6 -24 0 c-32 0 -38 -3 -60 -32 -13 -17 -38 -17 -50 0 -22 28
-28 31 -61 33 -24 0 -26 0 -38 -5 -7 -3 -15 -9 -20 -14 -15 -17 -26 -19 -44
-10 -6 4 -13 6 -21 6 -11 1 -12 0 -17 -5 -3 -4 -5 -7 -5 -8 1 -1 0 -2 -1 -2
-2 0 -2 0 -1 -2 2 0 3 -3 2 -5 0 -9 -13 -13 -19 -7 -4 4 -5 12 -2 12 2 0 2 1
0 3 -1 1 -2 5 -3 10 -1 4 -2 7 -3 7 -1 0 -2 1 -1 2 2 3 -9 13 -17 16 -5 2 -13
2 -24 1 -22 -1 -22 -1 -22 -3 0 -1 -1 -2 -3 -2 -4 0 -14 -12 -18 -21 -5 -12
-4 -118 1 -131 3 -9 3 -9 24 -10 11 -1 13 0 14 3 1 2 2 3 2 2 0 -4 4 4 5 11 1
8 4 10 10 10 5 -1 5 -12 -1 -24 -7 -15 -5 -25 6 -37 4 -4 10 -9 15 -11 9 -5 4
-5 112 -7 l34 0 5 -5 c4 -4 5 -6 3 -6 -6 0 -36 -16 -41 -22 -7 -7 -13 -23 -15
-38 -2 -13 -7 -20 -18 -22 -14 -3 -28 1 -38 12 -6 6 -20 12 -31 12 -5 0 -19
-3 -30 -7 -21 -7 -73 -22 -92 -26 -3 -1 -7 -2 -10 -2 -7 -2 -18 -9 -20 -13 -1
-3 -2 -10 -2 -18 l0 -13 11 -11 c13 -12 25 -25 38 -41 5 -6 11 -12 13 -15 2
-3 7 -8 10 -12 3 -4 9 -11 13 -17 13 -15 31 -41 46 -63 14 -22 22 -28 39 -31
10 -2 13 -2 28 3 31 10 116 43 134 53 3 1 21 11 41 21 49 24 57 28 57 30 0 2
17 -4 20 -7 1 -1 2 -5 2 -8 1 -3 2 -7 3 -7 1 -1 1 -2 0 -2 -2 0 -7 -6 -12 -13
-5 -8 -12 -18 -17 -23 -12 -12 -18 -27 -25 -65 0 -3 -2 -11 -5 -19 -3 -13 -6
-26 -9 -38 0 -2 -3 -9 -5 -17 -5 -18 -7 -36 -4 -40 1 -2 2 -3 1 -3 -2 0 3 -8
8 -11 6 -4 23 -9 35 -10 4 -1 15 -3 23 -6 15 -5 16 -5 93 -5 50 0 79 1 83 2 6
2 17 10 14 10 -1 0 0 1 1 3 1 2 2 3 1 3 -1 0 -1 1 0 2 4 2 9 20 6 21 -5 1 4
12 10 12 6 0 15 -11 10 -12 -3 -1 3 -19 6 -21 0 0 1 -1 0 -2 -1 -1 0 -2 1 -2
1 0 2 -1 1 -2 -1 -2 7 -9 13 -12 8 -3 327 -5 335 -2 19 7 26 14 36 34 8 15 13
19 28 18 16 0 20 -3 28 -19 15 -29 34 -40 52 -29 6 4 19 24 16 24 -1 0 0 2 2
5 1 2 3 5 3 6 1 4 5 9 8 9 3 0 9 -7 9 -10 1 -6 11 -26 15 -30 10 -10 14 -10
126 -10 l106 0 5 -5 c3 -3 5 -7 4 -9 0 -2 -3 -14 -6 -27 -8 -41 -22 -78 -32
-93 -6 -7 -15 -12 -35 -18 -10 -3 -17 -6 -22 -11 -7 -7 -9 -10 -13 -27 -1 -2
-2 -7 -3 -12 -1 -11 -3 -13 -17 -27 -9 -8 -24 -17 -29 -17 -4 0 -10 9 -10 15
0 3 2 15 4 26 4 18 5 27 5 73 l0 53 -5 11 c-12 24 -35 47 -54 52 -4 1 -110 2
-278 2 -266 0 -288 -1 -288 -6 0 -1 -1 -2 -3 -2 -1 0 -6 -3 -10 -7 -5 -4 -11
-8 -15 -10 -8 -3 -8 -3 -15 0 -5 2 -11 6 -16 10 -4 4 -9 7 -10 7 -2 0 -3 1 -3
2 0 5 -22 6 -88 5 -37 0 -76 -1 -88 -1 -287 1 -284 1 -284 -2 0 -1 -1 -2 -3
-2 -4 0 -14 -12 -18 -21 -3 -6 -3 -18 -3 -72 0 -72 1 -77 13 -89 12 -13 20
-14 65 -14 43 1 50 3 64 16 15 14 20 17 30 17 10 0 15 -3 30 -17 15 -14 18
-15 84 -16 l59 0 10 5 c15 7 18 15 22 46 1 7 3 13 6 16 8 10 32 11 42 1 3 -3
8 -7 11 -10 7 -6 11 -10 21 -16 5 -3 13 -11 20 -19 18 -20 26 -23 67 -23 34 0
38 1 59 8 7 2 16 4 20 4 4 0 13 -2 20 -4 7 -2 15 -5 19 -6 12 -3 241 -3 249 1
6 3 16 12 15 15 -1 3 3 19 5 20 1 1 1 2 -1 2 -3 0 -4 2 -4 7 0 7 8 17 16 20 2
1 4 2 4 3 0 1 1 2 2 2 2 0 9 7 17 15 20 21 25 20 51 -2 26 -24 29 -31 21 -57
-6 -19 -6 -34 -2 -42 3 -6 19 -16 35 -20 13 -4 18 -9 18 -18 0 -8 -6 -19 -13
-26 -4 -5 -11 -24 -11 -32 0 -9 8 -28 15 -34 18 -15 55 -17 63 -2 4 7 3 27 -1
32 -2 3 -3 9 -3 17 0 10 1 12 6 17 5 5 7 6 18 6 11 0 13 -1 18 -6 5 -5 6 -7 6
-17 0 -8 -1 -14 -3 -17 -4 -4 -5 -19 -3 -28 4 -15 33 -20 54 -11 9 4 22 18 31
32 7 11 22 27 27 30 8 4 17 4 22 -2 4 -4 6 -16 2 -18 -2 -1 -1 -15 2 -25 3 -7
10 -15 12 -13 1 1 2 0 2 -1 0 -6 76 5 105 16 79 30 122 79 150 167 4 13 8 24
8 25 -1 1 -1 5 -2 10 -1 5 -2 9 -3 10 -1 0 -2 2 -2 3 0 3 -7 10 -20 21 -12 9
-15 21 -12 35 3 12 9 17 22 20 14 4 24 9 31 16 12 12 12 10 21 84 3 26 6 52 7
57 0 5 3 23 6 41 l4 32 -4 13 c-3 8 -7 19 -11 26 -3 7 -5 12 -4 12 1 0 4 4 7
9 5 8 8 10 23 18 20 10 22 14 21 30 -1 12 -5 21 -13 31 -4 4 -7 8 -8 9 0 1 -5
6 -11 10 -17 13 -22 24 -13 33 6 6 12 5 31 -4 49 -22 77 -22 94 -1 4 5 15 17
26 28 l19 20 0 13 c0 7 -1 14 -2 16 -2 4 -13 11 -20 13 -3 0 -11 2 -18 4 -7 2
-15 4 -17 4 -2 0 -6 2 -10 3 -3 1 -23 7 -44 13 -42 12 -44 12 -67 3 -18 -7
-22 -8 -33 -5 -17 5 -41 9 -51 9 -15 -1 -23 7 -23 22 0 18 15 27 34 21 5 -2
13 -4 20 -6 24 -6 109 -8 109 -3 0 1 3 2 6 3 4 2 9 8 17 19 6 9 17 23 24 30
18 20 19 22 19 81 0 40 0 50 -3 56 -4 9 -14 21 -18 21 -2 0 -3 1 -3 2 0 3 -16
3 -224 3 -210 0 -213 0 -217 4 -2 2 -6 6 -8 7 -2 2 -6 6 -8 9 -2 3 -5 5 -6 5
-2 0 -3 1 -3 2 0 1 -1 2 -1 2 -1 0 -6 0 -11 1 -5 1 -10 2 -11 1 -10 -3 -25 4
-25 12 0 6 -9 27 -15 32 -3 4 -12 10 -19 14 -16 9 -18 13 -17 30 0 11 1 13 6
18 8 7 29 5 46 -4 20 -10 24 -15 26 -31 3 -20 9 -37 17 -46 16 -19 17 -20 24
-19 4 0 53 0 110 1 106 0 108 1 108 3 0 1 1 2 3 2 4 0 14 12 18 21 3 8 3 15 3
55 -1 52 -3 59 -15 70 -15 13 -14 13 -86 13 -76 0 -76 0 -93 -17 -3 -4 -6 -6
-7 -6 -2 0 -3 -1 -3 -2 -1 -3 -18 -4 -20 -1 0 1 -3 3 -4 4 -5 1 -13 20 -16 37
-1 8 0 9 5 15 l6 6 79 0 79 0 9 6 c10 7 16 17 21 31 1 5 6 14 9 19 4 6 8 13 9
16 2 3 3 8 4 10 4 10 -4 29 -17 41 -8 7 -13 16 -13 24 -2 10 6 16 19 16 9 0
13 -4 24 -27 9 -17 21 -28 41 -38 l16 -8 45 -1 c55 0 64 1 78 15 5 5 9 9 9 9
2 0 24 19 28 23 10 12 10 10 10 94 l0 78 -5 8 c-2 5 -8 12 -12 15 -4 4 -9 9
-10 12 -4 6 -4 6 0 12 1 3 6 8 10 12 22 18 25 61 6 73 -7 5 -22 11 -29 12 -5
0 -12 4 -18 10 -19 16 -16 16 -91 17 -87 0 -85 1 -103 -36 -5 -10 -11 -20 -12
-21 -1 -1 -4 -5 -6 -8 -14 -18 -39 -17 -39 3 0 6 7 22 10 22 1 0 1 23 -1 29
-3 11 -3 11 -183 11 -155 0 -165 0 -173 -4 -8 -4 -17 -11 -24 -21 -4 -5 -12
-11 -16 -10 -6 1 -13 6 -15 12 -1 4 -3 7 -4 7 -1 0 -2 2 -3 4 -1 2 -3 4 -4 4
-2 0 -3 1 -3 2 0 2 -11 7 -26 12 -12 4 -17 11 -17 25 0 6 1 13 2 15 12 23 21
44 22 50 2 11 -3 28 -8 33 -9 8 -28 11 -42 7z m-78 -113 c9 0 21 1 26 1 13 1
19 -6 19 -19 0 -13 -6 -19 -19 -19 -5 0 -10 1 -12 2 -3 3 -36 10 -46 10 -15 0
-23 14 -13 24 4 4 6 4 16 3 6 -1 19 -2 29 -2z m-367 -78 l-5 -5 -4 4 -5 5 4 4
5 5 4 -4 5 -5 -4 -4z m546 -25 c8 -3 12 -10 12 -22 0 -12 -7 -22 -17 -22 -33
-1 -49 -16 -49 -44 0 -13 -4 -16 -35 -31 -3 -2 -7 -3 -9 -3 -2 0 -2 0 0 -2 2
-1 2 -5 2 -14 -1 -16 4 -23 17 -25 4 0 12 -2 16 -4 4 -2 10 -4 12 -5 4 -2 4
-2 0 -2 -7 0 -15 -18 -15 -32 0 -16 -6 -30 -14 -35 -8 -4 -25 -5 -33 -1 -12 6
-26 8 -45 7 -18 -1 -21 -1 -39 5 -23 7 -44 8 -56 3 -7 -3 -16 -12 -14 -15 1
-1 0 -2 -1 -2 -1 0 -2 -4 -3 -8 -1 -4 -2 -9 -3 -9 -2 -1 -2 -2 0 -3 3 -2 1
-10 -3 -16 -6 -6 -23 -8 -30 -3 -5 4 -6 10 -2 16 1 2 2 5 2 6 0 1 -1 7 -2 13
-1 6 -2 12 -3 14 -2 4 -14 11 -14 9 0 -1 -3 2 -6 5 -4 3 -7 6 -8 6 -1 0 -1 3
-2 6 -1 13 -10 28 -19 33 -3 2 -5 3 -3 3 2 0 7 2 13 5 10 5 10 5 56 5 31 0 46
0 47 2 0 1 1 1 2 1 1 -1 2 1 2 3 0 3 0 11 0 19 l0 13 19 0 c19 -1 20 -1 27 -8
8 -6 9 -6 24 -6 22 0 23 0 32 28 10 32 9 32 25 41 8 5 19 15 25 21 7 7 13 12
14 12 1 0 2 1 2 2 0 1 6 4 14 8 8 3 18 10 22 14 15 14 27 18 40 12z m-783 -2
c11 -10 3 -28 -11 -28 -9 0 -16 6 -16 16 0 14 17 22 27 12z m85 -27 c8 -9 1
-25 -11 -25 -13 0 -20 16 -10 26 3 3 4 6 4 7 -1 0 0 1 2 1 2 0 3 1 2 3 -2 2 8
-6 13 -12z m846 -20 c3 -3 4 -7 4 -14 0 -13 -6 -19 -19 -19 -13 0 -19 6 -19
19 0 7 1 11 4 14 7 8 23 8 30 0z m-515 -10 c4 -4 5 -7 5 -15 0 -14 -6 -20 -20
-20 -14 0 -20 6 -20 20 0 14 6 20 20 20 8 0 11 -1 15 -5z m927 -1 c5 -5 5 -11
0 -16 -10 -10 -27 5 -16 16 4 4 12 4 16 0z m-287 -1 c3 -3 3 -3 0 -6 -4 -5
-11 1 -7 6 4 4 4 4 7 0z m-804 -28 c8 -5 11 -14 9 -33 -1 -10 6 -28 11 -29 3
0 2 -1 -2 -1 -4 0 -7 -1 -7 -2 -1 -1 -7 -3 -14 -5 -13 -4 -15 -4 -27 0 -8 2
-14 4 -15 5 0 1 -3 2 -7 2 -4 0 -5 1 -2 1 4 1 7 7 12 26 0 1 0 4 -1 7 -3 6 0
20 5 25 7 9 28 11 38 4z m297 -14 c7 -5 14 -11 11 -11 -1 0 0 -1 1 -3 3 -4 0
-5 -13 -5 -12 0 -13 0 -17 6 -5 7 -5 8 -1 14 4 5 9 5 19 -1z m477 -34 c3 -2 8
-6 10 -8 18 -16 19 -16 76 -16 l50 0 6 -6 c6 -6 6 -7 6 -26 0 -19 0 -20 -6
-26 -5 -5 -7 -6 -18 -6 -9 0 -15 -2 -24 -6 -19 -9 -25 -11 -47 -15 -12 -2 -23
-5 -26 -5 -10 -3 -22 -1 -28 2 -7 6 -10 15 -10 34 0 17 -4 32 -10 38 -1 2 -5
7 -7 12 -2 4 -5 7 -5 7 -1 0 -1 1 -1 3 1 1 0 3 -2 4 -3 0 -3 1 0 1 3 0 6 2 8
5 5 5 15 11 19 11 1 0 5 -2 9 -3z m-169 -27 c4 -2 8 -4 10 -5 2 -2 5 -3 7 -3
4 0 4 -1 0 -1 -2 -1 -9 -4 -15 -8 l-10 -6 -10 5 c-5 3 -12 6 -15 7 -4 2 -5 3
-2 3 2 0 5 1 7 3 7 6 18 8 28 5z m-610 -62 c5 -5 5 -15 0 -20 -9 -9 -24 -2
-24 10 0 8 6 14 14 14 3 0 8 -2 10 -4z m872 -77 c3 -3 4 -7 4 -14 0 -13 -6
-19 -19 -19 -13 0 -19 6 -19 19 0 7 1 11 4 14 7 8 23 8 30 0z m-300 3 c11 -3
15 -8 16 -22 1 -20 -3 -25 -27 -32 -17 -5 -38 -6 -45 -3 -14 5 -20 20 -16 36
4 13 9 17 31 22 8 1 34 1 41 -1z m-751 -12 c3 -3 6 -9 7 -15 2 -9 2 -10 -2
-15 -5 -7 -11 -7 -23 0 -9 6 -10 8 -11 16 0 7 1 10 4 13 6 7 20 7 25 1z m258
-75 c12 -12 3 -31 -13 -31 -11 0 -18 7 -18 18 0 11 7 18 18 18 6 0 9 -1 13 -5z
m386 -18 c8 -8 8 -16 0 -24 l-6 -6 -125 0 -125 0 -6 6 c-8 8 -8 16 0 24 l6 6
125 0 125 0 6 -6z m188 -30 c3 -3 3 -3 0 -6 -4 -5 -11 1 -7 6 4 4 4 4 7 0z
m-379 -51 c1 0 5 -3 8 -6 12 -12 6 -38 -14 -60 -4 -4 -10 -8 -11 -8 -3 0 -3
-1 -2 -2 2 -1 3 -6 3 -12 0 -14 3 -19 13 -23 7 -3 22 -3 98 -3 l90 1 6 -6 6
-6 -2 -19 c-4 -31 -9 -41 -23 -44 -9 -2 -16 0 -21 6 -22 23 -20 22 -33 22 -12
0 -13 -1 -23 -8 -19 -15 -29 -14 -50 2 -20 15 -27 16 -72 16 l-38 -1 -6 6 c-8
9 -8 17 0 26 3 3 7 6 8 6 6 1 14 5 17 9 1 3 2 10 2 16 0 6 1 11 3 12 1 1 1 2
-1 2 -18 0 -1 62 19 72 5 3 9 3 23 2z m-168 -94 c5 -5 5 -11 0 -16 -3 -3 -6
-4 -18 -3 -28 1 -42 9 -33 19 5 5 9 6 29 5 15 -1 18 -1 22 -5z m-30 -78 c2 -2
4 -6 4 -8 0 -6 -13 -16 -20 -16 -7 0 -11 -4 -23 -23 -10 -16 -13 -18 -21 -19
-19 -2 -26 4 -26 21 0 13 6 21 14 21 3 0 7 1 9 1 2 1 9 2 15 2 7 1 11 2 11 3
-1 1 0 2 1 2 2 0 5 3 8 7 3 4 6 7 7 7 1 0 4 1 5 3 3 4 12 3 16 -1z m-137 -57
c12 -8 13 -23 2 -44 -8 -15 -12 -36 -9 -46 3 -8 -1 -24 -7 -28 -12 -11 -34
-11 -43 0 -11 12 -9 30 4 49 9 13 14 29 14 47 0 14 3 20 12 24 7 3 21 2 27 -2z
m267 -30 l-5 -5 -4 4 -5 5 4 4 5 5 4 -4 5 -5 -4 -4z m923 -38 c5 -8 1 -16 -8
-16 -9 0 -13 8 -8 16 2 3 5 5 8 5 3 0 6 -2 8 -5z m-752 -2 c3 -5 3 -5 0 -10
-2 -3 -5 -5 -7 -5 -2 0 -5 2 -7 5 -3 5 -3 5 0 10 2 3 5 5 7 5 2 0 5 -2 7 -5z
m272 -9 c7 -3 12 -13 12 -25 0 -12 -3 -18 -11 -25 -9 -8 -11 -14 -12 -28 0
-12 0 -14 3 -15 4 0 4 -1 1 -1 -2 0 -4 -1 -4 -2 0 0 -2 -2 -4 -4 -4 -3 -20 -3
-98 -4 l-93 -1 -11 -6 c-15 -9 -27 -25 -28 -38 -1 -9 2 -20 7 -33 9 -20 6 -41
-7 -46 -9 -4 -24 -3 -32 1 -3 2 -14 6 -24 9 -10 3 -21 8 -23 10 l-5 5 4 4 c3
3 9 6 15 8 17 5 23 9 26 19 6 14 5 27 -3 42 -9 20 -24 28 -44 24 -5 -1 -15 -2
-22 -2 -7 0 -15 -2 -18 -3 -4 -2 -6 -3 -6 -2 0 1 -2 0 -4 -1 -9 -5 -11 -17 -9
-43 1 -12 1 -13 -5 -19 -5 -5 -7 -6 -17 -6 -16 0 -23 7 -23 23 0 7 1 12 3 14
2 1 2 3 2 3 -1 2 -2 5 -4 19 -2 10 -4 11 -16 10 -3 0 -8 -1 -10 -1 -2 0 -10
-5 -18 -12 l-13 -12 -13 0 c-14 0 -15 1 -35 20 -2 2 -8 6 -12 8 -5 3 -10 6
-12 8 -1 2 -3 5 -5 7 -3 3 -3 3 0 3 1 0 5 4 9 9 5 7 7 14 16 43 4 13 11 17 27
16 7 0 14 0 15 -1 0 0 9 0 18 1 30 4 28 4 34 -3 3 -3 7 -8 7 -9 1 -2 2 -4 3
-4 1 0 2 -1 2 -2 0 -4 8 -12 11 -12 2 0 3 -1 3 -2 0 -6 19 -6 184 -6 l168 1 7
6 c8 7 21 29 21 37 0 17 21 26 43 18z m-915 -34 c9 -10 2 -22 -12 -23 -24 0
-28 5 -13 18 11 10 19 12 25 5z m8 -149 c2 0 8 -2 14 -5 10 -4 12 -6 15 -12 7
-16 -5 -27 -33 -30 -23 -2 -32 4 -32 24 0 20 12 28 36 23z m234 -17 c1 0 5 -3
8 -6 5 -5 6 -7 6 -18 0 -14 -4 -20 -15 -24 -19 -5 -33 5 -33 24 0 13 3 19 12
23 5 2 8 2 22 1z m120 -64 c3 -1 8 -5 11 -9 3 -4 10 -12 14 -16 8 -9 9 -9 20
-9 11 0 13 1 25 9 12 8 15 9 25 9 10 0 13 -1 23 -8 6 -4 16 -9 21 -12 l10 -5
156 -1 157 -1 3 -5 c4 -4 4 -6 3 -16 -1 -6 -2 -13 -3 -16 0 -5 -11 -16 -15
-16 -14 0 -39 -18 -44 -31 -3 -8 -2 -23 2 -40 5 -17 3 -29 -4 -36 -8 -8 -32
-8 -40 0 -9 9 -9 28 -1 41 7 11 11 24 11 34 0 8 -1 10 -9 17 -16 15 -33 18
-68 11 l-21 -5 -21 5 c-20 4 -24 4 -159 4 l-138 0 -4 5 c-3 3 -6 5 -7 5 -2 0
-3 1 -2 2 1 1 -1 5 -3 9 -5 9 -17 13 -34 13 -13 0 -42 8 -39 11 1 0 1 1 0 1
-1 0 -2 3 -2 6 0 3 1 6 2 6 1 0 1 1 0 2 -2 3 28 11 36 9 13 -2 32 -1 39 2 3 1
9 7 14 13 12 15 26 19 42 12z m801 -14 c19 -11 26 -14 43 -18 9 -2 29 -11 30
-14 3 -6 35 -23 58 -32 4 -1 8 -3 9 -4 1 -1 5 -2 8 -2 6 0 6 0 2 -2 -3 -1 -5
-3 -5 -4 0 -5 -12 -6 -97 -6 l-86 0 -7 6 c-3 3 -5 6 -4 6 1 0 2 2 2 5 0 3 2
16 4 29 2 13 4 26 5 29 1 8 4 14 9 18 4 3 5 3 11 -1 3 -2 11 -7 18 -10z m-92
2 c11 -10 3 -28 -11 -28 -9 0 -16 6 -16 16 0 14 17 22 27 12z m-183 -114 c12
-6 28 -10 38 -9 8 0 10 0 13 -4 3 -5 3 -6 0 -12 -2 -4 -6 -9 -8 -11 -4 -3 -12
-16 -10 -16 0 0 -1 -5 -3 -10 -2 -6 -4 -13 -4 -16 0 -7 -9 -18 -15 -18 -19 -1
-29 3 -31 12 -6 20 -12 39 -17 48 -6 14 -7 34 -1 39 7 6 22 5 38 -3z m173 -10
c16 -7 16 -43 -1 -50 -15 -6 -34 -2 -39 9 -4 8 -4 24 0 32 5 12 23 15 40 9z
m228 -44 c4 -6 4 -22 0 -30 -6 -10 -41 -30 -52 -30 -2 0 -7 3 -11 8 -7 7 -8 8
-8 18 0 13 4 19 15 27 21 14 47 18 56 7z m-900 -39 c12 -12 3 -31 -13 -31 -11
0 -18 7 -18 18 0 11 7 18 18 18 6 0 9 -1 13 -5z m843 -57 c0 -1 5 -4 12 -7 10
-5 13 -6 32 -6 25 0 30 -2 30 -15 0 -14 -14 -21 -28 -13 -7 4 -28 8 -35 8 -3
0 -11 -1 -17 -2 -11 -1 -12 -1 -17 4 -5 5 -7 16 -3 23 4 8 26 14 26 8z m-1349
-99 c3 -3 3 -3 0 -6 -4 -5 -11 1 -7 6 4 4 4 4 7 0z m470 -32 c12 -12 3 -31
-13 -31 -11 0 -18 7 -18 18 0 11 7 18 18 18 6 0 9 -1 13 -5z m130 -32 c4 -4 5
-7 5 -15 0 -14 -6 -20 -20 -20 -14 0 -20 6 -20 20 0 14 6 20 20 20 8 0 11 -1
15 -5z m750 -31 c1 -1 3 -2 4 -2 2 0 6 -3 9 -6 4 -4 8 -6 12 -6 6 0 16 -7 16
-11 0 -2 -1 -5 -3 -7 -5 -5 -21 0 -26 8 -3 5 -16 11 -19 9 -3 -2 -8 11 -6 14
3 3 11 4 13 1z m-9 -87 l-5 -5 -4 4 -5 5 4 4 5 5 4 -4 5 -5 -4 -4z"/>
</g>
</svg>
