<?xml version="1.0" standalone="no"?>
<!DOCTYPE svg PUBLIC "-//W3C//DTD SVG 20010904//EN"
 "http://www.w3.org/TR/2001/REC-SVG-20010904/DTD/svg10.dtd">
<svg version="1.0" xmlns="http://www.w3.org/2000/svg"
 width="1100.000000pt" height="2850.000000pt" viewBox="0 0 1100.000000 2850.000000"
 preserveAspectRatio="xMidYMid meet">
<metadata>
Created by potrace 1.15, written by Peter Selinger 2001-2017
</metadata>
<g transform="translate(0.000000,2850.000000) scale(0.500000,-0.500000)"
fill="#000000" stroke="none">
<path d="M371 3786 c-7 -2 -23 -10 -23 -12 0 -4 -15 -10 -23 -9 -9 1 -29 -2
-32 -5 -2 -2 -3 -2 -3 -1 0 4 -12 -11 -16 -20 -11 -27 -18 -41 -34 -73 -9 -19
-21 -42 -26 -50 -4 -8 -9 -17 -10 -19 -1 -2 -4 -6 -6 -9 -18 -29 -19 -37 -11
-60 9 -25 6 -32 -16 -32 -35 0 -38 -2 -59 -40 -6 -11 -13 -19 -25 -27 -12 -8
-59 -57 -62 -64 -6 -13 -4 -27 5 -45 10 -19 26 -49 36 -72 5 -9 10 -21 12 -25
2 -4 7 -15 11 -24 3 -9 9 -21 12 -27 2 -6 11 -26 18 -45 16 -41 20 -50 26 -54
6 -4 21 -6 28 -4 5 1 26 20 28 25 0 2 1 2 1 0 0 -6 4 -5 13 5 8 7 24 17 27 16
1 0 3 1 4 3 3 2 4 2 5 0 0 -2 1 -2 1 0 0 8 23 11 36 6 17 -7 17 -43 0 -50 -13
-5 -36 -2 -36 6 0 2 -1 2 -2 1 0 -2 -6 -2 -11 -2 -10 0 -24 -4 -22 -7 1 0 0
-3 -2 -5 -4 -7 -4 -60 0 -70 4 -9 14 -21 18 -21 2 0 3 -1 3 -2 0 -1 7 -3 20
-3 7 0 10 -1 15 -6 l6 -6 0 -52 0 -52 -6 -6 -6 -6 -73 0 c-73 0 -84 0 -84 -3
0 -1 -1 -2 -3 -2 -4 0 -14 -12 -18 -22 -3 -7 -3 -13 -2 -46 1 -44 1 -54 0
-124 -1 -46 -1 -53 2 -61 4 -9 14 -21 18 -21 2 0 3 -1 3 -2 0 -2 2 -2 81 -3
59 -1 75 0 75 2 0 1 2 -1 4 -5 2 -3 5 -7 7 -7 1 -1 2 -10 1 -37 0 -46 1 -51
17 -71 17 -21 17 -23 0 -43 -16 -20 -16 -23 -18 -73 -1 -41 -5 -65 -15 -96 -6
-18 -22 -51 -24 -53 -1 0 -2 -1 -2 -3 0 -2 -9 -16 -22 -31 -3 -4 -11 -13 -18
-21 -15 -15 -18 -22 -17 -36 1 -12 2 -12 12 -23 4 -5 12 -14 17 -20 5 -6 9
-11 10 -12 7 -7 64 -87 64 -91 0 0 4 -4 8 -9 4 -4 8 -10 8 -11 0 -2 1 -3 2 -2
1 1 2 0 2 -1 0 -1 5 -2 13 -2 l14 1 1 8 c0 4 -1 11 -3 17 -5 15 -1 31 9 36 11
6 32 1 40 -9 6 -8 29 -13 38 -9 3 1 14 7 24 14 20 12 60 36 63 38 1 0 11 6 22
13 12 7 22 13 22 13 1 0 12 6 25 14 23 13 78 45 120 69 41 22 47 34 36 71 -8
26 -9 33 -7 41 2 13 5 11 43 -40 11 -15 24 -32 27 -38 8 -13 14 -18 24 -22 15
-6 23 -5 69 14 23 9 43 18 45 19 2 2 15 6 21 7 4 1 9 -4 7 -9 -1 -1 -1 -4 -1
-5 0 -1 -33 -35 -39 -38 -2 -2 -7 -5 -11 -7 -4 -3 -10 -7 -14 -9 -23 -12 -30
-36 -18 -54 6 -8 13 -19 20 -35 11 -23 18 -32 31 -41 20 -13 21 -16 18 -31 -7
-35 -2 -46 22 -50 10 -2 12 -2 27 4 8 3 28 9 43 14 24 7 38 10 80 20 24 6 207
45 220 47 3 1 12 3 19 4 7 2 22 5 34 7 12 2 23 5 26 5 9 2 12 8 12 25 l0 16
-7 6 c-8 6 -8 6 -8 21 0 16 1 18 15 27 13 8 22 19 28 34 9 22 11 23 20 13 30
-34 72 -72 116 -105 18 -13 31 -13 54 2 25 16 49 2 42 -25 -1 -3 -1 -11 0 -19
3 -17 10 -24 31 -34 79 -37 90 -40 108 -32 10 4 17 12 25 27 4 7 8 14 10 17 2
3 9 13 15 23 7 10 13 19 14 21 2 2 11 14 21 27 10 14 19 27 22 29 2 3 9 11 15
19 7 8 17 19 23 26 12 12 12 12 12 23 0 20 -6 26 -30 34 -19 6 -30 5 -51 -1
-29 -8 -37 -5 -49 18 -10 20 -18 28 -43 41 -43 23 -44 21 53 85 42 28 78 53
81 56 4 5 5 7 5 20 l0 14 -14 13 c-7 7 -19 18 -27 25 -37 33 -43 40 -40 59 1
5 2 46 2 91 1 75 1 83 -2 89 -5 9 -15 15 -26 17 -4 1 -9 3 -9 4 -2 1 -2 1 -2
0 0 -5 -10 -3 -14 1 -5 6 -5 9 -1 21 2 6 4 20 4 32 1 12 2 24 3 26 1 1 9 7 18
11 16 8 24 15 28 28 4 11 3 108 -1 117 -4 9 -14 21 -18 21 -2 0 -3 1 -3 2 0 2
-10 3 -42 3 -34 0 -38 -1 -53 -14 -15 -13 -19 -15 -28 -15 -9 0 -13 2 -28 15
-14 12 -20 14 -49 14 -28 0 -38 -2 -49 -13 -2 -1 -8 -5 -12 -7 -9 -4 -9 -4
-17 0 -5 2 -11 6 -13 7 -2 2 -8 6 -13 9 l-9 4 -317 1 -318 0 -9 -4 c-5 -2 -10
-6 -12 -9 -4 -6 -9 -25 -9 -34 0 -4 -1 -8 -1 -10 -1 -3 -18 -15 -21 -15 -4 0
-18 -16 -21 -26 -5 -15 -5 -349 0 -361 4 -9 14 -21 18 -21 2 0 3 -1 3 -2 0 -2
1 -2 66 -4 52 -1 62 -1 67 -4 3 -2 5 -4 4 -4 -1 0 0 -1 2 -2 4 -2 4 -2 0 -2
-3 0 -12 -3 -20 -7 -9 -4 -18 -8 -20 -9 -7 -3 -73 -29 -83 -33 -5 -1 -18 -6
-29 -10 -45 -16 -121 -39 -130 -39 -12 0 -31 5 -31 8 0 1 -1 2 -1 2 -1 -1 -6
0 -10 1 -11 2 -21 -4 -28 -16 -3 -5 -7 -10 -10 -12 -5 -3 -5 -3 -14 3 -10 7
-25 15 -26 13 -1 0 -4 2 -7 7 l-5 7 -1 84 -1 84 6 6 6 6 75 0 c75 0 86 0 86 3
0 1 1 2 3 2 4 0 14 12 18 21 5 11 5 221 0 232 -4 9 -14 21 -18 21 -2 0 -3 1
-3 2 0 3 -11 3 -86 3 l-75 0 -6 6 -6 6 0 52 0 52 6 6 6 6 58 0 c58 0 69 1 69
3 0 1 1 2 3 2 4 0 14 12 18 21 5 12 5 151 0 165 -4 11 -13 22 -25 28 -11 6
-15 12 -17 23 -2 22 -8 33 -20 39 -8 4 -13 4 -157 4 -153 0 -151 0 -160 8 -3
3 -3 3 0 6 6 7 8 10 8 11 0 1 1 2 2 4 2 2 35 52 36 55 1 0 4 3 8 6 l7 5 160 1
c164 1 165 2 165 4 0 1 1 2 3 2 4 0 14 12 18 21 5 11 5 225 0 236 -4 9 -14 21
-18 21 -2 0 -3 1 -3 2 0 2 -2 2 -84 3 -43 1 -81 1 -83 2 -5 1 -16 10 -13 11 1
1 5 11 10 22 7 18 8 23 7 30 -3 20 -14 30 -39 37 -6 2 -34 10 -63 19 -29 9
-59 18 -68 21 -17 5 -18 5 -28 3z m59 -164 c5 -5 6 -7 6 -17 0 -16 -7 -23 -23
-23 -16 0 -23 7 -23 23 0 16 7 23 23 23 10 0 12 -1 17 -6z m279 -42 c4 -6 4
-24 -1 -30 -7 -9 -27 -9 -34 0 -5 6 -5 24 0 30 7 9 27 9 35 0z m-430 -184 c11
-10 3 -28 -11 -28 -9 0 -16 6 -16 16 0 14 17 22 27 12z m-134 -63 c4 -4 5 -7
5 -15 0 -14 -6 -20 -20 -20 -14 0 -20 6 -20 20 0 14 6 20 20 20 8 0 11 -1 15
-5z m90 -102 c12 -12 3 -31 -13 -31 -11 0 -18 7 -18 18 0 11 7 18 18 18 6 0 9
-1 13 -5z m299 -69 c5 -6 5 -12 0 -18 -7 -8 -22 -2 -22 9 0 11 15 17 22 9z
m-106 -11 c2 -2 4 -5 4 -7 0 -4 5 -19 10 -28 2 -4 10 -13 17 -19 15 -13 19
-23 15 -38 -4 -15 -14 -21 -35 -20 -20 1 -22 4 -22 27 -1 25 -5 34 -21 42 -7
3 -13 6 -14 6 -2 0 -5 2 -8 4 -10 8 -1 24 19 33 16 7 27 8 35 0z m-31 -128 c4
-4 3 -21 -1 -29 -5 -10 -27 -12 -35 -3 -6 6 -7 24 -1 31 6 8 30 9 37 1z m766
-192 c5 -8 1 -16 -8 -16 -9 0 -13 8 -8 16 2 3 5 5 8 5 3 0 6 -2 8 -5z m-962
-78 c3 -3 3 -3 0 -6 -4 -5 -11 1 -7 6 4 4 4 4 7 0z m1364 -20 c8 -9 8 -21 0
-30 l-6 -6 -114 1 c-121 0 -125 0 -133 -9 -6 -7 -10 -22 -9 -38 1 -12 1 -13
-4 -18 -4 -4 -7 -5 -15 -5 -8 0 -11 1 -15 5 -5 5 -5 6 -4 18 1 24 -6 40 -21
45 -12 4 -57 2 -67 -3 -38 -20 -36 -20 -54 -11 -16 8 -23 18 -25 34 -1 10 -1
11 5 17 l6 6 225 0 225 0 6 -6z m-1259 -91 c1 0 5 -3 8 -6 5 -5 6 -7 6 -17 0
-14 -3 -19 -14 -25 -9 -5 -18 -5 -23 -1 -2 2 -3 3 -3 3 1 0 0 2 -3 5 -4 4 -5
7 -5 16 0 14 3 20 12 24 5 2 8 2 22 1z m793 -31 c7 -4 10 -11 10 -24 0 -8 -1
-13 -4 -17 -9 -11 -31 -13 -42 -3 -10 8 -11 32 -1 42 7 7 27 8 37 2z m608 -35
c9 -5 14 -30 7 -40 -3 -4 -26 -20 -30 -20 0 0 -1 -2 -1 -5 0 -3 -5 -13 -10
-24 -8 -16 -11 -20 -26 -34 -10 -9 -22 -20 -27 -25 -15 -13 -28 -16 -37 -7 -4
3 -27 39 -27 41 0 1 -1 2 -2 2 -1 0 0 2 3 5 4 4 7 6 20 7 19 2 30 7 40 19 4 5
14 15 21 22 12 12 26 36 26 45 0 14 26 22 43 14z m-628 -66 c8 -8 8 -24 0 -32
-10 -10 -36 -7 -45 6 -3 5 -4 6 0 12 10 21 31 27 45 14z m409 -14 c5 -5 5 -15
0 -20 -9 -9 -24 -2 -24 10 0 8 6 14 14 14 3 0 8 -2 10 -4z m-89 -61 c7 -5 11
-20 12 -42 2 -24 0 -27 -11 -32 -4 -3 -7 -4 -7 -3 1 1 0 2 -1 2 -1 0 -2 -1 -2
-2 0 -2 -1 -2 -2 -1 0 1 -4 4 -7 5 -9 4 -13 18 -15 44 0 21 0 22 5 27 6 6 21
7 28 2z m-340 -9 c2 0 6 -3 9 -6 5 -5 6 -7 6 -17 0 -12 -5 -19 -17 -27 -11 -7
-25 -32 -25 -44 0 -2 -2 -5 -5 -8 -6 -6 -18 -6 -32 1 -15 7 -30 11 -42 11 -17
0 -25 14 -15 25 6 6 11 6 26 1 19 -6 36 -6 43 0 10 10 21 33 21 46 0 10 13 21
24 19 2 0 5 -1 7 -1z m158 -9 c12 -12 3 -31 -13 -31 -11 0 -18 7 -18 18 0 11
7 18 18 18 6 0 9 -1 13 -5z m90 -35 c2 -1 8 -12 13 -23 14 -30 21 -35 53 -39
23 -3 29 -6 33 -21 2 -9 0 -23 -4 -28 -2 -3 -6 -15 -7 -24 -2 -16 -8 -18 -80
-32 l-59 -10 -5 5 -5 4 0 66 1 65 5 8 c3 5 8 10 10 11 3 2 8 6 11 9 3 3 7 6 9
7 9 8 17 9 25 2z m214 -28 c7 -6 7 -19 1 -25 -6 -7 -19 -7 -25 -1 -7 6 -7 19
-1 25 6 7 19 7 25 1z m-1090 -21 c3 -3 3 -3 0 -6 -4 -5 -11 1 -7 6 4 4 4 4 7
0z m203 -58 l-5 -5 -4 4 -5 5 4 4 5 5 4 -4 5 -5 -4 -4z m-99 -18 c5 -8 1 -16
-8 -16 -9 0 -13 8 -8 16 2 3 5 5 8 5 3 0 6 -2 8 -5z m-159 -83 c5 -5 5 -11 0
-16 -10 -10 -27 5 -16 16 4 4 12 4 16 0z m974 -85 c3 -3 4 -7 4 -14 0 -13 -6
-19 -19 -19 -13 0 -19 6 -19 19 0 7 1 11 4 14 7 8 23 8 30 0z"/>
<path d="M826 3750 c-3 -1 -6 -1 -7 0 0 0 -1 0 -1 -2 0 -1 -1 -2 -3 -2 -4 0
-14 -12 -18 -21 -5 -12 -5 -434 0 -446 4 -9 14 -21 18 -21 2 0 3 -1 3 -2 0 -3
14 -3 179 -3 l168 0 17 8 c21 10 25 10 45 0 9 -4 19 -7 23 -7 6 0 16 5 20 10
5 8 12 28 9 29 -4 1 -3 14 2 18 5 4 6 4 12 2 8 -5 15 -13 15 -18 -1 -4 7 -26
11 -31 1 -2 5 -5 8 -7 6 -4 10 -4 199 -5 l193 0 10 5 c10 5 11 6 15 16 8 21 6
35 -7 62 -13 26 -8 41 12 41 12 0 17 -4 20 -17 3 -10 15 -35 17 -35 4 0 12
-18 13 -28 0 -6 3 -17 5 -23 4 -10 5 -11 15 -16 10 -5 13 -5 24 -4 6 1 13 1
15 1 1 1 2 1 2 2 0 1 1 2 3 2 4 0 14 12 18 21 4 11 4 205 0 225 -4 17 -4 35 0
52 4 20 4 158 0 169 -4 9 -14 21 -18 21 -2 0 -3 1 -3 2 0 2 -9 3 -30 3 -29 0
-35 -4 -37 -25 -1 -6 -2 -11 -2 -12 0 0 1 -2 3 -4 3 -3 4 -7 4 -16 0 -11 -1
-13 -6 -18 -6 -6 -7 -6 -18 -6 -11 0 -12 0 -18 6 -5 5 -6 7 -6 18 0 9 1 13 4
16 2 2 3 4 3 4 0 1 -1 6 -2 12 0 7 -2 14 -3 16 -6 9 -7 9 -155 9 l-140 0 -16
-6 c-9 -3 -20 -5 -26 -5 -6 0 -17 2 -26 5 l-16 6 -271 0 c-149 1 -273 0 -276
-1z m295 -62 c11 -10 3 -28 -11 -28 -9 0 -16 6 -16 16 0 14 17 22 27 12z m261
-9 l-5 -5 -4 4 -5 5 4 4 5 5 4 -4 5 -5 -4 -4z m163 -34 c12 -7 14 -33 3 -43
-8 -9 -32 -9 -40 0 -9 8 -9 32 0 41 7 7 27 8 37 2z m222 -34 c11 -11 22 -44
19 -57 -1 -4 -2 -9 -3 -11 -4 -8 -25 -13 -39 -7 -14 6 -17 31 -9 65 3 15 20
20 32 10z m-294 -69 c8 -3 12 -13 11 -26 -1 -18 -1 -45 0 -49 1 -2 2 -8 4 -12
5 -18 -3 -32 -18 -35 -17 -4 -30 3 -34 17 -4 14 -7 21 -9 21 -8 1 -24 -1 -25
-2 0 -1 -1 -2 -3 -2 -1 0 -5 -2 -8 -5 -3 -3 -8 -6 -10 -6 -5 -2 -17 4 -27 13
-3 3 -8 6 -9 6 -2 0 -3 1 -3 2 0 2 -19 7 -23 6 -1 -1 -5 2 -8 5 -6 6 -6 7 -6
27 0 20 0 21 6 27 6 6 6 6 22 5 17 -2 23 -3 31 -7 3 -2 7 -3 9 -3 1 0 3 -1 3
-2 0 0 3 -3 7 -5 12 -6 33 1 48 16 5 5 11 9 14 10 3 1 7 2 8 2 3 1 13 -1 20
-3z m-380 -13 c5 -5 6 -8 6 -17 0 -6 1 -21 2 -32 l2 -22 -7 -6 c-5 -5 -7 -6
-16 -6 -23 0 -28 9 -30 51 l-1 26 6 6 c5 5 7 6 19 6 12 0 14 -1 19 -6z m518 0
c6 -6 6 -6 6 -27 0 -21 0 -21 -6 -27 -6 -6 -7 -6 -21 -6 -14 0 -15 0 -21 6 -6
6 -6 6 -6 27 0 20 0 21 6 27 6 6 7 6 21 6 14 0 15 0 21 -6z m-714 -120 c3 -5
3 -5 0 -10 -2 -3 -5 -5 -7 -5 -2 0 -5 2 -7 5 -3 5 -3 5 0 10 2 3 5 5 7 5 2 0
5 -2 7 -5z m364 -50 c3 -2 9 -11 10 -18 1 -4 -5 -17 -7 -16 -1 1 -2 0 -3 -1
-1 -1 -5 -1 -9 -1 -4 1 -13 1 -20 1 -10 0 -13 1 -17 4 -10 9 -4 23 10 29 8 3
30 4 36 2z m-312 -14 c12 -7 14 -33 3 -43 -8 -9 -32 -9 -40 0 -9 8 -9 32 0 41
7 7 27 8 37 2z"/>
<path d="M839 3232 c-9 -4 -17 -12 -23 -24 -4 -8 -11 -14 -15 -14 -5 0 -13 8
-13 13 0 2 -1 3 -1 2 -1 -2 -6 -3 -17 -3 -24 0 -22 9 -22 -98 0 -79 1 -93 3
-99 4 -9 14 -21 18 -21 2 0 3 -1 3 -2 0 0 2 -2 6 -2 3 -1 261 -1 574 -1 313 0
571 0 575 1 3 0 5 2 5 2 0 1 1 2 3 2 4 0 14 12 18 21 5 11 5 189 0 200 -4 9
-14 21 -18 21 -2 0 -3 1 -3 2 0 1 -1 2 -2 2 -8 2 -628 2 -634 0 -14 -4 -26
-21 -29 -40 -4 -25 -42 -25 -46 0 -1 10 -8 24 -14 31 -11 11 -4 11 -189 11
-165 0 -171 0 -179 -4z m324 -170 c10 -9 3 -26 -10 -26 -8 0 -15 7 -15 15 0
13 16 20 25 11z m410 -19 c3 -5 3 -5 0 -10 -2 -3 -5 -5 -7 -5 -2 0 -5 2 -7 5
-3 5 -3 5 0 10 2 3 5 5 7 5 2 0 5 -2 7 -5z"/>
</g>
</svg>
