<?xml version="1.0" standalone="no"?>
<!DOCTYPE svg PUBLIC "-//W3C//DTD SVG 20010904//EN"
 "http://www.w3.org/TR/2001/REC-SVG-20010904/DTD/svg10.dtd">
<svg version="1.0" xmlns="http://www.w3.org/2000/svg"
 width="1000.000000pt" height="2850.000000pt" viewBox="0 0 1000.000000 2850.000000"
 preserveAspectRatio="xMidYMid meet">
<metadata>
Created by potrace 1.15, written by Peter Selinger 2001-2017
</metadata>
<g transform="translate(0.000000,2850.000000) scale(0.500000,-0.500000)"
fill="#000000" stroke="none">
<path d="M1228 3807 c-17 -6 -27 -16 -35 -37 -8 -19 -36 -75 -41 -82 -2 -3 -4
-6 -4 -7 0 -1 -2 -5 -5 -10 -3 -4 -8 -11 -10 -15 -2 -4 -9 -14 -14 -22 l-10
-15 1 -13 c1 -12 2 -15 9 -22 11 -12 12 -17 8 -23 -4 -6 -8 -6 -17 -2 -7 4
-31 6 -38 4 -3 0 -9 -6 -15 -13 -5 -7 -11 -14 -12 -15 -36 -41 -70 -76 -95
-97 -7 -6 -16 -14 -21 -18 -6 -6 -9 -7 -15 -7 -12 1 -17 4 -27 19 -8 12 -7 15
10 34 13 17 15 32 5 43 -5 4 -30 11 -33 9 -5 -5 -32 0 -37 6 -1 1 -5 4 -9 6
-27 16 -29 19 -29 43 0 14 0 18 -4 26 -8 17 -10 17 -76 17 -36 0 -58 1 -60 2
-8 4 -11 9 -14 19 -1 6 -4 14 -6 19 -2 5 -7 19 -12 32 -5 13 -10 27 -12 31 -2
4 -6 14 -9 21 -3 7 -10 21 -14 32 l-9 18 -16 0 -16 -1 -3 -6 c-2 -4 -4 -13 -4
-20 -2 -17 -6 -23 -17 -23 -9 0 -14 5 -20 16 -10 21 -20 28 -36 28 -10 0 -113
-27 -125 -34 -11 -5 -16 -12 -19 -25 -3 -12 -2 -13 9 -43 4 -9 9 -25 12 -35 3
-10 7 -18 7 -19 1 0 -1 -3 -4 -6 -5 -5 -8 -6 -21 -6 -16 -1 -26 -6 -40 -18
-15 -13 -21 -13 -36 0 -18 16 -22 17 -55 17 -28 0 -30 0 -40 -6 -12 -6 -19
-12 -30 -30 -6 -10 -8 -11 -20 -15 -16 -5 -26 -11 -31 -20 -4 -7 -4 -11 -5
-82 0 -65 0 -76 3 -83 4 -9 14 -21 18 -21 2 0 3 -1 3 -2 0 -1 1 -1 3 -2 1 0
12 -1 25 -2 14 -1 23 -3 24 -5 1 -1 2 -1 2 0 0 1 2 0 4 -1 1 -2 5 -4 7 -5 4
-1 4 -1 0 -1 -5 0 -12 -12 -14 -24 -1 -8 0 -12 5 -24 3 -8 6 -16 6 -17 0 -5
12 -25 18 -31 8 -7 22 -13 37 -15 19 -2 24 -9 24 -29 0 -19 -3 -24 -21 -29
-21 -6 -21 -6 -31 4 -6 6 -12 10 -22 13 -12 4 -16 4 -54 3 -46 -1 -47 -1 -47
-3 0 -1 -1 -2 -3 -2 -4 0 -14 -12 -18 -21 -5 -12 -4 -74 1 -85 3 -8 12 -20 15
-20 0 0 4 -2 8 -5 5 -3 10 -6 12 -7 16 -6 16 -42 0 -48 -2 -1 -7 -4 -12 -7 -4
-3 -8 -5 -8 -5 -3 0 -13 -14 -16 -22 -3 -8 -3 -10 0 -18 3 -9 14 -22 18 -22 2
0 3 -1 3 -2 0 -1 1 -2 3 -2 7 -2 631 -2 637 0 14 4 26 21 29 40 1 4 4 10 7 13
5 5 7 6 16 6 9 0 11 -1 16 -6 3 -3 6 -9 7 -13 1 -10 8 -24 14 -31 8 -8 17 -11
37 -11 14 0 19 -1 27 -5 11 -5 12 -7 40 -61 7 -12 15 -25 17 -27 8 -5 23 -7
41 -6 15 1 17 1 22 -3 5 -5 6 -7 6 -15 0 -12 -4 -19 -15 -25 -10 -6 -12 -9
-12 -25 0 -11 1 -14 5 -18 8 -7 11 -14 11 -22 0 -8 -2 -13 -15 -28 -19 -23
-21 -60 -2 -78 3 -4 7 -7 8 -7 2 0 3 -1 3 -2 0 -2 2 -2 53 -3 32 -1 50 -1 55
1 10 3 17 12 19 22 1 4 2 9 3 12 1 2 1 4 0 4 -1 0 -2 4 -2 9 0 11 6 17 17 17
11 0 17 -6 17 -18 0 -4 -1 -8 -2 -8 -1 0 -1 -2 0 -4 1 -3 2 -8 3 -12 1 -5 4
-11 6 -14 6 -6 6 -6 18 -5 6 0 14 3 17 5 21 14 32 15 53 4 8 -4 15 -7 16 -7 0
1 1 1 1 -1 0 -1 2 -6 6 -11 l5 -8 -6 -6 -6 -6 -124 0 c-122 0 -135 0 -135 -3
0 -1 -1 -2 -3 -2 -4 0 -14 -12 -18 -21 -5 -11 -5 -167 0 -178 4 -9 14 -21 18
-21 2 0 3 -1 3 -2 0 -3 13 -3 135 -3 l124 0 6 -6 c8 -8 8 -12 0 -20 l-6 -6
-93 1 c-101 0 -110 0 -118 -10 -7 -7 -14 -23 -15 -34 -2 -12 -5 -16 -21 -28
-7 -5 -14 -13 -16 -16 -5 -9 -8 -25 -7 -34 0 -4 -1 -9 -2 -12 -1 -3 -2 -6 -2
-8 0 -2 -2 -7 -3 -12 -1 -5 -3 -17 -3 -27 -1 -19 -2 -27 -5 -27 -1 0 -1 -6 0
-13 2 -16 7 -22 18 -25 5 -1 52 -2 137 -2 l130 1 6 -6 6 -6 -1 -57 c0 -62 1
-69 10 -77 3 -3 10 -5 14 -6 5 -1 11 -2 12 -3 3 -1 4 -1 5 0 2 4 14 1 32 -8
l18 -9 92 0 c91 0 103 0 103 3 0 1 1 2 3 2 4 0 14 12 18 21 4 9 4 18 0 38 -4
20 -4 32 0 53 2 9 3 23 3 30 -1 12 -1 13 5 19 l6 6 171 0 c168 0 182 0 182 3
0 1 1 2 3 2 4 0 14 12 18 21 5 11 5 183 0 194 -4 9 -14 21 -18 21 -2 0 -3 1
-3 2 0 2 -1 3 -116 3 -109 1 -128 0 -128 -5 0 -1 -1 -2 -3 -2 -2 0 -11 -8 -11
-11 0 -1 -1 -3 -11 -14 -5 -6 -7 -7 -11 -6 -6 1 -13 7 -19 16 -10 14 -19 18
-45 21 -18 2 -24 7 -23 18 1 7 9 26 16 34 3 4 11 27 11 31 0 2 3 6 6 9 5 5 7
6 17 6 10 0 12 -1 17 -6 4 -3 6 -8 6 -11 0 -3 1 -8 1 -10 1 -2 1 -5 1 -6 1 -2
3 -8 6 -13 4 -9 7 -12 14 -16 9 -4 11 -4 51 -4 42 1 49 2 60 10 1 1 6 5 11 9
5 4 10 8 12 9 5 3 20 4 21 2 1 -2 7 0 17 3 2 1 4 2 5 2 6 1 13 8 16 16 4 10 4
74 0 84 -3 9 -15 20 -23 24 -10 4 -18 12 -18 17 0 6 12 16 18 16 3 0 4 1 3 1
-2 1 -3 7 -3 18 0 20 -1 21 -25 21 -24 0 -35 -4 -48 -17 -16 -15 -26 -20 -45
-20 -17 0 -24 3 -32 14 -6 9 -20 18 -30 21 -9 2 -93 3 -104 1 -5 -1 -11 -2
-13 -2 -3 0 -5 -1 -5 -1 0 -1 -3 -2 -8 -2 -14 0 -22 18 -11 28 4 4 19 6 19 3
0 -1 3 -2 8 -2 4 0 13 0 20 -1 7 0 42 1 77 2 58 1 65 1 72 5 4 2 9 5 10 5 1 1
6 5 11 9 12 10 16 12 26 12 10 0 14 -2 26 -12 5 -4 10 -8 11 -9 6 -4 19 -9 27
-9 12 0 20 2 20 3 0 1 1 2 3 2 4 0 14 12 18 21 5 14 3 150 -4 186 -2 11 3 31
11 44 14 26 16 30 23 40 4 6 11 18 18 27 20 31 44 65 62 88 5 5 9 11 11 13 2
2 7 8 13 14 8 9 9 11 9 20 0 12 -5 23 -13 27 -3 2 -21 6 -40 10 -82 15 -180
41 -224 59 -18 7 -34 3 -49 -12 l-10 -10 0 -16 c1 -11 2 -18 4 -20 11 -14 13
-28 5 -35 -8 -7 -19 -5 -32 6 -4 4 -20 7 -29 5 -4 -1 -10 -3 -13 -6 -12 -9
-25 -11 -37 -6 -12 5 -18 21 -14 36 4 14 13 20 31 21 24 1 35 8 45 26 4 7 8
15 10 17 3 4 23 17 26 17 6 0 58 61 82 95 12 18 12 28 0 52 -12 24 -13 30 -5
38 9 10 14 12 31 11 18 0 34 4 42 12 10 9 32 53 57 115 26 64 29 75 21 92 -6
13 -12 17 -55 34 -23 9 -23 9 -34 7 -6 -1 -11 -3 -11 -4 0 -1 -1 -2 -3 -2 -3
0 -15 -20 -15 -24 0 -2 -3 -6 -6 -9 -9 -8 -24 -8 -32 0 -8 8 -9 20 -3 32 3 6
3 10 2 18 -2 14 -6 20 -15 24 -8 3 -11 3 -45 -1 -15 -1 -49 -2 -102 -2 l-80 1
-5 5 -5 5 10 20 c8 17 9 21 8 28 -2 20 -13 30 -40 37 -8 2 -30 8 -50 13 -19 5
-37 10 -39 10 -4 1 -56 15 -86 23 -22 6 -33 7 -40 5z m119 -137 c10 -9 3 -26
-10 -26 -8 0 -15 7 -15 15 0 13 16 20 25 11z m-85 -123 c3 -2 8 -8 13 -12 4
-5 10 -9 13 -10 14 -3 19 -3 27 0 23 8 37 2 37 -17 0 -13 -6 -20 -16 -20 -10
0 -28 -7 -33 -12 -7 -8 -13 -22 -11 -29 3 -8 1 -18 -5 -22 -4 -3 -6 -3 -14 0
-5 2 -11 3 -13 3 -2 0 -8 4 -17 12 -4 3 -10 11 -10 13 0 1 -2 6 -4 10 -2 5 -5
11 -6 15 -6 13 -3 32 10 55 10 17 18 21 29 14z m-1092 -16 c6 -4 8 -12 8 -26
-2 -16 -7 -21 -25 -21 -11 0 -14 1 -18 5 -6 4 -6 6 -6 19 0 15 4 24 11 27 5 1
25 -1 30 -4z m1533 -4 c4 -4 5 -7 5 -13 0 -11 -7 -18 -18 -18 -11 0 -18 7 -18
18 0 11 7 18 18 18 6 0 9 -1 13 -5z m-538 -20 c3 -3 3 -3 0 -6 -3 -3 -3 -3 -6
0 -3 2 -3 3 -1 6 4 4 4 4 7 0z m-361 -45 c5 -5 6 -7 6 -17 0 -10 -1 -12 -6
-17 -5 -5 -7 -6 -17 -6 -10 0 -12 1 -17 6 -5 5 -6 7 -6 17 0 10 1 12 6 17 5 5
7 6 17 6 10 0 12 -1 17 -6z m375 -14 c16 -8 19 -10 21 -15 2 -3 3 -5 4 -5 3 0
2 -11 -2 -16 -2 -2 -6 -4 -9 -4 -5 0 -21 8 -26 13 -2 2 -5 4 -7 5 -1 2 -5 6
-7 10 -4 7 -4 8 0 12 5 6 13 6 26 0z m251 -14 c4 -2 8 -6 10 -7 3 -4 21 -13
25 -13 4 0 18 -12 14 -12 -1 0 -3 -1 -3 -2 0 -1 -2 -3 -3 -5 -2 -3 -7 -8 -10
-12 -8 -10 -18 -22 -37 -42 -11 -11 -18 -21 -26 -35 -5 -11 -12 -22 -14 -24
-8 -9 -35 -20 -48 -20 -7 0 -14 7 -14 14 0 9 7 20 17 29 12 10 15 16 15 30 0
15 -3 20 -15 31 -15 14 -26 26 -30 33 -4 7 -4 7 0 11 4 4 7 4 35 5 28 0 32 0
39 4 5 3 10 6 12 8 5 5 16 11 21 11 3 0 8 -2 12 -4z m246 -57 c3 -3 10 -16 9
-18 -1 0 -1 -1 1 -1 1 0 -1 -4 -6 -8 -7 -8 -8 -8 -17 -8 -13 0 -19 6 -19 19 0
15 8 22 24 19 3 0 6 -1 8 -3z m-1121 -31 c4 -3 6 -6 5 -6 -1 -1 -4 -16 -8 -34
-6 -33 -11 -53 -18 -82 -2 -9 -4 -17 -4 -18 -1 -2 -4 -5 -8 -9 l-7 -5 -29 0
c-27 1 -30 1 -40 6 -6 3 -10 6 -8 6 3 0 9 12 11 22 1 9 -18 65 -36 102 -5 12
-6 14 -3 16 7 8 10 8 75 8 l63 0 7 -6z m480 -36 c5 -5 6 -7 6 -16 0 -9 -1 -11
-7 -16 -5 -6 -7 -7 -16 -7 -9 0 -11 1 -16 7 -9 8 -9 23 -1 32 9 9 24 9 34 0z
m-184 -7 c2 -2 6 -5 8 -7 12 -7 43 -31 51 -38 3 -3 7 -6 9 -8 2 -2 9 -7 14
-11 10 -8 18 -14 22 -18 1 -1 6 -5 10 -9 17 -15 34 -30 45 -40 17 -16 29 -20
45 -16 7 3 40 27 52 39 8 9 26 7 35 -3 18 -21 21 -25 23 -29 3 -4 4 -21 1 -24
-3 -4 -12 -9 -18 -9 -11 -1 -27 -4 -33 -8 -4 -2 -9 -9 -12 -14 -11 -20 -11
-21 -39 -19 -37 1 -51 -2 -76 -17 -10 -6 -12 -7 -30 -7 -19 0 -19 0 -24 6 l-6
7 0 40 c0 32 -1 41 -3 47 -4 9 -14 21 -18 21 -2 0 -3 1 -3 2 0 2 -1 2 -46 3
-39 1 -80 0 -77 -2 2 -2 -14 -17 -22 -20 -10 -4 -12 -3 -17 2 -9 8 0 20 18 23
11 2 17 5 15 8 -1 1 1 2 3 3 3 1 14 15 14 18 0 1 2 5 4 10 2 4 7 14 10 22 10
24 20 46 24 48 4 4 16 4 21 0z m-124 -22 c5 -4 6 -6 6 -17 1 -8 0 -15 -1 -18
-3 -4 -24 -18 -34 -21 -2 -1 -4 -2 -4 -3 0 -1 -5 -3 -12 -6 l-12 -4 -4 5 c-3
4 -3 4 0 14 2 6 5 12 7 15 1 3 3 6 3 7 0 4 13 27 17 30 2 2 9 3 16 3 11 0 14
-1 18 -5z m846 -62 c6 -4 6 -6 6 -20 0 -14 0 -16 -6 -20 -4 -4 -7 -5 -18 -5
-11 0 -14 1 -18 5 -6 4 -6 6 -6 20 0 14 0 16 6 20 4 4 7 5 18 5 11 0 14 -1 18
-5z m-1251 -7 c5 -4 11 -19 9 -26 -1 -3 -1 -6 -2 -8 -1 -8 -6 -16 -10 -17 -9
-2 -31 4 -36 10 -7 8 -7 30 0 38 7 9 28 11 39 3z m959 -18 c10 -9 3 -26 -10
-26 -8 0 -15 7 -15 15 0 13 16 20 25 11z m-1101 -56 c2 -3 3 -9 4 -14 0 -13
-6 -20 -18 -20 -22 0 -25 30 -4 37 11 4 15 3 18 -3z m172 -8 c4 -6 4 -6 1 -11
-5 -6 -8 -6 -13 0 -5 5 -5 7 -1 13 4 6 7 5 13 -2z m255 -59 c4 -4 5 -7 5 -13
0 -11 -7 -18 -18 -18 -11 0 -18 7 -18 18 0 11 7 18 18 18 6 0 9 -1 13 -5z
m872 -23 c5 -5 6 -7 6 -16 0 -14 -8 -22 -22 -23 -13 -1 -31 -6 -37 -11 -3 -3
-4 -6 -4 -15 0 -19 3 -22 46 -45 17 -9 21 -10 31 -10 10 0 20 3 25 8 3 3 15 8
19 8 8 0 13 -7 13 -17 0 -4 1 -9 1 -10 0 -1 1 -6 1 -11 0 -5 1 -8 1 -6 2 3 7
3 8 -2 2 -7 11 -13 40 -24 52 -21 98 -36 116 -37 31 -2 39 -6 49 -22 6 -10 6
-11 4 -18 -1 -4 -2 -14 -2 -20 0 -12 0 -14 -6 -19 -6 -6 -7 -6 -20 -6 -13 0
-21 6 -23 20 -1 4 -2 8 -3 10 -1 2 -2 4 -1 4 2 0 -7 20 -10 25 -5 5 -27 15
-33 15 -13 0 -26 -9 -32 -23 -2 -5 -4 -9 -4 -10 0 -1 -2 -4 -5 -7 l-6 -6 -5 5
c-3 3 -6 7 -6 7 0 5 -9 20 -15 26 -8 7 -16 9 -30 8 -9 -1 -11 0 -16 5 -4 4 -6
7 -6 7 0 1 1 15 2 32 1 26 0 30 -2 30 -4 0 -15 6 -20 10 -5 6 -23 14 -25 13
-1 -1 -2 0 -3 1 -2 4 -13 2 -20 -3 l-7 -5 -72 0 c-72 0 -74 0 -82 8 -3 3 -3 4
-1 4 2 0 9 3 17 7 7 4 17 10 23 13 15 8 18 14 18 33 0 9 -1 20 -2 26 -3 17 2
24 18 26 15 2 32 7 43 14 18 10 29 11 39 1z m-1085 -62 c5 -5 5 -11 0 -16 -10
-10 -27 5 -16 16 4 4 12 4 16 0z m820 -16 c5 -5 5 -15 0 -20 -9 -9 -24 -2 -24
10 0 8 6 14 14 14 3 0 8 -2 10 -4z m545 -55 c3 -5 3 -5 0 -10 -2 -3 -5 -5 -7
-5 -2 0 -5 2 -7 5 -3 5 -3 5 0 10 2 3 5 5 7 5 2 0 5 -2 7 -5z m-519 -38 c2 -2
3 -11 4 -22 l1 -18 -6 -6 c-6 -5 -8 -6 -18 -6 -16 0 -30 -5 -37 -11 -7 -7 -20
-14 -26 -14 -6 0 -19 7 -26 13 -1 2 -7 5 -12 8 -9 5 -11 7 -7 12 0 2 0 3 -2 4
-3 0 -2 1 1 1 3 0 10 2 16 4 20 7 63 24 84 33 12 4 22 8 23 8 1 -1 3 -3 5 -6z
m227 -42 c5 -8 1 -16 -8 -16 -9 0 -13 8 -8 16 2 3 5 5 8 5 3 0 6 -2 8 -5z m99
-64 c3 -3 4 -7 4 -14 0 -13 -6 -19 -19 -19 -13 0 -19 6 -19 19 0 7 1 11 4 14
7 8 23 8 30 0z m223 -71 c11 -10 3 -28 -11 -28 -9 0 -16 6 -16 16 0 14 17 22
27 12z m-458 -67 c3 -5 3 -5 0 -10 -2 -3 -5 -5 -7 -5 -2 0 -5 2 -7 5 -3 5 -3
5 0 10 2 3 5 5 7 5 2 0 5 -2 7 -5z m-264 -137 c10 -9 3 -26 -10 -26 -8 0 -15
7 -15 15 0 13 16 20 25 11z m451 -79 c3 -3 4 -7 4 -14 0 -13 -6 -19 -19 -19
-13 0 -19 6 -19 19 0 7 1 11 4 14 7 8 23 8 30 0z m-121 -103 c7 -3 12 -13 12
-25 0 -19 -9 -28 -28 -28 -19 0 -28 9 -28 28 0 17 6 24 22 28 5 1 14 -1 22 -3z
m-135 -104 c5 -5 5 -15 0 -20 -9 -9 -24 -2 -24 10 0 8 6 14 14 14 3 0 8 -2 10
-4z m456 -56 c5 -6 5 -12 0 -18 -7 -8 -22 -2 -22 9 0 11 15 17 22 9z"/>
<path d="M864 3598 c-4 -4 -4 -20 0 -24 2 -2 5 -6 5 -9 2 -6 2 -6 9 -5 6 2 6
2 6 14 -1 21 -12 34 -20 24z"/>
<path d="M156 2866 c-3 -1 -6 -1 -7 0 0 0 -1 0 -1 -2 0 -1 -1 -2 -3 -2 -4 0
-14 -12 -18 -21 -3 -7 -3 -27 -3 -192 l0 -185 7 -7 c6 -7 7 -7 19 -7 7 0 12
-1 13 -2 0 -2 1 -2 1 0 0 6 8 9 20 9 19 0 27 -8 27 -27 0 -19 -8 -27 -27 -27
-12 0 -20 3 -20 9 0 2 -1 2 -1 1 -1 -2 -6 -3 -13 -3 -12 0 -13 0 -19 -7 l-7
-7 1 -25 c0 -19 1 -26 4 -33 3 -5 6 -14 8 -19 4 -11 4 -11 0 -21 -2 -6 -5 -15
-8 -20 -4 -9 -4 -11 -5 -183 0 -155 0 -175 3 -182 4 -9 14 -21 18 -21 2 0 3
-1 3 -2 0 -3 12 -3 114 -3 102 0 114 0 114 3 0 1 1 2 3 2 3 0 12 10 15 17 1 3
2 15 2 26 0 20 1 21 6 26 4 4 8 5 19 5 21 2 30 7 38 24 4 7 7 15 7 17 0 7 8
13 16 13 8 0 16 -7 16 -13 0 -2 3 -10 7 -17 10 -21 24 -27 42 -18 11 6 25 19
32 31 6 10 13 34 13 44 0 4 3 9 12 18 6 7 13 14 14 17 3 6 10 26 10 31 0 7 9
13 20 13 14 0 20 -6 20 -19 0 -10 -1 -13 -14 -29 -6 -7 -12 -24 -13 -37 -2
-14 -3 -16 -12 -26 l-10 -10 1 -15 c1 -14 1 -15 6 -18 8 -3 20 -3 35 0 13 3
26 2 44 -3 20 -5 43 -4 64 3 20 7 32 8 45 3 13 -6 27 -3 35 6 6 6 7 8 7 18 0
11 0 12 -7 16 -8 7 -23 11 -31 11 -8 0 -14 6 -14 13 0 7 7 13 13 13 13 -1 37
10 37 17 0 2 1 3 2 3 1 0 2 -1 2 -2 0 -3 8 6 8 9 0 1 1 5 1 9 0 4 0 12 -1 19
-2 11 -2 16 4 39 l2 7 0 -6 c0 -7 0 -7 18 -8 9 0 13 -1 14 -3 1 -2 2 -1 2 3 0
4 1 7 2 8 2 1 8 22 9 35 1 7 3 14 8 21 9 14 13 25 15 45 1 9 2 19 3 22 1 6 -3
24 -7 29 -8 9 -12 10 -43 7 -2 -1 -3 -1 -3 -2 0 -1 -1 -2 -3 -2 -4 0 -15 -13
-15 -18 -1 -5 -1 -5 -1 0 -1 2 -2 4 -3 4 -2 0 -2 1 -2 1 1 1 0 5 -1 9 -5 10
-6 69 -5 187 l1 96 -6 11 c-6 12 -9 15 -25 25 -12 9 -14 12 -14 24 0 12 2 15
14 24 16 10 19 13 25 24 l5 11 0 67 c0 56 0 68 -3 74 -4 9 -14 21 -18 21 -2 0
-3 1 -3 2 0 2 -9 3 -33 3 -23 0 -33 -1 -33 -3 0 -1 -2 -2 -5 -3 -5 -1 -14 -12
-22 -27 -6 -11 -10 -14 -21 -16 -7 -2 -28 2 -36 6 -3 2 -6 2 -12 0 -6 -2 -7
-3 -8 -9 0 -4 -1 -9 -2 -12 -2 -2 -2 -4 -2 -4 2 0 -6 -15 -10 -17 -5 -3 -19
-3 -24 0 -2 1 -9 11 -14 22 -6 11 -13 23 -15 26 -6 6 -30 17 -45 19 -5 1 -18
5 -28 10 l-19 8 -173 0 c-95 1 -175 0 -178 -1z m85 -149 c3 -5 3 -5 0 -10 -2
-3 -5 -5 -7 -5 -2 0 -5 2 -7 5 -3 5 -3 5 0 10 2 3 5 5 7 5 2 0 5 -2 7 -5z
m106 -25 c13 -8 13 -36 0 -50 -5 -4 -12 -20 -16 -33 -7 -22 -15 -31 -36 -40
-15 -7 -31 -5 -39 4 -6 7 -8 20 -6 30 3 11 8 15 20 20 15 6 27 18 30 31 3 11
3 13 4 22 1 16 25 25 43 16z m226 -85 c6 -6 6 -7 6 -29 0 -22 0 -23 -6 -29 -6
-6 -6 -6 -25 -6 l-20 0 -20 -11 c-20 -10 -22 -11 -35 -10 -26 0 -38 -6 -46
-25 -7 -15 -13 -18 -34 -17 -2 0 -6 3 -9 6 -5 5 -6 7 -6 17 0 10 1 14 9 28 12
23 13 29 13 51 -1 18 -1 19 5 25 l6 6 78 0 78 0 6 -6z m118 -45 c4 -6 4 -24
-1 -30 -7 -9 -27 -9 -34 0 -5 6 -5 24 0 30 7 9 27 9 35 0z m-381 -65 c-2 -18
-8 -35 -13 -41 -6 -6 -22 -6 -28 1 -7 6 -7 19 -2 28 9 14 21 27 28 31 l8 4 4
-5 c4 -4 4 -5 3 -18z m253 -78 c12 -7 14 -33 3 -43 -8 -9 -32 -9 -40 0 -9 8
-9 32 0 41 7 7 27 8 37 2z m92 -53 c10 -9 3 -26 -10 -26 -8 0 -15 7 -15 15 0
13 16 20 25 11z m-215 -17 c3 -2 8 -8 12 -13 14 -23 27 -27 79 -26 l36 1 6 -6
6 -6 0 -33 0 -33 -6 -6 -6 -6 -78 0 -78 0 -6 6 c-4 4 -6 8 -6 13 -1 10 -7 23
-15 32 -9 9 -14 17 -14 21 0 4 8 16 15 24 3 3 9 10 13 17 4 6 10 13 12 15 6 4
23 4 30 0z m418 -87 c3 -3 8 -24 8 -39 0 -15 -5 -36 -8 -39 -1 -1 -2 -3 -3 -5
0 -4 -1 -4 -1 0 0 6 -12 17 -25 25 -10 6 -27 4 -44 -5 -12 -8 -22 -9 -32 -5
-11 4 -30 1 -45 -8 -3 -1 -5 -1 -9 2 l-6 5 6 4 c4 4 7 5 14 4 6 0 9 0 9 2 0 1
1 1 1 0 1 0 4 1 6 4 3 3 5 5 6 5 1 0 5 4 10 9 10 10 17 12 28 8 7 -3 31 -2 35
1 0 0 1 1 2 1 5 2 20 10 30 18 8 6 14 14 14 18 0 4 1 4 1 0 1 -2 2 -4 3 -5z
m-583 -89 c12 -7 14 -33 3 -43 -8 -9 -32 -9 -40 0 -9 8 -9 32 0 41 7 7 27 8
37 2z m231 -3 c5 -5 5 -11 0 -16 -10 -10 -27 5 -16 16 4 4 12 4 16 0z m-177
-188 c5 -5 6 -7 6 -16 0 -9 -1 -11 -7 -16 -5 -6 -7 -7 -16 -7 -9 0 -11 1 -16
7 -9 8 -9 23 -1 32 9 9 24 9 34 0z"/>
<path d="M891 2099 l13 -1 1 -10 0 -9 1 11 0 10 -13 0 -14 -1 12 0z"/>
</g>
</svg>
