<?xml version="1.0" standalone="no"?>
<!DOCTYPE svg PUBLIC "-//W3C//DTD SVG 20010904//EN"
 "http://www.w3.org/TR/2001/REC-SVG-20010904/DTD/svg10.dtd">
<svg version="1.0" xmlns="http://www.w3.org/2000/svg"
 width="1100.000000pt" height="2850.000000pt" viewBox="0 0 1100.000000 2850.000000"
 preserveAspectRatio="xMidYMid meet">
<metadata>
Created by potrace 1.15, written by Peter Selinger 2001-2017
</metadata>
<g transform="translate(0.000000,2850.000000) scale(0.500000,-0.500000)"
fill="#000000" stroke="none">
<path d="M285 3734 c-14 -4 -21 -9 -37 -29 -4 -7 -9 -10 -15 -11 -11 -3 -29
-10 -33 -13 -2 -2 -4 -3 -5 -3 -1 0 -5 -3 -10 -8 -5 -4 -13 -9 -18 -12 -9 -5
-23 -16 -20 -16 1 0 1 -1 0 -2 -3 -1 -9 -22 -7 -22 1 0 1 -2 1 -4 1 -4 9 -16
9 -13 0 1 6 2 12 2 l13 -1 0 -7 0 -7 -13 -1 c-6 0 -12 1 -12 2 0 3 -8 -8 -9
-14 -3 -9 -3 -360 -1 -369 1 -4 4 -10 6 -13 5 -6 27 -17 34 -17 5 0 12 -9 12
-17 0 -8 -8 -17 -13 -15 -2 2 -3 1 -3 0 0 -1 -1 -2 -2 -1 -3 2 -22 -7 -27 -13
-8 -10 -9 -18 -9 -77 l0 -55 7 -6 c4 -3 9 -6 12 -6 17 -1 21 0 23 1 12 9 33 8
42 -2 6 -7 8 -20 6 -30 -5 -18 -25 -26 -45 -16 -9 4 -29 3 -35 -2 -10 -9 -10
-10 -10 -99 0 -65 1 -86 3 -99 4 -19 4 -33 0 -52 -5 -26 -4 -142 1 -165 5 -21
5 -33 0 -54 -6 -26 -6 -55 1 -69 3 -5 7 -11 10 -13 2 -2 5 -5 7 -7 5 -4 10 -5
24 -6 29 -2 34 -3 40 -9 9 -8 9 -26 0 -34 -6 -6 -11 -7 -40 -9 -14 -1 -19 -2
-24 -6 -2 -2 -5 -5 -7 -7 -3 -2 -7 -8 -10 -14 l-5 -10 0 -105 c1 -122 0 -112
21 -134 18 -19 19 -29 3 -45 -5 -5 -11 -11 -13 -13 -4 -6 -8 -25 -5 -32 1 -3
3 -11 4 -18 1 -6 3 -15 4 -18 1 -3 3 -7 3 -9 1 -5 12 -14 20 -17 7 -3 18 -3
75 -2 69 1 72 1 72 3 0 1 2 2 5 4 6 3 16 13 22 23 8 15 25 20 41 12 9 -5 24
-8 31 -8 9 1 12 6 11 20 -1 12 -3 17 -13 28 -4 5 -5 8 -5 16 0 12 0 13 21 30
5 5 11 12 14 19 5 10 5 11 4 49 0 21 -1 40 -1 42 -1 2 -4 12 -6 21 l-4 17 4
17 c2 9 5 19 6 22 0 3 1 158 1 346 l0 341 -9 19 c-12 24 -12 28 -1 51 5 10 9
20 9 22 1 2 4 6 7 10 l6 6 23 -1 c33 -1 41 2 59 21 18 18 18 18 57 8 23 -5 30
-8 44 -17 9 -6 20 -10 25 -11 8 -1 251 0 257 1 1 0 2 1 2 2 0 1 1 2 3 2 4 0
14 12 18 21 2 6 3 16 3 55 0 51 -1 56 -12 79 -8 16 -8 28 0 44 12 25 12 21 12
154 0 128 0 133 -9 141 -5 5 -31 14 -32 12 -2 -4 -16 0 -22 6 l-6 6 0 26 c0
25 0 26 5 31 5 5 18 7 23 4 1 0 9 1 16 3 l14 3 -2 15 c-1 8 -2 14 -2 13 -1 0
-3 1 -5 4 -4 5 -15 11 -22 12 -8 2 -11 9 -11 24 0 15 3 22 11 24 2 0 9 3 16 7
l12 7 0 15 c0 15 0 16 -5 17 -3 1 -5 2 -5 3 0 2 -3 2 -73 3 l-68 1 -11 -5
c-10 -5 -12 -8 -21 -22 -13 -22 -15 -24 -27 -24 -12 0 -14 2 -27 24 -13 21
-25 28 -44 26 -27 -2 -39 -12 -51 -42 -9 -24 -13 -28 -30 -28 -19 0 -25 6 -27
27 -2 19 -10 34 -21 40 l-9 4 -116 0 c-64 0 -119 -1 -122 -2z m259 -118 c5 -5
5 -8 0 -14 -6 -8 -20 -4 -20 6 0 10 13 15 20 8z m-343 -10 c14 -13 -6 -35 -19
-23 -5 5 -5 18 -1 23 5 5 15 5 20 0z m572 -8 c5 -5 6 -7 6 -16 0 -18 -13 -26
-33 -21 -6 2 -13 8 -11 11 1 1 0 2 -1 3 -3 2 0 18 5 23 9 9 25 9 34 0z m-167
-35 c2 -2 4 -6 4 -8 0 -5 5 -20 11 -29 4 -8 4 -8 16 -8 13 0 13 0 24 10 14 12
17 14 28 14 9 0 17 -4 17 -8 0 -1 3 -6 6 -11 6 -11 7 -20 3 -23 -2 -1 -4 -2
-4 -1 -1 0 -4 0 -7 -1 -3 -1 -5 -1 -6 0 -4 4 -30 -7 -28 -12 0 -1 -1 -2 -3 -2
-1 0 -7 -2 -13 -5 l-10 -5 -89 0 -89 0 -7 6 c-8 7 -8 16 0 25 l6 6 37 -1 c35
0 37 0 46 4 11 6 16 14 21 30 5 17 7 21 15 23 8 3 16 2 22 -4z m140 -67 c2 -1
5 -2 8 -2 12 0 17 -24 7 -33 -5 -6 -21 -7 -26 -3 -4 4 -17 27 -17 32 0 9 16
12 28 6z m-334 -63 c13 -11 40 -14 53 -6 7 5 24 5 31 0 3 -3 7 -9 9 -14 6 -18
20 -25 43 -24 16 1 20 -2 20 -20 -1 -16 4 -30 14 -38 4 -4 8 -7 9 -7 3 0 8
-10 8 -14 0 -5 9 -29 13 -33 4 -5 15 -9 25 -9 21 0 45 -9 51 -19 6 -10 6 -26
-2 -33 -8 -9 -20 -8 -47 2 -29 11 -46 10 -56 -2 -4 -6 -9 -28 -7 -31 4 -5 4
-16 0 -29 -2 -8 -5 -24 -5 -35 -1 -15 -2 -20 -5 -23 -8 -8 -24 -3 -24 7 0 3
-2 11 -4 18 -5 15 -6 17 -11 31 -4 9 -5 26 -2 31 3 3 -1 24 -6 31 -6 7 -17 10
-37 10 -17 -1 -17 -1 -23 5 -6 6 -6 7 -6 20 1 8 0 16 -1 19 -3 5 -18 20 -27
27 -13 10 -16 30 -5 47 5 8 6 11 6 23 0 12 0 13 -7 18 -5 4 -10 5 -19 6 -11 1
-14 2 -19 7 -11 11 -5 36 10 38 7 2 18 0 21 -3z m363 -49 c10 -9 3 -26 -10
-26 -8 0 -15 7 -15 15 0 13 16 20 25 11z m-491 -27 c13 -6 25 -32 27 -54 1 -9
2 -17 2 -17 1 -1 3 -7 4 -13 2 -7 4 -13 5 -14 4 -5 3 -21 -2 -26 -3 -3 -6 -5
-8 -5 -11 0 -48 -27 -48 -35 0 -8 -24 -12 -37 -6 -8 3 -10 9 -8 22 2 12 8 19
19 21 5 1 12 3 15 4 3 2 7 3 8 3 5 1 13 8 15 12 5 12 3 19 -9 37 -6 8 -6 10
-6 29 0 24 2 33 8 40 5 6 7 6 15 2z m176 -207 c3 -3 6 -7 6 -8 0 -1 7 -9 16
-18 17 -17 18 -20 12 -28 -4 -5 -6 -5 -23 -5 -18 0 -19 0 -24 5 -6 6 -6 7 -6
28 0 20 0 22 5 27 6 6 6 6 14 -1z m-236 -27 c12 -4 16 -9 16 -20 0 -10 -7 -17
-18 -17 -9 0 -18 7 -18 14 0 2 -1 6 -1 9 -1 4 0 8 3 12 5 6 4 6 18 2z m96 -34
c4 -5 5 -6 3 -23 -1 -20 -2 -21 -4 -38 -2 -12 -9 -22 -16 -22 -26 -2 -34 5
-33 27 1 13 15 46 24 56 7 7 19 7 26 0z m11 -222 c7 -7 7 -23 0 -30 -10 -10
-37 -5 -37 7 -1 8 4 22 9 25 7 5 22 4 28 -2z m-84 -39 c15 -3 21 -9 24 -24 1
-3 2 -6 2 -8 0 -2 1 -4 1 -5 0 -3 7 -11 8 -10 1 1 3 -3 5 -8 4 -10 2 -16 -5
-14 -6 1 -15 5 -17 8 -3 4 -10 5 -33 6 -29 1 -37 7 -37 28 0 24 17 33 52 27z
m156 -74 c11 -10 4 -25 -12 -29 -8 -2 -9 -2 -13 3 -5 6 -4 18 2 25 6 6 17 7
23 1z m-38 -52 c5 -6 8 -17 8 -37 0 -18 -5 -23 -24 -23 -21 0 -30 13 -30 40 0
21 5 25 31 26 10 0 12 -1 15 -6z m28 -184 c7 -6 7 -19 1 -25 -6 -7 -19 -7 -25
-1 -7 6 -7 19 -1 25 6 7 19 7 25 1z m16 -113 c5 -8 1 -16 -8 -16 -9 0 -13 8
-8 16 2 3 5 5 8 5 3 0 6 -2 8 -5z m-98 -7 c6 -5 7 -15 1 -21 -5 -4 -8 -4 -13
1 -6 6 -6 14 -1 20 4 5 6 5 13 0z m70 -174 c7 -6 7 -19 1 -25 -6 -7 -19 -7
-25 -1 -7 6 -7 19 -1 25 6 7 19 7 25 1z m-166 -37 c5 -8 1 -16 -8 -16 -9 0
-13 8 -8 16 2 3 5 5 8 5 3 0 6 -2 8 -5z m170 -63 c11 -10 3 -28 -11 -28 -9 0
-16 6 -16 16 0 14 17 22 27 12z m-136 -34 c4 -6 4 -24 -1 -30 -7 -9 -27 -9
-34 0 -5 6 -5 24 0 30 7 9 27 9 35 0z"/>
<path d="M475 3314 c-3 -4 -7 -6 -9 -6 -2 0 -2 -1 0 -1 1 -1 2 -5 2 -11 0 -22
17 -32 35 -21 12 7 17 24 10 37 -3 5 -4 6 -18 6 -13 1 -15 1 -20 -4z"/>
<path d="M1072 3734 c-11 -3 -30 -20 -30 -25 0 -2 -1 -3 -2 -3 -4 -2 -12 -28
-12 -38 0 -5 2 -15 4 -22 6 -20 6 -21 3 -35 -2 -6 -3 -18 -3 -25 1 -12 2 -14
11 -26 12 -16 13 -27 3 -40 -19 -25 -22 -33 -22 -56 0 -28 6 -38 27 -47 20 -8
27 -11 36 -17 4 -3 14 -9 22 -13 18 -9 21 -12 21 -28 0 -10 -1 -12 -6 -17 -6
-6 -8 -7 -21 -6 -11 1 -14 2 -28 21 l-12 16 -12 -1 c-15 0 -21 -6 -25 -20 -3
-10 -2 -40 1 -49 4 -10 4 -24 0 -34 -2 -6 -3 -18 -3 -44 0 -46 3 -53 23 -62
10 -5 23 -14 23 -17 0 -1 -4 -5 -9 -10 -5 -5 -10 -12 -10 -14 -2 -10 -1 -29 2
-32 5 -5 4 -21 0 -26 -5 -6 -4 -32 2 -39 5 -6 6 -7 29 -17 l15 -7 95 -1 96 0
21 7 c27 9 31 9 58 0 20 -7 22 -7 51 -7 47 0 51 3 68 47 3 9 13 12 30 11 7 0
14 -9 17 -20 3 -9 3 -27 4 -87 1 -42 2 -81 3 -86 1 -6 6 -17 12 -27 15 -24 15
-32 1 -55 -13 -22 -15 -29 -15 -61 0 -28 2 -34 12 -41 5 -4 20 -7 33 -7 14 0
21 -5 21 -18 0 -13 -7 -18 -21 -18 -13 0 -28 -3 -33 -7 -4 -3 -11 -13 -11 -17
-2 -9 -1 -380 1 -386 2 -12 11 -25 20 -32 10 -8 13 -14 15 -25 3 -20 -7 -31
-27 -31 -19 0 -26 6 -29 24 -3 19 -17 40 -27 40 -2 0 -4 1 -5 2 0 1 -10 1 -20
2 -11 0 -30 0 -41 0 -27 1 -36 -3 -44 -19 -11 -20 -12 -20 -51 15 -25 24 -28
26 -31 26 -2 0 1 2 5 6 8 5 9 5 46 6 43 2 43 2 43 4 0 1 1 2 3 2 4 0 14 12 18
21 3 7 3 15 3 47 -1 49 -1 49 -32 79 -20 20 -23 22 -31 22 -24 2 -31 7 -31 19
0 9 7 16 16 16 7 0 11 -3 27 -17 8 -9 10 -9 17 -8 4 1 9 1 11 1 4 0 12 8 18
20 l4 9 1 239 c0 215 0 240 -3 247 -4 9 -14 21 -18 21 -2 0 -3 1 -3 2 0 2 -5
2 -21 2 -18 -1 -41 -1 -111 1 -74 2 -72 3 -103 -31 -9 -9 -23 -9 -32 0 -3 4
-10 11 -16 16 -16 17 -8 16 -185 16 l-155 -1 -9 -6 c-10 -7 -19 -22 -21 -37
-3 -13 -11 -19 -27 -19 -16 0 -24 6 -27 19 -2 14 -11 30 -21 37 -9 6 -10 6
-30 6 -23 0 -32 -1 -32 -3 0 -1 -1 -2 -3 -2 -4 0 -14 -12 -18 -21 -3 -6 -3
-19 -3 -87 0 -99 0 -97 28 -101 5 -1 10 -2 10 -2 1 -1 2 0 2 1 0 6 24 6 32 1
8 -7 31 -53 31 -66 0 -13 -2 -18 -13 -26 -5 -4 -13 -11 -16 -15 -6 -9 -6 -9
-5 -27 1 -18 1 -19 -4 -24 -6 -6 -19 -7 -24 -2 -1 2 -3 2 -4 2 0 -1 -3 -2 -6
-2 -21 -3 -26 -5 -29 -18 -5 -20 -2 -36 10 -58 14 -26 24 -37 42 -46 9 -4 10
-5 22 -2 12 3 20 7 25 12 6 6 18 11 25 11 13 0 14 0 20 -6 5 -5 6 -7 6 -18 0
-11 -1 -13 -6 -18 -5 -5 -9 -7 -15 -6 -4 1 -26 -6 -33 -10 -4 -3 -10 -8 -15
-13 -11 -11 -28 -16 -39 -10 -7 3 -26 -1 -33 -7 -6 -6 -8 -14 -10 -41 l-1 -22
9 -25 c9 -24 11 -33 7 -35 -1 -1 -1 -3 0 -6 1 -2 2 -6 3 -9 1 -6 2 -6 12 -6
12 0 25 4 25 8 0 1 1 2 2 1 1 -1 2 0 2 2 0 6 10 15 17 15 12 0 26 -21 26 -40
0 -14 -1 -15 -10 -25 -9 -8 -9 -8 -8 -20 0 -16 3 -20 20 -28 16 -8 20 -13 20
-28 0 -12 -4 -21 -12 -24 -5 -3 -38 -6 -65 -7 -3 0 -9 3 -16 10 -15 15 -32 16
-47 5 -6 -4 -11 -8 -12 -9 -3 -2 -23 -14 -38 -24 -15 -10 -19 -16 -19 -30 0
-13 4 -18 24 -33 11 -8 27 -21 38 -29 10 -8 21 -17 25 -20 3 -3 10 -8 14 -12
5 -4 13 -11 19 -16 6 -5 12 -10 14 -12 12 -12 31 -26 37 -27 16 -3 25 -1 49
16 20 13 60 43 67 50 1 1 10 8 19 16 9 8 19 16 22 19 54 49 77 72 85 85 4 6
11 14 16 18 11 9 16 14 23 22 3 3 9 11 15 17 9 11 9 12 9 24 0 15 -3 21 -12
27 -8 5 -43 17 -52 17 -4 1 -4 1 0 1 2 1 4 2 3 3 0 1 0 2 1 4 2 3 15 3 89 4
96 0 104 0 106 -6 1 -2 3 -4 5 -4 2 0 1 -1 -2 -2 -3 -1 -7 -2 -9 -4 -10 -5
-47 -22 -48 -22 -3 0 -12 -10 -15 -16 -1 -2 -2 -9 -2 -16 1 -13 7 -20 26 -29
5 -3 14 -10 19 -15 20 -24 26 -29 42 -36 22 -9 20 -7 32 -35 6 -14 15 -27 29
-41 26 -26 42 -44 56 -61 16 -18 25 -25 39 -26 10 -1 12 0 78 33 71 36 76 39
93 62 3 3 11 10 20 14 10 5 18 11 22 16 7 8 14 23 14 27 0 2 3 6 6 9 8 8 23 8
48 0 10 -3 20 -6 21 -6 5 0 13 -9 16 -20 1 -5 7 -15 12 -22 11 -17 12 -21 8
-27 -2 -3 -5 -5 -6 -5 -4 0 -18 7 -19 9 -1 2 -23 13 -30 14 -16 3 -24 -20 -14
-38 5 -8 6 -23 2 -33 -7 -18 -37 -17 -57 2 -3 2 -5 4 -6 4 0 0 -3 2 -5 3 -6 5
-23 4 -30 -2 -12 -11 -14 -32 -5 -53 11 -25 23 -29 74 -27 54 2 82 5 94 9 12
6 23 18 30 36 7 17 12 21 28 21 10 0 20 -4 27 -11 11 -10 33 -11 48 -2 17 10
32 23 48 39 15 17 20 23 33 51 10 21 11 27 5 57 -3 16 -1 23 10 37 6 7 6 30 1
36 -4 5 -9 18 -9 24 0 7 4 15 12 27 12 17 12 16 12 158 0 116 0 131 -3 138 -5
13 -10 18 -25 28 -16 11 -19 14 -19 29 0 15 3 18 19 29 15 10 20 15 25 28 3 7
3 24 3 154 0 159 0 156 -10 165 -6 5 -27 11 -36 10 -5 0 -8 1 -12 5 -4 4 -4 6
-4 28 0 40 4 49 21 52 4 0 9 2 11 3 1 1 6 3 10 5 5 2 10 6 12 9 8 12 8 9 7
256 0 129 0 240 -1 245 0 6 1 40 1 78 1 60 1 68 -2 76 -4 9 -14 21 -18 21 -2
0 -3 1 -3 2 0 2 -2 2 -65 3 -64 1 -71 1 -79 -8 -6 -7 -10 -22 -9 -38 1 -12 1
-13 -4 -18 -4 -4 -7 -5 -15 -5 -8 0 -11 1 -15 5 -5 5 -5 6 -4 18 1 23 -5 38
-19 44 -9 4 -230 4 -242 1 -10 -3 -21 -13 -23 -20 -2 -9 -6 -16 -8 -16 -1 0
-1 -1 0 -2 3 -4 -7 -12 -15 -12 -8 0 -18 8 -15 12 1 1 0 2 -1 2 -1 0 -3 3 -4
6 -1 3 -3 6 -4 6 -4 0 -5 0 -6 2 -2 4 -26 2 -32 -2 -18 -12 -33 -10 -52 7 -20
18 -21 18 -89 18 -33 1 -62 0 -65 -1z m364 -198 c0 -1 1 -2 3 -2 1 0 4 -2 7
-5 15 -16 22 -18 55 -18 l28 0 6 -6 c8 -9 8 -17 0 -26 l-6 -6 -95 0 -95 0 -6
6 c-8 9 -8 17 0 26 6 6 6 6 26 6 24 0 33 3 47 18 3 3 6 5 7 5 2 0 3 1 3 2 0 4
18 4 20 0z m263 -46 c10 -9 3 -26 -10 -26 -8 0 -15 7 -15 15 0 13 16 20 25 11z
m70 -53 c1 -2 3 -6 3 -8 -1 -2 1 -10 4 -18 3 -12 6 -16 13 -23 5 -4 10 -8 11
-8 7 0 11 -26 6 -38 -5 -11 -25 -17 -46 -12 -20 4 -23 13 -14 33 4 8 6 30 2
34 0 1 -3 7 -5 13 -5 15 -1 26 9 29 10 4 14 4 17 -2z m-555 -17 c8 -7 8 -15 0
-42 -8 -27 -13 -34 -21 -28 -6 4 -8 8 -13 31 -6 24 -6 32 1 39 9 9 24 9 33 0z
m471 -61 c12 -12 3 -31 -13 -31 -11 0 -18 7 -18 18 0 11 7 18 18 18 6 0 9 -1
13 -5z m-253 -42 c2 -2 8 -11 13 -20 7 -13 10 -17 18 -22 10 -6 10 -6 38 -6
l28 0 6 -6 c9 -9 9 -23 0 -32 l-6 -6 -95 0 -95 0 -6 6 c-9 9 -9 23 0 32 5 5 7
6 17 6 18 0 29 8 39 28 11 20 14 23 28 23 7 0 12 -1 15 -3z m-359 -28 c3 -3 3
-3 0 -6 -4 -5 -11 1 -7 6 4 4 4 4 7 0z m354 -148 c4 -4 5 -7 5 -15 0 -14 -6
-20 -20 -20 -14 0 -20 6 -20 20 0 14 6 20 20 20 8 0 11 -1 15 -5z m342 -14
c12 -7 14 -33 3 -43 -8 -9 -32 -9 -40 0 -9 8 -9 32 0 41 7 7 27 8 37 2z m-167
-37 c5 -5 5 -11 0 -16 -10 -10 -27 5 -16 16 4 4 12 4 16 0z m-756 -273 c25
-17 14 -16 151 -16 l122 0 5 -5 6 -6 -6 -5 -5 -6 -74 1 c-69 0 -73 0 -84 -4
-6 -2 -13 -6 -15 -9 -3 -2 -9 -8 -15 -12 -8 -8 -10 -9 -19 -9 -23 0 -62 8 -75
16 -15 9 -27 14 -42 19 -18 5 -25 10 -25 18 0 14 24 28 49 29 12 0 13 0 27
-11z m395 -5 c8 -10 15 -26 15 -34 0 -5 -1 -8 -2 -8 -1 0 -2 -2 -3 -4 -1 -4
-7 -4 -16 1 -3 2 -7 3 -9 3 -4 0 -20 10 -23 15 -4 6 -4 23 1 29 7 10 27 8 37
-2z m554 -57 c5 -8 1 -16 -8 -16 -9 0 -13 8 -8 16 2 3 5 5 8 5 3 0 6 -2 8 -5z
m-443 -3 c7 -9 2 -26 -8 -26 -1 0 -4 1 -7 3 -9 6 -2 27 9 27 1 0 4 -2 6 -4z
m-115 -28 c-1 0 1 -2 2 -4 4 -4 4 -5 1 -10 -4 -7 -12 -8 -17 -2 -4 7 -4 8 3
16 5 5 7 6 9 4 2 -1 3 -3 2 -4z m564 -42 c11 -10 3 -28 -11 -28 -9 0 -16 6
-16 16 0 14 17 22 27 12z m-605 -26 c1 0 5 -3 8 -6 5 -5 6 -7 6 -18 0 -11 -1
-13 -6 -18 -3 -3 -7 -6 -9 -6 -11 -1 -16 0 -23 2 -5 1 -11 3 -14 4 -6 2 -9 6
-7 11 1 2 2 4 2 5 0 1 3 5 6 10 7 11 17 17 27 17 4 -1 8 -1 10 -1z m-179 -6
c4 -2 7 -5 7 -6 0 -1 2 -3 4 -6 2 -2 3 -4 3 -4 -1 0 2 -3 7 -6 13 -10 23 -12
53 -12 21 0 29 -1 35 -3 4 -2 10 -4 13 -5 6 -1 6 -1 -2 -3 -5 -1 -11 -3 -14
-6 -4 -4 -6 -4 -22 -3 -30 1 -40 -4 -62 -31 -13 -15 -32 -12 -51 8 -11 12 -30
23 -39 23 -10 0 -27 -11 -27 -19 0 -1 -1 -4 -1 -7 -2 -11 -2 -13 -1 -20 2 -7
3 -30 2 -47 0 -9 -6 -15 -13 -15 -8 0 -17 7 -28 20 -13 16 -16 23 -15 36 1 23
0 47 -3 55 -3 7 -3 8 2 14 3 3 5 6 5 7 0 1 1 2 2 1 1 0 6 2 11 6 22 15 24 17
29 17 12 1 16 0 25 -7 5 -4 9 -6 9 -6 1 0 7 1 15 1 12 1 15 1 18 6 3 3 5 6 5
6 0 1 3 3 7 6 8 5 18 5 26 0z m682 -147 c3 -3 3 -3 0 -6 -4 -5 -11 1 -7 6 4 4
4 4 7 0z m-553 -42 c14 -13 35 -18 52 -13 23 6 40 -10 34 -34 -5 -22 -31 -26
-52 -8 -10 9 -11 10 -29 11 -9 1 -14 1 -17 -1 -4 -2 -30 -3 -134 -4 l-129 -1
-6 6 -6 6 6 6 6 6 96 -1 c91 0 95 0 106 4 6 2 13 6 15 9 3 2 9 8 15 13 9 8 9
8 22 8 12 0 14 0 21 -7z m486 -17 c1 0 5 -3 8 -6 5 -5 6 -7 6 -17 0 -14 -4
-21 -16 -27 -13 -6 -26 -7 -32 -2 -10 9 -3 43 11 50 5 3 9 3 23 2z m-649 -90
c16 -7 16 -43 -1 -50 -15 -6 -34 -2 -39 9 -4 8 -4 24 0 32 5 12 23 15 40 9z
m-102 -10 c10 -9 3 -26 -10 -26 -8 0 -15 7 -15 15 0 13 16 20 25 11z m365 -69
c7 -5 14 -15 14 -21 0 -2 -3 -11 -7 -19 -3 -8 -7 -16 -8 -19 -1 -3 -4 -8 -6
-12 -3 -5 -5 -9 -5 -10 0 -1 -1 -2 -2 -2 0 -1 -4 -5 -8 -11 -4 -5 -10 -11 -14
-13 l-7 -4 -5 5 c-4 5 -4 6 -3 24 0 11 2 22 2 25 1 3 0 7 -1 10 -1 2 -1 4 -1
5 1 0 3 7 5 15 6 23 15 32 32 31 4 -1 11 -2 14 -4z m546 -5 c4 -4 5 -7 5 -14
-1 -25 -27 -46 -39 -33 l-4 4 4 11 c5 14 14 28 22 32 7 5 7 5 12 0z m-58 -92
c25 -7 26 -45 2 -55 -5 -2 -11 -2 -32 0 -18 2 -37 -5 -46 -15 -2 -3 -14 -8
-27 -11 l-13 -3 -5 5 c-5 5 -5 7 -4 19 2 20 3 22 9 31 10 16 16 20 31 19 33
-1 48 1 64 10 5 2 13 2 21 0z m-843 -14 c6 -6 7 -17 2 -22 -8 -9 -27 -2 -27
11 0 13 16 20 25 11z m559 -22 c1 0 5 -3 8 -6 5 -5 6 -7 6 -18 0 -11 -1 -13
-6 -18 -7 -7 -9 -7 -38 -5 l-13 1 -12 -11 c-17 -16 -19 -17 -28 -17 -16 0 -23
20 -12 31 5 5 10 6 32 5 8 0 9 1 12 8 0 1 1 2 2 4 0 2 2 6 3 10 3 11 18 18 37
17 3 -1 7 -1 9 -1z"/>
<path d="M620 2709 c0 -2 -5 -3 -16 -3 l-15 0 -4 -7 c-4 -9 -4 -42 -1 -56 3
-10 8 -15 17 -16 2 0 8 -2 13 -3 6 -1 8 -1 8 1 0 2 1 3 2 3 1 0 4 4 7 8 7 11
9 27 3 38 -4 8 -11 26 -13 33 0 2 -1 3 -1 2z"/>
</g>
</svg>
