<?xml version="1.0" standalone="no"?>
<!DOCTYPE svg PUBLIC "-//W3C//DTD SVG 20010904//EN"
 "http://www.w3.org/TR/2001/REC-SVG-20010904/DTD/svg10.dtd">
<svg version="1.0" xmlns="http://www.w3.org/2000/svg"
 width="1000.000000pt" height="2850.000000pt" viewBox="0 0 1000.000000 2850.000000"
 preserveAspectRatio="xMidYMid meet">
<metadata>
Created by potrace 1.15, written by Peter Selinger 2001-2017
</metadata>
<g transform="translate(0.000000,2850.000000) scale(0.500000,-0.500000)"
fill="#000000" stroke="none">
<path d="M1413 3828 c-14 -4 -85 -23 -91 -24 -4 -1 -16 -4 -27 -7 -11 -3 -22
-6 -24 -6 -2 -1 -20 -5 -40 -10 -49 -13 -58 -19 -63 -42 -1 -8 0 -13 7 -38 14
-43 30 -99 42 -146 l10 -42 -5 -6 -6 -5 -113 0 c-130 0 -126 0 -145 -17 -21
-19 -23 -19 -43 -1 -16 15 -26 18 -55 18 -21 0 -22 0 -27 5 -3 3 -7 5 -10 5
l-4 1 4 0 c4 1 5 3 7 9 1 4 3 11 4 16 1 5 3 10 3 12 1 2 3 11 6 21 9 31 4 49
-18 64 -5 3 -11 5 -16 5 -15 0 -23 -5 -40 -27 -8 -10 -32 -11 -41 -1 -8 7 -9
27 -2 37 3 6 4 20 2 30 -2 10 -8 15 -26 25 -8 5 -18 10 -21 12 -28 17 -39 20
-70 15 -20 -2 -40 -3 -84 -3 -52 0 -60 0 -73 -4 -32 -9 -32 -9 -64 0 -14 4
-19 4 -128 3 -62 0 -114 -1 -115 -1 -2 0 -3 -1 -3 -2 0 -1 -1 -2 -3 -2 -4 0
-14 -12 -18 -21 -3 -7 -3 -24 -3 -152 0 -153 0 -155 10 -164 7 -6 24 -11 38
-11 10 0 13 -1 17 -5 6 -4 6 -6 6 -20 0 -14 0 -16 -6 -20 -4 -4 -7 -5 -17 -5
-24 0 -41 -9 -46 -24 -1 -5 -2 -98 -2 -346 l0 -338 5 -11 c5 -11 13 -19 28
-27 13 -7 19 -23 20 -53 0 -21 -2 -24 -21 -32 -18 -8 -23 -13 -28 -24 -5 -9
-5 -16 -2 -29 2 -7 6 -12 19 -26 10 -9 17 -18 17 -20 1 -5 1 -11 0 -16 0 -2
-7 -11 -17 -20 -13 -14 -17 -19 -19 -26 -1 -7 -2 -41 -2 -117 0 -102 0 -107 4
-115 2 -5 5 -11 7 -13 5 -5 22 -11 33 -12 15 -1 20 -5 30 -26 10 -20 20 -32
30 -35 4 -1 16 -2 27 -3 19 -1 20 -1 26 -7 5 -5 6 -7 6 -16 0 -14 -8 -22 -21
-22 -13 -1 -69 22 -74 29 -4 7 -14 11 -25 11 -12 0 -15 -2 -29 -21 -12 -16
-18 -57 -11 -74 4 -9 14 -21 18 -21 2 0 3 -1 3 -2 0 0 2 -2 6 -2 7 -1 232 -1
238 0 11 2 27 20 23 25 -1 0 -1 1 0 1 1 0 2 3 2 6 0 8 -7 13 -22 15 -5 1 -10
2 -11 2 -1 1 -2 0 -2 -1 0 -3 -10 -5 -25 -4 -2 0 -6 3 -9 6 -5 5 -6 7 -6 18 0
11 1 13 6 18 3 3 7 6 9 6 15 1 25 -1 25 -4 0 -1 1 -2 2 -1 0 0 5 1 10 2 14 2
20 5 24 13 4 8 4 13 4 172 l0 164 -5 11 c-5 10 -10 16 -21 23 -20 13 -20 34 0
46 3 2 9 7 13 11 l8 9 4 -5 c6 -5 8 -10 10 -20 1 -4 2 -9 2 -10 1 -3 3 -26 4
-36 2 -17 3 -24 7 -31 4 -8 16 -17 25 -20 9 -2 80 -1 101 2 88 11 158 50 199
111 29 43 44 92 51 167 2 20 1 125 -1 141 -1 6 -2 16 -3 24 -1 8 -2 17 -3 20
-1 3 -2 9 -2 13 -5 29 -23 90 -36 121 -8 18 -28 58 -35 70 -4 8 -8 14 -8 14 0
1 -7 12 -16 25 -24 36 -24 38 -10 83 40 125 52 167 52 178 0 10 -8 37 -12 42
-3 4 -8 25 -8 33 1 8 5 13 12 14 3 0 8 1 12 3 4 1 8 2 9 1 0 0 1 1 1 2 0 2 5
-3 12 -9 9 -10 12 -14 15 -24 4 -14 3 -16 -7 -45 -12 -32 -11 -55 5 -71 3 -4
7 -7 8 -7 2 0 3 -1 3 -2 0 -2 2 -2 95 -3 l90 -1 5 -5 c5 -5 5 -6 4 -45 0 -23
0 -44 -1 -47 0 -3 -1 -27 -2 -53 -1 -26 -2 -50 -2 -54 0 -4 -1 -19 -2 -34 -1
-15 -2 -29 -2 -30 -1 -2 -2 -14 -2 -27 0 -13 -2 -27 -3 -30 -1 -4 -1 -7 -1 -7
0 -1 1 -6 2 -13 1 -7 2 -18 3 -26 3 -19 2 -26 -15 -72 -3 -8 -6 -17 -6 -21 -1
-4 -3 -16 -5 -27 l-3 -19 7 -22 8 -23 -4 -7 c-2 -5 -5 -8 -6 -8 -4 0 -20 -17
-24 -24 -2 -4 -7 -18 -11 -30 -4 -13 -8 -25 -9 -27 -1 -2 -4 -9 -6 -16 -8 -22
-32 -74 -39 -87 -4 -7 -7 -13 -7 -13 0 -1 -18 -31 -27 -44 -6 -9 -10 -18 -13
-30 -5 -21 -8 -26 -24 -32 -14 -6 -33 -23 -40 -34 -5 -8 -5 -25 0 -38 2 -5 4
-15 4 -21 0 -9 -1 -11 -6 -16 -3 -3 -7 -6 -9 -6 -13 -1 -19 0 -31 6 -19 10
-32 9 -46 -1 -32 -22 -62 -41 -64 -41 -3 0 -6 -11 -7 -22 0 -10 0 -11 9 -21 6
-6 10 -11 10 -14 0 -5 -12 -26 -16 -28 -1 -1 -2 -8 -2 -15 0 -12 1 -15 5 -19
5 -5 29 -32 38 -44 3 -4 8 -10 10 -13 16 -19 53 -74 53 -78 0 -3 15 -18 19
-20 13 -5 21 -4 36 3 14 7 21 11 23 13 1 1 4 3 7 6 4 2 12 12 19 22 11 17 12
19 13 33 1 11 1 16 -2 22 -7 16 -1 29 13 29 11 0 16 -7 17 -21 1 -7 2 -12 3
-13 1 0 2 -1 1 -2 -3 -4 10 -10 17 -8 2 1 7 3 12 4 5 1 10 3 11 5 1 1 6 5 10
8 4 3 10 8 14 12 3 3 12 10 18 16 15 11 67 64 82 82 6 6 11 13 12 14 9 10 29
37 33 44 2 5 6 17 7 26 2 10 4 20 5 22 2 3 11 10 21 17 22 14 27 20 55 77 39
78 67 157 90 253 13 55 21 94 21 110 0 15 0 16 -10 34 -8 15 -10 21 -10 29 0
19 10 28 29 28 10 -1 11 -1 36 -18 17 -11 18 -11 107 -11 l82 0 5 -5 c3 -4 5
-8 5 -11 0 -3 -1 -21 -2 -41 0 -20 -1 -44 -2 -54 -1 -10 -1 -31 -2 -47 -1 -16
-2 -33 -2 -39 -1 -5 -1 -21 -2 -34 -1 -27 -1 -26 -7 -96 -6 -68 -6 -73 1 -86
3 -6 16 -21 19 -21 3 0 8 -12 8 -20 0 -12 -3 -16 -20 -23 -18 -7 -30 -18 -39
-34 -9 -16 -15 -22 -31 -28 -13 -6 -14 -6 -53 -6 -41 0 -80 2 -116 5 -29 3
-40 -1 -46 -15 -5 -12 -4 -19 6 -39 12 -27 26 -65 35 -96 11 -36 9 -29 19 -77
4 -20 9 -41 12 -47 13 -31 50 -47 66 -29 4 5 10 18 12 27 4 18 22 18 26 0 1
-4 2 -8 3 -9 2 -2 2 -3 1 -3 -1 0 -1 -1 0 -2 1 0 3 -4 5 -7 5 -10 17 -15 32
-15 14 1 27 5 29 11 2 7 1 29 -2 34 -8 11 -1 41 10 50 4 2 9 4 15 4 13 0 22
-8 23 -19 1 -10 -6 -28 -13 -34 -5 -4 -6 -7 -6 -14 0 -5 1 -10 2 -12 2 -1 2
-2 0 -2 -5 0 7 -8 16 -10 11 -3 16 -2 77 11 14 3 33 10 39 14 5 3 8 5 9 5 3 0
30 15 35 19 3 2 9 6 12 9 14 10 44 42 53 55 2 3 5 7 6 9 5 4 23 42 28 59 9 29
16 58 24 109 1 8 10 80 12 103 3 26 -3 41 -22 54 -13 9 -21 11 -49 13 -31 2
-37 7 -37 28 0 12 4 20 11 24 5 3 19 3 26 2 30 -8 40 -9 50 -5 13 6 22 13 27
23 6 11 6 14 8 52 1 23 1 26 -3 33 -5 11 -14 15 -31 15 -26 -1 -30 0 -35 3 -9
7 -19 42 -18 63 0 16 9 25 27 25 14 0 22 -5 25 -14 2 -5 3 -7 3 -5 1 1 6 2 18
2 15 0 17 0 17 4 0 2 1 4 2 5 1 1 2 15 3 31 3 67 3 84 4 103 1 11 2 42 2 68 1
26 1 54 2 62 0 8 1 39 1 69 1 53 1 55 -3 63 -13 24 -38 29 -77 16 -11 -4 -25
-8 -29 -8 -4 0 -18 4 -29 8 -26 9 -43 9 -73 3 l-20 -5 -23 5 c-22 4 -26 4
-125 4 l-102 -1 -18 -7 c-28 -13 -37 -11 -45 10 -7 18 -11 24 -27 32 -19 10
-21 12 -20 28 1 18 -2 29 -12 38 -4 4 -10 9 -12 11 -4 4 -5 7 -5 15 0 14 6 20
20 20 12 0 15 -2 27 -23 l8 -13 14 0 c13 1 14 1 18 7 3 4 5 9 6 12 1 3 2 7 2
8 2 2 3 23 3 50 1 17 1 23 3 23 1 0 4 1 5 3 2 2 6 3 12 3 11 0 15 -3 27 -22 5
-9 9 -13 17 -17 l11 -5 106 0 c104 0 106 0 114 4 5 3 9 5 8 5 0 1 0 3 2 4 4 5
7 19 7 32 0 9 1 12 5 16 9 9 20 7 51 -11 16 -10 22 -14 25 -20 2 -3 7 -10 12
-15 14 -14 19 -15 93 -15 82 0 83 0 82 24 l0 14 6 1 c7 0 6 0 -1 1 -13 0 -16
5 -16 23 0 14 0 16 6 20 3 3 8 5 10 5 3 0 12 3 20 7 14 7 15 8 20 18 l5 11 0
70 c0 59 0 71 -3 77 -4 9 -14 21 -18 21 -2 0 -3 1 -3 2 0 1 -2 2 -3 2 -2 0
-95 1 -206 1 -208 1 -221 1 -215 8 2 2 1 3 -2 4 -4 0 -4 1 1 1 8 0 11 1 19 5
9 3 22 14 22 18 0 1 1 3 2 3 3 1 4 24 2 31 -1 2 -4 11 -6 19 -10 34 -30 93
-41 122 -3 7 -10 27 -15 44 -19 57 -25 66 -52 72 -4 1 -10 1 -13 0z m-953
-175 c0 -1 3 -4 6 -5 3 -2 6 -5 6 -7 0 -2 1 -3 2 -3 3 0 2 -7 -1 -10 -2 -1 -3
-2 -3 -1 0 0 -3 0 -6 -1 -5 -1 -8 -1 -9 0 -1 1 -3 2 -5 2 -4 0 -10 8 -10 13 0
7 6 13 14 13 3 0 6 -1 6 -1z m58 -29 c13 0 20 -24 9 -35 -5 -5 -20 -7 -27 -3
-4 2 -17 22 -15 22 1 0 0 2 -2 4 -7 8 3 15 20 13 6 -1 12 -1 15 -1z m-315 -89
c4 -4 5 -7 5 -13 0 -11 -7 -18 -18 -18 -11 0 -18 7 -18 18 0 11 7 18 18 18 6
0 9 -1 13 -5z m1179 -8 c17 -8 22 -27 12 -41 -11 -15 -35 -18 -49 -5 -10 8
-10 32 -1 42 8 9 25 11 38 4z m-601 -9 c1 -1 4 -5 6 -10 3 -7 3 -8 -1 -16 -4
-8 -8 -11 -16 -12 -19 -2 -26 4 -26 21 0 13 4 19 14 21 8 1 19 0 23 -4z m-402
-3 c6 -4 6 -6 6 -20 0 -14 0 -16 -6 -20 -4 -4 -7 -5 -18 -5 -11 0 -14 1 -18 5
-6 4 -6 6 -6 20 0 14 0 16 6 20 4 4 7 5 18 5 11 0 14 -1 18 -5z m150 -35 c5
-3 10 -10 13 -19 1 -3 2 -3 2 -1 0 7 23 2 31 -7 7 -8 1 -21 -10 -21 -7 0 -26
16 -24 20 1 1 -2 1 -5 0 -14 -4 -21 -1 -24 8 -4 17 4 26 17 20z m-34 -35 c2
-1 3 -3 4 -5 0 -2 1 -4 2 -5 0 -2 0 -5 -1 -8 -1 -3 -6 -29 -12 -58 -11 -57
-11 -63 -2 -79 14 -25 20 -45 19 -64 -1 -13 -6 -19 -16 -21 -8 -1 -30 -12 -33
-16 -2 -2 -3 -8 -3 -14 0 -11 0 -12 9 -19 5 -4 10 -8 11 -8 4 0 15 -12 15 -16
0 -6 -6 -11 -13 -11 -17 1 -45 -12 -45 -20 0 -1 -3 -8 -7 -14 -13 -22 -11 -21
-28 -21 -11 0 -15 1 -15 3 0 3 -7 -19 -9 -28 -2 -12 -10 -28 -15 -31 -10 -5
-32 -1 -35 8 -1 1 -3 4 -4 4 -1 1 -2 7 -3 14 0 12 0 12 7 22 12 14 13 15 14
19 0 2 2 8 3 13 2 6 2 10 0 16 -6 21 8 38 30 37 27 -2 41 3 47 18 5 10 4 138
0 148 -3 8 -10 15 -16 16 -1 0 -3 1 -5 2 -9 3 -16 5 -17 3 -1 0 -3 -1 -4 -1
-9 -2 -30 -10 -35 -15 -20 -18 -19 -18 -33 -18 -18 0 -24 5 -24 22 -1 15 1 22
9 25 4 2 9 4 26 8 7 1 19 9 28 16 5 4 10 8 12 9 5 3 20 4 21 2 1 -2 7 0 17 3
2 1 4 2 5 2 12 2 20 18 19 36 -1 11 0 12 5 18 l6 6 25 -1 c19 0 26 1 30 3 6 3
7 3 11 0z m1223 -7 c5 -5 5 -11 0 -16 -10 -10 -27 5 -16 16 4 4 12 4 16 0z
m-719 -21 c6 -4 6 -6 6 -20 0 -14 0 -16 -6 -20 -4 -4 -7 -5 -18 -5 -11 0 -14
1 -18 5 -6 4 -6 6 -6 20 0 14 0 16 6 20 4 4 7 5 18 5 11 0 14 -1 18 -5z m158
-37 c9 -5 10 -11 9 -44 0 -29 0 -33 4 -42 3 -6 6 -12 7 -13 1 -1 4 -5 6 -7 2
-3 6 -7 9 -9 9 -7 12 -13 12 -25 0 -9 -1 -11 -6 -16 -5 -5 -7 -6 -16 -6 -12 0
-22 5 -23 11 0 2 -1 13 -2 24 0 15 -1 22 -4 25 -2 3 -3 6 -3 8 0 2 -2 6 -5 9
-2 3 -6 10 -9 15 -2 5 -8 14 -12 19 -17 22 -14 48 6 53 8 2 21 1 27 -2z m537
-26 c5 -5 6 -7 6 -17 0 -10 -1 -12 -6 -17 -5 -5 -7 -6 -17 -6 -10 0 -12 1 -17
6 -5 5 -6 7 -6 17 0 10 1 12 6 17 5 5 7 6 17 6 10 0 12 -1 17 -6z m-411 -65
c4 -3 11 -17 12 -26 1 -5 -12 -11 -24 -11 -15 0 -21 5 -21 20 0 14 6 20 19 20
6 0 12 -1 14 -3z m-670 -23 c11 -10 3 -28 -11 -28 -9 0 -16 6 -16 16 0 14 17
22 27 12z m505 -60 c4 -4 5 -15 2 -17 -3 -2 -11 -33 -10 -41 1 -28 1 -34 0
-43 -4 -28 -9 -33 -25 -33 -12 0 -20 4 -25 14 -2 4 -4 8 -3 8 0 0 0 2 -1 5 -3
9 -3 27 1 40 3 9 6 13 14 20 10 8 14 15 24 38 2 4 4 8 6 10 3 4 12 4 17 -1z
m-525 -46 c7 -6 7 -19 1 -25 -6 -7 -19 -7 -25 -1 -7 6 -7 19 -1 25 6 7 19 7
25 1z m-347 -34 c18 -19 22 -26 22 -40 0 -9 -1 -11 -6 -16 -5 -5 -7 -6 -16 -6
-17 0 -22 5 -40 38 -14 26 -6 43 19 40 4 0 10 -5 21 -16z m177 -113 c5 -8 8
-14 8 -15 0 -4 8 -15 16 -22 9 -9 15 -20 16 -31 2 -9 8 -27 16 -44 16 -34 27
-66 36 -104 4 -18 6 -32 11 -67 1 -12 1 -72 -1 -82 0 -3 -1 -9 -1 -14 0 -7 -1
-11 -5 -15 -3 -3 -5 -7 -5 -8 0 -5 -9 -13 -20 -19 -17 -9 -26 -19 -34 -38 -8
-18 -9 -20 -22 -25 -8 -4 -10 -4 -16 -2 -15 6 -17 22 -9 55 l5 20 0 184 c-1
172 -1 186 -5 196 -5 17 -6 30 -2 38 2 3 3 6 4 6 0 0 4 -6 8 -13z m677 2 c4
-5 5 -6 3 -22 -3 -44 -5 -51 -17 -61 -14 -12 -17 -22 -16 -55 0 -8 0 -10 -6
-16 -5 -5 -7 -6 -16 -6 -9 0 -11 1 -16 6 -6 6 -6 7 -6 17 1 10 3 13 9 22 13
17 15 30 9 51 -3 13 0 23 14 42 19 26 32 33 42 22z m118 -43 c8 -7 8 -21 2
-35 -6 -14 -7 -28 -3 -42 5 -17 4 -26 -5 -46 -1 -2 -4 -8 -6 -14 -6 -13 -13
-19 -31 -25 -9 -2 -18 -7 -24 -11 -17 -13 -21 -15 -30 -15 -13 0 -19 6 -19 19
0 12 4 16 21 25 24 13 24 13 35 36 6 11 11 22 12 23 0 1 4 6 7 11 7 11 9 32 4
42 -2 3 -3 10 -3 16 0 9 1 11 6 16 5 5 7 6 17 6 10 0 12 -1 17 -6z m-945 -14
c4 -4 5 -7 5 -13 0 -10 -6 -16 -23 -26 -5 -3 -12 -7 -14 -10 -5 -4 -18 -11
-21 -11 -2 0 -5 2 -7 5 -3 5 -3 6 0 13 2 4 5 8 6 8 6 4 11 10 18 20 4 5 9 12
11 14 7 5 19 5 25 0z m1076 -6 c5 -5 6 -7 6 -16 0 -9 -1 -11 -7 -16 -5 -6 -7
-7 -16 -7 -9 0 -11 1 -16 7 -9 8 -9 23 -1 32 9 9 24 9 34 0z m357 -17 c8 -4
12 -10 14 -21 2 -10 2 -12 -2 -21 -3 -7 -6 -9 -12 -11 -20 -8 -37 -1 -42 17
-2 10 0 23 6 30 7 8 24 11 36 6z m83 -56 c4 -4 5 -7 5 -13 0 -11 -7 -18 -18
-18 -12 0 -18 7 -18 19 0 7 1 9 5 13 8 6 20 5 26 -1z m-1062 -49 c2 -3 3 -8 3
-14 0 -11 1 -21 5 -40 4 -19 4 -22 -1 -27 -10 -11 -23 -4 -28 13 -2 9 -10 29
-15 38 -4 8 -4 25 1 30 7 9 27 9 35 0z m-434 -116 c4 -6 4 -24 -1 -30 -7 -9
-27 -9 -34 0 -5 6 -5 24 0 30 7 9 27 9 35 0z m858 -83 c4 -4 5 -7 5 -15 0 -14
-6 -20 -20 -20 -14 0 -20 6 -20 20 0 14 6 20 20 20 8 0 11 -1 15 -5z m-554
-11 c5 -5 6 -7 6 -16 0 -6 -2 -12 -3 -14 -11 -13 -11 -42 1 -52 9 -7 8 -31 -1
-39 -4 -5 -6 -5 -15 -5 -14 2 -35 12 -39 20 -6 9 -5 24 2 34 11 15 15 34 10
50 -3 10 -1 17 5 23 10 8 25 8 34 -1z m426 -99 c3 -2 5 -6 5 -8 -1 -2 0 -9 1
-14 1 -9 3 -12 11 -20 5 -5 14 -11 19 -14 11 -5 14 -9 16 -24 2 -8 9 -35 13
-48 7 -19 -2 -34 -20 -34 -8 0 -11 1 -16 6 -3 3 -6 6 -5 6 1 2 -12 31 -20 44
-4 6 -7 14 -7 16 -2 39 -2 39 -16 55 -13 14 -13 31 1 37 9 4 13 4 18 -2z m-50
-184 c3 -3 3 -3 0 -6 -3 -3 -3 -3 -6 0 -3 2 -3 3 -1 6 4 4 4 4 7 0z m-614 -63
c11 -10 3 -28 -11 -28 -9 0 -16 6 -16 16 0 14 17 22 27 12z m570 -53 c3 -5 3
-5 0 -10 -2 -3 -5 -5 -7 -5 -2 0 -5 2 -7 5 -3 5 -3 5 0 10 2 3 5 5 7 5 2 0 5
-2 7 -5z m703 -81 c1 0 5 -3 8 -6 5 -5 6 -7 6 -17 0 -17 -5 -24 -21 -26 -11
-2 -27 -8 -41 -17 -14 -8 -18 -9 -33 -8 -2 0 -6 3 -9 6 -5 5 -6 7 -6 17 0 17
5 23 20 26 11 2 24 7 36 14 20 11 23 12 30 12 4 -1 8 -1 10 -1z m-294 -9 c11
-5 34 -5 43 0 15 7 28 0 26 -15 0 -4 -2 -9 -4 -11 -4 -5 -16 -6 -20 -3 -6 5
-41 4 -48 -1 -8 -5 -22 -5 -28 2 -7 6 -7 21 -1 28 7 8 16 8 32 0z m80 -93 c5
-6 5 -12 0 -18 -7 -8 -22 -2 -22 9 0 11 15 17 22 9z m200 -36 c5 -5 6 -7 6
-17 0 -10 -1 -12 -6 -17 -5 -5 -7 -6 -17 -6 -10 0 -12 1 -17 6 -5 5 -6 7 -6
17 0 10 1 12 6 17 5 5 7 6 17 6 10 0 12 -1 17 -6z"/>
<path d="M578 2143 c-3 -3 -6 -8 -6 -11 -1 -5 -1 -5 5 -4 9 2 20 9 21 12 0 2
-2 4 -7 5 -6 2 -8 2 -13 -2z"/>
</g>
</svg>
