<?xml version="1.0" standalone="no"?>
<!DOCTYPE svg PUBLIC "-//W3C//DTD SVG 20010904//EN"
 "http://www.w3.org/TR/2001/REC-SVG-20010904/DTD/svg10.dtd">
<svg version="1.0" xmlns="http://www.w3.org/2000/svg"
 width="1100.000000pt" height="2850.000000pt" viewBox="0 0 1100.000000 2850.000000"
 preserveAspectRatio="xMidYMid meet">
<metadata>
Created by potrace 1.15, written by Peter Selinger 2001-2017
</metadata>
<g transform="translate(0.000000,2850.000000) scale(0.500000,-0.500000)"
fill="#000000" stroke="none">
<path d="M610 3814 c-13 -5 -26 -14 -32 -23 -2 -4 -5 -7 -6 -7 -1 0 -4 -3 -7
-7 -7 -11 -9 -32 -4 -42 4 -9 5 -26 1 -33 -6 -11 -25 -14 -42 -6 -12 5 -16 9
-20 18 -6 13 -2 21 14 27 5 2 10 5 12 6 3 3 3 32 0 36 -2 1 -2 1 -1 -1 1 -2 0
-1 -4 1 -7 5 -15 3 -51 -6 -35 -10 -47 -16 -52 -28 -6 -12 -5 -23 3 -39 10
-24 20 -32 44 -40 14 -5 18 -15 10 -24 -6 -7 -18 -8 -126 -8 -59 0 -109 -1
-113 -2 -3 -1 -6 -1 -6 0 0 0 -1 0 -2 -1 0 -1 -4 -4 -8 -7 -5 -2 -10 -7 -12
-10 -2 -3 -7 -8 -11 -10 -8 -5 -17 -4 -36 5 -18 9 -33 3 -42 -16 -5 -11 -5
-11 -5 -72 l0 -61 5 -11 c5 -10 6 -11 19 -17 7 -4 15 -7 18 -7 19 -2 29 -18
24 -38 -3 -11 -9 -17 -28 -27 -33 -17 -38 -29 -38 -85 0 -49 2 -56 24 -70 16
-10 20 -15 20 -23 0 -8 -4 -13 -20 -23 -17 -11 -24 -24 -24 -42 0 -28 14 -42
45 -44 16 -1 23 -6 27 -21 4 -15 10 -32 16 -46 8 -17 8 -34 -1 -41 -7 -6 -28
-7 -35 -1 -5 3 -12 20 -12 27 0 3 -1 3 -2 1 -1 -2 -6 -2 -19 -2 -13 1 -17 0
-18 -2 -1 -1 -1 -60 -1 -131 l0 -129 5 -10 c7 -14 17 -18 40 -19 21 -1 25 -2
32 -13 3 -4 6 -8 7 -8 1 0 2 -1 2 -3 0 -2 1 -3 2 -3 1 0 2 -1 1 -2 -1 -1 0 -2
2 -2 2 0 6 -1 8 -1 7 -2 13 -2 28 0 14 1 15 1 20 -4 4 -4 5 -7 5 -14 0 -10 -2
-14 -13 -27 -10 -12 -13 -16 -13 -17 0 -1 -3 -8 -7 -16 -8 -16 -15 -21 -30
-20 -20 1 -31 15 -28 36 1 5 0 13 -1 19 -6 25 -30 33 -48 17 -12 -11 -14 -19
-15 -68 -1 -23 -2 -52 -3 -65 -3 -53 1 -66 23 -79 14 -8 19 -16 19 -28 0 -13
-3 -18 -22 -27 -19 -10 -23 -13 -29 -26 -6 -13 -6 -12 -2 -26 5 -16 11 -20 44
-32 15 -6 16 -41 1 -49 -3 -2 -13 -3 -21 -4 -22 -1 -35 -8 -42 -21 -4 -8 -4
-13 3 -36 7 -24 7 -24 -10 -40 -12 -12 -18 -23 -26 -51 -3 -12 -10 -33 -15
-46 -8 -20 -9 -24 -8 -33 3 -18 9 -25 32 -38 34 -19 46 -27 72 -46 30 -21 36
-24 50 -24 13 1 19 3 34 12 25 14 29 21 47 76 10 31 15 40 21 40 3 0 18 -15
22 -21 0 -2 2 -3 3 -3 5 0 16 -14 25 -31 11 -22 20 -31 37 -38 18 -7 37 -5 59
7 6 3 15 8 21 10 6 3 12 6 14 7 3 3 41 19 45 19 3 0 13 9 16 14 4 9 5 27 2 34
-2 3 -3 10 -3 16 0 16 7 22 26 20 8 -1 11 -3 18 -13 3 -6 7 -12 9 -14 1 -2 12
-9 23 -16 19 -10 22 -13 34 -28 6 -9 14 -19 16 -23 2 -3 5 -7 6 -9 1 -1 6 -8
11 -16 10 -17 17 -21 34 -21 7 0 13 1 15 3 11 10 84 42 200 87 29 12 36 22 33
53 -1 17 -1 18 14 36 13 15 16 27 13 52 -1 11 -2 26 -3 33 -3 30 -12 42 -33
45 -9 1 -55 -11 -58 -16 -1 -1 -2 -1 -2 1 0 1 -1 2 -3 2 -7 0 -9 7 -9 26 1 11
1 38 1 61 l0 42 6 6 6 6 20 -1 c11 0 25 1 31 2 25 5 37 9 40 11 2 2 4 2 5 2 0
-1 4 0 8 1 5 2 7 3 8 9 2 11 -1 33 -4 34 -2 0 -3 4 -3 8 0 13 16 20 26 10 5
-5 6 -17 1 -18 -2 -1 -3 -5 -3 -18 0 -16 4 -25 14 -32 2 -2 6 -11 10 -21 6
-16 17 -36 22 -38 1 0 4 -2 7 -5 4 -4 20 -13 25 -14 26 -4 34 -19 27 -48 -2
-8 -4 -15 -5 -16 -1 -1 -8 -10 -14 -19 -7 -9 -13 -17 -14 -18 -1 -1 -6 -7 -12
-14 -6 -7 -17 -19 -24 -27 -15 -15 -17 -21 -15 -35 1 -9 8 -15 24 -20 15 -4
20 -10 14 -19 -2 -4 -5 -5 -16 -6 -30 -3 -48 -12 -54 -26 -3 -7 -4 -28 -1 -29
0 -1 5 -7 10 -14 5 -7 10 -13 10 -14 1 -1 5 -6 9 -13 4 -7 9 -14 12 -17 2 -3
6 -9 8 -13 13 -26 17 -32 22 -35 8 -5 23 -7 30 -4 10 4 45 32 48 40 5 11 4 29
-2 43 -4 9 -2 23 4 30 7 9 26 11 39 4 7 -4 30 -4 37 1 6 3 37 41 54 67 12 19
9 38 -8 48 -14 8 -32 11 -55 9 -20 -3 -20 -3 -25 2 -5 5 -5 6 -4 19 1 8 2 24
2 35 0 23 2 28 10 28 5 0 12 -8 10 -13 -1 -4 9 -22 15 -24 6 -3 26 -4 29 -1 6
6 28 2 38 -8 7 -7 8 -7 21 -7 8 0 14 0 14 1 0 1 1 2 3 2 1 -1 2 0 2 2 -1 1 0
2 1 2 3 0 1 26 -4 37 -2 6 -3 13 -3 17 1 10 6 14 31 26 14 6 24 19 31 36 3 8
6 17 7 19 1 2 4 10 6 17 6 17 8 22 11 21 2 -1 3 -2 2 -3 -1 -1 0 -2 1 -2 1 -1
4 -7 8 -15 6 -13 7 -15 21 -24 10 -6 16 -12 17 -16 4 -8 3 -23 -1 -30 -3 -7
-4 -7 -29 -15 -16 -5 -28 -15 -32 -25 -4 -9 -10 -39 -10 -48 0 -15 8 -27 20
-34 7 -4 13 -4 124 -4 l117 0 6 -6 6 -6 0 -42 c0 -23 1 -45 2 -48 1 -3 2 -7 2
-8 0 -2 0 -2 1 -2 1 1 2 0 2 -1 0 -1 6 -1 15 -1 l15 2 0 -12 0 -12 -15 2 c-9
0 -15 0 -15 -1 0 -1 -1 -2 -2 -1 -1 0 -1 0 -1 -2 0 -1 -1 -5 -2 -8 -4 -13 -3
-75 0 -84 4 -9 14 -21 18 -21 2 0 3 -1 3 -2 0 -3 11 -3 90 -3 79 0 90 0 90 3
0 1 1 2 3 2 4 0 14 12 18 21 2 6 3 16 3 49 0 55 -2 59 -32 73 -17 8 -20 11
-20 23 0 14 -5 31 -13 45 -10 16 -10 28 -2 37 8 8 13 8 43 3 l21 -4 24 13 c13
6 28 12 33 13 11 2 23 7 29 12 11 10 12 43 3 66 -2 4 -3 5 -4 3 -1 -2 -2 -2
-2 -1 0 2 -4 2 -13 2 l-13 -1 0 7 0 7 13 -1 c9 0 13 0 13 2 0 1 1 1 2 -1 1 -2
2 -1 4 3 4 11 5 16 5 36 -1 32 -1 40 -1 45 1 8 -4 22 -8 26 -2 2 -3 4 -3 4 4
0 -7 8 -14 10 -4 1 -9 3 -10 3 -2 2 -43 2 -43 1 0 -1 -3 1 -6 5 l-7 6 0 68 0
68 7 6 c3 4 8 7 9 7 6 0 15 11 19 25 2 7 3 13 2 13 -5 0 -2 16 6 30 1 2 4 6 5
10 2 4 6 9 8 11 6 6 8 10 14 36 6 25 7 71 2 84 -4 9 -14 21 -18 21 -2 0 -3 1
-3 2 0 2 -8 3 -25 3 -12 0 -14 1 -20 6 -3 3 -6 7 -5 7 0 1 -2 7 -5 13 -5 10
-14 19 -31 30 -10 6 -14 27 -8 40 3 4 24 21 28 21 0 0 1 7 0 15 l-1 16 -13 10
c-7 5 -13 11 -14 13 -3 26 -3 28 3 33 3 3 7 5 11 5 3 0 12 0 20 0 24 0 27 2
65 41 37 37 39 38 36 56 -1 10 -7 16 -22 24 -16 8 -35 19 -39 22 -3 2 -13 8
-22 12 -4 2 -15 5 -24 7 -20 5 -25 9 -35 25 -4 6 -9 14 -11 17 -8 8 -30 26
-32 26 -5 0 8 10 15 11 3 0 11 1 19 1 15 0 28 4 56 19 22 12 30 19 34 32 5 15
6 163 1 174 -4 9 -14 21 -18 21 -2 0 -3 1 -3 2 0 2 0 2 -32 4 -26 1 -28 1 -33
6 l-4 5 7 11 c5 7 8 12 8 13 0 0 4 7 8 14 5 8 9 16 10 18 1 2 4 7 6 10 8 14
46 79 46 80 0 1 3 6 6 11 11 18 8 39 -6 51 -8 6 -28 16 -45 22 -7 3 -27 10
-45 17 -18 6 -42 15 -54 19 -12 4 -23 8 -25 9 -14 5 -17 6 -24 6 -20 -2 -30
-12 -40 -42 -10 -29 -9 -45 4 -57 6 -6 8 -6 12 -2 1 2 5 3 7 3 4 0 17 8 20 12
1 1 5 5 11 9 17 13 35 8 35 -11 0 -12 -4 -15 -25 -21 -10 -2 -24 -6 -31 -8
-11 -4 -14 -4 -18 -2 -6 3 -31 3 -38 -1 -5 -3 -8 -8 -17 -29 -4 -10 -10 -25
-13 -33 -4 -8 -7 -17 -8 -20 -1 -4 -2 -4 -2 -1 0 2 -1 3 -2 2 -1 -1 -3 2 -5 5
-3 5 -3 17 -3 83 0 94 0 93 -21 116 -25 25 -34 29 -64 31 -30 1 -37 -1 -46 -8
-7 -7 -14 -26 -13 -38 1 -12 -13 -20 -24 -15 -8 4 -10 8 -10 15 0 4 -1 13 -3
20 -6 21 -19 28 -43 25 -6 -1 -12 -1 -13 -1 -2 -1 -3 -1 -3 -2 0 -1 -1 -2 -3
-2 -3 0 -14 -12 -17 -19 -2 -5 -3 -29 -4 -103 l-1 -97 -5 -7 c-5 -5 -6 -6 -6
-2 0 2 -4 11 -8 20 -4 9 -9 21 -12 26 -6 13 -17 33 -33 61 -2 2 -4 6 -5 8 -1
2 -3 5 -5 7 -1 1 -6 8 -10 16 -23 41 -39 49 -75 35 -27 -10 -79 -30 -92 -36
-11 -6 -22 -18 -26 -29 -1 -4 -4 -14 -7 -22 -8 -23 -9 -35 -2 -48 7 -16 10
-19 35 -32 l23 -12 0 -20 c0 -14 1 -23 3 -26 6 -12 21 -20 34 -20 19 1 26 -4
26 -21 0 -17 -7 -23 -26 -21 -2 0 -14 5 -27 12 l-22 11 -23 -1 c-28 -2 -28 -2
-28 -4 0 -1 -1 -2 -3 -2 -3 0 -13 -11 -17 -17 -1 -3 -2 -14 -2 -26 l-1 -22 -1
21 c-1 12 -1 20 -2 19 0 -2 -5 5 -5 9 -1 2 -2 13 -2 25 -1 24 -4 38 -8 44 -4
7 -11 25 -11 31 0 5 7 25 11 30 1 2 2 7 1 19 0 4 -12 17 -15 17 -2 0 -3 1 -3
2 0 1 -1 2 -1 2 -1 -1 -5 0 -8 1 -4 1 -13 0 -25 -3 -23 -5 -31 -5 -55 0 -14 3
-23 4 -39 4 -25 -1 -34 -5 -48 -22 -11 -13 -18 -17 -31 -17 -22 0 -33 13 -56
70 -14 32 -29 66 -31 67 -1 0 -2 1 -2 2 0 1 -2 5 -5 9 -2 3 -10 17 -17 31 -6
14 -14 27 -17 30 -12 10 -29 13 -45 6z m818 -109 c4 -4 4 -4 0 -8 l-5 -5 -4 4
c-5 4 -5 5 -2 8 4 5 7 5 11 1z m-207 -19 c10 -9 4 -24 -9 -24 -8 0 -14 6 -14
14 0 12 14 18 23 10z m233 -51 c17 -8 42 -32 44 -42 4 -18 -3 -32 -17 -35 -18
-4 -28 1 -37 18 -8 16 -17 28 -27 34 -12 8 -16 19 -9 26 7 8 30 7 46 -1z
m-280 -13 c12 -7 15 -26 4 -36 -5 -6 -7 -7 -16 -7 -7 0 -11 2 -14 4 -2 2 -4 3
-5 3 -3 0 -7 6 -7 10 0 7 6 20 11 24 6 6 19 6 27 2z m-824 -75 l-5 -5 -4 4 -5
5 4 4 5 5 4 -4 5 -5 -4 -4z m175 0 c6 -4 6 -6 6 -20 0 -14 0 -16 -6 -20 -4 -4
-7 -5 -18 -5 -11 0 -14 1 -18 5 -6 4 -6 6 -6 20 0 14 0 16 6 20 4 4 7 5 18 5
11 0 14 -1 18 -5z m1079 -5 c7 -3 8 -3 9 -1 1 3 2 2 6 -1 6 -6 8 -6 28 -6 17
0 27 -4 27 -11 0 -1 3 -8 6 -14 l5 -11 -4 -5 c-3 -2 -9 -6 -13 -8 -4 -2 -10
-5 -13 -6 -35 -18 -48 -17 -75 1 -3 2 -10 6 -16 9 -16 8 -20 13 -20 26 0 13 6
21 15 21 3 0 11 2 18 5 15 6 17 6 27 1z m-267 -42 c1 -1 1 -2 0 -2 -1 0 -3 -3
-5 -6 -2 -5 -3 -6 -5 -4 -1 1 -3 2 -4 2 -2 0 -5 2 -8 5 -4 5 -5 5 -1 5 6 0 14
6 14 10 0 2 1 0 3 -3 2 -3 4 -7 6 -7z m-321 -87 c0 2 4 -4 6 -9 0 -2 1 -32 1
-68 1 -71 2 -75 14 -87 3 -4 7 -7 8 -7 2 0 3 -1 3 -2 0 -2 1 -2 55 -4 49 -1
53 -2 59 -8 3 -2 3 -3 -1 -7 -2 -2 -7 -7 -10 -11 -3 -4 -7 -8 -9 -9 -6 -3 -7
-28 -2 -30 4 -2 14 -2 14 -1 0 1 1 1 3 1 1 -1 8 1 15 4 7 3 14 5 15 5 5 0 12
-9 18 -21 3 -6 10 -16 16 -22 13 -13 16 -17 16 -30 -1 -19 -8 -27 -27 -28 -16
0 -22 4 -28 18 -3 7 -6 14 -6 15 0 3 -8 12 -10 11 -1 -1 -2 0 -2 1 0 2 -5 3
-20 5 -6 1 -12 3 -13 4 -20 19 -21 20 -34 20 -12 1 -13 0 -21 -7 -5 -4 -17
-12 -27 -18 -10 -6 -20 -13 -22 -15 l-4 -4 -5 6 c-5 5 -5 8 -6 36 -1 26 -2 32
-7 45 -3 8 -5 18 -5 23 0 7 8 35 11 38 2 3 1 17 -1 25 l-3 8 -16 0 c-12 0 -17
1 -18 3 0 1 -1 0 -1 -2 0 -2 -2 -8 -4 -13 -2 -4 -4 -9 -4 -11 0 -6 -6 -14 -12
-17 -19 -8 -42 2 -42 17 0 6 -12 29 -18 34 -10 8 -18 9 -64 9 l-43 -1 -6 6
c-6 6 -6 7 -6 20 1 16 -5 35 -10 35 -5 0 10 14 16 15 3 1 14 1 24 0 19 -2 172
-3 182 -1 3 0 5 2 5 2 0 1 1 2 3 2 3 0 13 11 17 17 1 3 2 17 2 33 l1 29 1 -28
c1 -15 1 -27 2 -26z m-626 43 c4 -5 9 -10 10 -11 2 -2 -5 -17 -8 -17 -1 0 -2
-1 -2 -3 0 -2 -2 -3 -4 -3 -4 0 -4 -1 -2 -2 5 -2 4 -20 -2 -26 -13 -13 -14
-19 -4 -21 3 -1 4 -2 3 -3 -6 -3 -9 -18 -9 -33 1 -16 1 -16 -5 -22 -4 -3 -8
-6 -9 -6 -1 0 -5 3 -9 6 l-6 6 0 25 c0 18 1 25 3 27 4 3 8 15 8 31 1 11 2 15
4 16 2 1 2 2 -1 2 -6 0 -9 8 -9 20 0 15 7 22 23 22 11 0 12 0 19 -8z m64 -3
c2 -2 4 -6 5 -9 2 -6 2 -4 4 -17 2 -11 8 -25 12 -26 3 -1 1 -8 -4 -11 -1 -1
-2 -2 -1 -3 2 -5 -10 -11 -22 -10 -14 1 -26 11 -18 16 1 1 2 2 1 4 0 1 1 3 3
4 4 4 5 34 1 41 -3 4 -3 5 1 10 6 6 13 7 18 1z m1339 1 c3 -1 5 -3 4 -3 0 -1
1 -3 3 -4 2 -2 3 -6 3 -18 0 -14 0 -16 -6 -20 -4 -4 -7 -5 -18 -5 -11 0 -14 1
-18 5 -6 4 -6 6 -6 20 0 13 1 16 4 19 7 7 24 10 34 6z m-706 -31 c5 -8 1 -16
-8 -16 -9 0 -13 8 -8 16 2 3 5 5 8 5 3 0 6 -2 8 -5z m357 -9 c5 -5 5 -11 0
-16 -10 -10 -27 5 -16 16 4 4 12 4 16 0z m101 -29 c3 -3 3 -4 0 -19 -2 -8 -4
-18 -5 -21 -1 -3 -2 -13 -2 -22 0 -16 0 -18 -6 -23 -6 -6 -7 -6 -18 -6 -11 0
-12 0 -18 6 -5 5 -6 7 -6 17 0 11 4 23 8 23 3 0 15 19 20 29 9 20 18 25 27 16z
m-961 -6 c4 -2 8 -4 8 -5 0 -1 2 -2 4 -2 2 0 2 -1 1 -2 -6 -3 -9 -18 -9 -33 1
-16 1 -16 -5 -22 -7 -7 -13 -8 -17 -2 -2 3 -4 3 -15 2 -6 -1 -14 -2 -17 -3 -3
-1 -5 -2 -5 -2 0 1 -2 -1 -5 -3 -3 -2 -4 -3 -5 -1 0 2 -1 2 -1 0 0 -11 -29
-14 -39 -5 -6 4 -6 6 -6 20 0 19 2 22 15 25 13 3 30 -2 30 -10 0 -2 1 -2 2 -1
1 2 6 3 14 3 11 -1 13 0 17 5 4 4 5 7 4 12 -1 3 -2 7 -2 8 0 3 -3 6 -7 8 -3 1
-3 1 0 1 2 0 7 2 13 5 11 6 14 6 25 2z m1289 -25 c10 -9 3 -26 -10 -26 -8 0
-15 7 -15 15 0 13 16 20 25 11z m-228 -3 c3 -3 3 -3 0 -6 -4 -5 -11 1 -7 6 4
4 4 4 7 0z m-223 -65 c1 0 5 -3 8 -6 5 -5 6 -7 6 -18 0 -11 -1 -13 -6 -18 -3
-3 -7 -6 -9 -6 -13 -1 -20 1 -34 7 -18 9 -31 10 -41 4 -21 -12 -41 -15 -49 -6
-7 7 -7 25 0 32 6 6 21 8 43 6 23 -2 41 -1 54 3 7 1 16 3 19 3 3 -1 7 -1 9 -1z
m-1170 -22 c8 -3 16 -9 16 -14 0 -10 -26 -19 -52 -18 -11 0 -18 19 -11 30 6 8
26 8 47 2z m1372 -4 c11 -6 15 -12 15 -26 0 -19 -8 -27 -28 -27 -14 0 -20 5
-24 16 -11 31 9 51 37 37z m-1062 -10 c3 -3 4 -8 4 -18 0 -16 6 -35 14 -46 7
-8 11 -24 8 -31 -3 -6 -9 -13 -12 -13 -2 -1 -8 -6 -13 -11 -10 -10 -21 -17
-28 -17 -4 0 -11 8 -11 13 0 4 5 18 11 26 10 16 13 22 13 26 0 9 -8 29 -15 38
-7 10 -9 23 -5 31 5 10 27 11 34 2z m800 -64 c5 -5 5 -11 0 -16 -10 -10 -27 5
-16 16 4 4 12 4 16 0z m-1073 -19 c4 -4 5 -7 5 -15 0 -14 -6 -20 -20 -20 -14
0 -20 6 -20 20 0 14 6 20 20 20 8 0 11 -1 15 -5z m77 -10 l-5 -5 -4 4 -5 5 4
4 5 5 4 -4 5 -5 -4 -4z m1101 1 c5 -5 6 -7 6 -16 0 -15 -8 -23 -23 -23 -9 0
-11 1 -16 7 -9 8 -9 23 -1 32 9 9 24 9 34 0z m131 -15 c7 -7 8 -39 2 -45 -2
-2 -3 -4 -2 -4 2 0 2 -1 1 -1 0 -1 -2 0 -4 1 -2 1 -3 2 -3 1 0 -1 -2 1 -5 3
-2 3 -6 6 -9 8 -12 8 -15 14 -14 28 1 15 23 20 34 9z m-784 -18 l-5 -5 -4 4
-5 5 4 4 5 5 4 -4 5 -5 -4 -4z m-181 -2 c3 -5 3 -5 0 -10 -5 -6 -11 -6 -15 1
-3 5 -3 6 1 10 5 5 9 5 14 -1z m1238 -28 c3 -3 3 -3 0 -6 -4 -5 -11 1 -7 6 4
4 4 4 7 0z m-1495 -3 c3 -2 9 -8 14 -13 5 -5 13 -11 18 -13 22 -11 25 -15 28
-40 5 -38 5 -46 0 -51 -6 -6 -18 -7 -22 -1 -5 5 -47 5 -51 -1 -2 -2 -3 -3 -3
-2 0 1 -3 2 -6 2 -43 -4 -47 -4 -51 2 -3 4 -3 5 0 6 2 1 3 3 3 4 0 1 5 5 12 8
22 10 26 19 26 52 0 29 3 42 9 47 7 5 16 5 23 0z m1264 -35 c14 -11 23 -23 31
-38 2 -4 4 -7 5 -7 1 0 2 -1 2 -3 0 -3 51 -55 54 -55 6 0 -12 -12 -27 -18 -26
-10 -42 -26 -47 -44 -1 -6 -2 -25 -2 -52 l1 -43 -6 -6 -6 -6 -78 0 -77 1 -22
11 c-18 9 -25 11 -56 18 -45 10 -55 11 -67 6 -10 -4 -22 -15 -28 -26 -10 -18
-31 -17 -44 2 -3 5 -9 12 -13 15 -15 12 -16 16 -8 53 6 32 6 33 3 44 -3 9 -5
13 -16 24 -7 7 -13 13 -13 15 0 1 4 5 8 9 15 14 19 30 13 50 -6 19 -3 36 7 41
3 2 11 2 26 1 17 -1 23 -1 30 2 10 3 18 10 18 15 0 8 11 -13 12 -22 0 -5 1 -9
1 -10 3 -5 9 -31 9 -40 0 -6 -2 -17 -4 -25 -6 -19 -8 -61 -3 -74 4 -9 14 -21
18 -21 2 0 3 -1 3 -2 0 -3 12 -3 108 -3 96 0 108 0 108 3 0 1 1 2 3 2 4 0 14
12 18 21 4 11 4 26 -3 47 -6 22 -6 25 1 48 4 15 5 21 5 54 1 37 1 37 6 39 4 3
5 2 10 -6 3 -4 12 -13 20 -20z m-1057 13 l6 -5 0 -41 0 -41 -6 -6 c-4 -3 -8
-6 -10 -6 -2 0 -6 3 -10 6 l-6 6 0 41 0 41 6 6 c7 7 11 7 20 -1z m218 1 l6 -6
0 -41 0 -41 -6 -6 c-5 -5 -8 -6 -16 -6 -8 -1 -23 -9 -31 -17 -8 -8 -24 -10
-31 -4 -10 9 -3 30 9 27 2 0 4 0 4 1 0 1 3 2 6 3 12 2 23 10 28 20 4 8 4 11 4
36 l-1 28 6 5 c8 7 14 7 22 1z m292 1 c10 -9 3 -26 -10 -26 -8 0 -15 7 -15 15
0 13 16 20 25 11z m-91 -26 c4 -4 6 -9 9 -21 3 -20 10 -35 24 -50 17 -19 20
-33 14 -67 -5 -32 -10 -59 -16 -88 -4 -19 -8 -39 -9 -43 -1 -4 -2 -7 -2 -5 0
4 -3 2 -5 -2 -1 -3 -1 -6 -1 -6 0 -1 -1 -2 -1 -2 -3 0 -2 -12 1 -19 5 -13 9
-20 21 -31 18 -19 15 -31 -11 -36 -16 -3 -23 -7 -31 -15 -7 -8 -9 -13 -9 -27
0 -15 3 -22 14 -38 14 -20 16 -25 16 -37 0 -10 -1 -12 -6 -17 -3 -3 -7 -6 -9
-6 -9 -1 -15 0 -20 1 -3 0 -7 1 -8 1 -3 0 -8 7 -13 22 -6 15 -16 28 -21 28 -2
0 -3 1 -3 2 0 2 -2 2 -36 3 -46 1 -43 -1 -43 20 l0 18 -8 4 c-8 5 -15 7 -28 8
-13 2 -19 9 -20 27 -2 23 -11 37 -33 53 -8 5 -9 11 -5 18 11 17 42 17 54 0 2
-3 3 -7 2 -9 -1 -2 -1 -4 0 -4 1 0 2 -6 1 -13 0 -9 0 -13 3 -16 2 -1 3 -4 3
-5 0 -2 1 -2 1 -1 1 1 5 2 11 2 7 -1 11 0 13 3 2 2 5 4 7 5 2 0 2 1 1 1 -1 0
-2 5 -2 10 0 7 -1 11 -3 12 -3 2 -3 2 0 2 2 0 7 2 11 5 8 4 11 4 63 5 59 2 60
2 60 4 0 1 1 2 3 2 1 0 6 3 9 8 4 4 7 7 8 7 0 -1 1 0 1 1 0 0 1 3 2 6 1 3 1 5
1 6 -1 0 0 1 2 2 2 1 2 2 1 4 -1 0 -2 4 -3 8 0 14 -7 27 -18 33 -8 4 -22 9
-27 9 -2 0 -6 2 -9 5 -6 6 -6 24 -1 41 4 14 1 29 -10 48 -12 19 -9 41 5 51 2
1 6 6 8 10 5 8 6 15 4 48 0 8 0 10 5 15 9 9 25 9 33 0z m431 -19 c3 -2 7 -7 8
-11 2 -4 5 -10 6 -13 2 -4 3 -7 3 -8 0 -2 8 -14 16 -25 19 -24 7 -55 -21 -53
-18 1 -23 6 -29 28 -2 9 -9 25 -14 37 -11 22 -12 29 -5 39 6 10 26 13 36 6z
m-778 -68 c5 -8 1 -16 -8 -16 -9 0 -13 8 -8 16 2 3 5 5 8 5 3 0 6 -2 8 -5z
m-261 -40 l-5 -5 -4 4 -5 5 4 4 5 5 4 -4 5 -5 -4 -4z m424 -26 c8 -3 20 -9 26
-11 14 -6 20 -11 20 -19 0 -12 -6 -15 -28 -15 -19 1 -38 -5 -38 -10 0 -3 -16
-10 -23 -10 -4 0 -8 2 -11 5 -11 11 2 59 18 66 9 4 20 2 36 -6z m925 -11 c7
-6 7 -19 1 -25 -6 -7 -19 -7 -25 -1 -7 6 -7 19 -1 25 6 7 19 7 25 1z m-1356
-30 c11 -11 4 -42 -13 -57 l-9 -9 -4 6 c-2 3 -4 5 -5 6 -4 4 -9 30 -8 42 1 18
25 26 39 12z m134 -70 c7 -4 22 -12 33 -18 12 -6 24 -12 28 -15 10 -7 25 -11
44 -11 14 0 18 -1 26 -5 4 -3 10 -5 12 -5 2 0 2 -1 -1 -2 -9 -3 -10 -12 -11
-72 -1 -51 -1 -58 -5 -65 -2 -4 -4 -10 -5 -13 -2 -5 -2 -5 -2 0 0 4 -7 12 -11
12 -2 0 -3 1 -3 2 0 2 -9 3 -38 3 l-27 0 -6 6 -6 6 1 51 c0 55 -1 61 -11 72
-19 20 -40 13 -68 -23 -7 -9 -15 -13 -28 -12 -14 1 -26 7 -32 17 -7 10 -12 12
-29 12 -13 -1 -15 -2 -19 -6 -7 -11 -5 -34 4 -44 11 -12 15 -30 9 -37 -6 -7
-24 -19 -27 -18 -7 5 -14 13 -18 23 -5 10 -6 13 -6 40 l0 30 -6 6 c-11 12 -20
14 -44 13 -20 -1 -21 -1 -26 4 -7 7 -7 23 0 30 7 8 22 7 33 -1 18 -14 36 -16
53 -7 13 7 18 6 23 -1 9 -13 30 -18 44 -10 11 7 24 12 29 13 5 1 24 8 28 11 1
1 6 6 12 10 19 16 30 17 50 4z m685 -4 c5 -5 6 -7 6 -17 0 -16 -7 -23 -23 -23
-10 0 -12 1 -17 6 -5 5 -6 7 -6 17 0 16 7 23 23 23 10 0 12 -1 17 -6z m-120
-10 c5 -5 5 -11 0 -16 -7 -7 -21 -1 -20 9 2 10 13 14 20 7z m615 -30 c7 -6 7
-19 1 -25 -6 -7 -19 -7 -25 -1 -7 6 -7 19 -1 25 6 7 19 7 25 1z m73 -27 c6 -2
27 -24 32 -33 3 -3 4 -9 4 -17 0 -10 -1 -12 -6 -17 -3 -3 -7 -6 -9 -6 -28 -2
-32 2 -35 38 -3 34 0 43 14 35z m-271 -36 c21 -2 28 -7 28 -23 0 -11 -8 -22
-16 -22 -7 0 -28 -11 -32 -17 -2 -3 -2 -5 -2 -5 1 0 1 -1 0 -2 -1 0 -3 -5 -5
-10 -2 -7 -2 -9 4 -21 3 -7 8 -14 10 -16 3 -2 4 -3 2 -3 -3 0 -5 -8 -3 -14 2
-6 24 -6 27 0 2 5 19 12 29 12 12 1 43 -4 44 -7 1 -3 22 -4 25 -2 2 1 8 2 15
2 6 1 13 1 15 2 1 0 2 0 2 -1 0 -1 3 -4 7 -6 4 -3 6 -5 6 -6 0 -1 2 -11 6 -24
8 -25 8 -32 1 -40 -7 -7 -11 -25 -9 -42 3 -33 1 -41 -14 -42 -11 0 -18 6 -18
19 -1 19 -7 27 -30 38 -8 4 -16 9 -17 11 -2 5 -2 26 0 26 1 0 2 2 3 4 1 2 6 4
13 7 18 5 18 5 18 23 0 14 -1 15 -5 17 -7 3 -24 -1 -31 -7 -13 -12 -33 -12
-46 0 -4 3 -8 6 -9 6 -2 0 -3 1 -3 2 0 1 -6 2 -14 2 -11 0 -14 -1 -16 -3 -2
-5 -5 -18 -5 -29 0 -11 -4 -17 -11 -15 -2 0 -8 -1 -13 -2 -11 -3 -13 -2 -18
14 -3 8 -6 14 -7 14 -2 0 -4 1 -4 1 -1 0 -3 0 -3 0 -2 0 -11 13 -10 13 1 0 0
3 -1 8 -1 5 -1 9 1 13 2 3 4 8 6 11 1 3 5 10 8 15 8 14 8 22 -2 51 -5 14 -5
17 -3 25 3 11 5 14 15 20 8 5 23 6 62 3z m-141 -11 l6 -5 -1 -42 c-1 -46 -2
-51 -13 -55 -9 -4 -24 -3 -32 1 -5 3 -12 4 -24 4 -20 0 -35 -6 -48 -19 -8 -8
-9 -12 -5 -46 2 -17 -3 -24 -17 -24 -11 0 -17 2 -28 11 -11 10 -16 11 -30 11
-19 -1 -21 8 -9 37 11 27 21 55 20 55 -1 0 2 3 6 6 6 5 10 6 16 6 5 0 18 3 28
6 28 10 30 10 44 7 7 -2 14 -3 17 -2 3 0 7 1 9 1 2 0 6 3 10 7 6 5 7 9 10 22
4 20 8 25 24 25 10 0 12 -1 17 -6z m535 -3 c3 -3 3 -3 0 -6 -4 -5 -11 1 -7 6
4 4 4 4 7 0z m-1047 -71 c1 0 2 -1 1 -2 -1 -1 0 -2 1 -2 5 0 -3 -8 -11 -12 -8
-4 -8 -4 -12 0 -5 4 -5 5 -2 9 4 6 10 9 16 8 2 0 5 -1 7 -1z m-515 -35 c1 -4
0 -10 -3 -16 -3 -6 -5 -12 -6 -14 -1 -3 -2 -3 -2 -1 0 3 -12 12 -12 9 0 -1 -2
0 -3 1 -2 1 -10 2 -17 3 -17 2 -22 6 -22 19 0 14 6 20 18 20 19 -1 21 -1 29 1
5 1 7 2 7 5 0 4 10 -19 11 -27z m202 -13 c4 -6 4 -24 -1 -30 -7 -9 -27 -9 -34
0 -5 6 -5 24 0 30 7 9 27 9 35 0z m856 -29 c10 -11 -9 -27 -19 -17 -5 5 -5 11
1 17 7 6 13 6 18 0z m-1109 -28 c3 -3 4 -7 4 -14 0 -11 -4 -17 -16 -21 -5 -1
-18 -7 -30 -12 -11 -6 -22 -10 -23 -10 -5 1 -11 7 -11 11 0 5 6 15 10 16 2 1
4 2 4 3 0 1 2 2 4 3 2 1 10 7 18 15 9 8 17 14 20 14 9 1 16 0 20 -5z m1462 2
c9 -4 15 -14 21 -38 6 -23 6 -33 1 -38 -8 -9 -20 -6 -39 10 -18 15 -22 20 -26
32 -5 17 -5 16 0 23 10 12 29 16 43 11z m-1075 -21 c5 -3 10 -6 11 -6 3 0 12
-10 14 -14 1 -3 2 -11 2 -18 0 -9 1 -18 5 -28 5 -14 5 -18 5 -42 0 -24 0 -29
-3 -33 -4 -5 -10 -7 -12 -2 -1 2 -3 2 -14 0 -22 -4 -27 -13 -27 -44 0 -25 -5
-71 -8 -77 -1 -2 -2 -8 -3 -14 -1 -6 -1 -13 -2 -16 0 -3 -1 -7 -2 -10 -3 -19
-12 -28 -29 -29 -19 0 -29 9 -29 28 0 13 10 32 14 28 0 -1 3 0 5 2 2 3 3 6 2
17 0 18 -1 19 -9 14 -4 -3 -8 -4 -10 -3 -2 0 -3 0 -3 -1 0 0 -3 -1 -7 -2 -5 0
-8 0 -9 -1 0 0 -3 2 -6 5 l-5 5 -1 64 -1 64 6 6 6 6 27 0 c29 0 38 1 38 3 0 1
1 2 3 2 3 0 11 7 11 10 0 2 1 2 1 0 1 -1 2 -2 3 -1 1 1 3 -1 3 -5 1 -3 2 -6 3
-6 1 0 2 -1 1 -2 -2 -3 2 -8 6 -8 1 0 2 1 2 3 0 2 -1 3 -2 2 -4 -1 -5 1 -3 6
1 3 1 5 -1 7 -1 1 -2 15 -2 40 0 37 0 40 5 48 2 5 4 11 4 13 0 3 1 3 1 0 1 -3
5 -8 10 -11z m-247 -44 c5 -5 5 -15 0 -20 -9 -9 -24 -2 -24 10 0 8 6 14 14 14
3 0 8 -2 10 -4z m1087 -13 c3 -3 3 -3 0 -6 -4 -5 -11 1 -7 6 4 4 4 4 7 0z
m-1158 -47 c1 -7 -5 -28 -10 -34 -4 -5 -7 -22 -8 -58 -1 -30 -2 -43 -8 -75 -4
-24 -24 -69 -28 -65 -3 3 -2 28 2 44 5 24 19 121 22 156 1 16 3 30 4 42 1 5 4
12 7 16 l5 8 6 -14 c4 -7 7 -17 8 -20z m983 17 l-5 -5 -4 4 -5 5 4 4 5 5 4 -4
5 -5 -4 -4z m596 -35 c6 -6 6 -18 0 -26 -3 -3 -6 -6 -7 -6 -3 0 -5 -7 -5 -19
0 -12 3 -23 7 -23 7 0 12 -19 6 -25 -4 -4 -14 -4 -17 0 -1 2 -3 3 -4 3 -1 0
-6 4 -11 9 -5 5 -12 9 -15 10 -3 0 -9 4 -15 7 -9 6 -10 8 -11 15 0 7 1 9 7 15
16 16 28 28 35 35 11 12 20 13 30 5z m-777 -25 c3 -3 3 -3 0 -6 -4 -5 -11 1
-7 6 4 4 4 4 7 0z m-751 -7 c8 -7 2 -19 -8 -19 -11 0 -15 13 -6 19 6 5 9 4 14
0z m1337 -6 c7 -3 12 -13 12 -25 0 -11 -4 -18 -14 -30 -5 -6 -7 -10 -16 -30
-6 -13 -10 -16 -20 -14 -17 2 -19 12 -12 44 2 12 5 26 6 32 2 17 7 22 22 26 5
1 14 -1 22 -3z m-1020 -119 c13 -13 1 -35 -17 -31 -21 5 -18 36 4 36 6 0 9 -1
13 -5z m118 -22 c4 -4 5 -7 5 -15 0 -14 -6 -20 -20 -20 -14 0 -20 6 -20 20 0
14 6 20 20 20 8 0 11 -1 15 -5z m-100 -54 c3 -2 5 -7 10 -43 1 -4 2 -10 3 -13
4 -18 -5 -32 -22 -32 -9 0 -11 1 -16 6 -8 8 -8 14 -3 42 1 2 2 10 3 18 3 22 5
24 18 25 2 0 5 -1 7 -3z m-347 -32 c6 -7 5 -21 -5 -41 -9 -20 -15 -26 -27 -26
-14 0 -18 5 -16 20 2 14 14 40 21 47 8 7 20 7 27 0z m1336 -44 c6 -7 6 -22 -1
-28 -6 -7 -21 -7 -27 -2 -5 5 -6 27 0 32 7 6 21 5 28 -2z m-1281 -18 c3 -3 3
-3 0 -6 -4 -5 -11 1 -7 6 4 4 4 4 7 0z m647 -32 c8 -11 -2 -23 -14 -16 -5 3
-6 5 -6 9 2 11 14 15 20 7z"/>
</g>
</svg>
