<?xml version="1.0" standalone="no"?>
<!DOCTYPE svg PUBLIC "-//W3C//DTD SVG 20010904//EN"
 "http://www.w3.org/TR/2001/REC-SVG-20010904/DTD/svg10.dtd">
<svg version="1.0" xmlns="http://www.w3.org/2000/svg"
 width="1100.000000pt" height="2850.000000pt" viewBox="0 0 1100.000000 2850.000000"
 preserveAspectRatio="xMidYMid meet">
<metadata>
Created by potrace 1.15, written by Peter Selinger 2001-2017
</metadata>
<g transform="translate(0.000000,2850.000000) scale(0.500000,-0.500000)"
fill="#000000" stroke="none">
<path d="M1314 3814 c-3 -1 -6 -1 -7 0 0 0 -1 0 -1 -2 0 -1 -1 -2 -3 -2 -4 0
-14 -12 -18 -22 -6 -14 0 -37 13 -49 3 -3 7 -9 9 -13 3 -6 3 -7 0 -14 -2 -4
-6 -10 -9 -13 -4 -3 -8 -10 -11 -15 -4 -9 -4 -11 -5 -82 l0 -74 5 -11 c4 -9 8
-13 20 -22 16 -12 17 -14 17 -25 0 -11 -2 -14 -17 -25 -7 -5 -13 -10 -13 -11
-1 -2 -24 -12 -28 -12 -10 0 -25 -10 -30 -20 -3 -5 -3 -7 -7 -26 -4 -18 -9
-21 -27 -20 -10 1 -14 5 -18 20 -8 28 -15 37 -34 43 -8 3 -18 3 -74 2 -68 -1
-70 -1 -70 -3 0 -1 -1 -2 -3 -2 -4 0 -14 -12 -18 -21 -3 -7 -3 -18 -3 -82 l1
-74 -6 -6 c-6 -6 -7 -6 -27 -6 -20 0 -21 0 -27 6 l-6 6 1 46 c0 45 0 46 -4 55
-3 4 -8 10 -11 12 -3 1 -6 4 -7 5 0 0 -1 1 -2 0 -1 -1 -5 0 -8 2 -4 1 -8 2
-10 2 -3 0 -10 9 -10 15 0 6 6 11 17 14 16 4 26 11 31 21 4 8 4 12 4 55 l0 46
-8 21 c-10 27 -10 33 0 60 l8 21 0 54 c0 44 -1 55 -3 61 -4 9 -14 21 -18 21
-2 0 -3 1 -3 2 0 2 -2 2 -89 3 l-84 1 -9 -4 c-7 -4 -10 -7 -14 -16 -3 -5 -5
-11 -6 -13 0 -1 0 -4 -1 -6 0 -2 -1 -7 -1 -10 0 -3 -2 -8 -6 -11 -5 -5 -7 -6
-17 -6 -10 0 -12 1 -17 6 -4 3 -6 8 -6 11 0 3 -1 8 -1 10 -1 2 -1 5 -1 6 -1 2
-3 8 -6 13 -8 18 -14 20 -62 20 -24 0 -42 -1 -46 -2 -15 -5 -26 -20 -29 -41
-4 -20 -18 -24 -49 -14 -23 7 -28 10 -37 26 -16 28 -24 32 -62 31 -38 -2 -39
-2 -39 -23 0 -15 0 -15 -5 -16 -5 0 -5 0 1 -1 10 0 14 -6 14 -19 0 -13 -4 -19
-14 -21 -18 -4 -28 4 -28 21 0 13 4 19 14 19 6 1 6 1 2 1 -6 1 -6 1 -6 16 0
22 1 22 -56 23 l-42 0 -11 -5 c-6 -3 -11 -6 -11 -8 0 -1 -1 -3 -3 -4 -2 0 -3
-2 -3 -4 0 -1 -1 -5 -3 -9 -5 -9 -4 -35 1 -54 3 -11 2 -26 -2 -45 -6 -27 -6
-146 0 -166 3 -8 5 -15 6 -17 3 -3 3 -27 0 -30 -6 -9 -10 -31 -10 -63 0 -35 1
-42 12 -65 8 -15 9 -26 3 -36 -1 -4 -3 -8 -3 -9 0 -5 -20 -12 -37 -14 -30 -2
-51 -14 -59 -36 -4 -10 -4 -17 -4 -147 0 -126 0 -138 3 -146 l4 -9 15 -1 c8 0
15 -1 16 -1 0 -1 4 6 7 14 4 9 9 18 11 20 5 3 16 4 22 1 5 -3 12 -18 16 -33 3
-12 9 -26 11 -27 1 -1 4 -4 5 -7 2 -3 8 -9 13 -12 20 -13 23 -18 23 -28 0 -10
-4 -17 -16 -23 -12 -6 -21 -17 -25 -28 -3 -9 -3 -31 -3 -235 l0 -225 5 -11 c3
-6 8 -13 13 -17 24 -18 24 -30 2 -47 -16 -11 -21 -29 -13 -41 5 -8 23 -18 35
-19 18 -2 23 -8 22 -34 0 -35 -8 -57 -20 -57 -6 0 -26 -9 -32 -15 -10 -9 -12
-17 -12 -55 0 -21 1 -38 2 -42 5 -15 27 -28 41 -25 5 1 9 1 11 1 4 0 11 -10
13 -16 2 -10 15 -28 25 -33 9 -6 10 -6 40 -7 47 -1 56 3 76 32 5 6 9 12 10 12
1 0 5 5 10 10 14 17 14 23 14 100 l-1 67 -6 9 c-5 9 -15 17 -37 28 -5 2 -8 10
-8 21 0 13 3 19 15 25 5 3 11 7 13 8 2 2 4 3 4 3 0 -1 2 1 5 5 3 3 5 6 5 8 0
1 1 2 2 2 2 1 3 5 3 9 0 4 1 7 3 7 1 0 5 2 8 6 l5 5 115 0 115 0 6 -6 5 -7 0
-36 c0 -41 0 -42 13 -71 7 -15 7 -28 1 -42 -5 -11 -19 -31 -22 -31 -7 0 -31
-33 -33 -46 -2 -12 -14 -19 -33 -19 -8 0 -15 -1 -16 -2 -2 -1 -3 -2 -4 -2 -6
-1 -10 -5 -14 -12 -12 -25 5 -45 52 -64 23 -9 27 -9 62 -7 49 3 54 4 64 15 5
5 14 31 14 40 0 4 2 8 12 17 16 15 22 25 24 35 1 9 6 17 10 17 4 0 11 -10 9
-14 -1 -1 -2 -3 -2 -4 0 -1 -1 -2 -1 -4 -11 -28 -11 -32 0 -46 4 -5 9 -10 10
-10 0 0 3 -1 5 -1 16 -4 22 -3 32 4 16 12 17 14 19 19 4 8 7 25 7 29 -1 6 -1
13 -1 19 0 5 1 7 21 25 14 12 19 23 21 44 2 25 -1 34 -20 53 l-14 15 1 11 c0
10 9 32 16 40 4 5 13 23 16 33 4 13 4 149 1 162 -3 10 -11 21 -21 29 -11 9
-15 15 -15 27 0 12 4 18 15 27 14 12 23 27 23 43 0 8 -5 23 -11 29 -4 4 -27
16 -32 16 -2 0 -6 3 -9 6 -5 5 -6 7 -6 18 0 11 1 13 6 18 3 3 7 6 9 6 1 0 8 3
15 6 27 12 28 17 28 87 l-1 52 -6 11 c-3 6 -7 14 -10 16 -9 11 -13 20 -13 30
0 5 0 13 1 17 1 27 -15 48 -45 59 -9 3 -19 6 -23 6 -12 0 -18 15 -9 24 4 4 16
5 19 2 4 -4 35 -10 44 -9 23 3 29 0 40 -19 7 -10 10 -14 20 -20 7 -5 10 -5 33
-5 27 0 36 1 36 3 0 1 1 2 3 2 4 0 14 12 18 21 7 16 0 43 -13 53 -3 2 -6 5 -7
6 -4 3 -15 8 -27 11 -16 5 -29 11 -32 17 -1 3 -2 10 -1 18 0 11 1 13 6 17 5 5
7 5 29 5 30 -1 37 3 45 21 4 9 4 53 1 59 -2 3 -1 4 1 4 2 0 6 2 8 6 l3 5 35
-1 c30 0 38 0 52 4 22 5 28 5 50 0 15 -4 22 -4 58 -4 l40 1 6 -6 6 -6 0 -143
0 -143 -6 -6 -6 -6 -97 0 -97 0 -12 -5 c-15 -6 -27 -18 -33 -33 -4 -10 -4 -16
-4 -357 0 -367 0 -355 9 -371 1 -3 6 -9 9 -13 11 -12 13 -16 13 -28 0 -12 -2
-16 -13 -28 -16 -18 -22 -43 -15 -61 4 -9 14 -21 18 -21 2 0 3 -1 3 -2 0 -1 1
-2 3 -2 6 -2 179 -2 179 0 0 1 2 2 5 3 3 1 5 2 5 3 -1 0 0 3 1 6 2 3 2 9 2 15
0 6 1 9 3 10 2 0 1 1 -1 1 -9 0 -14 37 -7 50 4 6 7 7 18 4 29 -8 45 -6 59 8
l8 8 -2 17 c0 9 -2 20 -4 25 -5 12 -3 30 3 43 9 17 9 37 0 49 -4 5 -32 14 -44
14 -14 0 -21 16 -11 26 6 5 9 5 28 -1 9 -3 23 -6 33 -6 24 -2 26 -4 26 -27 -1
-21 1 -28 8 -41 10 -17 9 -34 -2 -57 -5 -11 -6 -33 -2 -40 3 -6 13 -15 23 -20
8 -5 8 -5 103 -5 l95 0 6 -6 c6 -6 6 -6 5 -22 0 -11 1 -18 3 -24 4 -9 14 -21
18 -21 2 0 3 -1 3 -2 0 -3 13 -3 134 -3 121 0 134 0 134 3 0 1 1 2 3 2 4 0 14
12 18 21 2 6 3 17 3 69 0 78 -1 80 -32 89 -21 6 -24 10 -21 22 1 5 4 7 21 12
16 5 24 10 28 20 4 8 4 14 4 129 0 113 0 122 -4 129 -4 10 -8 14 -21 18 -5 2
-11 5 -12 7 -2 2 -3 2 -3 0 0 -2 -1 -1 -3 1 -3 3 -3 3 0 6 2 2 3 3 3 1 0 -2 1
-2 3 0 1 2 7 5 12 7 25 9 25 10 25 97 0 45 -1 74 -2 77 -5 14 -28 25 -45 21
-14 -3 -23 5 -23 21 0 16 9 24 23 21 17 -4 40 7 45 21 3 8 2 38 -1 49 -3 12
-27 50 -37 59 -6 6 -8 7 -16 7 -13 0 -18 -4 -26 -17 -11 -18 -16 -23 -26 -23
-10 0 -15 4 -26 23 -6 10 -10 14 -18 18 l-11 5 -51 0 c-28 0 -54 -1 -58 -2 -9
-3 -23 -12 -26 -17 -4 -10 -24 -14 -41 -7 -5 2 -17 18 -17 22 0 2 -1 4 -2 5
-3 3 -22 64 -22 69 0 9 4 20 9 25 4 4 7 5 16 5 6 0 11 -1 11 -2 0 -1 4 -1 10
0 5 1 10 2 11 2 1 0 4 2 7 4 3 2 5 4 6 4 6 0 9 58 4 74 -2 4 -3 8 -4 8 -1 0
-3 2 -5 4 -6 5 -25 11 -34 10 -4 0 -13 2 -19 4 -14 5 -26 5 -44 1 -6 -2 -13
-3 -14 -2 -5 0 -10 7 -10 11 0 3 7 13 9 12 0 0 5 1 11 3 11 3 23 9 38 20 5 3
10 5 15 6 10 0 19 -2 19 -5 0 -1 1 -2 2 -1 0 0 5 1 10 2 20 3 28 11 28 31 0 5
1 12 2 15 1 3 3 9 3 13 1 4 3 12 4 19 2 7 3 14 4 17 0 7 5 12 12 12 7 0 12 -5
12 -12 0 -3 2 -8 3 -11 1 -3 2 -6 2 -6 -1 0 1 -4 4 -8 3 -6 7 -10 13 -13 8 -4
11 -4 136 -3 132 0 133 1 133 3 0 1 1 2 3 2 4 0 14 12 18 21 5 11 5 228 0 242
-5 14 -11 22 -22 27 l-10 5 -165 0 c-165 0 -165 0 -180 -4 -20 -7 -34 -6 -41
0 -6 4 -6 6 -6 20 0 14 0 16 6 20 5 5 7 5 22 5 17 0 33 3 33 6 0 1 1 2 3 2 5
0 11 15 11 29 0 24 -5 36 -26 56 l-14 14 -16 1 -16 0 -7 -7 c-11 -12 -33 -14
-43 -3 -13 12 -6 46 10 46 1 0 5 1 7 3 2 2 5 3 7 3 2 0 11 5 20 10 18 10 31
13 36 7 2 -3 28 0 30 3 1 2 3 3 3 2 1 -1 4 2 5 6 6 10 6 137 1 149 -4 9 -14
21 -18 21 -2 0 -3 1 -3 2 0 1 -1 2 -2 2 -7 1 -260 2 -264 0z m114 -77 c2 -2 5
-7 5 -12 1 -7 1 -8 -9 -17 -5 -6 -10 -11 -10 -12 0 -1 -1 -2 -3 -2 -3 0 -8 -9
-8 -18 0 -7 4 -14 9 -15 2 0 4 -1 5 -1 2 -2 9 -1 17 1 6 1 12 7 12 11 0 5 7
21 10 23 7 4 16 4 19 1 5 -7 3 -16 -7 -27 -3 -3 -6 -7 -6 -9 0 -4 -13 -13 -19
-13 -2 0 -5 -1 -5 -1 -1 0 -3 -1 -3 -1 -2 0 -9 -7 -23 -24 -2 -2 -4 -4 -4 -5
0 -3 -13 -8 -22 -8 -21 0 -28 17 -17 43 6 15 9 29 9 39 0 8 7 24 16 34 3 4 6
8 6 9 0 0 1 1 3 1 1 0 4 1 5 3 3 4 15 4 20 0z m-557 -57 c10 -9 3 -26 -10 -26
-8 0 -15 7 -15 15 0 13 16 20 25 11z m-315 -15 c3 -2 7 -7 11 -10 10 -10 31
-19 47 -19 4 0 8 -2 11 -5 10 -10 4 -34 -8 -35 -12 -1 -20 1 -25 7 -13 12 -26
17 -49 19 -14 1 -16 2 -20 7 -5 5 -7 18 -4 28 3 10 27 15 37 8z m-129 -11 c10
-9 3 -26 -10 -26 -8 0 -15 7 -15 15 0 13 16 20 25 11z m-143 -24 c1 0 5 -3 8
-6 5 -5 6 -7 6 -18 0 -11 -1 -13 -6 -18 -6 -6 -7 -6 -18 -6 -11 0 -12 0 -18 6
-5 5 -6 7 -6 17 0 14 3 20 12 24 5 2 8 2 22 1z m472 -7 c7 -2 19 -7 27 -10 18
-7 23 -12 23 -21 0 -13 -6 -17 -25 -15 -9 1 -25 2 -36 2 -27 1 -33 5 -33 25 0
24 16 31 44 19z m-94 -73 c5 -3 11 -17 16 -35 2 -7 4 -14 5 -15 1 -1 2 -9 3
-17 3 -22 12 -36 31 -48 7 -4 11 -9 14 -15 3 -8 3 -8 -1 -13 -2 -3 -4 -5 -4
-4 0 1 -2 0 -5 -2 -4 -1 -10 -5 -16 -7 -7 -4 -11 -8 -15 -14 -4 -9 -4 -9 -4
-75 l1 -66 -6 -6 c-5 -5 -8 -6 -15 -6 -10 0 -21 8 -22 17 0 3 -3 11 -7 19 -10
22 -10 24 -2 50 7 24 8 31 10 103 1 33 1 40 -2 47 -4 9 -14 21 -18 21 -2 0 -3
1 -3 2 0 0 -2 1 -5 2 -3 0 -6 1 -7 1 -3 2 -26 2 -27 0 -1 0 -3 -1 -6 -1 -4 0
-14 -5 -22 -13 -7 -5 -8 -10 -15 -35 -3 -12 -9 -18 -17 -18 -12 0 -18 12 -13
24 1 3 0 10 -1 17 -2 7 -3 13 -3 14 -1 2 -6 5 -12 8 l-11 6 -46 -1 c-30 -1
-47 0 -48 1 -3 3 -3 9 0 12 1 1 39 2 109 1 l107 0 10 5 c10 5 11 6 19 22 11
21 17 25 28 19z m-320 -10 c6 -6 7 -14 2 -15 -2 -1 -4 -2 -4 -3 0 -3 -11 -1
-14 3 -5 4 -5 10 0 15 4 4 12 4 16 0z m1104 -96 c1 0 5 -3 8 -6 5 -5 6 -7 6
-18 0 -11 -1 -13 -6 -18 -6 -6 -7 -6 -18 -6 -11 0 -12 0 -18 6 -5 5 -6 7 -6
17 0 14 3 20 12 24 5 2 8 2 22 1z m-1118 -50 c9 -9 3 -24 -10 -24 -6 0 -9 1
-11 4 -7 11 -1 24 11 24 3 0 8 -2 10 -4z m82 -18 c5 -6 7 -11 6 -17 0 -1 -1
-3 -1 -5 0 -2 -1 -3 -3 -3 -1 1 -2 -1 -3 -4 -1 -4 -2 -5 -7 -4 -3 1 -7 1 -9 2
-7 0 -15 10 -15 19 0 18 20 25 32 12z m87 -10 c16 -7 16 -40 0 -51 -10 -7 -29
-27 -30 -32 -1 -3 -2 -5 -3 -5 -2 0 -9 -33 -8 -36 1 -1 -2 -5 -5 -9 l-6 -6
-28 0 c-15 1 -29 1 -29 1 -1 0 -5 2 -8 5 -5 5 -5 6 -3 10 2 3 3 9 3 21 -1 16
-1 17 5 23 3 3 5 6 5 7 0 1 4 3 10 5 10 4 16 11 23 29 2 6 5 12 6 14 2 3 19
12 22 12 2 0 4 2 6 5 7 10 24 13 40 7z m1167 -12 c5 -6 5 -12 0 -18 -7 -8 -22
-2 -22 9 0 11 15 17 22 9z m-319 -21 c12 -7 14 -33 3 -43 -8 -9 -32 -9 -40 0
-9 8 -9 32 0 41 7 7 27 8 37 2z m-1020 -12 c6 -6 7 -24 1 -31 -7 -9 -27 -9
-34 0 -3 3 -4 8 -4 15 0 16 5 21 21 21 9 0 12 -1 16 -5z m534 -2 c3 -5 3 -5 0
-10 -5 -6 -9 -6 -14 0 -3 5 -3 5 0 10 5 6 10 6 14 0z m242 -9 c20 -20 35 -38
35 -44 0 -5 -8 -10 -18 -10 -17 0 -44 6 -49 11 -10 9 -5 40 7 47 9 6 17 5 25
-4z m394 -58 c7 -7 7 -16 -1 -42 -3 -11 -6 -22 -6 -24 0 -2 -1 -5 -3 -8 -8
-15 -12 -50 -7 -53 1 -1 2 -6 2 -12 0 -17 -7 -23 -26 -21 -18 2 -45 30 -45 48
0 12 5 18 23 32 20 16 23 23 24 52 0 22 0 23 5 28 9 9 24 9 34 0z m-1268 -3
c3 -3 3 -3 0 -6 -4 -5 -11 1 -7 6 4 4 4 4 7 0z m1526 -20 c12 -12 3 -31 -13
-31 -11 0 -18 7 -18 18 0 11 7 18 18 18 6 0 9 -1 13 -5z m-1394 -13 c6 -5 6
-6 0 -19 -7 -15 -11 -17 -22 -17 -13 0 -19 6 -19 19 0 11 5 18 14 19 17 2 21
2 27 -2z m237 -20 c5 -6 5 -12 0 -18 -7 -8 -22 -2 -22 9 0 11 15 17 22 9z
m206 -50 c5 -5 6 -7 6 -17 0 -16 -7 -23 -23 -23 -16 0 -23 7 -23 23 0 16 7 23
23 23 10 0 12 -1 17 -6z m-549 -19 c10 -6 13 -26 6 -40 -6 -13 -4 -38 4 -50 2
-2 3 -9 3 -16 0 -10 -1 -12 -6 -17 -6 -6 -7 -6 -18 -6 -11 0 -12 0 -18 6 -5 5
-6 7 -6 17 0 6 1 13 2 15 6 11 3 39 -5 48 -8 9 -8 32 1 41 7 7 27 8 37 2z
m730 0 c3 -5 3 -6 0 -15 -7 -22 -28 -35 -36 -23 -6 9 5 32 20 40 8 4 11 4 16
-2z m-455 -55 c6 -5 9 -19 6 -21 -1 -1 1 -7 3 -14 10 -27 11 -27 90 -26 64 1
67 1 67 3 0 1 3 3 7 5 4 1 9 6 12 10 16 22 30 23 45 2 7 -10 29 -19 39 -15 21
8 39 -10 24 -24 -5 -5 -7 -5 -35 -6 -16 -1 -33 -3 -37 -4 -11 -3 -25 -12 -32
-22 -8 -10 -15 -14 -26 -14 -11 0 -18 4 -26 14 -7 10 -21 19 -31 22 -5 1 -63
2 -160 2 l-153 -1 -6 7 -7 6 7 8 6 7 69 -1 c87 0 87 0 97 27 2 7 4 13 3 14 -3
2 0 16 5 21 9 9 25 9 33 0z m929 -103 c6 -4 6 -6 6 -20 0 -14 0 -16 -6 -20 -4
-4 -7 -5 -18 -5 -11 0 -14 1 -18 5 -6 4 -6 6 -6 20 0 14 0 16 6 20 4 4 7 5 18
5 11 0 14 -1 18 -5z m-990 -40 c5 -8 1 -16 -8 -16 -9 0 -13 8 -8 16 2 3 5 5 8
5 3 0 6 -2 8 -5z m312 -61 c7 -10 7 -10 15 -22 3 -5 7 -11 9 -12 15 -9 19 -37
7 -48 -9 -10 -34 -9 -42 1 -2 3 -5 10 -6 17 -1 6 -5 20 -8 30 -3 11 -6 22 -6
25 0 15 21 21 31 9z m610 -3 c7 -4 15 -13 15 -18 0 -10 -16 -16 -39 -14 -13 0
-16 1 -20 6 -11 10 -5 32 9 33 6 1 26 -3 35 -7z m-1042 0 c5 -8 1 -16 -8 -16
-9 0 -13 8 -8 16 2 3 5 5 8 5 3 0 6 -2 8 -5z m186 -56 c5 -8 1 -16 -8 -16 -9
0 -13 8 -8 16 2 3 5 5 8 5 3 0 6 -2 8 -5z m-95 -3 c5 -5 5 -15 0 -20 -9 -9
-24 -2 -24 10 0 8 6 14 14 14 3 0 8 -2 10 -4z m-114 -4 c6 0 12 -10 12 -20 0
-14 -6 -20 -20 -20 -14 0 -20 6 -20 19 0 5 1 11 2 13 3 5 12 10 19 9 2 0 5 -1
7 -1z m1215 -31 c2 -1 3 -2 2 -3 -1 -1 2 -2 5 -3 4 0 6 -2 6 -4 0 -2 1 -3 2
-3 5 0 0 -32 -7 -37 -12 -11 -34 -11 -43 0 -9 10 -9 34 1 43 7 6 25 10 34 7z
m-874 -49 c0 -2 -3 -8 -7 -12 l-6 -7 -24 0 c-12 0 -30 1 -38 2 -22 2 -37 -1
-41 -10 -2 -4 -3 -11 -3 -17 0 -6 -1 -10 -2 -11 -2 0 -2 -1 0 -1 10 0 12 -21
3 -29 -6 -7 -21 -7 -28 -1 -6 6 -7 27 -2 29 2 1 2 2 1 4 -1 1 -2 5 -3 8 -1 6
-4 10 -7 10 -1 0 -5 1 -9 3 -4 1 -11 2 -16 2 -4 0 -16 3 -26 6 -10 4 -22 7
-26 7 -6 0 -9 1 -14 6 -8 8 -8 15 0 21 l6 6 115 0 115 1 6 -6 c3 -3 6 -8 6
-11z m718 -53 c6 -4 6 -6 6 -20 0 -14 0 -16 -6 -20 -4 -4 -7 -5 -18 -5 -11 0
-14 1 -18 5 -6 4 -6 6 -6 20 0 14 0 16 6 20 4 4 7 5 18 5 11 0 14 -1 18 -5z
m-1102 -28 c3 -5 3 -5 0 -10 -2 -3 -5 -5 -7 -5 -2 0 -5 2 -7 5 -3 5 -3 5 0 10
2 3 5 5 7 5 2 0 5 -2 7 -5z m1239 0 c3 -5 10 -25 11 -32 0 -1 2 -8 4 -14 3
-10 3 -12 0 -16 -4 -6 -8 -6 -21 0 -16 7 -31 11 -43 12 -14 1 -19 7 -19 20 0
12 3 16 21 22 14 6 38 13 42 13 1 0 4 -2 5 -5z m-724 -9 c5 -5 5 -11 0 -16
-10 -10 -27 5 -16 16 4 4 12 4 16 0z m-421 -44 c5 -7 4 -25 -2 -31 -3 -3 -7
-5 -9 -5 -3 0 -8 -1 -12 -1 -4 -1 -10 -1 -14 -2 -5 0 -8 -1 -8 -2 0 -2 -2 -3
-4 -4 -2 -1 -8 -7 -13 -14 -11 -16 -14 -17 -27 -17 -15 0 -22 7 -22 23 0 17 6
22 26 24 8 1 17 1 19 1 5 0 21 14 29 26 8 10 29 12 37 2z m1412 -26 c11 -10 3
-28 -11 -28 -9 0 -16 6 -16 16 0 14 17 22 27 12z m-609 -29 c3 -3 4 -6 4 -13
-1 -8 -2 -10 -11 -15 -25 -16 -32 -28 -27 -49 1 -8 -4 -30 -11 -47 -1 -3 -4
-9 -6 -13 -3 -8 -7 -11 -15 -12 -26 -2 -33 13 -20 45 7 17 7 14 3 51 -2 16 1
19 18 27 8 4 21 12 29 19 17 14 27 16 36 7z m484 -20 c6 -2 5 -6 -3 -9 -6 -4
-7 -4 -12 2 l-5 5 5 5 c5 3 6 3 8 1 2 -1 5 -3 7 -4z m-75 -2 l6 -6 0 -92 c0
-51 1 -94 2 -97 1 -3 1 -6 1 -7 1 -2 2 -3 3 -3 2 0 3 -1 3 -2 1 -2 6 -3 15 -2
l13 0 0 -8 0 -8 -13 0 c-12 1 -14 0 -15 -3 0 -2 -2 -3 -5 -3 -3 0 -8 -2 -11
-5 l-5 -6 -120 0 -120 0 -6 6 -6 6 1 47 c0 26 0 50 -1 53 -2 10 -10 18 -20 21
-6 1 -12 3 -14 4 -3 1 -5 1 -5 0 0 -3 -14 -2 -19 1 -5 4 -6 18 -1 24 3 4 6 5
12 5 4 0 8 -1 8 -2 0 -1 2 -1 5 0 2 1 8 3 14 4 17 5 22 14 21 47 -1 20 -1 20
5 26 l6 6 120 0 120 0 6 -6z m137 -9 c1 0 5 -3 8 -6 6 -6 6 -7 6 -20 -1 -18
-4 -22 -22 -23 -15 0 -20 4 -28 19 -9 18 -10 21 -1 25 4 2 10 4 13 4 3 0 6 1
7 1 1 1 4 1 17 0z m-1063 -11 c12 -5 20 -9 18 -9 -1 0 3 -4 7 -8 5 -5 10 -11
12 -14 4 -9 12 -31 13 -36 1 -3 3 -6 5 -7 3 -1 16 -19 16 -23 0 -3 -8 -10 -11
-10 -1 0 -4 1 -5 3 -2 1 -6 4 -9 7 -3 2 -5 4 -4 4 1 0 0 2 -1 4 -1 2 -3 4 -3
3 -1 0 -5 2 -10 5 -15 10 -58 30 -69 32 -6 1 -19 5 -29 8 -28 10 -32 10 -78
10 l-44 -1 -19 -9 c-25 -13 -37 -13 -46 -4 -7 6 -7 12 -4 35 1 2 5 5 11 8 l10
5 116 0 c101 0 118 0 124 -3z m1148 -26 c11 -12 12 -51 3 -70 -10 -18 -32 -27
-50 -20 -12 5 -18 20 -14 36 4 16 7 20 20 29 8 6 17 16 19 20 1 3 11 10 15 10
1 0 5 -2 7 -5z m-590 -39 c7 -9 7 -23 -1 -31 -6 -5 -21 -4 -27 1 -10 10 -5 32
8 34 9 2 16 0 20 -4z m-945 -14 c1 0 5 -3 8 -6 5 -5 6 -7 6 -18 0 -11 -1 -13
-6 -18 -6 -6 -7 -6 -18 -6 -11 0 -12 0 -18 6 -5 5 -6 7 -6 17 0 14 3 20 12 24
5 2 8 2 22 1z m568 -14 c5 -5 5 -11 0 -16 -10 -10 -27 5 -16 16 4 4 12 4 16 0z
m-325 -63 c6 -4 6 -6 6 -20 0 -14 0 -16 -6 -20 -4 -4 -7 -5 -18 -5 -11 0 -14
1 -18 5 -6 4 -6 6 -6 20 0 14 0 16 6 20 4 4 7 5 18 5 11 0 14 -1 18 -5z m1140
-29 c6 -6 7 -17 1 -23 -5 -6 -17 -7 -22 -2 -5 4 -5 22 0 26 5 4 16 4 21 -1z
m-1288 -38 c1 -1 3 -4 3 -5 0 -1 1 -4 3 -5 3 -3 3 -13 0 -11 -2 0 -3 0 -3 -2
0 -11 -23 -16 -32 -6 -6 6 -6 21 0 28 7 7 21 8 29 1z m395 -18 c4 -2 9 -6 11
-8 4 -6 4 -22 0 -28 -10 -14 -48 -18 -59 -6 -9 8 -9 32 0 41 8 8 33 8 48 1z
m925 -139 c3 -3 3 -3 0 -6 -4 -5 -11 1 -7 6 4 4 4 4 7 0z m-1387 -58 c5 -5 5
-5 3 -12 -2 -8 -8 -13 -21 -18 -13 -4 -15 -4 -18 4 -5 10 -5 19 1 24 8 9 26 9
35 2z m1208 -18 l-5 -5 -4 4 -5 5 4 4 5 5 4 -4 5 -5 -4 -4z m-279 -29 c0 -2
-2 -6 -5 -8 l-6 -4 -7 5 c-8 7 -9 11 -1 13 3 1 6 3 6 4 0 4 13 -6 13 -10z
m-49 -8 c2 -1 5 -3 8 -4 l4 -4 -7 -13 c-10 -19 -15 -23 -28 -23 -16 0 -23 7
-23 23 0 10 1 12 6 17 6 6 6 6 22 5 8 0 16 -1 18 -1z m650 -9 c10 -5 14 -25 8
-39 -7 -18 -43 -18 -50 0 -4 9 -3 24 1 31 6 12 26 16 41 8z m-1573 -16 c-7
-10 -13 -10 -16 1 -1 4 0 7 5 12 l6 7 4 -8 c4 -7 4 -7 1 -12z m426 9 c11 -10
3 -28 -11 -28 -10 0 -16 6 -16 16 0 15 17 22 27 12z"/>
<path d="M533 2122 c-16 -3 -27 -15 -27 -30 0 -5 3 -16 8 -26 4 -10 8 -20 8
-22 0 -1 3 -5 7 -9 6 -7 7 -7 20 -7 12 0 15 1 21 6 4 3 11 7 16 9 12 4 14 9
14 28 0 11 0 13 -5 16 -4 2 -11 8 -17 14 -17 17 -33 24 -45 21z"/>
<path d="M1290 1932 c0 -2 -2 -4 -3 -4 -4 0 -4 -1 -1 -1 3 -1 4 -3 4 -10 -1
-12 0 -22 1 -19 1 1 3 2 5 2 2 0 4 1 5 2 1 1 2 2 3 1 1 -1 2 0 2 1 0 1 1 2 2
1 2 -1 7 6 9 14 1 3 3 7 4 7 2 2 -6 3 -20 2 -7 0 -9 1 -10 4 0 3 -1 3 -1 0z"/>
</g>
</svg>
