<?xml version="1.0" standalone="no"?>
<!DOCTYPE svg PUBLIC "-//W3C//DTD SVG 20010904//EN"
 "http://www.w3.org/TR/2001/REC-SVG-20010904/DTD/svg10.dtd">
<svg version="1.0" xmlns="http://www.w3.org/2000/svg"
 width="1100.000000pt" height="2850.000000pt" viewBox="0 0 1100.000000 2850.000000"
 preserveAspectRatio="xMidYMid meet">
<metadata>
Created by potrace 1.15, written by Peter Selinger 2001-2017
</metadata>
<g transform="translate(0.000000,2850.000000) scale(0.500000,-0.500000)"
fill="#000000" stroke="none">
<path d="M443 3818 c-6 -1 -13 -3 -16 -6 -6 -4 -16 -14 -14 -14 1 0 -1 -2 -2
-5 -3 -5 -4 -10 -4 -31 0 -19 -1 -26 -3 -29 -1 -2 -10 -7 -20 -11 -21 -10 -25
-14 -40 -37 -14 -21 -16 -29 -11 -49 5 -21 4 -31 -3 -38 -3 -3 -7 -6 -8 -6
-43 0 -52 -3 -69 -24 -8 -8 -18 -19 -22 -24 -10 -11 -79 -80 -92 -92 -5 -5
-16 -14 -23 -20 -7 -6 -14 -12 -16 -14 -1 -1 -6 -5 -10 -8 -4 -3 -7 -5 -8 -6
-1 -1 -5 -4 -9 -7 -12 -8 -25 -23 -27 -29 -3 -13 -1 -29 9 -53 17 -45 63 -189
68 -217 4 -20 15 -30 31 -32 12 0 12 0 22 8 6 5 13 11 16 14 3 3 9 8 14 13 4
4 8 8 8 10 0 7 11 -15 12 -25 1 -6 3 -14 4 -17 3 -7 14 -19 17 -19 2 0 3 -1 3
-2 0 -2 1 -2 45 -3 l39 -1 11 5 c11 5 20 15 25 27 6 12 24 16 33 7 5 -5 6 -6
4 -21 -1 -24 -5 -29 -31 -40 l-10 -4 1 -15 c0 -16 0 -16 14 -26 8 -6 12 -14
12 -26 0 -19 -10 -28 -29 -28 -13 1 -18 4 -29 18 -11 14 -20 20 -31 23 -5 1
-35 2 -86 1 -80 -1 -82 -1 -82 -3 0 -1 -1 -2 -3 -2 -4 0 -14 -12 -18 -21 -4
-9 -5 -109 -1 -121 1 -4 4 -11 6 -16 1 -5 3 -16 3 -25 1 -31 2 -35 18 -48 7
-6 17 -14 22 -19 14 -13 27 -17 55 -16 23 1 29 4 41 15 3 3 9 8 13 10 l8 5 7
-4 c5 -3 11 -8 15 -11 7 -8 26 -16 34 -15 3 1 7 -1 11 -5 6 -6 6 -6 5 -22 -1
-27 6 -40 24 -50 6 -3 13 -5 15 -6 14 -3 20 -8 23 -20 3 -13 -3 -33 -9 -33 -2
0 -3 -1 -3 -2 0 -1 -2 -2 -5 -2 -10 0 -31 -12 -37 -21 -2 -4 -6 -7 -7 -7 -4 0
-9 5 -9 8 0 2 -1 1 -2 -2 l-2 -5 0 5 c0 15 -18 90 -24 104 l-5 11 -16 1 c-16
0 -17 0 -20 -5 -5 -8 -13 -15 -17 -15 -2 0 -9 2 -16 5 -22 9 -29 9 -60 2 -40
-10 -50 -15 -57 -30 -7 -14 -7 -19 2 -56 10 -48 26 -126 28 -148 1 -4 3 -20 5
-35 2 -15 5 -37 6 -49 2 -24 6 -35 13 -43 7 -8 28 -13 37 -9 5 2 24 8 41 13 4
1 10 3 12 4 2 1 11 3 19 6 8 2 20 6 26 8 6 2 14 4 17 5 4 1 7 2 8 3 1 1 4 -1
7 -4 12 -12 5 -39 -10 -39 -3 0 -16 -2 -29 -3 -13 -2 -28 -5 -32 -5 -4 -1 -16
-3 -25 -4 -9 -2 -21 -3 -27 -4 -55 -7 -69 -14 -69 -38 0 -10 0 -10 16 -25 21
-20 24 -29 14 -50 -1 -4 -7 -18 -11 -31 l-8 -24 -18 -9 c-20 -10 -27 -19 -27
-34 0 -12 10 -58 15 -69 8 -17 23 -25 42 -22 10 1 32 9 35 13 1 0 3 3 6 4 3 2
8 7 11 12 11 14 24 18 43 10 19 -7 32 -9 47 -5 14 3 31 11 37 16 8 6 21 9 48
10 16 0 27 1 28 2 1 3 6 5 18 6 17 2 39 7 48 12 15 8 18 20 15 53 -1 14 -1 14
5 20 5 5 7 6 16 6 13 0 20 -4 27 -15 6 -9 16 -19 23 -23 3 -1 6 -3 6 -4 2 -3
25 -6 37 -5 15 1 31 9 41 21 22 25 21 25 41 17 8 -3 16 -6 19 -6 3 -1 7 -3 9
-4 4 -2 8 -2 14 0 7 2 10 3 24 6 19 4 34 11 45 23 12 12 17 15 29 15 7 0 13
-2 22 -7 15 -7 28 -9 44 -5 23 5 33 -1 33 -20 0 -9 -1 -12 -5 -16 -6 -6 -23
-7 -29 -2 -5 4 -40 3 -48 -2 -5 -2 -10 -3 -17 -3 -48 2 -85 0 -93 -7 -3 -3 -4
-6 -3 -16 1 -14 4 -19 17 -26 8 -5 12 -7 42 -27 13 -8 32 -21 43 -29 10 -8 21
-15 22 -15 2 0 3 -1 3 -2 0 -1 2 -2 5 -3 2 0 7 -5 11 -10 4 -5 10 -10 13 -13
3 -2 12 -9 19 -16 l13 -12 13 0 c13 0 18 2 25 9 3 3 21 41 34 71 14 34 28 72
41 112 6 18 12 34 13 36 4 4 10 -4 14 -18 4 -15 11 -22 28 -29 8 -3 15 -5 16
-5 4 0 9 -8 9 -17 0 -12 3 -31 8 -44 1 -3 3 -11 5 -17 6 -24 24 -33 47 -25 5
2 10 4 12 4 2 0 8 2 15 4 7 2 14 4 17 4 3 1 10 3 17 4 15 4 8 3 68 15 70 14
299 55 372 67 11 2 24 -2 28 -8 3 -4 3 -9 2 -28 -1 -27 2 -46 11 -63 11 -22
23 -25 55 -14 29 10 74 26 95 34 9 3 18 6 20 7 34 9 51 25 51 49 0 38 -13 54
-43 51 -23 -2 -26 -2 -41 9 -20 13 -28 16 -44 18 -15 2 -23 8 -23 16 0 6 9 14
18 16 16 4 26 3 49 -8 2 -1 9 -4 15 -6 11 -3 12 -3 22 1 17 8 24 23 19 44 0 3
-2 11 -4 18 -3 15 -12 51 -16 64 -1 6 -6 23 -10 39 -10 39 -15 45 -36 46 -5 0
-10 1 -11 1 -3 2 -19 -23 -18 -27 0 -1 -1 -4 -2 -8 -1 -4 -2 -12 -2 -19 0 -10
-1 -12 -6 -17 -6 -6 -7 -6 -18 -6 -11 0 -12 0 -18 6 -5 5 -6 7 -6 17 0 10 5
26 10 27 5 3 11 15 10 24 0 6 0 10 0 11 0 0 -1 2 -1 3 -1 6 -6 11 -8 8 -1 -1
-6 -2 -12 -2 -13 1 -13 0 -24 -16 -9 -14 -13 -17 -21 -18 -19 -2 -26 4 -26 20
0 14 2 17 18 25 10 5 19 12 29 22 14 14 16 15 24 15 7 0 17 -5 17 -9 0 -4 15
-25 19 -26 3 -1 8 -3 12 -5 13 -6 21 -5 31 6 5 5 10 17 10 23 0 3 -24 83 -39
131 -13 41 -17 49 -25 54 -7 4 -28 5 -32 2 -5 -5 -15 -9 -22 -11 -12 -2 -45
11 -58 23 -12 10 -6 27 11 29 22 3 44 13 58 25 10 9 11 12 12 27 0 9 -1 10 -7
14 -3 3 -13 7 -21 9 -8 3 -22 7 -32 10 -10 4 -21 6 -26 6 -9 0 -111 -31 -126
-38 -5 -2 -9 -4 -10 -4 -1 0 -5 -4 -9 -9 -6 -7 -6 -9 -6 -19 1 -9 2 -11 9 -17
4 -4 11 -9 14 -10 16 -9 19 -17 15 -43 -4 -25 2 -37 23 -44 7 -2 16 -5 21 -5
13 -2 21 -10 21 -23 0 -11 -3 -16 -15 -22 -14 -7 -17 -9 -20 -12 -1 -2 -3 -5
-5 -7 -2 -2 -3 -3 -2 -3 0 0 -1 -4 -2 -9 -2 -9 -2 -12 6 -41 20 -71 21 -74 17
-83 -2 -7 -9 -15 -28 -34 -11 -11 -22 -10 -40 2 -7 5 -15 10 -18 10 -2 1 -6 1
-8 2 -8 2 -16 2 -34 -1 -19 -3 -31 -7 -38 -15 -5 -6 -14 -25 -14 -30 0 -4 -9
-11 -14 -11 -12 0 -50 16 -55 23 -4 6 -3 12 9 36 5 11 11 27 14 35 2 8 7 25
11 37 13 45 17 56 20 68 1 7 5 19 7 27 8 27 4 40 -16 49 -6 3 -13 8 -15 10 -3
5 -3 5 1 10 2 2 10 7 17 9 23 8 26 10 32 20 15 20 23 44 38 106 1 1 4 13 7 26
3 13 6 25 7 27 0 2 4 18 9 34 4 17 7 30 7 31 1 1 1 5 3 9 2 8 11 47 11 49 1 4
9 40 11 44 5 16 -6 33 -27 43 -12 6 -32 4 -46 -3 -24 -13 -37 -19 -36 -18 1 1
0 2 -2 2 -2 0 -3 1 -3 2 0 5 -17 15 -33 20 -31 9 -55 10 -74 2 -2 -1 -9 -3
-15 -5 -30 -9 -35 -17 -45 -61 -4 -17 -8 -34 -8 -38 -3 -13 -2 -31 4 -53 9
-33 6 -58 -8 -65 -8 -4 -23 -19 -28 -28 -2 -5 -12 -37 -21 -72 -9 -35 -21 -81
-27 -103 -10 -37 -11 -42 -12 -64 -1 -25 -3 -32 -14 -44 -2 -2 -5 -7 -7 -11
-4 -5 -5 -6 -9 -5 -5 2 -13 9 -13 12 0 1 -3 5 -7 9 -4 4 -9 10 -11 14 -3 7 -3
7 1 14 3 4 5 6 5 5 0 -2 17 11 22 16 7 9 12 25 14 46 1 11 2 23 3 27 5 42 13
140 16 188 1 12 2 28 2 37 2 37 3 58 4 106 3 75 3 75 -4 86 -6 11 -21 19 -37
21 -10 0 -20 7 -21 12 -2 11 -10 28 -15 30 -3 1 -6 1 -6 0 0 -2 -17 -2 -18 0
-1 2 -4 0 -9 -5 -12 -13 -10 -30 6 -48 5 -5 10 -12 12 -15 1 -4 3 -6 3 -6 1 0
2 -1 2 -2 0 -2 7 -10 15 -18 17 -16 19 -24 11 -32 -5 -5 -16 -5 -20 -1 -1 2
-3 3 -4 3 -1 0 -5 3 -8 7 -3 3 -13 11 -23 16 -9 5 -18 11 -20 13 -4 4 -5 16
-2 25 5 14 -1 35 -11 40 -11 6 -34 2 -48 -8 -5 -4 -10 -7 -12 -7 -3 0 -6 -5
-6 -10 -2 -9 -12 -26 -17 -26 -5 0 -24 -11 -29 -16 -8 -9 -11 -16 -11 -37 -3
-94 -5 -134 -6 -148 -1 -15 -4 -61 -4 -69 0 -5 3 -17 5 -29 5 -23 5 -29 -4
-48 -11 -25 -12 -32 -6 -43 6 -11 25 -19 37 -16 13 4 31 -4 31 -12 0 -2 1 -4
2 -5 3 -2 3 -14 0 -19 -1 -1 -2 -5 -3 -6 -3 -10 -30 -15 -38 -7 -5 3 -24 2
-34 -2 -7 -4 -12 -13 -14 -27 -3 -25 -22 -122 -28 -151 -1 -2 -2 -7 -2 -11 -1
-5 -3 -8 -4 -8 -2 0 -4 -1 -6 -1 -3 -1 -3 -1 -2 1 1 1 0 2 -1 2 -1 0 -3 3 -5
7 -6 12 -19 19 -43 24 -19 4 -62 2 -59 -3 1 -2 -11 -4 -15 -2 -1 0 -2 1 -2 3
0 1 -1 5 -3 9 -7 13 -6 32 3 42 9 10 39 8 51 -4 7 -7 32 -4 40 4 4 5 29 81 33
103 1 5 3 11 5 15 1 4 6 19 10 33 4 14 10 34 13 43 8 26 4 43 -14 55 -16 9
-35 11 -47 3 -4 -3 -6 -6 -6 -7 1 0 0 -3 -1 -4 -3 -4 -5 -28 -5 -57 0 -13 1
-19 5 -26 10 -24 2 -44 -17 -44 -14 0 -15 0 -21 6 -6 6 -6 6 -6 27 0 11 0 21
-1 22 0 1 -1 5 -2 8 0 2 -3 9 -6 14 -8 18 -8 31 2 45 8 12 7 33 -3 40 -5 4
-35 13 -51 15 -11 2 -25 -3 -32 -10 -8 -9 -12 -20 -15 -48 -1 -12 -3 -24 -3
-26 -7 -30 0 -47 23 -59 3 -1 9 -5 12 -8 12 -10 6 -34 -8 -34 -8 0 -27 -6 -29
-10 -3 -2 -3 -2 -3 1 0 1 -1 3 -2 3 0 0 -3 4 -4 10 -3 8 -4 22 -4 97 0 48 0
88 -1 89 0 0 3 4 6 7 l6 6 86 0 c86 0 97 0 97 3 0 1 1 2 3 2 4 0 14 12 18 21
5 11 5 207 0 218 -4 9 -14 21 -18 21 -2 0 -3 1 -3 2 0 3 -12 3 -97 3 l-86 0
-6 6 -6 6 0 28 0 28 6 6 6 6 52 0 c53 0 63 1 63 3 0 1 1 2 3 2 4 0 14 12 18
21 3 7 3 14 3 37 -1 36 -3 40 -22 60 -5 5 -11 11 -12 14 -3 6 -3 22 0 30 4 10
-3 42 -10 42 -1 0 -2 1 -2 3 0 1 -1 4 -3 5 -1 1 -3 6 -4 10 -1 10 1 14 20 33
15 15 17 18 21 24 4 9 27 15 38 10 17 -7 22 -29 11 -46 -2 -3 -11 -9 -20 -13
-15 -8 -25 -14 -25 -18 -1 -10 -1 -22 0 -22 1 0 3 -3 5 -6 5 -10 25 -16 40
-12 18 5 27 17 51 71 2 6 6 14 8 18 8 15 10 25 10 43 0 18 5 32 10 32 1 0 4 2
7 5 3 3 5 4 5 3 0 -1 2 -4 5 -7 3 -3 7 -10 8 -15 2 -5 5 -11 8 -13 4 -6 21
-13 32 -14 13 -2 20 -10 20 -23 0 -13 -7 -21 -21 -23 -14 -1 -29 -10 -35 -19
l-6 -9 0 -40 c0 -32 1 -42 3 -50 6 -17 8 -31 5 -43 -2 -6 -3 -13 -4 -16 0 -3
-2 -8 -3 -12 -1 -4 -2 -25 -2 -48 0 -44 2 -52 12 -61 4 -4 28 -8 28 -5 0 1 1
2 3 2 3 0 7 4 7 10 1 7 9 20 13 24 2 2 10 6 17 10 8 3 18 9 23 14 16 12 18 13
36 12 8 0 24 1 35 3 17 3 20 3 25 0 3 -1 9 -4 12 -5 4 -1 11 -6 16 -11 11 -11
18 -12 21 -3 2 7 0 30 -3 35 -7 11 -4 22 12 39 5 5 9 10 9 11 0 2 1 3 2 3 4 2
3 35 -1 45 -5 13 -26 29 -37 29 -1 0 -4 2 -6 4 -5 5 -6 37 -2 50 2 7 10 18 14
18 3 0 10 16 10 24 0 4 0 11 -1 15 -1 8 -1 9 5 15 4 3 7 6 8 6 6 0 25 15 31
25 10 15 14 17 27 17 9 0 14 -1 21 -5 12 -7 27 -6 44 2 13 6 13 6 18 -1 3 -6
4 -29 1 -43 -1 -3 -2 -8 -3 -11 -1 -6 -9 -12 -16 -13 -2 0 -11 -1 -19 -1 -8 0
-13 -1 -10 -1 5 -1 5 -1 4 -19 0 -9 0 -16 1 -16 1 1 3 0 5 -2 3 -3 9 -3 80 -2
87 1 84 1 101 18 13 15 16 23 16 52 1 35 4 40 25 43 4 0 10 2 13 3 6 1 8 1 11
-2 2 -2 5 -4 6 -4 4 -2 2 -33 -3 -41 -2 -5 -4 -10 -6 -21 -1 -4 -1 -16 0 -21
1 -6 16 -19 26 -23 11 -4 16 -4 98 -4 54 0 89 1 94 2 9 3 20 12 25 23 4 8 12
17 16 17 4 0 12 -9 16 -17 6 -11 16 -20 26 -23 12 -3 82 -2 87 2 2 1 3 2 3 1
0 -1 1 0 3 2 1 2 2 8 1 17 l0 14 7 1 8 0 -9 1 c-11 0 -16 6 -17 19 0 15 10 30
31 51 12 12 14 15 14 30 0 10 -1 14 -5 21 -10 16 -7 35 6 47 25 23 23 52 -5
66 -9 5 -9 5 -90 6 -89 0 -89 0 -115 -13 -17 -9 -25 -9 -42 0 -21 11 -30 13
-61 13 -26 0 -27 0 -35 6 -5 3 -9 6 -9 7 -1 3 -3 8 -7 18 -2 4 -7 16 -10 25
-4 9 -11 25 -15 34 -5 9 -11 22 -14 29 -46 98 -53 109 -72 112 -13 2 -14 2
-40 -6 -25 -8 -35 -15 -45 -29 -3 -6 -7 -10 -8 -10 -2 0 -3 -1 -3 -2 0 -4 -6
-4 -22 0 -23 5 -33 5 -50 -1 -29 -10 -26 -7 -26 -25 0 -17 1 -22 5 -22 1 0 5
-3 9 -6 9 -9 8 -17 -6 -44 -8 -15 -7 -25 3 -48 5 -12 9 -22 9 -23 0 -2 1 -3 2
-3 1 0 0 -2 -3 -5 l-6 -6 -102 -1 -102 -1 -9 -6 c-10 -7 -16 -16 -21 -32 -4
-14 -10 -19 -24 -19 -14 0 -20 5 -24 19 -5 16 -11 25 -21 32 -8 5 -10 6 -25 6
-18 0 -27 -1 -27 -3 0 -1 -1 -2 -3 -2 -4 0 -14 -12 -18 -21 -2 -4 -3 -13 -3
-22 0 -13 -1 -15 -5 -21 l-6 -7 -6 6 c-3 3 -9 7 -12 8 -9 5 -26 18 -39 31 -7
6 -17 14 -22 17 -5 3 -10 7 -12 8 -1 2 -4 4 -7 5 -4 3 -37 24 -39 26 -1 1 -6
4 -12 9 -10 6 -12 7 -24 7 -6 0 -12 -1 -12 -2 0 -1 -1 -2 -2 -1 -2 0 -5 -4 -9
-8 -5 -8 -5 -9 -5 -30 0 -19 -1 -23 -4 -26 -4 -6 -8 -6 -13 -1 -4 3 -14 21
-19 33 -2 6 -20 26 -37 41 -18 16 -16 37 4 58 8 7 16 18 20 24 7 9 7 11 6 22
-1 21 -12 32 -39 40 -7 2 -17 7 -23 11 -6 3 -19 11 -29 16 -10 4 -35 16 -55
26 -44 21 -42 21 -54 19z m57 -104 c8 -8 8 -10 0 -18 -12 -10 -28 -5 -28 9 0
14 16 20 28 9z m74 2 c6 -6 5 -21 -1 -27 -7 -7 -18 -7 -27 0 -3 3 -6 6 -5 7 1
1 0 2 -1 2 -3 0 -3 7 1 9 1 0 1 1 -1 1 -1 0 1 3 5 6 9 7 23 8 29 2z m899 -41
c11 -10 4 -35 -9 -35 -9 0 -36 -9 -42 -13 -20 -16 -40 -14 -40 5 0 9 5 14 20
19 11 3 34 16 34 19 0 1 3 3 7 6 9 6 24 6 30 -1z m-1035 -71 c5 -5 5 -15 0
-20 -9 -9 -24 -2 -24 10 0 8 6 14 14 14 3 0 8 -2 10 -4z m959 -39 c12 -7 37
-25 41 -30 7 -9 6 -24 -2 -31 -5 -6 -7 -7 -15 -7 -11 0 -17 3 -39 18 -21 14
-25 19 -25 31 0 20 19 29 40 19z m-830 -8 c6 -6 9 -19 10 -38 2 -18 1 -19 -4
-24 -4 -4 -7 -5 -15 -5 -8 0 -11 1 -15 5 -5 5 -6 6 -4 24 1 28 8 42 19 42 3 0
7 -2 9 -4z m1094 -62 c5 -2 13 -9 13 -11 0 -3 12 -33 16 -42 3 -8 10 -15 25
-27 14 -11 17 -16 17 -30 0 -10 -1 -12 -6 -17 -6 -6 -7 -6 -21 -6 -12 0 -17 5
-25 25 -9 24 -14 31 -24 38 -5 4 -13 9 -18 12 -12 9 -15 13 -18 23 -2 9 0 22
6 29 7 7 24 11 35 6z m-1004 -24 c2 -2 3 -8 3 -14 0 -13 -6 -19 -20 -19 -14 0
-20 6 -20 20 0 12 4 18 15 20 10 2 18 -1 22 -7z m429 -29 c5 -5 5 -11 0 -15
-3 -4 -5 -5 -11 -6 -9 -2 -28 -9 -37 -14 -24 -14 -42 -8 -42 14 0 17 10 25 29
20 10 -2 46 1 49 4 2 2 9 0 12 -3z m465 -8 c11 -10 4 -27 -12 -30 -1 0 -3 -1
-4 -2 -3 -3 -10 1 -13 7 -2 6 1 18 7 25 5 5 16 6 22 0z m-973 -2 c5 -4 5 -14
1 -25 -4 -10 -3 -30 2 -39 2 -3 4 -6 5 -6 1 0 33 -22 41 -29 4 -3 9 -6 12 -8
l5 -2 -9 -6 -8 -5 -104 0 -103 0 -5 5 c-3 3 -6 5 -8 5 -1 0 -1 1 1 1 7 3 11
12 12 24 0 12 -2 17 -13 33 -8 11 -7 28 1 36 3 3 7 6 9 6 12 1 17 0 26 -3 10
-3 29 -3 50 1 4 1 11 1 15 0 10 -2 16 -1 35 8 18 9 28 10 35 4z m351 -22 c9
-3 9 -5 0 -8 -8 -3 -14 -3 -16 1 -1 3 4 8 6 6 0 -1 1 -1 1 1 0 3 1 3 9 0z m16
-1 c3 -3 3 -3 0 -6 -3 -4 -7 -2 -7 3 0 6 3 7 7 3z m686 -56 c7 -7 7 -23 0 -30
-5 -5 -6 -5 -15 -5 -9 0 -10 0 -15 5 -4 4 -5 7 -5 15 0 14 6 20 20 20 8 0 11
-1 15 -5z m-1406 -1 c6 -5 6 -13 2 -23 -7 -15 -10 -29 -9 -43 0 -16 -2 -20
-18 -37 -5 -6 -10 -12 -10 -13 0 -1 -3 -3 -7 -5 -6 -3 -7 -3 -10 0 -3 3 -4 9
-1 15 1 3 5 13 9 23 4 10 9 23 12 30 6 13 8 22 7 37 0 18 14 27 25 16z m445
-113 c8 -5 9 -20 1 -27 -7 -6 -40 -17 -55 -18 -11 0 -12 0 -18 6 -5 5 -6 7 -6
17 0 16 6 22 23 24 7 1 13 1 13 2 8 1 37 -2 42 -4z m-268 1 c1 0 5 -3 8 -6 5
-5 6 -7 6 -18 0 -11 -1 -13 -6 -18 -3 -3 -7 -6 -9 -6 -20 -1 -27 2 -32 13 -8
20 3 37 23 36 4 -1 8 -1 10 -1z m-112 -19 l-5 -5 -4 4 -5 5 4 4 5 5 4 -4 5 -5
-4 -4z m201 -25 c11 -10 3 -28 -11 -28 -9 0 -16 6 -16 16 0 14 17 22 27 12z
m4 -238 c5 -5 6 -7 6 -16 0 -15 -8 -23 -23 -23 -9 0 -11 1 -16 7 -9 8 -9 23
-1 32 9 9 24 9 34 0z m483 -59 l-5 -5 -4 4 -5 5 4 4 5 5 4 -4 5 -5 -4 -4z
m-355 5 c3 -3 5 -7 6 -10 2 -13 11 -27 26 -41 l15 -14 0 -13 c0 -11 -1 -13 -6
-18 -6 -6 -7 -6 -18 -6 -11 0 -12 0 -18 6 -4 4 -6 8 -6 12 0 9 -9 27 -15 31
-4 3 -8 3 -18 2 -29 -2 -28 -2 -31 3 -3 5 -3 6 1 12 2 4 7 10 11 13 4 4 12 11
18 17 13 12 26 14 35 6z m814 -10 c2 -1 3 -7 3 -13 0 -10 -1 -12 -7 -19 -4 -4
-7 -8 -6 -8 1 0 1 -1 -1 -2 -4 -2 -3 -31 1 -37 9 -12 0 -29 -15 -29 -15 0 -24
17 -15 29 14 20 15 40 4 53 -4 3 -4 22 0 27 3 5 22 14 25 12 1 -1 2 0 2 1 0 2
2 0 3 -4 2 -4 5 -8 6 -10z m-1134 -42 c7 -10 4 -23 -13 -59 -11 -22 -14 -24
-33 -23 -14 0 -19 19 -11 39 8 18 21 43 23 45 8 7 27 5 34 -2z m768 -24 c10
-3 15 -8 15 -16 0 -11 -6 -16 -22 -17 -11 -1 -12 -1 -16 3 -5 6 -5 19 0 25 5
7 13 8 23 5z m-662 -22 c5 -5 6 -7 6 -16 0 -15 -8 -23 -23 -23 -9 0 -11 1 -16
7 -9 8 -9 23 -1 32 9 9 24 9 34 0z m561 -36 c13 -4 34 -4 43 1 14 7 24 0 21
-14 -3 -12 -12 -16 -23 -11 -7 4 -29 4 -41 0 -20 -7 -32 -3 -32 12 0 15 11 19
32 12z m-492 -76 c1 0 5 -3 8 -6 5 -5 6 -7 6 -18 0 -11 -1 -13 -6 -18 -6 -6
-7 -6 -18 -6 -11 0 -12 0 -18 6 -5 5 -6 7 -6 17 0 14 3 20 12 24 5 2 8 2 22 1z
m848 -25 c7 -3 11 -13 11 -24 0 -14 -4 -21 -15 -26 -9 -5 -11 -7 -11 -14 1 -2
0 -3 -1 -3 -3 0 -2 -23 0 -25 2 -2 7 -3 13 -4 16 -2 18 -5 19 -30 2 -23 3 -27
13 -44 10 -16 7 -38 -5 -45 -6 -3 -27 -3 -30 -1 -2 2 -10 5 -19 8 -21 7 -25 9
-29 14 -5 6 0 12 14 16 22 8 26 26 13 54 -4 9 -8 17 -8 19 0 9 1 10 6 10 5 0
8 3 5 5 -1 1 -2 0 -3 -1 -2 -3 -28 -2 -40 1 -14 4 -18 9 -17 25 0 4 3 8 8 13
18 16 25 26 34 44 6 12 27 16 42 8z m-229 -2 c15 -9 13 -37 -4 -55 -10 -11
-33 -16 -44 -9 -8 5 -10 10 -8 25 1 21 14 38 30 42 8 2 21 0 26 -3z m-835 -95
c10 0 36 -38 38 -54 0 -8 0 -10 -5 -15 -10 -10 -24 -6 -44 14 -17 17 -20 22
-20 33 0 15 10 24 24 23 2 0 6 -1 7 -1z m752 -36 c8 -7 2 -19 -8 -19 -9 0 -13
10 -8 19 3 4 12 4 16 0z m-568 -25 c10 -5 14 -27 7 -40 -8 -16 -40 -16 -48 0
-5 8 -4 24 0 33 2 3 3 6 4 6 0 0 4 1 8 3 9 3 21 2 29 -2z m149 -37 c3 -5 7
-16 8 -26 3 -27 4 -37 3 -42 0 -11 -8 -17 -24 -16 -17 0 -24 15 -24 51 0 19 1
21 17 27 6 2 13 5 14 6 2 3 4 3 6 0z m445 -70 c3 -1 10 -6 15 -12 10 -11 27
-20 36 -20 3 0 10 2 15 5 13 8 15 6 15 -16 0 -28 -7 -39 -25 -39 -8 0 -15 4
-27 14 -2 2 -7 5 -12 7 -9 3 -11 3 -44 0 -22 -3 -31 3 -31 23 0 17 8 28 27 37
10 5 22 5 31 1z m-601 -38 c4 -6 4 -24 -1 -30 -7 -9 -27 -9 -34 0 -5 6 -5 24
0 30 7 9 27 9 35 0z m193 -47 c3 -2 -3 -9 -7 -9 -2 0 -3 -1 -3 -2 0 -2 -2 0
-4 3 -5 6 -5 7 0 11 3 4 7 3 14 -3z m429 -57 c11 -10 3 -28 -11 -28 -9 0 -16
6 -16 16 0 14 17 22 27 12z m462 -5 c3 -3 3 -3 0 -6 -4 -5 -11 1 -7 6 4 4 4 4
7 0z m-559 -29 c4 -1 10 -8 10 -11 0 -6 -8 -14 -16 -19 -39 -20 -41 -21 -52
-15 -8 4 -12 14 -12 27 0 12 4 18 15 20 7 1 48 -1 55 -2z m-509 -26 c14 -7 30
-9 43 -6 5 2 11 3 14 3 2 -1 6 -1 8 -1 8 0 14 -9 14 -20 0 -14 -4 -17 -24 -22
-25 -6 -29 -9 -31 -21 -1 -2 -2 -4 -3 -5 -1 0 -2 -2 -2 -3 0 -5 -8 -11 -13
-11 -6 0 -13 7 -20 20 -3 5 -10 15 -15 21 -15 15 -16 17 -16 29 0 22 19 29 45
16z m330 -18 c7 -4 9 -8 6 -15 -4 -15 -28 -22 -38 -13 -10 9 -5 25 8 29 8 1
19 1 24 -1z m-150 -9 c4 -4 5 -7 5 -15 0 -14 -6 -20 -20 -20 -14 0 -20 6 -20
20 0 14 6 20 20 20 8 0 11 -1 15 -5z m811 -14 l-5 -5 -4 4 -5 5 4 4 5 5 4 -4
5 -5 -4 -4z m149 -32 c3 -5 3 -5 0 -10 -2 -3 -5 -5 -7 -5 -2 0 -5 2 -7 5 -3 5
-3 5 0 10 2 3 5 5 7 5 2 0 5 -2 7 -5z m-348 -22 c-1 -7 -6 -33 -9 -48 -3 -15
-13 -23 -29 -22 -16 1 -23 6 -27 20 -4 17 2 30 21 42 6 4 12 8 17 13 2 2 7 5
11 6 8 3 8 3 12 0 3 -3 4 -6 4 -11z m-977 -5 c5 -5 5 -15 0 -20 -9 -9 -24 -2
-24 10 0 8 6 14 14 14 3 0 8 -2 10 -4z m160 -34 c5 -6 5 -12 0 -17 -11 -13
-29 3 -18 17 4 5 13 5 18 0z m498 -53 c4 -5 5 -7 5 -19 0 -14 -3 -20 -11 -23
-4 -1 -17 5 -17 8 0 1 -1 6 -3 10 -1 4 -2 11 -2 14 0 14 18 20 28 10z"/>
<path d="M1350 3223 c-5 -1 -8 -2 -8 -3 0 -1 -1 -2 -3 -2 -1 0 -4 -2 -5 -4 -8
-9 -12 -23 -21 -72 -5 -28 -10 -53 -10 -55 0 -2 -2 -11 -4 -20 -3 -18 -3 -25
3 -38 4 -8 16 -20 26 -24 9 -4 36 -4 49 1 17 6 43 10 52 8 9 -2 19 -8 26 -17
9 -11 28 -15 47 -8 4 2 13 3 20 3 20 -1 35 6 42 18 2 4 7 22 10 39 8 38 8 41
9 46 0 1 1 3 1 3 1 0 2 3 2 6 0 3 2 14 4 25 8 40 -5 58 -45 65 -21 3 -24 3
-54 9 -56 11 -126 23 -130 23 -2 -1 -7 -2 -11 -3z m107 -64 c3 -3 3 -4 0 -6
-4 -5 -11 1 -7 6 4 4 4 4 7 0z m79 -27 c9 -8 9 -26 0 -34 -8 -9 -26 -9 -34 0
-11 10 -9 33 3 38 2 1 9 2 15 2 9 0 11 -1 16 -6z"/>
</g>
</svg>
