<?xml version="1.0" standalone="no"?>
<!DOCTYPE svg PUBLIC "-//W3C//DTD SVG 20010904//EN"
 "http://www.w3.org/TR/2001/REC-SVG-20010904/DTD/svg10.dtd">
<svg version="1.0" xmlns="http://www.w3.org/2000/svg"
 width="1000.000000pt" height="2850.000000pt" viewBox="0 0 1000.000000 2850.000000"
 preserveAspectRatio="xMidYMid meet">
<metadata>
Created by potrace 1.15, written by Peter Selinger 2001-2017
</metadata>
<g transform="translate(0.000000,2850.000000) scale(0.500000,-0.500000)"
fill="#000000" stroke="none">
<path d="M1271 3812 c-11 -3 -19 -8 -27 -19 -15 -17 -19 -21 -24 -21 -7 0 -30
-12 -35 -19 -9 -11 -9 -17 -9 -80 0 -48 1 -61 3 -64 2 -2 2 -4 2 -5 -2 -3 12
-7 22 -7 5 0 11 0 11 -2 1 -1 2 -1 2 1 0 5 10 9 21 9 19 0 28 -9 28 -28 0 -19
-9 -28 -28 -28 -11 0 -21 4 -21 9 0 2 0 2 -2 0 -1 -1 -4 -2 -8 -2 -11 1 -18 0
-17 -2 0 -1 -3 -2 -7 -3 -5 -1 -10 -3 -13 -6 l-4 -4 -142 0 c-140 0 -153 0
-153 -3 0 -1 -1 -2 -3 -2 -4 0 -14 -12 -18 -21 -3 -7 -3 -22 -3 -124 0 -112 0
-116 4 -125 6 -12 9 -15 21 -21 l11 -5 141 0 142 1 6 -6 6 -6 0 -84 c-1 -80
-1 -84 3 -91 4 -9 5 -9 23 -8 l11 0 0 -9 0 -9 -11 0 c-18 1 -21 0 -17 -2 2 -2
2 -2 -2 -2 -3 0 -7 -1 -9 -3 -2 -2 -3 -3 -3 -2 0 1 -2 0 -4 -3 -3 -5 -4 -6
-20 -9 -8 -1 -14 -1 -24 1 -27 5 -41 1 -49 -14 -13 -25 -18 -30 -40 -34 -25
-5 -39 1 -63 26 -26 28 -21 27 -98 27 -65 0 -76 0 -76 -3 0 -1 -1 -2 -3 -2 -4
0 -14 -12 -18 -21 -2 -6 -3 -15 -3 -41 0 -27 -1 -35 -3 -40 -2 -3 -4 -6 -5 -5
-1 1 -2 -1 -3 -3 0 -4 -1 -3 -1 2 0 8 -7 19 -12 21 -10 3 -29 2 -37 -3 -9 -6
-24 -6 -30 1 -4 4 -5 7 -5 14 0 14 4 18 20 23 21 6 28 16 26 37 0 2 -2 7 -4
10 -2 3 -6 11 -9 16 -13 25 -34 57 -37 57 -1 1 -9 1 -16 0 -13 -1 -13 -1 -17
-9 -2 -4 -4 -12 -5 -18 -2 -18 -6 -20 -31 -18 -22 1 -40 5 -46 11 -7 6 -10 20
-7 31 3 9 5 13 16 21 10 8 18 16 28 29 5 6 10 12 13 13 6 4 23 3 32 -1 6 -3
10 -3 19 -2 15 2 21 6 27 19 4 10 28 82 40 124 3 9 6 19 7 21 7 17 8 34 3 43
-3 8 -16 13 -33 13 -25 1 -33 8 -33 28 0 19 9 28 28 28 11 0 16 -2 24 -10 6
-5 7 -5 20 -5 13 1 16 2 19 6 4 3 10 22 22 64 10 32 18 61 19 63 0 2 5 20 11
39 12 40 12 48 2 64 -5 9 -13 14 -58 39 -12 6 -26 14 -32 18 -6 4 -17 10 -24
14 -7 3 -18 9 -23 13 -6 3 -20 10 -31 16 -18 9 -22 11 -32 11 -17 0 -21 -4
-22 -23 -1 -18 -1 -17 8 -22 35 -17 40 -23 40 -40 0 -11 -1 -13 -6 -18 -6 -6
-7 -6 -19 -6 -13 -1 -61 22 -65 30 -4 9 -4 32 2 34 1 0 1 6 0 13 -3 25 -10 28
-58 26 -37 -1 -38 -1 -38 -3 0 -1 -1 -2 -2 -2 -4 0 -15 -10 -19 -18 -11 -22
-21 -30 -36 -29 -15 1 -24 8 -34 29 -5 9 -10 12 -24 12 -11 0 -12 0 -21 -10
-21 -22 -40 -21 -63 3 l-11 11 -13 0 c-9 0 -13 -1 -16 -4 -5 -5 -11 -21 -12
-31 -2 -19 -10 -26 -28 -26 -18 0 -26 7 -28 26 0 5 -3 13 -5 18 -2 5 -4 11 -4
13 0 2 -1 2 -1 1 -1 -2 -6 -3 -15 -3 -9 0 -14 -1 -14 -2 0 -2 -1 -2 -1 -1 -1
0 -3 -3 -5 -8 -4 -9 -4 -18 -4 -104 l0 -93 7 -23 c6 -17 8 -26 8 -38 0 -11 1
-18 4 -22 4 -8 17 -16 28 -18 17 -3 24 -11 24 -28 0 -18 -8 -26 -26 -28 -21
-2 -35 -9 -41 -22 -4 -8 -4 -12 -4 -73 0 -80 0 -81 29 -95 22 -11 22 -11 24
-45 1 -11 2 -20 4 -22 1 -2 1 -3 -1 -4 -1 0 -4 -2 -5 -4 -2 -1 -7 -3 -10 -3
-4 -1 -8 -2 -10 -3 -1 -1 -4 -2 -7 -3 -9 -2 -19 -13 -22 -23 -2 -9 -2 -45 1
-58 2 -9 10 -20 21 -31 5 -4 12 -13 16 -20 15 -26 21 -32 35 -39 7 -4 9 -4 21
-2 7 1 18 4 23 7 16 7 29 7 37 -1 5 -5 6 -7 6 -17 0 -14 -4 -19 -24 -28 -31
-16 -47 -19 -72 -13 -5 1 -11 1 -13 1 -28 -7 -33 -9 -41 -21 -12 -17 -12 -15
-12 -155 0 -138 0 -136 11 -145 6 -4 17 -8 25 -8 30 0 39 0 54 -2 24 -3 28 -6
28 -23 0 -10 -4 -18 -12 -27 -18 -19 -23 -34 -21 -57 3 -30 1 -39 -10 -44 -8
-4 -25 -5 -31 -1 -5 3 -8 3 -23 1 -7 -1 -17 -6 -17 -9 0 -1 -1 -3 -1 -4 0 -1
-1 -2 -1 -3 -1 -1 -2 -11 -2 -23 0 -33 6 -43 29 -52 7 -2 14 -5 16 -6 9 -3 9
-21 0 -24 -2 -1 -9 -4 -16 -6 -6 -3 -14 -7 -17 -10 -11 -10 -12 -15 -12 -74 0
-65 0 -65 21 -88 22 -23 22 -37 2 -58 -16 -17 -19 -22 -19 -31 0 -10 8 -24 20
-32 9 -7 13 -13 15 -22 3 -21 14 -36 29 -41 4 -1 17 -2 29 -2 31 0 41 5 53 29
8 15 10 17 17 17 7 0 9 -3 16 -15 7 -15 13 -21 24 -27 9 -4 11 -4 39 -3 33 1
34 1 34 3 0 1 1 2 3 2 4 0 14 12 18 21 2 6 3 16 3 49 0 41 0 43 -5 53 -3 6 -9
13 -14 18 -21 17 -21 18 -21 30 0 12 0 13 21 30 5 5 11 12 14 18 l5 11 0 101
-1 100 -5 8 c-6 10 -18 16 -39 18 -12 2 -20 10 -20 23 0 13 8 21 20 23 18 2
31 7 37 15 5 5 8 17 8 28 0 8 4 18 9 24 2 1 3 1 3 0 0 -1 1 -2 3 -2 2 0 3 -1
3 -2 0 -1 1 -2 3 -2 5 0 13 -10 13 -18 0 -8 -2 -12 -14 -26 -5 -5 -8 -11 -8
-14 0 -3 -1 -4 -2 -2 -3 4 -4 -6 -3 -26 1 -10 2 -19 3 -20 1 -1 2 -3 3 -6 2
-8 13 -19 23 -23 17 -6 88 -3 137 6 52 10 106 39 138 74 13 14 13 13 22 27 17
23 38 74 42 98 1 4 2 7 2 8 4 6 11 65 12 100 1 34 -1 41 -21 60 -14 14 -15 17
-14 30 0 5 12 21 15 21 5 0 17 -8 26 -17 7 -6 13 -10 19 -12 5 -1 12 -3 15 -4
3 -1 10 -2 15 -2 5 0 15 -1 22 -2 8 -1 45 -2 92 -2 l79 0 8 -6 c4 -3 7 -6 6
-6 -2 0 -15 -25 -15 -28 0 -2 -25 -54 -29 -62 -2 -3 -6 -13 -10 -22 -7 -17 -7
-17 -6 -37 l1 -20 -6 -6 c-3 -3 -9 -9 -14 -13 -5 -4 -9 -10 -11 -16 -2 -5 -4
-10 -5 -12 -1 -5 -1 -6 -2 -10 0 -5 -13 -18 -22 -24 -8 -5 -14 -12 -27 -33
-31 -46 -50 -74 -64 -91 -14 -16 -32 -37 -39 -43 -12 -9 -44 -33 -46 -33 -2 0
0 -29 3 -29 1 0 5 -1 8 -2 3 0 7 0 8 1 2 1 8 3 13 3 10 1 11 1 20 -6 4 -4 8
-8 8 -10 0 -5 13 -16 20 -17 3 0 8 -1 11 -3 6 -4 9 -1 19 18 11 21 15 25 29
25 13 0 18 -4 27 -19 8 -13 16 -35 16 -42 0 -7 -8 -31 -11 -33 -1 -1 -1 -2 0
-2 1 0 -2 -2 -6 -5 -4 -3 -10 -7 -13 -10 -6 -6 -10 -6 -14 0 -4 4 -4 5 -1 15
3 10 3 36 1 39 -1 0 -5 1 -9 2 -4 0 -11 2 -14 3 -7 3 -7 3 -7 0 0 -5 -18 -34
-22 -36 -6 -3 -21 -3 -26 0 -2 1 -6 6 -8 11 -2 5 -5 9 -6 10 -3 2 -33 2 -36 0
-2 -1 -3 -17 0 -17 0 0 3 -5 5 -11 2 -7 7 -21 10 -31 4 -10 8 -23 10 -29 2 -5
8 -24 14 -41 6 -17 14 -40 17 -52 12 -38 18 -46 38 -50 10 -2 13 -1 23 2 37
13 81 22 172 36 8 1 18 3 22 3 26 4 35 16 36 48 0 21 5 37 14 46 4 4 9 7 11 7
4 0 12 -14 16 -28 1 -6 3 -10 4 -10 1 0 2 -2 3 -4 1 -5 28 -28 40 -34 11 -5
21 -6 55 -1 14 2 29 4 34 4 86 10 150 18 163 21 11 3 28 5 54 6 21 1 53 4 72
6 47 6 51 6 59 0 3 -2 6 -5 6 -6 0 -1 2 -6 4 -11 5 -12 20 -46 24 -58 2 -5 5
-13 6 -16 2 -3 3 -7 3 -8 1 -5 9 -21 14 -25 9 -11 29 -15 41 -9 3 2 16 8 30
15 15 7 28 14 33 19 12 11 15 14 15 11 0 -1 1 -1 4 0 2 1 5 2 5 1 2 -1 21 6
36 13 7 3 23 11 36 17 73 35 71 34 77 45 3 6 4 11 4 20 l-1 11 -13 9 c-7 6
-14 10 -15 10 -1 0 -5 3 -8 6 l-6 7 3 16 c4 29 4 30 -11 61 -8 15 -16 31 -19
35 -6 9 -21 38 -23 45 -2 6 -11 25 -27 56 -6 12 -18 34 -26 49 -8 15 -18 35
-23 44 -5 9 -13 24 -18 34 -5 10 -13 24 -17 32 -24 45 -32 60 -55 104 -21 40
-26 46 -46 48 -9 1 -13 0 -42 -12 -18 -7 -36 -15 -40 -17 -5 -2 -9 -4 -10 -4
0 0 -6 -2 -11 -5 -6 -2 -32 -13 -58 -24 -67 -28 -70 -29 -75 -44 -4 -12 -4
-21 3 -35 4 -7 11 -22 16 -33 5 -11 17 -34 25 -52 27 -56 28 -57 25 -62 -1 -3
-5 -6 -9 -7 -5 -1 -45 -5 -91 -9 -46 -4 -87 -7 -91 -8 -4 0 -15 -1 -24 -2 -9
-1 -19 -2 -22 -2 -3 0 -13 -1 -22 -2 -25 -2 -51 -5 -67 -7 -37 -6 -49 5 -50
47 -1 10 0 14 3 17 7 8 27 3 47 -11 10 -8 12 -8 26 -8 12 0 16 1 19 4 2 1 4 3
5 3 1 0 2 1 2 2 0 1 7 14 17 28 9 14 20 32 25 40 5 8 14 22 20 33 7 10 13 20
14 22 1 2 3 5 4 7 4 6 22 36 22 37 0 0 4 8 9 16 5 9 12 20 15 26 3 5 12 21 19
35 13 23 29 52 52 97 5 10 9 19 9 20 0 2 5 5 12 8 6 3 16 8 21 10 8 4 13 8 17
14 7 11 8 13 9 31 1 17 6 26 16 30 3 1 5 3 5 5 0 1 1 3 3 4 6 4 8 24 4 41 -3
15 12 21 23 10 3 -4 6 -8 6 -8 0 -1 2 -6 5 -12 2 -5 6 -14 8 -20 5 -16 3 -21
-12 -29 -7 -4 -14 -9 -16 -14 -3 -4 -4 -7 -4 -7 1 0 0 -1 -1 -3 -8 -9 5 -33
22 -42 13 -6 19 -6 32 0 9 5 11 7 19 23 9 19 14 22 24 19 4 -2 8 -6 14 -19 8
-16 10 -18 19 -23 l11 -5 55 0 c59 0 65 1 73 9 4 5 9 29 7 32 -4 4 -2 24 2 30
7 9 26 11 36 3 2 -1 7 -8 10 -14 8 -15 15 -23 26 -31 6 -3 10 -7 10 -8 0 0 2
0 4 1 1 1 7 2 12 3 9 1 23 11 21 15 -1 1 0 2 1 3 1 1 2 8 2 18 -1 23 -7 38
-21 51 -16 15 -16 39 0 54 14 13 20 28 21 54 0 23 -5 36 -21 48 -14 11 -19 12
-47 12 l-24 0 -20 11 -21 10 -54 0 -54 0 -11 -6 c-6 -3 -13 -9 -15 -12 -7 -9
-17 -15 -25 -15 -8 0 -18 6 -25 15 -2 3 -9 9 -15 12 l-11 6 -45 0 -45 0 -6 6
-6 6 0 102 0 102 6 6 6 6 158 0 c155 0 169 0 169 3 0 1 1 2 3 2 7 0 21 22 21
33 0 12 -14 30 -27 37 -12 6 -14 12 -10 28 3 14 3 25 0 31 -3 5 -3 5 -3 1 -1
-7 -8 -7 -21 0 -13 8 -15 11 -15 23 0 13 3 17 18 24 32 14 38 17 43 26 3 4 7
8 7 9 1 1 3 5 5 11 4 13 4 36 0 46 -4 9 -14 21 -18 21 -2 0 -3 1 -3 2 0 2 -2
2 -75 3 -75 1 -70 2 -104 -9 l-15 -5 -20 7 -21 7 -46 0 -46 0 -6 6 -6 6 0 77
c0 51 -1 79 -2 84 -3 9 -10 14 -23 15 -6 1 -11 2 -12 2 0 0 -2 0 -3 -2 -5 -5
-22 -4 -28 2 -7 7 -7 23 0 30 6 6 23 7 28 2 1 -2 3 -2 3 -2 1 1 5 1 9 1 4 0
10 1 13 2 6 3 14 10 13 12 0 1 -1 5 -2 10 -1 9 -11 22 -16 22 -2 0 -3 1 -3 2
0 1 -1 2 -2 2 -7 1 -192 1 -197 0z m84 -54 c7 -6 7 -19 1 -25 -6 -7 -19 -7
-25 -1 -7 6 -7 19 -1 25 6 7 19 7 25 1z m-627 -161 l-5 -5 -4 4 -5 5 4 4 5 5
4 -4 5 -5 -4 -4z m-210 6 c9 -9 10 -35 1 -44 -5 -7 -17 -7 -23 0 -8 9 -7 36 2
45 4 5 14 5 20 -1z m-225 -87 c7 -6 7 -19 1 -25 -6 -7 -19 -7 -25 -1 -7 6 -7
19 -1 25 6 7 19 7 25 1z m704 -35 c13 -7 31 -11 46 -11 11 0 14 -1 18 -5 6 -4
6 -6 6 -20 0 -14 0 -16 -6 -20 -4 -4 -7 -5 -18 -5 -13 0 -15 1 -27 12 -2 2 -5
4 -7 6 -4 3 -30 14 -35 14 -6 0 -12 8 -12 17 0 17 14 22 35 12z m587 -8 c3 -2
10 -8 16 -13 6 -6 11 -10 12 -10 1 0 4 -3 6 -7 l4 -8 -4 -4 -5 -5 -12 5 c-6 3
-12 6 -13 7 0 1 -5 3 -10 5 -10 5 -18 14 -18 20 0 11 13 16 24 10z m-1111 -29
c3 -3 6 -7 7 -9 1 -11 9 -21 22 -31 15 -11 17 -16 15 -34 -1 -10 -8 -18 -16
-18 -6 0 -27 -7 -34 -13 -10 -6 -16 -20 -23 -52 -3 -15 -6 -30 -7 -32 0 -2 -4
-16 -7 -30 -3 -14 -7 -31 -9 -37 -1 -6 -4 -19 -6 -29 -5 -25 -9 -36 -20 -48
-10 -10 -10 -10 -19 -9 -8 1 -9 0 -11 -3 -11 -21 -15 -25 -26 -25 -11 0 -17 6
-17 17 0 8 2 11 15 25 4 4 7 9 7 10 0 1 1 2 2 2 2 0 2 1 2 1 -1 1 1 6 3 12 3
6 5 13 5 15 0 8 6 15 16 21 6 3 11 6 13 7 1 1 4 4 6 6 3 2 7 8 10 14 l5 10 0
51 c-1 57 -2 61 -18 76 -21 19 -21 29 0 48 11 10 17 23 17 38 0 10 1 12 6 18
l6 6 25 -1 c24 0 25 0 31 -6z m906 -31 c6 -4 6 -6 6 -20 0 -14 0 -16 -6 -20
-4 -4 -7 -5 -18 -5 -11 0 -14 1 -18 5 -6 4 -6 6 -6 20 0 14 0 16 6 20 4 4 7 5
18 5 11 0 14 -1 18 -5z m337 -15 c5 -5 5 -11 0 -16 -10 -10 -27 5 -16 16 4 4
12 4 16 0z m-507 -5 c12 -7 14 -33 3 -43 -8 -9 -32 -9 -40 0 -9 8 -9 32 0 41
7 7 27 8 37 2z m-98 -30 c5 -5 5 -6 4 -18 -1 -6 -2 -22 -2 -34 -2 -27 -4 -31
-15 -31 -11 0 -13 4 -15 31 0 12 -1 28 -2 34 -1 12 -1 13 4 18 4 4 7 5 13 5 6
0 9 -1 13 -5z m-134 -5 c10 -9 3 -26 -10 -26 -8 0 -15 7 -15 15 0 13 16 20 25
11z m-674 -7 c6 -4 6 -6 6 -20 0 -14 0 -16 -6 -20 -4 -4 -7 -5 -18 -5 -11 0
-14 1 -18 5 -6 4 -6 6 -6 20 0 14 0 16 6 20 4 4 7 5 18 5 11 0 14 -1 18 -5z
m305 -5 c5 -5 6 -7 6 -17 0 -10 -1 -12 -6 -17 -5 -5 -7 -6 -17 -6 -10 0 -12 1
-17 6 -5 5 -6 7 -6 17 0 10 1 12 6 17 5 5 7 6 17 6 10 0 12 -1 17 -6z m-416
-37 c3 -3 4 -7 4 -14 0 -13 -6 -19 -19 -19 -13 0 -19 6 -19 19 0 14 5 19 19
19 8 0 11 -1 15 -5z m1245 -48 c3 -3 3 -3 0 -6 -3 -3 -3 -3 -6 0 -3 2 -3 3 -1
6 4 4 4 4 7 0z m-851 -46 l-5 -5 -4 4 -5 5 4 4 5 5 4 -4 5 -5 -4 -4z m796 -95
c5 -6 5 -12 0 -18 -7 -8 -22 -2 -22 9 0 11 15 17 22 9z m-1143 -4 c7 -3 12
-13 12 -25 0 -13 -3 -17 -18 -33 -18 -19 -26 -24 -37 -24 -14 0 -19 5 -21 21
0 7 -2 15 -3 19 -1 7 0 22 2 20 1 -1 3 0 4 1 2 1 6 4 10 5 5 1 8 4 9 6 4 11
25 16 42 10z m1004 -66 c7 -6 7 -19 1 -25 -6 -6 -19 -7 -24 -2 -5 5 -5 22 -1
27 5 6 18 5 24 0z m-812 -56 c17 -29 40 -81 51 -119 7 -24 6 -19 13 -52 3 -14
7 -32 9 -40 7 -24 7 -27 5 -45 -3 -32 5 -44 36 -58 8 -3 12 -11 12 -24 0 -20
-6 -25 -33 -28 -24 -2 -25 -2 -43 -11 -19 -8 -21 -8 -44 -10 -10 -1 -18 -2
-19 -2 0 0 -3 2 -7 6 l-6 6 1 194 c1 197 1 203 8 203 1 0 2 2 2 3 0 2 2 0 4
-4 3 -4 8 -13 11 -19z m923 -23 l-5 -5 -4 4 -5 5 4 4 5 5 4 -4 5 -5 -4 -4z
m-180 -21 c5 -5 5 -15 0 -20 -9 -9 -24 -2 -24 10 0 8 6 14 14 14 3 0 8 -2 10
-4z m-623 -15 c3 -3 3 -3 0 -6 -3 -3 -3 -3 -6 0 -3 2 -3 3 -1 6 4 4 4 4 7 0z
m489 -60 l-5 -5 -4 4 -5 5 4 4 5 5 4 -4 5 -5 -4 -4z m433 5 c5 -5 6 -7 6 -16
0 -9 -1 -11 -7 -16 -5 -6 -7 -7 -16 -7 -9 0 -11 1 -16 7 -9 8 -9 23 -1 32 9 9
24 9 34 0z m336 -22 c11 -10 3 -28 -11 -28 -9 0 -16 6 -16 16 0 14 17 22 27
12z m-1036 -23 c4 -7 5 -11 5 -24 0 -16 0 -17 -7 -27 -5 -5 -8 -9 -9 -8 -1 5
-9 10 -14 10 -2 0 -7 3 -10 6 -5 5 -6 7 -6 16 0 12 4 21 11 24 8 3 19 14 19
19 0 3 1 3 3 -2 2 -3 5 -10 8 -14z m335 -43 c5 -5 6 -7 6 -17 0 -10 -1 -12 -6
-17 -5 -5 -7 -6 -17 -6 -10 0 -12 1 -17 6 -5 5 -6 7 -6 17 0 10 1 12 6 17 5 5
7 6 17 6 10 0 12 -1 17 -6z m-822 -56 c1 0 5 -3 8 -6 5 -5 6 -7 6 -15 0 -13 5
-37 10 -48 7 -15 6 -28 -2 -35 -5 -6 -7 -7 -16 -7 -15 0 -21 7 -23 24 -1 15
-6 31 -12 43 -9 18 -6 37 7 43 5 2 8 2 22 1z m969 -3 c3 -3 3 -3 0 -6 -3 -3
-3 -3 -6 0 -3 2 -3 3 -1 6 4 4 4 4 7 0z m-593 -124 l-5 -5 -4 4 -5 5 4 4 5 5
4 -4 5 -5 -4 -4z m617 -53 c4 -6 4 -24 -1 -30 -7 -9 -27 -9 -34 0 -5 6 -5 24
0 30 7 9 27 9 35 0z m-211 2 c5 -5 5 -15 1 -36 -3 -18 -8 -25 -15 -25 -8 0
-12 6 -12 16 0 13 5 38 9 44 5 5 12 6 17 1z m-751 -17 c17 -5 25 -20 21 -38
-5 -20 -26 -26 -50 -14 -14 7 -22 18 -22 32 0 12 4 18 13 21 10 3 27 2 38 -1z
m705 -112 c4 -4 4 -5 3 -20 0 -10 -3 -20 -6 -28 -3 -7 -5 -15 -5 -18 0 -12 -5
-32 -8 -35 -5 -5 -15 -5 -20 0 -4 4 -4 6 -3 18 0 7 1 15 2 18 1 3 1 17 2 32 0
26 0 28 5 33 7 8 21 8 30 0z m670 -20 c4 -4 4 -6 3 -21 -2 -18 1 -29 8 -43 5
-9 7 -24 3 -31 -2 -4 -33 -28 -42 -33 -18 -9 -32 5 -23 23 2 3 9 13 16 23 7 9
13 20 14 23 2 8 0 27 -4 36 -7 15 -1 28 13 28 5 0 9 -1 12 -5z m-1441 -196 c4
-4 5 -7 5 -15 0 -14 -6 -20 -20 -20 -14 0 -20 6 -20 20 0 14 6 20 20 20 8 0
11 -1 15 -5z m1309 -3 c5 -6 5 -12 0 -18 -7 -8 -22 -2 -22 9 0 11 15 17 22 9z
m-164 -20 c5 -5 6 -7 6 -17 0 -10 -1 -12 -6 -17 -5 -5 -7 -6 -17 -6 -10 0 -12
1 -17 6 -5 5 -6 7 -6 17 0 10 1 12 6 17 5 5 7 6 17 6 10 0 12 -1 17 -6z m-407
-68 c6 -5 7 -18 2 -22 -2 -1 -3 -4 -3 -6 0 -2 -1 -4 -2 -5 -2 -1 -3 -10 -1
-21 2 -9 7 -12 27 -13 18 -2 25 -8 25 -23 0 -9 -1 -11 -6 -16 -7 -7 -15 -8
-31 -4 -6 1 -21 3 -34 3 -22 1 -23 1 -29 7 -5 5 -6 10 -5 23 0 2 2 7 6 9 29
28 28 26 25 50 -1 12 -1 15 2 18 5 6 18 5 24 0z m637 0 c5 -5 5 -11 0 -16 -10
-10 -27 5 -16 16 4 4 12 4 16 0z m-398 -38 c5 -5 5 -11 0 -16 -10 -10 -27 5
-16 16 4 4 12 4 16 0z m531 -19 c2 -1 8 -9 12 -16 4 -7 12 -16 17 -21 27 -23
26 -22 26 -35 0 -19 -7 -28 -21 -26 -13 2 -20 8 -30 23 -6 9 -14 18 -20 22
-20 14 -23 18 -23 31 0 14 3 20 12 24 7 3 21 2 27 -2z"/>
</g>
</svg>
