<?xml version="1.0" standalone="no"?>
<!DOCTYPE svg PUBLIC "-//W3C//DTD SVG 20010904//EN"
 "http://www.w3.org/TR/2001/REC-SVG-20010904/DTD/svg10.dtd">
<svg version="1.0" xmlns="http://www.w3.org/2000/svg"
 width="1000.000000pt" height="2850.000000pt" viewBox="0 0 1000.000000 2850.000000"
 preserveAspectRatio="xMidYMid meet">
<metadata>
Created by potrace 1.15, written by Peter Selinger 2001-2017
</metadata>
<g transform="translate(0.000000,2850.000000) scale(0.500000,-0.500000)"
fill="#000000" stroke="none">
<path d="M1225 3810 c-9 -4 -16 -15 -18 -26 -1 -4 -2 -7 -3 -8 0 -1 -1 -4 -1
-8 -1 -5 -4 -16 -7 -25 -6 -17 -6 -18 -6 -52 0 -45 1 -49 15 -56 6 -3 12 -5
14 -5 2 0 5 -1 7 -2 2 -1 4 -1 5 1 4 4 15 4 15 0 0 -1 1 -4 3 -5 5 -4 4 -15
-2 -20 -4 -4 -17 -6 -17 -2 0 1 -1 1 -4 0 -2 -1 -6 -2 -9 -3 -3 0 -9 -3 -14
-5 -7 -3 -9 -5 -11 -13 -1 -5 -2 -10 -2 -10 1 -1 -1 -4 -5 -8 l-6 -6 -116 1
c-64 0 -119 0 -122 -1 l-7 -1 0 -18 c0 -13 -1 -18 -2 -18 -2 0 4 -2 12 -4 9
-3 16 -6 18 -9 4 -4 5 -15 2 -18 -1 -1 -4 -10 -8 -20 -6 -15 -14 -27 -18 -27
-3 0 -6 5 -7 13 -6 40 -18 51 -60 54 -14 1 -19 4 -24 14 -12 23 -21 31 -35 31
-6 0 -10 -1 -16 -7 -15 -13 -14 -10 -14 -140 1 -136 -1 -126 24 -125 l14 0 0
-6 c1 -5 1 -5 2 3 1 12 9 18 25 18 19 0 28 -9 28 -29 -1 -10 -5 -20 -15 -30
-2 -3 -8 -10 -12 -16 -10 -15 -15 -18 -21 -18 -9 1 -28 -5 -35 -11 -7 -6 -10
-17 -10 -37 0 -19 3 -29 12 -47 10 -21 11 -27 6 -45 -4 -14 -4 -20 -3 -37 1
-19 1 -22 -4 -35 -10 -26 -11 -29 -12 -72 -1 -53 -3 -91 -5 -122 -1 -30 -1
-51 1 -58 0 -3 5 -12 9 -20 13 -25 11 -34 -6 -53 -5 -4 -9 -10 -9 -12 -1 -3
-3 -5 -5 -6 -3 0 -5 -8 -6 -19 0 -1 -2 -4 -3 -7 -7 -16 -7 -38 -2 -46 8 -11
10 -21 9 -47 0 -15 1 -30 3 -35 5 -16 0 -27 -13 -34 l-7 -4 -1 -19 c0 -18 0
-20 4 -21 9 -3 14 -12 14 -25 0 -11 -1 -13 -6 -18 -6 -6 -8 -7 -20 -6 -4 0
-11 -1 -16 -2 -5 -2 -10 -3 -12 -3 -9 -2 -19 -14 -27 -33 -11 -28 -33 -74 -46
-97 -5 -8 -9 -15 -10 -17 -2 -6 -22 -37 -25 -41 -1 -1 -7 -9 -13 -18 -7 -9
-12 -16 -13 -17 -1 -1 -5 -6 -11 -13 -10 -13 -12 -22 -10 -36 2 -11 17 -28 50
-54 41 -33 90 -79 127 -119 10 -10 14 -12 26 -12 13 0 17 2 28 14 l9 10 -1 14
c-1 13 -1 14 -11 25 -13 14 -14 21 -6 29 6 5 12 5 25 -1 12 -6 33 -7 40 -1 3
3 34 51 34 53 0 1 2 4 4 7 2 3 11 20 21 39 19 38 25 47 31 47 4 0 4 1 4 14 0
11 1 15 7 30 8 19 9 26 4 52 -4 17 -4 18 1 23 2 3 7 8 11 11 16 10 24 23 33
55 7 23 7 24 5 30 0 2 -1 6 -2 9 -2 8 -7 13 -18 20 -20 12 -23 16 -23 30 0 18
7 32 18 36 2 1 9 2 16 3 21 2 37 13 41 29 2 6 -3 25 -8 33 -6 9 -11 20 -11 25
0 2 3 7 8 10 11 11 23 23 25 26 3 4 13 4 15 0 1 -2 10 -20 20 -40 10 -22 20
-40 25 -45 13 -14 16 -20 21 -33 2 -7 5 -13 5 -15 1 -7 6 -19 10 -24 8 -10 19
-15 39 -16 27 -2 32 -11 21 -36 -8 -17 -8 -31 0 -43 8 -14 7 -25 -3 -34 -5 -5
-11 -10 -15 -13 -41 -27 -74 -49 -76 -49 0 0 -8 -4 -17 -10 -9 -5 -23 -12 -31
-16 -24 -12 -31 -24 -34 -54 -1 -6 -2 -12 -3 -13 -1 -1 -2 -5 -3 -8 -1 -3 -2
-7 -3 -8 -4 -4 -20 1 -40 14 -8 4 -12 5 -21 5 l-12 -1 0 -11 c-1 -9 0 -11 4
-16 3 -2 9 -10 13 -16 14 -22 14 -22 29 -22 12 0 15 1 21 5 4 3 7 5 6 6 -1 1
7 13 10 13 4 0 14 -6 18 -11 2 -2 4 -7 4 -11 0 -9 -3 -12 -20 -21 -13 -7 -15
-12 -13 -28 l1 -11 12 -4 c6 -3 17 -5 27 -5 13 -1 17 -2 21 -6 6 -6 6 -19 -1
-32 -6 -11 -7 -14 -8 -26 -2 -14 8 -31 22 -38 16 -7 25 -5 64 14 49 25 67 35
73 40 5 5 17 28 19 37 0 3 2 7 4 9 l4 4 9 -3 c7 -4 12 -4 24 -4 14 1 16 2 29
10 8 5 14 9 15 10 1 1 5 4 9 6 9 6 59 43 67 50 8 7 24 3 37 -10 6 -5 41 -31
49 -35 3 -2 6 -5 6 -5 0 -1 1 -2 3 -2 1 0 4 -2 7 -4 2 -2 4 -4 5 -4 1 0 6 -3
11 -7 10 -7 49 -30 59 -36 4 -2 13 -4 20 -6 20 -4 31 -10 43 -21 9 -9 33 -22
59 -32 7 -3 13 -5 14 -6 1 -1 10 -4 19 -7 14 -5 18 -6 23 -4 13 5 16 8 18 24
1 8 1 11 -4 20 -3 5 -6 13 -7 16 -1 5 -2 6 -11 7 -6 1 -13 3 -16 4 -3 1 -7 2
-10 2 -2 0 -7 3 -10 6 -5 5 -6 8 -6 16 0 9 1 11 7 16 8 9 23 9 32 1 3 -3 6 -6
5 -7 0 0 2 -5 5 -11 2 -5 5 -12 5 -14 2 -8 3 -8 14 -10 6 0 13 -2 14 -3 2 -2
5 -2 8 -1 4 1 8 2 10 2 1 1 5 1 7 2 14 3 19 8 37 35 18 26 21 33 22 52 2 17 5
22 24 29 14 6 25 15 46 39 9 10 9 11 9 24 0 8 -1 14 -3 18 -4 6 -17 12 -35 17
-11 3 -37 12 -51 18 -4 2 -7 3 -8 3 -2 0 -37 14 -62 25 -24 11 -26 11 -36 10
-5 -1 -12 -3 -15 -5 -8 -4 -14 -17 -14 -29 0 -15 -3 -27 -7 -30 -5 -4 -14 -4
-18 1 -8 6 -18 47 -14 60 1 4 2 12 2 19 2 19 -3 27 -27 41 -34 21 -35 25 -12
59 20 31 29 44 33 53 2 4 5 7 5 8 2 1 7 22 9 34 1 10 6 18 10 18 2 0 3 1 3 2
0 1 1 2 2 1 8 -5 45 71 85 171 26 66 60 178 74 241 0 2 4 18 8 35 4 17 7 34 7
37 1 9 -3 20 -9 25 -6 5 -23 10 -36 10 -11 0 -17 3 -25 13 -14 16 -27 25 -56
35 -14 5 -22 4 -45 -5 -20 -8 -33 -7 -55 8 -14 8 -24 9 -98 9 l-71 -1 -6 6 -6
6 0 95 0 95 6 6 6 6 26 -1 c32 0 39 2 55 18 14 15 17 16 24 13 3 -2 7 -5 8 -7
3 -6 5 -33 2 -42 -1 -5 -4 -19 -7 -31 -3 -12 -8 -35 -12 -51 -7 -26 -7 -29 -5
-38 4 -19 14 -28 39 -33 19 -5 35 0 49 15 11 11 21 16 31 15 17 -1 21 -5 30
-26 6 -15 16 -27 27 -33 12 -6 49 -14 59 -12 15 3 23 9 32 24 5 10 18 46 26
75 3 10 6 19 7 20 1 1 3 10 5 19 2 9 5 19 6 21 3 5 14 41 13 45 0 13 -5 25
-12 28 -12 5 -18 6 -26 7 -19 2 -27 10 -27 29 1 10 6 21 15 32 4 4 9 12 13 17
10 15 14 18 29 19 26 3 40 9 47 22 2 5 12 39 14 52 0 3 2 9 3 14 7 26 -4 48
-27 56 -13 4 -171 34 -182 34 -7 0 -20 -1 -29 -3 -13 -2 -41 -3 -123 -3 -58 0
-107 -1 -108 -2 -1 -1 -4 1 -7 5 -3 4 -6 7 -8 7 -3 0 -3 0 0 2 2 1 2 2 1 2 -2
0 -3 2 -4 5 -1 6 -10 15 -19 19 -29 13 -29 23 0 36 10 5 16 11 20 21 4 9 4 15
4 68 0 49 -1 60 -3 66 -4 9 -14 21 -18 21 -2 0 -3 1 -3 2 0 1 -1 2 -2 2 -2 0
-54 1 -116 1 -110 1 -113 1 -121 -3z m146 -76 c10 -9 3 -26 -10 -26 -8 0 -15
7 -15 15 0 13 16 20 25 11z m-99 -42 c9 -9 3 -23 -11 -25 -5 -1 -7 -1 -8 3 -1
2 -2 4 -3 4 -1 0 -2 3 -2 7 0 9 6 15 14 15 3 0 8 -2 10 -4z m198 -163 c4 -4 4
-12 0 -17 -5 -5 -7 -5 -12 1 -5 5 -5 7 1 14 5 6 8 6 11 2z m-130 -34 c11 -7
30 -24 34 -30 9 -14 2 -27 -14 -27 -10 0 -46 7 -55 10 -16 7 -16 43 0 50 14 5
24 4 35 -3z m217 -15 c7 -6 7 -19 1 -25 -6 -7 -19 -7 -25 -1 -7 6 -7 19 -1 25
6 7 19 7 25 1z m-333 -26 c5 -5 6 -7 6 -17 0 -10 -1 -12 -6 -17 -5 -5 -7 -6
-17 -6 -10 0 -12 1 -17 6 -5 5 -6 7 -6 17 0 10 1 12 6 17 5 5 7 6 17 6 10 0
12 -1 17 -6z m-124 -37 c2 -2 4 -5 4 -7 0 -5 11 -27 16 -33 3 -3 10 -9 16 -12
13 -9 15 -13 15 -27 0 -13 -4 -20 -11 -24 -11 -6 -38 -1 -48 8 -4 2 -4 3 -1
10 4 8 4 21 1 25 -2 2 -2 3 -1 3 3 0 -5 12 -15 22 -10 11 -11 14 -10 26 1 14
22 20 34 9z m-82 -51 c7 -4 14 -20 14 -30 -1 -9 -1 -9 -8 -10 -9 0 -29 8 -32
14 -4 7 -2 18 3 23 5 5 16 7 23 3z m341 -10 c10 -9 3 -26 -10 -26 -8 0 -15 7
-15 15 0 13 16 20 25 11z m-82 -3 c6 -4 6 -6 6 -20 0 -14 0 -16 -6 -20 -5 -5
-7 -5 -19 -5 -20 1 -23 5 -23 25 0 14 0 16 6 20 4 4 7 5 18 5 11 0 14 -1 18
-5z m201 -8 c3 -3 6 -5 6 -4 0 1 1 0 3 -1 5 -4 37 -4 40 0 5 7 19 1 19 -8 0
-9 -15 -15 -19 -9 -3 7 -40 -1 -42 -8 -3 -6 -14 -11 -25 -11 -9 0 -11 1 -16 6
-5 5 -6 7 -6 17 0 10 1 12 6 17 8 8 25 9 34 1z m-424 -25 c0 -1 1 -2 2 -1 1 0
4 -1 7 -4 3 -3 6 -5 7 -5 3 0 2 -3 -1 -6 -1 -2 -4 -6 -6 -9 -4 -8 -7 -7 -17 3
-10 11 -10 18 -1 22 6 2 9 2 9 0z m159 -52 c2 -4 -2 -14 -11 -24 -12 -13 -12
-19 -12 -105 l1 -78 -6 -6 -6 -6 -27 1 c-41 0 -47 -3 -48 -27 0 -5 -1 -11 -2
-11 -2 -1 -1 -2 2 -2 2 -1 10 -5 18 -11 15 -12 21 -21 15 -27 -4 -4 -22 -6
-44 -5 -14 1 -17 2 -21 7 -5 5 -6 7 -6 16 0 12 3 20 9 20 4 0 4 1 0 1 -2 1 -3
2 -1 3 2 1 6 21 6 33 0 6 -1 10 -3 11 -3 3 -4 6 -4 24 0 25 -4 35 -17 47 -11
9 -15 11 -38 18 -20 6 -26 10 -26 18 0 9 11 15 40 20 6 1 17 8 25 15 10 9 15
22 17 39 1 10 2 16 6 22 4 4 6 6 6 5 1 -2 10 -3 40 -4 37 0 40 0 55 5 18 5 29
6 32 1z m-203 -31 l-5 -5 -4 4 -5 5 4 4 5 5 4 -4 5 -5 -4 -4z m696 5 c5 -6 5
-12 0 -18 -7 -8 -22 -2 -22 9 0 11 15 17 22 9z m151 -3 c5 -5 5 -6 4 -19 0 -8
-2 -16 -3 -17 -1 -2 -2 -3 -1 -3 2 0 -9 -20 -13 -24 -7 -6 -18 -5 -24 1 -4 4
-4 6 -3 18 2 22 9 43 16 47 7 4 19 2 24 -3z m-452 -56 c6 -4 6 -6 6 -20 0 -14
0 -16 -6 -20 -4 -4 -7 -5 -18 -5 -22 0 -29 8 -25 29 3 17 8 21 25 21 11 0 14
-1 18 -5z m-78 -55 c8 -4 11 -11 10 -23 -3 -20 -9 -25 -34 -23 -2 0 -6 3 -9 6
-5 5 -6 7 -6 17 0 14 3 20 12 24 7 3 20 2 27 -1z m110 -63 c3 -5 3 -5 0 -10
-2 -3 -5 -5 -7 -5 -2 0 -5 2 -7 5 -3 5 -3 5 0 10 2 3 5 5 7 5 2 0 5 -2 7 -5z
m-538 -72 c9 -5 12 -19 9 -32 -5 -22 -48 -40 -61 -26 -14 13 4 56 25 61 9 2
22 1 27 -3z m821 -27 c5 -5 5 -15 0 -20 -9 -9 -24 -2 -24 10 0 8 6 14 14 14 3
0 8 -2 10 -4z m-732 -69 c14 -6 19 -24 12 -41 -6 -17 -36 -21 -48 -7 -9 10 -9
32 0 42 7 8 24 11 36 6z m471 -22 c4 -4 5 -7 5 -15 0 -14 -6 -20 -20 -20 -14
0 -20 6 -20 20 0 14 6 20 20 20 8 0 11 -1 15 -5z m184 2 c2 -1 6 -4 8 -6 3 -5
3 -6 0 -14 -4 -8 -11 -18 -25 -32 -9 -9 -16 -11 -24 -7 -11 6 -10 42 0 52 6 6
30 10 41 7z m-554 -13 c16 -7 24 -16 24 -30 0 -18 -13 -26 -34 -22 -23 4 -34
14 -36 30 -2 23 18 33 46 22z m96 -17 c3 -3 3 -3 0 -6 -3 -3 -3 -3 -6 0 -3 2
-3 3 -1 6 4 4 4 4 7 0z m291 -77 c52 -1 54 -1 59 -6 l4 -4 -13 -33 c-7 -17
-17 -40 -22 -50 -7 -15 -8 -19 -7 -28 2 -12 5 -19 13 -26 10 -8 14 -16 21 -33
11 -26 12 -38 6 -51 -2 -2 -15 -10 -32 -18 -32 -14 -41 -16 -53 -10 -3 2 -8 3
-10 3 -2 0 -6 2 -8 4 -3 2 -8 4 -11 6 -8 4 -21 17 -29 30 -4 6 -8 11 -9 13 -1
1 -7 10 -14 20 -6 10 -14 22 -17 27 -3 4 -6 9 -6 9 0 0 -5 9 -11 19 -6 10 -11
19 -11 20 0 1 -13 21 -14 22 -5 4 -17 28 -23 48 -4 12 -8 23 -10 24 -2 2 -2 3
1 6 7 7 12 8 51 8 22 0 45 1 51 2 6 1 18 1 26 1 8 -1 39 -2 68 -3z m-423 -23
c5 -8 1 -16 -8 -16 -9 0 -13 8 -8 16 2 3 5 5 8 5 3 0 6 -2 8 -5z m-171 -28
c16 -7 20 -37 7 -48 -12 -11 -34 -11 -43 0 -9 10 -9 32 0 42 7 8 24 11 36 6z
m360 -3 c5 -5 5 -15 0 -20 -9 -9 -24 -2 -24 10 0 8 6 14 14 14 3 0 8 -2 10 -4z
m-257 -14 c5 -5 6 -7 6 -16 0 -9 -1 -11 -7 -16 -5 -6 -7 -7 -16 -7 -9 0 -11 1
-16 7 -9 8 -9 23 -1 32 9 9 24 9 34 0z m671 -28 c5 -5 6 -7 6 -17 0 -10 -1
-12 -6 -17 -5 -5 -7 -6 -17 -6 -10 0 -12 1 -17 6 -5 5 -6 7 -6 17 0 10 1 12 6
17 5 5 7 6 17 6 10 0 12 -1 17 -6z m25 -170 c4 -5 13 -27 13 -34 0 -7 -13 -12
-29 -12 -22 0 -28 7 -27 29 2 16 7 21 25 21 10 0 14 -1 18 -4z m-262 -30 c11
-10 3 -28 -11 -28 -9 0 -16 6 -16 16 0 14 17 22 27 12z m-539 -10 c5 -5 5 -11
0 -16 -10 -10 -27 5 -16 16 4 4 12 4 16 0z m720 -37 l-5 -5 -4 4 -5 5 4 4 5 5
4 -4 5 -5 -4 -4z m-739 -95 c5 -5 6 -7 6 -16 0 -9 -1 -11 -7 -16 -5 -6 -7 -7
-16 -7 -9 0 -11 1 -16 7 -9 8 -9 23 -1 32 9 9 24 9 34 0z m427 -2 c5 -5 5 -15
0 -20 -9 -9 -24 -2 -24 10 0 8 6 14 14 14 3 0 8 -2 10 -4z m-65 -113 c5 -8 1
-16 -8 -16 -9 0 -13 8 -8 16 2 3 5 5 8 5 3 0 6 -2 8 -5z m172 -3 c4 -2 7 -5 7
-6 0 -1 6 -8 13 -15 19 -19 21 -22 21 -33 0 -12 -7 -22 -24 -36 l-14 -12 -10
5 c-11 5 -14 9 -14 20 0 10 -4 29 -9 41 -2 5 -4 14 -4 19 -1 10 -1 11 4 16 6
7 20 7 30 1z m-583 -74 c10 -11 3 -20 -18 -25 -20 -5 -29 -8 -41 -16 -14 -10
-20 -16 -28 -33 -9 -18 -13 -22 -24 -22 -6 0 -9 1 -13 5 -4 5 -4 6 -3 25 2 27
6 45 10 50 3 3 15 8 27 12 23 8 23 8 55 8 30 0 32 0 35 -4z m957 -39 c3 -5 3
-5 0 -10 -2 -3 -5 -5 -7 -5 -2 0 -5 2 -7 5 -3 5 -3 5 0 10 2 3 5 5 7 5 2 0 5
-2 7 -5z m-539 -45 c6 -6 6 -20 1 -26 -3 -3 -4 -3 -11 -1 -4 1 -8 3 -8 3 0 1
-1 2 -2 2 -2 0 -5 1 -7 3 -2 2 -3 3 -1 8 5 14 20 19 28 11z m-56 -31 c3 -2 5
-4 6 -4 1 -1 -5 -10 -9 -14 -13 -12 -30 3 -19 17 4 5 15 5 22 1z"/>
<path d="M551 3739 c-12 -2 -50 -3 -147 -3 -153 0 -141 2 -142 -22 0 -8 -1
-16 -1 -16 -1 -1 0 -2 1 -2 3 0 8 -5 12 -12 6 -7 5 -26 0 -33 -4 -4 -25 -13
-33 -13 -3 0 -8 8 -10 18 -2 12 -17 39 -29 53 -17 20 -28 26 -49 26 -18 0 -27
-1 -27 -3 0 -1 -1 -2 -3 -2 -4 0 -14 -12 -18 -21 -3 -7 -3 -21 -2 -122 0 -69
1 -119 3 -127 1 -10 1 -18 0 -27 -2 -10 -3 -87 -3 -242 -1 -205 -1 -229 2
-236 5 -13 10 -18 25 -28 15 -10 18 -14 18 -28 0 -14 -3 -18 -18 -28 -15 -10
-20 -15 -25 -28 -5 -11 -5 -207 0 -218 5 -13 10 -18 25 -28 8 -5 15 -11 16
-15 12 -29 15 -32 35 -42 19 -9 21 -12 21 -25 0 -13 -6 -19 -19 -19 -12 0 -15
2 -23 14 -13 21 -15 23 -29 22 -14 0 -17 -3 -24 -17 l-5 -11 0 -88 c1 -81 1
-88 5 -95 2 -4 6 -9 8 -10 7 -5 26 -11 32 -11 7 0 28 -7 41 -14 11 -6 13 -6
23 -5 7 1 16 3 21 6 22 13 31 15 44 10 12 -5 18 -21 14 -36 -5 -20 -24 -26
-51 -13 -16 7 -30 8 -46 2 -12 -4 -19 -3 -39 6 -21 10 -40 6 -48 -11 -4 -8 -4
-12 -4 -129 0 -107 0 -122 3 -129 5 -13 10 -18 25 -28 15 -10 17 -12 19 -23 0
-4 3 -13 7 -20 9 -20 21 -24 46 -16 16 5 29 5 46 0 15 -5 26 -5 34 -1 7 4 15
21 17 34 1 13 3 20 6 28 3 10 5 11 13 8 4 -1 10 -4 14 -5 4 -1 8 -3 9 -4 2 -2
21 2 29 6 12 7 13 16 5 42 -8 22 -8 30 -4 45 4 11 4 25 1 35 -1 4 -2 18 -2 32
0 18 -1 28 -3 34 -5 16 -4 24 9 50 l5 11 1 62 c1 60 3 73 8 77 1 1 2 3 3 5 0
4 1 4 1 0 0 -5 10 -13 22 -17 14 -5 85 -1 122 6 71 14 131 51 165 102 7 10 15
29 15 34 0 12 -6 21 -28 40 -4 4 -6 9 -8 16 -1 6 -3 12 -4 13 -1 1 -2 3 -1 4
0 2 -8 10 -14 14 -3 2 -11 4 -19 4 -11 1 -15 2 -17 6 -6 9 -3 13 30 39 23 18
40 27 55 27 16 1 30 7 35 15 7 13 10 89 5 129 -6 45 -9 49 -33 49 -11 0 -14 0
-18 -4 -3 -3 -20 -11 -20 -10 0 2 -21 -12 -27 -18 -12 -11 -16 -12 -25 -12
-13 0 -19 6 -19 19 0 11 4 16 21 25 4 2 14 10 22 18 7 8 18 16 25 20 14 8 28
19 28 23 0 2 1 3 2 3 9 0 7 47 -2 57 -1 1 -2 3 -2 5 0 3 -32 68 -38 76 -2 3
-4 6 -5 8 -1 3 -3 6 -13 22 -9 14 -13 27 -11 40 0 5 6 25 13 45 13 39 32 99
42 133 3 12 7 23 8 26 1 3 8 27 16 53 14 47 14 48 12 59 -2 9 -4 13 -12 21
-13 12 -16 18 -16 26 0 8 6 14 19 17 30 8 38 17 47 49 2 9 5 18 6 20 1 2 2 6
3 8 0 4 3 15 7 26 3 10 1 28 -4 36 -4 8 -19 21 -23 21 -1 0 -9 4 -18 10 -9 5
-33 19 -54 30 -21 12 -47 27 -58 33 -31 17 -41 19 -74 14z m-3 -51 c3 -3 4 -7
4 -11 0 -4 1 -13 2 -21 4 -24 14 -28 56 -21 6 1 9 1 12 -2 6 -6 12 -17 12 -26
1 -5 2 -9 3 -9 2 -2 1 -2 -11 -2 -2 0 -9 3 -14 6 l-10 6 -11 -3 c-17 -6 -20
-11 -20 -32 0 -18 -2 -23 -10 -23 -5 0 -11 5 -17 15 -2 4 -7 8 -10 10 -8 4
-24 5 -33 2 -19 -7 -31 -1 -31 14 0 10 5 15 25 26 25 13 34 28 33 58 0 14 11
22 20 13z m-325 -75 c3 -5 3 -6 0 -12 -4 -8 -9 -9 -14 -2 -3 5 -3 5 0 10 7 10
9 11 14 4z m431 -25 c3 -3 9 -8 13 -11 7 -6 15 -20 15 -28 0 -7 -7 -13 -15
-13 -8 0 -16 7 -19 17 -1 5 -4 12 -7 17 -2 5 -4 12 -4 16 0 7 0 7 6 7 4 0 8
-2 11 -5z m-107 -100 c4 -6 4 -24 -1 -30 -7 -9 -27 -9 -34 0 -5 6 -5 24 0 30
7 9 27 9 35 0z m-326 -7 c7 -4 8 -8 10 -26 1 -9 3 -22 5 -30 7 -24 7 -28 2
-34 -10 -11 -24 -4 -30 14 -3 10 -12 27 -14 27 -1 0 -4 4 -7 9 -6 10 -7 27 -2
35 7 9 26 12 36 5z m222 -37 c3 -3 4 -6 4 -6 0 -1 -1 -3 -2 -6 0 -3 -2 -9 -3
-14 -2 -9 1 -25 7 -42 2 -5 4 -13 4 -19 2 -16 2 -18 7 -27 6 -9 12 -12 23 -11
10 1 15 4 25 15 14 14 19 17 30 17 14 0 18 -4 28 -24 5 -10 11 -19 13 -20 3
-1 6 -3 7 -4 2 -2 9 -5 16 -7 16 -6 21 -10 24 -21 5 -22 -8 -39 -29 -38 -17 1
-22 6 -29 25 -2 7 -5 14 -7 16 -1 1 -3 4 -4 7 -3 5 -13 11 -21 11 -10 0 -22
-6 -32 -16 -12 -12 -16 -14 -27 -14 -8 0 -12 1 -19 6 -8 6 -10 6 -23 6 -18 0
-22 -3 -28 -22 -7 -23 -13 -50 -13 -58 0 -5 -1 -6 -1 -2 -1 3 -2 4 -4 3 -2 -1
-4 2 -6 7 -2 6 -8 17 -10 18 -1 1 -8 2 -15 2 -11 0 -14 1 -15 4 0 1 -1 0 -1
-3 0 -8 -8 -13 -22 -13 -9 0 -11 1 -16 6 -5 5 -6 7 -6 17 0 7 1 13 2 14 9 14
42 11 42 -4 0 -3 1 -4 1 -2 1 2 4 3 15 3 19 0 23 5 21 26 -3 24 -3 49 0 62 2
10 3 25 3 58 l-1 45 6 6 6 6 22 -1 c22 -1 23 -1 28 -6z m-190 -142 c7 -3 9 -8
9 -19 1 -12 -4 -18 -18 -26 -31 -17 -58 -18 -72 -3 -6 7 -9 20 -6 31 5 18 12
21 52 20 20 0 33 -1 35 -3z m318 -114 c5 -5 6 -7 6 -16 0 -9 -1 -11 -7 -16 -5
-6 -7 -7 -18 -6 -21 0 -34 4 -40 10 l-6 6 4 7 c5 8 10 11 29 18 15 6 24 5 32
-3z m-358 -12 c11 -10 3 -28 -11 -28 -9 0 -16 6 -16 16 0 14 17 22 27 12z
m260 -62 c5 -5 6 -7 6 -16 0 -9 -1 -11 -7 -16 -5 -6 -7 -7 -16 -7 -9 0 -11 1
-16 7 -9 8 -9 23 -1 32 9 9 24 9 34 0z m-242 -44 c6 -6 7 -18 2 -25 -6 -6 -20
-7 -26 -1 -7 6 -7 19 -1 25 6 7 19 7 25 1z m180 -57 c10 -5 25 -10 36 -13 15
-4 21 -6 24 -10 3 -3 5 -6 5 -6 0 -3 -20 -18 -23 -18 -4 0 -10 -7 -13 -14 -4
-12 -3 -22 3 -36 6 -18 15 -48 20 -73 9 -45 11 -65 12 -116 0 -43 1 -48 9 -57
5 -6 24 -16 28 -16 6 0 12 -9 12 -17 0 -4 1 -18 3 -31 3 -23 3 -24 0 -27 -5
-5 -13 -5 -17 -1 -2 2 -3 3 -3 4 0 1 -2 10 -6 20 -5 16 -7 20 -13 24 -9 6 -24
5 -40 -2 -10 -5 -29 -9 -50 -11 -6 0 -17 10 -16 15 1 7 -8 26 -20 38 -13 15
-14 16 -14 29 0 13 1 14 14 29 18 19 20 26 20 76 0 46 -1 52 -11 61 -7 6 -23
13 -33 14 -6 1 -10 2 -22 10 -14 8 -35 8 -48 -1 -6 -4 -23 -3 -31 1 -16 8 -16
40 0 48 10 6 25 5 37 -3 16 -9 31 -10 47 -3 7 3 14 6 17 6 10 1 26 7 33 14 9
8 11 16 11 39 0 16 1 20 5 30 5 9 6 11 7 8 1 -2 9 -7 17 -11z m-144 -14 c3 -3
3 -3 0 -6 -3 -3 -3 -3 -6 0 -3 2 -3 3 -1 6 4 4 4 4 7 0z m350 -85 c6 -6 7 -17
1 -25 -2 -3 -5 -5 -6 -5 -4 2 -32 -15 -43 -25 -6 -6 -13 -11 -16 -11 -18 -2
-37 4 -44 12 -4 5 -5 8 -5 17 0 17 9 24 29 21 25 -3 36 0 56 14 10 8 21 8 28
2z m-68 -129 c5 -8 1 -16 -8 -16 -9 0 -13 8 -8 16 2 3 5 5 8 5 3 0 6 -2 8 -5z
m85 -257 c3 -4 4 -8 4 -23 0 -10 1 -24 1 -32 1 -12 1 -14 -3 -18 -7 -7 -20 -7
-26 0 -4 4 -4 6 -3 19 3 30 6 52 9 55 4 4 14 4 18 -1z m-370 -106 c8 -9 2 -22
-9 -22 -6 0 -15 8 -14 13 1 11 16 17 23 9z m-64 -13 c5 -6 6 -8 4 -13 -6 -14
-21 -19 -31 -10 -7 6 -7 19 -1 25 7 8 20 7 28 -2z m19 -211 c10 -9 3 -26 -10
-26 -8 0 -15 7 -15 15 0 13 16 20 25 11z m-11 -79 c4 -3 6 -7 6 -9 0 -2 2 -7
3 -12 4 -9 4 -13 5 -22 l0 -6 4 4 c4 4 5 4 18 4 8 0 11 1 20 8 12 9 22 11 29
4 6 -6 7 -18 1 -23 -4 -4 -15 -8 -24 -10 -2 -1 -7 -2 -10 -4 -3 -1 -10 -4 -16
-6 -9 -3 -11 -3 -14 0 -2 2 -4 3 -6 3 -1 0 -4 5 -5 10 -1 7 -4 10 -10 11 -9 1
-29 10 -35 16 -7 7 -7 23 1 31 9 9 24 9 33 1z m88 -116 c3 -3 3 -4 2 -8 -3 -6
-7 -6 -10 0 -1 4 -1 6 1 8 3 4 3 4 7 0z"/>
</g>
</svg>
