<?xml version="1.0" standalone="no"?>
<!DOCTYPE svg PUBLIC "-//W3C//DTD SVG 20010904//EN"
 "http://www.w3.org/TR/2001/REC-SVG-20010904/DTD/svg10.dtd">
<svg version="1.0" xmlns="http://www.w3.org/2000/svg"
 width="1100.000000pt" height="2850.000000pt" viewBox="0 0 1100.000000 2850.000000"
 preserveAspectRatio="xMidYMid meet">
<metadata>
Created by potrace 1.15, written by Peter Selinger 2001-2017
</metadata>
<g transform="translate(0.000000,2850.000000) scale(0.500000,-0.500000)"
fill="#000000" stroke="none">
<path d="M1161 3819 c-10 -2 -19 -4 -20 -5 -1 -1 -3 -2 -4 -2 -3 0 -18 -9 -22
-13 -6 -6 -17 -10 -25 -8 -5 1 -10 2 -11 3 -2 1 -10 4 -13 4 -1 0 -5 1 -9 3
-10 3 -7 3 -73 -6 -57 -8 -68 -10 -78 -20 -5 -5 -5 -6 -4 -17 0 -7 2 -12 5
-15 3 -4 20 -12 34 -16 14 -4 18 -28 7 -39 -5 -6 -6 -6 -24 -6 -11 0 -23 -1
-27 -2 -4 -1 -13 -3 -19 -4 l-12 -3 -19 10 c-40 20 -67 14 -79 -18 -2 -7 -5
-14 -6 -16 -2 -6 -10 -8 -17 -6 -3 1 -6 3 -7 6 -1 2 -4 9 -6 16 -3 6 -7 14
-10 17 -10 11 -14 12 -79 12 l-59 0 -20 -7 c-26 -9 -30 -9 -55 0 -16 5 -22 6
-27 5 -12 -3 -25 -11 -32 -21 -10 -14 -30 -14 -40 0 -4 6 -13 13 -21 17 -10 6
-50 8 -62 4 -18 -6 -26 -22 -31 -61 -2 -15 -5 -30 -6 -33 -7 -17 -43 -17 -50
0 -6 15 -2 32 13 48 6 8 7 9 7 20 0 11 -1 13 -6 18 -9 9 -18 11 -37 9 -21 -1
-21 -1 -21 -3 0 -1 -1 -2 -3 -2 -4 0 -14 -12 -18 -21 -3 -6 -3 -18 -3 -72 0
-65 0 -65 5 -76 5 -11 19 -21 29 -21 9 0 28 9 28 13 0 2 6 9 14 16 11 12 28 7
28 -8 0 -7 -9 -18 -16 -20 -2 -1 -4 -2 -4 -3 0 -1 -2 -2 -5 -3 -3 0 -5 -3 -6
-6 -1 -2 -2 -4 -3 -5 -1 -1 -3 -5 -6 -9 -5 -10 -5 -21 -1 -44 2 -14 2 -16 -1
-20 -2 -3 -4 -5 -5 -5 -3 0 -17 7 -17 9 0 2 -22 2 -30 0 -10 -2 -12 -17 -6
-30 4 -11 13 -18 23 -22 5 -2 10 -6 13 -9 l4 -6 -4 -6 c-3 -3 -8 -7 -13 -9
-11 -4 -19 -12 -23 -23 -4 -8 -4 -12 -3 -34 1 -29 1 -30 3 -30 1 0 2 -2 3 -4
1 -2 2 -4 3 -4 3 0 18 -16 22 -24 8 -16 6 -23 -9 -38 -12 -12 -19 -22 -22 -34
-1 -7 -2 -166 0 -171 4 -12 9 -21 16 -27 17 -15 16 -23 -1 -38 -11 -9 -18 -22
-19 -36 -5 -72 -2 -82 23 -86 8 -1 14 -1 15 0 1 1 6 2 11 2 20 0 26 -16 15
-39 -7 -13 -7 -36 -1 -44 1 -1 3 -7 3 -12 1 -9 1 -11 -4 -15 -4 -4 -6 -4 -18
-3 -31 3 -43 0 -52 -17 -4 -8 -5 -11 -5 -37 0 -41 1 -48 8 -56 4 -4 8 -7 10
-7 2 0 4 -1 5 -2 0 -1 3 -2 6 -3 9 -2 15 -9 15 -17 0 -10 -6 -15 -19 -17 -28
-3 -40 -14 -44 -42 -2 -9 -4 -26 -6 -38 -4 -26 -15 -88 -21 -112 -2 -10 -4
-20 -5 -23 0 -3 -4 -18 -8 -34 -7 -27 -7 -30 -6 -48 3 -35 2 -37 -14 -54 -5
-6 -12 -16 -15 -23 -13 -28 -41 -99 -41 -107 -3 -28 30 -51 55 -38 5 3 10 7
11 9 1 2 3 4 3 5 1 1 3 4 5 7 5 11 10 14 21 13 12 -2 21 -8 23 -17 2 -6 2 -8
-7 -19 -2 -2 -3 -10 -4 -20 l0 -17 17 -9 c10 -4 26 -13 37 -19 10 -6 26 -15
37 -20 10 -5 22 -11 27 -14 10 -6 28 -7 35 -2 12 8 36 59 58 123 8 25 8 26 4
50 -2 13 -3 19 -1 22 9 16 10 42 3 53 -4 5 -4 23 0 29 2 2 7 6 13 9 21 13 26
17 32 30 10 21 4 39 -18 54 -8 6 -14 12 -16 15 -7 20 -2 38 14 41 37 8 51 22
55 57 1 6 2 14 2 16 2 6 6 38 10 71 3 25 3 27 0 41 -6 25 -5 32 5 54 10 21 10
26 18 123 5 67 5 74 -2 98 -6 24 -6 25 3 49 3 10 8 23 9 28 2 5 5 11 7 13 3 3
4 3 12 -5 9 -11 43 -53 48 -60 7 -12 31 -18 43 -11 15 8 71 65 104 105 4 5 9
11 11 13 1 2 3 5 3 7 0 2 1 2 2 1 0 -1 5 -2 9 -2 5 0 13 -3 21 -7 12 -5 15 -6
34 -7 36 -1 44 -5 44 -20 0 -11 -12 -43 -16 -43 -1 0 -1 -2 0 -4 1 -3 1 -7 1
-9 0 -3 0 -5 1 -5 0 0 2 -3 4 -6 1 -3 6 -8 10 -10 7 -5 8 -5 56 -5 50 0 60 1
60 3 0 1 1 2 3 2 4 0 14 12 18 21 2 6 3 21 3 105 0 104 1 111 10 118 11 9 22
1 18 -13 -3 -11 -2 -33 1 -40 2 -3 9 -11 17 -19 8 -7 19 -17 24 -23 5 -5 11
-11 14 -12 11 -6 29 -3 40 7 7 6 18 9 15 4 -1 -1 0 -3 2 -3 2 -1 3 -2 3 -3 0
-2 11 -14 26 -28 29 -29 52 -54 66 -72 3 -4 6 -8 7 -9 1 -1 6 -7 11 -13 4 -7
9 -12 10 -12 2 0 1 -1 0 -2 -2 -2 -4 -5 -4 -7 -1 -2 -2 -5 -4 -7 -1 -1 -2 -3
-1 -4 1 -1 0 -2 0 -2 -3 0 -8 -15 -11 -33 -2 -11 -6 -15 -14 -15 -7 0 -11 4
-16 16 -7 16 -13 24 -24 28 -8 4 -10 4 -28 2 -10 -1 -22 -3 -26 -3 -20 -2 -25
-4 -31 -8 -4 -3 -7 -6 -6 -7 1 -1 0 -2 -1 -2 -1 -1 -2 -6 -2 -14 l-1 -12 14
-9 c8 -5 16 -12 18 -16 3 -6 3 -7 0 -12 -4 -6 -7 -6 -25 0 -27 8 -36 15 -36
30 0 6 -1 13 -2 16 -1 3 -3 6 -3 7 -1 5 -6 10 -13 13 -7 3 -10 3 -35 1 -38 -3
-41 -4 -50 -8 -16 -7 -21 -16 -22 -42 -1 -20 -5 -26 -17 -26 -10 0 -16 7 -19
22 -2 13 -6 23 -12 29 -8 7 -24 13 -33 12 -7 -1 -27 -3 -41 -3 -4 -1 -7 -1 -7
-2 0 -1 -2 -1 -3 -1 -3 1 -3 1 -2 -2 0 -2 0 -3 -1 -2 -4 3 -36 3 -66 1 -17 -1
-38 -3 -46 -3 -8 -1 -21 -1 -29 -2 -8 0 -25 -1 -38 -2 -36 -2 -48 -9 -51 -31
-1 -8 -1 -12 1 -16 7 -14 31 -87 34 -102 5 -30 27 -49 52 -47 18 2 64 3 53 1
-6 -1 -12 -2 -14 -3 -1 0 -2 0 -3 1 0 2 -1 2 -1 0 0 -5 4 -6 20 -6 l13 -1 -17
-1 c-24 -2 -35 -9 -44 -26 -4 -7 -10 -12 -16 -13 -1 0 -8 5 -14 11 -20 21 -26
22 -71 19 -42 -3 -59 -18 -56 -50 0 -6 2 -21 3 -34 1 -13 2 -27 3 -31 0 -4 1
-15 2 -24 2 -24 2 -25 8 -37 8 -17 25 -25 49 -23 8 1 25 2 38 3 13 1 26 2 30
2 4 0 16 1 28 2 54 3 60 4 68 12 6 7 8 26 3 36 -5 10 -3 29 3 35 5 6 20 8 30
5 10 -2 15 -12 13 -27 -4 -34 1 -46 19 -50 15 -3 29 1 50 13 25 15 31 15 61 3
17 -7 38 -9 54 -6 5 1 9 1 10 0 1 -1 4 -4 7 -6 5 -3 10 -16 16 -41 1 -5 3 -9
4 -10 1 -1 2 -3 2 -4 0 -8 24 -22 35 -21 5 1 7 0 9 -3 2 -3 3 -5 4 -5 1 0 1
-5 1 -11 -2 -20 -8 -23 -34 -20 -7 1 -16 0 -20 -1 -4 -1 -7 -1 -7 0 0 1 -1 2
-3 2 -2 0 -3 -1 -3 -2 0 -1 -1 -2 -2 -1 -2 1 -3 -25 -1 -31 1 -2 2 -4 3 -3 1
0 3 -2 5 -6 3 -6 3 -8 1 -32 -3 -29 -3 -30 -1 -44 3 -22 10 -41 27 -70 6 -11
9 -22 11 -39 2 -23 6 -31 26 -49 32 -31 80 -52 140 -62 35 -6 45 -7 64 -4 19
3 34 2 53 -4 16 -4 294 -5 305 0 7 3 12 9 14 17 4 17 4 19 1 23 -8 8 -24 44
-24 53 0 19 7 26 25 26 18 0 31 -11 36 -29 1 -3 2 -9 3 -13 l2 -7 20 1 20 0 1
8 c1 9 7 16 14 16 6 0 13 -5 18 -16 7 -14 13 -18 27 -18 9 0 13 1 20 6 11 7
24 9 35 6 9 -2 10 -3 20 -20 11 -19 29 -24 48 -11 37 25 62 56 81 100 8 18 13
33 12 38 -3 24 -14 34 -65 60 -17 8 -20 11 -22 16 -1 3 -4 13 -7 21 l-6 15 4
3 c3 2 11 6 18 9 17 7 25 15 29 28 3 9 3 15 -1 67 -6 76 -9 85 -29 95 -12 6
-22 7 -31 2 -3 -2 -7 -3 -8 -3 -1 0 -7 -3 -12 -7 -13 -9 -20 -10 -43 -7 -11 1
-25 3 -32 3 -7 1 -19 2 -27 4 -14 2 -35 2 -65 0 -8 0 -21 -1 -29 -2 -33 -2
-50 -3 -62 -4 -14 -1 -27 -5 -38 -12 -21 -13 -27 -13 -49 -5 -32 12 -51 12
-81 -2 -18 -9 -25 -9 -47 -3 -25 7 -41 6 -49 -2 -4 -4 -5 -7 -5 -19 0 -8 1
-15 3 -18 5 -8 21 -23 33 -29 18 -10 24 -22 15 -31 -7 -7 -17 -5 -34 7 -3 2
-14 6 -24 10 -21 7 -22 8 -26 26 -1 6 -3 10 -4 11 -1 0 -2 2 -2 3 0 9 -24 21
-40 21 -4 0 -9 2 -12 4 -5 2 -6 4 -5 9 1 3 2 6 3 7 1 1 2 3 3 5 1 3 6 10 12
16 10 10 21 32 21 41 0 4 8 10 14 10 5 0 9 -3 21 -15 21 -22 24 -23 86 -18 6
0 18 1 28 2 24 2 33 4 34 10 1 3 2 4 3 4 1 -1 2 5 2 13 0 11 -1 15 -4 18 -6 6
-6 23 2 35 3 5 10 18 15 28 7 16 10 19 14 20 7 2 11 2 16 -2 4 -5 4 -9 -2 -32
-3 -11 -5 -26 -6 -33 -1 -7 -3 -13 -4 -15 -3 -3 -2 -21 2 -28 8 -17 29 -13 51
9 7 6 17 15 23 20 7 4 15 11 19 14 8 8 25 16 32 16 4 0 10 -4 10 -8 0 -1 1 -3
3 -4 2 -1 3 -4 3 -6 0 -6 10 -26 15 -31 11 -11 20 -12 76 -8 6 0 18 1 27 2 20
1 40 9 46 17 1 1 5 4 10 7 14 9 25 7 50 -8 7 -4 23 -3 28 2 13 12 15 24 9 72
-3 27 -4 33 -7 62 -3 24 -9 36 -24 43 -13 7 -14 7 -44 5 -30 -2 -33 -2 -43 -8
-9 -7 -15 -19 -16 -37 -1 -17 -6 -22 -20 -22 -12 0 -18 5 -19 17 -1 5 -4 13
-6 19 l-5 11 -12 0 c-7 -1 -14 -2 -16 -3 -6 -3 -10 -18 -17 -55 -5 -27 -8 -33
-22 -37 -8 -2 -7 -3 -25 20 -13 17 -18 27 -16 36 0 5 0 8 -1 8 -1 0 -2 3 -3 6
-1 5 -1 6 -14 5 -7 0 -13 -1 -13 -1 0 -1 -1 -2 -2 -1 -1 1 -2 0 -2 -1 0 -1 -1
-2 -2 -1 -1 0 -5 -2 -9 -6 -6 -7 -16 -11 -29 -11 -6 0 -13 6 -23 18 -12 17
-31 21 -75 18 -10 -1 -29 -2 -41 -3 -33 -2 -40 -3 -47 -11 -9 -9 -11 -21 -8
-42 3 -18 3 -18 -2 -23 -5 -5 -6 -5 -18 -4 -6 0 -15 2 -18 4 -8 5 -16 23 -17
39 -1 11 -1 13 5 25 4 8 7 15 6 15 0 1 4 5 10 9 8 5 12 7 25 8 8 1 15 2 16 3
1 1 3 2 5 2 11 0 28 23 31 41 2 7 13 21 18 21 2 0 3 1 3 2 0 2 16 8 24 9 9 1
13 -4 15 -16 1 -12 4 -25 8 -29 6 -8 25 -14 34 -10 18 7 33 10 55 11 29 1 58
6 186 34 2 1 7 4 11 8 7 6 7 7 7 20 0 15 -1 16 -21 23 -11 4 -16 4 -48 4 l-35
-1 -5 6 c-5 5 -7 23 -3 26 5 3 8 14 8 28 0 17 -1 18 -20 20 -9 1 -10 1 -16 -5
-3 -3 -6 -7 -6 -9 0 -5 0 -6 -5 -9 -8 -7 -14 -4 -20 10 -2 4 -4 8 -5 8 -1 0
-2 1 -2 3 0 2 -1 3 -2 3 -1 0 -2 2 -4 5 -3 5 -14 9 -22 8 -12 -2 -30 -9 -34
-12 -9 -9 -12 -36 -3 -45 3 -4 4 -7 4 -19 0 -20 -5 -25 -23 -25 -9 0 -24 5
-24 9 0 6 -7 38 -11 48 -7 19 -22 37 -34 42 -10 4 -16 4 -29 -3 -7 -4 -16 -9
-21 -11 -9 -6 -15 -6 -32 -2 -25 5 -28 9 -28 29 0 7 -1 17 -2 23 -3 10 -3 11
0 14 3 3 4 3 15 0 12 -4 21 -5 31 -3 6 0 7 2 9 8 3 13 3 21 0 31 -3 13 -4 19
-1 26 3 9 8 11 29 11 11 0 22 1 25 3 3 1 13 2 21 2 13 0 16 -1 22 -5 15 -10
18 -14 18 -22 0 -8 -4 -13 -20 -23 -5 -3 -11 -8 -13 -10 -4 -5 -11 -20 -11
-25 0 -5 6 -18 10 -22 1 -2 2 -4 1 -4 -1 -1 5 -1 13 -2 14 -1 15 -1 22 5 10 7
29 32 39 50 10 19 17 24 28 18 5 -2 8 -5 9 -6 1 -3 16 -16 27 -23 8 -5 14 -10
15 -14 2 -4 5 -10 7 -13 3 -4 5 -9 6 -11 0 -5 9 -16 12 -16 2 0 3 -1 3 -2 0
-4 15 -1 22 5 1 2 3 3 5 3 4 0 14 12 18 21 2 6 3 17 3 70 0 65 0 64 9 74 1 2
8 -5 21 -20 10 -12 21 -22 23 -23 7 -3 20 -2 28 1 9 3 28 23 32 31 5 13 6 27
2 32 -13 15 -19 20 -31 25 -14 5 -19 10 -17 17 2 10 10 11 27 3 22 -10 29 -12
43 -10 21 2 31 -9 29 -32 -1 -7 -3 -11 -11 -19 -11 -12 -14 -26 -12 -44 4 -22
1 -31 -12 -40 -12 -9 -15 -13 -16 -31 -1 -9 -1 -10 7 -17 7 -8 8 -8 22 -8 l15
0 17 16 c9 8 25 23 36 33 l19 18 1 14 c0 11 0 14 -6 25 -7 14 -8 28 -3 35 1 2
6 7 11 10 10 7 14 16 14 29 0 10 0 11 -12 22 -17 16 -24 22 -30 23 -3 0 -9 2
-13 3 -4 1 -8 2 -8 2 -1 0 -3 0 -5 0 -6 0 -16 11 -16 17 0 8 -8 26 -13 31 -3
2 -4 4 -3 4 1 0 4 2 7 5 5 5 7 5 26 5 18 0 22 1 44 8 36 12 43 15 46 22 4 8 5
20 3 32 -3 12 -2 17 5 40 2 6 4 16 5 21 1 18 -7 59 -12 59 -1 0 -2 1 -2 3 0 3
-8 11 -12 11 -1 0 -2 1 -2 2 0 3 -18 7 -30 5 -30 -3 -42 -12 -53 -40 -2 -4 -3
-9 -3 -11 0 -7 -9 -12 -19 -12 -14 0 -19 5 -20 22 -1 18 -8 32 -18 37 -8 5 -9
5 -55 5 l-47 -1 -6 6 c-6 6 -6 7 -5 24 0 20 -3 30 -13 41 -8 8 -23 9 -32 1 -5
-6 -15 -27 -15 -32 0 -5 -10 -14 -21 -20 -6 -3 -14 -9 -18 -12 -4 -4 -9 -7
-10 -7 -1 0 -1 0 0 -2 2 -1 0 -4 -4 -9 -6 -7 -7 -8 -12 -5 -8 3 -19 13 -19 16
0 4 8 18 16 26 12 13 14 16 14 26 0 10 -6 21 -14 23 -2 1 -4 2 -3 3 0 1 -1 4
-4 8 -5 5 -7 6 -16 6 -10 0 -15 -2 -24 -10 -3 -3 -3 -4 -1 -4 2 0 1 -1 -3 -2
-21 -8 -22 -74 0 -94 4 -5 4 -10 -2 -18 -6 -10 -13 -10 -30 -1 -16 8 -33 13
-45 13 -7 -1 -12 1 -22 7 -30 17 -26 16 -75 17 -58 1 -62 -1 -75 -28 -3 -7 -7
-17 -9 -23 -2 -5 -5 -14 -6 -18 -2 -5 -3 -11 -2 -18 1 -12 7 -17 23 -18 6 0
11 -1 12 -2 1 -1 2 0 2 2 0 2 2 3 6 4 3 1 9 3 14 4 5 1 10 2 10 2 2 -1 20 18
20 21 0 1 1 2 2 2 1 0 2 2 4 5 4 9 12 12 31 11 2 0 6 -3 9 -6 5 -5 6 -7 6 -18
0 -16 4 -34 9 -41 12 -17 21 -34 21 -41 0 -2 -2 -5 -4 -7 -2 -1 -3 -3 -3 -4 1
0 1 -1 -1 -1 -1 0 -2 -1 -1 -2 1 -1 0 -2 -2 -2 -2 0 -3 -1 -2 -2 2 -3 -12 -8
-20 -9 -3 0 -6 -1 -7 -1 -1 0 -1 -4 -1 -9 1 -11 -3 -16 -23 -27 -19 -10 -39
-31 -41 -42 -2 -11 -2 -23 1 -29 9 -23 -8 -39 -31 -28 -8 4 -30 6 -37 4 -3 0
-14 -8 -25 -16 -40 -30 -51 -26 -27 10 12 20 21 33 24 39 4 6 3 22 -1 32 -5 9
-24 22 -47 32 -11 5 -20 9 -20 10 0 1 -2 2 -5 2 l-6 0 6 2 c3 1 12 4 20 7 8 3
17 5 20 5 3 1 5 2 5 2 0 1 1 2 3 2 4 0 14 12 18 21 2 6 3 17 3 62 0 60 -1 64
-14 83 -20 30 -60 41 -77 22 -5 -6 -7 -27 -3 -34 4 -6 3 -24 -1 -31 -4 -8 -16
-13 -32 -14 -11 -1 -15 4 -19 20 -2 10 1 29 4 29 2 0 0 22 -3 28 -5 9 -8 11
-17 9 -13 -2 -20 -6 -33 -20 -7 -7 -16 -14 -20 -16 -5 -2 -10 -5 -13 -7 -3 -2
-9 -5 -15 -7 -27 -10 -40 -20 -49 -39 -5 -10 -14 -20 -17 -20 -1 0 -5 -2 -9
-5 -31 -24 -50 -25 -53 -3 -2 8 2 17 12 29 1 1 6 7 11 14 7 9 14 15 24 21 16
9 21 15 30 34 3 8 8 15 10 17 3 3 31 13 41 14 3 1 7 2 8 2 4 1 22 11 26 14 14
13 15 28 4 41 -4 4 -9 8 -10 8 -2 0 -3 1 -3 2 0 1 -1 1 -2 2 -26 2 -51 7 -55
10 -1 1 -5 2 -8 2 -6 1 -6 1 -1 1 9 2 14 17 14 38 0 8 1 15 3 19 4 7 4 21 1
30 -3 9 -10 12 -29 14 -27 3 -34 9 -34 30 1 27 26 35 53 19 12 -8 19 -11 39
-13 10 -1 20 -4 24 -6 28 -18 74 -17 94 1 9 7 9 8 8 16 -2 18 -6 24 -21 29 -4
1 -9 4 -11 6 -3 4 -3 4 2 9 3 3 8 5 11 6 9 2 20 8 24 12 3 4 8 16 9 23 3 15 9
22 19 22 7 0 13 -4 21 -15 5 -7 37 -16 40 -11 1 1 4 2 8 2 14 0 20 -17 10 -26
-3 -3 -6 -5 -7 -5 0 0 -4 -1 -7 -2 -3 -2 -9 -4 -12 -5 -4 -2 -7 -4 -7 -4 0 -1
-1 -2 -3 -2 -3 0 -14 -14 -20 -24 -6 -10 -8 -19 -12 -39 -2 -10 -3 -18 -3 -18
-9 -6 -12 -7 -20 -7 -16 0 -36 -6 -43 -13 -6 -6 -7 -10 -12 -29 -11 -48 2 -64
52 -64 22 0 31 3 36 12 4 7 7 28 5 29 -4 2 -2 22 2 27 7 9 27 9 35 0 3 -5 5
-25 1 -27 -2 -1 1 -22 5 -29 6 -12 8 -12 107 -12 71 0 93 1 100 3 10 3 32 14
36 18 2 1 6 4 10 7 5 4 10 11 16 22 11 22 15 26 29 26 16 0 23 -7 23 -23 0 -6
-1 -11 -2 -12 -3 -2 4 -28 9 -31 17 -14 37 9 37 42 -1 24 5 34 18 36 20 1 36
-19 33 -42 -1 -20 6 -40 15 -40 2 0 2 0 1 -2 -4 -2 17 -13 27 -14 5 0 11 1 18
4 9 5 10 5 92 6 78 1 83 1 90 5 6 4 14 15 15 25 1 3 2 6 3 7 1 1 1 3 1 4 -3 2
5 11 10 11 5 0 13 -9 10 -11 0 -1 0 -3 1 -4 1 -1 2 -4 3 -7 3 -20 19 -32 39
-29 6 1 12 1 14 1 1 1 2 1 2 2 0 1 1 2 3 2 4 0 14 12 18 21 3 7 3 18 2 79 0
39 -1 74 -2 77 -2 9 -8 13 -22 13 l-13 0 -1 12 0 11 -1 -13 c0 -16 -4 -20 -17
-20 -11 0 -17 7 -17 19 1 12 -5 29 -10 35 -9 9 -15 10 -62 10 -40 0 -46 0 -53
-4 -13 -6 -17 -16 -18 -45 0 -16 0 -18 -6 -22 -8 -7 -28 -7 -36 0 -6 4 -6 6
-6 20 -1 38 -4 43 -29 41 -4 0 -12 -1 -16 -3 -10 -3 -20 -1 -38 8 -7 3 -13 4
-24 4 -20 0 -28 -4 -49 -27 -7 -8 -11 -9 -23 -8 -3 0 -6 1 -7 2 -4 3 -33 2
-35 -2 0 -1 -2 -2 -3 -2 -2 0 -3 -1 -2 -1 0 -1 -2 -3 -6 -5 -8 -4 -11 -2 -18
16 -11 27 -14 28 -74 28 -44 -1 -46 -1 -52 -5 -4 -3 -8 -5 -10 -5 -4 0 -7 -7
-7 -15 0 -32 -6 -43 -25 -43 -16 0 -23 7 -23 22 0 6 1 12 2 14 3 5 30 23 36
25 4 1 5 2 5 8 -1 3 -1 9 -1 13 0 4 -3 17 -7 28 -4 12 -7 22 -8 24 -7 27 -20
48 -33 55 -11 5 -22 6 -41 4z m-458 -209 c24 -12 36 -46 21 -60 -3 -3 -7 -6
-9 -6 -23 -1 -28 2 -35 21 -12 36 -1 57 23 45z m655 -12 c1 0 5 -3 8 -6 5 -5
6 -7 6 -18 0 -11 -1 -13 -6 -18 -6 -6 -7 -6 -18 -6 -11 0 -12 0 -18 6 -5 5 -6
7 -6 17 0 14 3 20 12 24 5 2 8 2 22 1z m-880 -51 c4 -1 15 -10 26 -20 10 -9
21 -18 23 -18 3 -1 5 -2 5 -3 0 -1 3 -2 7 -3 3 -1 7 -2 8 -3 5 -4 33 -5 45 -2
21 5 31 5 37 -1 3 -3 5 -7 5 -9 0 -8 9 -27 15 -34 8 -8 21 -11 45 -10 l20 1 8
9 c8 8 13 20 15 33 3 13 10 20 25 20 15 0 22 -7 25 -20 3 -19 13 -35 21 -35 4
0 4 -1 -1 -2 -4 -1 -8 -2 -9 -3 -5 -4 -20 -6 -40 -7 -13 0 -23 -1 -26 -3 -3
-2 -4 -3 -3 -3 0 0 -2 -3 -6 -6 -10 -9 -13 -20 -13 -40 1 -16 1 -17 -4 -22 -4
-2 -6 -6 -6 -8 0 -2 -1 -2 -2 -1 -2 4 -18 -9 -24 -18 -2 -4 -5 -13 -7 -19 -4
-12 -9 -16 -22 -16 -13 0 -18 4 -22 16 -5 16 -11 26 -21 33 l-9 6 -35 1 c-49
1 -54 -1 -56 -26 0 -11 0 -13 4 -16 8 -6 19 -12 32 -18 7 -4 14 -9 16 -11 5
-6 7 -19 4 -25 -6 -12 -3 -41 6 -53 3 -5 6 -10 6 -11 0 -5 21 -24 35 -31 15
-8 29 -20 29 -27 0 -2 2 -10 5 -17 6 -17 6 -26 0 -32 -6 -6 -12 -6 -29 -2 -28
7 -46 -1 -46 -22 0 -14 3 -20 16 -29 14 -9 16 -13 16 -27 0 -10 -1 -12 -6 -17
-3 -3 -7 -6 -9 -6 -19 -1 -26 1 -47 17 -11 9 -12 9 -25 9 -9 0 -15 -1 -20 -3
-9 -5 -22 -4 -32 3 -14 10 -20 12 -39 13 -23 1 -22 1 -26 6 -5 4 -5 10 0 15 4
4 8 5 27 7 4 1 11 2 14 2 4 0 11 3 15 6 25 16 33 42 17 57 -7 6 -27 13 -37 12
-5 0 -8 1 -12 5 -4 5 -4 5 -4 38 1 38 3 45 14 49 24 9 29 12 35 17 9 8 11 18
6 35 -4 17 -4 26 1 45 4 14 5 23 6 66 l1 51 5 4 c4 3 8 4 18 4 6 0 12 1 12 2
0 1 1 2 3 2 1 -1 2 0 2 2 -1 1 0 2 1 2 2 0 2 5 2 13 -1 12 -1 13 4 14 4 0 4 0
-2 1 -3 0 -8 1 -11 2 -5 3 -6 4 -17 6 -9 1 -20 7 -20 10 0 1 -2 3 -4 6 -5 5
-14 22 -15 30 -3 12 9 16 25 9z m1215 -23 c11 -10 3 -28 -11 -28 -9 0 -16 6
-16 16 0 14 17 22 27 12z m-1359 -56 c2 -2 4 -7 4 -11 0 -3 2 -13 4 -22 7 -25
24 -47 48 -60 18 -9 22 -18 14 -27 -5 -5 -11 -5 -22 1 -18 10 -24 12 -34 11
-8 0 -10 -1 -15 -8 -5 -8 -10 -26 -9 -31 1 -5 -4 -20 -8 -24 -5 -5 -12 -7 -27
-8 -13 -1 -15 -1 -21 4 -6 5 -6 6 -5 16 3 25 6 31 21 38 21 11 36 39 30 58 -1
3 -2 9 -3 12 0 3 -4 11 -7 17 -6 12 -8 25 -4 32 5 10 27 11 34 2z m1204 -154
c4 -1 15 -1 26 0 34 4 44 2 49 -9 5 -9 4 -24 -1 -35 -8 -16 -8 -41 0 -51 4 -5
4 -26 -1 -33 -8 -10 -32 -12 -42 -3 -9 7 -11 26 -4 38 3 6 2 22 -2 29 -4 6
-11 8 -29 9 -17 1 -22 3 -27 10 -7 10 -3 39 7 49 3 3 4 3 10 1 4 -2 10 -4 14
-5z m-1289 -42 c2 -5 -6 -20 -12 -21 -3 -1 -7 -2 -8 -2 -4 -1 -11 8 -11 14 0
8 3 12 13 16 8 3 15 0 18 -7z m700 0 c1 -1 9 -4 16 -7 8 -3 16 -8 20 -11 3 -3
5 -6 4 -6 0 0 0 -3 1 -6 2 -7 0 -25 -6 -65 -3 -17 -8 -21 -25 -21 -17 0 -22 4
-25 21 -2 16 -4 23 -5 27 -1 2 -2 3 -2 4 -1 4 -7 14 -11 20 -8 11 -8 33 0 42
3 3 6 4 18 4 7 0 14 -1 15 -2z m-324 -16 c7 -11 1 -24 -11 -24 -12 0 -19 15
-10 24 6 6 17 5 21 0z m1188 -25 c12 -12 3 -31 -13 -31 -11 0 -18 7 -18 18 0
11 7 18 18 18 6 0 9 -1 13 -5z m-1089 -3 c3 -4 3 -15 -1 -18 -4 -4 -12 -2 -15
4 -5 10 8 21 16 14z m648 -46 c18 -4 26 -9 30 -19 12 -28 3 -47 -22 -48 -23 0
-29 8 -31 48 0 2 -1 2 -2 2 -3 -2 -3 5 0 8 2 2 3 4 3 5 1 1 3 2 4 3 2 0 5 1 5
2 2 1 1 1 13 -1z m-597 -27 c3 -3 3 -3 0 -6 -4 -5 -11 1 -7 6 4 4 4 4 7 0z
m880 -21 c3 -3 4 -6 4 -19 0 -20 -5 -25 -28 -28 -10 -1 -20 10 -21 24 -1 23 7
31 28 29 9 -1 13 -2 17 -6z m-184 -16 c6 -5 6 -10 2 -25 -2 -6 -2 -12 -2 -14
1 -1 1 -5 2 -8 0 -3 1 -6 1 -6 1 0 3 -1 5 -2 7 -4 25 -4 32 0 10 6 24 5 31 -3
9 -8 9 -24 0 -32 -7 -8 -21 -9 -31 -3 -8 4 -34 4 -44 0 -28 -11 -43 7 -30 35
6 14 10 30 10 43 0 18 13 25 24 15z m-403 -5 c9 -9 9 -35 0 -43 -8 -9 -32 -9
-40 0 -9 8 -9 32 0 41 8 7 34 9 40 2z m-813 -16 c3 -3 3 -3 0 -6 -4 -5 -11 1
-7 6 4 4 4 4 7 0z m631 -27 c5 -6 5 -13 0 -18 -12 -11 -29 5 -18 18 4 5 13 5
18 0z m723 -23 c5 -4 3 -17 -2 -17 -2 0 -7 8 -7 12 0 2 4 8 6 8 0 0 2 -1 3 -3z
m-728 -42 c14 -3 19 -26 7 -37 -5 -6 -7 -7 -16 -7 -15 0 -23 8 -23 23 0 18 12
26 32 21z m-597 -110 c3 -3 4 -7 4 -14 0 -13 -6 -19 -19 -19 -13 0 -19 6 -19
19 0 7 1 11 4 14 7 8 23 8 30 0z m67 -46 c3 -3 3 -4 1 -15 -1 -6 -2 -13 -2
-14 0 -5 -2 -5 -8 2 -5 5 -12 18 -12 22 0 8 14 12 21 5z m10 -44 c4 -4 7 -8 8
-10 1 -3 2 -5 3 -5 3 0 2 -13 0 -22 -4 -14 -20 -21 -28 -11 -4 3 -4 6 -3 14 0
6 1 12 2 13 1 2 2 3 2 4 1 4 9 22 10 22 0 0 3 -2 6 -5z m960 -80 c9 -9 5 -35
-5 -40 -6 -3 -26 -4 -29 -1 -3 3 -21 5 -35 5 -16 -1 -24 3 -17 8 2 2 6 3 7 3
2 0 6 1 8 2 3 1 9 3 13 4 4 1 12 6 17 10 14 12 19 14 28 14 6 0 9 -1 13 -5z
m-546 -13 c11 -10 11 -31 -1 -46 -4 -5 -11 -16 -16 -26 -4 -9 -10 -17 -13 -19
-6 -5 -18 -4 -24 2 -6 6 -6 13 0 35 3 9 6 24 7 32 4 22 8 25 30 26 10 0 13 -1
17 -4z m-454 -13 c4 -4 5 -7 5 -15 0 -14 -6 -20 -20 -20 -14 0 -20 6 -20 20 0
14 6 20 20 20 8 0 11 -1 15 -5z m631 -52 c16 -7 20 -30 8 -50 -2 -3 -5 -7 -5
-9 -1 -2 -3 -5 -5 -8 -2 -3 -4 -7 -4 -8 0 -2 -3 -5 -8 -8 -6 -5 -8 -5 -22 -4
-8 1 -18 3 -21 4 l-6 2 6 3 c12 5 19 25 15 42 -2 10 0 23 6 30 7 8 24 11 36 6z
m-205 -89 c4 -2 27 -4 74 -7 6 0 8 -3 2 -3 -1 0 -5 -2 -7 -4 -6 -5 -8 -28 -2
-36 5 -6 5 -22 0 -29 -12 -15 -50 -24 -61 -15 -6 6 -25 33 -25 37 0 3 -11 22
-17 29 -5 5 -13 10 -19 10 -2 0 -4 2 -5 5 -1 3 -2 6 -3 7 -1 1 5 2 14 4 8 1
16 3 17 3 3 1 28 0 32 -1z m-389 -54 c7 -8 -2 -40 -14 -51 -17 -16 -21 -20
-30 -32 -2 -4 -7 -8 -12 -9 -4 -1 -8 -3 -9 -4 -4 -2 -8 -1 -17 3 -11 6 -15 12
-15 26 0 19 8 27 31 28 28 1 37 6 46 24 10 19 14 22 20 15z m995 -17 c8 -4 12
-13 12 -25 -1 -18 -10 -27 -28 -27 -19 0 -26 8 -28 31 -1 12 -1 14 4 20 l6 7
14 -2 c8 0 17 -2 20 -4z m-457 -30 l-5 -5 -4 4 -5 5 4 4 5 5 4 -4 5 -5 -4 -4z
m154 -60 l-5 -5 -4 4 -5 5 4 4 5 5 4 -4 5 -5 -4 -4z m-739 -30 c8 -3 10 -7 11
-18 1 -12 -1 -16 -14 -26 -6 -5 -16 -14 -21 -20 -6 -6 -14 -16 -19 -21 -4 -5
-10 -12 -13 -15 -13 -17 -19 -21 -30 -21 -10 0 -17 7 -17 17 0 10 2 13 32 43
16 17 28 30 35 42 13 21 21 25 36 19z m1534 -32 c3 -3 3 -3 0 -6 -4 -5 -11 1
-7 6 4 4 4 4 7 0z m-675 -18 c3 -3 2 -5 -2 -5 -2 0 -4 -1 -4 -2 -1 -2 -10 -3
-37 -5 -14 -1 -16 -1 -20 2 -3 4 -3 5 1 8 3 2 9 3 28 4 14 1 25 2 26 2 1 1 7
-2 8 -4z m-130 -11 c-4 -6 -5 -6 -9 -2 -6 4 -6 6 -1 11 l5 5 4 -4 5 -4 -4 -6z
m646 -127 c5 -5 5 -9 -4 -28 -7 -15 -20 -23 -41 -26 -22 -3 -38 -20 -42 -44
-3 -18 -9 -23 -26 -23 -17 0 -23 5 -26 22 -3 19 -15 36 -28 40 -13 3 -121 3
-136 -1 -13 -3 -41 -3 -50 1 -3 1 -13 3 -22 4 -24 3 -36 7 -41 14 l-5 6 4 6
c5 6 9 6 56 9 13 1 26 2 29 2 2 0 14 1 26 2 11 1 26 1 31 2 6 1 18 1 27 2 9 1
26 2 38 4 12 2 39 3 60 4 21 0 50 2 64 3 14 1 33 2 43 3 10 1 18 2 18 2 1 0 5
0 11 0 8 0 11 -1 14 -4z m-631 -6 c12 -7 14 -33 3 -44 -8 -8 -32 -8 -40 1 -9
8 -9 32 0 41 7 7 27 8 37 2z m695 -28 l-5 -5 -4 4 -5 5 4 4 5 5 4 -4 5 -5 -4
-4z m-671 -68 c4 -2 10 -5 13 -8 3 -3 6 -5 6 -5 5 0 13 -17 13 -26 0 -32 -43
-29 -64 4 -7 11 -7 26 0 33 6 6 20 7 32 2z m213 -1 c5 -5 5 -11 0 -16 -10 -10
-27 5 -16 16 4 4 12 4 16 0z"/>
<path d="M495 3243 c-10 -7 -13 -14 -13 -34 0 -13 1 -21 3 -26 4 -9 14 -21 18
-21 2 0 3 -1 3 -2 0 -1 1 -1 3 -1 1 0 5 -1 8 -2 12 -2 22 8 23 24 0 4 1 10 2
11 1 2 1 4 0 4 -1 1 -2 3 -3 6 0 3 -1 6 -1 8 -11 33 -14 37 -27 37 -7 0 -12
-1 -16 -4z"/>
<path d="M1249 3237 c-14 -11 -18 -13 -25 -13 -5 0 -9 1 -9 3 -2 4 -23 1 -26
-4 -6 -7 -1 -43 5 -43 1 0 2 -1 2 -2 0 -5 11 -16 21 -21 8 -4 12 -5 29 -5 25
0 38 4 49 14 l7 8 -1 14 c-1 15 -2 21 -4 30 -1 3 -2 6 -2 8 0 2 -3 7 -5 11 -3
7 -5 9 -11 10 -5 0 -9 1 -11 2 -2 1 -9 -3 -19 -12z"/>
<path d="M717 2845 c-4 -6 -4 -20 0 -27 7 -11 28 -14 36 -5 6 8 6 24 1 30 -2
2 -4 4 -4 5 0 0 -7 1 -15 1 -12 0 -15 -1 -18 -4z"/>
<path d="M772 2323 c-12 -1 -30 -5 -30 -7 0 -1 -1 -2 -3 -2 -6 0 -16 -28 -14
-37 2 -8 -9 -15 -16 -10 -2 1 -4 5 -4 8 0 3 -1 6 -1 7 0 0 -1 1 -1 2 0 0 -1 4
-2 8 -1 3 -2 6 -3 6 -1 0 -2 2 -3 5 -1 7 -17 13 -28 11 -12 -3 -20 -10 -30
-29 -5 -10 -12 -21 -16 -24 -8 -7 -25 -16 -31 -15 -3 0 -6 -1 -7 -2 -1 -1 -3
-2 -5 -2 -3 0 -24 -9 -26 -12 -1 -1 -5 -4 -10 -7 -10 -6 -16 -6 -36 2 -21 8
-34 8 -46 2 -15 -6 -21 -12 -25 -25 -8 -25 11 -45 43 -44 10 0 17 -5 19 -14 3
-11 19 -27 31 -28 3 -1 6 -2 6 -3 3 -3 8 5 9 15 1 5 2 11 3 13 1 4 1 5 -2 7
-3 2 -2 3 3 8 6 5 9 6 28 8 36 4 40 3 47 -16 2 -6 6 -13 7 -14 2 -1 3 -3 3 -4
0 -4 11 -12 20 -14 15 -4 61 0 86 9 23 7 28 7 53 3 16 -3 17 -3 46 8 12 5 14
5 27 2 20 -3 36 0 42 9 5 8 7 15 9 34 1 9 2 17 3 18 2 3 2 7 -1 19 0 2 -1 5
-2 6 -2 3 -14 8 -20 8 -6 0 -15 9 -15 15 0 2 4 11 8 20 13 26 11 40 -10 50 -6
3 -14 4 -39 2 -3 0 -12 1 -20 2 -16 2 -34 2 -47 2z m-50 -106 c6 -9 -1 -23
-12 -23 -15 0 -20 22 -6 27 5 2 15 -1 18 -4z m79 -8 c12 -12 3 -31 -13 -31
-11 0 -18 7 -18 18 0 11 7 18 18 18 6 0 9 -1 13 -5z"/>
<path d="M1628 1931 c-4 -2 -4 -3 -1 -7 2 -2 3 -5 2 -7 0 -2 0 -3 1 -3 1 0 2
-1 1 -3 0 -2 0 -3 1 -2 1 1 2 0 2 -1 0 -1 1 -2 2 -1 1 1 2 0 2 -1 0 -1 1 -2 3
-2 2 0 3 1 3 2 0 1 1 1 3 1 3 -1 10 8 8 11 -1 2 -1 2 0 1 2 0 3 1 5 4 1 3 3 5
4 5 2 0 0 1 -4 3 -8 4 -28 4 -32 0z"/>
</g>
</svg>
