<?xml version="1.0" standalone="no"?>
<!DOCTYPE svg PUBLIC "-//W3C//DTD SVG 20010904//EN"
 "http://www.w3.org/TR/2001/REC-SVG-20010904/DTD/svg10.dtd">
<svg version="1.0" xmlns="http://www.w3.org/2000/svg"
 width="1000.000000pt" height="2850.000000pt" viewBox="0 0 1000.000000 2850.000000"
 preserveAspectRatio="xMidYMid meet">
<metadata>
Created by potrace 1.15, written by Peter Selinger 2001-2017
</metadata>
<g transform="translate(0.000000,2850.000000) scale(0.500000,-0.500000)"
fill="#000000" stroke="none">
<path d="M1140 3802 c-3 -1 -6 -1 -7 0 0 0 -1 0 -1 -2 0 -1 -1 -2 -3 -2 -4 0
-14 -12 -18 -21 -3 -6 -3 -15 -3 -48 0 -52 0 -52 30 -83 8 -8 14 -16 14 -16 0
-1 3 -6 8 -11 19 -21 16 -28 -9 -26 -23 2 -30 -1 -37 -14 l-5 -10 0 -86 0 -86
-6 -6 c-5 -5 -8 -6 -19 -7 -14 -1 -41 -1 -75 0 -19 1 -23 0 -29 -3 -11 -6 -14
-9 -19 -19 -4 -8 -4 -12 -4 -50 l0 -41 9 -19 c4 -11 8 -21 8 -22 0 -1 -4 -11
-8 -21 -5 -11 -8 -20 -7 -21 0 0 -2 -3 -6 -5 -4 -3 -7 -6 -7 -7 0 0 -6 -1 -13
-1 -12 0 -14 1 -20 6 l-6 6 0 132 c0 73 0 141 -1 153 0 12 0 72 1 135 1 102 1
114 -2 122 -4 9 -14 21 -18 21 -2 0 -3 1 -3 2 0 0 -2 2 -5 2 -4 1 -162 1 -353
1 -191 0 -349 0 -352 -1 -4 0 -6 -2 -6 -2 0 -1 -1 -2 -3 -2 -4 0 -14 -12 -18
-21 -3 -7 -3 -35 -3 -275 l1 -267 -6 -6 -6 -6 -31 0 c-33 0 -42 -1 -42 -3 0
-1 -1 -2 -3 -2 -4 0 -14 -12 -18 -21 -5 -11 -5 -291 0 -302 4 -9 14 -21 18
-21 2 0 3 -1 3 -2 0 -2 0 -2 24 -3 18 -1 20 -1 31 4 14 6 18 12 23 30 3 8 6
15 7 16 2 0 3 3 3 6 0 13 27 -8 33 -26 5 -17 4 -27 -5 -40 -4 -6 -10 -15 -12
-21 l-5 -9 0 -221 -1 -221 6 -11 c4 -8 8 -13 15 -18 6 -3 12 -9 14 -13 4 -6 4
-6 0 -13 -2 -3 -8 -9 -14 -12 -7 -5 -11 -10 -15 -18 l-6 -11 0 -90 c0 -106 3
-133 18 -174 l4 -12 -4 -9 c-4 -8 -8 -15 -16 -32 -4 -8 11 -36 19 -36 2 0 3
-1 3 -2 0 -1 1 -1 3 -2 28 -3 28 -3 41 3 7 3 16 8 19 11 19 17 38 16 54 -2 2
-2 10 -6 17 -9 13 -5 14 -5 47 -4 38 1 39 1 39 3 0 1 1 2 3 2 4 0 14 12 18 21
3 7 3 23 3 136 l-1 128 6 6 6 6 40 -1 c39 0 40 0 50 5 9 4 13 8 18 17 12 18
17 22 25 22 7 0 9 -1 15 -8 4 -5 7 -10 7 -11 0 -2 1 -3 2 -3 1 0 2 -2 2 -4 0
-2 1 -4 1 -5 2 -2 7 -21 7 -27 0 -2 -2 -7 -5 -10 l-5 -5 -44 0 c-25 -1 -46 -2
-50 -3 l-7 -2 0 -18 c0 -16 0 -18 3 -18 5 0 17 -8 21 -13 4 -6 4 -17 0 -22 -2
-3 -8 -8 -14 -12 -8 -5 -19 -18 -17 -20 0 -1 0 -1 0 -1 -3 -11 -3 -19 3 -37 3
-10 8 -27 10 -39 14 -58 16 -63 35 -73 18 -10 159 -2 183 10 11 6 19 19 22 36
1 4 3 10 5 12 4 6 12 5 28 -3 12 -7 26 -8 37 -3 6 3 24 19 31 29 12 14 19 26
34 61 4 10 12 16 17 14 2 -1 3 -2 3 -3 0 -4 17 -6 34 -5 20 2 21 1 26 -15 1
-5 3 -12 4 -16 3 -8 15 -20 39 -38 14 -11 35 -30 56 -49 26 -24 27 -25 41 -25
13 0 20 4 28 14 5 8 6 10 6 20 -1 18 -6 25 -24 34 -21 11 -28 18 -28 26 0 5 2
9 5 12 5 4 5 4 36 3 74 -3 68 -6 102 59 30 60 55 119 55 131 0 13 -11 27 -29
36 -13 6 -16 10 -19 20 -6 22 8 40 30 38 42 -5 55 4 61 41 1 3 2 8 3 10 3 6
26 119 29 143 1 7 2 14 2 16 4 16 5 29 4 33 -5 18 -14 25 -38 24 -12 0 -15 1
-18 4 -3 3 -3 4 1 7 2 2 5 4 7 4 9 2 32 10 37 14 7 6 19 27 22 38 2 10 8 77 8
102 1 21 -3 32 -16 46 -8 9 -12 15 -14 23 -1 5 -1 7 4 12 3 3 6 6 7 6 4 0 15
13 20 24 l5 12 1 71 c1 70 1 71 -3 80 -7 14 -16 19 -40 20 -17 1 -25 5 -28 13
-4 9 -3 24 1 32 4 8 22 22 34 27 22 8 34 16 46 27 19 18 24 17 44 -6 3 -4 8
-13 11 -20 6 -12 6 -14 6 -44 0 -32 2 -46 9 -54 2 -2 3 -4 3 -5 0 -2 1 -4 3
-5 15 -12 15 -46 0 -58 -2 -1 -3 -3 -3 -5 0 -1 -1 -3 -3 -5 -8 -10 -9 -19 -9
-104 0 -85 1 -89 9 -99 5 -5 28 -13 38 -13 8 1 16 -4 19 -10 2 -4 2 -24 -1
-36 -1 -4 4 -23 7 -27 5 -6 10 -18 10 -23 0 -12 -17 -18 -25 -9 -4 3 -5 7 -5
16 0 7 -1 14 -4 20 -6 12 -10 18 -10 16 0 -1 -2 -2 -4 -2 -21 0 -28 -4 -32
-20 -2 -6 -2 -74 -1 -259 0 -262 0 -265 9 -303 2 -10 7 -18 9 -16 0 1 1 1 1 0
0 -1 7 -2 15 -2 8 0 15 1 15 2 0 0 2 2 5 3 3 1 5 3 5 4 0 4 10 2 13 -3 4 -6 3
-11 -5 -16 -5 -3 -7 -3 -8 -1 -1 2 -2 2 -2 1 0 -1 -1 0 -3 2 -3 3 -4 2 -9 -2
-4 -5 -5 -6 -5 -18 1 -19 3 -25 20 -41 17 -16 20 -17 37 -20 10 -1 13 -1 16 2
2 2 5 4 6 4 1 0 2 2 2 9 0 1 0 6 -1 12 -1 8 -1 10 3 14 6 7 16 7 22 0 6 -6 5
-15 -2 -23 -6 -6 -6 -6 -6 -21 1 -15 1 -16 7 -20 8 -5 27 -5 38 1 5 2 13 8 19
14 6 6 18 14 26 18 l15 7 0 14 0 14 -1 -11 -1 -11 -1 10 c0 6 1 11 2 13 2 1 2
2 0 2 -1 0 -5 3 -8 6 -5 5 -6 7 -6 18 0 7 -2 21 -5 31 -6 23 -6 26 -2 29 4 3
13 -1 15 -7 1 -4 11 -14 32 -33 8 -7 8 -8 8 -19 0 -14 -4 -21 -14 -26 -10 -5
-13 -10 -14 -20 0 -11 3 -22 8 -24 2 -1 4 -3 5 -5 2 -7 19 -22 29 -25 18 -6
53 1 85 17 33 16 41 27 42 59 1 23 3 26 22 35 19 9 30 17 35 29 5 8 13 43 15
60 0 6 2 22 4 37 3 29 4 43 6 71 1 10 2 23 2 29 2 20 4 73 4 91 0 28 -9 44
-32 54 -22 10 -65 31 -75 37 -27 16 -34 20 -44 28 -12 9 -22 10 -35 5 -12 -5
-14 -11 -14 -53 0 -36 0 -37 5 -47 3 -5 9 -13 13 -16 19 -15 21 -18 22 -27 3
-20 0 -24 -26 -43 -8 -6 -17 -26 -19 -44 -4 -29 -6 -36 -13 -41 -8 -5 -9 -5
-16 1 l-6 5 -1 94 0 93 -6 11 c-4 8 -8 13 -15 18 -6 3 -12 9 -14 12 -4 7 -4 7
0 13 2 4 8 10 14 13 7 5 11 10 15 18 l6 11 0 422 c0 410 0 423 -4 431 -8 20
-23 26 -48 20 -17 -5 -20 -5 -44 1 l-19 5 -104 0 -104 -1 -6 6 -6 6 1 162 c0
178 0 175 -12 188 -3 4 -10 10 -16 13 -6 4 -13 10 -16 14 -3 4 -9 10 -13 15
-14 15 -18 15 -105 15 -41 0 -77 -1 -80 -2z m136 -143 c3 -3 4 -6 4 -16 -1
-15 1 -22 7 -35 7 -14 8 -21 4 -25 -2 -2 -6 -4 -9 -4 -8 0 -12 5 -12 18 0 6
-1 12 -2 12 -1 1 -2 2 -2 4 0 1 -4 9 -8 16 -4 8 -8 17 -8 20 0 13 17 20 26 10z
m-613 -34 c26 -3 31 -5 44 -19 11 -12 13 -17 13 -30 0 -10 -5 -19 -13 -21 -9
-3 -30 -14 -39 -19 -10 -7 -21 -23 -25 -37 -4 -13 -4 -197 0 -210 7 -24 26
-40 54 -47 9 -2 12 -2 27 3 9 3 17 5 17 5 3 0 7 14 7 24 -1 10 -2 11 -8 15 -5
4 -9 5 -17 5 -10 -1 -12 0 -17 6 -6 5 -7 7 -7 16 0 9 1 11 7 16 5 6 7 7 16 7
8 0 11 -2 23 -10 14 -10 23 -13 46 -17 13 -2 15 -5 19 -25 2 -10 7 -24 10 -32
8 -19 8 -33 0 -41 -6 -6 -7 -7 -20 -6 -30 1 -35 -1 -52 -13 -16 -10 -27 -11
-47 -1 -8 4 -17 7 -25 7 -11 1 -12 1 -19 -5 -4 -4 -6 -7 -6 -8 1 -1 0 -2 -1
-2 -2 0 -8 -3 -14 -6 l-12 -6 -6 7 -7 6 1 73 c0 63 0 74 -3 83 -4 13 -13 22
-28 31 -14 8 -17 12 -17 26 0 14 3 18 17 26 18 11 20 13 21 28 0 11 0 13 -4
16 -3 2 -6 4 -7 4 -2 0 -3 1 -3 2 0 3 -12 3 -94 3 l-83 0 -6 6 c-8 8 -8 16 0
24 l6 6 93 -1 c80 0 94 0 101 3 9 4 18 11 25 22 3 4 9 11 12 15 3 3 6 7 6 8 0
0 2 2 4 4 2 2 3 4 2 16 -1 7 -1 14 -2 14 -2 2 -20 6 -26 6 -12 0 -19 15 -10
24 4 4 6 4 15 3 5 -1 20 -2 32 -4z m-109 -9 c5 -6 5 -12 0 -18 -7 -8 -22 -2
-22 9 0 11 15 17 22 9z m-266 -36 c5 -5 6 -7 6 -16 0 -14 -4 -19 -15 -24 -11
-5 -25 -6 -22 -2 1 1 0 2 0 2 -5 2 -9 15 -9 24 0 9 1 11 6 16 5 5 7 6 17 6 10
0 12 -1 17 -6z m567 -9 c3 -3 3 -3 0 -6 -3 -3 -3 -3 -6 0 -3 2 -3 3 -1 6 4 4
4 4 7 0z m-58 -54 c3 -5 3 -5 0 -10 -2 -3 -5 -5 -7 -5 -2 0 -5 2 -7 5 -3 5 -3
5 0 10 2 3 5 5 7 5 2 0 5 -2 7 -5z m-544 -17 c6 -14 4 -21 -15 -38 -19 -18
-29 -22 -35 -13 -3 5 -3 6 0 14 5 13 20 33 30 39 11 7 15 7 20 -2z m1062 -17
c12 -7 14 -33 3 -43 -8 -9 -32 -9 -40 0 -9 8 -9 32 0 41 7 7 27 8 37 2z m-943
-76 l-5 -5 -4 4 -5 5 4 4 5 5 4 -4 5 -5 -4 -4z m856 8 c16 -7 20 -37 7 -48
-12 -11 -34 -11 -43 0 -9 10 -9 32 0 42 7 8 24 11 36 6z m-922 -15 c5 -5 5
-11 0 -16 -10 -10 -27 5 -16 16 4 4 12 4 16 0z m1159 -67 c3 -5 3 -6 1 -11 -7
-11 -36 -20 -43 -13 -2 1 -3 4 -3 5 0 5 7 12 15 16 16 9 25 9 30 3z m117 -20
l-5 -5 -4 4 -5 5 4 4 5 5 4 -4 5 -5 -4 -4z m-1157 -84 l0 -42 -7 -6 -6 -7 -6
6 c-4 3 -7 6 -8 6 -1 0 -2 1 -2 3 0 3 -6 15 -8 17 -4 3 -13 23 -13 30 0 7 10
30 14 30 0 0 1 1 1 3 0 2 1 3 2 3 1 0 6 3 11 6 l9 5 7 -6 6 -6 0 -42z m1031
18 c2 -2 8 -8 13 -12 4 -4 13 -10 18 -13 6 -3 11 -6 13 -7 2 -2 4 -3 5 -3 8
-2 13 -12 13 -26 0 -14 -5 -20 -17 -20 -14 0 -22 5 -29 17 -6 11 -14 19 -34
38 -6 6 -8 9 -8 14 0 13 16 20 26 12z m-275 -27 c4 -6 4 -24 -1 -30 -7 -9 -27
-9 -34 0 -5 6 -5 24 0 30 7 9 27 9 35 0z m-659 -19 c3 -2 7 -4 8 -6 5 -6 10
-24 9 -36 -1 -5 -1 -21 -1 -34 0 -20 -1 -25 -4 -28 -2 -3 -5 -5 -6 -5 -4 0
-11 8 -14 16 -7 18 -12 28 -21 36 -20 18 -19 48 2 57 7 3 20 3 27 0z m748 -71
c5 -6 5 -12 0 -18 -7 -8 -22 -2 -22 9 0 11 15 17 22 9z m-176 -28 c1 -1 6 -4
9 -7 l6 -6 -1 -31 c0 -36 2 -45 11 -55 16 -16 37 -18 69 -7 33 11 51 3 51 -23
0 -23 -16 -33 -40 -26 -18 5 -47 5 -62 -1 -16 -6 -25 -15 -29 -27 -4 -15 -3
-45 3 -67 6 -24 6 -29 -1 -48 -7 -19 -8 -23 -9 -38 -8 -98 -13 -137 -21 -188
-9 -52 -15 -81 -27 -126 -11 -42 -12 -52 -9 -96 2 -17 7 -39 10 -41 6 -4 12
-18 12 -27 0 -16 -15 -24 -33 -15 -6 3 -10 3 -19 2 -19 -2 -22 -4 -36 -33 -5
-11 -10 -21 -11 -23 -1 -1 -5 -7 -8 -13 -14 -27 -60 -98 -63 -98 -1 0 -3 2 -5
5 -3 4 -3 13 -4 96 0 107 1 99 -23 122 l-15 15 2 16 c0 8 2 19 3 22 4 9 4 23
0 22 -1 0 -2 1 -1 2 1 1 0 2 -1 2 -1 0 -2 5 -2 11 l0 11 13 0 c14 0 20 4 22
13 1 3 2 87 2 185 l0 179 6 6 6 6 35 0 c37 0 46 1 46 3 0 1 1 2 3 2 4 0 14 12
18 21 3 7 3 22 3 125 l-1 117 6 6 c4 3 8 6 9 5 2 0 8 1 14 2 10 2 55 1 62 0z
m543 -10 c5 -7 4 -25 -2 -31 -7 -7 -28 -8 -33 -2 -5 6 -5 27 0 33 7 9 27 9 35
0z m-1185 -19 c16 -7 20 -37 7 -48 -12 -11 -34 -11 -43 0 -9 10 -9 32 0 42 7
8 24 11 36 6z m223 -9 c7 -3 12 -13 12 -25 0 -19 -9 -28 -28 -28 -19 0 -28 9
-28 28 0 17 6 24 22 28 5 1 14 -1 22 -3z m159 -31 c3 -3 4 -7 4 -14 0 -13 -6
-19 -19 -19 -13 0 -19 6 -19 19 0 7 1 11 4 14 7 8 23 8 30 0z m744 0 c3 -3 4
-6 4 -18 0 -12 -1 -14 -6 -19 -5 -5 -7 -6 -17 -6 -10 0 -12 1 -17 6 -8 8 -9
25 -1 33 7 9 28 11 37 4z m-1350 -51 c5 -5 5 -11 0 -16 -10 -10 -27 5 -16 16
4 4 12 4 16 0z m1104 -24 c11 -8 11 -33 1 -41 -8 -7 -28 -7 -36 0 -6 4 -6 6
-6 20 0 14 0 16 6 20 7 7 28 7 35 1z m-600 -6 c4 -4 7 -7 7 -7 0 0 -3 -3 -7
-7 l-7 -7 -210 0 -210 0 -7 7 c-4 4 -6 7 -6 8 1 0 4 3 7 7 l6 6 210 0 210 0 7
-7z m-583 -8 c6 -6 7 -20 2 -24 -2 -1 -3 -4 -3 -6 0 -2 -1 -4 -3 -4 -2 0 -3
-1 -3 -2 0 -3 -9 2 -16 10 -8 6 -8 18 -2 25 6 7 19 7 25 1z m1167 -110 c0 -1
-2 -3 -5 -5 -5 -3 -6 -3 -10 1 l-5 5 4 4 4 5 6 -4 c3 -3 6 -5 6 -6z m-919 -42
c10 -9 3 -26 -10 -26 -8 0 -15 7 -15 15 0 13 16 20 25 11z m1241 -33 c5 -5 6
-21 2 -26 -3 -4 -11 -8 -17 -8 -6 0 -14 4 -17 8 -4 5 -3 21 2 26 7 8 23 8 30
0z m-953 -1 c5 -5 6 -12 3 -21 -2 -5 -4 -30 -6 -66 -1 -13 1 -23 7 -35 5 -12
5 -12 2 -17 -2 -3 -5 -5 -6 -5 -5 0 -19 12 -19 16 -1 4 -5 7 -16 12 -21 11
-34 12 -131 12 l-82 -1 -6 6 c-6 6 -6 7 -6 25 0 18 0 19 6 25 3 3 7 6 7 6 1
-1 43 -1 93 -1 82 0 93 0 100 3 10 4 19 13 24 25 8 19 20 25 30 16z m128 -12
c5 -5 6 -7 6 -16 0 -9 -1 -11 -7 -16 -5 -6 -7 -7 -16 -7 -9 0 -11 1 -16 7 -9
8 -9 23 -1 32 9 9 24 9 34 0z m806 -58 c-1 -1 0 -2 1 -2 7 -1 15 -6 19 -10 2
-3 3 -9 3 -16 0 -9 -1 -11 -6 -16 -5 -5 -7 -6 -17 -6 -10 0 -12 1 -17 6 -10
10 -7 33 5 38 2 1 5 1 6 1 1 0 2 2 3 4 1 1 3 3 3 3 1 0 1 -1 0 -2z m-1023
-123 c3 -2 7 -6 10 -9 7 -7 12 -9 27 -10 9 0 13 1 15 3 4 5 16 4 21 -1 6 -6 7
-17 1 -23 -5 -6 -18 -7 -22 -2 -1 2 -3 3 -4 3 -1 0 -5 2 -7 4 -7 6 -29 4 -39
-3 -6 -4 -9 -5 -22 -5 -25 1 -35 -2 -52 -14 -14 -11 -39 -8 -45 5 -4 7 -5 22
-1 31 4 9 12 13 26 12 37 -2 44 -1 56 5 13 8 28 9 36 4z m-321 -95 c5 -5 6 -7
6 -16 0 -9 -1 -11 -7 -16 -5 -6 -7 -7 -16 -7 -9 0 -11 1 -16 7 -9 8 -9 23 -1
32 9 9 24 9 34 0z m1014 -10 c4 -6 4 -24 -1 -30 -7 -9 -27 -9 -34 0 -5 6 -5
24 0 30 7 9 27 9 35 0z m-688 -23 c8 -9 8 -19 0 -28 l-6 -6 -79 0 -79 0 -6 6
c-8 9 -8 19 0 28 l6 6 79 0 79 0 6 -6z m244 1 c5 -4 4 -31 -1 -36 -4 -4 -4 -4
-10 -1 -8 4 -18 4 -37 -1 -23 -6 -32 -6 -40 2 -8 8 -8 23 0 32 7 7 6 7 49 7
27 0 36 -1 39 -3z m789 -30 c5 -5 6 -7 6 -17 0 -10 -1 -12 -6 -17 -5 -5 -7 -6
-17 -6 -10 0 -12 1 -17 6 -5 5 -6 7 -6 17 0 10 1 12 6 17 5 5 7 6 17 6 10 0
12 -1 17 -6z m-360 -51 l-5 -5 -4 4 -5 5 4 4 5 5 4 -4 5 -5 -4 -4z m-685 -20
c4 -4 5 -7 5 -13 0 -11 -7 -18 -18 -18 -11 0 -18 7 -18 18 0 11 7 18 18 18 6
0 9 -1 13 -5z m-137 -28 c3 -3 4 -7 4 -14 0 -13 -6 -19 -19 -19 -13 0 -19 6
-19 19 0 7 1 11 4 14 7 8 23 8 30 0z m233 -68 c4 -4 5 -7 5 -13 0 -11 -7 -18
-18 -18 -11 0 -18 7 -18 18 0 11 7 18 18 18 6 0 9 -1 13 -5z m-381 -2 c16 -7
20 -37 7 -48 -12 -11 -34 -11 -43 0 -9 10 -9 32 0 42 7 8 24 11 36 6z m1560
-31 c5 -5 5 -11 0 -16 -10 -10 -27 5 -16 16 4 4 12 4 16 0z m-1100 -70 c2 -3
4 -6 4 -8 0 -6 -9 -33 -15 -45 -7 -14 -11 -17 -23 -17 -14 0 -20 6 -20 19 0
11 2 15 15 31 20 24 31 29 39 20z m1030 -30 c5 -5 5 -11 0 -16 -10 -10 -27 5
-16 16 4 4 12 4 16 0z m-1189 -23 c4 -4 5 -7 5 -15 0 -14 -6 -20 -20 -20 -14
0 -20 6 -20 20 0 14 6 20 20 20 8 0 11 -1 15 -5z m72 -86 c4 -4 5 -7 5 -15 0
-14 -6 -20 -20 -20 -8 0 -11 1 -15 5 -4 4 -5 7 -5 15 0 14 6 20 20 20 8 0 11
-1 15 -5z"/>
</g>
</svg>
