<?xml version="1.0" standalone="no"?>
<!DOCTYPE svg PUBLIC "-//W3C//DTD SVG 20010904//EN"
 "http://www.w3.org/TR/2001/REC-SVG-20010904/DTD/svg10.dtd">
<svg version="1.0" xmlns="http://www.w3.org/2000/svg"
 width="1000.000000pt" height="2850.000000pt" viewBox="0 0 1000.000000 2850.000000"
 preserveAspectRatio="xMidYMid meet">
<metadata>
Created by potrace 1.15, written by Peter Selinger 2001-2017
</metadata>
<g transform="translate(0.000000,2850.000000) scale(0.500000,-0.500000)"
fill="#000000" stroke="none">
<path d="M432 3819 c-1 0 -5 -1 -9 -1 -18 -3 -24 -9 -50 -57 -4 -8 -9 -16 -10
-18 -2 -2 -10 -14 -18 -27 -8 -13 -16 -24 -17 -26 -24 -34 -57 -78 -65 -87 -1
-1 -7 -7 -12 -14 -45 -55 -128 -138 -184 -182 -5 -4 -11 -9 -12 -10 -1 -1 -7
-6 -12 -10 -13 -11 -18 -23 -17 -40 0 -7 9 -24 15 -28 8 -5 23 -7 38 -6 14 1
15 1 20 -4 8 -8 7 -20 -2 -28 -4 -4 -9 -7 -10 -7 -1 0 -5 -2 -8 -5 -11 -8 -17
-26 -13 -38 1 -3 5 -15 8 -27 11 -35 15 -44 26 -54 15 -13 24 -22 24 -25 0 -1
-2 -9 -5 -17 -3 -8 -5 -19 -5 -24 0 -12 5 -16 21 -17 11 -1 11 -1 21 7 6 5 13
11 16 14 3 3 9 8 12 11 4 3 8 8 9 9 3 6 11 -8 13 -21 1 -7 3 -15 4 -18 3 -7
14 -19 17 -19 2 0 3 -1 3 -2 0 -2 10 -3 51 -3 l40 0 6 -6 6 -6 0 -28 0 -28 -6
-6 c-5 -5 -7 -6 -13 -5 -17 1 -34 -8 -40 -22 -1 -4 -4 -9 -6 -12 -3 -4 -4 -6
-3 -6 1 0 0 -2 -3 -5 -4 -4 -7 -5 -13 -5 -6 0 -9 1 -13 5 -3 3 -4 5 -3 5 1 0
0 2 -3 6 -2 3 -5 8 -6 12 -4 9 -14 17 -24 20 -6 2 -21 2 -44 1 -39 -1 -40 -1
-40 -3 0 -1 -1 -2 -3 -2 -4 0 -14 -12 -18 -21 -3 -7 -3 -13 -2 -30 0 -12 1
-24 1 -26 1 -2 4 -9 6 -16 5 -15 5 -23 0 -38 -2 -7 -5 -14 -6 -16 0 -2 -1 -22
-1 -44 -1 -33 -1 -41 2 -48 4 -9 14 -21 18 -21 2 0 3 -1 3 -2 0 -3 12 -3 108
-3 l97 0 6 -6 c3 -3 6 -7 6 -7 -1 -1 -1 -33 -1 -72 0 -38 -1 -70 -2 -71 0 -1
-1 -2 -1 -3 0 -1 -1 -3 -1 -4 0 -2 -1 -1 -3 1 -2 4 -2 3 -3 -3 l-1 -7 -1 8 c0
4 -1 13 -3 20 -2 7 -4 14 -4 16 -1 2 -3 11 -5 20 -2 9 -5 17 -5 19 -9 39 -18
51 -41 55 -7 1 -17 -1 -57 -13 -54 -15 -57 -17 -65 -25 -6 -7 -14 -25 -14 -32
0 -3 -3 -13 -6 -23 -10 -30 -10 -31 -4 -65 7 -33 19 -104 21 -120 1 -5 2 -12
2 -14 1 -4 6 -48 8 -66 4 -31 24 -46 53 -36 16 5 93 29 104 32 6 2 12 4 14 5
2 1 4 0 8 -4 12 -12 5 -39 -10 -39 -4 0 -23 -2 -58 -8 -4 0 -16 -2 -28 -4 -12
-2 -24 -3 -27 -4 -3 0 -15 -2 -27 -4 -12 -2 -24 -3 -27 -4 -3 0 -16 -2 -28 -4
-25 -4 -33 -7 -42 -15 -8 -8 -11 -17 -11 -29 0 -11 41 -215 45 -223 5 -10 14
-18 25 -21 l11 -3 57 12 c67 14 74 16 81 24 7 9 9 17 10 40 0 20 0 21 6 25 4
4 7 5 18 5 15 0 22 -4 24 -14 4 -20 15 -34 29 -39 10 -3 22 -2 71 10 7 1 19 4
27 6 22 4 89 19 103 22 7 1 15 3 18 4 3 0 29 6 57 12 49 11 66 16 71 23 5 6
11 25 12 37 2 20 9 28 29 28 14 -1 19 -4 28 -20 4 -7 8 -13 9 -13 0 0 8 0 17
0 l15 0 3 11 c2 7 3 15 2 29 -5 74 -5 70 -7 107 -3 57 -6 71 -20 79 -11 7 -20
9 -34 6 -11 -2 -17 -2 -37 1 -14 2 -33 3 -43 3 -16 0 -20 1 -24 4 -12 10 -7
20 18 32 9 4 20 11 25 16 8 8 12 9 37 19 15 6 25 14 31 25 2 4 12 35 22 70 10
35 21 70 23 78 5 16 5 25 -1 37 -6 11 -15 17 -35 22 -7 1 -21 5 -32 8 -11 3
-21 5 -23 6 -2 0 -7 1 -12 3 -10 2 -29 7 -55 14 -29 7 -44 2 -54 -19 -4 -9 -6
-15 -8 -35 -1 -6 -2 -17 -4 -27 0 -2 -1 -9 -1 -15 0 -8 -1 -9 -1 -4 -1 4 -2 6
-4 6 -2 0 -3 -1 -2 -2 1 -2 1 -2 -1 0 -2 2 -3 13 -4 54 l-1 51 6 6 6 6 99 0
c98 0 110 0 110 3 0 1 1 2 3 2 6 0 9 8 8 20 -1 9 -1 12 1 12 1 0 0 2 -3 6 -20
19 -21 41 -2 62 3 2 7 10 10 16 l6 11 1 52 c0 44 0 53 -3 60 -4 9 -14 21 -18
21 -2 0 -3 1 -3 2 0 2 -2 2 -103 3 -111 1 -106 2 -133 -14 -13 -8 -16 -10 -26
-10 -19 0 -27 8 -27 27 0 18 7 25 24 27 14 1 29 7 34 13 5 6 13 24 11 24 -1 0
1 3 5 7 l6 6 57 0 c57 0 68 1 68 3 0 1 1 2 3 2 4 0 14 12 18 21 2 6 3 17 3 63
l0 55 6 11 5 11 8 -1 c10 -2 18 -7 21 -13 2 -6 15 -17 49 -41 41 -30 39 -29
42 -31 1 -1 8 -7 16 -13 8 -6 14 -11 15 -12 1 -1 11 -10 24 -20 13 -11 27 -23
32 -28 17 -17 19 -18 32 -18 13 0 19 2 25 7 5 5 19 22 23 28 1 2 3 4 4 5 1 1
10 12 20 26 10 14 19 25 20 26 0 1 1 2 1 3 0 1 2 9 4 17 4 16 9 22 23 26 4 2
8 4 9 5 0 2 9 16 20 32 57 86 59 90 59 107 0 6 -1 16 -3 23 -3 12 -2 20 2 30
4 8 25 13 39 7 8 -3 12 -10 13 -25 2 -18 10 -33 21 -38 8 -5 10 -5 52 -5 40 0
45 0 62 5 23 6 27 6 45 1 8 -2 20 -5 26 -6 9 -1 14 -3 18 -7 3 -3 4 -5 3 -5
-1 0 -2 -2 -3 -4 -1 -3 -18 -32 -29 -50 -1 -2 -6 -9 -10 -17 -5 -8 -16 -25
-25 -39 -15 -21 -17 -26 -17 -33 0 -17 7 -26 29 -40 6 -3 22 -13 36 -22 14
-10 31 -19 38 -22 15 -7 21 -11 41 -31 8 -9 17 -16 18 -16 1 0 2 -1 1 -1 0 -1
0 -4 2 -6 3 -4 3 -5 -1 -9 -3 -2 -7 -4 -11 -4 -4 0 -12 -3 -19 -6 -17 -9 -26
-8 -49 3 -16 8 -20 9 -29 9 -5 -1 -10 -1 -10 -2 0 -1 -1 -2 -3 -2 -4 0 -14
-12 -18 -21 -5 -11 -5 -199 0 -210 4 -9 14 -21 18 -21 2 0 3 -1 3 -2 0 -2 11
-3 79 -3 l68 0 6 -6 6 -6 0 -52 0 -52 -6 -6 -6 -6 -83 0 c-86 -1 -94 -1 -94
-3 0 -1 -1 -2 -3 -2 -4 0 -14 -12 -18 -21 -5 -11 -5 -191 0 -202 4 -9 14 -21
18 -21 2 0 3 -1 3 -2 0 -3 12 -3 94 -3 l83 0 6 -6 6 -6 0 -63 0 -63 -6 -6 -6
-6 -95 1 c-104 0 -100 1 -128 -12 -10 -5 -21 -9 -24 -9 -11 -1 -27 -10 -33
-18 -3 -4 -9 -10 -12 -14 l-6 -7 -33 1 c-36 1 -41 3 -43 13 -7 33 -23 48 -49
46 -8 -1 -10 0 -15 5 l-6 6 0 64 0 64 6 6 6 6 79 0 c79 0 90 0 90 3 0 1 1 2 3
2 4 0 14 12 18 21 5 13 3 37 -4 44 -7 8 -19 12 -36 14 -14 2 -19 7 -19 20 0
13 5 18 19 20 24 2 36 9 41 23 3 11 3 71 -1 81 -4 9 -14 21 -18 21 -2 0 -3 1
-3 2 0 3 -11 3 -90 3 l-79 0 -6 6 -6 6 1 82 1 82 5 9 c3 4 6 8 7 8 2 0 32 13
55 23 8 4 15 7 15 7 1 0 76 37 95 47 24 13 37 20 42 23 8 4 18 14 17 16 -1 1
0 2 1 3 3 2 2 19 -1 26 -2 3 -9 11 -16 19 -15 15 -23 23 -59 62 -15 16 -33 35
-40 42 -7 7 -20 21 -29 31 -17 18 -22 21 -40 21 -12 0 -12 0 -44 -24 -31 -23
-76 -53 -90 -61 -18 -10 -22 -18 -22 -49 0 -23 0 -25 -5 -28 -9 -8 -24 -5 -38
7 -2 2 -8 6 -13 7 -14 6 -21 5 -50 -9 -14 -8 -32 -16 -39 -20 -13 -7 -22 -14
-29 -27 l-4 -9 -1 -275 0 -276 7 -21 c4 -12 7 -24 7 -26 0 -2 -3 -14 -7 -26
l-7 -22 0 -91 1 -91 5 -9 c5 -8 19 -20 24 -20 0 0 4 -3 8 -7 9 -9 9 -20 -1
-29 -3 -3 -7 -6 -8 -6 -4 0 -18 -12 -23 -20 -5 -9 -5 -10 -6 -46 0 -30 0 -38
3 -45 4 -9 14 -21 18 -21 2 0 3 -1 3 -2 0 -2 1 -2 42 -3 51 -2 61 2 63 22 1
12 2 14 4 15 1 1 0 2 -3 3 -9 3 -2 18 8 18 10 0 17 -15 8 -18 -3 -1 -4 -2 -3
-3 2 -1 3 -3 4 -15 2 -21 11 -24 66 -22 44 1 45 1 45 3 0 1 1 2 3 2 4 0 14 12
18 21 2 5 3 13 3 17 -1 8 0 10 5 15 l6 6 216 0 216 0 6 -6 c4 -4 6 -7 6 -7 0
0 1 -3 2 -7 4 -9 14 -21 18 -21 2 0 3 -1 3 -2 0 -3 12 -3 119 -3 107 0 119 0
119 3 0 1 1 2 3 2 4 0 14 12 18 21 3 6 3 20 3 96 0 88 0 88 -5 106 -6 23 -6
33 0 57 5 18 5 20 5 94 0 85 0 83 -18 110 -12 18 -12 26 2 47 14 21 13 20 9
56 -1 7 0 15 1 21 6 26 1 40 -20 52 -21 12 -23 14 -23 28 -1 17 1 21 17 30 7
4 16 10 19 13 6 5 7 7 7 17 0 12 -3 16 -13 22 -7 3 -22 8 -26 8 -15 0 -18 27
-5 50 5 8 9 11 27 25 10 7 14 11 18 20 l5 11 0 92 c0 79 0 93 -3 99 -4 9 -14
21 -18 21 -2 0 -3 1 -3 2 0 0 -2 2 -5 2 -7 1 -215 1 -226 0 -6 -1 -10 -3 -17
-10 -5 -5 -12 -10 -15 -12 -6 -2 -8 -2 -17 3 -8 5 -10 6 -10 11 1 5 7 8 25 9
4 0 9 0 10 1 0 0 1 0 2 0 1 -1 7 6 7 8 0 1 2 4 5 7 2 2 7 8 11 13 18 26 30 43
40 57 6 9 11 16 12 17 4 4 29 44 35 57 4 8 12 20 17 25 5 6 16 21 23 34 8 12
16 26 18 30 3 4 8 13 12 20 5 7 11 17 14 22 3 5 6 11 7 13 1 2 3 5 4 7 7 11
19 32 24 43 7 13 8 27 4 47 -4 20 0 27 22 44 4 3 5 6 6 19 1 8 1 16 0 17 -1 1
-5 4 -10 7 -5 3 -9 6 -10 7 -3 3 -21 14 -27 17 -8 3 -29 4 -29 1 0 -1 -1 -2
-2 -1 -1 0 -1 -1 -1 -4 0 -2 0 -5 -1 -7 -1 -2 -2 -9 -3 -17 -2 -21 -7 -27 -25
-27 -9 0 -11 1 -16 6 -5 5 -6 7 -6 16 0 13 5 23 12 27 3 1 8 5 12 9 6 5 6 6 6
20 0 11 -1 15 -4 18 -2 2 -5 4 -5 4 -1 0 -5 2 -8 5 -3 3 -6 5 -7 5 0 0 -4 2
-7 5 -3 3 -6 5 -7 5 -1 0 -3 1 -4 3 -4 3 -16 8 -24 11 -9 2 -19 1 -37 -3 -11
-3 -29 -4 -88 -4 -86 -1 -84 -1 -108 -24 -7 -7 -15 -13 -17 -13 -2 0 -6 0 -8
0 -2 0 -6 0 -8 0 -2 0 -10 6 -17 13 -15 14 -30 23 -40 23 -9 0 -20 11 -16 14
2 1 3 3 3 4 0 1 2 7 5 12 2 6 10 23 16 38 6 15 13 30 15 35 4 6 4 9 2 19 -1 6
-2 11 -2 11 0 3 -14 16 -21 19 -9 4 -77 26 -81 26 -1 0 -5 1 -8 3 -4 1 -32 11
-63 21 -53 17 -57 18 -65 16 -23 -5 -28 -10 -46 -55 -26 -65 -29 -71 -58 -130
-20 -41 -53 -101 -69 -128 -2 -2 -7 -11 -12 -20 -10 -17 -55 -85 -57 -87 -1
-1 -4 -5 -8 -11 -7 -11 -34 -47 -41 -56 -1 -1 -9 -11 -18 -22 -24 -30 -44 -49
-48 -48 -2 1 -3 2 -2 2 2 1 2 3 2 5 -2 4 5 21 22 57 9 20 25 52 30 64 3 6 8
18 13 28 10 21 12 32 7 46 -4 8 -7 13 -24 27 -12 10 -23 19 -26 21 -3 2 -6 5
-8 6 -5 5 -27 21 -39 29 -7 5 -13 9 -14 10 -2 3 -117 78 -119 78 0 0 -5 3 -10
6 -5 3 -9 6 -10 6 -2 0 -19 13 -22 17 -5 6 -4 16 3 29 8 16 8 29 -1 42 -5 8
-9 10 -83 46 -12 5 -37 17 -57 27 -38 18 -44 21 -45 20z m773 -238 c4 -4 5 -7
5 -13 0 -11 -7 -18 -18 -18 -11 0 -18 7 -18 18 0 11 7 18 18 18 6 0 9 -1 13
-5z m60 -4 c3 -3 3 -3 0 -6 -3 -3 -3 -3 -6 0 -3 2 -3 3 -1 6 4 4 4 4 7 0z
m-948 -43 c7 -6 7 -19 1 -25 -6 -7 -19 -7 -25 -1 -7 6 -7 19 -1 25 6 7 19 7
25 1z m140 -27 c7 -4 10 -11 10 -23 0 -10 -1 -13 -6 -19 -8 -11 -9 -12 -14
-12 -8 1 -25 7 -28 11 -8 9 -8 32 1 41 7 7 27 8 37 2z m27 -90 c0 -2 6 -5 11
-8 10 -6 69 -45 71 -47 1 -1 6 -4 11 -8 6 -4 16 -11 24 -17 8 -6 17 -12 19
-13 4 -1 4 -2 2 -2 -2 0 -4 -1 -4 -2 0 0 -3 -3 -6 -4 -4 -3 -13 -4 -55 -4 -54
0 -56 -1 -85 -14 -12 -5 -20 -5 -36 2 -7 3 -18 7 -24 9 -6 2 -12 5 -12 6 -1 1
-2 2 -2 1 -1 -1 -3 1 -6 3 l-5 3 9 10 c5 5 19 24 31 41 31 44 34 47 46 46 5 0
10 -1 11 -2z m1019 -11 c9 -11 10 -15 5 -21 -5 -5 -8 -5 -22 -1 -12 3 -17 14
-11 23 3 4 5 5 13 5 8 0 10 -1 15 -6z m-743 -43 l-5 -5 -4 4 -5 5 4 4 5 5 4
-4 5 -5 -4 -4z m783 9 c15 -7 19 -18 11 -27 -6 -7 -16 -7 -22 1 -6 6 -12 18
-10 18 1 0 2 1 1 2 -1 2 8 8 12 8 2 0 5 -1 8 -2z m-447 -30 c5 -5 6 -7 6 -17
0 -10 -1 -12 -6 -17 -5 -5 -7 -6 -17 -6 -10 0 -12 1 -17 6 -5 5 -6 7 -6 17 0
10 1 12 6 17 5 5 7 6 17 6 10 0 12 -1 17 -6z m-754 -38 c10 -8 11 -11 6 -24
-7 -16 -12 -20 -27 -20 -11 0 -14 1 -18 5 -6 4 -6 6 -6 20 0 14 0 16 6 20 8 8
27 7 39 -1z m1313 -6 c3 -3 5 -6 5 -8 0 -2 2 -7 4 -12 2 -5 3 -9 3 -10 -2 -2
16 -19 25 -24 10 -6 13 -11 15 -25 2 -17 -6 -25 -26 -25 -17 -1 -25 7 -25 22
0 4 -1 12 -2 19 -2 11 -4 14 -15 27 -11 13 -13 16 -13 23 0 11 6 17 17 17 5 0
9 -1 12 -4z m-573 -58 l6 -6 0 -24 c0 -14 0 -26 0 -27 1 -5 0 -7 -6 -11 l-5
-4 -9 4 c-5 3 -9 7 -11 12 -2 4 -4 7 -5 8 -3 2 -9 19 -9 30 -1 11 -1 12 5 18
5 5 7 6 17 6 10 0 12 -1 17 -6z m-436 -37 c4 -3 4 -4 1 -12 -2 -4 -5 -9 -6
-11 -2 -1 -6 -8 -10 -16 -10 -20 -16 -23 -25 -16 -6 4 -10 16 -10 29 0 16 7
23 29 28 14 3 16 3 21 -2z m996 -50 c4 -4 4 -4 0 -8 l-5 -5 -4 4 c-5 4 -5 5
-2 8 4 5 7 5 11 1z m-1206 -14 c16 -7 20 -37 7 -48 -12 -11 -34 -11 -43 0 -9
10 -9 32 0 42 7 8 24 11 36 6z m1183 -251 c11 -10 3 -28 -11 -28 -9 0 -16 6
-16 16 0 14 17 22 27 12z m-1317 -28 c5 -5 5 -11 0 -16 -10 -10 -27 5 -16 16
4 4 12 4 16 0z m239 -27 c3 -3 3 -3 0 -6 -3 -3 -3 -3 -6 0 -3 2 -3 3 -1 6 4 4
4 4 7 0z m526 -141 c4 -4 5 -7 5 -17 0 -7 1 -15 2 -17 1 -1 4 -9 6 -17 l4 -15
-5 -4 -4 -4 -4 4 c-3 3 -6 9 -8 14 -1 6 -5 14 -9 18 -13 20 -15 29 -8 37 6 6
15 6 21 1z m608 -71 c5 -8 1 -16 -8 -16 -9 0 -13 8 -8 16 2 3 5 5 8 5 3 0 6
-2 8 -5z m124 -76 c4 -4 5 -7 5 -13 0 -11 -7 -18 -18 -18 -11 0 -18 7 -18 18
0 11 7 18 18 18 6 0 9 -1 13 -5z m-1131 -17 c1 0 5 -3 8 -6 6 -5 6 -7 6 -22 0
-23 -3 -35 -10 -40 -6 -5 -7 -5 -13 -1 -14 7 -26 29 -25 46 0 11 4 18 12 22 5
2 8 2 22 1z m-83 -110 c8 -3 13 -12 13 -23 0 -14 -4 -17 -37 -25 -30 -7 -32
-7 -37 -1 -9 8 -4 15 21 32 29 20 30 20 40 17z m-184 -19 c4 -4 5 -7 5 -15 0
-14 -6 -20 -20 -20 -6 0 -11 1 -12 3 -2 1 -4 2 -6 1 -6 -1 -9 3 -12 14 -3 13
0 19 9 18 4 -1 7 0 9 1 1 2 7 3 12 3 8 0 11 -1 15 -5z m211 -79 c5 -3 5 -8 -2
-11 -3 -1 -6 -2 -7 -2 0 1 -1 0 -1 -1 0 -1 -2 0 -5 3 -5 6 -5 8 1 13 2 3 4 3
7 1 2 -1 5 -2 7 -3z m1079 -21 c7 -4 10 -11 10 -23 0 -19 -8 -27 -28 -27 -14
0 -21 5 -25 16 -5 17 2 34 16 37 9 2 22 1 27 -3z m-1268 -36 c8 -5 10 -10 8
-27 -1 -17 -5 -30 -11 -29 -1 0 -3 0 -4 1 -1 1 -6 4 -12 7 -17 8 -20 13 -20
27 0 13 3 19 12 23 7 3 21 2 27 -2z m17 -69 c0 -1 1 -2 3 -2 1 0 3 -2 4 -3 0
-2 2 -6 3 -8 4 -5 -1 -14 -8 -15 -11 -1 -16 15 -9 25 3 5 7 7 7 3z m1281 -35
c6 -4 6 -6 6 -20 0 -14 0 -16 -6 -20 -4 -4 -7 -5 -18 -5 -11 0 -14 1 -18 5 -6
4 -6 6 -6 20 0 14 0 16 6 20 4 4 7 5 18 5 11 0 14 -1 18 -5z m-243 -17 c6 -6
13 -16 13 -20 1 -3 9 -10 11 -9 1 1 6 -1 12 -4 5 -3 11 -5 14 -5 11 0 19 -18
16 -35 -2 -14 -11 -19 -28 -17 -13 2 -18 7 -24 26 -3 9 -6 18 -6 20 0 4 -3 8
-6 9 -5 0 -18 9 -22 15 -11 16 6 32 20 20z m-414 -55 c17 -7 21 -37 7 -49 -12
-10 -34 -9 -43 1 -9 10 -9 32 0 42 7 8 24 11 36 6z m99 -28 c12 -7 14 -33 3
-43 -8 -9 -32 -9 -41 0 -5 5 -10 25 -6 27 2 0 3 3 3 6 0 12 27 19 41 10z
m-216 -99 c11 -10 3 -28 -11 -28 -9 0 -16 6 -16 16 0 14 17 22 27 12z"/>
</g>
</svg>
