<?xml version="1.0" standalone="no"?>
<!DOCTYPE svg PUBLIC "-//W3C//DTD SVG 20010904//EN"
 "http://www.w3.org/TR/2001/REC-SVG-20010904/DTD/svg10.dtd">
<svg version="1.0" xmlns="http://www.w3.org/2000/svg"
 width="1000.000000pt" height="2850.000000pt" viewBox="0 0 1000.000000 2850.000000"
 preserveAspectRatio="xMidYMid meet">
<metadata>
Created by potrace 1.15, written by Peter Selinger 2001-2017
</metadata>
<g transform="translate(0.000000,2850.000000) scale(0.500000,-0.500000)"
fill="#000000" stroke="none">
<path d="M332 3778 c-6 -4 -14 -8 -17 -10 -7 -4 -21 -19 -26 -28 -9 -19 -12
-21 -32 -23 -20 -2 -28 -4 -32 -10 -3 -5 -4 -23 -1 -29 2 -4 15 -13 30 -22 8
-4 9 -5 22 -16 11 -10 18 -13 33 -12 17 0 23 -4 23 -15 0 -12 -17 -20 -24 -12
-1 2 -4 3 -5 3 -2 0 -3 1 -3 2 0 3 -30 2 -36 -2 -10 -7 -13 -26 -6 -53 6 -24
3 -31 -13 -45 -13 -10 -17 -17 -17 -30 0 -10 1 -13 10 -27 6 -9 15 -22 19 -29
5 -8 9 -14 9 -15 0 -1 2 -4 5 -8 2 -3 6 -10 9 -14 2 -4 5 -10 7 -12 12 -20 36
-62 50 -88 12 -22 11 -21 26 -21 17 0 23 4 28 20 3 8 7 15 17 25 7 8 16 18 20
23 4 5 10 10 16 12 12 5 18 11 20 20 2 8 3 22 1 32 -3 17 18 22 32 7 8 -9 30
-26 38 -29 7 -3 11 -4 19 -3 10 2 12 3 31 22 19 18 32 37 28 40 0 1 1 3 3 5 4
4 5 4 12 -3 5 -3 11 -9 16 -12 9 -7 14 -15 14 -23 0 -9 -7 -24 -17 -34 -8 -10
-13 -20 -19 -38 -1 -4 -2 -21 -2 -38 0 -27 1 -33 4 -40 5 -12 9 -16 14 -16 l5
0 -5 -2 c-2 0 -4 -2 -5 -3 0 -1 -2 -4 -4 -7 -3 -2 -5 -5 -5 -7 0 -1 -2 -3 -5
-6 -3 -2 -7 -8 -9 -12 -4 -9 -4 -15 -4 -82 0 -56 1 -74 3 -81 3 -11 8 -20 11
-24 2 -2 5 -7 7 -11 4 -9 4 -9 0 -17 -2 -5 -5 -10 -7 -12 -3 -3 -9 -15 -12
-24 -1 -4 -2 -29 -3 -57 -1 -27 -1 -58 -2 -67 -1 -9 -1 -26 -2 -38 -1 -12 -1
-25 -2 -29 0 -4 -1 -15 -2 -23 -1 -8 -2 -23 -3 -32 -1 -9 -3 -21 -3 -26 -1 -5
-2 -17 -4 -27 -1 -10 -3 -22 -4 -26 -2 -14 -13 -67 -20 -96 -9 -34 -9 -43 1
-73 14 -45 15 -46 42 -60 19 -10 22 -13 22 -29 0 -10 -1 -12 -6 -17 -6 -6 -7
-6 -21 -6 -9 0 -16 5 -37 24 -8 8 -16 14 -18 14 -5 0 -24 23 -31 40 -8 17 -8
26 3 48 15 30 14 23 14 116 l-1 85 -5 11 c-3 6 -7 13 -9 14 -4 5 -9 15 -9 21
0 6 5 16 9 21 2 1 6 8 9 14 5 11 5 12 5 47 0 40 1 35 -15 66 -6 10 -6 18 0 28
16 30 15 27 16 63 0 33 0 33 -6 51 -9 24 -9 34 0 58 5 16 6 19 6 41 0 17 -1
26 -3 31 -4 9 -14 21 -18 21 -2 0 -3 1 -3 2 0 2 -9 3 -30 3 -20 0 -28 -1 -31
-4 -1 -1 -5 -3 -8 -5 -4 -2 -10 -9 -14 -15 -10 -16 -15 -20 -27 -20 -12 0 -17
4 -27 20 -4 6 -10 13 -14 15 -3 2 -7 4 -8 5 -4 4 -10 4 -76 5 -59 0 -69 0 -77
-3 -10 -4 -20 -12 -20 -16 0 -2 -1 -3 -2 -3 -1 0 -3 -3 -4 -6 -9 -21 -29 -21
-38 0 -1 3 -3 6 -4 6 -1 0 -2 1 -2 3 0 4 -8 10 -19 15 -8 4 -11 4 -19 3 -5 -1
-10 -2 -10 -1 -1 0 -2 -1 -2 -2 0 -1 -1 -2 -3 -2 -4 0 -14 -12 -18 -21 -2 -6
-3 -15 -3 -36 0 -31 3 -43 11 -51 6 -5 25 -12 34 -12 13 0 20 -13 11 -22 -2
-2 -7 -4 -10 -4 -18 0 -35 -9 -43 -23 -4 -9 -5 -81 0 -92 4 -9 14 -21 18 -21
2 0 3 -1 3 -2 0 -2 1 -2 32 -3 30 -2 39 0 46 8 7 8 16 30 14 33 -1 2 -2 6 -2
10 0 3 -1 7 -2 9 -1 1 -4 4 -7 7 -17 20 -19 24 -19 32 1 11 5 15 16 16 14 0
18 -5 18 -24 0 -15 2 -22 9 -29 4 -5 9 -16 10 -22 1 -8 10 -26 15 -32 5 -6 16
-10 24 -9 3 1 7 -1 11 -5 l6 -6 -1 -209 c0 -151 0 -211 2 -217 1 -4 6 -15 10
-24 5 -10 8 -20 8 -23 0 -6 -8 -40 -11 -48 -1 -2 0 -4 2 -5 2 0 3 -2 2 -3 0 0
5 -1 12 -2 6 0 13 -1 13 -1 1 -1 2 0 2 2 0 5 5 9 16 12 19 4 30 -2 30 -18 0
-9 -7 -25 -10 -25 -2 0 -5 -2 -9 -5 -3 -2 -9 -5 -12 -7 -3 -2 -11 -9 -18 -17
-7 -7 -14 -14 -17 -16 -6 -3 -19 -1 -37 6 -20 8 -27 7 -48 -6 -20 -13 -46 -29
-48 -31 -1 -1 -5 -4 -9 -7 -4 -3 -9 -12 -14 -23 -10 -20 -13 -23 -23 -25 -40
-7 -57 -22 -57 -50 0 -13 -4 -5 44 -88 10 -18 21 -37 25 -43 22 -40 52 -90 57
-95 5 -7 7 -7 18 -7 16 0 19 2 30 18 8 12 42 58 44 60 1 1 4 5 8 10 7 9 28 33
34 40 8 8 9 24 5 53 -1 6 -1 8 3 12 6 7 13 6 31 -2 18 -9 19 -9 43 -11 30 -3
40 -6 130 -51 33 -16 61 -29 62 -29 2 0 4 -1 5 -2 8 -7 92 -34 144 -45 35 -8
44 -8 57 -1 8 4 24 19 24 22 0 1 3 3 8 5 8 4 21 5 28 2 6 -2 14 -9 14 -11 0
-1 3 -7 7 -14 15 -25 26 -30 68 -30 16 -1 30 -1 30 -2 1 -1 4 -1 7 -1 3 0 6 0
6 -1 0 -4 356 -4 368 0 14 4 25 19 29 38 2 9 9 14 18 14 8 0 17 -6 17 -12 0
-4 11 -25 16 -29 11 -10 18 -11 52 -10 17 1 41 3 54 4 12 2 27 3 33 2 18 -2
90 -1 113 2 18 3 22 7 22 28 0 12 0 13 -4 13 -9 0 -14 24 -6 34 7 9 27 9 35 0
4 -6 4 -23 0 -30 -2 -2 -5 -4 -8 -4 -2 0 -3 -1 -2 -2 2 0 3 -6 3 -14 0 -6 1
-12 2 -12 1 0 2 -1 1 -2 -1 -1 1 -2 3 -3 2 -1 4 -2 4 -3 0 -4 110 0 120 5 3 1
6 2 6 2 5 1 8 8 8 22 1 13 1 15 -2 15 -6 0 -10 8 -10 19 0 12 6 19 18 19 5 0
13 1 17 3 4 2 10 3 11 3 3 0 5 3 6 9 1 4 3 9 4 10 1 1 1 3 0 4 0 1 0 1 1 1 1
-1 5 1 8 2 3 2 12 4 19 5 22 2 28 10 41 51 5 16 15 45 21 64 14 39 14 46 3 57
-10 11 -17 12 -56 6 -32 -5 -51 -6 -51 -2 0 0 -1 1 -3 1 -6 0 -4 4 4 8 11 5
36 30 46 45 12 19 26 56 30 77 3 17 -7 35 -23 43 -9 5 -33 11 -41 11 -3 0 -14
-2 -24 -4 -18 -3 -18 -3 -24 1 -4 2 -7 5 -7 6 0 2 -6 10 -15 19 -7 7 -30 18
-37 18 -3 -1 -6 0 -8 1 -1 1 -2 0 -2 -1 0 -1 -1 -1 -3 -1 -2 1 -3 0 -3 -1 0
-1 -1 -2 -2 -1 -1 1 -2 0 -2 -1 0 -1 -2 -4 -5 -7 -4 -3 -6 -6 -6 -7 1 -1 -5
-16 -9 -22 -1 -1 -4 -5 -7 -7 -5 -4 -8 -4 -66 -4 -55 0 -61 0 -66 4 -6 4 -8 9
-5 13 1 2 3 5 3 6 1 2 4 4 7 5 10 2 19 19 26 50 2 9 4 11 9 14 15 7 28 1 26
-12 -1 -3 0 -11 3 -17 6 -19 18 -21 54 -12 5 1 17 2 27 2 15 1 17 1 19 4 1 2
2 4 1 4 -1 0 3 4 8 10 5 5 11 14 14 20 12 23 20 25 44 12 29 -16 43 -9 43 20
0 9 4 4 -54 64 -8 8 -18 19 -22 24 -5 4 -9 8 -10 8 -3 0 2 5 8 8 4 2 22 5 40
6 1 1 2 1 2 2 0 1 1 2 3 2 4 0 14 12 18 21 5 11 5 317 0 328 -4 9 -14 21 -18
21 -2 0 -3 1 -3 2 0 2 -9 3 -37 3 -26 0 -27 0 -36 -6 -8 -5 -11 -9 -18 -22
-11 -20 -15 -24 -29 -24 -14 0 -18 4 -29 24 -7 13 -10 17 -18 22 l-10 6 -33 0
-34 0 -7 -6 c-12 -10 -15 -23 -11 -48 2 -17 5 -25 14 -40 10 -19 8 -37 -6 -37
l-5 0 5 -2 c3 -1 4 -2 3 -3 -2 0 -2 -8 -2 -19 0 -17 0 -19 5 -23 5 -4 5 -5 4
-15 -1 -6 -2 -14 -3 -18 -1 -8 4 -32 7 -39 2 -4 3 -11 2 -20 0 -6 -6 -13 -12
-14 -9 -2 -13 -2 -25 2 -10 3 -16 3 -32 2 -30 -2 -32 -1 -37 4 -6 6 -6 22 -1
26 2 2 3 3 2 3 0 0 0 4 2 9 4 13 3 25 -4 30 -3 2 -6 4 -8 5 -2 0 -26 0 -38 0
-6 0 -9 1 -13 5 -3 3 -6 6 -6 7 2 5 -13 27 -23 35 -21 18 -21 18 -21 30 0 17
7 23 26 21 8 -1 13 -5 20 -19 12 -24 23 -33 50 -42 27 -8 77 -7 84 2 2 2 3 8
2 17 0 13 0 14 4 15 5 0 5 0 0 1 -4 0 -15 8 -12 9 0 0 -3 7 -7 15 -5 11 -10
18 -19 26 -9 10 -12 13 -14 22 -1 5 -2 11 -1 12 4 6 -1 35 -5 33 -1 -1 -2 1
-2 4 0 6 -5 16 -11 20 -3 2 -4 5 -4 13 l0 9 -17 0 -18 0 -4 -8 c-4 -8 -5 -20
-3 -40 1 -12 1 -13 -5 -19 -5 -5 -7 -6 -16 -6 -6 0 -13 1 -16 3 -8 5 -14 21
-15 39 -2 18 -2 18 21 35 8 6 12 11 14 16 1 5 4 10 6 11 2 3 2 5 0 9 -1 4 -2
9 -2 12 -2 13 -24 28 -48 30 -9 1 -30 -8 -42 -17 -10 -7 -16 -10 -25 -9 -16 1
-23 6 -27 20 -6 22 8 40 31 38 12 -1 37 5 56 15 23 12 25 12 32 -1 3 -5 8 -12
12 -14 4 -3 8 -9 11 -14 2 -6 5 -11 6 -13 1 -2 1 -5 1 -8 -1 -2 -1 -4 1 -4 1
0 2 -1 1 -2 -1 -1 1 -3 3 -4 3 -1 7 -4 10 -7 3 -2 8 -6 11 -8 11 -5 19 -19 23
-41 2 -10 5 -13 10 -8 3 4 6 4 14 4 10 -1 11 0 15 6 3 4 7 11 10 16 7 13 11
16 27 16 14 0 17 -2 30 -24 6 -10 10 -15 17 -19 l10 -6 68 0 c95 1 124 1 156
0 28 0 28 0 38 6 7 5 11 9 17 19 4 7 7 14 8 16 0 1 2 10 5 19 5 16 5 21 5 59
0 33 -1 43 -3 49 -4 9 -14 21 -18 21 -2 0 -3 1 -3 2 0 0 -2 1 -5 2 -3 0 -7 1
-8 2 -1 1 -3 2 -4 2 -2 0 -7 2 -12 4 -4 2 -10 4 -12 5 -3 0 -3 1 1 1 5 0 9 4
14 16 4 8 4 14 4 144 0 128 0 136 -4 144 -4 10 -11 17 -17 19 -3 0 -3 1 1 1 3
0 7 2 8 4 1 1 2 2 2 2 0 -1 5 0 11 2 5 2 11 4 13 5 1 0 2 0 2 1 0 1 1 2 3 2 4
0 14 12 18 21 5 11 5 123 0 134 -4 9 -14 21 -18 21 -2 0 -3 1 -3 2 0 1 -1 2
-2 2 -6 1 -145 2 -151 1 -11 -2 -17 -10 -21 -25 -2 -8 -3 -14 -2 -15 4 -4 2
-17 -3 -22 -4 -4 -7 -5 -21 -5 -19 0 -30 -3 -44 -15 -10 -9 -11 -9 -23 -9 -10
0 -14 1 -18 5 -8 6 -9 23 -3 39 6 15 5 31 -3 38 -8 9 -18 10 -89 10 -83 0 -85
0 -84 -25 0 -9 -1 -13 -2 -13 -2 0 -1 -1 2 -2 6 -3 8 -11 8 -25 -2 -16 -7 -21
-25 -21 -18 0 -23 5 -25 21 0 14 2 22 8 25 3 1 4 2 2 2 -1 0 -2 4 -2 13 1 22
-4 25 -52 25 -35 0 -51 -2 -65 -9 -10 -6 -21 -17 -26 -28 -4 -10 -5 -12 -5
-63 0 -68 0 -68 31 -91 10 -6 12 -7 24 -7 8 0 13 1 13 2 0 1 1 2 2 1 1 -1 2 0
2 1 0 6 65 8 83 3 17 -5 27 -9 21 -9 -5 0 -8 -3 -16 -18 l-6 -11 4 -13 c4 -13
8 -22 10 -24 1 -1 4 -5 7 -9 8 -12 7 -29 -1 -37 -3 -3 -7 -6 -9 -6 -21 -1 -28
2 -33 16 -7 24 -14 33 -31 42 -16 9 -21 13 -22 23 -1 13 -3 20 -8 28 -4 8 -4
8 -17 9 -15 0 -20 -3 -26 -18 -4 -8 -4 -15 -4 -117 0 -99 0 -109 -3 -113 -6
-8 -8 -9 -21 -12 -7 -1 -14 -3 -16 -4 -2 -1 -5 0 -8 4 l-6 6 0 114 c0 107 0
114 -4 122 -4 10 -11 17 -17 19 -4 0 -4 1 1 1 2 0 7 3 11 7 3 4 9 10 13 14 13
12 14 18 14 64 0 43 -1 50 -10 58 -6 6 -27 15 -33 15 -13 0 -33 11 -53 30 -1
1 -4 2 -5 2 -2 0 -3 1 -3 2 0 6 -24 6 -275 5 -140 0 -255 -1 -256 -1 -2 0 -3
-1 -3 -2 0 -1 -1 -2 -3 -2 -1 0 -6 -4 -10 -8 -8 -9 -9 -20 -5 -29 2 -4 22 -25
38 -40 9 -9 25 -11 39 -5 5 2 14 4 19 4 22 0 28 -20 20 -59 -3 -14 6 -36 15
-38 6 0 6 0 0 -1 -4 0 -7 -1 -7 -2 0 -1 -7 -3 -15 -5 -15 -3 -19 -3 -42 3 -5
1 -11 0 -15 -4 -5 -5 -5 -7 0 -9 2 0 2 -1 -1 -1 -2 0 -7 -2 -9 -5 -10 -11 -12
-18 -12 -58 0 -21 -1 -40 -2 -42 -2 -4 -10 -8 -10 -5 0 2 -11 21 -23 38 -4 6
-7 10 -7 9 0 0 -2 1 -4 3 -5 4 -18 5 -52 6 -2 0 -6 2 -9 5 -7 7 -7 20 1 38 10
21 8 31 -7 53 -11 17 -23 32 -29 38 -5 5 -25 34 -29 42 -2 4 -5 8 -7 11 -2 2
-4 4 -4 5 0 1 -6 9 -13 20 -8 10 -15 19 -16 21 -16 23 -30 41 -35 45 -4 3 -10
4 -19 5 -11 1 -13 1 -23 -5z m1497 -109 c4 -1 9 -5 11 -8 l4 -5 -4 -5 c-8 -8
-32 -6 -40 3 -5 6 -5 7 0 13 2 4 4 5 13 5 6 -1 13 -2 16 -3z m-877 -12 c3 -2
9 -8 13 -12 11 -10 21 -13 40 -9 17 3 22 3 30 -1 7 -3 8 -6 11 -16 2 -7 -1
-11 -8 -14 -2 0 -2 -1 1 -1 3 0 3 -2 3 -15 l0 -15 9 -1 c7 0 6 0 -4 -1 -6 0
-13 -1 -15 -2 -1 -1 -7 -2 -13 -3 -5 0 -16 -2 -22 -3 -11 -2 -15 -2 -28 1 -8
2 -15 4 -15 5 0 1 -3 2 -6 2 l-7 0 6 2 c4 1 7 3 11 11 4 9 7 21 4 21 -1 0 -3
3 -4 6 -1 3 -3 6 -4 6 -1 0 -2 1 -2 2 0 2 -3 6 -7 9 -7 7 -13 16 -13 19 0 5 6
12 10 12 2 0 7 -2 10 -3z m629 -65 c4 -3 11 -8 15 -12 4 -3 9 -6 12 -6 4 0 4
-1 2 -2 -5 -2 -16 -15 -15 -17 1 0 0 -1 -2 -1 -2 0 -9 -4 -15 -9 -20 -15 -49
-31 -59 -32 -5 0 -15 6 -12 8 0 1 0 4 -2 7 -1 3 -5 10 -7 15 -4 8 -7 10 -11
11 l-6 2 7 0 c3 0 6 1 6 2 0 1 1 2 2 2 2 -1 29 15 38 23 15 13 18 15 29 15 8
0 12 -1 18 -6z m-683 -12 c6 -3 12 -6 13 -6 2 0 5 -6 6 -12 0 -2 1 -4 2 -5 0
-2 -1 -3 -4 -4 -3 -1 -11 -5 -17 -9 -11 -8 -12 -8 -26 -8 -8 0 -16 0 -18 -1
-10 -3 -12 -4 -13 -8 -3 -10 2 -25 12 -38 10 -13 10 -34 1 -44 -9 -11 -23 -11
-43 -2 -8 4 -17 8 -21 10 -9 3 -11 7 -13 18 0 4 -2 15 -4 24 -1 9 -3 21 -4 27
-2 17 -8 28 -17 31 -5 2 -6 3 -3 3 3 0 5 2 6 4 1 4 18 13 28 15 10 2 32 1 37
-2 3 -2 28 5 36 9 11 6 28 5 42 -2z m250 -17 c6 -2 11 -4 12 -5 0 -1 3 -2 6
-3 l5 0 -5 -1 c-3 0 -10 -4 -18 -11 -10 -9 -14 -11 -19 -11 -4 0 -7 1 -7 2 0
1 -1 2 -2 2 -1 0 -7 4 -12 9 -6 5 -13 9 -16 9 l-5 1 5 0 c3 1 6 2 6 3 2 3 20
8 30 8 5 0 14 -1 20 -3z m571 -1 c4 -2 7 -4 7 -4 0 -1 3 -2 7 -2 5 -1 5 -1 1
-1 -4 -1 -7 -4 -10 -9 -5 -9 -10 -24 -10 -29 0 -2 -2 -6 -5 -9 -10 -9 -33 -3
-33 9 0 5 -5 20 -10 29 -3 5 -6 8 -10 9 -4 0 -4 0 2 1 3 0 6 1 6 2 0 1 8 4 19
7 6 1 29 -1 36 -3z m-609 -77 c5 -7 5 -16 1 -26 -3 -8 -8 -11 -20 -11 -13 0
-19 6 -19 19 0 17 8 25 24 25 8 0 10 -1 14 -7z m681 -12 c4 -4 5 -7 5 -15 0
-14 -6 -20 -20 -20 -14 0 -20 6 -20 20 0 14 6 20 20 20 8 0 11 -1 15 -5z
m-1423 -5 c6 -4 16 -11 21 -14 18 -11 24 -23 15 -32 -6 -6 -15 -5 -28 4 -6 4
-16 11 -21 14 -18 11 -24 23 -15 32 6 6 15 5 28 -4z m394 -10 c0 -1 1 -2 2 -2
5 0 10 -7 10 -12 0 -7 -7 -28 -12 -33 -4 -5 -11 -8 -21 -8 -21 -1 -34 16 -29
38 4 14 13 20 31 21 6 0 10 1 11 1 1 1 8 -4 8 -5z m86 -64 c6 0 32 -10 27 -10
-4 0 -2 -24 1 -29 3 -5 2 -5 -2 -10 -5 -5 -6 -5 -9 -3 -4 4 -16 8 -21 8 -3 0
-4 -2 -4 -8 0 -5 1 -11 3 -13 3 -4 9 -27 7 -29 -1 0 0 -1 1 -2 1 0 4 -5 7 -9
3 -4 7 -10 10 -13 3 -3 8 -10 11 -16 6 -11 16 -22 21 -24 2 0 8 -1 15 -2 14
-1 17 2 17 20 0 15 -1 17 -14 26 -8 5 -10 7 -12 16 -3 15 -3 19 3 25 4 5 6 6
19 7 23 1 27 -4 29 -33 0 -8 2 -16 3 -17 1 0 1 -2 1 -3 0 -2 8 -6 14 -7 7 -1
23 2 24 5 2 4 17 -13 17 -17 0 -5 13 -20 17 -20 2 0 3 -1 3 -2 0 -1 10 -2 25
-2 l24 -1 -20 0 c-13 -1 -21 -2 -23 -4 -2 -2 -7 -4 -12 -5 -9 -2 -102 -3 -102
0 0 0 -9 1 -19 0 -11 0 -33 -1 -49 -1 -26 0 -30 0 -38 4 -5 3 -11 5 -13 6 -3
0 -3 1 1 1 11 0 17 15 18 49 2 30 3 37 7 46 3 6 4 35 1 41 -1 2 -2 6 -2 10 -1
3 -2 6 -2 6 -1 0 0 3 2 7 3 4 5 6 6 5 0 -1 4 -2 8 -2z m168 -4 c7 -3 13 -6 14
-6 2 -2 16 -8 23 -9 9 -2 17 -11 16 -20 0 -7 -6 -17 -10 -18 -1 0 -7 -2 -13
-4 -11 -3 -12 -3 -21 0 -11 4 -19 12 -35 33 -7 10 -14 18 -16 18 -2 0 -2 1 1
1 1 1 3 2 3 3 0 3 13 8 19 7 3 0 12 -3 19 -5z m489 2 c5 0 9 -2 9 -5 0 -1 2
-3 5 -4 3 0 3 0 -1 -1 -7 0 -16 -4 -16 -6 0 -1 -2 -1 -3 -1 -5 1 -11 -3 -12
-7 0 -3 -2 -8 -5 -15 -4 -9 -7 -20 -6 -23 1 -8 -3 -11 -13 -11 -6 0 -11 1 -11
2 -1 1 -2 1 -2 -1 0 -2 -2 -5 -5 -7 -5 -3 -5 -3 -11 1 -5 3 -7 8 -10 19 -2 8
-5 16 -6 19 -2 9 0 19 6 25 5 5 9 6 26 5 3 0 11 1 18 2 7 1 15 3 17 3 9 2 15
5 15 7 0 2 0 2 2 1 0 -2 2 -3 3 -3z m168 -10 c0 -1 -1 -6 -1 -11 -1 -10 -4
-19 -9 -25 -2 -2 -3 -2 -3 0 0 2 -2 5 -5 8 -2 3 -6 9 -9 12 -3 4 -7 9 -10 12
-3 4 -4 6 -3 7 7 6 10 8 19 9 8 1 9 0 15 -5 3 -3 6 -6 6 -7z m72 -49 c3 -5 3
-5 0 -10 -2 -3 -5 -5 -7 -5 -2 0 -5 2 -7 5 -3 5 -3 5 0 10 2 3 5 5 7 5 2 0 5
-2 7 -5z m-563 -18 c3 -3 4 -7 4 -22 0 -35 -4 -43 -22 -43 -21 0 -26 17 -14
40 8 14 20 28 25 28 2 0 5 -1 7 -3z m337 -32 c9 -13 18 -27 20 -30 6 -12 16
-21 23 -21 5 0 6 -1 2 -1 -5 -1 -15 -5 -22 -9 -2 -1 -7 -4 -12 -6 -7 -3 -24
-19 -24 -22 0 -1 -3 -3 -7 -5 -5 -3 -7 -4 -11 -3 -9 4 -42 5 -46 2 -5 -5 -14
-9 -17 -7 -1 0 -4 3 -5 7 -2 3 -4 6 -4 6 -1 0 -2 1 -2 3 0 3 -12 13 -16 13 -3
0 13 11 18 12 2 0 13 1 25 2 25 2 30 3 37 11 9 9 11 16 12 40 1 19 2 23 6 30
3 4 5 6 6 4 0 -1 8 -13 17 -26z m157 -36 c5 -11 9 -15 14 -15 4 0 4 -1 1 -1
-2 -1 -8 -3 -13 -6 -8 -3 -13 -4 -42 -4 -33 -1 -37 0 -44 7 -3 3 -3 4 -1 4 3
0 65 31 68 34 2 2 12 -9 17 -19z m-955 11 c2 -2 6 -6 8 -9 2 -3 10 -12 18 -20
8 -8 14 -15 13 -16 0 0 2 -1 4 -1 4 0 4 -1 -1 -2 -7 -2 -18 -14 -25 -27 -4 -8
-15 -13 -27 -13 -12 0 -17 3 -23 14 -10 17 -14 23 -18 25 -3 2 -4 3 -3 3 3 0
2 17 -1 18 -2 1 -2 2 1 2 3 0 8 4 13 11 12 15 16 19 22 19 7 1 14 0 19 -4z
m351 -39 c-8 -1 -20 -1 -27 0 -8 0 -2 0 13 0 15 0 21 0 14 0z m-241 -75 c8 -8
8 -21 -1 -36 -8 -14 -10 -18 -11 -29 -2 -14 -2 -17 4 -29 3 -7 4 -13 4 -17
l-1 -7 11 0 c6 0 12 0 13 -1 2 -1 83 -2 86 0 2 0 13 -12 13 -15 0 -1 -3 -5 -6
-9 l-6 -6 -46 1 c-41 1 -47 1 -52 5 -8 4 -14 15 -11 17 3 2 -3 4 -11 4 -3 0
-9 1 -13 2 -4 1 -11 3 -16 3 -18 2 -25 11 -25 29 1 11 4 18 13 28 6 5 14 20
11 20 0 0 0 4 2 8 2 4 3 12 3 17 0 8 1 10 5 15 9 9 24 9 34 0z m274 -78 c11
-12 10 -36 -2 -36 -4 0 -17 8 -21 13 -5 6 -5 17 0 22 6 7 18 7 23 1z m176 -28
c6 -6 6 -15 2 -25 -6 -12 -16 -15 -52 -17 -30 -1 -30 -1 -34 4 -2 2 -5 5 -8 6
-3 1 -3 2 0 2 3 0 5 4 1 4 -1 0 1 3 5 7 6 5 7 6 19 6 10 0 16 1 26 6 21 10 23
11 30 11 4 0 8 -2 11 -4z m-144 -21 c11 -8 11 -11 11 -38 0 -21 -1 -24 -4 -28
-3 -3 -4 -3 -9 -1 -6 3 -7 7 -13 34 -6 25 -6 30 0 34 6 5 5 5 15 -1z m-144
-122 c5 -8 1 -16 -8 -16 -9 0 -13 8 -8 16 2 3 5 5 8 5 3 0 6 -2 8 -5z m-572
-55 c10 -10 2 -35 -13 -41 -23 -9 -36 4 -27 27 6 15 30 23 40 14z m528 -26 c2
0 3 -1 2 -2 -2 -3 5 -16 14 -26 12 -13 14 -14 38 -20 35 -9 37 -19 5 -31 -7
-3 -16 -7 -20 -8 -8 -3 -34 -27 -34 -31 0 -1 -3 -3 -7 -6 -18 -11 -33 3 -24
22 15 35 15 39 5 54 -9 14 -21 20 -40 20 -12 0 -14 1 -19 6 -8 7 -7 19 1 27 5
5 6 5 36 5 l31 1 5 -5 c2 -4 6 -6 7 -6z m310 5 c8 -9 8 -19 0 -28 l-6 -6 -26
0 -26 0 -6 6 c-8 9 -8 19 0 28 l6 6 26 0 26 0 6 -6z m-129 -57 c5 -5 5 -9 -2
-22 -3 -6 -10 -19 -15 -29 -10 -22 -14 -25 -29 -25 -13 0 -21 7 -23 21 -2 12
0 18 6 21 4 2 7 4 8 5 2 1 8 6 14 10 6 4 12 10 14 12 2 3 4 5 6 5 2 0 3 1 3 2
0 5 13 4 18 0z m-448 -17 l-5 -5 -4 4 -5 5 4 4 5 5 4 -4 5 -5 -4 -4z m735 -49
c5 -5 6 -7 6 -16 0 -7 -2 -11 -4 -14 -10 -11 -26 -12 -36 -2 -8 8 -8 24 0 32
9 9 24 9 34 0z m-156 -13 c3 -3 3 -3 0 -6 -3 -3 -3 -3 -6 0 -3 2 -3 3 -1 6 4
4 4 4 7 0z m-67 -14 l-5 -5 -4 4 -5 5 4 4 5 5 4 -4 5 -5 -4 -4z m472 8 c6 -3
9 -10 11 -20 1 -6 5 -19 7 -22 1 -1 1 -3 1 -4 0 -2 -1 -4 -1 -6 0 -4 -7 -11
-13 -14 -7 -4 -51 -21 -60 -23 -5 -2 -7 -3 -7 -7 0 -4 -1 -4 -1 0 -1 2 -3 5
-4 6 -4 3 -10 17 -7 17 3 0 6 10 8 25 1 8 3 14 4 14 3 -2 17 10 18 15 0 2 1 7
3 11 6 12 26 16 41 8z m-90 -13 c3 -4 3 -6 -1 -11 -3 -4 -3 -4 -8 1 -5 4 -5 5
-2 8 4 5 7 5 11 2z m-802 -9 c3 0 6 -1 8 -1 4 0 14 -11 14 -16 0 -2 3 -11 6
-19 l6 -14 13 -1 c12 0 14 1 28 11 11 7 16 8 21 2 5 -5 5 -5 1 -35 0 -5 -1
-21 -2 -36 -2 -41 -7 -56 -24 -65 -7 -4 -9 -5 -12 -2 -3 2 -4 5 -4 17 0 18 -6
31 -16 40 -15 12 -17 14 -18 20 -7 32 -18 44 -56 60 -11 5 -22 11 -25 14 -8 6
-8 17 -1 24 4 4 4 4 30 3 14 -1 28 -2 31 -2z m693 -41 c5 -5 6 -7 6 -16 0 -9
-1 -11 -7 -16 -5 -6 -7 -7 -16 -7 -9 0 -11 1 -16 7 -6 5 -7 7 -7 16 0 7 2 11
4 14 10 11 26 12 36 2z m-130 -5 c6 -6 6 -6 5 -21 0 -17 2 -25 13 -47 12 -23
12 -31 0 -54 -14 -28 -16 -36 -10 -57 3 -11 16 -25 19 -23 1 1 2 1 2 0 0 -1 4
-2 8 -2 13 1 16 6 17 28 0 21 4 29 13 33 14 6 35 1 39 -7 5 -13 5 -18 -2 -47
-9 -35 -11 -40 -22 -46 -9 -6 -39 -35 -46 -45 -8 -12 -9 -15 -10 -26 -1 -10 4
-22 18 -40 3 -4 6 -8 6 -8 0 -1 5 -1 11 -2 6 -1 12 -2 14 -2 1 0 2 0 2 1 0 1
1 2 2 2 5 -1 8 0 7 3 0 2 0 3 1 3 1 0 2 1 2 2 0 1 1 4 2 6 1 3 2 6 2 7 0 1 2
4 4 6 4 5 6 5 40 5 33 0 35 0 39 -4 7 -6 7 -20 0 -26 -4 -4 -6 -4 -26 -4 -32
1 -31 1 -31 -20 0 -16 0 -18 4 -19 2 -1 4 -2 4 -3 0 -1 1 -1 3 -1 1 0 7 -1 13
-3 27 -5 53 -7 105 -8 29 0 51 -1 58 -3 6 -1 11 -2 12 -1 1 0 1 0 1 -2 0 -1 3
-3 7 -4 l6 -2 -6 0 c-8 0 -17 -11 -23 -26 -2 -7 -4 -15 -4 -17 0 -2 -3 -6 -6
-9 -5 -5 -7 -6 -16 -6 -15 0 -18 3 -28 23 -10 20 -15 25 -28 27 -11 1 -16 -2
-21 -13 -5 -8 -9 -23 -9 -31 0 -8 -8 -16 -15 -16 -18 -1 -29 3 -32 11 -12 31
-15 36 -24 41 -13 6 -34 -1 -52 -17 -6 -6 -13 -12 -17 -13 -8 -5 -21 -5 -24
-1 -5 5 -34 3 -40 -3 -3 -2 -5 -5 -5 -6 0 -4 -10 -14 -17 -17 -4 -2 -12 -3
-19 -3 -14 -1 -21 4 -25 17 -2 5 -4 9 -4 10 -1 1 -2 3 -2 5 0 6 -10 18 -18 22
-9 4 -14 4 -131 5 -67 1 -126 2 -131 2 -5 0 -22 1 -38 2 -16 1 -33 2 -37 2 -7
1 -15 1 -49 4 -3 0 -17 2 -32 4 -27 3 -28 3 -48 -1 -25 -5 -33 -6 -41 -1 -18
11 -21 14 -25 20 -2 4 -3 7 -2 6 1 -1 3 0 3 2 1 2 3 3 4 3 6 0 19 8 24 15 3 5
8 10 10 12 3 4 10 18 23 46 5 9 5 13 5 40 0 17 0 31 1 32 0 2 6 9 13 16 12 12
23 29 23 36 0 1 2 5 5 8 5 6 5 6 9 2 8 -9 37 -132 43 -184 3 -20 15 -35 32
-38 4 -1 9 -2 9 -2 1 -1 4 0 7 1 3 1 8 2 11 3 12 2 33 5 39 6 3 0 10 1 14 2 4
0 13 1 18 2 6 1 19 4 30 8 22 7 31 8 57 2 3 -1 29 1 57 3 45 4 56 5 71 10 2 0
22 1 46 1 24 0 46 1 49 2 13 4 23 11 28 22 5 10 5 12 5 49 0 44 -2 55 -13 65
-8 7 -24 13 -31 12 -3 0 -21 -1 -40 -2 -19 -1 -37 -2 -41 -2 -3 0 -25 -1 -47
-2 -40 -1 -42 -1 -51 3 -13 5 -17 13 -17 29 0 10 1 12 6 17 3 3 7 6 9 6 11 1
22 -1 37 -4 16 -4 22 -4 85 -3 71 1 73 1 73 3 0 1 1 2 3 2 4 0 14 12 18 21 4
11 4 20 -4 42 -9 24 -9 34 -1 54 3 10 5 19 5 23 -1 7 -6 20 -9 20 0 0 -7 0
-14 1 -13 0 -13 0 -20 -8 -10 -12 -18 -16 -28 -14 -25 4 -44 0 -47 -9 -2 -7
-11 -14 -18 -14 -7 0 -15 7 -15 14 0 10 -9 28 -16 35 -7 5 -10 6 -19 6 -10 0
-12 1 -17 6 l-6 5 6 6 5 5 101 0 101 0 6 -6z m-892 -68 c3 -5 3 -5 0 -10 -2
-3 -5 -5 -7 -5 -2 0 -5 2 -7 5 -3 5 -3 5 0 10 2 3 5 5 7 5 2 0 5 -2 7 -5z
m-120 -2 c4 -4 5 -7 5 -13 0 -11 -7 -18 -18 -18 -11 0 -18 7 -18 18 0 11 7 18
18 18 6 0 9 -1 13 -5z m1304 0 c7 -7 7 -23 0 -29 -8 -6 -24 -3 -29 6 -3 6 -2
17 2 23 6 7 20 7 27 0z m-908 -170 c3 -3 3 -3 0 -6 -3 -3 -3 -3 -6 0 -3 2 -3
3 -1 6 4 4 4 4 7 0z m940 -39 c11 -10 3 -28 -11 -28 -9 0 -16 6 -16 16 0 14
17 22 27 12z m-1243 -16 c2 -2 4 -6 4 -9 0 -10 -14 -37 -26 -49 -9 -11 -26 -6
-26 8 0 9 14 36 26 49 6 6 16 7 22 1z m821 -11 c9 -9 6 -25 -6 -30 -6 -3 -8
-3 -14 0 -19 8 -13 35 7 35 6 0 9 -1 13 -5z m-258 -3 c7 -3 12 -13 12 -25 0
-19 -9 -28 -28 -28 -19 0 -28 9 -28 28 0 17 6 24 22 28 5 1 14 -1 22 -3z
m-403 -21 c16 -8 33 -18 38 -22 5 -5 19 -15 31 -24 13 -8 25 -18 27 -21 l4 -5
-5 -1 c-3 -1 -10 0 -16 1 -21 5 -36 -1 -49 -18 -10 -13 -13 -15 -23 -15 -9 0
-17 7 -17 16 -1 28 -10 53 -22 57 -4 1 -14 23 -14 30 0 4 2 10 5 14 5 8 6 8 9
5 2 -2 16 -10 32 -17z m-272 -78 c3 -3 4 -7 4 -14 0 -13 -6 -19 -19 -19 -13 0
-19 6 -19 19 0 8 1 11 5 14 8 7 23 7 29 0z m85 -67 c11 -10 3 -28 -11 -28 -9
0 -16 6 -16 16 0 14 17 22 27 12z m265 -6 c5 -5 5 -15 0 -20 -9 -9 -24 -2 -24
10 0 8 6 14 14 14 3 0 8 -2 10 -4z m189 -4 c2 -3 3 -8 3 -15 0 -9 -1 -12 -9
-23 -4 -7 -11 -20 -14 -28 -8 -23 -8 -24 -14 -27 -6 -4 -22 -5 -30 0 -7 3 -25
23 -31 34 -6 10 -5 24 1 30 3 3 7 5 9 5 8 0 32 11 42 19 6 5 13 10 16 10 3 1
6 2 7 2 5 1 16 -3 20 -7z m1041 -65 c8 -4 8 -14 -1 -17 -3 -1 -6 -2 -6 -2 -1
0 -3 3 -5 8 -3 7 -4 8 0 11 4 4 5 4 12 0z m-1191 -18 c3 -3 3 -3 0 -6 -3 -3
-3 -3 -6 0 -3 2 -3 3 -1 6 4 4 4 4 7 0z m274 -50 c13 -8 14 -35 2 -45 -5 -4
-7 -4 -21 -4 -11 1 -15 2 -18 5 -9 9 -9 33 0 42 7 7 27 8 37 2z"/>
<path d="M140 3648 c-13 -6 -16 -21 -7 -34 13 -23 30 -49 34 -54 5 -6 6 -6 20
-6 12 0 15 1 18 4 6 7 5 29 -2 47 -10 27 -14 31 -33 41 -14 7 -20 7 -30 2z"/>
<path d="M635 3605 c4 -1 10 -1 14 0 5 0 2 0 -6 0 -8 0 -11 0 -8 0z"/>
<path d="M1883 1972 c-3 -3 -8 -7 -11 -9 -2 -3 -6 -5 -8 -5 -2 0 -2 0 0 -2 1
-1 2 -5 2 -10 -1 -16 0 -17 7 -20 14 -7 32 -3 44 10 5 5 6 7 5 17 0 13 -4 20
-9 22 -10 2 -24 1 -30 -3z"/>
</g>
</svg>
