<?xml version="1.0" standalone="no"?>
<!DOCTYPE svg PUBLIC "-//W3C//DTD SVG 20010904//EN"
 "http://www.w3.org/TR/2001/REC-SVG-20010904/DTD/svg10.dtd">
<svg version="1.0" xmlns="http://www.w3.org/2000/svg"
 width="1000.000000pt" height="2850.000000pt" viewBox="0 0 1000.000000 2850.000000"
 preserveAspectRatio="xMidYMid meet">
<metadata>
Created by potrace 1.15, written by Peter Selinger 2001-2017
</metadata>
<g transform="translate(0.000000,2850.000000) scale(0.500000,-0.500000)"
fill="#000000" stroke="none">
<path d="M391 3815 c-9 -5 -13 -10 -23 -28 -9 -17 -38 -67 -42 -72 -13 -21
-24 -39 -24 -43 0 -2 -3 -8 -6 -15 -8 -15 -9 -30 -4 -44 5 -16 22 -34 41 -44
14 -7 19 -13 19 -23 0 -17 -15 -23 -33 -14 -5 3 -12 5 -22 5 -14 1 -15 0 -25
-6 -13 -10 -26 -10 -42 -2 -13 6 -31 7 -40 2 -3 -1 -11 -9 -18 -17 -7 -8 -17
-19 -23 -25 -6 -6 -12 -13 -13 -16 -3 -8 -2 -28 1 -36 2 -4 3 -9 3 -12 0 -5
-11 -17 -15 -17 -4 0 -20 8 -21 10 -2 2 -24 4 -23 2 1 -1 -1 -2 -2 -3 -2 0 -6
-5 -9 -10 -4 -9 -17 -19 -22 -19 -2 0 -5 -1 -6 -3 -1 -2 -4 -3 -6 -3 -4 0 -12
-12 -13 -21 -1 -4 -2 -9 -2 -11 -1 -1 2 -11 6 -22 10 -28 14 -38 22 -63 10
-34 13 -38 23 -44 7 -3 13 -4 30 -4 19 0 21 0 24 -5 4 -5 5 -16 2 -22 -1 -2
-8 -7 -15 -10 -25 -13 -32 -27 -25 -51 2 -8 5 -16 5 -19 4 -20 10 -34 17 -39
3 -2 9 -3 18 -3 14 0 12 -1 45 29 13 13 16 14 27 13 2 0 9 -4 15 -10 7 -5 13
-10 14 -10 3 0 11 -8 24 -22 5 -6 12 -13 16 -15 4 -2 7 -4 7 -5 0 -4 30 -4 32
0 1 2 2 2 2 1 0 -2 2 -3 4 -4 6 -2 11 -12 8 -17 -1 -3 -2 -13 -2 -28 l1 -23
-6 -6 -6 -6 -92 0 c-91 0 -103 0 -103 -3 0 -1 -1 -2 -3 -2 -4 0 -14 -12 -18
-21 -3 -7 -3 -14 -3 -37 1 -28 1 -30 8 -43 6 -13 15 -25 19 -25 1 0 4 -1 8 -3
11 -5 18 -6 24 -6 4 1 7 -1 9 -4 5 -5 5 -5 0 -11 -4 -4 -4 -4 -17 -1 -11 3
-16 3 -28 0 -11 -2 -14 -7 -20 -27 -4 -13 -4 -51 0 -61 4 -9 14 -21 18 -21 2
0 3 -1 3 -2 0 -3 12 -3 103 -3 l92 0 6 -6 c4 -4 6 -7 5 -7 -2 0 7 -25 12 -31
5 -7 10 -20 10 -25 0 -4 -1 -7 -10 -22 -8 -13 -12 -27 -12 -41 0 -16 -3 -24
-7 -21 -2 2 -3 1 -4 -4 0 -5 0 -4 -1 3 0 6 -1 13 -2 16 -1 3 -3 9 -3 13 -1 4
-2 10 -3 13 -1 4 -2 8 -3 10 -9 47 -18 59 -41 65 -8 2 -12 1 -37 -5 -24 -6
-52 -15 -59 -19 -4 -2 -11 -5 -15 -5 -24 -3 -37 -12 -44 -28 -4 -12 -4 -18 10
-83 6 -30 11 -58 12 -61 2 -12 10 -24 16 -22 2 0 3 0 3 -1 0 0 4 -3 10 -5 9
-5 15 -10 24 -21 4 -4 4 -7 4 -16 0 -10 0 -12 -6 -17 -23 -21 -27 -27 -30 -36
-1 -5 -3 -11 -3 -12 3 -45 10 -58 34 -62 5 -1 9 -2 10 -2 0 -1 1 0 1 1 0 1 1
2 3 2 6 0 104 34 111 37 3 2 8 7 13 10 16 14 30 17 37 9 8 -10 4 -20 -12 -35
-8 -8 -9 -9 -9 -21 -1 -7 0 -14 2 -15 1 -2 3 -5 5 -7 11 -12 12 -20 5 -42 -5
-17 -2 -30 9 -40 11 -10 14 -16 16 -24 2 -10 0 -23 -6 -28 -9 -10 -33 -9 -41
1 -9 10 -13 49 -8 71 3 10 4 38 2 43 -11 22 -12 23 -21 28 -10 5 -22 4 -56 -2
-9 -2 -16 -3 -38 -6 -21 -3 -41 -6 -50 -8 -3 0 -9 -1 -15 -2 -5 -1 -11 -2 -12
-2 -4 -2 -7 -14 -7 -27 0 -10 0 -11 8 -18 8 -7 9 -8 9 -18 0 -12 -3 -16 -19
-24 -18 -9 -23 -14 -27 -27 -3 -11 -3 -13 0 -28 4 -21 5 -23 8 -43 5 -25 10
-36 29 -54 8 -8 18 -19 22 -24 10 -16 29 -22 51 -17 25 6 30 11 32 32 1 10 1
14 -2 17 -2 3 -3 9 -3 17 0 10 1 12 6 17 6 6 7 6 18 6 11 0 12 0 18 -6 5 -4 6
-8 6 -13 0 -11 5 -28 11 -34 2 -4 8 -7 14 -9 8 -2 11 -2 46 6 21 5 46 10 55
12 25 6 27 8 28 29 l0 17 -6 3 c-3 2 -7 5 -8 7 -5 10 -4 29 4 36 8 9 32 9 40
0 8 -7 9 -24 3 -40 -2 -4 -1 -12 1 -15 2 -2 2 -3 2 -7 0 -7 25 -10 40 -6 4 1
10 3 13 3 3 1 13 3 22 5 9 2 19 4 23 5 6 1 36 8 82 19 9 3 19 5 21 5 5 1 16 4
44 10 61 15 67 18 76 36 5 10 6 13 5 27 0 8 0 18 -1 22 0 4 -1 17 -2 30 -1 13
-2 27 -2 31 0 4 -1 20 -2 34 -2 43 -4 58 -9 68 -6 11 -19 17 -36 18 -7 0 -16
1 -20 2 -4 0 -12 1 -18 2 -10 1 -16 3 -10 3 1 0 2 1 1 2 -1 1 0 2 1 2 3 0 -7
12 -12 13 -5 1 -10 17 -10 29 0 9 1 11 6 16 6 6 8 7 20 6 47 -3 48 -1 68 70 8
28 17 62 21 74 4 13 7 27 7 30 1 6 1 6 1 2 1 -4 2 -5 4 -5 6 2 7 -8 7 -63 0
-46 1 -57 4 -71 5 -20 5 -30 0 -51 -4 -16 -4 -23 -4 -225 0 -186 0 -209 3
-216 4 -9 14 -21 18 -21 2 0 3 -1 3 -2 0 -3 11 -3 80 -3 111 1 121 1 140 0 9
0 26 1 37 1 11 0 38 0 60 -1 36 -1 42 -1 50 2 9 3 26 19 28 25 1 2 3 4 5 5 2
1 4 2 4 3 0 1 3 2 6 2 3 0 6 -1 6 -2 0 -1 2 -2 4 -3 2 -1 4 -3 5 -5 2 -6 19
-22 28 -25 7 -3 13 -3 24 -3 25 2 34 10 42 36 3 12 7 16 14 16 7 0 11 -4 14
-16 8 -26 17 -34 41 -36 28 -1 40 4 43 21 2 13 3 15 4 17 0 0 0 2 -2 3 -2 2
-3 7 -3 14 0 10 1 12 6 17 5 5 7 6 17 6 10 0 12 -1 17 -6 5 -5 6 -7 6 -17 0
-7 -1 -12 -3 -14 -2 -1 -2 -3 -2 -3 1 -2 2 -4 4 -17 1 -9 7 -15 15 -19 4 -1
71 -2 192 -2 l186 0 15 6 c21 9 31 21 39 45 2 7 2 10 0 18 -3 10 -9 22 -14 27
-6 7 -12 18 -12 25 0 7 6 19 12 25 4 4 11 17 14 26 3 11 3 80 -1 89 -4 9 -14
21 -18 21 -2 0 -3 1 -3 2 0 3 -13 3 -121 3 -135 0 -153 0 -213 0 -47 0 -47 0
-57 -5 -5 -3 -15 -7 -20 -9 -10 -3 -11 -3 -21 1 -6 2 -15 6 -20 8 -9 5 -11 5
-51 5 -23 0 -57 0 -75 -1 -32 -1 -33 -1 -43 -7 -27 -16 -34 -17 -51 -7 -29 16
-22 15 -93 15 l-64 0 -6 6 -6 6 1 206 c0 189 0 208 -3 229 -4 21 -4 23 0 45 4
25 2 35 -9 53 -9 15 -10 18 -10 23 0 5 1 8 10 23 11 18 12 23 12 99 0 88 -1
93 -24 107 -17 11 -20 14 -20 22 0 5 2 9 6 14 4 3 7 6 8 6 3 0 14 8 19 13 2 2
5 8 7 13 4 8 4 16 4 180 l0 172 6 7 5 6 70 -1 c81 0 85 0 100 15 4 4 11 12 14
17 8 11 11 13 25 13 14 0 17 -2 25 -13 10 -15 22 -26 31 -28 5 -2 10 -3 11 -4
1 -1 5 -2 9 -3 4 -1 9 -2 10 -4 2 -2 9 -3 41 -3 21 0 36 1 34 2 -16 6 68 10
86 4 5 -2 7 -3 5 -4 -2 -1 1 -2 7 -2 6 0 11 1 13 3 5 5 17 6 51 7 37 0 47 3
59 17 4 5 9 10 12 11 6 4 6 4 12 0 3 -1 8 -6 12 -11 4 -4 11 -9 17 -12 10 -5
12 -5 44 -5 39 0 53 3 69 16 17 13 22 24 23 50 1 15 2 18 6 22 3 3 7 6 8 6 7
0 29 11 33 17 7 9 8 25 2 30 -6 5 -32 11 -33 8 0 -1 -5 -2 -11 -2 -8 0 -11 1
-16 6 -6 6 -9 20 -6 24 1 1 2 3 2 5 0 6 10 11 21 11 5 0 10 -1 10 -2 1 -3 27
3 31 7 10 9 14 46 7 63 -4 9 -14 21 -18 21 -2 0 -3 1 -3 2 0 3 -12 3 -111 3
-100 0 -100 0 -109 -4 -5 -3 -12 -8 -16 -12 -11 -10 -16 -13 -25 -13 -9 0 -14
3 -25 13 -4 4 -11 9 -16 12 l-9 4 -381 0 c-210 0 -383 0 -386 -1 -4 0 -6 -2
-6 -2 0 -1 -1 -2 -3 -2 -4 0 -14 -12 -18 -21 -5 -12 -4 -17 4 -35 1 -3 5 -8 8
-11 16 -17 17 -27 1 -45 -13 -14 -16 -28 -16 -64 0 -24 -3 -38 -8 -38 -1 0 -2
-2 -3 -3 0 -3 -1 -3 -1 -1 0 2 -3 5 -7 7 -3 3 -9 8 -13 11 -9 7 -9 8 -19 15
-4 3 -9 7 -10 8 -1 1 -4 3 -7 5 -2 2 -11 8 -19 14 -8 6 -24 17 -37 26 -13 8
-23 16 -24 16 0 1 -1 2 -2 2 -1 0 -8 4 -15 9 -6 4 -19 12 -27 17 -8 5 -16 11
-18 14 -6 7 -5 20 1 32 6 12 7 29 2 36 -2 2 -3 4 -2 4 1 0 -2 3 -5 6 -4 4 -42
24 -88 47 -88 44 -92 46 -107 38z m34 -124 c4 -4 5 -7 5 -13 0 -16 8 -46 14
-53 3 -4 3 -25 0 -31 -8 -15 -40 -15 -48 0 -3 5 -3 16 -1 35 0 9 0 19 -2 28
-6 30 -2 39 17 39 8 0 11 -1 15 -5z m1247 -56 l-5 -5 -4 4 -5 5 4 4 5 5 4 -4
5 -5 -4 -4z m139 6 c3 -3 3 -3 0 -6 -3 -3 -3 -3 -6 0 -3 2 -3 3 -1 6 4 4 4 4
7 0z m-703 -22 c3 -3 4 -7 4 -14 0 -13 -6 -19 -19 -19 -13 0 -19 6 -19 19 0 7
1 11 4 14 7 8 23 8 30 0z m328 -2 c4 -2 14 -6 21 -9 11 -6 14 -7 39 -8 l28 0
6 -7 c9 -8 16 -16 18 -21 1 -2 3 -4 5 -4 2 0 7 -5 12 -13 3 -6 3 -7 0 -12 -2
-3 -5 -5 -7 -5 -3 0 -14 5 -22 12 -20 15 -47 24 -61 20 -11 -4 -15 -7 -20 -15
-8 -11 -15 -17 -22 -17 -11 0 -15 5 -15 20 0 13 -3 28 -9 45 -3 8 -3 9 0 14 4
6 9 6 27 0z m-101 -2 c6 -4 6 -6 6 -20 0 -23 -1 -24 -44 -25 -19 -1 -38 0 -41
1 -7 1 -12 8 -12 17 0 11 5 17 16 19 10 2 39 10 42 11 2 1 9 2 15 2 11 0 14
-1 18 -5z m-301 -161 c5 -5 6 -7 6 -17 0 -10 -1 -12 -6 -17 -5 -5 -7 -6 -17
-6 -10 0 -12 1 -17 6 -5 5 -6 7 -6 17 0 10 1 12 6 17 5 5 7 6 17 6 10 0 12 -1
17 -6z m-445 -10 c11 -3 15 -9 15 -23 1 -17 -4 -25 -21 -32 -18 -7 -20 -10
-21 -29 l-1 -14 10 -8 c6 -4 12 -9 13 -11 2 -1 5 -3 7 -4 3 0 3 -1 1 -1 -2 0
-4 -1 -4 -2 0 0 -3 -3 -6 -4 -5 -4 -15 -4 -102 -4 -99 0 -101 0 -108 8 -3 3
-3 4 -1 5 1 0 5 4 8 9 3 5 8 12 12 16 8 11 10 27 6 46 -6 29 2 43 26 43 11 0
22 -5 31 -13 15 -14 35 -26 43 -28 18 -3 30 3 44 24 14 22 26 27 48 22z m863
1 c-13 -1 -35 -1 -48 0 -14 0 -3 0 23 0 26 0 37 0 25 0z m125 0 c-6 -1 -16 -1
-21 0 -6 0 -2 0 10 0 12 0 16 0 11 0z m-696 -27 c10 -9 3 -26 -10 -26 -8 0
-15 7 -15 15 0 13 16 20 25 11z m-771 -37 c6 -4 11 -20 10 -33 -2 -15 -7 -20
-25 -20 -19 0 -24 6 -26 29 -1 10 0 13 4 17 6 8 31 12 37 7z m704 -28 c1 -2 5
-8 7 -12 4 -9 4 -9 0 -17 -2 -5 -6 -11 -7 -13 -2 -2 -6 -8 -9 -13 -4 -9 -4 -9
-5 -127 0 -105 0 -119 3 -127 4 -11 9 -15 22 -19 5 -2 11 -4 12 -5 1 0 4 -1 6
-1 3 0 7 -4 14 -13 5 -8 10 -14 11 -14 1 0 2 -1 1 -2 -1 -2 1 -2 14 -5 4 -1 4
2 0 4 -2 0 0 0 5 0 7 0 10 0 13 4 2 2 7 7 11 9 9 7 22 19 22 22 0 0 3 2 7 4
14 5 16 -4 7 -30 -5 -13 -6 -18 -7 -27 -2 -11 -11 -18 -23 -18 -10 0 -11 1
-17 8 -15 17 -16 19 -15 20 0 1 -3 2 -14 4 -5 1 -5 -2 0 -4 1 0 -1 0 -6 0 -7
0 -10 0 -13 -4 -3 -3 -7 -5 -10 -5 -9 0 -29 -12 -36 -22 l-6 -8 -1 -152 c-1
-92 -2 -152 -3 -154 -1 -2 -2 -5 -2 -7 -1 -2 -2 -5 -3 -6 -1 -1 -2 -4 -3 -6 0
-3 -1 -3 -1 1 0 3 -2 8 -5 10 -6 6 -22 14 -23 13 -1 0 -5 -1 -9 -2 -13 -2 -22
-8 -31 -22 -5 -7 -11 -14 -13 -15 -2 -1 -14 -3 -27 -3 -17 0 -27 -2 -36 -5 -7
-2 -15 -4 -16 -4 -6 0 -12 7 -12 13 0 6 8 15 14 15 2 0 4 1 4 2 0 1 1 2 3 2 4
0 17 8 19 11 1 1 2 7 2 13 0 11 0 12 -8 19 -8 7 -9 7 -19 7 -21 -2 -37 -19
-38 -42 0 -7 -1 -11 -1 -11 -1 1 -2 0 -2 -2 0 -2 -1 -3 -2 -3 -1 0 -2 -2 -3
-4 -1 -2 -2 -4 -3 -3 -2 1 -4 -4 -5 -16 0 -5 0 -4 -1 5 0 12 0 12 -5 11 -4 -1
-5 0 -7 6 -6 20 -12 29 -26 38 -7 4 -15 9 -18 11 -12 6 -15 11 -15 27 0 19 4
24 23 26 15 1 34 7 46 13 6 3 13 4 21 4 l12 0 13 -14 c9 -9 17 -16 25 -19 l11
-5 43 1 c48 1 49 1 49 3 0 1 1 2 3 2 4 0 14 12 18 21 3 6 3 20 3 98 0 97 0 98
-10 109 -2 2 -4 5 -4 6 -1 1 -23 12 -27 13 -1 0 -10 4 -20 9 l-18 9 -58 0 -58
0 -6 6 c-3 3 -6 6 -6 7 1 1 1 72 0 89 0 12 0 12 -7 13 -6 1 -26 13 -31 18 -5
6 -5 21 2 27 6 7 22 7 28 1 5 -5 10 -21 9 -33 0 -9 2 -15 6 -15 1 0 2 1 1 2
-1 1 0 2 1 2 1 0 2 -1 2 -2 0 -2 1 -2 1 -1 1 0 4 -2 7 -5 3 -3 9 -8 13 -11 4
-3 9 -7 11 -8 1 -2 4 -3 5 -3 2 0 3 -1 3 -2 0 -4 21 -7 40 -5 24 1 24 1 24 3
0 1 1 2 3 2 4 0 14 12 18 21 5 12 4 57 -1 68 -4 8 -5 8 -22 7 l-12 0 0 9 0 9
12 0 c6 0 13 0 14 0 5 0 11 13 12 25 0 14 2 20 7 29 3 6 5 7 11 7 11 -1 17 8
32 43 20 46 35 78 40 84 5 7 14 7 20 1z m-548 -28 c5 -5 10 -19 10 -28 0 -14
-12 -18 -29 -10 -15 7 -20 28 -10 38 5 5 7 5 15 5 6 -1 11 -3 14 -5z m655 -14
c17 -8 33 -14 41 -16 7 -2 12 -10 12 -20 0 -16 -13 -29 -34 -34 -7 -2 -11 2
-21 19 -4 7 -10 14 -14 17 -19 15 -21 17 -21 25 0 9 6 16 15 16 4 0 14 -3 22
-7z m-713 -103 c5 -6 5 -12 0 -18 -7 -8 -22 -2 -22 9 0 11 15 17 22 9z m173
-10 c5 -3 8 -10 10 -20 1 -5 2 -12 4 -16 1 -4 2 -7 2 -8 0 -1 3 -8 8 -17 4 -8
7 -17 7 -20 0 -7 -6 -16 -16 -27 -5 -6 -12 -13 -14 -17 -5 -8 -11 -11 -28 -16
-10 -3 -12 -3 -17 -1 -8 4 -10 9 -7 17 3 8 4 12 4 18 0 2 4 7 9 12 9 9 9 10
11 25 1 13 -2 20 -12 26 -13 7 -19 22 -12 33 4 6 11 10 27 14 5 1 19 -1 24 -3z
m279 -29 c5 -5 5 -22 1 -27 -5 -6 -18 -5 -24 0 -7 6 -7 19 -1 25 6 6 19 7 24
2z m268 -47 c0 -1 2 -2 5 -3 3 -1 6 -3 8 -5 3 -4 3 -4 0 -4 -2 0 -3 -1 -3 -2
0 -1 -1 -1 -2 -1 -2 0 -6 -1 -9 -2 -5 -1 -7 0 -10 4 -3 5 -3 5 0 10 4 5 11 7
11 3z m75 -17 c4 -4 5 -7 5 -15 0 -14 -6 -20 -21 -20 -10 0 -11 0 -16 8 -3 4
-7 7 -7 8 -1 0 -2 2 -2 3 0 2 -1 3 -2 3 -2 0 -4 7 -2 9 2 3 21 9 31 9 7 0 10
-1 14 -5z m-134 -33 c4 -6 4 -8 -2 -15 -6 -7 -9 -6 -14 2 -3 6 -3 7 0 12 4 6
12 7 16 1z m-357 -144 c5 -5 6 -7 6 -17 0 -10 -1 -12 -6 -17 -5 -5 -7 -6 -17
-6 -10 0 -12 1 -17 6 -5 5 -6 7 -6 17 0 10 1 12 6 17 5 5 7 6 17 6 10 0 12 -1
17 -6z m-105 -16 c7 -6 7 -17 0 -25 -3 -3 -6 -5 -8 -5 -2 0 -3 -1 -3 -1 0 -3
-9 -6 -14 -5 -10 2 -8 23 3 36 5 5 16 6 22 0z m-35 -47 c2 -7 -2 -22 -9 -28
-9 -11 -27 -3 -27 11 0 8 8 18 13 18 2 0 3 1 3 2 0 2 9 5 14 4 3 -1 5 -3 6 -7z
m524 -36 c4 -3 30 -43 31 -50 2 -11 -4 -15 -29 -20 -11 -2 -18 -10 -13 -13 0
-1 1 -6 2 -12 0 -5 2 -11 3 -13 1 -2 2 -4 1 -4 -1 -2 8 -10 21 -19 15 -11 18
-15 18 -27 0 -10 -6 -21 -15 -29 -1 -1 -3 -4 -3 -5 0 -2 -1 -3 -2 -3 -1 -1 -5
-9 -10 -18 -10 -21 -13 -24 -28 -24 -9 0 -11 1 -16 6 -11 11 -7 33 9 46 1 1 3
4 3 5 0 2 1 3 2 3 1 0 2 1 2 3 0 1 2 4 4 7 3 4 3 6 2 14 -2 12 -5 17 -15 25
-19 15 -21 18 -21 28 0 13 4 18 16 22 5 2 9 4 9 5 -1 0 1 2 3 3 2 2 2 3 0 2
-3 -2 -3 -1 0 2 4 5 1 22 -5 31 -6 9 -7 25 -1 32 5 7 23 9 32 3z m-624 -56 c3
-3 4 -7 4 -14 0 -13 -6 -19 -19 -19 -13 0 -19 6 -19 19 0 7 1 11 4 14 7 8 23
8 30 0z m141 -97 c7 -6 7 -19 1 -25 -6 -7 -19 -7 -25 -1 -7 6 -7 19 -1 25 6 7
19 7 25 1z m-234 -80 c12 0 18 -25 8 -35 -4 -4 -7 -5 -15 -5 -14 0 -20 6 -20
19 0 15 7 23 19 22 2 0 6 -1 8 -1z m383 -88 c10 -19 8 -44 -5 -50 -9 -4 -17
-2 -24 5 -6 6 -7 8 -7 18 0 11 0 12 8 19 5 4 11 9 14 12 3 3 6 6 6 6 1 0 5 -5
8 -10z m338 -25 c19 -8 20 -43 2 -52 -13 -7 -27 -5 -37 4 -10 8 -10 32 -1 42
7 8 24 11 36 6z m-715 -25 c-1 -2 -3 -5 -5 -7 -2 -4 -2 -4 -4 1 -1 3 -3 6 -4
7 -2 1 -1 3 2 6 l5 5 4 -4 c4 -4 5 -5 2 -8z m809 -26 c5 -5 6 -7 6 -17 0 -10
-1 -12 -6 -17 -5 -5 -7 -6 -17 -6 -10 0 -12 1 -17 6 -5 5 -6 7 -6 17 0 10 1
12 6 17 5 5 7 6 17 6 10 0 12 -1 17 -6z m-304 -116 c2 0 5 -8 5 -11 -1 -7 -6
-25 -9 -30 -7 -12 -32 -18 -47 -11 -5 3 -9 5 -9 7 0 3 -16 25 -18 25 -1 0 -3
2 -5 5 l-3 5 17 8 c48 22 47 22 58 11 5 -5 10 -9 11 -9z m-106 5 c11 -3 14
-14 3 -12 -3 1 -6 0 -8 -2 -2 -2 -3 -2 -6 4 -4 7 -4 7 0 11 2 2 4 3 5 2 1 -1
3 -2 6 -3z m307 -7 c7 -6 7 -19 1 -25 -6 -7 -19 -7 -25 -1 -7 6 -7 19 -1 25 6
7 19 7 25 1z m-307 -81 c3 -2 7 -7 11 -15 3 -7 6 -12 7 -12 1 0 2 -1 2 -2 0
-1 6 -9 14 -16 8 -8 14 -15 14 -17 0 -6 -6 -13 -10 -13 -4 0 -24 10 -30 15 -3
2 -17 6 -28 8 -12 2 -18 5 -21 12 -4 8 -4 24 0 32 6 12 26 16 41 8z m433 -53
c4 -6 5 -8 4 -14 -1 -6 -4 -11 -8 -13 -2 0 -13 12 -15 17 -2 5 -2 7 1 11 4 7
11 6 18 -1z m154 -12 c4 -4 5 -7 5 -16 0 -13 3 -26 11 -43 6 -14 6 -20 1 -26
-10 -11 -26 -3 -26 12 0 9 -6 32 -10 36 -10 12 -13 29 -6 36 6 7 19 7 25 1z
m-251 -9 c21 -5 30 -13 30 -28 0 -6 -6 -17 -10 -17 -5 0 -29 -14 -37 -20 -19
-18 -30 -22 -39 -13 -4 4 -4 6 -3 14 0 5 2 11 3 12 1 1 4 8 7 15 13 33 14 35
26 38 9 2 9 2 23 -1z m128 -15 c6 -3 13 -6 16 -7 10 -2 16 -21 10 -31 -3 -6
-14 -10 -27 -10 -19 0 -25 8 -25 38 -1 11 2 16 8 16 3 1 5 0 6 0 1 -1 6 -4 12
-6z m690 5 c12 -5 18 -22 13 -37 -5 -20 -47 -38 -58 -26 -6 7 0 46 9 57 7 8
24 11 36 6z m-748 -97 c13 -13 -5 -31 -20 -21 -10 7 -3 25 10 25 3 0 8 -2 10
-4z m98 -8 c1 0 5 -3 8 -6 5 -5 6 -7 6 -18 0 -11 -1 -13 -6 -18 -6 -6 -7 -6
-18 -6 -11 0 -12 0 -18 6 -5 5 -6 7 -6 17 0 14 3 20 12 24 5 2 8 2 22 1z m161
-15 c3 -5 3 -5 0 -10 -2 -3 -5 -5 -7 -5 -2 0 -5 2 -7 5 -3 5 -3 5 0 10 2 3 5
5 7 5 2 0 5 -2 7 -5z m-323 -14 c5 -4 6 -15 0 -21 -9 -9 -24 -2 -24 10 0 12
13 18 24 11z m755 -21 c10 -9 3 -26 -10 -26 -8 0 -15 7 -15 15 0 13 16 20 25
11z"/>
<path d="M1384 3430 c0 -1 -1 -2 -3 -2 -4 0 -14 -12 -18 -21 -3 -7 -3 -18 -3
-75 l1 -67 -6 -6 c-5 -5 -8 -6 -15 -5 -5 0 -15 -1 -23 -3 l-14 -2 0 -19 0 -19
6 -3 c4 -2 8 -5 10 -8 3 -4 3 -5 1 -10 -3 -5 -4 -5 -31 -6 -30 -1 -37 0 -42 6
-4 6 -4 19 0 23 2 1 2 3 2 4 -1 0 -2 5 -2 10 -3 24 -8 26 -55 26 -32 0 -36 0
-43 -5 -19 -10 -27 -19 -35 -44 -3 -10 -4 -18 -4 -41 0 -34 4 -51 16 -60 3 -2
8 -7 12 -12 11 -13 8 -30 -8 -47 -2 -3 -7 -12 -11 -20 l-8 -14 -1 -35 c-1 -37
1 -47 9 -57 5 -6 22 -12 36 -13 16 -1 23 -6 27 -20 2 -7 2 -11 0 -17 -4 -15
-11 -20 -27 -21 -23 -2 -39 -11 -43 -27 -1 -4 -2 -76 -1 -183 l0 -176 7 -16
c9 -18 21 -33 31 -38 4 -2 7 -5 7 -5 0 -1 5 -2 11 -1 7 0 14 2 27 9 19 9 25
10 42 3 16 -6 29 -7 36 -2 3 1 4 3 3 3 0 0 0 2 1 6 1 3 2 11 2 19 0 15 4 23
13 23 8 0 28 8 33 15 10 9 11 19 6 32 -6 16 -17 25 -38 30 -19 5 -26 17 -22
39 1 6 1 19 1 28 -3 41 0 48 20 51 20 2 38 13 43 27 1 4 2 54 2 161 0 148 0
155 -4 168 -2 8 -3 15 -2 16 0 0 0 1 -2 1 -3 0 -2 10 2 14 4 4 12 4 17 0 1 -2
3 -4 2 -4 -1 0 0 -2 2 -5 2 -2 2 -5 2 -5 -1 -1 0 -4 2 -7 2 -3 4 -6 4 -7 -1
-3 2 -8 4 -8 1 0 4 -4 6 -9 l4 -9 -6 -23 -7 -22 0 -119 1 -119 6 -9 c3 -6 7
-11 9 -12 4 -2 22 -3 26 -1 31 11 44 8 44 -10 0 -7 -1 -10 -10 -18 -13 -14
-17 -23 -17 -43 0 -9 -1 -19 -2 -22 -2 -5 -9 -14 -12 -14 0 0 -8 -3 -16 -7
-11 -5 -15 -9 -19 -15 -5 -10 -5 -20 0 -30 11 -22 13 -36 7 -47 -2 -4 -3 -11
-3 -21 l0 -14 12 -12 c9 -9 13 -14 14 -20 3 -13 0 -24 -9 -32 -28 -24 -30 -27
-31 -63 0 -22 0 -29 3 -36 4 -9 14 -21 18 -21 2 0 3 -1 3 -2 0 -2 0 -2 23 -3
29 -2 38 2 52 28 7 15 9 16 14 16 5 0 7 -1 14 -16 15 -27 21 -30 62 -28 32 1
33 1 33 3 0 1 1 2 3 2 4 0 14 12 18 21 3 6 3 20 3 102 0 65 1 96 2 100 1 4 3
5 3 4 2 -5 5 -3 6 3 0 3 1 1 1 -5 0 -11 8 -29 15 -33 3 -3 8 -5 19 -7 2 -1 11
-1 20 -1 l17 0 11 -12 12 -13 14 -1 c14 0 14 0 23 7 5 4 11 9 13 11 7 7 24 15
36 18 14 3 31 9 37 15 13 12 30 47 36 74 8 37 9 57 8 193 l0 125 -5 9 c-2 6
-7 13 -10 16 -8 9 -17 22 -21 31 -6 14 -12 20 -34 31 -26 13 -28 16 -27 37 0
17 8 44 14 49 11 9 22 3 30 -16 4 -7 7 -13 8 -14 0 -1 2 -3 4 -6 2 -5 3 -5 13
-4 5 0 11 1 12 1 1 0 3 1 4 1 4 1 9 7 11 15 2 9 2 169 -1 177 -1 3 -4 8 -6 12
-3 5 -5 9 -5 10 0 3 -17 27 -23 32 -12 12 -17 12 -79 12 -71 -1 -69 -1 -68
-23 0 -13 0 -15 -3 -16 -3 0 -2 -1 1 -1 9 0 14 -8 14 -22 0 -11 -1 -13 -6 -18
-6 -6 -7 -6 -18 -6 -11 0 -12 0 -18 6 -5 5 -6 7 -6 18 0 14 5 22 14 22 3 0 4
1 1 1 -3 1 -3 3 -3 16 1 21 0 22 -45 23 -33 1 -35 1 -40 6 -8 8 -7 16 7 37 10
15 12 24 12 65 0 30 -1 39 -3 45 -4 9 -14 21 -18 21 -2 0 -3 1 -3 2 0 6 -42 0
-46 -6 -1 -1 -6 -4 -13 -7 l-11 -6 -17 5 c-15 4 -30 11 -28 14 1 1 -18 2 -41
2 -28 0 -42 -1 -42 -2z m75 -43 c3 -3 3 -3 0 -6 -3 -3 -3 -3 -6 0 -3 2 -3 3
-1 6 4 4 4 4 7 0z m14 -122 c4 -4 5 -7 5 -13 0 -11 -7 -18 -18 -18 -11 0 -18
7 -18 18 0 11 7 18 18 18 6 0 9 -1 13 -5z m77 -162 c8 -2 22 -6 30 -8 18 -3
22 -7 34 -32 8 -16 10 -28 6 -32 -2 -3 4 -27 6 -26 1 1 2 -1 2 -4 0 -5 7 -21
10 -21 0 0 1 -62 1 -138 -1 -76 0 -140 1 -141 3 -4 0 -41 -4 -41 -2 0 -5 -8
-4 -10 0 -1 -1 -2 -2 -2 -1 0 -2 -2 -2 -4 l0 -4 -4 4 c-3 2 -5 3 -6 3 -1 -1
-2 0 -2 1 0 2 -2 5 -5 8 -5 6 -5 7 -5 34 0 30 -2 43 -7 45 -3 1 -3 2 -1 3 2 1
-5 1 -14 1 -15 -1 -16 -1 -16 2 0 2 -1 2 -2 -2 -3 -14 -22 -18 -41 -8 -20 10
-32 30 -27 48 3 11 6 13 27 24 11 5 23 13 29 19 6 5 12 10 13 10 1 0 5 3 10 6
5 3 10 6 10 6 3 0 12 12 15 20 3 7 4 13 4 36 0 28 -2 40 -7 44 -4 3 -33 6 -33
4 0 -1 -3 -4 -7 -7 -15 -10 -31 -4 -31 11 0 9 4 13 18 21 31 17 33 18 37 36 4
17 4 26 -1 36 -5 11 -11 15 -25 17 -9 1 -11 1 -21 -5 -6 -3 -14 -8 -19 -11 -5
-3 -10 -6 -12 -8 -4 -3 -13 -17 -14 -20 0 -2 -1 -4 -1 -5 -2 -2 -5 -17 -4 -20
1 -4 -5 -19 -9 -22 -9 -9 -23 -10 -36 -5 -6 2 -20 16 -25 25 -1 3 -3 5 -4 5
-1 0 -4 2 -8 5 -6 6 -7 11 -4 19 1 3 3 9 5 15 4 12 11 16 30 15 28 0 47 7 54
22 2 4 5 8 6 9 0 1 4 7 8 12 11 17 20 19 47 10z m-291 -16 c9 -7 9 -25 2 -40
-7 -14 -8 -36 -3 -46 3 -5 12 -38 16 -58 2 -8 -2 -17 -8 -17 -4 0 -16 8 -24
16 -4 4 -10 9 -14 12 -14 10 -16 13 -18 22 -2 10 0 21 6 30 7 9 8 32 3 45 -5
14 -3 30 4 36 8 7 28 7 36 0z m524 -291 c7 -6 7 -19 1 -25 -6 -7 -19 -7 -25
-1 -7 6 -7 19 -1 25 6 7 19 7 25 1z m-542 -17 c21 -20 28 -43 15 -55 -7 -8
-22 -9 -32 -2 -6 4 -19 25 -22 36 -10 31 15 44 39 21z m480 -72 c6 -4 6 -6 6
-20 0 -14 0 -16 -6 -20 -4 -4 -7 -5 -18 -5 -11 0 -14 1 -18 5 -6 4 -6 6 -6 20
0 14 0 16 6 20 4 4 7 5 18 5 11 0 14 -1 18 -5z m-74 -93 c0 -2 1 -4 3 -5 2 -1
2 -2 -2 -6 l-5 -5 -4 4 c-4 4 -5 5 -3 7 2 1 3 3 3 5 0 1 1 4 1 6 0 4 0 5 3 2
2 -2 3 -5 4 -8z m-96 -35 c3 -3 3 -3 0 -6 -3 -3 -3 -3 -6 0 -3 2 -3 3 -1 6 4
4 4 4 7 0z m160 -48 c3 -5 3 -5 0 -10 -2 -3 -5 -5 -7 -5 -2 0 -5 2 -7 5 -3 5
-3 5 0 10 2 3 5 5 7 5 2 0 5 -2 7 -5z m-156 -129 c5 -5 6 -7 6 -16 0 -9 -1
-11 -7 -16 -5 -6 -7 -7 -16 -7 -9 0 -11 1 -16 7 -9 8 -9 23 -1 32 9 9 24 9 34
0z"/>
</g>
</svg>
