<?xml version="1.0" standalone="no"?>
<!DOCTYPE svg PUBLIC "-//W3C//DTD SVG 20010904//EN"
 "http://www.w3.org/TR/2001/REC-SVG-20010904/DTD/svg10.dtd">
<svg version="1.0" xmlns="http://www.w3.org/2000/svg"
 width="1000.000000pt" height="2850.000000pt" viewBox="0 0 1000.000000 2850.000000"
 preserveAspectRatio="xMidYMid meet">
<metadata>
Created by potrace 1.15, written by Peter Selinger 2001-2017
</metadata>
<g transform="translate(0.000000,2850.000000) scale(0.500000,-0.500000)"
fill="#000000" stroke="none">
<path d="M265 3819 c-1 -1 -6 -2 -10 -3 -16 -4 -29 -20 -32 -38 0 -4 -4 -17
-7 -30 -3 -13 -6 -25 -7 -28 -3 -16 -30 -106 -39 -134 -4 -9 -8 -24 -11 -32
-3 -8 -6 -17 -7 -19 -1 -2 -6 -14 -11 -27 -21 -56 -58 -136 -82 -178 -4 -7 -7
-13 -7 -13 0 -1 -8 -14 -15 -26 -2 -2 -4 -7 -6 -10 -2 -3 -9 -14 -15 -24 -14
-19 -17 -32 -12 -44 2 -3 2 -7 2 -8 0 -1 0 -1 1 -1 1 1 3 0 4 -2 2 -2 12 -10
23 -17 11 -7 23 -16 28 -20 7 -6 19 -15 22 -17 1 -1 4 -5 6 -10 l5 -9 1 -180
c1 -139 2 -181 3 -184 4 -6 4 -22 0 -32 -5 -13 -4 -373 0 -384 4 -9 14 -21 18
-21 2 0 3 -1 3 -2 0 0 2 -2 6 -2 7 -1 104 -1 110 0 10 2 12 6 12 21 0 15 0 15
6 16 4 0 4 0 -2 1 -10 0 -14 6 -14 19 0 13 4 19 14 21 18 4 28 -4 28 -21 0
-13 -4 -19 -14 -19 -6 -1 -6 -1 -1 -1 5 -1 5 -1 5 -16 0 -14 2 -18 10 -21 7
-2 78 -2 97 0 25 3 29 3 54 0 15 -2 63 -2 189 -1 93 0 170 1 172 1 1 0 2 1 2
2 0 1 1 2 3 2 4 0 14 12 18 21 3 7 3 43 2 373 0 201 -1 374 -1 384 0 10 1 52
1 92 1 64 1 73 -2 81 -4 9 -14 21 -18 21 -2 0 -3 1 -3 2 0 2 -1 2 -27 3 -25 2
-36 -1 -44 -12 -5 -7 -11 -23 -11 -31 0 -14 -21 -22 -31 -11 -9 9 -8 38 2 61
1 4 12 23 23 42 12 19 23 38 25 42 3 4 15 25 27 47 38 65 44 78 44 88 0 11 -4
19 -11 27 -3 4 -10 13 -14 21 -11 20 -18 29 -28 36 -4 4 -10 9 -13 11 -54 43
-62 47 -96 40 -16 -3 -30 -4 -99 -4 l-79 0 -7 6 c-4 3 -6 6 -5 6 1 1 7 21 11
37 0 2 3 12 6 22 6 22 5 33 -3 45 -8 11 -18 15 -46 19 -13 2 -25 4 -28 4 -10
1 -23 3 -28 4 -3 1 -15 2 -27 4 -12 2 -27 4 -34 5 -7 1 -16 2 -22 3 -5 1 -10
1 -11 2 0 0 -2 0 -3 0z m59 -279 c5 -5 5 -11 0 -16 -10 -10 -27 5 -16 16 4 4
12 4 16 0z m257 -36 c10 -10 3 -28 -10 -28 -8 0 -21 7 -21 11 0 17 20 27 31
17z m-70 -25 c0 -2 2 -3 4 -3 4 0 4 -3 -2 -9 -6 -6 -9 -6 -14 0 -3 5 -3 5 0
10 4 5 10 7 12 2z m-224 -38 c3 -3 3 -3 0 -6 -3 -3 -3 -3 -6 0 -3 2 -3 3 -1 6
4 4 4 4 7 0z m191 -25 c5 -3 13 -10 10 -10 -1 0 -2 -2 -3 -4 -1 -3 -4 -10 -6
-16 -3 -5 -5 -11 -5 -11 0 -1 -13 -28 -22 -47 -10 -21 -13 -22 -72 -22 l-47 1
-5 5 c-3 3 -5 6 -4 6 2 2 35 78 36 85 1 4 7 10 14 13 7 3 99 3 104 0z m-303
-21 c4 -4 5 -7 5 -15 0 -14 -6 -20 -20 -20 -14 0 -20 6 -20 20 0 14 6 20 20
20 8 0 11 -1 15 -5z m96 -158 c5 -8 1 -16 -8 -16 -9 0 -13 8 -8 16 2 3 5 5 8
5 3 0 6 -2 8 -5z m78 -180 l6 -6 0 -55 0 -55 -6 -6 c-5 -5 -8 -6 -16 -6 -8 0
-11 1 -16 6 l-6 6 0 55 0 55 6 6 c9 9 23 9 32 0z m240 0 l6 -6 0 -55 0 -55 -6
-6 c-6 -5 -8 -6 -19 -6 -11 0 -13 1 -19 6 l-6 6 0 55 0 55 6 6 c5 5 7 6 19 6
11 0 13 -1 19 -6z m54 -158 c3 -5 3 -6 1 -11 -5 -8 -13 -8 -18 0 l-4 7 4 4 c6
7 13 6 17 0z m80 -64 c3 -3 3 -3 0 -6 -3 -3 -3 -3 -6 0 -3 2 -3 3 -1 6 4 4 4
4 7 0z m-410 -74 c3 -3 3 -3 0 -6 -3 -3 -3 -3 -6 0 -3 2 -3 3 -1 6 4 4 4 4 7
0z m-168 -8 c3 -3 3 -3 0 -6 -3 -3 -3 -3 -6 0 -3 2 -3 3 -1 6 4 4 4 4 7 0z
m204 -56 l6 -6 0 -57 0 -57 -6 -6 c-5 -5 -8 -6 -16 -6 -8 0 -11 1 -16 6 l-6 6
0 57 0 57 6 6 c9 9 23 9 32 0z m240 0 l6 -6 0 -57 0 -58 -5 -4 c-4 -4 -8 -5
-19 -6 -14 -1 -14 -1 -20 5 l-6 6 0 57 0 57 6 6 c5 5 7 6 19 6 11 0 13 -1 19
-6z m-372 -185 c10 -9 3 -26 -10 -26 -8 0 -15 7 -15 15 0 13 16 20 25 11z"/>
<path d="M948 3714 c-3 -1 -6 -1 -7 0 0 0 -1 0 -1 -2 0 -1 -1 -2 -3 -2 -4 0
-14 -12 -18 -21 -5 -11 -5 -199 0 -210 4 -9 14 -21 18 -21 2 0 3 -1 3 -2 0 0
2 -2 6 -2 6 -1 164 -1 193 0 11 0 29 0 40 -1 33 -3 42 2 41 24 0 9 1 13 2 13
2 0 1 1 -2 2 -6 3 -8 11 -8 25 2 16 7 21 25 21 12 0 14 -1 18 -5 9 -11 11 -13
15 -20 2 -4 4 -6 5 -6 0 1 1 1 1 -1 0 -2 -5 -8 -8 -8 -5 -1 -20 -8 -16 -8 1 0
2 -4 2 -13 -1 -16 3 -22 14 -22 7 0 21 7 19 10 -1 0 0 2 1 4 3 4 3 4 4 12 0 3
1 6 3 8 3 3 3 3 0 3 -5 0 -3 4 4 6 4 1 7 3 7 4 0 2 17 1 25 -2 5 -2 17 -15 17
-19 0 -1 8 -12 12 -17 2 -2 6 -5 10 -7 7 -4 13 -4 117 -4 l110 0 6 -6 7 -7 -7
-6 -6 -7 -202 0 -202 0 -20 -9 c-10 -4 -22 -8 -25 -9 -4 0 -14 3 -27 9 l-22 9
-51 0 c-51 0 -62 -1 -62 -3 0 -1 -1 -2 -3 -2 -4 0 -14 -12 -18 -21 -5 -11 -5
-199 0 -210 4 -9 14 -21 18 -21 2 0 3 -1 3 -2 0 0 2 -2 6 -2 3 -1 140 -1 305
-1 l300 0 6 -6 c6 -8 6 -10 0 -18 l-6 -6 -48 1 c-61 0 -63 -1 -80 -30 -5 -10
-9 -14 -12 -15 -10 -3 -14 0 -22 15 -10 17 -14 21 -24 26 -8 4 -16 4 -192 4
-208 0 -192 1 -208 -16 -13 -13 -20 -20 -22 -20 -2 0 -12 9 -19 17 -8 11 -20
17 -28 17 -5 -1 -8 -2 -8 -2 0 -1 -1 -2 -3 -2 -4 0 -14 -12 -18 -21 -5 -11 -5
-197 0 -208 4 -9 14 -21 18 -21 2 0 3 -1 3 -2 0 -1 1 -2 3 -2 1 0 84 -1 185
-1 206 -1 193 -2 208 14 13 12 14 17 16 45 2 27 5 32 15 35 2 0 13 3 25 6 26
7 40 7 47 0 6 -4 6 -6 6 -20 0 -21 -2 -23 -30 -26 -21 -3 -32 -7 -34 -12 -1
-2 -2 -3 -4 -3 -4 0 -1 -23 4 -28 11 -10 16 -11 56 -12 30 -1 40 -2 46 -5 4
-2 11 -4 14 -5 l6 -2 -6 0 c-8 0 -17 -10 -22 -21 -2 -6 -3 -14 -3 -37 l1 -29
-6 -6 -6 -6 -39 1 c-44 0 -49 -1 -73 -13 -11 -5 -18 -8 -25 -8 -7 0 -14 3 -25
8 -27 14 -15 13 -223 12 -104 0 -190 -1 -191 -1 -2 0 -3 -1 -3 -2 0 -1 -1 -2
-3 -2 -4 0 -14 -12 -18 -21 -4 -11 -4 -46 1 -59 9 -25 21 -32 55 -32 24 1 29
-1 36 -12 9 -13 19 -21 36 -29 21 -10 24 -14 24 -31 -1 -18 -10 -27 -28 -27
-15 0 -20 4 -29 20 -15 28 -47 47 -71 44 -13 -1 -16 -4 -22 -18 -6 -15 -7 -61
-2 -74 4 -9 14 -21 18 -21 2 0 3 -1 3 -2 0 -2 1 -2 92 -4 l87 -1 7 -5 c5 -5 6
-6 2 -6 -2 0 -4 -1 -5 -2 -1 -1 -4 -3 -7 -5 -3 -1 -8 -4 -12 -6 -7 -4 -13 -8
-29 -17 -4 -3 -12 -7 -17 -10 -22 -12 -29 -20 -28 -37 0 -11 6 -21 27 -44 1
-1 4 -5 7 -9 3 -4 6 -8 7 -9 1 -1 5 -6 9 -11 4 -5 8 -10 8 -11 9 -11 31 -40
36 -48 4 -6 8 -12 10 -14 2 -2 4 -5 5 -7 1 -2 2 -4 3 -4 1 0 2 -2 3 -4 1 -2 3
-6 5 -8 2 -3 10 -14 16 -24 7 -11 18 -26 24 -32 7 -6 12 -13 12 -14 0 -1 1 -2
2 -2 1 0 3 -5 5 -10 7 -24 17 -34 34 -34 6 0 13 3 29 12 12 7 23 14 26 16 3 2
6 4 7 4 0 0 6 3 12 7 6 4 12 7 13 7 1 0 2 1 2 2 1 1 4 2 8 3 6 0 7 -1 10 -6
14 -22 46 -137 53 -185 5 -32 12 -46 29 -55 6 -3 12 -4 41 -4 32 0 88 2 91 4
0 0 7 1 14 2 66 6 130 32 167 67 21 20 39 53 48 88 4 19 5 25 8 47 3 22 3 77
1 83 -2 6 -14 23 -14 19 0 0 -3 1 -7 2 -4 2 -13 3 -21 4 -22 1 -29 7 -29 27 0
20 7 26 29 27 8 1 17 2 21 4 4 1 7 2 7 2 0 -4 12 13 14 19 1 4 2 36 2 87 l-1
80 6 6 6 6 88 0 c87 0 99 0 99 3 0 1 1 2 3 2 4 0 14 12 18 21 5 11 5 207 0
218 -6 14 -9 16 -22 17 -7 0 -12 1 -13 1 -1 2 -8 -9 -15 -24 -8 -18 -13 -21
-26 -21 -13 0 -20 4 -33 22 -19 25 -36 32 -74 32 l-25 -1 -6 6 -6 6 1 29 c0
23 0 30 -3 37 -5 11 -14 21 -22 21 l-6 0 7 2 c11 3 34 22 34 29 0 1 1 4 1 6 1
5 1 12 1 27 -1 20 8 29 27 29 19 0 28 -9 27 -29 0 -15 0 -22 1 -27 0 -2 1 -5
1 -6 0 -2 3 -6 7 -10 7 -8 17 -10 31 -8 5 1 10 2 11 1 0 0 1 1 1 2 0 1 1 2 3
2 4 0 14 12 18 21 4 11 5 419 0 434 -5 19 -15 24 -42 24 -24 -1 -29 2 -29 16
0 12 7 18 18 16 27 -3 30 -3 39 0 7 3 10 5 13 12 4 8 4 10 4 144 l-1 136 -5
10 c-8 15 -21 22 -40 22 -17 0 -27 -4 -39 -17 -12 -11 -18 -14 -28 -14 -10 0
-16 3 -28 14 -4 4 -11 10 -16 12 l-8 5 -204 1 c-154 0 -206 0 -211 -2 -4 -1
-10 -5 -14 -9 -6 -6 -14 -24 -14 -31 0 -5 -8 -12 -15 -12 -7 0 -15 7 -15 13 0
6 -8 24 -14 30 -11 11 -7 11 -148 11 -71 0 -131 -1 -134 -2z m74 -183 l-5 -5
-4 4 -5 5 4 4 5 5 4 -4 5 -5 -4 -4z m703 6 c5 -8 1 -16 -8 -16 -9 0 -13 8 -8
16 2 3 5 5 8 5 3 0 6 -2 8 -5z m-488 -277 c13 -5 25 -22 25 -35 0 -20 -25 -23
-47 -5 -23 18 -15 51 11 44 3 -1 8 -3 11 -4z m455 -94 c5 -5 6 -7 6 -17 0 -10
-1 -12 -6 -17 -5 -5 -7 -6 -17 -6 -10 0 -12 1 -17 6 -5 5 -6 7 -6 17 0 10 1
12 6 17 5 5 7 6 17 6 10 0 12 -1 17 -6z m61 -93 c6 -4 6 -6 6 -20 0 -14 0 -16
-6 -20 -4 -4 -7 -5 -18 -5 -11 0 -14 1 -18 5 -6 4 -6 6 -6 20 0 14 0 16 6 20
4 4 7 5 18 5 11 0 14 -1 18 -5z m-138 -124 c11 -5 15 -12 16 -32 1 -22 9 -37
19 -37 5 0 5 0 -1 -2 -3 -1 -8 -2 -10 -3 -10 -6 -29 -7 -76 -5 -39 1 -49 2
-54 5 -3 1 -8 3 -10 3 -3 0 -3 1 1 2 9 3 18 27 14 37 -3 7 0 18 6 24 l6 6 25
-1 c17 0 29 1 35 3 9 3 22 3 29 0z m-595 -8 c23 -5 29 -7 32 -11 2 -4 2 -5 -2
-8 -3 -4 -7 -5 -28 -5 -24 -1 -26 -1 -30 3 -8 8 -3 24 9 24 3 0 11 -1 19 -3z
m179 -4 c3 -3 3 -3 0 -6 -3 -3 -3 -3 -6 0 -3 2 -3 3 -1 6 4 4 4 4 7 0z m388
-192 c12 -7 14 -33 3 -43 -8 -9 -32 -9 -40 0 -9 8 -9 32 0 41 7 7 27 8 37 2z
m-136 -62 c7 -4 10 -11 10 -24 0 -8 -1 -13 -4 -17 -9 -11 -31 -13 -42 -3 -10
8 -11 32 -1 42 7 7 27 8 37 2z m247 -37 c7 -5 9 -23 3 -30 -4 -4 -6 -4 -12 -4
-15 2 -21 8 -21 21 0 15 18 23 30 13z m49 -54 c12 -3 17 -10 17 -23 0 -10 -1
-12 -6 -17 -5 -5 -7 -6 -17 -6 -10 0 -12 1 -17 6 -4 4 -6 8 -6 12 -1 29 4 34
29 28z m-322 -5 c18 -8 13 -35 -7 -35 -20 0 -26 27 -8 35 9 4 7 3 15 0z m-75
-9 c2 -2 6 -7 8 -12 10 -27 -28 -47 -45 -24 -4 6 -4 26 0 32 7 9 27 12 37 4z
m117 -98 c-1 -1 -1 -62 -1 -137 l0 -135 -6 -6 -6 -6 -48 0 c-50 0 -57 1 -65 8
l-5 3 8 4 c33 17 42 28 42 49 0 9 -6 19 -48 81 -5 7 -25 34 -27 36 -1 1 -4 5
-7 9 -5 6 -21 26 -25 31 -1 2 -13 16 -27 33 -14 16 -26 30 -28 30 -1 0 1 2 4
6 l7 5 110 1 110 1 6 -6 c3 -3 6 -7 6 -7z"/>
<path d="M784 2283 c-12 -1 -36 -4 -55 -6 -48 -5 -57 -6 -75 -11 -5 -1 -9 -2
-10 -2 -1 0 -5 -2 -11 -4 -11 -5 -32 -12 -38 -13 -5 -2 -25 -3 -54 -3 -16 -1
-23 0 -36 4 -18 5 -21 5 -90 -2 -40 -4 -45 -5 -51 -13 -5 -5 -6 -31 -1 -32 3
-2 8 -12 10 -20 3 -20 13 -36 27 -46 12 -8 15 -14 14 -30 -2 -16 -7 -21 -25
-21 -15 0 -22 4 -24 15 -2 9 -12 30 -17 36 -3 3 -9 8 -15 12 -12 7 -14 10 -17
21 -2 9 0 22 5 28 2 2 3 4 2 4 0 1 -1 7 -1 14 -1 10 -1 12 -4 13 -2 1 -4 2 -3
3 0 1 0 1 -2 2 -1 0 -5 1 -9 2 -17 4 -42 -4 -52 -16 -3 -4 -7 -10 -9 -13 -5
-12 -13 -17 -22 -17 -9 1 -11 2 -18 10 -21 24 -28 26 -68 23 -15 -1 -35 -3
-43 -4 -8 0 -16 -2 -17 -3 -1 -1 -3 -2 -5 -2 -6 0 -21 -15 -22 -23 0 -1 -1 -4
-1 -7 -2 -6 1 -25 10 -82 0 -3 1 -9 2 -13 1 -4 2 -10 2 -13 0 -3 1 -9 2 -13 3
-27 5 -35 10 -45 2 -6 8 -15 12 -20 9 -10 27 -28 29 -28 1 0 5 -3 9 -7 7 -7 9
-7 20 -7 14 1 27 6 32 13 8 12 30 15 45 6 18 -10 34 -17 41 -17 8 -1 22 1 48
4 8 1 18 3 22 3 9 1 57 7 67 8 4 1 25 3 47 6 22 3 50 6 62 8 29 4 34 5 45 6 5
0 30 4 55 7 25 3 50 6 55 7 5 1 15 2 22 3 7 1 22 3 32 4 10 1 24 3 29 4 6 1
15 2 20 3 37 4 59 8 67 11 19 9 28 26 27 49 0 7 -1 35 -2 62 -1 47 -2 58 -10
92 -2 7 -3 14 -2 15 1 2 -12 27 -17 30 -8 6 -21 7 -44 5z m-614 -119 c5 -4 5
-7 1 -14 -4 -6 -13 -5 -17 2 -2 5 -2 6 1 11 4 6 8 6 15 1z m207 -137 c3 -5 3
-5 0 -10 -2 -3 -5 -5 -7 -5 -2 0 -5 2 -7 5 -3 5 -3 5 0 10 2 3 5 5 7 5 2 0 5
-2 7 -5z"/>
</g>
</svg>
