<?xml version="1.0" standalone="no"?>
<!DOCTYPE svg PUBLIC "-//W3C//DTD SVG 20010904//EN"
 "http://www.w3.org/TR/2001/REC-SVG-20010904/DTD/svg10.dtd">
<svg version="1.0" xmlns="http://www.w3.org/2000/svg"
 width="1100.000000pt" height="2850.000000pt" viewBox="0 0 1100.000000 2850.000000"
 preserveAspectRatio="xMidYMid meet">
<metadata>
Created by potrace 1.15, written by Peter Selinger 2001-2017
</metadata>
<g transform="translate(0.000000,2850.000000) scale(0.500000,-0.500000)"
fill="#000000" stroke="none">
<path d="M440 3803 c-6 -2 -12 -4 -13 -5 -11 -8 -36 -11 -47 -5 -6 3 -23 4
-30 1 -10 -4 -16 -14 -17 -31 -1 -9 -2 -21 -2 -27 -2 -17 3 -30 15 -42 5 -6
11 -10 12 -10 1 0 2 -1 2 -3 0 -1 1 -4 3 -5 4 -4 11 -25 12 -41 l1 -14 -8 -7
c-19 -16 -26 -24 -33 -37 -4 -7 -7 -14 -7 -16 0 -1 -4 -4 -10 -7 l-9 -5 -93
-1 c-93 -1 -93 -1 -102 -6 -12 -6 -17 -13 -21 -25 -5 -16 -4 -237 0 -248 4 -9
14 -21 18 -21 2 0 3 -1 3 -2 0 -2 2 -2 33 -3 38 -1 44 2 44 25 0 6 1 12 2 12
1 1 1 2 -1 2 -8 0 -11 23 -6 36 7 17 43 17 50 0 5 -13 2 -36 -6 -36 -2 0 -2 0
0 -2 2 -1 2 -4 1 -7 0 -3 1 -11 2 -17 1 -6 3 -10 3 -9 0 3 5 5 14 6 4 1 8 3
10 5 3 2 5 4 7 4 3 0 15 20 15 24 0 9 21 24 42 29 24 6 34 2 34 -14 0 -10 -6
-18 -20 -26 -5 -3 -14 -9 -19 -14 -5 -4 -13 -11 -18 -15 -15 -10 -28 -25 -26
-27 1 0 1 -1 0 -1 -3 0 -5 -9 -14 -55 -4 -21 -8 -41 -9 -45 -4 -16 0 -39 10
-58 13 -22 56 -71 76 -86 17 -12 22 -19 22 -30 0 -15 -15 -21 -31 -12 -8 4
-51 39 -66 53 -4 4 -23 3 -28 -1 -2 -1 -3 -2 -3 -1 0 2 -7 -5 -11 -12 -2 -3
-5 -11 -7 -17 -1 -6 -5 -19 -7 -29 -3 -10 -6 -19 -6 -21 -1 -6 -21 -71 -28
-92 -4 -12 -8 -25 -10 -30 -3 -10 -4 -28 -1 -41 1 -9 -1 -25 -5 -40 -7 -21
-10 -26 -26 -38 -19 -14 -21 -17 -44 -63 -22 -45 -22 -46 -11 -71 12 -26 7
-34 -19 -36 -36 -2 -53 -21 -43 -46 2 -6 14 -19 16 -19 1 0 8 -4 16 -9 7 -4
22 -14 32 -21 10 -6 20 -13 21 -13 1 -1 15 -11 31 -22 17 -11 32 -22 35 -24
12 -9 56 -42 63 -47 11 -9 34 -8 44 2 10 9 51 84 85 156 4 10 -1 39 -9 49 -3
3 -2 14 2 19 1 2 9 6 16 8 25 9 32 16 45 53 4 11 8 23 10 26 2 5 8 22 10 30 1
1 7 21 15 44 15 44 37 119 39 131 1 4 2 8 4 10 1 1 2 3 1 3 0 0 0 1 1 3 1 4
21 84 22 89 0 2 2 10 4 17 2 7 3 15 4 17 0 2 5 20 9 40 6 26 9 43 10 63 2 25
4 38 8 43 3 4 4 14 5 34 1 21 1 22 11 48 4 12 6 21 6 35 1 10 2 20 2 22 2 6
10 10 18 10 5 0 70 -1 144 -2 115 -1 136 -1 140 -4 2 -2 4 -4 4 -4 0 -1 2 -2
4 -2 2 0 2 -1 0 -1 -2 -1 -9 -9 -16 -19 -7 -10 -21 -28 -31 -41 -10 -13 -20
-27 -21 -31 -5 -14 -1 -27 16 -49 3 -4 9 -13 13 -19 4 -6 8 -11 9 -12 0 -1 7
-10 15 -22 7 -12 17 -27 22 -34 5 -7 10 -17 13 -21 10 -20 19 -31 28 -40 17
-15 30 -28 30 -29 0 -1 1 -2 3 -2 2 0 3 -1 3 -2 0 -1 7 -2 16 -2 l15 0 10 13
c6 6 11 13 12 15 13 15 31 42 31 44 0 2 1 2 2 -1 1 -3 10 -6 10 -3 0 2 8 1 14
-1 3 -2 9 -2 14 -2 6 0 10 -1 10 -2 0 -1 1 0 3 3 5 6 19 6 25 -1 6 -6 6 -19
-1 -25 -6 -6 -20 -6 -24 0 -2 3 -3 4 -3 3 0 -1 -4 -2 -10 -2 -5 0 -10 0 -10
-1 0 -1 -1 -1 -2 -1 -4 1 -11 -5 -14 -13 -1 -5 -2 -39 -2 -123 0 -120 0 -120
8 -138 5 -12 6 -16 6 -23 0 -7 -1 -11 -6 -23 -7 -16 -8 -23 -8 -53 0 -28 0
-31 5 -41 5 -10 6 -11 19 -17 7 -4 15 -7 18 -7 19 -2 29 -18 24 -37 -4 -13
-11 -20 -24 -21 -3 0 -11 -3 -18 -7 -13 -6 -14 -7 -19 -17 l-5 -11 0 -107 0
-107 -6 -11 c-3 -7 -6 -10 -6 -9 0 3 -4 5 -13 8 -24 8 -25 8 -30 18 -2 5 -6
13 -7 18 -2 5 -3 10 -4 11 -1 1 -2 7 -3 14 -2 14 0 16 18 25 19 10 20 10 20
25 0 11 -1 13 -4 16 -6 4 -20 8 -35 8 -30 1 -36 11 -31 51 4 33 7 40 18 47 8
5 17 20 18 30 1 6 -2 18 -9 44 -6 20 -11 37 -11 39 0 2 -2 8 -4 15 -2 7 -4 13
-4 14 -2 9 -33 112 -38 127 -8 21 -29 33 -50 26 -3 -1 -15 -5 -26 -9 -11 -4
-23 -8 -26 -9 -3 -1 -12 -4 -19 -6 -21 -8 -24 0 -12 32 17 45 22 64 21 73 -1
10 -7 19 -15 25 -20 15 -20 16 -21 32 0 8 1 20 1 27 1 10 -1 15 -8 33 -9 23
-10 28 -4 34 8 8 22 3 31 -13 11 -16 19 -23 28 -23 23 0 38 16 38 42 0 14 -2
19 -16 46 -9 19 -15 26 -27 31 -8 4 -134 30 -164 34 -20 3 -31 -5 -44 -33 -3
-5 -7 -11 -10 -14 -3 -3 -7 -8 -9 -11 -2 -3 -5 -7 -6 -8 -1 -1 -4 -5 -6 -9 -6
-10 -8 -12 -13 -20 -10 -13 -17 -32 -23 -60 0 -3 -4 -16 -7 -30 -3 -14 -7 -26
-7 -28 -14 -56 -63 -220 -87 -288 -5 -13 -8 -24 -9 -25 0 -2 -1 -4 -17 -47 -6
-15 -11 -28 -11 -29 0 -1 -1 -4 -3 -7 -1 -3 -6 -17 -12 -31 -6 -14 -19 -43
-28 -63 -23 -45 -22 -43 -19 -79 2 -25 0 -27 -26 -31 -23 -3 -37 -8 -43 -15
-5 -5 -6 -7 -6 -19 0 -13 0 -14 6 -19 4 -3 7 -5 9 -5 1 0 5 -3 10 -6 9 -8 9
-12 2 -33 -7 -21 -7 -32 0 -50 6 -16 24 -70 29 -88 11 -39 26 -45 70 -30 23 7
57 17 71 20 66 14 77 18 92 35 15 18 26 19 56 5 15 -7 45 -5 101 7 5 1 13 2
19 3 5 0 10 1 11 2 0 0 6 1 13 2 6 1 12 2 13 2 1 0 5 1 9 2 4 0 11 1 15 2 6 1
8 0 13 -4 5 -4 6 -7 10 -36 9 -58 12 -66 31 -72 14 -4 15 -4 33 3 9 4 27 10
41 15 14 5 27 10 30 12 3 1 6 2 7 2 1 0 7 2 13 5 6 2 23 9 39 14 15 6 29 11
30 12 1 1 4 -1 7 -4 l6 -6 0 -46 c0 -37 1 -47 3 -53 4 -9 14 -21 18 -21 2 0 3
-1 3 -2 0 -2 2 -3 113 -3 119 -1 120 -1 133 12 9 9 12 22 12 44 -1 17 -1 20 3
23 3 3 4 7 4 21 1 10 1 20 2 22 0 3 -1 5 -3 6 -4 1 -4 3 -3 11 1 10 10 38 14
46 5 11 22 10 26 0 3 -9 -12 -53 -20 -58 -3 -1 -3 -2 -1 -6 1 -2 1 -4 0 -4 -2
0 3 -14 7 -17 3 -2 33 1 37 3 8 4 18 2 42 -10 11 -5 12 -5 48 -5 42 0 47 1 61
17 17 20 27 20 44 3 5 -6 14 -13 19 -15 l9 -5 139 0 c137 0 150 0 150 3 0 1 1
2 3 2 4 0 14 12 18 21 2 6 3 17 3 68 0 60 0 65 -7 81 -8 18 -9 25 -5 38 3 7 5
14 6 15 5 6 7 23 4 31 -3 10 -15 24 -19 24 -2 0 -3 1 -3 2 0 3 -11 3 -87 3
l-76 0 -6 6 -6 6 0 51 0 51 6 6 6 6 64 0 c64 0 75 1 75 3 0 1 1 2 3 2 4 0 14
12 18 21 3 6 3 21 3 107 0 110 0 110 -13 123 -13 13 -18 13 -76 13 -57 -1 -59
-2 -74 -19 -4 -4 -10 -10 -13 -11 -17 -11 -32 4 -23 22 4 9 7 31 6 47 -2 16 1
26 11 42 4 7 4 9 3 19 -1 6 -2 12 -3 13 -3 3 -8 21 -8 27 0 3 2 7 5 10 8 8 20
4 34 -11 17 -20 44 -24 85 -14 44 10 53 14 61 27 4 7 4 10 5 105 0 86 0 99 -3
106 -4 9 -14 21 -18 21 -2 0 -3 1 -3 2 0 2 -11 3 -59 3 -37 -1 -50 -2 -59 -4
-12 -4 -14 -5 -31 -23 -9 -9 -13 -10 -18 -3 -3 5 -3 6 0 15 2 5 5 11 7 14 9
11 10 21 10 67 l-1 44 6 6 6 6 70 0 c70 0 81 1 81 3 0 1 1 2 3 2 4 0 14 12 18
21 4 10 4 113 0 133 -4 17 -4 35 0 52 4 17 4 32 0 41 -4 9 -14 21 -18 21 -2 0
-3 1 -3 2 0 2 -1 2 -113 4 l-107 1 -4 5 c-4 5 -4 5 -1 6 4 0 10 2 46 15 30 11
39 16 46 25 4 6 8 18 7 26 0 6 -10 29 -16 35 -3 4 -8 11 -13 16 -7 8 -14 12
-23 12 -4 0 -4 7 0 10 4 3 10 15 10 22 1 11 -2 22 -15 51 -20 44 -30 63 -35
68 -1 1 -3 4 -5 9 -8 14 -23 28 -35 31 -13 3 -11 3 -62 -12 -104 -32 -102 -31
-112 -56 -3 -9 -6 -18 -6 -21 0 -5 -7 -13 -12 -13 -5 0 -20 -11 -25 -16 -9
-12 -7 -21 14 -72 10 -26 24 -65 32 -87 7 -22 14 -41 15 -42 1 -1 0 -4 -3 -7
l-5 -5 -42 -1 c-53 -1 -53 -2 -52 -23 0 -13 0 -15 -3 -16 -3 0 -3 -1 1 -1 3 0
8 -3 12 -6 12 -9 37 -19 49 -18 6 1 35 -9 54 -17 14 -6 17 -11 17 -26 0 -11 0
-12 -8 -19 -5 -4 -13 -12 -19 -17 l-11 -11 0 -15 c0 -14 -1 -17 -5 -20 -6 -6
-13 -9 -22 -9 -4 0 -8 -2 -11 -5 -10 -10 -28 -17 -49 -19 l-19 -1 -6 7 c-6 6
-6 7 -6 18 1 12 4 20 8 20 7 0 35 14 42 20 13 13 14 17 15 32 0 22 -6 29 -35
37 -10 3 -12 3 -26 -1 -26 -8 -31 -14 -31 -42 1 -14 -3 -22 -9 -22 -6 0 -10 9
-10 28 0 10 -1 23 -1 28 -1 10 1 13 20 30 4 4 12 12 17 18 6 7 10 10 14 10 3
0 4 1 1 1 -3 1 -3 3 -3 16 1 15 1 15 -5 18 -9 6 -44 7 -63 2 -17 -4 -33 -4
-37 -1 -3 3 -19 4 -19 2 0 -2 -1 -2 -3 -1 -2 0 -3 0 -3 -1 0 -1 -1 -2 -2 -1
-1 1 -6 -4 -12 -11 -14 -16 -28 -20 -48 -14 -20 5 -22 30 -3 39 8 5 32 5 40 1
5 -3 16 -5 25 -4 5 0 17 12 22 21 5 11 13 14 32 14 8 0 17 1 20 2 3 1 6 1 7 1
6 1 14 15 23 39 6 14 12 29 14 34 3 8 3 29 1 45 -3 16 -2 19 15 36 30 29 41
67 24 84 -6 6 -31 11 -34 6 -1 -1 -5 -2 -9 -3 -2 0 -2 -1 -1 -4 2 -2 2 -3 0
-2 -3 2 -2 -11 1 -17 3 -5 3 -6 0 -11 -5 -6 -9 -6 -14 0 -3 5 -3 5 0 10 2 4 5
7 7 9 2 3 2 31 0 29 -1 -1 -2 1 -3 3 -1 5 4 3 -91 29 -76 21 -77 21 -88 19
-19 -4 -26 -14 -37 -49 -5 -17 -12 -37 -15 -45 -2 -8 -5 -16 -5 -17 -1 -1 -4
-10 -8 -21 -8 -22 -8 -24 -1 -48 7 -23 6 -25 -14 -35 -20 -10 -22 -12 -43 -60
-38 -84 -45 -93 -71 -86 -5 1 -11 2 -14 1 -2 -1 -7 -1 -10 -1 -17 4 -23 11
-23 28 0 9 5 23 9 23 2 0 17 15 20 19 1 3 2 10 2 17 l0 12 -15 7 c-14 7 -16 7
-30 7 -20 -2 -35 -12 -44 -28 -5 -9 -13 -14 -21 -14 -8 0 -16 5 -21 14 -4 7
-13 16 -22 22 l-8 5 -82 1 -82 0 -5 6 -5 5 9 96 c11 107 11 111 0 124 -12 14
-14 14 -97 21 -87 7 -79 7 -93 3z m1165 -94 c2 -2 3 -8 3 -14 0 -13 -6 -19
-20 -19 -14 0 -20 6 -20 20 0 12 4 18 15 20 10 2 18 -1 22 -7z m-350 -62 c5
-3 14 -8 19 -10 5 -2 14 -6 19 -8 13 -4 17 -8 18 -17 2 -9 2 -9 0 -18 -2 -12
-9 -16 -25 -16 l-13 0 -16 17 c-17 17 -24 23 -27 23 -3 0 -8 12 -8 18 0 16 14
20 33 11z m456 -58 c0 1 1 1 1 -1 0 -1 2 -2 4 -1 2 0 5 0 6 -1 2 -1 2 -2 0 -2
-1 0 -6 -2 -12 -5 l-10 -5 -4 5 -4 4 4 4 c4 4 6 4 9 3 3 -1 5 -1 6 -1z m-476
-47 c10 -9 3 -26 -10 -26 -8 0 -15 7 -15 15 0 13 16 20 25 11z m337 -3 c5 -5
6 -16 2 -27 -5 -17 -2 -25 18 -38 23 -16 27 -23 20 -36 -5 -8 -16 -15 -26 -14
-13 0 -14 0 -20 6 -5 5 -6 7 -6 17 0 7 1 13 2 14 3 3 6 25 3 24 -1 -1 -1 0 -1
1 1 2 -4 9 -12 16 -14 13 -14 14 -14 23 0 7 1 11 4 14 7 8 23 8 30 0z m-445
-13 c7 -6 7 -19 1 -25 -6 -7 -19 -7 -25 -1 -7 6 -7 19 -1 25 6 7 19 7 25 1z
m-615 -13 c5 -5 6 -21 2 -26 -2 -2 -4 -5 -5 -7 -1 -2 -4 -6 -6 -8 -2 -3 -3 -7
-4 -10 0 -2 -2 -5 -3 -7 -1 -2 -2 -8 -3 -13 -2 -14 -13 -20 -21 -12 -5 5 -5 8
-1 17 4 13 8 29 7 39 0 20 0 23 4 27 7 8 23 8 30 0z m-264 -43 c13 -7 33 -8
45 -2 18 8 38 5 44 -7 8 -14 4 -29 -12 -50 -4 -5 -10 -15 -14 -23 -9 -15 -16
-21 -30 -21 -13 -1 -22 5 -29 17 -2 4 -6 11 -8 15 -3 5 -9 12 -14 16 -24 21
-24 21 -24 34 0 8 1 14 3 17 7 10 24 12 39 4z m485 -4 c12 -12 -2 -36 -17 -31
-2 1 -4 2 -4 4 0 1 -1 4 -3 5 -5 4 -4 16 1 21 6 6 17 7 23 1z m82 -43 c16 -10
29 -32 30 -49 0 -18 -6 -24 -22 -27 -12 -1 -31 -9 -45 -19 -16 -11 -29 -12
-38 -3 -3 3 -6 6 -6 7 0 1 -2 6 -5 12 -3 8 -4 11 -3 17 1 5 2 7 2 6 0 -1 2 0
6 3 7 5 17 8 19 6 3 -2 13 15 19 33 2 6 5 12 7 13 7 6 27 7 36 1z m-106 -25
c1 -2 3 -4 4 -4 2 0 3 -1 3 -3 0 -1 2 -4 4 -6 3 -2 4 -4 2 -8 -1 -3 -1 -5 0
-5 0 0 -3 -1 -7 -2 -12 -2 -27 7 -27 16 0 12 18 22 21 12z m-306 -6 c8 -8 8
-24 0 -32 -10 -10 -28 -9 -36 1 -5 8 -5 26 2 32 8 8 25 7 34 -1z m594 2 c11
-4 18 -30 9 -40 -7 -9 -27 -9 -34 0 -6 7 -5 24 1 32 8 9 15 12 24 8z m-465
-74 c6 -5 9 -16 6 -23 -3 -8 -8 -35 -9 -47 -2 -14 -7 -20 -18 -20 -5 0 -10 2
-13 4 l-5 4 0 38 0 38 6 6 c9 9 24 10 33 0z m1106 -2 c8 -6 15 -24 15 -42 0
-16 -3 -24 -11 -28 -7 -4 -22 -3 -29 1 -3 2 -7 3 -8 3 -1 0 -4 3 -6 6 -5 8 -4
47 2 55 7 10 26 13 37 5z m163 -41 c12 -12 3 -31 -13 -31 -11 0 -18 7 -18 18
0 11 7 18 18 18 6 0 9 -1 13 -5z m-615 -8 c9 -2 14 -11 14 -24 0 -8 -1 -10 -7
-16 -4 -4 -9 -7 -10 -7 0 0 -1 -1 0 -2 2 -3 0 -2 -10 4 -12 8 -14 12 -13 25 1
12 6 18 13 20 2 0 5 1 5 1 1 0 4 -1 8 -1z m374 -13 c15 -6 17 -10 12 -27 -2
-8 -6 -16 -8 -18 -7 -8 -24 -11 -36 -6 -9 4 -26 15 -26 18 0 1 -3 5 -6 10 -14
16 -8 23 19 25 11 1 21 2 22 3 4 2 14 0 23 -5z m-471 -39 c12 -12 3 -31 -13
-31 -11 0 -18 7 -18 18 0 11 7 18 18 18 6 0 9 -1 13 -5z m-672 -20 c6 -4 6 -6
6 -20 0 -14 0 -16 -6 -20 -4 -4 -7 -5 -18 -5 -11 0 -14 1 -18 5 -6 4 -6 6 -6
20 0 14 0 16 6 20 4 4 7 5 18 5 11 0 14 -1 18 -5z m786 -16 c4 -4 7 -9 8 -11
4 -13 12 -28 20 -33 10 -8 22 -13 29 -13 10 -1 14 -8 14 -23 0 -12 -1 -14 -6
-19 -3 -3 -7 -6 -8 -6 -17 -1 -32 -9 -43 -22 -6 -6 -11 -12 -11 -13 0 -8 -19
-14 -32 -11 -11 2 -16 7 -18 18 -3 13 0 24 11 33 l10 9 1 15 0 16 -8 8 c-17
17 -14 45 6 54 4 2 8 5 9 6 1 4 10 0 18 -8z m149 -2 c21 -12 28 -13 67 -13
l34 1 6 -6 6 -6 0 -49 0 -49 -6 -6 -6 -6 -49 0 -49 0 -6 6 -6 6 1 20 c1 31 -6
44 -34 60 -10 5 -11 6 -13 18 -2 8 2 23 7 28 9 9 26 8 48 -4z m298 -112 c3 -3
4 -7 4 -14 0 -13 -6 -19 -19 -19 -13 0 -19 6 -19 19 0 7 1 11 4 14 7 8 23 8
30 0z m-706 -42 l-5 -5 -4 4 -5 5 4 4 5 5 4 -4 5 -5 -4 -4z m-242 -12 c10 -5
14 -25 8 -39 -7 -17 -43 -17 -50 -1 -5 15 -2 35 7 39 10 6 24 6 35 1z m862 3
c1 0 5 -3 8 -6 5 -5 6 -7 6 -18 0 -11 -1 -13 -6 -18 -8 -8 -12 -10 -14 -10 -1
0 -4 -2 -6 -4 -4 -4 -5 -4 -8 -1 -2 1 -3 3 -3 4 1 0 1 1 -1 1 -1 0 -2 1 -1 2
0 1 -1 4 -4 8 -10 13 -6 35 7 41 5 2 8 2 22 1z m-283 -34 c9 -9 6 -23 -7 -31
-14 -8 -19 -12 -21 -17 -3 -6 -17 -16 -21 -16 -2 0 -5 2 -7 5 -3 5 -3 6 0 12
2 4 7 10 10 13 4 3 9 10 11 15 6 14 15 23 24 23 4 0 8 -2 11 -4z m265 -47 c0
-2 2 -7 5 -11 8 -10 7 -26 -1 -34 -5 -5 -7 -6 -17 -6 -16 0 -23 7 -23 22 0 14
3 18 19 28 15 8 17 8 17 1z m-210 -3 c5 -5 5 -11 0 -16 -7 -7 -19 -2 -20 8 -1
10 13 15 20 8z m-149 -61 c4 -4 5 -7 5 -15 0 -14 -6 -20 -20 -20 -14 0 -20 6
-20 20 0 14 6 20 20 20 8 0 11 -1 15 -5z m-460 -10 c6 -4 6 -6 6 -20 0 -14 0
-16 -6 -20 -4 -4 -7 -5 -18 -5 -11 0 -14 1 -18 5 -6 4 -6 6 -6 20 0 14 0 16 6
20 4 4 7 5 18 5 11 0 14 -1 18 -5z m-284 -7 c9 -9 5 -23 -10 -39 -7 -7 -12
-15 -12 -21 -3 -30 -6 -35 -17 -38 -18 -4 -28 4 -28 21 0 11 0 12 8 19 5 5 10
8 10 8 6 0 20 29 20 41 0 12 20 17 29 9z m1072 -23 c6 -6 7 -21 2 -28 -3 -5
-20 -11 -28 -11 -5 -1 -9 3 -11 8 -3 6 4 29 8 33 7 5 23 4 29 -2z m-48 -71 c0
-5 5 -16 10 -22 1 -2 4 -7 6 -12 3 -9 3 -10 0 -18 -2 -5 -5 -11 -7 -14 -6 -7
-12 -25 -13 -37 -2 -18 -7 -30 -16 -41 -15 -19 -31 -27 -45 -23 -10 2 -13 6
-13 17 -1 11 -6 29 -10 34 -6 8 -15 11 -34 13 -5 0 -14 1 -20 2 -5 1 -10 1
-10 1 0 0 -2 1 -5 2 -3 2 -6 3 -8 3 -17 3 -17 47 0 50 5 1 23 11 28 16 8 7 12
16 13 25 0 6 2 10 6 15 l6 6 46 -1 c27 0 46 1 49 2 4 2 17 -10 17 -18z m124
-16 c10 -9 3 -26 -10 -26 -8 0 -15 7 -15 15 0 13 16 20 25 11z m-987 -26 c1 0
5 -3 8 -6 5 -5 6 -7 6 -18 0 -11 -1 -13 -6 -18 -6 -6 -7 -6 -18 -6 -11 0 -12
0 -18 6 -5 5 -6 7 -6 17 0 14 3 20 12 24 5 2 8 2 22 1z m551 -63 c3 -5 3 -5 0
-10 -2 -3 -5 -5 -7 -5 -2 0 -5 2 -7 5 -3 5 -3 5 0 10 2 3 5 5 7 5 2 0 5 -2 7
-5z m443 -42 l-5 -5 -4 4 -5 5 4 4 5 5 4 -4 5 -5 -4 -4z m-691 -10 c5 -8 1
-16 -8 -16 -9 0 -13 8 -8 16 2 3 5 5 8 5 3 0 6 -2 8 -5z m-82 -36 c8 -11 -7
-22 -16 -13 -5 4 -5 8 1 14 4 6 11 5 15 -1z m762 -14 c8 -7 7 -18 -2 -30 -3
-4 -8 -12 -10 -15 -3 -7 -4 -22 0 -22 0 0 1 -1 0 -2 0 -1 3 -4 7 -8 13 -10 16
-19 15 -42 -1 -10 -1 -24 0 -30 2 -11 2 -12 -2 -16 l-4 -4 -4 4 c-2 2 -4 7 -4
10 0 3 -2 11 -5 19 -3 13 -7 19 -19 33 -1 2 -4 8 -6 14 -4 10 -4 11 -1 17 10
18 13 40 7 48 -9 12 0 29 15 29 6 0 9 -1 13 -5z m-1030 -11 c11 -10 3 -28 -11
-28 -9 0 -16 6 -16 16 0 14 17 22 27 12z m217 -8 c4 -3 4 -4 3 -16 -1 -16 -4
-20 -18 -28 -6 -3 -13 -9 -16 -12 -7 -9 -12 -30 -8 -36 1 -1 2 -4 2 -6 1 -5 6
-23 19 -76 l7 -24 -6 -6 c-6 -5 -8 -6 -37 -10 -17 -2 -42 -5 -55 -7 -21 -3
-24 -3 -30 0 -4 2 -7 4 -7 4 0 0 3 6 6 13 4 7 8 18 11 23 3 6 10 21 16 34 11
23 53 120 53 122 0 4 10 23 14 26 9 7 34 7 46 -1z m894 -22 c5 -5 5 -18 1 -27
-3 -7 -4 -7 -9 -4 -10 6 -16 14 -16 21 0 8 6 14 14 14 3 0 8 -2 10 -4z m-372
-13 c3 -3 4 -7 4 -14 0 -11 1 -11 -17 -24 -11 -8 -18 -15 -27 -28 -20 -31 -20
-30 -17 -80 1 -34 -4 -54 -17 -56 -2 0 -5 -2 -7 -3 -3 -1 -7 0 -13 2 -12 4
-13 5 -18 15 -7 13 -16 23 -22 24 -3 0 -7 2 -10 3 -2 1 -4 1 -5 1 0 -1 -4 -2
-7 -2 -12 -1 -18 11 -10 19 5 4 7 5 14 1 4 -2 10 -3 20 -2 18 1 22 4 35 30 l9
17 -1 24 c-1 30 -1 31 21 42 15 8 19 11 35 28 10 11 24 12 33 3z m393 -42 c8
-9 8 -12 4 -19 -10 -13 -24 5 -16 20 4 8 4 8 12 -1z m-1091 -11 c5 -5 6 -7 6
-17 0 -26 -11 -45 -26 -45 -10 0 -16 6 -19 21 -5 18 -3 34 5 41 8 9 26 9 34 0z
m927 -30 c10 -3 14 -13 13 -29 -2 -18 -8 -25 -28 -26 -15 -1 -28 -5 -34 -10
-2 -3 -5 -5 -6 -5 -4 0 -6 -19 -6 -45 l1 -28 -6 -6 -6 -6 -49 0 -49 0 -6 6 -6
6 0 51 0 51 6 6 6 6 48 0 c55 0 58 1 76 17 16 15 30 18 46 12z m-674 -44 c4
-6 4 -29 -1 -35 -3 -4 -4 -4 -13 -3 -6 1 -11 2 -13 2 -1 0 -4 2 -7 5 -6 6 -7
24 -1 31 7 9 27 9 35 0z m50 -57 c15 -2 22 -13 20 -31 -3 -17 -16 -28 -32 -27
-21 1 -30 13 -28 39 1 10 3 13 7 17 6 5 10 5 33 2z m-462 -20 c18 -6 44 -21
53 -29 5 -5 9 -9 9 -8 2 1 5 0 4 -2 -2 -3 24 -2 27 1 2 3 3 3 7 -1 l5 -5 -4
-4 c-4 -5 -5 -5 -8 -2 -2 2 -10 4 -20 5 -14 1 -17 1 -20 -2 -3 -2 -5 -4 -6 -4
-1 0 -4 -1 -5 -3 -7 -7 -27 -3 -35 8 -1 2 -7 8 -12 14 -5 5 -11 13 -13 17 -3
7 -3 8 0 13 5 6 6 6 18 2z m762 -40 c1 -2 4 -3 6 -3 6 0 11 -10 11 -22 0 -11
-1 -13 -6 -18 -6 -6 -7 -6 -18 -6 -11 0 -12 0 -18 6 -5 5 -6 7 -6 18 0 14 4
20 17 25 10 4 10 4 14 0z m116 -69 c5 -6 6 -11 5 -22 -1 -15 -24 -18 -36 -5
-6 6 -6 22 0 28 8 8 23 8 31 -1z m482 -36 c11 -10 3 -28 -11 -28 -9 0 -16 6
-16 16 0 14 17 22 27 12z m-955 -6 c5 -5 5 -11 0 -16 -10 -10 -27 5 -16 16 4
4 12 4 16 0z m818 -4 c1 0 5 -3 8 -6 5 -5 6 -7 6 -18 0 -11 -1 -13 -6 -18 -6
-6 -7 -6 -18 -6 -11 0 -12 0 -18 6 -5 5 -6 7 -6 17 0 14 3 20 12 24 5 2 8 2
22 1z m-924 -14 c5 -5 5 -13 1 -20 -4 -5 -15 -6 -21 0 -9 9 -2 24 10 24 3 0 8
-2 10 -4z m200 -9 l-5 -5 -4 4 -5 5 4 4 5 5 4 -4 5 -5 -4 -4z m289 -135 c7 -6
7 -19 1 -25 -6 -7 -19 -7 -25 -1 -7 6 -7 19 -1 25 6 7 19 7 25 1z"/>
</g>
</svg>
