<?xml version="1.0" standalone="no"?>
<!DOCTYPE svg PUBLIC "-//W3C//DTD SVG 20010904//EN"
 "http://www.w3.org/TR/2001/REC-SVG-20010904/DTD/svg10.dtd">
<svg version="1.0" xmlns="http://www.w3.org/2000/svg"
 width="1100.000000pt" height="2850.000000pt" viewBox="0 0 1100.000000 2850.000000"
 preserveAspectRatio="xMidYMid meet">
<metadata>
Created by potrace 1.15, written by Peter Selinger 2001-2017
</metadata>
<g transform="translate(0.000000,2850.000000) scale(0.500000,-0.500000)"
fill="#000000" stroke="none">
<path d="M1062 3812 c-3 -1 -6 -1 -7 0 0 0 -1 0 -1 -2 0 -1 -1 -2 -3 -2 -4 0
-14 -12 -18 -21 -3 -7 -3 -18 -3 -81 l1 -73 -6 -6 -6 -6 -58 0 c-59 0 -69 -1
-69 -3 0 -1 -1 -2 -3 -2 -4 0 -14 -12 -18 -21 -4 -9 -4 -61 -1 -79 5 -28 6
-45 2 -52 -7 -12 -44 -11 -49 1 -4 11 -5 18 -2 32 6 25 1 39 -20 55 -2 2 -22
18 -44 35 l-40 32 -18 4 c-10 2 -19 3 -20 3 -2 1 -3 2 -3 3 0 2 -1 3 -2 3 -1
0 -6 15 -7 23 0 3 -3 7 -6 10 -5 5 -5 7 -5 26 0 29 -2 32 -24 46 -6 4 -11 8
-12 9 -1 1 -5 3 -9 6 -4 3 -8 5 -9 6 -3 4 -38 26 -44 28 -8 2 -26 3 -37 0 -11
-3 -24 0 -31 6 -9 8 -14 10 -25 10 -11 -1 -21 -3 -21 -6 0 -1 -15 -21 -28 -38
-20 -26 -30 -38 -37 -46 -4 -5 -12 -14 -16 -19 -5 -6 -12 -13 -15 -17 -11 -12
-13 -19 -13 -44 0 -29 -1 -30 -27 -30 -28 0 -35 -3 -51 -19 -7 -6 -16 -15 -21
-20 -15 -14 -18 -27 -12 -50 5 -22 5 -42 -2 -47 -6 -5 -9 -4 -53 12 -17 6 -29
4 -44 -9 -3 -3 -6 -5 -7 -5 0 0 -5 -3 -9 -7 -4 -4 -12 -10 -16 -12 -22 -15
-31 -23 -33 -29 -3 -11 -2 -25 1 -33 4 -11 4 -16 -2 -22 -3 -3 -6 -5 -7 -5 0
0 -4 -3 -8 -6 -4 -3 -8 -6 -8 -6 -1 0 -2 -2 -2 -4 0 -2 -1 -4 -2 -4 -3 0 -5
-19 -2 -23 1 -2 6 -17 12 -33 6 -16 13 -37 17 -47 4 -10 9 -25 11 -33 7 -25
24 -74 28 -82 6 -10 14 -14 28 -15 10 -1 12 -1 15 3 4 6 4 6 11 -3 3 -3 3 -26
4 -166 l1 -162 6 -11 c3 -8 8 -14 15 -19 12 -10 17 -17 17 -29 0 -12 -5 -19
-17 -29 -15 -11 -21 -25 -21 -47 0 -21 3 -28 20 -47 18 -18 18 -24 0 -42 -20
-22 -20 -22 -21 -76 0 -52 0 -57 8 -65 9 -9 19 -13 37 -12 12 0 13 0 16 -6 4
-8 3 -20 -3 -29 -5 -9 -8 -19 -12 -38 -4 -18 -6 -21 -22 -29 -29 -15 -41 -36
-53 -90 -3 -17 -9 -24 -18 -24 -8 0 -25 -10 -29 -16 -7 -13 -4 -33 8 -43 3 -4
7 -5 17 -5 14 0 18 1 28 9 4 4 8 5 18 5 18 0 24 -5 24 -22 1 -17 -1 -21 -21
-33 -19 -12 -25 -18 -25 -30 -1 -10 3 -20 13 -30 11 -12 12 -14 13 -42 1 -37
8 -62 21 -72 7 -4 28 -7 32 -3 2 1 7 5 12 8 23 17 25 57 6 97 -14 28 -5 50 21
50 14 0 22 -5 26 -15 5 -9 5 -12 13 -37 6 -19 11 -28 20 -33 7 -5 27 -7 31 -4
1 1 18 8 37 16 19 8 39 16 43 18 4 2 39 16 78 31 81 32 83 33 89 56 2 8 4 17
4 20 0 9 5 14 15 15 9 0 15 -3 27 -13 3 -4 7 -7 8 -7 2 0 7 -4 13 -8 17 -13
33 -19 55 -21 21 -2 24 -11 15 -43 -6 -21 -6 -27 3 -35 14 -11 18 -10 63 13
38 19 51 23 54 18 1 -1 3 -2 5 -2 3 0 15 -11 37 -37 10 -11 16 -16 27 -22 18
-9 21 -13 23 -25 5 -37 18 -52 41 -52 14 -1 15 0 40 22 39 34 48 45 59 67 9
18 20 31 26 31 2 0 3 1 3 2 0 1 1 2 3 2 1 0 6 4 11 8 l8 8 0 12 c-1 15 -5 19
-21 26 -14 6 -16 9 -18 22 -1 6 0 10 3 15 6 12 11 24 19 46 7 19 13 30 20 42
3 4 3 14 0 27 -1 2 -6 10 -12 16 -16 17 -19 34 -7 50 7 10 10 27 7 47 -1 8 -1
11 3 15 8 9 22 2 22 -12 -1 -9 2 -20 5 -24 1 -1 2 -3 2 -3 -2 -3 0 -6 11 -17
11 -10 12 -12 12 -19 0 -11 -5 -23 -13 -28 -11 -8 -12 -30 -3 -46 3 -5 6 -12
6 -15 0 -7 -6 -26 -14 -43 -7 -14 -7 -26 -1 -33 6 -7 22 -5 31 3 12 9 35 49
62 108 2 4 6 13 9 19 15 33 34 87 37 104 1 8 4 16 7 20 3 4 5 8 5 9 0 2 3 12
6 23 3 12 6 23 7 25 0 2 2 9 4 15 2 8 2 13 1 17 -1 3 -2 8 -3 11 -1 3 -6 11
-12 18 -12 14 -14 20 -7 28 5 6 15 5 36 -5 14 -8 16 -8 41 -9 29 -1 37 1 58
12 20 10 31 12 38 9 3 -2 6 -4 7 -5 3 -4 25 -9 47 -10 13 -1 29 -3 35 -4 16
-3 21 -3 41 5 25 10 33 11 39 4 5 -5 5 -7 5 -25 0 -20 -3 -30 -10 -36 -4 -3
-17 -10 -38 -19 -22 -9 -31 -29 -38 -81 -1 -7 -10 -55 -12 -63 -1 -5 -8 -26
-9 -31 -4 -10 -1 -38 4 -35 1 1 2 0 2 -1 0 -1 1 -2 2 -1 1 0 2 -2 2 -6 1 -7
-4 -21 -10 -28 -5 -6 -10 -34 -9 -48 1 -14 1 -15 -4 -20 -11 -11 -31 -4 -31
11 0 3 2 12 4 18 9 26 7 39 -8 50 -15 11 -25 13 -58 11 -22 -1 -34 -1 -49 2
-65 10 -83 5 -87 -22 -2 -14 6 -29 18 -34 9 -4 28 -3 35 2 8 5 23 4 28 -2 10
-9 5 -33 -7 -33 -2 0 -10 -3 -17 -6 -13 -6 -21 -17 -21 -28 0 -5 7 -35 9 -38
0 0 1 -5 2 -9 9 -62 22 -91 43 -102 l11 -5 53 0 c124 0 180 8 232 32 20 10 29
17 34 26 4 8 8 26 8 37 0 11 8 18 22 20 6 1 12 2 12 2 1 1 4 2 6 2 13 2 24 12
31 27 12 24 25 65 32 103 5 23 13 65 14 76 1 6 2 16 3 23 7 42 13 104 11 111
-1 4 -2 7 -2 7 3 0 -8 16 -14 21 -12 12 -28 13 -58 7 -10 -2 -11 -2 -15 1 -6
5 -6 23 1 29 5 5 8 5 31 1 19 -4 34 -3 39 2 2 2 4 3 5 3 0 0 4 3 8 7 14 11 17
23 13 43 -5 25 -4 33 6 62 3 9 6 21 6 30 1 8 2 25 3 38 1 13 2 34 3 48 1 14 2
27 2 30 3 15 -12 39 -28 44 -13 3 -425 3 -434 -1 -7 -3 -15 -11 -14 -13 1 -1
0 -2 -1 -2 -2 0 -5 -18 -4 -29 0 -12 -6 -19 -18 -19 -19 0 -21 10 -13 52 1 3
2 12 2 21 1 26 5 60 7 67 1 4 3 11 3 17 2 17 11 24 25 18 11 -4 16 -7 24 -15
4 -4 11 -10 16 -12 l9 -5 112 -1 c82 0 115 0 122 2 l11 3 -1 16 c0 10 1 17 2
18 1 0 1 1 -1 1 -2 0 -8 3 -15 6 -26 14 -40 14 -61 2 -9 -6 -16 -8 -21 -8 -8
0 -22 6 -24 11 -4 9 -5 18 -3 28 1 5 2 19 2 29 -1 34 -1 34 6 41 5 5 7 6 17 5
16 0 31 5 47 14 17 11 29 12 38 2 6 -5 7 -7 7 -16 0 -14 -8 -22 -22 -23 -25
-1 -37 -16 -29 -36 3 -7 23 -13 43 -13 8 0 23 -6 26 -10 2 -3 25 -10 38 -11 6
-1 14 -3 17 -4 3 -2 6 -4 6 -4 1 0 2 -1 3 -1 2 -2 26 -2 32 0 13 3 15 8 15 26
0 20 0 20 -14 27 -9 4 -12 8 -36 48 -13 22 -6 43 16 43 12 0 19 -4 26 -13 2
-3 6 -9 9 -12 10 -11 20 -23 21 -27 1 -2 4 -9 7 -17 3 -8 6 -15 7 -16 1 -1 3
-7 4 -12 3 -13 0 -24 -8 -26 -3 -1 -6 -3 -7 -4 -8 -6 -9 -7 -13 -7 -2 0 -1 -1
1 -2 2 -1 4 -3 4 -5 1 -5 -6 -15 -11 -15 -2 0 -2 -1 -1 -2 1 0 3 -6 4 -12 1
-12 4 -17 14 -22 6 -4 10 -4 50 -3 47 1 49 1 49 3 0 1 1 2 3 2 4 0 14 12 18
21 5 12 4 109 -1 131 -5 21 -5 31 0 52 4 15 4 18 2 26 -3 9 -14 24 -19 24 -2
0 -3 1 -3 2 0 0 -4 1 -8 2 -10 0 -23 -5 -35 -15 -16 -13 -29 -15 -47 -8 -10 4
-34 4 -43 1 -12 -5 -23 -3 -39 8 -27 18 -37 19 -67 8 -15 -5 -25 -5 -40 0 -21
7 -27 8 -83 9 -58 1 -60 1 -60 3 0 1 -1 2 -3 2 -2 0 -3 1 -3 2 0 1 -2 2 -3 3
-3 0 -3 1 1 1 2 0 4 1 4 2 0 1 2 4 4 6 1 2 3 5 3 6 0 0 1 2 2 4 3 7 2 19 -1
28 -12 32 -16 44 -17 56 0 14 -1 14 21 12 9 -1 16 -1 16 0 0 1 4 3 8 5 12 6
23 5 38 -4 30 -17 25 -16 84 -17 36 0 57 0 65 2 l11 3 0 16 c0 12 1 17 3 17 1
0 0 1 -3 2 -21 9 -28 14 -28 23 0 7 5 13 18 19 20 9 30 22 30 41 0 12 2 19 8
25 5 5 25 5 46 1 13 -3 24 -3 55 -2 42 1 43 1 43 3 0 1 1 2 3 2 4 0 14 12 18
21 3 6 3 21 3 106 0 92 0 99 -4 107 -5 13 -10 17 -23 18 -10 0 -12 0 -19 -5
-19 -16 -30 -17 -44 -7 -20 14 -23 15 -50 15 -38 1 -36 -4 -36 90 0 67 0 73
-4 81 -5 13 -11 18 -24 18 -11 1 -12 1 -19 -7 -4 -5 -9 -12 -12 -16 -9 -17
-21 -19 -51 -9 -15 5 -20 6 -25 4 -4 -1 -7 -1 -8 0 0 0 -1 0 -1 -1 0 -2 -2 -3
-4 -4 -5 -1 -5 -2 -4 -16 0 -16 0 -16 7 -21 12 -8 19 -20 33 -55 10 -25 3 -42
-18 -42 -16 0 -20 6 -25 30 -6 34 -12 41 -46 55 -12 5 -16 8 -18 13 -6 11 -3
37 5 37 2 0 2 0 0 2 -2 1 -2 4 -1 7 2 14 -6 30 -15 28 -2 0 -6 -1 -10 -2 -9
-1 -16 -7 -22 -20 -4 -9 -4 -10 -4 -83 l1 -73 -6 -6 c-4 -3 -8 -6 -10 -5 -6 1
-23 -8 -29 -17 -3 -4 -6 -9 -6 -10 0 -1 -2 -4 -4 -7 -2 -3 -3 -6 -3 -6 1 -1
-2 -4 -5 -7 -9 -8 -24 -8 -32 0 -3 3 -6 6 -5 7 0 0 -1 3 -3 6 -2 3 -4 6 -4 7
0 6 -13 19 -22 23 -9 4 -13 4 -39 4 l-30 -1 -6 6 c-3 3 -6 6 -6 7 -2 11 -12
33 -25 59 -4 6 -5 11 -4 11 1 0 2 2 3 4 1 2 4 4 7 5 9 2 18 23 20 43 1 27 -7
44 -24 53 l-11 5 -96 0 c-53 0 -98 -1 -101 -2z m-582 -82 c5 -5 5 -11 0 -16
-10 -10 -27 5 -16 16 4 4 12 4 16 0z m759 -2 c4 -4 7 -8 7 -9 0 -2 1 -3 2 -3
4 0 2 -4 -3 -5 -6 -1 -44 -19 -45 -21 -3 -4 -19 -12 -27 -14 -6 -1 -11 -3 -12
-4 -1 -1 -3 -2 -5 -2 -2 0 -4 -1 -4 -2 0 -1 -3 -2 -6 -3 -9 -2 -10 -4 -11 -29
0 -12 -1 -15 -5 -19 -9 -9 -14 -12 -26 -12 -19 0 -27 8 -27 27 0 13 4 21 13
24 10 5 37 17 38 18 1 1 2 3 3 5 0 2 2 8 5 12 2 4 4 8 4 9 0 1 1 4 3 8 5 10
16 15 32 17 8 1 22 3 30 5 22 5 25 5 34 -2z m-563 -110 c4 -6 4 -9 3 -24 -2
-23 -2 -23 -19 -43 -3 -3 -6 -8 -7 -10 -2 -5 -5 -12 -8 -19 -2 -4 -3 -6 -2 -6
0 0 -1 -2 -2 -4 -9 -8 -19 -3 -33 15 -3 4 -11 11 -18 17 -19 15 -26 27 -26 46
0 17 10 23 32 19 13 -3 25 -1 40 4 14 4 28 11 29 13 2 3 7 0 11 -8z m514 0
c12 -13 -6 -29 -19 -17 -7 7 -9 14 -2 16 3 0 5 2 5 3 0 4 12 2 16 -2z m-819
-62 c3 -3 5 -9 7 -14 5 -16 8 -26 11 -28 2 -1 5 -6 7 -11 4 -9 4 -9 0 -16 -3
-6 -9 -13 -19 -20 -11 -8 -14 -17 -12 -45 1 -26 1 -26 -4 -31 -3 -3 -7 -5 -11
-5 -4 0 -9 -1 -13 -2 -3 -1 -9 -2 -12 -3 -7 -1 -21 -15 -26 -24 -6 -12 -19
-17 -34 -13 -10 2 -16 9 -18 21 -1 5 -4 18 -8 30 -4 11 -9 27 -10 35 -2 13 -2
15 2 21 5 7 7 7 23 1 16 -5 19 -8 25 -24 6 -19 7 -20 24 -20 15 0 16 0 21 6 7
8 11 24 9 43 -2 21 -1 26 2 28 2 1 3 3 3 4 0 0 2 3 5 6 2 3 5 7 5 10 2 8 2 31
0 32 -4 2 -2 13 2 18 6 6 16 7 21 1z m746 -14 c7 -6 7 -19 1 -25 -6 -7 -19 -7
-25 -1 -7 6 -7 19 -1 25 6 7 19 7 25 1z m-630 -5 c6 -6 7 -20 1 -30 -3 -6 -4
-11 -3 -21 0 -15 4 -22 15 -29 4 -2 8 -4 9 -6 1 -1 11 -9 21 -18 21 -18 22
-21 11 -31 -8 -6 -8 -6 -8 -20 l0 -15 -1 12 -1 12 -1 -12 c0 -12 2 -15 10 -18
13 -4 22 -10 24 -15 10 -25 -3 -46 -27 -45 -12 1 -18 4 -28 16 -9 11 -18 16
-33 18 -10 2 -27 -7 -44 -22 -8 -7 -18 -15 -23 -19 -13 -10 -17 -16 -19 -28
-1 -13 4 -24 19 -40 17 -17 21 -28 17 -42 -4 -14 -11 -20 -27 -21 -15 -1 -25
7 -36 29 -4 8 -15 18 -18 18 -2 0 -3 1 -3 2 0 2 -9 3 -31 3 -12 0 -21 1 -21 2
0 0 -1 1 -3 1 -1 0 -5 2 -8 5 -3 3 -4 5 -3 5 1 0 20 18 42 40 30 31 41 42 46
52 11 21 18 30 31 37 13 8 43 37 49 48 3 6 3 9 2 50 -1 4 1 12 3 17 3 7 4 14
4 36 0 25 0 27 5 30 7 6 23 5 29 -1z m971 -12 c4 -4 4 -4 0 -8 l-5 -5 -4 4
c-5 4 -5 5 -2 8 4 5 7 5 11 1z m429 -13 c7 -6 7 -19 1 -25 -6 -7 -19 -7 -25
-1 -7 6 -7 19 -1 25 6 7 19 7 25 1z m-677 -12 c18 -10 34 -25 36 -35 2 -11 0
-24 -5 -29 -8 -9 -37 -11 -49 -4 -4 2 -8 5 -10 5 -5 2 -19 22 -21 31 -9 33 16
49 49 32z m321 -3 c7 -10 -6 -22 -15 -14 -5 4 -5 9 -1 15 4 6 12 5 16 -1z
m247 -37 c5 -5 5 -11 0 -16 -10 -10 -27 5 -16 16 4 4 12 4 16 0z m-286 -13 c4
-5 4 -7 4 -19 -2 -21 -9 -28 -30 -28 -17 0 -23 5 -23 22 -2 22 7 30 31 30 12
0 14 -1 18 -5z m-555 -10 c10 -8 9 -37 -1 -41 -3 -1 -4 -2 -2 -2 1 0 2 -4 2
-13 -1 -22 6 -26 52 -25 l31 1 6 -6 6 -6 0 -28 c-1 -15 0 -29 1 -31 8 -16 6
-15 21 -16 8 0 15 -1 15 -3 1 -1 2 0 2 3 0 5 17 40 20 42 1 0 5 3 9 6 7 6 17
8 17 4 0 -1 1 -2 2 -2 3 1 7 0 5 -1 0 -1 0 -3 1 -5 1 -2 0 -5 -4 -9 -3 -3 -10
-14 -16 -24 -10 -19 -20 -31 -26 -31 -2 0 -2 -3 -2 -13 1 -13 5 -26 8 -24 1 1
2 0 2 -1 0 -3 34 -2 57 2 21 3 54 -1 67 -10 4 -3 8 -5 7 -6 0 0 1 -4 2 -8 4
-8 15 -37 16 -42 1 -2 4 -11 7 -20 l5 -17 -5 -5 -5 -6 -169 -1 c-93 0 -170 -1
-171 -1 -2 0 -3 -1 -3 -2 0 -1 -1 -2 -3 -2 -4 0 -14 -12 -18 -21 -5 -11 -5
-201 0 -212 4 -9 14 -21 18 -21 2 0 3 -1 3 -2 0 -1 8 -3 18 -2 10 0 34 18 34
25 0 4 14 13 20 13 6 0 20 -9 20 -13 0 -3 12 -16 21 -21 8 -5 10 -5 49 -6 39
-1 41 -1 49 -6 5 -3 9 -6 9 -6 0 -1 3 -6 6 -10 13 -21 11 -33 -5 -49 -7 -7
-13 -16 -17 -27 -4 -13 -4 -19 1 -29 5 -11 11 -13 41 -14 12 -1 23 -1 26 -1
13 0 27 5 35 14 8 9 16 13 28 13 18 0 23 -5 29 -27 2 -6 4 -10 4 -10 1 0 2 -1
2 -3 0 -4 9 -11 17 -12 4 -1 13 0 20 2 8 2 14 2 20 1 4 -1 7 -1 7 0 0 0 2 -1
5 -4 8 -8 10 -26 4 -41 -4 -8 -25 -13 -39 -7 -4 2 -8 6 -12 13 -8 14 -11 18
-18 21 -6 2 -23 1 -27 -2 -2 -1 -14 -5 -26 -7 -12 -2 -19 -5 -30 -12 -31 -20
-47 -18 -57 6 l-4 11 -19 0 -19 0 -1 -9 c-1 -5 -2 -11 -2 -14 -5 -22 -9 -51
-8 -57 3 -16 14 -26 37 -31 17 -4 21 -9 23 -24 2 -23 8 -52 10 -55 4 -4 2 -9
-4 -14 -5 -5 -3 -5 -12 2 -4 3 -9 6 -10 6 -3 0 -9 7 -13 16 -7 14 -13 19 -25
18 -11 0 -20 -2 -24 -6 -2 -1 -2 -6 -1 -14 1 -11 3 -14 9 -19 4 -4 8 -7 8 -7
2 0 11 -11 11 -13 0 -1 -2 -4 -4 -6 -2 -3 -4 -5 -4 -4 0 2 -35 -12 -41 -17 -3
-3 -8 -10 -12 -17 -10 -18 -9 -28 4 -51 9 -15 10 -29 1 -38 -4 -4 -7 -6 -19
-7 -28 -2 -47 -13 -47 -25 0 -13 4 -22 15 -33 12 -11 13 -17 7 -22 -4 -5 -5
-5 -31 -6 -17 0 -24 -1 -31 -4 -21 -10 -32 -14 -41 -14 -9 -1 -31 -10 -37 -16
-1 -1 -3 -4 -3 -6 0 -2 -2 -5 -4 -6 -3 -1 -6 -3 -8 -5 -3 -2 -4 -2 -8 2 l-5 5
4 8 c2 4 6 10 10 13 4 3 6 6 6 9 0 5 3 14 12 31 1 4 4 7 4 8 4 3 9 18 10 27 0
9 -1 13 -15 41 l-16 32 -17 0 -17 0 -4 -8 c-8 -17 -15 -22 -30 -23 -9 -1 -21
4 -25 9 -1 2 -4 4 -5 4 -2 0 -3 1 -3 2 0 1 -1 2 -2 2 -2 -1 -3 0 -2 2 0 1 0 4
1 6 0 1 3 8 5 13 9 17 16 21 38 20 9 0 17 -1 18 -2 1 -1 2 0 2 0 0 1 2 4 6 5
3 2 4 4 2 4 -3 0 -3 0 0 2 6 4 2 24 -7 41 -4 7 -11 21 -17 32 -6 11 -14 26
-18 34 -5 8 -9 16 -11 20 -1 3 -3 5 -3 5 -1 0 0 4 2 9 4 8 14 17 31 27 9 5 25
6 33 2 6 -3 23 -3 31 1 12 6 13 12 13 60 0 29 -1 46 -2 52 -3 8 -18 25 -22 25
-4 0 -22 14 -38 30 -15 15 -18 18 -20 27 -4 16 2 31 14 36 8 3 21 3 25 0 4 -3
5 -2 23 3 8 3 15 9 18 17 2 6 3 123 0 123 -1 0 -1 5 -1 12 0 7 0 12 1 12 1 0
2 57 2 126 0 111 0 126 -3 133 -4 9 -14 21 -18 21 -2 0 -3 1 -3 2 0 2 -11 3
-66 3 l-55 0 -9 -6 c-14 -9 -23 -28 -21 -44 1 -14 1 -17 6 -29 6 -15 6 -22 1
-27 -7 -7 -18 -8 -24 -2 -5 4 -5 5 -3 12 2 10 -1 23 -10 43 -8 17 -8 21 -1 45
2 8 4 17 4 21 0 6 -15 53 -26 80 -2 6 -6 17 -8 25 -3 8 -6 17 -8 21 -2 4 -4 8
-4 9 0 1 -1 5 -2 8 -1 3 -1 7 0 9 1 2 2 6 3 8 0 3 3 9 7 14 3 5 6 10 6 11 0 2
3 6 6 9 5 5 7 6 17 6 16 0 23 -7 23 -22 0 -14 -3 -18 -17 -26 -6 -3 -11 -7
-11 -9 0 -2 -1 -3 -2 -3 -1 0 -2 -6 -2 -15 0 -8 1 -15 2 -15 0 0 8 -6 16 -14
8 -8 25 -24 38 -35 13 -11 28 -26 34 -33 l11 -12 14 0 c17 0 21 2 33 18 5 6
10 12 12 14 1 1 5 6 8 10 3 4 6 8 7 9 1 1 8 9 14 17 7 8 13 16 15 18 1 1 5 6
8 10 8 11 19 21 27 25 4 2 7 4 7 5 1 0 4 3 7 6 3 2 5 4 4 4 -1 0 -1 1 1 2 1 1
3 4 3 6 1 3 2 6 4 6 1 1 1 2 -1 2 -5 0 -7 8 -5 17 1 3 2 9 2 13 2 12 9 16 25
16 12 0 15 -1 19 -5z m-200 -1 c7 -6 7 -19 1 -25 -6 -7 -19 -7 -25 -1 -7 6 -7
19 -1 25 6 7 19 7 25 1z m954 0 c11 -10 3 -28 -11 -28 -9 0 -16 6 -16 16 0 14
17 22 27 12z m-594 -52 c5 -7 6 -18 2 -18 -1 0 -4 -1 -5 -3 -1 -2 -3 -3 -4 -2
-1 1 -2 0 -3 -1 -1 -2 -2 -1 -4 0 -2 1 -3 2 -3 1 0 -1 -2 0 -5 3 -10 9 -4 26
10 26 5 0 8 -2 12 -6z m92 -16 c15 -6 24 -8 43 -9 6 0 15 -2 19 -4 10 -5 43
-6 50 -1 4 1 27 2 97 2 l92 0 7 -6 c4 -3 6 -6 6 -6 0 -1 -1 -25 -1 -54 -1 -34
-2 -53 -3 -53 -1 1 -1 0 0 -2 1 -3 0 -3 -3 1 -2 3 -4 4 -3 3 1 -2 1 -3 0 -3
-1 0 -3 4 -5 9 -1 4 -6 15 -10 24 -4 9 -10 22 -13 29 -9 22 -18 33 -30 35 -13
3 -18 3 -26 1 -6 -2 -13 -5 -16 -7 -5 -5 -15 -8 -27 -10 -3 -1 -8 -2 -12 -3
-4 -2 -8 -3 -8 -2 -1 0 -3 -1 -4 -3 -1 -2 -3 -3 -5 -3 -3 0 -13 -12 -15 -19
-4 -12 -5 -14 -5 -23 -2 -17 -17 -24 -27 -13 -4 4 -4 6 -3 22 1 17 -2 30 -5
28 -1 -1 -2 0 -2 1 0 2 -2 3 -5 4 -17 1 -20 1 -27 -2 -10 -5 -21 -4 -37 4 -19
9 -37 11 -69 11 -9 0 -15 1 -15 1 1 1 -1 3 -4 6 -3 2 -4 4 -3 5 0 1 0 2 -2 3
-2 2 -2 2 0 2 1 0 2 1 1 3 -1 2 0 3 1 2 2 -1 2 -1 1 2 -1 2 0 3 3 3 3 0 4 1 3
1 -1 1 5 8 16 19 3 3 8 7 11 7 3 1 6 2 7 2 4 1 14 -1 28 -7z m-1036 -54 c4 -6
4 -24 -1 -30 -7 -9 -27 -9 -34 0 -5 6 -5 24 0 30 7 9 27 9 35 0z m1263 -30 c9
-9 2 -24 -10 -24 -12 0 -18 12 -11 23 4 6 15 7 21 1z m-21 -107 c5 -6 6 -8 5
-21 0 -7 -7 -16 -12 -16 -4 0 -14 9 -14 14 0 2 -1 6 -1 9 -1 16 12 24 22 14z
m-1112 -5 c10 -9 3 -26 -10 -26 -8 0 -15 7 -15 15 0 13 16 20 25 11z m327 -66
c3 -1 7 -3 10 -3 12 -2 16 -6 17 -18 2 -9 2 -10 1 -30 0 -17 -1 -19 -5 -24 -3
-3 -6 -5 -7 -5 -1 0 -7 -5 -13 -10 -8 -9 -11 -13 -14 -22 -4 -15 -12 -23 -21
-22 -9 1 -19 -2 -41 -13 -24 -10 -30 -11 -50 -1 -15 7 -30 13 -33 13 -1 0 -4
3 -7 6 -8 9 -8 19 0 28 3 3 7 6 8 6 1 -1 10 1 20 4 25 7 33 7 56 1 17 -5 21
-6 29 -4 19 4 27 19 26 50 0 11 0 21 -1 21 0 1 0 5 1 9 3 14 14 20 24 14z
m872 -20 c3 -2 5 -22 1 -24 -1 -2 -1 -2 1 -2 5 0 9 -10 9 -21 0 -19 -9 -28
-28 -28 -19 0 -28 9 -28 28 0 11 4 21 9 21 2 0 2 0 0 2 -4 2 1 13 11 19 9 6
20 8 25 5z m-1225 -62 c4 -3 10 -7 13 -10 8 -7 19 -11 39 -13 14 -1 18 -2 21
-5 10 -12 1 -23 -24 -30 -9 -2 -20 -4 -23 -4 -6 0 -27 9 -27 12 0 0 -4 4 -8 7
-18 11 -24 18 -24 30 0 16 15 22 33 13z m452 -6 c25 -13 41 -27 41 -35 0 -9
-20 -15 -54 -15 -25 -1 -33 6 -33 31 0 10 1 14 4 17 9 8 29 9 42 2z m330 -9
c3 -5 3 -6 1 -11 -4 -6 -9 -7 -15 -3 -6 5 -6 8 -2 15 4 6 12 5 16 -1z m-53
-47 c5 -4 5 -6 0 -11 -5 -6 -8 -6 -13 0 -3 5 -3 5 0 10 5 6 7 6 13 1z m420 -8
c11 -11 7 -34 -7 -41 -4 -3 -7 -6 -10 -13 -4 -12 -9 -16 -21 -16 -14 -1 -15 0
-20 6 -4 6 -4 6 -1 17 5 14 20 43 26 49 8 7 25 6 33 -2z m86 -2 c5 -6 5 -12 0
-18 -7 -8 -22 -2 -22 9 0 11 15 17 22 9z m-422 -9 c20 -9 20 -45 0 -54 -12 -4
-26 -2 -35 6 -7 5 -12 33 -6 33 0 0 1 1 1 3 0 11 25 18 40 12z m-263 -9 c8 -7
8 -25 -1 -33 -13 -13 -38 -4 -38 13 -1 18 3 24 17 26 11 2 15 0 22 -6z m-474
-24 c4 -6 4 -24 -1 -30 -7 -9 -27 -9 -34 0 -5 6 -5 24 0 30 7 9 27 9 35 0z
m327 3 c2 -2 4 -5 4 -6 0 -9 -34 -27 -52 -28 -10 0 -16 5 -16 14 0 10 7 14 29
20 28 6 31 6 35 0z m629 -52 c3 -5 3 -5 0 -10 -2 -3 -5 -5 -7 -5 -2 0 -5 2 -7
5 -3 5 -3 5 0 10 2 3 5 5 7 5 2 0 5 -2 7 -5z m-663 -27 c6 -3 8 -8 8 -20 0
-11 0 -11 -15 -25 -19 -19 -22 -24 -23 -54 -1 -23 -1 -25 -6 -29 -6 -5 -18 -4
-34 1 -21 8 -60 6 -69 -2 -3 -3 -4 -5 -3 -5 3 0 3 -26 0 -26 -2 0 0 -2 4 -3
13 -7 18 -13 18 -26 0 -7 -1 -12 -3 -15 -8 -9 -28 -9 -35 0 -5 6 -5 24 -1 29
2 1 3 4 3 7 0 2 1 4 1 5 1 0 2 4 2 8 1 10 -4 17 -13 21 -10 4 -18 16 -18 26 0
2 -2 8 -4 13 -4 8 -9 14 -28 32 -12 12 -7 35 9 35 3 0 22 0 40 -1 l35 -1 16
-9 c23 -12 35 -15 48 -11 16 4 27 16 34 39 4 12 21 18 34 11z m583 -8 c5 -7 4
-25 -2 -31 -6 -6 -22 -7 -30 -2 -9 6 -11 28 -2 35 8 7 27 5 34 -2z m-938 -102
c4 -3 36 -14 46 -15 13 -2 19 -8 19 -19 0 -6 -1 -9 -5 -13 -5 -5 -6 -5 -21 -4
-8 1 -18 2 -22 3 -4 1 -11 3 -16 4 -28 7 -33 11 -33 27 1 15 10 22 25 19 3 0
6 -1 7 -2z m469 -37 c13 -8 15 -36 3 -47 -6 -6 -33 -12 -50 -12 -13 0 -16 1
-20 5 -8 8 -5 26 6 36 24 22 45 27 61 18z m719 -35 c2 -1 6 -8 10 -16 8 -14
20 -27 33 -35 4 -3 9 -7 10 -8 5 -11 4 -30 -3 -37 -6 -6 -22 -10 -30 -8 -6 2
-15 10 -16 14 -1 6 -13 27 -18 32 -13 12 -20 18 -26 20 -4 2 -7 3 -7 4 0 1 -4
3 -8 5 -4 2 -10 6 -13 10 l-5 7 4 6 c6 6 9 7 37 9 10 1 18 2 19 2 1 1 10 -3
13 -5z m-1186 -18 c10 -9 3 -26 -10 -26 -8 0 -15 7 -15 15 0 13 16 20 25 11z
m298 -56 c10 -9 3 -26 -10 -26 -8 0 -15 7 -15 15 0 13 16 20 25 11z m1168 -1
c3 -3 3 -3 0 -6 -4 -5 -11 1 -7 6 4 4 4 4 7 0z m-1360 -11 c4 -6 4 -24 -1 -30
-7 -9 -27 -9 -34 0 -5 6 -5 24 0 30 7 9 27 9 35 0z m249 -66 c4 -4 5 -6 3 -6
-3 0 -31 -13 -70 -32 -29 -15 -32 -18 -36 -37 -3 -12 -3 -14 2 -32 3 -12 9
-29 16 -43 9 -17 11 -23 10 -28 -2 -6 -9 -14 -14 -14 -2 0 -5 -1 -7 -2 -1 -1
-12 -5 -24 -9 -12 -4 -23 -8 -25 -9 -2 -1 -10 -4 -17 -7 l-14 -5 -7 8 c-4 4
-9 9 -10 12 -2 3 -9 9 -16 14 -14 10 -19 19 -19 35 0 10 2 13 22 28 6 4 11 10
14 17 l6 11 -1 47 0 47 6 6 6 6 85 -1 85 -1 5 -5z m-336 -10 c10 -9 8 -29 -6
-46 -10 -13 -19 -17 -35 -16 -24 1 -18 47 9 64 11 7 24 6 32 -2z m1419 -52 c5
-7 18 -18 21 -17 1 1 2 -1 2 -9 1 -2 1 -4 2 -4 1 0 1 -4 2 -8 0 -5 1 -10 2
-11 0 -1 1 -4 1 -7 0 -3 -1 -8 -1 -11 0 -3 -2 -7 -5 -10 -10 -10 -35 -4 -35 8
0 6 -10 34 -16 44 -11 20 -6 36 12 35 8 -1 9 -2 15 -10z m-527 -15 c7 -5 14
-17 14 -25 0 -8 -24 -14 -33 -7 -5 3 -12 22 -11 29 1 1 3 5 6 7 5 5 11 4 24
-4z m-558 -14 l-5 -5 -4 4 -5 5 4 4 5 5 4 -4 5 -5 -4 -4z m622 -29 c12 -14 -7
-30 -19 -17 -5 5 -8 13 -7 14 12 8 21 9 26 3z m-955 -13 c12 -12 3 -31 -13
-31 -11 0 -18 7 -18 18 0 11 7 18 18 18 6 0 9 -1 13 -5z m396 -52 c1 -1 4 -3
7 -3 4 -1 8 -10 4 -10 -1 0 -2 -1 -2 -2 0 -4 -11 -12 -17 -12 -13 0 -20 16
-11 25 5 6 17 7 19 2z m-298 -25 c8 -8 12 -28 7 -43 -3 -9 -9 -13 -20 -13 -20
0 -31 14 -30 37 2 14 6 18 20 22 14 3 17 3 23 -3z m1358 -20 c11 -10 3 -28
-11 -28 -9 0 -16 6 -16 16 0 14 17 22 27 12z m-166 -58 c-4 -4 -11 -5 -14 -2
-2 1 -7 2 -13 2 -5 -1 -10 0 -10 1 0 0 3 1 7 1 4 0 11 2 15 5 l9 5 4 -5 c5 -3
5 -4 2 -7z m-1027 -12 c1 0 5 -3 8 -6 5 -5 6 -7 6 -18 0 -10 -1 -13 -8 -23 -5
-7 -10 -13 -11 -13 -1 -1 -1 -2 0 -2 1 0 0 -2 -2 -4 -3 -3 -5 -7 -6 -10 -2 -8
-12 -18 -18 -18 -6 0 -13 7 -13 12 0 2 2 10 4 19 2 9 4 24 5 33 2 19 4 25 13
29 5 2 8 2 22 1z m1195 -46 c10 -9 3 -26 -10 -26 -8 0 -15 7 -15 15 0 13 16
20 25 11z m-708 -31 c3 -3 3 -3 0 -6 -4 -5 -11 1 -7 6 4 4 4 4 7 0z m-678 -5
c16 -7 16 -43 -1 -50 -15 -6 -34 -2 -39 9 -4 8 -4 24 0 32 5 12 23 15 40 9z
m494 -19 c9 -9 5 -27 -8 -34 -5 -2 -7 -2 -9 0 -1 1 -2 1 -2 0 0 -1 -1 0 -3 1
-15 17 -11 38 9 38 6 0 9 -1 13 -5z m124 -92 c3 -3 3 -3 0 -6 -4 -5 -11 1 -7
6 4 4 4 4 7 0z"/>
<path d="M1068 3256 c0 -4 -1 -6 -2 -6 -2 0 -2 -1 0 -2 1 -2 2 -5 2 -8 0 -5 0
-5 3 -1 3 4 4 11 1 11 -1 0 -2 2 -3 6 l0 5 -1 -5z"/>
</g>
</svg>
