<?xml version="1.0" standalone="no"?>
<!DOCTYPE svg PUBLIC "-//W3C//DTD SVG 20010904//EN"
 "http://www.w3.org/TR/2001/REC-SVG-20010904/DTD/svg10.dtd">
<svg version="1.0" xmlns="http://www.w3.org/2000/svg"
 width="600.000000pt" height="2850.000000pt" viewBox="0 0 600.000000 2850.000000"
 preserveAspectRatio="xMidYMid meet">
<metadata>
Created by potrace 1.15, written by Peter Selinger 2001-2017
</metadata>
<g transform="translate(0.000000,2850.000000) scale(0.500000,-0.500000)"
fill="#000000" stroke="none">
<path d="M776 3565 c-1 0 -5 -1 -9 -2 -4 -1 -9 -2 -12 -2 -20 -4 -81 -5 -324
-4 -146 0 -270 1 -274 2 -36 4 -50 3 -61 -8 -11 -11 -13 -19 -11 -59 1 -20 2
-38 3 -40 1 -2 2 -4 1 -4 -1 0 3 -10 9 -18 7 -13 21 -15 41 -7 7 3 16 6 22 7
25 5 31 9 30 27 0 9 -2 14 -6 21 -10 18 -4 34 13 34 12 0 18 -7 18 -19 0 -10
7 -40 12 -48 3 -6 3 -15 -1 -20 -1 -2 -8 -4 -16 -6 -8 -2 -21 -7 -30 -11 -10
-5 -21 -8 -26 -8 -16 -1 -43 -13 -47 -20 0 -1 -2 -3 -3 -5 -6 -6 -11 -16 -11
-24 0 -8 6 -24 10 -26 7 -4 13 -25 10 -36 -6 -23 2 -46 17 -49 7 -2 35 5 45
10 4 2 12 3 22 2 7 0 15 -10 26 -28 5 -11 14 -23 19 -29 18 -19 23 -40 11 -51
-5 -6 -7 -6 -20 -6 -8 0 -23 -2 -32 -4 -28 -7 -37 -7 -43 -1 -5 5 -5 6 -4 19
3 29 2 33 -3 38 -2 2 -6 4 -7 4 -26 3 -49 -9 -55 -27 -1 -6 -2 -30 -2 -79 0
-70 0 -71 5 -80 5 -11 20 -19 38 -22 16 -2 20 -5 24 -20 5 -15 5 -16 2 -21 -3
-7 -11 -10 -22 -7 -7 2 -11 1 -16 -1 -4 -1 -7 -2 -7 -2 0 1 -1 0 -3 -1 -1 -1
-3 -1 -4 -1 0 1 -1 1 -1 -1 0 -1 -1 -2 -3 -2 -4 0 -10 -9 -13 -18 -1 -4 -2
-20 -3 -37 -1 -16 -2 -34 -2 -38 -3 -35 0 -48 13 -58 12 -9 19 -9 78 -9 l55 1
12 6 c30 17 36 19 57 22 37 6 53 15 58 33 4 12 1 105 -3 115 -1 4 -2 7 -1 8 0
1 -1 1 -2 0 -2 0 -4 0 -4 1 0 1 -6 1 -14 0 l-14 -1 0 13 0 12 14 0 c14 -1 15
-1 19 5 6 8 5 22 -3 44 -8 22 -8 29 1 55 l7 21 0 55 -1 55 6 6 6 6 55 -1 c65
0 71 1 88 17 25 24 41 24 67 1 16 -14 30 -20 43 -16 4 1 8 3 8 4 0 1 2 1 6 -1
9 -4 13 -13 9 -22 -2 -4 -3 -23 -4 -52 l-1 -46 6 -17 c3 -9 7 -20 10 -25 6
-11 15 -39 15 -48 0 -13 -4 -19 -15 -28 -23 -17 -30 -30 -33 -59 -1 -6 -1 -13
-2 -16 -1 -3 -1 -8 -2 -12 -3 -20 -15 -84 -17 -91 -1 -4 -6 -26 -12 -49 -33
-136 -71 -225 -141 -326 -7 -10 -1 -33 12 -43 5 -4 30 -16 30 -15 0 0 3 -1 8
-2 9 -2 19 1 24 8 4 7 9 24 8 29 -2 5 4 13 10 13 7 0 13 -9 9 -14 -1 -3 -1 -7
1 -17 3 -11 5 -15 14 -25 14 -14 15 -16 16 -28 0 -19 -9 -29 -28 -29 -13 0
-19 4 -33 18 -6 6 -14 13 -17 14 -7 4 -21 4 -34 0 -17 -5 -31 -4 -40 3 -11 9
-18 11 -31 11 -12 0 -12 0 -27 -15 -22 -21 -37 -34 -46 -41 -4 -3 -11 -9 -15
-12 -11 -9 -36 -26 -45 -31 -18 -11 -26 -21 -26 -38 0 -10 1 -13 12 -30 6 -10
11 -19 11 -19 0 -1 3 -6 7 -12 4 -6 7 -12 7 -12 0 -1 3 -6 7 -12 4 -6 7 -12 7
-12 0 -1 2 -5 5 -10 3 -4 7 -10 8 -12 10 -19 55 -94 59 -99 6 -6 23 -16 28
-16 2 0 8 -2 14 -4 31 -11 57 4 48 28 -1 3 -2 6 -2 7 0 1 -1 2 -2 3 0 1 -3 5
-6 10 -2 5 -11 17 -20 26 -20 21 -22 24 -22 34 0 15 11 19 35 13 18 -5 24 -13
26 -30 3 -40 25 -51 59 -32 11 6 51 48 76 80 6 8 12 15 13 17 4 4 33 45 37 50
2 2 4 6 6 9 4 5 35 53 37 57 0 2 3 6 5 10 12 20 24 45 26 55 1 2 1 3 10 13 15
18 56 114 80 187 12 36 14 43 9 58 0 2 -1 4 -1 5 0 1 -4 7 -8 14 -8 11 -9 14
-9 24 0 12 4 21 11 23 1 1 8 5 13 8 6 3 12 7 13 8 2 0 5 3 7 6 2 3 5 6 5 7 4
3 17 56 25 99 0 3 2 12 3 19 4 24 -8 49 -31 59 -8 4 -18 14 -28 26 -3 4 -11
14 -18 20 -7 7 -14 17 -17 22 -3 6 -6 10 -6 11 -2 1 -2 2 -2 6 0 5 -11 6 -29
4 -35 -5 -38 4 -19 57 5 13 10 26 12 28 8 9 24 11 39 4 14 -6 15 -12 12 -52
l-2 -20 13 1 c18 3 19 3 35 13 13 8 16 9 24 9 6 0 14 1 19 2 28 6 30 11 39
124 1 8 2 17 2 20 0 2 1 16 2 31 2 33 0 41 -16 59 -13 15 -16 25 -13 39 3 10
4 11 19 24 17 14 22 26 27 67 8 53 6 68 -13 88 -3 4 -13 15 -22 25 -9 10 -19
21 -22 25 -12 13 -17 18 -29 33 -26 29 -38 40 -48 43 -10 2 -26 3 -28 1z m19
-59 c15 -5 19 -36 6 -47 -12 -11 -34 -11 -43 0 -9 10 -9 32 0 42 7 8 23 10 37
5z m-497 -88 c5 -6 5 -12 0 -18 -7 -8 -22 -2 -22 9 0 11 15 17 22 9z m485 -17
c12 -7 14 -33 3 -43 -8 -9 -32 -9 -40 0 -9 8 -9 32 0 41 7 7 27 8 37 2z m-302
-76 c14 -9 13 -37 -1 -46 -6 -5 -26 -5 -32 -1 -11 8 -16 14 -15 21 2 8 8 22
12 25 7 6 27 7 36 1z m-257 -5 c5 -6 5 -12 0 -18 -7 -8 -22 -2 -22 9 0 11 15
17 22 9z m170 -30 c0 -1 2 -3 5 -3 7 -2 5 -9 -2 -16 -13 -12 -30 3 -19 17 3 4
16 6 16 2z m299 -5 c6 -4 6 -6 6 -20 0 -14 0 -16 -6 -20 -3 -3 -7 -5 -9 -5 -2
0 -8 -2 -13 -4 -21 -10 -35 1 -25 20 1 2 2 6 3 9 2 14 4 17 8 21 8 6 29 6 36
-1z m-403 -293 c24 -3 26 -5 26 -24 l0 -16 -11 -5 c-30 -15 -65 0 -65 29 0 16
14 20 50 16z m-94 -61 c17 -3 24 -8 28 -22 4 -18 -2 -30 -20 -39 -11 -6 -28
-19 -27 -20 1 -1 -7 -10 -14 -16 -6 -5 -19 1 -19 10 0 1 2 8 5 13 12 22 13 25
14 28 0 2 1 6 2 9 2 2 1 8 0 14 -2 12 0 19 6 23 6 2 8 2 25 0z m515 -184 c9
-3 18 -7 20 -9 9 -8 11 -31 4 -44 -6 -12 -22 -16 -37 -9 -6 3 -10 7 -17 20
-16 27 -19 36 -13 44 3 5 4 5 15 4 6 -1 19 -4 28 -6z m15 -141 c9 -9 8 -21 -2
-42 -4 -10 -10 -24 -12 -33 -5 -20 -9 -24 -27 -27 -13 -2 -13 -2 -17 2 -4 5
-5 8 -4 23 0 6 3 15 8 26 4 9 10 23 12 32 5 21 10 25 25 25 10 0 12 -1 17 -6z
m-73 -134 c-1 -1 -1 -4 -1 -5 0 -4 -7 -10 -12 -12 -5 -1 -14 8 -14 14 0 6 6
13 13 15 5 1 7 0 11 -4 2 -3 4 -6 3 -8z m-24 -69 c0 -2 -1 -5 -1 -5 0 -1 -1
-1 -2 -2 -2 0 -5 0 -7 -1 -4 -1 -5 0 -9 6 -4 7 -4 7 0 10 4 4 4 4 12 0 6 -3 8
-5 7 -8z m41 -16 c16 -2 22 -9 23 -27 0 -9 -1 -13 -4 -16 -8 -7 -28 -9 -37 -2
-6 4 -16 32 -15 40 2 6 12 10 19 8 3 -1 9 -3 14 -3z"/>
<path d="M856 2934 c-1 -2 -2 -10 -2 -18 l-1 -15 11 -1 10 0 0 16 c0 9 1 17 1
18 0 4 -17 4 -19 0z"/>
</g>
</svg>
