<?xml version="1.0" standalone="no"?>
<!DOCTYPE svg PUBLIC "-//W3C//DTD SVG 20010904//EN"
 "http://www.w3.org/TR/2001/REC-SVG-20010904/DTD/svg10.dtd">
<svg version="1.0" xmlns="http://www.w3.org/2000/svg"
 width="1000.000000pt" height="2850.000000pt" viewBox="0 0 1000.000000 2850.000000"
 preserveAspectRatio="xMidYMid meet">
<metadata>
Created by potrace 1.15, written by Peter Selinger 2001-2017
</metadata>
<g transform="translate(0.000000,2850.000000) scale(0.500000,-0.500000)"
fill="#000000" stroke="none">
<path d="M980 2168 c-14 -5 -23 -11 -31 -21 -7 -7 -8 -10 -8 -18 1 -14 4 -20
15 -27 12 -8 16 -12 17 -18 4 -19 10 -35 16 -39 5 -5 20 -10 23 -8 1 0 4 1 7
2 15 3 35 21 43 38 7 15 7 39 -1 53 -17 33 -52 49 -81 38z"/>
<path d="M459 2168 c-3 -1 -11 -2 -18 -2 -7 0 -16 -2 -20 -3 -4 -2 -9 -3 -10
-4 -4 -1 -13 -11 -13 -15 0 -2 -1 -4 -2 -5 -4 -2 -3 -67 1 -76 4 -9 14 -21 18
-21 2 0 3 -1 3 -2 0 -1 1 -2 3 -2 1 0 85 -1 187 -1 l184 -1 10 4 c15 7 25 22
34 55 7 22 7 37 3 48 -4 9 -14 21 -18 21 -2 0 -3 1 -3 2 0 2 -1 2 -46 3 -43 1
-53 0 -66 -9 -3 -2 -9 -5 -14 -7 -9 -3 -10 -3 -18 0 -5 2 -11 5 -14 7 -10 7
-25 11 -33 8 -8 -3 -19 -9 -24 -13 -1 -1 -6 -4 -10 -6 -9 -4 -9 -4 -17 0 -5 2
-11 6 -13 7 -2 2 -8 6 -13 9 -8 4 -12 4 -47 4 -21 0 -41 0 -44 -1z m48 -47 c4
-4 5 -7 5 -15 0 -14 -6 -20 -20 -20 -14 0 -20 6 -20 20 0 14 6 20 20 20 8 0
11 -1 15 -5z"/>
<path d="M1194 2168 c-3 -1 -6 -1 -7 0 0 0 -1 0 -1 -2 0 -1 -1 -2 -3 -2 -4 0
-14 -12 -18 -22 -3 -6 -3 -12 -3 -25 2 -26 9 -35 37 -43 12 -4 15 -6 26 -17
17 -18 26 -21 45 -16 11 2 34 3 38 0 5 -3 24 -4 106 -4 87 0 102 0 102 3 0 1
3 3 7 5 4 1 9 6 12 10 2 5 8 11 12 16 6 6 8 7 15 7 13 0 31 5 38 11 3 2 6 7 8
11 3 11 3 34 -1 43 -4 9 -14 21 -18 21 -2 0 -3 1 -3 2 0 3 -25 4 -77 2 -10 0
-36 1 -57 1 -42 2 -48 1 -57 -8 -5 -4 -13 -20 -14 -28 0 -8 -5 -15 -9 -15 -4
0 -9 7 -9 15 -1 8 -9 24 -14 28 -8 8 -16 10 -34 8 -18 -2 -43 -2 -87 0 -16 0
-31 0 -34 -1z"/>
</g>
</svg>
