<?xml version="1.0" standalone="no"?>
<!DOCTYPE svg PUBLIC "-//W3C//DTD SVG 20010904//EN"
 "http://www.w3.org/TR/2001/REC-SVG-20010904/DTD/svg10.dtd">
<svg version="1.0" xmlns="http://www.w3.org/2000/svg"
 width="1100.000000pt" height="2850.000000pt" viewBox="0 0 1100.000000 2850.000000"
 preserveAspectRatio="xMidYMid meet">
<metadata>
Created by potrace 1.15, written by Peter Selinger 2001-2017
</metadata>
<g transform="translate(0.000000,2850.000000) scale(0.500000,-0.500000)"
fill="#000000" stroke="none">
<path d="M489 3820 c-12 -5 -23 -9 -25 -9 -2 -1 -4 -2 -5 -2 -15 -4 -59 -23
-58 -25 2 -3 -9 -18 -13 -19 -2 0 -13 -1 -26 -1 -38 1 -52 -9 -52 -35 0 -9 12
-35 16 -37 1 0 -1 -3 -4 -6 l-6 -6 -53 0 c-28 0 -55 -1 -59 -2 -14 -3 -19 -10
-20 -28 -1 -4 -2 -8 -3 -8 -1 -1 -1 -2 1 -2 7 0 8 -11 2 -18 -9 -11 -26 1 -21
15 1 2 3 3 5 3 3 0 3 0 0 2 -2 1 -2 2 -2 2 1 0 1 5 0 11 -3 19 -19 28 -42 24
-5 -1 -10 -2 -10 -1 -1 0 -2 -1 -2 -2 0 -1 -1 -2 -3 -2 -4 0 -14 -12 -18 -21
-5 -12 -4 -51 1 -61 6 -12 17 -16 40 -16 18 0 19 0 24 -6 9 -9 9 -24 -2 -38
-7 -10 -11 -17 -13 -24 0 -1 -1 -3 -2 -5 -6 -15 -7 -17 -5 -17 1 0 2 -2 2 -4
0 -6 7 -17 12 -20 6 -3 21 -1 33 4 16 7 29 5 52 -9 11 -7 24 -7 34 1 9 6 30
29 42 46 6 9 14 13 27 13 19 0 25 -6 27 -25 0 -6 2 -12 3 -14 1 -2 3 -6 3 -8
1 -6 9 -14 18 -18 7 -4 14 -4 59 -4 49 0 64 -1 64 -6 0 -1 2 -2 4 -3 2 -1 3
-3 3 -5 -1 -6 4 -15 13 -25 10 -10 13 -21 10 -34 -3 -9 -2 -27 2 -36 3 -7 21
-25 35 -34 15 -9 18 -15 17 -28 0 -6 -1 -13 -1 -15 -1 -3 -2 -7 -2 -10 -2 -19
-7 -34 -11 -34 -4 0 -8 -12 -7 -24 0 -10 1 -15 6 -21 10 -15 5 -43 -8 -45 -11
-1 -23 2 -29 8 -5 5 -6 7 -6 17 0 11 5 23 9 23 2 0 7 13 7 21 0 18 -11 24 -35
20 -23 -5 -30 -4 -37 3 -10 9 -8 27 3 39 15 16 19 25 25 51 4 17 -1 41 -9 48
-4 3 -24 14 -42 23 -10 5 -32 15 -49 24 -54 26 -67 31 -77 33 -12 3 -39 3 -46
0 -3 -1 -8 -2 -11 -3 -6 -1 -6 -1 -6 -17 0 -13 1 -16 5 -20 11 -13 13 -21 7
-28 -4 -4 -10 -5 -16 -2 -11 6 -36 2 -51 -8 -4 -3 -10 -6 -12 -7 -9 -3 -13
-10 -13 -26 0 -13 0 -14 7 -21 8 -8 11 -17 11 -31 0 -13 6 -28 13 -35 3 -4 20
-14 36 -22 49 -25 48 -27 -13 -68 -14 -9 -28 -19 -32 -21 -4 -2 -11 -7 -15
-10 -5 -3 -10 -5 -11 -5 -1 0 -3 -1 -4 -3 -2 -1 -6 -4 -9 -5 -51 -27 -73 -37
-98 -48 -16 -7 -30 -14 -31 -16 -1 -2 -2 -2 -2 -1 0 1 -1 0 -3 -3 -2 -3 -3
-11 -3 -19 l0 -14 17 -17 c28 -29 61 -68 92 -108 2 -2 7 -9 13 -16 15 -20 31
-26 53 -20 4 1 16 4 25 6 18 4 34 12 68 32 19 11 29 17 56 35 5 3 11 7 13 9 5
2 5 4 5 16 0 15 -3 20 -11 26 -10 7 -37 4 -46 -4 -12 -11 -21 -12 -37 -7 -12
4 -35 2 -44 -4 -7 -5 -22 -4 -27 2 -10 9 -5 33 7 33 9 0 39 15 44 22 2 2 4 4
6 5 2 1 5 2 8 4 7 4 19 4 35 -1 15 -5 28 -6 54 -3 18 2 57 -3 70 -8 9 -4 24
-6 32 -4 6 1 25 15 44 33 9 9 10 9 37 17 20 6 23 8 30 22 15 30 24 31 50 7 5
-5 15 -12 22 -15 22 -9 23 -10 26 -15 1 -3 2 -10 1 -17 0 -13 -1 -13 -10 -23
-11 -10 -11 -10 -11 -24 -1 -15 0 -16 9 -24 4 -3 8 -4 18 -4 17 0 21 2 40 23
9 10 19 20 22 24 3 3 12 13 20 22 8 9 16 18 19 21 5 4 6 8 7 19 1 8 2 15 2 15
1 1 -2 3 -5 4 -18 10 -26 17 -26 26 0 10 7 16 16 16 7 0 9 -1 16 -9 4 -6 9
-12 9 -15 1 -3 3 -8 4 -12 2 -3 4 -10 4 -15 1 -4 7 -18 14 -33 15 -28 16 -31
7 -57 -5 -12 -7 -22 -7 -33 -1 -21 -3 -25 -23 -34 -10 -5 -20 -13 -29 -20 -21
-20 -21 -20 -52 -22 -24 -1 -30 -2 -44 -8 -9 -3 -19 -7 -23 -8 -4 -1 -14 -4
-21 -7 -55 -20 -159 -48 -250 -68 -22 -5 -43 -10 -47 -11 -11 -4 -32 -14 -34
-18 -2 -4 -18 -12 -24 -13 -4 0 -15 2 -25 4 -24 7 -29 6 -48 -3 -26 -12 -28
-13 -43 -11 -7 1 -20 2 -29 2 -14 0 -22 -1 -44 -4 -3 0 -14 -2 -23 -3 -29 -4
-37 -11 -38 -31 -1 -11 1 -15 10 -24 7 -8 35 -46 48 -66 7 -10 13 -19 14 -19
7 0 20 -20 21 -32 1 -6 26 -54 32 -63 10 -13 30 -18 43 -11 16 8 26 10 53 10
21 -1 27 0 32 2 7 4 13 10 14 14 0 2 1 4 2 6 1 1 2 9 2 16 0 14 4 22 9 22 3 0
11 -11 11 -14 -1 -1 0 -2 1 -2 0 0 2 -3 4 -7 3 -8 14 -17 25 -18 16 -3 48 9
64 23 15 14 19 15 34 12 24 -4 27 -4 34 -3 10 2 22 14 32 31 13 22 28 27 53
15 10 -5 13 -7 17 -16 5 -9 5 -11 5 -46 0 -29 1 -38 3 -44 4 -9 14 -21 18 -21
2 0 3 -1 3 -2 0 -3 13 -3 125 -3 l114 0 10 6 c6 3 12 8 15 10 13 14 18 15 56
20 10 2 12 6 12 22 l0 14 -9 9 -9 8 1 13 c1 14 1 17 4 21 1 1 1 2 0 2 -2 0 6
13 10 16 5 5 19 5 24 0 12 -9 24 -50 16 -53 -2 0 -3 -2 -3 -4 0 -2 -1 -3 -2
-3 -3 0 -7 -15 -5 -26 0 -10 2 -13 7 -18 6 -6 6 -7 5 -17 0 -11 -7 -33 -14
-48 -2 -4 -5 -8 -8 -10 -5 -3 -6 -3 -9 0 -2 2 -4 3 -5 3 -1 0 -5 3 -9 7 -5 3
-14 8 -21 11 l-12 4 -25 -4 c-19 -4 -39 -5 -84 -6 -74 -1 -74 -1 -73 -26 l0
-12 -8 0 -7 0 0 13 c1 14 -2 22 -8 20 -4 -1 -16 -3 -35 -4 -12 -1 -17 -1 -33
4 l-18 5 -68 0 c-60 -1 -68 -1 -73 -5 -6 -4 -10 -12 -12 -23 -1 -5 -2 -10 -3
-10 -1 -1 -1 -2 1 -3 4 -1 4 -9 -1 -15 -8 -9 -22 -2 -22 10 0 4 1 6 3 6 3 0 3
0 0 3 -2 2 -3 5 -3 6 0 5 -1 6 -4 9 -10 10 -21 10 -41 1 -22 -11 -37 -12 -51
-3 -5 3 -10 7 -10 8 -1 0 -4 3 -8 6 -9 6 -24 5 -31 -2 -12 -11 -13 -17 -13
-82 l0 -60 6 -13 c11 -24 24 -28 52 -17 25 10 36 9 52 -6 4 -3 12 -8 18 -10
28 -11 32 -13 32 -14 0 -1 2 -2 4 -2 4 0 4 0 1 -2 -2 -2 -4 -7 -4 -13 -1 -9 0
-13 8 -34 5 -13 11 -27 12 -32 5 -12 7 -31 4 -40 -6 -18 0 -42 14 -55 5 -5 9
-8 9 -7 0 1 1 1 2 -1 2 -3 21 -4 40 -2 22 3 36 -14 30 -37 -4 -13 -14 -21 -29
-20 -10 0 -22 6 -24 11 -5 15 -26 29 -44 28 -18 -1 -21 0 -26 5 -6 6 -7 22 -2
32 3 4 4 12 4 24 1 19 -1 24 -11 36 -1 2 -2 4 -2 5 0 3 -9 10 -18 14 -6 3 -13
4 -23 4 -31 0 -42 -12 -44 -45 -1 -22 -9 -30 -28 -30 -19 0 -27 8 -28 30 -1
24 -7 36 -22 42 -6 2 -16 3 -52 3 -49 0 -55 -1 -65 -11 -6 -6 -14 -27 -14 -37
0 -4 -1 -29 -1 -56 -1 -51 -1 -56 7 -65 5 -4 30 -11 33 -9 3 3 21 2 27 -1 3
-2 8 -8 12 -13 3 -5 9 -12 13 -15 15 -11 9 -11 226 -11 239 0 218 -3 217 27
l0 11 9 0 9 0 0 -11 c-1 -18 -1 -18 8 -23 8 -4 8 -4 280 -4 290 0 280 0 288 9
5 5 12 21 13 28 0 8 5 15 9 15 4 0 9 -7 9 -15 1 -7 8 -23 13 -28 8 -8 13 -9
85 -9 87 0 85 -1 90 28 1 6 2 12 1 12 -1 0 -3 5 -6 11 -9 23 -22 31 -49 31
-15 0 -21 5 -21 17 0 15 2 16 48 16 44 0 45 0 53 -13 13 -21 19 -35 19 -47 0
-6 -1 -12 -3 -13 -2 -2 -2 -5 0 -15 5 -28 3 -27 93 -27 l71 0 21 6 c24 7 35 7
51 2 10 -4 17 -4 51 -5 43 0 48 1 57 8 13 13 13 15 13 98 0 64 0 76 -3 82 -4
9 -14 21 -18 21 -2 0 -3 1 -3 2 0 2 -1 2 -33 3 -33 2 -46 -1 -53 -9 -7 -6 -14
-22 -15 -33 -1 -4 -2 -10 -4 -14 -6 -12 -37 -26 -50 -22 -10 2 -24 20 -36 43
-13 25 -18 29 -32 30 -13 1 -18 -3 -28 -23 -7 -14 -7 -16 -6 -27 1 -15 3 -19
13 -33 4 -7 9 -16 12 -20 5 -11 13 -20 25 -27 12 -8 17 -14 17 -23 0 -15 -14
-21 -41 -17 -24 3 -30 7 -42 23 -19 25 -24 44 -16 58 6 13 5 36 -3 51 -4 7 -5
13 -7 35 -2 29 -4 37 -9 54 -6 18 -13 33 -16 33 -1 0 -2 1 -1 2 1 1 -1 2 -3 2
-3 0 -4 1 -2 1 2 1 4 3 6 5 1 2 3 4 5 4 1 0 3 1 3 2 1 2 8 3 23 2 41 -1 43 -1
65 7 l21 8 21 -8 c12 -4 23 -8 26 -8 8 1 14 2 14 3 0 1 1 2 3 2 4 0 14 12 18
21 5 11 5 141 0 152 -4 9 -14 21 -18 21 -2 0 -3 1 -3 2 0 1 -1 2 -2 2 -8 2
-171 2 -178 0 -7 -2 -18 -11 -19 -16 0 -2 -1 -4 -1 -5 -3 -4 -5 -16 -4 -27 0
-9 0 -11 -6 -16 -6 -6 -7 -6 -18 -6 -11 0 -12 0 -18 6 -6 5 -6 7 -6 17 1 31
-11 44 -36 39 -15 -3 -23 -2 -41 4 -27 9 -47 8 -61 -5 -5 -4 -16 -26 -16 -32
0 -4 -24 -30 -34 -36 -21 -12 -31 -28 -33 -51 -2 -17 -6 -22 -20 -22 -21 0
-27 20 -11 38 12 15 16 27 17 50 0 16 0 19 4 22 3 2 4 4 4 4 -1 1 -1 6 -1 13
-1 20 -9 27 -34 25 -8 -1 -10 0 -15 5 l-6 6 6 6 6 6 109 0 c108 0 120 0 120 3
0 1 1 2 3 2 4 0 14 12 18 21 2 6 3 15 3 40 l0 32 5 5 6 5 23 -7 c13 -3 37 -10
55 -14 37 -10 43 -10 65 2 26 13 34 11 49 -13 12 -19 21 -22 103 -39 48 -10
52 -10 62 -8 14 3 20 6 27 14 5 7 10 27 11 47 0 9 9 16 22 18 18 2 34 8 41 14
2 2 10 13 18 24 8 11 21 29 30 41 9 11 19 25 24 30 10 14 10 29 -2 40 -9 10
-27 8 -39 -5 -10 -9 -22 -14 -26 -11 -1 1 -5 3 -7 4 -3 1 -6 3 -7 5 -1 2 -2 3
-2 2 0 0 -2 1 -5 4 -3 3 -8 5 -10 5 -2 0 -5 1 -6 3 -2 2 -5 3 -7 3 -2 0 -4 1
-4 3 0 1 -1 -1 -3 -4 -4 -7 -4 -25 0 -32 5 -10 4 -23 -3 -30 -9 -8 -24 -8 -32
1 -6 5 -7 7 -7 16 0 10 1 11 8 18 7 6 7 7 7 20 -1 17 -6 23 -19 25 -4 1 -17 2
-29 4 -12 1 -26 3 -32 4 -6 1 -12 2 -15 2 -2 1 -8 2 -13 2 -5 1 -10 2 -12 2
-2 0 -7 1 -12 2 -5 1 -12 2 -15 2 -16 3 -31 -2 -44 -16 -13 -14 -15 -15 -40
-15 -16 0 -26 -1 -36 -4 -18 -5 -25 -3 -38 10 -11 11 -17 14 -30 14 -7 0 -12
-1 -17 -4 -4 -2 -14 -6 -23 -8 l-16 -4 -4 5 c-6 7 -5 20 1 29 5 7 4 30 -2 38
-4 8 -2 7 -53 20 -31 8 -39 6 -47 -13 -3 -6 -4 -11 -3 -18 1 -7 1 -9 -3 -13
-4 -4 -6 -4 -19 -3 -17 1 -22 3 -25 9 -3 5 -2 20 1 26 4 7 4 26 0 35 -3 8 -10
12 -40 22 -20 7 -32 19 -34 33 0 4 -1 9 -2 11 -1 1 -1 3 1 3 1 0 1 3 1 8 -1 8
0 11 11 24 5 7 12 25 10 25 0 0 0 2 2 5 1 2 3 15 4 27 2 18 3 23 6 26 7 7 20
7 26 0 6 -7 5 -23 -4 -47 -6 -16 -6 -17 -4 -28 3 -12 12 -23 21 -25 6 -1 34 0
71 2 13 1 28 2 34 2 20 1 40 11 48 25 2 5 12 11 34 21 2 1 7 5 10 9 3 4 8 10
12 15 l7 7 6 -14 c9 -20 36 -65 44 -73 1 -2 5 -7 9 -11 9 -12 31 -34 40 -40 4
-3 9 -7 12 -9 7 -6 32 -20 38 -22 14 -4 54 6 60 16 1 1 2 1 2 0 0 -2 1 -2 3
-2 2 1 3 0 4 -3 1 -4 6 -8 20 -15 31 -16 44 -12 46 16 1 13 1 14 -4 19 -3 4
-9 8 -12 10 -6 3 -7 3 -15 5 -3 0 -7 1 -10 2 -4 1 -8 -1 -14 -4 -12 -6 -14 -6
-18 1 -2 3 -5 6 -6 6 -7 0 -13 20 -10 33 4 13 14 21 29 20 12 -1 18 -4 27 -15
7 -10 24 -23 24 -19 0 1 1 0 3 -1 2 -2 14 -4 30 -4 9 0 15 -6 15 -16 1 -4 2
-8 2 -8 1 0 2 -2 2 -4 0 -11 24 -18 37 -11 l7 3 -1 16 c-1 15 -4 24 -8 24 -2
0 -6 3 -9 6 l-7 6 3 17 c4 31 8 51 11 54 2 1 3 3 3 4 0 1 2 3 4 5 5 3 23 -2
29 -8 3 -4 6 -4 17 -4 16 1 23 6 24 18 2 47 2 57 0 59 -1 2 -2 3 -1 3 1 0 0 2
-1 4 -1 2 -3 4 -3 3 -1 0 -3 1 -4 2 -2 2 -4 3 -5 2 -1 -1 -2 0 -3 1 -1 1 -3 1
-5 0 -2 -1 -7 -2 -11 -1 -3 0 -8 0 -10 -1 -6 -2 -14 1 -17 7 -2 3 -2 10 -2 20
l1 16 11 10 c14 13 16 16 16 30 -1 12 -6 19 -26 31 -14 9 -27 7 -45 -4 -13 -8
-20 -10 -22 -5 -1 2 -7 2 -24 -2 -21 -4 -28 -47 -12 -71 2 -4 6 -11 8 -16 4
-8 4 -9 0 -15 -2 -4 -7 -9 -11 -12 -9 -6 -20 -16 -20 -19 0 -1 -3 -4 -7 -6
l-7 -4 -5 4 -4 4 3 14 c6 22 5 31 -4 49 -4 9 -12 30 -18 47 -10 30 -16 42 -27
53 -10 10 -27 11 -37 1 -9 -8 -18 -12 -32 -12 -7 0 -14 -1 -15 -1 -1 -1 -2 -2
-3 -2 -2 0 -9 -3 -20 -9 -25 -11 -43 -3 -43 18 0 19 14 27 35 21 11 -4 26 -4
37 -1 4 2 16 3 26 3 20 0 22 1 28 5 21 16 29 52 17 82 -2 6 -5 12 -6 13 -1 1
-3 7 -5 13 -3 10 -3 11 1 18 9 17 30 30 41 24 3 -2 10 -2 21 -2 18 1 20 3 24
16 3 11 6 12 27 11 12 -1 17 -1 17 1 0 1 1 2 2 1 1 -1 2 0 2 1 0 1 3 3 6 4 3
1 8 5 12 9 8 9 29 16 40 14 8 -2 18 -7 18 -10 0 -2 25 -1 32 1 0 0 2 3 4 7 4
5 4 10 4 49 0 24 -1 46 -2 50 -2 9 -4 10 -24 10 l-13 1 -6 -9 c-8 -12 -13 -15
-27 -15 -19 0 -27 8 -27 27 0 19 6 25 35 31 25 6 52 22 57 34 4 10 4 25 -1 33
-6 10 -57 59 -88 86 l-30 24 -12 0 c-14 0 -21 -3 -30 -14 -10 -11 -14 -12 -35
-13 -21 -1 -37 -5 -42 -12 -3 -3 -3 -3 -3 0 0 1 -1 3 -2 3 -4 0 -8 13 -8 24 0
5 -1 13 -3 17 -4 9 -14 21 -18 21 -2 0 -3 1 -3 2 0 1 -1 2 -2 2 -6 1 -107 2
-113 1 -9 -2 -24 -12 -30 -21 -15 -24 -28 -24 -44 0 -12 18 -32 23 -43 11 -11
-13 -13 -18 -13 -43 0 -21 2 -85 4 -105 0 -4 1 -12 1 -18 1 -5 2 -11 4 -13 2
-2 3 -4 3 -4 -1 0 0 -1 2 -2 7 -3 29 -2 33 1 6 6 18 9 32 9 26 0 35 -8 35 -28
0 -13 -4 -20 -11 -24 -12 -6 -43 -1 -53 9 -4 4 -7 6 -17 9 -9 2 -31 2 -33 -1
-1 -1 -6 -3 -12 -3 -5 -1 -17 -5 -28 -11 -10 -5 -20 -9 -22 -9 -2 0 -12 4 -23
10 -17 8 -21 9 -35 10 -30 1 -46 -7 -60 -31 -7 -11 -15 -16 -28 -16 -14 0 -21
5 -28 16 -7 11 -22 27 -27 27 -4 1 -11 1 -13 2 -10 2 -21 -8 -23 -23 -1 -6 -1
-11 0 -11 0 0 0 -1 -2 -2 -3 -2 -3 -2 0 -2 4 0 6 -4 6 -10 0 -5 -8 -13 -17
-16 -4 -2 -7 -4 -7 -4 0 -1 -1 -2 -2 -2 -3 0 -21 -19 -23 -24 -1 -4 -4 -6 -25
-16 -9 -5 -19 -11 -22 -15 -3 -4 -7 -7 -8 -7 -1 0 -3 -1 -4 -3 -4 -4 -15 -4
-20 1 -8 8 -6 16 10 31 7 7 15 17 18 22 7 15 16 23 25 23 4 0 9 1 12 2 3 1 7
3 9 3 2 0 7 2 11 5 4 2 11 5 15 7 l7 4 -1 13 c-2 16 -9 23 -25 25 -9 1 -163 0
-168 -1 -2 0 -3 -2 -3 -4 0 -2 -1 -1 -3 2 -1 3 -4 8 -6 10 -2 4 -3 11 -3 36 0
24 -1 33 -3 39 -4 9 -14 21 -18 21 -2 0 -3 1 -3 2 0 2 -1 2 -41 3 -32 1 -39 1
-56 -3 -23 -5 -29 -5 -52 0 -11 2 -25 4 -37 4 -20 0 -32 4 -41 16 -2 2 -8 8
-14 12 -15 12 -16 15 -19 35 -3 29 -6 35 -24 60 -17 25 -33 29 -67 17z m-72
-79 c8 -6 9 -15 3 -22 -14 -14 -35 6 -25 23 5 8 12 7 22 -1z m1358 -62 c7 -7
-4 -49 -14 -56 -6 -5 -18 -4 -24 2 -9 9 -6 24 10 41 14 15 23 19 28 13z
m-1268 -7 c7 -6 7 -16 0 -22 -5 -4 -6 -4 -23 -3 -10 0 -19 1 -20 2 -2 0 -6 1
-9 2 -4 1 -13 8 -13 11 0 4 11 10 21 12 24 3 39 2 44 -2z m1202 -95 c-2 -7 -5
-10 -21 -20 -12 -6 -15 -7 -23 -6 -13 2 -18 5 -22 14 -2 5 -4 8 -5 9 -2 2 -1
7 3 10 1 2 4 8 6 14 3 10 14 25 17 23 1 -1 2 0 3 1 1 1 11 -7 22 -19 19 -18
21 -21 20 -26z m-112 14 c1 -3 -1 -9 -2 -9 -1 0 -3 1 -4 3 -3 2 -3 3 -1 6 4 4
5 4 7 0z m-1033 -5 c5 -6 5 -12 0 -18 -7 -8 -22 -2 -22 9 0 11 15 17 22 9z
m241 -76 c2 -3 3 -8 3 -15 0 -25 8 -41 23 -42 5 -1 8 0 9 2 2 1 2 1 2 -1 0 -1
2 -6 5 -10 4 -6 5 -9 5 -26 0 -27 6 -40 23 -49 6 -4 33 -15 38 -16 3 0 2 -1
-2 -1 -8 0 -18 -9 -22 -21 -7 -21 -2 -27 20 -29 15 -1 16 -1 21 4 2 3 8 7 13
10 4 2 7 4 5 4 -2 0 -2 4 -2 15 1 15 0 16 -4 17 -4 1 -3 1 4 2 4 1 9 3 11 5 3
4 18 7 36 8 18 1 32 5 39 12 5 5 6 7 13 21 7 11 12 14 24 14 12 0 17 -3 23
-14 8 -14 12 -21 15 -23 2 -2 9 -15 10 -19 0 -1 1 -2 2 -4 1 -2 1 -52 1 -112
l-1 -109 -5 -7 c-5 -8 -10 -10 -24 -11 -30 -2 -41 28 -20 56 17 24 18 26 18
94 0 65 -1 70 -14 82 -12 12 -29 9 -49 -9 -6 -5 -15 -12 -20 -16 l-11 -7 1
-16 0 -16 9 -5 c11 -6 18 -14 18 -20 0 -5 -6 -11 -12 -13 -6 -1 -32 5 -32 8 0
1 -1 0 -2 -2 -1 -3 -2 -3 -2 -1 0 2 -3 5 -7 8 -5 5 -7 5 -28 5 -29 0 -37 -3
-44 -18 -8 -18 -9 -23 -9 -69 l0 -44 -6 -7 c-6 -7 -8 -7 -22 -1 -10 5 -10 5
-10 13 0 17 -2 20 -55 54 -28 19 -36 24 -62 39 -16 9 -23 15 -24 23 -2 9 0 13
16 38 6 9 11 17 11 18 0 0 4 8 10 17 9 17 34 67 46 93 8 18 8 31 1 38 -3 3 -5
6 -5 7 0 1 -1 2 -1 2 -1 -1 -5 0 -8 2 -3 1 -11 3 -18 4 -17 2 -23 7 -23 18 0
10 6 16 20 21 23 8 42 7 49 -1z m917 1 c3 -3 4 -7 4 -14 0 -13 -6 -19 -19 -19
-13 0 -19 6 -19 19 0 9 4 18 10 20 6 2 19 -1 24 -6z m-327 -17 c4 -6 4 -23 0
-30 -2 -2 -7 -6 -13 -9 -30 -17 -33 -21 -32 -40 0 -13 2 -18 12 -30 10 -10 23
-18 35 -20 5 -1 11 -4 14 -6 5 -5 5 -5 2 -9 -2 -2 -3 -4 -3 -6 0 -1 -2 -2 -4
-2 -13 0 -24 -12 -31 -34 -1 -5 -4 -11 -6 -13 -6 -6 -19 -2 -20 6 0 2 -8 24
-12 31 -1 2 -6 9 -11 14 -11 11 -18 28 -17 39 1 4 4 11 8 17 10 14 14 26 13
43 0 12 4 23 16 35 4 5 8 10 8 10 0 3 11 9 17 10 8 2 19 -1 24 -6z m-962 -158
c5 -5 6 -7 6 -16 0 -15 -8 -23 -23 -23 -9 0 -11 1 -16 7 -9 8 -9 23 -1 32 9 9
24 9 34 0z m1177 -11 l-5 -5 -4 4 -5 5 4 4 5 5 4 -4 5 -5 -4 -4z m-635 -103
c5 -3 10 -10 10 -16 1 -7 7 -25 15 -46 9 -24 10 -30 3 -37 -3 -3 -6 -5 -7 -5
-3 0 -12 9 -17 20 -4 7 -9 12 -14 16 -4 3 -8 6 -9 7 0 0 -1 1 -2 1 -4 0 -17
11 -20 15 -3 7 -3 23 0 31 3 8 10 12 23 12 5 1 9 1 9 2 0 3 4 2 9 0z m471 -52
c7 -12 7 -14 3 -19 -6 -6 -8 -7 -40 -8 -42 -2 -63 -6 -69 -13 -19 -22 -34 -30
-50 -26 -15 3 -22 17 -18 34 4 19 11 21 94 24 51 2 50 2 50 4 0 1 1 2 3 2 3 0
11 7 11 10 0 2 4 4 8 3 1 0 5 -5 8 -11z m181 -13 c12 -12 3 -31 -13 -31 -16 0
-23 16 -15 30 5 8 21 9 28 1z m-1160 -56 c11 -11 4 -35 -10 -35 -3 0 -6 -1 -7
-1 -10 0 -20 3 -24 9 -4 5 -4 6 -1 15 3 8 5 11 11 14 11 5 25 4 31 -2z m1003
-9 c4 -3 5 -5 5 -9 -3 -10 -11 -12 -15 -4 -2 2 -3 5 -5 5 -2 2 5 12 8 12 1 0
4 -2 7 -4z m389 -30 c3 -5 4 -12 1 -12 -1 0 -2 -2 -3 -4 -2 -5 -4 -5 -10 1 -6
7 -6 7 0 14 6 6 8 6 12 1z m-890 -39 c3 -5 3 -5 0 -10 -2 -3 -5 -5 -7 -5 -2 0
-5 2 -7 5 -3 5 -3 5 0 10 2 3 5 5 7 5 2 0 5 -2 7 -5z m693 -3 c5 -5 6 -7 6
-17 0 -16 -7 -23 -23 -23 -10 0 -12 1 -17 6 -5 5 -6 7 -6 17 0 16 7 23 23 23
10 0 12 -1 17 -6z m-503 -55 c5 -2 19 -17 21 -23 7 -16 -30 -35 -52 -26 -17 7
-17 43 -1 50 12 4 23 4 32 -1z m-126 -16 c5 -8 1 -16 -8 -16 -9 0 -13 8 -8 16
2 3 5 5 8 5 3 0 6 -2 8 -5z m54 -73 c7 -6 7 -18 1 -23 -5 -5 -24 -8 -49 -10
-11 -1 -14 0 -17 3 -10 10 -3 18 22 26 29 10 36 10 43 4z m-193 -94 c5 -5 5
-11 0 -16 -10 -10 -27 5 -16 16 4 4 12 4 16 0z m469 -14 c3 0 12 -8 14 -13 2
-5 2 -18 0 -19 -7 -5 -22 5 -27 18 -2 5 -1 7 4 12 3 3 5 5 6 4 0 -1 1 -2 3 -2z
m-552 -2 c6 -6 6 -22 0 -41 -6 -17 -7 -33 -3 -42 5 -13 31 -17 50 -8 6 2 16 7
23 10 30 13 50 23 77 37 44 22 48 22 89 2 36 -18 63 -30 72 -33 14 -6 33 1 40
16 5 8 12 15 17 15 6 0 9 -7 11 -22 1 -16 4 -27 8 -30 4 -5 7 -14 7 -22 0 -7
-1 -10 -7 -16 -4 -4 -7 -8 -7 -9 -1 -3 -1 -6 -2 -8 0 -1 0 -3 0 -4 0 -1 1 -5
1 -8 0 -4 1 -6 3 -5 2 0 2 0 2 -1 -1 -1 -1 -3 1 -4 3 -4 21 -2 37 4 20 8 26 8
32 2 5 -5 5 -7 -2 -36 -2 -10 -4 -24 -4 -32 0 -12 -1 -14 -6 -19 -8 -8 -23 -8
-35 -1 -4 3 -7 6 -7 7 0 0 -4 5 -9 11 -8 9 -9 9 -20 9 -12 0 -13 0 -26 -12
-19 -17 -31 -16 -37 3 -6 18 2 41 14 41 5 0 12 2 36 8 6 2 9 4 13 13 6 10 7
17 2 17 -2 0 -5 2 -7 4 -3 2 -9 6 -16 10 -6 3 -15 9 -19 14 -4 5 -12 11 -18
14 l-10 5 -131 1 c-72 1 -132 0 -134 0 -17 -8 -26 -13 -29 -16 -14 -12 -33
-16 -46 -9 -13 6 -15 25 -6 45 6 13 7 32 3 40 -3 4 -16 8 -29 8 -9 0 -15 -2
-37 -12 -15 -7 -20 2 -19 30 0 15 0 17 6 21 8 8 25 7 41 -1 16 -9 31 -9 43 -2
16 10 30 12 38 6z m593 -40 c5 -2 10 -3 10 -4 0 -1 2 -4 4 -7 8 -8 2 -30 -9
-32 -7 -2 -18 0 -22 3 -5 6 -8 32 -4 38 4 5 7 5 21 2z m-943 -23 c3 -3 3 -3 0
-6 -4 -5 -11 1 -7 6 4 4 4 4 7 0z m219 -10 c4 -7 3 -18 -2 -23 -7 -7 -20 -1
-20 9 0 4 13 19 17 19 1 0 3 -2 5 -5z m670 -32 c8 -8 2 -23 -9 -23 -3 0 -7 2
-9 4 -11 13 5 29 18 19z m-1075 -14 c3 -5 3 -6 0 -14 -7 -19 -27 -43 -37 -45
-7 -1 -20 0 -22 3 -6 8 -33 9 -46 2 -10 -6 -20 -6 -27 -2 -5 3 -5 5 -4 12 2
11 8 17 17 17 4 0 8 -1 10 -3 7 -6 37 -3 44 5 5 5 33 21 45 26 12 5 16 5 20
-1z m1291 -12 c3 -3 4 -7 4 -14 0 -13 -6 -19 -19 -19 -13 0 -19 6 -19 19 0 7
1 11 4 14 7 8 23 8 30 0z m-873 -102 c14 -14 -2 -38 -19 -31 -19 8 -15 36 6
36 6 0 9 -1 13 -5z m44 -138 c35 -12 40 -14 35 -20 -2 -2 -8 -3 -32 -3 -33 0
-38 2 -38 13 0 13 13 17 35 10z m297 -20 l-5 -5 -4 4 -5 5 4 4 5 5 4 -4 5 -5
-4 -4z m-127 -42 c12 -8 13 -36 2 -44 -11 -8 -31 -8 -39 1 -9 8 -9 32 0 41 7
7 27 8 37 2z m-102 -19 c10 -9 3 -26 -10 -26 -8 0 -15 7 -15 15 0 13 16 20 25
11z m230 -1 c3 -3 3 -3 0 -6 -4 -5 -11 1 -7 6 4 4 4 4 7 0z m-380 -10 c3 -3 3
-3 0 -6 -4 -5 -11 1 -7 6 4 4 4 4 7 0z m-136 -22 c6 -6 8 -17 5 -24 -5 -11
-24 -16 -39 -11 -10 3 -11 5 -5 16 2 4 4 9 4 11 0 12 25 18 35 8z m799 -11 c4
-3 4 -5 3 -15 -1 -12 -15 -55 -24 -74 -3 -5 -7 -15 -9 -21 -3 -6 -6 -12 -8
-14 -2 -2 -5 -6 -8 -10 -3 -4 -7 -9 -9 -11 -2 -2 -6 -7 -8 -11 -7 -13 -15 -20
-23 -20 -11 0 -19 5 -28 17 -8 11 -19 20 -21 18 0 -1 -1 0 -1 2 0 2 -1 3 -2 3
0 0 -3 4 -4 8 -3 6 -4 14 -4 40 0 27 -1 34 -3 37 -3 3 -3 3 1 3 2 0 6 2 8 6
l5 5 40 -1 c23 0 42 1 47 2 10 3 21 12 25 22 4 8 13 18 17 18 1 0 4 -2 6 -4z
m-339 -8 c1 -1 5 -9 8 -18 3 -9 9 -19 12 -23 3 -3 7 -10 9 -15 4 -8 4 -9 2
-14 -6 -10 -12 -8 -27 8 -8 7 -19 17 -25 21 -7 4 -13 9 -14 11 -3 6 -2 23 2
28 6 7 25 9 33 2z m150 -16 c4 -4 4 -12 0 -16 -5 -7 -19 -1 -19 8 0 9 14 15
19 8z m-266 -61 l0 -36 -6 -6 -6 -6 -45 1 -45 0 -8 6 c-4 3 -8 6 -7 7 2 1 -12
21 -15 22 -2 1 -4 2 -5 3 -1 0 -6 4 -12 7 -16 8 -19 13 -16 27 5 21 6 21 86
22 l67 1 6 -6 6 -6 0 -36z m515 -9 c3 -2 6 -8 8 -12 1 -5 4 -12 5 -15 12 -26
16 -49 11 -61 -7 -17 -43 -17 -50 -1 -5 14 -16 62 -16 71 0 9 1 11 6 16 5 5 7
6 19 6 9 0 14 -1 17 -4z m-410 -47 c3 -3 4 -7 4 -14 0 -13 -6 -19 -19 -19 -13
0 -19 6 -19 19 0 7 1 11 4 14 7 8 23 8 30 0z m-254 -14 c8 -4 9 -6 9 -18 0
-10 -1 -12 -7 -17 -7 -8 -21 -9 -32 -3 -7 4 -8 7 -7 20 1 19 18 28 37 18z
m-79 -48 c11 -2 16 -11 14 -25 -3 -21 -7 -25 -27 -23 -16 2 -22 9 -22 24 0 22
12 30 35 24z m537 -24 l-5 -5 -4 4 -5 5 4 4 5 5 4 -4 5 -5 -4 -4z m-77 2 c4
-4 5 -7 5 -15 0 -14 -6 -20 -20 -20 -8 0 -11 1 -15 5 -4 4 -5 7 -5 15 0 14 6
20 20 20 8 0 11 -1 15 -5z m174 -6 c3 -5 3 -5 0 -10 -2 -3 -5 -5 -7 -5 -2 0
-5 2 -7 5 -3 5 -3 5 0 10 2 3 5 5 7 5 2 0 5 -2 7 -5z m-583 -52 c5 -5 6 -18 1
-23 -5 -5 -22 -5 -27 -1 -5 5 -5 19 -1 26 3 5 5 5 13 4 5 -1 11 -3 14 -6z
m195 -8 c3 -3 3 -3 0 -6 -4 -5 -11 1 -7 6 4 4 4 4 7 0z"/>
<path d="M953 3774 c-12 -6 -21 -21 -24 -39 -1 -3 -4 -16 -8 -28 -7 -21 -7
-23 -7 -52 0 -23 1 -32 3 -38 4 -9 14 -21 18 -21 2 0 3 -1 3 -2 0 -2 1 -3 136
-3 139 -1 141 -1 153 8 7 5 19 28 19 35 0 11 18 20 35 16 9 -2 17 -10 17 -16
0 -7 12 -30 19 -35 9 -7 20 -10 27 -7 3 1 6 1 7 1 0 -1 1 -1 1 1 0 1 1 2 3 2
4 0 14 12 18 21 5 11 5 123 0 134 -4 9 -14 21 -18 21 -2 0 -3 1 -3 2 0 2 -2 2
-66 3 -71 1 -71 1 -108 -19 -33 -18 -36 -19 -51 -18 -4 0 -9 3 -18 14 -22 24
-20 23 -89 24 -56 0 -59 0 -67 -4z"/>
<path d="M1793 3404 c-3 -1 -4 -2 -2 -2 3 0 10 -5 9 -6 0 -1 0 -5 1 -10 1 -9
8 -13 14 -8 1 1 3 2 3 1 1 0 1 4 1 11 0 8 1 11 3 12 2 1 0 2 -5 2 -4 0 -10 1
-13 1 -3 0 -8 0 -11 -1z"/>
<path d="M1810 3239 c0 -1 -6 -2 -13 -1 l-13 0 -1 -6 c-1 -3 -2 -6 -3 -6 -1 0
0 -3 2 -6 3 -6 4 -6 14 -6 6 0 12 -1 14 -2 2 -3 2 -3 3 20 0 4 0 8 -1 8 -1 0
-2 -1 -2 -1z"/>
</g>
</svg>
