<?xml version="1.0" standalone="no"?>
<!DOCTYPE svg PUBLIC "-//W3C//DTD SVG 20010904//EN"
 "http://www.w3.org/TR/2001/REC-SVG-20010904/DTD/svg10.dtd">
<svg version="1.0" xmlns="http://www.w3.org/2000/svg"
 width="1000.000000pt" height="2850.000000pt" viewBox="0 0 1000.000000 2850.000000"
 preserveAspectRatio="xMidYMid meet">
<metadata>
Created by potrace 1.15, written by Peter Selinger 2001-2017
</metadata>
<g transform="translate(0.000000,2850.000000) scale(0.500000,-0.500000)"
fill="#000000" stroke="none">
<path d="M1714 3865 c-1 0 -6 -1 -13 -2 -24 -3 -57 -13 -78 -25 -25 -14 -29
-17 -44 -28 -11 -8 -34 -32 -42 -42 -4 -6 -9 -12 -9 -13 -10 -11 -32 -56 -36
-71 -1 -6 -5 -12 -7 -14 -5 -5 -6 -5 -58 -6 -51 -1 -56 -1 -60 -5 -1 -1 -5 -3
-8 -5 -4 -2 -10 -9 -15 -16 -9 -14 -13 -16 -25 -16 -12 0 -16 2 -25 16 -5 7
-11 14 -15 16 -3 2 -7 4 -8 5 -4 3 -8 4 -44 5 -39 0 -47 -1 -57 -9 -10 -9 -15
-26 -11 -38 5 -19 16 -99 18 -140 1 -13 2 -26 2 -29 1 -3 1 -31 2 -62 1 -59 3
-72 11 -81 5 -6 24 -17 31 -18 15 -2 21 -7 25 -20 4 -16 -2 -31 -16 -36 -12
-5 -33 0 -39 10 -8 12 -23 23 -35 26 -3 1 -31 1 -62 1 -129 -2 -192 -1 -260 5
-39 3 -44 4 -77 8 -32 4 -47 -2 -55 -21 -4 -10 -4 -11 -4 -144 l1 -133 5 -10
c4 -7 8 -11 15 -15 11 -7 17 -7 56 -9 75 -3 94 -3 100 -4 3 -1 72 -2 153 -2
l148 -1 6 -5 c3 -2 5 -5 5 -5 0 -1 -1 -38 -2 -84 -1 -46 -1 -86 -2 -90 0 -4
-1 -17 -2 -30 -1 -13 -2 -26 -2 -29 0 -3 -2 -16 -3 -29 -1 -13 -3 -25 -3 -28
0 -2 -1 -9 -2 -14 -9 -66 -31 -148 -51 -193 -3 -7 -6 -16 -6 -19 0 -7 4 -20 6
-20 1 0 2 -2 2 -3 1 -2 7 -7 13 -10 13 -7 16 -10 14 -24 -2 -26 -17 -40 -29
-28 -2 1 -4 4 -4 6 0 1 -2 5 -5 7 -5 5 -8 6 -20 6 -14 1 -14 1 -19 -6 -33 -49
-63 -84 -101 -116 -25 -20 -23 -19 -40 -31 -8 -5 -14 -10 -15 -11 -4 -6 -68
-44 -97 -59 -32 -16 -35 -19 -35 -38 0 -13 2 -16 26 -34 5 -4 11 -9 13 -10 1
-1 6 -5 10 -8 4 -3 9 -7 11 -9 2 -2 6 -5 9 -7 3 -2 9 -6 12 -9 23 -20 34 -21
60 -5 20 12 30 2 29 -31 -1 -14 0 -19 7 -31 6 -12 11 -18 22 -26 4 -3 8 -6 9
-7 1 -1 5 -4 9 -7 4 -3 9 -7 11 -8 6 -6 28 -21 35 -24 11 -4 27 -3 38 3 8 5
20 14 52 38 11 7 16 19 20 40 1 8 4 15 5 17 1 1 11 2 23 2 11 0 23 2 26 3 8 3
86 82 95 96 4 6 10 16 14 21 6 11 11 16 26 32 5 6 12 15 16 20 3 6 10 16 15
24 9 15 13 22 31 55 l9 17 0 26 c0 14 0 37 -1 51 -3 30 -2 32 14 39 24 11 32
18 39 32 4 12 20 85 24 118 0 4 2 14 3 21 5 34 10 94 15 178 1 10 2 69 2 129
l2 110 5 5 c6 6 3 5 34 7 14 1 30 2 37 2 7 1 20 1 30 2 30 2 79 5 88 6 4 0 17
1 28 2 11 1 23 2 27 2 10 1 30 10 38 18 3 3 8 11 10 19 4 12 4 19 5 142 l2
130 -6 11 c-4 9 -7 11 -16 16 -12 6 -15 6 -45 2 -19 -2 -55 -7 -103 -12 -15
-2 -55 -5 -99 -9 -24 -2 -25 -2 -34 2 -7 4 -9 6 -12 16 -5 16 -5 21 4 46 l8
23 0 40 c0 43 0 45 7 54 4 4 5 5 5 2 0 -2 6 -11 14 -19 13 -14 14 -14 30 -19
9 -3 18 -5 20 -5 4 0 16 -11 16 -14 0 -5 13 -22 20 -27 31 -19 89 -28 137 -22
30 3 80 22 98 36 4 3 7 5 8 5 1 0 2 1 4 3 1 1 5 4 8 6 18 12 52 48 57 60 1 1
3 6 6 10 18 27 33 69 31 82 -1 5 -3 11 -5 14 -5 5 -22 13 -31 14 -7 0 -13 5
-13 11 0 6 6 11 12 11 5 0 19 3 28 7 7 3 13 16 12 26 0 12 -8 42 -13 48 -7 11
-17 15 -38 15 -29 0 -34 8 -19 31 6 11 7 14 7 26 0 13 -4 22 -10 22 -2 0 -3 1
-3 2 -2 4 -26 8 -39 6 -12 -2 -25 0 -30 4 -2 1 -6 10 -11 19 -11 24 -24 34
-44 38 -4 1 -10 2 -13 2 -7 2 -54 3 -55 2z m102 -117 c1 0 5 -3 8 -6 5 -5 6
-7 6 -17 0 -13 -3 -18 -12 -26 -11 -10 -16 -33 -9 -48 4 -10 11 -37 10 -41 0
-2 -3 -13 -7 -24 -6 -18 -8 -22 -17 -31 -17 -16 -32 -22 -61 -22 -21 0 -24 1
-37 6 -41 17 -57 68 -36 115 10 24 34 39 68 42 19 1 33 6 40 14 2 2 7 10 11
18 5 11 9 16 13 18 5 3 9 3 23 2z m59 -141 c3 -5 3 -6 1 -11 -6 -10 -18 -7
-18 5 0 12 11 15 17 6z m0 -70 c6 -4 6 -6 6 -20 0 -14 0 -16 -6 -20 -4 -4 -7
-5 -18 -5 -11 0 -14 1 -18 5 -6 4 -6 6 -6 20 0 15 0 16 6 20 9 7 28 7 36 0z
m-517 -275 c5 -5 5 -11 0 -16 -10 -10 -27 5 -16 16 4 4 12 4 16 0z m211 -27
c3 -5 3 -5 0 -10 -2 -3 -5 -5 -7 -5 -2 0 -5 2 -7 5 -3 5 -3 5 0 10 2 3 5 5 7
5 2 0 5 -2 7 -5z m-714 -24 c3 -5 3 -5 0 -10 -2 -3 -5 -5 -7 -5 -2 0 -5 2 -7
5 -3 5 -3 5 0 10 2 3 5 5 7 5 2 0 5 -2 7 -5z m250 -16 c3 -5 3 -5 0 -10 -2 -3
-5 -5 -7 -5 -2 0 -5 2 -7 5 -3 5 -3 5 0 10 2 3 5 5 7 5 2 0 5 -2 7 -5z m510
-71 c7 -6 7 -19 1 -25 -6 -7 -19 -7 -25 -1 -7 6 -7 19 -1 25 6 7 19 7 25 1z
m-768 -44 c10 -10 4 -25 -11 -26 -5 -1 -8 0 -12 4 -5 4 -5 5 -3 11 5 15 17 20
26 11z m-53 -40 c4 -3 5 -6 4 -12 -1 -22 -8 -30 -25 -30 -10 0 -12 1 -17 6 -5
5 -6 7 -6 17 0 10 1 12 6 17 5 5 7 6 19 6 11 0 15 -1 19 -4z m658 -49 c12 -5
18 -21 14 -36 -3 -9 -7 -14 -18 -21 -14 -7 -17 -9 -23 -14 -15 -14 -18 -16
-21 -16 -2 0 -4 -1 -5 -2 -3 -3 -15 2 -18 6 -10 13 -10 44 0 44 3 0 3 0 1 2
-2 2 6 4 15 4 3 0 6 3 10 12 6 13 10 18 19 21 6 3 19 2 26 0z m-96 -15 c2 -2
5 -6 7 -10 3 -5 3 -6 -2 -11 -7 -7 -15 -6 -23 4 -11 12 6 29 18 17z m68 -116
c11 -3 16 -10 16 -23 0 -10 -1 -12 -6 -17 -5 -5 -7 -6 -17 -6 -10 0 -12 1 -17
6 -5 5 -6 7 -6 17 0 11 3 17 12 22 6 3 9 3 18 1z m-21 -405 c4 -4 5 -7 5 -15
0 -14 -6 -20 -20 -20 -14 0 -20 6 -20 20 0 14 6 20 20 20 8 0 11 -1 15 -5z
m-250 -212 c5 -8 1 -16 -8 -16 -9 0 -13 8 -8 16 2 3 5 5 8 5 3 0 6 -2 8 -5z
m60 -143 c11 -10 3 -28 -11 -28 -9 0 -16 6 -16 16 0 14 17 22 27 12z m-133
-130 c5 -6 5 -12 0 -18 -7 -8 -22 -2 -22 9 0 11 15 17 22 9z"/>
<path d="M206 3658 c-16 -5 -28 -21 -29 -39 0 -4 -1 -21 -2 -37 -1 -37 -3 -53
-5 -76 -3 -25 -3 -44 0 -51 2 -5 8 -13 8 -10 0 1 5 2 12 1 6 -1 11 -1 11 0 -2
3 9 10 17 12 10 2 23 0 28 -6 6 -5 8 -18 6 -29 -3 -14 -1 -30 7 -45 7 -16 8
-29 2 -41 l-4 -8 -16 0 c-17 1 -22 3 -29 14 -8 11 -18 16 -34 15 -7 0 -9 -1
-13 -6 -3 -4 -7 -8 -8 -9 -3 -3 -10 -18 -12 -25 -1 -6 -6 -46 -9 -75 -1 -11
-3 -33 -5 -49 -1 -16 -3 -35 -4 -43 -1 -8 -2 -18 -2 -22 -1 -4 -2 -26 -4 -49
-2 -23 -3 -46 -4 -52 -1 -6 -1 -21 -2 -34 -1 -13 -2 -28 -2 -34 0 -6 -1 -23
-2 -38 -1 -15 -2 -31 -2 -36 0 -5 -1 -34 -2 -65 -2 -54 -1 -56 3 -65 4 -10 10
-16 22 -23 15 -8 20 -20 13 -28 -2 -3 -10 -8 -17 -12 -11 -7 -14 -10 -19 -19
l-5 -11 1 -47 c1 -51 5 -99 11 -149 2 -18 5 -36 5 -42 1 -5 2 -11 2 -13 1 -1
1 -6 2 -12 1 -5 4 -22 6 -38 3 -16 6 -32 6 -35 4 -24 28 -135 33 -152 5 -16 8
-30 9 -34 3 -14 16 -57 20 -65 5 -10 14 -19 32 -31 7 -5 11 -9 12 -13 1 -3 4
-11 7 -18 5 -13 12 -21 20 -23 2 0 5 -1 8 -2 3 -1 47 3 99 8 52 5 98 9 102 9
4 1 13 4 20 7 10 5 13 7 18 17 6 13 6 20 0 31 -6 10 -19 17 -40 19 -11 1 -14
2 -18 7 -7 8 -7 24 1 34 6 8 27 29 47 47 14 11 23 27 27 46 2 12 13 62 16 75
1 4 4 16 6 26 2 10 6 27 9 38 3 11 6 22 6 24 4 18 21 83 33 126 6 20 11 37 11
38 1 6 24 83 31 104 8 26 19 57 20 59 3 5 0 24 -4 32 -6 12 -19 22 -29 22 -13
0 -21 -4 -33 -18 -9 -11 -11 -12 -18 -12 -9 0 -16 7 -16 15 0 3 2 11 5 17 6
11 7 22 5 34 -1 5 -5 10 -7 10 -1 0 -17 10 -31 20 -8 6 -23 5 -34 0 -8 -5 -10
-7 -21 -30 -14 -28 -29 -60 -29 -61 0 0 -4 -9 -8 -18 -7 -15 -9 -17 -11 -15
-8 7 -9 10 -10 55 -1 31 -2 39 -5 46 -5 11 -21 27 -44 42 -23 15 -29 25 -20
33 5 4 7 5 20 1 14 -5 31 -4 38 1 9 6 15 24 17 46 2 26 8 88 13 128 6 48 7 60
4 70 -4 14 -4 14 -5 27 -2 13 1 19 12 36 3 4 7 12 9 18 6 17 2 28 -15 46 -10
11 -13 15 -13 20 0 9 3 12 21 21 9 4 18 9 19 11 7 8 12 22 18 54 3 18 10 49
15 69 10 42 10 49 0 65 -4 4 -8 12 -10 16 -3 8 -3 9 0 14 2 3 9 7 16 10 23 10
35 29 35 56 0 22 -11 36 -37 45 -6 2 -13 4 -16 4 -3 0 -68 6 -143 13 -75 7
-138 13 -139 13 -1 0 -5 -1 -9 -2z m96 -367 c7 -8 6 -25 -2 -33 -5 -5 -7 -6
-17 -6 -10 0 -12 1 -17 6 -12 11 -6 40 8 42 9 1 22 -3 28 -9z m-84 -307 c5 -5
5 -15 0 -20 -9 -9 -24 -2 -24 10 0 8 6 14 14 14 3 0 8 -2 10 -4z m117 -192 c5
-5 6 -7 6 -16 0 -9 -1 -11 -7 -16 -5 -6 -7 -7 -16 -7 -9 0 -11 1 -16 7 -9 8
-9 23 -1 32 9 9 24 9 34 0z m-70 -301 c4 -4 5 -7 5 -15 0 -14 -6 -20 -20 -20
-14 0 -20 6 -20 20 0 14 6 20 20 20 8 0 11 -1 15 -5z m146 -245 c11 -10 3 -28
-11 -28 -9 0 -16 6 -16 16 0 14 17 22 27 12z"/>
</g>
</svg>
