<?xml version="1.0" standalone="no"?>
<!DOCTYPE svg PUBLIC "-//W3C//DTD SVG 20010904//EN"
 "http://www.w3.org/TR/2001/REC-SVG-20010904/DTD/svg10.dtd">
<svg version="1.0" xmlns="http://www.w3.org/2000/svg"
 width="1000.000000pt" height="2850.000000pt" viewBox="0 0 1000.000000 2850.000000"
 preserveAspectRatio="xMidYMid meet">
<metadata>
Created by potrace 1.15, written by Peter Selinger 2001-2017
</metadata>
<g transform="translate(0.000000,2850.000000) scale(0.500000,-0.500000)"
fill="#000000" stroke="none">
<path d="M1795 3860 c-30 -13 -35 -17 -35 -35 0 -11 1 -13 7 -21 5 -6 7 -11 8
-19 3 -19 -2 -41 -8 -41 -2 0 -9 3 -16 6 -7 3 -14 6 -16 6 -3 0 -29 10 -35 14
-10 6 -17 9 -26 8 -13 0 -15 -4 -13 -21 0 -6 -1 -13 -6 -24 -5 -12 -8 -25 -6
-34 1 -8 19 -45 28 -58 9 -14 5 -22 -13 -21 -7 0 -14 -3 -40 -15 -17 -8 -33
-16 -35 -17 -5 -3 -48 -22 -58 -25 -11 -5 -63 -23 -72 -26 -29 -10 -123 -39
-131 -40 -3 -1 -6 -2 -8 -3 -2 -1 -5 0 -8 4 l-6 5 0 80 c1 44 2 91 3 104 3 36
-1 49 -20 58 l-10 5 -82 0 -82 0 -11 -5 c-20 -11 -23 -22 -19 -68 2 -21 3 -73
3 -166 0 -145 0 -146 10 -155 7 -6 28 -14 32 -12 2 1 6 2 10 2 9 0 14 -9 14
-27 0 -12 -1 -14 -6 -19 -5 -6 -9 -7 -16 -6 -5 1 -28 -9 -34 -14 -10 -10 -10
-13 -10 -117 1 -90 2 -97 5 -111 16 -57 52 -97 107 -122 21 -9 31 -10 46 -3 9
3 12 7 13 18 1 9 1 12 -6 25 -16 31 -7 53 20 53 13 0 20 -4 31 -19 5 -8 12
-14 14 -15 2 -1 4 -2 4 -3 0 -1 1 -2 2 -2 1 0 4 -2 6 -3 15 -13 17 -21 10 -31
-6 -9 -6 -35 0 -40 5 -5 6 -5 16 -1 9 3 12 5 26 20 17 17 33 19 45 4 20 -26
28 -30 64 -30 39 -1 59 2 79 8 19 6 30 7 51 2 8 -1 16 -2 19 -1 3 1 6 2 7 2 4
0 15 13 19 21 8 18 16 18 32 0 18 -20 34 -20 55 0 11 10 16 18 21 32 7 20 2
32 -19 42 -8 4 -17 7 -20 7 -2 0 -7 2 -10 5 -6 4 -6 6 -6 20 0 14 0 16 6 20 3
3 8 5 10 5 3 0 12 3 20 7 14 7 15 8 20 18 3 6 5 14 5 18 0 9 -5 23 -11 28 -6
7 -26 13 -32 11 -3 -2 -26 -6 -44 -9 -3 -1 -11 -3 -18 -4 -15 -4 -18 -4 -54
-6 -15 -1 -28 -1 -29 -2 -1 -1 -22 -2 -62 -4 -12 -1 -30 -2 -40 -2 -40 -3
-112 -1 -143 3 -23 3 -37 -1 -51 -16 -8 -9 -14 -12 -23 -12 -10 0 -17 7 -17
17 0 11 3 15 19 22 29 14 31 20 31 85 l0 49 5 8 c4 4 8 7 10 7 4 0 105 27 138
37 56 17 84 26 87 28 8 6 12 31 7 43 -3 6 -3 8 0 15 2 5 4 8 5 8 5 -3 13 -18
12 -23 0 -4 1 -6 2 -6 1 0 2 -1 2 -2 0 -8 23 -17 36 -14 17 4 71 26 131 52 24
11 31 35 17 58 -6 10 -10 15 -25 31 -4 4 -7 10 -9 14 -1 5 -4 16 -7 26 -3 10
-10 26 -15 36 -6 10 -12 20 -13 23 -2 3 -2 6 -1 8 1 2 1 4 1 4 -1 2 4 2 17 2
9 0 25 6 55 19 3 2 9 4 13 6 8 3 22 14 22 18 0 1 3 5 6 9 7 7 6 7 28 2 l12 -3
32 14 c18 7 36 16 40 18 8 6 14 19 14 29 0 7 -1 9 -10 26 -15 26 -20 34 -29
50 -6 9 -13 21 -16 26 -7 14 -21 27 -30 30 -14 4 -23 2 -48 -8z m-582 -280
c10 -9 3 -26 -10 -26 -8 0 -15 7 -15 15 0 13 16 20 25 11z m333 -83 c7 -4 11
-9 14 -19 2 -8 2 -11 -3 -25 -8 -23 -8 -23 -14 -21 -2 1 -5 1 -6 1 0 -1 -1 -1
-1 0 0 2 -5 5 -11 7 -14 6 -18 10 -21 22 -2 9 0 22 6 29 7 8 24 11 36 6z
m-320 -24 l-5 -5 -4 4 -5 5 4 4 5 5 4 -4 5 -5 -4 -4z m-44 -87 c2 -5 2 -6 -2
-11 -6 -9 -11 -10 -15 -3 -4 6 -4 9 0 16 4 6 13 5 17 -2z m116 -23 c3 -3 4 -7
4 -14 0 -13 -6 -19 -19 -19 -13 0 -19 6 -19 19 0 7 1 11 4 14 7 8 23 8 30 0z
m174 -296 l-5 -5 -4 4 -5 5 4 4 5 5 4 -4 5 -5 -4 -4z m51 -51 c5 -7 4 -19 -2
-25 -11 -11 -31 -4 -31 12 0 10 3 15 10 18 8 3 17 1 23 -5z"/>
<path d="M248 2747 c-19 -8 -26 -24 -22 -52 4 -23 4 -199 0 -255 -3 -45 -7
-89 -10 -103 -3 -11 -4 -34 -1 -41 1 -5 5 -12 9 -16 8 -8 12 -17 11 -28 -2
-25 -13 -40 -29 -43 -17 -2 -33 -9 -41 -17 -4 -4 -14 -17 -23 -29 -15 -21 -39
-46 -61 -67 -10 -9 -13 -15 -12 -29 0 -13 4 -18 15 -26 7 -5 49 -36 107 -80
11 -8 23 -16 26 -17 8 -3 20 -2 30 2 9 4 35 30 53 54 5 6 11 13 12 15 14 15
42 62 42 69 0 2 1 11 3 21 l4 18 13 13 c8 7 15 16 17 19 7 15 21 60 28 93 4
15 1 27 -7 41 -6 9 -11 12 -28 18 -6 2 -14 6 -17 8 -4 3 -7 5 -8 5 -1 0 -4 2
-7 5 -7 5 -30 11 -40 10 -14 -2 -20 11 -13 25 5 8 21 19 32 22 15 4 18 2 28
-19 13 -28 23 -32 46 -22 12 5 22 18 29 37 5 13 7 32 9 99 1 19 1 42 2 51 1 9
1 44 1 78 1 34 2 71 3 83 1 12 2 23 2 23 -1 1 -1 4 -2 8 -2 11 -8 19 -19 25
-10 5 -13 5 -37 5 -25 0 -47 -4 -47 -8 0 -1 -2 -2 -4 -3 -2 0 -5 -2 -5 -4 -1
-2 -2 -4 -3 -5 -1 -1 -4 -6 -7 -12 -8 -19 -23 -24 -26 -10 0 4 -6 17 -11 26
-6 13 -27 19 -42 13z m76 -109 c7 -6 8 -20 2 -25 -13 -13 -34 10 -22 25 4 5
13 5 20 0z m74 -46 c5 -5 5 -15 0 -20 -9 -9 -24 -2 -24 10 0 8 6 14 14 14 3 0
8 -2 10 -4z m-53 -72 c9 -7 30 -18 33 -18 4 0 16 -9 17 -12 2 -7 -2 -11 -18
-19 -15 -7 -20 -11 -35 -29 -7 -8 -8 -8 -21 -8 -25 0 -30 13 -21 58 4 20 5 24
10 29 9 8 22 8 35 -1z m-4 -336 c4 -6 4 -22 0 -30 -2 -3 -5 -6 -8 -7 -9 -1
-23 2 -27 7 -5 6 -5 24 0 30 7 9 27 9 35 0z"/>
<path d="M541 2746 c-28 -13 -29 -50 -3 -93 12 -20 12 -30 -1 -52 -12 -21 -14
-32 -10 -45 2 -5 5 -11 7 -14 7 -7 29 -11 40 -6 7 2 20 1 28 -2 14 -6 24 -8
37 -7 7 1 13 2 14 4 0 1 -1 7 -2 12 -4 13 -4 16 1 21 7 8 22 2 22 -8 0 -5 -9
-20 -15 -27 -5 -5 -5 -6 -4 -16 0 -6 2 -13 3 -14 3 -3 2 -13 -2 -17 -3 -3 -6
-3 -33 -3 -38 1 -61 -2 -74 -8 l-11 -5 0 -11 c0 -19 1 -22 13 -28 14 -7 20
-13 31 -31 13 -20 17 -33 14 -44 -4 -15 -11 -20 -27 -21 -23 -2 -39 -11 -43
-27 -1 -4 -2 -58 -3 -122 0 -63 -1 -119 -2 -123 -6 -30 0 -47 26 -68 18 -15
33 -18 53 -11 21 8 33 6 50 -9 10 -8 25 -12 36 -9 9 3 29 15 33 21 5 8 6 32 2
39 -5 7 -4 22 2 27 7 8 21 7 32 -2 19 -15 41 -17 51 -5 1 1 3 3 5 4 10 7 51
42 80 68 18 17 79 77 93 94 19 21 22 28 22 42 0 12 -2 18 -13 34 -3 4 -7 9 -8
11 -15 22 -23 32 -27 35 -8 6 -27 7 -39 2 -13 -5 -22 -4 -43 4 -21 7 -30 7
-43 -3 -14 -11 -18 -20 -19 -46 -1 -25 -2 -29 -14 -34 -6 -3 -8 -3 -21 0 -8 2
-17 3 -20 3 -4 -1 -5 0 -10 7 l-5 8 0 58 c0 37 -1 59 -2 60 -1 1 -2 3 -2 5 0
5 -17 22 -21 22 -3 0 -15 13 -15 16 0 3 12 16 15 16 4 0 21 17 21 21 0 2 1 5
2 6 1 1 2 51 3 112 1 61 1 115 2 121 0 17 -7 29 -21 37 l-11 5 -83 0 c-77 0
-84 0 -91 -4z m328 -539 c16 -8 16 -40 0 -48 -17 -9 -38 -2 -61 21 -14 14 -14
24 1 29 11 4 51 3 60 -2z m-206 -42 c12 -7 14 -33 3 -43 -8 -9 -32 -9 -40 0
-9 8 -9 32 0 41 7 7 27 8 37 2z"/>
</g>
</svg>
