<?xml version="1.0" standalone="no"?>
<!DOCTYPE svg PUBLIC "-//W3C//DTD SVG 20010904//EN"
 "http://www.w3.org/TR/2001/REC-SVG-20010904/DTD/svg10.dtd">
<svg version="1.0" xmlns="http://www.w3.org/2000/svg"
 width="985.000000pt" height="2850.000000pt" viewBox="0 0 985.000000 2850.000000"
 preserveAspectRatio="xMidYMid meet">
<metadata>
Created by potrace 1.15, written by Peter Selinger 2001-2017
</metadata>
<g transform="translate(0.000000,2850.000000) scale(0.500000,-0.500000)"
fill="#000000" stroke="none">
<path d="M800 3996 c-13 -1 -9 3 -73 -61 -37 -36 -47 -48 -49 -54 -2 -7 -2
-19 1 -40 1 -6 1 -8 -3 -12 -4 -5 -6 -5 -14 -4 -20 3 -34 2 -40 -5 -6 -5 -7
-22 -3 -35 4 -12 2 -24 -5 -32 -7 -8 -11 -18 -10 -30 1 -11 2 -12 13 -23 16
-14 21 -16 34 -16 9 1 14 2 22 8 28 16 48 1 36 -28 -1 -4 -2 -8 -2 -9 2 -18 3
-21 9 -23 6 -3 14 -3 36 -1 14 1 16 1 21 -4 l6 -5 0 -24 c1 -33 4 -40 21 -53
20 -14 22 -16 38 -31 8 -8 21 -20 27 -25 7 -6 17 -15 24 -21 18 -15 25 -18 50
-20 25 -2 28 -4 36 -18 6 -12 12 -18 17 -18 2 0 8 0 14 -1 l10 0 71 70 c39 39
72 73 74 76 3 6 4 24 1 32 -1 2 -8 12 -15 20 -8 9 -18 21 -22 26 -4 5 -14 17
-21 25 -7 8 -17 20 -21 25 -4 5 -17 20 -27 32 -10 12 -22 26 -26 31 -4 5 -13
16 -21 25 -8 9 -17 20 -21 25 -4 5 -13 16 -20 24 -7 8 -17 20 -21 25 -7 8 -23
27 -40 47 -2 3 -9 12 -16 19 -9 11 -13 15 -19 17 -10 3 -24 2 -34 -1 -12 -4
-16 -4 -20 1 -5 6 -5 11 2 25 9 20 8 37 -3 40 -3 1 -11 2 -17 1z m61 -300 c4
-6 4 -24 -1 -30 -7 -9 -27 -9 -34 0 -5 6 -5 24 0 30 7 9 27 9 35 0z"/>
<path d="M770 3268 c-20 -2 -36 -5 -44 -7 -1 0 -4 -1 -7 -2 -44 -10 -78 -25
-122 -51 -14 -8 -33 -22 -42 -30 -2 -1 -4 -2 -5 -2 -1 0 -2 -1 -2 -2 -1 0 -6
-5 -12 -9 -10 -9 -31 -27 -47 -42 -8 -7 -10 -9 -13 -7 -7 4 -10 11 -16 47 -4
20 -7 37 -7 39 -3 18 -19 34 -36 38 -9 2 -252 2 -260 0 -2 0 -3 -1 -3 -2 0 -1
-1 -2 -3 -2 -4 0 -14 -12 -18 -21 -2 -6 -3 -14 -3 -36 0 -32 2 -41 10 -47 7
-5 28 -8 32 -5 1 2 7 3 15 3 18 0 23 -5 25 -21 1 -22 -5 -28 -28 -30 -13 -1
-14 -1 -14 2 0 2 -1 3 -2 2 0 -1 -4 -3 -7 -5 -5 -3 -6 -4 -7 -13 0 -6 1 -16 3
-23 2 -6 3 -15 3 -19 0 -10 -8 -27 -17 -38 -6 -6 -7 -9 -7 -16 0 -12 2 -15 16
-30 16 -16 16 -20 -1 -38 -20 -20 -21 -24 -20 -73 0 -38 1 -43 6 -60 l5 -20
-5 -19 -6 -20 0 -299 c-1 -269 -1 -300 2 -307 4 -9 14 -21 18 -21 2 0 3 -1 3
-2 0 -1 1 -2 3 -2 1 0 53 -1 116 -1 109 -1 113 -1 122 3 10 4 14 10 17 24 2 5
4 10 5 10 1 0 0 1 -2 3 -4 2 -4 3 0 8 5 6 9 6 14 0 4 -5 4 -6 0 -8 -2 -2 -3
-3 -2 -3 1 0 3 -5 5 -10 3 -14 7 -20 18 -24 9 -4 10 -5 38 -2 1 1 2 1 2 2 0 1
1 2 3 2 4 0 14 12 18 21 3 7 3 15 2 48 0 22 -1 43 -2 46 -1 5 -9 17 -9 14 0
-1 -6 -2 -12 -2 -13 1 -13 1 -14 7 l0 6 14 0 c7 0 14 1 15 2 0 0 -6 1 -14 0
-8 0 -15 0 -15 1 0 1 6 2 13 1 14 0 22 2 17 6 -1 1 -2 3 -1 5 1 3 0 3 -14 3
-15 0 -15 0 -16 6 0 3 -1 -5 -1 -16 0 -18 -1 -22 -4 -25 -5 -4 -14 -4 -19 1
-5 4 -5 5 -4 29 1 20 1 26 -3 35 -7 20 1 36 17 36 23 0 26 0 32 2 4 1 7 3 7 4
0 1 1 2 3 2 1 0 5 4 7 9 4 8 4 10 4 108 -1 116 0 107 -23 130 l-15 14 0 12 0
12 15 14 c23 23 22 14 23 128 1 114 0 106 24 130 22 23 27 26 75 50 22 11 23
11 27 21 7 17 7 25 1 33 -3 5 -6 8 -7 9 -1 1 -2 3 -3 7 -3 4 -2 5 1 5 4 1 6 1
14 3 18 3 29 2 42 -5 7 -4 20 -10 29 -14 9 -3 17 -7 19 -9 1 -1 4 -10 7 -19 6
-24 7 -26 19 -41 19 -24 28 -53 33 -101 2 -22 3 -29 7 -45 3 -12 2 -27 -1 -45
-5 -24 -4 -600 1 -608 2 -3 3 -5 3 -6 -1 -1 8 -3 20 -3 6 0 11 -1 11 -2 1 -1
2 -1 2 1 0 4 7 9 15 11 14 3 16 3 21 4 3 0 11 1 18 1 14 0 20 -2 27 -14 6 -10
13 -16 22 -22 l8 -5 99 0 c98 0 110 0 110 3 0 1 1 2 3 2 4 0 14 12 18 21 4 10
4 64 0 76 -3 10 -8 20 -12 23 -6 5 -13 17 -13 22 0 3 2 10 5 17 4 12 6 19 11
48 1 8 3 16 4 18 7 12 8 26 8 83 0 73 -1 75 -33 91 -18 9 -21 13 -21 27 0 14
3 18 21 27 32 16 33 18 33 91 0 56 0 56 -5 67 -5 10 -13 18 -26 26 -10 5 -14
12 -14 23 0 11 4 18 14 23 22 13 31 28 31 52 0 27 5 37 34 60 31 27 76 52 101
56 38 7 76 3 98 -9 18 -10 34 -36 39 -61 5 -21 8 -39 9 -53 1 -8 2 -20 2 -27
1 -7 1 -125 1 -263 0 -268 0 -263 9 -272 5 -5 31 -14 32 -12 2 3 16 0 21 -5 6
-6 9 -22 11 -56 l2 -21 -7 -6 c-5 -6 -6 -6 -24 -6 -24 0 -34 -4 -40 -17 -4 -8
-4 -9 -2 -18 3 -10 14 -25 19 -25 2 0 3 -1 3 -2 0 -3 14 -3 168 -3 154 0 168
0 168 3 0 1 1 2 3 2 4 0 14 12 18 21 4 11 4 97 0 108 -3 8 -11 20 -14 21 0 0
-2 1 -4 3 -4 4 -16 10 -24 13 -13 4 -32 13 -35 17 -6 7 -8 20 -6 30 3 13 14
21 28 20 9 0 18 -3 18 -5 0 -2 24 3 30 6 10 6 10 -3 10 256 0 221 0 241 -4
260 -2 12 -3 25 -3 29 3 39 0 65 -14 125 -10 43 -29 89 -40 97 -7 5 -33 6 -38
1 -24 -22 -27 -28 -31 -51 -3 -21 -12 -35 -26 -42 -10 -4 -15 -4 -19 2 -7 7
-9 15 -12 40 -1 15 -7 30 -15 39 -4 5 -9 11 -11 14 -3 6 -4 17 -1 19 3 2 8 30
7 38 0 4 -2 10 -4 14 -6 11 -3 35 6 41 1 1 1 9 1 18 -1 15 -1 16 -7 21 -3 3
-7 5 -8 5 -1 0 -8 2 -15 5 -24 10 -53 17 -63 14 -4 -1 -9 -2 -10 -2 -2 0 -3 0
-2 -1 0 0 -1 -2 -4 -5 -3 -2 -5 -5 -6 -7 0 -2 -1 -5 -2 -7 -2 -4 -2 -28 0 -39
0 -4 1 -8 1 -10 0 -2 3 -6 6 -10 9 -10 16 -20 16 -25 0 -11 -14 -17 -22 -9 -5
5 -10 14 -11 20 0 4 -2 7 -5 7 0 0 -3 2 -6 5 -3 2 -11 7 -17 10 -7 4 -14 8
-16 10 -5 5 -7 19 -5 27 1 4 1 7 1 8 -1 0 -2 4 -2 8 -1 5 -2 9 -4 9 -1 1 -2 2
-1 2 1 1 -1 3 -3 6 -5 7 -19 11 -30 9 -4 -1 -11 -2 -14 -2 -13 -2 -49 -12 -63
-17 -17 -6 -61 -27 -73 -35 -4 -3 -11 -6 -14 -8 -4 -2 -7 -4 -7 -5 0 -1 -3 -3
-6 -4 -4 -2 -6 -4 -6 -7 -2 -24 0 -35 4 -35 1 0 2 -1 2 -3 0 -1 1 -4 3 -5 7
-6 1 -18 -9 -20 -4 0 -6 1 -18 12 -4 5 -10 9 -13 10 -8 3 -22 2 -27 -1 -18
-15 -30 -27 -35 -37 -8 -16 -12 -19 -21 -14 -4 1 -7 4 -8 4 0 1 -1 2 -3 2 -1
0 -8 9 -15 19 -14 21 -22 28 -39 35 -16 6 -20 10 -29 28 -11 24 -28 38 -68 55
-20 9 -26 9 -45 2 -27 -10 -33 -10 -43 0 -10 9 -18 14 -25 16 -3 1 -7 2 -9 2
-2 1 -9 2 -17 3 -8 1 -21 3 -29 5 -9 2 -17 3 -18 3 -2 0 -9 -1 -16 -2z m-16
-61 l-5 -5 -4 4 -5 5 4 4 5 5 4 -4 5 -5 -4 -4z m-445 -111 c5 -5 6 -7 6 -16 0
-9 -1 -11 -7 -16 -5 -6 -7 -7 -16 -7 -9 0 -11 1 -16 7 -9 8 -9 23 -1 32 9 9
24 9 34 0z m285 -5 c6 -7 6 -22 0 -28 -4 -4 -7 -5 -15 -5 -8 0 -11 1 -15 5 -6
6 -6 21 0 28 7 8 23 8 30 0z m288 -11 c7 -2 14 -6 16 -9 6 -6 5 -17 -1 -23 -5
-5 -6 -5 -47 -5 -40 -1 -42 -1 -46 3 -5 5 -5 8 -1 16 3 7 17 17 26 19 3 1 6 2
6 3 2 4 33 1 47 -4z m306 -7 c9 -8 2 -25 -11 -25 -13 0 -21 18 -12 28 5 5 15
4 23 -3z m-703 -38 c10 -4 13 -10 13 -23 0 -19 -11 -28 -32 -25 -21 2 -28 10
-26 32 1 14 27 24 45 16z m964 -4 c12 -7 14 -33 3 -43 -9 -10 -33 -9 -41 1 -7
8 -7 30 0 38 7 9 27 11 38 4z m93 -6 c6 -2 34 -36 38 -46 1 -6 1 -7 -3 -11 -4
-4 -5 -4 -17 -1 -28 7 -46 13 -50 18 -5 7 -6 26 -1 33 6 8 20 11 33 7z m-184
-10 c6 -4 6 -18 0 -22 -11 -7 -24 -1 -24 11 0 12 13 18 24 11z m-743 -5 c0 -1
4 -2 7 -3 6 -1 6 -1 3 -5 -5 -5 -17 -7 -18 -2 -1 1 -3 4 -4 4 -2 2 3 8 7 8 2
0 4 -1 5 -2z m-323 -24 c1 0 5 -3 8 -6 5 -5 6 -7 6 -17 0 -18 -9 -32 -23 -38
-10 -4 -15 -4 -20 2 -6 6 -8 16 -6 32 1 15 5 22 13 26 5 2 8 2 22 1z m872 -12
c5 -5 5 -15 0 -20 -9 -9 -24 -2 -24 10 0 8 6 14 14 14 3 0 8 -2 10 -4z m-172
-38 c8 -8 3 -22 -12 -30 -7 -4 -16 -12 -36 -36 -12 -12 -15 -22 -13 -39 2 -19
1 -22 -5 -33 -8 -13 -12 -24 -13 -43 -2 -24 -8 -29 -34 -27 -2 0 -6 3 -9 6 -5
5 -6 7 -6 18 0 10 1 13 8 22 4 6 9 12 10 14 3 3 12 29 12 35 0 2 3 7 7 12 14
17 15 23 12 50 -2 16 1 21 14 26 12 4 29 13 34 19 3 2 6 4 7 4 1 0 3 1 4 3 4
4 15 4 20 -1z m757 -31 c12 -7 14 -33 3 -43 -8 -9 -32 -9 -40 0 -9 8 -9 32 0
41 7 7 27 8 37 2z m-681 -38 l-4 -5 -7 4 -7 4 6 5 7 4 5 -4 4 -4 -4 -4z m-820
-8 c4 -3 8 -7 9 -8 4 -7 35 -14 38 -9 2 4 13 2 18 -2 10 -9 3 -26 -9 -26 -3 0
-11 3 -18 7 -14 9 -33 12 -40 6 -8 -5 -23 -4 -29 2 -7 7 -7 23 0 30 7 7 22 7
31 0z m770 -8 c2 -2 2 -3 -2 -3 -2 0 -4 -1 -4 -2 -1 -2 -2 -2 -5 0 -3 3 -3 4
-1 7 3 3 9 2 12 -2z m634 -29 c1 0 5 -3 8 -6 5 -5 6 -7 6 -18 0 -11 -1 -13 -6
-18 -6 -6 -7 -6 -18 -6 -11 0 -12 0 -18 6 -5 5 -6 7 -6 17 0 14 3 20 12 24 5
2 8 2 22 1z m-1256 -143 c7 -8 6 -21 -3 -32 -9 -11 -16 -26 -20 -42 -4 -14 -8
-19 -19 -19 -17 0 -23 16 -13 33 14 22 21 40 21 51 0 14 24 20 34 9z m561 3
c10 -9 3 -26 -10 -26 -8 0 -15 7 -15 15 0 13 16 20 25 11z m598 -2 c10 -9 3
-26 -10 -26 -8 0 -15 7 -15 15 0 13 16 20 25 11z m101 -5 c3 -2 8 -6 11 -8 8
-7 25 -14 38 -16 3 -1 9 -4 12 -7 5 -5 6 -7 6 -16 0 -9 -1 -11 -7 -16 -5 -6
-7 -7 -16 -7 -11 0 -17 4 -26 18 -7 10 -15 16 -28 23 -11 6 -16 11 -16 18 0
12 14 18 26 11z m-557 -8 c3 -3 3 -3 0 -6 -3 -3 -3 -3 -6 0 -3 2 -3 3 -1 6 4
4 4 4 7 0z m471 -67 c5 -5 6 -7 6 -17 0 -10 -1 -12 -6 -17 -5 -5 -7 -6 -17 -6
-10 0 -12 1 -17 6 -5 5 -6 7 -6 17 0 10 1 12 6 17 5 5 7 6 17 6 10 0 12 -1 17
-6z m-1351 -52 c10 -9 3 -26 -10 -26 -8 0 -15 7 -15 15 0 13 16 20 25 11z
m1468 -48 c8 -8 8 -23 -2 -48 -9 -23 -18 -29 -35 -26 -10 2 -14 8 -14 20 0 19
10 50 19 56 10 7 23 6 32 -2z m-141 -61 c3 -2 8 -7 12 -11 3 -4 6 -7 6 -8 1
-1 4 -5 7 -11 5 -8 5 -11 4 -22 -3 -34 -3 -43 -1 -53 2 -9 2 -11 -1 -15 -4 -7
-13 -6 -16 1 -3 6 -9 23 -10 29 -1 2 -5 9 -9 16 -10 14 -12 20 -12 47 0 29 4
35 20 27z m-570 -99 c28 -12 32 -16 32 -29 0 -7 -1 -11 -5 -14 -6 -7 -16 -7
-48 2 -31 8 -35 11 -35 28 0 10 1 12 6 17 9 9 21 8 50 -4z m-484 -103 c-7 -1
-14 -2 -14 -4 -1 -1 -2 -1 -2 2 0 3 2 3 15 3 l14 -1 -13 0z m490 -57 c5 -6 5
-12 0 -18 -7 -8 -22 -2 -22 9 0 11 15 17 22 9z"/>
<path d="M1705 3172 c1 -1 0 -2 -2 -2 -1 0 -5 -4 -9 -8 -3 -5 -8 -12 -11 -15
-14 -15 -18 -22 -20 -32 -2 -15 0 -17 20 -17 21 0 25 3 25 17 0 9 1 10 11 20
10 9 11 11 13 22 1 8 1 13 -1 14 -2 2 -27 3 -26 1z"/>
</g>
</svg>
