<?xml version="1.0" standalone="no"?>
<!DOCTYPE svg PUBLIC "-//W3C//DTD SVG 20010904//EN"
 "http://www.w3.org/TR/2001/REC-SVG-20010904/DTD/svg10.dtd">
<svg version="1.0" xmlns="http://www.w3.org/2000/svg"
 width="1000.000000pt" height="2850.000000pt" viewBox="0 0 1000.000000 2850.000000"
 preserveAspectRatio="xMidYMid meet">
<metadata>
Created by potrace 1.15, written by Peter Selinger 2001-2017
</metadata>
<g transform="translate(0.000000,2850.000000) scale(0.500000,-0.500000)"
fill="#000000" stroke="none">
<path d="M477 3803 c-59 -11 -89 -18 -95 -21 -10 -5 -15 -13 -17 -26 -2 -9 -1
-10 9 -37 3 -10 5 -17 4 -17 -1 0 -2 -2 -4 -5 -1 -3 -6 -6 -10 -9 -5 -2 -13
-7 -19 -12 -15 -14 -19 -16 -29 -16 -10 0 -14 2 -29 16 -18 16 -13 15 -96 15
-74 0 -85 0 -85 -3 0 -1 -1 -2 -3 -2 -4 0 -14 -12 -18 -21 -5 -11 -5 -121 0
-132 4 -9 14 -21 18 -21 2 0 3 -1 3 -2 0 -2 2 -2 51 -3 39 -1 47 -1 54 2 11 4
18 11 23 23 4 8 12 18 16 18 4 0 12 -10 16 -19 2 -5 7 -11 10 -14 7 -6 15 -21
14 -24 -3 -9 1 -25 12 -47 11 -25 8 -42 -10 -54 -20 -14 -25 -21 -40 -62 -15
-40 -28 -65 -52 -97 -14 -19 -54 -63 -58 -63 -1 0 -4 -2 -7 -5 -3 -3 -10 -8
-15 -12 -5 -3 -9 -6 -10 -7 -1 -1 -6 -5 -13 -9 -6 -4 -12 -9 -12 -10 -1 -2 -2
-3 -3 -2 -2 1 -4 -9 -4 -21 0 -10 0 -10 19 -31 26 -27 32 -33 65 -78 3 -5 12
-19 19 -31 13 -23 19 -27 37 -28 11 0 20 4 33 15 3 3 7 5 7 5 2 0 32 23 34 26
1 0 7 7 15 13 8 7 21 20 29 28 8 9 16 17 18 19 5 4 18 20 23 27 9 12 20 27 23
31 2 2 5 7 7 9 1 3 3 5 3 6 0 1 1 2 2 4 1 1 8 12 15 24 14 23 17 26 23 24 7
-2 9 -8 28 -70 1 -3 3 -14 5 -24 4 -28 11 -40 29 -49 9 -5 9 -5 81 -5 72 0 97
2 125 8 3 1 7 1 10 2 2 0 10 3 18 5 7 3 15 4 17 3 5 -1 4 -12 -2 -21 -3 -4 -5
-8 -5 -9 0 0 -3 -6 -7 -11 -3 -6 -7 -13 -9 -16 -1 -4 -7 -8 -13 -11 l-10 -5
-155 0 c-169 0 -165 0 -174 -11 -2 -3 -3 -6 -3 -7 1 -1 0 -2 -1 -2 -1 0 -2 -3
-3 -7 -1 -5 -2 -9 -3 -10 -2 -2 -2 -3 0 -3 3 0 2 -8 -2 -12 -4 -4 -12 -4 -15
1 -2 2 -3 3 -3 2 0 -1 -5 -3 -12 -4 -14 -1 -20 -5 -24 -17 -2 -6 -2 -77 -2
-282 0 -302 0 -282 13 -295 3 -4 7 -7 8 -7 2 0 3 -1 3 -2 0 -1 1 -2 3 -2 1 0
282 -1 624 -1 l623 -1 6 -6 c3 -3 5 -6 5 -6 0 -1 -1 -8 -2 -16 -5 -63 -10 -98
-17 -119 -8 -25 -25 -32 -79 -32 l-34 0 -5 6 -6 5 0 55 c0 45 -1 56 -3 62 -4
9 -14 21 -18 21 -2 0 -3 1 -3 2 0 3 -12 3 -91 3 l-81 0 -7 -6 c-9 -7 -13 -18
-13 -31 1 -28 -2 -36 -14 -40 -21 -8 -38 0 -42 18 -1 5 -1 11 0 15 3 13 -3 30
-13 38 -8 6 -8 6 -43 7 -21 0 -39 -1 -43 -2 -8 -2 -19 -11 -20 -16 0 -2 -1 -4
-1 -5 -3 -4 -5 -16 -4 -27 0 -9 0 -11 -6 -16 -6 -6 -7 -6 -18 -6 -11 0 -12 0
-18 6 -6 5 -6 7 -6 16 1 11 -1 23 -4 27 0 1 -1 3 -1 5 -1 5 -12 14 -19 16 -10
3 -409 3 -422 0 -5 -1 -11 -5 -14 -8 -4 -4 -4 -6 -3 -16 1 -9 1 -12 -1 -12 -1
0 -1 -1 1 -3 17 -17 21 -40 9 -54 -9 -10 -31 -11 -43 -1 -6 5 -7 12 -8 33 0
24 -3 34 -12 43 -6 6 -7 7 -17 6 -17 0 -20 -1 -25 -11 -9 -14 -15 -19 -23 -19
-8 0 -14 5 -25 22 -5 9 -9 13 -18 17 l-10 5 -145 -1 c-80 0 -146 -1 -147 -1
-2 0 -3 -1 -3 -2 0 -1 -1 -2 -3 -2 -4 0 -14 -12 -18 -21 -2 -6 -3 -17 -3 -70
0 -58 0 -62 4 -70 6 -12 19 -19 38 -22 11 -2 11 -2 23 -20 9 -14 12 -17 21
-22 l11 -5 339 0 339 1 10 6 c9 6 13 10 23 29 6 11 11 14 23 14 12 0 17 -3 23
-14 10 -19 14 -23 23 -29 l10 -6 175 -1 c203 -1 183 1 192 -22 7 -21 15 -51
21 -77 7 -38 13 -47 34 -56 l12 -5 94 1 c117 1 146 3 191 11 31 6 77 23 88 33
2 2 4 3 5 3 1 0 7 4 14 9 52 41 73 87 88 197 10 75 19 236 20 351 0 22 -3 31
-14 41 -12 10 -11 10 -166 10 -126 0 -145 1 -151 3 -3 2 -6 4 -5 5 1 1 -1 2
-3 2 -4 0 -2 1 3 3 15 4 43 27 60 47 23 28 46 89 56 151 0 3 2 14 4 24 4 20
14 105 17 133 2 23 -2 36 -13 45 -12 11 -14 11 -135 11 l-111 -1 -14 -7 c-28
-13 -32 -13 -59 0 l-15 7 -47 1 c-28 0 -56 -1 -70 -2 -17 -2 -28 -2 -40 0 -9
1 -26 2 -36 2 -22 1 -25 1 -23 6 1 3 0 4 -5 5 -5 0 -4 0 4 1 5 0 12 1 14 2 1
1 7 3 12 6 5 2 18 12 28 23 21 20 36 29 50 29 5 0 13 -3 23 -8 20 -10 32 -11
46 -5 6 3 12 5 13 5 1 0 8 3 16 7 8 3 20 9 27 12 15 6 42 21 58 31 24 17 30
16 60 -6 79 -58 170 -93 293 -113 22 -3 28 -4 35 -4 11 1 27 9 34 17 3 4 9 13
13 22 12 24 17 31 33 56 11 17 21 31 23 32 1 1 5 6 9 11 4 6 9 11 10 11 1 1 1
7 1 15 -2 21 -9 26 -40 28 -12 1 -25 2 -29 2 -4 0 -17 2 -28 3 -11 1 -23 3
-27 3 -17 3 -31 -2 -41 -14 -14 -17 -19 -21 -27 -21 -9 0 -15 6 -17 15 -2 11
-11 31 -15 32 -2 0 -2 1 1 1 3 0 6 1 7 3 5 6 20 7 84 7 73 0 77 1 83 14 4 10
7 24 8 33 0 5 3 14 7 22 6 13 7 16 8 37 0 17 0 24 -3 31 -4 9 -14 21 -18 21
-2 0 -3 1 -3 2 0 2 -10 3 -42 3 -30 0 -32 0 -49 -7 -23 -8 -30 -8 -52 0 l-18
7 -83 0 -83 0 -6 7 -7 6 7 7 c5 4 8 6 14 6 5 0 15 4 26 9 23 11 27 11 50 0
l18 -9 31 -1 c18 0 39 1 49 2 20 3 39 3 55 0 6 -1 13 -1 16 0 3 1 6 1 7 0 0 0
1 0 1 2 0 1 1 2 3 2 4 0 14 12 18 21 4 11 4 95 0 106 -4 9 -14 21 -18 21 -2 0
-3 1 -3 2 0 0 -2 2 -5 2 -9 2 -436 1 -441 0 -5 -2 -15 2 -19 8 -1 2 -4 4 -6 4
-3 0 -2 1 3 3 4 1 10 4 14 6 7 3 28 3 206 3 111 0 198 1 198 2 0 1 2 2 5 3 3
1 5 2 5 3 -1 0 0 3 1 6 2 3 2 9 2 15 0 6 1 9 3 10 2 0 1 1 -1 1 -7 0 -12 18
-9 30 4 15 11 20 27 21 22 1 35 -17 28 -40 -3 -9 -4 -11 -8 -11 -2 0 -3 -1 -1
-1 2 -1 3 -4 3 -10 0 -6 0 -12 2 -15 1 -3 2 -6 1 -6 0 -1 2 -2 5 -3 3 -1 5 -2
5 -3 0 -1 15 -2 33 -1 35 1 37 1 37 3 0 1 1 2 3 2 4 0 14 12 18 21 2 6 3 16 3
57 0 68 -3 75 -27 77 -7 0 -15 -1 -20 -2 -11 -4 -19 -4 -38 3 -23 8 -51 10
-71 5 -7 -2 -14 -4 -15 -5 -4 -3 -24 -9 -31 -9 -6 0 -19 3 -33 10 -15 7 -27 7
-140 7 l-112 -1 -10 -5 c-5 -3 -14 -9 -18 -14 -11 -11 -18 -15 -30 -15 -12 0
-19 4 -30 15 -14 15 -24 19 -54 20 -25 1 -27 1 -33 7 -3 3 -6 5 -5 5 4 0 9 14
9 23 0 10 -5 19 -15 26 -7 4 -19 7 -84 18 -42 7 -79 13 -82 13 -14 0 -33 -10
-40 -23 -31 -50 -68 -95 -111 -134 l-11 -10 -5 5 c-3 2 -4 4 -3 4 1 0 1 1 0 2
-1 0 -4 5 -6 10 -4 10 -14 22 -18 22 -2 0 -3 1 -3 2 0 1 -1 1 -2 2 -29 3 -31
3 -53 -5 -12 -4 -23 -7 -26 -7 -3 0 -14 3 -26 7 l-21 7 -45 0 -46 0 -7 6 c-4
3 -7 7 -8 10 -1 13 -15 51 -30 80 -10 21 -28 32 -47 32 -3 0 -45 -8 -92 -17z
m860 -302 c0 -6 -1 -12 -2 -14 0 -2 -1 -7 -1 -10 0 -3 -2 -8 -6 -11 -5 -5 -7
-6 -17 -6 -10 0 -12 1 -17 6 -5 5 -6 7 -6 16 0 13 3 18 15 24 15 8 21 10 28 7
6 -2 6 -3 6 -12z m-439 -2 c8 -3 20 -14 38 -32 15 -14 32 -29 37 -32 13 -7 16
-12 16 -24 0 -11 3 -15 23 -27 7 -5 13 -9 14 -10 1 -1 6 -4 11 -8 6 -3 11 -8
12 -9 0 -2 3 -3 6 -3 3 0 3 -1 1 -1 -2 -1 -4 -2 -4 -3 0 -6 -10 -7 -65 -8 -60
-2 -61 -2 -61 -4 0 -1 -1 -2 -3 -2 -4 0 -14 -12 -18 -21 -4 -11 -4 -99 0 -110
4 -9 14 -21 18 -21 2 0 3 -1 3 -2 0 -2 1 -2 1 -2 1 1 4 1 7 0 4 -1 39 -2 78
-2 67 0 72 -1 70 -4 -2 -1 -4 -4 -5 -4 -1 -1 2 -2 7 -2 6 -1 3 -1 -8 -2 -49
-4 -108 -10 -113 -12 -12 -4 -17 -12 -17 -26 0 -12 0 -13 9 -22 5 -5 11 -12
13 -15 3 -3 10 -12 15 -19 22 -25 13 -26 -57 -9 -11 3 -53 13 -66 17 -28 7
-31 11 -20 32 12 24 24 58 27 81 1 6 1 7 5 25 1 6 2 15 3 20 1 5 1 13 2 17 4
33 10 98 12 140 1 13 2 26 2 28 1 6 -6 25 -11 30 -3 3 -8 7 -13 9 -9 4 -12 4
-170 4 l-160 0 -6 6 c-3 3 -5 6 -4 6 0 1 1 5 1 9 1 6 3 9 7 13 l6 6 173 -1
173 0 11 -6z m688 -26 c3 -3 4 -7 4 -14 0 -13 -6 -19 -19 -19 -13 0 -19 6 -19
19 0 7 1 11 4 14 7 8 23 8 30 0z m-1134 -39 c5 -6 5 -12 0 -18 -7 -8 -22 -2
-22 9 0 11 15 17 22 9z m257 -37 c8 -5 17 -27 18 -43 1 -13 1 -15 -3 -19 -3
-4 -7 -5 -12 -5 -13 0 -35 13 -42 26 -7 11 -6 31 2 39 7 7 27 8 37 2z m566
-49 l-6 -7 -24 1 c-25 1 -29 2 -29 7 0 2 -2 3 -3 3 -2 0 2 3 9 6 10 5 16 7 30
8 l17 1 6 -6 7 -7 -7 -6z m-931 12 c5 -5 5 -11 0 -16 -7 -7 -22 -1 -19 9 3 11
12 14 19 7z m858 -35 c3 -1 3 -4 3 -10 0 -5 -1 -10 -2 -10 0 -1 0 -3 2 -4 2
-2 3 -7 3 -15 0 -11 -1 -13 -6 -18 -6 -6 -7 -6 -18 -6 -11 0 -12 0 -18 6 -5 5
-6 7 -6 18 0 16 7 25 27 38 6 4 9 4 15 1z m-578 -40 l5 -6 -4 -25 c-10 -50
-15 -53 -85 -51 -25 1 -50 2 -57 2 -16 0 -16 0 -18 7 0 3 2 14 9 31 6 15 10
29 10 31 1 3 4 7 8 10 l7 6 60 0 60 0 5 -5z m720 -37 c5 -5 5 -11 0 -16 -10
-10 -27 5 -16 16 4 4 12 4 16 0z m-791 -95 c3 -3 3 -3 0 -6 -3 -3 -3 -3 -6 0
-3 2 -3 3 -1 6 4 4 4 4 7 0z m103 -56 c3 -3 4 -7 4 -14 0 -13 -6 -19 -19 -19
-13 0 -19 6 -19 19 0 7 1 11 4 14 7 8 23 8 30 0z m449 -24 c5 -8 1 -16 -8 -16
-9 0 -13 8 -8 16 2 3 5 5 8 5 3 0 6 -2 8 -5z m-55 -93 c3 -2 8 -4 10 -4 3 0 4
-1 2 -1 -2 -1 -7 -3 -12 -5 -13 -7 -18 -6 -26 2 -3 3 -3 3 1 7 7 8 15 8 25 1z
m87 -149 c3 -5 3 -5 0 -10 -2 -3 -5 -5 -7 -5 -2 0 -5 2 -7 5 -3 5 -3 5 0 10 2
3 5 5 7 5 2 0 5 -2 7 -5z m-81 -69 c3 -1 10 -6 16 -11 19 -16 23 -18 70 -19
37 -1 53 -3 59 -8 1 -1 5 -2 8 -3 l6 0 -6 -1 c-5 0 -7 -1 -10 -7 -6 -16 -6
-20 3 -41 10 -25 19 -56 25 -87 5 -25 7 -31 9 -33 1 -1 -2 -4 -6 -7 l-9 -5
-49 0 c-40 0 -52 1 -57 3 -7 3 -15 9 -11 9 1 0 6 5 11 10 6 6 15 15 20 21 15
15 17 18 16 34 0 13 0 13 -8 21 -4 4 -13 11 -20 15 -7 4 -21 13 -32 20 -11 7
-29 17 -40 23 -51 26 -58 36 -39 55 14 13 29 17 44 11z m-361 -35 c3 -3 7 -5
9 -6 2 0 2 -1 1 -1 -2 0 -6 -3 -10 -7 -4 -4 -10 -9 -13 -12 -5 -5 -6 -7 -6
-17 0 -7 1 -12 2 -11 1 1 2 0 3 -1 2 -3 27 -2 27 0 0 1 1 2 2 1 0 0 3 2 5 5 2
3 5 6 6 6 2 0 3 1 4 3 1 2 4 3 11 3 14 0 19 -6 17 -19 -1 -6 -2 -17 -2 -25 -1
-19 3 -26 19 -35 11 -6 32 -18 47 -28 3 -2 17 -11 30 -19 23 -14 32 -22 35
-32 4 -9 4 -12 1 -22 -1 -5 -2 -11 -1 -13 2 -5 0 -16 -3 -22 -1 -2 -7 -9 -13
-15 -6 -6 -16 -17 -21 -25 -12 -17 -17 -21 -31 -28 -27 -13 -49 -3 -49 22 0
18 5 22 28 31 13 5 23 14 30 30 l6 11 -3 12 c-5 15 -14 24 -26 26 -5 1 -52 1
-105 1 l-96 -1 -6 6 -6 6 0 85 0 85 6 6 6 6 45 -1 c42 -1 45 -1 51 -5z m640 6
c-4 -1 -10 -1 -14 0 -3 0 0 0 8 0 8 0 11 0 6 0z m-2 -12 c-8 -1 -22 -1 -29 0
-8 0 -2 0 14 0 16 0 22 0 15 0z m33 -129 c5 -5 6 -19 1 -25 -3 -4 -2 -15 2
-15 1 0 -2 -2 -7 -5 -6 -3 -12 -5 -15 -5 -5 0 -20 9 -17 10 1 1 3 7 4 14 2 15
4 21 11 26 6 5 16 5 21 0z m-306 -62 c0 -1 2 -2 5 -3 l4 0 -4 -2 c-3 -1 -5 -2
-5 -3 0 -2 -7 -1 -10 1 -2 2 -2 3 0 6 3 3 10 3 10 1z m271 -107 c12 -7 14 -33
3 -43 -8 -9 -32 -9 -40 0 -9 8 -9 32 0 41 7 7 27 8 37 2z m-232 -21 c4 -6 4
-24 -1 -30 -7 -9 -27 -9 -34 0 -5 6 -5 24 0 30 7 9 27 9 35 0z m446 -12 c4 -6
4 -24 -1 -30 -7 -9 -27 -9 -34 0 -5 6 -5 24 0 30 7 9 27 9 35 0z m-1282 -175
c4 -4 5 -7 5 -15 0 -14 -6 -20 -20 -20 -14 0 -20 6 -20 20 0 14 6 20 20 20 8
0 11 -1 15 -5z m1412 -28 c3 -3 3 -3 0 -6 -3 -3 -3 -3 -6 0 -3 2 -3 3 -1 6 4
4 4 4 7 0z m-374 -11 c7 -6 7 -19 1 -25 -6 -7 -19 -7 -25 -1 -6 6 -7 17 -1 25
6 7 18 7 25 1z m-1114 -24 c7 -6 7 -19 1 -25 -6 -7 -19 -7 -25 -1 -7 6 -7 19
-1 25 6 7 19 7 25 1z m1503 -30 c3 -3 5 -9 6 -27 3 -21 2 -23 -1 -28 -5 -6 -8
-6 -13 -1 -3 3 -5 9 -6 27 -3 21 -2 23 1 28 5 6 8 6 13 1z"/>
</g>
</svg>
