<?xml version="1.0" standalone="no"?>
<!DOCTYPE svg PUBLIC "-//W3C//DTD SVG 20010904//EN"
 "http://www.w3.org/TR/2001/REC-SVG-20010904/DTD/svg10.dtd">
<svg version="1.0" xmlns="http://www.w3.org/2000/svg"
 width="1100.000000pt" height="2850.000000pt" viewBox="0 0 1100.000000 2850.000000"
 preserveAspectRatio="xMidYMid meet">
<metadata>
Created by potrace 1.15, written by Peter Selinger 2001-2017
</metadata>
<g transform="translate(0.000000,2850.000000) scale(0.500000,-0.500000)"
fill="#000000" stroke="none">
<path d="M617 3724 c-11 -4 -22 -15 -25 -25 -1 -5 -2 -31 -2 -60 0 -29 0 -58
-1 -65 -4 -44 -9 -93 -12 -112 0 -3 -1 -9 -2 -13 -1 -5 -4 -10 -7 -14 l-6 -6
-31 -1 c-76 -2 -230 0 -239 3 -2 0 -12 1 -22 2 -10 1 -31 2 -46 4 -30 3 -41 1
-52 -9 -11 -11 -12 -19 -10 -79 l2 -54 5 -7 c8 -9 31 -12 37 -5 6 5 28 4 35
-2 6 -4 6 -6 6 -20 0 -14 0 -16 -6 -20 -7 -6 -28 -7 -34 -2 -3 3 -8 3 -25 0
-12 -2 -17 -14 -16 -38 1 -54 3 -64 19 -75 12 -8 17 -9 44 -11 13 -1 33 -2 43
-2 10 -1 66 -2 122 -2 103 -2 104 -2 108 -6 4 -4 4 -4 0 -17 -2 -7 -7 -24 -10
-38 -21 -83 -44 -161 -70 -241 -7 -21 -14 -45 -17 -53 -6 -20 -43 -126 -47
-135 -1 -2 -7 -17 -13 -34 -28 -78 -87 -224 -120 -296 -19 -43 -56 -120 -66
-136 -16 -28 -18 -33 -17 -44 2 -21 8 -25 68 -45 50 -17 57 -17 75 -5 17 11
25 15 34 14 16 -1 22 -6 28 -22 6 -16 15 -33 19 -34 2 -1 4 -2 4 -3 0 -3 18
-2 24 1 6 3 14 12 19 20 5 10 12 14 23 14 14 0 22 -8 23 -23 1 -15 5 -19 20
-18 12 1 23 7 23 13 0 1 2 6 5 12 3 5 7 14 9 19 2 5 10 23 17 41 30 71 49 122
49 130 0 4 -3 17 -6 28 -5 18 -6 21 -4 29 3 12 5 14 19 22 7 4 17 11 22 17 10
9 11 11 11 19 0 11 -4 19 -15 31 -14 14 -13 16 11 22 19 4 25 7 30 15 2 4 13
36 25 71 12 35 22 67 23 70 2 3 3 11 3 18 1 16 -3 21 -17 25 -3 0 -13 0 -27
-1 -21 -1 -34 16 -29 38 4 13 14 21 29 20 11 0 21 -6 25 -13 4 -6 4 -6 21 -6
20 0 23 2 27 20 2 7 6 21 9 30 6 20 6 28 1 39 -3 7 -5 9 -12 10 -4 1 -8 1 -9
1 -1 0 -7 0 -14 0 -12 -1 -14 0 -19 5 -14 14 -6 39 12 39 13 1 15 0 23 -7 7
-7 8 -7 21 -7 15 0 20 3 24 11 3 8 29 104 35 129 1 6 4 15 5 19 1 4 2 10 3 13
1 5 7 33 11 49 1 4 2 10 3 12 0 2 4 19 9 38 11 45 12 52 13 55 0 2 2 12 5 24
7 31 9 32 48 35 22 2 77 9 89 12 3 0 9 1 15 2 6 1 26 4 44 7 18 4 36 7 39 7
11 2 53 11 79 16 40 8 53 17 60 40 3 13 3 225 -1 234 -2 6 -13 19 -13 16 0 -1
-2 0 -4 1 -4 2 -12 4 -26 6 -11 1 -21 5 -25 9 -1 1 -6 3 -11 5 -5 1 -11 3 -13
4 -3 1 -12 0 -25 -2 -19 -4 -23 -6 -55 -23 -9 -5 -11 -5 -23 -4 -40 4 -42 4
-82 -3 -21 -4 -45 -6 -53 -6 -24 0 -37 -3 -52 -13 -18 -12 -30 -13 -39 -3 -10
9 -9 20 5 45 6 11 11 21 12 23 1 2 4 5 8 7 l6 4 14 -8 c17 -8 24 -10 40 -12
33 -4 53 4 56 23 1 4 4 19 7 34 8 32 8 42 2 63 -5 17 -6 30 -2 34 1 1 2 3 1 3
0 1 -1 5 -2 10 0 6 -2 12 -3 14 -1 2 -1 4 -1 4 1 0 -2 2 -6 5 -8 5 -13 6 -38
8 -8 0 -28 2 -45 3 -56 4 -65 1 -81 -31 -4 -6 -8 -11 -16 -16 -6 -4 -13 -9
-16 -12 -6 -6 -7 -6 -6 -2 1 2 0 3 -1 3 -1 0 -2 1 -1 3 0 2 0 3 -1 4 -1 1 -2
3 -2 5 0 4 -1 7 -13 31 -10 19 -20 26 -41 28 -7 0 -21 1 -31 2 -10 1 -18 2
-19 2 0 0 -5 -1 -11 -3z m120 -86 c-1 -1 0 -2 1 -2 1 0 1 -2 1 -4 0 -2 1 -6 2
-9 8 -15 1 -29 -14 -29 -18 0 -24 19 -10 32 4 4 10 9 13 12 4 5 10 4 7 0z
m136 -255 c6 -4 6 -6 6 -20 0 -14 0 -16 -6 -20 -4 -4 -7 -5 -18 -5 -11 0 -14
1 -18 5 -6 4 -6 6 -6 20 0 14 0 16 6 20 4 4 7 5 18 5 11 0 14 -1 18 -5z m-82
-176 c12 -6 17 -19 11 -27 -3 -5 -11 -5 -32 -3 -13 1 -23 -2 -41 -10 -24 -12
-42 -4 -42 17 0 9 1 11 7 16 6 7 8 7 33 6 6 -1 25 2 32 4 8 3 25 1 32 -3z
m-240 -9 c10 -9 3 -26 -10 -26 -8 0 -15 7 -15 15 0 13 16 20 25 11z m147 -101
l-5 -5 -4 4 -5 5 4 4 5 5 4 -4 5 -5 -4 -4z m14 -198 c21 -9 20 -45 -2 -54 -10
-5 -28 -1 -34 6 -9 10 -9 32 0 42 7 8 24 11 36 6z m-179 -63 c7 -6 7 -19 1
-25 -6 -7 -19 -7 -25 -1 -7 6 -7 19 -1 25 6 7 19 7 25 1z m98 -11 c5 -8 1 -16
-8 -16 -9 0 -13 8 -8 16 2 3 5 5 8 5 3 0 6 -2 8 -5z m-104 -322 c12 -12 3 -31
-13 -31 -11 0 -18 7 -18 18 0 11 7 18 18 18 6 0 9 -1 13 -5z m-222 -237 c16
-7 16 -43 -1 -50 -15 -6 -34 -2 -39 9 -4 8 -4 24 0 32 5 12 23 15 40 9z"/>
<path d="M1346 3130 c-1 -1 -19 -2 -42 -3 -53 -2 -72 -3 -151 -8 -103 -7 -109
-8 -122 -31 -4 -7 -4 -11 -5 -127 0 -133 0 -131 13 -143 11 -11 18 -12 69 -7
55 5 69 7 97 8 12 1 25 2 28 2 11 2 119 4 180 4 105 0 184 -5 311 -20 31 -3
44 0 53 15 8 12 9 22 10 124 3 145 3 141 -6 154 -9 14 -39 23 -52 16 -3 -1 -5
-1 -5 -1 -1 1 -11 -5 -27 -16 -19 -13 -32 -11 -50 8 -5 5 -13 11 -20 14 -11 5
-14 6 -47 8 -23 2 -233 4 -234 3z m-59 -233 c3 -3 3 -3 0 -6 -4 -5 -11 1 -7 6
4 4 4 4 7 0z"/>
<path d="M917 2631 c-15 -4 -26 -13 -31 -28 -4 -9 -18 -80 -21 -101 -1 -6 -2
-12 -2 -15 -1 -4 -3 -16 -4 -24 0 -3 -1 -10 -2 -15 -7 -57 -9 -127 -3 -157 3
-18 10 -44 12 -46 1 -1 2 -3 2 -4 0 -4 22 -48 25 -51 2 -1 3 -4 3 -5 0 -2 1
-3 2 -3 0 0 3 -3 5 -6 7 -12 39 -46 57 -61 52 -42 146 -82 229 -96 3 -1 14 -2
24 -4 18 -3 39 -5 45 -3 9 3 19 30 14 37 -5 7 -3 29 4 35 8 9 32 9 40 0 8 -7
9 -34 2 -39 -2 -1 -3 -5 -2 -16 1 -12 2 -14 8 -19 8 -8 16 -9 94 -7 65 0 67 1
85 6 21 6 25 6 51 2 18 -3 53 -3 92 2 4 0 13 1 20 2 16 1 49 5 57 6 3 0 11 1
18 2 28 3 35 4 44 7 17 7 28 21 30 40 0 5 1 23 2 40 1 30 2 61 4 104 4 97 4
106 2 113 -3 13 -12 22 -23 26 -12 3 -15 3 -37 -9 -22 -11 -28 -12 -56 -7 -17
4 -18 4 -72 -3 -30 -3 -68 -7 -86 -9 -69 -7 -77 -10 -91 -40 -7 -14 -10 -17
-22 -17 -12 0 -15 3 -22 17 -14 27 -22 32 -55 34 -78 4 -131 19 -158 46 -32
31 -36 71 -16 172 7 34 7 38 5 46 -8 25 -16 27 -100 34 -15 1 -31 2 -47 4 -33
4 -116 11 -118 11 -2 0 -6 -1 -8 -1z m114 -245 c10 -9 3 -26 -10 -26 -8 0 -15
7 -15 15 0 13 16 20 25 11z m613 -167 l-5 -5 -4 4 -5 5 4 4 5 5 4 -4 5 -5 -4
-4z m-307 -66 c3 -5 3 -5 0 -10 -2 -3 -5 -5 -7 -5 -2 0 -5 2 -7 5 -3 5 -3 5 0
10 2 3 5 5 7 5 2 0 5 -2 7 -5z m190 -40 c12 -7 14 -33 3 -43 -8 -9 -32 -9 -40
0 -9 8 -9 32 0 41 7 7 27 8 37 2z"/>
</g>
</svg>
